<?xml version="1.0" encoding="utf-8"?>
<!-- Generator: Adobe Illustrator 23.0.2, SVG Export Plug-In . SVG Version: 6.00 Build 0)  -->
<svg version="1.1" id="Camada_1" xmlns="http://www.w3.org/2000/svg" xmlns:xlink="http://www.w3.org/1999/xlink" x="0px" y="0px"
	 viewBox="0 0 116.83 221.47" style="enable-background:new 0 0 116.83 221.47;" xml:space="preserve">
<style type="text/css">
	.st0{fill:#FEFEFE;}
	.st1{fill:#353535;}
	.st2{fill:#010002;}
	.st3{fill:#573617;}
	.st4{fill:#294A26;}
	.st5{fill:#3A6B34;}
	.st6{fill:#274825;}
	.st7{fill:#498A3C;}
	.st8{fill:#B16F21;}
	.st9{fill:#75491D;}
	.st10{fill:#9F621B;}
	.st11{fill:#633E1B;}
	.st12{fill:#448039;}
	.st13{fill:#965D1E;}
	.st14{fill:#5B9E38;}
	.st15{fill:#3F4837;}
	.st16{fill:#518238;}
	.st17{fill:#D68A37;}
	.st18{fill:#C95B22;}
	.st19{fill:#CA5B22;}
	.st20{fill:#EDCB79;}
	.st21{fill:#D89039;}
	.st22{fill:#C95B23;}
	.st23{fill:#EDCA79;}
	.st24{fill:#E1A73D;}
	.st25{fill:#E0A73C;}
	.st26{fill:#F5E283;}
	.st27{fill:#D68935;}
	.st28{fill:#F1DB80;}
	.st29{fill:#CA5E29;}
	.st30{fill:#CC6631;}
	.st31{fill:#D78A36;}
	.st32{fill:#F3F1A8;}
	.st33{fill:#774E1C;}
	.st34{fill:#F5E789;}
	.st35{fill:#7F4E1B;}
	.st36{fill:#CA5F2B;}
	.st37{fill:#F3DC80;}
	.st38{fill:#CE602C;}
	.st39{fill:#EFD07B;}
	.st40{fill:#DD8F37;}
	.st41{fill:#F5E885;}
	.st42{fill:#F3F09C;}
	.st43{fill:#784B19;}
	.st44{fill:#E7B969;}
	.st45{fill:#694019;}
	.st46{fill:#F1D17B;}
	.st47{fill:#DA8E39;}
	.st48{fill:#F3EB93;}
	.st49{fill:#E6B862;}
	.st50{fill:#598F3A;}
	.st51{fill:#528338;}
	.st52{fill:#66983B;}
	.st53{fill:#91B757;}
	.st54{fill:#6BA03E;}
	.st55{fill:#8FB956;}
	.st56{fill:#BCD070;}
	.st57{fill:#99BE57;}
	.st58{fill:#7AAB3A;}
	.st59{fill:#92B752;}
	.st60{fill:#D4DE82;}
	.st61{fill:#77AB3D;}
	.st62{fill:#BECF71;}
	.st63{fill:#92BC57;}
	.st64{fill:#89B138;}
	.st65{fill:#BDCF70;}
	.st66{fill:#F7F7B6;}
	.st67{fill:#F8F8BC;}
	.st68{fill:#ACC463;}
	.st69{fill:#32462C;}
	.st70{fill:#FCFBED;}
	.st71{fill:#A0601A;}
	.st72{fill:#F2E047;}
	.st73{fill:#F8F6C7;}
	.st74{fill:#E5B23A;}
	.st75{fill:#EBC240;}
	.st76{fill:#F7F6C9;}
	.st77{fill:#D78633;}
	.st78{fill:#F8F5CD;}
	.st79{fill:#ACC464;}
	.st80{fill:#83AF4D;}
	.st81{fill:#60993B;}
	.st82{fill:#D68936;}
	.st83{fill:#E1AA3D;}
	.st84{fill:#E9BE3F;}
	.st85{fill:#EDC940;}
	.st86{fill:#D58531;}
	.st87{fill:#F1DB42;}
	.st88{fill:#80AD37;}
	.st89{fill:#EAE557;}
	.st90{fill:#F8F5C7;}
	.st91{fill:#7FAE4C;}
	.st92{fill:#346130;}
	.st93{fill:#96B854;}
	.st94{fill:#C9D77B;}
	.st95{fill:#F2E147;}
</style>
<g>
	<path class="st0" d="M0.69,55.92c2.58-7.48,6.3-9.99,15.04-10.04c0-0.31,0.07-0.64-0.01-0.92c-2.89-10.55,2.13-16.91,13.11-16.53
		c3.72,0.13,7.46,0.6,10.86,2.13c2.11,0.95,2.97,0.68,4.02-1.45c4.92-10,11.79-18.38,21.73-23.75c6.65-3.59,13.53-6.82,21.5-4.66
		c7.94,2.16,11.08,10.32,6.63,17.35c-0.7,1.11-1.5,2.17-2.28,3.23c-2.07,2.8-3.95,5.16,0.07,8.37c2.58,2.06,2.49,5.87,1.29,9.08
		C92,40.47,92,41.41,94.13,41.44c0.35,0.01,0.71,0.13,1.06,0.21c10.05,2.36,13.39,8.59,9.47,18.25c-1.08,2.65-0.9,3.53,1.94,4.75
		c4.92,2.11,8.7,5.73,8.64,11.69c-0.06,5.34-2.87,8.74-7.73,11.03c-5.12,2.4-8.08,7.37-11.82,11.38c-1.05,1.12,0.19,1.76,0.76,2.31
		c4.33,4.2,7.26,9.44,10.58,14.36c6.46,9.56,9.85,20.09,9.81,31.77c-0.04,13.08-1.54,25.93-5.18,38.48
		c-3.49,12.06-10.47,21.9-21.12,28.53c-9.31,5.79-19.64,8.71-30.77,6.64c-9.07-1.69-18.04-4.1-25.85-9.13
		c-6.81-4.39-12.49-10.11-15.09-18.18c-0.15-0.45-0.37-0.9-0.64-1.28c-9.83-14-8.65-29.38-6.55-45.26
		c1.52-11.55,3.51-22.94,6.33-34.22c0.29-1.16,0.14-1.98-0.6-2.95c-2.63-3.43-5.24-6.81-8.78-9.42c-6.87-5.06-6.62-15.01,0.65-19.65
		c2.13-1.36,2.01-2.28,0.91-4.01c-1.73-2.73-3.18-5.64-5.04-8.27c-1.96-2.77-3.5-5.68-4.4-8.95C-0.25,58.31-0.22,57.12,0.69,55.92z"
		/>
	<path class="st1" d="M0.71,59.49"/>
	<path class="st2" d="M24.69,53.97c-1.61-3.75-2.91-6.55-4.04-9.42c-2.98-7.54-0.47-11.37,7.59-11.42c4.98-0.03,9.9,1.02,14.02,3.74
		c2.54,1.68,2.62,0.6,3.47-1.3c3.86-8.61,8.71-16.59,16.38-22.37c6.17-4.66,12.79-8.45,20.94-8.28c2.9,0.06,5.59,0.61,6.99,3.44
		c1.5,3.01,0.65,5.77-1.27,8.38c-2.9,3.94-5.53,8.06-7.57,12.39c0.36,1,1.05,0.67,1.58,0.71c4.98,0.43,7.13,4.01,4.98,8.59
		c-1.03,2.19-1.86,4.38-2.22,7.15c3.46,0.13,6.91-0.17,10.18,1.01c5.53,1.99,7.04,5.09,4.99,10.6c-1,2.69-2.12,5.34-3.28,7.97
		c-0.68,1.54-0.4,1.98,1.37,2.11c3.79,0.29,7.2,1.64,9.88,4.54c3.19,3.45,2.46,8.54-1.81,10.55c-7.61,3.59-12.09,10.3-17.1,16.53
		c-1.06,1.32-0.37,1.89,0.6,2.87c8.29,8.42,14.95,17.95,19.12,29.07c3.96,10.56,2.82,21.45,1.69,32.29
		c-1.02,9.78-2.6,19.44-6.88,28.46c-2.66,5.59-6.17,10.46-10.93,14.46c-13.85,11.64-29.02,13.22-45.62,6.64
		c-5.69-2.25-11.33-4.15-15.9-8.51c-3.54-3.36-6.41-6.96-8.3-11.51c-1.69-4.07-3.97-7.91-6.05-11.81
		c-1.68-3.14-2.41-6.48-2.45-10.01c-0.21-18.17,1.96-36.03,6.84-53.55c0.54-1.93,0.39-4.01,2.04-5.58c0.92-0.88-0.2-1.52-0.66-2.08
		c-3.89-4.68-7.26-9.78-12.33-13.46c-4.36-3.16-3.2-9.66,1.76-12.1c1.75-0.86,4.67-0.64,5.07-2.53c0.3-1.45-1.46-3.38-2.43-5.03
		c-2.35-4.03-4.63-8.11-7.2-12c-2.17-3.28-3.87-6.73-1.72-10.34c2.07-3.47,5.75-3.7,9.59-3.31C18.91,51.15,21.62,51.66,24.69,53.97z
		"/>
	<path class="st3" d="M77.73,209.29c-5.52,3.36-11.66,3.28-17.63,2.5c-9.34-1.23-17.47-5.9-24.99-11.18
		c-6.44-4.52-9.27-12.03-12.76-18.83c-4.1-7.97-3.6-16.71-2.65-25.03c1.28-11.35,2.5-22.78,5.4-33.91c0.79-3.03,1.6-6.05,3.38-8.64
		c1.35-1.96,1.81-3.72,0.21-5.67c-0.14-1.27,0.51-1.73,1.69-1.65c1.79,1.27,2.97,0.24,4.34-0.92c3.79-3.22,7.32-7.04,12.72-7.41
		c5.41-0.36,10.85-1.23,16.2,0.55c0.94,3.34,0.92,3.38-2.97,3.89c-6.83-0.11-13.51,0.43-19.33,4.58c-1.07,0.54-2.03,1.25-2.88,2.11
		c-0.7,0.71-0.48,1.24,0.38,1.6c3.56,1.57,7.38,2.52,10.77,4.48c2.61,2.06,4.39,1.21,6.14-1.35c1.88-2.76,3.97-5.39,6.38-7.74
		c1.31-0.98,2.1-2.8,4.14-2.64c0.73,0.58,1.06,1.36,1.11,2.28c-0.16,1.5-1.31,2.35-2.22,3.37c-2.37,2.21-4.04,4.98-6.02,7.5
		c-0.86,1.1-1.02,2.13,0.29,3.03c1.91,1.35,4.19,2.18,5.74,4.03c0.42,0.95,1.05,1.93-0.3,2.69c-2.61,0.34-4.41-1.59-6.61-2.37
		c-1.25-0.45-2.42-1.85-3.88-0.44c-3.4,4.3-6.04,9.11-9.17,13.59c-2.65,4.2-2.69,4.27,1.33,6.78c4.25,2.65,8.36,5.5,12.71,7.98
		c1.68,1.09,2.33-0.16,3.04-1.33c3.36-5.53,6.92-10.94,10.68-16.21c0.67-0.77,1.34-1.54,2.51-1.42c0.51,0.45,0.68,1.09,0.3,1.58
		c-0.76,0.98-0.84,1.74,0.29,2.44c-0.24,2.68-2.37,4.35-3.51,6.55c-2.46,3.69-5.09,7.28-7.05,11.27c-0.42,1.55,0.82,2.07,1.75,2.71
		c3.59,2.47,7.09,5.08,10.68,7.55c0.4,0.25,0.81,0.5,1.14,0.82c1.98,1.89,3.55,1.85,4.92-0.76c0.69-1.32,1.47-2.71,2.97-3.38
		c0.92,0.46,1.91,0.81,2.64,1.58c0.01,2.9-3,4.43-3.27,7.2c1.55,2.37,4.15,3.43,6.23,5.13c1.52,1.25,3.54,1.99,4.27,4.06
		c-0.2,1.04,0.19,2.35-1.25,2.86c-3.47-0.65-5.72-3.31-8.44-5.16c-3.96-2.7-4.06-2.8-6.55,1.23c-2.71,4.38-5.35,8.8-7.63,13.42
		c-0.48,0.97-1.7,1.94-0.4,3.17c2.16,2.39,5.78,3.23,7,6.61C81.24,205.28,78.82,207.11,77.73,209.29z"/>
	<path class="st4" d="M27.29,60.26c1.76,0.85,3.19,2.4,5.7,2.67c-2.23-5.96-4.04-11.71-6.75-17.15c-1.06-2.13-3.17-4.73-1.48-6.88
		c1.74-2.2,5.01-1.2,7.48-0.79c5.57,0.92,10.26,3.73,14.12,8.55c3.39-8.77,6.41-17.19,12.52-23.95c3.5-2.09,5.53-5.98,9.33-7.66
		c1.13-0.5,2.4-2.45,3.82-0.28c-2.34,3.25-6.11,4.94-8.66,8c-1.3,1.56-2.77,2.98-3.91,4.69c-1.42,1.69-2.57,3.55-3.7,5.44
		c-1.39,3.28-2.96,6.48-4.32,9.77c-1.48,3.57-2.63,7.12-1.16,11.02c0.37,0.99,0.34,2.13-0.01,3.16c-0.62,1.88-1.5,1.47-2.42,0.2
		c-1.37-4.44-3.26-8.54-7.37-11.18c-2.76-1.91-5.43-4-8.89-4.5c-1.34-0.19-2.94-0.87-3.32,1.35c1.01,3.73,3.25,6.91,4.53,10.51
		c0.36,1.01,1.04,1.96,1.14,3c0.59,6.45,4.07,11.16,8.87,15.14c0.72,0.6,1.19,1.49,1.73,2.28c1.06,1.96,2.54,3.89,0.58,6.13
		c-2.25,0.03-2.62-2.15-3.88-3.28c-2.97-4.83-7.71-7.68-12.13-10.91c-1.24-0.91-2.71-1.54-3.46-3.01
		C25.43,61.26,26.26,60.69,27.29,60.26z"/>
	<path class="st5" d="M71.96,14.78c-3.67-0.49-5.56,2.45-8.09,4.18c-1.72,1.18-2.35,3.79-4.98,3.74c4.09-5.19,9.27-8.88,15.32-11.49
		c2.83-1.22,5.7-1.69,8.73-1.5c1.18,0.07,2.55-0.09,3.14,1.24c0.55,1.26-0.27,2.33-1,3.27c-5.11,6.58-8.41,14.15-12.23,22.03
		c3.03-0.74,5.37-2.48,8.31-2.09c3.07,0.4,3.65,1.42,1.6,3.78c-1.91,2.03-1.27,4.97-2.59,7.21c-0.79,1.34-1.51,2.48-2.45,0.13
		c-0.23-1.68,0.38-3.23,0.73-4.82c0.09-0.86,1.11-1.79,0.21-2.55c-0.64-0.54-1.55,0.08-2.29,0.35c-1.2,0.43-2.34,0.99-3.34,1.81
		c-2.81,2.54-3.55,6.31-5.55,9.32c-0.76,1.16-1.7,2.89-2.75,0.14c-0.1-0.52-0.11-1.04-0.06-1.57c4.29-11.95,8.84-23.79,16.62-34.57
		c-3.71-0.34-6.05,2.08-8.95,1.77C72.21,15.02,72.08,14.9,71.96,14.78z"/>
	<path class="st6" d="M30.17,107.06c-0.5,0.48-1,0.97-1.5,1.45c-2.6-3.11-5.24-6.19-7.78-9.34c-1.66-2.06-3.42-3.97-5.64-5.47
		c-1.06-0.71-2.43-1.5-2.22-3.01c0.23-1.7,1.66-2.47,3.15-3.11c2.87-1.24,5.91-0.55,9.07-0.85c0.09-1.84-1.26-2.98-1.95-4.4
		c-3.5-7.22-7.45-14.19-11.61-21.04c-0.8-1.32-2.33-2.74-1.25-4.57c1.21-2.05,3.35-1.44,5.21-1.49c0.83-0.02,1.69-0.08,2.36,0.59
		c0.16,0.87,1.5,1.55,0.42,2.62c-1.23,1.14-3.08-0.5-4.22,0.96c5.11,7.75,9.36,15.93,13.19,24.34c1.32,2.89,2.76,5.56,5.66,7.19
		c0.78,0.44,1.86,1.17,1.34,2.23c-0.55,1.13-1.69,0.49-2.56,0.21c-1.6-0.51-3.11-1.25-4.66-1.89c-2.8-1.17-5.67-1.97-8.73-1.06
		c-1.84,0.61-0.63,1.34-0.02,1.92c2.85,2.69,5.54,5.5,7.82,8.7C27.13,103.33,30.31,104.12,30.17,107.06z"/>
	<path class="st7" d="M91.22,67.4c-0.37,1.62-2.29,3.33-1.5,4.57c1.04,1.63,2.96-0.33,4.56-0.36c3.54-0.08,6.95,0.11,9.96,2.24
		c2.29,1.62,2.27,3.34-0.06,4.7c-9.61,5.6-16.11,14.05-21.54,23.47c-1.02,0.66-1.69,0.12-2.31-0.65c-0.62-1.97,0.56-3.47,1.51-4.91
		c4.48-6.76,9.8-12.79,16-18.02c1-0.68,2-1.37,2.85-2.22c-0.48-2.11-2-1.07-3.17-1.07c-6.11-0.55-10.39,3.62-15.36,5.99
		c-0.96,0.46-1.77,1.21-2.68,1.78c-0.61,0.36-1.24,0.65-1.94,0.76c-3.04-1.02-0.98-2.6-0.18-3.59c1.86-2.31,4.68-3.46,6.99-5.25
		c2.43-1.76,2.48-5.05,4.54-7.05C89.59,67.25,90.3,66.73,91.22,67.4z"/>
	<path class="st8" d="M94.25,114.23c9.15,10.82,14.86,22.84,13.03,37.48c-2.06,0.44-2.24-2.1-3.83-2.39
		c-0.3-0.07-0.6-0.18-0.88-0.31c-0.9-0.58-2.03-0.81-2.72-1.73c0.39-1.69,0.41-3.43,0.51-5.15c0.1-0.66,0.39-1.25,0.7-1.83
		c1.47-3.24-0.25-6.03-1.36-8.85c-1.65-4.22-4.7-7.7-6.55-11.83C92.2,115.57,92.2,115.57,94.25,114.23z"/>
	<path class="st9" d="M95.46,182.77c1.01-0.5,0.35-1.69,0.98-2.34c1.43-0.86,1.95-2.25,2.23-3.79c1.82-3.96,1.52-8.39,2.8-12.46
		c0.59-1.25,0.27-2.91,1.74-3.93c1.58,0.94,1.38,2.69,1.72,4.08c0.36,1.49,1.04-0.07,1.44,0.31c-0.94,8.91-1.65,17.9-7.66,25.27
		c-1.93,0.85-3.48,0.36-4.69-1.34c-0.11-0.31-0.14-0.63-0.1-0.95C94.55,186.04,95.28,184.49,95.46,182.77z"/>
	<path class="st10" d="M94.25,114.23c-2.74,1.33,0.37,3.46-0.68,5.02c-1.83-0.47-3.28-0.22-4.38,1.62c-1.1,1.83-2.53,3.46-3.78,5.2
		c-1.07,1-1.52,2.76-3.4,2.78c-1.04-0.5-1.51-1.39-1.75-2.46c0.86-3.83,4.12-6.08,6.05-9.2c2.36-4.04-0.08-9.06-5.22-10.87
		c-1.87-0.66-4.07-0.36-5.61-1.96c-0.16-0.32-0.18-0.64-0.07-0.98c1.68-0.19,1.89-2.56,3.72-2.53c0.54-0.08,1.02,0.02,1.44,0.39
		c0.69,0.26,1.38,0.53,2.07,0.79C87.79,104.87,91.42,109.18,94.25,114.23z"/>
	<path class="st11" d="M94.42,188.42c1.17,1.24,2.83,1.1,4.3,1.49c-2.52,4.88-5.68,9.35-9.49,13.26c-3.12,3.21-7.86,3.71-11.51,6.12
		c-1.4-1.3,0.17-1.84,0.73-2.55c0.96-1.22,1.42-2.47,0.75-3.97c2.35-2.01,5.13-3.45,7.43-5.52c2.1-1.78,3.69-3.96,5.08-6.32
		C92.35,189.84,92.87,188.55,94.42,188.42z"/>
	<path class="st12" d="M78.41,45.09c0.15,0.45,0.29,1.55,0.82,0.37c0.86-1.9,1.46-3.94,2.01-5.96c0.24-0.9,0.51-1.53,1.51-1.59
		c-1.22,6.31-3.28,12.34-6.62,19.01c2.65-1.98,4.53-3.4,6.43-4.79c3.9-2.86,8.09-2.37,12.27-0.88c3.36,1.2,1.6,3.53,0.99,5.55
		c-0.93-0.43-0.86-1.67-1.75-2.12c-4.49-2.29-8.5-1.43-12.13,1.86c-2.79,2.01-4.93,4.71-7.44,7.01c-1.01,0.93-1.86,2.2-3.53,2.02
		c-1.98-1.94,0.02-3.22,0.91-4.48c1.04-1.46,1.54-2.87,1.94-4.68C74.69,52.45,74.76,47.98,78.41,45.09z"/>
	<path class="st13" d="M106.38,164.63c-0.6,0.56-0.81,2.46-2.09,0.38c-0.77-1.26-0.47-2.54-0.9-4.31c-0.73,1.24-0.13,2.6-1.12,3.24
		c-0.35-0.26-0.6-0.59-0.76-0.99c0.15-4.76-0.04-9.56,2.04-14.04c2.42-0.62,1.97,2.56,3.73,2.81
		C107.43,156.05,107.22,160.36,106.38,164.63z"/>
	<path class="st14" d="M94.8,53.81c1.37,0.65,0.7,1.99,1.02,2.99c-1.23,3.66-2.84,7.16-4.6,10.6c-0.66,0.26-1.32,0.52-1.98,0.78
		c-0.23-0.27-0.52-0.61-0.42-0.94C90.31,62.54,91.72,57.81,94.8,53.81z"/>
	<path class="st15" d="M18.65,58.27c0.18-0.92-1.72-1.3-0.63-2.45c3.42,0.79,6.29,2.73,9.27,4.44c-0.47,0.69-0.95,1.37-1.42,2.06
		C22.65,62.42,20.4,60.79,18.65,58.27z"/>
	<path class="st16" d="M17.95,89.75c3.25-1.43,6.33-0.42,9.36,0.75c2.19,0.85,4.33,1.82,6.75,2.47
		c-6.86-3.29-7.99-10.37-10.85-16.16c-3.08-6.23-6.99-11.95-10.28-18.03c1.87-0.86,3.19,0.41,4.52,1.3
		c2.47,1.65,5.17,3.05,6.92,5.59c3.7,5.86,8.32,11.06,11.95,16.98c1.87,3.05,3.99,5.95,5.95,8.87c0.77-3.09,1.14-6.41,2.66-9.41
		c2.3-1.76,3.46-1.62,4.38,1.03c1.25,3.58,2.76,7.2,3.23,10.89c0.41,3.17,1.62,3.75,4.25,3.43c0.82-0.1,1.66-0.05,2.5-0.04
		c1.4-0.04,2.79-0.06,4.18-0.01c1.35,0.24,3.2-0.44,3.46,1.84c-1.25,0.95-2.47,0.77-3.66-0.13c-4.52,0-9.05-0.05-13.57,0.01
		c-6.66,0.09-11.12,4.34-15.41,8.59c-2.08,2.06-3.12,2.02-4.1-0.66c-0.98-2.21-3.78-3.03-4.31-5.59c-2.09-3.35-4.29-6.61-7.24-9.3
		C17.94,91.54,17.11,90.85,17.95,89.75z"/>
	<path class="st17" d="M58.91,153.21c-4.78-2.98-9.45-6.14-14.37-8.87c-2.73-1.52-3.56-2.87-1.25-5.31
		c0.48-0.51,0.83-1.14,1.24-1.72c1.99,0.3,2.65-1.34,3.5-2.53c1.8-2.52,3.61-5.03,5.51-7.47c0.88-1.14,1.75-2.31,3.47-2.08
		c4.73,2.06,9.07,4.84,13.62,7.24c0.74,0.39,1.45,0.87,1.56,1.83c-3.24,6.25-7.66,11.78-10.89,18.04
		C60.82,153.24,60.01,153.76,58.91,153.21z"/>
	<path class="st18" d="M65.31,198.4c-0.68,1.25-1.37,2.51-2.04,3.76c-3.12,5.77-3.71,6.14-10.03,4.74
		c-4.38-0.97-8.14-3.32-11.67-6.02c-0.94-0.72-1.36-1.4-0.66-2.69c2.26-4.18,4.34-8.46,6.49-12.7c5.96,1.61,10.04,6.13,14.76,9.63
		C63.35,196,64.78,196.81,65.31,198.4z"/>
	<path class="st19" d="M51.05,122.33c-3.48,5.44-7,10.84-10.41,16.32c-1.06,1.71-1.93,2.43-3.81,0.89c-1.84-1.51-3.83-3-6.01-3.88
		c-3.56-1.44-3.74-3.73-2.55-6.78c1.61-4.15,1.06-8.81,2.94-12.87c0.83-1.79,1.55-4.48,4.61-2.57c-0.06,0.34-0.14,0.67-0.22,1
		c-0.72,6.12,1.25,12.08,0.87,18.25c2.26-2.66,3.94-5.52,5.94-8.14c1.34-1.75,2.34-4.01,4.93-4.43
		C48.88,120.36,50.28,120.82,51.05,122.33z"/>
	<path class="st18" d="M57.48,161.14c-2.89,5.09-5.86,10.12-8.61,15.28c-1.05,1.97-1.95,1.88-3.51,0.7
		c-5.05-3.81-10.17-7.53-15.23-11.32c-2.83-2.12,0.44-3.62,0.61-5.44c2.22-0.25,2.31-2.41,3.3-3.74c1.26-1.69,2.04-3.72,3.42-5.33
		c0.75-0.87,1.66-2.01,2.69-0.2c0.84,6.1,2.69,11.91,5.3,17.45c1.54,3.27,2.64,3.2,4.65,0.23c1.9-2.81,2.53-6.55,5.98-8.24
		C56.64,160.5,57.14,160.64,57.48,161.14z"/>
	<path class="st18" d="M45.14,183.33c-2.17,4.89-4.34,9.79-6.58,14.84c-2.33-1.35-3.86-3.36-5.04-5.49
		c-3.17-5.74-6.2-11.56-8.02-17.92c-0.37-1.28-0.68-2.55,0.28-3.73c0.24-0.01,0.52-0.06,0.7,0.06
		C32.68,175.21,39.16,178.9,45.14,183.33z"/>
	<path class="st20" d="M53.31,182.74c-3.09-1.34-2.89-3.16-1.28-5.77c3.01-4.89,5.8-9.93,8.45-15.03c1.26-2.43,2.29-2.25,4.24-0.77
		c4.1,3.11,8.31,6.1,12.66,8.85c2.6,1.64,3.33,3.15,0.99,5.46c-1.94,0.97-2.71-0.92-3.97-1.62c-2.5-1.84-5.17-3.46-7.66-5.33
		c-1.83-1.38-3.16-1.08-4.28,1.05c-1.79,3.38-3.79,6.65-5.63,10.01C55.81,180.81,55.89,183.26,53.31,182.74z"/>
	<path class="st21" d="M77.56,166.21c-4.13-2.85-8.25-5.71-12.38-8.55c-1.05-0.72-1.66-1.45-0.41-2.51
		c3.32,0.65,4.72-1.48,6.03-3.98c0.88-1.68,1.62-3.45,2.78-4.98c0.38-0.4,0.83-0.63,1.39-0.61c3.24,4.36,6.08,8.96,8.1,14.03
		C81.78,162.28,80.99,165.35,77.56,166.21z"/>
	<path class="st22" d="M74.81,173.27c1.29,0.56,1.98,2.08,3.55,2.2c-3,5.28-6.05,10.53-8.96,15.85c-0.85,1.56-1.39,2.15-3.11,0.83
		c-4.23-3.26-8.65-6.3-12.99-9.42c1.86-0.52,1.83-2.5,2.84-3.68c1.41-1.03,2.49,0,3.57,0.64c1.64,0.97,3.25,2.03,4.73,3.23
		c1.73,1.39,2.96,1.14,3.93-0.88c1.14-2.37,2.26-4.75,3.57-7.02C72.54,174,72.95,172.36,74.81,173.27z"/>
	<path class="st19" d="M35.08,147.17c-2.27,4.71-5.26,9.06-7.18,13.96c-0.34,0.88-0.55,2.37-2.09,1.9
		c-1.36-0.42-2.17-1.43-2.06-2.97c0.32-4.39,0.58-8.78,0.99-13.15c0.23-2.48,0.95-4.92,1.05-7.4c0.12-3.05,1.13-3.32,3.26-1.48
		c0.86,0.75,2.28,0.93,2.48,2.37c-0.83,0.64-1.77-0.33-2.77,0.21C30.81,142.92,33.91,144.14,35.08,147.17z"/>
	<path class="st23" d="M39.58,150.9c-2.23,0.13-2.26,2.3-3.19,3.58c-1.39,1.91-2.49,4.03-3.72,6.06c-0.77,1.27-1.46,1.69-1.94-0.18
		c2.51-4.46,5.08-8.88,7.51-13.39c0.98-1.83,1.72-1.89,3.47-0.69c4.7,3.23,9.55,6.28,14.49,9.13c2.79,1.6,3.39,3.24,1.28,5.72
		c-0.46-0.03-0.93-0.06-1.39-0.09C49.84,158.88,44.29,155.57,39.58,150.9z"/>
	<path class="st24" d="M99.27,177.56c-0.56,1.33,0.06,3.82-2.83,2.87c-3.5-3.55-8.31-5.49-11.52-9.39c2.27-1.82,3.45-4.48,5.19-6.72
		c0.86-1.11,1.4-2.54,3.05-2.77c2.44,2.87,4.41,6.05,6.31,9.3C100.84,173.21,98.94,175.32,99.27,177.56z"/>
	<path class="st25" d="M64.73,124.39c-1.93-1.23-3.86-2.46-5.79-3.69c2.52-4.37,5.45-8.43,9.07-11.97c1.31-0.27,2.29,0.17,2.94,1.34
		c0.48,4.09,0.47,8.21,1.13,12.29c0.27,1.65,0.08,3.34-1.73,4.27C67.96,127.18,66.37,125.72,64.73,124.39z"/>
	<path class="st26" d="M95.46,182.77c1.98,2.18-0.4,3.42-1.09,5.02c-1.54,0.83-2.46-0.32-3.41-1.16c-2.14-1.9-4.57-3.43-6.75-5.27
		c-1.7-1.44-2.9-1.33-3.84,0.76c-1.47,3.26-3.66,6.13-5.05,9.43c-1.33,1.42-0.85,4.15-3.37,4.72c-1.6-0.68-1.25-1.65-0.55-2.85
		c3.39-5.75,6.76-11.51,10.05-17.32c0.97-1.7,1.74-2.04,3.46-0.72C88.32,178,91.94,180.33,95.46,182.77z"/>
	<path class="st27" d="M38.21,111.89c-1.77-0.42-3.32-0.88-0.75-2.59c0.98-0.65,1.89-1.4,2.83-2.1c5.3-1.62,10.67-1.64,16.08-0.69
		c1.28,0.9,0.7,2.05,0.05,2.81c-1.92,2.26-3.33,5.01-5.99,6.6c-3.44-0.48-6.21-2.74-9.52-3.58
		C40.02,112.11,39.2,111.48,38.21,111.89z"/>
	<path class="st28" d="M56.84,107.13c-5.52-0.68-11.03-0.01-16.55,0.07c5.83-4.99,12.93-5.01,20-5.13c1.26,0.5,2.55,0.28,3.84,0.14
		c1.24-0.14,2.52-0.27,1.95,1.7c-1.16,1.09-2.33,2.18-3.49,3.27C60.67,107.97,58.74,108.63,56.84,107.13z"/>
	<path class="st29" d="M71.96,196.28c0.93-1.69,1.85-3.38,2.78-5.07c0.2-0.14,0.46-0.36,0.63-0.29c4.19,1.82,8.41,3.57,11.75,6.85
		c-2.42,2.02-4.59,4.42-7.92,5C77.55,199.76,74.13,198.72,71.96,196.28z"/>
	<path class="st30" d="M77.56,166.21c2.18-1.86,3.37-4.49,5.12-6.69c0.05-3.03,2.9-4.43,3.98-6.86c0.52-0.59,1.13-0.8,1.89-0.5
		c1.47,1.41,2.05,3.24,2.47,5.16c-0.52,2.3-1.89,3.98-3.83,5.26c-0.62,0.87-1.25,1.73-1.85,2.61
		C82.12,169.89,82.13,169.89,77.56,166.21z"/>
	<path class="st31" d="M45.14,183.33c-7.02-3.21-13.36-7.48-19.35-12.3c0.56-2.88,1.52-3.88,4.28-1.57
		c4.54,3.8,9.36,7.26,14.09,10.84C45.24,181.12,46.46,181.78,45.14,183.33z"/>
	<path class="st32" d="M70.5,109.87c-0.87-0.58-1.77-0.94-2.81-0.47c-0.92-0.72-2.17,1.88-2.94-0.29c0.73-0.91,1.46-1.82,2.18-2.73
		c2.07-3.99,4.57-4.83,8.54-2.86c0.09,0.18,0.18,0.35,0.26,0.53c-0.55,0.9,0.42,0.6,0.63,0.68c4.24,1.71,4.58,3.31,1.44,6.99
		c-0.5,0.25-1.03,0.37-1.59,0.38C74.13,111.82,72.1,111.39,70.5,109.87z"/>
	<path class="st33" d="M75.46,103.52c-3.42-0.75-6.3,0.1-8.54,2.86c-0.28-0.82-0.56-1.65-0.84-2.47c-1.33-2.51-4.09-0.49-5.79-1.84
		c1.94-0.04,4.08,0.13,2.96-2.96c1.21-0.04,2.42-0.09,3.62-0.13c0.97-0.9,2.19-0.79,3.37-0.82c2.97,0.6,6.18,0.42,8.7,2.55
		c0.08,0.18,0.16,0.35,0.23,0.53C77.76,101.69,77.31,103.74,75.46,103.52z"/>
	<path class="st34" d="M72.11,134.25c-5.09-2.85-10.19-5.71-15.28-8.56c-0.81-1.01-2.94-0.3-2.99-2.3c0.55-1.83,1.61-1.18,2.73-0.62
		c2.62,1.3,5.26,2.56,7.9,3.83c3.6,0.74,6.52,3,9.83,4.4c0.74,0.65,2.08,1.02,1.16,2.46c-0.62,0.57-1.24,1.14-1.86,1.71
		C72.63,135.62,72.29,135.08,72.11,134.25z"/>
	<path class="st35" d="M75.46,133.46c0.1-1.09-1.01-1.24-1.48-1.89c0.28-0.8,0.88-1.33,1.51-1.85c2.09-0.47,2.72-3.17,5.04-3.3
		c0.89,0.58,1.16,1.55,1.57,2.45c0.25,0.75-0.11,1.48-0.1,2.22c0.99,3.12,4.54,3.22,6.35,5.37c0.63,1.01,0.92,1.97-0.39,2.69
		c-2.32,0.4-3.99-1.17-5.9-1.98c-2.29-2.71-4.3-0.44-6.38,0.37C72.95,136.32,76.03,134.79,75.46,133.46z"/>
	<path class="st36" d="M56.84,107.13c1.92,0.02,3.83,0.03,5.75,0.05c-2.22,2.75-4.73,5.33-6.59,8.31c-1.94,3.11-3.82,3.24-6.34,1
		c-0.06-0.48,0.33-0.59,0.63-0.77C52.48,112.86,54.66,109.99,56.84,107.13z"/>
	<path class="st37" d="M74.03,146.57c-0.83,2.25-2.34,4.17-3.27,6.33c-1.33,3.1-2.91,4.36-5.99,2.26c1.93-4.12,4.4-7.9,7.13-11.52
		C73.76,143.78,73.94,145.14,74.03,146.57z"/>
	<path class="st38" d="M72.11,134.25c0.5,0.3,0.99,0.61,1.49,0.91c-3.86,6.02-7.73,12.02-11.56,18.05
		c-1.11,1.75-2.09,0.95-3.13-0.01c3.42-2.58,4.37-6.84,6.82-10.08C67.92,140.22,69.33,136.74,72.11,134.25z"/>
	<path class="st39" d="M53.84,123.4c1.22,0.48,2.65,0.68,2.99,2.3c-3.32,1.36-4.26,4.86-6.43,7.25c-1.34,1.48-2.35,3.26-3.57,4.86
		c-1.04,1.36-1.9,1.35-2.3-0.5C47.66,132.69,50.31,127.75,53.84,123.4z"/>
	<path class="st40" d="M65.31,198.4c-4.1-3.07-8.3-6.03-12.27-9.27c-1.78-1.45-4.24-1.72-5.65-3.65c0.33-1.33,0.67-2.3,2.33-1.06
		c4.95,3.68,9.97,7.27,15,10.85C66.01,196.18,66.58,197.08,65.31,198.4z"/>
	<path class="st41" d="M64.74,109.11c0.79,0.94,1.16-0.05,1.57-0.4c1.11-0.97,1.28-0.26,1.37,0.69c-2.49,4.1-5.31,7.93-8.74,11.3
		c-2.05-0.58-2.84-1.45-1.13-3.4C60.18,114.62,61.98,111.47,64.74,109.11z"/>
	<path class="st42" d="M74.03,146.57c-0.71-0.98-1.42-1.95-2.13-2.93c1.26-2.04,2.52-4.07,3.78-6.11c1.79-2.52,3.65-4.59,6.41-1.01
		c0.08,0.82-0.05,1.59-0.6,2.24c-0.98,0.45-2.06,0.76-2.59,1.84c-1.21,1.88-2.11,4.01-4.11,5.28
		C74.53,146.11,74.28,146.34,74.03,146.57z"/>
	<path class="st18" d="M73.46,205.78c-2.25,1.93-4.93,2.11-7.73,2.09c-2.09-0.02-2.74-0.56-1.31-2.4c0.87-1.12,1.13-2.66,2.44-3.47
		C70.72,201.52,72.54,202.57,73.46,205.78z"/>
	<path class="st43" d="M87.18,162.58c1.12-1.74,2.24-3.48,3.36-5.23c-0.24-2.88,1.79-4.19,3.79-5.54c0.99-0.16,1.87-0.03,2.45,0.92
		c0.58,2.54-1.43,3.93-2.55,5.72c-1.75,1.77-2.34,4.59-4.97,5.57C88.57,163.54,87.87,163.06,87.18,162.58z"/>
	<path class="st44" d="M35.08,147.17c-2.16-1.83-4.37-3.6-6.44-5.53c-0.63-0.59-2.27-1.11-1.27-2.39c0.76-0.97,1.7,0.13,2.53,0.44
		c0.55,0.2,1.09,0.46,1.63,0.7c0.8,0.45,1.58,0.96,2.41,1.35C36.76,143.05,37.55,144.76,35.08,147.17z"/>
	<path class="st45" d="M75.55,130.05c-0.03,1.02-0.64,1.44-1.58,1.52c-3.33-1.35-6.5-3-9.51-4.96c1.21-0.61,0.1-1.49,0.27-2.22
		c1.95,0.06,3.3,1.53,5.01,2.16c2.29,0.1,4.1,1.31,5.88,2.58C75.8,129.45,75.78,129.76,75.55,130.05z"/>
	<path class="st46" d="M35.25,113.55c0.2,0,0.39-0.03,0.58-0.1c4.68,1.99,9.37,3.95,14.02,5.99c1.23,0.53,3.05,1,1.2,2.89
		c-1.2-0.54-2.4-1.08-3.6-1.62c-3.99-0.87-7.35-3.23-11.07-4.72C35.44,115.62,34.37,114.93,35.25,113.55z"/>
	<path class="st47" d="M73.46,205.78c-1.37-2.72-4.15-2.96-6.6-3.78c0.75-3.23,2.18-4.18,4.84-1.54c0.75,0.74,1.72,1.24,2.52,1.94
		c0.67,0.59,2.05,0.82,1.82,1.9C75.78,205.43,74.5,205.59,73.46,205.78z"/>
	<path class="st48" d="M89.26,164.03c1.44-1.94,2.89-3.87,4.33-5.81c0.57,0.35,0.85,0.88,0.96,1.52c-0.05,1.07-0.79,1.62-1.61,2.11
		c-1.94,2.58-3.89,5.15-5.81,7.75c-0.57,0.77-0.99,1.7-2.21,1.44C86.37,168.7,87.81,166.36,89.26,164.03z"/>
	<path class="st49" d="M50.3,115.72c-0.21,0.26-0.42,0.52-0.63,0.77c-3.82-1.53-7.64-3.07-11.46-4.6c1.84-1.31,3.42,0.06,4.97,0.64
		C45.61,113.43,47.93,114.64,50.3,115.72z"/>
	<path class="st50" d="M59,98.35c-0.95,0.01-1.9,0.06-2.85,0.02c-2.36-0.08-4.88,1.23-4.44-3.68c0.35-3.9-2.15-8.09-3.56-12.1
		c-0.73-2.08-1.87-1.08-2.84-0.04c-0.98-0.75-1.5-1.62-0.75-2.82c1.89-2.2-0.07-3.94-0.69-5.84c3.22-1.43,2.76-4.02,2.17-6.72
		c-0.23-1.07-0.06-2.16,0.9-2.93c1.51-1.04,0.94-2.56,0.9-3.94c-0.03-1.26-0.78-2.6,0.37-3.74c0.48-0.04,0.77,1.64,1.32,0.25
		c0.29-0.72,0.31-1.78-0.02-2.46c-2.35-4.92-0.1-9.26,1.68-13.6c1.2-2.95,2.76-5.75,4.16-8.62c1.65-1.36,2.58-3.34,4.14-4.79
		c1.73-1.83,2.47-4.94,5.9-4.57c0.96,1.3-0.02,2.24-0.61,3.23c-2.7,4.54-4.96,9.29-6.83,14.23c-2.86,7.55-2.9,15.42-2.73,23.32
		c0.42,4.18-1.54,7.84-2.6,11.69c-0.34,1.24-1.1,2.37-0.95,3.51c0.42-0.61-0.05-2.31,1.79-2.04c0.96,0.57,1.76,1.36,2.14,2.36
		c1.92,5.16,3.43,10.45,4.76,15.79C60.72,96.24,60.11,97.44,59,98.35z"/>
	<path class="st51" d="M47.47,64.55c-1.26,1.23-0.51,2.56-0.3,3.93c0.25,1.61,0.5,3.33,0.17,4.89c-0.57,2.76-2.55-1.43-3.47,0.52
		c-0.31-0.36-0.63-0.7-0.91-1.08c-3.45-4.52-8.97-7.29-9.4-14.3c-0.36-5.77-4.8-10.59-6.25-16.31c2.42-1.65,4.77-0.83,6.96,0.39
		c2.67,1.49,5.13,3.32,7.27,5.55c2.7,4.23,4.4,8.88,5.83,13.65C47.64,62.7,48,63.62,47.47,64.55z"/>
	<path class="st52" d="M44.56,79.74c0.25,0.94,0.5,1.88,0.75,2.82c-0.84,3.41-1.68,6.82-2.66,10.8c-2.84-4-5.56-7.55-7.98-11.29
		c-2.84-4.4-5.55-8.86-9.16-12.71c-0.82-0.87-1.85-1.93-1.79-3.4c1.57-0.98,2.42,0.38,3.39,1.12c3.42,2.6,6.68,5.43,10.32,7.75
		c1.33,0.85,2.62,1.72,4.32,1.19C43.09,76.94,43.7,78.44,44.56,79.74z"/>
	<path class="st53" d="M41.74,76.01c-0.9,2.92-2.51,0.95-3.54,0.33c-4.31-2.59-8.19-5.79-12.05-9c-0.74-0.62-1.38-1.35-2.43-1.38
		c-3.29-2.86-6.56-5.75-10.81-7.19c-1.02-1.09-0.23-1.56,0.66-1.21c1.68,0.66,3.42,0.28,5.08,0.71c2.41,1.35,4.81,2.7,7.22,4.04
		c4.45,3.21,9.27,5.95,13.07,10.01C39.99,73.44,40.81,74.78,41.74,76.01z"/>
	<path class="st54" d="M47.47,64.55c-1.99-5.35-3.55-10.88-6.49-15.84c0.71-1.16-1.2-2.28-0.06-3.45c4.26,2.59,6.61,6.41,7.3,11.31
		c0.16,2.32,0.93,4.56,0.72,6.94C48.84,64.65,48.54,65.01,47.47,64.55z"/>
	<path class="st55" d="M40.93,45.26c-0.02,1.15,1.61,2.27,0.06,3.45c-4.07-3.19-7.68-7.35-13.67-6.49c-0.61-0.59-0.88-1.11,0.19-1.5
		c2.76-1.02,5.38-0.31,7.81,0.91C37.29,42.62,39.06,44.03,40.93,45.26z"/>
	<path class="st56" d="M64.78,22.84c-1.68,1.67-3.36,3.34-5.05,5.02c-0.73,0.1-1.07-0.16-0.88-0.93c3.42-5.08,7.91-9,13.12-12.15
		c0,0-0.05,0.31-0.05,0.31c0.59,0.49,1.58,0.56,1.66,1.59C71.01,19.27,68.01,21.23,64.78,22.84z"/>
	<path class="st57" d="M58.85,26.93c0.29,0.31,0.59,0.62,0.88,0.93c-1.46,1.42-2.06,3.72-4.37,4.28
		C56.32,30.26,57.33,28.43,58.85,26.93z"/>
	<path class="st58" d="M78.41,45.09c-1.33,4.32-4.57,8.15-3.33,13.16c0.26,1.03-1.03,1.46-1.53,2.21c-1,1.49-3.15,2.44-2.31,4.82
		c0.33,2.65-1.11,3.53-3.48,3.48c-2.33-1.11-2.96-3.28-3.43-5.55c2.21-8.05,6.16-15.23,11.24-21.8c0.81-1.04,1.87-2.36,3.61-1.32
		C78.93,41.75,78.67,43.42,78.41,45.09z"/>
	<path class="st59" d="M79.19,40.08c-4.22,1.35-5.61,5.31-7.49,8.61c-2.64,4.62-5.07,9.38-6.92,14.4c-1.75-0.53-2.85-1.66-3.21-3.48
		c0.16-0.88,0.66-1.52,1.4-2c2.37-2.62,3.15-6.1,4.9-9.07c1.75-2.98,3.05-6.22,4.79-9.22c1.13-1.09,2.53-1.71,3.98-2.15
		c1.17-0.35,2.65-1.47,3.55-0.24C80.77,37.73,79.95,39.14,79.19,40.08z"/>
	<path class="st60" d="M73.38,16.31c-0.82-0.01-1.34-0.37-1.47-1.21c3.45-1.13,6.58-3.46,11.17-2.86
		c-8.14,11.04-12.87,23.4-17.63,35.74c-1.03,0.21-1.17-0.57-1.41-1.24c0.75-6.41,3.9-11.97,6.36-17.76
		c1.82-4.28,4.37-8.21,6.75-12.45C75.84,15.79,74.5,17.13,73.38,16.31z"/>
	<path class="st61" d="M72.66,39.33c-0.12,3.15-2.23,5.49-3.4,8.21c-1.32,3.07-2.75,6.11-4.22,9.11c-0.32,0.66-0.28,2.12-1.78,1.37
		c-1.38-3.47-0.64-6.42,2.15-8.65c0.2,1.02,0.53,1.3,1.08,0.18c1.11-2.24,2.21-4.48,3.32-6.72C70.48,41.45,71.08,39.98,72.66,39.33z
		"/>
	<path class="st62" d="M65.4,49.37c-1.57,2.67-2.19,5.58-2.15,8.65c-0.47,0.5-0.94,1-1.42,1.5c-0.75,0.07-0.99-0.41-1.13-1.01
		c0.09-3.39,1.18-6.57,2.05-9.79c0.26-0.98,0.52-2.16,1.93-2.24c0.07,0.6,0.16,1.18,0.77,1.5C65.43,48.44,65.41,48.91,65.4,49.37z"
		/>
	<path class="st63" d="M17.95,89.75c2.41,3.11,5.37,5.8,7.07,9.45c0.35,0.74,0.89,1.39,0.84,2.27c-3.24-3.15-5.87-6.85-9.4-9.78
		C14.34,89.91,16.87,90,17.95,89.75z"/>
	<path class="st64" d="M84.97,75.41c-2.3,1.68-4.66,3.29-6.87,5.09c-0.74,0.6-2.28,1.52-0.43,2.72c0.08,1.9-1.54,1.92-2.7,2.45
		c-2.29,0.65-4.85,2.84-6.41-1.04c0.36-2.64-0.09-5.35,0.64-7.97c0.11-0.22,0.23-0.46,0.44-0.53c0.65-0.22,1.12,1.04,2.12-0.4
		c3.92-5.65,8.27-11.03,14.44-14.48c1.03-0.58,2.25-2.27,3.51-0.17c0.23,2.04-1.05,3.58-1.84,5.27
		C86.53,69.25,85.34,72.19,84.97,75.41z"/>
	<path class="st65" d="M101.36,76.78c-1.03,0.61-1.56,1.87-2.85,2.12c-3.18,0.85-5.23,3.66-8.26,4.77c-2,0.44-3.68,1.61-5.51,2.41
		c-1.15,0.5-2.23,1.46-3.65,0.82c-0.74-1.47-2.37-2.52-2.03-4.48c3.6-3.08,7.9-4.96,12.05-7.1c2.12-1.09,4.44-1.47,6.83-0.81
		C99.72,74.3,101.2,74.53,101.36,76.78z"/>
	<path class="st66" d="M84.97,75.41c-1.31-1.73-0.34-3.44,0.28-4.99c1.26-3.16,2.76-6.22,4.17-9.33c-0.07-2.27,1.09-4.08,2.22-5.89
		c-2.8,0.18-5.5,0.74-8.16,1.59c-0.73,0.23-1.93,0.84-2.06-0.81c3.94-3.95,8.44-4.39,13.37-2.17c-1.85,4.79-3.7,9.58-5.55,14.37
		C87.53,70.42,87.72,73.78,84.97,75.41z"/>
	<path class="st67" d="M90.06,83.35c2.12-1.46,4.22-2.95,6.38-4.34c0.58-0.37,1.33-1.25,2.07-0.11c-6.3,5.52-11.9,11.66-16.39,18.76
		c-0.69,1.09-1.05,2.38-1.56,3.57c-0.46,0-0.92,0-1.38,0c0,0,0.02-0.07,0.02-0.07c-0.19-0.17-0.43-0.4-0.37-0.57
		C81.15,93.92,83.64,87.36,90.06,83.35z"/>
	<path class="st68" d="M79.05,82.42c0.72,1.52,2.67,2.41,2.25,4.5c-0.49,2.61-2.34,3.54-4.72,3.85c-1.96-1.61-3.29-3.4-1.73-6.02
		c1.14-0.14,2.14-0.54,2.81-1.53C78.13,82.95,78.59,82.69,79.05,82.42z"/>
	<path class="st69" d="M101.36,76.78c-0.46-1.8-2.22-1.62-3.43-2.27c2.03-1.58,3.42,0.09,4.54,1.23
		C103.24,76.51,102.03,76.69,101.36,76.78z"/>
	<path class="st70" d="M84.87,125.67c1.82-2.56,3.53-5.22,5.51-7.65c1.98-2.43,2.04,1.01,3.19,1.23c3.28,5.53,7.44,10.59,8.85,17.11
		c0.39,1.79,0.43,3.29-0.9,4.63c-1.71,0.08-1.78-1.41-2.35-2.43c-1.51-3.62-3.11-7.19-5.42-10.38c-3.1-4.26-3.12-4.25-7.1-1.22
		C85.76,126.94,84.68,127.17,84.87,125.67z"/>
	<path class="st71" d="M96.48,153.31c-0.47-1-1.41-0.89-2.27-0.96c-0.87-2.66,2.18-3.71,2.42-5.92c-0.85-2.56-3.56-2.8-5.31-4.24
		c-1.31-1.07-3.28-1.4-3.8-3.37c1.27-0.59,0.67-1.38,0.22-2.14c1.2-1.15,2.16-0.09,3.12,0.4c2.18,1.12,4.19,2.54,6.23,3.88
		c0.98,1.09,2.32,1.24,3.66,1.36c0.53,1.85,0.91,3.68-0.61,5.28C100.22,150.34,98.81,152.12,96.48,153.31z"/>
	<path class="st72" d="M103.55,148.9c-0.5,4.77-0.99,9.53-1.49,14.3c-0.55,0.62,0.23,1.95-0.85,2.11c-1.06,0.15-1.16-1.02-1.36-1.76
		c-0.62-2.4-3.21-3.56-3.73-6.01c1.14-3.84,3.59-6.65,6.96-8.71C103.24,148.85,103.4,148.87,103.55,148.9z"/>
	<path class="st73" d="M103.08,148.83c-2.26,2.85-4.51,5.7-6.77,8.54c-0.16,1.22-0.88,1.92-2.05,2.2c-0.6-0.27-0.65-0.81-0.67-1.36
		c0.96-1.64,1.93-3.28,2.89-4.92c1.22-1.9,2.45-3.8,3.67-5.7C101.59,146.91,102.3,147.95,103.08,148.83z"/>
	<path class="st74" d="M100.76,142.32c-1.6,2.16-2.64,0.84-3.66-0.59c-0.48-2.27-0.07-3.88,2.76-3.67c0.61,0.95,0.37,2.38,1.66,2.94
		C101.27,141.44,101.02,141.88,100.76,142.32z"/>
	<path class="st21" d="M87.12,197.77c-4.12-2.19-8.25-4.38-12.37-6.57c1.39-3.84,3.86-7.12,5.6-10.77c0.98-2.06,2.02-1.56,3.5-0.5
		c3.57,2.55,6.6,5.81,10.53,7.86c0.01,0.21,0.02,0.42,0.05,0.62C91.9,191.46,90.67,195.53,87.12,197.77z"/>
	<path class="st75" d="M94.26,159.58c0.68-0.73,1.37-1.47,2.05-2.2c1.67,2.38,4.81,3.78,4.51,7.73c0.62-0.96,0.93-1.44,1.23-1.91
		c0.07,0.25,0.14,0.49,0.21,0.74c-0.89,4.56-0.95,9.31-3,13.62c1.13-6.54-3.91-10.59-6.33-15.71
		C93.38,161.1,93.82,160.34,94.26,159.58z"/>
	<path class="st76" d="M77.71,111.33c2.36-4.78,2.23-5.03-3.94-6.92c0.85-0.16,1.4-0.26,1.95-0.36c1.25,0.23,2.37,0.77,3.7,0.9
		c5.23,0.48,7.43,4.76,9.68,8.6c0.94,1.6-1.68,2.6-2.12,4.16c-0.33,0.54-0.86,0.46-1.36,0.42
		C82.91,115.95,80.17,113.81,77.71,111.33z"/>
	<path class="st77" d="M85.57,117.86c0.47-0.05,0.95-0.1,1.42-0.14c-2.15,2.9-4.31,5.8-6.46,8.7c-1.83,0.97-1.95,4.3-4.97,3.63
		c-0.06-0.2-0.08-0.4-0.06-0.61c-0.9-1.38,0.19-2.33,0.73-3.4c2.1-2.88,4.92-5.09,7.24-7.77C84.01,117.64,84.68,117.06,85.57,117.86
		z"/>
	<path class="st78" d="M84.87,125.67c0.45,0.86,1.25,0.78,2.03,0.76c-0.39,4.3-2.72,6.03-5.68,4.2c0.29-0.59,0.58-1.18,0.87-1.76
		C83.02,127.8,83.95,126.74,84.87,125.67z"/>
	<path class="st79" d="M81.42,55.98c2.1,0.82,3.65-0.97,5.56-1.21c1.77-0.22,3.48-0.35,5.47-0.24c-0.7,2.52-1.89,4.52-3.03,6.55
		c-4.9,1.32-8.39,4.64-11.59,8.32c-2.02,2.32-4.12,4.61-5.87,7.13c-1.45,2.1-1.46-0.15-2.1-0.47c-2.08-2.25-2.84-4.88-2.29-7.89
		c2.23,0.32,2.96-1.29,3.69-2.89C74.85,62.41,77.59,58.59,81.42,55.98z"/>
	<path class="st80" d="M70.51,99.08c-1.21-0.03-2.42-0.06-3.62-0.1c-1.06-0.95-2.38-0.4-3.56-0.62c-0.68-0.74-0.95-1.64-0.99-2.62
		c-0.43-9.84-2.73-19.36-5.06-28.87c-0.39-1.61-0.95-3.23-0.43-4.93c2.54-2.46,4.7-1.46,6.1,2.82c-0.3,1.23-1.4,0.23-2.07,0.73
		c3.43,5.67,5.39,11.83,6.25,18.36c2.08,3.76,4.68,7.26,5.82,11.49C73.15,97.27,72,98.28,70.51,99.08z"/>
	<path class="st81" d="M57.47,61.61c1.52,7.54,3.02,15.09,4.59,22.62c0.97,4.67,1.45,9.37,1.26,14.14c-1.44,0-2.88-0.01-4.31-0.01
		c1.26-2.5,0.24-4.81-0.62-7.13c-1.77-4.79-2.08-10.11-5.16-14.43c-0.63-0.68-0.68-1.45-0.41-2.3c1.24-3.81,2.5-7.6,3.25-11.55
		C56.2,62.25,56.59,61.62,57.47,61.61z"/>
	<path class="st82" d="M35.25,113.55c0.08,1.58,1.43,1.67,2.48,2.11c3.38,1.41,6.68,2.97,9.71,5.06c-3.01,1.57-4.35,4.56-6.15,7.17
		c-1.55,2.24-3.06,4.51-4.54,6.68c-0.91,0.04-0.91-0.57-0.93-0.97C35.54,126.91,33.58,120.28,35.25,113.55z"/>
	<path class="st82" d="M39.58,150.9c5.5,3.38,11.01,6.76,16.51,10.14c-2.92,2.63-3.89,6.51-6.14,9.57
		c-1.76,2.39-3.17,2.59-4.45,0.02C42.41,164.42,39.74,158.02,39.58,150.9z"/>
	<path class="st82" d="M74.81,173.27c-3.1,1.56-3.36,4.98-4.8,7.59c-2.77,4.99-2.58,5.01-7.4,1.83c-2.06-1.35-3.82-3.3-6.46-3.63
		c2.1-3.75,4.27-7.45,6.25-11.26c0.9-1.73,1.89-1.93,3.37-0.89C68.78,169.03,71.8,171.15,74.81,173.27z"/>
	<path class="st83" d="M74.78,145.89c1.2-1.93,2.39-3.86,3.59-5.79c0.88-0.32,1.43,0.27,1.76,0.86c2.29,4.05,5.31,7.68,6.91,12.13
		c-0.65,2.69-3.2,4.09-4.35,6.44C80.04,154.98,77.41,150.43,74.78,145.89z"/>
	<path class="st84" d="M76.94,126.43c-0.34,1.07-1.56,1.72-1.45,3.01c-2.09-0.63-3.93-1.75-5.75-2.89c1.92-1.5,1.6-3.49,1.25-5.51
		c-0.63-3.7-1.2-7.41-0.5-11.17c2.06-0.03,3.81,1.12,5.75,1.53C76.67,116.4,77.59,121.38,76.94,126.43z"/>
	<path class="st85" d="M87.03,153.08c-2.56-2.99-4.49-6.39-6.37-9.82c-0.62-1.13-1.52-2.11-2.29-3.16c0.57-1.34,1.26-2.45,2.98-1.49
		c2.36-0.14,4.12,0.92,5.5,2.73c0.41,2.95,2.2,5.32,3.37,7.95c0.07,1.37-0.58,2.31-1.74,2.95
		C87.99,152.53,87.51,152.81,87.03,153.08z"/>
	<path class="st86" d="M88.47,152.25c0.47-0.93,0.93-1.86,1.4-2.79c0.15-2.44,2.04-3.47,3.76-4.65c1.78-0.34,3.01,0.67,4.2,1.75
		c-0.9,2.13-2.98,3.51-3.62,5.79c-1.06,1.79-2.98,2.95-3.67,5.01C89.85,155.65,89.16,153.95,88.47,152.25z"/>
	<path class="st87" d="M76.94,126.43c-0.85-4.98-2.19-9.94-0.7-15.03c0.49-0.02,0.98-0.05,1.47-0.07c3.41,1.23,5.65,3.85,7.85,6.53
		C82.25,120.27,79.7,123.45,76.94,126.43z"/>
	<path class="st88" d="M70.51,99.08c0.72-1.19,1.44-2.38,2.16-3.57c0.66-2.35,2.06-4.06,4.33-5.02c1.44-1.19,2.87-2.38,4.31-3.57
		c2.99-1.02,5.26-3.79,8.75-3.56c-4.9,5.16-8.55,11.08-10.85,17.82C76.42,100.02,73.44,99.63,70.51,99.08z"/>
	<path class="st89" d="M81.22,130.63c4.12,1.62,4-2.51,5.68-4.2c0.44-0.7,0.82-1.45,1.32-2.09c1.13-1.46,2.16-1.86,3.61-0.11
		c3.47,4.17,6.09,8.8,8.02,13.84c-1.79,0.57-2.42,2.01-2.76,3.67c-3.3-1.36-5.81-4.16-9.36-5.05c-2.06-1.3-4.37-2.16-6.21-3.85
		C80.69,132.06,80.13,131.54,81.22,130.63z"/>
	<path class="st90" d="M97.83,146.55c-1.62,0.11-2.68-1.34-4.21-1.47c-2.91-0.19-5.2-1.63-7.26-3.55c-1.67-0.97-3.34-1.94-5.02-2.91
		c-0.02-0.79-0.15-1.62,0.74-2.09c1.81,0.77,3.63,1.53,5.44,2.3c2.84,1.71,5.71,3.39,8.51,5.17
		C96.94,144.56,98.49,144.83,97.83,146.55z"/>
	<path class="st91" d="M64.68,46.48c-2.13,3.84-2.04,8.31-3.54,12.33c-2.98,0.06-5.14,1.07-5.36,4.48
		c-0.03,0.46-0.56,0.69-1.09,0.56c-0.24-0.52-0.68-1.03-0.69-1.56c-0.4-13.56,2.87-26.1,10.46-37.42c0.43-0.64,1.4-1.16,0.32-2.03
		c2.33-2.89,5.77-4.31,8.61-6.53c1.74-0.58,3.36-1.8,5.67-0.99C72.84,25.2,67.74,35.38,64.68,46.48z"/>
	<path class="st92" d="M54.69,63.85c0.23-0.52,0.57-1.01,0.66-1.55c0.72-4.29,1.56-4.81,5.79-3.49c0.23,0.24,0.46,0.48,0.69,0.72
		c0.98,1.19,1.97,2.38,2.95,3.56c0.92,1.69,1.85,3.38,2.77,5.07c0.76,2.63,1.53,5.26,2.29,7.89c-0.35,2.9,0.66,5.92-0.76,8.73
		c-0.55,0.39-1.1,0.35-1.65-0.01c-0.84-6.25-2.17-12.36-4.96-18.07c-0.21-0.43-0.11-0.93,0.07-1.39c-1.05-2.12-1.54-5.01-5.08-3.7
		c-1.41,5.06-2.83,10.12-4.24,15.18c-1.39,1.45-0.6,3.96-2.94,5.71C50.7,75.63,54.17,70.06,54.69,63.85z"/>
	<path class="st93" d="M67.7,84.71c0.46,0.02,0.93,0.05,1.39,0.07c1.94,3.2,3.84-0.04,5.77-0.03c-0.22,2.26,0.65,4.12,2.14,5.74
		c-1.44,1.67-2.88,3.35-4.33,5.02c-0.98-0.41-1.25-1.27-1.58-2.2c-0.94-2.63-1.48-5.5-4.27-7.06c-0.8-0.44-0.63-1.46-0.63-2.28
		C67.02,83.55,67.25,84.35,67.7,84.71z"/>
	<path class="st94" d="M67.7,84.71c-0.5-0.24-1-0.49-1.5-0.73c-0.75-7.32-3.55-13.96-7.33-20.38c2.16-0.52,2.45,1.45,3.68,1.72
		C66.12,71.28,68.09,77.68,67.7,84.71z"/>
	<path class="st95" d="M86.36,141.53c2.58,0.84,4.97,2.09,7.26,3.55c-1.25,1.46-2.5,2.92-3.75,4.38
		C88,147.12,86.12,144.8,86.36,141.53z"/>
</g>
</svg>
