<?xml version="1.0" encoding="utf-8"?>
<!-- Generator: Adobe Illustrator 23.0.2, SVG Export Plug-In . SVG Version: 6.00 Build 0)  -->
<svg version="1.1" id="Camada_1" xmlns="http://www.w3.org/2000/svg" xmlns:xlink="http://www.w3.org/1999/xlink" x="0px" y="0px"
	 viewBox="0 0 120.37 224.06" style="enable-background:new 0 0 120.37 224.06;" xml:space="preserve">
<style type="text/css">
	.st0{fill:#010002;}
	.st1{fill:#573717;}
	.st2{fill:#294A26;}
	.st3{fill:#3A6B34;}
	.st4{fill:#274825;}
	.st5{fill:#498A3C;}
	.st6{fill:#B06E20;}
	.st7{fill:#73481D;}
	.st8{fill:#633E1B;}
	.st9{fill:#9F621B;}
	.st10{fill:#458039;}
	.st11{fill:#925B1E;}
	.st12{fill:#5D9F3A;}
	.st13{fill:#404937;}
	.st14{fill:#518238;}
	.st15{fill:#598E3A;}
	.st16{fill:#D68A37;}
	.st17{fill:#C95B22;}
	.st18{fill:#EDCB79;}
	.st19{fill:#C95B23;}
	.st20{fill:#CA5B22;}
	.st21{fill:#D89039;}
	.st22{fill:#EDCA79;}
	.st23{fill:#E1A73D;}
	.st24{fill:#E0A83C;}
	.st25{fill:#F5E283;}
	.st26{fill:#D68935;}
	.st27{fill:#CC6732;}
	.st28{fill:#CA5E29;}
	.st29{fill:#D78A36;}
	.st30{fill:#F3F1A9;}
	.st31{fill:#F5E78A;}
	.st32{fill:#CA5F2B;}
	.st33{fill:#6F481C;}
	.st34{fill:#F5E886;}
	.st35{fill:#CE612C;}
	.st36{fill:#EFD07B;}
	.st37{fill:#EED17B;}
	.st38{fill:#DD8F38;}
	.st39{fill:#F0E181;}
	.st40{fill:#F4E989;}
	.st41{fill:#784B19;}
	.st42{fill:#E7B969;}
	.st43{fill:#F0D57D;}
	.st44{fill:#F1D17B;}
	.st45{fill:#683F18;}
	.st46{fill:#DA8B36;}
	.st47{fill:#F3EB93;}
	.st48{fill:#6B4219;}
	.st49{fill:#E6B661;}
	.st50{fill:#528438;}
	.st51{fill:#66983B;}
	.st52{fill:#91B757;}
	.st53{fill:#6BA03E;}
	.st54{fill:#8FB956;}
	.st55{fill:#BCD071;}
	.st56{fill:#99BE57;}
	.st57{fill:#7AAB3A;}
	.st58{fill:#92B752;}
	.st59{fill:#D5DE83;}
	.st60{fill:#77AB3D;}
	.st61{fill:#BACD6F;}
	.st62{fill:#95BE58;}
	.st63{fill:#89B138;}
	.st64{fill:#BCCE70;}
	.st65{fill:#F7F7B6;}
	.st66{fill:#F8F8BC;}
	.st67{fill:#A8C260;}
	.st68{fill:#835B1E;}
	.st69{fill:#32462C;}
	.st70{fill:#FCFBEF;}
	.st71{fill:#A0601A;}
	.st72{fill:#F2E047;}
	.st73{fill:#F8F6C7;}
	.st74{fill:#E5B23A;}
	.st75{fill:#EABF40;}
	.st76{fill:#F8F6C9;}
	.st77{fill:#7F4E1B;}
	.st78{fill:#D78632;}
	.st79{fill:#F8F5CD;}
	.st80{fill:#B0C767;}
	.st81{fill:#A3BF5D;}
	.st82{fill:#7FAE4C;}
	.st83{fill:#5F983B;}
	.st84{fill:#346230;}
	.st85{fill:#D68936;}
	.st86{fill:#DFA33C;}
	.st87{fill:#E9BD3F;}
	.st88{fill:#E7B83E;}
	.st89{fill:#D58631;}
	.st90{fill:#EECC40;}
	.st91{fill:#F1DA42;}
	.st92{fill:#83AF4D;}
	.st93{fill:#F4F2AB;}
	.st94{fill:#95B854;}
	.st95{fill:#CEDA7E;}
	.st96{fill:#80AD38;}
	.st97{fill:#EAE557;}
	.st98{fill:#FAF8D5;}
	.st99{fill:#BCCE72;}
	.st100{fill:#F2E147;}
</style>
<g>
	<path class="st0" d="M25.9,54.92c-1.24-2.91-2.55-5.8-3.71-8.74c-2.97-7.54-0.06-11.61,8.13-11.3c5.09,0.19,9.99,1.34,14.25,4.21
		c1.67,1.12,1.81,0.43,2.38-0.9c3.91-9,8.88-17.32,16.85-23.32c6.17-4.65,12.81-8.43,20.97-8.19c2.91,0.09,5.56,0.69,6.92,3.56
		c1.37,2.89,0.61,5.58-1.2,8.09c-2.93,4.05-5.71,8.2-7.77,12.77c0.97,0.88,1.97,0.39,2.86,0.57c3.36,0.65,5.3,3.62,4.36,6.99
		c-0.35,1.25-1.07,2.4-1.58,3.61c-1.99,4.8-1.88,4.97,3.06,5.12c2.29,0.07,4.51,0.43,6.66,1.31c4.7,1.93,6.07,4.8,4.41,9.71
		c-0.58,1.7-1.37,3.32-2.03,4.99c-0.66,1.65-1.29,3.32-2.06,5.27c4.45,0.58,8.59,1.41,11.71,4.74c3.35,3.57,2.64,8.7-1.78,10.79
		c-7.6,3.59-12.07,10.33-17.05,16.58c-0.91,1.14-0.4,1.7,0.5,2.61c8.48,8.57,15.32,18.27,19.45,29.69
		c3.83,10.59,2.61,21.46,1.45,32.3c-1.02,9.55-2.6,18.94-6.72,27.76c-2.68,5.73-6.25,10.69-11.12,14.76
		c-13.89,11.61-29.04,13.08-45.64,6.52c-5.82-2.3-11.54-4.33-16.15-8.79c-3.32-3.21-6.01-6.69-7.85-10.99
		c-1.78-4.17-4.07-8.12-6.19-12.14c-1.19-2.26-2.14-4.63-2.18-7.17c-0.15-8.6-0.82-17.18,1.16-25.75
		c1.17-5.09,0.97-10.49,1.95-15.64c1.32-6.98,2.32-14.11,5.68-20.54c0.55-1.06-0.39-1.54-0.86-2.11c-3.88-4.69-7.3-9.74-12.34-13.45
		c-4.35-3.19-3.07-9.63,2-12.05c1.68-0.81,4.51-0.63,4.88-2.27c0.32-1.44-1.32-3.41-2.27-5.05c-2.47-4.24-4.91-8.5-7.59-12.6
		c-2.02-3.1-3.42-6.4-1.55-9.75c1.99-3.55,5.65-3.92,9.49-3.52C20.31,52.91,23.22,53.18,25.9,54.92z"/>
	<path class="st1" d="M79.3,211.05c-5.51,3.36-11.66,3.28-17.63,2.5c-9.34-1.23-17.47-5.9-24.99-11.18
		c-6.44-4.52-9.27-12.03-12.76-18.83c-4.1-7.97-3.6-16.71-2.65-25.03c1.28-11.35,2.5-22.78,5.4-33.91c0.79-3.03,1.6-6.05,3.38-8.64
		c1.35-1.96,1.81-3.72,0.21-5.67c-0.22-1.17,0.43-1.6,1.46-1.71c1.82,1.47,3.11,0.65,4.58-0.76c4.66-4.49,9.76-8.17,16.71-7.87
		c0.57-0.05,1.13-0.06,1.7-0.04c2.23,0.06,4.46-0.18,6.67,0.19c1.54,0.26,2.53,1.24,2.83,2.76c0.26,1.3-0.81,1.49-1.71,1.76
		c-2.28,0.28-4.59-0.1-6.86,0.29c-0.34,0.13-0.69,0.21-1.05,0.28c-4.52-0.08-8.34,1.86-11.98,4.26c-1.01,0.56-1.93,1.27-2.71,2.12
		c-0.73,0.8-0.17,1.19,0.55,1.49c3.57,1.54,7.36,2.52,10.76,4.46c2.6,2.06,4.39,1.18,6.12-1.36c1.87-2.75,3.96-5.38,6.36-7.72
		c1.31-0.99,2.11-2.77,4.12-2.67c0.75,0.56,1.08,1.34,1.18,2.24c0,0.35-0.08,0.68-0.2,1.01c-2.64,3.06-5.39,6.04-7.69,9.39
		c-0.84,1.23-1.82,2.39-0.01,3.59c3.19,2.25,7.21,3.23,9.81,6.4c-0.13,1.29-0.99,1.8-2.15,1.98c-3.38-0.48-5.86-2.94-8.95-4.07
		c-1.23-0.45-2.39-1.83-3.84-0.44c-3.42,4.29-6.05,9.11-9.18,13.6c-2.65,4.2-2.69,4.27,1.32,6.78c4.24,2.65,8.36,5.5,12.71,7.98
		c1.38,0.92,2.18,0.23,2.85-0.97c1.28-2.29,2.85-4.39,4.17-6.66c0.7-1.21,1.3-2.6,2.93-2.91c1.15,0.09,2.04,0.56,2.51,1.67
		c0.3,2.56-1.83,4.01-2.76,6.01c-1.31,1.85-2.51,3.76-3.46,5.82c-0.34,1.54,0.9,2.05,1.82,2.68c3.58,2.46,7.06,5.07,10.64,7.53
		c0.4,0.25,0.81,0.5,1.14,0.82c1.98,1.89,3.55,1.84,4.91-0.77c0.69-1.32,1.47-2.71,2.97-3.38c0.92,0.46,1.91,0.81,2.64,1.59
		c0.01,2.9-3,4.43-3.27,7.2c1.55,2.36,4.15,3.43,6.23,5.13c1.52,1.25,3.54,1.99,4.27,4.06c-0.2,1.04,0.19,2.35-1.25,2.86
		c-3.47-0.65-5.72-3.31-8.44-5.16c-3.96-2.7-4.06-2.8-6.55,1.23c-2.71,4.38-5.35,8.8-7.63,13.42c-0.48,0.97-1.7,1.94-0.41,3.17
		c2.16,2.38,5.77,3.24,7.01,6.59C83.15,207.12,80.4,208.86,79.3,211.05z"/>
	<path class="st2" d="M28.87,62.02c1.76,0.84,3.19,2.4,5.69,2.67c-2.18-5.85-3.98-11.47-6.57-16.82c-1.09-2.25-3.45-4.99-1.64-7.17
		c1.92-2.31,5.41-1.19,8.15-0.67c5.31,1.02,9.76,3.72,13.43,8.47c2.94-7.74,5.52-15.03,10.36-21.16c3.8-3.55,6.81-7.98,11.49-10.51
		c1.07-0.58,2.39-2.49,3.83-0.33c-2.14,3.18-5.8,4.71-8.24,7.61c-1.43,1.71-3.1,3.22-4.33,5.11c-1.42,1.69-2.57,3.55-3.7,5.44
		c-1.39,3.28-2.96,6.47-4.31,9.77c-1.47,3.57-2.64,7.12-1.17,11.01c0.37,0.99,0.33,2.12,0,3.16c-0.59,1.86-1.48,1.51-2.44,0.27
		c-1.55-4.33-3.11-8.66-7.35-11.23c-2.76-1.91-5.43-4-8.89-4.5c-1.34-0.19-2.94-0.87-3.32,1.35c1.01,3.73,3.25,6.91,4.53,10.51
		c0.36,1.01,1.04,1.96,1.14,3c0.59,6.45,4.07,11.16,8.87,15.14c0.72,0.6,1.19,1.49,1.73,2.28c1.07,1.96,2.54,3.89,0.58,6.13
		c-2.25,0.03-2.62-2.15-3.88-3.28c-2.84-4.42-6.99-7.41-11.22-10.33c-1.55-1.07-3.38-1.82-4.37-3.59
		C27.01,63.02,27.84,62.45,28.87,62.02z"/>
	<path class="st3" d="M73.54,16.54c-3.37-0.51-5.41,1.9-7.52,3.75c-2.4,2.11-4.89,4.23-6.59,7.04c-0.29,0.48-0.76,0.5-1.14,0
		c6.4-8.69,14.1-15.32,25.55-15.85c1.37-0.06,3.09-0.39,3.81,1.27c0.61,1.39-0.45,2.51-1.24,3.55c-4.98,6.53-8.28,13.97-11.99,21.81
		c2.96-0.81,5.21-2.58,8.08-2.22c2.37,0.3,3.84,0.68,2.35,3.47c-0.55,1.03-0.78,2.22-1.16,3.34c-0.09-0.08-0.18-0.15-0.27-0.23
		c-0.08-0.08-0.16-0.17-0.24-0.26c-0.41,1.66-0.79,3.34-1.57,4.86c-0.93,1.82-1.78,1.74-2.35-0.27c-0.14-1.6,0.44-3.09,0.65-4.64
		c0.06-0.81,0.93-1.69,0.35-2.34c-0.78-0.89-1.75,0.01-2.6,0.28c-1.13,0.36-2.17,0.95-3.1,1.72c-2.76,2.52-3.5,6.24-5.48,9.22
		c-0.71,1.07-1.61,3.16-2.77,0.22c-0.08-0.53-0.07-1.05,0.03-1.57c4.09-11.96,8.74-23.66,16.36-34.37
		c-3.51-0.81-5.88,2.02-8.81,1.58C73.78,16.78,73.66,16.66,73.54,16.54z"/>
	<path class="st4" d="M31.75,108.82c-0.5,0.48-1,0.97-1.5,1.45c-2.6-3.11-5.24-6.19-7.78-9.34c-1.66-2.06-3.42-3.97-5.64-5.47
		c-1.06-0.71-2.43-1.5-2.22-3.01c0.23-1.7,1.66-2.47,3.15-3.11c2.87-1.24,5.91-0.55,9.07-0.85c0.09-1.84-1.26-2.98-1.95-4.4
		c-3.5-7.22-7.45-14.18-11.61-21.04c-0.8-1.32-2.33-2.74-1.25-4.57c1.21-2.05,3.35-1.44,5.21-1.49c0.83-0.02,1.69-0.08,2.36,0.59
		c0.17,0.87,1.5,1.55,0.42,2.62c-1.23,1.14-3.08-0.5-4.22,0.96c5.1,7.74,9.35,15.93,13.19,24.33c1.32,2.89,2.76,5.56,5.66,7.19
		c0.78,0.44,1.86,1.16,1.34,2.23c-0.55,1.14-1.69,0.5-2.55,0.22c-1.6-0.51-3.11-1.24-4.66-1.89c-2.8-1.17-5.67-1.97-8.73-1.07
		c-1.82,0.57-0.69,1.31-0.05,1.9c2.6,2.43,4.99,5.04,7.31,7.73C28.34,104.43,31.59,105.65,31.75,108.82z"/>
	<path class="st5" d="M92.81,69.13c-0.56,1.56-2.02,3.65-1.48,4.56c1,1.7,2.91-0.29,4.5-0.32c3.54-0.07,6.95,0.1,9.97,2.23
		c2.3,1.62,2.3,3.35-0.02,4.7c-9.62,5.6-16.12,14.05-21.56,23.48c-0.44,0.41-0.94,0.41-1.47,0.22c-0.47-0.28-0.81-0.67-0.99-1.2
		c-0.24-1.81,0.74-3.22,1.65-4.58c4.5-6.75,9.82-12.8,16.03-18.03c1-0.68,1.99-1.36,2.83-2.21c-0.49-2.1-2.01-1.07-3.18-1.07
		c-6.41-0.66-10.75,3.89-15.9,6.36c-1.27,0.61-2.2,1.83-3.62,2.24c-0.35,0.05-0.7,0.03-1.05-0.05c-1.95-2.01-0.03-3.22,1.1-4.33
		c1.86-1.85,4.29-2.99,6.37-4.59c1.74-1.29,2.14-3.4,3.13-5.15c0.63-1.12,0.75-2.57,2.09-3.23C91.99,68.07,92.56,68.33,92.81,69.13z
		"/>
	<path class="st6" d="M94.26,113.89c4.94,6,9.44,12.26,12.29,19.59c2.53,6.48,2.95,13.16,2.31,19.99c-2.47,1.1-2.32-2.02-3.88-2.39
		c-0.29-0.08-0.57-0.19-0.85-0.32c-0.9-0.57-2.01-0.81-2.7-1.7c0.17-1.25,0.41-2.5-0.25-3.69c-0.23-1.34,0.64-2.23,1.28-3.22
		c1.14-1.52,0.74-3.13,0.33-4.76c-1.15-4.56-3.7-8.42-6.07-12.37c-0.73-1.21-1.67-2.31-2.03-3.72c-0.31-1.88-1.34-3.59-1.37-5.54
		C93.31,115,92.91,113.99,94.26,113.89z"/>
	<path class="st7" d="M97.04,184.53c1-0.5,0.35-1.69,0.98-2.34c1.43-0.86,1.96-2.25,2.23-3.79c1.81-3.96,1.53-8.39,2.81-12.46
		c0.44-1.06,0.45-2.36,1.74-3.21c1.35,0.67,1.38,2.1,1.46,3.28c0.17,2.41,1.24-0.12,1.71,0.39c-0.91,9.15-1.85,18.29-7.91,25.86
		c-1.92,0.55-3.48,0.15-4.45-1.73c-0.11-0.32-0.15-0.66-0.13-1C96.04,187.88,96.85,186.3,97.04,184.53z"/>
	<path class="st8" d="M96,190.17c0.83,1.71,2.78,1.24,4.05,2.08c-4.55,8.88-11.02,15.64-20.75,18.79c-1.24-1.01-0.22-1.75,0.44-2.22
		c1.68-1.18,1.58-2.65,1.03-4.29c2.51-1.8,5.04-3.56,7.43-5.52c2.1-1.78,3.7-3.96,5.08-6.32C93.93,191.59,94.45,190.31,96,190.17z"
		/>
	<path class="st9" d="M94.26,113.89c-1.16,2.55,1.56,4.63,0.88,7.12c-1.83-0.47-3.31-0.23-4.38,1.63c-0.89,1.54-2.12,2.88-3.12,4.36
		c-1.34,1.21-1.83,3.36-4.03,3.6c-1.06-0.48-1.53-1.38-1.78-2.45c0.84-3.84,4.11-6.08,6.05-9.21c2.31-3.95-0.17-9.29-4.97-10.61
		c-2.04-0.56-4.24-0.7-5.89-2.26c-0.14-0.32-0.15-0.65-0.04-0.98c1.67-1.78,3.68-2.15,5.95-1.44c0.43,0.04,0.85,0.08,1.28,0.13
		C88.38,106.34,92.11,109.33,94.26,113.89z"/>
	<path class="st10" d="M79.99,46.85c0.27,1.45,0.73,0.85,1.03,0.05c0.73-1.96,1.39-3.94,2.36-6.69c0.17,1.37,0.25,1.93,0.32,2.49
		c-1.12,5.28-3.26,10.19-5.82,15.86c2.48-1.85,4.36-3.26,6.25-4.65c3.9-2.87,8.1-2.38,12.28-0.9c3.37,1.19,1.61,3.52,1,5.55
		c-0.93-0.43-0.86-1.66-1.74-2.12c-4.44-2.25-8.43-1.48-12.05,1.78c-2.88,2-5.05,4.76-7.57,7.15c-1.06,0.9-2.05,1.96-3.62,1.86
		c-1.75-1.88,0.11-3.1,0.98-4.28c1.14-1.55,1.67-3.03,2.06-5C76.22,54.07,76.4,49.67,79.99,46.85z"/>
	<path class="st11" d="M107.97,166.39c-0.36,0.79-0.73,1.59-1.12,2.44c-1.8-1.42-1.6-3.38-1.74-5.62c-0.53,1.04-0.89,1.76-1.25,2.48
		c-0.36-0.25-0.61-0.58-0.76-0.99c0.14-4.76-0.04-9.57,2.04-14.06c1.18-0.95,1.26,0.28,1.6,0.85c0.53,0.87,0.83,1.94,2.13,1.96
		C109.01,157.81,108.8,162.12,107.97,166.39z"/>
	<path class="st12" d="M96.37,55.58c1.38,0.64,0.7,1.98,1.02,2.98c-1.22,3.66-2.83,7.14-4.58,10.57c-0.49-0.24-0.98-0.48-1.47-0.71
		C91.39,63.5,93.78,59.5,96.37,55.58z"/>
	<path class="st13" d="M20.23,60.03c0.18-0.92-1.72-1.3-0.63-2.45c3.42,0.79,6.29,2.73,9.27,4.44c-0.47,0.69-0.95,1.37-1.42,2.06
		C24.23,64.18,21.98,62.55,20.23,60.03z"/>
	<path class="st14" d="M31.75,108.82c-1.42-2.37-4.14-3.74-5.04-6.52c-1.67-3.04-3.74-5.76-6.25-8.15
		c-0.73-0.69-1.84-1.33-0.94-2.64c3.25-1.44,6.33-0.43,9.36,0.75c2.19,0.85,4.33,1.82,6.78,2.46c-6.92-3.41-8.09-10.56-11.01-16.47
		c-3.03-6.12-6.9-11.73-10.15-17.7c1.87-0.86,3.19,0.41,4.52,1.3c2.46,1.65,5.17,3.05,6.92,5.59c3.68,5.85,8.31,11.03,11.92,16.95
		c1.92,3.14,4.12,6.11,6.04,9.04c0.6-3.15,1.07-6.59,2.7-9.71c1.32-1.7,2.97-1.59,3.71,0.15c1.82,4.27,3.37,8.68,3.86,13.34
		c0.14,1.32-0.43,2.59-1.5,3.51c-7.14-0.02-12.23,4.02-16.82,8.77C33.8,111.59,32.73,111.49,31.75,108.82z"/>
	<path class="st15" d="M52.66,100.7c1.98-5.84-1.82-10.69-2.81-16.02c-0.38-2.06-1.76-1.86-2.96-0.36c-0.98-0.75-1.5-1.62-0.75-2.82
		c1.89-2.2-0.07-3.94-0.69-5.84c3.01-1.5,3.02-1.5,2.44-5.81c-0.19-1.41-0.67-2.85,0.74-3.94c1.4-1.08,0.83-2.56,0.79-3.92
		c-0.03-1.24-0.78-2.54,0.37-3.66c0.48-0.04,0.76,1.65,1.32,0.25c0.29-0.72,0.31-1.78-0.02-2.46c-2.35-4.92-0.1-9.26,1.68-13.6
		c1.2-2.95,2.76-5.75,4.16-8.62c1.65-1.36,2.58-3.34,4.14-4.79c1.73-1.83,2.47-4.94,5.9-4.57c0.96,1.3-0.02,2.24-0.61,3.23
		c-2.7,4.54-4.96,9.29-6.83,14.23c-2.86,7.55-2.9,15.42-2.73,23.32c0.54,3.69-1.33,6.9-2.13,10.32c-0.4,1.72-1.22,3.33-1.52,5.04
		c-0.29,0.45,0.35,0.55-0.07,0.32c-0.02-0.01,0.04-0.08,0.12-0.24c0.4-0.8,0.52-1.96,1.92-1.49c3.19,2.99,3.42,7.24,4.66,11.03
		c0.63,1.91,1.31,3.85,1.53,5.87c0.17,1.58-0.02,3.11-1.46,4.16c-1.91,0.52-3.93-0.3-5.81,0.49
		C53.58,100.78,53.12,100.74,52.66,100.7z"/>
	<path class="st16" d="M60.48,154.97c-4.78-2.98-9.45-6.14-14.37-8.87c-2.73-1.52-3.56-2.87-1.25-5.31
		c0.48-0.51,0.83-1.14,1.24-1.72c1.99,0.29,2.65-1.34,3.5-2.54c1.8-2.52,3.61-5.03,5.51-7.47c0.88-1.14,1.75-2.31,3.47-2.08
		c4.55,2.13,8.99,4.49,13.31,7.06c0.82,0.48,1.72,0.91,1.87,2.02c-3.24,6.25-7.66,11.78-10.89,18.04
		C62.4,155,61.59,155.52,60.48,154.97z"/>
	<path class="st17" d="M66.89,200.16c-0.68,1.25-1.36,2.51-2.04,3.76c-3.12,5.77-3.71,6.14-10.03,4.74
		c-4.38-0.97-8.14-3.32-11.67-6.02c-0.94-0.72-1.36-1.4-0.66-2.69c2.26-4.18,4.34-8.46,6.49-12.7c5.96,1.61,10.04,6.12,14.76,9.63
		C64.93,197.76,66.36,198.57,66.89,200.16z"/>
	<path class="st17" d="M52.63,124.09c-3.48,5.44-7,10.84-10.41,16.32c-1.07,1.71-1.93,2.43-3.81,0.89c-1.84-1.51-3.83-3-6.01-3.88
		c-3.56-1.44-3.74-3.73-2.55-6.78c1.61-4.15,1.06-8.81,2.94-12.87c0.83-1.79,1.55-4.48,4.61-2.57c-0.06,0.34-0.14,0.67-0.22,1
		c-0.64,6.11,1.1,12.09,0.93,18.24c2.2-2.65,3.88-5.52,5.88-8.14c1.34-1.75,2.34-4.01,4.93-4.42
		C50.46,122.12,51.86,122.58,52.63,124.09z"/>
	<path class="st17" d="M59.06,162.9c-2.89,5.09-5.86,10.12-8.61,15.28c-1.05,1.97-1.95,1.88-3.51,0.7
		c-5.05-3.81-10.17-7.53-15.23-11.32c-2.83-2.12,0.44-3.62,0.61-5.44c2.22-0.25,2.31-2.41,3.3-3.74c1.26-1.69,2.04-3.72,3.42-5.33
		c0.75-0.87,1.66-2.01,2.69-0.2c0.84,6.1,2.69,11.91,5.3,17.45c1.54,3.27,2.64,3.2,4.65,0.23c1.9-2.81,2.53-6.55,5.98-8.24
		C58.21,162.26,58.71,162.4,59.06,162.9z"/>
	<path class="st17" d="M46.72,185.09c-2.17,4.89-4.34,9.79-6.58,14.84c-2.33-1.35-3.86-3.36-5.04-5.49
		c-3.17-5.74-6.2-11.56-8.02-17.92c-0.37-1.28-0.68-2.55,0.28-3.73c0.24-0.01,0.52-0.06,0.7,0.06
		C34.26,176.97,40.74,180.65,46.72,185.09z"/>
	<path class="st18" d="M54.88,184.5c-3.09-1.34-2.88-3.16-1.28-5.77c3.01-4.89,5.8-9.93,8.45-15.03c1.26-2.43,2.29-2.25,4.24-0.77
		c4.1,3.11,8.31,6.1,12.66,8.85c2.6,1.64,3.32,3.15,0.99,5.46c-1.94,0.97-2.71-0.92-3.97-1.63c-2.5-1.84-5.17-3.46-7.66-5.33
		c-1.83-1.38-3.16-1.08-4.28,1.05c-1.79,3.38-3.79,6.65-5.63,10.01C57.39,182.57,57.46,185.02,54.88,184.5z"/>
	<path class="st19" d="M54.88,184.5c1.86-0.52,1.83-2.5,2.84-3.68c1.41-1.03,2.49,0,3.57,0.64c1.64,0.97,3.25,2.03,4.73,3.23
		c1.73,1.39,2.96,1.14,3.93-0.88c1.14-2.37,2.26-4.75,3.57-7.02c0.59-1.02,1-2.67,2.86-1.75c1.29,0.56,1.98,2.08,3.55,2.2
		c-3,5.28-6.05,10.53-8.96,15.85c-0.85,1.56-1.39,2.16-3.11,0.83C63.63,190.65,59.22,187.62,54.88,184.5z"/>
	<path class="st20" d="M36.66,148.93c-2.27,4.71-5.26,9.06-7.18,13.96c-0.34,0.88-0.55,2.37-2.09,1.9
		c-1.36-0.42-2.17-1.43-2.06-2.97c0.32-4.39,0.58-8.78,0.99-13.15c0.23-2.48,0.95-4.92,1.05-7.4c0.12-3.06,1.14-3.32,3.26-1.48
		c0.86,0.75,2.28,0.93,2.48,2.37c-0.83,0.64-1.77-0.33-2.77,0.21C32.38,144.68,35.49,145.9,36.66,148.93z"/>
	<path class="st21" d="M79.14,167.97c-4.12-2.85-8.24-5.7-12.37-8.54c-1.04-0.71-1.68-1.43-0.43-2.51c4.25,0.89,5.24-2.43,6.68-5.18
		c0.74-1.13,1.03-2.67,2.7-2.96c2.76,2.02,3.34,5.5,5.36,8.05c1.22,1.54,2.1,3.38,2.82,5.26C83.01,164.62,82.37,167.35,79.14,167.97
		z"/>
	<path class="st22" d="M41.15,152.66c-2.23,0.13-2.26,2.3-3.19,3.58c-1.39,1.91-2.49,4.03-3.72,6.06c-0.77,1.27-1.46,1.69-1.94-0.18
		c2.51-4.46,5.08-8.88,7.51-13.39c0.98-1.83,1.72-1.89,3.47-0.69c4.7,3.23,9.55,6.28,14.49,9.13c2.78,1.6,3.39,3.24,1.28,5.72
		c-0.46-0.03-0.93-0.06-1.39-0.09C51.41,160.64,45.87,157.33,41.15,152.66z"/>
	<path class="st23" d="M100.85,179.32c-0.56,1.34,0.03,3.81-2.83,2.86c-3.49-3.56-8.31-5.49-11.52-9.39
		c2.17-1.74,3.32-4.27,4.98-6.42c0.85-1.1,1.4-2.57,3.18-2.47c2.77,2.69,4.36,6.2,6.48,9.34
		C102.54,175.33,100.41,177.27,100.85,179.32z"/>
	<path class="st24" d="M70.59,128.37c-3.36-1.97-6.71-3.94-10.07-5.92c1.98-3.97,4.91-7.26,7.74-10.61
		c0.85-1.01,1.98-1.76,3.47-1.24c0.53,0.3,0.85,0.76,1.03,1.34c0.34,3.88,0.26,7.77,0.89,11.64c0.3,1.85,0.28,3.85-1.89,4.88
		C71.36,128.59,70.97,128.56,70.59,128.37z"/>
	<path class="st25" d="M97.04,184.53c1.98,2.18-0.4,3.42-1.09,5.02c-1.54,0.82-2.46-0.32-3.41-1.16c-2.14-1.9-4.57-3.43-6.75-5.27
		c-1.7-1.43-2.9-1.33-3.84,0.76c-1.47,3.26-3.66,6.13-5.05,9.43c-1.33,1.42-0.85,4.15-3.37,4.72c-1.6-0.68-1.25-1.65-0.55-2.85
		c3.39-5.75,6.76-11.52,10.06-17.32c0.97-1.71,1.74-2.04,3.46-0.72C89.9,179.76,93.52,182.09,97.04,184.53z"/>
	<path class="st26" d="M39.78,113.65c-1.77-0.42-3.32-0.88-0.75-2.58c0.98-0.65,1.88-1.4,2.82-2.11c5.2-1.68,10.5-1.45,15.82-0.82
		c1.59,0.84,1.02,2.11,0.29,2.98c-1.88,2.26-3.3,4.96-5.92,6.54c-3.46-0.43-6.23-2.74-9.56-3.57
		C41.59,113.87,40.78,113.24,39.78,113.65z"/>
	<path class="st27" d="M79.14,167.97c2.11-1.5,2.94-3.96,4.45-5.91c-0.1-2.41,2.02-3.57,3.04-5.35c0.84-1.03,1.45-2.23,2.39-3.17
		c0.43-0.35,0.91-0.5,1.45-0.37c1.78,1.54,1.4,3.88,2.12,5.81c-0.45,2.38-1.87,4.06-3.83,5.36c-0.62,0.87-1.25,1.73-1.85,2.61
		C83.7,171.65,83.7,171.65,79.14,167.97z"/>
	<path class="st28" d="M73.54,198.04c0.93-1.69,1.85-3.38,2.78-5.07c0.2-0.14,0.46-0.36,0.63-0.29c4.19,1.82,8.41,3.57,11.75,6.85
		c-2.58,1.76-4.31,4.85-7.91,5C79.12,201.52,75.71,200.48,73.54,198.04z"/>
	<path class="st29" d="M46.72,185.09c-7.02-3.21-13.36-7.48-19.35-12.3c0.56-2.88,1.52-3.88,4.28-1.57
		c4.54,3.8,9.36,7.27,14.09,10.84C46.81,182.88,48.03,183.54,46.72,185.09z"/>
	<path class="st30" d="M72.13,111.55c-0.25-0.22-0.51-0.43-0.76-0.65c-0.97-0.78-3.25,0.14-2.95-2.28c0.02-0.17,0.04-0.33,0.08-0.5
		c0.68-1.97,2.04-3.21,4.06-3.73c1.57-0.1,3.2-0.51,4.45,0.91c0.11,0.16,0.21,0.33,0.3,0.51c-0.55,1.12,0.63,0.67,0.85,0.76
		c4.12,1.63,4.48,3.61,1.22,6.95c-0.51,0.23-1.04,0.34-1.59,0.35C75.72,113.54,73.64,113.23,72.13,111.55z"/>
	<path class="st31" d="M73.68,136.01c-5.09-2.85-10.19-5.71-15.28-8.56c-0.81-1.01-2.93-0.3-2.99-2.29
		c0.71-2.17,1.97-0.97,3.04-0.45c3.35,1.63,6.68,3.31,10.01,4.96c2.62,0.61,4.97,1.87,7.34,3.08c0.76,0.46,1.5,0.94,1.69,1.91
		c-0.11,1.47-0.95,2.28-2.34,2.61C74.35,137.22,73.77,136.91,73.68,136.01z"/>
	<path class="st32" d="M51.88,117.47c2.19-2.86,4.38-5.71,6.57-8.57c0.53-0.8,1.37-0.95,2.23-1.06c1.28,0,2.59-0.11,3.51,1.08
		c-2.23,2.76-4.74,5.34-6.6,8.32c-1.94,3.1-3.82,3.26-6.34,1C51.18,117.77,51.58,117.66,51.88,117.47z"/>
	<path class="st33" d="M72.11,105.07c-1.2,1.02-2.41,2.04-3.61,3.06c-0.28-0.81-0.56-1.63-0.85-2.44c-1.81-0.55-3.81,0.06-5.55-0.93
		c-0.19-0.18-0.28-0.38-0.28-0.6c0-0.23,0.03-0.34,0.07-0.34c0.55-0.29,1.8,0.22,1.6-0.73c-0.22-1.07-0.94-2.18-2.4-2.2
		c-2.35-0.02-4.71-0.04-7.06-0.07c1.81-1.27,3.88-0.33,5.8-0.66c1.42-1.23,3.08-1.01,4.74-0.77c1.9,0.53,3.9,0.4,5.83,0.79
		c0.79,0.21,1.59,0.42,2.35,0.75c1.29,0.56,2.28,1.67,2.21,2.95C74.85,105.64,72.95,104.32,72.11,105.07z"/>
	<path class="st34" d="M68.42,108.62c0.57,1.29,2.23,1.17,2.95,2.28c-3.37,0.81-4.25,4.14-6.3,6.28c-1.61,1.67-2.46,4.01-4.55,5.28
		c-1.99-0.57-2.84-1.38-1.15-3.37C62.35,115.57,64.84,111.62,68.42,108.62z"/>
	<path class="st35" d="M73.68,136.01c0.48,0.29,0.96,0.59,1.45,0.88c0.12,3.42-2.17,5.3-4.54,7.14c-2.21,3.47-4.47,6.9-6.6,10.41
		c-1.05,1.73-2.07,2.1-3.51,0.53c3.42-2.58,4.37-6.84,6.82-10.08C69.5,141.98,70.9,138.5,73.68,136.01z"/>
	<path class="st36" d="M55.42,125.16c1.22,0.48,2.64,0.68,2.99,2.29c-3.32,1.36-4.26,4.86-6.43,7.25c-1.34,1.48-2.35,3.26-3.57,4.86
		c-1.04,1.36-1.9,1.36-2.3-0.49C49.23,134.45,51.89,129.51,55.42,125.16z"/>
	<path class="st37" d="M60.54,108.71c-0.7,0.06-1.4,0.13-2.09,0.19c-5.24-0.1-10.49-0.76-15.69,0.52c-0.25,0.06-0.6-0.31-0.9-0.47
		c3.79-2.89,7.9-4.89,12.83-4.57c0.88,0.18,2.09-0.05,2.31,1.15c0.16,0.9-0.45,1.53-1.41,1.59
		C57.18,107.71,59.53,106.13,60.54,108.71z"/>
	<path class="st38" d="M66.89,200.16c-4.1-3.07-8.3-6.03-12.26-9.27c-1.78-1.45-4.24-1.72-5.65-3.65c0.33-1.33,0.67-2.29,2.33-1.06
		c4.95,3.68,9.97,7.27,15,10.85C67.58,197.94,68.16,198.84,66.89,200.16z"/>
	<path class="st39" d="M60.54,108.71c-1.52-1.33-3.43-0.19-5.35-0.95c1.56-1.39,1.22-2.54-0.5-3.38c0,0,0.05,0.02,0.05,0.02
		c2.5-0.5,5.01-0.39,7.52-0.06c1.82,0.37,4.06-0.99,5.4,1.34c-1.16,1.08-2.31,2.16-3.47,3.24
		C62.97,108.86,61.76,108.78,60.54,108.71z"/>
	<path class="st17" d="M75.03,207.55c-2.45,2.12-5.4,2.16-8.39,2.05c-1.2-0.05-1.97-0.45-1.06-1.69c1.17-1.6,1.6-3.75,3.49-4.83
		C71.76,203.63,74.55,204.05,75.03,207.55z"/>
	<path class="st40" d="M75.62,149.06c-0.68,0.99-1.36,1.99-2.04,2.98c-1.24-0.37-2.97,1.17-3.76-0.96c1.02-1.8,2.05-3.6,3.07-5.4
		c0.37-1.43,0.79-2.83,2.42-3.35c1.39-0.25,2.82-1.27,4.12,0.23c0.25,0.69,0.01,1.31-0.25,1.93
		C78.02,146.04,77.61,148.16,75.62,149.06z"/>
	<path class="st41" d="M88.76,164.33c1.12-1.74,2.24-3.49,3.36-5.23c-0.24-2.87,1.79-4.19,3.79-5.53c0.99-0.16,1.87-0.03,2.45,0.92
		c0.58,2.54-1.43,3.93-2.55,5.72c-1.73,1.79-2.34,4.59-4.97,5.57C90.14,165.3,89.45,164.82,88.76,164.33z"/>
	<path class="st42" d="M36.66,148.93c-2.16-1.83-4.37-3.6-6.44-5.53c-0.63-0.59-2.27-1.11-1.27-2.39c0.76-0.97,1.7,0.13,2.53,0.44
		c0.55,0.2,1.09,0.46,1.63,0.7c0.8,0.45,1.58,0.96,2.41,1.35C38.33,144.81,39.13,146.52,36.66,148.93z"/>
	<path class="st43" d="M69.82,151.08c1.19,0.58,2.92-0.98,3.76,0.96c-0.42,0.95-0.91,1.88-1.26,2.86c-1.16,3.18-3.11,3.95-5.98,2.02
		C67.13,154.75,68.37,152.86,69.82,151.08z"/>
	<path class="st44" d="M52.63,124.09c-1.2-0.54-2.4-1.08-3.6-1.62c-3.99-0.87-7.35-3.23-11.07-4.72c-0.94-0.38-2-1.06-1.12-2.44
		c0.2,0,0.39-0.03,0.58-0.1c4.68,1.99,9.37,3.96,14.02,5.99C52.66,121.73,54.48,122.2,52.63,124.09z"/>
	<path class="st45" d="M75.56,142.39c-0.89,1.1-1.78,2.19-2.67,3.29c-0.47-0.96-1.48-1.17-2.3-1.65c1.17-2.6,3.59-4.4,4.54-7.14
		c0.67-0.72,1.33-1.45,2-2.17c1.33-0.67,1.76-0.05,1.34,1.13c-0.39,1.09-0.95,2.11-0.72,3.32C77.67,140.69,76.85,141.7,75.56,142.39
		z"/>
	<path class="st46" d="M75.03,207.55c-1.08-2.71-4.34-2.5-5.96-4.47c0.31-2.7,1.29-3.48,3.52-1.35c0.94,0.9,2.13,1.55,3.13,2.39
		c0.7,0.59,2.07,0.84,1.88,1.91C77.4,207.21,76.08,207.33,75.03,207.55z"/>
	<path class="st47" d="M90.83,165.78c1.44-1.94,2.89-3.87,4.33-5.81c0.58,0.36,0.87,0.91,0.96,1.57c-0.14,1.2-0.8,2.03-1.84,2.6
		c-1.87,2.41-3.76,4.82-5.6,7.25c-0.57,0.75-0.99,1.66-2.19,1.4C87.94,170.46,89.39,168.12,90.83,165.78z"/>
	<path class="st48" d="M75.55,133.33c-2.51-0.93-4.88-2.13-7.08-3.66c0.96-0.02,1.7-0.4,2.12-1.3c0.27-0.06,0.53-0.12,0.8-0.18
		c2.45,0.11,4.27,1.5,6.06,2.96c0.16,0.35,0.22,0.72,0.2,1.1C77.36,133.42,76.72,133.91,75.55,133.33z"/>
	<path class="st49" d="M51.88,117.47c-0.21,0.26-0.43,0.52-0.64,0.78c-3.82-1.53-7.64-3.07-11.46-4.6c1.84-1.32,3.42,0.06,4.97,0.64
		C47.19,115.19,49.51,116.39,51.88,117.47z"/>
	<path class="st37" d="M62.26,104.35c-2.51,0.02-5.02,0.04-7.52,0.06c2.32-1.08,4.8-0.2,7.17-0.59
		C62.01,104,62.12,104.18,62.26,104.35z"/>
	<path class="st50" d="M49.05,66.31c-1.51,2.64,0.78,5.26,0.02,7.92c-0.24,0.82,0.91,1.97-0.36,2.55c-1.13,0.52-1.61-0.72-2.35-1.23
		c-0.35-0.24-0.64-0.23-0.91,0.11c-2.39-2.83-4.88-5.58-7.83-7.85c-0.68-0.52-1.47-0.96-1.47-1.9c-0.01-6.74-3.47-12.32-6.07-18.19
		c-0.53-1.19-0.8-2.49-1.2-3.74c2.42-1.65,4.77-0.83,6.96,0.39c2.67,1.49,5.13,3.32,7.27,5.55c2.7,4.23,4.4,8.88,5.83,13.65
		C49.22,64.46,49.57,65.38,49.05,66.31z"/>
	<path class="st51" d="M46.14,81.5c0.25,0.94,0.5,1.88,0.75,2.82c-0.84,3.41-1.68,6.82-2.66,10.79c-2.84-4-5.56-7.55-7.98-11.29
		c-2.84-4.4-5.55-8.86-9.16-12.71c-0.82-0.87-1.85-1.93-1.79-3.4c1.57-0.99,2.42,0.38,3.39,1.11c3.42,2.6,6.68,5.43,10.32,7.75
		c1.33,0.85,2.62,1.72,4.32,1.19C44.67,78.7,45.27,80.2,46.14,81.5z"/>
	<path class="st52" d="M43.32,77.77c-0.89,2.92-2.51,0.95-3.54,0.33c-4.31-2.59-8.19-5.79-12.05-9c-0.74-0.62-1.38-1.35-2.44-1.38
		c-3.29-2.86-6.56-5.75-10.81-7.19c-1.02-1.09-0.23-1.56,0.66-1.21c1.67,0.66,3.42,0.27,5.08,0.71c2.41,1.35,4.81,2.7,7.22,4.04
		c4.58,3.24,9.49,6.06,13.32,10.26C41.73,75.38,42.48,76.62,43.32,77.77z"/>
	<path class="st53" d="M49.05,66.31c-1.99-5.35-3.55-10.88-6.49-15.84c0.71-1.16-1.2-2.28-0.06-3.45c4.36,2.53,6.46,6.51,7.3,11.31
		c0.16,2.32,0.93,4.56,0.72,6.94C50.42,66.41,50.12,66.76,49.05,66.31z"/>
	<path class="st54" d="M42.5,47.02c-0.02,1.15,1.61,2.27,0.06,3.45c-4.07-3.18-7.68-7.35-13.67-6.49c-0.62-0.58-0.88-1.11,0.19-1.5
		c2.76-1.02,5.38-0.31,7.81,0.91C38.87,44.38,40.64,45.79,42.5,47.02z"/>
	<path class="st55" d="M66.35,24.6c-1.68,1.67-3.36,3.34-5.05,5.02c-0.73,0.1-1.07-0.16-0.88-0.93c3.42-5.08,7.9-9,13.12-12.14
		c0,0-0.05,0.32-0.05,0.32c0.59,0.49,1.58,0.56,1.65,1.59C72.59,21.03,69.59,22.99,66.35,24.6z"/>
	<path class="st56" d="M60.42,28.68c0.29,0.31,0.59,0.62,0.88,0.93c-1.46,1.42-2.06,3.72-4.37,4.28
		C57.9,32.02,58.91,30.18,60.42,28.68z"/>
	<path class="st57" d="M79.99,46.85c-1.33,4.39-4.67,8.25-3.34,13.37c0.14,0.54-1.19,1.39-1.68,2.19c-0.89,1.45-3.26,2.23-2.17,4.61
		c0.02,2.42-1.41,3.31-3.6,3.39c-2.23-1.15-2.87-3.26-3.29-5.5c2.26-8.02,6.16-15.21,11.26-21.76c0.8-1.02,1.84-2.39,3.59-1.32
		C80.5,43.51,80.25,45.18,79.99,46.85z"/>
	<path class="st58" d="M80.76,41.84c-4.21,1.37-5.6,5.32-7.48,8.62c-2.63,4.62-5.07,9.38-6.92,14.4c-1.75-0.53-2.85-1.66-3.21-3.48
		c0.16-0.88,0.66-1.52,1.39-2c2.37-2.62,3.15-6.1,4.9-9.07c1.75-2.98,3.05-6.22,4.79-9.22c1.12-1.09,2.53-1.71,3.98-2.15
		c1.17-0.36,2.64-1.46,3.56-0.27C82.45,39.56,81.22,40.78,80.76,41.84z"/>
	<path class="st59" d="M74.96,18.07c-0.82-0.01-1.34-0.37-1.47-1.21c3.46-1.16,6.63-3.43,11.21-2.9
		c-8.2,11.07-12.96,23.42-17.62,35.81c-1.03,0.26-1.2-0.52-1.45-1.19c0.67-6.44,3.87-12,6.33-17.8c1.82-4.3,4.37-8.23,6.76-12.48
		C77.42,17.55,76.07,18.9,74.96,18.07z"/>
	<path class="st60" d="M74.23,41.09c-0.12,3.15-2.23,5.49-3.4,8.21c-1.32,3.07-2.75,6.1-4.22,9.11c-0.32,0.66-0.28,2.12-1.78,1.39
		c-1.39-3.47-0.66-6.44,2.15-8.65c0.2,1.08,0.55,1.24,1.08,0.17c1.11-2.24,2.21-4.48,3.32-6.72C72.06,43.2,72.65,41.74,74.23,41.09z
		"/>
	<path class="st61" d="M66.98,51.14c-1.57,2.67-2.19,5.58-2.15,8.65c-0.48,0.5-0.95,1-1.43,1.5c-0.74,0.06-0.99-0.42-1.13-1.02
		c0.1-3.38,1.18-6.56,2.05-9.78c0.26-0.98,0.52-2.16,1.93-2.25c0.08,0.62,0.18,1.23,0.84,1.53C67.05,50.23,67.02,50.68,66.98,51.14z
		"/>
	<path class="st62" d="M19.52,91.51c1.51,2.61,4.33,4.17,5.62,6.96c0.58,1.26,1.63,2.32,1.58,3.83c-2.99-2.85-5.48-6.15-8.67-8.86
		C15.93,91.64,18.45,91.77,19.52,91.51z"/>
	<path class="st63" d="M86.54,77.16c-2.04,1.43-4.17,2.75-6.09,4.34c-1.06,0.87-2.67,1.74-1.85,3.67c-0.01,1.78-1.46,1.95-2.67,2.39
		c-2.56,1.35-5,1.73-7.13-0.79c-0.17-0.52-0.16-1.03,0.08-1.53c1.2-0.52,1.63-1.41,1.6-2.73c-0.04-1.49-0.24-3.04,0.51-4.46
		c0.96-0.15,1.99,0.19,2.67-1.09c0.6-1.13,1.52-2.14,2.32-3.18c3.24-4.52,7.32-8.14,12.08-10.98c0.93-0.56,2.21-1.98,3.24,0.06
		c0.22,2.04-1.06,3.57-1.84,5.26C88.11,71.01,86.92,73.95,86.54,77.16z"/>
	<path class="st64" d="M79.32,85.09c3.73-3.38,8.36-5.3,12.65-7.77c2.31-1.33,4.89-1.69,7.54-1.05c1.78-0.21,3.27,0.02,3.44,2.27
		c-1.03,0.61-1.56,1.87-2.86,2.12c-3.18,0.83-5.22,3.64-8.24,4.75c-3.24,0.64-5.69,3.26-9.04,3.62
		C81.2,88.12,79.69,87.11,79.32,85.09z"/>
	<path class="st65" d="M86.54,77.16c-1.3-1.74-0.34-3.44,0.28-5C88.09,69,89.6,65.94,91,62.84c-0.1-2.35,1.14-4.19,2.27-5.93
		c-2.74,0.27-5.52,0.73-8.22,1.64c-0.72,0.24-1.91,0.84-2.05-0.8c3.93-3.97,8.43-4.39,13.36-2.17c-1.68,4.28-3.35,8.56-5.03,12.84
		C89.5,71.2,89.63,75.07,86.54,77.16z"/>
	<path class="st66" d="M91.63,85.11c2.12-1.46,4.22-2.95,6.38-4.34c0.58-0.37,1.33-1.25,2.07-0.11
		c-6.31,5.52-11.9,11.66-16.39,18.76c-0.68,1.08-1.02,2.38-1.52,3.58c-0.43,0.46-0.93,0.51-1.48,0.24c-0.23-0.28-0.52-0.65-0.4-0.95
		C82.85,95.75,85.18,89.07,91.63,85.11z"/>
	<path class="st67" d="M79.32,85.09c1.2,1.19,2.39,2.38,3.59,3.57c-0.8,2.67-2.62,4.1-5.37,4.38c-1.76-1.85-3.12-3.82-1.82-6.53
		c1.19,0.04,2.25-0.19,2.88-1.35C78.84,85.14,79.08,85.11,79.32,85.09z"/>
	<path class="st68" d="M80.8,102.92c0.46,0.02,0.92,0.05,1.38,0.07c0.25,0.22,0.5,0.44,0.75,0.67c-1.97,0.54-3.95,1.09-5.92,1.64
		c-1.63-0.08-3.27-0.15-4.9-0.23c0.38-1,2.23-0.14,2.06-1.22c-0.28-1.8-2.07-2.28-3.55-2.9c0.36-0.54,0.92-0.75,1.53-0.85
		C75.18,100.59,78.57,99.98,80.8,102.92z"/>
	<path class="st69" d="M102.94,78.54c-0.46-1.8-2.22-1.62-3.44-2.27c2.03-1.58,3.42,0.09,4.54,1.23
		C104.81,78.27,103.61,78.45,102.94,78.54z"/>
	<path class="st70" d="M87.1,126.58c1.61-2.27,3.09-4.65,4.85-6.79c1.99-2.42,2.04,1.01,3.19,1.22c3.28,5.53,7.44,10.59,8.85,17.11
		c0.39,1.78,0.44,3.29-0.89,4.63c-1.71,0.08-1.78-1.41-2.35-2.43c-1.58-3.73-3.21-7.43-5.66-10.7c-2.91-3.89-2.92-3.89-6.73-1.16
		C87.41,128.2,86.71,127.75,87.1,126.58z"/>
	<path class="st71" d="M98.06,155.06c-0.47-0.99-1.41-0.89-2.27-0.97c-0.97-2.7,1.98-3.82,2.4-5.95c-1.13-2.7-4-3.09-6.04-4.58
		c-1.02-0.75-2.54-0.77-3.13-2.14c0-1.12-0.4-2.27,0.34-3.32c3.91-0.06,6.22,3.08,9.32,4.63c1.08,0.76,1.97,1.73,2.83,2.72
		c2.46,1.17,1.13,2.55,0.22,3.91C101.8,152.09,100.39,153.88,98.06,155.06z"/>
	<path class="st72" d="M105.13,150.65c-0.49,4.77-0.99,9.53-1.48,14.3c-0.65,0.87,0.27,2.17-1.39,3.33
		c-0.32-3.75-3.84-5.48-4.61-8.88c1.13-3.89,3.59-6.73,7.01-8.81C104.82,150.61,104.97,150.63,105.13,150.65z"/>
	<path class="st73" d="M104.66,150.59c-2.23,2.87-4.46,5.74-6.69,8.6c-0.26,1.16-0.98,1.86-2.12,2.15c-0.6-0.27-0.65-0.81-0.67-1.36
		c0.96-1.64,1.93-3.28,2.89-4.92c1.22-1.9,2.45-3.8,3.67-5.7C103.17,148.67,103.88,149.71,104.66,150.59z"/>
	<path class="st74" d="M101.51,145.45c-1.36-0.05-2.14-0.94-2.83-1.96c-0.48-2.28-0.07-3.89,2.76-3.67
		c0.61,0.95,0.37,2.38,1.66,2.94C102.63,143.69,101.55,144.26,101.51,145.45z"/>
	<path class="st21" d="M88.69,199.53c-4.12-2.19-8.25-4.38-12.37-6.56c1.39-3.84,3.86-7.12,5.6-10.78c0.98-2.07,2.02-1.55,3.5-0.5
		c3.57,2.55,6.6,5.81,10.53,7.86c0.01,0.21,0.02,0.42,0.05,0.62C93.47,193.22,92.25,197.29,88.69,199.53z"/>
	<path class="st75" d="M95.84,161.34c0.71-0.72,1.42-1.43,2.12-2.15c0.69,3.04,5.51,3.72,4.62,7.86c0.35-0.7,0.71-1.4,1.06-2.1
		c0.07,0.25,0.14,0.5,0.21,0.74c-0.9,4.56-0.95,9.32-3.01,13.63c0.92-6.4-4.01-10.28-6.56-15.18
		C94.81,163.21,95.32,162.28,95.84,161.34z"/>
	<path class="st76" d="M79.29,113.09c2.64-4.16,2.16-5.07-3.97-6.91c0.88-0.16,1.43-0.26,1.99-0.37c1.91,0.47,3.66,1.41,5.7,1.56
		c2.05,0.16,7.88,6.31,7.88,8.2c0,1.65-1.78,2.45-2.32,3.9c-0.33,0.54-0.86,0.46-1.37,0.42C84.49,117.71,81.74,115.57,79.29,113.09z
		"/>
	<path class="st77" d="M89.32,138.44c0.15,0.91,0.69,1.83,0,2.74c-1.32,0.54-2.22-0.38-3.23-0.91c-0.21-0.12-0.42-0.23-0.61-0.37
		c-2.61-1.97-5.27-3.22-8.2-0.57c-0.78-1.22-0.89-2.31,0.36-3.37c0.79-0.67,0.51-1.16-0.5-1.24c-0.53-0.46-1.05-0.93-1.58-1.39
		c0.94-0.08,1.55-0.5,1.58-1.52c1.88-0.91,2.61-3.38,4.97-3.63c0.89,0.58,1.16,1.55,1.57,2.44c0.25,0.76-0.11,1.48-0.09,2.23
		c0.44,1.79,2.02,2.42,3.34,3.3C87.86,136.77,89.1,137.06,89.32,138.44z"/>
	<path class="st78" d="M82.11,128.18c-1.83,0.97-1.94,4.3-4.97,3.63c-0.05-0.2-0.07-0.41-0.06-0.61c-0.91-1.38,0.19-2.33,0.73-3.4
		c2.1-2.88,4.92-5.08,7.24-7.76c0.54-0.63,1.22-1.21,2.1-0.41c0.47-0.05,0.95-0.1,1.42-0.14C86.41,122.37,84.26,125.28,82.11,128.18
		z"/>
	<path class="st79" d="M82.8,132.38c0.29-0.59,0.58-1.17,0.87-1.76c1.14-1.35,2.28-2.7,3.43-4.05c0.46,0.54,0.92,1.07,1.38,1.61
		C88.11,132.49,85.76,134.22,82.8,132.38z"/>
	<path class="st80" d="M83.01,57.75c2.29,0.49,4.11-1.16,6.25-1.37c1.52-0.15,3.03-0.4,4.72,0.11c-0.63,2.32-1.83,4.32-2.97,6.35
		c-2.38-0.4-3.73,1.42-5.34,2.55c-3.52,2.48-6.48,5.58-9.24,8.87c-1.77-0.26-0.99-1.66-0.93-2.48c0.17-2.35,0.19-4.69,0.1-7.03
		C77.85,62.19,80.19,59.72,83.01,57.75z"/>
	<path class="st81" d="M75.59,64.74c2.06,1.68,0.88,3.79,0.88,5.8c0,1.24-0.7,2.48-0.05,3.72c-0.64,1.58-1.98,2.68-2.89,4.04
		c-1.42,2.13-1.47-0.15-2.13-0.47c-2.05-2.26-2.8-4.91-2.31-7.91c1.9-0.11,2.81-1.49,3.7-2.9C73.73,66.26,74.66,65.5,75.59,64.74z"
		/>
	<path class="st82" d="M66.25,48.24c-2.12,3.84-2.05,8.31-3.54,12.33c-2.75,0.12-5.01,0.8-5.21,4.17c-0.03,0.56-0.51,1.03-1.24,0.86
		c-0.24-0.52-0.68-1.03-0.69-1.56c-0.4-13.56,2.87-26.1,10.46-37.42c0.43-0.64,1.4-1.16,0.32-2.03c2.32-2.89,5.77-4.31,8.6-6.53
		c1.74-0.58,3.36-1.8,5.68-0.99C74.4,26.95,69.35,37.15,66.25,48.24z"/>
	<path class="st83" d="M64.81,100.29c-1.65-0.04-3.31-0.08-4.96-0.13c0.98-2.34,0.57-4.57-0.19-6.92
		c-1.53-4.72-2.44-9.64-4.89-14.03c-0.59-0.53-0.78-1.25-0.59-1.94c1.24-4.42,2.69-8.77,3.8-13.23c0.15-0.59,0.71-0.92,1.38-0.5
		c3.44,10.18,5.43,20.67,6.51,31.34C66.05,96.7,66.38,98.73,64.81,100.29z"/>
	<path class="st84" d="M59.03,63.34c-1.13,5.37-3.46,10.42-4.27,15.87c-1.34,1.21-0.77,3.45-2.9,5.09
		c0.41-6.92,3.89-12.49,4.4-18.69c0.23-0.52,0.57-1.01,0.66-1.55c0.72-4.29,1.56-4.82,5.78-3.48c0.23,0.24,0.46,0.48,0.69,0.72
		c0.99,1.19,1.97,2.37,2.96,3.56c0.91,1.69,1.83,3.38,2.74,5.06c0.77,2.64,1.54,5.27,2.31,7.91c-0.02,2.26,0.09,4.54-0.11,6.79
		c-0.17,1.95-1.06,1.85-2.03,0.37c-0.88-0.63-0.93-1.61-1-2.55c-0.31-4.47-1.84-8.54-3.93-12.44c-0.59-1.92-1.82-3.49-2.9-5.14
		C60.88,63.96,60.03,63.53,59.03,63.34z"/>
	<path class="st85" d="M36.83,115.31c0.08,1.58,1.43,1.67,2.48,2.11c3.38,1.41,6.68,2.97,9.71,5.06c-3.01,1.57-4.35,4.56-6.15,7.17
		c-1.55,2.24-3.06,4.51-4.53,6.68c-0.91,0.04-0.91-0.57-0.93-0.97C37.12,128.67,35.16,122.04,36.83,115.31z"/>
	<path class="st85" d="M41.15,152.66c5.5,3.38,11.01,6.76,16.51,10.14c-2.92,2.63-3.89,6.51-6.14,9.57
		c-1.76,2.39-3.17,2.59-4.45,0.02C43.99,166.18,41.31,159.78,41.15,152.66z"/>
	<path class="st85" d="M76.39,175.03c-3.1,1.56-3.36,4.98-4.8,7.59c-2.77,4.99-2.58,5-7.4,1.83c-2.06-1.35-3.82-3.3-6.46-3.63
		c2.1-3.75,4.27-7.45,6.25-11.26c0.9-1.73,1.89-1.93,3.37-0.89C70.36,170.79,73.37,172.91,76.39,175.03z"/>
	<path class="st86" d="M75.62,149.06c1.01-1.64,2.02-3.29,3.03-4.93c0.67-0.25,1.26,0.02,1.53,0.55c2.17,4.22,5.45,7.81,7.03,12.36
		c-1.21,1.67-2.41,3.35-3.62,5.02C80.42,158.03,78.01,153.56,75.62,149.06z"/>
	<path class="st87" d="M78.52,128.19c-0.34,1.07-1.56,1.71-1.45,3c-2.13-0.57-3.92-1.77-5.69-3c2.03-1.45,1.67-3.61,1.27-5.47
		c-0.8-3.72-0.75-7.43-0.52-11.17c1.9,0.54,3.8,1.08,5.69,1.61C78.28,118.16,78.97,123.15,78.52,128.19z"/>
	<path class="st88" d="M87.21,157.03c-3-3.4-5.14-7.35-7.21-11.34c-0.34-0.66-0.66-1.25-1.35-1.57c0.18-0.51,0.37-1.02,0.55-1.53
		c0.21-2.07,0.64-3.85,3.39-2.52c1.42,3.29,3.11,6.45,5.19,9.38c0.99,1.4,1.6,2.91,1.52,4.65C88.6,155.08,87.9,156.06,87.21,157.03z
		"/>
	<path class="st89" d="M99.4,148.29c-1.06,2.03-3.03,3.49-3.62,5.81c-1.06,1.79-2.97,2.95-3.67,5.01c-1.53-1.59-0.7-4.01-2.02-5.67
		c-0.52-1.15,0.43-1.85,0.83-2.73c1.38-1.7,2.56-3.63,4.9-4.22C97.3,146.52,98.38,147.36,99.4,148.29z"/>
	<path class="st90" d="M91.44,151.21c-0.45,0.74-0.9,1.48-1.35,2.23c-0.27,0.22-0.53,0.44-0.8,0.67c-1.95-4.79-6.13-8.43-7.11-13.71
		c1.53-0.9,2.66,0.3,3.94,0.75c0.94,0.5,1.86,1.02,2.39,2C89.21,145.93,91.39,148.18,91.44,151.21z"/>
	<path class="st91" d="M78.52,128.19c-0.97-4.97-2.2-9.94-0.7-15.03c0.49-0.02,0.98-0.05,1.47-0.07c3.41,1.23,5.65,3.85,7.85,6.53
		C83.83,122.03,81.28,125.21,78.52,128.19z"/>
	<path class="st92" d="M59.03,63.34c1.44-1.29,2.31-0.66,2.93,0.86c-1,2.2,0.85,3.57,1.56,5.27c2.76,5.01,4.71,10.27,4.96,16.05
		c0.02,0.72-0.1,1.58,0.54,2.01c3.69,2.46,3.94,6.63,5.22,10.3c0.04,1.54-0.91,2.37-2.15,2.99c-0.49,0.04-0.98,0.09-1.46,0.13
		c-1.91-0.49-3.99,0.57-5.81-0.66c0.48-11.13-2.58-21.71-5.09-32.36C59.35,66.39,59.12,64.89,59.03,63.34z"/>
	<path class="st93" d="M85.81,141.79c-1.21-0.47-2.42-0.94-3.63-1.41c-2.18-0.87-1.89,1.61-2.98,2.2c-1.16-1.1-2.49,0.94-3.64-0.2
		c0.57-1.02,1.14-2.04,1.72-3.07c2.99-3.57,2.99-3.57,9.26,0.42C86.53,140.51,86.48,141.26,85.81,141.79z"/>
	<path class="st94" d="M73.52,97.99c-1.7-3.46-1.5-7.9-5.36-10.29c-0.39-0.24-0.27-1.3-0.39-1.98c0.72-0.43,0.97,0.18,1.32,0.59
		c2.15,1.92,4.36,2.06,6.62,0.21c0.01,2.38,1.15,4.39,2.12,6.45C77.38,95.48,76.42,97.57,73.52,97.99z"/>
	<path class="st95" d="M69.09,86.31c-0.44-0.2-0.88-0.39-1.32-0.59c-0.41-5.9-2.89-11.17-5.05-16.53c0.73-0.64,1.46-0.56,2.2-0.01
		c3.14,4.8,4.41,10.12,4.34,15.8C69.21,85.42,69.15,85.87,69.09,86.31z"/>
	<path class="st96" d="M73.52,97.99c2.03-1.16,2.79-3.42,4.32-5.02c1.69-1.44,3.38-2.87,5.08-4.31c2.97-1.02,5.24-3.77,8.72-3.55
		c-4.88,5.16-8.55,11.06-10.83,17.81c-2.73-1.43-5.8-1.45-8.72-2.1C72.53,99.86,73.62,99.23,73.52,97.99z"/>
	<path class="st97" d="M82.8,132.38c4.12,1.61,4-2.51,5.68-4.2c0.44-0.7,0.82-1.45,1.32-2.09c1.13-1.45,2.16-1.87,3.61-0.12
		c3.47,4.18,6.09,8.8,8.03,13.84c-1.79,0.57-2.42,2.01-2.76,3.67c-3.3-1.35-5.81-4.16-9.36-5.05c-2.06-1.3-4.37-2.16-6.21-3.85
		C82.27,133.82,81.71,133.29,82.8,132.38z"/>
	<path class="st98" d="M85.81,141.79c-0.03-0.78-0.13-1.58,0.72-2.05c0.93,0.48,1.86,0.96,2.79,1.44c2.86,1.58,5.73,3.14,8.56,4.76
		c0.86,0.49,2.11,0.86,1.52,2.35c-1.4,0.1-2.35-1.02-3.59-1.34c-3.05-0.3-5.7-1.48-7.88-3.65C87.23,142.8,86.52,142.3,85.81,141.79z
		"/>
	<path class="st99" d="M64.93,69.18c-0.73,0-1.47,0-2.2,0.01c-2.61-3.33-2.61-3.33-0.77-4.99C62.91,65.88,64.64,67.11,64.93,69.18z"
		/>
	<path class="st100" d="M87.94,143.3c2.63,1.22,5.25,2.43,7.88,3.65c-1.78,1.09-2.99,2.76-4.37,4.26
		C90.03,148.68,88.33,146.28,87.94,143.3z"/>
</g>
</svg>
