<?xml version="1.0" encoding="utf-8"?>
<!-- Generator: Adobe Illustrator 23.0.2, SVG Export Plug-In . SVG Version: 6.00 Build 0)  -->
<svg version="1.1" id="Camada_1" xmlns="http://www.w3.org/2000/svg" xmlns:xlink="http://www.w3.org/1999/xlink" x="0px" y="0px"
	 viewBox="0 0 119.96 107.68" style="enable-background:new 0 0 119.96 107.68;" xml:space="preserve">
<style type="text/css">
	.st0{fill:#FEFEFE;}
	.st1{fill:#010002;}
	.st2{fill:#143B1C;}
	.st3{fill:#1E522B;}
	.st4{fill:#174421;}
	.st5{fill:#184322;}
	.st6{fill:#152B19;}
	.st7{fill:#88B46F;}
	.st8{fill:#7EAF6A;}
	.st9{fill:#B1CC9E;}
	.st10{fill:#4F944D;}
	.st11{fill:#4B8D49;}
	.st12{fill:#5D9E50;}
	.st13{fill:#4C8F4A;}
	.st14{fill:#5EA359;}
	.st15{fill:#154823;}
	.st16{fill:#ACC88D;}
	.st17{fill:#67A65F;}
	.st18{fill:#F1F5DA;}
	.st19{fill:#50984E;}
	.st20{fill:#5FA255;}
	.st21{fill:#C5D9B2;}
	.st22{fill:#91B974;}
	.st23{fill:#D8E5C0;}
	.st24{fill:#7DAF69;}
	.st25{fill:#589D52;}
	.st26{fill:#9FC081;}
	.st27{fill:#60A156;}
	.st28{fill:#4E924B;}
	.st29{fill:#BCD3A8;}
	.st30{fill:#62A359;}
	.st31{fill:#9EC18E;}
	.st32{fill:#73AA62;}
	.st33{fill:#D9E5C1;}
	.st34{fill:#A3C491;}
	.st35{fill:#65A25D;}
	.st36{fill:#62A352;}
	.st37{fill:#82B16D;}
	.st38{fill:#8EB772;}
	.st39{fill:#99BD7C;}
	.st40{fill:#C5DAA8;}
	.st41{fill:#86B26A;}
	.st42{fill:#CADDB8;}
	.st43{fill:#9EC07F;}
	.st44{fill:#AFCA97;}
	.st45{fill:#76AC61;}
</style>
<g>
	<path class="st0" d="M119.84,47.15c2.16,28.87-24.11,54.19-44.2,57.36c-4.6,0.73-9.15,1.6-13.58,3.04c-1.92,0.62-3.22-1.06-5-1.3
		c-6.75-0.92-13.67-1.55-20.13-3.56C16.86,96.43,3.56,82.74,1.59,61.21c-0.3-3.25-0.07-6.41-1.45-9.68c-0.64-1.5,1.04-4.61,2.5-6.65
		c0.48-0.66,1.25-1.12,1.31-2.08c0.54-9,5.3-16.06,10.57-22.88c1.27-1.64,2.7-3.13,4.8-3.59c1.35-0.29,2-1.21,2.6-2.25
		c1.98-3.42,5.05-5.88,8.74-6.4c5.62-0.78,10.13-3.91,15.19-5.83C52.28-0.6,58.71-1.08,64.62,3.3c1.1,0.81,1.81,0.58,2.88,0.21
		c5.34-1.87,10.71-2.69,16.04,0.08c0.69,0.36,1.34,0.4,2.07,0.2c4.92-1.33,9.39,0.08,12.34,3.81c3.76,4.74,8.41,8.46,12.68,12.59
		c6.9,6.67,8.8,15.04,9.2,24.08C119.88,45.23,119.84,46.19,119.84,47.15z"/>
	<path class="st1" d="M114.8,47.37c-0.02,24.57-15.49,45.55-38.16,52.17c-10.87,3.17-21.44,1.72-32.37-0.06
		c-11.68-1.9-21.05-7.26-28.66-15.6c-6.07-6.65-9.16-15.06-9.35-24.25c-0.04-2.03,0.01-4.05-0.49-6.02
		c-0.74-2.9-0.67-5.49,2.29-7.19c0.66-0.38,1.16-0.87,0.88-1.73c-1.59-4.97,1.75-8.61,3.42-12.69c1.31-3.19,2.66-6.62,5.52-8.56
		c4.37-2.95,7.91-6.73,11.73-10.24c0.67-0.62,1.71-1.19,2.58-1.18C38.5,12.1,43.15,7.95,48.53,5.7c4.87-2.04,11.5-0.69,14.65,3.15
		c0.89,1.08,1.41,1.08,2.63,0.5c5.55-2.63,11.2-4.42,17.1-0.85c0.87,0.53,1.87,0.14,2.81-0.02c5.07-0.87,8.71,0.59,11.21,5.04
		c1.06,1.88,2.41,3.2,4.08,4.35c3.9,2.69,7.27,6.08,9.84,9.9c3.08,4.57,4.01,10.08,3.95,15.65C114.79,44.73,114.8,46.05,114.8,47.37
		z"/>
	<path class="st2" d="M10.48,53.75c-0.02-0.48-0.03-0.96-0.05-1.44c0.33-0.22,0.67-0.24,1.02-0.07c2.12,2.04,2.82,4.6,2.79,7.46
		C14.13,69.97,18.85,77.72,27,83.56c2.28,1.64,4.2,3.98,7.26,4.33c3.52,1.7,7.06,3.33,10.92,4.1c2.11,0.75,4.19,0.25,6.28-0.09
		c3.78,0.36,7.16,2.85,11.51,1.93c-3.74-2.47-3.37-5.85-2.2-9.36c0.97-2.91,0.25-5.96,0.78-8.9c0.54-2.58,3.62-2.63,4.67-4.7
		c-0.12-3.47,1.51-5.93,4.5-7.5c3.85-2.03,5.56-5.01,4.58-9.4c-0.26-1.16-0.31-2.38,0.72-3.33c2.04-0.39,2.22,1.27,2.78,2.52
		c0.47,2.86,0.69,5.7-0.68,8.42c-1.42,1.92-2.91,3.79-4.98,5.07c-1.2,0.75-1.97,1.77-1.94,3.21c0.05,2.81-1.07,4.81-3.72,5.92
		c-1.33,0.56-1.94,1.69-2.08,3.11c-0.17,1.79-0.61,3.53-0.94,5.29c-1.05,5.72,1.88,8.8,7.72,8.09c2.51-0.3,4.75-1.61,7.26-1.91
		c0.59-0.05,1.19-0.04,1.75,0.14c0.54,0.18,1.21,0.34,1.2,1.06c-0.01,0.73-0.69,0.84-1.22,1.06c-3.56,1.47-7.2,2.69-10.97,3.52
		c-10.94,3.08-21.37-1.04-31.98-2.38c-3.84-0.48-6.82-3.28-10.09-5.24c-8.48-5.06-14.31-12.09-16.6-21.81
		c-0.27-1.15-0.28-2.36-0.41-3.54C10.26,60.07,11.42,56.84,10.48,53.75z"/>
	<path class="st3" d="M41.33,15.49c4.02-4.28,8.95-6.15,14.82-5.69c1.33,0.1,2.2,0.65,3.01,1.63c2.78,3.36,4.54,3.78,8.54,1.99
		c4.36-1.96,8.63-3.37,13.38-0.89c1.45,0.76,3.35,1.14,5.23,0.46c3.18-1.15,5.55,0.42,6.79,3.09c1.1,2.36,2.87,3.72,4.86,5.06
		c3.62,2.44,6.88,5.49,9.15,9.04c2.74,4.28,3.79,9.49,3.26,14.63c-0.39,3.71-0.3,7.4-0.58,11.1c-0.69,0.59-1.43,0.65-2.21,0.2
		c-1.29-1.72-0.57-3.32,0.31-4.9c0.65-4.25-0.75-8.16-1.54-12.26c-1.51-7.86-6.79-12.29-12.67-16.5c-0.68-0.49-1.38-1.02-1.81-1.73
		c-2.1-3.51-5.25-4.67-9.16-4.21c-2.21-0.03-4.08-1.28-6.16-1.77c-3.07-0.73-5.07,0.2-5.74,2.6c-1.07,0.72-2.37,0.65-3.54,1.02
		c-1.84,0.11-3.6-0.05-5.03-1.38c-0.49-0.21,0.89-1.1-0.41-1.07c-1,0.03-1.94-0.43-2.58-1.11c-4.64-4.87-9.16-2.82-13.73,0.09
		c-1.09,0.7-2.12,1.62-3.54,1.56C41.41,16.42,41.15,16.07,41.33,15.49z"/>
	<path class="st4" d="M107.64,55.9c0.71,0,1.43,0,2.14,0c0.83,8.38-4.05,14.58-8.38,20.78C95,85.86,86.33,92.27,75.5,95.56
		c-1.76,0.54-3.48,0.83-5.29,0.58c-0.3-0.78-0.34-1.45,0.79-1.35c4.01,0.35,7.16-2.17,10.96-3.06c-0.87-0.84-1.73-0.41-2.48-0.59
		c0.27-1.89,2.11-1.24,3.11-1.95c1.17-0.54,2.23-1.25,3.15-2.16c3.99-4.32,8-8.63,11.36-13.48c1.32-1.5,2.22-3.33,3.68-4.73
		c2.5-2.63,3.94-5.83,5.03-9.23C106.23,58.27,106.28,56.76,107.64,55.9z"/>
	<path class="st5" d="M41.33,15.49c3.32,0.24,5.27-2.61,8.04-3.71c3.29-1.31,5.77-1.58,8.47,0.98c1.34,1.27,3.12,2.12,4.85,2.97
		c1,0.49-0.48,0.41-0.67,0.74c-2.22,1.02-3.52-0.63-5.01-1.72c-0.73-0.68-1.53-1.25-2.51-1.53c-3.47-0.42-6.23,1.35-8.86,3.13
		c-3.07,2.08-6.26,3.41-10.01,3.07c-1.92-0.11-2.88,1.8-4.56,2.2c-0.96-0.2-1.69,0.99-2.71,0.46c1.78-4.61,4.33-6.43,9.07-6.49
		C38.71,15.57,40.02,15.52,41.33,15.49z"/>
	<path class="st6" d="M28.34,22.08c0.86,0.1,1.19-1.65,2.3-0.67c0.34,1.33-0.66,2.16-1.18,3.18c-0.75,0.95-1.57,1.84-2.7,2.35
		c-5.11,0.89-6.75,4.87-7.95,9.12c-0.49,1.72-0.79,3.3-2.23,4.69c-1.88,1.81-0.31,4.65-1.33,6.85c-0.19,0.32-0.47,0.51-0.84,0.58
		c-0.15-0.09-0.31-0.18-0.46-0.28c-0.21-2-0.49-4-0.6-6.01c-0.09-1.65,0.2-2.86,1.77-4.24c1.51-1.32,1.78-4.09,2.54-6.24
		c1.29-3.66,3.3-6.57,7.46-7.2C26.59,24,27.15,22.61,28.34,22.08z"/>
	<path class="st6" d="M11.13,52.3c-0.23,0-0.46,0-0.69,0.01c-1.53-1.7,0.02-2.59,1.12-2.55c1.61,0.06,1.79-1,2.39-1.86
		c0,0,0.24,0.2,0.24,0.2C15.54,51.24,13.4,51.82,11.13,52.3z"/>
	<path class="st6" d="M10.48,53.75c1.48,3.05,0.36,6.28,0.64,9.42C9.66,60.11,10.81,56.88,10.48,53.75z"/>
	<path class="st7" d="M29.11,24.14c-0.11-1.26,1.24-1.69,1.53-2.73c1.42-0.99,2.36-2.7,4.31-2.9c1.6,0.7,3.3,0.35,4.92,0.28
		c3.9-0.17,6.82,2.68,6.57,6.63c-0.24,3.84,2.74,6.11,4.62,8.81c0.77,1.11,2.25-0.65,3.3-1.32c1.24-0.79,1.55-2.4,2.73-3.27
		c1.42-0.64,2.79-1.42,4.4-1.5c2.33,1.33,1.18,2.63-0.08,3.86c-2.61,2.55-2.67,2.65,0.23,4.85c2.73,2.08,5.29,4.45,8.5,5.81
		c3.15,1.33,5.34,3.43,6.22,6.8c0.09,0.54-0.01,1.03-0.44,1.41c1.83,6.8-0.22,11.75-6.8,14.76c-2.65,1.22-1.45,3.98-1.86,6.08
		c-2.38-0.79-2.1-2.99-2.08-4.67c0.03-2.57-1.2-3.79-3.25-4.97c-3.06-1.76-6.33-3.14-9.28-5.1c0.53-3.36,4.13-3.17,5.57-4.96
		c-2.61,1.11-5.11,3.55-8.77,2.82c-1.3-0.26-2.42,0.82-3.51,1.53c-3.39,1.36-4.92,4.7-7.41,7.02c-0.92,0.86-1.44,2.25-3.01,2.22
		c-2.06-1.27-0.7-2.73-0.05-3.93c1.25-2.31,2.11-4.72,2.6-7.28c1.47-4.19,4.45-7.45,7.37-11.63c-3.07,1.99-5.47,1.09-7.86,0.09
		c-0.29-0.52-0.21-1.11-0.31-2.07c-1.67,2.36-3.12,4.48-4.4,6.72c-0.56,0.98-1.05,2.51-2.47,2.09c-1.75-0.52-0.93-2.13-0.82-3.34
		c0.05-0.59,0.13-1.17,0.2-1.76c0.81-3.9,3.66-6.65,5.63-9.89c1.69-2.78,3.34-5.5,2.47-8.93c-1.69,0.41-2.35,1.89-3.3,3.05
		c-0.83,1.01-1.61,2.06-3.01,2.32c-0.88,0-1.8,0.1-2.26-0.93C28.94,28.13,28.28,26.16,29.11,24.14z"/>
	<path class="st8" d="M52.93,56.62c4.02,1.08,7.24,3.76,10.93,5.48c1.66,0.77,2.61,1.84,2.16,3.9c-0.44,2.02,0.38,3.9,1.25,5.71
		c-1.21,1.85-3.98,1.54-5.04,3.61c-1.45,4.26-4.01,8.15-4.24,12.83c-0.05,0.98-0.58,2.06-1.79,1.77c-4.77-1.13-9.52-2.37-12.82-6.44
		c-0.31-0.38-0.25-0.9-0.17-1.38c5.29-2.91,10.87-5.26,15.86-7.9c-3.25,1.22-6.64,3.11-10.11,4.8c-0.97,0.47-1.9,1.02-2.97,1.23
		c-1.07,0.22-2.42,0.47-2.94-0.59c-0.68-1.37,0.94-1.6,1.69-2.22c0.79-0.65,2.1-0.58,2.41-1.82c-0.34-0.43-0.87-0.71-0.94-1.3
		c0.02-0.1,0.03-0.22,0.06-0.33c0.03-0.11,0.08-0.21,0.12-0.32c-1.69,0.43-3.24,1.24-4.91,1.76c-2.27,0.7-3.73,0.32-3.84-2.38
		c-0.28-5.44,2.84-9.02,6.7-12.16c1.19-0.97,2.4-1.9,3.7-2.73C49.68,57.62,50.83,55.58,52.93,56.62z"/>
	<path class="st9" d="M29.92,30.73c0.48-0.1,0.95-0.83,1.44-0.02c0.97,1.32-0.06,2.43-0.38,3.62c-0.6,2.23-2.01,4.3-1.29,6.77
		c0.46,1.06,0.06,2.35,0.93,3.29c-0.19,1.5-0.37,2.99-0.69,5.53c3.48-3.85,4.56-8.38,8.2-10.89c0.95,1.52-0.4,2.66-0.26,3.94
		c0.46,1.32-0.24,2.37-0.95,3.3c-2.44,3.22-3.73,6.97-4.77,10.77c-1.23,4.53,0.31,8.97,1.05,13.42c-0.34,2.33,0.67,4.07,2.41,5.49
		c2.7,5.26,6.61,9.61,10.45,14.03c0.61,0.71,1.52,1.47,1.1,2.46c-0.41,0.96-1.41,0.54-2.21,0.33c-3.9-0.73-7.68-1.75-10.83-4.34
		c-2.36-1.83-3.55-4.51-5.04-6.97c-2.81-2.97-3.36-6.83-4.14-10.59c-0.21-5.3-3.53-9.43-5.32-14.13c0.97-1.12,2.2-1.7,3.68-1.76
		c0.55,0.24,0.84,0.77,1.24,1.18c0.38-0.89-0.02-1.81,0.06-2.71c0-2.98-0.31-5.86-1.01-8.8c-0.77-3.21-1.57-6.77,0.88-9.85
		c1.83,0.98,3.01,0.58,3.62-1.54C28.38,32.26,28.88,31.25,29.92,30.73z"/>
	<path class="st10" d="M83.27,89.83c-0.99,1.23-2.79,0.12-3.8,1.31c-3,0.65-5.77,2.53-8.96,2.09c-6.89-0.95-8.85-3.12-7.06-8.86
		c0.39-1.24,0.83-2.58,0.74-3.84c-0.22-3.3,0.87-5.34,4.24-6.32c1.9-0.55,1.95-2.58,1.73-4.28c-0.27-2.09,0.41-3.44,2.46-4.12
		c2.15-0.72,2.76-3.25,4.79-4.15c2-0.51,3.8-0.73,3.5,2.29c-0.17,0.85-0.52,1.63-0.98,2.37c-2.03,2.2-3.6,4.85-5.89,6.76
		c-3.23,2.68-3.9,6.06-3.68,9.97c0.13,2.41,1.13,3.08,3.17,2.08c4.17-2.04,8.67-3.75,10.16-8.88c0.13-0.46,0.51-0.8,0.93-1.07
		c2.55,0.42,3.01,2.28,2.46,4.27C86.09,82.99,85.28,86.64,83.27,89.83z"/>
	<path class="st11" d="M29.79,81.15c1.44,2.42,2.89,4.84,4.33,7.27c-0.56,0.12-1.32,0.53-1.66,0.31
		c-8.23-5.23-15.41-11.39-18.31-21.22c-0.47-1.61-1.03-3.23-0.84-4.92c0.41-3.68-0.54-7.05-2.19-10.28c0.77-1.58,3.91-1.43,3.06-4.2
		c0.17-0.09,0.36-0.15,0.55-0.17c1.51,3.02,2.5,6.34,5.13,8.7c2.9,4.38,5.95,8.69,5.77,14.31c0.42,0.95,0.41,1.7-0.91,1.61
		c-1.03-0.08-1.95-0.95-3.75-0.28C23.56,75.85,26.85,78.35,29.79,81.15z"/>
	<path class="st12" d="M44.95,92.76c1.49-0.09,2.27-0.19,0.79-1.84c-4.12-4.59-8.3-9.17-10.94-14.86c-0.64-2.08-1.26-4.17-0.56-6.36
		c0.81-1.66,1.47-0.87,2.15,0.13c0.75,1.09,0.44,2.84,2.1,3.35c-0.01,1.44,0.27,2.34,2.08,1.59c2.48-1.02,5.03-1.87,7.65-2.82
		c0.07,1.55-1.6,1.54-1.81,2.62c-0.82,1.94-3.05,1.62-4.23,2.71c1.8-0.66,3.54-2,5.74-1.92c1.28-0.48,1.86-0.05,0.66,0.87
		c-1.56,1.2-3.45,1.96-5.05,3.26c6.6-0.8,11.7-5.73,18.35-6.44c-5.91,3.37-11.45,7.45-18.34,8.77c-1.12,0.39-0.67,0.99-0.2,1.57
		c1.88,2.34,4.05,4.36,6.45,6.18c0.9,0.68,2.62,1.12,1.67,2.94C49.33,93.68,47.16,93.65,44.95,92.76z"/>
	<path class="st13" d="M51.46,92.51c-3.19-3.35-7.15-5.95-9.68-9.95c-0.3-0.47-0.66-0.91-1.02-1.4c1.44-1.19,1.88,0.57,2.79,0.66
		c1.29,2.59,10.32,7.77,12.81,7.42c1.11-0.15,0.89-0.93,0.9-1.57c0.12-4.74,2.04-8.74,4.97-12.35c-0.03,3.91,0.16,7.79-1.17,11.62
		c-1.33,3.83,1.34,5.83,5.21,7.36C60.37,96.14,55.94,94.14,51.46,92.51z"/>
	<path class="st14" d="M80.3,63.84c-0.12-1.14,0.16-2.76-1.88-1.43c-0.83,0.54-0.94-0.14-1.01-0.75c1.1-2.83,0.89-5.75,0.59-8.67
		c-0.98-2.96-0.1-5.63,1.41-8.14c1.52-2.53,2.09-5.2,2.11-8.15c0.02-3.09-0.83-5.5-3.4-7.39c-2.6-1.91-3.96-4.43-2.49-7.75
		c0.26-0.25,0.77-0.5,0.89-0.23c1.99,4.52,6.58,7.06,8.67,11.51c0.88,1.87,1.16,3.85,1.57,5.82c-0.11,3.56-2.44,6.42-3.09,9.81
		c-1.27,2.85-0.63,5.9-1,8.84C82.4,59.62,83.19,62.44,80.3,63.84z"/>
	<path class="st15" d="M76.1,21.29c-0.53,3.49,0.41,6.14,3.59,8.21c3.49,2.27,4.03,9.66,1.34,14.47c-1.59,2.84-3.17,5.63-3.03,9.02
		c-0.82-0.59-0.51-2.28-2.08-2.13c-0.03-0.5-0.06-1-0.1-1.5c-0.78-1.84,0.55-3.16,1.18-4.65c0.78-1.85,2.03-3.51,2.28-5.58
		c0.06-0.87,0.08-1.73,0.04-2.6c-0.02-2.3-0.99-4.06-2.84-5.43c-1.78-1.32-3.1-3.19-3.26-5.32c-0.24-3.24-1.67-5.28-4.59-6.49
		c-0.65-0.27-1.16-0.82-1.31-1.58c1.02-1.16,2.39-0.51,3.59-0.7C74.29,16.89,75.8,18.13,76.1,21.29z"/>
	<path class="st16" d="M76.1,21.29c-1.03-2.26-2.87-3.55-5.17-4.27c-0.59-0.7-3.11-1-0.35-2.34c2.6-1.26,5.09-1.76,7.82-0.37
		c1.25,0.64,2.67,0.93,4.02,1.38c2.92-0.17,4.68,1.14,6.34,3.65c2.85,4.31,6.77,7.86,9.6,12.25c0.46,1.84,1.06,3.66,1.33,5.54
		c0.15,1.04,0.36,2.45-0.88,2.76c-1.25,0.32-1.61-1.08-2.06-2.01c-0.26-0.53-0.47-1.09-0.82-1.56c-3.28,0.85-6.54,1.79-9.89,2.3
		c-1.11-5.31-3.59-9.76-8.16-12.86C76.22,24.65,77.25,22.56,76.1,21.29z"/>
	<path class="st17" d="M97.62,31.41c-3.85-4.8-8.45-9.02-11.34-14.59c-0.77-1.47-2.8,0.07-3.87-1.13c4.26-0.66,7.5,0.37,10.07,4.32
		c1.47,2.26,4.56,3.41,6.59,5.39c3.43,3.35,6.58,6.52,7.68,11.95c0.96,4.72,2.53,9.28,2.31,14.2c-1.03,0.22-2.17,0.26-2.15,1.79
		c0.01,0.84-0.12,1.69-1.11,2.01c-2,3.88-3.96,7.77-4.05,12.27c0.02,0.71-0.13,1.37-0.6,1.93c-1.39,1.31-1.79,3.4-3.54,4.42
		c-0.7-0.54-0.86-1.31-0.93-2.12c0.26-3.41,1.89-6.4,3.05-9.52c2.03-5.44,5-10.68,2.71-16.85c-0.4-1.06-0.1-2.37-0.08-3.57
		c0.45-3.03-0.43-5.57-2.76-7.61C98.71,33.54,98.19,32.45,97.62,31.41z"/>
	<path class="st18" d="M67.34,17.72c1.28,0.59,2.57,1.16,3.83,1.79c1.96,0.97,3.21,2.37,2.92,4.77c-0.34,2.8,1.01,4.88,3.25,6.27
		c2.27,1.41,2.95,3.43,2.92,5.88c-0.78,0.37-1.32-0.09-1.85-0.55c-2.8-3-6.75-5.1-7.44-9.76c-0.18-1.19-1.14-1.37-2.23-0.95
		c-1.22,0.46-2.41,1.1-3.79,0.83c-0.76-0.33-0.97-0.93-0.83-1.7c0.77-1.36,1.85-2.24,4.13-2.25c-3.68-0.53-6.62-1.4-9.47-2.55
		c-0.74-1.27-1.06-2.75-2-3.95c-0.42-0.54-0.86-1.52,0.62-1.48c1.53,0.82,2.7,2.32,4.62,2.39C63.66,17.4,65.51,17.52,67.34,17.72z"
		/>
	<path class="st19" d="M105.58,55.21c0.75-0.57,0.62-1.42,0.69-2.21c0.16-1.97,1.17-2.32,2.8-1.44c-1.51,1.11-1.53,2.7-1.43,4.34
		c-1.05,5.08-2.58,9.94-6.48,13.66c-0.01-0.75-0.03-1.51-0.04-2.26C101.9,63.01,103.69,59.09,105.58,55.21z"/>
	<path class="st20" d="M83.27,89.83c0.28-3.37,1.7-6.42,2.75-9.57c0.68-2.04,0.63-3.69-1.37-4.89c-1.48-3.06,0.27-5.96,0.42-8.94
		c0.39-2.7,0.78-5.4,1.43-8.05c0.32-1.29,0.79-2.77,2.36-2.7c1.75,0.08,1.6,1.74,1.77,3c0.05,1.07,0.1,2.14,0.04,3.21
		c-0.04,4.06,0,8.12-0.01,12.18c-0.19,4.98-1.83,9.48-4.56,13.61C85.69,89.1,84.11,88.98,83.27,89.83z"/>
	<path class="st21" d="M86.1,87.69c1.03-4.38,3.4-8.39,3.63-12.99c0.4-0.54,0.21-1.28,0.59-1.83c0.39-0.59,0.96-0.89,1.62-1.06
		c1.86-0.36,3.74,0.91,5.6-0.05c0.03,0.74,0.05,1.49,0.08,2.23C94.54,79.19,89.96,83.14,86.1,87.69z"/>
	<path class="st22" d="M57.3,29.89c-0.49,1.07-0.74,2.4-1.53,3.15c-1.27,1.21-2.81,2.59-4.42,2.88c-2.08,0.38-1.55-2.37-2.67-3.45
		c-1.42-1.37-1.68-3.7-3.65-4.72c-0.45-0.23-0.72-0.83-0.31-1.2c2.98-2.7-0.58-4.34-1.19-6.32c-0.6-1.95-2.93-0.78-4.48-1.04
		c-1.36-0.23-2.88,0.5-4.08-0.68c4,0.49,7.28-1.03,10.6-3.16c2.83-1.81,5.73-4.47,9.7-2.82c-2.25,2.32-0.23,4.08,0.79,5.96
		c-1.63,3.11-0.8,5.7,1.69,7.93c0.54,0.48,1.05,0.98,1.2,1.73C58.92,29.23,57.98,29.44,57.3,29.89z"/>
	<path class="st23" d="M55.77,18.53c-3.75-3.42-3.82-4.27-0.52-5.99c0.71,0.51,1.42,1.03,2.13,1.54c-0.93,2.04,3.19,2.73,1.35,5.02
		C57.52,20.07,56.62,19.44,55.77,18.53z"/>
	<path class="st24" d="M19.87,56.63c-4.13-1.47-4.85-4.95-5.13-8.7c0.08-1.66,0.11-3.33,0.24-4.99c0.11-1.35-0.75-3.17,1.84-3.37
		c0.81-0.06,0.56-1.43,0.71-2.22c0.59-2.94,1.71-5.68,3.4-8.15c1.42-2.08,3.26-3.45,5.99-2.9c1.95,2.43,1.44,5.69-1.37,8.73
		c-3.13,2.65-1.81,6.39-1.05,9.03c1.02,3.54,0.87,6.92,0.99,10.4c-2.24-1.55-0.3-3.57-0.97-5.05c-0.29,1.71,0.45,4.06-1.15,5.82
		C22.23,55.77,21.36,56.98,19.87,56.63z"/>
	<path class="st25" d="M25.57,35.04c1-2.83,2.16-5.63,1.37-8.73c0.73-0.72,1.45-1.45,2.18-2.17c0.81,2.13,0.8,4.37,0.81,6.6
		c-0.66,1.61-1.34,3.21-1.99,4.83c-0.33,0.83-0.32,2.2-1.46,2.06C24.95,37.43,25.79,35.95,25.57,35.04z"/>
	<path class="st26" d="M65.26,25.77c0.52-0.26,1.02-0.58,1.57-0.78c4.34-1.61,4.44-1.63,5.49,2.74c0.59,2.45,2.51,3.63,4.12,5.15
		c0.92,0.86,2.38,1.23,2.53,2.78c0.92,1.85,0.55,3.36-0.6,3.99c0.14-0.11,0.82-0.87,1.93-0.31c-0.7,3.69-3.49,6.46-4.47,10.02
		c-2.8-6.23-10.04-6.94-14.24-11.43c-0.4-0.42-0.95-0.71-1.41-1.07c-2.32-1.8-3.54-3.51,0.17-5.18c1.26-0.57,2.79-1.32,1.23-3.14
		C61.79,26.28,63.75,26.32,65.26,25.77z"/>
	<path class="st27" d="M32.75,71.11c-3.23-7.98-2.54-15.65,1.87-23c1.04-1.74,2.16-3.43,3.25-5.14c2.94-0.37,6.06,0.77,9-1.24
		c-2.94,4.34-5.83,8.41-8.33,12.74c0.19,1.32-0.86,2.15-1.28,3.22c-1.39,3.59-3.57,6.93-3.06,11.08
		C34.31,69.69,34.41,71.07,32.75,71.11z"/>
	<path class="st28" d="M38.5,73.18c-0.56,0.06-0.96,1.86-1.67,0.15c-0.61-1.49-1.19-2.99-1.78-4.49c-1.29-1.5-0.53-2.57,0.73-3.54
		c2.08-2.46,4.16-4.91,6.23-7.37c0.97-1.14,2.2-1.81,3.67-2.07c2.98-0.29,3.43,0.17,2.91,2.91c-2.6,1.87-5.11,3.84-7.28,6.22
		C39.19,67.33,38.46,70.12,38.5,73.18z"/>
	<path class="st29" d="M30.62,44.39c-1.31-0.54-1.49-1.64-1.44-2.87c-0.72-2.65,0.66-4.88,1.65-7.07c1.72-3.8,4.04-7.22,7.69-9.51
		c0.41-0.01,1.25-0.48,1.15-0.01c-0.76,3.59-1.3,7.18-3.62,10.35C33.99,38.11,31.51,40.81,30.62,44.39z"/>
	<path class="st30" d="M48.6,58.78c0.22-2.15-1.28-2.6-2.91-2.91c0.5-1.08,1.64-1.95,2.5-1.79c4.79,0.86,8.1-2.63,12.18-3.8
		c0.18-0.05,0.43,0.13,0.98,0.3c-2.33,2.87-6.04,3.59-8.43,6.05C51.2,56.77,50.2,58.37,48.6,58.78z"/>
	<path class="st31" d="M35.79,65.31c-0.28,1.17-1.1,2.23-0.73,3.54c-0.08,2.41-0.17,4.81-0.26,7.22c-2.03-1.09-3.48-2.43-2.05-4.95
		c0.63-0.49,0.77-1.2,0.69-1.92c-0.62-5.71,2.37-10.17,5.09-14.72c0.4,2.61-0.99,4.68-1.94,6.92
		C36.09,62.58,34.15,63.63,35.79,65.31z"/>
	<path class="st32" d="M38.53,24.94c-4.07,4.99-8.41,9.83-9.35,16.59c-1.78-2.08-0.04-3.96,0.42-5.87c0.41-1.69,1.16-3.3,1.76-4.95
		c1.47-0.83,2.2-2.35,3.32-3.47C35.68,26.23,36.12,23.73,38.53,24.94z"/>
	<path class="st33" d="M65.26,25.77c-1.23,0.93-2.46,1.85-3.68,2.78c-1.42,0.46-2.62,1.64-4.28,1.34c0.45-0.48,0.89-0.97,1.34-1.45
		c1.39-2.17,2.82-4.3,5.86-4.12C64.49,24.94,64.7,25.45,65.26,25.77z"/>
	<path class="st34" d="M47.92,75.36c-2.71,1.28-5.24,3.04-9.04,3.43c2.39-2.59,5.2-2.97,7.53-4.22
		C47.01,74.65,47.6,74.76,47.92,75.36z"/>
	<path class="st35" d="M29.79,81.15c-4.2-1.46-6.52-5.17-9.54-8.04c-0.62-0.59-0.08-1.32,0.27-1.95c0.48-0.86,1.22-0.28,1.81-0.41
		c1.17-0.27,2.13,2.44,3.31,0.19C27.2,74.27,27.02,78.31,29.79,81.15z"/>
	<path class="st36" d="M23.38,55.24c0.16-2.22,1.2-4.28,0.91-6.58c1.17,1.86-0.2,4.07,1.21,5.81c0,1.26,0,2.52,0,4.15
		C23.91,57.71,23.78,56.39,23.38,55.24z"/>
	<path class="st37" d="M86.01,66.69c-0.45,2.89-0.91,5.78-1.36,8.68c-1.1,7.37-7.36,8.93-12.84,11.3c-1.32,0.57-2.29,0.03-2.35-1.65
		c-0.16-4.81-0.48-9.57,4.23-12.87c2.33-1.63,3.29-4.7,5.87-6.17C83.35,63.48,83.35,63.48,86.01,66.69z"/>
	<path class="st38" d="M86.01,66.69c-2.2-1.12-3.1-1.22-6.45-0.71c0.25-0.71,0.49-1.42,0.74-2.13c1.74-3.5,1.46-7.26,1.45-10.99
		c-0.01-1.78-0.09-3.56,1.37-4.92c1,0.06,1.79-0.32,2.48-1.05c0.77-0.8,1.59-1.01,2.21,0.22c0.55,2.67,1.9,5.02,2.88,7.52
		c0.42,1.08,1.11,2.09,0.73,3.34c-0.39,0.66-0.9,1.09-1.73,0.84c-0.37-0.86,0.58-2.54-1.1-2.51c-1.08,0.02-0.98,1.4-1.13,2.34
		C87.02,61.34,86.5,64.01,86.01,66.69z"/>
	<path class="st39" d="M87.48,47.3c-1.04-1.11-1.17-0.17-1.51,0.61c-0.89,2.02-1.88,1.64-2.84,0.03c0.01-3.4,2.76-5.94,2.92-9.29
		c1.33-1.05,2.84-1.76,4.48-2.06c1.84-0.33,4.1,0.45,4.69-2.49c0.1-0.5,0.77,0.4,0.93,0.92c-0.08,2.01,2.07,3.73,0.79,5.9
		c-1.02,0.41-1.99,0.07-2.95-0.17c-1.09,2.64,0.31,5.12,0.6,7.63c0.45,3.81,0.14,7.67,0.89,11.45c0.18,0.89,0.09,2.12-1,2.44
		c-1.17,0.34-1.78-0.73-1.97-1.63C91.52,55.92,89.06,51.78,87.48,47.3z"/>
	<path class="st40" d="M80.31,39.34c-1.45,0.89-2.9,1.78-5.18,3.18c1.77-2.72,4.42-3.99,3.84-6.86c0.43,0.26,0.86,0.51,1.28,0.77
		C80.27,37.4,80.29,38.37,80.31,39.34z"/>
	<path class="st41" d="M96.8,40.86c0.57-2.04-1.9-3.74-0.66-5.85c1.47,1.05,1.17,3.06,2.68,4.7c0.6-3.17-1.39-5.62-1.2-8.3
		c3.29,2.61,6.56,5.22,5.68,10.15c-0.27,0.49-1.51-1.44-1.29,0.63c0.35,3.34,0.29,6.71-0.66,9.98c-0.3,1.04-0.61,2.31-1.94,2.22
		c-1.2-0.08-1.34-1.4-1.24-2.26C98.62,48.25,96.74,44.68,96.8,40.86z"/>
	<path class="st42" d="M96.8,40.86c2.31,4.04,2.32,8.55,2.57,13.06c2.41-5.07,1.89-10.37,1.32-15.81c2.05,0.59,1.53,2.58,2.61,3.46
		c0.21,2.82-0.3,5.73,1.24,8.37c0.76,1.31-0.09,2.55-0.5,3.75c-2.05,6.06-4.84,11.86-6.5,18.07c-0.8,0.88-1.05,2.93-3.02,1.15
		c-0.58-0.52-1.8-0.32-2.73-0.44c-0.94-1.71-0.23-3.12,0.82-4.47c3.91-1.8,3.16-5.55,3.66-8.78c0.87-6.27,0.58-12.37-2.56-18.06
		c-0.08-0.41,0.02-0.77,0.29-1.08C95.04,39.97,95.97,40.25,96.8,40.86z"/>
	<path class="st42" d="M105.58,55.21c-0.91,4.25-2.86,8.11-4.46,12.1c-0.63-0.36-0.71-0.95-0.5-1.54c1.33-3.69,2.57-7.41,4.1-11.02
		C105.23,53.55,105.33,54.93,105.58,55.21z"/>
	<path class="st43" d="M64.49,24.32c-2.29,0.9-3.79,2.91-5.86,4.12c-1.72-1.72-3.66-3.12-4.34-5.82c-0.51-2.02-0.07-3.11,1.47-4.1
		c0.99,0.19,1.97,0.38,2.96,0.57c3.19,0.75,6.38,1.5,10.17,2.38C67.05,22.67,65.77,23.5,64.49,24.32z"/>
	<path class="st44" d="M93.24,68.15c-1.04,1.25-0.92,2.89-1.45,4.31c-0.46,0.25-0.93,0.49-1.39,0.74c-1.03-3.8,0.24-7.75-0.7-11.56
		c0-0.94,0-1.89,0-2.83c0.46-0.24,0.91-0.48,1.37-0.72C92.83,61.22,94.77,64.32,93.24,68.15z"/>
	<path class="st38" d="M89.7,61.65c1.4,3.78,0.3,7.72,0.7,11.56c-0.22,0.5-0.45,0.99-0.67,1.49C89.72,70.34,89.71,65.99,89.7,61.65z
		"/>
	<path class="st45" d="M93.24,68.15c-0.03-3.5-1.5-6.7-2.17-10.06c-1.14-2.78-2.31-5.55-3.41-8.36c-0.3-0.76-1.33-1.54-0.18-2.44
		c3.3,4.3,4.44,9.58,7,14.43c-0.18-3.86-0.18-7.74-0.59-11.57c-0.42-3.85-1.26-7.66-1.92-11.54c1.35-0.41,1.14,1.31,2.04,1.46
		c-0.01,0.21,0.01,0.43,0.04,0.64c2.38,6.06,4.07,12.23,2.85,18.83c-0.27,3.11,0.88,6.68-2.78,8.7
		C93.91,68.36,93.54,68.19,93.24,68.15z"/>
	<path class="st39" d="M96.9,59.55c0.48-5.43-0.75-10.59-2.48-15.67c-0.36-1.06-0.46-2.09-0.37-3.17
		C98.36,46.48,98.06,52.95,96.9,59.55z"/>
</g>
</svg>
