<?xml version="1.0" encoding="utf-8"?>
<!-- Generator: Adobe Illustrator 23.0.2, SVG Export Plug-In . SVG Version: 6.00 Build 0)  -->
<svg version="1.1" id="Camada_1" xmlns="http://www.w3.org/2000/svg" xmlns:xlink="http://www.w3.org/1999/xlink" x="0px" y="0px"
	 viewBox="0 0 214.68 87.24" style="enable-background:new 0 0 214.68 87.24;" xml:space="preserve">
<style type="text/css">
	.st0{fill:#010002;}
	.st1{fill:#3F6B7F;}
	.st2{fill:#816E57;}
	.st3{fill:#406D81;}
	.st4{fill:#83735D;}
	.st5{fill:#386578;}
	.st6{fill:#447286;}
	.st7{fill:#7D705C;}
	.st8{fill:#73634F;}
	.st9{fill:#887863;}
	.st10{fill:#685D4E;}
	.st11{fill:#AECCDF;}
	.st12{fill:#B0CEE0;}
	.st13{fill:#7496AC;}
	.st14{fill:#D5E8F1;}
	.st15{fill:#7597AC;}
	.st16{fill:#D7E8F0;}
	.st17{fill:#D7E9F1;}
	.st18{fill:#28576B;}
	.st19{fill:#9AACB3;}
	.st20{fill:#FEFEFE;}
	.st21{fill:#CFBBA2;}
	.st22{fill:#428099;}
	.st23{fill:#8DB5D0;}
	.st24{fill:#7F6C54;}
	.st25{fill:#8DB6D1;}
	.st26{fill:#FCFCFB;}
	.st27{fill:#DBEEF6;}
	.st28{fill:#CEBBA2;}
	.st29{fill:#CDE2EC;}
	.st30{fill:#6D5A42;}
	.st31{fill:#D6E8F1;}
	.st32{fill:#427F98;}
	.st33{fill:#8AB4CF;}
	.st34{fill:#8CB4CF;}
	.st35{fill:#CEBAA1;}
	.st36{fill:#CEBBA1;}
	.st37{fill:#CFBCA3;}
	.st38{fill:#9D8B74;}
	.st39{fill:#8A7862;}
	.st40{fill:#CFBBA3;}
	.st41{fill:#9E8D78;}
	.st42{fill:#958672;}
	.st43{fill:#94826B;}
	.st44{fill:#B5AA9C;}
	.st45{fill:#92836E;}
	.st46{fill:#E6CBBC;}
	.st47{fill:#D0BEA7;}
	.st48{fill:#8E7B63;}
	.st49{fill:#CAC2B8;}
	.st50{fill:#E3DFDA;}
	.st51{fill:#F0EAE2;}
	.st52{fill:#DDD5CB;}
	.st53{fill:#DFD9D3;}
	.st54{fill:#FBFBFB;}
	.st55{fill:#95826A;}
	.st56{fill:#FCFBF9;}
	.st57{fill:#FBFAF8;}
	.st58{fill:#DFDCD7;}
	.st59{fill:#F8F6F3;}
	.st60{fill:#817059;}
	.st61{fill:#8E9698;}
	.st62{fill:#8AB0C7;}
	.st63{fill:#8EB6D1;}
	.st64{fill:#F6F5F4;}
</style>
<g>
	<path class="st0" d="M113.28,81.37c-15.11,0.09-30.15-0.75-44.92-4.28c-1.26-0.3-2.6-0.74-3.63-1.48
		c-6.78-4.91-14.76-6.65-22.6-8.8c-7.86-2.16-15.56-4.73-22.77-8.62c-4.49-2.42-8.59-5.32-11.47-9.57
		C3.99,42.88,5.54,37,11.39,33.31c8.95-5.64,19.12-7.35,29.18-9.45c3.62-0.76,7.31-1.18,10.99-1.67c2.31-0.31,4.29-0.95,5.77-3
		c1.11-1.54,2.76-2.83,4.68-3.18c4.91-0.88,9.68-2.58,14.71-2.76c1.6-0.06,2.61-0.4,3.43-1.9c1.78-3.25,4.62-4.6,8.38-4.4
		c2.25,0.13,4.57,0,6.79-0.4c4.42-0.79,8.38,1.41,12.65,1.76c3.26,0.27,6.42,0.69,9.74,0.5c5.68-0.32,11.15,2.36,16.93,1.65
		c0.43-0.05,1.05,0.14,1.34,0.45c4.66,4.88,12.16,5.65,16.3,11.26c0.87,1.18,2.09,1.33,3.48,1.43c12.81,0.95,25.4,3.01,37.57,7.29
		c3.88,1.36,7.45,3.29,10.51,6.01c5.26,4.67,4.94,12.99-0.67,17.74c-7.75,6.57-16.73,10.59-26.71,12.37
		c-2.53,0.45-4.66,1.2-6.35,3.47c-4.13,5.54-10.75,6.46-16.79,8.02c-8.84,2.28-18.01,2.41-27.09,2.84
		C121.91,81.53,117.59,81.37,113.28,81.37z"/>
	<path class="st1" d="M154.91,28.26c13.13,0.59,25.92,2.9,38.22,7.59c2.21,0.84,4.3,2.17,6.21,3.57c5.01,3.68,5.13,8.21,0.25,12.16
		c-7.12,5.76-15.26,9.45-24.26,11.14c-3.8,0.71-7.49,1.39-10.27,4.5c-5.65,6.32-13.46,7.45-21.23,8.33
		c-13.71,1.56-27.5,2.02-41.28,1.4c-11.35-0.51-22.74-1.2-33.68-4.79c-2.87-0.94-5.61-2.09-7.76-4.32c-1.44-1.97-3.8-2.15-5.82-2.98
		c-1.13-0.46-2.64-0.71-1.65-2.56c1.74-0.85,3.4,0.15,5.1,0.24c1.43,0.08,2.75-0.05,4.06-0.61c2.42-0.59,4.78,0.1,7.15,0.38
		c11.45,1.35,22.93,1.3,34.42,0.74c4.9,0,9.81,0.3,14.67-0.51c19.18,0.69,37.89-2.68,56.53-6.65c6.22-1.33,12.22-3.38,18.2-5.51
		c0.9-0.32,1.79-0.7,2.6-1.21c3.13-1.98,3.28-4.4,0.1-6.39c-5.08-3.17-10.34-6.04-16.33-7.2c-1.24-0.52-2.57-0.74-3.86-1.06
		c-4.79-1.37-9.68-2.21-14.62-2.78c-1.6-0.63-3.36-0.33-4.99-0.84C155.57,30.34,154.65,29.68,154.91,28.26z"/>
	<path class="st2" d="M57.7,26.22c1.35-1.58,2.21-3.59,4.15-4.65c1.6-0.07,0.95,1.18,1.13,1.93c-0.59,1.84-2.22,3.13-2.61,5.08
		c0.18,2.59,0.64,5.22-2,7.04c-0.61,0.42-0.88,1.29-0.2,1.88c2.41,2.13,0.74,3.8-0.92,5.73c3.17,1.16,6.68,0.92,8.85,3.64
		c0.05,0.07,0.24,0.13,0.34,0.08c5.65-2.7,8.52,2.69,12.61,4.42c1.97,0.83,3.89,1.02,5.93,1.05c1.43,0.02,2.88-0.11,4.27,0.41
		c1.39,1.28,3.71,1.78,3.6,4.32c-0.31,0.24-0.65,0.39-1.03,0.46c-3.39-0.4-6.84-0.24-10.2-1.02c-0.81-0.18-1.77-0.16-2.38-0.66
		c-4.26-3.48-8.51-2.7-12.8-0.14c-1.95,0.62-3.8,0.67-5.4-0.85c-0.55-0.84-0.61-1.75-0.34-2.69c1.44-2.57,1.1-3.62-1.54-4.71
		c-1.11-0.46-2.31-0.43-3.46-0.64c-3.08-0.57-3.75-1.7-3-4.94c0.89-1.15,0.6-2.32,0.03-3.49c-0.47-1.88,0.08-3.46,1.39-4.82
		c1.49-1.37,2.86-2.79,2.66-5.05C56.82,27.71,57.04,26.88,57.7,26.22z"/>
	<path class="st3" d="M57.7,26.22c-0.07,0.93-0.14,1.86-0.21,2.78c-2.69,1.87-5.92,1.69-8.93,2.2C36.89,33.22,25.33,35.54,14.8,41.3
		c-2.57,0.99-2.12,2.66-1.14,4.6c0.36,0.72,2.14,1.72-0.04,2.48c-4.91-4.66-4.49-8.71,1.44-11.87c10.2-5.45,21.48-7.22,32.68-9.14
		C51.02,26.8,54.38,26.59,57.7,26.22z"/>
	<path class="st4" d="M74.95,18.09c0.83-0.07,1.68-0.29,2.49-0.18c3.16,0.42,5.51-0.25,6.59-3.7c0.63-2.01,2.33-2.92,4.52-2.69
		c2.63,0.27,5.48-1.07,7.75-0.35c4.89,1.55,10.31,0.81,14.82,3.5c1.44,0.86,2.18-0.01,3.21-0.33c3.02-0.84,6.04-0.79,9.07-0.02
		c2.5,0.91,5.08,0.8,7.68,0.73c1.26-0.03,2.62-0.37,3.69,0.69c0.27,0.7-0.15,1.08-0.67,1.4c-3.81,0.73-7.6,0.79-11.35-0.36
		c-2.73-0.84-5.42-0.93-8.05,0.36c-0.54,0.26-1.25,0.75-1.68,0.52c-3.95-2.15-8.58-1.02-12.58-2.63c-1.75-0.71-3.35-1.21-5.17-0.56
		c-0.23,0.08-0.45,0.17-0.68,0.22c-4.04,0.89-8.65,3.02-10.93,5.07c-2.58-0.08-5.18,0.23-7.74-0.32
		C75.34,19.18,74.82,18.87,74.95,18.09z"/>
	<path class="st5" d="M13.61,48.38c1.1-1.6-0.88-1.85-1.29-2.8c-0.87-2.04-0.48-3.54,1.49-4.34c0.92,7.12,7.3,8.52,12.19,11.12
		c5.68,3.02,12.12,4.26,18.27,6.14c3.24,0.96,6.58,1.45,9.89,2.09c2.55,0.9,5.47,0.49,7.8,2.16c-1.18,2.57-3,0.14-4.53,0.5
		c-1.22,0.29-2.66-0.76-4.11-0.55c-2.59,1.91-5.18,0.37-7.53-0.35c-5.7-1.74-11.37-3.6-17.02-5.5c-4.94-1.67-8.89-5.12-13.64-7.08
		C14.64,49.32,14.12,48.85,13.61,48.38z"/>
	<path class="st6" d="M15.15,49.79c1.75-1.47,3.17,0.46,3.92,1.06c7.04,5.64,15.79,6.89,23.9,9.78c3.38,1.21,6.75,2.17,10.37,2.08
		c1.68,2.2,4.76,1.6,6.67,3.33c0.53,0.49,2.12,0.35,1.09,1.8c-9.43-2.93-18.93-5.68-28.27-8.86C26.51,56.83,20.15,54.56,15.15,49.79
		z"/>
	<path class="st7" d="M154.91,28.26c0.45,0.63,0.91,1.26,1.36,1.89c1.03,1.21,2.51,0.71,3.79,0.99c3.38,1.1,3.39,5.11,5.98,6.9
		c0.44,0.8,0.89,1.6,0.32,2.52c-2.92,1.1-4.27-1.07-5.25-2.98c-1.16-2.26-2.34-3.59-5.1-4.18c-2.31-0.5-3.92-3.32-6.79-3.32
		c-2.43-1.76-3.93-4.37-5.95-6.51c-0.85-1.79-3.82-0.1-4.26-2.57c4.56-0.89,7.84,1.1,9.96,4.9
		C150.43,28.5,153.11,27.08,154.91,28.26z"/>
	<path class="st8" d="M74.95,18.09c0.24,0.23,0.47,0.46,0.71,0.69c0.27,0.31,0.31,0.65,0.14,1.02c-0.28,0.5-0.69,0.88-1.16,1.18
		c-3.7,2.1-7.84,1.78-11.86,2.15c-0.31-0.52-0.61-1.04-0.92-1.55c0.59-0.82,1.44-1.27,2.39-1.45
		C67.81,19.42,71.38,18.77,74.95,18.09z"/>
	<path class="st9" d="M139.02,20.99c1.2,1.8,4.35-0.84,5.01,2.19c-6.74,1.41-8.18,0.51-10.28-6.45c0.34-0.33,0.68-0.67,1.02-1
		C137.27,16.62,137.77,19.11,139.02,20.99z"/>
	<path class="st10" d="M123.41,14.32c-3.02,0.01-6.04,0.01-9.07,0.02C117.36,12.46,120.38,12.52,123.41,14.32z"/>
	<path class="st11" d="M180.08,34.6c6.05,0.96,11.25,3.96,16.45,6.93c1.75,1,3.79,2.09,3.65,4.49c-0.15,2.45-2.13,3.67-4.16,4.49
		c-8.46,3.43-17.2,5.87-26.18,7.61c-16.61,3.21-33.23,6.17-50.26,5.36c1.29-3.27,4.33-3.59,7.17-4.25c4.21-0.38,8.5-0.03,12.6-1.41
		c0.37-0.13,0.74-0.22,1.12-0.29c4.59-1.17,9.33-0.57,13.97-1.18c5.83-1.11,11.8-1.55,17.45-3.56c1.82-0.65,3.54-1.4,4.71-3.04
		c2.35-3.27,1.62-5.54-2.21-6.72c-0.68-0.21-1.4-0.29-2.1-0.44c-0.91-0.23-1.76-0.57-2.43-1.26c-0.21-0.32-0.31-0.67-0.3-1.04
		C172.15,36.71,176.32,36.03,180.08,34.6z"/>
	<path class="st12" d="M61.98,62.76c-2.77,0-5.42-0.72-8.08-1.39c3.95-1.66,8.13-2.61,12.23-3.82c3.36-0.7,6.66,0.24,9.96,0.49
		c11.9,0.93,23.78,1.05,35.67,0.06c0.84,0.01,1.66,0.1,2.41,0.52c1.17,1.75-0.56,1.93-1.42,2.37c-2.64,1.36-5.5,2.17-8.29,3.15
		c-12.88,0.65-25.75,0.7-38.55-1.27C64.62,62.69,63.29,62.8,61.98,62.76z"/>
	<path class="st13" d="M104.33,69.3c6.96-0.06,13.91-0.17,20.87-0.16c8.64,0.02,17.11-1.56,25.64-2.53c2.77-0.32,5.6-0.05,8.95-0.05
		c-3.18,2.64-6.36,4.42-9.9,4.67c-16.84,1.19-33.7,2.19-50.6,1.4C100.02,70.08,102.73,70.52,104.33,69.3z"/>
	<path class="st14" d="M104.45,64.15c2.81-2.79,6.96-2.87,10.11-4.97c4.47-2.61,8.99-4.95,14.46-4.02c1.27,0.22,2.63,0.01,3.62,1.11
		c-0.37,3.81-3.76,2.6-5.87,3.54c-2.61,0.8-5.07,1.9-7.19,3.67C114.57,64.27,109.51,64.15,104.45,64.15z"/>
	<path class="st15" d="M86.62,72.65c-5.87-1.26-11.75-2.52-17.62-3.78c3.08-1.46,6.22-1.4,9.21-1.01
		c5.58,0.72,11.16,0.48,16.74,0.62c0.83,0.02,1.68-0.04,2.37,0.56C93.86,70.56,90.08,71.13,86.62,72.65z"/>
	<path class="st11" d="M165.49,38.27c-1.3-0.77-2.59-1.41-2.68-3.31c-0.08-1.69-1.59-2.46-2.89-3.25c-0.1-1.41,0.83-0.96,1.56-0.86
		c5.18,0.31,10.23,1.25,15.15,2.91C173.36,36.37,169.91,38.52,165.49,38.27z"/>
	<path class="st16" d="M86.62,72.65c3.08-2.66,6.64-3.88,10.7-3.61c2.34,0.08,4.67,0.17,7.01,0.25c-0.82,2.4-3.69,1.72-5.03,3.33
		C95.07,73.25,90.85,72.88,86.62,72.65z"/>
	<path class="st17" d="M165.49,38.27c3.71-1.5,7.43-3.01,11.14-4.51c1.15,0.28,2.3,0.56,3.45,0.84c-2.98,2.65-7.17,3.13-10.2,5.68
		c-1.12,1.06-2.27,1.14-3.46,0.12C166.11,39.69,165.8,38.98,165.49,38.27z"/>
	<path class="st18" d="M87.24,73.68c3.54,0,7.08,0,10.61,0c0,0.11,0,0.23,0,0.34c-3.54,0-7.08,0-10.61,0
		C87.24,73.9,87.24,73.79,87.24,73.68z"/>
	<path class="st19" d="M161.48,30.85c-0.59,0.15-1.26,0.17-1.56,0.86c-1.34-0.24-3.08,0.49-3.65-1.56
		C157.99,30.49,159.85,29.83,161.48,30.85z"/>
	<path class="st20" d="M133.75,16.74c0.07,0.09,0.16,0.18,0.21,0.28c2.17,3.99,4.87,7.1,10.06,6.17c1.75,2.08,3.89,3.85,5.1,6.38
		c0.58,2.05,1.19,4.11-0.21,6.1c-1.53,0.79-3.1,1.19-5.08,0.13c0.65,1.08,1.36,1.31,1.85,1.78c0.68,0.5,1.29,1.09,1.92,1.65
		c0.68,0.48,1.5,0.71,2.14,1.24c0.97,0.81,1.58,1.8,1.19,3.1c-0.39,1.29-1.44,1.81-2.69,1.96c-2.04,0.25-4.01,0.1-5.74-1.18
		c-1.91-1.82-4.13,0.81-6.09-0.41c-1.35-0.49-2.84-0.35-4.17-0.93c-0.68-0.3-1.3-0.8-1.14-1.61c0.16-0.84,0.98-0.91,1.72-1.02
		c-1.09-0.41-1.97-0.22-2.24,0.97c-0.22,0.95,0.46,1.51,1.25,1.92c1.42,0.73,3.08,0.3,4.5,0.98c1.07,0.8,0.61,1.49-0.13,2.18
		c-1.14,0.6-2.31,0.23-3.47,0.07c-2.66-0.37-5.18-0.17-7.39,1.59c-0.74,0.58-1.61,1.01-2.52,1.27c-2.25,0.64-4.49,1.18-5.42-1.96
		c-0.21-0.71-0.96-1.01-1.58-1.34c-2.08,0.56-3.85-1.58-5.97-0.63c-3.36,1.46-7.07,1.94-10.27,3.93c-1.45,0.9-3.27,0.68-4.62-0.66
		c-1.2-1.19-0.85-2.33,0.28-3.37c1.02-0.78,2.32-0.78,3.46-1.24c0.44-0.18,0.09,0.2,0.26-0.14c0.17-0.35-0.3,0.06-0.47-0.06
		c-0.82,0.07-1.55-0.07-2.1-0.72c-2.02-2.52-3.94,0.02-5.91,0.12c-1.29,0.2-2.55,0.4-3.77,0.95c-4.34,1.95-5,1.61-6.41-3.11
		c-0.11-0.53-0.07-1.03,0.17-1.52c0.86-0.92,2.09-1.08,3.19-1.5c0.99-0.38,2.04-0.61,2.91-1.4c-3.12-0.7-3.12-0.7-9.65,2.05
		c-0.53,0.12-1.06,0.11-1.6,0.01c-3.26-1.52-6.74-0.91-10.14-1.06c-3.6-0.16-4.13-0.55-3.86-4.05c0.17-2.17-2.44-3.34-1.61-5.57
		c0.32-2.09,1.95-3.37,3.07-4.96c3.72-2.35,8.41-0.76,12.17-2.98c2.67-1.16,5.47-0.49,8.22-0.59c0.2,0.02,0.39,0.05,0.59,0.07
		c1.1-0.78,0.8-2.15,1.32-3.2c1.02-2.04,2.33-3.15,4.75-2.86c2.01,0.24,4.09-0.35,5.98-0.46c4.3-0.26,8.6,1.48,12.97,2.13
		c2.52,0.38,4.41,2.15,7.17,0.11c1.4-1.03,3.92-0.95,5.55-0.08C125.46,17.4,129.66,16.35,133.75,16.74z"/>
	<path class="st21" d="M115.96,44.73c0.54,1.55,3.83,0.77,3.06,3.96c-0.16,0.66,3.99,0.14,5.55-1.21c3.02-2.62,6.24-2.44,9.71-1.58
		c0.57,0.14,1.18,0.1,1.77,0.14c1.75-0.23,3.45-0.47,4.48-2.26c0.39-0.68,1.15-1.23,2.05-0.49c1.08,1.09,2.43,1.46,3.91,1.39
		c1.48-0.07,3.49,0.53,3.85-1.56c0.34-1.97-1.37-2.49-3-2.74c-0.11-0.02-0.32-0.04-0.32-0.09c-0.03-0.19,0-0.39,0.01-0.58
		c0.45-1.2,2.56-0.28,2.57-2.01c-0.32-0.81-1.39-1.18-1.25-2.23c1.41-1.81-0.6-4.08,0.78-5.9c2.31,0.12,4.96-0.53,5.91,2.64
		c5.78-0.52,6.18,5.31,9.33,7.9c0.63,0.52,1.35,0.35,2.06,0.29c1.15-0.04,2.31-0.08,3.46-0.12c0.06,0.15,0.09,0.3,0.08,0.45
		c0.3,0.27,0.38,0.6,0.25,0.98c-1.84,1.51-4.26-0.55-6.09,1c-2.97,2.64-5.98,4.97-9.65,6.88c-5.33,2.77-10.92,2.8-16.39,4.04
		c-1.72,0.3-3.16-0.6-4.64-1.2c-1.35-0.54-2.45-0.71-3.19,0.83c-1.13,1.37-2.59,1.38-4.23,1.32c-2.6-0.09-5.05,0.13-7.25,2.15
		c-2.11,1.94-5.06,1.56-7.48,0.45c-1.93-0.88-3.62-1.3-5.76-0.93c-2.26,0.39-4.45-0.64-6.63-1.27c-1.6-0.53-2.95-1.56-4.5-2.2
		c-1.89-0.77-3.7-0.99-5.26,0.68c-2.15-0.05-4.33,0.08-6.46-0.19c-3.83-0.47-7.16-2.09-9.69-5.08c-1.24-1.47-2.64-1.44-4.19-0.75
		c-1.97,0.88-3.46,1.49-5.01-1.17c-1.01-1.74-3.88-1.22-5.94-1.64c-0.79-0.16-1.89,0.16-2.21-0.8c-0.37-1.08,0.82-1.27,1.43-1.76
		c1.95-1.57,3.08-3.01-0.37-4.13c-0.84-0.27-1.13-1.25-0.38-1.67c3.34-1.88,3.52-4.95,3.4-8.19c0.76,1.34,1.51,2.68,2.27,4.02
		c0.28,0.5,0.89,1.01,0.84,1.46c-0.31,3.2-0.34,3.03,2.81,3.3c3.35,0.29,6.96-1.22,10,1.36c0.88,0.48,1.43,1.1,0.94,2.17
		c-0.57,0.17-1.02,0.91-0.97,1.56c0.07,1-0.72,1.08-1.39,1.2c-1.61,0.29-2.97-0.57-3.98-0.88c4.64,1.74,5.63,1.57,7.93-1.63
		c0.94-0.41,1.79-0.24,2.58,0.36c0.54,0.15,1.39,0.14,1.25,0.93c-0.65,3.77,1.42,3.23,3.38,1.97c1.72-1.11,3.49-1.35,5.4-1.4
		c0.99,2.26,3.71,1.57,5.18,3.01c-0.57,0.81-1.91,1.52-0.64,2.67c1.46,1.32,3.31,1.26,4.63,0.12c2.99-2.58,6.87-2.34,10.22-3.69
		C112.06,46.49,113.98,47.47,115.96,44.73z"/>
	<path class="st11" d="M43.91,59.2c-9.55-2.36-18.88-5.21-27.07-10.95c-2.53-1.77-4.52-3.59-3.02-7.01c6.31-4.97,14-6.65,21.49-8.47
		c7.27-1.77,14.71-3.03,22.19-3.77c0.6,2.48-0.79,3.85-2.75,4.89c-4.12,1.34-8.46,1.43-12.67,2.33c-4.22,0.9-8.43,1.8-12.43,3.47
		c-1.91,0.8-3.75,1.81-3.99,4.19c-0.23,2.28,1.52,3.23,3.01,4.49c4.19,3.55,9.18,5,14.38,6.06c1.98,0.4,4.05,0.5,5.86,1.55
		C48.48,58.97,45.83,58.52,43.91,59.2z"/>
	<path class="st22" d="M112.48,59.01c-15.63,1.46-31.23,0.73-46.82-0.72c-5.01,0.67-9.67-1.02-14.42-2.11
		c-4.81-1.78-9.79-3.18-14.3-5.69c-2.49-1.38-5.69-2.84-5.39-6.04c0.32-3.3,3.96-3.36,6.51-4.05c3.45-0.94,6.97-1.67,10.53-2.17
		c1.67-0.23,3.33-0.51,4.83,0.6c1.75,1.08,1.63,2.1-0.1,3.06c-1.55,1.74-3.73,1.5-5.74,1.82c-2.32-0.21-4.65-0.28-6.99-0.24
		c-1.35,0.02-2.57,0.18-3.14,1.61c-0.03,0.37-1.31,0.53-0.22,1.1c1.11,0.57,2.24,1.09,3.4,1.56c1.25,0.52,2.54,0.96,3.81,1.43
		c4.46,1.34,8.88,2.8,13.41,3.88c1.34,0.1,2.63,0.31,3.43,1.57c1.69,0.78,3.42,1.07,5.2,0.32c4.97-0.69,9.87,0.23,14.8,0.64
		c3.55,0.97,7.33,0.18,10.84,1.41c2.91,0.65,5.82,1.4,8.7-0.1c2.78-0.37,5.56-0.28,8.34-0.1C110.46,57.23,112.03,57.27,112.48,59.01
		z"/>
	<path class="st23" d="M53.41,38.85c-6.36,0.28-12.54,1.6-18.57,3.56c-3.63,1.18-3.81,2.24-1.01,4.83c4,3.69,9.3,4.76,14.11,6.82
		c1.09,0.47,2.2,0.89,3.3,1.34c-0.43,1.05-1.09,1.53-2.2,0.89c-8.35-0.68-16.15-2.9-22.8-8.26c-2.75-2.22-2.23-6.41,1.16-8.32
		c3.68-2.07,7.78-3.07,11.89-3.82c5.11-0.93,10.14-2.55,15.45-1.97C53.6,35.36,53.14,37,53.41,38.85z"/>
	<path class="st24" d="M100.11,57.71c-2.88,2.19-5.48,1.17-8-0.7c0.35-0.06,0.7-0.11,1.05-0.17c1.74-1.12,4.24-0.72,5.51-2.77
		c3.18,0.35,6.22,2.77,9.58,0.53c0.51-0.34,1.02,0.38,1.51,0.69c3.96,2.56,5.84,2.27,9.58-0.41c1.66-1.19,4.04-1.6,6.11-1.28
		c1.88,0.29,3.38-0.1,4.91-0.97c1.38,0.19,2.18,1.32,3.23,2.03c1.96,1.33,3.23,0.92,3.96-1.31c1.03-1.53,2.64-1.43,4.18-1.43
		c4,0,7.5-1.09,11.22-2.85c2.86-1.35,5.51-2.89,8.2-4.49c1.12-0.67,1.69-1.55,2.19-2.61c2.22-0.13,4.5,2.69,6.66-0.15
		c-0.01-0.36-0.02-0.72-0.03-1.08c0.71,0.37,1.43,0.73,2.14,1.1c1.18,0.6,1.61,1.56,1.37,2.84c-1.01,2.68-3.29,2.57-5.41,2.13
		c-1.98-0.42-2.71,0.08-3.23,2.04c-0.76,2.83-3.03,4.48-5.57,5.74c-0.5,0.18-1.02,0.27-1.55,0.3c-2.07,0.01-3.33-1.04-3.68-3.21
		c-2.27,1.38-4.46,2.26-6.85,2.65c-2.96,0.47-6.18,0.48-7.49,4.02l0.04-0.01c-2.64,0.78-5.16,1.01-7.15-1.44
		c-4.54-0.92-9.12-2.37-13.18,1.41c-1.39,1.29-3.23,0.55-4.84,0.9c-0.7-0.06-1.39-0.12-2.09-0.17c-0.97-0.45-1.93-0.9-2.9-1.35
		C106.42,57.19,103.26,56.84,100.11,57.71z"/>
	<path class="st25" d="M57.71,53.94c-4.65-1.38-9.31-2.76-13.96-4.14c0.97-1.2,2.42-0.79,3.66-1.06c2.72-0.59,2.98-1.23,1.33-3.42
		c-0.5-0.66-1.16-1.23-1.2-2.14c1.77-1.11,3.91-0.54,5.77-1.27c-0.72,2.34-0.29,4.29,2.51,4.2c3.45-0.11,5.81,1.53,7.97,3.88
		c-0.37,1.13-1.56,1.31-2.38,1.93C60.48,53.14,58.81,53.02,57.71,53.94z"/>
	<path class="st26" d="M98.66,54.06c0.07,4.7-3.31,2.57-5.51,2.77c-1.45-0.99-3.09-1.76-4.02-3.36c-0.53-2.53,1.24-2.35,2.79-2.31
		C94.55,51.23,96.47,52.97,98.66,54.06z"/>
	<path class="st27" d="M81.26,55.6c-4.96,0.43-9.91,0.64-14.8-0.64c1.36-0.68,2.69-1.43,4.09-2.01c2.38-0.99,4.77-1.3,6.68,0.93
		C78.33,55.15,79.69,55.57,81.26,55.6z"/>
	<path class="st28" d="M70.46,48.17c0.38,0.14,0.96,0.17,1.21,0.48c0.42,0.53,0.09,1.13-0.36,1.55c-1.72,1.67-3.72,2.89-6.02,3.58
		c-0.63,0.19-1.15-0.1-1.48-0.67c-0.28-0.48-0.13-0.94,0.21-1.29C65.77,50.01,67.84,48.72,70.46,48.17z"/>
	<path class="st29" d="M57.71,53.94c0.3-2.37,2.51-1.26,3.69-2.02c-0.05,0.91-0.1,1.81-0.15,2.72C60.08,54.4,58.9,54.17,57.71,53.94
		z"/>
	<path class="st30" d="M75.69,19.42c-0.02-0.21-0.03-0.42-0.03-0.64c2.69,0.37,5.54-0.87,8.09,0.85c0,0-0.06,0-0.06,0
		C81.02,19.87,78.34,20.25,75.69,19.42z"/>
	<path class="st31" d="M49.06,56.27c0.73-0.3,1.47-0.59,2.2-0.89c4.8,0.97,9.6,1.94,14.4,2.91c-3.77,1.59-7.52,3.27-11.76,3.08
		c-3.39-0.45-6.78-0.9-9.99-2.17C45.16,57.41,47.5,57.53,49.06,56.27z"/>
	<path class="st4" d="M75.69,19.42c2.67,0.07,5.33,0.14,8,0.21c-2.86,1.05-5.85,0.11-8.75,0.52C75.19,19.91,75.44,19.66,75.69,19.42
		z"/>
	<path class="st32" d="M172.98,44.73c0.03-1.06-0.35-2-0.87-2.9c0.36,0.01,0.72-0.01,1.07,0.05c2.5,0.39,5.2,0.67,5.99,3.63
		c0.6,2.23-2.07,6.24-4.77,7.37c-6.24,2.61-12.9,3.35-19.54,4.15c-1.46,0.38-2.9,0.44-4.63-0.13c2.05-2.91,5.13-1.68,7.46-2.63
		c0.49-0.08,0.98-0.15,1.46-0.23c4.16-1.78,8.71-2.4,12.82-4.34C175.37,48.1,175.53,47.51,172.98,44.73z"/>
	<path class="st33" d="M157.69,54.27c-0.73,1.15-1.92,1.14-3.09,1.32c-1.13,0.18-2.23,0.57-4.29,1.13c2.16,0.14,3.35,0.23,4.55,0.31
		c-4.99,1.17-10.15,0.53-15.17,1.31c-0.45-4.91,3.17-4.39,6.22-4.75c3.09-0.37,6.1-1.05,8.74-4.02
		C154.76,52.27,154.77,54.48,157.69,54.27z"/>
	<path class="st34" d="M132.58,56.88c2.32,0.78,4.61,1.74,7.15,1.44c-4.14,2.08-8.55,1.75-12.95,1.49
		C128.71,58.83,130.64,57.86,132.58,56.88z"/>
	<path class="st35" d="M118.06,34.57c2.34,0,7.24,4.47,7.15,6.64c-0.06,1.6-1.32,1.7-2.29,1.12c-2.34-1.38-4.57-2.94-6.79-4.51
		c-0.71-0.5-1.03-1.33-0.54-2.21C116.13,34.64,117.07,34.54,118.06,34.57z"/>
	<path class="st36" d="M84.89,23.87c2.07-0.01,3.07,0.63,3.07,2.27c0.01,1.82-3.25,4.24-5.55,4.16c-1.63-0.05-3.23-1.03-2.74-2.46
		C80.5,25.39,82.68,24.01,84.89,23.87z"/>
	<path class="st36" d="M112.38,23.53c0.05,2.16-5.64,6.91-7.41,6.48c-1.4-0.33-1.68-1.58-1.07-2.54c1.49-2.35,3.43-4.34,6.23-5.1
		C111.26,22.06,112.29,22.43,112.38,23.53z"/>
	<path class="st37" d="M133.28,21.74c2.88-0.32,4,2.09,5.5,3.56c0.84,0.82-0.48,1.85-1.66,2.01c-1.71,0.23-3.28-0.41-4.8-1.05
		c-1.21-0.51-2.67-1.18-2.34-2.72C130.32,21.89,131.88,21.61,133.28,21.74z"/>
	<path class="st35" d="M77.04,38.19c2.78-2.35,6.13-2.9,9.61-3.09c0.77-0.04,1.5-0.09,1.77,0.73c0.27,0.81-0.35,1.38-0.97,1.71
		c-2.11,1.1-4.34,1.87-6.7,2.24C79.08,40.24,77.07,41.53,77.04,38.19z"/>
	<path class="st38" d="M92.57,21.84c-0.28-0.02-1.24,0.01-2.18-0.15c-0.87-0.15-1.74-0.75-1.5-1.68c0.53-2.08,2.46-2.57,4.19-2.75
		c1.44-0.15,3.37-1.15,4.28,1.12C98.44,21.05,97.54,21.8,92.57,21.84z"/>
	<path class="st39" d="M133.42,29.7c0.77,0.27,1.6,0.43,2.3,0.82c1.18,0.66,1.8,1.91,0.97,2.97c-1.42,1.8-3.47,0.93-5.28,0.6
		c-1.57-0.28-2.67-1.19-2.48-2.91c0.19-1.66,0.51-3.42,2.93-3.06c0.77,0.94-0.27,2.45,1.02,3.26
		C133.5,30.96,132.4,29.97,133.42,29.7z"/>
	<path class="st40" d="M105.08,39.97c0.23-2.54,1.85-4.35,4-5.76c0.6-0.39,1.31,0.01,1.44,0.58c0.6,2.65-1.05,4.45-2.63,6.2
		c-0.59,0.66-1.23,1.7-2.33,1.13C104.89,41.76,105.11,40.85,105.08,39.97z"/>
	<path class="st41" d="M95.94,45.53c-1.07-0.06-2.16-0.01-3.21-0.2c-1.52-0.27-2.91-0.77-1.96-2.82c1.51-1.07,3.19-1.51,5.02-1.22
		c0.66,0.1,1.53,0.24,0.8,1.29c-0.25,0.25-0.72,0.3-0.85,0.5c-0.29,0.44,0.27,0.23,0.39,0.26c0.88,0.27,1.77,0.5,2.64-0.04
		c0.59-0.35,1.19-0.69,1.84-1.07C100.01,44.86,99.9,44.94,95.94,45.53z"/>
	<path class="st42" d="M136.09,44.6c-1.31-0.05-2.63,0-3.92-0.19c-1.73-0.26-2.86-1.18-2.62-3.16c0.24-1.98,1.65-2.12,3.18-1.92
		c0.97,0.12,2.1-0.24,3,0.72c-1.1,1.52-2.89,0.35-4.19,1.4c1.26,2.21,3.88,0.46,5.29,1.84C137.22,44.09,136.66,44.35,136.09,44.6z"
		/>
	<path class="st43" d="M125.95,22.49c-1.09,2.38-3.2,3.68-5.32,4.92c-0.83,0.49-1.85,0.59-2.59-0.28c-0.66-0.78-0.23-1.57,0.18-2.29
		c0.88-1.57,2.15-2.79,3.55-3.89c1.83,0.4,1.83,0.4,0.01,2.84c0.83-0.21,1.31-0.9,1.99-1.24C124.49,22.19,125.21,21.63,125.95,22.49
		z"/>
	<path class="st44" d="M98.62,31.97c-1.12-1.08-2.33,0.1-2.95-1.01c-0.09-0.39,0.04-0.75,0.45-0.73c1.7,0.08,4.45-0.98,4.83,0.65
		c0.49,2.09-2.45,2.38-4.04,3.13c-1.76,0.83-3.71,0.96-5.39-0.39c-0.57-0.46-0.92-1.23-0.26-1.86c0.83-0.79,0.76,0.35,1.13,0.61
		C94.46,33.87,96.36,32.89,98.62,31.97z"/>
	<path class="st45" d="M148.35,35.46c0.62,0.74,1.82,0.86,2.12,1.96c-1.28,2.52-3.19,1.27-4.97,0.82c-1.14-0.61-2.47-1.03-2.74-2.54
		c-0.13-0.71-0.11-1.51,0.72-1.79c0.79-0.27,0.94,0.45,1.11,1C145.45,37.7,147.21,34.45,148.35,35.46z"/>
	<path class="st46" d="M136.09,44.6c0.25-0.44,0.5-0.87,0.75-1.3c1.92,1.3,3.82-2.17,5.74-0.01c-0.99-0.01-1.43,0.68-1.76,1.45
		c-1.04,2.48-2.72,2.57-4.77,1.3C136.25,45.56,136.86,45.1,136.09,44.6z"/>
	<path class="st47" d="M125.95,22.49c-2.42,0.26-3.53,3-6.26,3.4c0.35-1.92,1.87-2.61,2.76-3.74c0.78-1,0.15-1.14-0.68-1.19
		C124.01,19.18,124.7,21.6,125.95,22.49z"/>
	<path class="st48" d="M115.96,44.73c-0.21,1.86-1.33,2.77-3.12,2.74c-1.77-0.03-2.42-1.28-2.68-2.83c0.63-0.63,1.89-1.73,2.15-0.79
		C113.13,46.79,114.87,44.12,115.96,44.73z"/>
	<path class="st49" d="M69.93,28.91c1.06,1.15,1.6,2.47,2.88,2.8c0.65,0.17,1.69,1.29,1.91-0.21c0.2-1.41,0.65-0.96,1.2-0.4
		c0.55,0.56,0.72,1.42-0.03,1.83c-1.34,0.73-2.79,0.44-4.09-0.25C70.54,32.01,69.01,31.37,69.93,28.91z"/>
	<path class="st50" d="M133.42,29.7c-0.32,1.37,1.77,1.18,1.6,2.46c-4.25,0.39-4.39,0.21-3.17-4.03
		C132.37,28.65,132.89,29.18,133.42,29.7z"/>
	<path class="st51" d="M77.04,38.19c0.45,2.38,2.44,1.14,3.71,1.58c0,0.42-0.01,0.83-0.01,1.25c-1.01,0.09-2.01,0.18-3.02,0.26
		c-0.78,0.24-1.37,0.17-1.39-0.84c-0.23-0.73-0.46-1.47-0.69-2.2C76.1,38.22,76.57,38.21,77.04,38.19z"/>
	<path class="st52" d="M145.5,38.23c1.69-0.04,3.52,0.75,4.97-0.82c0.49,2.19,0.49,2.19-3.44,2.29
		C146.51,39.21,146,38.72,145.5,38.23z"/>
	<path class="st53" d="M98.76,43.31c-1.56,1.06-3.08,0.69-4.92-0.09c0.99-0.93,1.89-0.69,2.74-0.63
		C97.11,43.42,98,43.16,98.76,43.31z"/>
	<path class="st54" d="M137.54,53.35c0.62,0.79,1.05,1.62,0.23,2.53c-0.84,0.92-1.95,0.96-2.94,0.5c-1.81-0.83-3.63-1.73-4.48-3.75
		c-0.61-1.4-1.08-2.79,1.36-1.85C133.69,51.54,135.6,52.48,137.54,53.35z"/>
	<path class="st55" d="M76.32,40.44c0.46,0.28,0.93,0.56,1.39,0.84c0.92,1.28,0.74,2.41-0.88,2.62c-2.87,0.38-5.72,0.07-8.33-1.35
		c-0.72-0.39-1.66-0.94-1.09-1.91c0.73-1.25,1.31-0.08,1.93,0.33c1.71,1.12,3.55,1.77,5.73,1.37c-0.92-1.11-2.59-0.69-3.47-2.1
		C73.3,39.04,74.8,40.73,76.32,40.44z"/>
	<path class="st56" d="M155.78,36.41c1.9-0.13,5.29,4.2,4.81,5.79c-0.26,0.84-0.92,1.24-1.63,0.87c-2.1-1.1-3.43-2.92-4.05-5.18
		C154.7,37.13,155.21,36.56,155.78,36.41z"/>
	<path class="st57" d="M83.4,48.72c0.13,0.74-0.23,1.07-0.65,1.31c-1.05,0.6-6.21-1.5-6.72-2.7c-0.22-0.52-0.11-0.92,0.27-1.28
		c0.96-0.9,1.82-0.1,2.62,0.26C80.49,47.04,82.49,47.06,83.4,48.72z"/>
	<path class="st58" d="M169.98,41.81c1.06,1.21,0.25,1.82-0.82,1.92c-2.14,0.2-4.36,0.35-5.83-1.77
		C165.5,40.07,167.75,41.42,169.98,41.81z"/>
	<path class="st59" d="M154.82,34.31c-0.37,1.09-0.44,2.57-1.98,2.89c-0.73,0.15-0.9-0.68-0.81-1.25c0.21-1.26,0.38-2.68,1.88-3.04
		C154.48,32.77,154.79,33.55,154.82,34.31z"/>
	<path class="st60" d="M47.54,43.18c1.51,1.25,4.04,2.16,3.28,4.56c-0.73,2.3-3.24,2-5.27,2.02c-0.6,0.01-1.19,0.03-1.79,0.05
		c-1.15-0.46-2.29-0.93-3.44-1.39c-0.85-1.43-3.21-1.26-3.49-3.3c-0.07-1.58,0.65-2.58,2.26-2.53
		C41.91,42.66,44.8,42.01,47.54,43.18z"/>
	<path class="st61" d="M100.11,57.71c0.11-0.33,0.26-0.96,0.32-0.95c3.03,0.46,6.21-0.49,9.14,0.91
		C106.42,57.68,103.27,57.69,100.11,57.71z"/>
	<path class="st62" d="M36.83,45.11c1.24,1.02,2.79,1.71,3.49,3.3c-1.4-0.64-2.93-1.1-4.16-1.99
		C35.04,45.62,36.32,45.43,36.83,45.11z"/>
	<path class="st63" d="M172.98,44.73c1.16,0.6,3.24-0.02,3.31,1.94c0.05,1.44-0.95,2.66-2.42,3.27c-4.73,1.99-9.5,3.82-14.71,4.11
		c2.55-2.05,5.63-3.66,5.26-7.79c-0.13-1.51,1.09-1.04,2.05-0.75C168.73,46.2,171.05,47,172.98,44.73z"/>
	<path class="st64" d="M158.63,52.26c-1.19-0.08-1.6-0.77-1.32-1.69c0.23-0.78,0.69-1.53,1.19-2.18c0.94-1.22,1.88-2.56,3.53-2.85
		c0.71-0.12,0.89,0.62,0.97,1.24c0.25,1.95-1,3.11-2.31,4.18C160.05,51.46,159.29,51.84,158.63,52.26z"/>
	<path class="st36" d="M42.47,43.31c2.22-0.05,4.42,0.93,6.17,2.87c0.32,0.35,0.21,1.02-0.3,1.18c-2.39,0.73-4.71,0.33-6.83-0.84
		c-0.93-0.51-2.65-0.78-2.27-2.26C39.53,43.08,41,43.39,42.47,43.31z"/>
</g>
</svg>
