<?xml version="1.0" encoding="utf-8"?>
<!-- Generator: Adobe Illustrator 23.0.2, SVG Export Plug-In . SVG Version: 6.00 Build 0)  -->
<svg version="1.1" id="Camada_1" xmlns="http://www.w3.org/2000/svg" xmlns:xlink="http://www.w3.org/1999/xlink" x="0px" y="0px"
	 viewBox="0 0 36.72 39.36" style="enable-background:new 0 0 36.72 39.36;" xml:space="preserve">
<style type="text/css">
	.st0{fill:#4E423B;}
	.st1{fill:#69554A;}
	.st2{fill:#50443B;}
	.st3{fill:#A41416;}
	.st4{fill:#42100F;}
	.st5{fill:#7B6357;}
	.st6{fill:#5B4B42;}
	.st7{fill:#6D584E;}
	.st8{fill:#7B6358;}
	.st9{fill:#896F63;}
	.st10{fill:#B6A894;}
	.st11{fill:#A19A86;}
	.st12{fill:#D6B99C;}
	.st13{fill:#FEFEFE;}
	.st14{fill:#F1E8DE;}
	.st15{fill:#410B0A;}
	.st16{fill:#A39C87;}
	.st17{fill:#C3453E;}
	.st18{fill:#630F0D;}
	.st19{fill:#931919;}
	.st20{fill:#803432;}
	.st21{fill:#450B0A;}
	.st22{fill:#B4AD9A;}
	.st23{fill:#DDC4AC;}
	.st24{fill:#F3ECE4;}
	.st25{fill:#DEC5AE;}
	.st26{fill:#F2E9DF;}
	.st27{fill:#DCC4AC;}
	.st28{fill:#EEE6DC;}
	.st29{fill:#DABB9D;}
	.st30{fill:#F8EEDD;}
	.st31{fill:#E1CCB6;}
	.st32{fill:#E0CAB4;}
	.st33{fill:#E9D4BE;}
	.st34{fill:#E2CCB7;}
	.st35{fill:#BCB6A5;}
	.st36{fill:#ECD8C2;}
	.st37{fill:#E1CBB5;}
	.st38{fill:#B9B3A1;}
	.st39{fill:#C7C4B1;}
	.st40{fill:#EBD6BF;}
	.st41{fill:#C9C5B3;}
	.st42{fill:#C2BEAB;}
	.st43{fill:#BAB4A2;}
	.st44{fill:#F6E9D6;}
	.st45{fill:#D8D7C4;}
	.st46{fill:#D5D3C1;}
	.st47{fill:#F4E4CF;}
	.st48{fill:#E4CEB8;}
	.st49{fill:#B8B19F;}
	.st50{fill:#B4AD9B;}
	.st51{fill:#EEF0DD;}
	.st52{fill:#651313;}
	.st53{fill:#A73B37;}
	.st54{fill:#9A3735;}
	.st55{fill:#8C3633;}
	.st56{fill:#FBF6F6;}
	.st57{fill:#BF2C2F;}
	.st58{fill:#FBF8F8;}
	.st59{fill:#DEC6AE;}
	.st60{fill:#B5AF9D;}
	.st61{fill:#FAF6F6;}
	.st62{fill:#9D2022;}
	.st63{fill:#FBF8F7;}
	.st64{fill:#921C1D;}
	.st65{fill:#B63F39;}
	.st66{fill:#B93435;}
	.st67{fill:#873433;}
	.st68{fill:#9E2F2F;}
	.st69{fill:#943231;}
</style>
<g>
	<path d="M1.7,15.72c0.13-2.13-0.24-5.4,0.26-8.65c0.22-1.47,0.78-2.33,2.39-2.8c4.98-1.46,10.07-2,15.21-2.36
		c1.74-0.12,3.46-0.25,5.22-0.13c1.89,0.13,2.75,1.38,3.3,2.71c2.89,6.98,5.34,14.11,6.59,21.6c0.31,1.85,0.67,3.68,0.99,5.53
		c0.2,1.15-0.17,1.96-1.31,2.47c-3.81,1.7-7.84,2.57-11.9,3.4c-3.86,0.8-7.73,1.18-11.66,0.7c-2.13-0.26-4.06-1.06-5.91-2.12
		c-1.54-0.88-2.26-2.26-2.39-3.9C2.06,27.07,1.56,21.98,1.7,15.72z"/>
	<path class="st0" d="M17.41,36.99c-4.4,0.55-8.65,0.28-12.46-2.32c-0.76-0.52-1.16-1.39-1.22-2.25c-0.32-4-0.77-8-0.76-12.02
		c0.57-0.18,0.96,0.02,1.2,0.55c0.24,2.21,0.09,4.43,0.3,6.65c0.13,1.42,0.32,2.84,0.34,4.27c0.01,0.88,0.51,1.57,1.19,2.11
		c0.52,0.35,1.08,0.63,1.66,0.88c1.31,0.67,2.75,0.87,4.17,1.18c1.3,0.22,2.61,0.05,3.91,0.11c0.49,0.02,1.02-0.05,1.47,0.47
		c-0.57,0.4-1.16,0.12-1.72,0.24C16.15,36.9,16.79,36.69,17.41,36.99z"/>
	<path class="st1" d="M33.47,26.59c0.58,1.74,0.73,3.56,1.05,5.34c0.13,0.72-0.45,0.95-0.95,1.18c-2.81,1.26-5.76,2.03-8.76,2.65
		c-0.54,0.11-1.09,0.18-1.64,0.26c-0.15,0.07-0.32,0.14-0.44,0.01c-0.21-0.22,0-0.35,0.16-0.45c0.38-0.24,0.85-0.08,1.03-0.16
		c-0.01,0.01-0.2,0.01-0.36-0.22c0.23-0.63,0.85-0.53,1.32-0.63c2.46-0.54,4.88-1.18,7.24-2.04c1.47-0.54,1.52-0.61,1.15-2.18
		c-0.26-1.08-0.59-2.15-0.59-3.28C32.73,26.6,32.87,26.23,33.47,26.59z"/>
	<path class="st2" d="M2.96,10.32c-0.1-1.2,0.14-2.37,0.25-3.56c0.04-0.44,0.15-0.88,0.65-1.04c2.68-0.85,5.38-1.63,8.21-1.85
		c0.01,0.04,0.03,0.08,0.02,0.11c0,0.03-0.04,0.06-0.05,0.1c0.56-0.06,1.12-0.13,1.68-0.19c0.37-0.04,0.84-0.1,0.73,0.55
		c-0.33,0.34-0.76,0.4-1.2,0.45c-2.74,0.29-5.41,0.9-8.05,1.64C5.04,6.56,4.87,6.62,4.71,6.69C3.69,7.64,3.7,9.24,4.73,9.91
		c0.11,0.07,0.18,0.17,0.2,0.29c-0.29,0.5-0.78,0.4-1.23,0.42C3.42,10.61,3.15,10.55,2.96,10.32z"/>
	<path class="st3" d="M28.13,7.67c0.54,1.52,1.07,3.04,1.61,4.55c0.05,1.1,0.23,2.21-0.06,3.3c-0.15,0.86-0.18,1.77-0.8,2.49
		c-0.44,0-0.8,1.21-1.33,0.1c0.32-0.98,0.61-1.97,0.83-2.97c0.44-1.93-0.14-3.69-0.71-5.47c-0.21-0.64-0.69-0.92-1.37-0.94
		c-0.58-0.02-1.2,0.11-1.73-0.27c0.05-0.76,0.61-0.27,0.88-0.41c-0.12-0.19-0.83,0.26-0.58-0.48c0.72-0.39,1.5-0.21,2.26-0.23
		C27.5,7.35,27.85,7.41,28.13,7.67z"/>
	<path class="st4" d="M2.96,10.32c0.25,0.01,0.49,0.03,0.74,0.04c0.37,0.26,0.93-0.17,1.22,0.35c-0.71,0.56-0.94,1.27-0.91,2.18
		c0.06,1.91,0.03,3.82,0.02,5.74c0,0.61,0.07,1.19,0.4,1.72c0.09,0.22,0.03,0.39-0.14,0.54c-0.13,0.09-0.25,0.08-0.36-0.02
		c-0.32-0.16-0.64-0.31-0.96-0.47C2.96,17.04,2.96,13.68,2.96,10.32z"/>
	<path class="st5" d="M28.13,7.67c-0.29,0-0.59,0-0.88,0c-0.57-0.38-0.71-1.03-0.95-1.6c-0.77-1.86-0.81-1.89-2.76-1.91
		c-0.59,0-1.19,0.02-1.77-0.12c-0.9-0.22-1.81-0.07-2.72-0.12c-0.45-0.02-0.93,0.02-1.31-0.54c0.96-0.34,1.88,0.03,2.73-0.24
		c1.16-0.02,2.31-0.07,3.47-0.06c1.85,0.01,2.7,0.63,3.34,2.36C27.55,6.19,27.85,6.93,28.13,7.67z"/>
	<path class="st6" d="M23.51,35.23c0.27,0.03,0.54,0.07,0.99,0.13c-0.65,0.21-1.13,0.36-1.62,0.52c0.02,0.03,0.03,0.07,0.06,0.08
		c0.07,0.03,0.15,0.04,0.23,0.06c-1.88,0.59-3.81,0.84-5.76,0.96c-0.71,0-1.43,0-2.14,0c0-0.08-0.01-0.16-0.01-0.24
		c0.53,0,1.06,0,1.6,0c-1.74-0.47-3.53,0.02-5.25-0.47c0.77-0.67,1.69-0.32,2.55-0.38c0.43-0.03,0.86-0.01,1.28-0.01
		c2.08,0.16,4.1-0.25,6.13-0.59C22.2,35.17,22.85,34.77,23.51,35.23z"/>
	<path class="st7" d="M20.47,3.15c-0.74,0.49-1.62,0-2.5,0.34c1.37,0.33,2.7-0.21,3.94,0.33c-0.4,0.43-0.96,0.31-1.45,0.41
		c-1.53,0.3-3.11,0.13-4.64,0.4c-0.47,0.08-0.96,0.07-1.34-0.32c-0.95-0.64-1.9,0.07-2.86,0c-0.01-0.34,0.4-0.2,0.46-0.44
		C14.87,3.57,17.64,3.02,20.47,3.15z"/>
	<path class="st8" d="M33.47,26.59c-0.11,0.04,0.06,0.52-0.24,0.2c-0.41-0.44-0.2,0.11-0.31,0.15c-0.33-0.06-0.45-0.33-0.5-0.6
		c-0.5-2.69-1.35-5.29-1.89-7.97c0.03-0.24,0.07-0.53,0.32-0.59c0.29-0.07,0.36,0.23,0.46,0.44c0.33,0.69,0.42,1.45,0.62,2.17
		c0.14,0.47,0.04,1.07,0.58,1.38C33.05,23.35,33.32,24.96,33.47,26.59z"/>
	<path class="st9" d="M32.52,21.79c-0.54,0.32-0.44-0.17-0.52-0.42c-0.32-1.04-0.6-2.1-0.95-3.14c-0.19-0.58-0.22-0.06-0.29,0.07
		c-1-0.99-1.12-2.25-1.12-3.55c0.23-0.6-0.14-1.27,0.24-1.84c1.04,2.63,1.87,5.32,2.41,8.09C32.34,21.27,32.44,21.52,32.52,21.79z"
		/>
	<path class="st10" d="M29.89,12.91c-0.03,0.68-0.06,1.36-0.1,2.04c-0.2,0.17,0.14,0.66-0.38,0.65c0.11-1.13,0.22-2.25,0.33-3.38
		C29.79,12.45,29.84,12.68,29.89,12.91z"/>
	<path class="st11" d="M14.24,36.24c-0.88,0.01-1.77,0.03-2.65,0.04c-1.41-0.25-2.86-0.4-4.1-1.22c-0.03-1.2-0.23-1.31-1.42-0.73
		c-1.09-0.3-1.54-1.18-1.6-2.14c-0.23-3.77-0.75-7.53-0.56-11.33c0.08,0,0.17,0,0.25-0.01c0.77-0.13,1.48,0.1,2.18,0.4
		c0.47,0.46,0.59,1.07,0.73,1.67c-0.01,0.71,0.23,1.34,0.61,1.92c0.13,0.25,0.24,0.52,0.32,0.79c0.14,0.6,0.46,1.11,0.73,1.65
		c0.37,0.75,0.69,1.52,1.05,2.27c0.21,0.43,0.55,0.88-0.14,1.32c-0.48,0.31,0,0.66,0.27,0.79c0.99,0.46,1.61,1.25,2.14,2.16
		c0.48,0.83,1.47,0.69,2.18,1.1C14.54,35.37,14.42,35.8,14.24,36.24z"/>
	<path class="st12" d="M6.07,34.33c0.02-0.47,0.26-0.74,0.74-0.72c0.45,0.02,0.87,0.2,1.09,0.6c0.22,0.41-0.09,0.65-0.41,0.85
		C6.97,34.92,6.48,34.7,6.07,34.33z"/>
	<path class="st13" d="M29.41,15.6c0.13-0.22,0.25-0.44,0.38-0.65c0.18,1.16,0.63,2.24,0.98,3.35c0.88,2.84,1.44,5.76,2.15,8.65
		c0.12,1.44,0.53,2.81,0.88,4.2c0.19,0.77-0.02,1.13-0.76,1.42c-3.09,1.2-6.3,1.95-9.52,2.66c-0.61,0.1-1.21,0.21-1.82,0.31
		c-1.11,0.11-2.22,0.23-3.34,0.22c-0.75-0.16-1.27-0.62-1.66-1.25c-0.2-0.65-0.94-0.54-1.32-0.94c0-0.95-0.25-1.84-0.56-2.72
		c-0.12-0.35-0.45-0.84,0.28-0.99c0.51,0.12,0.66,0.66,1.06,0.91c0.3,0.19,0.66,0.46,0.94,0.08c0.27-0.38-0.09-0.65-0.35-0.89
		c-0.37-0.34-0.86-0.37-1.3-0.55c-0.45-0.33-0.95-0.57-1.48-0.75c-0.92-1.17-1.63-2.47-2.32-3.78c-0.31-0.48-0.79-0.83-1.02-1.36
		c-0.38-0.73-0.7-1.5-1.61-1.76c-0.29-0.08-0.47-0.31-0.18-0.62c2.74-0.99,5.53-1.81,8.41-2.27c2.08-0.33,4.17-0.63,6.28-0.74
		c1.37,0.1,2.74,0.15,4.08,0.43c0.58,0.12,0.76-0.27,1.08-0.51C29.14,17.31,29.18,16.43,29.41,15.6z"/>
	<path class="st13" d="M14.48,4.32c2.48-0.16,4.96-0.32,7.44-0.49c0.67,0.01,1.37,0.13,2.02,0.02c1.36-0.22,2.07,0.39,2.47,1.6
		c0.25,0.75,0.55,1.49,0.83,2.23c-0.8,0.04-1.61,0.09-2.41,0.13c-1.15,0.63-2.46,0.28-3.65,0.6c-1.93,0.21-3.86,0.42-5.77,0.72
		c-2.98,0.28-5.91,1-8.92,1.05c-0.54-0.06-1.13,0.09-1.64-0.42c0.31-0.55,0.86-0.44,1.34-0.5c1.19-0.15,2.08-1.54,1.73-2.7
		C7.79,6.13,7.5,6.3,7.25,6.35C6.62,6.48,6.01,6.71,5.38,6.76C5.11,6.79,4.65,6.89,4.89,6.31C8,5.24,11.25,4.82,14.48,4.32z"/>
	<path class="st14" d="M4.89,6.31c0.37,0.57,0.74,0.05,1.1-0.02c0.74-0.14,1.46-0.33,2.23-0.51c0.22,1.06-0.25,2.04-0.23,3.05
		C8,9.26,7.67,9.27,7.36,9.4c-0.73,0.3-1.5,0.11-2.55,0.33c0.73,0.07,1.15,0.1,1.56,0.14c-0.4,0.71-0.93,0.57-1.5,0.24
		c-0.07-0.03-0.14-0.05-0.22-0.06C4.03,8.86,4.1,7.66,4.61,6.45C4.7,6.4,4.8,6.36,4.89,6.31z"/>
	<path class="st15" d="M4.88,10.11c0.49-0.16,1.03,0.04,1.5-0.24c2.4-0.06,4.76-0.47,7.13-0.85c0.64-0.1,1.26-0.13,1.89-0.16
		c0.34-0.14,0.66-0.14,1.01,0c-0.05,0.58-0.55,0.51-0.85,0.72c-0.44,0.18-0.89,0.31-1.36,0.34c-1.19,0.11-2.36,0.34-3.55,0.49
		c-1.23,0.07-2.41,0.51-3.66,0.48c-0.7-0.02-1.44,0.18-2.07-0.32c-0.4-0.08-0.86,0.13-1.21-0.22C4.09,10.28,4.54,10.47,4.88,10.11z"
		/>
	<path class="st16" d="M4.61,6.45c0.02,1.2,0.04,2.4,0.06,3.6c-0.7,0.17-1.04-0.02-0.98-0.82C3.74,8.49,3.73,7.74,3.88,7
		C3.97,6.54,4.19,6.4,4.61,6.45z"/>
	<path class="st17" d="M24.56,8.38c0.4,0,0.79,0.01,1.19,0.01c1.88,0,1.9,0.05,2.48,1.82c0.9,2.75,0.87,5.43-0.56,8.01
		c-0.4,0.36-0.89,0.27-1.34,0.21c-0.97-0.13-1.94-0.21-2.91-0.23c-0.67-0.97-1.07-1.99-0.72-3.19c0.1-0.79,0.24-1.59-0.01-2.36
		c-0.37-1.15-1.33-1.55-2.99-1.32c-0.61-0.5-0.73-1.3-1.05-1.95c-0.3-0.6,0.58-0.51,0.93-0.73c0.58-0.12,1.16-0.2,1.74-0.28
		C22.4,8.48,23.49,7.82,24.56,8.38z"/>
	<path class="st18" d="M23.13,17.99c1.52,0.08,3.03,0.16,4.55,0.24c0.45,0.69,0.6-0.52,1-0.16c-0.2,0.7-0.52,0.88-1.33,0.7
		c-1.21-0.26-2.5-0.2-3.75-0.28c-0.44-0.38-1.06,0.11-1.49-0.32C22.37,17.66,22.73,17.72,23.13,17.99z"/>
	<path class="st19" d="M24.56,8.38c-1.13-0.02-2.23,0.39-3.37,0.25c0.15-0.69,0.81-0.12,1.1-0.45c0.16-0.04-0.06-0.21,0.02-0.07
		c0.03,0.06,0.01,0.1-0.05,0.11c-0.38,0.05-0.76,0.15-1.12-0.09c1.22-0.29,2.45-0.33,3.69-0.33c0.22,0.06,0.45,0.12,0.84,0.22
		C25.25,8.26,24.78,8.03,24.56,8.38z"/>
	<path class="st20" d="M4.91,10.58c0.71,0,1.42-0.01,2.13-0.01c0.65,0.52,0.94,1.1,0.27,1.82c-0.93,1.94-1.39,4.05-2.29,6.03
		c0.57-0.46,0.25-1.59,1.33-1.6c0.71,1.77,0.41,3.09-0.92,3.97c-0.36,0.1-0.7,0.14-0.98-0.18c-0.48-0.23-0.79-0.49-0.78-1.14
		c0.05-2.58,0.09-5.16-0.03-7.73C3.59,10.62,4.45,10.91,4.91,10.58z"/>
	<path class="st21" d="M4.45,20.61c0.3,0.01,0.61,0.02,0.91,0.03c1.75-0.17,3.54-0.07,5.22-0.74c2.74-0.85,5.5-1.63,8.37-1.93
		c1.07-0.04,2.16-0.36,3.18,0.25c0.48,0.13,1.05-0.19,1.47,0.28c-5.11,0.19-10,1.46-14.87,2.87c-0.78,0.5-1.57,0.46-2.37,0.04
		c-0.74-0.14-1.51-0.17-2.19-0.56C4.26,20.77,4.35,20.69,4.45,20.61z"/>
	<path class="st22" d="M18.08,35.49c1.21,0.02,2.41,0.04,3.62,0.05c-2.06,0.48-4.13,0.83-6.26,0.69c0.15-0.86,0.83-0.92,1.49-1.02
		C17.33,35.24,17.7,35.38,18.08,35.49z"/>
	<path class="st23" d="M16.89,35.49c-0.63-0.03-1.03,0.37-1.45,0.74c-0.4,0-0.8,0-1.2,0.01c-0.34-0.38-0.05-0.77-0.03-1.16
		C15.15,34.32,16.01,34.45,16.89,35.49z"/>
	<path class="st24" d="M16.89,35.49c-0.86-0.33-1.68-0.99-2.68-0.41c-1.32-0.08-2.42-0.5-2.89-1.87c-0.32-0.93-1.36-0.89-1.91-1.5
		c-0.24-0.26-0.56-0.49-0.43-0.91c0.15-0.5,0.59-0.17,0.94-0.18c-0.52-1.15-0.99-2.2-1.46-3.25c-0.08-0.2,0.05-0.29,0.21-0.32
		c0.93-0.14,0.55-0.51,0.17-0.9c-0.29-0.3-0.77-0.17-1.06-0.48c-0.1-0.23-0.19-0.47-0.29-0.7c0.16-0.78,0.14-1.5-0.68-1.93
		c-0.15-0.54-0.31-1.08-0.46-1.62c0.79-0.01,1.58-0.03,2.37-0.04c1.24,0.2,1.84,1.03,2.15,2.16c-0.6,0.35-1.05,0.75-0.45,1.45
		c0.62,0.72,1,0.07,1.44-0.28c0.72,1.31,1.44,2.61,2.16,3.92c0.34,0.43,0.72,0.81,1.2,1.08c0.05,0.11,0.04,0.21-0.03,0.3
		c-0.65,0.12-0.17,0.46-0.12,0.69c0.24,0.97,0.96,1.88,0.38,2.95c0.23,0.75,0.94,0.48,1.43,0.66c0.25,0.55,0.78,0.81,1.2,1.18
		C17.68,35.49,17.29,35.49,16.89,35.49z"/>
	<path class="st25" d="M7.78,25.67c0.27-0.01,0.57-0.12,0.79-0.03c0.55,0.23,1.1,0.59,1.07,1.26c-0.04,0.89-0.85,0.14-1.19,0.46
		C8.21,26.8,7.69,26.36,7.78,25.67z"/>
	<path class="st14" d="M6.44,30.02c0.61,0.24,1.13,0.63,1.33,1.32c0.09,0.29-0.09,0.6-0.43,0.54c-0.7-0.12-1.21-0.56-1.45-1.22
		C5.76,30.31,6.02,30.08,6.44,30.02z"/>
	<path class="st26" d="M10.16,33.79c0.45,0.12,1.17-0.11,1.17,0.65c0,0.46-0.55,0.38-0.88,0.33c-0.46-0.08-1.18,0.05-1.19-0.65
		C9.26,33.65,9.82,33.84,10.16,33.79z"/>
	<path class="st27" d="M6.81,23.03c1.31,0.29,1.48,0.75,0.68,1.93C6.97,24.43,6.68,23.8,6.81,23.03z"/>
	<path class="st28" d="M6.59,27.02c0-0.38,0.02-0.83,0.49-0.77c0.49,0.07,0.43,0.58,0.44,0.96c0,0.35,0,0.82-0.48,0.75
		C6.57,27.9,6.64,27.38,6.59,27.02z"/>
	<path class="st29" d="M5.36,28.04c-0.03,0.26,0.06,0.7-0.31,0.64c-0.48-0.08-0.58-0.59-0.64-1.03c-0.03-0.25,0.06-0.51,0.37-0.49
		C5.31,27.21,5.35,27.63,5.36,28.04z"/>
	<path class="st30" d="M24.04,23.17c-0.1-0.73,0.42-1.11,0.92-1.21c0.56-0.11,0.75,0.44,0.82,0.95c0.03,0.19,0.14,0.37,0.17,0.57
		c0.07,0.47,0.17,1-0.45,1.19c-0.63,0.19-1.09-0.06-1.3-0.69C24.12,23.72,24.09,23.44,24.04,23.17z"/>
	<path class="st31" d="M15.19,30.01c0-0.08,0.01-0.16,0.01-0.24c-0.13-0.27,0.03-0.39,0.25-0.49c0.73-0.07,1.32,0.21,1.81,0.73
		c0.33,0.35,0.52,0.74,0.2,1.17c-0.29,0.38-0.69,0.28-1.09,0.11C15.76,31.05,15.44,30.57,15.19,30.01z"/>
	<path class="st32" d="M11.86,24.71c0.01,0.68-0.29,1.06-1,0.95c-0.84-0.13-1.03-0.89-1.1-1.49c-0.09-0.75,0.62-0.63,1.11-0.64
		C11.2,23.93,11.53,24.32,11.86,24.71z"/>
	<path class="st33" d="M20.53,28.56c-0.55-0.06-0.85-0.36-0.74-0.8c0.17-0.64,0.46-1.37,1.18-1.48c0.54-0.08,0.75,0.5,0.7,1.02
		C21.59,28.02,21.15,28.42,20.53,28.56z"/>
	<path class="st34" d="M13.75,22.86c0.01,0.54,0.05,1.06-0.55,1.1c-0.61,0.04-0.64-0.46-0.64-0.91c0-0.2-0.04-0.4,0-0.59
		c0.1-0.44-0.35-1.2,0.42-1.26c0.68-0.06,0.55,0.74,0.73,1.18C13.78,22.54,13.74,22.76,13.75,22.86z"/>
	<path class="st35" d="M19.06,30.53c0.06-0.56,0.3-1.03,0.93-1.03c0.56,0,0.74,0.48,0.67,0.94c-0.1,0.55-0.32,1.18-1.01,1.13
		C19.15,31.53,19.01,31.03,19.06,30.53z"/>
	<path class="st36" d="M22.43,33.57c0-0.48,0.26-0.71,0.66-0.67c0.64,0.07,1.27,0.29,1.42,1.01c0.09,0.43-0.27,0.6-0.67,0.63
		C23.09,34.6,22.71,34.15,22.43,33.57z"/>
	<path class="st37" d="M15.42,26.91c-0.04,0.34-0.15,0.58-0.5,0.6c-0.5,0.04-1.42-0.94-1.38-1.47c0.03-0.37,0.26-0.65,0.62-0.55
		C14.88,25.69,15.21,26.28,15.42,26.91z"/>
	<path class="st38" d="M15.17,23.53c0.03-0.52,0.17-1.2,0.91-1.3c0.41-0.05,0.55,0.49,0.53,0.91c-0.04,0.6-0.08,1.24-0.85,1.33
		C15.19,24.53,15.17,24.08,15.17,23.53z"/>
	<path class="st39" d="M26.08,32.64c-0.63-0.01-1.24,0.03-1.25-0.69c-0.01-0.76,0.65-0.49,1.07-0.53c0.55-0.06,1.15,0.1,1.17,0.7
		C27.09,32.82,26.39,32.54,26.08,32.64z"/>
	<path class="st40" d="M20.01,23.48c-0.02,0.48,0.11,1.04-0.66,1c-0.4-0.02-0.86-0.21-0.72-0.57c0.2-0.53,0.17-1.41,0.83-1.5
		C20.09,22.32,19.97,23.05,20.01,23.48z"/>
	<path class="st41" d="M21.66,23.63c0.09-0.46-0.17-1.15,0.52-1.16c0.59-0.01,0.45,0.64,0.44,1.05c0,0.43,0.2,1.12-0.48,1.13
		C21.53,24.65,21.74,24,21.66,23.63z"/>
	<path class="st42" d="M24.33,28.69c-0.03,0.38,0.03,0.85-0.41,0.79c-0.72-0.11-0.77-0.83-0.94-1.38c-0.09-0.32,0.21-0.54,0.52-0.49
		C24.13,27.71,24.3,28.2,24.33,28.69z"/>
	<path class="st43" d="M20.7,34.12c-0.38-0.04-0.97,0.14-0.98-0.38c-0.01-0.59,0.56-0.67,1.07-0.64c0.4,0.03,1.03-0.15,1.02,0.47
		C21.78,34.21,21.13,34.06,20.7,34.12z"/>
	<path class="st44" d="M26.46,27.13c-0.22,0.07-0.46,0.22-0.67,0.18c-0.42-0.08-0.68-0.39-0.74-0.82c-0.04-0.29,0.03-0.57,0.32-0.71
		c0.65-0.31,0.75,0.39,1.11,0.62C26.67,26.66,26.69,26.9,26.46,27.13z"/>
	<path class="st45" d="M29.96,31.7c-0.42-0.05-0.93-0.13-0.89-0.69c0.02-0.37,0.43-0.56,0.83-0.51c0.48,0.06,0.85,0.35,0.84,0.84
		C30.73,31.79,30.29,31.67,29.96,31.7z"/>
	<path class="st43" d="M19.29,26.5c-0.01,0.37-0.22,0.55-0.53,0.55c-0.51,0-0.96-0.19-1.1-0.72c-0.08-0.29,0.19-0.42,0.45-0.42
		C18.6,25.92,19.07,25.99,19.29,26.5z"/>
	<path class="st46" d="M26.46,27.13c0.01-0.24,0.02-0.48,0.02-0.73c0.08,0,0.16,0,0.24-0.01c0.54-0.04,0.92,0.2,1.14,0.68
		c0.11,0.24,0.03,0.52-0.22,0.6C27.12,27.84,26.75,27.55,26.46,27.13z"/>
	<path class="st47" d="M26.26,28.87c0.5,0.16,0.72,0.58,0.84,1.03c0.09,0.32-0.15,0.54-0.46,0.54c-0.74,0-0.65-0.67-0.8-1.11
		C25.76,29.08,25.98,28.91,26.26,28.87z"/>
	<path class="st48" d="M19.74,32.58c-0.16,0.55-0.57,0.53-0.96,0.51c-0.35-0.02-0.67-0.18-0.63-0.55c0.07-0.59,0.58-0.38,0.94-0.41
		C19.41,32.12,19.71,32.2,19.74,32.58z"/>
	<path class="st49" d="M16.88,34.32c-1.34,0.42-1.62,0.28-1.43-0.66C15.98,33.74,16.81,33.22,16.88,34.32z"/>
	<path class="st50" d="M15.44,29.28c-0.08,0.16-0.16,0.33-0.25,0.49c-0.76,0-1.19-0.34-1.18-1.14
		C14.71,28.38,15.15,28.66,15.44,29.28z"/>
	<path class="st51" d="M26.96,22.25c-0.39-0.07-0.47-0.36-0.48-0.69c-0.01-0.32,0-0.76,0.35-0.78c0.54-0.03,0.44,0.55,0.55,0.87
		C27.48,21.93,27.3,22.17,26.96,22.25z"/>
	<path class="st52" d="M21.14,8.14c0.39,0.02,0.79,0.04,1.31,0.07c-0.43,0.34-0.98,0-1.25,0.43c-0.55,0.16-1.1,0.32-1.68,0.26
		c-0.93,0.09-1.72,0.67-2.67,0.71c-0.5,0.02-1.02,0.18-1.42-0.27c0.25-0.12,0.51-0.24,0.84-0.39c-0.36-0.03-0.62-0.05-0.88-0.08
		C17.29,8.49,19.2,8.16,21.14,8.14z"/>
	<path class="st53" d="M15.43,9.33c1.4,0.17,2.7-0.51,4.09-0.44c-0.16,0.29-0.5,0.16-0.81,0.37c0.96,0.4,0.7,1.37,1.07,2.06
		c0.15,0.51-0.17,0.93-0.28,1.38c-0.26,1.03-0.25,2,0.67,2.72c0.86,0.67,1.65,0.29,2.41-0.21c0.1-0.07,0.22-0.08,0.34-0.08
		c-0.07,0.7-0.19,1.39,0.39,1.99c0.2,0.21-0.06,0.59-0.19,0.87c-0.33,0.07-0.71-0.07-1,0.22c-1.1,0.01-2.2,0.02-3.31,0.03
		c-1.21,0.17-1.21,0.17-1.4-1.33c-0.27-0.48-0.76-0.78-1.07-1.23c-0.69-0.98-0.68-1.1,0.3-1.86c0.39-0.82,0.16-1.45-0.58-1.92
		c-0.37-0.13-0.62-0.39-0.79-0.74c-0.33-0.54-1.51-0.51-1.04-1.57C14.64,9.51,15.03,9.42,15.43,9.33z"/>
	<path class="st54" d="M14.24,9.6c0.07,0.56,0.28,0.97,0.94,1c0.18,0.01,0.52,0.12,0.24,0.45c-0.41,0.14-0.86,0.12-1.23,0.38
		c-0.25,0.56-0.13,1.17-0.29,1.55c0,0.02-0.02-0.15,0.08-0.3c0.6,0.02,0.5,0.52,0.58,0.87c0.2,0.89,0.31,1.8,0.62,2.86
		c-0.11-0.56-0.33-1.02,0.08-1.25c0.37-0.21,0.68,0.15,0.88,0.43c0.38,0.53,0.85,0.92,1.44,1.2c0.22,0.11,0.54,0.29,0.42,0.5
		c-0.71,1.21,0.25,0.91,0.83,0.97c-2.77,0.44-5.47,1.2-8.18,1.91c-0.73,0.18-0.62-0.22-0.33-0.56c0.36-0.42,0.75-0.79,0.44-1.4
		c-0.01-0.08-0.02-0.16-0.01-0.24c0.12-0.6-0.1-1.39,0.62-1.69c0.75-0.3,1.07,0.51,1.64,0.82c-0.82-0.7-1.22-1.36-0.68-2.55
		c0.4-0.88-0.4-1.78-1.2-2.4c-0.31-0.24-0.74-0.29-1.02-0.61c-0.08-0.25,0.54-0.38,0.02-0.79c-0.38-0.3,0.22-0.49,0.5-0.65
		C11.84,9.93,13.04,9.76,14.24,9.6z"/>
	<path class="st55" d="M10.83,18.21c0.68,0.4,0.69,0.79,0.03,1.25c-0.16,0.12-0.96,0.22-0.22,0.7c-1.72,0.67-3.46,0.97-5.29,0.48
		c1.4-1.06,1.07-2.45,0.74-3.84c-0.31-0.63,0.2-0.68,0.57-0.74c0.6-0.09,1.21-0.1,1.64,0.46c0.19,0.25,0.22,0.56,0.27,0.86
		c-0.21-1.82-0.53-3.61-1.54-5.2c0.99-0.54-0.02-1.08,0-1.62c1.2-0.16,2.4-0.31,3.59-0.47c-0.15,0.25-0.69,0.41-0.21,0.8
		c0.68,0.56-0.34,0.3-0.27,0.57C10.33,13.72,10.74,15.95,10.83,18.21z"/>
	<path class="st56" d="M22.92,15.13c-0.61,0.93-1.51,1.22-2.49,0.86c-1.01-0.37-1.34-1.25-1.35-2.31c-0.01-0.88,0.25-1.64,0.7-2.36
		c1.29-0.91,3.2,0.03,3.38,1.7C23.23,13.73,23.21,14.45,22.92,15.13z"/>
	<path class="st56" d="M26.07,12.2c-0.49-0.17-0.98-0.32-1.45-0.51c-0.25-0.1-0.59-0.2-0.43-0.57c0.14-0.32,0.43-0.28,0.72-0.19
		c0.46,0.14,0.92,0.28,1.38,0.39c0.59,0.15,0.72,0.53,0.63,1.08c-0.12,0.73-0.58,1.29-0.95,1.87c0.45,0.35,1.37-0.17,1.32,0.52
		c-0.04,0.61-0.88,0.24-1.35,0.3c-0.33,0.04-0.78,0.17-0.95-0.28c-0.19-0.5,0.32-0.77,0.49-1.16C25.54,13.12,26.07,12.77,26.07,12.2
		z"/>
	<path class="st57" d="M26.07,12.2c0.18,0.64-0.21,1.05-0.59,1.47C25.24,13,25.83,12.67,26.07,12.2z"/>
	<path class="st58" d="M7.04,12.19c0.62-0.05,0.66,0.51,0.83,0.86c0.67,1.43,0.86,2.99,1.08,4.53c0.04,0.28,0.25,0.74-0.18,0.81
		c-0.55,0.1-0.43-0.45-0.49-0.76c-0.24-1.31-0.52-1.53-1.76-1.32c-0.3,0.05-0.39,0.23-0.41,0.49c-0.26,0.65-0.5,1.3-0.78,1.94
		c-0.1,0.24-0.22,0.55-0.6,0.38c-0.4-0.18-0.12-0.39-0.03-0.63C5.49,16.4,6.26,14.29,7.04,12.19z"/>
	<path class="st59" d="M12.27,31.71c-0.57-0.3-1.05-0.72-1.48-1.2c-0.27-0.3-0.57-0.63-0.19-1.03c0.32-0.34,0.62-0.13,0.95,0.07
		c0.58,0.34,0.99,0.79,1.25,1.4C12.94,31.43,12.64,31.59,12.27,31.71z"/>
	<path class="st50" d="M12.27,31.71c0.18-0.25,0.36-0.51,0.53-0.76c0.23,0.02,0.5-0.03,0.7,0.07c0.45,0.22,1.33,0.21,1.14,0.9
		c-0.22,0.75-1,0.56-1.6,0.32C12.75,32.12,12.52,31.89,12.27,31.71z"/>
	<path class="st60" d="M12.55,27.64c-0.03,0.47-0.25,0.72-0.61,0.64c-0.67-0.14-1.08-0.66-1.25-1.28c-0.08-0.27,0.19-0.58,0.51-0.5
		C11.84,26.67,12.29,27.1,12.55,27.64z"/>
	<path class="st61" d="M17.57,16.79c-1.33,0.28-1.43-1.16-2.32-1.65c-0.15,0.72,0.42,1.36,0.04,2.35c-0.78-1.69-0.83-3.31-1.28-4.81
		c-0.23-0.45-0.22-0.91,0-1.36c0.39-0.49,0.86-0.52,1.39-0.26c0.25,0.24,0.5,0.48,0.75,0.72c0.72,0.54,1.08,1.19,0.68,2.09
		c-0.95,0.64-0.78,1.26-0.04,1.96C17.09,16.09,17.55,16.28,17.57,16.79z"/>
	<path class="st62" d="M16.84,13.86c0.08-0.8-0.18-1.48-0.68-2.09c0.87,0.33,1.2,1.14,0.88,2.16c0,0.01-0.07,0.01-0.1,0
		C16.89,13.91,16.87,13.88,16.84,13.86z"/>
	<path class="st63" d="M10.83,18.21c-0.11-0.11-0.3-0.2-0.31-0.32c-0.22-1.89-0.42-3.78-0.61-5.67c-0.03-0.28,0-0.56,0.25-0.76
		c2.03,0.36,3.05,2.2,2.11,3.91c-0.2,0.37-0.05,0.5,0.15,0.69c0.45,0.44,0.92,0.87,1.4,1.32c-0.74,0.65-1.04-0.02-1.45-0.31
		c-0.33-0.24-0.46-0.88-1.01-0.64c-0.54,0.23-0.24,0.77-0.26,1.18C11.09,17.86,11.06,18.07,10.83,18.21z"/>
	<path class="st64" d="M14.02,11.31c0,0.45,0,0.91,0,1.36c-0.11,0.24,0.08,0.54-0.2,0.78c0-0.74,0-1.45,0-2.16
		c0-0.01,0.06-0.04,0.09-0.03C13.95,11.27,13.99,11.29,14.02,11.31z"/>
	<path class="st65" d="M20.03,12.25c0.07-0.24,0.23-0.39,0.45-0.49c1.55,0.24,2.19,1.15,1.82,2.55c-0.17,0.63-0.53,0.98-1.19,0.92
		c-0.65-0.05-1.01-0.45-1.08-1.07C19.95,13.52,20.03,12.88,20.03,12.25z"/>
	<path class="st66" d="M20.03,12.25c0.41,0.49,0.18,1.06,0.2,1.59c0.03,0.67,0.21,1.23,0.95,1.25c0.74,0.02,0.91-0.53,1-1.2
		c0.18-1.34-0.71-1.76-1.7-2.13c1.07-0.52,1.58,0.29,1.91,0.99c0.4,0.85,0.33,1.82-0.47,2.49c-0.62,0.53-1.88,0.17-2.06-0.6
		C19.68,13.85,19.51,13.01,20.03,12.25z"/>
	<path class="st67" d="M7.94,15.72c-1.54,0.21-1.56,0.2-1.08-1.16c0.12-0.35,0.05-0.79,0.47-1.1C7.7,14.21,7.81,14.96,7.94,15.72z"
		/>
	<path class="st68" d="M14.69,11.54c0.74,0.41,1.12,0.85,1.36,1.39c0.27,0.61-0.05,1-0.62,1.16c-0.68,0.19-0.53-0.44-0.59-0.75
		C14.74,12.82,14.74,12.27,14.69,11.54z"/>
	<path class="st69" d="M10.54,12.28c0.93,0.51,1.38,1.08,1.47,1.89c0.06,0.52-0.19,0.87-0.71,0.93c-0.61,0.08-0.41-0.45-0.46-0.75
		C10.73,13.73,10.66,13.11,10.54,12.28z"/>
</g>
</svg>
