<?xml version="1.0" encoding="utf-8"?>
<!-- Generator: Adobe Illustrator 23.0.2, SVG Export Plug-In . SVG Version: 6.00 Build 0)  -->
<svg version="1.1" id="Camada_1" xmlns="http://www.w3.org/2000/svg" xmlns:xlink="http://www.w3.org/1999/xlink" x="0px" y="0px"
	 viewBox="0 0 36.43 39.06" style="enable-background:new 0 0 36.43 39.06;" xml:space="preserve">
<style type="text/css">
	.st0{fill:#FEFEFE;}
	.st1{fill:#430D0C;}
	.st2{fill:#4F433B;}
	.st3{fill:#685449;}
	.st4{fill:#9F1315;}
	.st5{fill:#776054;}
	.st6{fill:#4F433A;}
	.st7{fill:#836A5E;}
	.st8{fill:#B6A894;}
	.st9{fill:#A19A86;}
	.st10{fill:#C4453E;}
	.st11{fill:#953734;}
	.st12{fill:#F3ECE4;}
	.st13{fill:#A83B37;}
	.st14{fill:#823533;}
	.st15{fill:#F1E8DE;}
	.st16{fill:#681918;}
	.st17{fill:#B4AD9B;}
	.st18{fill:#DEC5AD;}
	.st19{fill:#D6B99C;}
	.st20{fill:#A09884;}
	.st21{fill:#F8EEDD;}
	.st22{fill:#E1CCB6;}
	.st23{fill:#E7DFCC;}
	.st24{fill:#E0CAB4;}
	.st25{fill:#E9D4BE;}
	.st26{fill:#E2CCB7;}
	.st27{fill:#ECD8C2;}
	.st28{fill:#BCB6A4;}
	.st29{fill:#E1CBB5;}
	.st30{fill:#B8B2A0;}
	.st31{fill:#C7C4B1;}
	.st32{fill:#EBD6BF;}
	.st33{fill:#C9C5B3;}
	.st34{fill:#C3BEAC;}
	.st35{fill:#BAB4A2;}
	.st36{fill:#D8D7C4;}
	.st37{fill:#F4E4CF;}
	.st38{fill:#E4CEB8;}
	.st39{fill:#B8B19F;}
	.st40{fill:#DEC5AE;}
	.st41{fill:#F2E9DE;}
	.st42{fill:#F2E9E0;}
	.st43{fill:#DCC4AC;}
	.st44{fill:#EEE6DC;}
	.st45{fill:#DABB9D;}
	.st46{fill:#FCF7F7;}
	.st47{fill:#FBF6F6;}
	.st48{fill:#FAF7F6;}
	.st49{fill:#FBF9F8;}
	.st50{fill:#FAF6F6;}
	.st51{fill:#DEC6AE;}
	.st52{fill:#B5AF9D;}
	.st53{fill:#B63D38;}
	.st54{fill:#933030;}
	.st55{fill:#893837;}
	.st56{fill:#9E2F2F;}
</style>
<g>
	<path class="st0" d="M0.02,15.14c0.12-2.1-0.25-5.37,0.26-8.62c0.31-1.94,0.98-3.3,3.19-3.91c5.12-1.43,10.32-2.07,15.59-2.44
		c1.79-0.13,3.55-0.23,5.35-0.11c2.32,0.15,3.5,1.62,4.23,3.38c2.97,7.08,5.4,14.34,6.72,21.93c0.26,1.49,0.49,2.99,0.81,4.47
		c0.65,3.01,0.15,4.01-2.71,5.18c-4.05,1.65-8.31,2.52-12.58,3.35c-3.51,0.68-7.05,0.92-10.61,0.48c-2.29-0.28-4.39-1.12-6.4-2.23
		c-1.93-1.07-2.86-2.81-3.04-4.87C0.37,26.6-0.12,21.47,0.02,15.14z"/>
	<path d="M1.23,15.04c0.12-2.01-0.25-5.29,0.26-8.54C1.71,5.1,2.21,4.21,3.78,3.75C8.83,2.26,14,1.72,19.22,1.35
		c1.67-0.12,3.31-0.23,4.99-0.14c1.9,0.1,2.83,1.35,3.4,2.75c2.87,6.99,5.33,14.11,6.58,21.6c0.26,1.53,0.55,3.06,0.88,4.57
		c0.47,2.15,0.16,2.82-1.88,3.69c-3.83,1.64-7.89,2.47-11.94,3.27c-3.62,0.72-7.28,1.01-10.96,0.54c-2.12-0.27-4.05-1.07-5.91-2.13
		c-1.5-0.86-2.23-2.21-2.36-3.8C1.59,26.58,1.08,21.45,1.23,15.04z"/>
	<path class="st1" d="M2.48,19.85c0-3.36,0-6.72,0-10.07c0.55-0.5,1.29-0.21,1.9-0.47C4.91,9.2,5.46,9.23,5.97,9.04
		c3-0.17,5.93-0.92,8.93-1.05c0.44,0.09,1.15-0.1,1.19,0.48c0.04,0.47-0.68,0.39-1.05,0.58c-0.91,0.25-1.82,0.55-2.78,0.59
		c-1.37-0.01-2.68,0.49-4.05,0.48c-1.11,0.14-2.22,0.26-3.34,0.31c-0.91,0.04-1.35,0.47-1.33,1.45c0.04,2.12,0.04,4.24,0,6.36
		c-0.01,0.91,0.31,1.42,1.25,1.55c1.11,0.16,2.21,0.34,3.33,0.08c2.9-0.62,5.67-1.77,8.63-2.2c1.92-0.46,3.91-0.23,5.84-0.56
		c0.5,0.03,1.01-0.02,1.5,0.1c0.49,0.17,1.01,0.13,1.51,0.2c0.27,0.04,0.62,0.09,0.6,0.43c-0.02,0.31-0.37,0.35-0.64,0.39
		c-0.31,0.05-0.63,0.03-0.94,0.05c-4.52,0.06-8.94,0.74-13.26,2.06c-1.03,0.31-2.07,0.56-3.12,0.78c-0.75,0.06-1.51,0.04-2.26,0.02
		c-0.86-0.01-1.68-0.22-2.48-0.54C3.12,20.43,2.7,20.27,2.48,19.85z"/>
	<path class="st2" d="M2.48,19.85c0.32,0.16,0.64,0.31,0.96,0.47c0.29,0.32,0.35,0.71,0.34,1.12c-0.07,3.11,0.29,6.2,0.48,9.3
		c0.07,1.1,0.37,2.03,1.26,2.71c0.54,0.36,1.12,0.64,1.72,0.89c2.08,1.02,4.3,1.11,6.55,1.02c0.41-0.01,0.82-0.01,1.22,0
		c1.99,0.17,3.93-0.31,5.9-0.45c0.3,0.05,0.8,0.08,0.74,0.42c-0.1,0.53-0.73,0.28-1.1,0.44c-0.03,0.01-0.08,0.04-0.09,0.07
		c-0.01,0.03,0.02,0.07,0.03,0.11c-5.07,1-10.08,1.37-14.9-1.1c-1.58-0.81-2.3-2.02-2.42-3.79C2.9,27.32,2.51,23.6,2.48,19.85z"/>
	<path class="st3" d="M20.49,35.94c-0.12-0.01-0.24,0.01-0.35-0.03c-0.33-0.13-0.1-0.19,0.04-0.22c0.37-0.09,0.81-0.07,1.11-0.26
		c0.37-0.23-0.11-0.16-0.16-0.25c-0.02-0.14,0.02-0.25,0.13-0.34c0.82-0.48,1.76-0.49,2.65-0.68c2.66-0.57,5.29-1.24,7.84-2.19
		c1.29-0.48,1.38-0.61,1.07-1.92c-0.27-1.17-0.63-2.32-0.65-3.53c0.06-0.33-0.01-0.76,0.42-0.88c0.32-0.09,0.09,0.43,0.39,0.43
		c0.6,1.74,0.75,3.57,1.06,5.37c0.12,0.7-0.49,0.93-1,1.16c-3.11,1.41-6.42,2.16-9.75,2.85C22.37,35.64,21.43,35.78,20.49,35.94z"/>
	<path class="st4" d="M24.5,17.98c0.5-0.03,1-0.07,1.62-0.11c-0.72-0.37-1.46,0.07-2.04-0.38c0.65-0.59,1.44-0.36,2.17-0.34
		c0.73,0.03,1.06-0.27,1.29-0.95c0.76-2.31,0.57-4.56-0.22-6.81c-0.29-0.82-0.81-1.24-1.7-1.21c-1.04,0.03-2.08-0.05-3.11,0.15
		C22,8.44,21.47,8.5,21,8.17c-0.01-0.82,0.61-0.26,0.85-0.42c-0.26-0.14-0.71,0.2-0.93-0.27c1.03-0.81,2.29-0.45,3.44-0.67
		c0.74-0.14,1.51-0.05,2.27-0.01c0.38,0,0.74,0.05,1.03,0.33c0.54,1.52,1.07,3.04,1.61,4.56c0.08,1.14,0.19,2.29-0.06,3.43
		c-0.01,0.4-0.12,0.79-0.21,1.17c-0.6,2.38-1.93,3.03-4.21,2.06C24.62,18.28,24.54,18.15,24.5,17.98z"/>
	<path class="st5" d="M27.66,7.13c-0.29,0-0.59,0-0.88,0c-0.74-0.53-0.88-1.4-1.19-2.16c-0.38-0.93-0.99-1.33-2.01-1.34
		c-2.63-0.03-5.23,0.21-7.84,0.41c-0.56,0.04-1.11,0.09-1.66-0.02c-0.53-0.36-1.43,0.19-1.74-0.71c3.73-0.68,7.49-0.72,11.26-0.82
		c1.57-0.05,2.35,0.76,2.98,1.88C27.06,5.22,27.31,6.21,27.66,7.13z"/>
	<path class="st6" d="M12.34,3.32c0.45,0.51,1.22-0.09,1.66,0.46c-0.32,0.51-0.86,0.51-1.37,0.57c-2.06,0.26-4.1,0.61-6.1,1.16
		C5.77,5.68,4.99,5.83,4.27,6.14C3.26,7.03,3.21,8.59,4.17,9.33c0.1,0.06,0.18,0.14,0.23,0.24c-0.6,0.44-1.28,0.13-1.92,0.21
		c-0.1-1.2,0.14-2.38,0.26-3.56C2.78,5.77,2.89,5.33,3.4,5.18C6.33,4.3,9.24,3.33,12.34,3.32z"/>
	<path class="st7" d="M32.99,26.06c-0.15-0.02-0.31-0.04-0.48-0.06c-0.01,0.03-0.04,0.22-0.07,0.41c-0.58-0.2-0.54-0.75-0.63-1.19
		c-0.62-3.1-1.49-6.12-2.42-9.13c-0.19-0.62-0.34-1.23-0.22-1.88c0.23-0.59-0.14-1.26,0.24-1.84
		C31.07,16.81,32.39,21.34,32.99,26.06z"/>
	<path class="st8" d="M29.41,12.37c-0.03,0.68-0.07,1.36-0.1,2.03c-0.21,0.17,0.14,0.66-0.38,0.66c0.11-1.12,0.22-2.25,0.33-3.37
		C29.32,11.91,29.37,12.14,29.41,12.37z"/>
	<path class="st0" d="M28.93,15.06c0.13-0.22,0.25-0.44,0.38-0.66c0.77,2.84,1.56,5.68,2.31,8.53c0.3,1.15,0.54,2.32,0.81,3.48
		c0.12,1.4,0.5,2.75,0.86,4.09c0.23,0.88-0.03,1.26-0.87,1.58c-3.63,1.39-7.41,2.2-11.22,2.92c-1.11,0.16-2.22,0.24-3.34,0.23
		c-0.75-0.16-1.27-0.62-1.66-1.25c-0.2-0.65-0.94-0.54-1.32-0.94c0-0.95-0.25-1.84-0.56-2.72c-0.12-0.35-0.45-0.84,0.28-0.99
		c0.51,0.12,0.66,0.66,1.06,0.91c0.3,0.19,0.66,0.46,0.94,0.08c0.27-0.38-0.09-0.65-0.35-0.89c-0.37-0.34-0.86-0.37-1.3-0.55
		c-0.45-0.33-0.95-0.57-1.48-0.75c-0.92-1.17-1.63-2.46-2.32-3.77c-0.3-0.47-0.78-0.81-1.01-1.33c-0.28-1.04-1.2-1.52-1.91-2.19
		c3.95-1.04,7.85-2.31,11.97-2.64c1.43-0.12,2.86-0.13,4.29-0.21c0.98,0.45,2.09-0.03,3.1,0.42c0.3,0.13,0.51-0.3,0.6-0.61
		C28.45,16.89,28.69,15.97,28.93,15.06z"/>
	<path class="st0" d="M6.33,5.24c2.5-0.8,5.1-1.02,7.67-1.47c3.31-0.16,6.61-0.48,9.92-0.48c0.88,0,1.44,0.23,1.75,1.06
		c0.35,0.93,0.73,1.85,1.1,2.78c-1.98,0.09-3.96,0.04-5.92,0.44c-0.88,0.67-1.96,0.36-2.93,0.62c-0.99,0.27-2.02-0.11-3.02,0.13
		c-2.4,0.3-4.81,0.62-7.21,0.91C7.1,9.3,6.5,9.29,5.91,9.33c-0.5,0.15-0.99,0.1-1.56,0.01c0.28-0.63,0.79-0.6,1.23-0.61
		c1.1-0.01,1.67-0.49,1.74-1.62C7.36,6.58,7.37,6,7.68,5.53C7.23,5.55,6.65,6.06,6.33,5.24z"/>
	<path class="st9" d="M13.76,35.7c-2.34,0.11-4.64,0.04-6.74-1.18c-0.03-1.2-0.23-1.3-1.42-0.73c-1.09-0.3-1.54-1.18-1.6-2.14
		c-0.23-3.77-0.75-7.54-0.56-11.33c0.81,0.18,1.62,0.37,2.43,0.55c0.49,0.41,0.59,1,0.71,1.58c-0.02,0.7,0.25,1.3,0.61,1.88
		c0.13,0.25,0.23,0.51,0.31,0.78c0.14,0.59,0.46,1.11,0.73,1.65c0.37,0.75,0.69,1.52,1.05,2.27c0.21,0.44,0.55,0.88-0.14,1.32
		c-0.48,0.31,0.01,0.66,0.28,0.79c0.99,0.46,1.61,1.26,2.14,2.16c0.48,0.83,1.48,0.69,2.18,1.1C14.06,34.84,13.95,35.27,13.76,35.7z
		"/>
	<path class="st10" d="M20.96,8.08c1.71-0.03,3.4-0.34,5.11-0.25c0.57,0.03,0.97,0.13,1.23,0.7c1.3,2.81,1.37,5.66,0.3,8.54
		c-0.13,0.36-0.3,0.53-0.79,0.47c-0.9-0.11-1.82-0.05-2.74-0.06c-0.48-0.01-0.96-0.02-1.44-0.03c0.43-1.01-0.65-1.48-0.82-2.27
		c0.05-0.4,0.32-0.72,0.43-1.1c0.53-1.82-0.26-3.11-2.2-3.62c-0.67-0.02-1-0.48-1.38-0.96c-0.6-0.77-0.4-1.18,0.48-1.41
		C19.76,8.07,20.36,7.68,20.96,8.08z"/>
	<path class="st11" d="M8.25,9.79c1.37-0.03,2.69-0.57,4.07-0.5c0.67,0.37,1.42,0.4,2.15,0.49c0.64,0.08,0.68,0.19,0.51,0.84
		c-1.02-0.11-1.26,0.48-1.12,1.33c0.21,1.25,0.47,2.5,0.76,3.74c-0.01-0.16,0.01,0.08,0,0.04c-0.23-1.29,0.07-1.68,1.08-0.6
		c0.42,0.45,0.85,0.82,1.41,1.04c0.33,0.51-0.09,0.79-0.34,1.12c-0.16,0.21-0.44,0.38-0.12,0.66c-2.84,0.57-5.55,1.67-8.41,2.16
		c-0.57,0.14-1.35,0.37-1.63-0.1c-0.29-0.48,0.44-0.92,0.74-1.37C7.58,18.3,8,18.13,8.1,17.71c0.12-1.26-0.24-2.45-0.5-3.65
		c-0.09-0.43-0.3-0.83-0.25-1.28C7.96,11.88,8,10.81,8.25,9.79z"/>
	<path class="st12" d="M6.34,22.49c-0.15-0.54-0.31-1.08-0.46-1.62c0.79-0.01,1.58-0.03,2.37-0.04c1.24,0.2,1.84,1.03,2.14,2.16
		c-0.6,0.35-1.05,0.75-0.45,1.45c0.62,0.72,1,0.07,1.44-0.27c0.72,1.31,1.44,2.61,2.16,3.92c0.34,0.43,0.72,0.81,1.2,1.08
		c0.05,0.11,0.04,0.21-0.03,0.3c-0.65,0.12-0.17,0.46-0.12,0.69c0.24,0.97,0.96,1.88,0.38,2.95c0.23,0.75,0.94,0.48,1.43,0.66
		c0.25,0.55,0.78,0.81,1.21,1.18c-0.3,0.36-0.69,0.31-1.09,0.26c-0.92-0.27-1.83-0.59-2.79-0.67c-1.32-0.07-2.42-0.5-2.89-1.87
		c-0.32-0.93-1.36-0.89-1.91-1.5c-0.24-0.26-0.55-0.49-0.43-0.91c0.15-0.55,0.62-0.07,0.9-0.27c-0.48-1.06-0.95-2.11-1.42-3.16
		c-0.08-0.2,0.05-0.29,0.21-0.32c0.93-0.14,0.55-0.51,0.17-0.9c-0.29-0.3-0.77-0.17-1.06-0.48c-0.1-0.23-0.19-0.47-0.29-0.7
		C7.18,23.64,7.16,22.93,6.34,22.49z"/>
	<path class="st13" d="M16.66,17.95c-0.23-0.09-0.89,0.17-0.37-0.51c0.29-0.39,0.75-0.66,0.83-1.2c-0.65-0.33-1.11-0.86-1.5-1.46
		c-0.25-0.37-0.32-0.74-0.01-1.08c0.74-0.8,0.4-1.5-0.16-2.2c-0.24-0.3-0.61-0.53-0.51-1c0.11-0.8-0.52-0.48-0.81-0.46
		c-0.75,0.06-1.33-0.19-1.8-0.76c0.92,0.07,1.73-0.48,2.64-0.5c1.03-0.02,1.94-0.63,2.98-0.63c0.39,0,0.79-0.16,1.11,0.19
		c-0.06,0.29-0.74,0.22-0.5,0.45c0.41,0.4,0.44,1.18,1.18,1.27c0.1,0.01,0.19,0.11,0.28,0.18c-0.1,0.58-0.6,0.91-0.83,1.42
		c-0.9,2.07,0.03,3.53,2.26,3.47c0.16,0,0.31,0.02,0.44,0.13c0.23,0.2,0.45,0.41,0.7,0.59c0.68,0.51,0.73,1.04,0.07,1.6
		C20.65,17.63,18.65,17.79,16.66,17.95z"/>
	<path class="st14" d="M8.47,17.9c-0.56,0.69-1.29,1.24-1.82,2.2c0.61,0,1.11,0,1.6,0c-1.55,0.5-3.05,0.17-4.56-0.22
		c-0.47-0.12-0.48-0.46-0.48-0.84c0-2.64,0-5.28-0.02-7.92c-0.01-0.58,0.13-0.86,0.78-0.91c1.43-0.1,2.85-0.28,4.27-0.43
		c0.22,1.07,0.27,2.1-0.72,2.86c-0.62-0.46-1.01-0.39-1.24,0.43c-0.42,1.49-1.03,2.92-1.54,4.39c0.26-0.33,0.34-0.76,0.48-1.14
		c0.32-0.88,1.02-0.89,1.76-0.82c0.72,0.07,1.02,0.52,1.08,1.2C8.09,17.14,8.04,17.61,8.47,17.9z"/>
	<path class="st15" d="M6.33,5.24c0.46,0.53,0.96-0.1,1.45,0.05c0.14,1-0.27,1.94-0.26,2.92c0,0.38-0.2,0.5-0.55,0.63
		C6.21,9.13,5.41,8.99,4.64,9.22c0.42,0.04,0.85,0.07,1.27,0.11C5.44,9.6,4.9,9.41,4.41,9.57C4.34,9.54,4.26,9.52,4.19,9.51
		C3.55,8.32,3.65,7.11,4.1,5.89C4.8,5.52,5.56,5.36,6.33,5.24z"/>
	<path class="st16" d="M19.05,8.36c-1.38,0.01-2.7,0.56-4.09,0.44c0.23-0.36,0.69-0.08,1.02-0.4c-0.4-0.03-0.73-0.06-1.07-0.08
		c1.97-0.39,3.94-0.72,5.95-0.75c0.34,0.03,0.69,0.06,1.06,0.1c-0.23,0.38-0.76,0.03-0.96,0.42C20.32,8.16,19.71,8.44,19.05,8.36z"
		/>
	<path class="st17" d="M16.42,34.95c0.4,0,0.8,0,1.2,0c1.2,0.02,2.4,0.03,3.61,0.05c-0.02,0.06-0.05,0.12-0.08,0.18
		c-2.06,0.17-4.08,0.76-6.18,0.52C15.13,34.82,15.73,34.82,16.42,34.95z"/>
	<path class="st18" d="M16.42,34.95c-0.63-0.03-1.04,0.36-1.45,0.75c-0.4,0-0.8,0-1.2,0.01c-0.33-0.38-0.04-0.78-0.03-1.17
		C14.73,33.97,15.55,34.62,16.42,34.95z"/>
	<path class="st19" d="M5.6,33.79c0.02-0.47,0.26-0.74,0.74-0.72c0.45,0.02,0.87,0.2,1.09,0.6c0.22,0.41-0.09,0.65-0.41,0.85
		C6.49,34.38,6.01,34.16,5.6,33.79z"/>
	<path class="st20" d="M4.1,5.89C4.13,7.1,4.16,8.31,4.19,9.51C3.5,9.68,3.15,9.5,3.2,8.7C3.26,7.96,3.25,7.21,3.4,6.47
		C3.48,6.03,3.68,5.85,4.1,5.89z"/>
	<path class="st21" d="M25.51,23.18c0.03,0.69-0.22,1.03-0.83,0.99c-0.98-0.06-1.02-0.81-1.08-1.54c-0.07-0.75,0.44-1.28,0.99-1.2
		C25.54,21.58,25.22,22.64,25.51,23.18z"/>
	<path class="st22" d="M14.71,29.47c0-0.08,0.01-0.16,0.01-0.24c-0.13-0.27,0.03-0.4,0.25-0.49c0.73-0.07,1.32,0.21,1.81,0.73
		c0.33,0.35,0.52,0.74,0.2,1.17c-0.29,0.38-0.69,0.28-1.09,0.11C15.28,30.5,14.96,30.02,14.71,29.47z"/>
	<path class="st23" d="M27.43,26.67c-0.03,0.34-0.25,0.66-0.51,0.53c-0.63-0.31-1.35-0.34-1.95-0.64c-0.43-0.21-0.55-0.72-0.25-1.14
		c0.32-0.43,0.71-0.31,0.98,0.09c0.22,0.33,0.52,0.31,0.84,0.35C27.01,25.92,27.31,26.22,27.43,26.67z"/>
	<path class="st24" d="M11.38,24.17c0.01,0.68-0.29,1.06-1,0.95c-0.84-0.13-1.03-0.89-1.1-1.49C9.19,22.89,9.9,23,10.39,22.99
		C10.72,23.38,11.05,23.78,11.38,24.17z"/>
	<path class="st25" d="M21.21,26.74c-0.05,0.63-0.42,1.12-1.12,1.25c-0.45,0.09-0.84-0.19-0.77-0.66c0.1-0.72,0.43-1.43,1.18-1.59
		C20.96,25.64,21.19,26.17,21.21,26.74z"/>
	<path class="st26" d="M12.07,21.86c0-0.24-0.01-0.47,0-0.71c0.01-0.25,0.05-0.49,0.35-0.53c0.27-0.04,0.47,0.11,0.56,0.35
		c0.2,0.52,0.31,1.05,0.3,1.62c-0.01,0.43-0.09,0.84-0.6,0.84c-0.52,0-0.6-0.42-0.6-0.85C12.08,22.33,12.08,22.1,12.07,21.86
		C12.08,21.86,12.08,21.86,12.07,21.86z"/>
	<path class="st27" d="M24.07,33.32C24.03,33.87,23.7,34,23.26,34c-0.69,0-1.12-0.4-1.28-1.01c-0.11-0.42,0.23-0.67,0.63-0.64
		C23.27,32.41,23.81,32.69,24.07,33.32z"/>
	<path class="st28" d="M18.61,29.7c0.04-0.28,0.28-0.75,0.91-0.74c0.55,0.01,0.74,0.49,0.66,0.94c-0.1,0.54-0.32,1.18-1.02,1.12
		C18.67,30.99,18.54,30.47,18.61,29.7z"/>
	<path class="st29" d="M14.94,26.38c-0.04,0.34-0.16,0.57-0.5,0.59c-0.5,0.03-1.42-0.95-1.37-1.48c0.04-0.36,0.26-0.65,0.63-0.55
		C14.4,25.15,14.74,25.74,14.94,26.38z"/>
	<path class="st30" d="M16.13,22.8c-0.1,0.45-0.12,1.09-0.87,1.13c-0.58,0.03-0.57-0.44-0.56-0.85c0.01-0.64,0.2-1.31,0.87-1.39
		C16.07,21.63,16.14,22.25,16.13,22.8z"/>
	<path class="st31" d="M25.6,32.1c-0.56-0.02-1.24,0.08-1.24-0.72c-0.01-0.66,0.59-0.47,0.99-0.5c0.58-0.04,1.22,0.05,1.25,0.73
		C26.62,32.2,25.99,32.06,25.6,32.1z"/>
	<path class="st32" d="M19.53,22.95c-0.03,0.45,0.12,1.02-0.65,0.99c-0.4-0.02-0.86-0.2-0.73-0.56c0.19-0.54,0.17-1.41,0.82-1.51
		C19.61,21.77,19.49,22.5,19.53,22.95z"/>
	<path class="st33" d="M22.16,23.01c-0.05,0.41,0.14,1.05-0.42,1.08c-0.69,0.04-0.53-0.64-0.53-1.08c0-0.44-0.17-1.13,0.52-1.09
		C22.3,21.95,22.1,22.6,22.16,23.01z"/>
	<path class="st34" d="M23.85,28.18c-0.03,0.39,0.01,0.84-0.45,0.75c-0.67-0.12-0.71-0.81-0.88-1.31c-0.13-0.37,0.18-0.62,0.56-0.55
		C23.7,27.2,23.83,27.71,23.85,28.18z"/>
	<path class="st35" d="M20.2,33.58c-0.39-0.07-0.98,0.14-0.95-0.43c0.03-0.59,0.61-0.63,1.1-0.59c0.4,0.03,1.03-0.12,0.97,0.51
		C21.26,33.7,20.6,33.5,20.2,33.58z"/>
	<path class="st36" d="M29.47,31.15c-0.41-0.06-0.93-0.13-0.88-0.69c0.03-0.37,0.44-0.56,0.83-0.5c0.48,0.07,0.85,0.36,0.83,0.85
		C30.25,31.25,29.8,31.12,29.47,31.15z"/>
	<path class="st35" d="M18.83,25.95c-0.07,0.47-0.35,0.62-0.7,0.56c-0.44-0.07-0.9-0.24-0.94-0.76c-0.03-0.37,0.32-0.4,0.61-0.38
		C18.25,25.41,18.65,25.54,18.83,25.95z"/>
	<path class="st37" d="M25.79,28.33c0.5,0.16,0.72,0.58,0.84,1.03c0.09,0.32-0.15,0.54-0.46,0.54c-0.74,0-0.65-0.67-0.8-1.11
		C25.28,28.54,25.5,28.37,25.79,28.33z"/>
	<path class="st38" d="M18.41,31.59c0.32,0.05,0.79-0.11,0.82,0.42c0.02,0.46-0.36,0.55-0.74,0.55c-0.37,0.01-0.77-0.04-0.82-0.48
		C17.61,31.53,18.08,31.63,18.41,31.59z"/>
	<path class="st39" d="M16.4,33.77c-1.34,0.42-1.62,0.28-1.43-0.66C15.51,33.2,16.33,32.68,16.4,33.77z"/>
	<path class="st17" d="M14.97,28.73c-0.08,0.16-0.16,0.33-0.25,0.49c-0.76,0-1.19-0.34-1.18-1.14
		C14.23,27.83,14.68,28.12,14.97,28.73z"/>
	<path class="st40" d="M7.3,25.12C7.57,25.11,7.88,25,8.1,25.1c0.55,0.23,1.1,0.59,1.07,1.26c-0.04,0.89-0.85,0.14-1.19,0.46
		C7.74,26.26,7.21,25.82,7.3,25.12z"/>
	<path class="st41" d="M7.32,30.76c-0.01,0.38-0.14,0.65-0.48,0.58c-0.69-0.15-1.21-0.57-1.43-1.25c-0.11-0.36,0.18-0.66,0.53-0.59
		C6.64,29.66,7.06,30.17,7.32,30.76z"/>
	<path class="st42" d="M9.7,33.25c0.44,0.11,1.09-0.08,1.16,0.57c0.06,0.53-0.47,0.45-0.79,0.41c-0.49-0.05-1.2,0.04-1.27-0.58
		C8.72,33.06,9.36,33.33,9.7,33.25z"/>
	<path class="st43" d="M6.34,22.49c1.31,0.29,1.48,0.75,0.68,1.93C6.49,23.89,6.21,23.26,6.34,22.49z"/>
	<path class="st44" d="M6.12,26.47c-0.01-0.39,0.05-0.79,0.43-0.76c0.59,0.05,0.49,0.6,0.51,1.01c0.01,0.32-0.03,0.75-0.41,0.72
		C6.06,27.39,6.19,26.82,6.12,26.47z"/>
	<path class="st45" d="M4.89,27.53c-0.05,0.26,0.06,0.7-0.35,0.59c-0.46-0.12-0.57-0.61-0.6-1.06c-0.02-0.26,0.1-0.49,0.41-0.44
		C4.87,26.71,4.87,27.14,4.89,27.53z"/>
	<path class="st46" d="M21.87,15.28c-1.03,0.42-2.01,0.52-2.79-0.49c-0.72-0.93-0.67-2.75,0.14-3.81c0.21-0.28,0.52-0.48,0.78-0.72
		c1.23,0,2.12,0.66,2.52,1.7C22.97,13.1,22.82,14.31,21.87,15.28z"/>
	<path class="st47" d="M25.46,13.75c0.54,0.29,1.38-0.13,1.35,0.46c-0.03,0.7-0.84,0.29-1.29,0.35c-0.32,0.04-0.76,0.18-0.97-0.23
		c-0.23-0.45,0.15-0.73,0.38-1.04c0.14-0.19,0.31-0.37,0.44-0.56c0.47-0.69,0.53-1.18-0.49-1.4c-0.43-0.09-1.31-0.04-1.13-0.71
		c0.19-0.69,0.91-0.15,1.34-0.03c1.57,0.42,1.77,1.02,0.89,2.45C25.83,13.27,25.66,13.48,25.46,13.75z"/>
	<path class="st48" d="M13.55,16.98c-1.68,0.3-1.93-1.23-3.01-1.64c0.03,0.6,0.05,1.17,0.08,1.73c0.01,0.26,0,0.52-0.31,0.53
		c-0.22,0-0.28-0.23-0.31-0.44c-0.19-1.82-0.4-3.64-0.56-5.46c-0.07-0.76,0.35-0.91,0.98-0.63c1.57,0.71,2.15,2.27,1.36,3.79
		c-0.2,0.38,0,0.51,0.19,0.69C12.42,15.97,12.89,16.38,13.55,16.98z"/>
	<path class="st49" d="M8.47,17.9c-0.7,0.14-0.58-0.4-0.7-0.8c-0.14-0.49,0.24-1.26-0.76-1.34c-0.92-0.08-1.52,0.1-1.69,1.12
		c-0.07,0.42-0.3,0.82-0.44,1.23c-0.09,0.26-0.25,0.44-0.52,0.35c-0.34-0.11-0.17-0.39-0.1-0.59c0.52-1.42,1.04-2.83,1.56-4.24
		c0.1-0.26,0.15-0.53,0.25-0.79c0.15-0.39,0-0.98,0.53-1.1c0.68-0.16,0.54,0.67,0.91,0.91C8.02,14.37,8.51,16.09,8.47,17.9z"/>
	<path class="st50" d="M14.94,10.51c0.38,0.45,0.8,0.87,1.13,1.35c0.3,0.44,0.51,1.13,0.17,1.45c-1.27,1.16-0.02,1.67,0.5,2.37
		c0.13,0.18,0.39,0.28,0.38,0.56c-1.34,0.31-1.44-1.13-2.33-1.64c-0.14,0.72,0.4,1.36,0.15,2.08c-0.14-0.06-0.31-0.08-0.33-0.14
		c-0.5-1.64-0.91-3.29-1.02-5C13.52,10.47,13.92,10.1,14.94,10.51z"/>
	<path class="st51" d="M11.79,31.17c-0.57-0.3-1.05-0.72-1.48-1.2c-0.27-0.3-0.57-0.63-0.19-1.03c0.32-0.34,0.62-0.13,0.95,0.07
		c0.58,0.34,0.99,0.79,1.25,1.4C12.47,30.89,12.16,31.05,11.79,31.17z"/>
	<path class="st17" d="M11.79,31.17c0.18-0.25,0.36-0.51,0.53-0.76c0.23,0.02,0.5-0.03,0.7,0.07c0.45,0.22,1.33,0.21,1.14,0.9
		c-0.22,0.75-1,0.56-1.6,0.32C12.28,31.58,12.05,31.35,11.79,31.17z"/>
	<path class="st52" d="M12.07,27.18c-0.05,0.42-0.29,0.66-0.64,0.56c-0.64-0.18-1.08-0.66-1.22-1.31c-0.06-0.28,0.22-0.56,0.54-0.46
		C11.37,26.17,11.86,26.55,12.07,27.18z"/>
	<path class="st53" d="M22.09,13.02c0.01,1.27-0.49,1.92-1.45,1.88c-1.17-0.05-1.38-0.86-1.37-1.82c0.01-1.31,0.48-2.07,1.29-2.04
		C21.29,11.06,22.09,12.09,22.09,13.02z"/>
	<path class="st54" d="M10.2,11.83c0.8,0.41,1.26,1,1.34,1.85c0.04,0.47-0.21,0.77-0.64,0.87c-0.6,0.13-0.48-0.36-0.52-0.68
		C10.29,13.22,10.05,12.58,10.2,11.83z"/>
	<path class="st55" d="M6.93,12.97c0.1,0.33,0.22,0.65,0.3,0.99c0.36,1.4,0.36,1.4-1.21,1.25c0.23-0.75,0.45-1.49,0.68-2.23
		C6.77,12.97,6.85,12.97,6.93,12.97z"/>
	<path class="st56" d="M14.21,10.91c0.73,0.53,1.17,0.95,1.39,1.55c0.21,0.57-0.1,0.92-0.61,1.08c-0.67,0.22-0.56-0.38-0.62-0.7
		C14.28,12.31,14.27,11.76,14.21,10.91z"/>
</g>
</svg>
