<?xml version="1.0" encoding="utf-8"?>
<!-- Generator: Adobe Illustrator 23.0.2, SVG Export Plug-In . SVG Version: 6.00 Build 0)  -->
<svg version="1.1" id="Camada_1" xmlns="http://www.w3.org/2000/svg" xmlns:xlink="http://www.w3.org/1999/xlink" x="0px" y="0px"
	 viewBox="0 0 141.84 79.92" style="enable-background:new 0 0 141.84 79.92;" xml:space="preserve">
<style type="text/css">
	.st0{fill:#010002;}
	.st1{fill:#C27321;}
	.st2{fill:#42270D;}
	.st3{fill:#3A230D;}
	.st4{fill:#4B2D12;}
	.st5{fill:#5C320E;}
	.st6{fill:#623D1C;}
	.st7{fill:#5E3919;}
	.st8{fill:#EBC32E;}
	.st9{fill:#E4B02F;}
	.st10{fill:#90531E;}
	.st11{fill:#D58130;}
	.st12{fill:#FCFBF0;}
	.st13{fill:#F7F6B8;}
	.st14{fill:#F5F4D0;}
	.st15{fill:#EFE8B7;}
	.st16{fill:#B76B18;}
	.st17{fill:#F1DA2A;}
	.st18{fill:#EEE332;}
</style>
<g>
	<path class="st0" d="M79.97,74.06c-7.53,0.02-13.66-3.1-19.9-5.83c-3.84-1.67-7.65-3.42-11.54-4.97
		c-7.48-2.98-12.78-8.75-18.28-14.23c-4.85-4.84-9.5-9.9-10.28-17.21c-0.21-1.94-1.89-2.38-3.22-3.04
		c-1.92-0.96-3.98-1.63-5.96-2.49c-4.49-1.97-5.7-5.62-3.5-9.98c1.78-3.53,4.47-6.21,7.57-8.5c2.62-1.94,6.22-1.69,9.01,0.54
		c1.49,1.2,2.87,2.54,4.25,3.87c2.3,2.22,4.29,4.72,8.25,3.66c1.97-0.53,3.97,0.72,5.54,2.1c8.61,7.59,18.66,12.73,29.54,15.82
		c17.35,4.93,34.71,6.16,51.1-3.67c4.51-2.71,7.43-0.59,11.58,4.56c2.7,3.34,1.87,6.14-0.48,9.86c-3.35,5.31-6.58,10.58-11.47,14.52
		c-9.87,7.96-20.85,13.58-33.77,14.5C85.46,73.79,82.53,74.9,79.97,74.06z"/>
	<path class="st1" d="M65.32,64.89c-3.16-1.42-6.32-2.84-9.48-4.26c-11.34-5.13-19.79-13.66-27.11-23.4
		c-2.06-2.75-3.44-6.06-2.72-9.76c0.54-1.03,1.34-1.72,2.48-2.01c1.94-0.2,3.12,1.06,4.12,2.37c4.78,6.25,10.22,11.85,16.34,16.79
		c1.13,1.29,2.54,2.17,4.06,2.93c7.11,3.53,14.36,6.81,22.05,8.72c9.24,2.29,18.56,1.5,27.79-0.56c1.51-0.34,2.95-1.07,4.57-0.79
		c2.54,0.77,3.64,2.31,2.67,4.96c-5.05,4.65-11.38,6.43-17.85,7.65C83.05,69.26,73.95,69.15,65.32,64.89z"/>
	<path class="st2" d="M26.47,27.45c0.1,6.18,3.43,10.82,7.4,15.06c5.89,6.31,12.25,12.09,19.84,16.36c0.78,0.44,1.82,0.7,2.13,1.76
		c-6.03-0.29-10.51-3.88-14.7-7.53c-4.85-4.23-9.51-8.75-13.41-13.96c-2.07-2.77-3.42-5.78-3.41-9.23c0-1.83-0.65-2.86-2.28-3.59
		c-2.94-1.33-5.72-2.98-8.83-3.94c-2.42-0.75-3.46-2.15-1.49-4.48c0.38-0.45,0.62-1.03,0.98-1.5c5.41-6.91,6.01-6.94,12.25-0.97
		c1.64,1.57,3.45,2.95,5.1,4.5c1.11,1.04,2.21,1.18,3.6,0.68c1.9-0.68,3.75-0.59,5.38,0.83c7.37,6.44,15.93,10.87,24.89,14.61
		c2.07,2.1,5.35,1.79,7.49,3.77c0.15,0.54,0.08,1.04-0.29,1.48c-2.7,0.62-4.8-1.28-7.24-1.74c-3.74-2.04-8.18-2.43-11.7-4.98
		c-4.81-3.08-9.68-6.06-13.94-9.92c-1.21-1.09-2.7-1.5-4.32-0.83c-0.94,0.24-1.86,0.63-2.87,0.44c-0.94-0.7-2.13-0.93-3.1-1.59
		c-2-2.21-4.14-4.29-6.28-6.36c-0.78-0.76-1.46-2.11-2.94-1.07c-4.34,3.98-4.34,3.98,0.62,6.62c1.88,1,3.65,2.18,5.52,3.19
		C25.76,25.54,26.83,26.06,26.47,27.45z"/>
	<path class="st3" d="M65.32,64.89c4.02,0.44,7.76,2,11.85,2.38c11.98,1.12,22.92-1.48,32.95-8.05c1.47-2.8,4.14-3.87,6.9-4.82
		c2.17,1.4,0.18,2.17-0.59,2.74c-1.9,1.39-4.07,2.4-5.7,4.17c-6.75,4.92-14.47,6.85-22.62,7.99c-6.84,0.96-13.25-0.03-19.6-2.3
		C67.27,66.57,65.95,66.24,65.32,64.89z"/>
	<path class="st4" d="M110.72,61.32c0.47-2.64,3.3-2.63,4.75-4.19c0.67-0.72,2.25-0.76,1.6-2.37c-0.22-1.72,1.18-2.49,2.11-3.5
		c2.1-2.27,4.57-4.21,6.09-6.98c0.87-1.41,1.52-2.94,1.65-4.59c0.14-1.83-0.53-2.88-2.45-1.67c-1.11,0.7-2.34,1.06-3.48,1.66
		c-1.37,0.7-2.77,1.3-4.33,1.4c-0.59-0.05-1.26-0.11-1.53-0.69c-0.47-1.02,0.59-1.06,1.07-1.43c1.17-0.91,3.11-0.46,3.84-2.15
		c0.82-0.46,1.61-0.98,2.45-1.38c1.67-0.79,3.05-3.16,5.28-1.13c2.14,1.95,2.71,4.5,1.83,7.12c-2.45,7.29-7.52,12.57-13.68,16.89
		C114.29,59.44,112.46,60.32,110.72,61.32z"/>
	<path class="st5" d="M71.06,41.06c0-0.45-0.01-0.91-0.01-1.36c2.94-0.49,5.65,1.58,8.62,0.8c1.04-0.01,2.12-0.29,2.98,0.59
		c4.93,1.4,9.98,1.1,15.01,1.13c1.88,0.02,3.76-0.04,5.89,0.05c-0.94-0.22-1.76,0.18-2.33-0.5c1.37-0.99,2.95-0.5,4.45-0.6
		c1.51,0.64,2.89-0.36,4.34-0.38c1.03-0.01,2.58-0.63,2.04,1.52c-2.79,2.58-6.41,2.46-9.76,2.66c-9.29,0.55-18.55,0.06-27.69-1.94
		C73.23,42.72,71.69,42.69,71.06,41.06z"/>
	<path class="st6" d="M112.13,41.88c-0.81-1.09-1.83-0.75-2.86-0.42c-1.24,0.4-2.49,0.81-3.61-0.29c4.9-1.11,9.77-2.29,14.38-4.37
		c0.43,0.15,1.5,0.17,0.37,0.82c-1.3,0.74-2.77,1.17-4.12,1.83c-1.39,0.68-0.35,0.82,0.28,1.01
		C115.62,42.61,114.08,42.88,112.13,41.88z"/>
	<path class="st7" d="M79.67,40.49c-3.04,1.55-5.77-0.33-8.62-0.8c-2.42-0.87-4.85-1.71-7.26-2.62c-1.01-0.38-1.09-0.81,0.12-1.02
		C69.09,37.81,74.25,39.61,79.67,40.49z"/>
	<path class="st7" d="M97.72,42.55c-5.52,0.02-11.05,0.24-16.45-0.97c0.07-0.08,0.17-0.33,0.33-0.38c0.34-0.1,0.7-0.08,1.05-0.12
		c5.02,0.26,10.04,0.52,15.07,0.78c0.24,0.15,0.31,0.3,0.24,0.46C97.88,42.48,97.8,42.55,97.72,42.55z"/>
	<path class="st6" d="M97.72,42.55c0-0.23,0-0.46,0-0.69c1.17-0.03,2.33-0.06,3.5-0.1c0.93,0.06,1.86,0.12,2.8,0.17
		c0.01,0.2,0.02,0.41,0.02,0.61C101.93,42.55,99.83,42.55,97.72,42.55z"/>
	<path class="st8" d="M107.79,55.49c-6.47,1.68-12.97,2.77-19.71,3.08c-9.68,0.45-18.39-2.43-26.94-6.25
		c-4.63-2.07-9.82-3.29-13.19-7.59c0.75-0.88,1.82,0.04,2.64-0.46c0.36-2.84-3.65-6.38,1.35-8.47c2.28,0.39,4.23,1.36,5.59,3.31
		c2.65,9.25,10.22,11.25,18.33,12.46c7.75,1.15,15.55,0.65,23.33,0.79c2.97,0.06,6.02-0.05,8.56,1.98
		C107.99,54.72,108,55.1,107.79,55.49z"/>
	<path class="st9" d="M51.62,36.27c-1.88,1.51-1.46,3.26-0.74,5.2c0.51,1.38,1.87,3.12,0.85,4.26c-1.15,1.28-2.28-1.34-3.78-1
		c-5.88-4.54-11.07-9.74-15.41-15.79c-0.94-1.31-1.97-2.77-3.86-2.96c-0.86-2.21,0.67-2.22,2.13-2.3c0.9-0.18,1.81-0.36,2.71-0.54
		c1.11,0.33,2.26,0.52,3.13,1.44c4.13,4.33,9.38,7.12,14.32,10.33C51.38,35.27,51.64,35.7,51.62,36.27z"/>
	<path class="st10" d="M30.8,23.67c-0.92,0.58-2.16,0.85-2.13,2.3c-0.74,0.49-1.47,0.98-2.21,1.47c-2.98-2.8-6.68-4.45-10.3-6.13
		c-2.6-1.2-3.04-2.27-0.78-4.15c1.09-0.9,2.15-1.84,3.22-2.76c2.04-0.08,3.06,1.52,4.3,2.69c1.96,1.85,3.84,3.78,5.75,5.67
		C29.65,22.4,30.28,22.91,30.8,23.67z"/>
	<path class="st11" d="M107.79,55.49c0.01-0.22,0.02-0.45,0.03-0.67c2.47-2.63,6.25-3.12,8.88-5.47c2.69-1.86,5.19-3.97,7.58-6.2
		c1.18-0.12,1.41,0.68,1.55,1.58c-1.97,4.17-5.83,6.7-8.77,10.03c-2.32,1.49-4.63,2.98-6.95,4.47
		C109.73,57.74,109.26,56.3,107.79,55.49z"/>
	<path class="st12" d="M112.13,41.88c1.59-0.14,3.09-0.54,4.44-1.42c1.41-0.5,2.81-1,4.22-1.51c0.09,0.17,0.18,0.34,0.27,0.5
		c-0.11,1.99-1.86,2.32-3.16,3.04c-6.65,3.7-13.59,6.59-21.27,7.28c-11.82,0.76-22.93-1.97-33.59-6.86
		c-0.76-0.35-1.45-0.83-1.68-1.74c0.12-1.78,0.77-2.92,2.84-2.32c2.29,0.73,4.58,1.46,6.87,2.2c8.02,2.36,16.26,3.03,24.55,3.14
		C101.21,44.27,106.81,43.99,112.13,41.88z"/>
	<path class="st13" d="M50.84,35.55c-6.5-3.12-12-7.66-17.32-12.42c1.6-0.83,3.13-1.11,4.62,0.29c4.4,4.1,9.49,7.26,14.59,10.39
		C52.33,34.65,51.7,35.22,50.84,35.55z"/>
	<path class="st14" d="M50.84,35.55c0.1-1.16,0.8-1.66,1.89-1.74c3.5,2.42,7.9,2.78,11.46,5.05c-1.46,0.02-1.94,1.13-2.45,2.21
		c-2.47,1.17-3.71-0.59-5.06-2.11c-1.69-0.9-3.37-1.79-5.06-2.69C51.36,36.03,51.1,35.79,50.84,35.55z"/>
	<path class="st15" d="M28.65,22.78c-3.73-2.33-6.2-6.17-10.05-8.36c0.29-0.75,0.98-1.38,1.57-0.75C23,16.7,26.78,18.85,28.65,22.78
		z"/>
	<path class="st16" d="M125.83,44.72c-0.49-0.48-0.97-0.95-1.46-1.43c-2.24-0.4-2.97-2.02-3.25-4c-0.17-0.06-0.28-0.17-0.34-0.34
		c0.92-0.47,1.89-0.86,2.75-1.42c1.15-0.75,2.2-2.08,3.68-0.85c1.28,1.07,0.94,2.6,0.52,3.94C127.3,42.06,126.99,43.6,125.83,44.72z
		"/>
	<path class="st17" d="M56.67,38.96c1.69,0.7,3.37,1.41,5.06,2.11c10.98,5.83,22.78,8.07,35.11,7.91
		c5.94-0.34,11.89-0.48,17.84-0.25c0.96,0.04,1.9,0.26,2.57,1.07c-2.71,2.5-6.06,3.8-9.44,5.02c-2.81-1.03-5.71-1.45-8.71-1.47
		c-9.97-0.08-19.99,0.69-29.79-2.08C62.84,49.44,57.84,46.2,56.67,38.96z"/>
	<path class="st18" d="M117.26,49.8c-6.81-0.19-13.65,0.38-20.41-0.81c7.41-1.07,14.23-3.79,20.76-7.34
		c1.24-0.67,2.68-1.06,3.51-2.35c1.09,1.34,2.17,2.67,3.26,4C123.04,46.59,119.86,47.87,117.26,49.8z"/>
</g>
</svg>
