<?xml version="1.0" encoding="utf-8"?>
<!-- Generator: Adobe Illustrator 23.0.2, SVG Export Plug-In . SVG Version: 6.00 Build 0)  -->
<svg version="1.1" id="Camada_1" xmlns="http://www.w3.org/2000/svg" xmlns:xlink="http://www.w3.org/1999/xlink" x="0px" y="0px"
	 viewBox="0 0 90.55 78.94" style="enable-background:new 0 0 90.55 78.94;" xml:space="preserve">
<style type="text/css">
	.st0{fill:#FEFEFE;}
	.st1{fill:#3D3D3D;}
	.st2{fill:#010002;}
	.st3{fill:#82441E;}
	.st4{fill:#A6571C;}
	.st5{fill:#8E4B1E;}
	.st6{fill:#974F1B;}
	.st7{fill:#B97F25;}
	.st8{fill:#C38628;}
	.st9{fill:#C28628;}
	.st10{fill:#D1902B;}
	.st11{fill:#D9A24A;}
	.st12{fill:#F6F5B7;}
	.st13{fill:#E4B35C;}
	.st14{fill:#EAC361;}
	.st15{fill:#F9F3AA;}
	.st16{fill:#DFA74F;}
	.st17{fill:#E1AA52;}
	.st18{fill:#C98B2C;}
	.st19{fill:#D99938;}
	.st20{fill:#F8F4A2;}
	.st21{fill:#E4B45C;}
	.st22{fill:#C88026;}
	.st23{fill:#DD9E3B;}
	.st24{fill:#DA9732;}
	.st25{fill:#D49330;}
</style>
<g>
	<path class="st0" d="M89.63,46.15c-0.6,5.59-0.18,11.22-1.09,16.81c-0.55,3.35-2.11,5.48-4.83,7.48
		c-8.16,5.99-17.27,8.79-27.22,8.47c-7.2-0.23-14.26-1.75-20.42-5.85c-2.23-1.48-4.56-2.55-7.11-3.32
		c-9.58-2.88-16.88-9.1-22.7-16.87C0.86,45.7,0.32,37.11,1.21,28.46c0.3-2.97,0.94-5.91,1.55-8.84C4.74,10.16,15.18,1.44,24.93,0.36
		C29.59-0.15,34.18,0,38.8,0.12c7.3,0.19,12.54,4.98,18.25,8.6c2.61,1.66,4.69,4.04,6.68,6.49c2.9,3.57,6.62,6.23,10.81,8.15
		c7.57,3.47,13.11,8.69,15.15,17.05"/>
	<path class="st1" d="M89.63,46.15c0.02-1.91,0.04-3.83,0.06-5.74"/>
	<path class="st2" d="M84.63,50.71c0.08,3.37-0.19,7.78-0.85,12.17c-0.17,1.15-0.51,2.06-1.42,2.76
		C68.84,76.1,50.35,77.23,36.95,67.99c-1.91-1.32-4.09-1.99-6.27-2.62C22,62.86,15.45,57.22,10.19,50.31
		c-5.35-7.03-4.83-15.43-4.02-23.8C6.92,18.83,10.4,13.13,16.39,8.4c5.02-3.96,10.77-3.48,16.39-3.74
		c11.95-0.56,20.48,5.73,27.85,14.34c3.95,4.62,9.25,7.63,14.6,10.26c7.5,3.68,10.24,9.54,9.41,17.52
		C84.55,47.72,84.63,48.69,84.63,50.71z"/>
	<path class="st3" d="M75.42,64.25c-2.53,2.34-5.46,3.73-8.95,3.92c-9.27,0.48-18.63,2.11-27.07-3.86
		c-2.39-1.69-5.36-2.66-8.17-3.63c-7.07-2.45-12.46-7.16-16.97-12.82C9,41.28,9.8,33.58,11.16,25.92c1.02,1.04,0.25,2.2,0.3,3.3
		c0.19-0.97,0.21-2.02,0.57-2.97c0.46-1.21,1.17-1.8,2.33-0.66c0.16,0.34,0.23,0.7,0.22,1.08c-0.29,3.55-1.14,7-0.75,10.69
		c0.75,7.04,5.36,11.23,10.19,15.41c8,5.31,16.94,8.65,25.87,11.85c4.5,1.61,9.42,0.88,14.16,0.45c4.06-0.51,7.33-2.42,9.88-5.59
		c1.32-1.28,2.27-2.99,4.2-3.56c2.51,1.8,0.21,3.42-0.29,5.03C77.44,62.25,75.74,62.78,75.42,64.25z"/>
	<path class="st4" d="M40.92,10.02c5.42,2.57,10.6,5.5,14.56,10.16c4.23,4.98,9.06,9.25,15.16,11.72c5.26,2.13,8.53,5.71,9.78,11.21
		c0.25,0.98,0.56,2.13-1.13,1.32c-0.76-0.36-1.1-1.29-1.27-2.1c-0.83-3.93-3.42-6.01-7-7.43c-3.53-1.4-6.42-4.2-10.31-4.88
		c-2.21-0.64-3.7-2.31-4.84-4.07c-3.23-4.96-7.72-8.37-12.72-11.28c-1.43-0.83-2.86-1.75-3.51-3.44
		C39.7,10.42,39.8,9.68,40.92,10.02z"/>
	<path class="st5" d="M40.92,10.02c-0.67,0.34-0.89,0.92-0.87,1.62c-1.07,0.84-2.26,0.36-3.4,0.31c-4.36-0.16-8.71-0.24-12.81,1.62
		c-1.49,0.62-2.56,1.77-3.64,2.91c-1.98,1.86-2.86,4.34-3.92,6.74c-0.48,1.08-0.34,2.74-2.18,2.81c-2.8-0.23-1.33,2.65-2.77,3.68
		c-0.06-1.34-0.11-2.57-0.17-3.79c0.07-6.74,4.22-10.86,9.17-14.55c1.76-1.31,3.8-1.47,5.75-1.72C31.03,9.03,36.01,8.67,40.92,10.02
		z"/>
	<path class="st6" d="M60.88,29.55c2.93-0.82,4.65,1.72,6.97,2.56c1.32,0.48,2.4,1.69,3.72,2.07c4.29,1.21,6.51,4.07,7.39,8.28
		c0.26,1.23,0.43,1.19,1.45,0.65c2.28,6.68-0.13,16.86-4.99,21.15c-0.98-1.61,0.95-1.76,1.36-2.69c0.75-1.72,2.58-3.17,1.28-5.37
		c-1.46-2.18-0.87-4.56-0.57-6.87c0.17-1.29,0.52-2.55,0.16-3.84c-1.41-6.04-5.86-9.18-11.09-11.56c-1.72-1.48-4-2.17-5.56-3.89
		C60.96,29.87,60.92,29.71,60.88,29.55z"/>
	<path class="st7" d="M64.51,65.62c-5.76,1.36-11.64,1.54-17.08-0.7c-7.13-2.93-14.37-5.69-21.14-9.46
		c-1.02-0.57-1.88-1.42-2.81-2.14c-0.58-1.82-2.35-2.67-3.4-4.1c-2.68-3.68-5.64-7.28-4.13-12.36c1.45-1.08,2.49-0.05,3.39,0.81
		c1.2,1.15,2.61,1.52,4.17,1.67c4.07,4.34,9.75,6.11,14.66,9.1c1.32,0.94,2.97,1.47,4.01,3.41c-0.33-2.47,0.4-4.33,1.44-6.11
		c0.92-0.78,1.38-2.92,3.2-1.11c0.18,1.35-0.66,2.38-1.13,3.52c-1.16,6.2,3.58,12.16,10.27,12.86c1.18,0.12,2.37,0.01,3.55,0.09
		C62.4,61.25,63,63.93,64.51,65.62z"/>
	<path class="st8" d="M23.4,39.7c-1.61,0.51-3.02,0.27-4.23-1.02c-0.8-0.86-1.55-1.89-2.93-1.87c-2.16-1.34-2.17-3.56-2.19-5.68
		c-0.01-1.43-0.1-2.86,0.05-4.29c0-0.27,0-0.54,0-0.81c1.99-3.34,2.16-7.7,5.73-10.16c0.97,1.17,0.44,2.5,0.36,3.75
		c-0.35,5.62,0.19,11.09,2.41,16.33C22.87,37.2,23.91,38.28,23.4,39.7z"/>
	<path class="st9" d="M64.51,65.62c-1.41,0.16-2.11-0.53-2.45-1.87c-0.33-1.3-1.26-1.9-2.63-1.75c1.38-2.21,2.89-4.31,4.64-6.24
		c0.8-0.72,1.62-1.42,2.77-1.49c1.9,0.61,3.19,2.39,5.58,2.26c1.76-0.1,2.18,1.77,2.23,3.39C72.01,63.14,68.95,65.62,64.51,65.62z"
		/>
	<path class="st10" d="M74.65,59.92c-1.12-1.72-1.86-3.86-4.78-2.51c-2.39,1.11-1.18-2.95-3.27-2.62c-0.33-1.58,0.75-2.62,1.81-3.13
		c3.22-1.56,5.76-3.88,8.17-6.41c0.89,0.29,1.16,0.99,1.15,1.54c0.09,0.78,0.81,0.18,0.37,0.34c-0.12,0.04-0.27-0.31-0.31-0.55
		c-0.11-0.69-0.26-1.39,0.47-1.87c1.29,3.85-0.74,7.65-0.2,11.49C76.92,57.44,75.78,58.68,74.65,59.92z"/>
	<path class="st11" d="M14.1,26.84c1.27,3.2,0.42,6.86,2.14,9.97c-0.3,5.35,2.23,9.46,5.62,13.29c0.75,0.84,2.91,1.27,1.61,3.23
		C12.63,45.78,11.02,36.01,14.1,26.84z"/>
	<path class="st12" d="M22.89,13.19c5.48-3.15,11.32-2.33,17.16-1.55c6.43,4.04,13.12,7.74,17.12,14.66
		c0.81,1.41,2.13,2.57,3.71,3.25c0,0-0.12,0.15-0.12,0.15c-1.79,2.43-3.1,0.18-4.09-0.7c-3.11-2.77-6.31-5.39-9.66-7.85
		c-2.13-1.56-4.13-3.18-6.99-3.06c-0.7,0.03-1.38-0.35-1.62-1.16c0.27-0.94,1.04-1.23,1.88-1.44c0.11-0.03,0.31,0.07,0.35-0.15
		c-0.24-0.01-0.48-0.04-0.72-0.07c-4.83-1.73-9.78-1.5-14.75-0.87C22.57,14.85,22.56,14.85,22.89,13.19z"/>
	<path class="st13" d="M22.89,13.19c0.18,1.82,1.38,0.17,1.98,0.58c2.09-0.73,3.54-0.65,2.89,2.21c-0.14,0.61,0.1,1.15,0.44,1.66
		c0.27,0.4,0.52,0.81,0.75,1.24c5.37,6.55,12,11.56,19.28,15.76c0.96,0.55,2.07,0.53,3.13,0.68c1.64,0.24,3,0.84,3.29,2.73
		c-0.62,1.6-2.06,2.15-3.46,2.77c-1,0.16-2.04,1.16-2.99,0.36c-1.12-0.95,0.62-1.78,0.41-2.85c-2.32,0.6-3.68,2.42-5.28,3.92
		c-0.63,0.57-1.25,1.18-2.15,1.32c-6.4-3.59-12.04-8.23-17.47-13.2c-1.23,1.52-0.42,2.68-0.43,3.8c-0.01,1.06,0.71,2.53-1.28,2.65
		c-3.1-6.73-3.67-13.73-2.18-20.93C20.68,14.8,21.48,13.64,22.89,13.19z"/>
	<path class="st14" d="M54.39,38.18c-0.47-0.86-1.08-1.76-2.03-1.9c-8.71-1.26-14.29-7.42-20.34-12.85c-0.97-0.87-1.92-1.8-3-2.51
		c-0.94-0.61-0.97-1.23-0.52-2.08c2.89-3.05,6.44-2.95,10.14-2.14c7.63,0.65,12.13,6.36,17.45,10.75c1.37,1.13,2.35,3.1,4.68,2.25
		c2.18,0.84,4.21,1.95,6.01,3.45c0.53,1.59,2.18,1.61,3.32,2.33c1.97,1.25,4.15,2.24,4.73,4.83c-0.16,0.68-0.24,1.38-0.33,2.07
		c-0.29,2.32-1.42,2.45-3.06,1.12c-0.66-0.67-1.31-0.49-1.96,0.04c-4.8,1.22-8.38-1.27-11.89-3.94
		C56.94,38.2,55.22,39.18,54.39,38.18z"/>
	<path class="st15" d="M74.38,40.45c-1.22-2.49-3.39-3.88-5.72-5.2c-0.74-0.42-2.67-0.18-1.9-2.09c5.27,2.42,10.2,5.18,11.49,11.55
		c0,1,0,2,0,3.19c-1.26-0.56-1.01-1.72-1.63-2.34C75.21,44.14,74.45,42.45,74.38,40.45z"/>
	<path class="st16" d="M64.54,56.31c-1.91,1.72-2.06,5.01-5.11,5.7c-6.26,1.02-10.57-2.59-14.27-6.67c-1.81-1.99-1.22-5.13-0.2-7.76
		c1.19-0.23,1.46-1.45,2.27-2.08c0.79-0.61,1.57-1.64,2.64-0.35c0.52,1.85,1.71,3.06,3.47,3.82c2.73,1.19,5.43,2.49,8.25,3.46
		C63.5,53.08,64.71,54.13,64.54,56.31z"/>
	<path class="st17" d="M22,36.81c1.71-1.56-0.24-3.13,0.02-4.69c0.17-0.99-0.6-2.37,0.72-2.85c0.89-0.33,1.86,0.41,2.5,1.11
		c4.69,5.19,10.9,8.46,16.17,12.9c-0.52,2.35-0.03,5.32-3.56,5.82c-4.92-2.96-10.98-4.19-14.44-9.4
		C23.09,38.66,21.87,38.06,22,36.81z"/>
	<path class="st18" d="M37.84,49.1c2.24-1.29,1.73-4.27,3.56-5.82c0.49-0.48,0.98-0.96,1.47-1.44c2.21-0.82,2.29,0.7,2.23,2.14
		c-0.03,0.74-1.19,1.16-0.82,2.13c-1.16,2.01-1.68,4.18-1.33,6.87C41.03,51.53,39.44,50.31,37.84,49.1z"/>
	<path class="st19" d="M44.28,46.12c-1.36-1.13,2.17-3.88-1.41-4.27c1.26-1.94,2.93-3.41,5.07-4.31c0.73-0.31,1.61-1.13,2.27-0.39
		c0.98,1.09-0.5,1.54-0.94,2.25c-0.25,0.39-0.62,0.71-0.95,1.08c0.9,1.27,1.78-1.36,2.6,0.07c-0.49,2.42-1.95,3.84-4.37,4.28
		C45.06,43.98,44.92,45.49,44.28,46.12z"/>
	<path class="st20" d="M46.55,44.82c1.46-1.43,2.92-2.86,4.37-4.28c1.16-0.78,2.31-1.57,3.47-2.35c1.12,0.57,2.86-2.11,3.56,0.68
		c-2.21,2.9-5.46,4.22-8.61,5.71c-1.85,0.44-1.9,3.49-4.38,3C45.49,46.66,46.02,45.74,46.55,44.82z"/>
	<path class="st21" d="M49.33,44.57c2.3-2.76,5.73-3.82,8.61-5.71c2.29,2.96,6.16,2.82,9.06,4.57c1.12,0.68,1.65-0.63,2.5-0.87
		c0.72,0.77,1.44,0.81,2.16,0.01c0.66,0.18,0.79,1.39,1.67,1.01c0.61-0.26,0.5-1,0.43-1.57c-0.08-0.64-0.6-1.43,0.61-1.56
		c0.91,1.63,2.1,3.14,2.24,5.1c-1.36,2.68-3.13,4.83-6.19,5.76c-1.72,0.52-2.85,1.99-3.83,3.48c-0.69,0.51-1.37,1.01-2.06,1.52
		c-1.32-3.57-5.15-3.21-7.7-4.86c-1.37-0.89-2.99-1.46-4.56-1.98C49.85,48.65,48.97,47.02,49.33,44.57z"/>
	<path class="st14" d="M27.73,18.08c-0.92-0.49-1.61-1.11-0.98-2.24c1.41-2.55-0.57-1.99-1.87-2.07c5.45-1.22,10.84-1.73,15.92,1.36
		C36.52,16.47,31.9,16.31,27.73,18.08z"/>
	<path class="st22" d="M27.73,18.08c3.93-2.85,8.48-2.98,13.07-2.95c-0.24,1.01-0.24,1.01-2.17,1.57c-3.4,0.61-6.92,0.65-10.14,2.14
		C28.23,18.59,27.98,18.34,27.73,18.08z"/>
	<path class="st23" d="M67.25,36.32c0.68-0.03,1.15,0.38,1.27,0.95c0.17,0.79-0.29,1.34-1.07,1.48c-0.67,0.12-1.13-0.37-1.27-0.94
		C65.99,37.01,66.49,36.54,67.25,36.32z"/>
	<path class="st24" d="M71.67,42.57c-0.07,0.77,0.22,1.85-0.91,1.97c-1.48,0.15-1.13-1.12-1.25-1.97
		C70.23,42.07,70.95,42.12,71.67,42.57z"/>
	<path class="st25" d="M60.81,49.49c-0.25,0.93-0.62,1.54-1.46,1.46c-0.79-0.08-1.21-0.66-1.22-1.44c-0.02-0.92,0.62-1.15,1.39-1.14
		C60.39,48.37,60.71,48.9,60.81,49.49z"/>
</g>
</svg>
