<?xml version="1.0" encoding="utf-8"?>
<!-- Generator: Adobe Illustrator 23.0.2, SVG Export Plug-In . SVG Version: 6.00 Build 0)  -->
<svg version="1.1" id="Camada_1" xmlns="http://www.w3.org/2000/svg" xmlns:xlink="http://www.w3.org/1999/xlink" x="0px" y="0px"
	 viewBox="0 0 91.53 82.89" style="enable-background:new 0 0 91.53 82.89;" xml:space="preserve">
<style type="text/css">
	.st0{fill:#010002;}
	.st1{fill:#82441E;}
	.st2{fill:#A6571C;}
	.st3{fill:#8E4B1E;}
	.st4{fill:#974F1B;}
	.st5{fill:#B97F25;}
	.st6{fill:#C38628;}
	.st7{fill:#D1902C;}
	.st8{fill:#D9A24A;}
	.st9{fill:#F6F5B7;}
	.st10{fill:#E4B35C;}
	.st11{fill:#EAC361;}
	.st12{fill:#F9F3AA;}
	.st13{fill:#DFA74F;}
	.st14{fill:#E1AA52;}
	.st15{fill:#C98B2C;}
	.st16{fill:#D99938;}
	.st17{fill:#F8F4A2;}
	.st18{fill:#E4B45C;}
	.st19{fill:#C88026;}
	.st20{fill:#DD9E3B;}
	.st21{fill:#DA9732;}
	.st22{fill:#D49330;}
</style>
<g>
	<path class="st0" d="M84.29,51.89c0.19,4.44-0.32,8.84-0.87,13.23c-0.13,1.02-0.44,1.86-1.22,2.48
		c-12.91,10.17-31.16,11.99-45.1,2.83c-1.94-1.27-4-2.16-6.2-2.77c-8.84-2.43-15.51-8.09-20.92-15.05
		c-5.34-6.87-5.14-15.15-4.17-23.4c0.81-6.87,3.13-12.54,8.66-17.42c5.33-4.7,11.3-4.76,17.38-5.08
		c12.03-0.65,20.84,5.44,28.28,14.22c4.02,4.74,9.42,7.78,14.87,10.49c7.33,3.65,10.1,9.37,9.31,17.23
		C84.19,49.72,84.29,50.81,84.29,51.89z"/>
	<path class="st1" d="M75.06,66.37c-2.53,2.34-5.46,3.73-8.95,3.92c-9.27,0.48-18.63,2.11-27.07-3.86
		c-2.39-1.69-5.36-2.66-8.17-3.63c-7.07-2.45-12.46-7.16-16.97-12.82c-5.25-6.58-4.46-14.28-3.1-21.94c1.02,1.04,0.25,2.2,0.3,3.3
		c0.19-0.97,0.21-2.02,0.57-2.97c0.46-1.21,1.17-1.8,2.33-0.66c0.16,0.34,0.23,0.7,0.22,1.08c-0.29,3.55-1.14,7-0.75,10.69
		c0.75,7.04,5.36,11.23,10.19,15.41c8,5.31,16.93,8.64,25.86,11.85c4.5,1.62,9.41,0.85,14.15,0.45c4.01-0.58,7.38-2.24,9.74-5.66
		c1.07-1.36,2.08-2.79,3.74-3.52c1.84-0.09,1.71,0.89,1.5,2.32C78.3,62.91,76.03,64.23,75.06,66.37z"/>
	<path class="st2" d="M40.56,12.14c5.42,2.57,10.6,5.5,14.56,10.16c4.23,4.98,9.06,9.25,15.16,11.72c5.26,2.13,8.53,5.71,9.78,11.21
		c0.25,0.98,0.56,2.13-1.13,1.32c-0.76-0.36-1.1-1.29-1.27-2.1c-0.83-3.93-3.42-6.01-7-7.43c-3.53-1.4-6.42-4.2-10.31-4.88
		c-2.21-0.64-3.7-2.31-4.84-4.07c-3.23-4.96-7.72-8.37-12.72-11.28c-1.43-0.83-2.86-1.75-3.51-3.44
		C39.34,12.54,39.45,11.8,40.56,12.14z"/>
	<path class="st3" d="M40.56,12.14c-0.67,0.34-0.89,0.92-0.87,1.62c-1.07,0.84-2.26,0.36-3.4,0.31c-4.36-0.16-8.71-0.24-12.81,1.62
		c-1.49,0.62-2.56,1.77-3.64,2.91c-1.98,1.86-2.86,4.34-3.92,6.74c-0.48,1.08-0.34,2.74-2.18,2.81c-2.86-0.27-1.25,2.71-2.77,3.56
		c-0.05-1.23-0.11-2.45-0.16-3.68c0.07-6.74,4.22-10.86,9.17-14.55c1.76-1.31,3.8-1.47,5.75-1.72
		C30.67,11.15,35.65,10.79,40.56,12.14z"/>
	<path class="st4" d="M60.53,31.67c2.93-0.82,4.65,1.72,6.97,2.56c1.32,0.48,2.4,1.69,3.72,2.07c4.29,1.21,6.51,4.07,7.39,8.28
		c0.26,1.23,0.43,1.19,1.45,0.65c2.28,6.68-0.13,16.86-4.99,21.15c-0.98-1.62,1.08-1.73,1.34-2.71c0.47-1.72,3.31-3.12,0.75-5.27
		c-0.82-2.35-0.3-4.71,0.03-7.05c0.18-1.31,0.51-2.58,0.07-3.88c-1.4-6.02-5.92-9.02-11.06-11.43c-1.72-1.48-3.99-2.17-5.55-3.89
		C60.6,31.99,60.57,31.83,60.53,31.67z"/>
	<path class="st5" d="M64.15,67.74c-5.76,1.36-11.64,1.54-17.08-0.7c-7.13-2.93-14.37-5.69-21.14-9.46
		c-1.02-0.57-1.88-1.42-2.81-2.14c-0.58-1.82-2.35-2.67-3.4-4.1c-2.68-3.68-5.64-7.28-4.13-12.36c1.45-1.08,2.49-0.05,3.39,0.81
		c1.2,1.15,2.61,1.52,4.17,1.67c4.07,4.34,9.75,6.11,14.66,9.1c1.31,0.95,2.99,1.44,4.02,3.54c-0.35-2.59,0.38-4.45,1.42-6.23
		c0.92-0.79,1.38-2.92,3.2-1.12c0.18,1.35-0.66,2.37-1.13,3.52c-1.18,6.2,3.53,12.14,10.2,12.87c1.18,0.13,2.36,0.02,3.54,0.09
		C61.99,63.36,63.13,65.48,64.15,67.74z"/>
	<path class="st6" d="M23.04,41.82c-1.61,0.51-3.02,0.27-4.23-1.02c-0.8-0.86-1.55-1.89-2.93-1.87c-2.16-1.34-2.17-3.56-2.19-5.68
		c-0.01-1.43-0.1-2.86,0.05-4.29c0-0.27,0-0.54,0-0.81c1.99-3.34,2.16-7.7,5.73-10.16c0.97,1.17,0.44,2.5,0.36,3.75
		c-0.35,5.62,0.19,11.09,2.41,16.33C22.51,39.32,23.56,40.4,23.04,41.82z"/>
	<path class="st6" d="M64.15,67.74c-2.39-0.23-1.97-4.4-5.08-3.62c1.37-2.19,2.87-4.29,4.61-6.21c0.78-0.72,1.58-1.4,2.69-1.54
		c2.16,0.48,3.61,2.55,6.48,1.88c1.88-0.44,0.94,2.37,1.32,3.71C71.73,65.42,68.55,67.65,64.15,67.74z"/>
	<path class="st7" d="M74.18,61.95c-0.7-2.34-1.51-4.34-4.55-2.42c-0.88,0.56-1.48,0.25-1.42-1.05c0.06-1.19-0.96-1.48-1.97-1.58
		c-0.33-1.58,0.75-2.62,1.81-3.13c3.22-1.56,5.75-3.88,8.17-6.41c0.91,0.28,1.12,1.02,1.18,1.85c0.06,0.48,0.78-0.12,0.34,0.03
		c-0.12,0.04-0.27-0.31-0.31-0.55c-0.11-0.69-0.26-1.39,0.47-1.87c0.97,3.93-0.17,7.73-0.74,11.56
		C76.17,59.58,75.18,60.76,74.18,61.95z"/>
	<path class="st8" d="M13.74,28.96c1.27,3.2,0.42,6.86,2.14,9.97c-0.3,5.35,2.23,9.46,5.62,13.29c0.75,0.84,2.91,1.27,1.61,3.23
		C12.28,47.9,10.66,38.12,13.74,28.96z"/>
	<path class="st9" d="M22.54,15.31c5.48-3.15,11.32-2.33,17.16-1.55c6.43,4.04,13.12,7.74,17.12,14.66
		c0.81,1.41,2.13,2.57,3.71,3.25c0,0-0.12,0.15-0.12,0.15c-1.79,2.43-3.1,0.18-4.09-0.7c-3.11-2.77-6.31-5.39-9.66-7.85
		c-2.13-1.56-4.13-3.18-6.99-3.06c-0.7,0.03-1.38-0.35-1.62-1.16c0.27-0.94,1.04-1.23,1.88-1.44c0.11-0.03,0.31,0.07,0.35-0.15
		c-0.24-0.01-0.48-0.04-0.72-0.07c-4.83-1.73-9.78-1.5-14.75-0.87C22.21,16.96,22.21,16.96,22.54,15.31z"/>
	<path class="st10" d="M22.54,15.31c0.18,1.82,1.38,0.17,1.98,0.58c2.09-0.73,3.54-0.64,2.89,2.21c-0.14,0.61,0.1,1.15,0.44,1.66
		c0.27,0.4,0.52,0.82,0.75,1.24c5.34,6.4,11.75,11.49,18.95,15.61c1.07,0.61,2.27,0.67,3.46,0.83c1.64,0.23,3.01,0.84,3.3,2.72
		c-0.62,1.6-2.06,2.15-3.46,2.77c-1,0.16-2.04,1.16-2.99,0.36c-1.12-0.95,0.62-1.78,0.41-2.85c-2.32,0.6-3.68,2.42-5.28,3.92
		c-0.63,0.57-1.25,1.18-2.15,1.32c-6.4-3.59-12.01-8.28-17.52-13.15c-1.18,1.47-0.38,2.62-0.38,3.75c-0.01,1.06,0.71,2.53-1.28,2.65
		c-3.1-6.73-3.67-13.73-2.18-20.93C20.33,16.91,21.13,15.76,22.54,15.31z"/>
	<path class="st11" d="M54.03,40.3c-0.55-0.97-1.28-2.07-2.37-1.98c-5.11,0.39-8.33-3.31-11.95-5.73c-4.21-2.83-7.79-6.61-11.62-10
		c-0.58-0.51-0.15-1.09,0.04-1.63c2.89-3.05,6.44-2.95,10.14-2.14c7.63,0.65,12.13,6.36,17.45,10.75c1.37,1.13,2.35,3.1,4.68,2.25
		c2.18,0.84,4.21,1.95,6.01,3.45c0.53,1.59,2.18,1.61,3.32,2.33c1.97,1.25,4.15,2.24,4.73,4.83c-0.16,0.68-0.24,1.38-0.33,2.07
		c-0.29,2.32-1.42,2.45-3.06,1.12c-0.66-0.67-1.31-0.49-1.96,0.04c-4.8,1.22-8.38-1.27-11.89-3.94
		C56.58,40.31,54.86,41.3,54.03,40.3z"/>
	<path class="st12" d="M74.02,42.56c-1.22-2.49-3.39-3.88-5.72-5.2c-0.74-0.42-2.67-0.18-1.9-2.09c5.27,2.42,10.2,5.18,11.49,11.55
		c0,1,0,2,0,3.18c-1.26-0.56-1.01-1.72-1.63-2.34C74.85,46.26,74.09,44.56,74.02,42.56z"/>
	<path class="st13" d="M64.19,58.42c-1.91,1.72-2.06,5.01-5.11,5.7c-6.26,1.02-10.57-2.59-14.27-6.67c-1.81-1.99-1.22-5.13-0.2-7.76
		c1.19-0.23,1.46-1.45,2.27-2.08c0.79-0.61,1.57-1.64,2.64-0.35c0.52,1.85,1.71,3.06,3.47,3.82c2.73,1.19,5.43,2.49,8.25,3.46
		C63.14,55.2,64.36,56.25,64.19,58.42z"/>
	<path class="st14" d="M21.65,38.93c1.71-1.56-0.24-3.13,0.02-4.69c0.17-0.99-0.6-2.37,0.72-2.85c0.89-0.33,1.86,0.41,2.5,1.11
		c4.69,5.19,10.9,8.46,16.17,12.9c-0.52,2.35-0.03,5.32-3.56,5.82c-4.92-2.96-10.98-4.19-14.44-9.4
		C22.74,40.78,21.51,40.18,21.65,38.93z"/>
	<path class="st15" d="M37.49,51.22c2.24-1.29,1.73-4.27,3.56-5.82c0.49-0.48,0.98-0.96,1.47-1.44c2.21-0.82,2.29,0.7,2.23,2.14
		c-0.03,0.74-1.19,1.16-0.82,2.13c-1.16,2.01-1.68,4.18-1.33,6.87C40.68,53.65,39.08,52.43,37.49,51.22z"/>
	<path class="st16" d="M43.93,48.23c-1.36-1.13,2.17-3.88-1.41-4.27c1.26-1.94,2.93-3.41,5.07-4.31c0.73-0.31,1.61-1.13,2.27-0.39
		c0.98,1.09-0.5,1.54-0.94,2.25c-0.25,0.39-0.62,0.71-0.95,1.08c0.9,1.27,1.78-1.36,2.6,0.07c-0.49,2.42-1.95,3.84-4.37,4.28
		C44.7,46.09,44.57,47.6,43.93,48.23z"/>
	<path class="st17" d="M46.19,46.94c1.46-1.43,2.92-2.86,4.37-4.28c1.16-0.78,2.31-1.57,3.47-2.35c1.12,0.57,2.86-2.11,3.56,0.68
		c-2.21,2.9-5.46,4.22-8.61,5.71c-1.85,0.44-1.9,3.49-4.38,3C45.13,48.77,45.66,47.85,46.19,46.94z"/>
	<path class="st18" d="M48.98,46.69c2.3-2.76,5.73-3.82,8.61-5.71c2.29,2.96,6.16,2.82,9.06,4.57c1.12,0.68,1.65-0.63,2.5-0.87
		c0.72,0.77,1.44,0.81,2.16,0.01c0.66,0.18,0.79,1.39,1.67,1.01c0.61-0.26,0.5-1,0.43-1.57c-0.08-0.64-0.6-1.43,0.61-1.56
		c0.91,1.63,2.1,3.14,2.24,5.1c-1.36,2.68-3.13,4.83-6.19,5.76c-1.72,0.52-2.85,1.99-3.83,3.48c-0.69,0.51-1.37,1.01-2.06,1.52
		c-1.31-3.57-5.15-3.21-7.7-4.86c-1.37-0.89-2.99-1.46-4.56-1.98C49.49,50.77,48.61,49.13,48.98,46.69z"/>
	<path class="st11" d="M27.37,20.2c-0.92-0.49-1.61-1.11-0.98-2.24c1.41-2.55-0.57-1.99-1.87-2.07c5.45-1.22,10.84-1.73,15.92,1.36
		C36.16,18.58,31.55,18.43,27.37,20.2z"/>
	<path class="st19" d="M27.37,20.2c3.93-2.85,8.48-2.98,13.07-2.95c-0.24,1.01-0.24,1.01-2.17,1.57c-3.4,0.61-6.92,0.65-10.14,2.14
		C27.88,20.71,27.63,20.45,27.37,20.2z"/>
	<path class="st20" d="M66.89,38.44c0.68-0.03,1.15,0.38,1.27,0.95c0.17,0.79-0.29,1.34-1.07,1.48c-0.67,0.12-1.13-0.37-1.27-0.94
		C65.63,39.13,66.14,38.65,66.89,38.44z"/>
	<path class="st21" d="M71.32,44.69c-0.07,0.77,0.22,1.85-0.91,1.97c-1.48,0.15-1.13-1.12-1.25-1.97
		C69.88,44.19,70.6,44.23,71.32,44.69z"/>
	<path class="st22" d="M60.4,51.8c-0.2,0.73-0.57,1.35-1.41,1.26c-0.79-0.08-1.21-0.66-1.22-1.44c-0.01-0.91,0.62-1.16,1.39-1.14
		C60,50.51,60.46,50.92,60.4,51.8z"/>
</g>
</svg>
