<?xml version="1.0" encoding="utf-8"?>
<!-- Generator: Adobe Illustrator 23.0.2, SVG Export Plug-In . SVG Version: 6.00 Build 0)  -->
<svg version="1.1" id="Camada_1" xmlns="http://www.w3.org/2000/svg" xmlns:xlink="http://www.w3.org/1999/xlink" x="0px" y="0px"
	 viewBox="0 0 106.56 123.12" style="enable-background:new 0 0 106.56 123.12;" xml:space="preserve">
<style type="text/css">
	.st0{fill:#010002;}
	.st1{fill:#FDFDFD;}
	.st2{fill:#618B5D;}
	.st3{fill:#4F6876;}
	.st4{fill:#727E88;}
	.st5{fill:#4E8554;}
	.st6{fill:#5E8A55;}
	.st7{fill:#B1C4A4;}
	.st8{fill:#548654;}
	.st9{fill:#ABBF93;}
	.st10{fill:#B1C4A5;}
	.st11{fill:#518554;}
	.st12{fill:#F1F2F6;}
	.st13{fill:#4A6372;}
	.st14{fill:#D9DDE2;}
	.st15{fill:#5F875A;}
	.st16{fill:#88AE8A;}
	.st17{fill:#BEC4CC;}
	.st18{fill:#628B5D;}
</style>
<g>
	<path class="st0" d="M44.67,6.41C56.9,6.39,69.53,7.3,82.08,9.22c6.02,0.92,10.97,3.87,15.3,7.99c3.17,3.02,4.21,6.72,3.82,11.08
		c-1.68,18.7-2.87,37.42-3.05,56.21c-0.06,6.32-0.35,12.64-0.34,18.97c0,4.24-3.97,8.66-8.08,9.73c-9.08,2.35-18.29,3.8-27.65,3.86
		c-7.03,0.05-14.15,0.15-21.06-0.9c-5.59-0.84-11.07-3.01-16.31-5.26c-2.87-1.23-4.31-4.35-4.85-7.59
		c-1.72-10.27-2.28-20.66-3.57-30.98c-1.36-10.91-3.15-21.76-5.88-32.43C9.01,34.46,7.66,29,6.54,23.49
		c-0.75-3.7,0.47-6.81,3.64-9.11c6.64-4.8,14.33-6.52,22.24-7.3C36.32,6.71,40.24,5.95,44.67,6.41z"/>
	<path class="st1" d="M47.55,11.21c13.85-0.13,25.5,1.18,37.02,3.62c2.33,0.49,4.57,1.4,6.83,2.2c3.62,1.29,5.17,3.76,4.92,7.73
		c-0.96,15.55-1.81,31.1-2.57,46.66c-0.49,10.05-0.72,20.12-1.13,30.18c-0.21,5.01-0.97,5.97-5.77,7.26
		c-16.16,4.31-32.49,4.75-48.76,1.16c-12.69-2.8-13.21-3.66-14.82-16.4c-2.03-16.04-2.76-32.26-6.63-48.04
		c-1.83-7.45-3.25-14.97-4.82-22.46c-0.73-3.48,0.7-4.91,3.27-6.15c6.03-2.9,12.55-3.99,19.1-4.76
		C39.3,11.61,44.46,11.43,47.55,11.21z"/>
	<path class="st2" d="M63.79,65.9c5.75-1,11.59-1.39,17.22-3.18c3.04-0.97,5.61-3.25,9.24-2.99c0.51,3.07-0.19,6.35-0.26,9.63
		c-0.23,10.76-0.53,21.52-0.84,32.28c-0.02,0.88,0.42,1.96-0.73,2.55c-9.25,2.38-18.53,4.61-28.2,4.32
		c-2.27-0.07-4.52-0.43-6.79-0.49c-2.46-0.06-3.86-1.39-4.42-3.88c-0.85-3.8-0.49-7.64-0.65-11.46c-0.15-0.81,0-1.57,0.3-2.32
		c4.04-6.99,8.14-13.94,12.19-20.93C61.64,68.07,62.58,66.88,63.79,65.9z"/>
	<path class="st3" d="M39.25,51.54c-5.18,1.15-10.37,2.24-15.53,3.48c-1.38,0.33-1.68-0.29-1.91-1.33
		c-1.62-7.34-3.28-14.67-4.85-22.02c-0.22-1.05-0.26-2.36,1.59-1.73c7.24,2.47,14.84,2.16,22.3,2.96c0.51,0.31,1.04,0.68,1.12,1.3
		c0.7,5.38,2.23,10.64,2.21,16.11C42.97,52.47,40.72,50.45,39.25,51.54z"/>
	<path class="st4" d="M43.77,50.27c-0.98-5.79-1.95-11.59-2.93-17.38c5.99,0.05,11.98-0.01,17.97,0.17
		c7.7,0.23,15.3-0.57,22.88-1.69c0.78-0.36,1.48-0.45,1.82,0.58c-1.37,2.56-3.9,2.61-6.21,2.49c-3.26-0.17-5.27,1.25-7.15,3.75
		c-2.77,3.7-4.66,8.05-8.16,11.23c-1.2,0.57-2.46,0.91-3.8,0.95c-3.57,0.12-7.15-0.01-10.7,0.7C46.23,51.35,44.85,51.27,43.77,50.27
		z"/>
	<path class="st4" d="M87,19.08c2.42,0.6,5.8,0.97,5.91,3.68c0.1,2.67-3.35,2.91-5.56,3.56c-6.7,1.95-13.56,3.05-20.54,3.08
		c-9.7,0.05-19.4-0.12-29.11-0.22c-1.18-0.01-2.41,0.2-3.5-0.5c1-1.28,2.44-0.99,3.78-1.04c0.75-0.03,1.39-0.09,1.2-1.12
		c-0.7-4.51-0.23-5.21,4.18-6.08c1.76-0.34,3.54-0.86,5.32-0.78c12.19,0.53,24.34-1.68,36.53-0.48C85.8,19.24,86.4,19.16,87,19.08z"
		/>
	<path class="st3" d="M87,19.08c-0.62,0.99-1.63,0.86-2.57,0.83c-10.96-0.39-21.88,1.25-32.84,0.69c-2.91-0.15-5.66,0.62-8.49,0.92
		c-2.29,0.25-4.59,0.87-3.04,4.17c0.28,0.6,0.09,1.41,0.11,2.13c-7.41,0.68-14.64-0.19-21.71-2.46c-1.95-0.63-2.93-1.97-2.36-4.12
		c1.46-1.52,3.35-2.25,5.32-2.77c9.3-2.44,18.7-3.71,28.36-3.18c9.77,0.53,19.59,0.26,29.3,1.74C81.78,17.43,84.52,17.79,87,19.08z"
		/>
	<path class="st4" d="M83.32,32.07c-0.39-0.59-1.01-0.64-1.63-0.7c3.75-1.1,7.5-2.2,11.61-3.41c-0.73,8.4-1.45,16.67-2.16,24.94
		c-0.24,1.79-1.32,2.07-2.79,1.48c-4.32-1.73-8.89-2.58-13.36-3.75c-1.44-1.26-0.37-2.34,0.29-3.41c2.55-4.14,5.27-8.16,7.97-12.2
		C83.89,34.06,84.87,33.09,83.32,32.07z"/>
	<path class="st5" d="M30.95,64.48c6.16,0.82,12.33,1.48,18.56,1.49c1,1.56-0.21,2.65-0.82,3.87c-3.29,4.8-6.42,9.7-9.69,14.51
		c-0.86,1.26-1.54,2.71-3.04,3.41c-0.39,0.08-0.73,0-1.04-0.25c-3.5-6.64-4.65-14-6.44-21.15C27.93,64.17,29.2,63.88,30.95,64.48z"
		/>
	<path class="st6" d="M30.95,64.48c-1.5-0.06-2.1,0.38-1.61,2.07c2.03,7.02,3.36,14.26,6.34,21c-0.17,3.64-3.38,5.67-4.63,8.75
		c-0.35,0.85-0.86,1.68-1.57,2.33c-0.82,0.75-1.63,0.99-2.24-0.26c-1.3-11.96-2.59-23.92-3.93-36.25
		C26.19,63.02,28.57,63.75,30.95,64.48z"/>
	<path class="st7" d="M48,69.56c0.35-1.26,1.69-2.11,1.51-3.59c4.76-0.02,9.52-0.05,14.28-0.07C59,74.07,54.22,82.24,49.44,90.41
		c-0.54,0.06-1-0.18-1.06-0.69C47.63,83.02,47,76.3,48,69.56z"/>
	<path class="st8" d="M51.54,63.72c-7.93-0.01-15.82-0.38-23.5-2.59c-1.03-0.3-2.07-0.63-3.04-1.09c-0.84-0.39-2.02-0.69-2.05-1.78
		c-0.04-1.21,1.24-1.34,2.09-1.63c4.89-1.65,9.9-2.76,15.07-3.02c0.94-0.63,1.96-1.06,3.1-1.19c1.44,0.12,2.12,1.17,2.37,2.34
		c0.81,3.71,2.29,6.82,6.3,7.97C51.98,63.14,51.86,63.47,51.54,63.72z"/>
	<path class="st9" d="M27.23,98.37c1.14,0.78,1.64,0.07,2.2-0.84c2.05-3.35,4.16-6.65,6.25-9.98c0,0,0.14,0.07,0.14,0.07
		c1.13-0.28,1.41,0.68,1.76,1.34c1.98,3.75,4.41,7.22,6.53,10.89c-0.14,3.07-2.02,5.18-4.01,7.22c-2.58-0.83-5.13-1.86-7.77-2.45
		C28.88,103.84,27.08,101.97,27.23,98.37z"/>
	<path class="st10" d="M51.54,63.72c0.02-0.2,0.06-0.39,0.12-0.57c2.11-4.78,5.12-8.97,8.5-12.91c2.97-0.65,5.94-0.37,8.92-0.15
		c1.27,0.42,2.64,0.48,3.86,1.08c0.74,0.53,0.69,1.33,0.3,1.89c-2.53,3.68-4.42,7.85-7.95,10.79
		C60.72,63.81,56.13,63.77,51.54,63.72z"/>
	<path class="st2" d="M65.3,63.86c2.68-4.05,5.36-8.09,8.04-12.14c0.68-0.91,1.64-0.87,2.58-0.69c3.83,0.72,7.7,1.32,11.28,2.97
		c1.1,0.5,2.73,0.73,1.93,2.66C81.77,61,73.44,62.11,65.3,63.86z"/>
	<path class="st11" d="M40.1,107.07c1.21-2.41,2.42-4.81,3.62-7.22c1.2-2.95,1.86-6.23,5.03-7.93c1.43,1.68,0.52,3.66,0.7,5.5
		c0.19,2,0.35,4.03,0.48,6.01c0.22,3.25,2.11,4.14,4.61,4.27c9.43,0.46,18.78-0.09,27.91-2.71c1.97-0.57,3.92-0.99,5.97-0.8
		c-6.27,3.12-12.98,4.24-19.9,4.38c-4.04,0.43-8.09,0.43-12.13,0C50.89,108.86,45.43,108.69,40.1,107.07z"/>
	<path class="st12" d="M69.58,50.94c-3.36,0.01-6.72,0.02-10.09,0.03c-4.68,1.99-9.62,2.11-14.59,1.98
		c-0.68-0.02-1.35-0.44-2.03,0.02c-1.06-0.4-1.68,1.12-2.76,0.63c-0.11-1.06,1.04-1.09,1.57-1.85c-0.89-0.08-1.66-0.15-2.43-0.23
		c1.51-0.42,3.01-0.84,4.52-1.26c6.17-0.8,12.45-0.4,18.59-1.65c3.99-0.1,8.14-1.43,11.73,1.54C72.9,52.24,71.13,50.96,69.58,50.94z
		"/>
	<path class="st13" d="M16.1,21.24c0.28,2.59,1.92,3.79,4.31,4.24c6.53,1.24,13.11,2.09,19.76,2.34c-1.8,1.65-4.04,0.17-5.97,0.85
		C28.38,28.52,22.6,28,17.24,25.53C15.45,24.7,13.29,23.51,16.1,21.24z"/>
	<path class="st14" d="M69.58,50.94c1.45-0.37,3.14,0.61,4.4-0.8c0.26-0.27,0.54-0.3,0.84-0.08c4.78,0.39,9.36,1.58,13.7,3.57
		c1.28,0.59,2.1,0.84,2.61-0.72c0.54,1.9-0.57,2.91-2.01,3.75c-0.16-1.81-1.84-1.71-2.93-2.13c-4.13-1.58-8.41-2.6-12.85-2.8
		C72.1,51.42,70.66,52.02,69.58,50.94z"/>
	<path class="st15" d="M56.4,108.56c4.04,0,8.08,0,12.13,0C64.48,109.22,60.44,109.4,56.4,108.56z"/>
	<path class="st16" d="M48.75,91.92c-2.02,2.42-2.7,5.7-5.03,7.93c-3.63-3.43-5.26-8.16-7.91-12.23C39.88,81.6,43.94,75.58,48,69.56
		c1.42,6.89,0.08,13.96,1.43,20.85C49.21,90.91,48.98,91.41,48.75,91.92z"/>
	<path class="st17" d="M74.82,50.06c-0.28,0.03-0.56,0.05-0.84,0.08c-3.74-1.53-7.91,0.23-11.62-1.52c2.45-4.8,5.82-8.99,8.86-13.4
		c0.93-1.35,2.26-1.59,3.77-1.57c2.88,0.04,5.74-0.08,8.33-1.59c0.9,0.25,1.75-0.94,2.8-0.01C82.65,38.25,77.94,43.66,74.82,50.06z"
		/>
	<path class="st18" d="M42.87,52.98c5.48-1.18,11.03-1.75,16.62-2c-1.59,4.72-4.82,8.37-7.82,12.17c-5.13,0.01-5.94-3.74-6.77-7.6
		C44.67,54.5,44.51,53.06,42.87,52.98z"/>
</g>
</svg>
