<?xml version="1.0" encoding="utf-8"?>
<!-- Generator: Adobe Illustrator 23.0.2, SVG Export Plug-In . SVG Version: 6.00 Build 0)  -->
<svg version="1.1" id="Camada_1" xmlns="http://www.w3.org/2000/svg" xmlns:xlink="http://www.w3.org/1999/xlink" x="0px" y="0px"
	 viewBox="0 0 107.28 123.12" style="enable-background:new 0 0 107.28 123.12;" xml:space="preserve">
<style type="text/css">
	.st0{fill:#010002;}
	.st1{fill:#FDFDFD;}
	.st2{fill:#A62F34;}
	.st3{fill:#4F6876;}
	.st4{fill:#727E88;}
	.st5{fill:#9C2B30;}
	.st6{fill:#9B2A4F;}
	.st7{fill:#BE4757;}
	.st8{fill:#A22D32;}
	.st9{fill:#BB3E80;}
	.st10{fill:#BE4857;}
	.st11{fill:#B75348;}
	.st12{fill:#9C2B4F;}
	.st13{fill:#EEF4F6;}
	.st14{fill:#9E2029;}
	.st15{fill:#B75347;}
	.st16{fill:#4B6472;}
	.st17{fill:#D9E0E5;}
	.st18{fill:#BD3E50;}
	.st19{fill:#9A2A4E;}
	.st20{fill:#BEC4CC;}
	.st21{fill:#CF8773;}
</style>
<g>
	<path class="st0" d="M101.86,23.58c-0.88,13.94-1.77,26.59-2.44,39.24c-0.47,8.96-0.68,17.94-0.92,26.91
		c-0.12,4.53-0.02,9.06-0.01,13.59c0.01,4.01-4.13,8.83-8.05,9.83c-8.97,2.29-18.05,3.86-27.3,3.87
		c-7.27,0.01-14.67,0.28-21.76-0.96c-5.41-0.95-10.85-2.94-16-5.11c-3.3-1.39-4.73-4.96-5.14-8.59
		c-1.17-10.21-2.14-20.44-3.46-30.63c-1.43-11.03-3.2-22-6.08-32.78c-1.35-5.07-2.32-10.26-3.52-15.39c-0.9-3.83,0.48-7.01,3.8-9.36
		c6.59-4.65,14.17-6.39,21.95-7.15c16.65-1.63,33.2-0.23,49.69,2.19c4.17,0.61,8.23,1.78,11.94,3.78
		C99.19,15.53,103.19,18.6,101.86,23.58z"/>
	<path class="st1" d="M94.77,62.89c-0.54,13.17-1.13,26.34-1.59,39.52c-0.12,3.52-1.68,5.38-5.09,6.33
		c-15.66,4.37-31.53,4.67-47.37,1.82c-14.13-2.54-15.34-4.16-16.99-18.05c-1.96-16.53-2.83-33.23-7.08-49.41
		c-1.74-6.62-2.71-13.37-4.22-20.03c-0.7-3.11,0.44-4.73,3.01-5.98c5.8-2.83,12.06-3.95,18.36-4.76c16.8-2.17,33.49-1.04,50.07,2.15
		c0.94,0.18,1.87,0.44,2.79,0.69c9.62,2.61,10.55,3.71,10.04,13.64c-0.58,11.37-1.4,22.72-2.11,34.09
		C94.64,62.88,94.71,62.89,94.77,62.89z"/>
	<path class="st2" d="M64.16,65.95c4.34-0.69,8.7-1.29,13.02-2.09c3.17-0.59,6.23-1.62,9.14-3.03c2.47,0.42,1.88,2.5,1.93,3.96
		c0.18,5.63,0.19,11.26,0.04,16.89c-0.19,7.2,0.78,14.3,1.37,21.43c-3.95,2.8-8.71,2.86-13.17,3.9c-8.85,2.06-17.78,0.88-26.68,0.67
		c-3.15-1.58-4.93-4.2-5.72-7.57c0.8-4.14,4.16-6.95,5.6-10.76c4.24-7.21,8.67-14.3,12.79-21.57
		C62.91,67.02,63.51,66.48,64.16,65.95z"/>
	<path class="st3" d="M32.27,52.96c-2.68,0.67-5.39,1.25-8.04,2.05c-1.45,0.44-1.62-0.32-1.85-1.35
		c-1.62-7.24-3.28-14.46-4.84-21.71c-0.22-1.04-0.59-2.82,1.6-2.05c7.35,2.61,15.11,2.09,22.68,3.06c2.1,5.03,2.16,10.45,2.84,15.74
		c0.2,1.53-1.18,2.21-2.43,2.75C39.05,52.89,35.61,52.57,32.27,52.96z"/>
	<path class="st4" d="M41.83,50.84c1.58-0.8,2.29-1.63,1.84-3.81c-0.94-4.62-1.9-9.29-1.85-14.06c5.26,0.02,10.53-0.06,15.79,0.1
		c8.4,0.25,16.72-0.46,25-1.74c0.68-0.31,1.02,0,1.19,0.63c-1.27,2.44-3.69,2.6-5.87,2.46c-3.6-0.24-5.69,1.35-7.51,4.27
		c-2.2,3.53-4.58,6.97-7.25,10.19c-0.31,0.24-0.65,0.41-1.02,0.53c-2.29,0.56-4.72-0.07-6.98,0.8c-3.38,0.26-6.72,0.83-10.07,1.24
		C43.91,51.59,42.78,51.82,41.83,50.84z"/>
	<path class="st3" d="M16.55,21.32c1.55-1.62,3.56-2.36,5.65-2.91c9.2-2.42,18.51-3.65,28.07-3.13c9.79,0.53,19.63,0.25,29.36,1.73
		c2.82,0.43,5.69,0.81,8.28,2.19c-0.51,2.16-2.36,1.77-3.75,1.74c-10.29-0.21-20.53,1.25-30.83,0.8c-2.15-0.09-4.3,0.01-6.44,0.39
		c-4.69,0.83-4.8,0.92-5.44,5.46c-0.59,0.99-1.6,1.04-2.54,0.93c-6.48-0.76-13.07-0.78-19.32-2.97
		C17.71,24.89,15.52,24.21,16.55,21.32z"/>
	<path class="st4" d="M41.13,27.83c-1.43-5.34-1.26-5.45,4.02-6.53c2.73-0.56,5.44-0.63,8.19-0.68c10.76-0.21,21.52-0.46,32.29-0.69
		c0.84-0.02,1.7,0.07,2.29-0.72c2.3,0.56,5.45,0.92,5.54,3.57c0.09,2.6-3.15,2.84-5.23,3.47c-6.55,1.99-13.29,3.07-20.12,3.13
		c-10.15,0.09-20.31-0.12-30.47-0.21c-1.06-0.01-2.16,0.11-3.14-0.51c2.7-1.08,5.5-0.07,8-0.47C42.2,28.1,41.58,28.28,41.13,27.83z"
		/>
	<path class="st4" d="M83.6,32.13c-0.33-0.27-0.66-0.53-0.99-0.8c3.61-1.08,7.22-2.17,11.32-3.39c-0.85,9.2-1.67,18.15-2.49,27.11
		c-5.18-1.5-10.31-3.17-15.55-4.45c-1.53-1.77-0.08-3.12,0.75-4.44c2.46-3.93,5.09-7.75,7.67-11.6
		C85.19,33.24,85.01,32.59,83.6,32.13z"/>
	<path class="st5" d="M31.28,64.45c5.68,0.53,11.37,1.06,17.05,1.59c2.81,0.91,2.81,0.91,0.43,4.58c-3.14,4.5-6.09,9.13-9.19,13.65
		c-0.84,1.23-1.47,2.83-3.4,2.79c-1.48-0.61-2.02-1.95-2.48-3.3c-1.85-5.39-3.36-10.88-4.35-16.5
		C29.09,65.88,28.4,63.84,31.28,64.45z"/>
	<path class="st6" d="M31.28,64.45c-0.66,0.19-1.61,0.24-1.38,1.22c1.58,6.75,2.88,13.59,5.63,20.01c0.21,0.49,0.82,0.81,1.24,1.2
		c0.21,0.29,0.28,0.61,0.21,0.97c-1.73,3.36-4.17,6.27-6.04,9.55c-0.56,0.98-1.23,2.1-2.74,1.71c-1.64-7.62-1.79-15.41-2.74-23.11
		c-0.56-4.5-1.06-9-1.63-13.92C26.45,62.91,28.86,63.68,31.28,64.45z"/>
	<path class="st7" d="M48.3,70.29c0.19-0.52,0.24-1.22,0.61-1.53c1.63-1.36,0.82-2.08-0.59-2.72c5.28-0.03,10.56-0.06,15.83-0.09
		c-3.84,8.34-9.18,15.83-13.7,23.78c-1.15,0.05-1.46-0.84-1.52-1.64c-0.39-5.49-1.27-10.95-1.15-16.47
		C47.8,71.15,48.06,70.71,48.3,70.29z"/>
	<path class="st8" d="M41.7,63.21c-3.62-0.09-7.2-0.52-10.68-1.56c-1.26-0.56-2.42-1.27-0.25-2.09c3.03-1.14,5.95-2.56,9.02-3.58
		c4.65-1.54,9.35-2.95,13.87-4.91c0.37-0.13,0.75-0.21,1.13-0.28c1.78-0.08,3.62-0.53,5.22,0.72c0.78,2.35-0.98,3.8-2.06,5.39
		c-5.53,8.09-2.4,6.36-12.02,6.55C44.52,63.48,43.08,63.72,41.7,63.21z"/>
	<path class="st9" d="M28.2,99.11c2.78-2.02,3.62-5.45,5.72-7.95c0.97-1.16,1.39-2.76,2.84-3.54c3.12,3.68,5.44,7.86,7.57,12.16
		c0.48,2.7-1.28,4.56-2.49,6.63c-0.26,0.24-0.51,0.47-0.77,0.71c-3.86-0.7-7.37-2.49-11.07-3.64
		C27.45,102.68,28.51,100.68,28.2,99.11z"/>
	<path class="st10" d="M41.7,63.21c0.47-0.05,0.98-0.24,1.41-0.13c9.96,2.54,13.34-4.48,16.74-11.48c4.19-0.85,8.26,0.16,12.35,0.82
		c0.35,0.16,0.63,0.41,0.82,0.75c-1.02,4.33-3.97,7.45-6.72,10.7C58.11,63.54,49.88,64.42,41.7,63.21z"/>
	<path class="st11" d="M89.14,103.51c0.77-2.92-1.12-5.41-1.4-8.23C86.73,85,87.54,74.74,87.19,64.49
		c-0.04-1.26,0.44-2.68-0.86-3.65c4.43-1.77,4.65-1.64,4.53,2.69c-0.34,12.87-0.68,25.73-1.03,38.6c-0.02,0.66,0.31,1.45-0.51,1.91
		c-0.2-0.06-0.3-0.16-0.28-0.29C89.05,103.58,89.09,103.51,89.14,103.51z"/>
	<path class="st2" d="M66.31,63.87c1.47-3.82,4.21-6.83,6.48-10.15c4.16-1.56,11.18,0.63,13.64,4.25
		c-3.19,2.33-7.04,2.81-10.72,3.74C72.6,62.51,69.45,63.16,66.31,63.87z"/>
	<path class="st12" d="M54.09,51.66c-7.53,3.46-15.55,5.58-23.25,8.6c-1.44,0.56,0.26,0.91,0.17,1.4c-2.77-0.54-7.2-0.95-7.21-3.26
		c0-2.7,4.44-2.37,7.03-3.17c0.78-0.24,1.56-0.5,2.34-0.76c5.37-2.43,11.19-2.75,16.91-3.58C51.52,50.67,52.95,50.44,54.09,51.66z"
		/>
	<path class="st13" d="M54.09,51.66c-7.08,0.1-13.92,1.98-20.91,2.8c0.5-0.4,1-0.79,1.63-1.29c-0.96-0.08-1.75-0.15-2.54-0.21
		c3.18-0.71,6.37-1.41,9.56-2.12c4.54-0.5,9.08-0.99,13.61-1.49c2.39-0.74,4.92,0.27,7.29-0.59l0.01,0
		c4.21-0.25,8.56-1.65,12.37,1.48c-1.15,2.49-3.46,1.29-5.27,1.67c-5.26-0.1-10.5-1.13-15.78-0.39L54.09,51.66z"/>
	<path class="st14" d="M89.14,103.51c0.07,0.17,0.13,0.34,0.18,0.52c-0.74,0.57-1.39,1.21-2.38,1.49
		c-15.16,4.24-30.46,4.3-45.85,1.6c0.01-0.26,0.02-0.53,0.02-0.79c2.81-1.59,5.38-0.44,7.95,0.7c4.39,0.05,8.77,0.36,13.15,0.61
		c7.98,0.46,15.77-1.36,23.48-3.35C86.83,103.98,87.99,103.76,89.14,103.51z"/>
	<path class="st15" d="M86.43,57.98c-4.12-2.79-8.68-4.15-13.64-4.25c0-0.23,0-0.45,0-0.68c-0.3-0.98,0.25-1.44,1.05-1.76
		c4.7-0.24,9.17,0.8,13.49,2.51c1.18,0.47,2.92,0.72,2.54,2.76C88.69,56.94,87.88,58.21,86.43,57.98z"/>
	<path class="st16" d="M41.13,27.83c1.15,0,2.3,0,3.46,0c0,0.27,0,0.54,0,0.82c-3.36,0-6.72,0-10.08,0
		c-5.67-0.12-11.28-0.69-16.51-3.04c-1.68-0.76-4.27-1.77-1.44-4.29c0.25,2.07,1.42,3.13,3.44,3.7
		C26.91,27.01,34.03,27.29,41.13,27.83z"/>
	<path class="st17" d="M89.88,56.55c-3.26-3.25-7.65-3.56-11.8-4.23c-1.46-0.23-2.98-0.52-4.5-0.56c-1.36,0.25-2.92,1.39-3.75-0.82
		c1.67-0.42,3.56,0.63,5.1-0.74c0.24-0.28,0.49-0.3,0.77-0.06c5.57,0.61,10.97,1.73,15.75,4.89C91.27,55.9,90.76,56.42,89.88,56.55z
		"/>
	<path class="st18" d="M44.02,99.87c-2.74-3.89-5.49-7.78-7.25-12.26c0-0.24,0-0.49,0-0.73c3.97-5.44,7.1-11.47,11.54-16.59
		c0.74,5.59,1.41,11.18,1.46,16.83c0.01,0.92-0.19,1.92,0.69,2.62c-1.92,3.36-3.84,6.72-5.77,10.09
		C44.49,100.16,44.27,100.16,44.02,99.87z"/>
	<path class="st19" d="M44.02,99.87c0.22-0.01,0.45-0.03,0.67-0.05c0.45,3.01,3.11,4.67,4.36,7.2c-2.71,0.49-5.25-0.99-7.95-0.7
		C41.78,104.03,44.01,102.45,44.02,99.87z"/>
	<path class="st20" d="M75.69,50.15c-0.25,0.02-0.51,0.04-0.76,0.06c-3.92-1.66-8.25,0.1-12.18-1.45c2.55-4.87,6.18-9.03,9.08-13.67
		c0.9-1.44,2.35-1.42,3.81-1.42c2.76,0.01,5.49-0.11,7.97-1.54c1.05,0.17,1.95-0.97,3.37-0.2c-3.26,4.96-6.5,9.86-9.7,14.78
		C76.58,47.77,75.48,48.67,75.69,50.15z"/>
	<path class="st20" d="M62.74,48.76c-2.33,1.46-4.85,0.49-7.29,0.59C57.8,48.22,60.32,49.13,62.74,48.76z"/>
	<path class="st21" d="M69.83,50.95c1.11,0.91,2.52,0.44,3.75,0.82c-0.26,0.43-0.52,0.85-0.78,1.28c-4.34-0.28-8.69-0.43-12.94-1.44
		c-1.93-0.03-3.86-0.06-5.79-0.09C59.27,50.05,64.59,51.48,69.83,50.95z"/>
</g>
</svg>
