<?xml version="1.0" encoding="utf-8"?>
<!-- Generator: Adobe Illustrator 23.0.2, SVG Export Plug-In . SVG Version: 6.00 Build 0)  -->
<svg version="1.1" id="Camada_1" xmlns="http://www.w3.org/2000/svg" xmlns:xlink="http://www.w3.org/1999/xlink" x="0px" y="0px"
	 viewBox="0 0 27.95 26.75" style="enable-background:new 0 0 27.95 26.75;" xml:space="preserve">
<style type="text/css">
	.st0{fill:#FDFDFD;}
	.st1{fill:#010000;}
	.st2{fill:#5A3324;}
	.st3{fill:#854528;}
	.st4{fill:#B96133;}
	.st5{fill:#914C2B;}
	.st6{fill:#EDCE94;}
	.st7{fill:#B58B43;}
	.st8{fill:#EAC27C;}
	.st9{fill:#F5E2A9;}
	.st10{fill:#FCF6CA;}
	.st11{fill:#A97922;}
	.st12{fill:#A1711F;}
	.st13{fill:#AA771C;}
	.st14{fill:#A37118;}
	.st15{fill:#AD7D28;}
	.st16{fill:#976A1F;}
	.st17{fill:#996D23;}
	.st18{fill:#966C26;}
</style>
<g>
	<path class="st0" d="M9.74,2.11c0.49,0.19,0.83-0.19,1.22-0.34c2.12-0.82,4.39-1.05,6.56-1.68c0.88-0.25,1.77,0.03,2.43,0.7
		c1.98,2.02,3.56,4.27,4.77,6.88c0.87,1.87,0.75,4.09,2.12,5.72c1.8,2.14,1.07,4.23,0.14,6.42c-0.65,1.52-2.07,2-3.3,2.54
		c-1.9,0.85-3.71,1.91-5.68,2.58c-1.26,0.43-2.56,0.77-3.86,1.04c-0.58,0.12-1.13,0.23-1.67,0.5c-1.1,0.54-2.21,0.2-3.25-0.24
		c-1.92-0.8-3.27-2.37-4.66-3.8c-0.73-0.75-1.3-1.91-1.4-2.94c-0.15-1.47-0.72-2.84-1.15-4.15c-0.63-1.91-0.85-3.92-1.62-5.79
		c-0.85-2.07-0.26-4.14,1.33-5.1c0.84-0.51,1.77-0.99,2.72-1.17C5.88,3.03,7.32,2.78,8.7,2.24C9.01,2.12,9.37,1.97,9.74,2.11z"/>
	<path class="st1" d="M24.37,10.56c-0.04,1.07,0.7,1.87,1.07,2.78c0.26,0.65,0.65,1.29,1.14,1.88c0.75,0.9,0.05,2.01-0.18,2.95
		c-0.47,1.88-2.14,2.55-3.75,3.33c-0.95,0.46-1.99,0.7-2.92,1.3c-1.01,0.65-2.19,1.4-3.55,1.23c-0.42-0.05-0.68,0.09-0.96,0.32
		c-0.42,0.35-0.92,0.54-1.44,0.49c-0.59-0.06-1.08,0.02-1.54,0.43c-0.47,0.41-1.09,0.37-1.6,0.19c-1.39-0.47-2.76-1.04-3.53-2.42
		c-0.16-0.29-0.41-0.35-0.64-0.48c-0.72-0.41-1.33-0.93-1.34-1.84C5.09,20,4.13,19.75,4.25,19.1c0.28-1.51-1.32-2.58-0.86-4.15
		c0.09-0.32-0.75-0.83-0.75-1.26c0.01-1.96-1.05-3.62-1.42-5.46C0.91,6.72,1.87,5.76,3.24,5.04C5,4.13,6.94,3.93,8.74,3.56
		c2.59-0.53,5-1.91,7.73-1.77c0.27,0.01,0.42-0.19,0.62-0.31c0.73-0.43,1.47-0.43,2.07,0.2c1.27,1.33,2.4,2.75,3.38,4.34
		c0.61,0.98,0.81,2.13,1.53,3.03C24.39,9.47,24.47,10.01,24.37,10.56z"/>
	<path class="st2" d="M25.14,17.08c0.29,1.04-0.25,1.88-1.18,2.22c-0.83,0.3-1.51,0.95-2.38,1.27c-0.39,0.14-0.74,0.48-1.19,0.35
		c-0.43-0.12-0.64,0.01-0.86,0.38c-0.34,0.57-0.78,1.05-1.56,0.73c-0.27-0.11-0.43-0.01-0.59,0.23c-0.13,0.2-0.37,0.52-0.48,0.49
		c-1.46-0.42-2.49,1.1-3.9,0.84c-0.41-0.08-0.79,0-1.07,0.36c-0.35,0.45-0.94,0.53-1.3,0.25c-0.86-0.68-2.27-0.71-2.58-2.08
		c-0.07-0.32-0.37-0.37-0.64-0.46c-0.72-0.26-0.86-0.83-1.18-1.5c-0.52-1.08-0.67-2.18-1.03-3.24c-0.26-0.76-0.33-1.67-0.62-2.17
		c-0.65-1.14-0.59-2.38-1.04-3.5C3.1,10.15,2.59,9.07,2.38,7.94C2.23,7.15,2.63,6.48,3.67,6.27c0.92-0.18,1.69-1.04,2.76-0.64
		C6.63,5.7,6.9,5.64,6.95,5.95C6.84,6.42,6.49,6.53,6.06,6.54C5.81,6.53,5.58,6.42,5.33,6.43c-0.25,0.06-0.4,0.23-0.51,0.44
		C4.53,7.42,4.41,8.25,3.36,7.56c0.03,1.31,0.66,2.29,1.06,3.34c0.04,0.11,0.23,0.2,0.22,0.27c-0.37,1.51,1.36,2.57,0.89,4.1
		c-0.04,0.11-0.08,0.27-0.01,0.35c0.75,0.9,0.74,2.05,1.09,3.08c0.17,0.5,0.56,0.94,0.65,1.51c0.02,0.12,0.07,0.29,0.16,0.31
		c1.4,0.28,1.63,1.85,2.73,2.45c0.28,0.15,0.62,0.49,0.86,0.28c1.14-1.01,2.92,0.07,3.93-1.26c1.17,0.17,2.02-0.8,3.12-0.88
		c0.16-0.01,0.35-0.02,0.45-0.13c1.55-1.57,3.92-1.55,5.58-2.91c0.1-0.11,0.19-0.23,0.27-0.37c0.09-0.18,0.19-0.36,0.36-0.49
		C24.84,17.13,24.98,17.08,25.14,17.08z"/>
	<path class="st3" d="M25.14,17.08c-0.1,0.08-0.2,0.17-0.3,0.25c-0.21-0.14-0.34-0.34-0.41-0.57c-0.46-1.6-1.32-3.01-2.08-4.47
		c-0.11-0.22-0.15-0.45-0.15-0.69c0.19-0.77,0.09-1.4-0.46-2.09c-0.51-0.63-0.3-1.75-1.26-2.18c-0.25-0.44-0.11-0.84,0.12-1.23
		c0.11-0.16,0.26-0.27,0.46-0.3c0.21,0.66,0.84,1.24,0.95,1.75c0.28,1.32,1.63,2.34,1.11,3.86c-0.06,0.18-0.17,0.4,0,0.56
		c1.07,1,1.24,2.52,2.1,3.64C25.62,16.12,25.15,16.59,25.14,17.08z"/>
	<path class="st4" d="M21.07,5.8c-0.13,0.1-0.26,0.19-0.39,0.29c-0.62,0.05-1.1-0.22-1.4-0.74c-1.03-1.77-1.65-2.03-3.71-1.41
		c-0.69,0.21-1.37,0.49-2.03-0.04c0.12-0.64,0.68-0.29,1.01-0.46c0.73-0.27,1.44-0.72,2.27-0.36c0.06,0.03,0.18,0.02,0.23-0.02
		c0.58-0.49,1.16-0.97,1.75-0.03c0.35,0.57,1.17,0.8,1.19,1.58C20.02,5.34,20.89,5.25,21.07,5.8z"/>
	<path class="st5" d="M14.56,3.43c-0.21,0.37-0.77,0.06-0.95,0.48c0.11,0.27-0.04,0.46-0.22,0.63C12.07,4.64,11,5.53,9.6,5.56
		c-0.84,0.01-1.67,0.82-2.65,0.3c-0.2-0.02-0.4-0.04-0.52-0.23C6.8,5.37,7.1,4.89,7.66,5.27c0.06,0.04,0.19,0.07,0.22,0.04
		c0.92-1.07,2.3-0.59,3.43-1C12.34,3.92,13.34,3.21,14.56,3.43z"/>
	<path class="st6" d="M22.45,11.59c0.02,0.31-0.07,0.68,0.31,0.84c0.58,0.24,0.64,0.6,0.59,1.22c-0.05,0.69,0.93,0.94,1.01,1.82
		c0.05,0.57,0.33,1.24,0.49,1.87c-0.23,0.08-0.18,0.31-0.26,0.47c-0.69-0.81-1.4-1.58-2.63-1.09c-0.33,0.09-0.59,0.31-0.91,0.43
		c-1.23-0.13-2.28,0.48-3.41,0.74c-2.5,0.59-5.02,0.56-6.93-1.66c-0.26-0.3-0.61-0.51-0.85-0.84c-0.17-0.37-0.48-0.62-0.71-0.94
		c-0.46-1.48-0.95-2.95-1.96-4.17c-0.11-0.13-0.11-0.29,0-0.43c0.16-0.2,0.56-0.26,0.51-0.57C7.62,8.89,7.24,9.12,7,9.05
		C6.03,8.29,5.44,7.3,5.21,6.09c0.32-0.15,0.48,0.16,0.72,0.25c0.32,0.15,0.69,0.18,1,0.39c0.9,0.63,1.79,0.5,2.68-0.05
		c1.67-1.04,3.47-1.58,5.46-1.4c0.64,0.05,1.17,0.21,1.49,0.81c0.2,0.51,0.49,0.56,0.87,0.18c1.52,0.07,2.41,1.04,3.15,2.21
		c0.63,0.99,1.38,1.92,1.52,3.15C22.12,11.74,22.32,11.49,22.45,11.59z"/>
	<path class="st7" d="M24.41,18.08c-0.17,0.33-0.23,0.81-0.83,0.58c-0.33-0.12-0.52,0.09-0.65,0.37c-0.2,0.45-0.47,0.72-1.02,0.49
		c-0.29-0.12-0.54,0.01-0.68,0.32c-0.22,0.53-0.53,0.79-1.09,0.37c-0.51-0.38-0.71,0.03-0.87,0.41c-0.26,0.64-0.69,0.95-1.4,0.81
		c-0.04-0.01-0.1-0.02-0.12-0.01c-0.87,1.1-2.54,0.27-3.4,1.42c-0.1,0.14-0.34,0.25-0.52,0.25c-0.98,0.01-2-0.45-2.82,0.61
		c-0.24,0.31-2.2-1-2.23-1.57c-0.04-0.67-0.33-0.9-0.94-0.96C7.15,21.11,6.8,20.7,6.9,19.95c0.04-0.28,0.03-0.63-0.26-0.74
		c-0.74-0.26-0.59-0.88-0.57-1.38c0.02-0.68-0.09-1.23-0.69-1.64c-0.4-0.27-0.38-0.67-0.17-1.06c0.38-0.71,0.36-1.27-0.49-1.64
		c-0.56-0.24-0.62-0.73-0.29-1.19c0.36-0.51,0.09-0.74-0.2-1.19c-0.61-0.96-1.08-2.05-1.2-3.21c-0.04-0.33-0.1-0.83,0.31-0.95
		C3.84,6.8,3.62,7.51,3.98,7.65c0.58-0.16,0.34-0.84,0.7-1.13c0.92,1.9,1.46,3.95,2.28,5.9c0.91,2.17,1.74,4.37,2.94,6.41
		c0.91,1.54,1.59,1.92,3.35,1.41c3.26-0.94,6.64-1.41,9.87-2.48C23.61,17.6,24.06,17.62,24.41,18.08z"/>
	<path class="st8" d="M24.41,18.08c-0.55-0.23-1.02-0.02-1.57,0.13c-2.45,0.66-4.91,1.27-7.4,1.75c-1.24,0.24-2.35,0.96-3.7,0.79
		c-0.74-0.09-1.23-0.29-1.64-0.94c-2.05-3.3-3.34-6.93-4.66-10.55C5.11,8.37,4.59,7.52,4.68,6.52C4.8,6.3,4.92,6.09,5.21,6.09
		C5.9,6.99,6.26,8.12,7.08,8.94C7.42,9.18,7.51,9.5,7.39,9.89c0.82,1.44,1.85,2.79,1.9,4.55c-0.01,0.48,0.48,0.47,0.71,0.72
		c0.74,0.66,1.4,1.48,2.25,1.93c1.97,1.04,4.03,1.17,6.08,0.08c0.84-0.45,1.77-0.42,2.69-0.32c0.53,0.34,0.61-0.06,0.7-0.44
		c0.3-0.07,0.61-0.19,0.91-0.18c1.03,0.03,1.88,0.34,1.97,1.57C24.53,17.9,24.47,17.99,24.41,18.08z"/>
	<path class="st9" d="M16.43,6.3c-1.07-1.34-2.49-0.66-3.75-0.56c-0.89,0.07-1.81,0.45-2.53,1c-1.57,1.2-2.93,0.94-4.22-0.4
		c0.39-0.05,0.84,0.03,1.02-0.48C8.28,6.25,9.3,4.53,10.7,5.3c0.06,0.03,0.25-0.05,0.31-0.13c0.59-0.82,1.5-0.69,2.34-0.81
		c0.46-0.25,0.9-0.33,1.46-0.22c1.25,0.24,2.47,0.55,3.67,0.99c1.07,0.39,2.03,0.83,2.2,2.13c0.85,0.21,1.32,0.67,1.08,1.62
		c-0.05,0.19-0.07,0.45,0.12,0.53c1.15,0.49,0.82,1.35,0.58,2.19c-0.1,0.16-0.21,0.32-0.31,0.48c-1.04-2.34-1.93-4.8-4.67-5.77
		C17.12,6.55,16.78,6.32,16.43,6.3z"/>
	<path class="st10" d="M20.67,7.25c-1.08-2.25-3.43-2.07-5.33-2.7c-0.61-0.2-1.3-0.55-2-0.19c0.09-0.15,0.17-0.3,0.26-0.44
		c1.19,0.31,2.28-0.92,3.5-0.25c0.16,0.09,0.28-0.08,0.38-0.2c0.45-0.58,0.55-0.32,1.07,0.12c0.87,0.74,0.79,2.23,2.12,2.5
		C20.68,6.48,20.68,6.86,20.67,7.25z"/>
	<path class="st11" d="M19.27,12.02c0.44,0.01,0.77,0.19,0.83,0.65c0.05,0.34-0.19,0.53-0.49,0.51c-0.46-0.03-0.86-0.23-0.91-0.73
		C18.65,12.08,19,12.06,19.27,12.02z"/>
	<path class="st12" d="M7.39,9.89c-0.25-0.27-0.3-0.6-0.31-0.95C7.47,8.61,8,8.52,8.18,8.99C8.38,9.49,7.93,9.82,7.39,9.89z"/>
	<path class="st13" d="M16.43,6.3c0.34-0.35,0.69-0.25,1.03,0c0,0.36-0.02,0.73-0.51,0.73C16.48,7.03,16.45,6.66,16.43,6.3z"/>
	<path class="st14" d="M12.41,7.73c0.33,0.03,0.52,0.2,0.49,0.54c-0.02,0.28-0.2,0.43-0.48,0.41c-0.33-0.03-0.51-0.22-0.5-0.55
		C11.93,7.82,12.13,7.72,12.41,7.73z"/>
	<path class="st15" d="M14.9,14.42c-0.25-0.08-0.56-0.13-0.59-0.48c-0.02-0.24,0.17-0.38,0.37-0.37c0.28,0.01,0.57,0.1,0.59,0.45
		C15.29,14.27,15.12,14.38,14.9,14.42z"/>
	<path class="st16" d="M9.99,15.17c-0.37,0.04-0.82,0.25-1.08-0.13c-0.21-0.3,0.15-0.45,0.37-0.6C9.68,14.52,10.06,14.63,9.99,15.17
		z"/>
	<path class="st17" d="M21.71,16.42c0.27,0.31,0.38,0.65-0.07,0.87c-0.4,0.2-0.58-0.05-0.63-0.43
		C21.24,16.71,21.48,16.57,21.71,16.42z"/>
	<path class="st18" d="M11.2,18.94c-0.26-0.07-0.45-0.21-0.44-0.49c0.01-0.3,0.23-0.39,0.49-0.38c0.27,0.02,0.46,0.16,0.43,0.45
		C11.65,18.8,11.46,18.93,11.2,18.94z"/>
</g>
</svg>
