<?xml version="1.0" encoding="utf-8"?>
<!-- Generator: Adobe Illustrator 23.0.2, SVG Export Plug-In . SVG Version: 6.00 Build 0)  -->
<svg version="1.1" id="Camada_1" xmlns="http://www.w3.org/2000/svg" xmlns:xlink="http://www.w3.org/1999/xlink" x="0px" y="0px"
	 viewBox="0 0 52.5 39.34" style="enable-background:new 0 0 52.5 39.34;" xml:space="preserve">
<style type="text/css">
	.st0{fill:#010101;}
	.st1{fill:#492369;}
	.st2{fill:#591D11;}
	.st3{fill:#D17F1D;}
	.st4{fill:#37474C;}
	.st5{fill:#59307E;}
	.st6{fill:#2E3C40;}
	.st7{fill:#FBF7EE;}
	.st8{fill:#40565D;}
	.st9{fill:#36484E;}
	.st10{fill:#43575C;}
	.st11{fill:#5E7982;}
	.st12{fill:#364448;}
	.st13{fill:#4E636A;}
	.st14{fill:#4A3771;}
	.st15{fill:#523D7F;}
	.st16{fill:#3F1F5C;}
	.st17{fill:#8173A9;}
	.st18{fill:#695891;}
	.st19{fill:#7E361B;}
	.st20{fill:#563D81;}
	.st21{fill:#8E7AB0;}
	.st22{fill:#A492BF;}
	.st23{fill:#8873AC;}
	.st24{fill:#554084;}
	.st25{fill:#7F6BA5;}
	.st26{fill:#CB7A38;}
	.st27{fill:#BC5F28;}
	.st28{fill:#C67233;}
	.st29{fill:#8D421C;}
	.st30{fill:#5D8C9C;}
	.st31{fill:#CB642F;}
	.st32{fill:#48727F;}
	.st33{fill:#E2A16B;}
	.st34{fill:#4E8090;}
	.st35{fill:#6E301B;}
	.st36{fill:#A74B19;}
	.st37{fill:#F4E293;}
	.st38{fill:#EEEB82;}
	.st39{fill:#553E84;}
	.st40{fill:#4C2C6D;}
	.st41{fill:#FAF8E0;}
	.st42{fill:#B36717;}
	.st43{fill:#56337D;}
	.st44{fill:#F5F2B6;}
	.st45{fill:#7B67A4;}
	.st46{fill:#F2F18D;}
	.st47{fill:#D2DA70;}
	.st48{fill:#654885;}
	.st49{fill:#B36D24;}
	.st50{fill:#B6D7E6;}
	.st51{fill:#FCFCFD;}
	.st52{fill:#A2CBDA;}
	.st53{fill:#BFABCE;}
	.st54{fill:#EAE68E;}
	.st55{fill:#4A1F7D;}
	.st56{fill:#8BB7C6;}
	.st57{fill:#6B9CAC;}
	.st58{fill:#EFCF5F;}
	.st59{fill:#F2DB65;}
	.st60{fill:#CB9537;}
	.st61{fill:#DFA83F;}
	.st62{fill:#77ACBC;}
	.st63{fill:#89BED1;}
	.st64{fill:#9ECBDE;}
	.st65{fill:#B7C961;}
	.st66{fill:#4C2F6A;}
	.st67{fill:#BFCC6F;}
	.st68{fill:#D7E9EE;}
	.st69{fill:#83BFD3;}
	.st70{fill:#A73F11;}
	.st71{fill:#F5EFA9;}
	.st72{fill:#E8BD87;}
	.st73{fill:#F2D996;}
	.st74{fill:#E1E37D;}
	.st75{fill:#D68847;}
	.st76{fill:#A45E1A;}
	.st77{fill:#8C3E1E;}
	.st78{fill:#9A541B;}
	.st79{fill:#EACA77;}
	.st80{fill:#A6D0E4;}
	.st81{fill:#97C7DA;}
	.st82{fill:#58818E;}
	.st83{fill:#62919F;}
	.st84{fill:#74A6B6;}
	.st85{fill:#DCA63F;}
	.st86{fill:#CAD670;}
	.st87{fill:#4E2775;}
	.st88{fill:#57427C;}
	.st89{fill:#B691B6;}
	.st90{fill:#B488B7;}
	.st91{fill:#A882A7;}
	.st92{fill:#F2E094;}
	.st93{fill:#E4BD53;}
	.st94{fill:#FEFDF9;}
	.st95{fill:#F7EAA5;}
	.st96{fill:#DEBB6C;}
	.st97{fill:#F5DF8D;}
	.st98{fill:#CCD96E;}
	.st99{fill:#44286A;}
	.st100{fill:#DC9D51;}
	.st101{fill:#E6B75A;}
	.st102{fill:#604179;}
	.st103{fill:#4B6D2D;}
	.st104{fill:#F5E59D;}
	.st105{fill:#69963B;}
	.st106{fill:#D2A7CC;}
</style>
<g>
	<path class="st0" d="M49.46,15.11c0,2.92,0.21,5.86-0.08,8.74c-0.17,1.6,0.25,2.69,1.14,3.85c0.65,0.84,0.38,2.02-0.24,2.83
		c-2.04,2.66-5.15,3.34-8.02,4.44c-3.75,1.43-7.7,2.01-11.66,2.42c-4.06,0.42-8.11,0.01-12.14-0.47c-4.53-0.54-8.89-1.7-13.04-3.62
		c-1.22-0.56-2.25-1.36-3.04-2.45c-1.17-1.63-0.95-3.02,0.72-4.17c1.33-0.92,2.85-1.48,4.4-1.75c1.63-0.28,2.25-1.57,2.21-2.69
		c-0.08-2.28,1.39-3.73,2.2-5.55c0.78-1.75,2.17-2.07,3.86-2.11c4.79-0.12,9.58-0.32,14.37-0.44c0.74-0.02,0.95-0.2,0.93-0.94
		c-0.06-2.32-0.03-4.64-0.07-6.95c-0.02-1.08,0.26-1.75,1.47-2.06c2.76-0.73,5.47-1.64,8.2-2.47c0.51-0.16,1.01-0.15,1.51,0.08
		c2.07,0.93,4.14,1.85,6.21,2.76c0.74,0.33,1.05,0.85,1.04,1.69c-0.04,2.96-0.02,5.91-0.02,8.87
		C49.42,15.11,49.44,15.11,49.46,15.11z"/>
	<path class="st1" d="M38.3,3.78c1.98-1,3.93-1.11,5.85,0.15c0.4,0.26,0.84,0.52,1.29,0.62c2.4,0.52,2.9,2.01,2.8,4.33
		c-0.2,4.87-0.09,9.75-0.04,14.62c0.01,1.12-0.35,1.52-1.44,1.42c-0.71-0.06-1.44,0.01-2.16,0.01c-0.53,0.44-1.12,0.32-1.71,0.17
		c-0.2-0.12-0.38-0.25-0.24-0.52c0.16-0.2,0.38-0.26,0.63-0.29c1.37-0.2,1.38-0.21,1.39-1.62c0.01-4.54-0.01-9.08,0.01-13.62
		c0-0.27,0.07-0.58-0.14-0.81c-1.09-1.2-2.02-2.54-3.11-3.78c-0.3,0.4-0.13,0.79-0.23,1.12c-0.04,0.18-0.12,0.35-0.28,0.46
		c-0.19,0.06-0.37,0.04-0.53-0.09c-0.33-0.5-0.22-1.06-0.22-1.6c-0.1-0.69-0.47-0.04-0.69-0.13c-0.17,0.05-0.34,0.07-0.51,0.05
		C38.66,4.23,38.4,4.12,38.3,3.78z"/>
	<path class="st2" d="M9.56,25.65c0.48-1,0.96-2,1.44-3c0.09-0.18,0.12-0.35,0.08-0.57c-0.42-2.1,0.92-3.45,2.1-4.87
		c0.18,1.29-0.87,2.08-1.26,3.14c-0.68,0.69-0.03,1.29,0.14,1.92c-0.02,0.29-0.23,0.49-0.33,0.74c-0.38,1.18-1.02,2.25-1.43,3.41
		c-0.18,0.49-0.27,0.93,0.29,1.22c0.91,0.7,1.96,1.14,2.99,1.61c1.66,0.7,3.37,1.29,5.13,1.71c0.94,0.21,1.88,0.37,2.82,0.57
		c0.96,0.07,1.92-0.04,2.88,0.01c0.71,0.01,1.42,0.01,2.12,0c0.12,0,0.24,0,0.35,0.02c0.33,0.06,0.81,0,0.82,0.46
		c0.01,0.38-0.44,0.34-0.72,0.45c-0.75,0.29-1.56,0.13-2.32,0.37c-2.86,0.32-5.6-0.19-8.3-1.09c-1.33-0.49-2.67-0.97-3.89-1.71
		c-0.88-0.44-1.79-0.85-2.62-1.38c-0.89-0.56-1.28-1.27-0.8-2.3C9.16,26.09,9.3,25.82,9.56,25.65z"/>
	<path class="st3" d="M13.54,16.66c0.06-0.94,0.82-0.73,1.35-0.76c5.34-0.35,10.69-0.52,16.04-0.55c0.44,0,0.88-0.03,1.31-0.05
		c0.34-0.25,0.73-0.33,1.14-0.31c0.56,0,1.12,0,1.67-0.04c0.4,0,0.73,0.29,1.13,0.3c0.27,0.02,0.54,0.02,0.8,0.07
		c0.3,0.11,0.6,0.12,0.9,0.01c0.17-0.04,0.33-0.05,0.5-0.04c0.51,0.01,0.91,0.24,1.25,0.6c0.46,0.55,0.7,1.22,1.05,1.83
		c0.24,0.62,0.6,1.22,0.44,1.93c-0.08,0.19-0.22,0.31-0.43,0.32c-0.45-0.09-0.53-0.51-0.72-0.83c-1.08-2.58-1.38-2.78-4.16-2.79
		c-0.95,0-1.9,0.05-2.85-0.05c-0.13-0.02-0.26-0.04-0.39-0.08c-1.21-0.16-2.41-0.19-3.61,0.1c-2.94,0.12-5.88,0.02-8.82,0.06
		C17.95,16.38,15.74,16.4,13.54,16.66z"/>
	<path class="st4" d="M44.35,32.86c-3.8,1.73-7.81,2.65-11.94,3.1c-1.87,0.2-3.73,0.34-5.6,0.23c-0.16-0.95,0.6-0.76,1.06-0.78
		c1.5-0.09,3.01,0.04,4.51-0.05c-0.34-0.05-0.71,0.11-1.04-0.12c0.18-0.7,0.78-0.55,1.26-0.58c0.67-0.04,1.35,0.07,2.01-0.12
		c1.22-0.17,2.44-0.38,3.63-0.71c1.83-0.48,3.57-1.27,5.41-1.7C44.18,32.07,44.34,32.39,44.35,32.86z"/>
	<path class="st5" d="M33.43,15.35c-0.39-0.02-0.78-0.03-1.17-0.05c0.07-2.9,0.07-5.8-0.14-8.7c-0.06-0.8,0.16-1.2,1.02-1.4
		c1.74-0.39,3.44-0.94,5.16-1.42c0.25,0.09,0.5,0.17,0.75,0.26c-0.24,0.84-1.1,0.55-1.61,0.9c-1.08,0.37-2.22,0.49-3.3,0.85
		c-0.86,0.28-1.27,0.73-0.89,1.65c0.05,0.24,0.06,0.48,0.04,0.73c0.47,2.21,0.19,4.47,0.41,6.7C33.69,15.08,33.64,15.26,33.43,15.35
		z"/>
	<path class="st6" d="M31.32,35.22c0.63,0,1.26,0,1.89,0c-1.72,0.59-3.49,0.48-5.24,0.52c-0.42,0.01-1.01-0.27-1.16,0.46
		c-3.62,0.17-7.19-0.27-10.76-0.76c-0.11-0.01-0.2-0.11-0.3-0.17c-0.06-1.08,0.76-0.68,1.3-0.78c0.19,0.01,0.38,0.04,0.57,0.09
		c1.24,0.17,2.48,0.45,3.75,0.32c0.64,0,1.27-0.02,1.91,0.02c1.8,0.33,3.6,0.32,5.41,0.05C29.55,34.82,30.49,34.65,31.32,35.22z"/>
	<path class="st7" d="M13.54,16.66c0.71-0.56,1.56-0.53,2.39-0.55c1.39-0.04,2.78,0,4.17,0c2.61,0.14,5.22,0.01,7.82,0.08
		c0.36,0.01,0.9-0.32,1.06,0.36c-0.54,0.47-1.19,0.32-1.81,0.36c-2.01,0.11-4.03-0.22-6.03,0.11c-1.74,0.08-3.47,0.34-5.21,0.35
		c-0.96-0.11-1.51,0.53-2.06,1.15c-0.29,0.32-0.51,0.7-0.8,1.02c-0.42,0.37-0.59,1.02-1.24,1.15c-0.19-0.08-0.28-0.2-0.15-0.4
		c0.5-1.02,1-2.05,1.5-3.07C13.3,17.02,13.42,16.84,13.54,16.66z"/>
	<path class="st8" d="M16.98,34.74c-0.45,0.09-1.05-0.18-1.24,0.52c-3.55-0.75-7.09-1.55-10.32-3.33c-0.12-0.23,0.02-0.32,0.2-0.41
		c0.69-0.02,1.24,0.38,1.87,0.57c0.45,0.19,0.9,0.35,1.37,0.48c2.34,0.63,4.71,1.13,7.08,1.62C16.34,34.27,16.86,34.13,16.98,34.74z
		"/>
	<path class="st9" d="M42.88,24.92c0.58,0.01,1.15,0.02,1.73,0.03c0.98,0.41,1.99,0.75,2.92,1.25c1.16,0.64,2.07,1.53,1.85,3.05
		c-0.23,0.3-0.46,0.39-0.7,0c-0.38-1.57-1.49-2.38-2.94-2.84c-0.91-0.29-1.85-0.48-2.74-0.85C42.8,25.37,42.67,25.18,42.88,24.92z"
		/>
	<path class="st10" d="M48.86,29.2c0.15,0.29,0.34,0.07,0.52,0.04c-0.29,1.28-1.34,1.87-2.33,2.51c-0.83,0.54-1.73,0.91-2.7,1.11
		c-0.51,0.18-0.01-0.69-0.52-0.5c-0.04-0.18,0.03-0.32,0.19-0.4C45.68,31.14,47.34,30.3,48.86,29.2z"/>
	<path class="st11" d="M5.69,31.63c-0.09,0.1-0.17,0.2-0.26,0.3c-0.81-0.36-1.47-0.91-2-1.62c-0.94-1.27-0.81-1.9,0.56-2.76
		c0.28-0.12,0.43,0.04,0.55,0.25c-0.89,1.58-0.89,1.58,0.76,3.15C5.48,31.15,5.78,31.29,5.69,31.63z"/>
	<path class="st12" d="M9.56,25.65c-0.08,0.24-0.15,0.48-0.23,0.72c-0.59,0.27-1.2,0.47-1.81,0.69c-0.45,0.13-0.88,0.33-1.37,0.23
		c-0.25-0.07-0.44-0.21-0.51-0.48C6.87,26.15,8.21,25.88,9.56,25.65z"/>
	<path class="st13" d="M5.65,26.81C5.82,26.9,6,26.99,6.17,27.09c0.05,0.06,0.07,0.12,0.06,0.18c-0.01,0.06-0.02,0.1-0.04,0.1
		C6,27.55,5.74,27.6,5.5,27.71c-0.19,0.08-0.37,0.17-0.57,0.23c-0.16,0.02-0.31,0-0.43-0.12c-0.17-0.09-0.34-0.18-0.52-0.26
		C4.48,27.15,5.01,26.86,5.65,26.81z"/>
	<path class="st14" d="M40.96,5.96c0-0.16,0.01-0.32,0.01-0.48c0.4-0.04,0.49,0.29,0.48,0.54c-0.05,1.04,0.58,1.32,1.45,1.52
		c0.77,0.18,1.51,0.52,2.13,1.05c0,4.84,0,9.68,0.01,14.52c0,1.7,0,1.71-1.77,1.5c-0.21-0.03-0.39-0.03-0.57,0.07
		c-0.92-0.74-1.08-1.88-1.5-2.89c-0.06-0.31-0.04-0.62,0.05-0.93c0.09-0.26,0.27-0.48,0.43-0.7c1.2-1.7,1.18-2.91-0.06-4.54
		c-0.26-0.34-0.59-0.65-0.69-1.09c-0.18-1.54-0.05-3.09-0.08-4.63c-0.01-0.83-0.03-1.65-0.18-2.48C40.57,6.93,40.57,6.39,40.96,5.96
		z"/>
	<path class="st14" d="M45.76,8.1c0.45-0.59,1.13-0.85,1.73-1.26c0.36,0.3,0.18,0.68,0.18,1c0.01,5.04,0.01,10.08,0.01,15.11
		c0,1.78,0,1.78-1.74,1.68c-0.49-0.95-0.17-1.95-0.17-2.93c-0.01-3.94,0.04-7.88-0.12-11.82C45.62,9.28,45.67,8.69,45.76,8.1z"/>
	<path class="st15" d="M45.03,8.59c-1.22-0.09-2.19-1.06-3.47-1.01c-0.41,0.02-0.32-0.45-0.36-0.75c-0.06-0.45,0.17-0.95-0.23-1.35
		c0.1-0.52-0.32-1.32,0.24-1.51c0.58-0.19,0.8,0.66,1.09,1.09C43.13,6.3,44.37,7.23,45.03,8.59z"/>
	<path class="st16" d="M40.96,5.96c0.33,2.95,0.22,5.92,0.24,8.88c0.13,0.16,0.17,0.34,0.16,0.53c-0.16,0.46,0.02,1.1-0.69,1.26
		c-0.15-0.02-0.26-0.09-0.34-0.21c-0.17-0.34-0.21-0.69-0.19-1.06c0-2.65-0.1-5.3,0-7.94c0.02-0.5-0.09-1.04,0.35-1.44
		C40.65,5.96,40.81,5.96,40.96,5.96z"/>
	<path class="st17" d="M45.76,8.1c0.07,2.81,0.18,5.62,0.21,8.43c0.03,2.7-0.02,5.41-0.03,8.11c-0.5,0-0.43-0.36-0.44-0.67
		c0-5.08,0-10.16,0-15.23C45.49,8.48,45.53,8.25,45.76,8.1z"/>
	<path class="st18" d="M40.5,5.97c-0.01,3.2-0.03,6.39-0.04,9.59c-0.76-0.26-0.5-0.85-0.4-1.35c0.08-0.4,0.02-0.13-0.17-0.11
		c-0.35,0.03-0.43-0.37-0.56-0.65c-0.08-0.24-0.1-0.48-0.09-0.73c0.09-0.53,0.19-1.05,0-1.58c-0.04-0.97-0.08-1.93-0.33-2.88
		c0.06-0.19,0.21-0.27,0.38-0.32c1.17-0.36,0.37-1.29,0.56-1.93c0.21-0.65-0.3-1.53,0.6-1.97C40.47,4.68,40.49,5.32,40.5,5.97z"/>
	<path class="st19" d="M41.43,21.79c0.42,0.96,0.84,1.93,1.27,2.89c0.06,0.08,0.12,0.16,0.18,0.24c0.04,0.16,0.07,0.32,0.11,0.48
		c0.33,0.15,0.52,0.42,0.64,0.76c0.11,0.37,0.32,0.7,0.35,1.1c-0.01,0.17-0.09,0.3-0.25,0.38c-0.25,0-0.52,0.09-0.75-0.12
		c-0.43-0.63-0.74-1.32-1.04-2.01c-0.09-0.26-0.19-0.52-0.31-0.76c-0.33-0.74-0.7-1.46-0.86-2.26
		C40.81,22.07,40.92,21.73,41.43,21.79z"/>
	<path class="st20" d="M45.52,7.64c-0.88,0.25-1.03-0.54-1.43-0.99c0.07-0.69-0.98-1.09-0.5-1.89c0.73-0.01,1.3,0.42,1.93,0.71
		C45.61,6.19,45.62,6.92,45.52,7.64z"/>
	<path class="st21" d="M40.46,4.03c-0.54,0.65,0.12,1.55-0.47,2.18c-0.22,0.18-0.41,0.09-0.6-0.06c-0.48-0.87-1.22-0.14-1.82-0.3
		c-0.5-0.33-0.08-0.51,0.13-0.71c0.52-0.51,1.29-0.62,1.8-1.13C39.82,3.89,40.15,3.31,40.46,4.03z"/>
	<path class="st22" d="M39.49,4.02c-0.36,0.87-1.32,0.98-1.94,1.51c-0.02,0.02-0.02,0.08,0,0.11c0.01,0.03,0.05,0.06,0.08,0.09
		c-0.01,0.49-0.44,0.5-0.74,0.65c-0.45,0.11-0.9,0.19-1.37,0.16c-0.7-0.45-0.22-0.75,0.15-1.05c0.49-0.4,1.2-0.3,1.67-0.75
		c0.57-0.23,1.14-0.47,1.71-0.7C39.2,4.03,39.35,4.03,39.49,4.02z"/>
	<path class="st23" d="M43.6,4.76c-0.04,0.69,0.9,1.11,0.5,1.89c-0.68-0.9-1.35-1.79-2.13-2.82C42.69,4.05,43.13,4.43,43.6,4.76z"/>
	<path class="st24" d="M45.77,5.71c0.48,0.07,0.88,0.31,1.28,0.59c-0.23,0.62-0.78,0.84-1.29,1.1C45.41,6.84,45.4,6.27,45.77,5.71z"
		/>
	<path class="st25" d="M45.77,5.71c0,0.56-0.01,1.13-0.01,1.69c-0.08,0.08-0.16,0.16-0.24,0.24c-0.37-0.73-0.4-1.45,0-2.17
		C45.61,5.55,45.69,5.63,45.77,5.71z"/>
	<path class="st26" d="M26.53,31.86c-0.71-0.02-1.41-0.04-2.12-0.06c-0.18-0.72,0.41-0.66,0.78-0.68c0.98-0.06,1.03-0.58,0.69-1.29
		c-0.66-1.36-1.2-2.78-1.78-4.17c-0.13-0.32-0.44-0.64,0.06-0.91c1.35-0.16,2.69-0.29,3.71-1.36c0.27-0.29,0.65-0.21,1-0.07
		c1.46,0.58,2.88,0.49,4.22-0.35c0.6-0.37,1.16-0.39,1.8-0.11c0.82,0.36,1.67,0.54,2.5-0.01c0.34-0.27,0.66-0.55,0.99-0.82
		c0.59-0.5,1.11-0.52,1.49,0.26c-0.02,0.78,0.31,1.55,0.1,2.35c-0.08,0.19-0.2,0.43-0.4,0.38c-1.32-0.3-2.38,0.41-3.5,0.86
		c-1.22,0.49-2.45,0.93-3.64,1.49c-1.36,0.64-2.32,1.65-2.84,3.07c-0.06,0.15-0.09,0.31-0.17,0.45c-0.12,0.23-0.08,0.55,0.09,0.63
		c-0.01,0.14-0.08,0.24-0.2,0.3C28.39,32.29,27.45,31.44,26.53,31.86z"/>
	<path class="st27" d="M21.29,31.84c-0.9-0.22-1.79-0.43-2.69-0.65c-1.49-1.41-3.24-2.47-4.85-3.72c0.43-1.56,0.88-3.12,1.95-4.4
		c1.69-0.31,2.73,0.81,3.53,1.93c1.16,1.6,2.19,3.31,3.28,4.96c0.85,1.29,0.72,1.5-0.79,1.69C21.56,31.68,21.42,31.75,21.29,31.84z"
		/>
	<path class="st28" d="M21.29,31.84c0.23-0.83,0.98-0.21,1.48-0.57c0-0.53-0.37-0.94-0.67-1.38c-0.99-1.48-1.97-2.96-2.92-4.47
		c-0.75-1.2-1.81-2.19-3.42-2.18c-0.15-0.16-0.14-0.34-0.04-0.52c0.67-0.43,1.23-0.07,1.77,0.27c1.2,0.77,2.45,0.9,3.76,0.32
		c0.5-0.22,0.94-0.19,1.32,0.2c0.45,0.47,1.04,0.72,1.58,1.06c0.1,0.11,0.1,0.22,0.02,0.34c0.67,1.59,1.34,3.18,2.02,4.77
		c0.6,1.43,0.5,1.6-1.03,1.71c-0.32,0.02-0.66-0.04-0.74,0.41C23.37,31.82,22.33,31.83,21.29,31.84z"/>
	<path class="st29" d="M15.77,22.76c-0.01,0.16-0.01,0.32-0.02,0.48c-0.8,1.37-1.24,2.9-1.89,4.33c0.23,0.38,0.05,0.69-0.15,1
		c-0.14,0.14-0.38,0.34-0.51,0.23c-0.85-0.7-2.22-0.67-2.67-1.91c-0.18-0.78,0.35-1.35,0.58-2.01c0.23-0.67,0.81-1.3,0.35-2.09
		c0.16-0.19,0.31-0.38,0.47-0.57c0.16-0.11,0.33-0.13,0.51-0.11c0.8,0.16,1.6,0.12,2.4,0c0.11,0,0.21,0.02,0.32,0.05
		C15.39,22.34,15.5,22.63,15.77,22.76z"/>
	<path class="st30" d="M7.6,26.81c0.55-0.26,1.09-0.58,1.74-0.44C8.76,27.3,9.18,27.95,10,28.42c0.85,0.49,1.74,0.91,2.62,1.36
		c-0.08,0.56-0.64,0.8-0.83,1.28c-0.88,0.23-1.74,0.58-2.67,0.25c-0.55-0.86-1.1-1.72-1.67-2.56C7.01,28.11,6.69,27.38,7.6,26.81z"
		/>
	<path class="st31" d="M13.59,28.52c0.09-0.32,0.19-0.63,0.28-0.95c1.89,0.79,3.54,1.9,4.73,3.62c-1.83-0.32-3.54-0.99-5.24-1.72
		C13.03,29.06,13.46,28.82,13.59,28.52z"/>
	<path class="st32" d="M16.23,31.42c2.74,0.87,5.53,1.32,8.42,1.14c0.1-0.06,0.19-0.05,0.27,0.03c0.22,0.5,0.97-0.01,1.17,0.72
		c-1.08,0.63-2.3,0.2-3.44,0.35c-1.39-0.06-2.75-0.29-4.11-0.56c-1.01-0.36-2.16-0.33-3.01-1.12
		C15.37,31.31,15.96,31.56,16.23,31.42z"/>
	<path class="st33" d="M11.47,22.79c0.7-0.12,0.67,0.16,0.5,0.73c-0.33,1.14-1.08,2.11-1.27,3.29c-0.19,0.3,0.1,0.72-0.23,0.99
		c-0.77-0.18-0.92-0.57-0.57-1.3C10.47,25.29,10.95,24.03,11.47,22.79z"/>
	<path class="st34" d="M16.23,31.42c-0.23,0.14-0.47,0.28-0.7,0.42c-0.27,0.23-0.56,0.1-0.85,0.07c-0.91-0.4-1.96-0.47-2.72-1.21
		c-0.25-0.64,0.46-0.6,0.66-0.93C13.82,30.32,15.03,30.87,16.23,31.42z"/>
	<path class="st35" d="M24.88,32.63c-0.08-0.02-0.15-0.05-0.23-0.07c0.91-0.4,1.95-0.1,2.84-0.57c-0.27-0.23-0.63-0.03-0.95-0.13
		c0.93-0.4,1.92-0.14,2.87-0.25c0.6-0.33,1.07-0.31,1.29,0.45c-0.18,0.35-0.5,0.47-0.85,0.56c-0.97,0.01-1.92,0.24-2.88,0.32
		C26.26,32.9,25.54,32.93,24.88,32.63z"/>
	<path class="st36" d="M10.47,27.81c0.05-0.34-0.29-0.77,0.23-0.99c0.42,0.35,0.54,1.17,1.42,0.81c0.25-0.1,0.43,0.26,0.52,0.54
		c0.17,0.47,0.5,0.57,0.94,0.35c-0.08,0.32-0.15,0.64-0.23,0.96C12.36,28.98,11.26,28.68,10.47,27.81z"/>
	<path class="st37" d="M12.37,22.3c-0.14-0.03-0.29-0.05-0.43-0.08c-0.71-0.56-1.08-1.17-0.27-1.95c0.08,0.11,0.16,0.22,0.24,0.32
		c0.03,0.72,0.7,1.03,1.03,1.56C12.8,22.43,12.6,22.43,12.37,22.3z"/>
	<path class="st38" d="M28.93,16.49c-0.69-0.45-1.46-0.19-2.2-0.23c-2.21-0.13-4.43,0.22-6.63-0.16c3.04-0.03,6.07-0.06,9.11-0.1
		c1.19-0.15,2.39-0.11,3.58-0.02l0.02,0.09c0.94,0.23,1.9,0.11,2.83,0.11c2.07-0.02,3.09,1.14,3.64,2.94
		c0.09,0.52,0.12,1.03-0.05,1.54c-0.05,0.11-0.13,0.2-0.24,0.25c-0.47-0.07-0.81-0.61-1.36-0.37c-2.68-0.65-5.19-1.74-7.69-2.84
		C29.43,17.47,28.94,17.17,28.93,16.49z"/>
	<path class="st39" d="M41.2,15.32c0-0.16,0-0.32,0-0.48c1.83,1.23,2.56,3.97,0.23,6c-0.65-0.24-0.33-0.82-0.43-1.25
		c-0.18-0.61-0.37-1.21-0.55-1.82c-0.08-0.43-0.35-0.87,0.06-1.28c0.07,0.01,0.14,0.02,0.21,0.02c0.26,0.15,0.32-0.01,0.35-0.22
		C41.13,15.98,40.99,15.63,41.2,15.32z"/>
	<path class="st40" d="M39.52,11.22c0.37,0.48,0.11,0.96,0,1.43c-0.37,0.98-0.4,2.09-1.14,2.93c-0.18-0.01-0.37-0.02-0.55-0.03
		c-0.31-0.29-0.49-0.7-0.35-1.07c0.49-1.25-0.36-0.95-1-0.91c-0.11-0.01-0.21-0.05-0.31-0.1c-0.19-0.34,0.11-0.61,0.14-0.92
		c0.13-0.48-0.35-0.89-0.14-1.38c0.36-0.28,0.78-0.47,1.2-0.64C38.24,10.24,39.03,10.26,39.52,11.22z"/>
	<path class="st41" d="M39.05,19.15c-0.72-2.4-2.56-2.91-4.75-2.87c-0.49,0.01-1.04,0.2-1.49-0.21c1.47,0.01,2.95,0.07,4.42,0.01
		c1.31-0.05,2.07,0.58,2.53,1.72c0.18,0.44,0.35,0.88,0.52,1.33C39.88,19.35,39.47,19.42,39.05,19.15z"/>
	<path class="st42" d="M41,19.59c0.14,0.42,0.29,0.83,0.43,1.25c0,0.32,0,0.63,0.01,0.95c-0.28,0.15-0.48,0.37-0.49,0.71
		c-0.49,0.38-0.86,0.2-1.17-0.25c-0.43-0.36-0.81-0.61-1.25,0.04c-0.21,0.31-0.6,0.48-0.91,0.72c-0.48,0.29-0.63-0.07-0.8-0.4
		c0.33-0.83,1.07-1.28,1.7-1.84c0.12-0.03,0.22-0.01,0.32,0.06c0.06,0.02,0.12,0.05,0.18,0.07c0.12-0.01,0.23,0.02,0.34,0.07
		c1.17,0.62,1.18,0.62,1.17-0.64c0-0.16,0.03-0.31,0.13-0.44C40.76,19.78,40.88,19.69,41,19.59z"/>
	<path class="st43" d="M36.33,13.45c0.39-0.22,0.77-0.35,1.25-0.21c0.36,0.11,0.68,0.21,0.38,0.59c-0.44,0.57-0.11,1.15-0.14,1.72
		c-0.24,0.19-0.47,0.25-0.7-0.01c-0.29-0.78-0.63-0.11-0.96-0.04c-0.45,0.2-0.62-0.18-0.86-0.41c-0.38-0.07-0.41-0.35-0.42-0.66
		c0.05-0.11,0.12-0.19,0.21-0.26C35.51,13.94,35.97,13.79,36.33,13.45z"/>
	<path class="st44" d="M40.64,19.88c0.01,0.08,0.03,0.15,0.03,0.23c0.03,0.54,0.66,1.21-0.06,1.58c-0.72,0.37-1.22-0.23-1.61-0.8
		c0.01-0.58,0.03-1.16,0.04-1.74c0.41-0.01,0.82-0.02,1.23-0.03C40.4,19.38,40.52,19.63,40.64,19.88z"/>
	<path class="st45" d="M40.51,16.5c-0.02,0.43-0.04,0.85-0.06,1.28c-0.32-0.57-0.63-1.13-0.95-1.7c-0.41-0.9-0.58-1.8,0.05-2.68
		c1.16,0.36,0.36,1.54,0.9,2.16C40.48,15.87,40.49,16.18,40.51,16.5z"/>
	<path class="st46" d="M35.01,14.36c0.1,0.25,0.2,0.49,0.29,0.74c-0.57,0.51-1.25,0.15-1.88,0.25c0.02-0.16,0.04-0.31,0.06-0.47
		c-0.1-0.66-0.2-1.32,0.06-1.97C34.2,13.22,34.97,13.42,35.01,14.36z"/>
	<path class="st47" d="M39.56,13.4c-0.02,0.89-0.03,1.78-0.05,2.68c-0.31-0.31-0.66-0.53-1.13-0.5c0.33-0.99,0.37-2.1,1.14-2.93
		C39.53,12.9,39.54,13.15,39.56,13.4z"/>
	<path class="st48" d="M36.17,15.5c0.3-0.24,0.08-1.02,0.77-0.83c0.49,0.14,0.37,0.52,0.18,0.87C36.8,15.53,36.49,15.51,36.17,15.5z
		"/>
	<path class="st49" d="M32.79,15.98c-1.19,0.01-2.39,0.01-3.58,0.02C30.4,15.66,31.59,15.69,32.79,15.98z"/>
	<path class="st50" d="M38.35,34.07c-1.15,0.42-2.35,0.64-3.57,0.72c-1.53,0.34-2.75-0.41-3.96-1.16c0.38-0.7,1.14-0.53,1.73-0.77
		c0.88-0.14,1.71-0.54,2.63-0.49c0.94,0.09,1.76-0.35,2.63-0.58c1.82-0.5,3.64-0.99,5.55-0.61c0.1,0.75-0.55,0.89-1,1.15
		C41.1,33.08,39.65,33.4,38.35,34.07z"/>
	<path class="st51" d="M38.35,34.07c0.42-0.65,1.2-0.63,1.8-0.94c1.07-0.56,2.21-1,3.19-1.74c0.62-0.94,1.73-1.21,2.56-1.87
		c0.43-0.34,1-0.59,0.93-1.26c-0.07-0.65-0.7-0.67-1.14-0.89c-0.73-0.38-1.62-0.42-2.25-1.02c-0.15-0.32-0.3-0.64-0.45-0.96
		c1.41,0.21,2.78,0.62,4.05,1.25c1.04,0.51,1.82,1.28,1.82,2.56c-0.97,1.35-2.49,1.86-3.88,2.58c-0.38,0.2-0.77,0.38-1.16,0.57
		C42,32.93,40.18,33.5,38.35,34.07z"/>
	<path class="st52" d="M30.88,33.56c1.36,0.21,2.42,1.4,3.9,1.22c-1.12,0.45-2.34,0.04-3.46,0.43c-2.03,0.07-4.07,0.14-6.1,0.22
		c-0.68,0.03-1.35-0.04-2.01-0.21c0.09-0.64,0.63-0.51,1.02-0.55c0.64-0.07,1.28-0.02,1.92-0.03c0.71-0.01,1.44,0.13,1.8-0.79
		c0.17-0.44,0.76-0.36,1.16-0.52c0.13-0.04,0.26-0.07,0.4-0.08C29.99,33.24,30.49,33.17,30.88,33.56z"/>
	<path class="st53" d="M37.34,4.74c-0.04,0.5-0.5,0.4-0.78,0.56c-0.44,0.26-1.12,0.28-1.1,1.03c-0.24,0.54-0.74,0.51-1.2,0.56
		c-0.53-0.18-0.85,0.26-1.27,0.42c-0.55-0.8-0.39-1.3,0.56-1.64C34.79,5.24,36.07,5.01,37.34,4.74z"/>
	<path class="st54" d="M33.74,12.92c-0.45,0.6-0.08,1.31-0.26,1.95c-0.48-1.63-0.03-3.32-0.32-4.96c-0.1-0.56-0.12-1.14-0.17-1.71
		c1.27,0.35,1.35,0.53,0.93,2.02c-0.14,0.79-0.1,1.59-0.04,2.39C33.87,12.73,33.82,12.83,33.74,12.92z"/>
	<path class="st55" d="M33.75,10.12c-0.04-0.01-0.07-0.03-0.11-0.04c0.71-0.94,0.02-1.4-0.65-1.87c0-0.3,0-0.59,0-0.89
		c0.21-0.36,0.23-1.04,0.95-0.6c-0.2,0.63-0.13,1.16,0.34,1.71C34.97,9.23,34.78,9.69,33.75,10.12z"/>
	<path class="st56" d="M29.21,33.58c-0.39,0.36-1.47,0-1.12,1.17c0.09,0.31-0.51,0.2-0.8,0.23c-1.36,0.14-2.75-0.26-4.08,0.24
		c-0.63-0.01-1.25-0.01-1.88-0.02c-0.74-0.28-1.58,0.14-2.29-0.32c-0.11-0.03-0.19-0.1-0.23-0.21c0.2-0.69-0.9-1.11-0.39-1.86
		c1.43,0.17,2.86,0.34,4.29,0.51c1.26,0.17,2.5,0.15,3.77-0.05C27.37,33.14,28.36,32.93,29.21,33.58z"/>
	<path class="st57" d="M18.89,34.52c0.01,0.07,0.01,0.15,0.01,0.22c-0.48,0.23-0.96,0.19-1.45,0.03c-0.15-0.01-0.3-0.02-0.46-0.02
		c-2.21-0.47-4.4-1-6.62-1.38c-0.65-0.11-1.19-0.42-1.8-0.57c-0.88-1.17-1.47-2.5-2.11-3.8c-0.26-0.53-0.49-1.08-0.32-1.7
		c0.01-0.07,0.03-0.13,0.04-0.2c0.48-0.09,0.95-0.19,1.43-0.28c-0.63,0.81-0.15,1.46,0.29,2.12c0.46,0.7,1.29,1.22,1.15,2.24
		c2.37,1.26,4.81,2.33,7.51,2.66C17.32,34.09,18.27,33.72,18.89,34.52z"/>
	<path class="st8" d="M17.44,34.76c0.48-0.01,0.97-0.02,1.45-0.03c0.81,0.16,1.62,0.32,2.43,0.47C20,35.32,18.7,35.2,17.44,34.76z"
		/>
	<path class="st58" d="M15.5,17.02c1.83-0.09,3.66-0.18,5.49-0.28c0.99-0.18,1.94-0.07,2.93,0.22c2.49,0.73,5,1.39,7.49,2.1
		c1.62,0.46,3.13,1.21,4.75,1.65c0.31,0.08,0.59,0.24,0.76,0.54c-0.42,1.06-1.21,0.56-1.87,0.41c-0.6-0.14-1.12-0.63-1.8-0.33
		c-0.29,0.12-0.54,0.35-0.88,0.31c-4.13-1.16-8.11-3-12.56-2.64c-0.65,0.05-1.27-0.08-1.84-0.42c-1.23-0.84-2-0.79-2.79,0.17
		c-0.28,0.33-0.56,0.65-1.06,0.49C13.81,18.02,14.81,17.62,15.5,17.02z"/>
	<path class="st59" d="M36.9,21.33c-4.1-1.52-8.25-2.82-12.5-3.87c-1.13-0.28-2.18-0.91-3.41-0.72c1.48-0.4,2.99-0.12,4.49-0.19
		c1.15-0.05,2.3-0.04,3.45-0.05c1.16,1.38,2.93,1.63,4.45,2.31c1.43,0.64,2.96,1.04,4.45,1.55C37.89,21.03,37.53,21.32,36.9,21.33z"
		/>
	<path class="st60" d="M12.86,22.06c-0.69-0.25-1.47-0.44-0.95-1.47c0.31-0.4,0.63-0.81,0.94-1.21c0.35-0.11,0.63,0,0.87,0.26
		c0.22,0.89,0.8,1.18,1.68,1.12c1.24-0.08,2.46-0.03,3.62,0.55c0.58,0.29,1.29,0.27,1.88,0.03c1.35-0.57,2.39-0.03,3.4,0.77
		c1.09,0.85,1.18,0.84,2.17-0.15c0.54-0.54,1.07-1.02,1.82-0.33c0.05,0.3-0.16,0.44-0.35,0.6c-0.78,0.52-1.33,1.39-2.36,1.52
		c-0.46,0.05-0.93,0.02-1.39,0.15c-0.3,0.05-0.58,0.02-0.83-0.17c-0.64-0.67-1.15-1.67-2.33-0.82c-0.71,0.09-1.43,0.16-2.15,0.21
		c-0.25-0.01-0.49-0.1-0.64-0.28c-0.82-1.06-1.84-1.11-2.97-0.59c-0.08,0.01-0.16,0.02-0.24,0.03
		C14.32,22.16,13.55,22.5,12.86,22.06z"/>
	<path class="st61" d="M13.6,19.64c-0.25-0.09-0.5-0.17-0.76-0.26c0.76-0.92,1.31-2.09,2.65-2.37c-0.43,0.74-1.18,1.27-1.42,2.14
		C14.04,19.44,14.01,19.73,13.6,19.64z"/>
	<path class="st62" d="M6.13,27.29c0.6,1.76,1.35,3.44,2.44,4.96c0.15,0.2,0.08,0.36-0.01,0.54c-0.4-0.16-0.8-0.31-1.2-0.47
		c-1.27-1.34-1.78-2.99-1.94-4.78C5.6,27.31,5.87,27.32,6.13,27.29z"/>
	<path class="st63" d="M5.42,27.54c0.63,1.6,1.08,3.27,1.94,4.78c-0.57-0.2-1.17-0.31-1.67-0.69c-0.16-0.16-0.32-0.32-0.48-0.48
		c-0.07-0.78-0.15-1.55-0.51-2.26c-0.23-0.45-0.06-0.79,0.21-1.13C5.08,27.69,5.25,27.61,5.42,27.54z"/>
	<path class="st64" d="M4.91,27.76c-0.09,0.48,0,0.9,0.19,1.37c0.26,0.63,0.65,1.32,0.11,2.02c-0.27-0.22-0.57-0.42-0.82-0.67
		c-1.27-1.23-1.25-1.63,0.12-2.67C4.64,27.8,4.78,27.78,4.91,27.76z"/>
	<path class="st14" d="M41.2,15.32c0,0.43,0.01,0.87,0,1.3c0,0.16,0.09,0.46-0.23,0.39c-0.22-0.04-0.22-0.3-0.24-0.49
		C41.17,16.24,40.75,15.61,41.2,15.32z"/>
	<path class="st65" d="M39.52,11.22c-0.59-0.72-1.39-0.55-2.16-0.49c-0.49-0.61-0.18-1.05,0.31-1.46c0.13-0.16,0.17-0.34,0.09-0.54
		c0.07-0.59,0.44-0.78,0.98-0.76c0.11,0.02,0.2,0.07,0.28,0.14C39.86,9.03,39.45,10.17,39.52,11.22z"/>
	<path class="st66" d="M39.52,5.95c0.16,0.09,0.31,0.18,0.47,0.27c0.34,0.59,0.37,1.19,0.06,1.8c-0.13,0.26-0.3,0.35-0.55,0.13
		c-0.26-0.38,0.08-0.86-0.2-1.26c-0.38,0.28-0.1,0.95-0.66,1.1c-0.66-0.09-0.58-0.58-0.57-1.04C38.36,6.34,38.53,5.56,39.52,5.95z"
		/>
	<path class="st67" d="M38.81,7.91c-0.03-0.51-0.08-1.04,0.29-1.47c0.13-0.16,0.34-0.06,0.42,0.04c0.42,0.55,0.18,1.11,0,1.67
		c-0.17-0.01-0.33-0.03-0.5-0.04c-0.08-0.01-0.16-0.02-0.23-0.03c-0.07-0.05-0.09-0.09-0.06-0.12C38.75,7.92,38.78,7.91,38.81,7.91z
		"/>
	<path class="st68" d="M43.44,26.35c1.03,0.14,1.96,0.59,2.91,0.97c1.08,0.43,1.26,1.39,0.32,2.04c-1.07,0.74-2.21,1.36-3.32,2.04
		c-2.41-0.18-4.69,0.42-6.95,1.17c-0.36,0.12-0.77,0.54-1.18,0.05c0.09-0.33,0.36-0.44,0.65-0.53c2.57-0.96,5.12-1.94,7.47-3.39
		c0.54-0.33,0.85-0.71,0.54-1.36C43.72,27,43.58,26.67,43.44,26.35z"/>
	<path class="st69" d="M43.85,27.33c0.75,0.43,0.87,0.81,0.03,1.35c-2.5,1.59-5.21,2.69-7.98,3.67c-0.78-0.11-1.53,0.1-2.28,0.24
		c-0.56,0.1-1.16,0.27-1.58-0.34c0.45-0.71,1.27-0.52,1.9-0.8c3.48-0.65,6.83-1.63,9.68-3.87C43.69,27.49,43.77,27.41,43.85,27.33z"
		/>
	<path class="st70" d="M43.61,27.57c-1.1,1.32-2.51,2.16-4.13,2.69c-1.77,0.58-3.53,1.22-5.4,1.41c-0.76,0.26-0.92-0.01-0.62-0.69
		c0.05-0.11,0.13-0.19,0.24-0.25c2.3-0.56,4.66-0.87,6.83-1.89c0.96-0.21,1.54-1.18,2.56-1.28C43.26,27.54,43.44,27.3,43.61,27.57z"
		/>
	<path class="st71" d="M43.09,27.56c-0.74,0.57-1.47,1.16-2.36,1.5c-0.61-0.06-0.51-0.62-0.69-0.99c-0.12-0.47-0.1-0.97-0.21-1.45
		c-0.02-0.18,0.01-0.35,0.1-0.51c0.75-0.2,1.64,0.04,2.22-0.71C42.5,26.11,42.99,26.75,43.09,27.56z"/>
	<path class="st72" d="M39.77,22.24c0.39,0.08,0.78,0.17,1.17,0.25c0.31,0.73,0.62,1.47,0.93,2.2c-0.41,1.07-0.69,1.16-1.86,0.65
		c-0.21-0.18-0.13-0.47-0.24-0.68C40.02,23.86,39.21,23.05,39.77,22.24z"/>
	<path class="st73" d="M40.01,25.17c0.77,0.43,1.4,0.31,1.86-0.47c0.09,0.24,0.18,0.47,0.27,0.71c-0.21,1.13-0.39,1.19-2.1,0.72
		C39.71,25.82,39.73,25.5,40.01,25.17z"/>
	<path class="st74" d="M39.52,5.95c-0.81-0.18-0.84,0.59-1.21,0.97C37.95,7,37.76,7.7,37.24,7.23C37.15,7,37.2,6.73,37.01,6.53
		c-0.1-0.11-0.18-0.23-0.19-0.38c0.27-0.14,0.54-0.28,0.8-0.42C38.27,5.72,39.04,4.62,39.52,5.95z"/>
	<path class="st46" d="M36.83,6.15c0.1,0.09,0.19,0.19,0.29,0.28c-0.03,0.82-0.14,1.63-0.31,2.44c-0.56,0.47-0.56-0.01-0.63-0.37
		c-0.01-0.36-0.01-0.71-0.01-1.07c-0.01,0.27,0,0.54-0.01,0.81c-0.01,0.38-0.1,0.77-0.5,0.85c-0.45,0.09-0.59-0.29-0.68-0.66
		c0.03,0.43,0.26,0.72,0.61,0.95c0.5,0.41,0.47,0.74-0.14,0.99c-0.35,0.15-0.75,0.15-1.09,0.33c-0.32,0.46,0.15,0.9,0.05,1.36
		c-0.03,0.17-0.11,0.3-0.23,0.42c-0.12,0.12-0.26,0.2-0.43,0.2c-0.34-0.85-0.33-1.71,0.01-2.56c0.78-0.57,1.13-1.13,0.07-1.8
		c-0.92-0.58-0.39-1.1,0.13-1.6c0.51-0.12,1.01-0.25,1.52-0.37C35.92,6.28,36.37,6.21,36.83,6.15z"/>
	<path class="st75" d="M40.01,25.17c0.01,0.32,0.02,0.64,0.03,0.96c-0.01,0.15-0.03,0.31-0.04,0.46c0.05,0.08,0.06,0.2,0.01,0.2
		c-2.65-0.02-4.82,1.3-6.97,2.58c-0.85,0.5-1.08,1.64-1.91,2.23c-0.57,0.1-1.12-0.09-1.67-0.18c-0.24-0.02-0.47-0.03-0.73-0.05
		c0.02-0.32,0.39-0.29,0.46-0.59c0.51-2.26,2.18-3.35,4.17-4.19c1.29-0.55,2.66-0.9,3.88-1.69c0.62-0.4,1.64-0.48,2.51-0.23
		C39.85,24.83,39.93,25,40.01,25.17z"/>
	<path class="st76" d="M27.75,22.05c0.16-0.07,0.31-0.14,0.47-0.21c0.16-0.01,0.3,0.06,0.43,0.14c0.41,0.3,0.82,0.61,1.3,0.82
		c1.24,0.41,2.27,0.03,3.15-0.87c0.55-0.53,1.15-0.74,1.84-0.25c0.48,0.66,1.37,0.38,1.93,0.85c0.26,0.14,0.36,0.52,0.74,0.49
		c-0.81,0.85-1.77,0.58-2.62,0.21c-0.68-0.29-1.16-0.38-1.83,0.05c-1.42,0.92-2.96,1.07-4.5,0.25c-0.34-0.18-0.52-0.08-0.7,0.14
		c-1.01,1.21-2.37,1.34-3.8,1.26c0-0.08,0-0.15,0-0.23c-0.21-0.26-0.59-0.24-0.8-0.47c-0.22-0.25-0.59-0.55,0.07-0.73
		c0.19,0.29,0.47,0.24,0.75,0.22c0.62,0.07,1.23,0.16,1.83-0.09C26.74,23.24,27.26,22.66,27.75,22.05z"/>
	<path class="st77" d="M29.47,31.42c0.63-0.04,1.25-0.09,1.88-0.13c0.68-0.56,1.39-0.62,2.13-0.15c0.04,0.36,0.18,0.61,0.6,0.54
		c-0.65,0.2-1.28,0.52-2,0.44c-0.47,0.4-0.95,0.39-1.44,0.03c-0.23-0.61-0.77-0.47-1.24-0.53C29.43,31.55,29.45,31.48,29.47,31.42z"
		/>
	<path class="st78" d="M23.43,23.48c-0.37,0.38-0.06,0.56,0.23,0.67c0.28,0.1,0.5,0.2,0.5,0.54c-0.16-0.01-0.38,0.03-0.46-0.05
		c-1.15-1.2-2.49-1.07-3.94-0.7c-0.89,0.23-1.72-0.15-2.44-0.7c-0.46-0.35-0.96-0.54-1.55-0.48c-0.42,0.07-0.92,0.22-0.49-0.51
		c1.07-0.99,1.69-0.99,2.7,0c0.28,0.27,0.5,0.61,0.9,0.74c0.71-0.04,1.44,0.04,2.11-0.26C22.18,21.91,22.18,21.91,23.43,23.48z"/>
	<path class="st79" d="M12.86,22.06c0.72,0.09,1.49-0.24,2.18,0.21c-0.89,0.4-1.78,0.4-2.67,0.02
		C12.55,22.26,12.76,22.27,12.86,22.06z"/>
	<path class="st80" d="M16.48,34.05c-2.65-0.16-4.98-1.25-7.26-2.47c-0.1-0.06-0.12-0.27-0.18-0.41c1,0.01,1.97-0.13,2.91-0.46
		c0.95,0.33,1.89,0.65,2.84,0.98C15.01,32.71,16.08,33.15,16.48,34.05z"/>
	<path class="st81" d="M16.48,34.05c-0.79-0.63-1.96-0.99-1.69-2.37c0.25,0.05,0.49,0.1,0.74,0.16c0.96,0.33,1.92,0.66,2.88,0.99
		c0.03,0.52,0.31,0.92,0.65,1.29c0.25,0.26,0.13,0.38-0.18,0.41C18.13,34.14,17.23,34.49,16.48,34.05z"/>
	<path class="st82" d="M29.21,33.58c-1.75-0.01-3.5-0.01-5.25-0.03c-0.43-0.01-0.88,0.12-1.26-0.22c1.02,0,2.05,0,3.07,0
		c0.01-0.06,0.01-0.11,0.02-0.17c-0.45,0-0.91,0-1.36,0c-0.03-0.44,0.39-0.3,0.45-0.53c0.72-0.01,1.44-0.02,2.17-0.04
		c0.49,0.3,0.99-0.01,1.48,0.01c0.59,0.03,1.13,0.1,0.91,0.92C29.36,33.55,29.28,33.57,29.21,33.58z"/>
	<path class="st83" d="M29.43,33.54c-0.05-0.67-0.53-0.68-1.03-0.71c-0.46-0.03-0.97,0.19-1.36-0.23c0.96-0.09,1.92-0.35,2.9-0.2
		c0.76-0.03,1.52-0.13,2.24,0.2c0.23,0.1,0.45,0.18,0.4,0.5c-0.5,0.39-1.18,0.15-1.7,0.46C30.4,33.56,29.92,33.55,29.43,33.54z"/>
	<path class="st84" d="M32.58,33.1c-0.77-0.65-1.81-0.28-2.64-0.7c0.23-0.08,0.47-0.17,0.7-0.25c0.48-0.01,0.96-0.02,1.44-0.03
		c0.53,0.42,1.1,0.23,1.67,0.13c0.72-0.13,1.45-0.31,2.15,0.1c-0.23,0.09-0.46,0.18-0.7,0.27C34.33,32.77,33.45,32.94,32.58,33.1z"
		/>
	<path class="st85" d="M34.68,21.72c-0.52-0.17-0.99-0.12-1.36,0.35c-0.11-0.04-0.2-0.11-0.27-0.21c-0.15-0.26-0.24-0.52-0.02-0.79
		c0.58-0.49,1.11-0.15,1.63,0.11c0.73,0.36,1.45,0.62,2.23,0.15c0.4-0.24,0.72-0.56,0.94-0.98c0.62-0.46,0.85-0.09,0.99,0.46
		c-0.07,0.02-0.15,0.04-0.23,0.05c-0.37,0.09-0.57,0.4-0.81,0.64C36.76,22.51,35.96,22.57,34.68,21.72z"/>
	<path class="st86" d="M33.99,10.47c0.51-0.14,1.04-0.24,1.53-0.43c0.49-0.2-0.11-0.26-0.09-0.42c0.45-0.34,0.47-0.99,0.94-1.31
		c0.18,0.1-0.23,0.61,0.32,0.46c0.45,0,0.78,0.24,1.1,0.52c-0.28,0.44-0.54,0.88-0.42,1.44c-0.39,0.24-0.74,0.56-1.24,0.55
		c-0.09,0.23-0.25,0.32-0.49,0.23c-0.23-0.19-0.39-0.46-0.68-0.59C34.63,10.75,34.2,10.85,33.99,10.47z"/>
	<path class="st87" d="M33.73,12.68c0.05-0.09,0.11-0.19,0.16-0.28c0.1-0.03,0.21-0.04,0.31-0.04c0.38,0.51,0.78,0.26,1.17,0.04
		c0.27-0.2,0.36,0.42,0.64,0.13c0.22-0.06,0.42-0.04,0.6,0.1c-0.15,0.26-0.3,0.52-0.46,0.78c-0.25,0.34-0.64,0.54-0.86,0.91
		c-0.1,0.01-0.19,0.02-0.29,0.03c-0.22-0.66-1.35-0.51-1.27-1.43C33.74,12.84,33.74,12.76,33.73,12.68z"/>
	<path class="st88" d="M38.56,11.29c0.35,0.09,0.71,0.2,0.71,0.66c0,0.41-0.19,0.73-0.63,0.68c-0.43-0.04-0.74-0.35-0.75-0.79
		C37.88,11.46,38.25,11.38,38.56,11.29z"/>
	<path class="st89" d="M36.62,12.63c-0.22,0-0.45,0-0.67,0.01c-0.25-0.27-0.53-0.52-0.42-0.95c0.04-0.13,0.13-0.2,0.26-0.22
		c0.11-0.07,0.22-0.13,0.33-0.2C36.47,11.66,36.84,12.03,36.62,12.63z"/>
	<path class="st90" d="M35.3,14.32c-0.04-0.61,0.37-0.8,0.86-0.91c0.05,0.03,0.11,0.04,0.17,0.04
		C36.34,14.16,35.74,14.14,35.3,14.32z"/>
	<path class="st91" d="M37.37,12.58c-0.21-0.51-0.49-0.82-0.22-1.2c0.04-0.06,0.27-0.09,0.3-0.05
		C37.68,11.66,37.63,12.01,37.37,12.58z"/>
	<path class="st92" d="M34.68,21.72c1.3,0.61,2.45,0.51,3.37-0.72c0.12-0.16,0.27-0.45,0.54-0.14c-0.49,0.64-0.99,1.27-1.73,1.65
		C36.04,22.51,35.15,22.7,34.68,21.72z"/>
	<path class="st93" d="M28.48,22.04c-0.09-0.07-0.18-0.14-0.27-0.2c-0.59-0.47-1.01-0.32-1.46,0.27c-1.05,1.35-1.34,1.33-2.63,0.3
		c-0.9-0.72-1.82-1.41-3.11-0.73c-0.6,0.32-1.42,0.35-1.97,0.03c-1.31-0.75-2.69-0.66-4.06-0.59c-1.14,0.06-1.54-0.39-1.38-1.47
		c0.16-0.16,0.31-0.32,0.47-0.48c0.41,0.03,0.62-0.32,0.94-0.47c0.97-0.2,1.97-0.07,2.94-0.24c2.07,0.56,4.21-0.04,6.3,0.46
		c2.46,0.59,4.81,1.59,7.33,1.99c0.35,0.06,0.65,0.43,0.97,0.66c-0.07,1.18-0.96,1.22-1.8,1.2C29.94,22.73,29.22,22.34,28.48,22.04z
		"/>
	<path class="st94" d="M17.95,18.44c-0.93,0.73-1.92,0.6-2.94,0.24c-0.01-0.6,0.26-1.02,0.89-0.97
		C16.63,17.79,17.61,17.25,17.95,18.44z"/>
	<path class="st60" d="M28.48,22.04c0.68-0.31,1.21,0.24,1.81,0.36c0.99,0.21,1.72,0.05,2.25-0.85c0.16-0.16,0.33-0.32,0.49-0.48
		c0.08,0.24,0.16,0.49,0.24,0.73c-0.85,1.42-2.25,1.2-3.58,1.19C29.23,22.75,28.77,22.5,28.48,22.04z"/>
	<path class="st95" d="M27.75,22.05c-0.32,0.79-0.8,1.43-1.65,1.69c-0.25,0.12-0.47,0.2-0.45-0.22
		C26.54,23.3,26.93,22.38,27.75,22.05z"/>
	<path class="st96" d="M25.64,23.52c0.09,0.2,0.28,0.18,0.45,0.22c-0.64,0.37-1.29,0.53-1.91-0.04
		C24.62,23.28,25.15,23.55,25.64,23.52z"/>
	<path class="st97" d="M21,22.73c-0.64,0.61-1.36,0.54-2.11,0.26C19.55,22.6,20.28,22.73,21,22.73z"/>
	<path class="st98" d="M37.32,7.09c0.39,0.26,0.57-0.63,1-0.18c0.11,0.36-0.26,0.95,0.49,0.99c-0.01,0.06-0.02,0.11-0.03,0.17
		c-0.33,0.21-0.83,0.19-0.94,0.69c-0.4,0.34-0.71,0.11-0.82-0.24C36.85,8.03,36.66,7.45,37.32,7.09z"/>
	<path class="st99" d="M37.32,7.09c-0.12,0.65-0.75,1.45,0.51,1.68c0.41,0.22-0.02,0.35-0.05,0.52c-0.49,0.1-0.78-0.23-1.1-0.52
		c-0.12-0.83-0.08-1.63,0.44-2.34C37.77,6.47,37.28,6.86,37.32,7.09z"/>
	<path class="st100" d="M33.48,31.14c-0.71,0.05-1.42,0.1-2.13,0.15c0.67-1.95,2.3-2.79,4.02-3.58c1.18-0.54,2.57-0.59,3.56-1.64
		c0.35-0.37,0.55,0.66,1.08,0.51c0.4,0.43,0.17,0.96,0.24,1.44c-0.33,0.58-0.58-0.17-0.97-0.05c-1.74,0.55-3.57,0.89-4.91,2.26
		c-0.39,0.4-0.78,0.67-1.37,0.51c0.19,0.11,0.43-0.01,0.56,0.19C33.53,31.01,33.51,31.07,33.48,31.14z"/>
	<path class="st101" d="M33.55,30.94c-0.12-0.01-0.24-0.01-0.36-0.04c-0.07-0.02-0.29-0.03-0.08-0.19c1.52-1.18,3.08-2.26,5-2.74
		c0.48-0.12,0.99-0.1,1.46-0.42c0.5-0.34,0.33,0.3,0.46,0.5c0.02,0.03,0.07,0.05,0.11,0.04c0.04,0,0.07-0.04,0.1-0.06
		c0.35,0.25,0.05,0.81,0.48,1.03C38.46,30.14,36.04,30.66,33.55,30.94z"/>
	<path class="st102" d="M36.37,8.31c-0.32,0.44,0.02,1.34-0.94,1.31C34.65,9,34.68,8.18,34.73,7.14c0.69,0.62,0.17,1.52,0.88,1.93
		c0.52-0.67,0.17-1.47,0.35-2.27C36.56,7.24,36.26,7.84,36.37,8.31z"/>
	<path class="st103" d="M33.99,10.47c0.45,0.06,0.95-0.13,1.32,0.29c-0.47,0.36-0.09,0.96-0.37,1.38c-0.25,0.22-0.52,0.3-0.79,0.04
		C34.37,11.58,33.48,11.09,33.99,10.47z"/>
	<path class="st40" d="M34.13,12.17c0.32,0.07,0.57-0.09,0.83-0.23c0.17-0.3,0.38-0.48,0.71-0.2c-0.1,0.36,0.21,0.59,0.27,0.9
		c-0.33,0.34-0.28-0.22-0.47-0.2c-0.4,0.29-0.8,0.32-1.21,0.02c-0.12-0.02-0.25-0.03-0.37-0.05C33.97,12.32,34.05,12.25,34.13,12.17
		z"/>
	<path class="st104" d="M29.7,22.98c0.13-0.28,0.39-0.23,0.6-0.2c1.17,0.19,2.14-0.2,2.98-0.99c0.02,0.09,0.03,0.18,0.05,0.27
		C32.32,23.16,31.17,23.69,29.7,22.98z"/>
	<path class="st105" d="M35.68,11.74c-0.24,0.07-0.47,0.13-0.71,0.2c-0.12-0.46-1.08-1.16,0.33-1.18c0.22,0.2,0.44,0.4,0.48,0.71
		C35.75,11.56,35.71,11.65,35.68,11.74z"/>
	<path class="st106" d="M34.26,12.45c0.4-0.01,0.81-0.01,1.21-0.02c-0.12,0.67-0.75,0.48-1.16,0.62
		C34.2,13.09,34.22,12.67,34.26,12.45z"/>
</g>
</svg>
