<?xml version="1.0" encoding="utf-8"?>
<!-- Generator: Adobe Illustrator 23.0.2, SVG Export Plug-In . SVG Version: 6.00 Build 0)  -->
<svg version="1.1" id="Camada_1" xmlns="http://www.w3.org/2000/svg" xmlns:xlink="http://www.w3.org/1999/xlink" x="0px" y="0px"
	 viewBox="0 0 29.8 26.44" style="enable-background:new 0 0 29.8 26.44;" xml:space="preserve">
<style type="text/css">
	.st0{fill:#0C0A0D;}
	.st1{fill:#F3528F;}
	.st2{fill:#F54E8F;}
	.st3{fill:#75461C;}
	.st4{fill:#F25E9A;}
	.st5{fill:#70441C;}
	.st6{fill:#77481E;}
	.st7{fill:#AB794E;}
	.st8{fill:#FEA9D6;}
	.st9{fill:#5D0E20;}
	.st10{fill:#F4B3E1;}
	.st11{fill:#FEADD9;}
	.st12{fill:#C6404A;}
	.st13{fill:#F6E6E8;}
</style>
<g>
	<path class="st0" d="M27.2,13.63c0,1.52,0,3.04,0,4.56c0,1.22-0.52,1.97-1.79,2.32c-6.28,1.75-12.58,3.43-19.17,3.4
		c-0.76,0-1.52-0.07-2.27-0.16c-1.53-0.18-2.08-0.81-2.09-2.37c-0.01-2.84,0.05-5.68-0.01-8.52c-0.03-1.51,0.88-2.47,1.78-3.39
		c2.73-2.77,5.78-5.16,9.21-7.03c0.69-0.38,1.4-0.48,2.19-0.29c3.98,0.94,7.47,2.99,11.09,4.76c0.9,0.44,1.04,1.37,1.05,2.28
		C27.2,10.67,27.19,12.15,27.2,13.63C27.2,13.63,27.2,13.63,27.2,13.63z"/>
	<path class="st1" d="M20.41,5.82c1.75,0.62,3.4,1.47,5.02,2.38c0.02,0.51-0.4,0.46-0.7,0.56c-6.17,1.42-12.37,2.71-18.68,3.35
		c-0.48,0.05-0.94,0.16-1.42,0.2c-0.4-0.04-0.89,0.09-1.03-0.5c1.87-2.44,4.22-4.32,6.73-6.05c0.48,0.03,0.76-0.37,1.13-0.56
		c0.41-0.22,0.72-0.3,0.94,0.21c0.03,0.49-0.05,0.93-0.54,1.18c-2.06,0.96-3.7,2.46-5.43,4.09c5.35-0.67,10.5-1.72,15.5-2.74
		c-1.7-0.9-3.63-1.67-5.55-2.44c-0.16-0.08-0.31-0.19-0.44-0.31c-0.19-0.24-0.5-0.49-0.28-0.82c0.19-0.29,0.5-0.11,0.77-0.04
		c0.93,0.23,1.77,0.67,2.63,1.09C19.49,5.62,19.93,5.8,20.41,5.82z"/>
	<path class="st2" d="M3.37,17.32c0-0.73,0-1.46,0.01-2.19c0.27-0.22,0.58-0.27,0.91-0.18C6,15.88,7.6,15.56,9.14,14.53
		c0.56-0.38,1.1-0.81,1.74-1.06c1.18-0.46,2.35-0.58,3.33,0.44c0.74,0.77,1.51,0.75,2.39,0.29c0.88-0.46,1.58-1.23,2.57-1.52
		c0.84-0.25,1.64-0.4,2.37,0.26c0.58,0.52,1.03,0.18,1.46-0.21c0.65-0.59,1.28-1.22,2.21-1.36c0.52,0.01,0.63,0.33,0.62,0.78
		c-0.02,0.7,0,1.4-0.01,2.09c-0.11,0.52-0.57,0.7-0.94,0.98c-1.21,1.12-2.56,1.51-4.18,0.98c-0.93-0.3-1.69,0.32-2.42,0.8
		c-0.93,0.62-1.91,0.96-3.04,0.89c-0.67-0.04-1.27-0.18-1.73-0.68c-0.86-0.94-1.82-0.88-2.81-0.29c-1.52,0.9-3.11,1.41-4.9,1.22
		c-0.56-0.06-1.11-0.08-1.65-0.24C3.8,17.81,3.56,17.6,3.37,17.32z"/>
	<path class="st3" d="M3.37,17.32c0.25,0.09,0.49,0.18,0.74,0.26c0.59,0.28,0.52,0.84,0.55,1.35c0.04,0.62-0.08,1.26,0.21,1.99
		c0.23-0.42-0.13-0.94,0.39-1.09c0.51-0.15,0.87,0.16,1.12,0.52c0.42,0.61,0.99,0.72,1.67,0.7c3.93-0.12,7.74-1.01,11.56-1.88
		c1.2-0.28,2.39-0.63,3.59-0.94c0.87-0.22,1.3-0.66,1.23-1.6c-0.05-0.59-0.06-1.2,0.32-1.73c0.31-0.19,0.61-0.38,0.92-0.57
		c0.29,1.4,0.18,2.8,0.06,4.2c-0.03,0.48-0.43,0.55-0.76,0.64c-6.17,1.77-12.38,3.35-18.86,3.38c-0.16,0-0.32,0-0.48,0
		c-2.27-0.04-2.27-0.04-2.27-2.24C3.35,19.32,3.36,18.32,3.37,17.32z"/>
	<path class="st4" d="M12.23,5.3c-0.52-0.32-0.75,0.24-1.13,0.37c-0.26,0.09-0.44,0.53-0.77,0.11c1.1-0.71,2.17-1.49,3.32-2.1
		c1.13-0.6,2.17,0.18,3.19,0.52c1.23,0.42,2.38,1.07,3.57,1.62c-0.59,0.3-1.05-0.09-1.51-0.33c-0.98-0.5-1.99-0.91-3.09-1.07
		C15.72,4.71,16.03,4.8,16.11,5c-0.03,0.19-0.13,0.32-0.32,0.37C14.62,4.57,13.42,5,12.23,5.3z"/>
	<path class="st5" d="M25.72,18.54c-0.02-1.4-0.04-2.8-0.06-4.2c0.02-0.75,0.03-1.49,0.06-2.24c0.03-0.62-0.32-0.61-0.76-0.49
		c-0.75-0.79-0.82-1.92-0.19-3.12c0.22-0.11,0.52-0.04,0.66-0.3c0.51,0.46,0.43,1.12,0.44,1.67c0.06,2.71,0.03,5.41,0.02,8.12
		C25.89,18.17,25.78,18.36,25.72,18.54z"/>
	<path class="st6" d="M4.33,15.18c-0.32-0.02-0.63-0.03-0.95-0.05c0.07-1.1-0.3-2.24,0.22-3.31c0.27,0.33,0.67,0.05,0.97,0.21
		C4.74,13.1,4.92,14.17,4.33,15.18z"/>
	<path class="st7" d="M4.33,15.18c0.1-1.05-0.26-2.13,0.25-3.15c2.21-0.56,4.49-0.56,6.73-0.94c3.5-0.59,6.97-1.25,10.43-2.03
		c1-0.23,2.03-0.38,3.04-0.56c0.06,1.04-0.25,2.1,0.19,3.12c-0.78,0.41-1.41,1.01-2.06,1.6c-0.49,0.44-1,0.75-1.59-0.04
		c-0.55-0.74-2.07-0.53-3.23,0.38c-0.44,0.35-0.88,0.66-1.38,0.93c-1.03,0.56-1.88,0.59-2.74-0.4c-0.8-0.93-2.17-0.89-3.49-0.07
		c-1.01,0.63-1.92,1.41-3.13,1.69C6.26,15.94,5.24,15.88,4.33,15.18z"/>
	<path class="st8" d="M16.37,5.24c2.2,0.69,4.27,1.67,6.42,2.86c-5.69,1.14-11.21,2.27-16.96,2.98c0.57-0.99,1.34-1.6,2.09-2.2
		C9,8,10.17,7.22,11.29,6.39c0.24-0.18,0.44-0.42,0.56,0.09c0.27,1.57,1.4,1.76,2.69,1.69c1.04-0.05,1.33-0.78,1.49-1.62
		C16.1,6.1,15.94,5.59,16.37,5.24z"/>
	<path class="st9" d="M14.66,8.42c-0.35,0.03-0.71,0.07-1.06,0.08c-1.33,0.02-1.81-0.53-1.76-2.02c0.24-0.36,0.34-0.76,0.39-1.18
		c1.63-1.07,2.49-1.07,3.59-0.02C16.43,6.74,16.06,7.74,14.66,8.42z"/>
	<path class="st10" d="M14.66,8.42c1.13-0.77,1.48-1.84,1.16-3.15c0.09-0.09,0.19-0.18,0.28-0.27c0.09,0.08,0.17,0.16,0.26,0.24
		c0,1.15,0.08,2.32-1.03,3.11C15.12,8.5,14.93,8.78,14.66,8.42z"/>
	<path class="st7" d="M24.74,14.91c0,0.48-0.08,0.97,0.01,1.43c0.27,1.43-0.38,1.96-1.71,2.31c-4.34,1.15-8.72,2.08-13.16,2.69
		c-0.9,0.12-1.83,0.04-2.75,0.05c-0.4,0.01-0.81,0.09-0.75-0.58c0.02-0.17-0.38-0.36-0.55-0.57c-0.16-0.19-0.34-0.41-0.58-0.23
		c-0.29,0.21-0.03,0.4,0.11,0.58c0.17,0.21,0.42,0.5,0.19,0.71c-0.16,0.14-0.53,0.08-0.8,0.06c-0.37-0.02-0.4-0.3-0.43-0.6
		c-0.09-1.06,0.22-2.15-0.21-3.19c2.2,0.4,4.3,0.37,6.32-0.91c1.56-0.99,2-0.82,3.34,0.35c1.01,0.88,2.15,0.62,3.26,0.27
		c0.44-0.14,0.82-0.48,1.23-0.72c0.95-0.55,1.79-1.15,3.06-0.58C22.64,16.59,23.75,15.77,24.74,14.91z"/>
	<path class="st11" d="M24.6,12.6c0.31,1.8-1.57,3.44-3.2,2.68c-1.33-0.61-2.2,0.02-3.21,0.48c-0.5,0.23-0.92,0.66-1.43,0.85
		c-0.91,0.33-1.84,0.53-2.67-0.26c-1.23-1.17-2.6-1.43-3.92-0.39c-1.49,1.18-3.19,1.09-4.87,1.28C4.95,17.28,4.58,17.13,4.25,17
		c-0.34-0.13-0.48-0.44-0.38-0.78c0.12-0.42,0.47-0.43,0.78-0.28c1.96,0.93,3.63,0.23,5.25-0.89c0.39-0.27,0.8-0.53,1.22-0.75
		c0.99-0.52,1.95-0.52,2.7,0.39c0.75,0.91,1.64,0.86,2.59,0.53c0.68-0.24,1.25-0.69,1.86-1.06c0.92-0.54,1.85-1.49,2.98-0.13
		c0.37,0.45,1.21,0.3,1.77-0.13C23.55,13.48,24.05,13.05,24.6,12.6z"/>
	<path class="st12" d="M14.94,5.32c0.78,1.31,0.59,2.32-0.59,2.72c-0.78,0.26-1.58,0.16-1.9-0.72c-0.39-1.11,0.32-1.69,1.24-2.09
		C14.09,5.44,14.5,5.61,14.94,5.32z"/>
	<path class="st13" d="M14.94,5.32c-0.02,0.33-0.13,0.63-0.5,0.64c-0.46,0.01-0.63-0.36-0.75-0.73C14.13,4.9,14.55,4.83,14.94,5.32z
		"/>
</g>
</svg>
