<?xml version="1.0" encoding="utf-8"?>
<!-- Generator: Adobe Illustrator 23.0.2, SVG Export Plug-In . SVG Version: 6.00 Build 0)  -->
<svg version="1.1" id="Camada_1" xmlns="http://www.w3.org/2000/svg" xmlns:xlink="http://www.w3.org/1999/xlink" x="0px" y="0px"
	 viewBox="0 0 114.62 113.9" style="enable-background:new 0 0 114.62 113.9;" xml:space="preserve">
<style type="text/css">
	.st0{fill:#010002;}
	.st1{fill:#155C31;}
	.st2{fill:#479750;}
	.st3{fill:#145A30;}
	.st4{fill:#12552E;}
	.st5{fill:#1C6E39;}
	.st6{fill:#2D943F;}
	.st7{fill:#217F3D;}
	.st8{fill:#176735;}
	.st9{fill:#184D2C;}
	.st10{fill:#1A6837;}
	.st11{fill:#26873C;}
	.st12{fill:#268543;}
	.st13{fill:#519F5A;}
	.st14{fill:#93B967;}
	.st15{fill:#489B54;}
	.st16{fill:#8EB664;}
	.st17{fill:#B2C86A;}
	.st18{fill:#95BA68;}
	.st19{fill:#1C6834;}
	.st20{fill:#7EAF5D;}
	.st21{fill:#97BA6B;}
	.st22{fill:#B6CB6C;}
	.st23{fill:#CDD877;}
	.st24{fill:#46944E;}
	.st25{fill:#4C9D55;}
	.st26{fill:#479952;}
	.st27{fill:#59A260;}
	.st28{fill:#A3C16D;}
	.st29{fill:#56A25C;}
	.st30{fill:#F6F5C5;}
	.st31{fill:#F2F1B0;}
	.st32{fill:#D1E08F;}
	.st33{fill:#6BA86D;}
	.st34{fill:#136835;}
	.st35{fill:#EEF09D;}
	.st36{fill:#D9E182;}
	.st37{fill:#A4C271;}
	.st38{fill:#F1F09E;}
	.st39{fill:#1D8038;}
	.st40{fill:#ABC575;}
	.st41{fill:#A3C171;}
	.st42{fill:#BED184;}
	.st43{fill:#155F31;}
	.st44{fill:#156433;}
	.st45{fill:#B8CD7F;}
	.st46{fill:#B2C96F;}
	.st47{fill:#8BB563;}
	.st48{fill:#D7E097;}
	.st49{fill:#60A458;}
	.st50{fill:#4B9B54;}
	.st51{fill:#D8E098;}
	.st52{fill:#BACF81;}
</style>
<g>
	<path class="st0" d="M90.12,76.46c-2.44-0.36-4.58,0.39-6.87,1.29c-5.05,1.98-10.22,1.26-15.01-1.01c-1.68-0.8-2.03-0.38-2.96,0.84
		c-4.05,5.27-3.57,11.49-3.59,17.47c-0.02,5.18-2.21,9.27-7.03,10.98c-7.92,2.82-21.28-1.68-26.2-8.63
		c-1.74-2.45-1.96-4.74-0.81-7.39c2.23-5.17,4.49-10.32,6.54-15.56c2.5-6.39,0.33-7.66-5.21-9.01c-4.82-1.18-9.56-2.72-14.31-4.15
		c-0.54-0.16-1-0.64-1.44-1.03c-7.71-6.96-8.31-22.55-1.11-30.05c0.71-0.74,1.1-1.4,1.23-2.44c0.75-5.98,5.7-11.12,11.52-12.01
		c3.27-0.5,5.78-2.8,8.88-3.7c0.8-0.23,1.61-1.01,2.31-0.89c6.3,1.05,11.38-2.28,16.89-4.29c4.12-1.5,8.33-1.02,12.49,1.13
		C69,9.84,73.16,10.62,77.2,10.5c6.87-0.21,12.88,1.01,16.9,7.26c1.13,1.76,3.26,1.93,4.98,2.69c6.27,2.77,8.78,7.01,8.31,13.83
		c-0.23,3.36-0.55,6.68-1.57,9.9c-0.22,0.7-0.57,1.28,0.05,1.95c2.83,3.05,2.39,6.69,1.44,10.18c-1.48,5.45-1.5,11.41-5.88,15.89
		C98.25,75.47,94.64,76.99,90.12,76.46z"/>
	<path class="st1" d="M86.44,70.71c-0.58,0.08-1.32-0.03-1.71,0.28c-5.65,4.57-11.48,4.68-16.89-0.05
		c-2.33-2.04-3.53-0.52-4.59,1.07c-3.79,5.66-6.42,11.75-6.31,18.74c0.04,2.99-0.09,5.95-1.36,8.74c-2.06-0.24-2.46-1.7-2.14-3.33
		c0.59-3.03,0.26-6.08,0.38-9.11c0.76-12.68,5.28-23.81,13.81-33.27c0.36-0.42,0.78-0.76,1.25-1.02c0.53-0.28,1.1-0.48,1.69-0.59
		c0.72-0.13,1.52-0.23,2.01,0.39c0.67,0.84,0.01,1.59-0.43,2.26c-1.71,2.61-3.89,4.87-5.65,7.44c-1.01,1.48-2.02,2.96-2.75,4.08
		c2.01-2.6,4.95-4.74,8.24-6.45c0.74-0.39,1.63-0.76,2.29,0.08c0.63,0.8,0.14,1.59-0.35,2.29c-0.69,0.98-1.64,1.75-2.43,2.64
		c-1.84,2.08-1.68,3.16,0.83,4.36c3.36,1.61,6.68,1.81,9.78-0.72c2.15-1.75,4.23-2.35,6,0.51C88.19,70.28,87.35,70.54,86.44,70.71z"
		/>
	<path class="st2" d="M18.04,56.29c-0.48-0.49-0.97-0.97-1.45-1.46c-0.47-0.72-0.38-1.29,0.46-1.64c2.71-0.85,5.52-0.65,8.31-0.77
		c2.14-0.09,4.17-0.15,6.31,0.47c3.38,0.98,5.58-1.29,7.54-3.6c0.5-0.6,0.52-1.56,1.43-1.92c4.76-1.88,6.23-3.96,6.03-8.49
		c0.27-0.52,0.67-0.88,1.25-1.02c2.24,0.22,1.95,2.09,2.32,3.54c-0.5,2.85,0.52,5.92-1.23,8.59c-1.96,1.92-0.87,4.18-0.77,6.36
		c0.12,2.7,1.52,5.62-1.12,7.95c-1.87-1.62-1.05-3.67-0.9-5.62c0.01-0.08-0.11-0.22-0.2-0.24c-0.1-0.03-0.23,0.04-0.36,0.07
		c-0.59-0.32-0.82-0.84-0.88-1.47c-0.42,1.21,0.89,3.34-1.78,3.38c-1.02-1.49-0.51-3.23-0.77-4.91c-0.54,5.84-1.83,6.57-7.49,5.19
		C29.14,59.36,23.85,56.83,18.04,56.29z"/>
	<path class="st3" d="M49.77,41.19c-1.33-0.57-0.13-2.79-1.98-3.03c-4.54-1.02-8.67-2.88-12.66-5.32c-2.54-1.56-5.57-1.21-8.21,0.43
		c-2.48,1.53-5.07,2.04-7.89,1.16c-0.73-0.44-1.21-1-0.93-1.92c0.66-0.5,1.36-0.91,1.04-2c-1.31-4.46,1.03-8.82,5.25-10.14
		c5.46-1.71,10.96-3.06,16.75-2.25c0.81,0.34,1.16,0.94,1.05,1.81c-0.85,2.02-2.51,1.9-4.21,1.55c-2.41-0.5-4.73-0.37-6.91,0.88
		c-2.81,1.65-6.67,1.37-8.58,4.68c-0.5,1.07-1.26,2.17,0.39,2.96c2.03-0.04,3.65-1.32,5.55-1.77c0.36-0.11,0.72-0.18,1.1-0.22
		c4.29-0.57,8.08,0.64,11.39,3.32c1.7,1.38,3.73,1.44,5.71,1.86C51.19,34.15,52.61,37.83,49.77,41.19z"/>
	<path class="st4" d="M18.04,56.29c2.13-0.2,4.31,0.31,6.42-0.4c0.38-0.13,1.1-0.07,1.28,0.18c2.89,3.86,7.74,2.57,11.45,4.36
		c2.03,0.98,4,0.08,3.92-2.9c-0.05-1.85-0.04-3.77,1.69-5.69c0.91,3.12,0.25,5.96,0.54,8.71c1.74,2.67,0.07,5.36-0.08,8.01
		c-0.11,2-0.6,4.02-1.32,5.94c-0.61,1.38-0.87,2.94-2.02,4.06c-0.36,0.21-0.71,0.2-1.05-0.04c0.69-4.08,1.43-8.15,1.54-12.31
		c0.06-2.18-0.13-3.64-3.16-3c-2.59,0.55-4.94-1.43-7.37-2.2C25.88,59.74,21.52,59.01,18.04,56.29z"/>
	<path class="st5" d="M54.76,86.42c-0.17,3.37,0.58,6.79-0.56,10.11c-0.49,1.44,0.67,2.09,1.37,2.97c-1.73,3.12-4.68,2.98-7.56,2.66
		c-4.21-0.47-8.13-1.91-11.77-4.09c-4.41-2.64-4.91-4.79-2.19-9.41c0.53-0.53,1.15-0.63,1.85-0.43c0.74,0.33,1.37,0.93,2.26,0.89
		c0.88,0.05,1.77-0.01,2.65,0.03c1.07,0.21,2.38,0.03,2.57,1.62c-1.76,1.56-3.87,0.21-5.44,0.79c1.08,0.47,3.33-1.15,3.9,1.55
		c-1.24,1.01-2.74,0.73-4.14,0.84c-1.26,0.28-0.46,0.69-0.01,0.94c4.14,2.33,8.36,4.36,13.32,3.55c0.93-1.19-1.17-1.52-0.72-2.56
		c0.48-0.9,1.4-1.31,2.13-1.92c1.72-2.25-0.12-5.16,1.41-7.44C54.13,86.28,54.44,86.26,54.76,86.42z"/>
	<path class="st6" d="M76.34,15.84c6.47-1.88,9.61-0.79,12.87,4.5c1.56,2.53,3.21,4.39,6.74,4.35c2.8-0.03,5.04,1.76,5.7,5
		c1.07,5.21,2.07,10.34-1.54,15.03c-0.36,0.27-0.69,0.23-0.97-0.12c-1.03-1.85,0.28-3.68,0.07-5.52c0.02-1.08,0.22-2.13,0.4-3.19
		c0.75-4.37-1.17-7.8-5.46-8.61c-3.11-0.59-5.22-2.06-6.85-4.59c-1-1.55-2.36-2.68-4.17-3.22c-1.92-0.88-4.23,0.19-6.03-1.23
		c-0.28-1.71,1.35-0.98,2.06-1.41c0.38-0.21-0.34-0.64-0.08-0.23c0.13,0.2,0.07,0.35-0.15,0.31C78,16.74,76.53,17.87,76.34,15.84z"
		/>
	<path class="st7" d="M99.37,44.67c0.25,0.02,0.5,0.03,0.75,0.05c-0.73,0.98-1.96,1.72-0.04,3c3.07,2.03,3.64,5.51,2.63,8.53
		c-0.96,2.84-1.14,5.75-1.92,8.57c-2.7-1.07-1.01-3.68-1.9-5.38c-0.12-0.53-0.16-1.07-0.13-1.61c0.2-1.3,0.55-2.57,0.69-3.88
		c0.06-0.59,0.37-1.48-0.15-1.69c-3.84-1.5-3.87-5.77-6.19-8.34c-0.21-0.24-0.36-0.52-0.47-0.81c-0.26-1.4-3.19-1.48-1.83-3.68
		c0.43-0.3,0.92-0.42,1.44-0.44c2.33,0.29,4.26,1.35,5.87,3.02C98.78,42.76,98.73,43.88,99.37,44.67z"/>
	<path class="st8" d="M41.89,19.66c-0.25-0.52-0.51-1.04-0.76-1.55c2.86-2.56,6.91-2.81,9.91-5.1c0.83-0.39,1.7-0.53,2.62-0.4
		c0.33,0.14,0.55,0.4,0.65,0.74c-0.11,0.95-0.9,1.39-1.54,1.88c-2.02,1.53-1.64,2.92,0.17,4.28c1.68,3.41,3.63,6.76,2.11,10.79
		c-2.56,1.03-2.7-1.28-3.58-2.58c-0.54-1.31-0.26-2.79-0.89-4.08C48.98,19.48,45.8,18.78,41.89,19.66z"/>
	<path class="st9" d="M18.1,32.5c0.24,0.51,0.49,1.02,0.73,1.53c-1.03,2.59-3.92,4.22-3.8,7.4c-0.78,3.1-0.18,5.87,1.82,8.39
		c0.79,0.99,1.72,2.13,0.42,3.45c-0.23,0.52-0.45,1.04-0.68,1.56c-4-5.49-6.92-11.18-3.63-18.14C14.01,34.46,15.28,32.55,18.1,32.5z
		"/>
	<path class="st10" d="M99.37,59.08c1.81,1.58-0.17,4.09,1.41,5.73c-2.28,6.04-9.09,8.84-14.35,5.9c0.49-0.48,0.98-0.96,1.47-1.45
		c0.64-0.87,1.63-0.86,2.56-1c4.61-0.69,5.6-1.6,6.65-6.04C97.44,60.88,97.49,59.32,99.37,59.08z"/>
	<path class="st11" d="M54.07,13.77c0.01-0.26,0.02-0.52,0.04-0.78c2.06-2.83,5.6-1.99,7.21-0.94c3.4,2.21,7.16,2.07,10.67,3.18
		c1.37,0.75,2.81,1.06,4.35,0.62c0.68,1.13,1.91,0.65,3.18,0.97c-0.96,0.49-1.68,0.86-2.4,1.22c-0.74,0.96-1.74,1.17-2.88,0.98
		c-0.64-0.33-1.15-0.87-1.81-1.18c-4-0.25-7.99-0.18-11.59-2.6C58.92,13.94,56.08,15.51,54.07,13.77z"/>
	<path class="st12" d="M71.99,15.22c-3.37-0.14-6.61,0.19-9.75-2.18c-2.11-1.59-5.4-1.27-8.13-0.05c-1.02,0.01-2.04,0.01-3.06,0.02
		c4.34-2.82,8.75-3.45,13.14-0.19c1.18,0.87,2.39,0.83,3.7,0.83C69.44,13.63,70.99,13.73,71.99,15.22z"/>
	<path class="st1" d="M36.02,88.62c-0.65,0.02-1.31,0.03-1.96,0.05c1.61-3.38,3.21-6.76,4.82-10.14c0.25,0.01,0.5,0.02,0.74,0.02
		C40.26,82.57,38.77,85.82,36.02,88.62z"/>
	<path class="st13" d="M99.37,59.08c-0.8,0.77-1.17,1.72-1.34,2.82c-0.88,5.73-2.73,7.33-8.35,7.31c-0.59,0-1.18,0.03-1.78,0.05
		c-1.87-1.7-3.45-1.78-5.55,0.07c-3.31,2.92-8.75,2.56-12.2-0.24c-1.6-1.3-2.04-2.37-0.24-3.97c1.54-1.37,3.34-2.63,4.49-5.3
		c-5.2,2.05-8.73,5.2-11.94,8.88c1.65-6.27,6.48-10.52,9.95-15.66c-1.3-0.75-2.19,0.53-3.26,0.27c-0.39-0.63,0.38-1.28-0.05-1.89
		c-4.05,0.99-6.68,4.13-9.89,6.36c-0.91,0.63-1.82,2.06-3.03,1.03c-1.07-0.92-0.3-2.26,0.23-3.31c1.15-2.31,2.68-4.41,4.09-7.59
		c-1.95,3.5-3.65,6.09-5.07,8.87c-0.6,1.17-1.02,2.84-3.02,2.28c-0.99-1.89,0.39-3.32,0.96-4.91c0.89-2.15,1.77-4.31,3.25-6.21
		c-0.66,0.43-0.85,1.44-1.84,1.31c-1.22-0.27-1.33,0.71-1.59,1.46c-0.52,1.46-1.07,2.9-1.71,4.32c-0.48,1.06-0.77,2.7-2.12,2.52
		c-1.39-0.19-1.18-1.88-1.26-3c-0.11-1.58-1.18-3.25,0.2-4.77c1.85-2.62-0.33-5.93,1.46-8.56c1.67-4.65,0.07-7.19-4.8-7.3
		c-1.9-0.04-3.37-0.47-4.78-1.84C37.04,29,33,28.66,28.87,28.81c0.13-1.51,1.39-1.51,2.38-1.54c3.65-0.13,7.27-0.51,10.69,1.59
		c3.66,2.25,7.05,0.83,10.16-1.53c1.04,0.83,0.69,2.91,2.63,2.94c4.04,1.79,6.16-0.58,7.92-3.69c1.3,2.44,2.08,5.12,1.73,7.81
		c-0.76,5.82,0.25,7.51,6.05,8.53c-1.79-0.67-3.58-1.45-4.58-3.1c-0.96-1.58-2.2-3.43,0.62-4.61c2.44,1.79,5.2,2.3,8.15,2.08
		c2.98-0.23,5.94-0.47,8.87,0.5c1.31,0.43,2.6-0.03,3.81-0.61c0.78-0.3,1.6-0.51,2.39-0.81c0.6-0.24,1.18-0.55,1.75-0.87
		c0.61-0.3,1.23-0.57,1.89-0.12c0.3,2.58,0.3,2.58-3.17,3.29c0.74,0.16,1.97-0.7,2.12,0.94c-0.49,0.04-0.98,0.09-1.46,0.13
		c-1.07,0.99-2.47,0.64-3.71,0.93c-3.14,0.74-6.28,1.55-7.48,5.14c-0.38,0.8-1.18,1.14-1.83,1.65c-1.48,1.14-2.76,2.41-1.83,4.51
		c0.93,2.1,2.59,4.06,4.84,3.53c4.54-1.06,9.66,0.09,13.59-3.39c0.87-0.33,1.74-0.63,2.68-0.66c3.83,0.94,1.79,4.13,2.41,6.3
		C99.42,58.17,99.4,58.63,99.37,59.08z"/>
	<path class="st14" d="M69.82,51.03c1.18,1.16-0.61,1.47-0.65,2.29c-0.26,0.21-0.53,0.43-0.79,0.64
		c-10.64,8.11-14.05,19.94-16.6,32.23c-0.45,1.25-0.2,2.57-0.38,3.85c-0.18,1.34-0.51,2.57-2.1,2.87c-1.69,0.03-3.26-0.21-4.2-1.87
		c0.88-5.64,2.41-11.12,3.92-16.62c0.99-2.89,1.39-6,3.02-8.67c4.18-4.85,8.57-9.49,13.96-13.04
		C67.15,51.95,68.26,50.93,69.82,51.03z"/>
	<path class="st15" d="M51.18,85.73c2.46-12.36,5.08-24.63,17.19-31.77c-6.78,7.88-10.99,16.97-13.12,27.12
		c-0.38,1.8-0.34,3.56-0.49,5.35c-0.21,0.05-0.42,0.09-0.63,0.1c-0.91,0.44-1.16,2.11-2.51,1.59
		C50.45,87.67,50.76,86.63,51.18,85.73z"/>
	<path class="st16" d="M17.27,53.28c0.14-0.97,0.15-1.88-0.72-2.59c-3.27-2.67-2.94-6.16-2.18-9.74c1.18,0.63,0.66,2.16,2.09,3.53
		c-1.09-6.5,3.02-7.63,7.49-8.78c5.9-1.52,11.64-2.24,17.3,0.77c1.2,0.64,2.59,0.19,3.88,0.37c1.2,0.16,2.58,0.26,1.76,2.13
		c1.22,2.07-2.09,9.91-4.3,10.26c-0.78,0.12-0.62-0.52-0.84-0.87c-0.6-0.92-1.25-0.66-1.6,0.12c-2.29,5.11-4.83,5.68-10.6,4.83
		c-3.55-0.52-7.56-0.62-11.2,0.6C17.31,54.25,17.49,53.71,17.27,53.28z"/>
	<path class="st17" d="M46.88,38.97c-0.13-1.27-1.01-1.54-2.05-1.44c-2.33,0.22-4.61-0.29-6.65-1.18
		c-6.37-2.78-12.2,0.29-18.18,1.47c-1.56,0.31-2.89,1.57-2.68,3.71c0.17,1.72,0.14,4.58-1.4,4.55c-2.51-0.04-0.95-2.87-1.44-4.42
		c-0.07-0.23-0.07-0.47-0.11-0.71c-0.3-3.46,2.15-5.15,4.46-6.92c3.12-0.43,6.09-0.65,9.14-2.29c3.22-1.74,7.31-0.93,10.39,1.65
		c2,1.67,3.95,2.93,6.71,2.62c1.41-0.16,2.58,0.46,2.72,2.14C47.49,38.43,47.19,38.7,46.88,38.97z"/>
	<path class="st18" d="M40.37,90.04c-0.92-0.02-1.84-0.04-2.75-0.06c-1.18-1.49,0.07-2.71,0.56-3.92c1.52-3.75,2.29-7.73,3.81-11.47
		c1.06-4.13,2.08-8.26,2.5-12.51c0.14-1.43,0.36-2.84,1.61-3.81c0.03-0.11,0.03-0.26,0.1-0.33c0.13-0.12,0.31-0.18,0.47-0.27
		c0.1,2.17,0.21,4.34,0.31,6.52c0.6,0.65,0.6,1.44,0.49,2.24c-1,6.98-3.42,13.61-5.08,20.43C42.08,88.14,41.76,89.43,40.37,90.04z"
		/>
	<path class="st19" d="M46.82,66.27c0.05-0.7,0.11-1.39,0.16-2.09c1.03-2.61,0.8-5.3,0.25-7.92c-0.42-2-0.27-3.97-0.26-5.96
		c0-0.9,0.51-1.29,1.33-0.55c0.3,2.42,0.6,4.83,0.97,7.8c1.84-3.18,2.61-6.23,3.74-9.14c0.21-0.55,0.42-1.6,1.38-1
		c0.34,0.21,0.27,1.06,0.39,1.62c0.69,1.72-0.66,2.99-0.98,4.48c-1.31,2.33-2.06,4.86-2.75,7.42c-1.18,2.55-0.32,5.85-2.95,7.85
		C46.08,68.75,46.42,67.52,46.82,66.27z"/>
	<path class="st20" d="M46.09,58.26c-1,5.6-1.26,11.36-3.53,16.7c-1.23,1.06-1.23,1.06-1.52-0.05c0.97-4.75,1.9-9.51,2.31-14.35
		c1.34-2.04,0.11-4.41,0.9-6.68C46.46,54.72,44.51,57.28,46.09,58.26z"/>
	<path class="st21" d="M52.09,27.32c-1.88,3.8-7.05,5.07-11,2.43c-3.98-2.66-8.08-1.67-12.23-0.94c-0.22,0.06-0.44,0.12-0.66,0.16
		c-1.52,0.16-3.14,1.09-4.44-0.55c-0.32-2.25,1.5-2.98,2.96-3.31c3.58-0.82,6.71-2.92,10.38-3.39c1.85-0.11,3.65,0.05,5.31-1.34
		c1.87-1.56,3.93-1.06,5.83,0.39c1,0.76,1.47,2.23,3,2.27C52.36,24.31,51.51,25.96,52.09,27.32z"/>
	<path class="st22" d="M37.52,22.39c-3.56,0.69-6.59,2.91-10.24,3.43c-1.29,0.18-2.77,0.84-3.44,2.31c-0.28,0.24-0.6,0.36-0.97,0.37
		c-0.91-0.32-1.64-0.76-1.29-1.92c1.61-4.01,5.86-3.21,8.79-4.81c1.68,0.15,3.12-1.16,4.84-0.81C36.16,21.16,37.5,20.7,37.52,22.39z
		"/>
	<path class="st23" d="M37.52,22.39c-2.22-2.15-4.87,0.77-7.16-0.62c2.42-1.69,5.07-1.95,7.79-1.06c1.58,0.51,2.77,0.29,3.74-1.05
		c4.65-2.27,6.12-1.74,9.36,3.38c-0.17,0.49-0.4,1.54-0.97,0.78c-2.99-4-6.32-4.38-10.31-1.51C39.42,22.71,38.35,22.38,37.52,22.39z
		"/>
	<path class="st24" d="M23.23,28.27c0.21-0.02,0.41-0.06,0.61-0.13c1.32,0.98,2.9,0.64,4.37,0.83c-1.87,0.85-3.64,2-5.8,2.04
		C22.2,29.96,21.79,28.84,23.23,28.27z"/>
	<path class="st21" d="M23.23,28.27c-0.27,0.92-0.55,1.83-0.82,2.75c-2.66-1.03-1.75-2.73-0.83-4.43
		C22.13,27.15,22.68,27.71,23.23,28.27z"/>
	<path class="st25" d="M41.04,74.91c0.48,1,1.04-0.84,1.52,0.05c-1.65,5.01-3.3,10.01-4.95,15.02c-1.06,0.17-1.53-0.36-1.59-1.36
		c1.38-3.29,2.92-6.53,3.6-10.07C40.1,77.34,40.57,76.12,41.04,74.91z"/>
	<path class="st26" d="M46.82,66.27c0.2,0.9-0.12,2.15,1.43,2.14c3.79,1.09,1.38,3.79,1.51,5.83c-1.35,5.58-2.12,11.3-4.38,16.63
		c-0.72,0.57-1.41,0.52-2.08-0.08c-0.78-0.99-1.93-0.57-2.92-0.75c1.99-7.25,4.46-14.37,5.76-21.79
		C46.25,67.54,46.22,66.8,46.82,66.27z"/>
	<path class="st27" d="M36.77,93c1.68-0.05,3.37-0.09,5.05-0.14c3.55-0.95,6.26,0.6,8.69,2.96c0.72,0.6,1.51,1.14,2.15,1.82
		c0.96,1.02,0.71,1.68-0.73,1.8c-4.27-1.03-8.74-1.39-12.57-3.84C38.32,94.93,36.77,94.73,36.77,93z"/>
	<path class="st1" d="M50.51,95.82c-2.89-0.99-5.58-2.59-8.68-2.96c-2.01-1.48-4.47,0.03-7.15-1.23c3.08-1.5,5.93-0.53,8.62-0.85
		c0.69,0.03,1.39,0.05,2.08,0.08c1.19,0.5,2.38,1,3.57,1.5c1.39,0.41,3.31-0.13,3.68,2.08C52.22,95.37,51.52,95.83,50.51,95.82z"/>
	<path class="st28" d="M36.77,93c3.65,2.55,7.68,4.19,12.05,4.98c1.18,0.21,2.35,0.38,3.11,1.46c-6.02,0.94-11.09-1.5-16-4.5
		c-0.6-0.37-1.43-0.84-1.09-1.6C35.16,92.6,36.08,92.94,36.77,93z"/>
	<path class="st29" d="M52.62,94.45c-1.23-0.69-2.45-1.39-3.68-2.08c1.66-0.21,1.45-1.47,1.55-2.64c0.11-1.35-0.45-2.83,0.68-4
		c-0.13,4.38,2.28-0.64,2.95,0.8c-0.01,2.2-0.05,4.39-0.02,6.59C54.13,94.21,54.03,95.01,52.62,94.45z"/>
	<path class="st30" d="M83.67,18.77c2.82,0.44,4,2.74,5.36,4.8c0.86,1.3,1.61,2.47,3.46,2.66c6.37,0.65,8.49,3.24,8.04,9.53
		c-0.08,1.06-0.23,2.12-0.35,3.18c-0.3,0.25-0.61,0.26-0.93,0.04c-0.68-0.82-0.59-1.97-1.24-2.8c-2.45-0.72-4.06-2.18-5.63-4.34
		c-3.48-4.79-8.7-7.66-13.75-10.62c-1.07-0.63-2.58-0.72-3.04-2.48C78.34,18.32,81,18.2,83.67,18.77z"/>
	<path class="st31" d="M83.67,18.77c-2.39,0-4.77,0-7.74,0c6.41,3.25,11.96,6.73,16.61,11.5c0.5,0.51,1.32,1.02,1.39,1.6
		c0.34,2.77,2.2,2.93,4.35,2.88c0.35-0.01,0.72,0.51,1.08,0.78c-2.14,1.41-4.27,0.95-6.39-0.04c-0.48,0.21-0.95,0.43-1.43,0.64
		c-1.19-0.68-1.84-1.9-2.77-2.83c-4.77-5.16-10.11-9.49-16.94-11.64c-0.7-0.22-1.36-0.51-1.35-1.43c0.93-1.58,2.3-1.68,3.86-1.17
		c0.93-0.34,1.86-0.68,2.79-1.01C79.28,18.51,81.6,17.49,83.67,18.77z"/>
	<path class="st32" d="M99.38,38.99c0.27-0.02,0.54-0.04,0.81-0.05c-0.27,1.91-0.54,3.82-0.81,5.73c-1.06-0.27-1.4-1.08-1.53-2.05
		C97.61,41.09,97.84,39.76,99.38,38.99z"/>
	<path class="st33" d="M99.38,38.99c-0.51,1.21-1.02,2.42-1.53,3.63c-1.68-1.34-3.41-2.6-5.6-3.03c-0.51-0.84-1.54-0.41-2.2-0.89
		c0.64-1.39,3.92-0.36,2.91-3.22c2.13-0.42,4.26-0.19,6.39,0.04C99.36,36.67,99.37,37.83,99.38,38.99z"/>
	<path class="st34" d="M79.34,45.63c-1.73-1.97,0.6-2.55,1.39-3.2c2.88-2.38,6.31-3.26,10.06-2.7c-0.41,1.7,2.51,1.17,1.97,2.94
		c-1.95,1.51-4.34,0.43-6.44,1.09c-1.45,0.46-2.87,1-4.24,1.66C81.19,45.76,80.3,46.16,79.34,45.63z"/>
	<path class="st35" d="M99.45,57.72c-1.47-1.69,0.75-5.21-2.89-5.83c-0.76-0.16-1.38-0.68-1.51-1.34c-0.58-2.9-2.58-4.85-4.4-6.92
		c0.66-1.04,1.53-0.78,2.43-0.41c1.49,0.48,2.51,1.58,2.76,2.99c0.39,2.22,1.1,3.4,3.46,4.57C102.03,52.14,100.34,55.32,99.45,57.72
		z"/>
	<path class="st36" d="M93.07,43.22c-0.78,0.14-1.71-0.14-2.25,0.74c-0.24,0.32-0.55,0.55-0.93,0.69c-1.86,0.42-3.75,0.62-5.6,1.11
		c-1,0.27-2.43,0.95-2.8-0.97c3.42-2.45,7.28-2.63,11.26-2.13C92.85,42.86,92.95,43.05,93.07,43.22z"/>
	<path class="st37" d="M62.56,26.61c-0.19,0.54-0.5,1.08-0.55,1.63c-0.14,1.37,0.3,3.28-1.69,3.33c-1.88,0.04-4.32,1.52-5.59-1.31
		c0.32-3.92-1.06-7.38-2.81-10.76c-0.57-0.83-0.26-1.4,0.54-1.82c4.01,1.85,8.91,2.44,10.71,7.47C63.2,25.74,63.1,26.26,62.56,26.61
		z"/>
	<path class="st38" d="M52.61,18.04c-0.6,0.31-0.68,0.87-0.7,1.46c-2.89-2.84-2.78-3.13,2.16-5.74c3.66-0.34,7.32-0.97,10.33,2.2
		c1.02,1.07,2.75,0.28,4.14,0.48c1.67,0.24,3.58-0.77,4.98,0.91c-1.65,2.54-4.54,1.94-6.89,2.7C62.19,17.74,57.53,16.98,52.61,18.04
		z"/>
	<path class="st39" d="M66.47,19.65c2.11-1.51,4.68-1.58,7.05-2.3c0.67,0.37,0.73,1.04,0.81,1.69c-1.21,0.42-2.43,0.84-3.64,1.25
		c-0.42,0.85-1.17,1.34-1.94,1.83c-0.53,0.34-1.08,0.61-1.75,0.5c-0.77-0.33-1.33-0.88-1.63-1.67
		C65.33,20.19,65.73,19.78,66.47,19.65z"/>
	<path class="st40" d="M88.02,37.58c-1.18,1.2-2.79,1.85-4.24,1.31c-4.08-1.51-8.22-0.42-12.32-0.72c-2.2-0.16-4.28-0.52-5.28-2.87
		c-2.71-4.06-2.98-8.52-0.7-11.53c2.1-0.1,3.87,0.77,5.7,1.7c3.6,1.83,6.43,4.98,10.53,5.98c1.24,0.3,1.62,1.7,2.29,2.66
		C85.05,35.63,86.7,36.4,88.02,37.58z"/>
	<path class="st41" d="M81.5,44.79c2.96,1.1,5.59-1.73,8.54-0.74c0.82,3.21,1.71,6.38,4.42,8.63c-2.14,2.34-4.74,3.35-7.93,2.86
		c-1.44-0.22-2.86,0.17-4.16,0.76c-2.69,1.22-4.67-0.2-6.14-1.97c-3.08-3.72-1.92-6.7,3.1-8.7C80.06,45.35,80.78,45.07,81.5,44.79z"
		/>
	<path class="st42" d="M88.02,37.58c-1.01-0.19-2.18,0.25-2.94-0.85c-3.91-5.62-10.66-7.31-15.66-11.41
		c-0.99-0.81-2.83,0.46-3.11-1.52c-0.51-0.84-0.35-1.38,0.68-1.54c0.49-0.21,0.98-0.42,1.47-0.63c1.99-0.58,3.56,0.13,5.27,1.23
		c4.19,2.71,8.54,5.17,12.06,8.79c0.81,0.83,1.91,0.9,2.88,1.3c0.69,1.21,0.66,2.7,1.45,3.87C89.6,37.58,88.79,37.53,88.02,37.58z"
		/>
	<path class="st43" d="M69.82,51.03c-6.52,3.94-11.83,9.29-17.13,14.66c-2.39-0.64-1.49-2.58-1.64-4.11
		c0.23-1.03,0.42-2.09,1.69-2.38c2.29-3.75,4.56-7.5,6.88-11.23c0.45-0.73,0.81-2.13,2-1.33c0.88,0.59-0.08,1.46-0.42,2.18
		c-1.53,3.28-4.09,6.06-5.11,10.33c4.09-2.86,7.08-6.16,11.08-8.01c0.86-0.4,1.71-1.06,2.59-1.11
		C70.6,49.98,69.81,50.67,69.82,51.03z"/>
	<path class="st44" d="M66.99,22.26c-0.67,0.32-0.67,0.93-0.68,1.54c-2.43,1.73-1.49,4.19-1.27,6.4c0.17,1.72,0.74,3.4,1.13,5.09
		c-0.91,3.33,0.14,5.25,3.53,6.38c1.19,0.4,2.63,0.19,3.66,1.7c-3.49,1.35-6.32,0.38-8.83-1.81c-2.2-1.92-2.07-4.27-1.14-6.85
		c1-2.78-1.57-5.3-0.83-8.11c0.05-0.44,0.11-0.89,0.16-1.33c-0.01-2.06,0.15-4.02,2.82-4.33C66.03,21.38,66.51,21.82,66.99,22.26z"
		/>
	<path class="st45" d="M94.46,52.69c-3.79-1.7-5.23-4.52-4.42-8.63c0.26-0.03,0.52-0.06,0.79-0.1c2.53,0.39,3.84,1.87,4.3,4.38
		c0.23,1.23,0.94,2.37,1.43,3.55C96.06,52.69,95.22,52.57,94.46,52.69z"/>
	<path class="st46" d="M52.74,59.21c-0.51,0.59-0.91,1.22-0.86,2.04c-0.28,0.52-0.69,1.07-1.29,0.76c-0.54-0.28-0.56-0.92-0.1-1.43
		c0.25-2.69,1.54-4.99,2.71-7.33c0.74-0.16,1.09,0.12,0.98,0.89C53.86,55.87,52.34,57.26,52.74,59.21z"/>
	<path class="st47" d="M54.19,54.13c-0.33-0.3-0.65-0.6-0.98-0.89c0.52-1.4,1.05-2.8,1.57-4.21c1.01-0.6,1.13-2.1,2.95-2.53
		C56.46,49.24,55.32,51.68,54.19,54.13z"/>
	<path class="st48" d="M90.12,36.82c-2.44-0.4-1.68-2.13-1.5-3.61c0.25-0.27,0.5-0.26,0.76-0.02c1.15,0.66,2.11,1.46,2.15,2.93
		C91.25,36.73,90.69,36.78,90.12,36.82z"/>
	<path class="st49" d="M50.49,60.57c0.04,1.08,0.56,1.2,1.39,0.68c0.41,1.46-0.52,3.16,0.81,4.45c-0.97,2.85-1.95,5.69-2.92,8.54
		c-0.14-2.04,0.65-4.31-1.51-5.82C49.23,65.86,48.92,62.95,50.49,60.57z"/>
	<path class="st50" d="M41.95,42.56c0.64,0.07,1.27,0.26,1,1.05c-0.12,0.36-0.62,0.74-1.02,0.82c-0.69,0.16-1.2-0.38-1.23-0.98
		C40.65,42.7,41.32,42.56,41.95,42.56z"/>
	<path class="st51" d="M89.38,33.19c-0.25,0.01-0.51,0.01-0.76,0.02c-1.32,0.4-2.4,0.32-3.43-0.89c-3.74-4.39-9.28-6.4-13.57-10.05
		c-1.08-0.92-2.39,0.82-3.16-0.63c0.6-0.68,1.29-1.21,2.23-1.33c7.32,1.88,12.9,6.48,18.13,11.62
		C89.12,32.23,89.2,32.76,89.38,33.19z"/>
	<path class="st52" d="M65.55,20.94c-1.81,0.88-1.89,2.88-2.82,4.33c-0.83-1.89-2.25-3.06-4.14-3.92c-2.07-0.93-3.99-2.2-5.98-3.32
		c3.87-2.44,11.28-1.58,13.86,1.61C66.16,20.08,65.85,20.51,65.55,20.94z"/>
</g>
</svg>
