<?xml version="1.0" encoding="utf-8"?>
<!-- Generator: Adobe Illustrator 23.0.2, SVG Export Plug-In . SVG Version: 6.00 Build 0)  -->
<svg version="1.1" id="Camada_1" xmlns="http://www.w3.org/2000/svg" xmlns:xlink="http://www.w3.org/1999/xlink" x="0px" y="0px"
	 viewBox="0 0 111.51 110.21" style="enable-background:new 0 0 111.51 110.21;" xml:space="preserve">
<style type="text/css">
	.st0{fill:#FEFEFE;}
	.st1{fill:#010002;}
	.st2{fill:#155D31;}
	.st3{fill:#145C31;}
	.st4{fill:#479750;}
	.st5{fill:#12552E;}
	.st6{fill:#1C6E39;}
	.st7{fill:#2D953F;}
	.st8{fill:#217F3E;}
	.st9{fill:#184E2C;}
	.st10{fill:#26873C;}
	.st11{fill:#278443;}
	.st12{fill:#529F5B;}
	.st13{fill:#93B867;}
	.st14{fill:#499C54;}
	.st15{fill:#97BA6B;}
	.st16{fill:#B2C86A;}
	.st17{fill:#A4C271;}
	.st18{fill:#F1F09D;}
	.st19{fill:#B6CB6C;}
	.st20{fill:#C7D574;}
	.st21{fill:#46944E;}
	.st22{fill:#8EB664;}
	.st23{fill:#95BA68;}
	.st24{fill:#1C6834;}
	.st25{fill:#7EAF5D;}
	.st26{fill:#4C9D55;}
	.st27{fill:#469852;}
	.st28{fill:#59A260;}
	.st29{fill:#A3C16D;}
	.st30{fill:#F6F5C6;}
	.st31{fill:#D1E08F;}
	.st32{fill:#F3F2B5;}
	.st33{fill:#6BA86D;}
	.st34{fill:#146835;}
	.st35{fill:#EEF09D;}
	.st36{fill:#DBE282;}
	.st37{fill:#1C8037;}
	.st38{fill:#ABC575;}
	.st39{fill:#A4C171;}
	.st40{fill:#C2D387;}
	.st41{fill:#155F31;}
	.st42{fill:#146433;}
	.st43{fill:#B9CD80;}
	.st44{fill:#B1C96E;}
	.st45{fill:#8BB563;}
	.st46{fill:#60A458;}
	.st47{fill:#BCCF82;}
	.st48{fill:#4B9B54;}
	.st49{fill:#D8E097;}
</style>
<g>
	<path class="st0" d="M0.82,39.09C1.36,32.18,6.11,27,8.57,20.86c2.18-5.45,6.63-9.7,12.99-10.86c3.24-0.59,5.88-2.62,8.95-3.62
		c0.91-0.3,1.8-0.98,2.68-0.94C39.43,5.72,44.8,2.89,50.47,1c5.17-1.73,10.26-1.15,15.32,1.3c3.41,1.65,7.27,2.32,11.15,2.22
		c7.44-0.19,14.03,1.58,18.59,8.02c0.76,1.07,1.91,1.37,3,1.84c9.74,4.2,13.59,10.49,12.06,20.99c-0.69,4.77-1.13,9.29,0.62,13.88
		c0.74,1.95-0.05,4.04-0.52,5.91c-1.79,7.09-2.12,14.76-8.36,20.13c-3.06,2.63-6.39,4.52-10.28,4.55
		c-4.02,0.03-7.79,0.79-11.59,1.86c-3.8,1.06-7.63,0.63-11.33-0.52c-2.44-0.76-3.33,0.19-3.46,2.47c-0.22,4.16-0.97,8.23-0.39,12.49
		c0.66,4.92-5,11.43-10.66,13c-8.86,2.45-17.04,0.56-24.67-4.21c-2.33-1.46-4.48-3.13-6.23-5.36c-3.11-3.98-3.68-8.18-1.73-12.79
		c2.09-4.96,4.05-9.98,6.28-14.87c0.89-1.94,0.69-2.6-1.46-3.14c-4.86-1.22-9.64-2.74-14.45-4.13c-3.11-0.9-5.2-3.11-6.49-5.83
		C4.02,54.96,1.73,51.27,0.88,47C-0.28,44.37-0.29,41.74,0.82,39.09z"/>
	<path class="st1" d="M88.2,75.16c-2.02-0.4-4.15,0.42-6.43,1.31c-4.93,1.92-10,1.27-14.68-0.93c-1.98-0.93-2.42-0.32-3.47,1.09
		c-3.88,5.23-3.28,11.34-3.33,17.18c-0.05,5.13-2.25,9.23-7.11,10.93c-7.8,2.72-21.1-1.7-25.97-8.42c-1.82-2.52-2.18-4.88-0.94-7.7
		c2.26-5.15,4.52-10.31,6.55-15.56c2.43-6.28,0.33-7.55-4.97-8.92c-4.81-1.24-9.58-2.63-14.32-4.1c-0.95-0.3-1.94-1.11-2.49-1.96
		c-5.16-7.93-9.33-19.61-0.01-29.5c0.54-0.57,0.76-1.13,0.88-1.87c1.14-6.77,5.4-10.87,11.95-12.4c2.96-0.69,5.7-2.38,8.53-3.61
		c0.66-0.29,1.37-0.9,1.97-0.8c6.66,1.04,12.04-2.64,17.92-4.57c3.77-1.23,7.7-0.81,11.46,1.23c3.58,1.93,7.76,2.67,11.75,2.59
		c6.99-0.13,13.13,0.98,17.24,7.34c1.06,1.65,3.05,1.81,4.67,2.52c6.56,2.86,9.02,6.99,8.56,14.02c-0.22,3.36-0.57,6.68-1.59,9.89
		c-0.18,0.57-0.58,1.11-0.08,1.64c3.44,3.62,2.09,7.87,1.45,11.93c-0.45,2.82-1.33,5.59-2.15,8.34
		C101.6,71.67,96.36,75.24,88.2,75.16z"/>
	<path class="st2" d="M98.67,64.96c-3.46,5.27-7.48,6.74-13.39,4.82c-1-0.32-1.63-0.41-2.51,0.45c-3.88,3.75-11.42,3.78-15.65,0.21
		c-2.84-2.4-3.7-2.26-5.74,0.89c-3.93,6.07-6.22,12.61-5.89,19.95c0.11,2.4-0.41,4.71-1.33,6.93c-2.06-0.24-2.46-1.7-2.14-3.33
		c0.59-3.03,0.26-6.08,0.37-9.11c0.77-12.68,5.29-23.82,13.83-33.28c0.36-0.42,0.78-0.75,1.25-1.02c0.53-0.27,1.09-0.47,1.68-0.58
		c0.72-0.13,1.51-0.22,2,0.4c0.67,0.83,0.02,1.59-0.42,2.26c-1.85,2.79-4.2,5.21-6.04,8.01c-0.76,1.16-1.58,2.27-2.22,3.27
		c1.96-2.71,4.91-4.46,7.93-6.13c0.73-0.41,1.61-0.84,2.32-0.13c0.89,0.88,0.25,1.77-0.31,2.56c-0.55,0.78-1.29,1.41-1.94,2.11
		c-2.39,2.57-2.11,3.84,1.21,5.13c3.21,1.24,6.31,1.25,9.09-1.13c1.12-0.96,2.43-1.92,3.89-1.26c5.4,2.47,9.14,0.4,12.09-4.13
		C99.43,61.64,97.94,63.97,98.67,64.96z"/>
	<path class="st3" d="M16.69,31.21c0.66-0.51,1.36-0.91,1.04-2.01c-1.49-5.06,1.32-8.97,6.35-10.39c4.75-1.34,9.44-1.83,14.31-2.27
		c3.88-0.35,7.76-2.66,11.27-4.91c0.64,0.11,1.31,0.18,1.75,0.76c0.12,0.32,0.12,0.64,0.04,0.97c-1.34,1.64-2.38,3.26,0.13,4.81
		c1.85,3.39,3.47,6.82,2.06,10.83c-2.59,1-2.72-1.33-3.6-2.65c-0.54-1.33-0.24-2.86-0.96-4.15c-3.01-4.77-3.85-5.04-8.67-2.51
		c-1.23,0.64-2.44,0.8-3.76,0.48c-2.51-0.61-4.92-0.39-7.18,0.94c-2.76,1.62-6.56,1.35-8.41,4.63c-0.49,1.07-1.24,2.16,0.39,2.95
		c2.01-0.03,3.62-1.3,5.5-1.74c0.35-0.11,0.71-0.18,1.07-0.22c4.26-0.59,8.06,0.58,11.34,3.25c1.7,1.39,3.65,1.52,5.64,1.89
		c4.83,0.88,6.44,4.55,3.64,8.03c-2.09,0.25-1.77-2.1-3.01-2.77c-0.24-0.26-0.46-0.74-0.73-0.76c-4.46-0.32-7.8-3.16-11.59-5.01
		c-2.56-1.25-5.36-0.95-7.87,0.63c-2.46,1.54-5.05,2.01-7.86,1.14C16.88,32.68,16.41,32.12,16.69,31.21z"/>
	<path class="st4" d="M46.38,36.86c1.84,0.24,0.64,2.46,1.98,3.03c0.42,2.97,0.83,5.95-0.71,8.76c-2,1.91-0.91,4.18-0.81,6.37
		c0.12,2.71,1.52,5.64-1.11,7.98c-1.88-1.62-1.05-3.67-0.91-5.62c0.01-0.08-0.11-0.22-0.2-0.24c-0.1-0.03-0.23,0.04-0.36,0.07
		c-0.59-0.32-0.82-0.84-0.88-1.47c-0.42,1.21,0.89,3.34-1.78,3.38c-1.02-1.49-0.51-3.23-0.77-4.91c-0.54,5.84-1.83,6.57-7.49,5.19
		c-5.6-1.36-10.89-3.9-16.71-4.43c-0.48-0.48-0.97-0.97-1.45-1.45c-0.47-0.72-0.38-1.28,0.45-1.64c2.73-0.85,5.55-0.64,8.36-0.78
		c2.15-0.1,4.19-0.1,6.34,0.49c3.38,0.93,5.73-1.24,7.48-3.73c0.83-1.19,1.26-1.85,2.94-1.8c2.23,0.07,4.68-4.81,4.48-8.31
		C45.44,37.26,45.8,36.92,46.38,36.86z"/>
	<path class="st5" d="M16.63,54.99c2.13-0.2,4.31,0.31,6.42-0.4c0.38-0.13,1.1-0.07,1.28,0.18c2.89,3.86,7.74,2.57,11.45,4.36
		c2.03,0.98,4.03,0.08,3.91-2.9c-0.07-1.87,0.12-3.72,1.64-5.9c0.97,3.33,0.31,6.17,0.6,8.92c1.74,2.67,0.07,5.36-0.08,8.01
		c-0.11,2-0.6,4.02-1.32,5.94c-0.61,1.38-0.87,2.94-2.02,4.06c-0.36,0.21-0.71,0.2-1.05-0.04c0.69-4.08,1.43-8.15,1.54-12.31
		c0.05-2.18-0.13-3.64-3.16-3c-2.59,0.55-4.94-1.43-7.37-2.2C24.47,58.44,20.11,57.71,16.63,54.99z"/>
	<path class="st6" d="M53.36,85.13c-0.17,3.37,0.58,6.79-0.56,10.1c-0.49,1.43,0.67,2.09,1.37,2.97c-1.73,3.13-4.68,2.98-7.56,2.66
		c-4.21-0.47-8.13-1.91-11.77-4.09c-4.41-2.64-4.91-4.79-2.19-9.41c0.53-0.53,1.15-0.63,1.85-0.43c0.74,0.33,1.37,0.93,2.26,0.89
		c0.88,0.05,1.77-0.01,2.65,0.03c1.07,0.21,2.38,0.03,2.57,1.62c-1.76,1.48-3.85,0.38-5.56,0.73c1.2,0.53,3.46-1.1,4.02,1.6
		c-1.24,1.01-2.74,0.73-4.14,0.84c-1.26,0.28-0.46,0.69-0.01,0.94c4.14,2.33,8.36,4.36,13.32,3.55c0.92-1.19-1.18-1.53-0.72-2.58
		c0.5-0.9,1.44-1.3,2.15-1.97c1.1-1.34,0.5-2.96,0.74-4.43C51.98,87.01,51.47,85.43,53.36,85.13z"/>
	<path class="st7" d="M74.93,14.54c6.47-1.88,9.61-0.79,12.87,4.5c1.56,2.53,3.21,4.39,6.74,4.35c2.8-0.03,5.04,1.76,5.7,5
		c1.07,5.21,2.07,10.33-1.54,15.03c-0.36,0.27-0.69,0.23-0.97-0.12c-1.03-1.86,0.28-3.68,0.07-5.53c0.02-1.08,0.22-2.13,0.4-3.2
		c0.75-4.37-1.18-7.76-5.47-8.61c-2.94-0.58-5.08-1.81-6.62-4.32c-1.04-1.69-2.63-2.75-4.47-3.44c-1.87-0.98-4.19,0.15-5.96-1.3
		c-0.39-1.83,1.54-0.7,1.94-1.51c0.47-0.1-0.27-0.52,0-0.12c0.13,0.2,0.08,0.34-0.14,0.31C76.56,15.44,75.1,16.55,74.93,14.54z"/>
	<path class="st8" d="M97.96,43.37c0.25,0.02,0.5,0.03,0.75,0.05c-0.77,1-1.95,1.77,0,3.02c2.87,1.84,3.67,5.24,2.68,7.93
		c-1.29,3.49-1.65,7.11-2.7,10.59c-1.15-0.57-0.03-2.77-1.98-2.77c-1.83-2.05-0.03-3.84,0.4-5.72c0.91-2.83,2.33-5.69-1.77-7.43
		c-1.09-0.46-1.41-1.88-1.7-3.06c-0.32-1.31-0.87-2.48-1.91-3.37c-0.21-0.24-0.36-0.52-0.47-0.81c-0.26-1.4-3.19-1.48-1.83-3.69
		c0.43-0.3,0.92-0.43,1.44-0.44c2.33,0.28,4.26,1.35,5.87,3.02C97.38,41.46,97.32,42.58,97.96,43.37z"/>
	<path class="st9" d="M15.86,51.98c-0.23,0.52-0.45,1.04-0.68,1.56c-3.77-5.38-6.9-10.83-3.8-17.76c1.11-2.49,2.56-4.18,5.31-4.57
		c0.24,0.51,0.49,1.02,0.73,1.53c-1.04,2.59-3.92,4.22-3.8,7.4c-0.78,3.1-0.18,5.87,1.82,8.39C16.22,49.52,17.16,50.66,15.86,51.98z
		"/>
	<path class="st10" d="M74.93,14.54c0.67,1.17,1.94,0.57,3.06,1.03c-0.84,0.43-1.56,0.8-2.28,1.17c-0.2,0.45-0.57,0.73-0.98,0.97
		c-0.29,0.14-0.59,0.23-0.91,0.27c-0.5,0.01-0.95-0.13-1.34-0.45c-0.5-0.43-0.98-0.89-1.63-1.1c-3.92-0.09-7.72-0.21-11.28-2.47
		c-2.43-1.54-5.62,0.18-8.36-0.85c0.01-0.23,0.03-0.47,0.05-0.7c1.54-2,6.14-3.4,8.76-1.74c2.96,1.88,6.04,2.11,9.22,2.51
		C70.95,14.41,72.79,15.09,74.93,14.54z"/>
	<path class="st11" d="M69.24,13.18c-2.93-0.09-5.65,0.42-8.64-1.48c-2.55-1.62-6.38-1.64-9.34,0.71c-0.67,0.02-1.25-0.15-1.59-0.78
		c4.41-2.71,8.91-3.44,13.24-0.01C64.87,13.19,67.49,11.25,69.24,13.18z"/>
	<path class="st2" d="M34.61,87.32c-0.65,0.02-1.31,0.03-1.96,0.05c1.61-3.38,3.21-6.76,4.82-10.14c0.25,0.01,0.5,0.02,0.74,0.02
		C38.86,81.27,37.36,84.52,34.61,87.32z"/>
	<path class="st12" d="M98.04,56.42c-0.32,1.95-1.9,3.61-1.34,5.77c-2.17,5.51-5.54,7.09-10.97,4.94c-1.77-0.7-2.95-0.54-4.47,0.73
		c-3.61,3.01-8.97,2.81-12.51-0.06c-1.61-1.31-2.01-2.39-0.22-3.97c1.54-1.37,3.33-2.63,4.52-5.32c-5.21,2.12-8.86,5.11-11.99,8.9
		c1.67-6.26,6.5-10.51,9.97-15.64c-1.31-0.75-2.19,0.53-3.26,0.27c-0.39-0.63,0.38-1.28-0.06-1.89c-4.05,0.99-6.68,4.13-9.89,6.36
		c-0.91,0.63-1.83,2.06-3.03,1.03c-1.07-0.92-0.3-2.26,0.23-3.31c1.15-2.31,2.68-4.41,4.09-7.59c-1.95,3.5-3.65,6.09-5.07,8.86
		c-0.6,1.17-1.03,2.84-3.02,2.28c-0.99-1.89,0.39-3.32,0.96-4.91c0.89-2.15,1.77-4.31,3.25-6.22c-0.66,0.44-0.85,1.44-1.84,1.31
		c-1.22-0.27-1.33,0.71-1.59,1.46c-0.52,1.46-1.07,2.9-1.71,4.32c-0.48,1.06-0.77,2.7-2.12,2.52c-1.39-0.19-1.19-1.88-1.26-3
		c-0.11-1.58-1.18-3.25,0.2-4.77c1.85-2.62-0.34-5.93,1.46-8.56c1.94-4.19,0.18-7.19-4.51-7.28c-2.16-0.04-3.76-0.64-5.37-2.12
		c-3.08-2.85-7.03-3.14-11.01-2.98c0.14-1.51,1.39-1.51,2.38-1.54c3.65-0.14,7.28-0.51,10.7,1.59c3.66,2.25,7.05,0.81,10.16-1.56
		c1.04,0.83,0.67,2.9,2.6,2.94c4.04,1.8,6.17-0.53,7.92-3.67c1.32,2.44,2.09,5.12,1.74,7.8c-0.76,5.83,0.25,7.51,6.04,8.54
		c-1.79-0.67-3.58-1.45-4.58-3.1c-0.96-1.58-2.2-3.43,0.62-4.6c2.35,1.67,4.96,2.28,7.82,2.09c3.1-0.21,6.19-0.52,9.26,0.48
		c1.29,0.42,2.61-0.06,3.82-0.64c1.3-0.46,2.64-0.82,3.82-1.57c0.62-0.31,1.25-0.62,1.97-0.32c1.26,1.17,0.59,2.02-0.48,2.8
		c-0.42,0.3-0.69,1.29-0.4,1.55c-0.49,0.04-0.98,0.09-1.46,0.13c-1.07,0.99-2.47,0.64-3.71,0.93c-3.14,0.74-6.28,1.55-7.48,5.14
		c-0.38,0.8-1.18,1.14-1.83,1.65c-1.48,1.14-2.76,2.41-1.83,4.51c0.93,2.1,2.59,4.06,4.84,3.53c4.54-1.06,9.66,0.09,13.59-3.39
		c0.87-0.33,1.74-0.63,2.68-0.66C99.46,51.06,97.42,54.25,98.04,56.42z"/>
	<path class="st13" d="M68.41,49.73c1.18,1.16-0.6,1.48-0.65,2.29c-0.27,0.21-0.53,0.43-0.8,0.64
		c-11.39,9.01-14.88,21.81-16.92,35.29c-0.19,1.28,0.07,2.66-0.81,3.8c-2.47,0.79-4.09-0.45-5.46-2.27
		c0.82-5.59,2.35-11.02,3.79-16.48c1.11-2.82,1.43-5.94,3.07-8.57c4.18-4.84,8.56-9.48,13.95-13.02
		C65.74,50.65,66.85,49.63,68.41,49.73z"/>
	<path class="st14" d="M49.05,91.55c-0.13-10.56,3.53-20.1,8.02-29.37c2.09-4.31,5.9-7.07,9.9-9.52
		c-6.79,7.88-10.99,16.98-13.12,27.13c-0.38,1.8-0.35,3.56-0.48,5.35c-1.29,2.1-0.47,4.42-0.63,6.63c-0.08,1.1-0.07,1.97-1.54,1.4
		C50.02,93.24,48.83,93.32,49.05,91.55z"/>
	<path class="st15" d="M50.7,26c-1.88,3.81-7.05,5.1-11,2.46c-3.99-2.66-8.08-1.68-12.24-0.95c-0.22,0.06-0.44,0.12-0.66,0.16
		c-1.52,0.17-3.14,1.09-4.44-0.55c-0.31-2.25,1.51-2.98,2.97-3.31c3.58-0.82,6.72-2.92,10.39-3.39c1.85-0.1,3.64,0.04,5.31-1.34
		c1.87-1.55,3.93-1.04,5.83,0.4c0.99,0.76,1.45,2.25,3.01,2.24C50.96,22.99,50.12,24.63,50.7,26z"/>
	<path class="st16" d="M12.97,39.66c-0.34-3.48,2.14-5.15,4.45-6.93c3.12-0.43,6.09-0.65,9.13-2.29c3.22-1.72,7.28-0.95,10.37,1.67
		c1.98,1.68,3.97,2.92,6.73,2.6c1.41-0.16,2.58,0.46,2.72,2.14c-0.3,0.27-0.6,0.54-0.9,0.81c-4.16-0.48-8.19-1.76-12.28-2.4
		c-5.08-0.79-10.11,0.73-14.84,2.77c-1.04,0.45-1.26,1.68-1.4,2.77c-0.12,0.95-0.16,1.92-0.54,2.81c-0.41,0.95-0.65,2.22-2.11,1.99
		c-1.31-0.21-1.68-1.17-1.59-2.39C12.81,42.03,12.52,40.82,12.97,39.66z"/>
	<path class="st17" d="M61.16,25.31c-0.19,0.55-0.5,1.08-0.55,1.64c-0.14,1.37,0.3,3.28-1.7,3.33c-1.88,0.04-4.33,1.52-5.6-1.33
		c0.16-3.88-0.81-7.46-2.82-10.77c-0.66-1.9,0.32-2.44,1.99-2.42c1.39,1.48,2.94,2.64,4.91,3.36c2.18,0.8,3.95,2.23,4.36,4.78
		C61.78,24.46,61.68,24.98,61.16,25.31z"/>
	<path class="st18" d="M52.68,15.97c-1.32,0.15-2.13,0.8-2.2,2.2c-3.91-2.28-1.11-3.6,0.72-5.06c4.12-1.16,8.14-1.98,11.72,1.53
		c1.09,1.07,2.77,0.3,4.17,0.5c1.68,0.24,3.6-0.78,5.02,0.91c-1.64,2.58-4.51,2.01-6.89,2.7C61.34,16.46,56.97,16.39,52.68,15.97z"
		/>
	<path class="st19" d="M36.11,21.1c-3.56,0.68-6.59,2.91-10.24,3.43c-1.29,0.18-2.77,0.84-3.44,2.31c-0.28,0.24-0.6,0.36-0.97,0.37
		c-0.91-0.31-1.64-0.75-1.29-1.92c1.61-4.01,5.86-3.2,8.78-4.82c1.69,0.16,3.13-1.16,4.85-0.8C34.75,19.87,36.1,19.39,36.11,21.1z"
		/>
	<path class="st20" d="M36.11,21.1c-2.21-2.17-4.88,0.78-7.16-0.63c0.85-0.42,1.67-1.14,2.54-1.2c4.19-0.28,8.26,0.02,12.4-2.01
		c2.68-1.32,4.52,2.14,5.97,4.46c-0.19,1.38-0.85,1.28-1.53,0.39c-2.62-3.44-5.5-4.16-9.1-1.3C38.55,21.36,37.17,21.03,36.11,21.1z"
		/>
	<path class="st21" d="M21.82,26.97c0.21-0.02,0.41-0.06,0.61-0.13c1.32,0.98,2.89,0.64,4.37,0.83c-1.87,0.85-3.64,2-5.8,2.04
		C20.79,28.66,20.39,27.54,21.82,26.97z"/>
	<path class="st15" d="M21.82,26.97c-0.27,0.92-0.55,1.83-0.82,2.75c-2.66-1.03-1.74-2.73-0.83-4.43
		C20.72,25.85,21.27,26.41,21.82,26.97z"/>
	<path class="st22" d="M12.97,39.66c0.05,1.08,0.12,2.15,0.13,3.23c0.01,1.04,0.19,2.08,1.42,2.09c1.14,0.01,1.19-1.4,1.13-1.9
		c-0.84-6.63,4.3-6.53,8.45-8.13c7.28-2.8,13.8,1.43,20.72,1.57c0.23,0,0.44,0.75,0.66,1.15c1.22,2.07-2.09,9.91-4.3,10.26
		c-0.78,0.12-0.62-0.52-0.84-0.87c-0.6-0.92-1.25-0.66-1.59,0.12c-2.29,5.1-4.83,5.68-10.6,4.83c-3.55-0.52-7.56-0.62-11.2,0.6
		c-1.04,0.35-0.86-0.2-1.08-0.63c0.14-0.97,0.15-1.87-0.72-2.59C11.88,46.72,12.18,43.24,12.97,39.66z"/>
	<path class="st23" d="M38.96,88.74c-0.92-0.02-1.84-0.04-2.75-0.06c-0.67-0.57-0.55-1.26-0.24-1.94c2.02-4.32,2.93-9.02,4.61-13.46
		c1.06-4.13,2.08-8.26,2.5-12.51c0.14-1.43,0.36-2.83,1.61-3.8c0.03-0.11,0.03-0.26,0.1-0.33c0.13-0.12,0.31-0.18,0.47-0.27
		c0.1,2.17,0.21,4.34,0.31,6.51c0.61,0.65,0.6,1.44,0.49,2.24c-1,6.98-3.42,13.62-5.08,20.43C40.67,86.84,40.35,88.13,38.96,88.74z"
		/>
	<path class="st24" d="M45.42,64.97c0.05-0.7,0.1-1.39,0.16-2.09c1.03-2.61,0.8-5.3,0.25-7.92c-0.42-2-0.27-3.97-0.26-5.96
		c0-0.9,0.51-1.29,1.33-0.55c-0.09,2.47,1.18,4.75,0.91,7.31c1.89-2.69,2.67-5.74,3.79-8.65c0.21-0.55,0.42-1.6,1.38-1
		c0.34,0.21,0.27,1.06,0.39,1.62c0.69,1.72-0.66,2.99-0.98,4.48c-1.31,2.33-2.06,4.86-2.75,7.42c-1.18,2.55-0.32,5.85-2.95,7.85
		C44.67,67.45,45.01,66.22,45.42,64.97z"/>
	<path class="st25" d="M44.69,56.96c-1,5.6-1.26,11.36-3.53,16.7c-1.23,1.06-1.23,1.06-1.52-0.05c0.97-4.75,1.9-9.51,2.31-14.35
		c1.36-2.03,0.08-4.42,0.91-6.67C45.05,53.42,43.1,55.98,44.69,56.96z"/>
	<path class="st26" d="M39.63,73.61c0.48,0.99,1.04-0.84,1.52,0.05c-1.26,5.14-3.04,10.1-4.95,15.02c-1.06,0.17-1.53-0.36-1.59-1.36
		c1.38-3.29,2.92-6.53,3.6-10.07C38.69,76.04,39.16,74.82,39.63,73.61z"/>
	<path class="st27" d="M45.42,64.97c0.2,0.9-0.13,2.15,1.43,2.14c3.79,1.09,1.39,3.78,1.51,5.82c-1.49,5.51-2,11.26-4.3,16.56
		c-0.72,0.62-1.45,0.62-2.17-0.01c-0.78-0.99-1.93-0.57-2.92-0.75c1.99-7.25,4.46-14.37,5.76-21.8
		C44.84,66.24,44.82,65.5,45.42,64.97z"/>
	<path class="st28" d="M35.36,91.7c1.68-0.05,3.37-0.09,5.05-0.14c3.55-0.95,6.26,0.6,8.68,2.96c0.72,0.6,1.51,1.14,2.15,1.82
		c0.96,1.02,0.71,1.68-0.73,1.8c-4.27-1.03-8.74-1.39-12.57-3.84C36.91,93.63,35.36,93.43,35.36,91.7z"/>
	<path class="st2" d="M49.1,94.52c-2.89-0.99-5.58-2.59-8.68-2.96c-2.01-1.49-4.47,0.03-7.15-1.23c3.08-1.5,5.94-0.53,8.62-0.84
		c0.72,0,1.45,0,2.17,0.01c1.65,0.72,3.1,1.93,4.99,2.06c0.71,0.54,1.43,1.08,2.14,1.62C50.8,94.09,50.09,94.52,49.1,94.52z"/>
	<path class="st29" d="M35.36,91.7c3.65,2.55,7.68,4.19,12.05,4.98c1.18,0.21,2.35,0.38,3.11,1.46c-6.02,0.94-11.09-1.5-16-4.5
		c-0.6-0.37-1.43-0.84-1.09-1.6C33.76,91.31,34.68,91.64,35.36,91.7z"/>
	<path class="st30" d="M82.26,17.47c2.58,0.7,4.09,2.6,5.37,4.77c0.72,1.23,1.43,2.39,3.08,2.67c7.61,1.29,8.96,3.06,8.31,10.61
		c-0.06,0.71-0.16,1.41-0.25,2.12c-0.29,0.25-0.6,0.27-0.92,0.06c-0.68-0.81-0.59-1.93-1.12-2.79c-2.55-0.78-3.72-2.93-5.28-4.86
		c-3.98-4.9-9.41-7.98-14.98-10.78c-0.86-0.43-2.29-0.17-2.21-1.78l0,0C76.93,16.94,79.59,16.97,82.26,17.47z"/>
	<path class="st31" d="M97.97,37.69c0.27-0.02,0.54-0.04,0.81-0.05c-0.27,1.91-0.54,3.82-0.81,5.73c-1.06-0.27-1.4-1.08-1.53-2.05
		C96.2,39.79,96.43,38.46,97.97,37.69z"/>
	<path class="st32" d="M82.26,17.47c-2.66,0.01-5.33,0.01-7.99,0.02c0.48-0.25,0.96-0.5,1.44-0.76
		C77.86,17.21,80.19,16.2,82.26,17.47z"/>
	<path class="st33" d="M97.97,37.69c-0.51,1.21-1.02,2.42-1.54,3.63c-1.68-1.34-3.42-2.6-5.59-3.03c-0.51-0.84-1.55-0.41-2.21-0.89
		c0.64-1.38,3.94-0.35,2.9-3.22c2.16-1.08,4.31-0.68,6.46,0.08C97.98,35.4,97.98,36.54,97.97,37.69z"/>
	<path class="st34" d="M77.93,44.33c-1.73-1.97,0.6-2.55,1.39-3.21c2.88-2.38,6.31-3.27,10.06-2.7c-0.42,1.7,2.51,1.16,1.97,2.95
		c-1.95,1.51-4.34,0.43-6.43,1.09c-1.45,0.46-2.87,1-4.24,1.66C79.78,44.46,78.89,44.86,77.93,44.33z"/>
	<path class="st35" d="M98.04,56.42c-1.47-1.69,0.74-5.21-2.89-5.83c-0.76-0.16-1.38-0.68-1.51-1.34c-0.58-2.9-2.58-4.84-4.4-6.92
		c0.66-1.04,1.53-0.78,2.43-0.4c1.49,0.47,2.51,1.58,2.76,2.98c0.39,2.22,1.1,3.4,3.46,4.57C100.62,50.84,98.93,54.02,98.04,56.42z"
		/>
	<path class="st36" d="M91.66,41.92c-0.78,0.14-1.7-0.14-2.24,0.74c-0.24,0.32-0.55,0.55-0.93,0.7c-1.86,0.42-3.75,0.62-5.6,1.11
		c-1,0.27-2.43,0.95-2.8-0.97c3.42-2.45,7.27-2.63,11.25-2.13C91.43,41.56,91.54,41.75,91.66,41.92z"/>
	<path class="st32" d="M97.99,34.25c-2.15-0.3-4.3-0.49-6.46-0.08c-0.45,0.22-0.91,0.45-1.36,0.67c-1.82,0.06-1.93-1.71-2.83-2.63
		c-3.96-5.68-9.75-8.88-15.86-11.63c-0.92-0.41-2.24-0.14-2.43-1.62c0.83-1.7,2.35-1.47,3.82-1.37c0.47-0.03,0.93-0.07,1.4-0.1
		c6.9,2.49,12.95,6.36,17.81,11.82C93.85,31.3,95.03,33.76,97.99,34.25z"/>
	<path class="st37" d="M72.87,17.59c-0.83,1.4-2.57,0.47-3.58,1.41c-0.42,0.85-1.19,1.34-1.91,1.89c-0.75,0.56-1.42,1.28-2.48,1.16
		c-0.8-0.33-1.37-0.89-1.66-1.71c-0.01-1.24,0.75-1.76,1.83-1.98c2.11-1.5,4.69-1.58,7.05-2.3C72.74,16.38,72.83,16.97,72.87,17.59z
		"/>
	<path class="st38" d="M86.6,36.28c-1.18,1.21-2.78,1.85-4.24,1.31c-4.08-1.51-8.22-0.42-12.32-0.72c-2.2-0.16-4.28-0.52-5.28-2.87
		c-2.75-4.14-2.99-8.63-0.62-11.58c2.7-0.1,5.03,0.87,7.3,2.31C76.84,28.13,82.56,31.08,86.6,36.28z"/>
	<path class="st39" d="M80.09,43.5c2.96,1.09,5.59-1.73,8.54-0.74c1.39,2.92,1.63,6.42,4.41,8.63c-2.14,2.34-4.74,3.35-7.92,2.86
		c-1.44-0.22-2.86,0.17-4.16,0.76c-2.69,1.22-4.67-0.2-6.14-1.97c-3.08-3.72-1.92-6.7,3.1-8.7C78.65,44.05,79.37,43.77,80.09,43.5z"
		/>
	<path class="st40" d="M86.6,36.28c-0.67-0.18-1.65-0.13-1.96-0.57c-3.98-5.55-10.54-7.54-15.62-11.52
		c-1.3-1.02-3.29,0.16-4.11-1.67c-0.15-0.15-0.2-0.29-0.13-0.43c0.06-0.13,0.12-0.2,0.18-0.2c0.7-0.52,1.4-1.03,2.11-1.55
		c1.82-0.44,3.44-0.13,5.06,0.9c4.13,2.62,8.37,5.09,11.82,8.62c1.17,1.2,2.73,1.27,4.01,2.06c0.74,0.98,1.48,1.96,2.23,2.94
		C89.21,35.91,87.97,36.26,86.6,36.28z"/>
	<path class="st41" d="M68.41,49.73c-6.52,3.94-11.83,9.3-17.13,14.66c-2.39-0.64-1.49-2.58-1.64-4.11
		c0.23-1.03,0.42-2.09,1.69-2.38c2.29-3.75,4.56-7.5,6.88-11.23c0.45-0.73,0.81-2.13,2-1.33c0.88,0.59-0.08,1.46-0.42,2.18
		c-1.53,3.28-4.09,6.06-5.11,10.33c3.99-2.8,6.91-5.98,10.76-7.86c0.96-0.47,1.91-1.15,2.92-1.26
		C69.17,48.64,68.4,49.37,68.41,49.73z"/>
	<path class="st42" d="M64.95,21.88c-0.03,0.21-0.05,0.42-0.04,0.63c-2.45,1.72-1.49,4.19-1.27,6.4c0.17,1.72,0.74,3.39,1.13,5.09
		c-0.91,3.33,0.14,5.25,3.53,6.38c1.19,0.4,2.63,0.19,3.66,1.7c-3.49,1.35-6.32,0.38-8.83-1.81c-2.2-1.92-2.07-4.27-1.14-6.85
		c1-2.78-1.57-5.3-0.83-8.11c0.05-0.45,0.11-0.89,0.16-1.34c-0.07-1.65-0.06-3.25,2.1-3.61C64.15,20.64,64.66,21.15,64.95,21.88z"/>
	<path class="st43" d="M93.05,51.38c-4.54-1.31-4.26-5.08-4.41-8.63c0.26-0.03,0.52-0.06,0.79-0.1c2.52,0.39,3.84,1.87,4.3,4.38
		c0.23,1.23,0.94,2.37,1.43,3.55C94.65,51.39,93.8,51.27,93.05,51.38z"/>
	<path class="st44" d="M51.33,57.91c-0.51,0.59-0.91,1.22-0.86,2.04c-0.28,0.52-0.7,1.07-1.29,0.76c-0.54-0.28-0.56-0.92-0.1-1.43
		c0.25-2.69,1.54-4.99,2.71-7.33c0.74-0.16,1.09,0.12,0.98,0.9C52.45,54.57,50.94,55.96,51.33,57.91z"/>
	<path class="st45" d="M52.78,52.83c-0.33-0.3-0.65-0.6-0.98-0.9c0.52-1.4,1.05-2.8,1.57-4.2c1.01-0.6,1.13-2.1,2.95-2.53
		C55.05,47.94,53.91,50.38,52.78,52.83z"/>
	<path class="st46" d="M49.08,59.27c0.04,1.09,0.56,1.2,1.39,0.68c0.4,1.46-0.52,3.16,0.8,4.45c-0.97,2.85-1.95,5.69-2.92,8.54
		c-0.14-2.04,0.65-4.31-1.51-5.82C47.82,64.56,47.51,61.65,49.08,59.27z"/>
	<path class="st47" d="M63.42,20.36c-1.28,0.86-1.3,2.47-2.1,3.61c-1.11-2.57-3.18-3.98-5.78-4.68c-1.74-0.47-3.17-1.13-2.85-3.33
		c4.4-1.42,10.27-0.29,12.38,2.38C64.51,19.02,63.96,19.69,63.42,20.36z"/>
	<path class="st48" d="M41.64,42.23c-0.25,0.6-0.69,1.03-1.35,0.91c-0.6-0.11-1.14-0.52-0.92-1.25c0.21-0.72,0.89-0.66,1.48-0.61
		C41.41,41.33,41.66,41.68,41.64,42.23z"/>
	<path class="st49" d="M87.94,31.91c-1.75,0.47-3.23-0.02-4.46-1.3c-3.6-3.73-8.18-6.09-12.33-9.07c-1.42-1.02-2.98-0.1-4.1-1.21
		c0.6-0.69,1.29-1.22,2.23-1.33c6.42,1.22,11.09,5.51,16.03,9.26C86.48,29.14,87.9,30.1,87.94,31.91z"/>
</g>
</svg>
