<?xml version="1.0" encoding="utf-8"?>
<!-- Generator: Adobe Illustrator 23.0.2, SVG Export Plug-In . SVG Version: 6.00 Build 0)  -->
<svg version="1.1" id="Camada_1" xmlns="http://www.w3.org/2000/svg" xmlns:xlink="http://www.w3.org/1999/xlink" x="0px" y="0px"
	 viewBox="0 0 160.01 104.29" style="enable-background:new 0 0 160.01 104.29;" xml:space="preserve">
<style type="text/css">
	.st0{fill:#FEFEFE;}
	.st1{fill:#010002;}
	.st2{fill:#272E50;}
	.st3{fill:#2D3457;}
	.st4{fill:#313961;}
	.st5{fill:#3E4877;}
	.st6{fill:#404B7D;}
	.st7{fill:#1E2444;}
	.st8{fill:#4E5990;}
	.st9{fill:#C0B3D3;}
	.st10{fill:#C0B3D4;}
	.st11{fill:#968CB5;}
	.st12{fill:#C8BBD9;}
	.st13{fill:#988DB7;}
	.st14{fill:#978CB6;}
	.st15{fill:#BBAED0;}
	.st16{fill:#968BB5;}
	.st17{fill:#FAFAFA;}
	.st18{fill:#3F0C0B;}
	.st19{fill:#774528;}
	.st20{fill:#4A170D;}
	.st21{fill:#E4E8F4;}
	.st22{fill:#363F71;}
	.st23{fill:#9D92BE;}
	.st24{fill:#CCC0DD;}
	.st25{fill:#DED0E6;}
	.st26{fill:#E4E6F2;}
	.st27{fill:#202747;}
	.st28{fill:#1C2344;}
	.st29{fill:#444F84;}
	.st30{fill:#F8F7FA;}
	.st31{fill:#020103;}
	.st32{fill:#581814;}
	.st33{fill:#D0C3DD;}
	.st34{fill:#E2D4E6;}
	.st35{fill:#F2E6F0;}
	.st36{fill:#47528B;}
	.st37{fill:#8A502D;}
</style>
<g>
	<path class="st0" d="M141.79,50.29c4.09,1.36,7.43,3.38,10.61,5.72c9.93,7.29,9.75,20.09,1.69,28
		c-7.86,7.73-18.07,11.25-28.4,14.02c-26.28,7.05-52.96,7.85-79.8,3.87c-14.03-2.08-26.83-7.18-37.45-16.92
		C5,81.81,1.98,78.33,0.61,73.61c-1.94-6.72,0.83-13.01,6.76-17.03c7.02-4.75,15.14-6.5,23.15-8.5c6.37-1.59,6.38-1.48,4.34-7.5
		c-2.12-6.24-4.29-12.46-5.66-18.93c-1.52-7.19,1.53-12.74,8.61-15.18C48.66,2.75,59.97,1.58,71.3,0.53
		c14.25-1.32,28.37-0.01,42.45,2c5.06,0.73,9.57,2.97,13.94,5.54c1.09,0.64,2.08,1.42,3.64,1.04c9.85-2.4,15.56,4.95,18.25,12.79
		C153.04,32.04,150.56,40.22,141.79,50.29z"/>
	<path class="st1" d="M132.03,52.53c6.83,1.55,12.76,3.5,17.92,7.45c6.21,4.75,7.04,14.65,1.46,20.17
		c-5.42,5.37-12.24,8.31-19.24,10.88c-14.3,5.26-29.18,7.35-44.33,8.02c-14.64,0.65-29.24,0.45-43.68-2.22
		c-13.99-2.59-26.59-8.06-36.07-19.17c-5.61-6.58-4.53-13.23,2.87-17.78c7.38-4.53,15.81-6.12,24.08-8.08
		c2.67-0.63,6.39-0.51,7.54-2.46c0.87-1.47-1.3-4.75-2.17-7.22c-2.3-6.55-4.69-13.07-6.37-19.82c-1.65-6.65-0.07-9.55,6.42-11.76
		c9.72-3.31,19.85-4.24,29.98-5.19C84.83,4,99.09,5.1,113.31,7.2c5.23,0.77,9.59,3.6,14.03,6.2c0.77,0.45,1.21,1.44,2.46,0.99
		c3.24-1.17,6.88-2.05,9.55,0.46c3.85,3.63,6.53,8,6.83,13.75c0.47,8.7-3.91,14.78-9.74,20.28C135.24,50.01,133.89,51,132.03,52.53z
		"/>
	<path class="st2" d="M18.73,61.54c5.59-3.21,11.92-4.08,18.03-5.63c2.54-0.65,5.12-1.2,7.72-1.5c4.63-0.54,4.93-0.92,3.36-5.17
		c-1.9-5.16-3.85-10.31-5.59-15.53c-1.48-4.42-2.54-8.97-4.07-13.37c-0.91-2.62,0.26-3.91,2.33-4.72
		c10.37-4.04,21.23-5.4,32.26-5.79c-1.45,1-1.45,1-3.78,1.04c3.27,0.08,6.17-0.64,9.11-0.36c1.08,0.1,2.55-0.35,2.62,1.54
		c-1.47,1.18-3.29,1.46-5.01,1.47c-5.22,0.02-10.34,0.77-15.47,1.55c-3.18-0.36-6.16,0.69-9.18,1.36c-1.05,0.11-2.11,0.17-3.12,0.55
		c-1.5,0.62-3.27,0.52-4.83,1.74c1.87,1.68,4.17,1.7,6.27,2.25c1.71,0.67,3.52,0.87,5.3,1.21c5.3,0.58,10.59,1.16,15.94,0.96
		c2.7,0.56,5.69-0.04,8.04,1.97c-0.69,1.73-2.26,1.45-3.6,1.49c-3.76,0.09-7.51,0.03-11.27,0.04c-3.56,0.06-7.1-0.05-10.6-0.75
		c-2.72-0.4-5.36-1.17-7.99-1.96c-1.49-0.45-2.06-0.03-1.72,1.51c0.21,0.93,0.49,1.85,0.78,2.76c3.38,10.58,7.49,20.9,11.41,31.29
		c1.07,2.83,3.26,4.42,5.9,5.36c5.18,1.85,10.46,3.36,15.97,3.85c8.77,1.74,17.1-0.86,25.52-2.54c6.36-0.61,8.32-5.35,9.84-10.51
		c0.53-1.71,1.14-3.37,2.87-4.27c1.93,0.12,1.43,1.46,1.24,2.58c-0.16,0.97-1.06,1.99,0.26,2.81c0.63,0.64,2,0.73,1.59,2.14
		c-0.44,0.43-1.03,0.6-1.54,0.9c-0.85,0.48-1.74,1.05-1.47,2.19c0.23,1.01,1.27,0.99,2.06,1.13c3.32,0.6,6.53,1.49,9.47,3.23
		c4.24,2.51,4.52,4.5,1.11,8.07c-2.69,1.65-5.62,2.64-8.73,3.09c-0.91-0.1-2.12,0.09-2.25-1.17c-0.09-0.94,0.93-1.3,1.67-1.65
		c1.94-0.93,4.03-1.53,5.93-2.53c1-0.52,1.95-1.18,0.73-2.44c-2.38-2.47-11.63-3.77-14.96-2.08c-11.19,6.35-23.35,7.2-35.81,6.35
		c-5.94-1.4-11.78-3.09-17.41-5.54c-4.3-1.87-8.48-0.32-12.5,1.23c-1.57,0.61-1.24,1.87-0.01,2.75c1.49,1.06,3.25,1.49,4.99,1.93
		c7.01,1.77,14.16,2.17,21.36,2.25c0.42,0.04,0.82,0.12,1.23,0.23c6.58,0.74,13.19,0.11,19.77,0.34c1.62,0.06,3.39-0.38,4.94,1.33
		c-1.43,1.7-3.37,1.93-5.34,2.07c-2.87,0.2-5.76-0.24-8.61,0.33c-5.49,0.04-11.01-0.1-16.48-0.49c-6.66-0.47-13.41-0.66-19.9-2.61
		c-1.97-0.6-3.89-1.25-5.47-2.61c-3.51-3.01-2.82-7.75,1.41-9.57c1.99-0.85,4.11-1.3,6.2-1.84c1.11-0.29,3.15,0.16,2.65-1.96
		c-0.45-1.89-0.81-4.16-3.46-4.46c-0.72-0.08-1.44,0.07-2.14,0.23c-8.52,1.97-17.15,3.5-25.39,6.57c-1.47,0.55-2.85,1.22-4.17,2.06
		c-4.56,2.91-4.63,3.26-1.31,7.65c0.36,0.46,0.62,0.97,0.67,1.57c-0.2,0.66-0.73,1.06-1.32,0.85c-2.63-0.92-3.7-3.19-4.45-5.6
		c-0.65-2.06,0.23-3.65,1.87-4.95C14.21,64.11,16.83,63.39,18.73,61.54z"/>
	<path class="st3" d="M18.73,61.54c-1,2.61-3.66,3.08-5.69,4.32c-1.9,1.17-2.57,2.6-2,4.75c0.8,3.04,2.32,4.61,4.82,4.79
		c1.27-0.57,2.03,0.36,2.8,1.03c9.15,7.77,19.99,11.38,31.65,13.05c1.18,0.17,2.77-0.22,3.11,1.61c-0.08,0.02-0.22,0.05-0.29,0.14
		c-0.25,0.33-0.19,0.26,0.12,0.28C63.5,92.17,73.74,92.51,84,92.3c5.01-0.1,9.96-1,14.98-0.89c0.92,0.02-0.02-0.65,0.31-0.87
		c1.35-1.44,3.03-1.08,4.68-0.9c2.98,1.1,5.92,0.27,8.82-0.33c5.26-1.09,10.38-2.74,15.56-4.16c0.38-0.11,0.49-0.45,0.37-0.85
		c1.23-1.7,3.02-2.17,4.96-2.35c5.52-0.33,9.31-3.7,12.95-7.34c0.67-0.67,1.09-1.64,1.99-2.01c1.39-0.58,1.73,0.01,1.21,1.31
		c-1.54,3.58-4.42,5.92-7.69,7.7c-12.04,6.55-25.05,9.93-38.56,11.72c-12.39,1.64-24.85,1.87-37.28,1.37
		c-13.76-0.56-27.49-1.79-40-8.45c-4.88-2.6-9.42-5.68-13.27-9.72c-5.47-5.74-4.9-9.75,2.1-13.43
		C16.27,62.46,17.52,62.04,18.73,61.54z"/>
	<path class="st4" d="M116.67,57.29c-1.97-0.33-1.32-1.45-0.85-2.62c0.4-1,1.54-2.03,0.14-3.14c-0.84-1.01-0.43-2.09-0.02-3.05
		c1.36-3.2,2.16-6.61,3.62-9.77c0.55-0.68,0.9-1.93,2.04-1.43c1,0.44,0.73,1.57,0.66,2.5c-0.06,0.73-0.84,1.55,0.19,2.19
		c0.47,0.34,0.75,0.84,1.1,1.27c3.55-1.09,6.21-3.43,8.75-6c0.68-0.69,1.29-2.73,2.84-0.82c-0.49,3.93-4.03,5.37-6.41,7.71
		c-2.01,1.97-4.98,2.55-7.71,4.78c5.06-1.91,8.06-5.68,12.12-7.83c1.87,0.74,0.57,1.68,0.11,2.5c-2.06,3.69-5.23,6.1-8.98,7.93
		c-1.34,0.66-2.97,0.87-3.97,2.18c-0.46,1-2.21,0.39-2.35,1.97c6.13,1.31,12.44,0.84,18.56,2.64c5.61,1.65,9.8,4.65,13.31,9.02
		c0.48,0.99,0.38,1.68-0.93,1.48c-0.86-0.13-1.52-0.72-2.08-1.34c-5.55-6.17-13.08-7.63-20.74-8.38
		C122.83,58.78,119.74,58.21,116.67,57.29z"/>
	<path class="st5" d="M120.3,53.71c-0.19-1.01-0.21-1.07,0.25-1.2c3.13-0.93,5.97-2.45,8.35-4.63c1.92-1.76,3.46-3.89,4.21-6.47
		c-0.28-1.13,0.6-1.71,1.15-2.47c2.41-3.33,3.44-7.05,3.01-11.15c-0.45-4.25-2.1-5.34-6.26-4.16c-0.69,0.2-1.36,0.45-2.1,0.26
		c-1.94-1.66-0.14-2.49,0.9-3.05c1.93-1.05,4.05-1.7,6.3-1.71c5.58,2.8,7.63,11.03,4.06,17.94C135.9,45.31,128.92,50.55,120.3,53.71
		z"/>
	<path class="st6" d="M80.66,11.91c-2.93-1.48-6.05-0.4-9.08-0.69c-1.27-0.12-2.55-0.02-4.29-0.02c1.97-1.34,4.04,0.04,5.46-1.38
		c11.94-0.62,23.86-0.19,35.68,1.49c4.86,0.69,9.85,1.76,13.94,4.96c-0.37,0.92-1.1,1.27-2.03,1.3
		c-11.66-4.22-23.88-4.13-36.02-4.61C83.03,12.91,81.67,13,80.66,11.91z"/>
	<path class="st7" d="M116.67,57.29c6.47,0.74,13.03,0.68,19.36,2.71c4.53,1.46,8.65,3.37,11.8,7.07c0.34,0.4,1.06,2.5,1.99,0.26
		c1.19,2.18,1,4.37,0.01,6.56c-0.3-1.61-0.82-1.06-1.42-0.16c-2.9,4.39-7.31,6.79-11.91,8.91c-0.89,0.41-1.75,0.92-2.55-0.14
		c0.71-1.95,2.65-2.3,4.18-3.1c2.88-1.51,5.68-3.08,7.81-5.61c1.72-2.04,1.86-3.93-0.19-5.97c-3.91-3.89-8.79-5.62-14.02-6.64
		c-2.7-0.53-5.43-0.83-8.16-1.16c-1.52-0.66-3.5,0.17-4.73-1.44C118.11,58.15,117.39,57.72,116.67,57.29z"/>
	<path class="st8" d="M120.76,17.1c0.54-0.28,1.08-0.55,1.62-0.83c2.57,1.26,3.7,3.27,2.7,6.72c3.88-2.05,6.68-5.46,11.03-3.87
		c-1.74,0.63-3.53,1.14-5.19,1.95c-0.91,0.44-2.73,0.57-1.81,2.48c0,1.04-0.67,1.49-1.54,1.78c-0.81,0.14-1.53,0.53-2.27,0.84
		c-1.4,0.6-1.97,0-1.85-1.42c0.05-0.6,0.09-1.21,0.08-1.82c-0.16,0.63,0.18,1.38-0.4,1.92c-0.17,0.15-0.39,0.2-0.64,0.17
		c-0.81-1.44-1.86-2.56-3.62-2.75c-0.51-0.65-0.21-1.23,0.14-1.8C120.02,19.58,120.94,18.63,120.76,17.1z"/>
	<path class="st9" d="M104.42,90.41c-1.79-0.09-3.57-0.14-5.27,0.59c-0.52,0.56-1.2,0.75-1.93,0.81
		c-11.19,0.87-22.41,1.14-33.6,0.57c-3.31-0.17-6.92,0.3-10.11-1.36c-6.06-1.19-12.18-2.03-18.08-4.07
		c-7.34-2.54-13.69-6.62-19.58-11.54c-0.25-0.25-0.51-0.51-0.76-0.76c-2.21-5.93-1.16-8.06,4.92-10.18
		c6.61-2.31,13.4-2.07,20.22-1.57c0.81,0.06,1.77,0.15,2.12,1.05c0.36,0.94-0.43,1.5-0.99,2.11c-3.91,4.35-3.36,7.22,1.71,10.09
		c4.41,2.5,9.37,2.92,14.17,3.59c11.49,1.6,23.03,2.55,34.58,0.26c7.29-0.82,14.75-0.46,21.8-2.93c2.01-0.71,3.99,0.5,5.92-0.31
		c3.01-0.59,5.86-1.6,8.57-3.04c1.7-0.16,2.66-1.43,2.79-2.78c0.3-3.21,2.3-3.9,4.91-3.73c2.23,0.15,3.83-0.87,5.32-2.3
		c3.4,0,5.33,2.3,6.27,4.97c0.9,2.55-1.07,4.51-3.09,5.96c-4.41,3.17-9.32,5.43-14.4,7.24c-5.28,1.88-10.44,4.21-16.09,4.93
		c-0.59,0.07,0.46,0.58,0.03,0.92C110.85,90.31,107.74,91.03,104.42,90.41z"/>
	<path class="st10" d="M103.88,66.78c-8.79,2.39-17.59,4.67-26.82,2.76c-5.93-8.48-12.09-16.83-15.53-26.76
		c0.81-4.54,1.57-4.88,5.48-2.42c10.62,6.68,21.95,12,33.35,17.17c1.74,0.79,3.54,1.41,5.45,1.71c1.18,0.18,2.43,0.34,2.73,1.84
		C108.55,64.25,104.92,64.46,103.88,66.78z"/>
	<path class="st11" d="M61.92,42.91c3.82,8.11,8.68,15.6,13.52,23.12c0.71,1.11,1.52,2.14,1.62,3.52
		c-5.66-0.43-11.07-1.98-16.33-3.93c-2.95-1.09-5.01-3.22-6.25-6.45C50.47,48.66,46.53,38.14,43,27.47
		c-0.55-1.67-1.82-3.84-0.79-5.03c1.06-1.22,2.93,0.71,4.52,1c1.99,0.37,3.93,1.01,5.9,1.53C56.27,30.67,59.63,36.51,61.92,42.91z"
		/>
	<path class="st0" d="M118.48,22.25c2.2-0.44,4.87-1.61,3.99,2.63c1.18,4.86-0.29,9.31-2.14,13.7c-1.46,4.32-2.92,8.64-4.38,12.95
		c-0.75,1.43-1.49,2.86-2.24,4.29c-1.75-0.04-2.4-1.23-2.81-2.68c-0.06-0.35-0.06-0.71-0.04-1.07c0.14-1.24,0.6-2.4,0.88-3.6
		c0.55-1.98-0.28-3.22-2.11-3.93c-9.73-3.75-18.7-8.93-27.34-14.71c-2.6-1.74-5.54-0.99-8.37-1.05c-1.29-0.09-2.61-0.09-3.65-1.84
		c7.98-1.55,15.82-0.34,23.52-1.25c1.6-0.38,3.27-0.38,4.85-0.89c4.68-0.25,9.31-0.92,13.89-1.89
		C114.51,22.73,116.39,21.47,118.48,22.25z"/>
	<path class="st12" d="M61.92,42.91c-3.59-5.72-6.89-11.6-9.29-17.93c3.54,0.24,7.07,0.48,10.61,0.71c0.34,0.28,0.36,0.58,0.05,0.89
		c-0.89,0.63-1.9,0.64-2.88,0.59c3.48,4.41,10.98,10.23,18.37,14.12c8.03,4.23,16.17,8.22,24.44,11.98
		c2.39,1.09,5.16,1.05,7.29,2.74c0.06,2.26,0.45,4.67-2.46,5.64c-0.11-0.78-0.45-1.32-1.31-1.43c-8.01-1.07-14.59-5.64-21.67-8.95
		c-6.91-3.23-13.64-6.79-19.99-11.06C61.5,37.8,63.49,42.58,61.92,42.91z"/>
	<path class="st13" d="M91.57,80.38c-6.32,1.97-12.71,2.25-19.34,1.71c-7.01-0.57-13.99-0.99-20.9-2.44
		c-2.82-0.59-5.55-1.22-8.13-2.55c-7.28-3.74-7.71-7.73-0.56-13.26c-5.93,0.16-11.08-0.96-16.3,0.14c-1.86,0.39-3.76,0.63-5.57,1.17
		c-5.37,1.59-5.75,2.23-5.34,7.73c0.04,0.57-0.21,1.16-0.33,1.75c-0.94-0.58-1.49-1.47-2.12-2.35c-1.83-2.58-1.44-3.86,1.44-5.75
		c7.67-5.04,16.47-6.24,25-8.43c2.55-0.66,5.24-0.82,7.7-1.7c2.78-0.99,3.99,0.1,4.78,2.5c0.3,0.91,0.57,1.87,1.1,2.64
		c1.37,2.01,1.05,2.66-1.49,2.92c-2.7,0.28-5.34,1.24-7.98,1.97c-1.7,0.47-3.03,1.37-3.29,3.35c-0.29,2.13,0.49,3.75,2.23,4.92
		c3.28,2.21,7.07,2.85,10.86,3.43c9.72,1.51,19.57,1.19,29.33,2.12C85.62,79.89,88.6,79.63,91.57,80.38z"/>
	<path class="st14" d="M71.3,77.47c-7.45,0.23-14.81-0.54-22.06-2.24c-1.27-0.3-2.53-0.75-3.72-1.31c-1.5-0.7-3.32-1.37-3.01-3.5
		c0.28-1.96,2.17-1.97,3.61-2.39c5-1.45,9.7-2.21,14.83,0.6c4.21,2.31,9.27,3.08,13.95,4.54c0.11,1.98-1.49,2.51-2.82,2.84
		C70.96,76.29,71.44,76.93,71.3,77.47z"/>
	<path class="st15" d="M71.3,77.47c-0.05-0.58-1.81-0.89-0.19-1.77c1.33-0.72,3-0.99,3.8-2.52c12.49,0.58,24.7-0.33,35.95-6.56
		c2.14-0.78,4.01,0.1,5.74,1.14c2.9,1.75,2.69,4.45-0.39,6.01c-0.96,0.49-2.02,0.73-3.06,0.98c-13.58,3.19-27.37,3.47-41.21,2.76
		l-0.32,0.03L71.3,77.47z"/>
	<path class="st16" d="M71.93,77.51c7.37-0.44,14.79,0.61,22.12-0.77c6.87-1.29,13.94-1.3,20.68-3.48c1.44-0.47,2.92-0.75,3.21-2.35
		c0.35-1.92-1.5-2.23-2.71-2.79c-1.39-0.64-2.91-1.01-4.37-1.5c2.3-2.27,4.97-0.72,7.42-0.53c2.83,0.22,5.55,1.29,8.05,2.69
		c2.62,1.46,2.64,2.54-0.04,3.83c-2.75,1.33-5.64,2.37-8.89,3.71c1.03,0.21,1.59,0.32,2.15,0.44c-9.12,2.81-18.43,4.17-27.98,3.62
		c-2.97-0.04-5.95-0.08-8.93-0.12c4.16-1.18,8.56,0.04,12.71-1.27c0.41-0.13,0.85-0.18,1.23-0.94c-6.82,0-13.64,0.03-20.46-0.02
		C74.72,78.02,73.25,78.32,71.93,77.51z"/>
	<path class="st17" d="M120.76,17.1c3.39,2.51-0.18,2.5-1.23,3.4c-1.82,1.47-3.59,0.66-5.36-0.12c-3.51-1.54-7.1-2.78-10.95-3.12
		c-5.05-0.71-10.13-1.19-15.19-1.8c-5.4-0.65-10.87,0.39-16.3,0.69c-2.95,0.17-5.88,0.81-8.83,1.08c-2.13,0.05-3.49-0.69-3.11-3.15
		c6.87-1.55,13.92-1.44,20.87-2.16c8.71,0.05,17.4,0.3,26.06,1.28C111.62,13.75,116.33,14.89,120.76,17.1z"/>
	<path class="st12" d="M141.15,65.16c-0.33,2.44-1.96,3.1-4.1,2.92c-2.95-0.24-5.39-0.03-5.85,3.81c-0.14,1.15-0.9,3.17-3.08,1.84
		c2.73-3.14,2.55-4.45-1.03-6.57c-3.02-1.79-6.44-2.45-9.78-3.35c-1.04-0.28-3.21,0.56-2.8-1.54c0.3-1.5,0.69-3.73,3.26-3.53
		c0.35,0.03,0.71-0.09,1.06-0.15c1.73,0.25,3.45,0.51,5.18,0.76c-1.16,1.27-2.62,0.69-4.01,0.8c6.21-0.58,12.07,1.11,17.93,2.75
		C139.23,63.26,140.83,63.33,141.15,65.16z"/>
	<path class="st18" d="M62.06,16.3c4.85-0.49,9.7-1,14.56-1.48c8.27-0.82,16.48-0.41,24.61,1.39c0.78,0.17,1.64,0.03,2.46,0.04
		c-0.41,2.03-2.1,1.76-3.37,1.59c-7.79-1.08-15.59-1.39-23.41-0.51c-3.51-0.23-6.73,0.68-10.08,1.81c-4.19,1.4-8.19,3.79-12.84,3.62
		c-1.85,0.02-3.73,0.12-5.15-1.44c-0.13-1.65,1.21-2.09,2.25-2.78c2.11-1.09,4.42-1.59,6.69-2.18C59.2,15.91,60.64,17.2,62.06,16.3z
		"/>
	<path class="st19" d="M78.52,24.86c-2.68-0.23-5.35-0.45-8.03-0.68c0.28-2.21,2.28-2.26,3.74-3c3.73-1.17,7.19-3.09,11.07-3.85
		c1.62-0.32,3.24-0.86,4.83,0.12c1.04,1.16,1.82,2.5,2.68,3.78c0.78,1.17,1.02,2.42-0.16,3.56C87.95,26.42,83.24,26.59,78.52,24.86z
		"/>
	<path class="st20" d="M74.18,22c-1.23,0.73-2.46,1.46-3.69,2.19c-5.55,0.05-11.1,0.01-16.52-1.44c4.55-1.75,9.09-3.54,13.67-5.23
		c2.79-1.03,5.71-1.46,8.7-1.25C76.24,18.41,73.33,19.5,74.18,22z"/>
	<path class="st21" d="M108.04,61.64c1.7-1.56,1.41-3.87,2.15-5.79c-0.02-1.21-0.48-2.63,1.41-2.9c0.15,1.37,1.38,1.93,2.11,2.87
		c-0.53,2.86-1.96,5.38-3.27,7.9c-1.32,2.55-4.25,2.3-6.57,3.07c-0.29-0.29-1.74,0.1-0.51-1.08
		C104.86,64.27,107.04,63.63,108.04,61.64z"/>
	<path class="st22" d="M78.52,24.86c4.78-0.3,9.62,0.58,14.36-0.68c1-0.92,2.17-0.94,3.41-0.67c1,0.49,2.51,0.42,2.39,2.15
		c-1.45,0.22-2.89,0.45-4.34,0.67c-5.96,0.74-11.93,0.2-17.9,0.31c-2.87,0.05-5.7,0.22-8.54,0.64c-1.45,0.22-3.16,0.34-4.34-1.08
		c-0.11-0.18-0.22-0.35-0.33-0.53c4-0.03,7.99-0.04,11.99-0.1C76.36,25.56,77.61,25.95,78.52,24.86z"/>
	<path class="st23" d="M51.17,19.17c-0.78,0.71-1.56,1.42-2.34,2.13c-2.97,0.29-5.4-0.87-8.02-2.86c2.39-1.24,4.55-1.72,6.71-2.21
		C48.89,17.02,51.31,16.5,51.17,19.17z"/>
	<path class="st24" d="M51.17,19.17c-0.49-1.87-3.15-1.07-3.64-2.94c0.97-0.22,1.94-0.45,2.91-0.67c1.58,0.9,2.96-0.13,4.38-0.51
		c1.89-0.51,2.87,0.15,3.07,2.06C55.65,17.79,53.41,18.48,51.17,19.17z"/>
	<path class="st25" d="M57.88,17.11c-1.27-1.38-2.61-2.04-4.54-1.05c-0.86,0.44-2.08,0.49-2.91-0.5c3.11-0.56,6.1-1.82,9.35-1.48
		c1.22,0.27,0.7,2.32,2.28,2.23C60.77,17.1,59.3,16.97,57.88,17.11z"/>
	<path class="st26" d="M141.15,65.16c-5.71-2.28-11.58-3.86-17.75-4.27c-1.57-0.11-3.28,0.47-5.46-1.2c2.53-0.14,4.3-0.24,6.07-0.33
		c5.03,0.3,10.04,0.75,14.72,2.85c1.31,0.59,2.63,1.16,3.87,1.88c7.25,4.21,7.48,8.35,0.79,13.29c-2.91,2.15-6.3,3.41-9.44,5.14
		c-1.84,0.43-3.6,1.06-5.22,2.04c-4.66,2.27-9.41,4.24-14.77,3.83c-0.39-0.26-1.92-0.38-0.14-0.94c3.74-1.19,7.48-2.41,11.24-3.52
		c6.1-1.8,11.84-4.42,17.34-7.57c2.27-1.3,4.82-2.83,4.39-5.95C146.35,67.38,143.97,65.89,141.15,65.16z"/>
	<path class="st27" d="M53.51,91.01c15.21,1.47,30.43,1.03,45.64-0.01c0.8,0.12,1.61,0.24,2.83,0.41
		c-11.7,2.28-35.86,2.94-52.23-0.02C51.43,91.22,52.47,91.12,53.51,91.01z"/>
	<path class="st28" d="M113.95,88.38c5.1-0.61,9.83-2.62,14.77-3.83c0.27,0.27,1.67,0.43,0.64,0.81
		c-7.78,2.89-15.65,5.54-24.09,5.63c-0.28,0-0.57-0.38-0.86-0.58C107.64,89.93,110.95,89.88,113.95,88.38z"/>
	<path class="st29" d="M120.33,38.58c0.71-4.57,1.42-9.13,2.14-13.7c1.12-0.67,0.25-2.08,1.26-3.11c0.09,1.47,0.16,2.7,0.24,3.88
		c1.48,0.48,1.88-2.29,3.48-0.92c0.06,1.03-0.79,1.68-1.17,2.91c1.59-0.92,2.91-1.94,4.57-1.99c1.83-0.05,3.16,0.85,4.19,2.29
		c1.83,2.58,1.68,6.53-0.32,8.58c-3.23,1.86-5.03,5.54-8.75,6.81c-0.98,0.33-1.8,1.26-2.77,1.44c-0.63,0.12-0.05-0.68-0.02-1.06
		c0.64-2.76,3.24-3.64,5.08-5.22c1.77-1.52,3.34-3.08,3.3-5.6c-0.03-1.89-0.66-2.8-2.59-1.52c-2.27,1.51-3.79,3.47-4.4,6.21
		c-0.36,1.64-0.17,3.68-2.2,4.56c-0.43,0.39-0.86,0.79-1.56,1.42c-0.55-1.92,0.87-3.29,0.83-4.81
		C121.57,36.55,120.77,38.7,120.33,38.58z"/>
	<path class="st30" d="M134.72,36.52c1.11-1.3,1-2.89,0.91-4.4c-0.34-5.31-3.86-7.01-8.26-4.04c-0.77,0.52-1.51,1.1-2.48,1.8
		c-0.41-2.56,0.98-3.9,2.56-5.15c0.74-0.12,1.27-0.55,1.66-1.17c6-3.22,8.99-1.35,9.33,5.47c0.25,5.1-2.36,8.76-5.33,12.37
		c-4.04,3.52-8.13,6.97-13.31,9.33c0.26-2.42,1.2-3.59,3.45-4.45C128.12,44.4,132.29,41.41,134.72,36.52z"/>
	<path class="st31" d="M122.37,42.15c0.41-1.36,1.02-2.7,1.2-4.09c0.42-3.34,2.2-5.7,4.92-7.46c0.93-0.6,1.76-1.92,3.09-1.01
		c1.09,0.75,1,2.05,1.07,3.26c0.14,2.4-1.18,4.08-2.81,5.51c-2.15,1.87-4.43,3.58-6.65,5.36C122.43,43.44,122.44,42.77,122.37,42.15
		z"/>
	<path class="st32" d="M74.18,22c-3.36-3.45,1.4-3.84,2.16-5.74c8.15-0.93,16.27-0.6,24.37,0.65c0.99,0.15,2.17,0.36,2.97-0.67
		c3.37,0.33,6.58,1.29,9.62,2.73c1.99,0.94,4.02,1.54,6.22,1.52c-0.34,0.58-0.69,1.17-1.04,1.75c-1.65,0.67-3.32,1.2-5.11,1.27
		c-0.82,0.3-1.59,0.45-2.01-0.59c0.17-1.29,0.82-1.54,1.6-1.12c-6.01-1.36-12.18-3.63-18.86-3.15c-1.42,0.1-2.9,0.1-4.08-0.97
		c-4.35-0.03-8.28,1.55-12.18,3.21C76.66,21.41,75.57,22.19,74.18,22z"/>
	<path class="st33" d="M111.6,52.95c-1.14,0.64-0.26,2.27-1.41,2.9c-4.08,0.47-7.45-1.73-10.78-3.36
		C87.88,46.85,75.92,41.97,65.8,33.74c-2.52-2.05-4.76-4.35-7-6.62c-1.23-1.25,0.75-0.37,1.05-0.76c5.75-0.35,10.01,2.47,14.16,6.11
		c4.41,3.87,9.79,6.39,15.04,8.95c6.97,3.4,13.71,7.3,21.1,9.8c0.58,0.2,1.01,0.63,1.45,1.04C111.61,52.49,111.61,52.72,111.6,52.95
		z"/>
	<path class="st34" d="M111.6,52.26c-2.73-0.03-5.14-1.31-7.44-2.43c-10.7-5.25-21.94-9.63-31.35-17.13
		c-3.97-3.16-7.84-5.84-12.96-6.33c1.24-0.05,2.48-0.1,3.72-0.15c10.26,0.04,20.52,0.09,30.78,0.13c-1.18,1.2-2.69,0.69-4.05,0.71
		c-6.27,0.06-12.55,0.02-18.86,0.73c1.15,0,2.31,0,3.46,0c10.47,8.18,22.41,13.71,34.47,19.04c1.08,0.48,2.32,0.69,2.99,1.83
		C112.1,49.85,111.85,51.05,111.6,52.26z"/>
	<path class="st35" d="M112.36,48.64C99.6,44.26,87.91,37.78,76.68,30.42c-0.97-0.63-1.25-1.72-1.78-2.65
		c4.45-0.81,7.97,1.13,11.52,3.54c7.6,5.16,15.67,9.47,24.34,12.62C113.07,44.78,113.93,46.36,112.36,48.64z"/>
	<path class="st36" d="M111.61,22.66c0.59,0.29,1.18,0.57,1.77,0.86c-4.8,1.36-9.7,2.06-14.69,2.15c-0.72-0.45-1.45-0.9-2.17-1.35
		C101.39,22.35,106.36,21.22,111.61,22.66z"/>
	<path class="st37" d="M111.61,22.66c-5.03,0.55-10.06,1.1-15.09,1.65c-1.21-0.04-2.42-0.09-3.62-0.13
		c0.63-2.86-3.45-3.65-2.86-6.49c8.2-0.5,16.17,0.51,23.8,3.86C113.44,22.55,112.06,21.75,111.61,22.66z"/>
</g>
</svg>
