<?xml version="1.0" encoding="utf-8"?>
<!-- Generator: Adobe Illustrator 23.0.2, SVG Export Plug-In . SVG Version: 6.00 Build 0)  -->
<svg version="1.1" id="Camada_1" xmlns="http://www.w3.org/2000/svg" xmlns:xlink="http://www.w3.org/1999/xlink" x="0px" y="0px"
	 viewBox="0 0 163.57 107.41" style="enable-background:new 0 0 163.57 107.41;" xml:space="preserve">
<style type="text/css">
	.st0{fill:#010002;}
	.st1{fill:#272F50;}
	.st2{fill:#2D3557;}
	.st3{fill:#313961;}
	.st4{fill:#404A7C;}
	.st5{fill:#3F4977;}
	.st6{fill:#1D2343;}
	.st7{fill:#4E5990;}
	.st8{fill:#968CB5;}
	.st9{fill:#988DB7;}
	.st10{fill:#978CB6;}
	.st11{fill:#BCAFD1;}
	.st12{fill:#968BB5;}
	.st13{fill:#242B4E;}
	.st14{fill:#FAFAFA;}
	.st15{fill:#9E93BE;}
	.st16{fill:#CCC0DD;}
	.st17{fill:#E0D3E9;}
	.st18{fill:#282B48;}
	.st19{fill:#C0B3D3;}
	.st20{fill:#E8EAF5;}
	.st21{fill:#1F2747;}
	.st22{fill:#1F2647;}
	.st23{fill:#282E4E;}
	.st24{fill:#1C2443;}
	.st25{fill:#FEFEFE;}
	.st26{fill:#F8F7FA;}
	.st27{fill:#444F84;}
	.st28{fill:#020103;}
	.st29{fill:#424D86;}
	.st30{fill:#353F73;}
	.st31{fill:#5D1313;}
	.st32{fill:#C0B3D4;}
	.st33{fill:#C7BBD8;}
	.st34{fill:#CFC2DC;}
	.st35{fill:#2C355B;}
	.st36{fill:#E5EAF5;}
	.st37{fill:#9D94BD;}
	.st38{fill:#410F0A;}
	.st39{fill:#E1D2E6;}
	.st40{fill:#F2E6F0;}
	.st41{fill:#363F71;}
	.st42{fill:#47528B;}
	.st43{fill:#8B512D;}
	.st44{fill:#774528;}
	.st45{fill:#501810;}
</style>
<g>
	<path class="st0" d="M134.06,55.19c5.97,1.43,11.6,3.15,16.59,6.77c8.24,5.98,7.66,16.16,0.81,22.01
		c-8.25,7.04-18.31,10.44-28.58,12.86c-27.4,6.47-55.02,7.18-82.6,1.27C28.21,95.51,17.61,89.74,9.5,80.11
		c-5.44-6.45-4.38-13.01,2.76-17.57c6.27-4.01,13.47-5.56,20.54-7.36c3.83-0.97,9.22-0.57,11.03-3.25
		c1.64-2.42-1.93-6.84-3.08-10.43c-1.93-6.04-4.24-11.96-5.49-18.21c-1.01-5.02,0.58-7.95,5.48-9.76
		c10.22-3.76,20.96-4.68,31.69-5.67c14.14-1.31,28.15-0.21,42.13,1.82c5.36,0.78,9.84,3.62,14.36,6.32c0.78,0.47,1.25,1.3,2.49,0.86
		c3.24-1.15,6.87-1.99,9.53,0.58c3.62,3.49,6.3,7.63,6.71,13.08c0.73,9.75-4.44,16.27-11.17,22.12c-0.72,0.62-1.47,1.21-2.2,1.83
		C134.21,54.55,134.21,54.7,134.06,55.19z"/>
	<path class="st1" d="M20.2,64.07c5.59-3.21,11.92-4.08,18.02-5.64c2.54-0.65,5.12-1.2,7.72-1.5c4.63-0.54,4.93-0.92,3.36-5.17
		c-1.95-5.27-3.94-10.53-5.73-15.86c-1.44-4.3-2.45-8.75-3.93-13.04c-0.91-2.61,0.25-3.91,2.32-4.72
		c10.37-4.04,21.23-5.4,32.26-5.79c-0.68,1.91-2.32,0.61-3.44,1.05c2.93,0.06,5.84-0.65,8.78-0.37c1.08,0.1,2.55-0.35,2.62,1.54
		c-1.47,1.18-3.29,1.46-5.01,1.47c-5.22,0.02-10.34,0.77-15.46,1.55c-3.18-0.37-6.15,0.67-9.17,1.35c-1.05,0.11-2.11,0.17-3.12,0.54
		c-1.83,0.91-4.37,0.29-5.53,2.58c-0.07,1.1,1.43,1.7,0.95,2.94c-0.47,1.72,0.1,3.32,0.61,4.9c3.46,10.92,7.66,21.58,11.71,32.29
		c1.02,2.7,3.24,4.02,5.64,5.16c1.26,0.6,2.83,0.66,3.65,2.06c-0.4,1.05-0.15,2.37-1.31,3.1c-1.91,0.47-3.54-0.36-5.11-1.19
		c-4.54-2.39-8.88-0.72-13.16,0.69c-1.74,0.57-1.68,1.9-0.23,2.94c1.48,1.07,3.25,1.47,4.99,1.91c7,1.77,14.14,2.18,21.33,2.24
		c0.42,0.04,0.82,0.12,1.23,0.23c6.54,0.74,13.11,0.09,19.65,0.36c1.69,0.07,4.56-0.63,4.61,1.31c0.05,1.84-2.88,1.86-4.71,2.05
		c-2.96,0.29-5.96-0.26-8.9,0.39c-12.06-0.49-24.2-0.11-36.05-3.11c-1.41-0.36-2.76-0.81-4.03-1.51c-2.52-1.38-4.05-3.32-3.8-6.37
		c0.25-2.91,2.29-4,4.69-4.78c1.6-0.52,3.24-0.89,4.85-1.36c1.2-0.35,3.4,0.14,2.77-2.23c-0.5-1.89-0.93-4.16-3.67-4.19
		c-0.96-0.01-1.9,0.23-2.84,0.44c-9.35,2.12-18.81,3.87-27.71,7.64c-0.46,0.19-0.94,0.16-1.41,0.03c-1.2-1.01-0.56-1.75,0.4-2.37
		C18.8,65.19,19.6,64.78,20.2,64.07z"/>
	<path class="st2" d="M20.2,64.07c0.14,2.07-2.89,1.63-2.86,3.61c-3.23,4.73-3.23,4.73-0.45,8.1c0.88,0.97,1.86,1.86,2.32,3.14
		c1.76,3.02,4.46,4.74,7.75,5.66c1.53,0.33,2.9,0.93,3.82,2.29c4.88,3.48,10.62,4.55,16.29,5.72c1.83,0.38,3.73,0.69,5.63,0.78
		c11.18,1.72,22.45,1.56,33.7,1.4c4.42-0.06,8.81-0.86,13.25-0.84c0.49,0,1.3,0.18,1.12-0.84c1.12-1.33,2.59-1.05,4.03-0.9
		c3.08,1.03,6.12,0.34,9.14-0.29c5.35-1.12,10.57-2.73,15.81-4.26c0.36-0.11,0.53-0.42,0.44-0.83c4.04-3.04,8.87-4.46,13.38-6.54
		c2.87-0.28,3.94-2.82,5.72-4.49c0.93-0.87,2.12-2.06,2.01,0.63c-1.55,3.58-4.42,5.92-7.69,7.7c-12.04,6.55-25.06,9.93-38.56,11.72
		c-12.39,1.64-24.85,1.87-37.28,1.37c-13.76-0.56-27.49-1.79-40-8.45c-4.88-2.6-9.42-5.68-13.27-9.73
		c-5.46-5.73-4.91-9.68,2.1-13.44C17.74,64.98,19,64.58,20.2,64.07z"/>
	<path class="st3" d="M121.77,56.24c-0.51,0.94-2.13,0.5-2.44,1.95c6.23,1.33,12.54,0.86,18.66,2.66c5.61,1.65,9.8,4.65,13.31,9.02
		c0.48,1,0.38,1.68-0.93,1.48c-0.86-0.13-1.52-0.73-2.08-1.35c-5.68-6.25-13.33-7.68-21.14-8.41c-2.98-0.27-5.93-0.7-8.91-0.94
		c-1.77-0.37-2.35-1.47-1.93-3.16c0.28-1.15,0.86-2.24,0.54-3.48c0.67-4.51,2.74-8.56,4.21-12.8c0.55-0.67,0.88-1.88,2.04-1.4
		c0.85,0.35,0.68,1.35,0.69,2.17c0.02,0.84-0.99,1.75,0.14,2.53c0.47,0.34,0.74,0.84,1.05,1.29c4.43-1.33,7.4-4.6,10.44-7.78
		c0.34-0.07,0.66,0,0.94,0.21c0.9,1.62-0.06,2.77-1.08,3.81c-2.86,2.91-5.8,5.73-9.63,7.38c-0.96,0.41-1.99,0.75-2.67,1.85
		c4.54-1.7,7.57-5.47,11.63-7.65c1.88,0.73,0.58,1.68,0.13,2.5c-2.06,3.69-5.23,6.1-8.98,7.94
		C124.39,54.72,122.77,54.93,121.77,56.24z"/>
	<path class="st4" d="M82.14,14.45c-2.93-1.48-6.05-0.4-9.08-0.69c-1.26-0.12-2.55-0.02-4.29-0.02c1.97-1.34,4.04,0.04,5.46-1.38
		c11.94-0.62,23.86-0.19,35.68,1.49c4.86,0.69,9.85,1.76,13.94,4.96c-0.37,0.92-1.1,1.27-2.03,1.31
		c-11.66-4.22-23.88-4.14-36.02-4.61C84.5,15.44,83.15,15.54,82.14,14.45z"/>
	<path class="st5" d="M121.77,56.24c-0.18-1.02-0.2-1.07,0.26-1.2c3.13-0.93,5.97-2.45,8.35-4.63c1.91-1.76,3.47-3.88,4.2-6.47
		c0.62-2.48,2.31-4.27,3.98-6.07c2.75-3.2,2.8-7.84,0.13-11.83c-0.72-1.08-1.89-1.87-2.09-3.28c0.05-0.6,0.49-0.86,0.97-1.09
		c4.12,2.07,6.33,7.17,5.64,12.46c-0.6,4.61-2.75,8.38-5.8,11.69C133.05,50.53,127.94,54.19,121.77,56.24z"/>
	<path class="st6" d="M118.15,59.83c6.44,0.97,13.04,0.54,19.36,2.69c4.5,1.53,8.64,3.38,11.8,7.09c0.34,0.4,1.06,2.5,1.99,0.26
		c1.18,2.18,1,4.37,0.01,6.56c-0.25-1.43-0.8-1.25-1.38-0.21c-0.98,1.79-2.63,2.95-4,4.38c-0.62,0.64-1.33,1.07-1.94-0.06
		c0.28-1.88,2.04-2.56,3.09-3.8c2.23-2.65,2.26-4.03-0.04-6.5c-2.8-3.02-6.44-4.58-10.26-5.66c-3.8-1.08-7.7-1.77-11.7-1.68
		c-1.68,0.04-3.37,0.05-4.89-0.87C119.45,61.35,117.96,61.37,118.15,59.83z"/>
	<path class="st7" d="M137.58,21.66c-0.24,0.26-0.48,0.52-0.72,0.78c-0.75,1.03-1.88,1.3-3.02,1.57c-1.38,0.36-2.65,0.88-3.13,2.42
		c-0.35,0.81-0.96,1.29-1.82,1.48c-0.22,0.07-0.46,0.1-0.67,0.18c-3.32,1.25-3.32,1.25-3.17-2.34c0.09-0.47-0.61-0.02-0.13,0
		c0.09,0,0.08,0.11,0.06,0.34c-0.05,0.69,0.04,1.46-0.99,1.49c-0.84-1.42-1.87-2.57-3.64-2.75c-0.51-0.65-0.21-1.23,0.14-1.8
		c1.01-0.91,1.94-1.86,1.76-3.39c0.54-0.28,1.08-0.55,1.62-0.83c2.66,1.22,3.47,3.39,2.94,6.59
		C130.43,23.47,133.23,20.06,137.58,21.66z"/>
	<path class="st8" d="M66.45,69.85c-1.1-0.43-2.2-0.87-3.3-1.3c-3.47-1.35-5.91-3.47-7.33-7.21c-3.78-9.91-7.48-19.84-10.87-29.89
		c-0.61-1.8-1.04-3.66-1.54-5.5c-0.3-1.12,0.2-1.55,1.29-1.42c1.85-0.71,3.37,0.53,5.05,0.84c1.63,0.59,3.49,0.68,4.73,2.14
		c0.35,0.4,0.63,0.84,0.89,1.3c2.66,5.58,5.54,11.04,8.72,16.35c4.09,7.98,8.81,15.59,13.68,23.11c0.8,1.23,2.01,2.56,0.58,4.18
		c-2.96,1.25-5.6-0.83-8.45-0.81C68.54,71.43,67.01,71.56,66.45,69.85z"/>
	<path class="st9" d="M16.47,76.54c-3.93-3.9-3.76-5.7,0.87-8.86c9.88-4.45,20.5-6.2,30.93-8.72c3.08-0.74,4.41,0.11,5.27,2.83
		c0.49,1.55,1.15,3.05,1.73,4.57c-1.49,0.3-2.99,0.54-4.46,0.91c-1.97,0.5-3.91,1.09-5.85,1.69c-1.69,0.52-3.01,1.4-3.27,3.37
		c-0.28,2.14,0.51,3.75,2.26,4.91c3.39,2.25,7.3,2.88,11.21,3.47c9.6,1.46,19.32,1.15,28.96,2.07c2.75-0.63,5.53-0.14,8.29-0.28
		c1.11,2.66-1.46,2.15-2.38,2.32c-4.48,0.8-9,1.53-13.58,1.1c-8.1-0.76-16.26-0.93-24.26-2.79c-3.19-0.74-6.24-1.66-9.09-3.26
		c-5.68-3.21-6.47-7.33-2.18-12.38c-6.06-0.74-11.93-0.53-17.73,0.97c-4.42,1.14-4.95,1.82-5.64,6.75
		C17.46,75.85,17.09,76.32,16.47,76.54z"/>
	<path class="st10" d="M72.78,80c-7.46,0.23-14.83-0.53-22.09-2.24c-1.39-0.33-2.75-0.86-4.04-1.46c-1.41-0.66-2.97-1.41-2.65-3.38
		c0.29-1.79,2.04-1.74,3.31-2.3c6.39-2.83,12.33-0.94,18.21,1.69c3.91-0.07,7.48,1.1,10.87,2.94c0.64,1.75-0.75,2.28-1.83,2.93
		C73.78,78.63,72.76,78.79,72.78,80z"/>
	<path class="st11" d="M72.78,80c-0.03-0.58-1.82-0.88-0.19-1.75c1.33-0.71,2.95-1.03,3.83-2.46c0.93-1.17,2.18-0.99,3.43-0.85
		c3.92,0.84,7.73-0.47,11.59-0.68c6.68-0.49,13.09-1.94,18.97-5.28c0.73-0.41,1.54-0.59,2.39-0.57c1.81,0.23,3.5,0.83,5.07,1.73
		c1.17,0.67,2.24,1.5,2.22,3.03c-0.02,1.67-1.14,2.58-2.51,3.19c-1.54,0.69-3.19,1.06-4.84,1.39c-13,2.59-26.13,3.06-39.32,2.29
		l-0.32,0.03L72.78,80z"/>
	<path class="st12" d="M73.42,80.04c11.46,0.53,22.8-0.77,34.12-2.28c3.28-0.44,6.49-1.42,9.72-2.2c1.1-0.27,1.96-0.99,2.2-2.13
		c0.28-1.35-0.77-1.92-1.78-2.32c-1.76-0.71-3.56-1.32-5.34-1.97c0.06-1.64,1.32-1.92,2.49-1.89c4.43,0.09,8.77,0.78,12.74,2.91
		c1.25,0.67,2.61,1.4,2.54,3.12c-0.07,1.67-1.38,2.42-2.68,3.05c-1.82,0.88-3.66,1.72-5.64,2.17c-0.94,0.21-2.04,0.13-0.75,1.44
		c-6.1,2.44-12.42,3.94-18.99,3.94c-3,0-6.18,0.9-9.02-0.96c-2.97-0.04-5.94-0.07-8.91-0.11c4.16-1.18,8.56,0.05,12.71-1.27
		c0.41-0.13,0.85-0.18,1.23-0.94c-6.82,0-13.64,0.03-20.45-0.02C76.2,80.55,74.73,80.86,73.42,80.04z"/>
	<path class="st13" d="M121.02,79.28c-0.56-0.12-1.12-0.23-2.15-0.45c3.16-1.28,5.91-2.35,8.61-3.52c0.94-0.41,2.21-0.8,2.18-2.08
		c-0.02-1.23-1.27-1.63-2.18-2.12c-3.95-2.15-8.31-2.69-12.68-3.18c-1.02-0.12-1.74,0.63-2.48,1.21c-6.47,3.31-13.11,6-20.56,5.87
		c-4,0.21-7.99,0.64-12,0.71c-1.12,0.02-2.24,0.03-3.36,0.05c-3.54-1.46-7.46-1.73-10.9-3.48c0.37-0.79-1.12-2.29,0.93-2.45
		c0.99,1,2.32,0.56,3.47,0.83c1.2,0.21,1.91,1.36,3.01,1.65c2.44,0.64,4.96,1.61,7.28-0.42c0.91-0.06,1.8,0.03,2.69,0.21
		c2.34,0.54,4.66,0.78,6.96-0.2c4.86-1.49,9.97-1.89,14.85-3.28c6.35-0.58,8.1-5.43,9.65-10.45c0.59-1.7,1.01-3.53,3.08-4.12
		c1.4,1.11,0.25,2.14-0.15,3.14c-0.47,1.17-1.1,2.29,0.86,2.62c0.71,0.45,1.41,0.9,2.12,1.34c-0.09,0.13-0.19,0.27-0.28,0.4
		c-0.75,0.55-1.72,0.74-2.36,1.49c-1.49,1.76-0.69,2.4,1.22,2.5c3.79,0.59,7.43,1.69,10.68,3.74c3.77,2.37,3.87,5.43,0.07,7.76
		C127.06,78.62,124.36,80.42,121.02,79.28z"/>
	<path class="st14" d="M122.24,19.63c3.39,2.53-0.18,2.5-1.25,3.4c-1.82,1.49-3.58,0.65-5.35-0.13c-3.51-1.54-7.1-2.78-10.95-3.12
		c-5.05-0.71-10.13-1.19-15.19-1.8c-5.4-0.66-10.87,0.35-16.29,0.7c-2.94,0.19-5.88,0.81-8.83,1.07c-2.19,0.1-3.4-0.78-3.12-3.14
		c6.87-1.57,13.91-1.44,20.87-2.17c8.71,0.04,17.4,0.3,26.06,1.28C113.1,16.28,117.81,17.42,122.24,19.63z"/>
	<path class="st15" d="M43.49,22.24c-0.6-0.72-1.46-1.5,0.18-1.99c1.77-0.53,3.56-1,5.34-1.5c1.54,0.66,3.57,0.62,3.99,2.84
		c-0.21,1.4-1.39,1.97-2.34,2.74C47.76,25.39,45.51,24.2,43.49,22.24z"/>
	<path class="st16" d="M52.64,21.7c-0.49-1.88-3.15-1.07-3.64-2.94c0.97-0.22,1.94-0.44,2.91-0.66c2.08,1.05,3.8-0.82,5.77-0.72
		c0.71,0.03,1.5-0.01,1.94,0.62c0.51,0.73-0.22,0.89-0.69,1.23c-0.33,0.24,0.53,0.31,0.31,0.71C57.33,21.57,55.2,22.45,52.64,21.7z"
		/>
	<path class="st17" d="M59.34,19.63c-1.1-2.14-2.75-1.58-4.51-1.03c-0.97,0.3-2.09,0.46-2.92-0.51c3.11-0.56,6.1-1.81,9.35-1.48
		c1.23,0.25,0.68,2.32,2.26,2.22C62.5,20.99,60.95,20.5,59.34,19.63z"/>
	<path class="st18" d="M43.49,22.24c2.3,0.45,4.28,2.26,6.84,1.56c1.05,0.12,2.43-0.25,2.34,1.57c-0.95,0.67-2.01,0.88-3.15,0.74
		c-1.7-0.24-3.32-0.74-4.82-1.59C44.65,23.58,42.24,23.88,43.49,22.24z"/>
	<path class="st19" d="M121.02,79.28c2.7-0.57,5.36-1.32,7.78-2.68c3.67-2.07,3.73-4.49,0.17-6.66c-3.33-2.04-7.13-2.73-10.82-3.73
		c-1.84-2.52,0.24-3.08,1.92-3.86c6.44,0.31,12.83,0.98,19.01,2.97c2.86,0.92,5.61,2.02,7.81,4.18c2.94,2.89,2.94,5.37-0.22,8.15
		c-3.26,2.88-7.19,4.73-11.16,6.34c-6.61,2.69-13.21,5.48-20.35,6.59c-0.34,0.05,0.56,0.39,0.21,0.78
		c-3.21,1.71-6.68,1.72-10.17,1.62c-1.55-0.03-3.11-0.17-4.56,0.55c-0.52,0.57-1.2,0.75-1.94,0.81
		c-11.12,0.85-22.26,1.09-33.39,0.62c-4.15-0.18-8.34-0.54-12.49-0.95c-6.63-1.39-13.37-2.4-19.61-5.27
		c-0.99-0.46-1.98-0.81-2.66-1.71c-1.28-0.67-2.56-1.34-3.84-2.02c-3.18-1.17-5.89-2.98-7.87-5.78c-0.79-0.9-1.58-1.79-2.36-2.69
		c0.13-0.56,0.46-1.17,0.35-1.69c-0.79-3.74,0.01-5.23,3.6-6.57c7.45-2.78,15.14-2.31,22.87-1.8c0.17,1.25-0.98,1.23-1.55,1.71
		c-4.07,3.38-3.62,7.5,0.95,10.44c4.81,3.09,10.3,3.74,15.69,4.51c11.09,1.59,22.23,2.97,33.39,0.38c0.44-0.1,0.84-0.4,1.26-0.61
		C102.59,83.46,111.9,82.11,121.02,79.28z"/>
	<path class="st20" d="M115.42,90.9c-2.03-0.87-0.22-0.88,0.26-1.03c6.82-2.19,13.81-3.9,20.33-6.93c3.24-1.51,6.43-3.2,9.41-5.16
		c4.1-2.7,3.94-6.45-0.28-9.09c-4.45-2.78-9.72-3.08-14.61-4.55c-3.58-1.07-7.41,0-10.93-1.45c-0.37-0.8,0.21-1.05,0.77-1.31
		c0,0-0.09-0.2-0.09-0.2c3.83,1.6,7.94,0.5,11.89,1.31c5.56,1.14,10.89,2.61,15.09,6.69c3.45,3.35,3.43,5.17-0.04,8.64
		c-0.99,0.99-2.14,1.82-3.21,2.72c-4.33,2.75-9.19,4.39-13.8,6.54C125.52,89.37,120.78,91.34,115.42,90.9z"/>
	<path class="st21" d="M51.9,93.75c4.68-0.66,9.3,0.25,13.94,0.54c11.62,0.73,23.2-0.19,34.79-0.76c0.8,0.12,1.61,0.24,2.41,0.35
		C86,96.46,68.96,96.43,51.9,94.38c-0.25-0.14-0.33-0.28-0.25-0.42C51.73,93.82,51.82,93.75,51.9,93.75z"/>
	<path class="st22" d="M115.42,90.9c5.09-0.62,9.83-2.61,14.77-3.83c0.28,0.27,1.66,0.45,0.67,0.81
		c-8.01,2.94-16.08,5.78-24.79,5.66c-0.29,0-0.58-0.37-0.87-0.56C108.52,91.9,112.17,92.38,115.42,90.9z"/>
	<path class="st23" d="M51.9,93.75c0,0.21,0,0.42,0,0.63c-6.43-1.07-12.85-2.2-18.84-4.96c-1.75-0.8-1.77-0.75-2.51-2.39
		c5.98,2.43,12.04,4.56,18.46,5.51C50.07,92.69,51.1,92.95,51.9,93.75z"/>
	<path class="st24" d="M18.84,79.23c2.62,1.93,5.25,3.85,7.87,5.78C23.88,85.15,19.7,82.08,18.84,79.23z"/>
	<path class="st25" d="M117.43,54.07c-0.75,1.43-1.5,2.86-2.24,4.29c-1.63,0.04-1.98-1.32-2.62-2.37c-0.53-1.69,0.17-3.24,0.58-4.81
		c0.7-2.16-0.25-3.42-2.22-4.17c-9.66-3.71-18.55-8.87-27.12-14.6c-2.62-1.75-5.56-1.01-8.4-1.08c-1.19-0.09-2.41-0.06-3.43-1.4
		c1.11-1.56,2.81-1.28,4.35-1.33c6.31-0.22,12.64,0.39,18.94-0.36c1.6-0.38,3.27-0.38,4.85-0.89c4.68-0.25,9.3-0.92,13.88-1.89
		c1.99-0.18,3.86-1.43,5.95-0.65c2.17-0.4,4.91-1.66,4.01,2.62c1.17,4.86-0.29,9.31-2.14,13.69
		C120.35,45.43,118.89,49.75,117.43,54.07z"/>
	<path class="st26" d="M128.9,27.27c0.75-0.11,1.28-0.55,1.68-1.18c1.61-2.46,3.95-2.62,6.52-2.05c4,3.74,4.76,9.56,1.81,13.98
		c-1.44,1.97-2.88,3.94-4.32,5.91c-4.01,3.55-8.16,6.91-13.35,9.41c0.37-2.34,0.97-3.74,3.38-4.48c4.18-1.29,7.46-4.14,10.26-7.47
		c0.74-0.88,1.7-1.77,1.2-3.16c-0.63-1.58,0.06-3.26-0.45-4.9c-1.11-3.53-2.57-4.2-5.73-2.38c-1.11,0.64-2.04,1.66-3.46,1.7
		C125.11,29.97,125.48,29.16,128.9,27.27z"/>
	<path class="st27" d="M128.9,27.27c-1.4,1.38-3.43,2.49-2.2,5.02c1.44-0.01,2.28-1.17,3.4-1.79c2.94-1.63,5.05-0.71,5.77,2.57
		c0.38,1.75,0.59,3.52-0.43,5.16c-1.91,4.81-6.6,6.48-10.45,9.02c-0.96,0.64-0.33-0.6-0.33-1.01c0.65-2.75,3.24-3.64,5.08-5.22
		c1.77-1.52,3.34-3.08,3.3-5.6c-0.03-1.89-0.66-2.8-2.59-1.52c-2.27,1.51-3.79,3.47-4.4,6.21c-0.36,1.64-0.17,3.68-2.2,4.56
		c-0.43,0.39-0.86,0.79-1.56,1.42c-0.55-1.92,0.86-3.29,0.82-4.81c-0.06-2.21-0.87-0.07-1.3-0.18c0.71-4.56,1.42-9.13,2.14-13.69
		c1.11-0.67,0.26-2.07,1.26-3.11c0.09,1.47,0.17,2.7,0.24,3.87C126.92,28.7,127.31,25.89,128.9,27.27z"/>
	<path class="st28" d="M123.85,44.68c0.41-1.36,1.03-2.7,1.2-4.09c0.42-3.34,2.2-5.7,4.92-7.46c0.93-0.6,1.76-1.92,3.09-1.01
		c1.09,0.75,1,2.05,1.07,3.25c0.14,2.4-1.18,4.08-2.81,5.51c-2.15,1.87-4.43,3.58-6.65,5.36C123.91,45.97,123.92,45.3,123.85,44.68z
		"/>
	<path class="st29" d="M135.43,38.24c0-1.31-0.05-2.62,0-3.93c0.07-1.53-0.23-2.87-1.67-3.66c-1.5-0.82-2.71,0.11-4,0.7
		c-0.96,0.44-1.43,2.69-3.06,0.94c0.64-0.5,1.26-1.05,1.93-1.5c1.99-1.35,4.03-2.81,6.42-0.84c2.02,1.67,2.47,5.66,1.03,8.28
		c0,0-0.32-0.01-0.32-0.01S135.43,38.24,135.43,38.24z"/>
	<path class="st30" d="M138.91,38.02c1.16-4.82,2.17-9.63-2.08-13.63c-1-0.92-3.03,1.01-3.54-1.27c1.19-0.23,2.38-0.46,3.57-0.68
		c3.52,3.69,5.77,7.79,4.31,13.13C140.69,37.32,140.59,37.55,138.91,38.02z"/>
	<path class="st31" d="M119.94,24.79c-1.63,0.66-3.29,1.19-5.07,1.26c-0.8,0.29-1.58,0.46-2.02-0.55c0.11-1.33,0.79-1.49,2.63-0.76
		c-8.3-2.58-15.94-4.1-23.89-3.52c-2.3-0.02-4.49,0.58-6.68,1.17c-1.24,0.33-2.51,0.94-3.76-0.03c-0.79-1.58-0.47-2.9,0.93-3.97
		c2.97-1.07,5.89-1.03,9.06-0.58c4.62,0.67,9.29,1.41,14.02,0.97c3.37,0.34,6.58,1.29,9.62,2.73c1.99,0.94,4.01,1.54,6.21,1.52
		C120.64,23.62,120.29,24.2,119.94,24.79z"/>
	<path class="st5" d="M133.28,23.12c0.86,1.31,2.64,0.07,3.54,1.27c-2.35-0.42-4.31,0.59-6.25,1.7
		C130.51,24.48,130.51,24.48,133.28,23.12z"/>
	<path class="st32" d="M82.88,72.87c-0.9-0.05-1.8-0.11-2.71-0.16c-0.51-0.32-1.19-0.18-1.64-0.63c-1.89-5.07-5.4-9.2-8.1-13.79
		c-2.49-4.22-4.79-8.51-7.04-12.84c0.07-4.48,0.93-5.03,4.72-2.63c10.21,6.47,21.16,11.51,32.05,16.67c2.26,1.07,4.56,2.1,7.11,2.33
		c1.2,0.11,2.43,0.29,2.75,1.8c0.01,3.17-3.62,3.38-4.66,5.71c-4.89,2.09-10.32,1.84-15.31,3.52
		C87.66,73.33,85.27,73.27,82.88,72.87z"/>
	<path class="st33" d="M109.52,64.17c-0.11-0.61-0.28-1.28-0.96-1.35c-8.09-0.84-14.81-5.2-21.76-8.75
		c-7.39-3.77-15.11-7.03-21.64-12.14c-1.7,0.86-0.39,2.79-1.76,3.5c-3.36-5.28-6.37-10.74-8.71-16.55c2.54-1.34,4.78-0.39,6.55,1.33
		c13.68,13.29,31.05,20.14,48.04,27.66c0.87,0.38,1.88,0.45,2.57,1.22C111.91,61.17,112.18,63.35,109.52,64.17z"/>
	<path class="st34" d="M111.63,59.11c-4.91-0.36-9.04-2.95-13.29-4.97c-10.03-4.75-20.12-9.45-29.23-15.89
		c-2.2-1.56-4.34-3.3-6.16-5.28c-2.28-2.5-4.8-4.14-8.26-4.09c-0.21-0.29-0.42-0.58-0.62-0.88c2.31-1.47,4.62-0.8,6.93-0.04
		c5.39,0.38,9.23,3.54,13.39,6.67c10.74,8.08,23.07,13.39,35.31,18.77c1.36,0.6,3.19,0.67,3.09,2.85
		C113.17,57.52,112.97,58.55,111.63,59.11z"/>
	<path class="st35" d="M61.3,28.95c-2.27-1.42-4.81-0.7-7.23-0.94c-1.14-1.54-3.23-0.78-4.54-1.89c0.96-0.54,1.95-0.96,3.09-0.86
		c2.68-1.61,5.35,0.02,8.03-0.01c4,0.94,8.06,0.06,12.08,0.42c2.87,0.92,6.13-0.07,8.81,1.79c-0.44,1.89-2.02,1.37-3.19,1.36
		c-4.63-0.03-9.25,0.49-13.87,0.19C63.41,29.26,62.35,29.36,61.3,28.95z"/>
	<path class="st1" d="M78.53,72.08c0.55,0.21,1.09,0.42,1.64,0.63c-4.03,2.4-7.38,1.4-10.25-2.03
		C72.84,70.85,75.56,72.26,78.53,72.08z"/>
	<path class="st1" d="M79.77,75.73c3.94-1.25,7.98-0.75,12-0.71C87.78,75.45,83.84,76.63,79.77,75.73z"/>
	<path class="st36" d="M111.63,59.11c0.52-0.89,0.84-1.83,0.76-2.87c0.23-0.35,0.46-0.37,0.71-0.02c1.11,0.3,1.25,1.56,2.09,2.14
		c-0.53,2.86-1.96,5.38-3.27,7.9c-1.32,2.55-4.25,2.3-6.57,3.07c-0.28-0.3-1.74,0.1-0.51-1.08c1.5-1.43,3.68-2.07,4.67-4.06
		C111.2,62.89,110.66,60.68,111.63,59.11z"/>
	<path class="st37" d="M120.36,61.38c-0.26,0.44-0.51,0.88-0.77,1.31c-0.23,1.27-2.53,1.7-1.44,3.51c-1.08,0-2.86,0.55-2.36-1.38
		C116.33,62.74,117.15,60.28,120.36,61.38z"/>
	<path class="st1" d="M82.88,72.87c2.39-0.01,4.78-0.02,7.16-0.03C87.66,73.92,85.27,73.87,82.88,72.87z"/>
	<path class="st38" d="M60.49,26c-2.68,0.38-5.23-0.68-7.87-0.74c-0.76-0.48-1.52-0.97-2.29-1.45c0.77-0.7,1.54-1.41,2.31-2.11
		c2.23-0.69,4.47-1.37,6.7-2.06c1.42-0.14,2.89-0.01,4.18-0.81c5.45-0.52,10.9-1.11,16.34-1.65c6.82-0.68,13.49,0.43,20.21,0.73
		c1.64,0.07,3.31,0.95,5.08,0.86c-1.32,1.28-2.91,0.65-4.39,0.56c-6.21-0.41-12.37-2.12-18.64-0.55c-1.34,1-2.9,0.93-4.46,0.98
		c-4.17,0.14-7.75,2.27-11.47,3.74c-1.72,0.68-2.29,3.75-5.08,2.79C60.91,26.22,60.69,26.14,60.49,26z"/>
	<path class="st39" d="M113.1,56.22c-0.24,0-0.47,0.01-0.71,0.02c-0.1-0.79-0.51-1.16-1.3-1.46c-12.46-4.8-24.36-10.74-35.56-18.04
		c-2.01-1.31-4.07-2.6-5.5-4.54c-2.25-3.04-5.91-1.96-8.74-3.24c0.96-0.11,1.92-0.23,2.89-0.34c9.1,0.27,18.16-0.77,27.25-0.76
		c1.53,0,3.16-0.3,4.4,1.02c-1.18,1.2-2.69,0.69-4.05,0.71c-6.27,0.06-12.55,0.02-18.86,0.73c1.15,0,2.31,0,3.46,0
		c10.5,8.38,22.47,14.12,34.76,19.26c0.99,0.41,2.1,0.57,2.7,1.61C113.59,52.86,113.34,54.54,113.1,56.22z"/>
	<path class="st40" d="M113.83,51.18c-9.38-2.62-17.77-7.39-26.16-12.14c-3.21-1.82-6.43-3.61-9.33-5.93
		c-0.95-0.76-1.92-1.43-1.98-2.8c4.45-0.81,7.98,1.13,11.52,3.54c7.6,5.17,15.68,9.47,24.34,12.63
		C114.54,47.32,115.41,48.89,113.83,51.18z"/>
	<path class="st41" d="M95.83,28.87c-10.55-0.09-21.1-0.17-31.64-0.26c4.35-1.14,8.78-0.13,13.16-0.49c1.38-0.11,2.9,0.54,4.08-0.72
		c1.48-1.38,3.34-1.02,5.08-1.03c2.5-0.02,4.98-0.11,7.44-0.56c1.26-0.12,2.51-0.11,3.75,0.19c1.02,0.51,2.56,0.44,2.47,2.2
		C98.72,28.43,97.27,28.65,95.83,28.87z"/>
	<path class="st42" d="M100.16,28.2c-0.72-0.45-1.45-0.9-2.17-1.35c4.88-1.97,9.85-3.09,15.1-1.66c0.59,0.29,1.18,0.57,1.78,0.86
		C110.06,27.42,105.16,28.11,100.16,28.2z"/>
	<path class="st43" d="M113.09,25.19c-5.03,0.55-10.07,1.11-15.1,1.66c-1.21-0.04-2.42-0.09-3.63-0.13
		c-1.21-2.05-3.88-3.46-2.86-6.5c8.2-0.49,16.16,0.51,23.8,3.86C114.92,25.08,113.53,24.28,113.09,25.19z"/>
	<path class="st44" d="M91.5,20.22c-0.12,2.64,3.25,3.74,2.86,6.5c-4.26,1.2-8.63,0.4-12.94,0.69c-2.93,0.03-5.84-0.11-8.73-0.68
		c1.91-3.45,5.34-3.87,8.72-4.39C84.78,21.64,87.94,19.96,91.5,20.22z"/>
	<path class="st45" d="M81.42,22.34c-2.71,1.86-6.19,2.17-8.72,4.39c-4.07-0.3-8.21,0.71-12.21-0.73c1.63-0.1,3.69,0.6,3.64-2.34
		c-0.01-0.48,1.15-1.23,1.89-1.44c5.29-1.5,10.27-4.5,16.11-3.45C81.47,19.88,81.34,21.09,81.42,22.34z"/>
</g>
</svg>
