<?xml version="1.0" encoding="utf-8"?>
<!-- Generator: Adobe Illustrator 23.0.2, SVG Export Plug-In . SVG Version: 6.00 Build 0)  -->
<svg version="1.1" id="Camada_1" xmlns="http://www.w3.org/2000/svg" xmlns:xlink="http://www.w3.org/1999/xlink" x="0px" y="0px"
	 viewBox="0 0 26.88 41.76" style="enable-background:new 0 0 26.88 41.76;" xml:space="preserve">
<style type="text/css">
	.st0{fill:#010000;}
	.st1{fill:#562316;}
	.st2{fill:#37332F;}
	.st3{fill:#592417;}
	.st4{fill:#B13A27;}
	.st5{fill:#B03D18;}
	.st6{fill:#E5AE4E;}
	.st7{fill:#F9F4EF;}
	.st8{fill:#E6AC4D;}
	.st9{fill:#CA7734;}
	.st10{fill:#FAF4F0;}
	.st11{fill:#B13A26;}
	.st12{fill:#708A76;}
	.st13{fill:#48524A;}
	.st14{fill:#B23A26;}
	.st15{fill:#E2AA4C;}
	.st16{fill:#F1F3F2;}
	.st17{fill:#582216;}
	.st18{fill:#562416;}
	.st19{fill:#C45124;}
	.st20{fill:#E0A74B;}
	.st21{fill:#C87236;}
	.st22{fill:#C37C3A;}
	.st23{fill:#F9F1ED;}
	.st24{fill:#EED0C2;}
</style>
<g>
	<path class="st0" d="M18.17,8.74c0.14,0.34,0.29,0.61,0.65,0.64c3.99,0.36,5.61,3.14,6.72,6.5c0.55,1.65,0.44,3.24-0.27,4.74
		c-2.22,4.7-3.74,9.71-6.19,14.31c-0.84,1.57-1.62,3.17-3.18,4.25c-3.97,2.75-7.48,1.3-10.84-0.76c-0.47-0.29-0.64-0.8-0.66-1.35
		c-0.16-4.82-1.76-9.39-2.44-14.12c-0.56-3.92-0.41-7.81,2.72-10.91c1.13-1.12,2.62-1.48,3.95-2.16c0.35-0.18,0.66-0.27,0.6-0.83
		c-0.56-4.88,1.19-6.23,4.23-7.02c1.94-0.5,3.74-0.16,5.46,0.56c1.16,0.48,1.53,1.63,1.44,2.91C20.26,7.03,19.97,8.38,18.17,8.74z"
		/>
	<path class="st1" d="M17.66,10.56c4.16,0.14,7.45,3.55,7.07,7.55c-0.16,1.66-1.04,3.16-1.7,4.7c-1.41,3.34-2.79,6.69-4.21,10.03
		c-0.68,1.58-1.43,3.2-2.61,4.41c-1.53,1.56-3.37,2.69-5.82,2.04c-1.31-0.34-2.58-0.67-3.82-1.27c-1.11-0.55-1.06-1.49-1.09-2.3
		c-0.16-3.94-1.37-7.66-2.12-11.48c-0.52-2.63-0.64-5.28,0.1-7.9c0.46,0.03,0.67,0.29,0.69,0.73c-0.02,0.37-0.15,0.72-0.24,1.09
		c-0.19,0.8-0.17,1.6,0.05,2.39c0.41,3.5,1.48,6.86,2.1,10.31c0.08,0.44,0.14,0.87,0.14,1.3c0,1.23,0.26,2.43,0.34,3.65
		c0.09,0.29,0.21,0.57,0.38,0.82c2.1,1.42,4.37,1.84,6.82,1.11c0.78-0.23,1.24-0.83,1.68-1.47c1.73-2.52,2.9-5.33,4.06-8.13
		c0.92-2.21,1.85-4.42,2.91-6.57c0.91-1.84,1.1-3.72,0.82-5.69c-0.09-0.2-0.18-0.41-0.26-0.61c-0.21-0.55-0.53-1.02-0.94-1.45
		c-0.64-0.61-1.34-1.13-2.18-1.6c0.07,0.25,0.19,0.36,0.26,0.5c0.12,0.21,0.22,0.42,0.28,0.65c0.06,0.24,0.06,0.49-0.18,0.63
		c-0.23,0.13-0.49,0.06-0.66-0.11c-0.82-0.8-1.86-1.3-2.73-2.03C16.81,11.26,17.19,10.88,17.66,10.56z"/>
	<path class="st2" d="M17.66,10.56c0.02,0.57-0.55,0.79-0.75,1.24c-0.21,0.24-0.49,0.35-0.78,0.44c-0.24,0.07-0.48,0.1-0.73,0.11
		c-0.55,0.01-1.1,0.03-1.65-0.07c-0.28-0.07-0.56-0.15-0.84-0.23c-0.33-0.09-0.6-0.29-0.89-0.46c-0.1-0.05-0.18-0.12-0.27-0.18
		c-0.33-0.3-0.62-0.61-0.63-1.09c-1.25-1.56-1.04-3.27-0.44-4.97c0.47-1.35,3.2-2.63,4.83-2.38c0.47,0.07,0.94,0.13,1.41,0.22
		c2.08,0.42,2.43,0.92,2.16,3.05c-0.08,0.64-0.34,1.08-1.03,1.3c-1.31,0.43-1.52,1.28-0.7,2.39C17.49,10.12,17.56,10.35,17.66,10.56
		z"/>
	<path class="st3" d="M11.12,10.32c0.26,0.32,0.51,0.65,0.77,0.97c-0.05,0.27-0.24,0.42-0.48,0.48c-1.06,0.23-1.67,1-2.26,1.82
		c-0.23,0.2-0.46,0.5-0.8,0.35c-0.31-0.14-0.17-0.47-0.18-0.73c-0.89-0.12-1.44,0.44-1.98,0.98c-0.67,0.67-1.14,1.49-1.61,2.31
		c-0.15,0.25-0.18,0.64-0.61,0.6c0.03-0.39-0.35-0.5-0.51-0.77c0.56-2.02,1.75-3.54,3.66-4.45C8.42,11.27,9.7,10.61,11.12,10.32z"/>
	<path class="st4" d="M16.21,12.03c0.15-0.32,0.45-0.22,0.7-0.23c1.27,0.38,2.15,1.35,3.13,2.22c0.31-0.6-0.2-0.9-0.23-1.31
		c0.59-0.27,0.92,0.24,1.34,0.47c0.36,0.2,0.6,0.64,1.1,0.54c0.43,0.4,0.79,0.85,0.94,1.44c-0.12,0.15-0.32,0.29-0.16,0.49
		c0.09,0.12,0.29,0.03,0.44,0.01c0.29,1.57,0.46,3.16-0.23,4.66c-2.27,4.87-4.06,9.94-6.62,14.68c-1.11,2.05-2.46,3.67-5.05,3.41
		c-1.76-0.18-3.57-0.3-4.95-1.65c0.24-0.47,0.35-1.01,0.7-1.42c0.7-1.02,0.88-2.22,1.12-3.38c0.33-1.64,0.81-3.25,1.02-4.91
		c0.06-0.45,0.14-1,0.85-0.8c0.42,1.08,0.25,2.18,0.07,3.27c-0.27,1.72-0.58,3.43-1.03,5.12c-0.35,0.87,0.19,0.93,0.75,0.71
		c1.54-0.63,2.92-1.47,3.49-3.18c0.24-0.72,0.41-1.46,0.68-2.16c0.1-0.26,0.19-0.71,0.63-0.28c0.28,0.61-0.05,1.19-0.1,1.79
		c-0.01,0.09-0.03,0.15-0.01,0.19c0.02-0.02,0.04-0.04,0.07-0.08c2.5-4.36,5.01-8.7,6.34-13.6c0.11-0.42,0.34-0.82,0.16-1.27
		c-0.03-0.11-0.06-0.22-0.07-0.33c0.06-1.14-0.55-1.78-1.73-1.76c-0.63,0.01-1.27,0.14-1.9-0.03c-0.76-0.38-0.62-1.3-1.11-1.84
		C16.35,12.57,16.18,12.34,16.21,12.03z"/>
	<path class="st5" d="M7.32,35.56c-0.17,0.44-0.05,1.05-0.71,1.2c-0.08-0.24-0.17-0.47-0.25-0.71c-0.2-1.42-0.12-2.86-0.31-4.29
		c-0.22-2.43-0.8-4.78-1.32-7.16c-0.09-0.43-0.15-0.86-0.14-1.3c0.17-0.33-0.17-1.23,0.81-0.71c0.23,0.12,0.12-0.27,0.18-0.42
		c0.14-0.34-0.02-0.99,0.72-0.67c0.65,1.45,0.54,3.03,0.8,4.54c0.33,1.87,0.57,3.77,0.73,5.67C7.96,33.05,7.89,34.33,7.32,35.56z"/>
	<path class="st6" d="M4.9,23.12c-0.08,0.93,0.19,1.82,0.43,2.69c0.53,1.93,0.71,3.91,0.8,5.9c0.12,0.24,0.22,0.47-0.21,0.47
		c-0.3-2.97-1.29-5.8-1.79-8.73c-0.17-1.01-0.33-2.03-0.49-3.04c-0.01-0.13,0-0.25,0.04-0.37c0-1.05,0.21-2.06,0.68-2.99
		c0.18-0.34,0.29-0.87,0.9-0.6c0.3,0.59,0.07,1.18-0.07,1.75C4.8,19.82,4.89,21.47,4.9,23.12z"/>
	<path class="st7" d="M5.16,16.32c-1.07,1.08-0.9,2.61-1.43,3.89c-0.21-0.72-0.16-1.44-0.02-2.16c0.14-0.3-0.03-0.69,0.27-0.94
		c0.95-1.93,1.99-3.76,4.25-4.45c0.62-0.19,0.51-0.04,0.29,0.34C7.32,14.03,6.15,15.09,5.16,16.32z"/>
	<path class="st8" d="M22.25,13.73c-0.12,0.63-0.41,0.4-0.71,0.14c-0.53-0.45-1.04-0.94-1.73-1.15c-0.2-0.28-0.58-0.42-0.6-0.9
		C20.55,11.98,21.37,12.9,22.25,13.73z"/>
	<path class="st9" d="M5.92,32.18c0.07-0.16,0.14-0.31,0.21-0.47c0.5,1.42,0.1,2.89,0.22,4.34C5.93,34.79,6.02,33.48,5.92,32.18z"/>
	<path class="st10" d="M23.46,15.66c-0.13,0.43-0.4,0.6-0.81,0.4c-0.12-0.06-0.25-0.25-0.24-0.37c0.05-0.45,0.37-0.57,0.78-0.53
		C23.28,15.33,23.37,15.49,23.46,15.66z"/>
	<path class="st3" d="M3.7,18.04c-0.07,0.72-0.1,1.44,0.02,2.16c-0.05,0.06-0.07,0.13-0.08,0.2C3.4,19.61,3.32,18.82,3.7,18.04z"/>
	<path class="st11" d="M5.16,16.32c0.55-1.68,1.91-2.55,3.36-3.33c0.11,0.28-0.37,0.53-0.06,0.79c0.04,0.03,0.29-0.19,0.44-0.3
		c1.06-0.75,2.13-1.49,3.27-2.12c0.2,0.16,0.41,0.31,0.61,0.47c0.09,0.72-0.47,1.33-0.36,2.05c-2.23,0.34-3.17,1.81-3.46,3.89
		c-0.06,0.43-0.19,0.86-0.32,1.28c-0.12,0.38-0.2,0.92-0.67,0.87c-0.58-0.07-0.42-0.67-0.46-1.08c-0.04-0.52,0.11-1.03,0.2-1.54
		c0.05-0.27,0.17-0.54-0.09-1.01c-1.1,1.62-1.4,3.33-1.5,5.11c-0.41,0.39-0.17,0.89-0.24,1.33C5.84,22.98,6,23.36,5.63,23.43
		c-0.34,0.06-0.41-0.26-0.47-0.54c-0.02-0.09,0.07-0.38-0.19-0.21c-0.08,0.06-0.05,0.29-0.06,0.45c-0.61-1.88-0.33-3.75,0.07-5.63
		C5.06,17.11,5.1,16.71,5.16,16.32z"/>
	<path class="st12" d="M17.65,4.83c0.79,0.76,0.75,1.57-0.1,1.91c-1.53,0.61-1.79,1.13-1.43,2.76c0.04,0.19,0.04,0.39,0.06,0.59
		c-0.32,0.34-0.74,0.38-1.1,0.18c-1.13-0.63-2.05-1.57-2.17-2.83c-0.12-1.24,0.03-2.58,1.4-3.3c0.72,0.05,1.47-0.25,2.14,0.24
		C16.74,5.53,16.75,5.54,17.65,4.83z"/>
	<path class="st13" d="M14.3,4.14c-1.62,2.37-1.5,3.68,0.17,5.36c0.51,0.51,1.03,0.69,1.7,0.59c0.01,0.49-0.26,0.69-0.73,0.75
		c-1.39,0.19-3.3-0.81-3.87-2.06c-0.52-1.13,0.11-3.37,1.17-4.21C13.21,4.22,13.72,4.05,14.3,4.14z"/>
	<path class="st14" d="M13.57,12.05c0.63,0,1.25,0.01,1.88,0.01c1.22,0.46,1.31,1.71,1.85,2.65c0.03,0.18,0,0.35-0.12,0.5
		c-0.85,0.11-1.48-0.47-2.22-0.71c-0.77-0.24-1.58-0.48-2.25-0.99C12.63,12.82,12.95,12.35,13.57,12.05z"/>
	<path class="st15" d="M12.16,11.37c-0.89,1.01-1.98,1.72-3.27,2.12c0.67-1.18,1.66-1.91,2.99-2.2
		C11.98,11.32,12.07,11.34,12.16,11.37z"/>
	<path class="st16" d="M17.65,4.83c0.14,0.51-0.14,0.73-0.58,0.84c-0.3,0.08-0.56-0.04-0.75-0.24c-0.38-0.39-0.08-0.72,0.13-1.05
		C16.91,4.38,17.31,4.53,17.65,4.83z"/>
	<path class="st17" d="M13.57,12.05c-0.25,0.44-0.5,0.88-0.75,1.33c-0.05,0.26-0.23,0.34-0.47,0.32c-0.57-0.79,0.18-1.27,0.43-1.87
		C13.07,11.81,13.37,11.74,13.57,12.05z"/>
	<path class="st18" d="M17.14,14.69c-0.74-0.76-0.82-1.95-1.69-2.63c0.25-0.01,0.51-0.02,0.76-0.03c0.12,0.16,0.24,0.33,0.35,0.49
		C16.96,13.19,17.41,13.85,17.14,14.69z"/>
	<path class="st19" d="M12.34,13.71c0.16-0.11,0.31-0.22,0.47-0.32c1.45,0.59,2.91,1.18,4.36,1.77c0.24-0.18,0.21-0.54,0.46-0.72
		c0.67-0.05,1.34,0.11,2-0.15c0.75-0.3,1.07,0.51,1.67,0.69c0.96,0.29-0.02,1.07,0.18,1.61c-0.89-0.78-1.79,0.04-2.75-0.03
		c0.96,0.28,1.85,0.28,2.75,0.03c0.25,0.22,0.38,0.44,0.27,0.82c-1.29,4.34-3.19,8.4-5.5,12.28c-0.46,0.78-0.62,1.75-1.48,2.27
		c-0.18-1.38,0.43-2.63,0.69-3.93c0.31-1.57,0.62-3.14,0.95-4.71c-0.4,2.05-0.8,4.1-1.29,6.12c-0.05,0.21-0.08,0.39-0.35,0.35
		c-0.67,0.9-0.63,2.06-1.14,3.03c-0.82,1.58-2.2,2.43-3.81,2.92c-0.58,0.18-1.3,0.06-0.85-0.92C9.7,34.05,9.58,33,9.8,32.06
		c0.44-1.9,0.76-3.81,0.65-5.77c-0.02-0.33-0.04-0.44-0.25-0.08c-0.32,0.15-0.44,0.41-0.48,0.76c-0.28,2.52-0.92,4.97-1.58,7.42
		c-0.13,0.46-0.12,1.08-0.82,1.18c-0.33-0.81,0.28-1.53,0.25-2.32c-0.07-1.66-0.24-3.3-0.48-4.94c-0.34-2.3-0.65-4.6-0.97-6.9
		c-0.76-1.96,0.52-3.54,1.02-5.26c0.13-0.45,0.54-0.16,0.83-0.13c0.51,0.07,0.22,0.38,0.18,0.62c-0.16,1.03-0.56,2.04-0.18,3.32
		c0.48-1.04,0.71-1.95,0.78-2.87c0.13-1.63,1.41-2.41,2.37-3.44C11.57,13.17,11.91,14.3,12.34,13.71z"/>
	<path class="st20" d="M10.2,26.2c0.08-0.41-0.09-0.88,0.48-1.57c-0.03,1.74,0.09,3.15-0.15,4.58c-0.3,1.77-0.54,3.54-1.03,5.27
		c-0.07,0.25,0,0.77-0.53,0.35C9.6,31.99,10.36,29.16,10.2,26.2z"/>
	<path class="st21" d="M14.77,29.8c0.8-2,0.89-4.17,1.43-6.23c0.02-0.07,0.06-0.14,0.18-0.19c-0.15,2.93-1.19,5.71-1.6,8.59
		c-0.04,0.11-0.06,0.28-0.14,0.31c-0.26,0.1-0.2-0.09-0.18-0.24C14.57,31.29,14.67,30.55,14.77,29.8z"/>
	<path class="st22" d="M17.63,14.44c0.01,0.34,0.04,0.7-0.46,0.72c-0.01-0.15-0.02-0.31-0.04-0.46c0.03-0.78-0.35-1.46-0.57-2.17
		C17.37,12.91,17.08,13.91,17.63,14.44z"/>
	<path class="st23" d="M21.48,16.6c-0.74,0.68-2.29,0.65-3.83-0.22c1.24-0.06,2.18-0.35,3.13-0.62
		C21.53,15.54,21.1,16.44,21.48,16.6C21.48,16.6,21.48,16.6,21.48,16.6z"/>
	<path class="st24" d="M16.28,16.45c-0.82,0.8-1.2,0.18-1.63-0.2C15.13,16.31,15.61,16.36,16.28,16.45z"/>
</g>
</svg>
