<?xml version="1.0" encoding="utf-8"?>
<!-- Generator: Adobe Illustrator 23.0.2, SVG Export Plug-In . SVG Version: 6.00 Build 0)  -->
<svg version="1.1" id="Camada_1" xmlns="http://www.w3.org/2000/svg" xmlns:xlink="http://www.w3.org/1999/xlink" x="0px" y="0px"
	 viewBox="0 0 26.38 41.27" style="enable-background:new 0 0 26.38 41.27;" xml:space="preserve">
<style type="text/css">
	.st0{fill:#FEFEFE;}
	.st1{fill:#010000;}
	.st2{fill:#572416;}
	.st3{fill:#37332F;}
	.st4{fill:#B13A26;}
	.st5{fill:#E5AE4E;}
	.st6{fill:#F9F4EF;}
	.st7{fill:#E4AC4D;}
	.st8{fill:#E6AC4D;}
	.st9{fill:#C77E38;}
	.st10{fill:#FAF4F0;}
	.st11{fill:#D49244;}
	.st12{fill:#C45124;}
	.st13{fill:#708A77;}
	.st14{fill:#48524A;}
	.st15{fill:#B23A26;}
	.st16{fill:#F1F3F2;}
	.st17{fill:#562416;}
	.st18{fill:#E0A74B;}
	.st19{fill:#C87337;}
	.st20{fill:#C37F3A;}
	.st21{fill:#FDFAF9;}
	.st22{fill:#EED0C2;}
</style>
<g>
	<path class="st0" d="M0.02,19.6c-0.09-2.43,0.25-4.77,1.57-6.88C2.74,10.89,4.2,9.4,6.34,8.74c0.71-0.22,0.86-0.63,0.9-1.39
		c0.14-2.47,0.49-4.93,3.03-6.22c2.83-1.44,5.76-1.49,8.64-0.21c1.72,0.76,2.57,3.05,1.83,5.32c-0.43,1.33-0.16,1.82,1.02,2.5
		c3.79,2.2,5.69,7.44,3.97,11.64c-2.01,4.9-3.76,9.92-6.26,14.61c-0.97,1.82-1.97,3.58-3.82,4.8c-4.4,2.89-8.8,1.05-12.11-1.19
		c-0.66-0.44-0.89-1.24-0.92-2.01c-0.18-4.78-1.59-9.35-2.47-14.01C-0.03,21.58-0.01,20.6,0.02,19.6z"/>
	<path class="st1" d="M17.53,8.13c0.24,0.35,0.39,0.61,0.78,0.65c3.61,0.36,5.34,2.74,6.44,5.88c0.64,1.81,0.77,3.57-0.05,5.31
		c-2.23,4.74-3.78,9.78-6.24,14.42c-0.87,1.64-1.74,3.26-3.41,4.37c-3.93,2.59-7.71,0.87-10.64-1c-0.42-0.27-0.58-0.75-0.6-1.25
		c-0.18-4.86-1.79-9.47-2.46-14.23c-0.52-3.65-0.41-7.32,2.29-10.38c1.15-1.3,2.67-1.85,4.14-2.51c0.68-0.3,0.88-0.51,0.73-1.37
		c-0.32-1.89,0.22-4.84,2.3-5.86c2.46-1.21,4.99-1.3,7.48-0.21c1.15,0.5,1.56,1.62,1.48,2.9C19.67,6.36,19.43,7.74,17.53,8.13z"/>
	<path class="st2" d="M17.07,9.95c4.96-0.34,6.61,3.89,7.02,7.46c0.19,1.64-0.98,3.23-1.65,4.81c-1.4,3.31-2.78,6.62-4.18,9.93
		c-0.69,1.62-1.45,3.29-2.67,4.51c-1.53,1.54-3.38,2.74-5.84,2c-0.83-0.25-1.73-0.3-2.54-0.64c-1.28-0.53-2.36-1.18-2.37-2.86
		c-0.03-3.98-1.29-7.76-2.1-11.61c-0.53-2.53-0.57-5.1,0.01-7.6c0.49-2.12,1.79-3.81,3.87-4.74c1.27-0.57,2.51-1.23,3.89-1.51
		c0.65-0.01,0.77,0.46,0.86,0.95c-0.08,0.24-0.25,0.42-0.48,0.47c-1.08,0.24-1.73,0.99-2.32,1.84c-0.85,0.61-0.91,0.59-1.02-0.36
		c-1.05-0.06-1.67,0.63-2.25,1.32c-1.44,1.69-2.13,3.64-1.84,5.88c0.13,2.44,0.78,4.78,1.32,7.14c0.35,1.51,0.75,3.01,0.84,4.56
		c-0.04,1.23,0.34,2.43,0.26,3.67c-0.03,0.39,0.2,0.67,0.49,0.91c1.83,1.14,3.81,1.58,5.95,1.26c1.1-0.16,1.89-0.74,2.51-1.67
		c1.72-2.54,2.9-5.33,4.06-8.14c0.92-2.22,1.85-4.43,2.92-6.57c0.92-1.84,1.1-3.72,0.83-5.7c-0.09-0.2-0.18-0.41-0.27-0.62
		c-0.21-0.55-0.53-1.02-0.94-1.45c-0.56-0.55-1.2-1-1.86-1.4c0,0-0.32-0.41-0.2,0.07c0.02,0.07,0.08,0.13,0.13,0.2
		c0.12,0.2,0.22,0.41,0.29,0.64c0.07,0.23,0.1,0.48-0.11,0.64c-0.26,0.19-0.52,0.07-0.75-0.1c-0.35-0.25-0.64-0.57-0.94-0.87
		c-0.4-0.52-0.94-0.83-1.54-1.06c-0.09-0.06-0.15-0.15-0.18-0.25C16.36,10.6,16.66,10.24,17.07,9.95z"/>
	<path class="st3" d="M17.07,9.95c0.01,0.55-0.5,0.78-0.73,1.18c-0.15,0.3-0.45,0.37-0.73,0.48c-0.23,0.07-0.46,0.1-0.7,0.11
		c-0.96-0.05-1.91-0.06-2.46,0.97c-0.2,0.21-0.4,0.41-0.69,0.49c-0.62-0.19-0.39-0.65-0.31-1.05c0.08-0.39,0.45-0.78,0-1.18
		c-0.07-0.08-0.12-0.17-0.16-0.27c-0.26-0.32-0.52-0.65-0.78-0.97c-1.19-1.52-1-3.19-0.48-4.86c0.29-0.92,0.94-1.48,1.87-1.85
		c1.78-0.71,3.54-0.72,5.33-0.18c0.74,0.22,1.33,0.61,1.25,1.5c-0.08,0.93,0.35,2.05-0.93,2.57c-1.51,0.61-1.65,1.22-0.65,2.62
		C17,9.63,17.02,9.81,17.07,9.95z"/>
	<path class="st4" d="M15.58,11.45c0.18-0.29,0.49-0.24,0.76-0.31c0,0,0,0.09,0,0.09c0.66,0.18,1.2,0.62,1.8,0.92
		c0.45,0.39,0.74,0.98,1.39,1.19c0.21-0.53-0.26-0.83-0.3-1.23c0.59-0.27,0.92,0.24,1.34,0.47c0.36,0.2,0.6,0.64,1.1,0.54
		c0.43,0.4,0.79,0.85,0.94,1.44c-0.12,0.15-0.32,0.29-0.16,0.49c0.09,0.12,0.29,0.03,0.44,0.01c0.29,1.57,0.46,3.16-0.23,4.66
		c-2.26,4.87-4.06,9.94-6.62,14.68c-1.11,2.05-2.45,3.66-5.05,3.42c-1.66-0.15-3.32-0.37-4.73-1.4c-1.04-1.23-0.39-2.76-0.71-4.13
		c-0.09-0.38,0.02-0.79-0.1-1.18c-0.19-2.38-0.73-4.71-1.29-7.02c-0.66-2.73-0.65-5.43,0.11-8.12c0.6-1.83,1.66-3.19,3.67-3.58
		c0.11,0.29-0.37,0.53-0.07,0.8c0.03,0.03,0.29-0.19,0.44-0.3c1.06-0.75,2.13-1.49,3.27-2.12c0.41,0.19,0.79,0.31,0.38,0.93
		c-0.24,0.36-0.64,0.86-0.2,1.39c0.07,0.18,0.02,0.34-0.17,0.36c-1.91,0.18-2.69,1.46-3.07,3.12c-0.18,0.78-0.31,1.57-0.61,2.31
		c-0.1,0.26-0.29,0.53-0.61,0.45c-0.26-0.06-0.3-0.35-0.35-0.58c-0.19-0.96,0.23-1.88,0.09-2.86c-0.83,1.32-1.57,2.66-1.31,4.31
		c0.61,3.82,1.16,7.64,1.53,11.49c0.07,0.75,0.01,1.5-0.17,2.24c0.81-2.33,1.18-4.77,1.72-7.16c0.11-0.51-0.08-1.3,0.91-1.1
		c0.37,1.09,0.23,2.17,0.05,3.27c-0.28,1.71-0.58,3.42-1.03,5.1c-0.35,0.87,0.2,0.93,0.75,0.71c1.54-0.63,2.92-1.47,3.49-3.18
		c0.24-0.72,0.41-1.46,0.68-2.16c0.1-0.26,0.19-0.71,0.63-0.28c0.27,0.6,0.06,1.18-0.07,1.76c-0.02,0.09-0.04,0.15-0.04,0.21
		c0.02-0.02,0.04-0.04,0.07-0.07c2.5-4.36,5-8.7,6.33-13.59c0.11-0.41,0.34-0.82,0.16-1.27c-0.03-0.11-0.06-0.22-0.07-0.33
		c0.06-1.14-0.55-1.78-1.73-1.76c-0.63,0.01-1.27,0.14-1.9-0.03c-0.77-0.37-0.61-1.32-1.14-1.84C15.73,11.97,15.5,11.78,15.58,11.45
		z"/>
	<path class="st5" d="M4.56,15.71c-0.02,0.24,0.01,0.49-0.06,0.71c-0.95,3.08-0.44,6.13,0.32,9.14c0.46,1.83,0.62,3.68,0.71,5.54
		c0.12,0.24,0.23,0.47-0.21,0.46c-0.3-2.95-1.27-5.76-1.79-8.66c-0.2-1.1-0.36-2.2-0.41-3.32c0.2-0.92,0.13-1.9,0.5-2.79
		C3.83,16.35,3.89,15.76,4.56,15.71z"/>
	<path class="st6" d="M4.56,15.71c-1.07,1.08-0.89,2.61-1.43,3.88c-0.32-3.36,1.5-6.39,4.5-7.54c0.57-0.22,0.55-0.1,0.3,0.33
		C6.48,13.16,5.12,14.03,4.56,15.71z"/>
	<path class="st7" d="M11.57,10.76c-0.89,1.01-1.98,1.71-3.27,2.12c0.67-1.18,1.66-1.91,2.99-2.19
		C11.39,10.71,11.48,10.73,11.57,10.76z"/>
	<path class="st8" d="M21.66,13.11c-0.12,0.63-0.41,0.4-0.71,0.14c-0.53-0.45-1.04-0.94-1.73-1.15c-0.19-0.28-0.58-0.42-0.6-0.89
		C19.96,11.37,20.78,12.29,21.66,13.11z"/>
	<path class="st9" d="M5.33,31.57c0.07-0.15,0.14-0.31,0.21-0.46c0.4,0.44,0.2,0.98,0.22,1.48c0.06,1.29-0.16,2.61,0.5,3.82
		c-0.47-0.22-0.72-0.59-0.75-1.1C5.45,34.06,5.39,32.81,5.33,31.57z"/>
	<path class="st10" d="M22.88,15.05c-0.13,0.43-0.4,0.6-0.81,0.4c-0.12-0.06-0.25-0.25-0.24-0.37c0.05-0.45,0.37-0.57,0.78-0.53
		C22.69,14.72,22.78,14.88,22.88,15.05z"/>
	<path class="st11" d="M18.14,12.15c-0.68-0.15-1.3-0.41-1.8-0.92C17.13,11.15,17.71,11.51,18.14,12.15z"/>
	<path class="st12" d="M14.18,29.19c-0.67,0.9-0.63,2.06-1.14,3.03c-0.82,1.59-2.2,2.43-3.81,2.92c-0.58,0.18-1.3,0.06-0.85-0.92
		c0.73-0.79,0.61-1.84,0.83-2.78c0.44-1.9,0.76-3.81,0.65-5.77c-0.02-0.32-0.03-0.44-0.25-0.09c-0.32,0.15-0.44,0.41-0.48,0.76
		c-0.28,2.53-0.92,4.98-1.58,7.43c-0.11,0.39-0.13,1.12-0.61,1c-0.59-0.15-0.35-0.76-0.12-1.2c0.27-0.53,0.2-1.11,0.15-1.65
		c-0.27-2.76-0.61-5.5-1.04-8.24c-0.4-2.6-1.07-5.23,0.45-7.75c0.25-0.41,0.31-0.73,0.93-0.56c0.7,0.19,0.23,0.52,0.2,0.8
		c-0.1,0.98-0.49,1.93-0.18,3.08c0.6-0.82,0.75-1.73,0.8-2.55c0.1-1.69,1.36-2.51,2.31-3.6c0.52-0.6,0.91,0.62,1.32-0.02
		c0.16-0.16,0.32-0.33,0.48-0.49c1.51,0.26,2.83,1.01,4.23,1.56c0.26,0.02,0.4-0.17,0.58-0.31c0.67-0.05,1.35,0.11,2-0.15
		c0.75-0.3,1.07,0.51,1.67,0.69c0.96,0.29-0.02,1.08,0.18,1.62c-0.48,0.01-0.77-0.72-1.36-0.31c-0.39,0.27-0.85,0.34-1.33,0.24
		c0.9,0.31,1.79,0.31,2.69,0.07c0.26,0.22,0.38,0.43,0.27,0.82c-1.39,4.95-3.87,9.41-6.32,13.88c-0.15,0.27-0.44,0.45-0.66,0.67
		c-0.12-1.36,0.41-2.62,0.68-3.92c0.33-1.56,0.61-3.13,0.95-4.69c-0.43,1.99-0.76,4-1.29,5.97C14.48,28.94,14.55,29.23,14.18,29.19z
		"/>
	<path class="st13" d="M13.72,3.53c0.72,0.05,1.47-0.25,2.14,0.24c0.3,1.15,0.3,1.15,1.21,0.45c0.79,0.76,0.75,1.57-0.1,1.91
		c-1.53,0.61-1.79,1.13-1.43,2.76c0.04,0.19,0.04,0.39,0.06,0.59c-0.32,0.34-0.74,0.38-1.1,0.18c-1.13-0.63-2.05-1.57-2.17-2.83
		C12.19,5.59,12.35,4.25,13.72,3.53z"/>
	<path class="st14" d="M13.72,3.53c-1.62,2.37-1.5,3.68,0.17,5.36c0.51,0.51,1.03,0.69,1.7,0.59c0.01,0.49-0.26,0.69-0.73,0.75
		c-1.39,0.19-3.3-0.81-3.87-2.06c-0.52-1.13,0.11-3.37,1.17-4.21C12.62,3.6,13.13,3.44,13.72,3.53z"/>
	<path class="st15" d="M16.58,14.55c-1.39-0.6-2.73-1.32-4.23-1.65c-0.06-0.01-0.08-0.21-0.12-0.32c0.45-1.36,1.54-1.23,2.62-1.13
		c1.2,0.45,1.3,1.68,1.84,2.6C16.74,14.24,16.71,14.4,16.58,14.55z"/>
	<path class="st16" d="M17.06,4.22c0.14,0.51-0.14,0.73-0.58,0.84c-0.3,0.08-0.56-0.04-0.75-0.24c-0.38-0.39-0.08-0.72,0.13-1.05
		C16.32,3.77,16.72,3.92,17.06,4.22z"/>
	<path class="st17" d="M16.55,14.08c-0.75-0.76-0.82-1.95-1.69-2.63c0.24,0,0.48,0,0.72-0.01c0.13,0.16,0.26,0.31,0.39,0.46
		C16.38,12.58,16.81,13.24,16.55,14.08z"/>
	<path class="st18" d="M9.61,25.59c0.1-0.41-0.12-0.89,0.48-1.48c-0.03,1.66,0.09,3.07-0.15,4.5c-0.3,1.77-0.54,3.54-1.03,5.27
		c-0.07,0.25,0,0.77-0.53,0.35C9.01,31.38,9.77,28.55,9.61,25.59z"/>
	<path class="st19" d="M14.18,29.19c0.8-2,0.89-4.17,1.43-6.23c0.02-0.07,0.06-0.14,0.18-0.19c-0.15,2.93-1.19,5.7-1.6,8.59
		c-0.04,0.11-0.06,0.28-0.14,0.31c-0.26,0.1-0.2-0.09-0.18-0.24C13.98,30.68,14.08,29.94,14.18,29.19z"/>
	<path class="st20" d="M16.55,14.08c0.03-0.78-0.34-1.46-0.58-2.17c0.83,0.38,0.52,1.39,1.08,1.92c0.01,0.34,0.04,0.7-0.46,0.71
		C16.57,14.39,16.56,14.24,16.55,14.08z"/>
	<path class="st21" d="M20.89,15.99c-0.75,0.67-2.28,0.64-3.84-0.23c1.25-0.03,2.19-0.32,3.14-0.6
		C20.94,14.93,20.5,15.84,20.89,15.99C20.89,15.99,20.89,15.99,20.89,15.99z"/>
	<path class="st22" d="M14.06,15.64c0.49,0.06,0.97,0.11,1.55,0.18C14.91,16.72,14.5,15.99,14.06,15.64z"/>
</g>
</svg>
