<?xml version="1.0" encoding="utf-8"?>
<!-- Generator: Adobe Illustrator 23.0.2, SVG Export Plug-In . SVG Version: 6.00 Build 0)  -->
<svg version="1.1" id="Camada_1" xmlns="http://www.w3.org/2000/svg" xmlns:xlink="http://www.w3.org/1999/xlink" x="0px" y="0px"
	 viewBox="0 0 87.93 88.65" style="enable-background:new 0 0 87.93 88.65;" xml:space="preserve">
<style type="text/css">
	.st0{fill:#010002;}
	.st1{fill:#3C2C16;}
	.st2{fill:#FBFBE6;}
	.st3{fill:#F9F4C5;}
	.st4{fill:#B47F3D;}
	.st5{fill:#815D31;}
	.st6{fill:#B8864A;}
	.st7{fill:#D39D48;}
	.st8{fill:#382510;}
	.st9{fill:#82571F;}
	.st10{fill:#CC9846;}
	.st11{fill:#EABF79;}
	.st12{fill:#F4EE9A;}
	.st13{fill:#F1D689;}
	.st14{fill:#80581D;}
	.st15{fill:#58482D;}
	.st16{fill:#C38F3D;}
	.st17{fill:#5E4D30;}
	.st18{fill:#54442A;}
	.st19{fill:#58472C;}
	.st20{fill:#FCFAF0;}
	.st21{fill:#F9F7D0;}
	.st22{fill:#F9F6CD;}
	.st23{fill:#BA9157;}
	.st24{fill:#CDA263;}
	.st25{fill:#CDA262;}
	.st26{fill:#BA8848;}
	.st27{fill:#A5743B;}
	.st28{fill:#C0883D;}
	.st29{fill:#C2914F;}
	.st30{fill:#F8EBB8;}
	.st31{fill:#A5804D;}
	.st32{fill:#B48E57;}
	.st33{fill:#F2E18E;}
	.st34{fill:#E6C379;}
	.st35{fill:#F0D78F;}
	.st36{fill:#EAB965;}
	.st37{fill:#F6F1AF;}
	.st38{fill:#E9CE93;}
	.st39{fill:#F9F7CC;}
	.st40{fill:#F9EFB9;}
	.st41{fill:#B58D57;}
	.st42{fill:#FAF8D5;}
	.st43{fill:#F7F5C5;}
</style>
<g>
	<path class="st0" d="M77.87,50.82c3.35,1.03,4.2,3.67,3.48,6.53c-0.99,3.95-1.94,7.9-5.81,10.57c-3.41,2.35-7.15,4.36-9.3,8.5
		c-1.12,2.16-4.18,3.41-6.52,4.8c-1.23,0.73-3.27,0.89-4.12-0.08c-2.42-2.75-6.23-4.04-7.97-7.26c-0.92-1.7-1.85-1.79-3.33-1.74
		c-8.01,0.29-16.05-0.16-22.87-4.72C12.55,61.47,7.37,52.93,6.54,42.1c-0.16-2.03,0.31-4.19,1.59-5.81
		c6.76-8.55,13.36-17.4,22.94-22.98c6.69-3.9,13.87-7.28,21.88-7.29c5.33-0.01,10.21,2.12,14.89,4.67c9,4.91,11.37,13.3,11.85,22.59
		c0.24,4.62-0.05,9.27-0.09,13.9C79.59,48.6,78.54,49.54,77.87,50.82z"/>
	<path class="st1" d="M69.28,17.99c5.52,4.19,5.72,10.55,6.23,16.52c0.58,6.82-1,13.31-5.25,18.93c-0.34,0.45-0.5,1.05-0.75,1.58
		c1.14,0.8,2.14,0.34,3.18,0.2c2.33-0.31,3.59,1.76,3.22,3.98c-0.78,4.71-5.06,6.11-8.05,8.28c-2.47,1.79-4.34,3.86-6.17,6.07
		c-1.68,2.02-3.59,1.9-5.31,0.66c-0.99-0.71-1.74-1.42-3.03-1.53c-2.07-0.18-1.44-1.89-1.42-3.07c0.03-1.99-0.47-2.75-2.73-2.37
		c-6.8,1.12-13.76,1.23-20.2-1.18c-7.03-2.64-12.09-7.94-15.34-14.81c2.41-1.13,4.65,0.59,7.01,0.39c3.25-0.31,6.12,0.72,8.79,2.45
		c1.06,0.66,2.14-1.05,3.19,0.03c0.46,2.59,2.55,3.9,4.29,5.49c0.92,0.84,2.65,1.63,1.78,3.04c-0.84,1.36-2.37,0.31-3.56-0.16
		c-0.33-0.13-0.65-0.3-0.97-0.45c-3.57-1.52-6.06-4.96-10.08-5.68c-1.05-0.22-2.07-0.55-3.44-0.72c7.74,9.62,18.22,9.23,28.73,8.69
		c1.43-0.34,2.78-0.89,4.09-1.55c1-0.48,2.08-0.75,3.02-1.36c0.66-0.46,1.24-1,1.9-1.46c3.08-2,6.23-3.9,8.56-6.83
		c1.13-1.42,1.81-3.04,2.13-4.82c3.69-7.38,3.1-15.05,1.39-22.58c-0.24,0.33-0.38,1.16-1.31,1.11c-0.83-0.65-1.1-1.58-1.3-2.55
		C68.3,22.16,67.57,19.8,69.28,17.99z"/>
	<path class="st2" d="M25.89,23.61c0.98-0.84,1.96-1.68,2.94-2.53c2.74-2.02,5.71-3.65,8.82-5.02c1.27-0.56,2.6-1.17,4.05-0.54
		c1.46,2.16,3.74,0.77,5.59,1.26c3.6,0.59,7.35-0.1,10.84,1.29c4.82,2.64,5.21,5.09,1.71,10.61c-1.62,1.87-3.12,3.89-5.61,4.73
		c-1.3-0.69-3.24,1.2-4.17-1.03c0.06-1.41,1.24-2.16,1.89-3.21c0.78-1.26,1.77-2.54,0.46-4.06c-4.01-0.98-7.9,0.24-11.84,0.59
		c-1.64-0.38-2.56-1.57-3.31-2.93c-0.78-1.74-1.29,0.37-1.96,0.17c-2.46,0.96-4.32,3.21-7.16,3.38c-2.15-1.08,0.24-1.75,0.24-2.46
		C27.53,24.48,26.63,26,25.89,23.61z"/>
	<path class="st3" d="M25.89,23.61c2.4,1.92,2.64-2.19,4.64-1.59c0.92,2.19-3.56,1.64-2.16,4.06c-0.03,1.8-1.61,2.32-2.68,3.26
		c-1.36,1.11-2.56,2.39-3.73,3.7c-1.95,2.25-3.55,4.73-4.72,7.48c-0.64,1.29-0.41,2.79-0.97,4.08c-0.42,0.96-0.22,2.53-2.04,2.23
		c-0.26-0.31-0.45-0.66-0.57-1.05c-0.31-2.68-0.36-5.36,0.01-8.04c0.17-0.61,0.41-1.19,0.77-1.71
		C18.06,31.69,21.31,27.04,25.89,23.61z"/>
	<path class="st4" d="M41.82,15.97c-4.85,0.37-8.61,3.52-12.99,5.11c3.83-4.43,9.15-6.19,14.41-8.08c3.03-0.33,5.95-1.35,9.01-1.4
		c1.11-0.02,2.8-0.47,3.07,0.89c0.29,1.44-1.59,1.35-2.5,1.96C49.2,15.31,45.63,16.56,41.82,15.97z"/>
	<path class="st5" d="M14.4,46.26c-0.06,0.21-0.02,0.4,0.14,0.55c0.89,0.41,1.36,1.25,2,1.91c1.16,1.65,3.78,1.61,4.45,3.82
		c-2.53,0.05-4.93-0.63-7.34-1.3c-3.37-5.62-3.06-11.56,0.79-15.23c-0.03,0.4-0.07,0.81-0.1,1.21
		C13.95,40.24,13.83,43.25,14.4,46.26z"/>
	<path class="st6" d="M52.6,13.68c0.7-0.35,1.39-0.69,2.53-1.26c-3.59-0.43-6.59,0.72-9.66,0.98c-0.84,0.07-1.61,0.47-2.23-0.39
		c7.99-4.06,17.96-2.33,25.2,4.36c0.66,1.99-0.48,1.72-1.54,1.12c-1.33-0.75-2.42-1.86-3.74-2.64c-2.28-1.35-4.62-2.38-7.35-1.43
		C54.65,14.57,53.49,14.7,52.6,13.68z"/>
	<path class="st4" d="M56.21,13.67c4.33-1.71,7.1,1.31,10.14,3.4c1.03,0.71,0.97,0.78,2.09,0.3c0.28,0.21,0.56,0.42,0.84,0.62
		c0,2.22-0.05,4.43-0.74,6.57c0.04,0.77-0.34,0.91-0.98,0.66c-0.93-5.61-4.34-8.84-9.73-10.22C57.15,14.82,56.53,14.38,56.21,13.67z
		"/>
	<path class="st7" d="M58.37,60.82c-0.5,0.39-1.01,0.79-1.51,1.18c-0.42,0.33-0.97,0.45-1.31,0.11c-3.63-3.54-7.31-7.05-9.65-11.67
		c2.33-2.76,5.96-3.59,8.64-5.83c0.57-0.44,1.13-0.89,1.71-1.29c5.21-3.61,6.11-3.18,6.68,3.18C62.81,51.72,62.82,56.98,58.37,60.82
		z"/>
	<path class="st8" d="M67.64,25.38c0.3-0.27,0.6-0.54,0.9-0.82c0.77,0.6,0.56,1.5,0.71,2.29c1.49,2.51-0.21,4.43-1.45,6.19
		c-1.34,1.91-1.61,3.64-0.57,5.65c0.76,2.7,0.99,5.42,0.52,8.2c-0.4,0.95-0.7,2.27-2,1.99c-1-0.22-1.01-1.47-1.1-2.4
		c-0.17-1.75,0.1-3.53-0.29-5.27c-0.19-1.03-0.61-2.03-0.46-3.3c-2.89,2.95-6.42,4.84-9.56,7.26c-2.79,1.8-5.7,3.4-8.58,5.04
		c-0.37,0.37-0.78,0.69-1.24,0.94c-3.34,1.7-6.69,3.38-10.53,3.66c-0.56-0.07-1.07-0.26-1.45-0.7c-1.13-0.4-1.72,1.62-2.97,0.66
		c-2.36-1.48-1.9-2.5,0.54-3.1c5.37-1.32,10.67-2.81,15.38-5.87c4.64-2.42,9.02-5.22,13.01-8.61c1.56-1.45,3.07-2.94,4.5-4.52
		C65.22,30.66,65.18,27.22,67.64,25.38z"/>
	<path class="st9" d="M32.55,54.11c0.49,0.05,0.98,0.1,1.46,0.14c0.94,0.96,2.15-0.4,3.12,0.36c3.27,3.84,6.81,7.3,11.77,8.91
		c0.56,0.18,1.06,0.56,0.83,1.32c-0.83,0.96-1.97,0.62-3.01,0.71c-4.3,0.35-8.54-0.42-12.78-0.87c-6.76-0.71-11.38-4.9-15.7-10.47
		c2.41,0.5,4.39,0.91,6.36,1.33c3.17,2.16,6.08,4.77,9.92,5.79c1.35,0.15,2.31,1.74,4.18,1.03c-1.99-1.84-3.84-3.57-5.71-5.27
		C32,56.19,31.4,55.29,32.55,54.11z"/>
	<path class="st10" d="M49.73,64.84c-5.47-1.84-9.89-5.09-13.1-9.92c2.01-1.87,4.61-2.51,7.09-3.38c5.04,2.52,8.57,6.34,10.25,11.78
		C52.64,64.07,51.33,64.87,49.73,64.84z"/>
	<path class="st11" d="M46.35,46.26c-4.93,3.26-10.31,5.46-16.15,6.2c-2.91,0.37-1.22,1.33-0.63,2.31
		c-2.88-0.66-5.32-3.02-8.58-2.22c-1.68-1.21-4.04-1.45-5.06-3.59c1.31-1.19,2.88-0.97,4.39-0.71c6.35,1.11,12.51,0.41,18.52-1.81
		c3.44-1.07,6.24-3.56,9.77-4.43c1.77,0.47,1.3,1.27,0.35,2.22C48.18,45.01,46.45,44.58,46.35,46.26z"/>
	<path class="st12" d="M66.28,38.22c-1.12-1.6-1.3-3.01,0.15-4.69c1.61-1.86,2.82-4.06,2.82-6.68c0.29-1.12,0.58-2.24,1.1-4.25
		c3.07,9.45,3.59,17.95-0.53,26.37c-1.54,0.03-1.45-1.31-1.88-2.21c-0.11-0.52-0.11-1.04-0.02-1.56c0.5-2.7,0.38-5.41,0.18-8.09
		C67.36,37.28,67.35,38.64,66.28,38.22z"/>
	<path class="st13" d="M68.39,46.84c0.48,0.71,0.95,1.42,1.43,2.14c-1.54,6.15-6.45,9.05-11.45,11.85
		c2.99-4.45,3.61-9.49,3.65-14.68c1.76,0.03,2.02,1.22,2.08,2.26c0.23-2.5-1.2-5.53,0.83-8.2c1.08,2.62,0.01,5.55,1.11,8.56
		c0.42-0.87,0.67-1.39,0.92-1.92C67.43,46.42,67.91,46.41,68.39,46.84z"/>
	<path class="st14" d="M53.96,63.33c-2.6-4.44-6.1-8.1-9.94-11.47c-0.53-0.86,0.36-1.06,0.69-1.53c0.21-0.19,0.42-0.38,0.63-0.57
		c0.32,0.19,0.79,0.27,0.66,0.83c3.11,3.41,6.44,6.63,9.06,10.47c0.45,0.67,1.06,0.9,1.8,0.94C56.12,62.94,54.89,62.79,53.96,63.33z
		"/>
	<path class="st15" d="M61.44,63.86c-0.54,2.15,1.11,3.77,0.87,5.93c-3.49-4.89-3.27-6.39,0.82-8.65c0.95-0.52,1.69-0.71,2.6-0.03
		c1.19,0.9,0.77,1.44-0.34,1.9c-0.05,0.02-0.08,0.2-0.06,0.3c0.22,1.14,2.98,2.18,0.56,3.3c-1.58,0.73-2.31-1.64-3.56-2.41
		C62.14,64.07,61.91,64.02,61.44,63.86z"/>
	<path class="st15" d="M59.75,70.8c0.04,1.2-0.08,2.27-1.28,2.36c-1.24,0.09-1.45-0.99-1.52-1.99c-0.04-0.59-0.19-1.25,0-1.77
		c0.54-1.46-1.6-3.84,0.4-4.18c1.5-0.26,1.08,2.7,1.85,4.08C59.49,69.81,59.61,70.41,59.75,70.8z"/>
	<path class="st16" d="M34.51,61.32c-4.3-0.22-7.48-2.37-9.92-5.79C28.6,56.26,31.06,59.65,34.51,61.32z"/>
	<path class="st17" d="M67.15,57.91c2.23-0.54,4.13,0.14,5.89-0.59C71.4,58.8,69.86,60.72,67.15,57.91z"/>
	<path class="st18" d="M54.82,70.8c-0.84-1.77-1.96-2.88-0.95-4.49c0.28-0.45,1.02-0.62,1.19-0.27
		C55.74,67.42,55.74,68.86,54.82,70.8z"/>
	<path class="st19" d="M66.37,59.15c1.57,0.88,3.14,1.76,4.92,2.76C68.91,62.35,68.7,62.25,66.37,59.15z"/>
	<path class="st20" d="M67.64,25.38c-1.01,2.8-1.85,5.68-4.18,7.77c-1.39-0.67-1.39-0.67-0.37-2.92c-1.26-0.45-2.46,2.19-3.72,0.07
		c-0.07-0.33-0.06-0.66,0.02-0.99c0.29-0.65,0.67-1.25,1.08-1.84c2.98-4.34,2.46-6.54-2.13-9.17c-3.67-1.7-7.59-0.34-11.35-0.94
		c-1.03,0.19-2.06,0.37-3.09,0.57c-1.61,0.31-2.15-0.5-2.07-1.97c3.42-1.6,7.25-1.26,10.79-2.3c1.2,0,2.4,0,3.6-0.01
		c1.37,0.43,2.75,0.82,4.1,1.31C65.96,17.04,67.4,19.1,67.64,25.38z"/>
	<path class="st21" d="M37.5,22.44c0.96,0.93,1.91,1.87,2.87,2.8c-0.09,2.26-2.3,2.35-3.56,3.36c-1.72,1.38-3.61,2.58-5.57,3.63
		c-1.82,0.67-3.16,2.15-4.91,2.94c-1.38,0.23-2.62,0.17-3.03-1.52c0.27-3.14,3.53-3.73,5-5.85c2.16-2.13,4.73-3.68,7.37-5.13
		C36.25,22.43,36.81,21.94,37.5,22.44z"/>
	<path class="st22" d="M50.47,32.49c0.87,1.54,2.63-1.61,3.37,0.64c0.27,0.26,0.47,0.66,0.22,0.92c-4.59,4.72-10.01,8.02-16.48,9.5
		c-1.08-0.79-1.81-1.78-1.76-3.19c2.8-2.69,6.73-3.37,9.83-5.54C47.32,34.19,48.3,32.11,50.47,32.49z"/>
	<path class="st23" d="M37.52,43.42c5.84-2.79,11.87-5.27,16.31-10.28c1.71-1.49,3.42-2.98,5.13-4.46c0.51,0.06,0.55,0.49,0.66,0.85
		c0.05,0.19,0.07,0.38,0.06,0.58c-0.4,2.2-2.16,3.39-3.64,4.71c-4.84,4.3-10.28,7.71-16.1,10.54c-0.99,0.31-1.98,0.69-3.06,0.5
		c-0.7-0.19-1.31-0.52-1.71-1.15C35.34,43.15,36.41,43.24,37.52,43.42z"/>
	<path class="st24" d="M30.94,31.69c3.14-2.15,6.29-4.3,9.43-6.45c4.25-1.31,8.52-2.14,12.92-0.71c-0.37,0.7-0.99,1.07-1.7,1.32
		c-6.28-0.22-11.87,1.65-16.76,5.6c-0.91,0.5-1.74,1.18-2.83,1.26C31.43,32.58,31.09,32.24,30.94,31.69z"/>
	<path class="st25" d="M51.89,25.18c0.32-0.53,0.83-0.64,1.39-0.65c2.26,3.79-1.37,5.49-2.82,7.96c-1.45,0.94-2.59,2.35-4.32,2.87
		c-0.68-0.07-1.33-0.19-1.63-0.92c0.16-1.23,1.19-1.74,2.06-2.31C49.18,30.44,50.9,28.09,51.89,25.18z"/>
	<path class="st26" d="M59.63,29.52c-0.22-0.28-0.44-0.57-0.66-0.85c0.39-0.73,0.78-1.46,1.18-2.19c2.13-3.88,1.82-5.16-1.85-7.66
		c0.15-0.33,0.4-0.51,0.75-0.57C64.39,21.02,64.56,24.29,59.63,29.52z"/>
	<path class="st27" d="M36.01,23.02c-2.39,1.7-4.78,3.4-7.18,5.11c-2.54,1.86-2.54,1.86-3.56,0.75c1.03-0.94,2.07-1.87,3.1-2.81
		c2.25-1.28,4.5-2.56,6.75-3.84C35.92,21.93,36.11,22.31,36.01,23.02z"/>
	<path class="st28" d="M59.05,18.25c-0.25,0.19-0.5,0.38-0.75,0.57c-3.66-1.38-7.72,0.34-11.33-1.45
		C51.04,17.11,55.19,15.74,59.05,18.25z"/>
	<path class="st29" d="M36.01,23.02c-0.3-0.26-0.6-0.53-0.89-0.79c1.31-0.72,2.62-1.45,4.14-2.29c-0.02,1.69-1.25,1.78-1.76,2.49
		C37,22.63,36.51,22.83,36.01,23.02z"/>
	<path class="st30" d="M36.76,45.4c0.97-0.2,1.93-0.4,2.9-0.61c0.65,0.72,0.52,1.43,0.01,2.15c-5.71,3.04-11.88,3.14-18.07,2.53
		c-1.88-0.19-3.77-0.44-5.67-0.53c-0.73-0.54-1.31-1.18-1.39-2.14c1.59-2.12,0.6-5,2.1-7.15c0.17,0.17,0.37,0.33,0.44,0.55
		c2.16,6.39,3.67,7.24,10.63,6.59C30.76,46.51,33.62,45.01,36.76,45.4z"/>
	<path class="st31" d="M36.76,45.4c-4.26,1.66-8.61,2.74-13.26,2.3c-5.73-0.54-7.33-2.32-6.87-8.05c1.43-2.57,2.54-5.36,5-7.21
		c1.51-0.01,1.25,1.06,1.21,1.99c-1.19,2.02-2.59,3.91-3.26,6.25c-0.64,2.2,0.1,3.41,2.14,4.08c3.15,1.04,6.28,0.9,9.44-0.02
		c1.31-0.38,2.66-1.2,4.05-0.13C35.81,44.7,36.45,44.74,36.76,45.4z"/>
	<path class="st32" d="M22.34,34.35c0.01-0.73,0.11-1.48-0.7-1.91c0.97-1.43,2.11-2.69,3.63-3.56c1.56,1.53,2.2-1.32,3.56-0.75
		c-1.06,2.29-4,2.73-5,5.08C23.11,33.29,23.85,35.3,22.34,34.35z"/>
	<path class="st30" d="M14.4,46.26c-1.13-3.01-1.06-6.02-0.04-9.03C14.37,40.23,14.38,43.25,14.4,46.26z"/>
	<path class="st33" d="M64.92,40.19c0,2.93,0,5.85,0,9.63c-1.34-1.7-2.12-2.69-2.9-3.68c-0.03-1.55-0.33-3.04-1.12-4.73
		c-2.07,1.36-4.1,2.69-6.13,4.01c-0.72,0.34-0.8-0.02-0.68-0.61c1.62-1.23,3.26-2.42,4.85-3.68c1.58-1.26,3.09-2.61,4.69-3.97
		C64.83,37.87,64.86,39.04,64.92,40.19z"/>
	<path class="st34" d="M54.09,44.82c0.23,0.2,0.45,0.4,0.68,0.61c-2.66,2.15-5.78,3.54-8.76,5.16c-0.22-0.28-0.44-0.55-0.65-0.83
		C48.26,48.11,51.18,46.47,54.09,44.82z"/>
	<path class="st35" d="M46.35,46.26c-1.21-1.42,0.54-1.25,0.96-1.81c0.51-0.69,2.41-0.2,1.67-1.94c1.83-3.52,5.22-4.86,8.62-6.19
		c0.78,0.1,1.37,0.45,1.61,1.25C55.46,41.24,50.96,43.82,46.35,46.26z"/>
	<path class="st36" d="M68.39,46.84c-0.48,0-0.96,0-1.43,0c-0.22-2.87-0.45-5.75-0.67-8.62c1.24-0.88,0.22-3.09,2.12-3.59
		c0.67,3.59,0.57,7.18,0.08,10.77C68.45,45.89,68.42,46.36,68.39,46.84z"/>
	<path class="st37" d="M59.21,37.56c-0.52-0.27-1.05-0.53-1.57-0.8c1.12-3.32,2.97-5.99,6.46-7.18c0.57,1.33-2.29,2.05-0.64,3.57
		C62.5,35.06,60.83,36.28,59.21,37.56z"/>
	<path class="st38" d="M44.72,50.33c-0.23,0.51-0.46,1.02-0.69,1.53c-2.47,1.02-4.93,2.04-7.4,3.07c-0.73-0.77-2.28,1.66-2.61-0.67
		C37.81,53.58,41.13,51.59,44.72,50.33z"/>
	<path class="st39" d="M64.1,29.58c-2.69,1.92-4.19,4.89-6.46,7.18c-2.89,1.91-5.77,3.83-8.66,5.74c-3.22,1.23-5.95,3.51-9.31,4.44
		c0-0.72,0-1.43,0-2.15c7.35-3.98,14.25-8.58,20.03-14.7c1.83,0.91,2.46-1.08,3.73-1.52C64.7,28.13,64.92,28.53,64.1,29.58z"/>
	<path class="st13" d="M68.48,45.41c-0.03-3.59-0.05-7.18-0.08-10.77C69.71,38.22,69.53,41.81,68.48,45.41z"/>
	<path class="st40" d="M22.34,34.35c0.5-0.38,1-0.76,1.49-1.14c0.25,1.92,1.76,1.25,2.87,1.4c0.16,0.18,0.34,0.38,0.35,0.6
		c0.39,5.3,0.39,5.31,6,4.76c1.05-0.1,2.1-0.49,3,0.4c0.46,1.03,1.58,1.74,1.47,3.05c-0.77,0.4-1.54,0.8-2.31,1.19
		c-3.69,0.72-7.16,2.52-11.15,1.67c-6.73-1.43-7.8-4.1-3.66-9.83C20.95,35.68,21.68,35.05,22.34,34.35z"/>
	<path class="st41" d="M36.05,40.36c-1.98,0.26-3.95,0.68-5.93,0.74c-4.15,0.13-5.01-1.13-3.77-5.15c0.14-0.44,0.24-0.9,0.35-1.35
		c0.89-1.73,2.47-2.45,4.23-2.92c0.26,0.23,0.51,0.46,0.77,0.69c-0.13,1.44-1.37,2.16-2.09,3.22c-0.47,0.69-1.08,1.41-0.64,2.26
		c0.55,1.05,1.61,0.83,2.54,0.69c3.08-0.48,5.95-1.59,8.72-3c1.46-0.34,2.75-1.44,4.39-0.96c0.61,0.05,1.22,0.12,1.52,0.78
		C43,37.48,39.51,38.89,36.05,40.36z"/>
	<path class="st42" d="M44.62,34.58c-1.36,0.53-2.71,1.06-4.07,1.58c-0.85,0.28-1.2-0.23-0.96-0.87c1.24-3.3-0.83-3.3-3.1-3.29
		c-0.9,0-2.21,0.89-2.55-0.87c5.22-4.26,10.9-7.16,17.94-5.95c1.07,2.39-0.67,3.83-2.01,5.18C48.3,31.94,46.39,33.19,44.62,34.58z"
		/>
	<path class="st43" d="M33.95,31.13c1.6,0.84,3.16-0.71,4.76-0.05c1.87,0.77,4.4,1.24,1.64,3.95c-0.41,0.4-0.3,0.84,0.2,1.14
		c-2.93,1.98-6.24,2.9-9.69,3.32c-1.13,0.14-2.57,0.44-3.22-0.88c-0.61-1.23,0.27-2.33,1.02-3.22c0.91-1.09,2.02-2.01,3.04-3.01
		C32.45,31.96,33.2,31.54,33.95,31.13z"/>
</g>
</svg>
