<?xml version="1.0" encoding="utf-8"?>
<!-- Generator: Adobe Illustrator 23.0.2, SVG Export Plug-In . SVG Version: 6.00 Build 0)  -->
<svg version="1.1" id="Camada_1" xmlns="http://www.w3.org/2000/svg" xmlns:xlink="http://www.w3.org/1999/xlink" x="0px" y="0px"
	 viewBox="0 0 84.39 85.06" style="enable-background:new 0 0 84.39 85.06;" xml:space="preserve">
<style type="text/css">
	.st0{fill:#FEFEFE;}
	.st1{fill:#010002;}
	.st2{fill:#3C2C16;}
	.st3{fill:#FBFBE6;}
	.st4{fill:#F9F4C5;}
	.st5{fill:#B47F3D;}
	.st6{fill:#B8864A;}
	.st7{fill:#815D31;}
	.st8{fill:#D39D48;}
	.st9{fill:#382510;}
	.st10{fill:#82571F;}
	.st11{fill:#CC9846;}
	.st12{fill:#EABF79;}
	.st13{fill:#F4EE9A;}
	.st14{fill:#F1D689;}
	.st15{fill:#80581D;}
	.st16{fill:#58482D;}
	.st17{fill:#C38F3D;}
	.st18{fill:#5E4D30;}
	.st19{fill:#54442A;}
	.st20{fill:#58472C;}
	.st21{fill:#FCFAF0;}
	.st22{fill:#F9F7D0;}
	.st23{fill:#F9F6CD;}
	.st24{fill:#BA9157;}
	.st25{fill:#CDA263;}
	.st26{fill:#CDA262;}
	.st27{fill:#BA8848;}
	.st28{fill:#A5743B;}
	.st29{fill:#C0883D;}
	.st30{fill:#C2914F;}
	.st31{fill:#F8EBB8;}
	.st32{fill:#A5804D;}
	.st33{fill:#B48E57;}
	.st34{fill:#F2E18E;}
	.st35{fill:#E6C379;}
	.st36{fill:#F0D78F;}
	.st37{fill:#EAB965;}
	.st38{fill:#F6F1AF;}
	.st39{fill:#E9CE93;}
	.st40{fill:#F9F7CC;}
	.st41{fill:#F9EFB9;}
	.st42{fill:#B58D57;}
	.st43{fill:#FAF8D5;}
	.st44{fill:#F7F5C5;}
</style>
<g>
	<path class="st0" d="M82.24,35c0,3.92,0,7.83,0,11.75c0,0.47-0.21,1.09,0.02,1.38c4.04,5.28,1.37,10.47-0.13,15.69
		c-0.34,1.19-0.89,2.36-1.85,3.02c-6.79,4.69-11.57,11.64-18.43,16.24c-4.82,3.23-9.66,2.39-13.86-1.59
		c-3.22-3.04-6.24-6.21-11.78-6.03c-7.33,0.24-14.72-1.63-20.7-6.13C8.49,64.07,3.59,57.07,1.05,48.45
		c-2.34-7.95-0.8-14.48,4.84-20.72c6.19-6.85,11.89-14.16,19.84-19.09C33.54,3.8,42.03,0.1,51.26,0c5.89-0.06,11.58,2.37,16.91,5.3
		C80.07,11.84,82.04,23.02,82.24,35z"/>
	<path class="st1" d="M75.93,49.6c3.37,1.03,4.19,3.69,3.47,6.54c-0.99,3.95-1.95,7.9-5.83,10.56c-3.42,2.35-7.15,4.36-9.3,8.5
		c-1.12,2.16-4.18,3.41-6.53,4.79c-1.23,0.73-3.26,0.87-4.12-0.1c-2.38-2.65-6.11-3.92-7.79-6.96c-1.09-1.96-2.16-2.09-3.87-2.03
		c-7.9,0.28-15.81-0.23-22.51-4.74C10.6,60.21,5.4,51.68,4.59,40.84c-0.15-2.03,0.32-4.19,1.6-5.81
		c6.77-8.53,13.36-17.4,22.95-22.97c6.69-3.89,13.88-7.28,21.88-7.28c5.33,0,10.21,2.14,14.89,4.68
		c9.02,4.91,11.35,13.32,11.83,22.6c0.24,4.62-0.05,9.27-0.09,13.9C77.63,47.39,76.56,48.32,75.93,49.6z"/>
	<path class="st2" d="M67.33,16.76c5.52,4.19,5.72,10.55,6.23,16.52c0.58,6.82-1,13.31-5.25,18.93c-0.34,0.45-0.5,1.05-0.75,1.58
		c1.14,0.8,2.14,0.34,3.18,0.2c2.33-0.31,3.59,1.76,3.22,3.98c-0.78,4.71-5.06,6.11-8.05,8.28c-2.47,1.79-4.34,3.86-6.17,6.07
		c-1.68,2.02-3.59,1.9-5.31,0.66c-0.99-0.71-1.74-1.42-3.03-1.53c-2.07-0.18-1.44-1.89-1.42-3.07c0.03-1.99-0.47-2.75-2.73-2.37
		c-6.8,1.12-13.76,1.23-20.2-1.18c-7.03-2.64-12.09-7.94-15.34-14.81c2.41-1.13,4.65,0.59,7.01,0.39c3.25-0.31,6.12,0.72,8.79,2.45
		c1.06,0.66,2.14-1.06,3.19,0.03c0.46,2.59,2.55,3.9,4.29,5.49c0.92,0.84,2.65,1.63,1.78,3.04c-0.84,1.36-2.37,0.31-3.56-0.16
		c-0.33-0.13-0.65-0.3-0.97-0.45c-3.57-1.52-6.06-4.96-10.08-5.68c-1.05-0.22-2.07-0.55-3.44-0.72c7.74,9.62,18.22,9.23,28.73,8.69
		c1.43-0.34,2.78-0.89,4.09-1.55c1-0.48,2.08-0.75,3.02-1.36c0.66-0.46,1.24-1,1.9-1.46c3.08-2,6.23-3.9,8.56-6.83
		c1.13-1.42,1.81-3.04,2.13-4.82C70.82,39.66,70.3,32,68.52,24.5c-0.21,0.3-0.36,1.12-1.29,1.07c-0.83-0.65-1.1-1.58-1.3-2.55
		C66.35,20.93,65.62,18.57,67.33,16.76z"/>
	<path class="st3" d="M23.93,22.38c0.98-0.84,1.96-1.68,2.94-2.53c2.74-2.02,5.71-3.65,8.82-5.02c1.27-0.56,2.6-1.17,4.05-0.54
		c1.46,2.16,3.74,0.77,5.59,1.26c3.6,0.59,7.35-0.1,10.84,1.29c4.82,2.64,5.21,5.08,1.71,10.61c-1.62,1.87-3.12,3.89-5.61,4.73
		c-1.3-0.69-3.24,1.2-4.17-1.03c0.06-1.41,1.24-2.16,1.89-3.21c0.78-1.26,1.77-2.54,0.46-4.06c-4.01-0.98-7.9,0.24-11.84,0.59
		c-1.64-0.38-2.56-1.57-3.31-2.93c-0.78-1.74-1.29,0.37-1.96,0.17c-2.46,0.96-4.32,3.21-7.16,3.38c-2.15-1.08,0.24-1.75,0.24-2.46
		C25.58,23.25,24.68,24.77,23.93,22.38z"/>
	<path class="st4" d="M23.93,22.38c2.4,1.92,2.64-2.19,4.64-1.59c0.92,2.19-3.56,1.64-2.16,4.06c-0.03,1.8-1.61,2.32-2.68,3.26
		c-1.36,1.11-2.56,2.39-3.73,3.7c-1.95,2.25-3.55,4.73-4.72,7.48c-0.64,1.29-0.41,2.79-0.97,4.08c-0.42,0.96-0.22,2.53-2.04,2.23
		c-0.26-0.31-0.45-0.66-0.57-1.05c-0.31-2.68-0.36-5.36,0.01-8.04c0.17-0.61,0.41-1.19,0.77-1.71
		C16.11,30.45,19.36,25.81,23.93,22.38z"/>
	<path class="st5" d="M39.86,14.74c-4.85,0.37-8.61,3.52-12.99,5.11c3.83-4.43,9.15-6.19,14.41-8.08c3.03-0.33,5.95-1.35,9.01-1.4
		c1.11-0.02,2.8-0.47,3.07,0.89c0.29,1.44-1.59,1.35-2.5,1.96C47.25,14.07,43.68,15.33,39.86,14.74z"/>
	<path class="st6" d="M50.65,12.44c0.7-0.35,1.39-0.69,2.53-1.26c-3.59-0.43-6.59,0.72-9.66,0.98c-0.84,0.07-1.61,0.47-2.23-0.39
		c7.99-4.06,17.96-2.33,25.2,4.36c0.66,1.99-0.48,1.72-1.54,1.12c-1.33-0.75-2.42-1.86-3.74-2.64c-2.28-1.35-4.62-2.38-7.35-1.43
		C52.7,13.34,51.54,13.47,50.65,12.44z"/>
	<path class="st7" d="M12.44,45.02c-0.06,0.21-0.02,0.4,0.14,0.55c0.89,0.41,1.36,1.25,2,1.91c1.16,1.65,3.78,1.61,4.45,3.82
		c-2.53,0.05-4.93-0.63-7.34-1.3c-3.37-5.62-3.06-11.56,0.79-15.23c-0.03,0.4-0.07,0.81-0.1,1.21C12,39,11.88,42.01,12.44,45.02z"/>
	<path class="st5" d="M54.26,12.44c4.33-1.71,7.1,1.31,10.14,3.4c1.03,0.71,0.97,0.78,2.09,0.3c0.28,0.21,0.56,0.42,0.84,0.62
		c0,2.22-0.05,4.43-0.74,6.57c0.04,0.77-0.34,0.91-0.98,0.66c-0.93-5.61-4.34-8.84-9.73-10.22C55.19,13.59,54.58,13.15,54.26,12.44z
		"/>
	<path class="st8" d="M56.42,59.59c-0.5,0.39-1.01,0.79-1.51,1.18c-0.42,0.33-0.97,0.45-1.31,0.11c-3.63-3.54-7.31-7.05-9.65-11.67
		c2.33-2.76,5.96-3.59,8.64-5.83c0.57-0.44,1.13-0.89,1.71-1.29c5.21-3.61,6.11-3.18,6.68,3.18C60.86,50.49,60.86,55.75,56.42,59.59
		z"/>
	<path class="st9" d="M65.69,24.15c0.3-0.27,0.6-0.54,0.9-0.82c0.77,0.6,0.56,1.5,0.71,2.29c1.49,2.51-0.22,4.43-1.45,6.19
		c-1.34,1.91-1.61,3.64-0.57,5.65c0.76,2.7,0.99,5.42,0.52,8.2c-0.4,0.95-0.7,2.27-2,1.99c-1-0.22-1.01-1.47-1.1-2.4
		c-0.17-1.75,0.1-3.53-0.29-5.27c-0.19-1.03-0.61-2.03-0.46-3.31c-2.89,2.95-6.42,4.84-9.56,7.26c-2.79,1.8-5.7,3.4-8.58,5.04
		c-0.37,0.37-0.78,0.69-1.24,0.94c-3.34,1.7-6.69,3.38-10.53,3.66c-0.56-0.07-1.07-0.26-1.45-0.7c-1.13-0.4-1.72,1.62-2.97,0.66
		c-2.36-1.48-1.9-2.5,0.54-3.1c5.37-1.32,10.67-2.81,15.38-5.87c4.64-2.42,9.02-5.22,13.01-8.61c1.56-1.45,3.07-2.94,4.5-4.52
		C63.27,29.43,63.23,25.99,65.69,24.15z"/>
	<path class="st10" d="M30.6,52.87c0.49,0.05,0.98,0.1,1.46,0.14c0.94,0.96,2.15-0.4,3.12,0.36c3.27,3.84,6.81,7.3,11.77,8.91
		c0.56,0.18,1.06,0.56,0.83,1.32c-0.83,0.96-1.97,0.62-3.01,0.71c-4.3,0.35-8.54-0.41-12.78-0.87c-6.74-0.73-11.43-4.83-15.65-10.46
		c2.36,0.49,4.33,0.9,6.31,1.31c3.17,2.16,6.08,4.77,9.92,5.79c1.35,0.15,2.31,1.74,4.18,1.03c-1.99-1.84-3.84-3.57-5.71-5.27
		C30.04,54.96,29.45,54.05,30.6,52.87z"/>
	<path class="st11" d="M47.78,63.61c-5.47-1.84-9.89-5.09-13.1-9.92c2.01-1.87,4.61-2.51,7.09-3.38c5.04,2.52,8.57,6.34,10.25,11.78
		C50.69,62.84,49.38,63.64,47.78,63.61z"/>
	<path class="st12" d="M44.4,45.02c-4.93,3.26-10.31,5.46-16.15,6.2c-2.92,0.37-1.22,1.33-0.63,2.31c-2.88-0.66-5.32-3.02-8.58-2.22
		c-1.68-1.21-4.04-1.45-5.06-3.59c1.31-1.19,2.88-0.97,4.39-0.71c6.35,1.11,12.51,0.41,18.52-1.81c3.44-1.07,6.24-3.56,9.77-4.43
		c1.77,0.47,1.3,1.27,0.35,2.22C46.23,43.78,44.49,43.35,44.4,45.02z"/>
	<path class="st13" d="M64.33,36.99c-1.12-1.6-1.3-3.01,0.15-4.69c1.61-1.86,2.82-4.06,2.82-6.68c0.29-1.12,0.58-2.24,1.1-4.25
		c3.07,9.45,3.59,17.95-0.53,26.37c-1.54,0.03-1.45-1.31-1.88-2.21c-0.11-0.52-0.11-1.04-0.02-1.56c0.5-2.7,0.38-5.42,0.18-8.09
		C65.41,36.05,65.4,37.41,64.33,36.99z"/>
	<path class="st14" d="M66.44,45.6c0.48,0.71,0.95,1.42,1.43,2.14c-1.54,6.15-6.45,9.05-11.45,11.85c2.99-4.45,3.61-9.49,3.65-14.68
		c1.82-0.02,1.91,1.3,2.09,2.08c0.22-2.32-1.21-5.36,0.81-8.03c1.08,2.62,0.01,5.55,1.11,8.56c0.42-0.87,0.67-1.39,0.92-1.92
		C65.48,45.19,65.96,45.18,66.44,45.6z"/>
	<path class="st15" d="M52.01,62.1c-2.6-4.44-6.1-8.1-9.94-11.47c-0.53-0.86,0.36-1.06,0.69-1.53c0.21-0.19,0.42-0.38,0.63-0.57
		c0.32,0.19,0.79,0.27,0.66,0.83c3.11,3.41,6.44,6.63,9.06,10.47c0.45,0.67,1.06,0.9,1.8,0.94C54.17,61.7,52.93,61.55,52.01,62.1z"
		/>
	<path class="st16" d="M59.52,62.64c-0.68,2.16,1.27,3.73,0.71,5.74c-3.31-4.71-3.17-5.89,0.68-8.27c1-0.62,1.81-1.06,2.88-0.24
		c1.2,0.92,0.71,1.44-0.35,1.9c-0.05,0.02-0.08,0.2-0.06,0.3c0.24,1.13,2.98,2.17,0.55,3.3c-1.62,0.75-2.28-1.69-3.56-2.43
		C60.18,62.83,59.94,62.79,59.52,62.64z"/>
	<path class="st16" d="M57.81,69.81c0.02,1-0.1,2.03-1.33,2.13c-1.04,0.08-1.33-0.81-1.44-1.68c-0.04-0.35-0.14-0.75-0.03-1.06
		c0.61-1.78-1.28-3.78,0.44-5.41C55.66,63.57,57.75,68.56,57.81,69.81z"/>
	<path class="st17" d="M32.56,60.09c-4.3-0.22-7.48-2.37-9.92-5.79C26.65,55.02,29.11,58.41,32.56,60.09z"/>
	<path class="st18" d="M65.15,56.58c2.42-0.2,4.21-0.34,6-0.49C69.43,57.56,67.77,59.47,65.15,56.58z"/>
	<path class="st19" d="M52.86,69.58c-0.82-1.79-1.96-2.89-0.94-4.5c0.29-0.45,1.02-0.61,1.19-0.26
		C53.79,66.19,53.79,67.63,52.86,69.58z"/>
	<path class="st20" d="M64.4,57.92c1.57,0.87,3.14,1.74,4.9,2.71C67.03,61.14,66.8,61.03,64.4,57.92z"/>
	<path class="st21" d="M65.69,24.15c-1.01,2.8-1.85,5.68-4.18,7.77c-1.39-0.67-1.39-0.67-0.37-2.92c-1.26-0.45-2.46,2.19-3.72,0.07
		c-0.07-0.33-0.06-0.66,0.02-0.99c0.29-0.65,0.67-1.25,1.08-1.84c2.98-4.34,2.46-6.54-2.13-9.17c-3.67-1.7-7.59-0.34-11.35-0.94
		c-1.03,0.19-2.06,0.37-3.09,0.57c-1.61,0.31-2.15-0.5-2.07-1.97c3.42-1.6,7.25-1.26,10.79-2.3c1.2,0,2.4,0,3.6-0.01
		c1.37,0.43,2.75,0.82,4.1,1.31C64.01,15.8,65.45,17.86,65.69,24.15z"/>
	<path class="st22" d="M35.55,21.2c0.96,0.93,1.91,1.87,2.87,2.8c-0.09,2.26-2.3,2.35-3.56,3.36c-1.72,1.38-3.61,2.58-5.57,3.63
		c-1.82,0.67-3.16,2.15-4.91,2.94c-1.38,0.23-2.62,0.17-3.03-1.52c0.27-3.14,3.53-3.73,5-5.85c2.16-2.13,4.73-3.68,7.37-5.13
		C34.3,21.19,34.86,20.71,35.55,21.2z"/>
	<path class="st23" d="M48.51,31.26c0.87,1.54,2.63-1.61,3.37,0.64c0.27,0.26,0.47,0.66,0.22,0.92c-4.59,4.72-10.01,8.02-16.48,9.5
		c-1.08-0.79-1.81-1.78-1.76-3.19c2.8-2.69,6.73-3.37,9.83-5.54C45.37,32.95,46.35,30.87,48.51,31.26z"/>
	<path class="st24" d="M35.57,42.18c5.84-2.79,11.87-5.27,16.31-10.28c1.71-1.49,3.42-2.98,5.13-4.46c0.51,0.06,0.55,0.49,0.66,0.85
		c0.05,0.19,0.07,0.38,0.06,0.58c-0.4,2.2-2.16,3.39-3.64,4.71c-4.84,4.3-10.28,7.71-16.1,10.54c-0.99,0.31-1.98,0.69-3.06,0.5
		c-0.7-0.19-1.31-0.52-1.71-1.15C33.39,41.91,34.46,42.01,35.57,42.18z"/>
	<path class="st25" d="M28.98,30.45c3.14-2.15,6.29-4.3,9.43-6.45c4.25-1.31,8.52-2.14,12.92-0.71c-0.37,0.7-0.99,1.06-1.7,1.32
		c-6.28-0.22-11.87,1.65-16.76,5.6c-0.91,0.5-1.74,1.18-2.83,1.26C29.48,31.35,29.13,31,28.98,30.45z"/>
	<path class="st26" d="M49.94,23.95c0.32-0.53,0.83-0.64,1.39-0.65c2.26,3.79-1.37,5.49-2.82,7.96c-1.45,0.94-2.59,2.35-4.32,2.87
		c-0.68-0.07-1.33-0.19-1.63-0.92c0.16-1.23,1.19-1.74,2.06-2.31C47.23,29.2,48.94,26.86,49.94,23.95z"/>
	<path class="st27" d="M57.68,28.29c-0.22-0.28-0.44-0.57-0.66-0.85c0.39-0.73,0.78-1.46,1.18-2.19c2.13-3.88,1.82-5.16-1.85-7.66
		c0.15-0.33,0.4-0.51,0.75-0.57C62.44,19.78,62.61,23.06,57.68,28.29z"/>
	<path class="st28" d="M34.06,21.79c-2.39,1.7-4.78,3.4-7.18,5.11c-2.54,1.86-2.54,1.86-3.56,0.75c1.03-0.94,2.07-1.87,3.1-2.81
		c2.25-1.28,4.5-2.56,6.75-3.84C33.96,20.7,34.16,21.08,34.06,21.79z"/>
	<path class="st29" d="M57.1,17.02c-0.25,0.19-0.5,0.38-0.75,0.57c-3.66-1.38-7.72,0.34-11.33-1.45
		C49.09,15.88,53.23,14.51,57.1,17.02z"/>
	<path class="st30" d="M34.06,21.79c-0.3-0.26-0.6-0.53-0.89-0.79c1.21-0.96,2.54-1.63,4.14-1.97c-0.02,1.37-1.24,1.47-1.76,2.18
		C35.05,21.4,34.55,21.59,34.06,21.79z"/>
	<path class="st31" d="M34.81,44.17c0.97-0.2,1.93-0.4,2.9-0.61c0.65,0.72,0.52,1.43,0.01,2.15c-5.71,3.04-11.88,3.14-18.07,2.53
		c-1.88-0.19-3.77-0.44-5.67-0.53c-0.73-0.54-1.31-1.18-1.39-2.14c1.59-2.12,0.6-5,2.1-7.15c0.17,0.17,0.37,0.33,0.44,0.55
		c2.16,6.39,3.67,7.24,10.63,6.59C28.81,45.27,31.67,43.78,34.81,44.17z"/>
	<path class="st32" d="M34.81,44.17c-4.26,1.66-8.61,2.74-13.26,2.3c-5.73-0.54-7.33-2.32-6.87-8.05c1.43-2.57,2.54-5.36,5-7.21
		c1.51-0.01,1.25,1.06,1.21,1.99c-1.19,2.02-2.59,3.91-3.26,6.25c-0.64,2.2,0.1,3.41,2.14,4.08c3.15,1.04,6.28,0.9,9.44-0.02
		c1.31-0.38,2.66-1.2,4.05-0.13C33.86,43.46,34.5,43.5,34.81,44.17z"/>
	<path class="st33" d="M20.38,33.12c0.01-0.73,0.11-1.48-0.7-1.91c0.97-1.43,2.11-2.69,3.63-3.56c1.56,1.53,2.2-1.32,3.56-0.75
		c-1.06,2.29-4,2.73-5,5.08C21.16,32.06,21.9,34.06,20.38,33.12z"/>
	<path class="st31" d="M12.44,45.02c-1.13-3.01-1.06-6.02-0.04-9.03C12.42,39,12.43,42.01,12.44,45.02z"/>
	<path class="st34" d="M62.97,38.96c0,2.93,0,5.85,0,9.63c-1.34-1.7-2.12-2.69-2.9-3.68c-0.03-1.55-0.33-3.04-1.12-4.73
		c-2.07,1.36-4.1,2.69-6.13,4.01c-0.72,0.34-0.8-0.02-0.68-0.61c3.2-2.48,6.6-4.72,9.44-7.72C62.87,36.63,62.91,37.8,62.97,38.96z"
		/>
	<path class="st35" d="M52.14,43.59c0.23,0.2,0.45,0.4,0.68,0.61c-2.66,2.15-5.78,3.54-8.76,5.16c-0.22-0.28-0.44-0.55-0.65-0.83
		C46.31,46.88,49.23,45.23,52.14,43.59z"/>
	<path class="st36" d="M44.4,45.02c-1.21-1.42,0.54-1.25,0.96-1.81c0.51-0.69,2.41-0.2,1.67-1.94c1.83-3.52,5.22-4.86,8.62-6.19
		c0.78,0.1,1.37,0.45,1.61,1.24C53.51,40.01,49,42.59,44.4,45.02z"/>
	<path class="st37" d="M66.44,45.6c-0.48,0-0.96,0-1.43,0c-0.22-2.87-0.45-5.75-0.67-8.62c1.24-0.88,0.22-3.09,2.12-3.59
		c0.67,3.59,0.57,7.18,0.08,10.77C66.5,44.65,66.47,45.13,66.44,45.6z"/>
	<path class="st38" d="M57.26,36.33c-0.52-0.27-1.05-0.53-1.57-0.8c1.12-3.32,2.97-5.99,6.46-7.18c0.57,1.33-2.29,2.05-0.64,3.57
		C60.55,33.83,58.88,35.05,57.26,36.33z"/>
	<path class="st39" d="M42.77,49.1c-0.23,0.51-0.46,1.02-0.69,1.53c-2.47,1.02-4.93,2.04-7.4,3.07c-0.73-0.77-2.28,1.66-2.61-0.67
		C35.86,52.35,39.18,50.36,42.77,49.1z"/>
	<path class="st40" d="M62.15,28.34c-2.69,1.92-4.19,4.89-6.46,7.18c-2.89,1.91-5.77,3.83-8.66,5.74c-3.22,1.23-5.95,3.51-9.31,4.44
		c0-0.72,0-1.43,0-2.15c7.35-3.98,14.25-8.58,20.03-14.7c1.83,0.91,2.46-1.08,3.73-1.52C62.75,26.9,62.97,27.3,62.15,28.34z"/>
	<path class="st14" d="M66.53,44.18c-0.03-3.59-0.05-7.18-0.08-10.77C67.76,36.98,67.58,40.58,66.53,44.18z"/>
	<path class="st41" d="M20.38,33.12c0.5-0.38,1-0.76,1.49-1.14c0.25,1.92,1.76,1.25,2.87,1.4c0.16,0.18,0.34,0.38,0.35,0.6
		c0.39,5.3,0.39,5.31,6,4.76c1.05-0.1,2.1-0.49,3,0.4c0.46,1.03,1.58,1.74,1.47,3.05c-0.77,0.4-1.54,0.8-2.31,1.19
		c-3.69,0.72-7.16,2.52-11.15,1.67c-6.73-1.43-7.8-4.1-3.66-9.83C19,34.45,19.73,33.81,20.38,33.12z"/>
	<path class="st42" d="M34.1,39.13c-1.98,0.26-3.95,0.68-5.93,0.74c-4.15,0.13-5.01-1.13-3.77-5.15c0.14-0.44,0.24-0.9,0.35-1.35
		c0.89-1.73,2.47-2.45,4.23-2.92c0.26,0.23,0.51,0.46,0.77,0.69c-0.13,1.44-1.37,2.16-2.09,3.22c-0.47,0.69-1.08,1.41-0.64,2.26
		c0.55,1.05,1.61,0.83,2.54,0.69c3.08-0.48,5.95-1.59,8.72-3c1.46-0.34,2.75-1.44,4.39-0.96c0.61,0.05,1.22,0.12,1.52,0.78
		C41.05,36.25,37.56,37.66,34.1,39.13z"/>
	<path class="st43" d="M42.67,33.35c-1.36,0.53-2.71,1.06-4.07,1.58c-0.85,0.28-1.2-0.23-0.96-0.87c1.24-3.3-0.83-3.3-3.1-3.29
		c-0.9,0-2.21,0.89-2.55-0.87c5.22-4.26,10.9-7.16,17.94-5.95c1.07,2.39-0.67,3.83-2.01,5.18C46.35,30.71,44.44,31.96,42.67,33.35z"
		/>
	<path class="st44" d="M32,29.89c1.6,0.84,3.16-0.71,4.76-0.05c1.87,0.77,4.4,1.24,1.64,3.95c-0.41,0.4-0.3,0.84,0.2,1.14
		c-2.93,1.98-6.24,2.9-9.69,3.32c-1.13,0.14-2.57,0.44-3.22-0.88c-0.61-1.23,0.27-2.33,1.02-3.22c0.91-1.09,2.02-2.01,3.04-3.01
		C30.5,30.73,31.25,30.31,32,29.89z"/>
</g>
</svg>
