<?xml version="1.0" encoding="utf-8"?>
<!-- Generator: Adobe Illustrator 23.0.2, SVG Export Plug-In . SVG Version: 6.00 Build 0)  -->
<svg version="1.1" id="Camada_1" xmlns="http://www.w3.org/2000/svg" xmlns:xlink="http://www.w3.org/1999/xlink" x="0px" y="0px"
	 viewBox="0 0 76.6 125.74" style="enable-background:new 0 0 76.6 125.74;" xml:space="preserve">
<style type="text/css">
	.st0{fill:#010002;}
	.st1{fill:#72AA65;}
	.st2{fill:#5F2518;}
	.st3{fill:#4C9154;}
	.st4{fill:#91391D;}
	.st5{fill:#407246;}
	.st6{fill:#49824F;}
	.st7{fill:#98C180;}
	.st8{fill:#75321D;}
	.st9{fill:#19221A;}
	.st10{fill:#8FB77A;}
	.st11{fill:#7FB06A;}
	.st12{fill:#8DB479;}
	.st13{fill:#B3CD8C;}
	.st14{fill:#4F8A51;}
	.st15{fill:#D37F3C;}
	.st16{fill:#D27D3C;}
	.st17{fill:#AF5331;}
	.st18{fill:#A54E2E;}
	.st19{fill:#A54E2D;}
	.st20{fill:#F1CF5E;}
	.st21{fill:#F7C95D;}
	.st22{fill:#ECBF5A;}
	.st23{fill:#EEBF59;}
	.st24{fill:#F2DF68;}
	.st25{fill:#853A1F;}
	.st26{fill:#FEED6D;}
	.st27{fill:#F1F3BB;}
	.st28{fill:#F3F188;}
	.st29{fill:#C45F38;}
	.st30{fill:#EBBE58;}
	.st31{fill:#9FC283;}
	.st32{fill:#DA943F;}
	.st33{fill:#D27E3B;}
	.st34{fill:#E4B244;}
	.st35{fill:#EDCA49;}
</style>
<g>
	<path class="st0" d="M75.34,76.64c-0.26,5.05,0.55,9.29,0.97,13.58c0.8,8.13-0.22,16.24-0.86,24.34c-0.07,0.95-0.54,1.95-0.37,2.83
		c0.97,5.05-3.16,6.32-6.23,7.86c-3.03,1.53-5.38-0.92-7.51-2.86c-15.42-14.07-26.46-31.17-34.22-50.38
		c-3.14-7.77-3.84-15.65,3.27-22.13c1.57-1.43,1.04-2.14-0.81-2.49c-4.43-0.84-8.86-0.19-13.26,0.12
		C5.77,48.26,2.44,44.87,2.88,33.89c0.08-2.12-1.14-4.34-1.95-6.44c-2.48-6.42,0.11-12.04,6.67-14.19c0.99-0.33,2.09-0.2,2.63-1.49
		c3.3-7.85,10.53-8.09,17.43-8.7c1.46-0.13,2.7-0.3,4.05-0.9c4.45-1.97,9-3.64,13.53-0.17c1.04,0.8,2.1,0.36,3.09,0.08
		c2.9-0.8,5.16,0.12,7.07,2.29c1.5,1.7,3.28,3.21,4.52,5.08c2,3.03,2.65,6.28,0.79,9.81c-2.73,5.18-5.87,10.16-7.91,15.71
		c-1.45,3.96-1.48,3.96,2.54,3.5c1.42-0.16,2.87-0.2,4.31-0.14c7.41,0.29,11.01,2.92,12.19,10.17
		C73.39,58.06,75.33,67.6,75.34,76.64z"/>
	<path class="st1" d="M38.55,47.77c-0.6-1.5-2.17-1.85-3.26-2.76c-0.74-1.61-0.5-4.07-3.36-3.83c-4.75-0.46-9.46-0.77-14.19,0.27
		c-1.72,0.38-3.64,0.53-5.21-0.54c-1.41-0.97-1.97-2.37-0.85-4c3.37-1.37,7.1-0.61,10.8-1.8c-3.52-2.5-7.05-4.7-10.46-7.08
		c-1.11-0.78-2.71-1.27-2.51-3.14c1.18-1.14,2.5-0.51,3.73-0.21c5.45,1.31,10.47,3.42,14.25,7.83c1.68,1.96,3.67,3.43,6.8,3.34
		c-1.86-4.38-5.02-7.62-7.79-11.12c-0.97-1.23-3.16-2.38-1.76-4.14c1.38-1.73,3.31-0.32,4.92,0.38c1.76,0.76,3.26,1.94,4.83,3.29
		c0.21-4.21-0.65-5.71-4.02-7.18c-2.54-1.11-5.15-1.96-7.94-2.15c-1.05-0.07-2.48,0.13-2.86-1.03c-0.49-1.51,1.16-1.81,2.05-2.49
		c0.29-0.22,0.53-0.47,0.64-0.84c4.08-1.21,8.02-0.85,11.37,1.82c1.67,1.33,2.95,3.02,5.24,3.48c1.06,0.21,1.56,1.34,2.13,2.29
		c0.36,0.6,0.27-0.5,0.65-0.54c3.06-0.23,4.97,1.76,6.99,3.56c0.25,4.42-2.38,7.42-5.12,10.36c-0.88-0.19-1.57-0.54-1.45-1.61
		c-0.27,5.2,2.5,9.48,4.34,14.06c-0.06,0.56-0.33,1.01-0.71,1.4c-0.69,0.62-1.48,0.98-2.44,0.83c-2.43-1.77-2.77-5.04-4.63-6.69
		c1.02,2.1,3.33,4,3.44,7.04C41.21,47.67,40.22,48.75,38.55,47.77z"/>
	<path class="st2" d="M43.41,45.75c0.72-0.26,1.43-0.53,2.15-0.79c2.74-0.45,5.3-0.43,6.64,2.65c-1.65,1.72-4.1,1.37-6.05,2.33
		c-2.85,0.66-4.93,2.65-7.22,4.26c-1.24,0.79-2.27,1.79-3.12,2.97c-4.02,4.35-1.31,8.81-0.11,13.18c0.44,1.59,1.71,1.42,2.89,0.64
		c2.3-1.54,4.29-3.44,6.32-5.32c1-0.92,2.09-2.77,3.79-0.77c-0.98,4.01-4.81,5.66-7.11,8.58c-3.09,2.49-2.39,7.32,1.53,9.61
		c1.05,0.61,2.36,0.74,1.44,2.4c-0.76,1.79,0.63,2.94,1.36,4.2c5.53,9.53,12.03,18.33,19.95,26.03c0.46,0.41,0.65,1.24,1.53,0.95
		c0.43-4.79,0.09-9.57,0.18-14.33c-0.01-0.35-0.01-0.7-0.01-1.05c-0.01-0.34,0-0.69,0.01-1.03c0.1-4.01,0.01-8.02,0.05-12.03
		c0.01-1.11-0.08-2.01-1.52-1.09c-1.37,0.67-2.69,1.42-3.94,2.29c-2.84,1.33-5.22,3.78-8.69,3.56c-0.55-0.18-0.92-0.52-0.98-1.13
		c0.34-1.28,1.39-1.93,2.39-2.56c3.13-1.99,6.23-4.03,8.78-6.78c4.2-2.17,4.25-2.31,3.53-6.8c-0.41-2.56-0.41-5.15-0.6-7.73
		c0.04-0.23,0.08-0.47,0.16-0.69c0.32-0.84,0.29-2.16,1.49-2.06c1.05,0.08,0.47,1.45,0.73,2.17c0.19-1.57-1.05-3.11,0.39-4.54
		c1.34,6.22,1.61,12.56,1.39,18.87c-0.27,7.8,0.93,15.54,0.63,23.33c-0.17,4.54-0.35,9.07-1.36,13.51
		c-0.74,3.23-1.93,3.61-4.61,1.23c-4.84-4.3-9.71-8.65-13.38-14.01c-5.4-7.9-10.92-15.73-15.33-24.27
		c-2.98-5.77-4.58-12.08-7.2-17.98c-1.05-2.36-0.15-4.29,1.15-6.01c2.52-3.34,5.24-6.51,7.88-9.76c1.13-0.45,2.26-0.91,3.39-1.36
		C42.28,45.86,42.97,46.08,43.41,45.75z"/>
	<path class="st3" d="M41.89,17.62c0.12,1.26,0.23,2.52,0.35,3.85c-1.42,0.1-1.39-1.08-1.65-1.85c-0.26-0.77-0.05-1.91-0.83-2.26
		C34.25,14.94,30.05,9.2,23,10.66c-0.21,0.04-0.38,0.27-0.57,0.41c-1.07,1.03-2.66,1.03-3.81,1.9c-1.12,0.27-1.67,1.35-2.62,1.83
		c-0.77,0.39-1.65,0.58-1.5-0.85c0.54-3.68,3.6-4.45,6.4-5.43c1-0.35,2.11-0.45,3.18-0.51c4.56-0.24,8.98-0.89,13.17-2.97
		c1.97-0.98,4.35-0.84,5.88,1.17c1.32,1.73,2.91,0.95,4.23,0.53c3.12-1.01,5.07,0.37,6.61,2.77c0.59,0.92,1.26,1.7,2,2.48
		c1.46,1.53,1.75,3.26,0.55,5.19c-2.01,3.24-3.92,6.55-5.88,9.83c-0.83,0.41-1.33-0.09-1.79-0.66c-0.59-1.51,0.56-2.6,0.95-3.87
		c1-2.51,2.9-4.53,3.81-7.08c-0.55-1.21-1.64-2.01-2.23-3.2c-0.9-1.84-2.55-2.47-4.51-2.05c-2.16,0.46-4.23,0.39-6.32-0.44
		c-1.88-0.75-3.39,0.04-4.11,1.79c-0.75,1.83,1.01,2.07,2.12,2.64C40.06,14.92,41.48,15.79,41.89,17.62z"/>
	<path class="st4" d="M69.37,62.87c0,1.66,0,3.32,0,5.23c-1.18-0.56-0.63-1.51-1.05-2.27c-0.4,0.79-0.75,1.48-1.09,2.17
		c-0.16,0-0.33,0-0.49,0c-1.75-0.31-2.89,0.83-4.1,1.77c-2.34,1.83-4.55,3.82-7.22,5.2c-0.72,0.18-1.4,0.15-2.01-0.33
		c-0.51-1.74,1.08-2.15,1.94-3.02c1.59-1.61,3.63-2.69,5.13-4.4c4.88-2.58,6.11-6.53,4.41-11.61c-0.11-0.34-0.11-0.71-0.17-1.06
		c-1.16-6.72-0.58-6.5-7.18-6.5c-1.26,0-2.69,0.22-3.53-1.17c1.67-0.82,1.67-0.82,3.38-0.85c-0.88-0.26-2.59,0.63-2.7-1.07
		c-0.12-1.83,1.55-1.82,2.88-1.77c1.54,0.06,3.11-0.29,4.62,0.26c2.16-0.12,3.33,1.09,3.81,3.02C67.36,51.9,68.89,57.27,69.37,62.87
		z"/>
	<path class="st5" d="M14.5,13.96c0.84,1.06,1.2,0.29,1.74-0.36c0.48-0.56,0.76-1.84,1.98-0.93c0.07,3.16,0.56,6.09,3.83,7.7
		c0.6,0.3,0.99,1.14,0.6,1.88c-0.57,1.06-1.47,0.5-2.19,0.19c-1.32-0.57-2.5-1.4-3.74-2.11c-1.06-0.6-2.07-1.25-3.33-0.53
		c-5.67,2.22-6.14,3.5-3.4,9.09c0.84,1.71,1.88,3.33,2.32,5.22c0.08,0.5,0.05,1-0.08,1.49c-2.52,1.47-0.86,3.91-1.35,5.86
		c-4.03-2.29-4.37-3.08-2.57-6.9c0.41-0.88-0.03-1.42-0.42-1.91c-1.54-1.95-1.95-4.34-2.69-6.59c-1.66-5.03,0.02-8.2,5.2-8.51
		C13.21,17.38,14.01,16.14,14.5,13.96z"/>
	<path class="st6" d="M49.16,26.26c0.5,0.26,0.99,0.51,1.49,0.77c-2.11,4.29-2.83,8.88-3.26,13.6c-0.14,1.52,1.18,2.26,0.96,3.56
		c-0.69,0.68-1.43,0.47-2.18,0.12c-2.54-3.75-4.17-7.87-4.91-12.33c-0.12-0.71-0.56-1.88,0.39-2.19c0.89-0.29,1.25,0.82,1.69,1.48
		c1.16,1.2,1.28,2.61,1.17,3.64C45.66,32.27,45.87,28.43,49.16,26.26z"/>
	<path class="st7" d="M10.9,41.46c-0.6-2.06-3.09-4.4,0.84-5.81c1.15,0.03,1.14,0.61,0.65,1.4c-1.34,2.29-0.26,3.37,1.98,3.57
		c1.53,0.14,3.08-0.02,4.63-0.34c4.72-0.95,9.45-0.81,14.12,0.4c0.74,1.03,0.92,2.43-0.68,2.08c-6.97-1.53-13.96,0.19-20.91-0.39
		c-0.19-0.02-0.36-0.27-0.52-0.45C11.03,41.76,10.99,41.6,10.9,41.46z"/>
	<path class="st8" d="M46.17,44.31c0.73-0.04,1.45-0.08,2.18-0.12c4.58-0.85,9.14-2.12,13.85-0.72c-1.67,0.04-3.33,0.07-5,0.12
		c-0.86,0.03-1.9,0.19-1.92,1.17c-0.03,1.24,1.17,0.82,1.92,0.94c0.89,0.15,1.87-0.3,2.71,0.38c-1.8,1-4.11-0.66-5.71,1.17
		c-0.12,1.33-0.97,1.16-1.86,0.89c-0.11-0.14-0.21-0.27-0.32-0.41c-1.76-1.84-4.22-2.04-6.46-2.77
		C45.76,44.74,45.97,44.52,46.17,44.31z"/>
	<path class="st9" d="M11.02,41.92c2.72,0.58,5.48,0.4,8.17,0.06c4.05-0.51,8.04-0.78,12.05,0.15c1.1,0.25,2.7,0.9,1.89-1.45
		c2.53,0.82,2.94,1.65,2.17,4.32c-6.36-3.55-13.3-1.76-20-2.18C13.85,42.73,12.14,43.62,11.02,41.92z"/>
	<path class="st10" d="M13.16,19.07c1.39-1.42,2.54-0.41,3.76,0.33c1.66,1,3.38,1.92,5.43,2.6c-3.23-2.41-6.57-4.66-4.12-9.34
		c1.16-1.16,2.54-1.76,4.2-1.6c0.67,2.15-2,1.01-2.29,2.84c3.72-0.07,7.27,0.79,10.7,2.25c3.38,1.43,5.67,4.91,5.28,8.45
		c-0.05,0.43-0.19,1.02-0.5,1.22c-0.63,0.42-1.15-0.16-1.51-0.59c-1.84-2.18-4.32-3.36-6.85-4.46c-0.76-0.33-1.72-0.64-2.23,0.28
		c-0.43,0.78,0.41,1.28,0.88,1.77c3.68,3.79,6.85,7.95,9.4,12.57c0.22,0.39,0.26,0.88,0.44,1.52c-3.27,0.17-6.04-0.44-8.11-2.99
		c-4.66-5.76-11.09-8-18.1-9.09c-0.07-0.15-0.13-0.3-0.2-0.45c0.23-1.43,1.36-2.04,2.44-2.69C12.78,21.09,13.9,20.57,13.16,19.07z"
		/>
	<path class="st11" d="M41.89,17.62c-1.7-0.99-2.7-2.95-5.09-3.11c-1.18-0.08-2.61-1.48-1.77-2.92c1.04-1.78,2.44-4.21,4.98-3.08
		c2.61,1.17,4.99,1.43,7.6,0.52c0.32-0.11,0.72-0.06,1.07,0c3.67,0.61,4,4.49,6.29,6.45c-2.85,0.06-3.48,2.47-4.6,4.36
		c-0.48,0.65-0.79,1.53-1.86,1.39C46.3,20.03,44.09,18.82,41.89,17.62z"/>
	<path class="st12" d="M12.39,37.05c-0.01-0.56-0.1-1.09-0.65-1.4c-0.02-0.5-0.03-0.99-0.05-1.49c0.13-2.65-2.2-4.32-2.69-6.71
		c-0.19-0.91-1.51-2.13,0.51-2.65c0,0,0.03,0.03,0.04,0.03c3.51,3.46,8.03,5.5,11.91,8.43c1.02,0.77,2.26,1.29,2.68,2.93
		C20.12,36.2,16.33,37.47,12.39,37.05z"/>
	<path class="st13" d="M48.5,21.23c0.45-0.48,0.9-0.96,1.35-1.43c0.99,0.75,0.37,1.85,0.6,2.77c0.27,1.48-1.4,2.28-1.29,3.7
		c-2.07,2.93-2.72,6.54-4.51,9.95c-1.07-1.73-1.38-3.28-1.31-4.93C45.21,28.01,47.88,25.14,48.5,21.23z"/>
	<path class="st14" d="M43.41,45.75c-0.49,0.22-0.99,0.44-1.48,0.66c-1.08-3.17-3.36-5.68-5.31-9.34
		C40.52,39.4,41.13,43.23,43.41,45.75z"/>
	<path class="st15" d="M53.53,74.42c0.68,0,1.36,0,2.04,0c3-0.4,4.99-2.46,7.16-4.27c0.99-0.82,1.86-2.38,3.53-1.05
		c1.33,3.01,1.28,6.26,1.49,9.43c0.18,2.81-2.31,3.56-4.23,4.65c-2.31,4.5-7.28,5.65-10.81,8.6c-1.48,2.18-2.84,0.95-3.56-0.46
		c-1.32-2.6-4.44-4.63-2.86-8.28c0.36-0.84-0.52-0.14-0.76-0.4c-2.56-2.74-4.63-5.69-4.5-9.68c2.49-2.59,4.99-5.18,7.48-7.78
		c0.43-1.67,0.27-2.88-1.76-1.59c-1.99,1.27-3.89,2.7-5.83,4.06c-1.39,0.97-2.8,1.09-3.53-0.64c-1.42-3.35-3.03-6.71-2-10.54
		c0.83-1.1,1.67-2.19,2.96-2.8c3.61-1.48,6.99-3.81,11.22-2.87c1.55,0.52,1.12,1.85,1.27,2.99c0.27,1.98,1.31,3.85,1.7,5.63
		c0.86,3.91,4.51,5.29,6.11,8.34c0.31,1.88-1.51,2.2-2.34,3.26C55.41,72.17,53.25,72.31,53.53,74.42z"/>
	<path class="st16" d="M68.51,100.4c0.05,0.23,0.05,0.46,0.01,0.7c-0.75,0.85-1.76,1.23-2.82,1.51c-1.68,0.27-3.18,1.03-4.63,1.84
		c-2.36,1.3-4.09,0.69-5.38-1.55c-0.12-0.21-0.27-0.39-0.39-0.6c-3.3-5.76-5.38-6.69,2.2-10.04c1.71-0.76,3.09-2.19,4.49-3.48
		c0.87-1.25,2.27-1.64,3.58-2.16c2.13,0.75,2.48,2.43,2.67,4.46C68.53,94.18,67.25,97.33,68.51,100.4z"/>
	<path class="st17" d="M61.98,88.76c-1.59,3-4.26,4.72-7.29,5.95c-1.7,0.7-2.15,1.62-1.05,3.23c1.41,2.05,2.29,4.86,4.2,6.08
		c2.08,1.33,4.13-1.53,6.38-2.04c0.46-0.11,0.94-0.12,1.42-0.18c0.47,1.3-0.72,1.51-1.37,2.01c-1,0.77-2.22,1.31-2.37,2.78
		c0.07,2.03,1.59,3.06,2.93,4.17c1.2,1,2.36,1.96,2.31,3.72c-0.16,0.88-0.16,1.88-1.46,1.84c-7.88-6.64-13.58-15.04-18.99-23.66
		c-1.14-1.82-2.15-3.73-3.34-5.53c-0.73-1.11-0.73-1.73,0.69-1.96c1.67,1.53,2.73,3.53,4.05,5.33c1.39,1.9,2.87,3.07,5.31,2.1
		C56.6,92.07,59.04,89.85,61.98,88.76z"/>
	<path class="st18" d="M35.39,56.47c0.48,3.16,1.19,6.26,2.26,9.28c0.64,1.8,1.27,2.71,3.15,0.97c1.63-1.52,3.61-2.68,5.43-3.99
		c1.23-0.88,2.76-1.6,3.79-0.21c1,1.34-0.77,1.88-1.51,2.66c-1.27-1.48-1.84,0.12-2.51,0.67c-2.39,1.97-4.65,4.1-7.04,6.06
		c-1.87,1.53-3.56,1.56-4.18-1.2C33.71,65.92,30.48,61.01,35.39,56.47z"/>
	<path class="st19" d="M53.4,92.61c-2.09,1.63-3.94,1.29-5.36-0.86c-1.41-2.14-3.68-3.76-4-6.56c0.09-0.22,0.18-0.44,0.26-0.66
		c-3.08-0.25-3.64-2.98-4.98-4.99c-1.94-2.91-1.79-5.15,1.71-6.59c1.2,2.58,2.49,5.12,3.58,7.74c0.66,1.6,1.71,1.69,3.41,1.27
		C46,83.43,46.14,85,47.29,86.73c0.91,1.38,1.78,2.8,2.52,4.28c0.73,1.46,1.7,1.42,2.9,0.76C52.94,92.05,53.17,92.33,53.4,92.61z"/>
	<path class="st20" d="M63.52,83.17c4.15-2.66,4.23-6.42,2.91-10.6c-0.39-1.24-0.51-2.56-0.76-3.84c-0.01-1.21,0.53-1.26,1.38-0.65
		c0,0,0.16-0.08,0.16-0.08c0.99,3.18,0.82,6.5,1.09,9.76C68.61,81.32,67.34,82.65,63.52,83.17z"/>
	<path class="st21" d="M68.51,100.4c-2.12-0.48-1.11-1.92-0.97-3.11c0.44-3.76,0.89-7.54-1.97-10.69c0.86-0.74,1.73-1.49,2.94-2.54
		C68.51,89.79,68.51,95.1,68.51,100.4z"/>
	<path class="st22" d="M49.81,51.43c-3.51-0.02-6.86,0.62-9.94,2.37c-0.57,0.32-1.06,0.53-1.52-0.13c2.18-1.81,4.31-3.69,7.18-4.36
		c1.47,0.27,3.06,0.1,4.3,1.2C50.04,50.82,50.03,51.13,49.81,51.43z"/>
	<path class="st23" d="M68.52,101.92c-0.04,5.39-0.06,10.78-0.13,16.17c0,0.22-0.38,0.48-0.64,0.63c-0.07,0.04-0.33-0.25-0.51-0.38
		c-0.31-3.1,0.1-6.27-0.84-9.32c-0.31-1.6-0.36-3.21-0.18-4.83C66.54,102.98,66.77,101.68,68.52,101.92z"/>
	<path class="st24" d="M49.86,50.76c-1.56-0.14-3.09-0.37-4.33-1.45c2.06-0.93,4.23-1.45,6.49-1.59c0,0-0.03,0.26-0.03,0.26
		c1.09,0.58,2.38,0.96,2.4,2.54c-0.16,0.35-0.41,0.61-0.76,0.77C52.27,51.79,51.03,51.55,49.86,50.76z"/>
	<path class="st25" d="M68.52,101.92c-0.95,0.31-1.35,1.04-1.52,1.95c-1.6,1.45-3.31,2.65-5.65,2.3c-0.07-2.93,3.19-2.58,4.29-4.37
		c0.88-0.58,1.87-0.69,2.88-0.71C68.52,101.37,68.52,101.65,68.52,101.92z"/>
	<path class="st26" d="M67.21,109.11c1.02,3.07,0.9,6.15,0.04,9.24c-0.52-0.67-1.04-1.34-1.57-2.02c0.87-0.51,0.74-1.37,0.77-2.18
		C67.28,112.56,65.25,110.53,67.21,109.11z"/>
	<path class="st27" d="M50.45,22.56c-0.98-0.75-0.44-1.84-0.6-2.77c0.11-1.63,1.2-2.76,2.03-4.02c0.9-1.37,1.93-1.59,3.09-0.29
		C53.46,17.84,51.96,20.2,50.45,22.56z"/>
	<path class="st28" d="M54.16,50.02c-0.95-0.44-1.62-1.17-2.17-2.04c0.72-0.29,1.72,0.26,2.2-0.74c10.11-1.07,9.66-0.97,11.85,8.68
		c1.34,5.91-0.19,9.56-5.29,12.17c-0.64,0.33-0.88-0.09-1.06-0.59c0.21-1.21,1.01-2.04,1.84-2.86c0.84-0.69,1.72-1.35,2.14-2.42
		c0.27-3.04-0.77-5.83-1.61-8.65c-0.8-2.72-2.46-3.99-5.36-2.9C55.76,50.83,54.89,50.7,54.16,50.02z"/>
	<path class="st29" d="M67.06,68.08c-0.6-0.08-1.08,0.09-1.38,0.65c-2.42,1.62-4.08,4.19-6.75,5.47c-1.04,0.5-2.13,1.79-3.35,0.22
		c2.86-2.27,5.75-4.52,8.58-6.83C65.39,66.58,66.4,66.1,67.06,68.08z"/>
	<path class="st30" d="M60,67.36c0.25,0.24,0.51,0.49,0.76,0.73c-2.41,2.11-4.81,4.22-7.22,6.34c-0.36,0.52-0.95,0.95-1.46,0.61
		c-0.78-0.52,0-0.98,0.35-1.31c2.01-1.92,4.05-3.8,6.08-5.7C58.8,67.35,59.2,66.91,60,67.36z"/>
	<path class="st31" d="M9.51,24.81c-0.9,2.54,0.91,4.34,1.83,6.35c0.46,1.01,1.74,1.81,0.36,3c-0.92-1.79-1.85-3.57-2.76-5.36
		c-2.92-5.74-1.97-7.93,4.22-9.73c0.66,0.08,1.55-0.24,1.79,0.66c0.21,0.8-0.51,1.28-1.06,1.68C12.41,22.51,10.35,22.87,9.51,24.81z
		"/>
	<path class="st32" d="M60,67.36c-0.5,0.22-1,0.44-1.5,0.66c-5.86-3.98-8.71-9.53-8.69-16.59c0.01-0.22,0.03-0.45,0.05-0.67
		c1.42-0.02,2.84-0.04,4.25-0.07c0.91-0.3,1.03,0.38,1.01,0.95c-0.11,4.84,2.09,8.47,5.78,11.39c0.61,0.48,1.42,1,1.1,2.05
		C61.34,65.84,60.67,66.6,60,67.36z"/>
	<path class="st33" d="M67.21,109.11c-0.35,1.67,0.29,3.48-0.76,5.04c-0.42-2.52-3.1-2.94-4.4-4.69c-0.8-1.09-1.74-1.91-0.69-3.28
		c1.92-0.66,3.51-2.15,5.65-2.29C67.07,105.62,67.14,107.37,67.21,109.11z"/>
	<path class="st34" d="M62.01,65.08c-4.95-3.52-8.17-8-7.89-14.39c0.02-0.23,0.03-0.45,0.04-0.68c0.95-0.01,1.89-0.01,2.84-0.02
		c0.97-0.6,1.8-0.24,1.83,0.77c0.14,4.24,1.77,7.57,5.34,9.98c0.73,0.49,0.52,1.51,0.12,2.31C63.71,63.94,63.13,64.81,62.01,65.08z"
		/>
	<path class="st35" d="M64.28,63.05c-0.08-0.7,0.11-1.63-0.6-1.96c-4.54-2.09-5.89-5.79-5.54-10.45c0.01-0.19-0.75-0.43-1.14-0.65
		c2.49-1.45,4.24-0.92,5.29,1.85C63.66,55.47,65.2,59.04,64.28,63.05z"/>
</g>
</svg>
