<?xml version="1.0" encoding="utf-8"?>
<!-- Generator: Adobe Illustrator 23.0.2, SVG Export Plug-In . SVG Version: 6.00 Build 0)  -->
<svg version="1.1" id="Camada_1" xmlns="http://www.w3.org/2000/svg" xmlns:xlink="http://www.w3.org/1999/xlink" x="0px" y="0px"
	 viewBox="0 0 86.54 135.13" style="enable-background:new 0 0 86.54 135.13;" xml:space="preserve">
<style type="text/css">
	.st0{fill:#FEFEFE;}
	.st1{fill:#010102;}
	.st2{fill:#72AA65;}
	.st3{fill:#5F2518;}
	.st4{fill:#4C9154;}
	.st5{fill:#407246;}
	.st6{fill:#943B1E;}
	.st7{fill:#4A8250;}
	.st8{fill:#98C17F;}
	.st9{fill:#7C341E;}
	.st10{fill:#19221A;}
	.st11{fill:#8FB77B;}
	.st12{fill:#7FB06A;}
	.st13{fill:#8DB479;}
	.st14{fill:#B0CA8A;}
	.st15{fill:#4F8A51;}
	.st16{fill:#D37F3C;}
	.st17{fill:#D27D3C;}
	.st18{fill:#AE5331;}
	.st19{fill:#A54E2E;}
	.st20{fill:#F3F084;}
	.st21{fill:#A64F2E;}
	.st22{fill:#C45E38;}
	.st23{fill:#EDC65C;}
	.st24{fill:#F1CE5E;}
	.st25{fill:#F7C95D;}
	.st26{fill:#EEBF59;}
	.st27{fill:#873B20;}
	.st28{fill:#FEED6D;}
	.st29{fill:#E7ECB2;}
	.st30{fill:#A0C283;}
	.st31{fill:#EBBE58;}
	.st32{fill:#DA963F;}
	.st33{fill:#D37F3B;}
	.st34{fill:#E3AF44;}
	.st35{fill:#EDC848;}
</style>
<g>
	<path class="st0" d="M27.98,56.53c-4.72,0.25-8.73,0.56-12.75,0.66c-4.44,0.1-9.97-4.74-11.44-10.07c-0.7-2.51-1.52-5.05-0.92-7.77
		c0.38-1.72-0.47-3.32-1.14-4.79c-4.56-10.02,0.51-16.66,8.08-20.72c0.73-0.39,1.56-0.55,2-1.36c4.28-7.93,12.25-8.55,19.78-9.58
		c2.18-0.3,4.07-1.16,6.13-1.58c1.99-0.41,4.07-1.56,5.92-1.25c5.83,0.96,12.23,0.59,17.3,3.6c4.6,2.73,8.49,6.92,9.95,12.66
		c0.89,3.46,0.52,6.63-1.1,9.72c-2.05,3.91-4.13,7.81-6.22,11.77C75.76,39.97,79.49,41,82.4,57.65c2.4,13.74,2.65,27.62,3.87,41.42
		c0.71,8.05-0.05,16.52-1.82,24.6c-0.63,2.89-4,4.36-5.6,6.85c-4.63,7.19-10.33,4.79-14.8,0.81c-9.71-8.65-17.85-18.6-24.57-29.83
		c-4.32-7.22-8.4-14.47-11.53-22.27c-1.76-4.39-2.34-9.05-2.92-13.65C24.65,62.47,25.99,59.53,27.98,56.53z"/>
	<path class="st1" d="M80.29,80.87c-0.29,5.32,0.54,9.69,0.96,14.1c0.76,8.01-0.24,16-0.8,23.99c-0.07,0.95-0.56,1.95-0.39,2.83
		c1.01,5.19-3.11,6.66-6.38,8.14c-3.18,1.44-5.53-1.21-7.74-3.25c-15.09-13.87-25.81-30.7-33.7-49.48c-1.6-3.82-2.16-7.89-2.47-11.9
		c-0.31-4.06,2.68-7.01,4.89-10.12c0.53-0.74,1.87-1.14,1.49-2.23c-0.43-1.23-1.82-0.93-2.82-1.08c-5.37-0.77-10.7,0.61-16.09,0.28
		c-4.83-0.29-7.92-2.38-9.2-7.07c-0.34-1.26-0.89-2.72-0.56-3.86c0.98-3.44-0.37-6.43-1.71-9.24c-3.38-7.11,1.93-12.21,6.9-14.11
		c0.99-0.38,2-0.33,2.55-1.59c3.38-7.77,10.59-8.01,17.5-8.57c1.34-0.11,2.48-0.23,3.72-0.79c4.55-2.06,9.18-3.8,13.84-0.21
		c0.91,0.7,1.87,0.32,2.76,0.06c3.19-0.96,5.6,0.2,7.64,2.59c1.4,1.63,3.12,3.04,4.25,4.83c1.94,3.07,2.54,6.31,0.65,9.83
		c-2.88,5.38-6.09,10.59-8.18,16.38c-0.86,2.39-0.82,3.61,2.29,2.86c1.6-0.38,3.34-0.34,5-0.27c7.26,0.3,10.8,2.85,12.01,9.93
		C78.35,62.44,80.17,72,80.29,80.87z"/>
	<path class="st2" d="M43.48,52.39c-0.6-1.5-2.16-1.85-3.25-2.76c-0.74-1.61-0.5-4.07-3.36-3.82c-4.75-0.46-9.46-0.77-14.19,0.27
		c-1.72,0.38-3.64,0.53-5.21-0.54c-1.41-0.97-1.97-2.37-0.85-4c3.37-1.39,7.1-0.58,10.78-1.82c-3.5-2.48-7.03-4.69-10.44-7.07
		c-1.11-0.78-2.71-1.27-2.51-3.14c1.18-1.14,2.5-0.51,3.73-0.21c5.45,1.31,10.47,3.42,14.25,7.83c1.68,1.96,3.67,3.43,6.79,3.34
		c-1.86-4.38-5.02-7.62-7.79-11.12c-0.97-1.23-3.16-2.38-1.76-4.14c1.38-1.73,3.29-0.29,4.93,0.37c1.79,0.72,3.15,2.12,4.84,3.08
		c0.2-4-0.66-5.49-4.03-6.97c-2.54-1.11-5.15-1.96-7.94-2.15c-1.05-0.07-2.48,0.13-2.86-1.03c-0.49-1.51,1.16-1.81,2.05-2.49
		c0.29-0.22,0.53-0.47,0.64-0.84c4.08-1.21,8.02-0.85,11.37,1.82c1.67,1.33,2.95,3.02,5.24,3.48c1.06,0.21,1.56,1.34,2.13,2.29
		c0.36,0.6,0.28-0.5,0.66-0.54c3.07-0.23,4.99,1.76,7,3.59c0.2,4.28-2.02,7.28-5.18,9.77c-0.88-0.4-0.88-0.4-1.58-1.2
		c0.25,3.99,1.31,7.55,3.06,10.93c0.59,1.13,1.49,2.15,1.42,3.55c-0.55,1.28-1.48,2-2.91,1.98c-2.69-1.62-2.81-5.06-4.74-6.57
		c0.87,2.02,3.3,3.87,3.35,6.89C46.15,52.29,45.16,53.37,43.48,52.39z"/>
	<path class="st3" d="M43.48,52.39c1.13-0.45,2.26-0.91,3.39-1.36c0.35-0.55,1.04-0.32,1.48-0.66c0.94-0.48,1.88-0.96,2.82-1.44
		c0.25-0.27,0.56-0.37,0.92-0.3c1.02,0.53,2.02,1.07,3.12,1.43c2.83,0.93,1.86,1.96,0.01,2.96c-0.59,0.35-1.19,0.65-1.85,0.85
		c-3.49,0.63-6.39,2.41-9.03,4.68c-1.38,0.85-2.62,1.87-3.56,3.21c-4.1,4.43-1.36,8.94-0.06,13.36c0.47,1.6,1.81,1.15,2.91,0.42
		c2.28-1.53,4.23-3.42,6.24-5.28c1-0.92,2.09-2.71,3.76-0.73c-0.98,4.02-4.82,5.67-7.12,8.59c-2.88,2.34-2.88,6.78,0.81,8.93
		c2.47,1.43,2.29,3,2.37,4.99c5.54,10.55,12.64,19.93,21.1,28.29c0.46,0.41,0.65,1.24,1.53,0.96c0.43-4.79,0.09-9.57,0.18-14.33
		c-0.01-0.35-0.01-0.7-0.01-1.05c-0.01-0.34,0-0.69,0.01-1.03c0.1-4.01,0.01-8.02,0.05-12.03c0.01-1.1-0.07-2.02-1.51-1.08
		c-1.34,0.74-2.6,1.6-3.95,2.33c-2.94,1.04-5.22,3.72-8.67,3.51c-0.55-0.18-0.92-0.51-0.99-1.12c1.29-2.67,4.05-3.57,6.28-5.07
		c2.07-1.4,4.28-2.6,6.02-4.45c2.66-1.53,3.19-3.72,2.45-6.61c-0.7-2.73-0.24-5.63-0.87-8.41c0.07-0.98,0.4-1.8,1.28-2.33
		c1.3-0.24,1.12,0.76,1.27,1.63c0.19-1.33-0.98-2.72,0.44-3.77c1.35,6.22,1.61,12.55,1.39,18.87c-0.27,7.8,0.93,15.53,0.63,23.33
		c-0.17,4.54-0.35,9.07-1.36,13.51c-0.74,3.23-1.93,3.61-4.61,1.23c-4.83-4.3-9.71-8.65-13.38-14.01
		c-5.4-7.9-10.92-15.73-15.33-24.27c-2.98-5.77-4.58-12.08-7.2-17.98c-1.05-2.36-0.15-4.29,1.15-6.01
		C38.11,58.81,40.84,55.63,43.48,52.39z"/>
	<path class="st4" d="M46.82,22.24c0.12,1.26,0.23,2.53,0.35,3.85c-1.42,0.1-1.39-1.08-1.65-1.85c-0.26-0.77-0.05-1.91-0.83-2.26
		c-5.51-2.44-9.71-8.17-16.77-6.71c-0.21,0.04-0.38,0.27-0.57,0.41c-1.07,1.03-2.66,1.03-3.82,1.9c-1.12,0.27-1.67,1.35-2.62,1.83
		c-0.77,0.39-1.65,0.58-1.5-0.85c0.26-2.12,1.54-3.38,3.4-4.25c1.53-0.72,3.08-1.24,4.76-1.51c4.67-0.77,9.53-0.33,13.93-2.91
		c2.23-1.31,4.93-1.19,6.82,1.18c1.26,1.58,2.77,0.65,3.95,0.28c3.13-0.99,5.08,0.38,6.62,2.78c0.59,0.92,1.26,1.7,2,2.48
		c1.33,1.4,1.82,3.04,0.72,4.87c-2.03,3.37-4.03,6.76-6.05,10.14c-0.83,0.41-1.29-0.09-1.73-0.68c-0.29-1.45,0.59-2.62,0.96-3.91
		c1.21-2.36,2.74-4.55,3.72-7.02c-0.53-1.22-1.64-2.01-2.23-3.21c-0.9-1.84-2.54-2.48-4.51-2.06c-2.17,0.46-4.24,0.4-6.32-0.44
		c-1.88-0.75-3.39,0.04-4.11,1.78c-0.76,1.83,1,2.07,2.11,2.64C45,19.54,46.41,20.41,46.82,22.24z"/>
	<path class="st5" d="M19.44,18.58c0.84,1.06,1.2,0.28,1.74-0.36c0.48-0.56,0.76-1.84,1.98-0.93c0.07,3.16,0.56,6.09,3.83,7.7
		c0.6,0.3,0.99,1.14,0.6,1.88c-0.57,1.06-1.47,0.5-2.19,0.19c-1.32-0.57-2.5-1.4-3.74-2.11c-1.06-0.6-2.07-1.25-3.33-0.53
		c-5.67,2.22-6.14,3.5-3.39,9.09c0.84,1.71,1.88,3.33,2.32,5.22c0.08,0.5,0.05,1-0.08,1.49c-2.52,1.47-0.86,3.91-1.35,5.86
		c-4.03-2.29-4.36-3.08-2.57-6.9c0.41-0.88-0.03-1.42-0.42-1.91c-1.54-1.95-1.95-4.34-2.69-6.59c-1.66-5.03,0.02-8.2,5.2-8.51
		C18.14,21.99,18.94,20.76,19.44,18.58z"/>
	<path class="st6" d="M74.3,67.49c0,1.47,0,2.93,0,5.14c-0.76-1.41-1.15-2.14-1.54-2.87c-3.9,3.56-7.73,7.2-12.38,9.84
		c-0.72,0.18-1.4,0.16-2.01-0.31c-0.53-1.37,0.59-1.88,1.34-2.58c1.82-1.71,4-3,5.7-4.85c5.13-2.61,5.67-6.67,4.46-11.89
		c-1.56-6.68-1.26-6.74-7.93-7.29c-1.11-0.09-2.46,0.17-2.98-1.33c1.86-2.31,4.34,0.29,6.11-0.73c-0.43,0.11-1.11,0.05-1.8,0.04
		c-0.94-0.01-1.66-0.32-1.67-1.41c-0.01-1.08,0.66-1.47,1.63-1.42c1.3,0.07,2.63-0.28,3.89,0.27c2.17-0.13,3.33,1.07,3.82,3.01
		C72.29,56.52,73.82,61.9,74.3,67.49z"/>
	<path class="st7" d="M54.09,30.88c0.5,0.25,0.99,0.51,1.49,0.76c-2.25,4.37-2.83,9.12-3.34,13.92c-0.14,1.31,1.2,2.01,1.02,3.25
		c-0.33,0.52-0.82,0.41-1.3,0.31c-0.27-0.06-0.53-0.13-0.8-0.19c-2.68-3.78-4.28-7.99-5.01-12.54c-0.38-2.36,0.61-2.39,2.2-1.19
		c0.97,0.92,0.78,2.31,1.23,3.59C50.97,35.9,51.14,32.6,54.09,30.88z"/>
	<path class="st8" d="M15.83,46.08c-0.6-2.07-3.09-4.4,0.84-5.81c1.15,0.03,1.14,0.61,0.65,1.4c-1.34,2.29-0.26,3.37,1.98,3.57
		c1.53,0.14,3.07-0.02,4.63-0.34c4.72-0.95,9.45-0.81,14.12,0.4c0.74,1.03,0.92,2.43-0.68,2.08c-6.97-1.53-13.96,0.19-20.91-0.39
		c-0.19-0.02-0.36-0.27-0.52-0.45C15.96,46.38,15.92,46.22,15.83,46.08z"/>
	<path class="st9" d="M51.97,49.11c0.43-0.1,0.86-0.2,1.3-0.31c3.5-0.32,6.9-1.45,10.45-1.29c1.15,0.05,2.38-0.29,3.4,0.58
		c-0.12,0.01-0.24,0-0.35,0.03c-1.5,0.46-4.17-0.91-4.38,0.96c-0.27,2.41,2.82,0.3,3.85,1.66c-2.28,0.91-4.94-0.63-7.16,0.95
		c-1.25,1.54-2.65,2.06-4.34,0.66c0.48-0.29,1.35-0.53,1.38-0.86c0.09-0.9-0.83-0.27-1.23-0.54C53.92,50.33,52.94,49.73,51.97,49.11
		z"/>
	<path class="st10" d="M15.95,46.54c2.72,0.58,5.48,0.4,8.17,0.06c4.05-0.51,8.04-0.78,12.05,0.15c1.07,0.25,2.69,0.89,1.89-1.45
		c2.53,0.82,2.94,1.65,2.17,4.32c-6.36-3.55-13.3-1.76-20-2.18C18.79,47.35,17.07,48.24,15.95,46.54z"/>
	<path class="st11" d="M18.09,23.69c1.39-1.42,2.54-0.41,3.76,0.33c1.66,1,3.38,1.92,5.43,2.6c-3.23-2.41-6.57-4.66-4.12-9.34
		c1.16-1.16,2.54-1.76,4.2-1.6c0.67,2.14-2,1.01-2.29,2.84c3.72-0.07,7.27,0.79,10.7,2.25c3.38,1.43,5.67,4.91,5.28,8.45
		c-0.05,0.43-0.19,1.02-0.5,1.22c-0.63,0.42-1.15-0.16-1.51-0.59c-1.84-2.18-4.32-3.36-6.85-4.46c-0.76-0.33-1.72-0.64-2.23,0.28
		c-0.43,0.78,0.41,1.28,0.88,1.77c3.68,3.79,6.85,7.95,9.4,12.57c0.22,0.39,0.26,0.88,0.44,1.52c-3.27,0.17-6.04-0.44-8.11-2.99
		c-4.66-5.76-11.09-8-18.1-9.09c-0.07-0.15-0.13-0.3-0.2-0.45c0.23-1.43,1.36-2.04,2.44-2.69C17.71,25.71,18.83,25.19,18.09,23.69z"
		/>
	<path class="st12" d="M46.82,22.24c-1.7-0.99-2.7-2.95-5.09-3.11c-1.18-0.08-2.61-1.47-1.78-2.92C41,14.43,42.4,12,44.94,13.14
		c2.61,1.17,4.98,1.43,7.6,0.52c0.32-0.11,0.72-0.06,1.07,0c3.67,0.61,4.01,4.5,6.31,6.45c-3-0.03-3.12,2.89-4.55,4.47
		c-0.54,0.58-0.91,1.46-1.95,1.27C51.22,24.64,49.02,23.44,46.82,22.24z"/>
	<path class="st13" d="M17.32,41.67c-0.01-0.56-0.11-1.09-0.65-1.4c-0.01-0.5-0.03-0.99-0.05-1.49c0.13-2.65-2.2-4.32-2.7-6.71
		c-0.19-0.91-1.51-2.13,0.51-2.65c0,0,0.03,0.03,0.04,0.03c3.51,3.46,8.01,5.52,11.92,8.42c1.05,0.78,2.09,1.45,2.94,2.94
		C25.05,40.82,21.26,42.09,17.32,41.67z"/>
	<path class="st14" d="M53.42,25.84c0.45-0.48,0.9-0.96,1.36-1.44c1.1,0.75,0.21,1.99,0.72,2.88c-0.47,1.2-0.93,2.4-1.4,3.6
		c-1.99,3.21-3.27,6.7-4.18,10.98c-1.39-2.43-1.83-4.46-1.56-6.67C50.68,32.42,52.75,29.51,53.42,25.84z"/>
	<path class="st15" d="M48.34,50.37c-0.49,0.22-0.98,0.44-1.48,0.66c-1.1-3.16-3.3-5.71-5.49-9.45
		C45.45,44.02,46.06,47.85,48.34,50.37z"/>
	<path class="st16" d="M58.46,79.05c0.68,0,1.37,0,2.05,0c2.91-0.39,4.88-2.37,6.99-4.13c1.01-0.85,1.84-2.4,3.6-1.36
		c1.39,4.92,3.3,9.88-1.07,14.36c-3.69,3.46-8.37,5.48-12.39,8.47c-1.48,2.19-2.84,0.94-3.55-0.46c-1.32-2.59-4.44-4.63-2.86-8.28
		c0.36-0.83-0.52-0.14-0.77-0.41c-2.55-2.74-4.64-5.69-4.49-9.68c2.49-2.59,4.98-5.18,7.47-7.77c0.43-1.67,0.26-2.87-1.76-1.58
		c-1.99,1.27-3.89,2.7-5.83,4.06c-1.39,0.97-2.8,1.09-3.53-0.64c-1.42-3.35-3.03-6.71-2-10.54c0.94-1.13,1.71-2.43,3.25-2.88
		c3.33-1.66,6.6-3.5,10.54-2.93c1.42,0.29,1.76,1.26,1.85,2.6c0.43,5.88,3.27,10.38,8.06,13.71c0.85,1.88-0.97,2.27-1.77,3.26
		C61.06,76.31,58.51,76.56,58.46,79.05z"/>
	<path class="st17" d="M73.44,105.02c0.05,0.23,0.05,0.46,0.01,0.69c-0.75,0.86-1.76,1.23-2.82,1.51c-1.68,0.27-3.18,1.03-4.63,1.84
		c-2.36,1.3-3.94,0.6-5.41-1.53c-4.47-6.47-4.48-6.44,1.82-10.66c1.57-1.05,3.18-2.1,4.5-3.49c1.2-0.72,2.39-1.44,3.59-2.16
		c2.13,0.75,2.48,2.43,2.67,4.46C73.47,98.79,72.18,101.95,73.44,105.02z"/>
	<path class="st18" d="M66.91,93.38c-1.59,3.01-4.26,4.72-7.29,5.95c-1.7,0.7-2.15,1.62-1.04,3.23c1.41,2.05,2.29,4.86,4.2,6.08
		c2.08,1.33,4.13-1.53,6.38-2.04c0.46-0.11,0.94-0.12,1.42-0.18c0.48,1.3-0.72,1.51-1.37,2.01c-1,0.77-2.21,1.31-2.37,2.78
		c0.07,2.03,1.59,3.06,2.93,4.17c1.2,1,2.36,1.96,2.31,3.72c-0.16,0.88-0.16,1.88-1.47,1.84c-9.23-8.14-16.12-18.03-21.75-28.88
		c2.4-0.46,2.88,1.67,3.84,2.99c1.46,2.02,3.05,3.28,5.64,2.17C61.51,96.65,63.91,94.35,66.91,93.38z"/>
	<path class="st19" d="M40.33,61.08c0.48,3.16,1.19,6.26,2.26,9.28c0.64,1.8,1.27,2.71,3.15,0.97c1.63-1.52,3.61-2.68,5.43-3.99
		c1.23-0.88,2.76-1.6,3.79-0.21c1,1.34-0.77,1.88-1.51,2.66c-1.27-1.48-1.84,0.12-2.51,0.67c-2.39,1.97-4.65,4.1-7.04,6.06
		c-1.87,1.53-3.56,1.56-4.18-1.2C38.64,70.54,35.41,65.63,40.33,61.08z"/>
	<path class="st20" d="M54.74,52.36c1.52,0.26,2.92-0.27,4.34-0.66c10.19-0.38,9.76-0.29,12.03,9.52c1.35,5.84-0.92,8.93-5.42,11.48
		c-0.64,0.32-0.88-0.08-1.05-0.59c0.2-1.21,1.01-2.04,1.83-2.85c0.84-0.69,1.72-1.35,2.15-2.41c0.15-3.39-0.82-6.53-2.03-9.62
		c-0.79-2.03-2.17-2.7-4.23-1.9c-0.92,0.21-1.85,0.27-2.79,0.27c-2.22-0.41-4.96,0.52-6.19-2.42
		C53.83,52.91,54.28,52.63,54.74,52.36z"/>
	<path class="st21" d="M58.33,97.23c-2.37,2.09-4.16,1.26-5.84-1c-1.09-1.47-1.65-3.45-3.64-4.16c-0.17-0.41-0.51-0.84-0.49-1.24
		c0.06-0.91,1.65-1.47-0.94-2.29c-2.57-0.82-3.91-4.86-4.55-7.96c-0.34-1.65,1.96-2.07,3.09-3.02c1.2,2.58,2.49,5.12,3.58,7.74
		c0.66,1.6,1.71,1.69,3.4,1.27c-2.01,1.47-1.88,3.03-0.73,4.76c0.92,1.38,1.78,2.8,2.52,4.28c0.73,1.46,1.69,1.43,2.9,0.76
		C57.87,96.67,58.1,96.95,58.33,97.23z"/>
	<path class="st22" d="M70.61,73.35c-2.22,1.81-4.36,3.71-6.68,5.38c-0.93,0.67-2.14,1.91-3.42,0.31c3.44-3.39,7.99-5.51,10.93-9.49
		c0.12-0.17,0.86,0.12,1.31,0.2c-0.27,0.77-0.54,1.55-0.81,2.32C71.59,72.59,71.34,73.23,70.61,73.35z"/>
	<path class="st23" d="M53.37,53.18c1.96,1.31,4.2,1.44,6.45,1.48c0.22,0.38,0.17,0.71-0.16,0.99c-1.57,1.07-3.28,0.22-4.92,0.38
		c-3.93-0.36-7.41,1.58-11.16,2.17C46.38,55.63,49.37,53.43,53.37,53.18z"/>
	<path class="st24" d="M70.61,73.35c0.45-0.43,0.89-0.85,1.34-1.28c1.49,3.87,1.02,7.97,1.36,11.97c0.18,2.16-2.03,2.7-3.27,3.88
		c-0.15-0.17-0.45-0.47-0.44-0.48C73.97,83.04,71.42,78.13,70.61,73.35z"/>
	<path class="st25" d="M73.44,105.02c-2.12-0.48-1.11-1.92-0.97-3.11c0.44-3.76,0.89-7.54-1.97-10.69c0.86-0.74,1.72-1.48,2.94-2.54
		C73.44,94.41,73.44,99.71,73.44,105.02z"/>
	<path class="st26" d="M73.45,106.55c-0.03,5.39-0.06,10.78-0.13,16.17c0,0.22-0.38,0.48-0.64,0.63c-0.07,0.04-0.33-0.25-0.51-0.38
		c-0.31-3.1,0.1-6.27-0.84-9.32c-0.31-1.6-0.36-3.21-0.18-4.83C71.47,107.6,71.7,106.3,73.45,106.55z"/>
	<path class="st27" d="M73.45,106.55c-0.94,0.31-1.35,1.04-1.51,1.96c-1.67,1.3-3.13,3.1-5.65,2.29c-0.08-2.94,3.19-2.59,4.28-4.37
		c0.87-0.58,1.86-0.69,2.88-0.71C73.45,105.99,73.45,106.27,73.45,106.55z"/>
	<path class="st28" d="M72.14,113.73c1.01,3.07,0.9,6.15,0.03,9.24c-0.52-0.67-1.05-1.34-1.57-2.02c0.87-0.51,0.74-1.37,0.77-2.18
		C72.22,117.18,70.18,115.15,72.14,113.73z"/>
	<path class="st29" d="M55.49,27.28c-1.13-0.74-0.59-1.89-0.72-2.88c0.63-1.26,1.24-2.52,1.89-3.77c0.84-1.61,1.92-1.9,3.25-0.52
		C58.44,22.5,56.97,24.89,55.49,27.28z"/>
	<path class="st30" d="M14.44,29.43c-0.89,2.54,0.91,4.34,1.83,6.35c0.46,1.01,1.74,1.81,0.36,3c-0.92-1.79-1.85-3.57-2.76-5.36
		c-2.92-5.74-1.97-7.93,4.22-9.73c0.66,0.08,1.55-0.24,1.79,0.66c0.21,0.8-0.51,1.28-1.06,1.68C17.34,27.13,15.29,27.49,14.44,29.43
		z"/>
	<path class="st31" d="M64.92,71.99c0.25,0.24,0.51,0.48,0.76,0.72c-2.41,2.11-4.81,4.23-7.22,6.34c-0.38,0.53-1,0.96-1.49,0.58
		c-0.76-0.59,0.11-1.01,0.46-1.35c2.23-2.14,4.5-4.24,6.75-6.35C64.44,71.75,64.69,71.76,64.92,71.99z"/>
	<path class="st32" d="M64.92,71.99c-0.25-0.02-0.49-0.04-0.74-0.06c-3.73-0.52-4.92-3.5-6.49-6.32c-0.9-1.62-2.06-2.9-2.44-4.94
		c-0.29-1.56,0.52-3.21-0.51-4.63c1.55-1.25,3.38-0.42,5.06-0.69c0.1,5.04,1.9,9.23,6.04,12.31c0.62,0.46,1.42,0.99,1.1,2.03
		C66.27,70.46,65.6,71.22,64.92,71.99z"/>
	<path class="st33" d="M72.14,113.73c-0.35,1.67,0.3,3.48-0.76,5.04c-0.42-2.52-3.11-2.94-4.4-4.69c-0.8-1.09-1.75-1.9-0.69-3.28
		c2.05-0.34,3.44-2.33,5.65-2.29C72.01,110.25,72.08,111.99,72.14,113.73z"/>
	<path class="st34" d="M66.94,69.69c-3.23-2.9-6.95-5.37-7.63-10.23c-0.21-1.48-0.23-2.8,0.49-4.11c0-0.23,0.01-0.46,0.02-0.69
		c0.94-0.02,1.89-0.04,2.83-0.06c0.89-0.28,1.03,0.37,1.01,0.94c-0.14,3.84,1.29,6.87,4.44,9.12c0.96,0.68,1.8,1.61,1.11,3
		C68.64,68.55,68.06,69.41,66.94,69.69z"/>
	<path class="st35" d="M69.21,67.66c-0.08-0.73-0.23-1.48-0.91-1.85c-4.51-2.42-5.83-6.43-5.65-11.2c1.91-1.3,3.37-0.93,4.25,1.22
		C68.45,59.61,70.26,63.36,69.21,67.66z"/>
</g>
</svg>
