<?xml version="1.0" encoding="utf-8"?>
<!-- Generator: Adobe Illustrator 23.0.2, SVG Export Plug-In . SVG Version: 6.00 Build 0)  -->
<svg version="1.1" id="Camada_1" xmlns="http://www.w3.org/2000/svg" xmlns:xlink="http://www.w3.org/1999/xlink" x="0px" y="0px"
	 viewBox="0 0 38.4 18.72" style="enable-background:new 0 0 38.4 18.72;" xml:space="preserve">
<style type="text/css">
	.st0{fill:#0E0C10;}
	.st1{fill:#502503;}
	.st2{fill:#5E0907;}
	.st3{fill:#65320A;}
	.st4{fill:#633109;}
	.st5{fill:#784713;}
	.st6{fill:#764511;}
	.st7{fill:#774612;}
	.st8{fill:#C38038;}
	.st9{fill:#B57631;}
	.st10{fill:#C38037;}
	.st11{fill:#9F6326;}
	.st12{fill:#C7833A;}
	.st13{fill:#B02E37;}
	.st14{fill:#E48425;}
	.st15{fill:#B12F38;}
	.st16{fill:#E68625;}
	.st17{fill:#4C0806;}
	.st18{fill:#A86B2B;}
	.st19{fill:#B57531;}
</style>
<g>
	<path class="st0" d="M36.67,8.19c0.11,2.79-0.22,3.29-2.29,3.82c-5.92,1.52-11.79,3.18-17.73,4.64c-3.65,0.89-6.45-0.62-9.41-2.07
		c-0.79-0.39-1.52-0.87-2.29-1.3C2.63,12,2.22,11.19,2.54,8.56C2.67,7.4,3.16,6.75,4.41,6.44c2.17-0.53,4.34-1.08,6.53-1.54
		c0.31-0.07,0.62-0.07,0.81-0.41c0.68-1.22,1.78-1.26,2.92-0.9c0.99,0.31,1.93,0.31,2.93,0.04c2.98-0.8,6.01-1.32,9.08-1.59
		c0.55-0.05,1.03,0.07,1.51,0.23c2.43,0.8,4.73,1.93,7.05,3.01C36.81,6.01,36.66,7.43,36.67,8.19z"/>
	<path class="st1" d="M25.81,12.77c-3.84,1.44-7.85,2.17-11.88,2.86c-0.85,0.14-1.65-0.16-2.42-0.52c-2.27-1.07-4.51-2.18-6.67-3.46
		c-0.79-0.47-1.3-2.92-0.75-3.63c0.19-0.25,0.49-0.22,0.75-0.3c2.63-0.78,5.32-1.26,8.02-1.73c0.15-0.03,0.29-0.14,0.43-0.21
		c0.26,0.08,0.38,0.27,0.4,0.53c-0.02,0.11-0.06,0.22-0.14,0.3c-0.72,0.46-1.65,0.27-2.36,0.76c-0.06,0.2,0.09,0.35,0.11,0.53
		c0,0.17-0.05,0.31-0.2,0.41C10.5,8.46,10,8.12,9.47,7.95C8.34,7.53,7.36,8.14,6.32,8.38c-0.02,0-0.04,0.07-0.04,0.1
		c0,0.03,0.04,0.07,0.07,0.1c1.02,0.55,2.04,1.08,3.08,1.58c0.4,0.17,0.74,0.45,1.14,0.61c0.16,0.05,0.31,0.12,0.45,0.2
		c1.4,1.39,2.96,1.37,4.61,0.51c0.44-0.14,0.88-0.31,1.33-0.43c1.17-0.34,2.36-0.65,3.54-0.96c0.63-0.11,1.25-0.4,1.9-0.12
		c0.17,0.1,0.29,0.25,0.34,0.45c-0.28,0.67-0.94,0.68-1.5,0.8c-1.99,0.42-3.92,1.06-5.84,1.71c-0.15,0.05-0.31,0.09-0.45,0.16
		c-0.42,0.19-1.07,0.28-0.89,0.9c0.16,0.55,0.75,0.32,1.15,0.23c2.84-0.61,5.68-1.23,8.5-1.94c0.19-0.05,0.39-0.1,0.58-0.12
		C24.85,12.23,25.38,12.38,25.81,12.77z"/>
	<path class="st2" d="M22.68,10.36c-0.08-0.08-0.16-0.16-0.24-0.24c-0.27-0.34-0.66-0.25-1-0.23c-0.85,0.06-1.6-0.17-2.19-0.76
		c-0.65-0.65-1.47-0.86-2.3-0.76c-0.92,0.11-1.55-0.23-2.07-0.9c-0.37-0.48-0.82-0.85-1.32-1.19c-0.09-0.17-0.18-0.33-0.27-0.5
		c-0.4-0.55-0.47-0.95,0.41-0.94c0.04,0,0.08-0.01,0.12,0c2.88,1.09,5.58-0.26,8.27-0.82c3.65-0.75,7-0.48,10.2,1.43
		c0.27,0.16,0.57,0.28,0.86,0.42c2.14,1.05,2.14,1.05,2.23,3.41c0.02,0.62-0.14,1.11-0.8,1.29c-2.69,0.72-5.37,1.44-8.06,2.15
		c-0.23,0.06-0.48,0.04-0.71,0.06c-0.56,0.08-1.02-0.16-1.45-0.49c-0.48-0.1-0.89-0.46-0.84-0.87
		C23.61,10.67,23.04,10.64,22.68,10.36z"/>
	<path class="st3" d="M22.68,10.36c0.39,0,0.78,0,1.33,0c-0.7,0.86-0.06,1.36,0.36,1.92c-2,0.94-4.21,1.07-6.31,1.64
		c-1.07,0.3-2.16,0.55-3.26,0.72c-0.42,0.07-1.11,0.34-1.23-0.5c-0.09-0.65,0.14-1.01,0.81-1.23c2.35-0.76,4.67-1.59,7.1-2.08
		C21.91,10.75,22.35,10.69,22.68,10.36z"/>
	<path class="st4" d="M13.57,6.28c0.82-0.21,1.11,0.48,1.5,0.94c0.5,0.59,0.93,1.05,1.89,0.84c0.66-0.15,1.57-0.07,2.1,0.52
		c0.77,0.84,1.69,1.12,2.78,1.08c0.26-0.01,0.85-0.25,0.6,0.47c-0.67-0.12-1.27,0.24-1.92,0.24c-0.58-0.01-1.03-0.24-1.38-0.72
		c-0.41-0.56-0.93-0.96-1.7-0.74c-0.55,0.39-1.4,0.06-1.81,0.77c0.35,0.62,1.37,0.71,1.3,1.65c-0.4,0.16-0.8,0.32-1.21,0.48
		c-0.4-0.34-0.74-0.75-1.16-1.06c-0.94-1.06-1.99-0.6-3.03-0.22c-0.36,0.19-0.78,0.25-1.08,0.56c-0.32-0.24-0.64-0.48-0.97-0.72
		c0.02-0.69,0.65-0.61,1.04-0.85c0.31-0.19,0.91,0.04,0.9-0.61c-0.13-0.2-0.36-0.37-0.26-0.66c0-0.17,0-0.35,0.01-0.52
		c0.49-0.33,0.9-0.02,1.31,0.17c0.46,0.22,0.91,0.57,1.43,0.25c0.62-0.38-0.16-0.84,0.01-1.27c0.27-0.49-0.48-0.05-0.36-0.4
		C13.55,6.41,13.56,6.34,13.57,6.28z"/>
	<path class="st5" d="M6.08,9.43c2.07,1.1,4.15,2.21,6.23,3.3c0.89,0.47,0.39,1.26,0.58,2.04c-1.17-0.27-2.1-0.8-2.98-1.34
		c-1.69-1.04-3.63-1.61-5.21-2.84c0.06-0.05,0.14-0.11,0.14-0.18C4.8,9.51,5.31,9.3,6.08,9.43z"/>
	<path class="st6" d="M11.64,8.68c0.8,0.5,0.3,0.75-0.21,0.9c-0.68,0.2-1.42,0.23-1.96,0.78C8.26,10.02,7.2,9.33,6.1,8.73
		C6.93,7.9,8.02,7.87,9.07,7.74C9.95,7.99,10.74,8.49,11.64,8.68z"/>
	<path class="st7" d="M17.4,8.67c0.73-0.39,1.35-0.04,1.73,0.49c0.38,0.54,0.85,0.9,1.39,1.2c-1.2,0.32-2.39,0.64-3.59,0.96
		c-0.35-0.77-1.28-0.94-1.7-1.64C15.82,9.05,16.83,9.35,17.4,8.67z"/>
	<path class="st7" d="M14.78,10.59c0.42,0.32,0.89,0.59,0.94,1.2c-0.34,0.1-0.72,0.13-1.02,0.3c-1.63,0.96-2.71,0-3.78-1.04
		c0-0.57,0.54-0.5,0.84-0.7C12.81,9.83,13.81,10,14.78,10.59z"/>
	<path class="st7" d="M14.05,6.79c0.05,0.15,0.09,0.3,0.14,0.45c0.11,0.31,0.84,0.5,0.3,0.93c-0.4,0.32-0.9,0.71-1.51,0.34
		c-0.57-0.35-1.14-0.7-1.83-0.79c-0.2-0.01-0.38-0.04-0.48-0.24C11.76,7.03,12.84,6.61,14.05,6.79z"/>
	<path class="st8" d="M9.23,7.92C8.15,8.04,7.12,8.38,6.1,8.73C5.9,8.61,5.4,8.37,5.65,8.31c1.26-0.3,2.46-1.21,3.86-0.6
		C9.48,7.86,9.34,7.88,9.23,7.92z"/>
	<path class="st9" d="M14.05,6.79c-1.14,0.15-2.21,0.67-3.37,0.69c0.16-0.83,0.9-0.55,1.39-0.71c0.48-0.16,0.99-0.2,1.48-0.3
		C13.7,6.61,14.16,6.26,14.05,6.79z"/>
	<path class="st10" d="M6.08,9.43c-0.96-0.21-0.81,0.91-1.39,1.16c0-0.57,0-1.14,0-1.7C5.3,8.76,5.54,9.46,6.08,9.43z"/>
	<path class="st11" d="M9.23,7.92c0.1-0.07,0.19-0.14,0.29-0.21c0.55,0.18,1.09,0.35,1.64,0.53c0.16,0.15,0.32,0.29,0.49,0.44
		C10.7,8.86,10,8.27,9.23,7.92z"/>
	<path class="st12" d="M11.85,10.57c-0.35,0.09-0.7,0.18-0.93,0.5c-0.16,0-0.32,0.01-0.47,0.01c-0.02-0.67,0.57-0.55,0.93-0.73
		C11.63,10.22,11.86,10.14,11.85,10.57z"/>
	<path class="st13" d="M25.32,9.41c-2.01-0.29-4.15-0.01-5.91-1.39c-0.43-0.34-0.98-0.63-1.56-0.51c-1.61,0.32-2.53-0.52-3.27-1.96
		c2.38,0.78,4.43-0.6,6.65-0.72c1.08,0.1,1.93,0.62,2.29,1.64c0.46,1.31,1.21,2.22,2.6,2.55c0.12,0.03,0.17,0.16,0.2,0.27
		C26.04,9.74,25.69,9.65,25.32,9.41z"/>
	<path class="st13" d="M23.88,4.32c1.47-0.29,2.87-0.37,4.35,0.21c2.06,0.81,4.03,1.79,6.1,2.72C33.88,7.67,33.3,7.3,32.96,7.7
		c-1.1,0.58-2.27,0.86-3.51,0.86c-0.52-0.36-0.9-0.96-1.6-0.97C25.64,7.55,24.39,6.39,23.88,4.32z"/>
	<path class="st14" d="M23.88,4.32c0.34,0.05,0.64,0.2,0.67,0.56c0.18,1.95,1.62,2.19,3.14,2.35c0.78,0.08,1.51,0.22,1.67,1.17
		c-0.88,0.84-1.9,1.18-3.1,0.79c-1.23,0.01-2.22-0.5-2.59-1.67c-0.42-1.32-1.25-2.13-2.44-2.68C22.09,4.49,22.99,4.46,23.88,4.32z"
		/>
	<path class="st15" d="M33.47,7.94c0.35,0.3,1.1-0.69,1.19,0.32c0.07,0.74,0.29,1.58-0.9,1.84c-1.4,0.31-2.75,0.78-4.13,1.19
		c-0.44-0.69-0.51-1.5-0.78-2.25C30.3,8.27,31.86,8,33.47,7.94z"/>
	<path class="st15" d="M27.96,11.75c-0.54,0.11-1.12,0.12-1.62,0.34c-0.82,0.36-1.4,0-1.65-0.65c-0.23-0.6,0.27-1.07,0.83-1.36
		c0.1-0.05,0.19-0.13,0.29-0.2c0.39-0.41,0.84-0.58,1.39-0.37C27.8,10.14,27.99,10.91,27.96,11.75z"/>
	<path class="st16" d="M27.96,11.75c-0.5-0.62-0.5-1.41-0.74-2.12c0.4-0.72,1.05-0.65,1.71-0.54c0.76,0.56,0.68,1.4,0.71,2.19
		C29.08,11.44,28.52,11.6,27.96,11.75z"/>
	<path class="st17" d="M28.93,9.1c-0.57,0.18-1.14,0.36-1.71,0.54c-0.47,0.08-0.94,0.17-1.41,0.25c-0.3-0.02-0.48-0.15-0.49-0.47
		c0.31-0.08,0.68,0.06,0.94-0.22c1.08-0.09,2.09-0.45,3.1-0.79c1.22-0.14,2.35-0.7,3.59-0.7c0.17,0.08,0.34,0.16,0.51,0.24
		C31.95,8.32,30.44,8.71,28.93,9.1z"/>
	<path class="st18" d="M11.85,10.57c-0.16-0.08-0.31-0.15-0.47-0.23c1.19-0.65,2.35-0.97,3.4,0.25
		C13.8,10.45,12.83,9.98,11.85,10.57z"/>
	<path class="st19" d="M17.4,8.67c0.13,0.06,0.51,0.12,0.12,0.28c-0.74,0.29-1.43,0.77-2.28,0.73c-0.09-0.64,0.48-0.58,0.81-0.7
		C16.47,8.82,16.94,8.76,17.4,8.67z"/>
</g>
</svg>
