<?xml version="1.0" encoding="utf-8"?>
<!-- Generator: Adobe Illustrator 23.0.2, SVG Export Plug-In . SVG Version: 6.00 Build 0)  -->
<svg version="1.1" id="Camada_1" xmlns="http://www.w3.org/2000/svg" xmlns:xlink="http://www.w3.org/1999/xlink" x="0px" y="0px"
	 viewBox="0 0 144.85 170.03" style="enable-background:new 0 0 144.85 170.03;" xml:space="preserve">
<style type="text/css">
	.st0{fill:#FEFEFE;}
	.st1{fill:#010002;}
	.st2{fill:#1B2D14;}
	.st3{fill:#906E34;}
	.st4{fill:#4B5756;}
	.st5{fill:#2B4C26;}
	.st6{fill:#EAC263;}
	.st7{fill:#33592C;}
	.st8{fill:#BB9145;}
	.st9{fill:#3D602E;}
	.st10{fill:#75974E;}
	.st11{fill:#92B763;}
	.st12{fill:#82A857;}
	.st13{fill:#648043;}
	.st14{fill:#F6EE9D;}
	.st15{fill:#F8F7CC;}
	.st16{fill:#F5F2B3;}
	.st17{fill:#FBFAE5;}
	.st18{fill:#D3B865;}
	.st19{fill:#8F6D33;}
	.st20{fill:#F9F7F7;}
	.st21{fill:#A6803C;}
	.st22{fill:#B43A39;}
	.st23{fill:#AF3736;}
	.st24{fill:#B63A38;}
	.st25{fill:#E4C66C;}
	.st26{fill:#CEB361;}
	.st27{fill:#F7F4F4;}
	.st28{fill:#B33837;}
	.st29{fill:#E1D4D4;}
	.st30{fill:#8C6C33;}
	.st31{fill:#F5F4BC;}
	.st32{fill:#9EBE6D;}
	.st33{fill:#FEFEFC;}
	.st34{fill:#E0E7A0;}
	.st35{fill:#D6BB66;}
</style>
<g>
	<path class="st0" d="M97.98,36.35c14.78,3.85,25.09,13.28,33.44,24.95c9.69,13.55,11.82,29.41,13.24,45.58
		c1.33,15.26-4.2,27.8-13.1,39.42c-5.78,7.55-13.49,12.55-22.09,16.17c-14.1,5.95-28.91,9.04-44.09,6.85
		c-18.42-2.65-35.57-9.28-48.9-22.76c-7.16-7.25-13.8-15.39-15.89-26c-0.23-1.17-0.55-2.35-0.56-3.53
		C-0.23,94.18,6.32,73.5,21.19,56.09c7.98-9.34,18.33-15.65,30.96-17.24c0.12-0.01,0.23-0.06,0.35-0.08
		c13.01-2.42,12.91-2.48,19.41-14.14c3.43-6.17,7.32-12.08,10.99-18.11c3.44-5.65,8.52-7.37,14.8-6.12
		c3.73,0.74,7.6,1.04,10.57,3.97c4.24,4.17,4.86,9.43,1.27,14.19C105.29,24.2,101.4,30.07,97.98,36.35z"/>
	<path class="st1" d="M89.88,41.12c15.25-1.2,24.5,8.12,33.49,17.48c9.9,10.3,13.66,23.48,15.49,37.18
		c1.36,10.16,2.79,20.48-1.22,30.49c-5.39,13.47-13.69,24.15-27.22,30.57c-14.48,6.87-29.67,9.63-45.35,7.67
		c-15.79-1.97-30.17-8.35-42.51-18.53c-7.08-5.84-11.99-13.61-16.09-21.78c-2.06-4.12-1.45-8.68-1.41-13.1
		c0.15-18.52,6.82-34.83,17.53-49.54c6.24-8.57,15.17-13.91,25.07-17.16c5.97-1.97,12.38-2.66,18.62-3.76
		c1.69-0.3,2.61-0.93,3.46-2.46C75,28.64,80.21,19.07,86.23,9.97c3.84-5.8,13.11-7.02,18.51-2.45c2.98,2.52,3.35,5.21,0.83,8.48
		c-5.66,7.33-10.24,15.33-14.87,23.3C90.48,39.7,90.32,40.13,89.88,41.12z"/>
	<path class="st2" d="M122.91,142c-4.09,6.24-10.52,9.25-16.98,12.09c-11.08,4.87-22.79,6.72-34.84,6.71
		c-7.73-0.01-14.63-3.22-21.75-5.53c-8.23-2.67-15.41-7.46-22.79-11.79c-3.46-2.03-5.63-5.49-7.95-8.66
		c-2.32-3.18-4.42-6.53-6.41-9.93c-2.82-4.81-3.66-9.94-2.58-15.51c1.06-5.47,0.63-11.2,2.52-16.55
		c4.19-11.87,8.58-23.64,18.56-32.17c1.21,0.96,1.1,2.37,1.27,3.68c-0.07,1.55-0.96,2.64-2,3.69
		C17.5,80.67,12.38,96.17,13.21,113.57c0.34,7.2,4.3,13.39,8.59,19.13c7.57,10.11,18.18,15.8,29.66,20.12
		c6.49,2.44,12.93,5.15,20.13,4.88c14.72-0.55,28.35-4.41,40.49-12.96c1.76-1.29,3.7-2.34,5.34-3.8c2.12-2.19,4.88-3.72,6.58-6.35
		c0.37-0.35,0.78-0.6,1.29-0.66c2.11,1.44,0.4,2.64-0.3,3.84C124.18,139.12,122.4,139.99,122.91,142z"/>
	<path class="st3" d="M31.39,64.4c-1.03-1.1-0.32-2.52-0.7-3.74c2.1-3.03,5.13-4.94,8.3-6.53c9.89-4.97,20.34-7.93,31.45-8.42
		c1.57,2.41,0.58,3.96-1.69,5.1c-6.88-0.62-13.51,0.7-20.05,2.64c-3.97,0.55-6.97,2.93-9.94,5.34c-1.43,1.16-2.88,2.58-1.92,4.54
		c1.1,2.24,2.92,0.31,4.41,0.33c2.68-0.51,4.37,1.21,5.73,2.97c3.24,4.19,6.93,5.54,11.77,2.81c2.24-1.26,4.41-0.32,6.52,0.59
		c2.91,1.25,5.58,2.11,8.69-0.16c2.24-1.63,5.35-0.57,8.07-0.74c0.7-0.01,1.55,0.23,2.06-0.2c3.23-2.73,7.08-1.83,10.76-1.96
		c0.81-0.03,1.64,0.03,2.36-0.48c0.43-0.27,0.89-0.48,1.41-0.55c0.97-0.05,1.73,0.32,2.25,1.16c0.12,0.36,0.14,0.73,0.06,1.1
		c-0.66,1.69-1.65,2.99-3.64,3.14c-2.81-0.29-5.62-0.35-8.44-0.16c-2.46,2.08-5.11,2.66-8.25,1.53c-1.6-0.57-3.39-0.26-4.74,0.94
		c-3.23,2.87-7.05,2.99-10.83,1.95c-3.88-1.07-7.51-0.76-11.27,0.42c-4.07,1.28-4.9,0.88-7.55-2.68c-0.64-0.87-1.35-1.68-1.98-2.55
		c-1.42-1.95-3.13-2.35-5.33-1.37c-1.42,0.63-2.95,0.99-4.55,0.74C31.23,69.31,32.28,66.36,31.39,64.4z"/>
	<path class="st4" d="M69.04,50.49c0.3-1.65,1.99-2.89,1.4-4.79c3.48-3.73,5.01-8.63,7.63-12.89c4.01-6.52,7.71-13.23,11.57-19.84
		c2.11-3.63,8.05-4.85,11.52-2.37c1.59,1.14,1.12,2.41,0.13,3.69c-6.84,8.84-11.99,18.73-17.64,28.31
		c-0.55,0.93-1.18,1.82-1.06,2.98c0.53,1.64-0.89,2.48-1.5,3.65c-0.27,0.35-0.57,0.69-0.83,1.06c-0.41,0.64-0.58,1.38-0.87,2.08
		c-0.64,1.35-1.27,2.69-2.23,3.85c-0.35,0.43-0.73,0.82-1.16,1.18c-3.7,2.03-7.11,1.94-9.7-0.22c-0.45-1.42,0.18-2.83,0.09-4.25
		c0.02-0.73,0.31-1.35,0.79-1.89C67.72,50.58,68.26,50.15,69.04,50.49z"/>
	<path class="st5" d="M122.91,142c-1.72-1.33-0.81-2.34,0.31-3.47c1.17-1.19,2.85-2.22,1.99-4.37c-0.79-1.71,0.36-3,1.02-4.33
		c3.87-7.78,5.66-15.97,5.12-24.66c-0.07-1.07,0.01-2.16-0.52-3.15c-1.29-2.04-0.88-4.42-1.21-6.63
		c-1.06-6.99-3.84-13.54-5.07-20.47c0.52-2.04,1.56-1.4,2.47-0.38c1.06,1.17,1.55,2.68,1.91,4.19c0.77,3.25,1.8,6.43,2.65,9.65
		c0.24,0.92-0.03,2.29,1.49,2.5c1.6,3.3,1.49,6.95,2.05,10.44C137.57,116.8,133.56,130.42,122.91,142z"/>
	<path class="st6" d="M100.65,67.16c-0.75-0.24-1.51-0.48-2.26-0.72c-1.18-3.72,1.59-3.5,3.8-3.83c0.58-0.05,1.18,0.03,1.77,0
		c1.48-0.07,3.32,0.5,4.03-1.37c0.77-2,0.41-3.94-1.16-5.58c-1.64-1.71-4.08-2.47-5.34-4.6c-0.41-0.97-1.03-1.8-1.76-2.56
		c-0.39-0.41-0.87-1-0.4-1.5c0.5-0.53,1.24-0.51,1.84,0.07c4.92,3.5,10.45,6.18,14.61,10.71c0.7,1.14,1.04,2.34,0.59,3.66
		c-1.52,1.2-3.78,1.58-4.31,3.9c-1.19,2.14-3.24,2.05-5.26,2.06C104.76,67.31,102.72,66.85,100.65,67.16z"/>
	<path class="st7" d="M115.59,61.98c0.07-1.4,0.13-2.8,0.2-4.19c10.3,8.67,15.35,20.06,17.28,33.1c-0.23,0.53-0.36,1.43-0.7,1.52
		c-1.1,0.28-0.89-0.87-1.03-1.4c-1.18-4.25-2.12-8.58-3.48-12.77c-0.44-1.35-0.14-3.88-2.9-3.56c-1.09-0.08-1.64-0.85-2.13-1.67
		c-1.9-3.13-3.89-6.2-6.49-8.82C115.76,63.61,115.23,62.92,115.59,61.98z"/>
	<path class="st8" d="M101.17,47.08c-0.2,0.36-2.17-0.7-0.76,0.87c0.78,0.87,1.77,1.51,1.57,2.87c-0.51,0.32-1.06,0.35-1.64,0.26
		c-1.14-0.27-2.31-0.38-3.45-0.66c-4.15-0.53-8.32,0.1-12.46-0.25c-1.39-0.11-2.9,0.2-3.99-1.05c0.72-1.18,1.44-2.37,2.16-3.55
		c5.61-0.29,11.21-0.4,16.77,0.61C100.04,46.31,100.81,46.28,101.17,47.08z"/>
	<path class="st9" d="M31.39,64.4c2.47,0.76,0.25,4.39,3.03,4.97c0.93,1.4,0.01,2.51-0.59,3.64c-12.44,23.6-7.77,45.32,7.27,65.87
		c2.97,4.05,7.31,6.29,12.02,7.42c8.49,2.04,17.14,3.34,25.85,4.13c10.32,0.94,19.91-2.05,29.43-5.42c1.5-0.34,2.99-1.3,4.51-0.06
		c-3.95,3.57-8.55,6.34-13.46,7.99c-8.56,2.89-17.22,5.5-26.47,5.77c-8.57,0.26-16.16-2.81-23.82-5.77
		c-7.61-2.95-14.91-6.56-20.98-12.2c-11.02-10.23-18-21.86-15.61-37.92c1.87-12.59,6.38-23.63,14.5-33.33
		C28.49,67.78,30.91,66.9,31.39,64.4z"/>
	<path class="st10" d="M112.9,144.95c-1.44,0.24-2.89,0.48-4.33,0.72c-1.89-0.55-0.95-1.74-0.52-2.67
		c3.56-7.86,4.04-16.13,3.27-24.55c-0.24-2.62-0.18-5.25-0.43-7.88c-1.07-11.12-7.03-19.67-14.22-27.58
		c-2.42-2.66-4.66-5.46-7.12-8.08c-1.19-1.27-2.48-2.77-1.16-4.76c3.11,0.16,6.29-0.71,9.33,0.61c4.75,3.39,7.96,8.24,11.66,12.58
		c8.1,9.51,11.58,20.72,11.78,33.18c0.07,4.67-0.36,9.33-0.09,13.98c0.24,4.01,0.08,7.86-2.98,10.95
		C116.69,143.11,114.68,143.85,112.9,144.95z"/>
	<path class="st11" d="M100.65,67.16c1.61-2.94,3.9,0.02,5.77-0.66c0.68,0.44,1.61,0.43,2.08,1.28c2.62,4.8,7.21,8.02,10.09,12.59
		c1.35,2.14,3.84,2.34,5.55,3.8c1.48,1.64,1.99,3.72,2.57,5.76c1.2,4.19,2.43,8.36,3.76,12.51c0.26-0.13-0.18,1.44,0.52,0.21
		c0.11-0.2,0.18-0.43,0.32-0.63c0.14-0.1,0.27-0.19,0.41-0.28c1.75,9.43,0.15,18.38-3.89,26.98c-0.86,1.82-1.75,3.63-2.62,5.45
		c-0.25,0.24-0.51,0.48-0.76,0.72c-1.43,0.08-1.09-0.88-0.99-1.69c2.58-20.61,0.01-39.74-15.28-55.52
		c-2.84-2.93-6.23-5.66-7.65-9.79C100.57,67.65,100.61,67.4,100.65,67.16z"/>
	<path class="st12" d="M100.53,67.89c8.3,9.13,17.29,17.8,21.44,29.86c2.13,6.2,3.27,12.67,3.13,19.26
		c-0.13,5.96,0.71,11.95-0.65,17.87c-1.18,3.1-4.37,4.25-6.35,6.57c3.75-6.09,2.11-13.02,2.27-19.41c0.33-13.1-1.72-25.94-10.5-36.7
		c-4-4.9-8.66-9.25-12.13-14.58C99.13,70.26,99.58,68.83,100.53,67.89z"/>
	<path class="st13" d="M88.4,70.14c-0.09,2.43,1.58,3.84,3.01,5.47c5.98,6.79,12.29,13.29,16.65,21.38c2.45,4.55,3.32,9.52,3.9,14.4
		c1.09,9.33,1.08,18.72-1.16,28c-0.53,2.21-3.08,3.64-2.22,6.27c-12.42,5.7-25.36,7.36-38.75,4.66c-6.98-1.41-14.24-1.31-20.91-4.45
		c-2.89-1.36-5.56-2.85-7.59-5.23c-8.01-9.41-12.73-20.32-14.88-32.48c-2.39-13.53,0.89-25.8,7.6-37.43
		c0.23-0.4,0.25-0.91,0.38-1.37c1.05-0.18,2.14-0.24,3.15-0.55c5.58-1.65,5.8-1.81,9,3.45c1.99,3.27,4.07,4.26,7.57,2.67
		c3.51-1.59,7.12-1.48,10.83-0.42c3.78,1.08,7.55,1.36,10.59-2.04c1.4-1.56,3.62-1.46,5.05-0.84C83.76,73,86.13,72.33,88.4,70.14z"
		/>
	<path class="st14" d="M69.04,50.49c-0.47,0.25-0.94,0.51-1.41,0.76c-1.75,1.26-3.9,1.15-5.85,1.69c-2.05,0.14-3.61,1.03-4.51,2.94
		c-0.93,4.12-0.19,5.56,3.92,6.23c4.58,0.75,9.2,1.32,13.87,1.2c1.88-0.05,3.83-0.29,5.61,0.69c0.48,0.37,0.88,0.82,1.14,1.35
		c1.25,2.52,0.7,3.49-2.05,3.58c-0.87,0.03-1.75,0.2-2.63-0.07c1.57,0.58,3.52-0.89,4.78,1.08c-3.53,0.28-7.23-0.95-10.26,2.49
		c-1.18,1.34-3.71-0.24-5.31-1.08c-3.33-1.76-6.45-1.97-9.83-0.25c-3.16,1.61-5.79,1.51-8.3-1.83c-1.69-2.25-3.39-5.49-7.28-4.92
		c-2.23-0.52-2.73-1.45-1.3-3.48c2.28-3.22,4.91-6.15,8.5-8.03c6.34-2.59,12.97-3.44,19.76-3.44
		C68.65,49.42,68.91,49.87,69.04,50.49z"/>
	<path class="st15" d="M80.43,49.13c5.81,0.36,11.68-0.66,17.44,0.71c-2.15,0.65-2.83,1.75-2.25,4.19c0.54,2.29,0.77,4.68,1.64,6.9
		c0.8,2.05,1.07,4.08,0.36,6.2c-0.33,1.13-1.17,0.92-1.99,0.77c-2.01-0.93-4.22,0.06-6.61-0.67c3.38-4.15-0.98-6.76-1.83-10.13
		c0.1-4.47-0.3-4.9-4.89-5.6c-1.01-0.16-2.59,0.31-2.54-1.62C79.98,49.62,80.21,49.38,80.43,49.13z"/>
	<path class="st16" d="M87.61,56.9c1.5,1.98,2.76,4.06,3.64,6.44c0.67,1.81,1.38,3.26-2.06,3.31c2.53,1.08,4.73-0.31,6.44,1.25
		c-2.35,0.01-4.69,0.02-7.04,0.05c-0.92,0.01-2.27-0.27-2.53,0.72c-0.77,2.85-2.61,1.43-4.16,1.29c-1.71-1.44-3.92,0.01-5.77-0.99
		c5.87-0.93,5.87-0.93,4.35-4.68c2.08-1.93,4.8-3.34,5.39-6.51C86.3,57.19,86.84,56.81,87.61,56.9z"/>
	<path class="st17" d="M97.62,67.13c0.01-4.33-2.77-8.05-2.7-12.37c0.03-1.6-0.59-3-1.14-4.67c1.52-0.09,2.81-0.17,4.09-0.25
		c1.03,0.03,2.1-0.13,2.94,0.68c-1.2,4.59-0.24,8.86,1.96,12.93c-2.26-0.19-4.4-0.18-4.39,2.98C98.13,66.67,97.87,66.9,97.62,67.13z
		"/>
	<path class="st18" d="M48.13,52.86c-2.39,2.47-4.92,4.82-7.1,7.46c-0.84,1.01-3.3,2.65-0.1,4.04c-0.65,0.24-1.28,0.57-1.95,0.69
		c-0.95,0.17-2.32,1.5-2.78,0.17c-0.52-1.49-1.77-3.44-0.22-4.95C39.44,56.91,42.94,53.45,48.13,52.86z"/>
	<path class="st19" d="M56.69,54.93c1.01-1.61,2.35-2.7,4.35-2.73c0.24,0.25,0.34,0.55,0.32,0.89c-0.55,1.29-0.41,2.17,1.21,2.5
		c1.35,0.28,2.75,0.27,4.07,0.74c2.01,2.17,6.39,2.15,9.45-0.03c1.64-0.04,3.27-0.36,4.91-0.11c1.1,0.17,2.47,0.09,2.45,1.81
		c-1.07,1.66-2.86,1.56-4.47,1.78c-6.29,0.86-12.59,1-18.86-0.23C57.65,59.06,55.77,57.99,56.69,54.93z"/>
	<path class="st20" d="M86.15,32.65c-1.24,2.49-2.25,5.11-4.04,7.3c-1.74-0.63-3.14-1.56-3.06-3.7c1.48-2.64,2.96-5.27,4.44-7.91
		C85.9,28.84,85.67,30.96,86.15,32.65z"/>
	<path class="st20" d="M72.24,50.01c1.27-2.65,1.76-5.67,3.73-8c1.84,0.44,3.02,1.48,3.15,3.48c-1.2,2.48-2.4,4.96-3.61,7.44
		C73.44,53.06,72.71,51.67,72.24,50.01z"/>
	<path class="st21" d="M83.34,57.77c-2.16-1.78-5.14,0.51-7.26-1.47c0.23-0.26,0.46-0.51,0.69-0.76c1.65-0.15,3.32,0.08,4.95-0.3
		c0.72-0.17,1.4-0.56,1.31-1.41c-0.08-0.74-0.83-0.74-1.4-0.83c-0.92-0.15-1.92-0.08-2.61-0.9c0.12-0.78-0.02-1.64,0.73-2.21
		c1.42,1.2,3.16,0.41,4.72,0.76c3.83,0.85,4.76,2.6,3.13,6.27c-0.44,0.3-0.89,0.61-1.33,0.91C85.29,58.53,84.31,58.71,83.34,57.77z"
		/>
	<path class="st22" d="M86.15,32.65c-0.89-1.44-1.77-2.87-2.66-4.31c1.44-2.15,2.19-4.73,4.04-6.64c2.08,0.79,2.28,2.57,2.3,4.43
		C88.6,28.31,87.37,30.48,86.15,32.65z"/>
	<path class="st23" d="M90.42,16.95c1.31-1.86,1.62-4.62,4.53-5.06c1.49,0.67,2,1.92,2.06,3.44c-1.31,1.9-2.62,3.8-3.93,5.71
		C90.99,20.45,90.62,18.75,90.42,16.95z"/>
	<path class="st24" d="M79.12,45.49c-1.05-1.16-2.1-2.32-3.14-3.47c0.77-2.05,1.62-4.07,3.08-5.76c1.02,1.23,2.04,2.47,3.06,3.7
		C81.34,41.92,80.46,43.82,79.12,45.49z"/>
	<path class="st25" d="M79.03,52.08c0.95,0.01,1.9-0.06,2.84,0.05c1.03,0.13,2.71-0.69,2.78,1.16c0.05,1.29-0.75,2.75-2.16,2.9
		c-1.89,0.21-3.98,0.96-5.71-0.66C77.53,54.38,78.28,53.23,79.03,52.08z"/>
	<path class="st26" d="M66.64,56.33c-1.95,1.33-4.05,0.37-5.79-0.18c-2.88-0.91-1.13-2.29,0.2-3.37c1.92-0.48,3.84-1.27,5.79-0.06
		C68.6,54.02,66.57,55.12,66.64,56.33z"/>
	<path class="st27" d="M90.42,16.95c0.89,1.36,1.77,2.73,2.66,4.09c-1.08,1.7-2.17,3.4-3.25,5.1c-0.77-1.48-1.53-2.95-2.3-4.43
		C88.12,19.9,89.18,18.37,90.42,16.95z"/>
	<path class="st28" d="M72.24,50.01c1.09,0.97,2.18,1.95,3.27,2.92c0.02,1.15-0.37,2.14-1.28,2.84c-1.27,0.97-2.85,1.03-4.04,0.25
		c-1.21-0.8-0.04-1.93,0.36-2.84C71.04,52.09,71.67,51.06,72.24,50.01z"/>
	<path class="st29" d="M97,15.33c-0.69-1.15-1.37-2.29-2.06-3.44C98.52,12.14,98.74,12.52,97,15.33z"/>
	<path class="st30" d="M66.83,52.72c-1.93,0.02-3.86,0.04-5.79,0.06c0-0.2,0-0.39,0-0.59c2.16-0.52,4.32-1.12,6.58-0.94
		C67.36,51.75,67.1,52.23,66.83,52.72z"/>
	<path class="st31" d="M125.95,90.2c-0.77-1.92-1.54-3.83-2.31-5.75c-3.96-6.8-8.13-13.47-12.14-20.23c1.42-0.64,1.1-4.47,4.09-2.24
		c3.86,3.69,6.44,8.31,9.37,12.69c2.58,8.37,5.79,16.58,6,25.51c0.01,0.52,0.5,1.03,0.76,1.55c0,0-0.13-0.13-0.13-0.13l-0.18,0.05
		c-1.97,0.71-1.64-0.96-1.95-1.91C128.41,96.51,128.44,92.9,125.95,90.2z"/>
	<path class="st32" d="M111.5,64.22c5.29,6,9.37,12.72,12.14,20.23c-2.55-0.69-4.55-1.83-6.21-4.19c-3.37-4.8-7.99-8.64-11.01-13.75
		C108.28,66.11,110.97,67.55,111.5,64.22z"/>
	<path class="st33" d="M102.78,63.46c-1.67-0.47-2.42-1.39-2.5-3.31c-0.09-2.32-1.13-4.56-1.09-6.96c0.02-1.24-0.02-2.44,1.62-2.66
		c0.39,0.1,0.78,0.19,1.17,0.29c1.64,1.18,3.29,2.34,4.91,3.55c1.15,0.86,2.2,1.73,2.45,3.35C110.09,62.73,108.57,64.1,102.78,63.46
		z"/>
	<path class="st34" d="M125.95,90.2c2.97,0.91,2.78,3.64,3.52,5.91c0.6,1.85-0.26,4.25,1.94,5.54c0.07,1.27,0.15,2.54,0.22,3.82
		C128.54,100.75,127.48,95.39,125.95,90.2z"/>
	<path class="st35" d="M83.34,57.77c0.98,0.01,1.95,0.03,2.93,0.04c0.02,3.9-2.52,5.52-5.79,6.48c-6.56,0.08-13.14,0.09-19.6-1.2
		c-5.79-1.16-6.36-2.49-4.2-8.17c-0.08,1.73,0.51,3.26,2.32,3.5C67.14,59.51,75.28,59.9,83.34,57.77z"/>
</g>
</svg>
