<?xml version="1.0" encoding="utf-8"?>
<!-- Generator: Adobe Illustrator 23.0.2, SVG Export Plug-In . SVG Version: 6.00 Build 0)  -->
<svg version="1.1" id="Camada_1" xmlns="http://www.w3.org/2000/svg" xmlns:xlink="http://www.w3.org/1999/xlink" x="0px" y="0px"
	 viewBox="0 0 44.21 34.67" style="enable-background:new 0 0 44.21 34.67;" xml:space="preserve">
<style type="text/css">
	.st0{fill:#FEFEFE;}
	.st1{fill:#49585E;}
	.st2{fill:#96B66D;}
	.st3{fill:#4A573D;}
	.st4{fill:#95B367;}
	.st5{fill:#49563C;}
	.st6{fill:#FC7DB6;}
	.st7{fill:#4B573D;}
	.st8{fill:#76B6E4;}
	.st9{fill:#5F8248;}
	.st10{fill:#96BAC1;}
	.st11{fill:#D5EAED;}
	.st12{fill:#96BBC2;}
	.st13{fill:#D6EBEE;}
	.st14{fill:#D8ECEF;}
	.st15{fill:#D9EDF0;}
	.st16{fill:#77B7E4;}
	.st17{fill:#F87DB5;}
	.st18{fill:#8FAC5F;}
	.st19{fill:#FA7DB6;}
	.st20{fill:#77B9EA;}
	.st21{fill:#93AF61;}
	.st22{fill:#95B267;}
	.st23{fill:#FB7EB7;}
	.st24{fill:#9ABD75;}
	.st25{fill:#79B4E3;}
	.st26{fill:#9BBD75;}
	.st27{fill:#8CAC60;}
</style>
<g>
	<path class="st0" d="M25.25,34.67c-3.45-0.44-7-0.58-10.39-1.74c-1.37-0.47-2.32-1.53-3.45-2.33c-3.23-2.32-5.92-5.21-8.48-8.24
		c-0.52-0.61-1.09-1.17-1.67-1.72c-0.96-0.91-1.61-1.9-1.08-3.28c0.53-1.4,1.75-1.88,3.05-1.87c0.98,0,1.29-0.28,1.44-1.19
		C4.85,13.32,5.1,12.4,5,11.36c-0.11-1.25,0.68-2.02,1.76-2.73c1.68-1.11,3.34-2.36,4.2-4.3c0.54-1.21,1.72-1.98,3.05-1.75
		c0.46,0.08,0.7-0.01,1.01-0.36c1.18-1.36,2.15-1.58,3.68-0.77c0.63,0.33,1.02,0.13,1.46-0.29c1.53-1.47,2.46-1.53,4.17-0.24
		c0.29,0.22,0.56,0.25,0.87,0.27c4.11,0.26,7.6,1.96,10.68,4.6c0.54,0.46,1.08,0.75,1.75,0.92c2.19,0.58,2.9,1.83,2.32,4
		c-0.27,1.02,0.48,1.78,0.71,2.68c0.01,0.05,0.35,0.02,0.54,0.02c2.33-0.02,3.48,1.41,2.85,3.66c-0.92,3.28-2.74,6.1-4.73,8.8
		c-0.71,0.96-1.55,1.83-2.27,2.78c-2.04,2.72-4.86,4.19-8.03,5.08C27.79,34.08,26.61,34.64,25.25,34.67z"/>
	<path d="M39.89,15.22c0.26-0.17,0.43-0.33,0.64-0.42c0.69-0.32,1.42-0.36,2.04,0.11c0.64,0.49,0.52,1.24,0.34,1.89
		c-0.56,2.01-1.54,3.84-2.64,5.6c-1.83,2.93-3.99,5.61-6.56,7.92c-1.44,1.3-3.41,1.63-5.17,2.35c-3.41,1.41-6.79,0.24-10.2-0.06
		c-3.69-0.32-6.04-2.85-8.66-4.95c-2.19-1.76-3.96-3.94-5.81-6.04c-0.68-0.78-1.45-1.49-2.16-2.25c-0.9-0.97-0.64-2.06,0.61-2.53
		c0.82-0.31,1.65-0.22,2.48-0.05c0.53,0.11,0.83,0.05,0.78-0.61c-0.06-0.85,0.21-1.66,0.44-2.46c0.2-0.71,0.41-1.35,0.19-2.15
		C5.95,10.61,6.54,9.9,7.47,9.72C8.01,9.61,8.3,9.33,8.59,8.96c0.58-0.72,1.2-1.39,1.92-1.97c0.71-0.58,1.5-1,1.58-2.17
		c0.06-0.9,1.29-1.37,2.21-0.94c0.75,0.35,1.13,0.43,1.45-0.55c0.39-1.18,1.47-1.42,2.53-0.76c0.75,0.47,2.03,0.27,2.63-0.42
		c1.09-1.26,1.6-1.3,2.81-0.09c0.31,0.31,0.61,0.31,0.97,0.32c4.2,0.08,7.68,1.88,10.74,4.61c0.46,0.41,0.89,0.67,1.53,0.77
		c1.91,0.29,2.35,1.18,1.55,2.94c-0.09,0.2-0.13,0.36-0.03,0.55C39.14,12.46,39.45,13.83,39.89,15.22z"/>
	<path class="st1" d="M39.35,16.87c0.49-0.26,0.99-0.53,1.48-0.79c0.24-0.13,0.52-0.36,0.77-0.16c0.33,0.27,0.18,0.67,0.07,1
		c-0.6,1.7-1.42,3.29-2.37,4.82c-1.76,2.83-3.84,5.42-6.33,7.62c-1.49,1.31-3.47,1.73-5.31,2.34c-2.63,0.87-5.27,0.21-7.89-0.1
		c-1.1-0.13-2.21-0.32-3.27-0.64c-2.17-0.65-3.65-2.36-5.39-3.67C7.9,24.9,5.7,21.53,2.84,18.81c-0.19-0.18-0.45-0.39-0.27-0.71
		c0.16-0.28,0.46-0.28,0.74-0.28c1.01-0.02,1.97,0.21,2.94,0.48c0.56,0.27,1.15-0.16,1.72,0.07c0.22,0.02,0.43,0.07,0.64,0.13
		c1.98,1.15,3.55,0.41,4.97-1.07c0.3-0.12,0.57-0.28,0.77-0.54c0.82-0.57,1.32-1.65,2.54-1.56c0.55,0.37,0.38,0.99,0.53,1.5
		c0.69,0.97,1.02,2.1,1.37,3.22c0.92,2.96,1.77,5.95,2.77,8.89c0.09,0.26,0.18,0.53,0.31,0.77c0.18,0.33,0.4,0.63,0.82,0.58
		c0.49-0.06,0.49-0.48,0.49-0.82c0.02-3.11,0.03-6.21,0-9.32c0-0.64-0.36-1.03-0.9-1.29c-0.93-0.56-1.97-0.82-3-1.1
		c-0.65-0.17-1.31-0.34-1.79-0.87c-0.18-0.38-0.09-0.72,0.18-1.03c0.34-0.25,0.7-0.13,1.03-0.01c1.53,0.56,3.17,0.81,4.62,1.63
		c0.7,0.39,1.3,0.35,1.98-0.14c1.33-0.96,2.57-2.02,3.87-3.01c0.82-0.63,1.54-0.65,2.37-0.03c1.41,1.04,2.86,2.04,4.24,3.11
		c0.71,0.55,1.37,0.78,2.17,0.3C38.56,17.68,38.64,16.73,39.35,16.87z"/>
	<path class="st2" d="M21.38,3.65c0.16-0.27,0.29-0.57,0.49-0.8c0.49-0.55,0.86-0.59,0.91,0.29c-0.02,1.38-0.02,1.35,1.28,1.39
		c0.89,0.03,1.85-0.25,2.6,0.5c-0.45,1.02-1.5,0.85-2.3,1.18c-0.4,0.01-0.79,0.12-1.18,0.11c-0.77-0.02-1.22,0.32-1.56,1.02
		c-0.56,1.17-0.85,1.18-1.49,0.11c-0.27-0.45-0.55-0.37-0.89-0.22c-1.46,0.65-3.19,0.77-4.24,2.2c-0.03,0.04-0.14-0.01-0.21-0.06
		c-0.34-0.62-0.24-1.29-0.27-1.95c0.32-0.72,1.01-0.95,1.66-1.17c0.72-0.24,1.01-0.67,0.87-1.4c-0.02-0.15-0.01-0.32-0.08-0.46
		c-0.18-0.36-0.24-0.71,0.18-0.9c0.37-0.16,0.55,0.17,0.74,0.43c0.11,0.16,0.22,0.32,0.33,0.48C19.51,5.54,20.02,5.42,21.38,3.65z"
		/>
	<path class="st3" d="M26.68,5.1c-1.4-0.5-2.86-0.16-4.37-0.25c0.17-0.6,0.32-1.16,0.48-1.71c0.06,0.51,0.44,0.48,0.8,0.46
		C28.12,3.38,31.87,5.13,35,8.3c0.47,0.47,1.07,0.24,1.51,0.56c-1.59,0.89-2.88,0.23-4.1-0.79c-0.29-0.21-0.53-0.47-0.84-0.66
		c-1.18-0.69-2.44-1.22-3.63-1.87C27.55,5.33,27.03,5.45,26.68,5.1z"/>
	<path class="st4" d="M32.31,7.76c1.24,0.97,2.63,1.4,4.2,1.1c0.19,0.03,0.39,0.04,0.57,0.11c0.31,0.12,0.77,0.18,0.7,0.62
		c-0.06,0.43-0.5,0.22-0.78,0.29c-0.18,0.05-0.35,0.15-0.52,0.23c-0.37,0.31-0.74,0.35-0.92,0.21c1.28,1.72,2.46,3.74,2.64,6.22
		c-0.05,0.31-0.03,0.7-0.42,0.76c-0.32,0.04-0.51-0.25-0.55-0.53c-0.55-3.39-2.77-5.67-5.18-7.83C31.87,8.49,31.84,8.07,32.31,7.76z
		"/>
	<path class="st3" d="M8.62,11.13c0.85-1.76,2.25-3,3.8-4.11c0.31-0.22,0.73-0.33,0.84-0.77c0.68,0.36,0.53,1.01,0.56,1.6
		c-0.32,0.65-0.96,0.94-1.49,1.34c-1.11,0.85-1.9,2.02-2.92,2.95C8.84,12.04,8.62,11.67,8.62,11.13z"/>
	<path class="st5" d="M37.95,16.59c-0.23-2.41-1.4-4.43-2.77-6.38c0.46-0.24,0.89-0.11,1.31-0.09c1.27,1.83,1.87,3.92,2.38,6.04
		c0.08,0.32,0.07,0.64,0.48,0.71c0.02,0.29-0.73-0.04-0.43,0.59c0.1,0.22-0.36,0.53-0.76,0.33C37.79,17.44,38.23,16.95,37.95,16.59z
		"/>
	<path class="st5" d="M7.93,18.5c-0.57,0.03-1.16,0.17-1.69-0.21c0.64,0.06,0.55-0.35,0.51-0.76c-0.16-1.87,0.25-3.62,1.16-5.25
		c0.71,0.02,0.8,0.59,0.96,1.1C8.36,15.05,8.4,16.82,7.93,18.5z"/>
	<path class="st6" d="M13.63,7.92c-0.12-0.55-0.24-1.11-0.36-1.66c-0.01-0.04-0.02-0.08-0.02-0.11c-0.08-0.45-0.33-1.03,0.28-1.21
		c0.67-0.2,0.57,0.58,0.84,0.89c0.41,0.39,0.62,0.82,0.34,1.38c0.22,0.7,0.18,1.42,0.2,2.14c-0.38,0.79-0.5,0.77-1.17-0.16
		C13.58,8.78,13.43,8.36,13.63,7.92z"/>
	<path class="st7" d="M14.71,7.21c-0.11-0.46-0.23-0.92-0.34-1.38c0.93-0.23,1.67-0.98,2.68-0.99c0.76,0.73,0.53,1.17-0.39,1.5
		C15.99,6.57,15.36,6.91,14.71,7.21z"/>
	<path class="st8" d="M8.73,13.22c-0.27-0.31-0.54-0.63-0.81-0.94c-0.12-0.41-0.84-0.63-0.45-1.19c0.36-0.52,0.76-0.03,1.15,0.03
		c0.25,0.3,0.5,0.6,0.74,0.9c0.46,0.18,0.72,0.54,0.86,1c0.06,0.47-0.17,0.77-0.55,0.99C9.07,14.09,8.87,13.69,8.73,13.22z"/>
	<path class="st3" d="M21.38,3.65c-0.24,0.85-0.46,1.53-1.6,1.75c-1.08,0.21-1.35-0.2-1.56-1.02C19.21,3.87,20.34,3.97,21.38,3.65z"
		/>
	<path class="st9" d="M9.59,13.93c0.21-0.28,0.48-0.54,0.48-0.93c0-0.47,0.27-0.83,0.53-1.17c0.61-0.8,0.99-0.84,1.77-0.18
		c0.67,0.58,1.29,1.24,2.42,1.65c-0.64-0.91-1.3-1.41-1.93-1.91c-0.96-0.76-0.98-1.05-0.01-1.78c0.33-0.24,0.61-0.68,1.13-0.48
		c0.3,0.12,0.37,1.17,0.93,0.23c0.15-0.67,0.56-1.07,1.21-1.3c1.16-0.41,2.3-0.85,3.44-1.31c0.59-0.23,0.91-0.17,0.84,0.56
		c-0.02,0.27-0.04,0.63,0.28,0.72c0.36,0.1,0.47-0.28,0.52-0.52c0.38-1.79,1.74-1.55,3.01-1.5c-0.04,0.5-0.67,0.53-0.84,1.14
		c1.27,0.05,2.22-1.01,3.42-0.87c1.01,0.37,2.11,0.42,3.09,0.87c0.43,0.2,0.9,0.34,1.17,0.77c0.23,0.53,0,1.01-0.14,1.5
		c-0.31,1.1-0.59,2.21-0.7,3.47c0.6-0.91,0.83-1.86,1.13-2.79c0.15-0.47,0.12-1.06,0.76-1.24c2.7,1.85,4.63,4.25,5.32,7.53
		c0.06,0.28-0.09,0.66,0.35,0.72c0.02,0,0.1-0.34,0.15-0.52c0.34,0.35,0.16,0.8,0.21,1.21c-0.79,0.73-1.46,0.74-2.36-0.01
		c-1.49-1.24-3.16-2.27-4.71-3.43c-0.55-0.41-0.94-0.39-1.46,0.02c-1.47,1.15-3.01,2.2-4.44,3.39c-0.53,0.44-0.99,0.5-1.49,0.21
		c-1.82-1.04-3.89-1.36-5.82-2.11c-0.53-0.67,0.14-1.55-0.43-2.27c-0.59,0.48-0.09,1.34-0.64,1.81c-0.99,0.28-1.54,1.19-2.39,1.66
		c-1.12,0.14-1.98-0.8-3.2-0.83c0.67,0.95,1.89,0.61,2.45,1.43c-0.11,0.06-0.25,0.09-0.31,0.17c-1.35,2.12-3.15,1.62-4.99,0.87
		C7.9,16.9,8.09,15.25,9.59,13.93z"/>
	<path class="st10" d="M29.98,15.69c0.43,0.16,0.26,0.54,0.27,0.82c0.24,4.01-0.44,7.95-1.06,11.88c-0.26,1.62-2.03,2.62-3.75,2.38
		c-0.53-0.07-0.49-0.39-0.53-0.75c-0.16-1.67-0.18-3.33-0.02-5.01c0.15-1.5,0.06-3.03,0.1-4.55c0.01-0.42-0.19-0.88,0.21-1.24
		c0.58,1.43,0.43,2.96,0.56,4.44c0.11,1.26-0.07,2.54,0.14,3.99c1.6-3.54,2.66-7.06,3.59-10.63C29.61,16.57,29.69,16.09,29.98,15.69
		z"/>
	<path class="st11" d="M29.98,15.69c0.06,1.51-0.58,2.87-0.96,4.28c-0.79,2.91-1.84,5.73-3.08,8.47c-0.11-0.01-0.22-0.01-0.33-0.02
		c-0.14-3.06-0.27-6.13-0.41-9.19C26.69,17.92,28.23,16.67,29.98,15.69z"/>
	<path class="st10" d="M15.35,26.68c0.75,1.07,1.5,2.14,2.25,3.21c-5.26-2.55-9.2-6.67-13.19-11.17c1.66,0.43,3.07,0.8,4.47,1.17
		c0.93,0.81,1.77,1.71,2.53,2.67C12.6,24.06,14.18,25.17,15.35,26.68z"/>
	<path class="st11" d="M17.49,16.79c1.53,0.77,3.34,0.8,4.79,1.77c0.32,0.62,0.38,1.3,0.37,1.98c-0.03,2.28,0.01,4.54,0.41,6.8
		c0.12,0.66,0.38,1.7-0.39,1.92c-0.57,0.16-0.76-0.87-1.02-1.44c-1.18-2.57-2.15-5.23-3.16-7.87c-0.38-1.04-0.77-2.09-1.15-3.13
		C17.39,16.8,17.44,16.8,17.49,16.79z"/>
	<path class="st10" d="M33.07,26.4c-0.56,1.06-1.12,2.12-2.02,2.94c-0.32,0.29-0.77,0.63-1.17,0.36c-0.36-0.24,0.03-0.66,0.13-0.97
		c1.17-3.69,1.47-7.49,1.46-11.33c0-0.41-0.28-0.99,0.16-1.2c0.41-0.19,0.75,0.33,1.1,0.57c0.23,0.15,0.43,0.35,0.65,0.52
		C33.84,20.34,34.02,23.39,33.07,26.4z"/>
	<path class="st10" d="M14.38,18.24c1.65-1.43,1.52-1.38,2.24,0.69c1.12,3.27,2.43,6.47,3.66,9.71c0.08,0.22,0.2,0.45,0.23,0.68
		c0.04,0.44,0.64,1.02,0.14,1.25c-0.46,0.21-1.2,0.03-1.45-0.7c-1.97-3.34-3.17-7.02-4.65-10.58C14.4,18.96,14.35,18.61,14.38,18.24
		z"/>
	<path class="st12" d="M18.49,19.95c1.42,2.58,2.38,5.36,3.59,8.04c0.16,0.36,0.31,0.73,0.57,1.32c0.38-1.51-0.05-2.75-0.19-3.99
		c-0.25-2.25-0.11-4.51-0.17-6.76c1.01,0.24,1.31,0.86,1.29,1.91c-0.08,3.02-0.01,6.05-0.04,9.08c0,0.43,0.36,1.11-0.49,1.23
		c-0.75,0.11-1.29-0.08-1.54-0.91c-0.62-2.06-1.31-4.09-1.94-6.14C19.18,22.47,18.85,21.2,18.49,19.95z"/>
	<path class="st13" d="M14.38,18.24c1.61,3.88,3.21,7.75,4.82,11.63c-1.19-1.35-2.18-2.81-3.07-4.38c-0.85-1.52-1.93-2.93-3.03-4.29
		c-0.73-0.91-0.59-1.5,0.28-2.11C13.73,18.84,14.04,18.53,14.38,18.24z"/>
	<path class="st13" d="M33.07,26.4c0.14-2.24,0.35-4.47,0.29-6.72c-0.02-0.79-0.62-1.61,0.02-2.4c0.29,0.2,0.59,0.4,0.88,0.61
		c2.3,1.68,2.34,1.7,1,4.17C34.49,23.49,34.04,25.08,33.07,26.4z"/>
	<path class="st14" d="M15.35,26.68c-1.16-0.84-2.22-1.81-3.17-2.88c-1.13-1.28-2.48-2.37-3.31-3.91c1.79,0.24,3.11,1.01,3.92,2.76
		C13.47,24.08,14.49,25.34,15.35,26.68z"/>
	<path class="st15" d="M35.11,24.92c0.99-1.77,1.94-3.5,2.49-5.48c0.18-0.66,1.35-1.06,2.13-1.51
		C38.5,20.47,37.04,22.85,35.11,24.92z"/>
	<path class="st16" d="M17.49,16.79l-0.07,0.03c0,0-0.08-0.01-0.08-0.01c-0.37-0.4-0.27-0.97-0.53-1.41
		c0.01-0.52,0.01-1.03,0.05-1.55c0.03-0.39,0.1-0.87,0.64-0.82c0.44,0.04,0.52,0.44,0.51,0.82c-0.03,0.67-0.08,1.35-0.13,2.02
		C17.75,16.18,17.4,16.39,17.49,16.79z"/>
	<path class="st17" d="M13.67,17.67c-1.1-0.21-2.11-0.64-3.31-1.42c1.75-0.72,2.83,0.43,4.05,0.82C14.4,17.56,14,17.57,13.67,17.67z
		"/>
	<path class="st18" d="M9.59,13.93c-0.86,1.48-1.43,3.03-1.22,4.79c-0.14-0.07-0.29-0.14-0.43-0.21C7.82,16.69,8,14.91,8.72,13.22
		C9.01,13.46,9.3,13.69,9.59,13.93z"/>
	<path class="st19" d="M26.61,6.46c-0.82,0.15-1.54,0.57-2.31,0.87c-0.45,0.18-1.02,0.62-1.32-0.06c-0.31-0.69,0.45-0.76,0.84-1.02
		c0.13-0.09,0.27-0.16,0.4-0.25c0.82-0.3,1.64-0.6,2.46-0.9c0.49,0.04,1.03-0.18,1.46,0.25C28.24,6.57,27.27,6.3,26.61,6.46z"/>
	<path class="st20" d="M32.12,8.86c-0.67,1.46-0.76,3.16-1.91,4.62c-0.32-0.91-0.19-1.66-0.01-2.4c0.25-1.04,0.52-2.07,0.78-3.11
		c-0.13-0.56,0.21-0.72,0.67-0.79c0.38,0.02,0.48,0.36,0.67,0.59C32.25,8.13,32.19,8.49,32.12,8.86z"/>
	<path class="st21" d="M31.64,7.17c-0.32,0.18-0.51,0.47-0.67,0.79c-1.35-0.82-2.94-0.9-4.36-1.5c0.51-0.36,1.33-0.3,1.53-1.1
		C29.3,5.96,30.47,6.57,31.64,7.17z"/>
	<path class="st22" d="M13.98,9.13c-0.55,0.44-1.47,0.72-1.57,1.35c-0.11,0.65,0.98,0.72,1.37,1.27c0.25,0.34,0.65,0.57,0.99,0.85
		c0.32,0.26,0.46,0.6,0.22,0.94c-0.26,0.36-0.61,0.09-0.84-0.07c-0.64-0.46-1.31-0.92-1.84-1.5c-0.7-0.76-1.14-0.66-1.59,0.2
		c-0.16,0.31-0.43,0.56-0.64,0.84c-0.24-0.33-0.47-0.65-0.71-0.98c1.13-1.67,2.57-3.03,4.27-4.11C13.75,8.32,13.86,8.72,13.98,9.13z
		"/>
	<path class="st23" d="M27.34,13.55c-0.06,0.43-0.37,0.44-0.64,0.37c-0.42-0.12-0.87-0.25-1.21-0.5c-1.07-0.77-2.09-1.6-3.13-2.42
		c-0.27-0.21-0.44-0.49-0.2-0.83c0.19-0.27,0.46-0.33,0.74-0.16c1.54,0.93,2.88,2.14,4.29,3.25C27.28,13.33,27.3,13.47,27.34,13.55z
		"/>
	<path class="st24" d="M20.4,12.67c0,0.46,0.01,0.73-0.24,0.84c-0.35,0.15-0.52-0.16-0.64-0.38c-0.73-1.32-1.43-2.66-2.13-4
		c-0.17-0.33-0.09-0.62,0.23-0.83c0.23-0.15,0.49-0.12,0.65,0.09C19.28,9.74,19.97,11.25,20.4,12.67z"/>
	<path class="st19" d="M36.08,15.43c-0.06,0.33,0.12,0.74-0.3,0.84c-0.33,0.07-0.46-0.26-0.56-0.51c-0.53-1.24-0.79-2.59-1.47-3.77
		c-0.14-0.24-0.08-0.48,0.2-0.58c0.4-0.15,0.72,0.03,0.92,0.36C35.54,12.91,35.95,14.14,36.08,15.43z"/>
	<path class="st25" d="M21.27,16.32c-0.3-0.03-0.91,0.08-0.94-0.45c-0.02-0.41,0.58-0.43,0.96-0.5c1.15-0.2,2.3-0.2,3.46-0.2
		c0.23,0,0.55-0.06,0.56,0.27c0.01,0.26-0.24,0.39-0.49,0.42C23.67,16.02,22.53,16.16,21.27,16.32z"/>
	<path class="st26" d="M26.46,9.37c-0.35-0.02-0.58,0.05-0.68-0.18c-0.09-0.22,0.08-0.38,0.22-0.5c0.76-0.68,1.78-0.81,2.68-1.17
		c0.18-0.07,0.39,0.07,0.49,0.26c0.14,0.27,0,0.48-0.23,0.58C28.08,8.73,27.2,9.07,26.46,9.37z"/>
	<path class="st27" d="M29.67,10.08c-0.06,0.27-0.27,0.27-0.46,0.26c-0.16-0.01-0.34-0.07-0.32-0.27c0.02-0.22,0.17-0.36,0.39-0.36
		C29.51,9.72,29.62,9.87,29.67,10.08z"/>
</g>
</svg>
