<?xml version="1.0" encoding="utf-8"?>
<!-- Generator: Adobe Illustrator 23.0.2, SVG Export Plug-In . SVG Version: 6.00 Build 0)  -->
<svg version="1.1" id="Camada_1" xmlns="http://www.w3.org/2000/svg" xmlns:xlink="http://www.w3.org/1999/xlink" x="0px" y="0px"
	 viewBox="0 0 46.07 42.78" style="enable-background:new 0 0 46.07 42.78;" xml:space="preserve">
<style type="text/css">
	.st0{fill:#FEFEFE;}
	.st1{fill:#3C5254;}
	.st2{fill:#511A1A;}
	.st3{fill:#B82359;}
	.st4{fill:#B72258;}
	.st5{fill:#DBA2C5;}
	.st6{fill:#AB1F3A;}
	.st7{fill:#92BCC0;}
	.st8{fill:#D5EBED;}
	.st9{fill:#93BDC1;}
	.st10{fill:#AC6992;}
	.st11{fill:#D5ECEE;}
	.st12{fill:#94BEC2;}
	.st13{fill:#DEA2C7;}
	.st14{fill:#D4758C;}
	.st15{fill:#668386;}
	.st16{fill:#F1538D;}
	.st17{fill:#AC203C;}
	.st18{fill:#841E1E;}
	.st19{fill:#FD9DEB;}
	.st20{fill:#F7F2F2;}
	.st21{fill:#EB3C7C;}
	.st22{fill:#F282AB;}
	.st23{fill:#E93879;}
	.st24{fill:#F494B8;}
	.st25{fill:#F58BB2;}
	.st26{fill:#E2B4CF;}
	.st27{fill:#FD9AE8;}
	.st28{fill:#FD9CEB;}
	.st29{fill:#FAF1F3;}
	.st30{fill:#FAD7E4;}
</style>
<g>
	<path class="st0" d="M28.84,6.17c1.97,2.06,2.7,4.48,2.03,7.25c-0.15,0.61-0.01,0.71,0.56,0.81c1.26,0.23,2.43,0.75,3.61,1.25
		c2.78,1.18,4.14,3.31,4.54,6.22c0.28,2.01,0.34,2,2.15,1.13c1.1-0.54,2.19-0.48,3.12,0.31c1.1,0.93,1.45,2.13,1.09,3.56
		c-0.71,2.78-2.47,4.92-4.34,6.92c-3.35,3.6-7.37,6.34-11.9,8.25c-2.28,0.96-4.68,1.29-7.11,0.32c-1.19-0.48-2.46-0.68-3.76-0.6
		c-1.78,0.11-3.39-0.47-4.87-1.38c-1.5-0.92-3.08-1.66-4.66-2.42c-3.1-1.48-5.83-3.46-8.07-6.06c-0.38-0.44-0.65-1-0.9-1.54
		c-0.99-2.2,0.39-4.11,2.78-3.86c0.67,0.07,1.43,0.38,1.97,0.15c0.29-0.12,0.18-1.16,0.29-1.77c0.2-1.1,0.35-2.21,0.65-3.29
		c0.96-3.47,3.76-4.85,6.84-5.84c0.71-0.23,1.09-0.27,0.87-1.28c-1.13-5.09,1.86-8.98,7.09-9.24C22.07,5,22.94,4.64,23.69,3.6
		c0.72-0.99,1.67-1.83,2.57-2.67c1.19-1.11,2.75-1.22,3.82-0.36c0.96,0.78,1.08,2.17,0.31,3.61C30,4.93,29.43,5.55,28.84,6.17z"/>
	<path d="M38.59,25.84c1.24-0.65,2.27-1.17,3.26-1.73c0.74-0.42,1.47-0.67,2.2-0.08c0.84,0.68,0.98,1.56,0.68,2.59
		c-0.76,2.58-2.45,4.57-4.25,6.42c-2.53,2.62-5.39,4.81-8.69,6.46c-1.32,0.66-2.59,1.34-4,1.77c-2.02,0.62-3.94,0.15-5.84-0.48
		c-0.93-0.31-1.87-0.45-2.83-0.39c-1.87,0.12-3.52-0.5-5.06-1.49c-1.08-0.69-2.22-1.25-3.39-1.75c-2.78-1.19-5.21-2.92-7.43-4.95
		c-0.77-0.71-1.42-1.5-1.83-2.48c-0.6-1.41,0.09-2.35,1.66-2.21c0.55,0.05,1.12,0.07,1.66,0.18c0.54,0.11,1.06,0.31,1.76,0.52
		C6.4,26.56,6.48,25,6.76,23.45c0.77-4.43,2.65-5.4,6.81-6.85c0.15-0.05,0.31-0.05,0.47-0.08c1.01-0.2,1.48-0.49,1.04-1.77
		c-1.56-4.5,1.05-8.29,5.81-8.47c1.59-0.06,2.76-0.44,3.68-1.83c0.67-1.01,1.68-1.82,2.56-2.68c0.64-0.63,1.44-0.81,2.17-0.26
		c0.76,0.58,0.45,1.36,0.09,2.06c-0.49,0.93-1.28,1.62-1.96,2.41c-0.23,0.27-0.46,0.44,0,0.82c2.48,2.01,3.11,4.18,2.02,7.18
		c-0.32,0.89-0.01,1.06,0.73,1.19c1.57,0.29,3.05,0.82,4.52,1.47c2.28,1.02,3.32,2.78,3.71,5.14
		C38.61,23.08,38.72,24.36,38.59,25.84z"/>
	<path class="st1" d="M37.36,27.16c0.05,0.49,0.05,0.88,0.76,0.43c1.38-0.87,2.84-1.63,4.27-2.42c0.3-0.16,0.6-0.48,0.96-0.14
		c0.33,0.31,0.37,0.7,0.26,1.11c-0.21,0.77-0.47,1.53-0.92,2.2c-2.91,4.38-6.78,7.65-11.44,10.1c-1.9,1-3.74,1.95-5.93,1.91
		c-1.5-0.03-2.84-0.73-4.29-1.02c-1.56-0.31-3.24,0.22-4.7-0.61c-4.25-2.4-9-3.97-12.51-7.6c-0.48-0.49-0.94-0.99-1.19-1.62
		c-0.2-0.52-0.26-0.88,0.61-0.76c1.48,0.21,2.82,0.86,4.26,1.13c0.31,0.06,0.6,0.26,0.89-0.02c0.32-0.25,0.65-0.08,0.98-0.05
		c1.65,0.79,2.99,0.63,3.82-1.22c0.16-0.35,0.52-0.6,0.8-0.88c0.55-0.53,1.06-1.08,1.62-1.59c1.22-1.15,2.06-1.25,3.57-0.6
		c2.03,0.89,3.84,2.1,5.49,3.56c0.75,0.67,1.26,0.52,1.9-0.15c0.99-1.03,1.72-2.3,2.95-3.11c0.75-0.62,1.41-1.36,2.23-1.92
		c0.13-0.11,0.26-0.21,0.41-0.3c0.65-0.4,1.22-0.12,1.78,0.19c0.64,0.4,1.13,0.95,1.48,1.62C35.69,26.41,36.59,26.72,37.36,27.16z"
		/>
	<path class="st2" d="M17.47,16.57c-1.57-1.83-2.14-3.89-1.29-6.2c0.69-1.86,2.29-2.57,4.09-2.86c0.74-0.12,1.52-0.25,2.25-0.2
		c1.18,0.08,1.75-0.45,2.34-1.35c0.9-1.38,2.17-2.43,3.51-3.42c-0.75,1.84-2.45,2.96-3.46,4.8c2.14,0.13,3.38,1.23,3.74,3.3
		c0.34,1.97-0.38,3.58-1.68,5.1c0.66,0.36,1.45-0.09,2.04,0.37c-0.22,0.28-0.54,0.36-0.85,0.34c-1.24-0.08-2.43,0.19-3.63,0.48
		c-0.82,0.06-1.65-0.09-2.45,0.19c-0.28,0.05-0.56,0.08-0.85,0.07C19.97,17.03,18.6,17.52,17.47,16.57z"/>
	<path class="st3" d="M17.47,16.57c1.28,0.24,2.57,0.32,3.87,0.28c-0.06,0.57-0.54,0.49-0.9,0.55c-0.62,0.1-1.23,0.26-1.85,0.4
		c-2.35,0.5-4.58,1.42-6.81,2.29c-1.35,0.53-1.96,1.69-2.33,3.01c-0.11,0.38,0.02,0.77-0.05,1.15c-0.17,0.34-0.32,0.68-0.39,1.06
		c-0.11,0.33-0.1,0.68-0.1,1.02c-0.14,1.27,0.57,2.44,0.42,3.71c-0.32-0.06-0.64-0.12-0.95-0.18c-1.4-3.29-0.91-6.49,0.78-9.48
		c0.84-1.48,2.63-1.94,4.11-2.46C14.66,17.43,16.07,16.98,17.47,16.57z"/>
	<path class="st4" d="M24.41,16.6c1.5-0.49,3.04-0.56,4.6-0.5c2.17,0.5,4.32,0.98,6.22,2.26c0.85,0.57,1.34,1.26,1.63,2.22
		c0.65,2.17,0.62,4.37,0.49,6.58c-1.17,0.04-1.84-0.59-2.18-1.65c0.08-0.09,0.2-0.15,0.31-0.09c0.74,0.38,1,0.15,0.85-0.64
		c-0.04-0.19-0.05-0.38-0.04-0.58c0.11-0.71,0.06-1.41-0.12-2.1c0.03-1.14-0.59-1.87-1.52-2.39c-2.93-1.63-6-2.81-9.44-2.67
		C24.88,17.06,24.47,17.13,24.41,16.6z"/>
	<path class="st5" d="M29.75,25.93c-1.16,1.2-2.38,2.35-3.47,3.6c-0.6,0.7-0.99,0.54-1.54,0.02c-1.67-1.58-3.58-2.8-5.65-3.78
		c-1.45-0.68-2.01-0.61-3.19,0.5c-0.58,0.55-1.16,1.09-1.74,1.64c-0.85-0.27-0.66-1-0.72-1.62c0.89-1.23,2.13-2.12,3.3-3.04
		c0.62-0.5,1.4-0.17,1.98,0.32c0.63,0.53,1.35,0.8,2.11,1.07c1.1,0.39,2.03,0.17,2.91-0.51c0.38-0.29,0.75-0.59,1.17-0.82
		c0.57-0.31,1.18-0.41,1.69,0.01c0.95,0.8,1.99,1.46,2.99,2.18C29.71,25.61,29.76,25.75,29.75,25.93z"/>
	<path class="st6" d="M29.75,25.93c-1.09-0.65-2.21-1.28-3.06-2.24c-0.47-0.53-0.98-0.45-1.5-0.2c-0.32,0.15-0.6,0.39-0.86,0.64
		c-1.71,1.64-4.03,1.1-5.64-0.18c-1.11-0.88-1.67-0.9-2.62,0.15c-0.73,0.8-1.55,1.48-2.43,2.1c-0.78,0.84-1.76,0.56-2.7,0.49
		c-0.77-0.37-1.85-0.29-2.11-1.42c0.07-0.37-0.16-0.89,0.47-0.99c0.54-0.18,0.9,0.24,1.31,0.44c1.82,0.89,2.87,0.63,3.97-1.02
		c0.5-0.74,1.1-1.37,1.86-1.85c0.67-0.35,1.32-0.21,1.97,0.08c0.81,0.55,1.57,1.22,2.66,1.09c1.5,0.26,2.23-0.98,3.25-1.66
		c1.01-0.65,1.98-0.32,2.95,0.1c0.59,0.66,1.15,1.35,2.01,1.7c0.61,0.45,1.23,0.85,2.05,0.63c0.24-0.01,0.46,0.03,0.64,0.2
		C31.23,24.63,30.49,25.28,29.75,25.93z"/>
	<path class="st7" d="M19.67,27.13c0.96,0.4,1.77,1.07,2.68,1.55c2.61,1.4,3.64,3.49,3.01,6.4c-0.13,0.62-0.14,1.27-0.22,1.9
		c-0.3,2.34-0.73,2.61-3.13,1.97c0.68-0.23,0.69-0.62,0.51-1.28c-0.71-2.56-1.23-5.18-2.46-7.57c-0.26-0.5-0.56-0.96-0.83-1.44
		C18.84,28.01,18.87,27.45,19.67,27.13z"/>
	<path class="st8" d="M19.67,27.13c-0.55,0.59-0.43,1.04,0.03,1.73c1.51,2.28,2.15,4.93,2.82,7.54c0.2,0.8,0.39,1.6,0.6,2.46
		c-0.41,0.03-0.76,0.06-1.11,0.09c-1.77-0.3-1.9-0.42-2.1-2.17c-0.37-3.34-0.98-6.62-1.87-9.86c-0.05-0.18-0.07-0.38-0.14-0.79
		C18.6,26.53,19.13,26.83,19.67,27.13z"/>
	<path class="st8" d="M30.19,26.68c0.65-0.74,1.4-1.36,2.32-2.01c0.09,2.88-0.73,5.37-1.87,7.78c-0.96,2.04-2.31,3.89-2.9,6.11
		c-0.12,0.46-0.53,0.39-0.89,0.36c-0.31-0.41-0.12-0.84-0.02-1.25c0.59-2.39,1.14-4.8,2.19-7.03
		C29.62,29.35,29.38,27.87,30.19,26.68z"/>
	<path class="st9" d="M35.99,27.62c1.69,1.43,1.69,1.43,0.49,3.18c-1.41,2.07-3.01,4-4.55,5.98c-0.85,1.1-2.28,0.96-3.41,1.61
		c0.4-0.71,0.8-1.41,1.21-2.12c1.79-2.59,4.15-4.8,5.29-7.83C35.18,28.05,35.34,27.51,35.99,27.62z"/>
	<path class="st9" d="M30.19,26.68c-0.04,2.98-1.68,5.51-2.33,8.32c-0.3,1.31-0.67,2.61-1.01,3.92c-0.79,0.3-1.21,0.37-1.02-0.81
		c0.36-2.24,0.63-4.5,0.39-6.79c-0.03-0.26,0.03-0.46,0.2-0.66C27.66,29.32,28.66,27.75,30.19,26.68z"/>
	<path class="st7" d="M18.68,35.31c0.23,0.99,0.45,1.98,0.73,3.19c-2.34-2.57-4.51-4.98-6.71-7.36c-0.31-0.33-0.13-0.46,0.06-0.66
		c0.59-0.64,1.18-1.29,1.77-1.93c0.29,0.03,0.56,0.17,0.7,0.41C16.36,31.09,17.95,32.97,18.68,35.31z"/>
	<path class="st7" d="M15.54,35.58c0.72,0.78,1.43,1.56,2.15,2.34c-4.97-2-9.73-4.33-13.86-7.75C3.71,30.07,3.54,30,3.61,29.8
		c0.09-0.25,0.3-0.21,0.5-0.18c0.38,0.06,0.76,0.11,1.14,0.16C8.87,31.38,12.03,33.79,15.54,35.58z"/>
	<path class="st10" d="M10.75,26.39c0.97,0.04,1.95,0.14,2.9-0.2c0.12,0.59,0.12,1.22,0.51,1.73c-0.31,0.36-0.62,0.72-0.94,1.08
		c-0.54,0.62-0.9,1.83-1.54,1.81c-0.7-0.02-1.57-0.41-2.32-0.77c-0.55-1.22-0.79-2.5-0.71-3.84C9.38,25.83,10.04,26.4,10.75,26.39z"
		/>
	<path class="st11" d="M35.99,27.62c-0.52,0.19-0.65,0.69-0.81,1.12c-1.12,2.97-3.41,5.14-5.26,7.61c-0.01,0.02-0.13-0.05-0.2-0.08
		c1.16-2.48,2.6-4.83,3.22-7.54c0.27-1.2,0.33-2.42,0.44-3.98C34.38,25.85,35.19,26.74,35.99,27.62z"/>
	<path class="st11" d="M18.68,35.31c-1-1.66-2.02-3.31-2.97-4.99c-0.35-0.62-0.71-1.23-1.19-1.77c0.69-0.88,1.55-1.58,2.54-2.48
		C17.7,29.26,18.77,32.17,18.68,35.31z"/>
	<path class="st11" d="M15.54,35.58c-0.45,0.41-0.73-0.08-1.03-0.24c-3.02-1.62-5.81-3.63-8.9-5.12c-0.16-0.08-0.25-0.29-0.37-0.44
		c0.8,0.22,1.59,0.58,2.41,0.64C11.26,30.68,13.46,33.03,15.54,35.58z"/>
	<path class="st8" d="M38.37,29.31c-0.11-1,0.41-1.5,1.29-1.86c0.99-0.4,1.92-0.94,3.15-1.56c-1.15,2.85-3,4.84-4.94,6.77
		c-0.67-0.29-0.22-0.69-0.07-1C38.17,30.91,38.44,30.16,38.37,29.31z"/>
	<path class="st6" d="M36.44,22.09c0.29,0.74,0.47,1.47-0.04,2.2c-0.91-0.03-1.75-0.61-2.7-0.3c-0.52-0.37-1.05-0.52-1.62-0.09
		c0.12-1.19,1.06-1.67,1.91-2.23c0.46-0.1,0.93-0.15,1.41-0.17C35.84,21.55,36.21,21.69,36.44,22.09z"/>
	<path class="st12" d="M38.37,29.31c0.59,0.87,0.1,1.61-0.23,2.4C38,32,37.39,32.2,37.87,32.66c-0.23,0.24-0.47,0.49-0.7,0.73
		c-0.54,0.12-0.95,0.49-1.43,0.73c-0.1,0.06-0.22,0.18-0.3,0.16c-0.34-0.1-0.1-0.28-0.01-0.4c0.59-0.84,1.21-1.65,1.77-2.51
		C37.62,30.71,37.98,30,38.37,29.31z"/>
	<path class="st13" d="M33.71,23.98c1-0.76,1.86-0.3,2.7,0.3c0.15,0.23,0.3,0.46,0.26,0.76c-0.05,0.37,0.18,0.85-0.22,1.09
		c-0.46,0.27-0.66-0.26-0.96-0.46c-0.09-0.07-0.21-0.1-0.31-0.16C34.8,24.89,34.36,24.33,33.71,23.98z"/>
	<path class="st14" d="M34.04,21.86c-0.75,0.58-1.41,1.24-1.95,2.03c-0.03,0.05-0.07,0.08-0.12,0.1c-0.27,0.02-0.53,0.04-0.8,0.06
		c-0.18-0.37,0.14-0.6,0.25-0.89c0.05-0.1,0.12-0.19,0.19-0.28c0.42-0.48,0.84-0.97,1.36-1.34C33.41,21.21,33.94,20.94,34.04,21.86z
		"/>
	<path class="st15" d="M35.73,34.12c0.37-0.46,0.67-1.06,1.43-0.73C36.77,33.8,36.46,34.37,35.73,34.12z"/>
	<path class="st16" d="M34.04,21.86c-0.3-0.59-0.63-0.43-1.01-0.07c-0.45,0.44-0.92,0.86-1.38,1.28c-1.31,0.55-2.34-0.23-3.42-0.74
		c-0.35-0.17-0.63-0.47-0.96-0.69c-0.95-0.24-1.9-0.62-2.86-0.04c-0.73-0.03-1.02,0.66-1.54,0.98c-0.53,0.33-1.03,0.63-1.63,0.44
		c-0.53-0.17-0.06,0.23-0.19,0.27c-1.09,0.1-1.98-0.21-2.56-1.2c-0.51-0.68-0.66-1.44-0.34-2.23c0.31-0.75-0.06-1.57,0.29-2.3
		c0.9-0.5,1.97-0.29,2.89-0.71c0.25,0,0.49,0,0.74,0c3.27,0.22,6.51,0.59,9.48,2.1c0.86,0.43,1.56,1.07,2.62,1.2
		c0.61,0.07,1.43,0.55,1.23,1.55C34.98,21.92,34.5,21.82,34.04,21.86z"/>
	<path class="st17" d="M25.89,8.66c1.04-0.12,1.05,0.85,1.34,1.4c0.86,1.66,0.36,3.75-0.93,5.08c-0.72,0.74-1.54,0.42-2.33,0.49
		c-1.73-0.25-2.98-1.21-3.95-2.63c-0.94-1.38-0.92-2.82-0.36-4.32C21.74,8.32,23.82,8.21,25.89,8.66c-0.11,0.23-0.52,0.27-0.4,0.64
		c0.04,0.11,0.18,0.18,0.29,0.14C26.28,9.26,25.63,8.89,25.89,8.66z"/>
	<path class="st18" d="M19.66,8.68c0,0.36,0.03,0.72-0.02,1.07c-0.36,2.86,1.34,4.36,3.6,5.51c0.24,0.12,0.49,0.24,0.73,0.36
		c-1.45,0.15-2.9,0.31-4.35,0.46c-0.2-0.2-0.42-0.38-0.65-0.53c-1.69-1.13-2.25-2.71-1.94-4.66C17.41,9.56,18.53,9.12,19.66,8.68z"
		/>
	<path class="st19" d="M35.42,21.68c-0.6-0.83-1.01-2.02-2.44-1.15c-0.14,0.08-0.51-0.04-0.66-0.18c-1.6-1.59-3.28-2.3-5.4-2.56
		c-1.63-0.2-3.23-0.63-4.84-0.95c0.75-0.38,1.55-0.19,2.33-0.24c1.49,0.13,2.99,0.07,4.45,0.46c2.25,0.59,4.44,1.32,6.39,2.64
		c0.86,0.58,1.42,1.28,1.19,2.39C36.1,21.95,35.76,21.82,35.42,21.68z"/>
	<path class="st20" d="M17.04,10.9c0.03,0.03,0.07,0.06,0.07,0.09c-0.09,2.04,0.82,3.57,2.41,4.77c0.07,0.06,0.07,0.22,0.1,0.33
		c-1.31,0.09-2.91-1.43-2.8-2.88C16.88,12.44,16.55,11.62,17.04,10.9z"/>
	<path class="st21" d="M18.45,17.55c0.27,0.77,0.4,1.57-0.01,2.31c-0.43,0.79,0.2,1.48,0.06,2.22c-0.67,0.06-1.33-0.43-2-0.02
		c-0.76,0.23-1.28,0.8-1.74,1.37c-1.49,1.85-4.28,1.71-5.61-0.3c0.39-1.81,1.39-3.07,3.21-3.63C14.39,18.87,16.31,17.88,18.45,17.55
		z"/>
	<path class="st22" d="M9.15,23.13c0.61,0.43,1.2,0.91,1.92,1.18c0.33,0.12,0.65,0.37,0.93-0.08c0.12-0.19,0.38-0.29,0.5-0.13
		c1,1.23,1.35-0.04,1.82-0.5c0.65-0.63,1.09-1.53,2.17-1.53c-0.61,0.57-1.25,1.11-1.69,1.84c-1.05,1.72-2.34,2.07-4.16,1.15
		c-0.46-0.23-0.9-0.52-1.34-0.78C9.1,23.91,9.04,23.53,9.15,23.13z"/>
	<path class="st23" d="M10.75,26.39c-0.72,0.15-1.42,0.03-2.11-0.19c0-0.33-0.14-0.68,0.2-0.94C9.3,25.93,10.12,26,10.75,26.39z"/>
	<path class="st24" d="M27.28,21.64c1.22,0.14,2.08,1.23,3.34,1.29c0.35,0.02,0.7,0.09,1.04,0.14c-0.01,0.08-0.02,0.16-0.03,0.25
		c-0.82,0.54-1.63,0.35-2.45,0.01C28.34,23,27.63,22.52,27.28,21.64z"/>
	<path class="st25" d="M21.06,23.28c-0.14-0.32-0.64-0.11-0.77-0.63c1.34,0.48,2.36,0,3.24-0.93c0.24-0.25,0.53-0.54,0.89-0.12
		C23.37,22.3,22.67,23.7,21.06,23.28z"/>
	<path class="st26" d="M29.18,23.33c0.82,0,1.64-0.01,2.45-0.01c-0.15,0.24-0.31,0.48-0.46,0.72
		C30.27,24.48,29.77,23.77,29.18,23.33z"/>
	<path class="st27" d="M25.89,18.35c-0.02,0.32-0.13,0.55-0.4,0.56c-0.35,0.01-0.43-0.33-0.5-0.57c-0.07-0.26,0.11-0.47,0.38-0.48
		C25.72,17.85,25.81,18.13,25.89,18.35z"/>
	<path class="st28" d="M27.78,19.38c0,0.27-0.13,0.47-0.38,0.51c-0.32,0.05-0.51-0.14-0.53-0.46c-0.02-0.28,0.16-0.42,0.42-0.43
		C27.56,18.98,27.74,19.1,27.78,19.38z"/>
	<path class="st27" d="M31.08,21.63c-0.28-0.08-0.55-0.14-0.46-0.45c0.07-0.27,0.28-0.48,0.6-0.45c0.21,0.02,0.36,0.19,0.36,0.4
		C31.58,21.48,31.3,21.56,31.08,21.63z"/>
	<path class="st29" d="M25.89,8.66c0.18,0.32,0.75,0.43,0.57,0.93c-0.11,0.3-0.42,0.36-0.71,0.3c-0.42-0.1-0.94-0.24-0.89-0.78
		C24.93,8.51,25.47,8.62,25.89,8.66C25.9,8.66,25.89,8.66,25.89,8.66z"/>
	<path class="st30" d="M11.25,21.74c-0.29,0.01-0.42-0.18-0.43-0.43c-0.02-0.31,0.16-0.53,0.47-0.56c0.26-0.03,0.45,0.14,0.46,0.41
		C11.75,21.48,11.53,21.64,11.25,21.74z"/>
</g>
</svg>
