<?xml version="1.0" encoding="utf-8"?>
<!-- Generator: Adobe Illustrator 23.0.2, SVG Export Plug-In . SVG Version: 6.00 Build 0)  -->
<svg version="1.1" id="Camada_1" xmlns="http://www.w3.org/2000/svg" xmlns:xlink="http://www.w3.org/1999/xlink" x="0px" y="0px"
	 viewBox="0 0 44.68 35.32" style="enable-background:new 0 0 44.68 35.32;" xml:space="preserve">
<style type="text/css">
	.st0{fill:#49585E;}
	.st1{fill:#4A573D;}
	.st2{fill:#4A563C;}
	.st3{fill:#95B163;}
	.st4{fill:#49563C;}
	.st5{fill:#99BD74;}
	.st6{fill:#F97CB4;}
	.st7{fill:#4B573D;}
	.st8{fill:#97BA73;}
	.st9{fill:#76B6E4;}
	.st10{fill:#98BB73;}
	.st11{fill:#5F8248;}
	.st12{fill:#96BAC1;}
	.st13{fill:#D5EAED;}
	.st14{fill:#96BAC2;}
	.st15{fill:#D6EBED;}
	.st16{fill:#D6EBEE;}
	.st17{fill:#D7ECEE;}
	.st18{fill:#D8EDF0;}
	.st19{fill:#77B7E4;}
	.st20{fill:#F87DB5;}
	.st21{fill:#8FAC5F;}
	.st22{fill:#333E43;}
	.st23{fill:#77B9E9;}
	.st24{fill:#FA7EB6;}
	.st25{fill:#93AF61;}
	.st26{fill:#92AE62;}
	.st27{fill:#90AC61;}
	.st28{fill:#93AD61;}
	.st29{fill:#FB7EB7;}
	.st30{fill:#9ABD75;}
	.st31{fill:#FA7DB6;}
	.st32{fill:#79B4E2;}
	.st33{fill:#9ABC75;}
	.st34{fill:#9BBD75;}
	.st35{fill:#8CAC60;}
</style>
<g>
	<path d="M3.6,16.86c0.87,0.06,1.7,0.35,2.06,0.06C6.02,16.64,5.9,15.76,6,15.14c0.18-1.21,0.88-2.33,0.47-3.67
		c-0.17-0.57,0.23-1.25,0.9-1.36c0.99-0.16,1.41-0.92,2-1.53c0.58-0.6,1.2-1.17,1.84-1.71c0.54-0.45,1.04-0.8,1.1-1.67
		c0.08-1.04,1.29-1.56,2.32-1.08c0.74,0.35,1.06,0.37,1.36-0.54c0.4-1.19,1.48-1.47,2.51-0.82c0.82,0.52,2.06,0.31,2.71-0.46
		c1.01-1.17,1.64-1.22,2.74-0.07c0.3,0.31,0.59,0.35,0.95,0.36c4.29,0.08,7.84,1.9,10.92,4.75c0.46,0.42,0.93,0.52,1.48,0.62
		c1.84,0.35,2.32,1.28,1.5,2.9c-0.16,0.31-0.08,0.51,0.04,0.77c0.47,1.01,0.86,2.05,1.09,3.15c0.08,0.36,0.15,0.83,0.75,0.36
		c0.66-0.51,1.46-0.5,2.12-0.02c0.74,0.54,0.55,1.37,0.32,2.09c-0.93,2.96-2.55,5.56-4.39,8.04c-0.76,1.03-1.66,1.95-2.42,2.97
		c-1.89,2.53-4.61,3.64-7.44,4.69c-3.45,1.29-6.8,0.23-10.21-0.07c-3.87-0.34-6.3-3.04-9.03-5.25c-2.03-1.64-3.66-3.67-5.37-5.63
		c-0.58-0.66-1.2-1.29-1.82-1.91c-0.57-0.57-1.28-1.12-0.9-2.03C1.95,17.05,2.88,16.88,3.6,16.86z"/>
	<path class="st0" d="M39.61,17.1c0.49-0.26,0.98-0.53,1.48-0.8c0.24-0.13,0.52-0.36,0.77-0.16c0.33,0.27,0.18,0.67,0.06,1
		c-0.6,1.7-1.42,3.29-2.37,4.82c-1.76,2.83-3.84,5.42-6.33,7.62c-1.49,1.31-3.47,1.73-5.31,2.34c-2.63,0.86-5.27,0.21-7.89-0.1
		c-1.1-0.13-2.21-0.32-3.27-0.64c-2.17-0.65-3.65-2.36-5.39-3.67c-3.19-2.39-5.39-5.77-8.25-8.48c-0.19-0.18-0.45-0.39-0.27-0.71
		c0.16-0.28,0.46-0.28,0.74-0.28c1.01-0.02,1.97,0.21,2.94,0.48c0.56,0.27,1.15-0.16,1.72,0.07c0.22,0.02,0.43,0.07,0.64,0.13
		c1.98,1.15,3.55,0.41,4.97-1.07c0.3-0.12,0.57-0.28,0.77-0.54c0.82-0.57,1.32-1.65,2.54-1.56c0.55,0.37,0.38,0.99,0.53,1.5
		c0.69,0.97,1.02,2.1,1.37,3.22c0.92,2.96,1.77,5.95,2.77,8.89c0.09,0.26,0.18,0.53,0.31,0.77c0.18,0.33,0.4,0.63,0.82,0.58
		c0.49-0.06,0.49-0.48,0.49-0.82c0.02-3.11,0.03-6.21,0-9.32c0-0.64-0.36-1.03-0.9-1.29c-0.93-0.56-1.97-0.82-3-1.1
		c-0.65-0.17-1.31-0.34-1.79-0.87c-0.18-0.38-0.09-0.72,0.18-1.03c0.34-0.25,0.69-0.13,1.03-0.01c1.53,0.56,3.17,0.8,4.61,1.63
		c0.75,0.43,1.38,0.3,2.08-0.2c1.29-0.94,2.5-1.97,3.77-2.94c0.81-0.62,1.53-0.68,2.37-0.05c1.44,1.07,2.92,2.08,4.34,3.18
		c0.68,0.52,1.31,0.7,2.07,0.26C38.84,17.97,39.09,17.3,39.61,17.1z"/>
	<path class="st1" d="M23.04,3.37c0.06,0.5,0.43,0.48,0.8,0.47c4.54-0.22,8.29,1.52,11.42,4.69c0.47,0.47,1.07,0.23,1.51,0.57
		c-0.64,0.6-1.41,0.35-2.14,0.35c-0.82-0.16-1.36-0.8-2.03-1.22c-0.26-0.21-0.5-0.46-0.8-0.62c-1.2-0.65-2.43-1.23-3.65-1.84
		c-0.47-0.18-0.97-0.12-1.45-0.19c-0.88-0.26-1.79-0.13-2.68-0.17c-0.53-0.03-1.11,0.08-1.51-0.43C22.41,4.35,22.28,3.71,23.04,3.37
		z"/>
	<path class="st1" d="M8.88,11.35c0.85-1.76,2.25-3,3.8-4.11c0.31-0.22,0.73-0.33,0.84-0.77c0.68,0.36,0.53,1.01,0.56,1.6
		c-0.32,0.65-0.96,0.94-1.49,1.34c-1.11,0.85-1.9,2.02-2.92,2.95C9.1,12.27,8.88,11.9,8.88,11.35z"/>
	<path class="st2" d="M39.61,17.1c-0.29,0.45-0.4,1.13-1.2,0.92c-0.35-0.33-0.29-0.81-0.45-1.21c-0.32-1.95-1.14-3.69-2.2-5.34
		c-0.22-0.34-0.71-0.74-0.38-1.14c0.36-0.43,0.91-0.39,1.37,0.01c1.27,1.83,1.87,3.92,2.38,6.05C39.2,16.72,39.2,17.04,39.61,17.1z"
		/>
	<path class="st3" d="M36.75,10.35c-0.42-0.02-0.85-0.15-1.31,0.09c1.36,1.95,2.53,3.97,2.77,6.38c0.1,0.26,0.23,0.59-0.11,0.71
		c-0.32,0.12-0.52-0.19-0.58-0.46c-0.2-0.81-0.38-1.62-0.73-2.39c-1-2.25-2.71-3.89-4.48-5.51c-0.19-0.45-0.21-0.87,0.26-1.18
		c0.73,0.18,1.15,0.83,1.76,1.19c0.27,0.57,0.78,0.6,1.32,0.62c0.46,0.02,0.97-0.1,1.35,0.31C36.91,10.19,36.83,10.27,36.75,10.35z"
		/>
	<path class="st4" d="M8.2,18.73c-0.57,0.02-1.16,0.17-1.69-0.21c0.64,0.06,0.55-0.35,0.51-0.76c-0.16-1.87,0.25-3.62,1.16-5.25
		c0.71,0.02,0.8,0.59,0.96,1.1C8.62,15.27,8.66,17.05,8.2,18.73z"/>
	<path class="st5" d="M23.04,3.37c-0.16,0.49-0.32,0.97-0.49,1.46c0.04,0.55-0.02,1.08-0.22,1.6c-0.16,0.49-0.32,0.97-0.59,1.41
		c-0.18,0.3-0.37,0.67-0.79,0.59c-0.47-0.09-0.54-0.51-0.56-0.92c-0.01-0.16,0.02-0.31,0.04-0.47c0.18-0.58,0.13-1.22,0.39-1.79
		c0.19-0.51,0.43-0.98,0.81-1.37c0.19-0.3,0.33-0.64,0.57-0.88C22.75,2.45,23,2.69,23.04,3.37z"/>
	<path class="st6" d="M13.89,8.14c-0.12-0.55-0.24-1.11-0.36-1.66c-0.01-0.04-0.02-0.08-0.02-0.11c-0.08-0.45-0.33-1.03,0.28-1.21
		c0.67-0.2,0.57,0.58,0.85,0.89c0.44,0.35,0.52,0.87,0.63,1.37c0.22,0.7,0.25,1.41,0.12,2.13c-0.61,0.82-0.69,0.81-1.37-0.11
		C13.84,9.02,13.7,8.6,13.89,8.14z"/>
	<path class="st7" d="M14.97,7.42c-0.11-0.45-0.23-0.91-0.34-1.36c0.93-0.23,1.67-0.98,2.68-0.99c0.52-0.03,0.56,0.38,0.66,0.74
		C17.38,7.1,16.14,7.19,14.97,7.42z"/>
	<path class="st8" d="M17.81,5.79c-0.17-0.24-0.33-0.48-0.5-0.73c-0.02-0.15-0.01-0.32-0.08-0.46c-0.18-0.36-0.24-0.71,0.18-0.9
		c0.37-0.16,0.55,0.17,0.73,0.43c0.11,0.16,0.22,0.32,0.33,0.47c0.43,0.27,0.6,0.73,0.81,1.15c0.2,0.48,0.29,0.96,0.06,1.46
		c-0.2,0.29-0.46,0.44-0.82,0.36C17.73,7.21,17.91,6.44,17.81,5.79z"/>
	<path class="st9" d="M8.99,13.45c-0.27-0.31-0.54-0.63-0.81-0.94c-0.12-0.41-0.84-0.63-0.45-1.19c0.36-0.52,0.76-0.03,1.15,0.03
		c0.25,0.3,0.5,0.59,0.75,0.89c0.46,0.19,0.72,0.54,0.86,1c0.06,0.47-0.17,0.77-0.55,0.99C9.33,14.32,9.13,13.92,8.99,13.45z"/>
	<path class="st2" d="M18.98,5.79C18.81,5.4,18.64,5,18.48,4.61c0.99-0.51,2.13-0.41,3.17-0.73c-0.17,0.47-0.33,0.95-0.5,1.42
		C20.49,5.77,19.83,6.22,18.98,5.79z"/>
	<path class="st10" d="M37,10.11c-0.71,0-1.42,0.01-2.12-0.02c-0.61-0.03-0.9-0.29-0.54-0.91c0.81-0.03,1.62-0.06,2.44-0.09
		c0.12,0.02,0.24,0.03,0.35,0.06c0.38,0.13,1,0.13,0.9,0.68C37.93,10.35,37.35,10.01,37,10.11z"/>
	<path class="st11" d="M9.85,14.16c0.21-0.28,0.48-0.54,0.49-0.93c0.18-0.84,0.55-1.51,1.41-1.83c0.9,0.2,1.36,1.03,2.1,1.47
		c0.32,0.19,0.53,0.6,1.09,0.52c-0.63-1.09-1.81-1.52-2.55-2.4c0.21-1.01,0.87-1.5,1.85-1.63c0.3,0.13,0.37,1.14,0.93,0.24
		c0.21-1.27,1.55-2.15,3.33-2.16c0.28,0.05,0.49-0.11,0.71-0.24c0.89-0.71,0.94-0.72,1.47-0.22c0,0.28-0.02,0.55-0.01,0.83
		c0,0.21,0.1,0.43,0.3,0.46c0.21,0.03,0.33-0.17,0.41-0.36c0.24-0.54,0.48-1.08,0.72-1.62c0.59-0.48,1.21-0.43,1.84-0.1
		c0.41,0.47-0.43,0.7-0.2,1.21c1.16-0.01,2.09-1.02,3.3-0.9c1.05,0.37,2.19,0.43,3.21,0.92c0.4,0.19,0.82,0.33,1.07,0.73
		c0.23,0.52,0,1.01-0.14,1.5c-0.31,1.1-0.59,2.21-0.69,3.47c0.6-0.91,0.83-1.86,1.13-2.79c0.15-0.47,0.12-1.06,0.76-1.23
		c2.7,1.85,4.61,4.27,5.31,7.53c0.06,0.28-0.09,0.66,0.36,0.72c0.03,0,0.1-0.34,0.15-0.52c0.34,0.36,0.16,0.8,0.21,1.21
		c-0.79,0.73-1.46,0.74-2.36-0.01c-1.49-1.24-3.16-2.27-4.71-3.43c-0.55-0.41-0.94-0.39-1.46,0.02c-1.47,1.15-3.01,2.2-4.44,3.39
		c-0.53,0.44-0.99,0.5-1.49,0.21c-1.82-1.04-3.89-1.36-5.82-2.11c-0.53-0.67,0.14-1.55-0.43-2.27c-0.59,0.48-0.09,1.34-0.64,1.81
		c-0.99,0.28-1.54,1.19-2.39,1.66c-1.12,0.14-1.98-0.8-3.2-0.83c0.67,0.95,1.89,0.61,2.45,1.43c-0.11,0.06-0.25,0.09-0.31,0.17
		c-1.35,2.12-3.15,1.62-4.99,0.87C8.16,17.12,8.35,15.47,9.85,14.16z"/>
	<path class="st12" d="M30.23,15.92c0.49,0.24,0.26,0.71,0.28,1.06c0.18,3.4-0.32,6.76-0.83,10.11c-0.04,0.24-0.1,0.47-0.12,0.71
		c-0.29,2.4-1.2,3.2-3.62,3.2c-0.47,0-0.71-0.06-0.78-0.62c-0.41-3.59,0.26-7.16,0.14-10.74c0-0.06,0.1-0.11,0.15-0.17
		c0.58,1.43,0.43,2.96,0.56,4.44c0.11,1.26-0.07,2.54,0.14,3.99c1.61-3.59,2.68-7.15,3.63-10.76
		C29.89,16.71,29.89,16.25,30.23,15.92z"/>
	<path class="st13" d="M30.23,15.92c0.07,1.51-0.58,2.87-0.96,4.28c-0.78,2.91-1.84,5.73-3.08,8.47c-0.11-0.01-0.22-0.01-0.33-0.02
		c-0.14-3.06-0.27-6.13-0.41-9.19c1.14-1.22,2.68-1.94,3.85-3.12c0.22-0.36,0.5-0.61,0.96-0.49L30.23,15.92z"/>
	<path class="st12" d="M15.61,26.91c0.75,1.07,1.5,2.14,2.25,3.21c-5.26-2.55-9.2-6.67-13.19-11.16c1.66,0.43,3.07,0.8,4.47,1.17
		c0.93,0.81,1.77,1.71,2.53,2.67C12.87,24.29,14.44,25.4,15.61,26.91z"/>
	<path class="st13" d="M18.75,20.17c-0.38-1.04-0.77-2.09-1.15-3.13c0.05-0.01,0.1-0.02,0.15-0.02c1.53,0.77,3.34,0.8,4.79,1.77
		c0.32,0.62,0.38,1.3,0.37,1.98c-0.03,2.28,0.01,4.54,0.41,6.8c0.12,0.66,0.38,1.7-0.39,1.92c-0.57,0.16-0.76-0.87-1.02-1.44
		C20.73,25.47,19.76,22.81,18.75,20.17z"/>
	<path class="st12" d="M33.34,26.63c-0.56,1.06-1.12,2.12-2.02,2.94c-0.32,0.29-0.77,0.63-1.16,0.36c-0.36-0.24,0.03-0.66,0.13-0.97
		c1.17-3.69,1.47-7.49,1.46-11.33c0-0.41-0.28-0.99,0.16-1.2c0.41-0.19,0.75,0.33,1.1,0.57c0.23,0.15,0.43,0.35,0.65,0.52
		C34.1,20.57,34.28,23.62,33.34,26.63z"/>
	<path class="st12" d="M14.64,18.47c1.65-1.43,1.53-1.39,2.24,0.69c1,2.93,2.2,5.79,3.29,8.69c0.36,0.95,0.65,1.93,1.01,3.01
		c-0.79-0.07-1.43-0.01-1.72-0.76c-1.97-3.34-3.17-7.02-4.65-10.58C14.66,19.19,14.61,18.83,14.64,18.47z"/>
	<path class="st14" d="M18.75,20.17c1.42,2.58,2.38,5.36,3.59,8.04c0.16,0.36,0.31,0.73,0.57,1.32c0.38-1.51-0.05-2.75-0.19-3.99
		c-0.25-2.25-0.11-4.51-0.17-6.76c1.01,0.24,1.31,0.86,1.29,1.91c-0.08,3.02-0.01,6.05-0.04,9.08c0,0.43,0.36,1.11-0.49,1.23
		c-0.75,0.11-1.29-0.08-1.53-0.91c-0.62-2.06-1.31-4.09-1.94-6.14C19.44,22.7,19.11,21.43,18.75,20.17z"/>
	<path class="st15" d="M14.64,18.47c1.61,3.88,3.21,7.75,4.82,11.63c-1.19-1.35-2.18-2.81-3.07-4.38c-0.85-1.52-1.93-2.93-3.03-4.29
		c-0.73-0.91-0.59-1.5,0.28-2.11C13.99,19.07,14.31,18.76,14.64,18.47z"/>
	<path class="st16" d="M33.34,26.63c0.14-2.24,0.35-4.47,0.29-6.72c-0.02-0.79-0.62-1.61,0.02-2.4c0.29,0.2,0.59,0.4,0.88,0.61
		c2.3,1.68,2.34,1.7,1,4.17C34.75,23.72,34.3,25.31,33.34,26.63z"/>
	<path class="st17" d="M15.61,26.91c-1.17-0.84-2.22-1.82-3.17-2.88c-1.13-1.28-2.48-2.37-3.31-3.91c1.79,0.24,3.11,1.01,3.92,2.76
		C13.73,24.3,14.75,25.57,15.61,26.91z"/>
	<path class="st18" d="M39.79,18.36c-1.13,2.51-2.55,4.8-4.43,6.8c0.75-1.38,1.74-2.67,2.04-4.2
		C37.69,19.52,38.72,18.98,39.79,18.36z"/>
	<path class="st19" d="M17.75,17.01l-0.07,0.03c0,0-0.08-0.01-0.08-0.01c-0.37-0.4-0.27-0.97-0.53-1.41
		c0.01-0.52,0.01-1.03,0.05-1.55c0.03-0.39,0.1-0.87,0.64-0.82c0.44,0.04,0.52,0.44,0.51,0.82c-0.03,0.67-0.08,1.35-0.13,2.02
		C18.01,16.41,17.67,16.62,17.75,17.01z"/>
	<path class="st20" d="M13.93,17.9c-1.09-0.23-2.13-0.6-3.25-1.44c1.69-0.7,2.77,0.45,4,0.84C14.66,17.79,14.26,17.79,13.93,17.9z"
		/>
	<path class="st21" d="M9.85,14.16c-0.86,1.48-1.43,3.03-1.22,4.79c-0.14-0.07-0.29-0.14-0.43-0.21c-0.12-1.82,0.07-3.59,0.79-5.28
		C9.27,13.69,9.56,13.92,9.85,14.16z"/>
	<path class="st22" d="M30.26,15.85c-0.32,0.16-0.64,0.33-0.96,0.49c-0.04-0.7,0.52-0.77,1-0.87
		C30.41,15.45,30.29,15.72,30.26,15.85z"/>
	<path class="st23" d="M32.38,9.09c-0.68,1.45-0.76,3.16-1.92,4.61c-0.32-0.92-0.19-1.66-0.01-2.4c0.25-1.04,0.52-2.07,0.78-3.11
		c-0.13-0.56,0.22-0.72,0.67-0.79c0.38,0.02,0.48,0.36,0.68,0.59C32.51,8.36,32.45,8.72,32.38,9.09z"/>
	<path class="st24" d="M26.87,6.69c-0.75,0.28-1.49,0.56-2.24,0.84c-0.46,0.17-1,0.68-1.37,0.02c-0.4-0.72,0.42-0.77,0.77-1.07
		c0.7-1.05,1.82-1.06,2.91-1.15c0.49,0.05,1.03-0.18,1.45,0.26C28.5,6.8,27.53,6.52,26.87,6.69z"/>
	<path class="st25" d="M26.87,6.69c0.51-0.36,1.33-0.3,1.53-1.1c1.17,0.61,2.34,1.21,3.5,1.81c-0.32,0.18-0.51,0.47-0.67,0.79
		C29.89,7.37,28.29,7.29,26.87,6.69z"/>
	<path class="st26" d="M26.94,5.32C25.97,5.71,25,6.09,24.03,6.48c-0.6-0.46-1.28-0.11-1.92-0.19c0.12-0.49,0.14-1.02,0.44-1.46
		c0.42,0.48,0.97,0.21,1.45,0.23C24.99,5.09,25.99,4.96,26.94,5.32z"/>
	<path class="st25" d="M11.78,11.53c-0.71,0.37-0.88,1.2-1.45,1.7c-0.24-0.33-0.48-0.65-0.71-0.98c1.13-1.67,2.56-3.02,4.26-4.1
		c0.12,0.4,0.23,0.81,0.35,1.22c-0.57,0.57-1.48,0.79-1.73,1.7C12.3,11.26,12,11.33,11.78,11.53z"/>
	<path class="st27" d="M20.68,6.98c-0.57-0.46-0.95,0.34-1.47,0.22c0.02-0.49,0.05-0.97-0.23-1.41c0.72-0.16,1.44-0.33,2.16-0.49
		C20.72,5.79,21.12,6.5,20.68,6.98z"/>
	<path class="st28" d="M18.5,7.43c-0.67,0.3-1.33,0.68-2.03,0.88c-0.71,0.2-1.11,0.61-1.3,1.29c-0.02-0.73,0.02-1.47-0.2-2.18
		c0.88-0.66,2.18-0.59,2.84-1.63C18.04,6.34,18.27,6.89,18.5,7.43z"/>
	<path class="st29" d="M27.07,14.18c-0.47-0.06-0.93-0.23-1.31-0.51c-1.03-0.76-2.03-1.55-3.04-2.34c-0.28-0.22-0.58-0.5-0.3-0.91
		c0.32-0.47,0.74-0.25,1.05-0.02c1.29,0.95,2.55,1.93,3.81,2.91c0.19,0.14,0.37,0.33,0.29,0.61C27.51,14.16,27.29,14.16,27.07,14.18
		z"/>
	<path class="st30" d="M20.65,12.91c0.01,0.42,0.03,0.75-0.29,0.85c-0.32,0.1-0.49-0.21-0.62-0.45c-0.7-1.29-1.38-2.6-2.07-3.9
		C17.5,9.1,17.52,8.8,17.82,8.57c0.26-0.2,0.56-0.17,0.74,0.09C19.53,9.99,20.24,11.45,20.65,12.91z"/>
	<path class="st31" d="M36.33,15.52c-0.05,0.37,0.17,0.85-0.27,0.97c-0.45,0.12-0.55-0.38-0.67-0.69c-0.44-1.06-0.65-2.21-1.22-3.23
		c-0.16-0.28-0.48-0.66,0.01-0.91c0.44-0.22,0.78,0.05,0.99,0.41C35.78,13.15,36.18,14.31,36.33,15.52z"/>
	<path class="st32" d="M24.08,15.44c0.37,0.13,1.4-0.34,1.41,0.2c0.01,0.84-1.01,0.38-1.57,0.52c-0.89,0.21-1.79,0.45-2.71,0.37
		c-0.26-0.02-0.63-0.07-0.65-0.39c-0.02-0.35,0.36-0.42,0.61-0.46C22.07,15.52,22.97,15.36,24.08,15.44z"/>
	<path class="st33" d="M11.78,11.53c0.02-0.5,0.23-0.71,0.73-0.47c1.11,0.28,1.71,1.27,2.6,1.86c0.27,0.18,0.27,0.63,0.11,0.87
		c-0.19,0.29-0.54,0.08-0.74-0.08C13.57,12.99,12.68,12.26,11.78,11.53z"/>
	<path class="st34" d="M29.49,8.2c-0.03,0.07-0.06,0.21-0.14,0.26c-0.9,0.59-1.91,0.94-2.96,1.11c-0.38,0.06-0.46-0.2-0.25-0.53
		c0.24-0.37,2.58-1.42,2.97-1.3C29.31,7.81,29.46,7.93,29.49,8.2z"/>
	<path class="st35" d="M29.54,9.94c0.22,0.03,0.38,0.16,0.36,0.38c-0.02,0.27-0.27,0.25-0.46,0.25c-0.17,0-0.33-0.09-0.31-0.28
		C29.16,10.08,29.31,9.96,29.54,9.94z"/>
</g>
</svg>
