<?xml version="1.0" encoding="utf-8"?>
<!-- Generator: Adobe Illustrator 23.0.2, SVG Export Plug-In . SVG Version: 6.00 Build 0)  -->
<svg version="1.1" id="Camada_1" xmlns="http://www.w3.org/2000/svg" xmlns:xlink="http://www.w3.org/1999/xlink" x="0px" y="0px"
	 viewBox="0 0 44.46 34.48" style="enable-background:new 0 0 44.46 34.48;" xml:space="preserve">
<style type="text/css">
	.st0{fill:#FEFEFE;}
	.st1{fill:#405557;}
	.st2{fill:#371D15;}
	.st3{fill:#371D16;}
	.st4{fill:#361C14;}
	.st5{fill:#381E16;}
	.st6{fill:#98BE74;}
	.st7{fill:#F773DB;}
	.st8{fill:#90B26C;}
	.st9{fill:#98BF74;}
	.st10{fill:#361C15;}
	.st11{fill:#76BBE9;}
	.st12{fill:#65301F;}
	.st13{fill:#92BCC0;}
	.st14{fill:#D4EBED;}
	.st15{fill:#D5ECEE;}
	.st16{fill:#D5EBED;}
	.st17{fill:#D6EDEE;}
	.st18{fill:#D9EFF0;}
	.st19{fill:#F775E0;}
	.st20{fill:#77BCE9;}
	.st21{fill:#B76248;}
	.st22{fill:#77BDEC;}
	.st23{fill:#FB76E1;}
	.st24{fill:#B16046;}
	.st25{fill:#B26045;}
	.st26{fill:#B25F45;}
	.st27{fill:#B46148;}
	.st28{fill:#AC6246;}
	.st29{fill:#B15F45;}
	.st30{fill:#FB75E0;}
	.st31{fill:#99BE74;}
	.st32{fill:#F774DE;}
	.st33{fill:#9AC075;}
	.st34{fill:#77B9E6;}
	.st35{fill:#9ABF74;}
	.st36{fill:#A4573F;}
	.st37{fill:#AF5E44;}
</style>
<g>
	<path class="st0" d="M41.55,13.25c2.25-0.19,3.46,1.69,2.66,3.93c-1.29,3.61-3.27,6.82-5.67,9.78c-0.63,0.77-1.35,1.47-1.96,2.26
		c-1.88,2.43-4.61,3.37-7.32,4.48c-3.5,1.43-6.88,0.53-10.37,0.16c-3.81-0.41-6.51-2.57-9.26-4.83c-2.36-1.94-4.39-4.18-6.34-6.51
		c-0.61-0.73-1.29-1.42-2.02-2.05c-1.85-1.6-1.67-3.51,0.49-4.66c0.31-0.16,0.66-0.27,1-0.37c0.74-0.22,1.95,0.45,1.99-1.08
		c0.02-0.86,0.65-1.59,0.39-2.55C4.8,10.51,5.7,9.4,6.88,8.6c1.66-1.13,3.35-2.34,4.18-4.32c0.5-1.2,1.75-1.98,3.07-1.81
		c0.48,0.06,0.74,0.05,1.08-0.38c0.92-1.16,2.14-1.44,3.53-0.79c0.71,0.33,1.13,0.23,1.65-0.32c1.15-1.22,2.59-1.3,3.96-0.26
		c0.3,0.23,0.57,0.38,0.95,0.4c4.19,0.28,7.75,2.02,10.87,4.74c0.44,0.38,0.87,0.6,1.45,0.72c2.21,0.46,3.06,1.95,2.37,4.15
		c-0.23,0.73,0.35,1.18,0.45,1.79C40.56,13.15,40.82,13.71,41.55,13.25z"/>
	<path d="M39.96,15.23c0.33-0.23,0.51-0.4,0.72-0.49c0.71-0.28,1.51-0.61,2.15-0.02c0.66,0.61,0.47,1.4,0.18,2.21
		c-1.86,5.3-5.19,9.59-9.23,13.34c-1.65,1.53-4,1.85-6.07,2.64c-2.99,1.14-5.85-0.07-8.78-0.28c-4.24-0.3-6.89-3.24-9.84-5.67
		c-2.23-1.84-3.93-4.19-5.89-6.3c-0.35-0.38-0.7-0.79-1.12-1.08c-0.62-0.42-1.01-0.92-0.82-1.69c0.19-0.77,0.92-0.93,1.5-1.24
		c0.13-0.07,0.31-0.06,0.47-0.06c0.82,0.03,1.85,0.38,2.38,0c0.48-0.34,0.14-1.48,0.36-2.27c0.26-0.95,0.76-1.86,0.34-2.97
		c-0.26-0.69,0.34-1.41,1.01-1.56c0.93-0.21,1.35-0.88,1.91-1.47c0.52-0.55,1.09-1.06,1.65-1.56c0.57-0.51,1.18-0.86,1.27-1.84
		c0.11-1.15,1.52-1.68,2.54-1.03c0.69,0.44,0.91,0.14,1.15-0.38c0.71-1.5,1.39-1.65,2.78-0.88c0.79,0.44,1.69,0.2,2.32-0.45
		c1.21-1.24,1.73-1.33,2.93-0.2c0.31,0.3,0.63,0.29,0.98,0.31c4.27,0.17,7.84,1.94,10.89,4.83c0.5,0.48,1.04,0.49,1.61,0.6
		c1.6,0.29,2.15,1.43,1.33,2.82c-0.18,0.3-0.14,0.48-0.01,0.74C39.26,12.5,39.66,13.78,39.96,15.23z"/>
	<path class="st1" d="M39.18,16.8c0.65,0.02,1.06-0.51,1.62-0.7c0.29-0.1,0.52-0.54,0.84-0.32c0.38,0.27,0.21,0.75,0.09,1.11
		c-0.54,1.68-1.36,3.23-2.27,4.74c-1.48,2.43-3.35,4.56-5.22,6.68c-1.59,1.81-3.82,2.36-5.93,3.17c-2.69,1.05-5.39,0.48-8.09,0.13
		c-0.55-0.07-1.1-0.21-1.65-0.24c-2.76-0.15-4.61-1.99-6.63-3.52c-3.43-2.6-5.96-6.1-8.96-9.13c-0.53-0.53-0.31-0.87,0.37-0.92
		c1.09-0.08,2.14,0.11,3.17,0.47c0.52,0.26,1.04-0.25,1.56,0.02c0.89,0.35,1.87,0.41,2.76,0.76c0.48,0.19,0.84,0.01,1.18-0.33
		c0.45-0.45,0.86-0.95,1.4-1.3c0.42-0.14,0.76-0.38,1.01-0.75c1.01-0.78,2.25-1.39,2.26-2.95c0-0.21,0.24-0.42,0.51-0.17
		c0.48,1.09-0.01,2.31,0.47,3.39c0.79,1.24,1.04,2.68,1.56,4.02c0.82,2.66,1.53,5.36,2.45,7.99c0.1,0.3,0.22,0.6,0.4,0.87
		c0.24,0.36,0.56,0.61,1,0.46c0.43-0.15,0.42-0.58,0.36-0.91c-0.56-2.94,0.29-5.87-0.01-8.81c-0.09-0.86-0.26-1.45-1.05-1.8
		c-0.92-0.59-1.98-0.77-3-1.06c-0.57-0.16-1.13-0.36-1.6-0.74c-0.4-0.48-0.34-0.9,0.19-1.24c1.84,0.21,3.58,0.79,5.22,1.59
		c0.89,0.44,1.56,0.53,2.38-0.15c1.17-0.97,2.4-1.86,3.59-2.79c1.1-0.86,1.55-0.87,2.67-0.06c1.39,1.01,2.77,2.04,4.16,3.04
		c0.68,0.49,1.31,0.71,2.1,0.41C38.7,17.74,38.55,16.83,39.18,16.8z"/>
	<path class="st2" d="M22.85,3.63c1.96-0.5,3.86-0.03,5.71,0.53c2.26,0.69,4.27,1.89,6.04,3.47c0.32,0.28,0.7,0.55,0.72,1.05
		c-0.36,0.37-0.83,0.41-1.31,0.41C33.34,8.85,33,8.19,32.4,7.88c-0.23-0.16-0.43-0.35-0.66-0.51c-1.13-0.64-2.29-1.23-3.52-1.69
		c-0.6-0.37-1.3-0.25-1.95-0.41c-1.26-0.28-2.56,0.15-3.81-0.28C22.05,4.39,22.3,3.97,22.85,3.63z"/>
	<path class="st3" d="M8.39,10.89c0.53-0.03,0.69-0.51,0.92-0.84c0.88-1.24,1.99-2.22,3.24-3.07c0.38-0.26,0.68-0.53,0.74-1.01
		c0.71,0.44,0.67,1.13,0.62,1.83c-0.13,0.41-0.48,0.63-0.81,0.84c-1.39,0.9-2.37,2.2-3.42,3.43C8.9,12.06,8.53,11.61,8.39,10.89z"/>
	<path class="st4" d="M39.18,16.8c-0.27,0.47-0.28,1.15-1,1.26c-0.19-0.19-0.29-0.41-0.34-0.67c-0.17-2.41-1.09-4.54-2.39-6.54
		c-0.23-0.35-0.5-0.77,0.01-1.15c0.77-0.21,1.54-0.35,2.25,0.19c-0.24,0.38-0.67,0.15-1.04,0.34C38.09,12.2,38.57,14.53,39.18,16.8z
		"/>
	<path class="st5" d="M8.15,18.51c-0.55-0.04-1.13,0.17-1.63-0.23c0.5-0.06,0.51-0.44,0.47-0.79c-0.2-1.89,0.27-3.66,0.96-5.39
		c0.85,0.01,0.97,0.66,1.12,1.28c-0.72,1.6-0.36,3.36-0.77,5.01C8.26,18.43,8.2,18.47,8.15,18.51z"/>
	<path class="st6" d="M22.85,3.63c-0.15,0.4-0.3,0.8-0.45,1.2c0.17,0.52-0.13,0.96-0.23,1.43c-0.11,0.34-0.24,0.66-0.39,0.98
		c-0.22,0.46-0.41,1.08-1.02,0.96c-0.71-0.15-0.59-0.81-0.53-1.36c0.16-0.59,0.29-1.18,0.44-1.77c0.17-0.52,0.26-1.08,0.79-1.4
		c0.08-0.13,0.16-0.27,0.25-0.39c0.24-0.33,0.38-0.94,0.88-0.79C23.09,2.65,22.74,3.24,22.85,3.63z"/>
	<path class="st7" d="M13.72,7.94c-0.05-0.67-0.16-1.34-0.43-1.96c-0.03-0.43-0.21-0.98,0.38-1.1c0.58-0.11,0.64,0.44,0.76,0.87
		c0.05,0.18,0.17,0.35,0.25,0.53c0.28,0.26,0.33,0.63,0.44,0.97c0.1,0.42,0.22,0.83,0.28,1.26c-0.23,1.33-0.41,1.45-1.36,0.88
		C13.73,8.94,13.63,8.46,13.72,7.94z"/>
	<path class="st8" d="M37.71,9.89C36.9,9.9,36.1,9.92,35.29,9.94c-0.49,0.31-0.96,0.29-1.36-0.12c-0.28-0.28-0.32-0.61,0.01-0.91
		c0.46-0.08,0.92-0.16,1.38-0.24c0.65,0.09,1.31,0.12,1.95,0.27C37.71,9.05,38.25,9.25,37.71,9.89z"/>
	<path class="st2" d="M14.87,7.24c-0.29-0.28-0.16-0.64-0.18-0.97C14.95,5.55,15.49,5.2,16.21,5c0.33-0.09,0.83-0.08,0.86-0.63
		c0.77,0.2,0.75,0.85,0.8,1.45C17.03,6.62,16,7.05,14.87,7.24z"/>
	<path class="st9" d="M17.73,5.8c-0.22-0.48-0.43-0.96-0.65-1.44c-0.06-0.34-0.24-0.79,0.2-0.91c0.68-0.19,0.69,0.58,1.05,0.88
		c0.41,0.29,0.62,0.71,0.76,1.17c0.16,0.48,0.26,0.96,0.06,1.45C19,7.19,18.8,7.33,18.52,7.32C17.91,7,17.54,6.54,17.73,5.8z"/>
	<path class="st10" d="M18.81,5.52c-0.16-0.39-0.33-0.78-0.49-1.18c1.04-0.24,2.02-0.74,3.12-0.67c-0.18,0.47-0.35,0.95-0.53,1.42
		C20.27,5.52,19.63,5.92,18.81,5.52z"/>
	<path class="st11" d="M8.91,13.25c-0.32-0.39-0.64-0.77-0.96-1.16c-0.14-0.34-0.68-0.53-0.4-1.02c0.2-0.36,0.53-0.26,0.84-0.19
		c0.39,0.38,0.78,0.76,1.16,1.14c0.62,0.16,0.73,0.66,0.79,1.19c-0.02,0.27-0.12,0.5-0.38,0.63C9.43,13.99,9.12,13.71,8.91,13.25z"
		/>
	<path class="st12" d="M9.81,13.81c0.13-0.22,0.26-0.44,0.39-0.66c0.1-0.9,0.55-1.56,1.35-1.97c0.71,0.02,1.12,0.53,1.58,0.96
		c0.43,0.4,0.88,0.77,1.65,1.12c-0.59-1.36-1.95-1.68-2.59-2.68c0.37-0.87,0.98-1.41,1.98-1.42c0.2,0.16,0.29,0.6,0.59,0.44
		c0.43-0.23,0.28-0.75,0.39-1.15c0.98-0.78,2.01-1.44,3.35-1.26c0.16-0.07,0.32-0.14,0.49-0.22c0.45-0.46,0.88-1,1.52-0.24
		c-0.01,0.19-0.04,0.39-0.04,0.58c0,0.27-0.05,0.61,0.27,0.7c0.42,0.12,0.48-0.3,0.61-0.56c0.22-0.45,0.4-0.93,0.6-1.39
		c0.74-0.45,1.51-0.65,2.34-0.26c0.2,0.61-0.66,0.64-0.64,1.23c1.07,0.03,1.9-0.82,2.94-0.82c1.23,0.21,2.46,0.45,3.62,0.92
		c0.44,0.18,0.88,0.36,1.02,0.89c0.04,1.49-0.85,2.82-0.68,4.35c0.9-1.09,0.69-2.66,1.6-3.74c1.46,0.45,2.46,1.54,3.34,2.67
		c1.17,1.51,2.16,3.15,2.29,5.15c0.02,0.3,0.03,0.66,0.4,0.81c0.01,0.26,0.01,0.52,0.02,0.78c-1,0.54-1.73,0.09-2.52-0.55
		c-1.4-1.12-2.91-2.09-4.34-3.18c-0.58-0.44-1.03-0.44-1.6,0c-1.48,1.15-3.02,2.21-4.47,3.39c-0.58,0.47-1.13,0.49-1.62,0.17
		c-1.72-1.11-3.74-1.32-5.6-2.03c-0.43-0.46-0.26-1.05-0.31-1.58c-0.04-0.44-0.04-0.92-0.71-0.8c0.04,1.82-1.11,2.74-2.58,3.42
		c-0.64,0.26-1.12-0.22-1.67-0.37c-0.41-0.11-0.79-0.37-1.32-0.27c0.52,0.78,1.6,0.6,2.08,1.33c-2.02,2.25-2.52,2.33-5.36,0.92
		c0,0,0.04,0.01,0.04,0.01c0.26-0.53,0.08-1.09,0.12-1.63C8.42,15.67,8.69,14.53,9.81,13.81z"/>
	<path class="st13" d="M30.28,16.35c0.47,1.37,0.13,2.75,0.04,4.13c-0.17,2.59-0.56,5.15-0.99,7.7c-0.29,1.74-2.29,3-3.95,2.56
		c-0.59-0.16-0.37-0.63-0.39-0.98c-0.13-3.03,0.06-6.06,0.24-9.08c0.75,0.15,0.57,0.78,0.55,1.23c-0.09,1.86,0.29,3.7,0.27,5.68
		c1.44-3.32,2.52-6.6,3.4-9.96C29.58,17.15,29.52,16.47,30.28,16.35z"/>
	<path class="st14" d="M30.28,16.35c-0.82,1.69-1.03,3.56-1.64,5.31c-0.72,2.06-1.46,4.12-2.3,6.13c-0.1,0.24-0.15,0.53-0.58,0.68
		c-0.1-2.24-0.19-4.4-0.29-6.56c-0.02-0.42,0.14-0.89-0.23-1.25c-0.26-1.12,0.2-1.85,1.14-2.46c1.09-0.71,2.1-1.54,3.15-2.3
		C30.08,15.5,30.38,15.6,30.28,16.35z"/>
	<path class="st13" d="M15.39,26.45c0.78,1.13,1.57,2.27,2.35,3.4c-5.21-2.65-9.29-6.61-13.2-11.19c1.77,0.46,3.32,0.87,4.86,1.27
		c0.68,1.06,1.54,1.98,2.42,2.88C13.02,24.03,14.18,25.26,15.39,26.45z"/>
	<path class="st14" d="M18.93,20.95c-0.48-1.3-0.95-2.6-1.43-3.91c-0.02-0.19,0.06-0.27,0.25-0.26c1.47,0.74,3.23,0.73,4.61,1.71
		c0.27,0.33,0.33,0.72,0.32,1.12c-0.08,2.48,0.13,4.93,0.45,7.39c0.09,0.67,0.33,1.77-0.36,1.95c-0.81,0.21-0.87-0.93-1.15-1.53
		C20.64,25.31,19.91,23.08,18.93,20.95z"/>
	<path class="st13" d="M33.16,26.29c-0.74,1.46-1.34,3.04-3.41,3.59c1.6-4.61,1.96-9.2,1.84-13.91c0.84,0.22,1.38,0.88,2.04,1.35
		c0.27,2.43,0.11,4.86,0.09,7.29C33.72,25.2,33.39,25.73,33.16,26.29z"/>
	<path class="st13" d="M18.93,20.95c1.06,1.09,1.32,2.58,1.95,3.89c0.63,1.32,1.15,2.69,1.86,4.01c-0.06-3.46-0.63-6.9-0.38-10.36
		c1.14,0.25,1.35,0.94,1.38,2.09c0.06,2.95-0.31,5.89-0.03,8.84c0.04,0.44,0.44,1.2-0.49,1.32c-0.72,0.09-1.28-0.04-1.58-0.88
		C20.62,26.93,19.76,23.95,18.93,20.95z"/>
	<path class="st13" d="M14.41,18.25c1.7-1.45,1.59-1.42,2.31,0.63c1.18,3.38,2.53,6.71,3.77,10.07c0.18,0.48,0.75,1.2,0.22,1.49
		c-0.71,0.4-1.32-0.2-1.69-0.9c-1.61-3.35-3.03-6.79-4.33-10.27C14.57,18.94,14.4,18.62,14.41,18.25z"/>
	<path class="st15" d="M14.41,18.25c0.86,1.04,1.04,2.38,1.56,3.56c1.04,2.36,2.04,4.74,3.05,7.11c0.09,0.21,0.29,0.41,0,0.61
		c-2.32-2.83-3.88-6.2-6.21-9.02c-0.3-0.37-0.19-0.61,0.12-0.89C13.43,19.18,13.92,18.71,14.41,18.25z"/>
	<path class="st16" d="M33.16,26.29c0.41-2.58,0.17-5.17,0.23-7.76c0.01-0.41-0.2-0.89,0.24-1.22c0.58,0.42,1.13,0.9,1.74,1.26
		c0.97,0.56,1.17,1.24,0.61,2.21C34.94,22.56,34.41,24.6,33.16,26.29z"/>
	<path class="st17" d="M15.39,26.45c-0.32,0.25-0.41-0.1-0.55-0.23c-1.86-1.85-3.77-3.67-5.45-5.69c-0.14-0.17-0.71-0.43,0.02-0.59
		c1.56,0.18,2.63,0.93,3.36,2.39C13.5,23.78,14.5,25.09,15.39,26.45z"/>
	<path class="st18" d="M40.18,17.53c-1.59,2.81-2.96,5.32-5.02,7.38c1.09-1.75,1.96-3.56,2.59-5.53
		C37.98,18.67,39.16,18.28,40.18,17.53z"/>
	<path class="st19" d="M13.51,17.59c-0.98-0.32-1.97-0.62-2.92-1.41c1.58-0.78,2.61,0.49,3.84,0.72
		C14.57,17.73,13.92,17.5,13.51,17.59z"/>
	<path class="st20" d="M17.76,16.79c-0.08,0.09-0.17,0.17-0.25,0.26c-0.65-1.12-0.37-2.37-0.5-3.57c0.12-0.31,0.27-0.61,0.67-0.51
		c0.38,0.1,0.43,0.43,0.43,0.76c-0.01,0.71-0.05,1.42-0.08,2.13C17.81,16.14,17.4,16.35,17.76,16.79z"/>
	<path class="st21" d="M38.16,17.28c-0.37,0.02-0.47-0.25-0.52-0.54c-0.56-3.51-2.67-5.98-5.38-8.05c-0.31-0.42-0.12-0.75,0.18-1.05
		c0.61,0.29,1.09,0.73,1.49,1.27c-0.24,1.25,0.75,0.88,1.35,1.03c0.51,0.89,1.01,1.79,1.54,2.68
		C37.69,14.06,37.91,15.67,38.16,17.28z"/>
	<path class="st22" d="M32.45,7.64C32.39,8,32.33,8.35,32.26,8.7c-0.65,1.51-0.78,3.23-1.98,4.8c-0.39-2.04,0.37-3.66,0.78-5.34
		c0.03-0.51,0.03-1.04,0.75-1.06C32.1,7.2,32.31,7.38,32.45,7.64z"/>
	<path class="st23" d="M26.43,6.47c-0.69,0.28-1.38,0.55-2.08,0.83c-0.43,0.17-0.95,0.52-1.23-0.07c-0.29-0.61,0.33-0.76,0.73-0.98
		c0.14-0.08,0.27-0.16,0.41-0.24c0.54-0.79,1.38-0.88,2.23-0.93c0.63,0.13,1.42-0.41,1.88,0.45C28.07,6.54,27.11,6.23,26.43,6.47z"
		/>
	<path class="st24" d="M26.43,6.47c0.64-0.33,1.38-0.44,1.93-0.95c1.29,0.23,2.31,1.04,3.46,1.58c-0.53,0.16-0.58,0.66-0.75,1.06
		c-0.15-0.43-0.54-0.54-0.91-0.68C28.95,7,27.7,6.72,26.43,6.47z"/>
	<path class="st25" d="M26.49,5.07C25.74,5.38,25,5.69,24.26,6.01c-0.78-0.29-1.54,0.15-2.31,0.07c0.15-0.42,0.3-0.83,0.45-1.25
		C23.76,4.97,25.15,4.51,26.49,5.07z"/>
	<path class="st26" d="M11.59,11.27c-0.56,0.55-0.98,1.22-1.38,1.89c-0.22-0.38-0.43-0.75-0.65-1.13c1.02-1.74,2.44-3.07,4.17-4.09
		c0.15,0.41,0.3,0.82,0.45,1.23c-0.73,0.34-1.33,0.85-1.9,1.41C12.1,10.86,11.85,11.07,11.59,11.27z"/>
	<path class="st27" d="M9.81,13.81c-1.07,1.39-1.34,3.05-1.62,4.71c-0.09-1.8-0.2-3.6,0.72-5.27C9.22,13.42,9.42,13.77,9.81,13.81z"
		/>
	<path class="st28" d="M20.52,6.74c-0.58-0.37-1.02,0.15-1.52,0.24c0.05-0.5-0.01-0.99-0.18-1.46c0.7-0.14,1.4-0.29,2.1-0.43
		C20.78,5.64,20.65,6.19,20.52,6.74z"/>
	<path class="st29" d="M18.51,7.19c-1.12,0.42-2.23,0.84-3.35,1.26c-0.1-0.4-0.19-0.81-0.29-1.22c0.85-0.68,1.93-0.91,2.86-1.44
		C17.9,6.32,18.15,6.79,18.51,7.19z"/>
	<path class="st30" d="M27.48,13.51c-0.06,0.4-0.34,0.46-0.62,0.37c-0.45-0.14-0.93-0.28-1.31-0.56c-1.06-0.77-2.08-1.6-3.1-2.43
		c-0.22-0.18-0.41-0.41-0.22-0.72c0.2-0.32,0.54-0.43,0.82-0.22c1.44,1.06,2.85,2.16,4.27,3.25C27.4,13.28,27.43,13.42,27.48,13.51z
		"/>
	<path class="st31" d="M17.92,8.17c0.44,0,0.63,0.28,0.8,0.54c0.77,1.21,1.39,2.5,1.79,3.89c0.11,0.38,0.17,0.74-0.24,0.92
		c-0.43,0.19-0.54-0.26-0.67-0.5c-0.71-1.29-1.39-2.59-2.06-3.9C17.26,8.62,17.43,8.3,17.92,8.17z"/>
	<path class="st32" d="M36.23,15.3c0.01,0.48,0.05,0.88-0.31,0.98c-0.31,0.09-0.47-0.26-0.57-0.51c-0.53-1.25-0.8-2.59-1.46-3.79
		c-0.12-0.22-0.11-0.49,0.18-0.6c0.4-0.15,0.72,0.03,0.92,0.36C35.69,12.87,36.01,14.15,36.23,15.3z"/>
	<path class="st33" d="M11.59,11.27c-0.1-0.56,0.2-0.71,0.69-0.69c0.97,0.49,1.74,1.25,2.56,1.93c0.32,0.26,0.45,0.66,0.27,0.95
		c-0.29,0.45-0.67,0.05-0.9-0.13C13.31,12.68,12.46,11.96,11.59,11.27z"/>
	<path class="st34" d="M23.48,15.14c0.44,0,0.88-0.02,1.32,0.01c0.24,0.01,0.64-0.13,0.64,0.3c0,0.26-0.27,0.37-0.52,0.4
		c-1.23,0.14-2.45,0.3-3.68,0.41c-0.3,0.03-0.74,0-0.79-0.36c-0.06-0.41,0.38-0.43,0.67-0.51C21.88,15.15,22.69,15.2,23.48,15.14z"
		/>
	<path class="st35" d="M26.21,9.37c-0.11-0.05-0.3-0.08-0.37-0.18c-0.14-0.2,0.02-0.39,0.17-0.51c0.86-0.7,1.89-0.98,2.95-1.2
		c0.2-0.04,0.39,0.07,0.49,0.27c0.11,0.22,0,0.41-0.18,0.5C28.32,8.73,27.31,9.11,26.21,9.37z"/>
	<path class="st36" d="M32.87,9.95c0.26,0.02,0.44,0.14,0.44,0.42c0,0.22-0.17,0.36-0.37,0.37c-0.26,0.01-0.46-0.13-0.45-0.41
		C32.48,10.12,32.66,10.01,32.87,9.95z"/>
	<path class="st37" d="M29.74,9.92c0.03,0.28-0.12,0.39-0.33,0.42c-0.19,0.03-0.41,0.03-0.47-0.21c-0.07-0.29,0.14-0.41,0.38-0.45
		C29.54,9.65,29.69,9.74,29.74,9.92z"/>
</g>
</svg>
