<?xml version="1.0" encoding="utf-8"?>
<!-- Generator: Adobe Illustrator 23.0.2, SVG Export Plug-In . SVG Version: 6.00 Build 0)  -->
<svg version="1.1" id="Camada_1" xmlns="http://www.w3.org/2000/svg" xmlns:xlink="http://www.w3.org/1999/xlink" x="0px" y="0px"
	 viewBox="0 0 34.12 25.72" style="enable-background:new 0 0 34.12 25.72;" xml:space="preserve">
<style type="text/css">
	.st0{fill:#0D0B0F;}
	.st1{fill:#68301F;}
	.st2{fill:#A83460;}
	.st3{fill:#AC3864;}
	.st4{fill:#BE3D6F;}
	.st5{fill:#C53C70;}
	.st6{fill:#86683D;}
	.st7{fill:#C49752;}
	.st8{fill:#BE9250;}
	.st9{fill:#D46992;}
	.st10{fill:#A22B57;}
	.st11{fill:#7FC7E0;}
	.st12{fill:#FCC9F3;}
	.st13{fill:#A32F5A;}
	.st14{fill:#9F2351;}
	.st15{fill:#B97887;}
	.st16{fill:#E591B2;}
	.st17{fill:#69DBF0;}
	.st18{fill:#9F4BEF;}
	.st19{fill:#9DD950;}
	.st20{fill:#DFBE2B;}
	.st21{fill:#DCB339;}
	.st22{fill:#A24CE8;}
	.st23{fill:#0F0C0F;}
	.st24{fill:#D36891;}
	.st25{fill:#A6315E;}
	.st26{fill:#A7315E;}
	.st27{fill:#6CD9EF;}
	.st28{fill:#FCF641;}
	.st29{fill:#97DD49;}
	.st30{fill:#75D5ED;}
	.st31{fill:#9ED751;}
	.st32{fill:#9CD94F;}
	.st33{fill:#8FE53D;}
	.st34{fill:#94E045;}
	.st35{fill:#ADC866;}
	.st36{fill:#FCFCFC;}
	.st37{fill:#E6739F;}
</style>
<g>
	<path class="st0" d="M18,23.24c-2.73-0.02-5.42-0.3-8.04-1.12c-4.45-1.39-7.43-4.81-7.5-8.63C2.38,9.13,4.99,5.57,9.4,3.85
		c3.67-1.43,7.49-1.44,11.33-1.5c3.31-0.05,6.07,1.22,8.36,3.54c3.1,3.15,3.51,6.94,1.21,10.71C27.53,21.15,23.58,23.28,18,23.24z"
		/>
	<path class="st1" d="M29.09,8.17c1.8,2.27,1.61,4.75,0.34,7.07c-3.13,5.74-7.86,7.14-13.69,6.49c-2.71-0.3-5.41-0.57-7.79-2.03
		c-3.49-2.14-4.93-5.21-3.64-9.12c0.5,0.47,0.63,1.13,0.92,1.71c0.09,0.29,0.12,0.59,0.12,0.89c-0.03,2.23,1.27,3.69,2.88,4.97
		c1.97,1.36,4.24,1.87,6.55,2.05c2.61,0.19,5.26,0.48,7.82-0.43c2.55-1.12,4.4-2.99,5.65-5.44c0.81-1.58,0.59-3.25,0.14-4.9
		C28.46,8.92,28.62,8.46,29.09,8.17z"/>
	<path class="st2" d="M5.01,12.3c-0.32-0.54-0.69-1.06-0.7-1.72c0.33-0.9,0.74-1.76,1.43-2.45c0.67-0.28,1.06-0.85,1.48-1.39
		c2.76-2.13,6-2.74,9.37-2.9c0.47-0.02,0.95,0.01,1.43,0.01c0.38,0.28,0.85,0.01,1.24,0.19c0.22,0.19,0.33,0.4,0.07,0.64
		c-0.35,0.22-0.76,0.23-1.15,0.21c-2.05-0.11-3.99,0.37-5.91,1.01C12.17,5.97,12.05,6,11.94,6.04C8.67,6.9,6.24,8.69,5.29,12.1
		C5.21,12.19,5.12,12.26,5.01,12.3z"/>
	<path class="st3" d="M29.09,8.17c-0.18,0.41-0.36,0.82-0.54,1.23c-0.06,0.21-0.21,0.34-0.39,0.44c-0.18,0.1-0.37,0.17-0.59,0.15
		c-0.1-0.03-0.19-0.08-0.25-0.17c-0.28-0.24,0.68-0.46,0.01-0.7C27.3,8.77,27.7,8.71,27.8,8.44c-0.41-0.86-0.99-1.51-1.92-1.8
		c-0.59-0.14-1.1-0.42-1.44-0.93c-0.16-0.59-1.28-0.32-1.1-1.22c0.5-0.41,0.9,0.44,1.4,0.11C26.52,5.39,28.03,6.5,29.09,8.17z"/>
	<path class="st4" d="M24.73,4.61c-0.49,0.5-0.95-0.2-1.43-0.02c-1.4,0.2-2.74-0.09-4.07-0.47c-0.4-0.07-0.87,0.16-1.21-0.25
		C20.29,3.78,22.59,3.48,24.73,4.61z"/>
	<path class="st5" d="M7.23,6.75C6.9,7.6,6.49,7.99,5.75,8.13C6.14,7.57,6.61,7.07,7.23,6.75z"/>
	<path class="st6" d="M27.65,9.85c0.15-0.08,0.3-0.15,0.45-0.23c1.6,3.83-0.73,6.95-3.12,8.87c-0.68,0.54-1.5,0.89-2.15,1.48
		c-0.64,0.45-1.42,0.62-2.14,0.64c-3.54,0.13-7.09,0.22-10.49-1.08c-0.83-0.32-1.61-0.66-2.27-1.27c-0.76-0.95-1.65-1.83-2.05-3.02
		c-0.13-0.37-0.52-0.77,0.02-1.14c0.86,0.33,1.73,0.54,2.67,0.5c0.96-0.05,1.59,0.56,1.98,1.32c1.13,2.19,3.14,2.53,5.15,1.47
		c0.94-0.5,1.89-0.5,2.89-0.16c1.71,0.58,2.9,0.14,3.88-1.38c0.28-0.44,0.58-0.86,1.04-1.13c0.55-0.27,1.13-0.35,1.73-0.39
		c1.33-0.09,1.51-0.28,1.56-1.57c0.01-0.4-0.01-0.8,0.03-1.19C26.96,10.93,27.08,10.28,27.65,9.85z"/>
	<path class="st2" d="M23.56,14.91c-0.18,0.21-0.42,0.39-0.53,0.64c-1.1,2.24-2.76,2.73-5.03,1.81c-0.68-0.28-1.48-0.1-2.18,0.31
		c-2.1,1.25-4.47,0.71-5.5-1.57c-0.38-0.85-1.1-1.33-2.12-1.2c-0.91,0.12-1.74-0.11-2.42-0.75c-0.47-0.11-0.47-0.55-0.63-0.89
		c-0.04-0.32-0.09-0.65-0.13-0.97c0,0,0.09-0.07,0.09-0.07c0.28-0.01,0.44,0.17,0.57,0.37c0.71,1.12,1.71,1.63,3.03,1.51
		c0.98-0.09,1.77,0.32,2.2,1.16c0.91,1.8,2.35,2.25,4.19,1.84c1.47-0.36,2.89-0.48,4.41,0.03c1.09,0.37,2.02-0.36,2.65-1.35
		C22.47,15.29,22.69,14.55,23.56,14.91z"/>
	<path class="st7" d="M22.83,19.97c0.03-0.57,0.55-0.65,0.91-0.86c1.92-1.13,3.31-2.7,4.16-4.77c0.48-1.18,0.7-2.38,0.15-3.57
		c-0.2-0.44,0.05-0.77,0.05-1.15c0.15-0.07,0.29-0.15,0.44-0.22c0.93,1.63,0.78,3.32,0.04,4.93C27.39,16.92,25.46,18.82,22.83,19.97
		z"/>
	<path class="st8" d="M5.15,13.27c0.21,0.3,0.42,0.59,0.63,0.89c0.47,1.33,0.99,2.64,2.05,3.64c0.12,0.12,0.35,0.25,0.11,0.47
		C6.26,17.02,5,15.53,5.15,13.27z"/>
	<path class="st9" d="M15.14,17.31c-2.11,0.69-3.12,0.31-4.28-1.6c-0.47-0.77-1.03-1.44-2.08-1.29c-1.81,0.25-2.94-0.64-3.69-2.18
		c0.67-3.79,3.3-5.52,6.73-6.42c0.03,0.07,0.06,0.21,0.08,0.2c0.2-0.01,0.05-0.16,0.08-0.25c1.87-0.88,3.84-1.24,5.9-1.2
		c0.52,0.01,1.04-0.04,1.55-0.07c0.06,0.02,0.11,0.04,0.17,0.06c0.2,0.13,0.35,0.31,0.39,0.56c-0.08,0.35-0.39,0.4-0.66,0.49
		c-0.22,0.07-0.45,0.13-0.67,0.17c-0.92-0.04-1.78,0.37-2.7,0.3c-0.4-0.18-0.78-0.11-1.13,0.15c-0.42,0.03-0.77-0.04-1.17,0.42
		c-0.43,0.49-1.27,0.55-1.97,0.66c-0.47-0.09-0.74,0.27-1.09,0.46c-0.1,0.03-0.21,0.03-0.31,0.01C9.84,7.64,9.8,7.95,9.75,8.26
		C9.54,8.72,9.11,8.96,8.74,9.25C8.4,9.4,8.18,9.66,8.06,10.01c-0.83,1.61-0.81,1.65,0.86,2.41c0.64,0.29,1.25,0.66,1.93,0.89
		c0.63,0.22,0.82,0.81,0.94,1.41c0,0.47,0.25,0.72,0.69,0.82c0.48,0.42,1,0.75,1.68,0.76c0.54,0.01,0.99,0.23,1.27,0.73
		C15.45,17.23,15.4,17.38,15.14,17.31z"/>
	<path class="st10" d="M19.22,4.11c1.39-0.1,2.74,0.1,4.07,0.47c0.23,0.48,1.11,0.27,1.1,1.02c-1.7-0.05-3.31-0.54-4.93-1
		c0,0-0.01-0.1-0.01-0.1C19.38,4.38,19.3,4.24,19.22,4.11z"/>
	<path class="st11" d="M12,5.77c0.29,0.14,0.58,0.3,0.34,0.68c-0.1,0.17-0.3,0.24-0.5,0.12c-0.41-0.25-0.17-0.51-0.01-0.76
		C11.89,5.81,11.94,5.79,12,5.77z"/>
	<path class="st12" d="M19.47,4.61c1.72-0.02,3.35,0.36,4.93,1c0.52,0.29,1.03,0.59,1.55,0.88C26.88,7,27.72,7.6,28.08,8.67
		c-0.23,0.16-0.46,0.32-0.69,0.48c-0.58,1.09-0.69,2.25-0.67,3.47c0.02,1.26-0.28,1.52-1.53,1.65c-1.29,0.14-2.47,0.37-3.14,1.76
		c-0.4,0.83-1.24,1.34-2.29,1.15c-0.23-0.19-0.25-0.46-0.06-0.63c1.34-1.23,2.21-3.09,4.41-3.15c0.97-0.03,1.36-0.69,1.28-1.65
		c-0.08-1.03,0.1-1.98,0.85-2.77c0.53-0.55,0.15-0.92-0.34-1.24c-1.45-0.95-3.06-1.53-4.68-2.09c-0.45-0.16-0.95-0.19-1.28-0.59
		C19.72,4.97,19.54,4.85,19.47,4.61z"/>
	<path class="st13" d="M19.73,17.01c1.06,0.05,1.88-0.38,2.32-1.34c0.55-1.18,1.57-1.54,2.72-1.65c1.66-0.15,1.81-0.29,1.64-1.98
		c-0.11-1.13,0-2.15,0.98-2.9c0.72,0.25-0.1,0.48-0.01,0.72c0.12,0.58-0.57,1.04-0.26,1.65c0.01,0.55,0.04,1.11,0.02,1.66
		c-0.03,0.94-0.53,1.5-1.48,1.48c-0.72-0.02-1.41,0.18-2.11,0.26c-0.63,0.01-0.84,0.5-1.1,0.95c-0.9,1.58-2.07,1.94-3.79,1.34
		c-0.86-0.3-1.79-0.26-2.69,0.04c-0.27,0.09-0.53,0.45-0.84,0.07c0.08-0.08,0.17-0.15,0.25-0.23c0.66-1.14,1.75-0.82,2.73-0.76
		C18.72,16.36,19.26,16.63,19.73,17.01z"/>
	<path class="st14" d="M28.08,8.67c-0.56-0.88-1.37-1.51-2.13-2.19C26.85,6.51,28.15,7.84,28.08,8.67z"/>
	<path class="st15" d="M27.12,11.51c-0.52-0.64,0.09-1.11,0.26-1.65c0.09,0,0.18-0.01,0.27-0.01C27.48,10.41,27.3,10.96,27.12,11.51
		z"/>
	<path class="st16" d="M19.73,17.01c-0.48,0.14-0.83-0.18-1.24-0.31c-1.08-0.34-2.12-0.24-3.09,0.38c-0.55-0.26-1.05-0.58-1.73-0.52
		c-0.64,0.05-1.02-0.47-1.39-0.93c-0.28-0.2-0.48-0.49-0.72-0.74c-0.17-0.89-0.59-1.33-1.59-1.58c-0.84-0.21-1.83-0.61-2.47-1.18
		c-0.76-0.67-0.19-1.59,0.42-2.27c0.3-0.15,0.5-0.42,0.71-0.67C8.81,8.7,9.31,8.53,9.63,8.18c0.22-0.25,0.45-0.47,0.82-0.48
		c0.07-0.02,0.14-0.03,0.21-0.05c0.33-0.04,0.59-0.23,0.85-0.41c1.12-0.36,2.14-1.01,3.32-1.22c0.38,0.03,0.76,0.04,1.07-0.24
		c0.96,0.16,1.84-0.47,2.8-0.26c0.41,0.51,0.43,0.07,0.51-0.21c0.26-0.03,0.56,0.05,0.72-0.25c2.38,0.44,4.56,1.36,6.57,2.69
		c0.42,0.28,0.88,0.65,0.27,1.11c-1.12,0.86-1.2,2.02-1.06,3.24c0.11,0.96-0.32,1.45-1.2,1.55c-1.63,0.19-3.01,0.73-3.73,2.35
		C20.59,16.48,19.78,16.35,19.73,17.01z"/>
	<path class="st17" d="M15.9,5.79c0.01,0.29,0.01,0.58-0.33,0.68C15.19,6.58,15,6.32,14.83,6.03C15.09,5.49,15.47,5.5,15.9,5.79z"/>
	<path class="st18" d="M10.45,7.7c-0.14,0.38-0.41,0.54-0.82,0.48C9.47,7.89,9.28,7.59,9.67,7.36C10.06,7.13,10.24,7.46,10.45,7.7z"
		/>
	<path class="st19" d="M19.22,5.31c0.13,0.24,0.56,0.38,0.28,0.76c-0.12,0.16-0.31,0.24-0.51,0.18c-0.4-0.12-0.41-0.4-0.29-0.73
		C18.87,5.46,19.05,5.38,19.22,5.31z"/>
	<path class="st20" d="M11.51,7.25c-0.06,0.61-0.32,0.79-0.86,0.41C10.79,7.19,11.03,6.97,11.51,7.25z"/>
	<path class="st21" d="M8.62,9.19c0,0.48,0.03,0.98-0.71,0.67C7.88,9.36,8.05,9.06,8.62,9.19z"/>
	<path class="st22" d="M11.55,14.89c0.55-0.06,0.76,0.22,0.72,0.74C11.44,15.95,11.54,15.38,11.55,14.89z"/>
	<path class="st23" d="M18.67,13.68c-1.25,0.14-2.5,0.38-3.76,0.03C13,12.83,12.54,12,12.74,9.89c0.44-1.16,1.44-1.61,2.52-1.95
		C16.63,7.6,18,7.37,19.38,7.93c0.4,0.24,0.72,0.57,0.99,0.95C21.48,11.06,20.8,12.96,18.67,13.68z"/>
	<path class="st24" d="M20.12,8.94c-0.25-0.24-0.49-0.47-0.74-0.71C19,7.5,18.3,7.73,17.7,7.71c-0.87-0.03-1.74-0.03-2.5,0.51
		c-0.89,0.35-1.69,0.81-2.22,1.64c-0.48-0.45-0.5-0.52-0.23-1.06c0.24-0.5,0.71-0.83,0.96-1.32c2.15-1,4.35-0.95,6.58-0.31
		c0.38,0.11,0.72,0.34,1.14,0.31c0.18-0.05,0.24,0.02,0.2,0.19c1.58,1.4,1.58,2.12,0,4.11C21.13,10.83,21.26,9.55,20.12,8.94z"/>
	<path class="st25" d="M13.7,7.47c0.45,0.52-0.21,0.62-0.35,0.91c-0.23,0.47-0.95,0.8-0.37,1.47c-0.4,1.81,0.55,2.94,1.93,3.85
		c-1.37-0.28-2.69-0.72-3.11-2.24c-0.45-1.62,0.11-2.95,1.45-3.88C13.37,7.5,13.55,7.51,13.7,7.47z"/>
	<path class="st26" d="M20.12,8.94c1.6,0.37,1.47,1.64,1.49,2.84c-0.65,1.16-1.52,1.96-2.95,1.9C20.48,12.42,21.26,10.58,20.12,8.94
		z"/>
	<path class="st27" d="M10.82,10.99c-0.09,0.28-0.23,0.53-0.57,0.48c-0.25-0.03-0.49-0.21-0.47-0.46c0.02-0.35,0.28-0.58,0.64-0.54
		C10.67,10.5,10.81,10.72,10.82,10.99z"/>
	<path class="st28" d="M24.23,11.98c-0.34-0.06-0.47-0.29-0.45-0.58c0.01-0.3,0.18-0.52,0.49-0.55c0.34-0.03,0.51,0.18,0.5,0.49
		C24.75,11.68,24.57,11.91,24.23,11.98z"/>
	<path class="st29" d="M14.1,15.26c-0.13,0.24-0.26,0.51-0.56,0.55c-0.32,0.04-0.52-0.18-0.54-0.49c-0.02-0.3,0.16-0.55,0.48-0.54
		C13.78,14.78,13.96,15.01,14.1,15.26z"/>
	<path class="st30" d="M21.62,7.66c-0.07-0.06-0.13-0.13-0.2-0.19c-0.01-0.42,0.13-0.72,0.62-0.62c0.21,0.04,0.54,0.11,0.45,0.42
		C22.36,7.69,22,7.76,21.62,7.66z"/>
	<path class="st31" d="M24.96,8.67c0.01,0.23-0.09,0.39-0.31,0.43c-0.27,0.05-0.47-0.11-0.53-0.35c-0.07-0.27,0.11-0.46,0.37-0.49
		C24.76,8.23,24.9,8.43,24.96,8.67z"/>
	<path class="st32" d="M24.01,12.61c-0.01,0.26-0.15,0.46-0.4,0.5c-0.27,0.04-0.44-0.14-0.46-0.41c-0.02-0.22,0.15-0.37,0.34-0.42
		C23.75,12.2,23.93,12.34,24.01,12.61z"/>
	<path class="st33" d="M10,8.81c0.2,0.08,0.35,0.21,0.32,0.44c-0.04,0.28-0.23,0.42-0.51,0.35C9.58,9.55,9.48,9.37,9.55,9.15
		C9.61,8.95,9.78,8.83,10,8.81z"/>
	<path class="st34" d="M18.48,15.71c-0.25,0.02-0.39-0.11-0.44-0.3c-0.07-0.27,0.06-0.45,0.33-0.49c0.21-0.03,0.39,0.09,0.44,0.29
		C18.88,15.46,18.7,15.62,18.48,15.71z"/>
	<path class="st35" d="M9.51,11.66c0.01,0.21-0.07,0.32-0.25,0.35c-0.2,0.03-0.41,0.04-0.49-0.19c-0.09-0.25,0.11-0.37,0.3-0.41
		C9.28,11.36,9.43,11.49,9.51,11.66z"/>
	<path class="st36" d="M16.46,12.34c-0.54,0.03-1.01-0.04-1.44-0.44c-0.94-0.87-0.78-1.73,0.45-2.12c0.64-0.2,1.3-0.35,1.98-0.42
		c0.89-0.09,1.5,0.2,1.77,1.04c0.18,0.56-0.73,1.65-1.45,1.79C17.33,12.28,16.89,12.3,16.46,12.34z"/>
	<path class="st37" d="M15.2,8.21c-0.13-0.05-0.41-0.1-0.3-0.22c0.66-0.66,3.85-0.74,4.55-0.14c0.16,0.13,0.08,0.27-0.07,0.37
		C17.99,7.58,16.59,8.03,15.2,8.21z"/>
</g>
</svg>
