<?xml version="1.0" encoding="utf-8"?>
<!-- Generator: Adobe Illustrator 23.0.2, SVG Export Plug-In . SVG Version: 6.00 Build 0)  -->
<svg version="1.1" id="Camada_1" xmlns="http://www.w3.org/2000/svg" xmlns:xlink="http://www.w3.org/1999/xlink" x="0px" y="0px"
	 viewBox="0 0 96.25 79.67" style="enable-background:new 0 0 96.25 79.67;" xml:space="preserve">
<style type="text/css">
	.st0{fill:#FEFEFE;}
	.st1{fill:#010002;}
	.st2{fill:#364C25;}
	.st3{fill:#4F6F33;}
	.st4{fill:#334924;}
	.st5{fill:#4C6F2F;}
	.st6{fill:#3C5829;}
	.st7{fill:#45612F;}
	.st8{fill:#597D37;}
	.st9{fill:#8BB23C;}
	.st10{fill:#3F5A29;}
	.st11{fill:#425C2C;}
	.st12{fill:#99BA53;}
	.st13{fill:#94B850;}
	.st14{fill:#B0C65E;}
	.st15{fill:#9DBC54;}
	.st16{fill:#6FA83B;}
	.st17{fill:#9EBD53;}
	.st18{fill:#629739;}
	.st19{fill:#659B3A;}
	.st20{fill:#619639;}
	.st21{fill:#5F9239;}
	.st22{fill:#F8FAED;}
	.st23{fill:#E6EDD1;}
	.st24{fill:#83AF38;}
	.st25{fill:#81AE37;}
	.st26{fill:#E6E67E;}
	.st27{fill:#DCE8B2;}
	.st28{fill:#A3C056;}
	.st29{fill:#EFF2E8;}
	.st30{fill:#9CBC57;}
	.st31{fill:#193405;}
	.st32{fill:#3D5B23;}
	.st33{fill:#D1DB74;}
	.st34{fill:#EAE984;}
	.st35{fill:#B0C95E;}
	.st36{fill:#C9D670;}
	.st37{fill:#84AE39;}
	.st38{fill:#74A83A;}
	.st39{fill:#F8F9F0;}
	.st40{fill:#F8F9EF;}
	.st41{fill:#A5C157;}
	.st42{fill:#F7F9E8;}
	.st43{fill:#6CA13A;}
	.st44{fill:#DEE7B1;}
	.st45{fill:#73AA3C;}
	.st46{fill:#FCFBE5;}
</style>
<g>
	<path class="st0" d="M44.97,79.67c-7.44-0.52-14.04-3.32-16.59-10.85c-0.89-2.64-3.42-3.03-5.86-2.45
		c-3.65,0.86-7.24,1.42-10.99,0.41c-5.08-1.37-8.89-4.08-10.5-9.25c-1.91-6.14-1.41-11.84,3.49-16.57c0.77-0.75,1.57-1.48,2.44-2.12
		c1.18-0.87,1.29-1.53-0.08-2.35c-8.67-5.21-7.41-20.09,1.38-26.2c1.54-1.07,2.5-2.28,3.1-4.13c1.48-4.58,6.33-7.3,10.85-5.69
		c5.39,1.92,11.18,0.72,16.49,2.69c1,0.37,2.5,0.24,3.04,0.93c3.58,4.56,9.36,5.69,13.69,9.04c0.28,0.22,0.54,0.69,0.8,0.69
		c5.44-0.1,10.35,2.81,15.55,3.07c4.86,0.24,9.18,1.08,13.23,3.63c0.9,0.57,1.81,1.39,2.79,1.54c5.66,0.82,7.77,4.68,8.39,9.7
		c0.53,4.33-3.08,9.94-7.5,12.17c-5.47,2.77-11.1,5.1-17.22,5.97c-1.72,0.25-2.47,1.01-2.72,2.69c-0.62,4.07-2.53,7.49-5.77,10.03
		c-1.38,1.08-1.08,2.6-1.4,3.92C59.63,74.56,53.21,79.69,44.97,79.67z"/>
	<path class="st1" d="M14.25,34.53c-5.51-1.41-8.07-3.96-8.55-8.6c-0.53-5.12,2.62-11.06,7.24-12.99c1.54-0.64,2.13-1.15,2.27-2.9
		c0.38-4.77,3.93-6.71,8.14-4.35c1.73,0.97,3.23,1.15,5.05,0.92c3.52-0.44,6.89,0.59,10.28,1.27c1.53,0.31,3.01,1.43,3.25,2.59
		c0.79,3.81,3.4,3.9,6.36,3.92c1.48,0.01,2.9,0.71,3.69,1.97c1.56,2.48,3.76,2.88,6.45,2.67c3.15-0.25,6.16,0.07,8.69,2.47
		c1.34,1.27,3.27,0.49,4.83,0.24c3.42-0.56,6.44,0.37,9.29,1.99c2.34,1.33,4.37,2.92,7.26,3.45c3.36,0.62,4.08,6.83,1.25,9.78
		c-3.77,3.93-8.85,5.58-13.85,7.15c-3.07,0.96-6.23,1.8-9.52,1.63c-1.46-0.07-2.01,0.2-1.89,2c0.35,5.11-1.4,9.46-5.93,12.24
		c-1.27,0.78-1.32,1.62-1.31,2.92c0.04,6.31-4.36,11.23-10.3,11.74c-8.35,0.71-13.32-2.61-14.6-9.77c-0.08-0.47-0.01-1.32-0.18-1.36
		c-3.14-0.83-6.49-2.6-9.41-2.07c-4.08,0.74-7.94,1.81-11.91,0.18c-6.32-2.59-8.53-11.78-3.65-16.54
		C10.29,42.07,13.14,39.12,14.25,34.53z"/>
	<path class="st2" d="M49.87,57.15c3.28,4.84,3.56,7.91,1.22,10.48c-2.49,2.74-8.08,3.51-11.25,1.56c-3.41-2.09-4.07-5.27-2.2-11.07
		c-1.8,0.16-3.51,0.45-5.23,0.45c-5.59-0.01-7.63-2.4-7.08-8.17c0.06-0.64,0.72-1.52-0.4-1.7c-1.3-0.21-1.09,0.88-1.17,1.69
		c-0.61,6.03-4.04,8.57-10.07,7.48c-4.11-0.74-5.89-6.25-2.89-9.74c2.58-3.01,5.75-5.17,7.06-9.53c1.2-3.99,5.89-5.28,9.6-4.28
		c3.67,0.98,5.71,4.05,5.74,8.98c0.01,1.45,0.78,1.43,1.78,1.59c6.68,1.01,7.58,2.3,6.44,9.16c-0.1,0.6-0.43,1.26,0.34,1.47
		c0.66,0.17,1.47,0.19,2.09-0.05c0.78-0.31,0.24-0.92,0.05-1.48c-1.7-5.13-0.77-7.5,4-10.36c3.05-1.83,8.53-1.02,10.92,1.79
		c1.67,1.96,1.26,4.42,0.49,6.48c-0.98,2.58-2.71,4.83-5.81,5.25C52.47,57.27,51.39,57.15,49.87,57.15z"/>
	<path class="st3" d="M28.77,29.06c-0.51-0.49-1.13-0.91-1.5-1.49c-0.95-1.49-1.5-2.08-2.98-0.2c-2.24,2.85-8,3.51-11.22,1.88
		c-3.11-1.58-2.76-4.36-2.23-6.89c0.61-2.94,2.25-5.25,5.7-5.59c1.46-0.14,3.12,0.86,4.39-0.63c0.91-0.17,1.58,1,2.56,0.45
		c3.09,2.65,4.06,6.64,6.28,9.85C29.61,27.37,30.39,28.66,28.77,29.06z"/>
	<path class="st4" d="M69.05,26.91c4.7-1.57,8.92-0.88,12.4,2.82c0.76,0.81,1.37,1.56,2.64,1.53c0.98-0.02,2.4-0.57,2.75,0.91
		c0.32,1.37-0.85,2.29-1.83,2.85c-5.64,3.22-11.44,6.05-18.11,6.31c-1.68,0.06-3.36,0.01-5.04,0.01c-0.43-0.51-0.41-1.04-0.11-1.59
		c4.3-1.79,9.04-1.8,13.43-3.28c1.24-0.42,2.48-0.82,3.71-1.25c1.04-0.69,2.49-0.78,3.09-2.08c-0.52-0.72-1.44-0.36-2.04-0.79
		c-0.28-0.17-0.53-0.38-0.76-0.62c-1.15-1.41-2.8-2.06-4.38-2.83C72.93,28.12,70.68,28.43,69.05,26.91z"/>
	<path class="st5" d="M36.58,13.39c1.87,0.4,2.47,1.78,2.36,3.44c-0.16,2.52,0.98,2.55,3.01,2.11c5.2-1.14,7.01-0.41,9,4.36
		c1.18,2.83,2.51,0.24,3.67,0.62c2.17,0.7,4.8-0.99,6.67,1.27c-0.14,0.39-0.39,0.67-0.77,0.85c-1.46,0.58-3,0.35-4.51,0.43
		c-1.62,0.02-2.99,0.72-4.32,1.58c-1.53,0.44-2.78,0.09-3.66-1.3c0.15-1.42,0.72-2.87-0.29-4.2c-0.26-0.35-0.56-0.66-0.93-0.89
		c-0.95-0.49-1.98-0.34-2.98-0.35c-1.61-0.09-2.96,0.47-4.09,1.61c-0.54,0.4-1.13,0.7-1.79,0.86c-2.48,0.15-4.03-1.7-5.95-2.75
		c-1.93-1.66-4.67-2.35-5.89-4.87c-0.06-0.75,0.1-1.39,0.89-1.7c2.35,0.17,3.78,2.17,5.83,2.93c1.12,0.26,2.1,1.82,3.16,1.06
		c1.19-0.85,0.29-2.4,0.21-3.65C36.15,14.27,36.23,13.79,36.58,13.39z"/>
	<path class="st6" d="M61.86,39.82c0,0.5,0.01,1.01,0.01,1.51c-6.04,0.68-11.97-1.19-17.99-0.72c-0.48-0.85-2.28,0.19-2.1-1.15
		c0.18-1.36,1.92-0.99,2.84-1.62c2.47-1.53,2.06-3.31,0.44-5.18c-0.66-0.65-1.43-1.08-2.37-1.19c-1.66-0.28-2.62,0.98-3.8,1.75
		c-1.47,0.69-1.99-0.06-2.15-1.4c0.05-1.47,0.9-2.49,1.95-3.38c1.75-1.21,3.69-1.12,5.66-0.84c1.18,0.27,2.09,0.98,2.94,1.8
		c1.81,1.8,2.69,3.96,2.5,6.53c-0.31,3.99,2.72,1.73,4.26,2.24C56.71,38.39,59.66,37.33,61.86,39.82z"/>
	<path class="st7" d="M45.32,38.57c-0.81,0.95-2.03,0.31-3.02,0.8c0.54,0.43,1.06,0.83,1.58,1.24c-3.42,0.13-6.19-0.62-7.69-4.27
		c-0.81-1.98-3.16-2.77-4.85-4.03c-1.19-0.89-2.13-1.84-2.57-3.25c0.91-0.51-0.58-1.69,0.6-2.12c1.78-0.11,2.8,1.15,3.86,2.24
		c1.18,1.22,2.49,2.19,4.12,2.69c0,1.02,0.39,1.38,1.34,0.79C39.66,36.02,42.32,37.49,45.32,38.57z"/>
	<path class="st8" d="M27.23,14.7c-0.54,0.32-0.63,0.85-0.64,1.41c-0.59,0.33-1.18,0.14-1.56-0.27c-1.88-2.07-1.53,0.33-2.04,0.99
		c-1.03,0.77-1.48-0.18-2.07-0.7c-0.63-0.9-0.98-1.92-0.91-3.01c0.07-1.12-0.7-2.58,0.53-3.26c1.07-0.59,1.93,0.62,2.72,1.24
		c1.2,0.93,2.4,0.72,3.7,0.4c2.07-0.5,4.17-0.87,6.2,0.23C31.58,13.5,28.32,11.92,27.23,14.7z"/>
	<path class="st9" d="M27.23,14.7c-0.32-0.8-2.49-1.84,0.29-2.23c1.88-0.26,3.77-0.49,5.65-0.74c1.14,0.55,2.27,1.1,3.41,1.65
		c0,0.46-0.01,0.92-0.01,1.38c-1.27,1.08-2.41-0.34-3.63-0.27c-1.01,1.15,0.68,2.55-0.42,3.62C30.46,17.42,28.93,15.93,27.23,14.7z"
		/>
	<path class="st10" d="M69.05,26.91c2.26,0.02,4.41,0.54,6.51,1.35c-0.81,1.06-2,0.97-3.14,1.06c-2.23-0.37-3.56,1.17-5.03,2.41
		c-1.62,0.55-3.22,0.73-4.72-0.35c-0.83-1.19,2.14-2.18,0.19-3.44c-0.34-0.57-0.65-1.14-0.36-1.82c2.19-1.28,2.53,2.15,4.39,1.73
		C67.61,27.53,68.33,27.22,69.05,26.91z"/>
	<path class="st11" d="M66.89,27.85c-0.34,1.3-0.87,1.2-1.55,0.23c-0.68-0.97-1.42-1.87-2.75-1.88c-0.81,0.33-1.19-0.1-1.42-0.8
		c-1.91-1.7-4.69,0.48-6.54-1.48C59.69,22.16,63.7,23.71,66.89,27.85z"/>
	<path class="st12" d="M46.77,47.1c2.46-2.75,5.58-2,8.52-1.4c2.14,0.44,1.94,2.34,1.67,4.04c-0.25,1.58-0.97,2.89-2.23,3.9
		c-1.41,0.37-2.82,0.3-4.21-0.04C47.03,52.78,45.88,50.75,46.77,47.1z"/>
	<path class="st13" d="M40.28,60.04c3.42-3.28,7.84-2.75,9.65,1.43c1.26,2.91-0.7,4.61-3.18,5.76
		C41.05,65.76,40.14,64.74,40.28,60.04z"/>
	<path class="st14" d="M21.48,37.64c2.38-2.47,4.89-1.79,7.33-0.19c2.16,1.42,3.4,3.29,2.07,5.98c-1.45,0.54-2.92,0.99-4.5,1.04
		C21.22,44.66,19.71,42.58,21.48,37.64z"/>
	<path class="st15" d="M35.89,47.22c4.42,1.03,4.9,2.52,2.29,7.16c-2.2,0.65-4.37,1.12-6.56-0.1c-2.39-1.33-3.76-2.96-2.12-5.74
		c1.59-1.92,3.67-1.7,5.79-1.34c0.18,0.18-0.05,0.68,0.44,0.57C35.79,47.76,35.81,47.41,35.89,47.22z"/>
	<path class="st16" d="M21.48,37.64c0.2,6.26,0.72,6.7,7.08,5.47c0.91-0.18,1.58-0.01,2.32,0.33c-2.37,3.01-6.5,4.02-9.72,2.38
		C17.64,44.02,17.75,41.09,21.48,37.64z"/>
	<path class="st17" d="M12.78,49.14c1.56-1.93,3.15-3.74,5.93-1.98c-0.41,0.66-1.41,0.76-1.6,1.77c1,0.81,1.83-0.18,2.72-0.31
		c2.66,1.77,1.45,3.72,0.26,5.67c-2.07,0.27-3.86-0.7-5.65-1.45C12.86,52.19,12.22,50.88,12.78,49.14z"/>
	<path class="st18" d="M29.49,48.54c0.03,3.71,1.39,5.25,5.14,5.68c1.17,0.14,2.37,0.11,3.55,0.15c-1.71,1.44-3.64,2.14-5.9,2.04
		c-2.05-0.09-3.95-0.71-4.68-2.66C26.83,51.71,27.45,49.77,29.49,48.54z"/>
	<path class="st19" d="M12.78,49.14c0.26,2.28,1.77,3.35,3.84,3.53c1.44,0.12,2.39,0.94,3.49,1.62c-2.22,2.43-5.04,2.09-7.29,0.68
		C10.42,53.48,11.32,51.12,12.78,49.14z"/>
	<path class="st20" d="M46.77,47.1c0.18,4.21,1.17,5.31,5.34,5.68c0.98,0.09,1.8,0.39,2.62,0.86c-2.45,1.83-6.43,1.83-8.32-0.25
		C44.51,51.3,44.91,49.1,46.77,47.1z"/>
	<path class="st21" d="M40.28,60.04c0.77,3.13,1.79,6,5.81,6.05c0.23,0,0.44,0.75,0.67,1.14c-2.73,1.48-5.06,0.63-6.9-1.51
		C38.23,63.83,38.51,61.82,40.28,60.04z"/>
	<path class="st22" d="M19.84,48.63c-0.08,0.22-0.13,0.46-0.24,0.66c-0.68,1.15-1.6,1.78-2.94,1.1c-0.64-0.33-1.32-0.85-1.12-1.63
		c0.42-1.66,1.87-1.54,3.18-1.59C19.09,47.65,19.47,48.14,19.84,48.63z"/>
	<path class="st23" d="M35.89,47.22c0.64,0.68,1.4,1.37,0.45,2.33c-0.47,0.47-1.08,0.46-1.54-0.02c-0.91-0.96-0.2-1.66,0.48-2.33
		C35.48,47.17,35.69,47.17,35.89,47.22z"/>
	<path class="st24" d="M22.99,16.83c0.19-1.32-1.38-2.24-0.78-3.92c1.99,0.41,2.7,2.53,4.38,3.2c1.93,1.46,3.86,2.92,5.79,4.38
		c2.09,2.89,5.54,4.75,6.47,8.51c-0.5,0.96-1,1.91-1.51,2.87c-1.17,1.12-2.06,0.53-3.02-0.39c-1.61-1.56-3.3-3.04-4.96-4.55
		C26.76,23.88,25.71,19.83,22.99,16.83z"/>
	<path class="st25" d="M22.94,26.24c-2.27,2.86-5.28,2.58-8.14,1.52c-3.7-1.37-3.55-4.78,0.18-8.11c1.14,3.56,4.27,4.63,7.31,5.8
		C22.52,25.71,22.74,25.97,22.94,26.24z"/>
	<path class="st26" d="M22.24,26.18c-0.89-0.33-1.75-0.87-2.66-0.96c-3.46-0.33-4.7-2.36-4.6-5.57c1.96-1.33,3.94-0.85,5.93-0.09
		c-0.19,0.55-0.76,0.48-1.13,0.71c-0.17,0.11-0.52,0.2-0.54,0.33c-0.03,0.23,0.16,0.19,0.41-0.03c0.35-0.32,0.79-0.38,1.26-0.23
		C23.56,21.79,23.38,23.88,22.24,26.18z"/>
	<path class="st27" d="M22.24,26.18c0.02-2.21,0.54-4.62-2.21-5.77c-0.57,0.2-0.73-0.07-0.7-0.59c0.52-0.09,1.05-0.17,1.57-0.26
		c3.51,1.36,3.45,3.81,2.03,6.68c0,0-0.35,0.01-0.35,0.01L22.24,26.18z"/>
	<path class="st28" d="M61.86,39.82c-2.81-0.83-5.75-0.29-8.6-0.74c-1.64-0.61-3.66-0.66-4.25-2.85c0.14-2.47-0.77-4.54-2.42-6.32
		c0.39-0.58,0.98-0.78,1.64-0.85c6.15,1.71,12.18,3.88,18.63,4.44c2.5,0.22,4.98,0.16,7.46,0.31c2.01,0.12,4.08,0.03,5.63,1.69
		C74.29,38.51,68.08,39.19,61.86,39.82z"/>
	<path class="st29" d="M79.95,35.51c-5.2-0.45-10.41-0.85-15.61-1.38c-5.6-0.58-10.9-2.33-16.12-4.34c-0.11-1.19,0.77-1.26,1.58-1.4
		c4.06,0.26,7.83,1.85,11.73,2.79c2.24,0.54,4.38,0.9,6.65,0.65c4.85-0.23,9.71-0.55,14.45,0.93
		C84.07,35.95,80.37,34.13,79.95,35.51z"/>
	<path class="st30" d="M71.96,28.37c1.2-0.04,2.4-0.08,3.6-0.12c1.45,0.85,3.21,1.24,4.2,2.79c-2.61,1.75-5.44,0.74-8.2,0.63
		C70.06,30.38,71.06,29.38,71.96,28.37z"/>
	<path class="st31" d="M82.63,32.76c-5,0.15-10,0.46-14.99-0.09c0.16-1.58,1.38-1.43,2.46-1.5c3.19,1.1,6.57-0.18,9.78,0.78
		C80.72,32.45,82.17,30.91,82.63,32.76z"/>
	<path class="st10" d="M79.87,31.95c-3.36-0.02-6.72-0.03-10.08-0.05c-0.21-0.31-0.19-0.6,0.07-0.88c0.5-0.25,0.97-0.21,1.43,0.1
		c2.83-0.03,5.66-0.05,8.49-0.08C79.8,31.34,79.83,31.64,79.87,31.95z"/>
	<path class="st32" d="M69.78,31.29c0,0.2,0,0.4,0.01,0.6c-0.77,0.11-1.66-0.11-2.16,0.77c-6.23,0.15-11.95-2.22-17.85-3.68
		c-1.27-0.51-2.79,0.12-3.96-0.85c-2.66-1.45-6.17-1.47-7.79-4.65c0.28-0.66,0.84-0.83,1.48-0.87c1.31-0.65,2.28,0.34,3.39,0.7
		c1.68,1.13,4.01,1.1,5.28,2.96c0.96,1.04,2.19,1.37,3.55,1.39c1.28-0.31,2.54-0.2,3.81,0.11c2.35,0.93,5.23,0.54,7.06,2.79
		c1.59,1.3,3.43,0.44,5.15,0.63C68.45,30.65,69.14,30.63,69.78,31.29z"/>
	<path class="st33" d="M38.03,23.48c2.46,1.77,5.3,2.78,8,4.07c-0.23,0.67-1.07,0.36-1.39,0.88c-1.96-0.03-3.96-0.58-5.8,0.58
		c-2.18-2.82-5.2-5.01-6.47-8.51C34.26,21.49,36.15,22.48,38.03,23.48z"/>
	<path class="st34" d="M32.51,18.11c0.09-1.69-2.46-3.16-1.25-4.48c1.87-2.05,3.38,1.26,5.3,1.13c1.46,1.34,0.52,3.06,0.68,4.6
		c0.11,1.08-0.68,1-1.39,0.62C34.73,19.37,33.63,18.73,32.51,18.11z"/>
	<path class="st35" d="M62.59,30.56c-2.43-0.71-4.86-1.41-7.29-2.12c-0.42-1-0.42-1.98,0.12-2.95c1.7,0.01,3.39,0.01,5.09,0.02
		c0.34,1.48,1.45,1.89,2.77,2.01c0.9,0.72,1.97,1.58,1.55,2.77C64.55,31.08,63.36,30.45,62.59,30.56z"/>
	<path class="st36" d="M48.17,26.27c-1.88-0.81-4.01-0.98-5.67-2.32c-1.1-1.81,0.44-2.5,1.45-3.42c1.15,0.11,2.42-0.53,3.4,0.56
		c-0.4,0.98,0.07,1.1,0.88,0.89C48.61,23.41,51.06,24.88,48.17,26.27z"/>
	<path class="st37" d="M43.95,20.53c-0.06,1.32-1.63,2-1.45,3.42c-1-0.45-1.99-0.89-2.99-1.34C40.13,20.08,42.15,20.54,43.95,20.53z
		"/>
	<path class="st38" d="M55.42,25.49c0.69,1.01,0.63,1.99-0.12,2.94c-1.19-0.27-2.55,0.26-3.58-0.77C52.18,25.62,54,25.9,55.42,25.49
		z"/>
	<path class="st39" d="M63.28,27.52c-0.93,0.65-1.83,1.52-2.98,0.4c-0.88-0.87-0.32-1.65,0.21-2.41c0.22-0.01,0.44-0.05,0.66-0.12
		c0.47,0.27,0.95,0.54,1.42,0.8C62.82,26.64,63.05,27.08,63.28,27.52z"/>
	<path class="st40" d="M48.23,21.98c-0.05,0.99-0.48,1.59-1.55,1.32c-0.73-0.19-1.35-0.69-1.12-1.5c0.24-0.84,1.13-0.63,1.8-0.71
		C47.65,21.38,47.94,21.68,48.23,21.98z"/>
	<path class="st41" d="M45.32,38.57c-0.35-0.06-0.71-0.14-1.06-0.18c-5.18-0.46-5.23-0.5-5.57-5.74c1.03-1.85,2.42-2.88,4.64-2.08
		c0.22,0.65-0.58,1.53,0.19,1.94c0.68,0.37,1.22-0.53,1.87-0.74C47.76,34.07,48.45,36.34,45.32,38.57z"/>
	<path class="st42" d="M45.38,31.79c-0.05,1.41-0.74,2.27-2.18,2.18c-0.48-0.03-1.14-0.52-1.34-0.96c-0.63-1.39,0.7-1.76,1.47-2.42
		C44.01,30.98,44.69,31.39,45.38,31.79z"/>
	<path class="st43" d="M49.01,36.23c1.42,0.95,2.83,1.9,4.25,2.85C51.63,38.45,47.87,40.99,49.01,36.23z"/>
	<path class="st44" d="M44.65,28.43c0.22-0.67,0.81-0.77,1.39-0.88c1.25,0.48,2.5,0.95,3.75,1.43c-0.58,0.15-1.27,0.09-1.57,0.8
		c-0.54,0.04-1.08,0.09-1.63,0.13C45.94,29.42,45.29,28.92,44.65,28.43z"/>
	<path class="st45" d="M69.78,31.29c-0.68-0.04-1.36-0.07-2.04-0.11c0.2-2.74,2.13-2.9,4.22-2.81c-0.23,0.92-0.45,1.84-0.68,2.75
		C70.78,31.18,70.28,31.24,69.78,31.29z"/>
	<path class="st46" d="M19.33,19.82c0.23,0.2,0.47,0.39,0.7,0.59c-0.02,1-0.2,1.92-1.44,1.96c-0.64,0.02-1.13-0.48-1.14-1.08
		C17.42,20.05,18.3,19.79,19.33,19.82z"/>
</g>
</svg>
