<?xml version="1.0" encoding="utf-8"?>
<!-- Generator: Adobe Illustrator 23.0.2, SVG Export Plug-In . SVG Version: 6.00 Build 0)  -->
<svg version="1.1" id="Camada_1" xmlns="http://www.w3.org/2000/svg" xmlns:xlink="http://www.w3.org/1999/xlink" x="0px" y="0px"
	 viewBox="0 0 213.21 91.02" style="enable-background:new 0 0 213.21 91.02;" xml:space="preserve">
<style type="text/css">
	.st0{fill:#FEFEFE;}
	.st1{fill:#585858;}
	.st2{fill:#010002;}
	.st3{fill:#3F6C80;}
	.st4{fill:#437185;}
	.st5{fill:#E1B670;}
	.st6{fill:#F6F5BD;}
	.st7{fill:#89411B;}
	.st8{fill:#4F2310;}
	.st9{fill:#538EA7;}
	.st10{fill:#743C1B;}
	.st11{fill:#AECCDF;}
	.st12{fill:#AFCDE0;}
	.st13{fill:#7497AD;}
	.st14{fill:#D6E9F1;}
	.st15{fill:#D6E8F1;}
	.st16{fill:#7496AC;}
	.st17{fill:#DAECF4;}
	.st18{fill:#BCDBEE;}
	.st19{fill:#B2D1E5;}
	.st20{fill:#ACCCE1;}
	.st21{fill:#EFF5F7;}
	.st22{fill:#A36224;}
	.st23{fill:#E8BD76;}
	.st24{fill:#C39042;}
	.st25{fill:#8DB5D0;}
	.st26{fill:#E8BB76;}
	.st27{fill:#A76627;}
	.st28{fill:#A66526;}
	.st29{fill:#A36225;}
	.st30{fill:#A26124;}
	.st31{fill:#C18E44;}
	.st32{fill:#8DB7D4;}
	.st33{fill:#A66426;}
	.st34{fill:#AB6D2F;}
	.st35{fill:#C19044;}
	.st36{fill:#C79549;}
	.st37{fill:#AF6D2C;}
	.st38{fill:#C29144;}
	.st39{fill:#C49244;}
	.st40{fill:#D9A861;}
	.st41{fill:#A56427;}
	.st42{fill:#A46426;}
	.st43{fill:#9E5C20;}
	.st44{fill:#B07638;}
	.st45{fill:#7E6242;}
	.st46{fill:#C79446;}
	.st47{fill:#D28337;}
	.st48{fill:#F3E992;}
	.st49{fill:#F4F6A9;}
	.st50{fill:#C97B31;}
	.st51{fill:#DFA347;}
	.st52{fill:#EEEA7C;}
	.st53{fill:#E7BB5F;}
	.st54{fill:#DB9743;}
	.st55{fill:#DFA24A;}
	.st56{fill:#F3E089;}
	.st57{fill:#9F682E;}
	.st58{fill:#ECC77E;}
	.st59{fill:#437F98;}
	.st60{fill:#5D93AF;}
	.st61{fill:#8EB7D3;}
	.st62{fill:#A26931;}
	.st63{fill:#C0732B;}
	.st64{fill:#498CA7;}
	.st65{fill:#D39C49;}
	.st66{fill:#8DB5D1;}
	.st67{fill:#8DB9D7;}
	.st68{fill:#DAF2F9;}
	.st69{fill:#E1F0F4;}
	.st70{fill:#D5DFDA;}
	.st71{fill:#B66E2B;}
	.st72{fill:#B7712C;}
	.st73{fill:#AF6928;}
	.st74{fill:#F2DA8A;}
	.st75{fill:#E5B65D;}
	.st76{fill:#CA9646;}
	.st77{fill:#C7772D;}
	.st78{fill:#D09A48;}
	.st79{fill:#E4F6F7;}
	.st80{fill:#9DCAE4;}
	.st81{fill:#46829A;}
	.st82{fill:#D39D4A;}
	.st83{fill:#B5722D;}
	.st84{fill:#D19C4A;}
	.st85{fill:#E8BF62;}
	.st86{fill:#EAC463;}
	.st87{fill:#ABCED7;}
	.st88{fill:#EDDECB;}
	.st89{fill:#D07E32;}
	.st90{fill:#D4853B;}
	.st91{fill:#E1AB55;}
	.st92{fill:#E5B45D;}
	.st93{fill:#EECD64;}
	.st94{fill:#EED06B;}
	.st95{fill:#A1D0EE;}
	.st96{fill:#A8D4EE;}
	.st97{fill:#619FB7;}
	.st98{fill:#D8A04B;}
	.st99{fill:#DEA650;}
	.st100{fill:#C77B30;}
	.st101{fill:#E2AD57;}
	.st102{fill:#EDCB65;}
	.st103{fill:#EDCB64;}
</style>
<g>
	<path class="st0" d="M1.56,44.94c1.46-7.4,6.74-11.22,13.1-14.07c8.39-3.76,17.35-5.43,26.28-7.22c3.63-0.72,7.31-1.22,10.98-1.72
		c1.14-0.16,1.91-0.68,2.77-1.4C67.36,10.12,81.58,3.22,98.1,1.68c0.84-0.08,1.74,0.08,2.5-0.18c10.95-3.75,20.96,0.34,30.98,3.79
		c5.37,1.85,11.04,2.37,16.25,5.26c5.85,3.25,12.37,5.43,16.9,10.58c3.46,3.94,8.07,4.02,12.52,5.03
		c10.14,2.3,20.4,4.17,29.05,10.68c4.36,3.29,6.98,8.1,6.91,12.76c-0.07,4.63-2.3,9.65-6.42,13.13
		c-8.16,6.9-17.52,11.17-27.95,13.17c-2.2,0.42-3.91,1.3-5.43,3.02c-5.63,6.38-13.69,7.46-21.33,9.22
		c-7.84,1.81-15.9,2.04-23.9,2.47c-17.01,0.91-33.99,0.46-50.78-2.6c-5.84-1.06-11.94-1.47-17.22-4.7
		c-0.67-0.41-1.37-0.17-2.07-0.21c-1.42-0.08-3.15,0.03-4.17-0.72c-10.75-7.9-24.52-8.61-35.82-15.22
		c-4.18-2.45-8.08-5.13-11.48-8.55c-2.79-2.81-4.24-6.32-5.19-10.09C0.64,47.29,0.54,46.1,1.56,44.94z"/>
	<path class="st1" d="M1.56,44.94c-0.04,1.19-0.07,2.38-0.11,3.57C-0.52,47.21-0.49,46.23,1.56,44.94z"/>
	<path class="st2" d="M113.89,85.87c-15.48,0.15-30.86-0.9-46-4.42c-1.91-0.44-3.58-1.34-5.29-2.2c-1.39-0.7-2.67-1.42-4.4-0.9
		c-1.79,0.55-3.42-0.31-4.37-1.77c-1.57-2.42-4.11-2.38-6.42-3.28c-12.57-4.91-26.4-7.22-36.58-17.23
		c-6.81-6.7-6.07-13.99,2.08-18.88c8.7-5.22,18.54-6.89,28.27-8.83c4.45-0.89,8.96-1.49,13.45-2.15c0.86-0.13,1.54-0.32,2.21-0.95
		C68.55,14.43,82.43,8.63,98.15,6.33c11.75-1.72,22.62,0.03,33.82,3.76c7.72,2.57,15.22,5.4,22.45,9c4.06,2.02,7.39,5.19,10.16,8.76
		c0.83,1.07,1.58,1.17,2.62,1.31c9.15,1.25,18.12,3.29,26.85,6.31c3.77,1.3,7.22,3.23,10.21,5.86c5.31,4.67,5.06,12.94-0.5,17.72
		c-7.63,6.56-16.52,10.52-26.33,12.4c-2.8,0.54-5.11,1.32-6.97,3.73c-4.22,5.45-10.84,6.32-16.89,7.87
		c-8.73,2.24-17.78,2.36-26.75,2.78C122.52,86.04,118.2,85.87,113.89,85.87z"/>
	<path class="st3" d="M128.4,80.98c-4.36,1.14-8.81,0.54-13.21,0.59c-14.63,0.15-29.22-0.46-43.48-4.22
		c-2.07-0.55-4.35-1.02-6.03-2.22c-7.02-5.05-15.62-5.66-23.39-8.57c-6.95-2.61-14.13-4.56-20.75-8.02
		c-3.12-1.63-5.84-3.76-8.24-6.31c-3.86-4.1-3.25-8.1,1.66-10.86c6.34-3.57,13.23-5.62,20.29-7.06c7.03-1.43,14.06-2.98,21.27-3.38
		c0.84-0.05,1.65-0.4,2.33,0.37c0.4,2.57-1.45,3-3.28,3.45C44.79,36.4,34,37.99,23.7,41.79c-2.02,0.75-4.07,1.43-5.86,2.69
		c-3.67,2.59-3.57,4.95,0.1,7.52c6.99,4.91,14.94,7.49,23,9.86c1.15,0.34,2.32,0.59,3.47,0.95c3.55,1.14,7.24,1.61,10.87,2.32
		c9.04,0.71,18.02,1.98,27.09,2.61c7.68,0.54,15.26-0.55,22.88-0.18c4.45,0.08,8.89-0.15,13.34-0.04
		c8.28,0.24,16.57-0.07,24.84,0.31c2.22,0.1,4.28,0.92,3.52,3.96c-1.33,1.21-3.02,1.32-4.67,1.58c-12.23,1.97-24.55,1.42-36.85,1.35
		c-2.39-0.14-4.79,0.24-7.17-0.24c-0.71-0.11-1.38-0.48-2.1-0.46c-8.4,0.26-16.75-0.58-25.12-1.02c-0.31-0.02-0.6,0.13-0.23-0.07
		c5.36,0.53,11.09,2.4,16.98,3.22c3.94,0.21,7.88-0.14,11.82,0.06c13.98,0.04,27.96-0.11,41.92-0.78c1.77,0.26,3.59-0.07,5.34,0.36
		c0.67,0.16,1.46,0.37,1.41,1.3c-0.03,0.63-0.47,1.13-1.06,1.31c-1.13,0.35-2.24,0.87-3.42,0.96c-8.96,0.74-17.93,1.22-26.3,1.14
		C120.69,81.05,124.6,79.78,128.4,80.98z"/>
	<path class="st4" d="M146.92,71.5c-0.8-1.96-1.6-3.15-4.36-2.46c-2.4,0.6-5.16-0.31-7.76-0.36c-5.39-0.11-10.78-0.1-16.17-0.15
		c0.24-1.06,1.09-1.3,1.98-1.5c10.32-0.2,20.66-0.14,30.88-1.92c8.08-1.6,16.23-2.9,24.29-4.62c3.39-0.73,6.76-1.52,9.9-3.03
		c1.23-0.78,2.58-1.13,4.03-1.23c2.29-0.15,4.38-0.97,6.39-2.02c4.38-2.3,4.53-3.99,0.64-7.16c-5.11-3.14-10.31-6.08-16.31-7.21
		c-2.26-1.2-5.34-0.44-7.05-2.95c0.41-1.48,1.41-1.04,2.5-0.93c3.12,0.34,5.95,2.11,9.19,1.74c5.12,0.95,9.9,2.77,14.18,5.76
		c5.8,4.05,5.93,8.84,0.33,13.08c-7.08,5.36-14.93,9.07-23.7,10.66c-3.92,0.71-7.71,1.47-10.54,4.71
		c-4.28,4.91-10.25,6.44-16.28,7.45c-6.83,1.14-13.72,1.95-20.68,1.62c-4.3,0-8.6,0-12.91,0c10.81-0.96,21.62-1.54,32.31-3.22
		c-0.02-0.4-0.04-0.81-0.06-1.21c-1.96,0-3.93,0-5.89,0c0.56-2.13,2.4-1.7,3.79-1.65c4.56,0.16,8.78-0.78,12.2-3.15
		C154.49,71,150.68,73.34,146.92,71.5z"/>
	<path class="st5" d="M55.54,34.22c1.46-0.58,2.64-1.47,3.31-2.93c0.3-0.28,0.61-0.56,0.91-0.84c0.45-0.41,0.76-1,1.41-1.17
		c1.52-0.54,2.95-2.55,4.65-0.3c0.12,0.32,0.18,0.64,0.19,0.98c-0.04,1.08,0.28,2.14,0.23,3.21c-0.07,1.34,0.17,1.98,1.75,1.65
		c1.13-0.24,2.77-0.41,3.18,0.86c0.48,1.44-1.29,1.69-2.18,2.35c-0.37,0.27-0.86,0.35-1.15,0.82c0.9,0.14,1.82-0.49,2.68,0.08
		c0.8,1.17-0.12,2.1-0.42,3.09c2.51,0.53,4.53-1.17,6.85-1.45c1.77-0.21,3.46-0.92,5.28-0.96c5.16-0.9,10.37-0.68,15.56-0.87
		c1.14,0.24,2,0.69,1.67,2.1c-2.45,2.23-5.61,1.68-8.5,2.12c-1.29,0.2-2.64,0.05-3.95,0.06c-1.34-0.01-2.62,0.37-3.94,0.56
		c-0.71,0.1-1.44,0.13-2.15,0.18c-2.35,0.29-4.57,1.04-6.78,1.77c0.94,2.48,3.25,2.19,5.18,2.49c0.88,0.14,1.84-0.33,2.77-0.48
		c1.63-0.36,3.29-0.6,4.9-1.04c0.97-0.27,1.93-0.56,2.87-0.9c1.77-0.53,3.51-1.14,5.19-1.94c1.17-0.38,2.33-0.9,3.61-0.56
		c0.87,0.41,1.51,1.02,1.69,2.01c-0.72,2.12-2.88,1.82-4.39,2.61c-2.58,1.05-5.24,1.89-8.59,2.81c2.25-0.07,3.79-0.05,5.31,0.3
		c2.45,0.55,4.92,0.19,7.38,0.28c0.99,0,1.98,0,2.96-0.01c2.77,0,5.55,0.02,8.28-0.58c0.98-0.09,1.95-0.06,2.91,0.22
		c1.67,0.82,3.31,1.7,4.78,2.88c-0.04,0.68-0.48,1.04-1.04,1.29c-1.19,0.4-2.42,0.31-3.65,0.35c-3.1,0.14-6.24-0.4-9.3,0.5
		c-2.63,0.41-5.32,0.64-7.87-0.01c-9.6-2.48-19.49-2.19-29.23-3.31c-2.22-0.26-4.62-0.04-6.18-2.17c1.63-3.12,4.42-1.3,6.7-1.71
		c-2.34-0.71-4.56-0.23-6.7,0.9c-2.17,1.5-4.5,2.6-7.16,2.92c-6.49,2.48-13.26,3.1-20.12,3.08c-0.75,0.09-1.48,0.07-2.04-0.55
		c0.01-0.73-0.53-1.05-1-1.51c-0.78-0.76-0.6-1.43,0.52-1.73c1.39,0.03,2.75,0.27,4.1,0.53c2.14,0.61,4.31,0.51,6.48,0.22
		c0.31-0.11,0.63-0.19,0.95-0.26C45,51.63,46.8,52,48.17,50.84c0.24-0.47,0.65-0.71,1.12-0.88c1.99-0.33,3.83-1.19,5.82-1.49
		c2.61-1.14,5.28-2.15,7.88-3.42c-2.14,0.04-4.2,0.83-6.31,0.95c-1.61,0.09-0.9,1.28-1.27,1.97c-3.85-0.4-7.68-0.86-10.72-3.63
		c-0.18-0.31-0.21-0.65-0.13-1c2.05-2.21,4.83-3.58,6.75-5.93C52.67,36.25,53.71,34.71,55.54,34.22z"/>
	<path class="st6" d="M121.76,11.71c1.13,0.47,2.25,0.95,3.38,1.42c8.08,3.11,15.54,7.59,23.93,10.08c4.59,1.36,8,4.98,10.83,8.91
		c0.51,0.56,1.03,1.12,1.54,1.68c0.76,0.36,1.33,0.93,1.81,1.61c0.64,1.47,2.78,1.91,2.7,3.89c-1.01,1.54-2.07,0.45-3-0.04
		c-1.55-0.82-2.93-1.93-4.15-3.2c-2.49-2.98-5.95-4.68-9.07-6.84c-0.38-0.26-0.75-0.58-1.22-0.7c0.14,0.37,0.43,0.69,0.33,1.13
		c-0.3,1.1-1.02,1.4-2.06,1.12c-4.33-4.98-10.25-5.32-16.2-5.47c-1.33-0.03-2.59-0.05-3.8-0.63c-2.31-0.76-4.75,0-7.03-0.6
		c-1.54-0.4-3.85-0.35-3.1-3.14c2.7-1.57,5.64-0.5,8.45-0.79c2.24,0.07,4.49,0.05,7.07,0.2c-5.09-1.73-9.22-6.46-15.04-3.04
		c-0.78,0.31-1.54,0.65-2.3,1.01c-2.21,1.12-4.27,1.56-5.59-1.26c0.07-0.53,0.34-0.93,0.73-1.27c0.4-0.36,0.93-0.52,1.37-0.82
		c-0.31-0.21-0.65-0.07-0.99-0.07c-5.29,0.18-10.57-0.19-15.83,0.23c-0.39,0.14-0.78,0.23-1.19,0.3c-1.36-0.07-3.09,0.64-3.41-1.62
		c0.95-1.5,2.47-1.52,3.98-1.57c4.42-0.34,8.92,0.75,13.29-0.7C112.09,9.82,116.92,11.16,121.76,11.71z"/>
	<path class="st7" d="M159.91,32.11c-1.46-1.21-2.95-2.39-4.37-3.65c-2.98-2.65-6.23-4.62-10.19-5.68
		c-7.3-1.95-13.78-5.78-20.21-9.66c9.92,2.34,19.67,5.28,28.35,10.71C156.38,25.66,159.93,27.7,159.91,32.11z"/>
	<path class="st8" d="M93.35,13.13c-1.16-0.09-2.3-0.06-3.25,0.75c-2.23,1.86-5.15,2.27-7.61,3.63c-3.67,1-6.71,3.31-10.13,4.81
		c-4.1,1.87-7.36,5.01-11.16,7.33c-0.48,0.26-0.95,0.53-1.43,0.79c0.82-4.59,4.81-6.39,8.07-8.51c7.25-4.69,15.22-8.03,23.52-10.32
		c3.72-1.03,7.77-0.88,11.68-1.26c1.01,0.88,3.32-0.75,3.31,0.94c-0.01,1.86-2.23,1.06-3.5,1.15c-2.39,0.17-4.79-0.07-7.18,0.14
		C94.91,12.83,94.09,12.81,93.35,13.13z"/>
	<path class="st9" d="M162.37,35.52c-0.31-0.57-0.62-1.15-0.93-1.72c3.22-0.99,6.32,0.18,9.44,0.6c4.82,0.64,9.59,1.69,14.2,3.31
		c-3.23,2-5.9-1.24-8.98-1.01c-0.84,0.06-1.75-0.74-2.51,0.26c-1.89,1.54-3.8,0.36-5.67-0.02c-1.48-0.3-3.02-0.29-4.46-0.82
		C163.1,35.91,162.74,35.7,162.37,35.52z"/>
	<path class="st10" d="M95.06,12.45c3.45-1.6,7.18-0.07,10.77-0.96c-0.77-0.9-2.22,0.02-2.8-1.13c6.37-1.27,12.62-1.03,18.73,1.35
		c-4.77,0.46-9.6-0.34-14.33,0.76C103.31,13.07,99.18,13.09,95.06,12.45z"/>
	<path class="st11" d="M55.54,34.22c-1.13,1.15-2.26,2.29-3.38,3.44c-1.61,0.49-2.32,2.31-4,2.69c-7.01-0.3-13.47,1.99-19.77,4.59
		c-3.45,1.43-3.3,4.52-0.39,7.08c4.38,3.87,9.49,5.82,15.12,6.82c2.22,0.39,4.53,0.52,6.56,1.7c-0.74,3.19-3.53,2.51-5.69,3.02
		c-9.45-2.33-18.61-5.3-26.77-10.86c-4.44-3.02-4.62-6.31,0.12-8.97c6.96-3.91,14.66-5.89,22.44-7.27
		C44.99,35.54,50.14,33.89,55.54,34.22z"/>
	<path class="st12" d="M105.14,68.68c-16.96,1.08-33.79-0.03-50.54-2.79c3.81-1.81,7.88-2.79,11.96-3.76
		c3.65-0.56,7.16,0.72,10.76,0.78c4.37,0.85,8.78,0.34,13.17,0.39c7.71,0.07,15.42,0.17,23.12-0.4c2.27,1.41,0.35,2.09-0.6,2.64
		C110.56,66.95,107.8,67.71,105.14,68.68z"/>
	<path class="st13" d="M146.92,71.5c4.12-0.13,8.19-1.33,12.76-0.39c-2.94,3.3-6.55,4.34-10.48,4.76c-2.45,0.26-5-0.65-7.34,0.69
		c-14.15,0.67-28.31,1.01-42.48,0.7c0.91-2.74,3.89-2.05,5.63-3.41c5.59-0.07,11.19-0.26,16.78-0.17
		C130.25,73.79,138.61,72.97,146.92,71.5z"/>
	<path class="st14" d="M105.14,68.68c2.53-2.81,6.6-2.72,9.43-4.97c0.44-0.7,1.15-0.84,1.89-0.94c1.07-0.14,2.06,0.24,3.07,0.55
		c-0.79-0.3-1.13-0.8-0.89-1.64c0.75-1.1,1.91-1.1,3.06-1.15c2.43,0.44,5.01,0.37,7.11,1.99c0.75,1.7-0.8,1.97-1.68,2.57
		c-2.07,1.43-4.53,1.98-6.84,2.88c-0.55,0.19-1.11,0.38-1.66,0.56C114.13,68.58,109.64,68.63,105.14,68.68z"/>
	<path class="st15" d="M66.29,62.87c-3.88,1.07-7.45,3.34-11.69,3.02c-3.6-0.5-7.2-0.97-10.61-2.33c1.92-0.93,3.84-1.87,5.76-2.8
		c0.37-1.15,1.32-1.44,2.36-1.6C56.94,60.03,61.91,60.33,66.29,62.87z"/>
	<path class="st16" d="M87.3,77.18c-6.11-1.25-12.33-2.1-18.13-4.65c9.66-0.28,19.26,0.2,28.84,1.05
		C94.53,75.04,90.75,75.62,87.3,77.18z"/>
	<path class="st17" d="M87.3,77.18c3.05-2.74,6.63-3.9,10.71-3.6c2.33,0.08,4.66,0.17,6.99,0.25c-1.14,2.36-4.04,1.81-5.63,3.41
		C95.35,77.64,91.32,77.4,87.3,77.18z"/>
	<path class="st18" d="M180.79,39.09c6.13,1.02,11.37,4.04,16.51,7.29c0.11,1.12-0.68,1.03-1.39,1.01
		c-2.83-0.06-10.28,5.87-10.81,8.59c-0.27,1.41,1.42,1.05,1.72,1.94c-3.06,2.02-6.61,2.71-10.09,3.4c-8.2,1.62-16.44,3.01-24.67,4.5
		c-5.75,0.86-11.58,0.86-17.34,1.71c-0.72,0.11-1.86,0.43-2.15-0.63c-0.24-0.88,0.6-1.48,1.25-2.02c1.57-1.3,3.43-1.59,5.39-1.55
		c4.45-0.47,8.93-0.84,13.1-2.69c6.85-0.22,13.59-1.17,20.13-3.29c1.84-0.6,3.6-1.35,4.79-2.99c2.18-3,1.51-5.13-2.05-6.53
		c-2.22-0.81-3.23-2.29-2.63-4.68C174.85,40.89,177.81,39.96,180.79,39.09z"/>
	<path class="st19" d="M186.82,57.92c-1.14-0.24-2.74,0.5-3.36-0.55c-0.77-1.31,0.99-1.89,1.64-2.78c0.91-1.24,1.82-2.51,2.91-3.59
		c2.57-2.56,4.66-6.18,9.29-4.63c4.75,3.12,4.59,5.76-0.38,8.49C193.75,56.61,190.23,57.04,186.82,57.92z"/>
	<path class="st20" d="M139.92,64.23c-2.57-0.2-4.81,0.6-7.33,2.75c6.88-0.41,13.17-0.79,19.46-1.16
		c-10.49,2.09-21.11,2.46-31.76,2.16c2.51-2.37,6.16-2.8,8.71-5.11c1.94-1.59,4.25-0.85,6.41-1c1.51-0.1,3.04-0.02,4.52-0.39
		c1-0.09,1.97-0.08,2.71,0.75C142.49,63.91,140.65,63.32,139.92,64.23z"/>
	<path class="st21" d="M180.79,39.09c-2.31,1.98-5.11,2.99-7.9,4.02c-1.48,0.72-1.48,0.72-3.79-1.8c-0.56-0.6-1.17-1.15-1.87-1.61
		c-0.92-1.61-3.33-1.92-3.62-4.09c3.46-0.54,6.58,1.4,9.97,1.34C175.98,37.67,178.39,38.38,180.79,39.09z"/>
	<path class="st22" d="M54.76,51.37c2.65,0.11,4.59-2.16,7.21-2.14l-0.03-0.04c1.11,2.54,3.55,1.91,5.49,2.12
		c4.98,0.53,9.99,1.14,14.99,1.14c7.68,0,14.96,3.42,22.71,2.45c3.11-0.77,6.32,0.27,9.42-0.58c1.18-0.01,2.36-0.01,3.53-0.02
		c0.1,1.55-1.16,2.01-2.17,2.5c-5.48,2.64-10.97,5.38-17.23,5.55c-8.34,0.22-16.71,0.74-24.92-1.34c-2.7-0.68-5.72-1.09-6.82-4.36
		c0.79-1.17,1.77-0.59,2.73-0.29c0.32,0.1,0.67,0.14,0.98,0.27c-0.36-0.4-0.94-0.21-1.34-0.51c-1.22-0.68-2.43-0.22-3.69-0.01
		c-0.16,1.61,2.08,2.31,1.44,4.03c-0.86,0.56-1.63,0.2-2.39-0.22c-1.35-0.75-2.37-1.85-3.27-3.08c-1.65-2.44-4.88-2.52-6.81-4.55
		C54.46,51.93,54.53,51.63,54.76,51.37z"/>
	<path class="st23" d="M118.87,53.54c-1.95,0.37-3.13-0.86-4.33-2.06c2.32-2.66,5.27-1.18,8.6-1.19c-2.27-0.43-3.98-0.71-5.64-1.19
		c-1.46-0.5-2.93-0.96-4.44-1.29c-3.2-0.57-5.73-3.02-9.05-3.26c-1.29,0.11-2.49,1.38-3.88,0.34c-0.69-0.27-1.17-0.75-1.44-1.44
		c0.27-0.95,1.53-1.65,0.72-2.88c-0.27-0.69-0.75-1.17-1.44-1.45c-0.53-0.02-1.05-0.07-1.55-0.24c-4.66-3.98-9.03-3.06-14.09-0.18
		c-3.86,2.2-8.38,3.73-13.13,3.46c0.47-0.98,0.95-1.96,1.42-2.94c0.49-1.69,2.07-1.85,3.38-2.31c2.82-1.01,5.69-1.87,8.5-2.91
		c1.9-0.72,3.56-1.91,5.42-2.72c1.34-0.59,2.67-1.12,3.98,0.06c3.45,2.36,7.2,4.23,10.8,6.36c1.41,0.84,2.8-0.1,4.2-0.21
		c1.86-0.29,3.06-1.8,4.67-2.56c1.23-0.61,2.32-1.69,3.89-1.29c0.54,0.24,0.88,0.65,1.03,1.22c0.08,0.57-0.02,1.09-0.33,1.58
		c-1.77,1.71-4.24,2.57-6,4.72c2.02,1.44,4.16,2.16,6.33,2.65c5.92,1.33,11.78,3.07,17.93,3.06c0.72,0,1.43,0.12,2.06,0.52
		c1.21,1.32-0.48,1.38-0.98,2.2c1.06,0.71,2.52,0.17,3.5,0.99c0.7,0.68,2.31,0.74,2.03,2.01c-0.26,1.19-1.65,1.05-2.67,1.14
		c-1.04,0.09-2.1,0.04-3.14,0.12c-2.25-0.01-4.5,0.05-6.75-0.03c-2.42,0.02-4.85-0.26-7.25,0.31
		C120.33,54.23,119.52,54.21,118.87,53.54z"/>
	<path class="st24" d="M118.87,53.54c0.71-0.01,1.43-0.03,2.14-0.04c2.09-0.66,4.24-0.16,6.35-0.33c2.18,0.7,0.57,1.36-0.13,1.64
		c-1.76,0.71-3.66,1.07-5.64,2.25c1.27,0.83,2.54-0.05,3.53,0.51c0.87,1.79,2.82,1.21,4.2,1.88c2.82,0.58,5.65,0.37,8.48,0.14
		c0.37-0.05,0.74-0.02,1.11,0.07c1.02,0.55,1.98,1.15,1.58,2.57c-3.77,1.28-7.67,0.35-11.49,0.63c-2.47-0.54-4.95-1.08-7.42-1.62
		c-2.59-0.54-5.12-2.21-7.85-0.47c-1,0.5-1.88,1.22-2.95,1.57c-4.59,1.62-9.35,1.69-14.13,1.64c-5.61-0.06-11.22,0-16.83-0.02
		c-3.26-0.94-6.72-0.78-9.97-1.82c-1.17-0.37-2.67-0.29-2.8-2.07c-0.11-0.21-0.2-0.42-0.33-0.62c-0.9-1.42-3.47-2.51-2.32-4.25
		c0.8-1.21,3.15-0.05,4.78,0.28c-0.02,0.87-0.88,0.37-1.21,0.73c-0.19,2.85,2.55,2.9,3.93,3.19c15.91,3.29,31.65,4.3,46.19-5.11
		C118.35,54.04,118.61,53.79,118.87,53.54z"/>
	<path class="st25" d="M51.95,59.89c-0.73,0.29-1.46,0.58-2.2,0.87c-8.45-0.6-16.3-2.81-23-8.31c-2.72-2.24-3.01-6.25,0.07-7.79
		c6.18-3.09,12.86-4.8,19.77-5.44c0.53-0.05,1.11,0.38,1.67,0.58c-0.55,1.87-2.4,2.46-3.61,3.67l0.07-0.03
		c-0.4,0.99-1.05,1.76-2.01,2.24c-1.61,0.84-3.41,0.96-5.14,1.32c-2.35,0.5-3.89,1.62-4.1,4.15c-0.69,1.47-2.6-1.33-3.08,0.88
		c0.18,1.17,1.29,1.53,1.96,2.27c0.41,0.51,0.97,0.59,1.58,0.53c2.32-0.67,4.6,0.39,6.91,0.17c3.33,0.56,6.28,2.23,9.47,3.22
		C51.1,58.46,51.91,58.84,51.95,59.89z"/>
	<path class="st26" d="M61.19,29.65c2.95-3.52,6.67-6,10.76-7.99c1.26,0.27,2.74-0.57,3.79,0.76c0.79,1.89-2.49,2.01-1.68,3.89
		c0.43,0.43,0.97,0.65,1.54,0.83c4.61,1.01,9.09,1.17,13.09-1.92c-0.9-1.16-3.84,0.77-3.42-2.32c2.77-1.08,5.63-0.55,8.46-0.48
		c0.94,0.02,1.99,0.22,2.28,1.34c0.29,1.11-0.55,1.81-1.32,2.32c-1.54,1.02-2.46,2.5-3.31,4.05c-4.32,2.42-9.02,2.26-13.73,2.08
		c-2.49-0.19-4.83-0.86-6.9-2.3c-1.38-2.34-3.43-0.76-5.19-0.87C63.81,27.17,62.8,30.55,61.19,29.65z"/>
	<path class="st27" d="M70.65,28.98c1.95,1.2,4.03,2.07,6.33,2.32c-0.89,3.64-3.48,1.63-5.7,1.74c2.38,0.59,4.55,0.07,6.72,0.11
		c1.69,0.03,3.92-0.91,4.82,1.64c-4.07,1.48-8.14,2.96-12.2,4.44c-1.67-0.18-4.16,2-4.65,0.37c-0.61-2.03,2.63-1.98,4.01-3.09
		c0.18-0.14,0.37-0.28,0.93-0.72c-2.08-0.4-3.75-0.49-5.97,1.37c1.05-3.04-0.54-5.25,0.56-7.48C67.15,28.99,68.77,28.04,70.65,28.98
		z"/>
	<path class="st28" d="M103.74,43.46c3.48,0.24,6.1,2.78,9.37,3.57c-0.08,1.94-1.69,2.02-3,2.43c-3.86,1.2-7.77,0.55-11.46,0.29
		c0.9,0.36,2.09,0.03,3.2,0.3c1,0.25,1.87,0.66,1.07,1.95c-0.92,0-1.85,0.01-2.77,0.01c-2.62-0.77-5.37,0.18-7.99-0.55
		c-2.27,0-4.55,0-6.82,0c-0.04-0.39-0.07-0.78-0.11-1.17c3.52-1.08,7.05-2.17,10.57-3.25c3.19-0.71,6.41-1.12,9.8-0.86
		C105.2,44.97,103.32,45,103.74,43.46z"/>
	<path class="st29" d="M61.09,32.94c1.63,2.23,0.45,4.94,1.42,7.19c0.23,0.54-0.51,0.95-1.15,1.09c-3.47,0.76-6.93,1.54-10.6,1.94
		c3.17-2.31,4.23-7,9.16-7.2C62.1,35.88,59.45,33.94,61.09,32.94z"/>
	<path class="st27" d="M69.2,42.17c6.44-1.47,12.73-3.44,18.36-6.97c1.87-1.17,3.04-1.17,4.67,0.25c1.42,1.24,3.21,2.06,4.84,3.07
		c-2.14,1.88-4.41,1.33-6.28-0.16c-1.72-1.37-3.36-1.18-4.41,0.15c-1.42,1.81-3.28,1.53-5.03,1.94c-3.73,0.84-7.49,1.59-11.05,3.06
		c-0.78,0.32-1.6,0.84-2-0.37C68.23,42.95,68.88,42.51,69.2,42.17z"/>
	<path class="st30" d="M42.44,44.87c0.76-0.48,1.52-0.96,2.28-1.43c1.88,1.66,4.05,2.88,6.58,2.77c1.74-0.07,2.64,1.49,4.19,1.57
		c0.43,0.44,0.39,0.86-0.03,1.28c-2.13,0.54-4.09,1.73-6.38,1.63c-1.62-0.59-3.35-0.92-4.87-1.81
		C42.71,47.94,41.37,46.94,42.44,44.87z"/>
	<path class="st31" d="M102.93,51.99c-0.71-2.7-3.89-0.27-5.01-2.67c4.1-0.3,8.18,0.25,12.12-0.81c1.15-0.31,2.32-0.43,3.08-1.49
		c1.58,0.06,3.05,0.53,4.4,1.35c-0.91,3.03-4.07,1.6-5.83,2.94C108.83,52.37,105.87,52.1,102.93,51.99z"/>
	<path class="st32" d="M44.8,48.44c1.56,0.5,3.4,0.46,4.28,2.24c-0.3,0.18-0.59,0.36-0.89,0.54c-1.6,0.81-3.36,0.97-5.08,1.3
		c-1.61,0.43-3.23,0.31-4.85,0.12c-1.12-0.47-2.37-0.99-2.15-2.43c0.18-1.2,1.49-1.39,2.47-1.74C40.64,47.74,42.72,47.51,44.8,48.44
		z"/>
	<path class="st33" d="M99.4,40.58c0.68,0.13,1.73,0.14,1.74,0.86c0.02,1.47-1.73,1.19-2.46,2.01c-1.19,0.25-2.39,0.49-3.58,0.74
		c-2.18,0.63-4.4,0.43-6.58,0.15c-1.13-0.15-2.8-0.23-2.03-2.27C90.83,41.87,95.2,41.93,99.4,40.58z"/>
	<path class="st34" d="M55.46,49.06c0.01-0.43,0.02-0.85,0.03-1.28c-0.73-1.06-1.88-2.13,0.62-2.49c2.35-0.34,4.68-0.85,7-1.39
		c0.91-0.21,1.79-0.33,2.06,0.69c0.27,1-0.78,0.98-1.39,1.22C61.01,46.91,58.23,47.98,55.46,49.06z"/>
	<path class="st35" d="M87.24,47.14c-1.59,1.01-3.5,0.74-5.21,1.26c-1.37-1.04-3.07-0.11-4.48-0.72c-1.52-0.66-3.69-0.4-4.09-2.74
		c2.28-1.21,4.79-1.61,7.27-2.15C81.9,45.73,85.05,45.71,87.24,47.14z"/>
	<path class="st36" d="M81.35,40.47c1.27-0.95,2.91-0.83,4.19-2.39c1.29-1.58,3.79-3.67,6.11-0.07c1.16,1.8,3.48,1.58,5.43,0.52
		c0.3,0.2,0.6,0.4,0.89,0.6c-0.58,0.77-1.43,0.76-2.25,0.7C90.9,39.52,86.14,40.22,81.35,40.47z"/>
	<path class="st37" d="M111.68,51.31c1.26-2.33,4.33-1.08,5.83-2.94c2.43,0.43,4.86,0.87,7.9,1.41c-3.77,2.8-7.71-0.36-10.88,1.7
		C113.59,51.43,112.63,51.37,111.68,51.31z"/>
	<path class="st38" d="M86.5,42.07c0.21,1.81,1.65,1.36,2.72,1.36c2,0,3.97,0.11,5.89,0.76c-1.42,1.39-3.29,1.7-5.11,2.1
		c-2.7-0.53-6.27,0.72-7.19-3.48C84.05,42.64,85.15,41.75,86.5,42.07z"/>
	<path class="st39" d="M103.74,43.46c1.08,1.59,3.47,1.38,4.78,3.58c-4.5,0-8.61,0-12.72,0c1.21-1.18,3.33-0.53,4.33-2.14
		C101.33,44.41,102.54,43.94,103.74,43.46z"/>
	<path class="st40" d="M40.92,55.64c-2.33-0.27-4.65-0.54-6.98-0.81c0.65-0.7,1.53-0.67,2.34-0.58c6.43,0.71,12.44-1.15,18.48-2.89
		c-0.05,0.25-0.09,0.51-0.14,0.76c-1.61,2.98-4.97,2.27-7.39,3.53C45.12,56.37,43.02,55.28,40.92,55.64z"/>
	<path class="st41" d="M82.8,42.8c1.52,2.97,5.01,1.87,7.19,3.48c-0.92,0.28-1.84,0.57-2.75,0.85c-4.65-0.19-6.35-1.32-6.51-4.34
		C81.42,42.8,82.11,42.8,82.8,42.8z"/>
	<path class="st42" d="M73.46,44.94c1.59,1.39,3.56,1.84,5.57,2.08c1.18,0.14,2.44-0.03,3.01,1.38c-3.55,1.42-6.5-0.29-9.46-1.86
		c-0.49-0.26-1.3-0.53-0.76-1.22C72.07,44.98,72.89,45.06,73.46,44.94z"/>
	<path class="st43" d="M61.97,49.22c4.56-3.02,5.36-2.99,8.94,0.54c-3.14-0.2-6.06-0.39-8.98-0.58
		C61.93,49.18,61.97,49.22,61.97,49.22z"/>
	<path class="st44" d="M38.22,51.98c1.69,0.05,3.38,0.1,5.07,0.15c0.21,0.17,0.26,0.32,0.18,0.46c-0.08,0.13-0.17,0.19-0.25,0.19
		l0.02,0c-2.39,0.65-4.79,0.52-7.19,0.08c-1.47-0.09-2.99,0.13-4.32-0.78c-0.81-0.52-1.52,0.2-2.29,0.17
		c-0.65-0.56-0.77-1.22-0.13-1.81c1.52-1.39,2.54,0.48,3.83,0.67C35.03,50.26,36.5,51.83,38.22,51.98z"/>
	<path class="st45" d="M44.65,43.47c1.2-1.22,2.41-2.45,3.61-3.67c1.39-0.54,2.18-2.18,3.89-2.14
		C49.96,39.99,47.81,42.39,44.65,43.47z"/>
	<path class="st46" d="M70.65,28.98c-1.69,0.46-3.35,1.09-5.15,0.7c0.03-0.21,0.05-0.42,0.06-0.64
		C67.24,28.14,68.91,25.76,70.65,28.98z"/>
	<path class="st24" d="M114.55,54.3c-3.07,1.3-6.28,0.45-9.42,0.58C108.2,53.59,111.4,54.45,114.55,54.3z"/>
	<path class="st31" d="M92.16,51.45c2.67,0.1,5.4-0.64,7.99,0.55C97.48,51.91,94.75,52.65,92.16,51.45z"/>
	<path class="st40" d="M36.05,52.86c2.4-0.03,4.79-0.05,7.19-0.08C40.85,53.98,38.46,53.87,36.05,52.86z"/>
	<path class="st40" d="M29.44,52.25c0.69-1.07,1.45-1.16,2.29-0.17c-1.48,1.22,1.81,1.09,0.63,2.22
		C31,54.17,30.14,53.33,29.44,52.25z"/>
	<path class="st40" d="M43.22,52.79c0.02-0.22,0.04-0.44,0.07-0.65c1.63-0.3,3.26-0.6,4.9-0.91C46.84,52.74,45.07,52.89,43.22,52.79
		z"/>
	<path class="st47" d="M167.76,39.15c0.92,0.02,1.22,0.69,1.48,1.41c0.15,1.06-2.26,0.74-1.22,2.27c-0.55,1.14-1.45,2.07-1.94,3.25
		c-2.68,2.5-5.09,5.39-8.9,6.28c-0.52-0.16-0.87-0.5-1.08-0.99c1.58-3.19-1.41-1.13-2.04-1.76c-0.99-0.16-1.98-0.34-2.96-0.58
		c-1.44-0.53-3.23-0.23-4.28-1.74c-0.33-0.76-0.08-1.45,0.25-2.13c0.51-0.83,1.2-1.39,2.2-1.49c3.38,0.2,6.76,0.59,10.18,0.08
		c-1.47-1.03-3.17-0.68-4.79-0.81c-1.59-0.13-3.38,0.34-4.52-1.33c-0.19-0.5-0.2-1.01-0.05-1.52c0.68-1.35,1.83-1.32,3.1-1.09
		c-0.36-0.56-1.09-0.66-1.54-1.14c-0.71-0.76-1.21-1.63-0.65-2.57c0.66-1.11,1.71-0.55,2.56-0.2c1.82,0.75,3.31,2.21,5,2.57
		c-0.96-0.69-2.78-0.61-3.15-2.54c1.48-1.84,2.58-0.11,3.82,0.4c2.25,0.93,3.32,3.97,6.33,3.56C166.31,38.46,167,39.7,167.76,39.15z
		"/>
	<path class="st48" d="M116.7,21.14c0.81,2.33,2.9,1.88,4.66,2.14c2.04,0.3,4.22-0.61,6.16,0.66c-0.84,1.13-2.21,0.89-3.32,1.32
		c-1.06,0.25-2.35,0.01-2.91,1.37c-2.45,0.42-4.61-0.72-6.9-1.21c-4.37-0.61-8.74-0.87-13.14-0.36c-2.11-1.03-2.86-2.34-0.86-4.22
		c1.03-0.62,2.15-1.06,3.13-1.78c1.93-0.92,3.53-2.76,6-2.22c1.47,1.95,3.24,1.82,5.15,0.76c0.67,0.25,1.39,0.38,1.94,0.89
		c0.44,0.41,0.93,0.88,0.83,1.5c-0.17,0.99-1.06,0.72-1.73,0.78c-1.55,0.14-3.08-0.17-4.55-0.23
		C112.92,21.02,114.88,20.41,116.7,21.14z"/>
	<path class="st49" d="M121.75,26.07c-0.67-2.45,1.33-0.86,1.98-1.31c8.15,0.23,15.95,1.88,23.21,5.72
		c0.93-0.01,1.39-0.49,1.41-1.41c2.43,0.3,2.7,2.2,3.04,4.06c-1.02,2.18,0.33,4.62-0.73,6.8c-0.07,0.44-0.13,0.89-0.2,1.33
		c-0.32,1.02-0.22,2.26-1.45,2.82c-0.52,0.46-1.04,0.93-1.56,1.39c-1.41,0.09-1.95-0.86-2.35-1.97c-0.02-1.03,0.68-1.72,1.17-2.51
		c0.4-0.66,0.52-1.4,0.56-2.16c-0.08-1.41,1.04-2.79,0.05-4.19c-1.31-1.29-3.14-1.44-4.71-2.16c-2.36-0.6-4.54-1.86-7.07-1.75
		C130.58,29.34,125.82,28.7,121.75,26.07z"/>
	<path class="st50" d="M103.81,19.72c-0.83,0.8-1.83,1.26-2.96,1.46c-5.62,0.95-11.29,1.03-16.95,0.77
		c-2.8-0.13-3.05-1.46-1.14-3.95c3.14-2.7,7.07-2.84,10.9-3.34l-0.01,0c4.61-0.81,9.26-0.14,13.89-0.37
		c1.42-0.07,2.86,0.27,4.25-0.27c0.45,0.08,1.11-0.01,1.31,0.26c0.39,0.5-0.25,0.76-0.6,0.94c-0.72,0.36-1.48,0.63-2.23,0.93
		c-6.02,0.41-12.08,0.2-17.03,1.42c1.84,0.01,4.78-0.76,7.61,0.17C101.99,18.11,103.63,17.87,103.81,19.72z"/>
	<path class="st51" d="M146.94,30.47c-6.03-1.1-11.67-3.66-17.73-4.71c-1.81-0.31-3.85,0.32-5.48-1.01
		c1.05-1.24,2.53-0.52,3.79-0.82c4.26,0.48,8.54,0.55,12.78,1.52C143.41,26.17,145.8,27.36,146.94,30.47z"/>
	<path class="st52" d="M116.68,16.78c3.26-2.16,6.45-2.38,9.88-0.14c2.34,1.53,5,2.58,7.39,4.46c-2.66,0-5.32,0-7.98,0
		C122.3,20.89,119.47,18.88,116.68,16.78z"/>
	<path class="st53" d="M103.81,19.72c-4.12-2.04-8.58-1.34-12.95-1.86c6.33-2.11,12.71-3.6,19.42-1.71
		c-0.25,0.23-0.51,0.45-0.76,0.68C107.61,17.79,105.71,18.76,103.81,19.72z"/>
	<path class="st54" d="M116.68,16.78c3.67,0.22,5.84,3.65,9.29,4.32c-3.09,0.01-6.18,0.02-9.27,0.04c-2.15,0-4.3,0-6.46,0
		c-0.03-0.31-0.06-0.63-0.08-0.94c2.1-0.94,4.54,1.1,6.68-0.09c-0.06-1.4-2.09-1.15-2.17-2.52
		C115.34,17.32,116.01,17.05,116.68,16.78z"/>
	<path class="st55" d="M150.6,32.63c-0.16-1.56-1.39-2.45-2.25-3.57c-0.2-0.83-0.55-2.03,0.95-1.04c3.46,2.28,7.38,3.97,9.92,7.48
		c-1.21,0.26-2.41-1.51-3.62-0.01C153.29,35.65,151.67,34.62,150.6,32.63z"/>
	<path class="st56" d="M93.66,14.66c-3.3,1.31-6.93,1.72-9.98,3.69c-1.2,0.17-1.75-0.3-1.55-1.54c2.52-1.35,4.93-2.99,7.96-2.93
		C91.05,15.21,92.49,14.31,93.66,14.66z"/>
	<path class="st56" d="M111.79,14.02c-6.01,1.26-12.1,0.2-18.14,0.64c2.49-1.61,5.26-0.61,7.89-0.74
		C104.95,13.76,108.37,13.97,111.79,14.02z"/>
	<path class="st56" d="M95.06,12.45c4.12,0.01,8.25,0.01,12.37,0.02c-4.63,1.57-9.38,0.53-14.08,0.66
		C93.92,12.9,94.49,12.68,95.06,12.45z"/>
	<path class="st57" d="M167.76,39.15c-0.79,1.2-1.48,0.13-2.21-0.09c-1.06-1.18-2.12-2.37-3.18-3.55c0.41,0.03,0.83,0.07,1.24,0.1
		C165,36.8,166.38,37.97,167.76,39.15z"/>
	<path class="st58" d="M82.13,16.8c0.27,0.76,0.85,1.21,1.55,1.54c-0.36,0.9-1.71,0.93-1.86,2.58c6.33,1.11,12.76-1.19,19.03,0.26
		c-1.69,1.17-0.56,2.33,0.01,3.49c-0.63,2.99-3.71,2.69-5.51,4.11c-1.29,0.25-2.36,1.48-3.84,0.88c-1.33-3.68,3.23-3.42,3.97-6.04
		c-3.53-0.71-7.04-0.2-10.52-0.31c-1.12,1.02-2.31,0.64-3.5,0.18c-0.61-0.28-1.17-0.64-1.76-0.94c-1.35-0.94-2.66,1.17-4,0.05
		c-1.13-0.79-2.77,0.48-3.74-0.93C75.26,19.87,78.28,17.46,82.13,16.8z"/>
	<path class="st59" d="M40.92,55.64c2.12-1.05,4.44-0.52,6.65-0.83c3.87,0.44,7.44,2.1,11.26,2.76c2.18,0.06,4.09,1.04,6.08,1.75
		c0.72,0.25,1.43,0.5,2.15,0.74c3.78,2.27,8.22,2.19,12.29,3.44c-0.73,0.67-1.5,0.55-2.28,0.13c-3.59-0.25-7.17-0.51-10.76-0.76
		c-4.78-0.99-9.56-1.99-14.34-2.98C48.27,58.47,44.59,57.06,40.92,55.64z"/>
	<path class="st60" d="M77.05,63.63c0.76-0.04,1.52-0.08,2.28-0.13c10.88,0.13,21.82,1.18,32.46-2.23c2-0.4,3.57,0.23,4.68,1.95
		c-0.64,0.16-1.27,0.33-1.91,0.49c-11.23,1.05-22.48,0.5-33.73,0.53C79.57,64.24,78.19,64.62,77.05,63.63z"/>
	<path class="st61" d="M113.7,60.03c3.07-2.48,5.44-0.4,7.88,1.2c-0.94,0.31-2.15-0.11-2.75,1.07
		C116.53,62.89,114.7,62.39,113.7,60.03z"/>
	<path class="st62" d="M113.7,60.03c1.49,1.25,3.2,2.01,5.13,2.27c0.33,0.3,0.66,0.61,0.99,0.91c-0.3,0.12-0.6,0.35-0.89,0.33
		c-0.82-0.05-1.64-0.21-2.46-0.33c-1.56-0.65-3.12-1.3-4.68-1.95C112.1,60.36,112.81,60.05,113.7,60.03z"/>
	<path class="st63" d="M167.81,42.65c-0.91-1.65,0.76-1.53,1.44-2.09c1.55,0.38,1.4,3.17,3.64,2.56c0.25,1.47,0.45,2.95,1.84,3.89
		c1.09,0.63,1.68,1.55,1.63,2.84c-0.43,2.93-2.63,3.98-5.07,4.82c-5.12,1.76-10.69,2.3-15.22,5.65c-1.11,0.59-2.43,0.53-3.55,1.11
		c-3.86,2.44-8.3,2.28-12.58,2.81c0.39-1.22,1.39-1.46,2.48-1.56c4.4-3.52,9.98-4.22,15.02-6.21c0.54-0.21,1.14-0.26,1.65-0.56
		c0.45-0.17-0.25-0.67,0.01-0.27c0.09,0.15,0.04,0.23-0.15,0.32c-5.38,2.56-10.92,2.04-16.5,0.85c-1.53-1.24-3.04-2.44-5.19-2.48
		c-0.82-0.01-1.96-0.13-1.85-1.51c1.66,0,3.32,0,5.07,0c-0.39-1.13-2.32-0.49-2.05-2.06c0.73-0.98,1.85-1.17,2.87-1.01
		c4.27,0.69,8.42-0.68,12.65-0.6c1.56-0.15,3.12-0.3,4.74-0.46c-0.22,1.56-1.71,1.67-2.37,2.58c-0.66,1.8-2.43,1.99-3.8,2.65
		c1.66-0.11,2.74-1.88,4.55-1.81c3.25-1.73,5.92-4.22,8.67-6.6C166.4,44.54,168.09,44.31,167.81,42.65z"/>
	<path class="st64" d="M175.79,49.86c-0.35-0.95-0.71-1.9-1.06-2.86c2.24-0.19,4.45,0.42,4.76,2.75c0.39,2.95-0.78,5.69-3.61,7.22
		c-2.97,1.59-6.25,2.37-9.54,2.95c-4.57,0.81-9.13,1.82-13.83,1.51c0.74-0.75,1.59-1.29,2.66-1.44c5.33-3.05,11.64-3.12,17.16-5.61
		C174.35,53.46,176.27,52.62,175.79,49.86z"/>
	<path class="st65" d="M142.6,56.38c2.74,0.53,5.47-0.04,8.38,0.86c2.26,0.7,5.44-1.69,8.4-2.03c0.44-0.05,0.87-0.08,1.37,0.1
		c-5.76,3.4-12.22,4.98-18.35,7.37c-0.64-0.15-1.27-0.3-1.91-0.45c-0.49-0.72-0.98-1.44-1.47-2.15c2.34-2.27,5.37-1.84,8.1-2.24
		c-1.79-0.16-3.68,0.46-5.59,0.28c-1.43-0.11-2.98,0.23-4.09-1.07C138.86,54.53,140.74,55.52,142.6,56.38z"/>
	<path class="st66" d="M58.46,58.44c-3.69-1.05-7.62-1.34-10.9-3.63c2.35-0.9,4.71-1.79,7.06-2.69c2.7,0.95,5.64,1.48,7.28,4.25
		C61.23,57.85,59.47,57.52,58.46,58.44z"/>
	<path class="st67" d="M85.04,55.85c3.58-0.03,6.99,0.86,10.43,1.97c-5.8,1.88-11.65,2.95-17.73,1.4
		C79.23,56.06,82.6,56.97,85.04,55.85z"/>
	<path class="st68" d="M85.04,55.85c-2.03,1.98-5.15,1.62-7.29,3.37c-1.4,0.24-2.2-0.73-2.95-1.6c-1.19-1.38-0.69-2.13,1.05-2.09
		C78.91,55.61,81.97,55.74,85.04,55.85z"/>
	<path class="st69" d="M58.46,58.44c0.38-1.97,2.27-1.43,3.44-2.07c1,0.98,1.99,1.97,2.99,2.95C62.75,59.03,60.61,58.74,58.46,58.44
		z"/>
	<path class="st70" d="M67.97,56.21c0.4-0.24,0.81-0.49,1.21-0.73c1.42,0.42,3.98-0.7,3.38,2.74
		C70.96,57.51,69.46,56.86,67.97,56.21z"/>
	<path class="st71" d="M115.1,33.96c-1.14,0.55-2.27,1.09-3.41,1.64c-3.28,1.29-6.58,1.12-9.9,0.05c-0.47,0.05,0.02,0.72-0.07,0.25
		c-0.04-0.2,0.08-0.32,0.27-0.22c1.72,0.92,4.3,0.14,5.22,2.64c-2.79,1.29-5.36,0.77-7.52-1.24c-2.42-2.26-6.11-2.4-8.19-5.14
		c0.99-2.86,3.82-2.66,5.96-3.62c3.52-0.8,6.86-2.55,10.64-1.99c1.05,0.49,1.35,1.32,1.1,2.4c-0.29,0.74-0.92,1.13-1.57,1.49
		c-1.47,0.79-3.02,1.39-4.72,1.79c3.64,1.35,3.64,1.35,7.73-0.9c1.58-0.14,3.12,0.01,4.48,0.86C116.06,32.55,116.6,33.3,115.1,33.96
		z"/>
	<path class="st72" d="M136.86,47.87c-9.19-0.01-18.01-1.94-26.55-5.26c-0.74-0.29-1.81-0.36-1.93-1.34
		c-0.12-1.02,0.89-1.36,1.63-1.65c2.13-0.83,3.4-3.09,5.81-3.43c1.14-0.69,2.23-0.94,3.16,0.32c0.02,0.68-0.34,1.02-1.15,1.11
		c2.19,0.13,4.35-0.75,6.23,0.72c0.27,0.53,0.27,1.06,0,1.59c-2.36,1.61-5.08,0.51-7.35,0.92c3.85,0.97,8.1,0.8,12.13,2.05
		c2.06,1.19,4.04,2.51,6.54,2.69c0.97,0.07,1.86,0.53,1.77,1.8C137.05,47.54,136.95,47.71,136.86,47.87z"/>
	<path class="st73" d="M142.6,56.38c-1.66,0.28-3.45-0.51-5.02,0.58c-3.85,3.36-8.11,2.03-12.33,1.08
		c-1.75-0.17-4.41,1.85-5.04-0.45c-0.63-2.28,2.81-1.58,4.07-2.8c1.06-1.03,2.91,0.11,3.86-1.33c-0.19-0.19-0.23-0.35-0.12-0.46
		c0.09-0.1,0.18-0.15,0.28-0.15c2.37-0.01,4.74-0.02,7.11-0.04c0.56,0.78,1.42,0.86,2.22,0.71
		C140.12,53.06,141.57,54.31,142.6,56.38z"/>
	<path class="st74" d="M153.93,49.14c-4.98,2.42-10.3,1.5-15.52,1.6c-1.62-0.32-4,1.48-4.57-1.83c0.68-1,2.3,0.12,3.02-1.04
		c0,0-0.05-0.17-0.05-0.17c1.69-1.66,3.94-2.36,5.94-3.49c0.88-0.35,1.62-1.24,2.73-0.78c0.66,0.68,1.31,1.35,1.97,2.03
		c-0.22,0.5-0.44,1-0.66,1.49c0.84,2.38,3.17,0.4,4.45,1.51C152.12,48.75,153.22,48.18,153.93,49.14z"/>
	<path class="st75" d="M107.28,29.72c0.32-0.58,0.88-0.67,1.47-0.69c6.15-2.88,11.26-2.12,16.01,2.38c0.78,0.74,1.61,1.45,1.42,2.7
		c-0.81,0.85-1.91,1.03-2.92,0.79c-2.44-0.59-4.85-0.08-7.28-0.06c-0.29-0.29-0.59-0.58-0.88-0.87c-0.82-2.62-3.07-1.81-4.89-2.05
		C109.27,31.12,106.92,32.23,107.28,29.72z"/>
	<path class="st76" d="M97.25,29.06c-1.86,1.07-4.18,1.22-5.76,2.87c-1.6-1.63-2.71,0.23-4.03,0.57c-1.7,0.44-2.81,2.12-4.65,2.29
		c-2.16-1.44-4.57-0.5-6.86-0.69c-1.86-0.16-3.76,0.1-5.44-1.12c2.03-1.22,4.88,0.97,6.46-1.68c4.88-0.24,9.87,0.6,14.52-1.63
		c1.14-0.57,2.11-1.6,3.56-1.35C96,27.98,96.7,28.29,97.25,29.06z"/>
	<path class="st77" d="M115.98,34.83c1.71-1.68,3.68-1.67,5.87-1.11c1.34,0.34,2.79,0.25,4.18,0.35c1.09,0.62,1.5,1.41,0.58,2.5
		c-2.56,0.89-5.15,1.12-7.78,0.36c-0.81-1.05-2-0.55-3.01-0.75C115.87,35.73,115.93,35.28,115.98,34.83z"/>
	<path class="st78" d="M107.2,38.32c-2.17-1.04-4.7-1.37-7.2-3.87c4.39,1.44,8.06,0.93,11.69,1.14
		C110.15,36.43,109.25,38.32,107.2,38.32z"/>
	<path class="st5" d="M128.29,52.84c-0.06,0.2-0.11,0.41-0.15,0.61c-2.37,0.01-4.75,0.03-7.12,0.04
		C123.33,52.1,125.86,53.09,128.29,52.84z"/>
	<path class="st79" d="M125.25,58.04c4.1-0.49,8.29,0.12,12.33-1.07c1.42,0.11,2.83,0.22,4.24,0.33c-0.79,3.03-3.82,1.92-5.63,3.06
		c-2.41-0.12-4.83,0.3-7.22-0.25C127.8,59.29,125.53,60.46,125.25,58.04z"/>
	<path class="st80" d="M136.84,59.93c1.42-1.33,3.82-0.82,4.98-2.64c2.19-0.12,4.38-0.24,6.57-0.35c-2.84,2.3-6.23,2.29-9.38,3.14
		c-0.27,0.03-0.53,0.06-0.8,0.1C137.71,60.37,137.23,60.45,136.84,59.93z"/>
	<path class="st65" d="M136.84,59.93c0.46,0.08,0.92,0.16,1.37,0.24c-3.09,0.89-6.17,0.97-9.25-0.07
		C131.59,60.05,134.22,59.99,136.84,59.93z"/>
	<path class="st81" d="M38.22,51.98c-1.79,0.28-3.48-0.07-5.08-0.88c-1.29-2.62,0.3-3.76,2.42-4.43c2.26-0.71,4.59-1.21,6.89-1.81
		c-0.38,1.96,1.25,2.59,2.35,3.57c-2.89-0.2-5.52,0.96-8.26,1.55C36.31,51.4,37.85,51.18,38.22,51.98z"/>
	<path class="st82" d="M81.34,22.63c1.15,0.56,2.36,0.77,3.63,0.68c1.78,1.44,3.96,0.15,5.85,0.88c-2.93,4.24-9.09,5.88-15.95,3.5
		C76.6,25.47,78.73,23.75,81.34,22.63z"/>
	<path class="st83" d="M81.34,22.63c-1.8,2.14-3.9,3.9-6.47,5.06c-0.48-0.26-0.97-0.52-1.45-0.78c1.28-2.86,3.78-4.13,6.55-5.07
		C80.42,22.11,80.88,22.37,81.34,22.63z"/>
	<path class="st84" d="M79.96,21.85c-2.18,1.69-4.36,3.38-6.55,5.07c-1.21-0.75-1.87-1.51-0.13-2.44c0.9-0.49,1.94-0.82,2.41-1.87
		C77.22,22.92,78.16,19.94,79.96,21.85z"/>
	<path class="st85" d="M149.01,44.07c0.18-1.1,0.69-2.02,1.45-2.82c2.07,1.37,4.4,0.57,6.61,0.71c1.58,0.1,3.03,0.45,4.51,0.98
		C159.8,45.48,154.2,45.95,149.01,44.07z"/>
	<path class="st86" d="M150.6,32.63c1.67,0.95,3.33,1.91,5,2.86c1.76,0.94,3.51,1.89,5.27,2.83c-3.54,0.21-6.13-2.27-9.45-3.11
		c-0.37,3.03,3.08,2.38,3.69,4.23c-1.42,1.1-3.07-0.54-4.45,0.48C150.64,37.5,150.62,35.06,150.6,32.63z"/>
	<path class="st87" d="M157.05,52.1c-1.86,1.12-3.45,2.85-6.65,2.56c2.31-1.33,4.1-2.36,5.9-3.39
		C156.76,51.36,157.06,51.59,157.05,52.1z"/>
	<path class="st88" d="M167.81,42.65c1.17,0.36,2.34,0.81,0.57,1.93c-0.77,0.49-1.76,0.62-2.65,0.92
		C165.83,44.12,166.62,43.24,167.81,42.65z"/>
	<path class="st89" d="M151.23,48.47c-1.5,0.03-3.01,0.1-4.51,0.05c-0.51-0.02-1.62,0.46-1.34-0.77c0.08-0.35,0.92-0.53,1.41-0.78
		C148.04,48.14,150.01,47.21,151.23,48.47z"/>
	<path class="st90" d="M126.77,36.26c-0.24-0.73-0.49-1.46-0.73-2.18c-3.73-4-7.68-7.32-13.78-5.19c-1.06,0.37-2.34,0.11-3.51,0.15
		c0.01-0.8,0.12-1.64-0.72-2.16c1.52-2.67,4.2-1.83,6.5-2.15c2.41,0.45,4.81,0.9,7.22,1.35c4.54,1.24,9.07,2.48,13.61,3.72
		c0.24,1.59,0.79,2.68,2.76,2.11c1.47-0.43,3.01-0.58,4.52-0.05c1.75,0.58,3.6,0.94,5.04,2.22c0.93,2.18-1.62,2.5-2.11,3.97
		c0.56,0.58,1.59,0.34,2.04,1.12c0.05,0.79,0.01,1.56-0.69,2.12c-2.75,1.69-5.8,1.18-8.73,0.96c-2.96-0.22-5.93-0.51-8.89-0.85
		c-1.8-0.59-3.91-0.11-5.46-1.58c0-0.45,0-0.91,0-1.36c1.24-1.35,2.87-0.76,4.42-0.84C127.64,37.24,126.94,37.04,126.77,36.26z"/>
	<path class="st91" d="M114.53,24.72c-2.17,0.72-4.33,1.43-6.5,2.15c-3.59,0.73-7.18,1.46-10.77,2.19c-0.73-0.25-1.46-0.5-2.19-0.75
		c1.61-1.72,4.24-1.81,5.79-3.64C105.42,22.73,109.98,23.88,114.53,24.72z"/>
	<path class="st92" d="M128.92,40.56c6.02-0.13,11.98,1.15,18,0.72c-0.48,0.72-0.97,1.44-1.45,2.16c-0.72,0.48-1.44,0.96-2.16,1.44
		c-4.28,0.54-8.49-0.06-12.69-0.86C129.52,43.13,128,42.45,128.92,40.56z"/>
	<path class="st93" d="M142.64,31.86c-1.91,0.02-3.67,0.68-5.44,1.29c-1.23,0.42-2.01-0.29-2.71-1.13
		c-1.02-1.23,0.54-1.49,0.87-2.22C138.08,29.44,140.19,31.26,142.64,31.86z"/>
	<path class="st94" d="M147.62,39.17c-1.24-0.06-2.47-0.13-3.77-0.2c0.54-2.4,3.35-2.72,3.83-4.9
		C149.33,35.8,147.32,37.47,147.62,39.17z"/>
	<path class="st95" d="M175.79,49.86c2.78,2.37-0.1,3.55-1.3,4.34c-1.94,1.28-4.27,2.07-6.55,2.7c-4.22,1.17-8.51,2.07-12.77,3.08
		c4.28-3.67,9.76-4.28,14.87-5.85C172.44,53.38,174.97,52.76,175.79,49.86z"/>
	<path class="st96" d="M172.73,49.18c0,1.86-1.64,1.88-2.74,2.16c-3.42,0.85-6.89,1.49-11.26,2.4c2.55-2.98,4.56-5.14,7.63-6
		C168.71,47.22,170.88,47.5,172.73,49.18z"/>
	<path class="st97" d="M172.73,49.18c-2.13-0.48-4.25-0.96-6.38-1.44C169.03,45.8,171.38,45.26,172.73,49.18z"/>
	<path class="st98" d="M107.28,29.72c0.4,1.51,2.16,1.18,2.93,2.19c-0.49,3.23-2.87,2.36-4.66,1.85c-1.59-0.45-3.38,0.1-5.06-1.18
		C102.37,30.49,105.04,30.58,107.28,29.72z"/>
	<path class="st99" d="M128.92,40.56c-0.1,1.25,0.99,1.88,1.46,2.83c-0.45,0.51-0.95,0.44-1.46,0.11
		c-5.18-0.64-10.43-0.92-15.42-2.62c-0.01-0.36-0.02-0.72-0.03-1.08c3.46,0,6.92,0,10.38,0C125.53,40.17,127.4,39.21,128.92,40.56z"
		/>
	<path class="st100" d="M128.92,43.5c0.49-0.04,0.97-0.08,1.46-0.11c4.34,0.22,8.7,0.31,12.93,1.49c-2.12,1.06-4.1,2.42-6.51,2.82
		c-0.11-1.34-1.08-1.43-2.08-1.36C132.23,46.53,130.44,45.32,128.92,43.5z"/>
	<path class="st101" d="M126.77,36.26c1.05,0.37,2.1,0.73,3.43,1.2c-2.16,1.61-4.36,0.63-6.34,0.99c-1.72-0.02-3.49,0.2-5.14-0.12
		c-1.67-0.33-0.41-0.95,0.12-1.39C121.42,35.99,124.11,36.29,126.77,36.26z"/>
	<path class="st102" d="M145.31,33.99c-1.19,2.37-2.9,3.09-4.35,4.06c-1.14,0.76-2.3,0.55-2.92-0.87c-0.82-1.89,0.8-1.52,1.69-1.76
		C141.41,34.95,143.11,34.54,145.31,33.99z"/>
	<path class="st103" d="M132.17,33.46c-3.89-0.55-5.48-3.13-8.28-4.63C128.68,27.08,129.39,31.09,132.17,33.46z"/>
</g>
</svg>
