<?xml version="1.0" encoding="utf-8"?>
<!-- Generator: Adobe Illustrator 23.0.2, SVG Export Plug-In . SVG Version: 6.00 Build 0)  -->
<svg version="1.1" id="Camada_1" xmlns="http://www.w3.org/2000/svg" xmlns:xlink="http://www.w3.org/1999/xlink" x="0px" y="0px"
	 viewBox="0 0 38.17 39.68" style="enable-background:new 0 0 38.17 39.68;" xml:space="preserve">
<style type="text/css">
	.st0{fill:#FEFEFE;}
	.st1{fill:#454B26;}
	.st2{fill:#3B411F;}
	.st3{fill:#F7F6F5;}
	.st4{fill:#B1C89E;}
	.st5{fill:#744D11;}
	.st6{fill:#754A12;}
	.st7{fill:#7D5620;}
	.st8{fill:#7D551F;}
	.st9{fill:#7C5219;}
	.st10{fill:#7E5621;}
	.st11{fill:#764C16;}
	.st12{fill:#744C10;}
	.st13{fill:#784E14;}
	.st14{fill:#825B29;}
	.st15{fill:#8F6939;}
	.st16{fill:#724A12;}
	.st17{fill:#7B511E;}
	.st18{fill:#876032;}
	.st19{fill:#7D571B;}
	.st20{fill:#F8F7F6;}
	.st21{fill:#F2EEEA;}
	.st22{fill:#916226;}
	.st23{fill:#AFC6A4;}
	.st24{fill:#BFD0BC;}
	.st25{fill:#F6F5F3;}
	.st26{fill:#F6F4F2;}
	.st27{fill:#F3EEEB;}
	.st28{fill:#F5F2EF;}
	.st29{fill:#EDE6E0;}
	.st30{fill:#C88751;}
	.st31{fill:#CA874F;}
	.st32{fill:#CB8850;}
	.st33{fill:#C78650;}
	.st34{fill:#C3844D;}
	.st35{fill:#B3C8AB;}
	.st36{fill:#CD8A54;}
	.st37{fill:#CE8A53;}
</style>
<g>
	<path class="st0" d="M36.41,9.92c0.39,4.27,0.49,8.56,1.29,12.77c0.42,2.19,0.59,4.35,0.38,6.54c-0.14,1.47-0.52,2.91-1.14,4.24
		c-0.91,1.94-2.42,3.09-4.58,3.66c-5.81,1.51-11.64,2.87-17.7,2.49c-3.53-0.22-6.98-0.85-10.03-2.82c-3.11-2-4.59-4.93-4.63-8.56
		c-0.05-4.01,1.18-7.8,2.33-11.58C3.67,12.27,5.54,8.06,6.9,3.68c0.52-1.67,1.85-2.47,3.59-2.44c5.48,0.11,10.95-0.05,16.41-0.54
		c2.02-0.18,4.06-0.17,6.07-0.64c1.73-0.4,3.36,1.17,3.42,3.26C36.46,5.52,36.41,7.72,36.41,9.92z"/>
	<path d="M17.1,2.42c5.11-0.06,9.69-0.54,14.27-0.84c0.4-0.03,0.8-0.08,1.18-0.18c1.58-0.42,2.57,0.25,2.65,1.9
		c0.18,3.91,0.3,7.82,0.49,11.73c0.15,3.06,0.6,6.09,1.09,9.12c0.55,3.4,0.41,6.84-1.59,9.89c-0.61,0.94-1.5,1.44-2.59,1.77
		c-4.09,1.24-8.27,2.16-12.5,2.53c-4.71,0.42-9.43,0.22-13.8-1.95c-3.43-1.71-5.16-4.57-5.08-8.38c0.1-4.54,1.47-8.85,2.95-13.09
		c1.2-3.45,2.57-6.83,3.67-10.32c0.53-1.69,1.24-2.19,2.96-2.18C13.06,2.43,15.34,2.42,17.1,2.42z"/>
	<path class="st1" d="M32.8,2.68c0.87-0.29,1.16,0.13,1.19,0.93c0.15,3.7,0.33,7.41,0.46,11.11c0.1,2.71,0.46,5.39,0.83,8.07
		c0.2,1.4,0.71,2.85,0.52,4.2c-0.3,2.12-0.16,4.39-1.5,6.28c-0.49,0.69-1.05,1.13-1.87,1.38c-5.87,1.77-11.83,2.91-17.99,2.54
		c-2.96-0.18-5.79-0.83-8.45-2.28c-2.83-1.54-3.97-5.92-3.56-8.66C3.41,19.63,6.03,13.54,8.18,7.3c0.4-1.16,0.64-2.4,1.35-3.44
		c0.4-0.23,0.62-0.02,0.79,0.31c-0.75,3.03-1.8,5.95-2.89,8.87c-1.45,3.9-2.86,7.81-3.46,11.95c-0.19,1.3-0.28,2.61-0.25,3.93
		c0.08,3.17,2.03,4.83,4.7,5.84c3.18,1.21,6.49,1.4,9.89,1.21c4.38-0.25,8.63-1.1,12.82-2.3c2.55-0.73,3.14-1.61,3.2-4.28
		c0.07-2.4-0.06-4.78-0.45-7.15c-0.02-0.5-0.15-0.98-0.22-1.47c-0.64-4.86-0.68-9.76-0.78-14.65c-0.02-0.76,0.04-1.51-0.11-2.26
		C32.65,3.47,32.8,3.07,32.8,2.68z"/>
	<path class="st2" d="M32.8,2.68c0.34,0.23,0.34,0.45-0.01,0.66c-0.45,0.5-1.08,0.51-1.66,0.55c-3.46,0.23-6.9,0.67-10.37,0.56
		c-2.98-0.05-5.96-0.01-8.93-0.01c-0.53,0.02-1.07,0.07-1.53-0.31c-0.25-0.09-0.51-0.18-0.76-0.27c0.35-0.41,0.82-0.23,1.24-0.23
		c2.51-0.02,5.02,0.05,7.53-0.04c4.4-0.15,8.8-0.45,13.19-0.9C31.93,2.65,32.37,2.68,32.8,2.68z"/>
	<path class="st3" d="M20.87,4.12c3.99-0.06,7.95-0.41,11.92-0.78c0.64,0.1,0.39,0.6,0.4,0.94c0.15,4.51,0.19,9.02,0.55,13.52
		c0.08,1.03,0.18,2.07,0.27,3.1c-0.86,0.43-1.29,1.15-1.73,2.01c-0.57,1.11-1.78,1.77-2.61,2.73c-0.25,0.3-0.64,0.49-0.89,0.8
		c-0.41,0.51-0.88,0.62-1.48,0.36c-1.15-0.5-2.28-0.3-3.36,0.2c-0.73,0.34-1.37,0.33-2.01-0.16c-0.13-0.1,0.04-0.05-0.1-0.05
		c-2.34-0.07-4.11-2.14-6.55-1.83c-0.41,0.05-0.78-0.15-1.12-0.36c-1.03-0.62-2.12-1.1-3.33-1.29c-0.5-0.08-0.89-0.34-1.18-0.75
		c-0.27-0.4-0.6-0.73-1-1.02c-1.16-0.82-1.34-1.37-0.96-2.76c0.32-1.15,0.85-2.24,1.03-3.43c0.22-1.06,0.72-2.01,1.1-3.01
		c0.29-0.78,0.8-1.16,1.5-1.04c-0.29-0.01-0.76-0.05-0.74-0.63c0.03-0.65,0.22-1.27,0.94-1.51c0.42-0.14,0.86-0.1,1.3-0.11
		c0.08,0,0.16,0.01,0.24,0.01c-0.03-0.02-0.05-0.03-0.09-0.05c-1.29-0.29-1.34-0.38-0.81-1.55c0.43-0.94,0.98-1.81,1.48-2.7
		c0.16-0.28,0.34-0.54,0.72-0.54C16.54,4.16,18.71,4.34,20.87,4.12z"/>
	<path class="st4" d="M14.09,4.38c-0.7,1.37-1.39,2.74-2.09,4.11c0.42,0.35,1-0.04,1.34,0.4c-0.49,0.39-1.06,0.27-1.59,0.21
		c-0.57-0.06-0.87,0.14-1.07,0.68c-0.59,1.64-1.16,3.28-1.89,4.86c-0.12,0.26-0.37,0.61,0.2,0.7c-0.07,1.26-0.66,2.37-1.02,3.54
		c-0.33,1.09-0.27,1.97,0.93,2.46c0.07,0.03,0.18,0.05,0.21,0.11c1.19,2.21,3.95,1.61,5.54,3.09c0.27,0.25,0.67,0.18,1.04,0.11
		c0.35-0.07,0.82-0.22,1.04-0.06c1.71,1.24,3.9,1.2,5.67,2.2c0.45,0.26,0.72,0.29,1.16,0.06c1.29-0.68,2.63-0.89,4.02-0.26
		c0.23,0.1,0.41,0.26,0.73-0.02c1.22-1.06,2.11-2.47,3.54-3.31c0.35-0.2,0.23-0.66,0.33-0.99c0.28-0.93,0.8-1.45,1.82-1.36
		c0.22,0.37,0.22,0.78,0.21,1.19c-1.46,1.93-3.42,3.33-5.21,4.89c-0.28,0.24-0.44,0.55-0.65,0.84c-0.09,0.09-0.19,0.14-0.31,0.17
		c-1.56-0.71-3.05-0.79-4.5,0.32c-0.48,0.37-0.99,0.15-1.41-0.23c-0.76-0.67-1.62-1-2.64-0.8c-0.58,0.11-1.01-0.19-1.37-0.57
		c-0.64-0.69-1.41-1-2.35-0.94c-0.74,0.05-1.4-0.16-2.04-0.55c-0.86-0.52-1.78-0.9-2.82-0.89c-0.74,0-1.3-0.31-1.71-0.92
		c-0.32-0.48-0.72-0.86-1.36-0.85c-0.28,0.01-0.55-0.08-0.83-0.04c-0.57,0.07-0.83,0.33-0.38,0.84c0.76,0.87,0.46,1.28-0.52,1.67
		c-0.81,0.32-0.75,0.93,0.02,1.39c0.55,0.33,1.23,0.31,1.77,0.68c0.78,1.46,1.29,3.07,2.34,4.38c0.72,1.09,1.72,1.66,3.02,1.87
		c1.92,0.31,3.84,0.46,5.78,0.45c1.21,0.34,2.4,0.34,3.53-0.3c0.53,0.04,1.06-0.04,1.58,0.04c0.57,0.41,1.06,0.59,1.28-0.35
		c0.11-0.48,0.52-0.54,0.92-0.57c0.47-0.04,0.95,0,1.4-0.18c1.8-0.63,3.41-1.66,5.14-2.44c0.56-0.26,1.09-0.67,1.78-0.47
		c0.1,1.21-0.4,2.26-0.91,3.3c-0.21,0.44-0.59,0.63-1.02,0.76c-5.14,1.55-10.36,2.7-15.74,2.82c-2.84,0.07-5.67-0.16-8.37-1.18
		c-0.48-0.18-0.96-0.4-1.42-0.63c-2.87-1.42-4.06-3.72-3.85-6.91c0.27-4.11,1.36-8.02,2.73-11.86c1.27-3.57,2.6-7.11,3.71-10.74
		c0.1-0.33,0.33-0.63,0.5-0.94c0.43,0,0.87-0.01,1.3-0.01C12.41,4.42,13.29,3.98,14.09,4.38z"/>
	<path class="st3" d="M7.82,22.31c0.92-0.36,1.26,0.41,1.65,0.94C9.8,23.7,10.1,24.07,10.7,24c0.83-0.1,1.58,0.13,2.29,0.52
		c1.12,0.62,2.25,1.16,3.59,0.92c0.04-0.01,0.1-0.01,0.12,0.01c1.5,1.82,4.18,0.94,5.78,2.53c0.29,0.29,0.61,0.43,0.94,0.12
		c1.55-1.41,3.17-1.13,4.82-0.25c1.36-0.04,2.68-0.25,3.73-1.04c-1.07,0.74-2.4,0.95-3.74,1.05c-0.06-0.45,0.12-0.88,0.49-1.02
		c1.18-0.43,1.7-1.49,2.46-2.33c0.29-0.32,0.59-0.66,1.05-0.76c0.62-0.14,1.08-0.36,1.08-1.15c0-0.5,0.48-0.57,0.91-0.5
		c0.43,2.46,0.63,4.93,0.45,7.42c-2.37,0.96-4.53,2.4-6.98,3.2c-0.22,0.08-0.44,0.06-0.66,0.02c-0.68-0.1-1.52-0.03-1.09-1.18
		c0.08-0.21-0.03-0.47-0.17-0.67c-0.18-0.26-0.39-0.59-0.74-0.4c-0.32,0.17-0.04,0.48-0.02,0.74c0.05,0.47,0.99,0.72,0.33,1.36
		c-0.44,0.16-0.86,0-1.3-0.06c-0.75-0.11-1.12-0.43-1.01-1.28c0.11-0.86-0.35-1.53-1.08-1.99c-0.22-0.14-0.45-0.4-0.75-0.19
		c-0.33,0.23-0.22,0.55-0.14,0.87c0.1,0.39,0.3,0.74,0.42,1.12c0.18,0.56,0.02,0.84-0.61,0.81c-1.3-0.07-2.25-0.97-2.32-2.27
		c-0.03-0.51-0.18-0.94-0.53-1.3c-0.27-0.28-0.51-0.77-0.92-0.68c-0.53,0.12-0.28,0.66-0.26,1.02c0.04,0.79-0.34,0.93-0.97,0.64
		c-0.8-0.37-1.44-0.88-1.39-1.89c0.03-0.78-0.3-1.4-0.92-1.85c-0.6-0.44-1.11-0.24-1.12,0.5c-0.01,0.92-0.43,0.78-0.98,0.51
		c-0.77-0.37-1.49-0.79-1.77-1.68C9.37,23.81,8.17,23.37,7.82,22.31z"/>
	<path class="st1" d="M14.09,4.38c-0.83-0.08-1.66-0.17-2.49-0.25c3.09,0,6.18,0,9.27,0C18.62,4.51,16.35,4.14,14.09,4.38z"/>
	<path class="st5" d="M17.49,14.31c0.6,0.51,1.14,0.96,1.77,1.49c-1.39,0.37-1.81-0.9-2.66-1.32c-0.04,0.04-0.12,0.08-0.14,0.13
		c-0.14,0.37,0.29,1.08-0.32,1.09c-0.6,0.01-0.45-0.72-0.46-1.17c-0.03-1.19,0.01-2.39-0.02-3.58c-0.03-1.01,0.54-1,1.23-0.77
		c0.26,0.09,0.48,0.28,0.71,0.43C19.44,11.86,19.44,12.87,17.49,14.31z"/>
	<path class="st6" d="M26.26,20.24c-0.21,0.77-0.59,1.47-0.59,2.27c0,0.37,0.01,0.75,0.5,0.8c0.31,0.04,0.68,0.1,0.86-0.25
		c0.23-0.45-0.04-0.65-0.45-0.75c-0.17-0.04-0.29-0.17-0.24-0.34c0.06-0.22,0.29-0.25,0.48-0.28c0.39-0.07,0.82,0.1,1-0.55
		c0.35-1.32,1.63-1.15,2.8-0.64c0.81,0.36,1.02,1.53,0.51,2.51c-0.5,0.95-1.61,1.3-2.55,0.7c-0.51-0.32-0.81-0.63-1.36,0.01
		c-0.36,0.42-1.04,0.32-1.58,0.07c-0.6-0.28-0.56-0.82-0.52-1.34C25.18,21.56,25.37,20.73,26.26,20.24z"/>
	<path class="st7" d="M14.77,13.34c0,0.86,0.01,1.49,0,2.13c0,0.22,0.08,0.54-0.26,0.56c-0.36,0.02-0.44-0.26-0.43-0.57
		c0-0.32,0.01-0.64,0-0.96c-0.02-0.36,0.16-0.8-0.49-0.87c-0.52-0.06-0.94-0.22-1.31,0.41c-0.28,0.48-0.37,1.55-1.12,1.19
		c-0.42-0.2,0.35-0.97,0.6-1.46c0.61-1.2,1.41-2.31,1.84-3.6c0.08-0.25,0.13-0.6,0.5-0.57c0.35,0.03,0.38,0.36,0.43,0.63
		C14.71,11.33,14.81,12.44,14.77,13.34z"/>
	<path class="st8" d="M25.27,11.13c0.45,0.49,0.29,1.06,0.34,1.59c0.05,0.47-0.21,1.07,0.7,1.02c0.89-0.05,0.51-0.6,0.51-1.01
		c0-0.6-0.13-1.22,0.16-1.81c0.56,1.74,0.63,3.53,0.57,5.33c-0.01,0.16-0.11,0.33-0.3,0.26c-0.11-0.05-0.23-0.22-0.24-0.35
		c-0.04-0.4-0.05-0.8-0.03-1.19c0.02-0.49-0.11-0.74-0.67-0.7c-0.49,0.03-0.69,0.19-0.71,0.71c-0.02,0.46,0.28,1.34-0.29,1.31
		c-0.65-0.03-0.32-0.92-0.32-1.41C24.99,13.62,24.83,12.35,25.27,11.13z"/>
	<path class="st9" d="M8.99,15.33c-0.25,0.14-0.27,0.7-0.69,0.48c-0.45-0.24-0.04-0.57,0.05-0.81c0.67-1.78,1.43-3.54,2.04-5.34
		c0.27-0.78,0.59-1.07,1.41-0.87c0.49,0.12,1.03,0.07,1.54,0.09c-0.2,0.7-0.78,0.36-1.2,0.44c-0.4,0.07-0.86-0.12-1.07,0.49
		c-0.24,0.7-0.57,1.32,0.66,1.14c0.28-0.04,0.59,0.08,0.89,0.13c-0.07,0.4-0.35,0.46-0.56,0.41c-1.56-0.37-1.96,0.66-2.32,1.82
		C9.54,14,9.25,14.66,8.99,15.33z"/>
	<path class="st10" d="M22.51,13.18c-0.09,1.03-0.18,2.07-0.26,3.1c-0.11-0.01-0.22-0.01-0.33-0.02c-0.22-1.22-0.02-2.46,0.17-3.67
		c0.08-0.52,0.65-0.35,0.89,0.06c0.24,0.4,0.38,0.85,0.6,1.37c0.24-0.84,0-1.54-0.15-2.25c-0.05-0.23-0.12-0.52,0.15-0.62
		c0.31-0.11,0.39,0.19,0.46,0.41c0.42,1.45,0.32,2.92,0.15,4.39c-0.02,0.2-0.09,0.4-0.33,0.42c-0.3,0.03-0.41-0.15-0.47-0.41
		c-0.22-0.92-0.44-1.84-0.66-2.76C22.65,13.19,22.58,13.18,22.51,13.18z"/>
	<path class="st11" d="M28.83,16.31c-0.29-1.59,0.01-3.15,0.27-4.71c0.06-0.37,0.3-0.68,0.71-0.72c0.42-0.04,0.69,0.26,0.8,0.61
		c0.41,1.33,0.78,2.67,1.16,4.01c0.06,0.22,0.03,0.41-0.23,0.44c-0.25,0.03-0.33-0.15-0.38-0.36c-0.07-0.31-0.17-0.62-0.22-0.93
		c-0.09-0.55-0.45-0.58-0.88-0.51c-0.45,0.07-0.86,0.13-0.89,0.74C29.13,15.36,29.3,15.88,28.83,16.31z"/>
	<path class="st12" d="M13.62,20.74c0.05,0.6-0.02,1.1-0.46,1.47c-0.4,0.34-0.83,0.65-1.39,0.37c-0.5-0.25-0.38-0.72-0.35-1.15
		c0.07-0.79,0.14-1.58,0.16-2.37c0.02-0.61,0.3-0.68,0.76-0.46C13.27,19.04,13.7,19.77,13.62,20.74z"/>
	<path class="st13" d="M23.69,23.69c-0.88-0.04-1.02-0.8-1.62-0.99c-0.31,0.45,0.09,1.04-0.54,1.71c-0.06-1.42-0.2-2.58,0.07-3.76
		c0.07-0.31,0.32-0.6,0.7-0.52c0.46,0.1,0.6,0.51,0.65,0.91C23.08,21.95,22.65,22.97,23.69,23.69z"/>
	<path class="st14" d="M17.84,20.67c1.04-0.48,2.01-0.76,3.15-0.51c-1.89,0.54-1.03,2.13-1.39,3.23c-0.08,0.23,0.14,0.66-0.29,0.65
		c-0.47,0-0.37-0.43-0.35-0.73c0.02-0.32,0.06-0.64,0.12-0.95C19.24,21.45,19.36,20.57,17.84,20.67z"/>
	<path class="st15" d="M15.68,22.26c-1.09,0.6-1.61,0.35-1.64-0.82c-0.01-0.4-0.02-0.79-0.01-1.19c0.02-0.84,0.6-1.3,1.39-1.11
		c0.14,0.03,0.33,0.03,0.33,0.26c0,0.21-0.14,0.25-0.3,0.29c-0.32,0.08-0.8-0.05-0.83,0.46c-0.02,0.51,0.7,0.04,0.78,0.58
		c-0.16,0.32-0.94,0.02-0.85,0.79C14.65,22.36,15.51,21.71,15.68,22.26z"/>
	<path class="st16" d="M20.73,14.07c0,0.48,0,0.95,0,1.43c0,0.24,0,0.53-0.33,0.51c-0.28-0.01-0.36-0.26-0.36-0.52
		c0.02-1.03,0.03-2.06,0.05-3.09c0-0.22,0.11-0.43,0.33-0.42c0.21,0,0.32,0.21,0.33,0.43c0.01,0.55,0,1.11,0,1.66
		C20.75,14.07,20.74,14.07,20.73,14.07z"/>
	<path class="st17" d="M24.06,21.19c0.43,0.9,0.41,1.87,0.38,2.84c0,0.06-0.24,0.17-0.26,0.15c-0.1-0.1-0.24-0.25-0.23-0.37
		C23.99,22.94,23.63,22.07,24.06,21.19z"/>
	<path class="st18" d="M20.53,10.38c0.27,0.04,0.4,0.23,0.45,0.47c0.05,0.27-0.1,0.46-0.37,0.47c-0.28,0.01-0.42-0.21-0.46-0.44
		C20.1,10.61,20.25,10.44,20.53,10.38z"/>
	<path class="st19" d="M27.12,32.62c0.19,0.03,0.38,0.06,0.57,0.09c-0.2,0.27-0.49,0.19-0.77,0.2c-0.6,0.02-1.37-0.23-1.28,0.88
		c0.02,0.26-0.38,0.5-0.73,0.51c-0.47,0.01-0.74-0.24-0.82-0.7c-0.47-0.98-0.94,0.05-1.41,0c-1.06,1-2.31,0.71-3.54,0.49
		c-0.8-0.92-0.6-1.42,0.72-1.81c-1.29-0.43-1.27-0.39-2.6,0.06c-0.96,0.32-1.89,0.1-2.75-0.4c-0.2-0.12-0.39-0.24-0.57-0.38
		c-1.06-1.22-0.99-1.69,0.32-2.34c-0.63,0.16-1.23,0.4-1.9,0.38c-1.97-0.08-2.51-0.78-1.98-2.67c-0.89-0.37-1.66,0.96-2.57,0.19
		c-0.5-0.09-1.03-0.1-1.51-0.27c-0.55-0.2-1.13-0.49-1.09-1.23c0.04-0.69,0.62-0.86,1.14-1.04c0.2-0.07,0.43-0.08,0.69-0.12
		c-0.39-0.68-1.33-1.19-0.98-1.93c0.26-0.56,1.13-0.3,1.75-0.2c1.07,0.8,1.95,1.7,2.39,3.05c0.26,0.8,1.36,0.7,2.18,1.52
		c-0.27-0.88-0.71-1.57,0.1-1.91c0.7-0.29,1.22,0.18,1.69,0.62c0.39,0.37,0.72,0.87,0.63,1.38c-0.28,1.51,0.85,1.83,1.91,2.46
		c-0.1-0.54-0.19-0.94-0.26-1.35c-0.05-0.33-0.05-0.64,0.32-0.81c0.28-0.13,0.57-0.13,0.79,0.07c0.7,0.66,1.55,1.37,1.34,2.41
		c-0.21,1.01,0.31,1.24,1.01,1.49c0.48,0.17,0.96,0.35,1.65,0.61c-0.36-0.81-0.66-1.41-0.9-2.05c-0.12-0.33-0.16-0.73,0.18-0.99
		c0.37-0.29,0.77-0.21,1.11,0.04c0.9,0.67,1.69,1.41,1.27,2.69c-0.16,0.48-0.03,0.64,0.46,0.67c0.56,0.04,1.11,0.14,1.66,0.22
		C25.93,32.6,26.54,32.45,27.12,32.62z"/>
	<path class="st20" d="M14.56,31.69c0.66,0.26,1.31,0.57,2.06,0.51c0.23-0.02,0.62,0.02,0.68-0.09c0.87-1.64,1.79-0.21,2.68-0.06
		c0.15,0.03,0.28,0.12,0.6,0.27c-0.58,0.21-1.12,0.15-1.47,0.5c-0.45,0.44-0.23,0.86,0.05,1.28c-2.19,0.11-4.35-0.17-6.51-0.52
		c-1.29-0.21-2.14-0.93-2.65-2.09c-0.1-0.12-0.09-0.23,0.04-0.33C11.56,31.05,13.05,31.47,14.56,31.69z"/>
	<path class="st20" d="M9.98,31.24c0,0.08,0,0.16,0,0.25c-1.09-1.27-1.74-2.76-2.17-4.36c0.46-0.09,0.97,0.09,1.36-0.29
		c0.68-0.65,1.32-0.49,2,0.1c-0.48,0.4-1.08,0.77-0.81,1.51c0.27,0.74,0.95,0.79,1.59,0.78c0.69-0.01,1.38,0.16,2.05-0.35
		c0.43-0.33,0.79,0.29,1.26,0.54c-0.58,0.38-1.38-0.16-1.73,0.52c-0.37,0.72,0.34,1.04,0.64,1.52c-0.74,0.28-1.46,0.17-2.19-0.08
		C11.32,31.13,10.65,31.19,9.98,31.24z"/>
	<path class="st21" d="M22.68,33.61c0.12-0.81,0.68-0.79,1.28-0.68c0.59,0.11,0.13,0.44,0.13,0.68
		C23.62,33.87,23.15,34.07,22.68,33.61z"/>
	<path class="st22" d="M27.12,32.62c-0.59-0.03-1.22,0.23-1.77-0.19c-0.19-0.58-0.73-0.98-0.84-1.61c-0.05-0.27-0.22-0.55,0.07-0.76
		c0.24-0.18,0.55-0.17,0.8-0.03c0.58,0.34,1.16,0.95,0.91,1.53C25.8,32.69,26.72,32.39,27.12,32.62z"/>
	<path class="st23" d="M28.23,27.86c1.45-0.44,2.9-0.89,4.35-1.33c-1.14,1.11-2.55,1.41-3.98,1.64c-0.3,0.05-0.32-0.12-0.36-0.32
		C28.24,27.85,28.23,27.86,28.23,27.86z"/>
	<path class="st24" d="M27.73,30.38c0.59-0.1,1.21-0.12,1.82-0.7C29.13,30.97,28.38,30.5,27.73,30.38z"/>
	<path class="st25" d="M16.42,10.58c0.6,0.46,1.04,0.77,1.45,1.12c0.33,0.29,0.67,0.65,0.37,1.12c-0.29,0.45-0.72,0.71-1.29,0.72
		c-0.42,0-0.53-0.22-0.53-0.6C16.44,12.23,16.42,11.52,16.42,10.58z"/>
	<path class="st26" d="M29.38,20.72c0.52,0.15,1.46-0.04,1.45,1.12c-0.01,0.85-0.3,1.56-1.25,1.58c-0.84,0.02-1.47-0.39-1.42-1.38
		C28.19,21.35,28.17,20.61,29.38,20.72z"/>
	<path class="st27" d="M13.96,11.42c-0.04,0.55,0.4,1.15-0.12,1.57c-0.12,0.1-0.64-0.03-0.65-0.09
		C13.12,12.26,13.6,11.88,13.96,11.42z"/>
	<path class="st28" d="M29.84,11.26c0.45,0.85,0.79,1.48,0.57,2.19c-0.04,0.14-0.82,0.24-0.86,0.16
		C29.2,12.88,29.44,12.18,29.84,11.26z"/>
	<path class="st29" d="M12.29,19.31c1.03,1.27,0.94,2.06-0.29,2.73C12.1,21.13,12.19,20.29,12.29,19.31z"/>
	<path class="st30" d="M14.88,30.07c0.91-0.11,1.55,0.19,2.13,0.63c0.19,0.14,0.39,0.31,0.32,0.59c-0.08,0.32-0.34,0.39-0.64,0.42
		c-0.71,0.06-1.34-0.14-1.93-0.51c-0.33-0.21-0.83-0.43-0.76-0.83C14.1,29.83,14.68,30.16,14.88,30.07z"/>
	<path class="st31" d="M7.75,26.43c-0.22,0-0.37,0-0.53,0c-0.49,0-0.97-0.05-1.25-0.52c-0.16-0.26-0.09-0.56,0.17-0.74
		c0.47-0.31,0.97-0.27,1.47-0.07c0.15,0.06,0.31,0.13,0.41,0.24c0.31,0.36,1.18,0.26,1.06,0.76C8.93,26.68,8.17,26.33,7.75,26.43z"
		/>
	<path class="st32" d="M9.4,25.04c-1.27-0.22-2.12-0.95-2.73-2.18C8.28,22.82,8.8,23.97,9.4,25.04z"/>
	<path class="st33" d="M12.39,28.79c-0.64-0.04-1.42,0.05-1.52-0.76c-0.06-0.48,0.55-0.43,0.94-0.44c0.7-0.01,1.5,0.15,1.63,0.84
		C13.54,28.94,12.77,28.7,12.39,28.79z"/>
	<path class="st33" d="M20.63,33.83c-0.2,0-0.4,0.01-0.59,0c-0.24-0.01-0.53-0.05-0.55-0.33c-0.02-0.28,0.29-0.33,0.49-0.44
		c0.41-0.22,0.86-0.12,1.28-0.2c0.4-0.08,0.96-0.45,1.08,0.19c0.11,0.58-0.54,0.68-1,0.77C21.11,33.86,20.87,33.83,20.63,33.83z"/>
	<path class="st34" d="M22.4,31.63c-0.38-0.03-1.42-1.91-1.24-2.18c0.14-0.2,0.36-0.2,0.51-0.07c0.56,0.47,1.22,0.91,1.13,1.79
		C22.8,31.38,22.65,31.6,22.4,31.63z"/>
	<path class="st35" d="M9.98,31.24c0.63-0.55,1.34-0.34,1.98-0.12c0.72,0.26,1.44,0.36,2.2,0.32c0.13,0.08,0.27,0.16,0.4,0.25
		C12.99,31.93,11.49,31.56,9.98,31.24z"/>
	<path class="st36" d="M16.95,27.81c1,0.51,1.5,1.08,1.41,2.16C17.57,29.45,17.2,28.79,16.95,27.81z"/>
	<path class="st37" d="M14.14,27.46c-0.39-0.56-0.97-0.96-1.17-1.65C13.96,25.89,14.17,26.18,14.14,27.46z"/>
</g>
</svg>
