<?xml version="1.0" encoding="utf-8"?>
<!-- Generator: Adobe Illustrator 23.0.2, SVG Export Plug-In . SVG Version: 6.00 Build 0)  -->
<svg version="1.1" id="Camada_1" xmlns="http://www.w3.org/2000/svg" xmlns:xlink="http://www.w3.org/1999/xlink" x="0px" y="0px"
	 viewBox="0 0 32.67 35.81" style="enable-background:new 0 0 32.67 35.81;" xml:space="preserve">
<style type="text/css">
	.st0{fill:#0E0B0F;}
	.st1{fill:#6F182D;}
	.st2{fill:#337D1B;}
	.st3{fill:#711F35;}
	.st4{fill:#C5404A;}
	.st5{fill:#84BA5A;}
	.st6{fill:#B7E298;}
	.st7{fill:#A52932;}
	.st8{fill:#E56A7E;}
	.st9{fill:#660F22;}
	.st10{fill:#BBE59C;}
	.st11{fill:#741A2E;}
	.st12{fill:#6A1D32;}
	.st13{fill:#5F1A2F;}
	.st14{fill:#681D32;}
	.st15{fill:#6A1C31;}
	.st16{fill:#6F1E32;}
	.st17{fill:#516672;}
</style>
<g>
	<path class="st0" d="M16.71,33.36c-4.32,0.09-8.41-0.5-12.39-1.86c-2.55-0.87-2.98-1.83-1.78-4.29c1.37-2.8,2.79-5.57,4.17-8.36
		c2.46-4.97,4.9-9.96,7.35-14.93c0.45-0.9,0.89-1.9,2.12-1.8c1.19,0.1,2.04,0.74,2.54,1.9c3.53,8.18,7.84,15.99,11.65,24.04
		c0.82,1.74,0.31,3.06-1.51,3.68C24.88,33.1,20.77,33.5,16.71,33.36z"/>
	<path class="st1" d="M5.23,25.21c0.4-0.8,0.8-1.59,1.2-2.39c0.66-0.8,0.96-1.8,1.48-2.68c0.18-0.3,0.21-0.83,0.79-0.67
		c0.25,0.52-0.08,0.92-0.28,1.34c-0.48,1.05-1.09,2.04-1.47,3.13c-0.06,0.58,0.42,0.61,0.78,0.71c2.7,0.7,5.43,1.15,8.24,1.24
		c3.2,0.1,6.35,0.02,9.45-0.84c0.33-0.49-0.11-0.83-0.28-1.18c-1.41-2.87-2.81-5.74-4.28-8.57c-1.88-3.62-3.55-7.33-4.98-11.15
		c-0.03-0.11-0.05-0.23-0.07-0.34c0.93-0.64,1.28,0.12,1.57,0.73c0.8,1.65,1.49,3.35,2.29,4.99c2.3,4.68,4.65,9.35,6.96,14.03
		c0.3,0.6,0.52,1.25,0.77,1.87c-0.11,0.46-0.45,0.65-0.88,0.73c-3.3,0.92-6.65,1.19-10.07,1.13c-2.54-0.04-5.01-0.38-7.47-0.91
		c-0.5-0.11-0.99-0.31-1.52-0.26c-0.58,0.13-1.08-0.16-1.6-0.34c-0.11-0.04-0.22-0.09-0.32-0.15C5.38,25.52,5.29,25.38,5.23,25.21z"
		/>
	<path class="st2" d="M5.23,25.21c0.11,0.1,0.23,0.2,0.34,0.3c0.29,0.65-0.12,1.15-0.38,1.67c-0.66,1.28-0.64,1.38,0.76,1.8
		c2.22,0.65,4.48,1.08,6.8,1.25c1.91,0.14,3.82,0.18,5.73,0.2c2.52,0.02,5.01-0.34,7.48-0.78c1.74-0.31,1.81-0.49,1.01-2.06
		c-0.07-0.14-0.15-0.28-0.23-0.42c-0.17-0.27-0.32-0.56-0.29-0.9c0.02-0.13,0.08-0.24,0.18-0.34c0.25-0.17,0.5-0.34,0.76-0.51
		c0.55,1.06,1.13,2.11,1.65,3.18c0.52,1.07,0.33,1.5-0.79,1.89c-2.35,0.82-4.8,1.25-7.25,1.38c-5.39,0.28-10.77,0.21-15.97-1.58
		c-1.95-0.67-2.06-0.91-1.1-2.8C4.34,26.72,4.8,25.97,5.23,25.21z"/>
	<path class="st3" d="M8.69,19.48c-0.8,0.45-0.85,1.38-1.31,2.05c-0.3,0.44-0.32,1.09-0.95,1.29c2.88-6.29,5.91-12.5,9.06-18.66
		c0.07-0.14,0.2-0.24,0.31-0.36c0.03,0.04,0.05,0.07,0.08,0.11c0.27,0.42,0.09,0.82-0.07,1.22c-1.55,3.68-3.37,7.23-5.08,10.83
		c-0.39,0.83-0.82,1.64-1.17,2.49C9.39,18.88,9.3,19.42,8.69,19.48z"/>
	<path class="st4" d="M8.69,19.48c2.29-4.81,4.58-9.61,6.88-14.42c0.65,1.36,0.79,2.9,1.47,4.26c1.13,2.25,2.05,4.6,3.61,6.62
		c0.71,0.92,1.14,2.02,1.66,3.05c0.7,1.39,1.38,2.8,2.3,4.07c0.26,0.35,0.52,0.72,0.46,1.2c-0.34,0.7-0.95,0.87-1.61,0.65
		c-0.69-0.23-1.21-0.07-1.78,0.32c-1.35,0.91-3.17,0.1-3.5-1.52c-0.05-0.27-0.04-0.62-0.36-0.69c-0.32-0.07-0.46,0.26-0.63,0.47
		c-0.35,0.44-0.66,0.9-1.07,1.29c-0.98,0.95-1.76,0.98-2.67-0.03c-0.53-0.59-0.91-0.84-1.68-0.31c-0.86,0.58-1.45,0.04-1.39-1.17
		c0.56-0.91,0.56-0.91,0.56-1.87c-0.89,0.46-0.72,1.32-0.77,2.09c-1.41,1.31-2.3,1.39-3.46,0.29C7.37,22.36,8.03,20.92,8.69,19.48z"
		/>
	<path class="st5" d="M26.93,26.88c0.12,0.2,0.25,0.4,0.36,0.61c1.07,2.06,1.07,2.08-1.24,2.49c-4.25,0.77-8.52,0.9-12.83,0.6
		c-2.81-0.2-5.51-0.73-8.18-1.54c-0.77-0.24-1.06-0.51-0.54-1.29c0.45-0.69,0.92-1.4,1.09-2.24c0.07,0,0.14,0.02,0.2,0.05
		c0.35,0.24,0.33,0.59,0.33,0.96c-0.01,0.97,0.32,1.3,1.29,1.14c0.61-0.1,1.09-0.01,1.53,0.4c0.18,0.16,0.39,0.36,0.61,0.35
		c1.59-0.09,3.1,0.52,4.67,0.5c1.05-0.02,2.14,0.22,3.14-0.4c0.25-0.16,0.53,0.08,0.75,0.26c0.84,0.67,1.68,0.56,2.53,0.01
		c0.96-0.62,2-0.7,3.08-0.39c1.07,0.31,1.97,0.14,2.61-0.85C26.49,27.28,26.63,27.01,26.93,26.88z"/>
	<path class="st6" d="M26.63,27.62c-1,1.38-1.63,1.47-3.24,0.99c-0.81-0.24-1.76-0.23-2.56,0.39c-1.1,0.84-1.88,0.81-2.99-0.05
		c-0.15-0.12-0.3-0.38-0.47-0.2c-1.04,1.04-2.38,0.46-3.52,0.48c-1.46,0.04-2.94-0.51-4.47-0.46c-0.27,0.01-0.59-0.38-0.84-0.62
		c-0.28-0.27-0.45-0.36-0.9-0.18c-1.17,0.46-2.04-0.27-1.82-1.46c0.06-0.33-0.02-0.62-0.04-0.93C6.31,25.52,6.7,25.91,7.19,26
		c1.11,0.12,2.25,0.12,3.2,0.85c-0.03,0.02-0.06,0.04-0.09,0.07c-0.07,0.08-0.09,0.15-0.06,0.16c3.39,0.44,6.8,0.58,10.21,0.43
		c1.58-0.07,3.14-0.41,4.69-0.78C25.88,26.55,26.6,26.53,26.63,27.62z"/>
	<path class="st7" d="M6.7,23.8c1.25,0.83,2.34,0.4,3.39-0.42c0.16-0.19,0.32-0.19,0.48,0c-0.3,0.55,0.16,0.83,0.47,1.06
		c0.31,0.22,0.59-0.12,0.8-0.35c0.53-0.59,0.92-0.71,1.48,0.08c1.05,1.47,1.72,1.45,2.9,0.09c0.34-0.39,0.64-0.81,0.95-1.22
		c0.2-0.26,0.28-0.75,0.77-0.56c0.35,0.14,0.54,0.46,0.54,0.86c0.02,0.82-0.17,1.62,1.18,1.73c0.81,0.07,1.49,0.51,2.19-0.29
		c0.41-0.47,0.91-0.64,1.56-0.15c0.56,0.43,1.12-0.04,1.6-0.4c0.65,0.05,0.76,0.58,0.93,1.05c-2.95,0.77-5.94,1.04-9.01,0.97
		c-3.36-0.08-6.63-0.53-9.86-1.41C6.24,24.61,6.15,24.38,6.7,23.8z"/>
	<path class="st8" d="M25.94,25.28c-0.31-0.35-0.62-0.7-0.93-1.05c-1.48-2.05-2.5-4.35-3.72-6.55c-1.36-2.43-2.98-4.71-4.09-7.29
		C16.46,8.67,15.57,7,15.57,5.06c0.11-0.38,0.21-0.77,0.32-1.15c0.75,0.68,0.88,1.67,1.21,2.55c1.16,3.11,2.72,6.02,4.18,8.99
		c1.46,2.97,2.97,5.91,4.44,8.88C25.85,24.61,26.24,24.87,25.94,25.28z"/>
	<path class="st9" d="M10.34,26.91c-1.05-0.3-2.1-0.6-3.16-0.9c0.35-0.49,0.76-0.22,1.18-0.11c4.23,1.21,8.56,1.13,12.88,0.96
		c1.6-0.06,3.17-0.63,4.76-0.97c0.23-0.05,0.44-0.21,0.64,0.04c-0.04,0.09-0.08,0.18-0.12,0.28c-0.22,0.42-0.63,0.39-1.01,0.49
		c-1.41,0.38-2.83,0.71-4.3,0.75c-2.55,0.1-5.1-0.01-7.64,0.07C12.47,27.46,11.36,27.45,10.34,26.91z"/>
	<path class="st10" d="M21.45,27.18c1.75-0.01,3.41-0.54,5.08-0.97c0.13,0.22,0.27,0.45,0.4,0.67c-0.1,0.25-0.2,0.49-0.3,0.74
		c-0.25-0.48-0.52-0.85-1.19-0.67c-5.33,1.44-10.69,1.15-16.14,0.18c0.37-0.35,0.73-0.15,1.04-0.22c1.05,0.06,2.05,0.55,3.13,0.4
		c0.41-0.05,0.82-0.06,1.23,0.01c1.92,0.14,3.85,0.07,5.77,0.03C20.79,27.23,21.14,27.33,21.45,27.18z"/>
	<path class="st11" d="M16.81,21.12c-0.07,0.53-0.01,1.21-0.8,1.19c-0.53-0.01-0.91-0.44-0.82-0.97c0.12-0.66,0.11-1.65,0.92-1.7
		C16.59,19.6,16.76,20.51,16.81,21.12z"/>
	<path class="st12" d="M19.93,22.4c0.12-0.31-0.24-1.08,0.44-1.02c0.63,0.06,0.84,0.76,0.75,1.42c-0.06,0.43,0.18,1.16-0.51,1.11
		C19.83,23.85,19.91,23.08,19.93,22.4z"/>
	<path class="st13" d="M10.57,23.38c-0.16,0-0.32,0-0.48,0c-0.48-1.2-0.34-1.54,1.16-2.59C11.27,21.76,11.49,22.7,10.57,23.38z"/>
	<path class="st14" d="M16.07,11.74c-0.23,0.43,0.12,1.25-0.64,1.41c-0.46,0.1-0.56-0.45-0.57-0.87c-0.01-0.58,0.05-1.21,0.69-1.37
		C16.02,10.79,16.03,11.31,16.07,11.74z"/>
	<path class="st15" d="M17.54,15.84c0.07-0.38,0.18-1.11,0.62-1.03c0.52,0.09,0.47,0.88,0.58,1.39c0.07,0.33-0.08,0.64-0.51,0.63
		C17.65,16.8,17.52,16.42,17.54,15.84z"/>
	<path class="st16" d="M13.93,14.82c0,0.75,0.03,1.32-0.01,1.89c-0.02,0.35-0.24,0.6-0.64,0.49c-0.38-0.11-0.65-0.32-0.45-0.78
		C13.07,15.89,13.39,15.4,13.93,14.82z"/>
	<path class="st1" d="M14.66,27.41c-0.4-0.04-0.79-0.07-1.19-0.11c2.65-0.34,5.32-0.1,7.98-0.13c-0.27,0.07-0.53,0.15-0.8,0.22
		C18.65,27.58,16.66,27.55,14.66,27.41z"/>
	<path class="st6" d="M14.66,27.41c2,0,3.99-0.01,5.99-0.01C18.65,27.78,16.66,27.76,14.66,27.41z"/>
	<path class="st17" d="M16.07,20.29c0.32,0.67,0.35,1.07,0.02,1.59C15.7,21.37,15.8,20.96,16.07,20.29z"/>
</g>
</svg>
