<?xml version="1.0" encoding="utf-8"?>
<!-- Generator: Adobe Illustrator 23.0.2, SVG Export Plug-In . SVG Version: 6.00 Build 0)  -->
<svg version="1.1" id="Camada_1" xmlns="http://www.w3.org/2000/svg" xmlns:xlink="http://www.w3.org/1999/xlink" x="0px" y="0px"
	 viewBox="0 0 32.17 35.04" style="enable-background:new 0 0 32.17 35.04;" xml:space="preserve">
<style type="text/css">
	.st0{fill:#FEFEFE;}
	.st1{fill:#0C0A0D;}
	.st2{fill:#C5404A;}
	.st3{fill:#6F182D;}
	.st4{fill:#337D1B;}
	.st5{fill:#A52933;}
	.st6{fill:#E66A7E;}
	.st7{fill:#741B2F;}
	.st8{fill:#6A1F33;}
	.st9{fill:#5F1F34;}
	.st10{fill:#691D32;}
	.st11{fill:#691C31;}
	.st12{fill:#6B2538;}
	.st13{fill:#B8E398;}
	.st14{fill:#84BB5A;}
	.st15{fill:#516672;}
</style>
<g>
	<path class="st0" d="M12.73,34.66c-3.37-0.42-6.7-1.05-9.92-2.16c-1.57-0.54-2.74-1.46-2.8-3.19c-0.05-1.14,0.24-2.3,0.76-3.35
		c3.82-7.73,7.65-15.45,11.48-23.17c0.56-1.12,1.17-2.2,2.48-2.6c2.09-0.64,4.31,0.4,5.27,2.58c2.14,4.86,4.54,9.6,6.91,14.35
		c1.62,3.25,3.34,6.46,4.76,9.79c1.09,2.57,0.53,5.21-2.56,6.11c-2.69,0.79-5.43,1.28-8.21,1.64c-1.72,0.44-3.47,0.45-5.21,0.29
		C14.7,34.86,13.67,35.15,12.73,34.66z"/>
	<path class="st1" d="M16.49,32.95c-4.31,0.1-8.4-0.49-12.37-1.85c-2.61-0.89-3.01-1.85-1.77-4.38c1.39-2.83,2.83-5.64,4.22-8.47
		c2.4-4.87,4.78-9.75,7.19-14.61c0.45-0.92,0.86-2.02,2.17-1.93c1.31,0.09,2.12,0.86,2.65,2.09c3.48,8.07,7.75,15.76,11.49,23.71
		c0.91,1.94,0.44,3.19-1.63,3.88C24.52,32.69,20.48,33.08,16.49,32.95z"/>
	<path class="st2" d="M15.15,4.22c0.24-0.39,0.25-1,0.93-0.98c0.13,0.24,0.01,0.46-0.07,0.68c-0.58,1.2-0.27,2.37,0.19,3.48
		c1.18,2.84,2.37,5.68,4.23,8.16c0.65,0.87,1.06,1.88,1.54,2.84c0.73,1.46,1.44,2.94,2.4,4.28c0.25,0.35,0.52,0.72,0.45,1.2
		c-0.39,0.74-1.02,0.83-1.74,0.61c-0.44-0.14-0.91-0.25-1.24,0.1c-0.91,0.95-1.89,0.51-2.89,0.26c-0.71-0.18-0.94-0.65-1-1.31
		c-0.03-0.34,0.04-0.83-0.38-0.92c-0.4-0.08-0.55,0.39-0.77,0.66c-0.3,0.37-0.58,0.77-0.93,1.1c-0.98,0.95-1.76,0.98-2.66-0.03
		c-0.53-0.59-0.91-0.83-1.68-0.31c-0.85,0.58-1.45,0.04-1.39-1.17c0.37-0.57,0.75-1.13,0.57-1.88c-0.9,0.47-0.74,1.32-0.78,2.09
		c-1.36,1.28-2.19,1.37-3.48,0.38c-0.28-0.55,0.05-1,0.28-1.46c2.68-5.43,5.2-10.93,7.87-16.36C14.83,5.19,14.9,4.67,15.15,4.22z"/>
	<path class="st3" d="M15.15,4.22c0.05,1.48-0.83,2.64-1.41,3.88c-2.3,4.94-4.71,9.83-7.08,14.74C6.57,23,6.53,23.2,6.47,23.39
		c0.15,0.53,0.54,0.74,1.04,0.86c2.74,0.7,5.51,1.14,8.36,1.23c3.16,0.1,6.27,0,9.32-0.85c0.31-0.49-0.11-0.83-0.28-1.19
		c-1.91-3.86-3.8-7.73-5.78-11.56c-1.2-2.31-2.1-4.74-3.07-7.14c-0.14-0.34-0.19-0.69-0.21-1.05c0.08-0.15,0.16-0.3,0.24-0.46
		c0.52-0.01,0.81,0.31,1,0.73c3.03,7.04,6.8,13.74,10,20.7c0.05,0.11,0.06,0.23,0.09,0.35c-0.11,0.51-0.47,0.8-0.88,1.06
		c-1.87,0.75-3.85,1.11-5.84,1.21c-4.11,0.2-8.22,0.14-12.25-0.94c-0.85-0.23-1.69-0.48-2.46-0.91c-0.13-0.04-0.26-0.09-0.38-0.16
		c-0.18-0.11-0.3-0.27-0.36-0.47c3.25-6.76,6.41-13.56,9.85-20.23C14.91,4.43,15.04,4.33,15.15,4.22z"/>
	<path class="st4" d="M4.99,24.79c0.12,0.1,0.23,0.2,0.35,0.3c0.3,0.75-0.17,1.31-0.51,1.87c-0.46,0.77-0.37,1.23,0.55,1.49
		c2.23,0.65,4.48,1.14,6.8,1.33C14.1,29.95,16,30,17.92,30.02c2.65,0.02,5.26-0.32,7.85-0.79c1.68-0.3,1.77-0.51,1.02-1.98
		c-0.09-0.18-0.19-0.35-0.3-0.52c-0.16-0.29-0.32-0.57-0.21-0.92c0.29-0.26,0.59-0.53,0.89-0.79c0.55,1.06,1.13,2.11,1.65,3.18
		c0.52,1.07,0.33,1.5-0.79,1.89c-2.35,0.82-4.8,1.25-7.26,1.38C15.38,31.74,10,31.68,4.8,29.89c-1.95-0.67-2.06-0.91-1.1-2.8
		C4.1,26.31,4.56,25.56,4.99,24.79z"/>
	<path class="st5" d="M25.7,24.87c-2.95,0.78-5.94,1.04-9.01,0.97c-3.36-0.08-6.63-0.53-9.86-1.41C6,24.2,5.91,23.97,6.47,23.39
		c1.25,0.83,2.34,0.39,3.39-0.42c0.16-0.19,0.32-0.19,0.48,0c-0.3,0.55,0.17,0.83,0.47,1.05c0.31,0.22,0.59-0.12,0.79-0.35
		c0.62-0.72,1.02-0.57,1.55,0.18c0.95,1.33,1.63,1.31,2.75,0.07c0.4-0.44,0.74-0.93,1.1-1.41c0.18-0.25,0.29-0.63,0.71-0.45
		c0.3,0.13,0.5,0.4,0.53,0.74c0.02,0.32,0.02,0.64,0.03,0.96c0.01,0.29,0.08,0.69,0.35,0.69c0.99-0.02,2.01,1.16,3-0.08
		c0.39-0.49,0.91-0.64,1.56-0.15c0.56,0.43,1.12-0.04,1.6-0.4C25.42,23.86,25.53,24.4,25.7,24.87z"/>
	<path class="st6" d="M25.7,24.87c-0.31-0.35-0.62-0.7-0.93-1.05c-1.48-2.04-2.5-4.35-3.71-6.54c-1.33-2.4-2.95-4.63-4.03-7.18
		c-0.56-1.32-1.24-2.58-1.54-4.01c-0.18-0.85-0.16-1.65,0.35-2.39c0.53,0.63,0.66,1.43,0.95,2.16c2.43,6.16,5.76,11.88,8.57,17.84
		C25.53,24.06,25.99,24.37,25.7,24.87z"/>
	<path class="st7" d="M16.58,20.64c-0.07,0.61-0.04,1.24-0.74,1.26c-0.6,0.02-0.98-0.43-0.89-1.02c0.1-0.64,0.19-1.63,0.84-1.66
		C16.44,19.19,16.46,20.14,16.58,20.64z"/>
	<path class="st8" d="M20.86,22.56c-0.07,0.29,0.18,1.04-0.54,0.94c-0.75-0.11-0.67-0.87-0.63-1.47c0.03-0.4-0.16-1.12,0.37-1.08
		C20.78,21.02,20.96,21.73,20.86,22.56z"/>
	<path class="st9" d="M10.33,22.97c-0.16,0-0.32,0-0.48,0c-0.79-1.33,0.26-1.88,1.15-2.73C11.04,21.35,11.25,22.29,10.33,22.97z"/>
	<path class="st10" d="M14.62,11.8c0.01-0.56,0.06-1.2,0.74-1.3c0.47-0.07,0.5,0.47,0.44,0.8c-0.1,0.51,0.08,1.27-0.55,1.43
		C14.71,12.87,14.63,12.27,14.62,11.8z"/>
	<path class="st11" d="M17.3,15.43c0.07-0.38,0.18-1.12,0.62-1.04c0.52,0.09,0.48,0.88,0.58,1.39c0.07,0.33-0.08,0.65-0.51,0.63
		C17.42,16.39,17.28,16.01,17.3,15.43z"/>
	<path class="st12" d="M13.71,14.61c0,0.51,0,1.02,0,1.53c0,0.3-0.09,0.57-0.4,0.67c-0.25,0.08-0.48-0.06-0.65-0.22
		c-0.25-0.25-0.12-0.52,0.03-0.77c0.26-0.44,0.54-0.86,0.81-1.29C13.57,14.56,13.64,14.58,13.71,14.61z"/>
	<path class="st13" d="M26.28,25.8c0.14,0.22,0.27,0.45,0.41,0.67c0.09,1.13-0.64,2.04-1.79,2.22c-0.56,0.09-1.11,0.02-1.66-0.11
		c-0.93-0.23-1.81-0.15-2.64,0.38c-0.91,0.59-1.86,0.64-2.83,0.11c-0.28-0.16-0.56-0.29-0.9-0.2c-1.76,0.44-3.51,0.52-5.25-0.12
		c-0.38-0.14-0.79-0.03-1.19-0.02c-0.77,0.03-1.52,0-2.13-0.57c-0.24-0.23-0.53-0.3-0.88-0.28C5.66,28,4.69,27.51,5.42,25.47
		c0.04-0.11,0.05-0.23,0.12-0.32c4.03,1.44,8.2,1.92,12.47,1.87C20.84,26.98,23.58,26.59,26.28,25.8z"/>
	<path class="st14" d="M5.54,25.15c0.02,0.31,0.1,0.6,0.04,0.93C5.36,27.28,6.23,28,7.4,27.54c0.45-0.18,0.65-0.11,0.89,0.19
		c0.46,0.6,1.08,0.77,1.8,0.7c0.89-0.09,1.74,0.2,2.57,0.3c1.36,0.16,2.9,0.51,4.23-0.31c0.39-0.24,0.52-0.06,0.77,0.18
		c0.81,0.76,1.77,0.78,2.63,0.18c1.05-0.73,2.05-0.9,3.27-0.43c1.4,0.53,2.75-0.36,3.11-1.89c0.14,0.24,0.28,0.47,0.41,0.72
		c0.97,1.85,0.98,1.96-1.08,2.32c-7.05,1.24-14.08,1.32-21.02-0.81C4,28.4,3.67,28.08,4.36,27.13c0.44-0.61,0.83-1.27,0.98-2.03
		C5.41,25.1,5.48,25.11,5.54,25.15z"/>
	<path class="st15" d="M15.85,21.58c-0.32-0.66-0.35-1.06,0.01-1.58C16.2,20.53,16.14,20.93,15.85,21.58z"/>
</g>
</svg>
