<?xml version="1.0" encoding="utf-8"?>
<!-- Generator: Adobe Illustrator 23.0.2, SVG Export Plug-In . SVG Version: 6.00 Build 0)  -->
<svg version="1.1" id="Camada_1" xmlns="http://www.w3.org/2000/svg" xmlns:xlink="http://www.w3.org/1999/xlink" x="0px" y="0px"
	 viewBox="0 0 297.17 167.06" style="enable-background:new 0 0 297.17 167.06;" xml:space="preserve">
<style type="text/css">
	.st0{fill:#FEFEFE;}
	.st1{fill:#010102;}
	.st2{fill:#231F1F;}
	.st3{fill:#2D2D2D;}
	.st4{fill:#544E51;}
	.st5{fill:#111011;}
	.st6{fill:#3D3D3D;}
	.st7{fill:#0D0C0D;}
	.st8{fill:#100F10;}
	.st9{fill:#562B15;}
	.st10{fill:#1A191B;}
	.st11{fill:#30190F;}
	.st12{fill:#471C0A;}
	.st13{fill:#462210;}
	.st14{fill:#2B2B2B;}
	.st15{fill:#343434;}
	.st16{fill:#3E3636;}
	.st17{fill:#E4E4E3;}
	.st18{fill:#868687;}
	.st19{fill:#FEFDFD;}
	.st20{fill:#484848;}
	.st21{fill:#C1C0C0;}
	.st22{fill:#DBDBDB;}
	.st23{fill:#4E4E4E;}
	.st24{fill:#9F9E9F;}
	.st25{fill:#919292;}
	.st26{fill:#E9E8E8;}
	.st27{fill:#F9F8F8;}
	.st28{fill:#828282;}
	.st29{fill:#A0A0A0;}
	.st30{fill:#AEAEAE;}
	.st31{fill:#22252C;}
	.st32{fill:#565D71;}
	.st33{fill:#474D5F;}
	.st34{fill:#30343D;}
	.st35{fill:#C7D2E9;}
	.st36{fill:#A4A3A4;}
	.st37{fill:#252525;}
	.st38{fill:#1E2228;}
	.st39{fill:#9DA6C1;}
	.st40{fill:#3D4351;}
	.st41{fill:#CB5A3E;}
	.st42{fill:#95391F;}
	.st43{fill:#993A1F;}
	.st44{fill:#C24B2B;}
	.st45{fill:#1E1513;}
	.st46{fill:#1E1A1A;}
	.st47{fill:#372E30;}
	.st48{fill:#A1A1A1;}
	.st49{fill:#0E0D0D;}
	.st50{fill:#969696;}
	.st51{fill:#574647;}
	.st52{fill:#CECDCD;}
	.st53{fill:#B9B9B8;}
	.st54{fill:#A5A5A5;}
	.st55{fill:#C0BFBF;}
	.st56{fill:#E3E2E2;}
	.st57{fill:#6E7892;}
	.st58{fill:#020103;}
	.st59{fill:#131213;}
	.st60{fill:#ADB7D3;}
	.st61{fill:#4B5163;}
	.st62{fill:#6D2C1B;}
	.st63{fill:#532113;}
	.st64{fill:#592415;}
	.st65{fill:#89381D;}
	.st66{fill:#CE6731;}
	.st67{fill:#9F411A;}
	.st68{fill:#67251A;}
	.st69{fill:#6C271A;}
	.st70{fill:#672A1A;}
	.st71{fill:#682B1A;}
	.st72{fill:#7F341D;}
	.st73{fill:#3F1B0B;}
	.st74{fill:#4F2414;}
	.st75{fill:#B65B28;}
	.st76{fill:#7B321E;}
	.st77{fill:#E09F50;}
	.st78{fill:#A1431B;}
	.st79{fill:#B04124;}
	.st80{fill:#5D2617;}
	.st81{fill:#80401D;}
	.st82{fill:#2D140D;}
	.st83{fill:#441F0F;}
	.st84{fill:#A45325;}
	.st85{fill:#401A0A;}
	.st86{fill:#2C150D;}
	.st87{fill:#A2431B;}
	.st88{fill:#D27641;}
	.st89{fill:#4A1B10;}
	.st90{fill:#B94C18;}
	.st91{fill:#542814;}
	.st92{fill:#E9C055;}
	.st93{fill:#753918;}
	.st94{fill:#2F150C;}
	.st95{fill:#3B1507;}
	.st96{fill:#AC4023;}
	.st97{fill:#70281C;}
	.st98{fill:#CC6042;}
	.st99{fill:#742A1C;}
</style>
<g>
	<path class="st0" d="M54.09,36.36c-0.31-5.89,0.73-10.96,5.03-15c3.85-3.61,8.63-4.59,13.53-4.95c1.85-0.14,2.38-0.64,2.83-2.27
		C78.57,2.99,90.6-2.9,101.28,1.42c6.37,2.57,8.71,9.31,5.69,16.25c-0.32,0.74-1.16,1.28-0.8,2.62c3.19-0.31,6.44-0.68,9.69-0.92
		c1.2-0.09,1.27-0.58,1.15-1.61C115.72,5.78,128,0.6,138.78,6.25c1.27,0.67,2.07,1.4,3.65,0.02c8.24-7.2,22.08-5.17,28.56,3.99
		c2.02,2.86,3.91,5.9,3.99,9.46c0.05,2,0.91,2.31,2.4,2.74c7.84,2.27,15.53,4.9,22.7,8.91c1.9,1.06,4.05,1.97,5.15,3.81
		c2.26,3.78,5.92,3.84,9.53,4.1c5.01,0.35,9.92-0.01,14.72-1.85c3.42-1.31,6.97-0.97,10.55,0.11c6.71,2.02,13.61,1.79,20.57,1.9
		c5.89,0.09,11.65-0.15,17.37-1.15c3.59-0.63,7.09-1.13,10.67-0.29c5.02,1.18,7.85,4.41,8.27,9.51c0.61,7.42-0.03,14.85-0.51,22.23
		c-0.46,6.99-5.6,10.36-13.21,10.91c-12.83,0.92-25.57-1.56-38.37-0.61c-4.75,0.35-9.47,0.67-14.2-0.32
		c-2.6-0.54-4.9-1.47-7.27-2.78c-3.74-2.07-8.16-0.96-12.28-1.18c-0.95-0.05-0.73,1.02-0.79,1.7c-1.29,13.12-1.78,26.26-1.16,39.45
		c0.28,6-0.15,11.99-1.15,17.9c-1.44,8.52-6.68,14.6-13.88,18.65c-10.17,5.71-21.1,9.33-32.8,10.92
		c-9.62,1.31-19.19,3.09-28.91,2.61c-17.37-0.85-34.6-2.95-51.5-7.19c-6.31-1.58-11.94-4.98-17.71-7.81
		c-4.34-2.12-5.65-7.17-6.46-11.52c-2.31-12.44-4.84-24.87-5.63-37.55c-0.37-5.97-1.02-11.92-1.4-17.88
		c-0.14-2.08-0.79-2.3-2.87-2.13c-11.73,0.97-23.48,1.14-35.03-1.59C4.22,79.52-1.11,70.79,0.2,63.06c0.5-2.95,0.92-5.91,1.23-8.89
		c0.56-5.36,3.44-9.16,7.98-11.67c4.92-2.72,9.04-6.65,14.16-9.11c2.91-1.4,5.69-2.49,8.91-1.82c5.94,1.23,12.28,0.04,17.92,3.07
		C51.43,35.21,52.53,35.64,54.09,36.36z"/>
	<path class="st1" d="M142.49,14.64c1.34-4.86,4.84-7.26,9.59-7.81c6.13-0.71,11.4,1.06,15.14,6.25c2.3,3.19,4,6.64,2.73,10.71
		c-0.58,1.87,0.18,2.16,1.79,2.43c10.04,1.66,19.28,5.54,28.1,10.48c2.08,1.16,3.39,3,3.93,5.36c0.2,0.89,0.29,2.42,1.52,1.86
		c3.49-1.57,6.84-0.02,10.17,0.27c6.21,0.53,11.94-1.09,17.73-2.72c1.43-0.4,2.8-0.27,4.23,0.2c7.62,2.51,15.47,2.2,23.38,2.51
		c7.41,0.3,14.41-0.92,21.57-1.88c1.75-0.24,3.62-0.06,5.36,0.29c2.58,0.53,4.34,2.12,4.32,4.96c-0.05,7.31-0.07,14.62-0.35,21.91
		c-0.15,3.96-3.2,5.96-7.72,6.37c-13.17,1.19-26.28-1.45-39.43-0.56c-4.63,0.31-9.25,0.83-13.84-0.32
		c-0.92-0.23-2.16-0.16-2.72-0.75c-4.98-5.18-11.42-2.67-17.17-3.11c-5.15-0.39-5.02,0.25-5.39,5.71
		c-0.79,11.95-1.83,23.88-1.28,35.87c0.31,6.72,0.11,13.38-0.68,20.07c-0.93,7.94-5.64,13.21-12.06,16.76
		c-9.44,5.22-19.61,8.41-30.4,10.2c-13.97,2.32-27.88,2.92-41.9,1.6c-11.69-1.1-23.3-2.79-34.78-5.38
		c-6.64-1.5-12.39-5.13-18.48-7.87c-3.12-1.4-4.18-5.58-4.7-8.86c-1.72-10.84-4.17-21.57-5.02-32.56
		c-0.85-11.05-1.5-22.14-3.49-33.16c-2.17,3.63-5.35,5.2-9.51,5.18c-9.35-0.05-18.72,0.41-27.98-1.29
		C7.95,76.03,3.94,70.32,4.97,62.99c0.38-2.73,0.79-5.45,1.07-8.19c0.37-3.66,2.29-6.35,5.4-8c5.09-2.7,9.19-6.89,14.48-9.25
		c1.08-0.48,2.02-1.5,3.26-1.36c6.61,0.76,13.42,0.22,19.76,2.87c2.13,0.89,3.51,2.45,4.17,4.85c0.42-0.34,0.73-0.66,1.1-0.89
		c3.97-2.41,4.9-5.72,4.72-10.44c-0.31-8.04,10.3-14.14,17.69-10.74c2.24,1.03,3.27,3.07,3.99,5.29c0.22,0.67,0.25,1.51,1.32,1.19
		c0.33-0.1,0.84-0.19,0.92-0.41c0.25-0.68-0.43-0.99-0.76-1.46c-3.42-4.73-3.34-11.98,0.15-16.02c4.79-5.53,12.23-7.42,17.78-4.37
		c2.9,1.6,4.31,3.98,3.36,7.48c-0.86,3.17-4.97,9.75-8.6,12.73c10.46-1.07,20.07-2.04,29.98-3.05c-1.56-2.23-3.13-3.97-3.08-6.64
		c0.09-4.79,2.9-7.82,7.77-7.9c4.18-0.07,7.67,1.59,10.79,4.23C140.94,13.5,141.31,14.54,142.49,14.64z"/>
	<path class="st2" d="M59.25,88.01c-0.71-5-1.55-9.98-2.08-14.99c-0.54-5.16-0.41-5.17-5.46-5.2c-0.6,0-1.19-0.01-1.79-0.02
		c-1-1.24-1.05-2.46,0.08-3.65c0.85-0.31,1.58,0.28,2.38,0.36c1.71,0.16,2.95-0.56,2.7-2.33c-0.36-2.42,0.11-4.93-0.81-7.28
		c-1.42-2.19-3.54-0.31-5.23-0.91c-0.86-3.37-0.66-3.66,2.5-3.82c0.68-0.03,1.4,0.15,1.99-0.35c0.92,0,1.56-0.49,2.15-1.13
		c10.28-11.01,23.21-16.22,37.98-17.65c7.21-0.7,14.37-2.17,21.59-2.53c6.62-0.33,13.19-1.73,19.96-0.55
		c4.65,0.82,9.58-0.09,14.34,0.3c8.37,0.68,16.78,1.29,24.96,3.48c0.25,0.65,1.69,0.4,1.3,1.29c-0.56,1.26-1.95,1.06-3.12,1.14
		c-17.29-3.08-34.77-2.3-52.2-2.79c-1.09-0.03-2.14,0.15-3.17,0.47c-12.86,0.56-25.41,2.98-37.8,6.32
		c-7.17,1.49-13.03,5.53-18.79,9.75c-3.45,2.53-1.89,5.96-1.55,9.15c0.27,1.25,0.43,2.51,0.78,3.74c0.19,0.76,0.26,1.53,0.29,2.31
		c0.49,6.06,2.06,11.98,2.22,18.08C62.54,84.03,61.65,86.38,59.25,88.01z"/>
	<path class="st3" d="M59.25,88.01c0-2.43,3.34-3.73,2.2-6.53c1.74,0.17,1.54,1.62,1.65,2.71c0.89,8.44,1.49,16.91,2.2,25.37
		c0.74,8.72,1.94,17.36,3.91,25.89c0.95,4.1,3.36,6.97,7.05,9.02c7.18,4,15.1,5.25,23.04,6.45c2.12,0.32,4.22,0.89,6.39,0.92
		c17.43,2.32,34.87,3.76,52.33,0.34c6.53-1.19,12.78-3.31,18.97-5.65c0.53-0.14,1.06-0.17,1.6-0.06c2.2,1.42,0.36,2.07-0.61,2.7
		c-1.78,1.15-4.07,1.33-5.65,2.9c-7.9,3.36-16.37,3.88-24.71,5.05c-9.07,1.27-18.15,0.76-27.19-0.08
		c-11.87-1.09-23.68-2.73-35.29-5.44c-5.16-1.2-9.78-3.83-14.24-6.69c-3.2-2.05-5.15-4.88-5.75-8.67
		c-2.07-13.06-4.84-26.01-5.3-39.3C59.75,93.98,59.27,91,59.25,88.01z"/>
	<path class="st4" d="M204.68,66.45c-2.82-0.56-3.77,0.57-3.58,3.43c0.5,7.52-1.21,14.91-1.46,22.4c-2.38,0.7-2.21-1.22-2.31-2.47
		c-0.24-3.08-0.07-6.18-0.1-9.28c-0.02-1.54,0.14-3.11-0.83-4.48c-0.57-1.17-0.54-2.44-0.61-3.7c0.66-7.72,0.56-15.47,0.77-23.21
		c0.1-3.7-1.43-5.94-4.7-7.62c-3.16-1.63-6.84-2.21-9.53-4.76c0.59-0.69,0.55-1.06-0.44-1.34c-0.61-0.17-1.36-0.67-0.69-1.52
		c0.34-0.43,0.85-0.2,1.28,0.01c4.36,1.19,8.3,3.36,12.41,5.13c2.99,1.28,4.61,3.36,4.78,6.36c0.15,2.66,1.44,3.12,3.67,3
		c2.13-0.12,4.27,0,6.41,0.02c3.03,0.94,6.28-0.28,9.3,1.17c-5.34,0.75-10.7,0.5-14.75,0.57c4.6-0.36,10.48,0.46,16.42-0.46
		c2.78-0.43,6.16-1.53,8.62,1.38c-1.12,1.48-2.78,1.22-4.29,1.23c-6,0.05-12,0-17.99,0.03c-5,0.03-5,0.05-4.92,4.96
		c0.24,1.6-0.75,3.8,0.93,4.66c2.37,1.22,5.17,0.61,7.77,0.37c1.37-0.13,0.88-1.18,0.22-1.8c-2.75-2.62-0.33-2.84,1.47-2.95
		c3.82-0.24,7.66-0.03,11.49-0.11c1.27-0.02,2.67,0.42,3.7-0.78c0.77-1.06,0.4-2.67,1.71-3.45c0.46,0.01,0.79,0.22,1,0.64
		c0.78,3.49,1.07,6.96-0.22,10.4c-0.27,0.22-0.54,0.57-0.89,0.57C221.06,64.68,213,67.62,204.68,66.45z"/>
	<path class="st5" d="M50.6,64.2c-1.12,1.03-0.53,2.39-0.67,3.6c-2.27,6.17-7.05,6.9-12.88,6.6c-6.78-0.34-13.58-0.13-20.31-1.22
		c-4.4-0.71-7.69-4.08-7.22-8.98c0.33-3.4,0.18-6.84,1.52-10.08c1.48,1.21,2.73,2.58,3.05,4.58c0.18,2.23,0,4.47,0.19,6.7
		c0.11,1.27,0.14,2.63,1.49,3.38c8.32,0.58,16.62,1.08,24.96,0.91c2.2-0.04,3.34-0.8,3.74-2.85c0.74-3.83,1.84-7.63,1.23-11.6
		c-0.69-2.98,0.12-6.3-2.03-8.95c-2.18-1.04-4.6-1.09-6.9-1.62c-1.82-0.76-4.04,0.18-5.67-1.34c-0.01-0.52,0.18-0.96,0.67-1.14
		c4.15-1.54,13.76,0.77,16.71,4.01c0.36,3.05,2.15,4.11,5.05,3.62c-1.19,1.47-5.51-0.53-4.15,3.75c0.07,0.21,0.25,0.38,0.38,0.57
		c1.76,1.58,1.68,3.75,1.87,5.83C51.63,61.48,51.83,63.02,50.6,64.2z"/>
	<path class="st6" d="M196.97,75.77c1.76,0.39,1.22,1.83,1.24,2.92c0.06,3.59,0.01,7.19,0.05,10.78c0.01,1.12-0.41,2.54,1.39,2.81
		c0,11.82,0.28,23.66-0.12,35.47c-0.24,7.2-3.31,13.34-9.69,17.41c-5.39,3.44-11.24,5.69-17.5,6.91c-1.61-0.35-1.08-0.89-0.08-1.32
		c1.93-0.83,3.9-1.57,5.84-2.38c0.62-0.26,1.44-0.54,0.55-1.42c-0.05-0.57,0.25-0.96,0.65-1.31c2.95-1.9,6.34-3,9.23-5.01
		c1.93-1.53,4.14-2.77,5.26-5.14c0.96-2.37,1.3-4.82,1.3-7.37c0.01-10.91-0.08-21.82-0.1-32.73c0.2-1.33-0.03-2.77,0.99-3.89
		c0.5-0.19,0.87-0.05,1.11,0.44c0.11,11.64,0.02,23.28,0.07,34.65c0.32-0.16-0.01-0.95-0.01-1.59c0.02-10.39,0.02-20.78,0.01-31.18
		c0-1.05,0.24-2.18-0.75-3C195.72,85.77,194.79,80.71,196.97,75.77z"/>
	<path class="st7" d="M229.9,64.2c-0.05-3.65-0.1-7.31-0.14-10.96c-0.36-0.39-0.46-0.86-0.43-1.37c0.68-0.95-0.68-1.82-0.12-2.77
		c0.96-3.19,3.9-3.7,6.19-3.17c6.47,1.5,12.92,2.72,19.59,2.59c0.28-0.01,0.57,0.37,0.86,0.57c-0.8,0.96-2,1.01-3.06,1.37
		c-2.41,0.46-4.84-1.05-7.25,0.07c-2.83,0.62-5.52,0.06-8.16-0.95c-4.02-0.29-4.17-0.21-4.23,3.61c-0.06,3.83,0.14,7.68-0.06,11.5
		c-0.15,2.97,1.13,3.65,3.83,3.61c9.22-0.13,18.45-0.01,27.68-0.08c6.07-0.1,12.14,0.07,18.19-0.1c0.34-0.1,0.7-0.16,1.05-0.18
		c1.3,0.86,1.84-1.04,2.96-0.85c0.27,3.21-1.27,4.55-4.4,4.33c-1.17-0.08-2.35-0.01-3.52-0.01c-3.6-0.02-7.2-0.01-10.79-0.01
		c-9.1-1.58-18.36,0.08-27.5-1.33c-2.16-0.33-4.48,0.34-6.72,0.62c-2.78,0.34-4.34-0.82-4.67-3.61
		C228.62,65.93,229.17,65.04,229.9,64.2z"/>
	<path class="st8" d="M286.79,67.1c-0.89,0.23-0.43,2.51-2.18,1.43c-1.31-1.52-0.97-3.38-1-5.14c-0.06-3.58,0-7.16-0.03-10.74
		c-0.02-1.91-0.81-2.66-2.7-1.9c-4.76,1.78-9.58,2.68-14.7,1.84c-3.65-0.6-7.37-0.08-11.06-0.3c-1.41-0.09-3.25,0.37-3.7-1.81
		c3.47-0.35,6.94-0.7,10.4,0.16c0.01-0.04,0.01-0.08,0.05-0.32c-2.96-0.52-6.02,0.36-8.93-0.5c0.76-1.05,1.89-0.6,2.89-0.72
		c4.42,0,8.85-0.02,13.27,0.01c2.29,0.02,4.29-0.62,6.45-1.51c3.11-1.28,6.71-0.71,10.04-0.32c1.73,0.2,1.83,2.13,1.96,3.78
		C287.96,56.44,286.48,61.72,286.79,67.1z"/>
	<path class="st9" d="M165.81,20.24c-0.01,3.93-2.94,5.83-5.74,3.94c-3.66-2.47-7.11-5-11.66-5.95c-2.22-0.46-1.54-2.82-0.29-4.4
		c2.98-3.74,10.11-3.56,14.14,0.44C164.05,16.06,165.19,18.28,165.81,20.24z"/>
	<path class="st10" d="M48.47,46.21c-4.57-3.02-9.61-4.03-15.01-3.61c-0.82,0.06-1.67-0.06-2.26,0.7c-0.79,1.98-2.69,2.67-4.36,3.49
		c-3.03,1.48-5.69,3.55-8.64,5.11c-2.67,1.42-2.88,4.25-4.06,6.53c-0.3,0.24-0.62,0.25-0.94,0.04c0.19-1.9-2.76-2.23-2.17-4.33
		c-0.01-1.38,0.91-2.34,1.9-2.87c5.07-2.7,9.26-6.67,14.08-9.71c3.3-2.09,6.77-0.27,10.13-0.23c3.02,0.03,6.01,1.26,9.04,1.87
		C47.91,43.54,48.62,44.51,48.47,46.21z"/>
	<path class="st11" d="M84.45,18.69c0.01-6.01,6.77-11.32,11.68-9.45c3.27,1.25,3.73,3.03,1.35,5.61c-2.01,2.17-4.22,4.08-5.27,7.08
		c-0.77,2.18-2.89,3.35-5.28,2.55C83.94,23.49,84.57,20.73,84.45,18.69z"/>
	<path class="st12" d="M75.84,28.83c0.18,1.33-0.32,2.36-1.29,3.2c-1.9,1.64-3.7,3.41-5.72,4.88c-2.65,1.93-5.65,0.36-5.89-2.92
		c-0.32-4.59,6.42-9.94,10.77-8.49C75.25,26.02,75.99,27.19,75.84,28.83z"/>
	<path class="st13" d="M139.22,20.86c-0.12,1.27,0.35,2.91-1.25,3.43c-1.56,0.51-3.33,0.8-4.79-0.39c-1.86-1.5-3.62-3.11-5.45-4.64
		c-1.47-1.23-1.97-2.77-1.14-4.47c0.84-1.72,2.26-1.52,3.98-1.18C136.42,14.74,139.22,16.95,139.22,20.86z"/>
	<path class="st14" d="M229.9,64.2c0.17,1.06-0.2,1.99-0.71,2.89c-6.91-0.01-13.83,0-20.74-0.05c-1.27-0.01-2.64,0.39-3.78-0.59
		c1.55-0.04,3.12,0.08,4.64-0.16c2.16-0.34,4.88,1.31,6.41-1.82c0.23-0.47,2.02-0.22,3.08-0.23
		C222.51,64.21,226.21,64.21,229.9,64.2z"/>
	<path class="st15" d="M229.2,49.09c0.41,0.95,0.93,1.87,0.66,2.97c-0.57,0.04-0.85-0.17-0.68-0.78c-1.07-1.18-2.48-0.67-3.73-0.68
		c-7.85-0.05-15.71-0.02-23.56-0.79c5.47,0,10.95,0,16.42,0c-2.77-1.41-5.87,0.23-8.56-1.41c5.34,0,10.68,0.01,16.02-0.02
		C226.98,48.39,228.14,48.47,229.2,49.09z"/>
	<path class="st16" d="M182.48,33.9c-2.1,0.6-0.27,0.98,0.12,1.22c1.27,0.77,0.52,0.9-0.28,1.06c-3.35,0.42-6.31-0.36-8.71-2.84
		c1.24,0.01,1.91-0.3,0.91-1.58C177.27,32.1,180.02,32.45,182.48,33.9z"/>
	<path class="st8" d="M268.08,71.41c3.6-1.16,7.2-1.17,10.79,0.01C275.28,72.55,271.68,72.57,268.08,71.41z"/>
	<path class="st17" d="M147.31,23.36c-1.34,0.3-2.78,1.09-3.71-0.45c-0.18-0.29,0.02-1.2,0.26-1.3
		C145.51,20.94,145.91,23.12,147.31,23.36z"/>
	<path class="st18" d="M158.76,152.88c-7.17,2.21-14.63,2.38-21.98,2.44c-10.51,0.09-21.02-0.76-31.42-2.55
		c-1.24-0.73-2.45-1.44-3.36-2.63c-14.8-19.24-25.25-40.42-28.99-64.61c-0.48-3.1-0.39-6.24-0.22-9.34c0.17-3.04-0.72-4.78-3.8-5.91
		c-3.91-1.44-7.77-3.33-9.66-7.54c-0.05-0.64-0.11-1.28-0.16-1.92c0.93-0.69,1.59,0.01,2.21,0.51c8.09,6.59,17.68,9.3,27.73,10.99
		c22.11,3.73,44.41,3.12,66.69,3.02c2.51-0.01,4.97-0.87,7.51-0.6c1.23,0.28,2.88,0.19,2.51,2.19c-0.77,4.15,1.08,7.74,2.42,11.41
		c2.96,8.16,5.37,16.48,4.13,25.23c-1.26,8.88-3.47,17.59-6.54,26.06c-0.69,1.92-1.42,3.83-1.72,5.84
		C163.58,148.87,161.99,151.45,158.76,152.88z"/>
	<path class="st19" d="M163.48,75.65c-18.42,1.49-36.85,1.14-55.25-0.03c-12.04-0.76-24.1-2.1-35.54-6.43
		c-5.04-1.91-9.57-4.7-13.53-8.37c-0.98-1.09-0.33-2.48-0.69-3.69c-0.46-1-0.21-2.06-0.26-3.09c-0.12-2.55,0.96-3.19,3.17-1.96
		c4.69,7.68,11.82,11.85,20.3,14.12c6.22,1.67,12.28,3.95,18.76,4.68c3.22,0.37,6.47-0.08,9.65,0.63c2.85,0.71,5.74,0.24,8.61,0.25
		c12.59,0.03,25.18,0.3,37.74-0.94c9.9-0.98,19.21-3.97,28.29-7.83c2.82-1.31,5.53-2.82,7.19-5.58c2.77-4.57,1.83-8.98-2.51-12.14
		c-2.03-1.48-4.31-2.49-6.59-3.52c-10.1-3.77-20.56-5.44-31.32-5.33c-1.87,0-3.62-0.6-5.4-1.03c-7.35-0.98-14.74-0.25-22.1-0.4
		c-3.2-0.07-5.54-1.31-7.18-3.99c4.98-0.86,10.01-0.68,15.01-0.5c13.95,0.5,28-0.51,41.76,2.83c2.9,0.95,5.81,1.89,8.71,2.84
		c3.87,1.81,7.73,3.67,11.63,5.41c2.47,1.1,3.59,2.91,3.61,5.59c0.08,8.32-0.06,16.62-0.89,24.9c-0.57,5.22-0.08,10.45-0.26,15.67
		c-0.04,1.29,0.3,2.62-0.29,3.87c-0.03,1.17-0.06,2.34-0.09,3.51c-2.92-1.19-0.98-4-1.89-5.62c-0.57,4.81-1.18,9.83-0.02,14.86
		c0.36,8.88-0.49,17.78,0.8,26.62c-0.3,1.98-0.12,4.05-1.03,5.92c-1.17,2.03-3.13,3.15-4.98,4.4c-2.2-0.46-1.77-2.32-1.84-3.73
		c-0.55-11.6-1.09-23.2-0.77-34.81c0.29-10,0.32-19.99-0.67-28.77c0.07,4.89-0.08,10.98-0.03,17.08c0.24,9.24-0.05,18.45-0.66,27.66
		c-0.03,0.48,0.06-0.11-0.02,0.36c-0.2,1.24,0.11,3.1-1.49,3.24c-1.27,0.11-1.34-1.7-1.81-2.75c-0.53-9.13-0.38-18.27-0.1-27.41
		c0.85-6.68,1.27-13.35-0.56-19.94c-1.57-0.64-2.93,0.16-4.35,0.61c-2.12,0.95-4.38,1.47-6.61,2.1
		C167.9,75.95,165.62,75.1,163.48,75.65z"/>
	<path class="st20" d="M59.32,62.73c3.59,3.42,7.54,6.27,12.39,7.62c1.39,0.39,1.91,1.11,1.9,2.54
		c-0.25,30.93,13.26,56.4,31.76,79.88c-10.01-1.41-20.13-2.31-29.31-7.2c-3.79-2.02-6.57-4.72-7.61-8.98
		c-2.12-8.69-3.4-17.52-4.12-26.43c-0.75-9.27-1.51-18.53-2.29-27.79c-0.03-0.31-0.37-0.59-0.57-0.88
		C61.45,75.15,59.41,69.05,59.32,62.73z"/>
	<path class="st21" d="M61.31,52.74c-1.56-1.09-2.63-1.16-2.63,1.21c0,1.06-0.13,2.12-0.21,3.18c-2.21-5.82-0.14-9.74,5.22-12.54
		c4.91-2.57,9.32-6.17,15.07-6.91c5.15-0.86,10.17-2.31,15.3-3.28c0.47-0.09,0.91-0.3,1.39-0.32c0.72-0.02,1.57-0.03,1.81,0.77
		c0.29,0.94-0.75,0.98-1.22,1.42c-0.62,0.57-2.12-0.64-2.08,1.09c-1.03,1.42-2.69,1.39-4.14,1.82c-7.65,2.27-15.05,5.14-22.14,8.82
		C65.13,48.99,63.05,50.64,61.31,52.74z"/>
	<path class="st22" d="M93.99,36.95c-0.24-0.25-1.25-0.28-0.72-0.64c0.94-0.63,2.19-0.78,3.21-1.74c-4.23,0.87-8.43,1.84-12.69,2.56
		c-1.65,0.28-3.22,1.79-5.04,0.54c9.02-3.09,18.33-4.85,27.78-5.88c3.42-0.38,6.82-1.14,10.3-0.78c4.53,3.63,9.92,2.79,15.15,3.01
		c4.8,0.2,9.67-0.93,14.41,0.65c-1.23,1.3-2.87,1.02-4.38,1.01c-14.91-0.09-29.8,0.37-44.64,1.93
		C96.19,37.74,94.99,37.85,93.99,36.95z"/>
	<path class="st23" d="M50.6,64.2c0.07-1.49,0.15-2.97,0.22-4.46c3.27-0.48,2.88-3.67,4.16-5.62c1.28,2.87,0.45,6.04,1.28,9
		c0.31,1.09-0.77,2.1-1.85,2.27C53.05,65.59,51.26,66.5,50.6,64.2z"/>
	<path class="st24" d="M54.98,54.12c-0.02,0.59-0.13,1.2-0.04,1.78c0.58,3.41-0.85,4.6-4.13,3.85c-0.35-1.86-0.71-3.73-1.06-5.59
		C51.48,50.32,53.24,53.28,54.98,54.12z"/>
	<path class="st25" d="M163.48,75.65c2.11-0.83,4.32-1.25,6.57-1.41c1.98-0.75,2.26,0.81,2.54,2.03c0.96,4.24,2.44,8.23,4.91,11.84
		c1.07,1.58,0.85,3.44,0.85,5.22c0.04,12.43-0.04,24.85,0.05,37.28c0.06,4.01,0.02,8.02,0.02,12.03c0,1.54,0.08,3.09-1.07,4.35
		c-5.86,3.04-12.13,4.76-18.59,5.88c7.01-9.94,8.39-21.82,11.37-33.13c1.56-5.93,1.98-11.91,0.83-18.05
		c-0.85-4.49-2.41-8.71-3.67-13.04c-1.17-4-3.88-7.7-2.26-12.28C165.38,75.38,163.99,75.97,163.48,75.65z"/>
	<path class="st26" d="M177.36,147c0.02-5.48,0.04-10.96,0.06-16.45c0.67-2.58,0.28-5.21,0.29-7.82
		c0.06-10.03,0.23-20.06-0.06-30.08c-0.16-5.7-1.11-11.37-0.19-17.08c0.2-1.22-0.58-2.29-0.83-3.45c1.28-1.01,2.9-0.96,4.37-1.38
		c0.69,5.06,0.22,10.14,0.28,15.21c-0.08,4.55,0.31,9.11-0.24,13.65c-0.53,1.62-0.52,3.29-0.51,4.96
		c0.08,11.57-0.12,23.15,0.11,34.72c0.05,2.33,0.52,4.82-1.22,6.87c-0.26,0.26-0.52,0.53-0.78,0.79
		C178.21,146.96,177.79,146.98,177.36,147z"/>
	<path class="st27" d="M229.18,51.29c0.23,0.26,0.45,0.52,0.68,0.78c-0.03,0.39-0.07,0.78-0.1,1.17c-0.21,0-0.37,0.09-0.5,0.25
		c-3.36,1.91-7.02,0.71-10.54,1.04c-2.24-0.25-4.49,0.04-6.72-0.07c-1.28-0.04-2.56-0.18-3.85-0.05c-0.58,0.06-1.57,0.2-1.47,0.67
		c0.72,3.28-1.97,2.66-3.58,3.27c-0.75,0.09-1.42-0.09-2.02-0.54c-0.56-6.7-0.56-6.72,6.32-6.69
		C214.66,51.15,221.92,51.23,229.18,51.29z"/>
	<path class="st28" d="M201.08,57.81c0.73-0.05,1.47-0.09,2.2-0.14c1.94-0.33,3.91-0.47,5.82-0.96c2.9,0.01,5.8-0.16,8.7-0.02
		c3.82,0.25,7.78-1.04,11.42,1.07c-3.44,1.36-7.02,0.38-10.53,0.62c-2.7,0.18-5.41,0.04-8.26,0.04c0.47,1.16,1.74,0.56,2.07,1.53
		c0.33,0.99,1.29,2.07,1.07,2.86c-0.34,1.21-1.84,0.6-2.84,0.69c-1.3,0.11-2.62,0.05-3.94,0.06
		C199.95,63.58,201.19,63.85,201.08,57.81z"/>
	<path class="st29" d="M229.23,57.76c-3.88-0.05-7.76-0.1-11.65-0.15c-0.34-0.33,0.1,0.08-0.26-0.23c-0.9-0.76-2.06-1.55-1.83-2.78
		c0.3-1.59,2.08-0.3,2.93-1.09c3.61-0.01,7.23-0.01,10.84-0.02C229.25,54.91,229.24,56.33,229.23,57.76z"/>
	<path class="st30" d="M196.12,91.62c-0.05-6.52-0.42-13.05,0.55-19.54c0.1,1.23,0.19,2.46,0.29,3.68
		c-0.06,5.03-0.13,10.05-0.19,15.08c0.22,0.16,0.28,0.3,0.19,0.43c-0.08,0.12-0.17,0.19-0.25,0.19
		C196.53,91.53,196.33,91.58,196.12,91.62z"/>
	<path class="st31" d="M13.21,58.47c0.24,0,0.47-0.01,0.71-0.01c2,1.67,3.49-1.04,5.35-0.64c0.37,0.02,0.73,0.09,1.08,0.19
		c5.72,1.23,11.3,3.01,17.19,3.44c2.16,0.16,4.28-0.09,6.42,0.07c3.11,1.51,0.79,3.82,0.63,5.64c-0.17,1.96-2.16,2.38-3.91,2.39
		c-6.82,0.04-13.64,0.36-20.43-0.47c-1.93-0.24-3.82-0.41-5.51,0.83C11.96,66.39,13.66,62.28,13.21,58.47z"/>
	<path class="st32" d="M43.45,62.08c-3.02,1.73-6.05,0.11-9.05-0.09c-5.07-0.35-9.97-1.68-14.71-3.54c-1.19-3.3-1.19-3.3,1.73-2.88
		c6.39,0.74,12.74,2.01,19.21,1.66c0.48-0.25-0.21-0.72,0.04-0.31c0.11,0.19,0.05,0.33-0.16,0.31c-2.2-0.22-4.58,1.1-6.58-0.8
		c1.87-2.16,4.79-0.26,6.81-1.77c1.78-3.93,1.53-4.63-2.35-6.51c-0.57-0.28-0.97-0.66-0.74-1.38c2.03-1.37,4.5-0.54,6.64-1.36
		c2.77,2.66,1.64,6.18,2.08,9.35C47.72,58.13,45.26,59.98,43.45,62.08z"/>
	<path class="st33" d="M43.45,62.08c-0.08-1.1,0.04-2.25,1.05-2.8c1.93-1.04,1.83-2.77,1.87-4.51c1.16,5.08-0.34,9.88-1.67,14.66
		c-0.45,1.61-2.16,1.17-3.43,1.21c-8.86,0.34-17.7-0.33-26.54-0.74c0.72-2.59,2.85-2.25,4.63-1.96c7.39,1.22,14.82,0.34,22.23,0.62
		c1.19,0.05,2.58-0.42,2.34-1.59C43.58,65.33,46.39,63.38,43.45,62.08z"/>
	<path class="st34" d="M19.01,58.43c-1.16,0-1.82,0.87-2.65,1.48c-1.87,1.39-2.43,0.38-2.44-1.46c-0.05-3.7,1.52-6.22,4.93-7.96
		c4.24-2.16,8.25-4.78,12.36-7.19c1.92,0.3,3.97-0.59,5.77,0.66c-0.59,0.85-1.51,0.89-2.4,0.99c-1.34-0.04-2.51,0.35-3.64,1.15
		c-3.48,2.47-6.86,5.05-10.19,7.72C19.08,55.14,18.38,56.43,19.01,58.43z"/>
	<path class="st35" d="M34.09,44.06c0.96-0.03,1.93-0.07,2.89-0.1c2.48,0.26,4.98,0.45,7.32,1.46c-1.6,3.08-4.51,0.83-6.67,1.62
		c-1.28,0.99-2.46,0.57-3.61-0.25C33.17,45.87,32.68,44.94,34.09,44.06z"/>
	<path class="st36" d="M179.42,146.14c0.07-14.31,0.14-28.62,0.24-42.93c0.01-1.28-0.3-2.64,0.51-3.83
		c1.23,1.08,1.11,2.57,1.12,3.98c0.03,7.86-0.02,15.72,0.04,23.58c0.01,1.71-0.66,3.26-0.75,4.64c1.02-2.45,0.7-5.29,0.77-8.1
		c0.04-1.41-0.11-2.9,1.13-3.97c0.31,0.73,0.61,1.46,1.07,2.55c0.9-10.61,0.9-20.9,1.09-31.18c0.53-1.13,0.21-2.33,0.29-3.5
		c0.06-0.82-0.06-1.87,1.13-1.78c1.12,0.08,1,1.12,1,1.94c0.01,4.02-0.01,8.05,0.01,12.07c0.01,0.93-0.19,1.9,0.28,2.79
		c0.27,11.98,0.53,23.97,0.83,35.95c0.03,1-0.44,2.2,0.73,2.95C185.92,143.25,182.74,144.83,179.42,146.14z"/>
	<path class="st30" d="M193.89,136.91c0.01-1.91,0.02-3.82,0.03-5.74c0.67-4.15-0.26-8.3-0.04-12.47c0.2-3.7,0.05-7.43,0.03-11.14
		c-0.01-1.31,0.16-2.66-0.77-3.78c-1.32-5.53-0.13-11.02,0.19-16.58c3.5,1.83,0.86,5.63,2.71,7.93c0.31,12.31,0.39,24.62-0.23,36.93
		C195.71,133.82,195.46,135.66,193.89,136.91z"/>
	<path class="st37" d="M196.73,91.46c-0.06-0.21-0.05-0.42,0.05-0.62c0.22,0.41,0.64,0.81,0.64,1.22
		c0.04,11.58,0.03,23.15-0.7,34.73C196.73,115.02,196.73,103.24,196.73,91.46z"/>
	<path class="st38" d="M280.98,50c0.77-1.09,2.03-1.56,3.07-1.13c1.14,0.48,0.56,1.91,0.57,2.91c0.04,5.58,0,11.16,0,16.74
		c-0.23,0-0.46,0.01-0.69,0.02c-1.03-0.38-2.11-0.38-3.18-0.37c-14.21,0.09-28.42-0.73-39.85-0.35c4.83,0,12.45-0.04,20.06,0.04
		c1.26,0.01,2.99-0.69,3.56,1.34c-9.82,0.02-19.64-0.02-29.46,0.11c-2.41,0.03-3.09-0.84-3.02-3.15c0.14-5.03,0.03-10.06,0.03-15.09
		c0-2.36,0.31-4.44,3.4-2.57c0.86,0.52,1.62-1.74,2.27,0.09c-0.12,0.73,0.26,1.39,0.28,2.1c0.35,4.85,1.33,6.35,6.35,7.01
		c8.39,1.1,16.87,1.86,25.31,0.99c4.03-0.42,7.7-2.44,9.81-6.34C279.83,51.47,280.3,50.67,280.98,50z"/>
	<path class="st39" d="M237.28,49.66c0.01-0.42-0.25-0.95,0.46-1.07c2.56,1.16,5.24,1.46,8.01,1.23c1.89,0,3.84-0.32,5.56,0.81
		c9.9,0.52,19.84,2.42,29.66-0.64c0.16,0.8-0.05,1.49-0.59,2.08c-1.27,2.41-3.63,2.9-5.99,3.49c-7.04,1.75-14.08,0.99-21.08-0.16
		c-4.36-0.71-8.83-1.13-12.92-3.05C239.1,51.76,237.68,51.3,237.28,49.66z"/>
	<path class="st40" d="M264.52,69.2c-1.14-0.99-2.52-0.58-3.8-0.59c-8.02-0.04-16.05-0.01-24.07-0.05
		c-1.14-0.01-2.38,0.39-3.43-0.47c0.16-1.34,1.22-0.95,1.93-0.95c15.33-0.03,30.66-0.03,45.99-0.03c1.14,0,2.53-0.34,2.78,1.44
		c-2.69,1.43-5.57,0.5-8.35,0.63C271.89,69.33,268.2,69.2,264.52,69.2z"/>
	<path class="st1" d="M251.32,50.64c-1.88-0.13-3.79,0.03-5.56-0.81c2.4-1.98,4.8,0.48,7.21-0.02c3.05,0,6.1,0,9.15,0
		c0,0.28,0.01,0.56,0.01,0.83C258.52,50.64,254.92,50.64,251.32,50.64z"/>
	<path class="st41" d="M154.53,13.03c3.4-0.05,7.85,3.19,8.94,6.18c0.35,0.95,0.6,2-0.34,2.59c-1.13,0.71-2.41-0.06-2.66-0.99
		c-0.96-3.58-3.61-3.62-6.46-3.5c-0.58,0.02-1.23,0.02-1.75-0.22c-0.9-0.41-2.5-0.16-2.46-1.55c0.04-1.16,1.29-1.54,2.38-1.8
		C153.1,13.52,153.99,13.19,154.53,13.03z"/>
	<path class="st42" d="M85.97,20.19c0.07-4.5,3.36-8.55,7.46-9.13c1.05-0.15,2.28-0.3,2.96,0.71c0.88,1.31-0.55,1.85-1.2,2.56
		c-0.54,0.6-1.27,1.34-1.97,1.42c-2.77,0.29-3.26,1.84-2.82,4.23c0.37,1.98-1.04,2.94-2.61,3.04
		C86.07,23.12,85.87,21.61,85.97,20.19z"/>
	<path class="st43" d="M73.61,30.82c-2.56-2.37-3.92-1.63-4.25,1.09c-0.17,1.41-0.38,2.59-1.81,3.15c-0.65,0.25-1.25-0.1-1.49-0.65
		c-0.56-1.27-0.32-2.53,0.26-3.78c1.07-2.33,3.38-3.2,5.42-3.6C73.92,26.61,73.73,28.73,73.61,30.82z"/>
	<path class="st44" d="M130.8,14.41c2.16,0,6.95,4.71,6.9,6.61c-0.02,1-0.2,2.04-1.39,2.14c-1.45,0.12-0.99-0.84-1.12-1.83
		c-0.26-2.03-1.53-3.24-3.95-3c-1.3,0.13-2.68-0.75-2.63-2.19C128.64,15.09,129.85,14.52,130.8,14.41z"/>
	<path class="st45" d="M185.97,63.44c-14.07,6.88-29.07,9.32-44.59,9.34c-8.62,0.01-17.23,0.11-25.85,0.1
		c-2.02,0-4.08,0.09-6.03-0.66c0.61-0.77,1.49-0.3,2.26-0.48c-4.24-0.44-8.49-0.47-12.69-1.05c-1.27-0.18-2.81,0.06-2.58-2.01
		c3.06-1.94,6.22-0.02,9.33-0.19c1.51-0.09,3.05,0.4,4.6,0.49c3.31,0.2,5.88-0.52,8.58-3.06c4.44-4.18,9.96-6.89,16.4-6.78
		c4.32,2.53,4.36,5.4-0.19,9.94c2.22-0.09,4.17-0.19,6.09-0.04c3.85,0.31,7.23-0.13,9.69-3.71c1.13-1.65,3.24-2.37,5.11-3.19
		c1.8-0.93,3.57-1.99,5.74-1.52c1.76,0.38,3.1,1.4,3.64,3.1c0.59,1.82-0.48,2.91-2.39,3.76c3.9-0.78,7.57-1.04,11.01-2.38
		c1.25-0.5,2.51-0.95,3.78-1.39c1.27-0.37,2.51-0.82,3.67-1.47c0.79-0.38,1.58-0.73,2.47-0.78
		C185.17,61.63,186.21,61.91,185.97,63.44z"/>
	<path class="st46" d="M93.99,36.95c17.39-2.52,34.92-2.13,52.41-2.27c1.68,0.24,3.36,0.48,5.04,0.72c-0.22,1.91-1.81,1.63-3,1.74
		c-2.01,0.19-4.06,0.19-6.07,0.04c-5.38-0.39-10.61,0.43-15.79,1.79c-0.62,0.18-1.26,0.25-1.9,0.32c-4.15,0.35-8.34-0.43-12.48,0.36
		c-0.6,0.17-1.21,0.26-1.83,0.3c-1.61,0.05-3.21,0.04-4.82,0.08c-0.78-0.03-1.56-0.03-2.34-0.02c-3.79,0.36-7.55,0.88-11.23,1.9
		c-0.56,0.12-1.12,0.18-1.68,0.23c-6.5,0.88-12.28,4.05-18.49,5.85c-1.25,0.36-2.41,1.13-3.81,0.76c-0.56-0.25-0.95-0.65-1.09-1.26
		c7.73-4.55,16.17-7.32,24.73-9.77C92.45,37.5,93.21,37.21,93.99,36.95z"/>
	<path class="st47" d="M126.2,38.24c6.74-2.75,13.83-2.01,20.84-2.12c1.47-0.02,3.12,0.61,4.4-0.72c11.14,0,22.01,1.51,32.37,5.83
		c-0.2,1.52-1.36,1.34-2.33,1.18c-1.26-0.22-2.52-0.18-3.77-0.33c-9.17-2.03-18.51-2.26-27.83-2.75c-3.7,0.03-7.41,0.19-11.11,0
		c-1.29,0-2.58-0.05-3.87,0.03c-2.56-0.04-5.14,0.13-7.68-0.34C126.81,38.85,126.47,38.59,126.2,38.24z"/>
	<path class="st48" d="M176.63,72.11c1.51-0.13,2.18,0.49,2.07,2.08c-1.25,18.45-0.25,36.93-0.87,55.38
		c-0.01,0.33-0.28,0.65-0.42,0.97c-0.02-12.59-0.07-25.19-0.03-37.78c0.01-2.24-0.55-3.95-1.94-5.86c-2.16-2.97-3.3-6.6-3.81-10.3
		c-0.16-1.13-0.12-2.19-1.58-2.37C172.25,73.53,174.44,72.82,176.63,72.11z"/>
	<path class="st49" d="M66.93,47.49c0.33,0.29,0.66,0.57,0.99,0.86c-0.28,1.09-1.24,1.46-2.05,2.01c-2.56,1.58-2.84,3.31-0.35,5.22
		c1.1,0.77,2.04,1.71,3.06,2.56c4.5,3.74,10.18,4.84,15.44,6.88c2.51,0.77,4.94,1.84,7.58,2.16c1.38,0.43,2.85,0.35,4.24,0.71
		c0.35,0.13,0.65,0.35,0.87,0.64c0.25,1.79,1.65,1.43,2.78,1.42c4.65-0.01,9.18,0.94,13.74,1.99c-1.24,0.09-2.49,0.18-3.73,0.27
		c-6.27,0.24-12.45-0.38-18.45-2.23c-8.98-2.77-18.48-4.4-25.64-11.32c-1.76-1.7-4.14-2.99-4.11-5.94
		C61.63,49.32,64.39,48.53,66.93,47.49z"/>
	<path class="st50" d="M182.48,119.51c0.15,5.41-0.23,10.76-2.31,16.67c0-12.75,0-24.77,0-36.8c0.04-4.51,0.08-9.02,0.12-13.53
		c1.57-0.91,2.43-0.42,2.43,1.35c0,1.48,0.31,2.99-0.26,4.44C182.47,100.93,182.47,110.22,182.48,119.51z"/>
	<path class="st51" d="M178.18,41.13c1.89-0.7,3.73,1.5,5.64,0.09c3.35,1.28,6.51,2.84,8.66,5.89c2.95,4.18,2.67,9-1.02,12.54
		c-1.59,1.52-3.27,3.1-5.49,3.79c-0.34-1.03-1.19-1.3-2.14-1.4c-0.28-1.28,0.83-1.59,1.55-2.1c1.27-0.91,2.45-1.91,3.4-3.14
		c2.81-3.62,2.54-6.19-0.88-9.21c-2.74-2.42-6.25-3.43-9.36-5.17C178.15,42.07,177.73,41.72,178.18,41.13z"/>
	<path class="st52" d="M187.35,102.41c-1.28-3.57-0.31-7.28-0.66-10.91c-0.16-1.72,0.37-3.51-0.56-5.53
		c-1.58,1.5-0.16,3.68-1.5,4.91c-0.01-6.44-0.03-12.89-0.03-19.33c0-1.04-0.17-2.54,1.23-2.54c1.35,0,0.79,1.48,0.85,2.32
		C187.37,81.68,187.71,92.04,187.35,102.41z"/>
	<path class="st53" d="M182.46,91.64c-0.05-1.26-0.16-2.53-0.13-3.79c0.04-1.47-0.56-2.16-2.05-1.99
		c0.21-5.04-0.93-10.14,0.71-15.12c1.06,0,1.35,0.62,1.46,1.58C183.22,78.76,183.47,85.2,182.46,91.64z"/>
	<path class="st54" d="M193.14,103.79c1.12,0.51,1.49,1.42,1.49,2.6c-0.02,7.74,0,15.48-0.04,23.22c0,0.52-0.44,1.04-0.67,1.57
		C192.88,122.07,193.12,112.92,193.14,103.79z"/>
	<path class="st55" d="M218.42,53.51c-0.54,0.79-1.51,0.46-2.29,0.87c-0.19,1.36,1.84,1.79,1.46,3.23
		c-2.85,0.01-5.71,0.01-8.56,0.02c-0.49-0.72,1.11-0.68,0.52-1.46c-1.88-2.45,0.52-2.19,1.71-2.69
		C213.63,53.48,216.02,53.49,218.42,53.51z"/>
	<path class="st56" d="M211.24,53.47c-0.71,0.72-2.65,0.8-1.11,2.6c1.32,1.55-1.22,0.68-1.11,1.55c-1.91,0.01-3.82,0.03-5.74,0.04
		c0.73-1.05,2.06-0.28,2.96-0.97c-0.57-0.63-1.89-0.8-1.3-2.08c0.39-0.87,1.14-1.17,2.03-1.17
		C208.39,53.44,209.82,53.46,211.24,53.47z"/>
	<path class="st57" d="M34.09,44.06c-0.69,0.71-0.56,1.42,0.01,2.13c-2.74,3.07-6.29,5.27-9.09,8.28c-0.55,0.37-1.15,0.66-1.77,0.89
		c-0.95,0.36-1.93,0.31-2.91,0.24c-1.25,0.09-1,0.62-0.41,1.31c0.49,0.57,1.58,1.29-0.23,1.54c-0.23,0-0.45-0.01-0.68-0.02
		c-1.71-1.58-1.31-2.78,0.3-4.35c3.78-3.69,8.24-6.46,12.37-9.67C32.37,43.86,33.25,43.94,34.09,44.06z"/>
	<path class="st58" d="M23.11,54.93c0.36-0.68,1.02-0.71,1.67-0.77c1.59-0.81,3.01-1.86,4.28-3.12c2.48-2.46,5.33-3.11,8.79-2.35
		c2.58,0.57,3.83,1.66,3.43,4.31c-0.15,0.97-0.24,1.88,0.61,2.6c-2.46,1.86-5.31-0.08-7.87,0.82
		C30.16,57.49,26.53,56.99,23.11,54.93z"/>
	<path class="st59" d="M41.89,55.6c-0.93-0.09-2.1,0.01-1.89-1.44c0.21-1.43,1.5-3.62-0.35-4c-2.55-0.52-5.43-2.37-8.06,0.14
		c-1.19,1.14-2.52,2.13-3.76,3.21c-0.91,0.79-2,0.59-3.05,0.65c2.41-3.48,5.51-6.14,9.32-7.97c1.06,0.78,2.29,0.81,3.53,0.86
		C43.44,48.62,43.73,49.21,41.89,55.6z"/>
	<path class="st60" d="M23.11,54.93c3.56,1.03,7.27,0.96,10.9,1.49c2.31,1.03,4.89,0.19,7.47,1.02c-6.47,1.07-12.63,0.12-18.8-0.47
		c-1.03-0.1-1.83-0.46-2.36-1.37C21.07,54.61,22.16,55.08,23.11,54.93z"/>
	<path class="st61" d="M237.28,49.66c5.14,3.44,11.17,4,17,4.91c6.21,0.98,12.53,1.49,18.84,0.27c2.6-0.5,5.06-1.28,7.27-2.76
		c-1.38,5.07-5.9,7.08-9.98,7.52c-8.89,0.95-17.94,0.48-26.79-1.09C237.32,57.4,236.68,56.11,237.28,49.66z"/>
	<path class="st62" d="M174.56,65.72c-4.33,2.2-9.1,2.1-13.71,2.88c-0.29-1.36,0.62-1.25,1.2-1.51c1.36-0.61,3.4-0.96,2.81-2.98
		c-0.57-1.95-2.23-2.82-4.45-2.81c-1.59,0.01-2.44,1.49-3.92,1.49c-1.48,0.61-2.76-0.19-4.11-0.54c-5.68-1.48-11.41-2.72-17.32-2.87
		c-3.1,0.45-5.98,0.16-8.12-2.5c-0.61-1.11-0.19-2.34-0.39-3.5c0.3-1.6-0.55-2.6-1.8-3.39c0.67-1.41-1.1-2.31-0.77-3.66
		c1.08-1.14,2.2-0.59,3.26-0.03c2.88,1.5,6.01,2.3,9.08,3.29c1.97,0.64,3.73,1.21,3.83-1.9c0.02-0.59,0.59-1,1.33-0.8
		c1.92,5.04,1.92,5.04,7.53,4.67c3.67,1.07,7.4,1.95,10.96,3.41C165.76,57.32,170.42,61.15,174.56,65.72z"/>
	<path class="st63" d="M126.95,56.29c2.36,1.72,4.89,2.98,7.91,2.87c0.76-0.29,0.88,0.09,0.73,0.72c-7,0.82-13.34,3.03-17.74,8.92
		c-0.91,1.22-1.95,1.12-3.11,1.16c-6.06,0.19-12.03-0.8-18.03-1.43c-0.25-0.03-0.51-0.07-0.76-0.1c1.08-4.32,0.89-4.6-3.27-6.75
		c-1.19-0.62-2.92-0.55-3.35-2.31c0.48-1.35,1.62-1.73,2.84-1.78c2.97-0.12,5.94-0.66,8.91-0.01c0.72,0.72,0.83,1.68,0.94,2.61
		c0.27,2.33,1.97,2.3,3.69,2.31c1.84,0.01,2.85-0.74,2.95-2.71c0.1-1.86,0.06-3.89,2.26-4.81c2.15-0.67,4.22,0.06,6.28,0.44
		c2.07,0.39,3.96,0.23,5.79-0.82C124.47,54.81,125.83,55.28,126.95,56.29z"/>
	<path class="st64" d="M135.6,59.88c-0.24-0.24-0.49-0.48-0.73-0.72c4.55-1.93,8.79,0.67,13.19,0.94c3.01,0.19,5.62,1.78,8.44,2.69
		c-2.73,1.79-6.03,2.91-7.35,6.35c-0.39,1-1.34,0.84-2.15,0.85c-4.5,0.01-9,0.01-13.69,0.01C138.91,63.95,139.11,62.97,135.6,59.88z
		"/>
	<path class="st65" d="M174.56,65.72c-2.61-0.37-4.01-2.63-5.66-4.15c-4.86-4.46-10.66-6.6-16.82-8.14
		c-1.06-0.26-2.08-0.53-2.79-1.44c-0.62-1.65-0.34-3.14,0.81-4.47c2.12-1.42,4.28-1.17,6.42-0.06c2.39,1.24,5.34,1.41,7.19,3.71
		c0.16,0.29,0.28,0.6,0.37,0.92c0.14,2.58,1.9,3.31,4.09,3.56c0.81,0.19,1.62,0.4,2.42,0.63c2.52,2.66,6.66,3.8,7.56,7.99
		C176.95,64.75,175.75,65.23,174.56,65.72z"/>
	<path class="st66" d="M178.85,41.84c4.02,1.53,7.81,3.34,11.08,6.3c1.83,1.65,2.03,3.18,1.49,5.33c-1.05,4.22-4.24,6.45-7.6,8.58
		c-0.69,0.29-1.39,0.57-2.08,0.86c-0.74-1.27-0.74-1.27,1.32-2.87c-1.69,0.33-3.69,0.86-4.18-1.12c-0.32-1.28,1.67-1.22,2.66-1.72
		c1.74-0.49,3.41-1.06,3.47-3.32c0.41-1.67-1.32-3.02-0.75-4.72c0.75-0.89,1.24-1.76-0.15-2.54c-1.03-0.57-2.13-0.94-3.38-1.37
		c-0.21,0.72,0.99,1.65-0.21,2.18c-1.06,0.5-2.2,0.45-3.33,0.48c-1.62-0.04-3.24,0.11-4.84-0.25c-2.52-1.23-4.25-2.86-3-5.98
		C172.55,39.78,175.69,41.97,178.85,41.84z"/>
	<path class="st67" d="M181.69,57.74c-0.48,0.89-1.52,0.52-2.29,1.01c1.78,2.2,3.62-0.46,5.32,0.11c0.11,2.16-3.47,1.58-2.97,4.04
		c-1.01,0.98-2.27,1.29-3.61,1.37c-2.23-2.95-5.34-4.93-8.08-7.32c-0.24-0.7,0.1-1.27,0.38-1.86c0.93-3.09,3.08-0.82,4.66-1.06
		C176.45,56.78,179.54,56.43,181.69,57.74z"/>
	<path class="st68" d="M120.62,69.04c1.4-1.78,2.55-2.83,4.51-2.18c2.52,0.83,4.09-0.44,5.25-2.5c0.11-0.2,0.11-0.48,0.23-0.67
		c0.9-1.43,2.41-1.86,3.9-2.22c0.67-0.17,1,0.46,1.1,1.11c0.29,1.79-0.68,2.99-1.99,3.92C129.84,69.18,125.59,69.77,120.62,69.04z"
		/>
	<path class="st69" d="M150.64,69.19c2.95-3.63,5.89-5.76,9.74-6.36c1.12-0.17,2.75-0.35,2.9,1.23c0.12,1.28-1.38,1.53-2.41,1.51
		c-1.97-0.03-3.39,0.6-4.48,2.33C155.02,70.06,153.04,69.04,150.64,69.19z"/>
	<path class="st70" d="M65.74,49.82c0.73-0.49,1.45-0.97,2.18-1.46c6.78-2.11,13.25-5.1,20.16-6.81c0.68-0.17,1.39-0.22,2.09-0.32
		c0.23,2.06,0.96,3.7,3.31,4.02c2.76,1.39,5.85,0.82,8.74,1.42c2,0.41,4.01,0.67,5.43,2.36c0.04,2.2-1.42,3.07-3.22,3.64
		c-4.33-0.95-8.69-1.51-13.12-0.68C84.6,48.93,79.33,52.47,74,55.77c-2.52-0.13-4.75,0.37-6.11,2.79c-0.95-0.76-1.9-1.52-2.85-2.28
		C63.19,53.91,62.81,51.69,65.74,49.82z"/>
	<path class="st71" d="M107.56,49.11c-3.85-1.62-7.94-1.94-12.05-2.17c-1.07-0.06-2.23,0.11-2.39-1.43c3.92-2.47,8.7-3.3,12.23-6.5
		c1.69,0,3.38,0,5.07,0.01c0.25,1.8-2.12,1.2-2.34,2.68c0.9,0.45,1.29-0.72,2.03-0.72c1.14,0.32,1.86,1.63,3.25,1.37
		c0.81-0.04,1.61-0.32,2.43-0.15c1.82,2.03,5.22,1.85,6.5,4.64c-0.78,2.82,0.77,5.34,1.02,8.03c-2.12,3.86-5.32,1.19-7.99,1.16
		c-1.35-0.01-2.79-0.47-4.23-0.46c-0.05-0.11-0.16-0.24-0.13-0.32C112.14,51.92,111.23,49.76,107.56,49.11z"/>
	<path class="st72" d="M121.88,46.86c-1.81-1.9-5.18-1.45-6.42-4.23c0.52-2.99-2.44-2.47-3.7-3.68c4.29-1.32,8.69-0.34,13.03-0.65
		c4.46,2.23,8.87,4.66,14.14,4.01c1.16,0.68,2.18,1.56,3.26,2.37c0.27,0.98-0.06,1.7-0.91,2.22c-0.08,0.09-0.21,0.16-0.24,0.26
		c-1.14,4.46-1.19,4.6-5.84,3.08c-3.03-0.99-6.29-1.5-8.92-3.54c-0.73-0.57-1.52-0.68-2.19,0.17
		C123.36,47.55,122.62,47.55,121.88,46.86z"/>
	<path class="st73" d="M105.34,39.02c-2.82,4.53-7.63,5.31-12.23,6.5c-3.33,0.18-4.41-1.18-2.95-4.29c0.52,0,1.04,0,1.57,0
		c0.49,0.92,1.11,2.35,2.24,1.18c2.13-2.21,4.68-2.39,7.42-2.36c0.74,0.01,1.29-0.5,1.8-1.01
		C103.91,39.03,104.63,39.02,105.34,39.02z"/>
	<path class="st74" d="M139.18,42.59c-4.2,1.53-11.24-0.56-14.38-4.29c0.47-0.02,0.93-0.05,1.4-0.07c0.26,0.02,0.52,0.04,0.79,0.07
		c2.78,0.9,5.58,1.72,8.3,2.72c0.87-1.32-0.9-1.68-0.57-2.62c1.3-0.01,2.61-0.02,3.91-0.02C140.21,39.6,140.44,41,139.18,42.59z"/>
	<path class="st75" d="M111.77,38.96c0.58,0.02,1.17,0.04,1.75,0.06c3.48,0.13,3.7,0.54,1.94,3.62c-0.73,0.23-1.46,0.47-2.19,0.7
		c-0.3-1.59-1.56-1.88-2.85-2.11c-0.25,0.38-0.6,0.73-0.73,1.14c-0.34,1.09-1.16,1.13-1.98,0.87c-0.51-0.16-1.15-0.59-1.3-1.04
		c-0.32-0.93,0.5-1.46,1.12-2.01c0.82-0.74,2.17-0.16,2.88-1.16C110.86,39,111.32,38.98,111.77,38.96z"/>
	<path class="st76" d="M103.19,39.04c0.04,1.3-0.75,2.41-1.86,1.98c-3.2-1.23-5.12,0.07-6.9,2.55c-0.62,0.86-2.07,0.81-2.96,0.16
		c-1.06-0.79-0.07-1.69,0.26-2.51C95.39,39.63,99.35,39.62,103.19,39.04z"/>
	<path class="st77" d="M178.85,41.84c-3.13,0.92-6.28-0.39-9.42,0.06c-4.19,1.21-8.24-0.4-12.35-0.68
		c-1.19-0.08-2.34-0.48-3.53-0.57c-0.39-0.04-0.77-0.13-1.14-0.24c-0.91-0.52-2.39-0.41-2.3-2.05c9.4,0.46,18.84,0.64,28.08,2.77
		C178.4,41.37,178.63,41.6,178.85,41.84z"/>
	<path class="st78" d="M150.1,38.36c0.71,0.45,1.41,0.89,2.12,1.34c-3.74,0.98-6.93,3.08-10.18,5.05c-1.59,0.12-2.74-0.34-2.86-2.16
		c0.09-1.44,0.16-2.88-0.54-4.22C142.46,38.37,146.28,38.37,150.1,38.36z"/>
	<path class="st79" d="M134.72,38.4c0.75,1.15,3.74,0.81,2.6,2.94c-0.77,1.43-2.92,0.82-4.18-0.04c-1.92-1.32-4.69-0.82-6.15-2.99
		C129.57,38.34,132.15,38.37,134.72,38.4z"/>
	<path class="st80" d="M90.94,51.26c4.64-1.3,9.19-0.81,13.69,0.71c-0.31,2.49-1.66,4.31-3.64,5.75c-2.51,1.29-5.23,0.36-7.84,0.7
		c-1.37,0.18-2.87-0.19-3.63,1.43c-1,1.28-2.18,2.49-1.87,4.34c-0.66,2.2-2.19,2.07-3.9,1.46c-5.55-1.77-11.38-2.93-15.86-7.1
		c0.75-3.78,1.77-4.31,5.71-3.01c0.35,2.1,1.6,2.83,3.69,2.71c2.13-0.12,4.26-0.11,6.38-0.53C87.42,57,89.72,54.77,90.94,51.26z"/>
	<path class="st81" d="M87.36,63.5c-1.57-2.57,0.41-3.05,2.17-3.64c1.89-0.09,3.37,0.99,4.92,1.8c4.19,2.16,4.41,3.28,1.51,6.78
		c-1.48-0.02-3.04,0.56-4.37-0.58C90.35,66.23,90.2,63.56,87.36,63.5z"/>
	<path class="st82" d="M87.36,63.5c3.49-0.66,4.1-0.03,4.23,4.35c-2.86,0.18-5.31-1.15-7.83-2.19C85.55,65.92,86.8,65.29,87.36,63.5
		z"/>
	<path class="st46" d="M65.74,49.82c-1.9,1.98-1.64,4.19-0.69,6.47C61.79,53.47,61.99,51.61,65.74,49.82z"/>
	<path class="st83" d="M142.04,44.75c2.59-3.31,5.77-5.42,10.18-5.05c0.19,0.02,0.37,0.05,0.56,0.08c0.96,0.51,1.96,0.98,2.16,2.22
		c0.23,3.15-2.46,4.03-4.32,5.55c-0.44,1.48-0.89,2.96-1.33,4.44c-1.76,1.08-3.74,0.9-5.59,0.65c-3.82-0.52-1.81-3.72-2.41-5.73
		C141.54,46.19,141.79,45.47,142.04,44.75z"/>
	<path class="st84" d="M121.88,46.86c0.74,0.01,1.48,0.01,2.22,0.02c1.19,0.75,2.38,1.51,0.76,2.98c0.39,1.37,0.97,2.63,2.1,3.56
		c1.28,0.96,0.35,1.92-0.01,2.87c-1.46,0.16-2.82,0.05-3.65-1.41C121.23,52.49,120.2,49.91,121.88,46.86z"/>
	<path class="st85" d="M126.96,53.42c-2.58-0.08-3.24-1.29-2.1-3.56C127.76,49.75,128.18,51.1,126.96,53.42z"/>
	<path class="st86" d="M101,57.72c0.88-2.13,2.22-3.96,3.64-5.75c1.25-0.68,2.19-1.66,2.93-2.86c5.57-0.04,6.24,1.19,3.52,6.46
		c-1.48,0.69-1.49,2.03-1.39,3.35c0.26,3.35-1.2,4.69-4.58,4.64c-3.42-0.06-4.31-1.82-4.09-4.77
		C101.05,58.44,101.01,58.08,101,57.72z"/>
	<path class="st87" d="M150.62,47.56c0.59-2.32,3.95-2.81,3.73-5.66c3.14,0.65,5.97,2.06,8.72,3.63c1.3,0.74,2.77,1.61,2.03,3.6
		c-0.42,0.91-0.55,1.97-1.32,2.72C159.66,49.58,155.66,46.97,150.62,47.56z"/>
	<path class="st88" d="M163.77,51.84c-0.15-1.02-0.39-2.05,0.62-2.82c4.29-1.06,7.22,1.87,6.53,6.55c-0.28,0.46-0.57,0.92-0.85,1.38
		c-0.69-0.22-1.38-0.44-2.07-0.67c-1.69-1.19-2.95-2.81-4.3-4.33L163.77,51.84z"/>
	<path class="st89" d="M163.69,51.96c2.76,0.13,3.27,2.49,4.3,4.33C164.11,56.05,163.08,55.01,163.69,51.96z"/>
	<path class="st90" d="M170.92,55.58c-0.38-3.93-2.55-6.11-6.53-6.55c0.43-3.23-2.57-3.1-4.23-4.06c-1.88-1.09-4.24-1.32-5.81-3.07
		c-0.52-0.71-1.04-1.41-1.56-2.12c5.55,0.71,11.1,1.41,16.65,2.12c0.01,2.24,0.95,3.95,2.92,5.06c-1.02,2.9,1.18,4.87,2.11,7.2
		c-0.07,0.61-0.33,1.45-0.96,0.68C171.88,52.85,171.63,54.85,170.92,55.58z"/>
	<path class="st91" d="M174.46,54.16c-1.89-2.05-5.29-3.67-2.11-7.2c1.65,0.03,3.3,0.06,4.95,0.1c0.46,0.42,0.43,0.9,0.19,1.41
		c-0.44,0.44-1.47,0.52-1.5,0.78c-0.09,0.81,0.81,0.44,1.25,0.62c0.93,0.38,1.91,0.87,2,1.86c0.41,4.47,3.05,2.69,5.33,1.99
		c0.54-0.08,1.03,0.03,1.44,0.41c-0.28,2.6-1.95,3.52-4.32,3.61C178.51,58.11,175.72,57.69,174.46,54.16z"/>
	<path class="st92" d="M181.05,46.96c-0.6-1-2.1-1.13-2.49-2.68c2.55-0.24,4.59,0.86,6.63,1.89c0.76,0.39,1.5,0.91,1.42,1.85
		c-0.12,1.38-1.38,0.97-2.21,1.21C182.7,49.33,181.55,48.61,181.05,46.96z"/>
	<path class="st93" d="M181.05,46.96c1.12,0.76,2.23,1.52,3.35,2.28c0.62,1.6,2.19,2.9,1.62,4.9c-0.47,0.01-0.94,0.02-1.41,0.03
		c-1.9-2.63-4.46-4.46-7.3-5.94c0-0.39,0-0.78,0-1.16C178.56,47.02,179.8,46.99,181.05,46.96z"/>
	<path class="st94" d="M90.94,51.26c-0.02,4.71-3.26,7.38-9.7,7.89c-1.78,0.14-3.57,0.02-5.36,0.03c-2.73,0.02-3.41-1.23-2.27-3.63
		C78.12,50.54,86.55,48.45,90.94,51.26z"/>
	<path class="st95" d="M110.42,41.22c0.98-0.76,2.1-1.4,3.19-0.44c0.93,0.82-0.01,1.72-0.34,2.55
		C111.75,43.41,110.49,43.13,110.42,41.22z"/>
	<path class="st96" d="M147.84,50.75c-1.9,0.48-3.58,0.99-4.61-0.52c-1.07-1.57-0.4-3.35,0.71-4.65c1.84-2.15,3.57-4.66,6.96-4.39
		c0.88,0.07,1.76,0.42,1.68,1.47c-0.07,0.97-0.91,1.58-1.78,1.25c-2.12-0.8-3.38,0.12-4.48,1.78
		C144.92,47.78,146.83,48.93,147.84,50.75z"/>
	<path class="st97" d="M110.4,52.2c-0.15,1.39-1.13,1.59-2.22,1.97c-2.39,0.82-3.62,2.33-1.9,4.84c0.52,0.76,1.61,1.36,0.94,2.43
		c-0.52,0.83-1.49,0.6-2.29,0.33c-1.15-0.39-2.22-0.87-2.38-2.34c-0.24-2.32,4.07-8.01,6.41-8.52
		C110.25,50.62,110.38,51.31,110.4,52.2z"/>
	<path class="st98" d="M177.31,48.22c3.89,0.18,6.42,2.05,7.3,5.94c-1.25,2.16-3.35,1.4-5.18,1.44c-1.25,0.03-1.15-0.77-0.86-1.73
		c0.61-2.05-0.14-3.23-2.37-3.38c-1.11-0.08-2.86,0.19-2.74-1.37c0.1-1.21,1.81-0.52,2.78-0.74
		C176.59,48.3,176.95,48.27,177.31,48.22z"/>
	<path class="st99" d="M89.41,53.25c-0.45,1.31-1.32,2.02-2.67,1.16c-3.17-2-5.39-0.34-7.49,1.81c-0.57,0.58-0.85,1.5-1.87,1.47
		c-0.68-0.02-1.51,0.26-1.92-0.52c-0.34-0.66,0.24-1.12,0.65-1.52c3.22-3.1,7.47-3.5,11.54-4.28C88.66,51.17,89.39,52,89.41,53.25z"
		/>
</g>
</svg>
