<?xml version="1.0" encoding="utf-8"?>
<!-- Generator: Adobe Illustrator 23.0.2, SVG Export Plug-In . SVG Version: 6.00 Build 0)  -->
<svg version="1.1" id="Camada_1" xmlns="http://www.w3.org/2000/svg" xmlns:xlink="http://www.w3.org/1999/xlink" x="0px" y="0px"
	 viewBox="0 0 224.06 149.18" style="enable-background:new 0 0 224.06 149.18;" xml:space="preserve">
<style type="text/css">
	.st0{fill:#010002;}
	.st1{fill:#40160A;}
	.st2{fill:#C85A23;}
	.st3{fill:#CA5F2B;}
	.st4{fill:#CC6835;}
	.st5{fill:#5C1E17;}
	.st6{fill:#6A261B;}
	.st7{fill:#CF7438;}
	.st8{fill:#4E1910;}
	.st9{fill:#FDFDFD;}
	.st10{fill:#454545;}
	.st11{fill:#484949;}
	.st12{fill:#62241A;}
	.st13{fill:#3B140A;}
	.st14{fill:#3F3F3E;}
	.st15{fill:#5D5D5C;}
	.st16{fill:#A94B18;}
	.st17{fill:#BA531C;}
	.st18{fill:#9E381B;}
	.st19{fill:#90331D;}
	.st20{fill:#99351C;}
	.st21{fill:#92341D;}
	.st22{fill:#B23E16;}
	.st23{fill:#491810;}
	.st24{fill:#AB4C19;}
	.st25{fill:#C85B25;}
	.st26{fill:#AD3E16;}
	.st27{fill:#B04317;}
	.st28{fill:#C85B24;}
	.st29{fill:#CC6735;}
	.st30{fill:#DA943B;}
	.st31{fill:#EAC042;}
	.st32{fill:#E2AA3F;}
	.st33{fill:#CB6534;}
	.st34{fill:#E4B03F;}
	.st35{fill:#F3DD45;}
	.st36{fill:#B23D17;}
	.st37{fill:#682319;}
	.st38{fill:#E6B640;}
	.st39{fill:#E0A53D;}
	.st40{fill:#DA913B;}
	.st41{fill:#E3AD3F;}
	.st42{fill:#EDC642;}
	.st43{fill:#F3DB45;}
	.st44{fill:#D07738;}
	.st45{fill:#EAC242;}
	.st46{fill:#FCFDFD;}
	.st47{fill:#D47E34;}
	.st48{fill:#DEA03D;}
	.st49{fill:#EFEEEE;}
	.st50{fill:#3A3A39;}
	.st51{fill:#B1D1E5;}
	.st52{fill:#2A2929;}
	.st53{fill:#DFEDF2;}
	.st54{fill:#C4E0EF;}
	.st55{fill:#535150;}
	.st56{fill:#DFA03D;}
	.st57{fill:#D27D38;}
	.st58{fill:#ECC442;}
	.st59{fill:#D58539;}
	.st60{fill:#EAC342;}
	.st61{fill:#AFCCDF;}
	.st62{fill:#EBC542;}
	.st63{fill:#F1D244;}
</style>
<g>
	<path class="st0" d="M154.06,143.43c-32.68-0.66-63.01-4.96-92.24-15.84c-12.07-4.5-21.01-19.16-17.88-32.28
		c1.49-6.26,2.38-12.44,7.37-17.04c0.64-0.59,0.58-1.13,0.19-1.89c-2.99-5.81-6.16-11.43-12.61-14.16
		c-0.66-0.28-1.35-0.55-1.93-0.96c-4.99-3.55-9.79-4.91-16-1.93c-5.31,2.54-11.7-0.39-14.09-4.82c-2.31-4.28-0.94-10.39,3.23-14.41
		c0.35-0.33,0.65-0.74,1.06-0.97c3.95-2.23,7-4.88,8.4-9.7c1.13-3.86,6.25-5.41,10.27-4.41c1.14,0.28,2.35,0.31,3.53,0.44
		c1.48,0.16,2.16-0.35,2.05-2c-0.29-4.47,2.86-8.01,3.51-12.25c0.08-0.51,0.68-0.96,1.1-1.38c5.03-5.11,19.07-4.84,23.84,0.45
		c0.48,0.53,1.16,1.11,1.23,1.72c0.67,5.63,5.3,6.49,9.42,7.63c5.76,1.6,11.59,2.74,17.71,2.46c12.12-0.56,24.35-0.83,35.96,3.29
		c5.48,1.95,10.26,2.35,15.95,0.59c8.11-2.5,16.83-2.9,25.24-2.49c5.86,0.28,11.63,2.35,17.27,5.23
		c9.52,4.85,15.98,12.85,23.5,19.73c6.58,6.02,7.34,14.25,6.36,22.6c-1.1,9.36-2.47,18.68-3.71,28.03
		c-2.08,15.7-10.12,28.24-23.06,36.43c-6.82,4.32-15.39,7.03-24.07,7.38C161.25,143.05,156.82,143.29,154.06,143.43z"/>
	<path class="st1" d="M208.15,95.11c-0.73,13.91-6.13,24.92-17.89,33.28c-11.01,7.83-22.87,10.86-36,10.64
		c-29.28-0.49-58.02-4.18-85.86-13.73c-6.71-2.3-11.88-6.8-16.58-11.59c-4.78-4.87-4.63-11.45-3.17-17.88
		c1.4-6.17,2.47-12.47,7.98-16.68c0.68-0.52,1.16-1.23,0.5-2.16c-3.71-5.21-5.43-11.81-10.93-15.78c-0.53-2.08-1.51-4.12-0.5-6.32
		c0.42-0.68,0.98-1.09,1.82-0.99c0.45,0.38,0.57,0.88,0.57,1.44c-0.43,1.55,0.01,2.88,1.23,3.85c6.09,4.85,9.08,11.96,13.17,18.22
		c4.97,7.6,11.02,13.79,19.33,17.63c2.15,1.31,4.64,1.93,6.79,3.25c0.85,1.72,2.27,1.86,3.92,1.42c0.36,0.08,0.67,0.24,0.95,0.47
		c0.95,1.23,1.11,2.38-0.36,3.35c-1.04,0.41-2.11,0.35-3.14,0.02c-6.45-2.06-12.72-4.52-18.25-8.53c-3.59-2.98-6.97-6.13-9.87-9.83
		c-2-2.55-2.91-2.51-4.6,0.06c-4.41,6.74-5.93,14.27-3.69,21.92c2.1,7.16,8.48,10.61,14.71,13.82c0.96,0.49,2.03,0.69,3.03,1.11
		c7.04,3.42,14.89,3.35,22.32,5.09c10.02,2.35,20.18,3.91,30.46,4.68c15.61,1.53,31.22,3.14,46.88,0.49
		c1.79-0.3,3.51-0.72,5.14-1.49c5.94-2.49,12.1-4.67,16.54-9.68c3.75-4.22,7.01-8.79,8.97-14.16c1.62-3.03,3.24-6.05,4.24-9.36
		C206.37,96.58,206.37,95.03,208.15,95.11z"/>
	<path class="st2" d="M208.15,95.11c-0.9,0.74-1.11,1.84-1.48,2.86c-11.27-2.31-21.36-7.36-31.26-13.04
		c-7.39-4.24-15.28-6.97-24.06-4.81c-5.94,1.46-10.39,5.33-14.81,9.18c-2.89,2.51-5.62,5.24-8.1,8.16
		c-2.85,3.35-4.78,7.15-5.13,11.65c-0.17,2.16-0.73,4.25-1.7,6.21c-0.48,0.97-1.05,2.44-1.97,2.42c-3.68-0.05-4.04,2.8-5.04,5.17
		c-0.13,0.32-0.5,0.5-0.81,0.7c-1.3,0.58-2.58,0.25-3.87-0.06c-8.4-2.01-16.49-4.93-24.36-8.46c-4.52-2.03-4.76-3.89-0.8-6.81
		c3.07-2.26,6.41-4.18,10.32-4.73c4.59,0.75,9.23,0.58,13.86,0.8c8.09,0.39,11.75-1.89,14.84-9.42c0.5-1.21,0.92-2.45,1.57-3.59
		c0.72-0.87,1.95-1.11,2.6-2.08c5.71-4.47,10.77-9.72,16.87-13.71c2.23-1.46,4.45-2.75,7.16-2.98c2.93-0.01,5.85-0.23,8.77,0.15
		c7.89,2.07,14.45,6.79,21.44,10.67c5.95,3.29,11.81,6.81,18.61,8.26c2.14,0.45,4.31,0.06,6.41,0.65c0.35,0.15,0.65,0.37,0.91,0.65
		C208.14,93.67,208.15,94.39,208.15,95.11z"/>
	<path class="st3" d="M128.23,90.07c-0.65,0.34-0.99,1.6-2.06,0.72c-0.79-1.67,0.23-2.97,0.87-4.35c0.18-0.3,0.38-0.58,0.6-0.85
		c1.11-2.82,2.76-5.26,4.99-7.31c0.79-0.73,1.52-1.52,2.2-2.35c7.02-8.58,7.1-11.45,0.55-20.41c-1.13-1.54-2.2-3.11-3.27-4.69
		c-0.84-1.25-1.36-2.57,0-3.86c6.91-2.54,14-3.77,21.36-3.01c2.21,0.56,3.28,2.05,3.88,4.22c0.83,2.99,2.07,5.85,3.01,8.82
		c1.3,4.12,3.87,7.31,7.23,10.02c5.4,4.36,10.96,8.5,16.76,12.31c6.39,4.2,13.3,7.05,21.01,7.69c1.44,0.12,2.81,0.54,4.19,0.92
		c-0.02,1.8-0.08,3.59-1.41,5.02c-0.24,0-0.47,0-0.71,0c-1.64-1.41-3.69-0.63-5.53-0.97c-9.92-1.84-17.99-7.55-26.45-12.44
		c-4.56-2.63-8.99-5.53-13.88-7.47c-5.27-2.1-10.68-2.22-15.23,1.75c-5.4,4.72-11.11,9.07-16.27,14.06
		C129.38,88.54,128.73,89.24,128.23,90.07z"/>
	<path class="st4" d="M209.54,87.93c-2.33,0.6-4.63-0.03-6.91-0.32c-9.19-1.19-16.83-5.89-24.17-11.12
		c-4.17-2.97-8.18-6.18-12.23-9.32c-4.16-3.23-6.48-7.66-7.63-12.65c-0.62-2.69-2.55-4.88-2.56-7.79c0-0.66-1.24-1.32-1.9-1.98
		c1.4-1.42,3.21-0.96,4.89-1.07c2.9,0.07,5.84-0.33,8.68,0.62c0.97,0.28,1.87,0.7,2.57,1.45c1.48,1.74-0.13,3.66,0.38,5.53
		c3.95,14.71,13.75,23.52,27.92,28.01c1.49,0.47,3.05,0.51,4.62,0.33c5.8-0.66,5.8-0.65,6.27,4.2c0.03-0.24-1.1-1.46,0.81-1.67
		C210.03,84.08,209.79,86,209.54,87.93z"/>
	<path class="st5" d="M132.55,32.46c1.95,1.18,3.79,1.1,5.9,0.11c7.95-3.77,16.48-3.97,25.05-3.71c5.43,1.72,10.69,3.94,16.1,5.71
		c1.13,0.37,2.33,0.64,3.25,1.42c1.62,1.38,0.65,1.91-0.81,2.21c-5.25-0.59-10.02-3.15-15.29-3.66c-5.74-0.9-11.44,0.14-17.16,0.37
		c-5.87,0.05-11.17,2.56-16.74,3.91c-5.4,1.53-10.59,3.66-15.81,5.69c-5.77,2.26-11.21,5.21-16.4,7.76c2.3,0.19,4.75,0.49,6.32,2.97
		c0.2,0.55-0.74,1.31,0.56,1.74c0.85,0.28,1,1.3-0.14,1.85c-1.72,0.35-3.03-0.76-4.52-1.23c-1.75-0.69-3.62-0.98-5.43-1.46
		c-1.1-0.41-2.31-0.4-3.4-0.86c-0.29-0.16-0.5-0.4-0.65-0.7c0.67-1.8-2.53-1.84-1.7-3.72c0.99-0.64,2.26-0.51,3.24-1.2
		c6.47-3.57,13.3-6.37,20.12-9.17c3.23-1.66,6.75-2.4,10.2-3.41c1.89-0.55,4.12-0.56,5.32-2.58
		C131.01,33.61,131.58,32.83,132.55,32.46z"/>
	<path class="st6" d="M182.18,37.53c2.03-1.31-0.37-1.2-0.54-1.27c-5.29-2-10.61-3.94-15.94-5.82c-0.93-0.33-1.79-0.6-2.2-1.58
		c5.61-0.91,10.37,2.06,15.49,3.38c14.13,3.65,22.76,13.7,29.99,25.53c2.83,4.63,4.46,9.12,1.93,14.33
		c-0.33,0.16-0.65,0.13-0.94-0.1c-5.45-12.93-15.45-22.23-25.24-31.7C183.93,39.34,182.12,39.29,182.18,37.53z"/>
	<path class="st7" d="M210.31,72.06c0.2,0.05,0.4,0.06,0.61,0.04c0.48,3.4-0.02,6.73-0.65,10.06c-0.9,0.42-0.39,1.55-1.12,2.17
		c-0.71-1.23,0.28-2.95-1.1-3.86c-1.36-0.9-2.72-0.16-4.13,0.05c-5.25,0.76-9.9-1.18-14.28-3.73c-5.62-3.27-11.31-7.12-14.48-12.58
		c-3.06-5.27-6.88-11.04-5.19-17.99c3.09-1.55,4.68,1.48,7,2.29c0.26,0.25,0.4,0.55,0.43,0.9c-0.63,1.71-1.82,1.99-2.94,1.54
		c2.94,5.44,4.48,12.19,9.63,16.8c0.47,0.46,1,0.84,1.53,1.23c4.21,3.83,8.93,6.71,14.71,7.19c4.3,0.36,4.89-0.4,4.65-4.6
		c1.56-1.02,2.38,0.37,3.12,1.19C209.55,74.3,209.67,72.53,210.31,72.06z"/>
	<path class="st8" d="M91.49,51.29c0.58,1.02,3.95,0.02,2.06,2.84c-0.85,0.78-1.86,0.76-2.9,0.57c-2.38-0.66-4.81-0.27-7.22-0.36
		c-1.48-0.04-2.99,0.08-4.39-0.55c-4.01-1.76-8.23-0.51-12.34-0.88c-1.66-0.15-3.51,0.31-5.08-1.62c3.2-1.02,6.21,0.11,9.01-0.78
		c0.59-0.01,1.19-0.03,1.78-0.04c6.71-0.06,6.68-0.04,3.42-6.1c-1.96-3.64-4.92-6.36-8-8.99c-0.79-1.42-0.17-2.94-0.31-4.4
		c-0.01-1.9,0.65-3.7,0.79-5.57c0.18-0.98,0.53-1.86,1.53-2.29c2.66,0.77,5.53,0.77,8.04,2.11c3.36,2.25,7.31,2.02,10.99,2.09
		c7.51,0.15,15.03-0.48,22.56,0.07c4.68,0.34,9.22,1.31,13.73,2.43c1.19,0.3,3.97,0.44,2.17,3.19c-0.82,0.27-1.67,0.27-2.47,0.03
		c-10.49-3.1-21.27-2.27-31.98-2.44c-4.77-0.07-9.48-0.52-14.16-1.34c-1.73-0.56-3.34-1.71-5.31-1.11
		c-0.13,2.37-2.48,4.55-0.53,7.07c3.63,3.46,6.88,7.21,8.94,11.85c1.03,2.33,2.74,3.38,5.35,3.25
		C88.64,50.24,90.3,49.89,91.49,51.29z"/>
	<path class="st9" d="M71.57,45.94c-9.82,1.22-18.45-1.44-27.07-4.42c-3.31-1.14-1.38-3.89-2.56-6.09c3.73,0.43,7.12,0.3,10.01-1.97
		c0.49-0.39,1.05-0.6,1.65-0.2c5.42,3.66,12.09,5.38,16.43,10.68C70.46,44.49,70.88,45.05,71.57,45.94z"/>
	<path class="st10" d="M46.3,54.75c-0.04,2.16-0.07,4.32-0.11,6.47c-5.6-3.14-11.2-6.28-16.8-9.43c-1.34-0.75-2.26,0.32-3.28,0.81
		c-3.12,1.5-6.13,3.28-9.82,2.94c-2.61-0.25-4.54-1.38-5.58-3.83c-1.03-2.43-0.65-4.69,1.02-6.71c1.78-2.15,3.82-4.04,6.59-4.74
		c2.24-0.56,3.21-1.64,3.58-4.09c0.84-5.62,2.89-7.45,7.05-7.27c5.37,0.23,8.05,2.92,8.58,8.61c-0.76,0.4-1.31-0.03-1.87-0.45
		c-1.15-1.22-1.94-2.77-3.32-3.76c-1.72-1.23-3.5-2.24-5.43-0.35c-0.36,0.54-0.76,1.03-1.37,1.28c-1.22,5.04-4.34,7.96-9.22,9.89
		c-3.12,1.23-4.09,5.32-2.87,7.26c1.32,2.1,5.59,2.38,8.52,0.55c0.61-0.38,1.11-0.91,1.68-1.34c4.01-3.06,5.46-3.11,9.57-0.25
		c0.7,0.49,1.37,0.94,2.26,0.94c2.23,0.24,3.82,1.88,5.82,2.63c0.9,0.34,1.9,1.42,2.66-0.22c0.29-0.62,0.59-1.22,1.41-1.23
		C46.21,53.01,46.48,53.79,46.3,54.75z"/>
	<path class="st11" d="M68.36,30.75c0.32,1.6,0.1,3.14-0.53,4.64c-4.64-1.85-9.41-3.5-12.9-7.35c-0.94-1.04-1.79-1.51-3-0.41
		c-0.61,0.56-1.37,0.96-2.02,1.49c-2.41,1.96-5.05,3.03-7.8,0.93c-2.65-2.03-3.23-7.09-1.25-9.85c0.85-1.19,1.73-2.19,1.62-3.8
		c-0.21-3.09,1.79-4.79,4.39-5.27c3.12-0.57,6.39-0.92,9.51,0.35c-0.58,0.87-1.43,0.51-2.21,0.49c1.23,0.49,2.67,0.09,3.82,0.81
		c1.31,0.81,1.86,1.68-0.12,2.38c-2.17,0.2-4.22-0.53-6.34-0.76c-3.43-0.37-4.92,0.44-5.88,3.65c-0.49,1.63-1.15,3.11-2.18,4.44
		c-1.26,2.32-0.69,4.41,1.73,5.01c1.73,0.43,4.03-0.11,3.79-3.01c0.56-1.95,2.06-1.38,3.39-1.26c4.35,1.62,8,4.62,12.35,6.22
		C65.9,29.99,67.12,30.4,68.36,30.75z"/>
	<path class="st12" d="M127.26,32.62c0.43-1.78-1.28-1.71-2.03-1.89c-5.08-1.2-10.17-2.41-15.44-2.58
		c-8.82-0.29-17.69,0.75-26.47-0.73c-2.57-0.43-5.11-1-7.79-1.52c0.73-0.98,1.63-0.44,2.35-0.66c5.37,1.02,10.7,1.57,16.24,1.1
		c11.34-0.96,22.61-0.09,33.55,3.28c1.75,0.54,3.26,1.88,4.88,2.85c0.11,1.15-1.08,1.44-1.48,2.26
		C129.3,34.94,127.96,34.37,127.26,32.62z"/>
	<path class="st13" d="M46.3,54.75c-0.31-0.75-0.62-1.51-0.93-2.26c-0.58-0.56-0.55-1.23-0.39-1.94c0.51-1.06,0.93-2.19,1.87-2.98
		c7.85,1.62,15.66,3.49,23.78,2.94c-2.44,1.58-5.33-0.02-8.88,1.39c5.45,0,9.87-0.04,14.28,0.03c1.18,0.02,2.79-0.66,3.23,1.31
		c-0.53,0.75-1.34,1.02-2.18,1.02c-7.83-0.05-15.72,0.91-23.4-1.4c-2.38-1.22-4.34-0.24-6.21,1.21
		C47.08,54.29,46.69,54.52,46.3,54.75z"/>
	<path class="st14" d="M46.85,47.57c0.08,1.21-0.16,2.28-1.33,2.93c-4.72-1.03-8.34-3.93-11.82-7.03c-1.05-0.93-1.27-2.05,0.37-2.78
		c0.9-0.4,1.04-1.23,1.14-2.08c0.11-0.71,0.28-1.4,0.92-1.84c0.47,0.25,0.94,0.5,1.41,0.75c-0.3,5.77,3.22,8.12,8.19,9.23
		C46.14,46.84,46.48,47.29,46.85,47.57z"/>
	<path class="st15" d="M57.5,14.56c0.56-0.21,1.79-0.37,0.33-1.03c-1.45-0.65-3.04-0.98-5.54-1.74c2.04-0.15,3.07-0.23,4.09-0.31
		c3.24-0.09,5.28,2.09,5.34,4.68c0.08,3.7,2.29,4.52,4.89,5.49c1.11,0.42,2.16,0.97,3.23,1.47c-0.23,0.75-0.47,1.5-0.7,2.25
		c-2.63,0.98-4.64-0.29-6.57-1.83c0.29-1.34,1.15-0.55,1.55-0.72c-2.16-0.43-4.11-1.74-5.41-3.93
		C58.32,17.45,57.67,16.07,57.5,14.56z"/>
	<path class="st16" d="M202.38,107.34c-4.65,11.86-12.73,20.1-25.09,23.85c-15.22,1.87-30.35,1.85-45.31-2.06
		c-0.93-0.24-1.86-0.49-2.66-1.04c-0.36-0.24-0.55-0.59-0.58-1.02c6.13-3.32,7.22-9.01,7.16-15.24c-0.01-1.68-0.03-3.36,0.01-5.04
		c0.18-9.37,8.08-17.78,17.34-19.15c8.7-1.28,16.6,0.74,24.34,4.39c7.35,3.47,14.24,7.97,22.23,10.06
		C202.46,102.79,203.36,104.7,202.38,107.34z"/>
	<path class="st17" d="M202.38,107.34c0.17-3.43-1.99-4.49-4.89-5.05c-5.03-0.97-9.23-3.91-13.74-6.1
		c-7.2-3.5-14.24-7.18-22.46-8.01c-11.42-1.16-25.28,6.25-24.49,19.69c0.32,5.46,0.46,10.95-2.69,15.98
		c-1.33,2.13-2.78,3.14-5.19,2.95c-0.91,0.78-1.96,0.83-3.05,0.57c-3.15-0.76-6.36-1.23-9.46-2.17c-1.06-0.32-2.5-0.32-2.6-1.98
		c0.34-1.02,1.03-2.06,0.96-3.04c-0.2-2.82,0.07-4.49,3.42-2.59c0.93,0.53,1.45-0.59,1.88-1.24c1.41-2.14,2.23-4.59,2.3-7.07
		c0.14-4.83,2.13-8.91,5.18-12.27c5.2-5.73,10.61-11.35,17.43-15.27c6.82-3.93,13.96-4.16,21.37-1.8
		c8.04,2.56,14.85,7.52,22.36,11.13c4.42,2.13,8.97,3.99,13.84,4.63c1.88,0.24,3.09,0.88,4.12,2.26
		C205.56,101.24,204.11,104.36,202.38,107.34z"/>
	<path class="st18" d="M113.83,123.22c4.87,1.9,9.99,2.74,15.11,3.58c0,0.24,0.01,0.47,0.01,0.71c-1.28,1.21-3.62,1.53-2.74,4.43
		c0.37,1.22-1.39,0.97-2.38,0.65c-11.61-0.17-22.85-2.79-34.12-5.18c-5.55-1.18-11.37-1.13-16.66-3.53
		c-0.85-0.39-1.66-0.88-2.49-1.32c-0.18-1.33,0.84-1.32,1.61-1.25c2.97,0.28,2.49-1.07,1.53-2.9c-2.65-5.06-3.29-10.38-1.77-15.91
		c0.52-1.91,0.51-3.72-0.4-5.54c-0.46-0.92-1.28-2.17,0.62-2.63c6.43,4.07,13.15,7.45,20.74,8.76c0.73,0.5,2.22-0.38,2.32,1.27
		c-4.33,1.15-8.29,2.96-11.55,6.14c-1.24,1.21-1.51,1.98,0.36,2.82C93.61,117.64,103.35,121.54,113.83,123.22z"/>
	<path class="st19" d="M72.14,94.33c-0.16,0.17-0.48,0.46-0.46,0.49c2.82,3.74,0.92,7.6,0.47,11.5c-0.51,4.47,0.55,8.75,2.85,12.69
		c0.51,0.87,1.82,1.64,1.07,2.8c-0.77,1.2-2.17,0.65-3.3,0.52c-0.79-0.09-1.57-0.77-2.22,0.24c-6.97-1.94-12.34-6.18-16.54-11.9
		c-2.91-3.96-2.45-8.71-2.03-13.2c0.49-5.27,2.14-10.27,5.75-14.39c1.16-1.33,2.03-2.13,3.52-0.08
		C64.34,87.27,68.13,90.92,72.14,94.33z"/>
	<path class="st20" d="M81.49,95.74c-8.57-3.81-14.6-10.2-19.74-17.97c-4.1-6.2-6.95-13.43-13.22-18.1
		c-1.41-1.05-2.4-2.44-1.01-4.27c3.89,1.04,7.76,2.01,10.7,5.15c1.39,1.48,2.59,3.14,4.13,4.48c2.96,3.27,5.49,6.87,8,10.48
		c2.12,3.04,4.45,5.87,7.21,8.35c2.31,2.62,5.09,4.67,7.91,6.68c1.05,0.75,2.32,1.29,2.83,2.63c-0.16,2.65-1.89,3.24-4.09,2.99
		C83.3,96.06,82.45,95.57,81.49,95.74z"/>
	<path class="st21" d="M123.83,132.59c0.67-0.24,2.02,0.34,1.84-0.96c-0.46-3.49-0.55-3.48,3.28-4.13
		c13.68,3.78,27.66,3.96,41.7,3.64c2.2-0.05,4.44-1.06,6.64,0.03c-4.5,2.92-9.75,3.09-14.76,3.38c-12.5,0.73-24.99-0.21-37.45-1.38
		C124.65,133.15,124.24,132.8,123.83,132.59z"/>
	<path class="st22" d="M81.49,95.74c0.74-0.88,1.64-0.61,2.57-0.39c2.02,0.47,3.41-0.16,3.81-2.35c1.33-0.55,2.28,0.4,3.31,0.9
		c3.27,1.59,6.62,2.79,10.35,2.41c6.21-0.02,12.3-0.55,17.68-4.15c0.95-0.53,1.88-0.7,2.76,0.12c0.26,4.91-3.59,10.1-8.5,10.78
		c-5.96,0.83-11.91,0.16-17.77-1.21c-1.1-0.26-1.77-1.19-2.75-1.63c-0.23-0.07-0.47-0.09-0.71-0.09c-1.26-0.29-2.85,0.31-3.64-1.31
		C86.12,98.09,83.69,97.17,81.49,95.74z"/>
	<path class="st23" d="M92.96,100.22c5.12,1.24,10.28,2.12,15.59,2.09c8.33-0.05,10.88-1.92,13.25-10.1
		c-0.76-2.57,0.96-4.6,1.47-6.89c0.6-1.45,0.24-3.03,0.58-4.51c0.15-0.67,0.5-1.78,1.15-1.47c1.65,0.78,0.07-0.68,0.5-0.62
		c0.01-0.89,0.19-1.64,1.28-1.73c0.85,0.68,1.17,1.66,1.46,2.65c0.37,2.33,0.31,4.62-0.65,6.83c-0.47,1.44-0.95,2.87-1.42,4.31
		c-1.74,5.34-3.14,10.83-8.98,13.54c-2.05,0.95-4.21,1.36-6.27,1.2c-5.24-0.4-10.56,0.26-15.72-1.16c-0.77-0.43-1.55-0.85-2.32-1.28
		C94.23,102.17,93.4,101.19,92.96,100.22z"/>
	<path class="st24" d="M61.98,65.6c-2.51-1.41-3.64-4.22-6.05-5.82c-2.19-1.45-4.15-3.23-6.98-2.69c-1.72,0.33-1.22-0.9-1.44-1.68
		c-0.02-0.45-0.03-0.9-0.05-1.34c0.87-2.81,2.64-3.55,5.28-2.3c2.58,1.8,5.81,1.73,8.6,2.94c1.52,0.66,3.3,0.78,4.43,2.22
		C64.79,59.94,64.44,63.23,61.98,65.6z"/>
	<path class="st23" d="M88.62,98.83c1.11,0.73,2.65,0.24,3.64,1.31C90.44,101.38,88.82,102.08,88.62,98.83z"/>
	<path class="st25" d="M128.23,90.07c0.55-2.72,2.86-4.15,4.72-5.67c5.35-4.36,9.83-9.82,15.92-13.21c4.38-2.44,9.1-1.8,13.46,0.16
		c8.19,3.66,15.55,8.84,23.28,13.34c6.19,3.6,12.59,6.25,19.76,6.81c1.03,0.08,1.93,0.17,2.06,1.45
		c-9.54,0.86-17.26-4.06-25.01-8.35c-6.95-3.85-13.63-8.17-21.07-11.09c-3.36-0.81-6.72-0.48-10.08,0
		c-6.35,1.72-10.77,6.44-15.64,10.37C133.13,85.89,130.89,88.23,128.23,90.07z"/>
	<path class="st26" d="M103.53,113.84c-0.36,1.25-1.19,2.01-2.5,2.1c-1.21,0.08-2.19-0.43-2.19-1.75c0-1.32,0.99-1.77,2.19-1.79
		C102.12,112.38,103.18,112.44,103.53,113.84z"/>
	<path class="st27" d="M107.09,117.5c0.76,0.13,1.42,0.48,1.43,1.3c0.01,1.02-0.74,1.43-1.65,1.4c-0.76-0.03-1.41-0.46-1.42-1.28
		C105.42,117.9,106.18,117.57,107.09,117.5z"/>
	<path class="st28" d="M151.27,73.51c3.36-0.93,6.72-1.64,10.08,0C157.99,73.51,154.63,73.51,151.27,73.51z"/>
	<path class="st29" d="M127.4,79.3c-0.91-0.52-0.48-1.43-0.63-2.17c-0.26-0.25-0.57-0.52-0.62-0.85
		c-1.25-7.84-6.84-12.14-12.95-16.07c-1.25-0.8-2.85-1.37-3.15-3.16c2.43-2.86,5.27-5.17,8.75-6.66c2.78-0.77,5.33-2.22,8.16-2.88
		c1.63-0.08,3.29-1.19,4.88,0.11c0.19,3.11,2.54,5.09,4.22,7.25c7.73,9.93,6.44,13.46-1.82,22.97c-2.34,2.69-4.83,5.17-6.01,8.63
		C127.23,84.16,128.6,81.58,127.4,79.3z"/>
	<path class="st30" d="M131.84,47.62c-1.69,0.22-3.37,0.45-5.06,0.67c-3.12-3.7-2.42-6.79,2-8.41c1.2-0.44,2.36-1.06,3.65-1.24
		c0.06-0.01,0.16-0.21,0.14-0.3c-0.02-0.09-0.16-0.15-0.25-0.23c5.54-1.66,10.91-3.99,16.81-4.15c4.95,0.79,7.95,3.87,9.79,8.32
		c0.32,0.76,0.7,1.53,0.28,2.39c-1.69,0.03-3.37,0.05-5.06,0.08C146.51,44.22,139.16,45.82,131.84,47.62z"/>
	<path class="st28" d="M127.4,79.3c1.71,2.23,0.46,4.79,0.83,7.17c-0.21,0-0.43,0-0.64,0C127.53,84.08,127.46,81.69,127.4,79.3z"/>
	<path class="st31" d="M177.22,48.97c-2.79,0.05-4.38-3.02-7.25-2.76c-0.7-0.29-1.4-0.59-2.11-0.88c-0.74-3.42-0.52-7.02-2.17-10.29
		c-0.59-1.18,0.26-1.74,1.53-1.19c5.24,0.17,9.86,2.89,14.95,3.68c1,0.7,2,1.4,3,2.1c0.01,0.57,0.33,1.45-0.26,1.61
		C180.83,42.34,179.91,46.53,177.22,48.97z"/>
	<path class="st32" d="M167.24,33.85c-1.34,0.17-1.04,0.67-0.53,1.61c1.68,3.11,2.44,6.38,1.17,9.87c-2.82-1.19-5.79-0.39-8.67-0.67
		c-1.82-5.02-5.13-8.63-10.07-10.71c4.57-0.06,9.05-1.31,13.65-0.89C164.28,33.2,165.87,32.93,167.24,33.85z"/>
	<path class="st33" d="M72.04,35.36c-0.28-0.21-0.81-0.42-0.81-0.64c-0.07-2.56,0.31-5.04,1.51-7.34c1.07-0.01,1.95,0.57,2.91,0.92
		c0.33,0.14,0.64,0.33,0.94,0.53c7.55,5.3,16.05,7.17,25.12,6.99c3.65,0.34,7.23,1.16,10.88,1.43c2.66,0.2,3.6,1.39,2.77,3.94
		c-6.81,2.96-13.63,5.87-20.21,9.34c-1.48,0.74-2.11-0.52-2.96-1.26C86.02,43.83,79.52,38.88,72.04,35.36z"/>
	<path class="st34" d="M115.34,41.19c-0.11-0.03-0.33-0.05-0.33-0.09c-0.24-4.03-3.64-2.69-5.77-3.23c-2.48-0.64-5.1-0.76-7.66-1.1
		c-2.34-0.91-4.56-1.99-6.6-3.54c-2.87-2.19-6.49-1.2-9.74-1.74c-3.33-0.56-6.57-1.16-9.64-2.58c-0.22,0-0.43-0.03-0.64-0.06
		c0.59-1.87,1.88-0.93,2.98-0.75c5.02,1.04,10.09,1.35,15.21,1.38c9.19,0.04,18.43-0.71,27.5,1.52c2.2,0.54,4.4,1.08,6.6,1.63
		c1.27,0.7,2.54,1.4,3.81,2.1c1.44,1.67-0.27,1.61-1.1,1.89C125.13,38.22,120.05,39.11,115.34,41.19z"/>
	<path class="st35" d="M103.15,56.9c1.36,0.52,2.72,1.03,4.09,1.55c5.86,2.58,10.98,5.96,13.51,12.23
		c-1.84,2.27-3.45,4.89-6.92,4.84c-4.75-4.66-10.03-8.7-15.33-12.7C98.77,60.9,101.65,57.23,103.15,56.9z"/>
	<path class="st36" d="M72.04,35.36c1.48-0.18,2.83,0.17,4.09,0.97c6.43,4.07,12.84,8.15,18.02,13.86c0.21,0.23,0.66,0.23,1,0.34
		c-1.03,1.14-2.42,0.55-3.65,0.76c-6.19,0.95-10.25-1.12-12.45-7.42C77.85,40.46,74.45,38.16,72.04,35.36z"/>
	<path class="st37" d="M120.27,70.81c-1.92-4.7-6.04-7.22-9.91-9.99c-1.06-0.76-2.08-1.58-3.12-2.37c1.27-1.29-2.12-1.74-0.56-3.09
		c1.72-0.62,2.84,0.03,3.49,1.67c3.36,2.43,6.68,4.92,10.09,7.28c4.5,3.12,5.85,7.78,6.52,12.82c-0.67,2.36-2.63,4.31-2.18,7.05
		c0.08,0.49-0.37,1.06-0.58,1.6c-1.94-1.93-0.56-4.55-1.39-6.71C122.12,76.24,120.91,73.6,120.27,70.81z"/>
	<path class="st38" d="M110.17,57.03c-1.16-0.56-2.33-1.11-3.49-1.67c-1.9-2-4.84-1.69-7.57-3.27c5.99-3.12,11.55-6.03,17.5-8.14
		c0.42-0.26,0.92-0.43,1.29-0.07c0.59,0.57,0.11,1.03-0.31,1.44c-0.92,0.89-2.29,1.14-3.24,2.06c0.88,2.14,4.37,0.96,4.5,3.77
		C115.52,52.48,113.41,55.59,110.17,57.03z"/>
	<path class="st39" d="M118.85,51.16c-1.13-1.4-2.91-1.42-4.4-2.05c-0.76-0.32-1.7-0.43-1.77-1.44c-0.08-1.05,0.82-1.25,1.6-1.56
		c1.09-0.44,2.26-0.83,3.12-1.57c0.46-0.39-0.45-0.45-0.79-0.6c5.05-2.45,10.26-4.48,15.71-5.84c0.57,0.09,1.13,0.18,2,0.32
		c-8.97,3.03-9.52,3.78-7.54,9.86C124.13,49.22,121.68,50.71,118.85,51.16z"/>
	<path class="st40" d="M90.77,53.99c0.93,0.05,1.85,0.09,2.78,0.14c0.1,0.19,0.19,0.37,0.3,0.56c-0.19,0.32-0.49,0.68-0.8,0.65
		c-4.01-0.47-6.2,2.14-8.34,4.86c-2.27,0.41-4.36-0.65-6.57-0.78c-1.6-0.21-3.21-0.41-4.25-1.87c-0.76-1.84-2.37-1.66-3.92-1.71
		c-2.2-0.08-4.52,0.4-6.46-1.62c6.73-0.52,13.47-0.49,20.21-0.5C86.05,53.87,88.43,53.4,90.77,53.99z"/>
	<path class="st41" d="M85.07,59.76c0.87-2.26,1.1-5.07,4.56-4.98c1.4,0.03,2.81-0.06,4.22-0.09c1.23,0.06,2.5-0.03,3.58,0.74
		c-0.31,0.53-0.88,0.72-1.34,1.06c-2.73,2.01-2.75,2.51-0.28,4.78c0.26,0.23,0.22,0.63,0.11,0.98c-2.72,3.12-3.34,3.19-4.97,0.57
		c-0.17-1.61-1.61-1.01-2.48-1.36C87.28,60.97,85.89,60.96,85.07,59.76z"/>
	<path class="st42" d="M95.86,61.93c-1.01-1.31-4.47-0.52-3.7-2.21c0.79-1.74,1.9-4.93,5.27-4.29c2,0.14,3.96,0.41,5.73,1.47
		c0.09,3.11-3.93,3.03-4.41,5.7C97.57,63.28,96.66,62.84,95.86,61.93z"/>
	<path class="st43" d="M177.22,48.97c1.48-3.27,2.4-7.05,6.75-7.81c0.97-0.17,0.48-1.29,1.21-1.53c8.5,7.26,15.84,15.56,22.09,24.8
		c1.54,2.28,2.42,4.92,3.03,7.62c0,1.01,0,2.02,0,3.56c-1.93-1.7-3.47-3.05-5-4.41c-1.94-0.29-2.73-2.17-4.23-3.07
		c-5.56-4.62-10.85-9.58-17.07-13.37c-2.24-1.95-5.23-3-6.88-5.66L177.22,48.97z"/>
	<path class="st44" d="M177.12,49.12c2.6,1.39,4.98,3.1,7.2,5.04c0,2.15-2.56,0.71-3.02,2.18c0.29,0.89,1.13,1.42,1.45,2.27
		c0.16,3.16,3.42,4.71,3.99,7.65c-0.88,0.95-2,1.55-3.08,2.22c-5.56-4.79-7.09-11.95-10.44-18.1
		C174.49,50.11,176.32,51.13,177.12,49.12z"/>
	<path class="st44" d="M201.67,67.71c1.5,0.86,2.64,2.1,3.63,3.49c1.78,5.06,1.12,6.14-4.48,5.84c-6.27-0.33-11.56-3.01-15.72-7.8
		c0.53-0.82,1.39-1.06,2.26-1.26c3.17,0.28,5.37,2.93,8.43,3.51c0.8,0.15,1.54,0.63,2.35,0.8c2.83,0.6,3.62-0.12,3.23-2.94
		C201.3,68.77,201.22,68.21,201.67,67.71z"/>
	<path class="st45" d="M187.34,68.49c-0.57,0.76-1.42,0.71-2.23,0.76c-0.48-0.26-0.97-0.52-1.45-0.78c0.15-1.82,1.33-2.25,2.89-2.17
		C187.55,66.76,187.95,67.44,187.34,68.49z"/>
	<path class="st46" d="M57.5,14.56c1.68,0.96,2.2,2.35,1.53,4.18c0.74,1.85,2.82,2.59,3.61,4.39c2.17,0.74,4.33,1.49,6.5,2.23
		c-0.26,1.79-0.52,3.59-0.78,5.38c-1.32,1.01-2.37,0.09-3.46-0.49c1.08-2.35,0.29-3.53-2.01-4.8c-3.38-1.86-6.74-2.2-10.37-1.57
		c-0.88,0.5-2.32-1.05-2.83,0.78c-2.29,2.04-5.39,1.04-7.2-2.32c1.04-1.66,2.2-3.1,2.42-5.34c0.26-2.64,2.44-4.01,5.22-3.67
		C52.59,13.63,55.04,14.14,57.5,14.56z"/>
	<path class="st47" d="M83.78,53.96c-6.52,0-13.03,0-19.55,0c0,0.25,0,0.51-0.01,0.76c3.59,0,7.17,0,10.98,0
		c-0.4,1.23-0.69,2.09-0.97,2.95c-1.17,1.21-2.71,0.87-4.15,0.99c-1.68-0.07-3.38-0.13-4.52-1.68c-3.73-1.22-7.48-2.4-11.18-3.68
		c-0.69-0.24-2.08,0-1.64-1.54c8.74,2.29,17.64,1.72,26.52,1.48c1.4,0.05,2.81,0.11,4.21,0.16C83.74,53.49,83.85,53.68,83.78,53.96z
		"/>
	<path class="st48" d="M77.96,28.1c-1,0.22-2.19-0.31-2.98,0.75c-0.81-0.39-1.77-0.56-2.25-1.46C74.65,26.3,76.26,27.54,77.96,28.1z
		"/>
	<path class="st5" d="M83.78,53.96c-0.11-0.18-0.21-0.37-0.31-0.56c2.44,0.15,4.95-0.7,7.3,0.59
		C88.44,53.98,86.11,53.97,83.78,53.96z"/>
	<path class="st49" d="M36,39.19c-0.25,1.38,1.07,4.34-3.55,1.39c4.07,5.36,9.04,7.02,13.06,9.93c-0.05,0.66-0.1,1.32-0.15,1.99
		c-0.25,0.53-0.5,1.06-0.74,1.58c-2.48,1.11-4.18-0.92-6.13-1.68c-1.73-0.68-3.43-1.44-5.22-1.96c-1.36-0.8-2.62-1.78-4.11-2.35
		c-3.07-2.08-6.01-4.17-10.01-1.69c-1.13,0.7-3.1,0.26-3.42-1.88c1.02-1.63,2.67-2.58,4.41-2.57c2.77,0.02,3.42-1.61,3.66-3.75
		c0.17-1.55,0.52-2.99,1.5-4.23c0.25-0.4,0.5-0.79,0.75-1.19c3.24-1.79,6.22-1.02,8.31,2.15C35.21,36.23,35.58,37.73,36,39.19z"/>
	<path class="st50" d="M25.3,33.97c-0.22,1.17-0.51,2.32-0.66,3.5c-0.37,2.86-0.87,5.34-4.77,5.12c-1.42-0.08-2.89,0.99-3.93,2.23
		c-0.16,0.32-0.27,0.67-0.37,1.01c-0.48,1.62-2.27,3.25-0.47,4.91c1.77,1.63,3.83,0.75,5.76,0.04c1.26-0.46,2.31-1.27,3.24-2.21
		c1.63-1.64,3.45-2,5.55-1.05c1.16,0.74,2.31,1.48,3.47,2.21c0.83,0.66,2.14,0.85,2.22,2.26c-0.89,0.99-1.44,0.14-2.07-0.36
		c-4.36-3.51-5.47-3.61-9.47,0.03c-2.25,2.05-4.78,2.61-7.59,2.37c-3.32-0.28-4.91-2.86-3.91-6.07c1.14-3.68,3.86-5.95,7.36-6.65
		c2.61-0.52,3.37-1.62,3.51-3.97c0.08-1.28,0.39-2.64,0.96-3.78C24.74,32.35,25.12,33.2,25.3,33.97z"/>
	<path class="st51" d="M35.34,52c-0.74-0.75-1.48-1.5-2.22-2.26c4.17,0.55,7.52,3.28,11.51,4.33c-0.07,1.35,0.14,2.8-2.09,1.57
		C40.19,54.35,38.02,52.64,35.34,52z"/>
	<path class="st52" d="M36,39.19c-0.62-1.12-1.17-2.28-1.86-3.36c-1.92-3.03-4.45-4.55-8.1-3.05c1.26-2.88,3.47-1.91,5.38-1.13
		c2.29,0.93,3.66,2.92,4.7,5.11C36.09,37.58,36.05,38.38,36,39.19z"/>
	<path class="st53" d="M52.51,23.88c3.63-1.9,10.88-0.64,13.67,2.38c1.92,2.08,0.38,3.06-1.28,4
		C60.41,28.83,56.62,26.03,52.51,23.88z"/>
	<path class="st54" d="M42.48,22.33c2.21,1.37,4.1,3.7,7.2,2.32c0.82,0.13,2.06,0.66,1.1,1.33c-1.83,1.29-3.57,3.75-6.23,2.62
		c-2.55-1.08-2.95-3.47-2.31-6.02C42.27,22.49,42.4,22.42,42.48,22.33z"/>
	<path class="st55" d="M62.64,23.14c-2.06-0.59-2.97-2.62-4.63-3.75c-0.62-0.42,0.59-0.49,1.02-0.64c2.08,1.19,3.31,3.61,5.92,4.24
		C64.17,23.03,63.41,23.09,62.64,23.14z"/>
	<path class="st28" d="M69.91,57.71c1.44-0.01,2.88-0.02,4.31-0.03c1.44,0.25,2.88,0.5,4.32,0.76c1.63,0.83,1.13,2.11,0.76,3.41
		c-1.26,4.41-0.39,8.52,1.84,12.42c4.43,7.76,10.72,13.7,18.04,18.68c1.42,0.96,3.8,1.67,2.41,4.32c-5.19,0.58-9.51-1.65-13.72-4.27
		c-3.98-2.41-7.94-4.84-10.78-8.67c-4.59-6.26-7.81-13.02-7.3-21.03C69.91,61.43,70.31,59.58,69.91,57.71z"/>
	<path class="st17" d="M69.91,57.71c0.4,0.91,2.58,0.46,1.66,2.46c-2.06,4.45-0.94,8.91,0.61,13.16c1.37,3.76,3.26,7.34,4.92,11
		c-5.58-4.12-8.38-10.52-12.79-15.6c-0.85-0.98-1.55-2.09-2.32-3.14c1.17-2.88,1.46-6.13,3.58-8.61
		C67.01,57.23,68.46,57.47,69.91,57.71z"/>
	<path class="st29" d="M101.59,97.26c0.25-2.2-1.63-2.71-2.94-3.61c-7.08-4.83-13.24-10.5-17.69-17.96
		c-2.92-4.88-4.32-9.77-2.01-15.25c0.33-0.79-0.14-1.38-0.4-2.02c2.17,0.44,4.35,0.89,6.52,1.33c2.17,0.54,4.33,1.08,6.49,1.63
		c0.07,0.02,0.14,0.19,0.14,0.29c-0.01,0.11-0.11,0.21-0.17,0.31c-2.12,6.39-0.27,11.56,6.04,16.32c5.48,4.13,11.31,5.56,17.62,1.76
		c0.74-0.45,1.52-0.69,2.39-0.34c1.06,0.67,1.61,1.68,1.98,2.83c0.58,3.43,0.39,6.87-0.03,10.3c-3.7,4.07-9.01,3.16-13.63,4.34
		C104.55,97.56,103.03,97.26,101.59,97.26z"/>
	<path class="st56" d="M119.53,92.87c-1.4-3.48-0.29-7.12-0.71-10.66c0.45-2.5,3.81-1.61,4.48-3.84c1.24,2.38,0.39,4.95,0.7,7.42
		c-0.74,2.15-1.47,4.29-2.21,6.44C120.98,92.2,120.14,92.13,119.53,92.87z"/>
	<path class="st48" d="M75.62,28.91c5.99,0.75,11.95,1.78,17.96,2.43c2.83,0.3,5.35,3.53,8.01,5.43c-8.9,0.26-17.24-1.63-24.74-6.6
		C76.37,29.85,76.02,29.33,75.62,28.91z"/>
	<path class="st57" d="M117.36,80.01c-3.6,2.1-7.18,3.42-11.66,3c-6.93-0.64-15.19-9.45-16.28-14.93c-0.48-2.4,0.22-4.47,2.11-6.09
		c-0.02,1.98,0.66,2.83,2.42,1.31c0.61-0.52,0.94-1.35,1.9-1.37c0.96,0.22,1.93,0.44,2.89,0.66c5.78,3.2,10.88,7.22,15.05,12.38
		C115.6,76.22,117.5,77.39,117.36,80.01z"/>
	<path class="st58" d="M117.36,80.01c-1.19-1.68-2.37-3.36-3.56-5.04c0.96-0.01,2.07,0.04,2.58-0.86c0.91-1.62,2.48-2.35,3.89-3.3
		c1.83,2.19,2.67,4.78,3.03,7.55c-0.27,1.17,0.44,3.01-2.09,2.53c-0.69-0.13-1.59,0.85-2.39,1.32
		C118.34,81.47,117.85,80.74,117.36,80.01z"/>
	<path class="st59" d="M187.34,68.49c-0.26-0.73-0.53-1.46-0.79-2.19c-1.65-2.53-4.92-4.17-4.32-7.93c0.33-1.81-0.85-2.07-2.21-2.13
		c-0.96-1.27,0.01-1.32,0.9-1.45c1.14-0.16,2.42,0.43,3.4-0.63c4.95,2.67,9.09,6.44,13.37,10.01c1.36,1.14,2.66,2.36,3.98,3.55
		c0.06,0.35,0.04,0.74,0.21,1.04c0.67,1.19,2.02,2.38,0.67,3.77c-1.27,1.3-3.13,1.4-4.66,0.75c-2.81-1.19-5.91-1.75-8.36-3.73
		C188.87,69.02,188.25,68.46,187.34,68.49z"/>
	<path class="st60" d="M180.02,56.24c1.11-1.01,2.43-1.29,3.35-0.05c0.73,0.97-0.29,1.69-1.15,2.18
		C181.26,57.9,180.6,57.12,180.02,56.24z"/>
	<path class="st61" d="M29.65,47.53c-2.22-0.05-4.22,0.28-5.63,2.35c-0.82,1.21-2.26,1.7-3.63,2.19c-2.5,0.9-5.22,1.51-6.73-1.16
		c-1.39-2.45,0.32-4.49,2.27-6.09c1.55,1.05,2.95,1.63,4.66,0.01c1.79-1.69,3.78-0.68,5.56,0.33
		C27.38,45.85,28.49,46.73,29.65,47.53z"/>
	<path class="st62" d="M102.12,68.21c-0.16,1.18-0.8,1.66-1.71,1.58c-1.09-0.1-1.62-0.86-1.65-1.93c-0.02-0.78,0.25-1.44,1.15-1.42
		C101.15,66.45,101.65,67.41,102.12,68.21z"/>
	<path class="st63" d="M107.66,73.79c-0.16,0.63-0.58,0.99-1.21,1.07c-0.79,0.1-1.49-0.21-1.58-1c-0.07-0.6,0.5-1.01,1.16-1.07
		C106.81,72.73,107.39,73.01,107.66,73.79z"/>
</g>
</svg>
