<?xml version="1.0" encoding="utf-8"?>
<!-- Generator: Adobe Illustrator 23.0.2, SVG Export Plug-In . SVG Version: 6.00 Build 0)  -->
<svg version="1.1" id="Camada_1" xmlns="http://www.w3.org/2000/svg" xmlns:xlink="http://www.w3.org/1999/xlink" x="0px" y="0px"
	 viewBox="0 0 74.27 52.68" style="enable-background:new 0 0 74.27 52.68;" xml:space="preserve">
<style type="text/css">
	.st0{fill:#FEFEFE;}
	.st1{fill:#3E2065;}
	.st2{fill:#8F4310;}
	.st3{fill:#915C1F;}
	.st4{fill:#5E1919;}
	.st5{fill:#3F5611;}
	.st6{fill:#445C10;}
	.st7{fill:#3D215E;}
	.st8{fill:#3B1F5F;}
	.st9{fill:#71341B;}
	.st10{fill:#205A31;}
	.st11{fill:#3F540D;}
	.st12{fill:#98A945;}
	.st13{fill:#7A456D;}
	.st14{fill:#784067;}
	.st15{fill:#773A5C;}
	.st16{fill:#7B4771;}
	.st17{fill:#7A466F;}
	.st18{fill:#9E6320;}
	.st19{fill:#7C4D7B;}
	.st20{fill:#783D61;}
	.st21{fill:#794167;}
	.st22{fill:#7A3E63;}
	.st23{fill:#7F4C79;}
	.st24{fill:#7A446D;}
	.st25{fill:#7D5180;}
	.st26{fill:#7C4A77;}
	.st27{fill:#7E5384;}
	.st28{fill:#7A426B;}
	.st29{fill:#7C4E7D;}
	.st30{fill:#7A436B;}
	.st31{fill:#7E5486;}
	.st32{fill:#7B4166;}
	.st33{fill:#F8F996;}
	.st34{fill:#CC4AAA;}
	.st35{fill:#CB4194;}
	.st36{fill:#CD4199;}
	.st37{fill:#CE50B5;}
	.st38{fill:#EDE6EC;}
	.st39{fill:#D254BF;}
	.st40{fill:#EEDAEA;}
	.st41{fill:#475C16;}
	.st42{fill:#C158B8;}
	.st43{fill:#78436C;}
	.st44{fill:#F0E3F0;}
	.st45{fill:#CD60C8;}
	.st46{fill:#D1B7C9;}
	.st47{fill:#E6D8E3;}
	.st48{fill:#DCD1DD;}
	.st49{fill:#ECE4EA;}
	.st50{fill:#DDCFD8;}
	.st51{fill:#E799DC;}
	.st52{fill:#E4BAD4;}
	.st53{fill:#805387;}
	.st54{fill:#BE4FA5;}
	.st55{fill:#B92B2B;}
	.st56{fill:#D55200;}
	.st57{fill:#D66400;}
	.st58{fill:#D23400;}
	.st59{fill:#A72000;}
	.st60{fill:#92862A;}
	.st61{fill:#B23000;}
	.st62{fill:#1E6438;}
	.st63{fill:#5A1A18;}
	.st64{fill:#6C1F12;}
	.st65{fill:#F8F4F1;}
	.st66{fill:#6E380E;}
	.st67{fill:#070501;}
	.st68{fill:#FEAC00;}
	.st69{fill:#BD6418;}
	.st70{fill:#FCF200;}
	.st71{fill:#FDFB00;}
	.st72{fill:#979A12;}
	.st73{fill:#972828;}
	.st74{fill:#C12626;}
	.st75{fill:#F9F3F3;}
	.st76{fill:#6E311B;}
	.st77{fill:#9B4E4E;}
	.st78{fill:#1D0E06;}
	.st79{fill:#FE7C00;}
	.st80{fill:#949838;}
	.st81{fill:#F9F961;}
	.st82{fill:#BB6317;}
	.st83{fill:#965113;}
	.st84{fill:#3A8F58;}
	.st85{fill:#FAFAE5;}
	.st86{fill:#756D16;}
	.st87{fill:#E9DC2E;}
	.st88{fill:#605F5A;}
	.st89{fill:#402263;}
	.st90{fill:#D3AEC6;}
	.st91{fill:#753351;}
	.st92{fill:#CC3780;}
	.st93{fill:#773759;}
	.st94{fill:#CD3D8E;}
	.st95{fill:#CA714E;}
	.st96{fill:#949333;}
	.st97{fill:#F4F791;}
	.st98{fill:#3E4D10;}
	.st99{fill:#CF48A8;}
	.st100{fill:#E8D1E1;}
	.st101{fill:#D9B5D5;}
	.st102{fill:#FC7D01;}
	.st103{fill:#F9E902;}
	.st104{fill:#BD4592;}
	.st105{fill:#CE57C3;}
	.st106{fill:#CA59BE;}
	.st107{fill:#B41717;}
	.st108{fill:#5E1A1A;}
	.st109{fill:#FEF8F8;}
	.st110{fill:#ED4949;}
	.st111{fill:#FB5554;}
	.st112{fill:#FCC501;}
	.st113{fill:#873F0E;}
	.st114{fill:#F6B700;}
	.st115{fill:#F7B600;}
	.st116{fill:#F3F48D;}
	.st117{fill:#E9E982;}
	.st118{fill:#3D955C;}
	.st119{fill:#2E1D19;}
	.st120{fill:#966113;}
	.st121{fill:#976613;}
	.st122{fill:#754620;}
	.st123{fill:#EE9402;}
	.st124{fill:#958313;}
	.st125{fill:#CE6E4C;}
</style>
<g>
	<path class="st0" d="M42.83,13.9c1.61-0.25,3.18,0.07,4.77-0.16c4.74-0.69,9.08-2.14,12.56-5.6c0.34-0.34,0.67-0.69,0.93-1.09
		c0.9-1.42,2.17-2.21,3.85-2.29c0.6-0.03,0.91-0.29,1.14-0.83c0.36-0.84,0.79-1.65,1.23-2.45c0.27-0.48,0.59-0.99,1.15-1.18
		c1.87-0.63,3.47,0.13,4.89,1.2c1.16,0.87,1.03,2.19,0.68,3.41c-0.47,1.68-0.81,3.42-1.81,4.91c-0.15,0.22-0.18,0.44-0.12,0.68
		c0.42,1.79,0.18,3.58-0.05,5.36c-0.31,2.41-1.97,4.05-3.47,5.75c-0.68,0.78-1.47,1.48-2.29,2.11c-0.54,0.42-0.43,0.62-0.06,1.09
		c3.37,4.31,3.81,9.31,1.82,14.04c-1.94,4.62-5.32,8.43-10.77,9.32c-2.41,0.39-4.86,0.26-7.26-0.3c-0.54-0.13-0.98-0.22-1.48,0.33
		c-3.89,4.3-8.85,5.14-14.25,4.09c-4.59-0.89-8.28-3.26-10.74-7.34c-1.1-1.82-1.6-3.81-1.74-6.32c-1.3,2.14-3.05,2.95-5.22,2.8
		c-2.18-0.14-3.71-1.31-4.86-3.09c-1.93,3.34-5.66,3.83-8.23,1.11C1.18,37,2.4,32.44,5.62,31.49c0.25-0.07,0.62,0.02,0.63-0.39
		c0.01-0.34-0.31-0.43-0.55-0.55c-1.77-0.92-3-2.55-4.69-3.59c-0.74-0.45-0.99-1.31-1-2.29c-0.03-2.04-0.05-4.02,1.86-5.36
		c0.24-2.13,2.34-2.89,3.34-4.47c0.77-1.21,2.02-1.96,3.48-2.1c2-0.19,2.77-1.75,3.24-3.21c0.69-2.16,1.81-3.69,3.98-4.37
		c0.39-0.12,0.58-0.39,0.8-0.67c2.18-2.79,5.79-2.96,8.2-0.37c0.92,0.99,1.99,1.31,3.29,1c0.74-0.17,1.48-0.34,2.25-0.07
		c0.25-0.53-0.07-0.94-0.21-1.37c-0.69-2.16,0.35-3.67,2.57-3.62c1.14,0.02,2.41-0.41,3.28,0.85c0.21,0.31,0.7-0.13,1.13-0.02
		c1.7,0.43,2.6,1.65,3.16,3.15c0.45,1.21,0.56,2.49,0.31,3.78c-0.06,0.29-0.29,0.67,0.04,0.89c1.76,1.13,1.81,2.98,2.04,4.76
		C42.78,13.62,42.81,13.78,42.83,13.9z"/>
	<path d="M63.87,24.09c4.48,4.01,5.02,9.12,3.14,14.11c-1.61,4.27-4.74,7.89-9.72,8.74c-2.75,0.47-5.58,0.38-8.27-0.62
		c-0.32-0.12-0.44-0.14-0.65,0.14c-3.96,5.26-9.33,5.85-15.15,4.3c-4.69-1.25-8.12-4.13-9.71-8.89c-0.32-0.95-0.47-1.94-0.44-2.94
		c0.01-0.45-0.01-0.79-0.54-1.05c-0.94-0.47-1.54-1.04-2.15,0.57c-0.69,1.81-3.48,2.33-5.47,1.36c-1.94-0.94-2.73-2.88-2.01-4.92
		c0.11-0.3,0.25-0.58,0.41-0.95c-0.9-0.14-1.74,0.36-2.66-0.07c0.35,1.82,0.49,3.5-0.67,4.98c-0.46,0.59-1.03,0.97-1.8,1.06
		c-2.32,0.27-4.36-0.99-4.56-2.86c-0.34-3.04,0.75-4.2,4.41-4.64c-0.37-0.68-0.66-1.37-0.67-2.13c0-0.36-0.16-0.44-0.46-0.55
		c-1.06-0.38-2.08-0.84-2.54-2c-0.14-0.35-0.52-0.32-0.81-0.44c-3.64-1.55-3.19-5.23-0.98-7c0.03-0.02,0.08-0.04,0.09-0.07
		c0.46-1.73,1.97-2.66,2.95-4c0.92-1.26,1.97-2.21,3.53-2.41c1.24-0.15,2.06-0.68,2.74-1.79c0.6-0.97,1.18-1.86,1.48-3.01
		c0.36-1.39,1.42-2.4,2.91-2.73c0.51-0.11,0.83-0.35,1.13-0.76c2.08-2.76,5-2.8,7.02-0.02c0.47,0.65,1.11,0.32,1.56,0.62
		c0.88,0.58,1.73,0.46,2.64,0.13c0.87-0.31,1.73-0.12,2.55,0.26c0.28,0.13,0.57,0.48,0.86,0.25c0.36-0.28,0.04-0.66-0.03-0.99
		C31.83,5,31.66,4.22,31.43,3.46c-0.38-1.24-0.13-2.08,0.75-2.44c1.16-0.47,2.6-0.12,3.02,0.89c0.27,0.65,0.4,0.66,0.96,0.32
		c0.7-0.42,1.36-0.12,1.93,0.43c1.7,1.66,1.7,3.68,1.24,5.79c-0.08,0.35-0.32,0.67,0.15,0.9c2.02,0.94,1.99,2.82,2.05,4.61
		c0.06,1.61,0.25,1.78,1.73,1.15c0.25-0.11,0.54-0.19,0.8-0.18c5.7,0.35,10.82-1.23,15.42-4.58c0.97-0.71,1.85-1.55,2.51-2.56
		c0.83-1.29,1.99-1.95,3.49-1.9c0.77,0.02,1.11-0.3,1.4-0.95c0.43-0.98,0.95-1.92,1.44-2.87c0.17-0.32,0.36-0.7,0.72-0.76
		c1.3-0.23,2.42,0.29,3.44,1.02c0.87,0.62,0.6,1.55,0.39,2.31c-0.48,1.67-0.81,3.42-1.86,4.87c-0.24,0.34-0.18,0.68-0.12,1.03
		c0.72,4.06-0.21,7.57-3.34,10.41C66.39,22.02,65.21,23.09,63.87,24.09z"/>
	<path class="st1" d="M15.63,28.78c-0.86-0.21-0.66,0.45-0.7,0.87c-0.2,2.27-2.12,3.64-4.29,3.05c-1.31-0.36-2.11-1.29-2.15-2.67
		c-0.02-0.72-0.12-1.15-0.95-1.35C6.63,28.47,5.73,28.13,5.41,27c-0.15-0.54-0.89-0.63-1.4-0.81c-2.69-0.98-2.34-4.04-0.42-5.12
		c0.5-0.28,0.67-0.71,0.7-1.16c0.05-0.93,0.56-1.45,1.34-1.8c0.46-0.2,0.79-0.53,0.96-1.01c0.52-1.41,1.65-1.97,3.03-2.17
		c1.33-0.2,2.31-0.8,3.08-1.99c0.73-1.13,1.52-2.13,1.78-3.53c0.18-1,1.01-1.75,2.07-1.95c0.9-0.17,1.44-0.7,1.95-1.4
		c1.42-1.97,3.72-1.91,4.99,0.18c0.44,0.72,1.03,0.77,1.69,1.04c1.44,0.59,2.71,0.63,4.16,0.03c0.83-0.35,1.61,0.52,2.4,0.86
		c0.07,0.09,0.1,0.19,0.09,0.31c-0.54,0.75-1.05,1.52-1.66,2.22c-0.12,0.12-0.26,0.21-0.41,0.28c-0.42,0.13-0.82,0.31-1.25,0.43
		c-0.51-0.01-0.97-0.28-1.48-0.29c-0.66-0.01-1.21,0.03-0.93,0.95c0.09,0.31,0.05,0.63-0.31,0.79c-0.11,0.02-0.22,0.02-0.33-0.01
		c-0.34-0.17-0.5-0.5-0.71-0.78c-0.84-1.15-1.34-1.31-2.64-0.84c-1.02,0.36-2.06,1.7-2.04,2.59c0.03,1.13,0.95,0.97,1.64,1.14
		c0.54,0.27,0.86,0.67,0.74,1.31c-0.58,0.37-1.22-0.15-1.81,0.12c-0.28,0.03-0.57,0.02-0.85,0.03c-1.65,0.29-2.13,1.49-1.17,2.83
		c0.44,0.61,1.22,0.91,1.45,1.69c-0.05,0.34-0.25,0.53-0.56,0.62c-0.75,0.09-1.23-0.7-1.98-0.59c-0.23-0.01-0.46-0.04-0.68-0.1
		c-0.26-0.07-0.52-0.2-0.79-0.22c-0.5-0.03-0.71,0.27-0.76,0.71c-0.06,0.46,0.22,0.64,0.63,0.66c0.88,0.05,1.73,0.16,2.23,1.04
		c0.08,0.42-0.08,0.69-0.5,0.81c-0.56-0.1-1.02-0.55-1.63-0.49c-1.64,0.09-2.26,0.63-2.22,1.96c0.02,0.77,0.24,1.4,1.12,1.57
		c0.35,0.07,0.68,0.22,0.88,0.55C15.97,27.94,16.02,28.39,15.63,28.78z"/>
	<path class="st2" d="M48.52,44.47c-0.36-0.06-0.47,0.21-0.61,0.46c-1.68,3.08-4.36,4.76-7.75,5.18c-5.12,0.64-9.68-0.63-13.24-4.58
		c-1.86-2.07-2.88-4.48-2.59-7.34c0.32-1.16,0.88-2.29,0.47-3.54c0.07-1.03,0.68-1.75,1.42-2.39c1.1-0.71,1.76-1.92,2.92-2.57
		c0.27-0.04,0.46,0.04,0.55,0.31c0.02,0.74-0.52,1.16-0.95,1.65c-1.47,1.65-2.67,3.44-2.94,5.7c-0.52,2.26,0.09,4.28,1.32,6.16
		c2.78,3.85,6.61,5.46,11.28,5.31c2.69-0.09,5.12-0.75,7.02-2.79c0.3-0.32,0.58-0.66,0.8-1.04c1.96-3.11,2.3-6.49,1.62-10.03
		c-0.45-1.79-1.26-3.36-2.68-4.58c-1.39-1.24-3.07-1.75-4.87-1.94c-0.47-0.05-0.96,0.05-1.38-0.25c-0.24-0.33-0.11-0.61,0.1-0.88
		c0.23-0.24,0.51-0.37,0.84-0.42c0.94-0.23,1.96,0.39,2.86-0.27c0.81,0.96,1.87,1.56,3,2.06c0.16,0.1,0.3,0.22,0.44,0.35
		c3.06,2.79,3.99,6.27,3.46,10.28c-0.12,0.94-0.26,1.89-0.38,2.83C48.75,42.84,49.25,43.85,48.52,44.47z"/>
	<path class="st3" d="M41.58,16.64c4.24-0.16,8.45-0.59,12.46-2.01c3.62-1.28,6.87-3.22,9.15-6.44C64,7.06,65.14,7,66.29,7.06
		c0.68,0.04,1-0.18,1.27-0.75c0.49-1.05,1.07-2.05,1.58-3.09c0.27-0.55,0.46-0.94,1.23-0.63c0.69,0.28,1.33,0.35,1.25,1.38
		c-0.13,1.8-0.71,3.43-1.63,4.94c-0.24,0.39-0.46,0.73-0.34,1.21c1.18,4.88-0.75,8.54-4.51,11.47c-1.1,0.86-2.26,1.64-3.39,2.46
		c-0.32,0.22-0.59,0.21-0.82-0.13c-0.08-0.66,0.46-0.88,0.86-1.17c1.72-1.23,3.3-2.63,4.8-4.13c1.99-1.98,2.45-4.38,2.23-7.03
		c-0.49-1.41-0.23-2.71,0.52-3.96c0.24-0.4,0.44-0.84,0.49-1.32c0.14-0.82,0.85-1.53,0.47-2.54c-0.55,0.26-0.63,0.77-0.85,1.16
		c-0.44,0.8-0.77,1.66-1.3,2.41c-0.44,0.62-0.97,1.06-1.8,0.93c-1.29-0.21-2.23,0.27-2.91,1.38c-0.33,0.54-0.75,1.03-1.27,1.42
		c-1.49,1.46-3.3,2.44-5.08,3.47c-2.72,1.57-5.76,2.1-8.79,2.58c-1.73,0.27-3.47,0.53-5.23,0.53c-0.51,0-1.04,0.06-1.51-0.26
		C41.36,17.14,41.35,16.89,41.58,16.64z"/>
	<path class="st4" d="M61,23.76c0.16,0.31,0.46,0.27,0.74,0.29c0.76,0.63,1.6,1.16,2.29,1.89c1.41,1.5,2.15,3.26,2.47,5.3
		c0.66,4.24-0.45,7.79-3.46,10.88c-1.62,1.67-3.27,3.22-5.6,3.58c-2.44,0.38-4.92,0.34-7.34-0.24c-0.63-0.15-1.17-0.48-1.58-1
		c0.36-0.68-0.23-1.58,0.49-2.18c0.04,0.04,0.08,0.08,0.12,0.12c0.23,0.39,0.09,0.91,0.44,1.26c0.32,0.38,0.74,0.62,1.21,0.75
		c2.93,0.78,5.82,1.09,8.47-0.87c0.1-0.07,0.21-0.12,0.31-0.18c1-0.62,1.94-1.32,2.75-2.19c0.99-0.74,1.91-1.54,2.28-2.79
		c1.03-2.68,1.36-5.5,0.52-8.19c-0.79-2.52-2.59-4.47-5.26-5.31c-0.67-0.21-1.36-0.44-2.08-0.49c-0.58-0.05-1.16,0-1.73-0.09
		c-0.42-0.15-0.95-0.15-1.08-0.73c0.2-0.3,0.53-0.39,0.83-0.54C57.62,22.6,59.42,22.4,61,23.76z"/>
	<path class="st5" d="M41.58,16.64c-0.01,0.22-0.01,0.45-0.02,0.67c-0.42,0.33-1.05,0.5-0.9,1.24c-0.02,0.36-0.11,0.7-0.21,1.04
		c-0.03,0.18-0.08,0.36-0.14,0.54c-0.23,1.37-0.08,2.75-0.08,4.12c0,0.77,0.59,0.93,1.17,1.11c0.61,0.18,0.93,0.48,0.35,1.06
		c-0.55,0.39-1.44-0.12-1.85,0.67c-0.25,0.1-0.51,0.19-0.76,0.29c-0.41-0.1-0.78-0.24-0.76-0.76c0.36-0.54-0.04-1.14,0.16-1.7
		c-0.05-3.24,0.11-6.47,0.5-9.68c0.11-1.45,0.22-2.86-1.13-3.93c-0.62-0.49-0.99-0.6-1.35,0.17c-1.69,0.15-2.82-0.5-3.17-1.82
		C33.31,9.45,33.23,9.24,33.3,9c0.05-0.1,0.14-0.17,0.25-0.2c0.59-0.01,1.19,0.03,1.78,0.05c0.42,0.34,0.33,0.78,0.08,1.23
		c0.57,0.02,0.61-0.48,0.93-0.6c0.38-0.17,0.77-0.19,1.18-0.12c0.27,0.23,0.51,0.55,0.83,0.67c1.78,0.68,2.06,2.13,2.01,3.77
		c-0.01,0.52,0.06,1.04-0.02,1.55C40.2,16.36,40.63,16.73,41.58,16.64z"/>
	<path class="st6" d="M24.99,34.56c0.61,1.36,0.14,2.53-0.67,3.63c0.1-0.75-0.38-0.96-0.98-1.24c-3.6-1.73-6.51-4.15-7.71-8.17
		c0-0.46,0-0.91,0.01-1.37c-0.04-0.75,0.27-1.42,0.44-2.13c0.04-0.11,0.08-0.21,0.14-0.31c0.39-0.47,0.74-0.98,1.35-1.2
		c0.3-0.12,0.47-0.35,0.53-0.67c0.15-0.84,1.01-1.07,1.44-1.67c0.15-0.16,0.31-0.33,0.46-0.49c0.73-0.6,1.5-1.13,2.27-1.67
		c0.49-0.15,0.89-0.46,1.35-0.67c0.23-0.06,0.46-0.06,0.66,0.09c0.2,0.64-0.34,0.91-0.67,1.27c-1.46,1.58-3.31,2.72-4.78,4.3
		c-0.82,0.89-1.49,1.85-1.87,3c0,4.48,3.19,6.47,6.53,8.34c0.26,0.15,0.54,0.14,0.75-0.13c0.15-0.22,0.23-0.47,0.36-0.7
		C24.69,34.62,24.81,34.52,24.99,34.56z"/>
	<path class="st7" d="M17.31,39.06c-0.39-0.04-0.81-0.02-1.18-0.14c-0.99-0.31-2.01-0.67-2.19-1.89c-0.22-1.52,0.49-3.07,1.52-3.49
		c1.25-0.51,3.13,0.43,4.01,2.01C19.8,37.44,19.48,37.97,17.31,39.06z"/>
	<path class="st8" d="M9.64,36c-0.02,1.93-0.66,2.71-2.19,2.71c-1.83-0.01-2.65-0.86-2.63-2.71c0.02-1.61,0.84-2.34,2.6-2.32
		C9.11,33.68,9.66,34.26,9.64,36z"/>
	<path class="st9" d="M35.28,8.9c-0.62,0.49-1.25,0.15-1.87,0.01c-0.06-0.08-0.06-0.15,0-0.23c0.5-0.48,0.24-1.05,0.13-1.57
		c-0.29-1.32-0.61-2.64-0.97-3.94c-0.13-0.46-0.25-0.91,0.3-1.11c0.52-0.19,1.03-0.12,1.31,0.48c0.38,0.8,0.66,1.62,0.68,2.52
		c0.01,0.35-0.12,0.73,0.21,1.01c0.74,0.73,0.6,1.62,0.47,2.52C35.49,8.73,35.4,8.83,35.28,8.9z"/>
	<path class="st10" d="M35.34,8.68c0.02-0.88-0.03-1.75-0.27-2.6c1.04-0.4,1.19-1.41,1.41-2.28c0.2-0.79,0.42-0.58,0.83-0.22
		c1.44,1.26,1.53,3.75,0.21,5.8c-0.33,0.42-0.79,0.23-1.21,0.26C36,9.27,36.34,9.06,36.51,8.82c0.78-1.09,0.66-2.35,0.7-3.58
		c-0.88,0.6-1.18,1.46-1.33,2.41C35.82,8.03,35.98,8.58,35.34,8.68z"/>
	<path class="st11" d="M17.31,39.06c0.03-0.22,0.14-0.35,0.35-0.43c1.46-0.52,1.93-1.63,1.8-3.09
		C20.17,37.42,19.34,38.78,17.31,39.06z"/>
	<path class="st5" d="M33.4,8.68c0.01,0.08,0.01,0.16,0,0.23c0,0-0.07,0.07-0.07,0.07c-0.59-0.01-1.12-0.16-1.58-0.56
		c0-0.08,0-0.16,0-0.24C32.48,7.8,33.03,7.94,33.4,8.68z"/>
	<path class="st12" d="M33.64,9.41c0.16,1.19,1.05,1.78,2.94,1.93c0.28,0.19,0.45,0.48,0.64,0.75c0.25,0.47,0.52,0.93,0.43,1.49
		c-0.02,1.08-0.56,1.99-0.99,2.92c-0.88,1.89-0.95,3.76-0.01,5.64c0.17,0.35,0.37,0.72,0.2,1.14c-0.13,0.15-0.3,0.2-0.49,0.18
		c-1.15-0.62-2.41-1.02-3.52-1.74c-0.23-0.15-0.51-0.4-0.76-0.22c-0.34,0.23-0.08,0.58,0.01,0.86c0.39,1.26,0.99,2.43,1.46,3.65
		c0.2,0.52,0.47,1.06-0.13,1.51c-1.13,0.26-2.08,0.87-3.02,1.51c-0.45,0.3-0.88,0.67-1.49,0.59c-0.74-1.53-0.88-3.13-0.31-4.71
		c0.91-2.54,0.97-5.23,1.52-7.83c0.31-1.5-0.53-2.76-1.48-3.88c-0.17-0.23-0.14-0.47-0.06-0.72c0.34-0.6,0.62-1.26,1.22-1.67
		c0.08-0.07,0.16-0.14,0.24-0.2c0.26,0.05,0.48-0.08,0.62-0.26C31.45,9.39,32.49,9.25,33.64,9.41z"/>
	<path class="st13" d="M11.88,27.39c1.52-0.01,2.33,0.75,2.32,2.17c0,1.38-1.17,2.58-2.48,2.55c-1.5-0.04-2.33-0.83-2.34-2.25
		C9.38,27.98,9.96,27.4,11.88,27.39z"/>
	<path class="st14" d="M22.39,19.46c-0.8,0.5-1.33,1.43-2.4,1.48c-0.52-0.48-1.09-0.93-1.56-1.46c-0.51-0.59-0.8-1.31-0.52-2.09
		c0.29-0.83,0.92-1.27,1.82-1.26c0.01,0.04,0.03,0.08,0.02,0.12c-0.06,0.42-0.69,0.81-0.1,1.25c0.51,0.38,0.88-0.03,1.26-0.3
		c0.54-0.15,1.05-0.38,1.52-0.68c0.13,0,0.24,0.05,0.33,0.15C23.4,18.01,23.32,18.63,22.39,19.46z"/>
	<path class="st15" d="M7.2,23.77c0,0.98-0.39,1.72-1.39,1.94c-0.99,0.22-2.61-0.42-2.79-1.19c-0.19-0.84-0.07-1.81,0.44-2.49
		c0.64-0.86,1.65-0.77,2.61-0.41c-1.04,0.8-1.04,0.82-0.08,1.51C6.36,23.39,6.75,23.64,7.2,23.77z"/>
	<path class="st16" d="M21.67,15.16c-0.63-0.05-1.4,0.29-1.76-0.59c-0.36-0.87-0.14-1.65,0.44-2.32c0.52-0.59,1.05-1.2,1.88-1.4
		c1.76-0.42,2.12-0.21,3.23,1.89c-0.44,0.34-0.83,0.05-1.22-0.1c-0.46-0.18-0.88-0.68-1.4-0.22c-0.54,0.49-0.99,1.07-0.7,1.87
		C22.34,14.81,22.13,15.04,21.67,15.16z"/>
	<path class="st17" d="M10.82,18.73c1.35-0.44,1.93-0.25,2.46,0.84c0.51,1.05,0.2,2.29-0.72,2.85c-0.74,0.45-2.39,0.21-2.9-0.42
		c-0.57-0.69-0.3-2.31,0.46-2.77c0.4,0.41,0.72,0.95,1.41,0.9c0.33-0.01,0.63-0.05,0.45-0.51C11.74,19.13,11.1,19.16,10.82,18.73z"
		/>
	<path class="st18" d="M21.67,15.16c0.04-0.23,0.5-0.35,0.31-0.56c-0.73-0.79-0.07-1.41,0.25-2.01c0.41-0.77,1.05-1.06,1.82-0.38
		c0.4,0.36,0.91,0.44,1.41,0.54c0.09,0.02,0.18,0.04,0.27,0.07c0.55-0.03,1.11-0.1,1.52,0.42c0.14,0.43-0.06,0.69-0.44,0.86
		c-0.74,0.08-1.33-0.35-1.97-0.61c-0.45-0.18-0.85-0.59-1.4-0.42c-0.58,0.38-0.34,0.76-0.05,1.19c0.51,0.75,1.25,1.32,1.71,2.12
		c-0.01,0.94-0.7,0.89-1.34,0.93c-0.52,0-0.87-0.29-1.16-0.68c-0.09-0.02-0.17-0.04-0.26-0.06c0,0-0.01-0.09-0.01-0.09
		C22.36,15.91,22.16,15.46,21.67,15.16z"/>
	<path class="st19" d="M18.05,10.6c0.7-0.75,1.61-0.79,2.55-0.73c0.2,0.01,0.41,0,0.5,0.24c0.1,0.27-0.03,0.47-0.24,0.61
		c-1.24,0.84-2.06,1.87-1.67,3.49c0.07,0.3-0.11,0.43-0.43,0.34c-0.71-0.19-1.58,0.01-2-0.83c-0.38-0.78-0.06-1.47,0.33-2.14
		c0.06-0.1,0.17-0.17,0.25-0.25c0.24,0.17,0.42,0.41,0.7,0.53c0.37,0.13,0.64-0.03,0.74-0.36C18.95,10.9,18.26,10.93,18.05,10.6z"/>
	<path class="st20" d="M10.65,25.23c0.53,0.73,0.78,1.34-0.47,1.58c-0.32,0.06-0.71,0.31-0.87,0.59c-0.55,0.94-1.27,0.79-2.06,0.46
		c-0.48-0.2-1.04-0.36-1.15-0.94c-0.11-0.6,0.57-0.56,0.85-0.85c0.22-0.22,0.5-0.46,0.57-0.74c0.34-1.25,1.13-1.25,2.11-0.84
		c0.01,0.24-0.04,0.45-0.23,0.62c-0.13,0.1-0.27,0.16-0.4,0.26c-0.19,0.14-0.43,0.31-0.23,0.57c0.17,0.24,0.43,0.15,0.64,0.03
		c0.28-0.16,0.48-0.42,0.75-0.58C10.32,25.28,10.48,25.24,10.65,25.23z"/>
	<path class="st21" d="M16.36,25.23c-0.26,0.72-0.22,1.54-0.73,2.18c-0.91-0.23-1.97-0.16-2.16-1.53c-0.26-1.88,0.57-2.8,2.66-2.77
		c0,0.48-0.52,0.74-0.51,1.22C15.33,25.08,15.8,25.2,16.36,25.23z"/>
	<path class="st22" d="M7.67,19.02c0.84,0.22,1.24,0.67,0.84,1.56c-0.27,0.6,0.32,1.58-0.43,1.83c-0.6,0.21-0.58-0.91-1.12-1.18
		c-0.28-0.14-0.52-0.4-0.81-0.47c-0.57-0.14-1.23-0.08-1.08-1c0.14-0.88,0.7-1.06,1.46-1.01C6.85,19.13,7.24,19.19,7.67,19.02z"/>
	<path class="st23" d="M26.48,8.67c0.33,0.37,0.68,1.06,0.32,1.22c-0.62,0.27-1.37,0.84-2.06,0.49c-0.75-0.39-1.43-0.62-2.25-0.34
		c-0.19,0.07-0.43,0.09-0.53-0.12c-0.16-0.31-0.05-0.59,0.16-0.88c0.78-1.08,2.22-1.42,3.85-0.88c-0.06,0.1-0.14,0.18-0.24,0.25
		c-0.18,0.13-0.49,0.24-0.33,0.51c0.19,0.33,0.46,0.13,0.69-0.02C26.21,8.82,26.33,8.72,26.48,8.67z"/>
	<path class="st24" d="M9.31,15.87c0.93-0.09,1.27,0.57,1.55,1.25c0.31,0.75-0.49,0.65-0.78,0.94c-0.08,0.08-0.2,0.14-0.29,0.21
		c-0.28,0.26-0.69,0.79-0.82,0.73c-0.57-0.26-1.1-0.64-1.55-1.08c-0.29-0.28,0.01-0.71,0.18-0.98C7.99,16.34,8.46,15.76,9.31,15.87z
		"/>
	<path class="st25" d="M16.04,11.62c-0.16,0.88-0.29,1.67-0.07,2.44c0.09,0.33,0.03,0.49-0.23,0.69c-0.31,0.24-0.55,0.57-0.86,0.82
		c-0.25,0.21-0.07,0.95-0.75,0.63c-0.49-0.23-0.84-0.55-0.91-1.15C13.01,13.21,13.77,12.23,16.04,11.62z"/>
	<path class="st26" d="M16.83,8.14c0.96-0.21,1.94-0.44,2.84,0.16c0.21,0.14,0.52,0.33,0.38,0.67c-0.11,0.27-0.42,0.19-0.64,0.17
		c-0.88-0.06-1.48,0.5-2.14,0.93c-0.2,0.13-0.34,0.36-0.55,0.45c-0.48,0.19-1.1,0.77-1.47,0.27c-0.34-0.47-0.22-1.24,0.34-1.73
		c0.24-0.21,0.46-0.43,0.7-0.65c0.22,0.03,0.42,0.31,0.62,0.2C17.12,8.51,16.84,8.31,16.83,8.14z"/>
	<path class="st27" d="M14.56,18.58c0,0.58-0.44,0.55-0.75,0.29c-1.02-0.87-2.34-1.46-2.77-2.93c-0.23-0.76,0.45-0.72,0.74-0.98
		c0.39-0.36,0.49,0.03,0.59,0.35c0.19,0.59,0.58,1.21,1.11,1.32C14.69,16.86,14.43,17.76,14.56,18.58z"/>
	<path class="st28" d="M19.52,21.44c-0.01,0.96-1.01,1.07-1.44,1.67c-0.61-0.45-1.23-0.82-2.05-0.76c-0.38,0.03-0.93,0.23-1.08-0.4
		c-0.12-0.52,0-1.02,0.32-1.46c0.36-0.48,0.77-0.21,1.17-0.07c0.14,0.05,0.27,0.15,0.41,0.22c0.07,0.24,0,0.63,0.3,0.66
		c0.37,0.04,0.22-0.4,0.37-0.59C18.4,20.39,18.8,21.36,19.52,21.44z"/>
	<path class="st29" d="M22.83,6.53c0.46,0.43,0.69,0.82-0.15,1.06c-0.04,0.01-0.07,0.04-0.1,0.07c-0.83,0.81-1.61,2.09-2.56,0.06
		c-0.15-0.32-0.83-0.38-1.27-0.56c0.59-1.4,1.39-1.91,2.43-1.53c0.05,0.1,0.07,0.21,0.05,0.32c-0.03,0.29-0.33,0.63-0.01,0.87
		c0.32,0.24,0.68,0.05,0.99-0.14C22.4,6.57,22.61,6.51,22.83,6.53z"/>
	<path class="st19" d="M16.36,19.49c-0.84-0.5-1.07-1.26-0.94-2.18c0.69,0.05,1.2-0.1,1.04-0.97c0.02-0.11,0.06-0.21,0.12-0.3
		c0.41-0.41-0.03-0.62-0.21-0.89c0.41-0.37,0.91-0.29,1.34-0.14c0.61,0.21,1.17,0.47,0.28,1.17c-0.97,0.77-0.89,1.95-0.89,3.06
		C16.89,19.49,16.62,19.48,16.36,19.49z"/>
	<path class="st30" d="M27.16,13.24c-0.48-0.14-0.95-0.29-1.43-0.43c0.42-0.37,0.14-0.73-0.03-1.07c-0.32-0.66,0-0.87,0.59-0.9
		c0.8-0.05,1.59-0.04,2.26,0.48c0.21,0.59-0.29,0.89-0.51,1.31C27.76,12.85,27.67,13.34,27.16,13.24z"/>
	<path class="st31" d="M30.06,9.18c-0.32,0.53-0.54,1.25-1.22,1.33c-0.41,0.05-0.98-0.2-1.13-0.69c-0.15-0.47-0.19-1.03,0.33-1.39
		c0.39-0.27,0.79-0.52,1.3-0.44C29.55,8.4,29.96,8.7,30.06,9.18z"/>
	<path class="st32" d="M7.82,23.57c0.66-0.75,0.96-0.92,1.76-0.6c1.19,0.48,1.93,1.34,2.76,2.19c0.3,0.31,0.47,0.62,0.42,1.05
		c-0.04,0.28-0.17,0.43-0.45,0.43c-0.21,0-0.45-0.06-0.45-0.29c-0.02-0.98-0.42-1.74-1.22-2.3C9.87,23.53,9,23.51,7.82,23.57z"/>
	<path class="st33" d="M33.64,9.41c-1.2,0.2-2.35,0.47-3.17,1.52c-0.21,0.27-0.38-0.05-0.43-0.31c0.48-0.8,0.93-1.63,1.71-2.2
		c0.66-0.19,1.12,0.18,1.58,0.55C33.43,9.12,33.54,9.27,33.64,9.41z"/>
	<path class="st34" d="M20.99,17.3c-0.15,0.57-0.58,0.75-1.08,0.66c-0.38-0.07-0.75-0.25-0.86-0.71c-0.15-0.61,0.36-0.81,0.69-1.12
		c0.32,0.02,0.64,0.03,0.96,0.05C20.98,16.5,21.09,16.87,20.99,17.3z"/>
	<path class="st35" d="M6.05,23.37c-0.66-0.07-1.2-0.33-1.17-1.08c0.03-0.74,0.68-0.64,1.18-0.68C6.47,21.89,7.02,22.05,7,22.7
		C6.76,23.03,6.45,23.26,6.05,23.37z"/>
	<path class="st36" d="M15.41,24.35c-0.17-0.66,0.29-0.94,0.73-1.24c0.59-0.02,1.08,0.16,1.42,0.66c-0.38,0.42-0.77,0.85-1.15,1.27
		C15.98,24.94,15.69,24.66,15.41,24.35z"/>
	<path class="st37" d="M10.82,18.73c0.56,0.09,1.15,0.13,1.44,0.75c-0.21,0.3-0.38,0.62-0.65,0.87c-0.86,0.1-1.43-0.17-1.49-1.12
		C10.27,18.95,10.52,18.81,10.82,18.73z"/>
	<path class="st38" d="M20.99,17.3c-0.28-0.32-0.45-0.68-0.29-1.12c0.64-0.41,1.16-0.17,1.64,0.29c0,0,0.01,0.09,0.01,0.09
		C22.23,17.43,21.62,17.38,20.99,17.3z"/>
	<path class="st39" d="M18.05,10.6c0.63-0.03,1.32,0.01,1.15,0.86c-0.14,0.68-0.67,1.04-1.42,0.64c0.14-0.38,0.09-0.72-0.18-1.03
		C17.75,10.92,17.9,10.76,18.05,10.6z"/>
	<path class="st40" d="M26.48,8.67c-0.02,0.35-0.18,0.6-0.5,0.75c-0.32,0.15-0.62,0.14-0.87-0.12c-0.18-0.17-0.29-0.39-0.21-0.64
		c0.18-0.53,0.6-0.57,1.06-0.49C26.14,8.33,26.31,8.5,26.48,8.67z"/>
	<path class="st41" d="M27.88,12.52c0.23-0.4,0.45-0.8,0.68-1.2c0.28-0.49,0.77-0.49,1.25-0.49c-0.25,0.61-0.55,1.2-0.99,1.7
		C28.5,12.73,28.19,12.82,27.88,12.52z"/>
	<path class="st42" d="M16.58,16.4c0.25,0.39,0.36,0.77-0.06,1.14c-0.49,0.44-0.76-0.07-1.11-0.23c0.01-0.23,0.02-0.45,0.03-0.68
		C15.72,16.05,16.11,16,16.58,16.4z"/>
	<path class="st43" d="M14.61,22.13c-0.77,0.91-1.67,1.34-1.92,2.3C12,23.76,12.61,22.98,14.61,22.13z"/>
	<path class="st44" d="M22.83,6.53c-0.15,0.1-0.3,0.21-0.44,0.31c-1.2,0.16-1.31,0.07-1.23-1.02c0.04-0.06,0.05-0.13,0.03-0.2
		C21.98,5.46,22.37,6.06,22.83,6.53z"/>
	<path class="st45" d="M30.06,9.18c-0.39-0.31-1.08-0.44-0.72-1.2c0.48-0.04,1.01-0.05,1.24,0.41C30.76,8.76,30.28,8.94,30.06,9.18z
		"/>
	<path class="st46" d="M17.52,20.72c0.26,0.34,0.39,0.69-0.01,1.01c-0.2,0.16-0.45,0.19-0.64,0.01c-0.35-0.34-0.44-0.72-0.02-1.09
		C17.08,20.67,17.3,20.69,17.52,20.72z"/>
	<path class="st47" d="M6.05,23.37C6.23,22.95,6.54,22.72,7,22.7c0.26,0.32,0.19,0.7,0.2,1.07C6.63,24.18,6.34,23.78,6.05,23.37z"/>
	<path class="st48" d="M16.36,15.15c0.38,0.11,0.94-0.01,0.96,0.61c0.01,0.44-0.44,0.33-0.71,0.43c-0.7,0.08-0.71-0.3-0.52-0.8
		C16.18,15.31,16.27,15.23,16.36,15.15z"/>
	<path class="st49" d="M16.83,8.14c0.35,0.05,0.78,0.03,0.7,0.56c-0.02,0.16-0.22,0.38-0.36,0.41c-0.51,0.09-0.83-0.14-0.87-0.69
		C16.48,8.33,16.66,8.24,16.83,8.14z"/>
	<path class="st50" d="M10.65,25.23c-0.11,0.1-0.22,0.2-0.33,0.3c-0.49,0.14-0.92,0.17-0.96-0.51c0.09-0.18,0.19-0.35,0.28-0.53
		C10.05,24.63,10.46,24.79,10.65,25.23z"/>
	<path class="st51" d="M17.6,11.08c0.28,0.01,0.58-0.02,0.66,0.35c0.09,0.4-0.13,0.59-0.48,0.67c-0.31-0.16-0.43-0.43-0.43-0.77
		C17.43,11.25,17.51,11.16,17.6,11.08z"/>
	<path class="st52" d="M7.67,19.02c-0.58,0.81-0.92,0.52-1.15-0.25C6.95,18.66,7.34,18.69,7.67,19.02z"/>
	<path class="st53" d="M16.09,15.39c0.03,0.36,0.04,0.73,0.52,0.8c0,0.07-0.01,0.14-0.02,0.21c-0.42-0.09-0.8-0.02-1.14,0.23
		C15.32,16.04,15.64,15.68,16.09,15.39z"/>
	<path class="st54" d="M16.36,19.49c0.18-0.28,0.47-0.22,0.73-0.24c0.08,0.24,0.57,0.46,0.28,0.65
		C17.01,20.13,16.63,19.8,16.36,19.49z"/>
	<path class="st55" d="M55.97,24.05c0.65,0.01,1.29,0.03,1.94,0.04c1.18,0.54,2.46,0.86,3.43,1.82c0.42,0.42,0.73,0.79-0.02,1.17
		c-0.16,0.04-0.31,0.04-0.47,0.02c-0.4-0.06-0.83-0.14-1.04,0.32c-0.21,0.45,0.13,0.74,0.4,1.04c0.22,0.23,0.46,0.45,0.74,0.6
		c0.21,0.11,0.4,0.23,0.63,0.3c0.32,0.1,0.62,0.09,0.84-0.19c0.2-0.25,0.1-0.51-0.05-0.75c-0.14-0.23-0.33-0.45-0.09-0.73
		c0.89-0.59,1.42,0.09,1.9,0.62c0.94,1.03,1.21,2.25,0.78,3.61c-2.19-0.67-3.83,0.57-5.52,1.61c-0.64,0.4-1.19,0.93-1.8,1.38
		c-0.62,0.46-1.28,0.84-2.03,0.99c-1.92,0.38-3.86,0.27-5.8,0.3c-0.54-1.05-0.56-2.26-1.03-3.35c-0.66-1.52-1.56-2.81-2.92-3.77
		c-0.06-0.06-0.12-0.12-0.18-0.17c-0.32-0.32-0.74-0.47-1.13-0.67c-1.18-0.61-1.28-1.02-0.48-2.12c2.01-2.73,4.18-3.18,7.48-2
		c0.1,0.07,0.17,0.16,0.21,0.28c0.03,0.78,0.69,0.92,1.22,1.13c1.38,0.55,2.82,0.4,4.55,0.31c-0.73-0.1-1.19,0-1.61-0.22
		c-0.4-0.27-0.8-0.55-0.76-1.09C55.18,24.01,55.67,24.17,55.97,24.05z"/>
	<path class="st56" d="M48.06,34.82c0.88,3.68,0.54,7.16-1.68,10.34c-0.94,1.14-2.3,1.37-3.63,1.65c-0.37,0.08-0.73,0.1-1.1-0.02
		c-1.19-0.91-2.72-1.35-3.58-2.71c-0.13-0.2-0.4-0.25-0.62-0.33c-1.24-0.41-1.89-1.4-2.4-2.5c-0.91-1.93-1.75-3.89-3.19-5.5
		c-0.8-0.89-1.55-1.81-2.37-2.68c-0.41-0.44-0.96-0.87-0.88-1.6c0.33-0.46,0.65-0.91,0.98-1.37c0.59-0.98,1.38-1.59,2.6-1.37
		c0.39,0.34,0.46,0.83,0.54,1.3c0.15,0.85,0.65,1.54,0.93,2.31c0.49,1.33,1.62,1.97,2.56,2.82c1.42,1.28,2.39,3.01,4.09,4.02
		c0.86,0.51,1.73,1,2.65,1.4c1.54,0.68,2.23,0.32,2.59-1.3c0.19-0.86,0.24-1.75,0.65-2.55C46.61,35.9,47.09,35.12,48.06,34.82z"/>
	<path class="st57" d="M48.06,34.82c-1.63,1.28-2,3.13-2.38,5.01c-0.26,1.28-1.07,1.74-2.26,1.24c-2.17-0.9-4.27-1.89-5.72-3.93
		c-0.71-0.99-1.77-1.73-2.57-2.66c-0.51-0.6-0.91,0.07-1.51,0c0.74-0.8,0.37-1.37-0.16-1.98c-0.9-1.04-1.04-2.37-1.25-3.67
		c0.45-0.9,1.31-0.57,2.03-0.66c0.38,0.13,0.63,0.39,0.73,0.79c-0.35,0.7-0.11,1.07,0.64,1.19c0.74,0.12,1.48,0.1,2.22,0.3
		c0.61,0.16,0.64-0.39,0.61-0.86c-0.03-0.37-0.05-0.74,0.23-1.05c1.51-0.17,2.95,0.02,4.26,0.84c0.25,0.81-0.37,0.56-0.72,0.56
		c-0.48,0.01-1.04-0.12-1.13,0.53c-0.08,0.58,0.47,0.76,0.89,0.97c0.29,0.14,0.6,0.19,0.92,0.21c1.19,0.06,1.38-0.22,0.87-1.28
		c-0.08-0.15-0.1-0.29,0.03-0.43c0.59-0.29,1.06,0.09,1.57,0.28C46.86,31.4,47.67,32.98,48.06,34.82z"/>
	<path class="st58" d="M28.6,31.47c1.41,2.07,3.4,3.65,4.74,5.78c0.66,1.05,1.35,2.16,1.84,3.23c0.38,0.84,0.72,1.66,1.32,2.37
		c0.31,0.37,0.66,0.69,1.21,0.64c0.11-0.01,0.31,0.01,0.34,0.07c0.72,1.54,2.52,1.82,3.53,3.03c-0.37,0.41-0.88,0.32-1.34,0.33
		c-3.26,0.02-6.34-0.88-9.15-2.4c-2.41-1.31-4.14-3.43-5.04-6.1c-0.14-0.41-0.33-0.81-0.53-1.2C25.86,34.93,26.99,33.07,28.6,31.47z
		"/>
	<path class="st59" d="M25.5,37.21c0.57,0.41,1.05,0.86,0.95,1.66c-0.02,0.15,0.01,0.34,0.1,0.46c1.72,2.26,3.24,4.7,6.19,5.67
		c2.88,0.95,5.73,1.87,8.82,1.6c0.4,0,0.8,0,1.2,0c0.08,0.62-0.42,0.69-0.82,0.83c-4.85,1.73-9.26,0.74-13.36-2.17
		c-0.63-0.44-1-1.14-1.66-1.54C25.49,41.76,24.93,39.61,25.5,37.21z"/>
	<path class="st60" d="M24.99,34.56c-0.08,0.09-0.17,0.17-0.25,0.26c-1,0.3-1.66-0.4-2.38-0.85c-2.6-1.61-3.86-4.73-3.15-7.66
		c0.11-0.47,0.21-0.94,0.64-1.25c1.73-0.66,3.17,0,3.29,1.52c-0.31,0.63-0.28,1.09,0.55,1.19c0.55,1.69,2.1,2.68,2.89,4.21
		c-0.01,0.18-0.02,0.36-0.22,0.44C25.74,33.03,25.21,33.69,24.99,34.56z"/>
	<path class="st61" d="M26.93,43.72c1.21,0.46,2.06,1.45,3.13,2.13c3.94,2.49,8.04,2.55,12.31,1.16c0.16-0.05,0.27-0.27,0.4-0.41
		c1.26-0.34,2.48-0.78,3.61-1.43c-0.8,1.64-2.21,2.61-3.84,3.2c-4.89,1.77-10.79,0.73-14.53-3.22
		C27.59,44.72,27.28,44.2,26.93,43.72z"/>
	<path class="st62" d="M34.84,29.07c-0.16-0.23-0.32-0.47-0.48-0.7c-0.48-0.21-1.02-0.35-1.02-1.04c0.49-0.35,0.12-0.71-0.01-1.05
		c-0.56-1.45-1.13-2.89-1.7-4.34c-0.12-0.3-0.28-0.63,0.01-0.89c0.3-0.26,0.64-0.03,0.87,0.15c1.16,0.87,2.64,1.12,3.78,2.01
		c0.83,0.68,1.23,1.76,2.13,2.39c0.24,0.32,0.32,0.65,0.07,1c0.22,0.26,0.43,0.52,0.65,0.78c-0.08,0.22-0.15,0.43-0.23,0.65
		c0.02,0.22-0.02,0.42-0.21,0.56c-0.02,0.4-0.03,0.79-0.05,1.19c-0.44,0.45-0.95,0.36-1.48,0.23c-0.99-1.18-1.3-2.7-1.98-4.03
		c-0.12-0.24-0.11-0.6,0.22-0.72c0.24-0.09,0.45,0.13,0.59,0.33c0.58,0.86,0.92,1.84,1.37,2.85c0.1-2.78-0.82-3.98-3.94-5.19
		c0.6,1.91,1.72,3.52,2.41,5.32c0.1,0.25,0.32,0.46,0.23,0.77C35.56,29.71,35.09,29.87,34.84,29.07z"/>
	<path class="st63" d="M51.62,24.31c-1.43-0.24-2.81-0.74-4.31-0.32c-0.96,0.27-3.27,2.14-3.53,3.08c-0.12,0.44,0.12,0.63,0.47,0.83
		c0.5,0.28,1.16,0.35,1.42,0.98c-0.73-0.33-1.43-0.74-2.19-0.96c-0.74-0.21-0.23-0.97-0.7-1.25c-0.29,0.19-0.57,0.25-0.78-0.11
		c0.81-0.76,1.36-1.79,2.46-2.23c1.92-1.17,4.06-1.43,6.25-1.47c0.75-0.03,1.45,0.06,2.03,0.6C52.86,24.47,52.7,24.59,51.62,24.31z"
		/>
	<path class="st64" d="M45.85,29.06c0.93,0.1,1.34,0.9,1.8,1.5c1.23,1.6,1.88,3.46,2.08,5.47c0.61,1.17,0.32,2.42,0.22,3.63
		c-0.06,0.7-0.04,0.99,0.82,0.93c1.02-0.07,1.91,0.43,2.61,1.2c-0.48,0.91-1.3,0.58-1.97,0.43c-0.83-0.18-1.61-0.26-2.41,0.06
		c0,0,0,0,0,0c0.09-0.99,0.12-1.98,0.26-2.96c0.57-3.82-0.27-7.17-3.14-9.88C46.02,29.34,45.94,29.19,45.85,29.06z"/>
	<path class="st65" d="M38.71,28.59c-0.01-0.21,0-0.43,0.21-0.56c1.89,0.01,3.7,0.35,5.36,1.29c0.41,0.23,0.85,0.43,1.07,0.9
		c-0.59,0.15-1.11-0.19-1.66-0.28c-0.29,0.07-0.51-0.04-0.67-0.27C41.7,28.85,40.14,28.96,38.71,28.59z"/>
	<path class="st66" d="M33.34,27.33c0.34,0.35,0.68,0.69,1.02,1.04c-0.73,0.11-1.48,0.11-2.16,0.47c-1.1-0.04-1.78,0.77-2.62,1.26
		c-0.08-0.23-0.27-0.28-0.48-0.28c-0.03-0.04-0.06-0.08-0.09-0.12c0.03-0.04,0.05-0.09,0.08-0.13
		C30.45,28.73,31.62,27.49,33.34,27.33z"/>
	<path class="st67" d="M42.05,26.45c0.19,0.26,0.47,0.2,0.73,0.23c-0.2,0.55-0.49,0.79-1.14,0.59c-0.54-0.17-1.15-0.12-1.73-0.17
		c-0.05-1.74,1.11-0.52,1.7-0.7C41.77,26.29,41.91,26.32,42.05,26.45z"/>
	<path class="st66" d="M26.36,32.43c0.04-0.15,0.08-0.3,0.11-0.44c0.63-1,1.19-2.09,2.57-2.22c0,0,0.05,0.05,0.05,0.05
		C28.25,30.76,27.46,31.75,26.36,32.43z"/>
	<path class="st68" d="M70.14,6.28c0.02,0.72-0.37,1.31-0.72,1.87c-0.68,1.09-0.68,2.2-0.32,3.36c-1.68,2.44-3.42,4.81-6.06,6.34
		c-1.21,0.7-2.33,1.55-3.51,2.31c-0.38,0.24-0.76,0.67-1.28,0.25c-0.26-0.5-0.07-0.94,0.22-1.34c0.34-0.47,0.53-0.98,0.56-1.56
		c0.12-0.87,0.49-1.67,0.7-2.51c0.11-0.46,0.38-0.77,0.82-0.94c1.37-0.71,2.76-1.39,3.79-2.61c0.43-0.51,0.49-0.95-0.05-1.4
		c0.46-1.08,1.09-1.87,2.43-1.81c0.98,0.05,1.67-0.58,2.33-1.23C69.37,6.7,69.53,6.14,70.14,6.28z"/>
	<path class="st69" d="M58.37,20.43c3.45-2.14,7.19-3.93,9.39-7.61c0.34-0.57,0.79-0.98,1.34-1.31c0.71,4.33-1.7,7.14-4.73,9.63
		c-1.1,0.91-2.25,1.75-3.38,2.62c-1.72-0.71-3.48-0.93-5.3-0.41c-0.6,0.02-0.71-0.48-0.92-0.87c-0.09-0.22-0.16-0.45-0.09-0.69
		c0.14-0.37,0.39-0.59,0.8-0.59C56.59,21.5,57.55,21.19,58.37,20.43z"/>
	<path class="st70" d="M40.37,18.48c-0.28-1.08,0.23-1.36,1.19-1.17c5.38-0.1,10.68-0.67,15.59-3.13c0.51-0.02,1.05-0.17,1.49,0.26
		c0.01,0.45-0.34,0.61-0.65,0.77c-3.5,1.85-7.24,2.89-11.19,3.16c-1.53-0.04-3.07,0.11-4.6-0.12c-0.55-0.08-0.97,0.28-1.47,0.36
		C40.59,18.63,40.47,18.58,40.37,18.48z"/>
	<path class="st71" d="M70.14,6.28c-0.38,0.13-0.46,0.53-0.7,0.78c-0.6,0.64-1.21,1.43-2.13,1.35c-1.48-0.12-2.25,0.7-2.95,1.75
		c-0.13,1.05-1,1.01-1.73,1.18c-0.3-0.06-0.69-0.01-0.66-0.5c0.48-0.53,1.04-1,1.41-1.6c0.68-1.11,1.67-1.47,2.84-1.28
		c0.99,0.16,1.48-0.32,1.87-1.04c0.53-0.97,1.01-1.98,1.56-2.94c0.14-0.25,0.09-0.84,0.64-0.65c0.49,0.16,0.62,0.59,0.48,1.07
		C70.58,5.03,70.36,5.65,70.14,6.28z"/>
	<path class="st72" d="M61.97,10.84c0.15,0.34,0.48,0.15,0.72,0.25c0.1,0.6-0.36,0.86-0.74,1.1c-0.95,0.6-1.73,1.38-2.53,2.15
		c-0.25,0.16-0.5,0.34-0.79,0.09c-0.5-0.04-1.03,0.05-1.48-0.26C58.86,13.21,60.58,12.26,61.97,10.84z"/>
	<path class="st73" d="M49,42.28c0.3-0.71,0.77-0.81,1.49-0.61c0.91,0.26,1.86,0.69,2.83,0.13c0.4-0.32,0.82-0.14,1.22-0.03
		c0.66,0.18,1.3,0.13,1.95,0c1.78,0.29,3.51,0.16,5.19-0.53c0.26-0.1,0.53-0.14,0.77,0.08c-0.69,0.94-1.65,1.56-2.64,2.15
		c-2.85,1.37-5.87,0.71-8.83,0.75c-0.63,0.01-1.06-0.77-1.78-0.5C48.83,43.29,49.06,42.77,49,42.28z"/>
	<path class="st74" d="M62.46,41.33c-1.94,0.81-3.92,1.24-6.02,0.71c-0.05-0.52,0.4-0.54,0.7-0.66c2.31-0.88,4.32-2.24,6.17-3.86
		c0.44-0.39,0.87-0.87,1.58-0.58c0.51,0.6-0.32,1.13-0.1,1.71C64.37,39.86,63.5,40.68,62.46,41.33z"/>
	<path class="st75" d="M64.78,38.66c-0.32-0.57,0.29-1.09,0.09-1.66c-0.66-1.68-0.62-3.36-0.04-5.05c-0.07-1.45,0.07-2.94-1.35-3.95
		c-0.44-0.32-0.8-0.46-1.26-0.11c-0.59,0.17-0.86-0.19-1.07-0.66c-0.02-0.12,0.02-0.22,0.11-0.31c0.63-0.41,0.13-0.59-0.16-0.84
		c-0.96-0.85-2.19-1.25-3.21-1.99c2.14,0.31,3.95,1.17,5.52,2.74c2.31,2.3,2.56,5.06,2.31,8.05C65.62,36.2,65.35,37.46,64.78,38.66z
		"/>
	<path class="st76" d="M54.74,21.91c0.07,0.17,0.15,0.33,0.22,0.5c-0.05,0.39,0.15,0.78,0.04,1.17c0.32,0.16,0.65,0.31,0.97,0.47
		c-1.3,0.47-0.22,0.95-0.01,1.43c-0.74,0.23-1.24-0.28-1.82-0.57c-0.32-1.22-0.01-2.55-0.61-3.73c-0.25-0.48-0.35-1.04-0.84-1.39
		c0.2,1.04,0.6,2.01,0.9,3.01c0.17,0.57,0.38,1.14,0.1,1.74c-0.71,0.6-1.41,0.67-2.08-0.06c0.01-0.06,0.02-0.12,0.01-0.17
		c0.37-0.17,1.21,0.31,0.97-0.71c-0.81-1.38-1.1-2.97-1.75-4.42c-0.25-0.55-0.09-1.02,0.52-1.25c0.94-0.35,2.41,0.22,2.95,1.14
		c0.12,0.47,0.26,0.94,0.41,1.4C54.88,20.95,54.77,21.43,54.74,21.91z"/>
	<path class="st77" d="M49.21,43.73c0.16-0.7,0.54-0.96,1.02-0.31c0.37,0.5,0.8,0.56,1.33,0.54c2.76-0.06,5.54,0.22,8.26-0.49
		c-2.93,2.41-6.17,2.13-9.5,1.12C49.86,44.46,49.46,44.18,49.21,43.73z"/>
	<path class="st78" d="M55,23.58c-0.31-0.38-0.35-0.77-0.04-1.17c0.28,0.29,0.34,0.75,0.74,0.95C55.52,23.61,55.25,23.56,55,23.58z"
		/>
	<path class="st79" d="M54.06,19.22c-0.33-0.78-2.31-1.39-2.91-0.92c-0.37,0.3-0.1,0.55,0,0.84c0.53,1.47,1.26,2.88,1.44,4.46
		c-0.6-0.31-1.23-0.46-1.9-0.51c-1.88-0.14-3.72,0.01-5.45,0.86c-1.35-0.34-2.74-0.39-4.12-0.52c-0.82-0.07-1.23-0.37-1.13-1.26
		c0.09-0.74-0.09-1.5,0.1-2.24c0.01-0.15,0.02-0.3,0.04-0.45c1.24-0.5,2.15,0.19,2.97,0.92c0.65,0.58,1.29,0.74,2.07,0.41
		c0.18-0.08,0.5-0.18,0.45-0.33c-0.3-1.05,0.85-1.35,1.04-2.14c0.04-0.1,0.1-0.19,0.17-0.28c4.17-0.44,8.19-1.38,11.8-3.64
		c0.22-0.08,0.44-0.15,0.65-0.23c0.5-0.28,1-0.49,1.48,0.04c-1.07,0.37-0.71,1.51-1.17,2.22c-0.2,0.31-0.21,0.74-0.3,1.12
		c-0.76,0.33-1.56,0.32-2.36,0.29c-1.06-0.05-2,0.05-2.48,1.18C54.39,19.21,54.23,19.26,54.06,19.22z"/>
	<path class="st80" d="M38.5,26.6c-0.07-0.3-0.01-0.64-0.28-0.88c-0.5-0.77-1.16-1.44-1.47-2.33c-0.04-0.19-0.03-0.41-0.13-0.57
		c-1.6-2.68-1.09-5.26,0.4-7.76c0.31-0.52,0-1.13,0.42-1.57c0.63,0.69,0.57,1.6,0.56,2.38c-0.02,3.16,0.34,6.28,0.7,9.41
		C38.45,25.69,39.51,26.31,38.5,26.6z"/>
	<path class="st81" d="M38.71,25.28c-0.62-1.67-0.93-3.41-0.92-5.17c0.01-2.22-0.13-4.42-0.34-6.62c0.03-0.54-0.37-0.94-0.49-1.43
		c1.19,0.21,1.52,1.3,2.15,2.08c0.17,0.21,0.14,0.53,0.28,0.77c-0.11,2.8-0.55,5.59-0.52,8.4C38.86,23.96,39.02,24.64,38.71,25.28z"
		/>
	<path class="st82" d="M40.1,19.94c0,0.04,0.01,0.08,0.01,0.12c0.11,3.21,0.11,3.23,3.42,3.25c0.69,0,1.35,0.02,1.9,0.51
		c-0.13,0.5-0.57,0.57-0.97,0.71c-0.95,0.46-1.22,1.76-2.41,1.91c-0.15-0.02-0.29-0.04-0.44-0.06c0.21-0.44,0.23-0.76-0.41-0.77
		c-1.14-0.02-1.46-0.66-1.32-1.71C40.04,22.6,39.69,21.25,40.1,19.94z"/>
	<path class="st83" d="M46.87,18.26c0.49,0.67-0.34,0.73-0.52,1.09c-0.12,0.24-0.66,0.41-0.5,0.55c0.66,0.58,0.48,0.79-0.24,1.09
		c-0.89,0.37-1.89,0.67-2.52-0.1c-0.82-1.01-1.84-1.24-2.97-1.39c0.16-0.32,0.28-0.65,0.24-1.02c0.08,0.01,0.16,0.02,0.24,0.03
		c1.32-0.47,2.68,0.03,4.02-0.19C45.35,18.2,46.12,17.98,46.87,18.26z"/>
	<path class="st84" d="M35.34,8.68c0.4-1.16,0.27-2.49,1.17-3.52c0.24-0.28,0.35-0.65,0.78-0.5c0.4,0.14,0.5,0.53,0.41,0.89
		c-0.34,1.4-0.18,2.97-1.39,4.07c-0.04,0.29-0.19,0.51-0.4,0.71c-0.28,0.28-0.56-0.03-0.73-0.09c-0.46-0.15,0.03-0.33,0.12-0.44
		c0.26-0.33-0.02-0.61-0.03-0.91C35.31,8.83,35.33,8.76,35.34,8.68z"/>
	<path class="st85" d="M39.38,14.9c-0.8-0.96-1.43-2.05-2.43-2.85c-0.17-0.22-0.44-0.38-0.37-0.71c0.75-0.27-0.56-0.76,0.07-0.94
		c0.65-0.19,1.1,0.32,1.55,0.71C39.37,12.14,39.62,13.44,39.38,14.9z"/>
	<path class="st86" d="M19.97,25.24c-1.82,3.44,0.19,6.84,2.45,8.41c0.71,0.49,1.47,0.94,2.32,1.17c-0.09,0.27-0.17,0.53-0.25,0.8
		c-0.3,0.21-0.62,0.16-0.91,0.01c-1.74-0.91-3.4-1.91-4.75-3.38c-1.71-1.86-1.27-3.97-0.71-6.07c0.15-0.55,0.48-1.07,0.71-1.39
		c-0.37,0.65-0.89,1.45-1.21,2.36c-0.23,0.66-0.56,0.74-0.96,0.11c0.62-2.09,2.15-3.5,3.73-4.85c1.36-1.16,2.81-2.21,3.91-3.65
		c-0.1-0.2-0.03-0.39,0.1-0.55c0.94-1.17,1.74-2.43,2.63-3.63c0.22-0.29,0.4-0.72,0.9-0.63c0.38,0.52,0.12,0.99-0.15,1.43
		C25.57,18.98,23.16,22.42,19.97,25.24z"/>
	<path class="st87" d="M16.66,27.24c0.25,0.01,0.53,0.63,0.72-0.16c0.33-1.34,1.24-2.37,2.17-3.51c0.15,0.48-0.16,0.67-0.3,0.88
		c-1.13,1.74-1.45,3.63-1.26,5.67c0.06,0.65,0.31,1.16,0.71,1.6c1.62,1.75,3.51,3.1,5.78,3.89c-0.19,0.64-0.71,0.47-1.05,0.3
		c-2.4-1.16-4.39-2.8-5.96-5.01C16.66,29.75,16.8,28.49,16.66,27.24z"/>
	<path class="st88" d="M27.88,13.95c-1.2,1.6-2.39,3.19-3.59,4.79c-0.24,0.01-0.47,0.01-0.71,0.02c-0.86-0.66-0.45-1.18,0.2-1.66
		c0.46-0.15,1.1,0.02,1.24-0.7c0.16-0.88,0.83-1.48,1.26-2.21c0.11-0.13,0.29-0.15,0.42-0.24c0.28-0.16,0.46-0.38,0.46-0.72
		c0.24-0.24,0.48-0.48,0.72-0.72c0.31,0,0.62,0,0.94,0c-0.07,0.16-0.14,0.31-0.22,0.47C28.59,13.48,28.36,13.81,27.88,13.95z"/>
	<path class="st89" d="M23.78,17.11c-0.24,0.53-0.66,1.04-0.2,1.66c-0.28,0.43-0.71,0.61-1.2,0.7c0.73-0.9,0.47-1.87,0.21-2.84
		C22.99,16.78,23.39,16.94,23.78,17.11z"/>
	<path class="st90" d="M15.41,24.35c0.55-0.08,0.81,0.26,0.99,0.7c-0.01,0.06-0.03,0.12-0.04,0.18c-0.31,0.24-0.61,0.57-1.02,0.18
		C14.97,25.04,15.22,24.69,15.41,24.35z"/>
	<path class="st91" d="M18.75,36.01c0.11,0.92,0.05,1.79-0.99,2.15c-0.99,0.34-2.39-0.23-2.9-1.14c-0.31-0.57-0.34-1.32,0.12-1.65
		c0.59-0.42,1.17-1.28,2.14-0.74C17.52,35.25,18.04,35.74,18.75,36.01z"/>
	<path class="st92" d="M18.75,36.01c-1.02,0.1-1.57-0.36-1.63-1.39C18.1,34.57,18.4,35.32,18.75,36.01z"/>
	<path class="st93" d="M8.87,35.75c0.1,1.66-0.47,2.38-1.8,2.2c-0.85-0.11-1.51-0.45-1.52-1.48c-0.01-1.04,0.26-1.8,1.45-1.86
		C7.25,35.6,7.99,35.78,8.87,35.75z"/>
	<path class="st94" d="M8.87,35.75c-0.49,0.37-1,0.45-1.51,0.05c-0.39-0.31-0.72-0.66-0.35-1.19C7.77,34.74,9.04,34.07,8.87,35.75z"
		/>
	<path class="st95" d="M34.53,9.03c-0.75-2.05-0.49-3.96-1.37-5.64C34.17,3.58,34.79,6.07,34.53,9.03z"/>
	<path class="st96" d="M27.88,13.95c0.24-0.32,0.48-0.64,0.71-0.96c1.33,0.7,2.27,2.94,1.85,4.64c-0.44,1.77-0.66,3.57-0.9,5.38
		c-0.07,0.5-0.25,1-0.46,1.47c-0.75,1.7-0.52,3.38-0.01,5.08c-0.01,0.07-0.02,0.14-0.03,0.2c-1.07,0.5-1.65,1.56-2.57,2.22
		c-0.51-0.55-0.98-1.14-1.54-1.63c-0.76-0.68-1.04-1.61-1.42-2.49c-0.27-0.38-0.43-0.82-0.67-1.21c0.09-0.82-1-1.74-1.97-1.63
		c-0.31,0.03-0.6,0.15-0.9,0.23c0.81-1.6,2.39-2.53,3.4-3.97c1.46-2.08,3.06-4.06,4.32-6.28C27.88,14.65,27.87,14.31,27.88,13.95z"
		/>
	<path class="st97" d="M33.34,10.8c-0.04,0.53-1.33,1.52-1.79,1.5c-0.34-0.02-0.51-0.15-0.49-0.51c0.03-0.61,1.02-1.61,1.6-1.57
		C33.08,10.25,33.26,10.53,33.34,10.8z"/>
	<path class="st98" d="M36.75,23.39c0.62,0.7,1.3,1.35,1.47,2.33c-1-0.56-1.42-1.56-1.92-2.51C36.45,23.27,36.6,23.33,36.75,23.39z"
		/>
	<path class="st99" d="M12.53,28.85c-0.32,0.55-0.81,0.55-1.32,0.37c-0.28-0.1-0.39-0.38-0.36-0.67c0.06-0.54,0.44-0.68,0.92-0.69
		C12.12,28.11,12.31,28.49,12.53,28.85z"/>
	<path class="st100" d="M12.53,28.85c-0.58-0.08-0.82-0.42-0.76-0.99c0.38-0.3,0.78-0.39,1.09,0.05
		C13.15,28.33,12.86,28.62,12.53,28.85z"/>
	<path class="st101" d="M11.6,20.35c-0.11-0.54,0.1-0.83,0.66-0.87c0.17,0.22,0.37,0.46,0.19,0.75
		C12.23,20.58,11.91,20.47,11.6,20.35z"/>
	<path class="st102" d="M26.51,14.25c-0.5,0.72-0.99,1.44-1.49,2.16c-0.97-0.59-1.51-1.58-2.22-2.41c-0.52-0.61,0.09-0.96,0.56-1.25
		C24.32,13.46,25.42,13.85,26.51,14.25z"/>
	<path class="st103" d="M26.51,14.25c-1.3,0.03-2.44-0.29-3.14-1.5c0.8-0.32,1.25,0.45,1.89,0.63c0.49,0.14,0.96,0.38,1.44,0.58
		C26.64,14.06,26.58,14.15,26.51,14.25z"/>
	<path class="st104" d="M9.36,25.01c0.19,0.41,0.54,0.53,0.96,0.51c-0.14,0.13-0.33,0.24-0.42,0.4c-0.31,0.54-0.75,0.65-1.29,0.45
		c-0.23-0.09-0.4-0.29-0.36-0.54C8.36,25.21,8.79,25.01,9.36,25.01z"/>
	<path class="st105" d="M14.94,13.24c0.47,0.05,0.72,0.32,0.68,0.79c-0.03,0.41-0.3,0.64-0.72,0.63c-0.48-0.02-0.73-0.31-0.69-0.77
		C14.25,13.47,14.52,13.26,14.94,13.24z"/>
	<path class="st106" d="M21.15,5.82c-0.05,0.89,0.57,0.98,1.23,1.02c-0.42,0.52-0.97,0.63-1.45,0.19
		C20.47,6.61,20.78,6.18,21.15,5.82z"/>
	<path class="st107" d="M64.83,31.95c0.18,1.68,0.16,3.36,0.04,5.05c-0.98,0.05-1.47,0.88-2.12,1.42c-1.9,1.57-4.05,2.7-6.32,3.62
		c-1.09,0.59-2.08-0.1-3.11-0.24c-0.56-0.29-1.17-0.43-1.7-0.81c-0.67-0.48-1.34-0.01-2.16,0.33c0.25-1.86,0.3-3.58,0.27-5.3
		c1.65-0.32,3.32-0.14,4.97-0.26c1.57-0.12,2.8-1.05,3.93-2.06c1.52-1.37,3.4-1.97,5.28-2.6C64.67,30.87,64.45,31.75,64.83,31.95z"
		/>
	<path class="st108" d="M51.61,24.48c0.64,0.28,1.28,0.36,1.93,0.05c0.35,0,0.52,0.26,0.73,0.47c0.72-0.4,1.07,0.51,1.68,0.49
		c0.66,0.01,1.33,0.04,2.04-0.22c0.04,0.64-0.41,0.81-0.72,0.85c-1.95,0.25-3.88,0.29-5.6-0.91C51.43,25.02,50.74,24.8,51.61,24.48z
		"/>
	<path class="st109" d="M61.28,27.16c0.26,0.32,0.55,0.59,0.95,0.73c0.37,0.42,1.03,0.78,0.49,1.46c-0.6,0.76-1.26,0.4-1.88-0.04
		c-0.39-0.44-0.95-0.8-0.72-1.52C60.3,27.24,60.77,27.14,61.28,27.16z"/>
	<path class="st110" d="M59.33,29.32c-0.07,0.51-0.32,0.93-0.89,0.9c-0.48-0.02-0.78-0.39-0.78-0.88c0-0.55,0.32-0.93,0.87-0.92
		C59.01,28.44,59.27,28.82,59.33,29.32z"/>
	<path class="st111" d="M61.28,27.16c-1.29,0.58-1.29,0.61-0.44,2.15c-0.45-0.12-0.69-0.51-1.02-0.79c-0.42-0.37-0.7-0.8-0.36-1.35
		c0.32-0.52,0.8-0.59,1.35-0.36c0.14,0.06,0.31,0.08,0.46,0.12C61.25,27.01,61.25,27.08,61.28,27.16z"/>
	<path class="st112" d="M43.02,29.67c0.22,0.09,0.45,0.18,0.67,0.27c0.17,0.16,0.34,0.32,0.5,0.49c0.25,0.26,0.51,0.56,0.37,0.94
		c-0.14,0.4-0.48,0.58-0.92,0.61c-0.86,0.07-1.65-0.1-2.38-0.54c-0.43-0.26-0.78-0.61-0.6-1.16c0.18-0.58,0.65-0.74,1.22-0.7
		C42.25,29.62,42.62,29.91,43.02,29.67z"/>
	<path class="st113" d="M36.99,29.78c0.55,0,1.11,0,1.66,0c0.39,0.7-0.4,1.14-0.59,1.05c-1.05-0.51-2.25-0.02-3.25-0.6
		c-0.27-0.16-0.62-0.26-0.65-0.63c-0.03-0.46,0.47-0.32,0.67-0.53c0.3,0.48,0.78,0.27,1.2,0.31C36.42,29.36,36.72,29.54,36.99,29.78
		z"/>
	<path class="st114" d="M45.89,32.87c-0.02,0.4-0.18,0.72-0.62,0.72c-0.4,0-0.71-0.25-0.74-0.64c-0.04-0.41,0.28-0.66,0.66-0.71
		C45.64,32.18,45.84,32.46,45.89,32.87z"/>
	<path class="st115" d="M41.2,33.91c0.21,0.04,0.34,0.16,0.34,0.38c-0.01,0.22-0.14,0.39-0.34,0.38c-0.2,0-0.33-0.17-0.34-0.39
		C40.86,34.06,40.99,33.95,41.2,33.91z"/>
	<path class="st116" d="M21.63,27.52c0,0,0,0.29-0.09,0.54c-0.19,0.52-0.39,1.14-1.1,1.01c-0.64-0.11-0.65-0.71-0.68-1.23
		c-0.01-0.2-0.02-0.4-0.02-0.59c0.01-0.69,0.07-1.45,0.97-1.46C21.65,25.77,21.65,26.54,21.63,27.52z"/>
	<path class="st117" d="M22.84,26.65c0.73,0.12,0.89,0.57,0.67,1.21c-0.25,0.18-0.51,0.39-0.76,0.01
		C22.47,27.45,22.43,27.03,22.84,26.65z"/>
	<path class="st118" d="M36.99,29.78c-0.42,0.11-0.73-0.05-0.96-0.4c-1.19-2.09-2.23-4.26-3.11-6.56c3.69,0.91,5.12,2.84,4.68,6.47
		c-0.99-1.25-1.14-2.8-2.19-3.85C35.73,26.95,36.83,28.2,36.99,29.78z"/>
	<path class="st119" d="M44.45,24.54c0.32-0.24,0.64-0.48,0.97-0.71c1.64-1.05,3.4-1.27,5.27-0.74c-0.28,0.32-0.66,0.25-1.01,0.22
		c-1.73-0.15-3.32,0.24-4.73,1.28C44.78,24.72,44.6,24.75,44.45,24.54z"/>
	<path class="st120" d="M54.06,19.22c0.41-1.43,1.4-1.89,2.8-1.67c0.81,0.13,1.63-0.25,2.45,0.03c0.1,0.58-0.04,1.09-0.47,1.48
		c-0.42,0.38-0.53,0.83-0.46,1.36c-0.51,1.17-1.45,1.49-2.91,0.97c-0.36-0.28-0.57-0.7-0.97-0.94
		C54.22,20.08,54.11,19.66,54.06,19.22z"/>
	<path class="st121" d="M60.77,14.25c-0.49-0.01-0.99-0.03-1.48-0.04c0.83-1.37,2.44-1.89,3.4-3.12c0.66-0.13,1.28-0.33,1.67-0.93
		c0.9-0.12,0.97,0.23,0.55,0.92C63.95,12.7,62.35,13.46,60.77,14.25z"/>
	<path class="st122" d="M61.06,21.79c0.58-2.9,2.58-4.45,5.06-5.7C65.74,19.37,63.6,20.81,61.06,21.79z"/>
	<path class="st123" d="M54.49,20.45c0.61,0.06,0.69,0.14,0.97,0.94c-0.38-0.02-0.47,0.36-0.72,0.52
		C54.35,21.48,54.67,20.92,54.49,20.45z"/>
	<path class="st124" d="M46.87,18.26c-0.79,0.09-1.61,0.07-2.36,0.29c-1.33,0.39-2.61,0.03-3.9-0.04c0.59-0.56,1.25-0.67,2.07-0.59
		c1.38,0.14,2.77,0.11,4.15,0.16C46.84,18.14,46.86,18.2,46.87,18.26z"/>
	<path class="st125" d="M54.27,24.99c-0.39,0.07-0.57-0.19-0.73-0.47c0.07-1.53-0.73-2.83-1.14-4.23c-0.12-0.4-0.52-0.89,0.06-1.14
		c0.61-0.26,0.65,0.43,0.83,0.77C54.18,21.5,54.47,23.2,54.27,24.99z"/>
</g>
</svg>
