<?xml version="1.0" encoding="utf-8"?>
<!-- Generator: Adobe Illustrator 23.0.2, SVG Export Plug-In . SVG Version: 6.00 Build 0)  -->
<svg version="1.1" id="Camada_1" xmlns="http://www.w3.org/2000/svg" xmlns:xlink="http://www.w3.org/1999/xlink" x="0px" y="0px"
	 viewBox="0 0 72.24 50.71" style="enable-background:new 0 0 72.24 50.71;" xml:space="preserve">
<style type="text/css">
	.st0{fill:#3D2065;}
	.st1{fill:#904410;}
	.st2{fill:#445B10;}
	.st3{fill:#5E1919;}
	.st4{fill:#925C20;}
	.st5{fill:#925D1F;}
	.st6{fill:#3F550F;}
	.st7{fill:#611B1B;}
	.st8{fill:#3B1F60;}
	.st9{fill:#6B351B;}
	.st10{fill:#3D2062;}
	.st11{fill:#1E6237;}
	.st12{fill:#3D2A47;}
	.st13{fill:#3F540D;}
	.st14{fill:#445413;}
	.st15{fill:#98AA45;}
	.st16{fill:#7A456D;}
	.st17{fill:#784067;}
	.st18{fill:#77395C;}
	.st19{fill:#7B4771;}
	.st20{fill:#7B4670;}
	.st21{fill:#7C4D7A;}
	.st22{fill:#793D61;}
	.st23{fill:#794167;}
	.st24{fill:#7B3E63;}
	.st25{fill:#7F4C79;}
	.st26{fill:#7A436B;}
	.st27{fill:#7D5080;}
	.st28{fill:#7C4A77;}
	.st29{fill:#996320;}
	.st30{fill:#7E5384;}
	.st31{fill:#7A426B;}
	.st32{fill:#7C4E7C;}
	.st33{fill:#7C4D7B;}
	.st34{fill:#7E5486;}
	.st35{fill:#7B4166;}
	.st36{fill:#F8F996;}
	.st37{fill:#CC4AAA;}
	.st38{fill:#CC4194;}
	.st39{fill:#CD4199;}
	.st40{fill:#CF4FB6;}
	.st41{fill:#B157AC;}
	.st42{fill:#EDE6EC;}
	.st43{fill:#D153BE;}
	.st44{fill:#EEDAEA;}
	.st45{fill:#475C16;}
	.st46{fill:#75416C;}
	.st47{fill:#F0E3F0;}
	.st48{fill:#CD60C8;}
	.st49{fill:#D1B7C9;}
	.st50{fill:#E6D8E3;}
	.st51{fill:#DCD1DD;}
	.st52{fill:#ECE4EA;}
	.st53{fill:#DCCFD8;}
	.st54{fill:#E797DB;}
	.st55{fill:#E4BAD4;}
	.st56{fill:#BE4FA5;}
	.st57{fill:#B92B2B;}
	.st58{fill:#D55400;}
	.st59{fill:#A61F00;}
	.st60{fill:#B23000;}
	.st61{fill:#972828;}
	.st62{fill:#1F6538;}
	.st63{fill:#591A18;}
	.st64{fill:#843D0E;}
	.st65{fill:#F8F4F0;}
	.st66{fill:#69270F;}
	.st67{fill:#72360D;}
	.st68{fill:#791818;}
	.st69{fill:#060401;}
	.st70{fill:#92862A;}
	.st71{fill:#756D16;}
	.st72{fill:#E9DB2D;}
	.st73{fill:#605F5A;}
	.st74{fill:#402362;}
	.st75{fill:#D2AEC6;}
	.st76{fill:#C12626;}
	.st77{fill:#FAF6F6;}
	.st78{fill:#9B4E4E;}
	.st79{fill:#E6BABA;}
	.st80{fill:#FDF200;}
	.st81{fill:#FDFB00;}
	.st82{fill:#979A12;}
	.st83{fill:#6C4A18;}
	.st84{fill:#FEAC00;}
	.st85{fill:#BD6418;}
	.st86{fill:#7A4B17;}
	.st87{fill:#FE7B00;}
	.st88{fill:#949939;}
	.st89{fill:#F9F961;}
	.st90{fill:#975113;}
	.st91{fill:#FAFAE5;}
	.st92{fill:#5A7C2C;}
	.st93{fill:#915A1A;}
	.st94{fill:#A3AE4A;}
	.st95{fill:#70321B;}
	.st96{fill:#1E0F06;}
	.st97{fill:#773759;}
	.st98{fill:#CD3D8E;}
	.st99{fill:#3C925A;}
	.st100{fill:#CC724F;}
	.st101{fill:#753351;}
	.st102{fill:#CC3780;}
	.st103{fill:#277342;}
	.st104{fill:#10301C;}
	.st105{fill:#949233;}
	.st106{fill:#F4F791;}
	.st107{fill:#553912;}
	.st108{fill:#3D4E18;}
	.st109{fill:#553410;}
	.st110{fill:#492F0E;}
	.st111{fill:#CF48A8;}
	.st112{fill:#E8D1E1;}
	.st113{fill:#D4AFD0;}
	.st114{fill:#BD4592;}
	.st115{fill:#CE57C3;}
	.st116{fill:#FC7D01;}
	.st117{fill:#BC6318;}
	.st118{fill:#F9E902;}
	.st119{fill:#C959BC;}
	.st120{fill:#B82525;}
	.st121{fill:#5E1A1A;}
	.st122{fill:#FB5554;}
	.st123{fill:#EE4A49;}
	.st124{fill:#D66400;}
	.st125{fill:#D44900;}
	.st126{fill:#D33400;}
	.st127{fill:#B41717;}
	.st128{fill:#3E955C;}
	.st129{fill:#873F0E;}
	.st130{fill:#256E3E;}
	.st131{fill:#3E4D10;}
	.st132{fill:#FC9500;}
	.st133{fill:#2F1D19;}
	.st134{fill:#FCC501;}
	.st135{fill:#F6F88F;}
	.st136{fill:#E4E47E;}
	.st137{fill:#FEF8F8;}
	.st138{fill:#FD9100;}
	.st139{fill:#948213;}
	.st140{fill:#976613;}
	.st141{fill:#975E13;}
	.st142{fill:#754620;}
	.st143{fill:#7A4C1E;}
	.st144{fill:#EC9303;}
	.st145{fill:#CE6E4C;}
	.st146{fill:#F6B700;}
	.st147{fill:#F7B600;}
	.st148{fill:#B62B00;}
	.st149{fill:#AE2400;}
	.st150{fill:#B22600;}
</style>
<g>
	<path d="M7.18,31.61c-0.39-0.67-0.69-1.37-0.67-2.14c0.01-0.49-0.32-0.44-0.6-0.56c-0.96-0.41-1.93-0.83-2.36-1.88
		c-0.18-0.43-0.55-0.41-0.87-0.54c-3.62-1.55-3.18-5.24-0.95-7c0.03-0.02,0.09-0.04,0.09-0.07c0.43-1.75,1.98-2.66,2.95-4
		c0.89-1.22,1.9-2.17,3.42-2.37c1.27-0.17,2.14-0.67,2.85-1.82c0.6-0.98,1.17-1.87,1.47-3.02c0.36-1.35,1.39-2.34,2.81-2.69
		c0.6-0.15,0.97-0.42,1.32-0.89c1.95-2.61,4.95-2.61,6.91-0.02c0.38,0.51,2.88,1.29,3.44,1.06c1.21-0.48,2.41-0.5,3.56,0.17
		c0.21,0.12,0.44,0.28,0.66,0.12c0.23-0.17,0.11-0.44,0.06-0.66c-0.23-0.89-0.39-1.79-0.71-2.65c-0.37-1.01-0.26-1.84,0.69-2.37
		c1.04-0.58,2.59-0.2,3.06,0.75c0.26,0.53,0.35,0.85,1.03,0.41c0.69-0.45,1.36-0.1,1.92,0.45c1.69,1.66,1.69,3.69,1.22,5.79
		c-0.08,0.37-0.28,0.67,0.18,0.89c2.07,0.98,1.97,2.92,2.04,4.74c0.05,1.4,0.35,1.65,1.64,1.05c0.3-0.14,0.59-0.24,0.91-0.22
		c5.79,0.36,10.98-1.27,15.6-4.73c0.87-0.65,1.67-1.4,2.24-2.32c0.87-1.38,2.09-2.04,3.69-2c0.61,0.02,0.92-0.2,1.16-0.74
		c0.45-1.01,0.98-1.99,1.49-2.98c0.18-0.35,0.39-0.79,0.79-0.85c1.29-0.2,2.42,0.28,3.44,1.03c0.85,0.63,0.58,1.55,0.37,2.31
		c-0.47,1.67-0.82,3.41-1.86,4.87C69.92,9.06,70,9.41,70.06,9.75c0.7,4.01-0.2,7.49-3.27,10.32c-1.2,1.11-2.42,2.2-3.74,3.19
		c0.58,0.64,1.16,1.23,1.69,1.86c2.97,3.51,3.47,11.81-1.2,16.53c-2.09,2.11-4.15,4.2-7.23,4.52c-2.73,0.29-5.51,0.34-8.16-0.68
		c-0.35-0.13-0.45-0.09-0.65,0.17c-3.97,5.25-9.34,5.84-15.16,4.28c-4.69-1.25-8.11-4.14-9.7-8.9c-0.3-0.91-0.44-1.86-0.44-2.83
		c0-0.67-1.3-1.87-1.95-1.83c-0.27,0.02-0.28,0.23-0.36,0.4c-1.09,2.47-3.31,3.34-5.75,2.25c-2.24-1-2.93-3.04-1.85-5.51
		c0.05-0.11,0.07-0.22,0.13-0.41c-0.88-0.11-1.72,0.36-2.64-0.06c0.38,1.79,0.49,3.43-0.6,4.9c-0.44,0.6-1,1.01-1.76,1.13
		c-2.26,0.34-4.4-0.92-4.65-2.74C2.35,33.34,3.47,32.11,7.18,31.61z"/>
	<path class="st0" d="M14.78,27.98c-0.86-0.21-0.66,0.45-0.7,0.87c-0.2,2.27-2.12,3.64-4.29,3.05c-1.31-0.36-2.11-1.29-2.15-2.67
		c-0.02-0.72-0.12-1.15-0.95-1.35c-0.91-0.21-1.81-0.55-2.13-1.68c-0.15-0.54-0.89-0.63-1.4-0.81c-2.69-0.98-2.34-4.04-0.42-5.12
		c0.5-0.28,0.68-0.71,0.7-1.16c0.05-0.93,0.56-1.45,1.34-1.8c0.46-0.2,0.79-0.53,0.97-1.01c0.52-1.41,1.65-1.97,3.02-2.17
		c1.33-0.2,2.31-0.8,3.08-1.98c0.73-1.13,1.53-2.13,1.78-3.53c0.18-1,1.01-1.75,2.07-1.95c0.9-0.17,1.44-0.7,1.95-1.4
		c1.42-1.97,3.72-1.91,4.99,0.18c0.44,0.72,1.03,0.77,1.69,1.05c1.44,0.59,2.71,0.64,4.16,0.03c0.83-0.35,1.61,0.52,2.4,0.86
		C30.97,7.48,31,7.58,31,7.69c-0.54,0.75-1.05,1.52-1.66,2.22c-0.12,0.12-0.26,0.21-0.41,0.28c-0.42,0.13-0.82,0.31-1.25,0.43
		c-0.51-0.01-0.97-0.28-1.48-0.29c-0.66-0.01-1.22,0.02-0.93,0.95c0.1,0.31,0.05,0.63-0.31,0.79c-0.11,0.02-0.22,0.02-0.33-0.01
		c-0.34-0.17-0.5-0.5-0.71-0.78c-0.84-1.15-1.34-1.31-2.64-0.84c-1.02,0.36-2.06,1.7-2.04,2.59c0.03,1.13,0.95,0.97,1.64,1.14
		c0.54,0.27,0.86,0.67,0.74,1.31c-0.58,0.37-1.22-0.15-1.81,0.12c-0.28,0.03-0.57,0.02-0.85,0.03c-1.65,0.29-2.13,1.49-1.17,2.83
		c0.44,0.61,1.22,0.91,1.45,1.69c-0.05,0.34-0.25,0.53-0.56,0.62c-0.75,0.09-1.23-0.7-1.98-0.59c-0.23-0.01-0.46-0.04-0.68-0.1
		c-0.26-0.07-0.52-0.2-0.79-0.22c-0.5-0.03-0.71,0.27-0.76,0.71c-0.06,0.46,0.22,0.64,0.63,0.67c0.88,0.05,1.73,0.16,2.23,1.03
		c0.08,0.42-0.08,0.69-0.5,0.81c-0.56-0.1-1.02-0.55-1.63-0.49c-1.65,0.1-2.26,0.63-2.22,1.96c0.02,0.77,0.24,1.4,1.12,1.57
		c0.35,0.07,0.68,0.22,0.88,0.55C15.11,27.14,15.16,27.59,14.78,27.98z"/>
	<path class="st1" d="M47.66,43.67c-0.36-0.06-0.47,0.21-0.61,0.46c-1.68,3.08-4.36,4.76-7.75,5.18c-5.12,0.64-9.68-0.63-13.24-4.58
		c-1.86-2.07-2.88-4.48-2.6-7.33c0.17-0.28,0.06-0.79,0.63-0.75c0.64,0.56,0.17,1.42,0.53,2.05c0.37,1.44,0.79,2.85,1.66,4.08
		c2.78,3.86,6.66,5.35,11.29,5.25c2.68-0.06,5.1-0.75,7-2.79c0.3-0.32,0.58-0.65,0.8-1.03c1.54-2.19,1.84-4.72,1.97-7.29
		c0.02-0.44,0-0.88,0.09-1.31c0.4-1.87-0.63-3.32-1.52-4.74c-0.92-1.46-2.25-2.56-3.98-3.07c-0.41-0.12-0.78-0.07-1.17-0.03
		c-0.88-0.17-1.8,0.05-2.65-0.33c-0.3-0.31-0.16-0.61,0.04-0.9c0.23-0.25,0.51-0.38,0.84-0.44c0.94-0.24,1.97,0.38,2.87-0.27
		c0.78,1,1.89,1.52,2.99,2.06c0.16,0.1,0.3,0.22,0.44,0.34c2.35,2.01,3.41,4.66,3.57,7.66c0.07,1.29-0.16,2.61-0.23,3.91
		c-0.08,0.33-0.18,0.66-0.09,1c0.03,0.29-0.07,0.55-0.21,0.8C47.77,42.17,48.45,43.17,47.66,43.67z"/>
	<path class="st2" d="M23.92,36.69c-0.15,0.23-0.31,0.46-0.46,0.7c0.1-0.75-0.38-0.96-0.98-1.24c-3.6-1.73-6.51-4.15-7.71-8.17
		c0-0.46,0-0.91,0.01-1.37c-0.04-0.75,0.27-1.42,0.44-2.13c0.03-0.11,0.08-0.21,0.14-0.31c0.39-0.47,0.74-0.98,1.35-1.2
		c0.3-0.12,0.46-0.35,0.52-0.66c0.15-0.84,1.01-1.07,1.44-1.67c0.15-0.16,0.31-0.33,0.46-0.49c0.73-0.6,1.5-1.13,2.27-1.67
		c0.49-0.15,0.89-0.46,1.34-0.67c0.23-0.06,0.46-0.06,0.66,0.09c0.2,0.64-0.34,0.91-0.67,1.27c-1.46,1.58-3.31,2.72-4.78,4.3
		c-0.82,0.89-1.49,1.85-1.87,3c0,4.28,2.9,6.35,6.2,8.1c0.34,0.18,0.74,0.33,1.11,0c0.18-0.21,0.29-0.5,0.59-0.6
		c0.13,0,0.24,0.04,0.34,0.13C24.91,35.29,24.82,35.86,23.92,36.69z"/>
	<path class="st3" d="M47.66,43.67c0.36-0.69-0.23-1.58,0.49-2.19c0.4,0.34,0.21,0.92,0.53,1.29c0.26,0.37,0.61,0.65,1.04,0.76
		c2.85,0.76,5.69,1.27,8.35-0.62c0.19-0.14,0.41-0.24,0.62-0.36c1-0.62,1.94-1.31,2.75-2.18c1-0.64,1.67-1.55,2.15-2.62
		c0.29-0.52,0.54-1.06,0.67-1.64c0.35-1.87,0.37-3.75,0.35-5.64c0.06-0.44-0.06-0.93,0.44-1.25c0.48,0.19,0.07,0.74,0.4,0.97
		c0.98,3.92,0.07,7.37-2.6,10.38c-1.73,1.96-3.51,3.91-6.24,4.33c-2.45,0.37-4.93,0.34-7.36-0.24
		C48.62,44.52,48.07,44.19,47.66,43.67z"/>
	<path class="st4" d="M40.73,15.84c4.28-0.16,8.53-0.59,12.58-2.05c3.58-1.29,6.79-3.21,9.04-6.41c0.61-0.87,1.45-1.05,2.38-1.13
		c0.55-0.05,1.1-0.03,1.65-0.05c0.08,0.09,0.13,0.2,0.12,0.33c-0.07,0.39-0.32,0.64-0.67,0.8c-1.73-0.09-2.93,0.7-3.75,2.19
		c-0.17,0.31-0.48,0.53-0.76,0.75c-1.49,1.46-3.31,2.46-5.1,3.48c-2.72,1.57-5.76,2.1-8.79,2.58c-1.73,0.27-3.47,0.53-5.23,0.53
		c-0.51,0-1.05,0.06-1.51-0.26C40.51,16.34,40.5,16.09,40.73,15.84z"/>
	<path class="st5" d="M66.39,6.43c0-0.08,0-0.15,0-0.23c0.57-1.37,1.26-2.67,1.98-3.96c0.24-0.43,0.42-0.76,0.98-0.48
		c0.55,0.28,1.42,0.09,1.41,1.13c-0.03,1.9-0.64,3.61-1.62,5.19c-0.3,0.47-0.45,0.9-0.32,1.45c0.45,1.87,0.28,3.75-0.07,5.59
		c-0.28,1.5-1.43,2.56-2.41,3.66c-1.58,1.77-3.45,3.21-5.46,4.46c-0.67,0.22-0.59-0.23-0.57-0.64c0.99-1,2.1-1.84,3.33-2.53
		c1.17-0.71,2.24-1.51,2.68-2.89c1.58-1.84,1.78-4.05,1.65-6.34c-0.47-1.45-0.26-2.8,0.55-4.09C68.75,6.4,68.92,6,68.96,5.55
		C69.06,5,69.4,4.54,69.51,3.99c0.09-0.46,0.27-0.97-0.41-1.15c-0.79,0.62-0.91,1.64-1.45,2.4C67.31,5.71,67.21,6.47,66.39,6.43z"/>
	<path class="st6" d="M40.73,15.84c-0.01,0.22-0.01,0.45-0.02,0.67c-0.43,0.32-1.03,0.51-0.96,1.23c-0.07,0.34-0.15,0.68-0.19,1.03
		c-0.02,0.19-0.05,0.37-0.1,0.55c-0.23,1.35-0.05,2.7-0.09,4.05c-0.03,0.98,0.89,1,1.37,1.46c0.16,0.21,0.19,0.45,0.11,0.7
		c-0.46,0.58-1.44-0.04-1.8,0.78c-0.25,0.1-0.51,0.19-0.76,0.29c-0.41-0.1-0.78-0.24-0.76-0.76c0.36-0.54-0.04-1.15,0.16-1.71
		c-0.08-3.3,0.16-6.57,0.49-9.85c0.05-0.83,0.05-1.67-0.1-2.49c-0.06-0.57-0.21-1.09-0.85-1.27c-0.55-0.37-1.2-0.56-1.77-0.89
		c-0.16-0.75,0.51-0.7,0.89-0.93c0.1-0.05,0.2-0.08,0.31-0.11c0.21,0.18,0.4,0.43,0.64,0.53c2.08,0.8,2.3,2.5,2.2,4.38
		c-0.02,0.36,0.04,0.72-0.01,1.07C39.33,15.56,39.78,15.93,40.73,15.84z"/>
	<path class="st7" d="M60.38,22.76c0.19,0.14,0.07,0.6,0.5,0.49c1.56,1.11,2.99,2.34,3.87,4.1c0.46,0.91,0.8,1.81,0.69,2.84
		c-0.32-0.13-0.2-0.53-0.46-0.88c-0.03,0.5-0.04,0.83-0.06,1.17c-0.44-0.04-0.43-0.4-0.51-0.7c-0.54-2.08-1.92-3.54-3.55-4.81
		c-1.07-0.84-2.37-1.11-3.7-1.22c-0.67-0.16-1.35-0.19-2.03-0.26c-0.41-0.14-0.92-0.15-1.04-0.71c0.19-0.29,0.52-0.38,0.8-0.53
		C56.8,21.61,58.61,21.97,60.38,22.76z"/>
	<path class="st8" d="M3.96,35.41c0-1.75,0.73-2.53,2.39-2.54c1.84,0,2.44,0.52,2.44,2.12c0,2.08-0.6,2.91-2.1,2.92
		C4.85,37.92,3.97,37.11,3.96,35.41z"/>
	<path class="st9" d="M32.55,7.88c0.48-0.43,0.26-0.98,0.16-1.45c-0.29-1.36-0.63-2.71-0.99-4.05C31.59,1.92,31.45,1.48,32,1.27
		c0.51-0.19,1-0.13,1.32,0.45c0.51,0.93,0.68,1.95,0.86,2.96c0.07,0.39,0.18,0.48,0.52,0.33c0.42,0.89-0.05,1.79,0.05,2.68
		c-0.02,0.13-0.06,0.25-0.11,0.37c-0.49,0.71-1.14,0.63-1.82,0.37c-0.11-0.05-0.2-0.13-0.28-0.22C32.48,8.1,32.49,7.99,32.55,7.88z"
		/>
	<path class="st10" d="M15.49,38.14c-1.08-0.17-2.04-0.62-2.37-1.72c-0.4-1.34,0.19-2.8,1.23-3.52c1.27-0.88,3.62,0.2,4.06,1.87
		c0.31,0.5,0.24,1.02,0.11,1.55c-1,0.27-0.5-0.7-0.81-0.99c-0.33-0.5-0.66-1-1.19-1.32c-0.97-0.38-1.6,0.24-2.15,0.82
		c-0.43,0.45-0.24,1.03,0.15,1.5c0.39,0.47,0.95,0.68,1.45,0.99c0.21,0.18,0.45,0.38,0.3,0.67C16.1,38.36,15.78,38.26,15.49,38.14z"
		/>
	<path class="st11" d="M34.5,7.88c-0.07-0.97-0.01-1.92,0.21-2.87c0.63-0.5,0.77-1.29,0.92-1.97c0.21-0.96,0.51-0.56,0.89-0.2
		c1.28,1.19,1.46,3.6,0.4,5.33c-0.08,0.14-0.17,0.27-0.26,0.4c-0.02,0.09-0.03,0.18-0.05,0.28c-0.36,0.19-0.74,0.11-1.12,0.09
		c-0.24-0.2-0.21-0.41-0.05-0.64c0.31-0.25,0.53-0.57,0.78-0.87c0.69-0.63,0.67-1.4,0.44-2.21c-0.11-0.28-0.03-0.73-0.41-0.78
		c-0.37-0.05-0.44,0.39-0.62,0.64c-0.41,0.56-0.53,1.22-0.63,1.9C34.95,7.32,35.09,7.81,34.5,7.88z"/>
	<path class="st12" d="M15.49,38.14c0.21-0.05,0.51,0.06,0.61-0.2c0.11-0.28-0.28-0.32-0.36-0.53c0.15-0.21,0.39-0.28,0.62-0.31
		c1.07-0.15,1.23-0.96,1.34-1.81c0.05-0.11,0.12-0.2,0.21-0.28c0.51,0.36-0.01,1.06,0.47,1.44c0.28,0.85-0.49,1.04-0.93,1.39
		c-0.26,0.21-0.66,0.24-0.97,0.44C16.14,38.33,15.79,38.42,15.49,38.14z"/>
	<path class="st13" d="M16.48,38.26c0.52-0.73,1.79-0.68,1.89-1.83c0.01-0.55,0.03-1.11,0.04-1.66c0.88,0.94,0.42,2.64-0.91,3.27
		C17.2,38.19,16.86,38.36,16.48,38.26z"/>
	<path class="st14" d="M32.55,7.88c-0.03,0.1-0.05,0.2-0.08,0.29c-0.58-0.01-1.12-0.16-1.57-0.55c0-0.08,0-0.16,0-0.24
		C31.62,7,32.18,7.13,32.55,7.88z"/>
	<path class="st15" d="M28.95,10.03c0.08-0.07,0.16-0.14,0.24-0.2c0.21,0.02,0.4-0.02,0.53-0.18c0.79-0.97,1.87-1.18,3.03-1.15
		c0.66,0.1,0.3,0.95,0.84,1.14c0.31,0.2,0.64,0.32,0.99,0.43c0.36,0.13,0.75,0.17,1.09,0.35c0.28,0.22,0.46,0.52,0.64,0.81
		c0.15,0.27,0.23,0.56,0.21,0.87c0.2,1.24-0.23,2.3-0.78,3.4c-0.91,1.83-1.05,3.74-0.18,5.67c0.17,0.38,0.46,0.8,0.01,1.2
		c-1.24-0.03-2.24-0.72-3.3-1.25c-0.35-0.17-0.73-0.63-1.06-0.37c-0.41,0.32,0.01,0.81,0.13,1.2c0.37,1.14,0.92,2.21,1.35,3.33
		c0.19,0.48,0.42,0.98-0.09,1.43c-0.68,0.35-1.52,0.33-2.1,0.92c-0.17,0.14-0.36,0.25-0.55,0.35c-0.59,0.3-1.1,0.72-1.63,1.1
		c-0.11,0.05-0.22,0.08-0.35,0.08c-0.2-0.03-0.34-0.13-0.38-0.35c-0.69-3.6,0.88-6.92,1.39-10.36c0.35-2.34,0.23-4.34-1.16-6.23
		c-0.04-0.12-0.07-0.24-0.07-0.37C27.96,11.09,28.33,10.48,28.95,10.03z"/>
	<path class="st16" d="M10.9,26.6c1.64-0.01,2.44,0.7,2.45,2.15c0,1.3-1.13,2.66-2.29,2.6c-1.54-0.08-2.63-0.75-2.55-2.29
		C8.61,27.23,9.12,26.61,10.9,26.6z"/>
	<path class="st17" d="M21.53,18.66c-0.8,0.5-1.33,1.43-2.4,1.48c-0.52-0.48-1.09-0.93-1.56-1.46c-0.51-0.59-0.8-1.31-0.52-2.09
		c0.29-0.83,0.92-1.27,1.82-1.26c0.01,0.04,0.03,0.08,0.02,0.12c-0.06,0.42-0.69,0.81-0.1,1.25c0.51,0.38,0.88-0.03,1.26-0.3
		c0.54-0.15,1.05-0.38,1.52-0.68c0.13,0,0.24,0.05,0.33,0.15C22.55,17.21,22.46,17.83,21.53,18.66z"/>
	<path class="st18" d="M6.35,22.97c-0.02,1.09-0.45,1.85-1.64,1.95c-1.1,0.09-2.56-0.59-2.59-1.3c-0.03-0.85-0.08-1.82,0.54-2.48
		c0.69-0.73,1.62-0.73,2.54-0.33c-1.04,0.8-1.04,0.82-0.08,1.52C5.5,22.6,5.9,22.84,6.35,22.97z"/>
	<path class="st19" d="M20.81,14.36c-0.63-0.06-1.4,0.28-1.76-0.59c-0.36-0.87-0.14-1.65,0.44-2.32c0.52-0.59,1.05-1.2,1.88-1.4
		c1.76-0.42,2.11-0.22,3.23,1.89c-0.49,0.36-0.9,0.01-1.33-0.16c-0.42-0.17-0.8-0.65-1.29-0.18c-0.5,0.48-0.97,1.04-0.74,1.77
		C21.42,13.92,21.38,14.22,20.81,14.36z"/>
	<path class="st20" d="M9.97,17.94c1.35-0.45,1.93-0.25,2.46,0.84c0.51,1.05,0.2,2.29-0.72,2.85c-0.74,0.45-2.39,0.21-2.9-0.42
		c-0.57-0.69-0.3-2.31,0.46-2.77c0.4,0.41,0.72,0.95,1.41,0.9c0.33-0.01,0.63-0.05,0.45-0.51C10.88,18.33,10.25,18.36,9.97,17.94z"
		/>
	<path class="st21" d="M17.19,9.8c0.7-0.75,1.61-0.79,2.55-0.73c0.2,0.01,0.41,0,0.5,0.24c0.1,0.27-0.02,0.47-0.24,0.61
		c-1.25,0.84-2.05,1.87-1.65,3.5c0.07,0.28-0.13,0.43-0.45,0.34c-0.71-0.19-1.58,0.01-2-0.83c-0.38-0.78-0.06-1.47,0.33-2.14
		c0.06-0.1,0.17-0.17,0.25-0.25c0.24,0.17,0.42,0.41,0.7,0.53c0.37,0.13,0.64-0.03,0.74-0.36C18.09,10.1,17.4,10.13,17.19,9.8z"/>
	<path class="st22" d="M9.8,24.43c0.53,0.73,0.78,1.34-0.47,1.58c-0.32,0.06-0.71,0.31-0.87,0.59c-0.55,0.94-1.27,0.79-2.06,0.46
		c-0.48-0.2-1.04-0.36-1.15-0.94c-0.11-0.6,0.57-0.56,0.85-0.85c0.22-0.22,0.5-0.46,0.57-0.74c0.34-1.25,1.13-1.25,2.11-0.84
		c0.01,0.24-0.04,0.45-0.23,0.62c-0.13,0.1-0.27,0.16-0.4,0.26c-0.19,0.14-0.43,0.31-0.23,0.57c0.17,0.24,0.43,0.15,0.64,0.03
		c0.28-0.16,0.48-0.42,0.75-0.58C9.47,24.48,9.63,24.44,9.8,24.43z"/>
	<path class="st23" d="M15.51,24.43c-0.26,0.72-0.22,1.54-0.73,2.18c-0.91-0.23-1.97-0.16-2.16-1.53c-0.25-1.88,0.57-2.8,2.66-2.77
		c0,0.48-0.52,0.74-0.51,1.22C14.48,24.28,14.94,24.4,15.51,24.43z"/>
	<path class="st24" d="M6.82,18.22c0.84,0.22,1.24,0.67,0.84,1.56c-0.26,0.6,0.32,1.58-0.43,1.83c-0.6,0.2-0.58-0.91-1.12-1.18
		c-0.28-0.14-0.52-0.4-0.81-0.47c-0.57-0.14-1.23-0.08-1.08-1c0.14-0.88,0.7-1.06,1.46-1.01C5.99,18.34,6.38,18.39,6.82,18.22z"/>
	<path class="st25" d="M25.63,7.87c0.33,0.37,0.68,1.06,0.32,1.22c-0.62,0.27-1.37,0.84-2.06,0.49c-0.75-0.39-1.43-0.62-2.25-0.34
		c-0.19,0.07-0.43,0.09-0.53-0.12c-0.16-0.31-0.05-0.59,0.16-0.88c0.78-1.08,2.22-1.42,3.85-0.88c-0.06,0.1-0.15,0.18-0.24,0.25
		c-0.18,0.13-0.49,0.24-0.33,0.51C24.73,8.46,25,8.26,25.23,8.1C25.35,8.02,25.48,7.92,25.63,7.87z"/>
	<path class="st26" d="M8.15,18.33c-0.37-0.32-0.61-0.64-0.93-0.77c-0.72-0.28-0.87-0.7-0.53-1.36c0.43-0.85,1.5-1.38,2.29-1.08
		c0.67,0.25,0.92,0.86,1.09,1.48c0.06,0.2-0.18,0.34-0.37,0.41C9.06,17.26,8.62,17.78,8.15,18.33z"/>
	<path class="st27" d="M15.17,10.85c-0.12,0.85-0.3,1.67-0.04,2.48c0.21,0.64-0.41,0.78-0.69,0.94c-0.53,0.29-0.43,1.89-1.63,0.85
		c-0.67-0.58-0.63-2.28,0.05-3.05C13.46,11.38,14.18,10.95,15.17,10.85z"/>
	<path class="st28" d="M15.98,7.34c0.96-0.21,1.94-0.44,2.84,0.16c0.21,0.14,0.52,0.33,0.38,0.67c-0.11,0.27-0.42,0.19-0.64,0.17
		c-0.88-0.06-1.48,0.5-2.14,0.93c-0.2,0.13-0.34,0.36-0.55,0.45c-0.48,0.19-1.1,0.77-1.47,0.27c-0.34-0.47-0.21-1.24,0.35-1.73
		c0.24-0.21,0.47-0.43,0.7-0.65c0.22,0.03,0.42,0.31,0.62,0.2C16.27,7.71,15.99,7.52,15.98,7.34z"/>
	<path class="st29" d="M20.81,14.36c0.04-0.23,0.5-0.35,0.31-0.56c-0.73-0.8-0.07-1.41,0.25-2.01c0.41-0.77,1.05-1.06,1.83-0.38
		c0.41,0.35,0.91,0.44,1.41,0.54c0.09,0.02,0.17,0.04,0.26,0.07c0.55,0.13,1.13,0.19,1.5,0.7c0,0.35-0.21,0.52-0.52,0.6
		c-1.21-0.03-2.09-0.97-3.23-1.17c-0.48,0.17-0.56,0.61-0.66,1.02c-0.05,0.84,0.59,1.32,1.01,1.9c0.28,0.39,0.81,0.69,0.46,1.3
		c-0.15,0.11-0.32,0.16-0.5,0.18c-0.58,0.07-0.9-0.3-1.19-0.72c-0.09-0.02-0.17-0.04-0.26-0.06l-0.01-0.09
		C21.5,15.11,21.3,14.66,20.81,14.36z"/>
	<path class="st30" d="M13.7,17.72c0.08,0.2,0.08,0.38-0.18,0.45c-0.25,0.07-0.48,0.02-0.66-0.16c-0.89-0.9-2.14-1.38-2.63-2.76
		c-0.28-0.8,0.31-0.77,0.57-1.03c0.34-0.34,0.58-0.22,0.71,0.27c0.15,0.6,0.57,1.23,1.1,1.32C13.84,16.04,13.53,16.98,13.7,17.72z"
		/>
	<path class="st31" d="M18.67,20.64c-0.01,0.96-1.01,1.07-1.44,1.67c-0.61-0.45-1.23-0.82-2.05-0.76c-0.38,0.03-0.93,0.23-1.08-0.4
		c-0.12-0.52,0-1.02,0.32-1.46c0.36-0.48,0.77-0.21,1.17-0.07c0.14,0.05,0.27,0.15,0.41,0.22c0.07,0.24,0,0.63,0.3,0.67
		c0.37,0.04,0.22-0.4,0.37-0.59C17.54,19.59,17.94,20.56,18.67,20.64z"/>
	<path class="st32" d="M21.97,5.73c0.46,0.43,0.69,0.82-0.15,1.06c-0.04,0.01-0.07,0.04-0.1,0.07c-0.83,0.81-1.61,2.09-2.56,0.06
		c-0.15-0.32-0.83-0.38-1.27-0.56c0.59-1.4,1.39-1.91,2.43-1.54c0.05,0.1,0.07,0.21,0.05,0.32c-0.03,0.32-0.35,0.66,0.05,0.95
		c0.39,0.29,0.64-0.03,0.93-0.2C21.54,5.77,21.75,5.71,21.97,5.73z"/>
	<path class="st26" d="M26.28,12.7c-0.48-0.21-1.09-0.16-1.41-0.69c0.42-0.36,0.14-0.73-0.03-1.07c-0.32-0.66,0-0.87,0.59-0.9
		c0.8-0.05,1.59-0.04,2.26,0.48c0.21,0.58-0.29,0.88-0.51,1.29C26.89,12.11,26.75,12.57,26.28,12.7z"/>
	<path class="st33" d="M15.5,14.35c0.41-0.37,0.91-0.29,1.34-0.14c0.61,0.21,1.17,0.47,0.28,1.17c-0.97,0.77-0.89,1.95-0.89,3.06
		c-0.19,0.24-0.46,0.23-0.73,0.24c-0.84-0.49-1.06-1.26-0.96-2.17c1.1,0.23,1.05-0.77,1.41-1.33C16.12,14.74,15.65,14.63,15.5,14.35
		z"/>
	<path class="st34" d="M29.2,8.38c-0.32,0.53-0.54,1.25-1.22,1.33c-0.41,0.05-0.98-0.2-1.13-0.69C26.7,8.55,26.65,8,27.17,7.63
		c0.39-0.27,0.79-0.52,1.3-0.44C28.69,7.6,29.1,7.9,29.2,8.38z"/>
	<path class="st35" d="M7.12,22.61c0.52-0.65,0.87-0.71,1.63-0.42c1.21,0.46,1.92,1.36,2.75,2.2c0.27,0.27,0.43,0.55,0.4,0.94
		c-0.02,0.25-0.07,0.48-0.38,0.51c-0.32,0.03-0.49-0.09-0.59-0.43c-0.67-2.23-1.05-2.52-3.36-2.67C7.47,22.74,7.36,22.69,7.12,22.61
		z"/>
	<path class="st36" d="M32.78,8.62c-1.2,0.2-2.35,0.47-3.17,1.51c-0.21,0.27-0.38-0.05-0.43-0.31c0.48-0.8,0.93-1.63,1.71-2.19
		c0.65-0.19,1.11,0.17,1.57,0.55c0,0,0.01-0.01,0.01-0.01C32.71,8.23,32.78,8.41,32.78,8.62z"/>
	<path class="st37" d="M20.13,16.5c-0.15,0.57-0.58,0.75-1.08,0.66c-0.38-0.07-0.75-0.25-0.86-0.71c-0.15-0.61,0.36-0.81,0.69-1.12
		c0.32,0.02,0.64,0.03,0.96,0.05C20.13,15.7,20.23,16.07,20.13,16.5z"/>
	<path class="st38" d="M5.2,22.57c-0.66-0.07-1.2-0.33-1.17-1.08c0.03-0.74,0.68-0.64,1.18-0.68c0.41,0.28,0.96,0.44,0.94,1.09
		C5.91,22.23,5.6,22.46,5.2,22.57z"/>
	<path class="st39" d="M14.56,23.55c-0.17-0.66,0.29-0.94,0.73-1.24c0.59-0.02,1.08,0.16,1.42,0.66c-0.38,0.42-0.77,0.85-1.15,1.27
		C15.13,24.14,14.83,23.86,14.56,23.55z"/>
	<path class="st40" d="M10.74,19.56c-0.85,0.09-1.43-0.18-1.48-1.13c0.16-0.28,0.41-0.42,0.7-0.49c0.56,0.08,1.14,0.13,1.44,0.74
		C11.19,18.98,11.02,19.31,10.74,19.56z"/>
	<path class="st41" d="M16.23,15.4c-0.1,0.15-0.34,0.16-0.36,0.41c-0.11,1.25-0.29,1.34-1.32,0.71c-0.1-0.76,0.16-1.39,0.71-1.91
		C15.58,14.87,16.02,15,16.23,15.4z"/>
	<path class="st42" d="M20.13,16.5c-0.28-0.32-0.45-0.68-0.29-1.12c0.63-0.41,1.15-0.17,1.64,0.29c0,0,0.01,0.1,0.01,0.1
		C21.37,16.62,20.77,16.59,20.13,16.5z"/>
	<path class="st43" d="M17.19,9.8c0.63-0.03,1.32,0,1.15,0.86c-0.14,0.68-0.67,1.04-1.42,0.64c0.14-0.38,0.09-0.72-0.18-1.03
		C16.89,10.12,17.04,9.96,17.19,9.8z"/>
	<path class="st44" d="M25.63,7.87c-0.02,0.35-0.18,0.6-0.5,0.75c-0.32,0.15-0.62,0.14-0.87-0.12c-0.18-0.17-0.29-0.39-0.21-0.64
		c0.18-0.53,0.6-0.57,1.06-0.49C25.28,7.54,25.45,7.7,25.63,7.87z"/>
	<path class="st45" d="M27.02,11.72c0.23-0.4,0.45-0.8,0.68-1.2c0.28-0.49,0.77-0.49,1.25-0.49c-0.25,0.61-0.55,1.2-0.99,1.7
		C27.65,11.97,27.33,12.01,27.02,11.72z"/>
	<path class="st46" d="M13.46,21.49c-0.42,0.72-1.23,1.08-1.52,1.89c-0.14,0.38-0.36,0.13-0.52-0.03c-0.18-0.19-0.3-0.47,0.01-0.57
		C12.23,22.52,12.63,21.69,13.46,21.49z"/>
	<path class="st47" d="M20.29,5.02c0.04-0.06,0.05-0.13,0.03-0.2c0.8-0.16,1.19,0.43,1.65,0.91c-0.15,0.1-0.3,0.21-0.44,0.31
		C20.34,6.21,20.22,6.11,20.29,5.02z"/>
	<path class="st48" d="M29.2,8.38c-0.39-0.31-1.08-0.44-0.73-1.2c0.48-0.04,1.01-0.05,1.24,0.41C29.91,7.96,29.43,8.15,29.2,8.38z"
		/>
	<path class="st49" d="M16.67,19.92c0.25,0.34,0.39,0.69-0.01,1.01c-0.2,0.16-0.45,0.19-0.64,0.01c-0.35-0.34-0.44-0.72-0.02-1.09
		C16.22,19.87,16.45,19.9,16.67,19.92z"/>
	<path class="st50" d="M5.2,22.57c0.18-0.42,0.49-0.64,0.95-0.67c0.26,0.32,0.19,0.7,0.2,1.07C5.78,23.38,5.49,22.98,5.2,22.57z"/>
	<path class="st51" d="M16.23,15.4c-0.53-0.01-1-0.09-0.98-0.79c0.08-0.09,0.17-0.17,0.25-0.26C16.04,14.5,16.91,14.41,16.23,15.4z"
		/>
	<path class="st52" d="M15.98,7.34c0.35,0.05,0.78,0.03,0.7,0.56c-0.02,0.16-0.22,0.38-0.36,0.41c-0.51,0.09-0.83-0.14-0.87-0.69
		C15.62,7.53,15.8,7.44,15.98,7.34z"/>
	<path class="st53" d="M9.8,24.43c-0.11,0.1-0.22,0.2-0.33,0.3c-0.49,0.14-0.92,0.17-0.96-0.51c0.1-0.18,0.19-0.35,0.29-0.53
		C9.2,23.83,9.6,23.99,9.8,24.43z"/>
	<path class="st54" d="M16.74,10.28c0.28,0.01,0.58-0.02,0.66,0.35c0.09,0.4-0.13,0.59-0.49,0.68c-0.31-0.16-0.44-0.43-0.43-0.77
		C16.57,10.45,16.66,10.36,16.74,10.28z"/>
	<path class="st55" d="M6.82,18.22c-0.58,0.81-0.92,0.52-1.15-0.25C6.1,17.86,6.49,17.9,6.82,18.22z"/>
	<path class="st56" d="M15.5,18.69c0.18-0.28,0.47-0.22,0.73-0.24c0.08,0.24,0.57,0.46,0.28,0.65C16.15,19.33,15.77,19,15.5,18.69z"
		/>
	<path class="st57" d="M55.11,23.25c0.75-0.04,1.48,0.01,2.2,0.26c1.19,0.27,2.25,0.77,3.16,1.6c0.45,0.41,0.74,0.8-0.02,1.18
		c-0.88-0.1-1.67-0.05-1.88,1.05c-0.14,0.18-0.34,0.29-0.54,0.39c-1.31,0.36-0.67,1.24-0.52,1.99c-0.02,0.75-0.43,1.25-0.99,1.68
		c-1.52,1.17-3.16,1.98-5.17,1.78c-0.91-0.09-1.83,0.05-2.74,0.06c-0.84-0.69-0.84-1.83-1.44-2.67c-0.63-0.88-1.29-1.7-2.18-2.31
		c-0.06-0.06-0.12-0.12-0.18-0.17c-0.35-0.35-0.81-0.5-1.23-0.72c-1.06-0.56-1.16-0.96-0.45-1.96c2-2.81,4.23-3.34,7.63-2.07
		c0.15,0.12,0.25,0.27,0.32,0.44c0.5,1.09,1.55,1.16,2.52,1.28c0.89,0.11,1.81,0.09,2.86-0.06c-0.56-0.06-1,0.02-1.39-0.18
		c-0.41-0.26-0.81-0.55-0.78-1.09C54.32,23.21,54.81,23.37,55.11,23.25z"/>
	<path class="st58" d="M47.66,35.49c0,2.73-0.11,5.44-1.45,7.92c-0.19,0.35-0.3,0.74-0.69,0.94c-0.27,0.33-0.54,0.65-1.04,0.57
		c-1.39-0.62-2.9-0.86-4.3-1.49c-1.87-0.84-3.4-2.02-4.22-3.89c-1.04-2.37-2.69-4.23-4.47-6.02c-0.94-0.95-1.74-1.98-2.24-3.23
		c-0.16-0.41-0.36-0.81-0.22-1.27c0.07-0.18,0.18-0.33,0.3-0.47c0.65-0.56,1.34-0.96,2.24-0.63c0.32,0.28,0.42,0.68,0.49,1.07
		c0.35,1.81,1.37,3.22,2.63,4.48c1.1,1.1,2.24,2.17,3.3,3.32c1.2,1.31,2.71,2.1,4.32,2.72c1.26,0.49,1.84,0.14,2.14-1.22
		c0.15-0.66,0.28-1.33,0.48-1.98c0.35-1.12,0.97-2.01,2.16-2.37C47.95,34.23,47.67,34.91,47.66,35.49z"/>
	<path class="st59" d="M26.07,42.92c-0.96-1.2-1.38-2.62-1.69-4.08c-0.26-0.78-0.06-1.54,0.12-2.31c0.9-0.34,1.08,0.37,1.31,0.94
		c1.26,3.1,3.29,5.44,6.54,6.53c2.08,0.7,4.15,1.47,6.4,1.46c1.01,0.04,2.03-0.16,3.01,0.17c0.45,0.59-0.08,0.81-0.45,0.9
		c-3.02,0.76-6,1.66-9.12,0.22C29.98,45.73,27.74,44.8,26.07,42.92z"/>
	<path class="st60" d="M26.07,42.92c1.21,0.45,1.95,1.59,3.14,2.1c2.14,0.91,4.12,2.31,6.58,2.21c1.94-0.08,3.84-0.52,5.71-1.02
		c0.16-0.04,0.27-0.27,0.41-0.41c0.67-0.89,1.68-0.86,2.64-0.96c0.33-0.16,0.65-0.32,0.98-0.47c-0.8,1.64-2.21,2.59-3.83,3.2
		c-4.74,1.78-10.96,0.64-14.54-3.22C26.74,43.91,26.43,43.4,26.07,42.92z"/>
	<path class="st61" d="M61.6,40.53c-0.69,0.94-1.65,1.56-2.64,2.15c-2.85,1.37-5.87,0.71-8.83,0.75c-0.63,0.01-1.06-0.77-1.78-0.5
		c-0.37-0.44-0.15-0.97-0.2-1.45c0.08-0.24,0.16-0.48,0.24-0.71c0.45-0.43,0.96-0.22,1.45-0.13c0.93,0.18,1.85,0.38,2.8,0.2
		c1.01,0.03,1.99,0.48,3.02,0.14c1.77,0.28,3.49,0.17,5.16-0.52C61.08,40.35,61.36,40.31,61.6,40.53z"/>
	<path class="st62" d="M32.51,26.53c0.47-0.37,0.09-0.73-0.04-1.06c-0.54-1.42-1.1-2.82-1.65-4.23c-0.13-0.33-0.36-0.71-0.01-0.99
		c0.3-0.24,0.63,0,0.88,0.17c1.16,0.8,2.51,1.22,3.74,1.87c0.08,0.07,0.16,0.14,0.25,0.21c0.61,0.81,1.06,1.75,1.93,2.35
		c0.23,0.31,0.29,0.63,0.05,0.97c0.22,0.26,0.43,0.52,0.65,0.78c-0.08,0.22-0.15,0.43-0.23,0.65c0.01,0.24,0.1,0.48,0.07,0.72
		c-0.01,0.38,0,0.76-0.24,1.08c-0.31,0.22-0.6,0.18-0.89-0.05c-0.14-0.13-0.24-0.29-0.31-0.47c-0.15-0.42-0.13-0.86-0.13-1.3
		c0.01-2.11-1.01-3.53-2.92-4.36c-0.49-0.21-1.04-0.33-1.18-0.6c0.67,1.95,1.99,3.96,2.79,6.19c-0.43,0.48-0.87,0.54-1.34,0.06
		c-0.21-0.24-0.4-0.5-0.6-0.75c-0.22-0.28-0.54-0.47-0.71-0.79C32.53,26.83,32.51,26.68,32.51,26.53z"/>
	<path class="st63" d="M50.76,23.51c-1.43-0.24-2.81-0.74-4.31-0.32c-0.96,0.27-3.27,2.14-3.53,3.09c-0.12,0.44,0.12,0.63,0.47,0.83
		c0.5,0.28,1.16,0.35,1.42,0.99c-0.73-0.33-1.43-0.74-2.19-0.96c-0.74-0.21-0.23-0.97-0.7-1.25c-0.28,0.19-0.55,0.24-0.77-0.08
		c0.14-0.55,0.76-0.64,1.01-1.09c0.43-0.48,0.8-1.02,1.49-1.18c1.91-1.19,4.04-1.4,6.21-1.46c0.74-0.03,1.45,0.07,2.03,0.6
		C52,23.67,51.85,23.79,50.76,23.51z"/>
	<path class="st64" d="M24.65,36.42c-0.09,0.81-0.18,1.61-0.27,2.42c-0.59-0.62,0.11-1.52-0.46-2.15c0.49-0.87,0.69-1.77,0.2-2.72
		c-0.34-1.2,0.46-1.85,1.22-2.52c1.07-0.7,1.74-1.86,2.87-2.48l-0.01,0.01c0.41-0.08,0.62-0.83,1.19-0.36
		c0.02,0.05,0.04,0.1,0.05,0.15c-0.09,0.09-0.17,0.18-0.26,0.27c-0.52,0.83-1.14,1.59-1.79,2.32
		C26.08,32.84,25.44,34.67,24.65,36.42z"/>
	<path class="st65" d="M37.85,27.79c-0.01-0.21,0-0.43,0.21-0.56c0.96,0.09,1.92,0.17,2.89,0.26c1.21,0.08,2.24,0.62,3.21,1.28
		c0.23,0.16,0.54,0.36,0.4,0.76c-0.56,0.38-1.09,0.09-1.63-0.07c-0.34-0.14-0.67-0.32-1.03-0.41c-1-0.34-2-0.71-3.09-0.71
		C38.4,28.34,38.02,28.23,37.85,27.79z"/>
	<path class="st66" d="M44.99,28.27c1.22,0.38,1.79,1.43,2.41,2.4c0.47,0.74,0.81,1.55,1.02,2.41c0.9,0.89,0.72,2.05,0.78,3.15
		c-0.04,1.26,0.21,2.55-0.45,3.73c-0.1,0.12-0.23,0.15-0.38,0.08c-0.18-1.81,0.32-3.6,0.04-5.43
		C48.03,32.05,46.75,30.05,44.99,28.27z"/>
	<path class="st67" d="M44.52,29.4c-0.93-1.12-2.31-1.4-3.57-1.91c1.13-0.4,2.04,0.3,2.83,0.82c2.28,1.51,3.55,3.77,4.11,6.43
		c0.06,0.27,0.05,0.56-0.23,0.75c-0.34-0.44,0.02-1.09-0.43-1.5c-0.47-0.31-0.53-0.86-0.69-1.32C46.1,31.43,45.06,30.57,44.52,29.4z
		"/>
	<path class="st68" d="M48.38,40.04c0.08,0,0.15,0,0.23-0.01c1.65-0.87,2.85,0.14,4.1,0.98c-1.07,0.59-2.12,0.04-3.17-0.09
		c-0.38-0.05-0.75-0.18-1.15-0.16C48.08,40.53,48.08,40.28,48.38,40.04z"/>
	<path class="st69" d="M41.17,25.68c0.21,0.23,0.49,0.18,0.75,0.21c-0.2,0.55-0.49,0.79-1.14,0.59c-0.54-0.17-1.15-0.12-1.73-0.17
		c-0.05-1.72,1.08-0.55,1.67-0.68C40.89,25.49,41.04,25.52,41.17,25.68z"/>
	<path class="st70" d="M25.51,31.64c-0.77,0.6-1.24,1.37-1.38,2.34c-0.07,0.03-0.15,0.05-0.22,0.06c-0.99,0.28-1.66-0.41-2.38-0.86
		c-2.64-1.63-3.91-4.8-3.15-7.76c0.11-0.43,0.22-0.86,0.6-1.14c1.69-0.68,2.91-0.12,3.31,1.51c-0.35,0.66-0.37,1.16,0.57,1.2
		c0.44,1.76,2.15,2.64,2.88,4.2C25.72,31.37,25.71,31.55,25.51,31.64z"/>
	<path class="st71" d="M19.11,24.44c-1.83,3.45,0.21,6.87,2.47,8.42c0.72,0.49,1.48,0.92,2.33,1.18c-0.09,0.26-0.18,0.52-0.27,0.78
		c-0.41,0.25-0.81,0.03-1.13-0.13c-1.65-0.81-3.21-1.77-4.44-3.16c-1.58-1.78-1.75-4.35-0.51-6.76c-0.35,0.53-0.59,1.1-0.83,1.68
		c-0.27,0.67-0.61,0.47-0.91,0c0.62-2.09,2.15-3.5,3.73-4.85c1.36-1.16,2.82-2.2,3.9-3.66c-0.11-0.26,0.02-0.46,0.17-0.64
		c0.9-1.1,1.65-2.3,2.49-3.44c0.24-0.32,0.42-0.8,0.97-0.72c0.38,0.52,0.12,0.99-0.15,1.43C24.71,18.18,22.3,21.62,19.11,24.44z"/>
	<path class="st72" d="M15.8,26.44c0.25,0.01,0.55,0.64,0.72-0.16c0.21-0.97,0.76-1.79,1.57-2.45c-0.46,1.34-0.98,2.63-1,4.1
		c-0.02,1.35,0.15,2.5,1.16,3.44c1.59,1.47,3.3,2.75,5.39,3.43c-0.02,0.44-0.28,0.38-0.58,0.29c-3.38-1.07-5.67-3.36-7.15-6.51
		C15.59,27.9,16.25,27.14,15.8,26.44z"/>
	<path class="st73" d="M27.03,13.16c-1.2,1.6-2.4,3.19-3.6,4.79c-0.24,0.01-0.47,0.02-0.71,0.03c-0.86-0.66-0.44-1.17,0.2-1.66
		c0.17-0.02,0.34-0.03,0.51-0.05c0.27-0.25,0.36-0.62,0.61-0.88c0.51-0.62,0.9-1.33,1.38-1.98c0.11-0.13,0.29-0.15,0.42-0.25
		c0.14-0.15,0.28-0.31,0.43-0.46c0.23-0.34,0.3-0.8,0.75-0.98c0.31,0,0.62,0,0.93,0.01c0.01,0.07,0.01,0.13,0,0.2
		C27.8,12.45,27.65,12.98,27.03,13.16z"/>
	<path class="st74" d="M22.93,16.31c-0.24,0.53-0.66,1.04-0.2,1.66c-0.28,0.43-0.71,0.61-1.2,0.7c0.73-0.9,0.47-1.87,0.21-2.84
		C22.13,16,22.45,16.34,22.93,16.31z"/>
	<path class="st75" d="M14.56,23.55c0.55-0.08,0.81,0.26,1,0.69c-0.01,0.06-0.03,0.12-0.04,0.18c-0.31,0.24-0.61,0.57-1.02,0.18
		C14.11,24.25,14.37,23.9,14.56,23.55z"/>
	<path class="st76" d="M61.6,40.53c-1.94,0.81-3.93,1.24-6.02,0.71c-0.04-0.51,0.4-0.54,0.7-0.66c2.31-0.88,4.31-2.24,6.16-3.85
		c0.46-0.4,0.91-0.97,1.65-0.49c0.29,0.62-0.23,1.08-0.33,1.62C63.44,39.08,62.67,39.93,61.6,40.53z"/>
	<path class="st77" d="M60.42,26.13c0.63-0.39,0.15-0.58-0.14-0.83c-0.9-0.74-1.95-1.24-2.96-1.79c1.49-0.05,2.81,0.44,3.93,1.38
		c1.78,1.49,3.33,3.15,3.68,5.59c-0.05,1.99,0.13,4.01-0.47,5.96c-0.69-0.26-0.54-0.88-0.55-1.39c-0.05-1.43,0.05-2.86-0.06-4.28
		c-0.16-0.62-0.24-1.25-0.41-1.87c-0.26-1-0.99-1.57-2.05-1.64c-0.52-0.07-0.9-0.31-1.08-0.82C60.29,26.32,60.32,26.21,60.42,26.13z
		"/>
	<path class="st78" d="M48.35,42.94c0.16-0.7,0.54-0.96,1.02-0.31c0.37,0.5,0.8,0.56,1.33,0.55c2.76-0.06,5.54,0.22,8.26-0.49
		c-2.93,2.41-6.17,2.13-9.5,1.12C49,43.66,48.6,43.38,48.35,42.94z"/>
	<path class="st79" d="M64,30.44c0.47,1.09,0.13,2.24,0.25,3.36c0.09,0.88-0.24,1.79,0.21,2.64c-0.11,0.54-0.22,1.07-0.69,1.43
		c0.07-0.56,0.14-1.11,0.21-1.67c-0.56-0.74-0.32-1.61-0.35-2.43c-0.03-0.83-0.04-1.67,0.02-2.51C63.69,30.96,63.73,30.65,64,30.44z
		"/>
	<path class="st80" d="M39.51,17.69c-0.27-1.07,0.21-1.38,1.2-1.18c5.38-0.1,10.67-0.67,15.59-3.13c0.51-0.03,1.03-0.14,1.48,0.22
		c0.06,0.13,0.05,0.25-0.02,0.37c-1.29,0.95-2.75,1.55-4.27,2.03c-2.46,0.79-4.93,1.49-7.54,1.56c-1.53-0.04-3.07,0.1-4.59-0.12
		c-0.55-0.08-0.97,0.27-1.47,0.36C39.74,17.83,39.62,17.79,39.51,17.69z"/>
	<path class="st81" d="M69.13,2.37c0.93,0.29,0.95,0.92,0.66,1.69c-0.18,0.47-0.33,0.94-0.5,1.42c-0.73,1.47-1.74,2.5-3.55,2.5
		c-0.98,0-1.44,0.88-2,1.54c-0.48,0.67-1.16,0.95-1.96,1.02c-0.3-0.06-0.69-0.01-0.66-0.5c0.37-0.4,0.84-0.75,1.1-1.21
		c0.84-1.46,2.1-1.88,3.67-1.67c0.97-0.57,1.42-1.53,1.92-2.46C68.24,3.92,68.47,3.02,69.13,2.37z"/>
	<path class="st82" d="M61.12,10.04c0.15,0.34,0.48,0.15,0.72,0.25c0.11,0.54-0.29,0.81-0.64,1.04c-0.98,0.63-1.81,1.43-2.63,2.23
		c-0.25,0.16-0.51,0.33-0.8,0.08c-0.49-0.04-1.01,0.04-1.46-0.26C58,12.41,59.72,11.46,61.12,10.04z"/>
	<path class="st83" d="M69.13,2.37c-0.62,1.23-1.23,2.48-1.88,3.7c-0.29,0.53-0.61,1.09-1.35,1.1c0.16-0.25,0.33-0.49,0.49-0.74
		c0.98-0.78,1.27-1.99,1.87-3C68.49,3.03,68.56,2.49,69.13,2.37z"/>
	<path class="st84" d="M63.51,9.37c0.7-1.06,1.47-1.88,2.95-1.75C67.38,7.69,68,6.9,68.59,6.26c0.24-0.25,0.32-0.65,0.7-0.78
		c0.02,0.72-0.37,1.31-0.72,1.87c-0.68,1.09-0.68,2.2-0.32,3.36c-1.68,2.43-3.41,4.8-6.05,6.33c-1.2,0.7-2.32,1.54-3.5,2.3
		c-0.38,0.25-0.75,0.66-1.29,0.3c-0.32-0.55-0.06-1,0.25-1.43c0.26-0.36,0.43-0.77,0.6-1.17c0.18-0.35,0.41-0.66,0.74-0.89
		c0.95-0.66,1.34-1.57,1.22-2.72c0.32-0.82,1.13-1.08,1.79-1.49c0.65-0.42,1.19-0.91,1.63-1.54C63.95,9.97,63.86,9.67,63.51,9.37z"
		/>
	<path class="st85" d="M57.52,19.63c3.49-2.16,7.25-3.99,9.46-7.71c0.32-0.54,0.77-0.89,1.28-1.21c0.18,2.48,0.04,4.87-1.86,6.78
		c-0.58,1.25-1.7,2-2.69,2.87c-1.21,0.67-2.22,1.61-3.33,2.4c-0.28,0.18-0.53,0.27-0.87,0.07c-1.5-0.86-3.09-0.6-4.67-0.28
		c-0.6,0.03-0.7-0.47-0.92-0.85c-0.09-0.21-0.16-0.43-0.11-0.67c0.12-0.36,0.34-0.6,0.74-0.63c0.11,0,0.22,0.01,0.34,0.03
		c0.9,0.23,1.7,0.08,2.35-0.63C57.32,19.72,57.42,19.67,57.52,19.63z"/>
	<path class="st86" d="M63.72,20.36c0.89-0.96,1.79-1.91,2.69-2.87c0.05,0.1,0.17,0.25,0.15,0.28
		C65.69,18.73,64.99,19.86,63.72,20.36z"/>
	<path class="st87" d="M45.99,17.28c4.14-0.34,8.04-1.55,11.73-3.43c0.35,0.45,0.42,0.57,0.02,1.06c-0.49,0.61-0.77,1.21-0.58,1.99
		c-0.26,0.14-0.54,0.19-0.81,0.16c-1.31-0.18-2.33,0.21-2.98,1.42c-0.66-0.31-1.24-0.79-2.06-0.78c-0.68,0.02-0.9,0.19-0.61,0.84
		c0.22,0.51,0.53,0.99,0.4,1.59c-0.6,0.71-1.49,0.88-2.29,1.22c-0.47,0.2-0.96,0.37-1.26,0.83c-1.18-0.01-2.12,0.8-3.25,0.95
		c-1.32-0.34-2.67-0.38-4.01-0.5c-0.81-0.07-1.25-0.35-1.14-1.25c0.09-0.74-0.09-1.5,0.1-2.25c0.01-0.15,0.02-0.3,0.03-0.45
		c1.24-0.5,2.15,0.19,2.97,0.92c0.66,0.58,1.29,0.75,2.07,0.42c0.18-0.08,0.5-0.18,0.46-0.33c-0.3-1.05,0.85-1.36,1.04-2.14
		C45.86,17.46,45.91,17.36,45.99,17.28z"/>
	<path class="st88" d="M35.45,22.44c-0.01-0.05-0.01-0.11-0.02-0.16c0.27-0.19,0.17-0.4,0.05-0.62c-1.31-2.37-1.07-4.78,0.33-6.92
		c0.64-0.98,0.02-1.94,0.56-2.77c0.94,0.58,0.82,1.56,0.85,2.44c0.09,2.3-0.12,4.6,0.25,6.89c0.17,1.05,0.44,2.1,0.39,3.18
		c-0.26,0.41,0.8,1.03-0.21,1.32c-0.07-0.3-0.01-0.64-0.28-0.88C36.71,24.1,36.26,23.13,35.45,22.44z"/>
	<path class="st89" d="M37.85,24.48c-0.64-1.79-0.89-3.65-0.95-5.54c-0.06-2.06,0.18-4.14-0.28-6.18c-0.06-0.27-0.18-0.52-0.27-0.78
		c-0.09-0.24-0.18-0.47-0.26-0.71c1.18,0.21,1.52,1.3,2.15,2.08c0.17,0.21,0.14,0.53,0.28,0.76c-0.11,2.8-0.55,5.59-0.52,8.4
		C38.01,23.16,38.17,23.85,37.85,24.48z"/>
	<path class="st90" d="M46.02,17.46c0.49,0.67-0.34,0.73-0.52,1.09c-0.12,0.24-0.66,0.41-0.5,0.55c0.66,0.58,0.48,0.79-0.24,1.09
		c-0.89,0.37-1.89,0.67-2.52-0.1c-0.82-1.01-1.84-1.24-2.97-1.39c-0.08-0.37,0.07-0.69,0.24-1.01c0.08,0.01,0.16,0.01,0.24,0.02
		c1.32-0.47,2.68,0.03,4.02-0.19C44.5,17.4,45.27,17.18,46.02,17.46z"/>
	<path class="st85" d="M39.24,19.14c0,0.04,0.01,0.08,0.01,0.12c0.11,3.21,0.11,3.22,3.41,3.25c0.69,0,1.35,0.01,1.9,0.51
		c-0.15,0.47-0.56,0.6-0.97,0.71c-0.49,0.31-0.87,0.73-1.21,1.19c-0.56,0.2-1.12,0.47-1.67-0.01c-1.71-0.43-1.76-0.43-1.67-2.25
		C39.1,21.49,38.84,20.3,39.24,19.14z"/>
	<path class="st91" d="M38.52,14.11c-0.8-0.96-1.43-2.05-2.43-2.85c-0.17-0.22-0.44-0.38-0.37-0.72c-0.09-0.27-0.33-0.47-0.36-0.77
		c0-0.11,0.05-0.17,0.16-0.16c0.75-0.21,1.27,0.23,1.79,0.65c0.41,0.34,0.73,0.75,1,1.21C38.65,12.33,38.63,13.22,38.52,14.11z"/>
	<path class="st92" d="M34.48,10.27c-0.41,0.03-0.71-0.18-1.01-0.42c0.13-0.55,0.59-0.87,0.93-1.28c0.21-0.11,0.42-0.06,0.63-0.01
		c0.16,0.05,0.28,0.15,0.41,0.25c0.39,0.01,0.78,0.02,1.18,0.03c-0.24,0.42-1.08,0-1.09,0.77c0,0,0,0,0,0
		C35.22,9.91,34.93,10.21,34.48,10.27z"/>
	<path class="st93" d="M40.72,24.92c0.56,0,1.12,0.01,1.67,0.01c-0.35,0.34-0.63,0.79-1.22,0.75c-0.15-0.02-0.3-0.04-0.45-0.06
		C40.72,25.38,40.72,25.15,40.72,24.92z"/>
	<path class="st94" d="M38.31,11.48c-0.41-0.34-0.85-0.65-1-1.21C37.97,10.4,38.36,10.76,38.31,11.48z"/>
	<path class="st95" d="M50.95,20.13c-0.24-0.63-0.45-1.27-0.71-1.9c-0.11-0.27-0.24-0.5,0.06-0.73c0.6-0.47,2.57,0.14,2.9,0.92
		c0.4,0.32,0.51,0.8,0.67,1.26c0.16,0.48,0.05,0.96,0.02,1.44c0.07,0.16,0.15,0.33,0.22,0.49c-0.05,0.39,0.14,0.78,0.04,1.17
		c0.32,0.16,0.65,0.31,0.97,0.47c-1.31,0.47-0.22,0.95-0.01,1.43c-0.74,0.23-1.25-0.28-1.82-0.57c-0.31-1.26-0.02-2.63-0.66-3.85
		c-0.23-0.44-0.33-0.95-0.8-1.26c0.23,1.04,0.61,2.03,0.92,3.03c0.18,0.57,0.37,1.14,0.07,1.74c-0.63,0.59-1.33,0.42-2.03,0.18
		c-0.01-0.15-0.01-0.3-0.02-0.44c0.37-0.17,1.21,0.3,0.98-0.71C51.38,21.94,50.74,21.16,50.95,20.13z"/>
	<path class="st96" d="M54.14,22.78c-0.3-0.38-0.35-0.77-0.04-1.18c0.28,0.29,0.34,0.75,0.74,0.95
		C54.67,22.82,54.4,22.77,54.14,22.78z"/>
	<path class="st97" d="M8.01,34.95c0.1,1.66-0.47,2.38-1.8,2.2c-0.85-0.11-1.51-0.45-1.52-1.48c-0.01-1.04,0.26-1.8,1.46-1.86
		C6.39,34.8,7.14,34.98,8.01,34.95z"/>
	<path class="st98" d="M8.01,34.95c-0.49,0.37-1,0.45-1.51,0.05c-0.39-0.31-0.72-0.66-0.35-1.19C6.92,33.95,8.19,33.27,8.01,34.95z"
		/>
	<path class="st99" d="M34.96,8.84c-0.15-0.08-0.31-0.16-0.46-0.24c-0.18-0.14-0.15-0.31-0.06-0.48c0.02-0.08,0.05-0.16,0.07-0.23
		c0.47-0.99,0.04-2.25,0.98-3.1c0.32-0.28,0.17-1.13,0.87-0.91c0.59,0.19,0.51,0.83,0.5,1.34c0.05,0.85,0.04,1.68-0.46,2.42
		c-0.32,0.16-0.19,0.78-0.73,0.72c-0.39-0.68,0.2-1.13,0.34-1.62C35.56,7.34,35.54,8.23,34.96,8.84z"/>
	<path class="st100" d="M32.47,2.25c1.13,1.73,1.45,3.63,1.17,5.67C33,6.08,33.01,4.1,32.47,2.25z"/>
	<path class="st14" d="M34.43,8.12c0.02,0.16,0.04,0.32,0.06,0.48c-0.1,0.61-0.57,0.93-1.02,1.26c-0.8-0.09-0.48-0.81-0.69-1.24
		c-0.1-0.15-0.2-0.3-0.3-0.45C33.13,8.17,33.79,8.62,34.43,8.12z"/>
	<path class="st101" d="M17.89,35.22c0.04,1.79-0.31,2.14-2.15,2.19c-0.19-0.06-0.39-0.09-0.57-0.18c-1.14-0.58-1.61-1.49-1.26-2.39
		c0.35-0.87,1.72-1.39,2.79-1.06C16.5,34.76,17.37,34.85,17.89,35.22z"/>
	<path class="st102" d="M17.89,35.22c-0.69,0.17-1.14-0.19-1.5-0.7c-0.27-0.38-0.19-0.67,0.32-0.74c0.53,0.28,0.81,0.8,1.19,1.22
		C17.9,35.07,17.9,35.15,17.89,35.22z"/>
	<path class="st103" d="M34.96,8.84c0.31-0.77,0.61-1.55,0.92-2.32c0.07-0.18,0.15-0.37,0.46-0.38c0.06,0.83-0.79,1.4-0.67,2.22
		c-0.18,0.1-0.23,0.27-0.23,0.46C35.28,8.83,35.12,8.83,34.96,8.84z"/>
	<path class="st104" d="M36.39,7.64c0.23-0.79,0.09-1.65,0.46-2.42C37.31,6.15,37.22,6.96,36.39,7.64z"/>
	<path class="st105" d="M27.03,13.16c0.31-0.41,0.49-0.92,0.93-1.23c2.18,2.26,1.69,4.89,1.18,7.61c-0.36,1.95-0.75,3.88-1.32,5.78
		c-0.15,0.5-0.11,1.02,0.04,1.53c0.22,0.75,0.2,1.49-0.11,2.22c-0.48,0.93-1.18,1.64-2.12,2.12c-0.4-0.43-0.76-0.92-1.21-1.29
		c-0.92-0.75-1.43-1.72-1.75-2.83c-0.12-0.45-0.36-0.84-0.68-1.17c-0.12-1.34-1.22-1.89-2.88-1.45c0.81-1.6,2.39-2.53,3.4-3.97
		c1.46-2.08,3.06-4.06,4.32-6.28C27.03,13.85,27.02,13.51,27.03,13.16z"/>
	<path class="st106" d="M32.51,9.96c-0.13,0.67-0.7,0.89-1.08,1.27c-0.27,0.27-0.62,0.34-0.99,0.22c-0.09-0.03-0.2-0.16-0.21-0.25
		c-0.05-0.57,0.27-0.97,0.66-1.32c0.32-0.29,0.68-0.6,1.16-0.39C32.24,9.57,32.37,9.81,32.51,9.96z"/>
	<path class="st64" d="M32.78,26.84c0.1,0.38,0.49,0.47,0.71,0.74c-0.56,0.52-1.21,0.59-1.92,0.44c-0.79,0.04-1.52,0.23-2.13,0.77
		c0,0-0.06-0.07-0.06-0.07c-0.27-0.56,0.32-0.67,0.51-0.99c0.13-0.06,0.25-0.12,0.38-0.18C31.07,27.12,31.79,26.5,32.78,26.84z"/>
	<path class="st107" d="M25.63,31.18c0.71-0.71,1.41-1.41,2.12-2.12c0.16-0.03,0.31-0.06,0.47-0.09c-0.8,0.99-1.64,1.94-2.71,2.65
		C25.55,31.48,25.59,31.33,25.63,31.18z"/>
	<path class="st108" d="M34.48,10.27c0.34-0.23,0.49-0.76,1.04-0.65c-0.08,0.34,0.81,0.46,0.21,0.92
		C35.3,10.49,34.85,10.57,34.48,10.27z"/>
	<path class="st109" d="M32.78,26.84c-0.94-0.15-1.63,0.57-2.49,0.71c0.47-0.92,1.44-0.77,2.22-1.02
		C32.6,26.63,32.69,26.74,32.78,26.84z"/>
	<path class="st110" d="M29.91,27.73c-0.17,0.33-0.34,0.66-0.51,0.99c-0.48-0.28-0.75,0.37-1.19,0.27
		C28.62,28.36,29.24,28.02,29.91,27.73z"/>
	<path class="st111" d="M11.67,28.06c-0.32,0.55-0.81,0.55-1.32,0.37c-0.28-0.1-0.39-0.38-0.36-0.67c0.06-0.54,0.44-0.68,0.92-0.69
		C11.27,27.32,11.46,27.69,11.67,28.06z"/>
	<path class="st112" d="M11.67,28.06c-0.58-0.08-0.82-0.43-0.76-0.99c0.38-0.3,0.78-0.39,1.09,0.05
		C12.29,27.53,12,27.82,11.67,28.06z"/>
	<path class="st113" d="M10.74,19.56c-0.11-0.54,0.11-0.84,0.66-0.88c0.19,0.24,0.39,0.51,0.16,0.81
		C11.34,19.77,11.03,19.67,10.74,19.56z"/>
	<path class="st114" d="M8.5,24.21c0.19,0.41,0.54,0.53,0.97,0.51c-0.14,0.13-0.33,0.24-0.42,0.4c-0.31,0.54-0.75,0.65-1.29,0.45
		c-0.23-0.09-0.4-0.29-0.36-0.54C7.5,24.42,7.94,24.21,8.5,24.21z"/>
	<path class="st115" d="M14.78,13.13c-0.01,0.42-0.21,0.69-0.63,0.73c-0.46,0.04-0.77-0.19-0.79-0.67
		c-0.02-0.42,0.21-0.69,0.62-0.73C14.45,12.41,14.72,12.66,14.78,13.13z"/>
	<path class="st116" d="M25.66,13.45c-0.42,0.77-0.9,1.49-1.49,2.14c-1.33-0.28-1.73-1.5-2.41-2.43c0.03-0.59,0.08-1.16,0.77-1.38
		C23.34,12.76,24.56,13,25.66,13.45z"/>
	<path class="st117" d="M21.76,13.16c1.03,0.58,1.38,1.85,2.41,2.43c-0.19,0.28-0.25,0.71-0.73,0.67c-0.23-0.89-1.17-1.27-1.5-2.08
		C21.81,13.85,21.31,13.59,21.76,13.16z"/>
	<path class="st118" d="M25.66,13.45c-1.34-0.01-2.57-0.23-3.13-1.67c1.11,0.46,2.22,0.92,3.33,1.38
		C25.79,13.26,25.72,13.35,25.66,13.45z"/>
	<path class="st119" d="M20.29,5.02c-0.05,0.9,0.57,0.99,1.24,1.02c-0.37,0.52-0.82,0.78-1.38,0.28C19.61,5.84,19.9,5.42,20.29,5.02
		z"/>
	<path class="st120" d="M64,30.44c-0.02,0.24-0.04,0.47-0.06,0.71c-1.86,0.5-3.74,1.06-5.18,2.34c-2.22,1.99-4.8,2.76-7.68,2.77
		c-0.73,0-1.48,0.51-2.19-0.07c0-1.06-0.16-2.1-0.46-3.12c1.28-0.43,2.61-0.2,3.91-0.23c1.85-0.03,3.19-1.09,4.52-2.17
		c0.33-0.27,0.45-0.74,0.41-1.21c0.81-0.41,0.89-1.09,0.71-1.88c0.09-0.2,0.27-0.26,0.47-0.27c0.72,0.02,0.98,0.81,1.62,0.96
		c0.21,0.1,0.41,0.21,0.64,0.28c0.32,0.1,0.62,0.09,0.84-0.2c0.2-0.26,0.11-0.51-0.05-0.75c-0.1-0.16-0.24-0.31-0.13-0.52
		c0.92-0.31,2.12,0.5,2.35,1.59C63.84,29.27,63.91,29.86,64,30.44z"/>
	<path class="st121" d="M53.42,24.19c0.72-0.4,1.07,0.51,1.69,0.49c0.36,0,0.72,0.01,1.07-0.01c0.31-0.02,0.61-0.09,1.15-0.17
		c-0.47,0.82-1.08,0.95-1.73,0.92c-1.73-0.08-3.63,0.39-4.81-1.47c0.63-0.14,1.3,0.14,1.9-0.22C53.03,23.73,53.21,23.99,53.42,24.19
		z"/>
	<path class="st122" d="M59.98,28.51c-0.7-0.16-1.05-0.76-1.53-1.19c0.12-1.45,0.41-1.62,1.97-1.19c0,0.08,0.01,0.16,0.01,0.24
		C59.93,27.18,59.93,27.18,59.98,28.51z"/>
	<path class="st123" d="M57.98,27.59c0.81,1.14,0.63,1.63-0.71,1.88C56.49,28.3,56.66,27.83,57.98,27.59z"/>
	<path class="st124" d="M31.58,28.01c0.61-0.3,1.27-0.35,1.92-0.44c0.16,0.23,0.32,0.46,0.48,0.69c0.25,0.25-0.31,0.49-0.01,0.73
		c0.88,0.7,2,0.3,2.98,0.63c0.43,0.14,0.7-0.25,0.85-0.65c0.02-0.4,0.03-0.79,0.05-1.19c1.43,0.38,2.99,0.26,4.3,1.08
		c-0.24,0.52-0.67,0.27-1.04,0.26c-0.38-0.01-0.75,0.01-0.89,0.42c-0.16,0.48,0.19,0.72,0.54,0.94c0.27,0.17,0.57,0.3,0.89,0.33
		c0.51,0.05,1.09,0.2,1.48-0.2c0.49-0.51-0.27-0.8-0.34-1.23c-0.01-0.08,0-0.15,0.03-0.23c0.56,0.08,1.08,0.45,1.69,0.25
		c1.48,1.19,2.3,2.77,2.7,4.59c-1.69,0.9-2.16,2.5-2.44,4.23c-0.31,1.89-1.07,2.24-2.83,1.5c-4.11-1.73-6.71-5.13-9.37-8.44
		C31.88,30.39,31.75,29.15,31.58,28.01z"/>
	<path class="st125" d="M27.28,31.17c0.63-0.71,1.06-1.6,1.91-2.12c0.2,1.39,0.95,2.52,1.82,3.55c1.06,1.24,2.18,2.42,3.33,3.58
		c0.76,0.77,1.14,1.73,1.55,2.67c1.21,2.82,3.55,4.16,6.29,5.04c0.8,0.26,1.78,0.12,2.36,0.94c-0.79,0.57-1.79,0.55-2.64,0.96
		c-1.12,0-2.24,0-3.36-0.01c-0.62-0.34-1.54-0.32-1.55-1.36c0.28-1.16,0.25-1.2-0.85-1.03c-1.45,0.01-2.76-1.7-2.42-3.16
		c0.55-0.75,0.13-1.02-0.57-1.16c-0.86-0.27-0.84-1.15-1.22-1.75c-0.14-0.3-0.33-0.57-0.54-0.82c-0.88-1.73-2.59-2.75-3.66-4.32
		C27.53,31.88,27.13,31.65,27.28,31.17z"/>
	<path class="st126" d="M37.11,44.36c0.03,0.93,1.19,0.72,1.44,1.42c-3.42-0.39-6.83-1.02-9.5-3.28c-1.53-1.29-3.18-2.76-3.5-5.03
		c-0.07-0.5-0.53-0.77-0.9-1.06c0.23-2.07,1.3-3.72,2.63-5.25c0.84,1.1,1.7,2.16,2.73,3.08c0.69,0.62,1.23,1.32,1.58,2.18
		c-0.14,0.29-0.73,0.43-0.46,0.82c0.26,0.39,0.62-0.13,0.95-0.1c0.64,0.39,0.26,1.51,1.2,1.69c-0.08,0.64,0.08,1.15,0.71,1.44
		c-0.33,1.14,0.99,2.91,2.15,2.88C36.46,43.56,36.71,44.03,37.11,44.36z"/>
	<path class="st127" d="M48.89,36.2c1.81-0.17,3.64-0.26,5.44-0.53c1.37-0.2,2.51-1.04,3.53-1.91c1.24-1.05,2.63-1.77,4.14-2.3
		c0.42-0.15,0.87-0.24,1.16-0.58c0.54-0.63,0.55,0.1,0.77,0.27c0.16,1.68,0.13,3.37,0.04,5.05c-0.93,0.09-1.4,0.87-2.03,1.39
		c-1.92,1.58-4.07,2.73-6.36,3.66c-1.01,0.53-1.93,0.04-2.88-0.23c-0.48-0.17-1.01-0.25-1.43-0.52c-0.75-0.48-1.41-1.01-2.25-0.12
		c-0.24,0.25-0.36-0.12-0.42-0.34C48.89,38.77,48.86,37.48,48.89,36.2z"/>
	<path class="st128" d="M35.17,28.58c-1.18-2.09-2.19-4.26-3.11-6.54c3.29,0.76,5.22,2.49,4.76,6.45c-0.57,0.11-0.67-0.39-0.78-0.72
		c-0.34-0.98-0.89-1.87-1.31-2.81c0.46,1.01,1,1.98,1.38,3.03c0.24,0.66,0.14,1.01-0.64,0.95C35.31,28.88,35.18,28.78,35.17,28.58z"
		/>
	<path class="st129" d="M35.17,28.58c0.1,0.06,0.19,0.12,0.29,0.18c0.54,0.36,1.09-0.24,1.63,0.01c0.19,0.24,0.46,0.19,0.72,0.2
		c0.39,0.7-0.4,1.14-0.59,1.05c-1.05-0.51-2.25-0.02-3.25-0.6c-0.27-0.16-0.62-0.26-0.65-0.63c-0.03-0.46,0.47-0.32,0.67-0.53
		C34.27,28.77,34.76,28.52,35.17,28.58z"/>
	<path class="st130" d="M37.09,28.77c-0.54,0.16-1.09,0.51-1.63-0.01c0.54,0.03,0.75-0.12,0.47-0.69c-0.46-0.93-0.87-1.88-1.29-2.83
		c-0.15-0.35-0.43-0.66-0.13-1.18c0.54,1.12,1.1,2.23,1.63,3.35c0.18,0.39,0.25,0.85,0.69,1.07C36.92,28.59,37,28.68,37.09,28.77z"
		/>
	<path class="st131" d="M35.45,22.44c1.02,0.53,1.63,1.39,1.92,2.48C36.37,24.37,35.96,23.37,35.45,22.44z"/>
	<path class="st132" d="M50.95,20.13c0.25,0.89,0.83,1.69,0.79,2.67c-0.6-0.3-1.24-0.46-1.91-0.51c-0.72-0.1-1.51,0.25-2.17-0.31
		c-0.24-0.71,0.45-0.61,0.74-0.75C49.23,20.81,50.1,20.48,50.95,20.13z"/>
	<path class="st133" d="M47.67,21.98c0.71,0.21,1.49-0.08,2.17,0.31c-0.36,0.38-0.83,0.26-1.24,0.22c-1.62-0.13-3.07,0.3-4.39,1.21
		c-0.21,0.14-0.39,0.3-0.6,0.03c0.32-0.24,0.64-0.48,0.97-0.71C45.52,22.45,46.54,22.04,47.67,21.98z"/>
	<path class="st134" d="M42.83,29.15c0.22,0.23,0.47,0.43,0.66,0.68c0.48,0.66,0.22,1.23-0.63,1.35c-0.9,0.13-1.75-0.07-2.52-0.56
		c-0.44-0.28-0.74-0.66-0.52-1.2c0.21-0.51,0.65-0.66,1.18-0.62c0.39,0.03,0.75,0.33,1.16,0.08C42.38,28.96,42.61,29.05,42.83,29.15
		z"/>
	<path class="st135" d="M20.8,26.52c0,0.02,0.02,0.23-0.03,0.41c-0.18,0.6-0.3,1.39-1.09,1.34c-0.94-0.06-0.69-0.86-0.64-1.48
		c0.01-0.16,0-0.32,0.01-0.47c0.04-0.59,0.01-1.3,0.81-1.32C20.71,24.97,20.81,25.66,20.8,26.52z"/>
	<path class="st136" d="M21.99,25.89c0.72,0.1,1.08,0.42,0.68,1.17c-0.31,0.27-0.57,0.3-0.87-0.06
		C21.41,26.53,21.74,26.23,21.99,25.89z"/>
	<path class="st137" d="M59.98,28.51c-0.11-0.21-0.2-0.43-0.33-0.61c-0.73-1.02,0.15-1.21,0.78-1.53c0.26,0.31,0.55,0.59,0.95,0.72
		c0.38,0.42,1.03,0.78,0.49,1.46C61.26,29.31,60.6,28.95,59.98,28.51z"/>
	<path class="st138" d="M57.27,16.7c-0.81-0.21-1.18-0.49-0.33-1.2c0.49-0.4,0.97-0.89,0.77-1.65c0.01-0.07,0.02-0.14,0.04-0.21
		c0.22-0.08,0.44-0.15,0.66-0.23c0.65-0.36,1.3-0.55,1.96-0.03c0.3,0.91-0.09,2.4-0.9,2.81c-0.42,0.22-0.59,0.64-0.99,0.81
		C58.08,16.92,57.61,17.08,57.27,16.7z"/>
	<path class="st139" d="M46.02,17.46c-0.79,0.09-1.61,0.07-2.36,0.29c-1.33,0.39-2.61,0.03-3.9-0.04c0.59-0.55,1.25-0.67,2.07-0.59
		c1.38,0.14,2.77,0.12,4.16,0.16C45.99,17.34,46,17.4,46.02,17.46z"/>
	<path class="st140" d="M60.38,13.38c-0.65,0.01-1.31,0.02-1.96,0.03c0.84-1.36,2.45-1.89,3.42-3.12c0.66-0.13,1.28-0.33,1.67-0.93
		c0.71-0.1,1.01,0.07,0.62,0.83c-0.59,1.16-1.65,1.78-2.68,2.45C61.09,12.88,60.74,13.14,60.38,13.38z"/>
	<path class="st141" d="M57.27,16.7c0.42,0.06,0.96-0.37,1.22,0.3c0.01,0.49-0.15,0.94-0.51,1.26c-0.42,0.38-0.54,0.83-0.46,1.36
		c-0.01,0.09-0.01,0.17-0.02,0.26c-0.77,0.65-1.68,0.77-2.64,0.72c-0.08,0-0.17-0.01-0.25-0.01c-0.36-0.28-0.58-0.7-0.97-0.94
		c-0.27-0.37-0.38-0.8-0.43-1.24c0.41-1.4,1.37-1.88,2.77-1.67C56.39,16.8,56.83,16.72,57.27,16.7z"/>
	<path class="st142" d="M60.23,20.9c0.56-2.82,2.56-4.36,5.09-5.64C64.58,18.42,62.78,20.31,60.23,20.9z"/>
	<path class="st143" d="M54.86,20.61c0.88-0.24,1.76-0.48,2.64-0.72C56.8,20.8,55.94,21.1,54.86,20.61z"/>
	<path class="st144" d="M53.64,19.65c0.61,0.06,0.69,0.13,0.97,0.94c-0.38-0.02-0.47,0.36-0.72,0.52
		C53.5,20.68,53.82,20.12,53.64,19.65z"/>
	<path class="st145" d="M53.42,24.19c-0.39,0.07-0.56-0.19-0.73-0.47c0.07-1.53-0.73-2.83-1.14-4.23c-0.12-0.4-0.52-0.89,0.06-1.14
		c0.61-0.26,0.65,0.43,0.83,0.77C53.33,20.7,53.62,22.4,53.42,24.19z"/>
	<path class="st146" d="M44.34,31.43c0.45,0,0.68,0.24,0.69,0.66c0.01,0.41-0.18,0.71-0.62,0.7c-0.39-0.01-0.7-0.26-0.73-0.65
		C43.66,31.73,43.98,31.53,44.34,31.43z"/>
	<path class="st147" d="M40.39,33.88c-0.23,0.01-0.36-0.13-0.38-0.33c-0.03-0.21,0.05-0.39,0.29-0.42c0.23-0.03,0.37,0.1,0.39,0.32
		C40.71,33.66,40.6,33.81,40.39,33.88z"/>
	<path class="st148" d="M37.11,44.36c-0.9,0.06-1-0.52-0.97-1.21c0.48-0.38,0.99-0.4,1.33,0.12C37.75,43.7,37.58,44.12,37.11,44.36z
		"/>
	<path class="st149" d="M33.99,40.28c-1.34-0.1-1.44-0.31-0.71-1.44C34.51,39.1,34.66,39.41,33.99,40.28z"/>
	<path class="st150" d="M32.07,37.16c-0.26,0.39-0.5,0.85-1.1,0.61c-0.29-0.12-0.36-0.4-0.33-0.7c0.06-0.57,0.48-0.65,0.95-0.64
		C31.9,36.58,32.07,36.81,32.07,37.16z"/>
</g>
</svg>
