<?xml version="1.0" encoding="utf-8"?>
<!-- Generator: Adobe Illustrator 23.0.2, SVG Export Plug-In . SVG Version: 6.00 Build 0)  -->
<svg version="1.1" id="Camada_1" xmlns="http://www.w3.org/2000/svg" xmlns:xlink="http://www.w3.org/1999/xlink" x="0px" y="0px"
	 viewBox="0 0 32.12 32.08" style="enable-background:new 0 0 32.12 32.08;" xml:space="preserve">
<style type="text/css">
	.st0{fill:#010000;}
	.st1{fill:#972719;}
	.st2{fill:#3E6233;}
	.st3{fill:#BE300B;}
	.st4{fill:#A03419;}
	.st5{fill:#A82B14;}
	.st6{fill:#A62F17;}
	.st7{fill:#894922;}
	.st8{fill:#D27C2E;}
	.st9{fill:#70A958;}
	.st10{fill:#D37F30;}
	.st11{fill:#4F8D3B;}
	.st12{fill:#AE5D19;}
	.st13{fill:#B46017;}
	.st14{fill:#6FA555;}
	.st15{fill:#B26218;}
	.st16{fill:#F0E2DB;}
	.st17{fill:#F1F4EF;}
	.st18{fill:#E1E7DD;}
	.st19{fill:#E5ECE1;}
	.st20{fill:#DDE8D8;}
	.st21{fill:#8EA985;}
	.st22{fill:#D5DBD2;}
	.st23{fill:#BCCDB7;}
	.st24{fill:#FDF48E;}
	.st25{fill:#D78C37;}
	.st26{fill:#CF740C;}
	.st27{fill:#FCF9F6;}
	.st28{fill:#F1D7C2;}
	.st29{fill:#D37E2F;}
	.st30{fill:#D17B2E;}
	.st31{fill:#D48131;}
	.st32{fill:#D07A2E;}
	.st33{fill:#D37D2F;}
	.st34{fill:#BA6416;}
	.st35{fill:#D48231;}
	.st36{fill:#C26913;}
	.st37{fill:#B44216;}
	.st38{fill:#F0E4DD;}
	.st39{fill:#B1601A;}
	.st40{fill:#B06019;}
	.st41{fill:#C86C16;}
	.st42{fill:#D58533;}
	.st43{fill:#FDF273;}
	.st44{fill:#FDF37F;}
	.st45{fill:#3B6235;}
	.st46{fill:#DB983E;}
	.st47{fill:#599041;}
	.st48{fill:#51823D;}
	.st49{fill:#3A6134;}
	.st50{fill:#416A37;}
	.st51{fill:#447338;}
	.st52{fill:#75AD5A;}
	.st53{fill:#8DB664;}
	.st54{fill:#82B15E;}
	.st55{fill:#73AB59;}
	.st56{fill:#76AC5A;}
	.st57{fill:#517A3E;}
	.st58{fill:#598745;}
</style>
<g>
	<path class="st0" d="M16.47,32.07c-3.48,0.02-6.96-0.04-10.34-0.98c-5.35-1.49-5.16-2.4-5.92-6.97c-0.78-4.67,0.67-8.98,2.47-13.19
		c0.56-1.31,1.17-2.61,1.83-3.88c0.37-0.72,0.38-1.32-0.1-1.99C3.89,4.36,3.44,3.61,2.98,2.86C2.23,1.63,2.59,0.8,3.99,0.54
		C4.46,0.45,4.94,0.4,5.41,0.39C7.4,0.37,9.4-0.08,11.33,0.01c2.88,0.14,5.78-0.24,8.67,0.28c1,0.18,2.21,0.1,3.17-0.12
		c1.6-0.37,2.7,0.48,3.94,0.97c1.05,0.41,1.14,1.73,0.22,2.43c-0.67,0.51-1.54,1.02-1.75,1.74c-0.24,0.8,0.82,1.29,1.28,1.93
		c4.3,5.93,5.84,12.55,5.08,19.77c-0.09,0.84-0.67,1.22-1.24,1.65c-3.39,2.59-7.34,3.32-11.47,3.41
		C18.31,32.09,17.39,32.07,16.47,32.07z"/>
	<path class="st1" d="M23.52,30.38c-1.97,0.61-3.99,0.49-6.01,0.43c-0.27-0.23-0.72,0.08-0.98-0.35c0.75-0.8,1.82-0.17,2.64-0.59
		c0.54-0.16,1.08-0.28,1.64-0.32c2.04-0.15,2.8-0.83,3.29-2.82c0.87-3.51,0.8-7.03,0.15-10.56c-0.42-2.65-1.17-5.2-2.12-7.7
		c-0.34-0.9-0.94-1.31-1.91-1.3c-1.63,0.03-3.27,0.01-4.9,0c-0.51,0-1.04,0.05-1.53-0.18c-0.28-0.17-0.31-0.43-0.26-0.72
		c0.04-0.13,0.13-0.24,0.25-0.31c0.57-0.24,1.18-0.15,1.77-0.17c0.2,0,0.39,0,0.59-0.01c0.26-0.01,0.53-0.02,0.79,0
		c1.63-0.06,3.26,0.16,4.87-0.13c0.47-1.01,0.84-2.06,1.23-3.11c0.08-0.24,0.21-0.45,0.42-0.6c0.11-0.06,0.23-0.1,0.36-0.1
		c0.27,0.01,0.47,0.11,0.58,0.37C24.59,3.25,23.65,4,23.71,5c-0.02,0.62-0.53,1.05-0.63,1.64c-0.09,0.48,0.2,0.84,0.36,1.24
		c1.77,4.48,3.01,9.06,2.84,13.95c-0.08,2.27-0.53,4.42-1.48,6.47c-0.11,0.22-0.23,0.43-0.35,0.64
		C24.15,29.43,24.05,30.05,23.52,30.38z"/>
	<path class="st2" d="M22.78,6.42c0.16-0.59,0.73-0.97,0.79-1.61c0-0.74,0.51-1.21,0.98-1.64c0.49-0.45,0.43-0.83,0.1-1.29
		c0.03-0.19,0.14-0.3,0.33-0.34c1.82,0.73,1.81,0.73,0.45,2.1c-0.23,0.23-0.44,0.46-0.67,0.69c-0.79,0.8-0.79,1.37,0.05,2.35
		c3.26,3.79,5.35,8.16,5.92,13.2c0.2,1.75,0.2,3.5,0.23,5.25c0.03,1.5-0.51,2.56-1.86,3.3c-1.76,0.96-3.53,1.84-5.57,1.97
		c0.26-0.49,0.3-1.08,0.71-1.51c0.1,0.03,0.2,0.06,0.29,0.11c0.69,0.18,1.22-0.24,1.81-0.45c0.15-0.07,0.31-0.12,0.46-0.17
		c0.83-0.32,1.63-0.69,2.26-1.34c0.22-0.26,0.42-0.53,0.56-0.85c0.32-1.69,0.46-3.38,0.07-5.07c-0.01-0.13-0.01-0.26-0.01-0.38
		c-0.07-1.07-0.25-2.13-0.34-3.19c-0.15-1.07-0.62-2.03-1-3.02c-0.26-0.62-0.55-1.22-0.91-1.79c-0.46-0.69-0.74-1.47-1.2-2.16
		c-0.96-1.38-1.73-2.93-3.19-3.91C22.94,6.57,22.86,6.5,22.78,6.42z"/>
	<path class="st3" d="M8.83,30.38c-1.8-0.17-3.52-0.6-5.16-1.4c-0.98-0.48-1.5-1.22-1.77-2.25c-1.1-4.1-0.85-8.12,0.58-12.09
		c0.93-2.59,2.09-5.08,3.32-7.54c0.49,0.01,0.45,0.42,0.55,0.72c-0.19,1.19-1.02,2.17-1.17,3.37c-0.02,0.12-0.05,0.23-0.11,0.33
		c-0.06,0.1-0.13,0.2-0.2,0.3c-1.41,3.29-2.45,6.66-2.39,10.29c0.03,1.65,0.35,3.25,0.78,4.83c0.17,0.63,0.51,1.08,1.15,1.25
		c1.71,0.5,3.42,0.98,5.21,1.13c0.38,0.03,0.82,0.01,0.98,0.5C10.14,30.36,9.54,30.56,8.83,30.38z"/>
	<path class="st4" d="M23.77,2.02c-0.08,0-0.17,0.01-0.25,0.01c-1.07,0.02-1.54,0.62-1.71,1.62c-0.09,0.53-0.28,1.07-0.56,1.54
		c-0.15,0.25-0.31,0.77-0.76,0.25c-0.14-0.36-0.06-0.71,0.05-1.05c0.18-0.64,0.43-1.27,0.52-2.05c-1.2,0.43-1.06,1.51-1.33,2.34
		c-0.26,0.75,0.21,0.9,0.79,0.96c0.36,0.15,0.69-0.14,1.05-0.08c0.26,0,0.5,0.05,0.71,0.21c-0.23,0.5-0.68,0.31-1.05,0.32
		c-1.48,0.02-2.95,0-4.43,0c-0.06-0.52,0.25-0.98,0.21-1.5c0.11-0.79,0.37-1.58,0.09-2.59c-0.71,0.86-0.48,1.77-0.7,2.56
		c-0.05,0.52-0.03,1.05-0.31,1.52c-0.17,0-0.33,0-0.5,0c-0.33-0.39-0.33-0.85-0.31-1.32c0.01-0.6,0.21-1.17,0.23-1.78
		c0.03-0.79-0.45-0.91-1.09-0.89c-0.75,0.03-0.7,0.49-0.6,1c0.11,0.55,0.2,1.1,0.19,1.66c0.02,0.47,0.01,0.94-0.33,1.32l0,0.01
		c-0.19,0.15-0.37,0.13-0.55-0.01c-0.29-0.4-0.25-0.87-0.25-1.32c0.04-0.72-0.07-1.42-0.24-2.13c-0.13-0.56-0.48-0.77-1.03-0.79
		c-0.93-0.03-1.14,0.2-0.92,1.11c0.13,0.54,0.29,1.08,0.42,1.62c0.09,0.49,0.31,0.97,0.03,1.46c-0.09,0.1-0.2,0.14-0.34,0.12
		c-0.58-0.31-0.55-0.93-0.73-1.44C9.99,4.4,9.88,4.06,9.81,3.72C9.59,2.64,9,2.14,7.88,2.36C7.66,2.38,7.44,2.42,7.22,2.41
		C6.67,2.29,6.13,2.38,5.59,2.42c-0.18-0.03-0.32-0.11-0.37-0.3c0.02-0.19,0.13-0.31,0.31-0.36c2.71-0.03,5.35-0.95,8.11-0.5
		c0.97,0.16,1.98,0.09,2.97,0.04c2.31-0.11,4.61,0.14,6.91,0.24C23.94,1.53,23.91,1.75,23.77,2.02z"/>
	<path class="st5" d="M5.53,1.76c-0.1,0.1-0.2,0.21-0.31,0.31c0.59,1.27,1.5,2.37,1.93,3.72c0.12,0.18,0.29,0.25,0.5,0.23
		c0.34-0.02,0.66-0.17,1-0.21c0.73-0.04,1.47-0.16,2.13,0.29c0.09,0,0.17,0,0.26,0c0.72-0.48,1.43-0.48,2.15,0
		c0.16,0,0.33,0.01,0.49,0.01c0,0.24,0,0.47,0,0.71c-0.64,0.57-1.41,0.29-2.13,0.34c-0.5,0.03-1.01-0.05-1.51,0.1
		C9.01,7.6,7.87,7.08,6.86,7.63C6.65,7.77,6.42,7.81,6.17,7.79C6.05,7.56,5.93,7.33,5.81,7.1C6.3,6.45,6.24,5.83,5.79,5.17
		c-0.5-0.75-0.96-1.54-1.4-2.34c-0.18-0.32-0.69-0.58-0.41-1C4.22,1.47,4.71,1.6,5.1,1.61C5.24,1.61,5.38,1.71,5.53,1.76z"/>
	<path class="st6" d="M8.83,30.38c0.66,0.1,1.08-0.61,1.74-0.51c0.79-0.6,1.71-0.22,2.56-0.32c0.22,0,0.44,0.04,0.66,0.09
		c1.28,0.31,2.59,0.02,3.88,0.11c0.54,0.04,1.12-0.08,1.54,0.4c-0.74,0.44-1.56,0.06-2.45,0.26c0.29,0.15,0.52,0.27,0.75,0.39
		C14.6,30.89,11.7,30.97,8.83,30.38z"/>
	<path class="st7" d="M23.77,2.02c-0.01-0.2-0.07-0.37-0.25-0.48c0.48-0.37,0.97-0.4,1.46-0.01c-0.08,0.09-0.16,0.19-0.25,0.28
		c-0.15,0.17-0.06,0.58-0.48,0.47C24.15,2.09,23.97,2.03,23.77,2.02z"/>
	<path class="st8" d="M19.21,30.15c-1.47-0.02-2.94-0.02-4.41-0.05c-0.38-0.01-0.8,0.1-1.13-0.21c0.4-0.37,0.83-0.37,1.25-0.16
		c-0.34-0.52-0.51-1.15-0.41-1.88c0.11-0.75,0.25-1.49,0.28-2.25c0.03-0.73-0.04-1.34-0.94-1.52c-0.33-0.07-0.83-0.21-0.49-0.78
		c0.71-0.24,1.46,0.2,2.17-0.1c0.92-0.23,1.68-0.7,2.26-1.45c0.39-0.51,0.87-0.75,1.51-0.81c2.65-0.24,4.45-1.89,5-4.54
		c0.05-0.12,0.13-0.2,0.25-0.25c0.77,3.94,0.85,7.85-0.48,11.7c-0.51,1.48-1.57,2.07-3.1,2.05C20.38,29.89,19.79,30.06,19.21,30.15z
		"/>
	<path class="st9" d="M22.78,6.42c0.1,0,0.21,0,0.31,0c1.23,1.27,2.25,2.7,3.23,4.17c0.54,0.71,0.75,1.61,1.36,2.27
		c0.16,0.59,0.56,1.07,0.76,1.65c0.5,0.92,0.64,1.97,1.14,2.89c0.31,1.1,0.27,2.24,0.42,3.36c-0.51-0.08-0.45-0.07-0.61,0.43
		c-0.8,2.61-1.9,5.07-3.77,7.11c-0.55,0.6-0.74,0.58-1.16,0.09c2.22-5.07,1.75-10.21,0.34-15.36c-0.54-1.97-1.1-3.92-2.04-5.75
		C22.6,6.96,22.52,6.7,22.78,6.42z"/>
	<path class="st10" d="M9.81,7.06c1.27-0.46,2.59-0.06,3.87-0.23c2.24-0.01,4.47,0.03,6.71-0.04c0.93-0.03,1.51,0.24,1.86,1.11
		c1.07,2.67,1.94,5.38,2.29,8.25c-0.03,0.02-0.07,0.05-0.1,0.07c-1.04-0.56-1.91-1.24-2.02-2.56c-0.08-0.92-0.49-1.76-0.89-2.59
		c0.08-0.65,0.08-1.26-0.72-1.49c-2.19-0.57-4.23-0.3-5.93,1.23c-0.86,0.78-1.88,0.52-2.81,0.8c-0.83,0.35-1.6,0.12-2.36-0.23
		c-0.46-0.2-0.95-0.11-1.42-0.15c-0.38-0.03-1,0.04-1.01-0.39c0-0.57,0.65-0.43,1.05-0.48c0.44-0.05,0.88-0.02,1.32-0.02
		c0.63,0,0.93-0.22,0.56-0.87c-0.08-0.14,0.01,0.04-0.06-0.11c-0.75-1.73-0.49-2.14,1.37-2.2C10.95,7.05,10.35,7.53,9.81,7.06z"/>
	<path class="st11" d="M24.46,28.39c0.76,0.51,0.96-0.31,1.23-0.63c1.83-2.17,2.88-4.75,3.67-7.48c0.27,0.04,0.25,0.56,0.63,0.47
		c0.01,0.08,0.01,0.16,0,0.24c-0.12,1.53,0.13,3.07-0.11,4.6c-0.05,0.31-0.05,0.63-0.12,0.94c-0.17,0.24-0.34,0.48-0.51,0.73
		c-0.8,0.43-1.67,0.74-2.34,1.39c-0.15,0.01-0.31,0.01-0.46,0.02c-0.73,0.17-1.37,0.75-2.19,0.5c-0.01-0.1-0.02-0.2-0.03-0.3
		C24.3,28.71,24.38,28.55,24.46,28.39z"/>
	<path class="st12" d="M21.68,5.83c-0.43,0.01-0.85,0.03-1.28,0.04c-0.16-0.28-0.16-0.48,0.24-0.48c0.83-0.55,0.83-1.51,0.98-2.3
		c0.25-1.26,0.79-1.55,1.9-1.06c-0.08,0.17-0.17,0.33-0.25,0.5C22.63,3.58,22.41,4.83,21.68,5.83z"/>
	<path class="st13" d="M15.59,4.67c0,0.48,0,0.96,0,1.44c-0.63,0-1.27,0-1.9,0c0-0.48,0.01-0.96,0.01-1.44
		C14.33,4.22,14.96,4.22,15.59,4.67z"/>
	<path class="st14" d="M24.25,2.29c0.16-0.16,0.32-0.31,0.48-0.47c0.27,0.2,0.55,0.41,0.84,0.62c-0.63,0.85-1.57,1.4-2,2.37
		c-0.39-0.53,0.18-0.86,0.28-1.29C23.95,3.1,24.11,2.7,24.25,2.29z"/>
	<path class="st15" d="M17.27,4.67c0.02,0.54,0.1,1.1-0.48,1.44c-0.24,0-0.47,0-0.71,0c-0.26-0.49,0.09-0.97,0.02-1.45
		C16.5,4.34,16.88,4.37,17.27,4.67z"/>
	<path class="st16" d="M21.68,5.83c0.36-1.18,0.73-2.36,1.59-3.3c-0.09,1.16-0.95,2.08-0.99,3.26C22.08,5.9,21.89,5.94,21.68,5.83z"
		/>
	<path class="st17" d="M26.21,10.66c-0.99-1.24-1.97-2.48-2.96-3.71c-0.14-0.17-0.2-0.33-0.15-0.53c1.61,0.92,2.4,2.51,3.32,4
		C26.55,10.67,26.4,10.69,26.21,10.66z"/>
	<path class="st18" d="M29.76,26.54c-0.01-1.49-0.03-2.98-0.01-4.47c0.01-0.36-0.21-0.8,0.24-1.08
		C30.29,22.86,30.41,24.71,29.76,26.54z"/>
	<path class="st19" d="M29.58,17.39c-0.09,0.16-0.13,0.6-0.31,0.03c-0.31-0.97-0.64-1.93-0.96-2.89c-0.14-0.25,0.01-0.26,0.19-0.24
		C29.03,15.26,29.45,16.28,29.58,17.39z"/>
	<path class="st20" d="M26.21,10.66c0.07-0.08,0.13-0.16,0.2-0.23c0.51,0.66,0.87,1.4,1.2,2.15c0.1,0.14,0.09,0.27-0.05,0.37
		C27.11,12.19,26.66,11.42,26.21,10.66z"/>
	<path class="st21" d="M26.91,28.65c0.54-0.87,1.43-1.15,2.34-1.39C28.58,27.91,27.7,28.21,26.91,28.65z"/>
	<path class="st22" d="M27.55,12.95c0.02-0.12,0.04-0.25,0.05-0.37c0.3,0.57,0.59,1.14,0.89,1.72c-0.06,0.08-0.13,0.16-0.19,0.24
		C28.01,14.03,27.68,13.54,27.55,12.95z"/>
	<path class="st23" d="M24.26,29.17c0.76-0.03,1.4-0.58,2.19-0.5C25.76,29.05,25.15,29.73,24.26,29.17z"/>
	<path class="st24" d="M4.84,11.41c0.06-0.06,0.12-0.08,0.2-0.06c0.92-0.67,1.94-0.39,2.94-0.32c0.43,0.03,0.86-0.01,1.29,0.02
		c0.35,0.61-0.23,0.72-0.53,0.97c-1.86,0.21-2.84,1.22-3.1,3.11c-0.13,0.93-0.57,1.82-0.92,2.71c-0.12,0.31-0.46,0.74,0.18,0.97
		c0.48,0.17,0.78,0.02,0.94-0.43c0.34-0.97,0.81-1.76,1.91-2.13c0.48-0.16,0.63-0.74-0.11-1.01c-0.27-0.1-0.55-0.21-0.52-0.56
		c0.03-0.37,0.3-0.58,0.63-0.63c0.53-0.08,0.96-0.37,1.42-0.58c0.46,0.06,0.62,0.36,0.61,0.79c-0.07,0.47-0.28,0.9-0.4,1.35
		c-0.35,1.32-0.35,2.56,0.82,3.53c0.12,0.5-0.21,0.92-0.23,1.39c-0.03,0.67-0.11,1.34,0.2,1.98c0.51,1.05,0.45,1.14-0.72,1.2
		c-0.4,0.02-0.79,0.01-1.19,0c-1.92-0.8-4.07-1.11-5.55-2.79c-0.3-0.66-0.14-1.35-0.03-2C3.13,16.35,3.8,13.82,4.84,11.41z"/>
	<path class="st25" d="M9.36,11.17c-1.45-0.17-2.88,0.06-4.32,0.19c-0.03-0.06-0.03-0.12,0-0.18c0.36-1.34,0.9-2.6,1.68-3.75
		C6.74,6.99,6.99,6.98,7.36,7c0.81,0.05,1.63,0.04,2.45,0.06c0.63,0,1.26,0,1.9,0c0,0.31-0.19,0.24-0.31,0.25
		c-1.59,0.16-1.74,0.43-1.03,1.81c0.11,0.21,0.21,0.43,0.35,0.62c0.59,0.79,0.16,0.94-0.56,0.94c-0.91-0.01-1.81,0-3,0
		c1.05,0.47,1.94-0.05,2.68,0.44C9.7,11.28,9.53,11.3,9.36,11.17z"/>
	<path class="st26" d="M13.19,29.86c-0.87,0-1.75,0-2.62,0c-1.91-0.38-3.86-0.59-5.73-1.19c-0.18-0.06-0.34-0.16-0.51-0.24
		c-0.9-1-1.27-2.16-1.1-3.5c0.31-0.35,0.59-0.09,0.82,0.09c1.34,1.1,2.92,1.75,4.45,2.5c1.21,0.56,2.47,1,3.69,1.53
		C12.58,29.23,13.14,29.24,13.19,29.86z"/>
	<path class="st27" d="M3.35,24.84c0.02,1.28,0.6,2.41,0.98,3.59c-0.95-0.04-1.22-0.73-1.43-1.49c-1.18-4.3-0.88-8.52,0.69-12.67
		c0.37-0.97,0.49-2.06,1.25-2.86c-0.65,2.4-1.41,4.77-1.8,7.25c-0.13,0.8-0.12,1.58-0.11,2.37C3.32,22.27,3.54,23.53,3.35,24.84z"/>
	<path class="st28" d="M6.72,7.43c-0.56,1.25-1.12,2.5-1.68,3.75C4.86,9.86,5.91,8.96,6.17,7.79C6.26,7.52,6.48,7.46,6.72,7.43z"/>
	<path class="st29" d="M10.82,4.66c-0.2-0.68-0.35-1.38-0.6-2.04c-0.29-0.77,0.04-1,0.75-1.05c1.71-0.13,1.77-0.1,2.15,1.8
		c0.08,0.42,0.05,0.86,0.08,1.3C12.4,5.18,11.61,5.19,10.82,4.66z"/>
	<path class="st30" d="M15.59,4.67c-0.63,0-1.27,0-1.9,0c-0.04-0.39-0.06-0.79-0.14-1.17c-0.35-1.65,0.2-2.14,1.83-1.67
		c0.42,0.12,0.4,0.4,0.43,0.72C15.89,3.27,15.69,3.96,15.59,4.67z"/>
	<path class="st31" d="M7.69,2.04c2.13,0.04,2.24,0.15,2.62,2.63C9.73,5.16,9.08,5.03,8.43,4.9C7.53,4.12,7.27,3.16,7.69,2.04z"/>
	<path class="st32" d="M17.78,4.66c0.08-0.75,0.16-1.49,0.23-2.24c0.03-0.37,0.04-0.82,0.53-0.75c0.46,0.07,0.99,0.27,0.89,0.91
		c-0.11,0.7-0.31,1.39-0.48,2.08C18.56,4.99,18.17,4.99,17.78,4.66z"/>
	<path class="st33" d="M17.27,4.67c-0.39,0-0.78-0.01-1.17-0.01c0.07-0.78,0.15-1.56,0.21-2.35c0.05-0.6,0.5-0.51,0.88-0.52
		c0.54-0.02,0.36,0.36,0.35,0.66C17.52,3.2,17.54,3.95,17.27,4.67z"/>
	<path class="st32" d="M19.47,4.65c0.33-2.19,0.33-2.19,2.08-2.84c-0.24,0.94-0.46,1.77-0.67,2.61C20.43,4.68,20.01,5.04,19.47,4.65
		z"/>
	<path class="st34" d="M10.82,4.66c0.79,0,1.58,0.01,2.38,0.01c0,0.48,0,0.96,0,1.44c-0.72,0-1.43,0-2.15,0
		C10.97,5.63,10.89,5.14,10.82,4.66z"/>
	<path class="st35" d="M5.51,2.25C6.09,2,6.66,1.85,7.23,2.26C7.67,2.9,7.76,3.64,7.87,4.38C7.03,5.4,6.82,4.2,6.34,3.95
		C5.92,3.45,5.4,3.01,5.51,2.25z"/>
	<path class="st36" d="M8.39,4.69c0.64-0.01,1.28-0.01,1.92-0.02c0.16,0.48,0.32,0.96,0.48,1.44c-0.79,0-1.59,0-2.38,0.01
		C8.02,5.64,8,5.17,8.39,4.69z"/>
	<path class="st37" d="M8.39,4.69c0,0.48,0.01,0.95,0.01,1.43C8.1,6.28,7.78,6.4,7.43,6.34C7.44,5.69,7.78,5.09,7.7,4.43
		C7.54,3.71,7.39,2.98,7.23,2.26c0.15-0.07,0.31-0.15,0.46-0.22C7.74,2.97,7.92,3.87,8.39,4.69z"/>
	<path class="st38" d="M5.51,2.25C5.7,2.81,6.04,3.27,6.39,3.73c0.46,0.36,0.59,0.92,0.85,1.4c0.19,0.35,0.39,0.84-0.27,1.03
		c-0.5-1.22-1-2.44-1.8-3.5C4.99,2.43,4.95,2.25,5.22,2.07C5.32,2.13,5.42,2.19,5.51,2.25z"/>
	<path class="st39" d="M19.47,4.65c0.47-0.08,0.94-0.15,1.4-0.23c-0.08,0.32-0.15,0.65-0.23,0.97c-0.19,0.1-0.23,0.28-0.24,0.48
		C19.35,6.03,18.99,5.66,19.47,4.65z"/>
	<path class="st40" d="M17.78,4.66c0.39,0,0.78,0,1.17,0c-0.09,0.44,0.32,1.15-0.53,1.19C17.45,5.91,17.85,5.14,17.78,4.66z"/>
	<path class="st41" d="M6.97,6.16c0.6-1-0.49-1.6-0.58-2.43c0.37,0.05,0.49,0.35,0.66,0.61C7.22,4.61,7.44,4.76,7.7,4.43
		c0.36,0.7,0.42,1.36-0.27,1.91C7.25,6.34,7.08,6.35,6.97,6.16z"/>
	<path class="st42" d="M13.19,29.86c-1.52-0.89-3.31-1.18-4.8-2.14c-0.17-0.65,0.07-1.24,0.32-1.82c0.34-0.79,0.38-1.44-0.61-1.77
		c-0.2-0.07-0.5-0.17-0.37-0.48c0.09-0.2,0.34-0.12,0.53-0.14c1.21,0.01,2.4,0.08,3.48-0.72c0.7-0.51,1.42-0.39,1.76,0.56
		c0.34,0.45,0.35,0.52,0.65,0.49c0.96-0.1,1.02,0.47,0.98,1.18c-0.04,0.67-0.07,1.33-0.18,2c-0.15,0.89-0.46,1.85,0.32,2.68
		c-0.58,0.27-1.11,0.09-1.6,0.16C13.51,29.88,13.35,29.87,13.19,29.86z"/>
	<path class="st43" d="M11.97,11.38c0.26-0.24,0.59-0.24,0.9-0.2c0.82,0.12,1.38-0.21,1.95-0.81c1.34-1.42,4.73-1.86,6.28-0.92
		c-0.13,0.66-0.67,1.07-0.95,1.64c-0.12,0.23-0.38,0.49-0.02,0.72c0.31,0.2,0.52-0.02,0.7-0.25c0.22-0.28,0.4-0.61,0.82-0.64
		c0.65,0.7,0.95,1.58,1.02,2.49c0.07,0.88,0.21,1.59,1.12,2c0.28,0.13,0.44,0.54,0.66,0.82c0.15,1.58-0.46,2.68-1.8,3.6
		c-1.18,0.8-2.23,1.65-3.76,1.42c-0.42-0.06-0.59,0.35-0.81,0.62c-0.65,0.79-1.41,1.4-2.45,1.56c-2.04-0.6-2.42-2.48-0.88-4.36
		c0.28-0.24,0.65-0.28,0.98-0.41c0.61-0.25,0.97-0.74,1.06-1.35c0.18-1.25-0.49-2.47-0.19-3.76c0.07-0.3-0.47-0.58-0.91-0.62
		c-0.52-0.05-1.03,0.05-1.54,0.08c-0.49-0.03-0.99-0.06-1.09-0.68c-0.1-0.59,0.49-0.62,0.85-0.92c0.08-0.03-0.18-0.12-0.07,0
		C14.13,11.7,12.65,11.69,11.97,11.38z"/>
	<path class="st44" d="M11.97,11.38c0.63,0,1.26,0,1.92,0c-0.01,0.51-0.78,0.42-0.67,0.98c0.12,0.59,0.76,0.07,0.94,0.48
		c0.39,0.41,0.26,0.88,0.17,1.36c-0.19,0.94-0.33,1.88-0.35,2.85c-0.02,0.86,0.15,1.56,0.89,2.05c0,0.63-0.67,0.89-0.75,1.54
		c-0.17,1.34,0.48,2.13,1.48,2.78c-0.72,0.44-1.42,0.19-2.12-0.05c-0.61-0.62-1.2-0.63-1.95-0.15c-1.02,0.65-2.22,0.38-3.35,0.41
		c-0.08-0.03-0.12-0.07-0.11-0.12c0.01-0.06,0.03-0.09,0.05-0.09c0.72,0,1.43,0,2.21,0c-1.18-1.42-0.88-2.86-0.26-4.3
		c0.99-0.75,1.83-1.59,1.85-2.95c-0.03-0.53,0.13-1.08-0.14-1.61c-0.6,0.16-0.39,0.67-0.55,0.99c-0.04,0.15-0.08,0.3-0.13,0.45
		c-0.12,0.33-0.23,0.76-0.66,0.67c-0.43-0.09-0.43-0.56-0.34-0.88c0.18-0.65-0.01-1.13-0.5-1.54c0-0.33-0.17-0.55-0.47-0.68
		c-0.49-0.49-0.25-1.18-0.49-1.74c0.22-0.23,0.61-0.28,0.72-0.65c0.16-0.02,0.33-0.03,0.49-0.05
		C10.54,11.35,11.21,11.75,11.97,11.38z"/>
	<path class="st45" d="M21.65,10.91c-0.27,0.39-0.54,0.77-0.81,1.16c-0.38,0.55-0.78,0.15-1.13-0.02c-0.42-0.2-0.25-0.51-0.03-0.77
		c0.5-0.59,0.71-1.41,1.43-1.83C21.75,9.76,22.29,10.12,21.65,10.91z"/>
	<path class="st46" d="M8.13,23.41c0.02,0.07,0.04,0.14,0.06,0.21c-0.04,0.01-0.08,0-0.11,0.02c-0.06,0.04-0.11,0.09-0.16,0.13
		c0.25,0.08,0.5,0.14,0.74,0.23c0.55,0.21,0.84,0.58,0.63,1.19c-0.29,0.84-0.59,1.68-0.89,2.52c-1.84-0.68-3.56-1.58-5.05-2.89
		c-0.42-1.24-0.47-2.52-0.42-3.81c1.27,1.06,3,1.16,4.32,2.11C7.49,23.31,7.83,23.32,8.13,23.41z"/>
	<path class="st47" d="M8.64,11.81c1.02,0.34,0.2,1.2,0.49,1.74c-0.21,0.72-0.76,0.81-1.4,0.77c-0.25-0.01-0.49,0.11-0.47,0.41
		c0.02,0.29,0.28,0.19,0.46,0.24c0.29,0.08,0.88-0.22,0.78,0.35c-0.08,0.48,0.07,1.36-0.66,1.37c-1.16,0.01-1.28,0.85-1.62,1.59
		c-0.19,0.41-0.25,0.95-0.89,0.97c-1.16,0.03-1.37-0.28-0.96-1.4c0.55-1.49,1.18-2.96,1.45-4.54c0.1-0.56,0.34-0.93,0.96-1.04
		C7.42,12.18,8.03,11.98,8.64,11.81z"/>
	<path class="st48" d="M9.6,14.24c0.74,0.06,1.03,0.42,0.85,1.17c-0.09,0.35-0.25,0.73,0.03,1.1c0.53-0.21,0.24-0.8,0.53-1.09
		c0.28,0.18,0.35,0.47,0.4,0.77c-0.05,0.61-0.34,1-0.99,0.91C9.73,17,9.72,16.47,9.76,15.93c-0.07,0.76-0.5,1.83,0.42,2.11
		c1,0.31,0.95-0.92,1.28-1.53c0.11-0.2,0.12-0.47,0.36-0.6c0.23-0.05,0.3,0.1,0.37,0.27c-0.22,1.33-0.43,2.66-2.12,2.92
		c-0.82-0.08-1.14-0.64-1.18-1.36C8.84,16.53,8.89,15.31,9.6,14.24z"/>
	<path class="st49" d="M21.96,18.77c-0.87,0.09-1.34,0.01-1.31-0.75c0.02-0.38-0.23-0.46-0.54-0.46c-0.31,0-0.39,0.19-0.42,0.46
		c-0.16,1.4-1.22,0.63-1.74,0.55c-0.83-0.12-0.17-0.76-0.06-1.11c0.35-1.14,0.85-2.24,1.03-3.43c0.05-0.35-0.02-0.77,0.52-0.75
		c0.46,0.01,1-0.19,1.28,0.37c0.73,1.47,1.33,2.98,1.68,4.59C22.56,18.95,22.03,18.76,21.96,18.77z"/>
	<path class="st50" d="M14.88,19.1c-1.05-0.01-1.33-0.51-1.3-1.56c0.05-1.59,0.51-3.11,0.58-4.69c0.56-0.32,1.18-0.24,1.76-0.19
		c0.72,0.07,1.3,0.57,1.07,1.28c-0.28,0.9-0.05,1.63,0.16,2.48C17.53,17.86,16.56,18.89,14.88,19.1z"/>
	<path class="st51" d="M11.26,16.19c-0.28-0.19-0.18-0.51-0.25-0.77c0.01-0.27-0.02-0.56,0.03-0.82c0.09-0.44,0.47-0.48,0.84-0.48
		c0.46,0,0.47,0.35,0.45,0.67c-0.03,0.47-0.09,0.94-0.13,1.41c-0.07-0.08-0.14-0.17-0.22-0.25c-0.22-0.11-0.14-0.42-0.36-0.54
		C11.51,15.66,11.56,16,11.26,16.19z"/>
	<path class="st52" d="M20.17,11.7c-0.02-0.68,0.36-1.06,0.99-1.5C21.03,11,20.63,11.38,20.17,11.7z"/>
	<path class="st53" d="M7.89,12.41c0.43-0.06,0.71,0,0.72,0.45c0.02,0.42-0.1,0.74-0.58,0.69c-0.78-0.08-1.04,0.37-1.22,1.01
		c-0.16,0.59-0.08,0.93,0.63,0.92c0.2,0,0.54-0.12,0.52,0.26C7.96,16,7.76,16.23,7.49,16.17c-1.16-0.24-1.26,0.58-1.43,1.36
		C6,17.8,5.88,18.06,5.77,18.32c-0.14,0.31-0.35,0.61-0.72,0.44c-0.45-0.19-0.15-0.54-0.06-0.81c0.54-1.54,1.16-3.05,1.54-4.64
		C6.71,12.59,7.44,12.63,7.89,12.41z"/>
	<path class="st54" d="M11.26,16.19c0.01-0.08,0.01-0.16,0.03-0.24c0.13-0.45-0.25-1.27,0.45-1.26c0.48,0.01,0.14,0.81,0.24,1.24
		c-0.25,0.66-0.45,1.35-0.76,1.98c-0.21,0.44-0.59,0.8-1.15,0.63c-0.53-0.16-0.7-0.57-0.72-1.11c-0.02-0.88,0.13-1.71,0.49-2.72
		c0.34,0.49,0.2,0.84,0.24,1.16c0.04,0.35-0.35,0.83,0.26,1C10.92,17.05,11.1,16.62,11.26,16.19z"/>
	<path class="st55" d="M21.94,18.26c-0.69-0.07-0.62-0.44-0.71-0.66c-0.19-0.48-0.5-0.68-1.01-0.66c-0.5,0.02-0.85,0.22-0.97,0.71
		c-0.08,0.31-0.04,0.64-0.55,0.5c-0.57-0.15-0.25-0.5-0.18-0.74c0.29-1.03,0.63-2.05,0.91-3.08c0.13-0.46,0.51-0.72,0.71-0.32
		C20.8,15.34,21.32,16.75,21.94,18.26z"/>
	<path class="st56" d="M14.92,18.36c-0.59,0.08-0.84,0-0.82-0.67c0.04-1.24,0.15-2.47,0.37-3.68c0.06-0.34,0.06-0.89,0.63-0.87
		c0.47,0.01,1,0.04,1.31,0.45c0.27,0.36,0.18,0.78-0.15,1.09c-0.35,0.33-0.3,0.58,0.04,0.88c0.59,0.52,0.69,1.2,0.32,1.84
		C16.25,18.02,15.7,18.53,14.92,18.36z"/>
	<path class="st57" d="M14.68,16.98c-0.03-0.36,0.04-0.71,0.44-0.69c0.43,0.02,0.68,0.36,0.72,0.79c0.05,0.51-0.34,0.72-0.73,0.75
		C14.39,17.87,14.95,17.19,14.68,16.98z"/>
	<path class="st58" d="M15.35,14.69c-0.3,0.04-0.41-0.11-0.44-0.33c-0.03-0.25,0.01-0.51,0.33-0.52c0.23-0.01,0.34,0.17,0.34,0.4
		C15.59,14.46,15.55,14.64,15.35,14.69z"/>
</g>
</svg>
