<?xml version="1.0" encoding="utf-8"?>
<!-- Generator: Adobe Illustrator 23.0.2, SVG Export Plug-In . SVG Version: 6.00 Build 0)  -->
<svg version="1.1" id="Camada_1" xmlns="http://www.w3.org/2000/svg" xmlns:xlink="http://www.w3.org/1999/xlink" x="0px" y="0px"
	 viewBox="0 0 31.34 35.3" style="enable-background:new 0 0 31.34 35.3;" xml:space="preserve">
<style type="text/css">
	.st0{fill:#FEFEFE;}
	.st1{fill:#000100;}
	.st2{fill:#2D411F;}
	.st3{fill:#283C1C;}
	.st4{fill:#2B3F1D;}
	.st5{fill:#243519;}
	.st6{fill:#452311;}
	.st7{fill:#0E2309;}
	.st8{fill:#273A1B;}
	.st9{fill:#26391A;}
	.st10{fill:#243518;}
	.st11{fill:#432110;}
	.st12{fill:#24321A;}
	.st13{fill:#A8BB78;}
	.st14{fill:#4A602B;}
	.st15{fill:#748F33;}
	.st16{fill:#B8CB83;}
	.st17{fill:#A7BA77;}
	.st18{fill:#40170B;}
	.st19{fill:#667E2E;}
	.st20{fill:#2D401F;}
	.st21{fill:#A7BE79;}
	.st22{fill:#4C632C;}
	.st23{fill:#7D9A35;}
	.st24{fill:#7D9935;}
	.st25{fill:#4A2713;}
	.st26{fill:#A4BB78;}
	.st27{fill:#607B46;}
	.st28{fill:#A4C27C;}
	.st29{fill:#ABC07B;}
	.st30{fill:#263B1A;}
	.st31{fill:#B3C780;}
	.st32{fill:#70A73B;}
	.st33{fill:#73AB3C;}
	.st34{fill:#6CA239;}
	.st35{fill:#542F19;}
	.st36{fill:#B1C47E;}
	.st37{fill:#A8BC78;}
	.st38{fill:#A7C17C;}
	.st39{fill:#B3D287;}
	.st40{fill:#647F49;}
	.st41{fill:#2E421F;}
	.st42{fill:#211209;}
	.st43{fill:#BA4249;}
	.st44{fill:#A8C47B;}
	.st45{fill:#BB3745;}
	.st46{fill:#A8BD78;}
	.st47{fill:#A8C17A;}
	.st48{fill:#728C33;}
	.st49{fill:#384C23;}
	.st50{fill:#A7B976;}
	.st51{fill:#5B732E;}
	.st52{fill:#455A2B;}
	.st53{fill:#BB3A47;}
	.st54{fill:#BC2F43;}
	.st55{fill:#485E2B;}
	.st56{fill:#1F331B;}
	.st57{fill:#6A8431;}
	.st58{fill:#7A9735;}
	.st59{fill:#354A21;}
	.st60{fill:#A8C87F;}
	.st61{fill:#AECE84;}
	.st62{fill:#BB3D48;}
	.st63{fill:#A0D382;}
	.st64{fill:#ABBD7C;}
	.st65{fill:#F4F8F0;}
	.st66{fill:#6AA537;}
	.st67{fill:#69A336;}
	.st68{fill:#68A433;}
	.st69{fill:#E4EDD9;}
	.st70{fill:#69A235;}
	.st71{fill:#68A435;}
	.st72{fill:#A7C57C;}
	.st73{fill:#B1BF81;}
	.st74{fill:#B13337;}
	.st75{fill:#BA4149;}
	.st76{fill:#B02C35;}
	.st77{fill:#A9B976;}
	.st78{fill:#A7E589;}
	.st79{fill:#A7DC85;}
	.st80{fill:#B12633;}
	.st81{fill:#AE8159;}
	.st82{fill:#A6EB8C;}
</style>
<g>
	<path class="st0" d="M0,22.37c0.07-4.07,2-7.21,4.98-9.8c2.15-1.86,4.63-3.11,7.4-3.74c0.77-0.17,1.08-0.32,0.74-1.26
		c-0.48-1.34-0.76-2.77-0.98-4.18c-0.28-1.76,0.36-2.87,1.65-3.3c0.59-0.2,1.12-0.07,1.62,0.14c0.73,0.31,1.5,0.62,2.12,1.1
		c0.97,0.76,1.83,0.95,3.08,0.49c1.88-0.68,3.74,0.64,3.99,2.64c0.09,0.7,0.23,0.88,0.93,0.63c0.56-0.19,1.14-0.3,1.69-0.55
		c2.05-0.94,4.05,0.29,4.12,2.56c0.11,3.45-1.96,5.61-4.6,7.3c-0.65,0.41-0.77,0.59-0.46,1.29c1.51,3.4,1.09,6.87,0.17,10.3
		c-1.18,4.37-4.1,7.16-8.3,8.72c-2.65,0.98-5.2,0.53-7.8-0.25c-5.01-1.5-7.97-5.02-9.91-9.64C0.1,24.05,0.02,23.23,0,22.37z"/>
	<path class="st1" d="M15.38,9.44c-1.47-1.86-1.47-4.01-2.04-5.99c-0.1-0.33-0.07-0.72-0.03-1.07c0.11-1.08,0.74-1.44,1.75-0.99
		c1.54,0.68,3.01,1.47,4.12,2.79c1.08-1.33,1.78-1.59,3.07-1.09c1.92,0.75,0.93,2.45,1.19,3.83c1.41-0.65,3-0.63,4.41-1.35
		c1.1-0.55,2.18,0.21,2.28,1.45c0.23,2.69-2.38,6.16-5.06,6.73c-0.31,0.07-0.62,0.13-1.02,0.21c0.49,0.97,1.12,1.87,1.41,2.86
		c0.9,3.02,0.66,6.07-0.21,9.06c-1.15,3.94-3.84,6.39-7.63,7.77c-2.24,0.81-4.4,0.42-6.6-0.17c-4.66-1.26-7.57-4.42-9.34-8.71
		c-1.29-3.14-0.26-6.05,1.61-8.63C6.21,12.14,10.32,10.12,15.38,9.44z"/>
	<path class="st2" d="M11.65,11.5c1.98-0.63,3.99-1.02,6.29-0.92c-2.4-1.86-2.79-4.53-3.38-7.1c-0.05-0.22-0.05-0.53,0.07-0.68
		c0.24-0.3,0.5,0.01,0.74,0.11c2.85,1.2,4.39,3.21,3.97,6.43c0.34,0.58-0.08,1.05-0.19,1.57c-0.07,0.18-0.17,0.34-0.33,0.46
		c-0.3,0.16-0.62,0.15-0.94,0.09c-0.86-0.2-1.72-0.2-2.58,0c-0.55,0.09-1.09,0.27-1.64,0.35c-0.68,0.05-1.31,0.5-2.02,0.2
		C11.51,11.84,11.5,11.67,11.65,11.5z"/>
	<path class="st3" d="M21.49,9.11c1.38-0.84,2.9-1.31,4.46-1.68C26.49,7.3,27.04,7.19,27.56,7c1.32-0.49,1.53-0.34,1.36,1.11
		c-0.18,1.57-2.4,4.12-3.93,4.49c-0.71,0.17-1.42,0.18-2.1-0.16c-0.39-0.19-0.8-0.42-1.19,0.01c-0.17,0.2-0.39,0.21-0.62,0.17
		c-0.27-0.06-0.53-0.15-0.79-0.27c-0.33-0.2-0.7-0.33-0.99-0.6c-0.04-0.11-0.04-0.22,0.02-0.33c0.23-0.21,0.51-0.29,0.79-0.37
		c0.12-0.03,0.24-0.04,0.35-0.03c0.84,0.22,1.68,0.44,2.55,0.57c1.26,0.18,2.46,0.11,3.4-0.91c0.22-0.24,0.45-0.48,0.65-0.73
		c0.25-0.33,0.49-0.67,0.68-1.04c-0.03-0.34,0.68-0.83-0.21-0.98c-1.68,0.37-3.36,0.74-4.9,1.54c-0.35,0.18-0.72,0.38-1.14,0.15
		C21.35,9.45,21.36,9.27,21.49,9.11z"/>
	<path class="st4" d="M8.27,30.94c-2.88-1.31-4.17-3.96-5.4-6.58c-1.04-2.22-0.17-5.98,1.57-7.63c0.18,0.06,0.29,0.17,0.34,0.35
		c-0.06,0.75-0.63,1.3-0.8,2.01c-0.15,0.31-0.22,0.65-0.31,0.98c-0.16,1.01-0.15,2.02,0,3.03c0.14,0.85,0.41,1.64,0.94,2.34
		c0.09,0.14,0.17,0.29,0.24,0.44c0.15,0.83,0.99,1.27,1.2,2.07c0.15,0.91,0.74,1.39,1.56,1.65c0.42,0.12,0.79,0.31,0.98,0.74
		C8.5,30.54,8.84,30.98,8.27,30.94z"/>
	<path class="st5" d="M24.61,22.79c-0.02,3.98-2.74,7.93-6.25,9.1c-0.12-0.24,0.01-0.42,0.14-0.6c0.31-0.3,0.69-0.51,1.03-0.78
		c0.86-0.59,1.53-1.37,2.24-2.13c0.3-0.4,0.5-0.86,0.77-1.28c0.52-0.82,0.75-1.74,0.89-2.69c0.45-1.09,0.33-2.23,0.36-3.36
		c0.01-0.57-0.14-1.19,0.32-1.68c0.31-0.01,0.45,0.2,0.45,0.45C24.56,20.82,24.72,21.8,24.61,22.79z"/>
	<path class="st6" d="M18.85,10.77c0.16-0.48,0.32-0.95,0.49-1.43c0.95-1.22,0.8-2.77,1.16-4.16c0.14-0.55,0.04-1.18,0.88-1.1
		c0.81,0.07,0.86,0.65,0.85,1.3c-0.01,1.14-0.3,2.2-0.75,3.23c-0.15,0.14-0.32,0.14-0.49,0.05c-0.33-1.05,0.43-1.97,0.35-3.24
		c-0.41,1.9-0.64,3.62-1.55,5.12c-0.16,0.19-0.36,0.32-0.61,0.36C19.05,10.91,18.94,10.86,18.85,10.77z"/>
	<path class="st7" d="M4.7,17.02c-0.09-0.1-0.17-0.19-0.26-0.29c1.77-2.63,4.18-4.35,7.21-5.23c0,0.15-0.01,0.31-0.01,0.46
		c-0.13,0.45-0.55,0.49-0.88,0.66c-0.25,0.11-0.49,0.23-0.74,0.35c-1.74,0.86-3.05,2.26-4.45,3.54C5.32,16.75,5.15,17.13,4.7,17.02z
		"/>
	<path class="st8" d="M21.06,12.45c0.21,0,0.42,0,0.63,0c1.11,1.68,2.07,3.44,2.89,5.28c-0.34,0.26-0.03,0.97-0.69,1
		c-0.09-0.07-0.15-0.16-0.2-0.27c-0.16-0.99-0.66-1.85-1.14-2.71c-0.2-0.31-0.33-0.67-0.5-0.99c-0.11-0.18-0.22-0.36-0.32-0.54
		c-0.19-0.38-0.44-0.73-0.71-1.05c-0.06-0.09-0.11-0.19-0.14-0.3C20.85,12.69,20.88,12.54,21.06,12.45z"/>
	<path class="st9" d="M18.6,31.42c-0.08,0.16-0.16,0.32-0.24,0.48c-1.8,1.23-3.76,1.09-5.76,0.71c0.26-0.89,1.12-0.37,1.62-0.68
		c0.25-0.06,0.5-0.09,0.76-0.1c1.15,0.17,2.18-0.39,3.28-0.56C18.4,31.27,18.51,31.33,18.6,31.42z"/>
	<path class="st10" d="M23.95,18.7c0.33-0.24-0.02-0.93,0.63-0.96c0.4,1.68,0.42,3.37,0.04,5.06c-0.41-1.09-0.03-2.29-0.45-3.38
		C23.8,19.26,23.63,19.05,23.95,18.7z"/>
	<path class="st9" d="M8.27,30.94c0.08-0.16,0.16-0.32,0.25-0.49C9.9,30.54,11,31.35,12.2,31.9c0.03,0.25,0.11,0.54-0.32,0.48
		C10.6,32.08,9.43,31.54,8.27,30.94z"/>
	<path class="st11" d="M21,8.61c0.16,0,0.32,0,0.48,0c0,0.16,0.01,0.33,0.01,0.49c0,0.16-0.01,0.31-0.01,0.47
		c0.16,0.56-0.34,0.76-0.6,1.08c-0.09,0.07-0.19,0.13-0.29,0.17c-0.06,0-0.11,0.01-0.17,0.01c-0.18-0.06-0.27-0.2-0.33-0.37
		c-0.05-0.34-0.07-0.67,0.2-0.93c0.34-0.1,0.44-0.39,0.52-0.68C20.85,8.76,20.91,8.68,21,8.61z"/>
	<path class="st12" d="M11.88,32.38c0.19-0.1,0.24-0.27,0.25-0.47c0.77-0.33,1.48-0.22,2.16,0.24c-0.46,0.5-1.22-0.08-1.67,0.45
		C12.34,32.61,12.06,32.64,11.88,32.38z"/>
	<path class="st13" d="M10.64,12.44c0.33-0.16,0.66-0.32,1-0.47c0.65-0.14,1.29-0.29,1.94-0.43c0.36,0.25,0.79-0.11,1.15,0.13
		c0.13,0.64-0.36,0.71-0.76,0.7c-0.44-0.01,0,0.22-0.12,0.27c-0.55,0.56-1.25,0.71-1.99,0.75c-0.61-0.07-1.05,0.17-1.34,0.7
		c-0.55,0.58-1.13,1.12-1.82,1.53c-0.78,0.35-1.4,0.91-1.94,1.56c-0.55,0.35-0.54,1.17-1.2,1.44c-0.68,0.24-0.66,0.94-0.96,1.44
		c-0.28,0.57-0.32,1.21-0.47,1.82c-0.27,0.46-0.24,1.06-0.68,1.45c-0.37-1.16-0.34-2.32,0-3.49c0.31,0.39,0.06,0.84,0.18,1.26
		c-0.14-0.73,0.09-1.43,0.12-2.14c0.14-0.73,0.64-1.28,0.94-1.92c1.64-1.57,3.11-3.36,5.28-4.3C10.25,12.75,10.54,12.81,10.64,12.44
		z"/>
	<path class="st14" d="M17.67,7.89c0.23,0.75,0.41,1.52,0.83,2.24c-1.46-0.29-2.8-3-3.01-4.73C15.47,5.2,15.48,5,15.45,4.8
		c-0.06-0.43-0.58-1.04-0.12-1.25c0.44-0.2,1.02,0.24,1.35,0.72c0.19,0.68,0.07,1.43,0.52,2.04c0.05,0.09,0.08,0.19,0.09,0.3
		c0.11,0.25-0.23,0.67,0.3,0.76C17.78,7.52,17.82,7.69,17.67,7.89z"/>
	<path class="st15" d="M17.14,6.43c-0.76-0.59-0.82-1.32-0.45-2.15c1.16,0.92,2.04,1.99,1.94,3.58c0.05,0.36,0.38,0.78-0.24,0.98
		c-0.11-0.34-0.18-0.7-0.46-0.96c-0.23-0.24-0.2-0.61-0.42-0.86c-0.04-0.09-0.06-0.19-0.08-0.29C17.35,6.6,17.54,6.24,17.14,6.43z"
		/>
	<path class="st16" d="M14.76,11.73c-0.4-0.05-0.84,0.15-1.18-0.2c0.56,0.05,1.03-0.44,1.61-0.3c0.92-0.15,1.83-0.15,2.75,0
		c0.29,0.02,0.59,0.03,0.88,0.05c0.22-0.03,0.4,0.02,0.53,0.22c0.02,0.07,0.03,0.14,0.06,0.21c-0.19,0.25-0.46,0.27-0.75,0.26
		c-1.04-0.25-2.1-0.09-3.14-0.14C15.26,11.83,15.01,11.79,14.76,11.73z"/>
	<path class="st17" d="M17.94,11.23c-0.91,0-1.83,0-2.75,0C16.11,11.06,17.02,10.9,17.94,11.23z"/>
	<path class="st18" d="M19.35,11.49c-0.18-0.06-0.44,0.07-0.53-0.21c0.01-0.17,0.02-0.33,0.03-0.5c0.08,0,0.16,0,0.24,0
		c0.33,0.15,0.78,0.07,0.97,0.48C19.89,11.54,19.61,11.48,19.35,11.49z"/>
	<path class="st19" d="M18.38,8.84c0.34-0.26,0.17-0.65,0.24-0.98c0.3,0.34,0.18,0.76,0.21,1.14c0.01,0.15,0.1,0.47-0.25,0.35
		C18.37,9.29,18.39,9.04,18.38,8.84z"/>
	<path class="st20" d="M17.64,6.88c0.32,0.27,0.24,0.65,0.27,1c-0.08,0-0.17,0.01-0.25,0.01c-0.07-0.17-0.15-0.33-0.22-0.5
		C17.19,7.1,17.28,6.94,17.64,6.88z"/>
	<path class="st14" d="M26.76,10.77c-1.67,1.93-3.71,1.15-5.69,0.75c-0.27-0.05-0.52-0.18-0.78-0.27c-0.15-0.27,0.05-0.36,0.23-0.47
		l0.01,0.01c0.71-0.11,1.35-0.57,2.11-0.4c0.16,0.05,0.31,0.13,0.47,0.2c0.88,0.25,1.77,0.14,2.66,0.07
		c0.11-0.04,0.22-0.06,0.34-0.08C26.36,10.55,26.58,10.58,26.76,10.77z"/>
	<path class="st21" d="M14.76,11.73c0.11-0.19,0.29-0.23,0.48-0.23c1.1,0.33,2.26-0.09,3.36,0.23c0.27-0.01,0.54-0.02,0.81-0.03
		c0.46-0.13,0.68,0.16,0.88,0.49c0.24,0.25,0.48,0.5,0.74,0.72l-0.01,0c0.1,0.15,0.13,0.31,0.09,0.49c-0.12,0.23-0.3,0.34-0.55,0.36
		c-0.23-0.02-0.44-0.12-0.63-0.25c-0.52-0.49-0.97-1.1-1.82-0.97c-0.63,0.01-1.26,0-1.89,0.02c-0.78-0.13-1.58,0.4-2.34-0.07
		c-0.06-0.09-0.53-0.04-0.19-0.23C14.02,12.08,14.48,12.09,14.76,11.73z"/>
	<path class="st22" d="M20.75,10.54c0.24-0.32,0.49-0.64,0.73-0.96c1.72-0.73,3.44-1.48,5.3-1.81c0.31-0.06,0.63-0.08,0.94-0.12
		c0.14,0.24-0.01,0.42-0.15,0.59c-0.17,0.16-0.37,0.25-0.59,0.29c-1.15,0.33-2.33,0.54-3.5,0.82c-0.16,0.04-0.22,0.07-0.06,0.02
		c0.02,0.08,0.06,0.14,0.14,0.19c0.11,0.13,0.18,0.27,0.12,0.45c-0.2,0.27-0.49,0.32-0.8,0.31C22.14,10.08,21.5,10.88,20.75,10.54z"
		/>
	<path class="st15" d="M26.99,8.35c0.15-0.08,0.31-0.15,0.46-0.23c1.2-0.2,0.3,0.64,0.48,0.95c-0.22,0.33-0.45,0.66-0.67,0.99
		c-0.25,0-0.5,0.02-0.74-0.05c-0.1-0.03-0.18-0.08-0.26-0.14c-0.05-0.09-0.07-0.19-0.05-0.29c0.16-0.27,0.05-0.6,0.21-0.86
		C26.55,8.51,26.66,8.26,26.99,8.35z"/>
	<path class="st23" d="M26.57,9.81c0.26,0.02,0.53-0.02,0.68,0.26c-0.17,0.23-0.33,0.47-0.5,0.7c-0.24-0.01-0.48-0.01-0.72-0.02
		c-0.74-0.11-1.56,0.36-2.21-0.34c0.03-0.13,0.11-0.23,0.23-0.29c0.72-0.24,1.46-0.11,2.2-0.13C26.38,9.95,26.48,9.89,26.57,9.81z"
		/>
	<path class="st24" d="M27.93,9.08c-0.4-0.2,0.36-0.97-0.48-0.95c0.09-0.16,0.18-0.31,0.27-0.47c0.2-0.05,0.52-0.47,0.54,0.09
		C28.28,8.19,28.29,8.7,27.93,9.08z"/>
	<path class="st25" d="M20.52,10.77c-0.08,0.16-0.15,0.32-0.23,0.47c-0.08,0.01-0.16,0.01-0.23,0.01c-0.38-0.05-0.73-0.16-0.97-0.48
		c0.16-0.08,0.32-0.16,0.48-0.24c0.24,0.04,0.48-0.14,0.72,0C20.36,10.61,20.44,10.69,20.52,10.77z"/>
	<path class="st26" d="M21.03,12.91c-0.49,0.01-0.73-0.24-0.74-0.72c0.27,0.05,0.6-0.08,0.77,0.26
		C21.05,12.61,21.04,12.76,21.03,12.91z"/>
	<path class="st27" d="M14.28,32.16c-0.72-0.08-1.46,0.03-2.16-0.24c-1.34-0.14-2.43-0.92-3.61-1.46c-0.32-0.23-0.65-0.46-0.97-0.7
		c-0.81-0.32-1.38-0.88-1.69-1.69c-0.23-0.81-1.28-1.17-1.19-2.16c0.39-0.19,0.66,0.08,0.95,0.25c0.84,0.53,1.77,0.77,2.74,0.89
		c0.18,0.02,0.36,0.05,0.54,0.1c0.86,0.28,1.8-0.1,2.65,0.3c0.61,1.19,1.63,1.75,2.9,2.04c1.24,0.28,2.46,0.62,3.74,0.72
		c0.5,0.04,1.04,0.09,1.41,0.53c-0.24,0.36-0.66,0.48-1,0.69c-0.08-0.01-0.17-0.01-0.25-0.02c-1.15,0.11-2.2,0.63-3.35,0.73
		C14.77,32.14,14.52,32.15,14.28,32.16z"/>
	<path class="st28" d="M11.63,27.6c-0.96-0.18-1.96,0.17-2.9-0.25c0.7-0.28,1.43-0.05,2.11-0.14c-0.68,0.01-1.39,0-2.1,0
		c-1.16-0.05-2.2-0.57-3.3-0.84c-0.26-0.15-0.51-0.31-0.77-0.46c-0.06-0.08-0.11-0.17-0.17-0.25c0.11-0.21,0.02-0.53,0.32-0.65
		c0.37-0.14,0.75-0.24,1.14-0.28c0.12,0,0.24,0.01,0.36,0.04c1.76,0.92,3.67,1.09,5.6,1.13c0.67,0.25,1.3,0.1,1.9-0.21
		c0.31-0.24,0.58-0.53,0.95-0.69c0.39-0.14,0.78-0.31,1.21-0.19c0.52,0.37,0.13,0.71-0.08,1c-0.49,0.69-1.04,1.32-1.93,1.51
		C13.22,27.45,12.46,27.83,11.63,27.6z"/>
	<path class="st29" d="M4.68,25.17c0.07,0.21,0.27,0.46-0.18,0.48C3.89,25,3.44,24.26,3.45,23.32c0.04-0.55,0.01-1.11,0.51-1.5
		c0.45,0.54,0.08,1.21,0.3,1.78C4.27,24.16,4.72,24.6,4.68,25.17z"/>
	<path class="st30" d="M5.86,28.07c0.56,0.56,1.13,1.13,1.69,1.69C6.7,29.72,5.9,28.91,5.86,28.07z"/>
	<path class="st31" d="M3.76,18.95c0.3,0.81-0.21,1.58-0.22,2.38c-0.03-0.5-0.06-1-0.08-1.5C3.44,19.5,3.57,19.21,3.76,18.95z"/>
	<path class="st32" d="M11.63,27.6c0.78-0.33,1.61-0.41,2.43-0.54c0.81-0.03,1.39-0.7,2.18-0.8c0.39-0.02,0.76-0.07,0.84-0.56
		c0.5-0.66,1.1-1.2,1.89-1.5c0.81-0.23,1.23-0.9,1.67-1.53c0.7-1.05,1.76-1.93,1.58-3.39c-0.12-0.58,0.18-1.12,0.15-1.7
		c0.01-0.39,0.02-0.79-0.08-1.17c-0.02-0.11-0.03-0.23-0.02-0.34c0.05-0.24,0.16-0.43,0.42-0.51c0.54,0.91,1.22,1.75,1.21,2.89
		c-0.2,0.2-0.15,0.44-0.11,0.67c0.37,1.87,0.14,3.72-0.17,5.57c0.07,1.02-0.38,1.86-0.94,2.66c-0.3-0.03-0.48-0.37-0.81-0.3
		c-0.25,0.04-0.5,0.06-0.75-0.02c-0.1-0.04-0.18-0.09-0.27-0.15c-0.29-0.22-0.4-0.09-0.41,0.22c0.15,0.5-0.06,1.25,0.86,1.19
		c0.15-0.07,0.29-0.12,0.46-0.11c0.16,0.06,0.3,0.12,0.19,0.33c-0.6,0.93-1.32,1.73-2.34,2.21c-1.96-0.2-3.89-0.55-5.79-1.04
		c-0.77-0.2-1.41-0.7-2.05-1.17C11.41,28.26,11.4,27.95,11.63,27.6z"/>
	<path class="st33" d="M23.63,24.69c-0.5-0.48,0.05-0.95,0.04-1.44c-0.01-1.2,0.36-2.38,0-3.6c-0.11-0.36-0.18-0.87,0.23-1.21
		c0.01,0.08,0.03,0.17,0.04,0.25c-0.15,0.31,0.09,0.49,0.22,0.72c-0.03,1.35-0.04,2.7-0.1,4.05C24.04,23.89,23.91,24.33,23.63,24.69
		z"/>
	<path class="st34" d="M21.95,28.51c-0.11-0.08-0.22-0.17-0.33-0.25c-0.14-0.5,0-0.94,0.31-1.34c0.51-0.32,0.56,0.19,0.76,0.42
		C22.49,27.77,22.34,28.22,21.95,28.51z"/>
	<path class="st35" d="M20.28,10.53c-0.24,0.19-0.48,0.62-0.72,0c0.74-1.63,1.16-3.34,1.44-5.1c0.04-0.27,0-0.63,0.4-0.58
		c0.38,0.04,0.36,0.41,0.31,0.66C21.5,6.55,21.24,7.58,21,8.61c0,0.08,0,0.15,0,0.23c-0.21,0.22-0.21,0.57-0.5,0.73
		C20.18,9.83,20.32,10.2,20.28,10.53z"/>
	<path class="st36" d="M10.64,12.44c0.12,0.04,0.39,0.07,0.29,0.18c-0.25,0.26-0.6,0.5-0.96,0.1C10.2,12.63,10.42,12.53,10.64,12.44
		z"/>
	<path class="st37" d="M22.69,15.55c-0.08,0.17-0.16,0.33-0.25,0.5c0,2.02,0.04,4.05-1.32,5.76c-0.05,0.1-0.11,0.19-0.18,0.28
		c-0.27,0.31-0.58,0.59-0.55,1.05c-0.36,0.53-0.78,0.99-1.36,1.29c-0.75,0.32-1.31,0.89-1.87,1.46c-0.18,0.25-0.3,0.59-0.71,0.49
		c-0.77,0.32-1.5,0.78-2.39,0.67c0.88-0.49,1.72-1.01,1.87-2.14c0.49-1.04,1.54-1.54,2.24-2.39c0.48-0.58,1.03-1.1,1.37-1.79
		c0.23-0.45,0.48-0.88,0.87-1.21c0.59-0.41,0.53-0.97,0.38-1.56c0.33-1.46,0.03-2.89-0.23-4.32c0.15-0.08,0.3-0.16,0.45-0.24
		c0.55-0.12,0.47,0.49,0.77,0.67c0.14,0.18,0.08,0.53,0.44,0.53C22.37,14.93,22.53,15.24,22.69,15.55z"/>
	<path class="st38" d="M21.72,14.13c-0.24-0.24-0.48-0.48-0.72-0.72c0.01-0.17,0.01-0.34,0.02-0.5c0.5,0.27,0.76,0.71,0.93,1.23
		C21.87,14.25,21.79,14.25,21.72,14.13z"/>
	<path class="st39" d="M21.72,14.13c0.08,0,0.15,0,0.23,0c0.09,0.16,0.17,0.32,0.26,0.48c-0.04,0.09-0.09,0.19-0.13,0.28
		C21.81,14.71,21.76,14.43,21.72,14.13z"/>
	<path class="st40" d="M15.01,32.13c1.09-0.37,2.14-0.92,3.35-0.73C17.29,31.86,16.21,32.3,15.01,32.13z"/>
	<path class="st41" d="M20.75,10.54c0.74-0.11,1.39-0.6,2.18-0.47c0.08,0.08,0.11,0.18,0.11,0.29c-0.07,0.16-0.14,0.3-0.35,0.18
		c-0.74-0.12-1.37,0.7-2.15,0.25C20.61,10.7,20.68,10.62,20.75,10.54z"/>
	<path class="st42" d="M20.5,9.57c0.04-0.33,0.19-0.59,0.5-0.73C20.94,9.15,21.18,9.67,20.5,9.57z"/>
	<path class="st43" d="M19.77,20.84c-0.91,1.71-2.38,2.89-3.84,4.08c-0.38,0.1-0.76,0.21-1.13,0.31c-2.99,1.2-5.88,0.87-8.71-0.53
		c-0.8-0.22-1.33-0.74-1.61-1.51c-0.31-1,0.08-1.98,0.06-2.97c0.23-0.6,0.26-1.31,0.9-1.7c0.5-0.4,0.5-1.21,1.2-1.44
		c0.56-0.64,1.33-1.04,1.88-1.69c0.65-0.49,1.3-0.98,1.95-1.47c0.33-0.36,0.7-0.63,1.2-0.69c0.77-0.12,1.5-0.39,2.2-0.73
		c0.79-0.04,1.54-0.42,2.34-0.26c0.71,0.17,1.43,0.17,2.14,0c0.89-0.08,1.28,0.56,1.69,1.17c1.63,1.98,0.99,4.08,0.28,6.16
		C20.18,20,19.75,20.32,19.77,20.84z"/>
	<path class="st44" d="M3.97,23.74c0-0.64,0-1.28,0-1.92c-0.02-0.69,0.02-1.36,0.48-1.92c0.08,0.1,0.14,0.21,0.16,0.34
		c0,1.13-0.37,2.26,0.02,3.38C4.48,24.06,4.26,24.13,3.97,23.74z"/>
	<path class="st45" d="M8.52,15.38c-0.4,0.81-1.12,1.28-1.88,1.69C7,16.21,7.77,15.81,8.52,15.38z"/>
	<path class="st46" d="M4.47,20.19c-0.01-0.1-0.02-0.2-0.03-0.3c0.23-0.53,0.13-1.3,0.99-1.38c-0.25,0.54-0.5,1.08-0.76,1.62
		C4.63,20.21,4.56,20.23,4.47,20.19z"/>
	<path class="st47" d="M11.67,13.22c-0.4,0.23-0.8,0.46-1.2,0.69C10.59,13.19,11.06,13.09,11.67,13.22z"/>
	<path class="st48" d="M17.64,6.88c-0.17,0.13-0.23,0.31-0.19,0.52c-0.61-0.05-0.53-0.36-0.27-0.73c0.17-0.11,0.33-0.11,0.47,0.04
		C17.65,6.77,17.65,6.82,17.64,6.88z"/>
	<path class="st49" d="M17.65,6.71c-0.16-0.01-0.31-0.03-0.47-0.04c-0.01-0.08-0.03-0.16-0.04-0.24c0.05-0.18-0.1-0.56,0.22-0.49
		C17.7,6,17.62,6.42,17.65,6.71z"/>
	<path class="st50" d="M18.61,11.73c-1.12-0.12-2.27,0.26-3.36-0.23C16.37,11.61,17.52,11.23,18.61,11.73z"/>
	<path class="st51" d="M22.69,10.54c0.08-0.07,0.16-0.15,0.24-0.22c0.32-0.19,0.65-0.23,0.97,0.01c0.63,0.55,1.51-0.11,2.15,0.43
		c0,0,0,0.03,0,0.03c-1.04,0.17-2.07,0.18-3.11-0.01C22.85,10.7,22.77,10.62,22.69,10.54z"/>
	<path class="st52" d="M22.93,10.78c1.04,0,2.07,0,3.11,0.01C25,11.16,23.96,11.17,22.93,10.78z"/>
	<path class="st53" d="M19.77,20.84c-0.31-0.75,0.37-1.22,0.55-1.83c0.56-1.92,0.8-3.79-0.27-5.62c0.17,0.08,0.34,0.17,0.5,0.25
		c1.01,1.43,0.73,3,0.45,4.56c0.12,0.57-0.11,1.02-0.46,1.44C20.28,20.05,20.03,20.44,19.77,20.84z"/>
	<path class="st54" d="M18.35,12.23c-0.71,0.35-1.43,0.35-2.14,0C16.93,12.23,17.64,12.23,18.35,12.23z"/>
	<path class="st55" d="M26.99,8.35c-0.16,0.17-0.32,0.33-0.48,0.5c-0.56,0.56-1.31,0.65-2.02,0.82c-0.37,0.09-0.74,0.16-1.08-0.09
		c-0.16-0.05-0.52-0.11-0.13-0.27c0.72-0.28,1.4-0.84,2.21-0.67C26.08,8.77,26.41,7.98,26.99,8.35z"/>
	<path class="st56" d="M23.9,10.32c-0.32,0-0.65,0-0.97-0.01c0-0.08,0-0.16,0-0.25c0.26-0.02,0.54,0.03,0.73-0.24
		c0.44-0.28,0.95-0.23,1.44-0.28c0.44-0.09,0.86-0.04,1.23,0.23c0.08,0.01,0.16,0.02,0.24,0.03c-0.02,0.08-0.05,0.16-0.07,0.24
		c-0.77,0.32-1.6-0.06-2.38,0.22C24.05,10.29,23.97,10.3,23.9,10.32z"/>
	<path class="st57" d="M25.05,9.79c-0.46,0.01-0.93,0.03-1.39,0.04c-0.08-0.08-0.16-0.17-0.25-0.25c0.32-0.07,0.65-0.15,0.97-0.22
		c0.21,0.2,0.52,0.02,0.73,0.18C25.18,9.64,25.15,9.73,25.05,9.79z"/>
	<path class="st58" d="M25.12,9.6c-0.26-0.04-0.55,0.03-0.73-0.24c0.71-0.17,1.42-0.34,2.13-0.51c-0.15,0.22,0.35,0.67-0.26,0.74
		C25.88,9.75,25.5,9.73,25.12,9.6z"/>
	<path class="st59" d="M25.12,9.6c0.38,0,0.76-0.01,1.14-0.01c0.02,0.07,0.04,0.13,0.07,0.19c-0.43,0-0.85,0-1.28,0.01
		C25.07,9.72,25.09,9.66,25.12,9.6z"/>
	<path class="st59" d="M24.13,10.27c0.76-0.44,1.59-0.12,2.38-0.22C25.74,10.5,24.92,10.19,24.13,10.27z"/>
	<path class="st60" d="M5.44,26.37c1.11-0.12,2.04,0.54,3.08,0.73c-0.06,0.1-0.13,0.17-0.23,0.22C7.26,27.25,6.3,26.95,5.44,26.37z"
		/>
	<path class="st61" d="M8.29,27.31c0.08-0.07,0.16-0.15,0.23-0.22c0.87,0,1.73,0,2.6,0c0,0.08,0,0.17,0,0.25c-0.8,0-1.59,0-2.39,0
		C8.59,27.34,8.44,27.32,8.29,27.31z"/>
	<path class="st62" d="M6.12,24.45c2.54,1.32,5.16,1.69,7.92,0.76c0.22-0.08,0.51-0.31,0.76,0.01c-0.26,0.23-0.51,0.46-0.77,0.69
		c-0.63,0.04-1.24,0.33-1.89,0.25c-2.09-0.01-4.17-0.09-6.02-1.25C5.98,24.76,5.98,24.61,6.12,24.45z"/>
	<path class="st13" d="M3.97,23.74c0.16,0.02,0.34,0.26,0.49-0.03c0.1-0.07,0.2-0.07,0.3-0.02c0.29,0.49,1.01,0.6,1.15,1.23
		c-0.38,0.23-0.79,0.28-1.22,0.25C4.29,24.77,4.07,24.29,3.97,23.74z"/>
	<path class="st45" d="M5.9,24.93c-0.36-0.44-0.99-0.59-1.24-1.15c-0.12-0.18-0.11-0.36,0.02-0.53c0.4,0.5,0.8,1,1.44,1.2
		c0,0.15,0,0.31,0,0.46c0,0-0.11,0.01-0.11,0.01L5.9,24.93z"/>
	<path class="st63" d="M12.14,26.17c0.61-0.24,1.23-0.39,1.89-0.25C13.42,26.13,12.84,26.61,12.14,26.17z"/>
	<path class="st64" d="M20.78,22.07c-0.04-0.36,0.22-0.57,0.38-0.84c0.72-1.22,1.2-2.49,1.05-3.95c-0.04-0.41-0.17-0.88,0.23-1.23
		c0.01,0.07,0.01,0.15,0.01,0.22c0.26,0.37-0.05,0.85,0.22,1.22c-0.08,0.64-0.16,1.28-0.24,1.92
		C22.15,20.46,22.06,21.63,20.78,22.07z"/>
	<path class="st65" d="M21.93,26.92c0.14,0.5-0.02,0.93-0.31,1.34c-0.05,0.08-0.1,0.17-0.15,0.25c-0.57,0.32-0.84-0.15-0.98-0.5
		c-0.17-0.46-0.04-0.93,0.5-1.16C21.31,26.85,21.63,26.74,21.93,26.92z"/>
	<path class="st66" d="M20.78,22.07c1.06-0.57,1.07-1.8,1.65-2.66c0.56,0.55-0.02,0.96-0.21,1.37c-0.36,0.75-0.69,1.53-1.46,2
		c-0.09,0.08-0.19,0.09-0.28,0.01c-0.07-0.31,0.15-0.5,0.3-0.72L20.78,22.07z"/>
	<path class="st67" d="M21,26.85c-0.34,0.7-0.79,1.42,0.48,1.66c-1,0.28-1.26-0.06-1.14-1.45c0.15-0.32,0.36-0.45,0.68-0.2L21,26.85
		z"/>
	<path class="st68" d="M20.52,22.77c0.08,0,0.16,0,0.24,0c-0.3,0.84-0.83,1.45-1.73,1.66c0.33-0.54,0.97-0.83,1.21-1.45
		C20.22,22.78,20.3,22.69,20.52,22.77z"/>
	<path class="st69" d="M21.01,26.87c-0.23,0.07-0.45,0.13-0.68,0.2c-0.34-0.3-0.39-0.58,0.1-0.76C21,26.09,20.97,26.53,21.01,26.87z
		"/>
	<path class="st70" d="M23.12,17.05c0,0.45,0,0.9,0,1.35c-0.04,0-0.08,0-0.12,0c0-0.44,0-0.89,0-1.33
		C23.04,17.06,23.08,17.06,23.12,17.05z"/>
	<path class="st71" d="M16.45,26.39c0.24-0.16,0.48-0.33,0.71-0.49C17.19,26.44,17,26.68,16.45,26.39z"/>
	<path class="st37" d="M22.67,17.49c-0.38-0.35-0.18-0.81-0.22-1.22C22.8,16.63,22.65,17.07,22.67,17.49z"/>
	<path class="st72" d="M20.54,19.65c0.15-0.48,0.31-0.96,0.46-1.44C21.47,18.89,21.25,19.35,20.54,19.65z"/>
	<path class="st73" d="M20.52,22.77c-0.09,0.07-0.18,0.15-0.28,0.22c-0.32-0.6,0.23-0.7,0.54-0.93
		C20.69,22.3,20.61,22.53,20.52,22.77z"/>
	<path class="st74" d="M12.74,23.74c-0.72-0.07-1.68,0.28-1.97-0.68c-0.26-0.84,0.38-1.49,0.89-2.1c1.61-1.93,3.61-3.44,5.53-5.03
		c0.59-0.49,1.8,0.04,1.88,0.87C19.52,21.14,17.26,23.47,12.74,23.74z"/>
	<path class="st74" d="M11.41,18.46c-1.2,1.08-2.41,2.15-3.6,3.24c-0.51,0.47-1.12,0.53-1.64,0.18C5.7,21.56,5.83,21,6.04,20.55
		c1.6-3.37,3.97-5.91,7.67-6.97c0.78-0.22,0.86,0.36,0.65,0.82c-0.57,1.22-1.04,2.53-2.23,3.34C11.68,17.77,11.57,18.14,11.41,18.46
		z"/>
	<path class="st75" d="M4.68,23.25c-0.01,0.18-0.01,0.35-0.02,0.53c-0.07-0.02-0.14-0.04-0.21-0.07c-0.42-1.18-0.11-2.35,0.02-3.52
		c0.07-0.02,0.14-0.04,0.21-0.06C5.1,21.17,4.44,22.21,4.68,23.25z"/>
	<path class="st76" d="M11.41,18.46c-0.39-0.68,0.53-0.59,0.58-1.01c0.05,0.1,0.09,0.2,0.14,0.3C11.96,18.06,11.73,18.3,11.41,18.46
		z"/>
	<path class="st77" d="M17.38,17.27c0.11,0.23,0.38,0.47,0.03,0.68c-0.13,0.08-0.4,0.07-0.53-0.02c-0.35-0.22-0.08-0.45,0.05-0.68
		C17.08,17.11,17.23,17.12,17.38,17.27z"/>
	<path class="st78" d="M14.32,20.95c-0.09,0.12-0.16,0.27-0.21,0.27c-0.14-0.02-0.33-0.06-0.4-0.17c-0.11-0.16,0.07-0.31,0.2-0.32
		C14.03,20.72,14.15,20.85,14.32,20.95z"/>
	<path class="st79" d="M15.73,19.46c0.21-0.02,0.28,0.13,0.27,0.29c0,0.11-0.07,0.23-0.1,0.34c-0.1-0.08-0.24-0.15-0.31-0.26
		C15.51,19.69,15.53,19.53,15.73,19.46z"/>
	<path class="st80" d="M17.38,17.27c-0.15,0-0.31-0.01-0.46-0.01c-0.26-0.34,0.05-0.41,0.25-0.41
		C17.37,16.85,17.67,16.95,17.38,17.27z"/>
	<path class="st81" d="M12.8,14.4c0.11,0.11,0.22,0.18,0.24,0.27c0.01,0.09-0.05,0.26-0.11,0.29c-0.18,0.07-0.29-0.06-0.29-0.23
		C12.63,14.63,12.72,14.54,12.8,14.4z"/>
	<path class="st82" d="M9.6,17.07c0.15,0.04,0.33,0.07,0.31,0.26c-0.02,0.19-0.21,0.2-0.35,0.17c-0.09-0.02-0.22-0.1-0.24-0.18
		C9.27,17.09,9.45,17.09,9.6,17.07z"/>
</g>
</svg>
