<?xml version="1.0" encoding="utf-8"?>
<!-- Generator: Adobe Illustrator 23.0.2, SVG Export Plug-In . SVG Version: 6.00 Build 0)  -->
<svg version="1.1" id="Camada_1" xmlns="http://www.w3.org/2000/svg" xmlns:xlink="http://www.w3.org/1999/xlink" x="0px" y="0px"
	 viewBox="0 0 26.44 25.48" style="enable-background:new 0 0 26.44 25.48;" xml:space="preserve">
<style type="text/css">
	.st0{fill:#0D0B10;}
	.st1{fill:#B55A01;}
	.st2{fill:#4BBC2A;}
	.st3{fill:#724420;}
	.st4{fill:#BE5F09;}
	.st5{fill:#C96409;}
	.st6{fill:#DA6A05;}
	.st7{fill:#DB6B07;}
	.st8{fill:#E38325;}
	.st9{fill:#FCD470;}
	.st10{fill:#B55903;}
	.st11{fill:#B55905;}
	.st12{fill:#B65A05;}
	.st13{fill:#B45904;}
	.st14{fill:#B55A04;}
	.st15{fill:#B35803;}
	.st16{fill:#B75B03;}
</style>
<g>
	<path class="st0" d="M14.87,23.14c-5.08-0.02-8.64-1.7-11.16-5.41c-0.81-1.19-1.13-2.51-1.28-3.94c-0.5-4.85,2.15-7.69,6.06-9.77
		C8.8,3.86,9.22,3.84,9.37,3.45c0.47-1.24,1.46-1.29,2.47-0.93c0.59,0.21,0.9-0.06,1.29-0.31c1.49-0.96,2.18-0.85,3.18,0.57
		c0.15,0.21,0.28,0.37,0.54,0.4C19,3.46,20.37,4.9,21.7,6.42c4.13,4.72,3.25,11.95-1.88,15.33C18.12,22.88,16.22,23.2,14.87,23.14z"
		/>
	<path class="st1" d="M6.72,6.97c1.24-1.14,2.68-1.93,4.31-2.39c0.81,0.17,1.16,0.66,1.06,1.48c-0.43,0.48-1.04,0.58-1.6,0.75
		C8.82,7.33,7.55,8.45,6.42,9.69c-1.33,1.45-1.13,5.24,0.19,6.89c2.52,3.16,5.9,4,9.67,3.41c2.32-0.36,3.74-2.01,4.57-4.16
		c0.72-1.88,0.67-3.74-0.18-5.57c-1.13-2.68-3.19-4.16-6.01-4.67c-0.17-0.45,0.15-0.67,0.44-0.9c1.51-0.08,2.87,0.27,4,1.32
		c0.52,0.48,0.93,1.08,1.57,1.43c0.41,0.33,0.69,0.75,0.94,1.21c0.98,1.68,1.52,3.41,1.07,5.43c-0.24,1.08-0.64,2.12-0.82,3.21
		c-0.22,0.54-0.46,1.08-0.94,1.46c-0.61,0.35-1.09,0.83-1.44,1.44c-0.55,0.63-1.3,0.99-2.06,1.14c-4.55,0.91-8.66,0.25-11.89-3.47
		c-1.47-1.7-1.89-3.66-1.6-5.81c0.16-1.2-0.01-2.52,1.11-3.41C5.74,8.22,6.29,7.65,6.72,6.97z"/>
	<path class="st2" d="M15.13,4.82c-0.14,0.23-0.29,0.45-0.43,0.68c-0.04,0.31-0.25,0.51-0.45,0.72c-0.28,0.24-0.55,0.49-0.97,0.35
		c-0.62-0.65-0.74-1.42-0.57-2.27c0.27-0.22,0.52-0.47,0.81-0.65c0.38-0.23,0.72-0.73,1.21-0.56c0.55,0.2,0.29,0.82,0.42,1.24
		C15.28,4.51,15.28,4.67,15.13,4.82z"/>
	<path class="st3" d="M12.71,4.3c0.46,0.68,0.2,1.6,0.75,2.24c0.22,0.51-0.07,0.73-0.5,0.83c-0.34,0.08-0.61-0.1-0.79-0.37
		C11.96,6.7,11.95,6.35,12.04,6c-0.15-0.61-0.61-0.99-1.01-1.42c0.01-0.29-0.54-0.47-0.21-0.8c0.29-0.29,0.59,0.01,0.84,0.15
		C11.99,4.11,12.29,4.38,12.71,4.3z"/>
	<path class="st4" d="M21.86,17.3c-0.32-1.1,0.44-2,0.57-3.04c0.23-1.84,0.33-3.55-0.88-5.09c-0.14-0.18-0.14-0.36,0.06-0.51
		C23.44,10.9,23.54,14.27,21.86,17.3z"/>
	<path class="st5" d="M15.13,4.82c0.01-0.16,0.02-0.32,0.03-0.48c2.4,0.05,4.15,1.23,5.51,3.12c-0.56,0.18-0.74-0.34-0.96-0.61
		C18.54,5.33,16.9,4.94,15.13,4.82z"/>
	<path class="st6" d="M6.72,6.97c-0.24,0.8-0.9,1.46-1.68,1.67C5.46,7.94,6.03,7.39,6.72,6.97z"/>
	<path class="st7" d="M19.48,20.2c0.16-0.79,0.65-1.27,1.44-1.44C20.54,19.34,20.07,19.83,19.48,20.2z"/>
	<path class="st8" d="M12.04,6c0.08,0.17,0.19,0.34,0.23,0.53c0.07,0.33,0.17,0.65,0.54,0.69c0.45,0.05,0.6-0.29,0.66-0.67
		c0.24-0.18,0.48-0.36,0.72-0.54c0.57-0.37,1.09-0.05,1.59,0.16c1.83,0.77,3.4,1.92,4.62,3.5c0.14,0.19,0.24,0.42,0.53,0.43
		c1.45,3.32,0.77,6.25-1.74,8.77c-1.02,1.02-2.3,1.5-3.77,1.57c-3.15,0.15-5.96-0.47-8.31-2.82C5.4,15.91,5.03,14,5.33,11.74
		c0.36-2.78,2.46-3.9,4.56-5.02C10.55,6.37,11.32,6.23,12.04,6z"/>
	<path class="st9" d="M20.92,10.1c-0.36,0.86-0.48-0.01-0.57-0.12C18.93,8.2,17.16,6.91,15,6.18c-0.26-0.09-0.54-0.12-0.81-0.18
		c0.17-0.17,0.34-0.34,0.5-0.51c2.32-0.03,4.97,1.71,5.87,3.85C20.67,9.6,20.8,9.85,20.92,10.1z"/>
	<path class="st10" d="M7.46,13.71c0.45,0.02,0.66,0.23,0.68,0.6c0.01,0.26-0.13,0.49-0.39,0.51c-0.37,0.03-0.59-0.25-0.68-0.55
		C6.96,13.92,7.26,13.81,7.46,13.71z"/>
	<path class="st11" d="M8.3,16.6c0.3,0.05,0.57,0.19,0.5,0.52c-0.06,0.3-0.3,0.57-0.65,0.57c-0.27,0-0.41-0.22-0.41-0.48
		C7.72,16.84,7.94,16.65,8.3,16.6z"/>
	<path class="st12" d="M10.31,18.39c-0.02,0.26-0.14,0.48-0.4,0.51c-0.34,0.04-0.5-0.2-0.51-0.51c-0.01-0.26,0.14-0.48,0.39-0.51
		C10.14,17.83,10.26,18.09,10.31,18.39z"/>
	<path class="st13" d="M11.88,17.84c-0.02,0.31-0.23,0.41-0.48,0.4c-0.26-0.02-0.46-0.16-0.48-0.43c-0.02-0.28,0.17-0.44,0.43-0.47
		C11.71,17.3,11.8,17.58,11.88,17.84z"/>
	<path class="st14" d="M11.05,15.79c-0.22-0.05-0.38-0.17-0.38-0.38c0-0.33,0.24-0.48,0.54-0.46c0.23,0.02,0.33,0.19,0.29,0.41
		C11.46,15.61,11.3,15.76,11.05,15.79z"/>
	<path class="st15" d="M9.13,15.64c0.33-0.01,0.46,0.12,0.45,0.34c-0.01,0.22-0.17,0.33-0.39,0.32c-0.22-0.01-0.39-0.14-0.38-0.34
		C8.82,15.75,9.02,15.65,9.13,15.64z"/>
	<path class="st16" d="M13.92,16.93c-0.04,0.22-0.16,0.35-0.39,0.32c-0.24-0.03-0.31-0.22-0.27-0.42c0.03-0.2,0.14-0.38,0.37-0.34
		C13.84,16.53,13.91,16.72,13.92,16.93z"/>
</g>
</svg>
