<?xml version="1.0" encoding="utf-8"?>
<!-- Generator: Adobe Illustrator 23.0.2, SVG Export Plug-In . SVG Version: 6.00 Build 0)  -->
<svg version="1.1" id="Camada_1" xmlns="http://www.w3.org/2000/svg" xmlns:xlink="http://www.w3.org/1999/xlink" x="0px" y="0px"
	 viewBox="0 0 94.5 113.14" style="enable-background:new 0 0 94.5 113.14;" xml:space="preserve">
<style type="text/css">
	.st0{fill:#FEFEFE;}
	.st1{fill:#010002;}
	.st2{fill:#4E903D;}
	.st3{fill:#5E1918;}
	.st4{fill:#BC3718;}
	.st5{fill:#912719;}
	.st6{fill:#6D1F1C;}
	.st7{fill:#89281E;}
	.st8{fill:#437B3A;}
	.st9{fill:#D58430;}
	.st10{fill:#DA962F;}
	.st11{fill:#DCDE5D;}
	.st12{fill:#7AAC39;}
	.st13{fill:#82AE38;}
	.st14{fill:#83AE35;}
	.st15{fill:#C7D24F;}
	.st16{fill:#CC6831;}
	.st17{fill:#932B1D;}
	.st18{fill:#A93117;}
	.st19{fill:#A42F1A;}
	.st20{fill:#F1DF77;}
	.st21{fill:#C94D23;}
	.st22{fill:#F5F3A1;}
	.st23{fill:#F7F7BE;}
	.st24{fill:#B83517;}
	.st25{fill:#C43E22;}
	.st26{fill:#CF7332;}
	.st27{fill:#F3EC97;}
	.st28{fill:#F3EB9A;}
	.st29{fill:#CF7131;}
</style>
<g>
	<path class="st0" d="M48.5,113.03c-18.8,0.13-33.31-7.28-42.12-22.71c-9.18-16.08-9.36-35.77,5.41-50.67
		c0.25-0.26,0.48-0.56,0.77-0.76c3.15-2.17,3.83-3.8,0.15-6.68c-4.31-3.37-4.22-11.3-0.09-14.81c5.19-4.4,10.89-8.1,18.31-5.43
		c0.79,0.28,1.48,0.61,2.26-0.21c2.15-2.25,4.84-4.11,6.52-6.65c5.07-7.67,15.93-6.41,19.83,1.78c2.24,4.69,3.86,9.68,3.49,14.89
		c-0.22,3.08,0.87,4.51,3.4,5.7c9.43,4.4,16.11,11.74,21.68,20.33c7.75,11.93,7.96,24.2,3.28,37.39
		c-2.8,7.87-8.04,13.62-13.82,18.81c-5.04,4.53-11.69,6.81-18.44,8.14C55.37,112.89,51.57,113.37,48.5,113.03z"/>
	<path class="st1" d="M24.12,35.35c-2.5-1.86-4.47-3.73-6.84-5.19c-4.07-2.52-3.88-8.19,0.18-10.69c1.63-1,3.24-2.06,4.98-2.83
		c3.04-1.35,6.18-1.44,8.72,0.97c2,1.89,2.98,1.32,4.18-0.76c2.47-4.32,6.89-6.88,9.93-10.76c2.08-2.66,7.38-1.6,9.29,1.78
		c3.32,5.86,5.25,12.18,2.81,18.89c-0.68,1.87,0.11,1.85,1.3,2.31c15.68,6.05,25.96,17.35,30.58,33.3
		c2.06,7.11-0.07,14.33-2.43,21.4c-2.07,6.2-6.19,10.68-10.51,14.98c-5.85,5.82-13.45,8.56-21.56,9.19
		c-8.61,0.67-17.39,0.72-25.37-3.15c-10.5-5.1-18.73-12.42-22.12-24.31C5.3,73.53,4.25,66.69,5.82,59.64
		C8.2,48.93,15.21,41.61,24.12,35.35z"/>
	<path class="st2" d="M31.87,36.71c-1.58-1.69-3.17-3.37-4.75-5.06c0.36-1.64,1.67-0.85,2.61-1.02c3.3,1.38,4.42,4.85,6.65,6.77
		c-0.91-1.38-0.84-3.52-1.91-5.23c-1.07-1.79-2.61-3.27-3.46-5.21c-1.62-2.67-3.37-5.04-7.12-3.85c-0.65,0.21-1.5,0.14-1.23-1.02
		c2.26-2.34,4.38-2.15,6.83-0.06c2.07,1.77,4.16,3.5,6,5.72c1.55-5.57,3.98-10.22,8.54-13.56c1.05-0.76,1.97-1.75,2.8-2.76
		c2.34-2.85,3.13-2.77,4.73,0.67c3.76,8.06,2.98,12.59-3.25,18.99c-0.83,0.85-1.58,1.77-2.36,2.66c-0.46,1.62-1.89,2.55-2.74,3.88
		c-1.04,0.81-1.67,1.88-1.99,3.14c-2.09,3.91-3.85,4.11-6.45,0.73c-0.51-0.66-0.95-1.36-1.5-1.99
		C32.61,38.69,31.79,37.92,31.87,36.71z"/>
	<path class="st3" d="M78.83,87.71c-1.57,3.9-4.35,6.69-7.68,9.19c-9.68,7.26-20.58,7.37-31.77,5.64
		c-11.48-1.77-19.97-8.27-25.79-18.02c-2.34-3.92-3.1-8.67-3.72-13.28c0.87-0.86,1.77-1.61,3.06-0.75c0.98,1.49,0.75,3.31,1.31,4.91
		c3.29,11.51,10.42,19.78,21.78,23.42c6.71,2.15,13.94,1.67,20.9-0.05c2.94-0.98,5.73-2.32,8.55-3.58c1.15-0.63,2.39-1.06,3.59-1.56
		c0.87-0.37,1.72-0.79,2.45-1.42c2.16-1.76,3.79-4.04,5.79-5.95C78.53,85.97,78.63,86.9,78.83,87.71z"/>
	<path class="st4" d="M42.79,37.31c0.45-1.72,1.82-2.62,3.16-3.55c8.64-2.58,16,0.52,22.56,5.66c7.22,5.67,12.77,12.74,15.52,21.7
		c0.33,0.54,0.51,1.17-0.19,1.46c-0.8,0.32-1.3-0.32-1.69-0.9c-1.28-1.92-1.47-4.52-3.66-5.87c-1.88-0.98-2.29-3.21-3.83-4.49
		c-4.1-4.43-7.97-9.09-13.35-12.15c-4.4-2.5-8.9-3.87-13.94-2.44C45.82,36.79,44.45,38.21,42.79,37.31z"/>
	<path class="st5" d="M78.87,55.6c2.96,0.55,2.5,3.5,3.71,5.28c0.42,0.62,0.56,2.52,1.45,0.25c2.96,7.89,1.01,15.23-2.75,22.25
		c-0.77,1.45-1.61,2.9-2.46,4.33c-0.39-0.43-0.78-0.86-1.17-1.28c-0.88-2.82,1.82-4.61,2.03-7.11c2.53-6.95,2.54-13.82-0.5-20.64
		C78.76,57.7,78.21,56.71,78.87,55.6z"/>
	<path class="st6" d="M12.68,70.55c-0.94,0.23-1.87,0.47-2.81,0.7c-0.5-7.85-0.08-15.46,5.67-21.67c1.33,0.17,2.68-1.97,4,0.03
		c0.05,1.14-0.72,1.88-1.29,2.71c-1.64,2.2-2.96,4.55-3.61,7.25c-1.17,2.65-0.88,5.47-0.95,8.25
		C13.63,68.83,13.55,69.84,12.68,70.55z"/>
	<path class="st7" d="M19.19,49.64c-1.2-1.15-2.46,1.75-3.65-0.06c4.09-6.01,9.75-10.02,16.33-12.87c0.63,0.76,1.25,1.51,1.88,2.26
		c-0.62,2.15-2.83,2.21-4.28,3.27c-2.73,1.08-4.51,3.33-6.57,5.24C21.84,48.45,21.07,50.04,19.19,49.64z"/>
	<path class="st8" d="M22.66,22.09c3.69-0.82,6.61,0.31,8.76,3.42c0.3,0.43,0.47,0.79-0.08,1.14c-2.45,0.22-3.54-2.83-6.01-2.52
		c-1.76,1.44,0.14,1.96,0.72,2.75c1.01,1.4,3.15,1.93,3.2,4.09c-0.4,1.2-1.64-0.22-2.14,0.68c-1.96-1.53-3.9-3.1-5.9-4.59
		c-3.13-2.33-3.11-2.69,0.44-4.59C21.97,22.3,22.33,22.22,22.66,22.09z"/>
	<path class="st9" d="M29.27,41.71c1.49-0.91,2.99-1.82,4.48-2.73c0.47,0.51,0.99,0.97,1.39,1.52c2.73,3.75,3.41,3.72,5.48-0.27
		c1.62-0.89,2.4,0.22,3.02,1.38c0.66,1.23,1.37,2.45,1.75,3.81c-0.36,1.47,0.19,2.35,1.69,2.62c1.5,9.76,15.03,16.26,24.77,12.06
		c1.82-0.78,2.53-2.39,3.91-3.45c4.26,2.53,3.92,6.7,3.89,10.77c-0.6,4.14-3.3,5.88-7.12,7.02c-10.2,3.04-18.77-0.21-26.88-6.13
		C38.65,63.2,34.89,55.95,32.1,48.07c-0.66-1.88-1.44-3.51-2.99-4.75C28.85,42.75,28.86,42.21,29.27,41.71z"/>
	<path class="st10" d="M75.41,56.69c0.26,1.44,0.36,2.56-1.42,3.43c-10.28,4.99-19.94,1.24-26.67-7.48
		c-1.06-1.37-0.49-2.92-0.67-4.39c-0.82-0.54-1.29-1.31-1.55-2.24c-2.06-1.48-1.15-5.28-4.49-5.78c0.14-1.41,0.46-2.68,2.17-2.92
		c1.59-0.19,2.8-1.7,4.55-1.35c11.2-0.64,18.33,6.06,24.89,13.78C73.54,51.95,75.92,53.66,75.41,56.69z"/>
	<path class="st11" d="M42.89,28.76c1.56-5.19,3.43-10.25,6.11-15.4c2.05,3.3,2.23,6.43,1.88,9.66c-1.82,1.86-3.5,3.87-5.52,5.51
		C44.75,29.02,43.88,30.74,42.89,28.76z"/>
	<path class="st12" d="M29.26,30.98c-1.55-1.44-2.98-3.06-4.69-4.28c-2.44-1.74-1.61-2.66,0.56-3.52c4.19,1.79,6.57,5.7,9.93,8.47
		c1.71,2.38,1.39,5.44,2.8,7.98C34.35,37.26,32.81,33.14,29.26,30.98z"/>
	<path class="st13" d="M39.24,33.98c-1.99-8.41,0.45-14.89,7.17-18.79C42.8,21.29,41.26,27.68,39.24,33.98z"/>
	<path class="st14" d="M42.89,28.76c2.2-0.05,2.8-2.2,4.25-3.24c1.22-0.88,1.9-2.56,3.75-2.51c-0.22,2.32-1.87,3.73-3.38,5.22
		c-1.9,1.87-3.81,3.74-5.55,5.88C41.99,32.19,41.95,30.39,42.89,28.76z"/>
	<path class="st15" d="M35.06,31.65c-0.86,0.9-1.19-0.11-1.6-0.5c-2.79-2.64-5.55-5.31-8.32-7.97c2.9-0.33,4.17,2.27,6.22,3.48
		C32.59,28.32,33.82,29.98,35.06,31.65z"/>
	<path class="st16" d="M71.73,92.88c-0.46,0.83-1.29,1.05-2.12,1.28c-2.25-1.07-4.29,0.53-6.46,0.56c-1.26,0.02-2.53,0.48-3.84,0.49
		c-10.53-1.5-20.02-5.24-27.78-12.76c-6.66-6.69-10.17-14.55-8.93-24.16c0.15-0.95,0.25-1.94,1.36-2.32
		c3.97,6.92,8.56,13.38,14.29,18.98c6.81,6.67,15.27,9.47,24.51,10.52c4.51,0.51,8.94-0.7,13.42-0.4c0.8,2.07-0.87,3.19-1.78,4.59
		C73.64,90.85,72.31,91.55,71.73,92.88z"/>
	<path class="st17" d="M57.36,99.35c-0.74,0.36-1.44,0.83-2.21,1.05c-13.17,3.79-28.4-1.69-36.18-12.99
		c-2.5-3.64-5.09-7.24-5.5-11.85c2.18-1.03,3,0.84,3.96,2.03c2.03,2.52,4.36,4.73,6.68,6.97c1.5,1.45,3.33,2.28,5.38,2.64
		c2.6,0.92,4.08,3.46,6.95,4.25c5.69,1.57,11.28,3.44,17.18,4.16C55.76,95.88,58.07,96.15,57.36,99.35z"/>
	<path class="st18" d="M57.36,99.35c-0.31-2.19-1.71-3.01-3.76-2.88c-3.18,0.2-6.18-0.89-9.17-1.58c-3.55-0.82-7.12-1.79-10.54-3
		c-1.75-0.62-2.73-3.05-4.6-4.08c-5.91-6.4-12.02-12.62-16.53-20.16c0.09-2.95-0.65-6.03,1.39-8.67c2.86,4.24,5.16,8.82,7.93,13.11
		c2.61,4.05,6.33,7.06,10.15,9.94c7.8,6.98,16.92,11.01,27.29,12.28c2.05,1.03,4.72-0.69,6.52,1.46
		C63.24,97.19,60.47,98.67,57.36,99.35z"/>
	<path class="st19" d="M12.75,67.65c2.22,0.2,2.66,2.24,3.54,3.66c2.98,4.79,6.74,8.85,10.88,12.61c1.14,1.04,2.38,2.07,2.11,3.89
		c-2.42,0.38-4.16-1.03-5.66-2.5c-2.45-2.41-5.18-4.58-7.06-7.55c-0.68-1.07-1.59-2.13-3.09-2.2c-1.09-1.54-0.65-3.33-0.8-5.02
		C12.7,69.58,12.73,68.62,12.75,67.65z"/>
	<path class="st20" d="M71.73,92.88c0.51-2.97,3.48-4.39,4.45-7.07c0.37-2.51,1.7-4.7,2.35-7.11c0.21-0.29,0.49-0.45,0.84-0.48
		c0.89,0.21,0.69,1.05,0.92,1.63c-0.88,2.19-1.75,4.38-2.63,6.57C76.12,88.98,74.25,91.22,71.73,92.88z"/>
	<path class="st21" d="M66.03,95.76c-2.25-0.13-4.46-0.48-6.52-1.46c3.02-0.3,6.06-0.6,8.91-1.66c2.46-0.92,0.99,0.88,1.2,1.52
		C68.42,94.7,67.22,95.23,66.03,95.76z"/>
	<path class="st22" d="M80.29,79.85c-0.22-0.49-0.44-0.98-0.66-1.48c-1.78-3.48-0.9-7.12-0.64-10.72
		c-0.26-3.96-0.18-8.03-3.58-10.96c-0.82-2.34-2.29-4.3-3.7-6.3c1.63-2.4,2.41,0.78,3.71,0.56c1.15,1.55,2.29,3.1,3.44,4.65
		C82.9,63.48,83.87,71.53,80.29,79.85z"/>
	<path class="st23" d="M75.43,50.95c-1.46,1.29-2.19-2.25-3.71-0.56c-3.69-5.36-8.95-8.78-14.47-11.97c-3.12-1.8-6.69-1.3-9.91-2.46
		c2.64-1.13,5.37-1.03,8.01-0.22c6.53,2,11.94,5.69,16.22,11.05C72.75,48.27,74.14,49.57,75.43,50.95z"/>
	<path class="st24" d="M32.22,82.02c-5.15-2.12-8.73-5.99-11.65-10.54c-2.05-3.21-3.4-6.84-5.97-9.76
		c-0.52-0.59-0.33-1.82-0.46-2.75c0.22-2.89,1.83-5.08,3.61-7.18c3.34,0.91,4.01,4.18,5.75,6.51C22.25,67.73,25.9,75.37,32.22,82.02
		z"/>
	<path class="st25" d="M23.5,58.3c-2.69-1.48-3.45-4.68-5.75-6.51c0.48-0.72,0.96-1.43,1.44-2.15c2.13-2.01,4.27-4.01,6.4-6.02
		c1.05-0.98,2.21-1.73,3.68-1.91c-0.02,0.49-0.04,0.97-0.07,1.46c-0.59,3.62-2.62,6.73-3.59,10.22c-0.46,0.92-0.48,2.05-1.37,2.75
		C23.41,56.66,23.58,57.52,23.5,58.3z"/>
	<path class="st26" d="M24.96,53.26c0.96-3.56,1.96-7.09,4.24-10.09c2.22-0.3,2.88,1.16,3.33,2.91c1.56,6.08,4.18,11.75,8.3,16.4
		c7.84,8.86,20.27,15.66,33.87,10.37c2.66-1.03,3.18-3.22,4.3-5.21c1.08,3.52,0.79,7.13,0.64,10.72c-0.19,0.11-0.38,0.2-0.58,0.28
		c-0.19-0.14-0.37-0.31-0.51-0.5c-4.82,5.34-11.23,5.38-17.47,4.54c-10.08-1.36-18.45-6.24-25.04-14.07
		c-2.86-3.39-5.8-6.76-7.3-10.99C27.99,55.55,25.35,55.43,24.96,53.26z"/>
	<path class="st27" d="M45.1,46.01c1.35,0.17,1.72,1.02,1.55,2.24c-1.05,0.58-2.17,0.6-2.76-0.45
		C43.34,46.82,44.56,46.53,45.1,46.01z"/>
	<path class="st28" d="M55.86,44.37c-0.82-0.21-1.3-0.71-1.16-1.49c0.11-0.56,0.56-1.05,1.24-0.94c0.79,0.12,1.23,0.69,1.11,1.45
		C56.95,43.95,56.47,44.36,55.86,44.37z"/>
	<path class="st29" d="M24.96,53.26c2.65,0.65,3.84,2.62,5.05,4.91c6.61,12.59,16.5,21.08,30.8,23.69c4.8,0.87,9.54,0.02,14.08-1.54
		c1.77-0.61,2.89-2.35,3.89-4.55c0.12,1.28,0.2,2.08,0.27,2.88c-0.04,2.75-1.21,5.06-2.87,7.16c-7.82,0.89-15.46,1.03-23.23-1.35
		c-8.14-2.49-14.33-7.26-19.8-13.42c-2.92-3.3-4.77-7.39-7.99-10.46c-1.23-1.17-0.92-2.89-0.92-4.44
		C24.35,55.14,23.94,54.02,24.96,53.26z"/>
</g>
</svg>
