<?xml version="1.0" encoding="utf-8"?>
<!-- Generator: Adobe Illustrator 23.0.2, SVG Export Plug-In . SVG Version: 6.00 Build 0)  -->
<svg version="1.1" id="Camada_1" xmlns="http://www.w3.org/2000/svg" xmlns:xlink="http://www.w3.org/1999/xlink" x="0px" y="0px"
	 viewBox="0 0 98.02 115.34" style="enable-background:new 0 0 98.02 115.34;" xml:space="preserve">
<style type="text/css">
	.st0{fill:#010002;}
	.st1{fill:#4E903D;}
	.st2{fill:#5F1918;}
	.st3{fill:#BD3718;}
	.st4{fill:#92271A;}
	.st5{fill:#72211D;}
	.st6{fill:#8A281D;}
	.st7{fill:#437B3A;}
	.st8{fill:#60A844;}
	.st9{fill:#D58630;}
	.st10{fill:#DA962F;}
	.st11{fill:#DCDE5D;}
	.st12{fill:#7AAC39;}
	.st13{fill:#82AE38;}
	.st14{fill:#83AE35;}
	.st15{fill:#C7D24F;}
	.st16{fill:#CC6831;}
	.st17{fill:#932B1D;}
	.st18{fill:#A93017;}
	.st19{fill:#A32F1A;}
	.st20{fill:#F1DF77;}
	.st21{fill:#C94F24;}
	.st22{fill:#F7F7BE;}
	.st23{fill:#F6F5AD;}
	.st24{fill:#F4F195;}
	.st25{fill:#B83517;}
	.st26{fill:#C43E22;}
	.st27{fill:#CF7332;}
	.st28{fill:#F3EC97;}
	.st29{fill:#F3EB9A;}
	.st30{fill:#CF7131;}
</style>
<g>
	<path class="st0" d="M25.92,36.11c-2.33-1.75-4.35-3.42-6.52-4.86c-4.58-3.04-4.46-8.32,0.34-11.21c2.34-1.41,4.48-3.25,7.41-3.39
		c2.24-0.11,4.31,0.23,5.97,1.88c1.45,1.45,2.54,1.72,3.7-0.47c2.39-4.53,6.97-7.12,10.11-11.07c2.41-3.03,7.91-1.58,9.89,2.48
		c3.03,6.25,4.87,12.76,1.79,19.65c15.81,5.67,26.51,16.43,31.86,32.21c2.66,7.83,0.6,15.46-1.87,23.13
		c-2,6.21-6.23,10.59-10.42,15.04c-5.1,5.42-11.99,7.95-19.07,8.9c-9.26,1.24-18.76,1.39-27.53-2.66
		c-10.89-5.03-19.19-12.56-22.64-24.7C7,74.24,5.98,67.51,7.51,60.57C9.88,49.85,16.86,42.5,25.92,36.11z"/>
	<path class="st1" d="M33.61,37.53c-1.33-1.47-2.66-2.95-3.98-4.42c-0.17-1.21,0.73-1.39,1.56-1.64c3.6,0.98,4.38,4.79,6.72,6.4
		c-0.61-1.27-0.76-3.21-1.64-4.91c-0.3-0.59-0.56-1.2-0.68-1.86c-1.09-3.22-3.9-4.93-6.25-7.02c-0.86-0.76-1.95-0.56-3.04-0.29
		c-0.75,0.19-1.93,0.82-1.9-0.88c2.25-2.33,4.37-2.16,6.82-0.06c2.07,1.77,4.17,3.49,5.99,5.71c1.58-5.52,3.96-10.2,8.54-13.51
		c0.86-0.62,1.63-1.4,2.34-2.2c3.08-3.49,3.85-3.37,5.6,1.01c0.17,0.43,0.19,0.92,0.28,1.38c-0.79,1.39,0.35,2.48,0.56,3.72
		c0.53,3.12,0.63,6.15-1.8,8.73c-0.67,0.71-1.8,1.29-1.6,2.6c-0.58,1.88-2.63,2.59-3.43,4.29c-0.45,1.61-1.88,2.52-2.72,3.85
		c-0.86,0.72-1.59,1.53-1.85,2.68c-2.01,4.56-3.91,4.81-6.84,0.9c-0.42-0.56-0.81-1.15-1.27-1.67
		C34.35,39.5,33.52,38.75,33.61,37.53z"/>
	<path class="st2" d="M80.56,88.52c-1.56,3.9-4.35,6.7-7.68,9.19c-9.68,7.26-20.58,7.37-31.76,5.64
		c-11.48-1.77-20.04-8.23-25.76-18.03c-2.52-4.32-3.68-9.5-3.77-14.7c1.29-1.78,2.47-2.16,3.46,0.25c0.44,1.77,0.56,3.6,1.08,5.35
		c3.06,11.66,10.33,19.76,21.65,23.42c6.7,2.16,13.92,1.67,20.88-0.05c2.94-0.98,5.73-2.32,8.55-3.58c1.15-0.63,2.39-1.06,3.59-1.56
		c0.87-0.37,1.72-0.79,2.45-1.42c2.16-1.76,3.79-4.04,5.79-5.95C80.26,86.79,80.36,87.72,80.56,88.52z"/>
	<path class="st3" d="M44.52,38.13c0.45-1.72,1.82-2.62,3.16-3.55c8.64-2.58,16,0.52,22.56,5.66c7.21,5.67,12.77,12.74,15.52,21.7
		c0.33,0.54,0.52,1.17-0.2,1.46c-0.8,0.32-1.3-0.33-1.69-0.91c-1.28-1.92-1.47-4.53-3.68-5.88c-2.82-2.1-3.71-5.87-6.76-7.78
		c-3.1-3.51-6.6-6.55-10.62-8.95c-4.26-2.55-8.76-3.73-13.69-2.34C47.57,37.61,46.19,39.03,44.52,38.13z"/>
	<path class="st4" d="M80.59,56.44c3,0.5,2.49,3.5,3.71,5.26c0.43,0.61,0.55,2.53,1.46,0.25c2.96,7.89,1.01,15.23-2.75,22.25
		c-0.77,1.44-1.61,2.9-2.46,4.33c-0.39-0.43-0.78-0.86-1.16-1.29c-0.88-2.81,1.81-4.59,2.03-7.09c2.35-6.33,2.5-12.68,0.19-19.05
		C81.24,59.56,79.79,58.24,80.59,56.44z"/>
	<path class="st5" d="M14.4,70.65c-0.93-1.76-1.88,0.11-2.82-0.02c-0.5-7.42,0.4-14.44,5.7-20.23c1.49-0.59,2.44-1.85,3.64-2.81
		c0.91-0.74,2.01-2.04,3.1-0.11c-1,2.16-2.82,3.73-4.06,5.72c-2.3,3.07-3.79,6.49-4.45,10.28c-0.14,1.69-0.01,3.38-0.12,5.07
		C15.29,69.36,15.11,70.13,14.4,70.65z"/>
	<path class="st6" d="M23.77,47.48c-1.57-1.21-1.9,0.64-2.77,1.14c-1.2,0.68-1.92,2.34-3.72,1.79c4.07-6.03,9.75-10.02,16.32-12.87
		c0.63,0.76,1.26,1.51,1.88,2.27c-0.63,2.14-2.84,2.2-4.29,3.26c-1.73,0.74-3.15,1.9-4.53,3.17C25.89,46.96,25.2,48.18,23.77,47.48z
		"/>
	<path class="st7" d="M24.39,22.91c5.67-1.5,8.17,2.96,11.39,6.07c0.58,0.56,1.35,1.17,0.33,2.03c-1.73,0.4-2.04-1.29-2.94-2.05
		c-1.87-1.57-3.31-3.76-6.04-3.99c-1.78,1.34,0.07,1.87,0.6,2.68c0.96,1.47,3.41,1.76,3.29,4.11c-0.46,0.45-0.93,0.9-1.39,1.35
		c-2.64-1.99-5.26-4.01-7.92-5.96c-1.55-1.13-1.3-2.1,0.15-2.98C22.65,23.67,23.54,23.33,24.39,22.91z"/>
	<path class="st8" d="M51.12,30.29c-0.81-0.61-0.48-1.22,0.06-1.75c3.23-3.16,3.54-6.92,2.33-11.03c-0.24-0.81-0.3-1.63,0.46-2.27
		c0.26,0.89,0.41,1.78,0.78,2.68C56.64,22.52,55.45,26.33,51.12,30.29z"/>
	<path class="st9" d="M31,42.53c1.49-0.91,2.99-1.82,4.48-2.73c0.35,0.32,0.76,0.6,1.04,0.97c3.38,4.51,3.55,4.5,6.06-0.38
		c1.71-0.92,2.39,0.43,3,1.52c0.75,1.34,1.53,2.7,1.76,4.27c-0.36,1.4,0.13,2.32,1.54,2.73c2.27,8.83,14.32,16.15,24.35,11.46
		c1.6-0.75,3.6-1.11,2.14-3.7c-0.36-0.65,0.17-1.36,1.07-1.48c2.61,1.29,3.19,3.93,4.2,6.28c0.57,2.23,1.28,4.44,0.7,6.79
		c-0.77,3.24-2.95,4.94-6.01,6.02C64.71,78,55.64,74.7,47.19,68.31c-6.9-5.21-10.58-12.5-13.11-20.49
		c-0.58-1.83-1.55-3.18-3.05-4.26C30.76,43.23,30.75,42.88,31,42.53z"/>
	<path class="st10" d="M46.84,46.83c-1.39-2.16-1.08-5.45-4.25-6.44c-0.16-1.44,0.74-1.98,1.94-2.26c1.59-0.19,2.79-1.7,4.55-1.35
		c10.75-0.67,17.77,5.63,24.26,12.94c0.94,1.96,3.38,3.16,3,5.81c-0.15,0.18-0.45,0.48-0.42,0.52c2.76,3.55-0.15,4.34-2.59,5.29
		c-10.67,4.12-18.69-1.25-24.42-8.91c-0.83-1.11-0.05-2.3-0.51-3.37C47.56,48.54,47.12,47.74,46.84,46.83z"/>
	<path class="st11" d="M44.62,29.58c1.59-5.18,3.36-10.28,6.14-15.35c2.02,3.25,2.19,6.38,1.85,9.61c-1.82,1.86-3.5,3.87-5.52,5.51
		C46.48,29.84,45.61,31.56,44.62,29.58z"/>
	<path class="st12" d="M31.01,31.76c-1.56-1.43-2.99-3.03-4.7-4.24c-2.45-1.73-1.62-2.66,0.55-3.52c4.19,1.79,6.57,5.7,9.93,8.47
		c1.71,2.38,1.39,5.44,2.8,7.98C36.13,38.03,34.49,34,31.01,31.76z"/>
	<path class="st13" d="M47.71,16.34c-3.28,5.8-4.62,12.27-6.63,18.83C37.92,28.15,39.94,22.92,47.71,16.34z"/>
	<path class="st14" d="M44.62,29.58c2.2-0.05,2.8-2.2,4.25-3.24c1.22-0.88,1.9-2.56,3.75-2.51c-0.22,2.32-1.9,3.7-3.37,5.23
		c-1.85,1.92-3.64,3.91-5.97,6.41C43.72,33.01,43.68,31.21,44.62,29.58z"/>
	<path class="st15" d="M36.79,32.47c-0.86,0.9-1.19-0.11-1.6-0.5c-2.79-2.64-5.55-5.31-8.32-7.97c4.51,0.46,6.45,4.3,9.25,7.02
		C36.34,31.5,36.56,31.98,36.79,32.47z"/>
	<path class="st16" d="M73.46,93.7c-0.46,0.83-1.29,1.05-2.11,1.28c-2.25-1.06-4.29,0.53-6.47,0.57c-1.26,0.02-2.53,0.48-3.84,0.49
		C50.84,94.71,41.7,91,34.02,84.02c-7.09-6.81-11.04-14.84-9.69-24.93c0.16-0.95,0.26-1.95,1.4-2.29c3.03,4.96,6.36,9.7,9.94,14.3
		c7.7,9.89,18.21,13.8,30.17,15.21c4.09,0.48,8.03-0.4,12.04-0.43c0.86,2.08-0.84,3.2-1.75,4.61C75.38,91.67,74.05,92.37,73.46,93.7
		z"/>
	<path class="st17" d="M59.09,100.17c-0.74,0.36-1.44,0.83-2.21,1.05c-12.74,3.67-28.12-1.62-35.8-12.35
		c-2.71-3.79-5.25-7.69-5.88-12.48c1.74-0.56,2.66,0.64,3.55,1.73c1.89,2.32,4.17,4.25,6.17,6.46c1.76,1.95,3.85,3.14,6.44,3.49
		c2.42,0.8,3.58,3.38,6.15,4.09c5.76,1.59,11.47,3.33,17.4,4.29C56.94,96.78,59.77,96.62,59.09,100.17z"/>
	<path class="st18" d="M59.09,100.17c-0.06-1.83-1.47-2.46-2.85-2.72c-4.5-0.85-9.3-0.48-13.26-3.42c-2.78,2.4-4.5-1.32-7.04-1.36
		c-1.67-0.03-3.3-2.6-4.94-4.04c-6.37-6.01-11.98-12.64-16.53-20.15c0.01-1.93,0.01-3.86,0.02-5.78c1.82-1.17,2.93,0.01,3.89,1.29
		c1,1.33,1.91,2.77,2.62,4.27c3.05,6.46,8.05,11.15,13.66,15.31c6.57,5.74,14.3,9.09,22.71,11.11c1.3,0.31,2.57,0.39,3.86,0.45
		c2.05,1.03,4.72-0.69,6.52,1.46C64.97,98.01,62.2,99.49,59.09,100.17z"/>
	<path class="st19" d="M14.49,68.48c3,1.81,4.34,5,6.31,7.67c2.19,2.97,4.2,6.04,7.47,8.06c1.54,0.95,2.54,2.51,2.75,4.43
		c-2.5,0.28-4.21-1.04-5.94-2.64c-3.38-3.11-6.02-6.97-9.87-9.6c-0.64-1.86-0.88-3.78-0.8-5.74C14.43,69.93,14.46,69.2,14.49,68.48z
		"/>
	<path class="st20" d="M73.46,93.7c0.51-2.97,3.48-4.39,4.46-7.07c0.37-2.51,1.7-4.7,2.36-7.12c0.21-0.28,0.49-0.45,0.85-0.47
		c0.89,0.22,0.67,1.06,0.91,1.65c-0.88,2.19-1.76,4.37-2.64,6.56C77.85,89.8,75.97,92.04,73.46,93.7z"/>
	<path class="st21" d="M67.76,96.58c-2.25-0.13-4.46-0.48-6.52-1.46c3.02-0.3,6.06-0.6,8.91-1.66c2.46-0.91,1,0.87,1.2,1.52
		C70.15,95.51,68.95,96.05,67.76,96.58z"/>
	<path class="st22" d="M72.94,50.39c-3.02-3.42-6.33-6.41-10.2-8.97c-4.25-2.81-8.89-3.78-13.68-4.63
		c4.94-1.78,9.43-0.36,13.68,2.09c4.36,2.5,8.31,5.55,11.42,9.58C74.39,49.49,74.27,50.32,72.94,50.39z"/>
	<path class="st23" d="M72.94,50.39c0.41-0.65,0.82-1.29,1.23-1.94c3.03,1.95,4.2,5.39,6.42,7.99c0.53,1.33,1.06,2.66,1.59,3.99
		c0.34,0.55,0.43,1.21-0.12,1.53c-0.84,0.49-1.51-0.17-2.14-0.67c-1.18-1.93-1.93-4.13-3.59-5.76C75.2,53.82,74.07,52.1,72.94,50.39
		z"/>
	<path class="st24" d="M79.92,61.29c0.79-0.19,2.13,1.07,2.26-0.86c2.96,6.77,2.66,13.52-0.15,20.26c-0.22-0.5-0.45-1-0.67-1.5
		c-1.62-3.48-1.23-7.09-0.65-10.71C81.12,66,79.85,63.72,79.92,61.29z"/>
	<path class="st25" d="M34.67,83.56c-5.95-2.79-10.3-7.23-13.41-12.97c-1.07-1.98-2.19-3.92-3.3-5.88
		c-0.76-1.35-1.84-2.15-3.46-2.02c1.36-3.51,2.17-7.29,4.98-10.07c3.34,0.9,4,4.18,5.74,6.49C23.89,69,27.99,76.78,34.67,83.56z"/>
	<path class="st26" d="M25.23,59.12c-2.69-1.48-3.44-4.68-5.74-6.49c1.29-1.83,2.3-3.89,4.28-5.14c2.64-1.32,3.92-4.62,7.23-4.95
		c0.01,0.25,0.01,0.49,0.02,0.74c-0.16,3.99-2.75,7.16-3.65,10.9c-0.47,0.93-0.5,2.08-1.4,2.79C25.14,57.48,25.31,58.34,25.23,59.12
		z"/>
	<path class="st27" d="M26.69,54.08c0.86-3.84,2.46-7.38,4.33-10.81c2.14-0.06,3.21,0.98,3.65,3.1c1.29,6.2,4.06,11.95,8.15,16.55
		c7.25,8.15,19.66,15.85,33.63,10.04c2.28-0.95,3.05-2.79,4.26-4.47c1.09,3.52,0.76,7.12,0.65,10.71c-0.18,0.12-0.37,0.22-0.57,0.29
		c-0.2-0.14-0.37-0.31-0.52-0.5c-5.17,5.33-11.74,5.48-18.26,4.25C48.3,80.65,38.19,72.84,31.87,60.46
		C30.53,57.84,28.09,56.46,26.69,54.08z"/>
	<path class="st28" d="M46.84,46.83c1.35,0.16,1.72,1.01,1.55,2.23c-0.74,0.34-1.53,0.73-2.11-0.17
		C45.73,48.06,46.17,47.39,46.84,46.83z"/>
	<path class="st29" d="M57.71,42.74c0.75,0.24,1.22,0.74,1.03,1.52c-0.14,0.58-0.63,1.03-1.28,0.88c-0.74-0.16-1.22-0.7-1.02-1.5
		C56.58,43.07,57.05,42.7,57.71,42.74z"/>
	<path class="st30" d="M26.69,54.08c3.99,0.61,4.74,4.15,6.38,6.95C40.9,74.34,52.13,82.54,67.94,82.7
		c4.53,0.04,9.99-0.08,12.58-6.07c0.12,1.25,0.19,2.05,0.27,2.85c-0.04,2.75-1.21,5.06-2.87,7.16c-12.44,2.02-24.08-0.12-34.66-7.04
		c-5.66-3.71-9.8-9-13.25-14.73c-1.51-2.51-5.07-4.08-4.04-7.9C26.08,55.96,25.67,54.84,26.69,54.08z"/>
</g>
</svg>
