<?xml version="1.0" encoding="utf-8"?>
<!-- Generator: Adobe Illustrator 23.0.2, SVG Export Plug-In . SVG Version: 6.00 Build 0)  -->
<svg version="1.1" id="Camada_1" xmlns="http://www.w3.org/2000/svg" xmlns:xlink="http://www.w3.org/1999/xlink" x="0px" y="0px"
	 viewBox="0 0 25.39 24.67" style="enable-background:new 0 0 25.39 24.67;" xml:space="preserve">
<style type="text/css">
	.st0{fill:#FEFEFE;}
	.st1{fill:#0C0A0E;}
	.st2{fill:#B65A02;}
	.st3{fill:#4BBB2A;}
	.st4{fill:#73441F;}
	.st5{fill:#E38325;}
	.st6{fill:#FCD470;}
	.st7{fill:#B55903;}
	.st8{fill:#B55905;}
	.st9{fill:#B65A05;}
	.st10{fill:#B45904;}
	.st11{fill:#B55A04;}
	.st12{fill:#B35803;}
	.st13{fill:#B75B03;}
</style>
<g>
	<path class="st0" d="M25.38,12.13c-0.06,4.26-1.38,7.98-5.01,10.48c-2.76,1.9-5.84,2.45-9.22,1.81c-3.97-0.75-7.16-2.54-9.5-5.87
		C0.21,16.49,0.01,14.21,0,11.81c-0.02-4.53,2.77-7.1,6.23-9.24c0.55-0.34,1.06-0.69,1.45-1.22c0.57-0.77,1.49-1.09,2.33-1.03
		c1.64,0.12,3.22-0.41,4.84-0.31c0.36,0.02,0.73-0.02,1.05,0.18c2.91,1.82,5.91,3.49,7.83,6.55C24.8,8.44,25.44,10.15,25.38,12.13z"
		/>
	<path class="st1" d="M13.48,22.8c-4.42-0.01-7.98-1.7-10.5-5.4c-0.81-1.19-1.13-2.51-1.27-3.94C1.22,8.61,3.85,5.77,7.78,3.7
		c0.28-0.15,0.69-0.25,0.79-0.49c0.55-1.33,1.56-1.4,2.67-0.98c0.57,0.21,0.82-0.14,1.17-0.36c1.49-0.94,2.17-0.84,3.18,0.58
		c0.15,0.21,0.28,0.36,0.54,0.4c2.15,0.28,3.52,1.72,4.86,3.25c4.13,4.72,3.25,11.96-1.89,15.32C17.56,22.43,16.06,22.8,13.48,22.8z
		"/>
	<path class="st2" d="M14.43,4c3.25,0.36,7.35,3.87,7.78,6.86c0.55,3.77-1.04,8.19-4.6,9.74c-4.28,1.86-11,0.83-13.88-4.72
		c-1.16-2.24-1.01-7.32,2.15-9.29c1.42-0.89,2.77-1.87,4.39-2.38c0.82,0.16,1.17,0.67,1.1,1.49c-0.29,0.37-0.72,0.51-1.14,0.61
		c-1.78,0.44-3.12,1.6-4.37,2.83c-1.47,1.44-1.36,5.41,0.07,7.17c2.51,3.1,5.85,3.91,9.57,3.36c2.33-0.35,3.78-1.96,4.59-4.12
		c0.68-1.82,0.79-3.65-0.13-5.44c-1.03-2.64-2.87-4.28-5.73-4.68c-0.12-0.02-0.22-0.09-0.31-0.17C13.79,4.72,14.06,4.34,14.43,4z"/>
	<path class="st3" d="M14.43,4c0,0.45-0.24,0.81-0.46,1.17c-0.04,0.31-0.25,0.51-0.45,0.72c-0.28,0.24-0.55,0.49-0.97,0.35
		c-0.62-0.65-0.74-1.42-0.57-2.27c0.27-0.22,0.53-0.45,0.81-0.65C14.06,2.38,14.26,2.47,14.43,4z"/>
	<path class="st4" d="M11.98,3.97c0.46,0.68,0.2,1.6,0.75,2.25c0.22,0.51-0.08,0.73-0.5,0.83c-0.34,0.08-0.61-0.1-0.79-0.37
		c-0.21-0.31-0.23-0.65-0.14-1.01c-0.15-0.62-0.64-1.01-1.04-1.46c0.02-0.28-0.47-0.44-0.22-0.73c0.28-0.34,0.59-0.04,0.85,0.09
		C11.25,3.76,11.54,4.05,11.98,3.97z"/>
	<path class="st5" d="M11.31,5.67c0.08,0.17,0.19,0.34,0.23,0.52c0.07,0.33,0.17,0.65,0.54,0.69c0.45,0.05,0.6-0.29,0.66-0.67
		c0.24-0.18,0.48-0.36,0.72-0.54c0.57-0.37,1.09-0.07,1.59,0.15c2.01,0.88,3.76,2.09,4.93,4.01c0.06,0.11,0.16,0.17,0.29,0.16
		c1.35,3.26,0.63,6.1-1.81,8.54c-1.02,1.02-2.3,1.49-3.77,1.56c-3.15,0.15-5.95-0.48-8.31-2.81c-1.73-1.71-2.04-3.64-1.77-5.89
		c0.33-2.78,2.46-3.89,4.56-5.01C9.82,6.04,10.59,5.9,11.31,5.67z"/>
	<path class="st6" d="M20.26,9.99c-0.57,0.38-0.55-0.26-0.72-0.46c-1.64-1.91-3.56-3.36-6.08-3.86c0.17-0.17,0.34-0.34,0.5-0.51
		C17.18,5.33,19.12,7.15,20.26,9.99z"/>
	<path class="st7" d="M6.82,13.37c0.4,0.08,0.61,0.28,0.59,0.65c-0.02,0.26-0.17,0.48-0.44,0.46c-0.35-0.02-0.59-0.28-0.64-0.6
		C6.28,13.55,6.57,13.44,6.82,13.37z"/>
	<path class="st8" d="M8.1,16.78c-0.13,0.29-0.3,0.58-0.65,0.58c-0.33,0.01-0.46-0.26-0.44-0.57c0.03-0.31,0.24-0.5,0.54-0.51
		C7.85,16.28,8.06,16.44,8.1,16.78z"/>
	<path class="st9" d="M9.09,18.58c-0.31-0.1-0.46-0.31-0.4-0.62c0.05-0.25,0.21-0.45,0.48-0.41c0.31,0.05,0.45,0.3,0.4,0.61
		C9.52,18.41,9.36,18.57,9.09,18.58z"/>
	<path class="st10" d="M11.15,17.48c0.03,0.29-0.15,0.41-0.42,0.43c-0.27,0.02-0.47-0.13-0.53-0.37c-0.07-0.27,0.12-0.45,0.36-0.52
		C10.92,16.93,11.04,17.19,11.15,17.48z"/>
	<path class="st11" d="M10.79,15.01c-0.08,0.28-0.23,0.47-0.49,0.43c-0.25-0.03-0.43-0.23-0.34-0.5c0.07-0.23,0.28-0.37,0.54-0.33
		C10.73,14.65,10.79,14.83,10.79,15.01z"/>
	<path class="st12" d="M8.5,15.31c0.24,0,0.37,0.12,0.36,0.35c-0.01,0.22-0.17,0.33-0.39,0.32c-0.22-0.01-0.39-0.14-0.38-0.34
		C8.1,15.42,8.28,15.32,8.5,15.31z"/>
	<path class="st13" d="M13.19,16.59c-0.02,0.23-0.15,0.36-0.37,0.34c-0.23-0.02-0.32-0.19-0.29-0.41c0.03-0.2,0.14-0.39,0.36-0.36
		C13.09,16.19,13.18,16.37,13.19,16.59z"/>
</g>
</svg>
