<?xml version="1.0" encoding="utf-8"?>
<!-- Generator: Adobe Illustrator 23.0.2, SVG Export Plug-In . SVG Version: 6.00 Build 0)  -->
<svg version="1.1" id="Camada_1" xmlns="http://www.w3.org/2000/svg" xmlns:xlink="http://www.w3.org/1999/xlink" x="0px" y="0px"
	 viewBox="0 0 40.8 67.01" style="enable-background:new 0 0 40.8 67.01;" xml:space="preserve">
<style type="text/css">
	.st0{fill:#FDFDFD;}
	.st1{fill:#000101;}
	.st2{fill:#0E4750;}
	.st3{fill:#194E5A;}
	.st4{fill:#163D43;}
	.st5{fill:#16505A;}
	.st6{fill:#F5F7F8;}
	.st7{fill:#A0B8BC;}
	.st8{fill:#D7EBEF;}
	.st9{fill:#ADC1C3;}
	.st10{fill:#FEFEFE;}
	.st11{fill:#CFDADB;}
	.st12{fill:#F9FAFA;}
	.st13{fill:#B5CBCE;}
	.st14{fill:#B3CACE;}
	.st15{fill:#3A717A;}
	.st16{fill:#FAFBFB;}
	.st17{fill:#D6EBEE;}
	.st18{fill:#B7C7C8;}
	.st19{fill:#BAC8CA;}
	.st20{fill:#B3C3C5;}
	.st21{fill:#527F86;}
	.st22{fill:#1B67A8;}
	.st23{fill:#57B586;}
	.st24{fill:#4284A0;}
	.st25{fill:#59A18A;}
	.st26{fill:#67C692;}
	.st27{fill:#548CA0;}
	.st28{fill:#91E5B5;}
	.st29{fill:#63AD92;}
	.st30{fill:#1B73A7;}
	.st31{fill:#295F66;}
	.st32{fill:#BCCACB;}
	.st33{fill:#B9C7C9;}
	.st34{fill:#C4CECF;}
	.st35{fill:#49947F;}
	.st36{fill:#87D2A7;}
	.st37{fill:#61A4CA;}
	.st38{fill:#1E78B2;}
	.st39{fill:#3688BC;}
	.st40{fill:#5099C4;}
	.st41{fill:#4693C2;}
	.st42{fill:#73B69E;}
	.st43{fill:#D1DBDC;}
	.st44{fill:#CCD8DA;}
	.st45{fill:#CEDADB;}
	.st46{fill:#D2DCDC;}
	.st47{fill:#C8D6D9;}
	.st48{fill:#2879A2;}
	.st49{fill:#EEB202;}
</style>
<g>
	<path class="st0" d="M0.09,37.08c0-5.52,0.01-11.03-0.01-16.55c0-1.2,0.46-2.06,1.36-2.9c0.98-0.91,1.71-2.09,2.52-3.18
		c2.22-2.98,4.42-5.97,6.64-8.95c0.32-0.44,0.49-0.88,0.52-1.42c0.04-0.67,0.13-1.35,0.28-2.01c0.39-1.75,1.94-2.54,3.56-1.75
		c4.47,2.17,8.93,4.39,13.39,6.59c0.89,0.44,1.78,0.85,2.65,1.33c2.09,1.14,2.56,1.87,2.18,4.21c-0.11,0.7,0.01,1.19,0.45,1.74
		c2.21,2.83,4.13,5.87,6.51,8.58c0.58,0.66,0.65,1.54,0.65,2.38c0.01,10.48,0.02,20.95-0.02,31.43c-0.01,1.29,0.08,2.62-0.54,3.87
		c-0.46,0.93-1.08,1.49-2.1,1.76c-5.91,1.52-11.82,3.07-17.72,4.64c-1.4,0.37-2.58,0.19-3.84-0.61c-4.53-2.9-9.1-5.75-13.72-8.5
		C0.81,56.5-0.07,54.99,0,52.55c0.17-5.15,0.05-10.31,0.05-15.47C0.07,37.08,0.08,37.08,0.09,37.08z"/>
	<path class="st1" d="M1.29,37.13c0-5.48,0.01-10.95-0.01-16.43c0-0.94,0.32-1.54,1.06-2.21c1.07-0.98,1.82-2.31,2.7-3.49
		c2.04-2.76,4.05-5.55,6.14-8.27c0.74-0.96,1.23-1.92,1.18-3.15c-0.02-0.43,0.09-0.87,0.2-1.3c0.26-1,0.99-1.34,1.91-0.89
		c4.28,2.09,8.55,4.18,12.82,6.28c1.2,0.59,2.39,1.21,3.59,1.81c0.92,0.46,1.5,1.18,1.17,2.22c-0.5,1.58,0.18,2.72,1.12,3.88
		c2.08,2.58,3.79,5.43,6.02,7.89c0.4,0.44,0.39,1.04,0.39,1.59c0.01,10.56,0.02,21.11-0.03,31.67c-0.01,1.04,0.14,2.15-0.39,3.17
		c-0.32,0.6-0.66,0.97-1.38,1.15c-5.89,1.51-11.76,3.08-17.63,4.64c-1.05,0.28-1.94,0.17-2.92-0.46c-4.53-2.89-9.1-5.73-13.72-8.49
		c-1.65-0.98-2.37-2.14-2.31-4.13c0.15-5.15,0.05-10.31,0.05-15.47C1.27,37.13,1.28,37.13,1.29,37.13z"/>
	<path class="st2" d="M30.83,14.46c2.52,3.18,4.89,6.48,7.22,9.8c0.19,0.32,0.23,0.67,0.23,1.03c-0.01,4.61,0.02,9.22-0.01,13.83
		c0,0.12-0.04,0.23-0.06,0.35c-0.06,0.16-0.18,0.23-0.35,0.23c-0.42-0.31-0.39-0.77-0.37-1.2c0.02-0.88-0.07-1.74-0.25-2.6
		c-0.04-3.15,0-6.29-0.02-9.44c-0.01-1.14-0.16-1.27-1.14-1.01c-5.23,1.4-10.48,2.75-15.71,4.17c-0.8,0.25-0.91,0.9-0.93,1.61
		c-0.04,1.42,0.07,2.85-0.06,4.27c-0.08,0.22-0.11,0.5-0.4,0.51c-0.3,0.01-0.34-0.28-0.41-0.49c-0.07-0.18-0.09-0.38-0.15-0.57
		c-0.23-1.35-0.09-2.71-0.11-4.06c-0.01-0.73-0.21-1.29-0.88-1.7c-4.26-2.6-8.48-5.26-12.76-7.82c-1.21-0.68-1.31-0.63-1.32,0.73
		c-0.02,2.1,0.01,4.2-0.01,6.3c-0.01,0.62,0.15,1.17,0.47,1.69c0.01,0.14-0.02,0.27-0.09,0.4c-0.42,0.56-0.33,1.22-0.33,1.85
		C3.36,39.09,3.4,45.85,3.34,52.6c-0.01,1.22,0.59,1.91,1.38,2.61c0.14,0.33,0.06,0.58-0.27,0.73c-1.52-0.68-2.01-1.79-2-3.5
		c0.09-10.06,0.04-20.13,0.05-30.19c0-1.21,0.12-2.21,1.03-3.33c2.94-3.61,5.55-7.48,8.38-11.18c1.05-1.38,1.83-2.76,1.69-4.57
		c-0.08-1.11,0.53-0.48,0.93-0.28c-0.13,0.65-0.48,1.27-0.38,1.96c0.06,0.42,0.26,0.83,0.73,0.77c0.42-0.05,0.27-0.5,0.3-0.79
		c0.06-0.55-0.15-1.1,0.02-1.65c1.32,0.23,2.39,1.02,3.56,1.56c2.63,1.23,5.18,2.61,7.77,3.94c-0.17,0.21-0.4,0.24-0.65,0.24
		c-0.2-0.02-0.4-0.06-0.56-0.16c-0.75-0.45-1.16-0.27-1.24,0.62c-0.01,0.16-0.14,0.28-0.3,0.32c-0.55-0.28-0.39-0.81-0.46-1.26
		c-0.15-0.9-0.88-1.46-1.56-1.24c-0.66,0.2-0.48,1.13-0.3,1.79c0.04,0.15,0.1,0.3,0.12,0.46c-0.03,0.2-0.15,0.31-0.33,0.37
		c-0.9,0.06-1.55-0.54-2.29-0.88c-1.12-0.51-2.21-1.08-3.3-1.63c-1.97-1-1.67-1.17-3.03,0.66c-2.63,3.56-5.24,7.15-7.81,10.76
		c-0.5,0.71-0.53,1.1,0.28,1.59c4.33,2.63,8.66,5.28,12.96,7.97c0.51,0.32,0.95,0.4,1.33-0.17c0.17-0.22,0.33-0.44,0.46-0.69
		c2.37-3.39,4.73-6.77,7.39-9.95c0.59-0.7,1.05-1.5,1.63-2.21c0.3-0.36,0.5-0.83,1.03-0.93c0.2,0.03,0.32,0.14,0.39,0.32
		c0.08,0.32-0.04,0.59-0.22,0.84c-3.14,4.17-6.26,8.34-9.37,12.52c-0.01,0.03-0.04,0.06-0.06,0.1c-0.02,0.04-0.05,0.1-0.04,0.11
		c0.14,0.13,0.29,0.04,0.43,0c2.22-0.61,4.45-1.15,6.66-1.78c2.64-0.78,5.35-1.34,7.99-2.13c1.13-0.34,1.07-0.3,0.45-1.26
		c-1.63-2.52-3.47-4.89-5.25-7.3c-0.21-0.29-0.45-0.57-0.41-0.97C30.51,14.62,30.64,14.5,30.83,14.46z"/>
	<path class="st3" d="M4.44,55.94c0.08-0.15,0.15-0.29,0.23-0.44c0.08-0.09,0.18-0.13,0.3-0.11c3.33,1.77,6.44,3.91,9.68,5.84
		c0.99,0.59,1.95,1.22,2.93,1.83c0.48,0.3,0.73,0.22,0.68-0.4c-0.01-3.98-0.1-7.96-0.02-11.94c-0.04-1.45-0.03-2.9-0.01-4.35
		c-0.03-2.4,0.03-4.81,0.02-7.21c-0.03-0.79,0.03-1.58,0-2.37c-0.02-0.44-0.02-0.88-0.41-1.19c-0.15-0.13-0.26-0.28-0.26-0.49
		c0.28-0.35,0.66-0.32,1.05-0.27c0.28,0.23,0.17,0.56,0.22,0.84c0.02,0.14,0.11,0.16,0.19,0.04c0.04-0.06,0.04-0.14,0.06-0.22
		c0.76,0.44,0.64,1.16,0.59,1.86c-0.21,0.39-0.29,0.81-0.29,1.26c0.02,4.17-0.02,8.35,0.03,12.52c0.02,1.04,0.03,2.08-0.01,3.12
		c0.07,2.64-0.05,5.27-0.01,7.91c0.01,0.43-0.09,0.89,0.19,1.27c0.34,0.27,0.69,0.11,1.03,0.02c3.72-0.95,7.4-2,11.13-2.94
		c1.47-0.44,2.98-0.73,4.43-1.2c0.41-0.13,0.85-0.2,1.1-0.62c0.25-0.49,0.15-1.02,0.15-1.53c0.01-5.29,0-10.57,0.01-15.86
		c0-0.58-0.15-1.21,0.36-1.69c0.07,0,0.14,0.01,0.21,0.01c0.32,0.33,0.23,0.75,0.24,1.14c0.01,5.12,0.01,10.24,0,15.36
		c0,0.44,0.01,0.88-0.22,1.28c-0.02,2.3-0.03,2.29-2.32,2.89c-5.2,1.37-10.4,2.73-15.6,4.13c-0.9,0.24-1.63,0.17-2.44-0.34
		C13.3,61.35,8.86,58.66,4.44,55.94z"/>
	<path class="st4" d="M38.05,57.42c0-5.93-0.01-11.85-0.01-17.78c0-5.13,0.01-10.26,0.01-15.38c0.48,0.25,0.46,0.69,0.46,1.14
		c0,10.29,0,20.59,0,30.88C38.51,56.73,38.54,57.17,38.05,57.42z"/>
	<path class="st5" d="M21.17,9.68c0.1-0.08,0.2-0.16,0.31-0.24c0.58-0.32,0.99,0.29,1.51,0.29c0.34-0.49-0.19-1.31,0.62-1.59
		c0.14,0.49-0.16,1.05,0.26,1.5c0.39,0.49,0.69,1.03,1.32,1.3c0.93,0.4,1.02,0.32,1.05-0.72c0.02-0.59-0.51-0.97-0.42-1.55
		c0.24,0,0.47,0,0.71,0c1.23,0.62,2.46,1.26,3.71,1.84c0.6,0.28,0.59,0.72,0.63,1.26c0.06,0.9-0.57,1.78-0.03,2.68
		c-0.1,0.09-0.2,0.17-0.3,0.26c-0.12,0.11-0.25,0.12-0.38,0.03c-0.08-0.1-0.16-0.2-0.24-0.29c-2.57-1.38-5.23-2.57-7.8-3.93
		C21.73,10.32,21.25,10.21,21.17,9.68z"/>
	<path class="st6" d="M15.19,3.18c0.72,0.97,0.11,2,0.26,3.24c-0.71-0.56-1.72-0.5-1.67-1.38c0.04-0.72-0.23-1.69,0.74-2.15
		C14.75,2.98,14.97,3.08,15.19,3.18z"/>
	<path class="st7" d="M18.63,34.84c-0.24,0.37-0.68,0.12-0.97,0.31c-0.71,1.08-1.12,2.28-1.4,3.54c-0.19,0.86-0.42,1.71-0.95,2.44
		c-0.93,1.3-2.32,1.21-3.01-0.23c-0.45-0.94-0.7-1.95-1.03-2.94c-0.25-0.73-0.6-1.4-1.18-1.92c-0.64-0.58-1.08-0.5-1.52,0.26
		c-0.1,0.17-0.17,0.36-0.27,0.53c-0.69,1.1-1.63,1.1-2.33-0.04c-0.58-0.96-0.84-2.06-1.12-3.15c-0.04-0.66-0.45-1.27-0.31-1.96
		c0.01-2.93-0.02-5.87,0-8.8c0-0.58-0.1-1.2,0.35-1.7c4.05,2.46,8.07,4.97,12.16,7.36c1.17,0.69,1.72,1.44,1.57,2.82
		C18.5,32.52,18.62,33.69,18.63,34.84z"/>
	<path class="st8" d="M20.28,29.32c5.55-1.48,11.1-2.96,16.64-4.45c0.51-0.14,0.73-0.1,0.72,0.5c-0.05,3.47-0.07,6.94-0.1,10.41
		c-0.23,0.34,0,0.7-0.04,1.05c-0.06,0.43-0.12,0.95-0.68,0.98c-0.48,0.03-0.64-0.4-0.74-0.81c-0.17-0.7-0.25-1.41-0.48-2.1
		c-0.26-0.8-0.48-1.8-1.48-1.79c-1.07,0.02-1.25,1.07-1.5,1.91c-0.31,1.04-0.19,2.14-0.45,3.19c-0.11,0.43-0.2,0.86-0.36,1.27
		c-0.69,1.77-2.26,2.08-3.57,0.68c-0.44-0.47-0.78-1.02-1-1.62c-0.15-0.41-0.33-0.81-0.54-1.2c-0.97-1.83-1.99-1.93-3.34-0.32
		c-0.35,0.42-0.65,0.95-1.36,0.75c-0.47-0.44-0.36-1.03-0.38-1.58c-0.04-1.24-0.04-2.47-0.12-3.71
		C21.41,31.27,21.17,30.2,20.28,29.32z"/>
	<path class="st9" d="M21.17,9.68c2.6,1.33,5.2,2.65,7.79,4c0.36,0.19,0.89,0.2,0.94,0.77c-3.07,3.79-5.91,7.75-8.83,11.65
		c-0.37,0.5-0.73,1.02-1.09,1.52c-1.23-0.19-2.1-0.97-3.04-1.72c-2.6-2.06-5.41-3.82-8.36-5.36c-0.52-0.27-1.29-0.41-1.09-1.31
		c0.71-0.36,1.23,0.14,1.76,0.44c3.12,1.79,6.12,3.79,9.01,5.94c0.37,0.28,0.69,0.62,1.08,0.06c1.94-2.7,4.58-4.8,6.53-7.5
		c0.96-1.32,0.97-1.36-0.51-2.19c-3.8-2.14-7.51-4.41-11.16-6.79c-0.03-1.09,0.75-1.62,1.5-2.18C17.53,7.91,19.35,8.8,21.17,9.68z"
		/>
	<path class="st10" d="M15.7,7.03c-0.37,0.79-1.17,1.29-1.45,2.14c-0.01,0.3-0.19,0.52-0.36,0.74c-2.28,2.95-4.23,6.14-6.58,9.04
		c-0.6,0.6-0.68,0.97,0.24,1.45c4.05,2.12,7.91,4.55,11.65,7.18c0.2,0.14,0.36,0.31,0.41,0.56c-0.33,0.98-0.81,1-1.67,0.45
		c-4.72-2.97-9.49-5.88-14.28-8.83c3.04-4.16,6.09-8.27,9.04-12.45c0.76-1.09,1.4-1.47,2.49-0.58C15.34,6.85,15.53,6.93,15.7,7.03z"
		/>
	<path class="st11" d="M27.75,26.7c-2.6,0.72-5.2,1.44-7.89,2.18c0.05-0.53,0.36-0.76,0.61-1.03c0.44-0.05,0.68-0.38,0.95-0.66
		c2.64-2.7,5.37-5.33,7.51-8.47c0.43-0.64,0.97-0.77,1.46-0.16c1.47,1.84,3.3,3.32,4.83,5.1c-1.06,1.01-2.48,1.3-3.78,1.82
		c-1.21,0.49-2.5,0.71-3.76,1.03c-0.01,0-0.02,0.08-0.01,0.11C27.68,26.65,27.72,26.67,27.75,26.7z"/>
	<path class="st12" d="M4.91,55.53c-0.08-0.01-0.16-0.02-0.24-0.03c-1.48-0.61-1.65-1.76-1.63-3.24c0.09-6.91,0.03-13.82,0.06-20.73
		c0-0.4-0.43-1.2,0.6-1.12c1.06,0.66,0.76,1.89,1.19,2.82c0.11,0.23,0.07,0.54,0.16,0.8c0.09,0.26,0.11,0.54,0.14,0.81
		c0.18,2.48,0.11,4.96,0.09,7.44c0.09,4.35-0.04,8.7-0.02,13.05C5.2,55.51,5.09,55.57,4.91,55.53z"/>
	<path class="st13" d="M35.16,23.58c-1.75-1.03-2.93-2.65-4.31-4.07c-0.22-0.23-0.41-0.49-0.61-0.73c-0.4-0.49-0.69-0.51-1.08,0.08
		c-2.18,3.32-5.11,5.99-7.81,8.86c-0.34,0.36-0.56,0.35-0.9,0.15c3.13-4.17,6.25-8.33,9.38-12.5c0.16,0.03,0.33,0.08,0.41,0.22
		c1.47,2.43,3.64,4.36,4.96,6.88C35.4,22.78,35.97,23.26,35.16,23.58z"/>
	<path class="st14" d="M20.28,29.32c1.22,0.27,1.41,1.07,1.49,2.24c0.13,1.86,0.16,3.71,0.19,5.57c0,0.24,0.02,0.48,0.27,0.61
		c-0.8,1.11-2.02,0.87-2.67-0.51c-0.15-0.58-0.3-1.15-0.45-1.73c0-1.59,0.01-3.18,0.01-4.77C19.12,29.95,19.26,29.28,20.28,29.32z"
		/>
	<path class="st15" d="M19.56,37.24c0.77,0.79,1.58,1.37,2.67,0.51c0.48-0.53,0.94-1.08,1.45-1.58c1-0.98,1.99-0.92,2.84,0.2
		c0.31,0.41,0.51,0.9,0.73,1.36c0.19,0.39,0.3,0.83,0.51,1.21c0.51,0.94,1.17,1.87,2.34,1.77c1.19-0.11,1.46-1.22,1.7-2.2
		c0.14-0.58,0.18-1.18,0.27-1.77c0.1-0.67,0.14-1.36,0.31-2.01c0.25-0.93,0.56-1.97,1.74-2c1.13-0.02,1.45,0.99,1.72,1.87
		c0.22,0.68,0.31,1.4,0.45,2.1c0.07,0.38,0.12,0.77,0.48,1.06c0.62-0.56,0.37-1.39,0.76-1.98c0.41,1.26,0.21,2.57,0.28,3.86
		c-0.01,6.11-0.01,12.22-0.03,18.33c0,0.45,0.2,0.97-0.23,1.36c-0.7-1.06-0.25-2.24-0.37-3.36c-0.05-1.37,0.01-2.74-0.01-4.11
		c-0.01-3.74-0.04-7.48,0.01-11.22c0.1-0.88-0.14-1.81,0.23-2.62c-0.81,0.47-1.41,0.23-1.73-0.82c-0.22-0.72-0.25-1.49-0.5-2.21
		c-0.09-0.26-0.15-0.53-0.28-0.78c-0.17-0.33-0.4-0.61-0.81-0.61c-0.46,0-0.72,0.3-0.89,0.69c-0.22,0.51-0.37,1.06-0.37,1.62
		c-0.01,0.88-0.15,1.74-0.32,2.6c-0.15,0.62-0.38,1.21-0.71,1.74c-0.53,0.85-1.27,1.26-2.3,1.06c-0.7-0.26-1.35-0.59-1.79-1.23
		c-0.53-0.72-0.87-1.53-1.21-2.34c-0.16-0.32-0.32-0.64-0.56-0.91c-0.64-0.74-1.2-0.76-1.92-0.08c-0.12,0.11-0.23,0.23-0.31,0.36
		c-0.97,1.47-2.23,2.12-4.06,1.27c-0.08,1.21-0.04,2.27,0,3.34c0.07,2.7,0.04,5.39,0.01,8.08c0,0.5,0.16,1.16-0.58,1.38
		c-0.01-4.35-0.01-8.7-0.03-13.04C19.06,37.69,19.09,37.37,19.56,37.24z"/>
	<path class="st16" d="M4.9,21.2c0.01,3.21,0.03,6.41,0.03,9.62c0,0.37,0.17,0.8-0.2,1.11c-0.56-0.49-0.58-1.29-1.03-1.84
		c-0.74-0.01-0.62-0.54-0.62-1.01c0-2.6-0.01-5.2-0.01-7.8c0-0.35-0.15-0.79,0.22-0.99c0.32-0.17,0.57,0.2,0.83,0.36
		C4.4,20.81,4.64,21.01,4.9,21.2z"/>
	<path class="st17" d="M35.16,23.58c0.14-1.27-0.8-2.07-1.44-2.93c-1.3-1.75-2.79-3.37-3.88-5.29c0.1-0.2,0.2-0.41,0.3-0.61
		c0.13-0.01,0.25-0.02,0.38-0.03c2.25,3.13,4.49,6.26,6.83,9.52c-3.25,0.84-6.43,1.65-9.61,2.47c-0.16-0.02-0.31-0.04-0.47-0.05
		C30,25.85,32.63,24.84,35.16,23.58z"/>
	<path class="st9" d="M19.62,28.13c-4.22-2.81-8.45-5.62-13.01-7.87c-0.5-0.25-0.48-0.42-0.15-0.76c0.22-0.23,0.43-0.48,0.64-0.71
		c0.38-0.07,0.53,0.08,0.46,0.46c0,0.62,0.53,0.73,0.93,0.95c3.46,1.87,6.89,3.79,9.76,6.53c0.5,0.48,1.48-0.01,1.73,0.91
		C19.95,27.86,19.82,28.02,19.62,28.13z"/>
	<path class="st18" d="M25.82,8.68c0.55,0.45,0.97,2.27,0.66,2.88c-0.04,0.09-0.14,0.19-0.23,0.21c-0.67,0.13-2.34-1.36-2.39-2.12
		C24.05,7.93,24.05,7.93,25.82,8.68z"/>
	<path class="st18" d="M23.61,8.14c-0.1,0.68-0.19,1.36-0.3,2.12c-0.64-0.29-1.24-0.55-1.83-0.82c-0.88-0.91-0.17-1.92-0.34-3.17
		C22.07,7.09,23.31,6.93,23.61,8.14z"/>
	<path class="st19" d="M20.48,8.82c-2.42-1.15-2.09-0.31-1.85-3.45C20.87,5.98,20.87,5.98,20.48,8.82z"/>
	<path class="st20" d="M17.45,4.55c0.52,0.34,0.89,2.46,0.49,2.84c-0.19,0.18-0.37,0.06-0.54-0.04c-0.47-0.29-1.05-0.39-1.42-0.83
		C16.34,5.76,16.64,4.97,17.45,4.55z"/>
	<path class="st6" d="M17.45,4.55c-0.36,0.75-0.85,1.4-1.46,1.96c0-0.86,0-1.72,0-2.82C16.59,4.05,17.02,4.3,17.45,4.55z"/>
	<path class="st21" d="M3.7,30.09c0.68,0.42,0.8,1.16,1.03,1.84c0.07,0.59,0.49,1.11,0.41,1.74c-0.08,0.09-0.1,0.24-0.25,0.27
		c-0.38-1.18-0.57-2.42-1.19-3.52C3.7,30.3,3.7,30.2,3.7,30.09z"/>
	<path class="st22" d="M37.54,40.33c0,3.87,0,7.75,0,11.62c-1.71,2.44-4.05,3.44-6.99,3.06c-0.51-0.07-1.02-0.16-1.52-0.27
		c-1.64-0.23-3.29-0.41-4.95-0.34c-1.12-0.04-2.23-0.04-3.33,0.17c-0.54,0.1-1.11,0.17-1.6-0.24c-0.02-1.05-0.03-2.1-0.05-3.15
		c0.35-0.37,0.21-0.83,0.21-1.25c0.01-2.86,0.01-5.73,0.01-8.59c0.65-0.37,1.09,0.15,1.57,0.39c0.38,0.19,0.74,0.42,1.12,0.61
		c0.37,0.2,0.75,0.38,1.16,0.51c1.85,0.62,3.74,0.7,5.66,0.43c2.56-0.49,4.79-1.84,7.16-2.82C36.49,40.24,36.99,39.93,37.54,40.33z"
		/>
	<path class="st23" d="M4.91,55.53c0.03-0.07,0.08-0.09,0.15-0.06c0.24-1.44,0.05-2.89,0.09-4.34c0.05-1.42,0.38-1.63,1.65-0.92
		c1.01,0.56,2,1.17,2.93,1.86c2.7,2.05,5.27,4.27,7.79,6.55c0.71,0.65,1.06,1.31,0.98,2.28c-0.06,0.74-0.12,1.51,0.07,2.26
		c0.11,0.91-0.26,0.68-0.77,0.36c-3.11-1.94-6.23-3.85-9.35-5.77C7.26,57.02,6.09,56.27,4.91,55.53z"/>
	<path class="st24" d="M5.02,42.28C5,39.73,4.99,37.17,4.97,34.61c0.51,0.08,0.35,0.53,0.45,0.83c0.35,1.05,0.85,1.97,1.97,2.38
		c1.41,0.96,2.86,1.85,4.49,2.4c0.07,0.04,0.14,0.09,0.18,0.15c1.39,2.08,1.4,2.08,3.42,0.8c0.58-0.01,1.12-0.4,1.74-0.15
		c0.68,0.27,0.78-0.16,0.85-0.71c0.06-0.48-0.27-1.15,0.51-1.38c0,2.47,0,4.95,0,7.42c-0.36,0.06-0.42-0.3-0.63-0.45
		c-0.8-0.55-1.43-0.31-1.65,0.63c-0.32,1.37-0.7,1.55-1.95,0.9c-0.75-0.39-1.41-1.05-2.4-0.61c-0.18,0.08-0.36-0.25-0.47-0.47
		c-0.14-0.37-0.21-0.76-0.31-1.14c-0.62-2.26-1.85-2.88-4.12-2.07C6.09,43.51,5.59,42.81,5.02,42.28z"/>
	<path class="st25" d="M18.56,63.15c-0.32-0.33-0.27-0.78-0.19-1.14c0.47-2.17-1.03-3.22-2.39-4.36c-2.09-1.76-4.18-3.52-6.27-5.29
		c0.43-1.57,0.93-3.11,2.55-3.91c0.92,1.19,2.31,1.19,3.62,1.42c0.92,0.16,1.92,0.1,2.68,0.81C18.56,54.84,18.56,59,18.56,63.15z"/>
	<path class="st26" d="M31.84,60.81c-4.18,1.1-8.35,2.2-12.53,3.3c-0.26-1.61-0.05-3.22-0.12-4.83c-0.02-0.49,0.3-0.7,0.69-0.85
		c0.63-0.25,1.26-0.47,1.94-0.49c0.14,0.01,0.27,0.05,0.39,0.12c0.41,0.51,0.32,1.13,0.3,1.71c-0.02,0.91,0.4,1.15,1.26,1.06
		c2.26-0.22,4.44-0.8,6.66-1.21C31.13,59.77,31.43,60.36,31.84,60.81z"/>
	<path class="st27" d="M18.56,50.69c-1.6-0.25-3.17-0.71-4.8-0.74c-0.92-0.02-1.1-0.94-1.64-1.42c-0.6-0.19-0.8-0.67-0.89-1.23
		c0.04-0.36,0.1-0.72,0.45-0.93c0.06,0.06,0.15,0.17,0.16,0.16c1.23-0.7,1.97,0.4,2.89,0.8c0.68,0.29,1.24,0.49,1.23-0.62
		c-0.01-0.64,0.05-1.43,0.85-1.46c0.72-0.03,1.58,0.11,1.76,1.12C18.57,47.8,18.56,49.24,18.56,50.69z"/>
	<path class="st28" d="M31.84,60.81c-0.78,0.12-0.84-0.66-1.25-1c-0.09-0.08-0.19-0.15-0.24-0.26c-0.38-0.81-1.11-1.68-0.51-2.53
		c0.54-0.77,1.54-0.39,2.34-0.27c1.06,0.15,2.14,0,3.18,0.37c0.44,0.16,0.73-0.17,1.02-0.46c0.32-0.33,0.57-0.79,1.16-0.68
		c0.01,1.12,0.01,2.24,0.02,3.35C35.66,59.82,33.75,60.31,31.84,60.81z"/>
	<path class="st29" d="M21.96,58.12c-2.64,0.94-2.64,0.94-2.64,3.85c0,0.71,0,1.42,0,2.13c-0.24-0.15-0.22-0.4-0.22-0.64
		c0.01-3.05,0.03-6.1,0.04-9.15c1.65-0.08,3.29-0.41,4.96-0.24c0.02,0.31-0.23,0.45-0.44,0.44c-1.26-0.07-1.31,0.78-1.36,1.69
		C22.27,56.85,22.45,57.55,21.96,58.12z"/>
	<path class="st30" d="M18.57,38.93c-0.41,0.58-0.13,1.24-0.21,1.86c-0.04,0.31-0.04,0.85-0.39,0.71c-0.84-0.34-1.68-0.01-2.5-0.19
		c0.41-1.81,0.82-3.63,1.62-5.32c0.16-0.34,0.44-0.55,0.8-0.66c0.59-0.05,0.73,0.28,0.71,0.8C18.57,37.06,18.58,38,18.57,38.93z"/>
	<path class="st31" d="M17.89,35.33c-0.83,0.81-1.15,1.86-1.45,2.94c-0.28,1.03-0.64,2.03-0.97,3.04c-1.83,1.51-2.43,1.35-3.61-0.94
		c-0.53-0.5-0.63-1.19-0.8-1.84c-0.2-0.74-0.46-1.45-0.98-2.03c-0.49-0.56-0.89-0.57-1.29,0.12c-0.34,0.59-0.53,1.39-1.47,1.35
		c-1.56-0.57-1.99-1.93-2.34-3.35c-0.03-0.23-0.06-0.46-0.09-0.68c0.08-0.09,0.17-0.18,0.25-0.27c0.33,1.06,0.57,2.17,1.19,3.11
		c0.66,1.01,1.3,0.94,1.8-0.16c0.25-0.56,0.31-1.3,1.16-1.33c0.79-0.02,1.19,0.57,1.59,1.11c0.81,1.12,0.97,2.51,1.45,3.77
		c0.29,0.75,0.49,1.61,1.49,1.62c0.96,0.01,1.36-0.77,1.63-1.52c0.38-1.09,0.63-2.22,0.99-3.31c0.23-0.71,0.44-1.47,1.23-1.8
		C17.74,35.21,17.82,35.27,17.89,35.33z"/>
	<path class="st32" d="M27.04,9.5c1.57,0.58,1.57,0.58,1.36,3.25C26.9,12.3,26.9,12.3,27.04,9.5z"/>
	<path class="st33" d="M28.97,10.51c1.36,0.42,1.86,1.54,1.24,2.66c-0.14,0.25-0.33,0.32-0.59,0.27c-0.38-0.08-0.67-0.23-0.66-0.69
		C28.98,12.01,28.97,11.27,28.97,10.51z"/>
	<path class="st34" d="M7.56,19.24c-0.15-0.15-0.31-0.31-0.46-0.46c2.14-2.95,4.29-5.9,6.43-8.85c0.21-0.29,0.39-0.6,0.73-0.77
		c1.42,0.46,2.57,1.41,3.83,2.15c2.77,1.65,5.53,3.33,8.3,4.97c0.63,0.37,0.85,0.61,0.28,1.32c-1.14,1.44-2.21,2.92-3.54,4.19
		c-1.33,1.26-2.51,2.68-3.61,4.14c-0.45,0.6-0.6,0.63-1.22,0.15c-3.27-2.56-6.71-4.85-10.4-6.77C7.81,19.26,7.68,19.26,7.56,19.24z"
		/>
	<path class="st35" d="M11.36,47.25c0.25,0.42,0.5,0.85,0.76,1.27c-1.12,1.08-1.55,2.59-2.4,3.84c-1.05-0.64-2.08-1.3-3.14-1.92
		c-1.06-0.62-1.17-0.55-1.18,0.64c-0.01,1.11,0.01,2.22-0.01,3.34c-0.01,0.37,0.16,0.82-0.33,1.05c-0.13-4.39-0.15-8.79-0.05-13.18
		C5.7,42.29,6.06,43.12,6.8,43C8.47,44.26,10.15,45.5,11.36,47.25z"/>
	<path class="st36" d="M37.55,55.97c-1.46,1.17-1.63,1.17-3.58,1.21c-1.04,0.02-2.04-0.23-3.07-0.27c-1-0.04-1.17,0.32-0.84,1.21
		c0.2,0.55,0.61,1.04,0.53,1.68c-2.34,0.8-4.78,1.1-7.21,1.44c-0.82,0.11-1.3-0.11-1.2-1.08c0.07-0.67,0.01-1.36,0.02-2.03
		c1.31-1.05,2.95-0.95,4.48-1.26c0.31-0.06,0.63-0.03,0.95-0.07c0.55-0.07,1.09-0.22,1.65-0.15c-0.19-0.43-0.39-0.86-0.45-1.33
		c-0.04-0.31-0.25-0.73,0.34-0.79c0.59,0.08,1.17,0.17,1.76,0.23c2.19,0.25,4.03-0.54,5.64-1.95c0.32-0.28,0.65-0.57,0.98-0.85
		C37.54,53.29,37.54,54.63,37.55,55.97z"/>
	<path class="st37" d="M37.54,40.33c-1.66,0.18-2.97,1.23-4.47,1.81c-1.36,0.52-2.65,1.23-4.14,1.36c-1.04,0.22-2.08,0.07-3.16-0.06
		c1.1-0.99,2.54-1.39,3.62-2.34c1.97,0.22,2.36-1.29,2.9-2.64c0.91-0.21,1.59-0.79,2.29-1.37c0.42-0.35,0.68-0.73,0.59-1.31
		c-0.06-0.34-0.08-0.71,0.24-0.98c0.37,0.63,0.39,1.34,0.49,2.04c0.17,1.2,0.77,1.5,1.65,0.88C37.54,38.59,37.54,39.46,37.54,40.33z
		"/>
	<path class="st38" d="M21.95,42.52c-0.99-0.15-1.62-1.1-2.63-1.2c0-1.11,0-2.22,0-3.3c0.32-0.26,0.45,0.06,0.64,0.14
		c1.07,0.48,2.06,0.52,2.89-0.48c0.15-0.18,0.34-0.34,0.47-0.54c0.44-0.69,0.97-1.43,1.84-1.29c0.93,0.14,1.4,0.95,1.61,1.86
		c0.28,0.59-0.21,0.78-0.56,0.98c-0.76,0.43-1.53,0.85-2.38,1.1c-0.92,0.26-1.61,0.64-1.48,1.78C22.38,41.9,22.26,42.28,21.95,42.52
		z"/>
	<path class="st39" d="M21.95,42.52c-0.06-0.62,0.22-1.2,0.05-1.86c-0.15-0.61,0.51-0.74,0.92-0.88c1.05-0.36,2.07-0.77,3.03-1.31
		c0.33-0.18,0.78-0.25,0.8-0.77c0.39,0.73,0.78,1.46,1.17,2.18c-0.04,0.57-0.46,0.8-0.89,1.02c-0.85,0.44-1.7,0.9-2.63,1.14
		c-0.61,0.16-1.06,0.53-1.49,0.95C22.53,42.97,22.2,42.82,21.95,42.52z"/>
	<path class="st40" d="M22.91,43.01c-0.09-0.73,0.4-0.91,0.96-1.09c1.45-0.47,2.9-0.95,4.05-2.02c0.33,0.6,1.02,0.75,1.47,1.2
		c-0.24,1.09-1.31,1.16-2.04,1.65c-0.38,0.26-0.86,0.38-1.29,0.75c0.96,0,1.91,0,2.87,0C26.88,43.93,24.86,43.9,22.91,43.01z"/>
	<path class="st41" d="M35.41,34.8c0.67,2.03-0.94,2.74-2.12,3.7c-0.36,0.29-0.67,0.11-0.99-0.05c0.15-1.26,0.26-2.53,0.46-3.78
		c0.12-0.77,0.4-1.56,1.39-1.5C35.09,33.24,35.33,33.99,35.41,34.8z"/>
	<path class="st42" d="M29.16,54.52c-0.39,0.58,0.13,1.03,0.23,1.53c0.12,0.62,0.03,0.83-0.7,0.92c-2.19,0.24-4.38,0.49-6.49,1.16
		c-0.08,0-0.16,0-0.24,0c0.02-1.1,0.06-2.21,0.05-3.31c0-0.46,0.26-0.5,0.6-0.53c0.5-0.05,1.04,0.18,1.5-0.2
		C25.81,54.02,27.51,54.03,29.16,54.52z"/>
	<path class="st43" d="M27.43,45.49c-0.13,0.53-0.51,0.54-0.84,0.65c-0.35,0.11-0.93-0.16-1.01,0.39c-0.08,0.62-0.04,1.28,0.07,1.9
		c0.06,0.35,0.45,0.2,0.72,0.15c0.42-0.08,0.85-0.24,1.32,0.07c-0.45,0.85-1.71,0.24-1.97,0.99c-0.23,0.68-0.05,1.5-0.05,2.32
		c0.6,0.01,0.99-0.48,1.5-0.62c0.25-0.07,0.5-0.12,0.65,0.1c0.19,0.27-0.08,0.42-0.26,0.57c-0.09,0.07-0.2,0.13-0.31,0.18
		c-0.67,0.32-1.42,0.99-2.07,0.68c-0.72-0.34-0.28-1.31-0.32-1.99c-0.08-1.36,0.01-2.72-0.1-4.07c-0.08-0.95,0.26-1.33,1.17-1.3
		C26.41,45.52,26.87,45.27,27.43,45.49z"/>
	<path class="st43" d="M34.22,50.16c0.69-0.07,1.37-1.06,1.74-0.43c0.39,0.67-0.69,0.97-1.16,1.39c-0.34,0.3-0.74,0.72-1.26,0.43
		c-0.46-0.26-0.34-0.77-0.34-1.2c0.01-1.08,0.02-2.16,0.07-3.23c0.04-0.83,0.31-1.57,1.16-1.93c0.23-0.1,0.52-0.15,0.65,0.08
		c0.16,0.27-0.1,0.42-0.31,0.55c-0.2,0.13-0.44,0.23-0.59,0.4c-0.39,0.44-0.22,0.91,0.37,0.97c0.26,0.03,0.49,0.06,0.57,0.31
		c0.07,0.22-0.09,0.4-0.26,0.49C33.96,48.47,34.13,49.28,34.22,50.16z"/>
	<path class="st44" d="M21.64,44.48c0.3,1.86,0.37,3.63,0.35,5.4c-0.01,0.95,0.25,1.36,1.24,0.97c0.25-0.1,0.54-0.11,0.82-0.14
		c0.21-0.02,0.4,0.07,0.48,0.28c0.11,0.28-0.09,0.5-0.3,0.56c-0.72,0.22-1.45,0.41-2.19,0.54c-0.35,0.07-0.57-0.22-0.72-0.52
		C20.85,50.62,21.03,45.62,21.64,44.48z"/>
	<path class="st45" d="M32.06,48.56c0,0.8,0.01,1.6-0.01,2.4c-0.01,0.34,0.07,0.84-0.41,0.86c-0.46,0.02-0.47-0.48-0.47-0.83
		c-0.03-1.4-0.02-2.8-0.05-4.2c-0.01-0.32,0.19-0.76-0.3-0.92c-0.25-0.08-0.63-0.06-0.53-0.46c0.07-0.3,0.42-0.33,0.69-0.41
		c0.38-0.11,0.77-0.22,1.16-0.3c0.2-0.04,0.4,0.04,0.51,0.23c0.11,0.19,0.12,0.47-0.07,0.53c-1.05,0.33-0.54,1.14-0.57,1.78
		c-0.02,0.44,0,0.88,0,1.32C32.02,48.56,32.04,48.56,32.06,48.56z"/>
	<path class="st46" d="M28.86,49.04c0-0.79-0.01-1.59,0-2.38c0-0.2,0.07-0.43,0.32-0.4c0.11,0.01,0.26,0.2,0.29,0.33
		c0.31,1.65,0.23,3.32,0.19,4.99c-0.01,0.21-0.18,0.4-0.38,0.38c-0.27-0.03-0.37-0.27-0.37-0.53c0-0.79,0-1.59,0-2.38
		C28.89,49.04,28.87,49.04,28.86,49.04z"/>
	<path class="st47" d="M29.51,45.14c-0.32-0.09-0.43-0.3-0.38-0.55c0.05-0.24,0.22-0.43,0.49-0.41c0.32,0.03,0.32,0.3,0.3,0.53
		C29.9,44.97,29.74,45.12,29.51,45.14z"/>
	<path class="st48" d="M7.32,37.97c0.68-0.36,1.02-0.99,1.31-1.66c0.4-0.91,0.88-0.87,1.52-0.21c1.15,1.2,1.23,2.81,1.72,4.27
		C10.08,40.08,8.64,39.13,7.32,37.97z"/>
	<path class="st49" d="M11.36,47.25C9.78,45.9,8.23,44.52,6.8,43c2-1.2,4.07-0.38,4.61,1.84c0.12,0.5,0.18,1.01,0.27,1.52
		C11.66,46.69,11.57,46.99,11.36,47.25z"/>
</g>
</svg>
