<?xml version="1.0" encoding="utf-8"?>
<!-- Generator: Adobe Illustrator 23.0.2, SVG Export Plug-In . SVG Version: 6.00 Build 0)  -->
<svg version="1.1" id="Camada_1" xmlns="http://www.w3.org/2000/svg" xmlns:xlink="http://www.w3.org/1999/xlink" x="0px" y="0px"
	 viewBox="0 0 38.4 64.66" style="enable-background:new 0 0 38.4 64.66;" xml:space="preserve">
<style type="text/css">
	.st0{fill:#010101;}
	.st1{fill:#0F4650;}
	.st2{fill:#184B57;}
	.st3{fill:#134C55;}
	.st4{fill:#F8F9F9;}
	.st5{fill:#1F5861;}
	.st6{fill:#265C65;}
	.st7{fill:#D7EBEF;}
	.st8{fill:#A0B8BC;}
	.st9{fill:#FEFEFE;}
	.st10{fill:#CFDADB;}
	.st11{fill:#FAFCFB;}
	.st12{fill:#B3CACE;}
	.st13{fill:#ACC0C3;}
	.st14{fill:#FAFBFB;}
	.st15{fill:#D7EBEE;}
	.st16{fill:#3B7179;}
	.st17{fill:#1F5559;}
	.st18{fill:#0F4952;}
	.st19{fill:#4C7A81;}
	.st20{fill:#57B587;}
	.st21{fill:#67C692;}
	.st22{fill:#60A58D;}
	.st23{fill:#91E5B5;}
	.st24{fill:#63AD92;}
	.st25{fill:#64BD8E;}
	.st26{fill:#ADC1C3;}
	.st27{fill:#C5CFD0;}
	.st28{fill:#BAC9CB;}
	.st29{fill:#AFC2C4;}
	.st30{fill:#BCC9CB;}
	.st31{fill:#C2CCCE;}
	.st32{fill:#BFCBCD;}
	.st33{fill:#B3C3C5;}
	.st34{fill:#ABC0C2;}
	.st35{fill:#F5F8F8;}
	.st36{fill:#ACC0C2;}
	.st37{fill:#295F66;}
	.st38{fill:#C4CECF;}
	.st39{fill:#B5CBCE;}
	.st40{fill:#357FA2;}
	.st41{fill:#3BAA74;}
	.st42{fill:#1C67A8;}
	.st43{fill:#63A5CA;}
	.st44{fill:#8BD1AB;}
	.st45{fill:#1F78B2;}
	.st46{fill:#3487BC;}
	.st47{fill:#4D97C3;}
	.st48{fill:#519AC5;}
	.st49{fill:#3C8DC0;}
	.st50{fill:#42849F;}
	.st51{fill:#2C7BA5;}
	.st52{fill:#5A90A6;}
	.st53{fill:#49947F;}
	.st54{fill:#579F87;}
	.st55{fill:#84D4A3;}
	.st56{fill:#73B69E;}
	.st57{fill:#1370A8;}
	.st58{fill:#2377A3;}
	.st59{fill:#338770;}
	.st60{fill:#D1DBDC;}
	.st61{fill:#CDD9DA;}
	.st62{fill:#CED9DB;}
	.st63{fill:#D2DCDC;}
	.st64{fill:#C8D6D9;}
	.st65{fill:#B3C8D3;}
	.st66{fill:#508A9D;}
	.st67{fill:#EEB202;}
</style>
<g>
	<path class="st0" d="M0.08,36c0-5.52,0.01-11.04-0.01-16.55c0-0.91,0.34-1.47,1.02-2.12c1.08-1.04,1.88-2.36,2.79-3.57
		c2.1-2.82,4.16-5.67,6.28-8.47c0.6-0.8,1-1.59,0.98-2.61c-0.01-0.51,0.09-1.04,0.21-1.54c0.25-1.02,0.97-1.4,1.88-0.96
		c4.45,2.18,8.9,4.39,13.34,6.58c0.88,0.44,1.77,0.86,2.64,1.33c1.67,0.9,1.93,1.14,1.59,2.98c-0.2,1.09,0.05,1.86,0.71,2.71
		c1.91,2.46,3.59,5.11,5.61,7.47c1.11,1.3,1.29,2.6,1.29,4.14c-0.03,9.92,0,19.83-0.04,29.75c-0.01,1.25,0.17,2.56-0.48,3.75
		c-0.26,0.48-0.56,0.8-1.13,0.95c-5.96,1.55-11.91,3.13-17.86,4.69c-0.99,0.26-1.87,0.14-2.81-0.46c-4.57-2.91-9.18-5.76-13.82-8.55
		c-1.6-0.96-2.3-2.1-2.25-4.05C0.15,46.32,0.05,41.16,0.05,36C0.06,36,0.07,36,0.08,36z"/>
	<path class="st1" d="M29.62,13.29c2.65,3.2,4.91,6.68,7.45,9.95c0.28,0.36,0.22,0.75,0.22,1.15c0,10.2,0,20.39,0,30.59
		c0,0.47,0.09,0.98-0.45,1.27c-0.49-0.49-0.34-1.12-0.34-1.7c-0.01-5.3-0.01-10.6-0.01-15.89c0-0.56,0.06-1.12-0.1-1.66
		c-0.12-0.77-0.22-1.56-0.36-2.33c-0.03-3.15-0.02-6.31-0.01-9.46c0-0.82-0.22-1.19-1.13-0.95c-5.24,1.43-10.5,2.77-15.73,4.19
		c-0.81,0.25-0.92,0.9-0.93,1.61c-0.03,1.35,0.03,2.7-0.03,4.05c-0.08,0.29-0.07,0.76-0.44,0.71c-0.52-0.07-0.38-0.68-0.56-1.04
		c-0.23-1.38-0.09-2.78-0.11-4.17c-0.01-0.7-0.23-1.21-0.85-1.58c-2.83-1.7-5.61-3.48-8.44-5.18c-1.45-0.93-2.89-1.87-4.4-2.7
		c-1.16-0.6-1.25-0.56-1.26,0.73c-0.02,2.11,0.01,4.23-0.01,6.34c-0.01,0.63,0.15,1.18,0.48,1.7c0.01,0.14-0.02,0.27-0.09,0.4
		c-0.42,0.56-0.33,1.22-0.33,1.85C2.16,37.91,2.2,44.67,2.13,51.43c-0.01,1.23,0.59,1.91,1.38,2.61c0.14,0.33,0.06,0.58-0.28,0.73
		c-1.51-0.69-2.01-1.78-2-3.5c0.09-10.02,0.05-20.04,0.04-30.06c0-1.3,0.17-2.38,1.1-3.54c3.17-3.98,6.1-8.16,9.12-12.26
		c0.09-0.12,0.24-0.21,0.36-0.31c0.1-0.08,0.2-0.08,0.3,0c0.08,0.59-0.34,0.96-0.64,1.36c-2.67,3.54-5.1,7.26-7.73,10.84
		c-0.86,1.18-0.85,1.23,0.35,1.97c4.22,2.6,8.46,5.17,12.66,7.81c0.56,0.36,1.03,0.32,1.55-0.01c0.11-0.03,0.23-0.04,0.35-0.03
		c1.38,0.07,2.66-0.39,3.95-0.78c3.94-1.01,7.88-2.03,11.8-3.11c1.16-0.32,1.09-0.3,0.42-1.34c-1.61-2.48-3.42-4.82-5.17-7.19
		c-0.21-0.29-0.45-0.57-0.42-0.96C29.3,13.46,29.42,13.34,29.62,13.29z"/>
	<path class="st2" d="M36.62,36.78c0.37,0.41,0.21,0.92,0.21,1.38c0.01,6.03,0.01,12.06,0.02,18.09c0,2.3,0,2.29-2.31,2.89
		c-5.2,1.37-10.4,2.73-15.6,4.13c-0.9,0.24-1.63,0.18-2.44-0.34c-4.4-2.76-8.83-5.45-13.26-8.17c0.08-0.15,0.16-0.29,0.23-0.44
		c0.08-0.09,0.19-0.13,0.31-0.11c2.88,1.51,5.56,3.35,8.34,5.04c0.88,0.54,1.76,1.08,2.65,1.59c0.73,0.34,1.21,1.21,2.17,1.04
		c0.29-2.31,0-4.63,0.1-6.94c0.03-0.63-0.11-1.29,0.3-1.86c0.21-0.12,0.41-0.11,0.59,0.05c0.36,0.49,0.29,1.07,0.3,1.62
		c0.03,2.08-0.06,4.16-0.02,6.24c0.01,0.43-0.1,0.89,0.19,1.27c0.34,0.27,0.69,0.1,1.03,0.02c3.72-0.95,7.4-2,11.13-2.94
		c1.36-0.4,2.74-0.7,4.11-1.07c0.53-0.14,1.09-0.23,1.42-0.75c0.25-0.5,0.15-1.03,0.15-1.54c0.01-5.84,0-11.68,0.01-17.52
		C36.26,37.9,36.11,37.26,36.62,36.78z"/>
	<path class="st3" d="M12.21,5.14c-0.12-0.01-0.24-0.03-0.36-0.04c0.5-1.03,0.51-2.14,0.53-3.25c0-0.2-0.06-0.54,0.34-0.4
		c0.07,0.02,0.08,0.2,0.13,0.31c0.35,0.39,0.18,0.83,0.12,1.26c-0.05,0.36-0.09,0.72,0.11,1.05c0.13,0.21,0.3,0.41,0.56,0.39
		c0.34-0.02,0.29-0.32,0.32-0.54c0.08-0.63-0.14-1.27,0.03-1.9c1.63,0.4,3.03,1.34,4.52,2.03c2.31,1.07,4.54,2.31,6.8,3.47
		c0.07,0.21-0.06,0.31-0.22,0.38c-0.78,0.22-1.22-0.7-1.97-0.58c-0.36,1.64-0.28,1.83,1.07,2.55c0.31,0.17,0.63,0.33,0.92,0.53
		c0.27,0.19,0.56,0.34,0.87,0.44c0.34,0.11,0.65,0.27,0.92,0.47c0.18-1.18,0-2.23-0.94-3.02c-0.02-0.12,0.01-0.22,0.08-0.31
		c1.12,0.28,2.11,0.86,3.06,1.46c1.09,0.69,0.46,1.73,0.29,2.64c-0.34,0.08-0.39-0.18-0.48-0.4c-0.16-0.62,0.14-1.43-0.75-1.88
		c-0.3,0.97-0.16,1.77,0.34,2.52c0,0.2-0.11,0.32-0.29,0.39c-0.56,0.12-1-0.2-1.46-0.42c-4.09-2.03-8.2-4.05-12.27-6.13
		C13.76,5.74,13.02,5.36,12.21,5.14z"/>
	<path class="st4" d="M13.99,2c0.76,0.94,0.04,1.98,0.29,2.99c-1.8-0.48-1.85-0.55-1.57-2.29c0.05-0.32,0.09-0.63,0.14-0.95
		C13.28,1.59,13.6,1.94,13.99,2z"/>
	<path class="st5" d="M26.04,7.96c0,0.09-0.01,0.18-0.01,0.27c0.11,0.96,0.29,1.92-0.17,2.84c-0.26-0.12-0.53-0.25-0.79-0.37
		c-0.14-0.86-0.02-1.73-0.13-2.6c0-0.13,0.04-0.25,0.12-0.35c0.08-0.08,0.17-0.16,0.25-0.24C25.65,7.51,25.87,7.69,26.04,7.96z"/>
	<path class="st6" d="M29.12,11.54c0.09,0.18,0.18,0.35,0.27,0.53c-0.01,0.42-0.02,0.85,0.22,1.22c-0.1,0.08-0.2,0.16-0.3,0.25
		c-0.14,0.11-0.29,0.11-0.45,0.06c-0.14-0.08-0.26-0.19-0.36-0.31c-0.16-0.21-0.37-0.39-0.4-0.68c0.11-0.09,0.22-0.18,0.32-0.28
		C28.58,12,28.65,11.59,29.12,11.54z"/>
	<path class="st7" d="M19.07,28.15c5.55-1.48,11.1-2.96,16.64-4.45c0.51-0.14,0.73-0.1,0.72,0.5c-0.05,3.47-0.07,6.94-0.1,10.41
		c-0.23,0.34,0,0.7-0.04,1.05c-0.06,0.43-0.12,0.95-0.68,0.98c-0.48,0.03-0.64-0.4-0.74-0.81c-0.17-0.7-0.25-1.41-0.48-2.1
		c-0.26-0.8-0.48-1.8-1.48-1.79c-1.07,0.02-1.25,1.07-1.5,1.91c-0.31,1.04-0.19,2.14-0.45,3.19c-0.11,0.43-0.2,0.86-0.36,1.27
		c-0.69,1.77-2.26,2.08-3.57,0.68c-0.44-0.47-0.78-1.02-1-1.62c-0.15-0.41-0.33-0.81-0.54-1.2c-0.97-1.83-1.99-1.93-3.34-0.32
		c-0.35,0.42-0.65,0.95-1.36,0.75c-0.47-0.44-0.36-1.03-0.38-1.58c-0.04-1.24-0.04-2.47-0.12-3.71
		C20.2,30.09,19.96,29.02,19.07,28.15z"/>
	<path class="st8" d="M3.69,20.02c1.46,0.74,2.83,1.63,4.17,2.56c1.91,1.49,3.85,2.93,5.81,4.33c1.36,0.97,2.03,2.09,1.9,3.81
		c-0.11,1.46-0.11,2.94,0.05,4.41c-0.25,1.29-0.57,2.56-0.99,3.8c-0.16,0.46-0.38,0.88-0.69,1.25c-0.87,1.01-2.11,0.9-2.74-0.27
		c-0.53-0.99-0.78-2.09-1.14-3.14c-0.27-0.77-0.64-1.46-1.27-1.98c-0.54-0.45-1.03-0.38-1.38,0.25c-0.36,0.66-0.59,1.53-1.54,1.41
		c-0.96-0.13-1.27-0.99-1.54-1.79c-0.24-0.72-0.53-1.42-0.68-2.16c-0.03-0.67-0.45-1.27-0.31-1.97c0.01-2.93-0.02-5.87,0-8.8
		C3.35,21.14,3.24,20.52,3.69,20.02z"/>
	<path class="st9" d="M12.21,5.14c0.99-0.51,1.52,0.47,2.28,0.71c0.05,1.03-0.93,1.46-1.3,2.25c-2.51,3.11-4.56,6.56-7.08,9.66
		c-0.76,0.7-0.52,1.05,0.34,1.51c3.87,2.06,7.6,4.35,11.19,6.86c0.29,0.2,0.6,0.4,0.77,0.73c0.04,0.11,0.03,0.22-0.03,0.33
		c-0.36,0.4-0.58,0.91-1.32,0.44c-4.76-2.98-9.55-5.92-14.34-8.87c-0.1-0.06-0.19-0.14-0.25-0.18C5.84,14.13,8.8,9.47,12.21,5.14z"
		/>
	<path class="st10" d="M22.76,26.52c-1.09,0.31-2.18,0.64-3.27,0.92c-0.31,0.08-0.71,0.25-0.89-0.25c0.08-0.4,0.36-0.57,0.72-0.66
		c0.45-0.01,0.7-0.32,0.99-0.61c2.6-2.64,5.27-5.22,7.37-8.31c0.4-0.58,0.92-0.93,1.44-0.28c1.51,1.85,3.39,3.35,4.88,5.2
		c-1.59,1.19-3.47,1.71-5.33,2.25c-1.68,0.49-3.38,0.94-5.08,1.34C23.31,26.19,22.87,26.06,22.76,26.52z"/>
	<path class="st11" d="M3.71,54.35c-0.08-0.01-0.16-0.02-0.24-0.03c-1.47-0.61-1.65-1.76-1.63-3.24c0.09-6.91,0.03-13.82,0.06-20.72
		c0-0.41-0.41-1.19,0.6-1.14c1.06,0.66,0.76,1.89,1.19,2.82c0.11,0.23,0.07,0.54,0.16,0.8c0.09,0.26,0.11,0.54,0.14,0.82
		c0.22,2.48,0,4.96,0.07,7.44c-0.01,4.35,0,8.7-0.01,13.05C4,54.33,3.88,54.4,3.71,54.35z"/>
	<path class="st12" d="M19.07,28.15c1.23,0.27,1.41,1.07,1.49,2.24c0.13,1.86,0.16,3.71,0.19,5.57c0,0.24,0.02,0.48,0.27,0.61
		c-0.39,0.98-1.12,0.75-1.82,0.48c-0.45-0.17-0.8-0.48-1.03-0.91c-0.53-0.63-0.02-1.4-0.27-2.06c0-1.55,0-3.1,0.01-4.65
		C17.92,28.67,18.15,28.09,19.07,28.15z"/>
	<path class="st13" d="M15.43,35.1c-0.45-1.64-0.2-3.31-0.16-4.95c0.03-1.24-0.47-2.01-1.38-2.68c-1.97-1.45-3.93-2.92-5.9-4.38
		c-0.18-0.14-0.46-0.25-0.13-0.51c2.99,1.82,5.98,3.66,8.99,5.46c0.51,0.3,0.55,0.7,0.54,1.2c-0.01,1.47,0.01,2.95,0.02,4.42
		c0.02,0.52-0.43,0.43-0.72,0.55C16.09,34.25,15.99,35.01,15.43,35.1z"/>
	<path class="st14" d="M3.69,20.02c0.01,3.17,0.03,6.33,0.02,9.5c0,0.41,0.19,0.88-0.2,1.23c-0.55-0.5-0.57-1.29-1.02-1.84
		c-0.58-0.03-0.63-0.39-0.63-0.88c0.02-2.69,0.01-5.39-0.01-8.08c-0.01-0.85,0.2-1.16,0.98-0.55C3.11,19.62,3.41,19.81,3.69,20.02z"
		/>
	<path class="st15" d="M22.76,26.52c-0.5-0.13-0.44-0.23,0.01-0.35c1.37-0.37,2.73-0.82,4.11-1.11c2.5-0.53,4.78-1.6,7.08-2.65
		c-0.93-2.07-2.45-3.72-3.83-5.48c-0.64-0.82-1.25-1.65-1.6-2.65c0.01-0.31,0.11-0.57,0.42-0.7c0.12-0.01,0.24-0.02,0.36-0.03
		c2.25,3.12,4.5,6.25,6.85,9.52C31.64,24.22,27.2,25.37,22.76,26.52z"/>
	<path class="st16" d="M18.36,36.06c0.77,0.8,1.58,1.37,2.67,0.51c0.48-0.53,0.94-1.08,1.45-1.58c1-0.98,1.99-0.92,2.84,0.2
		c0.31,0.41,0.51,0.9,0.73,1.36c0.19,0.39,0.3,0.83,0.51,1.21c0.51,0.94,1.17,1.87,2.34,1.77c1.19-0.11,1.46-1.22,1.7-2.2
		c0.14-0.58,0.18-1.18,0.27-1.77c0.1-0.67,0.14-1.36,0.31-2.01c0.25-0.93,0.56-1.97,1.74-2c1.13-0.02,1.45,0.99,1.72,1.87
		c0.22,0.68,0.31,1.4,0.45,2.1c0.08,0.37,0.07,0.79,0.51,1.03c0.59-0.53,0.34-1.37,0.73-1.95c0.11,0.72,0.37,1.43,0.28,2.18
		c-0.01,6.67-0.01,13.34-0.03,20.01c0,0.45,0.2,0.97-0.23,1.36c-0.7-1.06-0.25-2.24-0.37-3.36c-0.04-1.37,0.01-2.74-0.01-4.11
		c-0.02-3.73-0.03-7.46,0-11.19c0.09-0.86-0.06-1.75,0.21-2.79c-0.34,0.49-0.68,0.52-1.04,0.28c-0.38-0.26-0.59-0.64-0.71-1.07
		c-0.15-0.96-0.28-1.93-0.69-2.82c-0.2-0.4-0.44-0.78-0.96-0.7c-0.54,0.08-0.75,0.51-0.9,0.97c-0.25,0.75-0.29,1.53-0.28,2.32
		c-0.16,0.98-0.29,1.97-0.73,2.89c-0.52,1.08-1.27,1.79-2.58,1.54c-0.7-0.26-1.34-0.59-1.78-1.22c-0.52-0.71-0.87-1.5-1.18-2.31
		c-0.11-0.21-0.2-0.44-0.33-0.64c-0.78-1.14-1.47-1.2-2.38-0.18c-0.13,0.15-0.24,0.32-0.37,0.47c-1.33,1.6-2.36,1.76-4.15,0.65
		c-0.09-0.06-0.17-0.14-0.25-0.22C17.61,36.12,17.83,35.96,18.36,36.06z"/>
	<path class="st17" d="M18.36,36.06c-0.11,0.22-0.63,0.04-0.48,0.51c0.32,0.36,0.32,0.8,0.33,1.24c0.07,4.62,0.05,9.24,0.05,13.86
		c0,0.44,0,0.88-0.2,1.29c-0.05,0.06-0.1,0.12-0.15,0.18c-0.16-0.01-0.33-0.02-0.49-0.03c-0.73-1.12-0.28-2.37-0.37-3.56
		c-0.02-0.83-0.04-1.66-0.01-2.48c0.04-2.26-0.06-4.51,0.01-6.77c-0.01-1.5,0.04-3,0.01-4.5c-0.01-0.47,0.05-0.96-0.34-1.33
		c-0.15-0.13-0.29-0.28-0.27-0.5c0.29-0.21,0.72,0.05,0.96-0.3c0.34,0.24,0.13,0.64,0.29,0.95c0.25-0.12,0.11-0.37,0.19-0.54
		C18.05,34.74,18.21,35.4,18.36,36.06z"/>
	<path class="st18" d="M28.95,13.57c-0.1,0.2-0.21,0.41-0.31,0.61c-0.35,1.1-1.16,1.9-1.81,2.8c-2.16,2.97-4.4,5.89-6.61,8.83
		c-0.26,0.35-0.48,0.75-0.96,0.86c-0.22,0.17-0.44,0.34-0.66,0.51c-0.07,0-0.14,0-0.21,0c0-0.08,0.01-0.16,0.02-0.23
		c0.12-0.7,0.62-1.2,1.01-1.73c2.69-3.7,5.45-7.35,8.16-11.04c0.28-0.38,0.46-0.96,1.11-0.91C28.77,13.37,28.86,13.47,28.95,13.57z"
		/>
	<path class="st19" d="M2.49,28.91c0.68,0.42,0.79,1.17,1.02,1.84c0.06,0.59,0.48,1.11,0.41,1.73c-0.08,0.09-0.1,0.24-0.24,0.27
		c-0.38-1.18-0.57-2.42-1.19-3.52C2.49,29.12,2.49,29.02,2.49,28.91z"/>
	<path class="st20" d="M3.71,54.35c0.03-0.07,0.08-0.09,0.15-0.06c0.26-1.74-0.01-3.49,0.13-5.23c0.33-0.76,0.87-0.38,1.29-0.17
		c0.89,0.45,1.73,0.97,2.55,1.54c2.38,1.76,4.74,3.54,6.85,5.62c0.23,0.21,0.45,0.43,0.45,0.77c-0.1,0.99,0.2,1.95,0.26,2.93
		c0.04,0.58,0.02,1.11-0.66,1.33c-3.17-1.7-6.12-3.75-9.21-5.58C4.9,55.14,4.31,54.74,3.71,54.35z"/>
	<path class="st21" d="M30.64,59.63c-4.18,1.1-8.35,2.2-12.53,3.3c-0.26-1.62-0.05-3.25-0.11-4.87c-0.02-0.44,0.27-0.64,0.62-0.78
		c0.63-0.26,1.27-0.47,1.95-0.52c0.14,0,0.27,0.04,0.39,0.1c0.36,0.48,0.31,1.05,0.35,1.6c0.09,1.21,0.24,1.34,1.48,1.19
		c1.46-0.18,2.92-0.39,4.36-0.74c0.76-0.19,1.54-0.47,2.35-0.25C29.95,58.91,30.36,59.2,30.64,59.63z"/>
	<path class="st22" d="M14.99,56.71c-0.16-0.16-0.32-0.32-0.48-0.48c-0.36-2.41-0.55-4.81,0.36-7.15c0.93-0.44,1.72-0.14,2.47,0.44
		c0.02,1.2,0.05,2.4,0.07,3.6c-0.01,2.89,0,5.77-0.04,8.66c0,0.27,0.36,0.95-0.48,0.72c0-0.28-0.09-0.55-0.06-0.83
		c0.2-1.74,0-3.32-1.59-4.42C15.08,57.12,15.02,56.91,14.99,56.71z"/>
	<path class="st23" d="M30.64,59.63c-0.56,0.04-0.84-0.28-1.01-0.76c-0.84-0.72-1.09-1.7-1.18-2.74c0.22-0.79,0.9-0.76,1.46-0.68
		c1.34,0.2,2.71,0.06,4.02,0.45c0.54,0.16,0.91-0.03,1.26-0.42c0.31-0.34,0.57-0.8,1.16-0.68c0.01,1.12,0.01,2.24,0.02,3.36
		C34.45,58.64,32.55,59.14,30.64,59.63z"/>
	<path class="st24" d="M20.75,56.95c-2.64,0.94-2.64,0.94-2.64,3.85c0,0.71,0,1.42,0,2.13c-0.38-0.31-0.21-0.74-0.21-1.11
		c-0.01-2.89,0-5.79,0-8.68c0,0,0.03,0,0.03,0c1.57-0.71,3.2-0.81,4.86-0.42c0.29,0.63-0.26,0.65-0.58,0.66
		c-0.86,0.02-1.01,0.52-1.09,1.24C21.05,55.4,21.31,56.25,20.75,56.95z"/>
	<path class="st25" d="M14.99,56.71c0.62,0.56,1.24,1.12,1.87,1.66c0.16,0.14,0.3,0.28,0.28,0.49c-0.12,1.2,0.33,2.45-0.25,3.62
		c-0.75-0.43-1.53-0.81-2.17-1.4c0.74-0.85,0.22-1.79,0.14-2.68C14.81,57.82,14.57,57.24,14.99,56.71z"/>
	<path class="st26" d="M28.69,13.27c-3.17,4.26-6.34,8.52-9.52,12.77c-0.24,0.32-0.5,0.61-0.76,0.91c-4.22-2.81-8.45-5.62-13-7.87
		c-0.5-0.25-0.49-0.42-0.15-0.76c0.22-0.23,0.43-0.48,0.64-0.71c0.94-0.01,1.62,0.61,2.36,1.03c3.06,1.74,5.97,3.7,8.79,5.81
		c0.38,0.28,0.7,0.59,1.09,0.05c1.87-2.6,4.4-4.63,6.31-7.2c1.22-1.63,1.22-1.62-0.51-2.59c-3.52-1.97-6.92-4.14-10.36-6.25
		c-0.2-0.12-0.42-0.24-0.54-0.46c0.28-0.85,1.08-1.34,1.45-2.14c4.35,2.18,8.71,4.35,13.06,6.53c0.18,0.09,0.36,0.16,0.55,0.23
		C28.29,12.84,28.71,12.86,28.69,13.27z"/>
	<path class="st27" d="M19.99,8.02c-0.48-0.88-0.03-1.74,0.03-2.62c2.33,0.72,2.41,0.82,2.17,2.58C21.46,7.93,20.71,7.37,19.99,8.02
		z"/>
	<path class="st28" d="M25.86,11.07c0.05-0.95-0.34-1.92,0.17-2.84c1.8,0.65,1.13,2.12,1.21,3.49
		C26.7,11.47,26.28,11.27,25.86,11.07z"/>
	<path class="st29" d="M25.11,7.92c0.28,0.93,0.37,1.86-0.04,2.78c-0.24-0.13-0.47-0.28-0.72-0.4c-1.93-1.01-2-1.16-1.43-3.45
		c0.44,0.51,0.31,1.08,0.14,1.65c0.98-0.22,1.35-0.05,1.78,0.91C24.93,8.86,24.58,8.3,25.11,7.92z"/>
	<path class="st30" d="M29.12,11.54c-0.19,0.31-0.15,0.8-0.7,0.8c-0.65-0.17-0.71-0.64-0.67-1.2c0.03-0.59,0.01-1.19,0.01-1.79
		C29.29,9.42,29.25,10.46,29.12,11.54z"/>
	<path class="st31" d="M17.6,6.81c-0.67-0.8-0.09-1.7-0.26-2.56c2.01,0.32,2.3,0.67,2.03,2.32C18.76,6.54,18.12,6.29,17.6,6.81z"/>
	<path class="st32" d="M25.11,7.92c0,0.48,0,0.96,0,1.62c-0.86-0.95-2.91-0.65-2.19-2.7c0.82,0.04,1.35,0.78,2.14,0.91
		C25.07,7.81,25.09,7.86,25.11,7.92z"/>
	<path class="st33" d="M16.24,3.37c0.51,0.33,0.96,2.52,0.49,2.78c-0.57,0.32-1.05-0.24-1.53-0.52c-0.19-0.4,0.75-0.62,0.18-1.09
		C15.45,4,15.78,3.64,16.24,3.37z"/>
	<path class="st34" d="M19.99,8.02c0.59-1.13,0.59-1.13,2.2-0.03c0,0.35,0,0.7,0,1.24C21.36,8.77,20.68,8.39,19.99,8.02z"/>
	<path class="st35" d="M16.24,3.37c-0.25,0.42-0.49,0.84-0.74,1.26c-0.08,0.4-0.2,0.76-0.72,0.69c0-0.86,0-1.72,0-2.82
		C15.39,2.87,15.81,3.12,16.24,3.37z"/>
	<path class="st29" d="M17.6,6.81c0.16-1.15,0.32-1.17,1.76-0.24c0.02,0.35,0.08,0.7-0.11,1.06C18.65,7.46,18.1,7.17,17.6,6.81z"/>
	<path class="st36" d="M14.78,5.33c0.39-0.07,0.41-0.54,0.72-0.69c0.22,0.15,0.6,0.16,0.6,0.5c-0.02,0.61-0.76,0.01-0.89,0.49
		C15.04,5.56,14.84,5.55,14.78,5.33z"/>
	<path class="st37" d="M3.68,32.75c0.08-0.09,0.16-0.18,0.24-0.27c0.31,1.03,0.59,2.07,1.12,3.01c0.23,0.4,0.53,0.87,1.09,0.78
		c0.48-0.08,0.65-0.54,0.82-0.94c0.66-1.54,1.51-1.64,2.55-0.3c0.92,1.17,1.08,2.64,1.59,3.96c0.29,0.75,0.49,1.61,1.49,1.62
		c0.96,0.01,1.37-0.76,1.63-1.52c0.45-1.31,0.8-2.66,1.19-4c0.29-0.42,0.46-0.96,1.03-1.13c0.08,0.06,0.15,0.12,0.23,0.18
		c0.05,0.06,0.08,0.13,0.08,0.2c0,0.07-0.01,0.11-0.02,0.11c-0.46,0.69-0.94,1.38-1.1,2.22c-0.31,1.06-0.46,2.17-1.01,3.16
		c-0.29,0.53-0.66,0.98-1.2,1.28c-0.78,0.41-1.48,0.23-2.12-0.31c-0.79-0.88-1.01-2.02-1.4-3.09c-0.24-0.87-0.41-1.78-1.08-2.46
		c-0.39-0.4-0.77-0.58-1.13,0.03c-0.48,0.73-0.73,1.78-1.92,1.59c-0.86-0.14-1.8-1.42-1.93-2.49c-0.04-0.31,0.04-0.63-0.07-0.94
		C3.74,33.21,3.71,32.98,3.68,32.75z"/>
	<path class="st38" d="M13.05,7.98c1.08,0.25,1.9,0.99,2.82,1.53c3.09,1.82,6.14,3.71,9.23,5.52c0.75,0.44,0.92,0.74,0.3,1.49
		c-1.1,1.36-2.11,2.79-3.39,4.01c-1.42,1.35-2.66,2.86-3.84,4.41c-0.26,0.35-0.37,0.53-0.8,0.18c-3.35-2.72-6.96-5.05-10.77-7.07
		c-0.24-0.13-0.47-0.3-0.7-0.46c2.14-2.95,4.29-5.9,6.43-8.85C12.53,8.46,12.71,8.15,13.05,7.98z"/>
	<path class="st39" d="M19.26,26.68c3.13-4.16,6.25-8.33,9.38-12.49c1.39,2.62,3.7,4.59,5.11,7.19c0.17,0.31,0.64,0.59,0.21,1.03
		c-1.75-1.02-2.93-2.65-4.31-4.07c-0.22-0.23-0.41-0.49-0.61-0.74c-0.39-0.48-0.69-0.52-1.08,0.07c-2.18,3.33-5.11,5.99-7.81,8.86
		C19.82,26.89,19.61,26.88,19.26,26.68z"/>
	<path class="st40" d="M3.77,33.44c0.27,0.85,0.42,1.74,1.06,2.44c1.04,1.12,1.55,1.09,2.32-0.21c0.12-0.2,0.26-0.38,0.39-0.58
		c0.09,1.66,1.5,1.88,2.62,2.41c0.31,1.08,0.64,2.15,1.24,3.11c-0.54,0.68-1.08,0.23-1.56-0.04c-1.27-0.74-2.56-1.43-3.83-2.16
		c-1.45-0.83-1.52-0.78-1.53,0.84c0,0.55,0.06,1.11-0.11,1.65c-0.05,0.11-0.13,0.2-0.23,0.27c-0.12,0.03-0.24,0.01-0.34-0.07
		C3.8,38.56,3.79,36,3.77,33.44z"/>
	<path class="st41" d="M3.82,41.12c0.05,0.01,0.1,0.01,0.15,0.03c0.4,0.43,0.31,0.97,0.31,1.48c0.03,1.92-0.03,3.84,0.04,5.75
		c0,0.15-0.04,0.29-0.12,0.42c0,1.49,0.01,2.98-0.01,4.47c0,0.37,0.15,0.81-0.33,1.03C3.74,49.9,3.71,45.51,3.82,41.12z"/>
	<path class="st42" d="M22.9,52.9c-1.67-0.17-3.31,0.16-4.97,0.24c-0.02-5.53-0.04-11.05-0.06-16.58c0.08-0.01,0.15-0.01,0.23,0
		c0.34,0.44,0.38,0.97,0.31,1.47c-0.16,1.27,0.29,2.14,1.49,2.61c0.29,0.11,0.55,0.31,0.83,0.46c0.33,0.17,0.66,0.35,1.02,0.45
		c1.89,0.85,3.86,0.78,5.85,0.54c2.56-0.49,4.79-1.84,7.16-2.82c0.51-0.21,1.01-0.52,1.56-0.12c0,3.88,0,7.75,0,11.63
		c-1.71,2.44-4.05,3.44-6.99,3.05c-0.51-0.07-1.02-0.16-1.52-0.27c-1.27-0.12-2.52-0.37-3.8-0.35C23.62,53.21,23.22,53.21,22.9,52.9
		z"/>
	<path class="st43" d="M36.34,39.15c-1.66,0.18-2.97,1.24-4.47,1.81c-1.36,0.52-2.65,1.23-4.14,1.36c-1.28,0.2-2.55,0.11-3.88-0.11
		c1.48-0.74,3.01-1.34,4.34-2.3c1.18,0.15,1.96-0.4,2.45-1.42c1.47-0.3,2.44-1.35,3.48-2.32c0.16-0.15,0.24-0.43,0.55-0.34
		c0.4,0.6,0.55,1.81,1.68,0.64C36.34,37.42,36.34,38.28,36.34,39.15z"/>
	<path class="st44" d="M27.96,53.34c0.59,0.08,1.17,0.17,1.76,0.23c2.19,0.25,4.03-0.54,5.64-1.95c0.32-0.28,0.65-0.57,0.98-0.85
		c0,1.34,0,2.68,0.01,4.02c-1.45,1.17-1.64,1.18-3.57,1.22c-1.08,0.02-2.11-0.3-3.18-0.26c-0.38,0.01-0.84-0.11-0.92,0.48
		c-0.34,0.07-0.43-0.19-0.55-0.41c-0.22-0.55-0.36-1.13-0.48-1.7C27.57,53.83,27.33,53.38,27.96,53.34z"/>
	<path class="st45" d="M20.75,41.35c-0.89-0.16-1.51-0.86-2.32-1.19c-0.37-0.15-0.31-0.52-0.31-0.84c-0.01-0.92,0-1.84-0.01-2.76
		c1.8,1.19,2.81,1.04,4.04-0.66c0.48-0.66,1-1.42,1.89-1.21c0.84,0.2,1.33,0.96,1.51,1.84c0.28,0.59-0.2,0.77-0.55,0.97
		c-0.89,0.52-1.84,0.92-2.82,1.21c-0.7,0.2-1.1,0.53-1.02,1.33C21.2,40.51,21.13,40.99,20.75,41.35z"/>
	<path class="st46" d="M20.75,41.35c-0.06-0.62,0.21-1.21,0.05-1.87c-0.15-0.65,0.48-0.85,0.98-0.98c1.09-0.27,2.09-0.75,3.08-1.25
		c0.31-0.16,0.69-0.26,0.7-0.72c0.39,0.73,0.78,1.45,1.17,2.18c-0.4,0.97-1.38,1.08-2.16,1.48c-1.03,0.53-2.31,0.57-3.07,1.62
		C21.24,41.65,20.99,41.5,20.75,41.35z"/>
	<path class="st47" d="M21.48,41.81c0.1-0.69,0.43-1.04,1.17-1.25c1.44-0.4,2.84-0.94,4.07-1.84c0.33,0.6,1.02,0.75,1.46,1.2
		c-0.9,1.53-2.54,1.73-4.02,2.41c1.19,0,2.37,0,3.56,0C25.59,42.8,23.51,42.67,21.48,41.81z"/>
	<path class="st48" d="M34.66,35.83c-0.71,1.24-1.93,1.9-3.02,2.7c-0.34,0.25-0.67,0.13-1-0.05c0.35-0.94,0.52-1.92,0.68-2.9
		c0.24-0.28,0.59-0.38,0.88-0.58c0.78-0.54,1.59-1.06,1.76-2.11C34.48,33.81,34.68,34.8,34.66,35.83z"/>
	<path class="st49" d="M33.96,32.9c0.03,1.34-1,2.4-2.64,2.68c-0.09-0.92,0.05-1.81,0.39-2.66c0.19-0.48,0.47-0.93,1.09-0.95
		C33.45,31.96,33.83,32.27,33.96,32.9z"/>
	<path class="st50" d="M4.19,41.11c0-1,0.03-1.99,0-2.99c-0.03-0.81,0.27-0.89,0.91-0.53c1.63,0.92,3.27,1.81,4.89,2.73
		c0.46,0.26,0.88,0.54,1.43,0.29c0.59,0.37,1.19,0.71,1.9,0.28c0.5,0.58,1.04,0.84,1.71,0.23c0.09-0.08,0.22-0.17,0.32-0.13
		c0.92,0.3,1.52-0.16,2.03-0.84c0,2.31,0,4.62,0,6.94c-0.52-0.05-0.46-0.48-0.49-0.8c-0.06-0.6,0.02-1.23-0.82-1.36
		c-0.78-0.12-0.88,0.52-1.15,0.98c-0.55,0.68-1.12,0.26-1.69,0.03c-0.76-0.31-1.42-1.26-2.39-0.31c-0.19,0.18-0.42-0.23-0.56-0.47
		c-0.14-0.37-0.2-0.76-0.31-1.14c-0.62-2.25-1.86-2.87-4.12-2.06c-0.75,0.39-1.17-0.2-1.67-0.56C4.09,41.3,4.1,41.2,4.19,41.11z"/>
	<path class="st51" d="M17.36,40.16c-0.22,0.17-0.22,0.41-0.21,0.65c0.03,0.65-0.2,0.9-0.86,0.6c-0.58-0.27-1.05-0.25-1.58,0.28
		c-0.55,0.55-1.16,0.17-1.41-0.79c1.09-0.72,1.41-1.86,1.72-3.03c0.12-0.45,0.09-0.96,0.45-1.33c0.32,0.27,0.23,0.65,0.29,0.99
		c0.07,0.37,0.35,0.53,0.69,0.53c0.4,0,0.38-0.34,0.38-0.61c-0.01-1.03,0.11-2.06-0.19-3.07c0.01-0.08,0.02-0.15,0.04-0.23
		c0.71-0.06,0.72,0.42,0.71,0.93C17.38,36.77,17.37,38.47,17.36,40.16z"/>
	<path class="st52" d="M14.75,45.91c0.26-1.46,0.69-1.7,2-1.19c0.41,0.16,0.36,0.45,0.4,0.76c0.07,0.54-0.19,1.12,0.2,1.61
		c-0.01,0.8-0.01,1.61-0.02,2.41c-0.78-0.16-1.57-0.32-2.35-0.48c-0.16,0.07-0.28,0.03-0.38-0.12C14.3,47.9,14.23,46.89,14.75,45.91
		z"/>
	<path class="st53" d="M4.19,41.35c0.57-0.13,0.8,0.7,1.4,0.48c1.77,1.21,3.3,2.69,4.77,4.23c0.19,0.25,0.29,0.52,0.25,0.83
		c-0.69,1.17-1.73,2.13-2.16,3.48c-0.08,0.25-0.33,0.45-0.66,0.33c-1.23-0.57-2.23-1.58-3.59-1.91c0-0.08,0-0.16-0.01-0.24
		C4,46.15,4,43.75,4.19,41.35z"/>
	<path class="st54" d="M7.79,50.71c0.16-0.17,0.42-0.31,0.47-0.5c0.35-1.36,1.28-2.34,2.17-3.34c0.49-0.13,0.75,0.22,0.95,0.55
		c0.48,0.81,1.18,1.11,2.08,1.1c0.48-0.01,0.94,0.15,1.29,0.51c0.08,0,0.16,0.01,0.24,0.01c-0.08,0.74-0.09,1.49-0.27,2.21
		c-0.27,1.1-0.26,2.16,0,3.26c0.13,0.56,0.13,1.18-0.21,1.72C12.37,54.26,10.08,52.49,7.79,50.71z"/>
	<path class="st55" d="M28.43,55.74c0.01,0.2,0.05,0.38,0.24,0.49c0.32,0.88,0.64,1.76,0.96,2.64c-1.57,0.01-3.02,0.63-4.55,0.83
		c-1.1,0.14-2.2,0.25-3.3,0.36c-0.45,0.04-0.79-0.08-0.78-0.63c0.01-0.83,0-1.65,0-2.48c0.31-0.5,0.85-0.55,1.34-0.7
		c1.62-0.48,3.3-0.56,4.96-0.78C27.7,55.42,28.08,55.51,28.43,55.74z"/>
	<path class="st56" d="M28.43,55.74c-2.52,0.17-5.01,0.49-7.43,1.21c-0.08,0-0.16,0-0.24,0c0.02-1.1,0.06-2.21,0.05-3.31
		c0-0.46,0.26-0.5,0.6-0.53c0.5-0.05,1.04,0.18,1.5-0.2c1.7-0.06,3.4-0.05,5.06,0.44C27.67,54.23,28.29,54.93,28.43,55.74z"/>
	<path class="st57" d="M16.64,34.38c0.49,0.04,0.52,0.39,0.51,0.77c-0.01,0.91,0.01,1.82-0.01,2.73c-0.01,0.3,0.1,0.94-0.45,0.64
		c-0.44-0.24-1.31,0.1-1.31-0.81c0-0.39,0.06-0.78,0.1-1.18C15.58,35.66,15.88,34.9,16.64,34.38z"/>
	<path class="st58" d="M10.17,37.51c-1.06,0.2-1.81-0.49-2.59-0.99c-0.61-0.39,0.15-0.94-0.03-1.42c0.18-0.8,0.57-0.87,1.18-0.38
		C9.62,35.44,9.89,36.48,10.17,37.51z"/>
	<path class="st59" d="M4.19,41.35c0,2.4,0,4.8,0,7.2c-0.43-0.48-0.21-1.06-0.22-1.59c-0.03-1.94,0-3.88,0-5.82
		c0.07-0.02,0.14-0.04,0.22-0.04C4.19,41.19,4.19,41.27,4.19,41.35z"/>
	<path class="st60" d="M26.21,44.29c-0.14,0.63-0.62,0.65-1.03,0.68c-1.54,0.1-0.73,1.23-0.79,1.89c-0.1,0.96,0.63,0.51,1.08,0.48
		c0.33-0.02,0.7-0.2,0.98,0.21c-0.44,0.81-1.71,0.1-1.96,0.98c-0.19,0.69-0.04,1.49-0.04,2.36c0.6-0.28,1.1-0.52,1.59-0.74
		c0.24-0.11,0.49-0.08,0.61,0.18c0.1,0.23-0.1,0.37-0.26,0.48c-0.64,0.42-1.33,0.72-2.06,0.95c-0.52,0.16-0.66-0.18-0.67-0.56
		c-0.04-2.04-0.06-4.08-0.08-6.12c0-0.3,0.04-0.61,0.4-0.63C24.71,44.39,25.44,44.09,26.21,44.29z"/>
	<path class="st60" d="M33.01,48.95c0.12,0,0.21,0.02,0.27,0c0.5-0.21,1.12-0.99,1.51-0.34c0.32,0.55-0.62,0.87-1.05,1.23
		c-0.39,0.32-0.81,0.81-1.36,0.55c-0.58-0.27-0.38-0.91-0.38-1.41c0-1.04,0.01-2.08,0.08-3.11c0.05-0.83,0.34-1.56,1.22-1.88
		c0.23-0.08,0.49-0.13,0.61,0.16c0.1,0.24-0.12,0.35-0.28,0.46c-0.23,0.16-0.57,0.26-0.67,0.48c-0.15,0.35-0.48,0.93,0.35,0.93
		c0.26,0,0.49,0,0.6,0.25c0.13,0.29-0.1,0.46-0.29,0.58C32.7,47.36,32.97,48.18,33.01,48.95z"/>
	<path class="st61" d="M30.86,47.42c0,0.8,0.01,1.6-0.01,2.4c-0.01,0.34,0.04,0.83-0.44,0.82c-0.45-0.01-0.44-0.51-0.45-0.85
		c-0.03-1.4-0.02-2.8-0.05-4.2c-0.01-0.29,0.14-0.66-0.23-0.86c-0.25-0.13-0.76-0.02-0.59-0.52c0.11-0.32,0.51-0.34,0.82-0.42
		c0.35-0.09,0.69-0.24,1.04-0.25c0.45-0.02,0.78,0.49,0.45,0.66c-1.26,0.65-0.41,1.68-0.58,2.5c-0.05,0.23-0.01,0.48-0.01,0.72
		C30.84,47.42,30.85,47.42,30.86,47.42z"/>
	<path class="st62" d="M20.73,47.1c0.02,0.28,0.03,0.56,0.06,0.83c0.05,0.59-0.21,1.31,0.22,1.73c0.43,0.42,1.03-0.1,1.56-0.13
		c0.33-0.02,0.72-0.05,0.78,0.34c0.05,0.36-0.29,0.53-0.62,0.61c-0.04,0.01-0.08,0.01-0.12,0.02c-2.38,0.72-2.78,0.43-2.75-2.1
		c0.02-1.61,0.15-3.22,0.23-5.02c0.61,0.44,0.44,0.88,0.46,1.27C20.79,45.46,20.46,46.3,20.73,47.1z"/>
	<path class="st63" d="M27.65,47.84c0-0.75-0.01-1.51,0-2.26c0-0.19,0-0.44,0.24-0.48c0.33-0.06,0.39,0.24,0.43,0.45
		c0.23,1.58,0.19,3.17,0.16,4.76c0,0.25-0.13,0.5-0.42,0.47c-0.28-0.03-0.36-0.29-0.36-0.54c0-0.79,0-1.59,0-2.38
		C27.68,47.84,27.67,47.84,27.65,47.84z"/>
	<path class="st64" d="M28.73,43.38c-0.02,0.34-0.14,0.56-0.41,0.57c-0.26,0.01-0.41-0.2-0.4-0.47c0.01-0.27,0.2-0.45,0.43-0.49
		C28.67,42.95,28.69,43.23,28.73,43.38z"/>
	<path class="st65" d="M20.73,47.1c-0.42-0.79-0.16-1.63-0.19-2.45C20.86,45.45,20.72,46.28,20.73,47.1z"/>
	<path class="st66" d="M14.75,49.02c-1.8,0-3.34-0.52-4.32-2.16c-0.09-0.26-0.18-0.53-0.28-0.79c-0.06-0.36-0.02-0.68,0.31-0.89
		c0.16,0.02,0.3,0.45,0.4,0.2c0.41-1.12,0.98-0.51,1.56-0.23c0.74,0.35,1.33,1.18,2.32,0.76C14.75,46.95,14.75,47.98,14.75,49.02z"
		/>
	<path class="st67" d="M10.47,45.18c-0.02,0.33-0.11,0.63-0.31,0.89c-1.58-1.35-3.13-2.73-4.56-4.25c2-1.2,4.07-0.37,4.61,1.84
		C10.32,44.16,10.38,44.68,10.47,45.18z"/>
</g>
</svg>
