<?xml version="1.0" encoding="utf-8"?>
<!-- Generator: Adobe Illustrator 23.0.2, SVG Export Plug-In . SVG Version: 6.00 Build 0)  -->
<svg version="1.1" id="Camada_1" xmlns="http://www.w3.org/2000/svg" xmlns:xlink="http://www.w3.org/1999/xlink" x="0px" y="0px"
	 viewBox="0 0 52.53 30.13" style="enable-background:new 0 0 52.53 30.13;" xml:space="preserve">
<style type="text/css">
	.st0{fill:#FEFEFE;}
	.st1{fill:#862919;}
	.st2{fill:#34441E;}
	.st3{fill:#BD3709;}
	.st4{fill:#637F30;}
	.st5{fill:#A03316;}
	.st6{fill:#CA623A;}
	.st7{fill:#5D8C43;}
	.st8{fill:#87AA3B;}
	.st9{fill:#D4845D;}
	.st10{fill:#DFA682;}
	.st11{fill:#9ABA3A;}
	.st12{fill:#DA9973;}
	.st13{fill:#363A15;}
	.st14{fill:#D3D95A;}
	.st15{fill:#CE6E45;}
	.st16{fill:#D4835B;}
	.st17{fill:#F7EF65;}
	.st18{fill:#E6BB99;}
	.st19{fill:#323131;}
	.st20{fill:#353434;}
	.st21{fill:#464240;}
	.st22{fill:#D5835C;}
	.st23{fill:#D5835B;}
	.st24{fill:#D98A62;}
	.st25{fill:#4D4643;}
	.st26{fill:#2B2829;}
	.st27{fill:#3E3D3D;}
	.st28{fill:#DD875E;}
	.st29{fill:#10171C;}
	.st30{fill:#5D5556;}
	.st31{fill:#1E1D1E;}
	.st32{fill:#3B3A3A;}
	.st33{fill:#393838;}
	.st34{fill:#1D1D1E;}
	.st35{fill:#3B3B3B;}
	.st36{fill:#201F20;}
	.st37{fill:#3F3B3A;}
	.st38{fill:#494645;}
	.st39{fill:#464544;}
	.st40{fill:#383838;}
	.st41{fill:#343334;}
	.st42{fill:#474646;}
</style>
<g>
	<path class="st0" d="M52.53,12.32c-0.47,4.28-1.55,8.77-5.43,11.83c-3.98,3.14-8.42,5.61-13.61,5.92
		c-4.23,0.25-8.41-0.36-12.51-1.62c-2.85-0.88-5.8-1.44-8.74-2.02c-1.32-0.26-2.7-0.35-4.04-0.26c-2.32,0.15-4-0.87-5.38-2.56
		c-1.1-1.35-2.24-2.6-2.7-4.43c-0.52-2.1,0.64-3.45,2.25-4.55c0.88-0.6,1.86-1.12,2.87-1.44c4.28-1.34,7.4-4.51,11.03-6.86
		C21.71,2.8,27.51,0.46,34,0.07c4.11-0.25,8.25,0.19,12,1.77C50.95,3.92,52.12,6.06,52.53,12.32z"/>
	<path d="M35.47,1.16c3.2,0.2,5.92,0.49,8.53,1.23c5.68,1.6,7.7,4.84,7.21,10.72c-0.32,3.8-1.51,7.53-4.73,9.98
		c-4.38,3.33-9.02,5.83-14.9,5.82c-4.79-0.01-9.16-1.56-13.71-2.43c-1.84-0.35-3.64-0.92-5.48-1.2c-1.69-0.25-3.41-0.25-5.12-0.36
		c-0.48-0.03-1,0.07-1.4-0.24c-1.99-1.54-3.95-3.12-4.5-5.78c-0.27-1.3,0.38-2.62,1.64-3.28c1.48-0.77,2.95-1.53,4.54-2.08
		c2.27-0.78,4.01-2.43,5.91-3.8c3.96-2.85,8.06-5.44,12.73-6.99C29.36,1.66,32.65,1.33,35.47,1.16z"/>
	<path class="st1" d="M4.5,21.78c-0.81-0.95-1.88-1.7-1.94-3.16c-0.04-0.99,0.4-1.58,1.16-2.05c0.34-0.21,0.68-0.43,1.05-0.55
		c5.16-1.68,9.1-5.37,13.56-8.2c5.56-3.53,11.56-5.5,18.17-5.46c0.39,0,0.81-0.11,1.15,0.2c-0.73,0.58-1.6,0.28-2.4,0.34
		c-0.63,0.04-1.27-0.02-1.77,0.49C32.65,3.69,31.79,3.9,30.93,4c-4.27,0.48-8,2.35-11.63,4.47c-2.1,1.16-4.05,2.56-5.93,4.03
		c-2.2,1.73-4.69,2.85-7.18,4.02c-0.47,0.22-0.96,0.39-1.44,0.6c-0.67,0.3-1.14,0.75-1.09,1.55c0.06,0.86,0.54,1.4,1.33,1.66
		c0.78,0.25,1.58,0.2,2.37,0.09c0.95-0.13,1.88-0.36,2.84-0.43c4.55-0.67,9.09,0.13,13.64,0c4.14-0.12,8.22-0.72,12.15-1.92
		c2.71-0.83,5.04-2.57,7.3-4.29c0.32-0.24,0.62-0.51,0.95-0.73c0.31-0.2,0.58-0.47,0.98-0.47c0.4,0.3,0.19,0.72,0.23,1.1
		c-0.33,0.78-1.13,1.06-1.7,1.57c-1.05,0.77-2.13,1.51-3.22,2.23c-1.45,0.9-3.08,1.44-4.59,2.21c-2.71,0.85-5.42,1.64-8.3,1.48
		c-1.8-0.1-3.58,0.18-5.37,0.26c-2.28,0.1-4.53-0.3-6.81-0.28c-0.92,0.01-1.83-0.05-2.73,0.22c-2.34,0.21-4.66,0.62-7.02,0.52
		C5.31,21.96,4.89,22.03,4.5,21.78z"/>
	<path class="st2" d="M4.5,21.78c0.33-0.07,0.66-0.15,0.99-0.22c1.12,1.27,2.63,1.18,4.15,1.39c5.02,0.68,10.04,1.46,14.91,2.93
		c6.28,1.89,12.24,1.26,17.77-2.43c1.31-1.16,2.51-2.43,3.74-3.68c0.28-0.33,0.5-0.7,0.73-1.06c0.39-0.45,0.51-1.11,1.12-1.38
		c0.31-0.02,0.56,0.07,0.73,0.34c-0.55,1.2-0.75,2.65-1.89,3.45c-1.65,1.15-2.98,2.68-4.77,3.67c-2.46,1.37-5.01,2.43-7.79,2.88
		c-1.95,0.32-3.88-0.32-5.84-0.13c-1.2,0.12-2.38-0.18-3.52-0.54c-4.18-1.29-8.52-1.96-12.76-3.01c-1.26-0.31-2.64-0.24-3.92-0.21
		C6.42,23.82,5.42,23,4.5,21.78z"/>
	<path class="st3" d="M45.33,13.59c-0.24-0.33,0.02-0.67-0.01-1c0.03-0.78,0.74-1.19,0.99-1.85c0.63-1.2,1.57-2.27,1.53-3.74
		c-1.13-1.45-2.66-2.21-4.42-2.6c-1.33-0.22-2.64-0.58-4-0.57c-0.32,0-0.63-0.06-0.88-0.3c-0.11-0.35-0.22-0.71,0.34-0.76
		c2.59,0.41,5.3,0.35,7.6,1.91c0.82,0.55,1.62,1.13,2.25,1.91c0.18,0.57,0.59,1.11,0.3,1.76c-0.35,1-0.9,1.91-1.35,2.88
		c-0.36,0.65-0.82,1.24-1.31,1.8C46.12,13.34,45.86,13.76,45.33,13.59z"/>
	<path class="st4" d="M48.74,8.31c0.42-0.57-0.12-1.14-0.01-1.71c1.12,1.33,1.21,3,1.38,4.61c0.24,2.29-0.48,4.41-1.46,6.45
		c-0.23-0.07-0.46-0.15-0.7-0.22c-0.32-0.5,0.04-0.9,0.21-1.31c0.23-0.55,0.4-1.1,0.45-1.69C49.25,12.4,48.97,10.35,48.74,8.31z"/>
	<path class="st5" d="M38.88,2.78c-0.29,0.17-0.27,0.45-0.27,0.72C37.42,3.94,36.2,3.47,35,3.64c-0.58-0.02-1.19,0.1-1.67-0.37
		c0.29-0.56,0.77-0.72,1.37-0.7c0.98,0.03,1.97,0,2.95,0C38.06,2.61,38.5,2.51,38.88,2.78z"/>
	<path class="st6" d="M33.32,3.27c0.56,0.01,1.13,0.02,1.69,0.03c1.31,0.4,2.43,1.07,3.18,2.27c0.23,0.32,0.5,0.62,0.5,1.05
		c-0.05,0.17-0.16,0.3-0.31,0.4c-0.25,0.14-0.52,0.22-0.8,0.29c-0.22,0.05-0.45,0.05-0.67,0c-0.53-0.16-1.07-0.14-1.61-0.06
		c-0.6-0.12-1.16-0.56-1.81-0.19c-1.66,0.03-3.2,0.66-4.81,0.95c-0.53-0.26-0.97-0.29-1.16,0.41c-0.65,0.27-1.3,0.64-1.99,0.69
		c-0.78,0.06,0.19,0.35-0.1,0.42c-1.22,0.72-2.41,1.51-3.89,1.63c-0.29,0.35-0.45,0.83-0.98,0.94c-2.22,0.91-4.28,2.12-6.5,3.37
		c0.73,0.61,1.46,0.7,2.2,0.68c3.81-0.13,7.57,0.4,11.35,0.66c0.24-0.01,0.46,0.05,0.68,0.13c0.6,0.21,1.03-0.22,1.53-0.41
		c4.37-0.65,8.01-2.67,11.1-5.78c0.55-0.56,1.01-1.24,1.79-1.54c0.66,0.63,1.12,1.44,1.81,2.04c0.02,0.28-0.09,0.51-0.29,0.7
		c-1.34,1.27-2.77,2.42-4.23,3.53c-3.13,2.37-6.72,3.3-10.57,3.78c-5.31,0.66-10.61-0.08-15.91,0.2c-1.75,0.09-3.51,0.12-5.22,0.55
		c-0.7,0.19-1.42,0.11-2.14,0.13c-0.97,0.03-1.42-0.58-1.72-1.38c-0.31-0.86,0.23-1.34,0.81-1.8c0.51-0.41,1.14-0.59,1.74-0.75
		c2.89-0.76,5.31-2.31,7.47-4.3c1.46-1.35,3.09-2.48,4.7-3.64c1.3-1.16,2.95-1.66,4.46-2.43C26.68,4.28,29.99,3.73,33.32,3.27z"/>
	<path class="st7" d="M42.69,23.44c-1.79,1.63-4.04,2.39-6.26,3.1c-3.76,1.2-7.58,0.88-11.29-0.16c-3.26-0.91-6.54-1.81-9.85-2.31
		c-2.45-0.37-4.92-1.01-7.45-0.89c-1.15,0.05-1.97-0.5-2.35-1.62c2.42,0.05,4.8-0.35,7.2-0.51c4.37-0.18,8.59,1.01,12.89,1.44
		c5.2,0.51,10.41,0.66,15.63,0.55C41.75,23.02,42.34,22.79,42.69,23.44z"/>
	<path class="st8" d="M42.69,23.44c-0.65-0.47-1.32,0-1.97,0.02c-4.23,0.12-8.45-0.04-12.66-0.32c-3.59-0.23-7.14-0.95-10.71-1.46
		c-1.18-0.17-2.34-0.43-3.54-0.41c-0.38,0.01-0.81,0.13-1.12-0.23c1.85-0.43,3.74-0.32,5.59-0.13c4.07,0.4,8.11-0.16,12.16-0.26
		c1.91-0.05,3.9-0.67,5.77-1.36c1.55-0.52,3.08-1.06,4.37-2.1c1.02-0.72,2.03-1.44,3.05-2.16c0.93-0.53,1.44-0.17,1.76,0.76
		c0.47,1.31,0.69,2.67,0.88,4.04C45.23,21.18,44.05,22.4,42.69,23.44z"/>
	<path class="st9" d="M8.13,19.86c1.27-0.92,2.8-0.58,4.16-0.66c3.47-0.21,6.98-0.31,10.43,0c3.68,0.33,7.21-0.37,10.75-0.94
		c3.3-0.53,5.93-2.63,8.46-4.73c0.73-0.61,1.47-1.22,2.2-1.83c0.73,0.29,1.15,0.67,0.46,1.42c-2.28,2.11-4.89,3.76-7.68,5.01
		c-2.35,1.05-5,1.33-7.55,1.71c-3.92,0.59-7.86,0.61-11.81,0.29c-2.5-0.2-5.02-0.14-7.52,0.17c-0.37-0.18-0.75-0.06-1.13-0.02
		C8.57,20.31,8.17,20.39,8.13,19.86z"/>
	<path class="st10" d="M8.13,19.86c0.55,0.52,1.36-0.1,1.9,0.44c-1.38,0.16-2.74,0.59-4.15,0.46c-0.43-0.04-0.9-0.06-1.28-0.24
		c-0.85-0.39-1.35-1.06-1.33-2.07c0.02-0.92,0.6-1.37,1.33-1.63c1.51-0.54,2.92-1.27,4.38-1.92c3.16-1.43,5.59-3.94,8.53-5.69
		c0.55-0.32,1.01-0.78,1.66-0.93c-2,1.7-4.04,3.36-5.99,5.11c-1.78,1.59-3.89,2.46-6.13,3.11c-0.57,0.17-1.21,0.26-1.62,0.72
		c-0.36,0.4-1.11,0.62-0.72,1.44c0.34,0.7,0.63,1.37,1.63,1.2C6.92,19.77,7.53,19.85,8.13,19.86z"/>
	<path class="st11" d="M46.27,19.84c-0.81-0.43-0.4-1.29-0.62-1.93c-0.22-0.61-0.38-1.28-0.52-1.93c-0.19-0.87-0.63-1.21-1.5-0.94
		c0.57-0.48,1.13-0.96,1.7-1.45c0.93-0.61,1.45-1.58,2.12-2.41c0.52-0.03,0.49,0.39,0.59,0.71c0.29,2.42-0.33,4.71-1.06,6.98
		C46.75,19.19,46.51,19.51,46.27,19.84z"/>
	<path class="st12" d="M44.6,13.12c0.37-0.64-0.28-0.96-0.46-1.42c0.08-0.16,0.17-0.31,0.25-0.47c0.37-0.81,0.76-1.61,1.65-2
		c0.72,0.42,0.61,1.07,0.47,1.72c-0.22,0.68-0.81,1.08-1.19,1.65C45.08,12.77,44.84,12.94,44.6,13.12z"/>
	<path class="st13" d="M40.58,17.2c-1.16,1.33-2.71,1.83-4.37,2.1C37.67,18.6,39.13,17.9,40.58,17.2z"/>
	<path class="st14" d="M46.98,18.87c-0.23-0.58-0.08-1.22,0.12-1.69c0.72-1.71,0.63-3.48,0.64-5.26c1.18,0.53,1.09,1.63,1.19,2.64
		c-0.02,1.06-0.72,1.89-0.97,2.87C47.63,17.91,47.31,18.39,46.98,18.87z"/>
	<path class="st15" d="M46.04,9.27c-0.62,0.59-0.91,1.46-1.65,1.95c-1.12-0.15-1.27-1.17-1.69-1.93c-0.17-0.74,0.64-1.05,0.75-1.81
		c-0.68-0.13-1.38-0.02-2.06-0.04c-0.31,0-0.62-0.03-0.93-0.1c-0.68-0.24-1.48,0.09-2.09-0.46c0.09-0.08,0.18-0.17,0.26-0.25
		c0.53-0.89,0.51-0.92-0.53-0.95c-0.85-1.03-2.03-1.64-3.09-2.39c1.2,0,2.41-0.14,3.59,0.21c1.72-0.04,3.42,0.12,5.05,0.74
		c1.04,1.35,1.46,3.11,2.76,4.29C46.43,8.85,46.32,9.11,46.04,9.27z"/>
	<path class="st16" d="M46.3,8.58c-0.67-0.3-1.06-0.83-1.37-1.5c-0.39-0.85-0.7-1.76-1.44-2.41c-0.28-0.24-0.14-0.39,0.17-0.43
		c1.88,0.26,3.33,1.24,4.53,2.66C47.37,7.25,47.15,8.27,46.3,8.58z"/>
	<path class="st17" d="M48.93,14.56c-0.21-0.96-0.7-1.8-1.19-2.64c-0.03-0.27,0.03-0.58-0.29-0.74c0.43-0.96,0.86-1.92,1.29-2.88
		c0.81,1.77,0.72,3.61,0.35,5.46C49.03,14.03,48.98,14.3,48.93,14.56z"/>
	<path class="st18" d="M46.3,8.58c0.58-0.61,0.68-1.77,1.89-1.67c0.02,1.59-0.97,2.76-1.68,4.05c-0.16-0.56-0.31-1.12-0.47-1.68
		C46.12,9.04,46.21,8.81,46.3,8.58z"/>
	<path class="st16" d="M41.43,7.14c0.83,0,1.65,0,2.55,0c-0.15,0.94-0.88,1.45-1.28,2.15c-3.05,3.61-6.73,6.22-11.41,7.28
		c-0.52,0.12-1.02,0.14-1.53,0.16c-0.49-0.18-0.85-0.78-1.49-0.47c-0.21,0.21-0.21,0.55-0.45,0.73c-1.13,0.28-2.28,0.05-3.37-0.08
		c-2.54-0.29-5.07-0.47-7.62-0.41c-0.89,0.02-1.76-0.02-2.57-0.42c-0.24-0.12-0.64,0.06-0.71-0.3c-0.07-0.37,0.28-0.55,0.55-0.7
		c2.07-1.11,4.14-2.22,6.22-3.31c0.06-0.03,0.2,0.08,0.31,0.12c-0.05,0.43-0.36,0.65-0.66,0.88c-0.34,0.15-0.54,0.46-0.78,0.71
		c-0.21,0.19-0.62,0.13-0.65,0.56c0.54,0.33,0.83-0.53,1.34-0.29c0.49,0.31,0.68,0.87,1.03,1.32c0.32-0.29-0.36-0.59,0.02-0.85
		c0.42-0.22,0.8-0.12,1.17,0.14c0.14,0.11,0.25,0.24,0.35,0.39c0.21,0.48,0.52,0.69,1.02,0.35c0.45-0.31,0.82-0.14,1.17,0.18
		c0.35,0.23,0.68,0.15,0.99-0.08c0.3-0.07,0.63-0.07,0.82-0.39c0.68-0.5,1.35-0.14,2,0.05c0.48,0.14,0.93,0.4,1.46,0.23
		c0.65-0.04,1.06-0.49,1.49-0.89c0.63-0.43,1.4-0.02,2.04-0.37c0.76-0.43,1.6-0.59,2.45-0.54c0.84,0.04,0.76-0.31,0.45-0.84
		c-0.15-0.25-0.26-0.5-0.23-0.8c0.26-0.55,0.91-0.6,1.3-0.98c0.44-0.03,0.45,0.34,0.57,0.61c0.1,0.22,0.22,0.49,0.48,0.36
		c0.34-0.16,0.19-0.45,0.02-0.68c-0.11-0.15-0.27-0.27-0.38-0.44c0.14-0.94,0.91-0.94,1.58-1.01c0.36-0.04,0.81,0.27,1.04-0.21
		c0.23-0.47-0.33-0.64-0.47-0.99c-0.01-0.19,0.09-0.31,0.24-0.4C40.91,7.8,41.21,7.53,41.43,7.14z"/>
	<path class="st19" d="M40.3,8.27c0.67,0.08,1.04,0.47,0.83,1.11c-0.2,0.61-0.67,0.7-1.33,0.48c-0.61-0.2-1.17,0.19-1.63,0.62
		c-0.16,0.31-0.55,0.05-0.74,0.29c-0.03,0.82-0.87,0.54-1.24,0.9c-0.6-0.05-0.69-0.6-0.64-0.95c0.18-1.23-0.51-1.9-1.4-2.48
		c-0.26-0.41-0.96-0.65-0.53-1.33c0.64-0.86,1.12-0.08,1.66,0.16c0.55-0.07,1.09,0.35,1.63,0.02c0.26,0,0.52-0.01,0.78-0.01
		C38.66,7.22,39.81,7.02,40.3,8.27z"/>
	<path class="st20" d="M21.31,10.94c0.08-0.09,0.17-0.26,0.23-0.25c1.37,0.27,2.3-0.63,3.36-1.21c0.13-0.07,0.31-0.06,0.47-0.08
		c0.29-0.07,0.58-0.05,0.86-0.28c0.92-0.77,1.26-0.65,1.73,0.49c-0.13,0.62-1.17,0.86-0.69,1.76c0.11,0.21-0.24,0.47-0.5,0.59
		c-0.44,0.2-0.81,0.48-1.2,0.77c-0.85,0.64-1.31,0.57-2.28-0.29c-0.32-0.46-0.85-0.36-1.3-0.45C21.38,11.87,21.02,11.63,21.31,10.94
		z"/>
	<path class="st21" d="M21.31,10.94c-0.03,0.54,0.23,0.69,0.76,0.78c0.47,0.09,1.15-0.29,1.42,0.46c-0.3,0.94-0.8,1.76-1.5,2.45
		c-0.31-0.31-0.67-0.38-1.08-0.25c-0.68-0.4-0.89-1.08-1.06-1.78c0.26-0.24,0.51-0.48,0.77-0.72C21.2,11.83,21.02,11.21,21.31,10.94
		z"/>
	<path class="st22" d="M33.61,6.91c-0.09,0.56,0.54,0.72,0.66,1.17c-0.37,0.32-0.78,0.05-1.17,0.08c-0.22-0.01-0.45-0.05-0.66-0.1
		c-0.41-0.13-0.81-0.18-1.23-0.03c-0.69,0.32-1.46,0.1-2.16,0.37c-0.11,0.02-0.22,0.02-0.32-0.01c-0.19-0.14-0.32-0.3-0.23-0.56
		C30.19,7.44,31.8,6.6,33.61,6.91z"/>
	<path class="st23" d="M27.83,9.46c-0.58-0.68-1.12-1.14-1.52,0.16c-0.15,0.47-0.21,0.45-0.95-0.22c-0.11-0.04-0.23-0.08-0.33-0.13
		c-0.28-0.16-0.08-0.21,0.07-0.24c0.85-0.19,1.57-0.78,2.49-0.74c0.48,0.05,0.49,0.44,0.6,0.78C28.16,9.27,28.22,9.58,27.83,9.46z"
		/>
	<path class="st24" d="M40.3,8.27c-0.63-0.93-1.85-0.57-2.62-1.2c0.18-0.23,0.45-0.16,0.69-0.18c0.72,0.1,1.48-0.22,2.17,0.22
		c0.18,0.33,0.15,0.65,0,0.98C40.46,8.14,40.38,8.2,40.3,8.27z"/>
	<path class="st25" d="M28.06,16c0.8-0.3,1.37-0.07,1.7,0.73c-0.34,0.61-0.87,0.68-1.49,0.51C28.06,16.86,27.96,16.45,28.06,16z"/>
	<path class="st26" d="M38.1,5.68c0.23-0.33,0.48-0.51,0.9-0.26c0.27,0.16,0.47,0.35,0.43,0.65c-0.06,0.43-0.41,0.55-0.8,0.57
		C38.38,6.36,38.09,6.11,38.1,5.68z"/>
	<path class="st27" d="M27.98,9.11c-0.31-0.19,0.02-0.68-0.39-0.83C27.42,8,27.13,7.67,27.58,7.42C28,7.19,28.3,7.46,28.5,7.83
		c0.1,0.16,0.19,0.32,0.29,0.47C28.56,8.61,28.34,8.93,27.98,9.11z"/>
	<path class="st28" d="M36.9,7.08c-0.56,1.31-1.09,0.18-1.63-0.02C35.81,6.79,36.36,6.79,36.9,7.08z"/>
	<path class="st29" d="M28.06,16c0.42,0.36,0.18,0.82,0.21,1.24c-0.15-0.09-0.31-0.17-0.46-0.26C27.74,16.62,27.65,16.25,28.06,16z"
		/>
	<path class="st30" d="M40.54,8.08c-0.16-0.33-0.26-0.65,0-0.98c0.3,0.01,0.6,0.02,0.89,0.04C41.71,8,41.25,8.16,40.54,8.08z"/>
	<path class="st31" d="M27.98,9.11C28,8.58,28.22,8.27,28.79,8.3c0,0-0.01,0-0.01,0c0.31,0.31,0.37,0.86,0.99,0.89
		c1.09,0.05,1.39-0.21,1.37-1.37c0.42-0.34,0.83-0.38,1.22,0.04c0.63,0.14,0.52,0.5,0.32,0.96c-0.28,0.65-0.28,1.04,0.68,0.89
		c0.96-0.15,1.3,0.38,0.97,1.28c-0.03,0.07-0.14,0.16-0.1,0.2c0.99,1.25-0.54,1.91-0.66,2.9c-0.63,0.73-1.48-0.24-2.14,0.27
		c-0.74,0.12-1-0.47-1.37-0.91c-0.12-0.15-0.29-0.31-0.49-0.12c-0.13,0.12-0.08,0.3,0.01,0.43c0.3,0.47,0.61,0.92,0.37,1.52
		c-0.44,0.46-0.88,0.35-1.37,0.05c-0.68-0.41-1.42-0.63-2.22-0.34c-0.02-1.15,0.21-1.34,1.22-1.01c-0.54-1-0.59-1.03-1.15-0.75
		c-1.08,0.54-1.21,0.92-0.73,2.08c-0.32,0.65-0.76,0.7-1.29,0.26c-0.52-1.16-0.96-1.32-2.14-0.75c-0.09-0.06-0.19-0.13-0.28-0.19
		c0.23-0.98,0.81-1.75,1.5-2.45c0.87,0.96,1.23,1,2.09,0.06c0.28-0.3,0.62-0.33,0.93-0.49c0.21-0.11,0.63-0.19,0.52-0.38
		c-0.59-1.03,0.54-1.28,0.79-1.91C28.03,9.41,27.98,9.25,27.98,9.11z"/>
	<path class="st32" d="M33.57,14.09c0.02-0.35-0.08-0.81,0.1-1.04c0.47-0.59,0.96-1.08,0.14-1.77c-0.24-0.2,0.07-0.3,0.21-0.41
		c0.19-0.14,0.65-0.24,0.27-0.57c-0.22-0.19-0.49-0.67-0.89-0.35c-0.36,0.29-0.7,0.42-1.05,0.1c-0.4-0.37-0.14-0.8-0.04-1.22
		c0.07-0.31,0.57-0.62,0.05-0.97c0.24,0,0.49,0,0.73,0c0.38,0.2,0.73,0.45,1.16,0.6c0.77,0.26,1.13,0.73,1.19,1.68
		c0.05,0.76-0.26,2,1.09,2.25c0.5,0.17,0.55,0.56,0.37,0.96c-0.16,0.35-0.51,0.53-0.9,0.38C35.12,13.38,34.37,13.87,33.57,14.09z"/>
	<path class="st33" d="M25.7,15.31c-1-0.75-1-1.3-0.01-1.93c1.47-0.93,1.47-0.93,2.39,0.41c0.15,0.21,0.27,0.43,0.05,0.63
		c-0.19,0.18-0.48,0.2-0.65,0.01c-1.05-1.17-0.82,0.23-1.12,0.55C26.39,15.59,25.99,15.33,25.7,15.31z"/>
	<path class="st34" d="M36.53,12.39c-0.65-0.02-1.86,0.55-1.08-1.01c-0.75-0.82,0.39-2.86-1.8-2.79c-0.18,0.01-0.37-0.47-0.56-0.73
		c0.43-0.17,0.77,0.18,1.17,0.21c1.03,0.53,1.83,1.15,1.51,2.53c-0.07,0.31,0.1,0.78,0.41,1.07C36.3,11.91,36.41,12.15,36.53,12.39z
		"/>
	<path class="st35" d="M29.96,15.27c-0.28-0.45-0.22-1.04-0.74-1.42c-0.42-0.3-0.16-0.71,0.18-0.98c0.4-0.33,0.74-0.07,0.86,0.24
		c0.23,0.6,0.67,0.94,1.17,1.25C31.22,15.1,30.7,15.37,29.96,15.27z"/>
	<path class="st36" d="M19.84,12.6c0.64,0.43,0.73,1.17,1.06,1.78c0.14,0.13,0.28,0.26,0.43,0.39c0.25,0.22,0.31,0.47,0.03,0.7
		c-0.29,0.25-0.76,0.22-0.78-0.1c-0.04-0.64-0.74-0.91-0.71-1.53c-0.22-0.2-0.66-0.07-0.73-0.49C19.08,12.83,19.35,12.61,19.84,12.6
		z"/>
	<path class="st37" d="M22.27,14.82c0.34-0.32,0.47-1.12,1.05-0.86c0.59,0.27,1.15,0.79,1.09,1.61c-0.24-0.32-0.42-0.81-0.92-0.25
		C22.65,16.24,22.43,15.59,22.27,14.82z"/>
	<path class="st38" d="M37.42,10.77c0.14-0.35,0.46-0.26,0.74-0.29c0.32,0.04,0.6,0.17,0.79,0.46c0.2,0.3,0.12,0.59-0.05,0.88
		c-0.15,0.26-0.37,0.41-0.68,0.34c-0.34-0.08-0.52-0.31-0.6-0.65C37.56,11.26,37.75,10.94,37.42,10.77z"/>
	<path class="st39" d="M19.15,13.36c0.25,0.15,0.58,0.19,0.73,0.49c-0.14,0.05-0.35,0.06-0.4,0.16c-0.28,0.51-0.67,0.66-1.19,0.45
		c-0.24-0.1-0.4-0.3-0.32-0.57C18.14,13.26,18.69,13.4,19.15,13.36z"/>
	<path class="st27" d="M31.15,7.82c0.16,0.4,0.78,0.71,0.33,1.25c-0.6,0.73-1.47,0.35-2.19,0.37c-0.63,0.02-0.49-0.68-0.5-1.14
		C29.44,7.48,30.41,8.23,31.15,7.82z"/>
	<path class="st40" d="M32.74,12.87c-0.21,0.01-0.45-0.15-0.61-0.38c-0.36-0.52-0.67-1.02-1.42-1.14c-0.36-0.06-0.62-0.52-0.28-0.95
		c0.27-0.33,0.71-0.63,0.98-0.19c0.44,0.69,1.13,0.79,1.77,1.07c0.37,0.16,0.7,0.47,0.55,0.93C33.6,12.61,33.29,12.87,32.74,12.87z"
		/>
	<path class="st41" d="M28.51,11.2c0.62,0,1,0.19,0.96,0.76c-0.04,0.55-0.38,0.9-0.93,0.9c-0.55,0-0.95-0.32-0.91-0.89
		C27.66,11.43,28.01,11.1,28.51,11.2z"/>
	<path class="st42" d="M28.72,9.66c0.29,0.09,0.51,0.24,0.51,0.57c0.01,0.35-0.19,0.5-0.52,0.48c-0.33-0.03-0.66-0.15-0.57-0.56
		C28.2,9.87,28.41,9.68,28.72,9.66z"/>
</g>
</svg>
