<?xml version="1.0" encoding="utf-8"?>
<!-- Generator: Adobe Illustrator 23.0.2, SVG Export Plug-In . SVG Version: 6.00 Build 0)  -->
<svg version="1.1" id="Camada_1" xmlns="http://www.w3.org/2000/svg" xmlns:xlink="http://www.w3.org/1999/xlink" x="0px" y="0px"
	 viewBox="0 0 45.9 34.62" style="enable-background:new 0 0 45.9 34.62;" xml:space="preserve">
<style type="text/css">
	.st0{fill:#413E3C;}
	.st1{fill:#5B3619;}
	.st2{fill:#43403E;}
	.st3{fill:#423F3D;}
	.st4{fill:#5F391A;}
	.st5{fill:#5B3819;}
	.st6{fill:#756966;}
	.st7{fill:#D1D1D1;}
	.st8{fill:#E4E1E1;}
	.st9{fill:#8C8987;}
	.st10{fill:#EFF6F7;}
	.st11{fill:#FE841E;}
	.st12{fill:#FEAD48;}
	.st13{fill:#583415;}
	.st14{fill:#F9F060;}
	.st15{fill:#A85714;}
	.st16{fill:#8C8988;}
	.st17{fill:#92673E;}
	.st18{fill:#8B8886;}
	.st19{fill:#8D8A88;}
	.st20{fill:#3F3C3A;}
	.st21{fill:#B7AFAE;}
	.st22{fill:#7F7674;}
	.st23{fill:#E4E2E2;}
	.st24{fill:#5B3618;}
	.st25{fill:#807573;}
	.st26{fill:#E5F0F2;}
	.st27{fill:#EEF6F7;}
	.st28{fill:#B8B0AF;}
	.st29{fill:#F5F7F6;}
	.st30{fill:#D5D5D5;}
	.st31{fill:#AA5714;}
	.st32{fill:#563113;}
	.st33{fill:#593415;}
	.st34{fill:#FBEC39;}
	.st35{fill:#573214;}
	.st36{fill:#4B2115;}
	.st37{fill:#906740;}
	.st38{fill:#D3D3D3;}
	.st39{fill:#D2D2D2;}
	.st40{fill:#D7D7D7;}
	.st41{fill:#E9E6E6;}
	.st42{fill:#FD861E;}
	.st43{fill:#92663C;}
	.st44{fill:#5A371A;}
	.st45{fill:#FDAE48;}
	.st46{fill:#56351A;}
	.st47{fill:#8D6641;}
	.st48{fill:#4C3019;}
	.st49{fill:#603A1A;}
	.st50{fill:#8E6742;}
	.st51{fill:#623B1A;}
	.st52{fill:#5E381A;}
	.st53{fill:#ED821E;}
	.st54{fill:#926942;}
	.st55{fill:#966B42;}
	.st56{fill:#EB811D;}
</style>
<g>
	<path d="M4.29,20.45c0-2.96,0-5.91-0.18-8.87c-0.03-0.44-0.11-0.73-0.51-0.95C3.11,10.35,2.67,10,2.21,9.69
		C1.65,9.32,1.46,8.62,1.77,8.22c0.77-0.96,1.46-2.26,2.79-2.39C5.73,5.72,6.59,5.25,7.4,4.57c1.1-0.92,2.29-1.43,3.75-1.61
		c3.95-0.5,7.93-0.78,11.88-1.3c3.04-0.4,5.92,0.54,8.87,0.9c1.3,0.16,2.57,0.54,3.86,0.79c1.45,0.28,2.74,0.79,3.67,2.02
		c0.33,0.43,0.76,0.72,1.43,0.69c0.82-0.04,3.37,2.21,3.55,2.97c0.27,1.1-0.61,1.7-1.25,2.12c-1.02,0.66-1.1,1.47-1.08,2.51
		c0.06,4.71,0.06,9.43,0.1,14.14c0.01,1.62-0.93,2.74-2.95,3.4c-3.16,1.05-6.41,1.61-9.73,1.8c-6.44,0.37-12.85,0.39-19.1-1.54
		c-1.88-0.58-3.64-1.39-5.15-2.69c-0.68-0.59-1-1.28-0.98-2.2C4.31,24.53,4.29,22.49,4.29,20.45z"/>
	<path class="st0" d="M41,22.83c-0.04,1.74-0.23,3.48-0.07,5.23c0.11,1.19-0.91,1.63-1.8,1.92c-2.76,0.9-5.59,1.49-8.5,1.78
		c-3.5,0.35-6.99,0.28-10.48,0.15c-4.35-0.16-8.63-0.81-12.57-2.89c-1.43-0.75-2.35-1.64-2.1-3.45c0.17-1.21,0.05-2.47,0.05-3.71
		c0.53-0.17,0.85,0.13,1.12,0.52c0.29,0.97,0.25,1.98,0.12,2.93c-0.18,1.37,0.38,2.17,1.54,2.72c0.21,0.1,0.42,0.22,0.63,0.33
		c1.54,0.64,3.06,1.31,4.71,1.62c1.86,0.37,3.73,0.59,5.62,0.77c0.24,0.04,0.46,0.13,0.7,0.13c5.99,0.01,12,0.26,17.78-1.8
		c1.99-0.78,2-0.8,2.01-2.95c0-0.83-0.06-1.67,0.07-2.5C40.07,23.14,40.25,22.58,41,22.83z"/>
	<path class="st1" d="M8.42,5.33c1.37-1.51,3.31-1.13,5.01-1.43c2.94-0.52,5.91-0.81,8.9-0.78c0.79,0.01,1.45-0.59,2.3-0.45
		c2.83,0.48,5.7,0.74,8.52,1.3c1.01,0.2,2.02,0.39,3.02,0.67c1.26,0.35,2.21,1.04,2.94,2.09c-0.42,0.33-0.8,0.04-1.2-0.05
		c-0.56-0.25-1.12-0.46-1.72-0.61c-2.42-0.96-5.01-1.09-7.54-1.51c-3.26-0.11-6.52-0.2-9.78,0.05c-0.94,0.13-1.91,0.04-2.84,0.26
		C14.28,4.9,12.52,5,10.71,5.45c0.69,0.76,1.92,0.27,2.37,1.27c-0.06,0.43-0.37,0.45-0.69,0.41c-0.43-0.05-0.85-0.06-1.27,0.04
		C10.25,7.14,9.49,6.8,8.8,6.28C8.59,6,8.32,5.74,8.42,5.33z"/>
	<path class="st2" d="M8.42,5.33c0.15,0.26,0.3,0.51,0.45,0.77C8.59,6.72,7.8,6.82,7.46,7.4c0.18,0.33,0.65,0.28,0.8,0.64
		C8.33,8.37,8.83,8.69,8.3,9.06C7.11,9.29,6.18,8.3,4.85,8.3C5.37,8.94,5.94,9.21,6.5,9.44c2.92,1.2,5.96,1.92,9.1,2.28
		c1.9,0.22,3.81,0.11,5.71,0.34c1.17,0.23,2.36,0.02,3.53,0.13c0.6,0.06,1.3,0.13,0.77,1.05c-0.1,0.1-0.23,0.17-0.36,0.22
		c-5.66-0.15-11.35-0.02-16.87-1.69c-1.31-0.4-1.32-0.38-1.74,0.88c-0.49,0.41-0.9,0.16-1.31-0.15c-0.01-0.24-0.06-0.48-0.03-0.72
		c0.17-1.06-0.14-1.82-1.2-2.27C3.67,9.34,2.87,8.95,3.05,8.59c0.34-0.65,0.88-1.58,1.65-1.56C6.29,7.07,7.22,5.97,8.42,5.33z"/>
	<path class="st3" d="M39.84,7.26c1.16-0.21,1.82,0.51,2.61,1.2c0.9,0.79,0.6,1.59-0.11,1.85c-1.79,0.67-1.5,2.05-1.49,3.4
		c0,0.16-0.01,0.32-0.02,0.48c-0.2,0.18-0.43,0.25-0.69,0.21c-0.12-0.03-0.22-0.08-0.31-0.17c-0.03-0.07-0.07-0.15-0.07-0.22
		c-0.03-2.22-0.03-2.22-2.2-1.67c-1.11,0.24-2.24,0.37-3.35,0.62c-0.42,0.09-0.85,0.15-1.26-0.08c-0.31-0.3-0.2-0.62-0.02-0.93
		c0.12-0.17,0.28-0.29,0.47-0.36c1.61-0.3,3.21-0.62,4.82-0.93c0.89-0.32,1.81-0.57,2.68-0.95c0.3-0.13,0.81-0.25,0.67-0.68
		c-0.15-0.47-0.6-0.21-0.91-0.1c-1.08,0.38-2.2,0.63-3.28,1c-0.91,0.18-1.79,0.49-2.73,0.46C33.4,9.87,34.42,9.45,34.7,9
		c0.66-0.48,1.48-0.51,2.22-0.75c0.66-0.13,1.29-0.33,1.93-0.54C39.2,7.61,39.49,7.35,39.84,7.26z"/>
	<path class="st4" d="M5.34,12.51c0.39-0.02,0.78-0.02,1.12,0.24c0.98,0.41,1.89,0.92,2.62,1.71c0.12,0.34,0.34,0.68,0.01,1.02
		c-0.85,0.24-1.33-0.61-2.27-0.75c0.22,2.34-0.44,4.66,0.5,6.92c0.04,0.36-0.18,0.58-0.45,0.75c-0.12,0.06-0.24,0.04-0.35-0.04
		c-0.32-0.16-0.64-0.33-0.96-0.49C5.48,18.74,5.62,15.62,5.34,12.51z"/>
	<path class="st5" d="M40.11,14.2c0.24-0.01,0.49-0.02,0.73-0.02c0.13,2.88,0.34,5.76,0.16,8.64c-0.47,0.07-0.73,0.4-0.93,0.79
		c-0.11,0.03-0.22,0.03-0.32,0c-0.31-0.15-0.62-0.28-0.67-0.68c0.1-0.5,0.65-0.65,0.84-1.07c0.22-2.12,0.1-4.24,0.05-6.35
		c-0.07-0.17-0.14-0.34-0.18-0.52C39.71,14.66,39.88,14.42,40.11,14.2z"/>
	<path class="st6" d="M39.84,7.26c-0.16,0.31-0.37,0.57-0.73,0.67c-0.45-0.36-1.02-0.58-1.23-1.19c-0.02-0.11,0.03-0.2,0.12-0.27
		c0.37,0.09,0.74,0.18,1.12,0.27C39.36,6.91,39.6,7.08,39.84,7.26z"/>
	<path class="st7" d="M37.97,29.33c-4.17,1.62-8.54,1.97-12.95,1.95c-1.94-0.01-3.91,0.1-5.84-0.27c0.41-0.45,0.97-0.39,1.45-0.33
		c0.94,0.13,1.48-0.24,1.86-1.08c0.22-0.5,0.59-0.94,0.85-1.43c0.71-1.31,1.57-2.33,3.06-1.86c-0.47,0.07-1.17-0.07-1.86,0.08
		c-0.35,0.08-0.82,0.1-0.7-0.54c0.44-0.29,0.93-0.23,1.42-0.23c3.79-0.04,7.56-0.29,11.25-1.23c0.42-0.11,0.86-0.2,1.27,0.1
		C38.32,26.08,38.06,27.71,37.97,29.33z"/>
	<path class="st8" d="M23.78,25.98c1,0.5,2.09,0.01,3.18,0.41c-2.04-0.61-2.87,0.82-3.43,2.17c-0.86,2.05-2.23,2.81-4.34,2.44
		c-1.93-0.04-3.83-0.31-5.71-0.77c-0.03-0.13,0.01-0.29,0.11-0.3c1.36-0.18,1.79-1.3,2.41-2.27c0.5-0.78,0.67-1.4-0.4-1.78
		c0.27-0.51,0.7-0.46,1.09-0.51c2.06-0.16,4.09,0.34,6.14,0.23C23.18,25.59,23.54,25.66,23.78,25.98z"/>
	<path class="st7" d="M16.39,25.68c-0.15,0.02-0.31,0.05-0.46,0.07c1.54,0.09,1.14,0.82,0.55,1.63c-0.16,0.22-0.25,0.49-0.38,0.74
		c-0.57,1.08-1.19,2.1-2.62,2.13c-1.61-0.33-3.13-0.87-4.58-1.65c-0.19-1.57-0.24-3.13,0.08-4.69c0.3-0.41,0.72-0.31,1.08-0.18
		c2.02,0.73,4.13,1.1,6.2,1.61C16.39,25.42,16.43,25.54,16.39,25.68z"/>
	<path class="st9" d="M9.15,23.79c-0.18,1.6,0.25,3.22-0.25,4.8c-2.15-0.77-2.44-1.17-2.42-3.38c0.01-0.95,0.01-1.91,0.02-2.86
		c0.08,0,0.15,0.01,0.23,0.02C7.71,22.56,8.64,22.82,9.15,23.79z"/>
	<path class="st10" d="M37.97,29.33c-0.58-0.97-0.15-2.02-0.26-3.03c-0.06-0.59-0.01-1.2-0.01-1.8c0.56-0.69,1.33-0.88,2.16-0.95
		c0.06,0.05,0.12,0.07,0.2,0.06c0,0.92-0.03,1.83-0.01,2.75C40.13,28.61,40.14,28.61,37.97,29.33z"/>
	<path class="st11" d="M15.88,4.61c0.93-0.36,1.9-0.29,2.87-0.28c3.46,0.31,6.77,1.27,10.09,2.22c0.44,0.13,1.4,0.05,0.86,1.07
		c-1.03,0.33-2.11,0.4-3.18,0.44c-3.78,0.15-7.55-0.06-11.31-0.51c-0.62-0.07-1.27-0.14-1.82-0.49c-0.48-0.49-0.24-0.84,0.24-1.13
		C14.37,5.47,15.07,4.95,15.88,4.61z"/>
	<path class="st12" d="M29.8,7.43c-0.77-0.87-1.93-0.82-2.9-1.08c-2.38-0.63-4.73-1.4-7.22-1.54c-0.36-0.02-0.7-0.16-0.92-0.48
		c2.28-0.45,4.59-0.25,6.89-0.25c1.06,0,2.15-0.14,3.19,0.24c-0.18,0.23-0.41,0.21-0.65,0.15c1.52,0.33,2.93,0.99,4.36,1.58
		c0.32,0.13,0.7,0.27,0.65,0.74c-0.57,0.62-1.4,0.49-2.1,0.72C30.65,7.51,30.21,7.69,29.8,7.43z"/>
	<path class="st13" d="M29.8,7.43c0.38-0.16,0.77-0.21,1.18-0.17c0.31,0.19,0.61-0.03,0.92-0.02c0.27,0.02,0.62-0.04,0.73,0.26
		c0.15,0.4-0.25,0.49-0.5,0.66c-1.49,0.44-3.05,0.41-4.57,0.63c-4.11,0-8.23,0.14-12.32-0.49c-1.19-0.18-2.36-0.43-3.51-0.79
		c-0.28-0.11-0.53-0.26-0.66-0.56c0.59-0.57,1.32,0.21,1.92-0.21c0.08-0.11,0.17-0.12,0.28-0.04c1.59,0.66,3.31,0.57,4.97,0.77
		C22.09,7.93,25.94,7.77,29.8,7.43z"/>
	<path class="st14" d="M33.16,6.72c-1.67-0.95-3.56-1.39-5.47-2.3c0.5-0.04,0.81-0.07,1.13-0.1c2.61,0.22,5.19,0.56,7.66,1.48
		C35.93,6.72,34.3,7.17,33.16,6.72z"/>
	<path class="st15" d="M13.27,6.7c-0.09,0.01-0.19,0.03-0.28,0.04c-0.88-0.67-2.2-0.3-3.06-1.38c1.98-0.65,3.95-0.85,5.95-0.75
		c-0.54,0.79-1.42,1.13-2.18,1.61C13.5,6.35,13.27,6.4,13.27,6.7z"/>
	<path class="st16" d="M11.07,6.95c0.16,0.1,0.32,0.19,0.48,0.29c-0.06,0.64-0.64,0.6-1.04,0.77C10.07,8.19,9.6,8.29,9.18,8.53
		C8.76,8.68,8.49,8.42,8.23,8.16C7.8,7.97,7.37,7.79,6.88,7.57c0.48-0.76,1.24-1.12,2-1.48C9.57,6.48,10.3,6.77,11.07,6.95z"/>
	<path class="st17" d="M33.16,6.72c1.15-0.15,2.34-0.19,3.33-0.92c0.51,0.21,1.07,0.29,1.51,0.66c-0.03,0.04-0.05,0.09-0.06,0.14
		c-0.83,0.78-1.97,0.74-2.96,1.1c-0.94-0.01-1.82,0.81-2.8,0.19c0.17-0.39,0.17-0.4,0.04-0.42c-0.42-0.05-0.87,0.1-1.24-0.22
		C31.71,7.08,32.43,6.9,33.16,6.72z"/>
	<path class="st18" d="M8.91,14.44c-0.81-0.57-1.83-0.84-2.45-1.69c0.08-1.89,0.08-1.89,1.95-1.34c3.66,1.06,7.41,1.53,11.21,1.59
		c1.88,0.03,3.75-0.01,5.62,0.25c0.1,1.22-0.42,1.9-1.58,1.97c-1.34,0.07-2.69,0.01-4.03,0.03c-3.03,0.03-5.98-0.57-8.92-1.24
		c-0.57-0.13-1.09-0.25-1.45,0.38C9.15,14.49,9.04,14.51,8.91,14.44z"/>
	<path class="st19" d="M21.12,12.29c-4.78,0.04-9.47-0.5-13.97-2.21c-0.83-0.31-1.59-0.74-2.34-1.2C4.59,8.73,4.1,8.6,4.38,8.21
		c0.2-0.28,0.51-0.62,1.02-0.35c0.95,0.5,1.95,0.92,3.03,1.05c0.55-0.17,1.02-0.13,1.31,0.46c0.06,0.51,0.46,0.58,0.86,0.68
		c2.44,0.66,4.93,0.99,7.44,1.15c2.47,0.16,4.92,0.51,7.4,0.51c0.28,0,0.55,0.08,0.78,0.27c0.11,0.21,0.11,0.41-0.09,0.57
		c-1.19-0.33-2.41-0.11-3.62-0.18C22.05,12.36,21.57,12.48,21.12,12.29z"/>
	<path class="st20" d="M9.66,9.35C9.25,9.2,8.84,9.05,8.43,8.91C8.57,8.6,7.96,8.5,8.23,8.16c0.34-0.01,0.6,0.34,0.96,0.21
		c1.5-0.16,2.91,0.4,4.35,0.63c3.87,0.62,7.76,0.86,11.67,0.76c0.67-0.02,1.36-0.08,2.01,0.17c0.49,0.57,0.08,0.92-0.3,1.28
		c-0.13,0.07-0.27,0.12-0.42,0.15c-5.35,0.2-10.65-0.18-15.88-1.39C10.23,9.87,9.85,9.76,9.66,9.35z"/>
	<path class="st21" d="M19.46,14.94c1.18-0.01,2.37-0.11,3.54,0c1.36,0.14,1.94-0.54,2.24-1.69c0.07-0.02,0.13-0.05,0.2-0.07
		c0.76-0.4,1.56-0.61,2.41-0.52c1.54,0.16,3.06-0.4,4.61-0.11c0.71,1.07-0.29,1.57-0.76,2.25c-0.51,0.25-1.09,0.19-1.61,0.38
		c-2.04,0.02-4.06,0.37-6.1,0.32c-1.12,0.04-2.24,0.05-3.36,0.01C20.19,15.48,19.63,15.57,19.46,14.94z"/>
	<path class="st22" d="M32.66,12.75c-2.41,0.14-4.81,0.28-7.22,0.42c0.52-0.77-0.11-0.63-0.53-0.67c-1.26-0.12-2.55,0.21-3.79-0.22
		c1.7,0.05,3.41-0.22,5.09,0.2c0.48-0.45,1.13-0.33,1.69-0.43c1.4-0.24,2.83-0.16,4.24-0.35c0.35-0.05,0.71,0.02,0.98,0.3
		c-0.06,0.24-0.12,0.48-0.18,0.72C32.86,12.81,32.76,12.82,32.66,12.75z"/>
	<path class="st23" d="M32.18,7.9c0.95-0.16,1.91-0.31,2.86-0.47c0.75,0.18,1.37,0.61,2,1.03c-0.74,0.22-1.48,0.45-2.22,0.67
		c-1.85,0.99-3.88,0.99-5.89,1.09c-0.77,0.01-1.51-0.13-2.44-0.4c0.7-0.61,1.41-0.77,2.07-1.03c-0.35-0.01-0.84,0.33-0.93-0.36
		C29.15,8.25,30.66,8.07,32.18,7.9z"/>
	<path class="st18" d="M32.66,12.75c0.1-0.01,0.19-0.02,0.29-0.03c1.62,0,3.15-0.64,4.76-0.7c0.4,0.44,0.35,0.92,0.12,1.42
		c-1.77,0.99-3.74,1.2-5.7,1.42c-0.16,0.02-0.29-0.11-0.39-0.23C32.04,14.01,32.35,13.38,32.66,12.75z"/>
	<path class="st24" d="M40.11,14.2c-0.07,0.25-0.15,0.5-0.22,0.74c-0.39,1.22-1.62,1.06-2.48,1.51c-1.95,0.56-3.96,0.82-5.96,1.11
		c-0.4,0.06-0.79,0.07-1.15-0.16c-0.29-0.34-0.14-0.63,0.12-0.9c0.47-0.27,0.99-0.34,1.51-0.45c1.94-0.15,3.78-0.78,5.63-1.32
		c0.76-0.08,1.36-0.8,2.2-0.59C39.88,14.17,39.99,14.19,40.11,14.2z"/>
	<path class="st25" d="M28.86,9.89c2.02,0,3.98-0.45,5.95-0.76c0.15,0.38-1.1,0.51-0.19,1.03c0.02,0.16-0.04,0.28-0.18,0.36
		c-2.23,0.64-4.56,0.53-6.84,0.82c-0.28,0.03-0.56-0.05-0.73-0.32c0.16-0.29,0.32-0.59,0.48-0.88C27.82,9.78,28.4,10.17,28.86,9.89z
		"/>
	<path class="st26" d="M39.76,14.15c-0.71,0.17-1.26,0.75-2.02,0.79c-0.74-0.47-0.3-0.99-0.06-1.5c0.01-0.47,0.01-0.94,0.02-1.41
		c0.07-0.04,0.14-0.1,0.21-0.1c0.68-0.05,1.65-0.77,1.94-0.27C40.23,12.29,40.21,13.32,39.76,14.15z"/>
	<path class="st27" d="M37.46,9.6c1.2-0.4,2.42-0.74,3.59-1.22c0.69-0.29,0.87,0.2,1.1,0.55c0.36,0.53-0.26,0.55-0.5,0.69
		c-1,0.59-2.12,0.86-3.22,1.21c-0.25,0.15-0.5,0.12-0.76,0.03C37.36,10.49,37.17,10.09,37.46,9.6z"/>
	<path class="st28" d="M33.12,12.01c-2.3,0.16-4.61,0.32-6.91,0.48c-0.02-0.14-0.04-0.28-0.06-0.41c0.31-0.44,0.85-0.33,1.27-0.52
		c2.08-0.41,4.18-0.63,6.29-0.86c0.52,0.55-0.07,0.77-0.32,1.1C33.3,11.86,33.21,11.93,33.12,12.01z"/>
	<path class="st29" d="M37.04,8.46c-0.89,0.09-1.43-0.49-2-1.03c0.97-0.27,1.93-0.55,2.9-0.82c0.31,0.51,1.01,0.68,1.17,1.32
		C38.42,8.1,37.73,8.28,37.04,8.46z"/>
	<path class="st16" d="M33.39,11.79c-0.04-0.42,0.31-0.64,0.49-0.95c0.42-0.35,0.92-0.46,1.45-0.5c0.38-0.06,0.76-0.14,1.14-0.22
		c0.61-0.12,1.06,0.05,1.25,0.68c0.24,0.01,0.48,0.02,0.71,0.03C36.78,11.29,35.12,11.72,33.39,11.79z"/>
	<path class="st30" d="M37.72,10.81c-0.72-1.01-1.63-0.01-2.43-0.24c-0.2-0.21-0.55,0.02-0.74-0.23c0.03-0.06,0.05-0.12,0.07-0.17
		c0.94-0.18,1.89-0.37,2.83-0.55C37.55,10,37.63,10.41,37.72,10.81z"/>
	<path class="st31" d="M7.23,21.86c-0.63-0.58-0.77-1.3-0.74-2.14c0.05-1.85,0.02-3.7,0.02-5.59c1.04,0.25,1.66,1.11,2.64,1.22
		c0.24-0.15,0.42-0.08,0.54,0.17c-0.05,0.32-0.27,0.59-0.32,0.92c-0.26,1.01-0.85,1.89-1.12,2.94c0.46,0.13,0.47-1.27,1.13-0.34
		c0.17,1.2,0.23,2.4-0.03,3.6C8.31,23.29,7.77,22.57,7.23,21.86z"/>
	<path class="st32" d="M9.65,15.6c-0.17-0.08-0.33-0.17-0.5-0.25c-0.18-0.28-0.27-0.58-0.23-0.92c0.07-0.01,0.14-0.01,0.21,0.01
		c0.58-0.1,1.11,0.1,1.62,0.29c3.55,1.3,7.26,1.61,10.99,1.75c0.43,0.02,0.88-0.01,1.27,0.23c0.4,0.53,0,0.75-0.38,0.98
		c-0.27,0.11-0.55,0.11-0.84,0.06c-1.08-0.22-2.17-0.09-3.26-0.1c-2.64-0.03-5.2-0.56-7.72-1.32C10.37,16.2,9.89,16.08,9.65,15.6z"
		/>
	<path class="st33" d="M7.23,21.86c0.63,0.33,1.26,0.66,1.89,0.98c0.53-0.15,1.04-0.02,1.51,0.18c1.89,0.8,3.87,1.21,5.9,1.43
		c0.51,0.05,1.05,0.1,1.35,0.63c-0.31,0.93-1.03,0.36-1.58,0.42c-2.48-0.19-4.81-0.98-7.16-1.72c-0.8-0.47-1.61-0.94-2.41-1.42
		C6.83,22.13,6.99,21.96,7.23,21.86z"/>
	<path class="st34" d="M37.48,16.14c0.78-0.44,1.79-0.42,2.4-1.2c0.07,0.06,0.14,0.13,0.21,0.19c0.17,2.4,0.29,4.8-0.06,7.19
		c-0.33,0.23-0.65,0.45-0.98,0.68c-0.29,0.45-0.7,0.54-1.19,0.43c-0.41-0.24-0.42-0.6-0.31-1c0.4-0.45,0.47-0.93,0.21-1.49
		c-0.22-0.46-0.36-0.95-0.36-1.46C37.44,18.38,37.21,17.25,37.48,16.14z"/>
	<path class="st35" d="M37.89,23.37c0.39-0.12,0.78-0.24,1.16-0.36c0.27,0.18,0.54,0.36,0.82,0.54c-0.61,0.57-1.47,0.56-2.16,0.95
		c-4.09,1.04-8.26,1.46-12.48,1.45c-0.12-0.29,0.04-0.49,0.22-0.68c0.15-0.14,0.32-0.23,0.52-0.28c2.03-0.12,4.06-0.21,6.07-0.51
		c1.47-0.22,2.91-0.5,4.32-0.93C36.86,23.39,37.36,23.28,37.89,23.37z"/>
	<path class="st36" d="M40.03,22.33c0.02-2.4,0.04-4.8,0.06-7.19c0.45,0.43,0.23,0.98,0.24,1.47c0.03,1.55,0.02,3.1,0,4.65
		C40.34,21.64,40.5,22.08,40.03,22.33z"/>
	<path class="st37" d="M25.46,25.43c-0.08,0.17-0.16,0.34-0.23,0.52c-0.48,0.01-0.96,0.02-1.44,0.04c-2.46-0.1-4.93-0.2-7.39-0.3
		c-0.03-0.06-0.06-0.11-0.09-0.17c0.46-0.28,1.25,0.41,1.48-0.51c0.1-0.12,0.22-0.2,0.36-0.25c2.05,0.11,4.11,0.11,6.16,0.15
		C24.76,24.91,25.18,25.03,25.46,25.43z"/>
	<path class="st38" d="M28.86,9.89c-0.46,0.32-1,0.11-1.49,0.25c-5.06,0.04-10.12-0.02-15.11-1c-1.03-0.2-2.05-0.51-3.07-0.77
		c0.56-0.85,1.71-0.47,2.36-1.13c3.92,0.87,7.9,1.24,11.91,1.18c1.39-0.02,2.78,0.01,4.17,0.01c0.32,0.43,0.84,0.1,1.3,0.36
		c-0.75,0.23-1.13,1.04-1.99,1.1C27.58,9.89,28.22,9.89,28.86,9.89z"/>
	<path class="st39" d="M23.04,16.89c-2.42-0.11-4.83-0.21-7.23-0.54c-2.33-0.32-4.55-0.96-6.69-1.91c-0.08-1.06,0.3-1.16,1.3-0.89
		c2.95,0.82,5.96,1.31,9.03,1.37c1.51,0.45,3.06,0.08,4.58,0.24c0.28,0.76-0.35,1.17-0.66,1.7C23.27,16.93,23.16,16.94,23.04,16.89z
		"/>
	<path class="st40" d="M27.4,11.79c-0.35,0.39-0.83,0.16-1.24,0.28c-5.28-0.26-10.57-0.4-15.73-1.72c-0.39-0.1-0.79-0.14-1.02-0.53
		C9.21,9.51,9.38,9.41,9.66,9.35c5.26,1.45,10.64,1.67,16.05,1.74c0.32,0,0.64,0.02,0.96,0.03C26.81,11.45,27.2,11.52,27.4,11.79z"
		/>
	<path class="st41" d="M27.4,11.79c-0.34-0.12-1.18,0.31-0.73-0.67c0.07-0.03,0.15-0.07,0.22-0.1c2.56-0.23,5.11-0.46,7.67-0.69
		c0.26,0.05,0.55-0.04,0.74,0.23c-0.47,0.09-0.94,0.19-1.41,0.28C31.72,11.16,29.56,11.48,27.4,11.79z"/>
	<path class="st23" d="M23.31,16.82c-0.01-0.66,0.64-1.03,0.73-1.65c2.07-0.09,4.15-0.18,6.22-0.27c0.72-0.23,1.32-0.28,1.32,0.76
		c0,0.26,0.47,0.32,0.37,0.68c-0.47,0.1-0.95,0.19-1.42,0.29C28.14,17.44,25.73,17.44,23.31,16.82z"/>
	<path class="st39" d="M31.95,16.34c-0.58-0.26-1.26-0.48-0.54-1.38c-0.47-0.03-0.81-0.04-1.15-0.06c0.43-0.41,0.99-0.14,1.48-0.26
		c2.03-0.18,3.98-0.72,5.95-1.2c0.02,0.5,0.04,1,0.06,1.5C35.88,15.67,33.96,16.2,31.95,16.34z"/>
	<path class="st42" d="M37.89,23.37c-3.91,1.46-7.99,1.88-12.13,1.88c-0.19-1.35,0.72-2.13,1.54-2.96c0.42,0.13,0.22,0.62,0.49,0.83
		c0.05-0.79-0.08-1.57,0.12-2.34c0.68-1.17,1.31-2.37,2.05-3.5c0.11-0.07,0.22-0.07,0.34,0c2.45-0.01,4.8-0.67,7.19-1.13
		c0.41,1.18,0.17,2.39,0.14,3.6c-0.51-0.1-0.6-0.59-0.87-0.92c-0.23-0.28-0.43-0.61-0.86-0.53c-0.42,0.08-0.53,0.45-0.64,0.79
		c-0.27,0.86-0.42,1.74-0.59,2.69c0.58-0.93,1.39-1.33,2.35-1c0.62,0.21,0.98,0.78,0.69,1.52C37.68,22.67,37.6,23.05,37.89,23.37z"
		/>
	<path class="st43" d="M30.29,17.27c-0.09,0.04-0.17,0.07-0.26,0.11c-0.59,0.38-1.27,0.51-1.95,0.5c-1.78-0.04-3.58,0.29-5.35-0.2
		c-0.05-0.06-0.1-0.11-0.15-0.17c0.16-0.2,0.48-0.28,0.46-0.61c0.09-0.02,0.18-0.05,0.27-0.07c2.41,0.27,4.81-0.07,7.22-0.19
		C30.45,16.85,30.37,17.06,30.29,17.27z"/>
	<path class="st42" d="M18.04,24.95c-0.08,0.02-0.16,0.03-0.25,0.05c-2.99-0.3-5.89-1-8.67-2.15c-0.01-1.37-0.02-2.75-0.03-4.12
		c-0.22-0.56,0.02-1.03,0.52-1.13c0.61-0.12,0.58,0.54,0.67,0.92c0.21,0.8,0.27,1.64,0.46,2.55c0.26-0.85,0.51-1.59,0.94-2.27
		c0.17-0.27,0.35-0.59,0.73-0.51c0.32,0.07,0.33,0.41,0.39,0.68c0.19,0.81,0.28,1.63,0.26,2.66c0.24-1.2-0.08-2.16-0.17-3.15
		c-0.07-0.76-0.49-0.92-1.02-0.4c-0.84,0.83-1.24,0.32-1.54-0.45c-0.23-0.6-0.62-1.01-1.2-1.24c-0.01-0.37-0.02-0.75,0.5-0.78
		c2.87,1,5.81,1.61,8.85,1.75c1.12,0.22,2.26-0.07,3.38,0.16c0.23,0,0.47,0,0.7-0.01c0,0-0.01,0.11-0.01,0.11
		c0.12,0.4-0.07,0.65-0.41,0.84c-0.24,0.1-0.51,0.14-0.75,0.23c-0.53,0.21-0.08,0.36,0.04,0.52c0.05,0.1,0.08,0.21,0.09,0.32
		c-0.35,0.86-0.57,1.81-1.64,2.11c-0.47-0.73-0.17-1.54-0.27-2.32c-0.22,0.34-0.04,0.86-0.48,1.1c-1.18-0.98-1.28-0.93-1.69,1.08
		c0.07-0.17,0.04-0.28,0.08-0.38c0.17-0.42,0.08-1.11,0.62-1.16c0.55-0.05,0.64,0.62,0.79,1.05c0.16,0.45,0.42,0.85,0.62,1.28
		C19.51,23.44,18.91,24.28,18.04,24.95z"/>
	<path class="st44" d="M9.14,16.38c0.55-0.4,0.88-0.12,1.13,0.37c0.26,0.53,0.5,1.08,0.74,1.6c0.11,0,0.21,0.03,0.24,0
		c0.42-0.44,0.67-1.24,1.45-1.03c0.77,0.22,0.42,1.01,0.53,1.55c0.2,0.94,0.28,1.89,0.26,2.85c-0.01,0.26,0.05,0.62-0.35,0.63
		c-0.41,0.01-0.38-0.34-0.4-0.6c-0.03-0.56-0.01-1.12-0.06-1.67c-0.05-0.54-0.16-1.07-0.27-1.78c-0.92,1.09-1.27,2.23-1.55,3.48
		c-0.94-1.2-0.46-2.78-1.16-4.07c-0.41,0.18-0.45,0.65-0.61,1.02c-0.39,0.42-0.3,1.57-1.05,1.26c-0.73-0.3,0.11-1.01,0.23-1.53
		C8.45,17.74,8.84,17.07,9.14,16.38z"/>
	<path class="st43" d="M21.88,17.51c-1.13,0.01-2.27,0.19-3.38-0.16C19.63,17.36,20.77,17.15,21.88,17.51z"/>
	<path class="st44" d="M37.7,22.3c-0.32-0.48-0.1-1.4-1.03-1.39c-0.9,0.01-1.65,0.32-1.84,1.35c-0.04,0.19-0.08,0.4-0.55,0.44
		c0.12-1.6,0.33-3.14,1.01-4.55c0.34-0.69,1-0.4,1.39,0.07c0.38,0.45,0.64,1.01,0.95,1.51c0.21,0.59,0.39,1.19,0.64,1.76
		C38.54,22.12,38.21,22.26,37.7,22.3z"/>
	<path class="st45" d="M22.05,18.3c0.3-0.14,0.37-0.44,0.52-0.69c2.49-0.08,4.98-0.16,7.46-0.23c-0.45,1.2-1.05,2.32-1.89,3.3
		c-0.31-0.13-0.42,0.02-0.44,0.31c-0.03,0.39,0.02,0.79-0.13,1.16c-0.06,0.1-0.14,0.17-0.25,0.21c-0.46,0.99-1.3,1.78-1.55,2.89
		c-0.1,0.06-0.2,0.12-0.3,0.18c-1.25-0.28-2.52-0.19-3.78-0.2c-1.23-0.01-2.44-0.09-3.65-0.28c0.48-0.86,0.96-1.72,1.44-2.59
		c0-0.35,0.11-0.63,0.48-0.74c0.48-0.72,0.96-1.43,1.45-2.15c0.57,0.01,0.44,0.46,0.46,0.78c0.03,0.52,0.01,1.04,0.01,1.56
		c0.01-0.63,0-1.26,0-1.89c0-0.38,0.09-0.69,0.47-0.9c0.3-0.16,0.28-0.2-0.19-0.42C22.06,18.53,22.03,18.42,22.05,18.3z"/>
	<path class="st46" d="M32.55,20.15c1.11-0.15,0.99,0.03,0.7,0.84c-0.45,1.26-0.92,2.07-2.41,1.87c-1.16-0.15-1.73-0.94-1.52-2.23
		c0.19-1.19,1.36-2.23,2.3-2.04c0.23,0.05,0.33,0.19,0.35,0.41c0.03,0.34-0.14,0.54-0.45,0.61c-0.38,0.09-0.82,0.01-1.1,0.37
		c-0.42,0.54-0.62,1.16-0.23,1.77c0.36,0.58,1,0.43,1.54,0.33c0.38-0.07,0.69-0.38,0.39-0.78c-0.2-0.27-0.85-0.24-0.55-0.83
		C31.82,19.97,32.33,20.18,32.55,20.15z"/>
	<path class="st47" d="M27.39,22.11c-0.01-0.47-0.03-0.94-0.01-1.41c0.01-0.28-0.1-0.72,0.37-0.73c0.49-0.01,0.3,0.45,0.39,0.71
		c-0.16,1.04,0.18,2.11-0.19,3.13c-0.43-0.19-0.25-0.59-0.32-0.91C27.57,22.63,27.85,22.26,27.39,22.11z"/>
	<path class="st48" d="M27.39,22.11c0.17,0.05,0.36-0.67,0.48-0.02c0.1,0.56,0.05,1.15,0.07,1.72c-0.41,0.34-0.55,0.09-0.59-0.29
		c-0.04-0.39-0.03-0.78-0.05-1.17C27.34,22.28,27.36,22.19,27.39,22.11z"/>
	<path class="st4" d="M14.23,20.44c-0.01-0.82,0.26-1.58,0.67-2.27c0.36-0.6,0.87-0.62,1.17,0.05c0.64,1.44,0.69,2.96,0.47,4.63
		c-0.64-0.37-0.56-0.89-0.69-1.32c-0.22-0.78-0.79-0.9-1.39-0.32C14.16,21.02,14.41,20.67,14.23,20.44z"/>
	<path class="st49" d="M19.95,21.63c-0.11,0.28-0.21,0.56-0.48,0.74c-0.87-0.5-0.64-1.58-1.27-2.35c-0.49,0.79-0.46,1.73-0.94,2.47
		c-0.17-1.07,0-2.17,0.64-2.95c0.87-1.06,0.78,0.44,1.28,0.67c0.23-0.62-0.07-1.38,0.55-2.05C20.16,19.38,19.78,20.53,19.95,21.63z"
		/>
	<path class="st50" d="M22.12,18.49c0.2,0,0.4-0.02,0.6-0.01c0.35,0.01,0.85-0.09,0.89,0.37c0.06,0.6-0.5,0.35-0.78,0.35
		c-0.63-0.01-0.71,0.34-0.7,0.84c0.02,1.05,0.01,2.11-0.16,3.16c-0.72-1.18-0.04-2.54-0.57-3.73c0-0.08,0-0.15-0.02-0.22
		C21.46,18.84,21.72,18.6,22.12,18.49z"/>
	<path class="st51" d="M22.12,18.49c-0.18,0.32-0.42,0.58-0.74,0.76c-0.31-0.08-0.81,0.16-0.87-0.31c-0.07-0.48,0.45-0.41,0.75-0.49
		c0.26-0.07,0.52-0.11,0.78-0.16C22.07,18.37,22.09,18.43,22.12,18.49z"/>
	<path class="st52" d="M14.23,20.44c0.25,0.2,0.18,0.5,0.23,0.77c-0.06,0.44,0.11,0.93-0.43,1.5
		C13.81,21.79,13.97,21.12,14.23,20.44z"/>
	<path class="st53" d="M36.12,18.73c0.29,0.49,0.83,0.84,0.49,1.37c-0.13,0.2-0.76,0.47-0.91,0.18
		C35.43,19.78,35.8,19.27,36.12,18.73z"/>
	<path class="st54" d="M25.91,23.51c-0.33,0.42-0.71,0.4-1.05,0.47c-0.93,0.19-1.46-0.06-1.34-1.14c0.05-0.47-0.02-0.96-0.09-1.43
		c-0.19-1.26,0.58-1.99,1.82-1.71c0.2,0.04,0.41,0.08,0.43,0.32c0.03,0.34-0.22,0.37-0.47,0.39c-0.2,0.01-0.4,0.01-0.6,0.03
		c-0.31,0.04-0.54,0.19-0.54,0.53c-0.01,0.5,0.38,0.42,0.68,0.43c0.2,0.01,0.4-0.02,0.6-0.01c0.19,0.01,0.43,0,0.45,0.27
		c0.03,0.3-0.19,0.41-0.45,0.44c-0.2,0.02-0.4,0.03-0.6,0.02c-0.5-0.03-0.74,0.16-0.71,0.69c0.03,0.55,0.39,0.49,0.76,0.49
		C25.15,23.29,25.52,23.2,25.91,23.51z"/>
	<path class="st55" d="M28.06,18.68c-0.06,0.31-0.21,0.5-0.48,0.46c-0.2-0.03-0.35-0.18-0.36-0.4c-0.01-0.23,0.15-0.37,0.35-0.4
		C27.85,18.29,27.98,18.48,28.06,18.68z"/>
	<path class="st56" d="M15.46,18.66c0.15,0.66,0.38,1.13,0.02,1.57c-0.07,0.08-0.59-0.04-0.61-0.13
		C14.74,19.59,14.89,19.14,15.46,18.66z"/>
</g>
</svg>
