<?xml version="1.0" encoding="utf-8"?>
<!-- Generator: Adobe Illustrator 23.0.2, SVG Export Plug-In . SVG Version: 6.00 Build 0)  -->
<svg version="1.1" id="Camada_1" xmlns="http://www.w3.org/2000/svg" xmlns:xlink="http://www.w3.org/1999/xlink" x="0px" y="0px"
	 viewBox="0 0 91.53 95.85" style="enable-background:new 0 0 91.53 95.85;" xml:space="preserve">
<style type="text/css">
	.st0{fill:#010002;}
	.st1{fill:#631728;}
	.st2{fill:#95173B;}
	.st3{fill:#72501F;}
	.st4{fill:#741C2F;}
	.st5{fill:#561423;}
	.st6{fill:#661A2A;}
	.st7{fill:#641828;}
	.st8{fill:#7A192F;}
	.st9{fill:#5D411E;}
	.st10{fill:#C13134;}
	.st11{fill:#E3AC66;}
	.st12{fill:#F5E889;}
	.st13{fill:#EDC879;}
	.st14{fill:#D7614A;}
	.st15{fill:#C2373E;}
	.st16{fill:#F5F2A2;}
	.st17{fill:#BF2D36;}
	.st18{fill:#971C24;}
	.st19{fill:#DD9C21;}
	.st20{fill:#9C1D24;}
	.st21{fill:#7F191E;}
	.st22{fill:#C3424E;}
	.st23{fill:#F5E686;}
	.st24{fill:#E4B66D;}
</style>
<g>
	<path class="st0" d="M26.79,22.76c-5.27-4.96-5.58-9.2-1.19-13.6c3.74-3.75,11.71-2.98,14.58,1.43c2.47,3.8,5.63,7.12,7.73,11.18
		c0.87,1.68,2.03,1.89,3.83,1.26c4.29-1.48,8.76-2.37,13.31-2.36c3.15,0.01,6.22,0.84,8.49,3.25c3.11,3.31,6.02,6.82,9.15,10.11
		c2.48,2.61,2.37,5.88,2.72,9.06c1.48,13.65-1.96,26.07-10.85,36.41C69.85,85,63.94,89.44,55.8,89.42
		c-5.96-0.01-11.9,0.99-17.91,0.34c-3.82-0.42-7.21-1.53-10.11-4.09c-5.8-5.12-12.83-8.96-17.11-15.68
		c-5.62-8.82-7.68-30.05,0.35-38.11C15.29,27.6,20.31,24.09,26.79,22.76z"/>
	<path class="st1" d="M80.76,44.6c1.72,6.43-0.02,12.46-2.23,18.4c-3.31,8.89-8.83,15.96-17.3,20.52c-1.26-0.19-2.89,1.84-3.77-0.63
		c0.67-1.55,2.28-1.87,3.51-2.68c1.82-0.88,3.05-2.43,4.41-3.83c6.24-6.75,10.57-14.49,12.3-23.59c0.74-2.63,0.89-5.28,0.21-7.94
		c-0.31-1.38-1.02-2.72-0.44-4.19c1.55-1.08,1.92,0.21,2.53,1.21C80.5,42.73,79.82,43.89,80.76,44.6z"/>
	<path class="st2" d="M80.76,44.6c-0.24,0.15-0.37,1.57-0.7,0.3c-0.45-1.8-0.37-3.7-2.53-4.47c-1.44-0.03-1.86-1.31-2.63-2.16
		c-1.73-2.31-4.05-3.98-6.25-5.78c-3.5-2.87-7.44-3.46-11.71-2.1c-1.24,0.41-2.27,1.23-3.43,1.8c-0.75,0.35-1.52,0.67-2.38,0.52
		c-1.17-0.8-2.72-1.26-2.79-3.07c5.18-3.04,10.78-4.29,16.75-3.68c2.92,0.3,5.53,1.33,7.52,3.65c2.25,2.62,4.54,5.2,6.82,7.79
		C81.32,39.54,80.56,42.16,80.76,44.6z"/>
	<path class="st3" d="M36.82,26.69c-1.26-1.67-2.52-3.33-3.78-5c0.23-0.94,0.82-1.5,1.76-1.7c3.53,2.24,4.72,6.46,7.78,9.25
		c-2.08-3.62-3.46-7.49-5.89-10.78c-1.34-1.81-2.65-3.79-5.38-3.54c-0.82-0.05-1.59,0.31-2.39,0.34c-1.18,0.05-1.38-0.57-0.78-1.53
		c3.12-3.42,6.06-3.34,8.7,0.53c3.55,5.2,7.83,9.96,10.09,15.98c0.23,1.68,0.22,3.3-1.27,4.5c-2.44,0.38-4.01-1.05-5.52-2.63
		C39.48,30.03,37.54,28.72,36.82,26.69z"/>
	<path class="st4" d="M57.66,82.88c0.92,1.7,2.59-0.74,3.56,0.65c-0.6,0.84-1.51,1.34-2.45,1.31c-7.03-0.25-13.98,1.47-21.08,0.42
		c-3.47-0.51-5.99-2.21-8.52-4.16c-3.1-2.4-6.04-5-9.06-7.51c0.41-1.99,1.6-1.12,2.55-0.61c1.26,0.67,2.45,1.49,3.93,1.65
		c0.69,0.23,1.29,0.61,1.82,1.09c6.21,5.49,13.44,7.75,21.67,6.84C52.6,83.02,55.21,81.15,57.66,82.88z"/>
	<path class="st5" d="M12.22,61.32c-4.33-11.52-1.94-22.4,6.51-29.64c1.32,0.32,3.31-1.89,3.94,1.05c-0.26,0.99-1.02,1.62-1.76,2.21
		c-6.31,5.05-7.64,11.77-6.53,19.33c0.29,2.01,0.56,4.02,0.31,6.06C14.12,61.27,13.21,61.41,12.22,61.32z"/>
	<path class="st6" d="M22.37,32.45c-0.89-1.77-2.7,0.78-3.63-0.77c4.62-3.84,9.81-5.61,15.84-4.37c0.8,0.16,1.69,0.26,2.24-0.63
		c1.68,1.35,3.68,2.46,3.61,5.06c-1.27,0.94-2.52,0.19-3.78-0.03c-3.7-0.67-7.37-0.75-10.95,0.62
		C24.6,32.62,23.51,33.34,22.37,32.45z"/>
	<path class="st7" d="M12.22,61.32c0.52-0.88,1.38-0.79,2.21-0.8c2.63,0.49,2.48,3.32,4.01,4.74c1.39,2.5,3.23,4.64,5.28,6.62
		c0.91,0.88,2.03,1.67,2.23,3.09c-1.57,1.31-2.11-0.79-3.24-1.01c-0.86-0.17-1.47-1.87-2.59-0.38
		C16.17,70.35,13.77,66.11,12.22,61.32z"/>
	<path class="st8" d="M45.4,34.62c1.18-1.23,0.13-3.22,1.51-4.38c0.48-0.2,0.95-0.4,1.43-0.6c0.86,0.98,2.28,1.39,2.79,2.72
		c1.31,3.63,1.31,3.63-2.44,5.22c-2.37,0.33-4.75,0.34-7.11,0.08c-1.46-0.16-3.17-0.65-2.81-2.46c0.36-1.83,2.14-1.49,3.55-1.23
		C43.35,34.16,44.26,34.92,45.4,34.62z"/>
	<path class="st9" d="M28.13,13.73c0.09,0.6,0.11,1.32,1.02,0.73c0.6-0.39,1.15-0.96,1.82-0.13c0.71,2.32,3.75,3.25,3.6,6.08
		c-0.51,0.43-1.02,0.85-1.54,1.28c-1.54-1.44-3.1-2.85-4.61-4.31C27.3,16.27,26.81,15.06,28.13,13.73z"/>
	<path class="st10" d="M57.66,82.88c-2.67-0.05-5.23,1.12-7.93,0.66c-7.93-1.17-13.12-6.45-18.11-12.04
		c-8.23-9.11-7.3-20.51-1.28-30.56c0.83-0.81,1.61-1.73,2.98-1.38c2.09,2.22,2.99,5.13,4.35,7.76c4.96,9.66,12.8,15.52,23.37,17.71
		c5.85,1.22,9.13-1.02,10.45-6.85c0.37-1.63,0.39-3.33,0.96-4.91c0.3-0.83,0.34-2.16,1.61-1.97c0.92,0.14,0.91,1.26,1.03,2.08
		c0.07,0.47,0.06,0.95,0.05,1.43c-1.08,7.96-3.35,15.41-9.05,21.41c-1.59,1.58-3.19,3.16-4.81,4.72
		C60.05,81.59,58.86,82.23,57.66,82.88z"/>
	<path class="st11" d="M65.6,76.38c4.99-6.33,7.58-13.62,8.64-21.52c1.26-2.28-0.98-4.71,0.29-6.99c3.4,0.28,3.54,2.92,3.89,5.4
		c-1.83,9.33-6.15,17.32-12.85,24.03C65.25,76.98,65.26,76.68,65.6,76.38z"/>
	<path class="st12" d="M75.71,38.09c0.61,0.78,1.22,1.56,1.83,2.34c0.36,1.36,0.72,2.71,1.08,4.07c0.56,1.94,0.42,3.1-1.99,1.83
		C76.01,46,75.29,46,74.64,45.78c-1.74-1.45-1.93-3.56-2.38-5.57C72.57,38.14,73.24,36.65,75.71,38.09z"/>
	<path class="st13" d="M74.72,45.51c0.83-0.31,1.66-1.13,2.55-0.17c2.09,2.28,0.82-0.69,1.34-0.85c1.28,2.95,0.98,5.87-0.19,8.77
		c-0.57-2.25-2.93-3.43-3.42-5.72C74.32,46.95,74.3,46.26,74.72,45.51z"/>
	<path class="st14" d="M65.6,76.38c-0.01,0.3-0.02,0.61-0.03,0.92c-1.11,1.6-2.49,2.89-4.32,3.64
		C62.22,78.96,63.85,77.61,65.6,76.38z"/>
	<path class="st15" d="M74.72,45.51c0.09,0.68,0.19,1.36,0.28,2.03c-0.38,2.42,0.54,4.98-0.76,7.31c-0.04-0.94-0.09-1.88-0.14-3.01
		c-1.69,2.18-1.21,4.71-1.83,6.97c-1.72,6.26-5.4,8.59-11.68,7.14c-11.13-2.56-19.41-8.7-24.23-19.2c-1.09-2.37-2.68-4.52-3.22-7.15
		c0.05-2.58,1.84-2.95,3.7-2.48c3.76,0.96,7.55,0.71,11.33,0.8c1.31,0.11,2.55-0.16,3.75-0.73c3.83-1.82,4.01-2.48,1.33-5.5
		c1-0.68,2-1.36,3-2.03c0.93,0.52,1.8,1.14,2.73,1.67c0.58,0.45,1.22,1.06,0.9,1.76c-1.55,3.36,0.89,3.69,3.02,3.72
		c2.34,0.03,3.42,1.14,3.99,3.15c0.59,0.82,0.82,1.97,2.32,2.24c0.36-2.04-1.49-3.01-2.05-4.51c-0.66-1.41-0.34-2.39,1.26-2.77
		c2.29,0.79,4.13,2.01,4.35,4.71C73.44,41.59,74.08,43.55,74.72,45.51z"/>
	<path class="st16" d="M58.17,31.6c-1.13-0.17-1.62-0.95-1.89-1.94c7.43-2.24,13.78,0.51,19.43,8.43c-1.1,0.26-2.59-0.21-2.91,1.54
		c-1.14-1.7-2.41-3.29-4.16-4.41C65.14,34.01,61.97,31.88,58.17,31.6z"/>
	<path class="st17" d="M53.27,31.69c1.14,0.91,3.46,0.4,3.52,2.5c0.06,1.9-1.98,2.23-3.17,3.06c-1.33,0.93-2.82,1.86-4.63,1.66
		c-0.79-1.07,0-1.61,0.73-2.17c0.48-0.89,2.05-0.88,1.91-2.25c-0.85-1.3-1.97,0.36-2.89-0.31c0.41-1.15,1.31-1.62,2.41-1.81
		C51.84,32.14,52.55,31.92,53.27,31.69z"/>
	<path class="st18" d="M49.71,36.74c-0.24,0.72-0.48,1.45-0.73,2.17c-4.28-0.09-8.61,0.48-12.76-1.02
		c-1.73-0.63-2.31,0.67-3.06,1.73c-0.71,0.5-1.41,1-2.12,1.5c-3.01-2.47-4.82-5.67-5.8-9.4c5.07-2.67,10.13-1.48,15.19,0.03
		c1.66,0.96,3.31,1.92,4.97,2.88c-1.08,1.35-2.19,0.01-3.28,0.06c-0.97,0.04-2.54-0.62-2.72,0.74c-0.19,1.43,1.38,1.32,2.41,1.33
		C44.45,36.78,47.08,36.75,49.71,36.74z"/>
	<path class="st19" d="M34.57,20.41c-0.66-2.35-4.32-2.91-3.6-6.07c1.67-1.11,2.88-0.24,4.08,0.91c4.34,4.18,6.13,9.79,8.51,15.12
		C39.11,28.33,38.01,23.31,34.57,20.41z"/>
	<path class="st20" d="M32.44,71.33c4.86,5.34,10.36,9.79,17.28,12.21c-9.4,1.23-16.99-2.54-23.78-8.56
		c-3.09-2.77-6.47-5.28-7.93-9.41c1.58-0.62,2.75,0.45,4,1.05C25.46,68.25,28.78,70.16,32.44,71.33z"/>
	<path class="st21" d="M32.44,71.33c-1.76,1.09-3.14-0.23-4.52-0.86c-3.35-1.53-6.61-3.26-9.91-4.91c-2.06-1.06-1.88-3.72-3.58-5.03
		c-2.25-11.19-2.99-20.23,7.93-28.08c0.96-0.24,1.91-0.49,2.87-0.73c2.46,2.81,3.96,6.21,5.8,9.4c-0.95,2.18-2.01,4.32-2.83,6.55
		C25,56.36,26.5,64.25,32.44,71.33z"/>
	<path class="st22" d="M58.17,31.6c4.23-0.94,7.47,0.98,10.47,3.62c-1,0.41-1.67,0.96-0.88,2.11c-0.39,1.06-0.5,2.25-1.47,3.03
		c-0.49-2.32-2.3-2.42-4.19-2.84c-2.14-0.47-6.28-0.15-2.82-4.46C59.83,32.37,58.75,31.95,58.17,31.6z"/>
	<path class="st23" d="M66.28,40.37c-0.11-1.3-0.56-2.77,1.47-3.03c0.69,0.81,1.4,1.61,2.08,2.43c0.99,1.21,1.66,2.66-0.02,3.63
		c-1.64,0.94-2.19-0.67-2.8-1.81C66.78,41.17,66.52,40.78,66.28,40.37z"/>
	<path class="st24" d="M61.95,41.38c1.15,0.21,1.38,1.11,1.46,2.07c0.07,0.87-0.1,1.76-1.12,1.84c-1.14,0.09-1.64-0.76-1.72-1.79
		C60.49,42.5,60.81,41.67,61.95,41.38z"/>
</g>
</svg>
