<?xml version="1.0" encoding="utf-8"?>
<!-- Generator: Adobe Illustrator 23.0.2, SVG Export Plug-In . SVG Version: 6.00 Build 0)  -->
<svg version="1.1" id="Camada_1" xmlns="http://www.w3.org/2000/svg" xmlns:xlink="http://www.w3.org/1999/xlink" x="0px" y="0px"
	 viewBox="0 0 42.81 22.27" style="enable-background:new 0 0 42.81 22.27;" xml:space="preserve">
<style type="text/css">
	.st0{fill:#FEFEFE;}
	.st1{fill:#486E72;}
	.st2{fill:#C85E1B;}
	.st3{fill:#496D70;}
	.st4{fill:#415D60;}
	.st5{fill:#4C7074;}
	.st6{fill:#CCE3E5;}
	.st7{fill:#DA9732;}
	.st8{fill:#E9E439;}
	.st9{fill:#EAEA3A;}
	.st10{fill:#F4F5F5;}
	.st11{fill:#FCFCEE;}
</style>
<g>
	<path class="st0" d="M12.42,19.04c-1.22,1.9-2.77,2.55-4.74,2.05C7.34,21,6.91,20.9,6.72,20.65c-0.71-0.94-1.6-1.06-2.73-1.09
		C1.21,19.47-1.41,16.1,0.86,13c1.97-2.69,4.26-4.79,7.31-6.14C9.61,6.23,10.89,5.4,12,4.15c1.74-1.96,4.32-2.58,6.76-3.37
		c2.23-0.73,4.39-0.59,6.58,0.01c0.61,0.17,1.13-0.02,1.72-0.16c3.39-0.78,6.86-1.13,9.97,0.75c1.37,0.83,2.85,1.99,3.07,3.9
		c0.05,0.4,0.33,0.51,0.59,0.68c1.88,1.22,2.43,2.3,1.96,3.88c-0.45,1.53-2.54,3.03-4.29,2.88c-0.88-0.08-1.33,0.17-1.82,0.86
		c-0.87,1.21-2.3,1.34-3.63,1.56c-0.67,0.11-1.35,0.09-2.03,0.17c-0.84,0.1-1.51,0.37-2.09,1.14c-1.72,2.32-5.43,3.08-8,1.77
		c-1.1-0.56-1.44-0.38-1.57,0.84c-0.21,1.9-1.55,3.24-3.39,3.21C14.29,22.24,12.69,21.71,12.42,19.04z"/>
	<path d="M36.53,10.93c-0.4,2.36-2.12,2.97-4.19,3.07c-0.44,0.02-0.88,0.03-1.31,0.1c-1.26,0.21-2.41,0.35-3.27,1.68
		c-1.24,1.92-4.4,2.42-6.47,1.36c-1.37-0.7-2.04-0.59-3.23,0.41c-0.36,0.31-0.16,0.52-0.1,0.81c0.2,0.95-0.1,1.75-0.88,2.32
		c-0.79,0.57-1.68,0.52-2.5,0.13c-0.72-0.34-1.04-0.99-0.86-1.8c0.11-0.47,0.05-0.66-0.48-0.81c-0.79-0.22-1.13-1.21-2.14-1.43
		c0.34,1.04,0.33,1.93-0.5,2.65c-0.74,0.65-1.57,0.69-2.47,0.54c-0.75-0.13-1.3-0.53-1.36-1.29c-0.05-0.63-0.29-0.53-0.73-0.45
		c-1.67,0.3-3.24,0.34-4.39-1.31C1.02,16.01,1,15.17,1.52,14.28c1.7-2.91,4.08-5.03,7.21-6.38c1.54-0.66,2.94-1.52,4.11-2.9
		c1.55-1.84,3.98-2.34,6.22-3.08c2.16-0.72,4.23-0.47,6.32,0.09c0.59,0.16,1.15,0.13,1.64-0.07c2.23-0.9,4.54-0.75,6.82-0.5
		c2.73,0.31,4.62,2.16,5.16,4.86c0.1,0.5,0.43,0.36,0.69,0.46c1.51,0.6,2.26,1.8,1.81,2.89c-0.56,1.36-2.65,2.26-4.06,1.72
		C37.14,11.27,36.87,11.1,36.53,10.93z"/>
	<path class="st1" d="M25.66,3.41c1.52-0.3,3.03-0.65,4.56-0.89c1.81-0.29,3.6-0.03,5.23,0.74c0.85,0.4,1.58,1.21,2.16,1.98
		c0.63,0.83,0.04,2.07-1.12,2.43c-0.96,0.3-1.39,0.61-1.03,1.77c0.48,1.55-0.75,3.07-2.42,3.29c-1.58,0.21-3.17,0.24-4.72,0.7
		c-0.51,0.15-0.78,0.31-0.98,0.85c-0.65,1.75-3.43,2.78-5.17,1.99c-0.47-0.21-0.94-0.44-1.41-0.66c-0.76-0.34-1.43-0.25-2.13,0.23
		c-0.82,0.56-1.7,1.02-2.7,1.24c-1.35,0.3-2.49,0.3-3.32-1.08c-0.38-0.63-1.14-0.39-1.76-0.24c-1.93,0.46-3.86,0.95-5.8,1.4
		c-0.3,0.07-0.64,0.1-0.95,0.05c-1.37-0.2-2-1.5-1.28-2.75c1.39-2.38,3.38-4.09,5.89-5.26c1.46-0.68,3-1.27,4.2-2.42
		c0.48,0.33,0.37,0.79,0.26,1.24c-0.75,0.92-1.9,1.11-2.91,1.54c-2,0.87-3.82,1.98-5.29,3.61c-0.42,0.49-0.79,1.01-1.09,1.57
		c-0.45,0.82-0.11,1.41,0.84,1.45c0.72,0.03,1.42-0.18,2.12-0.37c1.08-0.29,2.14-0.65,3.22-0.95c1.31-0.37,2.52-0.3,3.51,0.81
		c0.58,0.65,1.35,0.61,2.12,0.44c0.79-0.17,1.56-0.47,2.18-0.95c1.39-1.07,2.75-0.85,4.14-0.1c0.82,0.45,1.66,0.49,2.55,0.25
		c0.82-0.22,1.49-0.65,1.81-1.43c0.42-1.01,1.22-1.39,2.2-1.62c1.37-0.32,2.77-0.36,4.15-0.58c1.36-0.23,1.89-0.89,1.7-2.21
		c-0.23-1.6-0.06-1.93,1.48-2.67c0.57-0.27,1-0.55,0.61-1.26c-0.6-1.04-1.5-1.65-2.7-1.74c-2.46-0.17-4.94-0.46-7.25,0.79
		C25.73,4.57,25.64,4.03,25.66,3.41z"/>
	<path class="st2" d="M13.05,8.07C13,7.65,12.95,7.22,12.9,6.8c1.85-2.7,4.74-3.39,7.68-3.84c1.68-0.26,3.43-0.23,5.08,0.45
		c0.23,0.39,0.47,0.79,0.7,1.18c0.41,0.51,0.04,0.9-0.23,1.27c-2.15,2.93-7.74,4.69-11.16,3.49C14.25,9.09,13.47,8.84,13.05,8.07z"
		/>
	<path class="st3" d="M38.4,10.35c-0.56,0.01-1.06-0.12-1.12-0.78C37.22,8.8,38.19,7.72,38.9,7.8c0.66,0.08,1.24,0.43,1.4,1.1
		C40.45,9.52,39.28,10.35,38.4,10.35z"/>
	<path class="st4" d="M16.81,19.04c-0.11,0.54-0.43,0.89-1.05,0.88c-0.43,0-0.91-0.09-0.82-0.61c0.09-0.54,0.37-1.06,1.1-1.02
		C16.5,18.33,16.81,18.48,16.81,19.04z"/>
	<path class="st5" d="M8.84,18.82c-0.32-0.06-0.93,0.09-0.82-0.49c0.11-0.62,0.73-0.91,1.32-1.01c0.43-0.08,0.82,0.15,0.75,0.66
		C9.99,18.64,9.47,18.81,8.84,18.82z"/>
	<path class="st0" d="M13.05,8.07c4.3,2.4,8.21,1.34,11.9-1.39c0.68-0.5,1.4-1.09,1.42-2.09c0.02-0.6,0.52-0.63,0.92-0.74
		c2.42-0.67,4.88-0.64,7.32-0.18c1.03,0.19,1.72,0.91,2.12,1.89c-2.02,0.56-3.23,1.89-3.84,3.88c-0.23,0.77-0.86,1.22-1.76,1.15
		c-2.14-0.16-4.01,0.56-5.59,1.96c-0.73,0.65-1.5,0.88-2.42,0.67c-1.48-0.34-2.85-0.05-4.17,0.62c-0.6,0.31-1.22,0.58-1.84,0.88
		c-1.57,0.75-2.97,0.74-4.44-0.4c-1.26-0.98-2.84-0.49-4.3-0.41c-0.63,0.03-1.25,0.29-1.89,0.31c-0.85,0.03-1.61-0.15-1.68-1.22
		c1.33-1.78,3.26-2.69,5.19-3.59C11.01,8.93,12.03,8.51,13.05,8.07z"/>
	<path class="st6" d="M4.82,12.99c0.5,0.92,1.24,1.13,2.22,0.83c1.47-0.46,2.99-0.33,4.51-0.37c1-0.02,1.56,0.76,2.28,1.2
		c0.7,0.44,1.28,0.39,2,0.17c1.42-0.43,2.7-1.18,4.06-1.74c1.06-0.43,2.1-0.45,3.16-0.22c0.94,0.21,1.62,0.03,2.37-0.64
		c1.61-1.44,3.52-2.26,5.77-1.94c0.92,0.13,1.28-0.46,1.52-1.19c0.32-0.95,0.67-1.86,1.46-2.56c0.74-0.67,1.51-1.17,2.56-1
		c0.87,0.83,0.3,1.22-0.48,1.5c-1.7,0.61-1.8,0.77-1.44,2.53c0.23,1.15-0.54,2.27-1.71,2.41c-1.66,0.2-3.34,0.31-4.97,0.74
		c-0.67,0.18-1.14,0.48-1.41,1.15c-0.66,1.66-2.88,2.48-4.49,1.69c-0.43-0.21-0.85-0.45-1.3-0.61c-0.91-0.33-1.74-0.32-2.59,0.32
		c-1.03,0.78-2.22,1.25-3.54,1.34c-0.57,0.04-1.11-0.09-1.37-0.55c-0.76-1.4-1.98-1.14-3.14-0.9c-1.6,0.34-3.1,1.04-4.73,1.29
		c-0.39,0.06-0.8,0.12-1.19,0.1c-0.95-0.05-1.44-0.84-0.98-1.68C3.76,14.19,4.19,13.51,4.82,12.99z"/>
	<path class="st7" d="M13.88,7.49c-0.32-0.44-0.2-0.75,0.22-1.09c2.06-1.69,4.37-2.62,7.06-2.49c-0.02,1.19,0.48,1.61,1.45,1.23
		c0.26-0.1,0.54-0.21,0.54-0.56c0.01-0.42-0.33-0.37-0.59-0.42C22.29,4.11,22,4.11,21.84,3.82c1.03-0.48,2.06-0.2,3,0.16
		c0.8,0.31,0.85,1.01,0.19,1.62c-1.59,1.46-3.42,2.44-5.56,2.81c-1.12,0.2-2.25,0.51-3.39,0.05c0.58-0.39,1.21-0.06,1.82-0.17
		C16.46,8.52,15.21,7.81,13.88,7.49z"/>
	<path class="st8" d="M21.84,3.82c0.2,0.01,0.4,0,0.59,0.03c0.43,0.06,1.03-0.2,1.11,0.55c0.08,0.73-0.46,0.99-1.01,1.1
		c-0.57,0.11-1.19,0.23-1.65-0.34c-0.43-0.54,0.01-0.86,0.28-1.24C21.38,3.89,21.61,3.85,21.84,3.82z"/>
	<path class="st9" d="M13.88,7.49c0.16-0.1-0.15-0.72,0.33-0.41c1.23,0.8,2.58,1.12,4.02,1.38c-0.72,0-1.44,0-2.16,0
		C15.28,8.28,14.45,8.19,13.88,7.49z"/>
	<path class="st10" d="M38.72,9.67c-0.39,0.03-0.66-0.05-0.63-0.41c0.04-0.43,0.33-0.74,0.74-0.81c0.33-0.06,0.7,0.17,0.71,0.48
		C39.56,9.46,39.04,9.54,38.72,9.67z"/>
	<path class="st11" d="M22.85,4.57c-0.03,0.28-0.16,0.47-0.44,0.47c-0.32,0-0.52-0.18-0.53-0.51c0-0.28,0.18-0.43,0.45-0.45
		C22.66,4.07,22.83,4.26,22.85,4.57z"/>
</g>
</svg>
