<?xml version="1.0" encoding="utf-8"?>
<!-- Generator: Adobe Illustrator 23.0.2, SVG Export Plug-In . SVG Version: 6.00 Build 0)  -->
<svg version="1.1" id="Camada_1" xmlns="http://www.w3.org/2000/svg" xmlns:xlink="http://www.w3.org/1999/xlink" x="0px" y="0px"
	 viewBox="0 0 211.67 86.4" style="enable-background:new 0 0 211.67 86.4;" xml:space="preserve">
<style type="text/css">
	.st0{fill:#FEFEFE;}
	.st1{fill:#010002;}
	.st2{fill:#3F6C80;}
	.st3{fill:#FEFEFD;}
	.st4{fill:#6C3816;}
	.st5{fill:#4D829A;}
	.st6{fill:#86471C;}
	.st7{fill:#46768C;}
	.st8{fill:#AECCDF;}
	.st9{fill:#7496AC;}
	.st10{fill:#6F3A16;}
	.st11{fill:#D7E9F2;}
	.st12{fill:#7395AB;}
	.st13{fill:#B2D1E4;}
	.st14{fill:#D8EAF2;}
	.st15{fill:#CCDFE4;}
	.st16{fill:#A5C2D3;}
	.st17{fill:#708D99;}
	.st18{fill:#AECCDB;}
	.st19{fill:#FBFAE2;}
	.st20{fill:#E6B52F;}
	.st21{fill:#EECB2A;}
	.st22{fill:#FBF9DB;}
	.st23{fill:#CE721C;}
	.st24{fill:#F6E8A3;}
	.st25{fill:#813C0F;}
	.st26{fill:#D4B67E;}
	.st27{fill:#F9EFD1;}
	.st28{fill:#F6E8CC;}
	.st29{fill:#8DB5D0;}
	.st30{fill:#427F98;}
	.st31{fill:#8FB7D2;}
	.st32{fill:#C3D7DC;}
	.st33{fill:#F4E9D0;}
	.st34{fill:#DFEDF2;}
	.st35{fill:#D0E5ED;}
	.st36{fill:#D9EAEF;}
	.st37{fill:#FAFBFB;}
	.st38{fill:#417288;}
	.st39{fill:#B9D8EB;}
	.st40{fill:#B2D6E6;}
	.st41{fill:#54A2C3;}
	.st42{fill:#E9CA8C;}
	.st43{fill:#FCFDF2;}
	.st44{fill:#F5F7BB;}
</style>
<g>
	<path class="st0" d="M111.2,86.4c-16.54-0.95-32.1-1.62-47.22-5.71c-3.89-1.05-7.65-2.69-10.86-5.27
		c-2.51-2.02-5.46-2.88-8.54-3.48c-10.52-2.06-20.64-5.36-29.93-10.76C8.28,57.47,2.36,53.13,0.41,45.34
		c-1.56-6.23,1.42-12.8,6.94-16.27c7.45-4.69,15.74-6.92,24.19-8.71c5.61-1.19,11.27-2.23,16.95-3.04c2.19-0.31,3.13-1,3.93-3.19
		c1.7-4.61,4.51-8.52,9.93-9.33c5.22-0.78,10.2-2.53,15.31-3.69c6.49-1.47,13.09-1.09,19.78-0.97c9.64,0.17,19.32,0.37,28.95,0.79
		c12.75,0.55,25.08,3.54,36.31,9.98c2.87,1.65,5.13,4.03,5.88,7.38c0.33,1.48,1.11,1.77,2.42,2.02c8.01,1.49,15.94,3.34,23.61,6.1
		c8.55,3.07,15.29,8.24,16.97,17.65c0.45,2.52-1,5.63-2.32,8.27c-3.27,6.54-9.5,9.62-15.36,13.03c-3.09,1.8-6.48,3.08-9.99,3.96
		c-5.61,1.42-10.76,3.05-15.41,7.35c-4.85,4.49-12.05,5.55-18.65,6.74c-8.97,1.62-18.05,2.25-27.15,2.26
		C118.5,85.68,114.35,86.02,111.2,86.4z"/>
	<path class="st1" d="M110.82,81.34c-14.01-0.2-29.42-1.12-44.5-4.85c-3.81-0.94-7.38-2.62-10.56-5.04
		c-2.6-1.98-5.57-3.18-8.82-3.78c-10.32-1.89-20.12-5.28-29.39-10.22c-3.64-1.94-6.77-4.5-9.58-7.5
		c-5.01-5.36-4.31-13.21,2.62-17.27c8.9-5.22,18.72-7.1,28.55-9.12c4.56-0.94,9.19-1.5,13.8-2.17c1.71-0.25,2.68-0.84,3.09-2.79
		c1.12-5.45,3.67-9.19,10.12-9.69c6.27-0.48,12.04-3.87,18.46-4.14c3.64-0.15,7.32-1.4,10.91,0.4c0.38,0.19,0.95,0.05,1.42,0
		c10.88-1.07,21.77-0.1,32.56,0.7c10.31,0.76,20.52,3.23,29.74,8.47c2.93,1.66,5.22,3.69,5.25,7.51c0.02,2.3,2.03,2.66,3.87,2.91
		c8.09,1.09,15.94,3.15,23.68,5.73c3.8,1.27,7.23,3.19,10.29,5.71c5.68,4.69,5.42,13.18-0.47,18.19
		c-7.76,6.59-16.77,10.51-26.74,12.32c-2.4,0.44-4.42,1.16-6.06,3.31c-4.42,5.8-11.36,6.84-17.8,8.3
		C138.44,81.18,125.31,80.83,110.82,81.34z"/>
	<path class="st2" d="M151.77,73.39c-8.02,2.26-16.28,2.46-24.52,2.93c-16.93,0.96-33.78,0.59-50.53-2.26
		c-6.56-1.12-12.7-3.26-18.38-6.88c-3.2-2.03-6.76-3.44-10.63-4.12c-10.46-1.84-20.36-5.39-29.68-10.5
		c-2.77-1.52-5.12-3.59-7.09-6.02c-2.9-3.58-2.35-6.83,1.45-9.47c3.39-2.36,7.24-3.84,11.12-4.97c10.6-3.08,21.37-5.39,32.41-6.16
		c-0.52,2.91-2.92,3.71-5.21,4.64c-10.54,1.01-20.76,3.4-30.65,7.16c-0.22,0.08-0.45,0.16-0.66,0.27c-2.44,1.21-5.51,2.02-5.77,5.27
		c-0.24,2.97,2.8,3.52,4.64,4.89c7,5.21,15.37,7.04,23.5,9.46c4.57,1.32,9.25,2.06,13.93,2.78c2.56,0.54,5.13,1.07,7.77,1.03
		c6.1,3.05,12.45,2.51,18.84,1.28c6.89,0.55,13.79-0.07,20.68,0.27c0.63-0.01,1.27,0,1.9,0c2.87-0.11,5.78,0.38,8.62-0.43
		c1.62-0.34,3.27-0.24,4.91-0.28c2.17-0.03,4.36,0.19,6.51-0.3c4.33,0.22,8.65,1.84,13.01,0.11c4.08,0.13,8.07-1.21,12.17-0.78
		c0.33,0.14,0.66,0.27,0.93,0.49c1.13,0.96,3.04,1.66,2.72,3.34c-0.29,1.49-2.26,1.38-3.54,1.9c-7.53,1.4-15.07,2.48-22.76,2.41
		c-12.16-0.12-24.33,0.14-36.49-0.12c-7.17-0.85-14.38-0.54-19.77-0.9c3.87,0.51,9.38,1.82,14.89,3.13
		c3.86,0.07,7.71-0.08,11.57,0.01c13.5-0.1,27.02,0.53,40.47-1.31c0.95-0.13,1.92-0.2,2.86-0.12c5.78,0.53,11.14-0.81,16.21-3.5
		c1.93,1.48,1.8,2.42-0.2,4.03C155.4,71.92,153.02,71.56,151.77,73.39z"/>
	<path class="st3" d="M86.32,12.19c1.4-0.03,2.8-0.06,4.2-0.09c8.09-0.26,16.14-1.32,24.29-0.24c9.38,1.24,18.81,2.09,28.14,3.67
		c3.78,0.64,7.53,1.44,10.87,3.53c2.35,1.47,3.71,3.28,3.09,6.23c-0.38,1.8-0.07,3.58,0.88,5.2c1.48,2.16,4.81,2.62,5.29,5.72
		c-1.74,4.13-4.39,7.19-9.11,7.89c-2.34,0.35-4.67,0.85-7.06,0.68c-2.38,0.14-3.42-1.1-4.37-3.27c-2.54-5.81-6.55-10.17-13.2-11.35
		c-1.67-0.3-3.28-0.54-4.85,0.37c-0.74,0.43-1.55,0.81-2.05-0.35c-0.37-1.61,0.36-3.19,0.15-4.8c-1.7-5.83-9.64-11.3-15.86-10.63
		c-5.62,0.61-11.19,1.62-15.48,5.85c-1.06,0.62-1.9,1.54-2.97,2.16c-2.34,1.17-3.26-0.61-4.17-2.13c-1.16-1.94-2.01-4.04-4.34-5.04
		c-1.46-0.63-1-1.66,0.02-2.48C81.86,12,84.21,12.99,86.32,12.19z"/>
	<path class="st4" d="M86.32,12.19c-2.22,0.49-4.44,0.98-6.65,1.47c-2.98,1.57-6.25,2.32-9.44,3.3c-1.61,0.5-2.76,1.55-3.62,2.97
		c-0.9,1.81,0.03,4.03-1.29,5.74c-0.21,0.27-0.46,0.51-0.72,0.72c-3.75,2.49-7.99,4.17-11.54,7c-1.77,1.41-3.35,3-4.71,4.81
		c-2.27,4.25-1.33,6.39,3.22,7.58c2.69,0.7,5.46,0.54,8.17,0.95c4.94,0.75,6.31,2.12,7.09,7.02c0.17,1.06,0.19,2.14,0.47,3.18
		c0.47,1.68,1.13,3.2,3.07,3.65c4.68,1.13,9.29,0.44,13.91-0.4c1.52-0.28,3.01-0.93,4.56-0.14c0.34,0.26,0.48,0.6,0.43,1.02
		c-1.93,2.6-4.74,2.38-7.5,2.33c-6.32,1.81-12.55,2.45-18.4-1.49c-1.54-0.34-1.74-1.7-2.22-2.86c-0.16-0.51-0.26-1.04-0.3-1.58
		c-0.06-0.86-0.03-1.71,0.09-2.56c0.1-0.88,0.62-1.78-0.18-2.59c-2.69-0.6-5.44-0.61-8.14-1.08c-4.74-0.82-8.23-3.03-9.81-7.75
		c-0.52-1.27-0.78-2.58-0.8-3.95c0-1.75,0.1-3.47,1.07-5.01c2.23-2.21,4.7-4,7.88-4.58c1.71-1.27,3.71-2.17,4.96-4.01
		c2.48-1.47,5.44-2.49,4.57-6.47c-0.26-1.18,1.05-2.11,2.1-2.69c4.49-2.53,9.01-4.94,14.44-4.64C80.12,12.3,83.22,12.18,86.32,12.19
		z"/>
	<path class="st5" d="M159.47,28.33c10.19,0.8,20.11,2.86,29.79,6.13c3.09,1.05,5.96,2.5,8.61,4.38c5.47,3.9,5.48,8.75,0.03,12.83
		c-7.4,5.54-15.61,9.25-24.75,10.87c-2.11,0.38-4.18,0.98-6.26,1.49c-2.23-0.64-1.47-2.42-1.18-3.72c0.4-1.78,2.25-1.25,3.31-1.75
		c-0.39-0.14-1.17,0.29-1.62-0.43c0.15-1.28,1.2-1.41,2.11-1.55c7.75-1.16,15.08-3.88,22.54-6.11c0.35-0.06,0.71-0.08,1.07-0.05
		c3.23,0.61,4.85-1.51,6.11-3.88c0.87-1.63,0.52-3.71-1.08-4.4c-2.37-1.03-4.43-2.94-7.22-2.95c-3.83-1.1-7.28-3.26-11.24-4
		c-1.03-0.31-2.06-0.6-3.1-0.87c-5.6-1.19-11.13-2.72-16.88-3.11c-0.63-0.1-1.04-0.46-1.24-1.06
		C158.33,29.3,158.56,28.62,159.47,28.33z"/>
	<path class="st6" d="M159.47,28.33c-0.2,0.61-0.39,1.22-0.59,1.84c-1.54-0.62-0.75,1.15-1.44,1.4c-1.68-2.15-2.68-4.44-1.47-7.19
		c0.79-1.79-0.04-2.8-1.54-3.81c-4.33-2.93-9.29-3.83-14.28-4.45c-13.29-1.65-26.52-3.98-39.98-3.95c-3.22,0.01-6.44-0.04-9.66-0.06
		c7.54-0.93,15.08-2.39,22.68-2.05c11.19,0.5,22.43,1.02,33.3,4.25c2.51,0.75,5,1.61,7.42,2.64c3.79,1.61,5.43,4.59,5.03,8.65
		C158.85,26.54,158.81,27.51,159.47,28.33z"/>
	<path class="st7" d="M167.43,58.18c0.71,0.05,1.41,0.1,3.33,0.23c-4.13,0.9-5.37,2.62-3.88,5.62c-4.15,4.55-8.9,8.14-15.11,9.35
		c-0.47-0.05-0.93-0.09-1.57-0.16c0.66-1.51,2.07-1.1,3.11-1.51c1.1-0.43,2.16-0.97,3.18-1.56c1.22-0.71,1.82-1.81,1.68-3.27
		c-1.08-0.97-2.21-0.17-3.32-0.1c-1.37,0.09-2.8,0.57-3.9-0.74c0.8-0.35,1.6-0.7,2.49-1.08c-0.89-1.29-2.68-1.59-3.19-3.14
		c-0.24-0.37-0.2-0.72,0.1-1.04c1.95-1.56,4.48-1.07,6.65-1.85c2.37-0.31,4.68-0.97,7.05-1.26
		C165.22,57.53,166.43,57.2,167.43,58.18z"/>
	<path class="st8" d="M50.96,29.95c-2.38,1.53-4.76,3.06-7.13,4.59c-3.59,2.1-7.85,1.91-11.62,3.4c-1.55,0.61-3.19,1-4.69,1.74
		c-4.02,1.99-4.38,4.4-1.09,7.39c3.81,3.46,8.29,5.5,13.34,6.5c2.64,0.52,5.5,0.56,7.68,2.54c-1.2,2.89-3.85,1.81-5.97,2.18
		c-9.83-2.04-19.08-5.48-27.18-11.55c-3.13-2.35-2.92-5.27,0.66-7.47c6-3.69,12.78-5.46,19.55-6.93
		C39.9,31.17,45.3,29.5,50.96,29.95z"/>
	<path class="st9" d="M150.94,66.05c1.88,0.22,3.69-0.1,5.53-0.5c0.78-0.17,2.44-0.73,1.7,1.34c-5.17,3.86-11.13,4.04-17.3,4.47
		c-12.28,0.85-24.54,1.43-36.85,1.26c-2.15-0.03-4.3-0.1-6.46-0.16c0.18-1.46,1.46-1.73,2.56-2.36c-3.21-0.62-6.51,0.57-9.56-0.84
		c-0.18-0.19-0.25-0.39-0.21-0.6c0.04-0.21,0.08-0.32,0.14-0.32c4.76-0.05,9.59,0.58,14.24,0.27c10.82-0.71,21.66,0.63,32.44-0.86
		C141.75,67.13,146.35,66.62,150.94,66.05z"/>
	<path class="st10" d="M89.04,61.08c-0.01-0.28-0.02-0.56-0.03-0.84c3.33-3.34,7.7-3.03,11.62-2.45
		c11.15,1.68,22.33,1.59,33.52,1.43c4.57-1.18,8.55-3.26,11.44-7.18c1.05-1.42,2.41-2.62,4.32-2.86c1.48,0.19,1.24,1.09,0.82,2.04
		c-0.62,1.41-1.82,2.46-2.44,3.86c-0.1,0.28-0.23,0.56-0.36,0.83c-0.39,0.63-0.15,1.5-0.73,2.07c-1.84,1.52-3.43,3.4-5.95,3.85
		c-1.04,0.41-2.05,0.96-3.23,0.87c-4.33,2.5-8.69,0.42-13.04,0.07c-2.09,0.43-4.14-0.36-6.22-0.25c-4.39-0.13-8.76,0.49-13.16,0.3
		c-4.56,0.26-9.06-0.8-13.61-0.7C90.91,62.16,89.83,61.98,89.04,61.08z"/>
	<path class="st11" d="M41.46,58.3c1.69-1.44,4.24-0.56,5.87-2.18c1.01-1.64,2.66-1.64,4.3-1.7c3.32,0.96,7.09,0.39,9.93,2.96
		c0.07,0.5,0.15,1,0.22,1.5c0.35,0.73,0.31,1.59-0.54,1.65c-1.83,0.13-3.51,1.43-5.43,0.68C50.9,60.88,46.05,60.22,41.46,58.3z"/>
	<path class="st12" d="M90.48,68.35c0,0.25,0.01,0.49,0.01,0.74c-0.55,2.68-3.31,2.15-4.87,3.35c-5.79-1.58-11.87-2.02-17.43-4.63
		C75.66,67.6,83.08,67.33,90.48,68.35z"/>
	<path class="st13" d="M89.04,61.08c5.57-0.77,11.02,0.84,16.55,0.81c0.4,1.88-2.23,0.47-2.16,2c-6.46,0.07-12.91,0.14-19.37,0.21
		c-0.84,0.01-1.69,0.08-2.29-0.7C84.19,62.63,86.61,61.85,89.04,61.08z"/>
	<path class="st14" d="M85.63,72.44c0.8-2.31,3.69-1.59,4.87-3.35c4.09-0.48,8.16,0.06,13.36,0.05c-2.73,1.45-4.52,2.39-6.3,3.34
		C93.58,72.46,89.61,72.45,85.63,72.44z"/>
	<path class="st15" d="M103.43,63.89c0.07-0.45-1.85-0.96,0.03-1.32c0.75-0.14,1.58,0.07,2.14-0.67c4.56-0.28,9.11-0.39,13.67,0.09
		c0.34,0.74-0.32,0.91-0.71,1.23c-1.59,0.05-3.18,0.11-4.77,0.16c-2.93,0.65-5.94-0.21-8.87,0.49
		C104.41,63.88,103.92,63.88,103.43,63.89z"/>
	<path class="st16" d="M55.81,61.21c2.09-0.53,4.22-0.93,5.97-2.33c0.53,1.01,1.05,2.02,1.58,3.04
		C60.72,63.01,58.3,61.68,55.81,61.21z"/>
	<path class="st17" d="M138.01,62.72c1-0.47,2-0.94,2.99-1.41c1.74,0.33,3.24-0.66,4.89-0.86c1.52-0.18,3.1-0.65,4.36,0.74
		c0,0.21-0.01,0.43-0.02,0.64c-3.29,0.42-6.59,0.83-9.87,1.28C139.52,63.22,138.71,63.41,138.01,62.72z"/>
	<path class="st18" d="M118.55,63.22c0.24-0.41,0.47-0.82,0.71-1.23c1.91,0.27,3.81,0.54,5.72,0.81
		C122.9,63.88,120.7,63.2,118.55,63.22z"/>
	<path class="st13" d="M104.91,63.87c2.9-1.22,5.91-0.41,8.87-0.49C110.86,64.18,107.87,63.83,104.91,63.87z"/>
	<path class="st19" d="M122.8,30c6.23-2.4,13.59,0.11,17.86,6.33c1.3,1.89,3.09,3.58,3.21,6.21c0.08,1.77,1.77,1.09,2.83,1.32
		c0.17,0.34,0.12,0.66-0.13,0.94c-3.67,0.83-6,4.02-9.4,5.34c-0.53,0.17-1.07,0.25-1.62,0.25c-1.34-0.03-2.23-0.71-2.8-1.89
		c-2.13-4.41-6.13-6.28-10.52-7.3c-4.54-1.05-9.14-1.62-13.82-0.33c-1.48,0.41-3.37,0.85-4.4-1.16c4.5-2.38,9.41-3.87,13.84-6.4
		C119.63,32.41,120.44,30.04,122.8,30z"/>
	<path class="st20" d="M122.8,30c-1.46,1.15-2.33,2.98-4.2,3.66c-7.51,2.08-14.99,2.52-22.68,0.61c-6.04-1.5-9.02-7.63-5.88-13.12
		c1.7-1.31,3.39-0.78,5.03,0.1c5.45,2.9,11.13,3.8,17.32,3.06c3.67-0.44,7.62-1.22,11.22,0.81C124.5,26.94,123.06,28.37,122.8,30z"
		/>
	<path class="st21" d="M123.61,25.12c-4.86,0.2-9.69-0.07-14.58,0.53c-4.84,0.6-9.62-0.81-13.99-3.27
		c-1.35-0.76-2.76-2.14-4.56-0.87c-0.45-0.44-0.37-0.9-0.07-1.37c6.7-5.88,14.42-7.88,22.85-5.01
		C118.01,16.75,122.22,19.65,123.61,25.12z"/>
	<path class="st22" d="M69.58,16.43c3.24-1.37,6.53-2.56,10.09-2.77c3.51,2.02,4.31,6.23,7.16,8.77c0.21,0.19,0.89-0.14,1.35-0.22
		c0.49,3.08-1.54,5.81-1.14,8.96c0.28,2.24,0.37,4.46,1.45,6.5c-0.35,2.39-1.76,1.51-2.64,0.63c-6.24-6.16-12.97-11.91-16.82-20.07
		C68.62,17.37,68.96,16.89,69.58,16.43z"/>
	<path class="st23" d="M88.3,38.13c-3.63-3.85-2.29-8.32-1.49-12.68c0.21-1.13,0.9-2.17,1.37-3.25c0.74-0.69,1.48-1.38,2.22-2.07
		c0.02,0.46,0.05,0.91,0.07,1.37c-1.64,3.5-0.08,6.67,1.09,9.85c0.32,0.87,1.18,1.42,2.21,1.63c7.62,1.53,15.25,2.26,22.91,0.27
		c0.73-0.19,1.4-0.31,1.92,0.41c-4.46,2.81-9.12,5.12-14.42,5.9C98.69,41.26,93.31,41.79,88.3,38.13z"/>
	<path class="st24" d="M146.62,44.52c0.02-0.22,0.04-0.44,0.08-0.66c5.67-0.08,11.21-0.45,14.82-5.83c0.47-0.7,1.02-1.3,1.04-2.19
		c3.02,2.13,1.58,5.1,1.21,7.69c-0.32,2.33-1.79,4.26-4.32,4.61c-2.8,0.39-5.55,1.16-8.4,1.17c-0.68-0.1-1.65-0.07-1.66-0.96
		C149.36,46.35,147.9,45.53,146.62,44.52z"/>
	<path class="st25" d="M150.35,48.93c2.44-1.01,5.02-1.48,7.62-1.54c3.22-0.07,4.86-1.77,5.1-4.76c0.18-2.26,1.1-4.65-0.51-6.8
		c-1.17-2.07-3.8-2.38-5.11-4.27c0.07-0.88-0.33-2.26,1.44-1.4c0.17,0.17,0.35,0.34,0.52,0.51c4.74,0.98,6.73,3.69,6.92,9.45
		c0.01,0.96,0.02,1.91-0.09,2.87c-0.61,4.43-3.75,6.67-7.58,7.6c-3.57,0.86-6.82,1.98-9.56,4.46c-0.45,0.4-1.04,0.56-1.67,0.42
		c-0.23-2.49,3.37-3.23,2.7-5.92C149.92,49.24,149.98,49.03,150.35,48.93z"/>
	<path class="st26" d="M135.86,49.59c0.45-0.03,0.9-0.06,1.35-0.08c2.73,1.33,2.73,4.28,3.13,6.52c0.35,1.96-2.34,2.24-3.96,2.88
		c-0.44,0.17-1.31-0.25-1.2,0.78c-2.22,1.29-4.67,0.77-7,0.74c-9.45-0.13-18.9-0.09-28.29-1.71c-3.61-0.62-7.33,0.43-10.88,1.52
		c-5.81,1.04-11.56,2.73-17.57,1.62c-0.68-0.13-1.33-0.37-2-0.56c-0.7-1.41-1.55-2.71-2.74-3.77c-0.12-0.2-0.32-0.39-0.35-0.6
		c-1.45-9.79-1.19-8.72-10.99-9.55c-1.41-0.12-2.83-0.35-4.21-0.68c-5.93-1.38-6.99-4.58-3.17-9.39c6.19,2.11,12.51,3.51,19.07,3.84
		c1.9,0.1,3.84,0.63,5.04,2.33c3.39,4.78,8.11,6.37,13.74,5.87c0.95-0.08,1.91-0.08,2.86-0.05c1.81,0.02,3.62,0,5.43-0.01
		c2.89-0.11,5.81,0.35,8.67-0.45c2.67-0.32,5.24,0.4,7.82,0.87c4.63,0.85,9.21,1.2,13.92,0.41
		C128.26,49.52,132.08,49.67,135.86,49.59z"/>
	<path class="st27" d="M135.86,49.59c-8.5,1.86-17.03,2.87-25.7,1.15c-2.44-0.48-4.92-0.76-7.37-1.13
		c-1.97,0.67-4.01,0.17-6.01,0.31c-0.35,0.02-0.9,0.07-1.01-0.2c-2-4.89-7.18-3.83-10.79-5.44c-6.21-2.77-11.12-6.97-15.44-11.84
		c-1.77-2-4.51-3.55-4.99-6.61l0,0c2.32-1.75,0.25-4.47,1.43-6.48c0.55-1.77,1.83-2.63,3.59-2.91c2.66,5.58,5.43,11.13,10.43,15.04
		c2.27,1.78,4.48,3.52,6.04,6.01c0.43,0.69,1.11,1.8,2.25,0.66c5.15,2.13,10.54,1.55,15.89,1.42c1.37,1.18,3.01,0.84,4.44,0.47
		c7.54-1.97,14.5-0.43,21.08,3.32c1.66,0.95,3.05,2.4,3.67,4.29C133.79,48.93,134.37,49.78,135.86,49.59z"/>
	<path class="st28" d="M64.56,25.82c4.86,4.31,8.47,9.85,13.88,13.68c4.59,3.25,9.66,5.02,14.95,6.46c1.37,0.37,3.8-0.41,2.52,2.66
		c-0.38,0.91,0.81,0.93,1.48,0.95c1.8,0.04,3.59,0.04,5.39,0.05c-2.82,1.26-5.8,0.45-8.71,0.67c-1.92-1.22-3.84-0.92-5.75,0.01
		c-4.03-0.1-8.19,0.82-11.92-1.57c-0.6-0.39-1.49-0.6-1.79-1.15c-3.98-7.08-11.2-5.5-17.41-6.56c-1.86-0.32-3.9,0.07-5.13-1.91
		c-0.5-0.8-1.1-0.59-1.83-0.2c-1.72,0.92-2.06-0.28-2.27-1.6C52.17,31.56,58.47,28.84,64.56,25.82z"/>
	<path class="st29" d="M51.67,55.21c-1.45,0.3-2.89,0.61-4.34,0.91c-7.14-1.63-14.64-2.25-20.51-7.41c-1.78-1.57-4.12-2.94-3.8-5.65
		c0.31-2.69,2.68-3.84,4.96-4.65c5.14-1.83,10.35-3.45,15.85-3.86c-0.87,1.56-0.84,3.31-1.07,5.01c-1.26,2.31-3.81,1.52-5.68,2.35
		c-1.58,0.7-4.08,0.53-4.38,2.51c-0.33,2.17,2.04,3.05,3.63,3.91c3.89,2.09,8.09,3.49,12.24,4.97C49.71,53.69,51.3,53.5,51.67,55.21
		z"/>
	<path class="st30" d="M51.67,55.21c-5.72-1.9-11.52-3.61-16.76-6.69c-1.72-1.01-4.07-2.15-3.85-4.22c0.24-2.23,2.96-2.43,4.84-3.01
		c2.25-0.69,4.57-1.17,6.86-1.74c0.26,1.19,0.52,2.38,0.78,3.57c-1.77,1.91-4.44,1.5-7.01,2.7c6.54,2.97,13.04,5.01,19.64,6.75
		c1.84,0.7,4.17,0.08,5.56,2.01c-0.05,0.93-0.11,1.87-0.16,2.8C58.26,56.65,54.97,55.93,51.67,55.21z"/>
	<path class="st31" d="M55.89,53.22c-7.54-1.47-14.57-4.25-21.51-7.29c0.08-0.32,0.15-0.64,0.23-0.97c2.97-0.62,5.95-1.23,8.92-1.85
		c2.24,7.47,8.84,6.95,14.59,7.98c1.38,0.25,2.87-0.42,4.17,0.52C60.43,53.24,58.07,52.88,55.89,53.22z"/>
	<path class="st32" d="M55.89,53.22c1.85-1.66,4.17-1.47,6.4-1.6c0.53,1.13-0.07,2.03-0.58,2.96C59.83,53.88,57.7,54.26,55.89,53.22
		z"/>
	<path class="st33" d="M66.71,57.52c1.94,0.51,3.2,1.52,2.74,3.77C67.62,60.7,66.81,59.37,66.71,57.52z"/>
	<path class="st28" d="M65.99,19.34c-0.63,2.13,1.47,4.85-1.43,6.48C66.54,23.99,64.16,21.2,65.99,19.34z"/>
	<path class="st34" d="M167.43,58.18c-3.62,0.04-7.01,1.69-10.66,1.5c-0.75,0.36-1.72,0.73-2.09-0.21
		c-0.33-0.84,0.64-1.08,1.33-1.18c0.8-0.12,1.59-0.34,2.01-0.39c-1.19-0.16-3.06,1.25-4.33-0.78c1.27-1.84,3.38-1.5,5.16-1.87
		c4.1-0.84,8.23-1.56,12.19-2.95c1.36-0.47,2.71-1,3.78-2.01c3.11-2.95,2.43-6.2-1.58-7.62c-0.78-0.28-1.65-0.35-2.19-1.09
		c-1.18-3.63-0.14-4.83,5.06-5.92c2.38,1.57,4.94,2.84,7.17,4.65c1.21,0.98,2.36,1.99,3.38,3.16c2.11,2.42,2.41,6.3,6.04,7.5
		c-7.43,2.89-15.02,5.23-22.9,6.56C168.99,57.67,168.22,57.96,167.43,58.18z"/>
	<path class="st35" d="M192.7,50.98c-3.17,0.15-4.21-1.85-5.22-4.49c-1.51-3.95-5.22-5.92-8.56-8.13c-1.02-0.68-2.61-0.72-2.74-2.42
		c0.77-1.51,2.28-1.16,3.55-1.43c4.24,0.34,7.75,2.69,11.57,4.2c2.75,0.29,4.75,2.16,6.92,3.54c1.74,1.1,2.22,3.09,0.96,5.06
		c-1.34,2.09-3.08,3.63-5.71,3.79C193.22,51.05,192.96,51.02,192.7,50.98z"/>
	<path class="st36" d="M165.56,40.39c0.34-4.76-2.29-7.63-6.16-9.71c3.82-0.61,7.43,0.62,11.09,1.36c2.18,0.44,4.32,1.1,6.48,1.66
		c-1.33,1.41-3.27,1.26-4.9,1.88c-2.34,0.9-4.8,1.6-5.6,4.43C166.24,40.3,165.94,40.42,165.56,40.39z"/>
	<path class="st37" d="M166.09,40.2c-0.46-2.37,0.65-3.49,2.83-4.37c2.63-1.06,5.22-2,8.06-2.14c0.99,0.03,1.93,0.23,2.75,0.82
		c-1,0.93-2.33,1.05-3.55,1.43c-1.48,0.75-2.98,1.46-4.44,2.26c-1.15,0.63-1.8,1.22-0.07,2.18c0.67,0.37-0.4,0.39-0.63,0.61
		C169.15,42.2,167.44,42.31,166.09,40.2z"/>
	<path class="st38" d="M193.48,51.09c2.31-1.51,5.72-2.35,5.57-5.76c-0.13-3.13-3.38-3.92-5.62-5.35c-0.7-0.44-1.41-0.85-2.12-1.28
		c3.35-0.63,5.52,2.04,8.09,3.27c1.37,0.66,2.01,3.62,0.45,5.49C198.22,49.42,196.98,52.33,193.48,51.09z"/>
	<path class="st39" d="M153.86,56.84c1.43,1.33,3.25,0.27,5.01,0.85c-0.85,0.9-1.88,1.08-2.94,1.26c-0.35,0.06-1.22,0.05-0.22,0.6
		c0.29,0.16,0.7,0.1,1.06,0.14c-2.17,0.5-4.34,1-6.51,1.5c-3.09-0.68-6.15,1.64-9.25,0.12c2.48-0.74,4-2.96,6.25-4.05
		C149.42,56.49,151.55,55.23,153.86,56.84z"/>
	<path class="st40" d="M147.42,55.47c2.95-2.77,5.99-5.01,10.32-5.63c3.63-0.52,7.02-2.37,7.72-6.76c3.04-1.05,5.92,0.02,8.7,0.93
		c2.18,0.72,2.34,2.53,1.07,4.35c-1.06,1.53-2.66,2.4-4.34,3.07c-7.04,2.79-14.51,3.86-21.89,5.27c-0.6,0.11-1.17-0.19-1.62-0.62
		C147.41,55.88,147.42,55.67,147.42,55.47z"/>
	<path class="st41" d="M147.38,56.08c7.65-1.29,15.24-2.83,22.61-5.29c1.45-0.48,2.96-1.04,4.06-2.22c0.74-0.79,1.6-1.62,1.18-2.82
		c-0.37-1.05-1.45-1.05-2.4-1.22c-2.46-0.44-4.91-0.96-7.36-1.45c0.03-0.9,0.07-1.79,0.1-2.69c0.17-0.07,0.34-0.14,0.52-0.19
		c1.49,1.25,3.3,0.56,4.95,0.79c0.54,0.22,1.06,0.56,1.62,0.63c2.35,0.32,5.09,0.94,5.25,3.47c0.17,2.79-0.96,5.67-3.96,7.1
		c-4.37,2.08-9.1,2.91-13.79,3.74c-2.08,0.37-4.11,1.24-6.3,0.91c-2.24-0.42-4.34,1.28-6.6,0.41
		C147.12,56.84,146.77,56.41,147.38,56.08z"/>
	<path class="st42" d="M135.17,59.69c-0.36-0.03-0.75,0.02-1.06-0.11c-1-0.42-0.25-0.55,0.15-0.68c0.79-0.25,1.59-0.49,2.4-0.69
		c2.56-0.63,4.52-1.52,2.01-4.43c-1.07-1.24-0.07-3.16-1.46-4.27c3.21-1.52,5.13-5.49,9.41-4.99c3.69-0.6,3.57,2.02,3.73,4.41
		c-0.05,0.21-0.12,0.42-0.22,0.61c-2.11,0.78-3.4,2.49-4.81,4.12C142.62,56.79,139.34,59,135.17,59.69z"/>
	<path class="st43" d="M111.77,18.42c-0.22,1.52-1.31,1.8-2.57,1.8c-1.38,0-2.78-0.32-2.84-1.95c-0.06-1.78,1.35-2.35,2.88-2.36
		C110.84,15.9,111.38,17.12,111.77,18.42z"/>
	<path class="st44" d="M112.57,24.41c-0.87-0.09-1.31-0.56-1.17-1.41c0.12-0.75,0.57-1.34,1.39-1.33c0.84,0.02,1.28,0.61,1.19,1.41
		C113.89,23.86,113.36,24.32,112.57,24.41z"/>
	<path class="st27" d="M88.33,50.29c1.91-1.94,3.83-2.4,5.75-0.01C92.16,50.28,90.24,50.29,88.33,50.29z"/>
</g>
</svg>
