<?xml version="1.0" encoding="utf-8"?>
<!-- Generator: Adobe Illustrator 23.0.2, SVG Export Plug-In . SVG Version: 6.00 Build 0)  -->
<svg version="1.1" id="Camada_1" xmlns="http://www.w3.org/2000/svg" xmlns:xlink="http://www.w3.org/1999/xlink" x="0px" y="0px"
	 viewBox="0 0 237 102.78" style="enable-background:new 0 0 237 102.78;" xml:space="preserve">
<style type="text/css">
	.st0{fill:#FEFEFE;}
	.st1{fill:#010002;}
	.st2{fill:#3E6B7F;}
	.st3{fill:#401E08;}
	.st4{fill:#582C16;}
	.st5{fill:#4D240E;}
	.st6{fill:#5A2E16;}
	.st7{fill:#723A1A;}
	.st8{fill:#6C3A1F;}
	.st9{fill:#8A4A1C;}
	.st10{fill:#4E839A;}
	.st11{fill:#B9D8EC;}
	.st12{fill:#AFCDDF;}
	.st13{fill:#7395AB;}
	.st14{fill:#AECCDF;}
	.st15{fill:#DCEEF5;}
	.st16{fill:#D5E8EF;}
	.st17{fill:#ACCADD;}
	.st18{fill:#D8EAF3;}
	.st19{fill:#7496AC;}
	.st20{fill:#D7E9F1;}
	.st21{fill:#9E621D;}
	.st22{fill:#D27F39;}
	.st23{fill:#83561F;}
	.st24{fill:#C7742E;}
	.st25{fill:#B96B2A;}
	.st26{fill:#A1511B;}
	.st27{fill:#407E97;}
	.st28{fill:#A76B1B;}
	.st29{fill:#4C2511;}
	.st30{fill:#9BC6E4;}
	.st31{fill:#C1621A;}
	.st32{fill:#8DB5CF;}
	.st33{fill:#EECC4D;}
	.st34{fill:#8FB7D3;}
	.st35{fill:#4F2611;}
	.st36{fill:#8FB8D3;}
	.st37{fill:#F8EE66;}
	.st38{fill:#663E1A;}
	.st39{fill:#DDEEF5;}
	.st40{fill:#E2C24F;}
	.st41{fill:#EDD255;}
	.st42{fill:#E9CB52;}
	.st43{fill:#C4812B;}
	.st44{fill:#DE9E3E;}
	.st45{fill:#C59A35;}
	.st46{fill:#D6B545;}
	.st47{fill:#B09035;}
	.st48{fill:#F5EC76;}
	.st49{fill:#A2631A;}
	.st50{fill:#F2E35C;}
	.st51{fill:#F1EE67;}
	.st52{fill:#79491D;}
	.st53{fill:#76471C;}
	.st54{fill:#D68A2D;}
	.st55{fill:#7B3917;}
	.st56{fill:#522813;}
	.st57{fill:#E6CE4F;}
	.st58{fill:#F2E666;}
	.st59{fill:#5198B5;}
	.st60{fill:#AB8730;}
	.st61{fill:#F0D450;}
	.st62{fill:#B87119;}
	.st63{fill:#995C1C;}
	.st64{fill:#8D541D;}
	.st65{fill:#9E5F1B;}
	.st66{fill:#9E6420;}
	.st67{fill:#713A1B;}
	.st68{fill:#EEDF62;}
	.st69{fill:#EBD451;}
	.st70{fill:#E4CF56;}
	.st71{fill:#E2AD4A;}
	.st72{fill:#DA9645;}
	.st73{fill:#F1EA7D;}
	.st74{fill:#EFE971;}
	.st75{fill:#4586A1;}
	.st76{fill:#B9873D;}
	.st77{fill:#E2AF47;}
	.st78{fill:#94611F;}
	.st79{fill:#C79241;}
	.st80{fill:#E4B055;}
	.st81{fill:#D4843E;}
	.st82{fill:#F1EC6D;}
	.st83{fill:#D69E48;}
	.st84{fill:#ECC75D;}
	.st85{fill:#E9D04E;}
	.st86{fill:#C39C38;}
	.st87{fill:#F3DB60;}
	.st88{fill:#EAC459;}
	.st89{fill:#4A260F;}
</style>
<g>
	<path class="st0" d="M224.34,72.32c-4.48,0.14-7.9-3.21-12.2-3.8c-1.25-0.17-2.08-0.66-2.94,0.74
		c-5.63,9.17-14.86,13.11-24.38,16.6c-0.79,0.29-1.6,0.55-2.42,0.69c-5.11,0.91-9.26,3.09-13.38,6.63
		c-5.36,4.61-12.7,5.86-19.68,7.08c-10.89,1.91-21.91,1.9-32.91,2.37c-11.3,0.48-22.47-0.46-33.64-1.63
		c-12.22-1.29-23.62-5.19-34.91-10.16c-6.4-2.81-13.36-4.87-20.15-7.05c-8.04-2.58-15.4-6.46-21.67-12.34
		c-9.23-8.68-7.69-21.05,3.02-26.53c2.14-1.1,3.6-2.41,4.11-4.96c0.6-3,3.17-4.75,5.42-6.48c11.6-8.91,24.47-15.45,38.22-20.34
		c6.77-2.41,13.43-5.28,20.51-6.56c6.74-1.22,13-3.87,19.48-5.82c5.68-1.71,10.64-0.31,15.59,1.49c4.88,1.78,9.49,4.35,14.13,6.75
		c2,1.03,4.15,1.16,6.23,1.56c14.87,2.88,29.33,7.07,43.21,13.16c2.37,1.04,3.88-0.22,5.59-1.15c7.04-3.84,14.06-7.71,21.7-10.27
		c5.08-1.7,10.25-2.53,15.54-1c3.87,1.12,5.39,4.31,7.65,7.35c4.9,6.61,4.2,15.18,8.92,21.69c2.35,3.24,1.85,7.03,0.52,10.67
		c-0.57,1.57-0.99,3.07-0.38,4.86C239.02,66.24,235.21,71.78,224.34,72.32z"/>
	<path class="st1" d="M227.15,33.81c-0.43,2.08,0.32,4.07,2.04,5.84c3.07,3.15,3.91,6.72,1.93,10.84c-1.43,2.97-0.54,5.83,0.63,8.67
		c1.72,4.14-0.56,7.35-4.94,8.25c-4.58,0.94-7.81-2.49-11.89-2.86c-0.47-0.04-0.91-0.31-1.37-0.44c-1.96-0.54-3.97-1.6-5.89-1.45
		c-2.46,0.19-1.73,3.14-2.69,4.74c-3.08,5.13-8.14,7.66-12.97,10.4c-5.24,2.97-11.03,4.66-16.97,5.68
		c-2.45,0.42-4.36,1.34-5.99,3.42c-4.49,5.72-11.44,6.62-17.86,8.21c-8.05,2-16.36,2.26-24.61,2.59c-17.02,0.7-34,0.38-50.87-2.48
		c-8.95-1.51-16.99-5.28-25.31-8.56c-6.68-2.64-13.64-4.77-20.5-7.07c-7.89-2.64-15.34-6.12-21.24-12.27
		c-6.02-6.28-5.13-13.46,2.26-17.96c1.02-0.62,2-1.38,3.11-1.77c1.97-0.69,3.04-1.57,3.01-4.01c-0.04-3.18,2.6-4.98,4.88-6.72
		c8.13-6.21,17.02-11.15,26.39-15.2c9.35-4.04,18.82-7.96,28.77-10.07c7.27-1.54,14.07-4.33,21.14-6.34
		c4.34-1.24,8.15-0.29,11.84,1.15c5.05,1.96,9.88,4.52,14.68,7.08c2.34,1.25,4.86,1.22,7.27,1.68c15.13,2.88,29.74,7.4,43.8,13.63
		c1.61,0.71,2.79,0.71,4.29-0.08c8.04-4.24,15.89-8.86,24.51-11.94c3.45-1.23,6.98-1.68,10.61-1.45c4.07,0.26,6.15,1.99,6.7,6.07
		c0.24,1.77,1.39,2.73,2.32,3.91C227.03,28.9,227.15,29.1,227.15,33.81z"/>
	<path class="st2" d="M200.34,65.65c-3.24,4.78-8.42,6.91-13.26,9.36c-4.83,2.44-10.09,3.82-15.44,4.65
		c-2.85,0.44-5.26,1.47-7.19,3.63c-4.32,4.82-9.98,7.02-16.17,7.8c-25.81,3.28-51.6,4.06-77.23-1.6c-2.1-0.46-4.34-0.92-6.12-2.03
		c-9.94-6.17-21.59-7.53-32.25-11.65c-7.39-2.85-14.9-5.42-20.6-11.34c-4.11-4.27-3.8-8.22,1.29-11.19c2.88-1.68,6.1-2.76,9.17-4.12
		c1.43,0.54,1.92,1.58,1.64,3.03c-0.77,1.23-2.11,1.5-3.34,1.92c-1.59,0.55-3.1,1.26-4.51,2.19c-3.9,2.58-3.96,4.64-0.17,7.35
		c7.94,5.68,17.02,8.63,26.38,10.89c4.93,1.48,10,2.18,15.1,2.74c13.62,2.3,27.36,2.74,41.13,2.39c4.77-0.12,9.56,0.64,14.31-0.33
		c1.52-0.31,3.06-0.38,4.6-0.32c11.14,0.32,22.18-0.61,33.16-2.4c13.43-2.25,26.94-4.18,39.78-9.05c1.34-0.51,2.73-0.89,4-1.57
		c3.92-2.09,4.09-4.38,0.53-7.22c-1.73-1.31-4.29-1.61-5.01-4.14c0.14-0.33,0.32-0.71,0.68-0.75c5.43-0.59,10.9,5.52,9.6,10.72
		C200.33,64.97,200.27,65.3,200.34,65.65z"/>
	<path class="st3" d="M23.94,52.07c-0.47-0.97-0.94-1.94-1.41-2.91c-1.97-4.3-0.62-7.27,3.39-9.61c2.55-1.48,4.77-3.52,7.49-4.78
		c0.99,0.53,2.62-1.65,3.18,0.74c-0.32,1.56-1.84,1.83-2.85,2.66c-2.53,1.71-5.04,3.43-7.17,5.65c-1.13,1.18-1.92,2.4-1.05,4.07
		c1.16,3.03,3.29,5.07,6.08,6.71c8.14,4.78,17.22,6.74,26.21,8.99c4.14,1.17,8.47,1.27,12.63,2.3c1.03,0.26,1.62-0.03,1.65-1.16
		c-0.12-2.17,1.01-3.94,1.81-5.82c0.16-2.26-1.72-2.71-3.17-3.33c-3.6-1.55-6.09-3.62-5.32-8.09c0.32-1.84-1.08-2.97-2.5-4
		c-4.75-3.46-4.88-4.72-1.09-9.38c0.69-0.85,1.17-1.78,1.59-2.77c1.17-1.87-1.24-3.11-0.85-4.85c0.23-0.53,0.64-0.81,1.19-0.93
		c0.58-0.06,1.11,0.07,1.58,0.4c2.28,2.3,2.47,4.92,1.19,7.76c-0.69,1.8-2.86,2.91-3.02,4.71c-0.17,2,2.65,2.01,3.63,3.5
		c0.79,1.2,1.52,2.41,2.04,3.74c-0.51,3.9,1.34,6.13,4.91,7.44c1.78,0.65,3.23,1.99,3.85,3.95c0.45,1.85-0.13,3.48-1,5.09
		c-0.87,1.6-0.99,3.16,0.64,4.43c7.32,1.18,14.65,2.12,22.06,1.01c1.23-0.19,1.54-0.98,1.21-2.05c-0.32-1.04-0.58-2.08,0.03-3.07
		c1.41-2.29-0.13-2.86-1.89-3.34c-3.91-1.31-7.63-3.08-11.55-4.36c-1.08-0.35-2.33-0.64-2.55-2.1c1.31-2.46,3.36-1.3,5-0.77
		c5.68,1.82,11.26,3.94,16.96,5.72c4.88,1.53,4.86,1.59,8.13-2.53c0.53-0.67,1.09-1.27,1.98-1.42c1.48-0.02,1.98,0.89,2.05,2.19
		c-1.56,5.73-4.29,7.66-9.65,6.85c-3.7-0.56-4.1-0.14-3.74,3.95c0.29,0.61,0.81,0.88,1.44,0.77c5.12-0.83,10.36-0.61,15.45-1.67
		c3.03-0.41,6.03-1.17,9.06-1.38c2.77-0.19,4.29-1.32,4.83-3.95c2.21-2.81,2.87-0.4,3.79,1.12c0.84,1.34,2.07,0.95,3.2,0.64
		c3.46-0.96,7.05-1.11,10.53-1.89c2.32-0.76,4.56-1.84,7.09-1.77c1.1,0.25,1.78,0.81,1.48,2.06c-1.94,2.24-4.83,2.16-7.35,2.97
		c-1.45,0.47-2.94,0.79-4.37,1.34c-5.89,1.46-11.76,3.04-17.78,3.87c-1.47,0.2-2.84,0.35-2.92,2.35c-0.03,0.85-0.78,1.49-1.55,1.85
		c-5.07,2.35-10.1,4.89-15.91,4.85c-2.58-0.65-5.35-0.19-7.84-1.35c-1.81-0.66-3.6-1.4-5.34-2.23c-5.4-3.34-11.51-2.81-17.44-3.21
		c-1.79-0.12-3.6,0.01-5.4,0c-5.3-0.07-10.44-1.2-15.56-2.41c-7.56-1.78-15.18-3.4-22.37-6.46c-1.8-1.05-3.8-1.69-5.61-2.7
		c-1.54-0.66-2.87-1.69-4.36-2.43C26.83,55.67,24.96,54.27,23.94,52.07z"/>
	<path class="st4" d="M63.85,25.94c-0.31,0.27-0.62,0.53-0.94,0.8c-8.84-1.07-15.37,4.58-22.75,7.79c-1.23,0.54-2.28,1.91-3.9,0.98
		c-0.62-1.55-2.2,0.62-2.87-0.73c7.95-4.9,16.27-9.08,25.04-12.31c7.39-2.72,14.77-5.52,22.71-6.14c3.89-0.3,6.74-2.92,10.22-4.12
		c6.08-2.09,12.1-4.84,18.38-0.61c-0.12,0.14-0.25,0.29-0.37,0.43c-6.4-0.14-12.52,1.42-18.25,2.96c0.95-0.5,2.39-0.42,3.81-0.53
		c7.17,1.36,14.49,1.68,21.67,2.98c1.8,0.56,3.78,0.51,5.43,1.54c0.99,0.62,2.27,1.28,0.62,2.58c-3.93,0.18-7.71-1.03-11.6-1.38
		c-5.48-0.49-10.94-0.13-16.4-0.28c-0.33-0.01-0.6,0.35-0.79,0.67c-0.71,0.6-1.55,0.88-2.45,1.03c-8.73-3.29-17.04-0.53-25.38,1.74
		c-1.22,0.33-2.39,0.86-3.75,0.83C62.94,24.7,63.78,24.99,63.85,25.94z"/>
	<path class="st5" d="M162.25,60.62c-0.03-0.98-0.61-1.39-1.52-1.45c-0.16-0.3-0.2-0.61-0.08-0.94c0.87-1.37,0.11-2.44-0.72-3.42
		c-1.13-1.33-1.16-2.69-0.38-4.17c0.78-1.41,0.28-4.63,3.56-2.53c0.85,2.33,1.28,4.85,3.08,6.73c1.13,1.3,2.16,0.15,3.22-0.14
		c4.18-1.15,7.38-4.3,11.46-5.67c6.58,0.19,13,1.21,19.24,3.4c3.26,1.14,6.5,2.35,9.88,3.1c2.91,0.96,5.94,1.51,8.85,2.49
		c3.94,1.33,3.95,1.28,3.1-2.83c-0.06-0.34-0.08-0.68-0.1-1.03c-0.03-0.52-0.02-1.03,0.01-1.55c0.01-2.65,2.17-5.05,0.88-7.84
		c-0.36-0.91-1.04-1.7-1.08-2.73c0.98-2.18,2.2,0.28,3.27-0.17c2.43,2.04,3.43,4.17,1.84,7.46c-1.55,3.19-1.05,6.68,0.17,10.07
		c0.86,2.38,0.72,3.92-2.75,2.88c-8.22-2.46-16.69-4.06-24.76-7.07c-0.65-0.24-1.4-0.19-2.11-0.27c-0.53,0.38-1.17,0.47-1.69,0.21
		c-2.96-1.49-6.14-1.61-9.34-1.6c-3.45-1.11-6.55-0.58-9.37,1.78c-1.66,1.39-3.76,2.04-5.69,2.97c-1.76,0.83-3.53,1.62-5.38,2.24
		C164.64,60.8,163.46,61.59,162.25,60.62z"/>
	<path class="st6" d="M224.92,41.88c-0.07,0.89-0.3,1.36-1.25,0.64c-0.46-0.35-0.73-1.43-1.65-0.6c-4.11-1.16-8.06,0.2-12.07,0.79
		c-4.63,0.28-9.17,1.27-13.79,1.66c-1.62-0.1-3.42,0.4-4.55-1.34c0.63-2.4,2.99-1.73,4.51-2.56c5.87-1.87,12.1-1.62,18.05-3.04
		c1.06-0.11,2.12-0.22,3.14-0.54c2.95-2.41,2.08-6.28-1.84-8.1c-3.31,0.99-6.44,2.58-9.91,3.04c-1.55-0.42-3.68,1.04-4.63-1.39
		c2.4-2.72,6.16-2.24,9.02-3.85c1.39-0.78,3.81-0.48,3.6-3.11c-2.29-1.23-4.45,0.74-6.7,0.23c-0.96-0.32-1.46-0.98-1.47-2
		c1.96-1.18,4.11-1.9,6.37-2.05c3.16-0.21,4.47,0.89,6.32,4.22c2.81,5.06,4.86,9.89,5.4,15.55
		C223.57,40.29,224.42,41.07,224.92,41.88z"/>
	<path class="st7" d="M122.46,21.15c1-1.62-0.64-1.21-1.24-1.64c-1.31-0.92-3.15-0.08-4.33-1.35c-2.83-1.05-6.42-0.9-7.52-4.72
		c-0.16-0.51-0.16-1.01,0.11-1.48c0.08-0.13,0.17-0.26,0.27-0.38c3.28,0.85,6.39,2.63,9.06,4.27c5.08,3.11,10.63,3.05,15.93,4.48
		c5.84,1.57,11.87,2.43,17.46,4.89c0.63,0.79,1.96,1.07,1.79,2.45c-0.08,0.36-0.29,0.61-0.6,0.79c-7.73-1.87-15.34-4.27-23.19-5.59
		c-1.56-0.26,0.36,0.53-0.02,0.8c0.75,1.66,0.6,3.28-0.49,4.68c-1.15,1.46-0.59,2.47,0.42,3.71c1.63,1.99,3.51,3.86,4.11,6.51
		c0.12,1.22,0.24,2.45-0.8,3.39c-1.88,0.08-1.21-2.4-2.71-2.7c-2.18-1.62-3.16-4.39-5.57-5.77c-1.49-1.76-1.73-3.96-0.39-5.55
		c2.15-2.55,1.1-3.81-1.18-5.1C122.95,22.51,122.44,21.97,122.46,21.15z"/>
	<path class="st8" d="M205.4,21.72c0.51,0.5,1.01,1,1.52,1.5c-0.93,2.64-3.74,2.26-5.56,3.48c-7.02,3.06-13.55,7.15-20.76,9.82
		c-0.93,0.26-1.76,0.12-2.43-0.62c-0.22-0.31-0.24-0.64-0.11-0.98C187.13,30.45,195.77,25.07,205.4,21.72z"/>
	<path class="st9" d="M178.05,34.93c0.03,0.19,0.04,0.38,0.05,0.57c-1.66,1.4-3.39,0.59-5.08,0.1c-5.03-1.46-9.75-3.87-14.9-4.98
		c-2.01-0.3-3.33-1.6-4.49-3.13c-0.48-0.75-0.96-1.51-1.45-2.26C161.22,27.37,169.67,31.06,178.05,34.93z"/>
	<path class="st10" d="M185.94,52.62c4-0.25,7.77,0.64,11.37,2.32c4.86,3.74,5.49,6.65,3.03,10.71c-1.07-0.9,0.02-1.76,0.08-2.62
		c0.18-2.59-0.1-4.74-3.19-5.5c-2.39-0.58-3.91-3.5-6.88-2.7C188.36,55.13,186.59,54.99,185.94,52.62z"/>
	<path class="st11" d="M195.34,57.89c1.9,1.03,4.04,1.97,3.76,4.63c-0.28,2.61-2.41,3.77-4.52,4.61
		c-10.45,4.17-21.31,6.81-32.4,8.59c-3.52,0.57-7.06,1.05-10.59,1.57c-2.55,0.57-2.5-1.17-2.52-2.84c0.6-0.88,1.56-1.14,2.49-1.46
		c5.05-0.94,10.18-1.46,15.22-2.56c4.49-0.98,8.47-2.57,10.62-7.02C181.96,56.96,188.79,57.88,195.34,57.89z"/>
	<path class="st12" d="M104.75,75.68c2.65,0.48,5.3,0.95,7.95,1.43c-2.13,1.66-4.82,1.63-6.82,2.53c2.28-0.27,5.07-1.51,7.58,0.58
		c-5.22,0.97-10.49,0.45-15.74,0.63c-12.84,0.43-25.61-0.19-38.32-2.14c-0.81-0.12-1.59-0.43-2.39-0.64
		c1.34-3.31,5.01-2.72,7.34-4.39c9.43,0.86,18.9,0.89,28.34,1.47C96.7,75.37,100.78,74.23,104.75,75.68z"/>
	<path class="st13" d="M95.18,85.27c10.17-0.04,20.34-0.27,30.5-0.06c10.11,0.22,19.94-2.03,29.94-2.76
		c0.82-0.06,1.64-0.01,3.24-0.01c-3.37,3.66-7.19,5.27-11.26,5.44c-16.74,0.71-33.46,2.36-50.25,1.44c0.78-2.35,2.78-2.55,4.76-2.78
		C99.82,86.17,97.04,88.14,95.18,85.27z"/>
	<path class="st14" d="M23.94,52.07c1.69,1.45,3.38,2.9,5.07,4.35c0.08,1.07-0.75,1.07-1.42,1.12c-1.58,0.13-2.8,0.73-3.08,2.41
		c-0.27,1.56,0.46,2.82,1.65,3.73c3.98,3.06,8.08,5.77,13.25,6.61c2.71,0.44,5.79,0.29,7.83,2.79c-1.09,2.47-3.48,1.7-5.38,2.15
		c-9.6-2.14-18.77-5.32-26.84-11.17c-3.8-2.75-3.73-5.49,0.13-8.12C17.84,54.1,20.94,53.21,23.94,52.07z"/>
	<path class="st15" d="M113.44,80.21c-2.92,0-5.84,0-9.38,0c3.01-2.06,5.57-3.29,8.62-3.11c5.77-0.16,10.74-2.93,15.92-4.97
		c2.47-0.97,0.57-2.15-0.14-3.34c7.5-1.58,14.89-3.13,22.28-4.68c0.58-0.23,1.38-0.28,1.4,0.38c0.04,1.1-1.11,1.33-1.88,1.79
		c-8.53,3.14-16.59,7.37-24.98,10.83c-2.41,1.38-4.95,2.4-7.69,2.92C116.22,80.09,114.83,80.15,113.44,80.21z"/>
	<path class="st16" d="M195.34,57.89c-4.61-0.03-8.85,2.21-13.48,2.18c-1.17-0.01-2.25,0.71-2.37,2.25
		c-0.06,0.73-0.09,1.86-1.43,1.15c-0.79-0.66-0.84-1.77-1.54-2.49c-1.04-1.1-2.42-1.37-3.82-1.67c-0.86-0.18-1.99-0.18-1.92-1.57
		c2.81-1.7,5.82-3.06,8.42-5.16c2.12-1.71,4.48-0.48,6.73,0.03c1.47,0.74,2.94,1.48,4.42,2.22
		C192.02,55.85,193.68,56.87,195.34,57.89z"/>
	<path class="st17" d="M117.6,80.03c2.4-1.18,4.8-2.37,7.19-3.55c5.37-1.13,10.83-1.7,16.21-2.73c2.76-0.53,5.65-1.2,8.3,0.6
		c0.74,1,0.42,2.82,2.29,2.94c-9.3,2.25-18.77,2.74-28.28,2.85C121.41,80.16,119.51,80.07,117.6,80.03z"/>
	<path class="st18" d="M41.85,75.23c1.44-1.49,3.8-0.84,5.26-2.28c1.21-1.92,3.18-1.65,5.02-1.74c3.82,1.06,8.05,0.63,11.46,3.17
		c-1.49,2.49-4.94,1.47-6.59,3.67C51.81,77.89,46.74,77.02,41.85,75.23z"/>
	<path class="st19" d="M86.08,89.31c-6.35-1.6-12.92-2.37-19-5.13c8.26,0.75,16.55-0.34,24.73,1.07
		C90.81,87.91,87.85,87.77,86.08,89.31z"/>
	<path class="st20" d="M86.08,89.31c1.04-2.57,4.1-2.3,5.72-4.06c1.13,0,2.25,0.01,3.38,0.01c2.54,1.22,5.36,0.07,8.34,0.95
		c-2.25,1.14-4.21,2.13-6.18,3.11C93.59,89.32,89.83,89.32,86.08,89.31z"/>
	<path class="st21" d="M57.72,64.35c-9.97-1.95-19.7-4.59-28.44-10.06c-2.47-1.55-3.91-3.75-4.61-6.52
		c2.26-2.24,3.84-5.39,7.56-5.69c10.01,3.4,19.75,7.56,29.98,10.31c1.38,0.37,2.75,0.75,4.15,1.03c1.65,0.86,3.31,1.72,5.07,2.32
		c1.78,0.61,3.02,1.71,3.69,3.46c-1.03,1.84-2.54,3.5-2.29,5.84c-1.83,1.45-3.81,0.58-5.74,0.36C63.97,65.05,60.9,64.17,57.72,64.35
		z"/>
	<path class="st22" d="M65.75,33.96c0.95-2.71,1.1-5.33-0.85-7.72c0.48-1.63,1.9-2.08,3.27-2.45c4.61-1.24,9.25-2.4,13.9-3.47
		c1.91-0.44,3.9-0.39,5.67,0.22c3.17,1.09,5.65,2.19,4.34,6.39c-0.87,2.78,2.09,4.16,2.24,6.53c-0.88,1.7-0.54,3.7-1.3,5.43
		c-1.71,1.54-3.62,0.9-5.4,0.32c-6.49-2.1-13.07-3.58-19.95-3.44C66.64,35.79,64.93,36.11,65.75,33.96z"/>
	<path class="st23" d="M116.81,54.12c-4.46,6.31-4.45,6.3-11.93,3.83c-5.51-1.82-11.03-3.62-16.54-5.45
		c-1.13-0.38-2.25-0.96-3.23,0.28c-2.11,0.67-2.41-0.73-2.59-2.26c-0.18-1.53,0.38-2.81,1.4-3.93c0.6-0.71,1.22-1.39,2.24-1.48
		c3.32-0.06,6.54-1.48,9.93-0.73c4.21,1.68,8.49,2.93,13.1,2.52c1.2-0.11,2.39-0.18,3.37,0.72c0.55,0.87,1.42,1.09,2.36,1.34
		C118.48,49.93,118.82,50.93,116.81,54.12z"/>
	<path class="st24" d="M85.89,45.51c-0.45,0.5-0.91,1-1.36,1.51c-2.13-0.21-3.62-1.9-5.88-2.21c-3.5-0.47-6.8-0.46-10.09,0.79
		c-1.39-2.04-2.6-4.19-5.11-5.22c-2.02-0.83-1.87-2.09-0.29-3.48c0.97-0.85,1.73-1.95,2.58-2.93c0.11,0.45,0.17,1.08,0.76,1.01
		c7.84-0.99,15.16,1.41,22.49,3.56c1.46,0.43,2.74,0.66,4.06-0.17c1.21-0.07,2.07,0.43,2.58,1.53c0.05,2.51-2.67,2.47-3.67,4.02
		C90.09,45.02,87.97,45.17,85.89,45.51z"/>
	<path class="st25" d="M68.57,45.59c1.21-1.92,2.98-2.62,5.16-2.21c3.76,0.72,8.22-0.58,10.81,3.63c-1.08,2.05-3.04,4.2,0.58,5.78
		c4.81,1.93,9.62,3.86,14.44,5.79c-0.06,1.39-1.19,1.46-2.07,1.41c-6.1-0.33-12.22-0.37-18.26-1.43c-0.89-0.16-1.48-0.74-1.92-1.49
		c-1.03-2.05-2.83-3.22-4.88-3.93c-3.01-1.05-5.24-2.39-3.73-6.14C68.84,46.61,68.61,46.06,68.57,45.59z"/>
	<path class="st26" d="M77.29,57.07c5.63,1.6,11.46,1.35,17.2,1.71c1.62,0.1,3.46,1.45,5.06-0.19c2.2,0.68,5.54,0.8,1.98,4.21
		c-0.72,0.69-0.48,1.49,0.06,2.25c0.93,1.3,0.41,2.44-0.51,3.49c-3.21-1.35-6.53-0.06-9.81-0.43c-4.93-0.55-9.94-0.22-14.89-0.87
		c-1.54-1.9-1.75-3.85-0.08-5.78C77.42,60.15,77.29,58.6,77.29,57.07z"/>
	<path class="st27" d="M63.59,74.39c-3.82-0.76-7.64-1.53-11.46-2.29C45,71.48,38.66,68.7,32.73,64.87
		c-1.33-0.86-2.32-2.07-2.15-3.83c0.16-1.6,1.24-2.17,2.68-2.31c1.73,0.82,3.45,1.64,5.18,2.46c-0.22,0.81-1.22,0.69-1.76,1.64
		c6.7,2.6,13.39,4.98,20.35,6.64c5.58,0.74,11.16,1.46,16.76,1.99c0.8,0.25,1.6,0.43,2.45,0.38c8.11-0.51,16.08,0.62,24.04,1.96
		c1.49,0.63,2.99,1.25,4.48,1.88C90.99,76.45,77.27,76.08,63.59,74.39z"/>
	<path class="st28" d="M104.55,67.02c-0.12-0.81-0.62-1.89-0.28-2.39c0.89-1.31-0.04-4.41,3.47-3.38c6.29,1.85,7.52,1.16,10.62-4.85
		c0.3-0.29,0.65-0.37,1.05-0.25c2.9,1.16,5.78,0.36,8.69,0.01c1.39-0.17,2.78-0.5,4.2-0.2c0.83,0.31,1.32,0.97,1.77,1.68
		c2.41,3.78,1.86,5.41-2.39,6.57c-4.2,1.15-8.5,1.81-12.83,2.21c-3.61,0.83-7.34,0.61-10.98,1.27
		C106.71,67.9,105.48,68.12,104.55,67.02z"/>
	<path class="st29" d="M119,56.28c-0.21,0.03-0.42,0.07-0.63,0.12c-0.02-1.09-0.05-2.19-1.55-2.28c0.72-2.61,0.82-4.75-2.96-4.37
		c-0.69,0.07-1.83,0.04-1.28-1.33c0.26-0.25,0.55-0.44,0.86-0.63c0.92-0.56,2.79-0.13,2.61-1.82c-0.18-1.76-1.9-1.46-3.14-1.55
		c-4.18-0.3-8.28,0.66-12.42,0.94c-1.53,0.1-3.08,0.54-4.46-0.52c-2.64,0.36-5.29,0.67-7.92,1.1c-0.84,0.14-1.6,0.38-2.21-0.43
		c1.65-1.48,4-1.05,5.79-2.12c1.59-1.44,3.79-1.26,5.59-2.12c-0.22-1.53-1.62-1.88-2.61-2.57c-2.09-1.46-2.4-3-0.43-4.78
		c0.35-0.73,0.28-1.44-0.33-1.96c-2.37-2.04-3.22-4.34-1.41-7.2c0.92-1.46-1.07-2.29-0.84-3.61c0.48-0.93,1.37-0.76,2.18-0.81
		c0.33-0.24,0.68-0.28,1.06-0.12c1.27,0.71,2.24,2.03,1.79,3.22c-1.58,4.25,2.08,7.63,1.62,11.77c-0.25,2.2,5.39,5.74,7.75,5.38
		c2.38-0.37,4.76-0.31,7.15-0.31c6.25,0.01,6.99,0.65,8.21,6.94C121.36,50.43,121.72,53.77,119,56.28z"/>
	<path class="st30" d="M149.98,65.68c0.85-0.65,1.18-1.32,0.77-1.57c3.83-1.16,7.66-2.33,11.5-3.49c1.19-0.27,2.37-0.53,3.56-0.8
		c2.38-0.56,4.7-0.16,6.99,0.49c1.55,0.44,2.9,1.12,3.03,3.01c-0.13,1.86-1.13,3.16-2.77,3.89c-5.16,2.32-10.45,4.19-16.25,3.91
		C155.13,68.57,151.36,68.62,149.98,65.68z"/>
	<path class="st31" d="M160.86,58.59c-0.03,0.2-0.07,0.39-0.13,0.58c-2.14,0.68-4.28,1.37-6.43,2.05c-3-1.14-5.84,0.36-8.75,0.59
		c-1.89,0.15-3.74,0.96-5.58-0.16c-0.61-2.06-2.06-3.91-1.62-6.25c0.56-0.86,1.42-1.22,2.37-1.39c4.78-0.83,9.56-1.63,14.35-2.41
		c2.13-0.35,3.44,0.31,3.94,2.44C159.86,55.46,160.87,56.81,160.86,58.59z"/>
	<path class="st32" d="M33.26,58.73c-2.77,2.24-2.85,3.41-0.04,5.4c5.7,4.04,12.43,5.74,18.92,7.97c-1.74-0.11-3.39,0.36-5.03,0.86
		c-4.47-1.59-9.29-1.74-13.77-3.47c-3.22-1.24-5.41-3.8-8.29-5.45c-1.67-0.96-2.25-3.1-1.5-5.12c0.96-2.58,3.3-2.41,5.46-2.49
		C30.43,57.18,31.84,57.96,33.26,58.73z"/>
	<path class="st33" d="M91.66,21.14c1.48,1.13,3.02,2.3,1.34,4.33c-1.65,1.99-0.8,3.4,0.74,4.93c0.95,0.94,2.32,2.01,0.81,3.61
		c-0.23,0.31-0.46,0.3-0.69,0c-0.06-1.33-1.01-2.12-1.86-2.93c-1.08-1.02-1.2-2.26-1.05-3.61c0.55-4.84-0.97-6.85-5.83-6.36
		c-6.95,0.7-13.75,2.37-20.23,5.14c-0.35-0.1-0.7-0.2-1.05-0.3c-0.92-0.49-1.83-0.97-2.75-1.47C68.38,19.64,83.22,18.03,91.66,21.14
		z"/>
	<path class="st34" d="M56.21,70.12c-7.56-1.8-14.94-4.13-22.45-7.89c1.9-1.19,3.39-0.68,4.69-1.05c7.22,2.98,14.9,4.42,22.35,6.62
		C59.94,69.92,58.01,69.9,56.21,70.12z"/>
	<path class="st35" d="M138.36,55.74c1.25,1.69,1.89,3.57,1.7,5.7c0.02,0.56-0.22,0.83-0.8,0.73c-0.65-0.56,0.52-3.68-2.1-1.5
		c-1.59-2.27-4.45-3.77-4.36-7.08c1.5-2.62,0.7-4.64-1.5-6.48c-1.49-1.24-3.46-2.38-2.65-4.92c0.62-1.22,1.19-2.49,2.6-3.05
		c2.37-0.19,1.1,1.65,1.45,2.59c0.34,1.97,2.04,2.84,3.29,4.09c1.01,1.01,2.11,1.96,2.48,3.44
		C138.81,51.42,138.11,53.57,138.36,55.74z"/>
	<path class="st36" d="M100.27,73.8c-1.92,1.04-4,0.65-5.89,0.25c-5.5-1.19-11.06-1-16.61-1.15c-1.37-0.04-2.88,0.37-4.08-0.73
		c0.02-2.04,2.17-1.11,2.94-2.1c5.9,0.24,11.81,0.37,17.7,0.79C96.58,71.01,98.47,72.44,100.27,73.8z"/>
	<path class="st37" d="M36.28,35.51c5.55-2.77,11.11-5.52,16.64-8.31c3.28-1.65,6.59-1.98,10-0.46c0.92,1.32,2.4,2.46,1.44,4.39
		c-0.79,0.4-1.33-0.08-1.88-0.53c-1.74-2.23-3.84-2.35-6.35-1.32c-3.95,1.63-7.92,3.19-11.69,5.23c-2.84,0.95-4.78,3.61-7.85,4.11
		c-0.93-0.82-2.86,1.36-3.25-1.08C34.32,36.87,35.3,36.19,36.28,35.51z"/>
	<path class="st38" d="M103.26,71.42c7.25-1.32,14.51-2.64,22.35-1.34c-3.41,4.12-7.12,2.47-10.65,2.17
		c-0.26-0.02-3.18-1.07-0.88,1.19C110.98,74.88,105.48,73.85,103.26,71.42z"/>
	<path class="st39" d="M76.63,70.06c-0.42,1.48-2.2,1.06-2.94,2.1c-5.93,0.19-11.72-0.85-17.49-2.04c1.53-0.77,3.06-1.54,4.58-2.32
		C66.09,68.4,71.25,69.98,76.63,70.06z"/>
	<path class="st40" d="M62.93,30.37c0.47,0.25,0.95,0.51,1.42,0.76c-0.01,2.17-1.62,3.36-2.91,4.75c-2.26,2.43-2.24,4.13,0.46,5.87
		c3.11,2,5.46,3.86,4.37,8.3c-0.54,2.2,1.8,3.52,3.99,4.4c2.16,0.87,5.22,1.16,4.85,4.74c-2.22-2.82-5.98-2.96-8.64-5.01
		c-1.64-0.91-2.35-2.42-2.25-4.16c0.18-3.24-1.33-5.4-3.89-7.1c-1.09-0.73-1.98-1.71-2.39-3.03C57.44,35.59,60.95,33.38,62.93,30.37
		z"/>
	<path class="st41" d="M133.35,53.45c-0.4,1.48,0.38,2.35,1.46,3.2c1.29,1,2.43,2.18,2.34,4.02c-0.06,3.92-2.81,4.54-5.88,4.85
		c-2.82,0.28-5.64,0.65-8.46,0.99c-1.3,0.08-2.79,1.14-3.7-0.74c4.28-0.82,8.59-1.38,12.84-2.45c3.08-0.78,3.38-1.93,1.75-4.29
		c-0.6-0.87-1.12-1.8-1.68-2.7c-0.25-0.24-0.35-0.53-0.32-0.87C132.04,54.61,131.95,53.41,133.35,53.45z"/>
	<path class="st42" d="M33.34,37.54c0.5,0.8,1.07,0.68,1.73,0.19c0.95-0.72,1.15-0.12,1.19,0.71c-0.49,2.42-2.48,3.21-4.41,4.06
		c-2.87,1.1-4.16,4.36-7.17,5.27c-1.07-1.6-0.59-2.9,0.72-4.11C27.85,41.37,30.4,39.21,33.34,37.54z"/>
	<path class="st43" d="M76.38,67.23c0.66-0.93,1.67-0.97,2.6-0.79c6.4,1.28,12.88,0.46,19.31,0.71c1.11,0.04,2.54-0.45,2.79,1.38
		C92.78,69.34,84.52,69.39,76.38,67.23z"/>
	<path class="st44" d="M139.25,62.16c0.27-0.24,0.54-0.49,0.8-0.73c3.49,0.05,6.87-0.8,10.3-1.23c1.37-0.17,3.14-1.26,3.95,1.01
		c-3.9,0.72-7.79,1.45-11.69,2.13C141.31,63.58,139.71,64.42,139.25,62.16z"/>
	<path class="st45" d="M57.72,64.35c2.83-1.88,5.66,0.16,8.49,0.15c2.14-0.01,4.4,0.44,6.62,0.54c0.46,0.93,1.84,2.53-0.7,2
		C67.34,66.06,62.38,65.99,57.72,64.35z"/>
	<path class="st46" d="M119.11,65.76c1.06,1.13,2.5,0.35,3.7,0.74c-5.68,1.35-11.52,1.34-17.28,1.99c-1.05,0.12-2.13,0.01-0.98-1.47
		C109.5,67.62,114.23,65.84,119.11,65.76z"/>
	<path class="st47" d="M103.26,71.42c3.42,1.65,7.03,2.34,10.82,2.01c0.76,0.25,1.69-0.13,2.67,1.02
		c-6.23,1.58-11.43-0.53-17.06-2.89C101.25,70.14,102.23,71.86,103.26,71.42z"/>
	<path class="st48" d="M94.51,20.34l-0.33-0.03c0,0-0.33,0.02-0.33,0.02c-0.45-0.38-1.26-0.75-1.27-1.14
		c-0.03-0.83,0.82-0.56,1.35-0.55c9.58,0.07,19.18-0.11,28.54,2.52c0.96,0.66,1.91,1.35,2.89,1.98c1.9,1.22,3.3,2.35,0.65,4.39
		c-2.05,1.58-1.68,3.66-0.42,5.65c0.27,0.34,0.25,0.66-0.05,0.96c-3.35-1.28-4.12-3.04-2.74-6.19c1.34-3.05,1.07-3.79-2.14-4.87
		c-3.74-1.27-7.68-1.38-11.57-1.74C104.2,21.26,99.28,21.85,94.51,20.34z"/>
	<path class="st49" d="M109.68,13.09c1.59,2.08,3.13,4.2,6.29,3.77c0.53-0.07,1.53,0.22,0.93,1.31c-7.49-0.8-15.03-1.25-22.41-2.92
		c3.27-3.06,7.46-2.81,11.46-3.04C107.15,12.14,108.58,12.19,109.68,13.09z"/>
	<path class="st50" d="M109.68,13.09c-5.2-0.26-10.28,0.35-15.19,2.16c-1.4,0-2.81,0-4.21,0c6.19-2.38,12.28-5.36,19.21-3.28
		C109.55,12.34,109.62,12.72,109.68,13.09z"/>
	<path class="st51" d="M160.86,58.59c-0.76-1.23-1.52-2.46-2.28-3.7c-0.25-1.98-0.74-3.92-1.23-5.85c-0.58-2.17-2.45-3.33-3.83-4.87
		c-1.46-1.51-1.29-3.1-0.57-4.96c2.19-5.6,0.93-7.89-4.85-9.39c-6.25-1.62-12.6-2.93-18.46-5.77c-0.81-0.67-1.63-1.35-2.44-2.02
		c9.07,1.17,18.02,2.54,26.35,6.38c4.56,2.38,6.11,6.04,4.29,10.49c-0.63,1.53-1.18,3,0.21,4.25c2.52,2.27,2.78,5.07,2.24,8.14
		c-1.21,1.64-0.62,2.66,0.94,3.75C162.95,56.23,163.27,57.64,160.86,58.59z"/>
	<path class="st52" d="M210.47,41.92c3.07-0.65,6.13-1.37,9.22-1.92c1.34-0.24,1.4,1.45,2.33,1.92c0.45,0.77,0.91,1.54,1.36,2.3
		c0.38,3.05-0.74,5.76-1.86,8.48c-1.52,0.75-2.84,0.15-4.13-0.62c-1.2-1.35-2.79-1.85-4.52-2.04c-2.91-0.72-5.83-1.42-8.64-2.5
		c-2.03-1.87-0.9-2.43,1.09-2.67C207.45,44.6,209.77,44.66,210.47,41.92z"/>
	<path class="st53" d="M222.74,54.16c-0.02,0.27-0.04,0.54-0.06,0.82c-0.01,4.66-0.01,4.67-4.84,3.05
		c-2.24-0.75-4.54-1.28-6.83-1.85c-7.49-1.99-14.76-4.68-22.19-6.83c-0.12-0.5-0.03-0.89,0.44-1.2c0.05-0.03,1.05,0.34,0.33-0.4
		c-1.57-1.62-0.33-1.88,1.02-2.09c2.28,0.81,5-0.5,7.02,1.48c0.32,0.27-0.84,0.9,0.39,1.09c7.64,1.17,15.23,2.64,22.68,4.74
		C221.52,53.19,222.32,53.3,222.74,54.16z"/>
	<path class="st54" d="M165.62,55.44c-1.77-2.03-3.12-4.23-2.85-7.08c0.15-0.05,0.3-0.11,0.45-0.16c0.68,0.11,1.09,0.63,1.61,0.99
		c6.47-0.43,12.52-2.25,18.24-5.25c0.95-0.07,1.23,0.59,1.47,1.32c0.19,0.93,0.16,1.85-0.19,2.74c-0.16,0.34-0.42,0.58-0.78,0.71
		c-3.64-0.07-6.36,2.15-9.35,3.72C171.51,53.85,168.99,55.88,165.62,55.44z"/>
	<path class="st55" d="M160.29,51.29c0.28-3.2-0.85-5.81-3.24-7.94c-0.98-0.87-1.9-1.68-1-3.32c2.56-4.67,2.19-6.72-1.57-10.56
		c-0.33-0.34-0.62-0.71-0.93-1.06c0.03-0.31,0.06-0.61,0.09-0.92c1.83-0.03,2.44,2.3,4.3,2.21c3.13,2.17,4.23,5.15,3.14,8.75
		c-0.63,2.09-0.13,3.75,1.13,5.35c0.77,1.46,2.04,2.83,0.91,4.66c-0.11-0.07-0.23-0.11-0.36-0.11c-0.86-0.4-1.79-0.97-1.88,0.7
		C160.86,49.85,161.03,50.69,160.29,51.29z"/>
	<path class="st56" d="M222.74,54.16c-7.68-2.37-15.74-2.94-23.48-5.03c-1.09-0.29-2.18-0.57-3.96-1.04
		c1.29-0.28,1.85-0.41,2.41-0.53c1.39-1.13,2.91-0.75,4.44-0.4c3.36,0.77,6.65,1.84,10.07,2.36c1.85,0.48,3.71,0.94,5.46,1.73
		c0.98,1.21,2.57,0.75,3.76,1.39c0.4-0.33,0.81-0.33,1.23-0.04C222.7,53.11,222.72,53.64,222.74,54.16z"/>
	<path class="st57" d="M188.93,49.11c7.64,1.36,14.74,4.58,22.19,6.58c0.24,0.7,0,0.97-0.73,0.81c-6.51-1.03-12.38-4.31-18.86-5.37
		c-3.73-0.61-7.51-0.91-11.26-1.34c0.57-2.14,2.37-0.89,3.57-1.3l0.03-0.26C185.67,47.87,187.4,47.91,188.93,49.11z"/>
	<path class="st58" d="M183.83,48.48c-0.86,1.33-2.71-0.05-3.57,1.3c-4.02,3.07-8.63,5.02-13.29,6.84c-1.1,0.43-1.14,0.34-1.36-1.18
		c5.17-1.16,9.19-4.69,13.92-6.75C180.99,48.06,182.34,47.31,183.83,48.48z"/>
	<path class="st59" d="M175.34,63.53c-0.06-1.48-1.01-1.93-2.31-2.17c-2.42-0.45-4.82-1.01-7.23-1.53c1.66-0.69,3.32-1.38,4.99-2.07
		c1.93,1.54,5.24,0.01,6.54,2.94C177.16,61.98,177.09,63.34,175.34,63.53z"/>
	<path class="st60" d="M210.39,56.5c0.24-0.27,0.49-0.54,0.73-0.81c2.07,0.52,4.25,0.8,6.19,1.63c2.82,1.21,5.07,1.88,5.37-2.35
		c0.05,0.23,0.07,0.47,0.14,0.69c0.43,1.32,1.42,2.98,0.59,3.97c-1.01,1.2-2.62-0.1-3.92-0.45C216.44,58.36,213.42,57.4,210.39,56.5
		z"/>
	<path class="st61" d="M222.68,52.59c-0.41,0.01-0.82,0.03-1.23,0.04c0.65-2.81,1.3-5.61,1.94-8.42
		C225.73,47.23,222.58,49.77,222.68,52.59z"/>
	<path class="st62" d="M183.89,45.55c-0.23-0.5-0.45-1-0.68-1.49c-0.67-0.27-1-0.84-1.3-1.44c-0.53-1.72-1.44-3.28-2.07-4.95
		c-0.1-0.51-0.02-0.99,0.29-1.42c6.97-3.44,13.8-7.16,21-10.12c1.16,1.62-0.99,2.2-1.06,3.43c0.22,0.51,0.69,0.95,0.41,1.58
		c-3.02,2.21-6.67,2.67-9.59,3.7c2.85-0.14,5.8-2.5,9.32-1.89c1.33,1.36,0.19,2.33-0.56,3.32c-1.21,1.59-2.94,2.63-4.34,4.01
		c0.26,0.38,0.62,0.65,0.82,1.05c-1.41,0.47-2.83,0.94-4.24,1.41C189.27,43.77,187.2,46.4,183.89,45.55z"/>
	<path class="st63" d="M194.08,40.54c-0.89-1.26,0.31-1.16,0.94-1.52c2.39-1.35,4.51-2.98,5.39-5.75c0.85-2.66,3.44-1.24,5.03-2.15
		c3.41-1.01,6.87-1.89,10.02-3.63c4.3,4.27,4.56,5.37,2.38,9.98c-1.02,0.52-2.02,1.11-3.24,0.75c-5.44-0.17-10.73,0.93-16.04,1.9
		C197.09,40.39,195.62,40.9,194.08,40.54z"/>
	<path class="st64" d="M210.47,41.92c0.56,0.12,1.31,0.06,1.63,0.4c0.6,0.65-0.14,1.06-0.64,1.23c-2.18,0.77-3.82,3.21-6.67,2.04
		c-0.88-0.36-1.25,0.29-0.76,1.18c-2.83,0.63-5.57,0.5-8.11-1.07c-0.49-0.81-0.41-1.59,0.17-2.32
		C200.88,42.87,205.6,41.65,210.47,41.92z"/>
	<path class="st65" d="M199.2,29.78c-0.97-2.07,2.62-1.74,1.93-3.66c1.93-0.96,3.85-1.93,5.78-2.89c2.62-0.1,5.08-2.25,7.83-0.6
		c-0.29,1.73-0.95,2.96-2.88,3.56C207.67,27.49,203.58,29.15,199.2,29.78z"/>
	<path class="st66" d="M196.09,43.38c0,0.71,0.01,1.41,0.01,2.12c-1.73,1.45-3.78,0.4-5.65,0.71c-0.41,0.1-1.19,0.45-0.99,0.56
		c2.43,1.43,0.13,1.69-0.53,2.34c-1.75,0.07-3.57,0.55-5.06-0.89c0.01-0.89,0.01-1.78,0.02-2.67c2.93-0.23,4.77-3.5,8.01-2.84
		C193.13,43.97,194.71,43.08,196.09,43.38z"/>
	<path class="st67" d="M205.45,31.13c-1.43,1.3-3.68,0.68-5.03,2.15c-4.09,0.95-8.18,1.9-12.27,2.85c-0.07-0.2-0.14-0.4-0.2-0.6
		c4.16-1.7,8.31-3.4,12.47-5.1c0.26-0.18,0.51-0.16,0.74,0.06C202.38,32.05,204.13,30.13,205.45,31.13z"/>
	<path class="st68" d="M194.08,40.54c6.77-1.44,13.44-3.74,20.53-2.31c-6.16,1.02-12.31,2.05-18.47,3.07
		C195.45,41.07,194.5,41.53,194.08,40.54z"/>
	<path class="st69" d="M201.15,30.49c-0.25-0.02-0.49-0.04-0.74-0.06c-0.45-0.13-1.01-0.04-1.21-0.64
		c3.62-1.79,7.56-2.59,11.38-3.77c1.89-0.58,3.38-1.51,4.16-3.38c0.59,2.05,0.06,3.31-2.17,3.99
		C208.72,27.76,204.95,29.18,201.15,30.49z"/>
	<path class="st70" d="M217.86,37.48c0.95-3.74,0.31-7.11-2.38-9.98c3.98,1.65,5.81,5.73,4.2,9.39
		C219.29,37.75,218.55,37.55,217.86,37.48z"/>
	<path class="st71" d="M129.65,24.05c7.49,1.92,15.03,3.69,22.46,5.82c2.83,0.81,3.95,6,1.89,9.47c-1.18,1.99-0.97,3.23,0.41,4.69
		c-0.43,1.24-1.45,1.58-2.56,1.43c-6.43-0.87-12.24-3.51-17.91-6.5c-0.18-0.1-0.25-0.39-0.34-0.62c-1.33-2.41-3.02-4.54-5.01-6.42
		c-1.22-1.15-1.82-2.13-0.17-3.39C129.95,27.38,130.1,25.78,129.65,24.05z"/>
	<path class="st72" d="M133.6,38.34c5.73,1.62,10.74,5.18,16.79,6.02c1.48,0.21,2.72,0.43,4.01-0.34c1.45,1.24,3.23,2.22,3.6,4.35
		c-5.14,0.96-10.28,2.3-15.44,0.17c-1.74-0.71-3.27-0.42-4.76,0.57c-1.1-1.73-2.61-3.04-4.24-4.24c-1.07-0.79-2.19-1.65-0.88-3.15
		C133.98,40.87,133.33,39.48,133.6,38.34z"/>
	<path class="st73" d="M125.52,34.04c0.02-0.29,0.04-0.58,0.06-0.87c2.78,1.14,3.88,3.88,5.66,5.97c-0.78,0.87-0.48,2.54-2.07,2.82
		c-0.13-0.11-0.25-0.22-0.38-0.33C128.54,38.73,125.96,36.85,125.52,34.04z"/>
	<path class="st74" d="M180.13,36.24c0.07,0.41,0.14,0.82,0.22,1.23c0.14,0.23,0.19,0.6,0.07,0.62c-6.17,1.01-11.2,5.31-17.46,6.02
		c-0.48,0.05-0.93,0.13-1.39-0.05c-1.97-1.57-2.51-3.28-1.4-5.79c1.43-3.25-0.61-5.92-2.22-8.57c3.61,0.35,6.8,2.08,10.17,3.2
		c3.28,1.09,6.48,2.43,9.99,2.59C178.78,35.75,179.46,36,180.13,36.24z"/>
	<path class="st36" d="M149.98,65.68c1.79,0.5,2.91,2.27,5.01,2.36c1.48,0.06,1.51,1.57,1.51,2.79c-0.5,1.93-2.13,1.95-3.62,2.02
		c-1.42,0.06-2.79,0.52-4,0.42c-0.69-0.01-0.44-0.17-0.32-0.11c0.91,0.43,2.06-0.36,2.93,0.54c-0.57,0.74-1.4,0.62-2.19,0.66
		c-7.58-0.6-14.78,2.22-22.26,2.53c-0.84,0.04-1.62,0.45-2.25-0.4C133.16,72.8,141.25,68.5,149.98,65.68z"/>
	<path class="st75" d="M151.49,73.69c-1.18-0.08-2.36-0.15-3.95-0.26c3.16-1.26,6.37-0.91,8.96-2.6c5.19-1.08,10.45-1.77,15.36-4.04
		c1.63-0.76,2.78-1.68,3.48-3.26c0.66-0.95,1.33-1.89,1.99-2.84c1.1,0.7,0.63,1.81,0.73,2.78c-1.21,4.45-4.57,6.25-8.71,7.31
		C163.48,72.28,157.52,73.17,151.49,73.69z"/>
	<path class="st76" d="M31.84,42.5c1.47-1.35,2.94-2.71,4.41-4.06c2.77-1.28,4.82-3.81,7.91-4.51c1.01,1.58,1.15,4.47,4.29,2.81
		c1.11,0.86,1.33,3,3.46,2.38c1.3-0.23,2.5-0.8,3.78-1.11c1.64-0.4,2.49,0.21,2.78,1.79c0.67,1.17,1.62,2.06,2.78,2.72
		c2.71,1.54,4.36,3.62,3.79,6.96c-0.31,1.78,0.74,3.2,1.45,4.7c-7.34-1.07-14.17-3.86-21.07-6.33
		C40.84,46.22,36.15,44.83,31.84,42.5z"/>
	<path class="st77" d="M93.86,34.01c0.23,0,0.46-0.01,0.69,0c-1.9,2.02-1.45,3.32,1.05,4.45c1.44,0.65,3.64,0.98,3.23,3.49
		c-2.32,1.19-2.71-0.85-3.56-2.13c-0.74-0.49-1.47-0.98-2.21-1.46C92.39,36.74,91.73,35.11,93.86,34.01z"/>
	<path class="st78" d="M96.02,44.84c5.77-0.48,11.49-1.63,17.32-1.47c1.99,0.06,4.23-0.51,4.28,2.71c0.06,3.68-2.69,1.96-4.34,2.36
		c-0.22,0.05-0.47-0.01-0.71-0.02c-0.92-1.11-2.22-0.9-3.28-0.63c-4.48,1.15-8.4-1.36-12.63-1.82
		C96.41,45.95,96.24,45.23,96.02,44.84z"/>
	<path class="st22" d="M95.27,39.82c1.36,0.41,1.67,2.6,3.56,2.13c-2.26,1.09-4.79,0.8-7.14,1.44
		C92.05,41.36,94.91,41.85,95.27,39.82z"/>
	<path class="st79" d="M131.97,55.65c0.03,0.22,0.05,0.45,0.06,0.68c-3.61,1.04-7.3,1.47-11.06,1.47c-1.1,0-1.81-0.36-1.97-1.51
		c0.97-3.03,1.62-6.11,1.52-9.31c3.35,2.32,7.09,3.33,11.14,3.26C134.73,51.86,131.21,53.88,131.97,55.65z"/>
	<path class="st80" d="M131.93,50.63c-3.99,1.24-10.01-0.69-11.42-3.66c-1.63-5.66-1.63-5.67-7.66-5.61c-1.91,0.02-3.82,0-5.73,0.13
		c-2.73,0.18-5.71,1.24-6.74-2.82c-0.15-0.61-1.24-1.1-1.99-1.42c-1.55-0.66-2.51-1.42-1.14-3.1c0.07-0.08,0.07-0.23,0.1-0.34
		c0.82-2.93-2.93-4.52-2.51-6.58c0.51-2.5,1.82-4.63-0.34-6.88c5.06-0.59,10.12,0.28,15.18,0.06c0.56,0.73,2.25-0.35,2.17,1.18
		c-0.06,1.15-1.16,1.41-2.17,1.36c-1.7-0.08-3.28,0.48-5.24,0.77c2.6,4.26,6.51,6.84,10.04,9.7c3.43,2.77,7.57,4.51,11.46,6.6
		c1.04,0.56,2.28,0.82,2.76,2.1c-0.19,2.14,0.61,3.88,1.98,5.48C131.4,48.44,132.55,49.2,131.93,50.63z"/>
	<path class="st81" d="M137.8,49.12c0.5-1.75,1.33-2.44,3.38-1.94c4.08,1,8.13,3.32,12.52,0.41c0.93-0.61,2.68,1.26,4.3,0.79
		c1.11,2.09,0.39,4.34,0.57,6.51c-0.6-2-1.62-2.74-3.92-2.22c-5.39,1.21-10.98,1.41-16.3,3.07C135.24,53.78,138.8,51.26,137.8,49.12
		z"/>
	<path class="st82" d="M131.93,50.63c-2-2.56-4.5-4.92-3.48-8.68c0.21-0.25,0.43-0.27,0.66-0.04c0,0,0.05,0.05,0.05,0.05
		c-0.63,3.02,1.9,4.12,3.62,5.46c2.52,1.97,3.12,3.76,0.56,6.03c-0.46,0.73-0.93,1.47-1.39,2.2
		C129.97,53.99,133.49,52.29,131.93,50.63z"/>
	<path class="st83" d="M58.47,39.81c-0.74-1.18-1.68-1.06-2.99-0.94c-1.23,0.11-2.12,1.68-3.49,0.75c-0.26-2.13-0.98-3.66-3.58-2.74
		c-0.92,0.05-0.13,2.32-1.77,1.4c-1.68-0.94-3.51-1.83-2.48-4.34c4.08-2.93,8.87-4.33,13.46-6.1c2.26-0.87,4.48-0.26,5.3,2.54
		c0.17,2.41-1.8,3.7-2.98,5.32C59,37.01,58.46,38.25,58.47,39.81z"/>
	<path class="st84" d="M129.11,41.91c-0.22,0.02-0.44,0.03-0.66,0.04c-10.13-4.16-19.09-9.92-26.35-19.36
		c3.59,0.66,6.18-1.27,9.19-0.38c0.09-1.51-1.4-1-1.61-1.8c4.57,0.67,9.32,0.38,13.55,2.74c1.86,1.04,2.84,2.14,1.01,4.13
		c-2.52,2.75-1.43,4.94,1.28,6.77C127.36,36.37,129.83,38.41,129.11,41.91z"/>
	<path class="st85" d="M190.46,46.21c1.74-1.35,3.8-0.22,5.65-0.71c2.64,0.43,5.29,0.85,7.93,1.28c3.08,0.83,6.15,1.67,9.23,2.5
		c0.17,0.67,0.02,1-0.74,0.72c-4.94-0.81-9.88-1.62-14.82-2.42C195.46,46.18,192.69,47.65,190.46,46.21z"/>
	<path class="st86" d="M212.53,49.99c0.25-0.24,0.49-0.48,0.74-0.72c1.64,0.28,3.37,0.37,4.42,1.98
		C215.85,51.28,214.11,50.94,212.53,49.99z"/>
	<path class="st87" d="M161.56,44.07c1.36-1.33,3.2-1.57,4.9-1.95c3.4-0.76,6.49-1.84,8.99-4.49c1.31-1.39,3.27,1.04,4.9-0.15
		c1.18,1.5,1.96,3.17,2.15,5.08c0.32,0.94-0.33,1.06-0.91,0.85c-2.92-1.02-5.33,0.11-7.58,1.76c-0.89,0.65-1.8,1.24-2.87,1.36
		c-2.8,0.31-5.34,1.15-7.36,3.23c-0.22-0.43-0.44-0.86-0.65-1.29C162.61,47,162.09,45.54,161.56,44.07z"/>
	<path class="st88" d="M163.78,49.76c0.77-2.31,2.04-3.6,4.81-3.63c2.1-0.02,3.96-1.1,5.87-2.56c1.9-1.46,5.11-2.77,8.04-1
		c0.24,0.5,0.47,1,0.71,1.5c-0.1,1.03-0.53,1.81-1.59,2.11c-5.45,1.52-10.8,3.45-16.42,4.35C164.57,50.61,164.03,50.43,163.78,49.76
		z"/>
	<path class="st89" d="M48.42,36.87c0.92-1.32,2.1-1.82,3.55-0.9c1.84,1.16,0.12,2.43,0.03,3.65C49.11,40.9,48.5,39.23,48.42,36.87z
		"/>
</g>
</svg>
