<?xml version="1.0" encoding="utf-8"?>
<!-- Generator: Adobe Illustrator 23.0.2, SVG Export Plug-In . SVG Version: 6.00 Build 0)  -->
<svg version="1.1" id="Camada_1" xmlns="http://www.w3.org/2000/svg" xmlns:xlink="http://www.w3.org/1999/xlink" x="0px" y="0px"
	 viewBox="0 0 240.6 105.99" style="enable-background:new 0 0 240.6 105.99;" xml:space="preserve">
<style type="text/css">
	.st0{fill:#010002;}
	.st1{fill:#3F6C7F;}
	.st2{fill:#3F1D08;}
	.st3{fill:#592D16;}
	.st4{fill:#5B2E17;}
	.st5{fill:#522510;}
	.st6{fill:#753C1C;}
	.st7{fill:#44220C;}
	.st8{fill:#7B3A18;}
	.st9{fill:#6C3A1F;}
	.st10{fill:#8B4A1C;}
	.st11{fill:#4A2710;}
	.st12{fill:#4E839A;}
	.st13{fill:#B9D8EC;}
	.st14{fill:#AFCDDF;}
	.st15{fill:#7395AB;}
	.st16{fill:#AECCDF;}
	.st17{fill:#DCEEF5;}
	.st18{fill:#ACCADD;}
	.st19{fill:#D8EAF3;}
	.st20{fill:#7496AC;}
	.st21{fill:#E1EEF2;}
	.st22{fill:#D7E9F1;}
	.st23{fill:#9E621D;}
	.st24{fill:#D27F39;}
	.st25{fill:#83561F;}
	.st26{fill:#C8752E;}
	.st27{fill:#A1511B;}
	.st28{fill:#B96B2A;}
	.st29{fill:#407E97;}
	.st30{fill:#A76B1B;}
	.st31{fill:#4D2511;}
	.st32{fill:#C2621A;}
	.st33{fill:#8CB5CF;}
	.st34{fill:#9ECAE8;}
	.st35{fill:#8FB8D3;}
	.st36{fill:#90B8D3;}
	.st37{fill:#F8F067;}
	.st38{fill:#4F2611;}
	.st39{fill:#663E1A;}
	.st40{fill:#DDEEF5;}
	.st41{fill:#EACC53;}
	.st42{fill:#ECC34B;}
	.st43{fill:#C4812B;}
	.st44{fill:#DFBE48;}
	.st45{fill:#EFD557;}
	.st46{fill:#DEBE4D;}
	.st47{fill:#DE9D3E;}
	.st48{fill:#C29734;}
	.st49{fill:#B39336;}
	.st50{fill:#5E3A19;}
	.st51{fill:#EDD258;}
	.st52{fill:#E1C04E;}
	.st53{fill:#E9C05B;}
	.st54{fill:#A0621A;}
	.st55{fill:#EFD24E;}
	.st56{fill:#F6EE79;}
	.st57{fill:#F3E65F;}
	.st58{fill:#FDFC7A;}
	.st59{fill:#77471D;}
	.st60{fill:#945A1E;}
	.st61{fill:#B26D18;}
	.st62{fill:#A1611B;}
	.st63{fill:#8E551D;}
	.st64{fill:#9F601B;}
	.st65{fill:#9E601C;}
	.st66{fill:#70391B;}
	.st67{fill:#EBD451;}
	.st68{fill:#EFE267;}
	.st69{fill:#E4CF56;}
	.st70{fill:#EBD657;}
	.st71{fill:#A27828;}
	.st72{fill:#F1EE67;}
	.st73{fill:#D68B2D;}
	.st74{fill:#F3E767;}
	.st75{fill:#5298B5;}
	.st76{fill:#E5CD4E;}
	.st77{fill:#CFA037;}
	.st78{fill:#6B3216;}
	.st79{fill:#522813;}
	.st80{fill:#AB8730;}
	.st81{fill:#D8B945;}
	.st82{fill:#EFEA70;}
	.st83{fill:#F3DC61;}
	.st84{fill:#ECDF7A;}
	.st85{fill:#BF761A;}
	.st86{fill:#CEE4ED;}
	.st87{fill:#4485A0;}
	.st88{fill:#8BB4CF;}
	.st89{fill:#94BDDA;}
	.st90{fill:#B9873D;}
	.st91{fill:#E4B147;}
	.st92{fill:#E7B550;}
	.st93{fill:#92601E;}
	.st94{fill:#A65419;}
	.st95{fill:#C79241;}
	.st96{fill:#E4B156;}
	.st97{fill:#D4843E;}
	.st98{fill:#D69F48;}
	.st99{fill:#C59242;}
	.st100{fill:#C89241;}
	.st101{fill:#DA9645;}
	.st102{fill:#EEE96C;}
	.st103{fill:#DBA249;}
	.st104{fill:#EECB5E;}
	.st105{fill:#F0DE55;}
	.st106{fill:#C39C38;}
	.st107{fill:#EBC45A;}
	.st108{fill:#DEB03E;}
	.st109{fill:#874F1C;}
	.st110{fill:#E0A849;}
	.st111{fill:#E4B24B;}
	.st112{fill:#E3AE3A;}
	.st113{fill:#4A260F;}
</style>
<g>
	<path class="st0" d="M112.05,100.19c-13.75-0.23-29.07-1.03-44.02-4.82c-5.54-1.41-10.7-4.03-15.85-6.53
		c-0.86-0.42-1.68-0.82-2.61-1.1c-10.26-3.06-20.5-6.18-30.06-11.15c-3.78-1.97-7.04-4.51-9.97-7.56C4.68,63.98,4.06,56,11.97,51.56
		c0.94-0.53,1.78-1.3,2.78-1.63c2.35-0.79,3.58-2,3.64-4.76c0.06-3.04,2.71-4.66,4.88-6.31c10.08-7.68,21.22-13.51,33.04-17.94
		c7.39-2.77,14.66-6.21,22.47-7.44c7.28-1.14,13.81-4.35,20.82-6.19c4.61-1.21,8.39,0.35,12.51,1.43c3.5,0.92,6.56,2.94,9.49,4.64
		c6.6,3.84,13.96,4.01,20.93,5.84c11.61,3.04,23.04,6.52,34,11.42c1.93,0.86,3.36,0.97,5.26-0.05c7.9-4.24,15.68-8.75,24.19-11.77
		c3.46-1.23,6.99-1.64,10.61-1.4c3.86,0.26,6.14,2.12,6.54,5.84c0.21,1.92,1.37,3.03,2.44,4.22c2.04,2.27,3.2,4.77,2.82,7.84
		c-0.34,2.68,0.45,4.89,2.34,6.82c2.92,2.98,3.52,6.42,1.7,10.22c-1.3,2.71-1,5.48,0.25,7.99c1.49,2.99,1.49,5.61-1.2,7.69
		c-2.63,2.03-5.93,2.34-8.75,0.96c-4.26-2.08-8.85-2.83-13.27-4.23c-0.94-0.3-1.62-0.36-1.87,0.79
		c-1.75,8.08-8.67,10.93-14.79,14.54c-3.32,1.96-6.96,3.3-10.72,4.09c-5.66,1.18-10.49,3.12-14.88,7.5
		c-3.67,3.66-9.62,4.52-14.9,5.58C139.54,99.81,126.57,99.69,112.05,100.19z"/>
	<path class="st1" d="M201.59,67.71c-3.24,4.78-8.42,6.91-13.26,9.36c-4.83,2.44-10.09,3.82-15.44,4.65
		c-2.85,0.44-5.26,1.47-7.19,3.63c-4.32,4.82-9.98,7.01-16.17,7.81c-25.81,3.31-51.6,4.02-77.23-1.61c-2.1-0.46-4.34-0.92-6.12-2.03
		c-9.94-6.17-21.59-7.53-32.25-11.65c-7.39-2.85-14.9-5.42-20.6-11.34c-4.11-4.27-3.8-8.22,1.29-11.19c2.88-1.68,6.1-2.76,9.17-4.12
		c1.43,0.54,1.92,1.58,1.64,3.03c-0.77,1.23-2.11,1.5-3.34,1.92c-1.59,0.55-3.1,1.26-4.51,2.19c-3.9,2.58-3.96,4.64-0.17,7.35
		c7.94,5.68,17.02,8.63,26.38,10.89c4.93,1.48,10,2.18,15.1,2.74c13.62,2.3,27.36,2.74,41.13,2.39c4.77-0.12,9.56,0.64,14.31-0.33
		c1.52-0.31,3.06-0.38,4.6-0.32c11.14,0.32,22.18-0.61,33.16-2.4c13.43-2.25,26.94-4.18,39.78-9.05c1.34-0.51,2.73-0.89,4-1.57
		c3.92-2.09,4.09-4.38,0.53-7.22c-1.72-1.31-4.3-1.59-5.01-4.14c0.14-0.33,0.32-0.71,0.68-0.75c5.43-0.59,10.9,5.52,9.6,10.72
		C201.58,67.02,201.52,67.36,201.59,67.71z"/>
	<path class="st2" d="M25.18,54.12c-0.47-0.97-0.94-1.94-1.41-2.91c-0.26-1.42-0.51-2.85-0.77-4.28c1.88-3.46,5.35-5.14,8.35-7.32
		c0.71-0.52,1.58-0.56,2.01,0.52c-1.1,2.46-3.61,3.57-5.3,5.48c-1.13,1.27-2.25,2.46-1.3,4.32c1.16,3.07,3.32,5.11,6.14,6.76
		c8.12,4.74,17.12,6.8,26.1,8.96c4.15,0.94,8.4,1.34,12.56,2.3c0.93,0.21,1.98,0.59,1.88-1.06c-0.32-2.21,0.89-3.96,1.7-5.83
		c0.23-2.46-1.85-2.85-3.37-3.52c-3.47-1.53-5.86-3.55-5.08-7.83c0.27-1.49-0.53-2.72-1.8-3.63c-1.15-0.83-2.43-1.5-3.42-2.55
		c-0.87-1.03-1.12-2.23-0.94-3.54c0.66-2.72,3.62-3.99,4.25-6.73c1.11-1.86-1.44-2.98-0.95-4.71c0.23-0.52,0.65-0.8,1.19-0.92
		c0.58-0.05,1.1,0.07,1.58,0.4c2.29,2.3,2.46,4.92,1.18,7.76c-0.72,1.8-2.94,2.95-3.07,4.68c-0.15,2.06,2.87,2.09,3.86,3.74
		c0.49,0.82,1.03,1.6,1.44,2.47c0.01,4.61,2.12,7.65,6.53,9.24c1.31,0.47,2.23,1.76,2.66,3.21c0.45,1.85-0.12,3.48-0.99,5.09
		c-0.87,1.6-0.99,3.16,0.64,4.44c7.32,1.27,14.65,2.04,22.05,1.01c1.22-0.19,1.55-0.96,1.22-2.04c-0.32-1.04-0.6-2.08,0.01-3.06
		c1.39-2.23-0.03-2.89-1.83-3.36c-2.49-0.83-4.9-1.84-7.31-2.86c-1.05-0.45-2.35-0.71-2.53-2.2c0.17-0.88,0.82-1.18,1.6-1.32
		c5.67,0.87,10.82,3.46,16.3,5c4.74,1.34,4.7,1.5,7.79-2.52c0.51-0.67,1.04-1.3,1.95-1.43c1.34,0.15,1.93,0.99,2.07,2.24
		c-1.51,5.58-4.22,7.47-9.55,6.67c-3.75-0.56-4.19-0.08-3.7,4.01c3.35,1.54,6.74,0.09,10.05-0.09c5.33-0.3,10.61-1.44,15.91-2.24
		c2.95,0.26,4.04-1.73,4.84-4.05c2.29-2.72,2.82-0.18,3.73,1.24c0.59,1.08,1.62,1.05,2.52,0.78c3.79-1.15,7.84-1.04,11.59-2.4
		c2.2-0.56,4.33-1.47,6.67-1.43c1.1,0.24,1.81,0.78,1.53,2.05c-1.72,2.12-4.35,2.12-6.66,2.82c-1.68,0.51-3.41,0.88-5.05,1.53
		c-5.89,1.46-11.76,3.04-17.79,3.87c-1.47,0.2-2.84,0.35-2.92,2.35c-0.03,0.85-0.78,1.49-1.55,1.85c-5.07,2.35-10.1,4.89-15.91,4.85
		c-2.58-0.65-5.35-0.19-7.84-1.35c-1.81-0.66-3.6-1.4-5.34-2.23c-5.4-3.34-11.51-2.81-17.44-3.21c-1.79-0.12-3.6,0.01-5.4,0
		c-5.3-0.07-10.44-1.2-15.56-2.41c-7.56-1.78-15.18-3.4-22.37-6.46c-1.8-1.05-3.8-1.69-5.61-2.7c-1.54-0.66-2.87-1.69-4.36-2.43
		C28.08,57.72,26.21,56.33,25.18,54.12z"/>
	<path class="st3" d="M65.08,28.01c-0.31,0.26-0.61,0.53-0.92,0.79c-6.38-1.56-11.3,2.76-16.93,4.24c-1.07-0.51-2.91,0.87-3.3-1.33
		c11.67-6.03,23.64-11.28,36.82-12.93c4.3-0.54,7.75-2.91,11.62-4.36c6.11-2.29,12.25-5.08,18.65-0.73
		c-0.23,0.32-0.54,0.54-0.91,0.66c-6.05-0.78-11.63,1.53-17.4,2.61c-0.45,0.22,0.14,0.85-0.06,0.42c-0.04-0.09,0.03-0.12,0.14-0.2
		c1.03-0.79,2.26-0.52,3.41-0.66c5.01,1.41,10.22,1.09,15.31,1.84c2.13,0.32,4.25,0.65,6.36,1.1c1.78,0.62,3.77,0.54,5.41,1.58
		c0.99,0.62,2.28,1.27,0.62,2.57c-3.42,0.51-6.6-1.57-10.04-0.94c-1.2,0.05-2.39-0.04-3.57-0.27c-1.86-0.66-3.79-0.41-5.69-0.46
		c-3.35,0.35-6.83-0.9-10.07,0.8c-0.61,0.44-1.27,0.78-2.02,0.89c-5.44-1.78-10.93-2.11-16.48-0.52c-4.58,0.66-8.85,2.52-13.34,3.51
		C63.93,26.34,64.78,26.71,65.08,28.01z"/>
	<path class="st4" d="M206.64,23.78c2.07-1.21,4.3-1.96,6.7-2.07c3.1-0.15,5.9,0.16,5.59,4.41c-0.03,0.34,0.04,0.83,0.26,1.01
		c4.36,3.45,4.98,8.14,5.11,13.33c0.05,1.92,2.21,3.79,3.41,5.69c-2.45,1.73-3.08-1.39-4.74-1.77c-0.86-0.35-1.4-1.33-2.49-1.21
		c-1.7,0.21-3.4,0.36-5.02,0.93c-4.98,1.27-10.17,0.91-15.16,2.05c-1.86,0.28-3.74,0.43-5.59,0.08c-1.29-0.24-2.34-0.77-1.26-2.35
		c0.23-0.32,0.51-0.59,0.83-0.82c3.03-0.9,6.22-1.07,9.26-1.97c3.97-0.29,7.91-0.75,11.81-1.5c1.48-0.24,3.02-0.29,4.27-1.29
		c1.2-4.13,0.62-5.72-2.76-7.5c-2.22,0.67-4.38,1.47-6.52,2.33c-1.14,0.5-2.31,0.88-3.58,0.78c-1.45-0.68-3.65,0.95-4.54-1.46
		c2.43-2.64,6.16-2.21,9.02-3.8c1.4-0.78,3.79-0.5,3.62-3.1c-2.2-1.19-4.21,0.46-6.32,0.4C207.1,25.91,206.25,25.38,206.64,23.78z"
		/>
	<path class="st5" d="M163.49,62.69c-0.02-0.99-0.62-1.4-1.53-1.47c-0.16-0.31-0.19-0.63-0.07-0.97c0.34-0.65,0.64-1.39,0.11-1.98
		c-2.6-2.85-1.73-6.09-1.17-9.32c2.05-1.73,2.69,0.33,3.72,1.38c0.51,2.46,1.2,4.83,3.1,6.64c3.77,0.59,6.48-1.85,9.41-3.44
		c2.88-1.56,5.57-3.36,9.07-2.42c1.4,0.28,2.78,0.65,4.22,0.6c3.91,0.65,7.72,1.68,11.46,2.98c1.1,0.38,2.37,0.61,2.88,1.91
		c-0.41,1.17-1.32,1.24-2.34,1.09c-1.27-0.23-2.55-0.47-3.82-0.7c-0.53,0.38-1.16,0.47-1.69,0.2c-2.96-1.49-6.13-1.6-9.33-1.59
		c-3.45-1.11-6.55-0.58-9.37,1.78c-1.66,1.39-3.76,2.04-5.69,2.97c-1.76,0.83-3.53,1.62-5.37,2.24
		C165.89,62.86,164.71,63.64,163.49,62.69z"/>
	<path class="st6" d="M123.7,23.22c1.04-1.15-0.13-1.17-0.75-1.54c-1.49-0.88-3.43-0.22-4.8-1.46c-2.67-1.33-6.35-0.96-7.64-4.59
		c-0.31-0.6-0.71-1.18-0.27-1.88c0.26-0.02,0.53-0.04,0.79-0.06c3.27,0.9,6.41,2.62,9.08,4.26c4.98,3.06,10.41,3.07,15.62,4.41
		c5.99,1.54,12.1,2.63,17.86,4.98c-0.93,1.84-2.85,0.81-4.2,1.44c-5.66-0.58-10.99-2.69-16.58-3.57c-1.4-0.22-2.75-0.71-4.18-0.26
		c-0.64,0.25-1.26,0.55-1.95,0.64C125.28,25.33,124.05,24.83,123.7,23.22z"/>
	<path class="st7" d="M202.36,57.69c0.75-0.26,1.51-0.51,2.26-0.77c2.25-1.04,4.19,0.4,6.26,0.76c3.09,0.76,6.16,1.58,9.22,2.45
		c3.92,1.11,3.92,1.12,3.09-2.88c-0.06-0.34-0.08-0.68-0.09-1.03c-0.02-0.52,0.01-1.03,0.07-1.55c0.26-2.61,1.96-5.06,0.84-7.82
		c-0.28-0.93-1.15-1.7-0.78-2.8c2.18-0.77,2.15,3.17,4.48,2.09c1.59,0.93,1.52,2.25,0.89,3.72c-1.63,3.87-1.94,7.73-0.39,11.78
		c0.82,2.13,0.7,3.77-2.58,2.76C217.91,62.02,209.88,60.74,202.36,57.69z"/>
	<path class="st8" d="M149.81,28.17c0.98-1.55,2.72,0.3,3.79-0.84c0.19,0.22,0.37,0.45,0.56,0.67c1.79,1.09,3.98,1.55,5.3,3.36
		c0.54,0.63,1.14,1.21,1.65,1.86c1.42,2.42,2.17,4.93,1.12,7.71c-0.66,1.73-0.06,3.21,0.95,4.6c0.75,1.31,1.78,2.52,1.51,4.2
		c-0.12,0.33-0.34,0.57-0.66,0.72c-1.04-0.18-1.19-2.29-2.77-1.28c-4.72-2.73-5.45-4.59-3.65-9.36c1.18-3.13-0.8-7.05-4.71-9.41
		C151.81,29.75,150.33,29.61,149.81,28.17z"/>
	<path class="st9" d="M206.64,23.78c0.7,0.3,0.19,1.84,1.52,1.5c-1.39,2.98-4.8,2.56-7.01,4.16c-6.79,2.92-12.97,7.17-20.14,9.28
		c-0.96,0.01-1.79-0.31-2.47-1.01c-0.22-0.35-0.18-0.68,0.1-0.98c5.44-1.77,10.22-4.9,15.35-7.32
		C198.17,27.43,202.12,24.96,206.64,23.78z"/>
	<path class="st10" d="M178.65,36.73c0.01,0.19,0.03,0.38,0.04,0.57c-0.84,1.27-2.09,1.05-3.21,0.69
		c-5.53-1.81-11.12-3.48-16.29-6.22c-1.66-1.28-3.81-1.89-5.03-3.77C162.96,29.13,170.69,33.24,178.65,36.73z"/>
	<path class="st11" d="M43.95,31.7c0.65,1.49,2.24-0.66,2.91,0.75c0.29,1.47-0.97,1.76-1.82,2.19c-2.63,1.32-5.12,2.87-7.71,4.27
		c-1.41,0.37-2.42,1.99-4.16,1.33c-3.25-0.67-4.47,2.44-6.69,3.68c-1.31,0.73-2.32,1.99-3.47,3.01c-1.29-1.8,0.62-2.34,1.41-2.98
		C30.4,39.06,36.91,34.94,43.95,31.7z"/>
	<path class="st12" d="M187.12,54.67c4.01-0.25,7.8,0.62,11.42,2.32c4.84,3.69,5.53,6.62,3.05,10.72c-1.06-0.9,0.02-1.76,0.08-2.62
		c0.18-2.59-0.1-4.75-3.2-5.5c-2.39-0.58-3.9-3.51-6.87-2.68C189.59,57.2,187.84,56.97,187.12,54.67z"/>
	<path class="st13" d="M196.58,59.96c1.92,1,4.05,1.96,3.77,4.61c-0.27,2.61-2.4,3.77-4.51,4.61c-10.45,4.17-21.31,6.81-32.4,8.59
		c-3.52,0.57-7.06,1.05-10.59,1.57c-2.54,0.57-2.5-1.16-2.53-2.83c0.59-0.88,1.55-1.14,2.47-1.46c5.84-1.06,11.78-1.56,17.53-3.16
		c3.2-0.89,6.01-2.27,7.65-5.34c0.24-0.27,0.52-0.49,0.82-0.68c2.02-2.51,4.68-3.34,7.85-3.48c2.72-0.12,5.45-0.7,7.91-2.05
		C195.19,59.96,195.92,60.13,196.58,59.96z"/>
	<path class="st14" d="M105.99,77.73c2.65,0.48,5.3,0.95,7.95,1.43c-2.16,1.56-4.75,1.84-7.44,2.6c2.89-0.34,5.69-1.58,8.2,0.51
		c-5.34,0.97-10.73,0.45-16.1,0.63c-12.72,0.41-25.37-0.22-37.96-2.14c-0.81-0.12-1.59-0.43-2.39-0.64
		c1.34-3.31,5.01-2.72,7.34-4.39c9.43,0.86,18.9,0.89,28.34,1.47C97.95,77.43,102.03,76.28,105.99,77.73z"/>
	<path class="st15" d="M96.43,87.32c10.17-0.04,20.34-0.27,30.5-0.05c10.11,0.22,19.94-2.03,29.94-2.76
		c0.82-0.06,1.64-0.01,3.24-0.01c-3.37,3.66-7.19,5.27-11.26,5.44c-16.74,0.71-33.46,2.36-50.25,1.44c0.78-2.35,2.78-2.55,4.77-2.78
		C101.07,88.23,98.29,90.19,96.43,87.32z"/>
	<path class="st16" d="M25.18,54.12c1.69,1.45,3.38,2.9,5.07,4.35c0.08,1.07-0.75,1.07-1.42,1.12c-1.58,0.13-2.8,0.73-3.08,2.41
		c-0.27,1.56,0.46,2.82,1.65,3.73c3.98,3.06,8.08,5.77,13.25,6.61c2.71,0.44,5.79,0.29,7.83,2.79c-1.09,2.47-3.48,1.7-5.38,2.15
		c-9.6-2.14-18.77-5.32-26.84-11.17c-3.8-2.75-3.73-5.49,0.13-8.12C19.09,56.15,22.19,55.27,25.18,54.12z"/>
	<path class="st17" d="M114.69,82.27c-2.92,0-5.84,0-9.38,0c3.02-2.06,5.58-3.29,8.63-3.11c5.77-0.16,10.74-2.94,15.92-4.98
		c2.48-0.97,0.55-2.15-0.15-3.34c7.5-1.57,14.89-3.12,22.28-4.67c0.81-0.27,1.49-0.31,1.57,0.82c-2.76,2.16-6.24,2.76-9.3,4.27
		c-5.51,2.32-10.84,5.07-16.4,7.29c-2.92,1.4-5.75,3.03-9.02,3.54C117.47,82.15,116.08,82.21,114.69,82.27z"/>
	<path class="st18" d="M118.85,82.09c2.89-1.42,5.77-2.83,8.66-4.25c4.87-0.21,9.63-1.21,14.43-1.99c2.86-0.47,5.85-1.28,8.61,0.55
		c0.75,1,0.42,2.83,2.3,2.95c-9.3,2.25-18.77,2.74-28.28,2.85C122.66,82.21,120.76,82.13,118.85,82.09z"/>
	<path class="st19" d="M43.1,77.28c1.44-1.49,3.8-0.84,5.26-2.28c1.21-1.92,3.18-1.65,5.02-1.74c3.82,1.06,8.05,0.63,11.46,3.17
		c-1.49,2.49-4.94,1.47-6.59,3.67C53.05,79.94,47.99,79.08,43.1,77.28z"/>
	<path class="st20" d="M87.33,91.37c-6.35-1.6-12.92-2.37-19-5.13c8.26,0.75,16.55-0.34,24.73,1.07
		C92.06,89.96,89.1,89.83,87.33,91.37z"/>
	<path class="st21" d="M196.58,59.96c-0.33,0.53-0.85,0.6-1.4,0.59c-6.7-3.52-13.15-1.07-19.63,0.85c-1.42,0.01-2.82-0.03-3.51-1.6
		c2.93-1.69,5.92-3.22,8.65-5.27c1.93-1.45,4.29-0.41,6.43,0.16c1.49,0.74,2.98,1.49,4.47,2.24
		C193.26,57.93,194.92,58.94,196.58,59.96z"/>
	<path class="st22" d="M87.33,91.37c1.04-2.57,4.1-2.3,5.72-4.06c1.13,0,2.25,0.01,3.38,0.01c2.54,1.22,5.36,0.07,8.34,0.95
		c-2.26,1.14-4.22,2.13-6.18,3.11C94.84,91.38,91.08,91.37,87.33,91.37z"/>
	<path class="st23" d="M58.96,66.41c-9.99-1.91-19.69-4.61-28.43-10.07c-2.47-1.54-3.91-3.75-4.61-6.52
		c2.26-2.24,3.84-5.39,7.56-5.69c10.1,3.44,19.94,7.63,30.27,10.4c1.27,0.34,2.55,0.67,3.84,0.94c1.66,0.83,3.29,1.72,5.05,2.32
		c1.76,0.6,3.06,1.64,3.69,3.43c-0.93,1.89-2.54,3.52-2.25,5.87c-3.6,2-7.05-0.37-10.59-0.41C62.01,66.66,60.49,66.26,58.96,66.41z"
		/>
	<path class="st24" d="M66.99,36.02c0.94-2.71,1.11-5.33-0.86-7.71c0.55-1.77,2.1-2.1,3.59-2.46c3.45-0.82,6.84-1.85,10.28-2.72
		c3.96-0.98,7.9-1.81,11.69,0.64c1.08,0.7,2.18,1.65,1.84,2.8c-1.02,3.45,0.69,6.14,2.03,8.98c-0.91,1.69-0.53,3.69-1.31,5.41
		c-2,1.69-4.12,0.77-6.09,0.09c-6.13-2.1-12.38-3.36-18.89-3.23C68.21,37.84,66.35,38.39,66.99,36.02z"/>
	<path class="st25" d="M118.07,56.17c-4.45,6.32-4.45,6.32-11.94,3.84c-4.62-1.53-9.25-3.04-13.88-4.55
		c-2.48,0.07-4.77-1.2-7.26-1.07c-2.24-2-1.19-3.89,0.21-5.76c0.59-0.69,1.19-1.35,2.17-1.44c3.07-0.06,6.05-1.28,9.17-0.69
		c4.49,1.8,8.99,3.57,13.99,2.64c1.2-0.22,2.37-0.34,3.35,0.62c0.55,0.87,1.42,1.04,2.35,1.29
		C119.7,51.97,120.05,53.03,118.07,56.17z"/>
	<path class="st26" d="M87.14,47.56c-0.46,0.51-0.92,1.02-1.38,1.53c-5.01-2.69-10.21-3.78-15.78-1.93
		c-0.19,0.06-0.43-0.15-0.6-0.33c-1.15-1.51-2.08-3.21-4-4c-2.76-1.13-2.67-2.59-0.48-4.37c0.82-0.66,1.4-1.62,2.09-2.45
		c0.11,0.45,0.17,1.08,0.76,1.01c7.85-1.02,15.18,1.27,22.49,3.56c1.46,0.46,2.74,0.66,4.06-0.17c1.61-0.02,2.65,0.76,3.17,2.27
		c-0.83,1.89-3.27,1.69-4.31,3.31C91.3,47.06,89.2,47.25,87.14,47.56z"/>
	<path class="st27" d="M100.8,60.64c2.21,0.67,5.52,0.81,1.97,4.21c-0.72,0.69-0.48,1.49,0.07,2.25c0.92,1.3,0.41,2.44-0.52,3.49
		c-3.21-1.35-6.53-0.06-9.81-0.43c-4.93-0.55-9.94-0.22-14.89-0.87c-1.54-1.9-1.75-3.85-0.08-5.78c1.13-1.31,0.99-2.85,1-4.39
		c6.41-0.42,12.75,0.49,19.1,1.15C98.69,60.38,99.73,60.7,100.8,60.64z"/>
	<path class="st28" d="M100.8,60.64c-1.6,1.63-3.44,0.29-5.06,0.19c-5.75-0.35-11.58-0.11-17.2-1.71c-1.08-2.15-3.04-3.24-5.13-4.07
		c-2.54-1.01-4.97-1.9-3.52-5.52c0.29-0.72-0.32-1.79-0.51-2.7c5.27-2.67,13.43-1.54,16.38,2.25c-1.13,1.53-1.88,3.12-0.74,4.99
		c2.18,0.03,4.13,0.64,5.67,2.26C94.06,57.77,97.43,59.21,100.8,60.64z"/>
	<path class="st29" d="M64.84,76.44c-3.82-0.76-7.64-1.53-11.46-2.29c-7.14-0.62-13.48-3.39-19.41-7.23
		c-1.33-0.86-2.32-2.07-2.15-3.83c0.16-1.6,1.25-2.17,2.68-2.31c1.72,0.82,3.45,1.64,5.17,2.46c-0.22,0.81-1.22,0.69-1.75,1.64
		c6.7,2.59,13.39,4.98,20.35,6.64c5.58,0.74,11.16,1.46,16.76,1.99c0.8,0.25,1.6,0.43,2.45,0.38c8.11-0.51,16.08,0.62,24.04,1.96
		c1.49,0.62,2.99,1.25,4.48,1.87C92.24,78.51,78.52,78.13,64.84,76.44z"/>
	<path class="st30" d="M105.82,69.09c-0.12-0.82-0.63-1.88-0.29-2.4c0.87-1.33-0.04-4.41,3.46-3.39c6.31,1.84,7.53,1.17,10.63-4.85
		c0.3-0.29,0.65-0.37,1.04-0.25c2.96,1.21,5.91,0.32,8.88-0.01c1.3-0.15,2.61-0.45,3.94-0.21c0.72,0.24,1.19,0.76,1.61,1.36
		c2.77,4,2.16,5.7-2.5,7.09c-1.27,0.38-2.55,0.6-3.87,0.62c-6.46,1.44-13.04,1.97-19.58,2.77
		C107.99,69.98,106.74,70.13,105.82,69.09z"/>
	<path class="st31" d="M120.25,58.34c-0.21,0.03-0.42,0.07-0.63,0.12c-0.04-1.08-0.54-1.86-1.55-2.29c0.72-2.62,0.8-4.74-2.97-4.36
		c-0.69,0.07-1.82,0.04-1.27-1.33c0.26-0.25,0.55-0.44,0.86-0.63c0.92-0.57,2.79-0.14,2.61-1.83c-0.19-1.76-1.91-1.47-3.14-1.54
		c-4.42-0.25-8.75,0.63-13.12,1.06c-1.55,0.15-3.08,0.43-4.45-0.58c-3.16-0.06-6.2,1.76-9.43,0.6c1.65-1.48,4-1.05,5.8-2.12
		c1.56-1.52,3.85-1.12,5.59-2.11c-0.11-1.63-1.65-1.85-2.61-2.56c-2.04-1.5-2.42-3.01-0.43-4.81c0.35-0.73,0.28-1.44-0.33-1.96
		c-2.36-2.04-3.22-4.34-1.41-7.19c0.92-1.46-1.05-2.29-0.84-3.61c0.3-0.67,0.9-0.8,1.55-0.85c0.5-0.41,1.04-0.42,1.62-0.21
		c1.12,0.64,2.09,1.71,1.83,2.86c-0.75,3.35,1.33,6.32,1.28,9.25c-0.06,3.9,2.65,5.32,4.38,7.67c0.8,1.09,2.11,1,3.32,0.77
		c2.37-0.46,4.76-0.39,7.15-0.39c6.73,0.01,7.12,0.33,8.55,6.94C122.68,52.51,122.95,55.81,120.25,58.34z"/>
	<path class="st32" d="M162.1,60.64c-0.03,0.2-0.08,0.39-0.13,0.58c-2.11,0.5-4.21,1-6.32,1.5c-3.09,0.04-6.11,0.68-9.13,1.19
		c-1.75,0.3-3.49,0.87-5.2-0.14c-0.76-2.04-2.08-3.94-1.73-6.29c0.63-0.99,1.64-1.3,2.71-1.48c4.67-0.79,9.34-1.58,14.01-2.34
		c2.12-0.35,3.45,0.29,3.95,2.43C161.1,57.51,162.12,58.86,162.1,60.64z"/>
	<path class="st33" d="M34.51,60.78c-2.77,2.24-2.85,3.41-0.04,5.4c5.7,4.04,12.43,5.74,18.92,7.97c-1.74-0.11-3.39,0.36-5.03,0.86
		c-4.47-1.6-9.29-1.74-13.77-3.47c-3.22-1.24-5.41-3.8-8.29-5.45c-1.67-0.96-2.25-3.1-1.5-5.12c0.96-2.58,3.3-2.41,5.46-2.49
		C31.67,59.24,33.09,60.01,34.51,60.78z"/>
	<path class="st34" d="M153.4,67.02c-0.47-0.28-0.93-0.56-1.4-0.85c3.83-1.16,7.66-2.32,11.5-3.48c1.18-0.27,2.37-0.53,3.55-0.8
		c2.49-0.61,4.91-0.14,7.29,0.57c1.43,0.43,2.59,1.16,2.73,2.85c-0.83,4-4.08,4.68-7.33,5.36c-4.05-1.11-8.19-1.75-12.36-2.23
		C155.98,68.29,154.47,68.18,153.4,67.02z"/>
	<path class="st35" d="M57.45,72.18c-6.41-1.08-18.99-5.75-21.91-8.23c1.35-0.85,2.84-0.34,4.14-0.71
		c7.22,2.98,14.9,4.42,22.35,6.62C61.19,71.98,59.26,71.96,57.45,72.18z"/>
	<path class="st36" d="M101.52,75.86c-1.92,1.04-4,0.65-5.89,0.24c-5.5-1.19-11.06-1-16.61-1.15c-1.37-0.04-2.88,0.37-4.08-0.73
		c0.03-2.03,2.17-1.11,2.94-2.1c5.9,0.24,11.81,0.37,17.7,0.79C97.83,73.06,99.72,74.5,101.52,75.86z"/>
	<path class="st37" d="M36.83,38.34c3.34-1.96,6.68-3.92,10.02-5.88c2.48-1.08,5-2.08,7.42-3.26c3.27-1.59,6.52-1.87,9.88-0.4
		c0.9,1.32,2.43,2.44,1.42,4.38c-0.78,0.38-1.32-0.09-1.86-0.53c-1.74-2.24-3.85-2.38-6.34-1.3c-3.38,1.45-6.86,2.67-10.1,4.42
		c-1.01,0.47-2.03,0.92-3,1.46c-0.98,0.48-1.86,1.13-2.81,1.67c-0.85,0.44-1.68,0.93-2.65,1.1C37.84,39.82,36.76,39.77,36.83,38.34z
		"/>
	<path class="st38" d="M139.61,57.79c1.25,1.69,1.89,3.57,1.7,5.69c0.02,0.57-0.22,0.84-0.81,0.73c-0.65-0.56,0.52-3.68-2.1-1.5
		c-1.64-2.27-4.46-3.81-4.35-7.14c1.55-2.51,0.69-4.43-1.33-6.25c-1.74-1.56-3.16-3.38-1.92-5.97c0.26-0.26,0.56-0.43,0.93-0.49
		c1.02,0.03,1.63,0.65,2.13,1.44c1.42,2.75,4.88,3.79,5.83,6.93C140.08,53.43,139.36,55.6,139.61,57.79z"/>
	<path class="st39" d="M104.5,73.48c7.25-1.5,14.52-2.28,22.55-1.58c-3.6,4.36-7.31,2.71-10.84,2.4c-0.33-0.03-3.07-0.99-0.88,1.19
		C112.17,76.91,106.82,75.91,104.5,73.48z"/>
	<path class="st40" d="M77.88,72.12c-0.42,1.48-2.2,1.06-2.94,2.1c-5.93,0.19-11.72-0.85-17.49-2.04c1.53-0.77,3.06-1.55,4.58-2.32
		C67.34,70.46,72.5,72.04,77.88,72.12z"/>
	<path class="st41" d="M36.83,38.34c0.66,0.42,1.31,0.84,1.97,1.27c-0.66,3.09-3.48,3.68-5.71,4.95c-2.87,1.11-4.16,4.36-7.17,5.27
		c-1.03-1.54-0.69-2.88,0.65-4.02c2.19-1.87,4.39-3.71,6.59-5.56C34.39,39.61,35.61,38.97,36.83,38.34z"/>
	<path class="st42" d="M80.05,23.87c-4.44,2.11-9.59,1.97-13.92,4.44c-0.35-0.1-0.7-0.2-1.06-0.3c-0.92-0.49-1.84-0.99-3.32-1.77
		c4.81-1.76,9.24-3.2,13.91-3.84C77.2,22.67,79.04,22.06,80.05,23.87z"/>
	<path class="st43" d="M77.62,69.29c0.66-0.93,1.67-0.97,2.6-0.79c6.4,1.28,12.88,0.46,19.31,0.71c1.11,0.04,2.54-0.44,2.79,1.38
		C94.03,71.4,85.77,71.45,77.62,69.29z"/>
	<path class="st44" d="M105.82,69.09c6.81,0.47,13.35-1.37,19.99-2.34c1.05-0.15,2.1-0.29,3.15-0.43c1.34,1.12,3.22-0.82,4.47,0.8
		c-6.03,1.47-12.21,1.98-18.34,2.8c-2.24,0.3-4.49,0.57-6.74,0.63C107.37,70.57,105.57,71.41,105.82,69.09z"/>
	<path class="st45" d="M133.42,67.11c-1.46-0.46-3.18,0.58-4.47-0.8c0.68-0.11,1.39-0.15,2.05-0.35c6.13-1.93,6.13-1.94,2.28-7.59
		c-0.28-0.26-0.49-0.56-0.64-0.9c-0.27-1.31-0.44-2.6,0.86-3.53c1.14-0.06,0.83,0.96,1.13,1.53c-0.45,1.48,0.33,2.37,1.42,3.22
		c1.3,1.01,2.44,2.18,2.36,4.03C138,65.61,136.95,67.76,133.42,67.11z"/>
	<path class="st46" d="M76.34,61.22c-2.23-2.77-5.97-2.93-8.62-4.97c-1.62-0.93-2.35-2.44-2.23-4.18c0.2-3.08-1.22-5.22-3.54-6.96
		c-0.23-0.3-0.35-0.64-0.38-1.02c0.02-0.39,0.18-0.71,0.46-0.97c1.19,0.78,2.48,1.45,3.56,2.36c1.47,1.24,2.82,2.66,2.16,4.88
		c-0.96,3.22,0.67,4.8,3.43,6C73.41,57.32,76.63,57.48,76.34,61.22z"/>
	<path class="st47" d="M140.5,64.21c0.27-0.24,0.54-0.48,0.81-0.73c3.48,0.06,6.86-0.74,10.28-1.25c1.39-0.21,2.84-0.7,4.07,0.48
		c-4.1,1.76-8.62,1.67-12.84,2.89C141.61,65.96,140.7,65.62,140.5,64.21z"/>
	<path class="st48" d="M58.96,66.41c2.83-1.92,5.66,0.16,8.5,0.14c2.15-0.01,4.41,0.44,6.63,0.54c0.12,0.84,2.64,2.67-0.77,2.08
		C68.52,68.34,63.75,67.34,58.96,66.41z"/>
	<path class="st49" d="M104.5,73.48c3.42,1.66,7.03,2.33,10.82,2.01c0.83,0.23,1.87-0.08,2.76,1.17c-6.23,1.21-11.52-0.54-17.08-3.1
		C102.51,72.2,103.47,73.92,104.5,73.48z"/>
	<path class="st50" d="M90.68,56.34c-1.89-0.76-3.97-1.03-5.67-2.26c2.82-1.67,4.83,0.91,7.23,1.38C91.6,55.53,91,55.68,90.68,56.34
		z"/>
	<path class="st51" d="M64.22,32.43c0.45,0.25,0.9,0.5,1.36,0.75c-0.11,3.08-3.02,4.26-4.42,6.46c-0.65,0.14-0.87-0.25-0.98-0.78
		c0-0.7,0.35-1.26,0.74-1.8C62.26,35.69,62.77,33.72,64.22,32.43z"/>
	<path class="st52" d="M60.5,38.91c0.22,0.24,0.44,0.49,0.66,0.73c-0.21,1.29,0.07,2.45,0.87,3.49c-0.02,0.29-0.03,0.58-0.05,0.87
		C58.63,42.88,58.15,41.23,60.5,38.91z"/>
	<path class="st53" d="M110.24,21.62c1.2,0.04,2.41,0.07,3.61,0.11c1.21,1.23,3.01,0.19,4.3,1.11c1.17,1.62,0.19,2.65-1.04,3.53
		c-1.99,1.43-1.63,3.01-0.25,4.52c3.62,3.97,7.54,7.5,13.02,8.7c0.76,1.07,1.22,2.22,0.88,3.57c-0.13,0.75-0.4,1.41-1.12,1.79
		c-1.65,0.3-3.04-0.45-4.42-1.14c-6.09-3.04-12.13-6.11-17.61-10.24c-5.81-4.39-5.91-7.1,0.05-11.47
		C108.47,21.64,109.37,21.7,110.24,21.62z"/>
	<path class="st54" d="M110.92,15.15c1.6,2.08,3.13,4.21,6.3,3.77c0.53-0.07,1.54,0.22,0.93,1.31c-7.4-1.35-15.02-0.96-22.34-2.87
		c-0.04-0.52,0.13-1.02,0.61-1.14C101.18,14.95,105.9,13.03,110.92,15.15z"/>
	<path class="st55" d="M80.05,23.87c-1.43-0.58-3.12-0.41-4.39-1.47c5.84-1.8,11.61-1.91,17.24,0.81c1.79,1.2,2.85,2.57,1.14,4.64
		c-1.41,1.7-0.61,3,0.68,4.36c0.98,1.03,2.66,2.05,1.06,3.86c-0.22,0.3-0.43,0.32-0.65,0c-1.87-2.96-3.65-5.67-2.51-9.73
		c0.49-1.77-2.53-3.01-4.79-3.28C85.17,22.72,82.66,23.76,80.05,23.87z"/>
	<path class="st56" d="M118.12,23.18c-1.39-0.58-3.55,1.09-4.27-1.45c3.42-0.4,6.63,0.58,9.85,1.49c1.04,0.64,2.08,1.29,3.12,1.93
		c2.68,0.41,3.28,2.06,1.77,4c-2.32,2.98-1.34,5.09,0.97,7.42c1.77,1.78,4.04,3.63,2.24,6.7c-0.16,0.05-0.32,0.08-0.49,0.09
		c-0.34,0.37-0.64,0.34-0.9-0.09c-0.27-1.19-0.55-2.38-0.82-3.58c-1.91-1.01-3.43-2.49-4.78-4.14c-1.48-1.81-2.08-3.71-0.48-5.8
		c1.65-2.15,0.68-3.42-1.44-4.36C121.29,24.67,119.38,24.63,118.12,23.18z"/>
	<path class="st57" d="M110.92,15.15c-5.18-0.21-10.25,0.25-15.11,2.2c-1.3,0-2.59,0-3.94,0c2.82-2.62,12.57-4.52,18.38-3.61
		C110.47,14.21,110.69,14.68,110.92,15.15z"/>
	<path class="st56" d="M110.24,21.62c-0.53,0.84-1.41,0.72-2.21,0.82c-2.45,0.95-4.9,1.86-7.25-0.25c0.75-1.85,2.68-0.15,3.68-1.24
		C106.41,21.03,108.44,20.33,110.24,21.62z"/>
	<path class="st58" d="M104.46,20.95c-1.02,1.2-2.43,0.51-3.65,0.75c-1.54,1.28-3.29,1.13-5.07,0.73c-0.43-0.02-0.85-0.05-1.28-0.07
		c-0.67-0.98-0.86-1.69,0.77-1.64C98.3,20.82,101.38,20.88,104.46,20.95z"/>
	<path class="st59" d="M216.07,43.27c1.43-1.43,3.59-0.22,5.09-1.4c0.85,1.91,2.45,3.35,3.29,5.27c0.81,2.79-1.09,5.17-1.17,7.82
		c-1.71,0.67-3.18,0.01-4.63-0.83c-1.21-1.35-2.8-1.86-4.54-2.05c-2.92-0.77-5.9-1.35-8.67-2.62c-1.14-1.5-0.32-2.29,1.11-2.42
		C210.12,46.73,212.94,44.63,216.07,43.27z"/>
	<path class="st60" d="M220.44,39.17c-1.43,0.83-2.94,1.32-4.62,1.09c-1.97-0.12-3.92,0.25-5.88,0.15c-1.4,0.13-3.15,0.54-3.83-0.9
		c-0.57-1.19,0.9-2.27,1.49-3.39c0.72-1.35,2.07-2.25,2.69-3.67c2.14-0.97,4.29-1.93,6.43-2.9
		C220.15,31.91,220.86,35.32,220.44,39.17z"/>
	<path class="st61" d="M194.5,43.29c0.01,0.23-0.02,0.46-0.08,0.68c-3.39,1.52-5.9,4.17-8.55,6.65c-0.36,0.09-0.69,0.03-0.99-0.18
		c-0.91-1.22-0.56-2.76-1.05-4.09c-0.13-0.51-0.19-1.03-0.16-1.55c0.07-1.57,1.34-1.95,2.44-2.63c1.9-1.17,4.38-1.85,4.71-4.65
		c3.02-1.76,6.39-2.16,9.76-2.56c1.56,1.23,0.46,2.29-0.3,3.24c-1.4,1.75-3.14,3.15-4.96,4.45
		C195.04,42.86,194.77,43.07,194.5,43.29z"/>
	<path class="st62" d="M194.52,42.67c1.78-2.74,5.53-3.74,6.41-7.28c1.33-2.31,3.86-1.45,5.78-2.2c1.19-0.25,2.38-0.49,3.57-0.74
		c1.39,1.3-0.21,1.78-0.72,2.54c-0.98,1.45-2.01,2.87-3.18,4.52c1.33,0.11,2.37,0.19,3.4,0.27c-0.45,1.58-1.8,1.3-2.91,1.29
		c-1.67-0.02-3.28,0.23-4.87,0.71C199.48,41.83,197.15,43.55,194.52,42.67z"/>
	<path class="st63" d="M216.07,43.27c-2.4,2.72-5.48,4.16-9.03,4.45c-0.94,0.08-1.6,0.05-1.75,1.12c-1.79,1.37-3.65,0.16-5.48,0.14
		c-0.89-0.27-1.79-0.54-2.49-1.21c-0.29-2.29,2.37-1.08,2.88-2.42c2.24-1.17,4.78-1.09,7.13-1.22
		C210.27,43.96,213.15,43.45,216.07,43.27z"/>
	<path class="st64" d="M200.94,28.9c2.01-2,5.06-1.91,7.22-3.61c2.62-0.1,5.08-2.25,7.83-0.6c-0.21,1.96-1.29,2.97-3.17,3.69
		c-3.97,1.52-8.24,2.11-12.04,4.11c-0.88,0.29-1.97,0.82-2.56-0.07c-0.66-1.01,0.37-1.63,1.14-2.15
		C199.95,29.87,200.45,29.39,200.94,28.9z"/>
	<path class="st65" d="M200.21,45.36c0.08,2.09-2.18,1.05-2.85,2.14c-1.25,1.53-3.17,0.76-4.69,1.36c-0.68,0.21-1.41-0.02-2.09,0.2
		c0.79-0.11,1.67,0.13,1.67,0.9c0,1.35-1.34,1.44-2.3,1.84c-1.31,0.29-2.56-0.15-3.84-0.3c-0.4-0.18-0.52-0.48-0.34-0.88
		c0.6-2.69,5.62-6.54,8.66-6.63c0.12,0.47-1.84,1.3,0.18,1.41C196.46,45.49,198.34,45.37,200.21,45.36z"/>
	<path class="st66" d="M206.71,33.2c-1.63,1.5-4.01,1.07-5.78,2.2c-3.38,0.93-6.77,1.85-10.15,2.78c-0.95,0.87-2.14,1.03-2.66-0.14
		c-0.48-1.08,0.85-1.54,1.65-1.88c3.6-1.55,7.41-2.53,11.06-3.95c0.59-0.22,1.12-0.14,1.56,0.34
		C203.63,34.13,205.48,31.64,206.71,33.2z"/>
	<path class="st67" d="M202.4,32.54c-0.47,0.02-0.94,0.05-1.41,0.07c-0.66,0.07-1.02-0.06-0.53-0.77c3.61-1.81,7.56-2.59,11.37-3.77
		c1.89-0.59,3.38-1.5,4.16-3.38c0.59,2.05,0.06,3.31-2.17,3.98C209.97,29.82,206.2,31.24,202.4,32.54z"/>
	<path class="st68" d="M201.71,41.21c2.69-0.48,5.39-0.95,8.08-1.43c2,0.36,4.09-0.6,6.03,0.48c-4.07,1.11-8.21,1.75-12.44,1.67
		C202.67,42.03,201.75,42.65,201.71,41.21z"/>
	<path class="st69" d="M220.44,39.17c-0.19-0.14-0.55-0.31-0.53-0.41c0.65-3.67-1.29-6.43-3.19-9.21
		C221.38,31.31,222.02,35.32,220.44,39.17z"/>
	<path class="st70" d="M201.71,41.21c0.56,0.24,1.11,0.48,1.67,0.72c-2.91,0.75-5.75,2-8.87,1.36c0.03-0.2,0.03-0.41,0.01-0.61
		C196.91,42.19,199.31,41.7,201.71,41.21z"/>
	<path class="st71" d="M223.83,46.94c-0.99-1.64-2.57-2.96-2.67-5.06c0.69,0.72,1.38,1.45,2.07,2.17c0.45,0.73,0.9,1.46,1.36,2.19
		C224.42,46.57,224.33,46.98,223.83,46.94z"/>
	<path class="st72" d="M162.1,60.64c-0.76-1.23-1.51-2.46-2.27-3.69c-0.27-1.95-0.7-3.86-1.18-5.76c-0.4-1.76-1.73-2.84-2.93-4.02
		c-1.07-1.17-2.34-2.23-2.12-4.07c0.09-0.46,0.28-0.9,0.46-1.33c2.61-6.17,1.27-8.68-5.28-9.89c-5.93-1.25-11.61-3.38-17.41-5.05
		c-1.23-0.48-2.41-1.03-2.91-2.4c0.17-1.93,1.43-0.69,2.03-0.56c6.46,1.38,12.89,2.85,19.33,4.3c4.04,1.27,7.13,3.57,8.79,7.64
		c0.8,1.97,0.86,3.85-0.52,5.34c-1.65,1.79-1.29,2.96,0.33,4.44c1.11,1.02,1.91,2.38,2.85,3.59c0.02,1.31,0.35,2.72,0,3.92
		c-0.55,1.88-0.3,3.01,1.42,4.19C164.29,58.4,164.37,59.88,162.1,60.64z"/>
	<path class="st73" d="M184.47,46.11c1.14,1.27,0.39,2.84,0.69,4.24c-5.25,0.61-9.1,4.33-13.77,6.24c-1.41,0.58-2.7,1.55-4.37,1.08
		c-1.71-2.11-3.34-4.24-2.98-7.21c0,0,0.34,0.07,0.34,0.07c0.75-0.19,1.16,0.41,1.7,0.72C172.6,50.9,178.6,48.76,184.47,46.11z"/>
	<path class="st74" d="M167.02,57.66c4.99-1.47,9.03-4.81,13.71-6.9c1.49-0.66,2.86-1.19,4.42-0.42c0.19,0.13,0.39,0.21,0.61,0.26
		c0.02,0.18,0.06,0.35,0.11,0.53c0.23,0.19,0.29,0.36,0.18,0.5c-0.1,0.13-0.2,0.19-0.29,0.19c-2.74-0.51-5.05,0.39-7.28,1.96
		c-2.95,2.08-6.35,3.31-9.68,4.63C168.05,58.72,166.87,59.67,167.02,57.66z"/>
	<path class="st75" d="M176.58,65.59c-0.05-1.49-1.02-1.93-2.31-2.17c-2.42-0.45-4.82-1.01-7.23-1.53c1.67-0.7,3.33-1.4,5-2.1
		c1.13,0.64,2.33,0.97,3.64,0.79c4.26,0.85,5.03,2.07,3.56,5.62c-0.2,0.06-0.39,0.12-0.59,0.19
		C178.15,65.65,177.42,65.47,176.58,65.59z"/>
	<path class="st76" d="M210.97,58.45c-2.12-0.51-4.23-1.02-6.35-1.53c-4.59-2.15-9.51-3.23-14.4-4.4c0.06-1.42,1.22-1.17,2.08-1.38
		c1.58-0.33,3.04,0.29,4.54,0.57c4.46,1.56,8.88,3.26,13.45,4.49c0.92,0.25,1.8,0.62,2.33,1.5
		C212.48,58.86,211.82,58.86,210.97,58.45z"/>
	<path class="st77" d="M192.4,51.81c-0.75,0.17-1.63-0.08-2.18,0.7c-1.55,0.21-2.99-0.28-4.44-0.69c0-0.24,0.04-0.47,0.11-0.69
		c1.44-0.01,2.88-0.01,4.32-0.02C191.1,50.83,192.05,50.37,192.4,51.81z"/>
	<path class="st78" d="M128.45,24.43c0.81,0.56,1.61,1.13,2.42,1.69c1.56,1.11,1.2,2.66,0.35,3.74c-1.83,2.29-0.86,3.88,0.82,5.54
		c1.53,1.51,3.04,3.06,3.42,5.33c-0.02,1.72,0.16,3.55-2.15,4.05c-0.29-0.71-0.76-1.24-1.5-1.52c0.61-2.83-1.01-4.53-2.92-6.25
		c-3.88-3.48-3.94-4.26-0.7-8.3c1.75-2.18-0.76-2.44-1.37-3.56C127.36,24.91,127.91,24.67,128.45,24.43z"/>
	<path class="st59" d="M212.36,57.75c-5.23-1.74-10.46-3.48-15.69-5.23c0.41-1.93,1.82-1.16,2.81-0.87c1.46,0.42,2.79,0.47,4.12-0.3
		c6.96,0.94,13.99,1.59,20.39,4.86c-0.02,0.27-0.04,0.54-0.06,0.81c-0.03,4.55-0.04,4.58-4.56,3.16
		C217.02,59.44,214.49,59.17,212.36,57.75z"/>
	<path class="st79" d="M223.99,56.2c-6.83-2.1-13.94-2.81-20.91-4.26c-3.26,0.66-6.16-0.92-9.21-1.53
		c-0.82-0.16-1.37-1.04-0.26-1.83c0.99-0.35,2-0.26,3.01-0.17c5.69,0.67,11.27,1.91,16.85,3.16c1.84,0.49,3.71,0.93,5.45,1.74
		c1.23,1.14,2.89,1,4.35,1.46c0.2-0.33,0.43-0.34,0.67-0.04C223.97,55.22,223.98,55.71,223.99,56.2z"/>
	<path class="st80" d="M212.36,57.75c2.07,0.52,4.26,0.79,6.2,1.63c2.86,1.24,5.06,1.81,5.38-2.37c0.08,0.35,0.12,0.7,0.24,1.03
		c0.44,1.21,1.27,2.79,0.52,3.64c-1.07,1.21-2.63-0.08-3.93-0.42c-3.28-0.87-6.54-1.87-9.8-2.81
		C211.43,58.22,211.9,57.98,212.36,57.75z"/>
	<path class="st81" d="M223.96,54.73c-0.22,0.03-0.45,0.04-0.67,0.04c-1.47-2.72,1.59-5.13,0.54-7.83c0.25-0.23,0.5-0.47,0.76-0.7
		C227.15,49.27,223.92,51.88,223.96,54.73z"/>
	<path class="st82" d="M162.81,46.12c-1.94-1.55-2.61-3.28-1.39-5.74c1.23-2.49-0.14-4.82-1.09-7.1c2.37-0.68,4.37,0.66,6.38,1.42
		c3.41,1.29,7.12,1.9,10.11,4.2c0.55,1.46,0.08,2.64-1.24,3.3C171.54,44.22,167.4,45.91,162.81,46.12z"/>
	<path class="st83" d="M162.81,46.12c1.82-1.48,4.32-1.28,6.19-2.27c2.6-1.38,6.75-0.64,7.5-4.87c1.44-0.98,2.96-0.19,4.45-0.21
		c2.57,0.98,3.25,3.01,3.06,5.51c-0.02,0.82-0.36,1.63-1.23,1.12c-1.77-1.02-3.19-0.16-4.7,0.48c-1.39-0.09-2.35,0.7-3.27,1.59
		c-0.69,0.47-1.44,0.82-2.25,0.93c-2.85,0.39-5.39,1.42-7.52,3.4c-0.22-0.43-0.44-0.86-0.66-1.28
		C163.86,49.06,163.34,47.59,162.81,46.12z"/>
	<path class="st84" d="M180.74,38.93c-1.4,1.26-2.82,0.25-4.24,0.05c-5.26-2.28-10.71-4.01-16.18-5.7c-0.94-0.08-1.04-0.8-1.14-1.52
		c4.18,0.55,7.92,2.52,11.88,3.77c2.49,0.79,4.89,1.98,7.62,1.76c0.69,0.33,1.37,0.66,2.06,0.99c0.17,0.14,0.23,0.28,0.17,0.42
		C180.85,38.86,180.8,38.93,180.74,38.93z"/>
	<path class="st85" d="M180.74,38.93c0.05-0.21,0.05-0.42,0.01-0.63c6.73-3.13,13.47-6.26,20.2-9.4c0.17,1.77-1.8,1.89-2.43,3.06
		c0.74,0.72,1.3-0.3,1.95-0.12c0.18,0.26,0.36,0.51,0.53,0.77c-3.81,2.37-8.3,3.1-12.4,5.06c0.67,0.87,1.51,0.34,2.19,0.51
		c1.44,0.17,1.22,0.83,0.39,1.52c-1.63,1.34-3.12,2.93-5.21,3.52c-0.92,0.26-1.52,0.56-1.6,1.55c-0.29,0.3-0.49,0.24-0.62-0.15
		C183.47,42.34,182.59,40.38,180.74,38.93z"/>
	<path class="st86" d="M179.25,66.19c0.74-3.09-1.04-4.59-3.56-5.62c3.75-2.26,8.2-2.05,12.26-3.26c2.43-0.73,5.02,1.62,7.23,3.24
		c-1.39,2.08-3.67,1.89-5.74,2.29C185.91,63.53,182.06,63.3,179.25,66.19z"/>
	<path class="st87" d="M176.58,65.59c0.75-0.33,0.59-1.65,1.88-1.59c0.07,0.79,0.13,1.59,0.2,2.38c-0.47,2.75-2.16,4.31-4.73,5.25
		c-6.86,2.51-13.98,3.56-21.22,4.09c-0.94,0.27-1.97,0.8-2.33-0.75c0.52-0.89,1.39-1.28,2.33-1.49c5.73-1.29,11.33-3.23,17.26-3.58
		C172.55,69.03,175.34,68.49,176.58,65.59z"/>
	<path class="st88" d="M150.57,74.96c0.49,0.89,1.42,0.55,2.15,0.77c-0.56,0.75-1.39,0.62-2.17,0.67
		c-5.4-0.54-10.57,1.01-15.82,1.78c-2.42,0.35-4.86,1.05-7.21-0.33c5.52-2.4,11.03-4.79,16.55-7.19
		C144.43,74.81,147.8,74.43,150.57,74.96z"/>
	<path class="st89" d="M150.57,74.96c-1.99,1.44-4.02,0.37-5.82-0.24c-2.12-0.72-0.12-2.74-0.69-4.07c2.94-1.66,6-3,9.33-3.63
		c5.58,0.63,11.24,0.83,16.58,2.89C163.71,72.35,157,73.12,150.57,74.96z"/>
	<path class="st90" d="M62.02,44.67c2.9,1.02,4.64,2.88,4.24,6.14c-0.25,2.04,0.54,3.74,1.46,5.44c-7.33-1.09-14.17-3.86-21.07-6.34
		c-4.57-1.64-9.26-3.03-13.56-5.35c1.43-2.2,4.11-2.95,5.71-4.95c0.76-0.44,1.53-0.89,2.29-1.33c1.38,2.46,3.59,3.71,6.26,4.25
		C52.2,43.52,56.93,45.37,62.02,44.67z"/>
	<path class="st91" d="M95.13,36.07c0.22-0.01,0.44-0.01,0.65,0c-1.89,2.01-1.45,3.32,1.05,4.46c1.44,0.65,3.64,0.97,3.24,3.48
		c-1.6,0.88-2.38,0.04-2.88-1.39c-0.96-0.73-1.93-1.47-2.89-2.2C93.64,38.78,92.98,37.16,95.13,36.07z"/>
	<path class="st92" d="M70.03,29.1c0.58,0.2,1.07,0.53,1.05,1.2c-0.02,0.65-0.4,1.12-1.1,1c-0.69-0.11-1.45-0.38-1.26-1.29
		C68.84,29.44,69.36,29.06,70.03,29.1z"/>
	<path class="st93" d="M96.57,46.96c6.01-0.45,11.96-1.71,18.03-1.54c2,0.06,4.2-0.49,4.29,2.72c0.1,3.39-2.37,2.1-4,2.36
		c-0.35,0.06-0.71-0.01-1.07-0.02c-0.97-1.12-2.19-0.87-3.31-0.46c-4.79,1.79-8.85-1.5-13.32-1.88
		C96.96,48.12,96.78,47.37,96.57,46.96z"/>
	<path class="st24" d="M97.2,42.62c0.9,0.59,1.54,1.7,2.88,1.39c-2.26,1.09-4.79,0.8-7.14,1.44C93.57,43.32,95.8,43.6,97.2,42.62z"
		/>
	<path class="st94" d="M83.4,55.63c0.7,0.08,1.29,0.44,1.36,1.24c0.07,0.82-0.51,1.27-1.26,1.38c-0.87,0.13-1.27-0.38-1.3-1.21
		C82.18,56.26,82.41,55.66,83.4,55.63z"/>
	<path class="st95" d="M133.21,57.67c0.04,0.23,0.06,0.47,0.07,0.7c-3.61,1.05-7.3,1.48-11.06,1.47c-1.1,0-1.81-0.35-1.97-1.51
		c0.97-3.03,1.62-6.12,1.52-9.32c0.34-0.19,0.65-0.14,0.95,0.1c0.37,2.64,1.9,3.75,4.51,4.37C129.58,54.05,132.9,53.91,133.21,57.67
		z"/>
	<path class="st96" d="M122.44,49.05c-0.23-0.01-0.45-0.02-0.68-0.03c-2.17-5.67-2.17-5.68-8.67-5.6c-1.55,0.02-3.11-0.01-4.66,0.12
		c-2.74,0.23-5.71,1.25-6.76-2.79c-0.16-0.61-1.24-1.08-1.99-1.43c-1.47-0.67-2.61-1.35-1.18-3.09c0.07-0.08,0.07-0.22,0.11-0.34
		c0.82-2.93-2.9-4.54-2.51-6.6c0.47-2.49,1.85-4.63-0.36-6.86c1.58-1.01,3.36-0.63,5.07-0.73c2.3,1.31,4.83,0.35,7.22,0.73
		c-5.65,5.82-5.53,5.98,1.12,11.01c6.3,4.77,13.3,8.16,20.49,11.27c1.02,1.2,0.94,2.55,0.53,3.94
		C127.72,51.18,125.01,48.68,122.44,49.05z"/>
	<path class="st97" d="M159.26,50.43c1.1,2.09,0.39,4.35,0.57,6.52c-0.6-2-1.62-2.74-3.92-2.22c-5.39,1.21-10.98,1.41-16.3,3.07
		c-3.12-1.96,0.44-4.48-0.56-6.62c-0.52-2.56,0.76-3.14,2.95-2.64c4.29,0.99,8.47,2.47,12.97,0.46
		C156.21,48.45,157.86,49.77,159.26,50.43z"/>
	<path class="st98" d="M64.22,32.43c-0.13,2.19-1.36,3.75-2.96,5.09c-1.43,1.03-3.11,1.62-4.61,2.51c-1.28,0.77-2.2,0.45-3.07-0.57
		c-2.17-2.05-3.25,0.37-4.72,1.16c-0.35,0-0.65-0.12-0.89-0.39c-0.67-1.59-0.87-3.3-1.21-4.97c3.66-2.57,7.96-3.77,12.05-5.36
		C61.13,29,63.32,29.65,64.22,32.43z"/>
	<path class="st99" d="M54.24,38.92c0.55,0.39,0.8,1.65,1.84,0.54c1.39-1.49,3.37-1.52,5.18-1.95c-0.25,0.47-0.51,0.93-0.76,1.4
		c-1.53,2.28-0.67,3.87,1.48,5.09c0.02,0.22,0.03,0.45,0.05,0.67c-1.56,1.38-3.16,1.46-5.25,0.94c-4.25-1.06-8.6-1.75-12.78-3.12
		c-2.11-0.69-3.23-1.91-2.9-4.21c0.95-0.53,1.6-1.61,2.87-1.54c1.11,1.62,2.99,2.33,4.34,3.65c0.19,0,0.38-0.01,0.57-0.01
		C51.21,41.91,52.75,40.51,54.24,38.92z"/>
	<path class="st100" d="M48.31,40.38c-1.95-0.62-4.58-0.43-4.34-3.65c0.74-0.84,1.73-1.23,2.79-1.47
		C49.09,36.42,48.07,38.59,48.31,40.38z"/>
	<path class="st101" d="M159.26,50.43c-5.62-0.53-11.42,1.75-16.89-0.91c-2.07-1-2.8-0.07-3.32,1.65c-1.2-2.77-4.74-3.44-5.74-6.39
		c1.41-1.14,1.47-2.75,1.52-4.37c2.32,0.11,4.27,1.38,6.24,2.34c4.87,2.38,10.09,3.17,15.32,4.05
		C157.64,47.77,159.03,48.64,159.26,50.43z"/>
	<path class="st102" d="M129.72,48.99c-0.03-1.43-0.05-2.85-0.08-4.28c0.26-0.48,0.51-0.97,0.77-1.45c0.3,0.03,0.6,0.06,0.9,0.09
		c-1.37,3.05,0.69,4.69,2.71,6.15c2.57,1.85,3.18,3.7,0.6,5.97c-0.55-0.32-0.62-0.86-0.65-1.42
		C132.4,52.5,130.47,51.24,129.72,48.99z"/>
	<path class="st103" d="M129.72,48.99c1.61,1.53,3.71,2.64,4.25,5.06c-1.17,1.01-0.57,2.4-0.77,3.62c-1.4-3.15-4.69-3.13-7.2-3.53
		c-3.48-0.56-3.94-2.3-3.56-5.09c0.82-0.81,1.54-1.73,2.9-0.76C126.65,49.23,128.21,49.06,129.72,48.99z"/>
	<path class="st104" d="M118.12,23.18c2.46,0.45,4.88,0.99,7.01,2.39c1.44,0.94,2.06,2.28,0.72,3.52c-3.26,3.03-1.33,5.15,0.95,7.38
		c1.01,0.99,1.86,2.14,2.78,3.21c-2.88,1.07-4.64-1.04-6.72-2.32c-2.58-1.59-4.79-3.6-6.73-5.88c-1.81-2.14-2.82-4.41,0.75-5.97
		C117.96,25.06,118.21,24.22,118.12,23.18z"/>
	<path class="st105" d="M213.8,52.02c-5.75-0.96-11.51-1.92-17.26-2.88c0.43-2.27,1.99-0.85,3.08-0.95
		c1.89,0.22,3.77,0.43,5.66,0.65c3.07,0.83,6.13,1.66,9.2,2.5C214.68,51.99,214.55,52.32,213.8,52.02z"/>
	<path class="st106" d="M213.8,52.02c0.23-0.23,0.45-0.45,0.68-0.68c1.67,0.24,3.39,0.34,4.45,1.97
		C217.11,53.32,215.36,53.04,213.8,52.02z"/>
	<path class="st107" d="M183.73,44.62c0.21,0.04,0.42,0.09,0.62,0.15c0.04,0.45,0.08,0.89,0.11,1.34c-0.11,1.02-0.53,1.81-1.59,2.11
		c-5.45,1.52-10.8,3.45-16.42,4.35c-0.63,0.1-1.17-0.08-1.42-0.76c0.62-2.33,1.7-3.77,4.55-3.65c1.79,0.07,3.62-0.83,5.44-1.29
		c0.91-0.58,2.05-0.67,2.87-1.43C179.54,43,181.64,43.86,183.73,44.62z"/>
	<path class="st108" d="M199.63,48.2c-1.03,0.31-2.33-0.27-3.08,0.95c-0.92-0.06-1.84-0.12-2.75-0.18
		c-0.47-0.34-1.18-0.06-1.55-0.62c1.5-1.56,3.45-0.34,5.12-0.85C198.12,47.73,198.87,47.96,199.63,48.2z"/>
	<path class="st109" d="M192.24,48.34c0.52,0.21,1.04,0.42,1.55,0.62c2.71,2.21,6.2,1.97,9.29,2.98c-0.3,1.94-1.44,1.1-2.58,0.91
		c-1.25-0.21-2.45-1.69-3.83-0.33c-1.42-0.24-2.85-0.47-4.27-0.71c-0.73-0.23-1.47-0.47-2.2-0.7c-0.36-0.83,2.85-0.22,0.72-1.84
		C190.52,48.97,190.7,48.72,192.24,48.34z"/>
	<path class="st110" d="M156.38,46.8c-3.33,2.17-6.42-0.35-9.37-0.97c-4.27-0.9-8.61-2.53-12.19-5.41c-1.25-2.47-3.19-4.4-5.07-6.36
		c-1.11-1.15-1.82-2.19-0.14-3.44c1.54-1.15,1.69-2.75,1.26-4.48c6.3,0.8,12.02,3.75,18.22,4.91c-0.62,2.26-2.73,1.76-4.27,2.24
		c-1.24,0.38-2.73,0.37-3,2.01c-0.24,1.46,0.66,2.5,1.73,3.3c2.29,1.71,4.69,3.24,7.6,3.69c1.04,0.16,2.16,0.09,2.96,0.99
		C154.13,44.93,155.77,45.53,156.38,46.8z"/>
	<path class="st111" d="M154.11,43.27c-4.55,0.68-8.06-1.68-11.48-4.09c-1.51-1.06-2.56-2.7-1.97-4.65c0.52-1.72,2.06-2,3.75-2.12
		c1.61-0.11,3.3-0.33,4.69-1.37C156.49,32.11,158.41,36.8,154.11,43.27z"/>
	<path class="st112" d="M177.89,45.44c-0.19,2.02-1.2,2.39-2.87,1.43C175.22,44.87,176.2,44.44,177.89,45.44z"/>
	<path class="st113" d="M54.24,38.92c-1.61,4.25-2.5,4.49-5.36,1.45C50.05,37.6,51.65,36.41,54.24,38.92z"/>
</g>
</svg>
