<?xml version="1.0" encoding="utf-8"?>
<!-- Generator: Adobe Illustrator 23.0.2, SVG Export Plug-In . SVG Version: 6.00 Build 0)  -->
<svg version="1.1" id="Camada_1" xmlns="http://www.w3.org/2000/svg" xmlns:xlink="http://www.w3.org/1999/xlink" x="0px" y="0px"
	 viewBox="0 0 29 35.87" style="enable-background:new 0 0 29 35.87;" xml:space="preserve">
<style type="text/css">
	.st0{fill:#FEFEFE;}
	.st1{fill:#010000;}
	.st2{fill:#6C2A2A;}
	.st3{fill:#FCFCF9;}
	.st4{fill:#6E2C2B;}
	.st5{fill:#7F2422;}
	.st6{fill:#7F302F;}
	.st7{fill:#D4BBBD;}
	.st8{fill:#4B92C6;}
	.st9{fill:#7B2220;}
	.st10{fill:#5D9DCD;}
	.st11{fill:#518FBF;}
	.st12{fill:#782223;}
	.st13{fill:#5191C1;}
	.st14{fill:#6C9EC3;}
	.st15{fill:#81BBE3;}
	.st16{fill:#3A7098;}
	.st17{fill:#E4C470;}
	.st18{fill:#C6893B;}
	.st19{fill:#F2E78A;}
	.st20{fill:#E5C676;}
	.st21{fill:#EFD279;}
	.st22{fill:#F6E6AF;}
	.st23{fill:#F5E285;}
	.st24{fill:#D0903D;}
	.st25{fill:#C68636;}
	.st26{fill:#F4E1AD;}
	.st27{fill:#CC8936;}
	.st28{fill:#4B0B0E;}
	.st29{fill:#42769D;}
	.st30{fill:#F4EDB6;}
	.st31{fill:#9A2D2B;}
	.st32{fill:#A6CEE8;}
	.st33{fill:#99CAE0;}
	.st34{fill:#9B4140;}
	.st35{fill:#79AFCE;}
	.st36{fill:#C33F42;}
	.st37{fill:#550808;}
	.st38{fill:#D2A6A7;}
	.st39{fill:#FEFDFD;}
	.st40{fill:#C23B3F;}
	.st41{fill:#C23B3E;}
	.st42{fill:#9FCBE8;}
	.st43{fill:#37709B;}
	.st44{fill:#3E739B;}
	.st45{fill:#501113;}
	.st46{fill:#521616;}
	.st47{fill:#C33B3E;}
	.st48{fill:#DEB8B9;}
	.st49{fill:#F5E8E9;}
</style>
<g>
	<path class="st0" d="M2.69,27.2C2.67,21.34,1.75,15.61,0.16,9.98C-0.02,9.38-0.1,8.8,0.19,8.24c0.91-1.8,1.8-3.67,3.84-4.48
		c1.05-0.42,1.76-1.34,2.87-1.68c2.44-0.74,4.95-1.03,7.46-1.34c0.24-0.03,0.53,0.06,0.71-0.06c1.73-1.13,3.55-0.67,5.16,0.02
		c1.61,0.69,3.27,1.31,4.81,2.09c1.41,0.72,2.44,2.14,2.82,3.83c0.04,0.19,0.02,0.46,0.14,0.57c1.51,1.47,0.98,3.1,0.63,4.87
		c-0.65,3.25-0.72,6.58-0.95,9.89c-0.17,2.55-0.25,5.1-0.45,7.64c-0.1,1.33-0.68,2.4-1.94,3.1c-1.04,0.58-2.06,1.26-2.9,2.09
		c-1.22,1.21-2.69,1.17-4.13,1c-3.93-0.46-7.86-0.75-11.81-0.88c-2.86-0.09-3.97-1.27-3.76-4.12C2.76,29.6,2.69,28.39,2.69,27.2z"/>
	<path class="st1" d="M19.29,34.6c-3.11-0.36-6.26-0.48-9.39-0.72c-1.27-0.1-2.55-0.15-3.83-0.18c-1.67-0.05-2.33-0.8-2.24-2.5
		C4,27.8,4.15,24.39,3.56,21.03C2.89,17.2,2.63,13.27,1.25,9.58C1.18,9.4,1.12,9.12,1.21,9C1.9,8.01,2,6.54,2.99,5.92
		C4.58,4.92,6,3.64,7.85,3.05c1.39-0.44,2.85-0.49,4.25-0.84c1.43-0.36,3-0.06,4.38-0.84c0.26-0.15,0.67-0.25,0.92-0.15
		c1.31,0.53,2.96,0.2,3.92,1.6c0.44,0.65,1.26,0.38,1.88,0.54c1.65,0.44,3.29,2.02,3.51,3.72c0.07,0.51,0.19,0.95,0.57,1.26
		c0.7,0.57,0.78,1.3,0.53,2.05c-0.94,2.81-0.87,5.74-1.13,8.63c-0.31,3.49-0.43,7.01-0.66,10.51c-0.05,0.77-0.29,1.54-1.04,1.92
		c-1.19,0.6-2.16,1.5-3.22,2.27C21.02,34.27,20.35,34.94,19.29,34.6z"/>
	<path class="st2" d="M6.43,32.45c-1.15,0.19-1.49-0.33-1.38-1.42c0.23-2.42,0.28-4.84,0.04-7.27c-0.45-4.59-1.13-9.14-2.34-13.59
		C2.54,9.38,2.63,8.8,3.41,8.43C3.65,8.24,3.9,8.28,4.15,8.4C4.5,8.64,4.69,9,4.85,9.38c0.96,2.56,1.24,5.24,1.53,7.93
		c0.25,2.29,0.03,4.6,0.38,6.88c0.08,2.4,0.14,4.81,0.07,7.22C6.81,31.8,6.75,32.17,6.43,32.45z"/>
	<path class="st3" d="M4.05,8.46C3.84,8.45,3.62,8.44,3.41,8.43C3.36,7.2,4.61,5.77,5.86,5.64c0.18-0.02,0.49,0.21,0.52-0.01
		C6.6,4.23,7.96,4.56,8.74,4.02c0.09-0.06,0.27-0.15,0.32-0.12c1.36,1.09,2.44-1.3,3.78-0.31c1.2-0.81,2.75-0.15,3.95-0.92
		c0.47-0.3,0.81-0.08,1.17,0.1c0.19,0.09,0.26,0.4,0.58,0.29c1.17-0.41,1.83,0.08,2.11,1.21c0.04,0.17,0.13,0.31,0.32,0.21
		c0.86-0.47,1.63,0.36,2.48,0.14c0.1-0.03,0.23,0.04,0.34,0.09c0.72,0.34,1.71,2.41,1.56,3.24c-0.06,0.38-0.29,0.45-0.61,0.33
		c-0.26-0.5,0.11-1.18-0.45-1.59c-0.3-0.27-0.54-0.57-0.71-1.03c-0.04,0.55,0.01,0.99,0.2,1.42c0.14,0.4,0.32,0.81,0.01,1.21
		c-0.23,0.15-0.48,0.15-0.72,0.03c-0.31-0.25-0.38-0.62-0.47-0.97c-0.01-0.78-0.29-1.38-1.39-1.75c0.86,0.88,1.84,1.48,1.22,2.66
		c-0.32,0.3-0.6,0.41-0.74-0.15c0.04-0.39-0.06-0.69-0.45-0.86c-0.62-0.26-0.2,0.41-0.48,0.53c-0.28,0.12-0.61,0.43-0.85,0.32
		c-0.92-0.41-1.19,0.11-1.41,0.82c-0.03,0.09-0.2,0.08-0.32,0.03c-0.75-1.32-0.56-2.01,0.73-2.66c0.47-0.24,1.1-0.36,0.98-1.13
		c-0.02-0.08-0.01-0.18-0.06-0.23c-0.85-0.78-2.05-0.84-3-1.45c-0.19-0.12-0.98,0.2-0.47,0.68c0.61,0.57,0.65,1.34,1.07,1.96
		c0.49,0.74,0.54,1.56,0.1,2.26c-0.49,0.79-1.36,0.71-2.17,0.53c-0.68-0.58-0.03-0.79,0.32-0.98c1.09-0.58,1.1-0.56,0.47-1.56
		c-0.37-1.31-0.38-1.32-1.41-0.42c-0.33,0.28-0.79,0.37-1.04,0.75c-0.05,0.11-0.08,0.22-0.12,0.33c-0.12,0.32,0.26,0.93-0.37,0.91
		c-0.47-0.02-0.63-0.55-0.69-0.99C12.43,6.39,12.76,6,13.15,5.64c0.4-0.37,0.93-0.6,1.22-1.17c-0.63-0.45-1.07,0.26-1.6,0.26
		c-1.22-0.6-1.32-0.58-2.01,0.53c0,1.89-0.32,2.38-1.9,2.93c-0.43,0-0.66-0.24-0.76-0.63c-0.04-0.3,0.18-0.4,0.39-0.5
		c1.27-0.61,1.27-0.61,0.75-2.02C8.93,5.15,8.71,5.49,8.31,5.4C7.9,5.31,7.51,5.32,7.34,5.81C7.2,6.22,7.29,6.59,7.62,6.88
		c0.22,0.19,0.34,0.43,0.42,0.7c0.15,0.35,0.18,0.7,0.04,1.06c-0.12,0.24-0.3,0.39-0.56,0.45C7.4,9.09,7.28,9.07,7.17,9
		C7.05,8.86,7.02,8.69,7.02,8.51C7.03,7.66,6.01,7.47,5.84,6.7c-0.04-0.17-0.38-0.06-0.5,0.1c-0.3,0.39-0.82,0.48-1.13,0.84
		c-0.09,0.23-0.04,0.47-0.08,0.7C4.11,8.38,4.08,8.42,4.05,8.46z"/>
	<path class="st4" d="M11.03,32.69c-0.9,0.11-1.77-0.17-2.65-0.22c-0.27-0.3-0.3-0.67-0.32-1.04c-0.05-1.11-0.03-2.22-0.01-3.33
		C7.98,25.24,8,22.38,8.03,19.53c0.01-1.14-0.48-2.27-0.07-3.42c0.33-0.46,0.53-0.14,0.67,0.15c0.29,0.57,0.43,1.19,0.59,1.81
		c0.82,3.11,1.48,6.25,2.06,9.41c0.09,0.5,0.12,0.99,0.09,1.5C11.21,30.21,11.72,31.51,11.03,32.69z"/>
	<path class="st5" d="M24.7,8.23c0.22-0.09,0.43-0.18,0.64-0.27c1.82,1.24,0.92,2.95,0.77,4.53c-0.29,3.13-0.64,6.25-0.87,9.38
		c-0.19,2.53-0.23,5.07-0.37,7.61c-0.03,0.47-0.2,0.95-0.78,1.08c-0.42-0.2-0.39-0.6-0.45-0.96c-0.02-1.08-0.08-2.16,0.07-3.24
		c0.24-1.09,0.37-2.2,0.4-3.3c0.1-3.79,0.41-7.55,1.01-11.29c0.03-0.18,0.11-0.37,0-0.61c-0.49,0.45-0.14,1.29-0.8,1.67
		c-0.56-0.47-0.38-1.1-0.43-1.66c0.02-0.6-0.02-1.19,0-1.79c0.01-0.2,0.03-0.4,0.08-0.59C24.12,8.45,24.27,8.16,24.7,8.23z"/>
	<path class="st6" d="M22.54,31.6c-0.53,0.38-0.93,0.95-1.63,1.07c-0.36-0.28-0.38-0.69-0.38-1.09c0.02-1.51-0.06-3.03,0.07-4.54
		c0.28-1.91,0.44-3.84,0.64-5.77c0.05-0.47,0.06-0.95,0.28-1.39c0.25-0.49,0.6-0.75,1.14-0.36c0.31,0.47,0.23,1,0.23,1.51
		c0.01,2.15,0,4.29,0.01,6.44c0.07,0.92-0.26,1.8-0.25,2.72C22.69,30.67,22.61,31.14,22.54,31.6z"/>
	<path class="st7" d="M20.92,26.97c-0.01,1.9-0.19,3.8-0.01,5.71c-0.11,0.25-0.28,0.42-0.57,0.43c-0.31-0.39-0.31-0.89-0.45-1.35
		c0.23-1.79,0.06-3.6,0.26-5.39c0.18-0.54,0.15-1.1,0.15-1.65c0-3.57-0.01-7.15,0.02-10.72c0-0.52-0.24-1.23,0.6-1.43
		c0.32,0.36,0.33,0.8,0.34,1.24C21.33,18.2,21.23,22.59,20.92,26.97z"/>
	<path class="st8" d="M11.03,32.69c0.03-1.25,0.05-2.5,0.08-3.75c0.53,0.05,0.5,0.51,0.46,0.8c-0.18,1.3,0.42,1.97,1.65,2.21
		c0.23,0.31,0.26,0.62,0.04,0.94C12.51,32.83,11.77,32.76,11.03,32.69z"/>
	<path class="st9" d="M20.17,31.99c0.32,0.33,0.16,0.74,0.17,1.12c-1.01,0.18-2.03,0.1-3.04,0.04c-0.27-0.26-0.28-0.55-0.13-0.87
		c0.08-0.1,0.18-0.17,0.3-0.2c0.68-0.04,1.37,0.22,2.05-0.06C19.73,31.96,19.94,31.84,20.17,31.99z"/>
	<path class="st10" d="M22.54,31.6c-0.27-0.39-0.15-0.84-0.18-1.26c0.42-0.51,0.92-0.86,1.62-0.77c0.04,0.32,0.07,0.65,0.11,0.97
		C23.58,30.9,23.06,31.25,22.54,31.6z"/>
	<path class="st11" d="M17.3,32.31c0,0.28,0,0.56,0,0.84c-0.71-0.02-1.43,0.14-2.11-0.2c-0.23-0.41,0-0.66,0.31-0.89
		C16.13,31.88,16.77,31.7,17.3,32.31z"/>
	<path class="st12" d="M15.4,32.2c-0.07,0.25-0.14,0.5-0.21,0.76c-0.65-0.02-1.29-0.04-1.94-0.06c0-0.29,0-0.57-0.01-0.86
		c0.03-0.05,0.06-0.09,0.09-0.14c0.62-0.32,1.21-0.11,1.8,0.09C15.24,32.04,15.32,32.11,15.4,32.2z"/>
	<path class="st13" d="M8.36,31.55c0.01,0.31,0.01,0.61,0.02,0.92c-0.65,0-1.29-0.01-1.94-0.01c0.02-0.3,0.03-0.61,0.05-0.91
		C7.11,31.02,7.73,31.21,8.36,31.55z"/>
	<path class="st14" d="M8.19,15.92C8.43,20,8.47,24.08,8.36,28.16c-1.27,0.5-1.74,0.23-1.76-1.04c-0.02-1.29,0-2.58,0-3.78
		c-0.11,0.18,0.12,0.54-0.15,0.78c-0.14-1.95-0.31-3.89-0.4-5.84c-0.14-3.09-0.6-6.12-1.54-9.06c0.18-0.63,0.55-0.23,0.77-0.09
		c0.6,0.37,1.18,0.76,1.72,1.22c0.22,1.44,0.64,2.82,1.28,4.14C8.47,14.97,8.58,15.46,8.19,15.92z"/>
	<path class="st15" d="M6.45,24.11c0.03-0.55,0.05-1.1,0.08-1.65c0.06,0,0.12,0,0.18,0c0,1.34,0,2.69,0,4.03
		c0.01,1.64,0.01,1.64,1.65,1.67c0,1.13-0.01,2.26-0.01,3.39c-0.62,0-1.25-0.01-1.87-0.01C6.47,29.06,6.46,26.59,6.45,24.11z"/>
	<path class="st16" d="M6.96,10.4c-0.59-0.02-0.94-0.47-1.38-0.76C5.27,9.43,5,9.01,4.51,9.21C4.35,8.96,4.2,8.71,4.05,8.46
		c0,0-0.01-0.01-0.01-0.01C4.6,8.04,5.12,8.38,5.61,8.61c0.48,0.23,0.96,0.36,1.49,0.34C7.2,8.95,7.31,8.97,7.41,8.98
		c0.23,0.16,0.23,0.39,0.18,0.63C7.48,9.95,7.34,10.27,6.96,10.4z"/>
	<path class="st17" d="M12.73,4.61c0.16-0.11,0.37-0.18,0.48-0.32c0.47-0.58,1.33-0.49,1.58-0.23c0.5,0.51-0.42,0.74-0.61,1.17
		c-0.1,0.23-0.53,0.31-0.78,0.49c-0.82,0.59-0.84,1.28-0.05,2.17c0.13-0.47-0.35-0.95,0.07-1.36c0.72-0.33,1.55-0.29,2.26-0.68
		c0.44-0.25,0.49,0.21,0.61,0.47c0.25,0.32,0.77,0.42,0.73,0.96c-0.03,0.46,0.1,0.98-0.72,0.81c-0.45-0.1-0.9,0.12-1.17,0.57
		c-0.02,0.58-0.44,0.46-0.76,0.4c-1.53-0.27-3.06-0.46-4.62-0.51c-0.37-0.01-0.83,0-0.88-0.57c1.13-0.51,2.07-1.12,1.47-2.61
		c-0.02-0.04,0.14-0.16,0.22-0.24C11.31,5.09,11.83,4.05,12.73,4.61z"/>
	<path class="st18" d="M8.87,7.98c1.31,0.49,2.7,0.22,4.05,0.42c0.71,0.11,1.43,0.69,2.21,0.26c0.23,0.02,0.47,0.08,0.7,0.06
		c0.6-0.04,1.36,0.19,1.63-0.6c0.24-0.73,0.22-1.48-0.45-2.05c0.97-0.5,2.02-0.75,3.1-0.91c0.65,0.95-0.39,1.12-0.77,1.33
		c-1.53,0.84-1.57,0.83-1.08,2.45c0.2,0.14,0.63,0.1,0.45,0.56c-0.43,0.31-0.91,0.51-1.44,0.58c-0.9-0.13-1.72-0.93-2.72-0.36
		c-0.71,0.6-1.4,0.17-2.1-0.04c-0.19-0.03-0.4-0.17-0.57-0.09c-0.84,0.4-1.59,0.12-2.32-0.29C8.99,9.18,8.29,9.44,7.93,8.72
		C7.9,8.32,7.88,7.91,7.85,7.51c0.11-0.09,0.22-0.09,0.33-0.01C8.36,7.72,8.48,8.05,8.87,7.98z"/>
	<path class="st19" d="M20.11,5.16c-0.94,0.61-1.97,0.93-3.1,0.91c-0.3-0.68-0.26-1.54-1.23-1.83c-0.4-0.12-0.11-0.54,0.12-0.76
		c0.57-0.54,1.56-0.44,2.01,0.25c0.25,0.38,0.51,0.44,0.9,0.34C19.74,3.85,20.17,4.21,20.11,5.16z"/>
	<path class="st20" d="M8.18,7.49c-0.11,0-0.22,0.01-0.33,0.01C7.37,7.03,6.69,6.69,6.97,5.78c0.17-0.55,0.59-0.97,1-0.76
		c0.7,0.35,1,0.04,1.26-0.59C10.47,6.88,10.14,6.89,8.18,7.49z"/>
	<path class="st21" d="M18.74,9.42c-0.16-0.16-0.32-0.32-0.48-0.48c0.27-0.14,0.21-0.39,0.22-0.62c0.03-0.69-0.13-1.63,0.95-0.53
		c0.33,0.33,0.79,0,1.09-0.16c0.53-0.29,0.05-0.44-0.17-0.64c-0.17-0.15,0.04-0.37,0.12-0.34c0.46,0.15,0.94,0.3,1.36,0.55
		c0.32,0.19,0.34,0.51,0.03,0.78c-0.48,0.18-0.54,0.7-0.83,1.03c-0.19,0.27-0.36,0.55-0.6,0.77c-0.29,0.21-0.6,0.34-0.96,0.31
		C19.08,10.02,18.81,9.83,18.74,9.42z"/>
	<path class="st20" d="M3.87,7.76c0.22-0.96,1.3-0.98,1.81-1.63C5.71,6.1,5.85,6.12,5.9,6.16c0.13,0.09,0.35,0.25,0.33,0.29
		C5.75,7.55,7.97,7.31,7.25,8.5C5.97,8.98,4.89,8.51,3.87,7.76z"/>
	<path class="st22" d="M16.29,6.32c-0.19-0.07-0.27-0.56-0.52-0.28c-0.68,0.77-1.55,0.42-2.34,0.48c0.52-0.55,1.36-0.7,1.71-1.48
		c0.11-0.25,0.52-0.26,0.74-0.1C16.34,5.28,16.36,5.8,16.29,6.32z"/>
	<path class="st23" d="M22.31,8.19c0.05-0.75,0.19-1.5-0.87-1.78c-0.41-0.11-0.73-0.64-0.46-1.07c0.34-0.55,0.64,0.01,0.96,0.19
		c0.72,0.39,1,0.97,0.82,1.77C22.65,7.61,23.01,8.17,22.31,8.19z"/>
	<path class="st24" d="M24.7,8.23c-0.16,0.14-0.32,0.28-0.48,0.41c-0.4,0.21-0.47-0.07-0.53-0.36c0.12-0.46-0.04-0.86-0.24-1.25
		C23.4,6.09,24,6.43,24.47,6.52C25.41,6.97,24.97,7.61,24.7,8.23z"/>
	<path class="st25" d="M3.87,7.76C4.96,8.19,6.08,8.48,7.25,8.5C7.2,8.65,7.15,8.8,7.09,8.94C6.75,9.3,6.46,9.61,5.92,9.11
		c-0.5-0.47-1.2-0.6-1.89-0.66C3.98,8.22,3.93,7.99,3.87,7.76z"/>
	<path class="st26" d="M12.73,4.61C12.35,4.66,11.95,4.58,11.67,5c-0.28,0.42-0.69,0.53-1.11,0.13C11.14,3.77,11.83,3.6,12.73,4.61z
		"/>
	<path class="st27" d="M22.31,8.19c0.4-0.17,0.08-0.71,0.45-0.89c0.29,0.3,0.34,0.67,0.34,1.06c-0.08,0.46-0.38,0.69-0.82,0.76
		c-0.47-0.13-1,0.18-1.43-0.18c0.22-0.4,0.38-0.84,0.67-1.17c0.33-0.38,0.28,0.06,0.34,0.23C21.79,8.55,22.02,8.43,22.31,8.19z"/>
	<path class="st28" d="M7.93,8.72c0.58,0.33,1.26,0.03,1.85,0.31c0.27,0.17,0.25,0.4,0.12,0.64C9.12,9.88,8.34,9.7,7.56,9.75
		c-0.05-0.03-0.1-0.07-0.15-0.1c0-0.22,0-0.45,0.01-0.67C7.58,8.89,7.76,8.81,7.93,8.72z"/>
	<path class="st29" d="M22.36,9.02c0.25-0.22,0.49-0.44,0.74-0.66c0.2-0.02,0.4-0.05,0.59-0.07c0.13,0.19,0.28,0.34,0.53,0.36
		c0,0.21-0.01,0.42-0.01,0.62c-0.51,0.15-1.03,0.26-1.57,0.26C22.4,9.43,22.28,9.28,22.36,9.02z"/>
	<path class="st30" d="M24.47,6.52c-0.41,0.04-0.88-0.05-1.02,0.51c-0.35-0.57,0-1.22-0.31-1.85C24.03,5.31,23.9,6.25,24.47,6.52z"
		/>
	<path class="st31" d="M8.19,15.92c-0.07-0.48-0.15-0.97-0.22-1.45c-0.27-1.48-0.99-2.91-0.63-4.48c0.84-0.48,0.81,0.26,0.91,0.69
		c0.44,1.98,0.97,3.93,1.5,5.89c0.47,1.73,0.94,3.45,1.53,5.14c0.04,0.14,0.06,0.28,0.07,0.43c0.02,1.28,0.06,2.56,0.05,3.83
		c0,0.51,0.05,1.05-0.36,1.47c-0.56-2.48-1.11-4.97-1.69-7.45C9.03,18.62,8.73,17.23,8.19,15.92z"/>
	<path class="st32" d="M11.04,27.44c0.02-1.81,0.05-3.62,0.07-5.43c0.42-0.04,0.41,0.32,0.46,0.56c0.56,2.33,1.33,4.6,1.89,6.94
		c0.09,0.84,0.22,1.68-0.11,2.49c0,0-0.1,0.04-0.1,0.04c-0.28-0.02-0.55-0.07-0.83-0.05c-0.85,0.05-1.23-0.29-1.18-1.18
		c0.03-0.62,0.15-1.26-0.13-1.87C11.08,28.44,11.06,27.94,11.04,27.44z"/>
	<path class="st33" d="M23.99,29.57c-0.54,0.26-1.08,0.51-1.62,0.77c-0.21-0.91,0.19-1.77,0.21-2.67c0.13-2.85,0.2-5.7-0.05-8.56
		c-0.18-2.1-0.12-4.22-0.02-6.33c0.04-0.85,0.91-1.37,1.11-2.2c0.03-0.14,0.21-0.26,0.37-0.13c0.18,0.14,0.11,0.36,0.12,0.56
		c0,0.58-0.01,1.16,0.01,1.73c-0.02,0.94-0.06,1.87,0.01,2.81c-0.04,3.29,0.1,6.58-0.02,9.86c-0.01,0.27,0.05,0.56-0.1,0.82
		C24,27.34,24,28.46,23.99,29.57z"/>
	<path class="st34" d="M24.01,26.23c-0.07-3.59-0.14-7.18-0.21-10.77c0.22-0.88-0.06-1.78,0.15-2.66c0.02-0.53,0.05-1.07,0.07-1.6
		c0.01-0.1,0.07-0.14,0.17-0.13c0.03,0.47,0.05,0.95,0.08,1.42c0.31-0.78-0.06-1.94,1.39-2.14c-0.17,1.29-0.33,2.56-0.5,3.82
		c-0.37,2.84-0.63,5.68-0.7,8.55C24.43,23.9,24.33,25.08,24.01,26.23z"/>
	<path class="st35" d="M24.2,11.06c-0.06,0.04-0.12,0.08-0.17,0.13c-0.03-0.19-0.06-0.37-0.15-0.92c-0.19,1.03,0.04,1.91-1,2.1
		c-0.08,0.01-0.07,0.59-0.07,0.91c0,4.38,0,8.76-0.01,13.15c0,0.42,0.15,0.89-0.22,1.25c-0.01-2.71-0.02-5.41-0.04-8.12
		c-0.62-1.01-0.29-2.11-0.33-3.18c0.01-1.81-0.01-3.63,0.01-5.44c0.01-0.5-0.1-1.04,0.36-1.44c0.5-0.35,1.03-0.54,1.62-0.23
		C24.2,9.86,24.2,10.46,24.2,11.06z"/>
	<path class="st36" d="M22.55,16.35c0,1.07-0.01,2.14-0.01,3.2c-1.15,0.02-0.84,0.94-0.93,1.56c-0.26,1.95-0.47,3.9-0.7,5.86
		c-0.03-4.8-0.07-9.59-0.1-14.39c-0.47-0.67-0.16-1.45-0.34-2.16c0-0.14,0.03-0.27,0.08-0.4c0.35-0.52,0.78-0.99,1.46-0.67
		c0.64,0.3,0.45,0.98,0.39,1.49c-0.18,1.58-0.04,3.16-0.09,4.74C22.31,15.86,22.31,16.14,22.55,16.35z"/>
	<path class="st37" d="M20.61,10.16c0,0.05,0.01,0.09,0.04,0.13c-0.23,5.03-0.1,10.06-0.14,15.09c0,0.36,0.05,0.72-0.06,1.07
		c-0.09,1.84-0.19,3.69-0.28,5.53c-0.14,0.07-0.28,0.15-0.42,0.22c-0.5-0.36-0.43-0.91-0.44-1.41c-0.02-1.23-0.02-2.47,0-3.7
		c0.06-0.44,0.03-0.89,0.12-1.32c0.28-0.91,0.12-1.85,0.15-2.77c-0.05-3.32,0.1-6.65-0.08-9.97c-0.24-0.78-0.04-1.6-0.25-2.38
		c-0.02-0.13-0.02-0.26,0-0.39c0.04-0.13,0.1-0.24,0.2-0.33c0.31-0.12,0.62-0.24,0.93-0.36C20.6,9.71,20.63,9.92,20.61,10.16z"/>
	<path class="st38" d="M20.45,26.46c-0.02-5.1-0.04-10.21-0.06-15.31c0-0.3-0.1-0.65,0.26-0.85c0.32,0.74,0.16,1.52,0.17,2.29
		c-0.32,0.39-0.17,0.84-0.17,1.27c-0.01,3.78-0.01,7.56-0.02,11.34C20.63,25.61,20.76,26.07,20.45,26.46z"/>
	<path class="st39" d="M17.3,32.31c-0.63-0.04-1.27-0.07-1.9-0.11c0,0-0.05-0.04-0.05-0.04c-0.41-0.42-0.35-0.95-0.36-1.46
		c-0.02-1.51-0.04-3.03,0-4.54c0.12-5.18-0.46-10.33-0.79-15.49c-0.01-0.15,0.02-0.29,0.07-0.43c1.18-0.96,2.14-0.75,3.22,0.72
		c0.06,0.14,0.1,0.29,0.13,0.43c0.24,1.3,0.3,2.61,0.29,3.94c-0.01,4.99,0,9.99-0.01,14.98c0,0.66,0.15,1.38-0.44,1.91
		C17.39,32.22,17.34,32.25,17.3,32.31z"/>
	<path class="st40" d="M17.45,32.2c0.01-7.03,0.18-14.06-0.11-21.09c0.35-1.25,0.81-1.46,2.09-0.95c0.01,0.06,0,0.12-0.03,0.18
		c0.09,2.61,0.42,5.2,0.28,7.82c-0.06,2.69,0.13,5.39-0.12,8.08c-0.02,0.23-0.03,0.48,0.09,0.7c0.03,1.76,0.07,3.51,0.1,5.27
		C18.98,32.73,18.22,32.49,17.45,32.2z"/>
	<path class="st41" d="M14.4,10.36c0.39,1.84,0.42,3.71,0.57,5.57c0.42,5.4,0.53,10.81,0.38,16.22c-0.67-0.05-1.34-0.11-2-0.16
		c-0.04-0.87-0.09-1.73-0.13-2.6c-0.26-1.08-0.4-2.19-0.39-3.3c0.05-4.71-0.22-9.41-0.68-14.1c-0.04-0.44-0.05-0.88,0.01-1.31
		c0.02-0.13,0.06-0.25,0.11-0.37c0.19-0.34,0.51-0.39,0.79-0.19C13.49,10.43,13.96,10.29,14.4,10.36z"/>
	<path class="st42" d="M7.47,9.9c0.16,1.52,0.33,3.05,0.49,4.57c-0.75-1.1-0.73-2.48-1.33-3.63c-0.04-0.07,0.21-0.29,0.33-0.44
		c0.15-0.25,0.3-0.5,0.44-0.75c0,0,0.07,0.05,0.07,0.05c0.06,0.05,0.08,0.09,0.06,0.14C7.51,9.88,7.49,9.9,7.47,9.9z"/>
	<path class="st43" d="M17.26,10.96c-0.77-0.82-1.63-1.31-2.79-0.79c-0.3-0.19-0.24-0.44-0.09-0.69c1.12-0.56,2.06-0.14,2.93,0.57
		C17.54,10.37,17.47,10.67,17.26,10.96z"/>
	<path class="st44" d="M9.83,9.62C9.81,9.43,9.8,9.23,9.78,9.03c0.74,1.08,1.79-0.05,2.62,0.37c0.25,0.16,0.25,0.35,0.09,0.57
		c-0.03,0.04-0.06,0.08-0.08,0.12c-0.83,0.38-1.67,1.01-2.49-0.02C9.8,9.94,9.71,9.8,9.83,9.62z"/>
	<path class="st45" d="M12.49,9.97c-0.03-0.19-0.06-0.38-0.09-0.57c0.66-0.09,1.28,0.94,1.98,0.08c0.03,0.23,0.06,0.46,0.09,0.69
		c-0.02,0.07-0.04,0.13-0.07,0.19C13.52,11.41,13.11,10.17,12.49,9.97z"/>
	<path class="st46" d="M17.26,10.96c0.02-0.3,0.04-0.61,0.06-0.91c0.39-0.4,0.88-0.58,1.43-0.63c0.24,0.17,0.47,0.34,0.71,0.51
		c0,0.08-0.01,0.16-0.02,0.23c-0.9-0.13-1.65,0.06-2.09,0.95C17.29,11.07,17.26,11.02,17.26,10.96z"/>
	<path class="st6" d="M20.61,10.16c-0.19-0.15-0.23-0.36-0.24-0.59c0.03-0.31,0.28-0.45,0.47-0.64c0.51-0.07,1.03-0.32,1.52,0.09
		c0.08,0.16,0.15,0.32,0.23,0.48c-0.01,2.29-0.02,4.57-0.03,6.85c-0.24,0.12-0.47,0.2-0.46-0.2c0.04-1.66-0.13-3.33,0.09-4.99
		C22.26,10.62,22.53,10,22,9.61C21.34,9.12,21.1,10.03,20.61,10.16z"/>
	<path class="st47" d="M9.83,9.62C9.87,9.72,9.9,9.81,9.94,9.91c0.46,0.37,0.62,0.9,0.71,1.44c0.52,3.01,0.81,6.05,0.75,9.11
		c-0.01,0.43,0,0.88-0.36,1.22c-1.26-2.84-1.8-5.89-2.63-8.86c-0.22-0.8-0.51-1.59-0.5-2.44c0-0.28-0.16-0.43-0.43-0.48
		c-0.04-0.07-0.04-0.14,0-0.21C8.24,9.18,9.04,9.36,9.83,9.62z"/>
	<path class="st39" d="M11.04,21.68c0.05-3.96-0.16-7.9-1.1-11.77c0.76,0.91,1.64,0.12,2.46,0.19c0.52,5.99,0.9,11.98,0.84,17.99
		c0,0.44-0.02,0.87-0.03,1.31c-0.84-2.42-1.49-4.91-2.11-7.39C11.09,21.9,11.06,21.79,11.04,21.68z"/>
	<path class="st35" d="M23.95,12.79c0.01,0.89,0.08,1.79-0.15,2.66C23.81,14.57,23.56,13.66,23.95,12.79z"/>
	<path class="st48" d="M19.64,26.94c-0.38-2.04-0.12-4.11-0.19-6.16c-0.03-0.91,0.02-1.82,0.03-2.74c0.18-1.51,0.04-3.02,0.07-4.54
		c0.01-0.27-0.1-0.56,0.17-0.77c0.33,1.93,0.18,3.88,0.19,5.83c0.01,1.55-0.04,3.11-0.07,4.66c-0.15,0.82,0.06,1.65-0.12,2.47
		C19.7,26.1,19.67,26.52,19.64,26.94z"/>
	<path class="st49" d="M19.72,12.73c-0.01,1.35-0.02,2.7-0.05,4.05c-0.01,0.42,0.14,0.88-0.19,1.26c-0.11-2.39-0.22-4.78-0.34-7.16
		c-0.01-0.24-0.1-0.49,0.26-0.54C19.89,11.09,19.63,11.93,19.72,12.73z"/>
	<path class="st40" d="M19.72,25.69c-0.08-0.83-0.1-1.66,0.12-2.47C19.9,24.05,20,24.88,19.72,25.69z"/>
</g>
</svg>
