<?xml version="1.0" encoding="utf-8"?>
<!-- Generator: Adobe Illustrator 23.0.2, SVG Export Plug-In . SVG Version: 6.00 Build 0)  -->
<svg version="1.1" id="Camada_1" xmlns="http://www.w3.org/2000/svg" xmlns:xlink="http://www.w3.org/1999/xlink" x="0px" y="0px"
	 viewBox="0 0 30.03 39.4" style="enable-background:new 0 0 30.03 39.4;" xml:space="preserve">
<style type="text/css">
	.st0{fill:#5B2B21;}
	.st1{fill:#601823;}
	.st2{fill:#B9092F;}
	.st3{fill:#821928;}
	.st4{fill:#831322;}
	.st5{fill:#A3112D;}
	.st6{fill:#A71B34;}
	.st7{fill:#AB693B;}
	.st8{fill:#F1DD93;}
	.st9{fill:#FAF9F9;}
	.st10{fill:#596B1C;}
	.st11{fill:#B3203D;}
	.st12{fill:#ECE7E2;}
	.st13{fill:#586E16;}
	.st14{fill:#E1E3E0;}
	.st15{fill:#45A7C7;}
	.st16{fill:#591416;}
	.st17{fill:#4E0E11;}
	.st18{fill:#C7C9C5;}
	.st19{fill:#C5C5B7;}
	.st20{fill:#B8B31C;}
	.st21{fill:#C02B51;}
	.st22{fill:#BC66A1;}
	.st23{fill:#BC659F;}
	.st24{fill:#B7B218;}
	.st25{fill:#C2304F;}
	.st26{fill:#65B8EE;}
	.st27{fill:#EBE843;}
	.st28{fill:#C3BE15;}
	.st29{fill:#A1112D;}
	.st30{fill:#F3E744;}
	.st31{fill:#BFC224;}
	.st32{fill:#DBCC33;}
	.st33{fill:#D9E449;}
	.st34{fill:#F6E140;}
	.st35{fill:#7E812E;}
	.st36{fill:#5AB4EB;}
	.st37{fill:#BF264E;}
	.st38{fill:#EDE744;}
	.st39{fill:#E1B6D2;}
	.st40{fill:#B7C943;}
	.st41{fill:#B2213C;}
	.st42{fill:#5A6C1B;}
	.st43{fill:#B4CA42;}
	.st44{fill:#DEAACB;}
	.st45{fill:#BA3041;}
	.st46{fill:#60731F;}
	.st47{fill:#C33144;}
	.st48{fill:#6C7E20;}
	.st49{fill:#6E1321;}
	.st50{fill:#707D21;}
	.st51{fill:#C12045;}
	.st52{fill:#888F1E;}
	.st53{fill:#C42041;}
	.st54{fill:#6CBFEA;}
	.st55{fill:#48A5C4;}
	.st56{fill:#49AAD8;}
	.st57{fill:#BECE43;}
	.st58{fill:#62701A;}
	.st59{fill:#5C6B24;}
	.st60{fill:#854893;}
	.st61{fill:#5B6D18;}
	.st62{fill:#F6EDEE;}
	.st63{fill:#F6EFEF;}
	.st64{fill:#FDF643;}
	.st65{fill:#FCFAEE;}
	.st66{fill:#E8E343;}
	.st67{fill:#BF2442;}
	.st68{fill:#57B1EA;}
	.st69{fill:#871628;}
	.st70{fill:#A11025;}
	.st71{fill:#FBFAFA;}
	.st72{fill:#A25CA4;}
	.st73{fill:#E5C1DA;}
	.st74{fill:#C3D944;}
	.st75{fill:#E4B4D4;}
	.st76{fill:#4FAEDB;}
	.st77{fill:#934C95;}
	.st78{fill:#C1294E;}
	.st79{fill:#54ADDF;}
	.st80{fill:#67B6DF;}
	.st81{fill:#C72345;}
	.st82{fill:#E9C9C8;}
	.st83{fill:#72CCF4;}
</style>
<g>
	<path d="M26.29,13.06c0.2,3.55-1.79,6.1-4.62,8.21c-1.41,1.05-1.43,1.06-0.51,2.59c1.97,3.29,4.24,6.38,6.45,9.51
		c1.22,1.74,0.41,3.9-1.67,4.53c-1.4,0.43-2.47,0.05-3.3-1.16c-2.72-3.94-5.51-7.83-7.86-12.01c-0.32-0.56-0.69-0.71-1.31-0.73
		c-5.02-0.14-9.67-3.35-11.28-7.72C0.39,11.41,2.81,5.69,7.41,3.23c2.43-1.3,5.02-1.88,7.57-1.7C20.46,1.91,26.18,6.21,26.29,13.06z
		"/>
	<path class="st0" d="M18.64,21.86c2.09,3.86,4.6,7.45,7.16,11.01c0.26,0.36,0.52,0.71,0.76,1.07c0.79,1.18,0.69,1.71-0.5,2.54
		c-0.85,0.59-1.89,0.35-2.53-0.58c-2.8-4.02-5.68-7.99-8.01-12.31c-0.44-0.82-1.09-0.79-1.8-0.82c0.89-0.89,1.99-0.77,3.09-0.64
		c0.11,0.05,0.28,0.19,0.26,0.21c-0.7,0.87-0.06,1.53,0.36,2.2c2.13,3.37,4.29,6.72,6.57,9.99c0.39,0.56,0.76,1.22,1.6,0.61
		c0.19-0.63-0.33-0.95-0.63-1.33c-1.65-2.15-3.11-4.43-4.62-6.67c-0.07-0.09-0.13-0.19-0.18-0.28c-0.71-1.45-1.8-2.7-2.28-4.27
		C18.03,22.21,18.01,21.7,18.64,21.86z"/>
	<path class="st1" d="M18.64,21.86c-0.46,0.02-0.3,0.53-0.57,0.71c-0.26,0-0.51-0.02-0.76-0.07c-0.1-0.03-0.18-0.09-0.25-0.17
		c-1.13-0.04-2.25,0.05-3.33,0.43C8.33,22.95,2.99,18.4,2.85,13.66c-0.04-1.4-0.05-2.74,0.54-4.03C3.93,9.2,4.08,8.5,4.52,7.99
		c0.29-0.33,0.54-0.53,0.71,0.08c-0.53,1.44-1.18,2.83-1.39,4.37c-0.31,0.89-0.09,1.8-0.11,2.7c0.04,0,0.08-0.01,0.11-0.02
		c0.04-0.01,0.07-0.03,0.11-0.05c0.77,0.68,0.97,1.69,1.45,2.54c0.29,1.03,0.95,1.69,1.98,1.97c1.22,0.59,2.32,1.46,3.75,1.52
		c0.64,0.12,1.22,0.48,1.9,0.42c0.43,0,0.85-0.01,1.27,0c0.47,0,0.94,0.04,1.4-0.09c0.11-0.03,0.22-0.06,0.33-0.08
		c0.55-0.08,1.07-0.25,1.57-0.47c0.55-0.23,1.06-0.52,1.54-0.87c1.29-0.82,2.53-1.71,3.5-2.92c0.6-0.73,1.11-1.5,1.31-2.45
		c0.06-0.31,0.18-0.6,0.49-0.76c0.61-0.04,0.27,0.54,0.49,0.75c-0.24,2.53-2.01,4.03-3.77,5.5C20.4,20.79,19.49,21.29,18.64,21.86z"
		/>
	<path class="st2" d="M7.68,4.55C11.9,1.7,18.46,2.54,22.07,5.93c0.33,0.31,0.5,0.7,0.74,1.06c0.28,0.4,0.01,0.54-0.31,0.65
		c-0.12,0.01-0.24,0-0.35-0.03c-1.01-0.59-1.59-1.72-2.73-2.14c-0.34-0.18-0.69-0.35-1.04-0.5c-0.66-0.32-1.36-0.5-2.1-0.55
		c-0.23,0-0.47,0-0.7,0c-0.41,0-0.82,0-1.23,0c-0.28,0-0.56,0.01-0.82,0.1C13.21,4.61,12.9,4.7,12.6,4.8
		c-0.5,0.15-0.97,0.36-1.4,0.65c-0.26,0.17-0.54,0.34-0.78,0.54c-0.27,0.2-0.52,0.45-0.9,0.37C9.27,6.25,9.19,6.04,9.17,5.79
		c0-0.4,0.23-0.65,0.53-0.87c0.37-0.24,0.68-0.57,1.07-0.78c0.29-0.09,0.54-0.27,0.64-0.27c-0.05,0.01-0.31,0.08-0.56,0.17
		c-0.31,0.07-0.62,0.14-0.9,0.29C9.56,4.55,9.12,4.61,8.72,4.77c-0.27,0.1-0.53,0.22-0.82,0.17C7.72,4.86,7.59,4.77,7.68,4.55z"/>
	<path class="st3" d="M5.08,7.98c-0.63,0.15-0.69,0.79-1.02,1.2c-0.15,0.19-0.07,0.88-0.67,0.45C3.95,8.13,4.74,6.79,6,5.77
		c0.34-0.12,0.62-0.65,1.04-0.14c0.06,0.29-0.03,0.55-0.15,0.81c-0.21,0.3-0.53,0.49-0.72,0.81C6.02,7.45,5.85,7.64,5.65,7.81
		C5.48,7.94,5.31,8.06,5.08,7.98z"/>
	<path class="st4" d="M24.95,14.64c-0.15-0.23-0.29-0.46-0.44-0.69c-0.59-1.04-0.32-2.25-0.68-3.33c-0.11-0.56,0.17-0.79,0.69-0.8
		C25.34,11.37,25.15,13,24.95,14.64z"/>
	<path class="st5" d="M24.53,9.82c0.17,0.5-0.69,0.01-0.5,0.52c-0.09,0.08-0.19,0.09-0.29,0.04c-0.28-0.26-0.48-0.58-0.56-0.95
		c-0.04-0.56-0.48-0.9-0.73-1.35c-0.11-0.19-0.22-0.37-0.14-0.61c0.31-0.02,0.51-0.15,0.51-0.49C23.72,7.73,24.2,8.73,24.53,9.82z"
		/>
	<path class="st6" d="M6.97,5.7C6.63,5.4,6.34,5.86,6,5.77c0.44-0.57,0.95-1.05,1.68-1.22c0.12,0.1,0.23,0.2,0.35,0.3
		C7.9,5.4,7.7,5.88,6.97,5.7z"/>
	<path class="st7" d="M17.06,22.34c0.08,0,0.17,0.01,0.25,0.01c0.59,0.21,0.78,0.77,1.06,1.23c0.68,1.11,1.33,2.24,2.07,3.32
		l-0.01-0.01c1.5,2.48,3.02,4.95,4.8,7.24c0.29,0.38,0.61,0.74,0.73,1.22c-0.84,0.71-1.41,0.5-2.02-0.39
		c-2.5-3.69-4.95-7.41-7.32-11.18C16.1,22.93,16.16,22.59,17.06,22.34z"/>
	<path class="st8" d="M25.96,35.35c-2.3-2.52-4.02-5.42-5.53-8.46c1.86,2.62,3.73,5.24,5.59,7.86
		C26.19,34.98,26.21,35.17,25.96,35.35z"/>
	<path class="st8" d="M20.44,26.9c-1.34-1.31-1.97-3.11-3.13-4.55c0.36-0.28,0.57-0.07,0.76,0.22
		C18.75,24.08,19.86,25.34,20.44,26.9z"/>
	<path class="st9" d="M5.08,7.98C5.23,7.88,5.37,7.79,5.52,7.7C5.9,8.08,5.67,8.46,5.54,8.85C5.38,9.2,5.25,9.57,5.13,9.94
		C5,10.3,4.96,10.67,4.97,11.05c-0.06,0.91-0.16,1.81,0.03,2.71c0.04,0.11,0.06,0.21,0.09,0.32c0.1,0.42,0.24,0.84,0.39,1.25
		c0.17,0.55,0.38,1.09,0.72,1.56c0.36,0.45,0.66,0.94,1.02,1.4c0.33,0.36,0.73,0.63,1.08,0.96c0.36,0.29,0.75,0.53,1.15,0.76
		c0.36,0.2,0.7,0.43,1.06,0.65c0.21,0.2,0.64,0.23,0.53,0.68c-1.52,0.05-2.59-0.97-3.81-1.63c-0.89-0.41-1.57-1.03-1.96-1.93
		c-0.45-0.91-0.9-1.82-1.35-2.72c-0.51-0.82-0.25-1.71-0.26-2.58C3.7,10.85,4.32,9.39,5.08,7.98z"/>
	<path class="st10" d="M11.02,21.35c-0.1-0.34-0.46-0.33-0.68-0.51c-0.04-0.48,0.36-0.66,0.65-0.9c0.61-0.49,1.24-0.94,1.75-1.55
		c0.22-0.26,0.5-0.72,0.91-0.17c0.22,1.29,0.22,2.54-0.67,3.62C12.24,22.03,11.69,21.45,11.02,21.35z"/>
	<path class="st11" d="M12.99,21.84c0.3-1.26,0.61-2.52,0.42-3.84c-0.03-0.16,0.02-0.28,0.16-0.36c0.5-0.21,0.98-0.23,1.43,0.13
		c0.41,1.44,0.33,2.82-0.59,4.07C13.93,21.84,13.46,21.84,12.99,21.84z"/>
	<path class="st12" d="M23.8,10.29c0.08,0.01,0.15,0.03,0.23,0.05c0.47,1.16,0.46,2.38,0.49,3.6c-0.39,1.21-0.64,2.49-1.71,3.35
		c-0.22,0.07-0.3-0.07-0.36-0.24c-0.01-0.11,0.01-0.22,0.05-0.33c0.45-0.71,0.71-1.49,0.86-2.31c0.06-0.22,0.11-0.45,0.1-0.68
		c0-0.44,0-0.87-0.01-1.31c0-0.6-0.06-1.21,0.1-1.81C23.6,10.48,23.69,10.37,23.8,10.29z"/>
	<path class="st13" d="M14.41,21.84c0.36-1.33,0.54-2.68,0.46-4.06c0.16-0.14,0.34-0.15,0.54-0.06c0.41,0.59,0.41,1.31,0.6,1.97
		c-0.03,0.67-0.04,1.35-0.16,2.01C15.38,21.95,14.89,21.82,14.41,21.84z"/>
	<path class="st14" d="M22.57,17.04c0.08,0.09,0.16,0.17,0.24,0.26c-0.96,1.28-2.22,2.2-3.57,3.02c-0.09-0.08-0.15-0.17-0.16-0.29
		c0-0.32,0.22-0.51,0.44-0.68c0.53-0.34,1.04-0.71,1.46-1.18c0.26-0.25,0.52-0.51,0.77-0.76C21.99,17.21,22.19,16.92,22.57,17.04z"
		/>
	<path class="st15" d="M15.84,21.7c-0.35-0.66-0.26-1.32-0.04-1.99c0.22-0.23,0.48-0.23,0.75-0.12c0.39,0.37,0.34,0.83,0.26,1.3
		c-0.07,0.34-0.36,0.49-0.6,0.69C16.09,21.63,15.97,21.67,15.84,21.7z"/>
	<path class="st16" d="M3.65,12.48c0.09,0.86,0.17,1.72,0.26,2.58c-0.09,0.07-0.12,0.53-0.25,0.2C3.3,14.37,3.12,13.41,3.65,12.48z"
		/>
	<path class="st17" d="M5.25,17.79c0.65,0.64,1.31,1.29,1.96,1.93C6.38,19.7,5.34,18.67,5.25,17.79z"/>
	<path class="st18" d="M16.22,21.59c-0.01-0.28,0.2-0.39,0.41-0.49c0.19-0.2,0.41-0.35,0.69-0.39c0.17-0.01,0.33,0.02,0.47,0.12
		c0.08,0.1,0.07,0.19-0.01,0.28C17.29,21.37,16.78,21.58,16.22,21.59z"/>
	<path class="st19" d="M17.78,21.11c0-0.09,0-0.18-0.01-0.26c-0.04-0.32,0.23-0.42,0.42-0.56c0.26-0.14,0.5-0.33,0.78-0.44
		c0.11-0.02,0.19,0.03,0.24,0.13c0.01,0.11,0.02,0.23,0.03,0.34C18.81,20.68,18.31,20.93,17.78,21.11z"/>
	<path class="st20" d="M19.53,5.26c1.15,0.39,1.92,1.24,2.6,2.19c-0.39,0.78-1.38,0.79-1.84,1.47c-0.86,0.48-1.76,0.79-2.76,0.75
		c-0.48-0.88,0.26-1.47,0.51-2.17c0.22-0.33,0.41-0.68,0.55-1.06C18.84,6,19.01,5.48,19.53,5.26z"/>
	<path class="st21" d="M14.13,4.14c0.5-0.01,1-0.02,1.51-0.03c0.14,0.28-0.01,0.52-0.11,0.76c-0.41,0.52-0.03,0.98,0.11,1.45
		c-0.06,1.2,0.16,2.42-0.22,3.61c-0.52,0.25-1.03,0.53-1.59,0.11c-0.48-1.27-0.16-2.59-0.25-3.89C13.65,5.46,13.59,4.72,14.13,4.14z
		"/>
	<path class="st22" d="M19.53,5.26c-0.25,0.41-0.5,0.83-0.74,1.24c-0.48,0.16-0.78,0.41-0.52,0.97c-0.15,0.75-0.77,1.34-0.73,2.15
		c-0.17,0.31-0.45,0.49-0.79,0.59c-0.31-0.01-0.57-0.11-0.75-0.38C15.86,9.4,16.03,9,16.11,8.59c0.38-1.07,0.82-2.12,1.45-3.07
		C17.8,5.16,18,4.77,18.49,4.7C18.84,4.89,19.18,5.07,19.53,5.26z"/>
	<path class="st23" d="M13.95,6.04c0,1.35,0,2.71,0.01,4.06c0.01,0.26-0.13,0.31-0.35,0.26c-0.18-0.09-0.31-0.23-0.42-0.4
		c-0.59-1.32-0.88-2.72-1-4.15c-0.04-0.44-0.01-0.88,0.26-1.26c0.34-0.08,0.69-0.16,1.03-0.24c0.41,0.01,0.37,0.3,0.37,0.59
		C13.84,5.28,13.7,5.68,13.95,6.04z"/>
	<path class="st24" d="M12.44,4.56c0.03,1.94,0.37,3.82,1.16,5.6c-0.41,0.14-0.71-0.08-0.9-0.38c-0.88-1.4-1.68-2.84-1.58-4.58
		C11.52,4.9,11.95,4.67,12.44,4.56z"/>
	<path class="st25" d="M9.63,6.26c0.24-0.17,0.48-0.35,0.72-0.52c0.12-0.01,0.27,0,0.31,0.11c0.64,1.73,1.44,3.38,2.44,4.93
		c-0.03,0.2-0.13,0.33-0.33,0.39c-1.9-0.96-2.93-2.57-3.35-4.61C9.47,6.44,9.54,6.35,9.63,6.26z"/>
	<path class="st26" d="M12.98,10.81c-1.4-1.42-1.92-3.29-2.63-5.06c0.25-0.18,0.51-0.37,0.76-0.55c0.37,1.09,0.69,2.2,1.14,3.25
		c0.28,0.66,0.49,1.46,1.34,1.71c0.02,0.05,0.04,0.11,0.05,0.16C13.57,10.68,13.43,10.95,12.98,10.81z"/>
	<path class="st27" d="M6.97,5.7c0.35-0.28,0.7-0.57,1.06-0.85c0.22-0.12,0.43-0.24,0.65-0.35C9.6,4.47,9.29,5.1,9.26,5.58
		C8.89,6.49,8.39,7.3,7.5,7.81c-0.63-0.2-0.78-0.68-0.75-1.27C6.83,6.26,6.64,5.91,6.97,5.7z"/>
	<path class="st28" d="M18.49,4.7c-0.97,1.18-1.53,2.59-2.16,3.95c-0.95-0.52-0.46-1.36-0.47-2.09c0.05-0.14,0.1-0.32,0.24-0.39
		c0.81-0.4,0.73-0.87,0.12-1.4c-0.08-0.24-0.07-0.45,0.14-0.62C17.11,4.18,17.82,4.35,18.49,4.7z"/>
	<path class="st29" d="M7.52,7.74c0.55-0.65,0.91-1.46,1.64-1.96c0.07-0.12,0.15-0.12,0.22,0c0.01,0.2,0.05,0.38,0.25,0.48
		C9.61,6.37,9.6,6.47,9.58,6.57c-0.42,0.77-0.91,1.51-1.2,2.35c-0.14,0.3-0.16,0.64-0.35,0.92c-0.09,0.08-0.19,0.12-0.3,0.12
		C7.43,9.9,7.21,9.74,7.05,9.48c-0.12-0.26-0.2-0.53-0.18-0.82C6.98,8.28,7.12,7.92,7.52,7.74z"/>
	<path class="st30" d="M20.12,8.78c0.42-0.82,1.36-0.86,2.01-1.33c0.06,0.01,0.11,0.02,0.17,0.02c0.1,0.15,0.19,0.31,0.29,0.46
		C22.01,8.94,21.12,9.02,20.12,8.78z"/>
	<path class="st6" d="M9.38,5.78c-0.07,0-0.15,0-0.22,0C9.14,5.3,9.3,4.75,8.68,4.49C9.06,4.36,9.43,4.23,9.81,4.1
		c0.35,0.27,0.26,0.57,0.08,0.89C9.77,5.29,9.35,5.39,9.38,5.78z"/>
	<path class="st31" d="M10.8,3.86c0.46-0.4,1.04-0.22,1.57-0.31c-0.41,0.5-0.94,0.73-1.57,0.73C10.68,4.14,10.68,4,10.8,3.86z"/>
	<path class="st32" d="M10.8,3.86c0,0.14,0,0.28,0,0.42c-0.28,0.27-0.49,0.62-0.92,0.7C9.86,4.69,9.84,4.39,9.81,4.1
		C10.08,3.78,10.46,3.89,10.8,3.86z"/>
	<path class="st33" d="M13.95,6.04c-0.53-0.47,0-1.24-0.48-1.73c0.17-0.26,0.43-0.15,0.66-0.17C14.07,4.78,14.01,5.41,13.95,6.04z"
		/>
	<path class="st34" d="M16.36,4.16c0,0.21-0.01,0.42-0.01,0.64c-0.3,0.29-0.61,0.29-0.93,0.02c0.07-0.24,0.14-0.47,0.22-0.71
		C15.88,4.13,16.12,4.14,16.36,4.16z"/>
	<path class="st35" d="M6.98,8.78c0.07,0.19,0.14,0.37,0.21,0.56c-0.13,0.26,0.08,0.6-0.2,0.82c-0.91,0.07-1.42-0.42-1.73-1.21
		C5.24,8.52,5.69,8.17,5.52,7.7c0.15-0.17,0.3-0.34,0.45-0.51C6.85,7.38,7.21,7.9,6.98,8.78z"/>
	<path class="st36" d="M6.98,8.78c-0.12-0.66-0.54-1.14-1-1.59c0.02-0.5,0.31-0.68,0.77-0.65C7,6.94,7.26,7.34,7.52,7.74
		C7.44,8.14,7.25,8.48,6.98,8.78z"/>
	<path class="st37" d="M20.12,8.78c0.84-0.22,1.71-0.37,2.47-0.84c0.18,0.53,1.06,0.69,0.79,1.47c-1.59,0.8-3.4,0.93-4.99,1.69
		c-0.59,0.14-0.94-0.28-1.35-0.57c-0.12-0.13-0.2-0.27-0.19-0.46c0.11-0.33,0.4-0.39,0.69-0.45C18.39,9.34,19.26,9.06,20.12,8.78z"
		/>
	<path class="st38" d="M18.19,11.03c0.05-0.11,0.08-0.29,0.15-0.31c1.67-0.47,3.28-1.19,5.04-1.32c0.08,0.33,0.52,0.48,0.42,0.89
		c-0.02,0.1-0.04,0.19-0.06,0.29c-1.03,0.68-2.3,0.75-3.35,1.37c-0.65,0.12-1.26-0.06-1.87-0.26
		C18.29,11.53,18.13,11.33,18.19,11.03z"/>
	<path class="st39" d="M4.78,13.95c-0.38-1.04-0.23-2.08,0.02-3.11c0.95-0.37,1.62,0.15,2.28,0.71c0.26,0.6,0.4,1.22,0.24,1.87
		c-0.4,0.42-0.88,0.23-1.32,0.13C5.49,13.44,5.09,13.52,4.78,13.95z"/>
	<path class="st40" d="M5.98,17.04c-0.4-0.47-0.63-1.02-0.71-1.64c0.75-0.62,1.68-0.59,2.58-0.7c0.7,0.37,1.35,0.77,1.27,1.71
		C8.13,16.88,7.08,17.12,5.98,17.04z"/>
	<path class="st41" d="M9.37,20.28c-0.43-0.21-0.88-0.38-1.14-0.81c0.62-1,1.65-1.6,2.39-2.48c0.6,0.07,1.12,0.27,1.48,0.78
		C11.64,19.1,10.58,19.78,9.37,20.28z"/>
	<path class="st42" d="M5.98,17.04c0.99-0.46,2.08-0.54,3.13-0.74c0.48-0.23,0.71,0.02,0.83,0.45c-0.69,1.07-1.54,1.86-2.93,1.75
		C6.67,18.01,6.33,17.52,5.98,17.04z"/>
	<path class="st43" d="M9.37,20.28c0.93-0.79,1.93-1.5,2.66-2.5c0.48-0.36,0.95-0.42,1.39,0.07c-0.01,0.05-0.01,0.1-0.01,0.15
		c-0.81,1.17-2.01,1.93-3.07,2.83C10.02,20.65,9.69,20.46,9.37,20.28z"/>
	<path class="st44" d="M7.02,18.49c1.17-0.2,1.96-1.04,2.86-1.7c0.32-0.09,0.56,0.01,0.7,0.32c-0.38,1.19-1.51,1.63-2.35,2.35
		C7.74,19.25,7.38,18.86,7.02,18.49z"/>
	<path class="st45" d="M4.78,13.95c0.01-0.48-0.19-1.09,0.74-0.75c0.51,0.19,1.1,0.15,1.65,0.21c0.5,0.24,0.8,0.55,0.46,1.13
		c-0.98,0.35-1.91,0.3-2.74-0.38C4.84,14.09,4.8,14.02,4.78,13.95z"/>
	<path class="st46" d="M4.88,14.15c0.93,0.13,1.86,0.36,2.82,0.29c0.21,0.06,0.32,0.18,0.25,0.42c-0.89,0.18-1.78,0.36-2.67,0.54
		C5.05,15.02,4.92,14.6,4.88,14.15z"/>
	<path class="st47" d="M5.26,8.96c0.55,0.4,1.01,0.94,1.7,1.13c0.33,0.34,0.3,0.68,0,1.02c-0.91,0.01-1.63-0.32-2.03-1.2
		C4.97,9.56,5.02,9.23,5.26,8.96z"/>
	<path class="st48" d="M4.94,9.9c0.61,0.39,1.22,0.78,1.83,1.18c0.16,0.06,0.24,0.18,0.26,0.35c-0.04,0.04-0.07,0.07-0.11,0.11
		c-0.72-0.19-1.35-0.66-2.12-0.7C4.28,10.44,4.92,10.22,4.94,9.9z"/>
	<path class="st49" d="M7.94,14.86c-0.08-0.14-0.17-0.28-0.25-0.42c-0.18-0.35-0.35-0.69-0.53-1.04C7.08,12.78,7,12.16,6.92,11.54
		c0,0,0.09,0,0.09,0c0.27-0.15,0.33-0.8,0.85-0.37c0.41,0.99,0.45,2.09,1.09,3.03c2.18,3.22,6.29,3.4,8.68,0.35
		c0.15-0.19,0.28-0.39,0.52-0.47c0.26-0.05,0.47,0.05,0.64,0.24c0.1,0.15,0.13,0.32,0.11,0.5c-0.11,0.44-0.39,0.78-0.63,1.15
		c-0.15,0.22-0.33,0.41-0.55,0.55c-0.21,0.14-0.41,0.3-0.59,0.48c-0.23,0.22-0.47,0.42-0.75,0.57c-0.34,0.12-0.64,0.47-1.05,0.2
		c-0.16,0.01-0.32,0.01-0.48,0.02c-0.48,0.02-0.97,0.04-1.45,0.07c-0.46-0.02-0.93-0.05-1.39-0.07c-0.48-0.22-0.97-0.44-1.45-0.66
		c-0.23-0.11-0.47-0.21-0.7-0.32c-0.17-0.29-0.43-0.46-0.77-0.49C8.72,15.82,8.33,15.34,7.94,14.86z"/>
	<path class="st50" d="M23.69,14.29c-0.31,0.89-0.22,1.95-1.11,2.59c-1.51-0.6-2.55-1.8-3.73-2.83c-0.02-0.21,0.04-0.38,0.22-0.5
		c1.15-0.44,2.27,0.02,3.4,0.08C22.97,13.69,23.42,13.83,23.69,14.29z"/>
	<path class="st51" d="M18.5,11.55c0.63,0.06,1.26,0.12,1.89,0.18c1.25-0.19,2.39,0.07,3.4,0.85c0.11,0.49,0.03,0.98-0.08,1.46
		c-1.53-0.56-3.05-1.16-4.68-1.39C18.63,12.4,18.35,12.07,18.5,11.55z"/>
	<path class="st52" d="M23.79,12.59c-1.13-0.28-2.26-0.57-3.4-0.85c0.98-0.76,2.15-0.99,3.34-1.16
		C23.87,11.24,23.92,11.91,23.79,12.59z"/>
	<path class="st53" d="M19.01,14.13c1.4,0.65,2.38,1.85,3.58,2.75c-0.01,0.05-0.01,0.1-0.01,0.16c-0.19,0.17-0.39,0.33-0.58,0.5
		c-1.3-0.64-2.34-1.6-3.29-2.66c0.02-0.15,0.04-0.3,0.06-0.46C18.78,14.27,18.86,14.17,19.01,14.13z"/>
	<path class="st54" d="M18.98,12.5c1.76-0.05,3.31,0.55,4.73,1.54c-0.01,0.08-0.01,0.16-0.02,0.24c-0.37-0.13-0.75-0.26-1.12-0.39
		c-1.16-0.5-2.52-0.14-3.63-0.85C18.84,12.86,18.85,12.67,18.98,12.5z"/>
	<path class="st55" d="M15.34,17.76c0.32-0.14,0.65-0.29,0.97-0.43c0.4,0.32,0.5,0.77,0.57,1.25c0,0.41,0.05,0.83-0.33,1.13
		c-0.25,0-0.5,0.01-0.74,0.01C15.39,19.13,15.46,18.42,15.34,17.76z"/>
	<path class="st56" d="M18.7,14.87c1.22,0.73,2.31,1.63,3.29,2.66c-0.27,0.26-0.54,0.52-0.8,0.79c-1.11-0.21-1.67-1.2-2.53-1.76
		c-0.23-0.22-0.57-0.37-0.56-0.76C18.3,15.49,18.5,15.18,18.7,14.87z"/>
	<path class="st57" d="M18.1,15.79c0.21,0.18,0.42,0.36,0.63,0.55c0.62,0.94,1.39,1.83,1,3.1c-0.17,0.18-0.34,0.36-0.52,0.54
		c-0.06,0.01-0.12,0.02-0.18,0.03c-0.99-1.01-1.25-2.32-1.47-3.64C17.74,16.17,17.92,15.98,18.1,15.79z"/>
	<path class="st58" d="M19.73,19.44c-0.15-1.09-0.7-2.05-1-3.1c0.82,0.66,1.63,1.32,2.45,1.98C20.78,18.8,20.32,19.21,19.73,19.44z"
		/>
	<path class="st59" d="M16.55,19.7c0-0.45-0.01-0.89-0.01-1.34c0.96,0.62,1.08,1.5,0.77,2.51c-0.23,0.07-0.46,0.15-0.69,0.22
		C16.6,20.63,16.57,20.17,16.55,19.7z"/>
	<path class="st60" d="M17.31,20.88c-0.17-0.86-0.25-1.75-0.77-2.51c-0.08-0.35-0.15-0.69-0.23-1.04c0.25-0.19,0.51-0.38,0.76-0.56
		c0.92,0.67,1.55,2.51,1.25,3.7c-0.18,0.13-0.37,0.26-0.55,0.39C17.62,20.86,17.47,20.87,17.31,20.88z"/>
	<path class="st61" d="M18.33,20.46c-0.19-1.31-0.53-2.57-1.25-3.7c0.16-0.13,0.32-0.27,0.48-0.4c0.67,1.14,0.97,2.43,1.47,3.64
		C18.87,20.27,18.65,20.45,18.33,20.46z"/>
	<path class="st62" d="M18.27,7.47c-0.27-0.22-0.8-0.32-0.5-0.85c0.26-0.45,0.66-0.25,1.02-0.12C18.81,6.93,18.62,7.24,18.27,7.47z"
		/>
	<path class="st63" d="M16.85,10.06c0.06,0.08,0.12,0.17,0.18,0.25c-0.44,0.48-1.04,0.29-1.57,0.35c-1.19,0.13-1.74,0.65-1.91,1.86
		c-0.14,0.35,0.14,1.02-0.66,0.86c-0.26-0.24-0.37-0.55-0.42-0.89c-0.02-0.46-0.1-0.93,0.29-1.3c0.08-0.13,0.15-0.26,0.23-0.39
		c0.22-0.16,0.45-0.33,0.67-0.49c0.1-0.07,0.2-0.14,0.31-0.22c0.45-0.1,0.9-0.2,1.34-0.3c0.26-0.13,0.52-0.2,0.79-0.02
		C16.34,9.87,16.6,9.97,16.85,10.06z"/>
	<path class="st64" d="M16.09,9.78c-0.26,0.01-0.53,0.01-0.79,0.02c0.02-1.23,0.03-2.46,0.05-3.69c0.31-0.34,0.57-0.38,0.76,0.11
		c0.1,0.81-0.23,1.65,0.21,2.43C16.25,9.03,16.17,9.4,16.09,9.78z"/>
	<path class="st65" d="M16.11,6.23c-0.23-0.21-0.49-0.17-0.76-0.11c-0.69-0.47-0.7-0.9,0.07-1.29c0.31-0.01,0.62-0.02,0.93-0.02
		c0.48,0.09,0.98,0.27,0.88,0.85C17.14,6.21,16.57,6.19,16.11,6.23z"/>
	<path class="st66" d="M12.75,11.19c-0.01,0.4-0.03,0.8-0.04,1.2c-0.15,0.19-0.36,0.17-0.53,0.08c-1.7-0.83-3.06-2.02-4.01-3.67
		C8.41,7.92,8.76,7.1,9.58,6.57C10.16,8.44,11.35,9.89,12.75,11.19z"/>
	<path class="st67" d="M12.88,13.21c0.33,0.14,0.33,0.14,0.39-0.7c0.81,0.32,0.19,1.34,0.85,1.73c0.11,0.13,0.22,0.27,0.32,0.42
		c0.25,0.43,0.57,0.85,0.22,1.37c-0.67,0.55-1.42,0.42-2.18,0.28c-0.43-0.19-0.37-0.52-0.27-0.89c0.05-0.22,0.4-0.48-0.04-0.67
		c-0.68-0.08-1.35,0.07-2.02,0.02c-0.54-0.31-1.14-0.58-0.98-1.38c0.67-0.38,1.32-0.22,1.98-0.02c-0.86-0.23-1.75-0.42-2.52-0.93
		c-0.75-0.41-0.56-1.34-1.07-1.88c-0.07-0.26-0.06-0.5,0.16-0.7c0.08-0.01,0.15-0.01,0.23-0.01c0.32-0.13,0.56,0.06,0.74,0.26
		C9.87,11.43,11.37,12.32,12.88,13.21z"/>
	<path class="st68" d="M12.88,13.21c-1.63-0.26-2.72-1.4-3.89-2.39c-0.36-0.31-0.69-0.65-1.04-0.97c-0.01-0.36,0-0.72,0.23-1.03
		c1.39,1.35,2.57,2.96,4.54,3.59C12.77,12.67,12.82,12.94,12.88,13.21z"/>
	<path class="st69" d="M7.71,9.86c0.01,0.25,0.02,0.51,0.03,0.76c0.09,0.16,0.11,0.32-0.05,0.45c-0.3,0.06-0.1,0.83-0.68,0.48
		c-0.08-0.15-0.15-0.31-0.23-0.46c0.28-0.29,0.18-0.65,0.19-1c0.03-0.26-0.01-0.54,0.23-0.74C7.37,9.51,7.54,9.69,7.71,9.86z"/>
	<path class="st70" d="M13.94,14.33c-1.07-0.29-0.12-1.33-0.68-1.81c-0.04-1.19,0.76-2.08,1.97-2.16c0.59-0.04,1.19-0.02,1.79-0.03
		c0.39,0.24,0.78,0.47,1.17,0.71c0.1,0.17,0.2,0.35,0.31,0.52c0.16,0.32,0.32,0.64,0.48,0.95c0.02,0.15,0.04,0.31,0.06,0.46
		c0.15,0.25,0.15,0.5-0.02,0.75c-0.01,0.14-0.01,0.27-0.02,0.41c-0.08,0.1-0.16,0.19-0.25,0.29c-0.17-0.08-0.34-0.16-0.51-0.24
		c-0.49-0.54-0.14-1.35-0.6-1.91c-0.1-0.13-0.2-0.26-0.32-0.37c-1.14-0.76-1.77-0.75-2.87,0.03c-0.23,0.37,0.08,0.55,0.27,0.77
		c0.16,0.96,0.83,0.1,1.19,0.34c0.08,0.1,0.13,0.21,0.15,0.34c0.03,0.51-0.11,0.93-0.56,1.21C14.94,14.8,14.4,14.77,13.94,14.33z"/>
	<path class="st71" d="M17.76,11.87c0.59,0.68,0.6,1.48,0.49,2.3c-2.64,4.5-7.9,3.12-9.79-0.13c-0.55-0.94-0.59-1.97-0.77-2.98
		c0.02-0.15,0.04-0.3,0.05-0.45c0.66,0.35,0.3,1.27,0.93,1.63c0.3,0.37,0.71,0.7,0.52,1.27c0.22,0.43,0.52,0.8,0.91,1.09
		c0.44,0.3,0.96,0.44,1.44,0.65c0.33,0.2,0.5,0.55,0.75,0.83c0.81-0.05,1.66,0.24,2.43-0.26c0.23-0.27,0.55-0.41,0.84-0.59
		c0.21-0.14,0.38-0.32,0.56-0.48c0.37-0.28,0.77-0.51,1.04-0.89c0.24-0.29,0.35-0.63,0.34-1.01c0-0.17,0.01-0.34,0.03-0.51
		C17.55,12.16,17.61,11.99,17.76,11.87z"/>
	<path class="st72" d="M19.02,13.72c0.01-0.25,0.01-0.5,0.02-0.75c1.17,0.35,2.44,0.28,3.53,0.93
		C21.39,13.84,20.2,13.78,19.02,13.72z"/>
	<path class="st73" d="M9.18,13.51c-0.21-0.41-0.5-0.78-0.52-1.27c0.89,0.33,1.77,0.66,2.66,1c0,0.06-0.01,0.12-0.01,0.18
		C10.6,13.45,9.89,13.48,9.18,13.51z"/>
	<path class="st74" d="M11.51,15.39c-0.7,0.14-1.09-0.26-1.41-0.79c0.77-0.19,1.54-0.15,2.32-0.07
		C12.46,15.19,12.01,15.32,11.51,15.39z"/>
	<path class="st75" d="M11.51,15.39c0.3-0.29,0.61-0.57,0.91-0.86c0.35-0.04,0.7-0.11,0.39,0.45c-0.2,0.36-0.74,0.55-0.52,1.11
		C11.91,15.97,11.59,15.82,11.51,15.39z"/>
	<path class="st76" d="M15.69,15.45c-0.3,0.2-0.59,0.42-0.99,0.36c-0.21-0.39-0.42-0.79-0.63-1.18
		C14.79,14.58,15.68,14.15,15.69,15.45z"/>
	<path class="st77" d="M15.69,15.45c-0.25-0.85-0.86-0.97-1.61-0.82c-0.05-0.1-0.09-0.21-0.14-0.31c0.55,0.03,1.11,0.05,1.66,0.08
		c0.41-0.08,0.57,0.13,0.56,0.51C16.13,15.2,16.02,15.42,15.69,15.45z"/>
	<path class="st78" d="M17.76,11.87c-0.03,0.19-0.05,0.38-0.08,0.56c-0.55,0.61-1.25,0.33-1.91,0.33c-0.39,0.06-0.77,0.09-1.16,0.01
		c-0.74-0.08-0.88-0.41-0.43-1c1.17-0.94,2.33-0.61,3.49,0C17.74,11.79,17.77,11.82,17.76,11.87z"/>
	<path class="st79" d="M16.16,14.91c-0.19-0.17-0.37-0.34-0.56-0.51c0.1-0.37,0.2-0.74,0.3-1.11c0.8-0.44,1.15,0.11,1.48,0.68
		C17.1,14.45,16.76,14.85,16.16,14.91z"/>
	<path class="st80" d="M14.62,12.78c0.27-0.35,0.65-0.23,1.01-0.23c0.15,0.05,0.27,0.14,0.3,0.31c-0.02,0.05-0.05,0.09-0.07,0.14
		c-0.09,0.05-0.23,0.08-0.27,0.16c-0.17,0.38-0.41,0.73-0.85,0.59C14.1,13.54,14.85,13.09,14.62,12.78z"/>
	<path class="st81" d="M17.38,13.98c-0.48-0.25-0.89-0.65-1.48-0.68c-0.02-0.1-0.03-0.2-0.05-0.29c0-0.04-0.01-0.09-0.03-0.13
		c0.64-0.13,1.28-0.35,1.86,0.17C17.81,13.43,17.69,13.73,17.38,13.98z"/>
	<path class="st82" d="M17.68,11.78c-1.16-0.34-2.33-0.61-3.49,0C15.48,10.73,16.35,10.73,17.68,11.78z"/>
	<path class="st83" d="M17.68,13.04c-0.62-0.06-1.24-0.11-1.86-0.17c-0.07-0.11-0.13-0.22-0.2-0.32c0.69-0.04,1.37-0.07,2.06-0.11
		C17.68,12.64,17.68,12.84,17.68,13.04z"/>
</g>
</svg>
