<?xml version="1.0" encoding="utf-8"?>
<!-- Generator: Adobe Illustrator 23.0.2, SVG Export Plug-In . SVG Version: 6.00 Build 0)  -->
<svg version="1.1" id="Camada_1" xmlns="http://www.w3.org/2000/svg" xmlns:xlink="http://www.w3.org/1999/xlink" x="0px" y="0px"
	 viewBox="0 0 18.27 24.99" style="enable-background:new 0 0 18.27 24.99;" xml:space="preserve">
<style type="text/css">
	.st0{fill:#0D0B0E;}
	.st1{fill:#6E172F;}
	.st2{fill:#CACACA;}
	.st3{fill:#8A8989;}
	.st4{fill:#C5404A;}
	.st5{fill:#AE202B;}
	.st6{fill:#F9EEEF;}
</style>
<g>
	<path class="st0" d="M1.93,8.99c0.04-3.12,1.45-5.09,4.43-6.1c0.75-0.26,1.54-0.42,2.32-0.6c4.99-1.15,8.03,3.87,7.04,7.5
		c-0.41,1.49-0.97,2.89-2.29,3.81c-0.45,0.31-0.49,0.59-0.34,1.09c0.52,1.72,0.99,3.45,1.42,5.2c0.35,1.45-0.34,2.47-1.83,2.85
		c-1.32,0.34-2.19-0.26-2.6-1.76c-0.44-1.62-0.95-3.22-1.35-4.84c-0.18-0.75-0.52-0.98-1.29-1.04C4.5,14.87,1.89,11.92,1.93,8.99z"
		/>
	<path class="st1" d="M9.6,13.7C5.08,14.52,2.44,10.64,3.66,7c0.26-0.77,0.67-1.4,1.39-1.87c1.77-1.18,3.7-1.67,5.79-1.52
		c1.71,0.12,3.43,2.14,3.58,4.11c0.19,2.49-0.74,4.35-3,5.49C10.86,13.56,10.36,14.12,9.6,13.7z"/>
	<path class="st2" d="M11.28,14.42c0.49,1.68,0.98,3.35,1.47,5.03c0.07,0.23,0.1,0.47,0.18,0.7c0.17,0.53-0.1,0.94-0.52,1.06
		c-0.46,0.14-0.63-0.34-0.74-0.72c-0.46-1.61-0.9-3.23-1.36-4.84C10.1,14.82,10.29,14.3,11.28,14.42z"/>
	<path class="st3" d="M11.28,14.42c-0.63,0.16-0.97,0.56-0.97,1.22c-0.49-0.55-0.47-1.29-0.71-1.94c0.61-0.16,1.22-0.33,1.82-0.49
		C11.08,13.58,11.35,14.02,11.28,14.42z"/>
	<path class="st4" d="M7.45,4.58c2.98-1.1,4.87-0.33,6.14,2.23c0.83,1.69,0.4,3.33-0.86,4.72c-1.97,0.87-3.85,0.9-5.54-0.65
		C5.28,9.12,4.92,6.28,7.45,4.58z"/>
	<path class="st5" d="M7.45,4.58C7.17,5.54,6.12,6,5.99,7.11c-0.31,2.64,2.23,5.27,5.33,4.6c0.47-0.1,0.93-0.17,1.41-0.18
		c-1.56,1.62-3.6,2.01-5.59,1.54c-2.03-0.48-3.27-2.52-3.29-4.48C3.84,6.44,5.28,5.46,7,4.7C7.14,4.64,7.3,4.62,7.45,4.58z"/>
	<path class="st6" d="M10.55,4.52c0.47,0.04,0.76,0.38,0.89,0.79c0.12,0.4-0.25,0.57-0.56,0.58c-0.52,0.02-0.75-0.36-0.82-0.82
		C10.01,4.74,10.21,4.57,10.55,4.52z"/>
</g>
</svg>
