<?xml version="1.0" encoding="utf-8"?>
<!-- Generator: Adobe Illustrator 23.0.2, SVG Export Plug-In . SVG Version: 6.00 Build 0)  -->
<svg version="1.1" id="Camada_1" xmlns="http://www.w3.org/2000/svg" xmlns:xlink="http://www.w3.org/1999/xlink" x="0px" y="0px"
	 viewBox="0 0 55.02 46.37" style="enable-background:new 0 0 55.02 46.37;" xml:space="preserve">
<style type="text/css">
	.st0{fill:#643A15;}
	.st1{fill:#E7BA7C;}
	.st2{fill:#9E6F37;}
	.st3{fill:#B2702F;}
	.st4{fill:#CA8142;}
	.st5{fill:#9B6321;}
	.st6{fill:#9E7030;}
	.st7{fill:#B87A36;}
	.st8{fill:#C88341;}
	.st9{fill:#BD7433;}
	.st10{fill:#C88847;}
	.st11{fill:#9F6421;}
	.st12{fill:#CE9551;}
	.st13{fill:#CD8D4F;}
	.st14{fill:#B07231;}
	.st15{fill:#AB7C3B;}
	.st16{fill:#D69557;}
	.st17{fill:#C07938;}
	.st18{fill:#B98346;}
	.st19{fill:#AA6D2A;}
	.st20{fill:#AB7739;}
	.st21{fill:#C57C3C;}
	.st22{fill:#A47739;}
	.st23{fill:#AF7C3F;}
	.st24{fill:#CF9652;}
	.st25{fill:#CA904C;}
	.st26{fill:#935E2C;}
	.st27{fill:#A16836;}
	.st28{fill:#AB6B29;}
	.st29{fill:#975C28;}
	.st30{fill:#C07838;}
	.st31{fill:#BB793A;}
	.st32{fill:#BB8242;}
	.st33{fill:#C57938;}
	.st34{fill:#B87F41;}
	.st35{fill:#B37738;}
	.st36{fill:#B47434;}
	.st37{fill:#9E5D2A;}
	.st38{fill:#8F5521;}
	.st39{fill:#945B27;}
	.st40{fill:#9C5B28;}
	.st41{fill:#985C2A;}
	.st42{fill:#A46635;}
	.st43{fill:#C88144;}
	.st44{fill:#9C5C29;}
	.st45{fill:#9F5D28;}
	.st46{fill:#B77A3B;}
	.st47{fill:#9F602B;}
	.st48{fill:#A66834;}
	.st49{fill:#6E4119;}
	.st50{fill:#935A27;}
	.st51{fill:#935B27;}
	.st52{fill:#985E2B;}
	.st53{fill:#9E5D2B;}
	.st54{fill:#945B28;}
	.st55{fill:#9B6624;}
	.st56{fill:#B77536;}
	.st57{fill:#DAAC6E;}
	.st58{fill:#9D6E2F;}
	.st59{fill:#BD7639;}
	.st60{fill:#CB8E4A;}
	.st61{fill:#C39859;}
	.st62{fill:#C19251;}
	.st63{fill:#A76B2A;}
	.st64{fill:#97774B;}
	.st65{fill:#C98F4C;}
	.st66{fill:#C48C49;}
	.st67{fill:#C58F4C;}
	.st68{fill:#C08B48;}
	.st69{fill:#EBBE7F;}
	.st70{fill:#C48A47;}
	.st71{fill:#CB924F;}
	.st72{fill:#E0B274;}
	.st73{fill:#E6B97A;}
</style>
<g>
	<path d="M35.26,45.04c-3.07,0.52-6.1-0.75-9.21-1.29c-1.36-0.23-2.72-1.07-3.8-2.12c-0.57-0.56-1.18-1.08-1.77-1.61
		c-0.15-0.13-0.39-0.27-0.41-0.42c-0.25-1.82-1.94-3.11-1.82-5.05c0.04-0.56-0.15-0.8-0.73-0.99c-3.94-1.3-7.56-3.32-11.29-5.09
		c-5.43-2.58-4.13-8.35-1.69-11.82c0.46-0.65,1.01-1.23,1.52-1.85c-0.63-0.48-1.26-0.95-1.87-1.44c-1.79-1.42-2.86-3.21-2.76-5.55
		c0.05-1.27,0.55-2.13,1.77-2.9c4.47-2.84,9.42-3.14,14.46-3.21c0.77-0.01,1.43,0.43,2.16,0.61c3.12,0.77,6.29,1.42,9.12,3.06
		c0.82,0.47,1.69,0.37,2.56,0.33c3.85-0.2,7.65-0.11,11.27,1.51c2.51,1.12,4.41,2.81,5.49,5.38c0.31,0.73,0.45,1.49,0.26,2.22
		c-0.78,3.02-2.41,5.36-5.52,5.9c-0.26,0.05-0.62-0.04-0.69,0.32c-0.07,0.32,0.24,0.47,0.46,0.64c0.57,0.47,1.12,1.12,1.22,1.73
		c0.25,1.46,1.36,1.8,2.41,2.32c3.62,1.8,6.26,4.47,6.9,8.58c0.57,3.64-0.08,4.71-3.58,6.84C45.35,43.8,40.67,45.44,35.26,45.04z"/>
	<path class="st0" d="M19.73,33.15c-1.98-0.93-4.13-1.43-6.11-2.38c-2.59-1.25-5.18-2.48-7.69-3.9c-2.05-1.16-2.52-3.01-2.24-5.11
		c0.35-2.64,1.69-4.78,3.71-6.49c0.68-0.57,1.02-0.87-0.13-1.38c-1.61-0.72-3.14-1.69-3.96-3.34C2.25,8.43,2.15,7.02,4.36,5.57
		c2.09-1.36,4.43-1.69,6.75-2.2c4.23-0.93,8.28-0.14,12.33,1.03c1.58,0.46,3.08,1.09,4.56,1.78c1.16,0.54,2.34,0.77,3.69,0.66
		c4.22-0.33,8.36-0.03,12.15,2.23c1.83,1.09,3.04,2.65,3.44,4.67c0.44,2.22-1.75,5.13-4.04,5.68c-0.92,0.22-1.84,0.43-2.9,0.68
		c0.79,0.81,0.88,1.92,1.78,2.65c0.57,0.46,1,1.23,1.13,2.06c0.1,0.64,0.46,0.98,1.09,1.26c1.76,0.75,3.42,1.65,4.86,3
		c1.69,1.59,2.66,3.52,3.03,5.7c0.28,1.63-0.04,3.2-1.59,4.32c-4.43,3.21-9.3,5.03-14.83,4.81c-1.46-0.06-2.93,0.35-4.37-0.15
		c0.47-0.61,1.36-0.17,1.84-0.75c0.65-0.42,1.38-0.37,2.09-0.34c5.58,0.23,10.46-1.65,14.92-4.87c0.29-0.21,0.57-0.43,0.78-0.73
		c0.43-0.9,0.22-1.84,0.13-2.76c-0.79-1.87-1.87-3.52-3.45-4.82c-0.23-0.16-0.43-0.36-0.64-0.53c-1.3-0.73-2.51-1.63-3.95-2.08
		c-0.23-0.07-0.46-0.14-0.83-0.2c1.95,1.86,3.21,3.87,2.19,6.59c-1.19,1.26-1.84,1.13-2.43-0.49c-0.31-0.86-0.56-1.74-0.99-2.55
		c-0.55-1.26-1.5-2.23-2.34-3.29c-0.3-0.38-0.73-0.45-1.19-0.44c-0.82,0.02-1.65-0.08-2.63,0.1c1.12,1.35,2.2,2.56,3.01,3.96
		c0.68,1.07,0.95,2.23,0.73,3.49c-0.07,0.33-0.19,0.63-0.4,0.89c-1.07,0.6-1.77,0.45-2.37-0.54c-0.29-0.47-0.49-0.99-0.62-1.53
		c-0.08-1.32-0.97-2.13-1.85-2.95c-0.75-0.9-1.76-1.5-2.67-2.22c-0.43-0.34-0.87-0.35-1.35-0.21c-0.92,0.26-1.87,0.42-2.81,0.64
		c-1.67,0.43-3.41,0.67-4.81,1.82c-0.51,0.19-1.01,0.21-1.51-0.01c-0.43-0.79,0.35-0.93,0.7-1.3c0.85-0.6,1.85-0.88,2.81-1.23
		c0.87-0.3,1.75-0.55,2.64-0.78c0.99-0.25,2.01-0.39,2.99-0.69c2.71-0.6,5.46-0.93,8.23-1.04c1.23,0.11,2.48-0.07,3.7,0.16
		c0.26,0.05,0.59,0.19,0.75-0.13c0.12-0.23-0.08-0.46-0.2-0.66c-1.08-1.8-2.36-3.41-4.12-4.59c-1.11-1.02-2.42-1.74-3.75-2.43
		c-0.44-0.23-0.88-0.33-1.36-0.14c-2.04,0.5-2.44,2.24-2.93,3.9c-0.53,1.28-1.07,2.55-2.57,3c-1-0.02-1.31-0.67-1.31-1.51
		c0-1,0.13-1.99,0.45-2.94c0.32-0.59,0.4-1.29,0.82-1.83c0.6-0.93,1.42-1.64,2.33-2.22c-1.85-1.1-5.79,0.95-6.41,3.08
		c-0.32,0.74-0.69,1.46-1.06,2.18c-0.59,0.77-0.85,1.75-1.62,2.41c-1.46,0.8-2.37,0.33-2.45-1.28c-0.02-0.43-0.01-0.86-0.01-1.29
		c0.17-1.89,0.92-3.51,2.23-4.89c0.82-0.62,1.52-1.39,2.51-1.85c-3.75-0.33-6.24,1.27-7.28,4.63c-0.08,0.28-0.19,0.54-0.31,0.8
		c-0.1,0.22-0.19,0.44-0.28,0.66c-0.2,0.55-0.35,1.12-0.63,1.65c-0.59,1.13-1.21,1.28-2.36,0.57c-0.66-1.21-0.35-2.46-0.15-3.7
		c0.45-1.64,1.36-3.05,2.39-4.65c-2.45,0.44-4.54,1.26-6.38,2.68c-0.76,0.56-1.3,1.3-1.74,2.13c-0.34,0.65-0.7,1.29-0.88,2.01
		c-0.19,0.99-0.43,1.98-0.39,3C4.69,24,4.62,24.41,5,24.68c1.14,1.01,2.5,1.67,3.85,2.34c1.95,0.97,3.87,2,5.91,2.8
		c1.78,0.87,3.67,1.42,5.56,1.97C20.52,32.41,20.63,32.99,19.73,33.15z"/>
	<path class="st1" d="M33.42,43.24c-0.48,0.84-1.28,0.43-1.96,0.51c-1.33-0.72-2.84-0.67-4.26-0.94c-1.57-0.3-2.87-1.09-4.09-2.05
		c-0.62-0.49-1.18-1.06-1.77-1.59c-0.06-0.05-0.16-0.11-0.17-0.16c-0.13-1.78-2.05-2.95-1.68-4.9c0.15-0.15,0.08-0.59,0.4-0.45
		c0.37,0.15,0.32,0.59,0.37,0.94c-0.11,1.03,0.62,1.64,1.15,2.36c0.71,2.26,2.79,3.15,4.48,4.44c0.67,0.51,1.48,0.57,2.27,0.68
		c0.5,0.17,1.03,0.09,1.54,0.17c0.31,0.05,0.63,0.23,0.93,0.16c0.46-0.11,0.81-0.13,0.83-0.94c0.02-0.96,0.15-2.02,0.48-2.97
		c0.14-0.4,0.45-0.91,1.08-0.5c0.25,0.86-0.08,1.75,0.09,2.61C33,41,32.78,41.39,32.9,41.83C32.7,42.44,33.34,42.74,33.42,43.24z"/>
	<path class="st2" d="M19.98,34.78c-0.05-0.95-0.05-0.95-0.49-0.69c-0.1-0.36,0.12-0.64,0.24-0.95c0.63-0.33,0.42-0.91,0.45-1.43
		c-0.06-0.12-0.04-0.21,0.06-0.3c0.33,0.04,0.32,0.27,0.29,0.51c0.12-0.34-0.16-0.64-0.11-0.97c0.06-0.43,0.06-0.93,0.74-0.74
		c0.42,1.28,0.14,2.5-0.36,3.68C20.64,34.27,20.56,34.78,19.98,34.78z"/>
	<path class="st3" d="M8.47,9.83c1.01,0.58,1.5-0.1,1.84-0.85c0.8-1.75,1.74-3.38,3.25-4.64c0.43-0.36,0.81-0.61,1.45-0.41
		c-0.72,1.35-1.47,2.67-1.52,4.2c-0.02,0.57-0.28,1.35,0.69,1.51c0.88,0.14,1.32-0.36,1.61-1.09c0.09-0.22,0.19-0.43,0.29-0.64
		c0.94-0.41,1.67-1.24,2.74-1.39c0.29,0.38,0.19,0.84,0.25,1.26c0.03,0.24,0.07,0.5,0.33,0.58c0.38,0.12,0.47-0.23,0.57-0.46
		c0.39-0.91,0.76-1.83,1.35-2.64c0.15-0.2,0.33-0.34,0.56-0.43c0.66-0.4,1.23,0.09,1.82,0.23c1.6,0.37,3.05,1.1,4.71,2
		c-2.14,0.5-4.08,0.79-5.89,1.57c-1.77,0.76-3.51,1.56-4.77,3.08c-0.49,0.59-1.1,0.51-1.72,0.59c-1.77,0.24-3.53,0.54-5.22,1.12
		c-1.04-0.26-2.05-0.56-2.9-1.25c-0.37-0.3-0.75-0.58-0.81-1.11C7.31,10.38,7.64,9.82,8.47,9.83z"/>
	<path class="st4" d="M32.67,16.82c0.28-0.15,0.57-0.28,0.9-0.12c1.56,0.77,3.15,1.48,4.39,2.76c-0.3,0.2-0.18,0.35,0.04,0.53
		c0.52,0.43,1.01,0.9,1.42,1.44c0.83,1.11,0.79,1.75,0.22,2.96c-0.39,0.83-1.09,0.62-1.68,0.81c-2.9,0.08-5.75,0.59-8.61,1
		c-1.21-0.05-2.42-0.11-3.44-0.89c0.24-0.43,0.67-0.36,1.05-0.4c1.46-0.13,2.9-0.38,4.36-0.52c0.43-0.04,0.94-0.07,1.08-0.58
		c0.13-0.5-0.32-0.77-0.63-1.06c-0.64-0.59-1.41-1.03-1.97-1.71C30.13,19.21,31.32,17.96,32.67,16.82z"/>
	<path class="st5" d="M20.23,31.41c-0.02,0.1-0.03,0.21-0.05,0.31c-0.32,0.18-0.63,0.23-1.01,0.09c-1.52-0.54-3.09-0.96-4.5-1.78
		c1.15-0.61,2.05,0.36,3.16,0.32c-2.71-0.38-5.07-1.63-7.44-2.83c-1.28-0.65-2.48-1.46-3.74-2.13c-0.51-0.27-0.74-0.68-0.79-1.25
		c-0.05-0.6-0.16-1.19-0.15-1.79c0-0.16-0.02,0.04,0-0.12C5.78,21.7,5.55,21,6.26,20.78c0.66-0.2,1.02,0.35,1.32,0.82
		c0.57,0.91,1.44,1.35,2.41,1.67c0.42,0.14,0.86,0.21,1.3,0.19c2.14-0.12,3.86,0.89,5.46,2.12c1.23,0.94,2.3,2.11,3.8,2.67
		c0.26,0.1,0.48,0.29,0.59,0.57c-0.28,0.37-0.81,0.5-0.95,1C20.55,30.34,20.5,30.87,20.23,31.41z"/>
	<path class="st6" d="M21.14,28.82c-1.59-0.47-2.87-1.46-4.08-2.54c-1.78-1.58-3.71-2.6-6.21-2.55c-1.34,0.03-2.63-0.54-3.43-1.8
		c-0.27-0.42-0.48-1.12-1.07-0.95c-0.63,0.19-0.2,0.91-0.33,1.37c-0.51-0.03-0.42-0.45-0.5-0.77c-0.07-0.28,0.17-0.64-0.22-0.83
		c-0.19-0.06-0.33-0.18-0.45-0.34C5,19.7,5.32,19.06,5.78,18.48c1.58-0.86,3.05-0.55,3.78,0.8c-0.08,0.5-0.04,0.97,0.27,1.4
		c0.33,1.13,1.46,0.98,2.23,1.41c0.96,0.53,1.57,0.21,1.94-0.77c0.21-0.55,0.45-1.09,0.68-1.63c0.49,0.56,0.35,1.22,0.18,1.82
		c-0.18,0.64-0.04,1.05,0.52,1.41c2.32,1.47,4.55,3.11,7.31,3.71c0.5,0.11,1.15,0.21,1.11,0.99C22.91,28.02,22.03,28.42,21.14,28.82
		z"/>
	<path class="st7" d="M37.73,18c-0.33-0.23-0.65-0.47-0.98-0.7c-0.74-0.8-0.35-1.44,0.3-2.03c0.8-0.72,1.08-1.53,0.43-2.5
		c0.54,0.03,1.01-0.03,0.97-0.75c0.18-0.31,0.34-0.64,0.72-0.75c0.44-0.16,0.77,0.06,1.06,0.34c0.88,0.84,1.95,1.14,3.14,1.14
		c1.31,0,1.95,0.52,2.38,1.84c-0.47,2.01-1.64,3.13-3.77,3.29C40.56,18,39.15,18.22,37.73,18z"/>
	<path class="st8" d="M37.48,12.78c0.97,0.64,1,1.48-0.03,2.48c-0.61,0.59-1.12,1.14-0.69,2.04c-2.76-1.48-5.59-2.8-8.63-3.62
		c-0.11-0.5-0.26-1.02,0.47-1.18c1.47-0.01,1.66-0.19,1.68-1.58c0.01-0.43,0-0.86,0-1.29c0.18-0.45,0.42-0.76,0.96-0.48
		c0.67,1,1.14,2.09,1.61,3.2c0.3,0.72,0.74,0.97,1.28,0.16c0.3-0.38,0.36-0.88,0.64-1.27c0.81-0.45,1.52-0.13,2.22,0.31
		C37.11,11.96,37.16,12.43,37.48,12.78z"/>
	<path class="st9" d="M28.59,12.5c-0.38,0.3-0.17,0.84-0.47,1.18c-1.63-0.35-3.23-0.8-4.89-1.03c-1.65-0.23-3.3-0.45-5.24-0.38
		c1.33-1.45,2.84-2.19,4.38-2.85c0.69-0.3,1.45-0.44,2.14-0.75c1.09-0.49,1.78-0.04,2.45,0.78C27.71,10.37,28.02,11.5,28.59,12.5z"
		/>
	<path class="st10" d="M41.3,30.02c0.63,0.77,0.75,1.75,1.09,2.63c0.58,1.53,0.75,1.58,2.02,0.45c0.33-0.31,0.41-0.75,0.59-1.13
		c0.1-0.27,0.08-0.55,0.11-0.82c0.13-1.07,0.29-1.2,1.26-0.82c0.48,0.19,0.91,0.17,1.38,0.04c0.64-0.17,1.17,0.04,1.19,0.75
		c0.01,0.63,0.36,1.57-0.82,1.59c-0.84,0.02-1.15,0.78-1.75,1.12c-0.45,0.26-0.93,0.46-1.39,0.7c-2.27,1.17-4.44,0.96-6.54-0.43
		c0.11-1.26-0.13-2.45-0.74-3.56C38.44,29.36,39.84,29.16,41.3,30.02z"/>
	<path class="st11" d="M21.85,29.72c0.02-0.26,0.13-0.47,0.37-0.57c1.44-0.56,2.88-1.15,4.44-1.3c1.83-0.25,3.44,0.17,4.76,1.54
		c0.63,0.65,0.98,1.34,0.73,2.25c-0.56,0.76-0.33,1.86-1.1,2.53c-0.53-0.08-1.01-0.3-1.35-0.7c-0.35-0.41-0.77-0.52-1.27-0.52
		c-0.73,0-1.21-0.34-1.36-1.07c-0.06-0.28-0.1-0.6-0.39-0.7c-1.49-0.51-2.87-1.42-4.54-1.26C22.02,29.9,21.92,29.83,21.85,29.72z"/>
	<path class="st12" d="M33.42,43.24c-0.81-0.2-0.99-0.72-0.74-1.46c5.29,0.24,9.99-2.07,14.89-3.45c1.28-0.36,1.9-1.67,2.97-2.35
		c1.06-0.36,1.09-0.32,0.87,1.26c-3.48,2.86-7.35,4.87-11.86,5.52c-1.62,0.23-3.26,0.22-4.9,0.19
		C34.22,42.94,33.77,42.91,33.42,43.24z"/>
	<path class="st13" d="M29.78,20.89c0.97,0.5,1.75,1.23,2.55,1.95c0.32,0.29,0.67,0.59,0.56,1.11c-0.13,0.62-0.72,0.68-1.13,0.71
		c-1.94,0.12-3.84,0.66-5.8,0.56c-0.34,0.32-0.73,0.25-1.12,0.16c-1.59-0.37-3.19-0.72-4.48-1.81c-0.13-0.27-0.07-0.52,0.08-0.76
		c0.47-0.73,0.95-1.47,1.42-2.2c0.18,0.12,0.29,0.32,0.24,0.51c-0.38,1.25,0.46,1.59,1.38,1.85c1.17,0.33,2.4,0.42,3.53,0.93
		c0.09,0.04,0.32,0.12,0.35-0.13c1.14-0.64,1.7-1.72,2.21-2.85C29.62,20.79,29.7,20.78,29.78,20.89z"/>
	<path class="st14" d="M45.63,14.42c-0.7-0.89-1.36-1.55-2.75-1.36c-0.91,0.13-2.03-0.29-2.76-1.14c-0.24-0.28-0.49-0.68-0.98-0.38
		c-0.45-1.09-0.52-2.29-0.98-3.38c-0.07-0.17,0.08-0.27,0.27-0.23c2.53,0.47,4.87,1.37,6.82,3.12c0.6,0.54,1.06,1.18,1.31,1.95
		C46.27,13.48,46.28,14.17,45.63,14.42z"/>
	<path class="st15" d="M20.42,22.81c0,0.24,0,0.49,0,0.73c-0.21,0.63,0.13,0.94,0.65,1.19c1.26,0.6,2.59,0.96,3.96,1.2
		c0.57,0.1,1.32,0.07,1.39,0.96c-0.88,0.24-1.76,0.49-2.64,0.73c-0.79-1.1-2.16-0.83-3.22-1.32c-2.11-0.96-3.99-2.28-5.93-3.5
		c-0.31-0.19-0.49-0.43-0.27-0.78c0.46-0.73,0.28-1.54,0.31-2.33c0.08-0.16,0.16-0.33,0.24-0.49c0.6,0.83,1.01,1.81,1.82,2.48
		c0.24,0.2,0.42,0.59,0.76,0.5c0.39-0.11,0.2-0.54,0.26-0.83c0.08-0.35-0.1-0.84,0.49-0.93c0.01,0.44,0.03,0.87,0.01,1.31
		c-0.02,0.57-0.03,1.14,0.57,1.46C19.44,23.53,19.95,23.2,20.42,22.81z"/>
	<path class="st16" d="M27.35,23.76c0.04,0.01,0.08,0.01,0.12,0.03c0.06,0.04,0.1,0.09,0.16,0.13c-0.14,0.03-0.28,0.12-0.4,0.09
		c-1.67-0.33-3.39-0.45-4.95-1.22c-0.6-0.29-0.92-0.55-0.5-1.25c0.15-0.24,0.06-0.62,0.09-0.93c0.22-0.76,0.62-1.44,1.03-2.1
		c0.18-0.32,0.34-0.66,0.81-0.54c0.77,0.4,1.55,0.79,2.42,0.97c0.27,0.06,0.69,0.04,0.59,0.54c-0.32,1.05-0.46,2.13-0.47,3.22
		C26.22,23.46,26.67,23.73,27.35,23.76z"/>
	<path class="st17" d="M46.35,33.62c0.62-0.5,0.77-1.66,2.09-1.18c0.38,0.13,0.13-0.92,0.22-1.42c0.08-0.45-0.43-0.61-0.86-0.39
		c-0.51,0.26-0.95,0.47-1.51,0c-0.68-0.56-0.95-0.23-0.91,0.56c0.02,0.34,0.11,0.72-0.23,0.99C45.09,32.12,45,32.06,45,32
		c0.02-1.88-0.5-3.57-1.77-4.99c-0.08-0.09-0.03-0.23,0-0.34c1.56,0.34,2.78,1.33,4.09,2.15c0,0.19-0.19,0.43-0.04,0.56
		c0.16,0.14,0.35-0.08,0.54-0.13c1.71,1.23,2.78,2.93,3.58,4.83c0.23,0.65-0.18,0.7-0.62,0.59c-0.62-0.15-1.25-0.26-1.85-0.46
		c-0.62-0.2-1.17-0.13-1.7,0.23c-0.48,0.16-0.8,0.51-1.09,0.91c-0.77,0.05-1.43,0.7-2.26,0.43c-0.21-0.66,0.23-0.95,0.71-1.17
		C45.21,34.32,45.78,33.98,46.35,33.62z"/>
	<path class="st18" d="M18.23,20.43c-0.39,0.54-0.14,1.16-0.2,1.74c-0.05,0.51-0.27,0.87-0.72,0.46c-1.05-0.95-2.24-1.84-2.41-3.43
		c0.08-0.24,0.16-0.47,0.25-0.71c0.23-0.54,0.53-1.05,0.84-1.55c0.75-1.24,2.83-1.98,4.2-1.49c0.16,0.06,0.24,0.18,0.22,0.36
		C19.23,17.14,18.48,18.67,18.23,20.43z"/>
	<path class="st19" d="M8.47,9.83c-0.51,0.31-0.93,0.72-1.24,1.23c-0.98-0.04-1.43-0.84-1.49-1.53C5.69,8.84,5.4,8.56,4.97,8.17
		c-0.4-0.36-0.58-0.93-0.83-1.41c1.75-1.45,3.8-2.13,6.2-2.48C9.1,6.07,8.31,7.8,8.47,9.83z"/>
	<path class="st20" d="M35.54,32.66c0.17,0.48,0.32,0.96,0.52,1.43c0.42,0.95,1.05,1.15,2.09,0.69c0.21,0.01,0.41,0.06,0.55,0.2
		c1.04,1,2.39,1.36,3.69,1.81c0.3,0.68,0.17,1.32-0.22,1.93c-0.46,0.51-1.05,0.52-1.66,0.46c-0.76-0.17-1.42-0.53-1.97-1.08
		c-0.62-0.62-1.28-1.23-2.01-1.7c-1.56-1-2.18-2.58-2.83-4.17c0.03-0.45,0.2-0.81,0.59-1.06C35.17,31.28,35.13,32.16,35.54,32.66z"
		/>
	<path class="st21" d="M41.3,30.02c-1.27-0.28-2.51-0.34-3.62,0.52c-1-1.38-1.99-2.77-3.25-3.95C36.93,25.14,39.93,26.68,41.3,30.02
		z"/>
	<path class="st22" d="M9.39,19.45c-0.47-0.89-1.73-1.39-2.77-1.11c-0.27,0.07-0.5,0.44-0.84,0.15c0.29-0.93,0.94-1.58,1.68-2.16
		c1.06-0.12,2.01,0.47,3.1,0.4c0.79-0.05,1.2,0.78,1.45,1.52c-0.14,1.28-0.5,2.57,0.04,3.84c-1.78,0.01-2.18-0.23-2.42-1.44
		C9.85,20.19,9.82,19.78,9.39,19.45z"/>
	<path class="st12" d="M4.13,6.75c0.53,0.01,0.54,0.5,0.75,0.82C5.09,7.9,5.11,8.46,5.79,8.23c0.34-0.12,0.59,0.2,0.42,0.49
		C5.45,10,6.61,10.41,7.23,11.07c0.57,0.87,1.43,1.33,2.36,1.7c0.42,0.17,0.97,0.12,1.21,0.65c-1.86,0.71-4.71-0.31-5.97-2.16
		C4.41,10.64,3.99,10,3.66,9.33C3.21,8.39,3.24,7.48,4.13,6.75z"/>
	<path class="st23" d="M12.01,18.25c-0.38-0.14-0.44-0.55-0.69-0.8c-0.31-0.32-0.8-0.76-1.11-0.56c-1.16,0.74-1.81-0.53-2.75-0.56
		c2.04-1.69,4.43-2.48,7.21-2.94C13.59,15.08,12.58,16.55,12.01,18.25z"/>
	<path class="st24" d="M5.33,20.69c0.15,0.05,0.32-0.68,0.45,0c0.11,0.55-0.18,1.16,0.23,1.67c0.06,0.71,0.14,1.41,0.16,2.12
		c0.01,0.44,0.36,0.48,0.62,0.63c3.44,2.01,6.88,4.03,10.78,5.07c0.1,0.03,0.18,0.14,0.36,0.29c-1.19-0.01-2.19-0.52-3.27-0.44
		c-3.43-1.39-6.79-2.9-9.82-5.05C4.46,23.48,4.65,22.05,5.33,20.69z"/>
	<path class="st25" d="M45.63,14.42C45.95,13.95,46,13.3,46.57,13c0.87,2.17-0.18,3.65-2.49,5.17c-0.96,0.63-2.16,0.79-3.29,1.03
		c-1.3,0.28-2.2-0.38-3.06-1.2c1.16-0.55,2.44-0.28,3.62-0.34C43.66,17.55,44.95,16.49,45.63,14.42z"/>
	<path class="st26" d="M18.3,13.3c-2.71,1.39-3.82,3.83-4.56,6.56c-0.17,0.62-0.23,1.71-0.95,1.57c-0.64-0.12-0.31-1.2-0.25-1.82
		c0.24-2.3,1.35-4.25,2.82-5.96C16.14,12.75,17.28,13.35,18.3,13.3z"/>
	<path class="st27" d="M22.59,17.29c-0.81,1.56-1.48,3.19-2.46,4.66c-0.22,0.33-0.45,0.73-0.94,0.57c-0.48-0.16-0.45-0.63-0.41-1.02
		c0.18-2.13,0.76-4.08,2.59-5.43C21.97,16.29,22.72,16.35,22.59,17.29z"/>
	<path class="st28" d="M34.35,31.22c-0.16,0.32-0.32,0.64-0.48,0.96c-0.76,0.33-1.35-0.04-1.92-0.48c-0.01-1.81-1.76-3.51-3.68-3.61
		c-0.53-0.03-1.12,0.22-1.6-0.23c1.1-0.27,2.21-0.53,3.3-0.82c0.25-0.07,0.46-0.07,0.65,0.11c0.95,0.94,2.28,1.43,3.01,2.62
		C33.75,30.32,34.69,30.46,34.35,31.22z"/>
	<path class="st29" d="M31.14,26.9c1.51-0.58,2.54-0.25,3.39,0.77c1.01,1.23,2.04,2.44,2.88,3.8c0.49,0.8,0.24,1.63,0.28,2.44
		c0.01,0.22-0.13,0.38-0.37,0.37c-0.34-0.01-0.48-0.24-0.54-0.54c-0.48-2.25-1.81-3.94-3.49-5.43C32.68,27.8,32.05,27.33,31.14,26.9
		z"/>
	<path class="st30" d="M37.96,25.19c2.09-0.72,2.45-2.39,0.85-4.03c-0.57-0.58-1.18-1.12-1.79-1.68c0.37-0.36,0.65,0.05,0.94-0.02
		c1.78,0.95,2.84,2.59,3.96,4.17c0.21,0.29,0.36,0.62,0.54,0.93c0.15,0.24,0.39,0.47,0.19,0.75c-0.19,0.26-0.53,0.19-0.78,0.12
		C40.59,25.05,39.26,25.29,37.96,25.19z"/>
	<path class="st31" d="M20.41,15.82c-1.77-0.52-3.4,0.02-4.35,1.43c-0.29,0.42-0.6,0.83-0.9,1.25c0.73-3.62,4.84-6.01,8.33-4.73
		C22.23,14.23,21.37,15.1,20.41,15.82z"/>
	<path class="st32" d="M26.43,26.89c-0.4-0.6-1.05-0.63-1.67-0.71c-1.55-0.21-3-0.71-4.36-1.46c-0.69-0.38-0.9-0.81,0.03-1.18
		c1.79,0.73,3.55,1.55,5.52,1.68c1.13,0.33,2.26,0.65,3.39,0.98C28.42,26.63,27.41,26.72,26.43,26.89z"/>
	<path class="st33" d="M23.55,18.02c-0.23,0.16-0.45,0.32-0.68,0.48c0.83-2.67,4.67-4.42,7-3.12c-0.85,0.8-1.78,1.49-2.47,2.42
		c-0.43,0.03-0.93,0.15-1.28-0.08C25.15,17.12,24.35,17.42,23.55,18.02z"/>
	<path class="st34" d="M42.27,36.74c-1.81,0.26-2.95-0.87-4.11-1.96c0.09-0.23,0.18-0.45,0.27-0.68c0.35,0.02,0.81-0.08,1.04,0.1
		c2.09,1.59,4.04,0.57,6-0.25c0.29-0.12,0.59-0.21,0.88-0.32c-0.38,0.57-1,0.82-1.57,1.14c-0.42,0.24-0.8,0.48-0.83,1.02
		C43.8,36.82,42.92,36.57,42.27,36.74z"/>
	<path class="st35" d="M18.75,6.5c-0.77,0.7-1.56,1.35-2.66,1.41c0.08-1.15,0.52-2.21,0.85-3.29c0.25-0.79,0.86-0.82,1.52-0.74
		c0.43,0.05,0.85,0.15,1.27,0.22C19.88,5.09,19.46,5.86,18.75,6.5z"/>
	<path class="st36" d="M47.07,34.33c0.44-0.66,1.02-0.82,1.74-0.49c0.69,0.31,1.48,0.23,2.16,0.62c0.3,0.17,0.38-0.15,0.43-0.39
		c0.35,1.05,0.31,2.11,0,3.17c-0.01-0.24-0.04-0.48-0.02-0.71c0.08-0.95-0.41-0.42-0.74-0.29c-0.23-0.07-0.38,0.07-0.52,0.21
		c-0.69,0.65-1.27,0.58-1.72-0.26c-0.2-0.37-0.55-0.57-0.88-0.79C47.27,35.08,47.1,34.74,47.07,34.33z"/>
	<path class="st37" d="M27.4,19.22c0.34-1.69,1.67-2.56,2.93-3.45c0.63-0.45,1.27,0.13,2.19,0.46c-2.11,0.68-2.82,2.29-3.43,3.97
		C28.46,19.98,27.8,19.83,27.4,19.22z"/>
	<path class="st38" d="M13.3,4.02c-1.95,1.28-2.59,3.29-3.63,5.04C9.53,9.3,9.4,9.64,9.06,9.46C8.84,9.34,8.93,9.03,8.98,8.79
		c0.36-1.54,0.62-3.1,1.94-4.24C11.59,3.98,12.2,3.7,13.3,4.02z"/>
	<path class="st39" d="M16.73,3.95c-0.71,1.33-0.8,2.78-1.31,4.1c-0.2,0.52-0.38,1.38-1.1,1.17c-0.71-0.2-0.42-1.06-0.33-1.59
		c0.2-1.14,0.61-2.23,1.37-3.13C15.67,4.15,15.97,3.74,16.73,3.95z"/>
	<path class="st40" d="M22.59,17.29c-0.19-0.62-1-0.63-1.22-1.22c1.52-1.77,3.57-2.39,5.67-1.54C25,14.84,23.67,15.88,22.59,17.29z"
		/>
	<path class="st41" d="M31.11,7.76c2.39-0.18,3.42,1.92,2.3,4.87C32.71,10.87,31.99,9.34,31.11,7.76z"/>
	<path class="st42" d="M27.4,19.22c0.52,0.4,1.39,0.2,1.68,0.98c-0.1,1.04-0.74,1.81-1.32,2.61c-0.18,0.24-0.41,0.55-0.78,0.36
		c-0.35-0.17-0.32-0.54-0.28-0.84C26.85,21.27,26.98,20.21,27.4,19.22z"/>
	<path class="st43" d="M23.55,18.02c0.56-0.98,1.27-1.45,2.33-0.64c0.45,0.35,1.12-0.08,1.52,0.42c-0.24,0.56-0.48,1.12-0.72,1.68
		C25.65,18.96,24.33,19.08,23.55,18.02z"/>
	<path class="st44" d="M43.23,26.67c1.64,1.49,2.18,3.36,1.92,5.51c-0.03,0.48-0.31,0.78-0.75,0.93c0.8-2.92-0.71-4.93-2.71-6.79
		C42.23,26.48,42.8,26.25,43.23,26.67z"/>
	<path class="st45" d="M41.55,29.06c-0.69-0.9-1.38-1.8-2.07-2.71c2.28,0.14,3.24,1.79,4.22,3.43c-0.48,0.63-0.95,0.21-1.4-0.03
		C42,29.59,41.91,29.18,41.55,29.06z"/>
	<path class="st46" d="M36.96,11.54c-0.74,0.15-1.39-0.45-2.13-0.24c-0.41-0.88-0.33-1.85-0.48-2.77c-0.06-0.36,0.1-0.84,0.71-0.58
		C36.43,8.76,36.76,10.12,36.96,11.54z"/>
	<path class="st47" d="M28.58,11.08c-0.49-0.99-0.97-1.98-1.87-2.74c2.12-0.92,2.13-0.32,3.06,1.89c0.1,0.24,0.01,0.55,0.01,0.83
		C29.37,11.25,28.97,10.93,28.58,11.08z"/>
	<path class="st48" d="M41.55,29.06c0.8,0,1.19,1.21,2.15,0.72c0.47,0.9,0.24,1.86,0.22,2.8c-0.01,0.31-0.24,0.65-0.58,0.65
		c-0.34,0-0.33-0.39-0.41-0.64C42.51,31.4,42.18,30.17,41.55,29.06z"/>
	<path class="st49" d="M18.75,6.5c0.33-0.8,0.66-1.6,0.99-2.4c0.15,0.08,0.31,0.16,0.46,0.25c0.19,0.72-0.41,1.25-0.48,1.92
		c-0.05,0.43-0.25,0.83-0.11,1.32c0.53-1.15,0.9-2.34,1.78-3.24c0.16,0.16,0.33,0.32,0.49,0.48c-0.62,1.07-1.24,2.13-1.67,3.3
		c-0.12,0.34-0.23,0.87-0.78,0.72c-0.47-0.13-0.66-0.54-0.66-1.03C18.76,7.38,18.75,6.94,18.75,6.5z"/>
	<path class="st50" d="M21.39,4.34c-0.6,1.33-1.2,2.66-1.91,4.26c-0.52-1.76,0.07-3.01,0.72-4.26C20.59,4.34,20.99,4.34,21.39,4.34z
		"/>
	<path class="st51" d="M38.44,7.93c0.24,1.2,1,2.3,0.71,3.61c-0.23,0.16-0.47,0.33-0.7,0.49c0.08-1.23-0.29-2.39-0.62-3.56
		c-0.07-0.23-0.47-0.44-0.12-0.69C37.92,7.62,38.23,7.68,38.44,7.93z"/>
	<path class="st52" d="M35.07,7.95c-0.6,0.08-0.54,0.55-0.42,0.9c0.28,0.81,0.14,1.64,0.19,2.46c0.05,0.58-0.25,0.94-0.72,1.2
		c-0.03-1.41,0.41-2.85-0.31-4.21c-0.09-0.17-0.19-0.43,0.05-0.52C34.26,7.64,34.71,7.55,35.07,7.95z"/>
	<path class="st53" d="M29.78,20.89c-0.07,0.01-0.15,0.01-0.22,0.01c0.41-1.84,0.9-3.62,3.12-4.08
		C31.71,18.18,30.58,19.42,29.78,20.89z"/>
	<path class="st54" d="M37.73,12.08c-0.4-1.53-0.6-3.11-1.89-4.28C37.28,7.7,38.17,9.75,37.73,12.08z"/>
	<path class="st55" d="M5.33,20.69c-0.16,1.43-0.33,2.86-0.49,4.29c-0.33-0.13-0.49-0.38-0.5-0.73c-0.03-1.3,0.06-2.59,0.5-3.83
		C5.06,20.43,5.23,20.49,5.33,20.69z"/>
	<path class="st56" d="M31.23,9.14c-0.42-0.04-0.63,0.35-0.96,0.48c-0.14-0.23-0.38-0.45-0.4-0.69c-0.04-0.42-0.74-0.8-0.33-1.1
		c0.56-0.4,0.98,0.21,1.36,0.59C31.09,8.61,31.25,8.84,31.23,9.14z"/>
	<path class="st57" d="M21.85,29.72c0.09,0.02,0.18,0.05,0.27,0.07c0.9,0.06,0.9,0.06,0.84,0.6c-0.63,0.25-1.24,0.33-1.81-0.13
		c-0.63,0.04-0.45,0.52-0.47,0.88c-0.02,0.43-0.01,0.86-0.01,1.35c-0.43-0.3-0.1-0.82-0.44-1.08c-0.01-0.53-0.02-1.06-0.03-1.59
		C20.75,29.79,21.3,29.75,21.85,29.72z"/>
	<path class="st58" d="M34.35,31.22c0.04-0.62-0.77-0.82-0.72-1.45c0.97,0.74,1.8,1.57,1.9,2.89
		C34.96,32.33,34.85,31.62,34.35,31.22z"/>
	<path class="st59" d="M28.58,11.08c0.39-0.7,0.79-0.13,1.19-0.01c-0.03,0.39-0.09,0.87-0.52,0.91
		C28.66,12.04,28.71,11.45,28.58,11.08z"/>
	<path class="st60" d="M47.82,29.24c-0.07,0.34-0.12,0.75-0.6,0.68c-0.16-0.02-0.38-0.2-0.43-0.35c-0.15-0.45,0.26-0.57,0.54-0.76
		C47.49,28.96,47.66,29.1,47.82,29.24z"/>
	<path class="st61" d="M32.86,37.97c-0.53,0.07-0.78,0.56-0.81,0.9c-0.07,0.82,0.35,1.72-0.49,2.38c-0.02,0.02-0.01,0.08,0,0.11
		c0.18,1.31-0.29,1.62-1.73,1.15c-0.54-0.33-1.13-0.25-1.72-0.25c-1.01,0.12-1.87-0.22-2.67-0.82c-1.08-0.81-2.15-1.64-3.26-2.39
		c-0.77-0.51-0.34-1.55-1.03-2.06c-0.14-1,0.54-1.2,1.29-1.5c2.16-0.86,4.49-1.25,6.54-2.39c0.75,0.45,1.49,0.92,2.11,1.56
		c0.35,0.37,0.49,0.84,0.37,1.32c-0.24,1.02,0.22,1.3,1.13,1.18C32.95,37.33,33.21,37.55,32.86,37.97z"/>
	<path class="st58" d="M32.86,37.97c0.08-0.38-0.14-0.58-0.45-0.72c-0.7-0.04-1.17-0.33-0.94-1.09c0.24-0.8-0.55-1.33-0.43-2.06
		c0.34-0.79,0.15-1.77,0.91-2.39c0.64,0.16,1.28,0.32,1.92,0.48c1.23,3.14,3.8,4.99,6.48,6.72c0.37,1.07-0.4,1.59-1.13,1.94
		c-1.91,0.93-3.95,0.72-5.96,0.44c-0.23-0.03-0.45-0.19-0.38-0.5C32.54,39.85,32.86,38.91,32.86,37.97z"/>
	<path class="st62" d="M29.07,33.15c-0.69,1-1.81,1.22-2.86,1.39c-1.55,0.25-2.8,1.33-4.37,1.46c-0.62,0.05-0.3,0.78-0.7,0.99
		c-0.48-0.69-1.34-1.17-1.16-2.2c0.68-1.2,1.3-2.4,0.96-3.86c-0.05-0.19,0.13-0.44,0.21-0.67c0.64,0,1.29-0.01,1.93-0.01
		c1.45-0.36,3.59,0.67,3.94,1.95c0.13,0.48,0.41,0.62,0.83,0.69C28.25,32.95,28.72,32.77,29.07,33.15z"/>
	<path class="st63" d="M32.88,40.78c2.11,0.55,4.22,0.64,6.27-0.22c0.67-0.28,1.09-0.89,1.2-1.66c0.57-0.02,1.16,0.09,1.68-0.24
		c1.61-1.11,2.99-2.56,4.88-3.25c0.21-0.08,0.42-0.13,0.65-0.1c0.42-0.03,0.8,0.06,0.95,0.5c0.35,0.99,0.9,1.06,1.64,0.39
		c0.16-0.15,0.35-0.17,0.5,0.04c-2.53,3.25-6.52,3.3-9.96,4.56c-2.32,0.85-4.69,1.47-7.21,1.28c-0.35-0.03-0.58-0.07-0.81-0.3
		C32.29,41.35,32.51,41.05,32.88,40.78z"/>
	<path class="st64" d="M28.11,42.26c0.65-0.46,1.21-0.26,1.72,0.25C29.25,42.45,28.63,42.67,28.11,42.26z"/>
	<path class="st65" d="M12.26,8.25c0.25,0.03,0.42,0.17,0.4,0.44c-0.01,0.21-0.17,0.36-0.38,0.36c-0.27,0-0.44-0.16-0.42-0.43
		C11.88,8.42,12.04,8.29,12.26,8.25z"/>
	<path class="st65" d="M12.94,11.12c0.02,0.25-0.1,0.37-0.34,0.38c-0.23,0.01-0.41-0.12-0.42-0.33c0-0.1,0.18-0.26,0.31-0.31
		C12.69,10.81,12.89,10.87,12.94,11.12z"/>
	<path class="st66" d="M7.68,23.87C7.91,23.86,8.06,24,8.1,24.19c0.06,0.27-0.1,0.45-0.36,0.49c-0.22,0.04-0.39-0.12-0.43-0.31
		C7.25,24.1,7.42,23.94,7.68,23.87z"/>
	<path class="st67" d="M9.39,19.45c0.35,0.02,0.79-0.02,0.87,0.43c0.07,0.42-0.32,0.59-0.62,0.77C9.12,20.34,8.95,19.96,9.39,19.45z
		"/>
	<path class="st68" d="M7.87,20.21c-0.05,0.25-0.21,0.4-0.47,0.41c-0.23,0.02-0.38-0.11-0.37-0.34c0.01-0.31,0.18-0.53,0.51-0.5
		C7.73,19.8,7.87,19.97,7.87,20.21z"/>
	<path class="st65" d="M43.22,16.51c-0.32-0.08-0.47-0.29-0.43-0.6c0.04-0.31,0.25-0.5,0.56-0.5c0.31,0,0.57,0.17,0.51,0.5
		C43.81,16.23,43.57,16.45,43.22,16.51z"/>
	<path class="st69" d="M29.07,33.15c-0.4,0-0.79-0.04-1.18,0c-0.83,0.07-1.31-0.21-1.2-1.12c0.06-0.53-0.23-0.66-0.69-0.88
		c-0.94-0.45-1.91-0.71-2.91-0.89c-0.21-0.37-0.74-0.08-0.95-0.45c0.8-0.55,1.55-0.01,2.28,0.18c0.8,0.21,1.56,0.58,2.35,0.86
		c0.5,0.18,0.64,0.55,0.63,1.03c-0.01,0.47,0.21,0.84,0.7,0.75c1.38-0.26,2,0.93,2.95,1.48c0.42,0.7,0.89,1.36,0.63,2.26
		c-0.17,0.6,0.57,0.52,0.74,0.89c-0.4,0.68-0.79,0.06-1.14-0.06c-0.37-0.12-0.33-0.52-0.19-0.82c0.48-1.05-0.11-1.75-0.91-2.13
		C29.61,33.98,29.36,33.59,29.07,33.15z"/>
	<path class="st70" d="M42.91,10.28c-0.02,0.35-0.25,0.5-0.55,0.53c-0.34,0.03-0.69-0.04-0.71-0.45c-0.02-0.35,0.26-0.61,0.59-0.64
		C42.6,9.67,42.77,9.99,42.91,10.28z"/>
	<path class="st36" d="M47.08,35.56c-1.44,0.57-2.54,1.65-3.8,2.5c-0.39,0.26-0.76,0.56-1.25,0.6c0.19-0.63,0.3-1.26,0.24-1.92
		c0.37-0.66,1.36-0.22,1.68-0.96c0.73-0.13,1.31-0.9,2.16-0.48C46.5,35.14,46.82,35.25,47.08,35.56z"/>
	<path class="st71" d="M47.08,35.56c-0.35,0.01-0.67-0.08-0.96-0.26c-0.06-0.7,0.28-1,0.96-0.97c0.43,0.19,0.5,0.56,0.49,0.97
		C47.4,35.39,47.24,35.47,47.08,35.56z"/>
	<path class="st72" d="M29.47,39.98c0.41,0.15,0.8,0.29,0.88,0.72c0.04,0.19-0.19,0.33-0.4,0.33c-0.44-0.01-0.73-0.27-0.81-0.69
		C29.11,40.14,29.28,40,29.47,39.98z"/>
	<path class="st73" d="M26,35.23c0.49,0.4,0.82,0.67,1.15,0.94C26.52,36.24,25.96,36.25,26,35.23z"/>
</g>
</svg>
