<?xml version="1.0" encoding="utf-8"?>
<!-- Generator: Adobe Illustrator 23.0.2, SVG Export Plug-In . SVG Version: 6.00 Build 0)  -->
<svg version="1.1" id="Camada_1" xmlns="http://www.w3.org/2000/svg" xmlns:xlink="http://www.w3.org/1999/xlink" x="0px" y="0px"
	 viewBox="0 0 134.75 64.19" style="enable-background:new 0 0 134.75 64.19;" xml:space="preserve">
<style type="text/css">
	.st0{fill:#010002;}
	.st1{fill:#4E2612;}
	.st2{fill:#582C16;}
	.st3{fill:#E4B25B;}
	.st4{fill:#A66426;}
	.st5{fill:#C5772D;}
	.st6{fill:#B66E2A;}
	.st7{fill:#DFA851;}
	.st8{fill:#C4772E;}
	.st9{fill:#8F5620;}
	.st10{fill:#B26B29;}
	.st11{fill:#CF9B48;}
	.st12{fill:#EAC262;}
	.st13{fill:#EECE66;}
	.st14{fill:#A56325;}
	.st15{fill:#C87A2F;}
	.st16{fill:#A86526;}
	.st17{fill:#683518;}
	.st18{fill:#E3AF59;}
	.st19{fill:#EFD074;}
	.st20{fill:#C49346;}
	.st21{fill:#E4B15F;}
	.st22{fill:#DCAB5C;}
	.st23{fill:#E1AD5C;}
</style>
<g>
	<path class="st0" d="M77.75,6.42c7.33,0.14,15.97-0.65,24.27,2.72c9.76,3.96,18.28,9.35,24.11,18.42
		c3.88,6.03,2.25,13.43-4.36,18.48c-6.87,5.25-14.52,8.49-23.17,9.75c-21.29,3.12-42.65,3.01-64,1.33
		c-6.89-0.54-13.59-2.89-19.77-6.16c-9.17-4.86-10.08-18.07-4.41-24.13c8-8.55,17.92-13.3,28.73-16.82
		c8.17-2.66,16.62-3.25,25.11-3.55C68.34,6.3,72.42,6.42,77.75,6.42z"/>
	<path class="st1" d="M92.21,11.58c8.36,0.56,15.03,5.04,21.86,9.24c3.74,2.3,5.67,6.07,8.21,9.32c2.04,2.6,1.16,7.35-1.17,9.86
		c-3.09,3.32-6.87,5.46-11.1,7.03c-12.24,4.53-24.82,6.75-37.91,6.38c-9.79-0.27-19.6,0-29.39-0.11
		c-8.23-0.09-16.05-2.27-23.51-5.56c-5.21-2.3-8.32-6.11-7.75-12.38c0.38-4.09,3.15-6.46,5.76-8.66
		c11.26-9.44,24.49-14.09,39.07-15.19c3.57-0.27,7.11-0.88,10.71-0.61c-0.68,2.33-2.72,1.65-4.11,1.49
		c-2.12-0.24-0.95,1.33-1.4,1.96c-4.09,1.15-8.29,0.81-12.07,1.38c1.86,1.33,3.75,3.55,6.07,5.3c1.67,1.42,2.8,3.24,3.66,5.21
		c1.62,3.68,0.27,5.75-3.89,6.14c-4.02-0.92-6.7-3.78-9.44-6.56c-1.13-1.3-2.59-2.21-3.98-3.19c-3.51-3.22-7.15-3.04-11.16-0.81
		c-5.59,3.12-10.57,6.94-14.9,11.65c-1.86,2.02-1.97,3.98-0.57,6.16c1.94,3.01,4.55,5.24,7.93,6.45c7.95,2.84,16.16,4.18,24.61,4.09
		c4.43-0.12,8.86-0.11,13.28-0.1c11.45,0.32,22.86-0.07,34.23-1.6c5-0.68,9.74-2.23,14.35-4.22c3.33-1.36,6.38-3.16,8.87-5.83
		c2.85-3.06,3.04-5.21,0.39-8.48c-1.87-2.31-3.96-4.44-6.4-6.18c-5.4-3.46-10.73-7.05-16.96-8.95c-1.22-0.37-2.51-0.77-3.48-1.73
		C91.77,12.55,91.79,12.04,92.21,11.58z"/>
	<path class="st2" d="M61.21,14.63c-0.25-0.87-0.5-1.73-0.79-2.72c2.07-1.01,4.58,0.54,6.57-0.99c8.41,0.09,16.84-0.69,25.22,0.66
		c0.02,0.53,0.04,1.07,0.06,1.6c0.51,0.45,1,0.9,1.07,1.64c-0.01,0.77-0.32,1.3-1.14,1.41c-1.54-0.25-1.99-1.69-2.88-2.64
		c-2.33-2.48-4.09,0.65-6.16,0.63c-2.45-0.19-4.89-0.49-7.87,0.01c2.49,4.08,4.41,8.01,3.09,12.6c-0.97,1.75-2.52,2.18-4.37,1.94
		c-2.14-0.63-3.72-2.09-5.25-3.6c-1-1.5-1.86-3.09-2.98-4.52C64.46,18.5,61.54,17.54,61.21,14.63z"/>
	<path class="st3" d="M66.35,20.18c1.06,1.38,2.28,2.65,2.76,4.39c0.15,1.6-0.44,2.97-1.08,4.42c-1.38,3.11-0.97,5.97,1.46,8.58
		c6.25,6.7,19.85,7.52,26.56,1.51c4.01-3.59,4.58-6.6,2.21-11.4c-0.91-1.84-1.85-3.7-0.2-5.65c2.09-0.93,3.97-0.39,5.76,0.79
		c2.92,7.24,3.32,14.29-1.55,20.96c-10.63,3.56-21.36,6.26-32.7,3.91c-5.52-0.27-7.47-4.84-9.86-8.59c-1.52-2.38-2.28-5.2-5.51-5.95
		c-0.53-0.12-1.13-0.68-0.77-1.33c0.34-0.61,1.02-0.36,1.58-0.17c4.16-0.35,5.07-1.88,3.23-5.48c-0.87-1.71-2.07-3.19-3.45-4.52
		C56.82,19.34,62.41,18.64,66.35,20.18z"/>
	<path class="st4" d="M46.87,51.13c-8.19,0.04-16.16-1.38-23.88-4c-4.22-1.44-7.49-4.22-9.38-8.4c-0.73-1.62-0.97-3.17,0.34-4.69
		c4.92-5.71,10.8-10.11,17.46-13.63c4.39-2.32,7.94-1.49,11.23,1.88c-0.21,0.33-0.49,0.56-0.85,0.71
		c-7.98,0.77-15.07,3.58-21.16,8.89c-4.47,3.89-4.05,7.33,1.41,9.75c6.79,3.01,14.04,3.95,21.36,4.59c1.73,0.57,3.53,0.27,5.29,0.45
		c1.02,0.11,2.36,0.05,2.49,1.41c0.1,1.17-0.86,1.9-1.95,2.23C48.41,50.55,47.57,50.64,46.87,51.13z"/>
	<path class="st5" d="M69.16,46.81c10.67,2.13,20.86-0.45,31.04-3.17c0.69-0.18,1.4-0.28,2.1-0.42c1.3-0.74,2.54-1.67,4.18-1.18
		c1.29,1.14,3.72,0.35,4.38,2.57c-6.8,3.97-14.39,5.05-22.02,5.76c-9.18,0.85-18.4,1.01-27.62,0.86c0.57-2.21,2.68-3.11,3.98-4.69
		C66.52,46.62,67.87,46.23,69.16,46.81z"/>
	<path class="st6" d="M110.86,44.6c-1.16-1.26-3.63,0.1-4.29-2.14c0.13-1.85,1.82-2.03,2.99-2.7c3.66-2.09,4.29-4.55,2.25-8.33
		c-1.32-2.44-3.92-3.9-4.86-6.6c1.19-3.71,3.68-2.48,6.08-1.61c2.04,0.69,3.17,2.48,4.56,3.92c5.88,6.1,5.42,10.02-1.72,14.71
		C114.29,42.9,112.54,43.69,110.86,44.6z"/>
	<path class="st7" d="M69.16,46.81c-1.44,0.03-2.88,0.06-4.32,0.09c-0.31,0.23-0.66,0.34-1.04,0.34c-0.24-0.02-0.48-0.03-0.71-0.07
		c-2.92-0.49-6.82,1.28-8.6-1.01c-2.07-2.66-3.64-6.29-3.88-9.84c-0.26-3.83-1.98-6.51-4.65-8.89c-0.37-0.43-0.65-0.92-0.77-1.49
		c0.12-0.61,0.35-1.06,1.1-0.79c2.59,2.59,5.16,5.19,8.72,6.48c-0.23,0.05-0.53,0.03-0.68,0.17c-0.74,0.66,0.07,0.68,0.38,0.71
		c3.19,0.23,4.5,2.21,5.19,5.1c0.79,3.27,4.29,4.79,5.43,8C65.78,46.89,68.11,45.51,69.16,46.81z"/>
	<path class="st8" d="M113.03,23.22c-1.97,0.1-4.19-0.88-5.69,1.3c-1.59,0.49-2.56-0.56-3.61-1.43c-1.95,0.01-3.75-1.1-5.74-0.76
		c-0.69,0.5-0.29,1.24-0.4,1.87c-0.15,0.87-0.27,1.73-1.43,0.82c-0.35-3.71-1.87-7.06-3.25-10.45c-0.21-0.46-0.42-0.92-0.63-1.39
		c4.17,0.52,7.94,2.25,11.55,4.21C107.01,19.12,109.97,21.26,113.03,23.22z"/>
	<path class="st9" d="M39.25,17.9c3.82-2.37,6.81-2.29,9.97,1.11c2.07,2.23,4.65,4.11,6.74,6.39c1.06,1.16,2.65,2.73,0.98,4.32
		c-1.44,1.37-2.93-0.02-4.07-1.01c-2.15-1.89-4-4.1-6.42-5.71C44.09,21.41,41.8,19.7,39.25,17.9z"/>
	<path class="st6" d="M66.35,20.18c-3.9,0.09-7.79,0.28-11.55,1.45c-2.22-1.92-4.44-3.83-7.24-6.24c4.87-0.65,9.12-2.21,13.65-0.76
		C62.92,16.48,64.63,18.33,66.35,20.18z"/>
	<path class="st10" d="M64.12,46.82c0.24,0.02,0.48,0.04,0.71,0.07c0.52,2.88-2.5,2.8-3.61,4.32c-4.78-0.03-9.57-0.06-14.35-0.09
		c0.58-1.81,3.23-1.03,3.75-3.18c-2.33-1.18-5.15,0.6-7.38-1.04c0.3-0.37,0.68-0.63,1.12-0.79C50.99,45.07,57.52,46.93,64.12,46.82z
		"/>
	<path class="st11" d="M46.29,25.16c-0.29,0.28-0.58,0.56-0.88,0.83c-0.88,0.91-1.93,0.86-3.02,0.55c-1.51-1.18-0.46-2.7-0.54-4.07
		c0.26-0.06,0.51-0.12,0.77-0.19C44.01,23.04,45.3,23.9,46.29,25.16z"/>
	<path class="st12" d="M96.59,25.29c1.22-0.63-0.22-2.52,1.4-2.96c-0.2,2.11,0.25,3.97,1.58,5.72c1.76,2.31,1.83,4.93,0.47,7.44
		c-2.83,5.21-7.25,8.19-13.21,8.46c-6.45,0.29-12.7-0.26-17.6-5.3c-3.59-3.69-4.01-6.73-1.46-11.26c0.51-0.91,0.9-1.88,1.35-2.82
		c1.29,1.45,2.91,2.47,4.56,3.45c0.09,0.71,0.4,1.36,0.53,2.06c1.39,7.44,10.55,10.66,16.42,5.74c3.09-2.59,2.34-5.88,1.47-9.15
		C93.4,25.59,95.03,25.57,96.59,25.29z"/>
	<path class="st13" d="M92.2,26.8c3.12,2.09,1.97,8.56-2.09,10.61c-4.28,2.16-8.78,2.13-13.08,0.01c-3.2-1.58-4.39-5.29-3.37-9.4
		c1.52,0.01,3.12,0.27,4.12-1.33c0.07-0.1,0.14-0.19,0.19-0.3c0.87-1.89-1.07-4.67,1.2-5.84c2.56-1.32,5.52-0.87,8.29-0.02
		C89.76,22.07,91.03,24.4,92.2,26.8z"/>
	<path class="st14" d="M62.13,13.67c1.39,0,2.11,0.08,2.81-0.01c5.84-0.74,10.63,2.82,11.41,8.68c0.19,1.43,0.74,3.39-1.18,4.1
		c-1.66,0.61-3.07-0.52-3.98-1.82c-2.13-3.02-3.79-6.39-6.75-8.78C63.8,15.34,63.24,14.73,62.13,13.67z"/>
	<path class="st15" d="M87.99,21.57c-0.11-0.04-0.23-0.07-0.34-0.11c-2.42-0.88-4.98-0.75-7.39-0.46c-3.59,0.43-0.33,4.33-2.48,5.69
		c0.77-5-0.97-9.26-4.84-13.6c4.17,0.39,7.42-0.89,10.6,0.68C86.65,15.44,88.24,17.98,87.99,21.57z"/>
	<path class="st16" d="M90.03,13.08c0.7,0.96,1.41,1.92,2.11,2.88c2.91,1.88,3.85,4.61,3.68,7.96c-0.13,2.62-1.52,2.67-3.35,1.87
		c-1.49-0.65-2.37-1.96-3.09-3.38c-1.14-2.24-2.22-4.51-3.41-6.73c-0.44-0.82-1.53-1.64-0.92-2.53c0.61-0.88,1.92-0.78,2.99-0.8
		C88.78,12.35,89.46,12.59,90.03,13.08z"/>
	<path class="st17" d="M90.03,13.08c-1.43,0-2.85,0-4.67,0c1.77,3.45,3.34,6.73,5.11,9.88c0.82,1.45,2.32,3.21,3.9,2.52
		c1.69-0.74,0.93-3.08,0.5-4.52c-0.53-1.78-1.78-3.34-2.72-5c0.57-0.29,0.76-0.79,0.76-1.39c2.87,3.01,4.14,6.57,3.68,10.73
		c-0.85,2.29-2.8,1.36-4.39,1.51c-2.08-1.2-3.03-3.3-4.2-5.24c-1.03-2.86-2.51-5.46-4.45-7.81C85.57,12.3,87.51,9.94,90.03,13.08z"
		/>
	<path class="st18" d="M103.73,23.09c1.52-0.32,2.46,0.81,3.61,1.43c1.52,1.83,3.16,3.59,4.55,5.52c3.61,5.03,2.85,8.03-2.56,10.8
		c-0.95,0.48-1.84,1.08-2.76,1.62c-1.42,0.25-2.85,0.5-4.27,0.75C105.65,36.71,105.06,29.92,103.73,23.09z"/>
	<path class="st19" d="M66.09,25.73c-0.21,1.63-1.51,1.97-2.59,2.21c-1.55,0.35-2.58-0.71-2.79-2.1c-0.24-1.57,0.98-1.95,2.31-2.02
		C64.53,23.76,65.45,24.55,66.09,25.73z"/>
	<path class="st20" d="M41.85,22.47c0.85,1.17,1.86,2.35-0.06,3.48c-0.63,1.93,1.3,2.66,1.88,4.03c-0.05,2.24-0.02,4.49-1.01,6.58
		c-0.72,0.98-1.21,1.95,0.06,2.89c3.11,3.06,3.27,4,1.25,7.38c-0.25,0.03-0.5,0.06-0.74,0.08c-8.1-0.07-15.88-1.63-23.2-5.18
		c-3.95-1.92-4.92-6.04-1.79-8.98C24.84,26.55,32.4,22.25,41.85,22.47z"/>
	<path class="st11" d="M43.98,46.83c0.8-2.84,0.82-5.45-2.18-7.13c0.81-0.98,0.81-1.96,0-2.95c1.27-2.23,0.36-4.89,1.45-7.16
		c1.06-0.87,2.03-1.82,2.88-2.9c3.05,2.22,5.46,4.58,5.22,8.97c-0.19,3.54,3.15,6.23,3.36,9.91c0.06,1.04,1.39,0.45,2.14,0.55
		c2.42,0.35,4.97-0.68,7.29,0.7C57.41,46.82,50.69,46.83,43.98,46.83z"/>
	<path class="st21" d="M46.12,26.69c0.36,2.27-0.66,3.18-2.88,2.9c-1.74-0.72-4.32-1.09-1.44-3.64c1.21,0.01,2.41,0.03,3.62,0.04
		C45.65,26.23,45.88,26.46,46.12,26.69z"/>
	<path class="st22" d="M28.68,40.33c-1.54,0-2.65,0.19-3.68-0.04c-1.82-0.41-4.07-0.57-4.62-2.79c-0.6-2.42,0.95-4.36,2.84-5.32
		c4.38-2.21,9.1-3.46,14.09-3.31c2.02,0.06,3.08,1.49,3.42,3.14c0.37,1.78-1.29,2.12-2.59,2.78c-1.95,0.99-4.84,0.65-4.82,4.55
		C33.34,41.21,30,40.02,28.68,40.33z"/>
	<path class="st23" d="M41.8,36.75c1.1,0.04,2.23,0.08,2.1,1.65c-0.11,1.35-1.19,1.21-2.1,1.3C40.09,38.71,40.08,37.73,41.8,36.75z"
		/>
</g>
</svg>
