<?xml version="1.0" encoding="utf-8"?>
<!-- Generator: Adobe Illustrator 23.0.2, SVG Export Plug-In . SVG Version: 6.00 Build 0)  -->
<svg version="1.1" id="Camada_1" xmlns="http://www.w3.org/2000/svg" xmlns:xlink="http://www.w3.org/1999/xlink" x="0px" y="0px"
	 viewBox="0 0 75.72 109.73" style="enable-background:new 0 0 75.72 109.73;" xml:space="preserve">
<style type="text/css">
	.st0{fill:#FEFEFE;}
	.st1{fill:#010002;}
	.st2{fill:#333816;}
	.st3{fill:#596224;}
	.st4{fill:#3B401A;}
	.st5{fill:#444B21;}
	.st6{fill:#444B1F;}
	.st7{fill:#545B26;}
	.st8{fill:#6F7A32;}
	.st9{fill:#778E31;}
	.st10{fill:#A7BF43;}
	.st11{fill:#F4F1A6;}
	.st12{fill:#869F32;}
	.st13{fill:#3A6431;}
	.st14{fill:#5E9F4A;}
	.st15{fill:#FAF9E1;}
	.st16{fill:#454E17;}
	.st17{fill:#7FB060;}
	.st18{fill:#4C803B;}
	.st19{fill:#487838;}
	.st20{fill:#6FAB57;}
	.st21{fill:#A2BC35;}
	.st22{fill:#EBECA2;}
	.st23{fill:#91A837;}
	.st24{fill:#B7C94C;}
	.st25{fill:#E8E564;}
	.st26{fill:#D1D859;}
</style>
<g>
	<path class="st0" d="M52.55,0.67C59.65-0.51,67.5,5.2,65.3,13.75c-1.96,7.59-5.98,13.86-12.75,17.99
		c-2.32,1.41-2.08,2.33-0.74,4.28c4.48,6.52,9.24,12.81,14.33,18.88c6.11,7.27,9.88,15.55,9.56,25.28
		c-0.51,15.77-12.23,24.49-25.28,25.15c-4.96,0.25-9.31,2.11-13.85,3.44c-7.95,2.33-15.01,0.19-21.43-3.94
		C1.81,96.26-1.98,86.76,0.91,69.89c2.2-12.82,3.65-25.8,6.85-38.43c0.94-3.72,0.47-6.41-1.85-9.43c-1.92-2.49-2.15-5.79-0.95-8.93
		c2.55-6.7,11.58-13.56,19.97-8.3c0.64,0.4,1.05,1.21,2.16,0.62c6.64-3.52,13.96-3.91,21.25-4.43c0.23-0.02,0.45-0.15,0.68-0.23
		C50.16-0.28,51.35-0.2,52.55,0.67z"/>
	<path class="st1" d="M43.04,31.06c6.17,9.69,12.61,18.71,19.78,27.26c6.96,8.31,10.2,17.84,6.8,28.72
		c-2.61,8.34-9.35,12.13-17.13,13.4c-4.95,0.8-9.97,0.99-14.6,3.1C24.84,109.49,4.52,96.15,5,80.57c0.15-5.02-0.15-10.04,1.43-14.95
		c2.13-6.65,2.11-13.69,3.37-20.51c0.89-4.81,1.03-10.18,3.05-14.24c2.35-4.73-0.05-6.9-2.03-9.82c-3.1-4.57-2.46-7.02,3.36-11.9
		c2.94-2.46,6.76-1.95,9.79,1.26c0.64,0.68,0.99,1.96,2.49,0.87c7.43-5.4,16.23-5.09,24.78-5.74c1.07-0.08,2.15-0.01,3.23-0.04
		c5.08-0.12,7.63,3.54,6.02,8.32C57.57,22.47,51.88,28.28,43.04,31.06z"/>
	<path class="st2" d="M52.63,95.76c-2.29,1.47-4.89,0.47-7.34,0.92c-4,0.73-7.68,2.46-11.71,3.14c-10.09,1.7-22.19-6.14-23.66-16.28
		c-0.69-4.76,0.3-9.7,1.02-14.52c1.68-11.31,3.4-22.61,5.48-33.86c0.47-2.56,1.3-4.22,3.54-5.27c1.07-0.51,1.84-0.92,0.79-2.36
		c-2.05-2.79-3.7-5.88-5.84-8.6c-2.16-2.74-1.42-4.26,1.52-5.35c3.32-0.54,4.34,0.29,4.48,3.62c-0.12,0.95-2.33-0.71-1.6,1.29
		c1.81,2.24,2.87,4.92,4.48,7.26c0.76,1.11,1.23,2.71,3.1,2.45c1.38-0.29,2.62-1.03,3.99-1.29c1.29-0.25,2.7-0.38,2.39,1.73
		c-0.72,0.93-1.88,1.08-2.82,1.61c-2.05,0.88-3.91,2.29-6.28,2.25c-3.08-0.25-4.31,1.61-4.74,4.26c-0.74,4.5-1.47,9.02-1.68,13.55
		c-0.25,5.32-1.15,10.5-2.4,15.61c-1.18,4.84-1.47,9.69-1.4,14.62c0.11,8.42,6.68,15.28,15.17,15.57c5.45,0.18,10.73-0.88,15.9-2.5
		c2.45-1,5.05-1.23,7.64-1.57C57.71,93.28,52.42,94.52,52.63,95.76z"/>
	<path class="st3" d="M35.31,29.43c6.04,6.24,10.2,13.83,15.1,20.9c0.15,1.97,1.7,3.07,2.82,4.39c3.19,3.79,5.75,8.09,9.39,11.49
		c5.25,8,5.26,17.1,0.03,23.74c-2.05-1.13-0.52-2.6,0.01-3.46c1.71-2.79,2.08-5.73,1.77-8.58c-0.58,1.68,0.97,3.93-0.81,5.72
		c-1.64-1.07-1.21-2.79-1.14-4.25c0.27-5.7-1.91-10.47-5.17-14.95c-3.3-4.54-7.51-8.4-10.11-13.46c-0.53-3.47-3.28-5.7-4.87-8.58
		c-1.84-3.32-4.28-6.27-6.42-9.41c-0.72-1.05-1.71-2.03-1.47-3.5C34.7,29.24,35,29.21,35.31,29.43z"/>
	<path class="st4" d="M35.31,29.43c-0.24,0.03-0.48,0.06-0.71,0.1c-0.38,0.03-0.73-0.06-1.08-0.21c-0.22-0.11-0.41-0.27-0.56-0.47
		c0.05-1.75-0.92-1.61-2.09-1.14c-1.42,0.58-2.85,1.15-4.27,1.72c-2.62-3.51-4.46-7.48-6.71-11.21c-0.07-0.35-0.01-0.68,0.18-0.98
		c0.57-2.98-1.41-3.45-3.63-3.67c1.56-2.08,2.88-1.76,4.53,0.09c2.24,2.51,3.43,5.84,6.29,7.84c0.42-0.32,0.81-0.68,1.26-0.95
		c3.44-2.29,7.01-4.36,10.85-5.89c1.26-0.5,2.78-1.75,4.01,0.2c-0.97,2.12-3.21,2.56-4.91,3.72c-2.38,0.76-4.43,2.1-6.32,3.7
		c-0.86,0.73-2.23,1.41-1.68,2.75c0.48,1.17,1.89,0.48,2.88,0.64c0.74,0.01,1.46,0.1,2.14,0.41c0.71,0.48,1.12,1.05,0.51,1.89
		C35.44,28.31,35.28,28.83,35.31,29.43z"/>
	<path class="st5" d="M28.86,21.5c-0.53,0.01-1.07,0.02-1.6,0.02c-0.69-4.97,2.18-7.72,6.32-9.09c6.73-2.22,13.76-2.62,20.83-2.4
		c1.46,0.05,1.9,0.67,1.47,2.06c-1.22,3.91-2.76,7.61-6.22,10.15c-0.96-0.05-1.65-0.43-1.79-1.47c0.06-0.93,0.66-1.54,1.26-2.14
		c0.33-0.35,0.69-0.68,0.93-1.09c0.7-1.2,2.22-2.35,1.48-3.78c-0.69-1.32-2.4-0.48-3.66-0.63c-2.63-0.08-5.22,0.39-7.82,0.62
		C34.74,14.21,31.25,16.98,28.86,21.5z"/>
	<path class="st6" d="M63.44,83.5c1.52-1.98-0.04-4.45,1.12-6.78c0.54,4.01,0.37,7.62-1.51,11.03c-0.35,0.63-1.24,1.31-0.4,2.21
		c-2.42,3.52-6.19,4.71-10.02,5.8c-2.26-0.94-0.2-1.14,0.26-1.68c0.29-0.34,2.37-0.43,0.29-1.32c-0.11-0.55,0.17-0.92,0.56-1.25
		c1.03-0.8,2.37-0.81,3.48-1.41c1.34-0.73,2.6-1.56,3.51-2.82C61.76,86.11,61.93,84.32,63.44,83.5z"/>
	<path class="st7" d="M48.26,20.9c0.47,0.45,0.93,0.89,1.4,1.34c-3.85,3.58-8.6,5.03-13.65,5.76c-0.03-0.62-0.23-1.15-0.81-1.47
		c-0.01-0.25-0.01-0.59,0.15-0.65C39.7,24.34,43.89,22.39,48.26,20.9z"/>
	<path class="st8" d="M62.62,66.22c-0.09,0.41-0.31,1.27-0.67,0.82c-4.06-5.12-8.02-10.32-11.97-15.52
		c-0.32-0.42-0.03-0.9,0.43-1.18C54.57,55.56,59.19,60.43,62.62,66.22z"/>
	<path class="st9" d="M45.41,94.31c-8.74,2.65-17.51,5.5-25.97-0.76c-4.26-3.16-6.62-7.2-6.65-12.8c-0.04-6.05,0.75-11.88,2.2-17.72
		c1.91-7.68,1.59-15.66,2.99-23.41c0.25-1.41,0.47-2.82,0.7-4.23c0.56-3.44,2.46-4.75,5.85-3.67c0.43,0.46,0.71,1,0.81,1.63
		c0.73,10.8-0.46,21.47-2.34,32.09c-0.73,4.14-1.08,8.25-0.13,12.44c0.65,2.87,1.97,5.09,4.47,6.61c4.95,3.02,10.12,4.89,15.99,2.92
		c0.69-0.23,1.4-0.32,2.12-0.17C48.07,89.7,48.07,90.67,45.41,94.31z"/>
	<path class="st10" d="M24.47,33.07c0.02-0.45,0.04-0.9,0.06-1.35c2.09-0.22,3.71-1.62,5.61-2.31c3.72,5.23,7.84,10.22,10,16.41
		c-1.56,3.64-0.04,6.64,1.29,10.1c3.66,9.53,8.51,18.63,10.84,28.67c0.22,0.95,0.36,1.89-0.4,2.7c-1.97,0.4-3.94,0.48-5.9-0.06
		c-0.92-0.88-1.16-2.08-1.43-3.24c-1.77-7.63-4.71-14.81-8.29-21.76c-3.75-7.28-5.66-15.25-8.39-22.92
		C27.04,37.04,26.33,34.75,24.47,33.07z"/>
	<path class="st11" d="M39.45,46.07c-1.52-4.46-4.57-8.01-6.97-11.95c-0.91-1.5-2.43-2.71-2.35-4.71c0.76-1.1,1.86-0.48,2.83-0.56
		c0,0-0.01,0.02-0.01,0.02c4.46,5.55,8.6,11.33,12.06,17.58c0,1.33,0.68,2.71-0.27,3.97C41.71,50.52,41.25,47.48,39.45,46.07z"/>
	<path class="st12" d="M46.07,87.06c1.92-0.77,3.84-0.74,5.77,0c0.32-0.27,0.69-0.36,1.1-0.26c1.83,1.44,2.19,3.19,1.09,5.24
		c-0.28,0.24-0.56,0.49-0.84,0.73c-2.59,0.52-5.18,1.03-7.77,1.55c0.04-2.19,2.25-4.17,0.66-6.53c-0.18-0.16-0.24-0.33-0.18-0.49
		C45.95,87.14,46.01,87.06,46.07,87.06z"/>
	<path class="st13" d="M20.22,17.92c2.67,3.54,5.13,7.2,6.38,11.53c-2.6-0.26-3.08-2.67-4.22-4.32c-1.4-2.01-2.5-4.23-3.73-6.36
		C18.95,18.07,19.56,17.96,20.22,17.92z"/>
	<path class="st14" d="M20.22,17.92c-0.33,0.65-0.96,0.73-1.57,0.85c-0.72-0.67-2.28-1.25-1.46-2.36c1.18-1.57,1.87,0.59,2.87,0.84
		C20.12,17.48,20.17,17.7,20.22,17.92z"/>
	<path class="st15" d="M44.56,50.44c0.67-1.19-1.33-2.49,0.14-3.65c1.79,0.49,2.41,1.94,2.89,3.51c2.02,3.56,4.65,6.7,7.38,9.67
		c6.16,6.71,9.46,14.31,8.47,23.53c-0.72,1.42-0.96,3.09-2.17,4.26c-1.14,0.42-1.15-0.48-1.36-1.16c-0.02-0.93,0.35-1.77,0.64-2.62
		c1.04-4.89,0.45-9.24-2.7-13.52c-4.1-5.58-8.09-11.27-11.89-17.08c-0.5-0.66-1.08-1.26-1.47-2C44.38,51.06,44.4,50.75,44.56,50.44z
		"/>
	<path class="st16" d="M47.59,50.3c-0.96-1.17-1.93-2.34-2.89-3.51c-2.82-5.02-6.2-9.66-9.64-14.26c-0.84-1.13-2.05-2.07-2.11-3.66
		c0.68-0.11,1.28-0.01,1.65,0.66c4.09,6.03,8.2,12.04,12.22,18.11C47.3,48.37,48.86,49,47.59,50.3z"/>
	<path class="st17" d="M48.26,20.9c-3.76,3.26-8.49,4.25-13.06,5.62c-0.66-0.01-1.32-0.02-1.98-0.03c-1.48-3.05,1.15-4.63,2.46-6.63
		c0.55-0.84,1.63-1.31,2.5-1.91c1.67-0.97,3.35-1.93,5.02-2.9c0.44-0.95,1.14-1.31,2.15-0.97c1.03,2.06,3.9,2.6,4.28,5.21
		C49.17,19.83,48.71,20.36,48.26,20.9z"/>
	<path class="st18" d="M45.35,14.32c-0.72,0.25-1.44,0.49-2.16,0.74c-4.36-0.65-7.25,2.6-10.8,4.1c-1.28,0.54-2.37,1.55-3.54,2.34
		c0.37-4.24,3.1-6.66,6.78-7.76c4.07-1.21,8.31-1.86,12.62-1.51C48.08,14.02,46.74,14.2,45.35,14.32z"/>
	<path class="st19" d="M38.17,17.95c-1.93,2.69-4.67,4.9-4.96,8.53c-1.44-0.1-3.49,0.95-4.13-0.8c-0.6-1.66,0.96-3.02,2.35-4
		C33.55,20.22,35.42,18.29,38.17,17.95z"/>
	<path class="st20" d="M45.35,14.32c0.97-0.7,1.94-1.4,2.9-2.1c1.59,0.07,3.78-0.93,4.62,0.5c0.92,1.58-0.86,3.21-1.69,4.72
		c-0.38,0.69-1.03,1.24-1.56,1.85C48.49,17.38,45.22,17.31,45.35,14.32z"/>
	<path class="st21" d="M61.32,84.3c-0.27,0.69-0.54,1.38-0.81,2.08c-0.25,1.95-2.08,2.83-2.95,4.36c-1.18,0.43-2.36,0.86-3.53,1.29
		c-0.02-1.8-0.27-3.53-1.47-4.97c0.3-2.35,2.61-1.18,3.71-2.13c1.41-0.71,2.66-1.79,4.37-1.76C61.21,83.34,61.6,83.62,61.32,84.3z"
		/>
	<path class="st22" d="M57.56,90.74c0.12-2.04,2.07-2.84,2.95-4.36c0.04,0.58,0.07,1.16,0.76,1.38
		C60.56,89.41,58.94,89.92,57.56,90.74z"/>
	<path class="st23" d="M46.07,87.06c0,0.24,0,0.49,0,0.73c-5.49,1.92-10.76,1.87-16.22-0.63c-5.99-2.74-10.01-9.56-8.8-16.18
		c2.3-12.53,4.01-25.12,3.42-37.91c2.12-0.3,2.74,1.35,3.13,2.77c3.97,14.27,10.64,27.49,15.93,41.24
		C44.75,80.26,45.24,83.72,46.07,87.06z"/>
	<path class="st24" d="M56.87,85.64c-1.1,1.5-3.22-0.09-4.32,1.42c0,0-0.36,0-0.36,0s-0.36-0.01-0.36-0.01
		c-1.65-6.72-3.6-13.36-6.62-19.6c-2.67-5.52-4.38-11.41-6.95-16.93c-1.13-2.42,1.48-2.84,1.18-4.45c2.72,0.26,3,3.39,5.11,4.37
		c0.06,0.18,0.11,0.37,0.14,0.55c-0.27,3.06,0.43,5.75,2.01,8.52c4.34,7.63,6.87,16.07,10.3,24.12
		C57.3,84.3,57.45,85.01,56.87,85.64z"/>
	<path class="st25" d="M61.32,84.3c-0.27-0.27-0.54-0.53-0.81-0.8c-1.78,0.82-2.29-0.69-3.01-1.7c-2.13-2.96-3.04-6.49-4.51-9.76
		c-2.1-4.69-4.51-9.24-6.56-13.95c-0.77-1.77-1.95-3.72-0.32-5.71c4.85,6.93,9.87,13.75,14.48,20.84
		C62.76,76.56,62.17,80.53,61.32,84.3z"/>
	<path class="st26" d="M46.11,52.39c-0.15,3.76,1.73,6.83,3.4,9.97c3.34,6.29,5.39,13.18,8.99,19.35c0.48,0.83,0.84,1.75,2.01,1.79
		c-1.21,0.71-2.42,1.43-3.64,2.14c-3.73-8.58-6.54-17.54-10.91-25.84c-1.08-2.05-2.48-3.86-2.36-6.39c0.05-1.06,0.25-1.83,1.1-2.42
		C45.18,51.46,45.64,51.92,46.11,52.39z"/>
</g>
</svg>
