<?xml version="1.0" encoding="utf-8"?>
<!-- Generator: Adobe Illustrator 23.0.2, SVG Export Plug-In . SVG Version: 6.00 Build 0)  -->
<svg version="1.1" id="Camada_1" xmlns="http://www.w3.org/2000/svg" xmlns:xlink="http://www.w3.org/1999/xlink" x="0px" y="0px"
	 viewBox="0 0 133.32 99.48" style="enable-background:new 0 0 133.32 99.48;" xml:space="preserve">
<style type="text/css">
	.st0{fill:#010002;}
	.st1{fill:#703C1C;}
	.st2{fill:#CE6D1E;}
	.st3{fill:#914D1C;}
	.st4{fill:#A3551A;}
	.st5{fill:#88481D;}
	.st6{fill:#DD9E29;}
	.st7{fill:#C16B18;}
	.st8{fill:#E0A42E;}
	.st9{fill:#A15119;}
	.st10{fill:#703A16;}
	.st11{fill:#FDF7D2;}
	.st12{fill:#EFCB30;}
	.st13{fill:#F4E7C4;}
	.st14{fill:#E8E338;}
	.st15{fill:#FDFCFA;}
	.st16{fill:#FCF9E9;}
	.st17{fill:#BD5E12;}
	.st18{fill:#8B4109;}
	.st19{fill:#E27C24;}
	.st20{fill:#EFE08B;}
	.st21{fill:#F4EC9E;}
	.st22{fill:#FAF7EB;}
	.st23{fill:#E4AF2F;}
	.st24{fill:#E5B42F;}
	.st25{fill:#CE711D;}
	.st26{fill:#9A551A;}
	.st27{fill:#F2DB2C;}
	.st28{fill:#AF5D17;}
	.st29{fill:#EABE2A;}
	.st30{fill:#F2DB2A;}
	.st31{fill:#ECC52D;}
	.st32{fill:#D48330;}
	.st33{fill:#DE9E30;}
	.st34{fill:#E6B530;}
	.st35{fill:#FDFCF4;}
	.st36{fill:#DB9630;}
	.st37{fill:#FDFDF9;}
	.st38{fill:#D17826;}
	.st39{fill:#B26514;}
	.st40{fill:#FBFBE3;}
</style>
<g>
	<path class="st0" d="M125.31,56.2c0,6-0.01,11.99,0.01,17.99c0,0.95-0.22,2.08,0.19,2.83c2.04,3.7,0.17,6.75-2.42,8.47
		c-3.58,2.38-7.36,4.74-12.35,4.17c-2.93-0.34-6.15,0.19-9.19,0.6c-6.62,0.89-13.26,1.02-19.89,1.43c-5.48,0.33-11,0.95-16.49,1.14
		c-5.43,0.19-10.9-0.7-16.35-0.84c-9.97-0.26-19.75-2.25-29.66-3c-2.08-0.16-4.14-0.88-6.18-1.45c-4.31-1.21-5.84-3.21-5.85-7.81
		C7.07,69.3,7.12,58.86,7.06,48.43c-0.04-6.29-0.22-12.58-0.34-18.86c-0.04-2.2,0.79-3.76,2.72-5.07
		c8.96-6.04,19.17-9.16,29.14-12.87c6.06-2.26,12.31-3.85,18.53-5.57c1.46-0.4,2.79-0.36,4.22,0.09
		c15.74,5.01,31.22,10.72,46.62,16.66c0.89,0.34,1.8,0.69,2.74,0.87c6.34,1.24,10.9,4.85,14.08,10.38c0.5,0.88,0.76,1.74,0.76,2.71
		c0,6.47,0,12.94,0,19.41C125.45,56.2,125.38,56.2,125.31,56.2z"/>
	<path class="st1" d="M99.5,85.78c-0.67,0.19-1.34,0.53-2.02,0.54c-16.87,0.36-33.74,1.51-50.62,0.86
		c-11.25-0.43-22.21-3.05-33.19-5.38c-2.05-0.44-2.18-1.76-2.17-3.45c0.02-9.34,0.27-18.7-0.15-28.02
		c-0.3-6.79,0.03-13.55-0.16-20.32c-0.03-1.05,0.51-1.59,1.27-1.93c9.47-4.23,18.6-9.28,28.64-12.19c1.38,0.57,2.71,0.03,4.06-0.18
		c1.09-0.17,2.38-0.76,2.74,1.04c-0.59,1.81-2.31,2.11-3.73,2.81c-6.05,2.04-12.21,3.82-18.06,6.39c-1.56,0.69-3.46,0.98-4.32,2.77
		c1.42,0.97,3,0.54,4.5,0.56c7.49,0.08,15.01-0.33,22.44,1.07c2.6,0.69,5.26,0.27,7.88,0.36c1.92,0.07,3.84-0.06,5.75,0.09
		c0.95,0.07,2.23,0.15,2.36,1.19c0.16,1.27-1.11,1.7-2.17,1.97c-1.17,0.3-2.38,0.22-3.58,0.22c-7.79,0.01-15.59,0-23.38,0.01
		c-4.88,0.24-9.74-0.1-14.58-0.7c-4.89,0.38-5.42,0.87-5.44,5.88c-0.05,11.72-0.04,23.44-0.01,35.16c0.01,4.07,0.46,4.52,4.38,5.03
		c7.35,0.95,14.7,1.91,22.09,2.44c3.17,1.02,6.41,0.34,9.61,0.41c5.85,0.11,11.7-0.05,17.55,0.06c4.6,0.18,9.21,0.01,13.81,0.09
		c1.4,0.02,2.86-0.18,4.07,0.81c0.31,0.74,0,1.18-0.73,1.19c-6.94,0.14-13.88,0.03-19.28,0.08c6.3-0.21,14.14,0.46,21.97-0.39
		c2.1,0.62,4.27,0.41,6.42,0.49C96.88,84.8,98.39,84.53,99.5,85.78z"/>
	<path class="st2" d="M77.21,17.24c15.01,4.79,29.7,10.32,43.03,18.93c0.75,1.41,0.38,2.89,0.27,4.35
		c-0.28,6.27-0.46,12.53,0.1,18.79c0.1,3.69,0.05,7.37,0.02,11.06c-0.01,0.87,0.44,1.95-0.72,2.52c-1.66-0.95-1.14-2.61-1.32-4.04
		c0.1-1.84-0.01-3.63-1.12-5.21c-0.9-6.8-0.18-13.63-0.43-20.45c-0.06-1.74,0.36-3.69-1.62-4.8c-0.66-0.3-1.3-0.59-2.05-0.55
		c-8.13,0.39-16.2-1.14-24.34-0.72c-1.63,0.08-3.39,0.24-4.72-1.12c-0.22-1.5,1.1-1.54,1.84-1.49c3.76,0.24,7.13-1.58,10.75-1.94
		c3.14-0.64,6.36-0.17,9.97-0.42c-3.68-1.73-7.12-2.74-10.43-4.08c-3.52-1.61-7.2-2.77-10.85-3.99c-1.25-0.5-2.68-0.69-3.58-1.86
		c-0.8-1.56-2.56-1.61-3.83-2.44c-0.92-0.61-2.33-0.98-1.58-2.61c0.03-0.06,0.19-0.09,0.29-0.08C76.99,17.13,77.1,17.2,77.21,17.24z
		"/>
	<path class="st3" d="M119.59,72.77c1.4-4.52,0.41-9.15,0.65-13.73c-0.47-6.2-0.45-12.39-0.01-18.59c0.01-1.43,0.01-2.85,0.02-4.28
		c1.16,0.91,0.72,2.22,0.72,3.34c0.03,13.08-0.04,26.15,0.01,39.23c0.01,2.09-0.51,3.53-2.71,3.91c-6.25,1.06-12.5,2.09-18.75,3.13
		c-3.35-0.56-6.84,0.73-10.12-0.74c4.18-1.89,8.74-1.76,13.15-2.41c1.71-0.25,3.5-0.17,5.26-0.12c-1.12-0.17-2.29,0.24-3.38-0.32
		c0.18-1.92,1.77-1.64,2.93-1.73c3.29-0.26,6.54-0.83,9.82-1.09c1.64-0.26,1.42-1.54,1.5-2.68
		C118.74,75.33,118.4,73.86,119.59,72.77z"/>
	<path class="st4" d="M77.21,17.24c-0.7,1.83,1.07,1.61,1.84,2.06c1.14,0.67,2.86,0.54,2.96,2.45c-0.43,0.42-0.96,0.57-1.54,0.6
		c-6.31-2.21-12.97-3.51-18.62-7.36c-0.79-0.11,1.46-0.81-0.23-0.96c-1.8-0.16-3.39-0.93-3.27-3.23c1.2-1.01,2.29-0.05,3.32,0.31
		C66.93,12.93,72.27,14.59,77.21,17.24z"/>
	<path class="st5" d="M58.35,10.81c0.76,1.62,2.21,2.32,3.77,2.89c0.37,0.14,1.03,0.23,0.23,0.73c-0.19,0.12-0.45,0.12-0.68,0.17
		c-2.02,0.82-4.41-1.16-6.27,0.86c-2.56,0.67-4.89,2.79-7.8,1.25c-0.92-1.36-1.97-0.25-2.79,0.03c-1.52,0.52-2.71,0.45-3.73-0.85
		C46.54,13.15,52.38,11.77,58.35,10.81z"/>
	<path class="st6" d="M21,32.56c4.73,0.25,9.47,0.5,14.2,0.75c0.28,0.06,0.4,0.24,0.37,0.52c0.61,0.63,1.5,0.48,2.11,0.4
		c6.94-0.91,10.93,3.07,14.04,8.41c2.31,3.97,5.6,6.63,9.65,8.8c5.8,3.1,11.36,6.66,16.91,10.21c2.55,1.63,4.37,3.68,5.1,6.64
		c0.55,4.1,3.41,5.07,6.95,5.15c1.4,1.29,2.44,2.87,3.52,4.42c0.75,1.07,1.52,2.21,0.24,3.46c-4.08,1.81-8.45,1.16-12.7,1.54
		c-4.14-0.01-8.28-0.02-12.37,0.74c-8.01-0.04-16.03-0.05-24.04-0.14c-1.05-0.01-2.09-0.39-3.14-0.6c0.35-2.43,2.61-1.11,3.77-1.94
		c0.33-0.13,0.66-0.23,1-0.34c9.64-3.5,8.57-7.95,2.22-13.98c-4.29-4.08-10.2-2.6-13.1,2.8c-1.32,2.46-2.07,2.63-3.79,0.49
		c-3.73-4.65-5.89-10.11-7.65-15.73c-0.66-2.09,0.38-2.78,2.45-2.66c9.14,0.51,9.84-6.33,6.93-11.86c-1.67-3.16-4.35-3.91-7.55-2.33
		c-1.41,0.7-2.8,2.97-4.32,1.55C20.14,37.32,20.11,34.81,21,32.56z"/>
	<path class="st7" d="M46.16,81.44c-1.13,1.41-3.25-0.19-4.32,1.42c-8.14,0.05-16.1-1.7-24.16-2.38c-2.78-0.24-3.36-1.7-3.34-4.29
		c0.12-12.44,0.06-24.88,0.05-37.32c0-5.99,0.55-6.53,6.61-6.31c0.05,0.35,0.09,0.71,0.15,1.06c0.29,1.62,0.06,4.08,1,4.68
		c1.58,1,2.41-1.66,3.97-2.25c5.66-2.13,8.86,1.36,9.84,7.45c1.09,6.72-3.31,10.08-11.39,8.61c2.07,6.98,4.73,13.29,9.51,19.17
		c1.26-4.83,3.83-7.79,8.83-7.89c5.35-0.1,11.65,6.03,11.9,11.38c0.14,3.03-2.44,3.61-4.04,4.97c-1.2,1.03-2.81,1.87-4.61,1.7
		c-2.11-1.05-4.52,0.31-6.61-0.89C41.64,81.73,44.05,80.44,46.16,81.44z"/>
	<path class="st8" d="M20.34,27.99c7.34-4.49,15.55-6.71,23.69-9.15c1.11,0.27,2.34,0.28,3.05,1.41c-0.72,2.5,2.55,2.45,2.78,4.34
		c-0.88,0.57-0.86,1.09-0.09,1.84c0.76,0.74,1.48,1.67-0.13,2.39c-3.64,0.78-7.38-0.17-11.01,0.7c-4.2,0.11-8.4,0.1-12.6,0.02
		C24.04,29.51,21.91,29.71,20.34,27.99z"/>
	<path class="st9" d="M35.36,33.89c-0.03-0.2-0.08-0.39-0.16-0.58c9.63-0.49,19.32,0.39,28.92-0.91c-5.26-1.25-10.64,0.3-15.84-1.32
		c1.02-1.21,2.47-0.96,3.8-1.09c6.06-0.09,12.12,0,18.18,0.01c1.81,0,3.52,0.43,5.25,0.88c1.34,0.59,2.81,0.51,4.22,0.75
		c0.83,0.14,1.74,0.4,1.78,1.43c0.04,1.04-0.55,1.82-1.56,2.17c-1.62,0.57-3.31,0.32-4.98,0.4c-2.41-0.06-4.84,0.26-7.24-0.23
		c-4.13-1.05-8.32-0.14-12.48-0.45C48.6,35.13,41.95,35.14,35.36,33.89z"/>
	<path class="st10" d="M104.23,82.02c1.75,0.09,3.5,0.18,5.25,0.27c-6.75,0.74-13.31,2.67-20.1,2.74c-8.15,0-16.3,0-24.45,0
		c0-0.25,0-0.49,0-0.74c6.16,0,12.33,0.02,18.49-0.02c1.26-0.01,2.64,0.42,3.76-0.6c1.03-1.29,2.63-1.05,3.98-1.48
		c2.89-0.47,5.83-0.29,8.72-0.9C101.34,80.99,102.93,80.9,104.23,82.02z"/>
	<path class="st11" d="M51.89,30.95c-1.2,0.04-2.41,0.09-3.61,0.13c-8.51-0.85-17.04-1-25.59-0.93c-2.91,0.02-2.91-0.15-2.36-2.16
		c6.23,1.17,12.5,0.83,18.77,0.57c1.81-0.06,3.62-0.1,5.42,0.02c1.36,0.81,2.89,0.64,4.38,0.79C50.07,29.49,51.59,29.12,51.89,30.95
		z"/>
	<path class="st12" d="M46.67,20.16c-1.05-0.1-1.96-0.47-2.64-1.31c1.2-0.71,2.39-1.42,3.59-2.13c2.79-0.13,5.25-1.43,7.86-2.22
		c2.86,0.64,6.04,0.43,8.16,3.06c0,0.43-0.19,0.75-0.57,0.96c-1.93,0.84-3.96,0.49-5.95,0.53C53.55,18.65,50.13,19.57,46.67,20.16z"
		/>
	<path class="st13" d="M90.98,82.97c-1.27,0.24-2.53,0.47-3.8,0.71c-6.05-0.03-12.11-0.05-18.16-0.08
		c4.06-1.37,8.25-1.49,12.47-1.36c1.85,0.6,3.68,0.08,5.53-0.03C88.37,82.14,89.86,81.72,90.98,82.97z"/>
	<path class="st14" d="M84.15,35.43c1.79,1.02,3.75,0.55,5.63,0.57c8.71,0.08,17.39,0.51,26.06,1.33
		c-1.72,7.82-0.97,15.72-0.54,23.59c0.25,4.66,0.69,9.3-0.08,13.94c-1.68,0.75-2.25,0.5-2.19-1.49c0.09-2.76,0.56-5.5,0.49-8.29
		c-0.09,1.12-0.03,2.25-0.07,3.37c-0.1,2.75-1.14,3.38-3.6,2.17c-1.3-0.64-2.41-1.6-3.42-2.61c-5.57-5.6-10.96-11.36-16.01-17.44
		C90,49.04,89.23,47.93,87.43,48c-4.82-2.66-8.84-6.39-13.08-9.81c-0.81-0.65-1.9-1.57-1.46-2.62c0.49-1.17,1.92-0.38,2.92-0.58
		C78.56,35.66,81.46,33.56,84.15,35.43z"/>
	<path class="st15" d="M114.48,75.64c-0.26-11.73-0.51-23.47-0.8-35.2c-0.04-1.66-0.2-3.21,2.16-3.12c1.82,0.3,2.38,1.21,2.35,3.17
		c-0.16,7.9-0.06,15.81-0.06,23.72c1.22,1.57,0.55,3.42,0.73,5.14c-0.41,3.49,0.88,7.11-0.78,10.51c-3.18,1.61-6.71,0.97-10.05,1.51
		c-1.27,0.2-2.62-0.11-3.8,0.64c-4.47-0.38-8.78,1.44-13.25,0.95c-3.12-0.74-6.42,0.76-9.48-0.73c4.29-0.52,8.58-1.04,12.88-1.56
		c3.04-1.68,6.63-0.88,9.75-2.17c2.55-0.35,5.02-1.1,7.54-1.55C112.78,76.9,113.72,76.46,114.48,75.64z"/>
	<path class="st16" d="M51.89,30.95c-1.34-1.19-2.96-0.48-4.45-0.66c-1.12-0.14-2.51,0.33-2.75-1.45c7.53-0.64,15.05-2.01,22.6-0.29
		c0.79,0.22,1.51,0.72,2.38,0.69c9.67-0.34,19.23,1.52,29.62,1.56c-1.5-1.05-2.76-1.43-3.48-2.46c-0.22-0.71-0.01-1.11,0.78-1.09
		c4.24,1.5,8.5,2.96,13.14,5.45c-4.61,0.91-8.59,0.23-12.51,0.55c-5.47,0.12-10.98,1.41-16.34-1.04c-1.54-0.7-3.51,0.23-5.23-0.42
		c-6.35-1.36-12.77-0.46-19.16-0.62C54.96,31.13,53.43,31.02,51.89,30.95z"/>
	<path class="st17" d="M75.65,31.79c7.19,0.48,14.38,0.97,21.58,1.45c-4.23,1.52-8.54,2.53-13.08,2.19c-3-0.06-6-0.12-9-0.18
		c-0.33-0.05-0.46-0.23-0.33-0.56c0.24-0.02,0.49,0,0.72-0.06c1.74-0.43,4.77,1.07,4.99-1.18c0.19-2-2.93-0.29-4.32-1.21
		C76.01,32.11,75.84,31.94,75.65,31.79z"/>
	<path class="st18" d="M118.07,79.87c0.03-3.57,0.06-7.13,0.09-10.7c0.38-0.37,0.57-1.1,1.35-0.69c0.03,1.43,0.05,2.86,0.08,4.29
		c-0.01,2.14,0.02,4.29-0.05,6.43C119.51,80.21,119.16,80.95,118.07,79.87z"/>
	<path class="st19" d="M120.22,40.45c0,6.2,0.01,12.39,0.01,18.59C119.15,52.84,119.17,46.65,120.22,40.45z"/>
	<path class="st20" d="M96.59,27.25c-0.22,0.25-0.45,0.5-0.67,0.75c-3.88-0.04-7.4-1.13-10.4-3.67c-0.11-0.38-0.04-0.72,0.2-1.04
		C89.35,24.61,92.97,25.93,96.59,27.25z"/>
	<path class="st21" d="M85.72,23.3c0,0.21,0,0.42,0.01,0.63c-1.14,0.99-2.51,0.12-3.73,0.49c-0.68,0.07-1.33,0.05-1.94-0.31
		c-0.42-0.37-0.54-0.84-0.48-1.37c0.14-0.57,0.64-0.74,1.07-1c0.45,0,0.91,0.01,1.36,0.01C83.25,22.27,84.48,22.79,85.72,23.3z"/>
	<path class="st3" d="M119.51,68.48c-0.45,0.23-0.9,0.46-1.35,0.69c-0.01-1.65-0.03-3.31-0.04-4.96
		C120.79,64.92,119.08,67.05,119.51,68.48z"/>
	<path class="st22" d="M80.65,21.75c-0.21,0.2-0.42,0.4-0.63,0.6c-0.28,0.23-0.6,0.53-0.94,0.45c-5.39-1.35-10.85-2.5-15.7-5.4
		c-2.53-1.26-5.64-0.93-7.9-2.91c2.11-2.07,4.14-0.23,6.21,0.11C68,16.98,74.33,19.37,80.65,21.75z"/>
	<path class="st23" d="M35.36,33.89c6.72,0.03,13.44,0.06,20.16,0.09c2.21,1.24,3.61,3.02,3.76,5.64c-0.19,0.28-0.43,0.52-0.71,0.71
		c-1.77,1.24-4.29,2.08-3.05,5.08c0.93,2.26,3.29,3.09,6.31,2.3c0.8-0.21,1.56-0.57,2.41-0.5c8.3,4,16.07,8.82,22.76,15.22
		c1.34,1.28,2.24,2.86,1.02,4.79c-1.62,0.89-3.43,0.99-5.21,1.23c-1.15-3.18-3.46-5.18-6.33-6.88c-5.96-3.52-11.64-7.52-17.86-10.57
		c-5.06-2.48-7.27-7.44-10.32-11.59c-2.06-2.8-4.27-4.39-7.69-4.03c-2.09,0.22-3.99-0.65-6.01-0.76c-0.32-0.02-1.24,0.05-0.29-0.6
		C34.56,33.83,35,33.92,35.36,33.89z"/>
	<path class="st24" d="M87.9,66.99c0.16-4.21-3.23-5.97-5.92-7.87c-5.82-4.11-11.92-7.81-17.91-11.67c-0.18-0.3-0.26-0.62-0.24-0.96
		c0.21-1.15,0.08-2.41,0.99-3.35c12.16,6.73,23.88,14.04,32.04,25.72c2.48,3.55,5.6,6.64,7.62,10.51
		c-3.27,1.23-6.67,1.42-10.12,1.32c-0.63-2.89-3.68-4.32-4.32-7.2C90.82,70.83,89.69,68.8,87.9,66.99z"/>
	<path class="st25" d="M87.9,66.99c4.18,2.38,4.37,2.97,2.15,6.49c-4.32,1.5-6.84-0.26-7.22-5.04
		C84.03,66.25,86.15,67.27,87.9,66.99z"/>
	<path class="st26" d="M46.16,81.44c-1.92-0.01-3.84,0.07-5.75-0.07c-1.45-0.1-2.8-0.59-3-2.76c2.41,2.85,6,1.33,8.77,2.82
		C46.17,81.44,46.16,81.44,46.16,81.44z"/>
	<path class="st27" d="M67.58,29.65c-7.59-1.43-15.25-0.78-22.89-0.81c-1.86-0.09-3.72-0.19-5.58-0.28
		c3.75-0.88,7.56-0.14,11.33-0.47c2.83-2.01,5.73-0.37,8.64-0.24c-1.69-0.09-3.43-0.12-3.77-2.32c1.8-2.1,4.33-0.77,6.44-1.38
		c0.34-0.14,0.7-0.24,1.06-0.33c1.24-0.23,2.48-0.89,3.75-0.1c1.17,1.32,1.9,2.9,2.53,4.5C69.65,29.65,69.07,30.22,67.58,29.65z"/>
	<path class="st28" d="M46.67,20.16c3.03-2.58,6.68-2.08,10.23-2.04c2.05,2.11-0.31,1.98-1.25,2.19c-2.01,0.44-4.19,0.12-6.45,1.68
		c3.74,0.06,6.95,0.79,10.24,0.91c1.26,0.05,2.96-0.35,3.31,1.68l-0.03,0c-2.76,0.9-5.73-0.37-8.46,0.85
		c-1.59,0.19-3.17,0.36-4.45-0.93C48.14,23.5,44.82,23.7,46.67,20.16z"/>
	<path class="st29" d="M49.81,24.5c1.41,0.03,2.81,0.07,4.22,0.1c0.41,0.43,1.15,0.14,1.49,0.71c0.84,1.77,2.37,2.39,4.2,2.79
		c-3.09,0-6.18,0-9.28,0c-0.61-0.53-1.33-0.99-1.81-1.62C47.49,24.98,48.2,24.43,49.81,24.5z"/>
	<path class="st30" d="M74.83,34.69c0.1,0.19,0.21,0.37,0.33,0.56c-0.42,0.38-2.22-0.66-1.21,1.22c0.89,1.66,2.6,2.39,3.93,3.5
		c3.25,2.7,6.75,5.12,10.14,7.66c0.77,0.89,1.61,1.69,2.75,2.09c5.7,6.24,11.09,12.78,17.37,18.47c1.23,1.11,2.51,2.87,4.21,2.05
		c1.57-0.76,0.52-2.82,0.74-4.29c0.09-0.56,0.07-1.14,0.28-1.71c1.05,3.75-0.44,7.72,1.11,11.41c0.43,1.85-0.53,2.31-2.12,2.15
		c-1.56-1.12-3.64,1.04-5.09-0.8c-0.25-1.54,1.9-1.14,2.03-2.44c-1.14-0.66-1.83,1.01-2.89,0.49c-4.54-3.45-7.75-8.13-11.32-12.45
		c-3.87-4.67-8.29-8.63-13.28-11.98c-5.28-3.54-10.46-7.2-15-11.68c-1.68-1.66-4.01-2.39-6.38-4.26c2.99-0.54,5.18-0.61,7.39-0.1
		C70.16,34.61,72.49,34.65,74.83,34.69z"/>
	<path class="st31" d="M107.35,76.33c1.31,1.72,3.67-0.15,5.01,1.46c-2.67,0.28-5.09,1.85-7.88,1.58c-2.66-1.39-4.08-3.98-5.56-6.32
		c-7.85-12.38-19.35-20.5-31.73-27.61c-1.03-0.59-1.42-1.55-2.24-2.2c-2.17-0.85-3.77-2.61-5.82-3.65c-1.2-1.87-2.4-3.74-3.61-5.61
		c4.11,0.07,8.25-0.51,12.31,0.6c-1.91,0-3.81,0-6.6,0c6.09,2.34,9.31,7.06,13.77,10.23c6.1,4.32,12.73,8.01,17.72,13.74
		c4.72,5.43,9.31,10.99,13.95,16.49C107.24,75.28,107.68,75.6,107.35,76.33z"/>
	<path class="st14" d="M67.58,29.65c0.64-0.17,1.51-0.14,0.81-1.24c-0.94-1.46-1.87-2.94-2.13-4.71c0.35-2.53-1.92-3.7-2.88-5.55
		c0-0.25,0-0.5,0-0.74c5.55,1.65,11.09,3.3,16.64,4.95c-0.06,0.4-0.12,0.8-0.18,1.2c0.02,0.74-0.66,1.81,0.64,2.01
		c1.25,0.19,1.46-0.91,1.72-1.82c1.24-1.14,2.33,0.51,3.53,0.18C88.84,26,92.66,26.31,95.92,28c2.06,1.03,4.12,2.06,6.19,3.09
		c-6.87,0.97-13.48,0.36-20.02-0.42C77.25,30.09,72.36,30.67,67.58,29.65z"/>
	<path class="st32" d="M63.38,18.15c2.29,1.16,5.04,2.08,2.88,5.55c-1.16,0.31-2.22,1.07-3.51,0.88c-4.12-1.16-8.4-1.04-12.61-1.49
		c-1.02-0.11-2.56,0.35-2.72-0.99c-0.15-1.22,1.43-1.38,2.38-1.79c1.91-0.83,3.96-0.85,5.99-0.78c1.05,0.03,1.69-0.19,1.11-1.41
		C59.06,18.13,61.22,18.14,63.38,18.15z"/>
	<path class="st33" d="M109.56,60.54c-2.26,3.06-4.88,1.54-7.15,0.28c-2.29-1.28-2.12-3.89-1.15-5.74c1.34-2.57,3.58-4.26,6.78-2.44
		c-0.23,2.36-2.9,0.89-3.79,2.51C105.73,57.16,108.08,58.44,109.56,60.54z"/>
	<path class="st34" d="M109.56,60.54c-2.94-0.52-4.12-3.39-6.39-4.86c-1.33-0.86,0.4-1.72,1.22-2.16c1.11-0.59,2.66,0.4,3.65-0.88
		C111.24,55.38,111.59,57.17,109.56,60.54z"/>
	<path class="st35" d="M94.9,43.6c-1-0.07-1.92-0.43-1.93-1.61c0-0.95,0.77-1.46,1.68-1.55c1.14-0.12,1.88,0.5,1.95,1.6
		C96.67,43.06,95.8,43.39,94.9,43.6z"/>
	<path class="st36" d="M90.77,49.72c-2.45,1.31-2.87-0.03-2.75-2.09C90.52,46.24,90.7,47.9,90.77,49.72z"/>
	<path class="st37" d="M82.2,23.75c1.12,1.18,1.28,2.32-0.42,2.98c-1.1,0.43-2.4,0.41-3.16-0.75c-0.89-1.37-0.31-2.18,1.22-2.42
		C80.63,23.62,81.41,23.68,82.2,23.75z"/>
	<path class="st38" d="M59.13,39.58c2.87-0.27,4.32,1.74,5.82,3.65c-0.28,1.2,0.42,2.62-0.83,3.59c-1.63,0.55-3.03,1.89-4.97,1.39
		c-2.1-0.53-3.86-1.65-3.99-3.91c-0.12-1.99,0.77-3.64,3.28-3.6c0.32,0-0.38-0.61-0.07-0.97C58.62,39.69,58.87,39.64,59.13,39.58z"
		/>
	<path class="st39" d="M58.37,39.74c0.52,1.01,2.19,0.11,2.54,1.46c-0.21,0.18-0.37,0.45-0.53,0.44c-1.5-0.02-3.19-1.29-4.26,1.03
		c-0.69,1.49-0.25,2.63,0.72,3.51c1.47,1.34,3.24,1.99,5.2,0.9c0.68-0.38,1.24-1.3,2.08-0.25c-0.02,0.21-0.03,0.42-0.04,0.62
		c-1.06,0.51-2.07,1.25-3.19,1.48c-3.02,0.61-6.12-1.19-6.63-3.99C53.7,41.86,55.83,40.55,58.37,39.74z"/>
	<path class="st32" d="M55.52,25.3c-0.5-0.24-1-0.47-1.49-0.71c2.9-0.01,5.8-0.02,8.7-0.02C60.44,25.93,57.92,24.98,55.52,25.3z"/>
	<path class="st40" d="M107.35,76.33c-0.23-0.43-0.46-0.86-0.68-1.3c0.82-0.87,1.08-2.59,2.84-2.07c0.82,0.24,1.51,0.94,1.25,1.86
		C110.25,76.58,108.87,76.68,107.35,76.33z"/>
</g>
</svg>
