<?xml version="1.0" encoding="utf-8"?>
<!-- Generator: Adobe Illustrator 23.0.2, SVG Export Plug-In . SVG Version: 6.00 Build 0)  -->
<svg version="1.1" id="Camada_1" xmlns="http://www.w3.org/2000/svg" xmlns:xlink="http://www.w3.org/1999/xlink" x="0px" y="0px"
	 viewBox="0 0 35.55 27.87" style="enable-background:new 0 0 35.55 27.87;" xml:space="preserve">
<style type="text/css">
	.st0{fill:#623612;}
	.st1{fill:#582E0F;}
	.st2{fill:#FE851E;}
	.st3{fill:#A85714;}
	.st4{fill:#E5771B;}
	.st5{fill:#FCEE42;}
	.st6{fill:#FCE940;}
	.st7{fill:#E6781B;}
	.st8{fill:#F9E941;}
	.st9{fill:#FDED42;}
	.st10{fill:#FB861E;}
	.st11{fill:#F0E943;}
	.st12{fill:#FB881E;}
	.st13{fill:#FBEE42;}
	.st14{fill:#F2891F;}
	.st15{fill:#FA861E;}
	.st16{fill:#F3DA3C;}
	.st17{fill:#B25C15;}
	.st18{fill:#F5EC43;}
	.st19{fill:#DF741A;}
	.st20{fill:#F1831E;}
	.st21{fill:#E8C937;}
	.st22{fill:#5E3311;}
	.st23{fill:#5F3411;}
	.st24{fill:#E4771B;}
	.st25{fill:#AB5B15;}
	.st26{fill:#F6E840;}
	.st27{fill:#A95814;}
</style>
<g>
	<path d="M21.88,26.67c-7.1-0.24-12.36-0.89-17.65-1.27c-1.42-0.1-1.82-0.68-1.84-2.13c-0.03-2.16-0.05-4.31-0.11-6.47
		c-0.03-1.07,0.69-2.19,0.32-3.25C1.92,11.6,1.97,9.59,1.78,7.59C1.71,6.84,1.9,6.48,2.5,6.03C5.62,3.67,9.35,3.45,13,2.87
		c2.86-0.45,5.75-0.74,8.59-1.37c1.09-0.24,2.15-0.22,3.25,0.59c1.52,1.12,3.32,1.86,4.99,2.77c0.6,0.32,1.15,0.7,1.66,1.16
		c1.8,1.62,2.97,3.45,2.66,6.05c-0.22,1.89,0.48,3.85-0.69,5.68c-0.27,0.42-0.33,1.35,0.14,1.81c0.54,0.54,0.5,1.14,0.53,1.76
		c0.15,2.56-0.53,3.53-3.04,4.12C27.47,26.3,23.82,26.87,21.88,26.67z"/>
	<path class="st0" d="M3.15,9.37C3.08,7.02,3.31,6.66,5.39,5.71c2.17-0.98,4.51-1.24,6.83-1.6C14.3,3.8,16.4,3.6,18.47,3.23
		c1.42-0.26,2.93-0.01,4.28-0.76c0.16-0.09,0.49-0.01,0.69,0.09c2.12,1.18,4.27,2.31,6.32,3.61c1.99,1.26,3.42,2.88,3.19,5.56
		c-0.12,1.44,0.55,3.03-0.16,4.34c-0.64,1.16-0.54,2.28-0.59,3.45c-0.04,0.82,0.81,1.24,0.82,2.14c0.01,1.04-0.21,1.74-1.14,2.24
		c-1.49,0.81-3.18,0.67-4.75,1.05c-2.62,0.64-5.3,0.66-7.93,0.42c-3.51-0.32-7.03-0.47-10.53-0.82c-1.61-0.16-3.25-0.05-4.83-0.51
		c0.01-0.31-0.19-0.67,0.16-0.92c0.17-0.08,0.35-0.12,0.54-0.14c0.88-0.08,1.73,0.23,2.62,0.22c0.7,0,1.06-0.22,1.25-0.95
		c0.64-2.4,1.41-2.92,3.93-2.9c1.3,0.01,2.54,0.3,3.68,0.91c1.03,0.55,1.81,1.34,1.83,2.6c0.01,0.58,0.24,0.74,0.78,0.77
		c1.35,0.07,2.71,0.02,4.06,0.05c0.62,0.03,1-0.35,1.41-0.76c1.5-1.5,3.26-1.6,4.86-0.26c0.45,0.38,0.9,0.65,1.5,0.43
		c0.68-0.08,1.19-0.27,1.19-1.14c0-1-0.73-0.96-1.36-1.11c-0.83-0.33-1.57-0.76-1.89-1.67c-0.26-0.98,0.05-1.79,0.73-2.49
		c0.42-0.43,0.96-0.66,1.53-0.83c0.73-0.1,0.96-0.56,0.95-1.25c-0.02-0.91,0-1.81,0-2.72c-0.01-1.34-0.07-1.4-1.39-1.43
		c-0.2-0.01-0.39-0.01-0.59,0c-4.66,0.05-9.32,0.1-13.97-0.01c-2.9-0.07-5.79-0.45-8.65-0.95C6.53,9.47,6.08,9.38,5.64,9.25
		c-0.59,0.06-1.38-0.5-1.66,0.53C3.4,10.24,3.6,9.17,3.15,9.37z"/>
	<path class="st1" d="M3.87,23.26c0.11,0.27,0.14,0.54-0.04,0.79c-0.45-0.7-0.15-1.47-0.21-2.2c-0.11-1.58,0.17-3.18-0.22-4.74
		c-0.17-0.69,0.53-1.1,0.48-1.79c-0.09-1.02,0-2.06-0.24-3.07c0.27-0.95-0.26-1.76-0.48-2.62c0-0.08,0-0.17,0-0.25
		c0.91-0.78,0.19,0.68,0.68,0.49c0.5,0.38,0.95,0.8,1.52,1.12c1.44,0.82,1.33,2.21,1.12,3.6c-0.26,0.69-0.59,1.33-1.2,1.78
		c-1.22,0.68-0.85,1.93-1.03,2.96c-0.15,0.85-0.03,1.73-0.04,2.6C4.18,22.38,4.23,22.87,3.87,23.26z"/>
	<path class="st0" d="M3.15,9.62c0.51,0.81,1.01,1.62,0.48,2.62C3.5,11.37,2.95,10.56,3.15,9.62z"/>
	<path class="st2" d="M30.5,16.11c-0.41,0.23-0.82,0.46-1.22,0.69c-0.54-0.01-0.45-0.46-0.53-0.77c-0.15-0.66-0.22-1.34-0.43-1.99
		c-0.65-1.95-2.25-2.4-3.76-1.05c-0.21,0.19-0.4,0.39-0.6,0.58c-0.61,0.5-1.34,0.83-1.88,1.42c-0.81,0.87-0.67,1.59,0.41,2.14
		c0.65,0.33,1.38,0.28,2.06,0.48c1.12,1.74,1.58,1.99,3.05,1.63c0.33-0.08,0.66-0.31,1.01-0.03c0.42,0.61,0.98,1.06,1.63,1.41
		c0.23,0.91,0.05,1.85,0.26,2.76c-0.64,0.25-1.14,0.21-1.68-0.37c-1.4-1.51-3.32-1.38-4.65,0.25c-0.35,0.43-0.6,0.98-1.32,0.72
		c-2.54-1.23-4.59-3.15-6.78-4.87c-3.3-2.58-6.55-5.22-8.92-8.74C6.89,10.01,6.39,9.7,6.72,9.13c7.66,1.32,15.39,0.94,23.1,1.02
		c0.56,0.46,0.53,1.1,0.54,1.73C30.39,13.29,30.3,14.7,30.5,16.11z"/>
	<path class="st3" d="M6.72,9.13c1.38,2.41,3.2,4.44,5.29,6.24c3.38,2.91,6.82,5.75,10.51,8.26c0.13,0.09,0.21,0.24,0.31,0.36
		c-1.55,0.02-3.09,0.14-4.64-0.07c-0.58-0.08-0.72-0.27-0.67-0.79c0.12-1.26-0.64-2-1.63-2.54c-1.59-0.88-3.33-1.03-5.1-0.87
		c-1.09,0.1-2.06,1.37-2.11,2.84c-0.03,0.8-0.28,1.07-1.05,0.99c-1.1-0.11-2.21-0.17-3.32-0.26C4.07,21.2,4.2,19.14,4.65,17.1
		c0.07-0.31,0.29-0.56,0.54-0.76c0.66-0.36,0.86-1.05,1.2-1.65c0.23-1.45,0.29-2.85-0.79-4.07c-0.41-0.47-0.5-1.08-0.12-1.67
		C5.89,9.01,6.31,9.07,6.72,9.13z"/>
	<path class="st2" d="M11.85,6.58c0.64-0.01,1.28-0.01,1.92-0.04c0.83-0.04,1.46-0.33,1.6-1.28c0.16-1.04,1.04-0.57,1.62-0.71
		c1.86-0.06,3.7,0.15,5.53,0.43c0.43,0.07,0.87,0.07,1.24,0.33c-0.19,1.12,0.55,1.46,1.42,1.65c1.21,0.26,2.43,0.27,3.66,0.2
		c-0.02,0.79-0.76,0.41-1.12,0.65c0.32,0.5,1.08,0.58,1.08,1.3C21.27,9.19,13.75,9.2,6.28,7.97c-0.36-0.06-0.7-0.15-1.01-0.33
		C5.23,6.78,6.14,6.8,6.5,6.31C7.55,6.1,8.54,5.3,9.68,5.98c0.13,0.57,0.47,0.91,1.07,0.91c0.81,0,1.62,0.23,2.54-0.06
		C12.7,6.87,12.16,7.33,11.85,6.58z"/>
	<path class="st4" d="M23.77,13.45c0.71-0.84,1.4-1.89,2.67-1.6c1.47,0.33,2.15,1.45,2.39,2.91c0.11,0.68,0.08,1.41,0.44,2.04
		c-0.61,0.69-0.84,1.49-0.69,2.41c-0.72,0.15-1.37,0.64-2.17,0.49c-1.1-0.21-1.86-0.75-1.97-1.95c-0.02-0.38,0.3-0.53,0.51-0.75
		c1.03-1.07,0.91-2.17-0.3-2.98C24.37,13.82,23.99,13.76,23.77,13.45z"/>
	<path class="st3" d="M14.62,20.69c1.39,0.41,2.47,1.09,2.53,2.74c0.01,0.33,0.04,0.57-0.35,0.57c-2.48,0.05-4.95-0.11-7.41-0.48
		c0.6-0.37,0.84-1.05,1.3-1.53c0.63-0.66,1.38-1.19,2.33-1.33C13.55,20.55,14.08,20.84,14.62,20.69z"/>
	<path class="st5" d="M30.5,16.11c-0.69-0.07-0.48-0.6-0.5-0.99c-0.08-1.65,0.15-3.32-0.18-4.97c2.2-0.19,2.2-0.19,2.17,1.94
		c-0.01,0.8-0.09,1.6,0.01,2.38C32.14,15.66,31.76,16.26,30.5,16.11z"/>
	<path class="st6" d="M23.76,5.31c-1.44,0.23-2.82-0.21-4.22-0.39c-0.85-0.11-1.77,0.17-2.56-0.37c1.82-0.33,3.65-0.68,5.48-0.98
		c1.03-0.17,1.91,0.31,2.88,0.8C24.72,4.65,24.06,4.7,23.76,5.31z"/>
	<path class="st7" d="M31.73,16.26c-0.33,1.22-0.27,2.29-0.26,3.36c0,0.23,0.02,0.56-0.32,0.52c-0.83-0.11-1.56-0.48-1.96-1.22
		c-0.32-0.6,0.02-1.16,0.49-1.6C30.23,16.81,30.96,16.73,31.73,16.26z"/>
	<path class="st8" d="M5.47,8.95c0.02,0.71,0.22,1.29,0.69,1.91c0.92,1.2,0.87,2.62,0.28,4.01c-0.2,0.04-0.34,0.02-0.21-0.24
		c0-0.59,0.06-1.2,0-1.78c-0.08-0.79-0.46-1.67-1.21-1.74c-0.95-0.09-0.99-0.66-1.2-1.25C3.64,8.21,4.78,8.99,5.47,8.95z"/>
	<path class="st9" d="M28.8,9.12c-0.59-0.48-1.18-0.96-1.82-1.48c0.67-0.34,1.39,0.11,1.86-0.47c0.42-0.27,0.79-0.27,1.14,0.14
		c0.48,0.56,1.09,1.01,1.52,1.82C30.54,9.12,29.67,9.12,28.8,9.12z"/>
	<path class="st10" d="M12.97,20.88c-1.09,0.55-2.28,0.97-2.66,2.35c-0.13,0.49-0.59,0.27-0.92,0.29c0.07-0.39,0.13-0.78,0.21-1.17
		c0.51-2.23,1.14-2.59,3.37-1.94C13.12,20.57,13.12,20.73,12.97,20.88z"/>
	<path class="st11" d="M5.53,16.32c-1.02,0.87-0.78,2.09-0.87,3.2c-0.1,1.26,0.03,2.53-0.34,3.77c-0.15-0.01-0.3-0.02-0.44-0.03
		c0.13-1.9,0-3.81,0.2-5.71c0.09-0.86,0.43-1.27,1.18-1.47C5.5,15.98,5.55,16.1,5.53,16.32z"/>
	<path class="st12" d="M28.65,6.35c-1.14,0.21-2.27,0.26-3.38,0.01c-0.36-0.08-0.89-0.16-0.91-0.62c-0.01-0.46,0.51-0.51,0.87-0.67
		C26.74,4.41,27.6,5.61,28.65,6.35z"/>
	<path class="st13" d="M30.48,23.38c-0.88-0.85-0.47-1.82-0.26-2.76c0.95,0.09,1.92-0.05,1.82,1.54
		C31.96,23.42,31.18,23.22,30.48,23.38z"/>
	<path class="st14" d="M10.31,5.42c1.36-0.2,2.47-0.37,3.58-0.52c0.29-0.04,0.68-0.2,0.77,0.27c0.09,0.45-0.25,0.69-0.6,0.74
		C12.86,6.07,11.66,6.12,10.31,5.42z"/>
	<path class="st15" d="M26.14,23.98c-0.63,0-1.25,0-1.88,0c0.49-1.22,1.18-1.61,2.84-1.61C27.31,23.22,26.37,23.38,26.14,23.98z"/>
	<path class="st16" d="M11.85,6.58c0.5,0.31,1.09-0.02,1.7,0.26c-1.17,0.6-2.34,0.4-3.46,0.29c-0.6-0.06-0.8-0.58-0.4-1.16
		C10.4,6.18,11.12,6.38,11.85,6.58z"/>
	<path class="st17" d="M26.14,23.98c-0.28-0.9,0.71-1.04,0.97-1.61c0.81,0.01,1.02,0.79,1.91,1.29
		C27.81,23.79,26.98,23.88,26.14,23.98z"/>
	<path class="st18" d="M6.5,6.31C6.28,6.93,5.59,7.11,5.27,7.64C4.83,7.97,4.39,7.72,3.75,7.69C4.71,6.99,5.57,6.59,6.5,6.31z"/>
	<path class="st19" d="M12.97,20.88c0-0.16,0.01-0.31,0.01-0.47c0.57-0.06,1.12,0.04,1.64,0.27C14.11,21.09,13.52,20.82,12.97,20.88
		z"/>
	<path class="st20" d="M4.67,15.61c-0.1-1.43-0.19-2.67-0.27-3.93C5.89,12.27,6.06,13.96,4.67,15.61z"/>
	<path class="st21" d="M5.53,16.32c-0.09-0.08-0.18-0.16-0.27-0.24c0.33-0.48,0.66-0.96,0.99-1.44c0.07,0.08,0.14,0.16,0.21,0.24
		C6.2,15.39,6.12,16.01,5.53,16.32z"/>
	<path class="st22" d="M23.77,13.45c1.12,0.09,1.89,0.65,2.16,1.74c0.32,1.28-0.48,2-1.48,2.56c-0.79-0.02-1.59,0-2.3-0.44
		c-1.1-0.67-1.24-1.63-0.33-2.54C22.38,14.2,23.06,13.8,23.77,13.45z"/>
	<path class="st23" d="M16.36,12.68c0.02,1.31-0.54,1.95-1.7,1.95c-1.3,0-2.2-0.73-2.22-1.82c-0.03-1.22,0.74-2,1.99-2.01
		C15.73,10.79,16.34,11.38,16.36,12.68z"/>
	<path class="st24" d="M23.53,14.16c0.96-0.17,1.79,0.3,1.91,1.15c0.15,1.04-0.35,1.64-1.41,1.74c-0.19-0.27-0.75,0.09-0.79-0.46
		c0.27-0.38,0.28-0.78,0.17-1.22C23.31,14.97,23.18,14.54,23.53,14.16z"/>
	<path class="st25" d="M23.53,14.16c0.09,0.62,0.13,1.25,0.29,1.84c0.15,0.55-0.15,0.59-0.53,0.61c-1.2,0.14-1.1-0.73-1.18-1.48
		C22.44,14.61,22.96,14.35,23.53,14.16z"/>
	<path class="st26" d="M22.11,15.14c0.43,0.46,0.27,1.4,1.18,1.48c0.18,0.26,0.63,0.06,0.74,0.43
		C22.23,17.11,21.6,16.47,22.11,15.14z"/>
	<path class="st27" d="M14.57,14.15c-0.91-0.03-1.62-0.76-1.51-1.76c0.09-0.85,0.75-1.11,1.56-1.1c1.06,0,1.23,0.71,1.23,1.52
		C15.83,13.62,15.54,14.23,14.57,14.15z"/>
</g>
</svg>
