<?xml version="1.0" encoding="utf-8"?>
<!-- Generator: Adobe Illustrator 23.0.2, SVG Export Plug-In . SVG Version: 6.00 Build 0)  -->
<svg version="1.1" id="Camada_1" xmlns="http://www.w3.org/2000/svg" xmlns:xlink="http://www.w3.org/1999/xlink" x="0px" y="0px"
	 viewBox="0 0 30.99 27.15" style="enable-background:new 0 0 30.99 27.15;" xml:space="preserve">
<style type="text/css">
	.st0{fill:#0C0A0D;}
	.st1{fill:#A16631;}
	.st2{fill:#9C6130;}
	.st3{fill:#B07033;}
	.st4{fill:#BF7935;}
	.st5{fill:#AD6F34;}
	.st6{fill:#AE6F33;}
	.st7{fill:#B37234;}
	.st8{fill:#EFB336;}
	.st9{fill:#CF951C;}
	.st10{fill:#F6D94F;}
	.st11{fill:#D0961B;}
	.st12{fill:#F9E150;}
	.st13{fill:#F9D84E;}
	.st14{fill:#FDD74E;}
	.st15{fill:#D0961C;}
	.st16{fill:#E9AE33;}
	.st17{fill:#9C6131;}
	.st18{fill:#CF961B;}
</style>
<g>
	<path class="st0" d="M1.81,12.3c0-1.52,0.01-3.04,0-4.56C1.79,5.97,2.14,5.45,3.82,4.8c1.91-0.74,3.93-1.06,5.91-1.52
		c2.62-0.6,5.28-0.84,7.94-1.08c0.84-0.08,1.63,0.26,2.33,0.8c3.33,2.56,6.08,5.65,8.39,9.14c0.69,1.04,0.77,2.26,0.82,3.46
		c0.07,1.92,0.06,3.84,0.14,5.75c0.04,0.86-0.16,1.68-0.37,2.47c-0.26,0.98-1.05,1.16-2,1c-5.01-0.83-9.95-2-14.91-3.07
		c-2.77-0.6-5.58-1.03-8.31-1.82c-1.5-0.43-1.98-1.18-1.94-2.72c0.04-1.63,0.01-3.27,0.01-4.91C1.83,12.3,1.82,12.3,1.81,12.3z"/>
	<path class="st1" d="M3.56,6.69c0.51-0.37,1.12-0.52,1.71-0.72c2.32-0.54,4.63-1.08,6.98-1.5c1.49-0.27,3-0.35,4.5-0.55
		c0.26-0.03,0.47,0.04,0.6,0.29c-0.01,0.14-0.07,0.26-0.18,0.35c-0.29,0.24-0.64,0.32-0.99,0.37C12.79,5.46,9.44,6.19,6.08,6.86
		C5.81,6.97,5.37,6.79,5.32,7.3C5.11,7.54,4.85,7.74,4.73,8.05c-0.11,0.8-0.02,1.6-0.07,2.4c-0.07,1.09,0.07,1.96,1.17,2.62
		c0.97,0.58,0.95,1.73,0.19,2.6c-0.21,0.24-0.48,0.42-0.71,0.64c-0.65,0.59-0.6,0.86,0.24,1.11c1.26,0.38,2.58,0.52,3.88,0.77
		c1.33,0.26,2.67,0.5,4,0.75c2,0.52,4.02,0.96,6.05,1.36c0.45,0.09,0.99,0.29,1.12-0.45c0.17-1.01,0.78-1.55,1.79-1.58
		c0.96-0.03,2.2,0.83,2.27,1.78c0.1,1.25,0.79,1.61,1.84,1.7c0.16,0,0.33,0,0.49-0.04c0.61-0.22,0.06-1.23,0.89-1.3
		c0.02,0.28,0.04,0.56,0.05,0.83c0.02,2.27-0.27,2.48-2.5,1.83c0.36-0.24,0.73-0.16,0.86-0.12c-2.17,0.02-4.4-1.11-6.81-1.1
		c-2.21-0.3-4.36-0.86-6.52-1.42c-1.63-0.74-3.43-0.77-5.13-1.22c-1.29-0.34-2.62-0.53-3.88-0.98c-0.84-0.64-0.4-1.62-0.44-2.35
		C3.33,12.83,3.2,9.75,3.56,6.69z"/>
	<path class="st2" d="M27.86,20.42c-0.55,0.42,0.14,1.41-0.76,1.67c-0.6-1.58-0.2-3.21-0.25-4.81c-0.02-0.63,0-1.27-0.18-1.87
		c-0.09-0.33-0.4-0.58-0.73-0.41c-0.43,0.22-0.08,0.52,0.05,0.78c0.23,0.45,1.17,0.64,0.51,1.41c-1.33-0.05-2.03-0.65-2.02-1.94
		c0.01-0.8-0.31-1.13-1.01-1.36c-3.93-1.31-7.93-2.4-11.9-3.62c-0.63-0.19-1.15-0.16-1.58,0.42c-0.41,0.56-1.01,0.75-1.7,0.59
		c-1.01-0.31-1.88-0.75-1.75-2.04C6.59,8.74,6.19,8.7,5.87,8.54c-0.46-0.23-1.16-0.09-1.3-0.82C4.7,7.36,5,7.22,5.36,7.18
		c0.5-0.39,0.99-0.12,1.48,0.01c1.65,0.44,3.27,1.02,4.91,1.48c2.36,0.75,4.76,1.34,7.11,2.09c2.24,0.82,4.61,1.29,6.91,2.35
		c-1.65-2.29-3.41-4.33-5.38-6.19c-0.23-0.22-0.47-0.44-0.79-0.53c-0.29-0.07-0.58-0.03-0.73,0.26c-0.14,0.27,0.11,0.42,0.26,0.6
		c0.33,0.4,1.16,0.29,1.1,1.09c-0.87,0.46-1.74,0.32-2.42-0.4c-0.56-0.59-0.68-1.23-0.11-1.9c0.3-0.3,0.63-0.55,1.08-0.57
		c-0.18-0.46-0.84-0.57-0.89-1.15c0.38-0.74,0.82-0.22,1.14,0.01c1.43,1.01,2.6,2.31,3.84,3.53c0.36,0.36,0.62,0.83,1.15,0.99
		c0.57,0.5,1.11,1.01,1.39,1.73c0.55,1.02,1.27,1.91,1.97,2.83c0.61,1.3,0.4,2.69,0.43,4.06C27.86,18.45,27.85,19.43,27.86,20.42z"
		/>
	<path class="st3" d="M24.04,8.85c-0.54,0.32-0.63-0.26-0.88-0.46c-1.45-1.15-2.51-2.72-4.05-3.77c-0.31-0.22-0.6-0.71-1.1-0.27
		c-0.25,0.2-0.49,0.2-0.72-0.02c-1.1-0.56-2.18,0.03-3.24,0.14C11.28,4.74,8.58,5.42,5.89,6.1C5.64,6.16,5.43,6.24,5.27,5.97
		c2.53-1.14,5.28-1.4,7.96-1.88c1.05-0.19,2.16-0.1,3.2-0.34c1.44-0.33,2.55,0.09,3.59,1.04C21.43,6.08,22.87,7.33,24.04,8.85z"/>
	<path class="st4" d="M3.56,6.69c0.02,2.44,0.1,4.89,0.03,7.33c-0.03,1.18,0.36,2.34,0.11,3.53c-0.04,0.2,0.25,0.47,0.39,0.71
		c-0.05,0.1-0.13,0.17-0.24,0.21c-1.05-0.71-0.55-1.86-0.6-2.74C3.11,12.85,3.2,9.98,3.2,7.1C3.2,6.87,3.36,6.76,3.56,6.69z"/>
	<path class="st5" d="M3.86,18.46c0.08-0.07,0.16-0.14,0.24-0.21c1.42-0.06,2.71,0.56,4.07,0.78c1.79,0.29,3.54,0.78,5.33,1.18
		c-0.15,0.27-0.37,0.16-0.55,0.21C9.88,19.93,6.83,19.35,3.86,18.46z"/>
	<path class="st6" d="M19.46,21.85c0.8-0.63,1.61-0.05,2.37,0.07c1.54,0.24,3.06,0.66,4.6,1.01c-0.32,0.24-0.7,0.06-1.03,0.15
		C23.39,22.84,21.42,22.36,19.46,21.85z"/>
	<path class="st7" d="M27.4,13.41c-0.06,0.11-0.13,0.41-0.2,0.28c-0.55-1.01-1.2-1.93-1.91-2.82c-0.03-0.03,0.09-0.19,0.14-0.28
		C26.19,11.46,27.01,12.28,27.4,13.41z"/>
	<path class="st8" d="M8.18,11.04c0.67,0.08,1.4,0.07,1.67-0.61c0.35-0.89,0.88-0.77,1.57-0.56c4.19,1.29,8.39,2.57,12.58,3.84
		c0.68,0.2,1.09,0.37,0.79,1.29c-0.34,1.03,0.22,1.61,1.61,2.06c0.45,0.45,0.37,1.04,0.35,1.58c-0.05,1.14,0.17,2.3-0.09,3.43
		c-0.43-0.07-0.86-0.15-1.29-0.22c-0.66-0.11-1.15-0.22-0.95-1.18c0.21-1.01-0.89-2.12-1.98-2.11c-1.09,0.01-1.69,0.61-1.58,1.77
		c0.04,0.39-0.11,0.61-0.56,0.51c-2.28-0.54-4.61-0.86-6.84-1.61c-1.79-0.93-3.1-2.34-4.04-4.09c-0.58-1.09-1.16-2.18-1.63-3.32
		C7.65,11.49,7.26,10.87,8.18,11.04z"/>
	<path class="st8" d="M18,6.01c-0.4,0.51-0.62,1.07-0.1,1.58c0.62,0.61,1.33,1.15,2.28,0.58c0.54-0.13,0.8,0.28,1.06,0.61
		c0.46,0.6,0.89,1.23,1.33,1.85c0.22,0.32,0.54,0.68,0.27,1.08c-0.27,0.39-0.67,0.08-1,0.04c-0.98-0.12-1.84-0.72-2.86-0.69
		c-2.42-0.67-4.86-1.28-7.23-2.13C10.37,8.16,8.83,7.87,7.36,7.4C6.81,7.22,6.19,7.14,5.74,6.7c3.01-0.83,6.08-1.35,9.15-1.88
		c0.74-0.12,1.47-0.28,2.2-0.42C17.43,4.91,17.78,5.42,18,6.01z"/>
	<path class="st9" d="M8.18,11.04c-0.76,0.26-0.14,0.64-0.03,0.89c1.19,2.7,2.54,5.3,5.11,7c0.09,0.06,0.13,0.19,0.2,0.29
		c-2.8-0.52-5.6-1.03-8.4-1.57c-0.33-0.06-0.71-0.13-0.73-0.64c-0.01-0.43,0.19-0.62,0.53-0.83c2.03-1.31,2.01-2.3-0.05-3.4
		c-0.22-0.12-0.47-0.18-0.45-0.47c0.1-1.53-0.3-3.08,0.22-4.58C5,7.9,5.44,8.06,5.87,8.23c0.59,0.23,1.5,0.06,0.93,1.34
		C6.45,10.36,7.6,10.63,8.18,11.04z"/>
	<path class="st10" d="M26.67,22.07c-0.5-1.65-0.15-3.34-0.25-5.01c0.48-0.55-0.18-0.54-0.38-0.71c-0.51-0.43-0.97-0.85-0.71-1.6
		c0.14-0.39,0.44-0.36,0.79-0.31c0.85,0.15,1.01,0.67,1,1.46c-0.04,2.06-0.01,4.12-0.01,6.18C26.95,22.08,26.81,22.07,26.67,22.07z"
		/>
	<path class="st11" d="M22.96,21.37c-0.69-0.14-1.48-0.25-1.55-1.16c-0.06-0.68,0.42-1.04,1.07-0.98c0.81,0.07,1.28,0.55,1.31,1.41
		C23.8,21.21,23.55,21.46,22.96,21.37z"/>
	<path class="st12" d="M5.74,6.7c2.12,0.42,4.14,1.16,6.14,1.97c0.42,0.17-0.08,0.17-0.14,0.26c-1.63-0.47-3.25-0.95-4.88-1.42
		c-0.49-0.14-1-0.22-1.5-0.33C4.9,6.55,5.52,6.79,5.74,6.7z"/>
	<path class="st13" d="M18,6.01c-0.59-0.37-0.95-0.87-0.91-1.6c0.07-0.02,0.14-0.05,0.21-0.09c0.24,0.01,0.48,0.02,0.72,0.02
		c0.36,0.33,0.73,0.67,1.16,1.06C18.73,5.63,18.36,5.82,18,6.01z"/>
	<path class="st11" d="M4.33,15.59c0-0.56-0.02-0.88,0.01-1.19c0.03-0.29-0.17-0.71,0.24-0.82c0.32-0.09,0.62,0.15,0.81,0.41
		c0.23,0.33,0.21,0.7-0.1,0.97C5.06,15.16,4.78,15.3,4.33,15.59z"/>
	<path class="st14" d="M18.97,11.06c0.56-0.5,1.02,0.06,1.53,0.16c0.73,0.13,1.44,0.33,2.25,0.39c-0.83-1.19-1.39-2.54-2.57-3.44
		c-0.39-0.19-0.81-0.34-1.16-0.59c-0.38-0.26-0.86-0.72-0.51-1.11c0.35-0.39,0.87-0.91,1.61-0.24c2.36,2.17,4.38,4.61,6.21,7.3
		C23.94,12.5,21.39,11.98,18.97,11.06z"/>
	<path class="st15" d="M9.64,9.88c-0.45,0.77-1.07,0.87-1.82,0.49c-0.36-0.18-0.8-0.37-0.74-0.82c0.06-0.4,0.39-0.68,0.87-0.64
		C8.28,9.64,9.35,9.08,9.64,9.88z"/>
	<path class="st16" d="M9.64,9.88c-0.46-0.51-1.58,0.14-1.69-0.97C8.44,9.04,8.94,9.15,9.42,9.3C9.71,9.39,9.96,9.55,9.64,9.88z"/>
	<path class="st17" d="M14.66,14.13c1.12,0.65,1.51,1.59,0.98,2.4c-0.51,0.77-2.47,1.11-3.27,0.51c-0.58-0.43-1.03-0.98-1.06-1.77
		c-0.07-1.47,0.74-2.06,2.16-1.58c0.27,0.5-0.15,0.61-0.45,0.78c-0.55,0.31-0.53,0.76-0.26,1.22c0.34,0.58,0.88,0.64,1.46,0.42
		c0.59-0.23,0.59-0.64,0.39-1.17C14.52,14.69,14.03,14.34,14.66,14.13z"/>
	<path class="st18" d="M14.66,14.13c-0.14,0.13-0.16,0.27-0.02,0.4c0.47,0.45,0.82,1.03,0.31,1.55c-0.46,0.47-1.2,0.68-1.87,0.38
		c-0.62-0.28-0.91-0.82-0.85-1.55c0.04-0.47,0.18-0.75,0.7-0.74c0.32,0.01,0.53-0.14,0.55-0.48C13.87,13.83,14.27,13.98,14.66,14.13
		z"/>
</g>
</svg>
