<?xml version="1.0" encoding="utf-8"?>
<!-- Generator: Adobe Illustrator 23.0.2, SVG Export Plug-In . SVG Version: 6.00 Build 0)  -->
<svg version="1.1" id="Camada_1" xmlns="http://www.w3.org/2000/svg" xmlns:xlink="http://www.w3.org/1999/xlink" x="0px" y="0px"
	 viewBox="0 0 30.23 26.24" style="enable-background:new 0 0 30.23 26.24;" xml:space="preserve">
<style type="text/css">
	.st0{fill:#FEFEFE;}
	.st1{fill:#0B090D;}
	.st2{fill:#A16531;}
	.st3{fill:#C07934;}
	.st4{fill:#EFB336;}
	.st5{fill:#CE951C;}
	.st6{fill:#FDD74E;}
	.st7{fill:#F6D94F;}
	.st8{fill:#D0961B;}
	.st9{fill:#F9DF4F;}
	.st10{fill:#D59B21;}
	.st11{fill:#F9D84E;}
	.st12{fill:#9C6131;}
	.st13{fill:#CF961B;}
</style>
<g>
	<path class="st0" d="M0,11.72c0-1.64,0-3.28,0-4.92c0-2.37,0.68-3.38,2.99-4.13c4.08-1.33,8.28-2.03,12.54-2.59
		c2.8-0.37,4.95,0.52,6.95,2.36c2.63,2.43,4.96,5.09,6.99,8.03c0.49,0.72,0.76,1.48,0.76,2.35c0,3.6,0.02,7.2-0.01,10.8
		c-0.01,1.5-1.78,2.88-3.26,2.56C19.41,24.61,11.86,23,4.32,21.4c-0.59-0.12-1.17-0.28-1.74-0.46C0.88,20.4,0.08,19.4,0.04,17.6
		C0,15.64,0.03,13.68,0.03,11.72C0.02,11.72,0.01,11.72,0,11.72z"/>
	<path class="st1" d="M1.54,11.79c0-1.52,0.01-3.04,0-4.56C1.52,5.46,1.86,4.95,3.55,4.29c1.91-0.74,3.93-1.06,5.91-1.52
		c2.62-0.6,5.28-0.84,7.94-1.08c0.83-0.08,1.63,0.26,2.33,0.8c3.33,2.56,6.08,5.65,8.39,9.14c0.69,1.04,0.77,2.26,0.82,3.46
		c0.07,1.92,0.06,3.83,0.14,5.75c0.04,0.86-0.16,1.68-0.37,2.47c-0.26,0.98-1.05,1.16-2,1c-5.01-0.83-9.95-2-14.9-3.07
		c-2.77-0.6-5.58-1.03-8.31-1.82c-1.49-0.43-1.98-1.18-1.94-2.72c0.04-1.63,0.01-3.27,0.01-4.91C1.55,11.79,1.55,11.79,1.54,11.79z"
		/>
	<path class="st2" d="M3.28,6.18c2.97-1.62,6.27-2.04,9.53-2.59c1.14-0.19,2.32-0.13,3.44-0.38c1.41-0.31,2.46,0.16,3.49,1.05
		c2.53,2.18,4.71,4.65,6.7,7.32c0.73,0.98,1.07,2.06,1.1,3.23c0.07,2.16,0.09,4.31,0.09,6.47c0,1.55-0.21,1.78-1.66,1.49
		c-4.73-0.94-9.45-1.95-14.17-2.95c-2.42-0.51-4.83-1.04-7.25-1.58c-0.41-0.09-0.88-0.11-1.18-0.51C3.03,13.89,2.94,10.04,3.28,6.18
		z"/>
	<path class="st3" d="M3.28,6.18c0.02,2.37,0.05,4.74,0.06,7.11c0.01,1.44,0.04,2.87,0.3,4.3c0.01,0.03-0.18,0.1-0.28,0.15
		c-0.69-0.86-0.36-1.91-0.4-2.84c-0.12-2.72-0.04-5.46-0.04-8.19C2.92,6.42,3.02,6.26,3.28,6.18z"/>
	<path class="st4" d="M26.39,21.56c-0.43-0.07-0.86-0.17-1.29-0.21c-0.74-0.07-1.16-0.25-0.93-1.18c0.19-0.77-0.31-1.35-0.99-1.75
		c-0.62-0.37-1.24-0.58-1.91-0.14c-0.34,0.22-0.73,0.49-0.66,0.93c0.22,1.38-0.57,1.14-1.39,0.94c-2.01-0.48-4.07-0.77-6.03-1.44
		c-1.79-0.93-3.1-2.34-4.04-4.09c-0.58-1.09-1.16-2.18-1.63-3.32c-0.13-0.31-0.54-0.94,0.4-0.76c0.67,0.08,1.4,0.07,1.67-0.61
		c0.35-0.89,0.87-0.78,1.57-0.56c4.19,1.29,8.39,2.57,12.58,3.84c0.68,0.21,1.08,0.38,0.79,1.29c-0.33,1.03,0.22,1.61,1.62,2.05
		c0.45,0.45,0.37,1.04,0.35,1.58C26.43,19.27,26.65,20.42,26.39,21.56z"/>
	<path class="st4" d="M18.67,10.58c-2.15-0.65-4.3-1.3-6.45-1.95c-1.63-0.82-3.42-1.18-5.13-1.78C6.54,6.66,5.91,6.64,5.46,6.19
		c2.99-0.85,6.05-1.32,9.1-1.87c0.82-0.15,1.64-0.31,2.46-0.46c0.07,0.6,0.63,1.05,0.5,1.71c-0.27,0.62-0.34,1.26,0.26,1.7
		c0.62,0.45,1.28,0.97,2.12,0.4c0.54-0.12,0.8,0.28,1.06,0.62c0.46,0.6,0.89,1.23,1.33,1.85c0.22,0.32,0.54,0.68,0.27,1.08
		c-0.27,0.39-0.67,0.08-1,0.03C20.58,11.12,19.7,10.52,18.67,10.58z"/>
	<path class="st5" d="M7.9,10.54c-0.74,0.18-0.18,0.56-0.08,0.78c1.22,2.68,2.47,5.34,5.08,7.02c0.12,0.08,0.19,0.25,0.28,0.38
		c-2.82-0.44-5.63-0.92-8.41-1.57c-0.33-0.08-0.7-0.14-0.72-0.65c-0.01-0.43,0.21-0.62,0.54-0.83c2.03-1.31,2.01-2.27-0.08-3.39
		c-0.28-0.15-0.45-0.29-0.45-0.61c0-1.28-0.01-2.55,0-3.83c0-0.23-0.02-0.54,0.35-0.45C5.14,7.57,5.86,7.78,6.58,8
		c0.16,0.05,0.28,0.24,0.17,0.38C5.55,9.96,7.35,9.91,7.9,10.54z"/>
	<path class="st6" d="M18.67,10.58c0.34-0.48,0.72-0.12,1.07-0.03c0.87,0.22,1.74,0.45,2.72,0.56c-0.82-1.19-1.38-2.54-2.56-3.45
		c-0.35-0.17-0.72-0.33-1.06-0.53c-0.34-0.2-0.75-0.42-0.77-0.85c-0.02-0.5,0.51-0.54,0.82-0.76c0.47-0.34,0.71,0.03,1.01,0.29
		c2.38,2.09,4.31,4.58,6.16,7.2C23.65,12.02,21.12,11.42,18.67,10.58z"/>
	<path class="st7" d="M26.39,21.56c-0.49-1.65-0.15-3.34-0.25-5.01c0.38-0.32,0.07-0.43-0.16-0.6c-0.26-0.18-0.51-0.38-0.73-0.6
		c-0.3-0.31-0.35-0.71-0.2-1.11c0.15-0.39,0.46-0.4,0.79-0.29c0.4,0.14,0.94,0.18,0.95,0.75c0.01,2.22,0,4.44-0.03,6.66
		C26.76,21.54,26.55,21.56,26.39,21.56z"/>
	<path class="st8" d="M22.41,20.82c-0.42-0.1-1.25-0.2-1.28-1.2c-0.02-0.61,0.44-0.95,1.03-0.9c0.82,0.06,1.3,0.52,1.34,1.38
		C23.53,20.64,23.33,20.94,22.41,20.82z"/>
	<path class="st9" d="M5.46,6.19c1.93,0.29,3.71,1.07,5.52,1.72c0.5,0.18,1.1,0.13,1.51,0.56c0.01,0.01-0.02,0.08-0.04,0.09
		c-0.07,0.03-0.15,0.05-0.23,0.07C9.9,7.97,7.58,7.31,5.26,6.64C5.11,6.6,4.81,6.55,5.01,6.28C5.08,6.19,5.3,6.22,5.46,6.19z"/>
	<path class="st10" d="M7.82,8.36C8.1,8.45,8.41,8.52,8.7,8.62c0.32,0.11,0.83,0.12,0.77,0.56C9.43,9.47,9.08,9.83,8.79,9.94
		c-0.74,0.28-1.52,0.04-1.87-0.59C6.54,8.64,7.22,8.46,7.82,8.36z"/>
	<path class="st11" d="M17.52,5.57c-0.19-0.56-1.02-0.94-0.5-1.71c0.96-0.35,1.14,0.7,1.81,1.1C18.39,5.16,17.96,5.37,17.52,5.57z"
		/>
	<path class="st8" d="M4.06,15.09c0-0.56-0.02-0.88,0.01-1.19c0.03-0.29-0.17-0.71,0.24-0.83c0.32-0.09,0.62,0.14,0.81,0.4
		c0.24,0.33,0.21,0.69-0.09,0.97C4.79,14.65,4.5,14.79,4.06,15.09z"/>
	<path class="st12" d="M14.38,13.62c1.12,0.65,1.51,1.59,0.98,2.4c-0.51,0.77-2.47,1.11-3.27,0.51c-0.58-0.43-1.03-0.98-1.06-1.77
		c-0.07-1.47,0.74-2.06,2.16-1.58c0.27,0.5-0.15,0.61-0.45,0.78c-0.55,0.31-0.53,0.76-0.26,1.22c0.34,0.58,0.88,0.64,1.46,0.42
		c0.59-0.23,0.59-0.64,0.39-1.17C14.24,14.18,13.76,13.84,14.38,13.62z"/>
	<path class="st13" d="M14.38,13.62c-0.14,0.13-0.16,0.27-0.02,0.4c0.47,0.45,0.82,1.03,0.31,1.55c-0.46,0.47-1.2,0.68-1.87,0.38
		c-0.62-0.28-0.91-0.82-0.85-1.55c0.04-0.47,0.18-0.76,0.7-0.74c0.32,0.01,0.53-0.14,0.55-0.48C13.59,13.33,13.99,13.47,14.38,13.62
		z"/>
</g>
</svg>
