<?xml version="1.0" encoding="utf-8"?>
<!-- Generator: Adobe Illustrator 23.0.2, SVG Export Plug-In . SVG Version: 6.00 Build 0)  -->
<svg version="1.1" id="Camada_1" xmlns="http://www.w3.org/2000/svg" xmlns:xlink="http://www.w3.org/1999/xlink" x="0px" y="0px"
	 viewBox="0 0 219.79 115.31" style="enable-background:new 0 0 219.79 115.31;" xml:space="preserve">
<style type="text/css">
	.st0{fill:#010002;}
	.st1{fill:#3F6C7F;}
	.st2{fill:#134B27;}
	.st3{fill:#1F6E39;}
	.st4{fill:#16552E;}
	.st5{fill:#309844;}
	.st6{fill:#27833F;}
	.st7{fill:#45758B;}
	.st8{fill:#2C823C;}
	.st9{fill:#6FB6D8;}
	.st10{fill:#518BA4;}
	.st11{fill:#510F11;}
	.st12{fill:#0E4622;}
	.st13{fill:#AECCDF;}
	.st14{fill:#7395AB;}
	.st15{fill:#B2D0E3;}
	.st16{fill:#C8E1EF;}
	.st17{fill:#B2CFE2;}
	.st18{fill:#D7E9F2;}
	.st19{fill:#D8EAF1;}
	.st20{fill:#A8C8D5;}
	.st21{fill:#B4D1E1;}
	.st22{fill:#94B4C2;}
	.st23{fill:#6FA344;}
	.st24{fill:#487134;}
	.st25{fill:#75201B;}
	.st26{fill:#67973D;}
	.st27{fill:#4B7636;}
	.st28{fill:#85B153;}
	.st29{fill:#8DB556;}
	.st30{fill:#5F943A;}
	.st31{fill:#E3E7A0;}
	.st32{fill:#C0BEBF;}
	.st33{fill:#609739;}
	.st34{fill:#1A321B;}
	.st35{fill:#67A13A;}
	.st36{fill:#F9F9B7;}
	.st37{fill:#DFE79B;}
	.st38{fill:#70A444;}
	.st39{fill:#4C7736;}
	.st40{fill:#518037;}
	.st41{fill:#AEC669;}
	.st42{fill:#B5CA6E;}
	.st43{fill:#AAC466;}
	.st44{fill:#BACD72;}
	.st45{fill:#BD3216;}
	.st46{fill:#F5F6D2;}
	.st47{fill:#3C903B;}
	.st48{fill:#F9FADC;}
	.st49{fill:#F5F6CB;}
	.st50{fill:#F4F7D1;}
	.st51{fill:#278E38;}
	.st52{fill:#D8E4A6;}
	.st53{fill:#558539;}
	.st54{fill:#75A942;}
	.st55{fill:#185F34;}
	.st56{fill:#A3B95B;}
	.st57{fill:#6A9E40;}
	.st58{fill:#F0F4BE;}
	.st59{fill:#6DA53C;}
	.st60{fill:#E1EEF3;}
	.st61{fill:#95B959;}
	.st62{fill:#89B354;}
	.st63{fill:#192F18;}
	.st64{fill:#F4F6EB;}
	.st65{fill:#1D7135;}
	.st66{fill:#E9F2F5;}
	.st67{fill:#C32F2C;}
	.st68{fill:#8DB5D0;}
	.st69{fill:#8FB865;}
	.st70{fill:#8DB765;}
	.st71{fill:#C53921;}
	.st72{fill:#44839C;}
	.st73{fill:#487234;}
	.st74{fill:#1C4F27;}
	.st75{fill:#87684E;}
	.st76{fill:#63873A;}
	.st77{fill:#65A040;}
	.st78{fill:#6F1E1A;}
	.st79{fill:#65943D;}
	.st80{fill:#A0A0A0;}
	.st81{fill:#A19FA1;}
	.st82{fill:#45859F;}
	.st83{fill:#477134;}
	.st84{fill:#91BBD7;}
	.st85{fill:#467134;}
	.st86{fill:#629239;}
	.st87{fill:#E5F3F5;}
	.st88{fill:#CB6321;}
	.st89{fill:#C54524;}
	.st90{fill:#EDC566;}
	.st91{fill:#D69243;}
	.st92{fill:#F8FAF3;}
	.st93{fill:#1A5428;}
	.st94{fill:#352761;}
	.st95{fill:#1F302D;}
	.st96{fill:#13502A;}
	.st97{fill:#4C7836;}
	.st98{fill:#AAAAAA;}
	.st99{fill:#528139;}
	.st100{fill:#79B14B;}
	.st101{fill:#8B6A52;}
	.st102{fill:#2A1F4E;}
	.st103{fill:#1B3516;}
	.st104{fill:#92BA59;}
	.st105{fill:#5B9D3B;}
	.st106{fill:#D27B30;}
	.st107{fill:#86281B;}
	.st108{fill:#98311B;}
	.st109{fill:#F0E578;}
	.st110{fill:#B4C96D;}
	.st111{fill:#9BBB5B;}
	.st112{fill:#D0CFD0;}
	.st113{fill:#8AB355;}
	.st114{fill:#134C29;}
	.st115{fill:#F1F2D6;}
	.st116{fill:#98BA58;}
	.st117{fill:#4E7B36;}
	.st118{fill:#17582C;}
	.st119{fill:#F6F7F1;}
	.st120{fill:#5C9239;}
	.st121{fill:#DDE59B;}
	.st122{fill:#31245A;}
	.st123{fill:#71A746;}
	.st124{fill:#66973D;}
	.st125{fill:#4C7735;}
	.st126{fill:#5B4B92;}
	.st127{fill:#801F1E;}
	.st128{fill:#801E1E;}
	.st129{fill:#6D211A;}
	.st130{fill:#63923D;}
	.st131{fill:#5D8C37;}
	.st132{fill:#1C5329;}
	.st133{fill:#A1A0A2;}
	.st134{fill:#F7EED6;}
	.st135{fill:#154722;}
	.st136{fill:#132614;}
	.st137{fill:#876850;}
	.st138{fill:#A29EA2;}
	.st139{fill:#CA5F1C;}
	.st140{fill:#90BB67;}
	.st141{fill:#114825;}
	.st142{fill:#C3371E;}
	.st143{fill:#8DB764;}
	.st144{fill:#ECBF62;}
	.st145{fill:#C0381E;}
	.st146{fill:#87B25E;}
	.st147{fill:#88664F;}
	.st148{fill:#9BC7E4;}
	.st149{fill:#BD3E1D;}
	.st150{fill:#699B3F;}
	.st151{fill:#487433;}
	.st152{fill:#66559B;}
	.st153{fill:#427034;}
	.st154{fill:#6B9D41;}
	.st155{fill:#534483;}
	.st156{fill:#C95A32;}
	.st157{fill:#C34731;}
	.st158{fill:#510F12;}
	.st159{fill:#C83F30;}
	.st160{fill:#5D1816;}
	.st161{fill:#B8B9BA;}
	.st162{fill:#67983E;}
	.st163{fill:#477233;}
	.st164{fill:#68983D;}
	.st165{fill:#C5302E;}
	.st166{fill:#851F1E;}
	.st167{fill:#5E1517;}
	.st168{fill:#631718;}
	.st169{fill:#651619;}
	.st170{fill:#841F1E;}
	.st171{fill:#641619;}
	.st172{fill:#811F1E;}
</style>
<g>
	<path class="st0" d="M26.5,56.08c-6.01-6.11-9.4-13.59-13.88-20.33c-1.57-2.36-3.05-4.74-4.81-6.99c-2.02-2.58-1.18-6.13,1.73-8.17
		c4.86-3.4,10.31-4.96,16.26-4.76c3.31,0.11,5.6,1.59,7.09,4.61c1.99,4.01,2.49,4.27,5.67,1.5c6-5.22,12.77-4.64,19.71-3.2
		c1.79,0.37,2.8,0.85,3.36-1.7c0.96-4.35,4.4-6.7,8.36-4.82c6.7,3.18,11.67,1.04,17.39-2.45c5.13-3.13,11.07-5.29,17.49-2.93
		c2.3,0.85,4.38,1.81,5.96,3.79c2.31,2.9,5.42,3.94,8.98,3.12c6.71-1.53,13.05-0.79,19.13,2.51c1.36,0.74,2.96,0.81,4.56,0.74
		c3.26-0.13,6.52-0.01,9.13,2.37c0.79,0.73,1.52,0.29,2.33,0.21c4.21-0.41,8.38-0.2,12.47,0.95c0.81,0.23,1.96,0.25,2.34,0.79
		c2.45,3.51,6.37,2.95,9.78,3.71c3.6,0.8,6.06,3.12,7.44,6.23c1,2.26,2.23,3.39,4.57,3.79c5.48,0.94,9.77,3.3,10.6,9.5
		c0.16,1.24,1.38,1.59,2.22,2.2c4.99,3.62,6.57,8.39,4.59,14.15c-0.29,0.85-0.99,1.48,0.16,2.44c8.16,6.77,4.61,15.64-2.56,20.7
		c-7.45,5.26-15.64,8.74-24.66,10.23c-2.2,0.36-3.97,1.16-5.41,3.06c-4.41,5.83-11.27,7.2-17.75,8.39
		c-19.43,3.56-39.06,3.57-58.73,2.3c-8.76-0.57-17.41-1.81-25.87-3.95c-6.56-1.66-12.52-5.08-18.75-7.72
		c-5.88-2.49-12.21-3.91-18.28-5.99c-7.75-2.65-15.11-6.04-21-12.01c-6.38-6.46-5.5-13.69,2.24-18.46
		C20.79,58.39,23.44,57.32,26.5,56.08z"/>
	<path class="st1" d="M175.24,90.91c-9.13,10.85-21.9,11.86-34.66,12.68c-15.81,1.02-31.64,1.22-47.4-0.63
		c-9.89-1.16-19.77-2.61-28.17-8.74c-0.74-0.54-1.75-0.78-2.67-0.99C51.2,90.75,40.5,86.93,30,82.55
		c-4.02-1.68-7.55-4.14-10.65-7.23c-4.43-4.43-3.91-8.51,1.64-11.56c4.32-2.38,8.94-4.07,13.69-5.39c0.9-0.28,1.42,0.2,1.84,0.9
		c0.26,0.75,0.22,1.47-0.2,2.15c-2.61,2.04-5.95,2.38-8.84,3.75c-2.61,1.24-6.16,1.78-6.56,5.36c-0.39,3.53,3.2,4.06,5.31,5.56
		c6.97,4.94,15.14,6.9,23.21,9.11c4.63,1.43,9.41,2.13,14.2,2.74c9.02,1.47,18.11,2.18,27.22,2.78c4.4,0.82,8.75,0.24,13.11-0.45
		c5.14,0.18,10.27,0.55,15.4-0.12c3.19-0.06,6.38,0.58,9.57-0.1c5.48-0.38,11-0.21,16.45-0.99c2-0.06,4.02,0.24,5.97-0.46
		c10.67-1.75,21.28-3.88,31.95-5.63c1.47-0.3,2.93-0.73,4.44-0.81c2.45,0.46,2.15,1.39,0.42,2.54c-3.66,2.43-7.23,5.05-11.84,5.4
		C175.79,90.14,175.44,90.44,175.24,90.91z"/>
	<path class="st2" d="M35.94,59.1c-0.42-0.25-0.84-0.49-1.26-0.74c-8.18-7.72-13.97-17.11-19.02-27.03
		c-0.54-1.05-1.28-2.02-2.05-2.92c-2.79-3.29-2.66-3.92,1.32-5.9c2.37-1.18,4.92-1.82,7.5-2.23c3.13-0.49,5.89-0.14,7.24,3.51
		c0.51,1.37,1.89,2.4,2.88,3.59c2.1,2.68,4.54,1.5,7.04,0.73c1.23-0.38,2.58-2.34,3.91-0.08c-0.71,1.98-2.62,2.62-4.15,3.69
		c-1.09,0.74-2.48,0.55-3.65,1.11c1.9,3.85,6.75,4.95,8.24,9.09c0.11,0.73,0.03,1.42-0.4,2.04c-2.49,1.26-3.35-1.37-5.01-2.1
		c-4.28-4.35-8.64-8.64-12.1-13.72c-2.7-3.97-2.67-3.99-7.35-2.76c-2.38,0.74-0.92,1.94-0.3,2.94c5.63,9.05,10.69,18.51,18.36,26.12
		C37.09,56.09,37.41,57.83,35.94,59.1z"/>
	<path class="st3" d="M65.58,21.62c0.11-5.98,1.04-6.69,6.56-4.23c4.77,2.12,8.97,2.24,13.23-1.33c3.62-3.03,8.08-4.7,12.72-5.56
		c3.29-0.61,6.55-0.01,8.89,2.6c1.97,2.2,4.32,3.7,6.93,4.93c1.76,1.97,3.94,1.51,6.15,1.12c3.83-0.68,7.7-1.62,11.48,0.05
		c1.07,0.47,3.41,0.66,1.78,2.96c-1.52,0.63-2.96-0.01-4.42-0.26c-2.74-0.7-5.39,0.02-8.05,0.57c-1.64,0.21-3.28,0.18-4.93,0.1
		c-1.64-0.08-3.11-0.83-4.66-1.25c0.71,2.14,2.19,3.93,2.31,6.24c-0.27,0.95-0.79,1.57-1.88,1.46c-2.13-2.01-2.61-4.89-3.86-7.37
		c-0.68-1.36-1.35-2.72-2.4-3.84c-2.54-3.39-5.74-3.73-9.53-2.35c-4.39,1.59-8.46,3.66-11.94,6.79c0.54,1.43,1.94,2.1,2.84,3.21
		c0.81,1.01,1.96,1.87,1.37,3.44c-0.59,0.71-1.36,1.02-2.27,0.96c-1.07-0.34-1.61-1.2-2.09-2.12c-2.89-4.74-8.24-4.6-12.64-6.34
		c-1.32-0.52-2.07,0.96-3.22,1.14c-0.51,0.03-0.68-1.86-1.56-0.23C66.18,22.7,65.3,22.55,65.58,21.62z"/>
	<path class="st4" d="M65.58,21.62c0.39,1.26,2.22-1.57,2.22,0.78c1.55,1.62,0.9,4.77,3.3,5.57c2.12,0.71,3.95-1.25,5.98-1.76
		c2.59-0.65,5.15-0.95,7.24,1.28c0.48,0.66,0.96,1.32,1.44,1.98c-0.32,1.13-1.19,1.41-2.23,1.41c-2.74-1.12-5.26-0.73-7.83,0.73
		c-2.52,1.44-5.3,2.15-8.26,1.51c-0.81-0.12-1.55-0.64-2.78-0.32c2.27,5.04,5.21,9.63,7.96,14.31c1.82,3.1,3.81,6.1,5.12,9.48
		c0.3,0.79,0.73,1.52,0.33,2.4c-0.26,0.25-0.57,0.37-0.93,0.35c-3.6-2.22-5.38-5.83-7.14-9.44c-0.17-2.04-1.22-3.56-2.74-4.85
		c-1.18-1-2.49-1.92-2.83-3.59c-1.53-4.36-3.91-8.34-5.77-12.55c-0.58-1.31-1.51-2.07-2.92-2.26c-3.85-0.72-7.62-0.99-11.09,1.38
		c-0.41,0.28-0.9,0.27-1.36,0.02c-2.22-0.53-3.75,1.31-5.75,1.66c-2.41,0.41-3.93-0.12-4.99-2.34c3.14,1.81,5.99,0.55,8.18-1.49
		c5.44-5.05,11.6-3.87,17.83-2.63c1.32,0.26,2.33,1.08,2.92,2.41c0.76,1.71,2.08,3.53,3.9,2.82c1.04-0.4,0.13-2.76-0.03-4.22
		C65.24,23.35,64.68,22.44,65.58,21.62z"/>
	<path class="st5" d="M137.71,20.88c1.81,0.72,3.7,0.74,5.61,0.7c1.29-0.02,2.68-0.4,3.83,0.52c3.57,2.88,7.63,2.09,11.69,1.71
		c2.53-0.24,5.02,0.23,7.47,0.88c1.42,0.38,2.48,1.2,2.2,2.8c-0.62,3.63,1.41,2.81,3.33,2.02c2.36-0.97,4.68-0.85,7.02-0.03
		c2.59,0.91,4.54,2.8,4.67,5.4c0.14,2.68,1.62,3.11,3.55,3.58c2.09,0.5,4.21,0.96,6.25,1.66c2.7,0.92,4.74,2.55,4.16,5.81
		c-0.29,1.64,0.36,2.41,1.76,3c0.98,0.42,1.9,1.03,2.76,1.67c4.88,3.66,4.47,8.78-0.9,11.46c-1.93-0.72-0.49-1.61,0.05-2.07
		c1.29-1.11,1.87-2.37,1.76-4.06c-0.07-1.01-0.56-0.13-0.82-0.25c-2.16-1.7-4.42-3.23-6.99-4.24c-0.26-0.23-0.48-0.5-0.66-0.8
		c-0.63-1.1-0.79-2.3-0.82-3.54c-0.01-1.16-0.09-2.31-0.36-3.44c-0.4-1.6-1.81-1.69-3.04-2.02c-3.19-0.86-6.42-1.55-9.59-2.51
		c-0.6-0.41-0.94-0.98-1.1-1.68c-0.32-4.25-2.15-5.6-6.25-4.42c-1.59,0.46-3.13,1.02-4.8,1.14c-1.46,0.34-2.59,1.44-4.03,1.82
		c-1.18,0.31-2.38,0.67-3.3-0.56c-0.13-0.31-0.17-0.64-0.14-0.98c0.67-1.74,2.72-1.44,3.79-2.57c0.5-1.35,0.24-2.57-0.61-3.68
		c-0.46-0.4-0.85-0.85-0.93-1.48c-2.89-1.01-5.82-0.56-8.72-0.19c-1.44,0.18-3.04,0.63-4.18-0.23c-2.87-2.15-6.13-2.28-9.46-2.47
		c-1.55-0.09-3.18-0.62-4.19-1.81C135.58,20.73,136.41,20.44,137.71,20.88z"/>
	<path class="st6" d="M137.71,20.88c-0.28,0.19-1.22,0.4-0.67,0.6c1.63,0.62,3.1,1.75,5.02,1.63c2.84-0.18,5.61-0.19,7.92,2.12
		c1.14,1.14,2.81,0.64,4.4,0.39c3.56-0.56,7.18-0.87,10.82,0.4c-0.54,0.89-1.22,0.57-1.75,0.73c-1.16,1.16-2.67,0.96-4.06,0.89
		c-3.06-0.14-5.92,0.49-8.67,1.77c-0.67,0.25-1.36,0.46-2.02,0.72c-1.64,0.37-2.81,2.05-4.71,1.71c-0.65-0.67-0.87-1.5-0.94-2.4
		c0.07-0.74,0.44-1.31,0.99-1.78c0.58-0.54,1.49-0.66,2.04-1.69c-2.72-0.98-5.43-0.48-8.1-0.35c-1.62,1.09-1.36,2.92-1.76,4.48
		c-0.39,1.5-0.71,3.02-1.91,4.15c-0.88,0.59-1.69,0.8-2.27-0.38c-0.75-3.17,1.3-6.01,1.04-9.11c-0.01-0.34-0.01-0.68-0.02-1.02
		c-0.03-0.66-0.18-1.33,0.07-1.99c-1.99-3.13-5.17-2.39-8.1-2.49c-3.52-0.11-7.02,1.82-10.55,0.12c-0.5-0.24-0.95-0.58-1.42-0.89
		c-0.01,0,0.08-0.23,0.16-0.26c0.22-0.09,0.46-0.13,0.69-0.18c2.12,1.18,4.33,0.96,6.52,0.32C126.58,16.55,132.35,17.3,137.71,20.88
		z"/>
	<path class="st7" d="M175.24,90.91c-1.01-1.64,0.51-1.52,1.23-1.53c5.03-0.07,8.07-4.2,12.24-5.99c0.38-0.16-0.5-0.44-0.84-0.6
		c1.56-2.83,4.68-2.36,7.1-3.36c0.68-0.18,1.36-0.26,2.06-0.22c1.59,0.21,2.32,0.87,1.32,2.47c-0.35,0.56-0.83,1.11-0.45,1.86
		c-5.15,3.94-11.36,5.04-17.43,6.5C178.76,90.45,176.98,90.63,175.24,90.91z"/>
	<path class="st8" d="M202.39,55.55c0.15-0.33,0.28-1.26,0.66-0.69c1.28,1.89,1.23,3.78-0.76,5.35c-0.57,0.45-2.15,0.39-1.19,1.87
		c-0.32,0.42-0.64,0.84-0.96,1.26c-0.7,0.99-1.72,1.17-2.84,1.12c-1.08-0.27-2-0.87-2.96-1.4c-4.53-1.96-9.35-1.36-14.08-1.64
		c-0.62-0.09-1.18-0.3-1.65-0.73c-0.45-1.15,0.01-2.01,0.9-2.72c3.36-1.21,6.7-0.44,10.04,0.13c2.57,0.21,4.81,1.92,7.49,1.64
		C199.5,59.21,201.01,57.47,202.39,55.55z"/>
	<path class="st9" d="M197.42,64.22c0.81-0.6,1.67-1.03,2.72-0.88c1.72,1.04,3.52,1.98,5.15,3.16c5.16,3.75,5.18,7.93,0.17,12.18
		c-2.15-1.17-0.1-2.07,0.25-3.02c0.55-1.52,2.33-3.02-0.2-4.38c-2.78-1.75-5.93-2.88-8.46-5.06
		C196.76,65.48,196.77,64.79,197.42,64.22z"/>
	<path class="st10" d="M205.8,70.65c2.34,0.4,2.23,1.73,1.72,3.65c-0.43,1.64-2.74,2.3-2.07,4.38c-2.11,2.25-4.88,3.47-7.55,4.86
		c-2.21-0.68-0.68-1.85-0.14-2.49c0.89-1.07,0.07-0.98-0.54-1.15c-0.09-0.34-0.05-0.66,0.16-0.95c0.87-0.86,1.97-1.35,3.11-1.67
		C203.85,76.31,205.73,74.22,205.8,70.65z"/>
	<path class="st11" d="M77.15,58.99c0.21,0.03,0.41,0.04,0.62,0.04c1.16-0.51,1.91,0.46,2.83,0.78c1.72,0.84,3.7,1.21,5.04,2.76
		c1.38,1.89,1.02,3.81,0.13,5.75c-0.69,1.22-1.17,2.53-1.73,3.81c-1.4,2.13-3.44,3.34-5.84,4.01c-2.56-0.16-4.01,1.76-5.76,3.12
		c-3.06,1.33-6.27,2.08-9.58,2.38c-1.3,0-2.57-0.18-3.81-0.58c-5.48-0.98-10.44-3.27-15.25-5.96c-2.22-1.24-3.15-3.52-4.62-5.37
		c-1.19-1.5-2.16-3.14-2.92-4.9c-0.33-1.15-1.04-2.28-0.25-3.52c-0.02-0.74-0.04-1.47-0.07-2.21c0.23-1.69,0.46-3.38,0.69-5.08
		c-0.39-3.36,0.75-4.66,4.02-4.37c2.86,0.25,5.56,1.34,8.37,1.84c1.16,0.07,2.33,0.16,3.49,0.23c3.48,0.55,6.44,2.98,10.12,2.84
		c1.49,0.07,2.9,0.52,4.29,1.01c1.3,0.59,2.61,1.16,4.01,1.49C73.06,57.53,75.21,57.93,77.15,58.99z"/>
	<path class="st12" d="M59.11,80.17c1.21,0.17,2.42,0.34,3.63,0.51c4.81,4.13,10.26,3.45,15.8,2.08c2.69,0.51,5.31,1.28,7.86,2.27
		c1.54,0.84,3.1,1.63,4.71,2.34c5.08,2.34,12.1,1.21,16.21-2.64c0.86-0.81,1.54-1.84,2.78-2.15c0.34-0.04,0.67,0.02,0.98,0.17
		c1.56,3.41,5.27,2.38,7.82,3.77c3.38,1.24,6.85,1.8,10.11-0.01c4.7-2.62,9.53-2.78,14.58-1.52c2.69,0.67,5.22,0.27,7.61-1.11
		c1.82-1.27,3-3.59,5.67-3.5c0.57,0.01,0.99,0.26,1.23,0.79c0.16,0.73-0.14,1.35-0.49,1.95c-0.35,0.6-0.7,1.19-1.11,1.76
		c-1.88,2.35-4.25,3.9-7.24,4.43c-2.11,0.04-4.22,0.01-6.33,0.03c-4.8-0.92-9.37,0.47-13.99,1.39c-3.07,1.37-6.15,0.72-9.23,0.05
		c-0.66,0.47-1.28-0.07-1.92-0.09c-0.98-0.3-1.96-0.59-2.95-0.83c-3.81-1.24-7.3,0.95-10.99,1.01c-4.26,1.59-8.59,1.78-12.98,0.62
		c-1.88-0.38-3.62-1.14-5.36-1.93c-3.67-1.68-7.45-2.51-11.46-1.32c-2.25,0.67-4.48,0.6-6.66-0.32c-2.79-0.86-5.23-2.26-7.14-4.52
		C59.54,82.44,58.26,81.68,59.11,80.17z"/>
	<path class="st13" d="M36.01,61.31c0.33,1.1,0.66,2.21,0.99,3.31c0.21,1.83-1.42,1.99-2.45,2.63c-4.07,2.53-3.94,4.96-0.2,8.02
		c4.76,3.88,10.3,5.43,16.1,6.57c1.61,0.32,3.39,0.33,4.52,1.85c-1.25,2.83-3.92,1.74-6.04,2.17c-9.83-2.04-19.07-5.5-27.24-11.46
		c-3.14-2.3-2.95-5.39,0.35-7.56C26.32,64.05,31.25,62.89,36.01,61.31z"/>
	<path class="st14" d="M110.93,96.56c6.65-1.23,13.38-0.92,20.05-0.63c11.74,0.51,23.16-2.58,35.18-2.62
		c-3.42,3.44-7.46,5.08-11.91,5.32c-16.59,0.9-33.18,2.15-49.82,1.44C105.73,97.3,108.73,97.67,110.93,96.56z"/>
	<path class="st15" d="M149.89,88.69c2.44-1.04,4.63-2.46,6.41-4.46c1.87-1.48,4.18-0.92,6.26-1.16c5.37-0.62,10.57-2.08,15.88-2.93
		c2.18,0.45,3.08,2.86,5.2,3.41c-10.66,2.51-21.44,4.37-32.3,5.83C150.59,89.7,149.84,90.03,149.89,88.69z"/>
	<path class="st16" d="M183.64,83.55c-2.51,0.72-3.37-1.05-4.25-2.8c2.42-2.33,3.88-5.48,6.45-7.69c5.99,0.62,8.26,2.29,9.5,6.98
		c-2.49,0.92-4.98,1.83-7.46,2.75C186.46,83.04,185.05,83.3,183.64,83.55z"/>
	<path class="st17" d="M67.11,87.1c2.23,0.27,4.38,1,6.71,0.28c6.45-1.98,11.85,0.67,17.03,4.11c-4.07,0.6-8.06-0.28-12.06-0.73
		c-5.16-0.57-10.42-0.56-15.46-2.07C64.18,87.21,65.68,87.24,67.11,87.1z"/>
	<path class="st14" d="M93.1,100.02c-5.77-1.6-11.85-2.05-17.4-4.87c4.91,0,9.86-0.33,14.74,0.1c4.29,0.37,8.56,0.48,12.84,0.55
		c0.72,0.01,1.44,0.04,1.98,0.64c-0.52,0.8-1.37,1.02-2.2,0.98C99.45,97.21,96.31,98.72,93.1,100.02z"/>
	<path class="st18" d="M67.11,87.1c-0.98,1.19-2.51,1.09-3.77,1.6c-4.95-0.18-9.78-0.94-14.39-2.83c1.68-1.5,4.29-0.6,5.9-2.27
		c1.02-1.54,2.53-1.69,4.18-1.46c0.56,0.16,1.1,0.37,1.6,0.69C62.55,84.6,64.68,86.07,67.11,87.1z"/>
	<path class="st19" d="M93.1,100.02c1.89-2.5,4.6-3.34,7.53-3.62c1.53-0.15,3.09,0.01,4.64,0.03c1.89,0.05,3.77,0.09,5.66,0.14
		c-1.81,1.83-4.43,2.15-6.5,3.5C100.65,100.05,96.88,100.03,93.1,100.02z"/>
	<path class="st20" d="M128.92,90.73c4.34-2.35,8.84-3.54,13.75-2.01c0.77,0.86,2.66-0.66,2.88,1.36
		C140.01,90.61,134.49,91.19,128.92,90.73z"/>
	<path class="st21" d="M103.83,90.87c3.66-2,7.44-3.15,11.6-1.65c-0.54,1.03-1.62,0.7-2.45,1.12c1.71-0.55,3.43-0.14,5.16-0.13
		c0.52,0.19,1.03,0.38,1.55,0.58C114.41,91.8,109.12,92.06,103.83,90.87z"/>
	<path class="st22" d="M145.54,90.07c-0.65-1.11-2.2-0.3-2.88-1.36c2.41-0.01,4.81-0.02,7.22-0.03c0.48,0.23,0.97,0.46,1.45,0.69
		C149.52,90.53,147.49,89.99,145.54,90.07z"/>
	<path class="st23" d="M43.28,28.06c3.88-3.45,8.28-3.52,12.92-2.01c1.83,4.19,4.09,8.23,4.55,12.91c-1.17,0.88-2.31,0.27-3.38-0.18
		c-3.83-1.61-7.44-1.34-10.87,1.05c-4.44-1.26-6.06-4.94-7.49-8.77C40.44,30.05,41.86,29.06,43.28,28.06z"/>
	<path class="st24" d="M48.99,52.56c-2.42-0.58-4.87-1.05-7.25-1.78c-3.09-0.95-4.83-0.08-5.11,3.24c-3.6-1.38-5.21-4.84-7.4-7.54
		c-4.9-6.03-7.92-13.32-12.54-19.59c-1.61-2.19,1.15-1.77,2.16-2.31c2.94,2.74,4.64,6.38,6.96,9.58c2.88,3.98,6.44,7.05,10.86,9.16
		c1.74,0.83,3.34,1.89,5.1,3.23c-1.7-1.62-3.81-2.73-2.85-5.38c1.68,0.52,2.29,2.64,4.19,2.83C45.17,46.79,48.03,49.02,48.99,52.56z
		"/>
	<path class="st25" d="M48.99,52.56c-2.27-2.63-4.92-5.01-5.87-8.55c0.07-0.72,0.14-1.44,0.21-2.15c1.51-0.01,1.38-2.06,2.77-2.22
		c2.79-3.35,6.31-3.45,10.11-2.25c1.47,0.46,2.92,1,4.38,1.51c2.06-0.43,3.26,0.76,4.31,2.26c0.54,1.89,2.34,2.6,3.62,3.78
		c1.47,1.36,2.57,2.8,2.22,4.93c-0.24,1.72-0.17,3.49-0.9,5.13c-0.59,0.99-1.18,1.99-2.6,1.24c-1.51-0.26-3.02-0.51-4.54-0.77
		c-0.25-1.43,1.72-1.16,1.86-2.7c-5.47-1.8-11.79-1.47-16.53-5.78c1.37,2.13,4.65,2.5,4.7,5.57C51.48,52.55,50.23,52.56,48.99,52.56
		z"/>
	<path class="st26" d="M38.92,41.18c0.46,2.95,3.08,4.4,4.92,6.79c-11.77-4.48-19.87-12.34-24.99-23.38
		c0.46-0.13,0.93-0.23,1.37-0.4c2.76-1.08,4.57-1.08,6.31,2.26C29.51,32.18,34.5,36.5,38.92,41.18z"/>
	<path class="st27" d="M46.09,39.64c-0.93,0.73-0.64,2.98-2.77,2.22c-2.41-3.71-7.08-5.3-9.18-9.78c1.7-0.58,3.48-0.08,4.87-1.02
		C41.46,33.85,43,37.38,46.09,39.64z"/>
	<path class="st28" d="M106.02,17.26c3.04,3.32,3.8,7.78,5.81,11.61c0.5,1.86,0.34,3.71-0.01,5.57c-2.61,0.42-4.44-2.33-7.09-1.75
		c-0.68,0.02-1.35,0.15-2.04,0.11c-2.85-1.14-5.85-1.78-8.74-2.78c-0.29-0.19-0.46-0.47-0.53-0.8c-0.59-3.09-3.42-4.29-5.33-6.26
		c-0.6-0.62-1.89-0.65-1.7-1.97C92.22,15.9,98.89,15.34,106.02,17.26z"/>
	<path class="st29" d="M133.94,23.02c0.03,0.27,0.06,0.54,0.1,0.81c-2.03,2.88-2.23,6.45-3.59,9.59c-0.11,0.34-0.24,0.68-0.41,0.99
		c-0.51,0.93-0.88,2.33-2,2.3c-1.54-0.04-1.16-1.82-1.73-2.78c-1.18-1.91-2.74-3.43-4.69-4.55c-0.58-0.29-1.18-0.55-1.8-0.76
		c-1.3-0.46-2.84-0.36-3.76-1.66c-0.81-1.68-1.79-3.34-0.74-5.28c1.95,0,3.89,0,5.84,0.01c2.16,0.4,4.24-0.64,6.4-0.39
		C129.67,21.92,131.92,22.05,133.94,23.02z"/>
	<path class="st30" d="M84.32,27.5c-2.88-0.93-5.66-1.29-8.59,0.14c-6.46,3.17-7.71,2.28-7.94-5.24c0.72-1.45,1.62-2.9,3.48-2.03
		c4.2,1.98,9.45,1.62,12.68,5.75C84.3,26.57,85,26.82,84.32,27.5z"/>
	<path class="st31" d="M106.02,17.26c-0.99,0.96-2.06,0.14-3.03,0.04c-6.1-0.65-11.61,0.78-16.62,4.26
		c-1.17,1.5-2.61,1.54-4.19,0.78c4.74-4.12,10.07-7.2,16.23-8.56C101.63,13.07,104.26,14.4,106.02,17.26z"/>
	<path class="st32" d="M93.49,29.04c0.09,0.15,0.17,0.3,0.24,0.45c-0.06,0.09-0.11,0.2-0.2,0.27c-0.07,0.05-0.18,0.05-0.27,0.07
		c0.69,0.88,2.99-0.06,2.47,2.18c-3,1.05-6.27,1.03-9.22,2.27c-0.61,0.27-1.22,0.52-1.77,0.91c-1.08,0.69-1.84,1.94-3.32,1.94
		c-0.78,0.02-0.94-1.98-2.23-0.57c-0.58,0.63-1.49,0.5-1.73-0.65c0.69-3.4,3.05-4.89,6.21-5.46c0.69-0.32,1.39-0.64,2.08-0.96
		c0.7-0.22,1.4-0.44,2.1-0.66C89.79,27.62,91.68,27.28,93.49,29.04z"/>
	<path class="st33" d="M93.49,29.04c-1.88-0.07-3.75-0.14-5.63-0.22c-0.81-3.11-3.76-4.34-5.69-6.48c1.5,0.3,2.76-0.7,4.19-0.78
		c4.04,0.51,5.57,4.22,8.15,6.56C95.13,28.67,93.93,28.8,93.49,29.04z"/>
	<path class="st34" d="M121.72,28.59c2.32,0.84,3.75,2.66,5.09,4.58c0.98,6.07-1.86,8.6-7.75,6.91c-1.25-0.36-2.46-0.82-3.59-1.46
		c-1.45-0.9-2.82-1.89-3.62-3.47c-0.03-0.18-0.06-0.37-0.09-0.55c-0.67-1.92-1.07-3.84,0.07-5.74c0.44-0.45,0.88-0.9,1.31-1.36
		c0.29-0.27,0.59-0.29,0.89-0.03c0.16,0.31,0.23,0.65,0.23,1c-1.42,4.82,1.42,8.65,6.57,8.8c1.17,0.03,2.5,0.21,3.2-1.05
		c0.71-1.28,0.28-2.51-0.41-3.72C122.91,31.25,121.08,30.51,121.72,28.59z"/>
	<path class="st35" d="M113.86,27.59c-0.23-0.05-0.47-0.07-0.71-0.08c-1.13-2.44-2.26-4.88-3.54-7.64c2.14,0.68,3.92,1.25,5.7,1.81
		c0.43,1.75,0.86,3.5,1.29,5.25C115.79,27.59,114.9,27.91,113.86,27.59z"/>
	<path class="st36" d="M127.43,21.74c-2.09-0.06-4.2,1.25-6.28-0.06c2.54-0.86,5.1-1.5,7.78-0.68
		C128.97,22.37,128.16,21.98,127.43,21.74z"/>
	<path class="st37" d="M127.43,21.74c0.5-0.24,1-0.49,1.51-0.73c1.4,0.24,2.79,0.49,4.19,0.73c0.27,0.43,0.55,0.85,0.82,1.28
		C131.67,23.11,129.56,22.38,127.43,21.74z"/>
	<path class="st38" d="M83.68,30.44c-2.11,1.69-4.78,2.79-5.86,5.57c-0.25,2.29-1.11,4.44-1.52,6.7c-0.97,2.26,0.6,4.65-0.36,6.9
		c-0.75,0.6-1.46,0.22-1.84-0.35c-3.14-4.77-6.08-9.66-8.38-14.89c-0.47-1.08-0.83-2.56,1.39-2.03c3.32,0.66,6.33-0.31,9.08-2.01
		C78.79,28.71,81.21,28.57,83.68,30.44z"/>
	<path class="st39" d="M67.1,32.33c-0.53,0.18-1.39,0.23-0.96,1.07c2.84,5.64,5.49,11.38,9.56,16.29c0.51,0.11,0.88,0.41,1.14,0.86
		c0.39,0.88,0.49,1.86,0.84,2.75c0.45,2.64,3.52,3.63,3.98,6.27c-0.25,0.83-1.03,0.63-1.6,0.83c-0.77-0.46-1.53-0.92-2.3-1.37
		c-3.59-9.26-9.86-17.07-14.13-25.96c-0.24-0.51-0.83-0.88-0.39-1.85C64.47,31.7,65.91,31.4,67.1,32.33z"/>
	<path class="st40" d="M64.89,41.15c-1.44-0.75-2.88-1.5-4.31-2.26c-1.67-4.21-4.04-8.18-4.37-12.84c0.99-0.13,2.18-0.17,2.52,0.86
		C60.4,31.83,63.87,35.96,64.89,41.15z"/>
	<path class="st24" d="M69.24,54.76c0.15-1.74,0.33-3.47,1.49-4.9c1.74,3.32,3.9,6.35,6.42,9.13c-2.3,0.2-4.43-0.51-6.54-1.26
		C69.97,56.83,69.41,55.88,69.24,54.76z"/>
	<path class="st41" d="M197.4,60.57c-2.71,0.94-4.75-1.29-7.21-1.53c-1.94-2.09-3.69-4.36-6.25-5.78c-0.89-0.49-2.16-0.99-1.84-2.3
		c0.36-1.46,1.81-1.29,2.96-1.42c0.71-0.08,1.42-0.07,2.14-0.11c2.68,0.28,5.56-0.75,7.98,1.2c0.05,0.17,0.1,0.34,0.14,0.51
		c-0.06,0.81,0.47,1.32,1,1.75C199.07,55.12,199.38,57.68,197.4,60.57z"/>
	<path class="st42" d="M165.82,32.55c-1.61,0.7-3.21,1.4-4.82,2.1c-2.93,2.28-5.27-0.01-7.78-0.99c-0.46-1.86,1.55-3.17,1.11-5.03
		c3.3-1.62,6.63-1.91,10-0.22C165.24,29.64,164.88,31.33,165.82,32.55z"/>
	<path class="st43" d="M161.61,35.51c0.92,0.63,1.78-0.33,2.69-0.11c5.52-0.69,9.1,1.57,10.42,6.56c-0.54,1.48-1.77,1.88-3.17,2.02
		c-1.27,0.01-2.3-0.59-3.14-1.43c-2.03-2.03-4.8-2.41-7.31-3.37C159.94,37.77,159.31,36.43,161.61,35.51z"/>
	<path class="st44" d="M174.34,41.89c-0.75-2.83-3.7-3.78-5.22-6.04c-1.05-1.56-3.32,1.36-4.83-0.45c1.22-0.72,2.45-1.44,3.67-2.16
		c2.16,1.16,4.55,0.99,6.87,1.18c2.23,0.18,4.19,0.75,5.18,3.02c0.31,0.49,0.62,0.98,0.93,1.48c0.15,0.37,0.11,0.71-0.12,1.03
		C178.87,41.29,176.96,42.77,174.34,41.89z"/>
	<path class="st45" d="M161.61,35.51c-1.61,1.12-0.97,2.26-0.04,3.41c1.18,0.93,1.54,2.06,0.82,3.45c-1.05,0.69-2.28-1.15-3.29,0.23
		c-1.12-1.28-0.63-3.33-2.11-4.44c-4.08-4.24-8.59-2.48-13.07-0.91c-0.65,0.33-1.32,0.63-2.08,0.43c-0.71-0.45-1.06-1.06-0.94-1.92
		c0.91-1.78,2.64-2.22,4.35-2.71c2.69,0.22,5.49-2.08,8.07,0.36c2.62,0.03,4.91,2.09,7.68,1.24
		C161.2,34.94,161.41,35.22,161.61,35.51z"/>
	<path class="st46" d="M193.71,43.29c1.09,0.97,0.96,2.21,0.75,3.46c-0.78,0.63,0.38,2.52-1.56,2.4c-1.61-2.45-3.9-3.42-6.8-3.66
		c-2.68-0.23-5.03-1.36-5.65-4.45c0.12-0.64,0.6-0.96,1.12-1.24C185.78,40.39,190.1,40.62,193.71,43.29z"/>
	<path class="st47" d="M193.03,49.08c1.47-0.16,0.54-1.8,1.43-2.33c-0.06,1.34,0.16,2.64,0.72,3.87c-2.84-0.07-5.68-0.15-8.52-0.22
		c-3.8-1.33-7.04,1.81-10.76,1.36c-0.91-0.11-1.88,0.33-2.84,0.33c-0.86-0.01-1.67-0.14-2.36-0.71c-0.54-0.9-0.26-1.59,0.54-2.16
		c2.48-1.18,5.22-1.22,7.83-1.82C183.78,47.46,188.67,46.07,193.03,49.08z"/>
	<path class="st48" d="M180.02,37.44c-1.9-1.48-4.01-2.03-6.46-2.18c-1.9-0.12-4.51,0.73-5.59-2.02c2.02-0.09,3.9-0.68,5.81-1.3
		c2.13-0.69,4.12-0.1,5.88,1.42C181.17,34.68,180.5,36.03,180.02,37.44z"/>
	<path class="st49" d="M197.4,60.57c1.19-3.44,0.37-6.15-2.72-8.25c-1.12-0.76,0.02-0.98,0.63-1.19c3.04,0.39,5.46,1.75,7.08,4.42
		C202.5,58.99,199.76,59.58,197.4,60.57z"/>
	<path class="st50" d="M164.23,28.89c-3.48-1.39-6.84-0.84-10.14,0.64c-1.62,1.04-3.18,1.76-4.21-0.7
		c4.24-2.52,8.87-2.51,13.57-2.08c0.51,0.24,1.02,0.47,1.52,0.71C165.44,28.3,165.54,28.95,164.23,28.89z"/>
	<path class="st51" d="M193.71,43.29c-4.05-1.02-8.1-2.04-12.15-3.05c-0.34-0.06-0.57-0.24-0.67-0.58c0.02-0.25,0.03-0.49,0.05-0.74
		c4.27,0.03,8.2,1.64,12.22,2.78C193.66,41.83,194.54,42.42,193.71,43.29z"/>
	<path class="st52" d="M164.23,28.89c0.61-0.29,0.73-0.83,0.73-1.44c0.72,1.63,1.11,3.31,0.86,5.1
		C163.51,32.1,164.4,30.27,164.23,28.89z"/>
	<path class="st53" d="M115.27,37.52c1.31,0.55,2.59,1.17,3.93,1.63c5.29,1.82,8.78-1.11,7.61-5.98c1.18,0.66,0.38,2.11,1.24,3.16
		c0.59-1.14,1.11-2.15,1.63-3.15c1.24-0.92,2.05-0.06,2.88,0.7c0.48,0.81,0.97,0.09,1.45,0.01c0.74,0.58,0.94,1.4,1.04,2.27
		c-0.15,1.51-1.38,2.36-2.12,3.52c-1.17,1.65-2.48,3.19-3.78,4.73c-1.13,1.34-2.33,1.5-3.57,0.09c-2.75-3.14-6.22-3.57-10.08-2.74
		c-2.01,0.43-4.02,0.33-5.87-0.76c-0.47-0.3-0.84-0.69-1.12-1.17c-0.14-0.32-0.21-0.66-0.24-1.01c0.65-2.58,0.32-4.64-2.72-5.42
		c-0.65-0.17-1.24-0.7-1.12-1.57c2.97-0.46,5.16,1.13,7.33,2.78c0,0-0.05-0.04-0.05-0.04C112.8,35.66,112.86,38.01,115.27,37.52z"/>
	<path class="st54" d="M134.7,36.03c-0.83-0.52-0.63-1.37-0.68-2.14c1.25-2.33,1.4-4.97,2.05-7.47c0.24-0.92,0.16-1.97,1.55-1.88
		c0.34,0.31,0.86,0.45,0.98,0.98c0.15,2.97,1.8-0.4,2.43,0.56c1.33,0.31,3.01,0.1,3.15,2.14c-0.28,0.44-0.56,0.89-0.83,1.33
		C140.44,31.69,138.54,35.15,134.7,36.03z"/>
	<path class="st55" d="M134.7,36.03c2.9-2.13,4.98-5.36,8.64-6.47c0.85,0.47,0.73,1.28,0.71,2.05c-2.23,2.82-4.99,5.11-7.47,7.68
		c-0.54,0.43-1.12,0.76-1.82,0.82c-0.9-0.04-1.66-0.35-2.16-1.16C133.29,37.97,134,37,134.7,36.03z"/>
	<path class="st56" d="M149.87,28.82c1.21,1.42,2.83,0.38,4.22,0.7c2.26,1.79-0.72,2.55-0.76,3.89c-2.91-0.46-5.71,0.65-8.59,0.56
		c-0.24-2.68,2.41-2.98,3.65-4.44C148.72,28.95,149.27,28.83,149.87,28.82z"/>
	<path class="st57" d="M148.39,29.54c-1.22,1.48-2.44,2.96-3.65,4.44c-1.11,0.8-2.67,0.82-3.52,2.06c-0.47,1.22-0.93,2.46-1.99,3.34
		c-1.18,0.79-2.23,0.7-3.14-0.43c2.46-2.65,4.57-5.68,7.95-7.33C145.54,31.02,146.69,29.71,148.39,29.54z"/>
	<path class="st58" d="M138.21,25.46c-0.2-0.31-0.4-0.61-0.59-0.92c3.53,0.54,7.3-0.89,11.05,1.25c-1.39,1.55-3.09,1.74-4.49,2.43
		c-0.97-1.02-2.3-1.25-3.56-1.63C139.75,26.34,138.72,26.45,138.21,25.46z"/>
	<path class="st59" d="M132.56,33.88c-0.96-0.23-1.92-0.47-2.88-0.7c0.73-2.48,1.53-4.95,2.18-7.45c0.31-1.22,0.93-1.86,2.17-1.9
		C134.55,27.33,132.47,30.44,132.56,33.88z"/>
	<path class="st60" d="M195.34,80.04c-2.01-4.07-5.53-5.91-9.81-6.6c-0.02-0.38,0.11-0.7,0.4-0.96c0.81-0.5,1.69-0.48,2.58-0.31
		c3.25-0.09,6.1,0.73,8.48,3.17c1.3,1.33,1.57,2.49,0.5,3.98c-0.09,0.19-0.18,0.38-0.26,0.58
		C196.59,79.95,195.97,79.99,195.34,80.04z"/>
	<path class="st61" d="M172.85,51.26c4.59-0.48,9.11-2.12,13.81-0.87c-1.3,0.34-2.79-0.39-4.18,0.73c2.97,2.36,7.12,3.46,7.72,7.91
		c-3.58-0.25-7.16-0.5-10.74-0.74c-1.45-0.82-2.35-2.3-3.77-3.15c-0.91-1.07-2.2-1.77-2.95-3.01
		C172.62,51.83,172.65,51.53,172.85,51.26z"/>
	<path class="st62" d="M179.94,60.59c4.12-0.18,8.23-0.29,12.28,0.69c1.14,0.27,2.34,0.35,3.07,1.46c0.19,0.56-0.19,0.84-0.54,1.14
		c-1.4,0.69-0.3,3.66-2.93,3.24c-3.66-1.18-7.63-0.1-11.26-1.53C179.51,64.03,178.82,62.42,179.94,60.59z"/>
	<path class="st63" d="M175.67,54.69c2.19,0.23,3.18,1.72,3.77,3.61c-0.19,0.79-0.39,1.58-0.58,2.38c0.64,2.06-0.75,3.17-2.04,4.33
		c-3.59,2.82-7.29,5.18-12.04,2.56c-1.19-1.1-1.44-2.6-1.76-4.08c-0.21-2.04,1-3.47,2.1-4.96c1.79-1.48,3.37-3.47,6.15-2.59
		c0.85,1.6-0.76,1.99-1.43,2.78c-1.66,1.94-3.79,4.48-1.78,6.48c2.21,2.21,4.43-0.57,6.31-2.06c0.92-0.73,1.71-1.66,2.15-2.79
		c0.49-1.28,0.87-2.57-1-3.11c-0.51-0.08-1.02-0.18-1.52-0.31c-0.72-0.27-1.38-0.58-1.26-1.54
		C173.51,54.24,174.46,53.91,175.67,54.69z"/>
	<path class="st64" d="M176.6,64.17c0.99-1.01,2.06-1.97,2.26-3.5c0.36-0.03,0.72-0.06,1.07-0.08c0.29,1.66,0.57,3.32,0.86,4.98
		c1.11,1.29,0.42,2.49-0.19,3.7c-0.93,1.27-1.98,2.39-3.62,2.72c-1.05,0.04-1.97-0.15-2.3-1.33
		C175.2,68.46,175.26,66.13,176.6,64.17z"/>
	<path class="st65" d="M194.6,63.48c0.23-0.25,0.46-0.49,0.69-0.74c0.71,0.49,1.42,0.99,2.13,1.48c0.05,0.67,0.1,1.34,0.15,2
		c0.9,2.01-0.09,3.15-1.81,3.95c-1.37,0.02-3.02,0.56-3.25-1.66c0.04-0.35,0.15-0.68,0.34-0.98
		C194.37,66.59,193.13,64.45,194.6,63.48z"/>
	<path class="st66" d="M195.19,69.86c1.76-0.58,2.1-2.08,2.38-3.63c3.09,0.83,5.54,2.86,8.23,4.43c1.19,3.3,0.28,5.34-3.3,6.94
		c-1.61,0.72-3.35,1.16-5.02,1.73c0.18-3.07-3.34-6.23-6.6-5.91c-0.85,0.08-1.65,0.15-2.17-0.72
		C190.2,70.2,192.87,70.44,195.19,69.86z"/>
	<path class="st67" d="M62.24,77.53c-5.39-0.61-11.63-2.2-17.19-5.71c-4.25-2.69-7.45-12.61-5.87-17.37
		c0.51-1.55,1.21-1.91,2.91-1.49c12.64,3.11,25.3,6.12,37.75,9.95c3,0.92,3.49,2.33,2.32,4.99c-0.9,2.06-2.23,3.87-4.04,4.94
		C73.59,75.55,68.75,77.62,62.24,77.53z"/>
	<path class="st68" d="M59.19,82.76c-1.45,0.28-2.9,0.56-4.35,0.84c-4.88-1-9.78-1.79-14.51-3.49c-3.25-1.17-5.62-3.57-8.27-5.49
		c-3.04-2.2-2.05-6.23,1.62-8.1c1.15-0.59,2.56-0.66,3.33-1.91c0.93,1.54,1.86,3.08,2.8,4.63c-0.91,3.08,0.52,4.88,3.14,6.28
		c4.43,2.37,9.2,3.88,13.88,5.59C57.74,81.45,59.11,81.2,59.19,82.76z"/>
	<path class="st69" d="M77.88,75.73c2.09-0.94,4.03-2.11,5.69-3.7c3.35-1.94,6.74,0.19,10.11-0.1c1.58,0.27,2.37,1.49,3.11,2.71
		c1.21,2.01,3.35,2.97,4.96,4.53c-0.05,2.39-1.65,3.06-3.65,3.29c-2.42-1.57-4.95-2.14-7.36-0.91c1.06,0.37,3-1.31,3.7,1.28
		c-2.92,1.71-5.9,1.36-8.89,0.24c-1.84-2.13,0.61-2.66,1.42-3.92c-0.96,0.24-1.85,0.95-2.89,0.55c-1.83-2.4-4.56-0.71-6.75-1.47
		c-0.3-0.21-0.49-0.49-0.57-0.85C76.72,76.53,77.1,75.99,77.88,75.73z"/>
	<path class="st70" d="M85.08,68.34c0.68-1.88,1.25-3.77,0.03-5.66c0.25-2.16,2.28-1.33,3.4-2.02c0.52-0.15,1.06-0.23,1.6-0.28
		c2.39-0.11,4.87,0.15,6.88-1.63c1.73-0.73,3.02-2.58,5.25-2.03c0.91,1.98-0.8,3.28-1.28,4.9c-1.51,2.85-3.65,5.17-6.01,7.33
		c-0.69,0.3-1.42,0.4-2.16,0.43c-2.39,0.11-4.84-0.29-7.15,0.71C84.67,69.76,84.49,69.18,85.08,68.34z"/>
	<path class="st71" d="M52.72,52.55c-1.61-2.81-5.81-3.48-6.38-8.07c5.34,5.11,11.49,6.37,17.95,6.72c1.58,0.09,1.47,1.43,1.67,2.37
		c0.28,1.31-0.9,1.05-1.66,1.24c-0.55,0.14-1.07,0.43-1.6,0.66C58.99,55.79,56.07,53.44,52.72,52.55z"/>
	<path class="st72" d="M59.19,82.76c-6.31-2.08-12.72-3.9-18.41-7.55c-2.7-1.73-3.38-3.53-0.98-5.96
		c4.49,7.08,11.91,8.98,19.31,10.93c0.5,0.89,1,1.77,1.5,2.66C60.14,82.81,59.66,82.78,59.19,82.76z"/>
	<path class="st73" d="M78.71,83.41c-3.65,0.52-7.12,2.62-11.03,1.01c-2.03-0.84-3.85-1.74-4.93-3.74c3.43-0.23,6.69-1.23,9.95-2.23
		c0.85,0.08,1.42,0.66,2.03,1.17C75.94,81,78.14,81.35,78.71,83.41z"/>
	<path class="st74" d="M85.08,68.34c0.1,0.56-0.17,1.26,0.61,1.55c2.56-1.49,5.15-0.4,7.73-0.09c0.4,0.12,0.76,0.32,1.09,0.59
		c0.54,0.76,0.59,1.53,0.04,2.31c-3.66-0.22-7.31-0.44-10.97-0.66C83.65,70.63,83.98,69.33,85.08,68.34z"/>
	<path class="st75" d="M74.26,79.95c-0.52-0.5-1.04-1-1.57-1.5c1.28-1.76,2.5-3.64,5.18-2.72c-0.27,0.49-0.54,0.97-0.81,1.46
		C76.47,78.45,75.82,79.66,74.26,79.95z"/>
	<path class="st76" d="M88.69,61.32c-0.85,1.35-2.82-0.21-3.58,1.36c-1.68-0.76-3.36-1.52-5.04-2.28c0.49-0.21,0.97-0.41,1.46-0.62
		c1.09-0.47,2.11-0.01,3.16,0.19C85.99,60.53,87.64,60.01,88.69,61.32z"/>
	<path class="st77" d="M69.24,54.76c0.67,0.89,1.92,1.52,1.37,2.97c-1.24-0.25-2.66-0.1-3.38-1.5
		C68.23,56.2,68.77,55.53,69.24,54.76z"/>
	<path class="st78" d="M95.27,68.27c0.96-2.87,3.84-4.37,5.02-7.08c2.86-2.36,6.55-1.57,9.76-2.63c2.29-0.19,4.3,0.9,6.46,1.36
		c1.38,0.52,2.56,1.37,3.63,2.38c4.6,4.01,5.43,8.92,3.48,14.51c-0.27,0.89-0.88,1.52-1.58,2.09c-0.86,0.59-1.7,1.22-2.45,1.97
		c-2.62,1.79-5.19,3.85-8.65,2.01c-0.18-0.02-0.36-0.03-0.54-0.03c-0.54-0.01-1.08-0.01-1.63-0.02c-4.5-1.22-4.74-1.69-2.34-4.66
		c1.08-0.24,2.1,0.13,3.14,0.34c5.47,1.14,7.77-0.07,9.95-5.23c0.96-4.39-2.56-8.96-7.44-9.59c-1.41-0.18-2.83-0.1-4.25,0.03
		c-2.18,0.41-4.14,1.35-6.04,2.44c-1.86,0.8-2.72,3.37-5.25,2.99C96,69.04,95.52,68.82,95.27,68.27z"/>
	<path class="st79" d="M152.05,84.32c-2.52,1.98-5.3,2.45-8.42,1.68c-4.72-1.17-9.35-1.43-13.82,1.24
		c-3.8,2.28-7.77,1.86-11.64-0.05c-2.16-2.97,0.49-4.73,1.73-6.85c2.05-0.94,3.95,0.28,5.92,0.43c7.25,0.57,14.42,2.07,21.75,1.79
		C149.19,82.5,151.26,81.96,152.05,84.32z"/>
	<path class="st80" d="M175.08,70.7c0.53,0.87,1.41,0.59,2.18,0.67c0.35,1.22-0.56,1.84-1.21,2.58c-0.51,0.47-1.06,0.88-1.62,1.29
		c-3.97,4.02-9.31,5.14-14.41,6.74c-0.69,0.22-1.43,0.09-1.99-0.48c-0.32-0.24-0.64-0.48-0.96-0.72c-0.69,0.4-1.43,0.26-2.16,0.17
		c-3.9-0.39-6.95-2.49-9.74-4.99c-1.14-1.02-2.49-2.62,0.65-2.97c7.23,4.41,14.31,1.63,21.39-0.48
		C169.8,71.75,172.25,70.42,175.08,70.7z"/>
	<path class="st81" d="M106.54,78.54c-2.53,4.14,1.69,2.68,3.01,3.64c0.02,1.45-1.3,1.51-2.01,1.41c-3.43-0.47-6.26,1.33-9.33,2.22
		c-3.9,0.79-7.8,1.7-11.68-0.09c-2.71-0.44-5.31-1.22-7.82-2.31c-1.5-1.14-3.38-1.78-4.45-3.47c0.68-1.18,1.58-2.14,2.81-2.76
		c0.01,0.21,0.04,0.42,0.08,0.62c1.73,1.63,3.55,3.1,6.02,3.45c0.65,0.13,1.31,0.25,1.76,0.81c3.15,1.18,6.33,1.11,9.52,0.2
		c1.05-1.26,2.25-0.75,3.44-0.3c1.59-0.36,2.85-1.2,3.76-2.55c-0.15-0.9-0.27-1.8-0.05-2.71c0.13-0.56,0.38-1.06,0.85-1.42
		c1.26-0.64,2.55-0.64,3.84-0.1C107.24,76.24,107.46,77.35,106.54,78.54z"/>
	<path class="st82" d="M185.81,72.83c-0.1,0.2-0.2,0.4-0.28,0.61c-1.16,3.18-2.64,6.09-6.14,7.31c-7.59,1.86-15.18,3.77-23.09,3.48
		c0.26-0.44,0.51-0.88,0.77-1.31c5.56-2.15,11.49-2.86,17.18-4.52c3.44-1.2,6.93-2.33,8.5-6.14
		C183.86,71.91,184.94,71.84,185.81,72.83z"/>
	<path class="st83" d="M98.68,84.85c3.27-2.32,7.19-2.02,10.87-2.67c0.29,0.23,0.57,0.45,0.86,0.68c-2.89,3.72-6.84,5.48-11.32,6.63
		c-3.17,0.81-5.8,0.28-8.34-1.52C92.97,85.87,96.43,86.89,98.68,84.85z"/>
	<path class="st24" d="M155.02,80.62c0.68,0.05,1.37,0.11,2.05,0.16c-2.23,0.39-3.37,2.33-5.02,3.53c-0.57-0.81-1.44-0.8-2.26-0.73
		c-7.67,0.64-15.17-1.26-22.78-1.49c-0.54-0.02-1.06-0.41-1.59-0.63c-0.03-0.95,0.28-1.67,1.27-1.96
		c6.09,0.98,12.23,0.87,18.37,0.89c1.43,0,2.83-0.02,4.21-0.45C151.21,79.84,153.12,80.2,155.02,80.62z"/>
	<path class="st84" d="M175.1,79.04c-5.96,1.55-11.85,3.39-18.04,3.88c0.32-0.47,0.65-0.94,0.97-1.41
		c5.84-1.52,11.78-2.81,16.33-7.23C177.69,75.38,176.47,77.2,175.1,79.04z"/>
	<path class="st85" d="M119.6,80.72c0.57,2.38-2.57,3.95-1.43,6.46c-1.84-0.48-3.67-1.36-5.51-1.35c-2.79,0.01-2-1.49-1.71-2.96
		c3.25,0.15,6.07-0.9,8.52-3.02C119.84,80.1,119.89,80.38,119.6,80.72z"/>
	<path class="st86" d="M98.68,84.85c-1.86,3.03-5.1,2.55-7.93,3.11c-1.58-0.41-3.05-1.04-4.21-2.24
		C90.6,85.79,94.66,85.63,98.68,84.85z"/>
	<path class="st87" d="M118.14,90.21c-1.87,1.07-3.84,0.38-5.91,0.51c0.78-1.54,2.16-1.11,3.2-1.5
		C116.33,89.55,117.24,89.88,118.14,90.21z"/>
	<path class="st88" d="M67.7,48.31c-2.87,1.54-5.71,0.36-8.55-0.12c-1.47-1.35-3.4-1.62-5.21-2.15c-1.06-0.31-1.96-0.86-2.77-1.57
		c-0.56-0.49-1-1.14-0.6-1.87c0.3-0.54,0.97-0.68,1.58-0.62c1.77,0.17,3.54,0.5,5.32,0.04C62.14,42.06,64.45,45.95,67.7,48.31z"/>
	<path class="st89" d="M57.77,42.38c-2.09,2.01-4.41,0.31-6.79,0.27c0.92,3.07,3.62,2.85,5.71,3.38c1.35,0.34,2.61,0.31,2.46,2.16
		c-3.25-0.33-6.16-1.63-8.82-3.43c-1.26-0.85-2.72-2.14-1.73-3.82c1-1.69,2.66-2.75,4.77-1.37c0.87,1.29,2.41,1.13,3.63,1.67
		C57.47,41.47,57.82,41.79,57.77,42.38z"/>
	<path class="st90" d="M57.77,42.38c-0.26-0.19-0.52-0.38-0.78-0.58c-0.09-1.4,0.73-1.04,1.51-0.78c3.1,0.71,5.74,2.29,8.05,4.39
		c0.8,0.73,2.17,1.38,1.15,2.89c-1.53,0.34-2.37-0.68-3.22-1.66C62.67,44.55,60.39,43.2,57.77,42.38z"/>
	<path class="st91" d="M58.5,41.02c-0.56,0.14-1.21,0.11-1.51,0.78c-1.35-0.33-2.8-0.45-4.03-1.04c-1.19-0.57-0.3-0.98,0.41-1.2
		C55.15,39.8,56.91,40.12,58.5,41.02z"/>
	<path class="st92" d="M108.83,38.75c0.01,0.22,0.04,0.44,0.08,0.66c1.08,3.82,1.08,3.82-3.07,5.45c-1.35-0.74-1.42-2.08-1.53-3.38
		c-0.11-1.3-0.13-2.61-0.98-3.7c-0.68-1.28-1.58-2.36-2.83-3.12c-1.06-0.66-2.2-1.14-3.3-1.72c-0.55-0.32-1.09-0.66-1.31-1.31
		c-1.27-0.55-2.55-1.1-4.19-1.81c0.92-0.15,1.48-0.24,2.04-0.33c3.32,0.33,6.5,1.15,9.38,2.9
		C106.21,33.44,108.35,35.35,108.83,38.75z"/>
	<path class="st93" d="M108.83,38.75c-1.24-2.72-3.49-4.53-5.71-6.36c0.24-0.66,0.76-0.66,1.32-0.56c0.6,0.36,1.16,0.84,1.8,1.06
		C109.99,34.23,110.26,34.8,108.83,38.75z"/>
	<path class="st94" d="M121.72,28.59c0.58,0.75,1.05,1.6,1.75,2.22c1.93,1.7,2.65,3.88,1.61,6.09c-1.11,2.35-3.64,1.45-5.48,1.23
		c-5.74-0.68-8.54-5.76-5.74-10c1.13-0.9,2.37-0.58,3.61-0.35c1.39,0.01,0.8,1.48,1.5,2.03c0.77-0.42,0.11-1.36,0.67-1.84
		c0.33-0.08,0.64-0.04,0.94,0.13C120.95,28.25,121.33,28.42,121.72,28.59z"/>
	<path class="st95" d="M120.56,28.09c-0.35,0.05-0.7,0.1-1.05,0.15c-0.41,0.33-0.81,0.32-1.22,0.01c-1.48-0.04-2.96-0.08-4.44-0.12
		c0-0.18,0-0.36,0.01-0.53c0.82-0.62,1.72-0.89,2.74-0.66C117.74,27.96,119.49,26.84,120.56,28.09z"/>
	<path class="st96" d="M97.46,32.34c1.12,0.55,2.24,1.1,3.35,1.65c0.07,0.53-0.16,1.02-0.64,1.09c-3.95,0.6-7.61,2.54-11.67,2.61
		c-1.02-0.05-1.51,0.32-1.34,1.46c0.31,2.1,0.35,4.24,0.75,6.34c0.24,1.27,0.34,2.61-0.73,3.67c-0.91,0.11-1.49-0.36-1.93-1.08
		c-1.42-4.41-1.69-8.9-0.91-13.46c0.44-0.28,0.89-0.56,1.33-0.84C89.7,34.08,93.39,31.67,97.46,32.34z"/>
	<path class="st97" d="M84.34,34.62c1.19,4.48,0.6,9.15,1.44,13.67c-1.94,0.9-3.69,0.4-5.35-0.73c-1.31-2.65-0.5-5.46-0.62-8.21
		c0.14-1.13,0.52-2.09,1.68-2.55C82.44,36.08,83.39,35.35,84.34,34.62z"/>
	<path class="st98" d="M81.49,36.81c-0.27,0.68-0.53,1.36-0.8,2.04c-0.69,2.16-0.28,4.63-1.88,6.52c-2.33,0.47-2.59-1.36-3.16-2.85
		c0.14-2.36,0.48-4.66,2.16-6.51c1.91,0.72,2.07-2.03,3.71-1.86C82.95,35.05,80.25,35.91,81.49,36.81z"/>
	<path class="st99" d="M97.46,32.34c-0.92,0.13-1.97,0.02-2.73,0.44c-2.91,1.58-5.9,1.91-9.05,1c3.17-1.8,6.68-2.02,10.21-2.15
		C96.41,31.87,96.93,32.11,97.46,32.34z"/>
	<path class="st100" d="M115.27,37.52c-2.58,0.82-2.58,0.82-3.56-2.95C112.9,35.55,114.09,36.53,115.27,37.52z"/>
	<path class="st101" d="M75.66,42.52c0.97,0.99,1.93,1.98,2.9,2.97c0.85,0.5,1.17,1.26,1.12,2.21c-0.76,1.31-1.41,2.76-3.28,2.75
		c-0.23-0.25-0.47-0.49-0.7-0.74C75.66,47.31,73.98,44.92,75.66,42.52z"/>
	<path class="st102" d="M84.27,60.6c-0.91-0.27-1.83-0.54-2.74-0.81c-1.37-2.17-4.34-3.23-4.43-6.3c0.07-3.63,1.33-4.98,4.67-5.18
		c2.45-0.14,4.61,0.9,6.87,1.57c1.12,0.69,1.89,1.66,2.35,2.89C92.93,59.42,91.14,61.51,84.27,60.6z"/>
	<path class="st103" d="M88.63,50.53c-1.94-0.46-3.61-1.64-5.78-1.58c-3.19,0.09-5.26,1.2-5.75,4.54c-0.96-0.85-0.55-2.01-0.69-3.04
		c0.99-0.92,1.98-1.83,2.97-2.75c0.41-0.56,0.88-0.53,1.37-0.11c1.74-0.19,3.38,0.33,5.04,0.7c0.47,0.24,0.94,0.48,1.41,0.72
		C88.42,48.8,88.89,49.32,88.63,50.53z"/>
	<path class="st104" d="M161.95,42.5c0.2-1.23,0.01-2.41-0.39-3.58c2.87-0.23,5.22,0.91,7.26,2.81c0.77,0.71,1.45,1.55,2.63,1.54
		c-1.86,2.95-5.07,3.54-8.05,4.43c-0.78,0.23-1.13-0.7-1.37-1.39C161.85,45.04,161.18,43.78,161.95,42.5z"/>
	<path class="st105" d="M162.68,46.18c0.23,1.38,1.03,0.95,1.81,0.56c2.32-1.16,4.65-2.32,6.97-3.48c1.1-0.17,2.11-0.53,2.88-1.38
		c2.18-0.74,4.37-1.48,6.55-2.23c0.22,0.19,0.44,0.38,0.67,0.58c-0.3,0.25-0.6,0.5-0.89,0.75c-1.17,1.97-3.4,2.13-5.2,3.04
		c-1.7,0.67-3.43,1.25-5.04,2.14c-1.65,0.88-3.49,1.38-4.19,3.56c-0.32,1.01-1.82,0.95-2.83,1.28c-0.68,0.13-1.34,0.11-1.94-0.29
		C161.48,49.1,160.71,47.27,162.68,46.18z"/>
	<path class="st106" d="M141.96,37.55c0.44-0.27,0.88-0.54,1.33-0.81c1.57,0.14,3.08-0.34,4.56-0.69c3.53-0.82,6.69,0.48,9.93,1.46
		c1.7,1.3,1.43,3.22,1.6,5.01c0.2,1.23-0.17,2.09-1.49,2.36c-0.56-0.26-0.8-0.81-1.17-1.25c-0.36-0.44,0.13-1.65-1.42-1.17
		c-1.65,0.51-0.47,1.2-0.37,1.7c0.21,1.02,0.74,1.99,0.1,3.03c-3.01,1.88-5.39-0.26-7.96-1.23c-0.77-1.11,0.02-1.87,0.6-2.69
		c-0.99,0.91-1.84,2.06-3.41,2C139.13,43.3,138.35,40.64,141.96,37.55z"/>
	<path class="st107" d="M147,45.39c2.64,0.29,4.97,2.38,7.84,1.35c0.72-0.59,1.44-1.18,2.48-0.92c0.78,0.38,0.96,1.01,0.75,1.8
		c-2.19,2.85-5.1,2.43-8.08,1.78c-2.22-0.48-4.16-1.97-6.36-1.89c1,0.52,3.33-0.49,2.74,2.3c-1.92,0.64-3.88,0.34-5.83,0.2
		c-0.32-0.21-0.58-0.47-0.79-0.79c-1.7-2.36-2.88-4.86-2.17-7.88c0.15-0.98,1.03-1.53,1.4-2.39c0.64-1.05,1.07-2.26,2.23-2.92
		c0.25,0.5,0.49,1.01,0.74,1.51c-2.23,4.36-1.96,5.04,2.84,7.18C145.46,45.19,146.45,44.56,147,45.39z"/>
	<path class="st108" d="M157.76,47.55c0-0.58-0.13-1.1-0.69-1.4c-0.4-0.79,0.07-1.11,0.72-1.34c0.53-0.77,1.06-1.53,1.58-2.3
		c0.85-1.58,1.72-0.61,2.58-0.01c0.45,1.18,0.86,2.38,0.73,3.68c-0.96,1.32,0.32,3.42-1.55,4.42c-0.08,0.55-0.41,0.9-0.89,1.12
		c-1.27,0.38-2.52,0.88-3.89,0.66c-1.88-1.41,0.07-1.96,0.59-2.9C157.27,48.88,159.27,48.91,157.76,47.55z"/>
	<path class="st109" d="M157.77,37.51c0,0.47-0.22,1.26-0.58,1.03c-3.96-2.44-8.16-1.77-12.38-1.14c-0.61,0.09-1.16-0.1-1.52-0.67
		C148.67,33.81,153.68,34.08,157.77,37.51z"/>
	<path class="st110" d="M175.08,43.3c1.86-0.77,3.72-1.54,5.59-2.32c1.4,2.5,3.48,3.75,6.4,3.73c2.99-0.01,5.58,0.72,5.96,4.36
		c-4.75-0.95-9.57-0.69-14.37-0.8C177.97,46.26,174.51,46.23,175.08,43.3z"/>
	<path class="st111" d="M175.08,43.3c0.68,2.03,4.26,1.97,3.58,4.98c-2.4,0.46-4.79,0.93-7.19,1.39c-0.24-1.48-1.66-2.56-1.42-4.21
		C171.73,44.74,173.4,44.02,175.08,43.3z"/>
	<path class="st112" d="M160.59,51.03c0.19-0.15,0.37-0.29,0.56-0.44c0.8-0.07,1.6-0.14,2.4-0.21c2.44-0.06,5.02-1.98,7.26,0.57
		c0.68,0.11,1.37,0.21,2.05,0.32c0.07,0.15,0.14,0.31,0.19,0.47c-0.19,1.59-0.19,3.33-2.43,3.51c-0.9-0.03-1.72-0.36-2.56-0.61
		c-2.27-0.28-4.37-1.13-6.44-2.04C160.97,52.31,160.25,51.99,160.59,51.03z"/>
	<path class="st113" d="M170.8,50.95c-2.37-0.88-4.84-0.39-7.26-0.57c2.34-1.42,3.41-4.51,6.51-4.91c0.81,1.29,2.34,2.34,1.42,4.21
		C170.96,49.95,170.78,50.4,170.8,50.95z"/>
	<path class="st114" d="M119.57,62.69c-0.95-0.66-1.91-1.31-2.86-1.97c-0.54-0.81-0.26-1.66-0.13-2.51c0.32-1.29,0.46-2.54,0.18-3.9
		c-0.84-3.94-0.33-4.8,3.29-6.88c0.94-0.54,2.82-0.61,2.38-2.13c-0.37-1.29-2.05-1.51-3.38-1.61c-1.45-0.1-2.83,0.49-4.28,0.5
		c-1.9-0.12-3.99,0.47-5.36-1.51c-0.25-0.78-0.42-1.56,0.17-2.29c2.3,0.62,4.51,0.79,6.95,0.28c4.36-0.91,8.18,0.29,10.73,4.59
		c1.87-2.22,3.6-4.27,5.33-6.33c0.72,0.24,1.44,0.48,2.16,0.72c0.39,1.93-1.12,2.97-2.01,4.29c-1.65,2.44-3.79,4.52-5.26,7.11
		c-1.51,2.16-2.48,4.6-3.7,6.92C122.8,59.84,122.25,62.27,119.57,62.69z"/>
	<path class="st115" d="M109.57,40.41c0.01,0.71,0.02,1.41,0.03,2.12c1.02,1.87,1.27,3.73-0.12,5.55c-2.4,1.03-2.66-1.26-3.69-2.37
		c-0.12-0.38-0.05-0.72,0.21-1.02c1.23,0.11-0.17-4.36,2.69-1.45c0.08-1.31,0.15-2.56,0.23-3.82
		C109.13,39.74,109.35,40.07,109.57,40.41z"/>
	<path class="st116" d="M138.21,25.46c0.8,0.38,1.6,0.75,2.4,1.13c-1.21,0.39-1.7,1.93-3.2,2.01
		C136.72,27.29,137.96,26.5,138.21,25.46z"/>
	<path class="st117" d="M126.82,50.48c2.64-3.61,5.28-7.21,7.92-10.82c0.45-0.24,0.9-0.48,1.35-0.72c0.96-0.03,1.93,0.72,2.89,0.01
		c-0.21,0.7-0.43,1.4-0.64,2.09c-0.97,1.76-2.06,3.45-3.42,4.94c-2.34,2.54-4.01,5.49-5.43,8.6c-0.24,0.23-0.52,0.36-0.86,0.39
		c-1.58-0.82-1.02-2.44-1.39-3.72C127.17,50.97,127.02,50.71,126.82,50.48z"/>
	<path class="st118" d="M185.81,72.83c-1.2,0.04-2.4,0.07-3.61,0.11c-2.05,1.02-4.11,2.05-6.35,0.46c0.47-0.68,0.94-1.35,1.4-2.03
		c0.91-0.73,1.81-1.46,2.72-2.19c4.37,0.09,8.64-1.62,13.06-0.74c-0.17,1.82,1.9,0.23,2.16,1.42c-1.84,1.69-4.37,1.78-6.48,2.83
		C187.74,72.74,186.78,72.78,185.81,72.83z"/>
	<path class="st119" d="M170.61,54.77c0.74-0.62,2.5-0.68,0.95-2.43c-0.43-0.48,1.02-0.23,1.48-0.61c1.06,0.83,2.37,1.42,2.64,2.96
		c-1,0.13-2.06,0.06-2.88,0.82c-0.24,0.26-0.54,0.41-0.89,0.46C171.27,55.78,170.45,55.81,170.61,54.77z"/>
	<path class="st120" d="M193.04,68.44c-4.33,0.72-8.59,2.56-13.06,0.74c0.27-1.2,0.55-2.4,0.82-3.6c3.9-0.05,7.93-1.2,11.51,1.41
		c0.34,0.22,0.77,0.36,0.77,0.88C193.07,68.06,193.06,68.25,193.04,68.44z"/>
	<path class="st121" d="M193.08,67.86c-0.26-0.29-0.51-0.58-0.77-0.88c0.79-0.6,0.48-1.51,0.67-2.28c0.19-0.75,0.08-2.16,1.62-1.23
		C194.12,64.95,195.17,66.95,193.08,67.86z"/>
	<path class="st73" d="M175.08,70.7c-7.23,2.8-14.46,5.63-22.38,5.58c-2.73-0.02-5.12-1.13-7.15-2.96
		c-0.18-0.32-0.17-0.64,0.01-0.96c1.98-1.72,4.23-2.92,6.74-3.69c2.97-0.31,5.72-1.57,8.66-2.03c1.42-0.22,2.81-0.55,4.11,0.38
		c4.6,2.11,8.12-0.17,11.54-2.83C176.55,66.45,176.94,68.84,175.08,70.7z"/>
	<path class="st122" d="M172.15,55.6c0.2-0.14,0.41-0.17,0.64-0.1c0.55,0.27,1.09,0.54,1.64,0.8c0.39,0.84-0.59,1.79,0.22,2.65
		c1.35-0.51,0.45-1.87,1.02-2.65c3.04,0.38,2.55,2.5,1.8,4.25c-1.46,3.37-4.3,5.4-7.75,6.35c-2.14,0.59-3.4-0.41-3.34-2.83
		c0.09-3.61,2.36-5.79,4.94-7.8C171.43,55.85,171.86,55.81,172.15,55.6z"/>
	<path class="st123" d="M172.15,55.6c-0.28,0.22-0.56,0.45-0.84,0.67c-2.36-0.02-3.97,1.5-5.71,2.76c-4.62,2.14-5.94,1.85-8.01-1.77
		c-0.38-0.46-0.76-0.92-0.65-1.58c3.52-2.94,7.58-2.17,11.6-1.68c0.68,0.26,1.37,0.52,2.05,0.77
		C170.77,55.71,171.53,55.53,172.15,55.6z"/>
	<path class="st124" d="M165.06,67.01c-3.84,0.1-7.39,1.55-11.09,2.34c-0.67,0.14-1.31,0.67-1.93-0.08
		c1.27-2.78,3.38-4.79,5.91-6.42c1.87,0.3,3.82-0.31,5.65,0.51C164.09,64.58,164.57,65.79,165.06,67.01z"/>
	<path class="st125" d="M163.6,63.36c-1.93,0.86-3.88,0.81-5.82,0.05c-0.86-2.51-0.66-4.91,0.75-7.19c0.77,4.95,4.5,2.42,7.08,2.8
		C164.98,60.5,163.5,61.56,163.6,63.36z"/>
	<path class="st126" d="M175.67,56.31c0.12,0.2,0.26,0.39,0.37,0.6c0.72,1.29,0.76,2.48-0.63,3.33c-0.66,0.41-1.4,0.24-1.9-0.35
		c-1.39-1.61,0.17-2.49,0.92-3.57C174.85,56.31,175.26,56.31,175.67,56.31z"/>
	<path class="st127" d="M61.19,65.47c0.33-1.88-0.63-3.9,1.5-4.71c1.98-0.76,3.04,0.92,4.17,2.07c1.74,1.76,3.77,3.29,4.53,5.85
		c0.77,2.62-0.28,4.41-2.97,4.8c-4.66,0.68-5.71-0.06-6.7-4.83C61.48,67.5,61.33,66.32,61.19,65.47z"/>
	<path class="st127" d="M46.58,57.69c2.53-0.17,4.94,0.28,4.55,3.41c-0.3,2.45,0.34,5.88-3.41,6.55c-1.96,0.35-5.84-4-5.89-6.29
		C41.76,57.98,43.95,57.53,46.58,57.69z"/>
	<path class="st128" d="M59.89,67.57c0,0.48,0.05,0.96-0.01,1.43c-0.22,1.72,0.8,4.29-2.25,4.31c-2.95,0.02-5.05-2.23-4.99-4.83
		c0.04-1.97,0.67-3.79,1.72-5.39c0.89-1.35,2.32-2.17,4.02-1.68c1.65,0.47,1.46,1.97,1.49,3.28c0.02,0.96,0,1.91,0,2.87
		C59.88,67.57,59.89,67.57,59.89,67.57z"/>
	<path class="st129" d="M102.25,77.05c0.11,0.87-0.01,1.68-0.6,2.37c-3.65-0.88-5.41-3.77-7.12-6.72c-0.06-0.66-0.13-1.32-0.19-1.97
		c1.03-1,1.96-0.36,2.9,0.16C98.66,73.14,100.59,74.99,102.25,77.05z"/>
	<path class="st130" d="M82.85,81.97c-2.55-0.5-4.89-1.28-5.7-4.16c0.94-0.11,1.94-0.06,2.81-0.37c2.18-0.78,3.62-0.16,4.47,1.96
		C84.46,80.6,83.36,81.1,82.85,81.97z"/>
	<path class="st131" d="M97.89,81.97c-1.15,0.1-2.3,0.2-3.44,0.3c-1.89,0-3.78,0-6.05,0C94.02,78.75,94.35,78.74,97.89,81.97z"/>
	<path class="st132" d="M82.85,81.97c-1.2-1.91,1.14-1.66,1.58-2.57c1.46-0.74,2.91-1.48,4.74-2.4c-0.38,2.94-3.07,3.38-4.24,5.08
		C84.24,82.03,83.54,82,82.85,81.97z"/>
	<path class="st133" d="M105.99,45.37c0.93,0.97,1.86,1.95,2.79,2.92c1.21,2.61-1.09,3.73-2.26,5.34c-1.47,1.08-2.31,3.04-4.42,3.24
		c-1.75,0.52-2.94,2.16-4.84,2.37c-1.8,1.03-3.43,0.49-5-0.56c-0.39-0.48-0.47-1.02-0.28-1.6c2.06-1.76,5.07-1.54,7.07-3.4
		c2.22-1.2,3.31-3.34,4.52-5.39C104.21,47.19,104.53,45.79,105.99,45.37z"/>
	<path class="st134" d="M97.26,71.62c-0.91-0.49-1.78-1.09-2.91-0.9c-0.2-0.13-0.42-0.22-0.66-0.26c-0.66-0.49-1.93,0.23-2.16-0.83
		c-0.22-0.97,1.06-0.66,1.49-1.17c0.75-0.07,1.51-0.13,2.26-0.2c0.42,0.12,0.84,0.25,1.25,0.37c2.46,0.03,4.59,1.06,6.7,2.17
		c1.53,0.9,3.09,1.77,3.8,3.55c0.05,0.56,0.01,1.08-0.66,1.27c-1.37,0.01-2.74,0.03-4.11,0.04C99.69,75.43,99.19,72.65,97.26,71.62z
		"/>
	<path class="st135" d="M102.1,56.87c1.28-1.18,2.56-2.36,3.83-3.55c1.87,0.26,0.56,1.5,0.72,2.29c-0.08,0.33-0.19,0.64-0.32,0.95
		c-0.06,0.67-1.51,1.76,0.58,1.75c1.2,0,2.55-0.37,3.4,0.95c-3.21,1.3-6.74,0.94-10.01,1.92C100.9,59.75,101.5,58.31,102.1,56.87z"
		/>
	<path class="st136" d="M92.48,56.98c-0.03,0.44-0.06,0.88-0.09,1.32c0.3,1.93-1.17,2.29-2.49,2.78c-0.41,0.08-0.81,0.16-1.22,0.24
		c-1.46-0.33-3.09,0.4-4.42-0.72c6.72-0.2,7.47-1.25,5.84-8.17c0.33-0.12,0.66-0.11,0.99,0.03c0.45,0.27,0.8,0.65,1.07,1.1
		C92.74,54.65,93.19,55.76,92.48,56.98z"/>
	<path class="st137" d="M89.91,61.08c0.83-0.93,1.66-1.85,2.49-2.78c1.62,0.31,3.24,0.62,4.86,0.93
		C95.33,61.93,92.54,61.19,89.91,61.08z"/>
	<path class="st138" d="M93.01,68.47c-2.4,1.55,0.25,1.4,0.67,1.99c-2.68,0.03-5.28-1.12-8-0.57
		C87.61,66.74,90.61,69.15,93.01,68.47z"/>
	<path class="st139" d="M106.34,74.28c-1.12-0.96-2.25-1.91-3.37-2.87c-1.86-3.4,0.44-2.77,2.26-2.56c-1.03-1.2-4.4-0.05-3.71-3.39
		c1.74-1.41,3.87-1.93,5.92-2.62c3.67,0.76,7.39,1.21,9.98,4.56c1.43,1.85,2.7,3.57,2.52,6.01c-0.14,1.12-0.89,1.93-1.59,2.7
		c-1.79,1.95-2.88,1.8-4.41-0.44c-0.94-1.38-1.5-3.67-3.44-0.45C108.99,77.72,107.62,75.2,106.34,74.28z"/>
	<path class="st140" d="M126.82,50.48c0.23-0.02,0.46-0.02,0.69-0.02c0.63,1.99,0.28,4.1,0.81,6.1c-1.26,3.93-2.79,7.83-1.39,12.07
		c0.22,2.94,0.34,5.87-1.35,8.52c-0.82,0.53-1.59,0.6-2.29-0.2c-0.22-0.4-0.74-0.95-0.63-1.17c2.75-5.28,0.27-9.29-3.11-13.09
		C123.24,59.37,123.8,54.19,126.82,50.48z"/>
	<path class="st141" d="M123.3,76.96c0.67,0.03,1.35,0.06,2.02,0.09c6.06,0.27,12.11,0.45,18.17,0.62c1.98,0.81,4.35,0.92,5.6,3.07
		c-7.26,1.13-14.5,1.32-21.7-0.43c-0.45-0.11-0.92-0.17-1.38-0.25c-1.91,0.97-3.38,0.48-4.44-1.34
		C122.15,78.13,122.72,77.54,123.3,76.96z"/>
	<path class="st142" d="M106.34,74.28c3.58,1.81,3.58,1.81,4.3-2.83c1.41,1.74,4.29,1.39,4.28,4.52c0,1.07,1.33,1.23,2.18,0.35
		c0.9-0.92,1.7-1.94,2.54-2.92c0.18-0.23,0.39-0.25,0.62-0.07c-1.31,5.16-4.98,7.49-9.99,6.29c-1.26-0.3-2.49-0.72-3.73-1.09
		c-0.06-0.97-0.11-1.94-0.17-2.9C106.36,75.19,106.35,74.74,106.34,74.28z"/>
	<path class="st143" d="M110.31,59.27c-2-0.59-3.98-0.53-5.99,0.55c-0.01-1.67,0.72-2.7,1.47-3.73c2.79-1.43,5.75-0.95,8.68-0.75
		c1.84,0.13,2.55,1.47,2.96,3.05c-0.24,0.78-0.48,1.55-0.72,2.33C114.57,60.24,112.44,59.75,110.31,59.27z"/>
	<path class="st144" d="M120.25,73.34c-0.2,0.05-0.41,0.07-0.62,0.07c-1.69-5.5-4.97-9.13-11.09-9.42c-0.74-0.03-1.02-0.5-1.11-1.15
		c5.11-1.1,9.05,0.85,12.28,4.69C121.24,69.34,121.8,71.24,120.25,73.34z"/>
	<path class="st145" d="M101.52,65.46c0.94,2.92,4.58,1.56,6.08,3.98c-0.76,0.71-1.79,0.66-2.49,0.28c-2.28-1.25-2.02,0.4-2.14,1.7
		c-2.15-0.92-4.3-1.85-6.44-2.77C98.97,68.8,99.32,65.67,101.52,65.46z"/>
	<path class="st146" d="M121.57,78.71c1.48,0.45,2.96,0.9,4.44,1.34c0.09,0.59-0.05,1.09-0.6,1.4c-1.94-0.25-3.88-0.49-5.81-0.74
		c-0.04-0.29-0.09-0.57-0.13-0.86C120.03,79.22,120.63,78.67,121.57,78.71z"/>
	<path class="st147" d="M149.1,80.73c-1.6-0.91-3.74-0.56-5.03-2.18c-1.91-1.25-4.87-1.54-4.48-4.89c1.82-1.36,3.74-2.03,5.92-0.87
		c0.02,0.18,0.03,0.35,0.03,0.53c-1.76,0.3-1.14,0.97-0.3,1.75c2.84,2.59,6.26,4.15,9.77,5.56C153.05,80.66,151.07,80.7,149.1,80.73
		z"/>
	<path class="st148" d="M175.85,73.4c2.12-0.15,4.23-0.31,6.35-0.46c0.83,2.62-1.01,3.58-2.85,4.44c-1.37,0.65-2.83,1.11-4.26,1.66
		c0.46-1.7,1.39-3.47-0.74-4.77C174.86,73.98,175.36,73.69,175.85,73.4z"/>
	<path class="st149" d="M97.26,71.62c2.49,0.34,3.41,2.61,5,4.06c0,0.45,0,0.91,0,1.36C99.84,75.93,97.95,74.33,97.26,71.62z"/>
	<path class="st150" d="M91.42,53.46c-0.21-0.27-0.42-0.55-0.63-0.82c-1.82-5.12-3.43-10.28-2.84-15.83
		c4.48-0.04,8.46-2.37,12.86-2.81c1.25,0.64,2.15,1.65,2.93,2.79c0.21,6.15-2.56,11.42-4.91,16.82
		C96.35,54.75,93.88,54.45,91.42,53.46z"/>
	<path class="st151" d="M98.7,53.38c1.68-5.53,3.37-11.06,5.05-16.59c1.34,1.1,1.43,2.62,1.5,4.2c0.05,1.26-0.38,2.65,0.76,3.7
		c-0.06,0.23-0.06,0.46-0.01,0.69c-2.08,2.97-2.54,7.14-6.46,8.76C99.08,54.07,98.82,53.8,98.7,53.38z"/>
	<path class="st152" d="M118.29,28.25c0.41,0,0.82-0.01,1.22-0.01c0.48,0.83,1.91,1.43,0.63,2.66c-0.53,0.51-1.16,0.96-1.89,0.41
		C116.94,30.3,117.45,29.26,118.29,28.25z"/>
	<path class="st153" d="M87.95,36.8c1.11,5.25,2.51,10.45,2.84,15.83c-0.23-0.06-0.46-0.13-0.68-0.21c-0.5-0.64-0.99-1.27-1.48-1.9
		c-0.48-0.5-0.96-1.01-1.44-1.51c-0.4-3.46-0.76-6.94-1.22-10.39C85.73,36.92,85.6,35.57,87.95,36.8z"/>
	<path class="st154" d="M80.74,47.58c-0.46,0.04-0.91,0.07-1.37,0.11c-0.27-0.74-0.54-1.47-0.81-2.21c0.14-2.4,1.26-4.48,2.14-6.64
		C80.71,41.76,80.73,44.67,80.74,47.58z"/>
	<path class="st155" d="M86.41,52.22c-0.28,1.4-1.15,1.89-2.33,1.75c-1.26-0.14-2.39-0.81-2.28-2.18c0.11-1.34,1.38-1.37,2.47-1.33
		C85.47,50.5,86.23,51.08,86.41,52.22z"/>
	<path class="st156" d="M157.79,44.81c-0.24,0.45-0.48,0.89-0.72,1.34c-0.74,0.2-1.49,0.4-2.23,0.59c-0.22-0.66-0.41-1.33-0.66-1.98
		c-0.48-1.26-1.5-2.76-0.14-3.66c0.39-0.26,3.57-0.37,3.46,2.35C157.48,43.89,157.69,44.35,157.79,44.81z"/>
	<path class="st157" d="M147,45.39c-0.8,0-1.64,0.11-2.21-0.67c1.29-1.08,2.59-2.17,4.12-3.44C149.4,43.47,147.4,44.04,147,45.39z"
		/>
	<path class="st158" d="M145.51,72.79c-1.94,0.41-3.97,0.47-5.79,1.4c-4.89,2.11-11.74-0.75-13.48-5.62
		c-2.36-4.26-0.19-8.01,1.36-11.82c0.43-0.66,0.43-1.64,1.39-1.9l0-0.02c3.11-3.33,6.64-5.84,11.43-5.91
		c0.03,0.26,0.06,0.52,0.09,0.78c0.23,0.29,0.34,0.61,0.35,0.98c-0.62,2.28-2.97,2.31-4.46,3.47c-2.9,2.14-5.92,4.13-6.89,7.98
		c-0.98,3.87-0.02,5.9,3.65,7.35c8.61,3.41,20.23-2.75,22.33-11.83c0.14-0.59,0.3-1.16,0.73-1.61c0.33-0.2,0.67-0.23,1.03-0.09
		c0.42,0.1,0.84,0.2,1.25,0.3c0.15,2.44,0.07,4.85-0.75,7.19c-1.66,2.2-3.59,4.13-5.74,5.85C149.87,70.44,147.69,71.61,145.51,72.79
		z"/>
	<path class="st57" d="M140.44,48.91c-4.14,1.33-7.78,3.64-11.43,5.91c1.26-5.85,5.37-9.77,9.34-13.77
		C137.84,43.99,138.99,46.49,140.44,48.91z"/>
	<path class="st159" d="M157.76,47.55c0.89-0.13,1.34-1.38,2.61-1.04c-0.11,2.83-3.75,2.94-4.05,5.46c0.08,0.99-0.62,1.07-1.33,1.16
		c-2.9-1.13-5.6-2.75-8.64-3.55c-0.98-2.41-5.01-0.4-5.26-4.01c2.98,1.67,6.39,1.95,9.56,3.07
		C153.18,49.55,155.55,48.97,157.76,47.55z"/>
	<path class="st160" d="M146.35,49.6c3.54-0.92,5.88,1.58,8.6,3c0.99,1.01,1.69,2.09,0.89,3.55c-1.07,0.66-1.79-0.12-2.54-0.65
		c-3.56-2.53-7.48-4.07-11.87-4.37c-0.35-0.13-0.65-0.34-0.91-0.61c0-0.27,0-0.55,0-0.82C142.46,48.88,144.4,49.19,146.35,49.6z"/>
	<path class="st161" d="M155.81,56.23c-0.29-1.21-0.57-2.42-0.86-3.63c0.46-0.21,0.91-0.41,1.37-0.62c1.42-0.32,2.84-0.63,4.27-0.95
		c2.42,1.63,5.34,1.91,7.97,2.97c-3.88-0.04-7.65,0.57-11.28,1.94c-0.39,0.12-0.78,0.24-1.18,0.37L155.81,56.23z"/>
	<path class="st162" d="M117.42,58.39c-1.06-1.94-2.73-2.36-4.82-2.24c-2.26,0.13-4.54-0.02-6.81-0.06c0.04-0.2,0.1-0.38,0.19-0.57
		c3.43-1.54,3.96-4.85,4.7-7.94c0.61-2.59,1.66-4.4,4.66-4.22c2.71-0.65,5.41-1.22,7.83,0.84c1.25,1.07,1.7,2.03-0.28,2.84
		c-1.22,0.49-2.39,1.11-3.55,1.73c-1.93,1.04-2.87,2.55-1.9,4.73C118.14,55.16,118,56.76,117.42,58.39z"/>
	<path class="st163" d="M115.32,43.37c-2.29,0.57-3.38,2.04-3.7,4.39c-0.22,1.62-1.06,3.15-1.39,4.76
		c-0.49,2.43-1.83,3.43-4.25,3.01c-0.25-0.73,0.88-1.49-0.04-2.21c1.01-1.64,2.79-2.85,2.85-5.03c1.15-1.8,0.49-3.85,0.82-5.77
		C111.36,43.78,113.42,43.07,115.32,43.37z"/>
	<path class="st164" d="M124.06,49.49c-1.65,4.11-2.05,7.87-5.01,10.5C120.67,56.77,118.19,51.75,124.06,49.49z"/>
	<path class="st57" d="M129,54.84c-0.22,0.82-0.7,1.44-1.4,1.91c-0.03-2.09-0.06-4.19-0.09-6.28
		C129.12,51.55,127.43,53.75,129,54.84z"/>
	<path class="st143" d="M98.7,53.38c0.28,0.25,0.56,0.5,0.83,0.75c-1.84,2.21-4.43,2.56-7.05,2.85c-0.35-1.17-0.7-2.35-1.05-3.52
		C93.85,53.43,96.27,53.41,98.7,53.38z"/>
	<path class="st73" d="M126.25,68.56c3.24,4.87,8.26,5.49,13.48,5.63c0.89,2.01,3.22,2.59,4.34,4.37c-6.26-0.3-12.66,1.04-18.74-1.5
		C125.63,74.22,125.94,71.39,126.25,68.56z"/>
	<path class="st165" d="M155.81,56.23c0,0,0.29,0.07,0.29,0.07c0.79,3.25-0.32,5.99-2.63,8.15c-5.28,4.96-11.28,8.29-18.84,6.41
		c-7.06-1.76-8.72-7.37-4.04-13.04c1.54-1.87,3.47-3.29,5.59-4.45c1.79,0.42,0.52,1.73,0.78,2.6c0.59,2.12,2.56,2.24,3.65,1.42
		c1.12-0.84,3.07-2.25,1.47-4.38c-0.51-0.73-1.93-1.19-0.74-2.43C147.13,49.97,151.53,52.95,155.81,56.23z"/>
	<path class="st166" d="M136.07,56.13c-0.23-0.94,0.82-1.82,0.11-2.78c1.23-1.29,3.48-1.01,4.35-2.85c0.27,0.02,0.54,0.04,0.81,0.06
		c-0.23,1.15,0.95,1.29,1.39,1.95c0.07,0.6,0.09,1.2-0.09,1.77C141.27,58.63,139.84,59.03,136.07,56.13z"/>
	<path class="st167" d="M135.34,59.15c1.41,0.33,3.56,0.2,3.61,2.71c0.07,3.11-3.03,6.6-5.68,6.44c-1.9-0.11-3.55-0.78-3.56-3.17
		C129.69,61.67,131.9,59.18,135.34,59.15z"/>
	<path class="st168" d="M144.8,58.38c1.2-2.79,4.3-3.58,6.3-1.58c0.87,0.87,0.81,1.85,0.32,2.94c-0.91,2.01-2.48,0.57-3.72,0.8
		C146.49,60.13,145.33,59.68,144.8,58.38z"/>
	<path class="st169" d="M146.36,61.2c0.79,0.98,2.92,1.58,1.26,3.32c-1.63,1.72-3.91,3.91-6.05,2.68c-2.49-1.43-0.57-3.95,0.4-5.92
		c1.62,0.39,1.62,0.39,1.56,2.97c1.31-0.3,1.05-1.35,1.15-2.25C144.79,60.85,145.38,60.59,146.36,61.2z"/>
	<path class="st170" d="M146.36,61.2c-0.32,0.12-0.91,0.24-0.91,0.36c-0.03,3.1-0.01,3.1-3.05,4.2c-0.88-1.42,1.93-3.2-0.42-4.48
		c0.8-1.11,3.4-0.45,2.83-2.9c0.97,0.72,1.93,1.43,2.9,2.15C147.16,60.58,146.62,60.61,146.36,61.2z"/>
	<path class="st171" d="M136.07,56.13c4.54,3.09,5.3-0.81,6.65-3.61c1.19,0.22,1.86,1.04,1,1.95c-1.3,1.39-1.14,4.41-3.65,4.19
		C138.7,58.54,136.01,59.11,136.07,56.13z"/>
	<path class="st172" d="M135.26,61.25c0.8,0.12,1.83-0.3,2.07,0.87c0.22,1.06-2.76,4.13-3.91,4.13c-1.27,0.01-1.6-0.76-1.55-1.84
		C131.97,62.22,133.25,61.32,135.26,61.25z"/>
</g>
</svg>
