<?xml version="1.0" encoding="utf-8"?>
<!-- Generator: Adobe Illustrator 23.0.2, SVG Export Plug-In . SVG Version: 6.00 Build 0)  -->
<svg version="1.1" id="Camada_1" xmlns="http://www.w3.org/2000/svg" xmlns:xlink="http://www.w3.org/1999/xlink" x="0px" y="0px"
	 viewBox="0 0 216.5 112.78" style="enable-background:new 0 0 216.5 112.78;" xml:space="preserve">
<style type="text/css">
	.st0{fill:#FEFEFE;}
	.st1{fill:#010002;}
	.st2{fill:#3F6C7F;}
	.st3{fill:#134C28;}
	.st4{fill:#1F6E39;}
	.st5{fill:#309844;}
	.st6{fill:#16552E;}
	.st7{fill:#25823D;}
	.st8{fill:#45748A;}
	.st9{fill:#287E3A;}
	.st10{fill:#6FB6D8;}
	.st11{fill:#4E859D;}
	.st12{fill:#500F11;}
	.st13{fill:#0E4521;}
	.st14{fill:#AECCDF;}
	.st15{fill:#7395AB;}
	.st16{fill:#B4D2E6;}
	.st17{fill:#CDE4EE;}
	.st18{fill:#B1CEE1;}
	.st19{fill:#7396AB;}
	.st20{fill:#D7E9F2;}
	.st21{fill:#D8EAF2;}
	.st22{fill:#A2C3C8;}
	.st23{fill:#B1CDDC;}
	.st24{fill:#6FA344;}
	.st25{fill:#487134;}
	.st26{fill:#76201B;}
	.st27{fill:#67973D;}
	.st28{fill:#4C7736;}
	.st29{fill:#85B152;}
	.st30{fill:#8CB555;}
	.st31{fill:#5E933A;}
	.st32{fill:#E3E8A0;}
	.st33{fill:#BFBDBE;}
	.st34{fill:#609738;}
	.st35{fill:#1A331A;}
	.st36{fill:#69A33C;}
	.st37{fill:#C7D786;}
	.st38{fill:#B0C86B;}
	.st39{fill:#ADC568;}
	.st40{fill:#B6CB6E;}
	.st41{fill:#BC3116;}
	.st42{fill:#3C903C;}
	.st43{fill:#F9F9D6;}
	.st44{fill:#F8F9DA;}
	.st45{fill:#F4F6CB;}
	.st46{fill:#5D9C3B;}
	.st47{fill:#F1F4CB;}
	.st48{fill:#6FA444;}
	.st49{fill:#4E7836;}
	.st50{fill:#518037;}
	.st51{fill:#558638;}
	.st52{fill:#78AB45;}
	.st53{fill:#A2BA5C;}
	.st54{fill:#1A6536;}
	.st55{fill:#F0F4BE;}
	.st56{fill:#6DA53C;}
	.st57{fill:#6EA43C;}
	.st58{fill:#E5F1F5;}
	.st59{fill:#96B959;}
	.st60{fill:#89B354;}
	.st61{fill:#17582C;}
	.st62{fill:#192F18;}
	.st63{fill:#F5F7ED;}
	.st64{fill:#DDE59B;}
	.st65{fill:#C32F2C;}
	.st66{fill:#8DB5D0;}
	.st67{fill:#8FB766;}
	.st68{fill:#8EB667;}
	.st69{fill:#C53921;}
	.st70{fill:#44839C;}
	.st71{fill:#487234;}
	.st72{fill:#184D24;}
	.st73{fill:#87684E;}
	.st74{fill:#65A040;}
	.st75{fill:#6F1E1A;}
	.st76{fill:#65943D;}
	.st77{fill:#A09FA0;}
	.st78{fill:#A19FA2;}
	.st79{fill:#93BDD9;}
	.st80{fill:#46869F;}
	.st81{fill:#477134;}
	.st82{fill:#467134;}
	.st83{fill:#629239;}
	.st84{fill:#E5F3F5;}
	.st85{fill:#CB6321;}
	.st86{fill:#C54524;}
	.st87{fill:#EDC566;}
	.st88{fill:#D69243;}
	.st89{fill:#F7F8EA;}
	.st90{fill:#1A5428;}
	.st91{fill:#352760;}
	.st92{fill:#215A2D;}
	.st93{fill:#AAA9AA;}
	.st94{fill:#66559B;}
	.st95{fill:#79B14B;}
	.st96{fill:#92B857;}
	.st97{fill:#8B291B;}
	.st98{fill:#D37D30;}
	.st99{fill:#EFE577;}
	.st100{fill:#B2C86B;}
	.st101{fill:#8EB556;}
	.st102{fill:#D0CED1;}
	.st103{fill:#8B6A52;}
	.st104{fill:#2A1F4E;}
	.st105{fill:#1B3516;}
	.st106{fill:#132614;}
	.st107{fill:#134C29;}
	.st108{fill:#527F37;}
	.st109{fill:#F6F7F1;}
	.st110{fill:#5C9239;}
	.st111{fill:#312359;}
	.st112{fill:#72A646;}
	.st113{fill:#66973D;}
	.st114{fill:#4C7735;}
	.st115{fill:#54438A;}
	.st116{fill:#801F1E;}
	.st117{fill:#801E1E;}
	.st118{fill:#6D211A;}
	.st119{fill:#63923D;}
	.st120{fill:#5D8D37;}
	.st121{fill:#1C5329;}
	.st122{fill:#A2A0A3;}
	.st123{fill:#F9F0D9;}
	.st124{fill:#154722;}
	.st125{fill:#876850;}
	.st126{fill:#CA5F1C;}
	.st127{fill:#90BA66;}
	.st128{fill:#114825;}
	.st129{fill:#C3371E;}
	.st130{fill:#8DB764;}
	.st131{fill:#EBBF62;}
	.st132{fill:#C0381E;}
	.st133{fill:#86B35E;}
	.st134{fill:#88664E;}
	.st135{fill:#BD3E1D;}
	.st136{fill:#68993F;}
	.st137{fill:#487433;}
	.st138{fill:#477233;}
	.st139{fill:#4A7635;}
	.st140{fill:#65973E;}
	.st141{fill:#510F12;}
	.st142{fill:#6B9F41;}
	.st143{fill:#CA3F31;}
	.st144{fill:#B7B9BA;}
	.st145{fill:#C95C32;}
	.st146{fill:#C95B32;}
	.st147{fill:#534483;}
	.st148{fill:#8DB763;}
	.st149{fill:#67973E;}
	.st150{fill:#C5302E;}
	.st151{fill:#7A1C1C;}
	.st152{fill:#6E191A;}
	.st153{fill:#5D1517;}
	.st154{fill:#811F1E;}
</style>
<g>
	<path class="st0" d="M116.55,112.78c-16.62-0.93-32.09-1.51-47.05-5.7c-4.53-1.27-9.18-2.69-13.25-5.25
		c-7.24-4.57-15.82-5.24-23.57-8.34c-7.96-3.17-15.61-6.7-21.83-12.8c-9.51-9.32-6-21.72,3.08-25.86c2.8-1.27,2.31-2.51,0.9-4.68
		c-3.37-5.2-6.85-10.34-9.64-15.9c-0.47-0.93-1.36-1.65-2.09-2.44c-4.53-4.93-3.98-11.7,0.95-15.5c6.81-5.25,14.62-7.49,23.29-5.75
		c2.09,0.42,4.13,1.26,5.15,3.01c1.74,2.99,3.22,2.01,5.53,0.66c4.76-2.77,10.09-2.69,15.38-1.99c1.09,0.14,2.02,0.59,2.79-0.67
		c4.14-6.85,10.69-6.43,17.14-3.93c2.07,0.8,3.46,0.73,5.18-0.57c5.09-3.85,11.06-6.07,17.19-6.9c5.78-0.79,11.55,0.85,15.76,5.33
		c2.19,2.34,4.3,3,7.31,2.25c6.83-1.7,13.29-0.11,19.5,2.77c0.92,0.43,1.76,0.61,2.73,0.58c1.2-0.04,2.55-0.37,3.57,0.06
		c6.76,2.76,14.13,1.81,21.02,3.59c5.61,1.46,10.65,4.51,16.36,5.88c3.04,0.73,5.11,3.56,6.68,6.27c1.07,1.85,2.44,2.67,4.43,3.13
		c5.53,1.27,9.45,4.47,11.11,10.05c0.34,1.15,1.18,1.71,1.99,2.43c4.75,4.25,7.46,9.32,5.99,15.91c-0.23,1.03-0.1,1.82,0.57,2.65
		c7.95,9.83,2.14,20.56-5.92,26.08c-7.76,5.31-16.2,8.71-25.36,10.52c-1.05,0.21-2.16,0.21-2.89,1.2
		c-4.8,6.49-12.15,8.21-19.32,10.03c-9.33,2.37-18.92,2.86-28.49,3.15C125.59,112.2,120.45,112.15,116.55,112.78z"/>
	<path class="st1" d="M24.31,54.97c-6.23-7.43-10.76-15.56-15.35-23.65c-0.52-0.91-1.4-1.62-2.13-2.42
		c-3.03-3.3-2.74-7.01,0.87-9.53c4.67-3.25,9.89-4.72,15.57-4.69c3.58,0.02,6.13,1.48,7.73,4.79c1.8,3.72,2.52,4.03,5.44,1.45
		c6.07-5.37,12.96-4.76,20.03-3.29c1.61,0.34,2.58,0.86,3.12-1.55c1.02-4.55,4.43-6.87,8.59-4.94c6.42,2.99,11.2,1.21,16.74-2.24
		c5.44-3.38,11.68-5.69,18.48-3.01c2.06,0.81,3.92,1.73,5.32,3.48c2.3,2.89,5.36,4.08,8.93,3.27c6.84-1.54,13.29-0.82,19.47,2.57
		c1.47,0.81,3.23,0.71,4.93,0.66c3.03-0.1,6.05,0.11,8.45,2.27c0.92,0.83,1.72,0.36,2.65,0.29c4.21-0.35,8.39-0.16,12.47,1.05
		c0.8,0.24,2,0.28,2.32,0.83c2.13,3.67,5.96,2.76,9.12,3.46c3.87,0.86,6.71,3.13,8,6.55c1.02,2.7,2.81,3.33,5.05,3.71
		c3.72,0.64,7.32,2.01,8.73,5.55c1.32,3.33,3.23,5.73,5.79,8.12c3.57,3.34,4.11,7.71,2.28,12.26c-0.4,0.98-0.61,1.52,0.39,2.38
		c7.65,6.59,4.86,15.15-2.57,20.49c-7.4,5.32-15.61,8.8-24.62,10.31c-2.32,0.39-4.18,1.24-5.71,3.23
		c-4.45,5.79-11.34,7.1-17.81,8.28c-19.43,3.54-39.06,3.54-58.73,2.25c-8.76-0.57-17.41-1.81-25.86-3.99
		c-6.31-1.62-12.22-4.52-18.05-7.54c-5.97-3.09-12.8-3.57-19.02-6.07c-7.6-3.06-15.06-6.17-20.92-12.18
		c-6.2-6.36-5.31-13.54,2.22-18.24C18.65,57.35,21.32,56.33,24.31,54.97z"/>
	<path class="st2" d="M173.25,89.8c-9.33,11.08-22.4,11.88-35.38,12.72c-15.45,1-30.92,1.14-46.32-0.64
		c-10.01-1.15-20.01-2.58-28.53-8.77c-0.74-0.54-1.75-0.78-2.67-0.99C49.21,89.63,38.51,85.82,28,81.43
		c-4.02-1.68-7.55-4.14-10.65-7.23c-4.43-4.43-3.91-8.51,1.64-11.56c4.32-2.38,8.94-4.07,13.69-5.39c0.9-0.28,1.42,0.2,1.83,0.9
		c0.26,0.75,0.21,1.47-0.2,2.15c-2.61,2.04-5.95,2.38-8.84,3.75c-2.61,1.24-6.16,1.78-6.56,5.36c-0.39,3.53,3.2,4.06,5.31,5.56
		c6.97,4.94,15.14,6.9,23.21,9.11c4.63,1.43,9.41,2.13,14.2,2.74c9.02,1.42,18.1,2.31,27.22,2.78c4.4,0.83,8.76,0.24,13.12-0.45
		c5.17,0.18,10.34,0.56,15.51-0.14c3.49,0.09,6.99,0.47,10.45-0.35c8.51,0.05,17-0.35,25.39-1.85c9.12-1.5,18.19-3.29,27.27-4.95
		c1.47-0.33,2.97-0.51,4.44-0.8c0.92,0.01,2.1-0.2,2.34,0.98c0.19,0.95-0.88,1.27-1.57,1.7C181.87,86.28,177.68,88.29,173.25,89.8z"
		/>
	<path class="st3" d="M33.94,57.99c-0.42-0.25-0.84-0.49-1.26-0.74c-8.23-7.74-13.99-17.21-19.1-27.15
		c-0.59-1.15-1.35-2.36-2.35-3.14c-3.09-2.42-1.55-3.79,0.91-5.15c2.66-1.47,5.55-2.22,8.51-2.66c3.04-0.45,5.59-0.01,6.99,3.43
		c0.68,1.67,2.41,2.91,3.67,4.35c2.23,1.87,4.35,0.32,6.53-0.17c1.2-0.27,2.49-1.82,3.66,0.08c-0.64,2.06-2.59,2.67-4.11,3.75
		c-1.14,0.65-2.44,0.77-3.86,0.96c2.19,3.86,6.95,5.05,8.41,9.24c0.11,0.73,0.04,1.42-0.39,2.05c-2.49,1.26-3.35-1.37-5.01-2.1
		c-4.39-4.22-8.56-8.65-12.05-13.67c-2.75-3.95-2.7-3.98-7.4-2.81c-2.38,0.75-0.93,1.96-0.29,2.94c5.58,8.53,10.1,17.81,17.39,25.16
		c0.34,0.34,0.48,0.82,0.63,1.28C35.03,55.2,35.39,56.78,33.94,57.99z"/>
	<path class="st4" d="M63.58,20.51c0.11-5.98,1.04-6.69,6.56-4.23c4.76,2.12,8.97,2.25,13.23-1.33c3.42-2.87,7.62-4.52,12.03-5.38
		c3.81-0.74,7.45-0.29,10.1,2.92c1.75,2.11,4.08,3.24,6.42,4.42c1.77,1.98,3.96,1.51,6.18,1.12c3.84-0.68,7.74-1.63,11.52,0.09
		c1.03,0.47,3.5,0.69,1.59,2.96c-4.29-0.18-8.58-0.3-12.85,0.26c-1.47,0.21-2.95,0.2-4.43,0.12c-1.62-0.15-3.15-0.69-4.71-1.38
		c0.76,2.28,2.24,4.07,2.35,6.38c-0.27,0.95-0.79,1.57-1.88,1.46c-2.1-1.98-2.59-4.81-3.8-7.26c-0.7-1.4-1.38-2.8-2.46-3.96
		c-2.54-3.39-5.74-3.73-9.53-2.35c-4.39,1.59-8.46,3.66-11.94,6.79c0.54,1.43,1.94,2.1,2.83,3.21c0.81,1.01,1.96,1.87,1.38,3.43
		c-0.59,0.71-1.35,1.02-2.26,0.97c-1.07-0.33-1.61-1.18-2.08-2.1c-4.03-5.03-9.52-6.16-15.54-5.86
		C63.88,21.18,63.88,21.18,63.58,20.51z"/>
	<path class="st5" d="M135.71,19.76c2.16,0.94,4.43,0.73,6.68,0.66c2.35-0.07,4.58,0.16,6.23,2.1c1.04,1.23,2.25,0.92,3.61,0.62
		c3.93-0.87,7.85-0.6,11.74,0.35c1.55,0.38,2.83,1.11,2.52,2.9c-0.53,3.06,0.92,3.03,3.02,2.12c2.44-1.06,4.89-1.03,7.36-0.14
		c2.58,0.93,4.45,2.8,4.67,5.42c0.2,2.34,1.24,3.06,3.2,3.48c2.22,0.48,4.44,1.02,6.59,1.75c2.7,0.92,4.73,2.55,4.15,5.81
		c-0.29,1.65,0.38,2.4,1.77,3c0.98,0.42,1.9,1.03,2.76,1.67c4.87,3.66,4.46,8.75-0.9,11.47c-1.9-0.2-0.77-1.24-0.39-1.8
		c0.7-1.04,1.89-1.77,2.37-2.93c0.32-0.78-0.69,0.08-0.88-0.37c-1.56-2.92-4.26-4.37-7.15-5.58c-0.26-0.25-0.48-0.52-0.67-0.82
		c-0.64-1.13-0.77-2.38-0.83-3.64c0.14-2.46-1.5-3.31-3.48-3.81c-2.42-0.61-4.93-0.94-7.18-2.14c-0.64-0.32-1.25-0.67-1.79-1.15
		c-0.82-0.79-0.99-1.84-1.22-2.89c-0.84-3.73-2.76-5-6.41-3.92c-1.93,0.57-3.92,0.88-5.84,1.5c-2.11,0.5-3.94,2.77-6.41,1.04
		c-0.17-0.3-0.25-0.63-0.25-0.97c0.53-1.89,2.7-1.54,3.73-2.74c0.32-1.91-0.69-3.44-1.45-5.03c-2.87-1.26-5.81-0.62-8.71-0.31
		c-1.45,0.16-3.05,0.63-4.21-0.22c-2.89-2.14-6.16-2.29-9.51-2.47c-1.54-0.08-3.22-0.47-4.2-1.76
		C133.66,19.69,134.35,19.29,135.71,19.76z"/>
	<path class="st6" d="M63.58,20.51c0.7,1.31,1.51-1.25,2.22,0.06c1.11,1.1,1.02,2.66,1.47,4c0.79,2.33,2.11,3,4.38,1.97
		c1.41-0.64,2.8-1.42,4.36-1.67c2.31-0.37,4.57-0.45,6.32,1.53c0.48,0.66,0.96,1.32,1.44,1.98c-0.32,1.13-1.19,1.41-2.23,1.41
		c-2.74-1.12-5.26-0.73-7.83,0.73c-2.52,1.44-5.3,2.15-8.26,1.51c-0.81-0.12-1.55-0.64-2.78-0.32c2.27,5.04,5.21,9.63,7.96,14.31
		c1.82,3.1,3.81,6.1,5.12,9.48c0.3,0.79,0.73,1.52,0.33,2.4c-0.26,0.26-0.57,0.37-0.93,0.35c-3.6-2.22-5.38-5.83-7.14-9.44
		c-0.17-2.04-1.22-3.56-2.74-4.85c-1.18-1-2.49-1.92-2.83-3.59c-1.53-4.36-3.91-8.34-5.77-12.55c-0.58-1.31-1.51-2.07-2.92-2.26
		c-3.84-0.72-7.62-0.99-11.09,1.38c-0.41,0.28-0.9,0.27-1.36,0.02c-2.06-0.53-3.55,1.34-5.47,1.3c-1.6-0.03-3.64,1.27-4.5-1.32
		c3.38,0.63,5.98-0.89,8.47-2.92c5.54-4.52,11.64-3.05,17.7-1.46c1.56,0.41,1.85,2.07,2.66,3.23c0.78,1.12,1.97,2.22,3.24,1.71
		c1.15-0.46-0.08-1.89,0.15-2.89C63.84,23.24,62.28,21.86,63.58,20.51z"/>
	<path class="st7" d="M135.71,19.76c-0.34,0.16-1.24,0.27-0.75,0.66c0.79,0.64,1.9,1.06,2.93,1.19c3.93,0.47,7.66,0.88,11.43,2.85
		c2.57,1.34,6.42-0.68,9.75-0.31c1.05,0.12,2.11,0.21,3.15,0.42c0.29,0.06,1.15,0.17,0.6,0.82c-0.23,0.27-0.89,0.17-1.36,0.23
		c-1.28,1.24-2.91,0.95-4.41,0.9c-2.93-0.1-5.68,0.49-8.28,1.82c-0.67,0.31-1.36,0.59-2.05,0.86c-1.34,0.27-2.46,1.73-4.04,0.79
		c-0.78-1.6,0.46-2.63,1.07-3.84c1.01-1.79-0.4-1.74-1.45-1.79c-2.15-0.11-4.31,0.04-6.42-0.47c-1.5,1.02-1.1,2.74-1.48,4.15
		c-0.49,1.82-0.67,3.74-2.16,5.14c-0.89,0.58-1.69,0.7-2.23-0.46c-0.71-3.16,1.51-5.97,1.06-9.09c-0.02-0.34-0.02-0.69-0.02-1.03
		c-0.03-0.67-0.17-1.35,0.11-2c-1.9-3.02-5.01-2.42-7.83-2.54c-3.4-0.15-6.72,1.78-10.18,0.38c-0.66-0.27-1.53-0.36-1.93-0.85
		c-0.51-0.62,0.35-0.53,0.69-0.67c2.12,1.18,4.33,0.96,6.52,0.32C124.59,15.43,130.35,16.18,135.71,19.76z"/>
	<path class="st8" d="M173.25,89.8c-1-1.25,0.14-1.5,0.88-1.51c4.91-0.07,7.78-4.48,12.16-5.65c0.46-0.12,0.93-0.51,0.06-0.82
		c-0.33-0.11-0.71-0.06-1.07-0.08c1.7-2.92,4.78-2.44,7.43-2.99c2.19,0.24,2.34,1.31,1.45,3.11c-0.94,1.91-3.02,2.29-4.36,3.62
		C184.58,88.09,178.89,88.84,173.25,89.8z"/>
	<path class="st9" d="M200.46,55.83c0.26-0.24,0.49-0.54,0.79-0.7c0.44-0.24,0.58,0.1,0.58,0.45c-0.01,1.4-0.59,2.46-1.74,3.32
		c-0.61,0.45-1.97,0.78-0.99,2.07c-0.32,0.42-0.64,0.83-0.96,1.25c-0.75,1.03-2.02,1.75-1.94,3.27c-0.14,0.81-0.27,1.63-1.16,2.01
		c-0.61,0.33-0.73-1.7-1.77-0.27c-0.52,0.71-1.45-0.02-1.82-0.87c-0.14-1.31,0.33-2.61,0.08-3.92c-1.69-2.2-4.24-1.71-6.49-2
		c-2.34-0.31-4.74,0.22-7.09-0.39c-0.38-0.16-0.68-0.4-0.92-0.72c-0.35-0.82-0.29-1.59,0.29-2.29c3.38-1.52,6.77-0.61,10.15-0.03
		c2.59,0.15,4.84,1.9,7.52,1.63C197.09,58.21,198.64,56.76,200.46,55.83z"/>
	<path class="st10" d="M195.55,65.1c-0.33-2.04,0.52-3.02,2.6-2.88c1.34,0.78,2.72,1.51,4.02,2.36c6.84,4.47,6.72,9.52-0.32,14.13
		c-1.23-2.24,2.28-3.1,1.51-5.2c-0.12-2.69-1.65-4.31-3.98-5.39C197.88,67.43,196.4,66.64,195.55,65.1z"/>
	<path class="st11" d="M204.02,73.83c1.17,0.8,0.3,1.4-0.22,2c-0.77,0.89-1.85,1.55-1.94,2.9c-3.66,2.89-7.53,5.42-12.06,6.76
		c0.42-2.23,3.31-2.21,3.95-4.43c0.31-1.07,0.44-1.41-0.69-1.56c0.16-1.34,1.36-1.43,2.25-1.9
		C198.4,76.78,200.67,74.07,204.02,73.83z"/>
	<path class="st12" d="M75.15,57.88c0.21,0.02,0.41,0.04,0.62,0.04c2.99,0.31,5.49,1.71,7.83,3.47c1.36,1.9,1.28,3.86,0.28,5.87
		c-0.79,1.16-1.3,2.47-1.84,3.76c-1.4,2.13-3.44,3.33-5.84,4.01c-2.56-0.16-4.01,1.76-5.76,3.12c-3.06,1.33-6.27,2.07-9.58,2.37
		c-1.3,0-2.57-0.18-3.81-0.58c-5.48-0.98-10.44-3.27-15.25-5.96c-2.22-1.24-3.15-3.52-4.62-5.37c-1.19-1.5-2.16-3.13-2.92-4.9
		c-0.33-1.15-1.04-2.28-0.25-3.52c-0.02-0.74-0.05-1.47-0.07-2.21c0.09-1.68,0.17-3.36,0.26-5.03c0.22-3.77,1.43-4.86,5.02-4.33
		c2.67,0.39,5.23,1.34,7.89,1.77c1.14,0.08,2.29,0.14,3.44,0.22c3.47,0.56,6.42,2.98,10.08,2.83c1.49,0.07,2.9,0.52,4.29,1.01
		c1.3,0.59,2.61,1.16,4.01,1.49C71.07,56.41,73.21,56.81,75.15,57.88z"/>
	<path class="st13" d="M57.11,79.06c1.21,0.17,2.42,0.34,3.63,0.51c4.81,4.13,10.26,3.45,15.8,2.08c2.69,0.51,5.31,1.28,7.86,2.27
		c1.54,0.84,3.1,1.63,4.71,2.34c5.08,2.34,12.1,1.21,16.21-2.63c0.86-0.81,1.54-1.84,2.77-2.16c0.34-0.04,0.67,0.01,0.98,0.16
		c1.4,3.27,4.89,2.35,7.3,3.62c3.57,1.3,7.25,2.08,10.74,0.11c4.68-2.65,9.5-2.69,14.51-1.47c2.68,0.65,5.2,0.25,7.57-1.12
		c1.82-1.27,3-3.59,5.66-3.5c0.56,0.01,0.99,0.25,1.23,0.77c0.17,0.72-0.12,1.33-0.47,1.93c-0.34,0.58-0.69,1.16-1.08,1.72
		c-1.37,1.62-2.86,3.1-4.94,3.8c-3.51,1.6-7.29,1.31-10.84,0.79c-3.96-0.59-7.48,0.39-11.11,1.39c-3.28,0.86-6.57,1.12-9.85-0.02
		c-0.66,0.5-1.3-0.02-1.95-0.04c-1-0.28-1.98-0.59-2.99-0.84c-3.82-1.26-7.33,0.95-11.03,0.99c-4.26,1.6-8.58,1.79-12.97,0.63
		c-1.88-0.37-3.62-1.14-5.36-1.93c-3.67-1.68-7.45-2.52-11.46-1.32c-2.25,0.67-4.48,0.61-6.66-0.32c-2.79-0.86-5.23-2.26-7.14-4.52
		C57.55,81.32,56.26,80.56,57.11,79.06z"/>
	<path class="st14" d="M34.01,60.2c0.33,1.1,0.66,2.21,0.99,3.31c0.21,1.83-1.42,1.99-2.46,2.64c-4.07,2.53-3.93,4.96-0.18,8.03
		c4.76,3.89,10.31,5.42,16.11,6.57c1.61,0.32,3.4,0.31,4.5,1.88c-1.29,2.81-4,1.64-6.1,2.19c-9.65-2.15-18.81-5.49-26.92-11.3
		c-3.5-2.5-3.3-5.61,0.41-7.97C24.58,62.88,29.38,61.75,34.01,60.2z"/>
	<path class="st15" d="M108.93,95.45c6.65-1.23,13.38-0.92,20.05-0.63c11.74,0.51,23.17-2.57,35.16-2.64
		c-3.29,3.4-7.23,5.08-11.53,5.3c-16.71,0.87-33.42,2.23-50.18,1.47C103.74,96.19,106.73,96.56,108.93,95.45z"/>
	<path class="st16" d="M149.99,86.73c1.44-1.2,2.87-2.41,4.31-3.61c1.87-1.48,4.17-0.92,6.25-1.17c6.09-0.73,11.99-2.25,17.92-3.66
		c4.3,0.46,4.38,0.6,2.58,4.21c-9.03,2.22-18.16,3.86-27.38,5.04C152.35,87.72,150.84,88.71,149.99,86.73z"/>
	<path class="st17" d="M181.05,82.5c-0.43-0.18-1.53-0.39-0.8-0.89c2.94-2,0.24-2.19-0.82-2.93c1.03-2.51,2.01-5.05,4.43-6.64
		c5.57-1.08,8.87,2.1,11.68,6.21c-0.83,0.42-1.66,0.83-2.5,1.25c-2.73,0.26-5.25,1.27-7.78,2.25
		C183.99,82.65,182.5,82.48,181.05,82.5z"/>
	<path class="st18" d="M65.11,85.98c2.23,0.27,4.38,1,6.71,0.28c6.45-1.98,11.85,0.67,17.03,4.12c-4.06,0.5-8.07-0.21-12.07-0.71
		c-5.16-0.64-10.42-0.58-15.46-2.08C62.19,86.09,63.69,86.13,65.11,85.98z"/>
	<path class="st19" d="M91.11,98.9c-5.77-1.6-11.85-2.05-17.4-4.87c4.91,0,9.86-0.33,14.74,0.1c4.29,0.37,8.56,0.48,12.84,0.55
		c0.72,0.01,1.44,0.04,1.98,0.64c-0.52,0.8-1.37,1.02-2.2,0.98C97.45,96.09,94.31,97.6,91.11,98.9z"/>
	<path class="st20" d="M65.11,85.98c-0.98,1.2-2.51,1.09-3.78,1.61c-4.96-0.17-9.79-1.02-14.45-2.78c1.67-1.58,4.33-0.63,5.96-2.32
		c1.03-1.54,2.53-1.69,4.18-1.46c0.56,0.16,1.1,0.37,1.6,0.69C60.55,83.48,62.69,84.95,65.11,85.98z"/>
	<path class="st21" d="M91.11,98.9c1.89-2.49,4.6-3.34,7.53-3.61c1.53-0.14,3.09,0.01,4.63,0.03c1.89,0.05,3.77,0.09,5.66,0.14
		c-1.81,1.83-4.43,2.14-6.5,3.5C98.66,98.93,94.88,98.92,91.11,98.9z"/>
	<path class="st22" d="M149.99,86.73c1,1.32,2.47,0.47,3.69,0.81c-8.57,2.04-17.29,2.25-26.04,2.11c3.8-3.31,8.38-3.15,12.7-2.05
		C143.85,88.5,146.83,87.63,149.99,86.73z"/>
	<path class="st23" d="M116.14,89.08c0.55,0.18,1.1,0.37,1.64,0.55c-5.31,1.09-10.63,1.33-15.96,0.11
		c3.66-2.01,7.45-3.16,11.61-1.65c-0.54,1.02-1.61,0.75-2.46,1.12C112.7,88.63,114.42,89.12,116.14,89.08z"/>
	<path class="st24" d="M41.29,26.95c3.87-3.46,8.27-3.52,12.92-2.01c1.83,4.19,4.09,8.23,4.55,12.91c-1.17,0.88-2.31,0.27-3.38-0.18
		c-3.83-1.61-7.44-1.34-10.87,1.05c-4.44-1.26-6.06-4.94-7.48-8.77C38.45,28.94,39.87,27.94,41.29,26.95z"/>
	<path class="st25" d="M46.99,51.44c-2.18-0.5-4.45-0.76-6.51-1.56c-3.39-1.33-5.33-0.28-6.29,3.08
		c-5.24-4.33-8.81-9.95-12.28-15.67c-2.1-3.47-3.97-7.12-6.44-10.31c-1.95-2.52-1.23-3.17,1.37-3.5c2.94,2.74,4.64,6.38,6.96,9.58
		c2.88,3.98,6.44,7.05,10.87,9.16c1.74,0.83,3.34,1.89,5.11,3.24c-1.7-1.62-3.81-2.73-2.86-5.39c1.68,0.52,2.29,2.64,4.19,2.83
		C43.17,45.68,46.03,47.91,46.99,51.44z"/>
	<path class="st26" d="M46.99,51.44c-2.27-2.63-4.91-5.01-5.87-8.55c0.07-0.72,0.14-1.44,0.22-2.16c1.51-0.01,1.38-2.06,2.76-2.22
		c2.79-3.35,6.31-3.45,10.11-2.25c1.47,0.46,2.92,1,4.38,1.51c2.06-0.43,3.26,0.76,4.31,2.26c0.54,1.89,2.34,2.6,3.62,3.78
		c1.47,1.36,2.57,2.8,2.22,4.93c-0.24,1.72-0.17,3.49-0.9,5.13c-0.59,0.99-1.18,1.99-2.6,1.24c-1.51-0.26-3.02-0.51-4.54-0.77
		c-0.28-1.45,1.75-1.13,1.8-2.72c-5.42-1.78-11.74-1.45-16.48-5.76c1.37,2.13,4.65,2.5,4.7,5.57
		C49.48,51.44,48.24,51.44,46.99,51.44z"/>
	<path class="st27" d="M36.92,40.06c0.43,2.97,3.16,4.35,4.78,6.74c-11.63-4.43-19.73-12.28-24.85-23.33
		c0.46-0.13,0.92-0.25,1.37-0.4c2.7-0.88,4.57-1.06,6.34,2.29C27.57,31.05,32.41,35.48,36.92,40.06z"/>
	<path class="st28" d="M44.1,38.52c-0.93,0.73-0.63,2.99-2.76,2.22c-2.32-3.79-7.09-5.29-9.15-9.79c1.67-0.57,3.45-0.07,4.84-1.01
		C39.46,32.73,41.01,36.26,44.1,38.52z"/>
	<path class="st29" d="M104.03,16.15c3.04,3.32,3.8,7.78,5.81,11.61c0.51,1.86,0.34,3.71,0,5.57c-2.61,0.42-4.44-2.33-7.09-1.75
		c-0.68,0.02-1.35,0.15-2.04,0.11c-2.85-1.14-5.85-1.78-8.74-2.78c-0.29-0.2-0.46-0.47-0.53-0.8c-0.59-3.09-3.42-4.29-5.33-6.26
		c-0.6-0.62-1.89-0.65-1.7-1.97C90.22,14.79,96.89,14.23,104.03,16.15z"/>
	<path class="st30" d="M132,21.96c0.02,0.25,0.03,0.5,0.05,0.76c-2.05,2.88-2.23,6.45-3.59,9.58c-0.11,0.34-0.24,0.68-0.41,0.99
		c-0.51,0.93-0.88,2.33-2,2.3c-1.54-0.04-1.16-1.82-1.73-2.78c-1.18-1.91-2.74-3.43-4.69-4.55c-0.58-0.3-1.18-0.55-1.8-0.76
		c-1.29-0.46-2.84-0.35-3.76-1.66c-0.81-1.68-1.79-3.33-0.74-5.27c1.69,0,3.38,0,5.07,0C122.9,21.31,127.67,19.5,132,21.96z"/>
	<path class="st31" d="M82.32,26.39c-3.14-1.07-6.1-1.16-9.23,0.46c-5.33,2.75-6.95,1.64-7.27-4.5c-0.03-0.59-0.02-1.18-0.02-1.78
		c0.42-0.41,0.76-1,1.26-1.19C70.4,18.11,80.78,22.92,82.32,26.39z"/>
	<path class="st32" d="M104.03,16.15c-0.99,0.97-2.06,0.14-3.03,0.04c-6.1-0.65-11.61,0.77-16.62,4.26
		c-1.17,1.5-2.61,1.54-4.19,0.78c4.74-4.12,10.07-7.2,16.23-8.56C99.64,11.95,102.26,13.29,104.03,16.15z"/>
	<path class="st33" d="M91.5,27.92c0.09,0.15,0.17,0.3,0.25,0.45c-0.42,0.54-0.98,0.48-1.65,0.35c1.32,0.7,3.5-0.4,3.83,2
		c-3.41,1.7-7.48,1.15-10.78,3.21c-1.2,0.64-2.04,1.92-3.52,2.1c-0.84-0.45-1.41-1.86-2.71-0.47c-0.55,0.59-1.29,0.11-1.47-0.78
		c0.7-3.38,3.05-4.87,6.21-5.45c0.7-0.32,1.39-0.64,2.09-0.96c0.7-0.22,1.4-0.44,2.1-0.66C87.79,26.51,89.68,26.17,91.5,27.92z"/>
	<path class="st34" d="M91.5,27.92c-1.88-0.07-3.75-0.14-5.63-0.22c-0.82-3.11-3.76-4.34-5.69-6.47c1.5,0.3,2.76-0.7,4.2-0.78
		c4.04,0.51,5.56,4.22,8.15,6.55C93.13,27.55,91.94,27.68,91.5,27.92z"/>
	<path class="st35" d="M119.72,27.48c2.32,0.83,3.75,2.66,5.09,4.58c0.98,6.07-1.86,8.6-7.75,6.91c-1.25-0.36-2.46-0.82-3.59-1.46
		c-1.45-0.9-2.82-1.89-3.62-3.46c-0.03-0.18-0.06-0.37-0.09-0.55c-0.67-1.92-1.07-3.84,0.07-5.74c0.44-0.46,0.88-0.91,1.31-1.37
		c1-1.15,2.05-2.02,3.47-0.55c1.12,1.03,2.84-0.1,3.91,1.11c-0.21,0.31-0.49,0.54-0.84,0.68c-0.51,0.18-1.04,0.26-1.57,0.29
		c-1.7,0.16-3.87-0.42-4.45,1.91c-0.54,2.16,1,3.5,2.6,4.64c0.68,0.48,1.36,0.99,2.16,1.22c1.83,0.53,3.96,1.25,5.35-0.36
		c1.52-1.77,0.19-3.52-1.05-5.05C120.07,29.48,119.14,28.73,119.72,27.48z"/>
	<path class="st36" d="M114.62,25.84c-1.25-0.4-2.3,0.45-3.47,0.55c-1.12-2.43-2.25-4.87-3.52-7.62c2.13,0.68,3.91,1.24,5.68,1.81
		C113.75,22.33,114.18,24.08,114.62,25.84z"/>
	<path class="st37" d="M132,21.96c-4.46-1.18-9.17,0.02-13.61-1.39c4.26-0.77,8.53-1.29,12.78,0.03
		C131.45,21.05,131.72,21.51,132,21.96z"/>
	<path class="st38" d="M159.62,34.41c2.17,0.44,3.7-1.17,5.56-1.72c2.62,0.06,5.2,0.47,7.81,0.61c3.1,0.17,5.21,1.52,5.5,4.89
		c-2.01,3.22-5.52,3.56-8.7,4.55c-1.58-0.13-2.41-1.42-3.49-2.31c-2.18-1.81-4.8-2.51-7.48-3.12
		C157.84,36.01,157.73,34.93,159.62,34.41z"/>
	<path class="st39" d="M195.41,59.46c-2.72,0.97-4.76-1.3-7.23-1.52c-2.38-2.44-4.6-5.04-7.67-6.73c-1.06-0.58-1.95-1.69-0.03-2.58
		c4.27-0.23,8.6-1.26,12.7,0.88c0.05,0.17,0.1,0.34,0.14,0.51c-0.06,0.81,0.46,1.32,1,1.76C197.09,54,197.37,56.57,195.41,59.46z"/>
	<path class="st40" d="M163.78,31.39c-1.59,0.72-3.18,1.43-4.77,2.15c-1.51,2.1-2.92,0.75-4.36-0.11c-3.43-0.9-2.76-3.44-2.34-5.88
		c2.55-1.72,5.44-1.4,8.2-1.09C163.31,26.77,162.48,29.87,163.78,31.39z"/>
	<path class="st41" d="M155.01,32.62c1.15,1.11,2.37,1.88,4,0.92c0.2,0.29,0.41,0.58,0.62,0.87c-1,0.81-1.58,1.67-0.31,2.73
		c1.65,1.25,1.9,2.86,1.22,4.71c-1.08,1.21-2.29,0.87-3.52,0.29c-1.1-1.52-0.36-3.77-2.01-5.07c-4.09-4.16-8.57-2.77-13.09-0.94
		c-0.66,0.33-1.32,0.63-2.08,0.44c-0.71-0.44-1.06-1.06-0.94-1.92c0.9-1.78,2.64-2.22,4.35-2.71
		C147.25,30.77,151.14,31.49,155.01,32.62z"/>
	<path class="st42" d="M193.18,49.5c-4.55-0.06-9.11-0.13-13.66-0.19c-2.62,1.71-5.71,1.02-8.54,1.69
		c-1.27-0.08-2.64,0.04-3.23-1.51c0.47-2.16,2.44-1.77,3.88-2.23c1.43-0.46,2.99-0.29,4.43-0.81c4.58-0.48,9.15-0.55,13.69,0.3
		c1.12,0.17,1.58-1.3,2.71-1.11C192.4,46.98,192.62,48.27,193.18,49.5z"/>
	<path class="st43" d="M192.46,45.63c-0.89,0.52,0.04,2.16-1.42,2.33c-1.78-2.27-4.05-3.35-6.98-3.61c-2.67-0.23-5.1-1.34-5.56-4.55
		c0.53-1.29,1.53-0.9,2.48-0.7c2.95,0.81,5.9,1.63,8.86,2.42C191.96,42.1,193.11,43.28,192.46,45.63z"/>
	<path class="st44" d="M178.17,38.5c-0.62-3.05-2.57-4.21-5.59-4.22c-2.55,0-5.15-0.07-7.4-1.59c2.47-0.71,4.91-1.63,7.43-2.07
		c3.57-0.63,5.94,1.46,6.09,5.13c0.04,1.01,0.37,1.85,0.79,2.71C179.06,38.95,178.62,38.99,178.17,38.5z"/>
	<path class="st45" d="M195.41,59.46c1.16-3.44,0.37-6.16-2.73-8.26c-1.13-0.76,0.04-0.98,0.63-1.19c3.42,0.67,6.48,1.77,7.14,5.82
		C199.54,58.1,197.38,58.65,195.41,59.46z"/>
	<path class="st46" d="M178.17,38.5c0.44-0.01,0.88-0.02,1.32-0.03c0.49,0.21,0.98,0.43,1.48,0.64c-0.83,0.01-1.69-0.04-2.23,0.8
		c-1.84,2.06-4.59,2.42-6.85,3.69c-1.83,0.61-3.58,1.41-5.2,2.42c-0.62,0.39-2.89,0.45-0.89,2.18c0.32,0.28-0.53,0.93-1.12,1.09
		c-1.04,0.28-2.13,0.32-3.17,0.63c-0.69,0.12-1.35,0.1-1.97-0.27c-0.43-1.77-0.67-3.51,1.04-4.82c1.8,0.38,3.15-0.76,4.57-1.49
		c1.38-0.71,2.82-1,4.31-1.2C172.45,41.15,175.39,40.02,178.17,38.5z"/>
	<path class="st47" d="M163.78,31.39c-0.21-0.11-0.5-0.16-0.62-0.33c-3.15-4.72-4.7-5.1-11.05-2.64c-1.63,1.04-3.22,1.84-4.25-0.72
		c4.25-2.54,8.89-2.52,13.6-2.09C164.44,26.66,163.43,29.3,163.78,31.39z"/>
	<path class="st48" d="M81.68,29.32c-2.11,1.69-4.78,2.79-5.86,5.56c-0.24,2.29-1.1,4.44-1.51,6.7c-0.97,2.26,0.6,4.65-0.36,6.9
		c-0.75,0.6-1.46,0.22-1.84-0.35c-3.14-4.77-6.08-9.66-8.38-14.9c-0.47-1.08-0.82-2.56,1.39-2.02c3.25,0.64,6.22-0.27,8.93-1.94
		C76.67,27.66,79.14,27.37,81.68,29.32z"/>
	<path class="st49" d="M65.11,31.22c-0.78,0.16-1.37,0.4-0.86,1.39c2.82,5.57,5.52,11.2,9.5,16.09c0.52,0.09,0.88,0.38,1.13,0.84
		c0.37,0.89,0.48,1.86,0.85,2.76c1.25,3.2,3.85,5.05,6.69,6.67c0.43,0.31,0.76,0.69,0.98,1.17c0.14,0.53,0.08,1.03-0.3,1.45
		c-2.31-1.48-5.25-1.69-7.31-3.67c-3.59-9.26-9.86-17.07-14.13-25.96c-0.24-0.51-0.83-0.88-0.39-1.85
		C62.47,30.59,63.92,30.29,65.11,31.22z"/>
	<path class="st50" d="M62.89,40.03c-1.44-0.75-2.88-1.5-4.31-2.26c-1.67-4.21-4.04-8.18-4.37-12.84c0.99-0.13,2.18-0.17,2.52,0.86
		C58.4,30.72,61.87,34.85,62.89,40.03z"/>
	<path class="st25" d="M67.24,53.65c0.15-1.74,0.33-3.47,1.49-4.9c1.74,3.32,3.9,6.35,6.42,9.13c-2.3,0.2-4.43-0.51-6.54-1.26
		C67.97,55.71,67.41,54.77,67.24,53.65z"/>
	<path class="st51" d="M113.27,36.4c1.31,0.55,2.59,1.17,3.93,1.63c5.34,1.84,8.79-1.18,7.61-5.98c1.18,0.66,0.38,2.11,1.25,3.16
		c0.59-1.14,1.11-2.15,1.63-3.15c1.24-0.93,2.05-0.05,2.88,0.7c0.48,0.8,0.97,0.08,1.46,0.01c0.75,0.59,0.95,1.43,1.04,2.32
		c-0.05,0.75-0.4,1.36-0.84,1.94c-1.57,1.96-3.12,3.93-4.7,5.88c-1.26,1.55-2.51,2.12-4.08,0.33c-2.56-2.92-5.86-3.4-9.48-2.68
		c-2.28,0.45-4.52,0.52-6.56-0.87c-0.73-0.62-1.13-1.4-1.11-2.37c0.59-2.32,0.27-4.14-2.44-4.88c-0.74-0.2-1.53-0.68-1.42-1.73
		c2.97-0.46,5.16,1.13,7.33,2.78c0,0-0.05-0.04-0.05-0.04C110.81,34.55,110.87,36.89,113.27,36.4z"/>
	<path class="st52" d="M132.69,34.9c-0.83-0.52-0.61-1.37-0.67-2.13c1.27-2.84,1.83-5.85,2.11-8.92c0.09-0.92-0.12-2.16,1.47-1.17
		c0.68,1.62,2.44,1.24,3.6,1.96c1.15,0.72,2.86,0.71,3.26,2.44C140.04,30.72,136.77,33.32,132.69,34.9z"/>
	<path class="st53" d="M147.86,27.7c1.21,1.48,2.85,0.37,4.25,0.72c0.68,0.18,1.74,0.37,1.14,1.29c-1.56,2.39,0.82,2.17,1.76,2.91
		c-4.1-0.43-8.19-0.33-12.28,0.26c-0.19-2.68,2.44-2.94,3.72-4.37C146.93,28.25,147.39,27.97,147.86,27.7z"/>
	<path class="st54" d="M132.69,34.9c3.15-2.61,6.31-5.23,9.46-7.84c0.56-0.66,1.13-1.26,2.08-0.65c-0.48,1.16-0.95,2.31-1.43,3.47
		c-1.69,2.81-4.75,4.26-6.7,6.81c-0.74,0.65-1.44,1.38-2.53,1.38c-0.85-0.28-1.43-0.81-1.6-1.72
		C132.21,35.87,132.45,35.39,132.69,34.9z"/>
	<path class="st55" d="M144.23,26.41c-0.69,0.22-1.39,0.44-2.08,0.65c-1.56-0.74-3.16-1.41-4.65-2.26
		c-0.81-0.46-2.35-0.46-1.89-2.12c2.52,1.53,5.28,0.61,7.93,0.77c1.07,0.07,2.38,0.2,2.63,1.33
		C146.43,25.97,144.85,25.8,144.23,26.41z"/>
	<path class="st56" d="M130.57,32.76c-0.96-0.23-1.92-0.47-2.88-0.7c0.73-2.48,1.53-4.95,2.18-7.45c0.32-1.22,0.93-1.86,2.18-1.89
		C132.69,26.23,130.53,29.34,130.57,32.76z"/>
	<path class="st57" d="M135.55,36.35c2.01-2.61,4.48-4.72,7.26-6.46c1.22-0.46,2.43-0.91,3.65-1.37c-1.24,1.46-2.48,2.91-3.72,4.37
		c-1.2,0.63-2.62,0.9-3.45,2.13c-0.55,1.11-1.2,2.11-2.49,2.47C136.07,37.44,135.34,37.4,135.55,36.35z"/>
	<path class="st58" d="M195.55,78.24c-1.09-0.05-1.44-1.11-2.17-1.59c-2.53-1.67-4.22-5.36-8.29-3.65c-0.53,0.22-1.07-0.34-1.4-0.87
		c-0.02-0.37,0.12-0.67,0.42-0.89c3.65-0.92,7.13-2.34,10.57-3.85c0.83-0.56,0.6-1.52,0.87-2.3c1.96,1.01,3.98,1.93,5.87,3.06
		c2.1,1.25,3.27,3.07,2.6,5.66C201.47,75.84,198.79,77.57,195.55,78.24z"/>
	<path class="st59" d="M170.85,50.15c2.85-0.63,5.73-1.07,8.66-0.84c0.87,1.92,3.07,1.98,4.53,3.15c1.94,1.55,3.42,3.14,4.13,5.48
		c-3.58-0.25-7.16-0.5-10.74-0.75c-1.44-0.82-2.33-2.28-3.74-3.13c-0.92-1.07-2.21-1.78-2.97-3.02
		C170.62,50.72,170.66,50.42,170.85,50.15z"/>
	<path class="st60" d="M177.91,59.56c4.27-0.44,8.52-0.33,12.68,0.7c0.88,0.22,3.16-0.31,2,2.09c-0.99,0.45-0.74,1.38-0.87,2.17
		c-0.17,1.07-0.58,1.84-1.89,1.49c-3.65-1.17-7.6-0.14-11.23-1.49C177.56,62.98,176.82,61.39,177.91,59.56z"/>
	<path class="st61" d="M194.68,67.4c-2.97,3.08-6.81,4-10.87,4.32c-1.03,0.66-2.16,0.96-3.38,0.91c-2.1-0.22-4.17,0.67-6.28,0.16
		c-1.34-1.25,0-2,0.53-2.91c1.07-1.04,2.06-2.22,3.71-2.34c4.2,0.88,8.22-0.34,12.29-1.06c0.36-0.16,0.7-0.13,1.02,0.1
		c2.08,1.26,1.64-0.77,1.98-1.69C194.9,65.48,194.55,66.53,194.68,67.4z"/>
	<path class="st62" d="M173.68,53.57c2.19,0.23,3.19,1.7,3.76,3.61c-0.02,0.73-0.05,1.46-0.07,2.19c-0.03,2.02-1.14,3.42-2.65,4.59
		c-3.57,2.79-7.25,5.09-11.94,2.48c-1.18-1.1-1.43-2.6-1.75-4.07c-0.2-2.04,1-3.47,2.1-4.96c1.79-1.48,3.37-3.47,6.15-2.59
		c0.78,1.77-0.98,2.18-1.73,3.06c-1.98,2.34-2.92,5.61-1.51,6.41c2.5,1.41,4.24-0.56,5.99-1.93c1.03-0.81,1.94-1.81,2.46-3.05
		c0.54-1.3,0.89-2.59-0.97-3.17c-0.51-0.09-1.02-0.19-1.52-0.32c-0.72-0.27-1.38-0.58-1.26-1.54
		C171.51,53.13,172.46,52.79,173.68,53.57z"/>
	<path class="st63" d="M174.61,63.06c0.92-1.23,1.84-2.46,2.76-3.69c0.16,0.13,0.33,0.19,0.53,0.18c0.3,1.63,0.6,3.27,0.89,4.9
		c1.14,1.52,0.42,2.62-0.82,3.6c-0.91,0.73-1.81,1.46-2.72,2.19c-1,0.55-1.91,0.67-2.52-0.56C173.06,67.4,173.3,65.08,174.61,63.06z
		"/>
	<path class="st64" d="M191.69,66.59c-0.22,0-0.43,0.07-0.62,0.19c-0.72,0.09-0.92-0.26-0.76-0.91c0.79-0.59,0.48-1.5,0.67-2.26
		c0.19-0.75,0.07-2.14,1.6-1.26C192.16,63.73,192.88,65.36,191.69,66.59z"/>
	<path class="st65" d="M60.86,76.49c-5.98-0.69-12.22-2.26-17.78-5.76c-4.24-2.67-7.49-12.58-5.9-17.35
		c0.41-1.23,0.84-2.07,2.54-1.65C52.69,55,65.73,57.95,78.48,62.05c2.37,0.76,2.65,1.98,1.94,4.03c-0.86,2.49-2.4,4.62-4.56,5.84
		C71.4,74.47,66.65,76.48,60.86,76.49z"/>
	<path class="st66" d="M57.19,81.64c-1.45,0.28-2.9,0.56-4.35,0.84c-4.88-0.99-9.78-1.79-14.51-3.49c-3.25-1.17-5.62-3.57-8.27-5.49
		c-3.04-2.2-2.05-6.23,1.62-8.1c1.15-0.59,2.56-0.66,3.33-1.91c0.93,1.54,1.86,3.08,2.8,4.63c-0.91,3.08,0.52,4.88,3.14,6.28
		c4.43,2.37,9.2,3.88,13.88,5.59C55.74,80.34,57.11,80.09,57.19,81.64z"/>
	<path class="st67" d="M75.88,74.61c2.09-0.94,4.03-2.11,5.7-3.7c3.35-1.92,6.74,0.19,10.11-0.1c1.58,0.27,2.37,1.49,3.11,2.71
		c1.21,2.01,3.35,2.96,4.96,4.53c-0.05,2.39-1.65,3.06-3.65,3.29c-2.43-1.51-4.93-2.29-7.27-0.88c0.96,0.33,2.91-1.34,3.6,1.25
		c-2.92,1.71-5.9,1.36-8.89,0.24C83,79.99,83,79.99,85.07,78.06c-1.07,0.11-1.94,0.96-2.99,0.51c-1.83-2.4-4.56-0.71-6.75-1.47
		c-0.29-0.21-0.49-0.49-0.57-0.85C74.72,75.42,75.1,74.88,75.88,74.61z"/>
	<path class="st68" d="M83.09,61.58c0.01-0.45,0.02-0.9,0.04-1.34c1.24-1.44,2.95-0.94,4.5-1.08c2.52-0.01,5.1,0.3,7.27-1.47
		c1.75-0.75,3.07-2.6,5.32-2.09c0.97,1.98-0.77,3.26-1.24,4.87c-1.36,2.82-3.66,4.89-5.69,7.18c-1.84-0.2-1.13,2.22-2.53,2.49
		c-2.06,0.26-4.07-0.22-6.06-0.56c-1.17-0.2-2.5-0.61-1.61-2.36C84.09,65.35,84.16,63.47,83.09,61.58z"/>
	<path class="st69" d="M50.72,51.44c-1.65-2.78-5.75-3.53-6.47-8.15c5.43,5.19,11.58,6.45,18.03,6.8c1.58,0.09,1.47,1.43,1.67,2.37
		c0.28,1.31-0.9,1.04-1.66,1.24c-0.55,0.14-1.07,0.43-1.6,0.66C56.99,54.68,54.07,52.33,50.72,51.44z"/>
	<path class="st70" d="M57.19,81.64c-6.31-2.08-12.72-3.9-18.41-7.55c-2.7-1.73-3.38-3.53-0.98-5.96
		c4.49,7.08,11.92,8.98,19.31,10.93c0.5,0.89,1,1.77,1.5,2.66C58.14,81.69,57.67,81.67,57.19,81.64z"/>
	<path class="st71" d="M76.71,82.3c-3.65,0.52-7.12,2.62-11.03,1.01c-2.03-0.84-3.85-1.74-4.93-3.74c3.43-0.22,6.69-1.23,9.95-2.23
		c0.85,0.08,1.42,0.66,2.03,1.17C73.94,79.88,76.14,80.24,76.71,82.3z"/>
	<path class="st72" d="M83.08,67.23c0.09,0.68,0.06,1.71,0.99,1.54c2.64-0.48,5.09,0.83,7.67,0.62c0.36-0.12,0.67-0.06,0.94,0.21
		c0.36,0.68,0.39,1.34-0.14,1.96c-3.65-0.22-7.31-0.44-10.96-0.66C81.65,69.51,81.99,68.22,83.08,67.23z"/>
	<path class="st73" d="M72.26,78.83c-0.52-0.5-1.04-1-1.57-1.49c1.28-1.76,2.5-3.64,5.18-2.72c-0.27,0.49-0.54,0.97-0.81,1.46
		C74.47,77.34,73.82,78.54,72.26,78.83z"/>
	<path class="st74" d="M67.24,53.65c0.67,0.89,1.92,1.52,1.37,2.97c-1.24-0.25-2.66-0.09-3.38-1.5
		C66.24,55.08,66.77,54.42,67.24,53.65z"/>
	<path class="st75" d="M93.28,67.17c0.95-2.88,3.84-4.38,5.02-7.09c2.86-2.36,6.55-1.58,9.76-2.63c2.29-0.19,4.3,0.91,6.46,1.36
		c1.38,0.52,2.56,1.37,3.63,2.38c4.6,4.01,5.43,8.92,3.48,14.51c-0.27,0.89-0.88,1.52-1.58,2.09c-0.86,0.59-1.7,1.22-2.45,1.97
		c-2.62,1.79-5.19,3.85-8.65,2.01c-0.18-0.02-0.36-0.03-0.54-0.03c-0.54-0.01-1.08-0.01-1.63-0.03c-4.5-1.22-4.74-1.7-2.33-4.66
		c0.97-0.22,1.86,0.16,2.77,0.38c5.45,1.3,8.1-0.06,10.3-5.26c0.96-4.38-2.55-8.95-7.42-9.59c-1.41-0.19-2.83-0.1-4.24,0.02
		c-2.15,0.38-4.06,1.32-5.95,2.35c-1.96,0.82-2.86,3.31-5.28,3.42C93.88,68.3,93.33,68.02,93.28,67.17z"/>
	<path class="st76" d="M150.05,83.2c-2.52,1.97-5.29,2.45-8.4,1.69c-4.71-1.15-9.33-1.49-13.78,1.22
		c-4.07,2.48-8.24,1.62-12.32-0.18c-1.07-2.84,0.98-4.62,2.26-6.66c2.07-1.04,3.99,0.23,5.98,0.38c7.26,0.59,14.44,2.08,21.78,1.8
		C147.2,81.39,149.26,80.85,150.05,83.2z"/>
	<path class="st77" d="M173.08,69.58c0.53,0.87,1.41,0.58,2.18,0.67c-0.46,0.68-0.92,1.36-1.39,2.04c-3.97,5.56-10.15,7-16.21,8.64
		c-0.57,0.16-1.17-0.1-1.62-0.54c-0.32-0.24-0.65-0.48-0.97-0.73c-0.69,0.4-1.43,0.25-2.16,0.17c-3.9-0.39-6.95-2.49-9.74-4.99
		c-1.14-1.02-2.49-2.62,0.65-2.97c7.23,4.41,14.32,1.63,21.39-0.48C167.81,70.64,170.25,69.3,173.08,69.58z"/>
	<path class="st78" d="M104.54,77.43c-2.52,4.13,1.69,2.69,3.01,3.63c0.03,1.45-1.3,1.51-2.01,1.41c-3.43-0.47-6.26,1.33-9.33,2.22
		c-3.9,0.79-7.8,1.7-11.68-0.09c-2.71-0.44-5.31-1.22-7.82-2.31c-1.49-1.14-3.37-1.79-4.45-3.47c0.68-1.18,1.58-2.14,2.81-2.76
		c0.01,0.21,0.04,0.42,0.08,0.62c1.73,1.63,3.55,3.1,6.02,3.45c0.65,0.13,1.31,0.25,1.76,0.81c3.15,1.18,6.33,1.11,9.52,0.2
		c1.05-1.27,2.25-0.75,3.44-0.3c1.59-0.36,2.85-1.2,3.77-2.55c-0.15-0.9-0.27-1.8-0.05-2.71c0.13-0.56,0.38-1.06,0.85-1.42
		c1.26-0.64,2.55-0.64,3.84-0.1C105.25,75.13,105.46,76.24,104.54,77.43z"/>
	<path class="st79" d="M156.04,80.4c5.58-1.52,11.44-2.41,15.65-6.99c0.59-0.64,1.34-0.98,2.18-1.11c2.12-0.16,4.23-0.32,6.35-0.48
		c2.13,1.47,0.52,2.69-0.36,3.8c-0.99,1.24-2.56,1.69-3.99,2.3c-6.1,2.6-12.65,3.32-19.05,4.65c-0.67,0.14-1.74,0.83-1.76-0.75
		C155.39,81.34,155.72,80.87,156.04,80.4z"/>
	<path class="st80" d="M155.07,81.81c8.11-1.15,16.15-2.62,23.59-6.22c1.29-0.63,2.55-1.9,1.57-3.78c1.19-0.03,2.38-0.06,3.58-0.09
		c-0.01,0.15-0.05,0.29-0.11,0.42c-1.31,2.25-1.74,5.07-4.25,6.53c-8.12,2.94-16.48,4.54-25.14,4.45
		C154.56,82.68,154.81,82.25,155.07,81.81z"/>
	<path class="st81" d="M96.68,83.73c3.27-2.32,7.19-2.02,10.87-2.67c0.29,0.23,0.57,0.45,0.86,0.68c-2.89,3.72-6.84,5.48-11.32,6.63
		c-3.17,0.81-5.8,0.28-8.34-1.52C90.97,84.75,94.43,85.78,96.68,83.73z"/>
	<path class="st25" d="M153.02,79.51c0.68,0.05,1.37,0.11,2.05,0.16c-2.23,0.38-3.37,2.33-5.02,3.53c-0.57-0.81-1.44-0.81-2.26-0.74
		c-7.67,0.64-15.17-1.26-22.78-1.49c-0.54-0.02-1.06-0.41-1.59-0.63c-0.03-0.95,0.27-1.67,1.27-1.96
		c6.09,0.98,12.23,0.87,18.37,0.89c1.43,0,2.83-0.02,4.21-0.45C149.22,78.72,151.12,79.09,153.02,79.51z"/>
	<path class="st82" d="M117.6,79.61c0.3,2.43-1.99,4.01-2.05,6.32c-1.56-0.43-3.13-1.27-4.67-1.2c-2.73,0.12-2.4-1.26-1.93-2.96
		c3.25,0.14,6.08-0.89,8.52-3.02C117.85,78.98,117.89,79.27,117.6,79.61z"/>
	<path class="st83" d="M96.68,83.73c-1.86,3.04-5.1,2.55-7.93,3.11c-1.58-0.41-3.05-1.04-4.21-2.24
		C88.61,84.67,92.66,84.52,96.68,83.73z"/>
	<path class="st84" d="M116.14,89.08c-1.87,1.15-3.85,0.22-6.03,0.73c0.89-1.77,2.29-1.32,3.33-1.72
		C114.34,88.42,115.24,88.75,116.14,89.08z"/>
	<path class="st85" d="M65.7,47.19c-2.87,1.54-5.71,0.36-8.55-0.12c-1.47-1.35-3.4-1.62-5.21-2.15c-1.06-0.31-1.96-0.86-2.77-1.57
		c-0.56-0.49-1-1.14-0.6-1.87c0.3-0.54,0.97-0.68,1.58-0.62c1.77,0.17,3.54,0.5,5.32,0.04C60.14,40.95,62.45,44.83,65.7,47.19z"/>
	<path class="st86" d="M55.77,41.26c-2.09,2-4.42,0.3-6.79,0.26c0.92,3.07,3.62,2.85,5.71,3.38c1.36,0.34,2.61,0.31,2.46,2.16
		c-3.25-0.33-6.16-1.63-8.82-3.43c-1.26-0.85-2.72-2.14-1.73-3.82c1-1.69,2.66-2.75,4.77-1.37c0.87,1.29,2.41,1.13,3.63,1.67
		C55.48,40.36,55.83,40.68,55.77,41.26z"/>
	<path class="st87" d="M55.77,41.26c-0.26-0.19-0.52-0.39-0.78-0.58c-0.09-1.4,0.73-1.04,1.51-0.78c3.1,0.71,5.74,2.29,8.06,4.39
		c0.8,0.73,2.17,1.38,1.15,2.89c-1.53,0.34-2.37-0.68-3.22-1.66C60.67,43.44,58.39,42.08,55.77,41.26z"/>
	<path class="st88" d="M56.5,39.91c-0.56,0.14-1.21,0.11-1.51,0.78c-1.35-0.33-2.8-0.45-4.03-1.04c-1.19-0.57-0.29-0.98,0.41-1.2
		C53.16,38.68,54.91,39.01,56.5,39.91z"/>
	<path class="st89" d="M106.77,37.13c0.26,0.73,0.52,1.45,0.78,2.18c0.55,0.63,0.85,1.35,0.91,2.18c-0.05,1.94,0.45,4.01-1.17,5.63
		c-2.28,0.58-2.67-1.58-3.83-2.62c-1.75-2.37-0.46-5.56-2.18-7.94c-0.71-1.29-1.65-2.36-2.96-3.08c-1.47-1-3.4-1.29-4.48-2.89
		c-1.24-1.12-2.96-1.06-5-1.91c1.38-0.15,2.15-0.23,2.91-0.31c3.32,0.33,6.49,1.14,9.37,2.9C103.99,32.26,106.12,33.99,106.77,37.13
		z"/>
	<path class="st90" d="M106.77,37.13c-1.47-2.35-3.53-4.14-5.65-5.87c0.25-0.65,0.76-0.65,1.32-0.55c0.71,0.4,1.38,1.02,2.13,1.15
		C108.12,32.5,108.31,34.42,106.77,37.13z"/>
	<path class="st91" d="M117.54,27.09c0.33-0.05,0.66-0.1,0.99-0.15c0.4,0.18,0.8,0.36,1.2,0.53c0.58,0.75,1.07,1.61,1.77,2.23
		c1.94,1.73,2.63,3.91,1.55,6.14c-1.05,2.2-3.44,1.3-5.22,1.18c-2.63-0.18-4.64-1.87-6.32-3.76c-1.16-1.31-1.66-3.04-0.73-4.68
		c1.27-2.24,3.5-1.58,5.5-1.48c0.31,0.47,0.12,1.47,0.69,1.45C117.59,28.54,117.22,27.56,117.54,27.09z"/>
	<path class="st92" d="M93.84,30.58c1.75,0.58,3.5,1.17,5,2.31c0.05,0.53-0.18,1.01-0.66,1.08c-3.94,0.59-7.59,2.51-11.63,2.61
		c-1.48-0.05-1.27,0.96-1.23,1.92c0.08,2,0.48,3.95,0.7,5.93c0.14,1.27,0.23,2.6-0.85,3.62c-0.91,0.09-1.48-0.37-1.91-1.1
		c-0.8-4.45-2.01-8.87-0.93-13.45C85.78,31,89.87,31.01,93.84,30.58z"/>
	<path class="st28" d="M82.33,33.5c0.84,4.51,1.32,9.06,1.42,13.64c-1.55,0.65-3.01,0.29-4.44-0.42c-1.22-1.18-1.41-2.65-1.08-4.2
		c0.32-1.53,0.16-3.01-0.13-4.51c-0.01-1.06,0.32-1.91,1.39-2.31C80.44,34.96,81.39,34.23,82.33,33.5z"/>
	<path class="st93" d="M79.5,35.69c-0.27,0.69-0.53,1.37-0.8,2.06c0,2.35-0.41,4.58-1.88,6.5c-2.34,0.48-2.6-1.36-3.16-2.85
		c0.13-2.36,0.48-4.66,2.16-6.51c0.62,0.76,0.97,0.05,1.43-0.24c0.73-0.46,1.05-1.87,2.22-1.29C80.72,33.98,78.25,34.91,79.5,35.69z
		"/>
	<path class="st94" d="M117.54,27.09c0.42,0.85,1.9,1.46,0.62,2.69c-0.54,0.51-1.17,0.96-1.9,0.41c-1.34-1.01-0.77-2.06,0.02-3.09
		C116.7,27.1,117.12,27.1,117.54,27.09z"/>
	<path class="st95" d="M113.27,36.4c-2.58,0.82-2.58,0.82-3.56-2.95C110.9,34.44,112.09,35.42,113.27,36.4z"/>
	<path class="st96" d="M169.45,42.14c-2.33,1.16-4.65,2.32-6.97,3.5c-0.81,0.41-1.58,0.74-1.82-0.59c-0.77-0.85-1.06-1.79-0.58-2.89
		c0.08-1.72-0.17-3.4-0.77-5.02C163.9,36.36,166.5,39.62,169.45,42.14z"/>
	<path class="st97" d="M160.08,42.16c0.58,0.89,0.64,1.88,0.58,2.89c-0.76,1.38,0.14,3.33-1.5,4.41c-0.09,0.56-0.43,0.92-0.93,1.16
		c-1.31,0.4-2.59,0.94-4.01,0.58c-0.43-1.84-0.43-1.84,2.35-3.92c-5.92,3.31-10.66-0.1-15.58-1.1c0.6,0.39,1.42,0.34,2.16,0.59
		c0.79,0.27,1.86,0.31,0.81,1.54c-1.99,0.46-3.98,1.53-5.96-0.01c-1.95-2.37-3.11-4.98-2.45-8.13c0.21-1.17,0.66-2.22,1.54-3.06
		c0.51-0.93,1.24-1.64,2.2-2.1c0.21,0.44,0.41,0.88,0.62,1.32c-0.68,3.43,0.57,5.72,3.99,6.71c2.15,0.97,4.49,1.18,6.75,1.69
		c0.64,0.06,1.27,0.13,1.91,0.09c1.31-0.05,2.36-0.61,3.18-1.62c0.42-0.48,0.85-0.97,1.54-1.03
		C158.21,41.41,159.15,42.13,160.08,42.16z"/>
	<path class="st98" d="M152.85,45.65c-0.7,0.01-1.4,0.02-2.1,0.03c-0.8-0.4-1.22-1.05-1.47-1.92c-1.02-3.49-1.36-3.58-4.27-1.16
		c-0.46,0.38-0.85,0.84-1.48,0.94c-5.02-1.46-5.69-2.79-3.62-7.21c0.46-0.24,0.92-0.48,1.39-0.71c1.58,0.11,3.06-0.39,4.56-0.72
		c3.51-0.78,6.7,0.49,9.93,1.5c1.94,1.55,1.39,3.75,1.51,5.78c-0.28,0.45-0.56,0.9-0.85,1.35c-1.67,0.18-1.62-1.36-2.22-2.24
		c-0.33-0.49-0.76-0.51-1.23-0.37c-0.58,0.18-0.52,0.65-0.45,1.13C152.71,43.24,153.95,44.35,152.85,45.65z"/>
	<path class="st99" d="M155.78,36.39c-0.01,0.47-0.22,1.26-0.59,1.03c-3.96-2.43-8.16-1.77-12.38-1.14
		c-0.61,0.09-1.16-0.1-1.52-0.67C146.72,32.66,151.65,32.92,155.78,36.39z"/>
	<path class="st100" d="M171.66,42.9c2.25-1.25,4.58-2.32,7.08-2.99c1.35,2.56,3.48,3.69,6.37,3.69c2.99,0,5.54,0.75,5.92,4.37
		c-4.98-0.95-10.02-0.73-15.05-0.74C173.06,47.26,172.5,44.94,171.66,42.9z"/>
	<path class="st101" d="M171.66,42.9c2.05,0.84,2.32,3.45,4.33,4.33c-2.49,1.38-5.62,0.43-7.99,2.25c-2.2,1.28-4.36,1.42-6.47-0.2
		c0.98-1.19,2.47-0.35,3.72-0.94c-1.14-0.52-2.91-0.99-0.67-2.21C166.84,44.87,169.05,43.42,171.66,42.9z"/>
	<path class="st102" d="M161.53,49.27c2.16,0.07,4.31,0.14,6.47,0.2c0.8,0.85,1.9,0.48,2.86,0.67c0.07,0.15,0.13,0.31,0.19,0.47
		c-0.2,1.59-0.19,3.33-2.43,3.51c-0.9-0.03-1.72-0.36-2.56-0.61c-2.28-0.28-4.38-1.13-6.45-2.04c-0.63-0.28-1.35-0.6-1.01-1.56
		c0.19-0.15,0.39-0.3,0.58-0.45C159.95,49.4,160.74,49.34,161.53,49.27z"/>
	<path class="st103" d="M73.66,41.4c0.97,1,1.94,1.99,2.91,2.99c0.82,0.48,1.14,1.21,1.13,2.13c-0.64,1.4-1.49,2.57-3.14,2.85
		c-0.27-0.23-0.54-0.45-0.8-0.68C73.66,46.27,71.97,43.86,73.66,41.4z"/>
	<path class="st104" d="M82.35,59.47c-3.63-1.12-6.26-3.27-7.25-7.1c0.09-4.23,2.89-6.15,7.51-5.01c1.37,0.34,2.66,0.98,4.02,1.39
		c1.12,0.68,1.89,1.66,2.36,2.88c0.14,0.46-0.01-0.12,0.12,0.34C90.85,58.35,89.04,60.36,82.35,59.47z"/>
	<path class="st105" d="M86.65,49.42c-1.94-0.45-3.61-1.65-5.79-1.58c-3.19,0.09-5.27,1.2-5.76,4.54c-0.94-0.86-0.61-1.96-0.55-3
		c0.7-1.17,1.67-2.08,2.84-2.78c0.61-0.79,1.3-0.67,2.04-0.2c1.46,0.15,2.98-0.02,4.33,0.75c0.49,0.24,0.99,0.49,1.48,0.73
		C86.41,47.74,86.92,48.22,86.65,49.42z"/>
	<path class="st106" d="M82.35,59.47c6.66-0.18,7.37-1.19,5.77-8.2c0.33-0.1,0.65-0.08,0.96,0.05c0.44,0.27,0.78,0.63,1.05,1.07
		c0.6,1.05,0.91,2.18,0.93,3.39c0.01,0.52-0.05,1.03-0.18,1.54c-0.45,1.48-1.51,2.29-2.97,2.64c-1.6,0.09-3.19,0.19-4.79,0.28
		C82.86,59.98,82.6,59.73,82.35,59.47z"/>
	<path class="st107" d="M107.58,41.39c-0.01-0.7-0.02-1.39-0.03-2.09c2.32,0.63,4.56,0.76,7.02,0.25c3.63-0.75,7.24-0.19,9.61,3.14
		c1.12,1.58,1.64,1.1,2.53-0.08c1.64-2.18,3.11-4.52,5.26-6.27c0.7,0.28,1.2,0.76,1.47,1.46c0.44,1.81-1.09,2.73-1.89,3.93
		c-1.89,2.83-4.34,5.25-6.08,8.2c-1.5,2.16-2.48,4.6-3.7,6.92c-0.98,1.86-1.53,4.3-4.21,4.71c-0.95-0.66-1.91-1.31-2.86-1.97
		c-0.54-0.81-0.26-1.67-0.13-2.51c0.25-1.15,0.48-2.28,0.27-3.5c-0.82-4.64-0.52-5.17,3.37-7.36c0.87-0.49,2.5-0.61,2.28-1.84
		c-0.25-1.44-1.9-1.59-3.16-1.79c-1.55-0.24-3.03,0.47-4.58,0.47C110.9,42.94,108.76,43.63,107.58,41.39z"/>
	<path class="st108" d="M124.83,49.37c2.87-3.85,5.74-7.7,8.62-11.55c0.7-0.49,1.4-0.98,2.1-1.47c0.34,0.6,0.9,0.75,1.53,0.77
		c-0.24,0.95-0.49,1.89-0.73,2.84c-1.42,2.78-3.49,5.1-5.48,7.45c-1.47,1.74-2.3,3.56-2.1,5.84c-0.42,1.24-1.09,2.18-2.59,2.05
		C123.69,53.78,125.97,51.19,124.83,49.37z"/>
	<path class="st109" d="M168.61,53.66c0.74-0.62,2.5-0.68,0.94-2.43c-0.43-0.48,1.02-0.23,1.48-0.61c1.06,0.83,2.37,1.42,2.64,2.96
		c-1,0.13-2.06,0.06-2.88,0.82c-0.24,0.26-0.54,0.41-0.89,0.46C169.28,54.67,168.45,54.69,168.61,53.66z"/>
	<path class="st110" d="M190.31,65.87c0.25,0.3,0.51,0.61,0.76,0.91c-4.22,1.9-8.54,2.78-13.1,1.28c0.27-1.2,0.55-2.4,0.82-3.6
		C182.7,64.4,186.73,63.27,190.31,65.87z"/>
	<path class="st71" d="M173.08,69.58c-7.23,2.79-14.46,5.63-22.39,5.58c-2.73-0.02-5.12-1.13-7.15-2.96
		c-0.18-0.32-0.17-0.64,0.01-0.96c1.98-1.72,4.23-2.92,6.74-3.69c2.97-0.3,5.72-1.57,8.66-2.03c1.42-0.22,2.81-0.55,4.11,0.38
		c4.6,2.11,8.12-0.17,11.55-2.83C174.56,65.34,174.95,67.72,173.08,69.58z"/>
	<path class="st111" d="M170.16,54.49c0.2-0.14,0.41-0.17,0.64-0.1c0.36,0.62,1,0.67,1.61,0.78c0.39,0.86-0.49,1.8,0.21,2.79
		c1.71-0.44,0.62-1.95,1.08-2.79c2.99,0.44,2.53,2.54,1.76,4.29c-1.47,3.36-4.3,5.39-7.76,6.34c-2.15,0.59-3.39-0.43-3.33-2.84
		c0.1-3.61,2.36-5.79,4.94-7.79C169.44,54.74,169.87,54.7,170.16,54.49z"/>
	<path class="st112" d="M170.16,54.49c-0.28,0.22-0.56,0.45-0.84,0.67c-2.36-0.03-3.97,1.5-5.71,2.75
		c-4.62,2.14-5.94,1.85-8.01-1.77c-0.38-0.46-0.77-0.92-0.65-1.58c3.52-2.94,7.58-2.17,11.6-1.68c0.69,0.26,1.37,0.52,2.06,0.78
		C168.78,54.59,169.53,54.42,170.16,54.49z"/>
	<path class="st113" d="M163.06,65.89c-3.84,0.1-7.39,1.55-11.08,2.34c-0.67,0.14-1.31,0.67-1.93-0.07
		c1.27-2.78,3.38-4.79,5.91-6.42c1.87,0.3,3.82-0.31,5.65,0.51C162.09,63.46,162.58,64.68,163.06,65.89z"/>
	<path class="st114" d="M161.61,62.25c-1.93,0.86-3.87,0.81-5.82,0.06c-0.86-2.51-0.66-4.91,0.75-7.19c0.77,4.95,4.5,2.42,7.08,2.8
		C162.99,59.38,161.51,60.45,161.61,62.25z"/>
	<path class="st115" d="M173.71,55.17c0.45,0.97,2.04,1.63,0.86,3.05c-0.73,0.87-1.65,1.66-2.75,0.81
		c-1.96-1.52-0.24-2.66,0.59-3.86C172.84,55.17,173.28,55.17,173.71,55.17z"/>
	<path class="st116" d="M64.99,72.31c-3.29,0.42-4.85-0.67-5.19-3.98c-0.22-2.12-0.64-4.23-0.48-6.36c0.18-2.5,1.96-3.37,3.88-1.77
		c1.91,1.59,3.69,3.4,5.19,5.38c1.01,1.34,2.06,3.1,1,4.9C68.39,72.19,66.71,72.77,64.99,72.31z"/>
	<path class="st116" d="M44.67,56.57c2.58-0.18,4.91,0.41,4.45,3.5c-0.36,2.42,0.35,5.91-3.5,6.47c-1.98,0.29-5.78-4.12-5.8-6.38
		C39.81,56.74,42.09,56.44,44.67,56.57z"/>
	<path class="st117" d="M57.9,66.26c0,0.48,0.06,0.97-0.01,1.43c-0.24,1.72,0.86,4.25-2.05,4.52c-3.02,0.27-5.45-2.43-5.16-5.35
		c0.18-1.81,0.73-3.55,1.78-5.01c0.87-1.2,2.19-1.94,3.75-1.61c1.69,0.36,1.67,1.8,1.67,3.14c0,0.96,0,1.91,0,2.87
		C57.88,66.26,57.89,66.26,57.9,66.26z"/>
	<path class="st118" d="M100.26,75.93c0.11,0.87-0.01,1.68-0.6,2.37c-3.66-0.88-5.42-3.78-7.12-6.73c-0.06-0.65-0.13-1.31-0.19-1.96
		c1.03-1.01,1.96-0.36,2.9,0.16C96.67,72.02,98.59,73.87,100.26,75.93z"/>
	<path class="st119" d="M80.85,80.85c-2.55-0.5-4.89-1.28-5.7-4.16c0.94-0.11,1.94-0.06,2.81-0.37c2.18-0.78,3.62-0.16,4.47,1.96
		C82.47,79.48,81.36,79.99,80.85,80.85z"/>
	<path class="st120" d="M95.9,80.85c-1.15,0.1-2.29,0.2-3.44,0.3c-1.89,0-3.78,0-6.05,0C92.02,77.63,92.36,77.63,95.9,80.85z"/>
	<path class="st121" d="M80.85,80.85c-1.2-1.91,1.14-1.66,1.58-2.57c1.46-0.74,2.91-1.48,4.74-2.4c-0.38,2.94-3.07,3.37-4.24,5.08
		C82.24,80.92,81.55,80.89,80.85,80.85z"/>
	<path class="st122" d="M90.4,57.18c0.03-0.44,0.06-0.88,0.08-1.31c1.95-1.67,4.79-1.57,6.68-3.36c2.17-1.23,3.24-3.36,4.44-5.39
		c0.64-1.09,0.96-2.47,2.42-2.86c0.91,0.97,1.82,1.94,2.73,2.91c1.29,2.63-1.07,3.74-2.22,5.35c-1.47,1.08-2.31,3.05-4.43,3.24
		c-1.75,0.51-2.94,2.16-4.84,2.36C93.38,59.13,91.78,58.71,90.4,57.18z"/>
	<path class="st123" d="M95.26,70.51c-0.91-0.5-1.79-1.1-2.91-0.9c-0.18-0.14-0.39-0.21-0.61-0.22c-0.6-0.27-1.2-0.53-2.07-0.92
		c0.99-1.31,2.36-1.16,3.61-1.31c0.46,0.28,0.66,1.07,1.43,0.68c2.49-0.63,4.38,0.86,6.44,1.79c1.55,0.92,3.15,1.79,3.87,3.6
		c0.05,0.57,0.01,1.09-0.66,1.29c-1.37,0.01-2.74,0.03-4.11,0.04C97.69,74.32,97.19,71.53,95.26,70.51z"/>
	<path class="st124" d="M100.1,55.75c1.28-1.18,2.56-2.36,3.84-3.55c1.87,0.26,0.56,1.5,0.72,2.29c-0.08,0.33-0.19,0.64-0.32,0.95
		c-0.06,0.67-1.51,1.76,0.58,1.76c1.2,0,2.55-0.37,3.4,0.95c-3.21,1.3-6.74,0.93-10.01,1.92C98.9,58.64,99.5,57.19,100.1,55.75z"/>
	<path class="st125" d="M90.4,57.18c1.62,0.31,3.24,0.62,4.86,0.93c-1.91,2.73-4.71,1.95-7.34,1.85
		C88.74,59.03,89.57,58.11,90.4,57.18z"/>
	<path class="st126" d="M104.34,73.17c-1.12-0.96-2.25-1.91-3.37-2.87c-1.84-3.38,0.42-2.79,2.27-2.56
		c-1.03-1.2-4.41-0.05-3.71-3.39c1.74-1.41,3.87-1.92,5.92-2.62c3.67,0.76,7.39,1.21,9.99,4.57c1.43,1.85,2.7,3.57,2.52,6.01
		c-0.15,1.12-0.89,1.93-1.6,2.7c-1.79,1.95-2.88,1.8-4.41-0.45c-0.94-1.39-1.5-3.66-3.44-0.45
		C106.99,76.61,105.63,74.07,104.34,73.17z"/>
	<path class="st127" d="M124.83,49.37c1.81,0.21,1.45,1.5,1.13,2.56c-0.31,1.05-0.47,1.98,0.26,2.89c0.23,1.5-0.49,2.77-1.01,4.07
		c-1.16,2.88-0.95,5.79-0.26,8.72c0.21,2.92,0.32,5.83-1.36,8.44c-0.81,0.52-1.59,0.58-2.29-0.21c-0.22-0.4-0.74-0.95-0.63-1.18
		c2.75-5.28,0.27-9.29-3.11-13.09C121.25,58.25,121.79,53.07,124.83,49.37z"/>
	<path class="st128" d="M121.3,75.84c0.68,0.03,1.35,0.06,2.03,0.09c6.06,0.27,12.11,0.45,18.17,0.62c1.98,0.81,4.35,0.92,5.6,3.07
		c-7.26,1.13-14.5,1.32-21.7-0.43c-0.45-0.11-0.92-0.17-1.38-0.25c-1.91,0.97-3.38,0.48-4.44-1.34
		C120.15,77.01,120.73,76.43,121.3,75.84z"/>
	<path class="st129" d="M104.34,73.17c3.58,1.8,3.58,1.8,4.3-2.83c1.41,1.73,4.29,1.38,4.28,4.52c0,1.07,1.32,1.23,2.18,0.35
		c0.9-0.92,1.7-1.94,2.54-2.92c0.18-0.23,0.39-0.26,0.62-0.07c-1.63,6.41-6.04,8.08-13.72,5.21c-0.06-0.97-0.11-1.94-0.17-2.91
		C104.36,74.07,104.35,73.62,104.34,73.17z"/>
	<path class="st130" d="M108.31,58.16c-2-0.59-3.97-0.53-5.99,0.55c-0.01-1.67,0.72-2.7,1.46-3.73c2.79-1.42,5.75-0.95,8.68-0.75
		c1.84,0.13,2.55,1.47,2.96,3.05c-0.24,0.78-0.48,1.55-0.72,2.33C112.58,59.12,110.45,58.64,108.31,58.16z"/>
	<path class="st131" d="M118.26,72.22c-0.2,0.05-0.41,0.07-0.62,0.07c-1.69-5.5-4.97-9.13-11.09-9.42c-0.74-0.03-1.02-0.5-1.1-1.15
		c5.11-1.1,9.05,0.85,12.28,4.69C119.25,68.22,119.81,70.12,118.26,72.22z"/>
	<path class="st132" d="M99.52,64.34c0.94,2.92,4.58,1.57,6.08,3.97c-0.76,0.71-1.8,0.66-2.5,0.28c-2.29-1.26-2.01,0.43-2.15,1.7
		c-2.24-0.41-3.87-2.4-6.26-2.45C96.81,67.35,97.34,64.72,99.52,64.34z"/>
	<path class="st133" d="M119.57,77.6c1.48,0.45,2.96,0.89,4.44,1.34c0.09,0.59-0.05,1.09-0.6,1.41c-1.94-0.25-3.88-0.49-5.81-0.74
		c-0.04-0.29-0.09-0.57-0.13-0.86C118.03,78.11,118.64,77.55,119.57,77.6z"/>
	<path class="st134" d="M147.1,79.62c-1.6-0.92-3.74-0.56-5.03-2.18c-1.91-1.25-4.87-1.54-4.48-4.89c1.82-1.36,3.74-2.03,5.92-0.87
		c0.02,0.18,0.03,0.35,0.03,0.53c-1.76,0.3-1.14,0.97-0.3,1.75c2.84,2.59,6.26,4.15,9.77,5.56
		C151.05,79.54,149.08,79.58,147.1,79.62z"/>
	<path class="st135" d="M95.26,70.51c2.49,0.33,3.41,2.61,5,4.06c0,0.46,0,0.91,0,1.37C97.84,74.81,95.95,73.22,95.26,70.51z"/>
	<path class="st136" d="M89.42,52.35c-0.21-0.28-0.41-0.55-0.62-0.83c-1.67-5.13-3.49-10.24-2.82-15.78
		c4.47-0.12,8.47-2.34,12.85-2.84c1.22,0.67,2.13,1.65,2.9,2.79c0.41,6.2-2.48,11.44-4.9,16.82C94.35,53.63,91.88,53.33,89.42,52.35
		z"/>
	<path class="st137" d="M96.7,52.26c0.02-2.73,1.66-4.95,2.35-7.47c0.84-3.05,1.78-6.08,2.68-9.12c2.48,2.4,1.17,5.81,2.28,8.57
		c-2.11,2.96-2.56,7.15-6.49,8.77C97.08,52.95,96.83,52.68,96.7,52.26z"/>
	<path class="st138" d="M103.97,54.41c-0.25-0.73,0.87-1.49-0.04-2.21c1-1.65,2.83-2.84,2.82-5.05c1.15-1.8,0.48-3.85,0.83-5.76
		c1.77,1.26,3.83,0.57,5.74,0.86c-2.36,2.63-3.2,5.96-4.14,9.22C108.38,54.25,106.9,55.55,103.97,54.41z"/>
	<path class="st139" d="M85.98,35.73c1.08,5.24,2.64,10.39,2.82,15.78c-0.23-0.08-0.46-0.16-0.69-0.24
		c-0.49-0.62-0.98-1.24-1.47-1.86c-0.47-0.51-0.94-1.02-1.41-1.54c0.06-3.71-0.64-7.35-1.22-10.98
		C83.64,34.56,84.74,35.13,85.98,35.73z"/>
	<path class="st140" d="M79.42,46.39c-0.68,0.07-1.36,0.13-2.04,0.2c-0.27-0.73-0.54-1.47-0.82-2.2c0.12-2.4,1.26-4.48,2.14-6.64
		C80.62,40.49,78,43.61,79.42,46.39z"/>
	<path class="st141" d="M143.52,71.67c-1.94,0.41-3.97,0.47-5.79,1.39c-4.89,2.11-11.74-0.75-13.48-5.63
		c-2.35-4.68-0.19-8.65,1.97-12.62c1.11-0.19,1.6-1.06,2.15-1.89c2.49-3.41,5.9-5.03,10.07-5.16c1.95,0.95,3.88-0.16,5.82-0.05
		c3.56-0.2,6.63,0.84,9.04,3.56c0.61,1,1.1,2.03,0.44,3.2c-1.48,0.81-2.44-0.32-3.54-0.94c-3.22-1.8-6.39-3.75-10.34-3.16
		c-1.91,0.72-3.7,1.68-5.47,2.67c-2.89,2.15-5.91,4.14-6.86,7.99c-0.96,3.86,0.01,5.88,3.69,7.33c8.6,3.39,20.22-2.78,22.3-11.84
		c0.14-0.59,0.29-1.16,0.72-1.62c0.33-0.2,0.68-0.23,1.03-0.08c0.42,0.1,0.84,0.2,1.26,0.3c0.15,2.44,0.07,4.85-0.75,7.19
		c-1.66,2.2-3.59,4.13-5.74,5.85C147.87,69.33,145.69,70.5,143.52,71.67z"/>
	<path class="st142" d="M138.44,47.77c-3.56,1.32-6.97,2.93-10.07,5.16c-0.9-1.9-0.51-3.43,0.99-4.95c2.49-2.52,3.97-5.95,6.98-8.03
		C135.86,42.88,136.98,45.37,138.44,47.77z"/>
	<path class="st143" d="M152.92,51.49c-2.64-1.81-5.47-3.19-8.66-3.77c-1.81-0.9-4.48-0.22-5.27-2.97
		c6.34,1.42,12.6,6.21,19.39,0.08c-0.14,3.38-3.7,3.56-4.07,6.03C154.23,51.91,153.72,52.01,152.92,51.49z"/>
	<path class="st144" d="M152.92,51.49c0.47-0.21,0.93-0.42,1.4-0.63c1.42-0.32,2.84-0.63,4.26-0.95c2.43,1.62,5.34,1.93,7.98,2.97
		c-3.88-0.04-7.65,0.57-11.29,1.94c-0.38,0.12-0.77,0.24-1.15,0.36c-0.33-0.08-0.51-0.28-0.53-0.63
		C153.37,53.53,153.14,52.51,152.92,51.49z"/>
	<path class="st145" d="M143.52,43.54c0.4-0.71,0.68-1.56,1.24-2.1c1.21-1.17,2.84-2.06,4.41-1.54c1.47,0.48,0.63,2.27,0.88,3.46
		c0.16,0.79,0.46,1.55,0.7,2.32C148.34,44.96,145.63,45.28,143.52,43.54z"/>
	<path class="st146" d="M152.85,45.65c-0.41-1.1-0.94-2.17-1.2-3.31c-0.19-0.83-0.52-2.55,0.25-2.38c0.98,0.21,2.88-1.18,3.19,1.15
		c0.12,0.93,0.53,1.82,1.36,2.41C155.72,45.04,154.38,45.51,152.85,45.65z"/>
	<path class="st147" d="M84.41,51.1c-0.28,1.4-1.15,1.89-2.33,1.75c-1.26-0.14-2.39-0.81-2.28-2.18c0.11-1.34,1.38-1.37,2.47-1.33
		C83.48,49.39,84.23,49.97,84.41,51.1z"/>
	<path class="st148" d="M96.7,52.26c0.28,0.25,0.55,0.5,0.83,0.76c-1.84,2.21-4.43,2.56-7.05,2.85c-0.35-1.17-0.71-2.35-1.06-3.52
		C91.85,52.32,94.28,52.29,96.7,52.26z"/>
	<path class="st149" d="M103.97,54.41c2.42,0.42,3.76-0.58,4.25-3.01c0.33-1.62,1.17-3.14,1.39-4.76c0.32-2.35,1.41-3.82,3.7-4.39
		c2.71-0.66,5.41-1.23,7.83,0.84c1.25,1.07,1.71,2.03-0.28,2.84c-1.22,0.5-2.39,1.11-3.55,1.73c-1.93,1.04-2.87,2.54-1.9,4.73
		c0.73,1.65,0.59,3.25,0.01,4.88c-1.06-1.94-2.73-2.36-4.82-2.24c-2.26,0.13-4.54-0.02-6.82-0.06
		C103.82,54.78,103.89,54.59,103.97,54.41z"/>
	<path class="st27" d="M117.08,58.88c2.01-3.1-1.61-8.5,4.7-10.3C120.66,52.5,119.88,56.1,117.08,58.88z"/>
	<path class="st71" d="M124.25,67.44c3.24,4.87,8.26,5.5,13.48,5.63c0.89,2.01,3.22,2.59,4.34,4.37c-6.26-0.3-12.66,1.04-18.74-1.5
		C123.64,73.1,123.94,70.27,124.25,67.44z"/>
	<path class="st150" d="M153.59,54.55c0.18,0.21,0.35,0.42,0.53,0.63c0.78,3.4-0.45,6.19-2.89,8.41
		c-5.26,4.78-11.18,8.02-18.59,6.15c-7.06-1.78-8.72-7.37-4.04-13.05c1.54-1.87,3.49-3.26,5.58-4.47c1.49-0.1,0.91,1.01,0.85,1.63
		c-0.12,1.19,0.05,2.1,1.35,2.47c1.23,0.35,2.38,0.33,3.1-0.9c0.62-1.06,1.73-2.06,0.68-3.48c-0.55-0.74-1.96-1.23-0.83-2.53
		C144.98,48.6,149.17,51.91,153.59,54.55z"/>
	<path class="st151" d="M139.32,49.4c0.08,0.34,0.07,0.91,0.25,0.98c3.95,1.5,1.63,3.57,0.66,5.69c-1.36,2.96-3.46,1.27-5.13,0.83
		c-3.13-0.83,0.27-3.27-0.92-4.68C135.89,51.28,137.6,50.34,139.32,49.4z"/>
	<path class="st152" d="M144.79,59.72c-0.02,1.38,2.39,1.91,1.04,3.49c-1.51,1.77-3.43,2.97-5.78,3.23
		c-0.76,0.08-1.36-0.54-1.46-1.31c-0.23-1.73-0.05-3.64,1.41-4.56c1.7-1.07,3.09-1.87,3-4.24c-0.04-1,1.27-2,2.35-1.76
		c1.44,0.32,3.2,0.1,4.24,1.49c0.63,0.85,0.45,1.81-0.07,2.69C148.33,60.78,146.38,58.82,144.79,59.72z"/>
	<path class="st153" d="M133.29,58.04c1.43,0.31,3.56,0.18,3.67,2.66c0.13,3.05-2.99,6.62-5.64,6.49c-1.9-0.09-3.56-0.74-3.61-3.12
		C127.64,60.62,129.85,58.1,133.29,58.04z"/>
	<path class="st154" d="M133.04,60.1c0.96,0.23,2.61-0.23,2.11,1.12c-0.61,1.64-1.39,3.63-3.64,3.9c-1.21,0.15-1.66-0.59-1.65-1.73
		C129.89,61.17,131.22,60.32,133.04,60.1z"/>
</g>
</svg>
