<?xml version="1.0" encoding="utf-8"?>
<!-- Generator: Adobe Illustrator 23.0.2, SVG Export Plug-In . SVG Version: 6.00 Build 0)  -->
<svg version="1.1" id="Camada_1" xmlns="http://www.w3.org/2000/svg" xmlns:xlink="http://www.w3.org/1999/xlink" x="0px" y="0px"
	 viewBox="0 0 56.07 72.1" style="enable-background:new 0 0 56.07 72.1;" xml:space="preserve">
<style type="text/css">
	.st0{fill:#FEFEFE;}
	.st1{fill:#315D2B;}
	.st2{fill:#57722C;}
	.st3{fill:#9B385D;}
	.st4{fill:#9A375C;}
	.st5{fill:#42632A;}
	.st6{fill:#3B631A;}
	.st7{fill:#357758;}
	.st8{fill:#5D2237;}
	.st9{fill:#7B2F51;}
	.st10{fill:#75B23C;}
	.st11{fill:#7AAA44;}
	.st12{fill:#677F43;}
	.st13{fill:#A0DB7F;}
	.st14{fill:#70973C;}
	.st15{fill:#78AA43;}
	.st16{fill:#65D154;}
	.st17{fill:#AED187;}
	.st18{fill:#3B6319;}
	.st19{fill:#A3DB80;}
	.st20{fill:#6A9A3D;}
	.st21{fill:#5E9A3D;}
	.st22{fill:#4B682B;}
	.st23{fill:#71993C;}
	.st24{fill:#F7D859;}
	.st25{fill:#38CE55;}
	.st26{fill:#79B046;}
	.st27{fill:#6CB73F;}
	.st28{fill:#637C3F;}
	.st29{fill:#B0D189;}
	.st30{fill:#F9D859;}
	.st31{fill:#FAD859;}
	.st32{fill:#FAD959;}
	.st33{fill:#F8D959;}
	.st34{fill:#F7DA59;}
	.st35{fill:#F7DA5A;}
	.st36{fill:#7FAD5D;}
	.st37{fill:#C64B69;}
	.st38{fill:#C24A6B;}
	.st39{fill:#C54B69;}
	.st40{fill:#C9B1CD;}
	.st41{fill:#CAB2CE;}
	.st42{fill:#C9AFCB;}
	.st43{fill:#CAB2CD;}
	.st44{fill:#CBB0CB;}
	.st45{fill:#ECEBEA;}
	.st46{fill:#EBEAE9;}
	.st47{fill:#E9E6E4;}
	.st48{fill:#ECECEB;}
	.st49{fill:#EDEDEC;}
	.st50{fill:#AD368C;}
	.st51{fill:#EDEBEE;}
	.st52{fill:#EDECEF;}
	.st53{fill:#EDECEE;}
	.st54{fill:#FCD859;}
	.st55{fill:#5FD356;}
	.st56{fill:#F1D959;}
	.st57{fill:#355F2B;}
	.st58{fill:#72B33C;}
</style>
<g>
	<path class="st0" d="M15.71,18.53c-0.82-1.4-1.58-2.65-2.29-3.93c-0.28-0.5-0.52-0.43-0.87-0.09c-0.78,0.75-1.62,1.43-2.35,2.22
		c-1.59,1.68-3.5,1.99-5.6,1.35c-2.14-0.64-3.76-1.84-4.28-4.21c-0.41-1.85-0.73-3.81,1.18-4.82c2.02-1.07,3.57-2.65,5.3-4.04
		c1.43-1.15,2.87-2.31,4.14-3.62c1.87-1.92,3.01-1.71,5.43-0.27c2.79,1.66,5,4.07,6.83,6.78c1.99,2.94,3.8,6,5.33,9.2
		c0.35,0.73,0.73,0.97,1.53,0.95c3.96-0.09,7.93,0.05,11.87-0.16c2.24-0.12,3.96,0.68,5.72,1.62c2,1.08,4.03,2.09,6.06,3.11
		c2.1,1.05,2.89,2.6,2.03,4.78c-0.52,1.31-0.58,2.62-0.68,3.94c-0.29,4.07-0.57,8.13-0.75,12.2c-0.27,5.82-0.6,11.64-0.52,17.48
		c0.02,1.43,0.07,2.87,0.05,4.3c-0.04,2.72-1.4,4.32-4.04,4.82c-3.38,0.65-6.9,0.41-10.22,1.19c-4.56,1.08-9.14,0.68-13.7,0.7
		c-2.56,0.01-4.97-0.82-7.24-2.36c-2.8-1.91-5.57-3.86-8.28-5.9c-1.09-0.82-1.56-1.83-1.58-3.17C8.66,48.23,8.53,35.84,8.4,23.45
		c-0.03-2.49,1.84-4.51,4.34-4.69C13.65,18.69,14.57,18.62,15.71,18.53z"/>
	<path d="M17.61,19.64c-1.19-2.39-2.53-4.58-3.91-6.75c-0.42-0.66-0.84-0.23-1.18,0.07c-1.14,1.01-2.37,1.94-3.33,3.1
		c-1.96,2.34-7.16,0.71-7.66-2.21c-0.12-0.71-0.26-1.41-0.33-2.12c-0.07-0.75,0.29-1.44,0.92-1.7C4.41,9.08,5.96,7.2,7.81,5.7
		c1.61-1.31,3.07-2.79,4.7-4.08c1.23-0.98,2.42-0.04,3.36,0.59c2.6,1.74,4.76,3.99,6.51,6.61c1.97,2.95,3.78,5.99,5.28,9.21
		c0.42,0.91,0.9,1.28,1.96,1.25c4.12-0.12,8.24,0,12.35-0.17c1.98-0.09,3.48,0.58,5.02,1.41c2.17,1.17,4.38,2.25,6.58,3.37
		c1.21,0.61,1.69,2.54,0.87,3.65c-0.22,0.3-0.38,0.55-0.41,0.94c-0.29,5.03-0.66,10.05-0.9,15.08c-0.3,6.06-0.61,12.12-0.52,18.2
		c0.03,1.62,0.24,3.24-0.18,4.86c-0.38,1.47-1.32,2.14-2.77,2.39c-3.23,0.57-6.58,0.4-9.75,1.11c-4.63,1.04-9.28,0.76-13.93,0.76
		c-2.36,0-4.56-0.75-6.65-2.15c-2.78-1.87-5.5-3.82-8.18-5.82c-0.81-0.61-1.15-1.31-1.16-2.33C9.86,48.21,9.73,35.85,9.6,23.5
		c-0.02-1.96,1.38-3.43,3.37-3.55C14.48,19.85,15.98,19.75,17.61,19.64z"/>
	<path class="st1" d="M28.57,20.5c2.31-0.02,4.64,0.11,6.93-0.11c2.62-0.26,5.23,0.3,7.85-0.11c1.12-0.17,2.12,0.7,3.04,1.23
		c2,1.17,4.07,2.19,6.14,3.21c0.75,0.37,1,0.99,0.7,1.52c-0.65,1.18-0.32,2.4-0.45,3.6c-0.07,0.71-0.15,1.42-0.22,2.13
		c-0.05,0.06-0.09,0.13-0.13,0.19c-0.21,0.38-0.49,0.83-0.95,0.74c-0.53-0.1-0.39-0.67-0.46-1.07c0-0.95-0.03-1.9,0.12-2.85
		c0.28-1.79,0.16-1.9-1.62-1.94c-2.49,0.07-4.97,0.03-7.45-0.01c-0.76-0.04-1.51,0.06-2.26,0.02c-5.03,0.07-10.06-0.11-15.08,0.24
		c-0.98,0.07-1.33,0.41-1.31,1.37c0.03,1.52,0.04,3.03-0.01,4.55c0.02,6.58,0.04,13.16,0.03,19.74c0,0.64,0.05,1.28-0.11,1.9
		c-0.2,0.58-0.65,0.78-1.2,0.7c-0.63-0.09-0.56-0.66-0.6-1.11c-0.03-0.31-0.1-0.61-0.18-0.91c-0.18-1.22-0.08-2.45-0.1-3.68
		c0.09-6.55,0.01-13.1,0.03-19.76c-1.8,2.61-3.24,5.33-5.34,7.59c-0.46,0.94-0.18,1.94-0.23,2.92c-0.04,0.69-0.11,1.35-0.57,1.88
		c-0.26,0.31-0.5,0.76-1.05,0.48c-0.32-0.46-0.28-0.99-0.27-1.5c0.02-1.48-0.04-2.94-0.24-4.63c-0.02,5.92,0.02,11.62-0.02,17.33
		c-0.01,1.79,0.03,3.57-0.03,5.36c-0.02,0.64,0.12,1.18,0.61,1.6c0.47,0.45,1.03,0.76,1.54,1.14c0.64,0.51,1.28,1.02,1.97,1.46
		c0.61,0.37,1.08,0.92,1.71,1.26c0.07,0.04,0.13,0.09,0.2,0.13c0.57,0.34,1.12,1.13,1.69,0.94c0.64-0.2,0.16-1.13,0.35-1.71
		c0.07-0.22,0.1-0.47,0.4-0.52c1.06,0.58,0.82,1.62,0.9,2.55c0,0.53,0.36,0.59,0.78,0.65c0.73,0.11,1.47,0.14,2.2,0.28
		c0.55,0.16,1.11,0.07,1.67,0.07c6.66,0.01,13.25-0.64,19.79-1.89c0.2-0.04,0.39-0.06,0.59-0.03c0.31,0.08,0.54,0.34,0.86,0.41
		c0.53,0.12,0.9-0.03,0.84-0.64c-0.18-2.06,0.1-4.14-0.19-6.2c-0.21-1.44-0.13-2.86,0.35-4.24c0.6-0.6,0.84-0.1,0.99,0.37
		c0.27,0.83,0.32,1.71,0.34,2.58c0.03,1.64-0.13,3.3,0.26,4.92c0.35,1.51,0.14,2.99-0.47,4.37c-0.33,0.75-1.25,0.82-1.99,0.91
		c-3.2,0.36-6.45,0.47-9.61,1.03c-3.94,0.7-7.89,0.23-11.82,0.5c-1.98,0.14-3.96,0.22-5.7-0.72c-2.37-1.28-4.66-2.73-6.81-4.39
		c-0.47-0.37-0.89-0.85-1.41-1.1c-2.29-1.11-2.62-2.99-2.56-5.33c0.14-5.35,0.16-10.71-0.03-16.06c-0.22-6.07-0.13-12.14-0.17-18.21
		c-0.01-1.42,0.8-2.26,2.25-2.51c2.17-0.37,4.39-0.04,6.55-0.51c-0.33,0.75-0.33,0.76,0.41,1.74c0.27,0.36,0.41,0.68-0.11,0.94
		c-0.94,0.25-1.9,0.1-2.65,0.12c1.32,0.02,2.71,0.56,4.1,1.05c1.08,0.38,2.12,0.49,3.26,0.46c5.97-0.15,11.95-0.43,17.93-0.27
		c0.76,0.02,1.51,0.02,2.27,0c1.35,0.02,2.7-0.07,3.84,0.05c-1.16-0.46-2.48-1.12-3.74-1.89c-0.95-0.58-1.95-0.81-3.06-0.84
		c-3.82-0.11-7.63,0.42-11.46,0.24c-0.52-0.02-1.04,0.04-1.55-0.08c-0.14-0.04-0.27-0.12-0.38-0.21
		C28.2,21.44,28.18,20.96,28.57,20.5z"/>
	<path class="st2" d="M48,65.59c-1.77,0.81-3.72,0.73-5.59,1.08c-3.31,0.62-6.69,0.87-10.04,1.01c-1.84,0.08-3.71,0.14-5.56,0.06
		c-0.39-0.02-0.81,0.12-1.13-0.22c0.99-0.44,1.58-1.3,2.23-2.1c0.3-0.37,0.55-0.8,1.04-0.95c1.15-0.34,1.77-1.4,2.85-2.01
		c-1-0.6-2.18-0.55-2.91-1.39c-0.32-0.65,0.08-0.86,0.6-1.01c0.96-0.13,1.79,0.47,2.74,0.54c0.13-0.58-0.22-1.07-0.06-1.57
		c0.55-1.07,0.9-0.29,1.29,0.13c0.16,0.23,0.25,0.5,0.38,0.74c0.14,0.26,0.37,0.56,0.63,0.32c0.27-0.24,1.04-0.22,0.65-0.94
		c-0.56-0.27-1.49,0.2-1.72-0.52c-0.22-0.68,0.53-1.18,0.96-1.68c0.31-0.36,0.55-0.79,0.83-0.98c-0.95,0.46-2.13,0.91-3.27,0.53
		c-0.95-0.31-1.73-0.32-2.57,0.14c-0.46-0.79,0.02-1.27,0.63-1.59c0.42-0.22,0.78-0.53,1.2-0.74c0.12-0.03,0.23-0.04,0.35-0.04
		c2.66,0.46,4.25-1.1,5.59-3.04c0.36-0.52,0.53-1.16,0.92-1.67c0.54-0.72,1.06-0.74,1.67-0.08c0.35,0.38,0.54,0.88,0.85,1.3
		c0.95,1.27,2.44,1.56,3.8,0.74c1.18-0.71,1.92-1.76,2.38-3.04c0.27-0.77,0.71-1.34,1.62-1.31c0.92,0.16,1.32-0.67,1.97-1.02
		c0.51-0.09,1.03-0.3,1.5,0.13c-0.26,0.36-0.2,0.79-0.24,1.2c-0.32,0.63-0.76,1.14-1.39,1.48c-0.75,0.36-1.96,0.07-2.05,1.4
		c-0.65,0.91-1.45,1.7-2.25,2.47c-0.79,0.76-1.77,1.27-2.92,1.17c-0.98-0.09-1.72,0.27-2.25,1.06c-0.69,1.02-1.82,1.72-1.84,3.23
		c-0.01,0.74-0.99,1.19-1.51,1.79c-0.43,0.49-1.05,0.79-1.54,1.38c0.69,0.32,1.35,0.42,1.98,0.57c0.71-0.65,1.27-1.45,1.97-2.1
		c0.31-0.29,0.54-0.69,1.06-0.58c0.42,0.12,0.82,0.29,1.27,0.3c1.45,0.04,2.3-0.94,2.07-2.36c-0.09-0.55-0.32-1.07-0.43-1.61
		c0.05-0.55,0.38-0.97,0.73-1.35c0.93-0.99,1.88-1.96,2.83-2.93c0.37-0.38,0.7-0.6,0.95,0.1c0.24,3.06,0.05,6.13,0.11,9.19
		c0.02,1.11,0.02,2.23,0,3.34C48.37,64.64,48.42,65.18,48,65.59z"/>
	<path class="st3" d="M19.11,19.72c-1.47-2.51-2.83-5.08-4.45-7.5c-0.78-1.16-1.3-1.34-2.48-0.45c-1.24,0.92-2.35,2.03-3.5,3.07
		c-1.34,1.22-2.58,1.46-4.1,0.74c-1.52-0.72-2.28-2.05-2.16-3.77c0.02-0.33,0.03-0.7,0.38-0.81c1.38-0.43,2.32-1.51,3.45-2.3
		c0.22-0.08,0.3,0.06,0.36,0.24c-0.2,1.08-1.37,1.28-1.87,2.08C4.51,11.83,5.6,14,6.32,14.15c0.35,0.07,0.62-0.15,0.87-0.33
		c0.61-0.44,1.22-0.89,1.77-1.42c0.69-0.68,1.26-1.52,2.19-1.93c0.48-0.32,1.03-0.57,1.25-1.17c0.62-0.69,1.27-1.12,2.1-0.29
		c0.66,0.86,1.22,1.78,1.83,2.66c0.67,1.04,1.38,2.07,1.92,3.19c0.79,1.22,1.38,2.54,2.1,3.8c0.42,0.74,0.88,1.47,1.12,2.3
		c-0.01,0.12-0.06,0.23-0.14,0.31c-0.37,0.19-0.69,0.07-1-0.15C19.85,20.72,19.69,20.04,19.11,19.72z"/>
	<path class="st4" d="M7.41,7.74c1.82-1.6,3.61-3.25,5.48-4.78c0.78-0.64,1.7-0.26,2.43,0.27c2.88,2.08,5.17,4.7,7.04,7.71
		c1.91,3.09,3.61,6.29,5.25,9.53c0.45,0.26,0.61,0.67,0.63,1.16c-0.02,0.12-0.06,0.22-0.14,0.32c-0.46,0.1-0.76-0.21-1.09-0.43
		c-0.57-0.92-1.08-1.86-1.58-2.82c-0.47-1.07-0.99-2.12-1.62-3.11c-0.75-1.02-1.49-2.06-2.21-3.11c-1.14-1.12-1.8-2.6-2.81-3.83
		c-0.72-0.76-1.36-1.58-2.01-2.4c-0.42-0.47-0.76-1.03-1.23-1.44c-0.97-0.84-2.04-0.96-3.14-0.21c-0.76,0.63-1.6,1.13-2.37,1.73
		C9.4,6.97,8.84,7.71,7.88,7.93C7.7,7.94,7.53,7.89,7.41,7.74z"/>
	<path class="st5" d="M51.84,46.38c-0.48-0.11-0.97,0.18-1.45-0.04c-0.67-1.28-0.39-2.65-0.29-3.97c0.23-3.01,0.34-6.03,0.66-9.03
		c0.05-0.52-0.11-1.15,0.57-1.43c0.02,0.26,0.05,0.53,0.08,0.85c0.41-0.28,0.79-0.54,1.16-0.79c-0.05,3.46-0.42,6.9-0.65,10.35
		C51.82,43.67,51.86,45.03,51.84,46.38z"/>
	<path class="st6" d="M50.15,48.79c0.48-0.4,0.97-0.81,1.45-1.21c-0.05,5.03-0.35,10.05-0.22,15.08c-0.01,0.04-0.01,0.08-0.02,0.12
		c-0.04,0.11-0.19,0.21-0.2,0.09c-0.11-0.99-0.23-1.97-0.26-2.96c-0.05-1.39,0.1-2.8-0.28-4.16c-0.09-0.34,0.16-1.03-0.62-0.97
		c-0.23-0.13-0.36-0.35-0.36-0.59C49.62,52.37,49.59,50.55,50.15,48.79z"/>
	<path class="st7" d="M19.11,19.72c0.8,0.02,0.91,0.77,1.29,1.23c0.32,0.47,0.43,1.01,0.44,1.57c-0.03,0.26-0.15,0.47-0.38,0.61
		c-0.13,0.05-0.24,0.01-0.31-0.11c-0.03-0.39-0.4-0.47-0.62-0.68c-1.07-0.99-1.07-1.12,0.08-1.7
		C19.45,20.34,19.28,20.03,19.11,19.72z"/>
	<path class="st8" d="M7.41,7.74c0.18,0,0.36,0,0.53,0c0.07,0.71-0.51,0.97-0.95,1.33c-0.17,0.07-0.34,0.08-0.51,0
		C6.4,8.95,6.32,8.82,6.24,8.7C6.48,8.2,6.94,7.97,7.41,7.74z"/>
	<path class="st9" d="M28.08,21.67c-0.16-0.4-0.32-0.81-0.48-1.21c0.32,0.01,0.64,0.03,0.97,0.04c0.01,0.44,0.01,0.88,0.02,1.32
		c-0.02,0.11-0.09,0.16-0.2,0.16C28.22,21.94,28.19,21.77,28.08,21.67z"/>
	<path class="st10" d="M31.44,54.54c-0.09,0.01-0.18,0.02-0.27,0.03c-0.43,0.02-0.58-0.37-0.84-0.6c-0.77-0.69-1.18-0.62-1.63,0.31
		c-0.21,0.43-0.33,0.9-0.61,1.3c-0.27,0.38-0.5,0.86-1.12,0.64c-0.76-0.75-0.89-1.76-1.12-2.73c-0.23-0.97-0.28-1.98-0.79-2.87
		c-0.05-0.87,0.1-1.74-0.1-2.61c-0.08-0.35-0.03-0.72,0.29-0.98c0.18-0.1,0.38-0.1,0.58-0.09c2.03,0.1,3.04-0.75,3.35-2.82
		c0.32-2.14-0.03-2.84-1.96-3.86c-1.78-0.94-1.93-1.86-0.55-3.35c0.36-0.39,0.85-0.7,1.06-1.3c-1.63,0.39-2.85,2.06-2.65,3.54
		c0.12,0.96,0.8,1.42,1.59,1.8c2.1,1,2.48,2.15,1.4,4.21c-0.46,0.87-1.09,1.38-2.13,1.05c-0.31-0.1-0.64,0.05-0.95-0.08
		c-0.73-1.38-0.67-2.92-0.81-4.4c-0.27-2.87-0.84-5.71-1.12-8.58c0-1.8,0.01-3.59-0.01-5.39c-0.01-0.57,0.14-0.86,0.8-0.89
		c5.34-0.2,10.68-0.27,16.02-0.19c-0.09,0.58-0.09,1.09,0.67,0.5c0.49-0.38,0.94-0.56,1.5-0.14c0.52,0.39,0.49,0.89,0.24,1.38
		c-0.32,0.65-0.03,0.89,0.57,0.9c0.57,0.01,1.36,0.7,1.64-0.21c0.24-0.78-0.54-1.12-1.16-1.43c-0.51-0.25-1.18-0.29-1.34-1.01
		c2.58,0,5.15,0,7.73,0c0.26,0.29,0.34,0.64,0.29,1c-0.33,2.39-0.58,4.8-0.83,7.2c-0.02,0.2-0.11,0.38-0.2,0.56
		c-0.39,0.63-0.89,1.05-1.69,0.99c-0.4-0.13-0.51-0.48-0.61-0.83c-0.23-0.86-0.82-1.45-1.46-1.99c-1.14-0.96-2.33-0.58-2.52,0.9
		c-0.24,1.89-0.28,3.81,0.06,5.71c0.05,0.31,0.18,0.61,0.13,0.94c-0.37,0.71-0.81,1.35-1.6,1.65c-0.32-0.09-0.62,0.01-0.92,0.12
		c-1.29,0.45-2.17,0.1-2.63-1.21c-0.65-1.84-0.46-3.69,0.15-5.51c0.07-0.22,0.23-0.42,0.22-0.65c-0.16-0.1-0.26-0.02-0.32,0.06
		c-1.22,1.58-1.31,5.52-0.24,7.19c0.48,0.75,1.21,0.99,1.97,1.22c0.39,0.7-0.19,1.11-0.54,1.51C36.39,48.52,33.9,51.51,31.44,54.54z
		"/>
	<path class="st11" d="M21.58,49.74c0.03,1.29,0.05,2.58,0.08,3.87c0.21,2.91,0.6,5.81,0.56,8.73c-0.01,0.54,0.07,1.12-0.36,1.57
		c-0.01,0.64,0.01,1.27-0.02,1.91c-0.01,0.29,0.18,0.7-0.19,0.86c-0.32,0.14-0.58-0.17-0.83-0.35c-0.55-0.38-1.08-0.79-1.63-1.18
		c-0.64-0.63-0.6-1.44-0.6-2.24c0-5.19,0.05-10.38-0.02-15.57c-0.04-2.71-0.37-5.42-0.09-8.13c0.54-2.27,1.36-4.4,2.71-6.43
		c0.43,0.58,0.29,1.04,0.29,1.46c0.01,4.74,0,9.48,0.01,14.22C21.49,48.87,21.39,49.32,21.58,49.74z"/>
	<path class="st12" d="M29.28,56.7c0.71-0.77,1.39-0.86,2.46-0.42c1.41,0.58,2.84-0.07,4.35-1.01c-0.82,1.41-1.96,2.25-2.58,3.48
		c0.61,0.29,1.26-0.1,1.78,0.3c-0.58,0.61-1.3,0.39-1.99,0.31c-0.29-0.19-0.41-1.28-0.94-0.18c-0.94,0.34-1.95,0.49-2.78,1.09
		c-0.37,0.09-0.85,0.11-0.53,0.72c-0.42,1.21,0.17,2.41,0.05,3.61c-0.79,0.49-1.21,1.32-1.76,2.03c-0.44,0.57-0.9,0.99-1.66,0.9
		c-0.93,0.19-1.8-0.32-2.76-0.15c-0.52,0.1-0.26-0.51-0.34-0.8c0.26-0.41,0.38-0.88,0.58-1.32c1.58-2.25,3.04-4.57,4.63-6.81
		c0.3-0.42,0.59-0.85,0.8-1.33C28.75,56.86,28.91,56.59,29.28,56.7z"/>
	<path class="st13" d="M48.72,35.58c0.33-2.95,0.66-5.91,0.98-8.86c2.07-0.18,2.06-0.19,1.87,1.86c-0.1,1.11-0.17,2.22-0.25,3.33
		c-0.41,2.2-0.42,4.44-0.58,6.66c-0.19,2.59-0.46,5.17-0.36,7.78c-0.5,0.6-0.81,1.52-1.9,1.17c-0.82-0.11-0.81-0.75-0.84-1.34
		c-0.09-1.63,0.2-3.24,0.29-4.86c0.09-1.46,0.15-2.93,0.39-4.38C48.41,36.47,48.46,36,48.72,35.58z"/>
	<path class="st14" d="M21.58,49.74c-0.36-0.37-0.21-0.84-0.21-1.26c-0.01-4.72-0.01-9.43-0.01-14.15c0-0.38,0-0.76,0-1.14
		c-1.11,1.93-2,3.9-2.65,5.97c-0.2,1.39-0.88,2.62-1.26,3.95c-0.47,1.04-0.81,2.13-1.25,3.18c-0.12,0.28-0.26,1.05-0.83,0.29
		c-0.23-1.57-0.26-3.14,0.03-4.71c0.19-1.02,0.03-2.05,0.08-3.08c0.02-0.43-0.09-0.87,0.1-1.29c2.39-2.41,3.82-5.52,5.99-8.37
		C21.58,36.15,21.58,42.94,21.58,49.74z"/>
	<path class="st15" d="M25.5,47.08c-0.41,0.29-0.35,0.71-0.22,1.07c0.31,0.87,0.15,1.71-0.07,2.56c0.73,1.23,0.53,2.61,0.57,3.94
		c0.02,0.71,0.07,1.35,0.81,1.7c0.22,0.67-0.33,0.58-0.67,0.62c-1.23,0.12-2.47-0.73-2.87-1.94c0-7.28,0-14.56,0-21.85
		c0.75,1.48,0.58,3.16,0.96,4.71c0.66,2.71,0.35,5.56,1.17,8.24C25.5,46.38,25.59,46.7,25.5,47.08z"/>
	<path class="st10" d="M20.16,23.03c0.08,0.01,0.16,0.02,0.24,0.03c0.21-0.04,0.41-0.01,0.57,0.11c2.12,1.6,4.43,1.1,6.75,0.65
		c1.03-0.2,1.05-1.21,1.62-1.77c4.84,0.24,9.56,1.22,14.28,2.24c0.47,0.1,1.07,0.04,1.28,0.68c-2.19,0.02-4.39,0.02-6.58,0.05
		c-4.58,0.07-9.17,0.05-13.74,0.31c-1.44,0.08-2.61-0.37-3.9-0.72c-1.22-0.33-2.38-0.93-3.71-0.84c-0.36,0.03-0.65-0.24-1.05-0.75
		C17.45,23.03,18.8,23.03,20.16,23.03z"/>
	<path class="st11" d="M15.62,46.87c0.7-1.22,0.8-2.7,1.66-3.85c0.65,1.16,0.59,2.46,0.61,3.71c0.06,3.46,0.06,6.93,0,10.39
		c-0.03,1.72,0.27,3.41,0.24,5.12c-0.01,0.62,0.09,1.31-0.62,1.68c-0.71-0.39-1.38-0.85-1.91-1.47c-0.67-1.07-0.23-2.26-0.37-3.4
		c-0.02-3.4-0.04-6.8,0.02-10.2C15.25,48.18,15.09,47.46,15.62,46.87z"/>
	<path class="st16" d="M17.51,63.93c0.44-0.87,0.31-1.81,0.22-2.7c-0.45-4.68-0.08-9.38-0.22-14.06c-0.04-1.38-0.16-2.77-0.24-4.15
		c0.23-1.37,0.83-2.61,1.44-3.85c0.37,0.53-0.04,1.06-0.01,1.59c0.36,7.65,0.23,15.31,0.27,22.97c0,0.47,0.13,0.94,0.21,1.41
		C18.48,64.95,18.09,64.3,17.51,63.93z"/>
	<path class="st17" d="M50.15,48.79c-0.05,2-0.1,3.99-0.16,5.99c-0.54,3.41,0.09,6.83,0.01,10.24c-0.01,0.44,0.52,1.09-0.32,1.27
		c-0.68,0.15-1.45,0.32-1.67-0.71c0-4.8,0-9.6,0-14.4c-0.21-0.24-0.17-0.48,0-0.72C47.77,48.69,49.33,49.21,50.15,48.79z"/>
	<path class="st18" d="M23.04,55.03c0.92,1.21,2.01,1.99,3.63,1.45c0.06-0.23,0.18-0.36,0.43-0.27c0.75-0.26,0.85-1.01,1.14-1.59
		c0.3-0.59,0.36-1.42,1.18-1.5c0.78-0.07,1.1,0.68,1.53,1.18c0.08,0.09,0.15,0.18,0.23,0.27c-0.31,0.4-0.54,0.79-1.17,0.88
		c-0.52,0.08-0.61,0.74-0.73,1.24c-0.16,0.16-0.31,0.33-0.47,0.49c-1.15,1.76-2.8,1.8-4.56,1.24c-0.74-0.24-0.88-0.07-0.88,0.64
		c0,1.44,0.34,2.85,0.27,4.3c-0.04,0.68-0.07,1.35-0.35,1.98c0.05,0.57-0.24,0.95-0.71,1.22c-0.05-0.94,0.17-1.95-0.72-2.66
		c0.04-3.44-0.39-6.86-0.2-10.3c0.23,0.22,0.21,0.51,0.18,0.78C21.72,55.59,22.27,55.51,23.04,55.03z"/>
	<path class="st19" d="M44.89,24.97c-3.55-0.98-7.19-1.51-10.82-2.1c-1.6-0.26-3.21-0.45-4.82-0.68c-0.25,0.06-0.51,0.14-0.41-0.29
		c4.56-0.08,9.12-0.16,13.67-0.26c0.66-0.01,1.24,0.12,1.82,0.45c1.64,0.94,3.32,1.82,5.28,2.88
		C47.81,24.97,46.35,24.97,44.89,24.97z"/>
	<path class="st20" d="M14.48,34.2c-0.48-2.7-1.16-5.37-1.28-8.14c-0.01-0.2,0.01-0.4-0.01-0.6c-0.24-2.05-0.24-2.05,1.65-1.29
		c2.16,0.86,2.13,0.86,1.54,3.18c-0.55,2.15-1.02,4.32-1.53,6.49C14.82,33.99,14.78,34.15,14.48,34.2z"/>
	<path class="st21" d="M15.64,35.44c0.61-3.31,1.49-6.24,2.22-9.2c0.15-0.61,0.42-0.87,1.1-0.63c0.75,0.26,1.53,0.44,2.3,0.61
		c0.44,0.09,0.77,0.29,0.4,0.69c-1.72,1.85-2.72,4.18-4.22,6.17C16.91,33.8,16.53,34.63,15.64,35.44z"/>
	<path class="st22" d="M15.62,46.87c-0.01,0.64-0.02,1.28-0.03,1.93c-0.71,1.34-0.91,2.76-0.86,4.26c0.07,2.1,0.02,4.21,0.02,6.33
		c0.33-0.01,0.5-0.45,0.86-0.29c0,1.12,0,2.24,0,3.36c-0.53-0.25-1.02-0.55-1.44-0.96c-0.58-1.49-0.31-3.04-0.37-4.57
		c-0.04-1.22,0.04-2.45-0.01-3.67c-0.02-2.85-0.01-5.7,0-8.55c0-0.58-0.09-1.2,0.38-1.69c0.84-0.58,1.21-1.34,1.23-2.39
		c0.01-1.04-0.3-2.12,0.2-3.13C15.6,40.62,15.61,43.75,15.62,46.87z"/>
	<path class="st23" d="M14.16,43.02c0,3.44-0.01,6.89-0.01,10.33c-0.3,0.33-0.19,1.05-0.93,0.95c0-6.15,0-12.3,0-18.57
		c1.12,1.01,0.79,2.31,0.9,3.45C14.23,40.46,14.15,41.75,14.16,43.02z"/>
	<path class="st24" d="M41.97,26.73c0.44,0.35,0.94,0.59,1.48,0.76c0.47,0.14,0.89,0.37,1.18,0.78c0.33,0.47,0.3,1.02,0.1,1.49
		c-0.24,0.56-0.7,0.08-1.06,0.08c-0.24,0-0.47-0.11-0.71-0.12c-1.16-0.04-1.72-0.38-0.9-1.58c0.31-0.45,0.08-0.88-0.35-1.11
		c-0.57-0.3-0.87,0.14-1.15,0.55c-0.14,0.2-0.2,0.65-0.56,0.44c-0.29-0.17-0.54-0.5-0.67-0.82c-0.18-0.44,0.43-0.21,0.51-0.47
		C40.56,26.72,41.27,26.72,41.97,26.73z"/>
	<path class="st25" d="M28.84,21.9c0.14,0.1,0.28,0.19,0.41,0.29c0.08,1.14-0.47,1.69-1.57,1.99c-1.53,0.42-3.07,0.38-4.61,0.33
		c-1.09-0.04-1.87-0.81-2.66-1.46c0.09-0.15,0.17-0.3,0.26-0.45c0.52-0.12,0.81,0.39,1.27,0.46c1.72,0.62,3.42,0.26,5.13-0.1
		c0.64-0.13,0.86-0.79,1.37-1.07c0.07-0.01,0.12-0.04,0.16-0.09C28.67,21.85,28.76,21.88,28.84,21.9z"/>
	<path class="st26" d="M13.22,54.3c0.31-0.32,0.62-0.63,0.93-0.95c0.13,2.62-0.17,5.25,0.2,7.86c0.01,0.09-0.12,0.19-0.19,0.29
		c-0.86-0.44-1.13-1.05-1.03-2.07C13.3,57.74,13.2,56.01,13.22,54.3z"/>
	<path class="st27" d="M48.72,35.58c-0.24,3.57-0.48,7.14-0.72,10.71c-0.03,0.49-0.06,0.97,0.48,1.22c-0.8-0.03-1.22,0.37-1.45,1.12
		c-0.39,1.24-1.08,2.29-2.19,3.05c-1.93,1.31-3.93,0.84-4.97-1.26c-0.24-0.48-0.44-1.05-1-1.06c-0.6-0.01-0.78,0.63-0.96,1.1
		c-0.58,1.57-1.69,2.68-3.02,3.61c-1.07,0.75-2.21,1.02-3.46,0.47c0-0.28,0-0.55,0.2-0.79c1.71-2.03,3.43-4.07,5.14-6.11
		c0.94-1.13,1.88-2.26,2.82-3.39c0.56-0.52,1.06-1.11,1.74-1.48c0.37-0.56,0.79-1.07,1.35-1.44c0.39,0.02,0.62,0.32,0.9,0.53
		c1.41,1.06,2.83,0.68,3.36-1c0.35-1.13,0.55-2.31,0.28-3.51c-0.08-0.34-0.22-0.69-0.01-1.04C47.83,36.29,48.24,35.87,48.72,35.58z"
		/>
	<path class="st28" d="M48.01,50.46c0,0.24,0,0.48,0,0.72c-1.55,1.34-2.85,2.91-4.07,4.54c-0.23,0.16-0.45,0.02-0.67-0.02
		c-1.85-0.36-3.18,1.1-2.65,2.9c0.09,0.32,0.39,0.62,0.16,0.99c-0.9,0.86-2.04,1.51-2.4,2.84c-0.07,0.26-0.27,0.23-0.44,0.07
		c0.05-0.9-0.48-1.64-0.72-2.45c0.38-0.41,0.75-0.81,1.12-1.23c0.28-0.31,0.71-0.53,0.31-1.09c-0.3-0.43,0.2-0.74,0.4-1.01
		c0.68-0.88,1.46-1.67,2.16-2.53c0.27-0.34,0.57-0.41,0.93-0.37c2.4,0.27,3.96-1.03,5.26-2.82C47.55,50.79,47.8,50.64,48.01,50.46z"
		/>
	<path class="st29" d="M40.76,59.59c-0.84-1.37-0.8-2.61,0.14-3.58c0.8-0.82,1.88-0.93,3.03-0.29c0.31,0.43,0.44,0.91,0.56,1.43
		c0.23,1.04,0.12,1.98-0.81,2.55C42.73,60.27,41.71,60.33,40.76,59.59z"/>
	<path class="st30" d="M33.13,66.28c-0.92,0.01-2.11,0.03-2.44-0.78c-0.22-0.53,0.94-1.11,1.54-1.6c1.23-1.01,1.24-1,1.79,0.53
		c0.05,0.15,0.1,0.3,0.14,0.45C34.61,66.29,34.61,66.29,33.13,66.28z"/>
	<path class="st31" d="M29.1,64.59c-0.38-1.2-1.07-2.39-0.05-3.61c0.95,0.68,2.12,0.79,3.25,1.24c-0.93,0.87-1.81,1.69-2.69,2.5
		C29.4,64.91,29.26,64.67,29.1,64.59z"/>
	<path class="st32" d="M34.64,62.86c1.04,0.26,1.94,0.49,2.84,0.7c0.48,0.11,0.57,0.38,0.31,0.77c-0.2,0.29-0.39,0.6-0.65,0.84
		c-1.05,0.96-1.43,0.85-1.87-0.49C35.1,64.13,34.89,63.59,34.64,62.86z"/>
	<path class="st33" d="M37.2,60.05c0.56,0.72,1.42,1.36,0.72,2.45c-0.87-0.25-1.74-0.5-2.81-0.8C35.9,61.07,36.55,60.56,37.2,60.05z
		"/>
	<path class="st34" d="M29.58,60.26c0.62-1.13,1.67-1.2,2.78-1.09c-0.02,0.62,0.38,1.12,0.52,1.79
		C31.68,61.09,30.7,60.3,29.58,60.26z"/>
	<path class="st35" d="M33.3,59.35c0.59-0.6,1.34-0.12,1.99-0.31c0.56,0.13,0.97,0.24,0.23,0.8C33.74,61.2,34.21,61.19,33.3,59.35z"
		/>
	<path class="st36" d="M37.91,55.36c-0.08,0.41-0.29,0.79-0.74,0.76c-0.36-0.02-0.67-0.33-0.58-0.75c0.08-0.38,0.24-0.81,0.75-0.79
		C37.77,54.61,37.91,54.94,37.91,55.36z"/>
	<path class="st37" d="M19.01,8.46c0.92,1.3,1.85,2.6,2.77,3.9c-0.75,0.65-1.63,1.13-2.4,1.76c-0.45,0.28-0.71,0.85-1.32,0.89
		c-0.66-1.06-1.32-2.12-1.98-3.18c0.09-0.63,0.37-1.15,0.82-1.59C17.58,9.62,18.3,9.05,19.01,8.46z"/>
	<path class="st37" d="M12.24,4.34c1.69-1.17,3.11-0.5,4.18,1c0.18,0.25,0.41,0.47,0.62,0.7c-0.47,0.64-1.17,1.07-1.55,1.79
		c-0.4,0.42-0.48,1.12-1.11,1.35C13.65,8.4,13.09,9,12.51,9.42c-0.7-0.95-0.28-2.04-0.37-3.06C12.14,5.69,12.23,5.02,12.24,4.34z"/>
	<path class="st38" d="M6.92,8.99C7.26,8.57,7.6,8.15,7.94,7.74c0.77-0.4,1.38-1,1.93-1.66c0.41,0.44,0.25,1.06,0.46,1.56
		c-0.02,1.1,0.97,1.88,0.96,2.97c-0.92,0.43-1.33,1.45-2.2,1.94c-1.1-0.17-1.45-1.14-2.02-1.88C6.99,10.11,6.28,9.61,6.92,8.99z"/>
	<path class="st39" d="M24.05,15.42c0.63,1.01,1.21,2.05,1.61,3.18c-0.65,0.7-1.62,0.73-2.41,1.14c-0.72,0.27-1.17,0.98-1.92,1.2
		c-0.39-0.73-0.77-1.45-1.16-2.18c0.09-0.87,0.75-1.31,1.32-1.84C22.29,16.34,23.08,15.72,24.05,15.42z"/>
	<path class="st40" d="M7.25,10.6c0.61,0.65,1.09,1.42,1.84,1.94C8.96,12.7,8.85,12.87,8.71,13c-2.23,2.07-3.28,1.81-4.46-1.05
		c-0.21-0.5-0.17-0.83,0.31-1.08C5.5,11.15,6.36,10.71,7.25,10.6z"/>
	<path class="st9" d="M21.61,23.26c-0.32-0.22-0.63-0.43-0.95-0.65c-0.13-0.55-0.34-1.08-0.26-1.66c0.31,0.15,0.63,0.26,0.99,0.22
		c0.81,0.3,1.4,1.19,2.43,0.89c1.16,0.15,2.22-0.27,3.28-0.64c0.42-0.05,0.64,0.3,0.95,0.48c0.12,0.8-0.4,1.03-1.03,1.18
		C25.23,23.51,23.43,23.72,21.61,23.26z"/>
	<path class="st41" d="M11.29,10.61c-0.6-0.87-1.19-1.74-1.22-2.85c0.43-1.26,1.05-1.71,2.4-1.71c0.02,1.12,0.03,2.24,0.05,3.36
		C12.58,10.31,11.81,10.33,11.29,10.61z"/>
	<path class="st42" d="M21.65,17.17c-0.65,0.39-1.02,1.04-1.48,1.6c-0.7-1.25-1.4-2.5-2.1-3.75c0.38-0.34,0.76-0.68,1.13-1.02
		C20.2,14.9,20.91,16.05,21.65,17.17z"/>
	<path class="st43" d="M14.38,9.19c0.3-0.5,0.6-1,0.9-1.49c1.06,0.61,1.35,1.72,1.79,2.73c-0.33,0.47-0.66,0.94-0.99,1.41
		C15.52,10.95,14.95,10.07,14.38,9.19z"/>
	<path class="st44" d="M23.76,22.38c-1.16,0.33-1.79-0.4-2.37-1.21c-0.02-0.08-0.04-0.16-0.06-0.24c0.36-0.73,1.1-1.01,1.72-1.43
		C23.76,20.35,23.82,21.35,23.76,22.38z"/>
	<path class="st45" d="M7.25,10.6c-0.84,0.61-1.7,1.08-2.68,0.26c0.64-0.6,1.28-1.2,1.92-1.8c0.15-0.03,0.29-0.05,0.44-0.08
		C6.67,9.6,7.37,10.02,7.25,10.6z"/>
	<path class="st46" d="M21.65,17.17c-1.14-0.81-1.79-1.99-2.45-3.18c0.78-0.68,1.5-1.43,2.58-1.62c0.76,1.02,1.51,2.04,2.27,3.05
		C23.46,16.29,22.32,16.4,21.65,17.17z"/>
	<path class="st47" d="M23.76,22.38c-0.55-0.88-0.43-1.93-0.72-2.88c0.87-0.3,1.75-0.6,2.62-0.91c0.5,0.93,1.16,1.78,1.44,2.83
		C26.2,22.5,25,22.49,23.76,22.38z"/>
	<path class="st48" d="M17.08,10.43c-0.87-0.73-1.09-1.89-1.79-2.73c0.49-0.65,0.86-1.43,1.76-1.65c0.6,0.85,1.19,1.71,1.97,2.41
		C18.76,9.5,17.67,9.72,17.08,10.43z"/>
	<path class="st49" d="M12.46,6.06c-0.99,0.3-1.82,0.83-2.4,1.71c-0.24-0.54-0.32-1.1-0.2-1.69c0.79-0.58,1.58-1.16,2.37-1.74
		C12.92,4.84,12.34,5.49,12.46,6.06z"/>
	<path class="st50" d="M21.61,23.26c1.78,0.18,3.52,0.07,5.27-0.35c0.65-0.16,0.98-0.43,1.16-1c0.02-0.08,0.03-0.16,0.03-0.24
		c0.11,0.08,0.23,0.16,0.34,0.24c-0.09,0.54-0.29,1.04-0.86,1.2C25.6,23.66,23.62,24.12,21.61,23.26z"/>
	<path class="st51" d="M47.22,36.32c0.72,1.64,0.52,3.3-0.07,4.9c-0.7,1.87-2.33,2.18-3.78,0.79c-0.23-0.22-0.45-0.44-0.68-0.67
		c-0.81-2.3-0.55-4.65-0.3-6.99c0.16-1.54,1.53-2.03,2.84-1.17C46.39,33.94,46.89,35.07,47.22,36.32z"/>
	<path class="st52" d="M35.29,41.41c-0.05,0.81,0.06,1.9-0.23,2.95c-0.25,0.93-0.84,1.21-1.72,0.89c-1.2-0.43-2.02-1.28-2.53-2.41
		c-0.81-1.77-1.11-3.65-1.03-5.59c0.02-0.46,0.07-0.98,0.63-0.98c0.61,0,0.58,0.56,0.57,0.99c-0.03,1.21,0.16,2.39,0.48,3.54
		c0.14,0.5,0.32,0.99,0.55,1.45c0.37,0.72,0.92,1.61,1.68,1.47c0.55-0.1,0.32-1.18,0.34-1.83c0.03-1.47,0.23-2.95-0.41-4.36
		c-0.18-0.39-0.21-0.97,0.27-1.17c0.5-0.2,0.6,0.4,0.8,0.7C35.49,38.34,35.31,39.76,35.29,41.41z"/>
	<path class="st53" d="M25.5,47.08c-0.21-0.28-0.35-0.58-0.32-0.94c0.2-0.22,0.39-0.39,0.72-0.21c1.03,0.57,1.63-0.04,1.96-0.86
		c0.85-2.17,0.99-2.96-1.46-3.94c-1.41-0.56-1.86-1.54-1.56-3.1c0.24-1.26,1.89-2.88,2.92-2.88c0.2,0,0.41,0.01,0.52,0.21
		c0.12,0.22-0.03,0.38-0.17,0.51c-0.48,0.48-1,0.92-1.46,1.42c-1.03,1.11-0.86,2,0.48,2.62c1.06,0.49,2.24,0.91,2.41,2.25
		c0.22,1.77-0.13,3.46-1.46,4.76C27.33,47.65,26.38,47.41,25.5,47.08z"/>
	<path class="st53" d="M41.35,42.78c-0.39,0.72-0.93,1.25-1.74,1.48c-1.83,0.16-2.72-1.26-3.01-2.93c-0.28-1.64-0.16-3.34,0.38-4.96
		c0.12-0.37,0.33-0.73,0.57-1.04c0.23-0.31,0.55-0.68,0.98-0.33c0.41,0.33,0,0.59-0.14,0.91c-0.83,1.89-0.99,3.86-0.34,5.81
		c0.45,1.35,1.29,1.55,2.54,0.83C40.93,42.35,41.37,41.81,41.35,42.78z"/>
	<path class="st54" d="M39.03,30.74c-0.46,0.97-0.9,1.95-1.37,2.91c-0.11,0.23-0.32,0.2-0.49,0.05c-1.05-0.88-2.01-1.82-2.21-3.28
		c-0.06-0.44,0.02-0.62,0.47-0.51c1.05,0.25,2.1,0.42,3.18,0.43C38.85,30.34,39.1,30.37,39.03,30.74z"/>
	<path class="st30" d="M40.8,30.94c0.21,0.3,0.33,0.45,0.44,0.61c1.07,1.69,0.73,2.42-1.24,2.74c-0.59,0.1-0.76-0.08-0.5-0.62
		C39.89,32.81,40.31,31.97,40.8,30.94z"/>
	<path class="st55" d="M27.1,56.21c-0.14,0.09-0.29,0.18-0.43,0.27c-0.97,0.12-1.28-0.28-1.26-1.28c0.03-1.5,0.23-3.01-0.21-4.49
		c0.99,0.57,0.66,1.66,0.89,2.5C26.38,54.24,26.66,55.25,27.1,56.21z"/>
	<path class="st24" d="M38.76,29.09c-1.05-0.08-2.06-0.16-3.07-0.25c-0.21-0.02-0.46-0.1-0.37-0.34c0.26-0.75,1.02-0.94,1.61-1.31
		c0.48-0.29,0.75-0.01,0.95,0.38C38.13,28.06,38.66,28.37,38.76,29.09z"/>
	<path class="st56" d="M42.23,30.94c0.65,0.07,1.23,0.04,1.81,0.41c-0.25,0.44-0.58,1.01-1.04,0.9
		C42.59,32.15,42.35,31.53,42.23,30.94z"/>
	<path class="st2" d="M23.29,65.34c0-2.57,0-5.13,0-7.68c1.83,1.04,3.74,1.16,5.52-0.48C27.1,60,25.32,62.76,23.29,65.34z"/>
	<path class="st57" d="M15.6,59.1c-0.32,0.34-0.64,0.69-0.95,1.03c-0.42-0.15-0.24-0.48-0.24-0.71c-0.02-2.63,0.02-5.27-0.03-7.9
		c-0.02-1.13,0.47-1.96,1.2-2.72C15.59,52.23,15.6,55.67,15.6,59.1z"/>
	<path class="st58" d="M43.17,36.12c0-0.36,0.01-0.71,0-1.07c-0.01-0.47,0.21-0.74,0.66-0.85c0.45-0.11,0.87-0.15,1.19,0.27
		c0.07,0.09,0.16,0.19,0.2,0.3c0.69,1.78,1.11,3.61,0.92,5.54c-0.07,0.7-0.36,1.25-1.14,1.29c-0.84,0.04-1.23-0.51-1.35-1.24
		c-0.23-1.41-0.4-2.82-0.6-4.24C43.09,36.12,43.13,36.12,43.17,36.12z"/>
</g>
</svg>
