<?xml version="1.0" encoding="utf-8"?>
<!-- Generator: Adobe Illustrator 23.0.2, SVG Export Plug-In . SVG Version: 6.00 Build 0)  -->
<svg version="1.1" id="Camada_1" xmlns="http://www.w3.org/2000/svg" xmlns:xlink="http://www.w3.org/1999/xlink" x="0px" y="0px"
	 viewBox="0 0 56.03 72.39" style="enable-background:new 0 0 56.03 72.39;" xml:space="preserve">
<style type="text/css">
	.st0{fill:#FEFEFE;}
	.st1{fill:#652A00;}
	.st2{fill:#58167C;}
	.st3{fill:#7E1613;}
	.st4{fill:#66197A;}
	.st5{fill:#722F01;}
	.st6{fill:#6A100E;}
	.st7{fill:#732E7E;}
	.st8{fill:#D88503;}
	.st9{fill:#CC570A;}
	.st10{fill:#FDF371;}
	.st11{fill:#B1570A;}
	.st12{fill:#CA520A;}
	.st13{fill:#CB550A;}
	.st14{fill:#D88603;}
	.st15{fill:#FC6500;}
	.st16{fill:#FCF171;}
	.st17{fill:#BD6305;}
	.st18{fill:#B58603;}
	.st19{fill:#B58604;}
	.st20{fill:#B85806;}
	.st21{fill:#AC4F09;}
	.st22{fill:#BF5E02;}
	.st23{fill:#F96201;}
	.st24{fill:#6B2C81;}
	.st25{fill:#7E347F;}
	.st26{fill:#DF9A03;}
	.st27{fill:#EA7CF3;}
	.st28{fill:#FC6000;}
	.st29{fill:#752F07;}
	.st30{fill:#B64044;}
	.st31{fill:#B44044;}
	.st32{fill:#AF4044;}
	.st33{fill:#B34044;}
	.st34{fill:#FDFBFB;}
	.st35{fill:#FBF4F4;}
	.st36{fill:#C0B4D2;}
	.st37{fill:#FDFBFC;}
	.st38{fill:#C1B4D2;}
	.st39{fill:#C0B2D0;}
	.st40{fill:#C0B1CE;}
	.st41{fill:#C0B4D1;}
	.st42{fill:#FBF9F9;}
	.st43{fill:#A43D40;}
	.st44{fill:#2C1418;}
	.st45{fill:#D98703;}
	.st46{fill:#A954BA;}
	.st47{fill:#FCFAFA;}
	.st48{fill:#FEFDFC;}
	.st49{fill:#FEFDFB;}
	.st50{fill:#FDFCFA;}
	.st51{fill:#E99804;}
	.st52{fill:#E980F2;}
	.st53{fill:#E176EB;}
	.st54{fill:#D98904;}
</style>
<g>
	<path class="st0" d="M15.92,18.25c-0.81-1.38-1.59-2.67-2.33-3.97c-0.35-0.61-0.63-0.24-0.92,0.02c-0.88,0.81-1.77,1.62-2.63,2.45
		c-1.94,1.87-4.1,1.59-6.33,0.67c-2.51-1.04-3.27-3.25-3.66-5.62c-0.23-1.36,0.5-2.49,1.7-3.03c1.72-0.78,3-2.09,4.4-3.25
		c1.85-1.53,3.62-3.14,5.45-4.68c1.28-1.08,3.28-1.12,4.92-0.05c3.3,2.16,5.84,5.06,7.92,8.37c1.59,2.53,3.11,5.11,4.39,7.82
		c0.3,0.64,0.64,0.86,1.36,0.83c4-0.13,8.01,0.03,11.99-0.17c2.23-0.11,3.93,0.69,5.72,1.62c1.87,0.97,3.7,2.06,5.64,2.89
		c2.42,1.05,2.79,2.76,2.34,4.53c-0.66,2.6-0.54,5.23-0.78,7.84c-0.31,3.3-0.43,6.62-0.61,9.93c-0.38,6.74-0.43,13.48-0.45,20.23
		c-0.01,3.66-1.51,4.91-4.67,5.34c-3.21,0.45-6.43,0.71-9.66,0.94c-2.08,0.15-4.13,0.46-6.13,1.01c-2.63,0.73-5.23,0.4-7.8-0.21
		c-1.02-0.24-2.05-0.24-3.06-0.5c-3.39-0.89-5.86-3.29-8.67-5.14c-1.2-0.79-2.25-1.8-3.44-2.59C9.44,62.75,9,61.71,8.99,60.38
		c-0.08-7.15-0.17-14.31-0.24-21.46c-0.05-5.28-0.07-10.56-0.1-15.83c-0.02-2.3,1.63-4.22,3.95-4.53
		C13.62,18.42,14.66,18.36,15.92,18.25z"/>
	<path d="M17.86,19.38c-1.2-2.3-2.47-4.41-3.75-6.51c-0.4-0.65-0.79-0.71-1.33-0.22c-1.18,1.07-2.4,2.11-3.54,3.23
		c-1.18,1.16-2.52,1.23-3.99,0.82c-2.44-0.69-3.82-2.4-4.04-4.89c-0.08-0.93,0.31-1.66,1.04-1.99c2.62-1.18,4.42-3.39,6.61-5.1
		c1.04-0.81,2-1.71,3.01-2.56c1.37-1.15,2.71-1.29,4.22-0.26c3.07,2.11,5.46,4.87,7.43,8.01c1.65,2.63,3.2,5.32,4.53,8.13
		c0.34,0.72,0.69,0.99,1.51,0.96c4.2-0.15,8.4-0.02,12.59-0.19c2.01-0.08,3.53,0.61,5.14,1.44c1.94,1,3.82,2.16,5.83,2.99
		c1.82,0.75,1.95,2.25,1.52,3.54c-0.45,1.34-0.43,2.66-0.53,3.98c-0.31,4.34-0.53,8.7-0.79,13.04c-0.41,6.98-0.53,13.96-0.48,20.94
		c0.02,2.65-1.03,3.72-3.52,4.05c-3.65,0.48-7.31,0.74-10.97,1.04c-1.86,0.15-3.69,0.57-5.5,1.04c-2.32,0.61-4.6,0.21-6.84-0.31
		c-1.02-0.24-2.06-0.2-3.06-0.5c-3.08-0.92-5.43-3.06-8.03-4.8c-1.26-0.84-2.39-1.88-3.63-2.74c-0.82-0.57-1.08-1.28-1.09-2.23
		c-0.07-7.27-0.17-14.55-0.24-21.82c-0.05-5.16-0.07-10.31-0.1-15.47c-0.01-1.71,1.23-3.12,2.98-3.29
		C14.44,19.58,16.07,19.51,17.86,19.38z"/>
	<path class="st1" d="M22.8,68.73c-2.17-0.56-3.75-2.18-5.62-3.27c-1.78-1.04-3.34-2.45-5.01-3.69c-0.63-0.47-0.87-1.03-0.86-1.84
		c0.02-5.76,0.14-11.52-0.07-17.28c-0.23-6.4-0.12-12.79-0.18-19.18c-0.01-1.43,0.63-2.26,2.09-2.53c2.16-0.4,4.37-0.18,6.55-0.42
		c0.41,0.45,1.27,0.67,0.81,1.57c-1.62,0.19-3.22,0.6-4.87,0.28c3.3,0.72,6.29,2.75,9.86,2.31c7.57-0.51,15.15-0.16,22.72-0.22
		c-0.07,0.15,0.07-0.15,0.12-0.01c0.02,0.05,0.18-0.04,0.18-0.04c-0.53-0.42-1.22-0.56-1.76-0.95c-2.12-1.56-4.52-1.72-7.05-1.72
		c-3.52,0-7.02,0.39-10.54,0.25c-0.21-0.01-0.4-0.06-0.59-0.15c-0.55-0.4-0.94-0.85-0.48-1.57c4.43-0.12,8.85-0.29,13.28-0.27
		c2.33,0.01,4.37,0.6,6.33,1.85c1.57,1,3.31,1.74,5.01,2.53c0.72,0.33,1.04,0.87,0.77,1.51c-0.73,1.75-0.33,3.61-0.65,5.39
		c-0.03,0.16-0.02,0.32-0.03,0.48c-0.31,0.35-0.61,0.92-1.11,0.69c-0.58-0.27-0.33-0.97-0.41-1.49c0.01-0.79-0.03-1.57,0.08-2.36
		c0.24-1.74,0.23-1.74-1.59-1.78c-7.74-0.36-15.48,0.24-23.22,0.06c-2.86-0.07-2.86,0.03-2.87,2.85c0,0.76,0.03,1.52-0.01,2.28
		c0.08,3.56-0.45,7.12-0.18,10.66c0.27,3.44,0.12,6.87,0.19,10.31c0.01,0.56,0.04,1.12-0.16,1.66c-0.43,0.68-0.99,0.96-1.77,0.56
		c-0.54-1.59-0.15-3.24-0.26-4.86c0.09-6.75,0.02-13.49,0.03-20.46c-0.53,0.59-0.84,1.12-1.15,1.64c-1.13,1.84-2.3,3.65-3.71,5.29
		c-0.34,0.4-0.66,0.83-0.66,1.38c0.02,2.67-0.24,5.34,0.18,8.01c0.08,4.77,0.05,9.54,0.01,14.3c-0.01,1.23,0.26,2.18,1.37,2.79
		c0.61,0.43,1.17,0.93,1.79,1.36c0.44,0.33,0.9,0.63,1.36,0.93c0.92,0.58,0.97,0.54,1.09-0.52c0.05-0.43-0.25-1.09,0.57-1.18
		C23.38,65.45,23.45,67.06,22.8,68.73z"/>
	<path class="st2" d="M22.8,68.73c0.01-1.28,0.02-2.55-0.18-3.82c-0.06-0.41-0.12-0.79-0.51-1.02c-0.6-0.75-0.46-1.68-0.55-2.52
		c-0.19-1.67-0.08-3.35-0.06-5.02c0.01-0.4,0.04-0.81,0.42-1.07c0.45-0.14,0.9-0.27,1.35-0.41c0.9,0.2,1.42,1.3,2.5,1.08
		c0.49-0.02,0.99,0.07,1.45-0.19c0.55-0.45,0.76-1.11,1.02-1.72c0.8-1.87,1.55-2,2.92-0.53c0.14,0.15,0.27,0.3,0.36,0.47
		c0.05,0.11,0.06,0.23,0.04,0.36c-0.23,0.53-0.68,0.85-1.11,1.18c-0.26,0.19-0.43,0.46-0.6,0.73c-1.27,2.03-2.99,2.68-5.32,1.98
		c-0.51-0.15-0.97-0.37-0.89,0.48c0.25,2.81,0.17,5.64,0.35,8.45c0.97,0.55,1.93,0.42,2.9,0c0.12-0.06,0.25-0.1,0.38-0.13
		c1.67-0.26,3.34,0.08,5.02-0.05c5.29-0.4,10.6-0.57,15.88-1.1c1.65-0.18,1.65-0.18,1.65-1.78c0-3.62,0.02-7.24-0.01-10.86
		c-0.01-1.48,0.11-2.94,0.35-4.39c0.39-0.68,0.65-1.53,1.69-1.46c-0.08,4.27-0.17,8.53-0.23,12.8c-0.02,1.59,0.03,3.18,0.01,4.77
		c-0.02,1.78-0.52,2.34-2.24,2.64c-3.74,0.64-7.52,0.81-11.29,1.09c-1.28,0.1-2.46,0.72-3.77,0.52c-2.23,0.26-4.48,0.03-6.71,0.21
		c-0.48,0.04-0.94,0.01-1.42-0.01C25.11,69.01,23.85,69.37,22.8,68.73z"/>
	<path class="st3" d="M28.09,20.28c-0.05,0.52,0.09,0.97,0.49,1.32c0.48,0.54,0.36,1.01-0.17,1.43c-0.93,0.74-1.95,1.25-3.19,1.14
		c-1.98,0.16-3.65-0.29-4.57-2.27c-0.24-0.52-0.92-0.72-0.95-1.38c-0.5-1.64-1.54-2.99-2.35-4.47c-0.75-1.36-1.58-2.68-2.42-3.98
		c-0.81-1.26-1.68-1.38-2.86-0.38c-1.15,0.98-2.25,2.03-3.35,3.06c-1.2,1.12-2.74,1.27-4.25,0.39c-1.28-0.74-2.12-2.51-1.82-3.84
		c0.2-0.89,1.18-0.67,1.67-1.16c0.25-0.12,0.41,0.02,0.56,0.2c0.04,0.1,0.05,0.21,0.02,0.32c-0.09,0.2-0.26,0.34-0.4,0.51
		c-0.33,1.18,0.2,2.19,1.51,2.9c0.51,0.4,0.93,0.25,1.31-0.2c0.55-0.51,1.06-1.07,1.64-1.55c0.72-0.82,1.47-1.62,2.45-2.15
		c0.64-0.23,1.06-0.68,1.27-1.33c1.06-0.77,1.23-0.76,2.12,0.13c0.67,0.78,1.22,1.63,1.79,2.48c0.65,1.04,1.27,2.11,1.92,3.15
		c0.63,1.2,1.35,2.34,1.94,3.56c0.54,0.8,0.88,1.7,1.42,2.5c0.73,1.58,1.97,1.98,3.57,1.55c1.58-0.25,1.86-0.84,1.05-2.29
		c-0.27-0.48-0.55-0.95-0.79-1.44c-0.52-1.05-0.99-2.12-1.61-3.11c-1-0.89-1.4-2.23-2.37-3.15c-1.1-1.12-1.63-2.64-2.66-3.82
		c-0.72-0.75-1.36-1.57-2-2.39c-0.92-1.12-1.71-2.4-3.39-2.46c-0.4-0.03-0.93,0.38-1.13-0.33c1.19-1.06,2.24-0.96,3.67,0.17
		c3.3,2.62,5.72,5.93,7.77,9.55c1.19,2.11,2.43,4.2,3.39,6.44C27.51,19.75,27.7,20.1,28.09,20.28z"/>
	<path class="st4" d="M51.85,47.37c-0.68,0.17-0.84,0.96-1.45,1.21c-0.24,0.29-0.54,0.47-0.91,0.5c-0.61,0.05-0.88,0.46-1.06,0.97
		c-0.57,1.02-1.42,1.81-2.27,2.59c-1.97,1.79-4.41,1.79-6.38-0.03c-0.5-0.46-0.83-0.55-1.17,0.11c-0.31,0.6-0.75,1.12-1.16,1.65
		c-0.19,0.22-0.41,0.42-0.65,0.6c-0.31,0.2-0.59,0.43-0.9,0.62c-1.27,0.91-2.71,0.84-4.14,0.65c-0.56-0.07-1.08-0.32-1.25-0.96
		c0.25-0.42,0.57-0.76,1.02-0.98c1.84,0.1,3.37-0.55,4.71-1.81c0.67-0.62,1.08-1.35,1.46-2.14c0.32-0.66,0.53-1.51,1.49-1.51
		c0.92,0,1.02,0.88,1.38,1.46c1.36,1.91,3.01,2.07,4.72,0.47c0.72-0.67,1.26-1.44,1.62-2.35c0.26-0.64,0.57-1.24,1.3-1.47
		c1.08,0.28,1.72-0.32,2.25-1.13c0.62-0.07,1.22-0.09,1.57,0.57C51.97,46.72,51.91,47.04,51.85,47.37z"/>
	<path class="st5" d="M52.03,46.39c-0.44-0.33-1.01-0.25-1.48-0.45c-0.39-0.16-0.34-0.5-0.34-0.81c0.04-2.42,0.21-4.84,0.4-7.25
		c0.14-1.82,0.23-3.64,0.41-5.46c0.05-0.53-0.1-1.15,0.56-1.44c0.03,0.43,0.05,0.86,0.08,1.3c0.5,0.06,0.66-0.58,1.14-0.5
		c-0.1,3.21-0.36,6.42-0.63,9.62C52.04,43.05,52.07,44.73,52.03,46.39z"/>
	<path class="st6" d="M4.83,10.41c-0.17-0.08-0.33-0.17-0.5-0.25c2.22-1.9,4.42-3.81,6.66-5.68c0.5-0.42,0.8-1.1,1.53-1.25
		c0.41,0.5,0.8-0.1,1.2-0.01c0.09,0.61-0.39,0.77-0.78,1c-0.94,0.55-1.8,1.22-2.68,1.87c-1.12,0.87-2,2-3.17,2.82
		C6.22,9.23,5.89,10.37,4.83,10.41z"/>
	<path class="st7" d="M26.21,69.39c2.69-0.63,5.41-0.58,8.12-0.2C31.65,70.16,28.94,70.13,26.21,69.39z"/>
	<path class="st8" d="M31.46,54.09c-0.27-0.22-0.56-0.43-0.81-0.67c-0.98-1-1.4-0.91-2.02,0.4c-0.36,0.76-0.48,1.67-1.26,2.19
		c-0.69-0.29-0.76-0.97-0.95-1.56c-0.43-1.4-0.6-2.86-0.98-4.27c-0.27-1.1-0.51-2.21-0.15-3.34c0.32-0.43,0.72-0.21,1.09-0.12
		c1.04,0.25,1.76-0.13,2.31-1.03c0.7-1.15,0.88-2.38,0.75-3.68c-0.09-0.92-0.72-1.44-1.49-1.71c-2.59-0.91-2.57-2.38-0.6-4.24
		c0.2-0.19,0.46-0.32,0.52-0.63c-1.13,0.16-2.32,1.38-2.53,2.6c-0.2,1.21,0.23,1.9,1.62,2.58c1.99,0.97,2.47,2.44,1.43,4.36
		c-0.28,0.52-0.66,0.99-1.27,0.95c-0.78-0.05-1.32,0.34-1.91,0.72c-0.52-0.6-0.45-1.36-0.53-2.05c-0.45-4.13-1.23-8.22-1.29-12.38
		c0-0.07-0.06-0.14-0.11-0.21c0-1.48,0.01-2.95-0.02-4.42c-0.02-0.66,0.21-0.86,0.89-0.92c2.87-0.24,5.74-0.11,8.6-0.17
		c3.98-0.09,7.97-0.13,11.95-0.18c1.75-0.02,3.51-0.03,5.25,0.18c0.18,0.23,0.3,0.49,0.26,0.77c-0.36,2.64-0.45,5.31-1,7.92
		c-0.4,0.64-0.92,1.13-1.72,1.21c-0.39-0.2-0.54-0.58-0.63-0.97c-0.19-0.78-0.68-1.34-1.24-1.86c-0.52-0.47-1.07-0.89-1.82-0.59
		c-0.73,0.29-0.93,0.96-0.98,1.65c-0.13,2.14-0.39,4.29,0.29,6.39c-0.23,0.84-0.9,1.11-1.65,1.27c-0.26,0.11-0.5,0.25-0.76,0.36
		c-1.36,0.55-2.37,0.13-2.82-1.27c-0.52-1.63-0.4-3.29,0.02-4.94c0.09-0.36,0.37-0.69,0.26-1.11c-0.26,0-0.36,0.2-0.44,0.36
		c-0.95,2.18-1.03,4.38-0.18,6.61c0.41,1.08,1.37,1.36,2.37,1.55c0.48,0.44,0.02,0.72-0.22,0.97c-2.62,2.77-5.04,5.72-7.42,8.69
		C32.09,53.77,31.84,54.04,31.46,54.09z"/>
	<path class="st9" d="M21.92,55.28c-0.07,2.88-0.04,5.75,0.19,8.62c-0.01,0.59-0.03,1.18-0.01,1.77c0.03,0.81-0.15,1.19-0.96,0.58
		c-0.63-0.47-1.27-0.91-1.91-1.36c-0.27-0.46-0.39-0.96-0.38-1.49c0-0.08-0.01-0.16,0-0.24c0.17-6.95-0.31-13.9-0.25-20.85
		c0.01-1.12,0.02-2.24,0.18-3.34c0.29-2.07,1.3-3.88,2.16-5.74c0.12-0.25,0.37-0.46,0.62-0.06c0.21,1.73-0.1,3.48,0.18,5.22
		c0.02,3.57,0,7.14,0.01,10.71c0,0.39-0.09,0.79,0.1,1.17C21.87,51.92,21.9,53.6,21.92,55.28z"/>
	<path class="st10" d="M48.97,35.37c0.34-2.96,0.67-5.92,1.01-8.89c0.12-0.02,0.23-0.06,0.35-0.07c1.65-0.09,1.64-0.09,1.48,1.57
		c-0.1,0.99-0.15,1.99-0.22,2.98c-0.19,2.17-0.41,4.34-0.55,6.52c-0.19,2.81-0.32,5.63-0.48,8.45c-0.41,1.14-1.11,1.67-2.33,1.16
		c-0.56-1.07-0.28-2.19-0.22-3.3c0.23-1.68,0.23-3.38,0.38-5.07C48.48,37.59,48.45,36.43,48.97,35.37z"/>
	<path class="st11" d="M21.84,50.25c-0.36-0.37-0.21-0.83-0.21-1.25c-0.01-3.59-0.01-7.17-0.02-10.76
		c-0.24-1.76-0.04-3.54-0.11-5.31c0-0.03,0.05-0.1,0.05-0.1c-0.16-0.09-0.1,0.17-0.23,0.14c-0.78,1.92-1.56,3.83-2.34,5.75
		c-0.15,1.38-0.91,2.57-1.24,3.9c-0.33,0.89-0.68,1.77-0.99,2.67c-0.14,0.42-0.24,0.96-0.9,0.88c-0.47-2.82-0.13-5.66-0.18-8.49
		c-0.01-0.69,0.73-1.01,1.12-1.5c1.63-2.03,2.9-4.3,4.35-6.44c0.16-0.24,0.19-0.63,0.7-0.68C21.84,36.14,21.84,43.19,21.84,50.25z"
		/>
	<path class="st12" d="M23.31,32c0.43,1.44,0.5,2.93,0.7,4.4c0.46,3.32,0.84,6.65,1.26,9.97c0.01,0.1,0.14,0.18,0.22,0.27
		l-0.01-0.01c-0.09,1.22,0.03,2.42,0.22,3.62c0.24,1.51,0.41,3.02,0.38,4.55c-0.01,0.51,0.01,1.03-0.38,1.44
		c-1.14,0.12-1.76-0.67-2.44-1.37c0.04-4.59-0.04-9.18-0.15-13.77C23.05,38.06,23.24,35.03,23.31,32z"/>
	<path class="st13" d="M15.85,46.17c0.9-0.83,0.79-2.13,1.41-3.09c0.1-0.16,0.18-0.35,0.26-0.52c0.41,0.36,0.37,0.86,0.4,1.33
		c0.23,3.66,0.29,7.32,0.25,10.99c-0.02,2.39,0.01,4.78-0.01,7.17c0,0.58,0.09,1.21-0.41,1.68c-1.41-0.48-1.97-1.35-1.94-2.94
		C15.93,55.92,15.85,51.04,15.85,46.17z"/>
	<path class="st14" d="M25.23,23.86c1.04,0.12,1.88-0.31,2.73-0.85c0.59-0.37,0.83-0.75,0.63-1.4c0.16,0.03,0.32,0.06,0.48,0.09
		c3.83,0.22,7.59,0.91,11.36,1.57c2.35,0.41,4.66,1.16,7.1,0.98c0.35-0.03,0.83-0.05,0.93,0.5c-5.27,0.02-10.54,0.03-15.81,0.08
		c-2.47,0.02-4.94,0.13-7.42,0.2C24.91,24.64,24.91,24.25,25.23,23.86z"/>
	<path class="st15" d="M17.75,63.73c0.01-5.35,0.1-10.7-0.02-16.04c-0.04-1.7-0.14-3.42-0.2-5.12c0.25-1.37,0.82-2.62,1.46-3.84
		c0.53,0.56-0.03,1.13-0.02,1.69c0.06,3.11-0.14,6.24,0.07,9.33c0.35,5.05,0.07,10.09,0.2,15.13
		C18.71,64.53,18.13,64.26,17.75,63.73z"/>
	<path class="st16" d="M48.46,24.75c-6.34-0.32-12.44-2.22-18.73-2.83c-0.22-0.02-0.44-0.14-0.66-0.22c4.71-0.1,9.41-0.2,14.12-0.29
		c0.27-0.01,0.58,0.02,0.81,0.14c1.85,0.99,3.69,2.01,5.85,3.2C49.17,24.75,48.82,24.75,48.46,24.75z"/>
	<path class="st17" d="M12.98,60.56c-0.37-0.32-0.21-0.74-0.22-1.12c-0.02-5.78-0.03-11.55-0.04-17.33
		c-0.23-0.98-0.06-1.98-0.09-2.96c-0.01-0.3-0.24-0.83,0.28-0.88c0.51-0.05,0.92,0.31,0.98,0.85c0.07,0.75,0.1,1.51-0.03,2.26
		c-0.15,0.9-0.58,1.74,0.34,2.62c0.38,0.36,0.05,1.3,0.09,1.97c0.05,0.79-0.14,1.58,0.11,2.36c0.01,3.57,0.02,7.14,0.03,10.71
		c0,0.39,0.01,0.8,0.08,1.18c0.07,0.39,0.32,0.92,0,1.11c-0.42,0.26-0.72-0.3-1.06-0.52c-0.23-1.62-0.06-3.25-0.1-4.99
		c-0.04,1.17-0.02,2.22-0.04,3.27C13.32,59.6,13.4,60.14,12.98,60.56z"/>
	<path class="st18" d="M16.83,33.93c-0.19,0.39-0.35,0.81-0.97,1.14c0.36-1.54,0.67-2.93,1.01-4.31c0.37-1.51,0.81-3,1.14-4.52
		c0.19-0.88,0.54-1.13,1.41-0.78c0.7,0.28,1.46,0.39,2.2,0.56c0.35,0.08,0.59,0.36,0.24,0.54c-0.79,0.42-0.87,1.32-1.44,1.86
		c-1.49,0-1.91,1.02-2.27,2.22C17.82,31.76,17.35,32.86,16.83,33.93z"/>
	<path class="st19" d="M25.23,23.86c0,0.39,0,0.78,0,1.17c-2.91,0.46-5.36-1.13-8-1.84c-0.71-0.19-1.39-0.52-2.06-0.96
		c1.83-0.11,3.66-0.22,5.49-0.33c0.11,0.04,0.27,0.05,0.32,0.13C21.93,23.73,23.52,23.93,25.23,23.86z"/>
	<path class="st20" d="M16.56,27.2c-0.55,2.26-1.11,4.52-1.66,6.78c-0.67-2.83-1.41-5.59-1.44-8.46c0.27-0.23,0.56-0.13,0.75,0.06
		C14.9,26.27,15.79,26.64,16.56,27.2z"/>
	<path class="st21" d="M14.41,48.33c-0.49-1.14-0.09-2.34-0.24-3.5c-0.04-0.32,0.41-1.08-0.62-0.73c-0.44,0.15-0.29-0.43-0.32-0.7
		c-0.15-1.28,0.6-2.45,0.5-3.75c-0.05-0.65-0.25-1.02-1-1.29c0,1.32,0,2.53,0,3.75c-0.38-0.5-0.19-1.08-0.2-1.62
		c-0.02-2.42-0.01-4.84,0.09-7.29c0.49,1.76,1.68,3.19,1.64,5.21C14.2,41.71,14.53,45.02,14.41,48.33z"/>
	<path class="st18" d="M16.56,27.2c-0.83-0.03-1.47-0.45-2.06-1c-0.31-0.29-0.54-0.69-1.04-0.69c-0.44-0.68-0.08-1.49-0.57-2.44
		c1.52,0.59,2.76,1.06,3.99,1.54c0.39,0.15,0.4,0.42,0.27,0.77C16.92,25.98,16.75,26.6,16.56,27.2z"/>
	<path class="st22" d="M16.83,33.93c0.29-1.85,1.22-3.49,1.72-5.27c0.12-0.41,0.43-0.52,0.84-0.41c0.34,0.09,0.69,0.11,1.04,0.16
		C19.26,30.27,18.17,32.18,16.83,33.93z"/>
	<path class="st23" d="M12.98,60.56c0.15-1.85-0.33-3.76,0.55-5.54c0.04,1.94,0.48,3.87-0.07,5.8
		C13.3,60.73,13.14,60.64,12.98,60.56z"/>
	<path class="st24" d="M37.22,54.3c0.16-0.27,0.28-0.59,0.5-0.81c0.58-0.56,0.68-1.74,1.38-1.82c0.47-0.05,1.03,0.95,1.6,1.43
		c1.18,0.98,3.79,0.69,5.18-0.61c0.84-0.79,1.59-1.66,2.38-2.49c0.45,0.45,0.36,1.03,0.38,1.58c0.09,1.92-0.28,3.84-0.16,5.74
		c0.16,2.4,0.12,4.79,0.15,7.18c0.01,0.55,0.07,1.13-0.38,1.58c-0.93,0.46-1.96,0.33-2.93,0.42c-3.16,0.29-6.35,0.35-9.52,0.54
		c-1.58,0.09-3.16,0.41-4.74,0.37c-1.38-0.04-2.77-0.13-4.16-0.14c-0.3-0.39-0.02-0.67,0.2-0.95c2.45-3.09,4.75-6.3,7.29-9.31
		c0.51-0.61,1.03-1.21,1.62-1.74c0.14-0.32,0.38-0.47,0.72-0.47c0.1,0.07,0.17,0.16,0.25,0.25c0.17,0.2,0.31,0.55,0.64,0.29
		c0.28-0.23,0.12-0.49-0.09-0.7C37.42,54.54,37.29,54.45,37.22,54.3z"/>
	<path class="st25" d="M36.02,55.28c-1.37,2.1-3.1,3.92-4.59,5.92c-1.51,2.03-3.01,4.06-4.52,6.09c0,0-0.04,0.04-0.04,0.04
		c-1.09,0.39-2.2,0.42-3.33,0.22c0.12-3.37-0.19-6.73-0.28-10.23c1,0.5,1.88,0.92,2.91,0.87c1.6-0.09,2.79-0.75,3.44-2.28
		c0.15-0.36,0.22-0.95,0.88-0.62C32.34,56.57,34.19,56.13,36.02,55.28z"/>
	<path class="st26" d="M48.97,35.37c-0.16,2.82-0.31,5.64-0.68,8.44c-0.29-0.13-0.19-0.51-0.5-0.74c-1.85,1.95-3.87,3.74-5.64,5.79
		c-0.52,0.61-0.91,1.4-1.79,1.62c-0.5-0.4-0.32-1.48-1.23-1.41c-0.89,0.07-0.9,1-1.22,1.6c-1.08,2.05-2.61,3.52-5,3.89
		c-0.49,0.08-0.94-0.08-1.38-0.25c-0.02-0.07-0.04-0.14-0.06-0.21c2.74-3.49,5.62-6.87,8.63-10.14c0.31-0.81,1.19-1.23,1.42-2.09
		c0.74,0.26,0.99-0.47,1.47-0.73c0.55-0.13,0.74,0.37,1.08,0.61c1.12,0.83,2.23,0.59,2.89-0.64c0.47-0.87,0.52-1.81,0.54-2.78
		c0.01-0.66-0.2-1.35,0.09-2C48.04,36.01,48.5,35.69,48.97,35.37z"/>
	<path class="st27" d="M48.26,66.09c-0.02-2.07,0.03-4.13-0.08-6.2c-0.17-3.3,0.14-6.59,0.07-9.89c-0.06-1.63,1.36-1.05,2.14-1.43
		c-0.29,5.33-0.24,10.66-0.17,15.99C50.26,66.27,50.14,66.37,48.26,66.09z"/>
	<path class="st28" d="M25.71,56.24c0-2,0-4-0.01-5.99c0.54,1.2,0.55,2.52,0.94,3.76c0.21,0.68,0.41,1.36,0.73,2
		C26.87,56.43,26.28,56.26,25.71,56.24z"/>
	<path class="st29" d="M23.55,67.54c1.11-0.07,2.22-0.15,3.33-0.22c0.01,0.3-0.15,0.46-0.43,0.43
		C25.48,67.66,24.48,68.07,23.55,67.54z"/>
	<path class="st30" d="M18.3,14.76c-0.65-1.05-1.3-2.1-1.95-3.15c0.07-0.63,0.37-1.14,0.81-1.58c0.64-0.66,1.37-1.22,2.09-1.78
		c1.06,1.13,1.58,2.63,2.58,3.8c-0.55,0.84-1.58,1.1-2.21,1.84C19.2,14.2,18.95,14.79,18.3,14.76z"/>
	<path class="st31" d="M12.72,3.98c0.53,0,0.79-0.35,1.01-0.76c1.75,0.1,2.57,1.49,3.58,2.61c-0.53,0.73-1.34,1.22-1.78,2.03
		c-0.34,0.41-0.38,1.02-0.87,1.34c-0.52-0.92-1.17-0.71-1.86-0.21c-0.76-0.93-0.31-2.03-0.41-3.05C12.36,5.26,12.34,4.58,12.72,3.98
		z"/>
	<path class="st32" d="M7,8.72c1.03-0.96,2.06-1.92,3.09-2.88c0.47,0.43,0.25,1.06,0.45,1.57c0.07,1.08,0.94,1.89,1.04,2.96
		c-0.94,0.58-1.74,1.32-2.43,2.19c-0.78-0.6-1.39-1.34-1.88-2.19C7.16,9.83,6.61,9.35,7,8.72z"/>
	<path class="st33" d="M21.57,20.73c-0.46-0.8-0.91-1.6-1.37-2.4c0.42-0.64,0.9-1.22,1.55-1.65c0.75-0.67,1.58-1.2,2.55-1.48
		c0.66,0.99,1.15,2.07,1.62,3.16c-0.74,0.57-1.62,0.82-2.49,1.11C22.71,19.74,22.25,20.39,21.57,20.73z"/>
	<path class="st34" d="M24.3,15.2c-0.65,0.8-1.75,0.95-2.44,1.7c-1.51-0.51-2.01-1.81-2.43-3.16c0.68-0.74,1.51-1.27,2.41-1.69
		C23,12.84,23.22,14.36,24.3,15.2z"/>
	<path class="st35" d="M23.28,19.26c0.87-0.33,1.7-0.77,2.64-0.89c0.41,1.07,1.39,1.86,1.29,3.22c-0.05,0.71-0.22,0.83-0.78,0.84
		c-0.32,0.01-0.63,0.01-0.95,0.02C23.65,22.63,22.83,21.45,23.28,19.26z"/>
	<path class="st36" d="M7.48,10.38c0.51,0.76,1.41,1.23,1.68,2.18c-0.57,0.5-1.14,1-1.71,1.5c-0.38,0.14-0.69,0.57-1.18,0.28
		C5.44,13.78,4.85,13,4.41,12.11c-0.19-0.38-0.36-0.8-0.06-1.21c0.14-0.1,0.29-0.2,0.43-0.3C5.72,11.01,6.56,10.26,7.48,10.38z"/>
	<path class="st37" d="M15.36,7.74c0.48-0.8,0.88-1.7,1.94-1.91c0.58,0.87,1.21,1.69,1.96,2.42c-0.32,0.98-1.37,1.23-1.97,1.93
		C16.14,9.76,16.01,8.55,15.36,7.74z"/>
	<path class="st38" d="M11.58,10.37c-0.7-0.81-1.21-1.7-1.26-2.79c0.4-1.25,1.03-1.71,2.38-1.72c0.04,1.04,0.07,2.09,0.11,3.13
		C12.9,9.89,12.19,10.08,11.58,10.37z"/>
	<path class="st39" d="M19.43,13.74c0.75,1.1,1.27,2.37,2.43,3.16c-0.73,0.27-0.83,1.27-1.66,1.43c-0.63-1.19-1.26-2.38-1.89-3.58
		C18.68,14.42,19.05,14.08,19.43,13.74z"/>
	<path class="st40" d="M23.28,19.26c0.12,0.5,0.24,0.99,0.27,1.51c0.06,1.13,0.64,1.6,1.94,1.68c-2.08,0.54-2.49,0.36-3.92-1.72
		C21.83,19.88,22.64,19.67,23.28,19.26z"/>
	<path class="st41" d="M15.36,7.74c1.1,0.46,1.05,1.82,1.93,2.44c-0.31,0.48-0.62,0.95-0.93,1.43c-0.56-0.8-1.13-1.61-1.69-2.41
		C14.75,8.64,14.9,8.11,15.36,7.74z"/>
	<path class="st42" d="M7.48,10.38c-0.87,0.35-1.71,1.21-2.69,0.22c0.02-0.06,0.03-0.13,0.04-0.2C5.61,9.92,6.1,9.06,7,8.72
		C7,9.32,7.57,9.76,7.48,10.38z"/>
	<path class="st43" d="M4.36,10.9c0.09,1.44,1.19,2.27,1.98,3.28c-0.06,0.14-0.16,0.17-0.29,0.1C4.5,13.92,3.59,12.08,4.36,10.9z"/>
	<path class="st44" d="M6.04,14.28c0.1-0.03,0.2-0.07,0.29-0.1c0.39,0.17,0.73-0.2,1.11-0.12C7.05,14.6,6.65,15.14,6.04,14.28z"/>
	<path class="st45" d="M40.35,50.48c2.35-2.87,5.05-5.39,7.73-8.08c0.31,0.49,0.11,0.98,0.21,1.41c-0.03,1.1-0.05,2.19-0.08,3.29
		c-0.65,0.3-0.82,0.93-1.06,1.52c-0.63,1.53-1.59,2.79-3.2,3.35C42.39,52.53,41.34,52.04,40.35,50.48z"/>
	<path class="st46" d="M37.22,54.3c0.54,0,0.96,0.16,0.94,0.8c-0.01,0.41-0.25,0.77-0.61,0.78c-0.68,0.02-0.79-0.53-0.81-1.08
		C36.9,54.64,37.06,54.47,37.22,54.3z"/>
	<path class="st47" d="M12.69,5.85c-0.99,0.3-1.8,0.84-2.38,1.72c-0.28-0.55-0.31-1.13-0.23-1.73c0.88-0.62,1.75-1.24,2.63-1.87
		C12.71,4.6,12.7,5.23,12.69,5.85z"/>
	<path class="st48" d="M47.57,36.33c0.48,1.54,0.39,3.08-0.18,4.57c-0.76,1.99-2.45,2.29-3.91,0.74c-0.16-0.17-0.34-0.34-0.5-0.5
		c-1-2.36-0.57-4.81-0.34-7.22c0.12-1.24,1.47-1.8,2.56-1.14c0.94,0.56,1.71,1.3,1.98,2.45C47.26,35.6,47.25,36.03,47.57,36.33z"/>
	<path class="st48" d="M35.53,40.49c-0.02,1.38,0.02,2.42-0.2,3.44c-0.25,1.12-0.85,1.46-1.93,1.02c-1.17-0.48-1.96-1.37-2.44-2.51
		c-0.74-1.75-1.05-3.59-0.96-5.49c0.02-0.47,0.12-0.99,0.65-0.97c0.56,0.02,0.58,0.57,0.56,1.02c-0.05,1.25,0.15,2.47,0.5,3.66
		c0.14,0.49,0.33,0.99,0.58,1.44c0.37,0.66,0.88,1.51,1.63,1.35c0.51-0.11,0.3-1.12,0.32-1.72c0.07-1.51,0.25-3.03-0.43-4.48
		c-0.2-0.43-0.15-0.97,0.29-1.16c0.51-0.22,0.59,0.4,0.78,0.69C35.7,38.01,35.58,39.43,35.53,40.49z"/>
	<path class="st49" d="M25.49,46.63c-0.15-0.8-0.03-1.24,0.97-0.92c0.78,0.25,1.38-0.11,1.7-0.9c0.74-1.87,0.9-3.24-1.38-3.96
		c-1.53-0.48-1.95-1.44-1.73-2.99c0.17-1.22,1.74-2.86,2.83-2.97c0.24-0.02,0.5-0.06,0.65,0.18c0.16,0.27-0.07,0.44-0.24,0.6
		c-0.54,0.53-1.14,1.02-1.61,1.6c-0.77,0.94-0.6,1.92,0.55,2.27c3.31,1.01,3,3.75,1.89,5.99c-0.85,1.73-1.86,1.99-3.62,1.06
		C25.48,46.62,25.49,46.63,25.49,46.63z"/>
	<path class="st50" d="M41.52,41.87c0.2,1.16-0.67,1.58-1.42,2.09c-1.88,0.06-2.99-0.82-3.28-2.86c-0.23-1.62-0.18-3.27,0.34-4.85
		c0.15-0.44,0.4-0.87,0.67-1.25c0.21-0.3,0.54-0.55,0.92-0.28c0.43,0.32,0.06,0.58-0.1,0.9c-0.91,1.88-0.95,3.87-0.38,5.81
		c0.4,1.36,1.4,1.57,2.63,0.8C41.1,42.09,41.31,41.98,41.52,41.87z"/>
	<path class="st51" d="M21.32,32.97c0.04-0.3,0.07-0.61,0.11-0.91c0.06,0,0.12,0,0.18,0c0,2.06,0,4.12,0,6.18
		c-0.49-1.22-0.12-2.49-0.23-3.73C21.34,34,21.34,33.48,21.32,32.97z"/>
	<path class="st52" d="M44.73,57.55c0.01,1.54-0.69,2.26-2.23,2.27c-1.33,0.01-2.13-0.8-2.13-2.15c0-1.52,1.04-2.6,2.5-2.6
		C44.16,55.08,44.72,55.82,44.73,57.55z"/>
	<path class="st53" d="M34.3,61.83c-0.07,0.58-0.37,1.1-0.95,1c-0.64-0.11-1.15-0.66-1.11-1.35c0.03-0.53,0.25-1.15,0.98-1.12
		C34.15,60.38,34.13,61.18,34.3,61.83z"/>
	<path class="st54" d="M46.47,39.07c-0.06,0.5-0.08,0.91-0.17,1.29c-0.12,0.56-0.48,0.92-1.07,0.98c-0.59,0.06-1.07-0.25-1.21-0.79
		c-0.49-1.97-0.86-3.97-0.61-6.02c0.06-0.53,0.49-0.56,0.88-0.64c0.63-0.13,0.97,0.24,1.21,0.74C46.2,36.07,46.12,37.67,46.47,39.07
		z"/>
</g>
</svg>
