<?xml version="1.0" encoding="utf-8"?>
<!-- Generator: Adobe Illustrator 23.0.2, SVG Export Plug-In . SVG Version: 6.00 Build 0)  -->
<svg version="1.1" id="Camada_1" xmlns="http://www.w3.org/2000/svg" xmlns:xlink="http://www.w3.org/1999/xlink" x="0px" y="0px"
	 viewBox="0 0 56.44 72.77" style="enable-background:new 0 0 56.44 72.77;" xml:space="preserve">
<style type="text/css">
	.st0{fill:#6E2633;}
	.st1{fill:#7A0E46;}
	.st2{fill:#90313A;}
	.st3{fill:#8F313A;}
	.st4{fill:#872765;}
	.st5{fill:#892567;}
	.st6{fill:#6E2533;}
	.st7{fill:#7A2356;}
	.st8{fill:#7C2457;}
	.st9{fill:#6B2533;}
	.st10{fill:#761045;}
	.st11{fill:#6B2432;}
	.st12{fill:#852762;}
	.st13{fill:#772253;}
	.st14{fill:#D72B86;}
	.st15{fill:#CC378D;}
	.st16{fill:#FD7AB1;}
	.st17{fill:#C8368B;}
	.st18{fill:#B43183;}
	.st19{fill:#BB2E84;}
	.st20{fill:#FD7CB5;}
	.st21{fill:#7A0F46;}
	.st22{fill:#B63363;}
	.st23{fill:#BA2E86;}
	.st24{fill:#7B2455;}
	.st25{fill:#FBF7F4;}
	.st26{fill:#B73266;}
	.st27{fill:#C12B88;}
	.st28{fill:#D5BACD;}
	.st29{fill:#9E2559;}
	.st30{fill:#892367;}
	.st31{fill:#F084C4;}
	.st32{fill:#92323A;}
	.st33{fill:#C1504C;}
	.st34{fill:#C14F4C;}
	.st35{fill:#BE4C4A;}
	.st36{fill:#C04F4C;}
	.st37{fill:#D7BBD1;}
	.st38{fill:#D7BCD2;}
	.st39{fill:#D5BACF;}
	.st40{fill:#D7BBD2;}
	.st41{fill:#FCFAF9;}
	.st42{fill:#B94749;}
	.st43{fill:#FDFBFA;}
	.st44{fill:#FEFDFC;}
	.st45{fill:#FCF9F9;}
	.st46{fill:#60292D;}
	.st47{fill:#461C20;}
	.st48{fill:#953D76;}
	.st49{fill:#953E76;}
	.st50{fill:#CC378E;}
	.st51{fill:#FA465D;}
	.st52{fill:#C9368F;}
	.st53{fill:#F04365;}
	.st54{fill:#DD2F79;}
	.st55{fill:#882466;}
	.st56{fill:#FEFCFD;}
	.st57{fill:#FEFBFC;}
	.st58{fill:#FEFCFC;}
	.st59{fill:#F74561;}
	.st60{fill:#FB465B;}
	.st61{fill:#F8417C;}
	.st62{fill:#F9417C;}
	.st63{fill:#328719;}
	.st64{fill:#7A0F47;}
	.st65{fill:#790F46;}
	.st66{fill:#EF82C1;}
	.st67{fill:#7D0F4A;}
	.st68{fill:#882266;}
	.st69{fill:#F194D2;}
	.st70{fill:#963D77;}
	.st71{fill:#C4528B;}
	.st72{fill:#D92C83;}
	.st73{fill:#D82B87;}
	.st74{fill:#99185C;}
	.st75{fill:#328619;}
	.st76{fill:#B01F6B;}
	.st77{fill:#AD1E69;}
	.st78{fill:#97185A;}
	.st79{fill:#83124D;}
	.st80{fill:#8C1453;}
	.st81{fill:#780E45;}
	.st82{fill:#AD1D69;}
</style>
<g>
	<path d="M18.03,19.89c-1.18-2.35-2.52-4.51-3.85-6.68c-0.39-0.63-0.75-0.44-1.14-0.09c-1.22,1.09-2.55,2.09-3.61,3.32
		c-1.65,1.92-6.32,0.81-7.3-1.78c-0.26-0.7-0.48-1.43-0.65-2.16c-0.21-0.91,0.08-1.8,0.91-2.15C4.62,9.4,6.19,7.61,8,6.14
		c1.42-1.16,2.79-2.39,4.18-3.58c1.54-1.32,2.22-1.4,3.97-0.22c3.06,2.06,5.45,4.76,7.4,7.87c1.73,2.77,3.39,5.58,4.76,8.54
		c0.29,0.62,0.62,0.74,1.26,0.74c4.24-0.04,8.49,0.17,12.71-0.13c2.07-0.15,3.6,0.64,5.24,1.46c2.02,1.02,4.02,2.09,6.03,3.12
		c1.39,0.71,1.97,2.27,1.22,3.66c-0.24,0.45-0.34,0.88-0.37,1.35c-0.32,5.26-0.67,10.53-0.94,15.8c-0.35,6.81-0.51,13.63-0.42,20.46
		c0.04,2.71-1.03,3.77-3.34,4.11c-3.6,0.52-7.23,0.71-10.85,1.06c-3.7,0.36-7.45,0.02-11.12,0.48c-2.24,0.28-4.3,0.05-6.24-0.82
		c-1.61-0.72-3.05-1.83-4.5-2.86c-1.95-1.39-3.84-2.87-5.77-4.29c-0.65-0.48-0.87-1.09-0.86-1.86c0.09-12.11-0.46-24.22-0.31-36.34
		c0-0.28,0.01-0.56,0-0.84c-0.05-1.97,1.3-3.51,3.26-3.66C14.83,20.06,16.35,19.99,18.03,19.89z"/>
	<path class="st0" d="M11.54,48.74C11.3,43,11.37,37.26,11.22,31.52c-0.07-2.51,0.08-5.01,0.06-7.51c-0.01-1.67,0.87-2.55,2.59-2.65
		c1.83-0.11,3.65-0.27,5.47-0.41c0.24-0.02,0.49-0.02,0.61-0.29c0.61,0.08,1.12,0.5,1.75,0.52c1.12,0.93,2.28,1.75,3.86,1.21
		c0.57-0.21,1.16-0.38,1.68-0.7c0.47-0.17,0.88-0.38,0.85-0.98c4.59-0.02,9.2,0.1,13.78-0.13c2.27-0.11,4.04,0.65,5.88,1.72
		c1.62,0.94,3.33,1.74,5.02,2.55c0.99,0.48,1.19,1.06,0.74,2.09c-0.47,1.09-0.28,2.34-0.42,3.52c-0.15,1.22,0.18,2.47-0.24,3.67
		c-0.13-0.81-0.88-0.87-1.42-1.17c-0.33-1.35,0.11-2.68,0.17-4.01c0.08-1.67,0.16-1.67-1.59-1.7c-5.68,0.07-11.36,0.02-17.04,0.03
		c-2.6,0.01-5.19,0.39-7.79,0.25c-0.92-0.05-1.31,0.39-1.27,1.29c0.02,0.4-0.02,0.8-0.1,1.19c-0.36,1.46-0.18,2.95-0.16,4.42
		c0.05,5.19,0.01,10.39,0.03,15.58c0,1.16,0,2.32,0.18,3.47c0.09,0.59,0.11,1.2-0.1,1.78c-0.45,0.57-1,0.87-1.74,0.65
		c-0.34-0.52-0.26-1.12-0.27-1.69c0.02-7.85,0.03-15.7-0.01-23.65c-0.38,0.12-0.46,0.44-0.65,0.64c-1.5,2.15-2.74,4.49-4.54,6.43
		c-0.41,0.45-0.35,1.03-0.38,1.59c-0.05,0.99,0.17,1.99-0.22,2.96c-0.12,0.21-0.28,0.39-0.42,0.58c-0.23,0.3-0.39,0.82-0.85,0.64
		c-0.4-0.16-0.32-0.68-0.35-1.07c-0.08-1.3,0.15-2.61-0.16-3.9c0.02-1.46-1.11-2.58-1.21-4.01c0.21,2.78,0.07,5.57,0.12,8.35
		c-0.04,1.12,0.05,2.24-0.04,3.35C12.96,47.22,12.67,48.24,11.54,48.74z"/>
	<path class="st1" d="M52.07,47.55c-0.26,4.42-0.22,8.85-0.24,13.27c-0.01,1.55,0.04,3.11,0.01,4.66c-0.03,1.59-0.69,2.46-2.18,2.63
		c-5.33,0.61-10.67,1.21-16.05,1.29c-0.08,0-0.16-0.02-0.24-0.02c0.1-1.2,0.56-1.79,1.61-1.98c0.31-0.06,0.62-0.11,0.93-0.2
		c0.62-0.11,1.25-0.1,1.88-0.09c3.06-0.08,6.1-0.43,9.16-0.63c0.51-0.03,1.03-0.13,1.54-0.1c1.44-0.18,1.54-0.26,1.54-1.69
		c0.01-4.31,0-8.62,0.01-12.93c0-0.84,0.01-1.68,0.3-2.48C50.78,48.57,51.12,47.76,52.07,47.55z"/>
	<path class="st2" d="M21.7,21.35c-0.72,0.12-1.36,0.03-1.76-0.69c-1.68-2.62-3-5.45-4.77-8.01c-0.96-1.39-1.54-1.54-2.9-0.45
		c-1.14,0.93-2.19,1.97-3.28,2.97c-1.29,1.19-2.7,1.37-4.23,0.54c-1.41-0.76-2.14-2.22-1.91-3.8c0.04-0.29,0.1-0.51,0.41-0.66
		c0.6-0.29,1.18-0.65,1.77-0.97c0.16,0.04,0.27,0.14,0.34,0.3C5.4,10.82,5.3,11,5.17,11.17c-0.16,0.2-0.34,0.38-0.44,0.62
		c-0.12,1.46,0.37,2.23,1.71,2.67c0.77,0.17,1.22-0.37,1.72-0.79c0.35-0.3,0.66-0.65,1.05-0.92c0.88-0.63,1.45-1.62,2.45-2.11
		c0.58-0.29,1.04-0.7,1.26-1.33c0.75-0.67,1.46-0.62,2.11,0.15c0.64,0.72,1.14,1.54,1.62,2.37c0.73,1.05,1.37,2.17,2.08,3.23
		c0.65,1.25,1.3,2.49,1.98,3.72c0.38,0.68,0.86,1.31,1.09,2.07C21.83,21.04,21.81,21.2,21.7,21.35z"/>
	<path class="st3" d="M5.28,10.59c-0.08-0.1-0.17-0.19-0.25-0.29c2.72-2.34,5.42-4.7,8.16-7.02c0.92-0.78,1.87-0.27,2.62,0.27
		c2.59,1.85,4.76,4.13,6.42,6.85c1.9,3.11,3.85,6.19,5.36,9.52c0.13,0.28,0.33,0.53,0.5,0.8c0.69,0.92-0.12,0.96-0.68,1.16
		c-0.58-0.99-1.07-2.04-1.68-3.02c-0.21-1.06-0.88-1.89-1.39-2.8c-0.18-0.27-0.41-0.51-0.42-0.85c0.02-0.71-0.42-1.1-0.99-1.4
		c-0.37-0.24-0.55-0.61-0.71-0.99c-0.13-0.57-0.47-0.97-1.02-1.19c-0.8-0.75-1.18-1.8-1.92-2.59c-0.87-0.78-1.45-1.78-2.19-2.66
		c-0.46-0.44-0.73-1.04-1.23-1.42c-0.88-0.67-1.82-0.88-2.78-0.11c-1.04,0.56-2.09,1.09-2.9,1.98C9.14,7.55,8.42,8.64,7.34,9.32
		C6.59,9.64,6.19,10.52,5.28,10.59z"/>
	<path class="st4" d="M52.07,47.55c-0.59,0.4-0.76,1.21-1.49,1.46c-0.19,0.28-0.47,0.44-0.8,0.46c-0.68,0.04-0.95,0.49-1.13,1.06
		c-0.69,1.12-1.46,2.15-2.56,2.92c-1.22,0.85-2.51,1.1-3.94,0.73c-0.46-0.84,0.52-1.12,0.67-1.73c2.25-0.24,3.45-1.74,4.3-3.63
		c0.33-0.74,0.73-1.32,1.63-1.35c1.31-0.18,1.51-0.38,1.6-1.62c0.04-0.5-0.1-1.06,0.36-1.46c0.13-0.04,0.23-0.01,0.31,0.1
		c0.04,1,0.64,1.76,1.1,2.58C52.1,47.24,52.09,47.39,52.07,47.55z"/>
	<path class="st5" d="M35.78,67.47c-1.18,0.16-2,0.78-2.4,1.92c-0.47,0.01-0.94,0.02-1.42,0.03c-0.72,0.13-1.48,0.41-1.2-0.91
		c0.14-0.66-0.51-0.44-0.85-0.4c-0.98,0.11-1.96,0.33-2.93-0.02c-0.3-0.24-0.14-0.52,0.01-0.72c0.63-0.82,1.07-1.83,2.13-2.25
		c0.81,0.03,1.29,0.71,1.96,1.02c1.17,0.56,2.37,1.08,3.72,1.02C35.15,67.15,35.52,67.16,35.78,67.47z"/>
	<path class="st6" d="M23.29,69.34c-2.1-0.23-3.33-2.03-5.12-2.83c-0.6-0.27-1.1-0.77-1.64-1.16c0.2-0.58,0.5-1.05,1.14-1.2
		c0.12,0,0.23,0.01,0.34,0.04c0.59,0.22,1.02,0.69,1.56,0.99c0.39,0.27,0.77,0.55,1.17,0.8c0.33,0.2,0.62,0.66,1.01,0.5
		c0.5-0.21,0.19-0.77,0.27-1.17c0.05-0.38-0.01-0.94,0.47-0.95c0.52-0.01,0.58,0.55,0.64,0.99c0.05,0.35,0.02,0.71,0.11,1.05
		C23.07,67.38,23.34,68.36,23.29,69.34z"/>
	<path class="st7" d="M11.54,48.74c1.22-1.31,1.31-2.91,1.2-4.58c-0.03-0.48,0.01-0.96,0.02-1.44c0.59,0.13,0.56,0.64,0.57,1.04
		c0.02,3.45,0.13,6.91-0.05,10.36c-0.49,0.89-0.61,2.03-1.7,2.52C11.56,54.01,11.55,51.38,11.54,48.74z"/>
	<path class="st8" d="M17.8,64.33c-0.63,0.07-0.7,0.86-1.26,1.02c-1.11-0.71-2.14-1.52-3.12-2.39c-0.18-0.65,0.3-0.99,0.66-1.39
		c0.42-0.52,0.21-1.13,0.26-1.7c0.06-0.65-0.13-1.34,0.24-1.95c0.59-0.2,0.53,0.3,0.59,0.59c0.1,0.48,0.04,0.98-0.01,1.47
		c0.17-0.51,0.32-1,1.03-0.87c0.39,0.66,0.25,1.38,0.23,2.07c-0.03,0.99,0.08,1.88,1.01,2.47C17.64,63.79,17.85,64.01,17.8,64.33z"
		/>
	<path class="st9" d="M14.16,61.73c-0.25,0.41-0.5,0.81-0.75,1.22c-1.39-0.63-2.13-1.59-1.9-3.23c0.14-1.01,0.04-2.05,0.05-3.08
		c0.61-0.62,0.71-1.56,1.38-2.13c0.42,0.36,0.35,0.85,0.35,1.32c0.02,1.34,0.01,2.68,0,4.01c0.01,0.4-0.04,0.81,0.25,1.15
		C13.76,61.24,14.11,61.37,14.16,61.73z"/>
	<path class="st10" d="M26.9,67.92c1.1,0.08,2.18-0.02,3.28-0.18c1.25-0.18,1.32-0.04,0.84,1.09c-0.06,0.14-0.09,0.29-0.14,0.5
		c0.39,0.03,0.74,0.06,1.09,0.09c-0.32,0.24-0.69,0.17-1.04,0.17c-2.17,0.02-4.33,0.03-6.5,0.03c-0.31,0-0.65,0.05-0.89-0.23
		c1-0.41,2.16-0.53,2.84-1.52C26.56,67.79,26.74,67.79,26.9,67.92z"/>
	<path class="st7" d="M51.63,33.13c0.14-0.06,0.3-0.09,0.41-0.18c0.19-0.16,0.27-0.54,0.62-0.37c0.24,0.12,0.15,0.41,0.16,0.63
		c0.02,0.31,0.02,0.62,0.03,0.93c0.01,1.59-0.06,3.19-0.29,4.77c-0.22,0.42-0.44,0.85-0.88,1.11c-0.32,0.19-0.59,0.24-0.76-0.18
		c-0.3-1.98,0.15-3.92,0.28-5.88C51.21,33.64,51.35,33.33,51.63,33.13z"/>
	<path class="st11" d="M51.14,40.11c0.47-0.4,0.95-0.8,1.42-1.2c0.13,1.45-0.2,2.88-0.25,4.33c-0.47,0.37-0.6,1.15-1.37,1.17
		l-0.06,0.01C50.36,42.94,50.21,41.49,51.14,40.11z"/>
	<path class="st12" d="M26.43,67.96c-0.52,1.37-1.66,1.49-2.89,1.43c-0.08-0.01-0.16-0.03-0.24-0.04c-0.5-0.91-0.62-1.85-0.23-2.83
		c0.26-0.94,0.27-0.94,0.86-0.85c0.07,0.14,0.15,0.29,0.14,0.45c-0.07,1.08,0.35,1.64,1.51,1.53C25.88,67.6,26.21,67.68,26.43,67.96
		z"/>
	<path class="st13" d="M50.94,44.4c0.56-0.28,0.59-1.17,1.37-1.17c-0.1,1.28,0.22,2.59-0.2,3.85C50.76,46.61,50.8,45.53,50.94,44.4z
		"/>
	<path class="st14" d="M23.52,29.98c-0.08-2.85-0.08-2.78,2.75-2.87c7.46-0.24,14.91-0.22,22.37-0.22c0.52,0,1.04,0.03,1.55,0.04
		c0.23,0.26,0.3,0.57,0.24,0.89c-0.45,2.58-0.5,5.22-0.99,7.8c-0.34,0.74-0.9,1.18-1.73,1.22c-0.49-0.17-0.57-0.63-0.69-1.04
		c-0.16-0.55-0.41-1.03-0.8-1.44c-0.65-0.68-1.41-1.1-2.34-0.76c-0.89,0.33-0.75,1.18-0.84,1.93c-0.25,1.99-0.26,3.95,0.27,5.9
		c-0.34,0.68-0.78,1.25-1.54,1.49c-0.28,0.04-0.54,0.13-0.8,0.23c-1.61,0.59-2.66,0.09-2.96-1.63c-0.33-1.89-0.34-3.81,0.48-5.69
		c-0.65,0.46-0.66,0.46-0.84,1.01c-0.52,1.63-0.49,3.31-0.24,4.97c0.21,1.4,1.16,2.22,2.57,2.45c0.41,0.31,0.22,0.66-0.02,0.92
		c-2.76,3.01-5.25,6.26-8,9.28c-0.05,0.06-0.13,0.09-0.2,0.13c-0.11,0.04-0.22,0.06-0.34,0.06c-0.12-0.02-0.24-0.04-0.34-0.11
		c-1.48-0.97-1.44-0.95-2.35,0.67c-0.33,0.59-0.35,1.7-1.56,1.36c-0.74-1.46-0.99-3.07-1.29-4.65c-0.09-0.47-0.21-0.92-0.42-1.34
		c-0.12-1.18-0.33-2.36-0.01-3.54c0.27-0.17,0.53-0.05,0.8,0.01c1.55,0.35,2.18,0.06,2.88-1.37c0.36-0.73,0.49-1.51,0.55-2.31
		c0.09-1.13-0.38-1.92-1.34-2.46c-0.17-0.1-0.35-0.19-0.53-0.28c-2.08-1.02-2.24-2.28-0.49-3.88c0.27-0.25,0.71-0.38,0.74-0.86
		c-1.74,0.36-2.94,2.24-2.49,3.85c0.25,0.89,1.05,1.13,1.76,1.48c1.64,0.79,2.06,1.69,1.59,3.37c-0.53,1.86-1.45,2.31-3.57,1.74
		c-0.27-0.27-0.41-0.6-0.44-0.96c-0.43-4.94-1.64-9.8-1.53-14.8C23.42,30.36,23.41,30.16,23.52,29.98z"/>
	<path class="st15" d="M22.32,65.58c-0.11,0.44,0.24,1.05-0.24,1.32c-0.56,0.32-0.91-0.3-1.32-0.56c-0.46-0.3-0.89-0.64-1.34-0.97
		c-0.64-1.17-0.2-2.43-0.32-3.65c-0.02-2.26-0.05-4.53,0.02-6.79c0.02-0.56,0-1.11-0.17-1.65c-0.21-3.53-0.08-7.06-0.07-10.58
		c-0.07-1.04,0.08-2.09-0.04-3.14c0.57-2.34,1.51-4.53,2.75-6.59c0.76,0.07,0.37,0.66,0.37,0.98c0.03,4.51,0,9.01,0.03,13.52
		c0.01,2.27-0.12,4.54,0.08,6.8c0.03,0.55,0.05,1.11,0.08,1.66c0.14,0.15,0.25,0.33,0.25,0.53c0.07,2.61,0.26,5.23-0.12,7.84
		C22.22,64.73,22.15,65.15,22.32,65.58z"/>
	<path class="st14" d="M28.56,22.34c0.19-0.3,0.47-0.23,0.75-0.2c3.12,0.3,6.22,0.8,9.31,1.3c1.89,0.31,3.76,0.68,5.61,1.14
		c0.36,0.09,0.83,0.07,0.9,0.61c-0.96,0.02-1.92,0.03-2.88,0.05c-5.59,0.09-11.2,0-16.77,0.35c-2.14,0.13-3.87-0.72-5.78-1.14
		c-0.74-0.17-1.44-0.46-2.22-0.44c-0.4,0.01-0.77-0.15-1.1-0.76c2.06,0.29,3.99-0.38,5.92,0.28c1.25,0.43,2.51,0.33,3.77,0
		c0.5-0.13,1.02-0.17,1.53-0.25C28.15,23.2,28.51,22.93,28.56,22.34z"/>
	<path class="st16" d="M49.18,35.8c0.34-2.96,0.67-5.91,1.01-8.87c0.2-0.02,0.4-0.02,0.6-0.05c1.15-0.2,1.42,0.29,1.27,1.38
		c-0.22,1.62-0.29,3.25-0.43,4.88c-0.27,2.32-0.49,4.64-0.49,6.97c-0.24,1.43-0.26,2.87-0.26,4.3c-0.33,0.56-0.15,1.17-0.19,1.76
		c-0.1,1.23-0.7,1.71-1.97,1.54c-0.57-0.06-0.71-0.43-0.65-0.92c0.18-1.46-0.04-2.94,0.28-4.39c-0.04-1.6,0.3-3.17,0.31-4.77
		C48.65,36.97,48.9,36.37,49.18,35.8z"/>
	<path class="st17" d="M25.67,47.07c0.01,1.21,0.03,2.41,0.04,3.62c0.37,1.42,0.41,2.88,0.55,4.32c0.07,0.69,0.21,1.23,0.84,1.57
		c0.18,0.3-0.04,0.43-0.25,0.52c-1.16,0.48-2.91-0.39-3.3-1.63c-0.44-8.19-0.14-16.38-0.21-24.57c0-0.32-0.04-0.64,0.19-0.92
		c-0.08,3.13,0.59,6.15,1.12,9.2c0.32,1.82,0.32,3.71,0.56,5.57c0.07,0.56,0.17,1.09,0.43,1.59C25.81,46.58,25.79,46.82,25.67,47.07
		z"/>
	<path class="st18" d="M21.6,33.38c-1.05,1.93-1.73,4.02-2.62,6.02c0.15,1.29-0.7,2.28-0.99,3.44c-0.28,1-0.73,1.94-1.11,2.9
		c-0.18,0.45-0.35,1.03-1.08,0.8c-0.48-1.51-0.51-3.02,0.04-4.51c-0.35-2.66,0.29-4.93,2.23-6.92c1.07-1.09,1.75-2.56,2.61-3.86
		C21.56,31.71,21.31,32.66,21.6,33.38z"/>
	<path class="st19" d="M13.02,60.25c-0.02-1.91-0.04-3.83-0.07-5.74c0-3.63,0-7.25,0-10.88c0-0.31,0.05-0.64-0.2-0.91
		c0-3.02,0-6.04,0-9.06c0.32,1.67,1.87,2.91,1.67,4.76c0.03,0.07,0.1,0.15,0.09,0.22c-0.23,4.08,0.87,8.11,0.5,12.19
		c-0.03,1.46,0.16,2.93-0.13,4.37c-0.25,0.45-0.46,0.34-0.64-0.06c-0.16-0.35,0.09-0.68,0.06-1.03c0.05-0.14-0.22,0.02-0.06,0.01
		c0.07,0,0.1,0.05,0.05,0.09c-0.74,0.66-0.9,1.49-0.72,2.42c0.01,0.82,0.03,1.65-0.01,2.46C13.53,59.54,13.64,60.08,13.02,60.25z"/>
	<path class="st20" d="M45.14,25.19c-3.13-0.93-6.35-1.36-9.56-1.88c-1.8-0.29-3.6-0.66-5.43-0.76c-0.32-0.02-0.62-0.15-0.84-0.4
		c4.58-0.09,9.17-0.17,13.75-0.27c0.58-0.01,1.07,0.13,1.58,0.41c1.69,0.95,3.4,1.86,5.33,2.91C48.19,25.19,46.66,25.19,45.14,25.19
		z"/>
	<path class="st21" d="M23.54,55.47c0.95,1.19,2.11,1.73,3.63,1.23c0.04-0.1,0.11-0.11,0.19-0.05c0.87-0.38,0.99-1.28,1.35-1.99
		c0.86-1.71,1.02-1.75,2.36-0.43c0.11,0.11,0.24,0.21,0.35,0.31c0.36,0.63-0.09,1.05-0.52,1.2c-0.55,0.2-0.77,0.62-1.08,1
		c-0.75,0.21-1.41,0.51-1.44,1.44c-1.38,1.27-2.86,0.73-4.49,0.27c-0.05,2.24-0.03,4.49,0,6.73c0,0.14-0.05,0.26-0.14,0.36
		c-0.32,0.26-0.21,0.84-0.7,0.98c-0.57-0.55,0.09-1.41-0.55-2.03c-0.28,0.36-0.11,0.76-0.19,1.1c-0.38-0.84-0.17-1.73-0.18-2.59
		c-0.03-2.35,0-4.7,0.01-7.06C22.55,55.58,23,55.38,23.54,55.47z"/>
	<path class="st22" d="M17.01,34.56c-0.16,0.37-0.38,0.68-0.79,0.84c-0.28-0.42,0.01-0.77,0.1-1.13c0.63-2.55,1.31-5.08,1.88-7.64
		c0.2-0.88,0.52-1.02,1.31-0.74c0.71,0.25,1.46,0.36,2.19,0.55c0.44,0.11,0.88,0.43,0.33,0.77c-0.67,0.41-0.87,1.12-1.36,1.61
		c-1.81,0.03-2.08,1.48-2.48,2.76C17.87,32.61,17.38,33.56,17.01,34.56z"/>
	<path class="st23" d="M16.61,28.13c-0.49,2.09-0.98,4.17-1.46,6.26c-0.78-2.39-1.22-4.8-1.46-7.24c-0.13-0.41-0.3-0.93,0.1-1.18
		c0.36-0.22,0.7,0.23,1.01,0.46c0.42,0.3,0.85,0.58,1.3,0.82C16.44,27.43,16.83,27.6,16.61,28.13z"/>
	<path class="st24" d="M14.67,50.91c0.07-4.16-0.4-8.32-0.25-12.48c0.48,1.11,0.13,2.27,0.23,3.41c0.04,0.46,0.01,0.92,0.01,1.61
		c0.5-0.59,0.64-1.19,1.19-1.42c0.16,1.52-0.23,3.07,0.24,4.58c0.47,2.66,0.56,5.32,0.18,7.99c-0.62,0-0.67-0.02-0.71-0.72
		c-0.07-1.26-0.04-2.52-0.01-3.76C15.31,50.38,15.24,50.93,14.67,50.91z"/>
	<path class="st25" d="M25.89,18.85c0.75,0.88,1.46,1.78,1.52,3.02c-0.47,0.47-1.09,0.58-1.7,0.73c-2.04,0.28-2.37-0.09-2.37-2.71
		C23.96,18.97,24.85,18.73,25.89,18.85z"/>
	<path class="st22" d="M16.61,28.13c-0.72-0.96-2.03-1.1-2.73-2.1c-0.31,0.42-0.13,0.79-0.2,1.12c-0.4-1.09-0.17-2.25-0.56-3.56
		c1.44,0.55,2.64,1.02,3.85,1.48c0.39,0.15,0.56,0.35,0.38,0.82C17.07,26.62,16.85,27.38,16.61,28.13z"/>
	<path class="st26" d="M21.6,33.38c-0.54-0.61-0.63-1.42-0.92-2.14c0.38-0.6,0.77-1.2,1.15-1.79c0.08,0.01,0.16,0.03,0.23,0.04
		c0,8.26,0,16.52,0,24.78c-0.35-0.42-0.19-0.92-0.19-1.38c-0.01-6.46-0.01-12.93-0.02-19.39c0-0.11-0.04-0.21-0.07-0.32
		C21.73,33.24,21.66,33.31,21.6,33.38z"/>
	<path class="st27" d="M17.01,34.56c0.12-1.38,0.8-2.59,1.17-3.89c0.02-0.08,0.08-0.14,0.09-0.22c0.23-1.38,0.91-2.09,2.39-1.62
		C19.58,30.82,18.28,32.68,17.01,34.56z"/>
	<path class="st28" d="M23.53,19.71c0.07,0.35,0.15,0.7,0.2,1.05c0.28,1.74,0.28,1.74,1.98,1.84c-1.58,0.37-3.02,0.29-4.01-1.25
		c-0.01-0.13-0.02-0.25-0.02-0.38C21.99,20.1,22.62,19.69,23.53,19.71z"/>
	<path class="st29" d="M28.56,22.34c0.56,1.21-0.38,0.89-0.96,0.93C27.92,22.96,28.24,22.65,28.56,22.34z"/>
	<path class="st30" d="M48.55,66.71c-3.61,0.32-7.23,0.69-10.86,0.75c0.05-0.72,0.91-0.54,1.16-1.07c-0.66,0.16-1.22,1.04-1.99,0.3
		c-0.17-1.16,0.69-1.61,1.48-2.04c0.48-0.26,1.01-0.47,1.55-0.59c-0.76-0.45-2-3.72-1.86-4.9c0.44-0.5,0.97-0.32,1.23,0.08
		c0.55,0.84,1.17,0.84,1.94,0.42c0.78,0.37,1.67,0.17,2.45,0.52c0.34,0.43-0.06,0.82-0.08,1.23c-0.05,0.63-0.03,1.26-0.03,1.9
		c0,0.97,0.38,1.74,1.33,2.02c0.97,0.29,1.94,0.29,2.77-0.49c0.27-0.25,0.33-1.02,1.02-0.57C48.91,65.08,49.01,65.91,48.55,66.71z"
		/>
	<path class="st31" d="M48.55,66.71c-0.02-0.87-0.04-1.73-0.06-2.6c-0.15-1.19,0.01-2.42-0.53-3.55c-0.1-1.92-0.15-3.84,0.03-5.76
		c0.3-0.94,0.15-1.9,0.17-2.85c0.01-0.53,0.16-1.02,0.31-1.51c0.01-0.8,0.3-1.26,1.21-1.18c0.29,0.03,0.6-0.15,0.9-0.24
		c-0.27,5.27-0.22,10.55-0.15,15.83C50.46,66.69,50.46,66.69,48.55,66.71z"/>
	<path class="st32" d="M36.98,66.73c1.01,0.29,1.48-1.01,2.53-0.82c-0.18,1.04-1.19,1.09-1.82,1.54c-0.64,0-1.27,0.01-1.91,0.01
		c-2.23,0.19-4.21-0.46-5.98-1.81c-0.22-0.17-0.43-0.36-0.73-0.36c-1.82-0.89-2.39-2.43-2.24-4.33c0.28-1.32,0.57-2.62,2.23-2.86
		c0.26,0.06,0.51,0.14,0.53,0.47c-1.97,1.54-1.91,4.51,0.14,5.99c2,1.43,4.15,2.37,6.69,2.03C36.62,66.56,36.81,66.6,36.98,66.73z"
		/>
	<path class="st33" d="M19.49,8.9c0.79,0.77,1.23,1.78,1.86,2.66c0.39,0.19,0.7,0.44,0.68,0.92c-0.5,0.87-1.5,1.15-2.15,1.83
		c-0.45,0.3-0.69,0.91-1.35,0.87c-0.71-1.07-1.42-2.14-2.13-3.2c0.28-0.41,0.43-0.9,0.73-1.3C17.85,10,18.57,9.31,19.49,8.9z"/>
	<path class="st34" d="M12.99,4.59c1.62-0.94,2.46-0.73,3.69,0.9c0.19,0.25,0.41,0.48,0.62,0.72c-0.25,0.89-1.19,1.27-1.56,2.07
		c-0.38,0.4-0.42,1.02-0.91,1.34c-0.51-0.8-1.16-0.52-1.81-0.23c-0.61-0.68-0.62-1.5-0.52-2.33c0.05-0.43,0.15-0.85,0.12-1.29
		C12.63,5.35,12.67,4.93,12.99,4.59z"/>
	<path class="st35" d="M7.2,9.22c1.02-0.77,1.7-1.93,2.9-2.49c0.62,0.28,0.47,0.92,0.66,1.4c0.03,1.02,0.83,1.76,1.01,2.72
		c-0.96,0.52-1.51,1.51-2.37,2.14c-1.13-0.61-1.67-1.68-2.17-2.78C7.08,9.88,6.93,9.56,7.2,9.22z"/>
	<path class="st36" d="M23.53,19.71c-0.62,0.42-1.24,0.84-1.85,1.27c-0.41-0.68-0.82-1.35-1.23-2.03c0.33-0.78,0.84-1.41,1.56-1.86
		c0.8-0.47,1.44-1.28,2.49-1.23c0.56,0.96,1.45,1.76,1.39,3C25.11,19.14,24.32,19.42,23.53,19.71z"/>
	<path class="st37" d="M7.47,10.12c0.33,1.17,1.35,1.88,1.94,2.87c-0.72,0.58-1.33,1.29-2.17,1.75c-0.33,0.18-0.55,0.25-0.78-0.08
		c-1.15-0.72-2.01-1.61-1.98-3.09c0.18-0.17,0.37-0.35,0.55-0.52C6.12,11.44,6.9,11.05,7.47,10.12z"/>
	<path class="st38" d="M11.78,10.85c-0.7-0.75-1.23-1.58-1.22-2.65c0.05-1.53,1.42-1.77,2.38-2.41C12.86,7,12.76,8.2,13.03,9.4
		C13.04,10.25,12.48,10.61,11.78,10.85z"/>
	<path class="st39" d="M22.13,17.35c-0.76,0.33-1,1.19-1.68,1.59c-0.64-1.26-1.29-2.51-1.93-3.77c0.39-0.34,0.77-0.67,1.16-1.01
		C20.69,15.09,21.2,16.38,22.13,17.35z"/>
	<path class="st40" d="M14.84,9.63c0.12-0.55,0.28-1.08,0.74-1.46c0.99,0.27,1.56,1.16,1.67,2.61c-0.25,0.43-0.17,1.09-0.86,1.19
		C15.87,11.19,15.35,10.41,14.84,9.63z"/>
	<path class="st41" d="M7.47,10.12c-0.29,1.49-1.12,1.81-2.43,0.93c0.08-0.15,0.17-0.31,0.25-0.46c0.74-0.31,1.06-1.22,1.92-1.37
		C7.29,9.52,7.38,9.82,7.47,10.12z"/>
	<path class="st42" d="M4.48,11.57c0.28,1.27,1.23,2.11,1.98,3.09C4.96,14.55,4.13,13.26,4.48,11.57z"/>
	<path class="st43" d="M22.13,17.35c-1.3-0.69-1.83-1.97-2.45-3.18c0.61-0.72,1.51-1.08,2.22-1.67c0.26-0.1,0.37,0.07,0.47,0.25
		c0.22,0.31,0.45,0.62,0.67,0.93c0.53,0.36,0.83,0.88,1.04,1.46c0.14,0.24,0.28,0.47,0.42,0.71C23.73,16.38,22.82,16.69,22.13,17.35
		z"/>
	<path class="st44" d="M17.25,10.79c-0.56-0.87-0.65-2.04-1.67-2.61c0.4-0.81,0.99-1.45,1.73-1.95C18.03,7.11,18.76,8,19.49,8.9
		C18.9,9.71,18.01,10.17,17.25,10.79z"/>
	<path class="st45" d="M12.93,5.79c-0.25,0.19-0.13,0.64-0.54,0.72c-0.95,0.19-1.41,0.92-1.84,1.69c-0.15-0.49-0.3-0.98-0.45-1.47
		c0.65-1.14,1.84-1.55,2.89-2.14C12.97,4.99,12.95,5.39,12.93,5.79z"/>
	<path class="st46" d="M24.08,15.15c-0.51-0.37-0.86-0.85-1.04-1.46C23.83,13.85,24.22,14.31,24.08,15.15z"/>
	<path class="st47" d="M22.37,12.76c-0.16-0.08-0.32-0.17-0.47-0.25c-0.18-0.32-0.36-0.63-0.54-0.95
		C22.06,11.65,22.42,12.03,22.37,12.76z"/>
	<path class="st14" d="M48.66,42.53c-0.33,1.53,0.01,3.11-0.35,4.64c-0.07,0.3,0.26,0.37,0.4,0.54c-0.68,0.07-1.04,0.43-1.24,1.09
		c-0.4,1.3-1.31,2.25-2.28,3.16c-0.73,0.68-1.59,0.62-2.46,0.66c-1.31,0.56-1.69-0.58-2.33-1.26c-0.11-0.22-0.19-0.44-0.13-0.69
		c2.31-2.51,4.69-4.95,7.14-7.34C47.77,42.98,48.04,42.47,48.66,42.53z"/>
	<path class="st48" d="M48.47,50.43c-0.01,1.46,0.15,2.92-0.18,4.37c-0.59-0.92-0.35-1.85-0.2-2.71c-1.2,1.14-2.25,2.65-3.58,3.88
		c-0.28,0.15-0.58,0.06-0.87,0.06c-2.17-0.04-2.93,0.8-2.63,2.91c0.07,0.27,0.21,0.54,0.06,0.83c-0.1,0.07-0.23,0.11-0.29,0.2
		c-0.42,0.73-0.76,0.98-1.22-0.01c-0.24-0.53-0.67-1-1.4-0.88c-0.22,0.03-0.31-0.09-0.35-0.28c0.56-1.28,1.63-2.18,2.45-3.27
		c0.42-0.55,0.88-1.1,1.42-1.56c0.11-0.04,0.22-0.03,0.32,0.04C45.11,54.52,46.92,52.71,48.47,50.43z"/>
	<path class="st21" d="M42.01,54.02c-0.08,0.01-0.15,0.02-0.23,0.02c-1.05,0.09-1.7-0.54-2.15-1.35c-0.45-0.8-0.02-1.45,0.92-1.53
		c0.58,0.71,1.09,1.52,2.18,1.45C43.1,53.39,42.12,53.48,42.01,54.02z"/>
	<path class="st49" d="M27.13,60.99c-0.36,1.89,0.77,3.11,1.94,4.31c-0.72,0.87-1.45,1.75-2.17,2.62c-0.16,0.01-0.31,0.03-0.47,0.04
		c-0.08,0-0.16-0.01-0.24-0.01c-2.4-0.03-2.4-0.03-2.43-2.41c0-0.08,0.01-0.15,0.01-0.23c0.8-1.35,1.76-2.6,2.57-3.94
		C26.51,61.1,26.74,60.85,27.13,60.99z"/>
	<path class="st50" d="M16.07,54.74c-0.04-2.21,0.25-4.43-0.2-6.63c-0.11-0.53,0.1-1.01,0.22-1.51c0.75-1.2,1.07-2.6,1.68-3.86
		c0.61,0.65,0.23,1.48,0.38,2.21c-0.02,3.66,0.42,7.32,0.24,10.98c0.02,2.45,0.04,4.9-0.02,7.35c0.01,0.4-0.03,0.78-0.33,1.08
		c-0.08-0.01-0.15-0.02-0.23-0.04c-1.44-0.73-2-1.88-1.73-3.48c0.1-0.58,0-1.19-0.02-1.78C15.54,57.62,15.52,56.18,16.07,54.74z"/>
	<path class="st51" d="M18.03,64.37c0-0.33,0-0.65,0-0.98c0.31-0.69,0.43-1.54,1.41-1.67c-0.01,1.22-0.02,2.43-0.03,3.65
		C18.95,65.03,18.49,64.7,18.03,64.37z"/>
	<path class="st6" d="M16.07,54.74c0,1.44-0.01,2.88-0.01,4.32c-0.34,0.42-0.67,0.83-1.06,1.31c-0.29-0.9,0.16-1.76-0.31-2.52
		c-0.57-0.78-0.53-1.59-0.06-2.4c0.01-1.52,0.03-3.03,0.04-4.55c0.36-0.55,0.72-1.11,1.19-1.84c0,1.59-0.01,3,0.01,4.41
		C15.87,53.91,15.72,54.37,16.07,54.74z"/>
	<path class="st52" d="M14.63,55.46c0.02,0.8,0.04,1.6,0.06,2.4c-0.01,1.11-0.01,2.21-0.02,3.32c0,0.32,0.15,0.81-0.51,0.56
		c-0.23-0.17-0.46-0.34-0.69-0.51c0.27-1.56,0.07-3.14,0.17-4.71c0.03-0.51-0.31,0.14-0.41-0.08c-0.48-1.27,0.79-1.88,1.09-2.9
		C14.62,54.17,14.16,54.89,14.63,55.46z"/>
	<path class="st53" d="M13.22,56.44c0.38-0.23,0.07-0.8,0.68-1.08c0,1.9,0.01,3.72-0.01,5.54c0,0.22-0.22,0.3-0.43,0.34
		c-0.64-0.1-0.46-0.58-0.45-0.98C13.43,59,13.07,57.7,13.22,56.44z"/>
	<path class="st54" d="M48.66,42.53c-2.26,2.24-4.64,4.37-6.69,6.82c-0.44,0.53-0.84,1.2-1.64,1.31c-1.22-0.83-1.21-0.83-1.95,0.58
		c-0.88,1.69-2.27,2.87-3.92,3.73c-1.17,0.61-2.28,0.39-2.79-0.42c2.64-3.3,5.36-6.54,8.2-9.67c0.1-0.11,0.15-0.27,0.22-0.41
		c0.59-0.56,1.09-1.22,1.74-1.73c0.55-0.28,0.72-0.97,1.32-1.2c0.44,0.01,0.69,0.35,1,0.59c1.22,0.96,2.47,0.65,3.09-0.77
		c0.48-1.09,0.49-2.24,0.45-3.4c-0.02-0.39-0.19-0.79,0.06-1.16c0.48-0.34,0.96-0.68,1.44-1.02C49.01,38.04,48.83,40.28,48.66,42.53
		z"/>
	<path class="st55" d="M31.68,54.56c0.84,0.77,1.82,0.61,2.65,0.16c1.69-0.92,3.2-2.09,3.95-3.98c0.21-0.52,0.47-1.13,1.08-1.16
		c0.61-0.03,0.71,0.66,0.97,1.09c0.07,0.17,0.14,0.33,0.22,0.5c-1.09,0.75-1.13,1.1-0.27,1.97c0.43,0.43,1,0.61,1.5,0.91
		c-1.15,1.71-2.6,3.17-3.86,4.79c-0.39,0.28-0.69,0.01-0.94-0.21c-0.57-0.51-1.25-0.81-1.92-1.16c-0.19-0.72,0.44-0.91,0.66-1.19
		c-1.27,0.75-2.77,1.01-4.31,0.32c-0.51-0.23-0.9-0.14-1.32,0.13c-0.12,0.02-0.22,0-0.32-0.07c0.2-0.48,0.02-1.23,1.01-1.08
		c0.25,0.04,0.63-0.55,0.65-1.03C31.51,54.55,31.6,54.55,31.68,54.56z"/>
	<path class="st56" d="M47.74,36.81c0.53,1.49,0.39,2.99-0.1,4.44c-0.72,2.13-2.49,2.47-4.02,0.83c-0.16-0.17-0.32-0.36-0.48-0.54
		c-1.02-2.36-0.54-4.8-0.32-7.21c0.11-1.21,1.52-1.69,2.63-1c0.89,0.56,1.64,1.26,1.89,2.37C47.43,36.08,47.44,36.51,47.74,36.81z"
		/>
	<path class="st57" d="M35.79,41.34c-0.08,0.99-0.11,1.99-0.25,2.98c-0.18,1.26-0.89,1.61-2.05,1.08c-1.37-0.62-2.14-1.76-2.6-3.13
		c-0.5-1.48-0.77-3.01-0.67-4.59c0.03-0.5-0.07-1.2,0.66-1.18c0.65,0.02,0.56,0.68,0.55,1.14c-0.04,1.25,0.17,2.47,0.53,3.65
		c0.15,0.49,0.35,0.98,0.61,1.42c0.36,0.63,0.89,1.41,1.57,1.26c0.53-0.11,0.23-1.05,0.27-1.62c0.11-1.59,0.32-3.18-0.43-4.7
		c-0.19-0.39-0.07-0.88,0.3-1.06c0.46-0.24,0.57,0.31,0.74,0.57C35.86,38.45,35.79,39.9,35.79,41.34z"/>
	<path class="st56" d="M25.67,47.07c-0.01-0.24-0.03-0.49-0.04-0.73c0.17-0.18,0.35-0.27,0.63-0.22c1.55,0.26,1.93-0.01,2.4-1.63
		c0.47-1.64,0.22-2.31-1.2-2.89c-1.23-0.51-2.32-1.02-2.26-2.67c0.06-1.66,1.02-2.61,2.33-3.34c0.34-0.19,0.82-0.42,1.1-0.04
		c0.37,0.48-0.27,0.63-0.48,0.91c-0.17,0.22-0.4,0.38-0.62,0.56c-1.44,1.21-1.72,2.7,0.51,3.41c1.76,0.55,2.21,1.74,1.89,3.74
		c-0.11,0.71-0.38,1.37-0.7,2.03C28.63,47.46,27.45,48.18,25.67,47.07z"/>
	<path class="st58" d="M41.84,42.74c-0.32,0.84-0.85,1.46-1.74,1.73c-1.73-0.05-2.77-0.87-3.06-2.72c-0.27-1.74-0.23-3.51,0.37-5.21
		c0.13-0.37,0.35-0.72,0.59-1.03c0.22-0.28,0.52-0.57,0.92-0.3c0.46,0.32,0.07,0.57-0.08,0.89c-0.92,1.84-0.94,3.8-0.42,5.71
		c0.41,1.5,1.26,1.71,2.66,0.93C41.33,42.59,41.58,42.25,41.84,42.74z"/>
	<path class="st59" d="M27.37,56.65c-0.06,0.03-0.13,0.04-0.19,0.05c-0.94,0.1-1.32-0.25-1.27-1.27c0.08-1.58-0.34-3.15-0.19-4.75
		c0.28,0.12,0.44,0.33,0.46,0.64C26.29,53.17,26.97,54.88,27.37,56.65z"/>
	<path class="st60" d="M18.03,55.93c-0.08-3.67-0.16-7.35-0.24-11.02c0.23-0.57,0.3-1.19,0.61-1.73c0.18-0.32,0.26-0.77,0.8-0.66
		c0.01,3.59,0.02,7.19,0.03,10.78C19.46,54.94,19.21,55.49,18.03,55.93z"/>
	<path class="st61" d="M18.03,55.93c0.82-0.68,1.35-1.5,1.2-2.63c0.38,0.41,0.21,0.91,0.21,1.37c0.01,2.35,0,4.7,0,7.05
		c-0.47,0.56-0.94,1.12-1.41,1.67C18.03,60.9,18.03,58.42,18.03,55.93z"/>
	<path class="st62" d="M19.2,42.52c-0.76,0.63-0.7,1.73-1.41,2.39c-0.01-0.72-0.02-1.45-0.02-2.17c0.41-1.11,0.81-2.23,1.22-3.34
		C19.5,40.41,19.1,41.48,19.2,42.52z"/>
	<path class="st30" d="M27.13,60.99c-1.06,0.86-1.47,2.2-2.3,3.23c-0.32,0.4-0.59,0.83-1.05,1.09c-0.44-0.48-0.22-1.06-0.23-1.6
		c-0.03-1.94-0.01-3.89-0.01-5.9c1.64,0.78,3.23,1.46,4.81,0.04c0.49-0.23,0.7-0.01,0.75,0.46C27.5,58.51,27.45,59.85,27.13,60.99z"
		/>
	<path class="st63" d="M29.1,58.32c-0.17-0.29-0.43-0.43-0.75-0.46c-0.42-1.46,0.73-1.06,1.42-1.2c0.08,0,0.17,0,0.25,0
		c1.31-0.47,2.11,0.28,2.85,1.19c0.17,0.39,0.03,0.67-0.29,0.91c-0.76,0.56-2.2,0.48-3.05-0.18C29.39,58.49,29.25,58.4,29.1,58.32z"
		/>
	<path class="st64" d="M29.54,58.57c0.85,0.26,1.71,0.32,2.58,0.06c0.42-0.12,0.8-0.22,0.56-0.79c0.66-0.84,1.45-0.98,2.37-0.47
		c0.8-0.11,1.34,0.39,1.89,0.83c0.31,0.24,0.52,0.61,0.97,0.63c0.08,0.09,0.16,0.17,0.24,0.26c0.07,1.56,0.85,2.93,1.37,4.32
		c0.41,1.11-0.04,1.19-0.66,1.37c-1.04,0.3-1.74,0.85-1.9,1.96c-2.93,1.02-7.03-1.11-8.65-3.04c-0.46-0.55-0.63-1.31-0.41-2.03
		c0.14-0.47,0.22-0.94,0.17-1.41C27.96,59.15,28.43,58.6,29.54,58.57z"/>
	<path class="st65" d="M48.26,60.74c0.6,1.09,0.68,2.21,0.22,3.36c-0.83,1.54-1.63,1.94-3.4,1.67c-1.01-0.15-1.83-1.07-1.87-2.16
		c-0.03-0.79,0-1.59,0-2.39c0.61,0.02,0.47,0.58,0.66,0.9c0.02,0.08,0.04,0.15,0.06,0.23c0.21,0.75,0.19,1.79,1.07,1.99
		c1.03,0.23,2.06-0.12,2.73-1.08c0.28-0.45,0.27-0.92,0.06-1.39c-0.32-0.47-0.79-0.6-1.32-0.62c-0.23-0.02-0.46-0.06-0.66-0.18
		c-0.2-0.17-0.33-0.36-0.23-0.63c0.36-0.29,0.79-0.32,1.22-0.34C47.35,60.2,47.94,60.17,48.26,60.74z"/>
	<path class="st66" d="M43.7,55.7c0.29-0.04,0.47,0.18,0.68,0.3c0.94,0.69,1.13,1.8,0.57,3.46c-0.33,0.41-0.72,0.72-1.26,0.8
		c-0.91,0.02-1.85,0.25-2.63-0.48c-0.09-0.24-0.18-0.47-0.27-0.71C42.1,58.24,43.02,57.07,43.7,55.7z"/>
	<path class="st67" d="M43.69,60.26c0.25-0.33,0.58-0.56,0.96-0.72c0.17-0.12,0.35-0.16,0.54-0.07c0.28,0.22,0.4,0.48,0.24,0.83
		c-0.92,0.32-1.44,1.02-1.77,1.89c-0.35-0.23-0.06-0.75-0.44-0.96C43.38,60.91,43.53,60.58,43.69,60.26z"/>
	<path class="st68" d="M45.16,59.55c-0.17,0-0.34,0-0.5-0.01c0.45-1.22,0.46-2.41-0.27-3.54c0.97-1.62,2.34-2.91,3.91-4.55
		c0,1.35,0,2.34,0,3.34c-0.01,1.98-0.02,3.97-0.03,5.95c-0.42-0.36-1.04-0.06-1.45-0.46c-0.46-0.47-0.2-1.14-0.45-1.66
		c-0.13-0.28-0.24-0.66-0.61-0.62c-0.33,0.04-0.28,0.42-0.32,0.68C45.4,58.99,45.42,59.31,45.16,59.55z"/>
	<path class="st69" d="M43.7,55.7c0.2,0.34,0.22,0.62-0.09,0.95c-0.68,0.71-1.34,1.44-1.94,2.22c-0.29,0.38-0.53,0.39-0.88,0.2
		C40.17,56.83,41.24,55.59,43.7,55.7z"/>
	<path class="st70" d="M35.05,57.38c-0.83-0.05-1.62,0.09-2.37,0.47c-0.76-0.67-1.62-1.13-2.66-1.2c0.25-0.35,0.46-0.86,1-0.55
		c1.89,1.09,3.63,0.55,5.45-0.56C36.17,56.42,35.38,56.72,35.05,57.38z"/>
	<path class="st71" d="M38.38,55.55c-0.05,0.45-0.29,0.76-0.72,0.82c-0.43,0.07-0.66-0.23-0.67-0.64c-0.01-0.49,0.21-0.89,0.72-0.9
		C38.1,54.83,38.3,55.18,38.38,55.55z"/>
	<path class="st72" d="M46.66,39.52c-0.05,0.45-0.07,0.76-0.11,1.08c-0.09,0.64-0.36,1.16-1.09,1.23c-0.78,0.07-1.25-0.38-1.36-1.07
		c-0.29-1.77-0.71-3.53-0.56-5.34c0.04-0.54,0.24-0.89,0.81-1.01c0.6-0.13,1.01,0.07,1.29,0.6C46.39,36.46,46.29,38.1,46.66,39.52z"
		/>
	<path class="st73" d="M32.2,59.33c0.32-0.17,0.63-0.35,0.95-0.5c1.22-0.57,2.4-0.34,3.36,0.61c0.99,0.98,1.47,2.27,2.07,3.47
		c0.42,0.84-0.52,1.77-1.5,1.57c-0.27-0.05-0.53-0.14-0.81-0.12c-0.15,0.13-0.32,0.22-0.53,0.25c-1.25,0.17-1.56-0.13-1.38-1.4
		c-0.58,0.07-1.16,0.34-1.71-0.04c-0.24-0.14-0.5-0.23-0.75-0.33c-0.5-0.24-1.02-0.5-1.37-0.93c-0.44-0.54-0.97-0.98,0.07-1.68
		C31.12,59.86,31.51,59.38,32.2,59.33z"/>
	<path class="st74" d="M32.67,62.89c0.48,0.31,0.95,0.38,1.42-0.06c0.23-0.21,0.51-0.22,0.76,0c0.28,0.26,0.16,0.5-0.07,0.72
		c-0.74,0.72-0.25,0.8,0.41,0.8c0.36,0,0.72,0.01,1.08,0.01c0.03,0.97-0.49,1.39-1.58,0.88c-1.37-0.63-2.86-0.94-4.16-1.72
		c-0.28-0.17-0.6-0.3-0.19-0.69c0.25-0.24,0.16-0.52-0.08-0.72c-0.24-0.2-0.44-0.05-0.63,0.11c-0.2,0.17-0.36,0.47-0.69,0.19
		c-0.36-0.3-0.16-0.55,0.03-0.81c0.04-0.06,0.06-0.15,0.08-0.22c0.13-0.64-0.32-1.48,0.34-1.91c0.64-0.42,1.48-0.11,2.23-0.16
		c0.2-0.01,0.4,0.01,0.6,0.01c-0.22,0.39-1.49-0.07-0.84,1.04c0.02,0.03-0.19,0.25-0.32,0.3c-0.29,0.1-0.82-0.36-0.84,0.21
		c-0.01,0.35,0.34,0.77,0.71,1.03c0.36,0.24,0.71,0.5,1.06,0.74C31.98,63.35,32.47,62.7,32.67,62.89z"/>
	<path class="st73" d="M43.67,62.19c-0.11-1.23,0.32-1.98,1.69-1.88c0.12,0.03,0.2,0.1,0.24,0.21c0.1,0.15,0.19,0.3,0.29,0.45
		c0.21,0.44,0.46,0.28,0.72,0.05c0.61-0.04,1.1,0.17,1.45,0.68c-0.74,0.56,0.41,1.14-0.01,1.7c-0.62,1.14-1.75,1.26-2.84,1.37
		c-0.72,0.08-1.02-0.51-1.2-1.09C43.84,63.19,43.77,62.68,43.67,62.19z"/>
	<path class="st75" d="M45.59,60.52c-0.08-0.07-0.16-0.14-0.24-0.21c-0.07-0.25-0.13-0.51-0.2-0.76c0.01-0.36,0.01-0.72,0.03-1.07
		c0.03-0.41-0.16-0.96,0.45-1.08c0.48-0.09,0.64,0.38,0.87,0.7c0.49,0.68,0.36,1.44,0.31,2.19C46.41,60.36,46,60.44,45.59,60.52z"/>
	<path class="st76" d="M48.03,63.4c-0.04-0.26,0.05-0.58-0.31-0.69c-0.28-0.09-0.75,0.01-0.72-0.42c0.03-0.41,0.49-0.28,0.77-0.38
		c0.1-0.04,0.18-0.14,0.27-0.21C48.36,62.26,48.42,62.83,48.03,63.4z"/>
	<path class="st77" d="M46.6,61.01c-0.04,0.3,0.02,0.71-0.47,0.65c-0.46-0.06-0.44-0.37-0.25-0.7C46.12,60.98,46.36,61,46.6,61.01z"
		/>
	<path class="st78" d="M32.9,60.95c-0.01,0.32-0.1,0.66-0.49,0.66c-0.39-0.01-0.65-0.29-0.68-0.69c-0.02-0.37,0.22-0.6,0.58-0.6
		C32.68,60.32,32.86,60.57,32.9,60.95z"/>
	<path class="st79" d="M35.22,60.03c-0.08,0.34-0.27,0.59-0.62,0.62c-0.36,0.03-0.61-0.23-0.66-0.55c-0.05-0.39,0.26-0.54,0.6-0.56
		C34.9,59.51,35.15,59.65,35.22,60.03z"/>
	<path class="st80" d="M36.81,62.64c-0.29-0.07-0.55-0.23-0.45-0.57c0.09-0.32,0.31-0.59,0.69-0.53c0.26,0.04,0.41,0.26,0.39,0.52
		C37.42,62.45,37.2,62.64,36.81,62.64z"/>
	<path class="st81" d="M32.67,62.89c-0.18,0.13-0.36,0.28-0.56,0.39c-0.21,0.11-0.48,0.16-0.59-0.12c-0.14-0.37,0.15-0.46,0.43-0.51
		C32.22,62.65,32.49,62.64,32.67,62.89z"/>
	<path class="st82" d="M44.77,62.69c0.27,0.01,0.48,0.13,0.52,0.4c0.04,0.28-0.14,0.47-0.41,0.45c-0.3-0.02-0.54-0.23-0.54-0.53
		C44.33,62.8,44.55,62.7,44.77,62.69z"/>
</g>
</svg>
