<?xml version="1.0" encoding="utf-8"?>
<!-- Generator: Adobe Illustrator 23.0.2, SVG Export Plug-In . SVG Version: 6.00 Build 0)  -->
<svg version="1.1" id="Camada_1" xmlns="http://www.w3.org/2000/svg" xmlns:xlink="http://www.w3.org/1999/xlink" x="0px" y="0px"
	 viewBox="0 0 55.97 71.89" style="enable-background:new 0 0 55.97 71.89;" xml:space="preserve">
<style type="text/css">
	.st0{fill:#FEFEFE;}
	.st1{fill:#6E2633;}
	.st2{fill:#7A0E46;}
	.st3{fill:#90313A;}
	.st4{fill:#8F313A;}
	.st5{fill:#862764;}
	.st6{fill:#892567;}
	.st7{fill:#6D2632;}
	.st8{fill:#7C2457;}
	.st9{fill:#6B2533;}
	.st10{fill:#761044;}
	.st11{fill:#7A2356;}
	.st12{fill:#6C2432;}
	.st13{fill:#83295F;}
	.st14{fill:#79252C;}
	.st15{fill:#D72B86;}
	.st16{fill:#CC378D;}
	.st17{fill:#D82B87;}
	.st18{fill:#FD7AB1;}
	.st19{fill:#B43184;}
	.st20{fill:#C9368B;}
	.st21{fill:#BC2F85;}
	.st22{fill:#FE7CB5;}
	.st23{fill:#7A0F46;}
	.st24{fill:#B63363;}
	.st25{fill:#B82F86;}
	.st26{fill:#7B2456;}
	.st27{fill:#FBF7F4;}
	.st28{fill:#B53363;}
	.st29{fill:#C12B88;}
	.st30{fill:#D5BACD;}
	.st31{fill:#B33264;}
	.st32{fill:#882366;}
	.st33{fill:#F084C4;}
	.st34{fill:#91323B;}
	.st35{fill:#C1504D;}
	.st36{fill:#C14F4C;}
	.st37{fill:#BE4C4A;}
	.st38{fill:#C04E4C;}
	.st39{fill:#D7BBD2;}
	.st40{fill:#D7BCD2;}
	.st41{fill:#D5BACF;}
	.st42{fill:#FCFAF9;}
	.st43{fill:#B94749;}
	.st44{fill:#FDFCFB;}
	.st45{fill:#FEFDFC;}
	.st46{fill:#FCF9F9;}
	.st47{fill:#3B1E1F;}
	.st48{fill:#DD2F79;}
	.st49{fill:#953D76;}
	.st50{fill:#953E76;}
	.st51{fill:#CC378E;}
	.st52{fill:#F84177;}
	.st53{fill:#6E2534;}
	.st54{fill:#F04365;}
	.st55{fill:#882566;}
	.st56{fill:#FEFCFD;}
	.st57{fill:#FEFCFC;}
	.st58{fill:#FC475B;}
	.st59{fill:#FB465B;}
	.st60{fill:#F9417B;}
	.st61{fill:#882367;}
	.st62{fill:#328719;}
	.st63{fill:#7B0F47;}
	.st64{fill:#F089C8;}
	.st65{fill:#D62A85;}
	.st66{fill:#33841A;}
	.st67{fill:#963D77;}
	.st68{fill:#C7558C;}
	.st69{fill:#D92C83;}
	.st70{fill:#D72B87;}
	.st71{fill:#99185C;}
	.st72{fill:#97185A;}
	.st73{fill:#83124D;}
	.st74{fill:#8C1453;}
</style>
<g>
	<path class="st0" d="M15.88,18.5c-0.81-1.37-1.54-2.56-2.22-3.77c-0.36-0.66-0.68-0.61-1.16-0.13c-0.85,0.85-1.71,1.68-2.6,2.48
		c-2.8,2.52-8.18,0.96-9.26-2.66c-0.14-0.46-0.27-0.92-0.41-1.37c-0.63-2.03,0.05-3.52,2.01-4.35c1.24-0.53,2.15-1.5,3.16-2.34
		c1.96-1.64,3.87-3.33,5.79-5.01c1.88-1.64,3.07-1.77,5.24-0.34c3.29,2.16,5.83,5.04,7.9,8.37c1.62,2.61,3.2,5.23,4.5,8.02
		c0.21,0.45,0.46,0.63,0.99,0.63c4.16-0.03,8.33,0.18,12.47-0.12c2.22-0.16,3.83,0.8,5.59,1.65c1.94,0.94,3.76,2.14,5.75,2.93
		c2.69,1.07,2.59,3.39,1.99,5.36c-0.12,0.38-0.27,0.73-0.29,1.14c-0.31,5.18-0.65,10.37-0.92,15.56
		c-0.35,6.81-0.49,13.63-0.42,20.46c0.03,3-1.29,4.76-4.16,5.19c-3.76,0.57-7.54,0.76-11.32,1.14c-3.62,0.36-7.29,0-10.88,0.47
		c-2.5,0.33-4.79-0.01-6.97-0.99c-1.64-0.74-3.12-1.87-4.61-2.93c-2.02-1.43-3.96-2.97-5.95-4.44c-0.89-0.66-1.18-1.59-1.18-2.61
		C9,48.89,8.47,36.98,8.6,25.07c0.01-0.48,0.08-0.97-0.01-1.44c-0.51-2.63,2.39-4.84,4.46-4.94C13.93,18.65,14.8,18.58,15.88,18.5z"
		/>
	<path d="M17.78,19.61c-1.2-2.34-2.5-4.48-3.81-6.61c-0.42-0.68-0.78-0.53-1.22-0.13c-1.19,1.07-2.52,2.02-3.52,3.24
		c-1.64,2-6.42,0.86-7.38-1.77c-0.24-0.67-0.45-1.36-0.62-2.05c-0.23-0.96,0.06-1.88,0.94-2.25C4.52,9.05,6.14,7.13,8.05,5.6
		c1.43-1.15,2.79-2.39,4.18-3.59c1.21-1.04,2-1.07,3.7,0.08c3.05,2.07,5.44,4.77,7.38,7.88c1.73,2.77,3.38,5.58,4.75,8.54
		c0.26,0.56,0.57,0.7,1.17,0.7c4.28-0.04,8.57,0.15,12.83-0.12c2.06-0.13,3.59,0.65,5.23,1.48c1.99,1,3.95,2.05,5.93,3.06
		c1.43,0.73,2.05,2.25,1.32,3.63c-0.28,0.53-0.39,1.03-0.42,1.58c-0.32,5.19-0.65,10.37-0.92,15.56
		c-0.35,6.85-0.51,13.71-0.43,20.58c0.03,2.72-1.04,3.74-3.38,4.07c-3.68,0.52-7.39,0.71-11.09,1.07c-3.63,0.35-7.29,0-10.88,0.46
		c-2.2,0.29-4.21,0.05-6.12-0.8c-1.57-0.71-2.99-1.77-4.41-2.77c-2.02-1.43-3.98-2.95-5.97-4.42c-0.61-0.45-0.82-1.04-0.82-1.76
		c-0.1-11.83-0.21-23.66-0.32-35.5c0-0.56,0.02-1.12,0.01-1.68c-0.05-2.14,1.29-3.61,3.42-3.74C14.7,19.79,16.17,19.71,17.78,19.61z
		"/>
	<path class="st1" d="M27.84,20.43c4.59-0.02,9.2,0.1,13.78-0.13c2.27-0.11,4.04,0.66,5.88,1.72c1.62,0.94,3.33,1.74,5.02,2.55
		c0.99,0.48,1.19,1.06,0.74,2.09c-0.47,1.09-0.28,2.34-0.42,3.52c-0.15,1.22,0.18,2.47-0.24,3.67c-0.13-0.81-0.88-0.87-1.42-1.17
		c-0.33-1.35,0.11-2.68,0.17-4.01c0.08-1.67,0.16-1.67-1.59-1.7C44.07,27.05,38.4,26.99,32.72,27c-2.6,0.01-5.18,0.39-7.79,0.25
		c-0.92-0.05-1.31,0.39-1.27,1.29c0.02,0.4-0.02,0.8-0.1,1.19c-0.34,1.22-0.18,2.46-0.17,3.69c0.06,5.82,0.04,11.65,0.02,17.47
		c0,1.35,0.49,2.69,0.11,4.04c-0.4,0.63-1,0.8-1.7,0.76c-0.1-0.1-0.18-0.22-0.22-0.36c-0.13-0.55-0.08-1.11-0.08-1.67
		c-0.02-7.46,0.02-14.93-0.03-22.39c0-0.35,0.07-0.72-0.09-1.14c-0.99,1.31-1.72,2.73-2.64,4.03c-0.46,0.65-0.82,1.4-1.4,1.94
		c-1.22,1.14-1.58,2.51-1.42,4.11c0.05,0.51,0.03,1.04-0.16,1.54c-0.43,0.48-0.61,1.53-1.3,1.33c-0.7-0.2-0.35-1.18-0.4-1.82
		c-0.08-1.03,0.12-2.07-0.16-3.09c0.01-1.44-1.06-2.56-1.21-3.96c0.21,2.67,0.07,5.36,0.12,8.04c-0.04,1.2,0.05,2.4-0.04,3.59
		c-0.08,1.08-0.37,2.1-1.5,2.61c-0.25-5.74-0.16-11.48-0.32-17.22c-0.07-2.51,0.08-5.01,0.06-7.51c-0.01-1.67,0.87-2.55,2.59-2.65
		c1.83-0.11,3.65-0.27,5.47-0.41c0.24-0.02,0.49-0.02,0.61-0.29c0.61,0.08,1.12,0.5,1.75,0.52c1.12,0.93,2.28,1.75,3.86,1.21
		c0.57-0.21,1.16-0.38,1.68-0.7C27.46,21.24,27.87,21.03,27.84,20.43z"/>
	<path class="st2" d="M51.82,47.27c-0.26,4.42-0.22,8.85-0.24,13.27c-0.01,1.55,0.04,3.11,0.01,4.66c-0.03,1.59-0.69,2.46-2.18,2.63
		c-5.33,0.61-10.67,1.21-16.05,1.29c-0.08,0-0.16-0.02-0.24-0.02c0.1-1.2,0.56-1.79,1.61-1.98c0.31-0.06,0.62-0.11,0.93-0.2
		c0.62-0.11,1.25-0.1,1.88-0.09c3.06-0.08,6.1-0.43,9.16-0.63c0.51-0.03,1.03-0.13,1.54-0.1c1.45-0.18,1.53-0.26,1.54-1.7
		c0.02-3.28,0-6.56,0.01-9.84c0-0.48,0-0.96,0.09-1.43c0.35-1.23,0.11-2.49,0.2-3.73c0-0.2,0.04-0.39,0.1-0.58
		C50.66,48.25,50.91,47.41,51.82,47.27z"/>
	<path class="st3" d="M21.45,21.07c-0.72,0.12-1.36,0.03-1.76-0.69c-1.68-2.61-3-5.44-4.77-8c-0.96-1.39-1.54-1.55-2.89-0.46
		c-1.11,0.9-2.14,1.91-3.19,2.89c-1.5,1.39-3.16,1.49-4.82,0.34c-1.3-0.89-1.43-2.21-1.41-3.59c0-0.25,0.12-0.42,0.37-0.56
		c0.7-0.38,1.37-0.8,2.05-1.2c0.17,0.04,0.27,0.14,0.33,0.3c0,0.35-0.23,0.56-0.43,0.8c-0.17,0.18-0.35,0.37-0.45,0.6
		c-0.12,1.46,0.37,2.23,1.71,2.67c0.77,0.17,1.22-0.37,1.72-0.79c0.35-0.3,0.66-0.65,1.05-0.92c0.88-0.63,1.45-1.62,2.45-2.11
		c0.58-0.29,1.04-0.7,1.26-1.33c0.75-0.67,1.46-0.62,2.11,0.15c0.64,0.72,1.14,1.54,1.62,2.37c0.73,1.05,1.37,2.17,2.08,3.23
		c0.65,1.25,1.3,2.49,1.98,3.72c0.38,0.68,0.86,1.31,1.09,2.07C21.57,20.75,21.55,20.92,21.45,21.07z"/>
	<path class="st4" d="M27.84,20.43c0.68,0.92-0.12,0.96-0.68,1.16c-0.58-0.99-1.07-2.04-1.67-3.01c-0.21-1.06-0.88-1.89-1.39-2.79
		c-0.18-0.27-0.4-0.52-0.47-0.85c-0.12-0.62-0.46-1.09-0.99-1.42c-0.42-0.39-0.78-0.83-1.22-1.21c-0.85-1.14-1.45-2.45-2.38-3.53
		C18.19,8,17.59,7,16.86,6.11c-0.64-0.56-0.96-1.41-1.83-1.79c-0.83-0.35-1.56-0.46-2.31,0.12c-0.17,0.05-0.35,0.05-0.52,0.01
		c-0.23-0.07-0.44-0.18-0.56-0.41c2.12-1.78,3.11-1.61,5.24,0.21c4.33,3.69,6.83,8.62,9.5,13.46
		C26.88,18.61,27.18,19.62,27.84,20.43z"/>
	<path class="st5" d="M51.82,47.27c-0.59,0.4-0.76,1.21-1.49,1.46c-0.19,0.27-0.45,0.44-0.76,0.46c-0.7,0.04-1,0.48-1.17,1.07
		c-0.73,1.2-1.57,2.29-2.79,3.06c-1.19,0.75-2.42,0.95-3.76,0.54c-0.32-0.33-0.09-0.67,0.14-0.79c0.42-0.22,0.44-0.48,0.28-0.84
		c2.51-0.25,3.88-1.85,4.77-4.02c0.26-0.65,0.77-0.98,1.47-1.02c1.3-0.19,1.49-0.37,1.58-1.62c0.04-0.56,0.04-1.12,0.41-1.58
		c0.15-0.18,0.31-0.35,0.5-0.49c0.24-0.18,0.49-0.47,0.81-0.29c0.28,0.16,0.13,0.5,0.15,0.76c0.05,0.62-0.09,1.24,0.09,1.85
		C52.16,46.33,51.84,46.78,51.82,47.27z"/>
	<path class="st6" d="M35.53,67.19c-1.18,0.16-2,0.78-2.4,1.92c-0.47,0.01-0.94,0.02-1.42,0.03c-0.72,0.13-1.48,0.41-1.2-0.91
		c0.14-0.66-0.51-0.44-0.85-0.4c-0.98,0.11-1.96,0.33-2.93-0.03c-0.3-0.24-0.14-0.52,0.01-0.72c0.63-0.82,1.07-1.83,2.13-2.25
		c0.81,0.03,1.29,0.71,1.96,1.02c1.17,0.56,2.37,1.08,3.72,1.02C34.9,66.86,35.27,66.88,35.53,67.19z"/>
	<path class="st7" d="M23.04,69.06c-2.1-0.24-3.33-2.03-5.12-2.84c-0.6-0.27-1.1-0.77-1.64-1.16c0.2-0.58,0.5-1.05,1.14-1.2
		c0.12,0,0.23,0.01,0.34,0.04c0.59,0.22,1.02,0.69,1.56,0.99c0.36,0.25,0.71,0.52,1.07,0.77c0.35,0.25,0.7,0.73,1.14,0.51
		c0.46-0.22,0.17-0.8,0.24-1.22c0.07-0.36-0.02-0.91,0.54-0.86c0.46,0.03,0.52,0.52,0.57,0.92c0.06,0.51,0,1.02,0.02,1.53
		C22.76,67.4,23.22,68.21,23.04,69.06z"/>
	<path class="st8" d="M11.29,48.46c1.26-1.35,1.3-3,1.2-4.7c-0.03-0.52,0.01-1.04,0.02-1.56c0.59,0.13,0.56,0.64,0.57,1.04
		c0.02,3.53,0.13,7.06-0.05,10.59c-0.49,0.89-0.61,2.03-1.7,2.52C11.31,53.73,11.3,51.1,11.29,48.46z"/>
	<path class="st8" d="M17.54,64.05c-0.63,0.08-0.7,0.86-1.26,1.02c-1.1-0.71-2.14-1.52-3.12-2.39c-0.17-0.62,0.26-0.94,0.62-1.31
		c0.45-0.51,0.24-1.13,0.29-1.71c0.06-0.66-0.11-1.35,0.21-1.98c0.46-0.3,0.53,0.11,0.6,0.38c0.14,0.53,0.08,1.09-0.04,1.85
		c0.02-0.07,0.31-0.1,0.15-0.13c-0.04-0.01-0.05-0.04-0.03-0.09c0.11-0.53,0.29-0.98,0.97-0.86c0.4,0.65,0.26,1.38,0.24,2.08
		c-0.03,0.99,0.08,1.88,1.01,2.47C17.39,63.51,17.59,63.73,17.54,64.05z"/>
	<path class="st9" d="M13.97,61.65c-0.49,0.17-0.57,0.66-0.81,1.02c-1.39-0.63-2.13-1.59-1.9-3.23c0.14-1.01,0.04-2.05,0.05-3.08
		c0.61-0.62,0.71-1.56,1.38-2.13c0.41,0.36,0.35,0.85,0.35,1.31c0.01,1.41,0.01,2.82,0,4.23c0,0.35,0.01,0.7,0.28,0.97
		C13.58,61.02,14.03,61.16,13.97,61.65z"/>
	<path class="st10" d="M26.65,67.63c1.1,0.07,2.18-0.02,3.28-0.18c1.25-0.18,1.31-0.04,0.84,1.09c-0.06,0.14-0.09,0.29-0.14,0.49
		c0.39,0.03,0.74,0.06,1.09,0.09c-0.32,0.24-0.69,0.17-1.04,0.17c-2.17,0.02-4.34,0.03-6.5,0.03c-0.31,0-0.65,0.05-0.89-0.23
		c1-0.42,2.16-0.52,2.85-1.52C26.31,67.51,26.48,67.51,26.65,67.63z"/>
	<path class="st11" d="M51.38,32.85c0.14-0.06,0.3-0.09,0.41-0.18c0.19-0.16,0.27-0.54,0.62-0.37c0.24,0.12,0.15,0.41,0.16,0.63
		c0.02,0.31,0.02,0.62,0.03,0.93c0.01,1.59-0.06,3.19-0.29,4.77c-0.22,0.42-0.44,0.85-0.88,1.11c-0.32,0.19-0.59,0.24-0.76-0.18
		c-0.3-1.98,0.15-3.92,0.28-5.88C50.96,33.36,51.1,33.05,51.38,32.85z"/>
	<path class="st12" d="M50.89,39.83c0.47-0.4,0.95-0.8,1.42-1.2c-0.09,2.4-0.17,4.8-0.26,7.2c-0.49-0.76-0.01-1.63-0.28-2.44
		c-0.53,0.02-0.66,0.65-1.13,0.76C50.12,42.67,49.95,41.22,50.89,39.83z"/>
	<path class="st13" d="M26.18,67.68c-0.52,1.37-1.66,1.49-2.89,1.43c-0.08-0.01-0.16-0.03-0.24-0.04c-0.4-0.74-0.55-1.52-0.46-2.36
		c0.19-0.37,0.19-0.95,0.87-0.79C23.73,67.47,25.19,67.21,26.18,67.68z"/>
	<path class="st14" d="M11.65,4.05c0.25,0.02,0.49,0.06,0.62,0.32c-0.38,1.11-1.54,1.34-2.28,2.04c-0.84,1-1.77,1.91-2.85,2.66
		c-0.63,0.29-1.04,0.97-1.81,1.01c-0.1-0.09-0.2-0.19-0.3-0.28C7.24,7.89,9.44,5.97,11.65,4.05z"/>
	<path class="st15" d="M23.27,29.7c-0.08-2.85-0.08-2.78,2.75-2.87c7.46-0.24,14.91-0.22,22.37-0.22c0.52,0,1.04,0.03,1.55,0.04
		c0.23,0.26,0.3,0.57,0.24,0.89c-0.45,2.58-0.5,5.21-0.98,7.79c-0.34,0.74-0.96,1.11-1.74,1.23c-0.54-0.2-0.59-0.71-0.72-1.16
		c-0.18-0.59-0.5-1.07-0.94-1.49c-0.62-0.6-1.35-0.89-2.17-0.59c-0.83,0.31-0.75,1.1-0.84,1.81c-0.24,2.02-0.29,4.03,0.26,6.02
		c-0.34,0.68-0.78,1.25-1.54,1.49c-0.24,0.03-0.46,0.11-0.69,0.19c-1.81,0.66-2.94,0.02-3.15-1.93c-0.19-1.78-0.25-3.58,0.57-5.34
		c-0.66,0.46-0.66,0.46-0.84,1.02c-0.52,1.63-0.49,3.31-0.24,4.97c0.21,1.4,1.16,2.22,2.57,2.45c0.41,0.31,0.22,0.66-0.02,0.92
		c-2.76,3.01-5.25,6.26-8,9.28c-0.05,0.06-0.13,0.09-0.2,0.13c-0.11,0.04-0.22,0.06-0.34,0.06c-0.12-0.02-0.24-0.04-0.34-0.11
		c-1.49-0.97-1.44-0.95-2.35,0.66c-0.33,0.6-0.36,1.69-1.55,1.37c-0.8-1.37-0.91-2.94-1.29-4.43c-0.12-0.46-0.22-0.92-0.43-1.35
		c-0.12-1.25-0.31-2.49-0.02-3.74c0.15-0.08,0.3-0.07,0.46-0.04c2.08,0.4,2.81,0,3.46-1.9c0.76-2.22,0.37-3.5-1.34-4.39
		c-2.38-1.24-2.51-2.37-0.49-4.14c0.23-0.2,0.52-0.35,0.59-0.72c-1.77,0.37-2.98,2.24-2.53,3.85c0.24,0.85,0.97,1.11,1.65,1.43
		c1.9,0.9,2.36,2.2,1.45,4.09c-0.64,1.35-1.4,1.59-3.32,1.07c-0.27-0.27-0.41-0.6-0.44-0.96c-0.43-4.94-1.64-9.8-1.53-14.8
		C23.17,30.08,23.16,29.88,23.27,29.7z"/>
	<path class="st16" d="M22.06,65.29c-0.11,0.44,0.23,1.04-0.24,1.32c-0.55,0.32-0.93-0.27-1.34-0.52c-0.46-0.29-0.87-0.66-1.31-1
		c-0.38-0.52-0.36-1.12-0.36-1.71c-0.01-2.5,0.01-4.99-0.01-7.49c-0.01-0.47,0-0.95-0.15-1.41c-0.16-4.04-0.07-8.07-0.04-12.11
		c-0.08-1.11,0.09-2.22-0.06-3.33c0.65-2.28,1.54-4.45,2.9-6.74c0.33,0.72,0.26,1.15,0.26,1.56c0.01,6.75,0,13.5,0.01,20.25
		c0,0.43-0.09,0.88,0.09,1.3c0.02,0.08,0.05,0.15,0.07,0.23c0.14,0.15,0.25,0.33,0.25,0.53c0.07,2.61,0.26,5.23-0.12,7.84
		C21.97,64.45,21.89,64.87,22.06,65.29z"/>
	<path class="st17" d="M20.64,24.48c-1.47-0.37-2.94-0.74-4.41-1.11c0.01-0.12,0.02-0.24,0.04-0.36c0.91,0,1.82,0.03,2.73-0.01
		c1.29-0.05,2.54-0.02,3.8,0.41c0.84,0.28,1.8,0.17,2.7-0.11c0.53-0.16,1.09-0.18,1.63-0.3c0.57-0.13,1.44,0.12,1.3-1.01
		c-0.02-0.2,0.39-0.16,0.63-0.13c3.12,0.3,6.22,0.8,9.31,1.3c1.89,0.31,3.76,0.68,5.61,1.14c0.36,0.09,0.83,0.07,0.91,0.61
		c-1.2,0.02-2.4,0.06-3.6,0.04c-5.12-0.09-10.23,0.23-15.34,0.26C24.13,25.25,22.39,24.85,20.64,24.48z"/>
	<path class="st18" d="M48.93,35.51c0.34-2.96,0.67-5.91,1.01-8.87c0.08-0.01,0.16-0.03,0.23-0.04c1.8-0.08,1.75-0.09,1.58,1.67
		c-0.15,1.52-0.49,3.03-0.37,4.57c-0.27,2.32-0.49,4.64-0.49,6.97c-0.24,1.43-0.26,2.87-0.26,4.31c-0.27,0.52-0.16,1.09-0.19,1.65
		c-0.07,1.34-0.66,1.83-1.98,1.64c-0.66-0.08-0.67-0.54-0.65-1.05c0.08-3.06,0.44-6.1,0.61-9.16C48.44,36.6,48.67,36.05,48.93,35.51
		z"/>
	<path class="st19" d="M21.82,55.42c-0.37-0.41-0.2-0.92-0.2-1.38c-0.01-7.05-0.01-14.1-0.01-21.34c-1.27,2.14-1.94,4.34-2.88,6.42
		c0.15,1.29-0.7,2.29-0.99,3.45c-0.27,0.96-0.7,1.85-1.06,2.77c-0.18,0.47-0.39,1.01-1.11,0.71c-0.54-1.44-0.52-2.88,0.02-4.31
		c-0.35-2.65,0.35-4.86,2.21-6.92c1.5-1.66,2.54-3.74,4.02-5.61C21.82,37.95,21.82,46.69,21.82,55.42z"/>
	<path class="st20" d="M25.39,46.79c0.02,1.29,0.05,2.58,0.07,3.87c0.15,0.23,0.22,0.49,0.22,0.77c0.25,1.47-0.16,2.98,0.32,4.42
		c0.27,0.26,0.71,0.24,0.94,0.56c-1.1,1.04-3.15,0.35-3.64-1.22c-0.44-8.23-0.15-16.46-0.21-24.69c0-0.28-0.01-0.56,0.19-0.8
		c-0.08,3.13,0.59,6.15,1.12,9.2c0.32,1.82,0.32,3.71,0.56,5.56c0.07,0.56,0.17,1.09,0.43,1.59C25.55,46.3,25.53,46.54,25.39,46.79z
		"/>
	<path class="st21" d="M12.77,60.21c-0.02-1.99-0.04-3.99-0.06-5.98c0-3.71,0-7.41,0-11.12c0-0.31,0.05-0.64-0.2-0.91
		c0-2.94,0-5.88,0-8.82c0.32,1.67,1.87,2.91,1.67,4.76c0.05,0.11,0.11,0.21,0.1,0.34c-0.23,4.06,0.85,8.07,0.5,12.14
		c0.04,1.87,0.02,3.74,0.01,5.61c0,0.47,0.02,0.97-0.34,1.35c-0.01,1.06-0.01,2.11-0.02,3.17c-0.01,0.36,0.16,0.83-0.45,0.9
		c-0.25-0.23-0.51-0.47-0.76-0.7c0.3-1.68-0.02-3.39,0.22-4.97c-0.22,0.9-0.06,1.93-0.13,2.94C13.26,59.4,13.44,59.99,12.77,60.21z"
		/>
	<path class="st22" d="M44.88,24.91c-3.13-0.93-6.35-1.36-9.56-1.88c-1.8-0.29-3.59-0.66-5.43-0.76c-0.32-0.02-0.62-0.15-0.84-0.4
		c4.58-0.09,9.17-0.17,13.75-0.27c0.58-0.01,1.07,0.13,1.58,0.41c1.69,0.95,3.4,1.86,5.33,2.9C47.94,24.91,46.41,24.91,44.88,24.91z
		"/>
	<path class="st23" d="M23.29,55.19c0.95,1.19,2.11,1.73,3.63,1.23c0.04-0.1,0.1-0.11,0.19-0.05c0.88-0.37,0.99-1.28,1.36-1.99
		c0.87-1.71,1.02-1.76,2.36-0.44c0.11,0.11,0.24,0.21,0.35,0.31c0.36,0.63-0.09,1.05-0.52,1.2c-0.55,0.2-0.77,0.63-1.08,1
		c-0.78,0.19-1.39,0.55-1.45,1.46c-1.23,1.02-3.14,1.01-4.5-0.07c0.06,2.39-0.1,4.73,0.1,7.07c0.05,0.44,0.02,0.84-0.44,1.06
		c-0.38,0.1-0.43,0.53-0.71,0.72c-0.11-0.81,0.18-1.65-0.27-2.58c-0.33,0.43-0.17,0.83-0.25,1.17c-0.37-0.76-0.17-1.57-0.18-2.35
		c-0.03-2.43,0-4.86,0.01-7.3C22.29,55.3,22.75,55.1,23.29,55.19z"/>
	<path class="st24" d="M16.76,34.28c-0.15,0.37-0.38,0.68-0.79,0.84c-0.28-0.42,0.01-0.77,0.1-1.13c0.63-2.55,1.31-5.08,1.88-7.64
		c0.2-0.88,0.52-1.02,1.31-0.74c0.71,0.25,1.46,0.36,2.19,0.55c0.44,0.11,0.88,0.43,0.33,0.77c-0.67,0.41-0.87,1.12-1.36,1.61
		c-1.81,0.04-2.1,1.48-2.47,2.77C17.64,32.35,17.06,33.25,16.76,34.28z"/>
	<path class="st25" d="M16.36,27.85c-0.49,2.09-0.98,4.18-1.47,6.27c-0.82-2.79-1.38-5.59-1.65-8.45c0.27-0.24,0.52-0.1,0.74,0.06
		c0.66,0.5,1.31,1,2.06,1.35C16.35,27.24,16.54,27.48,16.36,27.85z"/>
	<path class="st26" d="M14.42,50.63c0.07-4.16-0.4-8.32-0.25-12.48c0.5,1.07,0.12,2.19,0.23,3.29c0.05,0.5,0.01,1,0.01,1.73
		c0.5-0.59,0.64-1.19,1.19-1.42c0.18,1.44-0.26,2.91,0.24,4.33c0.47,0.76,0.21,1.63,0.27,2.44c0.16,1.93,0.29,3.87-0.09,5.8
		c-0.61,0.01-0.67,0-0.71-0.7c-0.07-1.26-0.04-2.52-0.01-3.77C15.06,50.11,14.98,50.65,14.42,50.63z"/>
	<path class="st27" d="M25.64,18.57c0.75,0.88,1.46,1.78,1.52,3.02c-0.47,0.47-1.09,0.58-1.7,0.73c-2.02,0.28-2.47-0.24-2.39-2.72
		C23.71,18.7,24.6,18.44,25.64,18.57z"/>
	<path class="st28" d="M16.36,27.85c-0.92-0.9-2.08-1.45-3.11-2.18c-0.09-0.73-0.19-1.47-0.3-2.34c1.37,0.53,2.58,1,3.79,1.46
		c0.4,0.15,0.53,0.38,0.36,0.82C16.81,26.35,16.6,27.11,16.36,27.85z"/>
	<path class="st29" d="M16.76,34.28c0.12-1.38,0.8-2.59,1.18-3.89c0.02-0.08,0.08-0.14,0.09-0.22c0.23-1.38,0.91-2.09,2.39-1.62
		C19.34,30.55,17.99,32.38,16.76,34.28z"/>
	<path class="st30" d="M23.28,19.43c0.05,0.35,0.14,0.7,0.15,1.06c0.01,1.37,0.61,2.04,2.03,1.84c-1.58,0.37-3.02,0.29-4.01-1.25
		c-0.01-0.13-0.02-0.25-0.02-0.38C21.74,19.82,22.36,19.41,23.28,19.43z"/>
	<path class="st31" d="M20.64,24.48c1.81-0.04,3.58,0.2,5.31,0.74C24.07,25.75,22.32,25.35,20.64,24.48z"/>
	<path class="st32" d="M48.3,66.43c-3.61,0.32-7.23,0.69-10.86,0.75c0.05-0.72,0.89-0.53,1.17-1.12c-0.68,0.23-1.25,1.06-2.01,0.34
		c-0.18-1.1,0.63-1.56,1.37-2c0.5-0.3,1.08-0.5,1.66-0.63c-0.76-0.45-2-3.72-1.85-4.91c0.5-0.54,1.05-0.27,1.31,0.15
		c0.54,0.86,1.15,0.67,1.84,0.34c0.24,0.03,0.45,0.15,0.68,0.2c1.86,0.43,2.94-0.56,2.68-2.44c-0.07-0.51-0.31-0.99-0.34-1.51
		c0.09-0.94,0.9-1.38,1.44-2c0.58-0.66,1.24-1.25,1.86-1.87c0.19-0.19,0.35-0.5,0.68-0.38c0.36,0.13,0.36,0.5,0.37,0.81
		c0.05,0.84,0,1.68,0.06,2.52c-0.08,1.87,0.23,3.76-0.19,5.62c-0.6,0.5-1.14,0.26-1.68-0.12c-0.37-0.56-0.13-1.24-0.37-1.83
		c-0.12-0.29-0.23-0.68-0.58-0.66c-0.43,0.03-0.31,0.47-0.34,0.76c-0.06,0.5,0.22,1.01-0.01,1.52c-0.44,0.42-1.09,0.44-1.56,0.79
		c-0.63,1.18-0.56,2.4,0.04,3.52c0.5,0.94,1.51,0.93,2.45,0.85c0.64-0.06,1.09-0.42,1.49-0.9c0.18-0.22,0.33-0.78,0.8-0.27
		C48.65,64.82,48.75,65.64,48.3,66.43z"/>
	<path class="st33" d="M48.3,66.43c-0.02-0.87-0.04-1.73-0.06-2.6c-0.11-1.12-0.11-2.24-0.22-3.36c0.01-1.99,0.01-3.97,0.02-5.96
		c0.19-1.03,0.13-2.06,0.05-3.09c-0.04-0.46,0.01-0.86,0.14-1.28c0.01-0.8,0.3-1.26,1.21-1.18c0.29,0.03,0.6-0.15,0.9-0.24
		c0.01,0.13,0.03,0.27,0.04,0.4c-0.25,1.29,0.06,2.6-0.17,3.89c-0.01,3.85-0.03,7.71-0.02,11.56C50.18,66.41,50.21,66.41,48.3,66.43
		z"/>
	<path class="st34" d="M36.73,66.45c1.03,0.32,1.47-1.05,2.53-0.87c-0.15,1.1-1.19,1.12-1.82,1.6c-0.64,0-1.27,0.01-1.91,0.01
		c-2.23,0.19-4.21-0.47-5.98-1.81c-0.22-0.17-0.43-0.36-0.73-0.36c-1.82-0.89-2.39-2.43-2.24-4.33c0.28-1.32,0.57-2.62,2.23-2.86
		c0.26,0.06,0.51,0.14,0.53,0.47c-1.97,1.54-1.91,4.51,0.14,5.99c2,1.43,4.15,2.37,6.69,2.03C36.37,66.28,36.56,66.32,36.73,66.45z"
		/>
	<path class="st5" d="M50.2,53.02c-0.02-1.3-0.15-2.6,0.17-3.88C50.35,50.43,50.6,51.74,50.2,53.02z"/>
	<path class="st35" d="M19.24,8.61c1.01,1.07,1.63,2.4,2.37,3.64c-0.4,0.9-1.41,1.12-2.01,1.79c-0.44,0.3-0.68,0.9-1.34,0.86
		c-0.71-1.07-1.42-2.14-2.13-3.2c0.28-0.41,0.43-0.9,0.73-1.3C17.59,9.72,18.31,9.03,19.24,8.61z"/>
	<path class="st36" d="M12.73,4.21c1.08-0.81,2.49-0.6,3.39,0.51c0.32,0.4,0.63,0.81,0.94,1.22C16.8,6.83,15.86,7.2,15.5,8.01
		c-0.38,0.4-0.42,1.02-0.91,1.34c-0.51-0.8-1.16-0.52-1.81-0.23c-0.63-0.71-0.63-1.56-0.51-2.41c0.06-0.42,0.14-0.84,0.1-1.27
		C12.35,4.99,12.46,4.58,12.73,4.21z"/>
	<path class="st37" d="M6.94,8.93c1.07-0.8,1.98-1.77,2.9-2.72c0.59,0.39,0.47,1.08,0.67,1.63c0.03,1.02,0.83,1.76,1.01,2.73
		c-0.96,0.52-1.51,1.51-2.37,2.14c-1.13-0.61-1.67-1.68-2.17-2.78C6.82,9.6,6.68,9.27,6.94,8.93z"/>
	<path class="st38" d="M23.28,19.43c-0.62,0.42-1.24,0.84-1.85,1.27c-0.41-0.68-0.82-1.35-1.23-2.03c0.33-0.78,0.84-1.41,1.56-1.86
		c0.8-0.47,1.44-1.28,2.49-1.23c0.56,0.96,1.45,1.76,1.39,3C24.85,18.86,24.07,19.14,23.28,19.43z"/>
	<path class="st39" d="M7.21,9.83c0.33,1.17,1.35,1.88,1.94,2.87C8.43,13.28,7.83,14,6.99,14.45c-0.33,0.18-0.55,0.25-0.78-0.08
		c-1.15-0.72-2.01-1.61-1.98-3.09c0.18-0.17,0.37-0.35,0.55-0.52C5.86,11.16,6.64,10.77,7.21,9.83z"/>
	<path class="st40" d="M11.53,10.57C10.83,9.82,10.3,9,10.3,7.92c0.05-1.53,1.42-1.77,2.38-2.41c-0.07,1.21-0.18,2.41,0.09,3.61
		C12.79,9.97,12.22,10.33,11.53,10.57z"/>
	<path class="st41" d="M21.88,17.07c-0.75,0.33-1,1.19-1.68,1.59c-0.64-1.26-1.29-2.51-1.93-3.77c0.39-0.34,0.77-0.67,1.16-1.01
		C20.44,14.8,20.94,16.1,21.88,17.07z"/>
	<path class="st39" d="M14.59,9.35c0.12-0.55,0.28-1.08,0.74-1.46c0.99,0.27,1.56,1.16,1.67,2.61c-0.24,0.43-0.17,1.09-0.86,1.19
		C15.62,10.91,15.1,10.13,14.59,9.35z"/>
	<path class="st42" d="M7.21,9.83c-0.29,1.49-1.12,1.8-2.43,0.93c0.18-0.23,0.37-0.45,0.55-0.68C5.9,9.75,6.29,9.15,6.94,8.93
		C7.03,9.23,7.12,9.53,7.21,9.83z"/>
	<path class="st43" d="M4.23,11.29c0.28,1.27,1.23,2.11,1.98,3.09C4.7,14.27,3.87,12.98,4.23,11.29z"/>
	<path class="st44" d="M21.88,17.07c-1.3-0.69-1.83-1.97-2.45-3.18c0.61-0.71,1.47-1.07,2.19-1.64c0.55,0.22,0.92,0.62,1.18,1.14
		c0.41,0.44,0.83,0.87,1,1.47c0.15,0.23,0.31,0.47,0.46,0.7C23.47,16.1,22.57,16.41,21.88,17.07z"/>
	<path class="st45" d="M17,10.5c-0.56-0.87-0.65-2.04-1.67-2.61c0.4-0.81,0.99-1.45,1.73-1.95c0.73,0.89,1.46,1.79,2.19,2.68
		C18.65,9.43,17.76,9.89,17,10.5z"/>
	<path class="st46" d="M12.68,5.51c-0.25,0.19-0.13,0.64-0.54,0.72c-0.95,0.19-1.41,0.92-1.84,1.69c-0.36-0.51-0.22-1.16-0.46-1.71
		c0.81-0.62,1.61-1.23,2.42-1.84c0.15-0.05,0.31-0.11,0.46-0.16C12.71,4.64,12.7,5.08,12.68,5.51z"/>
	<path class="st47" d="M23.79,14.87c-0.51-0.37-0.79-0.9-1-1.47C23.43,13.68,23.89,14.09,23.79,14.87z"/>
	<path class="st48" d="M48.93,35.51c-0.26,3.64-0.5,7.27-0.79,10.9c-0.04,0.44-0.1,0.77,0.32,1.01c-0.68,0.07-1.03,0.44-1.23,1.1
		c-0.4,1.3-1.31,2.24-2.28,3.15c-0.8,0.76-1.77,0.59-2.7,0.66c-1.23,0.41-1.53-0.71-2.15-1.31c-0.33-0.41-0.34-1.21-1.02-1.18
		c-0.64,0.03-0.73,0.75-0.96,1.24c-1.07,2.29-3.51,4.03-5.52,3.9c-0.49-0.03-1.09,0.03-1.17-0.71c2.64-3.3,5.36-6.54,8.2-9.68
		c0.1-0.11,0.15-0.27,0.22-0.41c0.59-0.56,1.09-1.22,1.74-1.73c0.55-0.28,0.72-0.97,1.32-1.2c0.44,0.01,0.69,0.35,1,0.59
		c1.22,0.96,2.47,0.65,3.09-0.77c0.48-1.09,0.49-2.24,0.45-3.4c-0.02-0.39-0.19-0.79,0.06-1.16C47.97,36.19,48.45,35.85,48.93,35.51
		z"/>
	<path class="st49" d="M48.22,50.15c-0.02,1.46,0.16,2.92-0.18,4.36c0-0.98,0-1.96,0-3.26c-1.55,1.54-2.91,2.85-3.91,4.48
		c-0.35,0.13-0.71,0.02-1.06,0.01c-1.74-0.04-2.63,0.99-2.35,2.71c0.06,0.34,0.26,0.67,0.11,1.04c-0.17,0.16-0.37,0.3-0.49,0.49
		c-0.38,0.62-0.62,0.42-0.9-0.09c-0.32-0.6-0.68-1.19-1.52-1.09c-0.22,0.03-0.31-0.09-0.35-0.28c0.56-1.28,1.63-2.18,2.45-3.27
		c0.42-0.55,0.88-1.1,1.42-1.56c0.11-0.04,0.22-0.03,0.32,0.04C44.86,54.24,46.67,52.42,48.22,50.15z"/>
	<path class="st23" d="M41.76,53.74c-0.08,0.01-0.15,0.02-0.23,0.02c-1.05,0.09-1.7-0.54-2.15-1.35c-0.45-0.81-0.02-1.46,0.92-1.52
		c0.54,0.63,0.97,1.39,1.94,1.45C43.08,53.14,41.73,53.2,41.76,53.74z"/>
	<path class="st50" d="M26.88,60.71c-0.36,1.89,0.77,3.11,1.94,4.31c-0.72,0.87-1.45,1.75-2.17,2.62c-0.16,0.01-0.31,0.03-0.47,0.04
		c-0.12,0-0.24-0.03-0.36-0.01c-1.34,0.18-2.48,0.07-2.53-1.68c0.08-0.32,0.15-0.64,0.23-0.96c0.8-1.35,1.76-2.6,2.57-3.94
		C26.25,60.82,26.49,60.57,26.88,60.71z"/>
	<path class="st51" d="M15.81,54.46c-0.04-2.21,0.26-4.44-0.2-6.64c-0.13-0.61,0.23-1.16,0.22-1.75c0.9-1.04,1.05-2.44,1.68-3.61
		c0.61,0.65,0.23,1.48,0.38,2.21c-0.02,3.67,0.42,7.34,0.24,11.02c0.04,2.31,0.02,4.62,0.01,6.93c0,0.51,0.04,1.05-0.38,1.46
		c-0.07,0-0.15-0.01-0.22-0.02c-1.44-0.73-2-1.88-1.72-3.48c0.1-0.58,0-1.19-0.02-1.78C15.28,57.34,15.27,55.9,15.81,54.46z"/>
	<path class="st52" d="M17.76,64.07c0.01-2.81,0.01-5.61,0.02-8.42c0.34-0.45,0.29-1.29,1.18-1.19c0.17,0.32,0.24,0.67,0.24,1.04
		c-0.01,3.2-0.02,6.4-0.02,9.6C18.63,64.86,18.2,64.47,17.76,64.07z"/>
	<path class="st53" d="M15.81,54.46c0,1.44-0.01,2.88-0.01,4.32c-0.34,0.42-0.67,0.83-1.06,1.31c-0.29-0.89,0.16-1.75-0.3-2.5
		c-0.01-2.32-0.02-4.64-0.03-6.96c0.36-0.55,0.72-1.11,1.19-1.84c0,1.59-0.01,3,0.01,4.41C15.62,53.63,15.47,54.09,15.81,54.46z"/>
	<path class="st54" d="M12.77,60.21c0.39-0.92,0.12-1.88,0.17-2.82c0.04-0.79,0.13-1.54,0.72-2.24c0,1.82,0.01,3.64-0.01,5.47
		c0,0.22-0.24,0.29-0.44,0.32C12.75,60.89,12.71,60.58,12.77,60.21z"/>
	<path class="st55" d="M40.3,50.89c-1.08,0.74-1.12,1.1-0.27,1.97c0.43,0.43,1,0.61,1.5,0.91c-1.15,1.71-2.6,3.17-3.86,4.79
		c-0.39,0.29-0.69,0.01-0.94-0.21c-0.57-0.51-1.25-0.81-1.92-1.16c-0.19-0.72,0.41-0.93,0.7-1.21c-1.31,0.78-2.8,1.03-4.35,0.35
		c-0.51-0.23-0.9-0.14-1.32,0.13c-0.12,0.02-0.22,0-0.32-0.07c0.2-0.48,0.03-1.23,1.01-1.08c0.25,0.04,0.63-0.55,0.65-1.03
		c0.08,0.01,0.16,0.02,0.24,0.02c1.07,0.75,2.66,0.56,3.89-0.44c1.21-0.98,2.35-2,2.81-3.58c0.13-0.46,0.45-0.93,0.95-0.97
		c0.57-0.05,0.71,0.53,0.93,0.95C40.11,50.45,40.2,50.67,40.3,50.89z"/>
	<path class="st56" d="M47.49,36.53c0.53,1.49,0.39,2.99-0.1,4.44c-0.72,2.13-2.49,2.47-4.02,0.83c-0.16-0.17-0.32-0.36-0.48-0.54
		c-1.02-2.36-0.54-4.8-0.32-7.21c0.11-1.21,1.52-1.69,2.63-1c0.89,0.56,1.64,1.26,1.89,2.37C47.18,35.8,47.19,36.23,47.49,36.53z"/>
	<path class="st57" d="M35.53,40.96c-0.08,0.99-0.11,1.99-0.24,2.98c-0.18,1.39-0.93,1.76-2.19,1.13c-0.96-0.48-1.66-1.23-2.11-2.21
		c-0.84-1.81-1.14-3.73-1.03-5.71c0.02-0.45,0.08-0.96,0.67-0.93c0.51,0.03,0.55,0.52,0.53,0.92c-0.04,1.29,0.14,2.54,0.49,3.78
		c0.17,0.58,0.38,1.14,0.71,1.64c0.38,0.57,0.86,1.29,1.52,1.14c0.47-0.11,0.23-0.98,0.26-1.51c0.09-1.63,0.33-3.26-0.43-4.82
		c-0.19-0.38-0.07-0.87,0.32-1.05c0.46-0.21,0.56,0.33,0.74,0.59C35.58,38.15,35.54,39.55,35.53,40.96z"/>
	<path class="st56" d="M25.39,46.79c0-0.24-0.01-0.48-0.01-0.72c0.17-0.18,0.35-0.27,0.63-0.22c1.55,0.26,1.93,0,2.4-1.63
		c0.47-1.64,0.22-2.31-1.19-2.89c-1.23-0.51-2.33-1.01-2.27-2.66c0.06-1.66,1.01-2.62,2.32-3.34c0.36-0.2,0.88-0.47,1.17,0.03
		c0.23,0.39-0.31,0.57-0.52,0.82c-0.21,0.24-0.47,0.43-0.7,0.65c-1.6,1.55-1.46,2.35,0.58,3.28c2.16,0.99,2.63,3.12,1.25,5.69
		c-0.78,1.46-1.43,1.75-3.02,1.46C25.71,47.18,25.55,47,25.39,46.79z"/>
	<path class="st57" d="M41.58,42.46c-0.32,0.84-0.85,1.46-1.74,1.73c-1.73-0.05-2.77-0.87-3.06-2.72c-0.27-1.74-0.23-3.51,0.37-5.21
		c0.13-0.37,0.35-0.72,0.59-1.03c0.22-0.28,0.52-0.57,0.92-0.3c0.46,0.32,0.07,0.57-0.08,0.89c-0.92,1.84-0.94,3.8-0.42,5.71
		c0.41,1.5,1.26,1.71,2.66,0.93C41.08,42.31,41.33,41.97,41.58,42.46z"/>
	<path class="st58" d="M27.11,56.37c-0.06,0.02-0.12,0.04-0.19,0.05c-0.41-0.01-0.82-0.03-1.23-0.04c-0.27-1.21-0.05-2.43-0.13-3.64
		c-0.03-0.47,0.11-0.95-0.11-1.4c0-0.23,0-0.46,0-0.68c0.69,0.31,0.38,0.97,0.51,1.48C26.36,53.54,26.73,54.96,27.11,56.37z"/>
	<path class="st59" d="M18.96,54.46c-0.6,0.2-0.65,0.94-1.18,1.19c-0.08-3.67-0.16-7.35-0.24-11.02c0.23-0.57,0.3-1.2,0.61-1.74
		c0.18-0.32,0.26-0.77,0.8-0.66C18.95,46.31,18.96,50.39,18.96,54.46z"/>
	<path class="st60" d="M18.95,42.24c-0.76,0.63-0.7,1.73-1.41,2.39c-0.01-0.72-0.02-1.45-0.02-2.17c0.41-1.11,0.81-2.23,1.22-3.34
		C19.24,40.13,18.85,41.2,18.95,42.24z"/>
	<path class="st48" d="M25.45,51.34c0.49,1.66,0.09,3.36,0.24,5.03c-0.54-1.17-0.12-2.41-0.24-3.61
		C25.41,52.29,25.45,51.81,25.45,51.34z"/>
	<path class="st61" d="M26.88,60.71c-1.06,0.86-1.47,2.2-2.3,3.23c-0.32,0.4-0.59,0.83-1.05,1.09c-0.44-0.48-0.22-1.06-0.23-1.6
		c-0.03-1.94-0.01-3.89-0.01-5.9c1.64,0.78,3.23,1.46,4.81,0.04c0.49-0.23,0.7-0.01,0.75,0.46C27.25,58.23,27.2,59.57,26.88,60.71z"
		/>
	<path class="st62" d="M28.85,58.04c-0.17-0.29-0.43-0.43-0.75-0.46c-0.42-1.46,0.73-1.06,1.42-1.2c0.08,0,0.17,0,0.25,0
		c1.31-0.47,2.11,0.28,2.85,1.19c0.17,0.39,0.03,0.67-0.29,0.91c-0.76,0.57-2.2,0.48-3.05-0.18C29.14,58.21,29,58.12,28.85,58.04z"
		/>
	<path class="st63" d="M29.28,58.29c0.85,0.26,1.71,0.31,2.58,0.06c0.42-0.12,0.8-0.22,0.56-0.79c0.66-0.84,1.45-0.98,2.37-0.47
		c0.8-0.11,1.34,0.39,1.89,0.83c0.31,0.24,0.52,0.61,0.97,0.63c0.08,0.09,0.16,0.17,0.24,0.26c0.07,1.56,0.85,2.93,1.37,4.32
		c0.41,1.1-0.04,1.19-0.66,1.37c-1.04,0.3-1.74,0.85-1.9,1.96c-2.93,1.02-7.03-1.11-8.65-3.04c-0.46-0.55-0.63-1.31-0.41-2.03
		c0.14-0.47,0.22-0.94,0.17-1.41C27.71,58.87,28.18,58.32,29.28,58.29z"/>
	<path class="st64" d="M40.82,59.49c-0.71-1.38-0.63-2.61,0.24-3.51c0.73-0.74,1.88-0.84,3.06-0.26c0.92,1.75,0.8,3.08-0.36,3.88
		C42.76,60.29,41.77,60.18,40.82,59.49z"/>
	<path class="st65" d="M43.53,60.47c0.5-0.27,1.02-0.49,1.61-0.47c0.22-0.08,0.39,0.03,0.55,0.14c0.34,0.23,0.75,0.24,1.13,0.34
		c1.12,0.3,1.57,0.99,1.39,2.13c-0.2,1.24-1.6,2.2-3.18,2.17c-0.96-0.02-1.71-0.85-1.79-2.17C43.2,61.91,42.95,61.12,43.53,60.47z"
		/>
	<path class="st2" d="M43.53,60.47c-0.18,1.04-0.13,2.04,0.23,3.05c0.47,1.33,1.46,0.95,2.37,0.78c1.12-0.21,1.89-1.14,1.85-2.16
		c-0.04-1.09-0.75-1.41-1.69-1.41c-0.45,0-0.78-0.12-0.94-0.55c0.37-0.29,0.77-0.38,1.21-0.18c0.41,0.4,1.03,0.1,1.45,0.46
		c0.6,1.09,0.68,2.21,0.22,3.36c-0.83,1.54-1.65,1.95-3.41,1.67c-0.72-0.12-1.23-0.55-1.59-1.16
		C42.69,63.43,42.89,61.05,43.53,60.47z"/>
	<path class="st66" d="M46.56,60c-0.38,0.21-0.79,0.2-1.21,0.18c-0.07-0.06-0.14-0.12-0.21-0.17c-0.26-0.72-0.22-1.47-0.21-2.22
		c0.01-0.28,0.06-0.57,0.37-0.67c0.31-0.1,0.51,0.1,0.7,0.32C46.67,58.19,46.67,59.08,46.56,60z"/>
	<path class="st67" d="M34.8,57.1c-0.83-0.05-1.62,0.09-2.37,0.47c-0.76-0.67-1.62-1.13-2.66-1.2c0.25-0.35,0.41-0.74,1.01-0.57
		c2.87,0.83,2.88,0.81,5.41-0.46C35.92,56.14,35.13,56.44,34.8,57.1z"/>
	<path class="st68" d="M37.41,54.51c0.45,0.16,0.75,0.42,0.7,0.87c-0.05,0.43-0.35,0.73-0.79,0.72c-0.43-0.01-0.59-0.35-0.57-0.75
		C36.76,54.9,37.04,54.66,37.41,54.51z"/>
	<path class="st69" d="M43.24,36.04c0.02-0.32,0.04-0.64,0.05-0.96c0.01-0.57,0.3-0.86,0.85-0.97c0.55-0.11,0.98,0.06,1.19,0.56
		c0.77,1.86,1.2,3.79,0.93,5.82c-0.08,0.6-0.43,1.03-1.11,1.06c-0.72,0.04-1.17-0.37-1.29-1.01c-0.28-1.49-0.47-2.99-0.7-4.49
		C43.19,36.05,43.21,36.05,43.24,36.04z"/>
	<path class="st70" d="M31.95,59.05c0.32-0.17,0.63-0.35,0.95-0.5c1.22-0.57,2.4-0.34,3.36,0.61c0.99,0.98,1.47,2.27,2.07,3.47
		c0.42,0.84-0.52,1.77-1.5,1.57c-0.27-0.05-0.53-0.14-0.81-0.12c-0.16,0.13-0.33,0.22-0.54,0.25c-1.25,0.17-1.55-0.13-1.38-1.41
		c-1.6,0.45-2.78-0.4-3.86-1.35c-0.51-0.44-0.81-0.91,0.05-1.63C30.83,59.49,31.26,59.12,31.95,59.05z"/>
	<path class="st71" d="M31.95,59.05c-0.24,0.38-1.44-0.03-0.86,1.06c0.06,0.11-0.26,0.34-0.55,0.27c-0.78-0.17-0.73,0.09-0.38,0.65
		c0.73,1.13,2.56,1.86,3.79,1.45c0.25-0.08,0.46-0.09,0.66,0.09c0.17,0.16,0.21,0.38,0.06,0.53c-1.22,1.26,0.03,0.91,0.63,0.97
		c0.24,0.02,0.48,0.01,0.72,0.01c0.03,0.97-0.49,1.39-1.58,0.88c-1.37-0.63-2.86-0.94-4.16-1.72c-0.28-0.17-0.6-0.3-0.19-0.69
		c0.25-0.24,0.16-0.52-0.08-0.72c-0.24-0.2-0.44-0.05-0.63,0.11c-0.2,0.17-0.36,0.46-0.69,0.19c-0.36-0.3-0.16-0.55,0.03-0.81
		c0.02-0.03,0.03-0.07,0.05-0.11c0.21-0.67-0.33-1.59,0.37-2.01c0.75-0.45,1.71-0.1,2.58-0.16C31.79,59.03,31.87,59.04,31.95,59.05z
		"/>
	<path class="st72" d="M32.65,60.68c-0.01,0.32-0.1,0.66-0.5,0.65c-0.39-0.01-0.65-0.3-0.67-0.7c-0.02-0.37,0.22-0.6,0.59-0.59
		C32.43,60.04,32.61,60.3,32.65,60.68z"/>
	<path class="st73" d="M34.25,59.25c0.39,0.01,0.7,0.11,0.7,0.5c0,0.35-0.26,0.59-0.59,0.62c-0.36,0.03-0.61-0.22-0.66-0.55
		C33.63,59.42,33.97,59.32,34.25,59.25z"/>
	<path class="st74" d="M37.2,61.78c-0.05,0.37-0.24,0.59-0.63,0.57c-0.26-0.02-0.48-0.17-0.48-0.44c0-0.37,0.25-0.61,0.58-0.66
		C37,61.21,37.16,61.47,37.2,61.78z"/>
</g>
</svg>
