<?xml version="1.0" encoding="utf-8"?>
<!-- Generator: Adobe Illustrator 23.0.2, SVG Export Plug-In . SVG Version: 6.00 Build 0)  -->
<svg version="1.1" id="Camada_1" xmlns="http://www.w3.org/2000/svg" xmlns:xlink="http://www.w3.org/1999/xlink" x="0px" y="0px"
	 viewBox="0 0 95.35 90.77" style="enable-background:new 0 0 95.35 90.77;" xml:space="preserve">
<style type="text/css">
	.st0{fill:#FEFEFE;}
	.st1{fill:#010102;}
	.st2{fill:#113C1F;}
	.st3{fill:#5D1617;}
	.st4{fill:#17522A;}
	.st5{fill:#8E1A1E;}
	.st6{fill:#6A191B;}
	.st7{fill:#C2373A;}
	.st8{fill:#902321;}
	.st9{fill:#5CA362;}
	.st10{fill:#D15055;}
	.st11{fill:#0C4520;}
	.st12{fill:#B2D4B4;}
	.st13{fill:#9F2724;}
	.st14{fill:#71AF6D;}
	.st15{fill:#9DC69D;}
	.st16{fill:#CE757B;}
	.st17{fill:#CD7379;}
	.st18{fill:#B0D0B1;}
	.st19{fill:#9EC59E;}
	.st20{fill:#7EB184;}
</style>
<g>
	<path class="st0" d="M47.29,90.68c-13.4-1.46-26.63-3.48-36.82-13.7C1.21,67.69-3.4,50.89,2.91,37.07
		c2.85-6.24,5.29-12.82,11.61-16.81c3.65-2.31,7.27-4.62,11.31-6.17c1.51-0.58,2.43-1.03,2.75-3.01c1.06-6.64,4.89-9.73,12.77-11
		c3.97-0.64,9.08,2.55,11.5,7.69c1.05,2.24,2.25,2.93,4.71,3.29c13.58,1.99,25.34,7.26,32.31,19.96
		c7.61,13.89,7.44,26.83-1.38,40.22c-7.89,11.97-19.65,16.04-32.6,18.36C53.08,90.1,50.27,91.06,47.29,90.68z"/>
	<path class="st1" d="M46.83,85.58c-12.41-0.67-24.14-3-33.26-12.24C4.12,63.77,3.15,47.57,7.99,36.89
		c5.19-11.45,13.69-17.28,25.29-19.82c1.56-0.34,1.08-0.94,0.7-1.98C32.56,11.21,33.33,8,36.31,6.7c5.53-2.41,7.26-3.05,10.9,1.02
		c0.63,0.71,1.42,1.52,1.56,2.38c0.8,4.92,4.2,5.23,8.33,5.71c20.43,2.37,34.02,16.55,33.33,37.06c-0.17,4.92-1.97,9.28-4.44,13.5
		C77.13,81.47,62.64,84.82,46.83,85.58z"/>
	<path class="st2" d="M14.34,36.56C19.23,26.05,31.47,18.88,40,21.81c-0.34-2.64-0.28-5.26-1.57-7.53
		c-1.33-2.32,0.23-3.21,1.72-4.25c1.73-1.21,3.2-0.76,4.28,0.87c1.39,2.11,2.23,4.5,2.33,7.02c0.07,1.87,0.17,2.52,2.59,2.3
		c5.79-0.53,11.7-0.78,16.95,2.63c0.57,1.03,1.85,0.93,2.6,1.63c0.88,0.81,2,1.76-0.15,2.45c-2.54-0.6-4.79-1.99-7.29-2.71
		c-4.17-1.63-8.47-1.18-12.74-0.74c-4.06,0.41-4.57,0.11-5.07-3.89c-0.13-1.07-0.29-2.13-0.59-3.17c-0.2-0.69-0.38-1.39-1.39-2.45
		c0.54,2.69,1.05,4.81,1.05,6.99c0,2.61-0.79,3.73-3.75,3.8c-4.84,0.11-9.81,0.29-14.09,3.13c3.97,0.36,4.18,0.77,2.49,4.24
		c-1.25,2.56-2.73,5.07-2.52,8.09c0.1,0.84-0.01,1.68-0.01,2.53c-0.07,0.34-0.23,0.63-0.45,0.89c-2.3,1.37-2.68-0.28-2.86-1.92
		c-0.31-2.88,0.33-5.63,1.48-8.27c0.19-0.44,0.06,0.14,0.08-0.33c0.01-0.19-0.38-0.22-0.63-0.07c-1.98,0.73-3.16,2.68-5.15,3.35
		C16.31,36.68,15.35,37.19,14.34,36.56z"/>
	<path class="st3" d="M14.34,36.56c0.97-0.27,1.93-0.55,2.9-0.82c1.05,1.47-0.16,2.42-0.82,3.49c-6.9,11.23-2.45,27.02,9.29,32.98
		C31,74.89,36.66,76.3,42.52,77c1.4,0.59,3.13,0.13,4.35,1.3c-0.16,1.89-1.71,1.48-2.86,1.72c-1.22,0.25-2.55-0.36-3.7,0.47
		c-9.24-1.05-17.64-3.99-24.24-10.87c-7.06-7.36-8.99-21.34-4.24-30.1C12.47,38.35,13.16,37.26,14.34,36.56z"/>
	<path class="st4" d="M69.06,26.53c0.78-2.51-2.93-1.63-2.78-3.68c6.15,1.82,11.09,5.23,14.32,10.9c-1.18,0.92-2.58,0.03-3.82,0.5
		c-1.32,0.19-2.46-0.64-3.73-0.71c-0.14,0.43,0.07,0.74,0.14,1.07c0.3,1.52,0.88,3.31-0.76,4.23c-1.56,0.87-2.61-0.69-3.6-1.65
		c-1.44-1.4-3.03-2.61-4.54-3.92c0.07,0.16,0.23,0.33,0.32,0.57c0.96,2.43,2.72,5.55,0.85,7.35c-1.94,1.87-4.26-1.06-6.12-2.23
		c-3.21-2.03-7.23-2.7-9.8-5.79c-0.34-0.95,0.01-1.71,0.65-2.39c1.75-0.58,2.89,0.66,4.12,1.48c2.06,1.37,3.95,2.98,6.11,4.13
		c-1.17-3.77-4.03-6.73-4.84-10.63c0.22-1.86,1.25-1.75,2.42-0.9c1.42,1.03,2.8,2.12,4.28,3.06c2.69,2,5.43,3.96,7.68,6.7
		c-0.18-1.47-1.37-2.5-1.21-3.92c0.22-0.75,0.79-1.06,1.48-1.19c0.08-0.29,1.07,0.34,0.53-0.35C70.12,28.31,68.73,28.02,69.06,26.53
		z"/>
	<path class="st5" d="M77.05,33.92c1.09-2.05,2.37-0.04,3.55-0.16C91.95,49.8,85,69.25,66.78,76.88c-0.65,0.27-1.32,0.52-1.98,0.78
		c-0.67-1.4-0.67-1.39,0.81-2.4c1.64-1.11,3.87-1.38,4.83-3.44c3.71-3.19,7.43-6.29,9.66-10.89c3.98-8.2,3.1-15.96-1.39-23.58
		C78.08,36.25,76.81,35.45,77.05,33.92z"/>
	<path class="st6" d="M70.55,72.61c0.09,2.18-2.17,1.59-3.05,2.62c-0.8,0.94-3.05,0.25-2.71,2.43c-3.73,2.36-7.86,3.04-12.19,2.91
		c-3.87,0.48-7.74,0.55-11.62-0.02l-0.34,0c0,0-0.34-0.05-0.34-0.05c0.25-1.78,1.65-1.29,2.76-1.42c1.25-0.14,2.64,0.46,3.7-0.68
		c2.1-1.75,4.79-0.77,7.12-1.53c1.22-0.4,2.6-0.05,3.8-0.66c3.43-1.16,7.03-1.83,10.24-3.63C68.73,72.14,69.69,71.84,70.55,72.61z"
		/>
	<path class="st3" d="M41,80.54c3.87,0.01,7.74,0.01,11.61,0.02C48.74,81.6,44.87,81.61,41,80.54z"/>
	<path class="st7" d="M70.55,72.61c-4.04,1.56-7.93,3.56-12.25,4.31c-8.35-0.56-15.92-3.28-22.7-8.19
		c-3.19-2.19-5.86-4.91-8.09-8.06c-3.84-5.39-4.57-11.34-3.07-17.66c0.08-0.18,0.15-0.37,0.21-0.56c3.27-4.13,6.81-7.95,11.54-10.46
		c2.18-1.16,3.65-0.55,4.35,1.88c0.51,1.75,1.32,3.35,2.67,4.61c2.44,2.27,4.21,1.83,5.32-1.31c0.47-1.32-0.08-2.94,1.2-4.02
		c4.31,1.9,8.43,4.15,12.48,6.55c0.97,0.57,1.8,1.57,3.33,1.32c-0.31-3.49-1.28-6.7-3.92-10.4c4.67,2.36,7.17,5.91,10.73,8.26
		c0.87-2.55-0.14-4.47-1.07-6.7c2.26-0.03,3.87,1.39,5.77,1.74c10.86,11.77,7.55,29.26-5.12,37.59
		C71.44,71.83,71.01,72.24,70.55,72.61z"/>
	<path class="st8" d="M24.44,43.01c0.46,5.51-0.2,11.27,3.1,16.2c2.32,3.46,5.38,6.28,8.46,9.06c0,2.79,2.07,4.03,3.95,5.49
		c2.09,1.61,0.93,2.22-0.91,2.5c-7.48-1.38-14.81-3.09-20.11-9.2c-6.19-7.15-9.22-20.93-1.22-29.56c1.54-1.66,2.87-3.52,4.48-5.12
		c0.82-0.39,1.65-0.77,3.22-1.51c-2.39,3.83-3.29,7.28-3.19,11.03C22.28,43.96,23.18,43.66,24.44,43.01z"/>
	<path class="st9" d="M61.97,28.58c-1.77-0.77-3.12-2.11-4.56-3.34c-0.78-0.67-1.22-0.57-1.21,0.53c0.36,3.12,2.06,5.67,3.53,8.31
		c0.55,0.98,1.61,1.83,0.82,3.16c-3.74-1.59-6.6-4.54-10.08-6.55c-0.78-0.23-1.17-1.05-1.93-1.29c-1.63,1.42-1.35,3.41-1.59,5.22
		c-0.19,1.41-0.08,2.92-1.7,3.65c-3.12-0.61-3.92-3.25-4.77-5.7c-0.48-1.38-0.75-2.77-2.16-3.53c-0.84-0.7,0.23-1.16,0.25-2.05
		c-3.46,2.09-5.72,5.19-8.48,7.72c-1.28,1.38-2.97,2.41-3.72,4.25c-0.36,0.91-0.79,1.73-1.91,1.86c-1.84-3.61,1.15-6.2,1.97-9.24
		c0.24-0.87,1.85-1.36,1.2-2.35c-0.76-1.15-2.17-0.55-3.32-0.34c-0.54,0.1-1.05,0.56-1.81,0.03c4.31-4.9,10.19-5.08,15.84-5.05
		c3.19,0.02,3.89-0.75,3.48-3.69c-0.35-2.49-0.9-4.93-1.64-7.48c2.93-0.63,3.52,1.19,3.88,3.27c0.38,2.22,0.01,5.11,1.29,6.49
		c1.5,1.62,4.21-0.63,6.49-0.36c3.38,0.41,6.97-0.74,10.08,1.49c1.73,1.47,4.13,1.73,5.86,3.16c1.11,0.92,2.85,1.35,2.87,3.25
		c-0.51,0.28-1.02,0.56-1.54,0.83C66.1,32.08,64.49,28.89,61.97,28.58z"/>
	<path class="st10" d="M22.2,32.37c-0.68,2.38-2.47,3.99-4,5.78c-2.89,3.39-4.72,7.19-4.55,11.75c0.43,11.94,5.83,20.39,17.23,23.52
		c2.87,0.79,5.79,1.4,8.68,2.09c2.9,0.48,6.19-0.73,9.09,2.08c-2.38,0.6-4.28,0.57-6.2,0.14c-6.31-0.34-12.25-2.06-17.84-4.97
		c-12.04-6.27-16.27-23.82-8.4-34.81c0.48-0.67,1.16-1.24,1.04-2.2C19.15,34.99,19.98,32.66,22.2,32.37z"/>
	<path class="st11" d="M24.45,40.83c0.49-0.68,0.98-1.36,1.46-2.03c1.06-1.88,2.9-3.04,4.26-4.64c2.68-1.8,4.22-5.26,7.96-5.52
		c1.89-0.29,2.78,0.37,2.94,2.43c0.23,2.97,1.71,5.36,4.25,7.03c1.91-0.43,1.51-2.16,1.83-3.42c0.51-2.01,0.25-4.25,1.83-5.93
		c0.97,0.3,1.32,1.07,1.48,1.97c-0.25,0.81-0.5,1.63-0.74,2.44c0.4,3.28-0.24,6.33-3.26,8.02c-1.53,0.86-5.82-3.01-6.47-6.27
		c-0.72-3.61-2.16-2.94-4.46-1.62c-4.21,2.4-6.89,6.56-10.89,9.17C23.7,42.01,24.38,41.38,24.45,40.83z"/>
	<path class="st12" d="M70.64,30.01c-1.49-1.95-3.68-2.92-5.73-4.08c-1.11-0.63-2.49-0.92-3-2.33c2.57,0.52,4.94,1.54,7.15,2.93
		c1.43,1.3,2.86,2.6,4.39,3.99C72.2,31.14,71.53,30.06,70.64,30.01z"/>
	<path class="st13" d="M42.44,77.72c1.64,0,3.28,0,4.92,0c-2.59-1.02-5.38-0.9-7.81-2.22c0.38-0.17,1.6-0.13,0.43-0.81
		c-1.44-0.83-2.6-1.93-3.86-2.95C34.6,70.5,35,69.46,36,68.27c6.75,4.66,14.64,6.37,22.3,8.65c-3.73,1.39-7.63,1.43-11.53,1.48
		C45.33,78.14,43.75,78.83,42.44,77.72z"/>
	<path class="st14" d="M61.97,28.58c2.78-0.52,4.58,2.09,7.14,2.27c1.14,1.55,1.82,3.32,2.7,5.94
		C68.15,33.74,65.06,31.16,61.97,28.58z"/>
	<path class="st15" d="M60.55,37.25c-2.08-4.11-4.17-8.22-6.28-12.38c1.15-0.77,1.18,0.85,1.92,0.9c2.13,4.09,4.26,8.17,6.75,12.96
		C61.75,38,61.15,37.63,60.55,37.25z"/>
	<path class="st16" d="M75.86,46.61c-2.1-0.58-4.44-1.62-4.47-4.43c-0.02-1.82,1.46-3.32,3.54-3.26c2.1,0.06,4.49,3.34,4.29,5.51
		C79.04,46.34,77.81,46.73,75.86,46.61z"/>
	<path class="st17" d="M73.46,49.55c1.23,0.16,2.13,0.74,1.93,2.03c-0.2,1.26-1.09,2.15-2.43,2.12c-1.09-0.02-1.67-0.84-1.67-1.91
		C71.28,50.38,72.1,49.67,73.46,49.55z"/>
	<path class="st18" d="M48.98,28.73c-0.51,2.76-0.33,5.65-1.41,8.31c-0.38,0.94-0.58,2.69-2.24,1.04c0.58-3.02,1.09-6.06,1.79-9.06
		C47.36,27.98,47.93,26,48.98,28.73z"/>
	<path class="st19" d="M38.14,28.63c-2.6,1.96-5.2,3.93-7.8,5.89c-0.35,0.29-0.69,0.27-1-0.06c2.22-2.26,4.43-4.54,6.67-6.79
		c1.3-1.3,2.76-1.64,4.65-0.46C40.14,28.38,38.5,27.54,38.14,28.63z"/>
	<path class="st20" d="M29.34,34.46c0.33,0.02,0.67,0.04,1,0.06c-1.47,1.42-2.95,2.85-4.42,4.28C25.92,36.45,28.1,35.82,29.34,34.46
		z"/>
</g>
</svg>
