<?xml version="1.0" encoding="utf-8"?>
<!-- Generator: Adobe Illustrator 23.0.2, SVG Export Plug-In . SVG Version: 6.00 Build 0)  -->
<svg version="1.1" id="Camada_1" xmlns="http://www.w3.org/2000/svg" xmlns:xlink="http://www.w3.org/1999/xlink" x="0px" y="0px"
	 viewBox="0 0 98.04 92.97" style="enable-background:new 0 0 98.04 92.97;" xml:space="preserve">
<style type="text/css">
	.st0{fill:#010102;}
	.st1{fill:#113C1F;}
	.st2{fill:#5D1617;}
	.st3{fill:#17522A;}
	.st4{fill:#8E1A1E;}
	.st5{fill:#6A191B;}
	.st6{fill:#C23739;}
	.st7{fill:#902321;}
	.st8{fill:#5CA362;}
	.st9{fill:#D15055;}
	.st10{fill:#0C4520;}
	.st11{fill:#B2D4B4;}
	.st12{fill:#9F2724;}
	.st13{fill:#71AF6D;}
	.st14{fill:#9DC69D;}
	.st15{fill:#CE757B;}
	.st16{fill:#CD7379;}
	.st17{fill:#B0D0B1;}
	.st18{fill:#9EC59E;}
	.st19{fill:#7EB184;}
</style>
<g>
	<path class="st0" d="M48.02,86.99c-12.35-0.53-23.95-3.05-33.17-12.2C6.9,66.9,4.41,50.9,8.58,40.54
		c4.91-12.19,13.4-19.39,26.13-21.86c1.41-0.27,1.28-0.72,0.84-1.92c-1.46-3.97-0.74-7.12,2.21-8.42c5.63-2.49,7.45-3.13,11.14,1.2
		c0.76,0.89,1.55,1.99,1.73,3.09c0.73,4.28,3.77,4.4,7.19,4.72c20.8,1.94,34.85,16.5,34.13,37.03c-0.17,4.92-1.96,9.28-4.4,13.52
		c-8,13.92-21.17,17.99-35.93,19.09C50.43,87.07,49.22,86.99,48.02,86.99z"/>
	<path class="st1" d="M15.86,38.16c4.89-10.51,17.13-17.68,25.66-14.75c-0.34-2.64-0.28-5.26-1.57-7.53
		c-1.33-2.32,0.23-3.21,1.72-4.25c1.73-1.21,3.2-0.76,4.28,0.87c1.39,2.11,2.23,4.5,2.33,7.02c0.07,1.87,0.17,2.52,2.59,2.3
		c5.79-0.53,11.7-0.78,16.95,2.63c0.57,1.03,1.85,0.93,2.6,1.63c0.88,0.81,2.01,1.76-0.15,2.45c-2.54-0.6-4.79-1.99-7.29-2.71
		c-4.17-1.63-8.47-1.18-12.74-0.74c-4.06,0.41-4.56,0.11-5.08-3.89c-0.23-1.77-0.42-3.56-1.67-5.08c0.24,2.15,0.75,4.27,0.74,6.46
		c0,2.61-0.79,3.73-3.75,3.8c-4.84,0.11-9.81,0.29-14.1,3.13c3.97,0.36,4.18,0.77,2.5,4.24c-1.25,2.56-2.73,5.07-2.52,8.09
		c0.1,0.84-0.01,1.68-0.01,2.53c-0.07,0.34-0.22,0.63-0.45,0.89c-2.3,1.37-2.68-0.28-2.86-1.92c-0.31-2.88,0.33-5.63,1.48-8.27
		c0.19-0.44,0.06,0.14,0.08-0.33c0.01-0.19-0.38-0.22-0.63-0.07c-1.98,0.73-3.16,2.68-5.15,3.35C17.83,38.28,16.87,38.8,15.86,38.16
		z"/>
	<path class="st2" d="M15.86,38.16c0.97-0.27,1.93-0.55,2.9-0.82c1.05,1.47-0.16,2.42-0.82,3.49c-6.9,11.23-2.45,27.02,9.29,32.98
		c5.29,2.68,10.95,4.1,16.81,4.79c1.4,0.59,3.13,0.13,4.35,1.3c-0.16,1.89-1.71,1.48-2.86,1.72c-1.22,0.25-2.55-0.36-3.7,0.47
		c-9.24-1.05-17.64-3.99-24.24-10.87c-7.06-7.36-8.99-21.34-4.24-30.1C13.99,39.95,14.68,38.86,15.86,38.16z"/>
	<path class="st3" d="M70.58,28.14c0.78-2.51-2.93-1.63-2.78-3.68c6.15,1.82,11.09,5.23,14.32,10.9c-1.18,0.92-2.58,0.03-3.82,0.5
		c-1.32,0.19-2.46-0.64-3.73-0.72c-0.14,0.43,0.07,0.74,0.14,1.07c0.3,1.52,0.88,3.31-0.76,4.23c-1.56,0.87-2.61-0.69-3.6-1.65
		c-1.44-1.4-3.04-2.61-4.54-3.92c0.07,0.16,0.23,0.33,0.32,0.57c0.96,2.43,2.72,5.55,0.85,7.36c-1.94,1.87-4.26-1.06-6.12-2.23
		c-3.21-2.03-7.23-2.7-9.8-5.79c-0.34-0.95,0.01-1.71,0.65-2.39c1.75-0.58,2.89,0.66,4.12,1.48c2.06,1.37,3.95,2.98,6.11,4.13
		c-1.17-3.77-4.03-6.73-4.84-10.63c0.22-1.86,1.25-1.75,2.42-0.9c1.42,1.03,2.8,2.12,4.28,3.06c2.69,2.01,5.44,3.94,7.68,6.73
		c-0.19-1.51-1.37-2.53-1.21-3.96c0.22-0.75,0.79-1.06,1.48-1.19c0.08-0.29,1.07,0.34,0.53-0.35
		C71.64,29.91,70.25,29.62,70.58,28.14z"/>
	<path class="st4" d="M78.57,35.52c1.09-2.05,2.37-0.04,3.55-0.16c11.35,16.05,4.4,35.49-13.83,43.12
		c-0.65,0.27-1.32,0.52-1.98,0.78c-0.67-1.4-0.67-1.39,0.81-2.4c1.64-1.11,3.87-1.38,4.83-3.44c3.71-3.19,7.43-6.29,9.66-10.89
		c3.98-8.2,3.1-15.96-1.39-23.58C79.59,37.85,78.33,37.06,78.57,35.52z"/>
	<path class="st5" d="M72.07,74.22c0.09,2.18-2.17,1.59-3.05,2.62c-0.8,0.94-3.05,0.25-2.71,2.43c-3.73,2.36-7.86,3.04-12.19,2.91
		c-3.87,0.48-7.74,0.55-11.62-0.02l-0.34,0c0,0-0.34-0.05-0.34-0.05c0.25-1.78,1.65-1.29,2.76-1.42c1.25-0.14,2.64,0.46,3.7-0.68
		c2.1-1.75,4.79-0.77,7.12-1.53c1.22-0.4,2.6-0.05,3.8-0.66c3.43-1.16,7.03-1.83,10.24-3.63C70.25,73.74,71.21,73.45,72.07,74.22z"
		/>
	<path class="st2" d="M42.52,82.15c3.87,0.01,7.74,0.01,11.61,0.02C50.26,83.2,46.39,83.21,42.52,82.15z"/>
	<path class="st6" d="M72.07,74.22c-4.04,1.56-7.93,3.56-12.25,4.31c-8.35-0.56-15.92-3.28-22.7-8.19
		c-3.19-2.19-5.86-4.91-8.09-8.06c-3.84-5.39-4.57-11.34-3.07-17.66c0.08-0.18,0.15-0.37,0.21-0.56c3.27-4.12,6.81-7.95,11.54-10.46
		c2.18-1.16,3.65-0.55,4.35,1.88c0.51,1.75,1.32,3.35,2.67,4.61c2.44,2.27,4.21,1.83,5.32-1.31c0.47-1.32-0.08-2.94,1.2-4.02
		c4.31,1.9,8.43,4.15,12.48,6.55c0.97,0.57,1.8,1.57,3.33,1.31c-0.31-3.49-1.28-6.7-3.92-10.4c4.67,2.36,7.17,5.91,10.73,8.26
		c0.87-2.55-0.14-4.47-1.07-6.7c2.26-0.03,3.87,1.39,5.77,1.74c10.86,11.77,7.55,29.26-5.12,37.59
		C72.96,73.44,72.53,73.85,72.07,74.22z"/>
	<path class="st7" d="M25.96,44.62c0.46,5.51-0.2,11.27,3.1,16.2c2.32,3.46,5.38,6.28,8.46,9.06c0.43,2.39,1.8,4.05,3.81,5.37
		c1.83,1.2,1.7,2.22-0.61,2.61c-7.52-1.3-14.85-3.04-20.2-9.13c-6.25-7.11-9.3-20.99-1.3-29.62c1.54-1.66,2.87-3.53,4.49-5.14
		c0.82-0.39,1.65-0.77,3.22-1.51c-2.39,3.83-3.29,7.28-3.19,11.03C23.8,45.56,24.7,45.26,25.96,44.62z"/>
	<path class="st8" d="M62.07,38.86c-3.74-1.59-6.6-4.54-10.08-6.55c-0.78-0.23-1.16-1.05-1.93-1.29c-1.63,1.42-1.35,3.41-1.59,5.22
		c-0.19,1.41-0.08,2.92-1.7,3.65c-3.12-0.61-3.92-3.25-4.77-5.7c-0.48-1.38-0.75-2.77-2.16-3.53c-0.7-0.68,0.01-1.19,0.83-2.4
		c-4.03,2.43-6.3,5.54-9.06,8.07c-1.28,1.38-2.97,2.41-3.72,4.25c-0.36,0.91-0.79,1.73-1.91,1.86c-1.85-3.61,1.15-6.2,1.97-9.24
		c0.24-0.87,1.85-1.36,1.2-2.35c-0.76-1.15-2.17-0.54-3.32-0.34c-0.54,0.1-1.04,0.59-1.78,0c4.28-4.87,10.16-5.05,15.81-5.02
		c3.19,0.02,3.89-0.75,3.48-3.69c-0.35-2.49-0.9-4.93-1.64-7.48c2.93-0.63,3.52,1.19,3.88,3.27c0.38,2.22,0.01,5.11,1.29,6.49
		c1.5,1.62,4.21-0.63,6.49-0.36c3.38,0.41,6.97-0.74,10.08,1.49c1.73,1.47,4.13,1.73,5.86,3.16c1.11,0.92,2.85,1.35,2.87,3.25
		c-0.51,0.28-1.02,0.56-1.54,0.83c-3.01,1.23-4.61-1.96-7.14-2.27c-1.77-0.77-3.12-2.11-4.56-3.34c-0.78-0.67-1.22-0.57-1.21,0.53
		c0.36,3.12,2.06,5.67,3.53,8.31C61.79,36.68,62.85,37.53,62.07,38.86z"/>
	<path class="st9" d="M23.71,33.97c-0.68,2.38-2.47,3.99-4,5.78c-2.89,3.39-4.72,7.19-4.55,11.75c0.43,11.94,5.83,20.39,17.23,23.52
		c2.87,0.79,5.79,1.4,8.68,2.09c6.78,0.28,6.78,0.28,8.79,2.16c-2.08,0.52-3.98,0.49-5.9,0.06c-6.31-0.34-12.25-2.06-17.84-4.97
		c-12.04-6.27-16.27-23.82-8.4-34.81c0.48-0.67,1.16-1.24,1.04-2.2C20.67,36.6,21.5,34.27,23.71,33.97z"/>
	<path class="st10" d="M50.5,30.34c0.97,0.3,1.32,1.07,1.48,1.97c-0.25,0.81-0.5,1.63-0.74,2.44c0.4,3.28-0.24,6.33-3.26,8.02
		c-1.53,0.86-5.82-3.01-6.47-6.27c-0.72-3.61-2.16-2.94-4.46-1.62c-4.21,2.4-6.89,6.56-10.89,9.17c-0.94-0.44-0.26-1.06-0.19-1.62
		c0.49-0.68,0.98-1.36,1.46-2.03c1.06-1.88,2.9-3.04,4.26-4.64c2.68-1.8,4.22-5.26,7.96-5.52c1.89-0.29,2.78,0.37,2.94,2.43
		c0.23,2.97,1.71,5.36,4.25,7.03c1.91-0.43,1.51-2.16,1.83-3.42C49.19,34.26,48.93,32.02,50.5,30.34z"/>
	<path class="st11" d="M72.16,31.62c-1.49-1.95-3.68-2.92-5.73-4.08c-1.11-0.63-2.49-0.92-3-2.33c2.57,0.52,4.94,1.54,7.15,2.93
		c1.43,1.3,2.86,2.6,4.39,3.99C73.72,32.74,73.05,31.67,72.16,31.62z"/>
	<path class="st12" d="M43.96,79.32c1.64,0,3.28,0,4.92,0c-2.59-1.02-5.38-0.9-7.81-2.22c2.05-1.2-0.27-1.08-0.5-1.31
		c-1.68-1.65-4.91-2.44-3.06-5.92c6.75,4.66,14.64,6.37,22.3,8.65c-3.73,1.39-7.63,1.43-11.53,1.48
		C46.85,79.74,45.27,80.44,43.96,79.32z"/>
	<path class="st13" d="M63.49,30.19c2.78-0.52,4.58,2.09,7.14,2.27c0.87,1.68,1.73,3.36,2.6,5.03c-0.16,0.14-0.31,0.29-0.47,0.43
		C69.67,35.34,66.58,32.76,63.49,30.19z"/>
	<path class="st14" d="M62.07,38.86c-2.08-4.11-4.17-8.22-6.28-12.38c1.15-0.77,1.18,0.85,1.92,0.9c2.13,4.09,4.26,8.17,6.75,12.96
		C63.27,39.61,62.67,39.23,62.07,38.86z"/>
	<path class="st15" d="M77.25,48.2c-2-0.69-4.44-1.65-4.33-4.52c0.07-1.77,1.5-3.33,3.64-3.15c2.13,0.18,4.46,3.51,4.16,5.62
		C80.5,47.76,79.5,48.43,77.25,48.2z"/>
	<path class="st16" d="M74.97,55.37c-1.55-0.08-2.17-0.84-2.16-2.06c0.01-1.23,0.73-2,1.94-2.1c1.22-0.11,2.16,0.48,2.18,1.75
		C76.97,54.33,75.84,54.89,74.97,55.37z"/>
	<path class="st17" d="M50.5,30.34c-0.51,2.76-0.33,5.65-1.41,8.31c-0.38,0.94-0.58,2.69-2.24,1.04c0.58-3.02,1.09-6.06,1.79-9.06
		C48.88,29.58,49.45,27.61,50.5,30.34z"/>
	<path class="st18" d="M39.66,30.23c-2.6,1.96-5.2,3.93-7.8,5.89c-0.35,0.29-0.69,0.27-1-0.06c2.22-2.26,4.43-4.54,6.67-6.79
		c1.3-1.3,2.76-1.64,4.65-0.46C41.65,29.99,40.02,29.14,39.66,30.23z"/>
	<path class="st19" d="M30.86,36.06c0.33,0.02,0.67,0.04,1,0.06c-1.47,1.42-2.95,2.85-4.42,4.28
		C27.43,38.05,29.62,37.43,30.86,36.06z"/>
</g>
</svg>
