<?xml version="1.0" encoding="utf-8"?>
<!-- Generator: Adobe Illustrator 23.0.2, SVG Export Plug-In . SVG Version: 6.00 Build 0)  -->
<svg version="1.1" id="Camada_1" xmlns="http://www.w3.org/2000/svg" xmlns:xlink="http://www.w3.org/1999/xlink" x="0px" y="0px"
	 viewBox="0 0 83.07 122.37" style="enable-background:new 0 0 83.07 122.37;" xml:space="preserve">
<style type="text/css">
	.st0{fill:#FEFEFE;}
	.st1{fill:#464646;}
	.st2{fill:#010002;}
	.st3{fill:#321745;}
	.st4{fill:#223617;}
	.st5{fill:#501A6C;}
	.st6{fill:#461C5F;}
	.st7{fill:#3C1C51;}
	.st8{fill:#2E4A24;}
	.st9{fill:#3D1C53;}
	.st10{fill:#451B5E;}
	.st11{fill:#723488;}
	.st12{fill:#7B418D;}
	.st13{fill:#4F183F;}
	.st14{fill:#793E8C;}
	.st15{fill:#536E31;}
	.st16{fill:#571C45;}
	.st17{fill:#672252;}
	.st18{fill:#541B44;}
	.st19{fill:#521A41;}
	.st20{fill:#5B1D48;}
	.st21{fill:#7C428E;}
	.st22{fill:#7A3F8C;}
	.st23{fill:#7C428F;}
	.st24{fill:#743789;}
	.st25{fill:#793C8C;}
	.st26{fill:#77388B;}
	.st27{fill:#531A42;}
	.st28{fill:#5E1E4D;}
	.st29{fill:#501841;}
	.st30{fill:#591C4A;}
	.st31{fill:#6C2E80;}
	.st32{fill:#D6A0C5;}
	.st33{fill:#B37FB7;}
	.st34{fill:#6E2F84;}
	.st35{fill:#88B237;}
	.st36{fill:#7AAB3A;}
	.st37{fill:#587532;}
	.st38{fill:#7BB13C;}
	.st39{fill:#628436;}
	.st40{fill:#935D9B;}
	.st41{fill:#7D2B64;}
	.st42{fill:#852F6A;}
	.st43{fill:#EED0E3;}
	.st44{fill:#8B316D;}
	.st45{fill:#8D5699;}
	.st46{fill:#E7CEE1;}
	.st47{fill:#862D6E;}
	.st48{fill:#E3BEDA;}
	.st49{fill:#9F649F;}
	.st50{fill:#864E94;}
	.st51{fill:#844C93;}
	.st52{fill:#74275C;}
	.st53{fill:#7B2C64;}
	.st54{fill:#702963;}
	.st55{fill:#C692BD;}
	.st56{fill:#895296;}
	.st57{fill:#23391C;}
	.st58{fill:#B383B1;}
	.st59{fill:#D79FC2;}
	.st60{fill:#698E39;}
	.st61{fill:#5B7934;}
	.st62{fill:#7DAE39;}
	.st63{fill:#E7BDD6;}
	.st64{fill:#EAC4DB;}
</style>
<g>
	<path class="st0" d="M0.74,56.04c1.02-3.7,2.27-7.21,4.66-10.39c3.52-4.67,8.44-6.4,14.46-7.41c-2.34-2.32-4.18-4.15-6.02-5.98
		c-6.25-6.25-5.62-13.43,1.43-18.96c4.67-3.66,9.58-4.78,15.03-2.28c1.35,0.62,1.68,0.41,2.36-0.82c2.85-5.15,7.1-6.78,12.99-5.7
		c3.49,0.64,7.32-0.61,10.26-2.45c7.65-4.77,15.63-0.61,17.21,6.59c0.2,0.91,0.46,2.04,1.1,2.59c6.57,5.61,4.33,12.55,2.91,19.29
		c-0.3,1.42-0.39,2.26,0.67,3.43c3.77,4.15,5.24,9.06,4.13,14.62c-0.23,1.13,0,2.15,0.3,3.18c1.06,3.67,1.2,7.39-0.1,10.96
		c-2.12,5.81-2.12,11.73-2.19,17.83c-0.09,7.95,0.4,15.89,0.16,23.83c-0.22,7.37-3.66,13.09-10.12,16.23
		c-6.24,3.03-12.63,2.15-18.25-2.24c-0.96-0.75-1.91-1.37-3.12-1.67c-6.52-1.59-10.69-5.8-13.57-11.74
		c-1.51-3.1-4.29-5.39-7.13-7.27c-3.49-2.3-6.58-4.81-8.05-8.84c-0.42-1.14-1.37-1.6-2.15-2.31c-3.28-2.99-6.68-5.91-7.52-10.63
		c-0.16-0.9-0.81-1.42-1.46-1.96c-4.07-3.39-7.05-7.48-8.01-12.83C-0.24,59.41-0.25,57.73,0.74,56.04z"/>
	<path class="st1" d="M0.73,61.1"/>
	<path class="st2" d="M32.97,18.78c1.36-2.52,3.02-4.38,4.08-6.71c1.2-2.65,3.68-3.98,6.56-3.15c5.61,1.61,10.41-0.99,15.08-3.04
		c4.34-1.91,7.83-1.3,9.54,3.19c1.04,2.74,2.59,5.05,4.23,7.49c2.82,4.21,1.72,9.48-0.54,13.89c-1.18,2.31-1.12,3.4,0.79,5.03
		c4.15,3.54,5.98,8.02,4.36,13.49c-0.31,1.03,0.11,1.82,0.3,2.74c0.92,4.51,1.08,8.93-0.91,13.33c-1.82,4.04-1.31,8.47-1.31,12.78
		c0,1.43,0.6,2.99,0.19,4.26c-1.85,5.83,0.91,11.61-0.17,17.58c-0.62,3.43,0.45,7.25-1.32,10.75c-3.88,7.63-13.3,9.5-19.68,3.77
		c-1.21-1.09-2.43-1.56-4.02-1.93c-5.36-1.24-9.2-4.53-10.83-9.88c-0.42-1.39-1.09-2.08-2.12-2.97c-3.38-2.89-6.49-6.1-10.31-8.47
		c-0.59-0.37-1.31-0.94-1.46-1.55c-1.06-4.53-5.03-6.6-7.91-9.58c-1.1-1.14-2.26-2.4-2.43-3.91c-0.35-3.14-2.32-4.9-4.53-6.77
		c-5.19-4.38-6.44-9.96-3.97-16.21c2.48-6.28,7.38-9.46,14.04-10.04c0.94-0.08,1.92-0.37,2.81-0.2c1.91,0.37,2.54-1.22,3.32-2.2
		c0.94-1.17-0.7-1.79-1.24-2.58c-2.19-3.18-5.1-5.71-7.79-8.43c-3.81-3.86-4.48-7.32-1.97-10.36c3.91-4.72,9.35-6.02,13.63-3.18
		C30.56,16.71,31.62,17.7,32.97,18.78z"/>
	<path class="st3" d="M69.14,109.31c-3.69,4.71-7.64,5.15-12.12,1.22c-1.31-1.15-2.77-1.87-4.4-2.29c-5.16-1.31-8.93-3.93-9.4-9.75
		c-0.02-0.24-0.05-0.65-0.16-0.67c-4.88-1.27-5.88-7.37-10.75-8.63c-2.23-0.57-3.61-2.26-3.95-4.24c-0.46-2.7-1.9-4.04-4.18-5.25
		c-3.04-1.61-5.21-4.05-5.6-7.8c-0.2-1.99-1.09-3.55-3.17-4.73c-4.71-2.66-6.53-7.71-5-12.24c1.66-4.94,5.2-7.01,10.99-7.13
		c2.85-0.06,6.28,0.67,7.88-3.24c0.56-1.38,2.3-2.03,3.93-2.21c0.75-0.69,1.64-0.86,2.62-0.74c0.37,0.05,0.73,0.16,1.08,0.3
		c1.13,0.66,2.32,1.27,3.32,2.12c0.83,0.71,1.75,1.6,0.02,2.42c-1.61,0.22-3.16-0.41-4.76-0.28c-4.33,0.33-4.86,0.88-6.09,6.38
		c-0.25,0.5-0.63,0.84-1.19,0.96c-3.17-1.12-6.14-3.35-9.8-1.74c-4.21,2.27-6.03,5.88-4.45,8.89c2.11,4.02,8.05,6.48,11.67,4.84
		c1.78-0.8,2.26-2.34,2.41-4.1c0.53-1.9,0.49-3.89,0.88-5.81c2.47-2.45,2.61,0.81,3.79,1.54c0.52,1.34,0.16,2.71,0.14,4.07
		c-0.4,1.84-1.21,3.52-1.98,5.21c-0.48,0.84-1.25,1.39-1.96,2.01c-0.89,0.77-1.98,1.49-1.5,2.91c0.46,1.35,1.61,1.95,2.91,2.32
		c2.9,0.83,5.25-0.73,7.73-1.74c1.15-0.08,2.42-0.95,3.35,0.48c0.15,1.01-0.46,1.62-1.14,2.2c-1.61,1.65-4.14,2.18-5.29,4.38
		c0.86,3.6,4.59,5.72,8,4.53c1.11-0.39,2.01-1.24,3.21-1.42c3.37,0.39,6.03,2.08,8.31,4.49c0.57,0.7,0.93,1.49,1.08,2.38
		c0.6,3.46,1.78,4.08,4.68,2.39c0.82-0.48,1.51-1.18,2.51-1.3c0.74,0.01,1.35,0.21,1.62,0.98c-0.13,1.97-1.36,3.23-3.01,3.88
		c-1.35,0.53-1.01,1.26-0.74,2.15c0.07,2.32,1.14,3.13,3.35,2.28c0.86-0.33,1.7-0.72,2.65-0.72c3.88,1.93,4.88,4.23,3.48,7.99
		C69.75,107.52,69.15,108.32,69.14,109.31z"/>
	<path class="st4" d="M35.95,42.35c-0.92,0-1.84,0.01-2.76,0.01c-0.69-4.57-4.27-7.32-6.86-10.66c-1.6-2.07-3.69-3.75-5.51-5.66
		c-1.17-1.23-3.3-2.48-1.08-4.34c1.85-1.55,3.5-4.42,6.69-2.29c4.1,2.75,7.24,6.51,11.01,10.77c0-1.85,0.24-3.14-0.04-4.31
		c-1.16-4.77,2.01-8.09,3.87-11.81c0.98-1.96,2.33-0.84,2.97,0.34c1.31,2.4,2.38,1.87,4.04,0.29c2.45-2.34,5.9-2.35,8.96-3.26
		c0.56-0.17,1.19-0.12,1.79-0.13c1.65-0.02,2.96-2.9,4.3-1.41c1.68,1.88,2.53,4.57,2.22,7.34c-0.09,0.81-0.12,1.63-0.18,2.35
		c1.31,1.41,3.14-2.09,3.49,0.01c0.45,2.72,1.56,5.95-1.07,8.44c-1.06,0.15-1.97,0.08-1.96-1.34c-0.16-1.08,0.97-2.65-1.38-2.84
		c-3.43-0.28-3.42-0.39-2.41-4.06c0.43-1.02,0.46-2.09,0.34-3.17c-0.22-1.9-1.15-2.63-3.15-2.39c-5.31,0.63-9.84,2.63-13.19,6.93
		c-2.01,0.77-2.46-1.23-3.89-2.51c-2.54,5.24-1.57,10.35-1.15,15.41c0.83,2.12,2.96,3.62,2.91,6.15c-0.09,0.74-0.32,1.39-1.08,1.7
		c-1.81,0.08-2.28-1.49-3.11-2.57c-3.9-5.1-7.43-10.5-12.29-14.8c-0.95-0.84-1.65-2.12-3.22-1.9c-1.97,1.58-0.16,2.52,0.71,3.37
		c3.29,3.27,6.58,6.54,8.95,10.56C34.9,38.33,36.59,39.95,35.95,42.35z"/>
	<path class="st5" d="M65.51,35.91c1.32,0.79,2.73,1.48,3.95,2.4c2.33,1.75,4.28,4.57,3.6,7.02c-1.06,3.84,0.11,7.16,0.49,10.71
		c0.34,3.16,0.02,6.33-2.49,8.64c-1.6,1.47-0.16,2.9-0.35,4.34c-0.18,1.41-0.1,2.86-0.13,4.3c-2.18-0.91-0.73-2.54-0.83-3.95
		c-0.87,1.23,0.71,3.11-1.07,4.02c-1.83-1.55-0.9-3.76-1.35-5.64c0.15-0.79,0.01-1.52-0.93-1.54c-1.3-0.02-1.71,1.11-2.21,2.06
		c-0.72,0.72-1.57,0.68-2.45,0.42c-1-0.57-2.13-0.78-3.18-1.21c-1.07-0.44-1.81-1.14-0.6-2.27c5.22-0.2,5.86-0.84,5.9-5.92
		c-1.89-4.11-3.79-4.89-9.05-3.69c-1.44-0.61-2.89-1.19-3.81-2.57c0.06-0.5,0.3-0.95,0.77-1.1c3.36-1.04,4.21-3.83,4.82-6.81
		c0.59-0.82,1.37-1.23,2.39-1.11c0.56,0.13,0.98,0.44,1.27,0.93c0.93,1.84-0.44,4.84,2.61,5.59c2.91,0.72,4.47-1.48,6.17-3.24
		c0.27-0.4,0.53-0.8,0.67-1.26c0.2-0.63,0.38-1.28,0.97-1.68c0.79-0.02,1,0.47,0.99,0.83c-1.26-2.22-2.52-4.73-5.24-6.12
		c-1.12-0.57-2.54-0.97-2.58-2.65C64.2,35.63,64.72,35.33,65.51,35.91z"/>
	<path class="st6" d="M58.3,65.4c-0.94,1.17-0.09,1.39,0.82,1.42c1.22,0.03,2.31,0.19,2.85,1.49c-0.11,0.56-1.65,0.35-0.8,1.41
		c0.83,1.04,1.41,2.17,1.59,3.49c0.29,1.08-0.44,2.64,1.05,3.13c1.39,0.45,2.05-0.88,2.82-1.76c0.4-0.45,0.8-0.88,1.34-1.16
		c0.16-0.03,0.32-0.07,0.48-0.1c1.48-1.16,0.17-3.02,1.08-4.37c0.95,1.33-0.38,3.19,1.06,4.36c-0.94,1.96-1.24,3.67,0.2,5.8
		c1.4,2.06-0.18,4.06-1.6,5.75c-1,0.28-1.13-0.48-1.36-1.12c-0.05-0.33-0.06-0.66-0.03-0.99c-0.13-0.95,1.25-2.35-0.82-2.71
		c-1.33,0.34-1.88,1.8-3.18,2.15c-1.66-0.73-3.69-0.64-4.99-2.2c-0.25-0.46-0.35-0.96-0.34-1.48c0.06-0.95,0.38-1.87,0.44-2.83
		c0.12-1.75-0.09-3.33-1.7-4.43c-1.73-1.18-2.58,0.43-3.73,1.1c-0.53,0.31-1.07,0.52-1.7,0.37c-1.09-0.93-3.34-0.1-3.57-2.34
		c4.44-1.32,7.41-3.82,7.07-8.92c-0.08-3.41-2.99-3.75-5.23-4.82c-1.82-0.66-4.03-0.19-5.51-1.85c-0.3-0.53-0.33-1.09-0.13-1.66
		c0.55-0.94,1.42-1.3,2.46-1.3c1.49,0.24,3.07,0.22,4.3,1.34c1.45,0.23,2.75,0.73,3.6,2.02c2.24,1.4,4.05,3.12,4.47,5.91
		C59.27,62.61,59.61,64.18,58.3,65.4z"/>
	<path class="st7" d="M68.43,83.42c0.02,0.6,0.15,1.14,0.74,1.44c-0.88,1.23-0.2,2.08,0.52,3.15c2.07,3.11,2.35,6.44,0.51,9.78
		c-0.47,0.86-1.09,1.46-0.26,2.51c2.55,3.22,1.46,6.19-0.8,9.03c-1.21-1.1,0.07-1.92,0.35-2.81c1.22-3.77,0.43-5.62-3.22-7.26
		c-0.51-1.91,1.74-2.56,1.89-4.17c0.08-3.87,0.08-3.87-4.07-3.92c-0.48-0.18-0.95-0.37-1.43-0.55c-0.61-0.58-0.79-1.32-0.79-2.12
		c0.22-1.67,0.43-3.35,1.15-4.91c0.36-0.46,0.84-0.6,1.4-0.55C65.64,84.33,67.1,83.15,68.43,83.42z"/>
	<path class="st8" d="M65.51,35.91c-0.58,0.01-1.09,0.18-1.39,0.73c-1.07,1.97-2.47,3.42-4.98,3.05c0.32-1.8,0.32-1.8,3.13-5.34
		c-0.5-1.1-1.69-0.47-2.45-0.87c-0.81-0.43-1.18-1.23-0.46-1.64c2.41-1.38,3.81-4.29,6.93-4.55c0.5,0.26,1,0.51,1.5,0.77
		C65.21,30.14,67.2,33.56,65.51,35.91z"/>
	<path class="st9" d="M64.85,83.41c-0.51,0.01-1.03,0.02-1.54,0.02c-3.65-0.24-6.1,2.63-9.29,3.58c-2.39-1.91-4.89-3.62-7.93-4.34
		c-0.38-0.67-0.08-1.28,0.13-1.91c0.24-0.61,0.5-1.21,0.69-1.84c0.96-2.94,0.34-4.81-3.16-4.97c-1.05-0.05-2.06-0.5-2.71-1.45
		c-0.95,0.03-1.91,0.06-2.86,0.09c-0.48-1.18,0.47-1.96,0.8-2.92c2.3-5.45,1.52-6.85-4.33-7.72c-0.82-0.12-1.66-0.16-2.23-0.89
		c-1-1.18-0.12-2.37-0.01-3.56c3.38,0.66,6.63,0.29,9.75-1.19c0.95,0.39,2.34-0.24,2.85,1.2c-2.61,2.86,0.65,5.34,0.52,8.04
		c-0.65,2.5,0.4,4.05,2.73,4.9c0.82,1.4,3.43-0.24,3.66,2.16c-0.08,0.15-0.16,0.29-0.24,0.44c-1.9,2.42-1.11,5.27-1.03,7.9
		c0.05,1.62,3.19,1.96,5.26,0.81c1.09-0.61,1.51-2.27,3.15-1.99c1.51,1.12,3.91,0.16,5.04,2.17C65.38,81.93,65.21,82.62,64.85,83.41
		z"/>
	<path class="st10" d="M58.8,39.36c2.27,0.05,3.51-1.89,5.31-2.73c2.81,1.99,6.42,3.12,7.45,6.99c0.2,0.77,0.35,1.55,0.72,3.21
		c-0.88-1.28-1.24-1.8-1.59-2.32c-0.95-0.12-1.32-0.91-1.82-1.56c-2.79-3.61-4.61-3.85-8.34-1.15c-0.88,0.68-0.97,1.73-1.28,2.68
		c-0.76,0.25-1.52,0.5-2.28,0.75c-0.51-0.04-0.89-0.3-1.23-0.66c-0.59-0.77-1.32-1.34-2.28-1.56c-0.31-0.08-0.62-0.17-0.92-0.27
		c-0.59-0.12-1.18-0.19-1.78-0.2c-4.87-0.05-5.63,1.08-3.61,5.38c0.2,0.44,0.36,0.88,0.46,1.36c0.13,1.15,0.17,2.27-0.74,3.16
		c-0.73,0.24-1.46,0.48-2.18,0.73c-0.83-0.63-0.83-1.65-1.21-2.5c-0.52-1.5-1.69-2.48-2.84-3.48c-0.31-0.37-0.59-0.74-0.25-1.24
		c-0.04-2.38-3.06-1.62-3.63-3.44c1-1.13,2.1-0.29,3.16-0.15c0.91,0.3,1.7-0.07,2.47-0.49c0.63-0.39,0.85-1.02,0.98-1.7
		c0.3-0.67,0.74-1.19,1.5-1.35c0.5-0.14,1.02-0.2,1.54-0.23C50.63,37.07,54.65,39.27,58.8,39.36z"/>
	<path class="st11" d="M18.1,51.03c3.87-1.69,7.09-0.38,10.05,2.16c1.08,0.31,1.04,1.33,1.35,2.12c0.2,2.19,0.1,4.34-0.69,6.41
		c-2.72,3.99-6.56,4.24-9.69,0.63C16.05,58.82,15.64,54.25,18.1,51.03z"/>
	<path class="st12" d="M41.04,46.71c1.45,0.82,2.69,1.82,3,3.59c-1.14,3.48-6.28,6-10.44,4.92c-1.76-0.46-3.79-0.76-4.61-2.86
		c-0.31-5.03,1.6-7.15,6.37-7.1C36.95,46.98,38.8,47.59,41.04,46.71z"/>
	<path class="st13" d="M18.1,51.03c-1.13,2.94-0.94,5.82,0.35,8.67c2.21,4.88,5.48,5.53,10.36,2.03c-0.01,3.6-1.97,4.96-5.39,5.17
		c-4.61,0.28-7.75-2.05-10.17-5.48C10.85,58.03,13.3,53.02,18.1,51.03z"/>
	<path class="st14" d="M32.44,61.08c0.59,0,1.19,0,1.78,0c6.72-0.11,8.7,3.3,5.39,9.28c-1.95,1.9-4.14,2.14-6.55,1
		c-2.25-1.07-2.94-2.93-2.73-5.26C30.8,64.32,31.36,62.59,32.44,61.08z"/>
	<path class="st15" d="M40.34,43.12c-1.2-0.2-2.39-0.41-3.59-0.61c-0.27-0.05-0.53-0.11-0.8-0.16c-2.68-6.69-7.44-11.82-12.6-16.61
		c-1.95-1.81-1.93-3.07,0.51-4.19c4.88,3.37,8.18,8.2,11.67,12.82c1.43,1.89,2.45,4.06,4.04,5.85
		C40.27,40.99,40.91,41.94,40.34,43.12z"/>
	<path class="st16" d="M39.59,86.35c1.47-0.01,2.94-0.02,4.4-0.04c2.05,3.39,5.52,2.4,8.54,2.77c-0.16,4.1-2.52,5.82-7.93,5.79
		c-0.78-0.53-1.68-0.83-2.49-1.31C38.75,91.59,38.33,90.41,39.59,86.35z"/>
	<path class="st17" d="M29,52.36c6.94,3.27,11.03,2.71,15.04-2.06c0.94,0.79,0.54,1.89,0.65,2.87c-0.01,0.48-0.02,0.95-0.03,1.43
		c-0.18,1.25-1.16,1.71-2.14,2.17c-3.25,1.77-6.49,3.6-10.08,0.75c-1.3-0.31-1.45-2.13-2.92-2.21c-0.45-0.71-0.9-1.41-1.36-2.12
		C28.43,52.91,28.72,52.64,29,52.36z"/>
	<path class="st18" d="M63.39,110.75c-2.3,0.1-4.24-0.4-5.33-2.74c-0.9-1.92,0.57-3.15,1.16-4.63c0.16-0.39,0.81-0.99,0.98-0.91
		c2.78,1.26,5-0.92,7.52-1.17C69.07,105.73,66.44,108.34,63.39,110.75z"/>
	<path class="st16" d="M30.32,66.09c2.01,5.1,3.95,6,9.28,4.26c-0.47,0.75-0.94,1.5-1.41,2.25c-2.07,1.07-3.93,2.46-6.57,2.25
		c-2.51-0.2-4.42-1.03-5.39-3.31c-1.1-2.58,1.68-2.97,2.74-4.33C29.33,66.77,29.87,66.46,30.32,66.09z"/>
	<path class="st19" d="M56.92,102.84c-1.09,3.45-3.68,3.37-6.37,2.51c-2.91-0.93-4.93-4.07-4.4-6.58c0.6-2.8,3.67-1.61,5.13-3.06
		C52.1,98.92,53.7,101.52,56.92,102.84z"/>
	<path class="st20" d="M47.55,79.78c-0.26,0.52-0.52,1.04-0.77,1.57c-2.17,1.55-4.5,2.64-7.26,2.15c-2.96-0.52-4.79-2.32-5.65-5.16
		c1.5-1.96,4.07-2.51,5.71-4.29C41.6,76.84,44.22,78.81,47.55,79.78z"/>
	<path class="st21" d="M54.03,87.01c2.74-3.33,6.32-4.71,9.29-3.58c0.22,1.72-0.18,3.35-0.64,4.98c-2.65,4.01-5.91,4.31-7.85,0.73
		C54.56,88.43,54.29,87.72,54.03,87.01z"/>
	<path class="st22" d="M64.09,91.15c1.41,0.26,1.78-2.3,3.59-1.2c2.43,1.48,1.26,3.73,1.47,5.7c-1.66-0.24-2.06,1.26-2.89,2.14
		c-2.74,2.88-4.94,2.63-6.37-0.75c-0.21-0.98-0.78-2.02,0.75-2.54C62.29,93.95,63.02,92.36,64.09,91.15z"/>
	<path class="st23" d="M47.55,79.78c-4.8-0.08-6.5-1.3-7.97-5.74c0.69-0.31,1.21-0.8,1.47-1.53c1.04,0.25,2.07,0.54,3.11,0.74
		C48.83,74.18,49.23,74.93,47.55,79.78z"/>
	<path class="st24" d="M56.92,102.84c-4.4-0.35-5.82-2.13-5.64-7.13c1.74-1.99,3.53-1.19,5.26-0.04c1.67,1.11,2.15,2.74,1.56,4.62
		C57.81,101.18,57.31,101.99,56.92,102.84z"/>
	<path class="st25" d="M52.54,89.09c-4.99,2-7.19,1.29-8.54-2.77C48.74,83.73,51.72,84.7,52.54,89.09z"/>
	<path class="st26" d="M33.87,78.33c3.26,5.48,7.92,4.92,12.91,3.02c-0.23,0.44-0.46,0.88-0.68,1.33c-2.61,2.24-5.42,2.84-8.57,1.15
		C35.32,82.64,33.45,81.26,33.87,78.33z"/>
	<path class="st27" d="M36.54,86.15c-0.09,0.95-0.66,1.53-1.39,1.43c-1.73-0.25-3.57-0.44-4.35-2.46c-0.48-1.22-1.16-2.68,0.14-3.53
		c1.32-0.86,1.73,0.86,2.29,1.58C34.18,84.37,35.93,84.69,36.54,86.15z"/>
	<path class="st28" d="M54.82,89.14c2.92,3.03,5.4,1.33,7.85-0.73c0,0.73,0,1.46,0,2.19c-0.63,0.51-1.27,1.01-1.9,1.53
		c-1.48,1.23-3.02,1.52-4.84,0.66C54.08,91.93,54.99,90.41,54.82,89.14z"/>
	<path class="st29" d="M23.07,75.48c-1.12-0.51-1.53-1.45-1.42-2.6c0.12-1.2-0.63-3.05,1.06-3.3c1.34-0.2,0.98,1.58,1.24,2.52
		c0.57,2.05,2.51,3.09,3.46,4.84C25.47,77.91,24.46,76.13,23.07,75.48z"/>
	<path class="st30" d="M59.88,97.05c2.1,2.64,3.32,2.68,5.93,0.21c0.93-0.89,1.51-2.57,3.34-1.6c-0.96,1.19-1.92,2.39-2.88,3.58
		c-0.84,0.41-1.65,0.95-2.54,1.2C60.8,101.24,59.46,100.11,59.88,97.05z"/>
	<path class="st31" d="M39.59,86.35c-1.41,4.65,2.64,6.1,5.02,8.53C38.59,93.86,36.48,90.28,39.59,86.35z"/>
	<path class="st32" d="M41.04,46.71c-2.92,2.29-4.11,1.99-5.67-1.45c1.81-0.75,3.36,0.35,5.02,0.69
		C40.6,46.2,40.82,46.46,41.04,46.71z"/>
	<path class="st33" d="M63.39,110.75c0.09-0.33,0.06-0.81,0.28-0.98c2.78-2.15,4.42-4.83,4.05-8.48
		C69.55,105.61,68.01,108.97,63.39,110.75z"/>
	<path class="st34" d="M23.07,75.48c1.45,0.49,2.89,0.98,4.34,1.47c0.79,0.63,2.14,0.24,2.94,2.04
		C27.02,79.07,24.81,77.83,23.07,75.48z"/>
	<path class="st35" d="M58.8,39.36c-0.88,0.29-1.04,2.21-2.49,1.16c-3.23-2.33-6.76-1.41-10.25-1.02c-0.88-2.17,0.35-3.52,1.83-4.79
		c3.51,0.12,5.2-3.9,8.68-3.86c-2.19-0.28-4.35,2.28-6.56,0.07c0.99-4.75,4.31-7.9,7.59-11.07c2.18,0.53,0.55,2.04,0.78,3.07
		c1.97-1.44,2.2-4.03,3.8-6.01c1.14,1.05,0.99,2.06,0.49,3.14c-0.89,2.31-1.12,3.32,2.34,2.98c4.07-0.4,1.18,2.66,1.27,4.23
		c-2.2,1.93-4.16,4.15-7.09,5.16c1.61,1.62,3.98-1.41,4.62,0.87c0.56,2.02-2.01,2.93-3.25,4.28C60,38.2,59.39,38.77,58.8,39.36z"/>
	<path class="st36" d="M62.68,20.06c0-0.7,0-1.4,0-2.9c-1.53,3.39-2.07,6.65-5.77,7.38c-0.37-1.91,2.23-2.78,0.74-4.49
		c-0.67-0.01-1.15,0.44-1.7,0.71c-3.33,1.86-6.29,3.99-6.24,8.38c-0.26,0.93-0.67,1.73-1.76,1.89c-1.56-0.84-1.25-2.37-1.34-3.72
		c-0.12-1.85,0.14-3.75-0.72-5.51c-0.08-0.39-0.04-0.77,0.12-1.14c2.94-6.62,9.45-6.32,15.07-7.74c1.06-0.27,1.52,0.4,1.72,1.31
		C63.23,16.18,63.83,18.14,62.68,20.06z"/>
	<path class="st37" d="M46,20.66c0.03,0.27,0.07,0.54,0.1,0.82c-0.08,0.15-0.17,0.3-0.25,0.45c-2.11,1.97-2.58,4.47-2.21,7.19
		c0.19,1.41,0.69,2.8,0.11,4.22c-0.82,1.3-2.24,0.81-3.39,1.12c-0.85-6.12-2.61-12.37,2.23-17.63C44.98,17.3,42.65,21.26,46,20.66z"
		/>
	<path class="st38" d="M40.34,43.12c-4.73-7.77-10.38-14.85-16.48-21.58c4.37,0.81,6.54,4.51,9.07,7.43
		c3.48,4.01,6.32,8.57,9.44,12.9C42.15,43.03,42.2,44.62,40.34,43.12z"/>
	<path class="st39" d="M40.36,34.45c0.41-2.5,1.98-0.36,2.92-0.73c1.33-2.03,1-4.35,1.12-6.59c0.11-2.04,0.12-4.08,1.71-5.66
		c0,0-0.02,0.01-0.02,0.01c1.86,0.87,1.31,2.58,1.45,4.08c0.17,1.75-0.59,3.59,0.55,5.23c0.08,3.43-2.22,5.87-3.61,8.69
		c-0.38,0.23-0.76,0.47-1.15,0.7C43.14,37.86,40.69,36.71,40.36,34.45z"/>
	<path class="st40" d="M59.26,44.48c-1.08-1.2-0.99-2.17,0.57-2.85c5.09-2.02,8.79-0.31,10.69,4.95c-0.2,0.32-0.39,0.65-0.59,0.97
		c-0.45,0.16-0.9,0.33-1.3,0.59c-4.6,2.97-6.93,2.2-8.74-2.93C59.68,44.97,59.47,44.73,59.26,44.48z"/>
	<path class="st40" d="M58.44,60.28c-1.23-1.7-2.47-3.4-3.7-5.1c3.65-3.02,8.66-0.32,10.03,3.7C63.13,61.5,61.02,61.97,58.44,60.28z
		"/>
	<path class="st41" d="M46.87,52.44c-0.01-1.2-0.02-2.4-0.03-3.6c3.81-0.04,7.23-0.93,9.47-4.37c0.22,0.25,0.44,0.51,0.66,0.76
		c0.7,4.59-2.04,6.65-5.83,7.93C49.68,53.13,48.18,53.35,46.87,52.44z"/>
	<path class="st42" d="M58.44,60.28c2.28,0.32,4.44,0.05,6.33-1.4c0.22,6.3-1.74,8.28-6.47,6.53C58.34,63.7,58.39,61.99,58.44,60.28
		z"/>
	<path class="st43" d="M70.52,46.58c-2.4-4.17-6.04-5.65-10.69-4.95c3.7-4.41,7.84-3.31,10.87,2.88
		C70.64,45.2,70.58,45.89,70.52,46.58z"/>
	<path class="st44" d="M59.89,45.22c3.22,4.35,3.28,4.36,8.62,2.34c0.42-0.16,0.95-0.01,1.42-0.01c-0.38,0.45-0.74,0.93-1.15,1.35
		c-1.88,1.94-3.84,3.57-6.86,2.41C58.69,50.09,60.1,47.4,59.89,45.22z"/>
	<path class="st45" d="M62.02,73.26c-0.22-1.83-1.66-2.97-2.59-4.44c0.73-1,1.73-0.27,2.53-0.52c0.84,0.06,1.68,0.14,2.26-0.67
		c0.25-0.74,0.72-1.16,1.55-1.03c1.1,0.4,1.86,1.02,1.59,2.35C65.89,70.76,64.9,73.19,62.02,73.26z"/>
	<path class="st46" d="M68.55,52.54c2.32-0.32,2.32,1.37,2.55,2.9c0.37,2.52,0.34,4.96-1.21,7.15c-2.86-1.34-1.31-3.97-1.76-6.01
		C68.17,55.23,67.49,53.79,68.55,52.54z"/>
	<path class="st47" d="M69.05,56.1c0.75,2.1-0.63,4.48,0.84,6.49c-2.17,2.34-2.55-0.03-2.77-1.27c-0.3-1.72-0.06-3.53-0.04-5.3
		C67.75,55.45,68.41,55.46,69.05,56.1z"/>
	<path class="st48" d="M67.12,68.9c-0.07-1.04-1.17-1.29-1.58-2.08c0.69-1.45,0.89-1.45,2.02,0.09c1.82,1.93,0.98,4.22,0.88,6.4
		c0,0-0.04-0.04-0.04-0.04C66,72.4,66.93,70.54,67.12,68.9z"/>
	<path class="st49" d="M69.05,56.1c-0.66-0.02-1.32-0.05-1.98-0.07c-1.38-1.95,0.38-2.58,1.48-3.49
		C68.06,53.82,69.21,54.87,69.05,56.1z"/>
	<path class="st6" d="M67.55,66.92c-0.67-0.18-1.28-1.43-2.02-0.09c-0.44,0.27-0.88,0.53-1.32,0.8c-0.64-1.94,1.03-2.29,2.13-2.63
		C66.83,64.85,68.61,65.35,67.55,66.92z"/>
	<path class="st50" d="M44.66,65.46c-0.22-0.92-0.13-2.17-0.7-2.7c-2.45-2.24-0.93-3.68,0.77-5.19c1.43-2.32,3.67-1.54,5.71-1.5
		c2.53,0.93,5.59,1.25,5.7,4.96c-1.2,2.95-3.55,4.63-6.44,5.57C47.88,67.19,45.97,67.46,44.66,65.46z"/>
	<path class="st51" d="M51.94,72.64c0.39-0.28,0.75-0.6,1.16-0.82c1.22-0.64,1.4-3.23,3.55-2.05c1.95,1.07,3.54,2.43,3.24,5.07
		c-0.14,1.2-0.13,2.39-0.84,3.43c-1.73,2.54-4.01,2.15-6.19,0.9c-2.1-1.2-2.32-3.56-0.92-6.51L51.94,72.64z"/>
	<path class="st52" d="M44.66,65.46c3.29,1.52,6.04,0.27,8.59-1.77c1.02-0.82,1.93-1.77,2.89-2.66c0.13,6.59-2.1,9.26-7.87,9.45
		C43.49,71.38,44.6,68.04,44.66,65.46z"/>
	<path class="st17" d="M51.94,72.66c-0.11,6.48,1.6,7.82,7.11,5.61c0.01,0.51,0.02,1.03,0.02,1.54c-1.72,2.49-3.75,4.34-7.12,3.6
		c-1.85-0.41-3.04-1.07-2.48-3.41c0.39-1.59,0.28-3.33,0.23-5C49.68,73.38,50.12,72.42,51.94,72.66z"/>
	<path class="st53" d="M67.12,68.9c1.2,1.23-0.47,3.31,1.28,4.38c-0.37,0.58-0.77,1.16-1.12,1.76c-0.92,1.61-2.07,3.16-4.12,2.49
		c-2.2-0.73-0.82-2.81-1.14-4.27C63.72,71.81,65.42,70.36,67.12,68.9z"/>
	<path class="st54" d="M64.85,83.41c-0.01-0.6-0.14-1.14-0.74-1.43c-0.07-1.91,1.67-2.09,2.76-2.91c1.41,0.81,1.13,2.35,1.53,3.59
		c0.01,0.25,0.01,0.5,0.02,0.75C67.24,82.95,66.04,87.82,64.85,83.41z"/>
	<path class="st10" d="M50.45,56.06c-1.84,0.76-3.96,0.41-5.71,1.5c-0.74-0.27-1.48-0.53-2.22-0.8c0.47-0.96,1.2-1.67,2.14-2.17
		C46.48,55.51,48.71,54.79,50.45,56.06z"/>
	<path class="st55" d="M68.41,82.66c-1.54-0.76-1.07-2.37-1.53-3.59C69.01,78.68,69.33,79.43,68.41,82.66z"/>
	<path class="st56" d="M56.31,44.47c-1.08,4.31-4.71,5.99-9.47,4.37c-1.02-1.75-3.4-3.56-1.59-5.58c2.13-2.38,5.18-2.27,8.06-0.89
		c-0.24,0.47-0.4,0.97-1.12,2.12c0.98-1.06,0.84-1.67,1.11-2.12C54.97,42.14,55.94,42.88,56.31,44.47z"/>
	<path class="st57" d="M44.49,39.48c0.18-3.32,2.24-5.86,3.61-8.69c0.3-0.69,0.61-1.39,0.92-2.08c1.18-3.86,4.02-6.39,7.09-8.72
		c0.54-0.55,1.06-0.65,1.54,0.07c-2.47,3.55-4.94,7.1-7.4,10.65c-0.01,1.78-0.5,3.34-2.05,4.41c-1.14,1.26-1.8,2.74-2.13,4.39
		C45.54,39.5,45.02,39.49,44.49,39.48z"/>
	<path class="st58" d="M27.32,56.76c-0.19,1.68-1.07,2.86-2.5,2.68c-2.02-0.25-3.47-1.77-3.79-3.74c-0.24-1.47,1.04-2.4,2.5-2.44
		C25.95,53.19,26.55,55.16,27.32,56.76z"/>
	<path class="st59" d="M38.12,64.24c0.91,0.1,1.72,0.54,1.75,1.43c0.04,1.26-0.91,1.86-2.07,1.86c-0.88,0-1.66-0.53-1.57-1.52
		C36.32,64.98,37.12,64.44,38.12,64.24z"/>
	<path class="st60" d="M48.19,35.12c0.34-1.63,1.14-3.05,2.05-4.41c3.15,1.06,5.96-1.22,9.17-0.71
		C55.05,30.45,53.06,35.79,48.19,35.12z"/>
	<path class="st61" d="M56.11,19.98c-2.36,2.91-4.72,5.82-7.09,8.72C49.03,24.6,51.21,21.92,56.11,19.98z"/>
	<path class="st62" d="M46.12,21.47c-0.51,2.58-0.76,5.17-0.75,7.81c0,1.7,0.07,3.66-2.09,4.44c0.12-3.25-1.68-6.46-0.06-9.77
		C43.86,22.63,44.25,21.25,46.12,21.47z"/>
	<path class="st63" d="M49.87,60.51c0-0.94,0.45-1.38,1.23-1.47c0.66-0.07,1.14,0.32,1.31,0.9c0.24,0.83-0.33,1.36-1.01,1.53
		C50.62,61.66,50.15,61.1,49.87,60.51z"/>
	<path class="st64" d="M53.31,42.37c0.77,1.01,1.39,2.05-0.01,3.01c-0.89,0.61-1.75,0.17-2.02-0.67C50.73,43,52.44,43,53.31,42.37
		C53.32,42.38,53.31,42.37,53.31,42.37z"/>
</g>
</svg>
