<?xml version="1.0" encoding="utf-8"?>
<!-- Generator: Adobe Illustrator 23.0.2, SVG Export Plug-In . SVG Version: 6.00 Build 0)  -->
<svg version="1.1" id="Camada_1" xmlns="http://www.w3.org/2000/svg" xmlns:xlink="http://www.w3.org/1999/xlink" x="0px" y="0px"
	 viewBox="0 0 21.42 42.58" style="enable-background:new 0 0 21.42 42.58;" xml:space="preserve">
<style type="text/css">
	.st0{fill:#FEFEFE;}
	.st1{fill:#533C1C;}
	.st2{fill:#3A6C34;}
	.st3{fill:#3C6D34;}
	.st4{fill:#523B1C;}
	.st5{fill:#B1872F;}
	.st6{fill:#CCA143;}
	.st7{fill:#FBF9F3;}
	.st8{fill:#DEB149;}
	.st9{fill:#EDBF4F;}
	.st10{fill:#E7B84B;}
	.st11{fill:#E9BB4D;}
	.st12{fill:#CDA140;}
	.st13{fill:#6BA344;}
	.st14{fill:#CDA143;}
	.st15{fill:#6BA444;}
	.st16{fill:#F2F6F3;}
	.st17{fill:#264320;}
	.st18{fill:#F8F5F0;}
	.st19{fill:#175B1D;}
	.st20{fill:#EBB64A;}
	.st21{fill:#CCA042;}
	.st22{fill:#E5B547;}
	.st23{fill:#6BA443;}
	.st24{fill:#6DA644;}
	.st25{fill:#EABE4F;}
	.st26{fill:#6AA243;}
	.st27{fill:#6DA744;}
	.st28{fill:#1A3418;}
	.st29{fill:#213D1C;}
	.st30{fill:#2F4F25;}
	.st31{fill:#294721;}
	.st32{fill:#6AA343;}
</style>
<g>
	<path class="st0" d="M21.2,18.18c0,2.9-0.18,5.81,0.07,8.68c0.15,1.75,0.13,3.49,0.14,5.23c0.01,1.9,0.01,3.8,0,5.69
		c-0.02,2.16-1.74,3.73-3.94,4.07c-2.6,0.41-5.2,0.86-7.85,0.68c-1.86-0.13-3.74-0.24-5.52-0.91c-2.01-0.76-3.05-2.23-3.15-4.34
		c-0.12-2.6-0.23-5.2-0.46-7.78c-0.13-1.47,0.3-2.87,0.09-4.38c-0.48-3.51-0.86-7.09-0.29-10.61c0.54-3.32,1.27-6.68,4.01-9.08
		c0.28-0.24,0.43-0.44,0.38-0.89C4.49,2.82,5.59,1.18,7.28,0.57c2.53-0.92,5.03-0.67,7.45,0.41c1.2,0.54,1.59,1.62,1.63,2.84
		c0.02,0.52,0.15,0.86,0.55,1.22c3.03,2.74,4.61,6.13,4.45,10.27c-0.04,0.96-0.01,1.92-0.01,2.88
		C21.31,18.18,21.25,18.18,21.2,18.18z"/>
	<path d="M20.16,18.33c-0.21,1.68,0.12,3.66-0.3,5.66c-0.19,0.89,0.01,2.06,0.2,3.01c0.38,1.84,0.18,3.66,0.14,5.47
		c-0.04,1.73,0.1,3.45,0.05,5.18c-0.05,1.56-1.26,2.74-2.83,3.01c-2.56,0.43-5.13,0.85-7.73,0.68c-1.63-0.1-3.26-0.18-4.83-0.71
		c-1.96-0.65-2.71-1.66-2.69-3.71c0.02-1.15-0.27-2.3-0.29-3.38c-0.04-2.2-0.34-4.42-0.02-6.65c0.19-1.3,0.07-2.7-0.2-4
		c-0.64-3.14-0.68-6.37-0.02-9.39c0.63-2.84,1.25-6.01,4.18-7.76C6.17,5.53,6.07,5.22,5.99,4.9C5.66,3.39,6.31,2.16,7.79,1.65
		c2.13-0.74,4.24-0.54,6.29,0.33c0.85,0.36,1.14,1.08,1.09,1.94c-0.04,0.82,0.16,1.38,0.88,1.99c2.74,2.33,4.22,5.33,4.11,9.01
		C20.13,15.95,20.16,16.99,20.16,18.33z"/>
	<path class="st1" d="M18.51,24.04c0.45,2.35,0.42,4.71,0.44,7.09c0.02,1.97-0.38,3.94,0.02,5.95c0.3,1.49-0.4,2.09-1.95,2.41
		c-3.7,0.76-7.42,0.96-11.15,0.18c-2.09-0.43-2.62-1.03-2.45-3.11c0.11-1.37-0.61-2.58-0.47-3.88c0.23-2.09-0.33-4.18,0.24-6.29
		c0.22-0.81-0.41-1.83-0.24-2.8c0.5-0.14,0.89-0.03,1.06,0.51c-0.03,1.11,0.54,1.6,1.6,1.86c1.45,0.34,2.9,0.51,4.38,0.41
		c1.35,0.01,2.7,0.03,4.04-0.26c0.29-0.06,0.73-0.17,0.85,0.19c0.15,0.42-0.28,0.6-0.59,0.75c-0.43,0.21-0.89,0.4-1.36,0.41
		c-2.38,0.08-4.76,0.28-7.13-0.18c-0.49-0.09-1-0.36-1.47,0.07c-0.77,1.64-0.58,2.06,1.12,2.5c0.42,0.11,0.85,0.16,1.27,0.28
		c1.42,0.1,2.84,0.18,4.25,0.35c0.43,0.05,1-0.1,1.08,0.6c-0.8,0.52-1.69,0.2-2.54,0.3c-1.56,0.08-3.09-0.2-4.61-0.49
		c-0.96,0.13-0.96,0.9-0.88,1.54c0.09,0.72,0.22,1.52,1.17,1.73c1.13,0.26,2.27,0.37,3.42,0.53c1.53,0.17,3.06,0.18,4.58-0.09
		c0.35-0.05,0.71-0.09,1.06-0.16c0.31-0.07,0.72-0.09,0.85,0.24c0.15,0.39-0.28,0.52-0.55,0.62c-1.18,0.45-2.36,0.89-3.67,0.91
		c-1.48,0.02-2.93-0.13-4.37-0.44c-0.46-0.1-0.94-0.17-1.41-0.15c-0.78,1.05-0.4,2.56,0.83,2.76c2.49,0.41,5,0.79,7.54,0.29
		c1.16-0.09,2.32-0.13,3.44-0.48c0.35-0.26,0.55-0.7,0.5-1.04c-0.3-1.94,0.3-3.83,0.29-5.76c0-2.36-0.65-4.72-0.09-7.08
		C17.84,23.91,18.13,23.8,18.51,24.04z"/>
	<path class="st2" d="M3.89,23.97c-0.31-0.13-0.62-0.25-0.93-0.38c-0.61-2.3-0.51-4.65-0.46-7c0.03-1.22,0.1-2.46,0.65-3.59
		c0.38-0.29,0.8-0.12,1.21-0.11c0.8,0.21,1.61,0.34,2.43,0.41c3.36,0.15,6.71,0.13,10.07,0c0.32-0.05,0.65-0.08,0.97-0.01
		c0.36,0.18,0.81-0.09,1.14,0.22c0,2.9,0,5.8,0.01,8.7c0,0.66-0.34,1.22-0.47,1.84c-0.26,0.03-0.55,0-0.72,0.26
		c-0.15,0.14-0.3,0.27-0.49,0.35c-1.04,0.33-2.1,0.5-3.19,0.46c-2.53-0.03-5.06,0.07-7.58-0.06c-0.43-0.02-0.86-0.09-1.29-0.2
		C4.7,24.69,4.14,24.57,3.89,23.97z"/>
	<path class="st3" d="M7.55,5.85c-0.83-2.42-0.14-3.37,2.51-3.4c0.44-0.01,0.88-0.02,1.31,0.02c2.42,0.17,2.68,0.47,2.58,2.89
		c-0.13,0.62,0.11,1.45-0.87,1.61c-0.12,0.05-0.25,0.07-0.38,0.1c-0.2,0.03-0.39,0.05-0.59,0.05c-1.08,0-2.15,0.01-3.23,0
		c-0.27,0-0.53-0.04-0.78-0.13C7.54,6.78,7.64,6.27,7.55,5.85z"/>
	<path class="st1" d="M13.03,6.75c0.83-0.12,0.58-0.95,0.91-1.4c0.03,0.31,0.05,0.59,0.39,0.8c2.61,1.62,4.05,4.01,4.53,7.02
		c0.02,0.12,0.07,0.22,0.11,0.34c-0.3-0.12-0.62,0.28-0.91-0.04c-0.74-2.37-1.8-4.53-3.91-6.01C13.78,7.19,13.29,7.15,13.03,6.75z"
		/>
	<path class="st4" d="M7.55,5.85C7.7,6.17,7.85,6.49,8.01,6.81C8.04,7.1,7.84,7.24,7.64,7.37C6,8.41,5.07,9.94,4.58,11.77
		c-0.09,0.26-0.15,0.53-0.19,0.8c-0.03,0.17-0.09,0.33-0.23,0.44C3.82,13.28,3.49,12.93,3.14,13C3.6,11.21,3.9,9.38,5.13,7.87
		C5.82,7.02,6.93,6.75,7.55,5.85z"/>
	<path class="st5" d="M5.07,24.53c3.03,0.45,6.09,0.22,9.13,0.3c-0.11,0.48-0.52,0.38-0.85,0.43c-1.63,0.22-3.27,0.05-4.82,0.11
		c2.41,0.13,4.89,0.05,7.33-0.52c0.92-0.22,1.06,0.19,0.97,0.93c-0.22,1.8-0.48,2.08-2.32,2.52c-1.61,0.39-3.24,0.48-4.88,0.43
		c-0.32-0.01-0.64-0.02-0.96,0.02c-0.27,0.04-0.62,0.04-0.63,0.41c-0.01,0.34,0.3,0.48,0.58,0.49c1.15,0.04,2.28,0.32,3.46,0.15
		c1.74-0.25,3.41-0.89,5.2-0.8c0.9,0.6,0.22,1.38,0.25,2.07c-0.18,0.81-0.74,1.16-1.52,1.31c-1.99,0.38-3.99,0.78-6.02,0.86
		c-0.99,0.04-1.7,0.24-2.01,1.23c-1.14,0.32-2.18-0.21-3.24-0.44c-0.54-0.12-0.57-0.73-0.64-1.19c-0.13-0.83-0.17-1.67,0.53-2.32
		c1.6,0.2,3.18,0.54,4.8,0.53c0.78,0.4,1.61,0.13,2.42,0.18c-0.04-0.14,0.67,0.14,0.15-0.27c-1.31-0.31-2.65-0.34-3.99-0.41
		c-0.51-0.03-1.04,0.11-1.51-0.22c0.02-0.17-0.1-0.15-0.21-0.18c-2.4-0.64-2.4-0.64-2.36-2.95c0.21-0.75,0.64-0.65,1.28-0.5
		c3.01,0.73,6.04,0.8,9.06,0c0.19-0.05,0.4-0.08,0.53-0.45c-1.67,0.43-3.3,0.53-4.93,0.41C8.56,26.45,7.19,26.56,5.92,26
		C5.27,25.71,4.66,25.43,5.07,24.53z"/>
	<path class="st5" d="M4.86,35.1c1.77,0.21,3.48,0.71,5.29,0.75c1.73,0.04,3.27-0.45,4.91-1.1c-0.69-0.27-1.22,0.27-1.8,0.12
		c-0.08-0.51,0.28-0.72,0.65-0.85c0.92-0.35,1.88-0.58,2.86-0.68c0.54-0.06,0.82,0.17,0.81,0.73c-0.08,0.45-0.34,0.85-0.37,1.32
		c0.07,1.16-0.55,1.7-1.62,1.98c-1.59,0.41-3.2,0.6-4.82,0.48c-0.92-0.07-1.71,0.08-2.31,0.82c-0.52,0.09-1.02,0.02-1.53-0.06
		C4.7,38.24,4.13,37.28,4.86,35.1z"/>
	<path class="st6" d="M17.36,34.18c-0.05-0.21,0.03-0.64-0.24-0.58c-1.32,0.29-2.8,0.16-3.86,1.26c-1.61,0.46-3.23,0.29-4.85,0.04
		c0.89-0.33,1.79-0.06,2.54-0.15c-0.87-0.22-2.01,0.37-2.97-0.37c-0.18-1.11,0.23-1.49,1.41-1.48c2.37,0.04,4.69-0.57,7.03-0.91
		c0.65-0.09,0.59-0.67,0.91-0.98C18,32.08,18.02,33.42,17.36,34.18z"/>
	<path class="st6" d="M8.45,38.48c0.19-0.86,0.6-1.11,1.57-1.02c1.69,0.16,3.39,0.06,5.09-0.34c1.24-0.29,1.97-0.71,1.8-2.07
		c0.71,0.52,0.89,1.38,0.47,2.36c-0.15,0.36-0.44,0.68-0.33,1.11c-1.17,0.26-2.35,0.48-3.56,0.42c-1.17-0.06-2.34,0.07-3.51-0.02
		C9.45,38.89,8.82,39.1,8.45,38.48z"/>
	<path class="st7" d="M17.05,38.52c-0.68,0.01-0.59-0.26-0.27-0.68c0.67-0.89,0.93-1.82,0.13-2.79c0.15-0.29,0.3-0.58,0.45-0.86
		c0.4-1.06,0.13-2.11-0.05-3.16c0-0.64,0.27-1.27,0.05-1.92c-0.97-1.55-0.67-3.12-0.07-4.69c0.16-0.03,0.33-0.07,0.49-0.1
		c-0.25,2.15,0.52,4.27,0.12,6.43c-0.06,0.34,0.01,0.71,0.06,1.06c0.26,1.87-0.49,3.7-0.23,5.58
		C17.79,37.75,17.61,38.34,17.05,38.52z"/>
	<path class="st8" d="M8.45,38.48c1.17,0.49,2.4,0.1,3.59,0.23c0.49,0.06,1.03-0.19,1.46,0.24c-2.58,0.38-5.16,0.21-7.7-0.26
		c-1.42-0.26-1.94-2.42-0.93-3.59c-0.02,2.92,0.07,3.01,2.99,3.35C8.05,38.48,8.25,38.47,8.45,38.48z"/>
	<path class="st9" d="M7.97,34.38c1.08,0.42,2.25,0.12,3.35,0.52c-0.97,0-1.95,0-2.92,0c-1.16-0.02-2.29-0.24-3.42-0.48
		c-1.06-0.22-1.16-1.15-1.26-1.92c-0.1-0.76-0.06-1.62,0.91-1.96c-0.44,0.86-0.25,1.78-0.24,2.68c0.01,0.35,0.2,0.62,0.57,0.65
		C5.97,33.97,6.92,34.46,7.97,34.38z"/>
	<path class="st10" d="M5.07,24.53c0.1,1.55,1.47,1.34,2.4,1.65c0.77,0.26,1.63,0.17,2.4,0.5c-1.69,0.17-3.33-0.18-4.95-0.58
		c-1.09-0.27-1.44-1.03-1.03-2.14C4.28,24.16,4.67,24.35,5.07,24.53z"/>
	<path class="st11" d="M3.93,27.22c0.03,0.03,0.08,0.06,0.08,0.08c-0.16,1.9,0.96,2.59,2.62,2.77c0.13,0.01,0.2,0.08,0.08,0.19
		c-0.05,0.05-0.14,0.06-0.22,0.08c-0.27-0.04-0.55-0.08-0.82-0.14C3.44,29.73,3.27,29.42,3.93,27.22z"/>
	<path class="st12" d="M12,30.98c0.37-0.02,0.75-0.04,1.25-0.06c-1.41,0.76-3.12,0.79-3.82,0.15C10.28,31.04,11.14,31.01,12,30.98z"
		/>
	<path class="st13" d="M17.56,23.38c-3.55,0.79-7.14,0.8-10.74,0.61c-0.87-0.05-1.73-0.54-2.54-0.95c-0.79-0.4-0.97-1.47-0.43-2.07
		c2.2,0.32,3.4-0.63,3.34-2.64c-0.02-0.56-0.13-1.08-0.68-1.27c-0.64-0.22-1.32-0.29-1.9,0.23c-0.26,0.23-0.38,0.61-0.74,0.75
		c-0.17,0.07-0.48,0.2-0.42-0.11c0.26-1.15,0.16-2.3,0.21-3.46c0.02-0.4,0.23-0.43,0.57-0.33c3.57,1.01,7.22,0.42,10.84,0.56
		c0.68,0.03,1.36,0,2.04-0.01c0.15,0.14,0.27,0.32,0.27,0.52C17.42,17.94,17.95,20.65,17.56,23.38z"/>
	<path class="st5" d="M4.16,12.56c-0.02-0.27-0.06-0.54,0.19-0.73c0.56-1.34,1.1-2.68,2.25-3.69C7.23,7.58,7.87,7.08,8.67,6.8
		c1.2,0.01,2.41,0.03,3.61,0.04c-0.28,0.72-0.93,0.47-1.43,0.5C9.36,7.43,9.02,7.65,8.49,9.06c-0.1,0.26-0.18,0.53-0.26,0.79
		c-0.54,1.83-0.3,2.26,1.58,2.31c1.95,0.06,3.9,0.18,5.84-0.15c0.53-0.09,1.12-0.26,1.56,0.28c0.2,0.41,0.21,0.81-0.06,1.2
		c-1.02,0.46-2.11,0.26-3.16,0.24c-2.49-0.04-4.98,0.24-7.46-0.19C5.75,13.19,4.8,13.25,4.16,12.56z"/>
	<path class="st14" d="M17.29,24.41c-0.15,1.57-0.23,3.13,0.07,4.69c-2.9,0.6-5.77,1.46-8.79,0.97c-0.6-0.1-1.08-0.21-1.08-0.98
		c0-0.85,0.58-0.71,1.08-0.7c2.35,0.04,4.71,0.05,6.97-0.72c0.44-0.15,1.28-2.17,1.03-2.53c-0.3-0.42-0.77-0.15-1.08-0.06
		c-2.29,0.7-4.63,0.73-6.99,0.67c-0.2-0.01-0.4,0.01-0.6-0.01c-0.27-0.02-0.62,0.01-0.57-0.41c0.03-0.32,0.33-0.3,0.56-0.3
		c1.16,0,2.32,0.04,3.48-0.01c0.94-0.04,1.91,0.21,2.83-0.19C15.23,24.69,16.26,24.55,17.29,24.41z"/>
	<path class="st15" d="M4.14,20.69c-0.5-0.71-0.19-1.43-0.01-2.14c-0.04-0.81,0.53-1.23,1.12-1.53c1.09-0.55,1.93,0.03,2,1.27
		c0.06,0.98-0.2,1.81-0.94,2.46C5.62,21.35,4.85,21.31,4.14,20.69z"/>
	<path class="st16" d="M17.56,23.38c-0.49-0.3-0.26-0.79-0.27-1.19c-0.08-2.5-0.13-4.99-0.18-7.49c1.92-0.77,0.86,0.92,1.2,1.45
		c0.14,1.02,0.22,2.04-0.05,3.05c-0.21,1.06-0.08,2.13-0.12,3.19C18.11,22.83,18.17,23.29,17.56,23.38z"/>
	<path class="st17" d="M4.14,20.69c0.88,0.48,1.67,0.39,2.34-0.4c0.72-0.85,0.78-1.88,0.41-2.79c-0.28-0.69-1.08-0.56-1.65-0.18
		c-0.46,0.31-0.83,0.73-1.1,1.23c-0.22-0.1-0.23-0.31-0.27-0.51c0.52-1.43,0.97-1.71,2.4-1.42c1.17,0.24,1.28,1.13,1.22,2.11
		c-0.07,1.13-0.59,2-1.57,2.5c-0.68,0.35-1.45,0.46-2.06-0.25C3.95,20.88,4.05,20.79,4.14,20.69z"/>
	<path class="st18" d="M17.15,13.49c-0.04-0.4-0.07-0.79-0.11-1.19c-0.3-0.54-0.83-0.95-0.95-1.6c-0.24-0.95-0.91-1.64-1.43-2.43
		c-0.21-0.31-0.6-0.54-0.46-1.02c2.32,1.3,3.18,3.6,4.02,5.91c0.02,0.07-0.12,0.19-0.18,0.29C17.75,13.57,17.46,13.6,17.15,13.49z"
		/>
	<path class="st19" d="M18.25,19.2c0.02-1.02,0.04-2.03,0.05-3.05c0.47,0.9,0.17,1.86,0.21,2.8c0.06,1.3,0.01,2.61-0.27,3.91
		C18.25,21.64,18.25,20.42,18.25,19.2z"/>
	<path class="st20" d="M4.16,12.56c0.85,0.19,1.66,0.48,2.38,0.99c-0.83,0-1.63-0.13-2.37-0.53C4.16,12.87,4.16,12.71,4.16,12.56z"
		/>
	<path class="st21" d="M16.36,10.64c0.14,0.59,0.7,1.01,0.68,1.67c-2.25,0.12-4.5,0.3-6.76,0.25C7.42,12.5,7.12,12.13,8,9.44
		c0.06-0.19,0.13-0.38,0.2-0.56c0.58-1.64,0.88-1.84,2.57-1.86c0.5-0.01,1.04,0.16,1.51-0.17c0.16-0.02,0.33-0.03,0.49-0.05
		c1.32,1.04,2.71,2,3.16,3.77C15.95,10.64,16.23,10.53,16.36,10.64z"/>
	<path class="st22" d="M16.36,10.64c-0.24,0.14-0.46,0.34-0.71,0.42c-0.28,0.08-0.57-0.18-0.32-0.37c0.75-0.56,0.04-0.78-0.16-1.18
		c-0.56-1.13-1.86-1.58-2.39-2.71c0.08-0.02,0.17-0.03,0.25-0.05c0.4,0.15,0.88,0.13,1.18,0.51C15.08,8.29,15.93,9.33,16.36,10.64z"
		/>
	<path class="st23" d="M12.05,4.64c0,0.16,0.01,0.32,0,0.47c-0.03,0.41,0.13,0.92-0.56,0.95c-0.68,0.03-0.61-0.45-0.64-0.88
		c-0.03-0.43-0.05-0.87-0.14-1.28c-0.1-0.43-0.06-0.71,0.45-0.71c0.39,0,0.84-0.08,0.88,0.51C12.06,4.01,12.05,4.33,12.05,4.64
		C12.05,4.64,12.05,4.64,12.05,4.64z"/>
	<path class="st24" d="M10.37,4.95c-0.09,0.37,0.26,0.99-0.39,1.07C9.18,6.11,9.48,5.4,9.39,5C9.3,4.62,9.21,4.23,9.17,3.84
		C9.14,3.62,8.9,3.26,9.37,3.19c0.32-0.04,0.64-0.05,0.77,0.36C10.28,4.01,10.44,4.46,10.37,4.95z"/>
	<path class="st25" d="M8.67,6.8c-2.01,1.18-3.29,3-4.32,5.03c0.4-2.27,1.6-3.96,3.65-5.02C8.23,6.81,8.45,6.8,8.67,6.8z"/>
	<path class="st26" d="M13.24,4.66c0,0.39,0.01,0.66,0,0.94c-0.01,0.28-0.17,0.43-0.45,0.44c-0.28,0-0.44-0.15-0.47-0.43
		c-0.02-0.28-0.06-0.56-0.01-0.83c0.09-0.45-0.35-1.24,0.39-1.29C13.63,3.44,13.07,4.33,13.24,4.66z"/>
	<path class="st27" d="M8.9,6.16c-0.8-1-0.8-1.78-0.52-2.82C9.16,4.21,8.89,5.06,8.9,6.16z"/>
	<path class="st28" d="M16.37,18.41c-0.02,1.22-0.85,2.47-1.64,2.47c-0.81,0-1.51-0.86-1.48-1.82c0.05-1.63,0.62-2.43,1.69-2.41
		C15.93,16.66,16.39,17.24,16.37,18.41z"/>
	<path class="st29" d="M12.85,21.18c-1.63,0.45-1.72,0.36-1.58-0.97c0.07-0.75,0.04-1.51,0.05-2.26c0.01-1.35,0.01-1.35,1.47-0.91
		C12,17.49,11,17.91,12.35,18.77c0.16,0.11-0.11,0.2-0.2,0.3C11.36,19.93,11.58,20.77,12.85,21.18z"/>
	<path class="st30" d="M8.55,16.83c0.18,0.82,0.33,1.57,0.08,2.37c-0.43,1.37-0.25,1.56,1.14,1.45c0.22-0.02,0.44-0.23,0.85,0.1
		c-0.78,0.58-1.61,0.55-2.32,0.26c-0.65-0.27-0.3-0.96-0.21-1.49C8.25,18.62,8.4,17.73,8.55,16.83z"/>
	<path class="st31" d="M7.46,15.28c-0.37,0.27-0.74,0.54-1.12,0.81C6.36,15.32,6.8,15.12,7.46,15.28z"/>
	<path class="st32" d="M15.9,18.66c-0.08,0.55-0.19,1.48-1.26,1.57c-0.65,0.05-0.99-0.55-0.86-1.18c0.16-0.77,0.08-1.79,1.23-1.9
		C15.88,17.07,15.94,17.72,15.9,18.66z"/>
</g>
</svg>
