<?xml version="1.0" encoding="utf-8"?>
<!-- Generator: Adobe Illustrator 23.0.2, SVG Export Plug-In . SVG Version: 6.00 Build 0)  -->
<svg version="1.1" id="Camada_1" xmlns="http://www.w3.org/2000/svg" xmlns:xlink="http://www.w3.org/1999/xlink" x="0px" y="0px"
	 viewBox="0 0 19.16 40.17" style="enable-background:new 0 0 19.16 40.17;" xml:space="preserve">
<style type="text/css">
	.st0{fill:#543C1D;}
	.st1{fill:#3A6C35;}
	.st2{fill:#3B6D34;}
	.st3{fill:#533C1C;}
	.st4{fill:#B1872F;}
	.st5{fill:#CCA143;}
	.st6{fill:#CDA143;}
	.st7{fill:#FAF9F3;}
	.st8{fill:#ECBD4F;}
	.st9{fill:#DCB049;}
	.st10{fill:#E8B94C;}
	.st11{fill:#E9BB4D;}
	.st12{fill:#CDA040;}
	.st13{fill:#D8AC46;}
	.st14{fill:#D1A442;}
	.st15{fill:#6AA343;}
	.st16{fill:#6BA444;}
	.st17{fill:#F0F5F0;}
	.st18{fill:#CA9E42;}
	.st19{fill:#264320;}
	.st20{fill:#F8F6F0;}
	.st21{fill:#E7BB54;}
	.st22{fill:#185B1E;}
	.st23{fill:#EBB64A;}
	.st24{fill:#CCA042;}
	.st25{fill:#E5B649;}
	.st26{fill:#6BA443;}
	.st27{fill:#6DA644;}
	.st28{fill:#EABE4F;}
	.st29{fill:#6AA243;}
	.st30{fill:#6DA744;}
	.st31{fill:#1A3418;}
	.st32{fill:#213D1C;}
	.st33{fill:#2E4F24;}
	.st34{fill:#294721;}
	.st35{fill:#AF852E;}
	.st36{fill:#B28830;}
</style>
<g>
	<path d="M19,17.26c-0.2,1.67-0.05,3.62-0.26,5.57c-0.12,1.11,0.1,2.48,0.23,3.72c0.23,2.24,0.31,4.52-0.14,6.76
		c-0.08,0.38,0.06,0.69,0.12,1.04c0.32,1.75,0.37,3.44-1.29,4.64c-0.22,0.16-0.46,0.37-0.71,0.41c-4.06,0.66-8.13,1.18-12.24,0.32
		C1.84,39.12,0.8,37.88,1.02,35c0.06-0.78,0.04-1.49-0.27-2.2c-0.06-0.15-0.16-0.31-0.14-0.45c0.31-2.21-0.26-4.42,0.07-6.65
		c0.2-1.33-0.04-2.75-0.26-4.1c-0.52-3.15-0.64-6.38,0.07-9.41C1.16,9.4,1.76,6.26,4.67,4.55C5.03,4.34,4.9,4.02,4.83,3.7
		C4.49,2.23,5.01,1.14,6.43,0.56c2.24-0.9,4.46-0.66,6.61,0.29c0.83,0.37,1.05,1.17,0.97,2.02c-0.08,0.77,0.19,1.25,0.81,1.78
		c2.79,2.36,4.29,5.37,4.18,9.1C18.97,14.83,19,15.91,19,17.26z"/>
	<path class="st0" d="M17.35,22.86c0.45,2.35,0.42,4.71,0.45,7.09c0.02,1.97-0.38,3.94,0.02,5.95c0.3,1.49-0.4,2.09-1.95,2.41
		c-3.7,0.76-7.42,0.95-11.15,0.18c-2.09-0.43-2.62-1.03-2.45-3.11c0.11-1.37-0.61-2.58-0.47-3.88c0.23-2.09-0.33-4.18,0.24-6.29
		c0.22-0.81-0.41-1.83-0.24-2.8c0.47-0.14,0.84-0.04,1.04,0.45c0.12,1.47,0.23,1.6,1.7,1.92c0.5,0.11,1,0.21,1.5,0.32
		c0.98,0.19,1.96,0.07,2.94,0.08c1.32,0.02,2.64,0.02,3.94-0.26c0.3-0.06,0.73-0.15,0.83,0.23c0.1,0.34-0.26,0.55-0.55,0.69
		c-0.51,0.25-1.04,0.46-1.6,0.46c-2.39,0.02-4.8,0.28-7.17-0.26c-0.42-0.1-0.86-0.25-1.24,0.12c-0.77,1.64-0.58,2.06,1.12,2.5
		c0.42,0.11,0.85,0.16,1.27,0.28c1.42,0.1,2.84,0.18,4.25,0.35c0.43,0.05,1-0.1,1.08,0.6c-0.8,0.52-1.69,0.2-2.54,0.3
		c-1.56,0.08-3.09-0.2-4.61-0.49c-0.96,0.13-0.95,0.9-0.87,1.54c0.09,0.72,0.23,1.51,1.17,1.73c1.2,0.29,2.43,0.36,3.65,0.52
		c1.47,0.19,2.93,0.15,4.4-0.06c0.2-0.03,0.4-0.05,0.59-0.02c0.23,0.04,0.51,0.07,0.56,0.35c0.05,0.29-0.21,0.41-0.42,0.5
		c-0.91,0.41-1.86,0.66-2.87,0.74c-2.02,0.15-3.95-0.38-5.92-0.62c-0.72,0.56-0.73,1.24-0.03,2.43c0.24,0.32,0.6,0.4,0.95,0.43
		c2.43,0.25,4.86,0.74,7.31,0.22c1.17-0.09,2.34-0.14,3.47-0.48c0.37-0.3,0.58-0.76,0.52-1.15c-0.31-1.94,0.27-3.83,0.27-5.76
		c0-2.32-0.66-4.65-0.08-6.97C16.68,22.74,16.97,22.62,17.35,22.86z"/>
	<path class="st1" d="M17.35,22.86c-0.26,0.03-0.55,0-0.72,0.26c-0.13,0.13-0.27,0.24-0.43,0.32c-0.23,0.1-0.47,0.17-0.71,0.21
		c-0.85,0.09-1.68,0.35-2.54,0.29c-2.95-0.11-5.92,0.25-8.86-0.27c-0.53-0.17-1.09-0.29-1.35-0.88c-0.31-0.13-0.62-0.25-0.93-0.38
		c-0.61-2.3-0.51-4.66-0.46-7c0.03-1.22,0.1-2.45,0.65-3.59c0.44-0.28,0.9-0.11,1.35-0.06c0.72,0.17,1.46,0.26,2.2,0.33
		c3.38,0.19,6.77,0.14,10.15,0.02c0.32-0.05,0.65-0.08,0.97-0.01c0.36,0.18,0.81-0.09,1.14,0.22c0,2.9,0,5.8,0.01,8.7
		C17.82,21.69,17.48,22.25,17.35,22.86z"/>
	<path class="st2" d="M6.39,4.67c-0.84-2.42-0.14-3.37,2.51-3.4c0.44-0.01,0.88-0.02,1.31,0.02c2.42,0.17,2.68,0.47,2.58,2.89
		c-0.14,0.62,0.11,1.45-0.87,1.61c-0.12,0.05-0.25,0.07-0.38,0.1c-0.2,0.03-0.39,0.05-0.59,0.05c-1.08,0-2.15,0.01-3.23,0
		c-0.27,0-0.53-0.04-0.78-0.13C6.38,5.6,6.48,5.09,6.39,4.67z"/>
	<path class="st3" d="M11.87,5.57c0.83-0.12,0.58-0.95,0.92-1.4c0.03,0.31,0.05,0.59,0.39,0.8c2.61,1.62,4.05,4.01,4.52,7.02
		c0.02,0.12,0.07,0.22,0.11,0.34c-0.3-0.12-0.62,0.28-0.92-0.04c-0.65-2.24-1.73-4.21-3.5-5.76C12.94,6.1,12.25,6.07,11.87,5.57z"/>
	<path class="st3" d="M6.39,4.67c0.15,0.32,0.31,0.64,0.46,0.95c0.04,0.29-0.16,0.43-0.36,0.56c-1.63,1.03-2.56,2.55-3.05,4.37
		c-0.09,0.24-0.16,0.49-0.16,0.75c0,0.25,0.09,0.5-0.01,0.75c-0.42-0.08-0.85-0.16-1.27-0.23C2.16,11.1,2.3,10.36,2.5,9.65
		c0.52-1.86,1.48-3.4,3.23-4.35C6,5.15,6.33,5.05,6.39,4.67z"/>
	<path class="st4" d="M3.89,23.38c3.04,0.4,6.1,0.22,9.15,0.28c-0.37,0.77-1.1,0.48-1.67,0.51c-1.34,0.08-2.68,0.02-4.02,0.04
		c2.43,0.03,4.87,0.14,7.24-0.54c0.81-0.23,1.25,0.02,1.09,0.94c-0.32,0.55-0.16,1.25-0.5,1.79c-1.52,0.91-3.24,1.01-4.94,1.13
		c-0.87,0.06-1.75-0.02-2.62,0.03c-0.3,0.02-0.72-0.02-0.75,0.4c-0.04,0.41,0.35,0.51,0.66,0.53c1.18,0.04,2.34,0.32,3.56,0.12
		c1.68-0.28,3.31-0.88,5.05-0.78c0.87,0.61,0.2,1.38,0.22,2.07c-0.19,0.81-0.75,1.16-1.52,1.3c-1.99,0.38-3.99,0.78-6.02,0.86
		C7.84,32.1,7.13,32.3,6.82,33.3c-1.14,0.32-2.18-0.21-3.24-0.44c-0.54-0.12-0.57-0.73-0.64-1.19c-0.13-0.83-0.17-1.67,0.53-2.32
		c1.6,0.2,3.18,0.54,4.8,0.53c0.78,0.4,1.61,0.13,2.42,0.18c-0.04-0.14,0.67,0.14,0.15-0.27c-1.31-0.31-2.65-0.34-3.99-0.42
		c-0.51-0.03-1.04,0.11-1.51-0.22c0.02-0.17-0.1-0.15-0.21-0.18c-2.4-0.64-2.4-0.64-2.36-2.95c0.21-0.75,0.64-0.65,1.28-0.5
		c3.01,0.72,6.04,0.8,9.06,0c0.19-0.05,0.4-0.07,0.53-0.43c-1.59,0.36-3.13,0.53-4.69,0.4c-0.73-0.17-1.49-0.14-2.23-0.23
		c-0.76-0.01-1.48-0.26-2.17-0.54C3.98,24.52,3.53,24.12,3.89,23.38z"/>
	<path class="st4" d="M3.7,33.92c1.76,0.22,3.46,0.74,5.26,0.74c1.45,0,2.82-0.19,4.14-0.86c-0.32-0.22-0.67-0.08-1-0.08
		c-0.14-0.33,0.05-0.56,0.29-0.69c1.06-0.57,2.23-0.79,3.42-0.87c0.46-0.03,0.59,0.32,0.6,0.71c-0.08,0.45-0.33,0.85-0.37,1.32
		c0.07,1.16-0.55,1.7-1.63,1.99c-1.64,0.43-3.29,0.59-4.96,0.48c-0.86-0.06-1.56,0.11-2.09,0.8c-1.28,0.12-2.51,0-3.57-0.84
		C3.28,35.73,3.33,34.83,3.7,33.92z"/>
	<path class="st5" d="M16.2,33c-0.05-0.21,0.01-0.63-0.23-0.58c-1.33,0.31-2.83,0.12-3.86,1.29c-1.54,0.39-3.09,0.25-4.63,0.01
		c0.81-0.34,1.64-0.07,2.29-0.16c-0.85-0.18-1.99,0.3-2.95-0.37c-0.18-1.11,0.23-1.49,1.41-1.47c2.37,0.04,4.69-0.57,7.03-0.91
		c0.65-0.09,0.59-0.67,0.91-0.98C16.84,30.9,16.86,32.24,16.2,33z"/>
	<path class="st6" d="M7.29,37.3c0.19-0.87,0.6-1.11,1.57-1.02c1.69,0.16,3.39,0.06,5.09-0.34c1.23-0.29,1.97-0.71,1.8-2.07
		c0.71,0.52,0.89,1.38,0.47,2.36c-0.15,0.36-0.44,0.68-0.33,1.11c-1.17,0.26-2.35,0.48-3.56,0.43c-1.17-0.07-2.34,0.07-3.51-0.02
		C8.29,37.71,7.66,37.92,7.29,37.3z"/>
	<path class="st7" d="M15.89,37.34c-0.68,0.01-0.59-0.26-0.27-0.68c0.67-0.89,0.93-1.82,0.13-2.79c0.15-0.29,0.3-0.58,0.45-0.87
		c0.4-1.06,0.13-2.11-0.05-3.16c0-0.64,0.27-1.27,0.05-1.92c-0.43-0.4-0.41-0.97-0.55-1.48c-0.1-1.1,0.07-2.16,0.47-3.19
		c0.17-0.04,0.33-0.08,0.5-0.12c-0.25,2.15,0.52,4.27,0.12,6.43c-0.06,0.34,0.01,0.71,0.06,1.06c0.26,1.87-0.49,3.7-0.23,5.58
		C16.63,36.57,16.45,37.16,15.89,37.34z"/>
	<path class="st8" d="M6.81,33.2c1.1,0.3,2.24,0.21,3.35,0.53c-0.9,0-1.79,0-2.69,0c-1.24,0-2.45-0.24-3.66-0.49
		c-1.06-0.22-1.15-1.15-1.26-1.93c-0.1-0.76-0.05-1.61,0.91-1.96c-0.44,0.86-0.25,1.78-0.24,2.68c0.01,0.35,0.2,0.62,0.57,0.65
		C4.81,32.79,5.76,33.28,6.81,33.2z"/>
	<path class="st9" d="M7.29,37.3c1.17,0.49,2.4,0.1,3.59,0.23c0.49,0.06,1.03-0.19,1.46,0.24c-2.61,0.39-5.2,0.17-7.77-0.26
		c-0.37-0.06-0.81-0.12-0.91-0.62c-0.12-0.31,0.05-0.36,0.3-0.33C5.03,36.95,6.13,37.26,7.29,37.3z"/>
	<path class="st10" d="M3.89,23.38c0.31,1.68,1.79,1.36,2.89,1.69c-0.19,0.63-0.64,0.26-0.99,0.25c-0.73-0.15-1.46-0.25-2.17-0.45
		c-0.97-0.28-1.27-1.05-0.89-2.08C3.12,22.99,3.51,23.18,3.89,23.38z"/>
	<path class="st11" d="M2.77,26.04c0.03,0.03,0.08,0.06,0.08,0.08c-0.16,1.9,0.96,2.59,2.62,2.77c0.13,0.01,0.2,0.08,0.09,0.19
		c-0.05,0.05-0.14,0.06-0.22,0.08c-0.27-0.04-0.55-0.08-0.82-0.14C2.28,28.55,2.11,28.25,2.77,26.04z"/>
	<path class="st12" d="M10.84,29.8c0.37-0.02,0.74-0.04,1.25-0.06c-1.41,0.76-3.12,0.79-3.82,0.15C9.12,29.86,9.98,29.83,10.84,29.8
		z"/>
	<path class="st13" d="M3.95,36.55c-0.1,0.11-0.2,0.22-0.3,0.33c-0.49-1-0.86-1.99,0.05-2.97C3.79,34.79,3.45,35.71,3.95,36.55z"/>
	<path class="st14" d="M5.79,25.32c0.33-0.1,0.73,0.1,0.99-0.25c0.74,0.09,1.49,0.11,2.18,0.44C7.9,25.52,6.83,25.68,5.79,25.32z"/>
	<path class="st15" d="M16.4,22.21c-3.55,0.79-7.14,0.8-10.74,0.6c-0.87-0.05-1.73-0.54-2.54-0.95c-0.79-0.4-0.97-1.47-0.43-2.07
		c2.2,0.32,3.4-0.63,3.34-2.64c-0.02-0.56-0.13-1.08-0.68-1.27c-0.64-0.22-1.32-0.29-1.9,0.23c-0.26,0.23-0.38,0.61-0.74,0.75
		c-0.25,0.13-0.52,0.15-0.42-0.23c0.28-1.06,0.16-2.13,0.21-3.2c0.01-0.36,0.06-0.62,0.56-0.48c3.55,1.02,7.19,0.42,10.79,0.57
		c0.72,0.03,1.43,0.01,2.15,0.02c0.11,0.12,0.22,0.26,0.22,0.42C16.24,16.72,16.78,19.45,16.4,22.21z"/>
	<path class="st4" d="M3,11.38c-0.02-0.27-0.06-0.54,0.2-0.73c0.56-1.44,1.2-2.81,2.42-3.86c0.58-0.5,1.19-0.9,1.9-1.17
		c1.2,0.01,2.41,0.03,3.61,0.04c-0.28,0.72-0.93,0.48-1.43,0.5C8.2,6.25,7.85,6.47,7.33,7.89C7.19,8.26,7.07,8.64,6.97,9.03
		c-0.38,1.44-0.08,1.93,1.44,1.97c1.99,0.05,3.98,0.18,5.96-0.14c0.57-0.09,1.19-0.3,1.68,0.26c0.2,0.41,0.21,0.81-0.06,1.2
		c-1.02,0.46-2.11,0.26-3.16,0.24c-2.49-0.04-4.98,0.24-7.46-0.19C4.59,12.01,3.64,12.07,3,11.38z"/>
	<path class="st16" d="M2.98,19.51c-0.5-0.71-0.19-1.43-0.01-2.14c-0.04-0.81,0.53-1.23,1.12-1.53c1.09-0.55,1.93,0.03,2,1.27
		c0.06,0.98-0.2,1.81-0.94,2.46C4.46,20.17,3.69,20.13,2.98,19.51z"/>
	<path class="st17" d="M16.4,22.21c-0.49-0.3-0.26-0.79-0.27-1.19c-0.06-2.49-0.1-4.98-0.14-7.47c2.01-0.85,0.73,0.99,1.16,1.42
		c0.14,1.02,0.22,2.04-0.05,3.05c-0.21,1.06-0.08,2.13-0.12,3.19C16.96,21.66,17.01,22.11,16.4,22.21z"/>
	<path class="st18" d="M15.44,24.8c0.22-1.01-0.32-1.2-1.09-0.92c-2.34,0.85-4.76,0.69-7.18,0.68c-0.35,0-0.96,0.21-0.98-0.33
		c-0.02-0.6,0.6-0.36,0.94-0.37c1.59-0.03,3.18-0.01,4.77-0.02c0.39,0,0.8,0.11,1.14-0.18c0.89-0.09,1.78-0.18,2.66-0.27
		C15.91,23.91,16.26,24.46,15.44,24.8z"/>
	<path class="st19" d="M2.98,19.51c0.88,0.48,1.67,0.39,2.34-0.4c0.72-0.85,0.78-1.88,0.41-2.79c-0.28-0.69-1.08-0.56-1.65-0.18
		c-0.46,0.31-0.83,0.73-1.1,1.23c-0.22-0.1-0.23-0.31-0.27-0.51c0.52-1.43,0.97-1.71,2.4-1.42c1.17,0.24,1.28,1.13,1.22,2.11
		c-0.07,1.13-0.59,2-1.57,2.5c-0.68,0.35-1.45,0.46-2.06-0.25C2.79,19.7,2.89,19.61,2.98,19.51z"/>
	<path class="st20" d="M15.99,12.31c-0.04-0.4-0.07-0.79-0.11-1.19c-0.3-0.54-0.83-0.94-0.95-1.59c-0.19-0.87-0.83-1.49-1.26-2.23
		c-0.19-0.33-0.68-0.62-0.28-1.11c1.92,1.4,2.8,3.47,3.67,5.56c0.1,0.24-0.13,0.35-0.18,0.52C16.59,12.39,16.3,12.42,15.99,12.31z"
		/>
	<path class="st21" d="M15.44,24.8c0.46-0.4,0.16-0.94,0.26-1.41c0.14-0.05,0.28-0.09,0.42-0.14c-0.07,1.08-0.13,2.16-0.2,3.24
		c-0.31,0.14-0.52,0-0.7-0.25C15.15,25.74,14.69,25.18,15.44,24.8z"/>
	<path class="st22" d="M17.09,18.03c0.02-1.02,0.04-2.03,0.05-3.05c0.47,0.9,0.17,1.86,0.21,2.8c0.06,1.3,0.01,2.61-0.26,3.91
		C17.09,20.46,17.09,19.24,17.09,18.03z"/>
	<path class="st23" d="M3,11.38c0.85,0.19,1.66,0.48,2.38,0.99c-0.71-0.1-1.41-0.21-2.12-0.31C3.09,11.86,2.94,11.66,3,11.38z"/>
	<path class="st24" d="M15.2,9.46c0.14,0.59,0.7,1.01,0.68,1.67c-2.25,0.12-4.5,0.3-6.76,0.25c-2.85-0.06-3.16-0.43-2.28-3.12
		c0.06-0.19,0.13-0.38,0.2-0.56c0.58-1.64,0.88-1.84,2.57-1.86c0.5-0.01,1.04,0.16,1.51-0.17c0.16-0.02,0.33-0.03,0.49-0.05
		c1.32,1.03,2.71,2,3.16,3.78C14.79,9.46,15.07,9.35,15.2,9.46z"/>
	<path class="st25" d="M15.2,9.46c-0.24,0.14-0.46,0.34-0.71,0.42c-0.27,0.08-0.57-0.18-0.33-0.36c0.75-0.56,0.04-0.78-0.16-1.18
		c-0.56-1.13-1.86-1.58-2.4-2.71c0.08-0.02,0.17-0.03,0.25-0.05c0.53,0.16,1.1,0.26,1.54,0.63C13.82,7.39,14.92,8.19,15.2,9.46z"/>
	<path class="st26" d="M10.89,3.5c0,0.28,0,0.55,0,0.83c0,0.4-0.21,0.56-0.59,0.56c-0.38,0-0.58-0.17-0.59-0.56
		C9.7,3.89,9.69,3.45,9.65,3.02c-0.04-0.42-0.49-0.95,0.39-1.03c0.82-0.08,0.91,0.41,0.86,1.03c-0.01,0.16,0,0.32,0,0.47
		C10.89,3.5,10.89,3.5,10.89,3.5z"/>
	<path class="st27" d="M9.2,3.84c-0.08,0.3,0.27,0.92-0.38,1c-0.8,0.1-0.5-0.61-0.6-1.01C8.14,3.45,8.05,3.06,8.01,2.67
		C7.98,2.45,7.73,2.09,8.2,2.02c0.38-0.06,0.69,0,0.82,0.46C9.14,2.9,9.24,3.32,9.2,3.84z"/>
	<path class="st28" d="M7.51,5.62c-2.01,1.18-3.29,3-4.32,5.03c0.4-2.27,1.6-3.96,3.65-5.02C7.07,5.63,7.29,5.62,7.51,5.62z"/>
	<path class="st29" d="M12.09,3.62c0,0.24,0,0.48,0,0.72c-0.01,0.32-0.12,0.54-0.49,0.53c-0.37-0.01-0.45-0.26-0.45-0.57
		c-0.01-0.44-0.01-0.87-0.01-1.31c0-0.32-0.03-0.68,0.43-0.7c0.53-0.02,0.52,0.37,0.53,0.74C12.09,3.22,12.09,3.42,12.09,3.62
		C12.09,3.62,12.09,3.62,12.09,3.62z"/>
	<path class="st30" d="M7.25,2.21c0.78,0.81,0.42,1.66,0.56,2.54C6.97,4.04,6.89,3.67,7.25,2.21z"/>
	<path class="st5" d="M15.23,26.25c0.23,0.08,0.47,0.16,0.7,0.25c0.29,0.44,0.36,0.92,0.28,1.43c-2.93,0.62-5.83,1.45-8.88,0.96
		c-0.63-0.1-1.04-0.31-1-1.06c0.04-0.77,0.58-0.64,1.03-0.62C10.04,27.31,12.68,27.15,15.23,26.25z"/>
	<path class="st31" d="M15.21,17.23c-0.02,1.22-0.85,2.47-1.63,2.47c-0.81,0-1.51-0.86-1.48-1.82c0.05-1.63,0.62-2.43,1.68-2.42
		C14.77,15.48,15.23,16.06,15.21,17.23z"/>
	<path class="st32" d="M11.53,15.89c-0.71,0.43-1.66,0.81-0.37,1.66c0.09,0.06,0.05,0.16-0.02,0.28c-0.89,1.5-0.86,1.63,0.35,2.17
		c-1.33,0.48-1.52,0.34-1.39-0.93c0.08-0.79,0.05-1.59,0.06-2.38C10.18,15.33,10.17,15.33,11.53,15.89z"/>
	<path class="st33" d="M9.28,19.37c-0.57,0.8-1.34,0.67-2.04,0.53c-0.65-0.14-0.49-0.77-0.39-1.2c0.24-1.01,0.42-2.02,0.54-3.05
		c0.22,0.75,0.32,1.49,0.1,2.26c-0.45,1.57-0.31,1.72,1.35,1.52C8.99,19.41,9.14,19.39,9.28,19.37z"/>
	<path class="st34" d="M5,14.64c0.26-0.47,0.64-0.75,1.33-0.57c-0.37,0.28-0.75,0.56-1.12,0.83C5.14,14.81,5.07,14.73,5,14.64z"/>
	<path class="st35" d="M13.02,8.09c-0.06,0.35-0.28,0.4-0.53,0.38c-0.29-0.03-0.57-0.14-0.55-0.48c0.02-0.33,0.27-0.46,0.58-0.42
		C12.85,7.61,12.98,7.83,13.02,8.09z"/>
	<path class="st36" d="M8.16,10.63c-0.29-0.05-0.56-0.16-0.54-0.5C7.64,9.87,7.86,9.7,8.13,9.78C8.38,9.85,8.7,9.95,8.68,10.3
		C8.67,10.61,8.41,10.64,8.16,10.63z"/>
	<path class="st15" d="M14.76,17.42c-0.06,0.64-0.24,1.5-1.19,1.63c-0.73,0.09-1.08-0.55-0.93-1.22c0.16-0.76,0.09-1.8,1.27-1.86
		C14.78,15.92,14.76,16.6,14.76,17.42z"/>
</g>
</svg>
