<?xml version="1.0" encoding="utf-8"?>
<!-- Generator: Adobe Illustrator 23.0.2, SVG Export Plug-In . SVG Version: 6.00 Build 0)  -->
<svg version="1.1" id="Camada_1" xmlns="http://www.w3.org/2000/svg" xmlns:xlink="http://www.w3.org/1999/xlink" x="0px" y="0px"
	 viewBox="0 0 1280 800" style="enable-background:new 0 0 1280 800;" xml:space="preserve">
<style type="text/css">
	.st0{fill:#FEFEFE;}
	.st1{fill:#9C6B40;}
	.st2{fill:#BE8753;}
	.st3{fill:#D1A779;}
	.st4{fill:#D29C62;}
	.st5{fill:#D49D61;}
	.st6{fill:#C5884C;}
	.st7{fill:#F6D0A6;}
	.st8{fill:#ECB97F;}
	.st9{fill:#ECB97E;}
	.st10{fill:#136D4F;}
</style>
<g>
	<path d="M842.24,399.95c0,42.24-0.11,84.48,0.08,126.72c0.04,9.38-0.89,18.49-3.36,27.52c-1.39,5.08-2.34,10.26-5.25,14.78
		c-5.52,8.58-11.88,16.21-20.54,22.04c-6.61,4.45-13.79,6.6-21.29,8.52c-8.09,2.07-16.22,2.74-24.54,2.73
		c-84.96-0.1-169.92-0.11-254.88,0.02c-9.08,0.01-17.9-0.88-26.62-3.31c-4.25-1.19-8.71-1.72-12.6-3.98
		c-9.63-5.58-18.06-12.34-24.43-21.79c-4.49-6.66-6.65-13.89-8.59-21.45c-2.06-8.04-2.72-16.1-2.71-24.37
		c0.09-84.96,0.11-169.92-0.03-254.88c-0.01-9.14,0.96-18,3.32-26.8c1.39-5.2,2.4-10.49,5.39-15.11c5.48-8.46,11.76-16,20.3-21.78
		c6.65-4.5,13.87-6.7,21.44-8.63c8.09-2.05,16.22-2.73,24.54-2.72c84.96,0.1,169.92,0.11,254.88-0.02
		c9.08-0.01,17.9,0.88,26.62,3.31c4.25,1.18,8.71,1.72,12.6,3.98c9.62,5.59,18.06,12.34,24.42,21.79
		c4.49,6.67,6.64,13.89,8.59,21.45c2.09,8.09,2.73,16.22,2.7,24.54C842.17,314.99,842.24,357.47,842.24,399.95z"/>
	<path class="st0" d="M836.48,399.91c0,42.48-0.11,84.96,0.08,127.43c0.04,9.08-1.1,17.85-3.28,26.63
		c-3.1,12.49-10.08,22.2-20.19,29.85c-4.16,3.14-8.29,6.47-13.42,7.83c-9.47,2.52-18.89,4.91-28.92,4.89
		c-86.09-0.18-172.19-0.16-258.28-0.02c-9.02,0.01-17.74-1.07-26.46-3.21c-12.62-3.1-22.44-10.13-30.15-20.36
		c-3.13-4.16-6.44-8.31-7.79-13.45c-2.48-9.48-4.87-18.9-4.85-28.92c0.18-86.09,0.16-172.19,0.02-258.28
		c-0.01-9.02,1.12-17.73,3.26-26.45c3.09-12.56,10.3-22.08,20.21-30.07c7.66-6.18,16.52-8.89,25.85-10.89
		c4.9-1.05,9.77-1.62,14.78-1.62c86.7,0.04,173.39,0.08,260.08-0.05c9.02-0.01,17.73,1.1,26.46,3.24c12.56,3.09,22.32,10.1,30,20.26
		c3.14,4.16,6.46,8.29,7.82,13.43c2.48,9.42,4.93,18.77,4.88,28.74C836.34,312.55,836.48,356.23,836.48,399.91z"/>
	<path class="st1" d="M639.88,591.78c-42.36,0-84.71-0.1-127.07,0.08c-9.14,0.04-17.99-1-26.82-3.24c-6.23-1.57-11.4-4.8-16.51-8.44
		c-7.5-5.35-12.62-12.59-16.47-20.74c-2.25-4.78-2.69-10.16-4.06-15.25c-0.77-2.86-0.97-5.79-0.97-8.73
		c0-90.41,0.01-180.83-0.03-271.24c0-6.28,2.05-12.13,3.22-18.17c1.23-6.31,4.71-11.43,8.34-16.54c5.34-7.51,12.57-12.64,20.72-16.5
		c4.83-2.29,10.27-2.74,15.42-4.11c2.8-0.75,5.67-0.95,8.55-0.95c90.47,0,180.95,0.01,271.42-0.03c5.79,0,11.23,1.7,16.76,2.94
		c11.77,2.64,20.61,9.53,28.05,18.8c5.82,7.25,8.23,15.68,10.11,24.47c0.82,3.84,1.27,7.66,1.27,11.58
		c-0.02,87.11-0.07,174.23,0.07,261.34c0.01,9.14-0.92,18.01-3.28,26.81c-1.23,4.58-3.18,8.71-5.7,12.71
		c-5.73,9.05-13.59,15.6-23.18,20.09c-4.91,2.3-10.39,2.78-15.58,4.18c-2.98,0.81-6.03,0.95-9.09,0.95
		C730,591.78,684.94,591.78,639.88,591.78z"/>
	<path class="st2" d="M824.38,411.19c0,42.41,0.04,84.82-0.03,127.23c-0.01,4.49-1.67,8.76-2.64,13.11
		c-1.56,6.92-5.47,12.57-10.13,17.69c-4.89,5.38-10.7,9.63-17.69,11.74c-6.66,2.02-13.43,3.47-20.55,3.46
		c-88.06-0.1-176.12-0.11-264.18,0.01c-7.14,0.01-14-0.99-20.87-2.7c-6.88-1.71-12.57-5.49-17.7-10.14
		c-5.42-4.92-9.7-10.79-11.83-17.85c-2.01-6.67-3.43-13.44-3.42-20.56c0.11-77.62,0.07-155.24,0.07-232.87
		c0-0.72,0.01-1.44,0.02-2.16c2.1-0.16,3.41,0.47,4.15,1.99c0.01,39.08,0.01,78.15,0.01,117.22c0,9.47,0,18.94,0,28.41
		c0,1.26,0.03,2.52,0.17,3.77c-0.27,2.63-0.2,5.27-0.2,7.91c0,25.91-0.27,51.83,0.11,77.74c0.19,12.83,4.12,24.61,14.17,33.46
		c4.75,4.18,9.92,7.63,16.3,9.13c6.69,1.56,13.35,2.5,20.27,2.49c88.18-0.09,176.36-0.05,264.54-0.08c7.1,0,13.99-1.71,20.45-4.42
		c5.95-2.5,10.88-6.72,14.99-11.79c4.29-5.29,6.79-11.27,8.3-17.92c1.38-6.12,1.78-12.19,1.4-18.38c0.12-1.44,0.13-2.87,0.13-4.31
		c0-36.02,0-72.03,0-108.05c0-0.6,0-1.2,0-1.8C820.23,409.9,821.23,409.35,824.38,411.19z"/>
	<path class="st3" d="M473.03,226.15c5.43-4.73,11.78-7.33,18.74-9.09c7.2-1.83,14.43-1.7,21.7-1.7c85.83,0,171.66,0.04,257.49-0.08
		c7.07-0.01,13.85,1.03,20.64,2.73c6.87,1.72,12.54,5.49,17.64,10.15c5.49,5.01,9.8,10.94,11.9,18.15
		c1.95,6.68,3.44,13.42,3.33,20.53c-0.26,16.19-0.1,32.39-0.12,48.58c-1.74,0.27-3.01-0.43-3.94-1.88
		c-0.19-0.89-0.12-1.79-0.12-2.69c-0.01-9.7,0-19.4,0-29.11c0-0.9,0.04-1.8-0.23-2.67c-0.38-4.05-0.14-8.1-0.16-12.15
		c0.62-2.76,0.25-5.52-0.3-8.21c-0.91-4.52-1.91-9.04-3.34-13.44c-0.32-0.98-0.73-1.91-1.28-2.77c-3.8-5.95-8.04-11.42-14.1-15.38
		c-3.53-2.31-7.16-4.02-11.22-5.07c-6.95-1.8-13.95-2.62-21.16-2.61c-87.32,0.09-174.64,0.06-261.96,0.05
		c-7.67,0-14.94,2.04-22.13,4.37c-2.88,0.93-5.01,3.26-7.59,4.77c-0.17,0.11-0.36,0.17-0.57,0.2
		C475.04,228.12,473.59,227.67,473.03,226.15z"/>
	<path class="st4" d="M820.8,314c1.19,0.48,2.37,0.95,3.56,1.43c0.01,9.12,0.03,18.24,0.04,27.36c0,22.8-0.01,45.6-0.01,68.4
		c-0.48-0.02-0.97,0.03-1.43-0.06c-2.15-0.43-2.15-0.45-2.15,1.81c0,37.42,0,74.85,0,112.27c0,0.89,0.15,1.81-0.35,2.64
		c-2.53,0.15-5.83-2.69-5.91-5.09c-0.02-0.6-0.01-1.2-0.01-1.8c0-36.18,0-72.36,0.01-108.54c0-1.02-0.11-2.04,0.16-3.04
		c0.66-1.11,1.6-0.61,2.5-0.46c0.94,0.15,1.85,0.9,2.82,0.12c0.46-0.79,0.26-1.65,0.26-2.47c0.01-29.77,0.01-59.53,0.02-89.3
		c0-1.01-0.17-2.04,0.26-3.02C820.64,314.18,820.72,314.09,820.8,314z"/>
	<path class="st5" d="M473.03,226.15c0.8,1.02,2.38,1.16,2.89,2.52c-0.12,0.8-0.76,1.19-1.3,1.65c-4.31,3.59-7.25,8.27-10.23,12.91
		c-0.79,1.22-1.11,2.66-1.48,4.04c-1.72,6.37-3.24,12.73-3.08,19.45c0.24,10.01,0.07,20.03,0.06,30.04c0,0.89,0.13,1.81-0.31,2.65
		c-0.08,0.07-0.15,0.14-0.23,0.21c-1.3-0.49-2.6-0.98-3.9-1.47c-0.01-12.35-0.13-24.69,0.04-37.03c0.06-4.4,1.64-8.62,2.61-12.91
		c1.53-6.79,5.48-12.22,9.81-17.44C469.38,228.97,471.04,227.38,473.03,226.15z"/>
	<path class="st6" d="M815.07,409.01c-0.01,10.31-0.03,20.62-0.03,30.93c0,27.46,0.02,54.91-0.04,82.37c0,1.6,0.48,2.62,1.79,3.34
		c1.25,0.69,2.25,1.77,3.66,2.2c0.4,0.65,0.31,1.38,0.36,2.09c0.56,7.03-0.87,13.79-2.68,20.5c-2.41,8.92-7.93,15.55-14.99,21.29
		c-6.84,5.56-15,7.02-23.19,8.69c-1.85,0.38-3.69,0.33-5.54,0.33c-88.05,0.01-176.11-0.03-264.16,0.08
		c-7.2,0.01-14.15-0.89-21.03-2.79c-8.77-2.42-15.35-7.83-21.04-14.76c-5.67-6.91-7.21-15.17-8.85-23.5c-0.33-1.67-0.32-3.33-0.32-5
		c-0.01-27.35,0-54.7-0.01-82.06c0-1.03,0.06-2.03,0.37-3.01c1.31-0.33,2.28,0.56,3.38,0.96c1.05,0.38,1.46,0.08,1.44-0.99
		c-0.01-0.54,0-1.08,0-1.62c0-48.48,0-96.95,0-145.43c0-0.42-0.02-0.84,0.04-1.26c-0.08-12.37-0.03-24.74-0.02-37.11
		c0-0.9-0.23-1.96,0.84-2.54c0.62,0.45,0.6,1.14,0.64,1.79c0.05,0.72,0.02,1.44,0.02,2.16c0,61.26,0.24,122.52-0.11,183.77
		c-0.16,27.89-0.1,55.79-0.21,83.68c-0.03,7.48,0.95,14.87,4.66,21.59c5.02,9.11,12.45,15.2,22.58,17.94
		c4.74,1.28,9.56,1.74,14.42,1.74c88.56,0.03,177.11,0.03,265.67,0.01c5.6,0,11.16-0.55,16.5-2.32c8.94-2.97,15.66-8.68,20.28-16.84
		c2.92-5.16,4.11-10.81,4.66-16.67c0.54-5.76,0-11.5-0.01-17.25c-0.06-68.4-0.04-136.8-0.03-205.19c0-1.18-0.25-2.42,0.46-3.52
		c0.23-0.16,0.43-0.14,0.62,0.06c0.5,0.75,0.43,1.61,0.43,2.44c0.01,30.44,0.01,60.88,0,91.32
		C815.62,407.32,815.74,408.25,815.07,409.01z"/>
	<path class="st5" d="M464.74,301.38c0,49.77,0.01,99.55,0.01,149.32c0,0.41-0.04,0.81-0.08,1.46c-1.87-0.85-3.59-1.64-5.32-2.43
		c-0.4-0.65-0.36-1.37-0.36-2.09c0-48.64,0-97.27,0-145.91c0-0.72-0.04-1.44,0.33-2.1c0,0,0.04-0.03,0.04-0.03
		C461.43,299.37,463.2,300.05,464.74,301.38z"/>
	<path class="st7" d="M476.3,228.67c4.38-4.16,9.77-6.09,15.52-7.64c8-2.16,16.09-2.06,24.22-2.06c85.3,0.01,170.6,0.04,255.91-0.04
		c7.17-0.01,14.05,1.34,20.74,3.52c7.87,2.56,14.16,7.55,18.99,14.31c1.35,1.9,2.76,3.77,3.94,5.77c1.65,2.82,2.31,6.02,2.99,9.16
		c0.75,3.43,1.79,6.8,2.04,10.35c0.11,1.64,0.07,3.21-0.2,4.8c-2.19-0.01-3.89-1.23-5.65-2.31c-0.43-1.07-0.1-2.27-0.53-3.34
		c-0.75-8.31-3.19-15.96-8.67-22.45c-6.75-8-15.51-12-25.78-13.12c-4.37-0.48-8.75-0.33-13.12-0.33
		c-86.68-0.01-173.36-0.01-260.04-0.01c-8.6,0-16.82,1.51-24.24,6.18c-0.25,0.16-0.54,0.27-0.82,0.35
		C479.34,231.59,477.86,230.07,476.3,228.67z"/>
	<path class="st8" d="M815.07,409.01c-0.01-5.28-0.04-10.55-0.04-15.83c-0.01-26.87-0.01-53.73-0.02-80.6
		c-0.27-0.42-0.31-0.83,0.08-1.21c1.1-0.35,1.96,0.32,2.88,0.7c1.66,0.68,1.89,0.57,1.9-1.19c0.03-3.47,0.01-6.95,0.01-10.42
		c0-6.17-0.01-12.34,0.01-18.51c0-0.89-0.11-1.8,0.32-2.65c0.08-0.08,0.15-0.15,0.23-0.23c0.59,0.6,0.33,1.37,0.33,2.05
		c0.02,10.96,0.01,21.92,0.01,32.88v0c-0.36,0.68-0.18,1.41-0.18,2.12c-0.01,30.63-0.01,61.25-0.02,91.88
		c0,0.71,0.17,1.44-0.16,2.12C818.56,410.21,816.93,409.05,815.07,409.01z"/>
	<path class="st9" d="M476.3,228.67c1.75,0.67,3.11,1.98,4.69,2.91c0.06,0.97-0.78,1.29-1.35,1.75c-4.53,3.59-8.05,7.96-10.5,13.19
		c-2.02,4.32-3.08,8.89-3.56,13.61c-0.06,0.58,0.05,1.21-0.49,1.65c-0.57,0.61-0.31,1.37-0.31,2.06
		c-0.02,12.51-0.03,25.03-0.04,37.54c-1.79-0.6-3.59-1.19-5.38-1.79c0-12.76-0.14-25.53,0.05-38.29c0.07-4.76,1.49-9.42,2.93-13.95
		c2.44-7.68,7.29-13.72,13.56-18.67C476.04,228.67,476.17,228.67,476.3,228.67z"/>
	<path class="st8" d="M815.09,264.65c1.94,0.36,3.53,1.55,5.35,2.19c0,4.08,0.01,8.15,0.01,12.22c0,0-0.02,0.02-0.02,0.02
		c-2.37-0.16-4.38-1.01-5.8-3c-0.21-3.33-0.07-6.66-0.08-9.99C814.55,265.56,814.6,265.01,815.09,264.65z"/>
	<path class="st3" d="M820.44,410.12c0-31.42,0-62.83,0.01-94.25c0-0.63-0.24-1.33,0.35-1.87c0,31.3,0,62.59-0.02,93.89
		C820.78,408.63,821.08,409.46,820.44,410.12z"/>
	<path class="st1" d="M465.1,261.78c0.43-10.6,4.24-19.71,12.07-26.99c1.22-1.13,2.55-2.14,3.83-3.2c5.09-3.33,10.7-5.3,16.68-6.2
		c2.06-0.31,4.16-0.55,6.24-0.55c90.65-0.03,181.3-0.07,271.95,0.03c11.11,0.01,21.04,3.61,28.86,11.97
		c5.29,5.65,8.22,12.41,9.56,19.95c0.27,1.55,0.29,3.1,0.41,4.65c0.34,2.62,0.06,5.26,0.16,7.88c0.46,12.81,0.31,25.63,0.34,38.44
		c0,1.62-0.02,3.22-0.49,4.79c-0.01,0.78-0.03,1.56-0.03,2.34c0,69.12-0.02,138.24,0.06,207.36c0,3.94,0.34,7.89,0.27,11.84
		c-0.1,5.64-0.77,11.22-2.74,16.52c-3.12,8.39-8.67,14.82-16.45,19.23c-5.56,3.15-11.63,4.41-17.99,4.87
		c-5.82,0.42-11.62,0.26-17.42,0.26c-84.9,0.03-169.8,0.05-254.7-0.02c-6.82-0.01-13.58-0.96-19.81-4.13
		c-10.36-5.28-16.99-13.49-19.71-24.85c-0.98-4.1-1.37-8.26-1.38-12.42c-0.07-26.1-0.26-52.2,0.01-78.3
		c0.65-63.65,0.07-127.29,0.3-190.94C465.12,263.46,465.1,262.62,465.1,261.78z"/>
	<path class="st4" d="M814.71,312.55c0-17.04-0.01-34.08-0.01-51.11c0.7,1,0.14,2.16,0.39,3.21c0,3.98-0.01,7.97-0.01,11.95
		c0.47,0.74,0.55,1.57,0.55,2.42c0,10.08,0.01,20.15-0.01,30.23c0,0.78,0.03,1.57-0.54,2.22c-0.02,0.37-0.04,0.74-0.06,1.12
		C814.92,312.57,814.81,312.56,814.71,312.55z"/>
	<path class="st7" d="M815.08,311.46c0-11.62,0-23.24,0-34.86c1.79,0.83,3.57,1.66,5.35,2.49c0,10.95-0.01,21.89,0.03,32.84
		c0,1.34-0.12,1.97-1.63,1.14C817.65,312.41,816.33,311.99,815.08,311.46z"/>
	<path class="st10" d="M639.86,232.44c45.24,0,90.47-0.03,135.71,0.03c6.73,0.01,13.15,1.44,18.8,5.42
		c6.67,4.7,10.8,11.04,12.31,19.04c0.53,2.81,0.75,5.67,0.75,8.54c0,90.11,0.02,180.22-0.03,270.33c0,6.72-1.46,13.14-5.47,18.78
		c-4.73,6.65-11.07,10.77-19.08,12.25c-2.81,0.52-5.67,0.74-8.54,0.74c-89.93,0-179.86,0.01-269.79-0.03
		c-6.84,0-13.4-1.34-19.16-5.41c-6.66-4.71-10.8-11.05-12.31-19.04c-0.53-2.81-0.75-5.67-0.75-8.54c0-89.93-0.02-179.86,0.02-269.79
		c0-6.9,1.34-13.52,5.47-19.32c4.73-6.65,11.07-10.76,19.08-12.25c2.87-0.54,5.79-0.74,8.72-0.74
		C550.35,232.44,595.11,232.44,639.86,232.44z"/>
</g>
</svg>
