<?xml version="1.0" encoding="utf-8"?>
<!-- Generator: Adobe Illustrator 23.0.2, SVG Export Plug-In . SVG Version: 6.00 Build 0)  -->
<svg version="1.1" id="Camada_1" xmlns="http://www.w3.org/2000/svg" xmlns:xlink="http://www.w3.org/1999/xlink" x="0px" y="0px"
	 viewBox="0 0 177.75 86.52" style="enable-background:new 0 0 177.75 86.52;" xml:space="preserve">
<style type="text/css">
	.st0{fill:#323232;}
	.st1{fill:#DFA577;}
</style>
<g>
	<path class="st0" d="M88.93,86.48c-17.67,0-35.35,0.01-53.02,0C15.56,86.46,0.09,71,0.16,50.6C0.18,43.81-0.43,37,0.6,30.24
		C2.37,18.67,8.38,9.96,18.62,4.29c4.97-2.75,10.45-4.14,16.08-4.16c36.15-0.1,72.3-0.25,108.45,0.04
		c16.96,0.14,30.08,11.87,33.29,26.33c0.84,3.77,1.44,7.52,1.3,11.38c-0.27,7.64,0.75,15.34-1.45,22.88
		c-3.56,12.23-11.34,20.27-23.49,24.02c-4.3,1.33-8.72,1.77-13.24,1.74C122.68,86.42,105.8,86.48,88.93,86.48z"/>
	<path class="st1" d="M88.98,77.84c-17.36,0-34.72-0.31-52.07,0.09C20.78,78.31,7.94,65.72,8.75,49.57
		c0.32-6.3-0.51-12.64,0.45-18.92c1.87-12.19,12.87-21.88,25.19-21.9c36.32-0.08,72.63-0.08,108.95,0
		c13.23,0.03,24.79,10.78,25.58,24.16c0.45,7.63,0.79,15.37-0.31,22.99c-1.77,12.31-12.93,21.87-25.4,21.92
		C125.14,77.88,107.06,77.84,88.98,77.84z"/>
</g>
</svg>
