<?xml version="1.0" encoding="utf-8"?>
<!-- Generator: Adobe Illustrator 23.0.2, SVG Export Plug-In . SVG Version: 6.00 Build 0)  -->
<svg version="1.1" id="Camada_1" xmlns="http://www.w3.org/2000/svg" xmlns:xlink="http://www.w3.org/1999/xlink" x="0px" y="0px"
	 viewBox="0 0 169.28 69.41" style="enable-background:new 0 0 169.28 69.41;" xml:space="preserve">
<style type="text/css">
	.st0{fill:#D1AC8E;}
</style>
<g>
	<path class="st0" d="M145.44,69.41c-40.64,0-81.28,0-121.92,0c-0.88-0.54-1.88-0.28-2.79-0.28c-9.66-0.05-21.12-11.4-20.49-22.35
		c0.02-0.32,0-0.63-0.24-0.89c0-7.36,0-14.72,0-22.08c0.55-3.68,0.56-7.45,2.66-10.79C7.24,5.75,13.15,0.68,22.22,0.25
		c2.56-0.12,5.1-0.19,7.66-0.19C67.62,0.05,105.36,0.13,143.1,0c9.21-0.03,16.4,3.35,21.79,10.74c2.93,4.02,4.28,8.56,4.26,13.46
		c-0.02,8.23,0.45,16.47-0.32,24.68c-0.62,6.63-4.34,11.51-9.23,15.67c-3.68,3.14-7.97,4.6-12.78,4.63
		C146.35,69.18,145.86,69.09,145.44,69.41z"/>
</g>
</svg>
