<?xml version="1.0" encoding="utf-8"?>
<!-- Generator: Adobe Illustrator 23.0.2, SVG Export Plug-In . SVG Version: 6.00 Build 0)  -->
<svg version="1.1" id="Camada_1" xmlns="http://www.w3.org/2000/svg" xmlns:xlink="http://www.w3.org/1999/xlink" x="0px" y="0px"
	 viewBox="0 0 169.29 69.41" style="enable-background:new 0 0 169.29 69.41;" xml:space="preserve">
<style type="text/css">
	.st0{fill:#684232;}
</style>
<g>
	<path class="st0" d="M145.44,69.41c-40.8,0-81.6,0-122.4,0c-0.72-0.5-1.56-0.28-2.31-0.28c-9.42-0.08-20.2-10.89-20.47-20.67
		c-0.01-0.53,0.16-1.12-0.26-1.6c0-8,0-16,0-24c0.48-4.31,1.37-8.46,4.04-12.07C9.29,3.7,16.12-0.01,25.08,0.01
		C64.66,0.09,104.24,0.12,143.82,0c12.64-0.04,20.47,7.64,24.22,16.64c1.01,2.41,1.05,5.03,1.07,7.54
		c0.07,8.22,0.49,16.46-0.28,24.67c-0.63,6.63-4.35,11.51-9.24,15.66c-3.75,3.19-8.11,4.68-13.01,4.65
		C146.19,69.16,145.78,69.14,145.44,69.41z"/>
</g>
</svg>
