<?xml version="1.0" encoding="utf-8"?>
<!-- Generator: Adobe Illustrator 23.0.2, SVG Export Plug-In . SVG Version: 6.00 Build 0)  -->
<svg version="1.1" id="Camada_1" xmlns="http://www.w3.org/2000/svg" xmlns:xlink="http://www.w3.org/1999/xlink" x="0px" y="0px"
	 viewBox="0 0 186.39 86.52" style="enable-background:new 0 0 186.39 86.52;" xml:space="preserve">
<style type="text/css">
	.st0{fill:#323232;}
	.st1{fill:#354C4F;}
</style>
<g>
	<path class="st0" d="M93.25,86.48c-19.11,0-38.23,0.01-57.34,0C15.56,86.46,0.09,70.99,0.16,50.6C0.18,43.81-0.43,37,0.6,30.24
		C2.37,18.66,8.38,9.96,18.62,4.29c4.97-2.75,10.45-4.15,16.08-4.16c39.03-0.1,78.06-0.25,117.08,0.04
		c16.97,0.12,30.08,11.87,33.29,26.33c0.84,3.77,1.44,7.52,1.3,11.38c-0.27,7.64,0.75,15.34-1.45,22.88
		c-3.56,12.23-11.34,20.27-23.49,24.02c-4.3,1.33-8.72,1.77-13.24,1.74C129.88,86.42,111.57,86.48,93.25,86.48z"/>
	<path class="st1" d="M93.26,77.83c-19.36,0-38.71,0-58.07,0c-13.03,0-24.18-9.35-25.9-22.26c-1.15-8.63-1.37-17.44,0.14-25.99
		c1.89-10.67,10.76-18.72,21.23-20.44c2.39-0.39,4.76-0.42,7.14-0.42c37.83-0.01,75.67-0.01,113.5-0.01
		c13.03,0,24.18,9.35,25.9,22.26c1.15,8.63,1.37,17.44-0.14,25.99c-1.89,10.67-10.76,18.72-21.23,20.44
		c-2.39,0.39-4.76,0.42-7.14,0.42C130.21,77.84,111.73,77.83,93.26,77.83z"/>
</g>
</svg>
