<?xml version="1.0" encoding="utf-8"?>
<!-- Generator: Adobe Illustrator 23.0.2, SVG Export Plug-In . SVG Version: 6.00 Build 0)  -->
<svg version="1.1" id="Camada_1" xmlns="http://www.w3.org/2000/svg" xmlns:xlink="http://www.w3.org/1999/xlink" x="0px" y="0px"
	 viewBox="0 0 186.39 86.52" style="enable-background:new 0 0 186.39 86.52;" xml:space="preserve">
<style type="text/css">
	.st0{fill:#323232;}
	.st1{fill:#D1AC8E;}
</style>
<g>
	<path class="st0" d="M93.25,86.48c-19.11,0-38.23,0.01-57.34,0C15.56,86.46,0.09,70.99,0.16,50.6C0.18,43.81-0.43,37,0.6,30.24
		C2.37,18.66,8.38,9.96,18.62,4.29c4.97-2.75,10.45-4.15,16.08-4.16c39.03-0.1,78.06-0.25,117.08,0.04
		c16.97,0.12,30.08,11.87,33.29,26.33c0.84,3.77,1.44,7.52,1.3,11.38c-0.27,7.64,0.75,15.34-1.45,22.88
		c-3.56,12.23-11.34,20.27-23.49,24.02c-4.3,1.33-8.72,1.77-13.24,1.74C129.88,86.42,111.57,86.48,93.25,86.48z"/>
	<path class="st1" d="M93.19,77.83c-19.04,0-38.08,0-57.12,0c-15.9,0-27.36-11.45-27.28-27.41c0.03-6.55-0.6-13.13,0.4-19.64
		c1.93-12.6,12.97-22.04,25.79-22.05c30.8-0.03,61.6-0.01,92.39-0.01c7.92,0,15.84-0.01,23.76,0c14.92,0.03,26.62,11.72,26.56,26.69
		c-0.03,6.79,0.62,13.61-0.4,20.36c-1.91,12.6-12.97,22.03-25.79,22.05C132.07,77.86,112.63,77.83,93.19,77.83z"/>
</g>
</svg>
