<?xml version="1.0" encoding="utf-8"?>
<!-- Generator: Adobe Illustrator 23.0.2, SVG Export Plug-In . SVG Version: 6.00 Build 0)  -->
<svg version="1.1" id="Camada_1" xmlns="http://www.w3.org/2000/svg" xmlns:xlink="http://www.w3.org/1999/xlink" x="0px" y="0px"
	 viewBox="0 0 344.7 385.11" style="enable-background:new 0 0 344.7 385.11;" xml:space="preserve">
<style type="text/css">
	.st0{fill:#323232;}
	.st1{fill:#FEFEFE;}
</style>
<g>
	<path class="st0" d="M286.91,344.66c2.69,5.08,5.87,9.32,9.94,12.78c3.3,2.8,6.41,5.77,9.41,8.87c4.91,5.07,3.22,13.62-2.27,17.11
		c-2.23,1.42-4.77,1.72-7.35,1.68c-6.48-0.12-12.85-1.31-19.25-2.19c-9.86-1.35-19.77-2.51-29.55-4.29
		c-8.8-1.6-17.33-4.31-25.67-7.65c-8.86-3.54-15.68-9.99-23.06-15.63c-3.7-2.83-7.72-5.48-9.78-9.98c-0.26-0.58-0.78-0.74-1.39-0.71
		c-0.64,0.03-1.28,0-1.92,0c-50.24,0-100.48,0.01-150.72-0.01c-14.81,0-28.71-9.67-33.02-23C0.84,317.17,0,312.57,0,307.78
		c0.05-90.72-0.02-181.44,0.1-272.16c0.02-13.74,6.16-24.43,18.28-31.3c5.02-2.85,10.59-4.24,16.3-4.25
		C126.44,0,218.2-0.06,309.96,0.1c16.98,0.03,30.26,11.83,33.45,26.45c0.79,3.62,1.29,7.2,1.29,10.91
		c-0.03,90.56,0.04,181.12-0.09,271.68c-0.02,13.74-6.2,24.42-18.34,31.26c-5.1,2.87-10.74,4.11-16.55,4.23
		C302.28,344.78,294.84,344.66,286.91,344.66z"/>
	<path class="st1" d="M336.04,172.59c0,45.28,0,90.56,0,135.83c0,16.28-11.31,27.6-27.58,27.6c-10.48,0-20.96,0-31.44,0
		c-2.92,0-3,0.02-2.21,2.93c2.02,7.47,5.93,13.91,10.96,19.72c3.41,3.94,7.37,7.32,11.32,10.7c0.79,0.68,1.56,1.38,2.28,2.12
		c0.87,0.89,1.53,1.89,0.92,3.21c-0.66,1.42-1.83,1.93-3.34,1.78c-5.01-0.52-10.04-0.9-15.02-1.61
		c-10.99-1.56-21.98-3.15-32.92-4.97c-15.96-2.65-30.33-8.82-42.42-19.82c-0.59-0.54-1.19-1.1-1.87-1.5
		c-4.41-2.6-7.27-6.61-9.77-10.89c-0.82-1.41-1.75-1.71-3.24-1.71c-12.16,0.05-24.32,0.03-36.48,0.03c-39.68,0-79.36,0-119.03,0
		c-16.12,0-27.51-11.35-27.52-27.43c0-90.88,0-181.75,0-272.63c0-15.91,11.44-27.3,27.4-27.31c90.88,0,181.75,0,272.63,0
		c15.93,0,27.33,11.43,27.33,27.37C336.04,81.55,336.04,127.07,336.04,172.59z"/>
</g>
</svg>
