<?xml version="1.0" encoding="utf-8"?>
<!-- Generator: Adobe Illustrator 23.0.2, SVG Export Plug-In . SVG Version: 6.00 Build 0)  -->
<svg version="1.1" id="Camada_1" xmlns="http://www.w3.org/2000/svg" xmlns:xlink="http://www.w3.org/1999/xlink" x="0px" y="0px"
	 viewBox="0 0 357.4 356.91" style="enable-background:new 0 0 357.4 356.91;" xml:space="preserve">
<style type="text/css">
	.st0{fill:#323232;}
	.st1{fill:#9B9B9B;}
	.st2{fill:#FEFEFE;}
	.st3{fill:#F25835;}
	.st4{fill:#F76137;}
	.st5{fill:#FE8C5F;}
	.st6{fill:#436368;}
</style>
<g>
	<path class="st0" d="M0,312.27c0-89.44,0-178.88,0-268.32c0.58-1.71,0.16-3.48,0.3-5.22C1,29.95,5.2,22.75,10.72,16.3
		c4.38-5.11,9.5-9.38,15.63-12.5c5.24-2.67,10.68-3.75,16.4-3.75C133.3,0.03,223.85,0.06,314.4,0c10.36-0.01,18.9,4.1,26.46,10.7
		c4.91,4.29,9.19,9.17,11.94,15.15c2.59,5.62,4.28,11.49,4.33,17.78c0.53,76.63,0.07,153.25,0.22,229.88
		c0.02,11.68,0.02,23.36,0,35.04c-0.02,7.99-1.1,15.74-5.04,22.9c-6.36,11.59-15.7,19.62-28.24,23.83
		c-3.66,1.23-7.53,1.25-11.36,1.39c-89.23,0-178.45,0-267.67,0c-13.83,0.24-24.6-5.96-33.68-15.89c-3.22-3.52-5.76-7.4-7.87-11.65
		c-2.24-4.52-3.38-9.25-3.28-14.3C0.24,313.99,0.49,313.09,0,312.27z"/>
	<path class="st1" d="M44.16,356.91c-0.05-0.12-0.08-0.25-0.07-0.38c1.76-0.03,3.51-0.09,5.27-0.09c87.33-0.01,174.67-0.02,262-0.02
		c0.56,0,1.11,0.07,1.67,0.11c0,0.13-0.02,0.26-0.07,0.39C223.36,356.91,133.76,356.91,44.16,356.91z"/>
	<path class="st2" d="M178.59,8.91c43.91,0,87.83,0.21,131.74-0.14c12.02-0.1,28.92,8.74,34.83,24.04c2.1,5.43,3.14,11,3.14,16.81
		c-0.01,85.83-0.08,171.65,0.04,257.48c0.03,20.38-13.67,35.96-30.8,39.94c-2.66,0.62-5.35,0.86-8.08,0.86
		c-18.08-0.02-36.15,0-54.23,0c-69.03,0-138.06-0.11-207.09,0.08c-17.39,0.05-34.42-13.12-38.32-30.05
		c-0.74-3.2-1.17-6.43-1.17-9.73C8.67,221.64,8.65,135.1,8.67,48.55c0-19.07,13.06-35.23,31.49-39.21c1.58-0.34,3.16-0.42,4.76-0.42
		C89.49,8.91,134.04,8.91,178.59,8.91z"/>
	<path class="st3" d="M178.64,15.94c43.28,0,86.56-0.02,129.83,0.01c15.32,0.01,28.12,10.13,31.64,24.8c0.6,2.5,0.87,5.04,0.87,7.61
		c0,86.64,0.01,173.27-0.01,259.91c-0.01,18.22-14.24,32.49-32.42,32.5c-86.64,0.03-173.27,0.03-259.91,0
		c-18.31-0.01-32.49-14.31-32.49-32.67c-0.01-86.32-0.01-172.63,0-258.95c0-19.22,13.97-33.2,33.15-33.2
		C92.41,15.93,135.52,15.94,178.64,15.94z"/>
	<path class="st4" d="M314.91,266.67c6.14,6.07,12.28,12.15,18.42,18.22c0.55,0.54,0.73,1.16,0.66,1.95
		c-0.6,6.29-0.32,12.56-0.01,18.87c0.48,9.79-3.29,19.13-13.17,24.8c-4.43,2.54-9.15,3.32-14.01,3.32
		c-85.11,0.06-170.23,0.04-255.34,0.04c-7.11,0-13.84-1.33-19.32-6.28c-4.88-4.42-8.05-9.69-8.66-16.49
		c-0.7-7.83-0.22-15.65-0.4-23.48c-0.02-0.87,0.02-1.77,0.23-2.61c0.73-3.01,1.21-3.16,3.9-1.55c1.25,0.75,2.69,1.02,4.14,0.96
		c1.54-0.07,3.01,0.25,4.51,0.47c1.33,0.19,2.03-0.26,2.11-1.8c0.26-4.9,0.32-4.93-4.5-4.88c-2.79,0.03-5.6-0.24-8.38,0.18
		c-1.41,0.22-1.99-0.65-1.97-1.79c0.1-7.11-0.5-14.23,0.32-21.32c0.27-2.35-0.33-4.61-0.34-6.9c-0.05-15.84-0.04-31.68-0.01-47.52
		c0-2.47,1.27-4.8,0.98-7.33c-0.07-0.59,0.21-1.12,0.93-1.15c0.75-0.03,1.2,0.38,1.34,1.09c0.07,0.39,0.11,0.8,0.08,1.19
		c-0.19,2.2,1.03,3.21,2.99,3.63c0.23,0.05,0.46,0.14,0.7,0.16c2.5,0.18,5.97,1.85,7.27-0.06c1.69-2.48,0.51-6.19,0.48-9.36
		c-0.01-1.26-1.19-1.01-2.03-1.09c-3.13-0.31-6.19,0.61-9.31,0.51c-3.44-0.11-3.44-0.03-3.45-3.53c0-4.8,0.23-9.61-0.07-14.4
		c-0.29-4.68,1.01-9.18,1.04-13.8c0.01-0.68,0.17-1.34,1.03-1.32c0.97,0.02,1.61,0.46,1.82,1.53c1.02,5.09,1.04,5.09,6.1,5.09
		c4.96,0,4.99,0,4.94-5.02c-0.02-1.98,0.85-4.58-0.4-5.76c-1-0.95-3.59-0.17-5.47-0.27c-2.1-0.12-4.16,0.3-6.17,0.69
		c-2.13,0.42-2.61-0.67-2.78-2.24c-0.14-1.35-0.05-2.72-0.05-4.08c0-7.84,0.04-15.68-0.03-23.52c-0.02-2.17,0.3-4.29,0.51-6.43
		c0.07-0.74,0.11-1.5,1.01-1.69c0.77-0.16,1.62,0.17,1.89,0.78c1.37,3.15,4.27,2.73,6.77,2.85c4.85,0.22,5.67-0.97,4.74-5.86
		c-0.2-1.03-0.68-0.95-1.5-0.92c-3.68,0.1-7.36,0.05-11.03,0.14c-1.79,0.04-2.37-0.75-2.37-2.46c0.04-10.24,0-20.48,0.05-30.72
		c0.01-1.26,0.26-2.55,0.58-3.77c0.43-1.65,2.21-2.12,3.01-0.69c1.36,2.41,3.56,2.43,5.77,2.57c1.72,0.11,3.81,0.68,5.07-0.08
		c1.29-0.78-0.13-3.19,0.82-4.71c0.98,0.57,1.04,1.54,1.07,2.51c0.05,1.36,0.03,2.72,0.03,4.08c0,69.24,0.03,138.48-0.05,207.72
		c-0.01,7.38,2.14,13.8,6.56,19.58c0.76,1,1.72,1.92,1.92,3.26c-0.2,1.91-1.7,1.94-3.03,1.89c-4.23-0.18-8.41,0.65-12.63,0.54
		c-0.46-0.01-0.92,0.01-1.61,0.35c2.4,0.91,4.67,0.53,6.84,0.73c4.9,0.44,9.83,0.57,14.74-0.07c0.66,0.01,1.28,0.23,1.82,0.56
		c6.41,4,13.46,5.07,20.89,5.06c68.54-0.05,137.08-0.02,205.63-0.04c7.2,0,13.95-1.73,19.87-5.97c8.47-6.07,12.92-14.44,13.45-24.79
		c0.27-5.43,0.02-10.88,0.07-16.31C313.89,268.76,313.7,267.48,314.91,266.67z"/>
	<path class="st5" d="M47.53,308.41c-4.38-5-7.75-10.52-8.9-17.21c-0.33-1.92-0.26-3.82-0.26-5.73
		c-0.01-70.91-0.01-141.82-0.01-212.73c0-0.64-0.02-1.28-0.04-1.92C39.07,58.03,49,45.86,61.35,42.49
		c3.57-0.97,7.16-1.43,10.86-1.43c70.13,0.02,140.26-0.06,210.38,0.07c15.78,0.03,28.26,10.79,31.67,26c0.5,2.23,0.57,4.6,0.58,6.9
		c0.03,63.17,0.03,126.34,0.04,189.51c0,1.04,0.02,2.08,0.03,3.12c-0.01,6.32-0.04,12.64-0.04,18.96
		c0.02,15.78-12.31,29.83-28,31.94c-2.46,0.33-4.92,0.45-7.4,0.45c-68.56-0.01-137.11-0.04-205.66,0.03
		c-7.98,0.01-15.36-1.59-21.99-6.16C49.44,311.9,48.21,310.49,47.53,308.41z"/>
	<path class="st3" d="M47.53,308.41c1.43,1.16,2.85,2.32,4.28,3.48c-0.27,0.92-1.04,0.84-1.75,0.86
		c-6.13,0.18-12.26-0.08-18.37-0.57c-1.21-0.1-3.45-0.01-3.38-1.42c0.08-1.54,2.23-1.36,3.6-1.35c4.7,0.03,9.36-0.83,14.07-0.51
		C46.56,308.94,47.1,308.84,47.53,308.41z"/>
	<path class="st3" d="M34.51,255.59c-2.32,0.18-4.36-0.1-6.28-0.99c-0.68-0.31-1.72-0.5-1.57-1.53c0.12-0.81,0.85-1.36,1.61-1.64
		c1.64-0.62,3.37-0.91,5.12-1.07c0.47-0.04,0.96,0,1.43-0.01c3.11-0.05,2.88-0.03,3.15,3.02C38.3,257.02,35.8,255.36,34.51,255.59z"
		/>
	<path class="st6" d="M176.66,311c-33.59,0-67.18,0.03-100.78-0.02c-15.63-0.02-28.4-11.18-30.65-26.65
		c-0.21-1.42-0.21-2.87-0.22-4.31c-0.01-66.86-0.02-133.73,0-200.59c0-17.91,13.48-31.47,31.37-31.48
		c66.78-0.03,133.57-0.03,200.35,0c17.56,0.01,31.29,13.66,31.3,31.15c0.04,66.94,0.03,133.89,0,200.83
		c-0.01,15.45-10.85,28.14-26.07,30.77c-2.22,0.38-4.47,0.29-6.7,0.29C242.4,311.01,209.53,311,176.66,311z"/>
</g>
</svg>
