<?xml version="1.0" encoding="utf-8"?>
<!-- Generator: Adobe Illustrator 23.0.2, SVG Export Plug-In . SVG Version: 6.00 Build 0)  -->
<svg version="1.1" id="Camada_1" xmlns="http://www.w3.org/2000/svg" xmlns:xlink="http://www.w3.org/1999/xlink" x="0px" y="0px"
	 viewBox="0 0 186.39 86.52" style="enable-background:new 0 0 186.39 86.52;" xml:space="preserve">
<style type="text/css">
	.st0{fill:#323232;}
	.st1{fill:#2A6771;}
</style>
<g>
	<path class="st0" d="M93.25,86.48c-19.11,0-38.23,0.01-57.34,0C15.56,86.46,0.09,70.99,0.16,50.6C0.18,43.81-0.43,37,0.6,30.24
		C2.37,18.66,8.38,9.96,18.62,4.29c4.97-2.75,10.45-4.15,16.08-4.16c39.03-0.1,78.06-0.25,117.08,0.04
		c16.97,0.12,30.08,11.87,33.29,26.33c0.84,3.77,1.44,7.52,1.3,11.38c-0.27,7.64,0.75,15.34-1.45,22.88
		c-3.56,12.23-11.34,20.27-23.49,24.02c-4.3,1.33-8.72,1.77-13.24,1.74C129.88,86.42,111.57,86.48,93.25,86.48z"/>
	<path class="st1" d="M93.27,77.83c-19.03,0-38.07-0.18-57.1,0.06c-12.69,0.16-23.58-8.27-26.5-19.73c-0.51-2.01-0.91-4.03-0.9-6.12
		c0.01-5.76,0-11.52,0-17.27c0.02-12.63,9.65-23.73,22.13-25.66c1.83-0.28,3.64-0.4,5.47-0.4c38.31,0,76.62-0.01,114.92,0
		c13.07,0,24.22,9.34,25.92,22.25c1.14,8.63,1.15,17.4-0.1,26.02c-1.46,10.04-11.26,19-21.27,20.44c-2.23,0.32-4.44,0.41-6.67,0.41
		C130.53,77.84,111.9,77.83,93.27,77.83z"/>
</g>
</svg>
