<?xml version="1.0" encoding="utf-8"?>
<!-- Generator: Adobe Illustrator 23.0.2, SVG Export Plug-In . SVG Version: 6.00 Build 0)  -->
<svg version="1.1" id="Camada_1" xmlns="http://www.w3.org/2000/svg" xmlns:xlink="http://www.w3.org/1999/xlink" x="0px" y="0px"
	 viewBox="0 0 169.31 69.4" style="enable-background:new 0 0 169.31 69.4;" xml:space="preserve">
<style type="text/css">
	.st0{fill:#D2D2D2;}
</style>
<g>
	<path class="st0" d="M145.44,69.4c-40.64,0-81.28,0-121.92,0c-3.68-0.47-7.39-0.68-10.69-2.79C5.37,61.83,0.35,55.6,0.22,46.29
		c0-0.15-0.11-0.29-0.22-0.41c0-7.36,0-14.72,0-22.08c0.6-3.1,0.43-6.3,2.01-9.25C6.98,5.21,14.43,0.03,25.23,0.03
		C64.73,0.05,104.23,0.12,143.74,0c13.07-0.04,21.06,8.5,24.48,17.41c0.84,2.2,0.89,4.58,0.9,6.85c0.05,8.15,0.53,16.32-0.28,24.44
		c-0.66,6.58-4.4,11.49-9.27,15.69C155.49,67.91,150.64,69.11,145.44,69.4z"/>
</g>
</svg>
