<?xml version="1.0" encoding="utf-8"?>
<!-- Generator: Adobe Illustrator 23.0.2, SVG Export Plug-In . SVG Version: 6.00 Build 0)  -->
<svg version="1.1" id="Camada_1" xmlns="http://www.w3.org/2000/svg" xmlns:xlink="http://www.w3.org/1999/xlink" x="0px" y="0px"
	 viewBox="0 0 160.65 69.37" style="enable-background:new 0 0 160.65 69.37;" xml:space="preserve">
<style type="text/css">
	.st0{fill:#DFA577;}
</style>
<g>
	<path class="st0" d="M137.13,69.37c-37.76,0-75.52,0-113.28,0c-1.04-0.54-2.2-0.29-3.29-0.38c-8.15-0.68-13.24-5.67-17.42-12.06
		c-2.28-3.49-2.94-7.42-2.97-11.43C0.1,37.28-0.3,29.04,0.45,20.83C1.07,14.1,4.88,9.21,9.84,4.99c4.53-3.86,9.91-4.96,15.62-4.96
		C62.17,0.01,98.87,0.04,135.58,0c11.14-0.01,18.7,5.36,23.48,15.14c1.34,2.74,0.99,5.77,1.6,8.63c0,7.36,0,14.72,0,22.08
		c-0.57,3.49-0.49,7.09-2.42,10.31c-4.6,7.72-10.71,12.96-20.21,12.97C137.7,69.13,137.38,69.14,137.13,69.37z"/>
</g>
</svg>
