<?xml version="1.0" encoding="utf-8"?>
<!-- Generator: Adobe Illustrator 23.0.2, SVG Export Plug-In . SVG Version: 6.00 Build 0)  -->
<svg version="1.1" id="Camada_1" xmlns="http://www.w3.org/2000/svg" xmlns:xlink="http://www.w3.org/1999/xlink" x="0px" y="0px"
	 viewBox="0 0 62.9 63" style="enable-background:new 0 0 62.9 63;" xml:space="preserve">
<style type="text/css">
	.st0{fill:#323232;}
	.st1{fill:#FEFEFE;}
	.st2{fill:#00C8F6;}
	.st3{fill:#00689D;}
	.st4{fill:#CA5600;}
	.st5{fill:#7AEBFE;}
	.st6{fill:#7AEAFD;}
	.st7{fill:#64E5FD;}
	.st8{fill:#6BE7FD;}
	.st9{fill:#FE9100;}
	.st10{fill:#FCDF82;}
	.st11{fill:#FEBA00;}
	.st12{fill:#FEBA01;}
	.st13{fill:#FE9200;}
	.st14{fill:#FD9300;}
	.st15{fill:#FDB902;}
	.st16{fill:#FEB900;}
	.st17{fill:#FE9101;}
	.st18{fill:#FBDD81;}
	.st19{fill:#FCD766;}
	.st20{fill:#FCD765;}
	.st21{fill:#C0241F;}
	.st22{fill:#01C8F5;}
	.st23{fill:#02C7F4;}
	.st24{fill:#75E9FD;}
	.st25{fill:#07C5F0;}
	.st26{fill:#13BFE4;}
	.st27{fill:#77EAFE;}
	.st28{fill:#FE4E43;}
	.st29{fill:#FE7A72;}
	.st30{fill:#FC746C;}
	.st31{fill:#FE7C74;}
	.st32{fill:#78EAFE;}
</style>
<g>
	<path class="st0" d="M28.6,0c2,0,4,0,6,0c2.7,0.2,5.3,0.5,7.8,1.4c7.5,2.8,13.3,7.7,17.1,14.8c2,3.7,3.2,7.6,3.2,11.9
		c0,0.1,0.1,0.1,0.1,0.2c0,2,0,4,0,6c-0.3,1.6-0.2,3.3-0.6,5c-3.5,12.5-11.5,20.5-24.3,23c-9.9,1.9-19.4,0.1-27.3-6.9
		C5.3,50.6,1.6,44.7,0.5,37.5c-0.8-5.4-0.9-10.8,0.9-16.1C4,13.5,9,7.6,16.2,3.5C20,1.4,24,0.1,28.4,0.1C28.5,0.1,28.5,0.1,28.6,0z"
		/>
	<path class="st1" d="M31.6,5.8c14-0.2,25.7,11.6,25.6,25.8C57,45.5,45.4,57.2,31,56.9C17.5,56.7,5.6,45.2,6,30.6
		C6.3,17,17.7,5.6,31.6,5.8z"/>
	<path class="st2" d="M51.8,22.5c2.3,4.3,2.5,9,1.5,13.6C49.9,51.3,32.6,58.4,19.5,50c-2.3-1.5-4.3-3.2-5.8-5.6
		c-2.7-5.6-2-11.1,0.2-16.6c0.3-0.7,0.4-1.7,1.6-1.7c0.4,0.4,0.4,0.9,0.3,1.3c-0.6,5,0.6,9.4,4,13.1c2.9,3.2,6.5,5,10.8,5.2
		c1.8,0.1,3.6,0,5.3-0.5c1-0.3,1.8,0,2.4,0.8c0.5,0.7,1.1,1.4,1.6,2.1c0.3,0.5,0.8,0.7,1.3,0.3c0.1-0.1,0,0,0.1-0.1
		c3.2-1.9,2.8-1.5,0.9-4.1c-1-1.3-0.9-1.7,0.2-2.8c3-2.9,4.7-6.4,5-10.6c0-0.5,0-1,0.2-1.4c0.8-0.6,0.7-1.1-0.1-1.6
		c-0.4-0.9-0.6-1.8-0.5-2.7c0.9-1.4,0.7-3.3-0.4-4.6c-0.6-0.6-1.3-0.9-2.1-0.8c-0.5-0.1-0.8-0.3-1.1-0.7c-0.9-1.1-2.1-1.9-3.2-2.8
		c-0.4-0.3-0.9-0.5-0.8-1.2c0.5-0.4,1.1-0.3,1.6-0.1C45.4,16.6,49.3,18.6,51.8,22.5z"/>
	<path class="st3" d="M51.8,22.5c-1.5-1.3-2.8-2.8-4.5-3.9c-2.1-1.4-4.2-2.5-6.7-3.1c-0.4-0.1-0.8-0.2-1.2-0.1
		c-0.8,0.5-1.5-0.1-2.1-0.4c-5.4-2-10.5-1.3-15.2,2c-2.9,2-4.8,4.8-5.8,8.1c-0.1,0.5-0.1,1.2-0.9,1.2c-1.2,1.2-1.5,2.7-2,4.2
		c-1.2,4.2-1.2,8.3,0,12.5c0.1,0.5,0.2,0.9,0.3,1.4c-2.7-3.3-4-7.1-4.3-11.3c-0.5-7.5,2-13.9,7.7-18.7c6.7-5.7,14.4-6.8,22.6-3.8
		c4.9,1.8,8.5,5.2,11.2,9.6C51.4,20.9,51.7,21.7,51.8,22.5z"/>
	<path class="st4" d="M15.4,26.3c1.1-4,3.1-7.4,6.6-9.8c5.4-3.7,11.1-4.1,17-1.3c0.2,0.1,0.4,0.1,0.5,0.2c1.9,1.2,3.6,2.6,5.1,4.4
		c0.5,0.1,0.8,0.4,1,0.8c0.8,1.1,1.4,2.3,1.8,3.6c0.1,0.4,0.1,0.8,0,1.2c0.2,1,0.4,1.9,0.6,2.9c0.4,0.4,0.4,0.9,0,1.4
		c0,5.2-1.9,9.5-5.8,13c-0.4,0.4-0.5,0.6-0.1,1.1c0.7,0.8,1.2,1.7,1.8,2.5c0.5,0.6,0.5,1.1-0.2,1.5c-0.9,0.5-1.7,1.1-2.5,1.6
		c-0.6,0.4-1.1,0.4-1.5-0.3c-0.1-0.1-0.2-0.3-0.3-0.4c-0.7-0.9-1.2-2.1-2.1-2.7c-0.9-0.6-2.1,0.3-3.1,0.4
		c-8.8,1.5-17.5-4.7-18.9-13.4C15,30.6,15.1,28.4,15.4,26.3z"/>
	<path class="st5" d="M18.4,42.9c2.6,0,4,1.2,5.1,2.9c0.3,0.4,0.3,0.9,0,1.3c-0.3,0.5-0.8,0.7-1.4,0.6c-2-0.3-3.7-1.3-4.8-3
		C16.6,43.6,17.3,42.9,18.4,42.9z"/>
	<path class="st6" d="M47.5,25.2c-0.7-2-1.6-3.8-2.8-5.5c0.7-0.4,1.4-0.3,2,0.1c1.1,0.7,2,3.3,1.6,4.6
		C48.1,24.8,47.8,25.1,47.5,25.2z"/>
	<path class="st7" d="M16.4,39.4c0.4,0.1,0.7,0.2,0.7,0.7c0,0.3-0.2,0.4-0.5,0.4c-0.4,0-0.7-0.2-0.8-0.6
		C15.9,39.5,16.2,39.5,16.4,39.4z"/>
	<path class="st8" d="M48.1,29.5c0-0.5,0-0.9,0-1.4c0.5,0.1,0.9,0.3,0.9,0.8C48.9,29.4,48.5,29.5,48.1,29.5z"/>
	<path class="st9" d="M33.9,43c-3,0.6-5.9,0.2-8.6-1.3c-4.2-2.3-6.6-5.9-7-10.7c0.4-0.7,0.9-0.2,1.3,0c0.7,0.4,1.1,1.2,1.7,1.8
		c0.2,0.3,0.4,0.6,0.5,0.9c1.4,3.4,3.8,5.6,7.4,6.6c0.3,0.1,0.5,0.2,0.8,0.3C31.5,41,32.7,42,33.9,43z"/>
	<path class="st10" d="M36.3,17.5c4.5,1.9,7.4,5.2,8.2,10.2c0,0.1,0.1,0.1,0.2,0.2c-0.1,0.6-0.3,0.7-0.8,0.3
		c-0.8-0.6-1.5-1.4-2.2-2.2c-0.1-0.1-0.3-0.3-0.4-0.4c-1.3-2.1-3-3.8-5.1-5.1c-0.8-0.6-1.8-1-2.6-1.6c-0.2-0.2-0.5-0.3-0.6-0.5
		c-0.4-0.4-1-0.8-0.7-1.4c0.3-0.4,0.9-0.2,1.4-0.1l0,0C34.5,17.1,35.5,17.2,36.3,17.5z"/>
	<path class="st11" d="M33.6,16.8c-0.4,0-0.9-0.1-1.3,0.1c1.1,1.5,2.7,2.4,4.2,3.3c-0.5,0.4-1,0.1-1.5,0c-4.6-1.4-8.9-0.1-11.9,3.7
		c-0.2,0.3-0.5,0.6-0.8,0.8c-0.1,0-0.3,0.1-0.3,0c-0.2-0.9-1.1-1.5-1.3-2.5c1.6-2.3,3.6-4,6.3-4.8c0.2,1.4,0.3,1.5,1.5,1.3
		c-0.2-0.6-0.9-0.8-0.9-1.5C29.5,16.4,31.6,16.3,33.6,16.8z"/>
	<path class="st12" d="M41.5,25.2c0.8,1,1.8,1.8,2.6,2.7c0.1,0.1,0.4,0.6,0.5,0c0.6,2.3,0.3,4.6-0.6,6.8c-0.1,0-0.2-0.1-0.3-0.2
		c-0.2-0.8-0.2-0.8-1.8-1.5c-0.2-0.3-0.2-0.7-0.1-1.1c0.3-1.8,0.1-3.6-0.5-5.3C41.2,26.1,41.1,25.6,41.5,25.2z"/>
	<path class="st13" d="M20.6,22.3c0.1,0.1,0.2,0.2,0.4,0.3c0.8,0.5,1.4,1.1,1,2.1c0.2,1.4-0.5,2.6-1.2,3.7c-0.2,0.1-0.4,0.1-0.5,0
		c-0.7-0.3-1.1-0.8-1.6-1.3c-0.1-0.1-0.1-0.2-0.2-0.3C18.9,25.2,19.6,23.7,20.6,22.3z"/>
	<path class="st14" d="M40.1,40.1c-1,1-2.1,1.6-3.4,2.1c-0.1-0.1-0.2-0.1-0.2-0.2c-0.5-0.3-0.8-0.7-1.2-1.1
		c-0.1-0.1-0.1-0.3-0.1-0.5c0.7-1.1,2-1.4,3.1-2c0.2-0.1,0.4-0.1,0.6-0.1c0.6-0.2,1.1,0,1.5,0.4C40.8,39.3,40.3,39.7,40.1,40.1z"/>
	<path class="st15" d="M40.1,40.1c0.2-1.3-0.1-1.6-1.7-1.4c0.6-1.4,1.5-2.6,2.8-3.3c0.8,0.7,1.4,0.8,1.8-0.3
		c0.1-0.3,0.3-0.7,0.8-0.5c0,0,0.1,0.1,0.1,0.1C43.3,36.9,41.9,38.6,40.1,40.1z"/>
	<path class="st11" d="M36.8,42c0,0.1,0,0.1,0,0.2c-0.9,0.3-1.8,0.7-2.9,0.8c-0.4,0-0.8,0-1.1-0.3c-0.9-0.7-1.8-1.5-3-1.7
		c0.1-0.2,0.3-0.3,0.5-0.4c1.5-0.2,3.1-0.2,4.6-0.4c0.2,0,0.3,0.1,0.4,0.2c0.1,0.1,0.2,0.2,0.3,0.2C35.6,41.5,36.3,41.6,36.8,42z"/>
	<path class="st12" d="M18.5,26.9c0.1,0,0.1,0,0.2,0c0.3,0.5,0.6,0.9,0.9,1.3c0.4,0.4,0.5,0,0.7-0.1c0.1,0.1,0.2,0.2,0.3,0.2
		c0.1,0.1,0.3,0.2,0.3,0.3c0.1,1.4,0.6,2.8-0.1,4.2c-0.8-0.7-1.3-2-2.6-1.9C18.2,29.6,18.2,28.2,18.5,26.9z"/>
	<path class="st16" d="M40.1,44.1c0.5-0.7,1-0.8,1.5,0.1c0.3,0.5,0.7,1,1.1,1.4c0.7,0.8,0.6,1.3-0.4,1.6
		C41,46.6,40.4,45.5,40.1,44.1z"/>
	<path class="st17" d="M40.1,44.1c0.9,0.9,1.5,2.1,2.2,3.1c-0.3,0.2-0.7,0.4-1,0.7c-1.2-0.8-1.9-1.9-2.1-3.4
		C39.4,44.4,39.7,44.2,40.1,44.1z"/>
	<path class="st10" d="M27.5,17.3c0.8,0.4,1.3,1.1,1.9,1.8c-2,0.5-2.5,0.4-3.1-0.7c-0.3-0.6,0.4-0.5,0.5-0.9
		C27.1,17.4,27.3,17.4,27.5,17.3z"/>
	<path class="st18" d="M39.1,44.6c0.7,1.1,1.4,2.2,2.1,3.4c-0.4,0.4-0.7,0.4-1-0.1c-0.4-0.7-0.9-1.4-1.5-2
		C38.1,45.1,38.3,44.8,39.1,44.6z"/>
	<path class="st11" d="M36.3,17.5c-0.9-0.1-1.9-0.2-2.7-0.7C34.6,16.8,35.5,17,36.3,17.5z"/>
	<path class="st4" d="M20.9,32.9c-0.3-1.5-0.3-3-0.2-4.6c0.4-1.2,0.8-2.5,1.4-3.6c3.1-5,8.3-6.7,13.8-4.7c0.2,0.1,0.5,0.1,0.7,0.2
		c2.2,1.1,3.9,2.8,5,5c1.1,2.6,1.3,5.2,0.7,7.9c0.2,1,0,1.8-0.9,2.3c-0.9,1.1-1.7,2.4-2.9,3.3c-1.1,0.6-2.1,1.2-3.2,1.8
		c-1.8,0.6-3.6,0.6-5.5,0.5c-2.3-0.7-4.4-1.6-6.1-3.3C22.4,36.3,21.6,34.6,20.9,32.9z"/>
	<path class="st10" d="M41.3,35.4c0.3-0.8,0.6-1.5,0.9-2.3c0.5-0.1,0.1-1.1,0.7-0.8c0.5,0.3,1.3,0.7,1.2,1.6c0,0.2-0.1,0.5-0.1,0.7
		c-0.2,0.4-0.4,0.7-0.6,1.1c-0.2,0.4-0.4,1.2-0.9,1.1C41.9,36.7,41.4,36.1,41.3,35.4z"/>
	<path class="st19" d="M20.4,28.1c0,0.3,0,0.6,0,1.1c-1.1-0.5-1.8-1-1.7-2.3C19.4,27.1,19.8,27.7,20.4,28.1z"/>
	<path class="st20" d="M36.8,42c-0.8,0.1-1.2-0.5-1.6-0.9c-0.4-0.4,0.2-0.2,0.4-0.4C36,41.1,36.5,41.5,36.8,42z"/>
	<path class="st21" d="M40.3,27.8c0.1,0.1,0.1,0.1,0.2,0.2c-0.3,1,0.1,2-0.1,3c-0.3,1.7-0.8,2.2-2.5,2.1c-0.2,0-0.5-0.1-0.7-0.1
		c-2.5,0.3-2.5,0.3-2.5,2.8c0,0.4,0,0.7,0,1.1c-0.2,1-0.5,1.8-1.7,1.9c-0.4,0-0.8,0.2-1.3,0.1c-3.2-0.1-3.5-0.4-3.6-3.6
		c0-2.2,0-2.2-2.2-2.2c-0.2,0-0.3,0-0.5,0c-2.8,0.2-3-0.8-3-3.3c0-0.6,0.2-1.2,0-1.8c0.1-0.1,0.1-0.2,0.2-0.3c0.3-0.9,1-1.1,1.9-1.1
		c1.1,0,2.2,0.1,3.3-0.1c0.9-0.7,0.3-1.6,0.4-2.4c0.1-0.4,0.1-0.9,0.1-1.3c-0.1-0.7,0.2-1.1,0.8-1.4c1.6-0.3,3.3-0.7,4.8,0.2
		c0.7,0.3,0.7,1,0.7,1.6c-0.2,0.9-0.2,1.8-0.1,2.7c0.1,0.6,0.4,0.8,0.9,0.8c0.9-0.1,1.9,0,2.8-0.1C39.5,26.6,40.1,27,40.3,27.8z"/>
	<path class="st22" d="M22.6,28c0.5,1,0.2,2,0.2,3c0,1.1,0.5,1.6,1.6,1.6c1.2,0,2.5,0,3.7,0c0.6,0,0.8,0.2,0.7,0.7c0,1,0,2.1,0,3.1
		c0,1.8,0.4,2.1,2.2,2.2c0.3,0,0.6,0,1,0c0.2,0.2,0.1,0.4,0,0.5c-5.4,0.4-10.1-4.5-9.5-9.9C22.5,28.9,22.6,28.5,22.6,28z"/>
	<path class="st2" d="M34.4,23.3c-0.1-0.6,0.1-1.2-0.3-1.7c1.1-0.2,2,0.5,2.8,1.1c1.7,1.3,3,2.9,3.4,5.1c-0.4-0.6-0.9-0.8-1.6-0.7
		c-1.1,0-2.1,0-3.2,0c-0.8-0.6-0.8-1.4-0.9-2.2C34.6,24.3,34.5,23.8,34.4,23.3z"/>
	<path class="st5" d="M34.4,37c0-1.2,0-2.4,0-3.6c0-0.7,0.2-0.9,0.9-0.8c0.7,0.1,1.3,0,2,0c1.1,1,1.3,2.2,1,3.6
		c-0.9,1.1-2,1.9-3.3,2.3C34.1,38.3,34.7,37.5,34.4,37z"/>
	<path class="st2" d="M28.6,27.1c-1.4,0-2.8,0.1-4.2,0c-0.6,0-1.2,0.1-1.6,0.6c0.6-2.5,2.1-4.3,4.3-5.5c0.8,0.2,0.7,0.9,0.9,1.5
		C28.5,24.8,28.7,25.9,28.6,27.1z"/>
	<path class="st23" d="M38.2,36.3c-0.3-1.2-0.7-2.4-1-3.6c3.5,0,3.1-0.3,3.1-3.3c0-0.5-0.2-1,0.2-1.4c0.4,2.7,0,5.3-1.7,7.6
		C38.7,35.9,38.4,36.1,38.2,36.3z"/>
	<path class="st24" d="M28.6,27.1c-0.3-1.7-0.8-3.3-1.5-4.9c0.2-0.2,0.4-0.4,0.7-0.4c1,0.5,0.5,1.7,0.9,2.4
		C28.7,25.2,29.1,26.2,28.6,27.1z"/>
	<path class="st25" d="M28.8,24.3c-0.5-0.8-0.7-1.6-0.9-2.4c0.4-0.3,0.9-0.5,1.5-0.5C28.6,22.3,28.9,23.3,28.8,24.3z"/>
	<path class="st26" d="M34.4,37c0.3,0.5,0.4,1,0.5,1.6c-0.5,0.3-1,0.4-1.5,0.5c-0.1-0.1-0.4-0.2-0.2-0.4C34,38.4,34.4,37.9,34.4,37z
		"/>
	<path class="st27" d="M33.2,38.7c0.1,0.1,0.1,0.3,0.2,0.4c-0.5,0-0.9,0.3-1.4,0.1c0-0.2,0-0.4,0-0.5C32.4,38.7,32.8,38.7,33.2,38.7
		z"/>
	<path class="st28" d="M38.9,29.2c0,0.4,0,0.7,0,1.1c0.1,0.7-0.3,0.9-0.9,0.9c-1.6-0.1-3.2,0.1-4.9,0.2c-0.4,0.5-0.6,1.1-0.6,1.7
		c0,1.3-0.1,2.7,0.1,4c-2.4,0.1-2.4,0.1-2.4-2.2c0-0.6,0-1.3,0-1.9c-0.2-1.3-0.7-1.8-2-1.8c-0.7,0-1.4,0-2,0c-2,0-2,0-1.9-2
		c0.4-0.4,0.9-0.5,1.4-0.5c0.9,0,1.9,0,2.8,0c0.6,0,1-0.1,1-0.8c0.7-0.7,0.7-1.5,0.7-2.4c0-0.6,0-1.2,0-1.8c-0.1-1,0.2-1.4,1.3-1.3
		c0.2,0,0.5,0,0.7,0c0.4,0.4,0.5,0.9,0.5,1.4c0,1,0,2.1,0,3.1c0,1.2,0.3,1.5,1.5,1.7c1.2,0.2,2.3,0.1,3.5,0.1
		C38.1,28.9,38.5,28.9,38.9,29.2z"/>
	<path class="st29" d="M38.9,29.2c-1.7,0-3.4,0-5.1,0c-1.1,0-1.6-0.6-1.5-1.7c0-1.7,0-3.3,0-5c0.6-0.1,0.9,0.1,0.9,0.8
		c0,1.1,0,2.2,0.1,3.2c0,1.6,0,1.6,1.7,1.8c1.3,0.3,2.7-0.2,4,0.2C38.9,28.8,38.9,29,38.9,29.2z"/>
	<path class="st30" d="M29.5,28.1c0.5,1.2-0.5,1.2-1.1,1.2c-1.4,0.1-2.8,0-4.2,0c-0.1-0.7,0.2-0.9,0.8-0.9c1.1,0,2.3,0,3.4,0.1
		C29,28.5,29.3,28.4,29.5,28.1z"/>
	<path class="st31" d="M32.7,37.2c-0.3-0.2-0.5-0.5-0.5-0.9c0-1.2,0-2.5,0.1-3.7c0-0.5,0.1-1.2,0.9-1.1c0,0.1,0,0.2,0,0.2
		c-0.2,1.4,0,2.9-0.1,4.4c0,0.4,0.1,0.8-0.2,1.1C32.8,37.2,32.7,37.2,32.7,37.2z"/>
	<path class="st32" d="M34.4,23.3c0.5,1.2,0.9,2.5,1.2,3.8c-0.9,0.2-1.3,0-1.2-1C34.4,25.1,34.4,24.2,34.4,23.3z"/>
	<path class="st28" d="M32.9,37.2c0-1.4,0-2.8,0-4.2c0-0.4-0.1-0.9,0.2-1.3c0,1.5,0,3.1,0,4.6C33.1,36.6,33.2,37,32.9,37.2z"/>
	<path class="st28" d="M38.9,28.6c-1.3-0.2-2.7,0.2-4-0.2C36.2,28.4,37.5,28,38.9,28.6z"/>
</g>
</svg>
