<?xml version="1.0" encoding="utf-8"?>
<!-- Generator: Adobe Illustrator 23.0.2, SVG Export Plug-In . SVG Version: 6.00 Build 0)  -->
<svg version="1.1" id="Camada_1" xmlns="http://www.w3.org/2000/svg" xmlns:xlink="http://www.w3.org/1999/xlink" x="0px" y="0px"
	 viewBox="0 0 92.88 93.39" style="enable-background:new 0 0 92.88 93.39;" xml:space="preserve">
<style type="text/css">
	.st0{fill:#323232;}
	.st1{fill:#FEFEFE;}
	.st2{fill:#FE8204;}
	.st3{fill:#FEA738;}
	.st4{fill:#F4750C;}
	.st5{fill:#FC880E;}
	.st6{fill:#E3620E;}
	.st7{fill:#F17613;}
	.st8{fill:#FEB534;}
	.st9{fill:#B15505;}
	.st10{fill:#FEFDFD;}
</style>
<g>
	<path class="st0" d="M-0.05,50.67v-7.92c0.46-1.21,0.07-2.48,0.26-3.72c1.94-12.61,8.13-22.64,18.3-30.25
		c4.45-3.33,9.34-5.85,14.71-7.38c3.14-0.89,6.36-1.11,9.59-1.31c2.49,0,4.98,0,7.46,0c6.15,0.13,11.88,1.79,17.38,4.52
		c9.24,4.59,16.07,11.63,20.72,20.7c2.4,4.67,3.95,9.74,4.27,15.08c0.08,0.87-0.09,1.75,0,2.62c0.07,0.73,0.18,1.9,0.25,2.64
		c0.13,5.69-0.37,11.28-2.32,16.58c-2.69,7.32-6.75,13.74-12.56,19.01c-3.31,3-6.95,5.54-10.98,7.45
		c-5.51,2.61-11.26,4.29-17.43,4.53c-3.18,0.12-6.37,0.21-9.49-0.21c-7.66-1.04-14.7-3.82-20.98-8.4
		C11.94,79.32,6.24,72.79,2.91,64.42C1.3,60.36,0.02,56.17,0.13,51.7C0.14,51.35,0.23,50.97-0.05,50.67z"/>
	<path class="st1" d="M46.65,9.14c21.34,0.4,37.48,16.69,37.25,37.7C83.66,67.71,67.75,84.06,46.33,84
		C26.23,83.95,8.86,68.57,8.91,46.54C8.95,25.06,26.12,9.03,46.65,9.14z"/>
	<path class="st2" d="M67.62,20.44c5.22,3.94,8.66,9.16,10.78,15.28c1.93,5.58,2.47,11.3,1.18,17.12
		c-1.75,6.63-4.73,12.65-9.66,17.45c-5.09,4.95-11.24,8.09-18.31,9.18c-4.14,0.63-8.31,0.69-12.47,0.05
		c-8.08-1.81-14.68-5.95-19.73-12.53c-0.06-0.08-0.05-0.23-0.07-0.35c-0.19-0.32,0.01-0.47,0.26-0.61c1.45,0.12,1.89,1.43,2.74,2.27
		c1.45,1.95,3.33,3.24,5.74,3.71c3.09,1.12,6.03,2.59,9.3,3.25c7.23,1.46,14.25,0.85,20.83-2.4c12.01-5.92,18.31-15.71,18.77-29.14
		c0.22-6.55-1.29-12.58-5.56-17.75c-1.11-1.35-2.39-2.52-3.61-3.75c-0.49-0.5-1.14-0.93-0.97-1.8
		C67.11,20.22,67.36,20.21,67.62,20.44z"/>
	<path class="st3" d="M39.13,79.5c2.37-0.03,4.75,0.06,7.13,0.02c9.04-0.15,16.83-3.3,23.33-9.52c3.82-3.66,6.33-8.21,8.26-13.09
		c0.54-1.37,1.14-2.72,1.72-4.09c-0.89,6.2-3.7,11.53-7.89,16.03c-8.48,9.12-19,12.77-31.36,11.01
		C39.92,79.81,39.53,79.63,39.13,79.5z"/>
	<path class="st4" d="M67.62,20.44c-0.24,0-0.49,0-0.73,0c-1.01,0.37-1.72-0.29-2.45-0.76c-3.95-2.47-8.21-4.1-12.81-4.81
		c-3.31-0.51-6.64-0.42-9.97-0.05c-0.72,0.08-1.42,0.18-2.12-0.08c-0.39-0.18-0.69-0.44-0.82-0.87c7.6-2.04,14.91-1.02,21.98,2.17
		C63.2,17.18,65.58,18.55,67.62,20.44z"/>
	<path class="st5" d="M19.72,66.16c-0.13,0.16-0.26,0.32-0.39,0.47c-5.67-7.72-7.87-16.27-6.11-25.76c0.58,0.32,0.74,0.92,0.96,1.48
		c0.48,2.13-0.01,4.29,0.14,6.44c0.35,5.31,1.85,10.22,4.59,14.77C19.39,64.34,20.19,65.06,19.72,66.16z"/>
	<path class="st6" d="M38.72,13.88c0.28,0.14,0.55,0.27,0.83,0.41c-0.32,0.87-1.15,0.99-1.87,1.2c-8.44,2.54-14.97,7.53-19.44,15.16
		c-0.35,0.6-0.63,1.33-1.5,1.4c-0.44-0.2-0.44-0.53-0.26-0.91C21.29,22.05,28.65,16.22,38.72,13.88z"/>
	<path class="st7" d="M16.47,31.14c0.12,0.26,0.24,0.52,0.36,0.79c0.4,0.48,0.29,1.02,0.1,1.52c-0.95,2.5-1.74,5.05-2.41,7.64
		c-0.13,0.51-0.34,1.02-0.87,1.29c-0.46-0.41-0.34-0.99-0.43-1.52C13.6,37.39,14.83,34.2,16.47,31.14z"/>
	<path class="st8" d="M13.65,42.38c0.51-3.65,1.7-7.1,3.18-10.45c4.45-8.84,11.55-14.44,20.99-17.18c0.57-0.17,1.15-0.31,1.73-0.46
		c2.96-0.12,5.89-0.57,8.89-0.44c6.88,0.29,12.9,2.73,18.45,6.59c3.1,2.67,5.98,5.54,7.88,9.22c3.13,6.03,3.66,12.51,2.55,19.05
		c-1.93,11.33-8.11,19.74-18.51,24.67c-9.74,4.63-19.64,4.6-29.43-0.17c-0.53-0.26-1.12-0.4-1.69-0.6
		c-2.05-1.13-4.04-2.36-5.77-3.95c-0.73-0.83-1.46-1.67-2.2-2.5c-4.14-5.64-6-12.04-6.29-18.94C13.36,45.61,13.57,43.99,13.65,42.38
		z"/>
	<path class="st5" d="M21.92,68.66c2.01,1.2,4.01,2.4,5.77,3.95C25.34,71.91,23.36,70.68,21.92,68.66z"/>
	<path class="st9" d="M48.26,29.04c-0.01,1.2-0.01,2.41-0.69,3.48c-0.36,0.58-0.33,1.07,0.43,1.19c2.55,0.41,3.48,2.44,4.26,4.43
		c2.88,7.34,5.68,14.71,8.44,22.09c0.73,1.95,1.67,3.83,1.99,5.93c0.33,2.2-0.69,4.3-2.7,5.15c-1.87,0.79-3.77,1.52-5.68,2.2
		c-4.17,1.49-6.25,0.7-7.83-3.34c-3.48-8.84-6.8-17.74-10.19-26.61c-0.69-1.8-0.95-3.59,0.09-5.36c0.41-0.7,0.25-1.03-0.56-1.27
		c-4.03-1.2-6.76-8.78-2.76-13.03c1.96-2.08,4.22-2.89,6.97-3.12C44.12,20.45,48.89,24.74,48.26,29.04z"/>
	<path class="st1" d="M51.41,70.26c-0.7,0.1-0.76-0.56-0.94-1.02c-3.39-8.74-6.79-17.47-10.14-26.22c-0.99-2.58-0.93-2.61,1.69-3.61
		c1.46-0.56,2.94-1.06,4.36-1.69c0.62-0.27,1.34,0.04,1.59,0.68c3.56,9.3,7.15,18.58,10.73,27.87c0.18,0.47,0.38,1.01-0.21,1.25
		C56.18,68.46,53.83,69.33,51.41,70.26z"/>
	<path class="st10" d="M39.96,24.76c2.25-0.04,4.4,2.02,4.45,4.27c0.05,2.23-2.44,4.62-4.88,4.67c-2.3,0.05-4.63-2.19-4.58-4.41
		C35,27,37.43,24.8,39.96,24.76z"/>
</g>
</svg>
