<?xml version="1.0" encoding="utf-8"?>
<!-- Generator: Adobe Illustrator 23.0.2, SVG Export Plug-In . SVG Version: 6.00 Build 0)  -->
<svg version="1.1" id="Camada_1" xmlns="http://www.w3.org/2000/svg" xmlns:xlink="http://www.w3.org/1999/xlink" x="0px" y="0px"
	 viewBox="0 0 62.5 62.6" style="enable-background:new 0 0 62.5 62.6;" xml:space="preserve">
<style type="text/css">
	.st0{fill:#323232;}
	.st1{fill:#FEFEFE;}
	.st2{fill:#00C8F6;}
	.st3{fill:#00689D;}
	.st4{fill:#CA5600;}
	.st5{fill:#7AEBFE;}
	.st6{fill:#6CE5FA;}
	.st7{fill:#64E5FD;}
	.st8{fill:#FE9000;}
	.st9{fill:#FEBB00;}
	.st10{fill:#FCDE82;}
	.st11{fill:#FBDD82;}
	.st12{fill:#FADC81;}
	.st13{fill:#FBDB7F;}
	.st14{fill:#F7D277;}
	.st15{fill:#F6CB6A;}
	.st16{fill:#F8C460;}
	.st17{fill:#F4BA53;}
	.st18{fill:#CA5500;}
</style>
<g>
	<path class="st0" d="M31.3,0c17.5,0.3,31.3,13.8,31.2,31.6c-0.1,17.4-13.8,31.2-31.7,31C13.6,62.4-0.3,48.8,0,30.8
		C0.3,13.6,13.7,0.2,31.3,0z"/>
	<path class="st1" d="M31.3,56.9C17.4,57.1,5.5,45.3,5.7,31C5.8,17.3,17.3,5.4,31.8,5.7C45.4,6,57.2,17.5,56.9,32
		C56.5,45.7,45,57,31.3,56.9z"/>
	<path class="st2" d="M51.5,22.5c2.3,4.3,2.5,9,1.5,13.6c-3.4,15.2-20.5,22.2-33.7,13.9c-2.3-1.5-4.4-3.3-5.9-5.6
		c-3.9-9-0.1-20.4,8.1-26c0.7-0.4,1.3-0.9,2-1.3c0.4-0.2,0.9-0.5,1.3,0c0.1,1.4,0.5,2.6,1.1,3.9c0.5,1.1-0.5,1.4-1.1,2
		c-0.6,0.5-1.1,0.7-1.8,0.1c-0.6-0.5-1.1-1-1.8-1.4c-1-0.7-1.6-0.6-2.3,0.3c-1.1,1.5-1.6,3.2-2.1,4.9c-0.2,0.7,0.3,1.2,1,1.4
		c0.8,0.2,1.5,0.5,2.3,0.7c1.2,0.4,1,1.4,1,2.3c0,0.8-0.2,1.5-1.1,1.7c-0.8,0.2-1.5,0.4-2.3,0.8c-0.8,0.4-1.2,1-1,1.9
		c0.4,1.4,1,2.6,1.8,3.8c0.5,0.7,1.1,0.9,1.9,0.5c0.8-0.4,1.5-0.9,2.2-1.4c0.6-0.4,1.1-0.4,1.6,0.1c0.3,0.3,0.6,0.6,0.9,0.8
		c0.6,0.5,0.7,1,0.4,1.7c-0.3,0.7-0.7,1.5-0.9,2.2c-0.3,0.9,0,1.6,0.8,2c1.4,0.6,2.8,1,4.4,1.1c1,0,1.6-0.5,1.9-1.5
		c0.2-0.7,0.2-1.3,0.3-2c0.1-1,0.8-1.3,1.6-1.5c0.8-0.1,1.7-0.5,2.3,0.5c0.3,0.6,0.8,1.2,1.2,1.8c0.6,0.9,1.3,1.2,2.2,0.7
		c1.2-0.7,2.4-1.4,3.4-2.5c0.7-0.8,0.7-1.4,0-2.2c-0.5-0.6-1.1-1.1-1.6-1.6c-0.6-0.6-0.7-1.2-0.3-1.9c0.4-0.8,0.9-1.4,1.8-1.3
		c0.8,0.1,1.6,0.2,2.4,0.2c1.3,0,1.6-0.3,2-1.6c0.1-0.6,0.1-1.2,0.1-1.8c0-0.9-0.1-1.8,0.1-2.6c0.1-0.4,1-0.1,0.8-0.6
		c-0.2-0.6-0.8,0-1.3-0.2c-0.8-0.5-1.7-0.5-2.6-0.3c-2,0.3-2.4,0-3.1-1.6c-0.4-0.9-0.1-1.5,0.6-2.1c0.9-0.7,1.7-1.4,2.3-2.4
		c0.6-0.1,0.7,0.4,0.9,0.7c0.3,0.5,0.6,1,1,1.4c0.3,0.3,0.7,0.4,1.1,0.3c0.5-0.1,0.6-0.5,0.6-0.9c0.1-1.3-0.3-2.5-1.2-3.5
		c-0.9-0.9-1.7-0.8-2.3,0.4c-0.1,0.1-0.1,0.3-0.3,0.4c-0.7,0-1-0.6-1.4-1c-0.7-0.7-1.5-1.5-2.4-2c-1.2-0.6-1.8-0.5-2.5,0.6
		c-0.3,0.5-0.6,1-1,1.5c-0.5,0.7-1,1-1.9,0.8c-0.9-0.3-1.8-0.4-1.9-1.6c0-0.6-0.2-1.2-0.2-1.8c-0.1-1.5-0.5-1.8-1.9-1.8
		c-0.7,0-1.4,0.2-2.1-0.3c0.1-0.8,0.8-0.7,1.3-0.8c6.8-1.4,13,0.1,18.5,4.3C49.5,20.1,50.7,21.2,51.5,22.5z"/>
	<path class="st3" d="M24.8,17.2c-0.6-0.4-1,0.1-1.4,0.4C15.8,22.3,12,29.1,12.2,38c0,2.2,0.7,4.3,1.2,6.4c-2.7-3.3-4-7.1-4.3-11.3
		c-0.5-7.1,1.8-13.1,7-18.1c6-5.7,15.7-7.6,23.4-4.5c4.8,2,8.5,5.2,11.2,9.6c0.4,0.7,0.8,1.4,0.9,2.3c-1.5-1.3-2.8-2.8-4.4-3.9
		c-5.6-3.7-11.6-4.9-18.1-3.3c-0.2,0-0.3,0.2-0.5,0.3c0,0.2,0,0.3-0.2,0.4C27.1,16.3,25.9,16.8,24.8,17.2z"/>
	<path class="st4" d="M24.8,17.2c1-1.1,2.5-1.1,3.7-1.6c0.8,0,1.7,0,2.5-0.1c1.2-0.1,1.7,0.6,1.8,1.6c0.1,0.7,0.2,1.5,0.2,2.3
		c0,0.8,0.3,1,1,1.3c1.5,0.7,2.1-0.1,2.7-1.2c1.4-2.4,2.1-2.7,4.6-0.8c0.9,0.7,1.7,1.7,2.6,2.5c0.4,0.3,0.6,0.7,0.3,1.1
		c-0.3,1.2-1.3,1.9-2.1,2.5c-1.3,0.9-0.6,1.7-0.2,2.7c0.3,1,1.1,0.6,1.7,0.5c0.4,0,0.9-0.1,1.3-0.1c0.9-0.2,1.7,0,2.3,0.7
		c0.3,0.2,0.4,0.4,0.4,0.7c0,1.5,0.1,3-0.1,4.6c-0.2,1.5-0.8,2.1-2.4,2c-0.6,0-1.3-0.1-1.9-0.3c-0.9-0.2-1.4,0-1.9,0.9
		c-0.5,0.9-0.4,1.4,0.4,2c0.2,0.1,0.4,0.3,0.5,0.5c2.5,2,2,2.8-0.1,4.6c-0.8,0.6-1.6,1.2-2.5,1.6c-1,0.5-1.9,0.4-2.5-0.6
		c-0.3-0.4-0.6-0.8-0.8-1.2c-0.5-1.2-1.2-1.6-2.6-1.2c-0.9,0.2-1.3,0.5-1.3,1.4c0,0.6-0.1,1.1-0.2,1.7c-0.3,1.6-0.9,2.2-2.5,2
		c-1.5-0.2-2.9-0.6-4.3-1.2c-1-0.4-1.3-1.2-1-2.2c0.2-0.5,0.3-0.9,0.5-1.3c0.7-1.2,0.7-2.2-0.6-3.1c-0.6-0.4-1-0.6-1.6-0.1
		c-0.7,0.5-1.5,1-2.2,1.4c-0.8,0.5-1.5,0.3-2-0.5c-0.9-1.2-1.6-2.6-2-4.1c-0.4-1.3,0-2,1.3-2.4c0.5-0.2,0.9-0.4,1.4-0.4
		c1.4-0.1,1.8-0.8,1.7-2.2c0-1-0.3-1.6-1.3-1.7c-0.3-0.1-0.6-0.2-0.9-0.3c-2.4-0.7-2.6-1-1.6-3.4c0.5-1.3,0.8-2.7,1.7-3.8
		c0.9-1.1,1.5-1.3,2.7-0.3c0.3,0.2,0.6,0.5,0.9,0.8c1.4,1.2,1.4,1.1,2.8,0.1c0.6-0.4,0.6-0.8,0.3-1.4C25.1,19.8,24.2,18.7,24.8,17.2
		z"/>
	<path class="st5" d="M18.3,42.9c2.4,0,3.8,1.2,4.9,2.9c0.3,0.4,0.3,0.8,0,1.2c-0.3,0.5-0.8,0.8-1.4,0.7c-2.1-0.3-3.7-1.3-4.9-3.1
		C16.3,43.6,17,42.9,18.3,42.9z"/>
	<path class="st5" d="M44.1,22.3c-0.1-0.4-0.2-0.7-0.3-1.1c0-0.7,0-1.4,0.8-1.7c0.8-0.2,1.4,0.1,1.9,0.6c1.1,1.2,1.4,2.6,1.3,4.2
		c0,0.4-0.3,0.7-0.8,0.8c-0.6,0.1-1.1,0.1-1.5-0.4C45,24,44.7,23.1,44.1,22.3z"/>
	<path class="st6" d="M47.4,29.3c-0.1-0.2-0.2-0.5-0.4-0.7c0.1-0.1,0.2-0.2,0.3-0.2c0.4-0.4,0.8-0.3,1.1,0.1
		c0.2,0.2,0.3,0.5,0.1,0.7C48.2,29.7,47.8,29.4,47.4,29.3z"/>
	<path class="st7" d="M16,39.4c0.5,0,0.8,0.2,0.8,0.6c0.1,0.3-0.2,0.5-0.5,0.5c-0.4,0-0.7-0.2-0.8-0.6C15.5,39.6,15.9,39.5,16,39.4z
		"/>
	<path class="st8" d="M38.9,25.9c1.3,0.7,1.3,2.2,1.9,3.3c0.1,0.3,0.2,0.6,0.3,0.9c0.7,0.8,1.6,0.3,2.3,0.4c0.7-0.2,1.4,0.2,2.1-0.2
		c0.4,1.1-0.3,2.1-0.1,3.2c0,0.3-0.2,0.4-0.5,0.3c-0.7-0.1-1.5-0.2-2.2-0.4c-1.5-0.3-2.2,0.1-2.8,1.5c-0.3,0.6-0.6,1.1-0.9,1.7
		c-0.7,1-0.4,1.7,0.4,2.4c0.4,0.4,0.8,0.7,1.2,1c1,0.9,1,1.3,0,2.2c0,0-0.1,0.1-0.1,0.1c-1.4,1.2-1.6,1.2-2.6-0.4
		c-0.2-0.4-0.4-0.8-0.7-1.1c-0.4-0.6-0.9-1.1-1.8-1c-1.1,0.1-2.1,0.5-3.1,0.6c-0.8,0.1-1.3,0.9-1.4,1.8c-0.1,0.5-0.1,1-0.2,1.5
		c-0.2,1.6-0.2,1.6-1.9,1.3c0,0-0.1,0-0.1,0c-2.4-0.4-2.5-0.7-1.7-2.9c0.8-2.1,0.8-2.1-1-3.7c-0.3-0.3-0.7-0.6-0.9-0.9
		c-0.7-0.8-1.4-0.8-2.3-0.3c-0.7,0.4-1.4,0.8-2.1,1.3c-0.5,0.4-0.9,0.3-1.2-0.3c-0.5-0.7-0.7-1.5-1-2.3c0.7-0.6,1.5-0.6,2.3-0.9
		c0.4-0.2,0.8-0.3,1.1-0.6c0.6-0.4,0.9-1,1.2-1.7c0.9-0.3,1.8-0.6,2.7-0.5c0.8,0.6,0.9,1.6,1.2,2.4c0.1,1.4,1.2,1.8,2.2,2.2
		c2.2,1,5.7,0.5,7.2-1.9c0.4-0.7,0.8-1.5,0.6-2.4c0.1-0.8-0.1-1.7,0.3-2.5c0.7-0.7,1.6-0.5,2.4-0.8C39.2,28.3,38.1,27.2,38.9,25.9z"
		/>
	<path class="st9" d="M38.9,25.9c-0.2,1,0.3,1.9,0.6,2.7c0.3,0.8,0.1,1.2-0.8,1.3c-0.5,0.1-1,0.2-1.5,0.3c-0.4-0.2-0.5-0.7-0.7-1.1
		c-1.2-2.4-3.6-3.7-5.8-3.3c-2.9,0.6-4.5,2.4-4.7,5.4c0,0.4,0,0.8-0.3,1.1c-1,0.2-1.9,0.3-2.9,0.5c-0.2-0.2-0.1-0.5-0.1-0.7
		c-0.2-0.7,0.2-1.4,0.1-2.1c0-0.4,0.1-1-0.4-1.3c-1-0.9-2.4-0.8-3.5-1.5c0-0.2,0-0.3,0.1-0.4c1.4-2.2,1.2-2.8,3.5-0.8
		c0.5,0.4,1.1,0.4,1.6,0.1c1.2-1,2.2-2.1,3.6-2.9c0.8-0.4,0.6-1.1,0.4-1.8c-0.2-0.6-0.4-1.2-0.6-1.8c1-0.8,2-0.8,3.1-0.3
		c0.1,2.1,0.8,3.4,3.3,3.7c2.8,0.3,3.3,0.3,4.6-2.4c1.5,0.3,2.4,1.3,2.2,2.3c-0.4,0.5-0.9,1-1.3,1.4C39,24.9,38.7,25.3,38.9,25.9z"
		/>
	<path class="st10" d="M24.2,26.1c-0.5,0.7-1.1,0.7-1.7,0.1c-0.2-0.2-0.3-0.3-0.5-0.5c-1.3-1-1.3-1-2.2,0.5
		c-0.2,0.4-0.5,0.8-0.9,1.1c-0.5,0-0.8-0.1-0.6-0.7c0.2-0.6,0.4-1.3,0.8-1.8c0.9-1.2,0.9-1.1,2-0.2C22,25.3,22.8,26.4,24.2,26.1z"/>
	<path class="st11" d="M30.7,19.4c-1,0.1-2.1,0.1-3.1,0.3c-0.8-1.2-0.7-1.3,0.5-1.6c0.3-0.1,0.6-0.2,0.9-0.2
		C30.7,17.5,30.8,17.6,30.7,19.4z"/>
	<path class="st12" d="M40.8,23c-0.1-1.4-1.5-1.6-2.2-2.4c0.4-0.9,0.9-0.8,1.5-0.3c0.3,0.3,0.6,0.6,0.9,0.8
		C41.9,21.9,41.8,22.5,40.8,23z"/>
	<path class="st13" d="M21.8,34.6c-1,0.9-2.3,1.1-3.6,1.4c-0.2-0.5,0-0.8,0.5-0.9c0.8-0.2,1.7-0.5,2.5-0.7
		C21.6,34.2,21.8,34.2,21.8,34.6z"/>
	<path class="st14" d="M45.4,30.3c-0.1,0.3-0.1,0.7-0.6,0.5c-0.4-0.1-0.9-0.1-1.4-0.1c-0.2-0.3-0.7,0.2-0.7-0.4
		C43.6,30.1,44.5,29.7,45.4,30.3z"/>
	<path class="st15" d="M22.4,28.8c0.6,0.1,0.7,0.5,0.6,0.9c-0.1,0.8-0.2,1.6-0.3,2.4c-0.1,0.1-0.1,0.1-0.2,0
		C22,31.1,22.8,29.9,22.4,28.8z"/>
	<path class="st16" d="M42.7,30.3c0.2,0.1,0.5,0.3,0.7,0.4c-0.5,0-1,0-1.5,0c-0.4,0-0.9-0.1-0.9-0.7C41.5,30.3,42.1,30.2,42.7,30.3z
		"/>
	<path class="st17" d="M22.5,32.2c0.1,0,0.1,0,0.2,0c0,0.2,0,0.5,0,0.7c0,0.7-0.3,1.3-0.9,1.7c-0.1-0.2-0.3-0.2-0.5-0.3
		C22.1,33.8,22.7,33.2,22.5,32.2z"/>
	<path class="st18" d="M25.6,32.4c0-3.6,1.2-5.6,3.9-6.5c3-1,6.2,0.5,7.4,3.4c0.1,0.3,0.2,0.6,0.3,0.9c-0.1,0.9,0.1,1.8-0.2,2.7
		c-0.1,1.8-1.7,3.6-3.8,4.2c-2.6,0.8-5.5-0.2-6.6-2.4C26.3,34,25.9,33.2,25.6,32.4z"/>
	<path class="st10" d="M26.6,34.8c1.8,1.9,3.8,2.9,6.4,2.1c2-0.6,3.4-1.9,4-4c0.3,1.8-0.8,2.9-2,3.7c-2.3,1.7-5.8,1.4-7.9-0.5
		C26.7,35.8,26.2,35.5,26.6,34.8z"/>
	<path class="st2" d="M35.5,31.4c0,2.3-1.8,4.1-4.1,4.1c-2.3,0-4.1-1.9-4.1-4.1c0-2.3,1.9-4.1,4.1-4.1
		C33.7,27.2,35.5,29.1,35.5,31.4z"/>
</g>
</svg>
