<?xml version="1.0" encoding="utf-8"?>
<!-- Generator: Adobe Illustrator 23.0.2, SVG Export Plug-In . SVG Version: 6.00 Build 0)  -->
<svg version="1.1" id="Camada_1" xmlns="http://www.w3.org/2000/svg" xmlns:xlink="http://www.w3.org/1999/xlink" x="0px" y="0px"
	 viewBox="0 0 97.79 97.14" style="enable-background:new 0 0 97.79 97.14;" xml:space="preserve">
<style type="text/css">
	.st0{fill:#323232;}
	.st1{fill:#FEFEFE;}
	.st2{fill:#43D2FE;}
	.st3{fill:#2FC6F3;}
	.st4{fill:#19AEDD;}
	.st5{fill:#126D90;}
	.st6{fill:#72D9EC;}
	.st7{fill:#15BDF3;}
	.st8{fill:#45CCF4;}
	.st9{fill:#53CFF1;}
	.st10{fill:#69DCF7;}
	.st11{fill:#16AFE6;}
	.st12{fill:#1C9BCD;}
	.st13{fill:#1B8DC0;}
	.st14{fill:#147EAB;}
	.st15{fill:#1BC3F6;}
	.st16{fill:#A8300F;}
	.st17{fill:#16BEF0;}
	.st18{fill:#37CCF9;}
	.st19{fill:#17C7FD;}
	.st20{fill:#FDFEFE;}
	.st21{fill:#F0FCFA;}
	.st22{fill:#2DC3EC;}
	.st23{fill:#E0F7F6;}
	.st24{fill:#18B3E3;}
	.st25{fill:#19A5D6;}
	.st26{fill:#EFFBFB;}
	.st27{fill:#FE8B86;}
	.st28{fill:#F63F0E;}
	.st29{fill:#F9502C;}
	.st30{fill:#F6400F;}
	.st31{fill:#BB1A01;}
	.st32{fill:#C21900;}
	.st33{fill:#BD1F01;}
	.st34{fill:#C11F00;}
</style>
<g>
	<path class="st0" d="M49.03,0.01c5.89-0.16,11.51,1.93,17.2,3.7c7.03,2.19,12.8,6.47,17.79,11.67c4.36,4.54,7.83,9.77,9.92,15.84
		c1.62,4.71,2.56,9.59,3.57,14.43c0.59,2.79,0.19,5.7-0.55,8.53c-1.39,5.3-2.21,10.76-4.75,15.72c-1.84,3.59-4.07,6.92-6.66,9.97
		c-3.24,3.81-7.17,6.86-11.35,9.6c-3.23,2.12-6.78,3.45-10.42,4.61c-3.88,1.24-7.9,1.88-11.86,2.74c-1.93,0.42-4,0.44-5.9,0.03
		c-5.83-1.26-11.77-2.19-17.26-4.63c-4.16-1.85-7.94-4.38-11.37-7.42C11.8,79.85,7.16,74.21,4.35,67.24
		c-1.32-3.26-2.33-6.65-2.84-10.15c-0.36-2.48-1.41-4.79-1.5-7.36c-0.19-5.25,1.54-10.16,2.72-15.13
		c1.94-8.19,6.64-14.97,12.55-20.74c4.4-4.29,9.54-7.72,15.43-9.9c4.28-1.58,8.73-2.44,13.08-3.68C45.43-0.17,47.14,0.15,49.03,0.01
		z"/>
	<path class="st1" d="M49,8.99c22.81,1.02,39.3,16.82,39.42,39.12C88.54,71.32,71.3,87.73,48.78,87.7
		C26.72,87.68,9.13,71.14,9.27,48.2C9.41,26.25,26.26,9.76,49,8.99z"/>
	<path class="st2" d="M81.12,34.96c1.4,3.11,2.28,6.35,2.5,9.76c0.11,2.33,0.52,4.6-0.74,6.9c-0.89,1.62-0.95,3.67-1.51,5.5
		c-0.74,2.4-1.56,4.76-3.11,6.78c-0.42,0.4-0.73,0.91-1.22,1.23c-0.64,0.3-1.32,0.24-2,0.26c-1.4,0.04-2.68-0.38-3.93-0.96
		c-0.65-0.3-1.09-0.71-1.06-1.47c0.24-1.84-0.51-3.4-1.45-4.89c-1.86-2.94-3.86-5.79-5.81-8.66c-0.62-0.91-0.7-1.62-0.04-2.59
		c1.85-2.73,3.69-5.46,5.63-8.13c0.66-0.9,1.04-1.87,1.05-3c0.04-2.54-1.13-3.8-3.66-3.79c-4.56,0.02-9.12-0.12-13.67,0.08
		c-0.16,0.08-0.32,0.16-0.48,0.24c-0.42,0.23-0.84,0.44-1.21,0.75c-1.63,1.37-2.02,1.25-2.88-0.9c-0.02-3.01,0-6.01,0.85-8.93
		c0.18-0.26,0.41-0.47,0.69-0.61c4.2-0.45,8.38-0.49,12.56,0.33c1.05,0.21,1.43,1.02,2.07,1.64c0.59,0.28,0.57,0.88,0.72,1.37
		c0.31,1.06,0.89,1.94,1.68,2.7c2.25,2.18,3.82,1.85,4.75-1.03c1.14-0.75,2.03-0.09,2.91,0.55C76.48,30.08,79.05,32.25,81.12,34.96z
		"/>
	<path class="st3" d="M70.19,63.08c1.27,1.43,2.95,1.81,4.77,1.83c1.46,0.57,0.64,1.38,0.18,2.08c-2.55,3.8-5.87,6.79-9.77,9.14
		c-5.48,3.31-11.47,4.79-17.83,4.7c-4.04-0.06-7.95-1.01-11.74-2.42c-1.9-0.71-3.68-2.11-5.86-0.89c-1.24-0.65-2.39-1.42-3.35-2.45
		c-0.78-1.54,0.72-1.55,1.4-2.1c1.14-0.74,1.06,0.76,1.72,0.92c0.35,0.62,0.88,0.93,1.58,0.98c1.16,0.07,2.21,0.47,3.25,0.96
		c4.69,2.2,9.61,3.29,14.81,3.01c0.36-0.02,0.72-0.08,1.07-0.17c0.78-0.19,1.22-0.48,0.56-1.33c-1.06-1.36-2.22-2.69-1.97-4.62
		c0.02-0.17-0.09-0.37-0.21-0.48c-2.67-2.34-4.61-5.88-8.99-5.44c-0.67,0.07-1.46,0.12-1.95-0.65c0.61-0.85,1.51-0.55,2.3-0.64
		c1.59-0.16,3.24,0.37,4.77-0.4c1.01-0.53,2.02-1.02,2.75-1.97c0.66-0.86,1.54-0.77,2.16-0.03c1.67,1.99,3.85,2.12,6.19,2.05
		c3.47-0.11,6.94,0.04,10.41-0.07c0.17-0.05,0.34-0.09,0.51-0.13C68.45,65.04,69.07,63.63,70.19,63.08z"/>
	<path class="st4" d="M19.79,67.81c-1.21-1.68-2.19-3.49-2.99-5.4c0.35-1.79-0.62-3.34-0.91-5.02c-0.13-0.74-0.45-1.46-0.45-2.24
		c0.02-4.72-0.15-9.43,1.03-14.08c1.34-5.26,3.71-9.95,7.3-14.01c1.19-1.34,2.5-2.57,3.8-3.81c0.51-0.48,0.96-1.1,1.8-1.01
		c0.82,0.97-0.21,1.39-0.65,1.82c-2.1,2.04-4.01,4.24-5.66,6.66c-1.58,2.31-1.31,3.74,1.05,5.22c0.79,0.5,0.75,1.13,0.52,1.86
		c-0.32,1.02-0.95,1.93-1.11,3.01c-1.22,3.06-2.66,6.04-3.23,9.33c-0.75,4.32-1.31,8.65-0.31,13.01c-0.12,1.38,0.41,2.64,0.77,3.93
		c0.04,0.18,0.03,0.36-0.02,0.54C20.47,68.03,20.15,68.01,19.79,67.81z"/>
	<path class="st5" d="M15.89,37.03c4.82-14.5,19.19-23.8,34.39-23.18c0.65,0.03,1.3,0.16,1.95,0.25c0.39,0.51,1.18-0.05,1.54,0.54
		c-0.24,0.69-0.9,0.67-1.41,0.89c-3.32,0.38-6.65,0.14-9.98,0.84c-10.23,2.16-17.78,7.75-22.91,16.83
		c-1.62,2.86-2.81,5.79-3.31,9.02c-0.14,0.27-0.34,0.49-0.59,0.65c-1.58,0.29-0.89-0.98-0.82-1.44
		C14.99,39.94,15.61,38.52,15.89,37.03z"/>
	<path class="st6" d="M79.68,64.56c-1.99,4.25-5.01,7.67-8.64,10.57c-8.37,6.68-17.91,8.94-28.42,7.39c-0.28-0.04-0.55-0.2-0.82-0.3
		c0.76-0.75,1.67-0.47,2.54-0.33c1.86,0.3,3.65,0.23,5.45-0.45c1.78-0.68,3.74-0.71,5.61-1.09c7.46-1.52,13.65-5.19,18.7-10.85
		c0.09-0.15,0.2-0.29,0.31-0.43c1.21-1.09,1.88-2.61,2.99-3.77C78.05,64.75,78.6,63.82,79.68,64.56z"/>
	<path class="st7" d="M81.12,34.96c-0.13,0.57-0.35,0.79-0.71,0.15c-1.76-3.11-4.76-4.91-7.43-7.07c-0.64-0.52-1.35-0.29-1.97-0.58
		c-0.65-0.18-0.94-0.74-1.21-1.26c-0.63-1.22-1.55-2.12-2.74-2.76c-0.26-0.16-0.62-0.17-0.8-0.38c-3.63-4.13-8.7-4.74-13.66-5.61
		c-0.35-0.06-0.71-0.08-1.06-0.17c-0.18-0.05-0.33-0.15-0.46-0.29c-0.12-0.27-0.12-0.53,0-0.8c0.37-0.62,0.96-0.79,1.63-0.83
		c7.83,1.75,15.29,4.3,21.37,9.87c0.9,0.82,1.41,2.11,2.74,2.45C78.74,29.82,80.05,32.32,81.12,34.96z"/>
	<path class="st8" d="M29.94,77.51c1.03-1.72,2.2-1.26,3.73-0.54c4.98,2.33,10.26,3.67,15.78,3.38
		c10.72-0.56,19.33-5.14,25.61-13.94c0.41-0.57,0.51-1.04-0.1-1.51c0.72,0,1.43,0,2.15,0c0.43,1.07-0.63,1.49-0.99,2.2
		c-0.39,0.77-1,1.42-1.52,2.12l0,0c-5.37,6.18-12.13,9.88-20.14,11.5c-5.06,1.02-10.07,0.99-15.07-0.23
		c-1.23-0.3-2.46-0.39-3.7-0.09C33.59,79.81,31.72,78.75,29.94,77.51z"/>
	<path class="st9" d="M35.69,80.41c0.75-0.99,1.76-0.84,2.76-0.61c3.31,0.75,6.65,1.44,10.05,1.28c8.11-0.37,15.47-2.82,21.83-8.06
		c1.48-1.22,2.7-2.69,4.27-3.79c-0.65,1.78-2.18,2.84-3.52,3.96c-5.72,4.83-12.36,7.52-19.82,8.32c-1.92,0.21-3.69,1.37-5.75,1.03
		c-1.23-0.2-2.45-0.57-3.73-0.33C39.66,81.95,37.62,81.36,35.69,80.41z"/>
	<path class="st10" d="M79.68,64.56c-1.02-0.24-1.47,0.69-2.19,1.06c-0.46-0.71,0.02-1.24,0.35-1.8c2.06-2.99,3.16-6.4,3.87-9.88
		c0.63-3.08,2.76-5.86,1.91-9.23c0.68,2.83,0.35,5.66-0.06,8.48C82.98,57.21,81.9,61.09,79.68,64.56z"/>
	<path class="st11" d="M76.82,27.68c-0.74,0.77-0.9-0.23-1.17-0.47c-2.11-1.83-4.19-3.67-6.54-5.22c-3.22-2.13-6.86-3.25-10.4-4.58
		c-1.97-0.74-4.05-1.22-6.08-1.81c0.27-0.35,0.68-0.34,1.06-0.4c3.69-0.1,7,1.29,10.31,2.67c0.87,0.36,1.64,0.98,2.65,0.95
		c3.52,1.5,6.18,4.07,8.59,6.95C75.77,26.4,76.29,27.04,76.82,27.68z"/>
	<path class="st12" d="M15.92,55.19c0.5,2.17,0.95,4.35,1.52,6.49c0.21,0.78,0.13,0.97-0.64,0.73c-2.29-5.46-3.63-11.08-2.72-17.05
		c0.25,0.19,0.43,0.44,0.44,0.74c0.08,2.01-0.21,4.01,0.13,5.76c0.27-0.65-0.34-1.58-0.17-2.5c0.12-0.64-0.3-1.48,0.67-1.8
		c0.86,1.9,0.16,3.95,0.57,5.9C15.85,54.02,15.57,54.64,15.92,55.19z"/>
	<path class="st13" d="M66.66,18.81c-0.58,0.66-1.16,0.06-1.58-0.13c-1.99-0.92-4.09-1.5-6.17-2.19c-1.71-0.57-3.44-0.69-5.19-0.9
		c-0.42-0.42-1.07,0.06-1.48-0.39c0.27-0.42,0.82-0.24,1.24-0.49c-0.44-0.29-1.02-0.1-1.26-0.6c4.37-0.01,8.29,1.55,12.09,3.49
		C65.1,17.99,65.88,18.4,66.66,18.81z"/>
	<path class="st14" d="M15.19,47.62c-0.82,1.49-0.02,3.14-0.48,4.75c-0.92-2.32-0.39-4.7-0.63-7.01c0.07-2.89,0.7-5.66,1.81-8.33
		c0.18,1.54-0.74,2.85-0.9,4.32c-0.04,0.4-0.92,1.45,0.57,1.24c0.83,1.51-0.11,3.01-0.05,4.51C15.46,47.3,15.36,47.48,15.19,47.62z"
		/>
	<path class="st15" d="M19.79,67.81c0.32-0.03,0.63-0.07,0.81-0.39c0.81-0.09,0.88,0.64,1.19,1.09c0.62,0.93,1.12,1.94,2.44,2.08
		c0.84,0.09,0.6,1.07,1.07,1.48c0.61,0.6,1.29,1.01,2.19,0.81c0.26,0.01,0.49,0.09,0.66,0.3c-0.33,0.78-1.79,0.63-1.57,1.88
		C23.9,73.04,21.69,70.57,19.79,67.81z"/>
	<path class="st16" d="M70.19,63.08c-0.55,1.44-1.64,2.11-3.14,2.2c-2.18-0.44-4.39-0.12-6.59-0.19c-2.3-0.07-4.61,0.04-6.91-0.03
		c3.92,0.03,7.83,0.02,11.75,0.03c0.58,0,1.2-0.17,1.75,0.18c-0.33,0.54-0.87,0.29-1.31,0.29c-3.48,0.02-6.96-0.06-10.43,0.04
		c-2.36,0.07-4.5-0.22-6.04-2.26c-0.36-0.48-0.93-0.82-1.22-0.06c-0.54,1.45-1.87,1.63-3.01,2.14c-0.07,0.27-0.24,0.39-0.52,0.37
		c-3.83-0.28-7.63,0.49-11.46,0.4c-0.87-0.02-1.84,0.16-2.45-0.74c0.15-0.33,0.44-0.35,0.75-0.35c3.99-0.02,7.99,0,11.98-0.01
		c-4.08,0-8.17,0-12.25,0c-0.97,0.76-1.87,0.56-2.75-0.18c-1.25-1.06-1.9-3.08-1.43-4.55c0.65-2.03,1.98-3.69,3.14-5.43
		c1.24-1.84,2.39-3.74,3.67-5.54c0.71-0.99,0.68-1.8-0.01-2.75c-1.76-2.42-3.33-4.97-5.09-7.39c-0.54-0.74-1-1.49-1.21-2.38
		c-0.13-0.76-0.14-1.53-0.04-2.29c0.29-2.19,1.7-3.49,3.89-3.61c0.59-0.03,1.18-0.01,1.77-0.07c3.89-0.01,7.77-0.03,11.66,0
		c1.36,0.01,2.66,0.17,3.25,1.69c0.65,0.79,1.24,2.12,2.02,0.03c0.16-0.42,0.97-0.59,1.49-0.87c0.59,0.44,1.28,0.23,1.91,0.23
		c4.38,0.02,8.75,0.01,13.13,0.01c-4.85-0.02-9.7,0.01-14.55-0.03c-0.2,0-0.33-0.13-0.47-0.22c2.84-0.56,5.7-0.14,8.55-0.26
		c1.92-0.08,3.84,0.06,5.76-0.04c1.66-0.09,2.98,0.42,3.76,1.86c0.85,1.57,0.84,3.27-0.14,4.76c-2.08,3.15-4.21,6.27-6.44,9.32
		c-0.48,0.66-0.37,0.78,0.04,1.37c2.29,3.29,4.54,6.61,6.65,10.01C70.43,60.03,71.12,61.5,70.19,63.08z"/>
	<path class="st17" d="M49.05,22.8c-0.12,0.12-0.24,0.23-0.36,0.35c-0.77,0.66-1.75,0.77-2.67,0.95c-3.57,0.71-6.83,2.16-9.92,4.03
		c-0.55,0.33-1.07,0.83-1.8,0.48c0.22-1.71-0.01-2.7-1.04-4.5c-0.67-1.18-0.4-2.13,0.65-2.98c2.92-2.37,6.31-3.62,9.96-4.15
		c1.53-0.22,3.07-0.43,4.61-0.54c0.97-0.07,1.91-0.03,2.73,0.58l0.01,0.01C50.9,19.11,50.1,21,49.05,22.8z"/>
	<path class="st18" d="M34.28,28.55c2.44-1.21,4.73-2.74,7.32-3.68c2.31-0.83,4.65-1.42,7.08-1.72c-0.5,3.12-0.65,6.27-0.75,9.42
		c-1-0.82-2.11-1.16-3.44-1.14c-3.89,0.05-7.77-0.02-11.66-0.05c-0.41-0.41-1.34,0.26-1.44-0.59c-0.08-0.64,0.57-0.98,1.05-1.32
		C33,29.08,33.48,28.5,34.28,28.55z"/>
	<path class="st19" d="M49.05,22.8c0.35-2.06,1.15-3.96,2.16-5.77c3.29-0.11,6.4,0.72,9.44,1.85c1.11,0.41,2.19,0.91,3.25,1.45
		c0.91,0.46,2.05,0.67,2.19,2.06c0.06,0.61,0.99,0.22,1.33,0.69c-1.09,0.79-2.56,0.66-3.61,1.51c-0.45,0.21-0.22,0.76-0.69,1.23
		c0.42-2.34-1.18-2.4-2.63-2.66C56.68,22.48,52.86,22.88,49.05,22.8z"/>
	<path class="st20" d="M63.79,24.58c0.64-1.85,2.2-1.51,3.61-1.51c1.79,0.98,2.67,2.71,3.61,4.39c0.01,1.1,0.02,2.26-1.15,2.8
		c-1.3,0.6-2.47,0.08-3.48-0.76C64.84,28.22,63.8,26.67,63.79,24.58z"/>
	<path class="st21" d="M73.49,32.44c-0.2,0.76-0.69,1.28-1.51,1.18c-0.68-0.09-1.28-0.51-1.13-1.33c0.14-0.75,0.59-1.36,1.47-1.24
		C73.04,31.15,73.46,31.64,73.49,32.44z"/>
	<path class="st9" d="M77.84,63.83c-0.12,0.6-0.23,1.2-0.35,1.8c-0.96,1.21-1.47,2.76-2.89,3.6c0.37-1.71,2.15-2.61,2.51-4.32
		C77.12,64.39,77.36,64.03,77.84,63.83z"/>
	<path class="st22" d="M27.74,37.17c2.35,3.44,4.68,6.9,7.09,10.3c0.36,0.51,0.34,0.66,0,1.15c-2.3,3.34-4.54,6.73-6.79,10.11
		c-1.83,2.76-0.65,6.37,2.6,6.57c0,0,0,0,0,0c0.08,0.08,0.16,0.24,0.24,0.24c4.72,0.05,9.44,0.21,14.16-0.11
		c-0.29,0.79-0.98,0.54-1.54,0.55c-1.73,0.03-3.46,0.01-5.2,0.13c1.72,0.51,3.57-0.1,5.28,0.84c0.85,0.47,1.61,0.87,2.22,1.67
		c0.64,0.84,1.41,1.62,2.36,2.18c0.74,0.43,1.61,1.21,1.45,1.93c-0.59,2.67,1.78,3.69,2.7,5.68c-2.2,1.34-4.69,1.07-7.19,0.85
		c-4.29-0.38-8.31-1.65-12.07-3.68c-0.68-0.37-1.56,0.37-2-0.55c0.03-1.08-0.18-1.85-1.51-1.13c-0.33,0.15-0.67,0.26-0.66-0.3
		c0.01-0.62-0.28-0.63-0.73-0.42c-0.27-0.01-0.53-0.02-0.8-0.03c-0.05-0.3,0.1-0.57,0.17-0.85c0.16-0.58,0.02-1.07-0.54-1.32
		c-0.63-0.28-1.13-0.04-1.48,0.53c-0.18,0.3-0.23,0.67-0.5,0.91c-0.47-0.64-0.7-1.27-1.74-1.59c-1.4-0.44-1.78-2.25-2.67-3.42
		c0,0,0,0,0,0c-0.37-1.32-0.81-2.62-1.08-3.96c-1.46-7.65-0.1-14.9,3.19-21.86c0.18-0.37,0.28-0.78,0.42-1.17
		c0.96-1.43,1.49-3.1,2.65-4.41c0.42-0.48,0.83-1.24,1.53-0.97c0.65,0.25,0.2,1.06,0.3,1.61C27.64,36.83,27.66,37.01,27.74,37.17z"
		/>
	<path class="st23" d="M29.55,73.9c0.52-0.4,0.75-1.57,1.73-0.8c0.88,0.69,0.19,1.32-0.23,1.93C29.94,75.47,29.59,74.89,29.55,73.9z
		"/>
	<path class="st24" d="M27.74,37.17c-0.56-0.52-0.09-1.28-0.49-1.95c-1.91,1.34-2.56,3.65-4.13,5.21c0.38-1,0.76-2,1.16-3
		c0.33-0.83,0.2-1.32-0.82-1.13c-0.32,0.06-0.57,0.05-0.81-0.2c-1.09-1.16-1.3-3.68-0.34-5.08c1.72-2.53,3.59-4.92,5.86-7
		c0.53-0.48,0.96-1.06,1.43-1.6c0.08-1.19,1.15-1.48,1.91-1.91c5.41-3.1,11.16-5.02,17.5-4.7c0.76,0.04,1.57-0.13,2.2,0.5
		c0,0.24-0.01,0.47-0.01,0.71c-4.61-0.23-9.09,0.37-13.36,2.19c-1.32,0.56-2.43,1.48-3.62,2.26c-1.52,0.99-1.05,1.91-0.26,2.95
		c0.55,0.72,1.99,0.84,1.8,1.95c-0.14,0.79-0.96,1.46-1.47,2.19c-0.86,0.7-1.72,1.39-2.58,2.1c-0.04,0.03-0.03,0.11-0.06,0.21
		c0.39,0.18,0.79,0.35,1.18,0.53c-2.04,0.02-4.04,0.11-4.93,2.48C27.49,34.97,27.71,36.06,27.74,37.17z"/>
	<path class="st25" d="M51.21,16.31c-3.39,0.11-6.8-0.37-10.14,0.66c-4.1,1.25-8.06,2.76-11.47,5.46c-2.59,1.47-4.48,3.76-6.33,5.97
		c-3.68,4.38-5.86,9.54-6.88,15.16c-0.7,3.84-0.45,7.75-0.47,11.63c-0.84-2.47-0.71-5.02-0.73-7.57c0-0.12,0-0.23,0.01-0.35
		c0.29-1.68,0.41-3.38,0.71-5.05c-0.07-4.09,2.04-7.37,4.02-10.69c4-6.71,9.71-11.43,17-14.12c3.34-1.24,6.86-2.03,10.47-2.17
		c1.61-0.06,3.23-0.03,4.85-0.04c0.5,0.11,1.09-0.13,1.48,0.39c-0.36,0-0.73,0.01-1.09,0.01C52.01,15.53,51.7,16.1,51.21,16.31z"/>
	<path class="st15" d="M19.52,63.46c0.5,1.28,1.11,2.54,1.08,3.96C19.86,66.21,19.46,64.9,19.52,63.46z"/>
	<path class="st12" d="M15.91,42.21c0.06,1.73-0.17,3.41-0.71,5.05c-0.24-1.59,0.4-3.11,0.36-4.68
		C15.68,42.46,15.79,42.34,15.91,42.21z"/>
	<path class="st26" d="M25.01,72.43c-0.37-0.93-0.11-1.63,0.82-1.99c0.87-0.34,1.67-0.11,2.18,0.66c0.6,0.89,0.1,1.54-0.65,2.06
		C26.25,73.97,25.78,72.72,25.01,72.43z"/>
	<path class="st27" d="M57.32,47.98c0.02,0.23,0.03,0.46,0.05,0.68c1.53,2.42,3.18,4.75,4.75,7.14c0.81,1.24,0.55,1.91-0.93,1.98
		c-2.98,0.14-5.97,0.1-8.95,0.02c-1.47-0.04-2.1-1.22-2.87-2.18c-0.12-0.04-0.24-0.08-0.36-0.12c-1.1-0.41-1.61-1.39-2.17-2.3
		c-0.66-1.05-1.21-0.98-1.82,0.02c-0.44,0.71-0.99,1.35-1.47,2.03c-1.87,2.65-4.79,3.42-7.95,2.08c-0.3-0.89,0.34-1.47,0.74-2.11
		c1.14-1.83,2.44-3.55,3.66-5.33c0.74-1.08,0.65-1.99-0.12-3.1c-2.06-2.93-4.1-5.88-6.01-8.92c-0.77-1.22-0.56-1.77,0.88-1.83
		c2.99-0.13,5.99-0.08,8.98-0.02c0.88,0.02,1.4,0.56,1.9,1.2c0.85,1.08,1.53,2.29,2.45,3.32c1.06,1.19,1.52,1.2,2.49-0.11
		c0.67-0.91,1.33-1.85,1.93-2.81c0.75-1.2,1.75-1.74,3.15-1.64c1.24,0.1,2.52-0.21,3.74,0.26c0.74,0.73,0.11,1.32-0.24,1.88
		c-0.88,1.41-1.77,2.82-2.77,4.14c-0.91,1.21-1.11,2.26-0.02,3.48C56.87,46.36,57.35,47.08,57.32,47.98z"/>
	<path class="st28" d="M35.73,57.34c5.81,0.12,5.84,0.14,9.1-4.7c0.8-1.18,1.29-1.61,2.12-0.06c0.56,1.04,1.35,1.95,2.04,2.92
		c-1.94,0.74-2.27,2.82-3.41,4.22c-0.88,1.09-1.68,1.65-3.1,1.62c-3.58-0.09-7.16-0.03-10.91-0.03c0.98-1.55,1.86-2.93,2.74-4.32
		C34.94,56.53,35.37,56.78,35.73,57.34z"/>
	<path class="st28" d="M49.36,55.62c1.6,1.91,3.76,1.86,5.97,1.76c1.96-0.09,3.93-0.03,5.9-0.02c1.16,0.01,1.4-0.36,0.71-1.36
		c-1.45-2.1-2.84-4.24-4.27-6.36c-0.21-0.31-0.39-0.6-0.3-0.98c1.4,1.08,2.07,2.71,3.06,4.09c1.94,2.7,3.73,5.51,5.78,8.56
		c-2.9,0-5.64-0.27-8.31,0.07c-3.57,0.45-6.04-0.64-7.57-3.91C50.04,56.85,49.28,56.46,49.36,55.62z"/>
	<path class="st29" d="M35.73,57.34c-0.47-0.12-0.94-0.23-1.41-0.35c1.6-2.29,3.19-4.59,4.79-6.88c0.89-1.27,1.16-2.32,0.01-3.82
		c-2.39-3.1-4.42-6.49-6.69-9.69c-0.79-1.11-0.25-1.2,0.65-1.21c3.6-0.01,7.2,0,10.8-0.02c0.68-0.01,1.07,0.24,1.45,0.81
		c0.89,1.34,1.87,2.62,2.82,3.92c0.65,0.88,1.29,0.72,1.86-0.07c0.83-1.17,1.69-2.32,2.42-3.55c0.45-0.76,0.95-1.12,1.85-1.11
		c3.36,0.05,6.72,0.03,10.08,0.05c0.49,0,1.16-0.2,1.17,0.68c-2,0.5-4.08-0.13-6.08,0.4c-0.6,0-1.22,0.1-1.79-0.03
		c-3.11-0.69-4.91,0.91-6.2,3.45c-0.11,0.21-0.22,0.43-0.35,0.63c-1.42,2.14-2.13,2.13-3.57-0.03c-2.69-4.03-2.69-4.03-7.53-4.03
		c-1.74,0-3.47,0.04-5.21-0.01c-1.3-0.04-1.26,0.37-0.63,1.29c2.13,3.1,4.15,6.28,6.33,9.35c0.72,1.01,0.75,1.77,0.07,2.74
		c-1.44,2.06-2.83,4.15-4.25,6.22C36.06,56.47,35.7,56.81,35.73,57.34z"/>
	<path class="st30" d="M59.46,36.49c1.58-1.52,3.47-0.51,5.22-0.63c0.28-0.02,0.57,0.15,0.85,0.23c-2.73,3.97-5.25,8.08-8.22,11.89
		c-0.71-1.03-1.37-2.1-2.15-3.08c-0.62-0.78-0.19-1.31,0.19-1.93C56.68,40.79,58.45,38.89,59.46,36.49z"/>
	<path class="st31" d="M51.46,31.72c5.18,0,10.37,0,15.55,0c0,0.13,0,0.25,0,0.38c-4.99,0-9.98,0-14.98-0.02
		c-0.2,0-0.4-0.23-0.6-0.35C51.44,31.73,51.46,31.72,51.46,31.72z"/>
	<path class="st32" d="M45.68,32.1c-4.96,0-9.92,0-14.88,0c0-0.06,0-0.12,0-0.17c4.99,0,9.97,0,14.96,0
		C45.73,31.98,45.7,32.04,45.68,32.1z"/>
	<path class="st33" d="M67.06,65.28c-4.65,0-9.3,0-13.95,0c0-0.12-0.01-0.25-0.01-0.37c1.65,0,3.29,0,4.94,0
		c2.45,0,4.9-0.01,7.34,0.01C65.95,64.92,66.59,64.72,67.06,65.28C67.05,65.28,67.06,65.28,67.06,65.28z"/>
	<path class="st34" d="M30.64,65.3c0.26-0.13,0.51-0.37,0.77-0.37c4.3-0.02,8.59-0.02,12.89,0.36C39.75,65.3,35.2,65.3,30.64,65.3
		C30.64,65.3,30.64,65.3,30.64,65.3z"/>
</g>
</svg>
