<?xml version="1.0" encoding="utf-8"?>
<!-- Generator: Adobe Illustrator 23.0.2, SVG Export Plug-In . SVG Version: 6.00 Build 0)  -->
<svg version="1.1" id="Camada_1" xmlns="http://www.w3.org/2000/svg" xmlns:xlink="http://www.w3.org/1999/xlink" x="0px" y="0px"
	 viewBox="0 0 97.89 96.91" style="enable-background:new 0 0 97.89 96.91;" xml:space="preserve">
<style type="text/css">
	.st0{fill:#323232;}
	.st1{fill:#FEFEFE;}
	.st2{fill:#44D2FE;}
	.st3{fill:#2CC3EB;}
	.st4{fill:#19AEDD;}
	.st5{fill:#15BBF1;}
	.st6{fill:#73DAED;}
	.st7{fill:#116C8F;}
	.st8{fill:#46CCF3;}
	.st9{fill:#56D0F0;}
	.st10{fill:#5FDAF9;}
	.st11{fill:#168BBE;}
	.st12{fill:#158ABB;}
	.st13{fill:#1898CB;}
	.st14{fill:#17A2DD;}
	.st15{fill:#B15505;}
	.st16{fill:#32C9F6;}
	.st17{fill:#16BEF0;}
	.st18{fill:#18C8FD;}
	.st19{fill:#35CBF8;}
	.st20{fill:#FDFEFE;}
	.st21{fill:#F5FDFC;}
	.st22{fill:#2FC6F3;}
	.st23{fill:#F8FDFC;}
	.st24{fill:#E7F9F8;}
	.st25{fill:#17B4E6;}
	.st26{fill:#1997C7;}
	.st27{fill:#18A6D9;}
	.st28{fill:#FC8801;}
	.st29{fill:#FEBE0F;}
	.st30{fill:#FC8900;}
	.st31{fill:#FC9706;}
	.st32{fill:#31C9F4;}
	.st33{fill:#FC990D;}
	.st34{fill:#FA980A;}
	.st35{fill:#F9A927;}
	.st36{fill:#FBA00F;}
	.st37{fill:#F4C447;}
	.st38{fill:#EF9620;}
	.st39{fill:#27C2D9;}
	.st40{fill:#F87405;}
	.st41{fill:#E18D26;}
	.st42{fill:#C08F47;}
	.st43{fill:#FEC728;}
	.st44{fill:#FED356;}
	.st45{fill:#FED04B;}
	.st46{fill:#FECE41;}
	.st47{fill:#FEC82D;}
	.st48{fill:#FEBD0F;}
	.st49{fill:#FEC524;}
	.st50{fill:#FECF45;}
	.st51{fill:#FED86E;}
</style>
<g>
	<path class="st0" d="M97.88,45.66c0,2.06,0,4.12-0.01,6.17c-0.47,4.55-2.02,8.84-3.31,13.17c-2.23,7.44-6.79,13.51-12.29,18.86
		c-3.23,3.15-7.08,5.49-11.01,7.68c-2.84,1.58-5.93,2.45-9.04,3.25c-3.22,0.83-6.28,2.38-9.74,2.08c-2.3,0-4.6-0.01-6.9-0.01
		c-4.3,0.18-8.15-1.73-12.15-2.82c-7.75-2.1-14.08-6.68-19.58-12.41C7.82,75.32,3.8,67.89,2.06,59.28
		c-0.54-2.68-1.76-5.18-1.97-7.97c-0.29-3.75,0.05-7.36,1.38-10.92c0.89-2.39,1.16-4.97,1.96-7.43c2.98-9.17,8.51-16.47,15.93-22.47
		c6.04-4.89,13.1-7.41,20.58-9.08c4.34-0.97,8.67-1.91,13.13-1.07c5.98,1.13,12.08,2.17,17.52,4.9c7.41,3.71,13.56,9.09,18.43,15.93
		c3.79,5.33,5.89,11.27,7.35,17.53C96.92,41,97.91,43.22,97.88,45.66z"/>
	<path class="st1" d="M48.64,88.04c-12.37-0.61-22.82-5.5-30.94-15.52c-4.56-5.64-6.78-12.05-7.96-18.99
		c-0.26-1.51-1.12-2.79-1.21-4.42c-0.12-2.14,0.89-3.91,1.25-5.87c1.06-5.77,2.78-11.28,6.14-16.22
		c6.29-9.25,14.81-14.98,25.83-17.04c3.04-0.57,6.03-1.88,9.14-1.26c7.34,1.46,14.7,2.89,20.98,7.47c4.37,3.19,8.09,6.9,10.98,11.46
		c3.01,4.73,4.46,10.03,5.56,15.42c1.99,9.77-1.06,18.44-6.01,26.7C79,75.46,74.24,79.66,68.54,82.9
		C62.48,86.35,55.89,87.83,48.64,88.04z"/>
	<path class="st2" d="M81.33,34.79c1.74,3.66,2.61,7.54,2.84,11.57c0.29,0.65,0.24,1.33-0.12,1.89c-0.9,1.41-1.1,3-1.4,4.59
		c-0.82,4.38-2.19,8.55-4.67,12.3c-0.18,0.23-0.4,0.42-0.66,0.56c-0.37,0.16-0.75,0.19-1.15,0.14c-2.76-0.54-5.4-1.42-7.89-2.73
		c-0.68-0.36-1.43-0.65-1.63-1.52c-0.04-0.78,0.48-1.32,0.84-1.94c4.1-7.2,3.05-18.88-6.14-24.25c-1.99-1.16-3.96-2.2-6.22-2.67
		c-1.21-0.25-2.22-0.89-2.66-2.17c-0.45-1.33-1.76-1.93-2.58-2.95c-2.19-1.57-2.35-2.34-0.95-4.55c0.14-0.15,0.31-0.27,0.5-0.35
		c4.97-0.32,9.95-0.77,14.75,1.14c0.58,0.38,0.58,1,0.62,1.6c0.12,1.98,1.21,3.34,2.82,4.3c1.76,1.06,2.75,0.57,3.13-1.46
		c0.06-0.29,0.1-0.59,0.25-0.85c1.01-0.57,1.85-0.07,2.62,0.49c2.52,1.84,4.9,3.83,6.91,6.24C80.75,34.43,80.89,34.8,81.33,34.79z"
		/>
	<path class="st3" d="M29.75,77.75c-3.74-2.37-6.96-5.27-9.38-9c-1.34-3.76-2.1-7.62-1.88-11.61c0.25-4.51,1.03-8.93,2.8-13.12
		c0.32-0.76,0.58-1.6,1.43-1.99c0.06,0.02,0.17,0.04,0.16,0.05c-0.21,2.07,1.58,2.38,2.74,3.38c1.7,1.48,3.26,3.28,2.21,5.92
		c-0.11,0.27-0.04,0.6-0.03,0.89c0,0.14-0.16,0.37,0.1,0.38c0.04-0.57-0.61-1.32,0.51-1.56c0.73,1.58,0.89,3.31,1.41,4.96
		C32.05,63,37.08,66.69,43.9,68.34c1.79,0.43,3.63,0.69,5.5,0.66c0.67-0.01,1.49-0.13,1.77,0.81c-0.48,1.19-1.35,0.56-1.96,0.57
		c0.37,0.3,1.01,0.08,1.58,0.19c1.33,0.25,2.34,0.9,2.78,2.25c0.5,1.5,1.33,2.81,2.36,3.99c1.3,1.5,1.15,2.37-0.81,2.9
		c-2.83,0.78-5.75,1.24-8.71,0.92c-4.56-0.5-8.96-1.59-13.04-3.76c-0.68-0.36-1.35-0.48-2.04-0.07
		C30.65,76.84,30.79,78.28,29.75,77.75z"/>
	<path class="st4" d="M22.94,42.09c-1.89,2.78-2.56,5.99-3.24,9.2c-0.97,4.61-0.96,9.23,0.02,13.83c0.16,0.75,0.46,1.48,0.73,2.21
		c0.18,0.49,0.59,0.97-0.08,1.41c-1.3-1.48-2.17-3.22-2.97-5c0.34-1.41-0.56-2.53-0.93-3.76c-0.8-2.65-1.11-5.37-1.53-8.09
		c-0.03-0.2-0.04-0.4-0.04-0.6c0-1.11,0-2.22-0.01-3.33c0.26-3.55,0.86-7.03,2.27-10.33c1.77-3.79,3.81-7.41,6.54-10.62
		c1.56-1.84,3.37-3.37,5.28-4.8c0.43-0.32,0.89-0.61,1.47-0.55c0.18,0.03,0.33,0.11,0.47,0.23c0.16,0.81-0.43,1.2-0.93,1.6
		c-2.56,2.05-4.56,4.57-6.23,7.37c-1.01,1.7-0.94,2.41,0.38,3.81c1.56,1.67,1.62,1.98,0.59,4.02c-0.27,0.54-0.59,1.04-0.7,1.64
		C23.77,40.98,23.58,41.68,22.94,42.09z"/>
	<path class="st5" d="M81.33,34.79c-0.13,0.44-0.22,0.92-0.73,0.23c-1.92-2.64-4.49-4.57-6.99-6.6c-0.75-0.61-1.66-0.62-2.39-1.11
		c-0.31-0.04-0.58-0.21-0.72-0.47c-0.96-1.79-2.58-2.85-4.23-3.9c-0.35-0.97-1.08-1.5-1.97-1.96c-3.21-1.66-6.54-2.9-10.15-3.34
		c-0.89-0.11-1.77-0.32-2.44-1.01c-0.15-0.3-0.05-0.56,0.12-0.8c0.13-0.15,0.3-0.25,0.48-0.32c3.75,0.05,7.25,1.26,10.75,2.43
		c3.57,1.16,6.77,2.97,9.51,5.56c0.2,0.18,0.4,0.48,0.74,0.19C77.06,26.63,79.43,30.54,81.33,34.79z"/>
	<path class="st6" d="M82.33,59.73c-1.11,4.46-3.51,8.26-6.5,11.61c-7.92,8.89-17.96,12.76-29.79,12.14
		c-0.42-0.02-0.84-0.01-1.18-0.32c0.23-0.33,0.58-0.42,0.94-0.45c3.65-0.27,7.16-1.28,10.71-2.07c7.44-1.65,13.6-5.45,18.49-11.3
		c0.09-0.15,0.19-0.29,0.3-0.42c0.92-1.06,1.76-2.18,2.52-3.36c0.7-1.25,1.36-2.52,2.04-3.78C80.4,60.8,81.06,59.88,82.33,59.73z"/>
	<path class="st7" d="M15.36,39.43c2.49-11.34,14.12-22.49,25.42-24.36c3.55-0.8,7.15-1.01,10.78-0.86
		c0.48,0.02,1.26-0.28,1.33,0.47c0.08,0.83-0.78,0.84-1.32,0.84c-2.69,0.02-5.34,0.35-7.99,0.75c-0.83,0.13-1.63,0.32-2.45,0.46
		c-4.22,1.06-8.16,2.81-11.73,5.27c-5.1,3.51-8.73,8.28-11.25,13.92c-0.17,0.38-0.27,0.8-0.55,1.13c-0.81,1.93-1.54,3.87-1.76,5.98
		c-0.05,0.45-0.02,1.27-0.75,1.15c-0.54-0.09-0.4-0.77-0.35-1.24C14.86,41.74,15.19,40.6,15.36,39.43z"/>
	<path class="st8" d="M29.75,77.75c0.85,0.12,0.18-1.29,1.11-1.09c1.01-0.56,1.85,0.06,2.71,0.43c4.93,2.14,10.01,3.75,15.43,3.5
		c10.87-0.51,19.76-4.91,26.18-13.87c0.31-0.44,0.57-0.92,1.04-1.22c0.36,0,0.72,0,1.08,0c0.35,1.68-1.25,2.37-1.8,3.6l0,0
		c-4.9,5.86-11.03,9.7-18.43,11.67c-5.47,1.45-10.93,1.68-16.44,0.57c-1.49-0.3-2.99,0.11-4.44-0.32
		C33.86,80.28,31.7,79.21,29.75,77.75z"/>
	<path class="st9" d="M36.18,81.01c3.11-1.06,6.16,0.12,9.19,0.44c4.13,0.44,8.05-0.12,11.99-1.1c6.64-1.65,12.13-5.17,16.8-10.08
		c0.41-0.43,0.89-0.78,1.34-1.17c-1.19,2.35-3.21,4.02-5.19,5.56c-5.41,4.22-11.67,6.49-18.46,7.45c-2.33,0.33-4.57,1.31-7,1.06
		C41.83,83,38.93,82.31,36.18,81.01z"/>
	<path class="st10" d="M82.33,59.73c-2.26,1.46-2.82,4.12-4.31,6.11c-0.32-0.14-0.57-0.31-0.36-0.72c2.08-3.88,3.94-7.89,4.45-12.29
		c0.27-2.35,1.59-4.25,2.06-6.48c0.69,4.33-0.2,8.47-1.56,12.55C82.52,59.18,82.42,59.46,82.33,59.73z"/>
	<path class="st11" d="M40.56,16.52c2.93-1.04,6-1.21,9.06-1.42c0.98-0.07,1.99,0.18,3.11-0.22c-0.5-0.69-1.13-0.44-1.65-0.49
		c-3.46-0.32-6.86,0.43-10.29,0.68c7.27-2.06,14.37-1.29,21.35,1.32c0.88,0.33,1.71,0.8,2.57,1.21c0.51,0.41,0.63,0.83-0.18,0.88
		c-0.44,0.03-0.93-0.18-1.38-0.34c-3.2-1.4-6.62-1.89-10.01-2.49c-0.33-0.06-0.72-0.11-1.02,0.17l0,0c-2.64,0.27-5.3,0.27-7.92,0.81
		c-0.8,0.16-1.62,0.39-2.46,0.36C41.27,16.96,40.86,16.89,40.56,16.52z"/>
	<path class="st12" d="M15.36,39.43c0.26,1.48-0.69,2.89-0.15,4.73c0.86-2.66,1.03-5.25,2.34-7.46c0.23,0.24,0.2,0.48,0,0.72
		c-0.59,2.3-1.4,4.53-1.71,6.91c-0.16,1.17-0.5,2.32-0.45,3.53c-0.31,1.2-0.3,2.4,0,3.6c0,0.12,0,0.24,0,0.36
		c-0.48,0.93,0.69,1.91-0.35,3.2c-1.16-3.4-0.99-6.6-0.76-9.82C14.21,43.19,14.66,41.29,15.36,39.43z"/>
	<path class="st13" d="M14.26,45.19c0.17,3.06-0.29,6.18,0.83,9.31c0.7-0.95-0.68-1.94,0.29-2.7c0.58,3.57,1.02,7.16,2.46,10.53
		c0.2,0.47,0.18,1.08-0.44,1.4c-0.3-0.42-0.63-0.83-0.6-1.39c-0.27-1.03-0.55-2.05-1.08-2.98C14.17,54.76,13.29,50.07,14.26,45.19z"
		/>
	<path class="st14" d="M63.26,17.97c0.38,0.07,0.77,0.15,1.15,0.21c0.72,0.11,0.29-0.34,0.29-0.59c3.29,1.45,6.22,3.42,8.64,6.1
		c-0.5,0.69-0.84,0.07-1.15-0.18c-2.74-2.14-5.68-3.92-8.92-5.18c-0.12-0.08-0.17-0.16-0.12-0.24
		C63.18,18.01,63.22,17.97,63.26,17.97z"/>
	<path class="st4" d="M15.71,59.37c0.83,0.82,1.22,1.81,1.08,2.98C16.22,61.44,15.85,60.45,15.71,59.37z"/>
	<path class="st15" d="M51.05,69.75c-3.13-0.2-6.26-0.39-9.25-1.45c-6.96-2.45-11.56-7-13.09-14.43c-0.19-0.93-0.33-1.84-0.43-2.78
		c0.14-2.91,0.9-3.79,4.01-4.64c1.58-0.3,3.17-0.08,4.76-0.18c0.24-0.01,0.4-0.11,0.16-0.08c-0.01,0-0.03-0.11-0.06-0.17
		c-0.53-0.31-0.99-0.68-1.49-1c-3.07-2-4.05-4.82-3.36-8.32c0.66-1.61,1.72-2.74,3.29-3.62c2.87-1.61,5.54-3.57,8.3-5.37
		c2.07-1.35,4.2-1.49,6.39-0.3c1.33,1.08,2.49,2.24,3.09,3.94c0.19,0.55,1.09,0.79,1.8,0.93c3.19,0.61,5.88,2.14,8.43,4.16
		c5.55,4.4,7.21,10.25,6.6,16.95c-0.27,2.98-1.63,5.61-3.35,8.05c-0.33,1.21-1.12,2.1-2.05,2.88c-2.59,2.2-5.48,3.85-8.79,4.7
		c-1.46,0.47-3.02,0.41-4.47,0.9C51.33,69.98,51.17,69.91,51.05,69.75z"/>
	<path class="st16" d="M51.05,69.75l0.09-0.05l0.08,0.07c1.57-0.53,3.27-0.45,4.84-0.99c1.62-1.03,3.63-1.17,5.21-2.36
		c1.99-1.5,4.14-2.81,5.55-4.95c1.91,1.86,4.43,2.46,6.83,3.29c0.84,0.29,1.71,0.49,2.57,0.73c-1.01,2.87-3.11,4.94-5.29,6.86
		c-4.55,4.01-9.77,6.7-15.77,7.96c-7.04,1.48-13.71,0.32-20.3-2.18c-1.33-0.5-2.51-1.42-4-1.48c0.99-1.11,2-0.66,3.06-0.09
		c4.61,2.45,9.57,3.65,14.75,3.63c2.34-0.01,4.75-0.21,6.99-1.17c1.01-0.43,1.14-0.86,0.27-1.62c-1.4-1.23-2.35-2.75-2.8-4.59
		c-0.3-1.21-1.38-1.56-2.43-1.86c-0.61-0.17-1.33,0.05-1.87-0.6C49.5,69.85,50.51,70.58,51.05,69.75z"/>
	<path class="st17" d="M49.23,23.03c0,0.11,0,0.22-0.01,0.34c-0.87,0.6-1.92,0.61-2.9,0.86c-3.55,0.9-6.9,2.28-10.07,4.12
		c-0.54,0.32-1.05,0.86-1.79,0.5c-0.24-1.11,0.73-1.54,1.28-2.19c0.5-0.59,0.73-1.1,0.01-1.66c-0.69-0.54-1.72-0.92-1.5-2.02
		c0.27-1.33,1.01-2.42,2.25-3.1c2.71-1.48,5.59-2.45,8.67-2.73c2.06-0.19,4.12-0.84,6.19-0.01C51.06,19.25,50.61,21.3,49.23,23.03z"
		/>
	<path class="st18" d="M49.23,23.03c0.79-1.9,0.92-4.04,2.15-5.78c-0.12-0.12-0.18-0.26-0.17-0.42c0.09-0.25,0.23-0.42,0.53-0.29
		c4.6,1,9.23,1.91,13.39,4.32c0.94,0.54,1.55,1.07,1.37,2.21c-0.58,0.57-1.21,1.07-2.08,1.08c-0.84,0.44-1.47-0.29-2.17-0.47
		C57.94,22.57,53.57,23.15,49.23,23.03z"/>
	<path class="st19" d="M34.46,28.77c2.32-1.18,4.51-2.63,6.99-3.5c2.53-0.88,5.02-1.91,7.77-1.91c-1.57,1.85-0.45,3.01,1.06,4.07
		c-1.23,0.35-2.29-0.57-3.65-0.3c-2.34,0.47-3.97,1.99-5.78,3.22c-2.31,1.58-4.9,2.76-6.94,4.72c-0.5,0.47-0.87,1.07-1.3,1.61
		c-1.19-0.59-0.37-1.28-0.03-1.84c0.62-1.04,1.44-1.82-0.63-2.32c-1.28-0.31-0.12-1.35,0.01-2.07
		C32.57,29.56,33.33,28.88,34.46,28.77z"/>
	<path class="st20" d="M64.42,24.13c0.56-0.61,1.25-0.99,2.08-1.08c2.64,0.23,3.52,2.42,4.72,4.26c0.09,1.26,0.29,2.63-1.18,3.26
		c-1.42,0.61-2.57-0.17-3.56-1.06C64.89,28.09,63.82,26.42,64.42,24.13z"/>
	<path class="st21" d="M72.48,31.24c0.9,0.08,1.35,0.59,1.36,1.29c0.01,0.81-0.51,1.36-1.35,1.34c-0.72-0.02-1.28-0.49-1.26-1.23
		C71.25,31.84,71.81,31.39,72.48,31.24z"/>
	<path class="st9" d="M77.66,65.13c0.12,0.24,0.24,0.48,0.36,0.72c-0.68,1.21-1.37,2.4-2.52,3.24c0.25-1.37,1.67-2.16,1.8-3.6
		C77.42,65.37,77.54,65.25,77.66,65.13z"/>
	<path class="st22" d="M32.3,30.56c0.13,0.63-0.72,0.94-0.52,1.63c0.59,0.39,1.45-0.54,2,0.52c0.58,1.11-0.46,1.44-0.72,2.13
		c-0.22,0.59-1.21,1-0.45,1.83c-0.71,4.26,1.35,7.01,4.88,8.96c0.2,0.11,0.37,0.29,0.55,0.44c-0.06,0.77-0.66,0.48-1.04,0.5
		c-1.57,0.1-3.14-0.14-4.71,0.14c-2.28,0.6-3.55,2.12-4.01,4.38c-0.6,0.47-0.02,1.28-0.63,1.93c-0.11-2.08,0.52-4.1-1.02-5.85
		c-0.96-1.09-1.68-2.25-3.35-2.24c-0.85,0.01-1.18-0.49-0.74-1.32c0.25-0.48,0.46-0.97,0.4-1.53c0.24-0.6,0.48-1.2,0.72-1.8
		c1.53-3.13,3.52-5.93,6.1-8.28C30.47,31.37,31.13,30.48,32.3,30.56z"/>
	<path class="st23" d="M26.57,70.78c1-0.01,1.7,0.46,1.81,1.4c0.11,0.99-0.61,1.33-1.51,1.32c-0.94-0.01-1.72-0.41-1.82-1.37
		C24.95,71.14,25.76,70.87,26.57,70.78z"/>
	<path class="st24" d="M31.88,74.42c-0.22,0.61-0.57,1.18-1.36,1.15c-0.48-0.02-0.78-0.4-0.72-0.86c0.09-0.7,0.47-1.3,1.23-1.31
		C31.53,73.38,31.88,73.8,31.88,74.42z"/>
	<path class="st25" d="M32.3,30.56c-3.78,2.45-6.06,6.21-8.64,9.72c-0.09-1.23,1.02-1.98,1.25-3.12c0.16-0.8,0.21-1.28-0.57-1.8
		c-2.08-1.4-2.26-2.6-1.01-4.68c1.8-2.99,3.88-5.72,6.73-7.81c0.33-0.24,0.54-0.63,0.8-0.95c0.95-1.72,2.91-1.92,4.36-2.89
		c0.53-0.36,1.19-0.54,1.77-0.84c0.15-0.08,0.31-0.14,0.47-0.2c1.07-0.33,2.13-0.67,3.19-1.05c0.19-0.03,0.38-0.05,0.57-0.06
		c2.23-0.34,4.45-0.82,6.71-0.84c1.18-0.01,2.55-0.51,3.44,0.82c0,0.12,0,0.24,0.01,0.37c-5.07-0.08-9.97,0.56-14.57,2.92
		c-1.21,0.62-1.59,1.74-2.2,2.71c-0.42,0.67,0.27,1.01,0.8,1.33c2.13,1.29,2.12,1.3,0.35,3.09c-0.46,0.46-0.87,0.98-1.3,1.47
		C33.87,29.53,32.79,29.69,32.3,30.56z"/>
	<path class="st26" d="M17.54,37.41c0-0.24,0-0.48,0-0.72c4.35-10.52,11.97-17.3,23.02-20.18c0.37,0.01,0.74,0.01,1.11,0.02
		c0.09,0.93-0.87,0.25-1.09,0.71l0,0c-1.07,0.4-2.24,0.47-3.24,1.08l0,0c-2.41,0.95-4.76,2.03-6.84,3.6
		c-3.34,1.58-5.67,4.29-7.87,7.13c-1.83,2.37-3.41,4.91-4.47,7.74C18.06,37.04,17.75,37.21,17.54,37.41z"/>
	<path class="st27" d="M30.5,21.93c1.89-1.95,4.23-3.04,6.84-3.6c-2.16,1.2-4.32,2.4-6.48,3.6C30.74,21.93,30.62,21.93,30.5,21.93z"
		/>
	<path class="st13" d="M15.38,51.45c-0.55-1.2-0.56-2.4,0-3.6C15.38,49.05,15.38,50.25,15.38,51.45z"/>
	<path class="st27" d="M40.58,17.25c0.36-0.24,0.72-0.47,1.09-0.71c2.23-0.36,4.46-0.78,6.7-1.05c1.24-0.15,2.51-0.12,3.73,0.32
		c-0.12,0.24-0.24,0.48-0.36,0.72c-0.12,0.12-0.24,0.24-0.37,0.35c-2.6-0.59-5.21-0.55-7.8-0.04
		C42.58,17.04,41.61,17.33,40.58,17.25z"/>
	<path class="st27" d="M63.26,17.97c0,0.12,0,0.24,0,0.36c-2.1-0.57-4.21-1.09-6.29-1.71c-1.6-0.48-3.24-0.58-4.87-0.82
		c1.57-0.8,3.1,0.04,4.6,0.22C58.97,16.29,61.25,16.75,63.26,17.97z"/>
	<path class="st28" d="M47.36,65.5c-5.86-0.89-10.67-3.32-13.3-8.98c0.12-0.12,0.27-0.2,0.44-0.2c1.38,0.86,2.3,2.38,3.99,2.81
		c0.62,0.29,1.27,0.52,1.93,0.71c8.09,2.59,16.33-0.19,20.61-6.97c0.64-1.02,1.16-2.08,1.37-3.28c0.03-0.46,0.09-0.91,0.2-1.35
		c0.45-1.25,0.8-2.51,0.39-3.85c-0.15-0.98-0.86-1.73-1.07-2.68c-0.01-0.29,0.07-0.54,0.3-0.73c5.03,4.76,5.74,12.61,0.9,18.35
		c-3.05,3.61-6.95,5.71-11.69,6.18C50.06,65.76,48.71,65.76,47.36,65.5z"/>
	<path class="st29" d="M62.89,49.65c-1.92,6.26-6.34,9.77-12.55,11.12c-3.39,0.73-6.84,0.85-10.13-0.66
		c0.06-0.24,0.79-0.32,0.17-0.73c-1.73-1.14-2.46-3.03-3.49-4.69c-0.5-0.8-0.78-1.73-1.56-2.37c-0.38-0.32-0.18-0.62,0.22-0.82
		c1.75-0.35,3.46-0.43,5.02,0.66c0.37,0.85,0.74,1.69,1.11,2.54c0.02,0.92,0.56,1.55,1.2,2.11c4.55,3.99,12.01,2.89,15.2-2.26
		c1.85-2.98,0.9-7.34-2-9.21c-0.38-0.37-0.76-0.74-1.14-1.1c-1.05-1.21-1.77-2.67-2.97-3.77c-0.25-0.23-0.43-0.59-0.15-0.96
		c3.57,0.39,6.37,2.18,8.53,4.92c1.03,1.3,1.88,2.78,2.01,4.53C62.39,49.29,62.62,49.49,62.89,49.65z"/>
	<path class="st30" d="M51.73,39.57c1.14,1.51,2.89,2.59,3.2,4.66c-1.4-0.58-2.66-1.54-4.28-1.47c-1.08-0.64-1.34,0-1.44,0.91
		c-0.09,0.91,0.23,1.88-0.37,2.73l0.01,0c-0.85,0.54-1.71,0.33-2.57,0.02c-1.79-1.22-3.57-2.44-5.36-3.66
		c-0.39-1.21,0.59-1.16,1.27-1.39c0.46-0.03,0.88,0.12,1.28,0.32c0.85,0.38,1.66,0.57,2.22-0.45c0.5-3.79,1.24-4.18,4.82-2.59
		c0.38,0.17,0.76,0.35,1.05,0.67C51.64,39.41,51.69,39.49,51.73,39.57z"/>
	<path class="st31" d="M56.08,45.34c1.73,0.36,3.06,1.91,3.21,3.78c0.42,5.09-0.73,7.03-4.58,9.22c-4.18,2.38-9.27,1.63-12.33-1.34
		c-0.63-0.61-1.37-1.27-0.71-2.31c3.13,3.98,9.17,4.93,13.25,1.96C58.25,54.24,59.92,49.51,56.08,45.34z"/>
	<path class="st32" d="M43.97,49.94c3.17,1.22,5.87,1.56,8.14-0.99c0.4-0.45,0.95-0.74,1.36-0.17c0.58,0.79,1.27,1.58,0.68,2.74
		c-0.96,1.88-2.52,2.71-4.53,2.94c-2.32,0.27-3.64-1.13-4.83-2.77C44.49,51.29,44.34,50.76,43.97,49.94z"/>
	<path class="st33" d="M42.41,41.71c-0.64,0.14-1.33,0.22-1.47,1.05c-1.12-0.94-2.65-1.29-3.61-2.47c-0.05-0.83,0.08-1.66,0-2.49
		c2.78-1.93,5.55-3.88,8.35-5.77c1.19-0.81,2.46-1.41,3.54,0.22c-0.39,0.72-1.2,0.5-1.78,0.82c-0.54,0.19-0.93,0.62-1.38,0.94
		c-0.93,0.59-1.85,1.21-2.77,1.82c-0.39,0.27-0.8,0.5-1.21,0.73c-0.42,0.23-0.8,0.51-1.2,0.77c-0.25,0.16-0.53,0.26-0.79,0.42
		c-1.23,0.73-1.23,1.01,0.01,1.8c0.65,0.41,1.34,0.76,1.96,1.23C42.33,41.05,42.54,41.32,42.41,41.71z"/>
	<path class="st34" d="M40.56,52.16c-1.78-0.4-3.58-0.39-5.39-0.33c-0.24,0.29-0.6,0.47-0.8,0.8c-0.35,1.3,0.6,2.56,0.08,3.86
		c-0.13,0.01-0.27,0.02-0.4,0.03c-1.1-1.28-1.41-2.8-1.44-4.43c-0.01-0.74,0.32-1.26,0.97-1.55C35.4,49.7,39.25,50.61,40.56,52.16z"
		/>
	<path class="st35" d="M62.2,40.97c0,0.25,0,0.5-0.01,0.75c-0.16,0.09-0.37,0.14-0.51,0.04c-2.17-1.72-4.74-2.74-7.13-4.06
		c0.18-0.7-1.16-0.8-0.65-1.63C57.19,36.82,60.05,38.29,62.2,40.97z"/>
	<path class="st36" d="M53.91,36.06c0.06,0.55,0.53,0.5,0.89,0.69c0.69,0.34,0.34,0.56-0.18,0.66c-0.29,0.3-0.65,0.38-1.05,0.35
		c-0.73-0.15-1.47-0.26-2.21-0.4c-0.56-0.18-1.16-0.14-1.7-0.35c-0.81-0.3-1.35-0.76-0.7-1.69c0.16-0.14,0.33-0.17,0.53-0.09
		C50.88,35.94,52.52,35.33,53.91,36.06z"/>
	<path class="st37" d="M49.48,35.24c-0.09,0-0.18,0-0.27,0.01c-1.99-0.24-2.46-0.79-2.13-2.49c0.64-0.51,1.44-0.3,2.15-0.5
		C49.8,33.21,49.45,34.24,49.48,35.24z"/>
	<path class="st38" d="M48.86,46.41c0.01-1,0-2.01,0.04-3.01c0.02-0.58,0.42-0.99,0.92-1.2c0.49-0.21,0.78,0.05,0.84,0.57
		c-0.97-0.05-1.11,0.52-1.1,1.33C49.56,44.92,49.89,45.89,48.86,46.41z"/>
	<path class="st39" d="M32.29,46.72c1.18-0.64,2.46-0.17,3.69-0.32c0.69-0.09,1.45,0.26,2.06-0.32c0.3-0.04,0.68-0.06,0.72,0.29
		c0.06,0.41-0.34,0.37-0.62,0.37C36.19,46.73,34.24,46.72,32.29,46.72z"/>
	<path class="st40" d="M37.34,37.81c0.97,0.83,0.48,1.66,0,2.49C36.46,39.46,36.37,38.63,37.34,37.81z"/>
	<path class="st3" d="M56.07,68.77c-1.51,0.86-3.19,0.85-4.84,0.99C52.73,68.9,54.47,69.16,56.07,68.77z"/>
	<path class="st41" d="M46.3,46.43c0.86-0.01,1.71-0.01,2.57-0.02C48.02,47.65,47.16,47.12,46.3,46.43z"/>
	<path class="st42" d="M47.36,65.5c1.35,0,2.7,0,4.05,0C50.06,66.1,48.71,66.09,47.36,65.5z"/>
	<path class="st27" d="M37.34,18.33c0.85-1.04,2.08-0.97,3.24-1.08C39.59,17.89,38.5,18.21,37.34,18.33z"/>
	<path class="st43" d="M47.08,32.76c-0.18,1.59,1.24,1.81,2.13,2.49c-0.45,0.82-0.28,1.33,0.71,1.45c0.5,0.06,1.07-0.14,1.47,0.35
		c0.53,0.63,1.38,0.43,2.03,0.78c0.16,0.05,0.32,0.12,0.47,0.2c2.31,1.57,4.84,2.84,6.65,5.09c1.23,1.53,2.1,3.17,2.38,5.11
		c-0.01,0.48-0.02,0.95-0.03,1.43c-0.56,0.3-0.96,0.16-1.03-0.48c-0.56-4.54-3.63-6.9-7.44-8.6c-0.87-0.39-1.78-0.66-2.68-0.99
		c0,0,0,0,0,0c-2.1-0.91-3.86-2.27-5.24-4.1c-0.37-0.5-1.02-0.91-0.54-1.69C46.23,33.33,46.58,32.96,47.08,32.76z"/>
	<path class="st44" d="M53.55,37.45c0.36-0.01,0.71-0.02,1.07-0.03c2.74,1.06,5.34,2.36,7.57,4.31c0.48,0.78,1.11,1.49,1.1,2.48
		c0.12,0.8,0.58,1.94-0.27,2.23c-0.92,0.32-0.97-0.99-1.31-1.6c-1.84-3.34-4.9-5.15-8.18-6.71l0,0
		C53.33,37.9,53.32,37.67,53.55,37.45z"/>
	<path class="st45" d="M34.46,56.49c-0.27-1.43-1.07-2.81-0.36-4.32c0.82-0.47,1.01,0.31,1.33,0.72c1.31,1.68,2.24,3.61,3.55,5.3
		c0.5,0.64,0.69,1.33-0.59,1.2C36.54,59.17,35.58,57.72,34.46,56.49z"/>
	<path class="st46" d="M53.54,38.13c4.48,1.12,7.5,3.93,9.32,8.37c0.58-0.9,0.31-1.63,0.44-2.3c0.63,1.41,0.42,2.74-0.38,4.02
		c-0.2-0.1-0.56-0.19-0.58-0.32c-0.57-4.08-3.55-6.19-6.65-8.21C54.94,39.21,54.25,38.65,53.54,38.13z"/>
	<path class="st47" d="M38.4,59.39c0.47-0.08,0.92-0.29,0.45-0.79c-1.78-1.91-2.78-4.35-4.41-6.34c-0.06-0.07-0.22-0.06-0.34-0.08
		c0.26-0.43,0.68-0.34,1.07-0.34c1.25,0.36,1.44,1.56,2,2.49c1.21,2,2.07,4.28,4.45,5.38c-0.59,0.53-1.03,0.33-1.42,0.41
		C39.51,60.1,38.89,59.91,38.4,59.39z"/>
	<path class="st48" d="M45.96,33.79c1.09,1.84,2.41,3.48,4.23,4.65c0.54,0.35,1.26,0.44,1.54,1.14c-1.26-0.3-2.42-0.89-3.69-1.22
		c-1.4-0.36-1.7,0.16-1.72,1.36c-0.01,0.68,0.27,1.44-0.34,2.02c-0.76-2.15-1.85-4.14-2.9-6.15C43.99,34.9,44.84,34.13,45.96,33.79z
		"/>
	<path class="st49" d="M43.09,35.6c1.69,1.71,2.88,3.65,2.9,6.15c-0.72,1.02-1.6,0.95-2.55,0.36c0.18-0.34,0.95-0.4,0.43-1.08
		c-1.06-1.39-1.28-3.14-1.88-4.72C42.36,36.07,42.72,35.83,43.09,35.6z"/>
	<path class="st50" d="M41.99,36.3c0.75,0.06,0.64,0.69,0.83,1.16c0.59,1.5,0.63,3.31,2.39,4.15c-0.6,0.72-1.24,0.36-1.78,0.49
		c-0.34-0.13-0.68-0.26-1.03-0.4c-0.13-0.22-0.26-0.44-0.4-0.66c-0.93-1.19-1.38-2.52-1.11-4.04C41.13,36.56,41.51,36.36,41.99,36.3
		z"/>
	<path class="st51" d="M40.91,37.01c0.37,1.35,0.74,2.69,1.11,4.04c-0.65,0-1.04-0.52-1.53-0.81c-0.77-0.45-2.08-0.71-1.94-1.71
		C38.68,37.53,39.98,37.34,40.91,37.01z"/>
	<path class="st46" d="M53.55,37.45c0,0.23-0.01,0.46-0.01,0.68c-0.66-0.13-1.33-0.24-1.99-0.39c-0.47-0.11-0.52-0.37-0.17-0.7
		C52.14,37.03,52.89,36.97,53.55,37.45z"/>
</g>
</svg>
