<?xml version="1.0" encoding="utf-8"?>
<!-- Generator: Adobe Illustrator 23.0.2, SVG Export Plug-In . SVG Version: 6.00 Build 0)  -->
<svg version="1.1" id="Camada_1" xmlns="http://www.w3.org/2000/svg" xmlns:xlink="http://www.w3.org/1999/xlink" x="0px" y="0px"
	 viewBox="0 0 97.98 97.19" style="enable-background:new 0 0 97.98 97.19;" xml:space="preserve">
<style type="text/css">
	.st0{fill:#323232;}
	.st1{fill:#FEFEFE;}
	.st2{fill:#43D2FE;}
	.st3{fill:#2CC3EB;}
	.st4{fill:#19AFDD;}
	.st5{fill:#4ACDF2;}
	.st6{fill:#72D9EC;}
	.st7{fill:#14BDF3;}
	.st8{fill:#136B8C;}
	.st9{fill:#66DBF7;}
	.st10{fill:#17B3E9;}
	.st11{fill:#1A92C3;}
	.st12{fill:#60D5F1;}
	.st13{fill:#188DC2;}
	.st14{fill:#13739B;}
	.st15{fill:#17A1DC;}
	.st16{fill:#1578A1;}
	.st17{fill:#B15504;}
	.st18{fill:#31C8F5;}
	.st19{fill:#16BEF0;}
	.st20{fill:#36CCFA;}
	.st21{fill:#18C8FD;}
	.st22{fill:#FCFEFE;}
	.st23{fill:#31D9F8;}
	.st24{fill:#E8FBFA;}
	.st25{fill:#B15505;}
	.st26{fill:#2FC7F4;}
	.st27{fill:#F0FBFB;}
	.st28{fill:#D9F5F8;}
	.st29{fill:#18B4E5;}
	.st30{fill:#1999C9;}
	.st31{fill:#18A4D5;}
	.st32{fill:#FC9002;}
	.st33{fill:#27CDF6;}
	.st34{fill:#FBA315;}
	.st35{fill:#F7AE3B;}
	.st36{fill:#F97001;}
	.st37{fill:#FA7004;}
	.st38{fill:#FC9001;}
	.st39{fill:#FEB12C;}
	.st40{fill:#F5AC3B;}
	.st41{fill:#FD7200;}
	.st42{fill:#FA7002;}
	.st43{fill:#FEBF13;}
	.st44{fill:#FECF45;}
	.st45{fill:#FECA33;}
	.st46{fill:#FEBE10;}
	.st47{fill:#FEC72C;}
	.st48{fill:#FEC930;}
	.st49{fill:#FED350;}
	.st50{fill:#FEC82D;}
</style>
<g>
	<path class="st0" d="M97.98,45.98c0,1.94,0,3.87,0,5.81c-2.25,9.41-4.29,18.85-10.69,26.64c-5.27,6.41-11.46,11.54-19.17,14.62
		c-5.1,2.04-10.46,3.28-15.89,4.13c-2.06,0-4.11,0.01-6.17,0.01c-5.15-0.77-10.21-1.98-15.11-3.71c-7.65-2.7-13.8-7.62-19.02-13.65
		c-3.56-4.11-6.61-8.64-8.18-13.98c-1.01-3.43-2.26-6.81-2.97-10.29c-1.14-5.56-1.15-11.12,0.96-16.57c0.85-2.21,1.1-4.62,1.89-6.89
		c2.38-6.88,6.4-12.68,11.52-17.73c4.15-4.09,8.84-7.62,14.31-9.64C35.92,2.32,42.52,0.1,49.57,0c1.68-0.02,3.35,0.16,4.98,0.62
		c4.48,1.27,9.09,2.07,13.43,3.8c6.61,2.64,12.2,6.76,16.99,12.01c5.52,6.05,9.28,13,10.83,21.08
		C96.34,40.38,97.84,43.01,97.98,45.98z"/>
	<path class="st1" d="M48.35,88.53c-10.28-1.04-20.04-4.47-27.98-12.48c-7.6-7.67-10.42-17.19-11.71-27.46
		c1.48-10.43,4.49-20.14,12.31-27.81C28.9,13,38.82,10.06,49.42,8.64c10.48,1.75,20.36,4.67,28.13,12.64
		c7.62,7.8,10.35,17.49,11.63,27.86C87.03,70.96,73.06,86.85,48.35,88.53z"/>
	<path class="st2" d="M81.42,35.48c1.53,3.2,2.28,6.58,2.49,10.1c0.12,1.75,0.6,3.53-0.71,5.09c-0.34,0.41-0.3,1.02-0.39,1.54
		c-0.63,3.72-1.76,7.29-3.43,10.68c-0.37,0.75-0.78,1.47-1.38,2.07c-0.56,0.54-1.2,0.9-2,0.91c-1.76-0.1-3.42-0.64-5.05-1.23
		c-1.95-0.71-2.33-1.23-2.33-3.32c-0.02-7.62,0-15.24-0.01-22.85c0-0.77,0.1-1.56-0.21-2.31c-1.47-3.79-2.54-4.45-6.63-4.13
		c-1.37,0.11-2.75,0.09-4.13-0.04c-2.42-0.23-4.42,0.32-5.29,2.92c-0.1,0.28-0.29,0.52-0.55,0.69c-0.74-0.49-1.8,0-2.46-0.77
		c-2.62-3.71-1.74-7.62-0.65-11.55c0.18-0.25,0.41-0.45,0.69-0.58c4.15-0.48,8.29-0.45,12.39,0.45c0.88,0.19,1.98,0.37,1.76,1.76
		c0,0.01,0.08,0.03,0.13,0.05c-0.01-0.14,0.05-0.22,0.2-0.27c0.77,0.21,0.63,0.93,0.78,1.45c0.38,1.3,1.04,2.4,2.1,3.24
		c2.11,1.66,3.49,1.14,4.33-1.61c1.23-0.81,2.21-0.02,3.02,0.68c2.44,2.12,5.35,3.8,6.86,6.86C81.02,35.46,81.24,35.49,81.42,35.48z
		"/>
	<path class="st3" d="M29.51,77.69c-3.58-2.29-6.67-5.09-9.07-8.61c-0.96-2.65-1.78-5.33-1.96-8.17c-0.39-6.32,0.57-12.4,3.31-18.14
		c0.25-0.52,0.5-1.12,1.23-1.15c0.58,1.6,0.9,1.3,2.63,3.15c2.46,2.63,5.5,5.02,5.9,8.68c-0.01-5.1-0.04-10.53,0.04-15.96
		c0.01-0.55-0.33-1.69,1.03-1.38c0.41,0.79,0.32,1.64,0.32,2.47c0.01,4.38-0.01,8.76,0.01,13.13c0.01,3.53,0.49,7.04,0.24,10.59
		c-0.19,2.76,1.76,4.54,4.61,4.71c1.97,0.12,3.96,0.02,5.94,0.04c0.83,0.01,1.68-0.08,2.48,0.29c0.42,1.3-0.57,0.9-1.12,0.86
		c-2.09-0.16-4.19-0.02-6.28-0.07c-0.22-0.01-0.46-0.07-0.56,0.03c2.23,0.02,4.55-0.13,6.87,0.09c0.18,0.02,0.37,0.1,0.53,0.05
		c4.14-1.26,5.59,2,7.27,4.54c0.91,1.37,1.48,2.98,2.47,4.35c0.79,1.09,0.55,1.87-0.8,2.31c-2.63,0.86-5.32,1.43-8.12,1.1
		c-4.54-0.54-8.93-1.64-13.07-3.63c-0.62-0.3-1.28-0.74-2.02-0.28C30.57,76.66,30.55,78.15,29.51,77.69z"/>
	<path class="st4" d="M23.03,41.68c-2.06,3.09-2.97,6.6-3.58,10.19c-0.89,5.33-0.98,10.63,1,15.8c0.16,0.41,0.7,0.97-0.03,1.41
		c-2.04-2.75-3.77-5.66-4.63-9.02c0.88-0.36,0.22-0.91,0.11-1.32c-1.27-5-1.69-10.01-0.47-15.09c1.23-4.71,2.77-9.29,5.59-13.34
		c2.24-3.22,4.95-5.99,8.11-8.31c0.52-0.38,1.11-0.74,1.83-0.55c0.52,0.93-0.27,1.28-0.78,1.74c-2.58,2.35-5.01,4.82-6.82,7.84
		c-0.99,1.65-0.86,3.3,0.71,4.42c1.2,0.86,1.07,1.71,0.61,2.78c-0.4,0.94-0.96,1.8-1.21,2.8C23.39,41.29,23.26,41.52,23.03,41.68z"
		/>
	<path class="st5" d="M29.51,77.69c0.74-0.02,0.36-1.53,1.45-1.09c1.03-0.27,1.86,0.31,2.73,0.66c5.66,2.27,11.44,3.87,17.63,3.18
		c9.64-1.07,17.53-5.27,23.41-13.07c0.5-0.67,0.94-1.39,1.59-1.93c0.63,0.05,0.94-0.51,1.44-0.72c0.32,0.28,0.37,0.64,0.33,1.03
		c-1.98,3.93-4.97,7-8.46,9.57c-3.94,2.89-8.25,5.04-13.07,6.07c-5.57,1.22-11.23,0.6-16.85,0.78c-0.19,0.01-0.34-0.07-0.5-0.15
		C35.68,81.23,32.44,79.79,29.51,77.69z"/>
	<path class="st6" d="M56.88,80.92c8.85-2.43,15.95-7.28,20.88-15.12c0.36-0.87,0.85-1.66,1.45-2.39c0.46-0.56,0.97-1.09,1.77-0.49
		c-2.32,5.72-6.28,10.18-11.16,13.76c-7.34,5.4-15.69,7.44-24.75,6.7c-0.28-0.02-0.56-0.18-0.83-0.28c0.43-0.52,1.06-0.57,1.63-0.52
		C49.69,82.96,53.25,81.72,56.88,80.92z"/>
	<path class="st7" d="M81.42,35.48c-0.41,0.56-0.64,0.27-0.9-0.16c-1.79-3.01-4.73-4.81-7.31-7c-0.61-0.52-1.35-0.4-2.01-0.64
		c-0.86-0.1-0.98-0.92-1.37-1.45c-0.73-0.99-1.46-1.97-2.55-2.61c-0.8-0.25-1.56-0.5-1.9-1.44c-0.23-0.65-0.96-0.86-1.55-1.15
		c-3.46-1.72-7.07-2.93-10.92-3.35c-0.59-0.06-1.22-0.03-1.6-0.62c-0.07-0.18-0.1-0.36-0.07-0.55c0.07-0.29,0.24-0.5,0.51-0.63
		c1.21-0.45,2.39-0.07,3.51,0.25c5.93,1.71,11.68,3.83,16.67,7.6c1.62,1.22,3,2.72,4.46,4.12c0.3,0.28,0.49,0.7,1,0.61
		C79.28,30.48,80.39,32.95,81.42,35.48z"/>
	<path class="st8" d="M17.96,32.58c0.8-1.3,1.59-2.59,2.39-3.89c1.9-2.38,4.15-4.42,6.25-6.6c3.85-3.31,8.22-5.61,13.2-6.72
		c3.95-0.88,7.94-1.32,11.99-0.94c0.21,0.05,0.42,0.09,0.64,0.11c0.07,0.08,0.14,0.16,0.22,0.24c0.01,0.23-0.09,0.4-0.3,0.51
		c-2.32,0.6-4.74-0.06-7.07,0.55c-0.91,0.24-1.86,0.38-2.79,0.55c-3.37,1.01-6.72,1.98-9.88,3.66C26,23.56,21.37,28.79,18.13,35.4
		c-0.24,0.48-0.37,1.02-0.76,1.41c-0.82,0.45-1.09,0.23-0.86-0.67C16.83,34.89,17.7,33.86,17.96,32.58z"/>
	<path class="st9" d="M80.98,62.93c-1.07-0.2-1.3,0.76-1.87,1.3c-0.5,0.49-0.64,1.28-1.35,1.57c0-0.36-0.01-0.72-0.01-1.08
		c2.58-4.06,3.93-8.55,4.67-13.25c0.13-0.79,0.17-1.51,1.01-1.94c0.76-0.39,0.38-1.18,0.43-1.79c0.06-0.71,0.04-1.44,0.06-2.16
		c0.87,2.79,0.27,5.58-0.14,8.32C83.31,57.03,82.49,60.1,80.98,62.93z"/>
	<path class="st10" d="M77.39,28.44c-0.46,1.07-0.7,0.02-0.93-0.14c-2.17-1.47-3.78-3.59-5.99-5.06c-4.06-2.7-8.48-4.55-13.09-6.01
		c-1.81-0.57-3.6-1.24-5.55-1.1c0.07-0.94,0.88-0.62,1.38-0.83c3.23,0.16,6.38,0.7,9.31,2.15c0.8,0.56,1.64,1,2.61,1.19
		c0.17,0.04,0.34,0.09,0.49,0.17c2.72,1.45,5.33,3.06,7.6,5.18C74.86,25.25,76.12,26.85,77.39,28.44z"/>
	<path class="st11" d="M15.84,43.48c-1.13,5.84-0.69,11.59,1.18,17.23c-0.85,0.28-0.74-0.62-1.22-0.65c0,0,0.02,0.01,0.02,0.01
		c-0.28-1.24-0.72-2.44-1.07-3.66C13.3,50.83,13.38,45.3,15.1,39.8c1.09,1.32,0.04,2.64-0.14,3.89c-0.2,1.39,0,2.77-0.31,3.72
		c0.09,0.65,0.4,0.36,0.17,0.44c-0.1,0.04-0.16,0.01-0.16-0.08c0.05-1.58,0.03-3.16,0.47-4.7c0.1-0.36,0.21-0.68,0.64-0.74
		C16.12,42.7,16.06,43.09,15.84,43.48z"/>
	<path class="st12" d="M56.88,80.92c-3.43,1.33-6.87,2.59-10.67,2.17c-0.65-0.07-1.31,0.01-1.97,0.02
		c-1.75-0.03-3.43-0.39-5.04-1.08c3.07-1.09,6.23-0.26,9.34-0.3C51.36,81.69,54.08,80.94,56.88,80.92z"/>
	<path class="st13" d="M65.52,19.01C65.4,19,65.28,19,65.16,19c-0.79-0.48-1.69-0.69-2.53-1.07c-3-1.25-6.1-2.04-9.35-2.17
		c-0.21-0.25-0.58-0.13-0.82-0.32c-0.06-0.15-0.03-0.28,0.09-0.39l0,0c1.17-0.49,2.28,0.5,3.29,0.16c-1.04,0.1-2.16-0.28-3.3-0.51
		c-0.11-0.01-0.23-0.02-0.34-0.02c-0.2-0.12-0.21-0.25-0.04-0.41c4.79,0.19,9.22,1.61,13.34,4.03c0.2,0.13,0.43,0.26,0.4,0.54
		C65.88,19.02,65.71,19.08,65.52,19.01z"/>
	<path class="st14" d="M15.83,42.39c-1.02,1.76-0.39,3.87-1.28,5.88c-0.4-2.34-0.01-4.44,0.4-6.52c0.13-0.66,0.21-1.29,0.16-1.95
		c0.57-2.56,1.46-4.99,2.86-7.22c0.18,1.38-0.91,2.34-1.2,3.57c-0.15,0.65-0.07,0.74,0.5,0.49c0.44,1.06-0.21,1.96-0.51,2.88
		C16.45,40.47,16.19,41.45,15.83,42.39z"/>
	<path class="st15" d="M65.52,19.01c0.4-0.24,0.04-0.47-0.01-0.71c3.04,1.27,5.74,3,7.73,5.69C70.66,22.33,68.09,20.67,65.52,19.01z
		"/>
	<path class="st16" d="M52.17,14.27c0.01,0.14,0.02,0.27,0.04,0.41c-4.16-0.16-8.29,0.14-12.41,0.7
		C43.84,14.1,47.95,13.57,52.17,14.27z"/>
	<path class="st14" d="M26.6,22.09c-1.83,2.44-4.04,4.52-6.25,6.6C22.06,26.14,24.07,23.87,26.6,22.09z"/>
	<path class="st4" d="M14.75,56.4c0.64,1.14,1.14,2.32,1.07,3.66C15.17,58.93,14.82,57.71,14.75,56.4z"/>
	<path class="st17" d="M51.53,35.67c1.11-3.55,2.68-4.46,6.38-4.08c1.62,0.16,3.3,0.23,4.96-0.19c2.09-0.53,4.67,1.11,5.42,3.28
		c0.11,0.33,0.06,0.72,0.46,0.89c0.36,0.62,0.18,1.29,0.18,1.93c0.01,8.44,0.01,16.88,0.01,25.32c0,2.85-1.87,5.05-4.75,5.26
		c-2.8,0.21-5.63,0.22-8.43-0.02c-1.9-0.17-3.63-0.83-4.43-2.84c-0.37-0.84-0.41-1.74-0.41-2.64c0.02-5.87-0.07-11.74,0.05-17.61
		c-0.08-2.38-0.06-4.76-0.04-7.14C50.93,37.06,50.85,36.25,51.53,35.67z"/>
	<path class="st18" d="M51.82,65.08c0.92,1.92,2.69,2.38,4.55,2.47c2.21,0.11,4.44-0.08,6.65,0.07c3.33,0.22,5.7-2.15,5.71-5.8
		c0.03-8.75,0.01-17.5,0.01-26.25c0.64,0.59,0.36,1.35,0.36,2.04c0.02,7.98,0.05,15.95-0.02,23.93c-0.01,1.46,0.49,2.14,1.86,2.56
		c1.77,0.54,3.52,1.12,5.36,1.35c-1.05,2.76-3.03,4.84-5.16,6.74c-4.62,4.14-9.96,7-16.08,8.17c-5.28,1.01-10.55,0.94-15.74-0.66
		c-2.85-0.88-5.68-1.82-8.38-3.1c0.49-0.92,1.22-0.85,1.99-0.44c3.24,1.74,6.74,2.7,10.3,3.51c3.88,0.89,7.7,0.56,11.46-0.62
		c0.78-0.25,1.25-0.7,0.41-1.54c-1.13-1.15-1.86-2.53-2.38-4.08c-0.72-2.14-2.65-3.34-4.15-4.87c-0.32-0.32-0.79-0.27-1.2-0.21
		c-3.2,0.44-6.37-0.37-9.57-0.38c2.26,0,4.51,0.02,6.77-0.01c0.63-0.01,1.34,0.24,1.86-0.36c0.08-0.15,0.19-0.27,0.32-0.38
		c1.35-0.57,1.93-2.01,3.11-2.77C50.68,64.16,51.24,64.65,51.82,65.08z"/>
	<path class="st19" d="M49.32,22.98c-0.12,0.12-0.24,0.24-0.36,0.36c-0.61,0.54-1.39,0.64-2.13,0.83c-3.05,0.79-6.06,1.68-8.85,3.18
		c-0.61,0.33-1.24,0.76-2,0.35c-0.16-0.38,0-0.71,0.2-1c0.62-0.86,0.23-1.36-0.5-1.91c-1.73-1.28-1.75-1.75-0.5-3.47
		c0.8-1.1,1.88-1.79,3.11-2.32c3.39-1.47,7-1.87,10.62-2.25c0.75-0.08,1.56-0.15,2.25,0.35C51.23,19.27,50.19,21.1,49.32,22.98z"/>
	<path class="st20" d="M36,27.64c3.7-1.61,7.37-3.35,11.39-4.08c0.52-0.09,1.05-0.15,1.58-0.22c-0.69,2.74-0.79,5.53-0.73,8.34
		c0.01,0.66,0.26,1.16,0.75,1.55c0.63,0.51,0.76,1.18,0.73,1.93c-0.08,0.04-0.15,0.07-0.23,0.11c-1.26-1.48-2.52-2.97-4.5-3.54
		c-3.5-0.52-6.99-0.93-10.32,0.78c-0.37,0.24-0.72,0.52-1.15,0.65c-0.85-0.69-1.18-1.65-1.37-2.68C33.11,29.09,34.34,28.07,36,27.64
		z"/>
	<path class="st21" d="M49.32,22.98c0.11-2.08,1.15-3.86,1.79-5.77c-0.09-0.08-0.13-0.17-0.12-0.26c0.02-0.1,0.04-0.15,0.06-0.15
		c0.15-0.1,0.29-0.07,0.41,0.05c1.04,0.74,2.31,0.4,3.45,0.63c3.25,0.66,6.34,1.7,9.26,3.23c0.78,0.41,1.84,0.5,1.86,1.87
		c0.01,0.76,1.26,0.06,1.62,0.75c-1.18,0.56-2.51,0.74-3.65,1.43c-0.51,0.35-0.23,0.99-0.5,1.64c-0.32-2.51-0.69-2.72-3.29-3.09
		C56.6,22.79,52.96,23.02,49.32,22.98z"/>
	<path class="st22" d="M64.03,24.75c0.75-1.67,2.2-1.54,3.65-1.43c1.68,1.05,2.61,2.7,3.53,4.35c0.09,1.18,0,2.31-1.2,2.92
		c-1.17,0.59-2.28,0.1-3.16-0.59C65.17,28.7,63.88,27.09,64.03,24.75z"/>
	<path class="st23" d="M51.53,35.67c-0.02,3.09-0.03,6.17-0.05,9.26c-0.32,0.83-0.81,1.08-1.31,0.2c-0.51-0.89-0.61-1.91-0.63-2.95
		c-0.05-1.91,0.17-3.82-0.16-5.72c-0.07-0.43-0.07-0.85,0.23-1.21c0,0,0.09-0.09,0.09-0.09C50.38,35.07,51.43,33.68,51.53,35.67z"/>
	<path class="st24" d="M73.79,32.55c-0.21,0.81-0.66,1.42-1.45,1.42c-0.68,0-1.34-0.43-1.3-1.21c0.05-0.83,0.5-1.55,1.46-1.49
		C73.24,31.32,73.61,31.89,73.79,32.55z"/>
	<path class="st25" d="M49.61,35.25c0.03,0.35,0.06,0.69,0.09,1.04c0.42,2.73,0.04,5.49,0.29,8.24c0.55,6.04,0.27,12.1,0.16,18.14
		c-0.38,2.17-1.67,3.72-3.45,4.91l-0.13-0.05c0,0-0.13,0.06-0.13,0.06c-2.69-0.01-5.38-0.09-8.07,0c-3.36,0.11-6.12-1.83-5.68-6.57
		c0.19-2-0.08-4.05-0.13-6.07c-0.16-6.34-0.01-12.68,0.02-19.02c-0.49-1.21,0.19-2.06,0.89-2.9c0.24-0.24,0.48-0.48,0.72-0.72
		c3.63-1.6,7.39-1.28,11.16-0.71C47.55,31.91,48.89,33.23,49.61,35.25z"/>
	<path class="st26" d="M33.48,33.04c-0.3,0.97-0.6,1.93-0.89,2.9c-0.89,0.43-0.53,1.26-0.53,1.91c-0.03,5.27-0.02,10.53-0.02,15.8
		c0,0.58,0,1.16,0,1.79c-0.26-0.07-0.46-0.09-0.46-0.13c-0.27-3.92-3.1-6.43-5.2-9.32c-0.76-1.06-1.66-1.92-3.15-1
		c-0.75,0.46-0.99,0.04-0.76-0.7c0.26-0.85,0.67-1.67,0.57-2.6c0-0.24,0.01-0.47,0.01-0.71c1.96-4.01,4.77-7.35,8.13-10.26
		c0.38-0.2,0.77-0.43,1.22-0.2C32.65,31.4,33.47,32.05,33.48,33.04z"/>
	<path class="st27" d="M26.38,70.77c1.16,0.01,1.91,0.54,1.92,1.54c0.01,0.86-0.74,1.34-1.6,1.27c-0.93-0.08-1.82-0.49-1.83-1.55
		C24.87,71.11,25.67,70.83,26.38,70.77z"/>
	<path class="st28" d="M30.43,75.68c-0.6-0.17-0.93-0.55-0.81-1.16c0.13-0.61,0.52-1.12,1.16-1.16c0.63-0.03,0.94,0.46,0.9,1.06
		C31.64,75.17,31.11,75.53,30.43,75.68z"/>
	<path class="st29" d="M31.32,30.89c-3.05,3.12-5.89,6.42-8.28,10.08c0.49-1.21,0.98-2.43,1.49-3.63c0.23-0.55,0.36-1.22-0.36-1.29
		c-1.09-0.11-0.94-1.02-1.37-1.57c-1.2-1.52-0.48-2.66,0.37-3.99c1.95-3.06,4.39-5.65,7.18-7.93c0.35-0.29,0.6-0.57,0.61-1.03
		c0.01-0.99,0.91-1.1,1.51-1.43c0.66-0.36,1.32-0.71,1.99-1.05c1.26-0.32,2.5-0.69,3.56-1.49c0.81-0.42,1.76-0.35,2.59-0.7
		c1.13-0.08,2.18-0.49,3.28-0.7c0.2-0.06,0.4-0.1,0.6-0.13c1.66-0.09,3.32-0.1,4.98-0.07c0.7,0.01,1.44-0.07,2,0.52
		c0,0.12,0,0.24,0,0.37c-0.12,0-0.23,0-0.35,0c-2.64,0.27-5.3,0.36-7.9,0.9c-4.82,1-9.16,2.99-12.68,6.51
		c-1.57,1.57-1.44,2.46,0.33,3.74C32.28,29.01,32.33,29.39,31.32,30.89z"/>
	<path class="st30" d="M40.68,17.2c-0.8,0.39-1.78,0.15-2.52,0.72c-1.17,0.55-2.4,0.95-3.6,1.44c-1.13,0.84-2.64,1.04-3.6,2.16
		c-5.6,3.24-9.51,8-12.21,13.79c-1.22,2.63-2.06,5.4-2.91,8.17c0-0.36,0-0.73-0.01-1.09c-0.05-2.05,1.12-3.79,1.44-5.75
		c2.28-6.2,6.42-10.94,11.65-14.79c3.95-2.9,8.38-4.78,13.2-5.73c0.55-0.32,1.13-0.14,1.71-0.13c0.18,0.14,0.22,0.3,0.09,0.5l0,0
		C42.84,16.75,41.71,16.74,40.68,17.2z"/>
	<path class="st31" d="M43.92,16.48c0-0.12,0-0.25,0-0.37c0.78-0.99,2.02-0.66,2.97-0.78c1.85-0.24,3.78-0.28,5.66,0.06
		c0.3,0.02,0.58,0.08,0.74,0.37c-0.5,0.06-1.06-0.16-1.44,0.36c-0.12,0.12-0.24,0.24-0.36,0.36C48.95,16.48,46.44,16.48,43.92,16.48
		z"/>
	<path class="st16" d="M52.54,15.39c-2.89,0.11-5.82-0.28-8.63,0.73c-0.6,0-1.2,0.01-1.8,0.01c3.38-1.3,6.92-1.08,10.44-1.08
		C52.56,15.16,52.55,15.27,52.54,15.39z"/>
	<path class="st16" d="M52.55,14.69c1.12-0.08,2.2,0.11,3.33,0.53c-1.21,0.51-2.25-0.17-3.33-0.18
		C52.56,14.92,52.56,14.81,52.55,14.69z"/>
	<path class="st15" d="M62.63,17.93c0.94,0.13,1.93,0.12,2.53,1.07C64.16,19.02,63.36,18.57,62.63,17.93z"/>
	<path class="st32" d="M64.44,36.27c0.53,0.48,0.33,1.11,0.33,1.68c0.01,7.75,0.02,15.51,0.01,23.26c0,0.74,0.24,1.59-0.65,2.07
		c-2.52,0.69-5.07,0.27-7.62,0.26c-1.04-1.16-0.36-2.5-0.37-3.76c0.06-0.2,0.16-0.37,0.29-0.52c0.74-0.31,1.54-0.32,2.32-0.43
		c1.84-0.16,2.18-0.46,2.23-2.24c0.07-2.26,0.04-4.53,0.02-6.79c-0.04-3.27,0.03-6.54,0.38-9.79c0.08-0.76,0.12-1.55-0.13-2.29
		c-0.21-0.41-0.58-0.57-1.02-0.59c-0.35-0.01-0.71,0.02-1.06-0.01c-1.45-0.13-2.45,0.24-2.26,1.98c0.02,0.23-0.1,0.45-0.22,0.66
		c-1.1,0.58-0.9-0.56-1.25-0.95c-0.01-0.42,0.01-0.84-0.04-1.25c-0.19-1.56,0.47-2.16,2.04-2.05c1.48,0.11,2.97,0.05,4.46,0.06
		C62.58,36.45,63.6,36.04,64.44,36.27z"/>
	<path class="st33" d="M49.65,63.2c0.02-8.97,0.04-17.94,0.06-26.91c0.71,1.73,0.24,3.53,0.3,5.3c0.04,1.09,0.19,2.14,0.41,3.19
		c0.22,1.02,0.66,0.49,1.07,0.15c0.02,6.09,0.05,12.18,0.04,18.27c0,0.66,0.03,1.28,0.3,1.89c-0.71-0.12-1.42-0.25-2.12-0.37
		C49.38,64.22,49.46,63.71,49.65,63.2z"/>
	<path class="st34" d="M55.46,38.81c0.43,0.27,0.49,0.91,1.05,1.06c0.6,0.54,0.47,1.29,0.54,1.98c0.06,5.02-0.03,10.05,0.04,15.07
		c0.01,0.82,0.11,1.69-0.55,2.38l-0.03,0.09c-0.36,0.25-0.71,0.24-1.05-0.05C55.45,52.49,55.46,45.65,55.46,38.81z"/>
	<path class="st35" d="M56.18,63.25c2.65,0.01,5.3,0.03,7.96,0.04c-0.27,0.58-0.78,0.66-1.34,0.66c-1.9,0-3.8-0.01-5.69,0
		c-0.58,0-1.06-0.12-1.27-0.74C55.95,63.11,56.07,63.13,56.18,63.25z"/>
	<path class="st36" d="M56.18,63.25L56,63.26c0,0-0.17-0.04-0.17-0.04c-0.76-1.24-0.26-2.59-0.37-3.89c0.35,0.01,0.7,0.03,1.05,0.05
		C56.42,60.67,56.8,62,56.18,63.25z"/>
	<path class="st37" d="M64.44,36.27c-1,0.35-2.14,1.17-2.53-0.7C62.76,35.78,63.9,34.95,64.44,36.27z"/>
	<path class="st3" d="M49.65,63.2c0.02,0.51,0.04,1.01,0.05,1.51c-0.64,1.33-1.52,2.41-3,2.86C47.92,66.28,49.46,65.2,49.65,63.2z"
		/>
	<path class="st10" d="M31.32,30.89c0.56-1.31,0.35-2.15-1.12-2.79c-1.65-0.71-1.75-2.22-0.53-3.67c2.52-3.02,5.97-4.49,9.52-5.82
		c3.86-1.45,7.89-1.72,11.95-1.76c-0.01,0.12-0.01,0.24-0.01,0.35c-4.33-0.01-8.55,0.6-12.59,2.2c-0.78,0.31-1.55,0.63-2.18,1.22
		c-2.08,1.97-2.08,2.54,0.19,4.12c0.88,0.61,1.17,1.14,0.26,1.94c-0.31,0.27-0.53,0.64-0.8,0.96c-1.2,0.96-2.4,1.92-3.6,2.88
		C32.04,30.64,31.68,30.77,31.32,30.89z"/>
	<path class="st26" d="M45.36,31.61c-2.15,0.01-4.31,0.07-6.46,0.03c-1.62-0.04-3.18,0.17-4.71,0.69c1.29-0.89,2.68-1.48,4.29-1.45
		c1.73,0.03,3.46,0.01,5.2,0C44.36,30.88,45.02,30.85,45.36,31.61z"/>
	<path class="st38" d="M45.68,36.29c0,8.87-0.01,17.74-0.01,26.61c-0.56,0.48-1.17,0.8-1.94,0.74c-2.23-0.18-4.51,0.4-6.71-0.36
		c-0.1-0.12-0.19-0.25-0.29-0.37c0.76-0.97,0.33-2.29,0.97-3.3c0.37-0.34,0.84-0.48,1.31-0.63c0.4-0.11,0.81-0.14,1.22-0.16
		c1.72,0.04,2.06-1.06,2.06-2.47c0.01-5.25-0.02-10.49,0.05-15.74c-0.27-1.16,0.75-2.7-1.01-3.43c-1.02,0.01-2.06-0.32-3.03,0.27
		c-0.1,0.16-0.19,0.31-0.27,0.48c-0.14,0.58-0.05,1.18-0.17,1.76c-0.09,0.45-0.17,1.02-0.78,1.01c-0.72-0.02-0.51-0.65-0.54-1.07
		c-0.07-0.99,0.12-1.99-0.12-2.98c0.17-0.86,0.7-1.14,1.56-1.11c1.62,0.06,3.24,0.03,4.86,0.04C43.57,36.67,44.83,35.68,45.68,36.29
		z"/>
	<path class="st39" d="M38.9,59.37c-0.29,0.37-0.71,0.31-1.11,0.33c-0.47,0.26-0.76-0.08-1.09-0.31c-0.29-1.05-0.28-2.12-0.28-3.2
		c0.01-6.52,0.01-13.03,0.02-19.55c0.69,1.16-0.06,2.55,0.55,3.93c0.9-1.05,0-2.36,0.79-3.22c0.58,0.51,0.52,1.2,0.53,1.87
		c-0.12,5.96,0.24,11.93-0.2,17.9c-0.06,0.76,0.15,1.41,0.67,1.97C38.82,59.17,38.86,59.27,38.9,59.37z"/>
	<path class="st40" d="M37.02,63.28c2.88-0.19,5.8,0.43,8.65-0.38c-0.12,0.2-0.2,0.45-0.38,0.58
		C44.24,64.29,38.14,64.13,37.02,63.28z"/>
	<path class="st41" d="M36.7,59.38c0.43-0.12,0.75,0.13,1.09,0.31c-0.05,1.17,0.29,2.47-1.06,3.22
		C36.72,61.74,36.71,60.56,36.7,59.38z"/>
	<path class="st42" d="M45.68,36.29c-0.99-0.06-2.4,1.51-2.83-0.72C43.81,35.73,45,35.02,45.68,36.29z"/>
	<path class="st31" d="M34.56,19.36c1.08-0.79,2.28-1.25,3.6-1.44C37.13,18.83,35.89,19.21,34.56,19.36z"/>
	<path class="st31" d="M40.68,17.2c0.96-0.79,2.1-0.73,3.24-0.72C42.88,16.93,41.81,17.21,40.68,17.2z"/>
	<path class="st43" d="M56.54,41.7c-0.01-0.61-0.03-1.22-0.04-1.83c0-0.24,0.01-0.47,0.01-0.71c0.02-2.51,0.02-2.51,2.56-2.52
		c0.47,0,0.94,0.01,1.41,0.01c-0.01,1.33,0.44,2.59,0.52,4c0.33-1.27-0.33-2.59,0.59-3.67c0.68,1.36,0.43,2.84,0.27,4.2
		c-0.57,5-0.17,10-0.28,15c-0.07,3.12-0.05,3.16-3.26,3.14c-0.09-0.32,0.08-0.55,0.27-0.78c0.33-0.42,0.25-0.87,0.14-1.36
		c-0.71-3.21-1.02-6.47-0.89-9.76c0.09-2.22-0.17-4.4-0.5-6.58c-0.1-0.39-0.09-0.79-0.09-1.16C56.99,40.32,57.81,41.37,56.54,41.7z"
		/>
	<path class="st44" d="M58.68,58.96c-0.12,0.12-0.24,0.24-0.36,0.35c-0.6,0.06-1.2,0.5-1.78-0.03c0-5.86,0.01-11.73,0.01-17.59
		c0.76-1.14,0.01-2.48,0.53-3.77c0.92,0.79,0.37,1.81,0.53,2.67c0.43,2.53,0.34,5.08,0.36,7.63c0.01,3.21-0.14,6.43,0.88,9.54
		C58.96,58.17,58.97,58.6,58.68,58.96z"/>
	<path class="st45" d="M61.59,36.98c-0.13,1.61,0.14,3.25-0.23,4.98c-1.08-1.27-1.54-4.39-0.89-5.31
		C60.88,36.64,61.3,36.59,61.59,36.98z"/>
	<path class="st46" d="M42.82,40.25c0.01,5.43,0.01,10.85,0.02,16.28c0,2.65-0.16,2.81-2.88,2.79c0-0.83-0.05-1.64-0.24-2.45
		c-0.84-3.53-0.52-7.13-0.67-10.7c-0.13-3.07-0.25-6.17-1.24-9.15c1.14-0.74,2.4-0.21,3.59-0.36c-0.18,1.64,0.93,3.08,0.66,5.03
		C42.2,40.91,42,40.27,42.82,40.25z"/>
	<path class="st47" d="M37.81,37.01c1.06,0.3,0.94,1.25,1.06,2.02c0.7,4.42,0.76,8.87,0.78,13.34c0.01,1.76,0.39,3.54,0.81,5.26
		c0.19,0.79,0.04,1.23-0.5,1.68c-0.35,0.02-0.71,0.04-1.06,0.06c0,0-0.02-0.07-0.02-0.07c-0.56-1.97-0.69-4-0.71-6.03
		c-0.04-4.01,0-8.01-0.02-12.02c0-0.7,0.18-1.45-0.34-2.07c-0.01-0.61-0.02-1.23-0.04-1.84C37.78,37.23,37.79,37.12,37.81,37.01z"/>
	<path class="st48" d="M42.82,40.25c-0.71,0.73-0.07,1.73-0.48,2.53c-0.53,0.06-0.58-0.37-0.55-0.67c0.11-1.4-0.28-2.7-0.8-3.95
		c-0.29-0.69-0.08-1.1,0.41-1.5c1.09-0.11,1.5,0.43,1.45,1.47C42.81,38.83,42.82,39.54,42.82,40.25z"/>
	<path class="st49" d="M37.81,39.18c1.02,0.17,0.69,0.98,0.69,1.57c0.03,3.76,0.01,7.53,0.02,11.29c0,2.13,0.03,4.26,0.89,6.26
		c0.25,0.58-0.37,0.66-0.54,1c-1.3,0.14-1.55-0.65-1.43-1.68C38.18,51.49,37.6,45.33,37.81,39.18z"/>
	<path class="st50" d="M58.68,58.96c-1.68-3.9-0.95-8.02-1.07-12.06c-0.06-2.1-0.01-4.2-0.01-6.3c0.56,1.26,0.67,2.63,0.68,3.95
		c0.05,4.5-0.11,9.01,1.18,13.4C59.69,58.72,59.31,58.91,58.68,58.96z"/>
</g>
</svg>
