<?xml version="1.0" encoding="utf-8"?>
<!-- Generator: Adobe Illustrator 23.0.2, SVG Export Plug-In . SVG Version: 6.00 Build 0)  -->
<svg version="1.1" id="Camada_1" xmlns="http://www.w3.org/2000/svg" xmlns:xlink="http://www.w3.org/1999/xlink" x="0px" y="0px"
	 viewBox="0 0 73.3 71.18" style="enable-background:new 0 0 73.3 71.18;" xml:space="preserve">
<style type="text/css">
	.st0{fill:#323232;}
	.st1{fill:#9A4A01;}
	.st2{fill:#55391A;}
	.st3{fill:#3A2611;}
	.st4{fill:#3A2711;}
</style>
<g>
	<path class="st0" d="M0,32.8c0-0.72,0-1.44,0-2.16c0.42-1.09,0.22-2.24,0.3-3.35c0.26-3.75,2.5-6.25,5.09-8.52
		c3.05-2.68,6.92-3.51,10.74-4.21c1.89-0.35,3.19-1.06,4-2.81c0.68-1.47,1.58-2.82,2.5-4.16c4.25-6.21,10.2-8.58,17.44-7.2
		c3.15,0.6,6.1,2.16,8.33,4.68c1.8,2.04,3.26,4.3,4.43,6.75c0.76,1.59,1.84,2.49,3.67,2.71c2.44,0.29,4.84,0.98,7.12,1.86
		c3.63,1.38,6.13,4.1,7.88,7.52c1.81,3.56,2.25,7.33,1.35,11.16c-0.59,2.51-1.99,4.74-3.54,6.8c-1.26,1.67-2.34,3.5-4,4.84
		c-0.47,0.38-0.62,0.85-0.57,1.42c0.1,1.13,0.09,2.27,0.25,3.4c0.6,4.09,0.24,8.17-1.86,11.69c-2.9,4.86-7.16,7.94-13.19,7.96
		c-3.53,0.01-6.92-0.39-10.03-2.2c-2.18-1.26-4.26-1.38-6.55-0.06c-3.12,1.8-6.59,2.42-10.2,2.24c-5.88-0.29-10.85-2.31-13.6-7.81
		c-1.74-3.48-2.92-7.24-2.02-11.29c0.13-0.58,0.14-1.19,0.31-1.77c0.65-2.17,0.25-3.81-1.75-5.26C3.84,43.39,2.43,40.91,1,38.55
		c-0.83-1.36-0.61-3.02-0.82-4.54C0.13,33.6,0.31,33.17,0,32.8z"/>
	<path class="st1" d="M48.72,62.29c-0.76-0.27-1.75-0.52-2.65-0.95c-2.7-1.27-5.54-2.25-8.08-3.83c-1.09-0.67-2.05-0.57-3.17,0.06
		c-3.13,1.75-6.38,3.26-9.75,4.5c-2.86,1.06-7.52-2.07-8.1-5.37c-0.52-2.96,0.2-5.8,0.74-8.67c0.23-1.22,0.46-2.45,0.65-3.68
		c0.12-0.77-0.55-1.14-0.97-1.63c-2.06-2.42-4.71-4.22-6.69-6.74c-3.92-5.01-0.5-10.82,4.65-11.75c2.7-0.49,5.4-0.99,8.1-1.49
		c0.98-0.18,1.72-0.59,2.24-1.56c1.57-2.89,3.22-5.73,4.89-8.57c1.27-2.15,3.62-3.27,5.68-3.29c2.13-0.01,4.6,0.92,5.95,3.13
		c1.41,2.3,3.08,4.5,4.06,6.97c1.23,3.09,3.68,3.51,6.36,3.97c2.23,0.38,4.47,0.65,6.63,1.39c3.18,1.09,4.71,3.95,4.52,6.44
		c-0.13,1.73-0.95,3.71-2.41,5.17c-2.16,2.15-4.17,4.45-6.26,6.66c-0.54,0.57-0.87,1.08-0.4,1.89c0.7,1.19,0.23,2.57,0.48,3.87
		c0.42,2.15,0.67,4.39,0.59,6.57C55.65,59.6,52.08,61.75,48.72,62.29z"/>
	<path class="st2" d="M60.87,30.61c0.26,1.4-0.24,2.54-1.2,3.54c-2.11,2.21-4.14,4.5-6.32,6.64c-1.28,1.26-1.69,2.55-1.35,4.35
		c0.56,2.99,0.91,6.03,1.22,9.06c0.33,3.25-2.46,5.61-5.55,4.48c-3.2-1.16-6.26-2.71-9.31-4.23c-1.31-0.65-2.36-0.68-3.68,0
		c-2.82,1.44-5.75,2.69-8.62,4.02c-1.5,0.69-2.97,0.83-4.42-0.13c-0.19-3.06,0.67-6,0.96-9.01c0.17-1.8,0.02-3.32-1.7-4.3
		c0.6-1.75-0.1-2.95-1.39-4.18c-2.05-1.97-3.89-4.16-5.81-6.26c0.45-2.51,2.01-4.04,4.83-4.57c2.76-0.52,5.5-1.1,8.27-1.57
		c1.64-0.28,2.64-1.13,3.4-2.55c1.26-2.37,2.52-4.75,3.89-7.06c0.37-0.62,0.74-1.23,1.23-1.76c1.73-1.83,3.64-2.12,5.75-0.86
		c1.25,2.16,2.59,4.28,3.71,6.51c0.64,1.26,1.41,2.16,2.79,2.46c0.39,1.88,1.45,2.93,3.43,3.28c2.51,0.45,5.02,0.9,7.52,1.42
		C59.34,30.06,60.11,30.31,60.87,30.61z"/>
	<path class="st3" d="M41.06,16.22c-1.15,0.5-2.2-0.65-3.56,0.06c-2.14,1.12-2.87,3.13-3.96,4.93c-1.28,2.09-2.4,4.27-3.58,6.42
		c-0.4,0.73-0.97,1.1-1.83,1.25c-3.18,0.55-6.34,1.19-9.5,1.79c-1.87,0.36-3.36,1.23-4.12,3.07c-0.17,0.4-0.32,0.78-0.81,0.85
		c-1.16-1.09-2.2-2.39-1.81-4c0.51-2.09,1.79-3.43,4.23-3.71c3.13-0.36,6.21-1.21,9.33-1.78c1.08-0.2,1.8-0.66,2.34-1.67
		c1.53-2.91,3.22-5.73,4.75-8.65c0.79-1.5,2.16-2.54,3.52-2.82c1.4-0.29,2.87,0.8,3.83,2.06C40.38,14.68,40.68,15.48,41.06,16.22z"
		/>
	<path class="st3" d="M60.87,30.61c-0.85,0.72-1.75,0.08-2.56-0.05c-3-0.47-5.96-1.13-8.94-1.74c-0.87-0.18-2.7-2.51-2.58-3.34
		c0.02-0.13,0.5-0.2,0.77-0.29c3.47,0.64,6.95,1.18,10.39,1.96C59.64,27.53,60.69,28.79,60.87,30.61z"/>
	<path class="st4" d="M20.9,45.03c1.08-0.58,2.48,0.55,2.48,2.18c-0.01,2.72-0.34,5.43-0.96,8.08c-0.24,1.01,0.55,2.32-0.77,3.05
		c-1.52-0.89-2.04-2.28-1.86-3.94C20.12,51.27,20.52,48.16,20.9,45.03z"/>
</g>
</svg>
