<?xml version="1.0" encoding="utf-8"?>
<!-- Generator: Adobe Illustrator 23.0.2, SVG Export Plug-In . SVG Version: 6.00 Build 0)  -->
<svg version="1.1" id="Camada_1" xmlns="http://www.w3.org/2000/svg" xmlns:xlink="http://www.w3.org/1999/xlink" x="0px" y="0px"
	 viewBox="0 0 97.34 96.92" style="enable-background:new 0 0 97.34 96.92;" xml:space="preserve">
<style type="text/css">
	.st0{fill:#323232;}
	.st1{fill:#FEFEFE;}
	.st2{fill:#BF8E5B;}
	.st3{fill:#92625C;}
	.st4{fill:#9D6C5D;}
	.st5{fill:#875761;}
	.st6{fill:#A67151;}
	.st7{fill:#AD9BA5;}
	.st8{fill:#2FAFDE;}
	.st9{fill:#11659C;}
	.st10{fill:#531C4A;}
	.st11{fill:#2B96C9;}
	.st12{fill:#83DFEC;}
	.st13{fill:#783D4E;}
	.st14{fill:#2EA1D7;}
	.st15{fill:#57D6F4;}
	.st16{fill:#2083BC;}
	.st17{fill:#4D1740;}
	.st18{fill:#3CD3F8;}
	.st19{fill:#492052;}
	.st20{fill:#2B9AD0;}
	.st21{fill:#FDAF5B;}
	.st22{fill:#FEA951;}
	.st23{fill:#FDC16D;}
	.st24{fill:#F28557;}
	.st25{fill:#FDBB64;}
	.st26{fill:#F48F73;}
	.st27{fill:#B2825B;}
	.st28{fill:#2CC9FD;}
	.st29{fill:#2CC6F8;}
	.st30{fill:#A9785D;}
	.st31{fill:#AD7E5D;}
	.st32{fill:#4CD3F5;}
	.st33{fill:#A4626E;}
	.st34{fill:#55D9FA;}
	.st35{fill:#70DDF6;}
	.st36{fill:#FEA444;}
	.st37{fill:#FEA545;}
	.st38{fill:#8D5A55;}
	.st39{fill:#2DC0F3;}
	.st40{fill:#3ECAF1;}
	.st41{fill:#70344C;}
	.st42{fill:#BF5F3E;}
	.st43{fill:#CA6836;}
	.st44{fill:#5E244D;}
	.st45{fill:#491649;}
	.st46{fill:#60E0F2;}
	.st47{fill:#FDA03A;}
	.st48{fill:#FB9325;}
	.st49{fill:#9D6E5D;}
	.st50{fill:#FDB15A;}
	.st51{fill:#54D4FA;}
	.st52{fill:#A77555;}
	.st53{fill:#955369;}
	.st54{fill:#8F6077;}
	.st55{fill:#853E5C;}
	.st56{fill:#D06F34;}
	.st57{fill:#986754;}
	.st58{fill:#874F4B;}
	.st59{fill:#B85842;}
	.st60{fill:#D77838;}
	.st61{fill:#865252;}
	.st62{fill:#71374C;}
	.st63{fill:#90615E;}
	.st64{fill:#DC8647;}
	.st65{fill:#DE803B;}
	.st66{fill:#AA7859;}
	.st67{fill:#E67F55;}
	.st68{fill:#FBA84E;}
	.st69{fill:#864663;}
	.st70{fill:#47D0F6;}
</style>
<g>
	<path class="st0" d="M97.34,44.18c0,2.88,0,5.77,0,8.65c-1.41,6.71-3.75,13.17-5.53,19.78c-0.28,1.04-0.95,2.08-1.84,2.61
		c-2.24,1.34-3.6,3.48-5.22,5.36c-4.35,5.02-9.6,8.95-15.59,11.53c-7.72,3.34-15.93,5.68-24.41,4.51
		c-6.93-0.95-13.83-2.59-20.04-6.27c-5.67-3.37-10.74-7.45-14.77-12.62C6.07,72.75,3.7,67.01,1.76,60.96
		c-1.91-5.95-1.83-11.85-1.71-17.88c0.06-2.77,1.42-5.15,2.01-7.76c1.69-7.47,5.55-13.76,10.66-19.37
		c4.17-4.57,8.93-8.44,14.53-10.99c7.56-3.45,15.49-5.3,23.96-4.91c6.48,0.3,12.5,2.14,18.26,4.68c5.03,2.23,9.9,4.87,13.55,9.43
		c2.61,3.27,5.42,6.36,7.72,9.88c2.44,3.73,3.62,7.9,4.58,12.14C95.93,38.87,97.04,41.42,97.34,44.18z"/>
	<path class="st1" d="M81.42,70.77c-1.27,0.85-1.85,2.28-2.81,3.4c-5.29,6.12-11.87,10.07-19.62,12.24
		c-4.42,1.24-8.95,1.84-13.46,1.36c-6.89-0.73-13.43-2.79-19.2-6.82c-5.77-4.03-10.53-8.97-13.61-15.38
		c-2.05-4.27-3.21-8.78-3.67-13.51c-1.02-10.58,1.89-19.98,8.44-28.24c5.52-6.97,12.67-11.52,21.3-13.72
		c3.18-0.81,6.44-1.43,9.69-1.36c7.05,0.16,13.77,1.83,19.99,5.28c-0.41,1.1-1.38,0.72-2.14,0.76c-2.01,0.11-4.08-0.29-5.95,0.82
		c-0.71,0.21-1.4-0.11-2.1-0.09c-1.73-0.42-3.52-0.59-5.22-1.17c-2.9-0.48-5.8-0.26-8.7-0.11c-5.04,0.89-9.87,2.28-14.25,5.08
		c-6.5,4.16-11.27,9.71-13.99,16.97c-2.17,5.9-2.8,11.94-1.7,18.15c0.65,3.84,1.85,7.48,3.87,10.83c0.41,0.79,0.87,1.57,0.9,2.5
		c0.04,0.74-0.61,1.64,0.5,2.12c1.35,0.81,2.93,1.28,4,2.54c2.04,2.16,4.36,3.96,6.91,5.48c3.77,2.4,7.94,3.69,12.3,4.45
		c2.09,2.18,4.38,2.03,6.8,0.61c0.35-0.21,0.79-0.26,1.2-0.3c8.04-0.39,15.03-3.25,20.91-8.79c2.85-1.92,6.07-2.95,9.32-3.93
		C81.53,70.1,81.77,70.33,81.42,70.77z"/>
	<path class="st2" d="M70.66,15.37c2.79,1.09,4.69,3.22,6.44,5.52c0.6,0.65,1.13,1.34,1.21,2.27c0.93,2.97,1.08,6.05,1.32,9.12
		c0.1,3.28,0.12,6.57,0.51,9.83c0,0.48,0.01,0.96-0.02,1.43c-0.05,0.66-0.09,1.37-0.89,1.58c-0.86,0.22-1.33-0.31-1.7-0.98
		c-0.13-0.24-0.21-0.5-0.31-0.8c0.13,2.89,0.04,5.68,0.07,8.48c-0.14,0.96,0.26,2.02-0.54,2.86c-1.01-0.32-0.83-1.19-0.84-1.92
		c-0.03-1.73,0.01-3.45-0.03-5.18c-0.09-1.17,0.06-2.34,0.02-3.51c0.04-1.9-0.1-3.82,0.13-5.72c0.11-0.93-0.23-1.11-1.11-1.01
		c-1.73,0.19-3.36,0.81-5.06,1.13c-0.87,0.16-1.74,0.48-2.65,0.25c-1.22-0.64-2.29-1.51-3.48-2.18c0.21-0.76,0.9-0.69,1.45-0.81
		c1.64-0.36,3.29-0.62,4.94-0.94c0.46-0.09,1.01-0.18,1.08-0.78c0.07-0.61-0.3-1.01-0.82-1.27c-0.38-0.19-0.78-0.31-1.19-0.39
		c-2.66-0.47-5.2-1.37-7.79-2.12c-1.77-0.51-3.58-0.15-5.34-0.45c-0.17-0.05-0.33-0.13-0.47-0.24c-0.21-0.95,0.55-0.86,1.06-0.91
		c0.93-0.1,1.88-0.06,2.9-0.02c-0.73-0.56-1.87-0.28-2.3-1.26c0.96-0.61,1.52-1.6,2.31-2.38c0.6,0,1.15-0.56,1.79-0.21
		c0.41,0.62-0.21,1.17-0.11,1.77c1.16,1.02,2.77,0.83,4.06,1.48c1.18,0.42,2.35,0.85,3.56,1.17c1.54,0.4,2.01-0.06,1.52-1.61
		c-0.55-1.73-1.39-3.29-2.98-4.32c-0.13-0.1-0.25-0.21-0.36-0.32c-2.25-0.66-2.83-0.49-4.3,1.31c-0.1,0.14-0.22,0.27-0.35,0.38
		c-0.39,0.28-0.78,0.42-1.19,0.05c0.1-1.98,1.53-2.92,2.98-3.85c0.24-0.01-0.13-0.19-0.1,0.05c0.01,0.07-0.05,0.06-0.16,0.06
		c-0.28,0.02-0.45-0.09-0.54-0.35c1.58-1.1,4.48-0.86,6.3,0.59c1.23,0.98,2.32,2.1,2.96,3.57c1.04,2.41,2.3,4.76,2.12,7.52
		c-0.03,0.5-0.07,1.2,0.69,1.23c0.72,0.03,1.01-0.54,1.14-1.17c0.05-0.24,0.09-0.48,0.05-0.71c-0.77-3.93-1.52-7.83-4.38-10.99
		c-2.45-2.7-8.73-3.79-11.72-1.15c-0.4,0.36-0.88,0.63-1.42,0.74c-1.37,0.03-1.74,1.25-2.45,2.07c-0.59,0.68-1.2,1.2-1.51-0.22
		c0.21-2,1.3-3.49,2.81-4.72C61.7,13.61,66.14,14.26,70.66,15.37z"/>
	<path class="st1" d="M78.55,22.23c2.88,3.37,5.49,6.93,6.96,11.14c2.1,6,3.34,12.18,2.72,18.56c-0.44,4.57-1.74,8.97-3.53,13.21
		c-0.46,0.5-0.87,0.37-1.12-0.17c-0.8-1.67-1.76-3.28-1.87-5.2c1.07-4.4,2.09-8.81,1.76-13.4c-0.05-0.65,0.04-1.31-0.17-1.95
		c-0.45-4.45-2.07-8.53-3.84-12.57c-0.08-0.18-0.13-0.36-0.15-0.56c-0.05-2.81-0.56-5.55-1.28-8.25
		C78.07,22.68,77.9,22.19,78.55,22.23z"/>
	<path class="st3" d="M81.42,70.77c-0.02-0.29,0.1-0.64-0.35-0.72c-3.24,0.62-6.11,2.21-9.08,3.53c-1.47,0.65-2.92,1.32-4.55,1.46
		c-0.97-0.47-0.74-1.1-0.18-1.7c0.66-0.7,1.48-1.2,2.35-1.6c0.71-0.33,1.36-0.73,1.74-1.46c1.82-1.26,4.06-1.56,5.98-2.6
		c3.01-1.36,3-1.36,1.49-4.41c-0.31-0.63-0.67-1.25-0.91-1.92c-0.12-0.42-0.15-0.85-0.09-1.28c0.19-0.71,0.5-1.16,1.15-0.38
		c0.49,0.6,0.8,1.32,1.09,2.02c0.52,1.26,1.02,2.52,1.96,3.55c0.42,0.45,0.65,1.06,0.49,1.65c-0.34,1.18,0.41,1.05,1.11,1.02
		c-0.06,0.28-0.14,0.81-0.17,0.8C81.91,68.57,82.33,70.35,81.42,70.77z"/>
	<path class="st4" d="M83.61,67.94c-0.39,0.23-0.57,0.75-1.15,0.73c-0.8-0.04-1.18-0.22-0.58-1.02c0.39-0.52,0.51-1.28,0.11-1.66
		c-1.73-1.68-2.12-4.06-3.3-6.03c-0.36-0.59-0.45-0.31-0.53,0.13c-0.4,0.04-0.75-0.14-0.87-0.48c-0.58-1.6-1.23-3.21-0.56-4.96
		c0.01-0.96,0.02-1.93,0.03-2.89c1.41,0.34,1.21,1.71,1.64,2.65c0.47,1.03,1,1.12,1.83,0.52c1.1,1.13,0.88,2.67,1.16,4.02
		c0.54,2.64,1.94,4.97,2.55,7.57C84.03,67.03,83.89,67.5,83.61,67.94z"/>
	<path class="st5" d="M83.95,66.51c-1.31-1.78-1.83-3.89-2.49-5.93c-0.59-1.83-0.98-3.73-1.46-5.6c-0.36-0.31-0.45-0.74-0.49-1.19
		c0.21-1.2-0.6-2.62,0.78-3.56c0.86,0.81,0.54,1.88,0.59,2.84c0.04,0.66,0.26,1.27,0.3,1.92c0.09,1.68,1.06,3.21,0.86,4.95
		c0.62,1.59,1.26,3.18,1.86,4.78c0.16,0.42,0.4,0.54,0.8,0.42C84.75,65.76,84.1,66,83.95,66.51z"/>
	<path class="st6" d="M70.66,15.37c-2.12-0.27-4.26-0.29-6.39-0.4c-2.16-0.11-3.81,0.64-5.25,2.13c-0.33,0.34-0.63,0.74-1.15,0.79
		c-0.22-0.69,0.24-1.11,0.63-1.56c0.4-0.57,1.09-0.66,1.65-0.96c1.36-1.23,3.04-1.09,4.7-1.15c1.21-0.04,2.46,0.37,3.65-0.21
		C69.33,14.27,70,14.8,70.66,15.37z"/>
	<path class="st7" d="M78.55,22.23c-0.37,0.12-0.31,0.45-0.35,0.73c-0.16,0.15-0.27,0.11-0.34-0.09c-0.25-0.66-0.51-1.32-0.76-1.97
		C77.83,21.07,78.23,21.6,78.55,22.23z"/>
	<path class="st8" d="M18.99,67.59c-0.34-0.71-0.69-1.41-1.03-2.12c0.22-2.17-1.31-3.78-1.83-5.73c-0.96-3.59-1.67-7.11-1.18-10.9
		c0.47-3.6,0.63-7.22,1.81-10.7c0.44-1.31,1.23-2.46,1.57-3.79c1.77-4.67,5.11-8.13,8.79-11.32c0.47-0.41,1.03-0.87,1.78-0.51
		c0.24,1.16-0.66,1.88-1.14,2.71c-1.05,1.82-2.1,3.62-2.34,5.76c-0.18,1.63-1.25,2.78-2.14,4.02c-0.17,0.5-0.48,0.93-0.65,1.44
		c-0.13,0.84-0.12,1.68-0.07,2.52c0.12,2.14-0.34,4.11-1.17,6.1c-1.32,3.16-1.94,6.49-2.12,9.96c-0.18,3.54-0.08,7.04,0.3,10.54
		c0.11,0.77,0.19,1.54-0.3,2.23c-0.14,0.2,0.04-0.02-0.16,0.06C18.73,67.98,19.08,67.66,18.99,67.59z"/>
	<path class="st9" d="M15.88,35.78c5.22-12.58,14.65-19.77,28.05-21.85c2.62-0.36,5.25-0.07,7.87-0.17
		c0.94,0.29,0.82,0.74,0.11,1.13c-0.59,0.33-1.28,0.23-1.94,0.23c-8.4-0.01-16.07,2.22-22.65,7.55c-3.32,2.69-6.18,5.82-8.16,9.66
		c-0.44,0.85-0.96,1.65-1.35,2.52c-0.07,0.17-0.15,0.32-0.24,0.48c-0.64,1.03-1.11,2.13-1.3,3.34c-0.09,0.28-0.22,0.52-0.52,0.62
		c-0.99-0.08-0.77-0.72-0.58-1.3C15.41,37.26,15.67,36.53,15.88,35.78z"/>
	<path class="st10" d="M18.99,67.59c0.06-0.72,0.11-1.44,0.17-2.16c0.19-5.26,1.44-10.33,2.73-15.4c0.87-0.34,0.81,0.41,0.91,0.84
		c0.17,0.69,0.05,1.41-0.03,2.11c-0.07,0.62-0.08,1.21,0.74,1.34c0.99,0.16,1.13,0.89,1.17,1.7c0.02,1.05-0.35,2.05-0.47,3.08
		c-0.58,2.01-0.86,4.1-1.47,6.11c-0.47,1.54-0.71,2.98,0.91,4.02c0.03,0.17,0,0.34-0.06,0.5c-1.5,0.37-1.9,0.19-3.32-1.51
		c-0.33,0.59,0.16,1.16,0.05,1.74c-0.24,0.39-0.58,0.31-0.92,0.18C17.44,69.59,18.86,68.49,18.99,67.59z"/>
	<path class="st11" d="M17.36,35.18c0.78-2.46,2.13-4.64,3.66-6.65c4.12-5.38,9.27-9.43,15.73-11.68c4.44-1.55,9-2.29,13.71-2.21
		c0.59,0.01,1.51,0.51,1.73-0.64c0.4-0.36,0.84-0.25,1.28-0.09c1.63,0.36,3.27,0.72,4.9,1.07c0.94,0.42,1.02,0.84,0.02,1.29
		c-0.18,0.04-0.36,0.05-0.54,0.02c-1.28-0.5-2.64-0.42-3.97-0.54c-0.19-0.02-0.37-0.07-0.55-0.12c-2.85-0.12-5.66-0.23-8.52,0.4
		c-2.08,0.45-4.23,0.57-6.24,1.37c-0.72,0.29-1.49,0.46-2.09,0.98c-1.66,1.01-3.7,1.15-5.27,2.42c-0.76,0.61-1.29,1.57-2.37,1.77
		c-2.71,1.12-4.42,3.44-6.23,5.53c-1.54,1.78-3,3.72-3.83,6.01C18.35,34.5,18.48,35.67,17.36,35.18z"/>
	<path class="st12" d="M72.23,74.03c-4.21,4.46-9.58,6.8-15.37,8.31c-2.02,0.53-4.08,0.94-6.19,0.71c0.05-0.53,0.46-0.74,0.84-0.99
		c1.28-0.59,2.47-1.43,3.97-1.44c1.52,0.14,2.76-0.72,4.07-1.25c2.38-0.97,4.81-1.85,7.1-3.03c0.55-0.28,1.01-0.62,1.39-1.1
		C69.36,74.59,70.61,73.66,72.23,74.03z"/>
	<path class="st13" d="M72.23,74.03c-1.5,0.14-2.79,0.83-4.1,1.5c-3.16,1.82-6.55,3.1-9.99,4.25c-1.5,0.13-2.85,0.78-4.28,1.18
		c-0.89,0.25-1.83,0.64-2.36-0.39c-0.5-0.96,0.48-1.3,1.08-1.74c0.2-0.15,0.29-0.38,0.42-0.57c0.93-1.09,2.25-1.48,3.53-1.93
		c0.26-0.06,0.53-0.06,0.79,0.02c0.22,0.11,0.45,0.25,0.42,0.52c-0.14,1.48,0.79,1.24,1.59,0.91c1.5-0.6,3.05-1.08,4.51-1.8
		c1.13-0.56,2.33-0.91,3.55-1.18c3.82-1.09,7.32-2.98,11.01-4.39c0.82-0.31,1.66-1.1,2.65-0.34c-2.39,1-4.79,1.99-7.17,3.02
		C73.32,73.32,72.66,73.48,72.23,74.03z"/>
	<path class="st14" d="M17.36,35.18c0.78,0.04,0.81-0.92,1.44-1.08c0.07,0.63-0.2,1.17-0.49,1.7c-1.98,3.73-2.46,7.8-2.76,11.92
		c-0.1,1.42-0.4,2.85-0.33,4.27c0.2,3.88,0.91,7.64,2.94,11.05c0.45,0.77,0.59,1.69-0.21,2.44c-2.08-3.34-3.42-6.95-3.91-10.86
		c0.68-1.25,0.14-2.54,0.11-3.82c-0.09-3.59-0.06-7.17,1.22-10.6c0.83-0.92,0.96-2.12,1.29-3.24c0.2-0.6,0.34-1.22,0.66-1.78
		L17.36,35.18z"/>
	<path class="st15" d="M42.99,82.71c-4.6-0.59-8.89-2.02-12.76-4.62c-0.44-0.97-1.57-1.16-2.18-1.95c-0.44-0.57-1.24-1.11-0.2-1.85
		c1.53,0.12,2.67,1.17,4.04,1.67c3.11,1.79,6.25,3.51,9.45,5.12C42.04,81.43,43.02,81.59,42.99,82.71z"/>
	<path class="st16" d="M15.91,40.22c-0.72,1.59-0.87,3.28-1.1,4.99c-0.45,3.37,0.14,6.73,0.01,10.17c-0.31-0.3-0.54-0.53-0.78-0.76
		c-1.36-6.47-0.72-12.74,1.84-18.83c0.17,0.8-0.26,1.48-0.48,2.2c-0.16,0.55-0.34,1.06,0.5,1.15
		C16.17,39.49,16.17,39.85,15.91,40.22z"/>
	<path class="st17" d="M42.99,82.71c-2.73-2.04-5.97-3.16-8.84-4.95c-0.8-0.5-1.63-0.96-2.45-1.44c0.17-1.11,0.94-0.68,1.41-0.42
		c3.77,2.06,7.85,3.57,11.19,6.35c1.08,0.9,2.05,1.05,3.26,0.5c0.98-0.44,1.95-0.94,3.05-0.97c0.43-0.01,1.02-0.19,0.98,0.6
		c-0.31,0.22-0.62,0.43-0.93,0.65c-0.55,0.2-1.16,0.31-1.64,0.62C46.71,85.15,44.72,84.82,42.99,82.71z"/>
	<path class="st18" d="M27.8,74.59c-0.11,1.46,1.22,1.73,2,2.46c0.3,0.28,1.25,0.31,0.43,1.05c-2.74-1.47-5.09-3.42-7.13-5.76
		c0.28-0.14,0.57-0.14,0.86-0.08C25.3,72.94,26.89,73.21,27.8,74.59z"/>
	<path class="st19" d="M24.2,72.67c-0.36-0.11-0.73-0.22-1.1-0.33c-1.07-1.02-2.56-1.32-3.71-2.2c0.33-0.04,0.65-0.08,0.84-0.41
		C21.9,69.7,23.77,71.08,24.2,72.67z"/>
	<path class="st20" d="M53.48,13.91c-0.43,0.03-0.85,0.06-1.28,0.09c-2.76-0.02-5.51-0.04-8.26-0.06
		C47.12,13.24,50.3,13.32,53.48,13.91z"/>
	<path class="st20" d="M58.4,16.1c0.58-0.38,0.41-0.75-0.01-1.11c0.58,0.13,1.16,0.26,1.74,0.39c-0.44,0.39-0.87,0.78-1.3,1.17
		C58.58,16.49,58.44,16.34,58.4,16.1z"/>
	<path class="st21" d="M76.38,43.83c0,1.2,0,2.4-0.01,3.61c-0.35,1.29-0.1,2.6-0.16,3.9c-0.07,1.72-0.47,2-2.09,1.41
		c-3.28-1.19-6.19-3.07-9.12-4.91c-1.72-1.08-3.4-2.22-5.06-3.38c-1.63-1.13-3.28-2.18-5.33-2.37c-0.45-0.04-0.98-0.16-0.99-0.82
		c0.9-1.33,2.39-1.24,3.71-1.53c1.68-0.23,3.36-0.52,5.02-0.85c0.63-0.13,1.27-0.26,1.9,0.01c0.88,0.87-0.3,0.6-0.43,0.96
		c1.66-0.32,3.1,0.3,4.49,1.27c1.56,1.09,3.33,1.82,4.99,2.74C74.33,44.42,75.37,44.55,76.38,43.83z"/>
	<path class="st22" d="M53.72,41.35c3.94,0.36,6.75,2.98,9.87,4.98c3.46,2.21,6.87,4.49,10.72,6.03c1.32,0.53,1.69,0.28,1.76-1.08
		c0.06-1.28-0.4-2.62,0.31-3.84c0.24,2.4-0.4,4.84,0.36,7.21c0.4,1.83,0.12,3.84,1.43,5.44c0.02,0.46,0.04,0.92,0.07,1.38
		c-0.79,0.22-1.13-0.39-1.37-0.89c-0.9-1.85-2.39-2.79-4.3-3.5c-2.13-0.79-3.91-2.32-5.83-3.54c-3.49-2.22-7.08-4.29-10.44-6.71
		c-1.12-0.81-2.24-1.59-3.31-2.47c-1.86-1.52-4.12-0.99-5.24,1.11c-0.23,0.42-0.26,1.34-1.14,0.61c-0.51-2.86-0.16-3.59,2.56-4.27
		C50.63,41.43,52.08,40.23,53.72,41.35z"/>
	<path class="st23" d="M59.83,25.09c-0.88,0.68-0.71,2.56-2.51,2.19c-1.86-0.24-2.47-1.08-1.84-2.67c0.55-1.38,1.34-2.64,2.15-3.88
		c0.23-0.36,0.53-0.83,1.13-0.66c0.8-0.52,1.55-1.13,2.4-1.55c5.41-2.68,11.94-0.11,14.11,5.99c0.68,1.9,1.21,3.86,1.7,5.82
		c0.2,0.79,0.2,1.67,0.12,2.49c-0.12,1.13-1.15,1.42-2,1.46c-1.1,0.05-0.87-0.98-0.82-1.62c0.23-3.14-1.08-5.85-2.48-8.47
		c-1.74-3.25-5.08-4.51-8.33-3.4C62.3,22.26,61.26,23.84,59.83,25.09z"/>
	<path class="st24" d="M55.52,29.41c0.12,0.01,0.24,0.01,0.36,0.02c0.09,0.2-0.01,0.56,0.28,0.59c2.75,0.29,4.2,2.63,6.24,4.02
		c1.16,0.79,0.43,1.95,0.31,2.97c-1.82,0.95-3.95,0.68-5.82,1.46c-2.2,0.56-4.47,0.78-6.63,1.53c-1.03,0.36-1.69-0.2-1.66-1.23
		c0.06-2.29-0.47-4.51-0.69-6.76c0.05-0.49,0.21-1.02,0.65-1.21C50.77,29.85,53.04,29.08,55.52,29.41z"/>
	<path class="st25" d="M76.38,43.83c-0.42,0.88-0.52,1.68-2.05,0.94c-1.43-0.69-2.81-1.53-4.28-2.16c-2.2-0.94-3.92-3.01-6.76-2.45
		c0.32-0.9,1.04-0.49,1.24-0.97c0.64-0.85,1.42-1.28,2.49-0.8c2.94-0.15,5.69-1.26,8.56-1.77c1.03-0.18,1.3,0.16,1.11,0.94
		C76.18,39.64,76.55,41.74,76.38,43.83z"/>
	<path class="st26" d="M62.72,36.62c-0.23-0.04-0.63-0.2-0.52-0.33c1.21-1.56-0.16-1.98-1.09-2.66c-0.62-0.45-1.13-1.06-1.71-1.57
		c-1.24-1.09-2.64-1.79-4.33-1.6c-0.22-0.85,0.69-0.58,0.81-1.02c3.41-0.33,6.62,0.46,9.81,1.6c1.51,0.54,3.11,0.84,4.69,1.11
		c1.3,0.22,1.42,1.19,1.52,2.1c0.13,1.15-0.9,0.82-1.52,0.99c-2.18,0.57-4.46,0.62-6.6,1.38C63.43,36.93,63.08,36.92,62.72,36.62z"
		/>
	<path class="st27" d="M55.52,29.41c-1.96,0.45-3.93,0.89-5.89,1.34c-0.65,0.15-1.3,0.33-1.33,1.19c-1.18,0.24-1.55-0.57-1.87-1.45
		c-0.64-1.79-1.25-3.6-2.35-5.19c-0.4-0.58-0.7-1.27-1.47-1.49c-1.56-1.44-3.42-2.25-5.5-2.63c0.02-0.98,1.05-0.84,1.5-1.35
		c2.21-0.7,3.93-0.01,5.22,1.87c0.57,0.83,1.23,1.58,1.77,2.43c0.54,0.98,0.81,2.12,1.68,2.91c0.54,0.78,1.26,1.02,2.17,0.77
		c0.28-0.08,0.58-0.16,0.87-0.18c2.19-0.1,3.73-0.84,3.61-3.42c-0.03-0.56,0.26-1.15,0.61-1.65c0.25-0.29,0.54-0.5,0.95-0.41
		c0.07,0.36,0.16,0.82,0.59,0.29c0.45-0.54,0.71-1.25,1.2-1.75c0.36-0.37,0.61-1.33,1.48-0.64c-1.7,1.36-2.3,3.42-3.08,5.29
		c-0.49,1.17,0.88,1.45,1.65,1.93c0.9,0.41,1.8,0.84,2.83,0.81c0.33-0.01,0.6,0.2,0.59,0.54c-0.01,0.4-0.37,0.38-0.66,0.42
		C58.57,29.24,56.99,28.66,55.52,29.41z"/>
	<path class="st28" d="M55.5,22.17c-0.22,0.16-0.45,0.32-0.67,0.48c-2.09,0.48-4.22,0.49-6.34,0.46c0.07-2.53,0.7-4.87,2.49-6.74
		c0.66-0.69,1.57-0.34,2.4-0.28c1.4,0.1,2.75,0.92,4.2,0.27c0.15-0.1,0.32-0.17,0.49-0.22c0.12,0,0.23-0.01,0.34-0.03
		c0.14,0.15,0.29,0.3,0.43,0.45c-0.32,0.45-0.64,0.9-0.97,1.34C56.81,19.17,55.67,20.4,55.5,22.17z"/>
	<path class="st29" d="M67.47,22.87c2.33,1.43,3.35,3.6,3.58,6.26c0.08,0.97-0.23,1.17-1.1,0.89c-1.59-0.51-3.25-0.8-4.72-1.63
		c-0.23-0.28-0.54-0.47-0.77-0.75c-1.15-1.38-1.43-2.86-0.67-3.94C64.75,22.32,66.07,22.37,67.47,22.87z"/>
	<path class="st30" d="M80,53.9c0,0.36,0,0.72,0,1.08c-0.02,0.47,0.06,1.04-0.49,1.24c-0.66,0.24-0.73-0.48-1.01-0.8
		c-0.93-1.05-0.7-2.66-1.74-3.67c0-3.13,0-6.26,0-9.62c0.83,0.51,0.93,1.15,1.14,1.73c0.18,0.5,0.36,1.06,1.06,1
		c0.8-0.07,0.64-0.72,0.66-1.22c0.02-0.53,0.01-1.07,0.02-1.6c1.02,0.19,0.78,1.04,0.84,1.69c0.17,2.14-0.21,4.24-0.51,6.35
		C79.78,51.34,79.66,52.62,80,53.9z"/>
	<path class="st31" d="M62.72,36.62c0.35,0,0.71,0,1.06-0.01c1.54-0.25,2.32,0.88,3.23,1.77c-0.94-0.09-1.61,0.68-2.49,0.8
		c-2.46-0.04-4.77,0.95-7.21,1.03c-0.69-0.63-0.97-1.33-0.36-2.17C58.74,37.01,60.91,37.53,62.72,36.62z"/>
	<path class="st4" d="M80,53.9c-0.72-2.14-0.36-4.31-0.18-6.47c0.15-1.81,0.48-3.62-0.18-5.41c-0.4-3.22-0.47-6.46-0.42-9.7
		c-0.13-0.39-0.24-0.77,0.39-0.76c0.07,0.03,0.13,0.07,0.17,0.13c1.42,5.43,1.14,10.98,1.12,16.5c0,0.75,0.1,1.58-0.67,2.11
		C79.75,51.47,80.13,52.7,80,53.9z"/>
	<path class="st32" d="M67.47,22.87c-0.53,0.02-1.06,0.03-1.58,0.07c-1.73,0.14-2.61,1.75-1.8,3.31c0.37,0.72,1.09,1.25,1.14,2.13
		c-1.24-0.3-2.49-0.59-3.73-0.92c-0.43-0.12-0.95-0.22-0.92-0.87c0.76-0.61,1.1-1.56,1.82-2.19l0,0.02c1.11-2.14,2.92-2.37,5.01-1.8
		C67.44,22.7,67.46,22.78,67.47,22.87z"/>
	<path class="st27" d="M59.83,25.09c0.89-1.7,1.97-3.25,3.62-4.3c0.23,0.03,0.55-0.03,0.68,0.1c0.35,0.37-0.11,0.47-0.31,0.6
		c-1.19,0.82-1.99,1.94-2.54,3.26l0,0C60.78,24.76,60.53,25.87,59.83,25.09z"/>
	<path class="st30" d="M79.62,31.56c-0.13,0.25-0.26,0.51-0.39,0.76c-0.71-1.94-0.03-4.01-0.62-5.99c-0.33-1.11-0.97-2.21-0.75-3.46
		c0.11,0.04,0.22,0.07,0.34,0.09C79.06,25.76,79.55,28.63,79.62,31.56z"/>
	<path class="st33" d="M67.4,22.62c-2.02-0.38-3.72,0.14-5.01,1.8C62.87,22.44,64.61,21.58,67.4,22.62z"/>
	<path class="st33" d="M62.4,24.4c-0.44,0.87-0.73,1.87-1.82,2.19c0.24-0.62,0.48-1.23,0.71-1.85c0,0,0,0,0,0
		C61.66,24.64,62.03,24.52,62.4,24.4z"/>
	<path class="st34" d="M80.24,50.3c0.09-5.62,0.31-11.24-0.53-16.83c-0.09-0.58,0.05-1.19,0.08-1.78c2.01,3.92,3.51,7.99,3.85,12.43
		c0.15,1.94,0.41,3.8-0.7,5.69c-0.73,1.24-0.61,2.9-0.98,4.35c-0.14,0.56-0.07,1.44-1.12,1.2C80.21,53.72,80.48,51.98,80.24,50.3z"
		/>
	<path class="st35" d="M80.84,55.35c1.13-1.35,0.81-3.1,1.26-4.64c0.26-0.91,0.16-1.82,1.2-2.4c0.62-0.34,0.24-1.22,0.28-1.86
		c0.05-0.78,0.04-1.56,0.05-2.33c0.73,3.5,0.43,6.99-0.22,10.45c-0.34,1.81-0.91,3.58-1.37,5.37
		C81.53,58.44,80.95,56.96,80.84,55.35z"/>
	<path class="st36" d="M77.56,68c-1.96,1.11-4.14,1.64-6.19,2.54c-0.19,0.36-0.49,0.54-0.9,0.53c-1.19-0.52-0.37-1,0.09-1.36
		c0.66-0.52,1.45-0.83,2.11-1.37c0.58-0.47,0.58-0.95-0.1-1.23c-2.6-1.07-4.76-2.9-7.37-4.03c-2.98-1.3-5.71-3.22-8.18-5.42
		c-0.97-0.86-1.98-1.48-3.34-1.54c-1.66-0.07-2.46-1.3-3.15-2.61c-0.27-0.51-0.46-1.3-1.17-1.18c-0.68,0.12-0.64,0.93-0.77,1.49
		c-0.31,1.35,0,2.76-0.3,4.11c-0.11,0.52-0.24,1.29-0.8,1.27c-0.78-0.02-0.64-0.86-0.68-1.41c-0.13-1.73,0.2-3.48-0.29-5.18
		c-0.15-1.05-0.2-2.09,0.03-3.13c0.77-1.04,0.94-2.61,2.15-3.21c1.47-0.73,2.33,0.88,3.47,1.39c2.67,1.2,5.09,2.79,7.41,4.65
		c2.03,1.62,4.5,2.7,6.59,4.31c3.06,2.35,6.41,4.15,10.06,5.38c0.11,0.04,0.22,0.1,0.33,0.15C79.68,63.64,80.05,65.79,77.56,68z"/>
	<path class="st37" d="M77.56,68c-0.42-0.41,0.1-0.45,0.25-0.62c1.51-1.63,1.22-3.42-0.84-4.52c-1.04-0.55-2.19-0.93-3.31-1.33
		c-3.7-1.33-6.55-4.05-9.88-5.97c-4.29-2.47-8.04-5.71-12.49-7.99c-2.39-1.22-3.05-0.97-3.8,1.19c-0.07,0.19-0.35,0.31-0.53,0.46
		c-0.81-0.94-0.75-1.9-0.07-2.88c1.22-2.98,1.89-3.44,4.47-3.25c0.69,0.05,1.28,0.29,1.79,0.72c5.87,4.91,12.74,8.33,19.02,12.64
		c0.29,0.2,0.63,0.43,0.96,0.47c2.01,0.24,3.12,1.52,3.97,3.22c0.25,0.5,0.47,1.13,1.13,1.32c0.86,1.55,1.71,3.11,2.59,4.64
		c0.42,0.73-0.19,0.82-0.58,0.97C79.36,67.41,78.46,67.69,77.56,68z"/>
	<path class="st38" d="M70.64,70.82c0.24-0.1,0.49-0.19,0.73-0.29c0.48,0.91-0.37,0.99-0.83,1.22c-1.07,0.54-2.13,1.08-3.04,1.88
		c-0.45,0.4-0.61,0.72-0.1,1.15c-2.79,1.54-5.76,2.64-8.78,3.61c-1.55,0.5-1.91,0.02-1.2-1.41c0.05-0.1-0.11-0.29-0.17-0.44
		c0.04-0.77,0.7-0.9,1.22-1.13c3.29-1.43,6.62-2.75,9.92-4.14C69.14,70.96,69.93,71.13,70.64,70.82z"/>
	<path class="st39" d="M58.04,16.46c-1.19,1.64-2.67,0.36-3.91,0.23C51.15,16.38,49.95,17,49.44,20c-0.19,1.08-0.47,2.06-1.12,2.93
		c-0.74,0.64-1.76,0.71-2.56,1.23c-0.19,0.01-0.35-0.05-0.48-0.2c-2.14-4.68-6.04-4.75-10.28-3.95c-0.24,0.04,0.06-0.01-0.17,0.05
		c-2.78,0.42-4.6,2.2-5.83,4.52c-1.27,2.41-2.24,4.96-3.28,7.49c-0.53,1.21-0.66,2.79-2.53,2.79c-0.31-0.09-0.92-0.26-0.32-0.57
		c1.42-0.72,1.87-2,2.04-3.34c0.41-3.25,2.39-5.71,3.95-8.39c1.76-2.51,4.4-3.55,7.22-4.3c4.26-1.96,8.76-2.76,13.41-2.66
		c1.42,0.03,2.79-0.83,4.23-0.21l0,0C55.16,15.73,56.76,15.47,58.04,16.46z"/>
	<path class="st40" d="M22.16,49.98c-0.9,4.88-1.79,9.77-2.69,14.65c-0.05,0.28-0.2,0.54-0.31,0.8c-0.82-2.04-0.61-4.26-0.59-6.3
		c0.03-4.31-0.02-8.77,1.78-12.83c1.35-3.04,1.99-6.1,1.7-9.38c-0.03-0.36,0-0.72,0.31-0.98c1.02,0.41,0.88,1.33,0.89,2.14
		c0.04,3.4,0.08,6.8-0.32,10.18C22.85,48.9,22.81,49.57,22.16,49.98z"/>
	<path class="st41" d="M22.16,49.98c0.56-4.12,0.78-8.26,0.68-12.42c-0.01-0.6-0.01-1.18-0.49-1.63c0.04-0.54,0.47-0.78,0.83-1.07
		c1.38-0.49,1.83-1.67,2.19-2.92c0.74-0.27,0.82,0.21,0.86,0.75c-0.11,0.81-0.33,1.57-0.92,2.17c-1,0.74-1.35,1.74-1.33,2.96
		c0.04,2.39,0.02,4.78,0.01,7.16c0,0.87,0.07,1.64,0.96,2.14c0.95,0.53,0.77,1.52,0.83,2.4c-0.01,1.44-0.36,2.84-0.5,4.26
		c-0.46,0.72,0.13,1.93-1.08,2.29c-0.16-0.54,0.38-1.54-1.01-1.21c-1.1,0.26-1.27-0.62-1.05-1.46
		C22.45,52.25,22.57,51.12,22.16,49.98z"/>
	<path class="st16" d="M17.34,35.17c-0.11,0.6-0.23,1.2-0.34,1.81c-0.43,0.43-0.11,1.41-1.07,1.44
		C16.06,37.19,16.46,36.08,17.34,35.17z"/>
	<path class="st11" d="M15.93,38.42c0.36-0.48,0.71-0.96,1.07-1.44c-0.06,1.18-0.69,2.17-1.09,3.24c0-0.36,0-0.73,0-1.09
		C15.91,38.89,15.92,38.66,15.93,38.42z"/>
	<path class="st42" d="M23.49,69.34c-1.47-0.64-2.23-1.46-1.49-3.27c0.88-2.16,0.91-4.59,1.8-6.78c0.36-0.28,0.33-0.76,0.56-1.1
		c0.69-1.06,1.45-1.15,2.31-0.23c0.41,0.44,0.75,0.93,1.08,1.44c3.32,5.17,7.47,9.6,12.04,13.68c1.07,0.96,2.16,1.91,2.98,3.11
		c0.45,0.65,0.82,1.45,0.2,2.15c-0.61,0.69-1.34,0.23-1.96-0.12c-0.58-0.33-1.14-0.67-1.83-0.67c-2.49-0.77-4.56-2.34-6.8-3.59
		C29.47,72.3,26.43,70.92,23.49,69.34z"/>
	<path class="st43" d="M39.29,77.37c0.82-0.81,1.23,0.17,1.81,0.42c0.52,0.22,1.06,0.89,1.59,0.35c0.57-0.58,0.11-1.31-0.29-1.78
		c-0.94-1.08-1.93-2.13-3.01-3.08c-4.56-4.04-8.69-8.45-11.96-13.61c-0.19-0.3-0.48-0.54-0.64-0.85c-0.87-1.67-1.64-1.43-2.43,0.07
		c-0.1,0.19-0.37,0.28-0.56,0.41c0.14-1.07,0.27-2.14,0.41-3.21c0.66-0.6,0.07-1.6,0.69-2.21c1.74-1.1,1.79-1.1,3.04,0.47
		c1.56,1.96,3.71,3.55,4.62,5.92c1.49,3.86,4.48,6.44,7.32,9.14c1.21,1.15,2.63,2.09,3.34,3.7c-0.04-1.14-0.03-2.27-0.07-3.4
		c0.11-1.53,0.11-1.53,1-1.64c0.77,1.69,0.13,3.49,0.37,5.22c-0.1,2.23,0.09,4.46-0.13,6.69c-0.51,1.32-1.11,0.18-1.68,0.07
		C41.37,79.42,39.95,78.88,39.29,77.37z"/>
	<path class="st44" d="M42.93,79.9c0.6-0.22,0.49,0.69,1,0.62c0.57-1.29,0.11-2.65,0.26-3.97c0.08-0.68-0.19-1.4,0.21-2.08
		c0.76,0.1,0.76,0.73,0.77,1.19c0.04,1.06,0.58,1.47,1.56,1.46c0.74,0.47,0.49,1.26,0.63,1.93c0.09,0.44-0.37,1.16,0.55,1.22
		c1.21-0.53,2.42-1.05,3.61-1.64c0.57-0.28,1.14-0.73,1.84-0.33c0,0.62-0.29,0.99-0.9,1.15c-0.48,0.13-0.97,0.36-0.66,0.98
		c0.25,0.51,0.79,0.52,1.26,0.37c1.35-0.45,2.7-0.93,4.04-1.42c0.34-0.12,0.64-0.35,0.96,0.01c-0.52,1.08-1.55,1.22-2.57,1.4
		c-1.29,0.53-2.59,1.05-3.88,1.58c-1.01-0.49-1.91-0.06-2.79,0.36c-1.84,0.88-3.33,1.36-5.24-0.46c-2.25-2.14-5.3-3.31-8.13-4.67
		c-0.8-0.39-1.55-0.89-2.36-1.27c-0.42-0.2-0.91-0.78-1.37-0.02c-1.31-0.56-2.46-1.47-3.9-1.74c-1.2-0.64-2.4-1.28-3.6-1.92
		c-1.06-1.32-2.38-2.3-3.96-2.93c-1.4-0.88-0.21-1.77-0.04-2.72c0.6,1.56,1.49,2.69,3.27,2.72c1.36,0.1,2.5,0.78,3.55,1.55
		c3.31,2.4,7.29,3.52,10.72,5.67c1.31,0.82,2.65,1.59,3.9,2.5C42.04,79.74,42.38,80.13,42.93,79.9z"/>
	<path class="st45" d="M42.93,79.9c-0.12,0.56-0.38,0.69-0.86,0.31c-3.59-2.77-7.71-4.55-11.75-6.5c-2.37-1.14-4.56-2.63-6.84-3.97
		c0-0.13,0.01-0.27,0.01-0.4c3.76,0.88,6.86,3.16,10.23,4.85c1.91,0.96,3.71,2.11,5.57,3.17C40.5,78.21,41.72,79.05,42.93,79.9z"/>
	<path class="st20" d="M53.72,15.39c-4.8,1.22-9.92,0.11-14.62,2.05c-0.96,0.4-1.86,1.12-3.01,0.82c1.73-1.64,4.02-2.04,6.18-2.4
		c3.28-0.54,6.59-1.2,9.96-0.85C52.73,15.08,53.31,14.88,53.72,15.39z"/>
	<path class="st20" d="M58.04,16.46c-1.44-0.36-2.88-0.72-4.32-1.08c1.47,0.08,3.03-0.34,4.34,0.74
		C58.05,16.24,58.05,16.35,58.04,16.46z"/>
	<path class="st46" d="M55.47,80.82c0.86-0.47,1.71-0.93,2.57-1.4c2.93-0.8,5.59-2.29,8.42-3.32c0.55-0.2,1.11-0.38,1.67-0.57
		c-0.37,1.51-1.91,1.52-2.91,2.01c-2.75,1.35-5.68,2.34-8.52,3.49C56.22,81.22,55.8,81.36,55.47,80.82z"/>
	<path class="st47" d="M70.64,70.82c-4.04,1.69-8.09,3.37-12.13,5.07c-0.43,0.18-0.83,0.44-1.24,0.66
		c-0.21,0.02-0.42,0.04-0.63,0.06c-0.37,0.24-0.8,0.17-0.89-0.21c-0.36-1.71-1.81-2.33-3.09-3.01c-1.6-0.84-3.03-2.2-5.06-2.01
		c-0.39,0.04-0.61-0.31-0.74-0.68c-0.14-5.33-0.78-10.63-0.53-15.97c0.02-0.48,0.04-0.96,0.21-1.42c0.09-0.22,0.25-0.38,0.46-0.49
		c0.56,1.99,0.01,4.04,0.33,6.14c0.69-0.75,0.65-1.61,0.63-2.45c-0.04-1.32,0-2.63,0.39-3.9c0.14-0.45,0.22-0.99,0.75-1.13
		c0.64-0.17,0.98,0.37,1.31,0.77c0.25,0.31,0.36,0.74,0.54,1.11c0.7,1.4,1.55,2.43,3.39,2.39c2.21-0.05,3.13,2.21,4.86,3.07
		c2.73,1.37,4.89,3.57,7.93,4.61c2.3,0.78,4.31,2.64,6.6,3.75c0.71,0.35,0.36,0.74-0.09,1.06c-0.96,0.7-1.91,1.42-3.03,1.89
		C70.16,70.32,69.8,70.63,70.64,70.82z"/>
	<path class="st48" d="M47.22,71.17c2.59-1,4.11,1.27,6.11,2.05c1.54,0.6,2.6,1.86,3.31,3.38c-1.1,0.57-2.19,1.14-3.29,1.71
		c-1.81,0.85-3.61,1.7-5.42,2.56c-0.39,0.29-0.82,0.13-0.81-0.25c0.06-2.96-0.76-5.89-0.26-8.85C46.9,71.54,47.05,71.34,47.22,71.17
		z"/>
	<path class="st49" d="M47,52.82c-0.04,0.12-0.09,0.24-0.13,0.36c-0.95-0.13-0.79-0.93-0.81-1.5c-0.06-2.19-0.11-4.38,0.04-6.6
		c-0.7,0.55-1.31,0.38-1.84-0.3c0.19-3.01-2.11-3.6-4.24-4.36c-1.58-0.56-3.16-1.11-4.78-1.56c-0.28-0.08-0.53-0.2-0.74-0.4
		c-0.55-1.11-0.87-2.18,0.37-3.07c1.54-0.46,2.74,0.58,4.09,0.96c2.12,0.61,2.25,0.55,1.9-1.71c-0.06-0.41-0.16-0.82-0.14-1.24
		c1.34-2.86-0.22-4.98-1.78-7.12c-0.44-0.6-1.48-0.96-0.96-2.03c1.39-0.26,2.11,0.71,2.75,1.63c1.91,2.77,3.13,5.78,3.04,9.23
		c-0.03,1.01-0.18,2.05,0.26,3.02c0.23,0.5,0.63,1.01,1.2,0.93c0.66-0.1,0.4-0.76,0.43-1.2c0.36-4.49,0.15-8.88-2.52-12.78
		c-0.27-0.39-0.44-0.86-0.27-1.37c0.66-0.45,0.8,0.22,1.03,0.53c1.34,1.78,2.26,3.81,2.86,5.93c0.27,0.95,0.73,1.43,1.53,1.78
		c0.46,2.17,0.91,4.33,0.74,6.57c-0.08,1.04,0.19,1.46,1.3,0.98c2.11-0.9,4.39-1.06,6.61-1.46c0.12,0.72,0.24,1.45,0.36,2.17
		c-1.24,0.25-2.52,0.38-3.59,1.14c-2.25-0.14-4.22,0.94-6.3,1.52c-0.72,0.2-0.58,0.94-0.58,1.52c0,0.65,0.03,1.3,0.04,1.95
		c0.02,0.96,0.05,1.92,0.07,2.88C46.97,50.42,46.99,51.62,47,52.82z"/>
	<path class="st50" d="M42.88,23.71c2.17,3.18,3.51,6.65,3.49,10.54c-0.01,1.73-0.11,3.45-0.19,5.18c-0.02,0.47-0.14,0.9-0.75,0.55
		c-1.21-0.69-2.31-1.35-2.14-3.12c0.31-3.23-0.32-6.32-1.94-9.15c-0.83-1.45-1.61-2.97-3.48-3.36c-1.25,0.14-2.45,0.51-3.65,0.86
		c-0.6,0.14-0.98,0.71-1.6,0.81c-1.13-0.25-1.5-1.04-1.5-2.09c1.27-2.29,3.72-3.43,6.03-2.79C39.62,20.77,41.36,22.01,42.88,23.71z"
		/>
	<path class="st51" d="M45.78,24.07c0.46-1.24,1.56-1.05,2.54-1.14c2.16-0.35,4.31-0.78,6.51-0.29c-0.2,0.81-0.65,1.64-0.56,2.41
		c0.24,2.14-0.78,2.79-2.69,2.82c-0.82,0.01-1.67,0.17-2.44,0.45c-1.18,0.43-1.75-0.08-2.12-1.08
		C46.51,26.23,45.61,25.35,45.78,24.07z"/>
	<path class="st52" d="M37.16,21.14c-2.25,0.3-4.44,0.69-5.79,2.83c-0.33,0.41-0.24,1.16-1,1.23c-0.54-0.33-1.24-0.54-0.98-1.43
		c1.23-2.23,3.13-3.51,5.62-3.95c1.2-0.06,2.42-0.43,3.58,0.24C38.61,21.07,37.46,20.53,37.16,21.14z"/>
	<path class="st53" d="M38.6,20.06c-1.32,0-2.64,0-3.96,0c-0.12-0.08-0.16-0.15-0.12-0.23c0.04-0.08,0.08-0.11,0.12-0.11
		c2.02-0.69,4.16-0.69,6.17-0.34c2.42,0.42,3.56,2.57,4.69,4.54c0.14,0.2,0.11,0.37-0.08,0.52c-0.45-0.55-1-1.04-1.34-1.65
		C42.85,20.63,41.11,19.59,38.6,20.06z"/>
	<path class="st54" d="M45.42,24.44c0.03-0.17,0.05-0.34,0.08-0.52c0.09,0.05,0.19,0.1,0.28,0.15c0.28,1.11,1.14,2,1.23,3.18
		C45.98,26.6,45.75,25.49,45.42,24.44z"/>
	<path class="st55" d="M34.64,19.72c0,0.11,0,0.23,0,0.34c-2.12,0.76-4.05,1.76-5.05,3.95c-0.35,2.15-1.29,4.08-2.26,5.98
		c-0.45,0.88-0.01,2.22-1.33,2.65c-0.01-0.4-0.18-0.67-0.61-0.71c1.54-3.56,2.43-7.47,5.33-10.33
		C31.8,20.54,33.05,19.77,34.64,19.72z"/>
	<path class="st56" d="M43.64,70.1c0,1.34,0,2.67,0,4.01c-1.21-2.93-4.08-4.09-5.97-6.16c-2.07-2.29-4.28-4.36-5.42-7.42
		c-1.02-2.74-3.71-4.44-5.34-6.87c-0.44-0.65-0.94-0.12-1.28,0.32c-0.32,0.42-0.59,0.71-0.72-0.11c-0.2-1.46,0.41-2.85,0.37-4.3
		c0.33-0.75,0.25-1.52,0.07-2.27c-0.15-0.62-0.18-1.18,0.29-1.68c0.11-0.06,0.24-0.09,0.33-0.03c0.96,0.61-0.2,2.36,1.72,2.75
		c1.07,0.22,1.39,2.1,2.16,3.16c0.74,1.01,1.23,2.18,1.9,3.24c2.55,4.04,5.13,8.05,8.68,11.33C41.7,67.26,42.89,68.5,43.64,70.1z"/>
	<path class="st57" d="M25.99,32.65c0.95-2.98,2.13-5.87,3.59-8.64c-0.17,0.65,0.93,0.44,0.74,1.09c0.24,1.16-0.42,2.06-0.9,2.99
		c-0.68,1.33-1.17,2.74-1.79,4.09c-0.12,0.26-0.29,0.6,0,0.81c0.37,0.27,0.67-0.03,0.91-0.28c0.39-0.39,0.51-0.93,0.76-1.4
		c1.02-1.94,1.84-4,3.54-5.5c0.28-0.4,0.53-0.85,1.08-0.94c1.19,0.65,0.25,1.25-0.07,1.83c-0.49,0.88-1.53,1.53-1.13,2.78
		c0.06,0.5-0.07,0.97-0.35,1.36c-0.83,1.12-0.25,1.53,0.82,1.73c0.1,0.16,0.12,0.33,0.06,0.49c-0.82,2.07-0.82,2.07,1.35,2.18
		c0.16,0.06,0.29,0.16,0.4,0.3c-0.99,0.84-0.27,1.89-0.36,2.85c-0.75,0.39-1.36-0.09-2-0.34c-0.83-0.32-1.71-0.49-2.52-0.81
		c-1.56-0.62-2.94-0.59-4,0.91c-0.79-1.11-0.62-2.45-0.84-3.69C25.75,33.95,25.43,33.12,25.99,32.65z"/>
	<path class="st58" d="M25.27,34.45c0.94,1.07,0.76,2.36,0.74,3.63c0.62,0.64,0.5,1.46,0.51,2.24c-0.19,1.75,0.55,3.6-0.54,5.27
		c-0.82,1.22,0.18,2.77-0.71,3.99c-0.05-1,0.35-2.23-1.37-2.28c-0.5-0.02-0.41-0.65-0.41-1.05c-0.01-3.21,0.03-6.43-0.02-9.64
		C23.44,35.3,24.37,34.92,25.27,34.45z"/>
	<path class="st59" d="M33.06,71.69c-0.08,0.72-0.61,0.65-0.94,0.49c-2.98-1.38-5.94-2.81-8.9-4.22c-0.29-0.14-0.5-0.41-0.43-0.72
		c0.36-1.5,0.65-3.02,1.17-4.46C24.24,62,24.97,62,25.51,62.7c2.26,2.92,4.56,5.81,7.12,8.47C32.8,71.34,32.94,71.53,33.06,71.69z"
		/>
	<path class="st60" d="M25.98,45.59c0-1.79,0.01-3.58,0.01-5.37c2.67,1.06,3.97,3.43,4.89,5.81c2.47,6.35,6.26,11.78,10.86,16.71
		c0.62,0.67,1.09,1.42,1.39,2.28c0.24,0.68,0.35-0.07,0.53-0.05c0.18-0.03,0.33,0.02,0.47,0.13c0.36,0.56,0.34,1.16,0.17,1.77
		c-0.36,0.28-0.14,0.74-0.33,1.07c-0.61,0.64-0.23,1.44-0.34,2.16c-2.5-3.01-5.62-5.44-7.94-8.63c-2.85-3.92-5.35-8.05-7.69-12.28
		c-0.54-0.98-1.12-0.97-2.03-0.55C25.98,47.5,25.98,46.54,25.98,45.59z"/>
	<path class="st61" d="M43.98,67.94c0.05-0.24-0.41-0.48,0-0.72c0.72-1.1-0.42-2.44,0.45-3.65c0.95,0.32,0.79,2.24,2.37,1.61
		c0.29-0.12,0.25,0.7,0.25,1.08c0,2.09,0.05,4.18-0.02,6.27c-1.39,1.25-2.12,1.01-2.53-0.78c-0.15,0.5,0.58,1.29-0.48,1.59
		C44,71.54,43.99,69.74,43.98,67.94z"/>
	<path class="st62" d="M44.02,73.34c0.67-0.6,0.1-1.5,0.57-2.37c0.11,1.64,0.62,2.54,2.25,1.68c0.34,1.56,0.35,3.12-0.01,4.67
		c-1.65,0.67-1.65,0.67-2.35-2.52c-0.52,1.87,0.45,3.89-0.56,5.71C43.96,78.13,43.99,75.73,44.02,73.34z"/>
	<path class="st63" d="M46.83,77.33c0-1.56,0.01-3.12,0.01-4.67c0-2.38,0-4.76,0-7.14c-1.37,1.16-1.37,1.16-2.37-1.51
		c-0.44,1.03,0.36,2.25-0.5,3.22c-0.01-0.72-0.02-1.44-0.03-2.16c-0.76-1.07-0.48-2.32-0.5-3.48c-0.09-5.13-0.11-10.27,0.35-15.39
		c0.05-0.6,0.07-1.2,0.56-1.65c1.99,1.63,1.15-0.75,1.64-1.22c0.78,0.16,0.49,0.76,0.49,1.15c0.03,2.34,0.01,4.68,0.03,7.02
		c0.01,0.58-0.2,1.22,0.34,1.69c0.12,6,0.23,11.99,0.35,17.99c-0.01,2.8-0.03,5.6-0.02,8.4c0,0.54-0.25,1.28,0.72,1.3
		c-0.77,0.7-1.02,0.27-1.05-0.51C46.84,79.36,46.85,78.34,46.83,77.33z"/>
	<path class="st64" d="M44.36,44.54c-0.48,6.83-0.28,13.68-0.41,20.51c-0.1,0-0.21,0-0.31,0c-0.31-2.22-2.54-2.78-3.73-4.26
		c-3.91-4.87-6.49-10.25-7.12-16.5c-0.25-2.44-0.09-4.7,2.57-5.87c2.59,0.7,5.09,1.66,7.59,2.67c1.19,0.48,1.92,0.97,1.42,2.37
		C44.25,43.79,44.35,44.19,44.36,44.54z"/>
	<path class="st65" d="M35.36,38.43c0.01,0.22,0.09,0.62,0.03,0.64c-2.82,0.98-2.29,3.35-2.11,5.42c0.49,5.76,3,10.74,6.35,15.32
		c0.8,1.09,1.58,2.35,3.17,2.7c1.5,0.33,0.59,1.69,0.84,2.56c-0.08,0.5,0.19,1.06-0.36,1.68c-0.94-3.98-4.44-5.98-6.44-9.1
		c-2.06-3.21-4.4-6.23-5.66-9.9c-1.02-2.98-2.78-5.49-5.19-7.53c0.01-0.71,0.01-1.43,0.02-2.14c0.42-1.74,1.42-2.1,3.12-1.6
		c1.87,0.56,3.71,1.13,5.5,1.9C34.88,38.4,35.12,38.41,35.36,38.43z"/>
	<path class="st66" d="M32.48,29.42c-0.75-0.78-0.04-1.28,0.27-1.96c0.4-0.86,1.87-1.25,1.19-2.59c1.33-0.1,2.49-1.41,3.95-0.52
		c1.03,1.48,2.41,2.66,3.19,4.4c0.74,1.67,0.95,3.08,0.04,4.64c-0.48,0.21-0.92,0-1.38-0.12c-1.05-0.29-2.15,0.01-3.21-0.23
		c-0.89-0.2-1.13-0.62-0.38-1.31c0.92-0.68,2.03-0.76,3.09-1.02c0.5-0.11,0.69-0.42,0.6-0.92c-0.33-1.75-3.17-3.29-4.93-2.66
		C34.03,27.84,33.61,29.01,32.48,29.42z"/>
	<path class="st67" d="M40.05,33.04c0.35,0.12,0.7,0.24,1.05,0.37c0.04,0.94,0.49,1.81,0.42,2.79c-0.08,1.07-0.27,1.52-1.49,1.01
		c-1.63-0.68-3.35-1.12-5.03-1.67c0,0-0.17-0.01-0.17-0.01l-0.17,0c-0.43-0.47-1.57,0.26-1.53-0.73c0.04-0.92,1.03-0.8,1.7-0.85
		C36.6,33.81,38.23,32.88,40.05,33.04z"/>
	<path class="st68" d="M32.85,25.82c-1.12,2.36-2.84,4.39-3.67,6.91c-0.31,0.95-1.26,1.28-2.04,0.89c-0.87-0.43-0.07-1.16,0.15-1.68
		c0.97-2.29,2.01-4.56,3.03-6.83c0.35-0.38,0.7-0.76,1.06-1.13C31.58,24.82,31.91,25.56,32.85,25.82z"/>
	<path class="st49" d="M40.05,33.04c-2.12,0.92-4.34,1.41-6.68,1.57c0.2,0.83,1.06,0.39,1.3,0.92c-0.87-0.12-1.96,0.67-2.45-0.84
		c-0.38-1.14,0.69-1.35,0.99-2.03c0.97-0.72,1.93-1.52,3.24-0.71c-0.23,0.34-0.83,0.7,0.23,0.74C37.8,32.73,38.99,32.29,40.05,33.04
		z"/>
	<path class="st69" d="M36.44,31.95c-1.19-0.26-2.09,0.8-3.24,0.71c-0.57-0.2-1.24,0.59-1.65,0.01c-0.46-0.66-0.01-1.33,0.41-1.94
		c0.26-0.37,0.34-0.87,0.51-1.31c0.63-0.93,1.28-1.83,2.17-2.53c0.16-0.12,0.3-0.1,0.43,0.04c-0.13,1.84-1.83,2.9-2.28,4.72
		c2.08-0.38,4.11-1.04,6.23-1.14c0.34,0.12,0.74,0.18,0.62,0.7C38.52,31.21,37.47,31.52,36.44,31.95z"/>
	<path class="st49" d="M39.65,31.21c-0.24-0.14-0.49-0.28-0.73-0.42c0.1-1.77-0.34-2.44-1.98-3.02c-0.66-0.23-1.4-0.27-1.89-0.86
		c-0.13-0.01-0.27-0.01-0.4-0.02c0.24-0.46,0.57-0.75,1.14-0.63c1.81,0.38,3.31,1.25,4.27,2.87C40.51,29.89,40.72,30.7,39.65,31.21z
		"/>
	<path class="st70" d="M35.04,26.9c1.78,0.15,3.38,0.6,4.41,2.27c0.53,0.86,0.32,1.3-0.54,1.61c-2.25,0.51-4.49,1.03-6.97,1.59
		C32.69,30.24,33.99,28.64,35.04,26.9z"/>
</g>
</svg>
