<?xml version="1.0" encoding="utf-8"?>
<!-- Generator: Adobe Illustrator 23.0.2, SVG Export Plug-In . SVG Version: 6.00 Build 0)  -->
<svg version="1.1" id="Camada_1" xmlns="http://www.w3.org/2000/svg" xmlns:xlink="http://www.w3.org/1999/xlink" x="0px" y="0px"
	 viewBox="0 0 62.5 62.6" style="enable-background:new 0 0 62.5 62.6;" xml:space="preserve">
<style type="text/css">
	.st0{fill:#323232;}
	.st1{fill:#FEFEFE;}
	.st2{fill:#00C8F6;}
	.st3{fill:#00689D;}
	.st4{fill:#CA5600;}
	.st5{fill:#78E9FC;}
	.st6{fill:#6BE7FD;}
	.st7{fill:#FEBB00;}
	.st8{fill:#FD9100;}
	.st9{fill:#FCDE7F;}
	.st10{fill:#FCDE7D;}
	.st11{fill:#FCDB76;}
	.st12{fill:#FE9100;}
	.st13{fill:#FCDC79;}
</style>
<g>
	<path class="st0" d="M31.2,62.6C13.7,62.3-0.1,48.8,0,31.1C0.1,13.6,13.8-0.2,31.7,0c17.3,0.2,31.2,13.8,30.9,31.9
		C62.2,49,48.8,62.3,31.2,62.6z"/>
	<path class="st1" d="M56.8,31.3C57,45.4,45.1,57,31,56.9C17.3,56.7,5.4,45.2,5.7,30.7C5.9,17.1,17.4,5.3,32,5.7
		C45.6,6,57,17.4,56.8,31.3z"/>
	<path class="st2" d="M51.5,22.5c2.3,4.3,2.5,9,1.5,13.6C49.5,51.3,32.5,58.3,19.3,50c-2.3-1.5-4.4-3.3-5.9-5.6
		c-2.6-6.5-1.8-12.7,1.5-18.7c0.4-0.7,0.6-1.5,1.6-1.6c0.9,0.5,1.6,1.3,2.4,1.9c0.5,0.4,0.5,0.9,0.3,1.5c-0.5,2.1,0.2,2.9,2.4,3.1
		c2.2,0.2,4.5,0.2,6.7,0.2c2,0,3.1-1.1,3-3.1c-0.2-2.6-0.8-5.2-1.4-7.8c-0.3-1.3-1.4-1.7-2.9-1.3c-1.6,0.4-2.1,0.3-3-1.3
		c0-0.7,0.5-0.9,1-1.1c5.4-2.4,10.9-2.7,16.5-0.9c0.4,0.1,0.8,0.3,0.9,0.7c-1.4,0.6-2.6,1.6-3.8,2.6c-0.4,0.4-0.9,0.2-1.4,0
		c-2-0.7-3.2,0-3.5,2.1c-0.3,1.9-0.8,3.8-1.1,5.8c-0.1,0.5-0.1,1-0.1,1.5c0.1,1.5,1.1,2.6,2.6,2.6c2.6,0.1,5.2,0.1,7.8-0.2
		c1.4-0.2,2.2-1.2,1.8-2.6c-0.3-1.1,0-1.8,0.9-2.4c1.4-1.1,2.4-2.3,1.8-4.3c-0.2-0.7-0.6-1.2-1-1.7c-0.4-0.4-0.8-0.8-0.8-1.4
		c0.5-0.6,0.9-0.1,1.2,0.1C48.7,19.4,50.3,20.7,51.5,22.5z"/>
	<path class="st3" d="M42.4,16.2c-3.2-1.4-6.5-1.8-9.9-1.5c-2.5,0.2-5,0.8-7.3,1.9c-0.4,0.2-0.9,0.3-1,0.7c-0.3,0.2-0.5,0-0.6-0.1
		c-1.3-1.2-3.3-0.7-4.6,0.5c-0.8,0.8-1.5,1.7-2.1,2.6c-0.6,0.8-0.5,1.8-0.4,2.8c0,0.3,0.3,0.7,0,1c-1.7,1.8-2.6,4-3.2,6.3
		c-1.3,4.3-1.2,8.7,0.1,13c0.1,0.3,0.1,0.6,0.2,0.9c-2.7-3.3-4-7.1-4.3-11.3C8.6,26,10.9,20,16.1,15c6-5.7,15.7-7.6,23.4-4.5
		c4.8,2,8.5,5.2,11.2,9.6c0.4,0.7,0.8,1.4,0.9,2.3c-1.5-1.3-2.8-2.8-4.5-3.9c-0.4-0.3-0.8-0.7-1.4-0.6
		C44.6,17.4,43.6,16.7,42.4,16.2z"/>
	<path class="st4" d="M37.9,31.8c1.7-0.1,3.3,0.1,5,0.2c1.9,0.1,2.9,1.8,2.1,3.5c-0.3,0.7-0.1,0.9,0.4,1.3c1,0.9,2.2,1.5,2.5,3.1
		c0.1,0.7,0.1,1.5-0.2,2.1c-0.9,1.7-2.1,3.2-3.7,4.2c-1.2,0.7-2.4,0.7-3.6-0.2c-0.5-0.4-1-0.8-1.5-1.2c-0.6-0.5-1-0.8-1.8-0.3
		c-1.5,0.9-3.3-0.2-3.7-2.1c-0.4-2.1-0.8-4.3-1.2-6.4c-0.5-2.6,1.4-4.5,3.5-4.2C36.6,31.9,37.3,31.8,37.9,31.8z"/>
	<path class="st4" d="M16.8,43.3c-0.2-0.6-0.7-1-0.8-1.7c-0.4-1.9,0.5-3.2,1.9-4.2c0.8-0.6,1.4-1.1,0.9-2.3c-0.6-1.4,0.6-2.9,2.2-3
		c2.5-0.2,5.1-0.3,7.6-0.2c1.8,0,3.3,1.5,3.1,3.3c-0.3,2.6-0.8,5.3-1.4,7.8c-0.4,1.7-2.2,2.4-3.7,1.5c-0.6-0.4-1-0.3-1.4,0.1
		c-0.6,0.5-1.2,1.1-1.8,1.6c-0.7,0.8-1.7,1.1-2.9,0.6C18.8,46.2,17.6,45,16.8,43.3z"/>
	<path class="st4" d="M16.4,24.1c-0.7-1.5-0.6-3,0.4-4.3c0.7-0.9,1.5-1.8,2.3-2.6c1.5-1.4,3.1-1.4,5,0.1c0.3,0.2,0.5,0.5,0.8,0.8
		c0.6,0.5,1,0.9,1.9,0.3c1.5-0.9,3.2,0,3.6,1.8c0.5,2.3,0.8,4.6,1.3,6.9c0.5,2.5-1.4,4.3-3.7,4.1c-2.3-0.2-4.5-0.1-6.8-0.3
		c-2-0.2-3-1.7-2.2-3.5c0.3-0.6,0.2-0.9-0.3-1.3C17.9,25.5,17.1,24.8,16.4,24.1z"/>
	<path class="st4" d="M42.4,16.2c1.4,0,2.3,0.9,3.2,1.8c0.7,1.2,2.1,2,2.3,3.6c0.2,1.4-0.1,2.6-1.2,3.5c-0.4,0.3-0.7,0.7-1.1,0.9
		c-0.8,0.4-0.9,0.8-0.5,1.7c0.7,1.5-0.4,3.1-2,3.2c-2.7,0.3-5.3,0.3-8,0.2c-1.5,0-2.8-1.4-2.8-2.9c-0.1-1.2,0.3-2.4,0.5-3.5
		c0.3-1.6,0.6-3.2,1-4.8c0.4-1.6,2.1-2.3,3.5-1.5c0.8,0.5,1.2,0.2,1.7-0.2C40,17.3,40.9,16.2,42.4,16.2z"/>
	<path class="st5" d="M16.8,43.3c0.7,0.7,1.3,1.5,2,2.2c1.4,1.4,2.8,1.6,4.6,0.7c-0.3,1.2-0.9,1.6-2,1.4c-1.7-0.4-3.1-1.3-4.3-2.7
		C16.7,44.4,16.7,43.9,16.8,43.3z"/>
	<path class="st6" d="M48,29.4c-0.4-0.1-0.8-0.2-0.8-0.7c0-0.4,0.2-0.7,0.6-0.7c0.4,0,0.8,0.3,0.8,0.7C48.7,29.2,48.4,29.4,48,29.4z
		"/>
	<path class="st7" d="M36,41.2c-0.1-2-0.8-4-1-6c1.4,0.5,2.8,0.3,4.2,0.4c0.8,0,1.6,0,2.3,0.6c0.3,1.6,1.9,2.1,2.9,3.1
		c0.1,0.1,0.2,0.2,0.3,0.2c0.3,0.5,0,0.7-0.3,1c-0.7,0.8-1.6,1.5-2.3,2.2c-0.5,0.5-0.9,0.3-1.4-0.1c-0.5-0.5-1.2-1-1.7-1.5
		c-0.8-0.8-1.4-0.5-2,0C36.6,41.4,36.3,41.8,36,41.2z"/>
	<path class="st8" d="M36,41.2c0.8,0.2,1.2-0.4,1.6-0.8c0.4-0.5,0.7-0.3,0.9,0c0.6,0.9,1.7,1.4,2.3,2.2c0.2,0.2,0.5,0.4,0.7,0.2
		c1-1.1,2.4-1.8,3-3.3c1.2,1,1.2,1.3,0.3,2.4c-0.2,0.2-0.4,0.4-0.6,0.6c-2,2.7-2.1,1.4-4,0.1c-0.5-0.3-0.9-0.7-1.4-1.1
		c-0.8-0.7-1.5-0.8-2.2,0.1c-0.1,0.2-0.3,0.5-0.7,0.3C35.9,41.8,36,41.5,36,41.2z"/>
	<path class="st9" d="M41.5,36.2c-1.7-0.2-3.3-0.3-5-0.2c-0.6,0-1.2-0.2-1.5-0.7c0-0.9,0.6-0.7,1.2-0.7c2,0.1,4,0.2,6,0.2
		C42.2,35.4,41.5,35.6,41.5,36.2L41.5,36.2z"/>
	<path class="st7" d="M41.5,36.2c-0.1-0.7,0.6-0.9,0.7-1.5c0.3,0,0.4,0.1,0.2,0.4C42.1,35.5,41.8,35.8,41.5,36.2z"/>
	<path class="st7" d="M18.6,41c-0.5-0.7,0.2-1,0.5-1.3c0.8-0.7,1.7-1.4,2.6-2.2c0.8-0.7,0.9-1.3,0.1-2.1c-0.1-0.1-0.8-0.4-0.1-0.7
		c0.5,0.4,1.2,0.4,1.8,0.4c1.6,0,3.2-0.2,4.8,0.1c0.4,0.3,0.4,0.7,0.3,1.1c-0.4,1.2-0.7,2.5-1.1,3.7c-0.3,0.7-0.6,1-1.3,0.5
		c-0.8-0.6-1.5-0.3-2.1,0.3c-0.7,0.8-1.6,1.4-2.3,2c-0.4,0.3-0.8,0.8-1.5,0.5C19.8,42.6,18.8,42.1,18.6,41c0.1-0.1,0.2-0.1,0.2-0.1
		c1,1.1,1.5,0.4,2.1-0.4c0.7-1,1.6-1.7,2-2.9C21.4,38.6,20,39.8,18.6,41z"/>
	<path class="st8" d="M20.4,43.4c1.4-0.5,2.3-1.6,3.3-2.5c1.5-1.4,1.6-1.5,3.4-0.3c0.6-1.7,1.2-3.3,1.5-5.1c0-0.5-0.5-0.7-0.7-1
		c1.1-0.3,1.5,0,1.3,1.1c-0.4,2-0.7,4-1.1,6c0,0.2,0,0.4-0.2,0.5c-0.3,0.1-0.5-0.1-0.6-0.3c-0.8-1.1-1.6-1-2.5-0.1
		c-0.7,0.7-1.5,1.2-2.2,1.8C21.8,44.3,21.1,44.3,20.4,43.4z"/>
	<path class="st10" d="M27.8,34.5c0.6,0.1,1.4,0.1,0.7,1c-1.7,0-3.5-0.1-5.2,0c-0.8,0-1.2-0.1-1.5-0.8
		C23.8,34.7,25.8,34.6,27.8,34.5z"/>
	<path class="st7" d="M22.3,26.1c-0.8-1.1-1.9-1.7-2.9-2.6c-0.3-0.3-0.7-0.5-0.8-1c0.8,0,1.2-0.7,1.7-1.2c1.1-1.1,1.4-1.1,2.6-0.1
		c1,0.8,1.9,1.7,3.3,1.8c0.8,0.1,1,0.9,1.4,1.5c0.2,0.3,0.2,1.1,0.9,0.8c0.3,0.2,0.2,0.5,0.3,0.7c0.3,0.7-0.1,1-0.7,1
		c-1.6,0.1-3.2,0.1-4.9,0C22.5,27.1,22.4,26.6,22.3,26.1z"/>
	<path class="st11" d="M28.5,25.3c0,0.3,0,0.5,0,1c-0.8-0.7-1.1-1.5-1.5-2.3c-0.3-0.5-0.5-0.8-1.2-0.8c-1.3-0.1-2.1-1-3-1.8
		c-1.2-1-1.2-1-2.3,0.1c-0.2,0.3-0.5,0.5-0.7,0.8c-0.4,0.6-0.7,0.6-1.2,0.2c0,0,0,0,0,0c0.3-1.5,1.5-2.3,2.5-3.3
		c0.3-0.3,0.6-0.1,0.9,0.1c1.1,0.7,1.9,1.7,2.9,2.5c0.8,0.6,1.4,0.8,2.1-0.1c0.4-0.5,0.7-0.4,0.8,0.3c0.2,0.7,0.1,1.5,0.4,2.2
		C28.4,24.6,28.4,25,28.5,25.3z"/>
	<path class="st12" d="M22.3,26.1c0.2,0.5,0.5,0.8,1.2,0.7c1.5-0.1,2.9,0,4.4,0c0.5,0,0.9-0.1,0.9-0.7c0.4,0.5,0.3,1.2,0.4,1.7
		c0.1,0.6-0.4,1-1,0.9c-2-0.4-4.1-0.1-6.1-0.2c-0.2,0-0.5,0.1-0.6-0.2c-0.1-0.3,0.1-0.5,0.3-0.6C22.3,27.3,22.3,26.7,22.3,26.1z"/>
	<path class="st7" d="M28.3,24.2c-0.4-0.7-0.3-1.4-0.5-2.1c-0.1-0.6-0.4-0.6-0.7-0.2c-0.7,1-1.5,0.7-2.2,0c-0.9-0.8-1.9-1.4-2.7-2.3
		c-0.6-0.7-1.1-0.4-1.5,0.1c-0.7,0.9-1.8,1.6-2.1,2.8c-0.2-0.1-0.2-0.3-0.1-0.5c0.2-0.4,0.5-0.8,0.8-1.2c2.2-2.5,2.2-2.5,4.6-0.2
		c1.9,1.8,1.9,1.8,3.8,0.3C28.1,22,28.3,23.1,28.3,24.2z"/>
	<path class="st12" d="M35.9,22.5c0-0.3,0-0.6,0-0.8c0-0.3,0-0.6,0.3-0.7c0.2,0,0.4,0.2,0.6,0.4c0.7,1,1.4,0.9,2.2,0.1
		c0.9-0.8,1.8-1.5,2.6-2.2c0.7-0.6,1.3-0.5,1.9,0.1c0.5,0.6,1,1.2,1.5,1.8c0.8,0.9,0.5,1.6-0.3,2.2c-0.7,0.5-1.4,1.1-2.1,1.6
		c-1.3,1-1.3,1.7-0.3,2.8c0.1,0.1,0.2,0.3,0.5,0.6c-1.5,0-2.9,0-4.2,0c-0.6,0-1.3,0-1.9,0c-2.1,0.2-2.2,0.1-1.7-1.9
		C35.3,25.3,35.4,23.8,35.9,22.5c0.6,0.8,0.1,1.6,0,2.4c0,0.5-0.5,1.1,0.1,1.6c0.1,0,0.2,0,0.2,0c2.1,0.3,4-0.2,5.3-2
		c0.7-1,1.9-1.6,2.7-2.5c0.1-1.1-0.9-1.6-1.5-2.2c-0.5-0.5-1,0.2-1.4,0.5c-0.8,0.5-1.4,1.3-2.2,1.8c-0.6,0.4-1.4,0.6-2,0.3
		C36.7,22.2,36.3,22.2,35.9,22.5z"/>
	<path class="st13" d="M18.6,41c0.1-1.1,1.3-1.3,1.9-2c0.6-0.6,1.4-1.1,1.9-1.8c0.2-0.3,0.4-0.2,0.7-0.1c0.3,0.2,0.4,0.5,0.2,0.7
		c-1.1,1.4-2.2,2.8-3.4,4.2c-0.3,0.3-0.5,0-0.7-0.2C19.1,41.6,19,41.1,18.6,41C18.6,41,18.6,41,18.6,41z"/>
	<path class="st7" d="M44.6,22c-1.6,1.5-3.1,3-4.7,4.6c-0.4,0.4-1,0.2-1.5,0.3c-0.8,0-1.7,0-2.5,0c-0.3-0.6,0.1-0.9,0.4-1.2
		c1.8-1.5,3.6-3.1,5.5-4.6C43.3,19.9,44,20.2,44.6,22z"/>
	<path class="st9" d="M44.6,22c-1.4-1.8-1.4-1.8-3-0.5c-1.7,1.4-3.3,2.8-4.9,4.1c-0.4,0.3-0.7,0.6-0.8,1.1c-0.5,0.1-0.6,0-0.5-0.5
		c0.1-1.3,0.7-2.5,0.5-3.8c0,0,0,0,0,0c0.4-0.3,0.1-0.8,0.4-1.1c1.5,1.2,2.1,1.2,3.7-0.3c0.6-0.6,1.3-1.1,2-1.7c0,0,0.1-0.1,0.1-0.1
		c0.5-0.5,0.8-0.2,1.2,0.2C44.6,20.9,45,21.5,44.6,22z"/>
</g>
</svg>
