<?xml version="1.0" encoding="utf-8"?>
<!-- Generator: Adobe Illustrator 23.0.2, SVG Export Plug-In . SVG Version: 6.00 Build 0)  -->
<svg version="1.1" id="Camada_1" xmlns="http://www.w3.org/2000/svg" xmlns:xlink="http://www.w3.org/1999/xlink" x="0px" y="0px"
	 viewBox="0 0 63.64 64.35" style="enable-background:new 0 0 63.64 64.35;" xml:space="preserve">
<style type="text/css">
	.st0{fill:#323232;}
	.st1{fill:#005776;}
	.st2{fill:#149AB4;}
	.st3{fill:#107B9A;}
	.st4{fill:#24B0DB;}
	.st5{fill:#58DEFE;}
	.st6{fill:#47D3FE;}
</style>
<g>
	<path class="st0" d="M63.64,10.33c0,14.72,0,29.44,0,44.16c-0.38,0.9-0.38,1.86-0.5,2.8c-0.46,3.51-3.01,6.13-6.5,6.66
		c-1.66,0.25-3.32,0.39-5,0.39c-13.42-0.02-26.85-0.01-40.27-0.01c-3.78,0-7.33-0.53-9.69-4.03c-1.64-2.42-1.54-5.22-1.57-7.86
		c-0.14-13.5-0.13-27.01-0.01-40.51c0.02-2.42-0.06-4.98,1.2-7.24c2.15-3.86,5.69-4.83,9.76-4.68c13.77,0,27.53,0,41.29,0
		c2.43,0.19,4.92-0.03,7.09,1.52c2.18,1.56,3.73,3.39,3.79,6.26C63.24,8.62,63.19,9.54,63.64,10.33z"/>
	<path class="st1" d="M53.5,9.01c1.44,0.78,1.46,2.22,1.47,3.54c0.04,13.09,0.05,26.19,0,39.28c-0.01,3.06-0.68,3.62-3.67,3.62
		c-13.01,0-26.03,0-39.04,0c-1.37,0-2.86,0.18-2.91-1.88c1.86-2.3,4.12-4.19,6.27-6.2c0.6-0.57,1.37-0.79,2.21-0.8
		c3.81-0.6,7.65-0.24,11.47-0.29c4.23-0.06,8.45,0,12.68-0.02c3.66-0.01,3.83-0.16,3.83-3.74c0.02-6.86,0.01-13.72,0-20.58
		c0-1.36,0.06-2.71,0.31-4.04c0.02-0.72,0.08-1.47,0.6-2C48.94,13.57,50.74,10.82,53.5,9.01z"/>
	<path class="st2" d="M53.5,9.01c-1.14,2.46-3.09,4.26-4.94,6.14c-0.6,0.61-1.16,1.27-1.74,1.9c-0.22,0.21-0.47,0.39-0.75,0.53
		c-1.47,0.41-2.98,0.5-4.5,0.5c-6.54-0.02-13.08-0.01-19.63,0c-1.36,0-2.71-0.07-4.04-0.31c-0.8-0.01-1.58-0.17-2.19-0.72
		c-2.2-2-4.43-3.97-6.36-6.25c0.04-1.41,0.8-1.94,2.17-1.93C25.52,8.94,39.51,8.97,53.5,9.01z"/>
	<path class="st3" d="M9.36,10.81c1.28-0.13,1.97,0.79,2.77,1.55c1.64,1.58,3.3,3.13,4.95,4.7c0.21,0.23,0.39,0.48,0.53,0.76
		c0.41,1.47,0.5,2.98,0.5,4.5c-0.02,6.55-0.02,13.09,0,19.64c0,1.52-0.09,3.03-0.47,4.51c-0.13,0.29-0.3,0.54-0.51,0.77
		c-1.72,1.64-3.46,3.26-5.16,4.92c-0.75,0.73-1.45,1.49-2.62,1.42c-0.55-0.96-0.42-2.02-0.42-3.05c-0.01-12.31-0.01-24.62,0-36.93
		C8.93,12.66,8.74,11.67,9.36,10.81z"/>
	<path class="st4" d="M17.13,47.24c0.01-0.17,0.01-0.33,0.02-0.5c0.51-1.37,1.41-2.44,2.44-3.46c3.92-3.93,7.94-7.77,11.72-11.84
		c3.99-4.73,8.61-8.84,12.94-13.23c0.57-0.58,1.43-0.66,2.07-1.14c0.16-0.01,0.33-0.01,0.49-0.02c0,9.27-0.04,18.55,0.05,27.82
		c0.02,1.85-0.46,2.48-2.39,2.46C35.36,47.22,26.25,47.26,17.13,47.24z"/>
	<path class="st5" d="M46.33,17.08c-3.34,4.04-7.33,7.45-10.93,11.24c-1.15,1.21-2.29,2.41-3.44,3.62
		c-1.24,0.41-1.93-0.48-2.64-1.18c-3.51-3.44-6.94-6.94-10.44-10.39c-0.82-0.81-1.26-1.81-1.72-2.81c-0.02-0.16-0.05-0.32-0.07-0.49
		C26.83,17.07,36.58,17.07,46.33,17.08z"/>
	<path class="st6" d="M17.15,17.55c4.23,4.17,8.45,8.34,12.68,12.5c0.67,0.66,1.41,1.26,2.12,1.89c-4.73,5.14-9.68,10.06-14.8,14.81
		C17.15,37.01,17.15,27.28,17.15,17.55z"/>
</g>
</svg>
