<?xml version="1.0" encoding="utf-8"?>
<!-- Generator: Adobe Illustrator 23.0.2, SVG Export Plug-In . SVG Version: 6.00 Build 0)  -->
<svg version="1.1" id="Camada_1" xmlns="http://www.w3.org/2000/svg" xmlns:xlink="http://www.w3.org/1999/xlink" x="0px" y="0px"
	 viewBox="0 0 62.5 62.6" style="enable-background:new 0 0 62.5 62.6;" xml:space="preserve">
<style type="text/css">
	.st0{fill:#323232;}
	.st1{fill:#FEFEFE;}
	.st2{fill:#00C8F6;}
	.st3{fill:#00689D;}
	.st4{fill:#CA5600;}
	.st5{fill:#7AEBFE;}
	.st6{fill:#6BE7FD;}
	.st7{fill:#64E5FD;}
	.st8{fill:#FEBB00;}
	.st9{fill:#FE9000;}
	.st10{fill:#FCDC7A;}
</style>
<g>
	<path class="st0" d="M31.3,0c17.5,0.3,31.3,13.8,31.2,31.6C62.4,49,48.8,62.8,30.8,62.6C13.6,62.4-0.3,48.8,0,30.8
		C0.3,13.6,13.7,0.2,31.3,0z"/>
	<path class="st1" d="M31.2,56.9C17.3,57.1,5.5,45.3,5.7,31C5.8,17.3,17.4,5.4,31.9,5.7c13.6,0.3,25.3,11.7,25,26.2
		C56.5,45.7,45,57.1,31.2,56.9z"/>
	<path class="st2" d="M51.5,22.5c2.3,4.3,2.5,9,1.5,13.6c-3.4,15.2-20.5,22.2-33.7,13.9c-2.3-1.5-4.4-3.3-5.9-5.6
		c-3.8-9-0.1-20.3,8-25.9c4.1-2.9,8.7-4.3,13.6-4.2c6.1,0.2,11.3,2.5,15.6,6.9C51,21.6,51.2,22.1,51.5,22.5z"/>
	<path class="st3" d="M51.5,22.5c-1.4-1.2-2.7-2.6-4.3-3.7c-4.2-3-8.9-4.4-14-4.1c-10.4,0.5-18.8,8.2-20.7,18
		c-0.7,3.7-0.4,7.3,0.6,10.9c0.1,0.3,0.1,0.6,0.2,0.9c-2.7-3.3-4-7.1-4.3-11.3c-0.5-7.1,1.8-13.1,7-18.1c6-5.7,15.7-7.6,23.4-4.5
		c4.8,2,8.5,5.2,11.2,9.6C51,20.9,51.4,21.7,51.5,22.5z"/>
	<path class="st4" d="M31.4,31.9c0,3,0,6,0,9c0,2.2-1.1,3.3-3.3,3.3c-1.4,0-2.8,0-4.2,0c-1.8,0-3-1.2-3-3c0-6.2,0-12.5,0-18.7
		c0-1.8,1.2-3,3-3c1.4,0,2.9,0,4.3,0c2.1,0,3.2,1.1,3.2,3.2C31.4,25.7,31.4,28.8,31.4,31.9z"/>
	<path class="st4" d="M32.1,31.7c0-3,0-6.1,0-9.1c0-2,1.2-3.2,3.2-3.2c1.4,0,2.9,0,4.3,0c1.8,0,3,1.2,3,3c0,6.2,0,12.5,0,18.7
		c0,1.8-1.2,3-3,3c-1.4,0-2.9,0-4.3,0c-2.1,0-3.2-1.1-3.2-3.2C32.1,37.9,32.1,34.8,32.1,31.7z"/>
	<path class="st5" d="M18.2,42.9c2.5,0,3.9,1.2,5,2.9c0.3,0.4,0.3,0.8,0,1.2c-0.3,0.5-0.9,0.7-1.4,0.6c-2-0.4-3.7-1.3-4.8-3
		C16.3,43.6,16.9,42.9,18.2,42.9z"/>
	<path class="st5" d="M48,23.5c0,0.7,0.1,1.4-0.8,1.7c-0.8,0.2-1.4-0.1-1.8-0.8c-0.6-1-1.2-1.9-1.4-3.1c-0.1-0.6-0.1-1.2,0.4-1.6
		c0.7-0.4,1.3-0.2,1.9,0.2C47.5,20.8,47.9,22.1,48,23.5z"/>
	<path class="st6" d="M47.9,28.1c0.4,0.1,0.8,0.3,0.8,0.8c0,0.4-0.3,0.6-0.7,0.5c-0.4-0.1-0.7-0.2-0.7-0.7
		C47.2,28.3,47.5,28.2,47.9,28.1z"/>
	<path class="st7" d="M16.9,40c0,0.3-0.3,0.5-0.6,0.5c-0.4,0-0.7-0.3-0.7-0.6c0-0.3,0.3-0.5,0.6-0.5C16.6,39.4,16.8,39.7,16.9,40z"
		/>
	<path class="st8" d="M23.3,34.3c0-3.8,0-7.6,0-11.4c0-0.7,0.2-1.1,1-1.1c1.2,0,2.5,0,3.7,0c0.8,0,1,0.3,1,1.1c0,3.8,0,7.6,0,11.4
		c-0.3,0.3-0.8,0.4-1.2,0.4C26.3,34.6,24.7,35.1,23.3,34.3z"/>
	<path class="st9" d="M23.3,34.3c1.9,0,3.8,0,5.7,0c0,2.1,0,4.2,0,6.3c0,0.8-0.3,1.2-1.1,1.1c-1.2,0-2.4,0-3.6,0
		c-0.8,0-1.1-0.3-1.1-1.1C23.3,38.5,23.2,36.4,23.3,34.3z"/>
	<path class="st8" d="M34.5,34.3c0-3.8,0-7.6,0-11.4c0-0.7,0.2-1.1,1-1.1c1.2,0,2.5,0,3.7,0c0.8,0,1,0.3,1,1.1c0,3.7,0,7.4,0,11.1
		C38.4,34.7,36.5,35.1,34.5,34.3z"/>
	<path class="st9" d="M34.5,34.3c1.9,0.2,3.8-0.2,5.7-0.2c0,2.2,0,4.4,0,6.6c0,0.8-0.3,1.2-1.1,1.1c-1.2,0-2.4,0-3.6,0
		c-0.8,0-1.1-0.3-1.1-1.1C34.5,38.5,34.5,36.4,34.5,34.3z"/>
	<path class="st10" d="M26.1,22.1c0.6,0,1.1,0,1.7,0c0.6,0,0.9,0.2,1,0.9c0,0.7-0.3,0.9-0.9,1c-1.2,0-2.4,0-3.6,0.1
		c-0.6,0-0.9-0.2-0.9-0.8c0-0.6,0-1.1,0.8-1.1C24.9,22.1,25.5,22.1,26.1,22.1C26.1,22.1,26.1,22.1,26.1,22.1z"/>
	<path class="st10" d="M37.3,23.8c-0.6,0-1.1,0-1.7,0c-0.5,0-0.9,0-0.9-0.7c0-0.7,0.2-1,1-1c1.1,0,2.3,0,3.4,0
		c0.6,0,0.9,0.3,0.9,0.9c0,0.7-0.3,0.9-1,0.8C38.5,23.8,37.9,23.8,37.3,23.8z"/>
</g>
</svg>
