<?xml version="1.0" encoding="utf-8"?>
<!-- Generator: Adobe Illustrator 23.0.2, SVG Export Plug-In . SVG Version: 6.00 Build 0)  -->
<svg version="1.1" id="Camada_1" xmlns="http://www.w3.org/2000/svg" xmlns:xlink="http://www.w3.org/1999/xlink" x="0px" y="0px"
	 viewBox="0 0 130.93 56.97" style="enable-background:new 0 0 130.93 56.97;" xml:space="preserve">
<style type="text/css">
	.st0{fill:#323232;}
	.st1{fill:#FDFDFD;}
	.st2{fill:#9D403B;}
	.st3{fill:#D85D5E;}
</style>
<g>
	<path class="st0" d="M0,41.84c0-9.01,0.01-18.03,0.01-27.04C0.97,8.54,4.49,4.46,10.5,2.51C14.25,1.29,18.03,0.25,21.99,0
		c1.26,0.02,2.51,0.05,3.77,0.05c27.44,0.01,54.88,0.01,82.32,0.01c0.36,0,0.71-0.04,1.07-0.06c4.71,0.19,9.2,1.45,13.53,3.13
		c5.34,2.07,8.45,8.04,8.24,13.87c-0.28,7.54-0.32,15.12-0.03,22.66c0.25,6.43-2.63,10.77-7.96,13.71c-2.45,1.35-5.33,1.7-8.01,2.49
		c-4.09,1.2-8.26,1.12-12.45,1.12c-25.96-0.02-51.92-0.01-77.89-0.01c-5.71,0-11.23-1.39-16.35-3.53C3.46,51.43,0.61,47.22,0,41.84z
		"/>
	<path class="st1" d="M65.57,48.11c-12.71,0-25.43-0.07-38.14,0.04c-4.73,0.04-9.27-0.78-13.76-2.05c-3.51-0.99-4.73-2.71-4.73-6.41
		c0.01-7.44,0.12-14.88-0.04-22.31c-0.1-4.89,2.34-6.09,5.29-7.02c3.51-1.11,7.17-1.69,10.91-1.69c27.05,0.03,54.1,0.02,81.15,0.01
		c4.03,0,7.96,0.64,11.73,2.05c3.54,1.32,4.32,3.1,4.15,6.83c-0.24,5.27-0.11,10.55-0.14,15.83c-0.01,2.16-0.09,4.32,0.02,6.48
		c0.18,3.56-1.28,5.22-4.7,6.26c-4.22,1.28-8.56,2.05-13.05,2.02C91.36,48.04,78.47,48.11,65.57,48.11z"/>
	<path class="st2" d="M65.69,12.21c15.11,0,30.23,0.01,45.34-0.01c2.01,0,3.92,0.49,5.77,1.16c1.71,0.62,2.24,2.21,2.25,3.78
		c0.08,7.8,0.04,15.59,0.03,23.39c0,1.83-1.25,2.69-2.76,3.1c-2.18,0.59-4.38,1.17-6.68,1.16c-29.45,0-58.9,0.01-88.35-0.02
		c-2.27,0-4.51-0.43-6.65-1.23c-1.64-0.61-2.47-1.68-2.45-3.53c0.05-7.62,0.01-15.23,0.03-22.85c0.01-2.31,0.84-3.36,3.03-4.07
		c1.89-0.61,3.8-0.91,5.81-0.9C35.94,12.23,50.81,12.21,65.69,12.21z"/>
	<path class="st3" d="M65.71,16.98c14.52,0,29.04,0.02,43.55-0.03c1.34,0,2.59,0.37,3.91,0.44c0.86,0.04,1.01,0.68,1.01,1.41
		c0,6.36-0.01,12.72,0.01,19.08c0,0.88-0.37,1.36-1.21,1.48c-1.53,0.23-3.06,0.63-4.59,0.63c-28.44,0.04-56.87,0.04-85.31,0
		c-1.7,0-3.42-0.15-5.06-0.8c-0.78-0.31-1.09-0.72-1.08-1.58c0.03-6.24,0.03-12.48,0.01-18.72c0-1.04,0.4-1.4,1.46-1.58
		c2.5-0.41,5.01-0.34,7.52-0.34C39.2,16.97,52.46,16.98,65.71,16.98z"/>
</g>
</svg>
