<?xml version="1.0" encoding="utf-8"?>
<!-- Generator: Adobe Illustrator 23.0.2, SVG Export Plug-In . SVG Version: 6.00 Build 0)  -->
<svg version="1.1" id="Camada_1" xmlns="http://www.w3.org/2000/svg" xmlns:xlink="http://www.w3.org/1999/xlink" x="0px" y="0px"
	 viewBox="0 0 150.65 188.23" style="enable-background:new 0 0 150.65 188.23;" xml:space="preserve">
<style type="text/css">
	.st0{fill:#323232;}
	.st1{fill:#FEFEFE;}
	.st2{fill:#1C1C1C;}
	.st3{fill:#1D1D1D;}
	.st4{fill:#1E1E1E;}
</style>
<g>
	<path class="st0" d="M0,107.16c0.99-2.37,0.29-4.89,0.65-7.33c1.41-9.55,4.86-18.46,8.21-27.42c4.48-11.99,8.75-24.07,13.35-36.01
		c1.96-5.1,3.31-10.5,6.7-14.98c7.12-9.42,20.66-11.56,29.8-4.62c2.64,2.01,4.42,4.86,6.05,7.66c1.36,2.33,2.62,4.7,4.22,6.9
		c1.22,1.68,1.64,3.76,2.12,6.09c4.5-3.27,8.76-6.35,13-9.45c11.67-8.53,23.28-17.15,35.03-25.58c3.76-2.7,8.26-2.72,12.67-2.06
		c9.63,1.45,14.89,8.69,15.7,17.39c0.56,5.96-1.31,11.82-6.67,15.8c-10.46,7.75-20.85,15.59-31.32,23.32
		c-1.29,0.95-1.04,1.52-0.02,2.24c3.06,2.17,5.6,4.98,7.15,8.25c1.9,4.01,5.31,7.21,6.2,11.71c0.12,0.59,0.36,0.98,0.87,1.33
		c5.44,3.7,7.68,9.81,11.29,14.9c3.89,5.49,4.77,12.36,8.98,17.76c1.91,2.45,3.62,5.38,5,8.31c2.31,4.94,2.24,10.17-0.14,14.81
		c-3.39,6.62-6.92,13.32-13.31,17.79c-3.53,2.47-6.99,5.05-10.47,7.59c-7.74,5.64-15.5,11.27-23.22,16.95
		c-6.44,4.73-13.85,7.11-21.51,8.7c-12.27,2.54-23.88,0.19-34.91-5.44c-5.52-2.82-10.02-7.02-14.75-10.94
		c-6.46-5.35-10.79-12.43-15.25-19.25C8.51,141.04,3.37,129.58,1.26,117c-0.41-2.43-0.9-4.86-0.81-7.36c0.02-0.67,0.27-1.46-0.44-2
		C0,107.48,0,107.32,0,107.16z"/>
	<path class="st1" d="M130.51,111.13c3.37,2.01,5.97,4.67,7.03,8.55c0.25,0.9,0.18,1.89,0.26,2.83c0.64,1.81-0.33,3.31-1.12,4.71
		c-1.56,2.78-3.39,5.41-4.99,8.18c-0.84,1.45-1.99,2.7-3.37,3.7c-11.97,8.69-23.7,17.7-36.01,25.91
		c-10.18,6.79-21.43,9.36-33.58,7.35c-8.57-1.41-16.05-5.2-22.66-10.78c-2.32-1.96-4.59-3.96-6.76-6.08
		c-1.85-2.59-3.54-5.32-5.58-7.75c-4.6-5.47-7.18-12.02-10-18.42c-2.87-6.52-4.41-13.36-4.69-20.54
		c-0.25-6.52,0.58-12.86,2.73-18.95C16.16,77.38,20.79,65,25.38,52.61c2.84-7.65,5.72-15.27,8.73-22.85
		c2.93-7.4,11.14-10.77,17.81-6.99c4.38,2.48,6.62,6.74,6.66,11.93c0.01,0.63-0.02,1.27-0.04,1.9c0.1,2.92-1.05,5.57-1.79,8.3
		c-1.44,5.29-3.5,10.4-4.83,15.95c2.72-1.24,4.45-3.65,7.17-4.43c7.44-4.66,14.38-10.02,21.48-15.17
		c14.46-10.49,28.83-21.12,43.27-31.64c4.28-3.12,12.64,0.39,14.41,5.78c1.33,4.05-0.14,9.52-3.99,12.25
		c-10.93,7.74-21.57,15.89-32.29,23.91c-3.68,2.75-7.3,5.58-10.92,8.41c-1.05,0.82-1.11,3.9-0.16,4.7c0.71,0.6,1.14-0.19,1.67-0.4
		c2.88-1.1,6.1-2.12,8.72-0.42c4.23,2.74,8.3,5.95,9.22,11.51c0.04,0.22,0.21,0.42,0.32,0.63c1.16,2.04,0.22,3.99-0.35,5.91
		c-0.42,1.42-1.18,2.73-1.71,4.22c2.03,0.36,3.98-1.38,5.95-0.09c5.76,1.7,12.21,9.61,12.56,15.39c0.76,1.24,0,2.31-0.43,3.38
		c-0.62,1.55-1.46,3.01-2.27,4.66C126.69,109.74,128.92,109.41,130.51,111.13z"/>
	<path class="st2" d="M29.32,155.51c0.98-0.1,1.53,0.48,2.19,1.13c5.8,5.69,12.17,10.56,19.96,13.23
		c11.22,3.85,22.31,3.23,33.19-1.37c8.87-3.75,15.95-10.25,23.75-15.65c5.91-4.09,11.55-8.59,17.48-12.66
		c3.55-2.44,5.68-5.88,7.9-9.35c1.68-2.62,3.43-5.19,4.03-8.32c0.45-0.41,0.75-0.94,1.48-0.17c2.97,3.12,3.45,7.8,1.1,11.65
		c-1.61,2.64-3.63,4.98-4.99,7.81c-1.28,2.65-3.86,4.16-6.18,5.83c-11.67,8.42-23.06,17.22-35.06,25.18
		c-5.64,3.75-12.16,5.42-18.82,6.31c-11.48,1.53-21.8-1.87-30.98-8.44c-5.38-3.85-10.65-8.03-14.43-13.69
		C29.6,156.53,29.26,156.11,29.32,155.51z"/>
	<path class="st3" d="M59.09,56.41c-2.24,1.77-4.48,3.54-6.73,5.31c-0.31,0.24-0.62,0.54-1.05,0.27c-0.69-0.45-0.22-0.96-0.06-1.46
		c1.61-5.16,3.22-10.32,4.81-15.48c0.86-2.81,1.66-5.63,2.49-8.45c1.05-0.95,0.19-2.28,0.74-3.53c3.05,3.44,4.34,7.11,2.94,11.62
		C61.03,48.55,60.12,52.5,59.09,56.41z"/>
	<path class="st4" d="M130.51,111.13c-2.29-0.73-4.61-1.23-7.14-0.64c1.5-3.07,3.27-5.84,3.9-9.09c2.11,0.67,4.65,5.32,4.05,7.52
		C131.12,109.67,130.79,110.39,130.51,111.13z"/>
	<path class="st3" d="M114.72,86c-1.18,0.16-2.36,0.29-3.53,0.49c-1.08,0.18-2.14,0.43-3.66,0.75c1.59-3.84,3.52-7.28,3.3-11.27
		C114.1,78.55,115.18,81.97,114.72,86z"/>
</g>
</svg>
