<?xml version="1.0" encoding="utf-8"?>
<!-- Generator: Adobe Illustrator 23.0.2, SVG Export Plug-In . SVG Version: 6.00 Build 0)  -->
<svg version="1.1" id="Camada_1" xmlns="http://www.w3.org/2000/svg" xmlns:xlink="http://www.w3.org/1999/xlink" x="0px" y="0px"
	 viewBox="0 0 106.65 106.95" style="enable-background:new 0 0 106.65 106.95;" xml:space="preserve">
<style type="text/css">
	.st0{fill:#323232;}
	.st1{fill:#316729;}
	.st2{fill:#74CA6E;}
	.st3{fill:#2F6924;}
	.st4{fill:#205512;}
	.st5{fill:#DBD92E;}
	.st6{fill:#15591C;}
	.st7{fill:#D6D62E;}
	.st8{fill:#165A1C;}
	.st9{fill:#185B1C;}
	.st10{fill:#1E5E1E;}
	.st11{fill:#24621E;}
	.st12{fill:#C0C72C;}
</style>
<g>
	<path class="st0" d="M-64.35,11.95c0,0.36,0,0.72,0,1.08c-0.4,2.97-0.08,5.96-0.18,8.94c0.04,9.49-3.05,17.91-8.31,25.74
		c-5.65,8.41-13.12,14.55-22.17,18.88c-5.68,2.71-11.57,4.61-18,4.23c-3.08,0-6.16,0-9.24,0c-9.55,0.33-17.73-3.46-25.49-8.47
		c-8.23-5.31-14.29-12.58-18.55-21.29c-2.99-6.13-4.82-12.63-4.63-19.58c0.11-4.02-0.33-8.06,0.13-12.04
		c1.03-8.88,4.39-16.86,9.77-24.02c6.72-8.95,15.42-14.99,25.87-18.94c5.09-1.92,10.17-2.52,15.48-2.39
		c3.6,0.09,7.2-0.18,10.79,0.11c5.17,0.41,9.85,2.51,14.45,4.67c6.57,3.09,12.38,7.3,17.17,12.82c7.02,8.07,11.69,17.21,12.72,28
		C-64.47,10.42-64.74,11.21-64.35,11.95z"/>
	<path class="st1" d="M-117.52-27c2.98,0.28,6.05-0.48,8.95,0.41c7.7,2.35,14.97,5.55,21,11.13c3.59,3.33,6.78,7,9.03,11.29
		c3.05,5.82,5.48,11.87,5.24,18.71c-0.2,5.73,0.29,11.48-1.79,17.04c-2.05,5.47-4.72,10.53-8.55,14.99
		c-3.47,4.05-7.46,7.48-12.16,9.93c-5.87,3.06-11.83,6.05-18.8,5.52c-1.61-0.12-3.24-0.12-4.85,0.01c-4.7,0.35-9.07-0.68-13.44-2.39
		c-5.94-2.32-11.33-5.51-15.83-9.95c-4.53-4.46-7.88-9.73-10.5-15.65c-3.44-7.8-2.85-15.84-2.54-23.85
		c0.17-4.3,2.11-8.38,4.02-12.33c2.16-4.47,5.09-8.36,8.5-11.89c2.75-2.85,5.94-5.17,9.4-7.12c3.86-2.18,7.97-3.77,12.13-5.21
		C-124.38-27.52-120.91-26.69-117.52-27z"/>
	<path class="st2" d="M-153.53,13.37C-153.6,7.55-149.79-1-142.7-8.07c6.92-6.91,15.53-10.41,25.17-10.39
		c9.64,0.03,18.22,3.58,25.12,10.52c6.97,7.02,10.64,15.49,10.69,25.45c0.09,19.62-15.94,36.14-36.09,36.06
		C-137.57,53.5-153.56,37.18-153.53,13.37z"/>
	<path class="st3" d="M-123,15.5c0.58,1.1,1.15,0.6,1.71-0.02c1.93-1.67,2.92-4.03,4.35-6.05c3.85-5.47,8.21-10.4,13.9-14.03
		c1.93-1.23,3.88-2.41,6.34-1.38c1.5,0.63,2.47,1.61,2.67,3.28c0.31,2.58-0.38,5.1-0.48,7.65c-0.08,2.16-0.09,4.26,0.73,6.33
		c1.31,3.28,0.29,5.47-2.91,7.01c-3.58,1.73-6.3,4.56-8.91,7.43c-3.53,3.89-6.85,7.97-9.75,12.38c-0.59,0.9-1.19,1.8-1.73,2.73
		c-2.1,3.64-6.2,3.73-9.01,0.3c-3.89-4.74-8.25-8.98-13.67-12.01c-0.82-0.46-1.78-0.53-2.53-1.27c-2.16-2.14-2.14-5.85,0.36-7.54
		c3.71-2.51,7.54-4.86,11.47-7.01c2.51-1.37,4.44-0.82,6.36,1.35C-123.78,14.98-123.56,15.47-123,15.5z"/>
	<path class="st4" d="M-123,15.5c-0.28,0.89-0.68,0.68-1.08,0.1c-2.21-3.24-4.64-2.82-7.6-1c-3.11,1.91-6.19,3.88-9.35,5.72
		c-1.9,1.11-2.35,2.78-2.14,4.75c0.19,1.74,1.35,2.52,2.9,3.25c3.1,1.45,5.87,3.5,8.32,5.9c2.27,2.22,4.58,4.39,6.6,6.86
		c2.44,2.97,5.75,2.68,7.86-0.61c4.15-6.48,8.8-12.55,14.31-17.92c2.01-1.96,4.14-3.78,6.73-5.03c2.46-1.19,3.34-3.24,2.29-5.65
		c-1.4-3.19-1.24-6.42-0.68-9.68c0.21-1.2,0.23-2.38,0.23-3.57c0.01-3.58-2.27-5.2-5.67-4.03c-2.55,0.88-4.56,2.59-6.6,4.26
		c-5.32,4.35-9.09,9.96-12.83,15.6c-0.31,0.47-0.37,1.79-1.6,1.03c4.94-8.71,10.93-16.46,19.76-21.61c1.9-1.11,3.88-1.26,5.78-0.05
		c1.97,1.25,2.64,3.14,2.38,5.42C-93.63,1.63-94,4-93.96,6.4c0.02,1.68,0.16,3.3,0.72,4.93c1.28,3.69,0.21,5.9-3.37,7.48
		c-1.9,0.84-3.43,2.19-4.91,3.59c-5.76,5.48-10.75,11.58-14.91,18.36c-2.01,3.28-4.21,4.19-7.15,3.03
		c-1.35-0.53-2.15-1.69-3.06-2.72c-3.76-4.21-7.64-8.29-12.64-11.08c-0.63-0.35-1.29-0.64-1.93-0.95c-3.97-1.9-4.47-6.86-0.8-9.31
		c3.74-2.49,7.58-4.83,11.49-7.05C-127.55,11-124.62,12.21-123,15.5z"/>
	<path class="st5" d="M-99.99,14.47c-0.15,0.23-0.29,0.45-0.44,0.68c-0.52,1.4-1.92,1.93-2.94,2.78
		c-3.81,3.14-6.96,6.86-10.05,10.65c-2.14,2.63-4.15,5.37-5.94,8.26c-0.27,0.43-0.5,1-1.17,0.99c-0.45,0.42-0.66,1.13-1.42,1.17
		c-0.4,0.16-0.71-0.03-0.93-0.32c-3.79-4.97-8.33-9.1-13.66-12.36c-0.4-0.24-0.86-0.46-0.88-1.04c-0.44-0.68-1.63-0.41-1.79-1.44
		c-0.18-0.55,0.23-0.72,0.6-0.93c3.07-1.72,6.02-3.63,9.01-5.48c0.98-0.61,1.89-0.72,2.66,0.33c1.53,2.91,3.25,5.73,4.45,8.82
		c-0.04,0.61-0.1,1.29-0.84,1.4c-0.77,0.12-1.2-0.47-1.51-1.07c-0.98-1.92-1.9-3.87-2.9-5.78c-0.62-1.19-1.23-1.45-2.36-0.68
		c-1.34,0.9-2.77,1.67-4.14,2.53c-1.35,0.85-1.35,0.96-0.01,1.97c2.35,1.76,4.68,3.53,6.86,5.51c1.51,1.38,2.93,2.82,4.27,4.35
		c1.17,1.34,1.38,1.32,2.39-0.11c2.85-4.08,5.84-8.05,9.18-11.75c2.81-3.12,5.71-6.15,9.14-8.61c0.74-0.53,1.5-1.31,2.56-0.57
		C-99.76,14.02-99.78,14.26-99.99,14.47z"/>
	<path class="st6" d="M-123.02,26.7c-1.43-2.88-2.87-5.76-4.3-8.63c0.18-0.3,0.01-0.93,0.7-0.72c1.54,1.93,2.26,4.32,3.5,6.42
		c0.23,0.39,0.25,1.01,0.89,0.96c0.51-0.04,0.53-0.56,0.73-0.91c3.17-5.61,6.24-11.31,10.43-16.26c3.24-3.84,6.72-7.43,11.18-9.92
		c0.31-0.17,0.64-0.72,1.01-0.15c0.08,0.12-0.24,0.5-0.37,0.76c0.03,0.27-0.02,0.53-0.16,0.77c-2.52,1.98-5.07,3.91-7.35,6.21
		c-3.98,4.03-7.07,8.68-9.96,13.49c-1.54,2.56-2.87,5.23-4.11,7.95C-122.11,28-122.25,28-123.02,26.7z"/>
	<path class="st7" d="M-121.25,26.29c5.09-10.89,11.29-20.91,21.67-27.65c1.5-0.28,1.15,0.97,1.08,1.58
		c-0.12,1.07-0.04,2.17-0.28,3.19c-0.71,2.97,0.01,5.79,0.63,8.64c0.05,0.56-0.36,1.12-0.04,1.69c-0.53,0.41-1.11,0.7-1.79,0.73
		c0-0.24,0-0.49,0-0.73c-0.8-2.9-1.2-5.85-0.9-8.86c0.09-0.96,0.19-1.89-0.25-3.01c-2.86,2.06-5.25,4.47-7.41,7.08
		c-4.22,5.11-7.59,10.77-10.49,16.72c-0.24,0.48-0.44,0.99-0.79,1.4c-0.32,0.37-0.72,0.73-1.24,0.46
		C-121.63,27.25-121.44,26.75-121.25,26.29z"/>
	<path class="st8" d="M-120.52,37.82c5.1-8.26,11.1-15.75,18.74-21.83c0.41-0.33,0.91-0.56,1.36-0.84c0.8,0.12,1.37-0.73,2.22-0.53
		c0.03,0.73-0.58,0.84-1.01,1.07c-4.03,2.17-7.09,5.47-10.08,8.81c-3.83,4.28-7.27,8.87-10.34,13.73
		C-120.34,39.34-120.43,38.41-120.52,37.82z"/>
	<path class="st9" d="M-137.41,25.26c6.06,3.29,11.06,7.77,15.09,13.35c0.1,0.14,0.25,0.25,0.38,0.38c0.13,0.26,0.44,0.62,0.36,0.76
		c-0.26,0.45-0.64,0.14-0.86-0.09c-0.73-0.79-1.39-1.64-2.13-2.42c-4.13-4.35-8.42-8.51-13.77-11.39c-0.14-0.08-0.23-0.25-0.38-0.43
		C-138.31,24.97-137.82,25.41-137.41,25.26z"/>
	<path class="st10" d="M-98.25-0.68c0.41-0.11,0.35-0.92,0.87-0.72c0.46,0.18,0.28,0.74,0.27,1.13c-0.08,2.51-0.79,4.96-0.72,7.48
		c0.05,1.7,0.46,3.31,0.91,4.92c0.15,0.54,0.9,1.16,0.19,1.56c-0.79,0.45-0.57-0.89-1.18-1c-0.25,0.03-0.4-0.07-0.44-0.32
		c-1.51-4.23-0.89-8.52-0.3-12.8C-98.63-0.64-98.42-0.63-98.25-0.68z"/>
	<path class="st11" d="M-126.62,17.34c-0.23,0.24-0.47,0.48-0.7,0.72c-0.57-0.89-1.13-0.67-1.93-0.19c-3.3,2.02-6.49,4.22-9.96,5.95
		c-0.31,0.13-0.52,0.71-0.86,0.42c-0.42-0.36-0.04-0.77,0.25-1.06c1.45-1.47,3.43-2.13,5.08-3.28c1.6-1.12,3.38-1.99,4.95-3.15
		C-128.39,15.72-127.44,15.87-126.62,17.34z"/>
	<path class="st12" d="M-98.25-0.68c-0.9,4.45-1.17,8.9,0.1,13.33c-0.13,0.1-0.25,0.1-0.39,0.01c-1.54-4.01-1.08-8.11-0.55-12.22
		c0.09-0.67,0.56-1.44-0.49-1.8c0.1-0.14,0.2-0.27,0.31-0.41C-98.47-1.84-98.28-1.34-98.25-0.68z"/>
	<path class="st5" d="M-98.54,12.66c0.13,0,0.26-0.01,0.39-0.01c0.08,0.02,0.16,0.04,0.24,0.06c-0.05,0.36,0.17,0.79-0.28,1.04
		c-0.4-0.05-0.9,0.04-0.95-0.55C-99.17,12.83-98.83,12.74-98.54,12.66z"/>
	<path class="st12" d="M-121.25,26.29c0.1,0.32-0.05,0.78,0.41,0.9c0.37,0.09,0.51-0.23,0.63-0.51c1.99-4.64,4.58-8.94,7.36-13.14
		c3.09-4.67,6.78-8.81,11.22-12.25c0.38-0.3,0.84-0.92,1.39-0.56c0.47,0.3,0.02,0.88,0.04,1.33c0.11,3.25-0.41,6.54,0.47,9.76
		c0.19,0.67,0.07,1.31-0.26,1.91c-2.28,0.78-3.93,2.49-5.62,4.05c-5.78,5.34-10.65,11.48-15.04,17.98
		c-0.75,1.11-1.26,1.46-2.23,0.28c-3.72-4.51-8.22-8.15-13.02-11.43c-0.81-0.55-0.78-0.96,0-1.44c2.24-1.38,4.46-2.79,6.73-4.12
		c1.07-0.63,1.36,0.46,1.68,1.06c1.12,2.17,2.15,4.39,3.23,6.59c0.18,0.36,0.29,0.87,0.81,0.84c0.5-0.04,0.33-0.54,0.43-0.86
		C-122.05,28.24-121.73,26.94-121.25,26.29z"/>
</g>
</svg>
