<?xml version="1.0" encoding="utf-8"?>
<!-- Generator: Adobe Illustrator 23.0.2, SVG Export Plug-In . SVG Version: 6.00 Build 0)  -->
<svg version="1.1" id="Camada_1" xmlns="http://www.w3.org/2000/svg" xmlns:xlink="http://www.w3.org/1999/xlink" x="0px" y="0px"
	 viewBox="0 0 62.6 62.6" style="enable-background:new 0 0 62.6 62.6;" xml:space="preserve">
<style type="text/css">
	.st0{fill:#323232;}
	.st1{fill:#FEFEFE;}
	.st2{fill:#00C8F6;}
	.st3{fill:#00689D;}
	.st4{fill:#CA5600;}
	.st5{fill:#7AEBFE;}
	.st6{fill:#7AEAFD;}
	.st7{fill:#64E5FD;}
	.st8{fill:#6BE7FD;}
	.st9{fill:#FE9100;}
	.st10{fill:#FCDF82;}
	.st11{fill:#FEBA00;}
	.st12{fill:#FEBA01;}
	.st13{fill:#FE9200;}
	.st14{fill:#FD9300;}
	.st15{fill:#FDB902;}
	.st16{fill:#FEB900;}
	.st17{fill:#FE9101;}
	.st18{fill:#FBDD81;}
	.st19{fill:#FCD766;}
	.st20{fill:#FCD765;}
	.st21{fill:#C0241F;}
	.st22{fill:#01C8F6;}
	.st23{fill:#02C7F4;}
	.st24{fill:#78EAFE;}
	.st25{fill:#76E9FD;}
	.st26{fill:#04C6F1;}
	.st27{fill:#FE4F44;}
	.st28{fill:#FE7B73;}
</style>
<g>
	<path class="st0" d="M31.3,62.6C13.9,62.6-0.1,48.8,0,31.2C0.1,13.8,13.9-0.1,31.6,0c16.9,0.1,31.7,13.7,31,32.7
		C62,49.1,48.9,62.5,31.3,62.6z"/>
	<path class="st1" d="M31.3,56.9C17.4,57,5.6,45.3,5.7,31C5.9,17.3,17.4,5.4,31.9,5.7c13.6,0.3,25.3,11.7,25,26.2
		C56.6,45.7,45.1,57.1,31.3,56.9z"/>
	<path class="st2" d="M51.5,22.5c2.3,4.3,2.5,9,1.5,13.6C49.6,51.3,32.5,58.3,19.3,50c-2.3-1.5-4.4-3.3-5.9-5.6
		C11,38.7,11.6,33,14,27.5c0.2-0.5,0.3-1.3,1.2-1.2c0.3,0.5,0.2,1,0.1,1.5C13.9,37.3,21.5,46,31.1,46c1.6,0,3.1-0.1,4.6-0.6
		c0.9-0.3,1.6-0.1,2.2,0.7c0.5,0.7,1.2,1.4,1.7,2.2c0.4,0.6,0.9,0.7,1.5,0.3c3.3-2,3-1.6,1-4.4c-1-1.4-0.9-1.4,0.3-2.6
		c3-2.9,4.8-6.5,5-10.7c0-0.4,0-0.9,0.1-1.3c0.9-0.6,0.6-1.1-0.1-1.6c-0.4-0.9-0.5-1.8-0.4-2.7c0.9-1.3,0.7-2.6,0.1-3.9
		c-0.6-1.3-1.3-1.7-2.8-1.6c-1-0.2-1.2-1.2-1.9-1.7c-0.8-0.6-1.6-1.4-2.4-1.9c-0.3-0.2-0.8-0.4-0.7-1c0.4-0.3,0.8-0.2,1.3-0.1
		C45,16.6,48.8,18.8,51.5,22.5z"/>
	<path class="st3" d="M15.1,26.3c-1.2,1.1-1.5,2.7-2,4.2c-1.3,4.3-1.2,8.7,0.1,13c0.1,0.3,0.1,0.6,0.2,0.9c-2.7-3.3-4-7.1-4.3-11.3
		C8.7,26,11,20,16.1,15c6-5.7,15.7-7.6,23.4-4.5c4.8,2,8.5,5.2,11.2,9.6c0.4,0.7,0.8,1.4,0.9,2.3c-1.5-1.3-2.8-2.8-4.4-3.9
		c-2.1-1.4-4.3-2.5-6.8-3.2c-0.4-0.1-0.7-0.1-1.1-0.1c-0.7,0.3-1.2-0.2-1.8-0.4c-5.4-2.1-10.6-1.6-15.4,1.7c-3.1,2.1-5.2,5-6.3,8.6
		C15.7,25.6,15.8,26.2,15.1,26.3z"/>
	<path class="st4" d="M15.1,26.3c1-3.5,2.6-6.5,5.4-8.9c5.1-4.4,12.2-5.3,18.2-2.2c0.2,0.1,0.4,0.1,0.5,0.2c1.9,1.2,3.6,2.6,5.1,4.3
		c1.6,1.5,2.6,3.3,2.8,5.5c0.2,1,0.4,1.9,0.6,2.9c0.3,0.5,0.4,0.9,0,1.4c0,5.2-1.9,9.5-5.8,12.9c-0.4,0.4-0.5,0.6-0.1,1.1
		c0.7,0.8,1.3,1.7,1.9,2.6c0.4,0.6,0.4,1-0.2,1.4c-0.9,0.6-1.8,1.1-2.7,1.7c-0.6,0.4-1,0.2-1.4-0.3c-0.6-0.9-1.4-1.7-1.9-2.6
		c-0.5-0.8-1-0.7-1.7-0.5c-9.4,2.7-19.1-3.5-20.7-13.1C14.7,30.5,14.9,28.4,15.1,26.3z"/>
	<path class="st5" d="M18.7,42.9c2.1,0,3.5,1.2,4.6,2.9c0.3,0.4,0.3,0.8,0,1.2c-0.3,0.5-0.9,0.7-1.4,0.6c-2-0.4-3.7-1.3-4.8-3
		C16.3,43.6,17,42.9,18.7,42.9z"/>
	<path class="st6" d="M47.2,25.2c-0.7-2-1.6-3.8-2.8-5.5c1.2-0.6,2.1,0,2.7,0.9c0.8,1,1,2.3,0.9,3.6C48,24.7,47.6,25,47.2,25.2z"/>
	<path class="st7" d="M17,40c-0.1,0.4-0.3,0.5-0.6,0.5c-0.4-0.1-0.7-0.3-0.7-0.7c0-0.3,0.3-0.4,0.6-0.4C16.6,39.4,16.8,39.7,17,40z"
		/>
	<path class="st8" d="M47.8,29.5c0-0.5,0-0.9,0-1.4c0.5,0.1,0.9,0.3,0.9,0.8C48.6,29.4,48.2,29.5,47.8,29.5z"/>
	<path class="st9" d="M33.6,43c-2.4,0.6-4.8,0.3-7-0.6c-4.8-2-7.7-5.6-8.6-10.8c0-0.2,0-0.5,0-0.7c0.4-0.6,0.8-0.2,1.1,0
		c0.8,0.4,1.2,1.2,1.7,1.9c0.6,0.9,0.9,2,1.5,3c1.5,2.3,3.6,3.7,6.1,4.6c0.4,0.1,0.8,0.1,1.1,0.4C31.2,40.9,32.2,42.3,33.6,43z"/>
	<path class="st10" d="M36,17.5c4.5,1.9,7.4,5.1,8.2,10.1c0,0.1,0.1,0.2,0.2,0.3c-0.1,0.6-0.2,0.6-0.7,0.2c-0.9-0.8-1.9-1.6-2.6-2.7
		c-1.3-2.1-3-3.8-5.1-5.1c-1.2-0.6-2.4-1.3-3.3-2.2c-0.3-0.4-1-0.7-0.7-1.2c0.2-0.4,0.9-0.2,1.4-0.1l0,0
		C34.2,17.1,35.2,17.2,36,17.5z"/>
	<path class="st11" d="M33.4,16.8c-0.4,0-0.9,0-1.4,0c1.2,1.6,2.8,2.5,4.3,3.4c-0.3,0.3-0.7,0.1-1,0c-4.7-1.9-10.2,0-12.8,4.1
		c-0.1,0.2-0.2,0.3-0.4,0.4c-0.1,0.1-0.3,0.1-0.3,0c0.1-1.1-1-1.6-1.3-2.4c1.6-2.3,3.6-4,6.3-4.8c-0.3,1.4,0.3,1.9,1.9,1.4
		c-0.3-0.6-1-0.9-1.3-1.6C29.3,16.4,31.3,16.3,33.4,16.8z"/>
	<path class="st12" d="M41.2,25.2c0.9,0.9,1.8,1.8,2.7,2.7c0.2,0.2,0.4,0.6,0.5,0c0.6,2.3,0.3,4.6-0.7,6.8c0,0-0.1-0.1-0.1-0.1
		c-0.2-0.3,0-0.6-0.1-0.8c-0.2-0.5-0.4-1.2-1.2-0.6c-0.2,0.2-0.3-0.1-0.4-0.3c-0.2-0.7,0.1-1.4,0.1-2.1c0-1.5-0.1-2.9-0.6-4.2
		C41.1,26,40.9,25.6,41.2,25.2z"/>
	<path class="st13" d="M20.4,22.3c0.1,0.1,0.1,0.1,0.2,0.2c0.8,0.5,1.6,1,1.3,2.2c0,1.3-0.7,2.5-1.2,3.6c-0.2,0.1-0.3,0-0.5,0
		c-0.6-0.3-1-0.8-1.6-1.2c-0.1-0.1-0.2-0.2-0.2-0.2C18.7,25.2,19.3,23.6,20.4,22.3z"/>
	<path class="st14" d="M39.8,40.1c-1,1-2.1,1.6-3.4,2.1c-0.1-0.1-0.2-0.1-0.2-0.2c-0.4-0.4-0.7-0.7-1.1-1.1
		c-0.1-0.1-0.2-0.3-0.2-0.5c0.8-0.9,2.1-1.2,3.1-1.9c0.2,0,0.3,0,0.5-0.1c0.6-0.3,1-0.1,1.5,0.3C40.4,39.2,40.1,39.6,39.8,40.1z"/>
	<path class="st15" d="M39.8,40.1c0.3-1.3,0-1.5-1.7-1.4c0.8-1.2,1.6-2.4,2.9-3.2c0.2,0.1,0.3,0.2,0.4,0.4c0.5,0.6,0.8,0.5,1.2-0.1
		c0.2-0.4,0.3-1.1,1-1.2c0,0,0.1,0,0.1,0C43,36.9,41.6,38.6,39.8,40.1z"/>
	<path class="st11" d="M36.5,42c0,0.1,0,0.1,0,0.2c-1,0.3-1.8,0.8-2.9,0.8c-0.7,0.1-1.3-0.2-1.7-0.7c-0.7-0.7-1.4-1.2-2.4-1.1
		c0,0-0.1-0.1-0.1-0.1c0,0,0-0.1,0-0.1c0.2-0.2,0.5-0.3,0.7-0.3c1.4,0,2.8-0.1,4.2-0.4c0.2,0,0.4,0,0.5,0.2c0.1,0.1,0.2,0.2,0.3,0.2
		c-0.1,0.2-0.3,0.2-0.5,0.1c0.1,0.1,0.3,0.1,0.4,0.2C35.6,41.3,36,41.8,36.5,42z"/>
	<path class="st12" d="M20.1,28.1c0.1,0.1,0.2,0.2,0.3,0.2c0.5,1.5,0.6,3,0.2,4.6c-0.6-0.7-1.1-1.4-2-1.9c-0.2-0.1-0.4-0.1-0.6,0
		c-0.1-1.4,0-2.7,0.3-4.1c0.1,0,0.1,0,0.2,0c0.4,0.7,0.6,1.5,1.4,1.9C20,28.6,19.9,28.3,20.1,28.1z"/>
	<path class="st16" d="M39.8,44.1c0.5-0.7,1-0.8,1.5,0c0.3,0.5,0.7,1,1.1,1.5c0.7,0.8,0.5,1.3-0.4,1.6
		C40.9,46.5,40.3,45.3,39.8,44.1z"/>
	<path class="st17" d="M39.8,44.1c0.9,0.9,1.5,2.1,2.2,3.1c-0.3,0.2-0.7,0.5-1,0.7c-1-0.9-1.7-2.1-2.1-3.4
		C39.1,44.3,39.4,44.2,39.8,44.1z"/>
	<path class="st10" d="M27.3,17.3c0.8,0.4,1.3,1.1,1.9,1.8c-2.1,0.5-2.5,0.4-3.1-0.7c-0.3-0.6,0.4-0.5,0.5-0.9
		C26.9,17.4,27.1,17.3,27.3,17.3z"/>
	<path class="st18" d="M38.9,44.6c0.7,1.1,1.4,2.2,2.1,3.4c-0.4,0.4-0.7,0.4-1-0.1c-0.4-0.7-0.9-1.4-1.5-2
		C37.8,45.1,38,44.8,38.9,44.6z"/>
	<path class="st11" d="M36,17.5c-0.9-0.1-1.9-0.2-2.7-0.7C34.3,16.8,35.2,16.9,36,17.5z"/>
	<path class="st4" d="M20.6,32.9c-0.3-1.5-0.3-3-0.2-4.6c0.4-1.2,0.7-2.5,1.4-3.6c2.6-4.8,8.7-6.9,13.7-4.7c0.2,0.1,0.5,0.1,0.7,0.2
		c2.2,1.1,3.9,2.8,5,5c1.1,2.6,1.3,5.2,0.7,7.9c0,0.9-0.2,1.7-0.9,2.3c-0.9,1.1-1.7,2.4-2.9,3.2c-1,0.8-2.1,1.2-3.2,1.8
		c-1.8,0.6-3.6,0.6-5.5,0.5c-2.3-0.6-4.4-1.6-6.1-3.3C22.1,36.4,21.3,34.6,20.6,32.9z"/>
	<path class="st10" d="M41,35.5c0.3-0.8,0.6-1.6,0.9-2.3c0.5-0.1,0-1.1,0.6-0.8c0.5,0.3,1.3,0.7,1.2,1.6c0,0.2-0.1,0.5-0.1,0.7
		c-0.2,0.4-0.4,0.7-0.6,1.1c-0.2,0.4-0.4,1.2-0.9,1.1C41.6,36.7,41.1,36.2,41,35.5z"/>
	<path class="st19" d="M20.1,28.1c0,0.3,0.1,0.7-0.1,1.1c-1-0.5-1.8-1-1.6-2.3C19.2,27.1,19.6,27.7,20.1,28.1z"/>
	<path class="st20" d="M36.5,42c-0.8,0.1-1.1-0.6-1.6-0.9c-0.2-0.1-0.2-0.2,0.4-0.4C35.7,41.1,36.2,41.5,36.5,42z"/>
	<path class="st21" d="M39.8,27.6c0.2,0.1,0.4,0.2,0.5,0.5c-0.3,1,0.1,2-0.1,3c-0.3,1.5-0.6,1.9-2.1,2c-0.4,0-0.8,0-1.2,0
		c-1.3,0-2.6,0-4,0c-0.6,0-1.2,0-1.7,0c-0.4,0-0.9,0-1.3,0c-1.8,0-3.6,0-5.3,0c-0.7,0-1.4,0-1.9-0.7c-0.6-1.5-0.4-2.9-0.1-4.4l0,0
		c0.2-0.8,0.8-1.1,1.6-1.1c1.3,0,2.7,0,4,0c0.4,0,0.7,0,1.1,0c0.6,0,1.2,0,1.7,0c1.4,0,2.8,0,4.2,0c1.1,0,2.2,0,3.3,0
		C39.1,26.8,39.7,26.9,39.8,27.6z"/>
	<path class="st2" d="M22.8,32.2c0.4,0.4,0.9,0.5,1.5,0.5c1.9,0,3.8,0,5.7,0c0.7,0.7,2,5.6,1.8,6.5c-4.2,0.4-8.5-2.7-9.2-6.8
		C22.4,32.1,22.6,32.1,22.8,32.2z"/>
	<path class="st5" d="M35.3,27.1c-1.4,0-2.9,0-4.3,0c-0.3-0.2-0.5-0.5-0.6-0.9c-0.3-1.7-1.3-3.2-1.3-4.9c1.5-0.5,3-0.5,4.5,0
		C34.6,23.1,35.4,24.9,35.3,27.1z"/>
	<path class="st5" d="M32.9,32.7c1.4,0,2.7,0,4.1,0c0.9,1.1,1.2,2.3,1,3.6c-0.9,1.1-2,1.9-3.3,2.3c-0.7-0.6-0.6-1.5-0.9-2.2
		c-0.3-0.8-0.6-1.6-0.8-2.5C32.7,33.5,32.5,33.1,32.9,32.7z"/>
	<path class="st2" d="M35.3,27.1c-0.4-2-1.2-3.8-1.7-5.8c2.9,0.7,4.8,2.5,6.1,5.1c0.2,0.4,0.2,0.8,0.1,1.2c-0.3-0.4-0.7-0.5-1.2-0.5
		C37.5,27.1,36.4,27.1,35.3,27.1z"/>
	<path class="st2" d="M28.3,27.1c-1.4,0-2.8,0.1-4.2,0c-0.7,0-1.2,0.2-1.6,0.8c0.5-2.5,2-4.4,4.2-5.6c0.1,0,0.2,0,0.2,0
		C27.9,23.7,28.6,25.3,28.3,27.1z"/>
	<path class="st22" d="M32.9,32.7c0.6,2,1.2,4,1.7,5.9c-0.5,0.3-1,0.4-1.5,0.5c-0.2-0.1-0.4-0.3-0.5-0.5c-0.6-1.8-1.1-3.5-1.6-5.3
		c0-0.2,0-0.4,0.1-0.6C31.7,32.7,32.3,32.7,32.9,32.7z"/>
	<path class="st22" d="M29.1,21.3c0.8,1.9,1.3,3.8,1.9,5.8c-0.5,0-1.1,0-1.6,0c-0.9-1.7-1.7-3.3-1.7-5.2
		C28,21.5,28.5,21.4,29.1,21.3z"/>
	<path class="st23" d="M37.9,36.3c-0.3-1.2-0.7-2.4-1-3.6c3.5,0,3.1-0.4,3.1-3.3c0-0.4-0.2-0.9,0.2-1.3c0.4,2.6,0.1,5-1.4,7.2
		C38.6,35.6,38.4,36,37.9,36.3z"/>
	<path class="st24" d="M31.2,32.7c0.6,2.1,1.3,4.3,1.9,6.4c-0.4,0.1-0.8,0.3-1.3,0.1c-0.6-2.2-1.2-4.3-1.8-6.5
		C30.4,32.7,30.8,32.7,31.2,32.7z"/>
	<path class="st25" d="M27.6,21.8c0.6,1.7,1.2,3.5,1.7,5.2c-0.3,0-0.7,0-1,0c-0.4-1.7-0.7-3.3-1.5-4.8C27,22,27.2,21.8,27.6,21.8z"
		/>
	<path class="st26" d="M22.8,32.2c-0.1,0.1-0.2,0.2-0.2,0.3c-0.5-1.5-0.5-3.1,0-4.6C22.6,29.3,22.3,30.7,22.8,32.2z"/>
	<path class="st27" d="M38.6,28.8c0.1,2.4,0.1,2.4-2.3,2.4c-3.5,0-7,0-10.4,0c-1.9,0-1.9,0-1.8-1.9c0.5-0.4,1-0.3,1.6-0.3
		c3.5,0,7,0,10.5,0C36.9,28.9,37.8,28.9,38.6,28.8z"/>
	<path class="st28" d="M38.6,28.8c-0.3,0.4-0.6,0.5-1.1,0.5c-4.5,0-9,0-13.5,0c0-0.2,0-0.5,0-0.7c0.2-0.2,0.4-0.1,0.7-0.1
		c4.4,0,8.8,0,13.2,0c0.2,0,0.5,0,0.7,0.1C38.6,28.6,38.6,28.7,38.6,28.8z"/>
	<path class="st27" d="M38.6,28.6c-4.9,0-9.7,0-14.6,0c0.2-0.3,0.6-0.3,0.9-0.3c4.3,0,8.6,0,12.9,0C38,28.3,38.4,28.2,38.6,28.6z"/>
</g>
</svg>
