<?xml version="1.0" encoding="utf-8"?>
<!-- Generator: Adobe Illustrator 23.0.2, SVG Export Plug-In . SVG Version: 6.00 Build 0)  -->
<svg version="1.1" id="Camada_1" xmlns="http://www.w3.org/2000/svg" xmlns:xlink="http://www.w3.org/1999/xlink" x="0px" y="0px"
	 viewBox="0 0 63.1 63.1" style="enable-background:new 0 0 63.1 63.1;" xml:space="preserve">
<style type="text/css">
	.st0{fill:#323232;}
	.st1{fill:#FEFEFE;}
	.st2{fill:#00C8F6;}
	.st3{fill:#00689D;}
	.st4{fill:#CA5600;}
	.st5{fill:#7AEBFE;}
	.st6{fill:#79E9FC;}
	.st7{fill:#64E5FD;}
	.st8{fill:#1197BD;}
	.st9{fill:#FE9000;}
	.st10{fill:#FEBB00;}
	.st11{fill:#FCE085;}
	.st12{fill:#FCDB7D;}
	.st13{fill:#333332;}
	.st14{fill:#FCFCFC;}
</style>
<g>
	<path class="st0" d="M31.8,0.5C49.3,0.8,63.1,14.2,63,32.1c-0.1,17.4-13.8,31.2-31.7,31C14,62.9,0.2,49.3,0.5,31.3
		C0.7,14.1,14.1,0.7,31.8,0.5z"/>
	<path class="st1" d="M6.2,31.8C6,17.8,17.8,6.1,32,6.2c13.8,0.1,25.6,11.7,25.3,26.1C57,46.1,45.5,57.8,31,57.4
		C17.5,57,6,45.7,6.2,31.8z"/>
	<path class="st2" d="M52,23c2.3,4.3,2.5,9,1.5,13.6C50,51.8,33,58.8,19.7,50.5c-2.3-1.5-4.4-3.3-5.9-5.6c-2.5-6-1.8-11.9,0.9-17.7
		c0.2-0.4,0.4-0.9,0.9-1.1c0.6,0.2,0.4,0.7,0.3,1.1c-1.4,5.9,2.4,10.1,6.4,12.4c1.6,0.9,1.6,0.9,1.3,2.7c-0.4,2.4,1.8,4.2,4.3,3.7
		c2.2-0.4,4-1.5,5.6-3c0.9-0.8,1.8-1.2,2.9-1.4c3.5-0.6,6.7-1.9,9.2-4.5c3-2.9,4-6.3,2.9-10.4c-0.2-0.6-0.4-1.1-0.5-1.7
		c0-1.1,0-2.1-0.5-3.1c-0.8-1.5-1.6-1.8-3.2-1.1c-0.4,0-0.7-0.2-1-0.4c-6.1-3.7-12.5-3.8-19.1-1.6c-0.5,0.2-0.9,0.5-1.5,0.3
		c-0.3-0.3-0.1-0.5,0.1-0.7c2.5-1.8,5.4-2.8,8.4-3.2c7.5-1.1,13.9,1.1,19.4,6.3C51.2,21.9,51.6,22.5,52,23z"/>
	<path class="st3" d="M15.9,26.1c-1.3,1.4-1.8,3.1-2.3,4.9c-1.3,4.3-1.2,8.7,0.1,13c0.1,0.3,0.1,0.6,0.2,0.9
		c-2.7-3.3-4-7.1-4.3-11.3c-0.5-7.1,1.8-13.1,7-18.1c6-5.7,15.7-7.6,23.4-4.5c4.8,2,8.5,5.2,11.2,9.6c0.4,0.7,0.8,1.4,0.9,2.3
		c-1.4-1.1-2.5-2.6-4.1-3.6c-8-5.4-16.3-5.7-24.7-1c-0.1,0-0.2,0-0.2,0.1c-0.7,0.8-1.7,1.2-2.3,2.1c-1.7,1.5-3.3,3.1-4.3,5.2
		C16.2,26,16.1,26.1,15.9,26.1z"/>
	<path class="st4" d="M15.9,26.1c1-2.3,2.6-4.2,4.6-5.7c0.7-0.6,1.3-1.2,2.2-1.3c7.5-3.2,14.8-2.9,21.8,1.5c1.9,0.9,3.1,2.4,3.8,4.4
		c3,7.4-1.2,13.1-7.7,15.8c-1.5,0.6-3.1,1-4.7,1.3c-0.7,0.1-1.2,0.4-1.7,0.8c-1.8,1.7-3.7,3.1-6.2,3.5c-2.9,0.5-5.7-1.7-4.5-4.9
		c0.3-0.7,0.1-0.9-0.5-1.1c-1.5-0.6-2.8-1.6-4-2.6C15.7,34.5,14.5,30.7,15.9,26.1z"/>
	<path class="st5" d="M19.1,43.4c2.1,0,3.4,1.2,4.5,2.9c0.3,0.4,0.3,0.8,0,1.2c-0.3,0.5-0.9,0.8-1.4,0.7c-2-0.3-3.6-1.3-4.8-3
		c-0.3-0.4-0.4-0.8-0.1-1.2C17.7,43.3,18.4,43.4,19.1,43.4z"/>
	<path class="st6" d="M48.4,25c-1-1.7-2.3-3.2-3.8-4.4c0.7-0.9,1.6-0.9,2.5-0.1C48.3,21.8,48.6,23.3,48.4,25z"/>
	<path class="st7" d="M17.4,40.5c-0.1,0.4-0.3,0.5-0.6,0.5c-0.4-0.1-0.7-0.3-0.7-0.7c0-0.3,0.3-0.4,0.6-0.4
		C17.1,39.9,17.3,40.2,17.4,40.5z"/>
	<path class="st8" d="M22.7,19.1c-0.7,0.4-1.5,0.9-2.2,1.3c0.6-0.9,1.5-1.4,2.4-1.9C22.9,18.7,22.8,18.9,22.7,19.1z"/>
	<path class="st9" d="M27.5,40.1c-0.1-1-0.9-1.2-1.7-1.4c-3.2-1-5.7-2.9-7.2-5.9C18.1,31.9,18,30.9,18,30c1.2-0.6,2.5-0.3,3.8-0.2
		c0.5,0.2,0.7,0.7,0.8,1.1c0.5,1.1,1.3,1.7,2.5,1.7c1.3,0,2.1-0.6,2.7-1.7c0.2-0.4,0.2-0.9,0.7-1.1c0.2-0.1,0.5-0.1,0.7,0.1
		c0.3,0.2,0.4,0.6,0.6,0.9c0.5,1.2,1.3,1.7,2.6,1.8c1.3,0,2.2-0.7,2.7-1.8c0.2-0.3,0.2-0.8,0.6-0.9c0.2,0,0.4,0,0.5,0.1
		c0.3,0.2,0.4,0.6,0.5,0.9c0.5,1.1,1.3,1.7,2.5,1.7c1.2,0.1,2.1-0.6,2.7-1.6c0.3-0.5,0.3-1.1,1-1.2c1.3,0,2.6-0.4,3.8,0.3
		c0.1,2.9-1.5,4.9-3.6,6.5c-2.5,1.9-5.4,2.8-8.5,3.1c-0.8,0.1-1.3,0.6-1.8,1.1c-1.4,1.5-3,2.7-5.1,3.2c-0.8,0.2-1.4,0.1-1.9-0.6
		c0.6-0.9,1.7-1.5,2.1-2.5C28.1,40.2,28.3,39.7,27.5,40.1z"/>
	<path class="st10" d="M46.7,30c-1.4,0-2.7,0-4.1,0c-0.4-0.2-0.4-0.7-0.6-1c-0.5-1.3-1.5-2-2.8-2c-1.3,0-2.2,0.7-2.6,2
		c-0.1,0.4-0.1,0.8-0.5,1c-0.2,0-0.3,0-0.5,0c-0.4-0.2-0.4-0.7-0.6-1c-0.5-1.3-1.5-2-2.8-2c-1.3,0-2.2,0.7-2.6,2
		c-0.1,0.4-0.1,0.8-0.5,1c-0.2,0-0.5,0-0.7,0c-0.4-0.2-0.4-0.7-0.6-1c-0.5-1.3-1.5-2-2.8-2c-1.3,0-2.2,0.7-2.6,2
		c-0.1,0.4-0.1,0.8-0.5,1c-1.3,0-2.7,0-4,0c0-0.6-0.2-1.3,0.1-1.9c1.1-1.3,2.3-2.6,3.7-3.7c6.9-5.4,17.6-4.5,23.4,1.4
		c0.5,0.5,0.9,1,1.3,1.6C46.7,28.2,46.8,29.1,46.7,30z"/>
	<path class="st11" d="M46.4,27.3c-2.2-2.2-4.5-4.1-7.4-5.1c-7.2-2.6-15.2-0.8-20.1,5.4c-0.2,0.2-0.3,0.9-0.9,0.5
		c0.6-3.1,2.7-5.1,5.3-6.4c6.4-3.1,12.8-3,19,0.6C44.3,23.5,45.8,25.1,46.4,27.3z"/>
	<path class="st12" d="M27.5,40.1c0.1-0.4,0-0.8,0.6-0.6c0.5,0.2,0.5,0.6,0.3,1c-0.5,1.2-1.4,2.1-2.5,2.8c-0.3-0.6,0-1,0.4-1.3
		C26.8,41.4,27.3,40.8,27.5,40.1z"/>
	<path class="st13" d="M22,30c0.1-1.6,0.8-2.9,2.5-3.3c1.3-0.3,2.4,0.1,3.3,1.1c0.5,0.6,0.6,1.4,0.7,2.1c-0.9,2.6-3,3.6-5.1,2.4
		C22.5,31.8,22.2,30.9,22,30z"/>
	<path class="st13" d="M29.2,30c0.1-1.6,0.8-2.9,2.5-3.3c1.3-0.3,2.4,0.1,3.3,1.1c0.5,0.6,0.6,1.4,0.7,2.1c-0.9,2.6-3,3.6-5.1,2.4
		C29.7,31.8,29.4,30.9,29.2,30z"/>
	<path class="st13" d="M36.1,30c0.1-1.6,0.8-2.9,2.5-3.3c1.3-0.3,2.4,0.1,3.3,1.1c0.5,0.6,0.6,1.4,0.7,2.1c-0.9,2.6-3,3.6-5.1,2.4
		C36.7,31.8,36.4,30.9,36.1,30z"/>
	<path class="st14" d="M25.2,31.4c-1,0-1.8-0.7-1.7-1.7c0-1,0.8-1.7,1.8-1.6c0.9,0,1.7,0.8,1.7,1.7C27,30.7,26.2,31.5,25.2,31.4z"/>
	<path class="st14" d="M32.4,31.4c-1,0-1.8-0.7-1.7-1.7c0-1,0.8-1.7,1.8-1.6c0.9,0,1.7,0.8,1.7,1.7C34.2,30.7,33.4,31.5,32.4,31.4z"
		/>
	<path class="st14" d="M41.1,29.8c0,0.9-0.8,1.7-1.8,1.6c-1,0-1.7-0.7-1.7-1.6c0-1,0.7-1.7,1.7-1.7C40.3,28.1,41.1,28.8,41.1,29.8z"
		/>
</g>
</svg>
