<?xml version="1.0" encoding="utf-8"?>
<!-- Generator: Adobe Illustrator 23.0.2, SVG Export Plug-In . SVG Version: 6.00 Build 0)  -->
<svg version="1.1" id="Camada_1" xmlns="http://www.w3.org/2000/svg" xmlns:xlink="http://www.w3.org/1999/xlink" x="0px" y="0px"
	 viewBox="0 0 79.92 79.95" style="enable-background:new 0 0 79.92 79.95;" xml:space="preserve">
<style type="text/css">
	.st0{fill:#FEBB0B;}
	.st1{fill:#FDBB0B;}
	.st2{fill:#FDB80A;}
	.st3{fill:#FDB90B;}
	.st4{fill:#FDBA0B;}
</style>
<g>
	<path class="st0" d="M53.24,6.09c0.37-0.91,0.7-1.81,1.11-2.67c0.37-0.77,0.99-0.47,1.54-0.23c4.17,1.77,7.86,4.29,11.25,7.27
		c0.68,0.6,0.75,1.17,0.05,1.8c-0.49,0.44-0.96,0.9-1.42,1.38c-0.6,0.62-1.07,0.49-1.66-0.08c-2.87-2.77-6.19-4.87-9.87-6.41
		C53.79,6.96,53.16,6.81,53.24,6.09z"/>
	<path class="st0" d="M18.3,69.26c-0.67,0.78-1.32,1.82-2.24,2.53c-0.61,0.47-1.13-0.44-1.61-0.82c-3.39-2.72-6.11-6.04-8.5-9.65
		c-0.58-0.88-0.31-1.27,0.49-1.64c0.49-0.22,1-0.44,1.42-0.76c0.8-0.6,1.35-0.5,1.89,0.37c2.14,3.43,4.84,6.37,7.96,8.92
		C17.99,68.45,18.31,68.65,18.3,69.26z"/>
	<path class="st0" d="M4.29,32.09c-0.85-0.24-1.47-0.48-2.12-0.59c-0.96-0.16-1.16-0.74-0.94-1.56c1.12-4.2,2.98-8.08,5.25-11.77
		c0.52-0.85,1.14-0.99,1.89-0.28c0.04,0.04,0.1,0.07,0.15,0.1c2.23,1.5,2.2,1.48,0.86,3.82c-1.61,2.82-2.95,5.76-3.77,8.92
		C5.4,31.52,5.18,32.3,4.29,32.09z"/>
	<path class="st1" d="M78.84,30.71c0.12,0.58-0.13,0.91-0.71,1c-0.83,0.13-1.65,0.24-2.48,0.38c-0.67,0.11-0.94-0.18-1.11-0.83
		c-1.01-3.9-2.49-7.6-4.73-10.97c-0.43-0.65-0.28-1.05,0.27-1.51c2.36-1.96,2.74-1.92,4.26,0.66C76.42,22.97,77.97,26.7,78.84,30.71
		z"/>
	<path class="st2" d="M0,41.56c0-0.56,0-0.68,0-0.8c0-2.37,1.66-3.32,3.8-2.2c0.46,0.24,0.51,0.61,0.51,1.04
		c0.02,4.03,0.46,8,1.79,11.83c0.22,0.64-0.02,1.04-0.63,1.25c-0.17,0.06-0.34,0.11-0.51,0.17c-2.87,0.92-2.88,0.92-3.6-1.98
		C0.56,47.67,0.08,44.42,0,41.56z"/>
	<path class="st3" d="M79.7,42.57c0.04,3.32-0.79,6.61-1.86,9.86c-0.28,0.86-0.61,1.7-1.72,0.99c-0.94-0.6-2.99-0.15-2.4-2.28
		c1.06-3.81,1.93-7.63,1.81-11.62c-0.02-0.64,0.26-0.87,0.82-0.89c0.3-0.01,0.6-0.01,0.9-0.02c2.81-0.03,2.81-0.03,2.58,2.76
		C79.8,41.73,79.76,42.09,79.7,42.57z"/>
	<path class="st0" d="M75.26,58.46c-0.21,0.39-0.34,0.66-0.48,0.92c-2.14,3.85-4.88,7.22-8.08,10.25c-0.63,0.59-1.04,0.54-1.65-0.03
		c-2.17-2-2.18-2.06-0.24-4.13c2.3-2.45,4.38-5.07,6.07-7.99c0.3-0.52,0.57-1.19,1.34-0.8C73.26,57.2,74.41,57.58,75.26,58.46z"/>
	<path class="st4" d="M37.89,77.79c-0.04,2.24-0.19,2.3-2.19,2.06c-4.07-0.48-7.98-1.46-11.76-3.06c-1.39-0.58-1.52-1.1-0.82-2.35
		c1.16-2.06,1.06-2.05,3.38-1.19c2.98,1.1,6,2.15,9.19,2.31C37.48,75.65,38.29,76.18,37.89,77.79z"/>
	<path class="st0" d="M40.12,0.02c1.8-0.08,3.88,0.11,5.97,0.37c1.88,0.24,1.04,1.55,1.01,2.47C47.07,3.8,47,4.92,45.52,4.65
		c-3.75-0.69-7.5-0.46-11.25,0.04c-1.74,0.23-2.12-0.27-2.44-2.78c-0.2-1.58,1.08-1.26,1.91-1.45C35.74,0.02,37.78,0.01,40.12,0.02z
		"/>
	<path class="st4" d="M45.91,79.52c-0.5,0.08-0.72-0.13-0.88-0.63c-0.99-3.04-0.84-3.31,2.36-3.97c3.19-0.65,6.22-1.75,9.03-3.37
		c1.09-0.63,1.51-0.44,2.1,0.5c1.55,2.52,1.59,2.53-1.02,3.81C53.82,77.68,49.96,78.91,45.91,79.52z"/>
	<path class="st0" d="M26.25,6.4c-0.04,0.73-0.56,0.84-0.98,1.04c-3.43,1.62-6.59,3.66-9.3,6.33c-0.85,0.84-1.49,0.78-2.2-0.13
		c-0.4-0.51-0.91-0.95-1.38-1.41c-0.44-0.43-0.39-0.79,0.06-1.21c3.3-3.1,7.01-5.58,11.13-7.47c0.74-0.34,1.23-0.3,1.57,0.51
		C25.49,4.9,25.91,5.69,26.25,6.4z"/>
</g>
</svg>
