<?xml version="1.0" encoding="utf-8"?>
<!-- Generator: Adobe Illustrator 23.0.2, SVG Export Plug-In . SVG Version: 6.00 Build 0)  -->
<svg version="1.1" id="Camada_1" xmlns="http://www.w3.org/2000/svg" xmlns:xlink="http://www.w3.org/1999/xlink" x="0px" y="0px"
	 viewBox="0 0 98.04 97.03" style="enable-background:new 0 0 98.04 97.03;" xml:space="preserve">
<style type="text/css">
	.st0{fill:#323232;}
	.st1{fill:#FEFEFE;}
	.st2{fill:#2BC3EB;}
	.st3{fill:#44D4FE;}
	.st4{fill:#19AEDC;}
	.st5{fill:#19769B;}
	.st6{fill:#71DAEF;}
	.st7{fill:#4DCEF2;}
	.st8{fill:#16BCEF;}
	.st9{fill:#60DAF9;}
	.st10{fill:#3CCBF5;}
	.st11{fill:#20A0D6;}
	.st12{fill:#1B97CA;}
	.st13{fill:#1C83AF;}
	.st14{fill:#B15605;}
	.st15{fill:#32C8F4;}
	.st16{fill:#18B1E2;}
	.st17{fill:#F2FCFB;}
	.st18{fill:#DEF9F7;}
	.st19{fill:#FBFEFE;}
	.st20{fill:#F3FCFB;}
	.st21{fill:#17C7FD;}
	.st22{fill:#FEC732;}
	.st23{fill:#FD8E04;}
	.st24{fill:#FD9807;}
	.st25{fill:#FEC62F;}
	.st26{fill:#FEC327;}
	.st27{fill:#FEC426;}
	.st28{fill:#43D3FE;}
	.st29{fill:#FB9610;}
	.st30{fill:#FCC64E;}
	.st31{fill:#2EC8F4;}
	.st32{fill:#F8991B;}
	.st33{fill:#FAAE3E;}
	.st34{fill:#FEDE89;}
	.st35{fill:#36CEFA;}
	.st36{fill:#FDD77D;}
	.st37{fill:#FDD87C;}
	.st38{fill:#FED76E;}
	.st39{fill:#FEBC0C;}
	.st40{fill:#FEC425;}
	.st41{fill:#FECE4D;}
	.st42{fill:#FDD361;}
	.st43{fill:#FEC62A;}
	.st44{fill:#FED257;}
	.st45{fill:#FDD980;}
	.st46{fill:#B55905;}
	.st47{fill:#FD8A02;}
	.st48{fill:#FEC62D;}
	.st49{fill:#33C8F6;}
</style>
<g>
	<path class="st0" d="M0,52.15c0-2.08,0-4.16,0-6.24c0.79-3.17,0.54-6.48,1.41-9.66C6.55,17.45,18.76,5.77,37.58,1.45
		c17.21-3.95,32.72,0.21,45.75,12.2c5.57,5.13,9.54,11.53,11.83,18.91c2.28,7.34,3.57,14.77,2.49,22.43
		c-2.98,21.16-17.94,36.77-36.61,41.09c-3.12,0.72-6.32,0.87-9.51,0.95c-1.85,0-3.69,0-5.53,0C32.16,96.86,20.95,91.16,11.74,81
		C4.82,73.36,0.96,64.52,0.43,54.22C0.39,53.54,0.4,52.79,0,52.15z"/>
	<path class="st1" d="M48.65,88.3C26.43,87.5,8.74,71.46,9.01,48.84c0.28-23.33,16.83-38.2,40.08-39.82
		C72.9,11.15,88.3,25.84,88.5,49C88.69,70.79,72.19,87.6,48.65,88.3z"/>
	<path class="st2" d="M25.94,75.18c-2.41-2.12-4.67-4.38-6.33-7.17c-0.02-2.16-1.28-3.98-1.51-6.15
		c-0.68-6.24,0.35-12.14,2.66-17.88c0.32-0.81,0.7-1.6,1.07-2.39c0.59-0.81,1.16-1.61,1.61-2.53c0.5-1.01,1.08-2.13,2.58-1.84
		c0.86,1.82,0.71,3.85,1.24,5.75c0.29,1.03-0.62,1.71-1.32,2.38c-2.65,2.58-2.74,5.8-0.09,8.36c1.32,1.28,1.6,2.51,1.11,4.27
		c-0.98,3.55,0.53,6.12,4.11,7c1.78,0.44,2.69,1.27,3.12,3.08c0.83,3.49,3.36,5.09,6.76,4.19c2.07-0.55,3.53-0.19,4.84,1.44
		c1.39,1.72,3.36,1.59,5.29,1.43c0.86-0.07,1.71-0.5,2.57,0c0.52,0.39,0.93,0.86,1.29,1.4c1.19,1.8,0.91,2.69-1.13,3.31
		c-4.14,1.25-8.29,1.1-12.48,0.14c-3.12-0.71-6.01-2.08-9.1-2.83c-0.62-0.13-1.17-0.38-1.57-0.89c-0.46-0.27,0.24-1.23-0.73-1.19
		C28.61,75.66,27.28,75.58,25.94,75.18z"/>
	<path class="st3" d="M81.17,35.76c1.49,3.03,2.23,6.24,2.39,9.6c0.38,4.38-0.96,8.47-2.17,12.57c-0.79,2.69-2.06,5.18-3.65,7.51
		c-0.4,0.38-0.86,0.65-1.41,0.76c-1.77,0-3.51-0.08-4.64-1.76c-0.27-0.81-0.04-1.58,0.27-2.32c0.6-1.47,0.66-2.94,0.11-4.42
		c-0.52-1.43-0.3-2.59,0.96-3.6c2.56-2.05,3.29-6.49-0.06-8.85c-1.34-0.95-1.35-2.13-0.99-3.58c1.09-4.33-0.29-6.49-4.54-7.35
		c-2.25-0.45-2.73-1.55-1.99-4.59c0.34-0.45,0.87-0.51,1.29-0.32c2.1,0.95,3.24-0.12,4.1-1.86c1.3-0.72,2.27,0.07,3.24,0.73
		C76.98,30.26,79.39,32.71,81.17,35.76z"/>
	<path class="st4" d="M22.57,41.6c-0.15,2.04-1.45,3.67-1.98,5.59c-1.79,6.45-2.69,12.89-0.4,19.41c0.25,0.71,0.36,1.24-0.58,1.4
		c-1.5-2.06-2.59-4.33-3.47-6.71c0.42-1.59-0.51-2.94-0.81-4.39c-0.65-3.15-0.78-6.32-0.69-9.51c-0.16-1.46,0.21-2.86,0.48-4.27
		c1.39-9.2,6.23-16.31,13.59-21.71c6.52-4.78,13.97-6.75,22.03-6.46c0.63,0.02,1.29-0.08,1.86,0.32c0.22,0.16,0.34,0.38,0.39,0.65
		c-0.15,0.88-0.88,1.19-1.54,1.58c-0.24,0.08-0.49,0.11-0.74,0.1c-10.58-0.93-18.94,3.19-25.53,11.27c-1.05,1.29-2.07,2.64-2.74,4.2
		c-0.7,1.6-1.07,3.13,0.16,4.72C23.54,39,23.3,40.34,22.57,41.6z"/>
	<path class="st5" d="M52.8,15.67c-5.64-0.18-11.22,0.28-16.45,2.46c-10.37,4.31-17.06,12.03-20.31,22.75
		c-0.2,0.67-0.16,1.42-0.24,2.13c-1.68,0.24-1.09-0.84-0.96-1.65c1.18-6.85,4.54-12.57,9.52-17.24c8.99-8.43,19.6-11.62,31.78-9.04
		C55.35,17.09,54.09,16.45,52.8,15.67z"/>
	<path class="st6" d="M82.03,59.36c-1.86,7.11-6.14,12.56-11.84,16.95c-7.88,6.06-16.86,8.12-26.65,6.95
		c-0.3-0.04-0.59-0.22-0.88-0.34c1.97-1.33,4.32-1.52,6.52-1.65c11.41-0.65,20.49-5.41,27.11-14.77c0.14-0.19,0.33-0.35,0.51-0.51
		c1.44-1.31,1.97-3.17,2.93-4.77C80.26,60.36,80.49,59.01,82.03,59.36z"/>
	<path class="st7" d="M77.29,66.07c-5.19,8.41-12.81,13.35-22.37,15.26c-4.03,0.81-8.17,1.07-12.26,1.58
		c-3.91-0.58-7.64-1.68-10.97-3.88c0.78-1.43,1.97-1.26,3.27-0.89c2.25,0.65,4.47,1.45,6.81,1.79c0.25,0.04,0.49,0.09,0.73,0.14
		c2.02,0.52,4.06,0.79,6.15,0.62c4.02-0.53,7.96-1.33,11.78-2.82c5.52-2.17,9.85-5.81,13.55-10.3c0.68-0.82,1.39-1.51,2.34-1.97
		c0.32-0.16,0.64-0.32,0.96-0.48C77.56,65.42,77.57,65.74,77.29,66.07z"/>
	<path class="st8" d="M81.17,35.76c-2.5-2.34-4.82-4.87-7.65-6.85c-0.8-0.56-1.54-1.14-2.55-1.2c-2.16-0.61-2.78-2.97-4.57-4
		c-0.71-1.24-1.93-1.85-3.09-2.55c-0.81-0.49-1.77-0.81-2.02-1.89c0.04-0.24,0.15-0.44,0.33-0.6c0.52-0.37,1.12-0.31,1.71-0.35
		c1.84,0.11,3.17,1.34,4.7,2.13c0.68,0.35,1.14,1.14,2.05,1.06C75.34,25.02,78.88,29.9,81.17,35.76z"/>
	<path class="st9" d="M77.29,66.07c-0.01-0.32-0.01-0.64-0.02-0.96c2.47-4.32,4.07-8.93,4.87-13.86c0.32-1.98,1.79-3.72,1.41-5.89
		c0.95,4.25,0.23,8.38-1.09,12.42c-0.17,0.53-0.36,1.03-0.43,1.58C79.49,60.91,79.35,64.17,77.29,66.07z"/>
	<path class="st10" d="M42.24,80.47c-2.36,0.24-4.49-0.74-6.65-1.39c-1.35-0.4-2.59-0.54-3.9-0.05c-2.16-0.93-3.99-2.33-5.74-3.85
		c1.1-0.85,2.52-0.48,3.72-0.96c0.79,0.2,0.98,0.83,1.07,1.52c0.4,0.4,0.91,0.41,1.43,0.41c2.79,1.48,5.75,2.52,8.79,3.36
		C41.47,79.66,42.34,79.45,42.24,80.47z"/>
	<path class="st11" d="M70.06,21.5c-1.29,0.6-2.07-0.48-2.98-0.97c-1.19-0.64-2.28-1.48-3.72-1.5c-2.57-0.72-5.08-1.75-7.83-1.69
		c-1.07-0.03-2.06-0.26-2.73-1.2c0-0.16,0-0.32,0-0.47c1.11-0.23,2.38,0.45,3.34-0.6C61.39,15.9,66.04,18.02,70.06,21.5z"/>
	<path class="st12" d="M15.34,47.34c-0.09,4.24,0.06,8.45,1.39,12.54c0.2,0.61,0.44,1.3-0.59,1.42c-2.05-5.67-3.18-11.44-1.8-17.46
		C15.59,44.74,14.23,46.4,15.34,47.34z"/>
	<path class="st13" d="M15.34,47.34c-0.84,0.29-0.94-0.22-0.94-0.87c0-0.88-0.04-1.76-0.06-2.64c-0.06-0.87,0-1.72,0.5-2.48
		c0.1,0.68,0.01,1.47,0.96,1.65C15.65,44.45,15.5,45.9,15.34,47.34z"/>
	<path class="st14" d="M65.82,29.58c-0.47,1.05,0.83,1.97,0.1,3.18c-0.48,0.81,0.6,0.62,1.05,0.65c5.81,0.49,7.73,3.71,5.57,9.35
		c-0.2,0.51-0.55,0.8,0.49,1.37c4.7,2.56,3.86,8.85,0.1,10.98c-0.7,0.4-0.93,0.54-0.39,1.56c1.32,2.49,0.77,5.03-0.81,7.34
		c-0.19,1.61-1.31,2.3-2.72,2.59c-1.54,0.32-2.39,0.97-2.76,2.7c-0.8,3.69-4.62,5.84-8.3,4.88c-1.4-0.37-2.67-1.02-3.58,0.78
		c-0.19,0.38-0.79,0.51-1.3,0.28c-2.85,1.69-7.11,1.38-8.97-1.77c-0.59-1.01-0.81-1.31-2.09-0.61c-3.25,1.78-8.83,0.07-9.05-5.13
		c-0.06-1.36-0.43-1.62-1.74-1.73c-4.74-0.4-7.19-4.98-4.95-9.24c0.48-0.91,0.27-1.23-0.35-1.73c-4.41-3.5-4.4-7.78,0.11-10.91
		c0.62-0.43,0.77-0.62,0.37-1.24c-1.14-1.74-1.2-3.64-0.74-5.6c-0.41-2.59,1.55-3.42,3.27-4.43c1.91-0.04,3.43-0.54,3.34-2.9
		c0.22-0.85,0.56-1.64,1.19-2.28c1.93-2.27,4.38-3.11,7.3-2.66c2,1.58,2.91-0.14,3.99-1.34c1.36-0.94,2.78-1.66,4.5-1.51
		c0.89-0.09,1.75,0,2.54,0.45c0.28,0.14-0.03-0.1,0.21,0.09c2.36,1.86,4.72,3.31,8.03,2.31c1.54-0.47,2.99,0.82,4.31,1.73
		C65.29,27.54,66.17,28.29,65.82,29.58z"/>
	<path class="st15" d="M53.28,75.25c1.2-0.77,1.81-1.91,2.02-3.33c3.84,2.75,7.46,1.66,9.43-0.78c0.5-0.62,1.08-1.3,0.97-2.07
		c-0.32-2.22,0.45-3.27,2.78-3.29c1.36-0.01,2.5-0.8,3.46-1.76c1.22,1.18,2.92,1.06,4.38,1.58c-5.17,8.29-12.52,13.35-22.22,14.9
		c-1.72,0.27-3.43,0.61-5.14,0.92c-2.2-0.58-4.51-0.4-6.72-0.94c0,0,0,0,0,0c-2.81-1.21-5.86-1.81-8.59-3.25
		c-0.56-0.3-1.18-0.45-1.48-1.07c3.79,1.2,7.45,2.81,11.42,3.49c3.39,0.58,6.66,0.36,9.95-0.44c1.45-0.35,2.19-0.75,0.66-2.04
		C53.63,76.7,53.39,75.98,53.28,75.25z"/>
	<path class="st16" d="M29.31,33.53c-1.42,1-2.68,2.15-3.44,3.76c-1.58,1.07-1.78,3.21-3.3,4.32c-0.07-1.1,0.3-2.33-0.58-3.21
		c-2.25-2.26-1.21-4.58,0.04-6.66c3.51-5.82,8.29-10.23,14.73-12.74c3.91-1.53,7.87-2.55,12.1-2.36c0.71,0.03,1.45-0.07,2.03,0.5
		c0.14,0.22,0.12,0.42-0.06,0.62c-2.64,0.54-5.36,0.56-8,1.2c-2.89,0.69-5.69,1.54-8.11,3.35c-2.1,1.57-2.18,1.84-0.87,4.14
		c0.33,0.58,0.57,1.14,0.27,1.8c-0.3,0.62-0.6,1.24-0.9,1.86C32.34,31.73,30.88,32.7,29.31,33.53z"/>
	<path class="st17" d="M28.27,72.19c-0.16,0.88-0.76,1.38-1.61,1.4c-0.84,0.02-1.61-0.38-1.72-1.31c-0.11-0.87,0.49-1.3,1.29-1.39
		C27.2,70.77,27.9,71.19,28.27,72.19z"/>
	<path class="st18" d="M30.73,75.74c-0.91-0.12-1.13-0.72-1.07-1.52c0.5-0.46,0.98-1.31,1.71-0.43
		C32.1,74.66,31.34,75.22,30.73,75.74z"/>
	<path class="st19" d="M65.82,29.58c-0.47-0.88-1.56-1.34-1.7-2.45c-0.77-0.71-1.18-1.54-0.84-2.62c0.77-1.49,1.78-2.29,3.45-1.2
		c2.29,0.62,3.1,2.65,4.24,4.38c0.06,1.22,0.05,2.46-1.28,3.02C68.15,31.38,67.01,30.32,65.82,29.58z"/>
	<path class="st20" d="M72.22,31.51c0.72,0.09,1.19,0.5,1.18,1.23c-0.01,0.86-0.54,1.3-1.38,1.25c-0.74-0.05-1.14-0.52-1.04-1.28
		C71.07,32,71.48,31.56,72.22,31.51z"/>
	<path class="st21" d="M66.72,23.32c-1.2,0.02-2.24,0.36-2.89,1.47c-3.43,0.17-6.75-0.64-10.09-1.22c-0.62-0.11-1.23-0.33-1.88-0.29
		c-0.81-0.15-1.61-0.31-2.42-0.46c-1.13-2.18-0.78-3.48,1.43-5.23c0-0.15,0.01-0.31,0.01-0.46c0.16-0.01,0.31-0.01,0.47-0.02
		c3.55-0.33,7.01-0.21,10.08,1.93c1.28,0.74,2.59,1.44,3.83,2.24C65.98,21.75,66.62,22.37,66.72,23.32z"/>
	<path class="st8" d="M61.43,19.04c-3.35-0.67-6.62-1.81-10.08-1.93c0.29-0.6,0.79-0.91,1.45-0.96c0.96,0.16,1.92,0.33,2.88,0.49
		c1.36,0.45,2.82,0.48,4.15,1.01c0.67,0.26,1.67,0.24,1.61,1.39L61.43,19.04z"/>
	<path class="st10" d="M42.24,80.47c2.28,0.04,4.61-0.29,6.72,0.94C46.67,81.47,44.38,81.51,42.24,80.47z"/>
	<path class="st16" d="M61.44,19.03c-1.59-1.59-4.06-1.08-5.76-2.39c2.8,0.02,5.46,0.52,7.68,2.39
		C62.72,19.03,62.08,19.03,61.44,19.03z"/>
	<path class="st8" d="M50.88,17.59c-0.35,1.78-1.81,3.25-1.43,5.23c-1.6,0-2.79,1.14-4.25,1.53c-1.19,0.83-2.38,1.68-3.95,1.47
		c-2.76-0.33-5.14,0.45-7.12,2.42c-0.36-0.52-0.74-1.03-1.08-1.57c-0.45-0.72-1.9-0.72-1.65-1.8c0.28-1.23,1.15-2.18,2.21-2.98
		c3.4-2.6,7.34-3.66,11.45-4.28C46.98,17.32,48.93,16.58,50.88,17.59z"/>
	<path class="st22" d="M58.01,30.98c0.66-0.9,1.41-1.59,2.57-0.79c1.01,0.69,1.35,1.54,1.06,2.85c-0.81,3.59,0.91,5.26,4.57,4.48
		c1.06-0.22,1.88-0.21,2.49,0.75c0.51,0.81,0.52,1.58-0.01,2.44c-2.83,4.56-2.66,5.03,2.43,7.26c0.13,0.06,0.22,0.21,0.32,0.32
		c-0.1,0.2-0.24,0.37-0.42,0.5c-1.11,0.48-2.64,0.47-2.63,2.27c-0.29,0.44-0.71,0.64-1.22,0.67c-1.36-0.12-1.48-1.1-1.68-2.19
		c-0.68-3.66-1.24-7.4-4.14-10.18c-1.32-1.26-2.7-2.47-3.88-3.88c-0.5-0.6-1.21-1.08-1.19-1.99c0.16-0.87,0.71-1.25,1.56-1.25
		c0.51,0.08,0.98,0.34,1.7,0.39c-0.6-0.43-1.27-0.25-1.64-0.69C57.75,31.6,57.8,31.28,58.01,30.98z"/>
	<path class="st23" d="M68.63,58.38c1.02,0.82,0.94,1.78,0.25,2.73c-0.63,0.86-1.46,0.98-2.53,0.78c-4.04-0.73-5.19,0.49-4.54,4.59
		c0.16,1,0.12,1.9-0.9,2.5c-1.13,0.66-2.02,0.43-3.02-0.42c-2.94-2.52-4.7-2-6.14,1.67c-0.39,1.01-0.98,1.97-2.15,1.97
		c-1.11,0-1.76-0.76-2.23-1.84c-1.76-4.07-2.82-4.29-6.56-1.63c-1.79,1.27-3.05,0.67-3.48-1.65c0.48-0.1,0.95,0.07,1.42,0.1
		c0.77-0.17,1.14-0.89,1.77-1.25c0.64-0.56,1.33-1.02,2.22-1.03c1.17-0.22,2.16,0.17,3.05,0.91c0.89,0.51,1.74,1.16,2.24,2
		c1.07,1.8,1.73,1.28,2.38-0.24c1.92-3.07,3.52-3.47,6.74-1.68c2.33,1.29,2.67,1.08,2.65-1.61c-0.02-3.31,1.08-4.51,4.28-4.68
		c0.34-0.01,0.69,0.01,1.03,0.02c1.29,0.27,2.28-0.13,2.91-1.32C68.26,58.18,68.46,58.21,68.63,58.38z"/>
	<path class="st24" d="M57.98,32.42c-0.45,0.34-0.9,0.67-1.34,1.01c-0.55,0.81-1.4,0.67-2.2,0.72c-1.32,0.05-2.15-0.73-2.89-1.68
		c-0.34-0.43-0.53-0.95-0.72-1.46c-0.63-1.66-1.25-1.23-1.88,0c-2.36,3.73-3.85,4.04-9.16,1.73c-0.24,2.19,0.04,4.54-2.04,6.02
		c-1.23,0.88-2.6,0.6-3.93,0.67c-0.23,0-0.47,0-0.71,0c-0.95-0.36-2.07-0.12-2.94-0.79c0.42-1.69,1.63-1.41,2.85-1.16
		c3.36,0.69,4.85-0.65,4.35-4.09c-0.2-1.35-0.37-2.49,1.04-3.29c1.54-0.88,2.32,0.3,3.26,1.1c2.09,1.78,4.18,1.29,5.33-1.25
		c0.23-0.51,0.35-1.07,0.64-1.54c1.09-1.76,2.95-1.67,3.91,0.17c0.04,0.07,0.07,0.14,0.11,0.21c1.93,4.14,2.25,4.26,6.35,2.2
		c0.04,0.34,0.09,0.69,0.13,1.03C58.24,32.21,58.18,32.34,57.98,32.42z"/>
	<path class="st25" d="M42.7,65.58c-0.78,0.05-1.22,0.7-1.82,1.06c-1.63-0.98-1.59,1.12-2.55,1.38c-0.33-0.31-0.66-0.62-0.99-0.94
		c0.34-1.63,0.54-3.25-0.42-4.77c-0.89-1.07-2.29-1.24-3.41-1.91c0.56-1.27-0.85-1.9-0.98-2.95c-0.14-1.11,0.45-2.26-0.21-3.33
		c-0.53-0.66-1.06-1.32-1.6-1.97c1.42-1.39,0.13-3.31,0.93-4.82c1.71-0.53,2.08,0.54,2.15,1.86c0.08,1.33-0.1,2.71,0.81,3.86
		c1.42,3.75,4,6.63,6.84,9.35C42.31,63.2,43.58,64.02,42.7,65.58z"/>
	<path class="st26" d="M54.26,33.45c0.79-0.01,1.58-0.02,2.37-0.03c1.2,1.28,2.27,2.7,3.61,3.8c3.91,3.21,5.48,7.49,5.99,12.32
		c0.08,0.74,0.07,1.46,0.99,1.66c0.46,0.94-0.4,1.55-0.57,2.34c-0.18,0.78-0.5,1.61,0.16,2.35c0.61,0.83,1.22,1.66,1.83,2.49
		c-0.19-0.01-0.37-0.01-0.56-0.02c-1.53-0.21-2.08,0.98-2.79,1.95c-0.32-0.01-0.65-0.03-0.97-0.04c-2.08-0.59-2.29-0.96-1.49-3.24
		c1.13-3.2,1.93-6.39,1.18-9.82c-1.05-4.81-4.07-8.18-7.79-11.1C55.34,35.42,53.96,35.04,54.26,33.45z"/>
	<path class="st27" d="M34.08,53.59c-1.3-1.18-0.82-2.76-0.99-4.21c-0.09-0.76,0.36-2.23-1.41-1.54c-0.24,0.6-0.72,0.85-1.33,0.91
		c-0.23-0.01-0.45-0.07-0.66-0.16c-0.29-0.21-0.45-0.5-0.46-0.86c3.63-2.35,3.83-3.34,1.23-6.73c-0.59-0.78-0.89-1.49-0.29-2.37
		c0.99-0.23,1.99-0.79,2.95,0.07c-0.09,0.55-0.76,0.75-0.82,1.55c0.86-0.42,1.36-1.38,2.34-1.29c2.32,0.14,2.8,0.65,1.9,2.68
		c-1.38,3.11-2.03,6.26-1.6,9.64C35.06,52.13,34.92,53.02,34.08,53.59z"/>
	<path class="st28" d="M51.86,23.28c4.14-0.72,8.13-0.21,11.97,1.51c0.1,0.78,0.19,1.57,0.29,2.35c-2.88-1.72-5.77-1.95-8.7,0.03
		C54.95,25.13,53.41,24.21,51.86,23.28z"/>
	<path class="st29" d="M66.81,55.89c-1.75-1.73-0.74-3.21,0.42-4.68c0.32-0.15,0.64-0.3,0.96-0.45c0.55-1.2,2.08-1.31,2.69-2.43
		c0.19-0.01,0.38-0.02,0.58-0.02c1.22,1.87,0.35,2.88-1.45,3.49C68.02,52.45,66.75,53.65,66.81,55.89z"/>
	<path class="st30" d="M30.18,48.38c0.5-0.18,1-0.36,1.5-0.54c0.91,1.12,0.42,2.48,0.57,3.71c0.18,1.39-0.97,0.46-1.53,0.59
		c-0.94-0.3-2.21-0.01-2.55-1.4C28.76,49.88,30.14,49.7,30.18,48.38z"/>
	<path class="st31" d="M29.31,33.53c0.93-1.57,2.17-2.78,3.9-3.43C33.05,33.31,33.05,33.31,29.31,33.53z"/>
	<path class="st32" d="M33.57,60.28c1.45,0.13,2.7,0.58,3.36,2.03c-1.35-0.68-2.73-0.87-4.25-0.57c-1.44,0.28-2.63-0.19-2.84-1.92
		c0.4-0.27,0.83-0.21,1.26-0.1C31.9,60.01,32.88,59.49,33.57,60.28z"/>
	<path class="st33" d="M30.68,60.33c-0.28-0.17-0.57-0.34-0.85-0.51c0.45-2.07,2.88-3.28,2.49-5.71c1.44,0.81,0.54,2.18,0.79,3.28
		C32.91,58.87,32.04,59.8,30.68,60.33z"/>
	<path class="st34" d="M30.18,48.38c0.95,2.53,0.88,2.61-2,2.36c-0.12-0.13-0.24-0.26-0.36-0.39c-0.37-1.66,0.75-1.88,1.95-2.02
		C29.91,48.36,30.04,48.37,30.18,48.38z"/>
	<path class="st35" d="M41.23,25.82c1.16-0.92,2.57-1.17,3.95-1.47c-0.65,0.84-1.3,1.68-1.66,2.94
		C42.92,26.34,41.89,26.42,41.23,25.82z"/>
	<path class="st30" d="M29.77,48.33c-0.69,0.63-1.63,1.03-1.95,2.02c-1.2-1.37-1.08-1.59,1.41-2.62
		C29.41,47.93,29.59,48.13,29.77,48.33z"/>
	<path class="st36" d="M66.03,41.24c-0.76-0.11-1.28-0.75-1.26-1.41c0.04-1.26,1.32-1.06,2.11-1.4c0.54-0.23,1.12-0.16,1.2,0.63
		C68.14,39.57,66.62,41.2,66.03,41.24z"/>
	<path class="st37" d="M70.87,48.32c0.49,2.34-1.2,2.28-2.69,2.43C67.39,48.35,67.43,48.31,70.87,48.32z"/>
	<path class="st38" d="M57.98,32.42c0.06-0.13,0.12-0.27,0.16-0.41c0.74-0.37,1.31-1.31,2.32-0.76c0.55,0.3,0.48,0.75-0.48,3.57
		C59.25,33.94,58.61,33.18,57.98,32.42z"/>
	<path class="st39" d="M34.08,53.59c0.33-2.21-0.59-4.33-0.17-6.64c0.34-1.92,0.77-3.74,1.68-5.4c1.07-1.95,0.6-2.61-1.52-2.35
		c-0.43,0.15-0.53-0.08-0.51-0.44c4.6-0.14,5.4-1.03,4.9-5.53c-0.07-0.64-0.14-1.33,0.42-1.77c0.73-0.57,1.35,0,1.93,0.39
		c3.8,2.53,4.84,2.35,7.62-1.33c1.31,0.09,2.25,1.05,3.43,1.46c0.84,0.43,1.33,1.42,2.4,1.47c2.13,1.99,4.62,3.46,6.61,5.73
		c4.86,5.52,5.46,11.43,2.86,17.99c-0.47,1.17-1.2,2.36,0.58,3.1c-3.15,0.19-3.91,1.16-3.44,4.44c0.16,1.15,0.2,2.27-0.94,2.98
		c-1.13,0.7-1.96-0.09-2.8-0.66c-3.2-2.16-3.86-2.06-6.22,1c-1.26,0.28-2.32-0.26-3.37-0.83c-0.61-0.33-1.12-0.92-1.92-0.66
		c-0.88-0.61-1.81-1.06-2.92-0.95c-0.64-2.12-2.56-3.18-3.97-4.63C36.65,58.81,34.93,56.49,34.08,53.59z"/>
	<path class="st40" d="M45.62,66.53c1.27-0.59,2.86-0.15,5.29,1.49c0,0.83-0.29,1.52-0.9,2.1c-0.8,0.75-1.62,0.97-1.89-0.32
		C47.79,68.25,46.71,67.42,45.62,66.53z"/>
	<path class="st41" d="M65.29,60.31c-0.53-1.39,0.52-2.31,0.89-3.56c0.74,0.63,1.32,1.12,1.9,1.61
		C68.46,60.57,67.79,61.04,65.29,60.31z"/>
	<path class="st42" d="M38.33,68.01c-0.05-1.27,0.43-2.38,0.82-3.62c1.11,0.52,1.48,1.34,1.73,2.24
		C40.11,67.24,39.84,68.76,38.33,68.01z"/>
	<path class="st43" d="M51.86,31.98c-1.71,0.83-2.66-0.1-3.43-1.46c0.07-0.99,0.28-2.04,1.43-2.11c1.19-0.07,1.4,1.07,1.66,1.96
		C51.68,30.9,51.75,31.44,51.86,31.98z"/>
	<path class="st44" d="M33.56,38.76c0.17,0.15,0.34,0.29,0.51,0.44c-0.15,0.37-0.28,0.75-0.44,1.11c-0.28,0.61-0.26,1.64-1.24,1.44
		c-0.77-0.15-1.43-0.83-1.52-1.68c-0.12-1.05,0.67-1.32,1.55-1.37c0.24-0.01,0.48-0.01,0.72-0.01
		C33.27,38.72,33.41,38.74,33.56,38.76z"/>
	<path class="st45" d="M30.68,60.33c0.24-1.45,1.47-2.08,2.43-2.94c0.56,0.9,1.81,1.69,0.46,2.89
		C32.61,60.38,31.66,61.31,30.68,60.33z"/>
	<path class="st46" d="M57.14,42.55c1.08,2.18,2.56,4.13,2.48,6.82c-0.14,4.58-2.63,8.47-6.64,9.84c-4.39,1.5-9.01-0.01-11.81-3.86
		c-0.23-0.32-0.53-0.59-0.79-0.89c-1.23-0.59-1.45-1.77-1.71-2.93c0.47-3.95,0.72-7.96,4.43-10.6c2.88-2.05,5.95-2.59,9.27-1.45
		c1.49,0.51,3.11,0.78,4.29,2C56.97,41.77,57.14,42.12,57.14,42.55z"/>
	<path class="st47" d="M56.62,42.12c-1.9-0.92-3.54-2.36-5.83-2.47c-7.27-0.36-11.62,4.17-11.37,11.97
		c-1.62-0.44-1.23-1.36-0.58-2.36c-0.4-5.88,2.77-9.13,6.92-10.62c2.99-1.08,5.74-0.2,8.45,1.05C55.76,39.76,56.9,40.24,56.62,42.12
		z"/>
	<path class="st48" d="M38.84,49.26c0.17,0.79-0.22,1.72,0.58,2.36c0.32,0.95,0.64,1.9,0.96,2.85c0.38,2.46,2.13,3.97,4.01,5.57
		c-5.43-0.64-9.17-8.63-6.33-13.16C38.74,47.54,38.09,48.64,38.84,49.26z"/>
	<path class="st48" d="M56.62,42.12c-0.45-1.16-1.57-1.65-2.41-2.42c0.8-0.79,1.6-0.43,2.41-0.02c4.96,2.49,6.89,9.76,3.47,14.92
		c1.42-4.99,0.73-8.95-2.95-12.05C56.97,42.41,56.79,42.27,56.62,42.12z"/>
	<path class="st49" d="M43.66,49.75c-0.04-3.68,2.68-6.06,6.04-6.22c2.62-0.12,6.27,3.46,5.92,6.02c-0.4,2.96-2.14,6.1-6.3,5.98
		C46.45,55.46,43.67,52.66,43.66,49.75z"/>
</g>
</svg>
