<?xml version="1.0" encoding="utf-8"?>
<!-- Generator: Adobe Illustrator 23.0.2, SVG Export Plug-In . SVG Version: 6.00 Build 0)  -->
<svg version="1.1" id="Camada_1" xmlns="http://www.w3.org/2000/svg" xmlns:xlink="http://www.w3.org/1999/xlink" x="0px" y="0px"
	 viewBox="0 0 62.6 62.5" style="enable-background:new 0 0 62.6 62.5;" xml:space="preserve">
<style type="text/css">
	.st0{fill:#323232;}
	.st1{fill:#FEFEFE;}
	.st2{fill:#00C8F6;}
	.st3{fill:#00689D;}
	.st4{fill:#CA5600;}
	.st5{fill:#7AEBFE;}
	.st6{fill:#6BE7FD;}
	.st7{fill:#64E5FD;}
	.st8{fill:#FEBB00;}
	.st9{fill:#FE9000;}
	.st10{fill:#FCE082;}
	.st11{fill:#FCE085;}
	.st12{fill:#F6C562;}
</style>
<g>
	<path class="st0" d="M62.6,31.3C62.3,48.9,48.8,62.6,31,62.5C13.6,62.4-0.2,48.8,0,30.9C0.2,13.6,13.8-0.2,31.7,0
		C49,0.2,62.3,13.6,62.6,31.3z"/>
	<path class="st1" d="M56.8,31.3C57,45.4,45.1,57,31,56.9C17.3,56.7,5.4,45.2,5.7,30.7C5.9,17.1,17.4,5.3,32,5.7
		C45.6,6,57,17.4,56.8,31.3z"/>
	<path class="st2" d="M51.5,22.5c2.3,4.3,2.5,9,1.5,13.6C49.5,51.3,32.5,58.3,19.3,50c-2.3-1.5-4.4-3.3-5.9-5.6
		c-3.8-9-0.1-20.3,8-25.9c4.1-2.9,8.7-4.3,13.6-4.2c6.1,0.2,11.3,2.5,15.6,6.9C51,21.6,51.2,22.1,51.5,22.5z"/>
	<path class="st3" d="M51.5,22.5c-1.4-1.2-2.7-2.6-4.3-3.7c-4.2-3-8.9-4.4-14-4.1c-10.4,0.5-18.8,8.2-20.7,18
		c-0.7,3.7-0.4,7.3,0.6,10.9c0.1,0.3,0.1,0.6,0.2,0.9c-2.7-3.3-4-7.1-4.3-11.3C8.6,26,10.9,20,16.1,15c6-5.7,15.7-7.6,23.4-4.5
		c4.8,2,8.5,5.2,11.2,9.6C51,20.9,51.4,21.6,51.5,22.5z"/>
	<path class="st4" d="M25,38.8c-1.2,0-2.4,0-3.6,0c-2.6,0-4.2-1.4-4.4-4c-0.1-2.2-0.1-4.5,0-6.7c0.2-2.6,1.8-4,4.4-4
		c2.8,0,5.5,0,8.3,0c0.7,0,1-0.2,1-0.9c0-1-0.1-1.9,0.1-2.9c0.4-1.8,1.7-2.3,3.2-1.2c4,3.2,8,6.4,12.1,9.7c1.6,1.3,1.7,3.8,0,5.1
		c-4,3.3-8.1,6.5-12.1,9.8c-1.4,1.1-2.7,0.6-3.1-1.1c-0.2-0.9-0.2-1.9-0.1-2.9c0-0.6-0.2-0.8-0.8-0.8C28.2,38.8,26.6,38.8,25,38.8z"
		/>
	<path class="st5" d="M18.2,42.9c2.5,0,3.9,1.2,5,2.9c0.3,0.4,0.3,0.8,0,1.2c-0.3,0.5-0.9,0.7-1.4,0.6c-2-0.4-3.7-1.3-4.8-3
		C16.3,43.6,16.9,42.9,18.2,42.9z"/>
	<path class="st5" d="M48,23.4c0,0.7,0.1,1.4-0.8,1.7c-0.9,0.3-1.4-0.2-1.9-0.9c-0.6-0.9-1.2-1.9-1.4-3c-0.1-0.6-0.1-1.2,0.4-1.6
		c0.7-0.4,1.3-0.2,1.9,0.2C47.5,20.7,47.9,22,48,23.4z"/>
	<path class="st6" d="M48,29.4c-0.4-0.1-0.8-0.2-0.8-0.7c0-0.4,0.2-0.7,0.6-0.7c0.4,0,0.8,0.3,0.8,0.7C48.7,29.2,48.4,29.4,48,29.4z
		"/>
	<path class="st7" d="M16.9,40c-0.1,0.4-0.3,0.5-0.6,0.5c-0.4-0.1-0.7-0.3-0.7-0.7c0-0.3,0.3-0.4,0.6-0.4
		C16.6,39.4,16.8,39.7,16.9,40z"/>
	<path class="st8" d="M32.3,26.3c0.1-1.1,0.1-2.2,0.2-3.3c0.4-0.3,0.6,0,0.8,0.2c2.9,1.9,5.9,3.7,8.7,5.6c0.4,0.3,1.3,0.4,0.9,1.2
		c-2.4,1.3-4.5,2.9-6.7,4.5c-0.7,0.5-1.5,1-2.2,1.4c-0.8,0.5-1.2,0.3-1.3-0.6c-0.1-0.6,0.2-1.3-0.3-1.7c-0.6-0.5-1.5-0.3-2.2-0.2
		c-3.3,0.4-6.6,0.1-9.9,0.2c-0.6,0-1.2,0.1-1.6-0.6c0.1-1.9-0.2-3.8,0.2-5.7c0.7,0.2,1.4,0.3,2.1,0.3c3.3,0.1,6.5-0.2,9.8-0.2
		C31.7,27.5,32,26.9,32.3,26.3z"/>
	<path class="st9" d="M18.7,33.1c0.1,0.1,0.3,0.2,0.4,0.2c3.4,0,6.9,0.2,10.3-0.1c0.9-0.1,1.9-0.1,2.9-0.1c0.9,0,0.8,0.7,0.8,1.3
		c0,1.7,0.1,1.8,1.4,0.9c2-1.3,4-2.7,6-4.1c0.8-0.5,1.6-1.3,2.6-1.3c0.1-0.1,0.2-0.1,0.3-0.1c0.6,0.3,1.1,0.8,1.6,1.3
		c0.5,0.5-0.1,0.7-0.3,0.9c-3.8,3.1-7.7,6.1-11.5,9.2c-0.2,0.2-0.4,0.5-0.7,0.4c-0.3-0.1-0.2-0.5-0.2-0.7c0-0.9-0.1-1.8,0-2.8
		c0.1-1.1-0.2-1.5-1.4-1.4c-3.2,0.1-6.3,0-9.5,0c-2.1,0-2.9-0.8-2.9-2.9C18.7,33.5,18.7,33.3,18.7,33.1z"/>
	<path class="st10" d="M32.3,26.3c0.3,1.2-0.2,1.6-1.4,1.6c-3.7,0-7.4,0.1-11.1,0.1c-0.5,0-1,0.1-1-0.6c0.5-0.8,1.2-1.1,2.2-1.1
		C24.8,26.3,28.6,26.3,32.3,26.3z"/>
	<path class="st11" d="M43.4,30c-0.1,0-0.2,0-0.2,0c-3-2.2-6.2-4-9.3-6.1c-0.4-0.3-0.9-0.6-1.3-0.8c-0.3-0.7-0.1-1.4-0.1-2.4
		c3.9,3.1,7.5,6.1,11.2,9C43.7,29.9,43.6,30,43.4,30z"/>
	<path class="st12" d="M43.4,30c0.1-0.1,0.2-0.2,0.3-0.3c0.6,0.3,1.1,0.8,1.4,1.4C44.4,30.9,43.9,30.4,43.4,30z"/>
</g>
</svg>
