<?xml version="1.0" encoding="utf-8"?>
<!-- Generator: Adobe Illustrator 23.0.2, SVG Export Plug-In . SVG Version: 6.00 Build 0)  -->
<svg version="1.1" id="Camada_1" xmlns="http://www.w3.org/2000/svg" xmlns:xlink="http://www.w3.org/1999/xlink" x="0px" y="0px"
	 viewBox="0 0 128.05 130.53" style="enable-background:new 0 0 128.05 130.53;" xml:space="preserve">
<style type="text/css">
	.st0{fill:#323232;}
	.st1{fill:#FEFEFE;}
	.st2{fill:#732E0C;}
	.st3{fill:#D4C0B5;}
	.st4{fill:#CDB7AB;}
	.st5{fill:#E24B06;}
	.st6{fill:#C23C04;}
	.st7{fill:#E04A06;}
	.st8{fill:#E04B06;}
	.st9{fill:#585755;}
	.st10{fill:#595856;}
	.st11{fill:#585756;}
	.st12{fill:#5B5955;}
	.st13{fill:#595A58;}
	.st14{fill:#FE9936;}
	.st15{fill:#FDD175;}
	.st16{fill:#F07E26;}
	.st17{fill:#FE9A36;}
	.st18{fill:#707171;}
	.st19{fill:#717171;}
	.st20{fill:#FE9C37;}
	.st21{fill:#8C8C8C;}
	.st22{fill:#706F6F;}
	.st23{fill:#C6C7C7;}
	.st24{fill:#FCD178;}
	.st25{fill:#707070;}
	.st26{fill:#C4C4C3;}
	.st27{fill:#D26A20;}
	.st28{fill:#97471F;}
	.st29{fill:#7E3B1A;}
	.st30{fill:#E6E6E6;}
	.st31{fill:#C1C1C1;}
	.st32{fill:#57C085;}
	.st33{fill:#C8605E;}
	.st34{fill:#1E9991;}
	.st35{fill:#6E6E6E;}
	.st36{fill:#5B5B5B;}
	.st37{fill:#545454;}
	.st38{fill:#5D5D5D;}
	.st39{fill:#379C51;}
</style>
<g>
	<path class="st0" d="M128,35.72c-0.22,4.58-1.41,8.94-3.27,13.11c-0.45,1-0.56,1.84-0.29,2.94c1.26,5.03,2.38,10.14,2.04,15.34
		c-0.71,10.93-3.1,21.43-8.93,30.9c-0.63,1.02-1,1.93-0.57,3.09c3.07,8.37-3.14,18.94-10.3,22.51c-6.79,3.39-13.96,5.5-21.35,6.7
		c-3.06,0.49-6.37-0.72-9.14-2.27c-1.6-0.89-3.06-1.18-4.68-0.88c-4.77,0.87-9.52,0.5-14.28-0.11c-0.64-0.08-1.22-0.29-1.8,0.18
		c-2.74,2.23-6.27,2.18-9.43,3.2c-1.06,0.34-2.06-0.21-3.05-0.44c-8.02-1.81-15.91-3.81-22.86-8.65c-4.55-3.17-9.42-13.76-7.1-19.59
		c0.63-1.59,0.29-2.9-0.6-4.43C5.94,86.07,3.46,73.88,4.15,60.99c0.05-0.87,0.2-1.75,0.48-2.58c1.31-3.96,0.11-7.17-1.79-10.84
		c-4.25-8.2-3.28-16.83,0.03-25.24C7.27,11.11,15.49,4.38,27.02,1.11c6.54-1.86,12.76-0.98,19.07,0.62
		c2.95,0.75,5.88,1.59,8.29,3.54c0.91,0.73,1.85,0.51,2.73,0.38c5.09-0.79,10.17-0.74,15.25-0.09c0.65,0.08,1.07-0.12,1.51-0.46
		c4.05-3.08,8.95-3.83,13.7-4.61c12.23-2.02,22.36,2.39,30.91,11c5.31,5.34,7.43,12.16,8.98,19.24C127.83,32.36,128.18,34,128,35.72
		z"/>
	<path class="st1" d="M119.48,35.21c-0.4,4.5-1.17,8.37-3.77,11.54c-1,1.22-0.92,2.27-0.5,3.6c1.65,5.3,2.86,10.75,2.63,16.3
		c-0.47,11.1-3.34,21.52-10.15,30.54c-0.96,1.27-0.99,2.03-0.06,3.38c3.1,4.48,1.37,11.24-3.65,14.49
		c-5.75,3.72-12.28,5.51-18.9,6.61c-2.31,0.38-5.01-0.67-6.82-2.71c-0.97-1.1-1.85-1.4-3.45-1.04c-6.73,1.5-13.5,1.5-20.23-0.24
		c-0.54-0.14-1.02-0.28-1.5,0.27c-3.31,3.77-7.39,4.29-12,2.95c-5.23-1.53-10.45-2.99-15.07-6.07c-4.12-2.74-7.15-10.11-2.81-15.14
		c0.74-0.86,0.39-1.25-0.16-1.96c-5.28-6.74-8.23-14.55-9.7-22.85c-1.31-7.41-0.93-14.87,1.18-22.15c0.46-1.6,0.52-2.8-0.77-4.14
		c-3.49-3.63-5.3-8.29-5.13-13.12c0.19-5.41,1.76-10.76,5.04-15.28c5.4-7.42,12.68-11.81,21.96-11.51c6.03,0.2,12.23,1,16.59,6.16
		c0.49,0.58,0.9,0.32,1.46,0.19c7.05-1.65,14.13-1.84,21.23-0.31c0.74,0.16,1.21-0.11,1.66-0.62c2.92-3.33,7.01-4.2,11.03-5
		c9.72-1.93,17.79,1.38,24.55,8.28C117.1,22.46,118.58,28.96,119.48,35.21z"/>
	<path class="st2" d="M26.66,41.17c-0.89,0.9-1.74,1.84-2.68,2.68c-1.77,1.59-3.4,1.38-4.86-0.48c-2.9-3.73-3.58-7.71-2.22-12.32
		c1.76-6.01,5.17-10.41,10.81-13.18c5.71-2.8,11.36-1.92,16.83,0.35c3.46,1.43,3.65,4.31,0.91,6.71c-0.14,0.31-0.49,0.45-0.64,0.75
		c0.35-0.15,0.76-0.09,1.1-0.31c11.53-4.93,23.25-5.7,35.23-1.29c0.11-1.38-1.04-2.43-0.22-3.58c0.8-1.12,1.76-2.08,3.06-2.6
		c13.5-5.38,25.99,2.43,27.76,16.37c0.46,3.64-0.88,6.72-3.09,9.51c-0.97,1.23-2.28,1.16-3.9,0.79c2.75,5.43,4.52,10.82,5.13,16.57
		c1.44,13.63-2.46,25.53-11.63,35.67c-1.25,1.38-1.64,2.25-0.14,3.63c0.98,0.91,1.66,2.14,2.47,3.22c1.56,2.1,1.26,3.98-1.05,5.3
		c-4.39,2.52-9.16,4.04-14.09,5.07c-1.84,0.39-2.94-0.96-3.49-2.33c-1.06-2.67-2.53-2.73-5.09-1.97c-8.32,2.47-16.73,2.17-25-0.43
		c-1.44-0.45-2-0.23-2.71,1.1c-2.12,3.97-2.76,4.11-7.23,2.94c-3.64-0.95-7.14-2.23-10.47-3.95c-3.12-1.61-3.5-3.37-1.42-6.18
		c1.14-1.53,3-3,3.18-4.64c0.18-1.58-2.14-2.74-3.25-4.19c-11.68-15.21-13.02-34.53-3.48-51.15c0.28-0.48,0.5-0.99,0.74-1.49
		c0.2-0.41,0.21-0.92,0.99-1.48C27.46,40.76,27.11,41.05,26.66,41.17z"/>
	<path class="st3" d="M26.66,41.17c0.68-0.73,1.37-1.46,2.37-2.54c-0.3,1.59-1.09,2.32-1.81,3.1
		C27.03,41.55,26.84,41.36,26.66,41.17z"/>
	<path class="st4" d="M45.91,25.38c-0.83,0.51-1.66,1.01-2.49,1.52c0.32-1.15,1.14-1.6,2.03-1.96
		C45.6,25.08,45.76,25.23,45.91,25.38z"/>
	<path class="st5" d="M27.22,86.79c-8.73-15.16-6.37-36.25,5.46-48.99c0.65-0.7,1.19-1.49,1.78-2.24c0.67-1.09,1.56-1.94,2.74-2.46
		c6.6-5.08,13.84-8.61,22.22-9.72c10.65-1.42,20.36,0.99,29.37,6.62c1.08,0.67,2.11,1.42,3.17,2.13c1.07,0.37,2.1,0.79,2.38,2.07
		c3.2,3.25,6.42,6.49,8.26,10.79c0.37,0.85,0.66,1.71,0.27,2.64c-1.42,0.99-1.61-0.54-1.98-1.14c-1.97-3.22-4.17-6.22-6.87-8.88
		c-6.66-6.57-14.53-10.59-23.85-11.71c-0.63-0.08-1.26-0.23-1.89-0.32c-15.98-0.7-28.56,5.44-37.45,18.79
		c-2.8,4.21-4.67,8.88-5.63,13.89c-1.57,9.03-0.46,17.7,3.55,25.97c0.41,0.84,0.95,1.7,0.4,2.7C28.48,87.38,27.84,87.25,27.22,86.79
		z"/>
	<path class="st6" d="M102.51,47.99c0.03-1,0.06-2,0.09-3c2.9,3.95,4.3,8.55,5.1,13.23c1.79,10.45,0.26,20.44-5.03,29.76
		c-2.23,3.93-5.36,7.1-8.31,10.43c-0.2,0.52-0.49,0.98-0.9,1.36c-2.99,2.56-6.29,4.62-9.86,6.27c-0.73,0.25-1.37,0.9-2.24,0.47
		c-10.72,4.03-21.45,4.04-32.19,0.06c-0.95,0.23-1.76-0.22-2.59-0.55c-3.53-1.66-6.72-3.86-9.75-6.31
		c-0.49-0.32-0.65-0.88-0.97-1.32c-3.18-3.64-6.67-7.05-8.64-11.59c0.63,0.01,1.26,0.01,1.89,0.02c0.78-0.16,1.06,0.49,1.48,0.91
		c5.02,7.58,11.53,13.35,20.11,16.66c6.58,2.54,13.37,2.81,20.26,2.21c1.18-0.1,2.39-0.16,3.54-0.5
		c14.24-3.61,23.89-12.35,29.13-26.03c3.02-9.53,2.93-19.01-0.49-28.42C102.99,50.41,101.86,49.35,102.51,47.99z"/>
	<path class="st7" d="M42.05,19.46c1.65-0.33,2.7,0.7,3.21,1.92c0.55,1.32-0.91,1.81-1.72,2.51c-2.77,2.4-6.05,4.14-8.67,6.74
		c-0.54,1.08-1.18,2.05-2.45,2.38c-2.89,2.83-5.81,5.63-8.68,8.49c-2.21,2.21-2.31,2.25-3.95-0.32c-0.53-0.83-1.36-1.63-0.87-2.8
		c-0.23-1.05,0.66-1.49,1.17-2.14c0.37-0.37,0.75-0.74,1.06-1.17c1.2-1.84,2.91-3.2,4.37-4.8c3.25-3.06,6.53-6.09,10.16-8.69
		c0.72-0.51,1.51-0.89,2.35-1.18C39.36,19.98,40.54,19.01,42.05,19.46z"/>
	<path class="st8" d="M92.96,30.59c-2.28-2.56-5.42-4.05-7.94-6.31c-0.92-0.82-2.62-1.25-2.42-2.65c0.21-1.5,1.74-2.08,3.15-2.46
		c1.39-0.05,2.58,0.62,3.84,1.04c3.75,1.64,6.75,4.31,9.68,7.08c1.09,1.03,2.05,2.19,3.33,3c1.73,1.37,3.08,3.09,4.39,4.85
		c0.24,0.34,0.45,0.71,0.7,1.04c0.51,0.75,1.45,1.21,1.54,2.25c0.11,1.77-1.16,2.89-2.09,4.12c-0.86,1.14-1.5,0.08-2.08-0.48
		c-3.24-3.13-6.46-6.27-9.69-9.41C93.9,32.76,93.43,31.67,92.96,30.59z"/>
	<path class="st9" d="M42.05,19.46c-1.27,0.47-2.55,0.94-3.82,1.41c-2.43-0.41-4.76-0.11-7.01,0.89c-0.81,0.5-1.66,0.9-2.53,1.28
		c-4.88,2.15-7.27,5.99-7.62,11.21c-0.05,0.81-0.26,1.57-0.59,2.3c-0.51,0.6-1.03,1.21-1.55,1.81c-1.56-1.34-1.01-3.16-0.76-4.69
		c1.27-7.54,5.51-12.91,12.83-15.12C34.56,17.5,38.51,17.51,42.05,19.46z"/>
	<path class="st9" d="M109.24,38.43c-0.61-0.64-1.21-1.28-1.82-1.91c-0.47-5.34-1.85-10.17-7.02-12.96
		c-0.19-0.11-0.38-0.24-0.56-0.37c-0.97-0.73-1.94-1.47-3.13-1.85c-2.39-0.24-4.75-0.77-7.16-0.69c-1.35-0.28-2.62-0.78-3.8-1.48
		c11.35-3.67,21.66,1.97,23.99,14.04C110.09,35.01,110.57,36.8,109.24,38.43z"/>
	<path class="st10" d="M35.86,98.38c0.33,0.26,0.65,0.51,0.98,0.77c0.66,1.73-1.03,2.46-1.58,3.67c-0.14,0.19-0.3,0.37-0.44,0.56
		c-1.68,2.23-1.62,2.42,0.86,3.49c1.81,0.78,3.69,1.38,5.53,2.08c3.3,0.76,3.3,0.77,4.68-2.09c0.24-0.51,0.51-0.97,0.99-1.28
		c0.76,0.33,1.53,0.66,2.29,0.99c-0.5,0.9-1.01,1.8-1.51,2.71c-1.85,3.38-1.91,3.5-5.59,2.36c-3.18-0.99-6.34-2.07-9.33-3.6
		c-2.34-1.2-2.46-1.92-0.98-4.12C33.05,102,34.88,100.51,35.86,98.38z"/>
	<path class="st11" d="M93.38,99.24c0.32-0.28,0.65-0.56,0.97-0.84c1.47,1.99,2.83,4.07,4.45,5.92c1.19,1.36,0.92,2.33-0.39,3.11
		c-4.01,2.4-8.4,3.82-12.96,4.75c-0.83,0.17-1.31-0.37-1.72-1.02c-0.94-1.49-1.91-2.95-2.38-4.67c0.66-0.29,1.31-0.58,1.97-0.87
		c0.42,0.25,0.67,0.63,0.9,1.06c1.54,2.96,1.54,2.96,4.85,2.28c1.71-0.44,3.32-1.15,4.94-1.81c3.09-1.26,3.14-1.44,1.34-4.16
		C94.71,101.74,93,101.04,93.38,99.24z"/>
	<path class="st12" d="M32.43,33.01c0.82-0.79,1.63-1.58,2.45-2.38c0.58,0.99,1.42,1.75,2.32,2.45c-0.75,1-1.55,1.94-2.74,2.46
		C33.78,34.7,33.1,33.86,32.43,33.01z"/>
	<path class="st13" d="M92.96,30.59c0.81,0.69,1.62,1.38,2.42,2.07c-0.04,0.72-0.51,1.15-1.05,1.53c-0.79-0.69-1.59-1.38-2.38-2.07
		C92.29,31.61,92.62,31.1,92.96,30.59z"/>
	<path class="st14" d="M102.51,47.99c0.18,1.14,1.11,2.06,0.99,3.3c-0.71,3.23-2.12,6.18-3.67,9.07c-0.27,0.5-0.66,1.01-1.26,1.01
		c-0.79-0.01-0.93-0.77-1.17-1.34c-0.27-0.67-0.41-1.38-0.59-2.08C93.12,43.61,80.3,33.89,65.5,33.62
		C49.28,33.33,35.13,45.69,32.91,60.9c-1.4,9.6,0.54,18.45,6.77,26.15c0.62,0.76,1.9,1.53,1.28,2.58c-0.65,1.1-2.03,0.62-3.11,0.38
		c-2.64-0.59-5.38-0.86-7.8-2.24c-0.32-0.32-0.63-0.64-0.95-0.96c-1.82-4.15-3.69-8.27-4.51-12.78c-0.96-5.35-1.13-10.69,0.14-16.02
		c2.52-8.61,8.86-14.16,15.59-19.35c7.18-5.53,14.98-9.94,23.67-12.73c1.46-0.47,3.02-0.28,4.39-0.98
		c8.45,0.82,16.04,3.79,22.7,9.08C95.89,37.86,99.49,42.69,102.51,47.99z"/>
	<path class="st15" d="M68.39,24.96c-0.54,1.28-1.81,0.8-2.73,1.08c-10.95,3.34-20.4,9.21-29.17,16.49
		c-5.2,4.32-8.66,9.69-11.74,15.48c2.34-12.16,9.11-21.2,19.59-27.54C51.71,26,59.82,24.43,68.39,24.96z"/>
	<path class="st16" d="M30.06,87.77c2.8,0.15,5.4,1.3,8.16,1.7c0.85,0.12,1.66,0.41,2.52,0C30.51,77.06,28.5,63.46,36.41,49.53
		c7.01-12.34,18.56-17.63,32.7-16.4c7.42,0.65,13.93,3.96,19.32,9.14c5.32,5.11,8.64,11.39,9.79,19.16
		c2.83-3.19,3.07-7.19,5.29-10.14c1.76,3.03,2.43,6.46,2.71,9.81c0.55,6.59,0.52,13.22-2.22,19.49
		c-5.33,8.21-12.29,14.84-20.07,20.67c-2.84,2.13-5.89,3.92-9.18,5.27c-6.52,1.54-13.07,1.5-19.52-0.1
		C44.3,103.69,35.87,97.45,30.06,87.77z"/>
	<path class="st17" d="M74.73,106.51c-0.08-0.02-0.16-0.02-0.23-0.05c-0.2-0.07-0.51-0.28-0.17-0.4c4.31-1.46,7.83-4.21,11.35-6.93
		c6.6-5.1,12.42-10.97,17.21-17.83c0.26-0.37,0.23-1.25,1.1-0.73C98.73,94.3,89.1,103.08,74.73,106.51z"/>
	<path class="st18" d="M46.87,105.58c-0.14,0.45-0.25,0.91-0.43,1.34c-1.63,3.79-0.6,3.59-5.36,2.47c0.87-1.18,0.78-1.94-0.7-2.69
		c-2.06-1.04-4.34-1.89-5.56-4.11c0.42-1.29,1.85-1.99,2.01-3.44C40.05,101.49,43.27,103.83,46.87,105.58z"/>
	<path class="st19" d="M89.11,109.39c-3.84,1.31-4.28,1.02-5.79-3.76c3.6-1.75,6.88-3.99,10.06-6.39c0.42,1.41,1.74,2.19,2.4,3.44
		c-1.51,1.92-3.62,2.98-5.77,3.94C88.53,107.27,88.03,108.01,89.11,109.39z"/>
	<path class="st20" d="M40.15,23.92c-4.55,3.86-9.21,7.59-13.46,11.79c-1.19,1.18-1.92,2.79-3.45,3.62
		c-0.56,0.31-1.01,1.28-1.82,0.53c-0.86-0.79-0.1-1.49,0.33-2.09c2.8-4.03,6.2-7.48,10.11-10.44c2.17-1.64,4.44-3.1,6.85-4.36
		C39.16,23.33,40.24,22.73,40.15,23.92z"/>
	<path class="st21" d="M30.95,21.52c1.51-1.58,5.53-1.93,7.28-0.65c-4.05,1.85-7.03,5.11-10.31,7.96c-0.71,0.62-1.46,1.2-2.19,1.81
		c-1.65-0.62-1.07-1.91-0.68-2.89c0.78-1.93,1.94-3.61,3.82-4.72C29.6,22.61,30.48,22.33,30.95,21.52z"/>
	<path class="st22" d="M30.95,21.52c0.61,0.06,1.01,0.16,0.19,0.65c-2.18,1.31-4.17,2.77-5.33,5.19c-0.56,1.16-0.86,2.16-0.08,3.27
		c-1.43,1.58-2.86,3.16-4.3,4.74c-0.82-0.98-0.52-2.07-0.29-3.14c0.95-4.45,3.7-7.54,7.52-9.78C29.42,22.15,30.19,21.84,30.95,21.52
		z"/>
	<path class="st23" d="M28.66,22.47c-2.19,2.35-5.12,4.01-6.22,7.35c-0.6,1.84-1.24,3.61-1.01,5.57c-0.32,0.39-0.64,0.78-0.96,1.18
		C20.05,29.69,22.91,24.77,28.66,22.47z"/>
	<path class="st24" d="M40.15,23.92c-0.48-0.31-0.96-0.63-1.44-0.94c1.24-0.78,2.41-1.88,4.21-0.91
		C42.12,23.04,41.06,23.37,40.15,23.92z"/>
	<path class="st20" d="M89.48,23.06c6.56,3.4,11.84,8.29,16.38,14.05c0.34,0.43,0.63,0.92,0.87,1.42c0.28,0.58,0.12,1.1-0.42,1.46
		c-0.53,0.35-0.89-0.04-1.24-0.36c-0.47-0.43-0.93-0.88-1.37-1.34c-5.14-5.35-10.53-10.43-16.6-14.73
		C87.71,22.58,88.66,23.15,89.48,23.06z"/>
	<path class="st21" d="M89.56,20.65c2.64-1.29,5.17-0.14,7.72,0.36c-0.06,0.28-0.07,0.55,0.15,0.79c2.04,1.28,3.91,2.75,4.98,4.96
		c0.62,1.28,1.2,2.63,0.08,3.98c-2.74-1.56-4.55-4.19-7.02-6.09C93.58,23.19,91.64,21.82,89.56,20.65z"/>
	<path class="st25" d="M102.5,30.74c0.49-3.72-1.75-5.9-4.43-7.82c-0.62-0.45-1.54-0.55-1.73-1.5c1.6-0.29,2.55,1.03,3.82,1.54
		l-0.03-0.02c3.92,2.43,6.24,5.92,6.98,10.47c0.12,0.76,0.54,1.56-0.45,2.06C105.27,33.9,103.89,32.32,102.5,30.74z"/>
	<path class="st26" d="M106.66,35.47c0.08-4.3-1.5-7.86-4.77-10.67c-0.65-0.56-1.48-0.95-1.76-1.86c5.27,2.25,8.43,8.14,7.29,13.58
		C107.17,36.17,106.92,35.82,106.66,35.47z"/>
	<path class="st24" d="M89.48,23.06c-0.68,0.7-1.61,0.28-2.39,0.51c-0.62-0.43-1.24-0.86-2.01-1.4C87.04,21,88.18,22.38,89.48,23.06
		z"/>
	<path class="st26" d="M100.16,22.96c-1.27-0.51-2.55-1.03-3.82-1.54c0.32-0.14,0.63-0.27,0.95-0.41
		C98.39,21.44,99.46,21.92,100.16,22.96z"/>
	<path class="st21" d="M34.82,102.59c2.08,1.42,4.11,2.89,6.41,3.98c2.06,0.98,2.02,1.37-0.15,2.82c-2.08-0.75-4.17-1.49-6.24-2.24
		c-1.97-0.72-2.69-1.78-0.96-3.52C34.21,103.29,34.51,102.93,34.82,102.59z"/>
	<path class="st21" d="M89.11,109.39c-2.17-1.47-2.23-1.9-0.1-2.83c2.41-1.05,4.43-2.72,6.76-3.88c2.43,3.64,2.85,2.86-1.35,4.9
		C92.76,108.39,91.03,109.21,89.11,109.39z"/>
	<path class="st27" d="M95.86,63.74c0.47,0.62,0.86,0.82,1.31-0.06c0.2-0.38,0.6-0.85,1.15-0.6c0.54,0.25,0.36,0.83,0.37,1.29
		c0.52,16.86-10.1,31.6-27.4,34.87c-9.83,1.86-18.77-0.53-26.79-6.47c-0.82-0.61-1.59-1.3-2.41-1.97c1.01-1.08,2.24-0.15,2.85-1.12
		c0.87-0.28,1.35,0.39,1.94,0.78c16.82,12.17,39.24,5.6,46.7-13.71c1.13-2.93,1.53-6.03,1.79-9.14
		C96.03,66.39,94.67,64.9,95.86,63.74z"/>
	<path class="st28" d="M46.35,90.67c-0.47-0.33-0.94-0.66-1.42-0.98C32.42,78.9,30.87,59.55,41.43,46.81
		c6.34-7.64,14.59-11.45,24.32-11.24c16.71,0.36,28.72,12.91,30.11,28.18c-0.49,1.3,1.09,2.61-0.01,3.91
		c-0.58-0.56-0.48-0.03-0.55,0.32c-0.11,0.59-0.14,1.31-1.09,1.04c-0.23-0.28-0.34-0.61-0.4-0.96c0.09-5.19-0.71-10.14-3.2-14.81
		c-4.39-8.23-11.12-13.26-20.21-15.05c-16.76-3.31-34.02,9.44-33.9,28.66c0.05,7.43,2.72,14.05,8.06,19.45
		c1.16,1.18,2.64,2.09,3.36,3.67C47.63,90.72,46.97,90.65,46.35,90.67z"/>
	<path class="st29" d="M94.44,69.04c0.57-0.47,0.34-1.16,0.46-1.75c0.08-0.37,0.19-0.87,0.66-0.69c0.2,0.08,0.2,0.68,0.29,1.04
		c-0.22,14.78-12.01,27.55-26.73,29.31c-8.53,1.02-16.04-1.06-22.76-6.29c0.35-0.58,0.92-0.48,1.46-0.5c0.65-0.32,1.2,0,1.76,0.26
		c4.58,3.08,9.74,4.71,15.14,4.73c6.77,0.02,13.06-1.97,18.42-6.41c5.45-4.51,8.89-10.17,10.23-17.12
		C93.54,70.71,93.6,69.7,94.44,69.04z"/>
	<path class="st30" d="M49.21,90.81c-0.47-0.21-0.93-0.43-1.4-0.64c-7.85-6.36-12.14-14.47-11.91-24.7
		C36.26,49.2,50.62,36,66.73,37.07c16.43,1.09,29.09,15.32,27.59,31c-2.53,4.79-6.62,8.17-10.83,11.27
		C73.34,86.81,61.92,90.81,49.21,90.81z"/>
	<path class="st31" d="M49.21,90.81c2.3-1.37,4.92-0.65,7.38-1.04c10.11-1.59,19.25-5.33,27.38-11.53
		c3.88-2.96,7.08-6.6,10.36-10.18c0.04,0.32,0.08,0.65,0.12,0.97c-1.98,13.82-10.67,23.57-23.62,26.12
		C63.09,96.68,55.78,95.43,49.21,90.81z"/>
	<path class="st32" d="M64.27,71.56c-2.45,2.16-4.85,4.37-7.36,6.45c-1.18,0.98-1.74,1.73-0.3,2.93c0.5,0.42,1.3,0.95,1,1.75
		c-0.35,0.95-1.34,0.65-2.1,0.72c-2.62,0.25-5.24,0.38-7.85,0.73c-1.64,0.22-2.05-0.38-1.7-1.84c0.68-2.79,1.38-5.57,2.03-8.36
		c0.39-1.67,1.21-1.87,2.13-0.49c1.2,1.8,2.13,1.68,3.61,0.2c2.01-2.03,4.31-3.78,6.48-5.65C61.65,69.09,62.93,70.35,64.27,71.56z"
		/>
	<path class="st33" d="M62.52,61.82c0-1.43-0.08-2.87,0.03-4.3c0.13-1.66-0.26-2.62-2.19-2.36c-0.65,0.09-1.54,0.32-1.89-0.56
		c-0.27-0.69,0.38-1.16,0.73-1.66c1.6-2.28,3.26-4.52,4.83-6.82c0.85-1.26,1.5-1.15,2.31,0.02c1.68,2.42,3.39,4.82,5.12,7.2
		c0.96,1.32,0.51,2.03-0.96,1.81c-2.47-0.37-2.75,0.92-2.59,2.86c0.1,1.26-0.01,2.55-0.03,3.82C66.09,62.29,64.31,62.21,62.52,61.82
		z"/>
	<path class="st34" d="M62.52,61.82c1.79-0.76,3.58-0.72,5.37,0.01c2.06,1.71,3.2,3.77,2.11,6.45c-1.03,2.52-3.09,3.45-5.73,3.27
		c-2-0.44-3.25-1.74-4.05-3.55C59.51,65.4,60.52,63.43,62.52,61.82z"/>
	<path class="st35" d="M66.22,40.96c-0.2,0.61,0.34,1.7-0.81,1.61c-1.06-0.08-0.64-1.11-0.61-1.72c0.04-0.69-0.35-1.93,0.79-1.85
		C66.69,39.08,65.97,40.3,66.22,40.96z"/>
	<path class="st36" d="M39.57,67.16c-0.61-0.13-1.57,0.31-1.64-0.76c-0.07-1.12,0.9-0.87,1.53-0.85c0.61,0.02,1.56-0.37,1.63,0.74
		C41.17,67.47,40.2,67.05,39.57,67.16z"/>
	<path class="st37" d="M91.04,67.31c-0.61-0.18-1.69,0.5-1.69-0.67c0-0.94,0.98-0.61,1.53-0.53c0.68,0.09,1.91-0.49,1.92,0.65
		C92.81,67.72,91.64,67.08,91.04,67.31z"/>
	<path class="st38" d="M66.14,92.27c-0.16,0.7,0.27,1.71-0.82,1.69c-1.07-0.02-0.71-1.01-0.74-1.64c-0.02-0.57-0.26-1.41,0.66-1.48
		C66.4,90.75,65.95,91.77,66.14,92.27z"/>
	<path class="st39" d="M65.1,62.81c2.16-0.02,3.79,1.59,3.8,3.76c0.01,1.76-1.69,3.36-3.63,3.43c-1.96,0.06-3.55-1.56-3.54-3.63
		C61.74,64.42,63.25,62.83,65.1,62.81z"/>
</g>
</svg>
