<?xml version="1.0" encoding="utf-8"?>
<!-- Generator: Adobe Illustrator 23.0.2, SVG Export Plug-In . SVG Version: 6.00 Build 0)  -->
<svg version="1.1" id="Camada_1" xmlns="http://www.w3.org/2000/svg" xmlns:xlink="http://www.w3.org/1999/xlink" x="0px" y="0px"
	 viewBox="0 0 62.5 62.6" style="enable-background:new 0 0 62.5 62.6;" xml:space="preserve">
<style type="text/css">
	.st0{fill:#323232;}
	.st1{fill:#FEFEFE;}
	.st2{fill:#00C8F6;}
	.st3{fill:#00689D;}
	.st4{fill:#CA5600;}
	.st5{fill:#7AEBFE;}
	.st6{fill:#6BE7FD;}
	.st7{fill:#64E5FD;}
	.st8{fill:#FE9000;}
	.st9{fill:#FCE085;}
	.st10{fill:#FEBB00;}
</style>
<g>
	<path class="st0" d="M31.3,62.6C13.7,62.4,0,48.9,0,31.2C0,13.6,13.7-0.2,31.6,0c17.3,0.2,31.2,13.7,30.9,31.8
		C62.3,49,48.9,62.3,31.3,62.6z"/>
	<path class="st1" d="M31.3,56.8C17.4,57,5.5,45.3,5.7,31C5.8,17.2,17.3,5.4,31.8,5.7c13.6,0.3,25.4,11.7,25,26.3
		C56.5,45.7,45,57,31.3,56.8z"/>
	<path class="st2" d="M51.5,22.5c2.3,4.3,2.5,9,1.5,13.6C49.5,51.3,32.5,58.3,19.3,50c-2.3-1.5-4.4-3.3-5.9-5.6
		c-3.8-9-0.1-20.3,8-25.9c4.1-2.9,8.7-4.3,13.6-4.2c6.1,0.2,11.3,2.5,15.6,6.9C51,21.6,51.2,22.1,51.5,22.5z"/>
	<path class="st3" d="M51.5,22.5c-1.4-1.2-2.7-2.6-4.3-3.7c-4.2-3-8.9-4.4-14-4.1c-10.4,0.5-18.8,8.2-20.7,18
		c-0.7,3.7-0.4,7.3,0.6,10.9c0.1,0.3,0.1,0.6,0.2,0.9c-2.7-3.3-4-7.1-4.3-11.3C8.6,26,10.9,20,16.1,15c6-5.7,15.7-7.6,23.4-4.5
		c4.8,2,8.5,5.2,11.2,9.6C51,20.9,51.4,21.6,51.5,22.5z"/>
	<path class="st4" d="M23.9,31.1c0-3.3,0-6.6,0-9.9c0-2,0.7-3,2.2-3.3c0.7-0.1,1.3,0.1,1.9,0.4c5.6,3.5,11.3,6.9,16.9,10.5
		c1.9,1.2,1.9,3.8,0,5c-5.6,3.5-11.3,7-16.9,10.5c-1.8,1.1-3.5,0.3-4-1.7c-0.1-0.5-0.1-1-0.1-1.5C23.9,37.7,23.9,34.4,23.9,31.1z"/>
	<path class="st5" d="M17.8,42.9c2.9,0,4.4,1.2,5.4,3c0.5,0.9-0.2,2-1.4,1.8c-2.1-0.3-3.7-1.3-4.9-3.1C16.3,43.5,17,42.9,17.8,42.9z
		"/>
	<path class="st5" d="M48,23.5c0,0.7,0.1,1.4-0.8,1.7c-0.8,0.2-1.4-0.1-1.8-0.8c-0.7-1-1.3-2-1.4-3.2c-0.1-0.6-0.1-1.1,0.5-1.5
		c0.6-0.4,1.2-0.3,1.7,0.1C47.5,20.6,47.9,22,48,23.5z"/>
	<path class="st6" d="M48.7,28.9c-0.1,0.4-0.3,0.6-0.7,0.6c-0.4,0-0.8-0.2-0.8-0.7c0-0.4,0.3-0.7,0.7-0.6
		C48.3,28.2,48.6,28.4,48.7,28.9z"/>
	<path class="st7" d="M16.9,40c-0.1,0.4-0.3,0.5-0.6,0.5c-0.4-0.1-0.7-0.3-0.7-0.7c0-0.3,0.3-0.4,0.6-0.4
		C16.6,39.4,16.8,39.7,16.9,40z"/>
	<path class="st8" d="M42.7,32.2c-2.8,1.7-5.6,3.4-8.3,5.1c-2.3,1.4-4.5,2.8-6.8,4.2c-0.3,0.2-0.5,0.6-0.9,0.4
		c-0.4-0.2-0.2-0.7-0.2-1c0-5.9,0-11.7,0-17.6c0.2,0,0.3,0.1,0.4,0.3c0.3,2.7,0.1,5.3,0.1,8c0,1.6,0,3.2,0.1,5
		c2.2-1.7,4.5-2.8,6.6-4.3c1.5-1,2.9-2.2,4.6-2.7C39.9,30,41.4,30.9,42.7,32.2z"/>
	<path class="st9" d="M26.6,23.4c-0.1-0.1-0.2-0.1-0.2-0.2c0-0.9,0-1.8,0-2.9c5.9,3.7,11.7,7.2,17.5,11c-0.4,0.4-0.7,0.7-1.2,0.8
		c-1.4-0.8-2.8-1.7-4.3-2.5c-1.2-0.3-2.2-1-3.1-1.7c-2.2-1.5-4.7-2.4-7.1-3.5C27.6,24.2,27,24,26.6,23.4z"/>
	<path class="st10" d="M26.6,23.4c4.2,1.6,8.2,3.6,11.8,6.2c-1.7,0.7-3.1,1.8-4.6,2.8c-2.3,1.5-4.7,3.1-7.2,4.7
		C26.6,32.4,26.6,27.9,26.6,23.4z"/>
</g>
</svg>
