<?xml version="1.0" encoding="utf-8"?>
<!-- Generator: Adobe Illustrator 23.0.2, SVG Export Plug-In . SVG Version: 6.00 Build 0)  -->
<svg version="1.1" id="Camada_1" xmlns="http://www.w3.org/2000/svg" xmlns:xlink="http://www.w3.org/1999/xlink" x="0px" y="0px"
	 viewBox="0 0 62.6 62.5" style="enable-background:new 0 0 62.6 62.5;" xml:space="preserve">
<style type="text/css">
	.st0{fill:#323232;}
	.st1{fill:#FEFEFE;}
	.st2{fill:#00C8F6;}
	.st3{fill:#00689D;}
	.st4{fill:#CA5600;}
	.st5{fill:#7AEBFE;}
	.st6{fill:#6BE7FD;}
	.st7{fill:#FEBA00;}
	.st8{fill:#FCE085;}
	.st9{fill:#FDBC05;}
	.st10{fill:#FD9000;}
	.st11{fill:#FD8F00;}
	.st12{fill:#FEBA01;}
	.st13{fill:#FBDE82;}
	.st14{fill:#FBDE83;}
	.st15{fill:#FEE386;}
	.st16{fill:#FC8F00;}
	.st17{fill:#F99000;}
	.st18{fill:#F78B01;}
	.st19{fill:#FA9103;}
	.st20{fill:#FB9101;}
	.st21{fill:#FA8E00;}
</style>
<g>
	<path class="st0" d="M62.6,31.3c-0.3,17.6-13.8,31.3-31.5,31.2C13.6,62.5-0.2,48.8,0,30.9C0.2,13.6,13.8-0.3,31.8,0
		C49,0.3,62.3,13.7,62.6,31.3z"/>
	<path class="st1" d="M31.3,56.8C17.4,57,5.5,45.3,5.7,31C5.8,17.2,17.3,5.4,31.8,5.7c13.6,0.3,25.4,11.7,25,26.3
		C56.5,45.7,45,57,31.3,56.8z"/>
	<path class="st2" d="M51.5,22.5c2.3,4.3,2.5,9,1.5,13.6C49.5,51.3,32.5,58.3,19.3,50c-2.3-1.5-4.4-3.3-5.9-5.6
		c-3.8-8.9-0.1-20.2,7.9-25.9c3.5-2.5,7.4-3.8,11.7-4.2c0.7-0.1,1.4-0.2,2.1,0.3c0.2,0.4,0,0.8-0.2,1.1c-0.6,1.5-1.6,2.8-2.2,4.3
		c-0.3,0.7-1,0.8-1.6,0.5c-0.8-0.3-1.6-0.6-2.4-0.8c-1.2-0.3-2,0-2.7,1c-0.6,0.8-0.9,1.8-1.4,2.6c-2.8,4.6-6.3,8.6-10.4,12.1
		c-1,0.9-1.2,1.7-0.4,2.9c1,1.6,2.1,3.2,3.4,4.6c-0.2,1,0.4,1.7,1,2.4c0.9,1,2,1.4,3.2,1.8c1.1,0.3,1.6-0.1,1.7-1.2
		c0-0.2,0-0.5,0.2-0.7c1.4,0.1,2.6,0.8,3.8,1.2c1.9,0.7,3.8,1.4,5.9,1.6c1.6,0.2,2.9-0.2,3.8-1.7c0.8-1.3,1.6-2.6,1.9-4.1
		c0.4-1.5,1-2.9,1.7-4.3c0.5-1,1-2,1.2-3.1c0.4-2,1.5-3.6,2.3-5.3c1-2-0.1-3.7-0.9-5.4c-0.1-0.2-0.4-0.3-0.6-0.4
		c-1.2-0.6-1.4-0.8-0.7-1.9c0.7-1.1,1.1-2.4,1.4-3.7c0.5-1.9,0.7-2,2.4-1C47.8,18.7,50,20.2,51.5,22.5z"/>
	<path class="st3" d="M35,14.8c-1.8-0.5-3.7,0-5.4,0.4c-9,2-15.7,9.1-17.2,18.3c-0.6,3.4-0.2,6.7,0.8,10c0.1,0.3,0.1,0.6,0.2,0.9
		c-2.7-3.3-4-7.1-4.3-11.3C8.6,26,10.9,20,16.1,15c6-5.7,15.7-7.6,23.4-4.5c4.8,2,8.5,5.2,11.2,9.6c0.4,0.7,0.8,1.4,0.9,2.3
		c-1.5-1.2-2.7-2.8-4.4-3.8c-0.8-0.5-1.7-1-2.5-1.6c-0.7-0.5-1.1-0.4-1,0.6c0,0.1-0.1,0.3-0.1,0.4c-0.4-0.2-0.4-0.7-0.4-1
		c0-0.9-0.5-1.5-1.3-1.8c-1.5-0.5-3-0.8-4.5-1.1C36.4,14.1,35.9,14.9,35,14.8z"/>
	<path class="st4" d="M35,14.8c1.2-1.2,2.6-0.9,4-0.6c0.5,0.1,1,0.3,1.5,0.4c2.7,0.7,2.8,0.8,3,3.6c-0.1,1.7-0.9,3-1.7,4.4
		c-0.3,0.6-0.4,1,0.5,1c0.7,0,1.1,0.4,1.4,1.1c0.3,0.8,0.5,1.7,0.9,2.5c0.7,1.5-0.2,2.8-0.9,3.9c-1.2,1.9-1.5,4.1-2.4,6
		c-1.3,2.7-2,5.6-3.3,8.3c-1.7,3.5-2.8,3.8-6.6,3c-2.5-0.5-4.9-1.5-7.3-2.5c-0.3-0.1-0.5-0.3-0.8-0.2c-2.3-0.3-4.4-0.9-6.1-2.5
		c-2-1.3-2.9-3.4-4-5.3c-0.5-0.8-0.2-1.7,0.6-2.3c4.8-3.8,8.5-8.5,11.5-13.9c0.1-0.2,0.2-0.5,0.4-0.7c0.8-1.4,1.6-1.7,3.2-1.3
		c0.6,0.2,1.2,0.3,1.7,0.5c1.7,0.6,1.7,0.7,2.4-0.9C33.4,17.7,34.6,16.4,35,14.8z"/>
	<path class="st5" d="M48,23.5c0,0.7,0.1,1.4-0.8,1.7c-0.8,0.2-1.4-0.1-1.8-0.8c-0.6-1-1.2-1.9-1.4-3.1c-0.1-0.6-0.1-1.2,0.5-1.6
		c0.6-0.4,1.3-0.2,1.8,0.1C47.5,20.6,47.9,22,48,23.5z"/>
	<path class="st5" d="M17.1,43.1c2,1,4.1,1.6,6.1,2.5c0.2,0.6,0.4,1.2-0.1,1.7c-0.5,0.5-1.2,0.5-1.9,0.3c-1.6-0.4-2.9-1.3-3.9-2.5
		C16.8,44.4,16.5,43.8,17.1,43.1z"/>
	<path class="st6" d="M47.9,28.1c0.4,0.1,0.8,0.3,0.7,0.8c0,0.4-0.3,0.6-0.7,0.6c-0.4-0.1-0.7-0.2-0.7-0.7
		C47.2,28.3,47.5,28.1,47.9,28.1z"/>
	<path class="st7" d="M27.6,26.6c3.4,1.1,6.9,2.2,10.4,3.3c0.6,0.2,1.1,0.4,0.7,1.2c-1.9,3.6-3.9,7.2-5.9,10.8
		c-1,0.1-1.9-0.3-2.8-0.8c-0.6-0.3-0.5-0.8-0.5-1.4c1.1-2.1,2.5-4,3.5-6.2c-0.2,0.2-0.2,0.8-0.7,0.7c0.1-0.8,0.7-1.4,0.8-2.3
		c-2.5,2.5-4.5,5.4-7,7.8c-1.6,0-2.9-0.7-4.4-1.3c-0.3-0.1-0.4-0.4-0.2-0.7c0.8-0.9,1.6-1.8,1.9-3.1c-1.1,1-2.2,1.9-3.3,2.9
		c-0.5,0.3-1,0.4-1.4,0c-0.1-0.1-0.1-0.2,0-0.3c3.6-2.6,5.8-6.3,8.2-9.9C27.1,27.2,27.3,26.8,27.6,26.6z"/>
	<path class="st8" d="M27.6,26.6c-0.5,1.6-1.6,2.7-2.5,4c-1.5,2.3-3.2,4.5-5.3,6.2c-0.3,0.3-0.6,0.6-1.1,0.6
		c-0.7,0.1-1.3,0.1-1.5-0.8c2.7-1.9,4.6-4.6,6.7-7.1c0.6-0.7,1.2-1.5,1.7-2.3C26.1,26.4,26.7,26.2,27.6,26.6z"/>
	<path class="st9" d="M40,25.4c1.6,0.7,0.3,1.4,0,2.1c-0.3,0.3-0.7,0.3-1.1,0.1c-3.9-1.2-7.8-2.3-11.6-3.9c0.2-1.6,0.5-1.8,1.9-1.3
		c3.2,1.2,6.5,2.2,9.9,2.9C39.4,25.5,39.7,25.6,40,25.4z"/>
	<path class="st10" d="M34.2,45.7c-0.6-1-0.6-1.9,0-3c1.7-3.3,3.5-6.6,4.9-10.1c0.1-0.3,0.3-0.6,0.5-1
		C40.1,33.6,36.2,43.7,34.2,45.7z"/>
	<path class="st10" d="M27.4,23.7c0.8-0.1,1.6,0.3,2.3,0.6c3.1,1.3,6.4,2,9.6,3.2c0.3,0.1,0.5,0.1,0.8,0.1c-0.2,1.2-1,1.4-2,1
		c-3-1-5.9-2-8.9-3c-0.7-0.3-1.6-0.2-2.3-0.7C26.7,24.4,26.8,23.9,27.4,23.7z"/>
	<path class="st11" d="M28.1,44.5c-2.1-0.7-3.9-1.2-5.7-1.9c-1-0.4-1.2-1.5-1.7-2.3c0.4-0.3,0.6-0.1,0.9,0c1.1,0.4,2.2,0.8,3.3,1
		C26.7,41.5,27.4,42.7,28.1,44.5z"/>
	<path class="st12" d="M40,17.5c-0.9,1.7-1.9,3.3-2.7,5c-0.4,0.8-0.8,1.1-1.6,0.6c-0.3-0.2-0.6-0.2-0.9-0.3c0.6-1.6,1.4-3.2,2.3-4.7
		C37.9,16.8,38.4,16.7,40,17.5z"/>
	<path class="st11" d="M33,45.1c0.2,1.1-0.1,1.1-0.8,0.9c-1.7-0.4-2.9-1.3-3.6-2.9c-0.1-0.2-0.3-0.3-0.2-0.5
		c0.2-0.2,0.4-0.2,0.7-0.1c1.1,0.3,2.2,0.6,3.2,0.9C33.2,43.8,32.8,44.8,33,45.1z"/>
	<path class="st13" d="M27.4,23.7c-0.2,0.4-0.4,0.8-0.5,1.2c-0.2,0-0.4,0-0.4-0.2c0-0.2,0.1-0.4,0.1-0.6c0.4-0.7,0.6-1.6,1.1-2.1
		c0.6-0.6,1.4,0.2,2,0.4c3.4,1,6.8,2.2,10.3,3c-0.9,0.5-1.8,0-2.7-0.2c-3-0.6-5.9-1.4-8.6-2.7C27.5,21.9,27.8,23.3,27.4,23.7z"/>
	<path class="st14" d="M40,17.5c-2.3-0.1-2.4-0.1-3.4,2.1c-0.5,1.1-0.9,2.4-1.8,3.3c-0.6-0.1-0.6-0.4-0.4-0.8
		c0.8-1.7,1.6-3.5,2.4-5.2c0.1-0.2,0.2-0.6,0.6-0.5c0.8,0.2,1.6,0.3,2.4,0.5C40.1,17,40.1,17.2,40,17.5z"/>
	<path class="st15" d="M32.3,34.3c0.6-0.3,0.5-1.1,1.3-1.4c-1.1,2.5-2.4,4.7-3.9,6.9c-0.1,0.7-0.6,1.1-1.3,1.4
		c-0.9-0.2-0.1-0.6,0-0.8C29.7,38.4,31,36.3,32.3,34.3z"/>
	<path class="st16" d="M16.6,38.7c2.6,0.3,3.7,1.1,4.1,3.1C18.6,41.8,18,39.9,16.6,38.7z"/>
	<path class="st17" d="M21.6,37.9c0,0.6,0.5,0.5,0.9,0.6c1.2,0.5,2.5,0.9,3.7,1.3c-0.5,0.7-1.1,0.5-1.7,0.3
		c-0.9-0.2-1.7-0.5-2.6-0.8c-0.4-0.1-1,0-1.1-0.5C20.7,38.4,21.2,38.1,21.6,37.9z"/>
	<path class="st18" d="M40.7,17.2c0.5,0.5,0.2,0.8,0.1,1.2c-0.5,1.8-1.5,3.4-2.3,5.1c-0.1,0.2-0.3,0.6-0.6,0.3
		c-0.3-0.2,0.1-0.4,0.1-0.6C38.9,21.2,39.8,19.3,40.7,17.2z"/>
	<path class="st19" d="M17.2,36.7c0.3,0.6,1.1,0.4,1.5,0.8c0.4,0.4,0.9,0.1,1.4,0.2c-0.8,0.9-3,0.9-3.6-0.1
		C16.1,36.9,16.9,37,17.2,36.7z"/>
	<path class="st20" d="M28.5,41.2c0.4-0.5,0.9-0.9,1.3-1.4c0,0.8,0.3,1.3,1.2,1.5c0.6,0.1,1.3,0.4,1.9,0.7c-0.1,0.7-0.5,0.4-0.9,0.3
		C30.8,41.9,29.6,41.5,28.5,41.2z"/>
	<path class="st21" d="M41,30.8c-0.3-0.8,0-2.4,0.6-2.9c0.1-0.1,0.2-0.1,0.3-0.1c0.2,0.1,0.3,0.4,0.3,0.6
		C42.2,28.9,41.6,30.1,41,30.8z"/>
</g>
</svg>
