<?xml version="1.0" encoding="utf-8"?>
<!-- Generator: Adobe Illustrator 23.0.2, SVG Export Plug-In . SVG Version: 6.00 Build 0)  -->
<svg version="1.1" id="Camada_1" xmlns="http://www.w3.org/2000/svg" xmlns:xlink="http://www.w3.org/1999/xlink" x="0px" y="0px"
	 viewBox="0 0 102.3 91.09" style="enable-background:new 0 0 102.3 91.09;" xml:space="preserve">
<style type="text/css">
	.st0{fill:#323232;}
	.st1{fill:#5C5C5C;}
	.st2{fill:#767676;}
	.st3{fill:#FDFEFD;}
	.st4{fill:#E8AF81;}
	.st5{fill:#918065;}
	.st6{fill:#8C8B78;}
	.st7{fill:#FD760F;}
	.st8{fill:#9C7F66;}
	.st9{fill:#AF4F2B;}
	.st10{fill:#BB3C10;}
</style>
<g>
	<path class="st0" d="M0,14.4c0-0.12,0-0.24,0-0.36c0.4-2.63,0.76-5.17,2.47-7.47c3.08-4.15,6.75-6.83,12.16-6.39
		c23.7,0,47.39,0,71.08-0.01c0.71,0,1.44,0.18,2.12-0.17c0.12,0,0.24,0,0.36,0c0.56,0.34,1.18,0.2,1.76,0.18
		c3.9-0.13,6.47,2.14,8.77,4.86c2.45,2.89,3.59,6.15,3.57,10.05c-0.12,20.16-0.14,40.32,0,60.48c0.04,5.35-2.3,9.32-5.96,12.73
		c-2.35,2.19-5.42,2.77-8.53,2.77c-24.48,0.03-48.96,0-73.44,0.03c-6.7,0.01-10.69-3.87-13.56-9.32C0.06,80.36,0.46,78.59,0,77.04
		c0-0.12,0-0.24,0-0.36c0.31-0.5,0.17-1.05,0.17-1.58c0.01-19.71,0.01-39.41,0-59.12C0.17,15.45,0.31,14.9,0,14.4z"/>
	<path class="st1" d="M14.01,0.34c0.01-0.11,0.02-0.23,0.03-0.34c24.6,0,49.2,0,73.8,0c-0.47,0.54-1.12,0.35-1.69,0.35
		C62.1,0.35,38.06,0.35,14.01,0.34z"/>
	<path class="st2" d="M0,14.4c0.58,0.53,0.35,1.24,0.35,1.86c0.01,19.52,0.01,39.04,0,58.55c0,0.63,0.23,1.33-0.35,1.86
		C0,55.92,0,35.16,0,14.4z"/>
	<path class="st3" d="M51.15,81.95c-11.69,0-23.39,0-35.08,0c-2.72,0-5.53-1.63-6.51-4.28c-0.6-1.64-0.83-3.15-0.83-4.79
		C8.72,54.05,8.67,35.22,8.78,16.39c0.02-2.94,1.52-5.37,4.32-6.82c1.36-0.7,2.73-0.91,4.24-0.9c22.97,0.03,45.94-0.07,68.91,0.1
		c3.9,0.03,6.64,2.5,6.65,6.43c0.04,19.91-0.05,39.82,0.03,59.73c0.01,3.94-2.96,7.09-7.05,7.06C74.3,81.9,62.73,81.95,51.15,81.95z
		"/>
	<path class="st4" d="M89.2,23.44c0.01,16.91,0.04,33.81,0.03,50.72c0,2.64-1.51,3.93-4.48,3.94c-19.6,0.01-39.21,0.01-58.81,0.01
		c-2.28,0-4.56-0.02-6.83-0.03c-0.16-0.17-0.26-0.37-0.3-0.6c-0.01-0.37,0.13-0.68,0.38-0.94c1.09-0.91,2.4-0.61,3.63-0.61
		c19.78-0.02,39.55-0.01,59.33-0.02c0.9,0,1.8,0.03,2.7-0.06c1.34-0.12,2.05-0.87,2.17-2.2c0.07-0.84,0.05-1.68,0.05-2.52
		c0-14.8-0.01-29.61,0.02-44.41c0-1.16-0.28-2.44,0.81-3.36C88.34,23.1,88.79,23.05,89.2,23.44z"/>
	<path class="st5" d="M89.2,23.44c-0.32-0.01-0.63-0.02-0.95-0.04c-0.09-0.07-0.18-0.14-0.28-0.21c-0.66-1.81-0.22-3.68-0.3-5.52
		c-0.09-2.32-0.4-2.66-2.72-3.17c-1.07-0.24-2.13-0.28-3.2-0.28c-20.04,0-40.07,0.01-60.11-0.03c-1.75,0-3.45,0.33-5.18,0.44
		c-1.11,0.07-1.67,0.86-1.85,1.89c-0.11,0.59-0.04,1.2-0.04,1.8c-0.02,18.96,0.03,37.91-0.03,56.87c-0.08,0.35-0.23,0.67-0.56,0.86
		c-0.84-0.03-1.12-0.58-1.2-1.3c-0.05-0.42-0.02-0.84-0.02-1.26c0-18.65,0-37.3,0-55.95c0-0.24-0.01-0.48,0-0.72
		c0.1-2.73,1.43-4.03,4.18-4.04c11.45-0.01,22.91,0,34.36-0.01c0.65,0,1.32,0.13,1.96-0.14c11.29-0.03,22.59-0.05,33.88-0.09
		c1.17,0,1.92,0.54,2.27,1.64c-0.03,3.02,0.21,6.05-0.14,9.06C89.28,23.33,89.25,23.39,89.2,23.44z"/>
	<path class="st6" d="M53.29,12.64c-0.7,0.52-1.51,0.31-2.27,0.31c-11.15,0.01-22.3,0.01-33.46,0.01c-2.61,0-4.58,1.96-4.58,4.61
		c-0.01,18.65,0,37.29-0.01,55.94c0,1,0.03,1.94,1.07,2.47c1.5,0.98,3.32,1.07,4.92,1.79c0.04,0.11,0.09,0.22,0.15,0.32
		c-1.5,0.64-3.09,0.43-4.59,0.22c-1.22-0.17-1.86-1.22-1.86-2.52c0-1.2,0-2.4,0-3.6c0-18.7,0-37.4,0-56.1c0-2.92,0.64-3.54,3.6-3.54
		c11.63,0,23.25,0,34.88,0C51.85,12.55,52.57,12.61,53.29,12.64z"/>
	<path class="st4" d="M89.29,23.26c0.05-3.02,0.09-6.04,0.14-9.06C89.6,17.22,89.84,20.24,89.29,23.26z"/>
	<path class="st7" d="M88.25,23.41c-0.56,0.74-0.42,1.6-0.42,2.43c0,15.72,0,31.43,0,47.15c0,3.01-0.7,3.7-3.7,3.7
		c-20.81,0-41.63,0-62.44,0.01c-0.89,0-1.81-0.19-2.61,0.42c-0.09-0.08-0.18-0.16-0.26-0.24c-0.12-0.21-0.2-0.43-0.24-0.67
		c-0.21-0.94-0.27-1.89-0.27-2.86c0-15.23,0-30.46,0.01-45.69c0-0.66-0.01-1.32,0.05-1.98c0.17-1.79,1.2-2.84,2.98-3.01
		c0.9-0.08,1.8-0.05,2.7-0.05c19.96,0,39.93,0,59.89,0c1.2,0,2.4-0.01,3.57,0.32c0.23,0.08,0.43,0.19,0.62,0.35L88.25,23.41z"/>
	<path class="st8" d="M18.96,77.76c-1.88,0.06-3.79,0.21-4.92-1.79c0-0.25,0.01-0.49,0.01-0.74c0.23-0.1,0.5-0.13,0.66,0.04
		c0.95,1.04,2.15,1.35,3.5,1.27c0.31-0.02,0.55,0.19,0.75,0.41c0.05,0.04,0.09,0.09,0.12,0.15C19.04,77.33,19,77.55,18.96,77.76z"/>
	<path class="st9" d="M18.96,76.96c-1.93,0.27-3.75,0.19-4.92-1.72c0-19.07,0-38.13,0-57.2c0-3.25,0.43-3.65,3.58-4.09
		c1.68-0.23,3.34-0.25,5.01-0.25c19.61-0.01,39.21,0,58.82-0.02c1.44,0,2.87,0.1,4.29,0.32c1.5,0.24,2.4,1.11,2.43,2.63
		c0.05,2.22-0.03,4.43-0.05,6.65c-0.12-0.01-0.25-0.01-0.37-0.01c-1.02-0.36-1.39-1.18-1.25-2.13c0.18-1.16-0.12-2.26-0.17-3.39
		c-0.06-1.46-0.89-2.15-2.31-2.19c-0.66-0.02-1.32-0.03-1.98-0.03c-20.63,0-41.25,0-61.88,0c-0.48,0-0.96-0.01-1.44,0.01
		c-2.22,0.09-2.78,0.59-2.81,2.8c-0.06,4.14-0.02,8.27-0.02,12.41c0,13.43,0.01,26.86-0.01,40.29c0,1.95-0.2,3.92,2.36,4.54
		c0.4,0.1,0.54,0.62,0.7,1C18.95,76.71,18.95,76.84,18.96,76.96z"/>
	<path class="st10" d="M18.94,76.59c-0.31-0.18-0.6-0.43-0.93-0.53c-2.89-0.85-2.89-0.84-2.89-3.86c0-17.92,0-35.85,0-53.77
		c0-3.11,0.56-3.67,3.65-3.67c21.58,0,43.16,0,64.74,0c2.99,0,3.11,0.41,3.71,3.33c0.36,1.75-0.8,3.6,0.52,5.19
		c-0.84,0.04-1.67,0.11-2.51,0.11c-20.88,0.01-41.76,0-62.64,0.01c-3.13,0-3.53,0.39-3.53,3.53c0,15.72,0,31.44-0.01,47.16
		C19.05,74.92,18.98,75.75,18.94,76.59z"/>
</g>
</svg>
