<svg xmlns="http://www.w3.org/2000/svg" viewBox="0 0 46.49 42.55"><defs><style>.a{fill:#900c05;}.b{fill:#f45a56;}</style></defs><title>icon_X_erradosvg</title><path class="a" d="M63.6,73.2c-1.92,0-3.84,0-5.76,0a5.71,5.71,0,0,1-4.7-1.8c-.58-.67-1-.66-1.54.06a5.21,5.21,0,0,1-4.35,1.73c-4,0-7.91,0-11.87,0-5.27,0-7.67-4.34-5-8.94,2.15-3.74,4.28-7.49,6.49-11.2a2.13,2.13,0,0,0,0-2.58c-2.17-3.59-4.23-7.24-6.26-10.92-2.25-4.08-.53-8.07,4-8.53a74.94,74.94,0,0,1,14.52,0c1.44.13,2.3,1.61,3.44,1.65s2-1.46,3.46-1.61A92.91,92.91,0,0,1,70.44,31c3.61.17,6.6,4.31,4.06,8.58C72.3,43.26,70.18,47,68,50.73a1.65,1.65,0,0,0,0,2c2.32,3.92,4.59,7.87,6.86,11.82,2.4,4.17,0,8.5-4.76,8.68C67.92,73.27,65.76,73.2,63.6,73.2Z" transform="translate(-29.27 -30.68)"/><path class="b" d="M41.88,36.24a11,11,0,0,0,2.15,0c3.36-.68,5.35.81,6.67,3.82.47,1.06.85,2.85,2.13,2.81,1.06,0,1.4-1.75,2-2.77C57,36.25,57,36.24,61.41,36.24c2.4,0,4.8,0,7.2,0,1.18,0,1.56.19.85,1.4-2.53,4.28-4.93,8.64-7.49,12.9A2.11,2.11,0,0,0,62,53.08c2.66,4.48,5.24,9,7.85,13.53.41.71.74,1.52-.53,1.39a104.44,104.44,0,0,0-10.76-.15A2.55,2.55,0,0,1,56,66.32c-.87-1.64-1.87-3.21-2.81-4.81-.56-1-1.07-1-1.65,0-1,1.72-2,3.4-3,5.13a2,2,0,0,1-2,1.2c-3.42,0-6.84,0-10.25,0-1.36,0-1.58-.45-.91-1.6,2.54-4.35,5-8.74,7.59-13.06a2.33,2.33,0,0,0,0-2.75c-2.5-4.22-4.89-8.51-7.37-12.74-.65-1.11-.48-1.5.81-1.47,1.8,0,3.6,0,5.4,0Z" transform="translate(-29.27 -30.68)"/></svg>