<?xml version="1.0" encoding="utf-8"?>
<!-- Generator: Adobe Illustrator 23.0.2, SVG Export Plug-In . SVG Version: 6.00 Build 0)  -->
<svg version="1.1" id="Camada_1" xmlns="http://www.w3.org/2000/svg" xmlns:xlink="http://www.w3.org/1999/xlink" x="0px" y="0px"
	 viewBox="0 0 97.23 96.9" style="enable-background:new 0 0 97.23 96.9;" xml:space="preserve">
<style type="text/css">
	.st0{fill:#323232;}
	.st1{fill:#FEFEFE;}
	.st2{fill:#43D3FE;}
	.st3{fill:#37CAF5;}
	.st4{fill:#18A7DA;}
	.st5{fill:#14BAF0;}
	.st6{fill:#126D90;}
	.st7{fill:#73D9ED;}
	.st8{fill:#50CEF1;}
	.st9{fill:#67DBF7;}
	.st10{fill:#179CD5;}
	.st11{fill:#1BC4F6;}
	.st12{fill:#198FBE;}
	.st13{fill:#157AA5;}
	.st14{fill:#21A2D3;}
	.st15{fill:#B15505;}
	.st16{fill:#16BEF0;}
	.st17{fill:#18C8FD;}
	.st18{fill:#33CBF7;}
	.st19{fill:#FCFEFE;}
	.st20{fill:#2EDDF7;}
	.st21{fill:#F1FCFB;}
	.st22{fill:#2CC3EB;}
	.st23{fill:#30C7F4;}
	.st24{fill:#E2F8F8;}
	.st25{fill:#18B3E5;}
	.st26{fill:#19AFDE;}
	.st27{fill:#F2FCFB;}
	.st28{fill:#FC9003;}
	.st29{fill:#FD9805;}
	.st30{fill:#FED86B;}
	.st31{fill:#F2A329;}
	.st32{fill:#FE9802;}
	.st33{fill:#FEE090;}
	.st34{fill:#FAAB2C;}
	.st35{fill:#C64400;}
	.st36{fill:#B77228;}
	.st37{fill:#FEBB09;}
	.st38{fill:#FEC31E;}
	.st39{fill:#FEC523;}
	.st40{fill:#FECE40;}
	.st41{fill:#FECB38;}
	.st42{fill:#FDDC7C;}
	.st43{fill:#FED251;}
	.st44{fill:#FEC522;}
	.st45{fill:#FED65F;}
	.st46{fill:#FECB3D;}
</style>
<g>
	<path class="st0" d="M97.22,45.31c0,2.18,0,4.36,0.01,6.54c-0.07,4.63-1.97,8.85-3.19,13.19c-1.98,7.07-6.32,12.86-11.49,17.92
		c-6.04,5.91-13.15,10.1-21.49,12.01c-2.95,0.68-5.72,2.15-8.87,1.9c-2.3,0-4.6,0.01-6.9,0.01c-6.15-0.4-11.88-2.41-17.45-4.85
		c-8.88-3.9-15.5-10.46-20.82-18.42c-2.38-3.56-3.7-7.58-4.95-11.62c-1.92-6.21-2.54-12.55-1.71-18.97
		c0.35-2.71,1.09-5.39,1.82-8.03c1.56-5.69,4.06-10.97,7.77-15.58c6.44-8.01,14.3-13.95,24.43-16.62c4.33-1.14,8.62-2.44,13.12-2.73
		c4.81-0.31,9.36,1.12,13.92,2.28c3.45,0.88,6.85,1.98,10.02,3.73c4.75,2.64,9.05,5.85,12.75,9.8c3.45,3.69,6.34,7.8,8.39,12.44
		c0.58,1.31,1.21,2.62,1.59,3.99c0.7,2.59,1.32,5.19,2.27,7.72C97.05,41.69,97.28,43.49,97.22,45.31z"/>
	<path class="st1" d="M48.36,87.97C26.61,87.56,8.28,70.69,8.85,48.14c0.6-23.48,17.76-37.95,40.32-39.46
		c21.64,2.21,38.91,15.55,39.03,40.36C88.31,70.86,71.12,87.67,48.36,87.97z"/>
	<path class="st2" d="M80.93,35.34c1.67,3.23,2.37,6.71,2.58,10.31c0.31,1.74,0.12,3.39-0.46,5.09c-1.24,3.62-1.77,7.47-3.48,10.95
		c-0.56,1.13-1,2.31-1.89,3.25c-0.44,0.42-0.91,0.8-1.54,0.88c-2.71-0.26-5.2-1.24-7.63-2.41c-0.74-0.36-1.78-0.79-1.56-1.71
		c0.2-0.86,1.3-0.57,2.05-0.64c1.11-0.1,2.28,0.25,3.32-0.4c3.05-1.5,4.18-4.08,4.15-7.34c-0.02-3.23-0.01-6.46,0-9.69
		c0-0.96-0.09-1.9-0.43-2.82c-1-2.67-2.07-3.51-4.93-3.56c-3.65-0.06-7.3-0.01-10.94-0.02c-2.99-0.01-5.98,0.05-8.97-0.04
		c-0.68-0.02-1.72,0.32-1.83-0.95c6.93-0.2,13.86-0.01,20.78-0.1c-6.17,0-12.33,0.01-18.5,0c-2.43,0-2.17,0.24-2.18-2.24
		c0-0.54-0.01-1.08,0.01-1.62c-0.09,1.31,0.08,2.62-0.09,3.93c-1.2,0.02-0.92-0.95-0.97-1.58c-0.12-1.6,0.08-3.22-0.35-4.8
		c-0.91-2.24-1.02-4.45,0.24-6.61c0.22-0.24,0.48-0.43,0.8-0.54c4.25-0.34,8.49-0.46,12.7,0.46c0.65,0.14,1.28,0.32,1.77,0.81
		c0.49,0.51,0.48,1.18,0.61,1.82c0.38,1.9,1.6,3.18,3.2,4.08c1.57,0.89,2.42,0.31,3.37-2.11c0.3-0.42,0.74,0.74,1.14-0.14
		c0.15-0.33,0.86,0.14,1.23,0.43c2.74,2.17,5.89,3.92,7.49,7.27C80.65,35.41,80.81,35.39,80.93,35.34z"/>
	<path class="st3" d="M72.32,61.18c-1.62,0.83-3.39,0.02-5.38,0.54c2.86,2.31,6.13,2.95,9.34,3.77c0.65,0.86-0.02,1.45-0.46,2.06
		c-5.25,7.31-12.4,11.69-21.14,13.48c-5.73,1.17-11.45,0.82-17.04-0.9c-1.74-0.54-3.42-1.19-5.27-0.61
		c-2.12-1.05-4.15-2.23-5.84-3.91c-0.1-1.05,0.37-1.72,1.35-2.05c1.05,0.01,0.7,1.07,1.14,1.54c-0.22-0.48-0.26-0.89,0.39-1.06
		c0.51,0.37,0.67,1.03,1.16,1.42c0.13,1.28,0.99-0.2,1.32,0.34c3.19,1.37,6.36,2.74,9.77,3.52c7.59,1.75,14.69,0.36,21.49-3.16
		c0.37-0.19,0.71-0.44,1.05-0.69c3.26-2.41,3.29-2.71,1.07-6.02c-1.4-2.09-2.9-4.1-4.77-5.81c-0.41-0.37-0.77-0.81-0.6-1.4
		c0.2-0.72,0.85-0.76,1.45-0.8c1.41-0.1,2.89,0.22,4.18-0.66C67.8,60.8,70.11,60.17,72.32,61.18z"/>
	<path class="st4" d="M19.25,67.36c-1.7-1.89-2.8-4.1-3.46-6.55c0.41-0.79-0.01-1.52-0.15-2.28c-1.59-4-0.99-8.19-1.07-12.33
		c-0.13-1.74,0.26-3.41,0.71-5.06c0.19-3.3,1.9-6.05,3.49-8.73c6.78-11.38,16.87-17.24,30.17-17.43c0.96-0.01,1.91-0.03,2.87,0.02
		c0.48,0.08,0.99,0.12,1.14,0.72c-0.47,0.69-1.23,0.91-1.96,1.19c-0.35,0.08-0.71,0.12-1.07,0.09c-7.67-0.5-14.45,1.89-20.59,6.36
		c-2.3,1.39-4.17,3.33-5.7,5.41c-6.63,8.97-9.06,18.9-6.18,29.88c0.52,1.97,0.94,3.97,1.9,5.8c0.16,0.63,0.38,1.25,0.53,1.88
		C19.99,66.8,20.18,67.46,19.25,67.36z"/>
	<path class="st5" d="M51.08,16.53c0.56-0.33,1.04-0.87,1.8-0.72c0.22-0.21,0.49-0.27,0.79-0.25c2.13,0.18,4.09,1.27,6.26,1.25
		c3.83,1.22,7.54,2.65,10.63,5.35c0.28,0.25,0.49,0.74,1.03,0.48c2.04,1.02,3.28,2.89,4.67,4.56c2.01,2.44,3.62,5.14,4.68,8.14
		c-0.01,0.18,0.05,0.41-0.04,0.53c-0.29,0.38-0.34-0.04-0.41-0.18c-1.79-3.42-5.09-5.25-7.92-7.57c-0.95-0.78-0.87,0.14-1.06,0.67
		c-0.43-0.26-0.09-0.93-0.61-1.1c-0.38-0.08-0.65-0.34-0.81-0.65c-0.94-1.79-2.38-3.08-4.11-4.07c-1.35-2.31-3.81-2.9-6.04-3.8
		c-2.82-1.14-5.86-1.42-8.79-2.14C50.97,16.88,50.96,16.71,51.08,16.53z"/>
	<path class="st6" d="M51.79,15.45c-7.22-0.38-14.09,0.92-20.32,4.65c-6.33,3.78-11.06,9.05-13.96,15.91
		c-0.69,1.64-1.72,3.14-1.73,5c-0.62,0.79-0.9,0.36-0.88-0.32c0.03-0.87,0.33-1.71,0.53-2.56l0-0.01c0.49-0.94,0.72-1.97,1.06-2.97
		c6.3-15.51,23.6-23.78,38.84-20.47c0.18,0.3,0.8,0.12,0.75,0.61c-0.04,0.44-0.48,0.43-0.82,0.51
		C54.06,16.07,53.02,14.85,51.79,15.45z"/>
	<path class="st7" d="M80.56,62.98c-2.33,5.72-6.27,10.2-11.17,13.77c-7.98,5.82-16.97,7.8-26.72,6.34
		c-0.22-0.03-0.43-0.19-0.64-0.29c0.44-0.54,1.06-0.46,1.65-0.5c4.16-0.26,8.31-0.72,12.37-1.67c8.02-1.88,14.56-6.11,19.47-12.75
		c0.46-0.62,1.03-1.16,1.39-1.86c0.58-0.67,1.04-1.43,1.55-2.16C78.98,63.13,79.61,62.68,80.56,62.98z"/>
	<path class="st8" d="M77.36,66.21c-2.99,3.97-6.19,7.72-10.51,10.37c-5.24,3.21-10.92,4.89-17.01,5.53
		c-2.6,0.28-5.18,0.78-7.81,0.69c-3.49-0.31-6.63-1.64-9.67-3.27c0.61-0.94,1.32-1.14,2.47-0.76c3.73,1.23,7.5,2.19,11.49,2.35
		c5.27,0.22,10.3-0.51,15.12-2.64c5.73-2.54,10.6-6.17,14.19-11.4c0.35-0.51,0.73-0.94,0.65-1.59c0.36-0.24,0.72-0.48,1.08-0.72
		C77.74,65.25,77.6,65.73,77.36,66.21z"/>
	<path class="st9" d="M77.36,66.21c0-0.48,0-0.96,0-1.44c1.91-2.99,3.09-6.28,3.98-9.7c0.53-2.05,0.92-4.14,1.91-6.09
		c0.47-0.92,0.2-2.22,0.26-3.35c0.79,4.08,0.02,8.05-0.96,11.99c-0.46,1.85-1.02,3.68-1.99,5.35
		C78.72,63.29,78.35,65.06,77.36,66.21z"/>
	<path class="st10" d="M51.79,15.45c1.08-0.89,2.16-0.01,3.24,0.01c1.01,0.02,0.77-0.29,0.3-0.77c5.57,0.94,10.6,3.07,14.91,6.77
		c0.45,0.39,0.9,0.78,1.35,1.17c-0.52,0.67-0.81,0.04-1.13-0.22c-3.09-2.48-6.76-3.77-10.38-5.15c-2.14-0.6-4.29-1.11-6.49-1.44
		c-0.24,0-0.47-0.01-0.71-0.01C52.62,15.39,52.19,15.47,51.79,15.45z"/>
	<path class="st11" d="M19.25,67.36c0.99-1.06-0.75-1.92-0.21-2.94c-0.25-0.53-0.41-1.07-0.18-1.65c1.06-0.38,0.93,0.57,1.11,1.06
		c0.45,1.24,0.51,2.59,1.03,3.81c0.28,0.66,0.67,1.27,1.04,1.89c0.67,1.14,1.36,1.42,2.59,0.56c1.6-1.13,3.46-0.53,4.39,1.2
		c0.29,0.54,0.59,1.18-0.05,1.61c-0.87,0.58-0.85-0.5-1.26-0.79c-0.28-0.31-0.6-0.57-1.01-0.66c-0.58-0.13-1.27-0.24-1.62,0.32
		c-0.45,0.73,0.39,0.95,0.76,1.33c0.56,0.37,1.35,0.1,1.83,0.69c-0.38,0.62-0.77,1.23-1.15,1.85
		C23.62,73.29,20.85,70.84,19.25,67.36z"/>
	<path class="st12" d="M15.07,46.05c0.08,4.34-0.4,8.73,1.08,12.96c-0.51,0.33-0.69,0.06-0.91-0.4c-0.28-0.57-0.11-1.31-0.71-1.73
		c-1.01-4.82-1.5-9.65-0.2-14.51c1.04,1.56-0.08,3.17,0.05,4.74C14.4,46.62,14.3,46.08,15.07,46.05z"/>
	<path class="st13" d="M15.07,46.05c-0.79,0.74,0.04,1.87-0.75,2.81c-0.88-2.26,0.41-4.39,0-6.49c0.04-1.5,0.44-2.91,1.09-4.25
		c0.09,0.76-0.04,1.48-0.28,2.21c-0.14,0.44-0.2,1.02,0.62,0.67C15.55,42.69,14.79,44.3,15.07,46.05z"/>
	<path class="st14" d="M14.53,56.88c1.07,0.31,0.38,1.95,1.62,2.13c0.4,0.7,0.58,1.36-0.36,1.8C15.14,59.57,14.91,58.2,14.53,56.88z
		"/>
	<path class="st13" d="M16.49,35.15c0,1.11-0.24,2.15-1.06,2.97C15.49,37.03,15.95,36.08,16.49,35.15z"/>
	<path class="st15" d="M72.32,61.18c-2.4-0.16-4.8-0.15-7.2-0.01c-2.25,0.74-4.6,0.31-6.9,0.5c-2.37,0.19-4.78,0.09-7.16,0.03
		c-1.49-0.04-2.08,0.59-1.97,2.03c0.04,0.53,0.01,1.07,0,1.61c-0.1,3.74-2.73,6.17-6.48,5.98c-3.56-1.03-6.18-3.53-8.83-5.89
		c-4.45-3.96-9.21-7.54-13.69-11.47c-0.36-0.32-0.71-0.64-1-1.02c-2.38-3.42-2.06-6.89,0.95-9.78c1.12-1.07,2.37-1.99,3.49-3.06
		c5.06-3.81,10.03-7.72,15.06-11.57c0.82-0.62,1.65-1.18,2.61-1.54c3.01-1.13,5.35-0.3,7.32,2.59c0.7,1.53,0.38,3.15,0.44,4.73
		c0.03,0.68-0.26,1.43,0.28,2.05l0.02,0.02c2.91,0.49,5.84,0.13,8.76,0.18c4.37,0.08,8.75,0.07,13.13,0.01
		c3.6-0.05,5.56,2.6,5.7,5.69c0.19,4.25,0.13,8.51,0.02,12.77C76.79,58.04,74.97,59.96,72.32,61.18z"/>
	<path class="st16" d="M48.92,23.02c-0.12,0.12-0.24,0.24-0.36,0.35c-1.98,1.01-4.24,1.1-6.28,1.93c-2.04,0.83-4.04,1.72-5.98,2.77
		c-0.55,0.3-1.09,0.79-1.81,0.39c-0.14-0.38,0-0.73,0.22-1.01c0.79-0.98,0.74-1.69-0.34-2.53c-1.27-0.99-1.24-2.15-0.21-3.44
		c1.21-1.52,2.88-2.3,4.65-2.93c3.88-1.38,7.83-2.1,11.95-1.4C50.76,19.3,50.01,21.21,48.92,23.02z"/>
	<path class="st17" d="M48.92,23.02c0.38-1.99,1.05-3.89,1.8-5.77c-0.08-0.32-0.02-0.5,0.36-0.36c4.93,0.19,9.49,1.64,13.77,4.02
		c0.79,0.44,1.47,1.07,1.35,2.14c-0.82,0.47-1.53,1.14-2.46,1.43c-1.99-1.23-4.26-1.32-6.46-1.44
		C54.5,22.89,51.71,23.02,48.92,23.02z"/>
	<path class="st18" d="M34.52,28.42c3.89-1.96,7.74-4.01,12.09-4.83c0.65-0.12,1.29-0.2,1.95-0.21c-0.69,2.06-1.19,4.13-0.03,6.2
		c-3.71-4.33-6.99-2.76-11.03,0.36c-3.78,2.91-7.41,6.02-11.42,8.63c-0.83,0.54-1.18,1.7-2.33,1.83c-0.22-0.19-0.27-0.45-0.23-0.72
		c2.36-4.21,5.52-7.72,9.41-10.57C33.39,28.75,33.87,28.36,34.52,28.42z"/>
	<path class="st19" d="M63.75,24.49c0.55-0.93,1.39-1.38,2.46-1.43c2.64,0.45,3.52,2.68,4.68,4.63c0.03,1.26-0.16,2.46-1.52,2.94
		c-1.27,0.44-2.34-0.19-3.24-1.02C64.64,28.23,63.37,26.73,63.75,24.49z"/>
	<path class="st20" d="M49.25,36.35c0-1.9,0-3.8,0-5.71c0.13,0,0.26-0.01,0.4-0.01c0,0.6,0,1.2,0,1.8c0.01,3.54,0.01,3.54,3.63,3.54
		c5.5,0,11.01,0,16.51,0c0.59,0,1.17,0,1.76,0c0,0.13,0,0.26,0,0.39c-7.42,0-14.85,0-22.27,0C49.27,36.36,49.25,36.35,49.25,36.35z"
		/>
	<path class="st21" d="M72.01,31.24c0.76,0.08,1.26,0.5,1.31,1.23c0.06,0.84-0.5,1.35-1.3,1.39c-0.74,0.04-1.31-0.43-1.31-1.16
		C70.72,31.94,71.16,31.36,72.01,31.24z"/>
	<path class="st22" d="M19.42,52.88c7.77,5.76,14.32,13.07,22.79,17.94c1.04,0.75,2.1,0.55,3.17,0.1c1.89-0.8,3.56-0.22,4.51,1.62
		c0.55,1.06,0.94,2.19,1.45,3.27c0.43,0.93,0.84,1.68,1.93,1.9c0.4,0.08,0.84,0.27,0.79,0.81c-0.04,0.42-0.39,0.59-0.72,0.72
		c-1.28,0.51-2.56,0.98-3.97,1.01c-5.6,0.13-10.88-1.14-15.9-3.6c-0.59-0.29-1.13-0.69-1.82-0.72c-0.29,0.2-0.57,0.41-0.88,0.58
		c-0.35,0.19-0.81,0.17-0.94-0.17c-0.24-0.65,0.65-0.28,0.75-0.69c0.51-1.69,0.51-1.69-1.1-1.52c-0.52,0.23-0.15,0.92-0.61,1.18
		c-0.75-0.25-0.11-1.55-1.18-1.54c-0.72-0.09-1.52,0.29-2.16-0.34c0.8-0.59,2.05-0.6,2.41-1.78c0.61,0.14,0.36,0.8,0.9,1.48
		c0.31-1.38-0.33-2.01-1-2.6c-0.91-0.81-1.89-0.93-2.95-0.22c-1.99,1.35-1.94,1.3-3.37-0.71c-1.3-1.83-1.46-4.01-2.08-6.05
		c-0.1-0.34-0.05-0.72-0.4-0.95c-0.15-0.19-0.01,0.09-0.15-0.1c-1.13-1.6-1.01-8.04,0.18-9.59C19.13,52.85,19.3,52.88,19.42,52.88z"
		/>
	<path class="st23" d="M31.64,75.93c0.73-0.67,1.23,0.09,1.72,0.35c4.85,2.54,9.98,3.7,15.47,3.67c1.86-0.01,3.27-0.96,4.94-1.33
		c-0.15-0.8-0.75-0.49-1.15-0.53c-0.67-0.06-1.36-0.38-1.36-0.95c-0.02-1.44-1.17-2.35-1.49-3.68c-0.57-2.37-2.23-2.97-4.5-2.07
		c-0.97,0.38-1.99,0.3-2.99,0.06c-0.37-0.09-0.38-0.4-0.07-0.65c1.3-0.26,2.61,0.08,3.9-0.82c1.64-1.14,2.37-2.53,2.38-4.42
		c0.02-4.47,0.01-4.48,4.43-4.47c4.07,0.01,8.13,0.05,12.2,0.07c-0.13,0.89-0.82,0.7-1.39,0.72c-0.9,0.02-1.79,0-2.69,0.01
		c-0.36,0-0.75,0.01-0.87,0.44c-0.09,0.31,0.07,0.58,0.32,0.78c2.69,2.16,4.62,4.9,6.2,7.93c0.03,0.05,0.05,0.13,0.09,0.15
		c2.89,1.11,0.42,2-0.21,2.69c-3.75,4.14-8.87,5.39-14.06,6.32c-7.03,1.26-13.53-0.69-19.83-3.6C32.3,76.45,31.98,76.17,31.64,75.93
		z"/>
	<path class="st24" d="M29.47,74.13c0.47-0.55,1-1.22,1.72-0.48c0.89,0.92-0.09,1.43-0.62,1.99C29.47,75.68,29.36,74.98,29.47,74.13
		z"/>
	<path class="st25" d="M34.52,28.42c-4.12,2.9-7.63,6.38-10.25,10.71c-0.11,0.19-0.36,0.29-0.55,0.44
		c-0.13-0.13-0.31-0.32-0.25-0.45c0.91-2.07-0.37-3.59-1.35-5.11c-0.79-1.23-0.46-2.24,0.17-3.32c1.77-3.01,4.24-5.4,6.83-7.69
		c3.82-2.86,8-4.79,12.71-5.89c3.13-0.73,6.18-0.34,9.25-0.59c0,0.12,0,0.24,0,0.36c-0.12,0.12-0.24,0.24-0.36,0.36
		c-4.38-0.11-8.64,0.37-12.73,2.11c-1.49,0.63-2.71,1.48-3.72,2.68c-0.81,0.96-0.63,1.87,0.35,2.61c1.81,1.38,1.82,1.37,0.32,3.19
		C34.78,28.01,34.65,28.22,34.52,28.42z"/>
	<path class="st26" d="M29.12,23.01c-2.15,2.52-4.67,4.74-6.34,7.66c-1.08,1.88-0.74,3.75,1.13,4.95c0.7,0.45,0.56,0.98,0.43,1.54
		c-0.18,0.81-0.65,1.54-0.62,2.4c0.01,0.27,0.01,0.55,0.02,0.82c-0.79,1.15-2.08,1.74-3.06,2.66c-2.74,2.56-3.89,5.53-1.36,9.3
		c0.09,0.14,0.07,0.35,0.1,0.52c-0.95,3.21-1.02,6.46-0.38,9.73c0,0.6,0,1.2,0,1.8c-1.9-2.81-2.33-6.12-2.82-9.3
		c-1.5-9.79,1.04-18.68,6.96-26.52C24.8,26.45,26.65,24.34,29.12,23.01z"/>
	<path class="st4" d="M53.59,15.82c2.27,0,4.46,0.35,6.49,1.44C57.8,17.3,55.73,16.4,53.59,15.82z"/>
	<path class="st27" d="M27.93,71.65c0.37,2.18-1.1,1.88-2.41,1.78c-0.54-0.62-1.74-1.23-0.75-2.13
		C25.72,70.45,26.97,70.65,27.93,71.65z"/>
	<path class="st28" d="M63.32,56.86c-5.69-0.01-11.37,0.03-17.06-0.06c-1.41-0.02-1.74,0.48-1.68,1.77c0.09,2.03-0.02,4.07,0.04,6.1
		c0.03,0.9-0.38,1.49-1.02,1.97c-0.83,0.61-1.19-0.31-1.62-0.66c-4.11-3.34-8.19-6.73-12.25-10.12c-0.4-0.33-0.68-0.82-1.01-1.23
		c0.69-0.4,1.13,0.11,1.57,0.47c2.78,2.27,5.59,4.49,8.31,6.84c0.72,0.68,1.55,1.21,2.29,1.87c0.42,0.3,0.86,0.56,1.38,0.64
		c0.85-0.13,0.71-0.88,0.83-1.41c0.39-1.65,0.22-3.33,0.14-5c-0.11-2.26,0.67-3.27,2.88-3.11c5.96,0.44,11.94-0.54,17.89,0.26
		c1.27,0.17,2.49-0.32,3.75-0.27c0.48-0.04,0.96,0.01,1.44,0.01c0.59-0.03,1.21,0.13,1.75-0.24c0.53-0.38,0.63-0.99,0.8-1.55
		c0.04-3.51,0.3-7.01-0.14-10.5c-0.13-0.28-0.23-0.56-0.28-0.86c-0.02-0.32,0.04-0.6,0.29-0.82c0.84,0.33,1.06,0.97,1.05,1.84
		c-0.03,3.99-0.03,7.99,0.01,11.98c0.01,0.92-0.23,1.63-1.07,2.07C68.85,57.15,66.09,57.13,63.32,56.86z"/>
	<path class="st29" d="M25.91,44.27c5.37-4.22,10.73-8.44,16.12-12.63c0.59-0.46,1.31-0.81,2.15-0.39c0.79,0.4,0.82,1.09,0.82,1.83
		c0,2.03,0.01,4.07,0.01,6.1c-0.08,0.04-0.16,0.08-0.24,0.12c-0.51-0.1-0.74-0.45-0.86-0.91c-0.09-0.44-0.09-0.88-0.04-1.32
		c0.02-0.17,0.05-0.34,0.1-0.5c0.24-1.05,0.29-2.1,0-3.15c-0.94-0.73-1.33,0.38-1.97,0.61c-0.49,0.39-1.01,0.75-1.52,1.12
		c-0.37,0.3-0.73,0.6-1.12,0.87c-1.57,1.14-3.02,2.43-4.64,3.5c-1.79,1.46-3.57,2.94-5.48,4.25c-0.88,0.52-1.6,1.31-2.62,1.61
		C25.63,45.47,25.45,45.07,25.91,44.27z"/>
	<path class="st30" d="M38.47,62.26c-2.8-2.27-5.6-4.53-8.41-6.8c-0.41-0.33-0.75-0.77-1.33-0.84c-0.34-0.6-1.2-0.66-1.42-1.38
		c-0.05-0.22,0.81-0.02,0.23-0.47c-2.01-1.53-2.74-3.66-2.91-6.07c0.22-1.14,1.29-1.08,2.05-1.47c0.45,0.1,0.52,0.45,0.5,0.83
		c-0.18,3.32,1.27,5.95,3.67,8.02c2.4,2.07,4.76,4.19,7.13,6.29C38.47,60.81,39.69,61.28,38.47,62.26z"/>
	<path class="st31" d="M71.62,40.96c0,0.25-0.01,0.5-0.01,0.76c-0.94,0.81-2.07,0.49-3.15,0.54c-0.75-0.04-1.51,0.08-2.24-0.2
		c-0.19-0.08-0.34-0.21-0.44-0.37c-0.01-0.12,0.04-0.21,0.14-0.27c0.02-0.01,0.03-0.06,0.04-0.09c-5.97,0.45-11.94,0.08-17.91,0.2
		c-0.6,0.01-1.21,0.05-1.79-0.07c-0.58-0.12-1.27-0.22-0.95-1.12c7.11,0,14.23-0.06,21.34,0.06C68.29,40.41,70.03,40.21,71.62,40.96
		z"/>
	<path class="st32" d="M45.31,40.32c0.26,1.07,1.14,0.67,1.77,0.67c6.69,0.03,13.38,0.02,20.2,0.02c-0.39,0.62-1.17,0.14-1.45,0.69
		c-0.53,0.6-1.24,0.54-1.94,0.54c-5.6,0.13-11.2,0.04-16.8,0.05c-0.59,0-1.19-0.01-1.77-0.19c-0.7-0.26-1.03-0.78-1.02-1.52
		c0.07-0.52,0.22-1.01,0.64-1.36c0,0,0.07-0.05,0.07-0.05C45.33,39.5,45.25,39.93,45.31,40.32z"/>
	<path class="st33" d="M24.79,46.77c0.68,2.41,1.33,4.85,3.66,6.3c-0.49,0.49-0.83,0.06-1.15,0.17c-0.46-0.36-0.92-0.71-1.37-1.07
		c-0.78-0.52-1.58-1.03-2.26-1.68c-0.6-0.57-1.31-1.16-0.91-2.1C23.14,47.53,23.64,46.7,24.79,46.77z"/>
	<path class="st34" d="M24.79,46.77c-2.45,1.95-2.45,2.26-0.09,4.16c0.45,0.36,0.82,0.83,1.23,1.25c-1.85-0.29-2.78-1.8-3.79-3.06
		c-0.74-0.93,0.26-1.82,0.89-2.46c0.86-0.89,1.91-1.6,2.88-2.38c-0.05,0.52-0.12,1.06,0.71,0.73c0.1,0.08,0.13,0.16,0.1,0.25
		c-0.03,0.09-0.06,0.13-0.1,0.13C26.1,45.96,25.16,45.98,24.79,46.77z"/>
	<path class="st35" d="M48.98,60.53c7.65,0,15.3,0,22.94,0c0,0.06,0,0.12,0,0.17c-7.63,0-15.27,0-22.9,0
		C49.01,60.65,49,60.59,48.98,60.53z"/>
	<path class="st36" d="M63.32,56.86c2.76,0,5.52-0.01,8.28-0.01C68.85,57.44,66.09,57.44,63.32,56.86z"/>
	<path class="st37" d="M44.61,40.3c-0.06,0.52,0.1,0.98,0.35,1.42c0.63,0.66,1.49,0.73,2.3,0.87c3.26,0.56,6.53,0.49,9.83,0.23
		c5.62-0.43,9.87,2.16,10.57,7.98c0.18,1.52,0.4,3.06,0.34,4.61c-3.62,0.73-7.24-0.34-10.85,0.03c-3.69,0.38-7.35-0.05-11.03-0.02
		c-2.15,0.01-2.63,0.55-2.38,2.65c0.24,1.96,0.19,3.91-0.21,5.86c-0.25,1.2-0.77,1.54-1.83,0.86c0.02-2.86-1.42-4.98-3.44-6.8
		c-1.95-1.76-3.93-3.49-5.67-5.46c-3.47-3.95-3.25-8.02,0.59-11.68c0.51-0.49,1.17-0.86,1.34-1.62c1.56-1.19,3.13-2.39,4.69-3.58
		c1.22,1.28,1.92,2.96,3.36,4.09C43.24,40.24,43.82,40.5,44.61,40.3z"/>
	<path class="st38" d="M68,55.41c-1.31-1.79-0.53-3.95-1.02-5.91c-0.75-3-3.32-5.43-6.36-6.02c-2.82-0.54-5.56,0.23-8.35,0.1
		c-1.79-0.08-3.56-0.29-5.32-0.49c-0.78-0.09-1.9-0.11-1.99-1.39c6.36,0.01,12.72,0.02,19.08,0.04c1.09,1.24,2.67,1.9,3.64,3.34
		c2.18,3.21,2.01,6.73,1.76,10.31C68.96,55.41,68.48,55.41,68,55.41z"/>
	<path class="st39" d="M34.52,39.21c0.68,0.88-0.29,1.13-0.65,1.51c-1.27,1.36-2.46,2.71-3.02,4.57c-0.7,2.37-0.13,4.43,1.4,6.17
		c2.05,2.32,4.3,4.44,6.68,6.44c1.87,1.58,2.91,3.75,3.35,6.18c0.09,0.52-0.19,0.62-0.57,0.68c-0.35-0.25-0.71-0.49-1.06-0.74
		c-0.84-2.48-2.69-4.19-4.6-5.8c-2.11-1.78-4.05-3.73-5.91-5.75c-2.56-2.77-2.9-6.32-1.03-9C30.92,42.07,32.72,40.64,34.52,39.21z"
		/>
	<path class="st40" d="M29.11,43.5c-0.68,2.17-1.22,4.32-0.06,6.54c0.5,0.97,1.04,1.87,1.82,2.62c2.47,2.35,4.91,4.73,7.42,7.04
		c1.12,1.03,1.74,2.43,2.75,3.53c0.44,0.49,0.15,0.74-0.39,0.81c-0.73-0.59-1.45-1.19-2.18-1.78c0.73-1.01-0.38-1.24-0.79-1.6
		c-2.47-2.23-5.07-4.34-7.53-6.59c-2.53-2.32-3.68-5.26-3.53-8.7c0-0.13-0.01-0.25-0.01-0.38C27.55,44.67,28.11,43.72,29.11,43.5z"
		/>
	<path class="st41" d="M69.45,55.41c-0.65-1.17-0.32-2.45-0.35-3.68c-0.12-3.96-1.11-7.36-5.26-8.98c-0.93-0.36,0.17-0.65,0.21-1
		c0.59-0.02,1.19-0.03,1.78-0.05c0.13,0.02,0.26,0.04,0.39,0.05c3.38,2.72,4.74,6.29,4.42,10.56c-0.07,0.97,0.04,1.9,0.6,2.73
		C70.74,55.67,70.05,55.35,69.45,55.41z"/>
	<path class="st42" d="M68.37,41.74c1.08-0.01,2.16-0.02,3.24-0.03c0.11,0.13,0.22,0.26,0.33,0.39c0.43,2.41,0.08,4.84,0.19,7.26
		c-0.29,1.11-0.1,2.25-0.2,3.38c-0.04,0.47-0.1,1.03-0.77,0.96c-0.52-0.05-0.59-0.52-0.62-0.95c-0.05-0.65-0.05-1.31-0.02-1.97
		c0.14-2.71-0.45-5.19-2.1-7.4C68.06,42.91,67.5,42.32,68.37,41.74z"/>
	<path class="st43" d="M68.37,41.74c-0.15,0.33-0.27,0.63,0.06,0.96c2,2.05,2.62,4.56,2.48,7.36c-0.06,1.09-0.18,2.22,0.22,3.58
		c0.96-1.39-0.03-2.9,0.81-4.02c0.34,1.32,0.26,2.65,0.05,3.98c0,0.61-0.14,1.15-0.76,1.44c-1.25,0.09-1.07-0.8-1.07-1.56
		c0-2.72,0.21-5.44-1.3-7.94c-0.62-1.03-1.19-2.06-2.24-2.68c-0.49-0.29-0.75-0.56-0.41-1.11C66.93,41.75,67.65,41.75,68.37,41.74z"
		/>
	<path class="st31" d="M71.99,53.61c-0.02-1.33-0.04-2.65-0.05-3.98c0-2.51,0-5.02,0-7.53c0.48,0.33,0.39,0.83,0.39,1.29
		c0,3.02-0.01,6.05-0.01,9.07C72.32,52.88,72.35,53.3,71.99,53.61z"/>
	<path class="st44" d="M44.61,40.3c-0.46,0.84-0.86,1.24-1.75,0.28c-1.42-1.52-3.1-2.8-3.64-4.95c0.36-0.25,0.71-0.49,1.07-0.74
		c0.94,0.24,1.38,1.04,1.9,1.74c0.57,0.75,1.11,1.52,2.05,1.86c0.24,0.25,0.47,0.49,0.71,0.74C44.95,39.62,45.01,40.03,44.61,40.3z"
		/>
	<path class="st45" d="M41.71,33.8c0.44-0.37,0.86-0.75,1.31-1.1c0.57-0.44,1.06-0.52,1.23,0.38c0.26,1.21,0.27,2.42,0,3.63
		c0,0.12,0,0.23-0.01,0.34c-0.25,0.43-0.67,0.64-0.98,0.23C42.47,36.26,41.38,35.33,41.71,33.8z"/>
	<path class="st46" d="M41.71,33.8c0.5,1,1.01,1.99,1.5,3c0.25,0.52,0.61,0.46,1.03,0.25c0,0.48-0.01,0.96-0.01,1.44
		c-0.61,0.39-1.02,0.29-1.46-0.36c-0.76-1.12-1.65-2.16-2.49-3.24C40.76,34.53,41.24,34.16,41.71,33.8z"/>
	<path class="st46" d="M44.25,36.71c0-1.21,0-2.42,0-3.63C44.77,34.29,44.78,35.5,44.25,36.71z"/>
</g>
</svg>
