<?xml version="1.0" encoding="utf-8"?>
<!-- Generator: Adobe Illustrator 23.0.2, SVG Export Plug-In . SVG Version: 6.00 Build 0)  -->
<svg version="1.1" id="Camada_1" xmlns="http://www.w3.org/2000/svg" xmlns:xlink="http://www.w3.org/1999/xlink" x="0px" y="0px"
	 viewBox="0 0 152.76 147.86" style="enable-background:new 0 0 152.76 147.86;" xml:space="preserve">
<style type="text/css">
	.st0{fill:#323232;}
	.st1{fill:#FEFEFE;}
	.st2{fill:#8B4300;}
	.st3{fill:#2982BF;}
	.st4{fill:#6C1D0B;}
	.st5{fill:#691D0C;}
	.st6{fill:#79230B;}
	.st7{fill:#FBC96A;}
	.st8{fill:#F6A246;}
	.st9{fill:#6D1F0F;}
	.st10{fill:#B5571D;}
	.st11{fill:#681C0D;}
	.st12{fill:#BE360A;}
	.st13{fill:#C43D0B;}
	.st14{fill:#833219;}
	.st15{fill:#7A230D;}
	.st16{fill:#9C4F20;}
	.st17{fill:#F1CA6B;}
	.st18{fill:#F8CF7A;}
	.st19{fill:#F27C28;}
	.st20{fill:#A7ECF6;}
	.st21{fill:#4FA9E5;}
	.st22{fill:#B4F6F5;}
	.st23{fill:#1E7EBF;}
	.st24{fill:#1376B8;}
	.st25{fill:#FE902F;}
	.st26{fill:#C0E9F1;}
	.st27{fill:#FE7A17;}
	.st28{fill:#FC5E06;}
	.st29{fill:#FDCB6A;}
	.st30{fill:#FC771E;}
	.st31{fill:#F95A09;}
	.st32{fill:#F75809;}
	.st33{fill:#B14519;}
	.st34{fill:#FB5E09;}
	.st35{fill:#F8CA6C;}
	.st36{fill:#FB963C;}
	.st37{fill:#481111;}
	.st38{fill:#FCCE72;}
	.st39{fill:#FDBF61;}
	.st40{fill:#FE8B2F;}
	.st41{fill:#FC7A21;}
	.st42{fill:#FCCD6E;}
	.st43{fill:#FDA244;}
	.st44{fill:#FBA846;}
	.st45{fill:#A73B11;}
	.st46{fill:#F19A3F;}
	.st47{fill:#F8C364;}
	.st48{fill:#FDB356;}
	.st49{fill:#F15106;}
	.st50{fill:#F35006;}
	.st51{fill:#DF4806;}
	.st52{fill:#FC7418;}
	.st53{fill:#FC761A;}
	.st54{fill:#F14F06;}
	.st55{fill:#541813;}
	.st56{fill:#F7C166;}
	.st57{fill:#F96914;}
	.st58{fill:#ECB563;}
	.st59{fill:#F2B863;}
	.st60{fill:#FEA245;}
	.st61{fill:#FEEDD7;}
	.st62{fill:#FD771F;}
	.st63{fill:#FDDFB8;}
	.st64{fill:#F75507;}
	.st65{fill:#FEA143;}
	.st66{fill:#FA812A;}
	.st67{fill:#FBCE6E;}
	.st68{fill:#A4310C;}
	.st69{fill:#F65506;}
	.st70{fill:#FC6B15;}
	.st71{fill:#FE7A27;}
	.st72{fill:#FC9E47;}
	.st73{fill:#FE8025;}
	.st74{fill:#86D3FC;}
	.st75{fill:#7BD2E5;}
	.st76{fill:#54A5C4;}
	.st77{fill:#FD8A30;}
	.st78{fill:#FDF6F1;}
	.st79{fill:#FD761D;}
	.st80{fill:#FEE1C3;}
	.st81{fill:#FD6E17;}
	.st82{fill:#539AC4;}
	.st83{fill:#FEF9EB;}
	.st84{fill:#FC6811;}
	.st85{fill:#F9761E;}
	.st86{fill:#FBF0EA;}
	.st87{fill:#6CA5BB;}
	.st88{fill:#FEE1C4;}
	.st89{fill:#FD8A36;}
	.st90{fill:#FBD3A9;}
	.st91{fill:#F9B275;}
	.st92{fill:#ABECCB;}
	.st93{fill:#C1F0C8;}
	.st94{fill:#FEFDFA;}
	.st95{fill:#CBDCCB;}
</style>
<g>
	<path class="st0" d="M31.77,85.02c-9.43-3.92-16.32-10.53-21.83-18.7c-2.65-3.92-4.76-8.16-6.04-12.68
		c-1.75-6.19-3.68-12.31-3.88-18.91c-0.31-10.01,3.73-17.49,11.76-23.08c0.9-0.63,1.92-1.33,2.96-1.49c3.78-0.56,6.85-2.42,9.62-4.9
		c3.8-3.39,8.65-4.05,13.33-4.75c4.31-0.65,8.82-0.56,13.12-0.37C62.39,0.65,73.97,0.2,85.55,0.39c7.88,0.13,15.76,0.1,23.64-0.01
		c3.95-0.05,7.75,0.43,11.6,1.36c4.24,1.03,7.61,3.22,10.34,6.47c0.76,0.9,1.64,1.18,2.66,1.37c6.57,1.24,11.85,4.61,15.04,10.44
		c3.14,5.74,4.54,12,3.69,18.67c-0.69,5.49-2.05,10.79-3.87,15.99c-4.11,11.72-11.41,20.9-21.9,27.54
		c-1.53,0.97-3.16,1.76-4.75,2.64c1.04,1.36,2.15,2.68,3.12,4.1c3.41,4.99,4.56,10.65,4.55,16.56c0,2.18,0.6,3.87,1.82,5.69
		c3.73,5.56,5.14,11.67,3.9,18.4c-1.18,6.35-3.8,11.63-9.61,14.95c-3.69,2.11-7.81,3.11-11.9,3.14
		c-25.12,0.17-50.24,0.27-75.35-0.02c-8.46-0.1-15.82-3.55-20.03-11.43c-3.68-6.88-3.46-14.04-0.34-21.17
		c1.29-2.95,4.05-5.2,4.8-8.16c0.73-2.91,0.5-6.12,1.13-9.2C25.13,92.63,27.62,88.54,31.77,85.02z"/>
	<path class="st1" d="M76.31,139.14c-12.4,0-24.8,0.09-37.19-0.05c-4.73-0.05-9.1-1.45-12.06-5.55c-3.24-4.5-3.38-9.33-1.28-14.31
		c1.19-2.81,2.73-5.45,5.25-7.26c0.99-0.71,0.72-1.48,0.76-2.29c0.17-3.56-0.1-7.08,0.8-10.66c1.08-4.27,3.65-7.02,7.3-8.84
		c1.99-0.99,3.62-2.04,4.6-4.06c0.38-0.78,1.01-1.43,1.46-2.17c0.48-0.79,2.03-1.33,1.53-2.15c-0.68-1.14-1.94-1.95-3.46-2.22
		c-6.23-1.11-12.01-3.29-17.03-7.3c-6.29-5.02-10.91-11.26-13.97-18.68c-2.86-6.94-4.59-14.19-4.58-21.66
		c0.01-5.96,5.79-13.45,11.12-14.26c1.61-0.25,3.1-1.21,4.84-0.79c0.6,0.15,0.79-0.48,1.04-0.82c3.81-5.17,9.07-7.06,15.29-7.04
		c14.98,0.05,29.97,0.01,44.95,0.01c9.23,0,18.45-0.1,27.67,0.06c3.22,0.06,6.41,0.7,9.16,2.76c1.52,1.14,2.72,2.54,3.51,4.14
		c0.57,1.13,1.22,1.13,2.19,1.23c5.41,0.55,10.35,2.21,13.22,7.21c2.33,4.07,3.1,8.64,2.54,13.32c-0.55,4.54-1.66,8.95-3.17,13.31
		c-3.49,10.05-9.62,17.93-18.5,23.75c-4.07,2.66-8.66,3.8-13.31,4.73c-1.54,0.31-2.45,1.32-3.64,2.03
		c-0.73,0.44-0.51,0.82-0.01,1.27c1.62,1.45,2.69,3.34,4.02,5.02c0.56,0.71,1.17,1.14,2.1,1.39c4.63,1.26,7.25,4.52,8.64,8.97
		c1.19,3.8,1.06,7.71,0.9,11.59c-0.08,1.93,0.46,3.3,1.9,4.56c5.07,4.43,5.69,14.28,1.65,19.84c-2.78,3.83-6.86,4.79-11.07,4.86
		C101.11,139.26,88.71,139.14,76.31,139.14z"/>
	<path class="st2" d="M75.95,131.5c-11.92,0-23.84,0.01-35.76,0c-4.95-0.01-7.16-1.22-8.1-4.35c-0.89-2.95,1.05-7.91,4.24-9.71
		c2.49-1.4,3.16-3.37,3.13-5.92c-0.03-2.8-0.03-5.6,0-8.4c0.04-3.38,1.55-5.55,4.74-6.71c2.73-1,4.85-2.57,6.04-5.36
		c0.75-1.78,2.23-3.1,3.63-4.42c3.3-3.1,2.73-7.98-0.99-10.65c-3.1-2.22-6.35-3.58-10.15-4.29c-7.01-1.32-12.55-5.44-16.87-11.01
		c-5.91-7.62-9.12-16.21-9.59-25.99c-0.17-3.6,0.64-6.16,3.03-8.51c1.55-1.52,3.37-2.02,5.49-1.54c4.18,0.94,5.04,0.48,6.43-3.36
		c0.93-2.57,4.12-4.54,7.51-4.54c9.89-0.01,19.77,0.02,29.66,0.02c6,0,12-0.01,18-0.01c9,0,18.01,0,27.01,0.01
		c4.28,0,5.65,1.07,6.75,5.19c0.59,2.23,2.33,3.39,4.64,3.16c1.19-0.12,2.39-0.22,3.58-0.19c4.69,0.1,7.8,3.06,8.06,7.76
		c0.22,4-0.1,7.99-1.22,11.85c-2.27,7.78-5.87,14.77-12.02,20.29c-4.21,3.77-8.9,6.5-14.56,7.15c-4.06,0.47-7.14,2.78-9.99,5.25
		c-3,2.6-2.58,7.32,0.38,9.91c1.69,1.48,3.1,3.23,4.26,5.16c1.18,1.96,2.86,3.16,5.03,3.74c3.26,0.87,5.02,3.09,5.1,6.62
		c0.07,3.28,0.06,6.56,0.02,9.84c-0.02,2.2,0.5,4.05,2.38,5.44c2.9,2.14,4.35,4.96,3.89,8.7c-0.36,2.99-1.62,4.47-4.63,4.86
		c-0.95,0.12-1.91,0.08-2.87,0.08c-12.08,0-24.16,0-36.24,0C75.95,131.53,75.95,131.51,75.95,131.5z"/>
	<path class="st3" d="M103.29,100.24c0.43,0.83,1.23,0.69,1.9,0.61c2.49-0.31,3.13,0.84,3.09,3.18c-0.09,5.11,0.14,10.22,0.13,15.33
		c0,1.53,0.44,2.33,2.04,2.04c1.77-0.31,2.63,0.87,3.47,2.04c0.56,0.78,1.11,1.73,0.7,2.66c-0.46,1.05-1.57,0.49-2.37,0.49
		c-23.09,0.01-46.18-0.01-69.28-0.05c-1.51,0-3.03-0.16-4.54-0.26c-1.31-0.09-1.68-0.8-1.15-1.96c0.79-1.69,1.48-3.22,4.04-2.73
		c2.79,0.54,3.28-0.14,3.29-3.09c0.02-4.71,0.08-9.43,0.01-14.14c-0.03-2.14,0.54-3.37,2.97-3.23c1.01,0.06,2.04-0.29,3.07-0.45
		c1.75-1.09,3.69-0.54,5.56-0.65c3-0.17,6.02,0.27,9.01-0.3c0.62-0.05,1.2,0.02,1.67,0.48c0.04,0.32-0.07,0.58-0.33,0.78
		c-0.95,0.79-2.09,0.67-3.2,0.68c-4.7,0.03-9.4-0.05-14.1,0.13c0.75-0.1,1.51-0.12,2.28-0.12c16.18,0,32.37-0.01,48.55,0.04
		c0.95,0,2.31-0.63,2.75,0.99c-1.02,0.87-2.27,0.63-3.44,0.63c-16.51,0.01-33.02,0.01-49.53,0.01c-3.01,0-3.04,0.03-2.97,3.09
		c0.09,3.83-0.02,7.66,0.06,11.48c0.02,1.18-0.07,2.51,1.65,2.69c1.81-0.04,3.63-0.08,5.44,0.03c0.89,0.05,1.97-0.09,2.3,1.16
		c-3.04,0.62-6.14,0-9.18,0.41c-0.31,0.12,0.08,0.41-0.06,0.12c-0.04-0.08,0.02-0.13,0.19-0.15c3.01-0.26,6.03-0.02,9.04-0.13
		c0.5-0.02,0.97,0.09,0.91,0.78c-0.93,0.83-2.09,0.68-3.19,0.69c-3.75,0.04-7.5,0.12-11.24-0.31c4.28,0.87,8.65,1.12,12.97,1.16
		c17.5,0.15,35,0.06,52.5,0.06c0.71,0,1.44,0.08,2.46-0.34c-1.31-0.71-2.48-0.54-3.58-0.54c-15.18-0.02-30.36,0-45.55-0.02
		c-1.33,0-2.74,0.27-3.91-0.7c0.37-1.63,1.73-1.14,2.72-1.16c4.95-0.08,9.9-0.04,14.86-0.04c9.58,0,19.17-0.01,28.75,0
		c0.63,0,1.28,0.12,1.87-0.18c0.13-0.23,0.25-0.45,0.33-0.7c0.39-5.49,0.32-10.98,0.03-16.47c-0.25-0.64-1.42-0.81-0.95-1.81
		c-1.74-0.49-3.49-0.81-5.3-0.81c-10.22,0.01-20.44,0.03-30.65-0.04c-0.78-0.01-2.36,0.92-2.31-1.1c1-0.7,2.15-0.47,3.24-0.47
		c9.47-0.04,18.93,0.03,28.4-0.05c0.95-0.01,1.91,0.1,2.85-0.16C102.18,99.71,102.75,99.91,103.29,100.24z"/>
	<path class="st4" d="M62.44,73.41c-4.23,0.2-7.63-1.85-10.34-4.65c-1.8-1.86-3.78-1.19-5.63-1.53c-4.7-0.87-8.67-3.01-12.23-6.04
		c-3.37-2.86-6.37-6.23-8.31-10.08c-2.2-4.35-3.84-9.11-3.72-14.18c0.05-2.21-0.96-5.13,0.47-6.43c1.18-1.07,4.04-0.25,6.16-0.33
		c3.26-0.13,6.53,0.34,9.77-0.42c1.07-0.25,2.2-0.02,3.3,0.31c1.09,0.33,1.99-0.26,2.22-1.29c0.3-1.31-1-1.04-1.63-1.14
		c-1.71-0.28-3.19-0.85-4.26-2.29c-0.34-0.46-0.92-1-0.55-1.45c0.59-0.72-0.65-2.1,0.6-2.17c1.15-0.07,0.52,1.25,0.71,1.93
		c0.16,0.59,0.43,1.02,1.01,1.22c2.22,0.47,4.43,1.12,6.75,0.74c12.34,0.08,24.68-0.06,37.01,0.16c1.12,0.37,2.28,0.35,3.44,0.41
		c0.88,0.04,1.94-0.17,2.27,1.07c-0.42,0.53-1.01,0.63-1.63,0.68c-2.86-0.02-5.72,0.19-8.58-0.14c-0.84-0.31-1.71-0.3-2.59-0.3
		c-9.06,0-18.12-0.01-27.18,0c-0.79,0-1.6-0.08-2.32,0.36c-0.5,0.45-0.78,1-0.77,1.67c0.06,6.9-0.23,13.8,0.16,20.69
		c0.37,1.46,0.62,2.94,0.79,4.45c0.91,8.26,5.08,14.03,13.07,16.81c0.45,0.16,0.9,0.32,1.34,0.51c0.41,0.21,0.87,0.31,1.26,0.56
		c0.28,0.17,0.55,0.46,0.4,0.73C63.23,73.65,62.82,73.67,62.44,73.41z"/>
	<path class="st5" d="M116.75,31.12c0.14-1.04,0.93-0.91,1.64-0.91c3.35-0.01,6.7,0.04,10.05-0.05c1.68-0.05,2.19,0.65,2.27,2.25
		c0.31,6.29-0.49,12.25-3.56,17.94c-4.32,8-10.2,14.04-19.15,16.5c-1.45,0.4-3.07,1.27-4.78,0.28c-0.77-0.45-1.17,0.61-1.64,1.05
		c-1.75,1.62-3.45,3.28-5.91,3.78c-0.44,0.19-0.6-0.09-0.72-0.44c0.1-1.1,1.14-1.25,1.8-1.8c0.89-0.56,1.8-1.1,2.35-2.06
		c0.77-1.12,1.88-1.97,2.53-3.19c3.56-3.91,3.89-8.86,4.37-13.74c0.12-1.18-0.02-2.37,0.25-3.55c0.6-3.03-0.09-6.12,0.42-9.15
		c0.23-0.67,0.44-1.6,1.16-1.59c0.83,0.01,0.81,0.98,0.92,1.66c-0.09,6.76,0.49,13.55-1.03,20.55c2.71-0.8,4.66-2.23,6.38-3.79
		c4.79-4.36,8.15-9.58,8.92-16.23c0.21-1.81-0.33-2.55-2.11-2.53c-1.92,0.02-3.84,0.03-5.76-0.01c-0.94-0.02-1.95,0.13-2.68-0.72
		c0.2-1.09,1.11-1,1.84-1.03c2.77-0.09,5.54-0.05,8.31-0.02c1.67,0.02,2.45,0.85,2.47,2.49c0.02,1.58,0.02,3.16,0.02,4.74
		c0.05,1.52-0.6,2.86-1.12,4.22c-0.76,1.46-1.2,3.06-1.99,4.5c-0.56,1.1-1.39,2.02-2.06,3.04c-0.33,0.45-0.71,0.86-1.1,1.26
		c-2.93,3.39-6.51,5.81-10.78,7.18c-1.81,0.58-2.55,1.97-3.2,3.81c3.88-0.39,7.09-1.98,10.13-4c3.48-2.58,6.48-5.61,8.64-9.4
		c0.5-0.73,1.03-1.45,1.42-2.25c1.22-2.84,2.67-5.59,3.29-8.66c0.19-0.67,0.33-1.36,0.49-2.04c0.27-0.8,0.27-1.64,0.47-2.45
		c0.23-1.54,0.7-3.09-0.38-4.52c-2.8-1.02-5.69-0.14-8.53-0.41C119.15,31.73,117.81,32.13,116.75,31.12z"/>
	<path class="st6" d="M67.32,90.61c-0.85-2.54,0.48-5.69-2.16-7.74c0.63-2.18-1.22-2.3-2.45-2.92c-1.9-0.96-2.94-2.43-2.59-4.63
		c0.2-1.28,0.72,0.13,1.07-0.08c0.71-0.03,1,0.46,1.26,1c0.41,0.35,0.9,0.27,1.37,0.27c8.58,0,17.16,0,25.16,0
		c0.9-0.12,0.43-0.53,0.6-0.26c0.07,0.11,0.02,0.19-0.14,0.19c-8.69,0.11-17.39,0.03-26.08,0.04c-0.42,0-0.79-0.08-0.96-0.53
		c0.14-0.28,0.36-0.48,0.65-0.61c2.67-0.63,5.39-0.32,8.08-0.29c4.38,0.05,8.75,0.02,13.12,0.06c1.78,0.02,3.58,0.14,5.37,0.01
		c0.71-0.05,1.32-0.19,0.7-1.1c-0.09-0.24-0.07-0.46,0.06-0.68c0.81-0.62,1.61-0.66,2.39,0.05c0.25,1.55-0.01,3.17-0.22,4.62
		c-0.33,2.24-2.42,2.83-4.59,2.59c-0.25-0.72,0.37-0.94,0.74-1.31c0.42-0.41,1.18-0.53,1.26-1.2c0.03-0.24-0.51-0.17-0.81-0.2
		c-8.08-0.07-16.15,0.23-24.21,0.02c-0.45,0.02-0.91-0.11-1.5,0.17c0.42,0.83,1.23,1,1.97,1.29c6.21,0.16,12.4,0.02,18.6,0.07
		c1.53,0.01,3.07-0.01,3.93,1.62c1.46,2.08-1.47,2.72-1.42,4.34c0.46,1.22,0.12,2.49,0.22,3.73c0.04,0.57,0.01,1.13-0.72,1.27
		c-0.77,0.15-1.18-0.29-1.4-0.94c-0.24-0.68-0.19-1.4-0.22-2.1c-0.03-0.85,0.13-1.75-0.65-2.4c-2.59-0.72-5.22-0.25-7.82-0.29
		c-1.83-0.03-3.67-0.01-5.49,0.04c-1.09,0.17-0.95,1.02-1,1.77c-0.08,1.15,0.08,2.31-0.19,3.45C68.85,90.86,68.29,91.31,67.32,90.61
		z"/>
	<path class="st7" d="M46.16,26.3c-2.22,0.22-4.39,0.27-6.16-1.43c-1.04-3.25-0.96-3.37,2.4-3.37c22.92,0.01,45.83,0.03,68.75,0.06
		c1.07,0,2.57-0.57,2.72,1.37c-0.53,1.45-1.39,2.57-3,2.9c-0.75,0.11-1.46,0.11-1.9-0.67c0.17-1.05,1.56-0.55,1.89-1.57
		c-1.11-0.79-1.53,0.25-2.11,0.8c-0.72-0.3-1.02,0.57-1.63,0.6c-0.95-1.41-2.29-0.18-3.41-0.48c-3.65-1-7.4-1.22-11.14-1.25
		c-12.75-0.08-25.51-0.1-38.26-0.1c-2.26-0.03-4.52-0.05-6.78-0.01c-0.73,0.01-1.61-0.31-2.06,0.62
		C45.3,24.74,46.95,25.2,46.16,26.3z"/>
	<path class="st8" d="M116.75,31.12c3.56,0.04,7.13,0.09,10.69,0.12c0.88,0.01,1.78-0.1,2.27,0.88c0.39,1.59,0.37,3.17,0.01,4.76
		c-0.25,0.81,0.16,1.75-0.46,2.49c-1.11-1.32-0.47-2.91-0.65-4.37c-0.14-1.1,0.41-2.61-1.49-2.69c-1.55-0.07-2.74,0.32-2.43,2.29
		c0.01,0.07-0.25,0.14-0.42,0.16c-3.35-0.05-6.7-0.01-10.05-0.02c-0.8,0-1.59-0.05-2.33,0.35c-2.32,1.27-4.76-0.58-3.66-3.3
		c0.57-0.92,1.3-1.28,2.3-0.65C112.6,31.13,114.68,31.12,116.75,31.12z"/>
	<path class="st9" d="M92.77,73.38c-0.8,0.08-1.67-0.26-2.39,0.36c-0.47,0.69-1.2,0.76-1.92,0.76c-7.99-0.02-15.98,0.16-23.97,0.08
		c-0.4,0-0.79-0.11-1.18-0.21c-0.31-0.1-0.57-0.28-0.78-0.53c-0.01-0.15-0.03-0.29-0.08-0.43c0.19-0.08,0.39-0.17,0.58-0.25
		c-0.16-0.09-0.32-0.18-0.49-0.26c-0.33-0.15-0.66-0.3-0.99-0.44c0.19-0.24,0.44-0.41,0.73-0.51c9.06-0.31,18.13-0.29,27.2-0.25
		c0.8,0,1.59,0.1,2.36-0.18c1.08-0.18,2.15-0.84,3.27-0.16c0.18,0.2,0.36,0.41,0.54,0.61C95.09,73.23,93.62,72.69,92.77,73.38z"/>
	<path class="st10" d="M110.53,31.13c-0.62,0.17-1.24,0.34-1.86,0.51c-0.8,0.34-1.53,0.42-1.97-0.55c-0.48-3.14-0.49-3.26-3.71-3.1
		c-3.56,0.19-7.11,0.64-10.69,0.49c-1.39-0.19-2.85,0.24-4.19-0.46c-0.27-0.2-0.32-0.45-0.16-0.75c0.45,0,0.89-0.01,1.34-0.01
		c2.06-1.5,4.27,0.11,6.38-0.27c0.31-0.08,0.01-0.55,0.1-0.24c0.03,0.09-0.02,0.15-0.13,0.16c-0.74,0.06-1.69,0.74-1.93-0.66
		c0.51-0.47,1.14-0.55,1.78-0.54c4.28,0.05,8.57-0.29,12.84,0.3c0.26-0.07,0.53-0.1,0.8-0.12c0.65,0.03,1.36-0.12,1.87,0.47
		c2.33,0.54,3.66-0.7,3.97-3.71c0.63,2.47,0.4,2.72-2.18,4.78C111.66,28.31,109.16,28.63,110.53,31.13z"/>
	<path class="st11" d="M51.51,98.88c1.37-0.81,1.86-2.16,2.47-3.55c1.09-2.49,2.51-4.76,5.53-5.38c0.89-0.18,1.55-0.27,1.99,0.65
		c-0.57,0.84-1.7,0.46-2.36,1.09c-1.82,1.29-3,3.05-3.8,5.08c0.42,1.37,1.58,0.86,2.42,0.87c8.05,0.04,16.09,0.01,24.14,0.04
		c1.09,0,2.25-0.21,3.21,0.61c0.12,0.33,0.03,0.59-0.25,0.79c-0.88,0.52-1.86,0.41-2.81,0.41c-9.19,0.01-18.37,0.01-27.56,0
		C53.47,99.48,52.39,99.63,51.51,98.88z"/>
	<path class="st12" d="M58.63,91.25c0.76-1.08,1.92-0.43,2.87-0.65c1.94,0,3.88,0.01,5.82,0.01c0.69,0.05,1.37,0.08,1.45-0.88
		c0.82-0.46,1.73-0.51,2.64-0.55c3.22,0.61,6.48,0.23,9.72,0.34c1.03,0.03,2.06-0.08,3.06,0.27c2.61,1.05,5.36,0.41,8.03,0.68
		c0.68,0.07,1.81-0.7,1.98,0.77c-1.43,0.99-3.05,0.52-4.59,0.56c-1.65,0.04-3.3,0.15-4.95,0.09c-2.43-0.18-4.87,0.15-7.3-0.01
		c-4.59,0.04-9.19,0.06-13.78,0.02C61.94,91.57,60.16,92.36,58.63,91.25z"/>
	<path class="st13" d="M51.51,98.88c11.18-0.04,22.35-0.07,33.53-0.11c0.45-0.37,0.96-0.57,1.54-0.59
		c4.23-0.11,8.46-0.07,12.68-0.01c0.77,0.01,1.81-0.02,2.21,1.04c-1.82,1.46-3.94,0.54-5.92,0.77c-8.5-0.04-17.01-0.01-25.51-0.01
		c-1.19,0-2.38-0.01-3.56-0.19c-3.37,0.3-6.74,0.24-10.11,0.2c-1.64-0.15-3.4,0.5-4.9-0.67C51.48,99.17,51.49,99.03,51.51,98.88z"/>
	<path class="st14" d="M101.4,99.28c-0.98-0.8-2.14-0.42-3.22-0.43c-4.38-0.06-8.76-0.05-13.13-0.07c0.01-0.14,0.01-0.28-0.01-0.41
		c0.9-0.95,2.08-0.61,3.16-0.68c3-0.2,6.04,0.38,9.01-0.35c0.52-2.49-1.56-3.71-2.64-5.42c-0.11-0.2-0.15-0.42-0.15-0.65
		c0.01-0.23,0.09-0.43,0.26-0.6c2.61,0.65,3.22,3.12,4.33,5.01c0.75,1.28,1.28,2.45,2.9,2.76c0.86,0.17,1.04,1.11,1.4,1.81
		c-0.39-0.03-0.79-0.05-1.18-0.08C101.42,100.24,101.45,99.72,101.4,99.28z"/>
	<path class="st15" d="M87.94,81.05c-1.25-0.8-2.61-0.99-4.09-0.98c-5.64,0.05-11.29,0.03-16.93,0.01c-0.84,0-1.77,0.3-2.49-0.43
		c0.43-0.54,1.05-0.62,1.67-0.73c6.28-0.21,12.55,0.1,18.83-0.01c1.37,0.01,2.8-0.32,3.98,0.72c-0.32,0.32-0.64,0.64-0.96,0.96
		C87.96,80.75,87.95,80.9,87.94,81.05z"/>
	<path class="st16" d="M94.67,90.66c-0.01,0.17-0.02,0.34-0.03,0.51c-0.18,0.13-0.33,0.11-0.46-0.07c-2.34-0.99-4.8-0.17-7.18-0.44
		c-0.98-0.11-2.06,0.36-2.92-0.47c-0.05-0.36-0.12-0.72-0.12-1.08c0.06-1.48-0.14-2.96,0.16-4.43c0.09-0.24,0.22-0.45,0.4-0.63
		c1.16,1.31,0.3,2.88,0.58,4.31c0.12,0.63-0.34,1.72,0.73,1.67c0.99-0.04,0.61-1.11,0.66-1.76c0.07-0.95,0.03-1.91,0.04-2.86
		c0.15,0.35,0.41,0.69,0.45,1.05c0.35,3.72,0.34,3.67,4.01,3.76C92.21,90.23,93.54,89.72,94.67,90.66z"/>
	<path class="st17" d="M51.46,99.32c1.58,0.02,3.15,0.03,4.73,0.05c0.43,0.44,0.55,0.86-0.1,1.21c-1.8,0.25-3.61,0.34-5.43,0.12
		C50.93,100.24,51.2,99.78,51.46,99.32z"/>
	<path class="st18" d="M62.52,73.84c0.13,0.08,0.27,0.12,0.42,0.12c1.28,0.65,0.85,1.24-0.06,1.81c-0.14-0.02-0.27,0.01-0.39,0.08
		c-0.14,0.16-0.28,0.16-0.41-0.01c-0.29-0.2-0.59-0.4-0.88-0.6C61.12,74.29,61.65,73.9,62.52,73.84z"/>
	<path class="st19" d="M110.99,26.35c-0.64,0-1.28-0.01-1.92-0.01c0.16-1.35,1.43-0.32,1.94-0.9c1.46-0.26,1.94-1.63,2.85-2.5
		C114.03,25.01,112.36,25.56,110.99,26.35z"/>
	<path class="st20" d="M57.74,122.7c4.87,0.05,9.74,0.14,14.61,0.14c12.14-0.01,24.29-0.06,36.43-0.08c0.79,0,1.62-0.03,2.37,0.16
		c0.73,0.18,1.26,0.85,1.21,1.61c-0.06,0.99-0.94,0.63-1.51,0.63c-18.94,0.01-37.87,0.14-56.81-0.1c-3.7-0.05-7.48-0.17-11.18-0.75
		c-0.82-0.13-2.33,0.54-2.29-0.87c0.04-1.48,1.6-1.04,2.51-0.96c3.9,0.35,7.81,0.3,11.72,0.33c0.8,0.01,1.59-0.07,2.39-0.11
		C57.38,122.57,57.56,122.58,57.74,122.7z"/>
	<path class="st21" d="M106.65,121.34c0,0.16,0,0.32,0,0.48c-0.57,0.44-1.23,0.26-1.85,0.26c-15.71,0.05-31.42-0.06-47.12,0.06
		c-0.48,0-0.96,0.01-1.37-0.3c-2.53-0.94-5.16-0.19-7.73-0.46c-1.13-1.84-0.66-3.82-0.48-5.77c0.29-0.94,0.78-1.84,1.56-2.36
		c3.71-2.48,7.41-5.02,11.9-5.96c1.1-0.23,2.24-0.4,3.05,0.72c0.07,0.27,0.07,0.54,0,0.8c-1.22,2.34-2.51,4.63-4.1,6.73
		c-0.63,0.83-1.25,1.66-1.76,2.57c-1.24,2.2-1.05,2.56,1.51,2.56c13.9,0.02,27.79,0.01,41.69,0.01c1.2,0,2.4-0.06,3.59,0.1
		C105.96,120.84,106.35,120.99,106.65,121.34z"/>
	<path class="st22" d="M48.54,115.13c0.01,2.08,0.02,4.16,0.03,6.24c-1.9,0.47-2.52-0.25-2.48-2.21c0.11-4.71,0.09-9.43-0.07-14.13
		c-0.06-1.95,0.57-2.41,2.45-2.39c17.57,0.11,35.14,0.12,52.71,0.15c0.56,0,1.11-0.05,1.67-0.08c0.76-0.64,1.52-0.71,2.28,0.01
		c0.46,0.45,1.4,0.03,1.64,0.89c-0.75,3.63-0.12,7.31-0.36,10.95c-0.14,2.11,0.54,4.31-0.59,6.33c-1.65-0.23-1.22-1.59-1.26-2.54
		c-0.12-3.39-0.02-6.79-0.06-10.18c-0.01-1.08,0.16-2.27-1.14-2.86c-0.27-0.08-0.53-0.17-0.79-0.26c-2.56-0.56-5.13-0.22-7.71-0.19
		c-14.44,0.12-28.89-0.1-43.32-0.07c-0.47,0.02-0.94,0.06-1.41,0.02c-1.49-0.14-1.89,0.44-1.66,1.95
		C48.88,109.52,49.16,112.33,48.54,115.13z"/>
	<path class="st23" d="M105.13,102.71c-0.76,0-1.52-0.01-2.28-0.01c-0.76-0.89-1.79-0.51-2.7-0.51
		c-16.99-0.02-33.99-0.02-50.98-0.02c-0.79,0-1.58,0-3.08,0c3.31-0.97,5.98-0.91,8.67-0.98c4.05-0.1,8.13,0.48,12.14-0.52
		l-0.01-0.01c0.65,0.91,1.61,0.53,2.44,0.53c9.92,0.03,19.84,0.08,29.75-0.02c2.21-0.02,4.36,0.91,6.62,0.2
		c0.48-0.15,1.62,0.04,1.94,1.33C106.74,102.71,105.93,102.71,105.13,102.71z"/>
	<path class="st24" d="M56.3,121.84c16.78,0,33.56-0.01,50.35-0.01c-0.39,1.04-1.27,0.48-1.88,0.48
		c-14.75,0.04-29.5,0.02-44.26,0.04c-0.92,0-1.92-0.32-2.77,0.36c-0.18,0-0.36,0-0.54,0c-2.4-0.81-4.88-0.19-7.32-0.37
		c-0.86-0.06-1.73-0.01-2.6-0.49C50.29,121.84,53.29,121.84,56.3,121.84z"/>
	<path class="st25" d="M101.4,99.28c0.24,0.3,0.47,0.59,0.71,0.89c-0.65,0.93-1.59,0.49-2.43,0.49
		c-10.94,0.01-21.87,0.01-32.81,0.01c0,0,0.01,0.01,0.01,0.01c-0.04-0.12-0.09-0.23-0.15-0.34c0.85-0.88,1.95-0.55,2.94-0.53
		c8.1,0.14,16.2-0.3,24.3-0.26c0.55,0,1.12,0.11,1.63-0.21C97.54,99.31,99.47,99.29,101.4,99.28z"/>
	<path class="st26" d="M105.67,120.96c0.01-5.32,0.06-10.63-0.01-15.95c-0.01-0.95-0.05-1.54,1.1-1.41
		c0.39,5.92,0.54,11.83-0.12,17.74c-0.3,0-0.6-0.01-0.9-0.01c-0.18-0.05-0.24-0.12-0.21-0.21
		C105.57,121.01,105.62,120.96,105.67,120.96z"/>
	<path class="st27" d="M95.62,99.32c-0.72,0.74-1.65,0.41-2.49,0.43c-8.79,0.21-17.59,0.39-26.38,0.57
		c-0.45-0.01-0.89-0.01-1.34-0.02c-0.35-0.99,0.69-0.6,0.95-0.97C76.11,99.34,85.86,99.33,95.62,99.32z"/>
	<path class="st28" d="M66.36,99.34c-0.32,0.32-0.64,0.64-0.95,0.97c-3.09,0.58-6.2,0.29-9.31,0.27c0.03-0.4,0.06-0.81,0.1-1.21
		C59.58,99.36,62.97,99.35,66.36,99.34z"/>
	<path class="st2" d="M44.32,34.02c0.71,0.84,0.39,1.84,0.4,2.76c0.05,7.24-0.29,14.49,1.36,21.64c0.33,1.42-0.52,1.88-1.63,1.27
		c-4.51-2.49-8.81-4.92-11.17-10.17c-1.98-4.4-4.32-8.48-3.92-13.5c0.06-0.7-0.4-0.99-1.01-1.1c-0.09-0.26-0.02-0.47,0.2-0.63
		c0.46-0.24,0.93-0.21,1.41-0.03c0.22,0.09,0.43,0.21,0.63,0.35c4.11,0.51,8.22,1.21,12.37,0.33C43.39,34.6,43.76,34.17,44.32,34.02
		z"/>
	<path class="st29" d="M62.02,72.35c-0.16,0.03-0.31,0.07-0.47,0.1c-9.17-2.85-13.89-8.58-14.87-18.05
		c-0.12-1.19-0.3-2.37-0.45-3.56c-0.58-1.54-0.23-3.14-0.24-4.71c-0.05-5.49,0.04-10.98-0.06-16.47c-0.03-1.79,0.55-2.53,2.32-2.27
		c1.09,0.36,1.31,1.3,1.49,2.26c0.37,2.05,0.56,4.11,0.54,6.2c-0.09,6.56-0.07,13.1,0.96,19.62c0.49,3.07,1.23,5.95,3.47,8.23
		c1.02,1.8,1.45,4.11,3.98,4.62c0.82,0.64,1.66,1.24,2.46,1.9C61.78,70.74,62.68,71.25,62.02,72.35z"/>
	<path class="st30" d="M27.81,50.85c-3-5.37-5.11-10.98-4.58-17.29c0.44-0.04,0.64,0.24,0.8,0.58c0.2,0.53,0.24,1.09,0.2,1.65
		c-0.17,2.42,0.51,4.42,2.95,5.76c-0.28-0.96-0.4-1.9-0.29-2.82c0.09-0.7-0.21-1.71,1.02-1.79c-0.06,6.51,2.63,12.02,6.32,17.15
		c0.35,1.83-0.8,1.15-1.44,0.75C31,53.68,29.12,52.61,27.81,50.85z"/>
	<path class="st31" d="M46.16,26.3c-0.01-1.08-1.39-1.26-1.49-2.27c-0.42-1.49,0.67-1.27,1.49-1.28c2.5-0.02,5-0.01,7.5-0.01
		c0.89,0.06,1.79-0.14,2.67,0.15c1.12,1.8,2.73,2.33,4.82,2.27c5.14-0.15,10.29,0.13,15.43-0.05c3.83-0.06,7.66,0.04,11.49,0.06
		c1.04,0,2.32-0.32,2.83,1.13c-2.27,0.58-4.54,0.27-6.81,0.07C71.45,26.35,58.81,26.32,46.16,26.3z"/>
	<path class="st32" d="M27.81,50.85c1.8,1.2,3.62,2.38,5.4,3.62c0.65,0.45,0.95,0.43,1.03-0.4c3.26,3.48,7,6.21,11.7,7.47
		c1.31,0.35,1.78,1.48,2.18,2.62c-4.82-0.6-9.3-2.15-13.46-4.65C31.36,57.43,29.48,54.22,27.81,50.85z"/>
	<path class="st33" d="M48.65,27.83c-2.06-0.48-2.52,0.4-2.48,2.39c0.13,6.87,0.05,13.74,0.05,20.62c-0.77-0.7-0.48-1.64-0.49-2.48
		C45.7,42,45.71,35.63,45.7,29.27c0-0.87-0.24-1.82,1.03-2.04c3.26-0.38,6.54-0.14,9.81-0.16c6.8-0.04,13.59-0.02,20.39,0
		c0.79,0,1.6-0.18,2.36,0.2c2.89,0,5.78,0,8.67,0.01c0,0.14-0.01,0.28-0.01,0.42c-0.94,1.06-2.21,0.74-3.36,0.75
		c-8.28,0.07-16.56-0.07-24.84,0.09c-2.62-0.07-5.25,0.05-7.87,0.01C50.74,28.52,49.63,28.46,48.65,27.83z"/>
	<path class="st34" d="M29.88,34.95c-0.02-0.14-0.04-0.27-0.06-0.41c0.9-0.95,2.07-0.7,3.18-0.73c1.57-0.05,3.15,0.07,4.72-0.05
		c0.45-0.04,1.06-0.06,1.06-0.67c0-0.6-0.61-0.67-1.06-0.71c-1.89-0.18-3.78-0.09-5.67-0.05c-1.99,0.06-3.97-0.05-5.96-0.02
		c-0.9-0.03-1.82,0.03-2.43-0.83c2.42-0.66,4.9-0.22,7.35-0.29c3.43-0.1,6.88,0.12,10.3-0.08c2.31-0.14,3.27,0.64,3.03,2.92
		c-0.1,0.56-0.42,0.91-0.99,1c-1.5,0.81-3.12,0.37-4.69,0.41C35.71,35.52,32.78,35.37,29.88,34.95z"/>
	<path class="st35" d="M34.66,59.51c4.49,1.55,8.97,3.1,13.46,4.65c0.35,0.57,1.08,1,0.75,1.89c-5.26-0.16-9.57-2.69-13.77-5.5
		C34.74,60.31,34.65,59.93,34.66,59.51z"/>
	<path class="st36" d="M27.92,36.92c-1.13,1.9-0.06,3.84,0.01,5.86c-4.13-1.74-4.74-5.01-4.24-8.81c1.02-0.27,2.07,0.18,2.47,0.87
		c0.7,1.19,1.26,0.08,1.85,0.17C27.98,35.64,27.95,36.28,27.92,36.92z"/>
	<path class="st37" d="M79.28,27.27c-10.85-0.01-21.71-0.02-32.56-0.04c0.5-0.56,1.18-0.4,1.8-0.4c9.66-0.01,19.32-0.01,28.98,0
		C78.12,26.83,78.8,26.69,79.28,27.27z"/>
	<path class="st38" d="M28.01,35c-0.51,0.74-0.89,1.55-1.93,0.4c-0.6-0.66-1.58-0.97-2.39-1.43c-0.15-0.14-0.3-0.28-0.46-0.42
		c-0.08-0.73-0.37-1.51,0.41-2.07c0.78,0.07,1.56,0.15,2.35,0.22c0.84,0.26,1.72,0.41,2.38,1.05c0.56,0.53,1.06,1.09,0.11,1.72
		c-0.09,0.13-0.14,0.28-0.12,0.45C28.24,34.93,28.12,34.96,28.01,35z"/>
	<path class="st33" d="M84.09,26.37c2.24-0.02,4.49-0.05,6.73-0.07c0.99-0.75,1.95-0.77,2.89,0.09c0.62,0.74,1.64,0.21,3.02,0.87
		c-2.93,0-5.19,0-7.44,0C87.7,26.13,85.68,27.48,84.09,26.37z"/>
	<path class="st2" d="M112.93,35.45c2.95,0,5.91,0.06,8.86-0.01c1.92-0.05,2.25,0.88,2.06,2.56c-0.74,6.69-3.87,12.2-8.57,16.8
		c-2.07,2.02-4.6,3.61-7.34,4.74c-0.7,0.29-1.47,0.42-1.15-0.62c2.06-6.76,1.07-13.69,1.3-20.55
		C108.67,35.22,108.67,35.22,112.93,35.45z"/>
	<path class="st39" d="M106.7,47.47c-0.11,3.59-0.27,7.16-1.09,10.7c-0.63,2.72-1.79,5.06-3.74,7.04c-0.45,0.17-0.62-0.12-0.75-0.47
		c-0.03-0.23-0.01-0.46,0.04-0.69c0.44-1.51,2.08-2.83,1.58-4.37c-0.46-1.41-2.43-1.61-3.68-2.44c-0.76-0.51-1.42-1.04-1.52-2.02
		c0.56-3.55,1.27-7.07,1.65-10.64c0.23-2.13,0.16-3.97-2.18-4.88c-0.08-0.83,0.62-0.77,1.09-0.93c2.95-1.02,3.68-3.31,1.86-5.86
		c-0.87-1.21-2.07-1.9-3.51-2.22c-0.43-0.1-0.95-0.22-0.89-0.88c1.36-2.36,3.87-1.76,5.91-2.18c1.52-0.31,3.34-0.53,4.7,0.09
		c1.59,0.74,0.29,2.74,0.85,4.07c0.29,0.68,0.3,1.39,0.31,2.11C106.66,38.39,107.14,42.96,106.7,47.47z"/>
	<path class="st40" d="M95.12,71.35c-0.92,0.21-1.85,0.43-2.77,0.64c-2.34,0.27-2.37,0.24-1.77-1.66c0.97-1.22,1.03-2.83,1.73-4.16
		c0.6-1.13,0.11-1.75-0.95-2.21c-1.38-0.61-2.7-1.35-4.09-1.95c-1.11-0.49-2.15-1.08-2.47-2.39c0.16-2.4-0.46-4.73-0.58-7.1
		c-0.05-1.01-0.09-1.93,1.04-2.38c1.97,0.95,3.19,2.95,5.36,3.72c1.56,0.55,2.95,1.59,4.56,2.1c1.19,0.37,1.95,1.07,1.93,2.4
		c-0.02,0.74-0.27,1.41-0.58,2.06c-0.49,0.9-0.87,1.85-1.2,2.82c-0.26,0.76-0.07,1.33,0.54,1.88c2.48,2.24,2.47,2.25,1.2,4.88
		C96.43,70.45,95.77,70.9,95.12,71.35z"/>
	<path class="st41" d="M115.43,61.91c-3.12,2.51-6.78,3.72-10.64,4.44c-0.94,0.18-1.34-0.23-0.81-0.99
		c1.17-1.69,1.76-3.74,4.34-4.35c4.22-0.99,7.41-3.86,10.36-6.92c0.42,2.43-1.17,4.13-2.18,6.04
		C116.16,60.74,115.33,61.05,115.43,61.91z"/>
	<path class="st42" d="M124.8,34.58c-0.15-0.84-1.17-0.29-1.48-0.94c0.56-1.03,1.47-1.64,2.57-1.91c2.51-0.6,3.31,0.05,3.33,2.64
		c0.01,1.66,0.03,3.33,0.04,4.99c0,0.66-0.05,1.3-0.43,1.87c-0.43,2.54-2.43,3.97-4.04,5.68c-0.32,0.34-0.72,0.79-1.21,0.51
		c-0.63-0.36-0.33-0.96-0.16-1.49c-0.1-1.37,1.2-2.36,1-3.76c0.27-0.25,0.34-0.59,0.44-0.92c0.09-2.11,0.1-4.21-0.01-6.32
		C124.83,34.81,124.81,34.7,124.8,34.58z"/>
	<path class="st43" d="M97.08,70c-1.36-0.29-0.87-0.91-0.15-1.32c1.41-0.81,1.06-1.52,0.03-2.29c-3.15-2.37-3.16-2.47-0.84-5.97
		c1.67,0.03,3.04,0.81,4.34,1.74c0.69,0.49,1.53,1,0.94,2.1c-0.01,0.16-0.01,0.32-0.02,0.47c-0.03,1.47-1.9,1.86-1.96,3.32
		C99.05,69.19,97.99,69.51,97.08,70z"/>
	<path class="st44" d="M115.43,61.91c-0.73-0.44-0.41-0.88-0.01-1.34c1.63-1.88,2.41-4.19,3.25-6.48c0.29-0.34,0.59-0.68,0.88-1.03
		c1.49-0.45,2.88-1.47,4.56-0.79C122.15,56.33,119.01,59.32,115.43,61.91z"/>
	<path class="st45" d="M124.9,41.69c-0.16,0.16-0.32,0.32-0.48,0.48c0.01-1.91,0-3.82,0.03-5.73c0.01-0.98-0.35-1.44-1.41-1.43
		c-3.34,0.06-6.68,0.05-10.03,0.08c-0.05,0-0.14,0.08-0.15,0.14c-0.01,0.07,0.04,0.15,0.07,0.23c-0.32,0.42-0.8,0.57-1.27,0.47
		c-2.06-0.42-3.21,0.4-3.56,2.44c0-0.49,0-0.98,0-1.85c-0.43,0.71-0.65,1.07-0.87,1.43c-0.66-1.37-0.14-2.83-0.31-4.23
		c0.07-0.7-0.18-1.44,0.23-2.1c0.51-0.32,1.02-0.25,1.52,0.03c-0.05,3.24-0.05,3.1,3.21,2.99c4.3-0.14,8.61-0.05,12.92-0.05
		c0,0,0.03-0.03,0.03-0.03C125.38,36.92,125.26,39.31,124.9,41.69z"/>
	<path class="st46" d="M123.42,45.92c0.39,1.3,0.51,1.37,0.94,0.68c1.24-2.01,3.67-3.01,4.47-5.37c-0.5,3.28-1.93,6.22-3.44,9.12
		c-0.62-0.89-1.01,0.09-1.51,0.19c-0.85,0.16-1.7,0.28-2.5-0.23C122.06,48.85,122.74,47.38,123.42,45.92z"/>
	<path class="st47" d="M121.38,50.31c1.05-0.58,2.34,0.13,3.44-0.9c0.66-0.62,0.37,0.59,0.57,0.94c-0.32,0.71-0.61,1.44-1.28,1.92
		c-1.55,0.07-2.89,1.41-4.56,0.79C119.66,51.81,121.08,51.44,121.38,50.31z"/>
	<path class="st10" d="M107.1,33.47c0.04,1.49,0.08,2.98,0.12,4.47c-0.32,3.17,0.5,6.4-0.53,9.53c0-4.63-0.01-9.26-0.01-13.9
		C106.78,33.36,106.92,33.33,107.1,33.47z"/>
	<path class="st48" d="M99.42,68.05c-0.45-1.76,1.49-2.11,1.96-3.32c0.16,0.16,0.32,0.32,0.49,0.47
		C101.45,66.49,100.2,67.07,99.42,68.05z"/>
	<path class="st2" d="M129.72,36.87c0-1.59-0.01-3.18-0.01-4.76C130.44,33.7,130.42,35.28,129.72,36.87z"/>
	<path class="st49" d="M85.09,79.64c-6.42-0.01-12.83-0.03-19.25-0.04c-0.83-0.6-2-0.92-1.92-2.28c8.8-0.01,17.61-0.01,26.41-0.02
		c-0.36,1.27-1.47,1-2.34,1.04c-2.38,0.11-4.77-0.02-7.06,0.06C82.22,78.96,84.15,77.56,85.09,79.64z"/>
	<path class="st50" d="M84.52,84.03c0.03,0.14,0.04,0.28,0.04,0.42c-0.4,0.35-0.87,0.52-1.39,0.57c-0.79,0.06-1.6,0.12-2.38,0.02
		c-2.92-0.37-4.89,0.88-6.29,3.89c2.85,0.23,5.57,0.06,8.27,0.12c0.67,0.01,1.29,0.18,1.79,0.65c-0.16,0.16-0.32,0.32-0.48,0.48
		c-4.52-0.21-9.08,0.45-13.58-0.52c-0.61-1.82-1.06-3.65-0.72-5.59C74.7,84.06,79.61,84.05,84.52,84.03z"/>
	<path class="st51" d="M62.87,75.78c0.48-0.59,0.57-1.19,0.06-1.81c8.11-0.01,16.23-0.02,24.34-0.05c1.03,0,2.06-0.12,3.09-0.18
		c0,0-0.07,0.2-0.07,0.2c-0.6,1.54-2,1.12-3.06,1.06c-3.66-0.23-7.31-0.15-9.93-0.18c1.28-0.01,3.6-0.03,5.92,0.02
		c0.71,0.02,1.7-0.3,1.86,0.92C77.68,75.77,70.28,75.77,62.87,75.78z"/>
	<path class="st52" d="M85.09,75.76c-2.04-0.98-4.2-0.28-6.3-0.43C77,75.2,75.21,75.3,73.3,75.3c0.32-1.29,1.1-0.91,1.63-0.92
		c4.21-0.03,8.42,0,12.62-0.03c0.92-0.01,1.92,0.27,2.75-0.42c0.62-0.06,1.36-0.24,1.42,0.7c0.05,0.77-0.52,1.14-1.21,1.14
		C88.7,75.81,86.9,75.77,85.09,75.76z"/>
	<path class="st53" d="M85.09,79.64c-1.52-1.02-3.22-0.29-4.83-0.5c-0.61-0.08-1.52,0.09-1.53-0.71c-0.02-0.81,0.88-0.72,1.5-0.72
		c3.01-0.02,6.01-0.01,9.02-0.05c0.36,0,0.72-0.24,1.08-0.37c0.65-0.03,1.18,0.03,0.68,0.89c-0.47,0.81-1.37,1.01-2.09,1.45
		C87.64,79.63,86.36,79.64,85.09,79.64z"/>
	<path class="st54" d="M83.15,82.95c-4.79,0.01-9.58,0.03-14.37,0.04c-0.31-0.53-1.21-1.02-0.13-1.67c3.86-0.04,7.73,0,11.59-0.02
		c0.11,0.89,0.66,0.78,1.35,0.7C82.24,81.93,83.08,81.89,83.15,82.95z"/>
	<path class="st55" d="M62.07,75.84c0.14-0.08,0.28-0.07,0.41,0.01c0.82,0.74,1.83,0.4,2.75,0.4c8.51,0.03,17.02,0.02,25.54,0.48
		c-1.13,0-2.25,0-3.38,0c-7.65,0-15.3,0.02-22.95-0.04C63.62,76.69,62.43,77.3,62.07,75.84z"/>
	<path class="st56" d="M69.79,84.07c0.76,1.8,1.1,3.65,0.72,5.59c-0.56,0.5-1.14,0.52-1.74,0.07c-0.02-1.33-0.04-2.66-0.07-3.98
		C68.68,84.93,68.65,84.12,69.79,84.07z"/>
	<path class="st15" d="M80.76,81.54c-4.16-0.01-8.32-0.02-12.47-0.02c-0.35,0.31-0.67,0.26-0.98-0.07c0.92-0.71,1.99-0.37,2.98-0.38
		c4.59-0.04,9.18-0.03,13.76,0c0.83,0.01,1.76-0.32,2.46,0.47C84.59,82.79,82.68,82.16,80.76,81.54z"/>
	<path class="st57" d="M80.76,81.54c1.92,0,3.83,0,5.75,0c0.5,0.77,0.76,1.48-0.59,1.49c-0.92,0.01-1.85-0.06-2.78-0.09
		c-0.68-0.74-1.59-0.28-2.38-0.46C79.52,82.22,80.82,81.86,80.76,81.54z"/>
	<path class="st58" d="M63.92,77.31c0.65,0.75,1.59,1.26,1.92,2.28c-0.47,0.02-0.94,0.03-1.41,0.05c-0.41-0.24-0.84-0.45-1.23-0.71
		c-0.5-0.34-1.37-0.59-1.01-1.36C62.5,76.9,63.31,77.29,63.92,77.31z"/>
	<path class="st59" d="M67.31,81.45c0.33,0.02,0.65,0.05,0.98,0.07c0.16,0.49,0.33,0.98,0.49,1.47c-0.74-0.02-1.64,0.47-2.13-0.42
		C66.38,82.08,66.99,81.77,67.31,81.45z"/>
	<path class="st60" d="M56.25,23.02c-0.78-0.02-1.56-0.05-2.34-0.07c-0.16-0.06-0.22-0.13-0.19-0.23c0.03-0.11,0.07-0.16,0.11-0.16
		c13.75-0.02,27.5-0.2,41.24,0.08c3.18,0.07,6.76-0.43,9.67,1.78c0.87-0.19,1.69-0.17,2.4,0.46c0.44-0.28,0.73-1.02,1.45-0.47
		c0.27,0.05,0.43,0.21,0.51,0.47c0.49,0.72,1.27,0.41,1.92,0.56c-0.48,0.66-1.52,0.11-1.94,0.9c0,0,0,0,0,0
		c-5.22-0.4-10.53,0.36-15.66-0.39c-8.16-1.19-16.33-1.34-24.51-1.27c-2.99,0.03-5.71-1.52-8.7-1.01
		C58.84,23.69,57.45,23.93,56.25,23.02z"/>
	<path class="st61" d="M109.09,24.88c-0.17-0.16-0.34-0.32-0.51-0.47c-0.08-0.94,0.08-1.75,1.23-1.86c0.87-0.08,1.87-0.15,2.08,0.96
		c0.22,1.18-0.69,1.4-1.63,1.41C109.87,24.92,109.48,24.89,109.09,24.88z"/>
	<path class="st62" d="M53.83,22.56c0.03,0.13,0.06,0.26,0.08,0.38c-2.39,0.01-4.79,0.02-7.18,0.04c-0.85,0.01-1.84-0.22-2.05,1.05
		c-0.81-1.52,0.18-1.55,1.25-1.54C48.56,22.51,51.19,22.53,53.83,22.56z"/>
	<path class="st63" d="M107.14,24.88c-0.84,0.07-1.72,0.3-2.4-0.46c0.09-0.75,0.52-1.05,1.24-0.95
		C106.8,23.57,107.11,24.12,107.14,24.88z"/>
	<path class="st64" d="M91.3,70.48c-0.39,0.27-0.96,0.54-0.69,1.08c0.35,0.71,1.17,0.22,1.74,0.43c-0.76,0.6-1.68,0.46-2.54,0.48
		c-7.99,0.19-15.99-0.26-23.98,0.28c-1.25,0.08-2.53-0.25-3.8-0.39c-0.02-1.14-1-1.47-1.7-2.05c-0.63-0.52-1.66-0.65-1.72-1.73
		c0.41-1.08,1.07-2.1,0.02-3.26c-1.1-1.22-2.34-1.46-3.83-1.01c-2.56-1.12-3.34-3.54-3.78-5.89c-1.32-7.13-1.81-14.35-1.57-21.62
		c0.1-3.01,0.11-6.03-0.8-8.96c3.67,0.01,7.33,0.01,11,0.02c0.88,3.88,0.9,7.86,1.45,11.78c1.07,5.86,2.22,11.69,5.65,16.75
		c0.5,0.74,0.56,1.65,1.04,2.38c0.49,0.68,1.23,1.07,1.89,1.54c5.74,4.57,12.23,7.33,19.54,8.13C90.38,68.57,92.09,68.29,91.3,70.48
		z"/>
	<path class="st65" d="M107.1,33.47c-0.14,0.04-0.28,0.08-0.42,0.1c-0.01-0.55-0.04-1.1-0.04-1.66c-0.01-4.18-0.01-4.21-4.12-4.1
		c-1.49,0.04-3.38-0.21-4.32,0.59c-0.81,0.69-1.74,1.16-2.56,1.8c-2.11,2.87-1.59,5.47,0.78,7.89c0.33,0.34,0.62,0.73,0.63,1.25
		c2.92,0.96,3.45,2.07,2.8,5.74c-0.62,3.51-1.22,7.02-1.84,10.52c-0.37,1.02,0.32,2.55-1.43,2.89c0.05-1.09-0.33-1.68-1.53-1.97
		c-2.71-0.66-4.92-2.48-7.47-3.54c-1.16-0.48-1.37-1.86-2.17-2.7c0.33-1.82,1.96-2.78,2.79-4.28c0.43-0.78,1.4-1.46,0.46-2.48
		c-0.85-0.49-1.8-0.7-2.74-0.77c-3.09-0.24-5.43-1.59-6.88-4.37c-0.71-0.66-1.07-1.54-1.5-2.39c-0.89-1.76-1.34-1.79-2.57-0.16
		c-0.81,1.07-1.37,2.3-2.02,3.47c-0.49,0.89-0.95,1.92-2.32,1.45c-1.63-0.36-2.62-1.45-3.32-2.87c-0.63-1.29-1.18-2.62-1.63-3.99
		c-0.58-1.8-1.3-3.43-3.23-4.2c-0.51-0.2-0.92-0.64-0.88-1.33c0.75-0.63,1.67-0.31,2.5-0.31c8.63-0.03,17.25-0.01,25.88-0.03
		c0.78,0,1.6,0.23,2.34-0.22c3.94-0.15,7.89-0.18,11.82-0.5c2.53-0.21,3.49,0.65,3,3.14c-0.07,0.38,0.02,0.79,0.04,1.18
		C107.13,32.23,107.12,32.85,107.1,33.47z"/>
	<path class="st66" d="M92.29,27.79c-0.73,0.74-1.65,0.44-2.5,0.44c-8.53,0.03-17.05,0.02-25.58,0.06c-0.74,0-1.54-0.27-2.82,0.65
		c4.16,0.15,4.35,3.24,5.31,5.75c0.92,2.42,1.68,4.96,4.45,6.02c-0.34,1.1-1.29,1.36-2.23,1.53c-2.12,0.39-4.18,0.95-6.25,1.54
		c-1.55-0.89-1.7-2.5-2.08-4c-0.95-2.33-0.21-4.87-0.9-7.25c-0.32-1.09,0.12-2.34-0.72-3.4c-0.52-0.65,0.41-0.87,0.69-1.27
		c9.43-0.05,18.86-0.11,28.3-0.16C89.39,27.72,90.84,27.76,92.29,27.79z"/>
	<path class="st19" d="M60.11,23.02c7.59,1.71,15.36,0.32,22.99,1.36c0.94,0.13,1.92,0.01,2.87,0.05c2.43,0.1,4.95-0.5,7.15,1.23
		c0.46,0.37,1.39,0.15,2.1,0.19c4.61,0.22,9.26-0.42,13.85,0.5c-1.12,1.11-2.26-0.03-3.4,0c-3.99,0.1-7.98,0.05-11.97,0.05
		c-0.96-0.03-1.93-0.06-2.89-0.09c-1.97-0.88-4.05-0.32-6.07-0.41c-2.77-0.11-5.55-0.04-8.33-0.05c-3.3-0.25-6.59-0.66-9.9-0.71
		c-1.68-0.03-3.33-0.22-4.96-0.56C60.8,24.41,59.64,24.41,60.11,23.02z"/>
	<path class="st67" d="M58.63,91.25c1.63-0.04,3.26-0.08,4.9-0.12c0.01,0.08,0.07,0.2,0.04,0.22c-2.37,2.16-4.27,4.79-6.85,6.74
		c-1.56,0.1-2.78-0.1-1.82-2.14C55.96,94.23,56.99,92.5,58.63,91.25z"/>
	<path class="st68" d="M54.9,95.94c-0.56,2.35,1.06,1.87,2.36,1.82c1.3-0.75,2.73-0.68,4.16-0.67c3.24,0.02,6.48-0.07,9.72,0.06
		c5.53-0.2,11.05,0.11,16.58,0.02c2.61-0.1,5.24,0.29,7.84-0.27c0.9-0.19,1.77-0.16,2.51,0.48c0.47,1.62-0.87,0.89-1.34,0.9
		c-3.89,0.08-7.78,0.06-11.68,0.07c-9.6-0.01-19.19-0.02-28.79-0.05C53.86,98.31,53.75,98.07,54.9,95.94z"/>
	<path class="st69" d="M71.15,97.81c-4.63-0.01-9.27-0.03-13.9-0.04c1.2-3.05,3.78-4.81,6.27-6.64c4.62,0.01,9.25,0.02,13.87,0.03
		c-0.12,1.99-1.87,2.74-3.06,3.89C73.33,96.02,72.03,96.67,71.15,97.81z"/>
	<path class="st70" d="M71.15,97.81c-0.45-0.74-0.04-1.05,0.56-1.46c2.12-1.48,4.15-3.07,5.69-5.19c2.4,0,4.79-0.01,7.19-0.01
		c-0.54,0.95-1.38,1.67-1.06,3.08c0.27,1.17-0.76,2.05-1.85,2.62c1.59-0.17,3.17-0.09,4.74-0.09c0.5,0.03,0.99,0.11,1.41,0.4
		c0.23,0.19,0.26,0.41,0.11,0.66C82.34,97.81,76.75,97.81,71.15,97.81z"/>
	<path class="st71" d="M86.52,97.37c-1.94,0-3.88,0-5.81,0c1.76-1.46,3.12-2.65,1.95-5.2c-0.42-0.92,1.56-0.07,1.93-1.02
		c3.2-0.02,6.4-0.03,9.61-0.05c0.15,0.04,0.3,0.07,0.46,0.07c0.06,0.13,0.11,0.26,0.14,0.4c-0.34,0.47-0.84,0.58-1.36,0.65
		c-0.6,0.05-1.21,0.03-1.81,0.03c-0.87-0.01-1.74-0.11-2.61-0.02c-1.02,0.11-0.55,0.69-0.32,1.17c0.24,0.5,0.4,1.02,0.44,1.57
		C88.78,96.34,87.49,96.68,86.52,97.37z"/>
	<path class="st72" d="M93.16,91.68c0.54-0.04,1.08-0.07,1.62-0.11c1.84,1.52,3.21,3.3,3.27,5.82c-0.79,0.02-1.58,0.04-2.37,0.07
		c-0.34,0.17-0.68,0.17-1.03,0.05c-0.79-0.93-0.79-2.14-1.17-3.22C93.54,93.39,93.08,92.57,93.16,91.68z"/>
	<path class="st73" d="M83.16,84.46c0.47,0,0.93,0,1.4,0c0,1.75,0,3.5,0,5.24c-0.63,0-1.26-0.01-1.89-0.01
		C81.46,87.82,82.4,86.14,83.16,84.46z"/>
	<path class="st74" d="M105.67,120.96c0.02,0.12,0.04,0.25,0.07,0.37c-15.55,0.01-31.11,0.01-46.66,0.01
		c-2.83,0-2.96-0.09-1.56-2.38c2.19-3.58,4.58-7.05,6.88-10.57c0.97-0.62,1.85,0.18,2.77,0.16c9.94-0.19,20.02,1.43,29.71-2.15
		c2.1-0.78,4.34-1.07,6.43-1.85c1.65-0.27,2,0.56,1.97,2.04c-0.08,4.04-0.05,8.07-0.03,12.11
		C105.25,119.47,105,120.31,105.67,120.96z"/>
	<path class="st75" d="M103.31,104.56c-1.37,2.1-3.85,1.58-5.77,2.36c-6.17,2.5-12.69,2.71-19.25,2.48
		c-2.79-0.1-5.59-0.05-8.38-0.01c-1.91,0.03-3.81,0.09-5.51-0.99c0.01-0.16,0.01-0.32,0.01-0.48c-0.15-1.33,0.85-1.94,1.66-2.69
		c-4.17,0.09-8.35,0.07-12.54,0.01c-0.94-0.01-2.14,0.27-2.55-1.1c14.74,0.01,29.47,0.02,44.21,0.03c2.54,0.51,5.14-0.19,7.68,0.39
		C103.01,104.55,103.16,104.55,103.31,104.56z"/>
	<path class="st76" d="M50.98,104.14c1.81,0.84,3.73,0.33,5.6,0.38c3.4,0.1,6.8,0.03,10.46,0.03c-0.57,1.54-1.98,2.18-2.63,3.38
		c-2.02-0.56-4.04-0.15-5.72,0.81c-3.47,1.98-7.45,3.2-10.15,6.4c-0.84-3.32,0.06-6.82-1.11-10.11c-0.28-0.78,0.32-0.94,0.94-0.94
		C49.24,104.09,50.11,104.12,50.98,104.14z"/>
	<path class="st74" d="M102.86,104.56c-2.56-0.18-5.16,0.46-7.68-0.39C97.75,104.28,100.35,103.65,102.86,104.56z"/>
	<path class="st77" d="M28.48,34.47c0.33-1.97-1.79-1.73-2.49-2.77c2.09-0.02,4.18-0.03,6.27-0.05c1.08,0.67,1.58,1.54,0.95,2.79
		c-1.13,0.03-2.26,0.07-3.39,0.1C29.37,34.52,28.92,34.5,28.48,34.47z"/>
	<path class="st4" d="M29.88,34.95c4.48,0.02,8.97,0.04,13.45,0.07c0.09,0.3,0.21,0.83-0.08,0.84
		C38.77,35.94,34.27,36.22,29.88,34.95z"/>
	<path class="st78" d="M54.8,64.3c1.52-1.42,2.6-1.26,4.18,0.54c1.22,1.4,1.69,2.68-0.37,3.73C55.96,68.31,55.05,67.28,54.8,64.3z"
		/>
	<path class="st62" d="M60.11,23.02c1.57,1.69,3.73,1.25,5.63,1.33c3.62,0.15,7.12,0.98,10.68,1.49c-5.66,0-11.33-0.08-16.99,0.04
		c-2.15,0.04-3.11-0.81-3.18-2.87C57.53,23.02,58.82,23.02,60.11,23.02z"/>
	<path class="st79" d="M33.21,34.44c-0.32-0.93-0.63-1.86-0.95-2.79c1.99-0.01,3.97-0.01,5.96-0.02c1.03-0.01,1.65,0.4,1.71,1.52
		c0.07,1.31-0.78,1.35-1.72,1.34C36.55,34.46,34.88,34.45,33.21,34.44z"/>
	<path class="st80" d="M97.05,39.34c-1.46-0.92-2.56-2.18-3.07-3.83c-0.65-2.11-0.71-4.11,1.66-5.32c4.47,0.13,7.23,3.96,5.43,7.37
		C100.14,39.35,98.69,39.43,97.05,39.34z"/>
	<path class="st48" d="M96.59,58.5c0.48-0.96,0.95-1.92,1.43-2.89c1.2,1.47,2.96,2.14,4.6,2.78c1.37,0.54,1.32,1.19,0.84,2.13
		c-0.64,1.27-1.04,2.67-2.06,3.73c-0.37-1.75-2-2.07-3.25-2.76c-0.67-0.37-1.52-0.41-2.03-1.08C96.27,59.78,96.43,59.14,96.59,58.5z
		"/>
	<path class="st81" d="M91.3,70.48c0.1-1.9-1.32-1.34-2.32-1.42c-6.73-0.54-12.56-3.45-18.18-6.89c-0.64-0.39-1.04-1.16-1.55-1.76
		c2.64-3.07,6.51-4.06,10.05-2.66c1.9,0.75,3.67,1.86,5.73,2.18c2.08,1.66,4.6,2.48,6.94,3.65c1.25,0.63,1.67,1.22,1.06,2.53
		C92.38,67.53,91.87,69.02,91.3,70.48z"/>
	<path class="st82" d="M85.03,59.93c-1.02,0.66-1.99,0.38-2.86-0.25c-4.01-2.92-7.96-2.64-11.9,0.14c-0.32,0.23-0.69,0.39-1.03,0.58
		c-0.83,0.01-1.44-0.43-1.99-0.98c-0.28-1.87-0.61-3.73-0.15-5.62c0.46-1.87-0.08-3.39-1.59-4.64c-0.91-0.75-1.77-1.6-2.46-2.57
		c-0.63-0.89-1.42-1.8-0.55-2.99c1.64-1.57,3.85-1.35,5.83-1.77c1.03-0.22,2-0.43,2.8-1.14c1.62-1.29,2.01-3.37,3.15-4.97
		c0.59-0.84,0.95-2,2.18-1.97c1.18,0.03,1.31,1.18,1.69,2.04c0.31,0.72,0.77,1.37,1.16,2.05c0.37,0.49,0.23,0.86-0.27,1.13
		c-1,0.1-1.39-0.67-1.75-1.34c-0.77-1.44-1.23-0.95-1.89,0.12c-1.08,1.73-1.71,3.75-3.29,5.17c-1.9,0.46-3.8,0.99-5.74,1.27
		c-0.42,0.06-1.02-0.06-0.93,0.7c0.14,0.28,0.31,0.52,0.48,0.77c0.13,0.2,0.24,0.44,0.42,0.58c3.25,2.46,4.51,5.53,3.2,9.57
		c-0.46,1.42,0.26,1.97,1.67,1.24c0.42-0.22,0.87-0.4,1.28-0.64c2.47-1.5,4.88-1.6,7.41-0.02c0.95,0.59,2.17,1.7,3.2,0.96
		c0.76-0.55,0.16-2.04-0.15-2.93c-1.28-3.6,1.09-5.64,3.08-7.89c0.52-0.71,1.19-1.26,1.81-1.86c0.8-0.22-0.25-2.21,1.47-1.54
		c0.68,0.73,0.67,1.39,0.12,2.28c-1.11,1.82-2.8,3.13-4.02,4.85c-1.8,2.01-0.09,4.16-0.15,6.24C85.24,57.67,85.79,58.82,85.03,59.93
		z"/>
	<path class="st83" d="M128.71,33.38c-0.13,0.86-0.71,1.38-1.55,1.43c-0.88,0.06-1.58-0.47-1.54-1.37c0.04-0.89,0.76-1.3,1.65-1.3
		C128.08,32.14,128.63,32.46,128.71,33.38z"/>
	<path class="st8" d="M124.9,41.69c-0.03-2.38-0.05-4.76-0.08-7.14C125.86,36.92,125.6,39.3,124.9,41.69z"/>
	<path class="st84" d="M83.16,84.46c0.3,1.79-0.87,3.44-0.49,5.23c-2.71,0-5.42,0.01-8.14,0c-0.45,0-1.07,0.13-1.2-0.46
		c-0.06-0.28,0.32-0.66,0.49-1C75.83,84.22,79.36,84,83.16,84.46z"/>
	<path class="st85" d="M62.51,43.6c-0.22,1.91,1.2,2.97,2.38,3.91c2.74,2.18,3.64,4.74,2.65,8.12c-0.35,1.19-0.2,2.53-0.28,3.8
		c-2.74-5.47-5.34-10.98-6.4-17.08c-0.15-0.86-0.26-1.71-0.27-2.57C61.22,41.05,61.87,42.33,62.51,43.6z"/>
	<path class="st86" d="M61.34,63.93c0.67,0.02,1.01,0.3,1.05,0.84c0.04,0.55-0.27,0.91-0.82,0.94c-0.55,0.04-0.88-0.31-0.94-0.84
		C60.56,64.3,60.96,64.07,61.34,63.93z"/>
	<path class="st87" d="M78.7,38.89c0.45-0.2,0.58-0.59,0.61-1.03c1.59,3.51,4.78,4.12,8.12,4.55c0.65,0.08,1.48-0.05,1.89,0.74
		c-1.29,0.14,0.24,1.69-0.94,1.88c-2.06-0.87-4.34-0.84-6.43-1.58C79.65,42.63,78.72,41.34,78.7,38.89z"/>
	<path class="st88" d="M94.12,38.96c0.94,0.23,1.56,0.8,1.51,1.82c-0.05,0.93-0.68,1.42-1.6,1.43c-1.03,0.01-1.73-0.47-1.69-1.56
		C92.36,39.58,93.19,39.22,94.12,38.96z"/>
	<path class="st71" d="M94.68,97.36c0.33,0.03,0.67,0.06,1,0.09c-2.54,0.89-5.16,0.28-7.74,0.36c0.01-0.15,0.01-0.29,0.01-0.44
		C90.19,96.2,92.43,96.27,94.68,97.36z"/>
	<path class="st89" d="M94.68,97.36c-2.25,0.01-4.49,0.01-6.74,0.02c-0.48,0-0.95-0.01-1.43-0.01c0.5-1.1,1.59-1.59,2.39-2.38
		c0.47-0.68,0.34-1.17-0.46-1.45c-0.58-0.39-1.47-0.71-1.14-1.55c0.27-0.69,1.14-0.33,1.75-0.35c0.8-0.03,1.59,0.04,2.39,0.07
		c0.18,0.46-0.04,1.01,0.31,1.42c0.31,0.27,0.69,0.33,1.08,0.4c0.31,0.06,0.59,0.19,0.8,0.43C94.54,94.92,94.67,96.13,94.68,97.36z"
		/>
	<path class="st90" d="M91.26,93.59c-0.79-0.71-0.21-1.29,0.19-1.89c0.57-0.01,1.15-0.02,1.72-0.03c0.62,0.67,1.26,1.33,0.47,2.29
		c-0.3,0.01-0.6,0.01-0.89,0.02C92.45,93.08,91.89,93.18,91.26,93.59z"/>
	<path class="st91" d="M88.44,93.54c0.58-0.28,1.28-0.7,1.62,0.14c0.4,0.98-0.42,1.18-1.16,1.31
		C88.34,94.64,88.47,94.06,88.44,93.54z"/>
	<path class="st92" d="M86.61,46.53c-0.13,0.29-0.19,0.7-0.41,0.84c-3.46,2.25-3.2,5.45-2.31,8.83c0.2,0.77,0.54,1.74-0.01,2.3
		c-0.74,0.76-1.53-0.24-2.05-0.59c-3.8-2.57-7.46-2.59-11.2,0.1c-1.05,0.75-1.9,0.79-1.88-0.99c0.03-3.13-1.79-8.81-3.5-11.42
		c0.96-0.53,1.51,0.24,1.96,0.78c1.21,1.47,2.76,2.25,4.57,2.62c1.27,1.06,2.42,2.25,3.56,3.44c0.7,0.73,1.28,0.72,1.97-0.04
		c1-1.1,1.88-2.35,3.35-2.91c1.44,0.07,2.52-0.53,3.49-1.59C84.77,47.2,85.32,46.12,86.61,46.53z"/>
	<path class="st93" d="M71.63,49.37c-3.09,0.37-4.13-2.73-6.38-3.78c-0.14-0.14-0.29-0.28-0.43-0.42c-0.21-1,0.47-1.14,1.21-1.31
		c1.25-0.28,1.57,0.68,2.3,2.07c-0.16-3.35,2.36-2.56,3.75-3.4c1.07-1.92,2.15-3.84,3.22-5.76c0.26-0.47,0.41-1.11,1.05-1.16
		c0.72-0.06,0.77,0.61,1.01,1.09c0.38,0.76,0.89,1.46,1.34,2.18c0.79,3.7,3.71,4.29,6.8,4.73c1.06,0.15,2.49-0.21,2.88,1.41
		c-0.59,0.5-1.18,1-1.77,1.5c-1.09,0.38-1.74,1.31-2.44,2.12c-0.95,1.11-1.98,1.64-3.42,1.2c-0.03-0.07-0.1-0.19-0.08-0.22
		c2.2-2.44,0.5-3.81-1.28-5.44c-3.12-2.85-3.03-2.94-5.96,0.09c-0.11,0.12-0.21,0.25-0.34,0.34C71.38,45.83,70.6,47.32,71.63,49.37z
		"/>
	<path class="st92" d="M72.08,42.53c-0.19,0.57-0.8,0.43-1.15,0.67c-0.65,0.44-2.68-0.19-1.49,1.89c0.32,0.56-0.61,1.24-1.37,1.32
		c-0.62,0.06-0.96-0.32-1.12-0.99c-0.4-1.75-0.53-1.75-2.14-0.26c-1.01-0.85-0.69-1.29,0.45-1.48
		C67.54,43.3,69.81,42.92,72.08,42.53z"/>
	<path class="st94" d="M91.26,93.59c0.16-0.69,0.26-1.59,1.25-1.3c1.04,0.31,0.62,1.06,0.23,1.69
		C92.21,93.99,91.62,94.23,91.26,93.59z"/>
	<path class="st95" d="M71.63,49.37c-1.94-1.58-1.68-2.94,0.26-4.39c1.26-0.94,2.27-2.19,3.16-3.53c0.84-1.26,1.83-1.47,2.72,0.03
		c0.91,1.53,2.15,2.85,3.59,3.75c1.95,1.22,2,2.17,0.29,3.51c-0.36,0.28-0.59,0.73-0.88,1.1c-1.04,0.98-2.31,1.81-3.06,2.98
		c-0.98,1.53-1.66,1.34-2.68,0.17C73.93,51.76,72.76,50.58,71.63,49.37z"/>
</g>
</svg>
