<?xml version="1.0" encoding="utf-8"?>
<!-- Generator: Adobe Illustrator 23.0.2, SVG Export Plug-In . SVG Version: 6.00 Build 0)  -->
<svg version="1.1" id="Camada_1" xmlns="http://www.w3.org/2000/svg" xmlns:xlink="http://www.w3.org/1999/xlink" x="0px" y="0px"
	 viewBox="0 0 62.5 62.6" style="enable-background:new 0 0 62.5 62.6;" xml:space="preserve">
<style type="text/css">
	.st0{fill:#323232;}
	.st1{fill:#FEFEFE;}
	.st2{fill:#00C8F6;}
	.st3{fill:#00689D;}
	.st4{fill:#CA5600;}
	.st5{fill:#79EAFC;}
	.st6{fill:#7AEAFD;}
	.st7{fill:#6BE7FD;}
	.st8{fill:#74E9FE;}
	.st9{fill:#FEBB00;}
	.st10{fill:#FD9100;}
	.st11{fill:#FCDE7E;}
	.st12{fill:#FCDE7F;}
	.st13{fill:#FE9101;}
	.st14{fill:#FE9100;}
	.st15{fill:#FC9000;}
	.st16{fill:#FCD86C;}
</style>
<g>
	<path class="st0" d="M31.2,62.6C13.7,62.3-0.1,48.8,0,31.1C0.1,13.6,13.8-0.2,31.7,0c17.3,0.2,31.2,13.8,30.9,31.9
		C62.2,49.1,48.8,62.3,31.2,62.6z"/>
	<path class="st1" d="M31.3,5.7c14-0.2,25.7,11.6,25.6,25.8c-0.1,13.9-11.8,25.6-26.1,25.3c-13.5-0.3-25.4-11.7-25-26.3
		C6,17,17.4,5.5,31.3,5.7z"/>
	<path class="st2" d="M51.5,22.5c2.3,4.3,2.5,9,1.5,13.6C49.5,51.3,32.5,58.3,19.3,50c-2.3-1.5-4.4-3.3-5.9-5.6
		c-2.8-7.2-1.7-13.9,2.5-20.3c0.3-0.4,0.5-0.8,1-0.9c0.7,0.4,0.6,1.2,0.8,1.8c0.2,0.8,0.3,1.6,0.4,2.4c0.3,1.7,1.5,2.4,3.2,1.9
		c1.1-0.4,3.1,0.6,3.5,1.7c0,0.1,0.1,0.2,0,0.3c-0.1,0.8-2.3,2.2-3.2,2c-2.3-0.7-3.2-0.1-3.6,2.2c-0.2,1.4-0.3,2.8-1,4.2
		c-0.2,0.2-0.6,0.1-0.8,0.3c0.1,0.4,0.7,0.2,0.8,0.7c0,1.2-0.3,2.5,0.2,3.7c0.9,1.7,2.4,2.7,4.3,3.1c1,0.3,1.5-0.1,1.6-1.1
		c0-0.3,0-0.6,0.2-0.8c1.2-0.3,2.4-0.3,3.7-0.4c1.6-0.1,2.4-1.1,2.1-2.7c-0.1-0.5-0.5-1.1,0-1.6c0.7-0.7,1.4-1.5,2.4-2
		c0.3-0.1,0.6,0,0.8,0.2c0.6,0.5,1.2,0.9,1.7,1.5c0.4,0.4,0.5,0.9,0.4,1.5c-0.5,2.1,0.2,2.9,2.4,3.1c2.2,0.2,4.4,0.2,6.6,0.2
		c2.2,0,3.3-1.1,3.1-3.3c-0.2-2.5-0.8-5-1.3-7.4c-0.3-1.4-1.5-1.9-3-1.5c-1.3,0.4-3-0.5-3.5-1.6c-0.1-0.2-0.1-0.3,0-0.5
		c0.3-1,2.3-2.1,3.3-1.8c1.9,0.6,2.9,0,3.4-2c0.2-0.7,0-1.5,0.7-2.1c1.8-0.6,2.1-1.2,1.4-3.1c-0.2-0.6-0.6-1.2-0.8-1.8
		c-0.1-0.5-0.2-1.1-0.1-1.6c0.5-0.5,0.9-0.1,1.2,0.2C49.1,19.8,50.5,20.9,51.5,22.5z"/>
	<path class="st3" d="M16.9,23.2c-2.6,3.1-4,6.7-4.5,10.7c-0.5,3.3-0.1,6.6,0.9,9.8c0.1,0.2,0.1,0.5,0.1,0.7
		c-2.7-3.3-4-7.1-4.3-11.3C8.6,26,10.9,20,16.1,15c6-5.7,15.7-7.6,23.4-4.5c4.8,2,8.5,5.2,11.2,9.6c0.4,0.7,0.8,1.4,0.9,2.3
		c-1.2-0.9-2.1-2.2-3.4-3.1c-0.5-0.4-1-0.8-1.6-1c-1.1-0.6-2-1.5-3.3-1.6c-5.4-2.4-10.9-2.5-16.4-0.5c-0.6,0.2-1.1,0.4-1.7,0.7
		c-1.7,0.3-3.4,0.1-5.1,0.1c-2.2,0.1-3.2,1.2-3.1,3.3C16.9,21.4,17.4,22.3,16.9,23.2z"/>
	<path class="st4" d="M43.4,16.7c1.4-0.1,2.3,0.7,3.1,1.7c0.1,0.6,0.2,1.2,0.3,1.8c0.2,1.7-0.1,3.4-0.8,4.9
		c-0.2,0.8-0.3,1.5-0.5,2.3c-0.4,2.1-2.2,3-4,1.8c-0.4-0.2-0.6-0.2-0.9,0c-0.7,0.6-1.3,1.2-2,1.8c0.6,0.6,1.3,1.2,1.9,1.8
		c0.4,0.3,0.6,0.3,1.1,0c1.6-1,3.5-0.2,3.9,1.7c0.5,2.3,0.8,4.5,1.3,6.8c0.5,2.6-1.4,4.4-3.7,4.2c-2.2-0.2-4.5-0.1-6.7-0.3
		c-2.1-0.2-3.1-1.7-2.3-3.6c0.2-0.6,0.2-0.8-0.3-1.2c-2.2-2-2.3-2-4.5,0.2c-0.3,0.3-0.2,0.6-0.1,0.9c0.8,2-0.2,3.5-2.3,3.7
		c-1.2,0.1-2.5,0.2-3.7,0.2c-2.2,0.9-4.8,0.4-6.3-1.3c-0.6-1.3-0.4-2.7-0.2-4c-0.2-0.3-0.2-0.5,0.1-0.7c0.4-1.4,0.7-2.9,0.9-4.4
		c0.3-2.4,2-3.3,4.1-2.1c0.4,0.2,0.7,0.1,0.9-0.1c0.7-0.6,1.8-1.2,1.8-1.8c0-0.8-1.2-1.2-1.8-1.9c-0.3-0.2-0.5-0.3-0.9-0.1
		c-2.1,1.1-3.7,0.2-4.1-2c-0.2-1.3-0.4-2.7-0.8-4c-0.1-0.7-0.2-1.4-0.4-2.1c-0.7-2.6,1.2-4.7,3.6-4.5c1.7,0.2,3.3,0,5,0
		c0.4-0.2,0.8-0.1,1.2-0.1c2.8,0.1,3.7,1,3.3,3.8c-0.2,1.3,1,1.5,1.6,2.2c0.6,0.6,1-0.1,1.4-0.4c0.8-0.5,1.2-1.1,0.9-2.2
		c-0.4-2,0.7-3.2,2.7-3.3c1.7-0.1,3.4-0.3,5.1-0.2C42.1,16.4,42.8,16.5,43.4,16.7z"/>
	<path class="st5" d="M16.9,44.3c1.8,1.9,4.2,1,6.3,1.3c0.2,0.6,0.4,1.2-0.2,1.7c-0.5,0.5-1.1,0.5-1.8,0.3
		C19.4,47,17.8,46.1,16.9,44.3z"/>
	<path class="st6" d="M46,25.1c0-1.7,0.6-3.3,0.8-4.9c0.6,0.9,1.1,1.9,1.1,3.1C48,25,47.8,25.2,46,25.1z"/>
	<path class="st7" d="M47.9,28.1c0.4,0.1,0.8,0.3,0.8,0.7c0,0.4-0.3,0.7-0.7,0.6c-0.4-0.1-0.8-0.2-0.7-0.7
		C47.2,28.3,47.5,28.1,47.9,28.1z"/>
	<path class="st8" d="M16.8,39.6c0,0.2-0.1,0.5-0.1,0.7c-0.4,0.2-0.8,0.1-1-0.3c-0.1-0.1-0.1-0.3,0-0.4
		C16.1,39.3,16.4,39.3,16.8,39.6z"/>
	<path class="st2" d="M43.4,16.7c-2.2,0.1-4.5,0.1-6.7,0.2c-2.5,0.2-3.4,1.4-2.6,3.8c0.1,0.4,0.1,0.6-0.2,0.8
		c-0.7,0.6-1.3,1.1-2,1.7c-0.1,0.1-0.1,0.2-0.2,0.1c-1.1-0.3-1.6-1.4-2.5-1.9c-0.4-0.2-0.3-0.5-0.1-0.9c0.8-2.1-0.2-3.6-2.4-3.7
		c-0.6,0-1.1,0-1.6-0.2c3.5-1.8,7.2-2.4,11.1-2c2.2,0.2,4.4,0.6,6.5,1.6C43,16.4,43.2,16.5,43.4,16.7z"/>
	<path class="st9" d="M24.7,27.6c-0.2-0.2-0.4-0.3-0.6-0.5c-1.8-1.7-1.8-1.7-3.7-0.1c-0.4-2.4-0.8-4.6-1.2-6.9
		c1.6,0.2,3.2,0.1,4.8,0.1c0.9,0,1.7-0.2,2.4-0.6c0.7,0.1,0.2,0.4,0,0.6c-0.9,1.1-0.9,1.4,0.2,2.4c0.7,0.6,1.4,1.2,2.2,1.8
		c0.3,0.4,0,0.6-0.2,0.8c-1.1,0.8-2.2,1.5-3.2,2.3C25.1,27.7,24.9,27.7,24.7,27.6z"/>
	<path class="st9" d="M39.6,35.7c0.3,0,0.5,0.2,0.7,0.4c0.7,0.7,1.3,0.7,1.9-0.2c0.1-0.2,0.4-0.5,0.6-0.5c0.4,0,0.3,0.5,0.4,0.8
		c0.3,1.9,0.7,3.8,1,5.7c-0.1,0.7-0.7,0.6-1.1,0.5c-1.4-0.1-2.9-0.2-4.3-0.5c-0.8-0.1-1.1-0.5-0.8-1.3c0.3-0.7,0-1.3-0.5-1.8
		c-0.9-0.8-2-1.3-3.1-1.8c-0.2-0.2-0.2-0.4-0.1-0.6c0.2-0.3,0.4-0.6,0.6-0.9c1.4-1.8,1.4-1.8,3.3-0.5C38.6,35.4,39,35.8,39.6,35.7z"
		/>
	<path class="st9" d="M44.1,20.3c-0.4,2.2-0.8,4.4-1.2,6.7c-2.1-1.6-2.1-1.6-3.9,0.2c-0.3,0.3-0.6,0.5-0.9,0.8
		c-0.3,0.2-0.6,0.1-0.9-0.2c-0.8-0.9-1.8-1.8-2.4-2.9c0.1-0.6,0.5-0.9,0.9-1.2c0.2-0.2,0.5-0.4,0.7-0.6c2.9-2.9,1.9-2.5,6-2.5
		C43.1,20.8,43.6,20.4,44.1,20.3z"/>
	<path class="st9" d="M20.3,35.7c0.3-0.8,0.5-0.1,0.6,0.1c0.7,1,1.4,0.9,2.2,0.2c0.9-0.8,1.8-1.5,2.7-2.3c0.5-0.5,1.1-0.5,1.6,0
		c0.6,0.8,1.4,1.4,1.8,2.3c-0.4,0.9-1.3,1.2-1.9,1.8c-0.4,0.3-0.8,0.6-1.2,0.9c-0.6,0.5-0.8,0.9-0.2,1.6c-0.3,0.6-0.1,1.2,0.2,1.7
		c-0.3,0.5-0.8,0.6-1.2,0.6c-1.5,0-3,0.1-4.5-0.1c-0.2-0.1-0.5-0.2-0.4-0.5c0.3-1.5,0.3-3.1,1.8-4.1c1.4-0.9,2.7-1.8,4-2.8
		c0.3-0.2,0.7-0.4,1-1c-0.8,0.3-1.3,0.7-1.7,1.1c-0.5,0.4-0.9,0.9-1.5,1.2C22.2,37.4,21.1,37.1,20.3,35.7z"/>
	<path class="st2" d="M31.5,34.9c-0.1-0.1-0.3-0.2-0.4-0.4c-1-1-2-2-3-2.9c-0.4-0.4-0.4-0.7,0-1.1c1-1,2-2,3-3
		c0.3-0.3,0.6-0.5,1-0.1c1,1,2,2,3,3c0.2,0.2,0.4,0.4,0.1,0.8c-1.1,1.1-2.2,2.3-3.3,3.4C31.7,34.8,31.6,34.8,31.5,34.9z"/>
	<path class="st10" d="M34.3,36.9c1.6,0.2,2.8,1.3,4,2.3c0.5,0.5,0.5,1.2,0,1.7c-0.2,0.3-0.4,0.7,0.2,0.8c1.7,0.2,3.4,0.5,5.2,0.5
		c0.2,0,0.3-0.2,0.5-0.2c0.4,0.9-0.2,1.3-0.9,1.1c-1.9-0.3-3.9-0.1-5.8-0.2c-0.3,0-0.7,0.2-0.9-0.2c-0.1-0.3,0.2-0.5,0.4-0.7
		c0.7-0.8,0.6-1.5-0.1-2.2c-0.8-0.7-1.7-1.4-2.6-2.1c-0.7-0.6-1-1.1-0.3-1.9c0.6-0.7,1.2-1.5,1.9-2c0.3,0.6-0.2,0.9-0.5,1.3
		C35,35.6,34.2,36,34.3,36.9z"/>
	<path class="st11" d="M20.3,35.7c1.8,1.4,2.3,1.3,4.1-0.3c0.6-0.5,1.2-1,1.8-1.6c0.3-0.3,0.6-0.4,0.9-0.1c0.4,0.4,0,0.7-0.3,0.9
		c-1.4,1-2.8,2.1-4.3,3c-1.1,0.7-1.9,1.5-2,2.8c-0.1,0.6-0.3,1.1-0.4,1.7c0.2,0.4,0.2,0.8-0.3,0.8c-0.4,0-0.8-0.3-0.7-0.9
		c0.2-1.3,0.4-2.5,0.7-3.8c0.1-0.5,0.1-0.9,0.2-1.4C20.2,36.5,20.3,36.1,20.3,35.7z"/>
	<path class="st12" d="M44.1,20.3c-0.2,0.5-0.6,0.8-1.3,0.7c-2.5-0.4-4.6,0.3-6.2,2.4c-0.5,0.6-1.3,0.9-1.7,1.6
		c0,0.2-0.1,0.4-0.3,0.5c-0.3,0.2-0.6,0.5-0.9,0.2c-0.3-0.3,0-0.6,0.3-0.8c0.7-0.5,1.3-1.2,2-1.7c1.7-1.2,1.8-1.9,0.8-3.7
		c2-0.3,4.1,0.1,6-0.2C43.6,19.3,44.3,19.3,44.1,20.3z"/>
	<path class="st13" d="M42.9,19.4c-1.2,0.5-2.5,0.1-3.8,0.2c-0.7,0.1-1.3,0-2.1,0c1,1.8,0.7,2.7-0.8,3.8c-0.9,0.7-1.8,1.3-2.5,2.3
		c0.7,0.1,0.9-0.5,1.3-0.6c0.8,0.6,1.4,1.3,2,2c0.3,0.4,0.6,0.8,1.2,0.9c-1.6,1.3-1.6,1.3-3-0.3c-1.9-2.1-1.9-2.1,0.1-4
		c0.5-0.5,1-0.9,1.5-1.3c0.8-0.7,0.9-1.5,0.1-2.3c-0.2-0.2-0.4-0.3-0.3-0.6c0.1-0.4,0.5-0.2,0.7-0.2C39.1,19.4,41,19.4,42.9,19.4z"
		/>
	<path class="st14" d="M24.7,27.6c1.4-1,2.9-1.8,4.1-3.1c1.2,1,1.2,1.2,0.3,2.4c-0.2,0.2-0.4,0.5-0.6,0.7
		C26.7,29.5,26.7,29.5,24.7,27.6z"/>
	<path class="st12" d="M26.4,19.6c-0.3,0.7-0.9,1-1.7,1c-1.4,0-2.9,0-4.3,0c-0.5,0-0.9,0-1.2-0.5c0-0.9,0.6-0.7,1.2-0.7
		C22.3,19.5,24.3,19.5,26.4,19.6z"/>
	<path class="st14" d="M25.9,40.3c-0.3-0.3-0.6-0.5-1.2-0.3c1.3-1.8,3-2.8,4.6-4.1c0.8,0.6,0.4,1.2-0.1,1.6
		C28.1,38.5,27,39.4,25.9,40.3z"/>
	<path class="st15" d="M20.1,36.9c0.1,1.4-0.5,2.7-0.6,4.1c0,0.4-0.1,0.8-0.2,1.2c-0.1,0.4,0.2,0.6,0.5,0.7c0.4,0,0.3-0.4,0.4-0.6
		c2-0.1,4,0.2,6-0.2c0.3,0.2,0.6,0.4,0.8,1c-1.1,0-2,0-3,0c-1.3,0-2.6-0.1-3.9,0.2c-0.6,0.1-1.2-0.2-1.1-0.9
		C19.4,40.4,19.4,38.6,20.1,36.9z"/>
	<path class="st16" d="M34.3,36.9c-0.7,0-0.4-0.3-0.2-0.7c0.5-0.9,1.5-1.4,1.9-2.5c0.5-0.5,0.9-0.5,1.5-0.1c0.8,0.6,1.5,1.2,2.2,2
		c0,0.2,0.3,0.7-0.3,0.4c-0.8-0.3-1.5-0.9-2.2-1.4c-0.4-0.4-0.8-0.4-1.1,0.1C35.5,35.5,34.8,36.2,34.3,36.9z"/>
</g>
</svg>
