<?xml version="1.0" encoding="utf-8"?>
<!-- Generator: Adobe Illustrator 23.0.2, SVG Export Plug-In . SVG Version: 6.00 Build 0)  -->
<svg version="1.1" id="Camada_1" xmlns="http://www.w3.org/2000/svg" xmlns:xlink="http://www.w3.org/1999/xlink" x="0px" y="0px"
	 viewBox="0 0 97.33 98.77" style="enable-background:new 0 0 97.33 98.77;" xml:space="preserve">
<style type="text/css">
	.st0{opacity:0.5;fill:#A09D9B;}
	.st1{fill:#B7B5B3;}
	.st2{fill:#FEFEFE;}
	.st3{fill:#DCDBDB;}
</style>
<g>
	<path class="st0" d="M18.85,0c19.2,0,38.4,0,57.6,0c3.66,0.86,6.84,2.82,10.07,4.59c2.45,1.35,4.37,3.43,5.63,6.03
		c1.25,2.59,2.51,5.17,3.86,7.7c0.83,1.56,1.04,3.23,1.2,4.94c0,16.88,0,33.76,0,50.64c-0.22,1.69-0.44,3.37-1.28,4.92
		c-1.24,2.28-2.35,4.64-3.51,6.96c-1.65,3.31-4.2,5.71-7.42,7.43c-2.54,1.35-5.16,2.55-7.71,3.89c-2.22,1.16-4.6,1.64-7.05,1.64
		c-14.88,0.04-29.76,0.04-44.64,0c-2.44-0.01-4.83-0.46-7.04-1.62c-2.52-1.31-5.09-2.52-7.61-3.83c-3.39-1.76-6.06-4.26-7.72-7.76
		c-0.75-1.59-1.57-3.15-2.35-4.73c-0.58-1.16-0.87-2.39-0.87-3.7C0.01,58.03,0.01,38.95,0,19.88c0-0.98,0.08-1.97,0.49-2.81
		c1.57-3.18,2.83-6.54,5.06-9.37c1.28-1.63,2.89-2.88,4.67-3.89C12.1,2.74,14.08,1.87,16,0.88C16.91,0.41,17.93,0.38,18.85,0z"/>
	<path class="st1" d="M97.13,22.74c0.08-0.03,0.15-0.01,0.2,0.06c0,17.12,0,34.24,0,51.36l-0.09,0.07c0,0-0.11-0.01-0.11-0.01
		c-0.01-2.71-0.04-5.43-0.04-8.14c0-13.81,0-27.62,0-41.43C97.09,24.02,97.12,23.38,97.13,22.74z"/>
	<path class="st2" d="M13.61,70.07c0-14.36-0.13-28.72,0.07-43.08c0.05-3.55,0.76-7.19,3.6-9.98c2.14-2.1,4.71-3.09,7.55-3.11
		c15.2-0.08,30.4-0.1,45.6,0c4.3,0.03,7.75,2.05,10.07,5.72c0.75,1.18,0.67,2.7,1.12,4.03c0.62,1.81,0.55,3.69,0.55,5.57
		c0,13.16-0.03,26.32,0.02,39.48c0.01,2.82-0.63,5.51-1.56,8.07c-0.9,2.46-3.02,4.17-5.43,5.14c-2.02,0.81-4.21,1.12-6.45,1.11
		c-14.32-0.06-28.64,0.03-42.96-0.06c-4.12-0.03-7.75-1.45-10.08-5.17c-1.12-1.46-1.01-3.3-1.54-4.94
		C13.89,71.94,13.86,70.98,13.61,70.07z"/>
	<path class="st3" d="M13.61,70.07c0.85,1.23,0.66,2.74,1.03,4.1c0.33,1.22,0.65,2.43,1.08,3.62c-0.4-0.23-0.68-0.57-0.76-1.01
		C14.52,74.53,13.56,72.4,13.61,70.07z"/>
</g>
</svg>
