<?xml version="1.0" encoding="utf-8"?>
<!-- Generator: Adobe Illustrator 23.0.2, SVG Export Plug-In . SVG Version: 6.00 Build 0)  -->
<svg version="1.1" id="Camada_1" xmlns="http://www.w3.org/2000/svg" xmlns:xlink="http://www.w3.org/1999/xlink" x="0px" y="0px"
	 viewBox="0 0 62.5 62.6" style="enable-background:new 0 0 62.5 62.6;" xml:space="preserve">
<style type="text/css">
	.st0{fill:#323232;}
	.st1{fill:#FEFEFE;}
	.st2{fill:#00C8F6;}
	.st3{fill:#00689D;}
	.st4{fill:#CA5600;}
	.st5{fill:#FEBB00;}
	.st6{fill:#FE9000;}
	.st7{fill:#FCDE80;}
	.st8{fill:#7AEBFE;}
	.st9{fill:#6BE7FD;}
	.st10{fill:#64E5FD;}
	.st11{fill:#FCDF83;}
	.st12{fill:#CB5700;}
	.st13{fill:#FEC628;}
</style>
<g>
	<path class="st0" d="M31.3,0c17.5,0.3,31.3,13.8,31.2,31.6c-0.1,17.4-13.8,31.2-31.7,31C13.6,62.4-0.3,48.8,0,30.8
		C0.3,13.6,13.7,0.2,31.3,0z"/>
	<path class="st1" d="M31.3,5.8c14-0.2,25.7,11.6,25.6,25.8c-0.1,13.9-11.8,25.6-26.2,25.3c-13.5-0.3-25.4-11.7-25-26.3
		C6,17,17.4,5.6,31.3,5.8z"/>
	<path class="st2" d="M51.5,22.5c2.3,4.4,2.4,9,1.5,13.7c-0.5,2.4-1.4,4.7-2.7,6.8c-0.5,0.2-0.9-0.2-1.3-0.4c-2-1.2-4.2-2-6.4-2.6
		c-1.6-0.5-1.6-0.6-0.7-2c3.8-5.5,3.1-12.6-1.7-17.2c-7-6.6-18.9-3.3-21.4,6.1c-1.1,4-0.4,7.6,1.9,11c0.1,0.2,0.2,0.3,0.3,0.5
		c0.6,0.9,0.5,1.2-0.6,1.5c-1.5,0.5-3,0.9-4.4,1.6c-0.6,0.3-1.1,0.6-1.7,0.9c-0.4,0.2-0.9,0.6-1.5,0.4c-0.9-2.4-1.1-4.8-0.9-7.3
		c0.3-4,1.5-7.8,3.9-11.2c3.7-5.3,8.7-8.6,15-9.6c7.5-1.2,14,1.1,19.4,6.3C50.8,21.4,51.1,22,51.5,22.5z"/>
	<path class="st3" d="M51.5,22.5c-1.5-1.3-2.8-2.8-4.5-3.9c-8-5.5-18.2-5.4-25.9,0.5c-5.1,3.8-8,8.9-8.8,15.2
		c-0.4,2.9,0,5.6,0.6,8.4c0.3,0.4,0.4,0.9,0.2,1.3c-2-2.4-3.1-5.3-3.6-8.3C6.9,22.7,15.8,10.6,29,9.2c8.8-1,17.7,3.7,21.9,11.6
		C51.2,21.3,51.4,21.9,51.5,22.5z"/>
	<path class="st4" d="M13.1,44c-0.1-0.4-0.3-0.9-0.2-1.3c1.4-0.7,2.6-1.5,4.1-2c1.4-0.5,2.8-1,4.3-1.5c-2.8-3.4-4-7.3-3-11.7
		c0.7-3.2,2.3-5.7,4.9-7.7c5.1-4,12.4-3.6,17.2,0.7c4.3,3.9,6.6,11.7,1,18.7c3.2,0.8,6.2,2,9,3.7c-0.4,0.7-0.8,1.4-1.4,1.9
		c-0.4,0.2-0.8-0.1-1.1-0.3c-2.3-1.3-4.7-2.2-7.2-2.8c-1-0.2-1.8-0.2-2.7,0.4c-0.6,0.4-1.3,0.7-1.9,1c-4,1.4-7.9,1-11.5-1.1
		c-0.7-0.4-1.4-0.4-2.2-0.1c-2.4,0.8-5,1.4-7.2,2.8c-0.4,0.2-0.7,0.5-1.2,0.4C13.5,44.8,13.2,44.5,13.1,44z"/>
	<path class="st5" d="M22,41.7c1-0.5,1.8-0.3,2.7,0.2c3.2,1.9,6.7,2.2,10.4,1.2c0.3-0.1,0.5-0.1,0.8-0.2c1.6,0,2.9,0.8,4,1.8
		c1.7,1.4,3.2,2.9,4.6,4.5c-7.1,5.6-17.9,5.7-25.5,0.8c-1.4-0.9-2.7-1.9-3.8-3.2c-0.1-0.4,0.2-0.6,0.4-0.8c2.2-1.4,4.2-3.1,6.6-4
		c0.1,0,0.1,0,0.2,0C22.3,41.9,22.1,41.9,22,41.7z"/>
	<path class="st6" d="M44.5,49.2c-0.9-0.3-1.4-1.1-2-1.8c-1.9-2-3.9-3.8-6.6-4.5c0.9-0.5,1.8-1,2.7-1.5c0.4-0.2,0.8-0.1,1.2,0
		c3.2,0.7,6.2,1.8,9.1,3.5C47.7,46.6,46.2,48,44.5,49.2z"/>
	<path class="st7" d="M22,41.7c0.2,0,0.4,0.1,0.8,0.1c-2.7,1.6-5.2,3.1-7.5,5c-0.6-0.5-1.2-0.9-1.4-1.7C16.4,43.5,19.2,42.5,22,41.7
		z"/>
	<path class="st8" d="M48,23.5c0,0.7,0.1,1.4-0.8,1.6c-0.8,0.2-1.4-0.1-1.8-0.8c-0.6-1-1.2-2-1.4-3.1c-0.1-0.6-0.1-1.2,0.5-1.6
		c0.6-0.4,1.3-0.2,1.8,0.1C47.5,20.7,47.9,22.1,48,23.5z"/>
	<path class="st9" d="M48,29.5c-0.4-0.1-0.8-0.2-0.8-0.7c0-0.4,0.2-0.7,0.6-0.7c0.4,0,0.8,0.3,0.8,0.7C48.7,29.2,48.4,29.4,48,29.5z
		"/>
	<path class="st10" d="M15.6,39.9c0-0.3,0.3-0.5,0.5-0.5c0.4,0,0.7,0.2,0.7,0.6c0.1,0.3-0.2,0.5-0.5,0.5
		C16,40.5,15.7,40.2,15.6,39.9z"/>
	<path class="st5" d="M27.8,20.6c3-1.5,7.6-0.7,10.3,1.8c2.4,2.1,3.6,4.8,3.6,8c-0.3,0.7-0.9,1.1-1.5,1.5c-3.8,2.8-8.1,4.7-12.9,5.4
		c-1.3,0.2-2.6,0.4-3.9-0.2c-0.5-0.4-0.8-0.9-1-1.4c-0.5-1.8-0.6-3.7-0.5-5.6c0.1-1.7,0.6-3.4,1.4-4.9c0.6-1,0.9-1,1.5-0.1
		c0.5,0.7,1.1,0.9,2,0.8c0.3-0.1,0.6-0.2,0.9-0.3c0.8-0.4,1.8-0.9,1.7-1.9c0-1.1-1-1.4-1.9-1.7c-0.2-0.1-0.3-0.2-0.4-0.4
		c0.3-0.9,1.3-0.7,1.8-1.2C28.6,20.7,28.2,21.1,27.8,20.6z"/>
	<path class="st6" d="M23.5,37.2c6.2,0.3,11.5-2,16.4-5.3c0.6-0.4,1-1.1,1.8-1.4c0.1,4-2.7,8.2-6.5,9.6
		C30.8,41.7,26.2,40.6,23.5,37.2z"/>
	<path class="st11" d="M27.6,21.9c0.9-0.1,1.5,0.4,2.1,1c0.5,0.6,0.5,1.3,0,1.8c-0.9,1-2,1.6-3.3,1.7c-1.2,0.1-1.8-0.6-2-1.9
		c-1.3,1.7-1.9,3.5-2,5.5c-0.1,1.7-0.1,3.4,0.3,5.1c0.1,0.3,0.2,0.5-0.2,0.7c-3.3-5.9-1-12.6,5.3-15.1c0.5-0.1,1-0.1,1.8-0.2
		c-0.9,0.5-1.6,0.9-2.3,1.2c-0.2,0.4-0.6,0.5-0.7,0.6C26.8,22.1,27.2,22,27.6,21.9z"/>
	<path class="st12" d="M27.1,30.4c0-0.6,0-1.1,0-1.7c0-0.5,0.2-0.8,0.8-0.9c0.5-0.1,0.9,0.1,1,0.6c0.3,1.3,0.2,2.6,0,3.9
		c-0.1,0.5-0.4,0.8-1,0.7c-0.5-0.1-0.8-0.4-0.8-0.9C27,31.6,27.1,31,27.1,30.4C27.1,30.4,27.1,30.4,27.1,30.4z"/>
	<path class="st12" d="M34,30.4c0-0.6,0-1.1,0-1.7c0-0.4,0.2-0.8,0.7-0.9c0.5-0.1,0.9,0,1.1,0.5c0.4,1.4,0.3,2.8,0,4.1
		c-0.1,0.4-0.5,0.6-0.9,0.6c-0.5-0.1-0.8-0.4-0.8-0.9C34,31.6,34,31,34,30.4C34,30.4,34,30.4,34,30.4z"/>
	<path class="st13" d="M27.6,21.9c-0.6,0.4-1.1,0.8-1.7,1.2c0.3-0.7,0.9-1.1,1.5-1.4C27.4,21.7,27.5,21.8,27.6,21.9z"/>
</g>
</svg>
