<?xml version="1.0" encoding="utf-8"?>
<!-- Generator: Adobe Illustrator 23.0.2, SVG Export Plug-In . SVG Version: 6.00 Build 0)  -->
<svg version="1.1" id="Camada_1" xmlns="http://www.w3.org/2000/svg" xmlns:xlink="http://www.w3.org/1999/xlink" x="0px" y="0px"
	 viewBox="0 0 102.76 102.84" style="enable-background:new 0 0 102.76 102.84;" xml:space="preserve">
<style type="text/css">
	.st0{fill:#323232;}
	.st1{fill:#B15605;}
	.st2{fill:#ED8C12;}
	.st3{fill:#FEFEFD;}
	.st4{fill:#FEFCF7;}
	.st5{fill:#FEF35C;}
	.st6{fill:#ED8D12;}
	.st7{fill:#FEE257;}
	.st8{fill:#FDE457;}
	.st9{fill:#F1CC52;}
	.st10{fill:#FEBA0B;}
	.st11{fill:#FEBB0B;}
	.st12{fill:#996819;}
	.st13{fill:#ECB728;}
	.st14{fill:#9A6819;}
	.st15{fill:#FED721;}
	.st16{fill:#FEE33C;}
	.st17{fill:#CC8E0E;}
	.st18{fill:#9A6207;}
	.st19{fill:#9B6307;}
	.st20{fill:#9A6717;}
	.st21{fill:#FEEE40;}
	.st22{fill:#C98109;}
	.st23{fill:#FCD33B;}
	.st24{fill:#996106;}
	.st25{fill:#FEEC25;}
	.st26{fill:#FED024;}
	.st27{fill:#B8800A;}
	.st28{fill:#AF7E20;}
	.st29{fill:#A06E1B;}
	.st30{fill:#A4721B;}
	.st31{fill:#8F5D0F;}
	.st32{fill:#8D5705;}
</style>
<g>
	<path class="st0" d="M44.64,0c4.44,0,8.88,0,13.32,0c1.21,0.45,2.48,0.05,3.72,0.27c7.7,1.33,14.6,4.43,20.86,9.08
		C88.96,14.11,94.11,20,97.68,27.09c2.79,5.54,5.02,11.3,5.01,17.78c-0.01,5.26,0.3,10.55-0.26,15.78
		c-0.5,4.65-2.21,9.07-4.24,13.27c-4.9,10.14-12.47,17.78-22.31,23.19c-2.9,1.6-6.06,2.54-9.14,3.72
		c-6.83,2.63-13.89,2.02-20.92,1.74c-9.19-0.36-17.19-3.99-24.72-9.1C13.62,88.41,8.28,81.55,4.28,73.69
		c-2.36-4.63-4.47-9.58-4.1-15.07c0.02-0.24,0-0.48-0.18-0.67c0-4.56,0-9.12,0-13.68c0.44-1.09,0.07-2.23,0.26-3.35
		c0.94-5.47,3.05-10.52,5.56-15.41c1.99-3.87,4.67-7.31,7.69-10.33C19.05,9.65,25.31,5.11,32.83,2.46C36.69,1.11,40.54,0.04,44.64,0
		z"/>
	<path class="st1" d="M49.2,8.56c12.68,0,21.85,3.35,29.78,10.07c10.56,8.95,15.46,20.53,14.91,34.18
		C93.01,74.66,75.71,94.16,49.9,93.84c-11.05-0.13-20.78-4.63-28.59-12.57c-9.3-9.45-13.9-20.87-12.59-34.2
		c0.87-8.91,4.36-16.85,10.25-23.74C27.37,13.49,39.89,8.2,49.2,8.56z"/>
	<path class="st2" d="M86.33,47.13c0.08,0.09,0.23,0.17,0.23,0.27c0.23,4.34,0.65,8.68-0.54,12.98c-0.82,3-1.66,5.97-3.18,8.71
		c-4,7.16-9.65,12.63-17.16,15.9c-7.06,3.08-14.44,4.01-22.01,1.9c-0.62-0.17-1.35,0.11-1.86-0.48c0.22-1.47,1.66-1.8,2.55-2.61
		c1.45-1.32,3.11-2.41,5.04-2.98c9.98-0.09,18.38-3.59,24.57-11.62c3.49-4.52,5.27-9.76,5.78-15.44c0.38-2.01,1.88-3.26,3.29-4.49
		C84,48.43,84.71,47.04,86.33,47.13z"/>
	<path class="st3" d="M28.92,80c-3.89-2.89-6.72-6.65-8.92-10.93c-0.25-1.81,1.17-2.53,2.25-3.48c0.54-0.65,1.37-0.97,1.89-1.65
		c4.12-3.42,8.2-6.87,12.24-10.37c0.58-0.5,1.23-1.29,2.15-0.47c0.61,1.08,0.87,2.28,0.69,3.46c-0.33,2.21,0.15,4.4,0.01,6.59
		c-0.16,2.47,0.36,4.6,2.26,6.27c0.35,0.91-0.21,1.48-0.79,2.01c-1.81,1.66-3.66,3.27-5.53,4.86c-1.34,0.76-2.53,1.74-3.7,2.74
		C30.74,79.68,29.95,80.18,28.92,80z"/>
	<path class="st3" d="M70.97,23.1c2.65,0.5,4.15,2.65,5.98,4.28c1.96,1.76,3.32,4.04,4.82,6.18c0.39,1.32-0.1,2.28-1.21,2.99
		c-0.84,0.54-1.61,1.18-2.34,1.86c-0.16,0.2-0.33,0.4-0.54,0.56c-2.73,2.9-5.95,5.25-8.8,8.02c-0.64,0.62-1.37,1.39-2.48,0.86
		c-0.42-0.49-0.46-1.09-0.51-1.68c-0.36-4.43-2.62-7.46-6.75-9.09c-0.56-0.22-1.13-0.39-1.57-0.83c-0.66-1.12,0.13-1.84,0.81-2.46
		c2.32-2.14,4.56-4.38,7.06-6.33c0.45-0.38,0.82-0.85,1.31-1.18c0.7-0.29,1.15-0.89,1.66-1.4C69.16,24.14,69.78,23.21,70.97,23.1z"
		/>
	<path class="st4" d="M49.27,81.32c-2.71,1.37-4.94,3.44-7.47,5.08c-1.08,0-2.2,0.09-2.87-1.05c-0.07-0.84,0.57-1.23,1.09-1.69
		c1.21-1.1,2.6-2.01,3.65-3.3c4.11-3.49,8.19-7.02,12.22-10.62c0.29-0.19,0.61-0.33,0.95-0.41c4.06-0.85,7.33-2.69,8.71-6.91
		c0.23-1.04,0.59-2.03,1.29-2.86c4.19-4.39,8.56-8.61,13.06-12.69c0.18-0.18,0.37-0.35,0.59-0.49c1.16-0.73,1.93-1.88,2.95-2.76
		c0.57-0.49,1.02-1.17,1.89-1.16c1.02,1.4,1.39,2.95,1,4.65c-2.17,1.98-4.47,3.83-6.07,6.34c-1.27,2.54-3.55,4.2-5.55,6.04
		c-4.45,4.1-8.75,8.37-13.32,12.34c-3.21,2.79-6.38,5.63-9.71,8.29C50.94,80.72,50.05,80.89,49.27,81.32z"/>
	<path class="st5" d="M16.86,45.28c1.43-6.8,4.59-12.76,9.47-17.62c8.01-7.99,17.83-11.45,29.11-10.36
		c1.82,0.18,3.84,0.04,5.44,1.34c0.02,1.37-0.99,1.6-1.95,1.46c-2.24-0.35-4.4,0.26-6.6,0.37c-6.6,0.19-12.75,1.92-18.28,5.57
		c-4.52,2.98-8.1,6.87-10.71,11.64c-0.29,0.53-0.57,1.06-0.95,1.52c-1.2,1.41-2.37,2.83-3.04,4.59c-0.25,0.67-0.58,1.35-1.18,1.77
		C17.74,45.87,17.05,46.53,16.86,45.28z"/>
	<path class="st6" d="M44.07,80.66c-0.65,1.64-2.34,2.24-3.45,3.43c-0.47,0.51-1.12,0.85-1.69,1.26c-2.12-0.1-3.71-1.44-5.44-2.39
		C31.9,82.09,30.43,81,28.92,80c1.78-0.56,2.77-2.19,4.25-3.15c0.55-0.36,1.03-0.8,1.68-0.97c0.34,0.07,0.62,0.25,0.81,0.55
		c1.68,1.59,3.58,2.73,5.98,2.75C42.69,79.28,43.74,79.39,44.07,80.66z"/>
	<path class="st7" d="M16.86,45.28c1.12,0.78,1.16-0.39,1.4-0.87c1-2,2.14-3.9,3.69-5.53c0.61,0.69,0.2,1.33-0.09,1.99
		c-1.1,2.54-1.74,5.19-1.81,7.97c-0.43,3.09-0.36,6.18-0.08,9.27c0.04,0.48,0.14,0.94-0.02,1.42c-0.67,0.85-0.89,2.22-2.41,2.1
		C15.67,56.24,15.83,50.78,16.86,45.28z"/>
	<path class="st6" d="M85.32,42.47c-1.63,1.36-2.66,3.36-4.63,4.36c-0.93-2.08-1.66-4.25-2.31-6.42c-0.21-0.71-0.5-1.45-0.54-2.23
		c0.56-1.05,1.5-1.65,2.49-2.23c0.88-0.52,1.76-1.12,1.44-2.39c1.04,2.34,2.11,4.67,3.11,7.03C85.13,41.17,85.18,41.84,85.32,42.47z
		"/>
	<path class="st8" d="M51.84,19.8c2.54,0.03,5.04-0.59,7.58-0.37c0.64,0.05,1.15-0.2,1.46-0.79c1.52-0.26,2.77,0.6,4.04,1.14
		c2.11,0.9,4.25,1.82,6.04,3.33c-0.66,0.77-1.33,1.54-2.22,2.07c-1.76-0.22-3.17-1.32-4.78-1.91c-1.52-0.56-3.04-1.08-4.6-1.51
		c-1.84-0.77-3.75-1.09-5.74-1.07C52.92,20.69,52,20.96,51.84,19.8z"/>
	<path class="st9" d="M17.55,61.62c0.67-0.59,1.05-1.46,1.89-1.86c0.88-0.15,0.95,0.61,1.12,1.11c0.27,0.8,0.67,1.52,1.12,2.21
		c0.38,0.93,0.78,1.86,1.05,2.83c-0.81,1.15-2.54,1.49-2.74,3.16c-0.21-1.65-1.13-3.05-1.7-4.57
		C17.94,63.56,17.61,62.64,17.55,61.62z"/>
	<path class="st10" d="M49.27,81.32c8.37-6.89,16.41-14.16,24.26-21.63c2.21-2.1,4.48-4.15,6.72-6.22
		c0.01,6.69-2.6,12.42-6.72,17.48c-4.26,5.23-9.99,8.31-16.43,9.89C54.62,81.45,51.91,81.63,49.27,81.32z"/>
	<path class="st10" d="M65.88,27.73c-2.45,2.26-4.9,4.51-7.34,6.77c-0.43,0.4-0.99,0.69-1.13,1.33c-0.35,0.25-0.74,0.33-1.16,0.33
		c-3.95-0.25-7.9-0.15-11.85-0.11c-3.7,0.04-5.09,1.5-5.14,5.14c-0.04,2.81,0.12,5.63-0.1,8.44c-0.43,1.05-0.21,2.29-0.98,3.23
		c-4.01,3.43-8.02,6.86-12.04,10.27c-0.54,0.46-1.15,0.84-1.73,1.26c-0.97,0.21-1.36-0.49-1.73-1.15c-0.65-1.18-1.34-2.35-1.21-3.78
		c0.34-1.27,0.49-2.56,0.45-3.88c-0.12-4.16,0.1-8.29,1.59-12.24c1.7-5.93,5.32-10.54,10.09-14.27c4.49-3.5,9.58-5.57,15.31-6.09
		c2.23-0.2,4.41-0.37,6.59,0.17c2.99,0.52,6,0.99,8.68,2.54C64.99,26.18,66.04,26.46,65.88,27.73z"/>
	<path class="st11" d="M44.07,80.66c-0.89-0.36-1.78-0.73-2.67-1.09c-2.34-0.36-4.3-1.49-6.09-2.97c-0.15-0.24-0.31-0.48-0.46-0.72
		c2.17-1.99,4.34-3.98,6.5-5.97c0.13-0.19,0.31-0.31,0.54-0.37c4.34,0.28,8.69,0.42,13.04,0.1c0.49-0.04,0.94,0.13,1.26,0.56
		C52.29,73.85,48.33,77.42,44.07,80.66z"/>
	<path class="st12" d="M41.77,69.84c-0.14,0.03-0.28,0.05-0.41,0.08c-2.57-1.46-3.05-3.8-3.03-6.53c0.02-3.5,0.23-7.01-0.13-10.51
		c0.2-1.08-0.18-2.2,0.28-3.26c0.55,0.86,1.1,1.01,2.06,0.37c1.06-0.7,2.15-0.51,2.77,0.81c0.16,3.92,0.03,7.83,0.07,11.74
		c0.01,0.77,0.01,1.54,0.14,2.3c-0.09,0.89,0.34,1.55,0.95,2.13C44.63,68.92,43.19,69.37,41.77,69.84z"/>
	<path class="st13" d="M21.96,59.76c0.53,1.7,1.1,3.39,2.47,4.64c-0.33,0.76-1.09,1.06-1.69,1.51c-1.5-0.27-1.05-1.68-1.51-2.57
		c-0.23-1.08-0.92-2.07-0.6-3.25C20.98,59.62,21.39,59.36,21.96,59.76z"/>
	<path class="st10" d="M80.2,47.2c-4.2,4.31-8.53,8.49-12.94,12.58c-0.53-0.4-0.64-0.99-0.66-1.59c-0.05-1.26-0.3-2.52-0.77-3.66
		c-0.79-1.87-0.93-3.66-0.06-5.5c0.19-0.47,0.36-0.94,0.92-1.1c3.29-2.89,6.58-5.79,9.87-8.68c0.26-0.23,0.56-0.43,0.84-0.64
		c0.23,0.06,0.52,0.15,0.58,0.36C78.75,41.71,80.52,44.18,80.2,47.2z"/>
	<path class="st14" d="M66.68,47.93c-0.13,0.37-0.26,0.73-0.39,1.1c-0.72,0.66-1.15,1.61-2.05,2.09c-0.58,0.31-1.15,0.9-1.85,0.2
		c-0.39-1.37,0.34-2.67,0.3-4.04c-0.04-1.1-0.35-1.79-1.32-2.21c-1.04-1.7-2.68-2.82-4.04-4.21c-0.05-0.64-0.28-1.12-1-1.25
		c-0.9-0.16-1.86-0.43-1.84-1.55c0.02-1.04,0.76-1.69,1.73-2.02c0.23-0.08,0.44-0.17,0.64-0.31c0.19,0.04,0.37,0.07,0.56,0.11
		C63.65,37.3,66.54,41.09,66.68,47.93z"/>
	<path class="st15" d="M65.88,27.73c-2.55-2.08-5.57-3.06-8.75-3.6c-0.57-0.1-1.2,0.09-1.69-0.37c1.03-1.26,2.73-0.77,3.96-1.53
		c2.83-0.12,5.18,1.3,7.61,2.42c1.25,0.57,0.74,1.4,0,2.1C66.73,27.19,66.38,27.54,65.88,27.73z"/>
	<path class="st16" d="M67.01,26.75c0.54-0.88,0.46-1.45-0.65-1.84c-2.3-0.81-4.51-1.89-6.96-2.23c-2.94,0.32-5.82-0.58-8.76-0.39
		c-0.55,0.04-1.05-0.21-1.39-0.7c0.16-0.96,0.96-1.05,1.64-1.03c2.96,0.11,5.97-0.24,8.87,0.67c3.24,0.74,6.32,1.87,8.99,3.93
		C68.27,25.81,67.74,26.4,67.01,26.75z"/>
	<path class="st17" d="M80.2,47.2c-0.68-2.95-1.6-5.82-2.81-8.59c0.15-0.14,0.3-0.29,0.45-0.44c1.54,0.82,0.88,2.56,1.57,3.78
		c0.82,1.46,1.45,3.09,1.28,4.87C80.53,46.95,80.37,47.08,80.2,47.2z"/>
	<path class="st18" d="M41.77,69.84c0.57-1.19,2.29-1.36,2.53-2.84c0.6-0.92,1.54-0.72,2.41-0.75c3.61-0.14,7.24,0.33,10.83-0.37
		c0.74-0.15,1.46-0.55,2.26-0.29c0.8,1.17,0.08,2.97-1.43,3.79c-0.48,0.26-1.05,0.15-1.48,0.48c-0.23,0.12-0.46,0.23-0.69,0.35
		c-3.87,0.49-7.76,0.19-11.64,0.25C43.58,70.47,42.66,70.2,41.77,69.84z"/>
	<path class="st19" d="M62.64,51.48c1.43-0.5,2.05-2.22,3.66-2.45c-0.72,1.99-0.45,3.88,0.4,5.8c0.68,1.55,0.64,3.27,0.57,4.95
		c-0.17,1.01-1.15,1.74-1.02,2.86c-1.19-0.01-2.12,1.4-3.45,0.61c-0.1-0.21-0.22-0.46-0.14-0.68c0.8-2.2-0.23-4.09-0.96-6.04
		c-0.42-1.08-1.06-1.99-1.91-2.77c-0.43-0.39-0.95-0.77-0.83-1.48C60.04,51.42,61.3,51.24,62.64,51.48z"/>
	<path class="st20" d="M63,63.36c0.45-0.27,0.97-0.47,1.34-0.83c0.72-0.72,1.31-0.61,1.91,0.11c-1.5,4.51-4.92,6.52-9.36,7.22
		c1.83-0.71,2.31-2.52,3.24-3.97C60.57,64.47,61.28,63.35,63,63.36z"/>
	<path class="st21" d="M59.76,21.24c-2.85-0.31-5.7-0.41-8.55-0.01c-0.64,0.09-1.33-0.14-1.89,0.36c-0.49,0.77-1.34,0.73-2.07,0.87
		c-12.36,2.32-20.6,9.48-24.99,21.19c-0.19,0.5-0.33,1.02-0.6,1.5c-0.66,0.7-0.96,1.58-1.26,2.46c-0.16,0.48-0.18,1.09-0.95,0.98
		c0.12-3.42,1.2-6.6,2.52-9.72c6.26-12.15,16.36-18.3,29.89-19.08c1.79,0.79,3.76,0.04,5.57,0.7
		C58.18,20.78,59.06,20.74,59.76,21.24z"/>
	<path class="st22" d="M35.31,76.6c2.03,0.99,4.06,1.98,6.09,2.97c-0.17,0.15-0.4,0.47-0.5,0.43c-1.96-0.71-3.86-1.56-5.57-2.77
		C35.12,77.08,35.14,76.82,35.31,76.6z"/>
	<path class="st23" d="M19.44,48.6c0.77-1.12,0.47-2.77,1.8-3.61c0.43,0.27,0.49,0.73,0.6,1.17c-0.53,3.85-0.79,7.71-0.44,11.58
		c0.08,0.89-0.01,1.65-0.52,2.37c0.1,1.08,0.51,2.13,0.34,3.24c-1.04-0.98-0.98-2.5-1.78-3.59c-0.4-2.47-0.35-4.96-0.38-7.45
		C19.04,51.04,19.25,49.83,19.44,48.6z"/>
	<path class="st24" d="M56.86,35.73c-0.18,0.78-0.96,1-1.43,1.52c-0.79,0.89-0.78,1.35,0.5,1.66c0.86,0.2,2.48-0.03,1.61,1.8
		c-0.93,0.71-1.95,0.34-2.94,0.22c-3.23-0.39-6.46-0.17-9.69-0.14c-0.3,0-0.58,0.15-0.81,0.35c-0.62,0.8-0.73,1.72-0.72,2.69
		c0.01,1.6,0.02,3.2-0.01,4.79c-0.01,0.63,0.12,1.33-0.53,1.78c-1.84-0.9-2.72,0.91-4.22,1.57c-0.05-0.87-0.1-1.62-0.15-2.36
		c-0.01-2.93-0.06-5.86-0.04-8.79c0.03-3.32,1.41-5.27,4.66-5.47C47.68,35.08,52.3,34.72,56.86,35.73z"/>
	<path class="st25" d="M21.24,46.09c0-0.37,0-0.73,0-1.1c1.2-4.85,3.59-9.07,6.87-12.79c4.48-5.09,10.08-8.32,16.63-9.96
		c1.5-0.38,3.02-0.68,4.59-0.65c3.4,0,6.82-0.22,10.08,1.09c-1.22,0.74-2.53,1.13-3.96,1.08c-6.05-0.72-11.77,0.29-17.16,3.17
		c-6.25,3.34-10.77,8.25-13.49,14.8c-0.21,0.5-0.45,0.98-0.67,1.47c-0.38,0.59-0.66,1.23-0.96,1.87
		C22.79,45.88,22.26,46.48,21.24,46.09z"/>
	<path class="st26" d="M21.24,46.09c1.57-0.36,1.58-2.26,2.87-2.88c-1.48,4.63-1.53,9.4-1.43,14.18c0.02,0.89-0.35,1.62-0.73,2.37
		c-0.36,0.12-0.72,0.24-1.08,0.35c-0.18-2.01-0.39-4.02-0.4-6.05C20.47,51.37,20.62,48.71,21.24,46.09z"/>
	<path class="st27" d="M63,63.36c-0.96,0.84-1.92,1.69-2.88,2.53c-3.42,1.49-7.05,1.01-10.61,1.07c-1.74,0.03-3.47,0.02-5.21,0.03
		c-0.85-0.12-2.38,0.3-1.13-1.45c0.06-0.09,0.12-0.17,0.17-0.26c0.76-0.64,1.69-0.47,2.57-0.51c3.39-0.14,6.8,0.27,10.18-0.33
		c3.42-0.6,5.27-2.61,5.44-6.03c0.04-0.82-0.07-1.7,0.76-2.27C63.08,58.5,64.4,60.8,63,63.36z"/>
	<path class="st27" d="M42.84,50.39c0-2.85-0.01-5.69,0.02-8.54c0.01-0.62-0.23-1.33,0.43-1.81c0.66,0.58,0.66,1.36,0.67,2.14
		c0.02,7.04,0.02,14.08,0,21.13c0,0.78-0.02,1.57-0.69,2.14c0,0-0.1,0.09-0.1,0.09c-0.48-0.63-0.31-1.38-0.31-2.08
		C42.84,59.11,42.85,54.75,42.84,50.39z"/>
	<path class="st10" d="M43.27,65.45c0.01-8.47,0.02-16.94,0.02-25.41c4.76-0.01,9.54-0.51,14.25,0.66c1.84,0.81,3.34,1.97,4.07,3.93
		c1.91,2.68,0.87,6.13-2.25,7.39c-0.27,0.11-0.38,0.23-0.28,0.51c1.6,0.74,2.6,2.01,3.22,3.62c-0.01,2.38,0.34,4.8-1.54,6.8
		c-1.75,1.86-3.99,2.45-6.34,2.53C50.71,65.61,46.98,65.48,43.27,65.45z"/>
	<path class="st28" d="M59.07,52.54c-0.33-0.05-0.69-0.27-0.24-0.49c3.28-1.61,3.35-4.38,2.78-7.41c1.81,0.81,2.25,2.05,1.64,4.77
		c-0.16,0.7-0.4,1.38-0.61,2.07C61.69,52.64,60.15,51.81,59.07,52.54z"/>
	<path class="st29" d="M51.46,61.13c-2.78,0.18-2.83,0.18-2.77-2.49c0.03-1.29-0.61-2.99,0.34-3.76c0.78-0.62,2.39-0.14,3.63-0.24
		c3.4-0.28,4.89,1.52,3.89,4.79c-0.48-0.19-0.64-1.28-1.5-0.37c-1.14,1.21-2.61,1.58-4.35,1.18c-0.1-0.07-0.13,0.34-0.03,0.12
		c0.02-0.04,0.07-0.01,0.17,0.04C51.19,60.54,51.53,60.66,51.46,61.13z"/>
	<path class="st30" d="M48.94,50.42c-0.58-1.67-0.18-3.39-0.24-5.09c-0.01-0.26,0.16-0.6,0.36-0.77c1.03-0.86,5.76-0.01,6.71,1.18
		c-0.54,1.98-1.87,3.1-3.84,3.54C50.88,49.52,49.92,50.01,48.94,50.42z"/>
	<path class="st31" d="M48.94,50.42c0.15-0.75,0.77-1.21,1.36-1.31c2.3-0.39,4.05-1.59,5.47-3.36c0.9,2.73,0.37,3.76-2.42,4.71
		C51.88,50.64,50.41,50.7,48.94,50.42L48.94,50.42z"/>
	<path class="st32" d="M51.46,61.13c-0.61-0.48-1.38-0.15-2.13-0.39c0.97-1.52,2.51-0.74,3.72-1.1c1.37-0.41,1.98-1.81,3.38-2.55
		c0.05,0.87,0.09,1.6,0.13,2.33C55.43,61.71,53.34,61.12,51.46,61.13z"/>
	<path class="st30" d="M48.95,50.42c1.47,0.01,2.93,0.02,4.4,0.03C51.88,50.79,50.41,50.89,48.95,50.42z"/>
</g>
</svg>
