<?xml version="1.0" encoding="utf-8"?>
<!-- Generator: Adobe Illustrator 23.0.2, SVG Export Plug-In . SVG Version: 6.00 Build 0)  -->
<svg version="1.1" id="Camada_1" xmlns="http://www.w3.org/2000/svg" xmlns:xlink="http://www.w3.org/1999/xlink" x="0px" y="0px"
	 viewBox="0 0 287.51 113.79" style="enable-background:new 0 0 287.51 113.79;" xml:space="preserve">
<style type="text/css">
	.st0{fill:#323232;}
	.st1{fill:#FEFEFE;}
	.st2{fill:#F56237;}
	.st3{fill:#EA7649;}
	.st4{fill:#EA6E3C;}
	.st5{fill:#F15324;}
	.st6{fill:#F25529;}
	.st7{fill:#F25225;}
	.st8{fill:#F1552B;}
	.st9{fill:#FC7047;}
	.st10{fill:#E9652F;}
	.st11{fill:#FEFDFD;}
	.st12{fill:#EF3D0B;}
	.st13{fill:#FBF3F5;}
	.st14{fill:#E35419;}
	.st15{fill:#E96A38;}
	.st16{fill:#EA6C39;}
	.st17{fill:#F35C27;}
	.st18{fill:#E9632D;}
	.st19{fill:#F2C2C2;}
</style>
<g>
	<path class="st0" d="M255.25,113.79c-0.96,0-1.92,0-2.88,0c-3.26-0.41-6.56-0.25-9.84-0.47c-3.94-0.26-7.88-0.52-11.8-1.01
		c-4.45-0.56-8.93-0.86-13.39-1.32c-8.15-0.84-16.31-1.63-24.49-2.1c-6.81-0.39-13.6-0.99-20.43-1.28
		c-15.1-0.65-30.2-0.73-45.3-0.57c-7.84,0.09-15.69,0.27-23.52,0.74c-6.75,0.41-13.5,0.82-20.22,1.48
		c-7.97,0.78-15.97,1.43-23.94,2.22c-7.49,0.74-14.96,1.84-22.54,1.85c-4.91,0-9.85,0.16-14.71-0.37
		c-6.18-0.68-12.22-2.41-17.07-6.5C2.08,103.9-0.01,100.52,0,96.19c0.03-23.52,0.03-47.04,0-70.55C0,20.41,2.99,16.92,6.67,13.88
		c3.31-2.75,7.23-4.36,11.31-5.71c7.8-2.58,15.82-3.69,23.96-4.27c4.42-0.32,8.85-0.4,13.26-0.74c6.32-0.49,12.65-0.83,18.97-1.31
		c2.86-0.22,5.74-0.18,8.61-0.34c6.93-0.37,13.87-0.74,20.82-0.89c16.72-0.36,33.44-0.85,50.16-0.52
		c7.19,0.14,14.39-0.01,21.57,0.35c5.8,0.29,11.62,0.09,17.41,0.62c7.03,0.64,14.11,0.72,21.15,1.14c8,0.47,16,1.1,24.01,1.46
		c5.97,0.26,11.95,0.75,17.88,1.48c3.3,0.4,6.61,1.14,9.83,2.07c3.97,1.14,7.89,2.39,11.6,4.27c4.24,2.15,7.3,5.45,9.49,9.52
		c0.92,1.71,0.76,3.84,0.75,5.81c0,9.54,0,19.08,0,28.62c0,13.16,0,26.31,0,39.47c0.37,5.76-2.27,9.96-6.84,13.14
		c-4.63,3.22-9.81,4.71-15.4,5.25C261.9,113.63,258.56,113.35,255.25,113.79z"/>
	<path class="st1" d="M9.08,60.59c0-10.62,0.1-21.24-0.06-31.86c-0.06-3.7,1.6-6.13,4.46-8.02c4.2-2.77,8.91-4.24,13.77-5.29
		c5.14-1.11,10.32-1.81,15.58-2.08c8.07-0.41,16.13-0.97,24.19-1.42c5.5-0.31,11-0.61,16.5-0.92c14.12-0.81,28.26-1.08,42.4-1.54
		c8.76-0.29,17.51-0.37,26.25-0.21c14.2,0.27,28.39,0.85,42.58,1.47c5.98,0.26,11.96,0.6,17.94,0.96
		c7.64,0.46,15.28,1.02,22.93,1.35c4.84,0.21,9.69,0.46,14.51,1c7.22,0.82,14.37,2.06,21.03,5.17c3.42,1.6,6.49,3.58,7.43,7.66
		c0.28,1.22,0.03,2.38,0.02,3.57c-0.05,20.64-0.24,41.28-0.12,61.91c0.03,5.53-2.19,8.03-7.11,9.87c-6.19,2.31-12.68,2.6-19.23,2.48
		c-5.93-0.11-11.77-1.11-17.66-1.54c-5.35-0.4-10.67-1.18-16.01-1.65c-4.94-0.43-9.89-0.79-14.81-1.28
		c-5.59-0.56-11.19-0.9-16.79-1.3c-7.21-0.52-14.44-0.72-21.66-1.07c-14.69-0.72-29.38-0.54-44.06-0.23
		c-8.06,0.17-16.12,0.58-24.18,1.19c-5.53,0.42-11.08,0.73-16.62,1.11c-7.26,0.49-14.5,1.26-21.74,1.96
		c-6.18,0.6-12.36,1.22-18.53,1.93c-6.23,0.71-12.42,0.41-18.57-0.63c-3.38-0.57-6.62-1.66-9.49-3.55c-2.13-1.4-3.09-3.49-3.08-6.11
		C9,82.55,8.97,71.57,8.97,60.59C9.01,60.59,9.04,60.59,9.08,60.59z"/>
	<path class="st2" d="M20.89,98.31c-1.35-0.05-2.55-0.62-3.77-1.09c-2.39-0.93-3.6-2.38-3.59-5.26c0.13-21.29,0.09-42.59,0.06-63.88
		c0-1.56,0.86-2.43,1.93-3.22c2.79-2.07,6.01-3.15,9.33-3.97c0.52,0.66,0.1,1.22-0.18,1.8c-0.39,0.79-1.03,1.46-1.2,2.36
		c-3.18,4.74-4.33,9.96-4.44,15.65c-0.08,4.51,0.99,8.55,2.63,12.68c1.61,4.05,3.4,7.92,6.02,11.39c3.37,4.48,7.62,7.87,12.57,10.53
		c6.56,3.53,13.47,5.96,20.78,7.29c7.13,1.3,14.32,2.05,21.57,2.44c9.71,0.53,19.42,0.18,29.13,0.27c5.51,0.05,11-0.45,16.49-0.92
		c3.87-0.33,7.76-0.54,11.64-0.87c6.44-0.55,12.89-0.94,19.34-1.29c4.9-0.27,9.8-0.47,14.71-0.48c10.32-0.03,20.64-0.14,30.95,0.06
		c7.78,0.15,15.52,1,23.21,2.25c6.69,1.09,13.31,2.44,19.76,4.54c4.15,1.35,8.34,2.63,12.26,4.61c2.87,1.31,5.69,1.45,8.46-0.33
		c0.8-0.51,1.55-1.1,2.42-1.49c0.84-0.29,1.6-1.51,2.58-0.23c0.02,0.12,0.04,0.24,0.04,0.36c0.14,4.49-0.57,5.55-4.88,6.7
		c-3.98,1.07-8.06,1.63-12.19,1.74c-6.66,0.17-13.24-0.88-19.85-1.36c-4.59-0.33-9.15-0.94-13.72-1.43
		c-5.34-0.58-10.69-1.04-16.04-1.53c-7.31-0.68-14.65-1.14-21.98-1.66c-7.52-0.53-15.04-0.79-22.56-1.19
		c-1.97-0.11-3.95,0.1-5.92-0.2c-10.35-0.01-20.69-0.01-31.04,0c-3.16,0.27-6.34,0.17-9.5,0.36c-6.38,0.38-12.78,0.43-19.15,0.99
		c-5.41,0.48-10.85,0.73-16.26,1.22c-1.96,0.18-3.92,0.22-5.88,0.43c-8.37,0.9-16.78,1.54-25.15,2.47
		c-6.31,0.7-12.61,1.28-18.97,1.21C27.28,99.18,24.11,98.56,20.89,98.31z"/>
	<path class="st3" d="M23.06,24.51c0.14-1.44,1.4-2.32,1.8-3.64c5.11-1.34,10.28-2.27,15.57-2.6c14-0.86,27.99-1.87,41.99-2.6
		c12.34-0.64,24.69-1.11,37.04-1.39c20.64-0.46,41.28-0.24,61.9,0.58c13.06,0.52,26.11,1.33,39.16,2.07
		c10.35,0.59,20.72,0.98,31.04,2.09c5.91,0.64,11.74,1.75,17.17,4.34c0.92,0.44,1.78,0.98,2.68,1.47c1.86,1.02,2.64,2.56,2.63,4.72
		c-0.07,18.24-0.07,36.48-0.09,54.72c0,1.8,0.02,3.6,0.03,5.4c-1.84-1.54-3.7-2.89-3.66-5.81c0.12-10.79-0.05-21.59,0.11-32.39
		c0.05-3.47,0.33-6.94,0.23-10.41c-0.08-2.62-0.19-5.25-0.62-7.86c-0.64-3.86-2.87-6.36-6.44-7.74c-4.65-1.81-9.53-2.57-14.43-3.31
		c-4.91-0.74-9.88-0.65-14.8-1.09c-6.31-0.57-12.63-0.73-18.94-1.11c-3.99-0.24-7.98-0.43-11.97-0.7
		c-5.19-0.36-10.38-0.52-15.57-0.74c-5.37-0.23-10.74-0.47-16.11-0.71c-5.6-0.24-11.19-0.3-16.79-0.31
		c-3.47-0.01-6.93-0.22-10.39-0.3c-9.4-0.2-18.8,0.34-28.2,0.4c-3.87,0.02-7.78,0.03-11.65,0.29c-5.79,0.38-11.58,0.49-17.37,0.75
		c-6.14,0.27-12.27,0.74-18.4,1.07c-4.23,0.23-8.47,0.46-12.7,0.72c-8.87,0.55-17.77,1.07-26.51,2.87
		c-1.75,0.36-3.49,0.85-5.12,1.64C24.04,25.07,23.48,25.04,23.06,24.51z"/>
	<path class="st4" d="M24.49,24.5c2.69-1.62,5.76-1.95,8.74-2.47c6.66-1.15,13.4-1.55,20.15-1.89c6.5-0.33,13.01-0.74,19.51-1.1
		c6.8-0.38,13.6-0.82,20.41-1.08c6.82-0.26,13.63-0.49,20.44-0.76c3.65-0.14,7.3-0.29,10.95-0.22c5.64,0.11,11.26-0.64,16.88-0.37
		c7.79,0.38,15.58,0.23,23.36,0.36c6.85,0.12,13.71,0.41,20.55,0.71c7.17,0.31,14.33,0.64,21.49,1.09
		c6.56,0.41,13.14,0.65,19.69,1.14c8.63,0.64,17.33,0.64,25.87,2.15c3.63,0.64,7.32,1.21,10.83,2.46c4.98,1.76,7.55,5.65,7.78,10.94
		c0.18,4.19,0.53,8.38,0.28,12.56c-0.7,11.75-0.15,23.5-0.29,35.24c-0.02,1.6-0.85,3.94,2.24,3.93c0.32,0,0.21,0.49,0.23,0.77
		c0.04,0.59-0.12,1.22,0.38,1.7c0,1.08,0,2.16,0,3.23c-0.54,0.18-0.5-0.23-0.55-0.55c-0.09-0.54,0.21-1.12-0.19-1.62
		c-0.68,0.43-1.29,1.01-2.15,1.09c-0.8,0.02-0.96-0.61-1.15-1.16c-0.61-1.82-1.08-3.63-1.08-5.6c0.04-15.64,0.01-31.29,0.04-46.93
		c0-1.74-0.15-3.47-0.29-5.18c-0.17-2.03-3.18-5.74-5.92-6.16c-2.81-1.92-5.85-3.09-9.32-2.87c-3.46-1.09-7.07-0.98-10.62-1.37
		c-4.85-0.54-9.74-0.53-14.6-1.05c-2.31-0.25-4.65-0.25-6.97-0.35c-6.14-0.26-12.26-0.73-18.39-1.12c-2.62-0.17-5.26-0.26-7.87-0.3
		c-4.43-0.07-8.85-0.29-13.26-0.53c-8.9-0.48-17.81-0.38-26.7-0.74c-7.43-0.3-14.84-0.26-22.25-0.19
		c-4.96,0.05-9.92,0.31-14.88,0.29c-2.64,0.13-5.3-0.29-7.92,0.28c-0.65,0.11-1.31,0.07-1.97,0.08c-2.81,0.14-5.64-0.3-8.43,0.28
		c-0.43,0.09-0.86,0.08-1.29,0.08c-2.45,0.13-4.92-0.31-7.34,0.32c-0.42,0.04-0.85,0.04-1.27,0.04c-1.87,0.1-3.76-0.27-5.6,0.34
		c-0.42,0.03-0.84,0.02-1.26,0.02c-1.66,0.08-3.35-0.21-4.98,0.3c-0.95,0.1-1.9,0.04-2.84,0.06c-1.36,0.03-2.73-0.14-4.05,0.31
		c-2.02,0.08-4,0.61-6.04,0.41c-2.1,0.13-4.22-0.3-6.29,0.32c-0.21,0.02-0.42,0.03-0.63,0.03c-1.84,0.12-3.72-0.28-5.53,0.33
		c-0.3,0.03-0.61,0.03-0.92,0.03c-1.39,0.07-2.8-0.21-4.16,0.3c-0.2,0.04-0.4,0.06-0.6,0.06c-1.29,0.06-2.61-0.16-3.87,0.36
		c-1.34,0.68-2.81,0.34-4.22,0.51c-2.47,0.3-4.88,1.03-7.4,0.94c-2.02,0.07-3.88,0.97-5.88,1.2C24.94,25.12,24.63,24.93,24.49,24.5z
		"/>
	<path class="st5" d="M273.24,90.74c0.02-0.06,0.02-0.15,0.06-0.16c0.08-0.03,0.26-0.05,0.26-0.04c0.2,0.78-0.22,1.66,0.42,2.36
		c0.22,2.71-0.15,3.31-2.54,4.5c-4.57,2.28-9.51,2.71-14.48,2.88c-8.53,0.3-16.95-1.03-25.4-1.85c-8.04-0.77-16.07-1.69-24.12-2.32
		c-2.18-0.17-4.42-0.01-6.56-0.7c-1.21-0.44-2.49,0.07-3.7-0.31c-0.21-0.01-0.41-0.03-0.62-0.04c-1.45-0.5-2.97,0.09-4.42-0.32
		l-0.13,0.03l-0.12-0.06c-1.68-0.53-3.44,0.1-5.13-0.34l-0.14,0.03l-0.13-0.06c-2.02-0.53-4.12,0.13-6.15-0.35l0.02,0.01
		c-1.55-0.53-3.19,0.08-4.75-0.35c-0.33-0.01-0.67-0.02-1-0.03c-2.3-0.5-4.66,0.1-6.96-0.32c-0.32-0.01-0.64-0.03-0.96-0.04
		c-2.4-0.41-4.81-0.07-7.22-0.19c-0.88-0.04-1.77,0.13-2.64-0.13c-0.2-0.01-0.39-0.02-0.59-0.03c-0.12-0.08-0.17-0.2-0.14-0.35
		c0.11-0.19,0.34-0.24,0.48-0.38c7.59,0.24,15.2,0.21,22.77,0.8c6.37,0.49,12.77,0.67,19.1,1.42c8.12,0.96,16.29,1.3,24.42,2.28
		c6.91,0.84,13.87,1.6,20.85,2.04c4.11,0.26,8.21,0.61,12.35,0.68c4.23,0.07,8.34-0.65,12.42-1.59c1.36-0.31,2.61-1.18,3.89-1.84
		c0.72-0.37,0.9-1.06,0.88-1.84C273.23,93.02,273.25,91.88,273.24,90.74z"/>
	<path class="st6" d="M20.89,98.31c1.77-0.81,3.51,0.09,5.25,0.18c4.79,0.24,9.57,0.37,14.35-0.06c3.92-0.35,7.85-0.64,11.77-1.12
		c7.4-0.91,14.84-1.51,22.27-2.23c0.29,0.49-0.08,0.75-0.36,1.04c-8.28,0.78-16.56,1.49-24.83,2.36c-3.91,0.41-7.8,1.09-11.75,0.95
		c-3.08,0.23-6.16,0.24-9.24-0.01l-0.14,0.04l-0.13-0.06c-1.18-0.49-2.46,0.1-3.65-0.34C23.18,99.19,22.01,98.86,20.89,98.31z"/>
	<path class="st7" d="M74.18,96.11c0.12-0.35,0.24-0.7,0.36-1.04c6.21-0.15,12.36-1.06,18.56-1.4c3.81-0.21,7.62-0.68,11.44-0.73
		c6.94-0.09,13.84-0.9,20.78-0.74c0.11,0.1,0.18,0.22,0.2,0.37c-0.03,0.14-0.1,0.27-0.21,0.36l-0.13,0.06l-0.13-0.04
		c-2.74,0.31-5.5,0.04-8.25,0.15c-0.64,0.02-1.32-0.19-1.93,0.19c-4.46,0.25-8.93,0.47-13.39,0.74c-5.59,0.34-11.18,0.72-16.77,1.08
		c-1.2,0.41-2.48-0.14-3.68,0.32C78.74,95.65,76.46,95.88,74.18,96.11z"/>
	<path class="st2" d="M125.3,92.93c0-0.13,0-0.25,0-0.38c0.37-0.27,0.81-0.18,1.22-0.18c9.51,0,19.02,0,28.52,0
		c0.41,0,0.84-0.09,1.22,0.18c0,0.13,0,0.25,0,0.38c-6.68,0.01-13.36,0.01-20.04,0.01C132.57,92.94,128.94,92.94,125.3,92.93z"/>
	<path class="st2" d="M114.86,93.28c1.14-0.74,2.42-0.32,3.63-0.36c2.18-0.07,4.37,0.01,6.55,0.03
		C121.65,93.24,118.26,93.36,114.86,93.28z"/>
	<path class="st2" d="M156.84,92.96c2.9-0.02,5.8-0.03,8.71-0.05c0.42,0,0.83,0.05,1.15,0.36C163.4,93.38,160.12,93.22,156.84,92.96
		z"/>
	<path class="st8" d="M28.36,99.42c3.08,0,6.16,0,9.24,0.01C34.52,99.84,31.44,99.82,28.36,99.42z"/>
	<path class="st2" d="M167.65,93.31c2.33,0.02,4.67-0.42,6.96,0.32C172.29,93.6,169.96,93.7,167.65,93.31z"/>
	<path class="st2" d="M180.35,94.01c2.05,0.07,4.13-0.41,6.15,0.35C184.43,94.46,182.39,94.35,180.35,94.01z"/>
	<path class="st2" d="M186.77,94.38c1.71,0.02,3.46-0.41,5.13,0.34C190.17,94.88,188.47,94.62,186.77,94.38z"/>
	<path class="st2" d="M175.62,93.66c1.59,0.06,3.22-0.42,4.75,0.35C178.78,93.95,177.17,94.13,175.62,93.66z"/>
	<path class="st2" d="M192.15,94.75c1.48,0.03,2.99-0.41,4.42,0.32C195.09,95.16,193.61,95.06,192.15,94.75z"/>
	<path class="st2" d="M197.19,95.11c1.24,0.02,2.51-0.36,3.7,0.31C199.65,95.44,198.4,95.58,197.19,95.11z"/>
	<path class="st2" d="M24.44,99.05c1.22,0.06,2.49-0.35,3.65,0.34C26.86,99.5,25.63,99.47,24.44,99.05z"/>
	<path class="st2" d="M81.02,95.42c1.18-0.69,2.45-0.28,3.68-0.32C83.5,95.58,82.25,95.41,81.02,95.42z"/>
	<path class="st9" d="M24.49,24.5c0.24,0.12,0.49,0.24,0.73,0.36c0.93-0.29,1.91-0.28,2.87-0.41c0.66-0.16,1.33-0.11,1.99-0.12
		c5.35-0.51,10.74-0.46,16.09-1.03c2.07-0.22,4.18-0.26,6.25-0.32c3.35-0.09,6.69-0.32,10.02-0.53c5.6-0.35,11.23-0.2,16.8-0.97
		c0.18-0.02,0.36-0.04,0.54-0.03c4.91,0.23,9.81-0.25,14.71-0.41c17.07-0.58,34.15-0.32,51.22-0.26c7.52,0.02,15.05,0.48,22.58,0.72
		c4.77,0.15,9.54,0.44,14.3,0.7c7.69,0.42,15.38,0.87,23.07,1.34c6.68,0.41,13.36,0.87,20.05,1.18c3.15,0.15,6.3,0.53,9.46,0.69
		c0.22,0,0.43,0.01,0.65,0.01c1.54,0.18,3.04,0.7,4.63,0.63c2.36,0.42,4.68,1.03,7.02,1.52c3.52,0.74,6.63,2.45,9.72,4.11
		c2.48,1.34,3.91,3.47,3.9,6.58c-0.07,17.51-0.03,35.03-0.03,52.54c0,0.9-0.04,1.8-0.51,2.61c-0.09,0.07-0.18,0.14-0.26,0.21
		c-0.38,0.19-0.72,0.28-1.18,0.07c-9.75-4.49-20.03-7.09-30.61-8.77c-6.5-1.03-13.01-1.69-19.57-2.17
		c-4.26-0.31-8.5-0.22-12.75-0.26c-7.49-0.07-14.99-0.11-22.48,0.01c-6.68,0.11-13.36,0.36-20.03,0.73c-6.5,0.36-13,0.74-19.47,1.45
		c-16.06,1.78-32.17,1.53-48.27,1.3c-7.62-0.11-15.23-0.99-22.8-2.25c-8.55-1.43-16.63-4.04-24.18-8.26
		c-8.74-4.89-14.72-12.07-17.83-21.62c-0.13-0.4-0.23-0.82-0.41-1.19c-4.04-8.45-3.04-16.84,0.36-25.17
		c0.44-1.08,1.31-1.99,1.98-2.98C23.54,24.51,24.01,24.51,24.49,24.5z"/>
	<path class="st10" d="M262.46,26.3c3.19,0.12,6.12,2.95,6.76,6.63c0.27,1.59,0.45,3.18,0.45,4.81
		c-0.03,15.59,0.02,31.19-0.06,46.78c-0.01,2.58,0.78,4.91,1.48,7.3c-1.44,1.39-3.13,2.49-5.04,2.86c-1.96,0.38-4.1,0.59-5.77-1.07
		c0,0,0.02,0,0.02,0c0.44-0.99,1.15-1.69,2.2-1.96c2.83-0.71,3.64-2.85,3.85-5.41c0.05-0.66,0.05-1.32,0.03-1.98
		c-0.2-6.29,0.28-12.57,0.35-18.86c0.03-2.09,0.07-4.18-0.28-6.27c-0.4-2.45,0.5-4.89,0.28-7.34c-0.45-5.13,0.44-10.28-0.28-15.41
		c-0.1-0.72,0.07-1.4,0.42-2.08c0.89-1.75,0.64-2.34-1.06-3.28C263.95,30.02,263.08,28.24,262.46,26.3z"/>
	<path class="st11" d="M25,90.02c-1.94-0.05-5.18-2.44-5.81-4.28c-0.55-1.63,0.48-3.06,2.31-3.21c1.73-0.14,5.99,2.84,6.45,4.52
		C28.37,88.52,26.84,90.07,25,90.02z"/>
	<path class="st12" d="M156.25,92.55c-10.32,0-20.64,0-30.96,0c0-0.12,0.01-0.23,0.01-0.35c10.43,0,20.85,0,31.28,0
		C156.48,92.32,156.37,92.43,156.25,92.55z"/>
	<path class="st13" d="M31.86,91.2c-1-0.1-1.98-0.4-1.94-1.62c0.04-1.19,0.99-1.52,2.04-1.54c1.09-0.02,1.97,0.41,1.94,1.6
		C33.88,90.82,32.95,91.17,31.86,91.2z"/>
	<path class="st14" d="M262.46,26.3c1.46,1.61,2.37,3.69,4.48,4.76c1.25,0.64,1.7,1.85,0.68,3.16c-0.48,0.62-0.57,1.33-0.46,2.04
		c0.5,3.15,0.45,6.29,0.05,9.45c-0.15,1.16,0.34,2.34,0.3,3.55c-0.18,5.42-0.06,10.85-0.08,16.27c-0.02,6.87-0.24,13.74-0.35,20.61
		c-0.06,3.54-0.86,5.38-4.58,6.31c-0.86,0.21-1.38,0.93-2.19,1.17c-0.01-18.32-0.07-36.64,0.03-54.96c0.02-2.89-1.13-4.77-3.34-6.28
		c-4.15-2.82-8.95-3.88-13.73-4.99c-1.04-0.24-2.08-0.48-3.13-0.73c-1.4-0.51-2.88-0.52-4.33-0.71l-0.01,0
		c-0.81-0.58-1.67-0.3-2.54-0.21c-0.73,0.08-1.53,0.09-1.12-1.08c0.75-0.89,1.76-0.91,2.79-0.82c4.5,0.37,9,0.72,13.5,1.09
		c1.37,0.11,2.43-0.21,3.45-0.98c0.52-0.65,1.34-0.15,1.94-0.51C257.03,23.39,260.06,23.91,262.46,26.3z"/>
	<path class="st15" d="M253.82,23.43c-0.48,0.24-0.97,0.47-1.45,0.71c-1.89,0.84-3.81,0.18-5.66-0.03
		c-7.32-0.82-14.69-0.87-22.02-1.45c-5.73-0.45-11.45-0.8-17.19-1.04c-7.17-0.3-14.32-0.91-21.51-1.12
		c-8.38-0.24-16.76-0.38-25.13-0.73c-9.29-0.39-18.57-0.19-27.86-0.29c-10.72-0.11-21.44,0.27-32.16,0.57
		c-7.88,0.22-15.75,0.75-23.63,1.11c-7.57,0.34-15.14,0.94-22.71,1.44c-4.89,0.32-9.8,0.5-14.66,1.12c-1.7,0.43-3.44,0.44-5.18,0.43
		c-1.61-0.01-3.19,0.25-4.74,0.69c-0.61,0-1.21,0.01-1.82,0.01c-0.1-0.87,0.56-0.77,1.09-0.93c0.59-0.18,1.21-0.25,1.78-0.51
		c3.96-0.48,7.92-0.96,11.88-1.44c1.29-0.49,2.67,0.13,3.96-0.36c0.12,0,0.24,0,0.36,0c1.41-0.49,2.91,0.14,4.32-0.36
		c0.24,0,0.48,0,0.72,0c1.89-0.52,3.87,0.16,5.76-0.36c0.12,0,0.24,0,0.36,0c1.51-0.39,3.05-0.07,4.57-0.18
		c0.64-0.05,1.3,0.17,1.91-0.18c2.06,0.23,4.07-0.44,6.12-0.36c1.29-0.49,2.67,0.13,3.96-0.36c0.96,0,1.92,0,2.88,0
		c1.65-0.5,3.39,0.14,5.04-0.36c0.36,0,0.72,0,1.08,0c1.89-0.52,3.87,0.16,5.76-0.36c0.36,0,0.72,0,1.08,0
		c1.81-0.39,3.65-0.07,5.47-0.18c0.7-0.04,1.42,0.18,2.09-0.18c0.36,0,0.72,0,1.08,0c2.11-0.39,4.25-0.07,6.37-0.19
		c0.76-0.04,1.54,0.19,2.27-0.17c0.6,0,1.2,0,1.8,0c1.93-0.4,3.89-0.06,5.83-0.18c0.7-0.04,1.42,0.18,2.09-0.18
		c10.36,0.01,20.72-0.69,31.09-0.34c7.06,0.24,14.13,0.21,21.19,0.4c5.61,0.15,11.23,0.43,16.84,0.71c5.13,0.25,10.27,0.47,15.4,0.7
		c6.56,0.29,13.11,0.83,19.68,1.13c5.6,0.26,11.21,0.54,16.79,1.06C243.76,22.16,248.88,22.06,253.82,23.43z"/>
	<path class="st16" d="M108.01,18.39c-1.83,0.74-3.74,0.22-5.61,0.35c-1,0.07-2.02,0.01-3.03,0.01c1.83-0.74,3.74-0.22,5.61-0.35
		C105.99,18.33,107.01,18.39,108.01,18.39z"/>
	<path class="st16" d="M117.73,18.03c-1.95,0.77-3.98,0.19-5.96,0.35c-0.65,0.05-1.3,0.01-1.96,0.01c1.95-0.77,3.98-0.19,5.96-0.35
		C116.43,17.98,117.08,18.03,117.73,18.03z"/>
	<path class="st16" d="M30.97,23.43c-0.77,0.85-2.23,0.33-2.88,1.43c-0.96,0-1.92,0-2.88,0C27.06,24.09,28.99,23.65,30.97,23.43z"/>
	<path class="st16" d="M98.29,18.75c-2.49,0.78-5.04,0.17-7.56,0.36C93.22,18.33,95.78,18.94,98.29,18.75z"/>
	<path class="st16" d="M64.81,20.55c-2.12,0.76-4.32,0.18-6.48,0.36C60.46,20.15,62.66,20.73,64.81,20.55z"/>
	<path class="st16" d="M57.97,20.91c-1.88,0.76-3.84,0.17-5.76,0.36C54.09,20.51,56.06,21.09,57.97,20.91z"/>
	<path class="st16" d="M89.65,19.11c-1.88,0.76-3.84,0.17-5.76,0.36C85.77,18.71,87.74,19.29,89.65,19.11z"/>
	<path class="st16" d="M82.81,19.47c-1.64,0.74-3.36,0.19-5.04,0.36C79.41,19.08,81.14,19.64,82.81,19.47z"/>
	<path class="st16" d="M51.49,21.27c-1.39,0.74-2.88,0.19-4.32,0.36C48.56,20.89,50.06,21.44,51.49,21.27z"/>
	<path class="st16" d="M74.89,19.83c-1.27,0.72-2.64,0.2-3.96,0.36C72.2,19.47,73.58,19.98,74.89,19.83z"/>
	<path class="st16" d="M46.81,21.63c-1.27,0.72-2.64,0.2-3.96,0.36C44.12,21.27,45.5,21.78,46.81,21.63z"/>
	<path class="st17" d="M29.92,24.84c0.84-1.16,2.21-0.87,3.29-0.96c2.13-0.18,4.28-0.19,6.41-0.46c3.85-0.39,7.72-0.69,11.59-0.87
		c6.09-0.29,12.18-0.7,18.27-1.01c3.93-0.2,7.87-0.4,11.8-0.64c9.02-0.54,18.05-0.78,27.08-1.06c2.03-0.06,4.07-0.16,6.1-0.16
		c6.95,0.01,13.9-0.35,20.85-0.22c6.45,0.12,12.92-0.04,19.35,0.41c5.57,0.39,11.14-0.1,16.69,0.5c6.97,0.76,13.98,0.67,20.98,0.94
		c3.09,0.12,6.18,0.75,9.29,0.69c6.58-0.12,13.09,1.2,19.68,1.05c3.04-0.07,6.06,0.64,9.11,0.77c0.71,0.03,1.41,0.32,1.8,1.02
		c0.28,0.95,0.94,0.67,1.58,0.5c0.79-0.2,1.54-0.27,2.02,0.59c-7.28-0.46-14.55-0.96-21.83-1.38c-2.15-0.12-4.3-0.31-6.45-0.38
		c-7.54-0.24-15.04-0.95-22.58-1.2c-4.9-0.16-9.8-0.47-14.7-0.7c-6.64-0.31-13.28-0.43-19.92-0.72
		c-13.79-0.61-27.58-0.09-41.37-0.31c-6.36-0.1-12.69,0.36-19.05,0.44c-8.07,0.1-16.14,0.56-24.2,1.05
		c-6.33,0.38-12.65,0.75-18.98,1.07C41.13,24.09,35.52,24.5,29.92,24.84z"/>
	<path class="st17" d="M235.81,25.95c1.52-0.21,3-0.21,4.33,0.71C238.67,26.61,237.21,26.44,235.81,25.95z"/>
	<path class="st18" d="M232.21,24.86c-5.71-0.6-11.42-0.99-17.16-1.21c-3.34-0.13-6.77-0.12-10.1-0.9c-1.28-0.3-2.59,0.1-3.89,0.1
		c-3.79,0.02-7.49-1-11.26-0.85c-5.16,0.2-10.33-0.08-15.43-0.51c-5.68-0.48-11.36-0.24-17-0.69c-3.94-0.31-7.9,0.13-11.82-0.57
		c-1.26-0.23-2.62-0.18-3.93,0.18c-1.74,0.48-3.44-0.23-5.17-0.23c-7.08,0-14.17-0.28-21.23,0.08c-6.23,0.32-12.47-0.04-18.68,0.33
		c-5.67,0.34-11.35,0.26-17.01,0.7c-4.95,0.39-9.93,0.33-14.86,0.75c-6.67,0.56-13.38,0.4-20.02,1.32
		c-1.65,0.23-3.35,0.05-5.03,0.06c1.2-0.65,2.57-0.55,3.84-0.65c4.71-0.38,9.43-0.49,14.14-0.8c6.38-0.42,12.74-1.1,19.12-1.34
		c4.66-0.18,9.32-0.41,13.98-0.62c5.14-0.23,10.3-0.17,15.41-0.6c5.64-0.48,11.27,0.01,16.89-0.34c10.79-0.68,21.58-0.32,32.37-0.24
		c5.86,0.04,11.74,0.08,17.6,0.33c6.82,0.29,13.65,0.3,20.44,0.78c6.97,0.49,13.96,0.82,20.93,1.21c4.65,0.26,9.3,0.66,13.96,0.92
		c6.07,0.35,12.18,0.37,18.23,1.27c1.94,0.29,3.92,0.36,5.85,0.81c-0.99,1.49-2.21,1.79-4.07,1.54c-4.57-0.61-9.2-0.83-13.81-1.15
		C233.74,24.49,232.97,24.75,232.21,24.86z"/>
	<path class="st11" d="M255.53,24.39c2.98,0.16,5.6,0.99,7.33,3.7c0.98,1.53,0.38,3.38-1.36,3.24c-2.93-0.22-6-0.29-8.48-2.31
		c-0.92-0.75-1.73-1.54-1.22-2.88c0.49-1.3,1.5-1.78,2.83-1.75C254.94,24.39,255.23,24.39,255.53,24.39z"/>
	<path class="st19" d="M266.02,34.22c-0.66-0.1-1.13-0.46-1.14-1.15c-0.01-0.74,0.42-1.27,1.18-1.33c0.76-0.05,1.31,0.4,1.25,1.17
		C267.25,33.61,266.77,34.09,266.02,34.22z"/>
</g>
</svg>
