<?xml version="1.0" encoding="utf-8"?>
<!-- Generator: Adobe Illustrator 23.0.2, SVG Export Plug-In . SVG Version: 6.00 Build 0)  -->
<svg version="1.1" id="Camada_1" xmlns="http://www.w3.org/2000/svg" xmlns:xlink="http://www.w3.org/1999/xlink" x="0px" y="0px"
	 viewBox="0 0 101.22 121.02" style="enable-background:new 0 0 101.22 121.02;" xml:space="preserve">
<style type="text/css">
	.st0{fill:#323232;}
	.st1{fill:#FDE7E3;}
	.st2{fill:#C4B3B0;}
	.st3{fill:#C9B8B5;}
	.st4{fill:#CDBBB8;}
	.st5{fill:#575352;}
	.st6{fill:#B7A7A5;}
	.st7{fill:#7C7372;}
	.st8{fill:#857D7C;}
	.st9{fill:#BAA7A1;}
	.st10{fill:#4D4D4D;}
	.st11{fill:#63686F;}
	.st12{fill:#7D8189;}
	.st13{fill:#85A397;}
	.st14{fill:#85A799;}
	.st15{fill:#B6AFAF;}
	.st16{fill:#959F9D;}
	.st17{fill:#878890;}
	.st18{fill:#88B4AC;}
	.st19{fill:#91BBAD;}
	.st20{fill:#E2FAF1;}
	.st21{fill:#ECEFEC;}
	.st22{fill:#83FEF3;}
	.st23{fill:#DBFAF1;}
	.st24{fill:#C5FEE9;}
	.st25{fill:#DDF5EB;}
	.st26{fill:#EEF8F1;}
	.st27{fill:#73E1F3;}
	.st28{fill:#73FCF6;}
	.st29{fill:#58DFF7;}
	.st30{fill:#A6FEF5;}
	.st31{fill:#A8FEE3;}
	.st32{fill:#60CFEF;}
	.st33{fill:#73FDEF;}
	.st34{fill:#71EAFA;}
	.st35{fill:#62F5F3;}
	.st36{fill:#6BB9CF;}
	.st37{fill:#CDFEE7;}
	.st38{fill:#BAFEE8;}
	.st39{fill:#E4FEEE;}
	.st40{fill:#C2FEE4;}
	.st41{fill:#F4FEF8;}
	.st42{fill:#BFFEE5;}
	.st43{fill:#96F5F2;}
	.st44{fill:#8AFEDF;}
	.st45{fill:#8CFDE7;}
	.st46{fill:#90FCF2;}
	.st47{fill:#65D3F0;}
	.st48{fill:#5EEFF8;}
	.st49{fill:#61F1F7;}
	.st50{fill:#71F8F8;}
	.st51{fill:#DFFEED;}
	.st52{fill:#E5FEF0;}
	.st53{fill:#B3FEE5;}
	.st54{fill:#9DFEE8;}
	.st55{fill:#A8FEEA;}
	.st56{fill:#B8FEE7;}
	.st57{fill:#A3FEF7;}
	.st58{fill:#6DD1EC;}
	.st59{fill:#5EEAFA;}
	.st60{fill:#63F9F3;}
	.st61{fill:#5EF1F9;}
	.st62{fill:#35FDDA;}
	.st63{fill:#68C2DF;}
	.st64{fill:#C7FEE7;}
	.st65{fill:#36FED9;}
	.st66{fill:#98FEFB;}
</style>
<g>
	<path class="st0" d="M101.19,67.35c0,4.44,0,8.88,0,13.32c-0.32,1.22-0.3,2.48-0.42,3.71c-0.12,1.32-0.62,2.42-1.43,3.41
		C93.02,95.5,85,99.76,74.91,99.78c-5.04,0.01-10.07,0.04-15.11-0.02c-1.6-0.02-2.74,0.54-3.67,1.81c-1.21,1.65-2.71,3.05-4.22,4.41
		c-3.22,2.89-5.58,6.59-8.94,9.33c-4.02,3.28-8.31,5.63-13.85,5.44c-3.57-0.13-7.17-0.08-10.74-0.3c-1.59-0.1-2.97-0.76-4.36-1.53
		c-4.8-2.66-8.39-6.5-11.14-11.18c-1.64-2.8-2.33-5.87-2.48-9.09c-0.01-0.12,0-0.24,0-0.36C0.51,73.52,0.05,48.76,0.25,24
		c0.03-3.73-0.21-7.56,1.54-11.11c0.48-0.97,0.89-1.98,1.6-2.79c2.51-2.89,5.1-5.69,8.07-8.14c1.88-1.55,4.08-1.52,6.26-1.75
		c0.7-0.07,1.43,0.19,2.11-0.18c3.72,0,7.44,0,11.16,0c0.79,0.42,1.65,0.19,2.46,0.21c4.01,0.09,6.83,2.47,9.44,5.02
		c14.48,14.1,29.46,27.66,43.73,41.99c3.72,3.74,7.59,7.31,11.16,11.21c2.18,2.38,3.3,4.91,3.24,8.05
		C101.01,66.8,100.95,67.11,101.19,67.35z"/>
	<path class="st1" d="M9.14,30.22c-0.02-2.47-0.04-4.94-0.06-7.42c0.3-1.51,1.05-2.91,1.08-4.49c0.04-1.58,1.22-2.58,2.13-3.6
		c1.11-1.24,1.73-3.08,3.67-3.46c6.63-4.96,17.31-3.47,22.26,3.11c2.9,2.77,5.59,5.77,8.58,8.44c4.42,3.95,8.59,8.18,13.01,12.12
		c3.26,2.91,6.18,6.19,9.42,9.13c3.99,3.63,7.71,7.55,11.55,11.34c3.1,2.87,6.25,5.68,9,8.93c1.43,1.68,2,3.61,2.7,5.56
		c0,2.86,0,5.72,0,8.57c-0.46,1.47-0.6,3.08-2.01,4.08c-0.39,0.46-0.79,0.91-1.18,1.37c-1.87,2.62-4.57,4.01-7.53,4.99
		c-2.72,0.41-5.43,0.84-8.21,0.8c-5.94-0.09-11.87,0.01-17.81-0.05c-1.51-0.01-2.58,0.53-3.61,1.6
		c-5.01,5.23-9.67,10.82-14.97,15.77c-3.64,3.4-8.03,5.2-13.06,4.55c-3.38-0.44-6.74-1.56-9.05-4.19c-2.31-2.64-4.55-5.29-4.73-9.32
		c-0.2-4.55,0.01-9.1-0.25-13.64C9.44,73.23,9.72,62.04,9.52,50.85c-0.11-6.17-0.03-12.35-0.13-18.52
		C9.37,31.62,9.53,30.89,9.14,30.22z"/>
	<path class="st2" d="M9.14,30.22c1.12-0.23,0.6,0.69,0.61,1.03c0.06,2.46,0.02,4.91,0.04,7.37c0.11,11.92,0.07,23.85,0.43,35.76
		c0.21,6.83,0.16,13.65,0.25,20.48c0.05,4.17,0.89,8.04,3.75,11.27c1.78,2.01,3.91,3.45,6.5,4.2c0.23,0.07,0.47,0.1,0.7,0.18
		c6.73,2.23,12.18-0.19,16.8-4.9c4.78-4.87,9.36-9.94,13.99-14.95c0.94-1.02,2.01-1.36,3.35-1.36c5.87,0.03,11.75-0.04,17.62,0
		c3.01,0.02,5.97-0.31,8.93-0.72c0.21,0.13,0.21,0.27,0.02,0.41c-2.57,0.45-5.05,1.22-7.73,1.17c-6.23-0.11-12.47,0.01-18.71-0.01
		c-1.43-0.01-2.48,0.46-3.46,1.51c-4.84,5.15-9.66,10.32-14.63,15.34c-3.77,3.81-8.49,5.57-13.83,4.89
		c-3.72-0.47-7.19-2.06-9.68-4.89c-3.01-3.43-4.57-7.56-4.4-12.28c0.14-3.77,0.13-7.56-0.04-11.33c-0.79-17.06-0.53-34.13-0.61-51.2
		C9.03,31.53,9.1,30.88,9.14,30.22z"/>
	<path class="st3" d="M80.67,55.48c-0.49-0.44-1-0.86-1.47-1.32c-6.18-6.03-12.25-12.17-18.56-18.06
		c-7.01-6.54-14.01-13.08-20.83-19.83c-0.59-0.58-1.31-1.06-1.59-1.9c1.62,0.92,2.77,2.38,4.1,3.64
		c7.86,7.43,15.73,14.85,23.53,22.35c5.16,4.96,10.21,10.05,15.31,15.08C81.01,55.62,80.85,55.63,80.67,55.48z"/>
	<path class="st4" d="M80.67,55.48c0.16-0.02,0.33-0.03,0.49-0.05c3.08,2.45,5.95,5.11,8.35,8.25c0.97,1.26,2.22,2.28,2.63,3.97
		c0.18,0.75,0.44,1.46,0.35,2.24c-0.25-0.32-0.64-0.61-0.74-0.98c-1.24-4.68-4.95-7.43-8.2-10.53
		C82.56,57.44,81.5,56.57,80.67,55.48z"/>
	<path class="st5" d="M15.97,11.25c-2.67,2.3-5.14,4.69-5.68,8.46c-0.15,1.08-0.24,2.29-1.21,3.09c0.13-3.34,0.96-6.41,3.45-8.8
		C13.6,12.99,13.96,11.08,15.97,11.25z"/>
	<path class="st6" d="M82.12,88.99c-0.01-0.14-0.01-0.28-0.02-0.41c2.71-1.08,5.11-2.63,7.2-4.67
		C87.67,86.68,85.14,88.17,82.12,88.99z"/>
	<path class="st7" d="M90.49,82.54c1.12-1.14,0.9-2.94,2.01-4.08C92.55,80.18,92.41,81.8,90.49,82.54z"/>
	<path class="st8" d="M60.16,42.87c4.6,4.4,9.2,8.79,13.79,13.19c3.27,2.89,6.26,6.08,9.44,9.07c1.23,1.15,2.76,2.32,3.18,3.81
		c0.95,3.31,1.41,6.91-0.22,10.1c-1.95,3.81-5.63,5.15-9.73,5.22c-4.56,0.08-9.11,0.01-13.67,0.02c-1.97,0-3.95-0.06-5.91,0.3
		c-0.93,0.17-1.96,0.26-2.86-0.05c-1.69-0.58-2.84,0.1-4,1.22c-3.8,3.66-7.3,7.6-10.99,11.37c-2.1,2.14-4.23,4.25-6.36,6.36
		c-4.38,4.36-11.53,3.74-15.28-1.21c-1.85-2.44-2.28-5.27-2.35-8.09c-0.17-6.71,0.14-13.44-0.09-20.15
		c-0.55-15.82-0.18-31.64-0.35-47.46c-0.02-2.23,0.04-4.37,0.85-6.5c1.02-2.69,2.95-4.61,5.43-5.63c1.62-0.66,3.65-0.35,5.5-0.38
		c2.86-0.05,4.91,1.39,6.83,3.27c6.03,5.91,12.23,11.64,18.32,17.5C54.49,37.53,57.12,40.42,60.16,42.87z"/>
	<path class="st9" d="M60.16,42.87c-0.61,0-0.96-0.45-1.34-0.82c-3.16-3.03-6.31-6.06-9.47-9.09C43.67,27.54,38.01,22.1,32.3,16.7
		c-1.59-1.51-3.41-2.59-5.78-2.3c-1.01,0.12-2.04,0.01-3.06,0.02c-3.25,0.03-6.63,2.69-7.62,5.77c-0.75,2.33-0.78,4.67-0.77,7.08
		c0.08,13.5-0.11,27,0.17,40.49c0.19,8.87,0.11,17.74,0.33,26.61c0.08,3.29,0.62,6.5,3.3,8.99c3.78,3.51,9.82,3.78,13.51,0.15
		c4.96-4.87,9.73-9.93,14.59-14.91c1.13-1.16,2.29-2.29,3.41-3.46c0.75-0.79,1.68-1.16,2.73-1.17c7.24-0.03,14.49-0.09,21.73-0.01
		c2.26,0.03,4.41-0.4,6.57-0.84c2.49-0.51,5.36-4.33,5.38-6.91c0.01-1.38-0.13-2.77,0.03-4.14c0.26-2.2-0.71-3.8-2.18-5.23
		c-3.22-3.14-6.25-6.47-9.69-9.38c-0.44-0.37-0.98-0.73-1.03-1.41c0.53,0.38,1.12,0.71,1.58,1.16c3.75,3.61,7.75,6.97,11,11.08
		c0.55,0.7,0.88,1.45,0.89,2.3c0.04,2.16,0.25,4.35-0.04,6.47c-0.45,3.38-2.99,5.3-5.83,6.51c-1.99,0.85-4.23,1.15-6.5,1.12
		C68.7,84.65,62.33,84.94,56,84.78c-3.56-0.09-5.76,1.04-8.01,3.47c-4.93,5.32-10.12,10.4-15.15,15.63
		c-3.79,3.94-11.62,3.93-15.49-1.45c-1.81-2.52-2.43-5.35-2.48-8.28c-0.14-7.68,0.04-15.36-0.16-23.04
		c-0.4-15.41-0.16-30.83-0.28-46.24c-0.03-4.44,1.79-7.84,5.57-10.2c1.69-1.05,3.59-0.73,5.41-0.88c3.19-0.26,5.73,1,8.01,3.2
		c8.41,8.13,16.89,16.17,25.34,24.26C59.26,41.75,59.88,42.16,60.16,42.87z"/>
	<path class="st10" d="M65.71,82.86c-4.14,0-8.28,0.03-12.42-0.02c-1.36-0.02-2.41,0.4-3.35,1.39c-5.2,5.47-10.45,10.91-15.66,16.37
		c-1.12,1.18-2.26,2.36-3.63,3.2c-2.08,1.27-4.48,1.23-6.79,0.9c-4.6-0.66-7.24-4.12-7.25-9.35c-0.04-13.26,0.16-26.52-0.13-39.77
		c-0.21-9.71-0.13-19.42-0.3-29.13c-0.04-1.99,0.26-3.94,0.47-5.9c0.22-2.01,3.7-4.85,6.21-5.43c4.06-0.93,7.26,0.62,10.09,3.31
		c5.94,5.67,11.85,11.37,17.79,17.04c8.53,8.16,17.03,16.37,25.64,24.44c2.63,2.46,5.13,5.04,7.76,7.5
		c3.12,2.92,3.29,10.32-0.32,13.15c-1.67,1.31-3.47,2.31-5.7,2.29c-4.14-0.03-8.28-0.01-12.42-0.01
		C65.71,82.84,65.71,82.85,65.71,82.86z"/>
	<path class="st11" d="M79.94,79.23c-0.97,0.61-1.98,1.08-3.17,1.09c-7.42,0.08-14.83,0.53-22.26,0.38c-1-0.02-1.97-0.3-3.02-0.1
		c-1.85,0.34-3.25,1.23-4.53,2.6c-5.2,5.54-10.43,11.05-15.77,16.47c-1.35,1.37-2.98,2.48-5.11,2.65c-2.62,0.2-4.49-1.08-5.68-3.08
		c-0.94-1.58-1.69-3.36-1.68-5.39c0.05-11.63,0.22-23.26-0.06-34.88c-0.29-11.56-0.15-23.12-0.28-34.67
		c-0.02-1.69,0.52-3.02,1.81-4.07c0.32,0.36,0.32,0.8,0.12,1.18c-0.83,1.56-0.67,3.25-0.67,4.92c0,14.19-0.17,28.38,0.06,42.57
		c0.14,8.31,0.26,16.62,0.3,24.94c0,0.6,0.03,1.2,0.22,1.77c0.61,0.78,0.46,1.85,1.03,2.65c0.19,0.17,0.34,0.37,0.46,0.59
		c0.06,0.15,0.13,0.3,0.21,0.45c1.79,2.44,5.03,2.06,7.15,0.35c3.5-2.82,6.28-6.37,9.42-9.57c2.12-2.01,4.06-4.19,6.13-6.25
		c1.52-0.94,2.48-2.49,3.92-3.52c0.17-0.08,0.34-0.13,0.52-0.18c0.55-0.23,1.09-0.48,1.68-0.58c0.82-0.46,1.71-0.48,2.61-0.48
		c7.06,0.01,14.12,0.01,21.18,0c1.19,0,2.39,0.08,3.57-0.23C78.77,78.66,79.44,78.63,79.94,79.23z"/>
	<path class="st12" d="M79.94,79.23c-8.55,0.78-17.13,0.2-25.69,0.35c-1.33,0.02-2.61,0.11-3.81,0.72
		c-0.21-0.45-0.06-0.83,0.24-1.18c0.7-0.84,1.58-1.17,2.69-1.15c8.09,0.08,16.18-0.12,24.27,0.12c1.5,0.05,2.55-0.97,3.73-1.57
		c0.68-0.34,0.06-1.56,0.19-2.38c0.02-0.67-0.05-1.34,0.15-1.99c-0.12-2.33-1.98-3.52-3.47-4.75c-1.75-1.45-3.26-3.12-4.88-4.67
		C67.18,56.85,60.96,51,55.08,44.79c-0.91-0.97-2.46-1.36-2.73-2.93c0.04-0.18,0.13-0.32,0.27-0.43c0.74,0.3,1.29,0.84,1.85,1.39
		c5.91,5.77,11.8,11.56,17.75,17.29c2.45,2.37,4.86,4.81,7.56,6.87c3.53,2.68,3.64,6.17,2.97,9.94
		C82.5,78.33,80.74,78.28,79.94,79.23z"/>
	<path class="st13" d="M20.17,96.55c-0.73-0.46-0.7-1.19-0.7-1.92c0-2.04,0.04-4.07-0.01-6.11c-0.46-20.4-0.35-40.81-0.38-61.22
		c0-2.43-0.3-4.9,1.11-7.11c2.18-2.75,5.21-1.7,7.98-1.76c0.31-0.01,0.68,0.26,0.92,0.49c4.38,4.24,8.74,8.5,13.1,12.76
		c-0.22,0.35-0.55,0.42-0.93,0.4c-0.17-0.03-0.34-0.08-0.49-0.17c-1.89-1.69-3.62-3.54-5.41-5.33c-0.5-0.5-1.01-0.99-1.66-1.31
		c-0.35-0.24-0.67-0.51-0.95-0.82c-1.56-1.7-3.17-3.36-4.89-4.9c-1.51-0.47-2.99-0.41-4.46,0.14c-1.24,0.42-2.03,1.36-2.73,2.4
		c-0.62,0.83-0.66,1.78-0.66,2.75c0,13.43-0.16,26.87,0.06,40.3c0.11,6.81,0.27,13.62,0.29,20.44c0,0.79,0.1,1.55,0.31,2.31
		c0.11,2.34,0.04,4.67,0.04,7.01C20.72,95.52,20.75,96.14,20.17,96.55z"/>
	<path class="st14" d="M41.03,31.77c0.39-0.02,0.78-0.05,1.17-0.07c3.69,3.02,7.02,6.42,10.43,9.73c-0.02,0.13-0.04,0.26-0.06,0.39
		c-0.96,0.62-1.43-0.21-1.95-0.7c-2.54-2.45-4.92-5.05-7.66-7.29c-0.55-0.45-1.06-0.96-1.67-1.35
		C41.09,32.28,40.97,32.06,41.03,31.77z"/>
	<path class="st15" d="M82.36,71.97c-0.08,0.63-0.17,1.25-0.25,1.88c-0.32,0.5-0.17,1.05-0.15,1.57c0.02,0.43,0.07,0.98-0.32,1.14
		c-1.46,0.62-2.42,1.96-4.43,1.89c-8.26-0.28-16.53-0.15-24.79-0.09c-2.46,0.02-4.36,1.12-6.11,3.07
		c-5.53,6.13-11.48,11.88-17.33,17.7c-1.8,1.79-5.54,1.67-7.66-0.13c-0.12-0.12-0.25-0.25-0.37-0.37c-0.28-0.27-0.35-0.6-0.21-0.96
		c0.11-0.14,0.25-0.24,0.42-0.28c0.61,0,1.1,0.44,1.7,0.45c0.66,0.3,1.29,0.72,2.08,0.61c1.51,0.13,2.55-0.65,3.58-1.65
		c6.17-5.99,11.92-12.4,18.08-18.41c0.63-0.62,1.19-1.37,2.18-1.47c4.36-0.51,8.73-0.18,13.09-0.24c4.79-0.06,9.57,0.01,14.36-0.03
		c2.22-0.02,3.77-1.1,4.37-2.93c0.05-0.4,0.26-0.75,0.28-1.16c0.12-0.46,0.29-0.9,0.65-1.24C82.25,70.97,82.23,71.56,82.36,71.97z"
		/>
	<path class="st16" d="M21.31,99.01c0.94-0.06,1.59,0.71,2.54,0.79c2.41,0.2,4.27-0.36,6.03-2.26c5.01-5.4,10.25-10.59,15.39-15.87
		c0.37-0.38,0.65-0.86,1.02-1.25c1.24-1.34,2.54-2.32,4.6-2.3c8.33,0.1,16.67,0.04,25,0.04c4.01,0,4.97-0.67,6.22-4.31
		c0.06,0.59,0.08,1.19,0.19,1.77c0.08,0.43,0.21,0.99-0.17,1.16c-1.38,0.63-2.54,2.1-4.05,1.98c-6.15-0.51-12.29-0.07-18.44-0.23
		c-1.91-0.05-3.83,0.05-5.73-0.03c-1.21-0.05-2.24,0.2-3.07,1.09c-0.99-0.33-1.3,0.55-1.84,1.02c-0.12,0.02-0.24,0.04-0.36,0.06
		c-1.37,1.02-2.51,2.27-3.62,3.56c-2,2.09-3.86,4.31-6.1,6.15c-2.99,2.37-5.58,5.16-8.24,7.88c-1.31,1.34-2.71,2.45-4.66,2.68
		c-1.84,0.22-3.4-0.27-4.72-1.57C21.3,99.26,21.31,99.13,21.31,99.01z"/>
	<path class="st17" d="M21.29,99.39c1.69,1.1,3.47,1.25,5.44,0.81c1-0.22,1.75-0.59,2.43-1.3c2.69-2.78,5.44-5.49,8.53-7.84
		c0.38-0.29,0.71-0.64,1.22-0.66c-3.26,3.25-5.97,7.04-9.67,9.84C26.52,102.3,23.22,101.9,21.29,99.39z"/>
	<path class="st16" d="M20.95,97.55c0,0.36-0.01,0.72-0.01,1.09c-1.24-0.33-0.39-1.43-0.76-2.08c0-2.89,0-5.79,0.01-8.68
		c-0.22-0.32-0.17-0.69-0.17-1.04c0.1-9.92-0.22-19.84-0.18-29.76c0-0.65-0.14-1.33,0.28-1.92c1.29,0.01,0.97,1.03,0.95,1.7
		c-0.1,6.05,0.23,12.1,0.21,18.15c-0.02,7.07-0.09,14.15,0.05,21.22C21.34,96.73,21.32,97.18,20.95,97.55z"/>
	<path class="st18" d="M48.99,80.62c-0.05-0.57-0.62-1.28,0.3-1.63c0.64-0.24,1.27-0.22,1.53,0.6c-0.13,0.23-0.25,0.47-0.38,0.7
		C49.99,80.54,49.53,80.75,48.99,80.62z"/>
	<path class="st12" d="M45.01,84.25c0.82-1.58,1.97-2.83,3.62-3.56C47.54,81.99,46.4,83.25,45.01,84.25z"/>
	<path class="st19" d="M82.36,71.97c-0.19-0.21-0.39-0.43-0.58-0.64c-0.49,0.02-0.83-0.23-1.12-0.58c-2.98-3.11-6.1-6.09-9.3-8.97
		c-3.53-3.16-6.87-6.52-10.28-9.79c-5.18-4.98-10.51-9.83-15.49-15.01c-0.96-1-2.13-1.75-3.09-2.75c-0.56-0.59-1.33-1.1-1.14-2.1
		c1.91,0.68,3.08,2.34,4.54,3.58c1.81,1.54,3.4,3.33,5.09,5.01c0.46,0.46,0.86,1,1.58,1.1c7.72,7.24,15.03,14.9,22.84,22.05
		c1.92,1.76,3.92,3.49,5.63,5.49C81.67,70.1,82.54,70.78,82.36,71.97z"/>
	<path class="st20" d="M41.35,32.13c3.79,3.66,7.57,7.33,11.38,10.97c3.77,3.61,7.58,7.16,11.33,10.78
		c4.88,4.7,9.76,9.4,14.57,14.16c0.82,0.81,2.18,1.15,2.41,2.53c-0.7,0.89-0.94,0.95-1.82,0.21c-0.99-0.84-1.86-1.8-2.79-2.71
		c-0.51-0.5-1.01-0.99-1.7-1.23c-1.88-1.09-3.39-2.62-4.89-4.15c-2.64-2.75-5.36-5.41-8.19-7.98c-3.7-3.37-7.38-6.8-10.89-10.39
		c-1.71-1.75-3.74-3.16-5.33-5.04c-2.11-2-4.12-4.09-6.19-6.13c-3.4-3.82-7.28-7.13-11.03-10.59c-0.15-0.07-0.28-0.16-0.41-0.26
		c-0.4-0.38-0.74-0.84-1.33-0.96c-0.65-0.36-1.59-0.03-2.06-0.83c0.11-0.77,0.69-0.84,1.29-0.85c0.53-0.01,1.05-0.01,1.47-0.39
		c0.8-0.34,1.18,0.3,1.63,0.73c1.46,1.37,2.75,2.92,4.34,4.17c0.24,0.24,0.48,0.47,0.72,0.71c2.57,2.11,4.68,4.69,7.16,6.9
		c0,0,0.01-0.01,0.01-0.01C41.14,31.89,41.24,32.01,41.35,32.13z"/>
	<path class="st14" d="M20.18,55.15c0,10.91,0,21.81,0,32.72c-0.53-0.62-0.34-1.37-0.34-2.07c-0.02-4.02,0.13-8.04-0.03-12.05
		c-0.66-16.46-0.17-32.92-0.35-49.37c-0.01-1.2,0.16-2.26,1.09-3.09c0.41,0.34,0.5,0.79,0.47,1.29c-0.22,1.13-0.1,2.27-0.1,3.4
		c-0.01,8.91,0,17.82-0.01,26.73C20.9,53.58,21.07,54.53,20.18,55.15z"/>
	<path class="st21" d="M20.55,22.37c0-0.36,0-0.73-0.01-1.09c0.52-1.12,1.55-1.63,2.55-2.19c1.35-0.31,2.72-0.09,4.08-0.13
		c0.25,0.07,0.33,0.22,0.24,0.46c-0.52,1.51-2.15,0.21-2.89,1.15c-0.18,1.89-1.77,2.26-3.12,2.9
		C20.78,23.36,20.14,23.27,20.55,22.37z"/>
	<path class="st19" d="M41.02,31.78c-2.68-1.99-4.94-4.42-7.16-6.9c1.54,0.46,2.31,1.85,3.36,2.87
		C38.55,29.03,40.03,30.18,41.02,31.78z"/>
	<path class="st19" d="M27.41,19.42c-0.02-0.1-0.03-0.2-0.03-0.3c0.36-0.25,0.72-0.3,1.07,0.03c1.56,1.67,3.13,3.35,4.69,5.02
		c-1.56-0.64-2.38-2.14-3.63-3.13C28.82,20.49,28.35,19.65,27.41,19.42z"/>
	<path class="st14" d="M28.45,19.15c-0.36-0.01-0.71-0.02-1.07-0.03c-1.43-0.01-2.86-0.03-4.29-0.04
		C24.88,18.59,26.67,18.47,28.45,19.15z"/>
	<path class="st22" d="M81.41,72.44c-0.02,0.35-0.04,0.7-0.07,1.06c-0.14,0.54-0.39,1.02-0.92,1.25c-1.37,0.6-2.71,1.27-4.27,1.26
		c-8.2-0.03-16.4,0.76-24.59,0.29c-2.79-0.16-4.66,0.74-6.41,2.69c-1.75,1.97-3.75,3.71-5.53,5.64c-0.4,0.59-0.81,1.19-1.33,1.69
		c-2.83,2.76-5.47,5.69-8.17,8.58c-1.52,1.62-3.11,3.15-5.16,4.1c-0.93,0.23-1.65-0.16-2.31-0.76c-1.08-0.59-0.83-1.64-0.83-2.56
		c-0.02-11.14,0.01-22.28-0.02-33.42c-0.01-3.11,0.22-6.22-0.31-9.32c-0.36-2.09,0.46-4.16,0.31-6.26
		c-0.48-6.87-0.34-13.75-0.35-20.63c0-0.66-0.07-1.33,0.12-1.96c0.18-0.62,0.6-1.07,1.27-1.08c0.63-0.01,0.92,0.47,1.07,1.03
		c0.25,0.93,0.43,1.85,0.42,2.83c-0.02,3.53-0.01,7.07-0.01,10.6c0,7.5,0.01,14.99-0.01,22.49c0,0.83,0.13,1.68-0.24,2.48
		c-1.22,0.71-0.96-0.4-0.99-0.89c-0.08-1.62-0.03-3.24-0.03-4.86c0-1.5,0.06-3-0.13-3.99c0.35,3.63,0.18,7.79,0.25,11.93
		c0.16,9.77,0.34,19.53,0.25,29.3c-0.01,0.92-0.39,2.23,0.51,2.67c0.9,0.44,1.89-0.42,2.72-1c0.1-0.07,0.18-0.16,0.26-0.24
		c4.13-4.41,8.15-8.92,12.43-13.2c2.36-1.77,4.34-3.93,6.36-6.04c1.21-1.26,2.52-1.83,4.28-1.77c8.3,0.27,16.59-0.58,24.89-0.36
		c0.42,0.01,0.84,0,1.25,0.01c1.01,0.15,1.77-0.48,2.64-0.81c0.74-0.28,0.51-0.8,0.46-1.3c0.02-0.28,0.11-0.52,0.33-0.71
		C80.54,71.09,81.23,71.4,81.41,72.44z"/>
	<path class="st23" d="M20.55,22.37c0.1,0.63,0.56,0.71,1.08,0.71c0.16,0.19,0.23,0.41,0.22,0.66c-0.07,7.42-0.12,14.84,0.13,22.25
		c0.1,3.04-0.12,6.08-0.05,9.13c0.33,13.64,0.25,27.29,0.2,40.93c0,0.54,0.61,1.7-0.85,1.53c-0.11-0.01-0.22-0.02-0.33-0.04
		c-0.29-1.23-0.34-2.48-0.34-3.74c-0.03-12.31-0.08-24.62-0.13-36.94c0-0.58,0.14-1.21-0.29-1.72c-0.02-10-0.04-20.01-0.03-30.01
		C20.15,24.21,19.9,23.22,20.55,22.37z"/>
	<path class="st24" d="M21.28,97.59c0.9-0.25,0.7-1.01,0.7-1.63c0.01-9.16,0.27-18.33-0.06-27.47c-0.55-15.14-0.08-30.27-0.29-45.4
		c0.96-0.83,1.92-1.67,2.89-2.5c0.84,0.07,1.74-0.29,2.5,0.35c-1.01,0.65-1.16,1.3-0.14,2.14c0.95,0.78,1.69,1.81,2.73,2.51
		c0.51,0.34,0.9,0.77,0.85,1.45c-0.27,0.58-0.06,0.99,0.4,1.4c0.71,0.64,1.46,1.24,2.16,1.89c0.54,0.5,1.31,0.97,0.79,1.92
		c-1.09,0.55-1.9-0.3-2.84-0.68c0.05,2.59,1.38,4.65,2.1,6.9c0.41,1.29,1.43,2.59,0.44,4.06c-1.16,0.04-1.28-0.95-1.53-1.68
		c-1.28-3.73-2.78-7.38-4.35-11c-0.35-0.81-0.55-1.63-0.35-2.44c0.3-1.23-0.05-1.97-1.28-2.29c-1.17-0.8-1.14,0.02-1.06,0.81
		c0.39,3.89-0.14,7.79,0.27,11.69c-0.1,4.52-0.54,9.03,0.31,13.55c0.42,2.21,0.09,4.53,0.11,6.8c0.01,0.78-0.01,1.55,0.04,2.33
		c-0.58,2.15,0.54,4.2,0.34,6.35c-0.1,1.03-0.38,2.12,0.1,3.16c-0.72,1.58-1.22,0.79-1.71-0.16c-0.56-10.07-0.42-20.15-0.45-30.22
		c0-0.64,0.16-1.31-0.17-1.93c-0.21-4.24,0.32-8.5-0.31-12.73c-0.08-0.52,0.16-1.42-0.73-1.33c-0.69,0.07-0.76,0.84-0.74,1.45
		c0.15,6.1-0.27,12.2,0.25,18.3c0.19,2.25,0.28,4.54-0.15,6.8c-0.39,2.04,0.23,4.05,0.23,6.08c-0.01,13.18,0.01,26.35,0.03,39.53
		c0,0.89-0.12,1.8,0.29,2.65C22.04,98.35,21.56,98.17,21.28,97.59z"/>
	<path class="st25" d="M38.93,84.66c2.5-2.91,5.31-5.52,8.03-8.22c0.7-0.7,1.71-0.81,2.69-0.81c1.86-0.01,3.72,0.02,5.57-0.01
		c7.06-0.1,14.12-0.17,21.18-0.37c1.77-0.05,3.41-0.85,4.94-1.77c-0.36,2.34-2.23,3.94-4.71,3.95c-9.44,0.01-18.89-0.01-28.33-0.01
		c-0.03-0.05-0.06-0.11-0.07-0.16c-0.01-0.06-0.01-0.17-0.02-0.17c-0.58-0.07-0.76,0.47-1.07,0.77c-2.1,2.05-4.15,4.15-6.25,6.2
		c-0.53,0.52-1.02,1.23-1.96,0.9c-0.03-0.01-0.06-0.09-0.06-0.13C38.88,84.78,38.91,84.72,38.93,84.66z"/>
	<path class="st26" d="M38.93,84.66c0.79,0.2,1-0.53,1.38-0.91c2.14-2.09,4.23-4.23,6.37-6.33c0.72-0.71,1.51-1.41,2.73-0.62
		c-0.43,0.24-0.77,0.43-1.11,0.62c-6.78,6.97-13.58,13.92-20.34,20.91c-0.89,0.92-1.93,0.75-3,0.67c0.22-1.52,1.82-1.56,2.64-2.46
		c2.56-2.82,5.24-5.53,7.87-8.28C36.62,87.06,37.77,85.86,38.93,84.66z"/>
	<path class="st25" d="M81.41,72.44c-0.62-0.32-0.96-1.11-1.79-1.07c-1.29-0.16-1.89-1.3-2.82-1.98c-0.58-1.07-2.13-1.54-1.93-3.1
		c1.91,0.66,2.81,2.5,4.28,3.67c0.55,0.43,0.94,1.42,1.9,0.6c0.24,0.25,0.49,0.51,0.73,0.76C81.65,71.7,81.53,72.07,81.41,72.44z"/>
	<path class="st27" d="M45.74,38.91c1.3,1.14,2.64,2.24,3.89,3.43c6.66,6.36,13.3,12.74,19.94,19.12c0.25,0.24,0.44,0.56,0.66,0.84
		c-0.84,0.65-1.32-0.05-1.81-0.52c-1.34-1.28-2.64-2.61-3.96-3.92c-0.64-0.64-1.31-1.23-2.29-1.28c-0.49-0.12-0.99-0.21-1.46-0.4
		c-0.39-0.22-0.71-0.5-0.96-0.87c-2.47-3.23-5.56-5.86-8.47-8.66c-1.92-1.85-3.95-3.59-5.75-5.55c-0.33-0.36-0.59-0.75-0.6-1.26
		C45.02,39.35,45.07,38.85,45.74,38.91z"/>
	<path class="st28" d="M45.74,38.91c-0.34,0.29-0.36,0.68-0.35,1.08c-0.64,0.4-1.13-0.14-1.68-0.28c-0.23-0.13-0.43-0.3-0.6-0.5
		c-3.37-3.56-6.79-7.08-10.42-10.38c-1.94-1.77-3.91-3.51-5.79-5.36c-0.44-0.43-1.18-0.87-0.62-1.64c0.65-0.89,1.25-0.17,1.84,0.17
		l0,0c3.15,3.02,6.46,5.88,9.53,8.99c0.63,0.64,1.22,1.33,1.99,1.81C41.76,34.74,43.9,36.67,45.74,38.91z"/>
	<path class="st29" d="M62.29,56.22c0.21-0.83,0.55-0.29,0.86-0.08c2.04,1.39,3.56,3.35,5.36,5c0.52,0.47,0.9,1.15,1.73,1.16
		c1.54,1.34,3.08,2.67,4.63,4.01c0.53,1.1,1.92,1.53,2.21,2.82c-0.05,0.54-0.46,0.83-0.81,1.16c-0.15,0.09-0.31,0.13-0.48,0.14
		c-0.36-0.03-0.65-0.2-0.9-0.46c-1.05-1.53-2.52-2.68-3.78-4.02c-2.56-2.73-5.18-5.39-7.9-7.97C62.73,57.52,61.98,57.12,62.29,56.22
		z"/>
	<path class="st30" d="M28.11,21.99c-0.54,0.04-1.21-0.65-1.58,0.17c-0.29,0.62,0.34,0.99,0.72,1.3c5.28,4.3,10.21,8.96,14.93,13.86
		c0.49,0.51,0.93,1.07,1.39,1.61c-0.9,0.58-1.45-0.1-1.99-0.61c-1.52-1.42-2.98-2.9-4.45-4.37c-1.72-1.72-3.4-3.48-5.42-4.89
		c-0.66-0.46-1.63-0.88-1.44-2.03c-1.37-1.31-2.76-2.61-4.11-3.94c-0.41-0.4-1.01-0.78-0.79-1.49c0.26-0.83,1.03-0.65,1.66-0.69
		C27.5,21.16,27.89,21.49,28.11,21.99z"/>
	<path class="st30" d="M39.63,32.79c-0.22-0.08-0.51-0.09-0.66-0.24c-3.53-3.62-7.58-6.7-10.86-10.57c0.22,0.07,0.51,0.08,0.66,0.23
		C32.33,25.81,36.37,28.91,39.63,32.79z"/>
	<path class="st31" d="M23.79,37.49c0.5,0.56,0.34,1.25,0.34,1.89c0.02,3.42,0.11,6.84-0.01,10.25c-0.23,6.77,0.75,13.49,0.74,20.25
		c1.22,2.7,1.05,5.58,1.07,8.58c0.04-0.73,0.08-1.31,0.26-1.86c0.19-0.58,0.56-1.05,0.94-1.51c2.26-2.76,5.42-4.47,7.97-6.9
		c0.32-0.3,0.74-0.39,1.13-0.02c0.55,0.82,0.08,1.55-0.22,2.29c-1.23,2.87-2.96,5.53-3.71,8.6c-0.36,1.47-1.24,2.71-1.91,3.95
		c-0.97,1.79-1.22,3.8-2.19,5.61c-0.69,1.29-0.91,3.13-1.3,4.74c-0.19,0.79-0.36,1.64-1.37,1.56c-1.11-0.09-1.19-1.01-1.19-1.88
		c-0.02-1.92-0.08-3.84,0.01-5.75c0.18-4.19-0.58-8.36-0.39-12.55c0.03-0.61-0.2-1.18-0.31-1.76c-0.12-3.23,0.07-6.46-0.15-9.69
		c0.05-0.22,0.15-0.41,0.29-0.58C23.79,54.28,23.79,45.88,23.79,37.49z"/>
	<path class="st32" d="M39.3,82.86c-3.27,3.84-6.68,7.56-10.27,11.11c-0.46,0.46-0.86,0.97-1.29,1.46
		c-0.53,0.36-0.93,0.16-1.27-0.29c-0.23-0.47,0.05-0.93,0.05-1.39c1.15-2.01,2.75-3.84,2.56-6.39c0.04-0.18,0.1-0.34,0.2-0.49
		c1.13-2.1,2.85-3.96,2.7-6.59c0.14-0.33,0.24-0.69,0.46-0.98c0.48-0.44,0.86-0.89,0.96-1.6c0.15-1.07,0.75-1.83,1.93-1.94
		c0.98,0.33,0.92,1.14,0.84,1.92c-0.05,0.54-0.23,1.05-0.35,1.58c-0.1,0.47-0.22,0.99,0.16,1.36c0.43,0.41,0.92,0.08,1.33-0.12
		c1.5-0.74,2.96-1.53,4.03-2.91c1.02-1.33,2.11-2.63,3.75-3.24c0.62-0.23,1.41-0.75,1.66,0.47C44.65,77.85,41.91,80.3,39.3,82.86z"
		/>
	<path class="st33" d="M26.67,95.07c0.35,0.12,0.71,0.24,1.06,0.36c-0.86,1.22-2.3,1.66-3.44,2.49c-0.8,0.59-1.25-0.04-1.45-0.69
		c-0.17-0.55-0.12-1.18-0.12-1.78c-0.01-13.29-0.02-26.59,0-39.88c0-1.89-0.77-3.78-0.01-5.68c0.08-0.2,0.15-0.41,0.27-0.72
		c0.65,0.55,0.44,1.19,0.44,1.73c0.02,3.29,0,6.59,0.02,9.88c0,0.64-0.14,1.33,0.36,1.89c0,0.12,0,0.23,0,0.35
		c0.39,2.68,0.1,5.37,0.16,8.06c0.03,1.14,0.06,2.27,0.31,3.39c0.16,6.08,0.31,12.16,0.25,18.25
		C24.49,94.85,24.59,94.91,26.67,95.07z"/>
	<path class="st34" d="M39.3,82.86c2.28-2.76,4.67-5.42,7.17-7.98c0.4-0.76,1.03-1.07,1.89-1.11c5.78-0.24,11.55-0.07,17.33-0.13
		c2.32-0.02,4.63-0.09,6.95-0.03c0.62,0.02,1.01-0.21,1.37-0.64c0.7-0.45,1.38-0.4,2.06,0.03c0.45,0.42,0.93,0.83,0.64,1.55
		c-2.21,0-4.42,0.01-6.64,0c-6.93-0.03-13.84,0.59-20.77,0.35c-1.17-0.04-2.06,0.45-2.85,1.26c-1.84,1.88-3.71,3.73-5.57,5.59
		C40.43,82.22,40.02,82.77,39.3,82.86z"/>
	<path class="st35" d="M76.71,74.56c-0.24-0.36-0.48-0.72-0.72-1.08c0.08-0.3,0.3-0.54,0.4-0.83c0.11-0.84-0.96-1.48-0.4-2.39
		l0.01-0.06c0.79-0.51,1.28,0.11,1.85,0.49c0.61,0.42,0.96,1.18,1.78,1.34c0.6,0.4,0.86,0.93,0.1,1.34
		C78.78,73.86,77.95,74.74,76.71,74.56z"/>
	<path class="st36" d="M79.63,72.02c-0.46,0.8-0.87,0.45-1.35-0.01c-0.7-0.67-1.22-1.58-2.27-1.82c0.06-0.66,0.46-0.97,1.07-1.07
		c1.16,0.4,1.8,1.38,2.54,2.26C79.62,71.59,79.62,71.8,79.63,72.02z"/>
	<path class="st37" d="M30.27,27.04c4.26,3.04,7.76,6.9,11.47,10.54c0.54,0.53,0.99,1.23,1.84,1.35c0.12,0.13,0.23,0.25,0.35,0.38
		c2.4,2.17,4.91,4.23,6.82,6.89c0,0.67-0.44,1.14-0.99,1.01c-1.68-0.41-2.71,0.66-3.82,1.51c-1.56,1.2-2.88,2.72-4.56,3.73
		c-1.81,1.09-1.77,2.96-2.37,4.58c-0.58,1.16-1.56,1.93-2.6,2.64c-2.46,1.68-4.59,3.75-6.81,5.72c-1.17,1.04-2.2,2.16-2.66,3.71
		c-0.12,0.42-0.31,0.95-0.98,0.77c-0.53-0.3-0.75-0.77-0.71-1.35c0.22-2.69-0.46-5.34-0.37-8.02c0.53-0.16,1.09,0.07,1.6-0.5
		c2.62-2.93,5.18-5.9,7.91-8.73c0.28-0.29,0.62-0.58,0.52-1.16c-1.38,1.54-2.7,3.13-3.93,4.79c-0.57,0.77-1.13,1.53-1.83,2.19
		c-0.52,0.49-0.96,1.14-1.81,0.85c-0.86-0.29-1.11-1.02-1.19-1.83c-0.03-0.3-0.01-0.6,0.03-0.9c0.65-1.84,0.05-3.81,0.57-5.68
		c0.75-2.67,1.43-3.35,4.17-2.98c2.23,0.3,2.15-0.47,1.58-2.01c-1.6-4.3-2.87-8.73-4.63-12.98c-0.25-0.61-0.54-1.2-0.99-1.69
		c-0.81-1.41-0.76-2.98-0.84-4.52c0.04-0.2,0.14-0.37,0.29-0.5c1.26-0.3,1.92,0.75,1.68,1.46c-0.82,2.47,0.75,4.28,1.47,6.26
		c1.23,3.35,2.39,6.74,4.03,9.92c0.07,0.04,0.15,0.07,0.22,0.11c0.67,0.75,0.68,1.84,1.38,2.57c0.84,1.73,2.45,3.08,2.21,5.33
		c-0.1,0.92,0.91,0.97,1.42,0.44c1.99-2.06,4.09-4.01,6-6.15c0.61-0.68,0.2-1.2-0.32-1.67c-3.28-3.02-6.34-6.28-9.61-9.31
		c-0.49-0.46-1.2-0.86-0.95-1.76c-1-1.43-2.64-2.17-3.75-3.47C29.8,28.23,28.24,27.35,30.27,27.04z"/>
	<path class="st38" d="M33.87,32.08c2.36,1.93,4.31,4.31,6.7,6.23c1.79,1.44,2.81,3.68,4.91,4.88c0.73,0.42,0.75,1.15,0.11,1.83
		c-2.1,2.22-4.43,4.2-6.36,6.59c-0.46,0.57-1.2,0.74-1.97,0.34c-0.78-0.41-1-1-0.71-1.79c0.36-0.97,0.06-1.81-0.62-2.46
		c-0.68-0.66-1.01-1.47-1.35-2.3c-0.46-0.92-0.62-1.96-1.08-2.88c-0.29-1.9-0.81-3.77-1.7-5.43c-0.96-1.78-1.12-3.75-1.77-5.59
		c-0.15-0.43-0.32-1.01,0.17-1.3c0.46-0.28,0.77,0.22,1.02,0.51C31.93,31.53,32.85,31.88,33.87,32.08z"/>
	<path class="st39" d="M26.67,55.48c0.04,0.83-0.09,1.82,0.97,2.07c1,0.23,1.24-0.77,1.68-1.36c1.62-2.14,3.18-4.33,4.8-6.47
		c0.37-0.49,0.82-1.27,1.57-0.59c0.64,0.58,0.41,1.34-0.12,1.92c-1.73,1.89-3.37,3.9-5.29,5.59c-1.37,1.21-2.54,2.53-3.46,4.05
		c-0.89,1.48-1.4,1.05-1.94-0.18c0.13-7.8-0.64-15.59-0.37-23.39c1.25,0.24,1.06,1.26,1.09,2.1c0.08,2.74-0.02,5.49,0.14,8.24
		c0.23-0.72,0.18-1.47,0.18-2.21c-0.01-3.76-0.1-7.52,0.66-11.24c0.37-1.82-0.45-3.52-0.77-5.27c-0.23-1.21-0.62-2.49,0.52-3.51
		c0.73,1.35,0.08,3.04,1.08,4.33c0.98,2.17,1.74,4.41,2.37,6.71c0.23,0.83,0.22,1.56-0.55,2.06c-0.94,0.61-1.1,1.52-1.05,2.5
		c0.14,2.95-0.24,5.81-1.09,8.64C26.47,51.42,27.16,53.49,26.67,55.48z"/>
	<path class="st40" d="M25.95,69.88c1.28-4.16,5.01-6.17,7.85-8.97c1.48-1.46,3.45-2.32,4.75-4c0.82,0.95-0.12,2.21,0.56,3.18
		c-2,3.2-4.39,6.09-7.24,9.12c1.32-0.74,2.14-1.49,3.02-2.16c0.56-0.43,1.12-0.97,1.92-0.47c0.23,0.75-0.09,1.21-0.78,1.49
		c-2.5,2.2-4.98,4.42-7.5,6.59c-1.29,1.11-2.17,2.32-1.89,4.15c0.09,0.61,0.05,1.57-0.75,1.56c-0.9-0.01-0.68-1-0.64-1.58
		c0.22-2.99-0.47-5.93-0.38-8.91C25.23,70.18,25.59,70.67,25.95,69.88z"/>
	<path class="st41" d="M26.31,25.23c-0.14,1.88,0.18,3.69,0.78,5.48c0.58,1.71,0.26,3.43-0.05,5.14c-0.62,3.45-0.34,6.93-0.37,10.4
		c-0.01,0.97-0.15,1.9-0.39,2.84c-0.07,0.3-0.15,0.63-0.49,0.67c-0.34,0.04-0.49-0.28-0.63-0.54c-0.33-0.61-0.3-1.27-0.3-1.93
		c0-2.76,0.01-5.52-0.01-8.28c0-0.65,0.15-1.33-0.35-1.89c-0.59-3.88,0.27-7.8-0.32-11.69c-0.11-0.71-0.38-1.8,0.49-2.08
		c1.06-0.34,1.18,0.9,1.65,1.52C26.33,24.99,26.32,25.11,26.31,25.23z"/>
	<path class="st42" d="M60.18,55.08c0.24,0.24,0.49,0.48,0.73,0.72c1.96,1.51,3.69,3.26,5.25,5.19c-0.07,0.92-0.62,1-1.31,0.7
		c-0.41-0.18-0.8-0.43-1.22-0.59c-0.95-0.5-1.68-1.26-2.41-2.02c-2.12-2.18-4.36-4.24-6.69-6.2c-0.68-0.58-1.44-1.1-1.6-2.08
		c-0.02-0.28,0.04-0.54,0.18-0.79c0.23-0.31,0.54-0.49,0.92-0.54c1.27,0.29,1.83,1.45,2.7,2.23C57.91,52.78,58.97,54.01,60.18,55.08
		z"/>
	<path class="st43" d="M65.91,60.88c-1.79-1.57-3.55-3.17-5-5.08c0.46,0.14,0.93,0.28,1.39,0.42c3.85,3.89,7.7,7.78,11.54,11.68
		c0.58,0.59,1.3,1.07,1.45,1.98c-1.39,0.19-2.45-0.85-3.75-1c-0.67-2.46-2.44-4.13-4.19-5.8C66.69,62.45,66.24,61.7,65.91,60.88z"/>
	<path class="st43" d="M60.18,55.08c-1.48-0.32-2.11-1.68-3.13-2.56c-1.04-0.89-2.01-1.88-3.01-2.82c-1.12-0.09-1.65-0.97-2.27-1.72
		c-0.42-0.64-1.1-1.1-1.32-1.88c-2.17-2.26-4.35-4.53-6.52-6.79c0.61-0.05,0.98,0.45,1.47,0.67c2.56,3.06,5.7,5.53,8.5,8.34
		c1.72,1.73,3.46,3.45,5.19,5.18C59.54,53.96,60.09,54.36,60.18,55.08z"/>
	<path class="st44" d="M71.68,68.79c1.59-0.93,2.5,0.39,3.6,1.08c0.24,0.13,0.47,0.25,0.71,0.38c0.01,1.08,1.97,1.45,1.06,2.87
		c-2.12-0.07-4.12-0.56-5.96-1.67c-0.25-0.35-0.29-0.74-0.28-1.15C70.96,69.72,71.09,69.12,71.68,68.79z"/>
	<path class="st45" d="M26.67,95.07c-1.9,0.57-2.5,0.15-2.51-1.88c-0.02-6.21-0.02-12.42-0.02-18.63c-0.25-0.49-0.27-0.97,0.02-1.45
		c0.4,0.45,0.34,1,0.35,1.53c0.03,5.97,0.61,11.93,0.36,17.91c-0.02,0.42,0,0.84,0.06,1.25c0.05,0.36,0.23,0.7,0.67,0.71
		c0.35,0.01,0.61-0.26,0.61-0.55c-0.01-1.71,1.45-3.04,1.19-4.81c-0.1-0.69,0.16-1.27,0.66-1.78c0.28-0.29,0.66-0.67,0.67-1.02
		c0.08-2.55,1.81-4.37,2.69-6.55c0.62-1.55,0.96-3.3,1.83-4.73c0.95-1.56,1.04-3.53,2.42-4.84c0.42,0.12,0.62,0.41,0.68,0.82
		c0.01,1.06-0.45,2-0.93,2.87c-1.02,1.83-1.76,3.77-2.62,5.67c-0.13,0.24-0.26,0.48-0.38,0.72c-0.62,2.42-1.75,4.63-2.85,6.84
		l0,0.01c-0.73,2.26-1.15,4.66-2.85,6.49C26.69,94.12,26.68,94.6,26.67,95.07z"/>
	<path class="st46" d="M36.03,70.93c-0.12-0.23-0.24-0.47-0.36-0.7c0.12-0.72,0.24-1.44,0.36-2.16c0.01-0.6,0.5-0.95,0.73-1.43
		c-0.08-2.01,1.61-3.07,2.47-4.58c0.18-0.2,0.39-0.36,0.61-0.52c0.16-0.09,0.32-0.18,0.47-0.28c1.06-0.88,2.17-1.23,3.64-1
		c4.95,0.75,9.61,2.46,14.32,4.07c1.6,0.55,3.16,1.11,4.21,2.56c0.2,0.2,0.36,0.43,0.46,0.7c0.07,0.28,0.04,0.55-0.09,0.81
		c-0.11,0.15-0.26,0.24-0.44,0.28c-0.49,0.07-0.82-0.24-1.2-0.46c-0.22-0.13-0.39-0.33-0.6-0.48c-3.59-1.14-6.97-2.86-10.63-3.8
		c-1.94-0.5-3.76-1.4-5.77-1.68c-1.28-0.18-2.5-0.23-3.37,0.97c-0.95,0.57-1.13,1.6-1.5,2.51c-0.49,1.49-1.77,2.6-2.05,4.19
		c-0.03,0.17-0.09,0.34-0.18,0.49C36.82,70.74,36.59,71.17,36.03,70.93z"/>
	<path class="st22" d="M24.16,73.11c-0.01,0.48-0.01,0.97-0.02,1.45c-0.68-1.11-0.31-2.33-0.33-3.49c-0.06-2.68-0.02-5.36-0.01-8.04
		c0.73,1.47,0.26,3.04,0.34,4.55C24.22,69.42,24.16,71.26,24.16,73.11z"/>
	<path class="st47" d="M74.2,73.14c0.29,0.39,1.01,0.87-0.15,1.03c-0.47,0.06-0.96,0.02-1.44,0.02c-6.48,0-12.96-0.11-19.44,0.06
		c-2.22,0.06-4.52-0.08-6.71,0.63c-1.48-0.36-2.46,0.56-3.22,1.52c-1.6,2.04-3.39,3.78-5.8,4.82c-0.65,0.28-1.3,0.79-2,0.29
		c-0.76-0.54-0.5-1.4-0.44-2.15c0.09-1.13,1.18-2.17,0.3-3.38c-0.75-1.57-0.1-2.84,1.75-3.41c1.06,0.87,2.15,0.79,3.3,0.14
		c0.84-0.48,1.83-0.86,2.75-0.61c3.41,0.91,6.91-0.75,10.26,0.31c3.18,1,6.31-0.23,9.46,0.08c0.44,0.04,0.82-0.1,1.18-0.32
		c0.55-0.26,1.09-0.05,1.64,0.04c1.14,0.31,2.28,0.2,3.41,0.02c0.35,0,0.69,0,1.03,0.12c0.54,0.44,1.06,0.56,1.53-0.12
		c0.16-0.07,0.33-0.11,0.5-0.11C72.88,72.34,73.72,72.38,74.2,73.14z"/>
	<path class="st48" d="M37.11,72.75c-1.17,0.76-2.03,1.7-1.8,3.25c-0.77,0.49-1.44,1.05-1.45,2.08c-0.01,0.74-0.47,1.18-1.06,1.53
		c-0.2-1.57,0.73-2.89,1.26-4.18c0.61-1.49,1.02-3.12,1.97-4.48c0.24-0.24,0.48-0.48,0.72-0.72C37.79,70.93,37.96,71.76,37.11,72.75
		z"/>
	<path class="st49" d="M26.7,93.65c1.28-2.02,1.16-4.65,2.85-6.49C29.79,89.84,28.89,92.03,26.7,93.65z"/>
	<path class="st49" d="M29.56,87.16c0.74-2.37,1.26-4.83,2.85-6.84C32.76,83.13,31.03,85.09,29.56,87.16z"/>
	<path class="st50" d="M74.2,73.14c-0.81-0.02-1.6-0.08-2.18-0.75c-0.95,0.16-1.95-0.12-2.86,0.35c-1.22,0.49-2.43,0.63-3.65,0.01
		c-1.28-1-3-1.53-3.56-3.32c-0.06-0.39,0.04-0.72,0.35-0.98c0.12,0,0.24-0.01,0.37-0.01c0.31-0.01,0.61,0.08,0.81,0.31
		c1.81,2.08,4.19,2.55,6.78,2.4c0.36-0.02,0.71,0.08,1.06,0.17c2.03,0.23,3.69,1.63,5.73,1.82c-0.28,0.34-0.67,0.35-1.06,0.35
		C75.43,73.17,74.83,73.07,74.2,73.14z"/>
	<path class="st51" d="M26.67,55.48c-0.37-5.25,0.97-10.42,0.78-15.68c-0.03-0.92-0.03-2.24,1.66-2.19
		c0.59,0.02,0.25-0.63,0.21-1.01c-0.26-2.45-1.37-4.67-1.93-7.04c1.7,2.44,2.26,5.36,3.41,8.04c1.08,2.52,1.87,5.16,2.74,7.76
		c0.61,1.83,0.12,2.36-1.7,2.06c-3.72-0.61-4.14-0.51-4.79,3.84C26.83,52.66,27.38,54.12,26.67,55.48z"/>
	<path class="st42" d="M40,61.96c-0.12,0.12-0.24,0.25-0.36,0.37c-0.79-0.54-1.08-1.25-0.73-2.18c-1.07-0.98-0.49-2.13-0.36-3.24
		c0.01-4.17,3.7-5.52,6.07-7.87c0.59-0.58,1.37-0.97,2.01-1.51c0.86-0.73,1.71-1.31,2.92-0.84c0.49,0.19,0.79-0.12,0.9-0.6
		c0.59,0.48,1.37,0.74,1.76,1.46c-0.91,0.94-0.96,2.48-2.22,3.17c0.64-0.32,1.03-1.35,2.01-0.68c0.37,0.66,0.01,1.14-0.41,1.6
		c-2.28,2.48-4.99,4.46-7.48,6.71c-0.49,0.44-1.1,0.57-1.61,0.04c-0.52-0.54-0.27-1.19,0.1-1.64c0.99-1.2,1.91-2.46,3.02-3.56
		c0.56-0.55,1.11-1.1,1.37-1.86c0.53-1.11,1.7-1.78,2.25-3.04c-0.99-0.26-1.5,0.27-1.98,0.75c-1.66,1.64-3.43,3.15-5.28,4.55
		c-2.01,1.51-2.4,3.43-1.73,5.7C40.52,60.22,40.79,61.13,40,61.96z"/>
	<path class="st52" d="M38.48,54.93c-0.07,0.57-0.32,1.05-0.68,1.45c-2.13,2.35-4.53,4.41-7.17,6.16c-0.34,0.23-0.72,0.6-1.12,0.28
		c-0.5-0.4-0.12-0.88,0.08-1.29c0.5-1.02,1.12-1.96,1.91-2.8c1.44-1.51,3.07-2.84,4.27-4.58c0.42-0.6,1.03-1.07,1.84-0.69
		C38.2,53.75,38.38,54.34,38.48,54.93z"/>
	<path class="st24" d="M33.51,42.51c0.75,0.81,0.97,1.83,1.08,2.88C33.84,44.58,33.62,43.57,33.51,42.51z"/>
	<path class="st53" d="M27.07,70.42c-0.14-1.45,0.16-2.38,0.94-3.15c2.13-2.09,3.98-4.49,6.7-5.91c0.34-0.18,0.75-0.56,1.13-0.13
		c0.32,0.37,0.14,0.81-0.11,1.16c-1.06,1.45-2.03,2.97-3.23,4.3c-1.2,1.34-2.43,2.63-3.45,4.12c-0.37,0.54-0.86,1.18-1.59,0.87
		C26.79,71.4,27.1,70.62,27.07,70.42z"/>
	<path class="st37" d="M38.91,60.16c0.49,0.64,0.83,1.34,0.73,2.18c-0.96,1.43-1.92,2.87-2.88,4.3c-1.92,0.85-3.15,2.7-5.11,3.51
		c-0.21,0.09-0.41,0.21-0.86,0.45c0.35-1.38,0.92-2.34,1.74-3.16c1.9-1.9,3.62-3.95,4.99-6.28C37.83,60.63,38.25,60.22,38.91,60.16z
		"/>
	<path class="st54" d="M62.31,67.36c-2.73-2.58-6.42-3.01-9.74-4.19c-2.51-0.9-5.14-1.53-7.77-2.13c-1.75-0.4-3.16-0.35-4.45,0.92
		c-0.33-1.28,0.43-2.05,1.47-2.17c1.79-0.2,2.91-1.27,4.03-2.46c0.58-0.61,1.21-1.17,1.97-1.55c0.57-0.28,1.25-0.47,1.7-0.03
		c1.74,1.68,3.13,0.25,4.46-0.54c1.99-1.19,1.91-1.26,3.59,0.21c1.31,1.14,2.71,2.16,4.01,3.31c0.72,0.6,1.44,1.2,2.16,1.8
		c0.82,0.47,1.37,1.28,2.34,1.6c0.77,0.25,1.24,1.02,1.01,1.88c-0.24,0.91-1,0.82-1.76,0.7c-1.49-0.24-2.46,0.27-2.58,1.92
		C62.73,66.92,62.58,67.18,62.31,67.36z"/>
	<path class="st55" d="M61.59,58.72c-1.69-0.91-3.08-2.21-4.59-3.36c-0.79-0.6-1.28-1.05-2.15,0.06c-0.93,1.19-2.59,1.41-3.91,2.07
		c-0.5,0.25-0.98-0.05-1.13-0.58c-0.38-1.27-1.1-0.94-1.94-0.52c-0.89,0.45-1.51,1.18-2.17,1.86c-0.97,1.01-1.95,1.88-3.48,2
		c-0.9,0.07-1.69,0.63-1.85,1.69c-0.12,0-0.23,0.01-0.35,0.01c0.3-1.7-0.96-3.14-0.77-4.87c0.15-1.38,0.48-2.49,1.59-3.41
		c2.2-1.81,4.47-3.54,6.45-5.62c0.35-0.37,0.89-0.6,1.38-0.77c0.56-0.2,1.05,0.04,1.42,0.5c0.48,0.6,0.02,0.98-0.34,1.37
		c-0.72,0.79-1.45,1.57-2.18,2.36c-1.31,1.63-2.91,3-4.16,4.69c-0.25,0.33-0.61,0.58-0.83,0.94c-0.28,0.45-0.74,0.96-0.25,1.45
		c0.56,0.56,1.1,0.13,1.54-0.31c2.48-2.51,5.41-4.53,7.82-7.1c0.45-0.48,0.9-1.07,1.63-0.38c2.01,1.9,3.98,3.84,6.05,5.68
		C60.14,57.19,60.99,57.82,61.59,58.72z"/>
	<path class="st56" d="M62.31,67.36c-0.24-2.57,0.77-3.56,3.24-3.17c0.39,0.06,0.86,0.38,1.12-0.11c0.26-0.5-0.12-0.94-0.47-1.24
		c-0.85-0.73-1.86-1.3-2.45-2.31c0.57,0.02,0.92,0.42,1.33,0.73c0.48,0.36,0.72,0.13,0.84-0.37c1.75,1.36,3.2,3.04,4.74,4.61
		c0.88,0.91,1.18,2.05,1.04,3.3c-0.13,0.48-0.25,0.96-0.38,1.44c-0.32,0.7-0.76,1.2-1.63,1.08c-2.75-0.39-5.33-1.11-7.01-3.59
		C62.55,67.6,62.43,67.48,62.31,67.36z"/>
	<path class="st56" d="M53.3,50.8c-0.9-0.1-1.43,0.5-1.96,1.07c-2.37,2.52-5.34,4.4-7.63,7.02c-0.49,0.56-1.27,0.82-1.92,0.21
		c-0.64-0.6-0.21-1.32,0.22-1.75c1.89-1.9,3.33-4.23,5.54-5.83c-0.82,1.92-2.73,2.95-3.79,4.67c-0.25,0.4-0.61,0.73-0.88,1.12
		c-0.16,0.23-0.33,0.54-0.08,0.81c0.25,0.28,0.59,0.17,0.8-0.04c2.64-2.57,5.79-4.6,8.13-7.49c0.1-0.13,0.1-0.34,0.14-0.51
		c0.48-0.45,0.96-0.45,1.43,0C53.3,50.32,53.3,50.56,53.3,50.8z"/>
	<path class="st37" d="M53.31,50.08c-0.48,0-0.96,0-1.43,0c-0.92,0.06-1.19,0.87-1.72,1.41c-0.42,0.43-0.92,0.88-1.77,0.92
		c0.28-0.95,0.73-1.62,1.38-2.12c0.67-0.51,1.06-1.13,1.03-1.96c-0.05-1.25,0.73-0.93,1.42-0.77c0.61,0.71,1.22,1.43,1.84,2.14
		C53.8,49.83,53.55,49.96,53.31,50.08z"/>
	<path class="st57" d="M62.67,67.72c1.81,1.39,3.99,2.03,6.01,2.99c1.01,0.48,1.83,0.14,2.62-0.48c0.01,0.36,0.01,0.72,0.02,1.08
		c-3.59,1.28-5.95,0.5-8.65-2.87C62.67,68.2,62.67,67.96,62.67,67.72z"/>
	<path class="st58" d="M37.11,72.75c0.08-0.87-0.15-1.7-0.36-2.53c0-0.11,0-0.22,0.01-0.33c0.66-0.98,1.37-1.9,1.72-3.1
		c0.4-1.41,1.11-1.36,2.51-0.99c2.3,0.6,4.29,2.38,6.92,1.77c1.53-0.35,2.78,0.31,3.79,1.5c0.64,0.76,1.32,1.3,2.47,0.74
		c0.95-0.46,1.59,0.39,2.05,1.05c0.75,1.09,1.41,1.16,2.2,0.11c0.84-0.71,2.05-0.52,2.93-1.18c0.23-0.18,0.66-0.16,0.82,0.08
		c0.57,0.9,1.96,1.17,1.95,2.51c0.38,1.02,0.29,1.51-0.99,1.06c-1.56-0.55-3.15-0.59-4.69,0.1c-0.58,0.26-1.23,0.47-1.73,0.21
		c-1.84-0.99-3.91-0.34-5.79-0.94c-0.38-0.12-0.84-0.12-1.25-0.05c-2.27,0.39-4.52,0.72-6.82,0.02c-1.05-0.32-1.9,0.5-2.81,0.94
		C38.28,74.59,37.54,74.3,37.11,72.75z"/>
	<path class="st59" d="M58.71,71.31c-0.88,1.33-1.71,1.52-2.74,0.08c-0.53-0.74-1.08-1.86-2.35-0.69c-0.64,0.59-1.27-0.04-1.65-0.56
		c-1.3-1.78-3.06-2.49-5.14-2.03c-2.43,0.54-4.16-1.15-6.08-1.91c-1.77-0.7-2.04,0.28-2.12,1.16c-0.13,1.36-0.76,2.06-1.88,2.54
		c0.12-1.74,1.47-2.87,2.16-4.34c0.59-0.74,0.92-1.7,1.78-2.21c0.73-0.43,1.41-0.49,1.67,0.5c0.5,1.92,1.48,2.81,3.41,2.97
		c0.36,0.03,0.72,0.04,1.08,0c1.98-0.18,3.81,0.01,5.12,1.79c0.37,0.51,0.98,0.73,1.61,0.42c1.02-0.5,1.7,0.1,2.43,0.64
		c0.71,0.57,1.4,1.17,2.41,1.04C58.65,70.84,58.84,71,58.71,71.31z"/>
	<path class="st60" d="M58.35,70.95c-1.14,0.8-1.74-0.26-2.51-0.72c-0.18-0.19-0.25-0.43-0.33-0.67c-0.78-1.78-1.31-3.72-3.47-4.47
		c-0.8-0.28-1.75-0.47-2.05-1.49c0.03-0.08,0.07-0.15,0.1-0.23c3.77,1.15,7.51,2.38,11.09,4.04c-0.04,0.25-0.21,0.47-0.16,0.74
		c0.18-0.13,0.35-0.29,0.55-0.4c0.24,0.23,0.49,0.47,0.73,0.7c0,0.35,0.01,0.71,0.01,1.06c-0.31,0.26-0.77,0.19-1.07,0.53
		c-1.07,1.21-1.9,0.77-2.6-0.41c-0.24-0.27-0.23-0.98-0.68-0.79c-0.51,0.21,0,0.65,0.12,0.99C58.22,70.19,58.62,70.49,58.35,70.95z"
		/>
	<path class="st61" d="M55.83,69.58c0,0.22,0,0.44,0,0.65c-0.79-0.59-1.48-1.42-2.55-0.29c-0.48,0.51-1.02-0.13-1.31-0.53
		c-1.34-1.87-3.2-2.48-5.32-2.02c-2.11,0.46-3.38-1.15-5.07-1.69c-0.6-0.19-0.37-0.76-0.02-1.18c0.21-0.26,0.62-0.55,0.28-0.89
		c-0.4-0.4-0.76,0-1.07,0.26c-0.63,0.54-1.24,1.11-1.86,1.66c0.25-0.97,0.42-1.98,1.43-2.52c0.65-0.35,1.27-0.89,2.07-0.34
		c0.05,0.04,0.12,0.07,0.13,0.12c0.59,3.37,3,3.71,5.77,3.49c0.77-0.06,1.62-0.05,2.26,0.41c1.31,0.94,2.54,1.89,4.31,1.74
		C55.42,68.41,55.79,68.96,55.83,69.58z"/>
	<path class="st60" d="M42.15,63.03c-0.6-0.33-1.21,0.07-1.81,0c0.91-1.74,2.46-1.57,4.02-1.34c1.99,0.29,3.83,1.08,5.73,1.67
		c0,0-0.04,0.06-0.04,0.06c-0.4,0.63-1.01,0.87-1.72,0.92c-0.81-0.15-1.56-0.47-2.37-0.65C44.74,63.21,43.59,62.32,42.15,63.03z"/>
	<path class="st62" d="M61.57,67.75c0.05,0.94-0.39,1.55-1.26,1.83c-0.1,0.03-0.4-0.26-0.44-0.44c-0.25-1.07,0.53-1.41,1.31-1.73
		C61.31,67.52,61.44,67.63,61.57,67.75z"/>
	<path class="st34" d="M59.1,69.52c0.56,0.79,1.14,1.4,1.99,0.32c0.32-0.4,0.71-0.58,1.22-0.32c0.92,1.23,2.43,1.87,3.2,3.24
		c-0.47-0.12-0.93-0.25-1.4-0.37c-1.81-2.23-1.81-2.23-5.41-1.07c-0.12-0.12-0.24-0.24-0.36-0.36c-0.24-0.23-0.47-0.47-0.71-0.7
		C57.92,69.59,58.46,69.46,59.1,69.52z"/>
	<path class="st63" d="M71.66,72.41c-0.06,0.49,0.22,1.2-0.57,1.29c-0.6,0.07-0.77-0.45-0.85-0.95
		C70.59,72.14,71.07,72.05,71.66,72.41z"/>
	<path class="st34" d="M71.66,72.41c-0.52-0.06-0.98,0.09-1.42,0.34c-0.36,0-0.71-0.01-1.07-0.01c0.87-0.77,1.81-1.03,2.86-0.35
		C71.9,72.4,71.78,72.41,71.66,72.41z"/>
	<path class="st64" d="M64.71,64.85c1.49-0.01,5,2.35,5.6,3.74c0.19,0.46,0.37,0.91-0.06,1.31c-0.4,0.38-0.9,0.41-1.32,0.13
		c-1.41-0.93-2.95-1.48-4.57-1.91c-0.86-0.23-1.63-0.92-1.36-2C63.19,65.32,63.8,64.84,64.71,64.85z"/>
	<path class="st65" d="M42.15,63.03c0.23-1.91,1.47-0.66,2.28-0.71c0.78-0.05,1.33,0.4,1.69,1.07c0.56,0.72,1.25,1.06,2.16,0.73
		c0.45-0.58,1.04-0.82,1.77-0.7c0.47,0.5,1.11,0.75,1.73,0.83c2.72,0.32,3,2.92,4.31,4.54c0.19,0.23-0.06,0.56-0.26,0.78
		c-0.72-0.57-1.42-1.15-2.37-0.4c-0.58,0.46-1.06,0.1-1.36-0.34c-1.21-1.75-2.95-2.16-4.86-1.8c-1.96,0.37-3.36-0.75-4.91-1.52
		c-0.48-0.24-0.37-0.54-0.16-0.86C42.52,64.1,42.68,63.56,42.15,63.03z"/>
	<path class="st66" d="M59.1,69.52c-0.32,0.58-0.85,0.75-1.46,0.73c-0.85-0.56-0.95-1.37-0.53-2.18c0.25-0.48,0.84-0.41,1.29-0.23
		C59.18,68.14,59.05,68.88,59.1,69.52z"/>
	<path class="st61" d="M48.28,64.12c-0.13,0.77-0.58,1.16-1.35,0.98c-0.93-0.22-0.8-1.01-0.81-1.71
		C47,63.15,47.79,63.21,48.28,64.12z"/>
</g>
</svg>
