<?xml version="1.0" encoding="utf-8"?>
<!-- Generator: Adobe Illustrator 23.0.2, SVG Export Plug-In . SVG Version: 6.00 Build 0)  -->
<svg version="1.1" id="Camada_1" xmlns="http://www.w3.org/2000/svg" xmlns:xlink="http://www.w3.org/1999/xlink" x="0px" y="0px"
	 viewBox="0 0 101.82 90.89" style="enable-background:new 0 0 101.82 90.89;" xml:space="preserve">
<style type="text/css">
	.st0{fill:#323232;}
	.st1{fill:#FDFDFD;}
	.st2{fill:#95EFED;}
	.st3{fill:#5FA9A8;}
	.st4{fill:#76A097;}
	.st5{fill:#77A69E;}
	.st6{fill:#5FDEFD;}
	.st7{fill:#4DA5AF;}
	.st8{fill:#4FA5AE;}
	.st9{fill:#6AA7A3;}
	.st10{fill:#45D4FE;}
	.st11{fill:#3C9DB0;}
</style>
<g>
	<path class="st0" d="M0,76.36c0.02-9.87,0.06-19.74,0.05-29.62C0.06,36.1,0.02,25.45,0,14.8c0.53-2.89,1.54-5.6,3.21-8.03
		c2.63-3.83,6.23-6.14,10.86-6.75C38.7,0.01,63.33,0.01,87.95,0c5.58,0.57,9.4,3.91,12.38,8.27c1.32,1.93,1.55,4.46,1.48,6.74
		c-0.15,5.16-0.07,10.31-0.09,15.46c-0.04,14.75-0.29,29.51,0.09,44.26c0.25,9.72-8.55,16.21-16.25,16.16
		c-23.15-0.15-46.3,0.01-69.45-0.09c-6.41-0.03-11.3-2.91-14.24-8.87C0.99,80.12,0.5,78.26,0,76.36z"/>
	<path class="st1" d="M51.1,82c-11.52,0-23.04,0.1-34.56-0.05c-5.13-0.06-7.33-2.52-7.35-7.26C9.13,55.68,9.17,36.66,9.16,17.64
		c0-1.38,0.01-2.74,0.39-4.08c0.55-1.99,1.91-3.13,3.63-4.18c1.88-1.15,3.81-0.97,5.79-0.97c22.32-0.01,44.64,0,66.96,0
		c2.64,0,5.65,2.62,6.76,4.92c0.9,1.88,0.03,3.44,0.03,5.13c0.05,18.72-0.07,37.44,0.11,56.16c0.04,4.38-3.4,7.47-7.52,7.43
		C73.9,81.94,62.5,82,51.1,82z"/>
	<path class="st2" d="M13.24,67.36C12.87,66.95,13,66.45,13,65.99c0-16.84,0-33.69,0.02-50.53c0-2.5,0.03-2.53,2.62-2.58
		c22.53-0.43,45.06-0.13,67.59-0.16c0.26,0.26,0.33,0.58,0.29,0.93c-0.07,0.37-0.29,0.62-0.63,0.77c-0.75,0.3-1.54,0.19-2.31,0.19
		c-20.68,0.01-41.35,0-62.03,0c-3.3,0-3.84,0.52-3.85,3.89c-0.02,15.22,0,30.44-0.02,45.67c0,1.06,0.19,2.17-0.45,3.15
		C13.91,67.58,13.58,67.6,13.24,67.36z"/>
	<path class="st3" d="M83.18,14.07c0.04-0.24,0.07-0.48,0.11-0.72c0.14-0.13,0.31-0.23,0.49-0.3c0.87-0.07,1.73-0.11,2.6,0.03
		c0.65,0.28,1.18,0.7,1.56,1.31c0.97,1.49,1.29,3.13,1.18,4.88c0,0.65,0.01,1.29,0.01,1.94c0,14.92,0,29.84,0,44.76
		c0,0.67-0.01,1.33-0.01,2c-0.02,1.5-0.05,3,0,4.49c0.08,2.4-0.86,4.17-3.03,5.25c-0.32,0.13-0.66,0.19-1,0.2
		c-22.52,0.03-45.04,0.03-67.56,0.01c-0.32-0.01-0.65-0.02-0.95-0.12c-1.25-0.6-2.37-1.38-3.1-2.61c-0.08-0.18-0.13-0.37-0.16-0.56
		c-0.17-2.03,0.09-4.08-0.16-6.11c-0.09-0.27-0.24-0.52-0.12-0.82c0.07-0.12,0.14-0.24,0.21-0.36c0.29,0.01,0.58,0.01,0.87,0.02
		c0.47-0.18,0.67,0.12,0.85,0.46c0.05,0.18,0.06,0.37,0.04,0.56c0.12,2.2-0.6,4.47,0.51,6.6c0.13,0.17,0.26,0.32,0.41,0.46
		c0.82,0.55,1.74,0.38,2.63,0.38c21.76,0.01,43.52,0.01,65.28,0.01c2.87,0,3.54-0.67,3.55-3.64c0.02-7.85,0.01-15.71,0.01-23.56
		c0-9.83,0-19.66,0-29.49c0-0.89,0.1-1.81-0.34-2.64c-0.46-1.07-1.24-1.63-2.44-1.61c-0.46,0.01-0.93-0.04-1.34-0.32
		C83.12,14.44,83.08,14.27,83.18,14.07z"/>
	<path class="st4" d="M86.46,13.36c-0.95-0.01-1.91-0.01-2.86-0.02c0.07-0.9,0.76-0.42,1.17-0.51c0.67-0.13,1.38,0.15,2.04-0.18
		c1.33-0.15,2.13,0.51,2.56,1.71c0.24,0.51,0.14,1.06,0.14,1.59c0.01,19.64,0.01,39.28,0,58.91c0,0.53,0.1,1.08-0.13,1.6
		c-0.59,1.43-1.6,1.99-3.21,1.99c-23.33-0.04-46.67-0.03-70-0.03c-2.89,0-3.57-0.6-3.46-3.45c0.09-2.42-0.47-4.87,0.32-7.26
		c0.12,0.12,0.24,0.25,0.36,0.37c0.38,1.63,0.07,3.29,0.18,4.93c0.04,0.64-0.17,1.3,0.18,1.91c0,0.12,0,0.24,0,0.36
		c0.49,1.12,1.39,1.77,2.52,2.16c0.24,0,0.48,0,0.72,0c0.56,0.33,1.17,0.17,1.76,0.18c21.63,0.01,43.26,0.01,64.88,0
		c0.59,0,1.2,0.16,1.76-0.18c0.24,0,0.48,0,0.72,0c1.97-0.66,2.71-2.17,2.69-4.09c-0.02-1.75,0.25-3.52-0.16-5.27c0-0.6,0-1.2,0-1.8
		c0.3-0.44,0.18-0.93,0.18-1.4c0.01-14.19,0.01-28.38,0-42.57c0-0.47,0.12-0.96-0.18-1.4c0-0.6,0-1.2,0-1.8
		c0.39-1.27,0.21-2.5-0.23-3.71C88.2,14.3,87.5,13.67,86.46,13.36z"/>
	<path class="st5" d="M89.38,76.47c-0.02-13.58-0.04-27.16-0.04-40.75c0-7.12,0.02-14.24,0.04-21.36c0.41,0.6,0.23,1.28,0.24,1.92
		c0.01,19.42,0.01,38.83,0,58.25C89.61,75.19,89.77,75.86,89.38,76.47z"/>
	<path class="st5" d="M86.81,12.66c-0.94,0.86-2.28-0.18-3.22,0.69c-0.1,0.01-0.21,0.01-0.31,0.01c-0.02-0.21-0.04-0.43-0.06-0.64
		C84.41,12.5,85.61,12.57,86.81,12.66z"/>
	<path class="st6" d="M83.18,14.07c0.04,0.12,0.08,0.25,0.12,0.37c0.07,0.24,0.03,0.47-0.1,0.68c-0.48,0.68-1.19,0.7-1.93,0.7
		c-20.44-0.17-40.89-0.03-61.33-0.08c-0.54,0-1.08,0.02-1.62,0.02c-1.5,0-2.17,0.78-2.18,2.24c0,0.72-0.02,1.44-0.02,2.16
		c0,14.75,0.01,29.5-0.02,44.25c0,1.13,0.38,2.46-0.94,3.25c-0.12,0.01-0.23,0.03-0.35,0.04c-0.23-0.11-0.47-0.21-0.7-0.32
		c0-16.55,0-33.1,0-49.64c0-2.8,0.85-3.66,3.6-3.66C39.53,14.08,61.35,14.07,83.18,14.07z"/>
	<path class="st7" d="M83.19,14.82c0.03-0.12,0.07-0.25,0.1-0.37c1.44,0.09,3.12-0.47,3.89,1.44c0.39,0.78,0.36,1.62,0.36,2.46
		c0,18.04,0,36.08,0,54.12c0,0.36,0.01,0.72-0.02,1.08c-0.17,1.89-0.96,2.63-2.87,2.63c-10.61,0.01-21.22,0-31.82,0
		c-11.63,0-23.25,0-34.88,0c-1.03,0-2.06,0.08-2.77-0.9l0,0c-0.69-2.37-0.25-4.8-0.36-7.2c0-0.13,0-0.25-0.01-0.38
		c0,0,0.05-0.11,0.05-0.11c0.36-0.05,0.7-0.05,0.91,0.31c0.61,1.57,0.23,3.2,0.35,4.81c0.14,1.9,0.56,2.3,2.47,2.12
		c1.2-0.11,2.39-0.12,3.59-0.12c19.07,0,38.14,0,57.21,0c1.44,0,2.87,0.07,4.31,0.2c1.63,0.14,2.32-0.48,2.5-2.1
		c0.07-0.66,0.04-1.32,0.04-1.98c0-16.91,0-33.82,0-50.73c0-0.42,0.01-0.84-0.01-1.26c-0.08-2.54-0.53-2.87-2.9-2.16
		C82.6,16.12,82.88,15.47,83.19,14.82z"/>
	<path class="st8" d="M15.18,75.28c0.94,0.6,1.97,0.74,3.08,0.73C40.19,76,62.12,76,84.05,76c2.63,0,3.13-0.49,3.13-3.14
		c0-18.99,0-37.99,0-56.98c0.74,0.61,0.72,1.45,0.72,2.3c0,18.11,0,36.22-0.01,54.33c0,2.98-0.88,3.85-3.8,3.85
		c-22.07,0-44.14,0-66.21-0.01C16.89,76.35,15.65,76.74,15.18,75.28z"/>
	<path class="st9" d="M85.38,77.44c-0.53,0.58-1.24,0.35-1.87,0.35c-21.56,0.01-43.11,0.01-64.67,0c-0.63,0-1.33,0.24-1.87-0.35
		C39.78,77.44,62.58,77.44,85.38,77.44z"/>
	<path class="st9" d="M88.62,20.92c0.58,0.53,0.35,1.23,0.35,1.86c0.01,13.88,0.01,27.76,0,41.63c0,0.63,0.24,1.33-0.35,1.86
		C88.62,51.16,88.62,36.04,88.62,20.92z"/>
	<path class="st9" d="M88.62,68.08c0.57,2.7,0.7,5.39-0.26,8.04c-0.38,1.05-1.17,1.46-2.26,1.32c2.67-1.69,2.68-4.34,2.53-7.05
		C88.58,69.62,88.62,68.85,88.62,68.08z"/>
	<path class="st8" d="M14.82,68.08c0.69,2.37,0.23,4.8,0.36,7.2C13.91,72.94,14.38,70.51,14.82,68.08z"/>
	<path class="st9" d="M13.74,74.92c-0.78-2.24-0.16-4.56-0.36-6.84C14.16,70.33,13.54,72.65,13.74,74.92z"/>
	<path class="st9" d="M88.62,15.16c0.48,1.32,0.62,2.64,0,3.96c0.23-1.7-0.35-3.21-1.08-4.68C88.24,14.17,88.3,14.86,88.62,15.16z"
		/>
	<path class="st9" d="M16.26,77.44c-1.51,0.06-2.43-0.57-2.52-2.16C14.58,76,15.42,76.72,16.26,77.44z"/>
	<path class="st5" d="M88.62,15.16c-0.36-0.24-0.72-0.48-1.08-0.72c-0.36-0.36-0.72-0.72-1.08-1.08
		C87.75,13.28,88.64,13.67,88.62,15.16z"/>
	<path class="st10" d="M83.19,14.82c0.04,0.58,0.08,1.16,0.12,1.74c0.66,0.83,0.49,1.83,0.49,2.77c0.01,14.68,0.01,29.37,0.01,44.05
		c0,3.84-1.06,4.92-4.92,4.92c-18.1,0.02-36.2,0.01-54.3,0.01c-2.22,0-4.44,0.01-6.65-0.01c-0.84-0.01-1.69,0.04-2.38-0.59
		c-0.23-0.04-0.45-0.08-0.68-0.12c0.95-0.53,0.67-1.45,0.67-2.25c0.01-15.64,0.01-31.29,0.01-46.93c0-2.94,0.32-3.25,3.32-3.25
		c20.32,0,40.63,0.01,60.95-0.03C80.92,15.13,82.16,15.9,83.19,14.82z"/>
	<path class="st11" d="M15.54,67.72c21.24-0.01,42.47-0.02,63.71-0.02c3.31,0,3.99-0.68,3.99-3.98c0-14.94,0-29.88,0.01-44.81
		c0-0.78,0.04-1.56,0.06-2.34c0.35-1.1,1.21-1.15,2.14-1.02c0.97,0.14,1.19,0.91,1.33,1.69c0.09,0.46,0.03,0.96,0.03,1.43
		c0,17.86,0,35.72,0,53.57c0,3-0.9,3.72-3.84,3.16c-0.58-0.11-1.19-0.1-1.79-0.1c-20.25,0-40.51,0-60.76,0
		c-0.78,0-1.53,0.07-2.3,0.25c-1.61,0.39-2.53-0.37-2.57-2.07C15.5,71.55,15.54,69.63,15.54,67.72z"/>
</g>
</svg>
