<?xml version="1.0" encoding="utf-8"?>
<!-- Generator: Adobe Illustrator 23.0.2, SVG Export Plug-In . SVG Version: 6.00 Build 0)  -->
<svg version="1.1" id="Camada_1" xmlns="http://www.w3.org/2000/svg" xmlns:xlink="http://www.w3.org/1999/xlink" x="0px" y="0px"
	 viewBox="0 0 174.22 203.1" style="enable-background:new 0 0 174.22 203.1;" xml:space="preserve">
<style type="text/css">
	.st0{fill:#525252;}
	.st1{fill:#929292;}
	.st2{fill:#323232;}
	.st3{fill:#FEFEFE;}
	.st4{fill:#030303;}
	.st5{fill:#5BE3FE;}
	.st6{fill:#56DDFE;}
	.st7{fill:#30C4F9;}
	.st8{fill:#5EE4FE;}
	.st9{fill:#17B6E9;}
	.st10{fill:#2CCAFD;}
	.st11{fill:#3FD3FD;}
	.st12{fill:#2A6879;}
	.st13{fill:#2A6C7F;}
	.st14{fill:#1B93B4;}
	.st15{fill:#50DDFD;}
	.st16{fill:#FDFDFD;}
	.st17{fill:#A8A8A8;}
	.st18{fill:#F9F9F9;}
	.st19{fill:#ACACAC;}
	.st20{fill:#ECECEC;}
	.st21{fill:#A6A6A6;}
	.st22{fill:#4CD6FE;}
	.st23{fill:#17B4E7;}
	.st24{fill:#41D4FD;}
	.st25{fill:#1AABD6;}
	.st26{fill:#46D4FE;}
	.st27{fill:#17B8ED;}
	.st28{fill:#1A758F;}
	.st29{fill:#196579;}
	.st30{fill:#1A9CBE;}
	.st31{fill:#1B8FAF;}
	.st32{fill:#197994;}
	.st33{fill:#1AA1C4;}
	.st34{fill:#1AABD5;}
	.st35{fill:#1B90B0;}
	.st36{fill:#18728B;}
	.st37{fill:#1A809D;}
	.st38{fill:#1A7691;}
	.st39{fill:#1AA3CE;}
	.st40{fill:#1B8CAE;}
	.st41{fill:#397786;}
	.st42{fill:#33CCFD;}
	.st43{fill:#1B99BD;}
	.st44{fill:#2FBDF1;}
	.st45{fill:#47BEE6;}
</style>
<g>
	<path class="st0" d="M-2.3,21.22c0.15-0.02,0.3-0.03,0.45-0.05c1.12,1.2,0.8,2.71,0.8,4.11c0.02,19.34,0.02,38.68,0.02,58.01
		c0,30.53,0.01,61.05-0.02,91.58c0,1.47,0.38,3.07-0.81,4.34c-0.14-0.06-0.29-0.08-0.44-0.08C-2.3,126.5-2.3,73.86-2.3,21.22z"/>
	<path class="st1" d="M21.15-0.94c0.01-0.13,0.03-0.27,0.07-0.4c1.6,0,3.2,0,4.8,0c0.09,0.11,0.11,0.23,0.08,0.37
		C24.46,0.28,22.81,0.24,21.15-0.94z"/>
	<path class="st2" d="M21.15-0.94c1.65-0.01,3.3-0.02,4.94-0.03c7.25,1.11,14.36,2.91,21.51,4.53c13.14,2.98,26.27,5.99,39.44,8.8
		c3.75,0.8,7.44,1.8,11.19,2.56c8.42,1.71,13.8,7.2,18.01,14.2c1.09,1.81,1.18,3.96,1.8,5.93c0.29,0.9,0.39,1.61,1.71,1.2
		c1.47-0.46,2.99-0.08,4.48,0.31c7.16,1.88,14.5,3.26,20.99,7.08c5.04,2.97,9.78,6.4,13.17,11.27c2.42,3.47,3.41,7.57,3.86,11.7
		c0.63,5.73-0.19,11.31-2.86,16.51c-0.15,0.28-0.26,0.58-0.42,0.86c-0.85,1.48-1.12,2.53,0.91,3.55c2.2,1.11,3.64,3.22,5.05,5.3
		c2.91,4.3,5.45,8.73,6.72,13.8c0.13,0.53,0.33,1.13,0.21,1.63c-0.91,3.78-1.67,7.62-2.92,11.28c-1.4,4.1-4.47,6.68-8.7,7.84
		c-7.3,2-14.58,4.04-21.87,6.09c-5.3,1.48-10.57,3.05-15.88,4.47c-3.32,0.89-3.34,0.79-3.34,4.45c0,5.04,0.05,10.08-0.01,15.12
		c-0.13,11.31-5.15,19.92-14.75,25.71c-3.99,2.41-8.78,2.85-13.26,3.91c-10.3,2.43-20.67,4.61-31.01,6.9
		c-11.19,2.48-22.37,5-33.57,7.46c-0.92,0.2-1.92,0.3-2.85,0.19c-10.64-1.33-19.34-4.87-24-15.49c-0.96-2.19-1.57-4.52-1.56-6.97
		c0.01-1.92,0.04-3.83,0.04-5.75c0.02-50.45,0.03-100.89,0.04-151.34c0-0.32-0.04-0.64-0.06-0.96C-1.3,11.88,5.78,3.07,14.67,0.55
		C16.81-0.06,18.92-0.77,21.15-0.94z"/>
	<path class="st3" d="M6.38,99.94c0-24.8,0.24-49.6-0.1-74.39C6.11,12.61,17.52,5.53,28.45,8.02c12.13,2.77,24.34,5.22,36.46,8.04
		c8.64,2,17.3,3.92,25.96,5.84c3.58,0.79,7.37,1.29,10.57,3.45c5.92,4,8.78,9.64,8.96,16.7c0.06,2.24,0.02,4.48-0.01,6.72
		c-0.02,1.44,0.46,1.73,1.7,0.92c1.71-1.11,3.59-1.93,5.16-3.28c1.51-1.29,3.32-2.15,5.3-1.57c6.52,1.93,13.27,3.24,19.21,6.82
		c3.1,1.87,5.78,4.23,8.39,6.69c1.8,1.7,2.44,4.08,2.99,6.38c1.47,6.16,0.23,11.92-2.92,17.34c-0.67,1.15-1.34,2.3-1.99,3.46
		c-0.46,0.82-0.49,1.62,0.04,2.46c3.53,5.56,6.79,11.28,9.81,17.14c0.75,1.45,1.39,2.98,2.31,4.33c2.56,3.75,1.22,8.96-4.3,10.2
		c-6.29,1.41-12.41,3.47-18.72,4.87c-3.96,0.88-7.81,2.36-11.65,3.72c-4.09,1.44-8.12,1.54-12.28,0.23
		c-2.86-0.9-3.04-0.63-3.04,2.45c0.01,8.88-0.14,17.76,0.05,26.64c0.19,8.83-6.96,18.27-15.9,19.88
		c-10.61,1.91-21.11,4.62-31.66,6.96c-11.79,2.62-23.52,5.49-35.4,7.75c-7.52,1.43-15.06-1.31-18.99-7.69
		c-1.76-2.86-2.14-6.1-2.14-9.42C6.39,150.01,6.38,124.98,6.38,99.94z"/>
	<path class="st4" d="M104.07,130c0.01,9.52,0.07,19.03,0.01,28.55c-0.04,6.45-3.9,11.31-10.26,12.74
		c-21.76,4.91-43.54,9.73-65.33,14.54c-1.54,0.34-3.17,0.41-4.76,0.4c-6.62-0.06-10.76-4.22-10.77-10.85
		c-0.03-13.44-0.01-26.87-0.01-40.31c0-36.47,0-72.94,0-109.41c0-7.79,4.84-12.21,12.55-11.34c8.04,0.91,15.81,3.23,23.69,4.93
		c14.61,3.16,29.18,6.52,43.79,9.74c7.1,1.57,11.08,6.33,11.12,13.54c0.01,3.2,0,6.4-0.01,9.6c-2.01,0.77-3.92,0.07-5.8-0.46
		c-1.72-0.49-0.96-2.6-2.11-3.52c-0.89-0.65-1.94-0.72-2.96-0.89c-22-3.69-43.99-7.44-65.99-11.09c-2.63-0.44-2.83-0.28-2.87,2.51
		c-0.03,2.72-0.01,5.44-0.01,8.16c0,33.5,0,67.01,0,100.51c0,0.72,0,1.44,0,2.16c0.02,3.6,0.28,3.87,3.89,3.29
		c9.47-1.52,19-2.64,28.5-3.99c2.13-0.01,4.24-0.16,6.3-0.72c0.25-0.09,0.5-0.15,0.76-0.19c3.47-0.24,6.9-0.79,10.35-1.29
		c0.25-0.08,0.51-0.14,0.77-0.18c3.33-0.21,6.61-0.74,9.87-1.41c3.09-0.31,6.15-0.87,9.24-1.18c2.53-0.25,2.78-0.6,2.79-3.14
		c0.02-2.87,0-5.74,0.01-8.62c0.01-0.95-0.06-1.92,0.47-2.79C99.66,128.64,101.95,128.52,104.07,130z"/>
	<path class="st5" d="M97.2,47.9c-0.23,2.69,1.11,3.7,3.68,3.64c1.07-0.02,2.14,0.37,3.22,0.58c2.52,1.7,1.24,4.29,1.51,6.5
		c0.12,1-0.2,2.19,1.48,1.92c0.3,0.96-0.72,1.3-0.94,2.02c-0.41,0.92-0.25,1.9-0.25,2.85c-0.01,9.28,0,18.55-0.01,27.83
		c0,1.51,0.09,3.05-0.65,4.46c-1.8,0.93-3.11,0.72-4.25-0.93c-1.31-1.9-2.47-3.94-3.01-6.2c-1.09-4.6-3.14-8.65-6.43-12.05
		c-0.77-0.8-0.91-1.83-1.22-2.81c-0.22-2.57,0.34-5.07,0.63-7.6c0.4-3.48,0.04-3.97-3.39-3.95c-1.42,0.01-2.89-0.25-4.21,0.53
		c-1.08,0.78-1.64,1.95-2.19,3.09c-0.82,1.72-2.01,2.12-3.69,1.28c-0.42-0.21-0.92-0.29-1.33-0.54c-1.99-1.24-3.78-1.43-5.43,0.65
		c-0.55,0.69-1.49,1.41-2.31,0.1c-0.21-1.04,0.4-1.85,0.8-2.69c2.89-6.01,5.6-12.11,8.64-18.05c2.27-1.11,4.65-0.64,6.97-0.4
		c2.67,0.28,5.32,0.84,7.93,1.47C94.72,50.07,96.31,50.02,97.2,47.9z"/>
	<path class="st6" d="M147.45,74.97c-0.94,2.33-1.77,4.71-3.35,6.73c-0.67,1.08-1.79,1.79-2.4,2.91c-1.43,2.77,0.84,4.59,2.05,6.34
		c4.42,6.42,8.57,12.98,11.9,20.03c0.89,1.88,0.5,2.33-2.44,2.87c-0.36-0.45-0.79-0.41-1.28-0.23c-1.23,0.46-1.94-0.15-2.85-1.02
		c-2.9-2.77-5.38-6.15-9.55-7.29c-1.34-1.71-2.47-3.54-3.18-5.6c0.32-5.49-5.26-9.3-9.01-10.43c-1.42-0.43-1.79,0.56-2.15,1.6
		c-0.3,0.89-0.47,2.34-1.46,2.2c-1.21-0.17-0.93-1.66-0.91-2.63c0.1-3.73-0.36-7.48,0.26-11.2c0.69-1.08,0.8-2.4,1.45-3.5
		c0.63-1.07,1.41-1.77,2.7-1.08c1.37,0.73,1.7-0.01,1.74-1.16c0.09-2.46-0.06-4.92,0.09-7.37c0.05-0.82-0.39-2.17,1.3-2.06
		c0.95,2.22,0.33,4.55,0.48,6.83c0.08,1.19-0.02,2.38,0.03,3.58c0.11,2.78,0.39,3.12,3.14,3.92c0.89,0.49,0.54,0.9-0.46,1.5
		c1.67-0.5,2.86-1.07,3.98-1.8c0.46-0.3,1.03-0.69,1.53-0.28c0.65,0.53,0.19,1.19-0.09,1.72c-0.56,1.07-1.23,2.11-0.66,3.37
		c0.42,0.94,1.03,1.48,2.01,0.6c4.76-4.27,6.93-11.16,4.76-17.16c-1.25-3.46-3.97-5.51-6.92-7.31c-4.34-2.65-9.21-3.93-14.04-5.3
		c-0.46-0.13-0.95-0.19-1.38-0.39c-1.57-0.72-0.38-1.02,0.23-1.41c6.45,1.51,12.73,3.39,18.27,7.27c3.14,2.2,5.07,5.09,6.19,8.65
		C147.84,70.23,147.84,72.6,147.45,74.97z"/>
	<path class="st7" d="M104.07,130c-2.15-0.2-4.3-0.4-6.46-0.6c-0.52,0.3-1.07,0.46-1.67,0.42c-3.55-0.62-7.19-0.15-10.74-0.83
		c-0.94-0.18-1.93-0.12-2.6-0.98c-0.71-3.29,0.97-6.33,1.02-9.54c0.02-1.01,0.26-2.03,0.46-3.03c0.47-1.95,0.49-3.98,0.99-5.93
		c0.66-2.07-0.22-4.32,0.75-6.35c0.99-2.65,0.9-5.53,1.78-8.2c1.24-0.83,1.61,0.2,1.66,1c0.48,9.33,7.25,15.27,11.93,22.34
		c0.54,0.82,1.39,1.27,2.42,1.36c0.62,0.05,1.32,0.12,1.36,1.02c-0.01,2.31,0,4.62,0,6.92c0,0.79,0.08,1.61-0.58,2.22
		C104.34,129.95,104.24,130.02,104.07,130z"/>
	<path class="st8" d="M130.17,63.94c-1.01,1.96-0.29,4.05-0.46,6.08c-0.11,1.43-0.02,2.87-0.03,4.31c-0.01,0.74-0.18,1.5-0.83,1.89
		c-0.81,0.49-1.04-0.42-1.47-0.82c-1.09-1-1.65-0.56-2.34,0.59c-0.64,1.07-0.19,2.65-1.59,3.32c-0.95-1-0.56-2.26-0.68-3.43
		c-0.1-4.78,0.24-9.58-0.2-14.35c-0.46-2.92-1.04-5.81-1.98-8.62c0.66-0.65,1.41-1.08,2.38-0.97c-0.34,0.47-0.99,0.72,0.3,1.04
		c5.86,1.44,11.56,3.23,16.78,6.49c8.63,5.38,7.91,16.69,2.28,22.79c-0.32,0.35-0.65,0.7-1.01,1.02c-0.77,0.68-1.02,2.64-2.65,1.33
		c-1.28-1.03-1.75-2.47-0.94-4.07c0.39-0.77,0.88-1.5,1.63-2.76c-2.62,1.39-4.64,3.31-7.51,2.04c0.78-0.97,2.04-0.03,2.63-0.99
		c0.32-0.69,0.99-1.01,1.55-1.44c3.8-2.93,4.27-8.11,1.03-11.68c-0.85-0.94-1.79-1.8-2.85-2.51
		C131.95,61.66,131.67,61.7,130.17,63.94z"/>
	<path class="st9" d="M120.6,52.9c0.94,0.07,1.03,0.86,1.19,1.51c0.53,2.19,1.15,4.37,1.19,6.65c0.51,4.94,0.09,9.89,0.23,14.83
		c-0.03,5.7,0.05,11.4-0.04,17.09c-0.18,0.31-0.43,0.39-0.76,0.24c-1.06-1.58-0.56-3.37-0.65-5.07c-0.09-1.81,0.08-3.63,0.06-5.44
		c0.03-3.27,0.03-6.54,0.02-10.55c-1.23,2.54-2.82,2.47-4.6,1.84c-2.34-0.83-4.75-1.4-7.14-2.07c-1.71-0.48-2.91-1.31-3.32-3.05
		c-0.23-0.96-0.85-1.66-1.32-2.47c0.12-1.62-0.27-3.27,0.23-4.87c0.47-0.32,1.13-0.39,1.39-1C111.59,58,116.1,55.45,120.6,52.9z"/>
	<path class="st10" d="M135.36,118.88c-4.16,1.09-8.13,2.81-12.37,3.64c-0.78-0.84-0.68-1.9-0.69-2.92c-0.02-2.84,0-5.69-0.01-8.53
		c0.14-4-0.25-8.02,0.22-12.01c0.94-1.25,1.22-0.3,1.43,0.48c0.37,1.39-0.07,2.86,0.35,4.35c2.44-0.88,4.93-1.42,7.45-1.55
		c1.47-0.08,2.22-0.52,2.53-1.9c0.1-0.46,0.36-0.89,0.84-1.12c0.29,0,0.51,0.12,0.65,0.38c0.46,2.83-0.31,5.63-0.12,8.46
		c0.06,0.94,0.01,1.89,0.01,2.83c0.1,2.41-0.94,4.76-0.4,7.2C135.33,118.42,135.37,118.65,135.36,118.88z"/>
	<path class="st11" d="M139.9,105.2c1.74,0.19,3.39,0.69,4.52,2.07c1.72,2.08,4.23,3.34,5.64,5.73c0.44,0.74,1.28,0.22,1.97,0.07
		c0.52-0.11,1.65-0.75,1.18,0.79c-2.48,1.45-5.31,1.66-8.02,2.31c-0.22-0.07-0.36-0.22-0.43-0.44c-0.92-2.57-2.57-4.73-3.84-7.11
		C140.37,107.57,139.29,106.62,139.9,105.2z"/>
	<path class="st12" d="M122.52,122.6c-2.84,1.24-5.6,0.2-8.34-0.39c-2.78-0.6-5.49-1.5-8.23-2.27c-0.31-0.2-0.54-0.46-0.64-0.82
		c-0.1-0.64-0.09-1.24,0.57-1.61c3.55,1.09,7,2.46,10.68,3.16c2.08,0.4,4.07-0.26,6.1,0C122.72,121.32,122.89,121.98,122.52,122.6z"
		/>
	<path class="st13" d="M145.15,115.83c-0.03,0.12-0.01,0.23,0.05,0.33c-3.28,0.91-6.55,1.81-9.83,2.72
		c-0.15-0.07-0.3-0.14-0.46-0.21c-0.4-1-0.11-1.75,0.94-1.99c2.38-0.55,4.64-1.57,7.08-1.84
		C143.81,114.74,144.88,114.47,145.15,115.83z"/>
	<path class="st14" d="M122.52,122.6c-0.01-0.67-0.02-1.34-0.03-2.01c-1.38-2.33-0.48-4.87-0.66-7.31c0.01-0.72,0.01-1.44,0.39-2.1
		c0.18-0.28,0.42-0.34,0.72-0.19c0.02,3.84,0.04,7.68,0.06,11.51C122.84,122.55,122.68,122.57,122.52,122.6z"/>
	<path class="st15" d="M105.63,119.57c0.11,0.12,0.22,0.25,0.33,0.37c-1.41,2.4-0.27,5.02-0.64,7.51c-0.12,0.85,0.45,1.98-0.93,2.33
		c0.73-3.2,0.18-6.45,0.33-9.67c-0.19-0.38,0.04-0.55,0.33-0.7C105.27,119.38,105.46,119.43,105.63,119.57z"/>
	<path class="st8" d="M147.45,74.97c0-2.37,0-4.74,0-7.11C148.2,70.23,148.35,72.6,147.45,74.97z"/>
	<path class="st8" d="M141.71,84.61c0.2-1.47,1.37-2.13,2.4-2.91C143.83,83.1,142.63,83.74,141.71,84.61z"/>
	<path class="st3" d="M97.2,47.9c-0.05,0.39-0.17,0.79-0.14,1.18c0.1,1.41-0.18,1.89-1.88,1.62c-5.02-0.81-9.94-2.47-15.12-2.12
		c-0.77,0.05-1.62-0.26-2.27,0.43c-0.48,1.38-1.81,1.93-2.8,2.8c-4.6,4.02-9.61,7.53-14.26,11.48c-5.34,4.15-10.79,8.15-16.51,11.77
		c-1,0.63-1.61,1.51-1.99,2.6c-1.96,4.86-3.93,9.71-5.72,14.63c-0.81,2.15-2.25,4.16-1.4,6.66c2.34,6.89,5.65,13.37,8.52,20.03
		c0.13,0.33,0.23,0.68,0.3,1.02c2.26,6.23,5.55,11.96,8.59,17.81c1.72,3.31,3.19,6.77,5.35,9.85c0.15,0.33,0.19,0.67,0.1,1.03
		c-0.13,0.36-0.5,0.46-0.73,0.71c-10.61,1.48-21.22,2.92-31.81,4.48c-2.02,0.3-1.61-0.88-1.61-1.96c0-15.75,0-31.5,0-47.25
		c0-22.55,0.02-45.09-0.04-67.64c-0.01-1.87,0.34-2.24,2.27-1.91c22.92,3.95,45.86,7.78,68.79,11.68
		C95.65,46.96,96.88,46.53,97.2,47.9z"/>
	<path class="st16" d="M59.64,166.71c-2.82,0.55-5.65,1.05-8.46,1.67c-1.2,0.27-1.52-0.05-1.6-1.24c-0.52-7.36-0.54-7.36,6.68-8.54
		c1.42-0.23,2.84-0.42,4.26-0.63c1.85-0.66,2.98,0.08,3.77,1.78c0.6,1.29,1.33,2.52,1.97,3.79c0.49,0.97,0.6,1.64-0.91,1.98
		C63.46,165.97,61.48,166.02,59.64,166.71z"/>
	<path class="st17" d="M59.64,166.71c1.63-1.19,3.65-0.87,5.46-1.38c1.06-0.3,1.33-0.51,0.64-1.54c-0.8-1.18-1.48-2.47-1.99-3.8
		c-0.6-1.56-1.66-2.12-3.22-2.01c4.22-1.2,8.58-1.62,12.9-2.3c4.76-0.75,4.63-0.67,4.83,4.26c0.11,2.59-0.44,3.85-3.32,4.18
		C69.8,164.68,64.81,166.25,59.64,166.71z"/>
	<path class="st18" d="M79.28,35.29c0.15,1.27-0.24,1.72-1.62,1.44c-9.23-1.82-18.47-3.61-27.72-5.29
		c-1.75-0.32-1.93-1.22-1.87-2.64c0.05-1.14,0.51-1.28,1.52-1.08c9.37,1.91,18.76,3.78,28.14,5.63
		C78.87,33.6,79.46,34.11,79.28,35.29z"/>
	<path class="st19" d="M57.75,148.92c-0.06-0.31-0.12-0.61-0.19-0.92c2.04-1.89,4.69-1.24,7.06-1.59
		c8.58-1.28,17.18-2.39,25.75-3.73c0.32-0.05-0.08,0.01,0.24-0.04c4.79-0.8,4.81-0.8,4.78-5.61c-0.01-2.07,0.19-4.15-0.3-6.2
		c-0.22-0.9,0.16-1.34,0.99-1.53c0.51,0.03,1.03,0.07,1.54,0.1c-0.42,4.12-0.15,8.24-0.14,12.36c0,1.64-0.33,2.43-2.14,2.59
		c-3.55,0.3-7.03,1.14-10.61,1.25c-3.42,0.36-6.81,0.91-10.21,1.44l0.03-0.02c-3.68,0.51-7.41,0.74-11.05,1.51l0.05-0.03
		C61.59,148.42,59.74,149.58,57.75,148.92z"/>
	<path class="st20" d="M91.01,37.87c-0.19,1.16-0.81,2.11-2.26,2.15c-1.36,0.04-3.14-1.83-3.03-3.23c0.11-1.33,0.84-2.26,2.29-2.3
		C89.45,34.46,91.05,36.21,91.01,37.87z"/>
	<path class="st21" d="M63.49,148.52c3.59-1.2,7.31-1.42,11.05-1.51C70.9,147.87,67.22,148.38,63.49,148.52z"/>
	<path class="st21" d="M74.51,147.03c3.35-0.86,6.7-1.67,10.21-1.44C81.37,146.46,77.96,146.86,74.51,147.03z"/>
	<path class="st21" d="M57.75,148.92c1.94,0.08,3.81-0.85,5.78-0.43c-2.03,0.78-4.16,0.87-6.3,0.92
		C57.4,149.24,57.58,149.08,57.75,148.92z"/>
	<path class="st22" d="M68.74,69.22c1.42,0.91,1.82-0.6,2.3-1.2c1.26-1.55,2.48-1.48,4.1-0.68c4.07,2,4.09,1.95,6.5-1.65
		c0.3-0.45,0.68-0.85,1.02-1.28c0.94,1.07,0.56,2.25,0.23,3.38c-0.58,1.98-0.93,4.03-1.74,5.94c-0.58,1.39-0.1,2.04,1.33,2.33
		c2.73,0.55,5.52,0.63,8.24,1.15c0.69,2.39,0,4.88,0.54,7.3c0.14,0.6-0.02,1.28,0.29,1.87c4.11,7.71,6.84,16.24,13.35,22.52
		c0.21,0.35,0.33,0.73,0.35,1.13c0.03,0.87,0.26,1.97-0.7,2.34c-0.81,0.31-1.39-0.57-1.93-1.15c-4.62-5.02-8.48-10.56-11.37-16.75
		c-0.24-0.51-0.48-1.01-0.77-1.49c-0.42-0.67-0.8-1.58-1.71-1.46c-1.16,0.16-0.65,1.26-0.78,1.96c-0.11,0.56-0.22,1.09-0.71,1.46
		c-1.91,0.45-3.75-0.23-5.62-0.35c-0.94-0.06-1.87-0.37-2.8,0c-1.5,0.75-1.7,2.44-2.59,3.62c-0.55,0.73-0.68,1.85-1.9,1.93
		c-0.07-0.03-0.2-0.05-0.21-0.09c-0.57-2.84-2.91-3.73-5.15-4.85c-1.99-1-3.76-2.37-5.12-4.22c-0.71-0.96-1.55-1.82-2.84-2.04
		c-0.77-0.13-1.32-0.55-1.4-1.4c0.5-2.65,1.94-4.93,2.89-7.41c1.66-2.77,2.94-5.74,4.35-8.64C67.46,70.7,67.27,69.29,68.74,69.22z"
		/>
	<path class="st23" d="M68.74,69.22c-0.88,0.57-0.7,1.77-1.43,2.43c-0.95,0.3-1.2,1.23-1.69,1.91c-0.72,0.99-1.53,1.85-2.67,2.31
		c-3.35,1.34-6.24,3.47-9.25,5.39c-3.86,2.47-8.07,4.06-12.54,5.04c-0.63,0.14-1.26,0.25-1.81-0.22c0.04-2.84,1.65-5.16,2.53-7.72
		c0.72-2.06,2.23-3.4,4.03-4.52c4.72-2.93,9.17-6.23,13.5-9.7c0.42-0.34,0.91-0.66,1.03-1.26c5.78-4.63,11.57-9.25,17.35-13.88
		c0.34,0.27,0.52,0.55,0.26,1C74.49,56.19,71.73,62.77,68.74,69.22z"/>
	<path class="st24" d="M87.46,94.62c0-0.56,0.03-1.12-0.01-1.67c-0.07-0.91-0.51-1.88,0.85-2.32c1.41-0.45,1.92,0.66,2.38,1.45
		c2.05,3.58,3.89,7.28,5.98,10.84c2.05,3.48,5.38,5.9,7.46,9.38c0.2-0.09,0.41-0.18,0.61-0.27c0-0.99,0-1.98,0-2.97
		c-1.16-3.68-1.26-7.36,0-11.04c0.49-2.19,0.49-4.42,0.48-6.65c-0.02-9.11-0.01-18.23,0.01-27.34c0-0.84-0.33-1.78,0.46-2.48
		c0.01,1.76,0.02,3.52,0.03,5.28c0.96,1.06,0.73,2.39,0.73,3.63c-0.02,6.58-0.12,13.15-0.07,19.72c-0.01,1.99-0.01,3.99,0,5.98
		c0.15,6.5-0.79,12.97-0.51,19.48c0.06,1.33-0.43,2.63-0.62,3.95c-0.17,0.18-0.35,0.35-0.52,0.53c-1.96,0.54-3.28-0.37-4.43-1.84
		c-3.58-4.57-6.5-9.58-9.72-14.4c-1.51-2.27-1.78-4.72-1.82-7.25c-0.01-0.88,0.09-1.57-0.84-1.94
		C87.74,94.82,87.59,94.81,87.46,94.62z"/>
	<path class="st15" d="M104.74,98.02c0,3.68,0,7.36,0,11.04c-3.07-2.25-4.99-5.42-6.94-8.59C95.05,96,93.27,91.05,91,86.35
		c-1.21-2.5-1.18-5.97-0.2-9.01c-0.4-0.48-0.38-0.95,0.03-1.41c1.27,2.87,3.89,4.79,5.21,7.7c0.85,1.87,1.96,3.71,2.29,5.69
		c0.4,2.46,1.78,4.38,2.72,6.55C101.74,97.5,103.28,97.71,104.74,98.02z"/>
	<path class="st25" d="M90.83,75.94c-0.01,0.47-0.02,0.94-0.03,1.41c-1.61,1.09-3.2-0.21-4.83-0.08c-1.29,0.1-2.63-0.59-3.96-0.63
		c-2.55-0.08-2.22-1.29-1.55-3.04c1.12-2.95,2.2-5.94,2.21-9.18c1.32-1.82,3.24-0.88,4.86-0.92c4.52-0.13,4.85,0.42,4.13,4.92
		C91.26,70.91,91.1,73.43,90.83,75.94z"/>
	<path class="st26" d="M134.99,99.43c-0.16,0.77-0.42,1.54-0.45,2.32c-0.05,1.26-0.45,1.32-1.75,1.32
		c-3.06,0.02-6.27,0.02-8.95,2.38c-1.1-2.19,0.38-4.77-0.85-6.95c-1.06-1.75-0.93-3.5-0.05-5.27c0.02-5.76,0.03-11.53,0.05-17.29
		c0.16-0.21,0.31-0.22,0.46,0.01c0,1.12,0,2.24,0,3.36c0,4.46,0,8.92,0,13.62c1.32-1,0.96-2.43,1.45-3.5
		c0.47-1.03,0.86-1.46,2.11-1.05c3.93,1.29,7.03,3.56,9.28,7.03c0.9,1.39,0.49,2.94,0.63,4.42
		C136.09,100.62,135.85,98.56,134.99,99.43z"/>
	<path class="st27" d="M130.17,63.94c0.24-2.94,0.96-3.39,3.35-1.91c3.26,2.03,6.11,4.42,6.27,8.7c0.15,4.16-1.29,6.32-5.29,8.09
		c-4.01-0.05-4.27-0.3-4.3-4.36C130.17,70.96,130.18,67.45,130.17,63.94z"/>
	<path class="st28" d="M134.99,99.43c1.14-2.24,1.25,0.46,1.93,0.4c0.99,1.79,1.98,3.58,2.97,5.37c1.23,3.34,3.55,6.09,5.08,9.26
		c0.22,0.46,0.86,0.82,0.17,1.38c-1.43-1.33-2.93-0.13-4.28,0.1c-1.68,0.29-3.27,1.15-5.02,1.31c-0.89,0.08-0.83,0.81-0.94,1.42
		c-1.11-1.39-0.13-2.91-0.24-4.37c-0.07-0.93,0.18-1.89,0.29-2.84c0.67-1.2-0.11-2.64,0.69-4.27c0.98,2.68,3.38,2.5,5.31,3.5
		c-1.37-4.12-4.16-7.31-5.59-11.18C135.25,99.49,135.12,99.46,134.99,99.43z"/>
	<path class="st21" d="M96.07,129.29c-1.07,0.65-0.07,1.32-0.05,1.99c0.07,3.43,0.1,6.87,0.03,10.3c-0.03,1.39-1.22,1.43-2.28,1.56
		c-5.33,0.67-10.64,1.49-15.95,2.2c-5.41,0.72-10.79,1.86-16.26,2.07c-1.38,0.05-2.66,0.5-4,0.58c-2.46-2.89-3.74-6.44-5.47-9.73
		c-3.14-5.97-6.44-11.88-8.81-18.22c0.21-0.14,0.44-0.17,0.69-0.11c4.98,1.95,10.21,3.03,15.36,4.38c1.31,0.34,2.1-0.12,2.74-1.24
		c1.55-2.69,3.02-5.41,4.36-8.21c0.67-0.91,0.77-2.3,2.16-2.62c1.86,0.69,2.61,2.52,3.82,3.84c3.49,3.82,7.06,7.58,10.27,11.65
		c3.39,0.94,6.88,0.9,10.35,1.06C94.08,128.86,95.09,128.92,96.07,129.29z"/>
	<path class="st29" d="M82.69,127.75c-2.02-0.93-3.12-2.84-4.54-4.37c-3.28-3.54-6.39-7.24-9.57-10.88
		c-0.44-1.46,0.35-2.42,1.33-3.31c1.04-0.61,1.86-0.07,2.58,0.59c2.49,2.27,5.69,2.78,8.75,3.63c0.47,0.13,0.94,0.1,1.42-0.01
		c2.27-0.53,2.27-0.52,1.95,1.96C84.34,119.54,83.52,123.64,82.69,127.75z"/>
	<path class="st30" d="M87.46,94.62c0.15,0.04,0.3,0.05,0.46,0.06c-0.03,2.94-0.69,5.77-1.42,8.59c-2.91,1.55-5.7,0.77-8.44-0.46
		c-2.16-0.97-2.62-2.2-1.73-4.4c0.58-1.45,1.51-2.74,1.93-4.27c2.41-1.14,4.73,0.39,7.12,0.26C86.06,94.36,86.76,94.54,87.46,94.62z
		"/>
	<path class="st31" d="M78.25,94.14c0.48,0.1,0.93,0.1,0.49,0.85c-3.61,6.3-3.51,6.48,3.3,8.52c1.38,0.41,2.43,0.28,3.41-0.81
		c0.99-1.11,1.04-0.25,1.05,0.57c-0.9,1.19-0.28,2.56-0.45,3.84c-0.11,0.83,0.2,1.73-0.48,2.45c-5.15,0.57-9.83-0.39-13.61-4.24
		c-0.28-2.34,1.2-3.82,2.59-5.36C75.98,98.16,76.4,95.69,78.25,94.14z"/>
	<path class="st32" d="M72.12,105.23c2.63,2.31,5.9,3.1,9.19,3.85c1.15,0.26,2.23,0.77,3.37-0.2c0.56-0.48,0.74,0.23,0.87,0.68
		c-0.16,1.96-0.26,3.92-0.94,5.79c-0.05-0.69-0.1-1.38-0.18-2.45c-1.33,1.62-2.65,1.39-4.21,0.94c-3.27-0.95-6.56-1.73-9.01-4.37
		c-0.16-0.18-0.72,0.02-1.1,0.04c-0.49-0.68-0.11-1.32,0.08-1.98C70.69,106.65,71.04,105.63,72.12,105.23z"/>
	<path class="st6" d="M123.46,75.95c-0.15,0-0.31-0.01-0.46-0.01c0-4.96-0.01-9.91-0.01-14.87c0.82,0.79,0.45,1.8,0.46,2.71
		C123.48,67.84,123.46,71.89,123.46,75.95z"/>
	<path class="st33" d="M122.49,82.19c0.01,3.67,0.02,7.35,0.03,11.02c0.41,1.27,0.19,2.57,0.15,3.86c-1.34,6.11-0.39,6.28-7.93,7.11
		c-1.82,0.2-3.64,0.4-5.47,0.3c-2.51-0.14-3.03-0.7-3.08-3.2c-0.07-3.74,0.14-7.48-0.11-11.21c-0.28-4.22-0.06-8.45-0.12-12.68
		c0-0.31-0.01-0.64,0.4-0.95c1.09,0.5,1.02,1.64,1.16,2.56c0.44,2.82,1.83,4.64,4.73,5.32c1.7,0.4,3.35,1.03,4.97,1.73
		c2.01,0.88,2.56,0.49,3.4-1.56C120.99,83.61,120.45,81.79,122.49,82.19z"/>
	<path class="st34" d="M122.49,82.19c-1.64,0.34-0.9,1.85-1.27,2.77c-1.05,2.63-1.81,3.19-4.21,1.79c-1.63-0.95-3.43-1.49-5.13-1.83
		c-3.38-0.68-4.57-2.82-5.05-5.79c-0.11-0.7-0.2-1.39-0.66-2.1c0,4.28,0,8.55,0,12.83c0.11,0.1,0.17,0.22,0.16,0.34
		c-0.01,0.13-0.03,0.2-0.06,0.2c-0.19,0.12-0.37,0.11-0.53-0.05c0-7.84-0.01-15.69-0.01-23.53c0.57-0.29,1.29-0.34,1.28,0.41
		c-0.03,3.93,3.21,3.96,5.69,4.83c1.57,0.55,3.25,0.8,4.8,1.4c1.91,0.73,3.25,0.61,3.76-1.67c0.08-0.34,0.41-0.62,1.22-0.88
		C122.49,74.67,122.49,78.43,122.49,82.19z"/>
	<path class="st34" d="M122.48,97.08c0.01-1.29,0.02-2.58,0.03-3.87c0.15,0.01,0.29,0.01,0.44,0.02c0.02,1.76,0.03,3.51,0.05,5.27
		c-0.02,4.17-0.03,8.34-0.05,12.51c-0.14-0.02-0.28-0.04-0.42-0.05c-1.11-1.14-0.5-2.62-0.76-3.92
		C121.77,103.7,121.55,100.35,122.48,97.08z"/>
	<path class="st35" d="M135.38,99.5c2.85,3.69,4.85,7.84,6.97,12.6c-2.15-1-3.59-2.07-5.55-1.88c-0.82,0.08-0.63-1.45-1.15-2.16
		c-0.57,1.11,0.32,2.45-0.69,3.4C134.83,107.47,135.03,103.48,135.38,99.5z"/>
	<path class="st14" d="M122.48,97.08c0,3.36,0,6.71,0.01,10.07c-1.45,4.17-1.45,4.21-6.03,4.35c-2.62,0.08-5.2,0.58-7.84,0.48
		c-1.64-0.06-2.64-0.5-2.46-1.98c-0.04,0.54,0.07,1.43,0.19,2.33c-0.18,1.8,0.55,3.7-0.63,5.38c-0.03,0.62-0.07,1.24-0.1,1.85
		c0,0-0.19,0.03-0.19,0.03s-0.19-0.01-0.19-0.01c-0.21-7.84,0.26-15.66,0.47-23.49c0.64-1.88-0.17-3.88,0.46-5.76
		c0-0.16,0-0.32,0-0.48c0.96,1.21,0.36,2.62,0.45,3.93c0.11,1.51,0,3.03,0.03,4.55c0.11,6.15-1.19,5.47,5.98,5.39
		c1.88-0.02,3.76-0.82,5.63-0.78c2.49,0.06,2.88-1.55,3.21-3.29C121.66,98.72,121.65,97.76,122.48,97.08z"/>
	<path class="st36" d="M105.73,117.72c0.01-1.91,0.02-3.82,0.03-5.74c1.27-0.65,1.35,0.46,1.48,1.13c0.3,1.61,1.36,1.98,2.77,1.98
		c2.38,0,4.76,0,7.14,0c1.42,0,2.65-0.33,3.58-1.51c0.41-0.52,0.86-1.24,1.75-0.67c0.01,2.56,0.01,5.11,0.02,7.67
		c-2.74,2.1-5.84,0.92-8.46,0.23C111.23,120.1,108.12,119.71,105.73,117.72z"/>
	<path class="st37" d="M122.47,112.93c-0.69-0.02-0.97,0.49-1.2,1c-0.64,1.46-1.85,1.86-3.31,1.86c-2.8-0.01-5.6-0.04-8.39,0.01
		c-1.87,0.04-3.18-0.4-2.92-2.67c0.07-0.62-0.16-1.11-0.89-1.15c0-1.66,0-3.32,0-5.37c1.35,1.06,0.84,2.16,0.88,3.06
		c0.05,1.24,0.24,1.7,1.78,1.71c3.31,0.02,6.57-0.73,9.9-0.45c1.59,0.13,2.98-0.6,3.24-2.49c0.08-0.61,0.39-1.03,0.94-1.28
		c0.01,1.27,0.02,2.54,0.04,3.8C122.51,111.61,122.49,112.27,122.47,112.93z"/>
	<path class="st38" d="M43.84,120.29c-0.18-0.08-0.37-0.16-0.55-0.24c-0.01-0.21-0.02-0.43-0.04-0.64c-1.5-4.63-3.89-8.88-5.66-13.4
		c-0.92-2.36-2.05-4.63-2.97-6.99c-1.44-2.63,0.5-4.62,1.28-6.83c0.51-0.06,0.93-2.11,1.55-0.08c0.02,0.23,0,0.47-0.04,0.7
		c-0.05,0.23-0.13,0.46-0.2,0.68c-0.74,2.37-0.74,2.38,1.66,2.51c1.76,0.1,3.48,0.39,5.12,1.02c2.08,0.8,3.71,2.1,4.72,4.15
		c0.63,1.28,1.4,1.93,2.64,0.46c0.58-0.69,1.54-1.61,1.93,0.27c-1.19,4.28-3.62,8.02-5.26,12.1c-0.79,1.45-1.43,2.97-2.11,4.47
		C45.52,119.34,45.26,120.51,43.84,120.29z"/>
	<path class="st39" d="M60.43,62.89c0.89,0.99-0.31,1.27-0.69,1.57c-4.51,3.57-9.08,7.08-14.02,10.06
		c-1.53,0.92-2.57,2.28-3.36,3.85c-0.45-0.22-0.51-0.66-0.61-1.08c0.68-2.44,3.02-3.12,4.76-4.39
		C51.12,69.51,55.78,66.22,60.43,62.89z"/>
	<path class="st40" d="M41.75,77.28c0.45,0.22,0.58,0.62,0.61,1.08c-0.96,2.55-1.92,5.1-2.88,7.65c0.47,1.67-0.81,2.91-1.05,4.41
		c-0.4,0.65-0.14,1.8-1.36,1.84c-0.28-1.51-0.81,0.42-1.16-0.08C37.82,87.21,39.51,82.14,41.75,77.28z"/>
	<path class="st41" d="M34.62,99.01c1.38,2.03,2.17,4.35,3.13,6.58c1.66,3.85,3.34,7.69,5.04,11.53c0.33,0.74,0.62,1.46,0.46,2.29
		C40.13,112.71,36.85,106.08,34.62,99.01z"/>
	<path class="st42" d="M72.12,105.23c-0.49,0.8-0.98,1.59-1.47,2.39c-0.94,1.53-1.88,1.66-2.74-0.05c-0.95-1.89-2.95-2.64-4.34-4.05
		c-1.28-1.31-2.64-2.55-3.88-3.91c-1.04-1.14-1.95-2.13-3.52-0.69c-0.59,0.54-1.36,0.48-1.7-0.49c0.77-3.12,2.24-5.95,3.65-8.81
		c0.81-0.58,0.63-2.07,1.96-2.18c0.14,0.27,0.29,0.78,0.42,0.78c2.58-0.06,3.45,2.14,4.91,3.59c1.74,1.74,3.74,3.27,6.11,3.94
		c1.81,0.51,2.85,1.17,2.53,3.2c-0.05,0.31,0.31,0.68,0.48,1.02C74.15,101.92,72.35,103.21,72.12,105.23z"/>
	<path class="st39" d="M38.02,90.35c0.07-1.58,0.98-2.89,1.46-4.33c5.12-0.94,9.94-2.64,14.33-5.51c2.85-1.87,5.59-3.94,8.84-5.1
		c1.74-0.62,2.42-2.19,3.39-3.54c0.21-0.3,0.61-1.7,1.28-0.22c-1.25,2.96-2.48,5.93-4.24,8.64c-1.02,0.31-1.07,1.32-1.41,2.08
		c-0.67,1.51-1.64,2.77-3.15,3.44c-5.97,2.66-12.05,4.95-18.68,5.25C39.19,91.09,38.17,91.72,38.02,90.35z"/>
	<path class="st43" d="M38.02,90.35c5.21,0.38,10.04-1.24,14.86-2.88c1.2-0.41,2.33-1.03,3.53-1.39c2.36-0.7,4.06-2.15,5.03-4.37
		c0.35-0.81,0.63-1.45,1.62-1.41c-0.99,2.38-1.99,4.77-2.98,7.15c-0.75,0.62-0.47,1.87-1.45,2.36c-1.33,0.55-1.38,1.98-2.01,3
		c-0.76,1.2-1.81,1.85-3,1.27c-4.05-1.98-8.15-0.85-12.24-0.44c-1.11,0.11-2.22,0.25-3.34,0.35c-0.81,0.07-1.5-0.15-1-1.23
		c0-0.16,0.01-0.31,0.01-0.47C37.84,91.85,37.24,90.76,38.02,90.35z"/>
	<path class="st33" d="M106.18,90.34c-0.23,1.91,0.51,3.9-0.46,5.76c0.01-1.92,0.02-3.83,0.03-5.75
		C105.89,90.35,106.03,90.34,106.18,90.34z"/>
	<path class="st44" d="M54.82,98.5c1.17,0.91,1.45-0.44,2.03-0.86c0.77-0.56,1.22-0.69,1.98,0.15c2.62,2.89,5.26,5.79,8.57,7.96
		c0.51,0.33,0.78,0.76,0.91,1.33c0.4,1.79,1.34,1.35,2.35,0.54c-0.18,0.63-0.36,1.26-0.53,1.89c-0.67,0.91-1.3,1.85-1.54,2.99
		c-0.98,0.48-0.69,1.88-1.69,2.35c-1.31,2.64-3.29,4.81-5.01,7.17c-0.62,0.85-1.53,1.07-2.56,0.9c-5.51-0.95-9.4-4-11.73-9.07
		c1.78-3.99,3.55-7.98,5.33-11.96C53.55,100.76,52.79,98.84,54.82,98.5z"/>
	<path class="st45" d="M47.59,113.84c0.89,0.99,1.97,1.87,2.63,2.99c2.1,3.57,5.65,4.57,9.25,5.56c0.98,0.27,1.56-0.14,2.17-0.96
		c1.68-2.25,3.49-4.4,5.25-6.59c-1.14,3.59-3.33,6.65-5.06,9.95c-0.24,0.46-0.71,0.66-1.22,0.52c-5.42-1.53-10.97-2.61-16.29-4.51
		c-0.19-0.07-0.32-0.34-0.47-0.52c1.61-0.83,1.56-2.64,2.34-3.97C46.65,115.5,47.12,114.67,47.59,113.84z"/>
	<path class="st40" d="M54.82,98.5c-1.11,0.86-0.78,2.53-1.91,3.38c-0.67-1.46-1.03-0.09-1.28,0.22c-1.72,2.09-1.96,2.22-3.15-0.21
		c-1.96-4.02-5.48-5-9.37-5.26c-3.92-0.27-3.93-0.14-2.06-3.88c1.36,1.6,2.92,0.16,4.34,0.17c2.58,0.02,5.13-0.73,7.75-0.66
		c1.22,0.03,2.35,0.17,3.41,0.81c1.72,1.03,3.1,1,3.95-1.15c0.34-0.87,0.9-1.68,1.47-2.43c0.41-0.54,0.61-0.14,0.67,0.33
		C57.37,92.7,56.09,95.6,54.82,98.5z"/>
</g>
</svg>
