<?xml version="1.0" encoding="utf-8"?>
<!-- Generator: Adobe Illustrator 23.0.2, SVG Export Plug-In . SVG Version: 6.00 Build 0)  -->
<svg version="1.1" id="Camada_1" xmlns="http://www.w3.org/2000/svg" xmlns:xlink="http://www.w3.org/1999/xlink" x="0px" y="0px"
	 viewBox="0 0 62.5 62.6" style="enable-background:new 0 0 62.5 62.6;" xml:space="preserve">
<style type="text/css">
	.st0{fill:#323232;}
	.st1{fill:#FEFEFE;}
	.st2{fill:#00C8F6;}
	.st3{fill:#00689D;}
	.st4{fill:#CA5600;}
	.st5{fill:#7AEBFE;}
	.st6{fill:#79E9FC;}
	.st7{fill:#6BE7FD;}
	.st8{fill:#64E5FD;}
	.st9{fill:#FEBB00;}
	.st10{fill:#FE9000;}
	.st11{fill:#FCDF84;}
	.st12{fill:#FCDE81;}
	.st13{fill:#FCDD81;}
</style>
<g>
	<path class="st0" d="M31.3,62.6C13.7,62.3-0.1,48.8,0,31.1C0.1,13.6,13.7-0.2,31.6,0c17.3,0.2,31.2,13.8,30.9,31.9
		C62.2,49,48.9,62.3,31.3,62.6z"/>
	<path class="st1" d="M31.3,56.8C17.4,57,5.5,45.3,5.7,31C5.8,17.2,17.3,5.4,31.8,5.7c13.6,0.2,25.4,11.7,25.1,26.3
		C56.5,45.6,45.1,57,31.3,56.8z"/>
	<path class="st2" d="M51.5,22.5c2.3,4.3,2.5,9,1.5,13.6C49.5,51.3,32.5,58.3,19.3,50c-2.3-1.5-4.4-3.3-5.9-5.6
		c-3.8-9-0.1-20.3,8-25.9c4.1-2.9,8.7-4.3,13.6-4.2c6.1,0.2,11.3,2.5,15.6,6.9C51,21.6,51.2,22.1,51.5,22.5z"/>
	<path class="st3" d="M51.5,22.5c-1.4-1.2-2.7-2.6-4.3-3.7c-4.2-3-8.9-4.4-14-4.1c-10.4,0.5-18.8,8.2-20.7,18
		c-0.7,3.7-0.4,7.3,0.6,10.9c0.1,0.3,0.1,0.6,0.2,0.9c-2.7-3.3-4-7.1-4.3-11.3C8.6,26,10.9,20,16.1,15c6-5.7,15.7-7.6,23.4-4.5
		c4.8,2,8.5,5.2,11.2,9.6C51,20.9,51.4,21.6,51.5,22.5z"/>
	<path class="st4" d="M17.4,42.9c-0.1-0.9-0.5-1.7-0.4-2.6l0,0c0.7-3,2.5-5,5.3-6.1c0.5-0.2,0.4-0.7,0.4-1c0-3,0.1-6,0-9
		c-0.1-3.4,0.9-5.4,4.8-5.9c3.9-0.5,7.8-1.4,11.6-2c2.9-0.5,4.3,0.5,5.3,3.2c0.9,1.2,0.7,2.5,0.2,3.8c0,4.4-0.1,8.7,0,13.1
		c0.1,6-6,9.2-10.4,7.6c-1.1-0.4-1.8-0.9-3.2-2.6c-1.4,3.5-4.2,5-7.7,5.4C20.9,47.5,17.5,45.2,17.4,42.9z"/>
	<path class="st5" d="M44.6,23.3c-0.2-1.3,0.1-2.6-0.2-3.8c2.1-0.7,3.7,1.9,3.6,4.5c0,0.5-0.2,1-0.7,1.1c-0.5,0.2-1,0.2-1.4-0.2
		c-0.2-0.2-0.4-0.4-0.5-0.6C45.1,23.9,44.9,23.6,44.6,23.3z"/>
	<path class="st6" d="M17.4,42.9c1,2.7,3.3,3.6,5.9,3.9c-0.3,0.8-0.9,1-1.6,0.9c-1.9-0.4-3.5-1.3-4.6-2.9
		C16.6,44.1,16.6,43.4,17.4,42.9z"/>
	<path class="st7" d="M48.7,28.8c0,0.4-0.3,0.6-0.6,0.6c-0.4,0-0.8-0.2-0.8-0.7c0-0.4,0.2-0.7,0.6-0.6
		C48.3,28.1,48.6,28.4,48.7,28.8z"/>
	<path class="st8" d="M17,40.3c-0.6,0.3-1.1,0.3-1.4-0.4c-0.1-0.3,0.2-0.5,0.4-0.5C16.7,39.3,16.9,39.7,17,40.3
		C17,40.3,17,40.3,17,40.3z"/>
	<path class="st9" d="M38.6,23.4c-3.2,0.6-6.3,1.2-9.5,1.7c-0.7,0.1-0.8,0.4-0.8,1c0,2.2,0,4.3,0,6.5c-0.8,0.6-1.6,0.9-2.6,0.5
		c0-3.5,0-7.1,0-10.6c0.4-0.4,1-0.5,1.6-0.5c4.2-0.1,8.4-1,12.5-1.7c0.6-0.1,1.2-0.3,1.7,0.1c0,3.2,0,6.4,0,9.6
		c-0.3,0.3-0.7,0.4-1.1,0.4c-1.2,0.2-1.4,0-1.4-1.2c0-1.6,0-3.2,0-4.8C38.9,24.1,39.2,23.6,38.6,23.4z"/>
	<path class="st10" d="M38.6,23.4c0.8-0.2,0.5,0.4,0.5,0.7c0,1.6,0,3.3,0,4.9c0,0.9,0.2,1.4,1.2,1c0.3-0.1,0.8-0.1,1.2-0.1
		c0,2.4,0,4.9,0,7.3c0.1,3.1-4.6,5.1-6.8,3.7c-1.8-1.1-1.9-3.4-0.1-4.8c0.1,0.1,0.1,0.2,0.1,0.3c0,0.4-0.3,1.1,0.4,1.1
		c0.7,0,1.2-0.5,1.4-1.1c0.1-0.4-0.1-0.6-0.5-0.7c-0.3-0.1-0.7,0.2-1-0.1c0.7-1.1,1.8-1.4,3-1.5c0.5-0.1,0.9-0.1,0.9-0.8
		c0-3.2,0-6.4,0-9.6C38.8,23.8,38.7,23.6,38.6,23.4z"/>
	<path class="st10" d="M25.7,33.1c0.9-0.2,1.7-0.3,2.6-0.5c0,2.3,0,4.7,0,7c0,1.7-1.7,3.5-3.7,4c-1.3,0.3-2.6,0.4-3.6-0.7
		c-1.2-1.3-1.3-2.2-0.3-3.8c0.8,0.7,1.8,0.5,2.4-0.4c0.4-0.6-0.1-0.9-0.4-1.3c0.7-0.6,1.5-0.7,2.3-0.7c0.6,0,0.8-0.3,0.8-0.9
		C25.6,34.9,25.6,34,25.7,33.1z"/>
	<path class="st11" d="M41.5,20.3c-2.5,0.4-5.1,0.8-7.6,1.3c-2.7,0.5-5.4,0.6-8.2,0.9c0-0.8,0.5-1.1,1.2-1.2
		c4.2-0.7,8.3-1.5,12.5-2.3C40.9,18.7,41.4,19,41.5,20.3z"/>
	<path class="st12" d="M35,35.8c0.3-0.1,0.6-0.2,0.9-0.3c0.3-0.1,0.6,0,0.8,0.2c0.4,0.4,0.4,0.9,0,1.3c-0.5,0.6-1.1,1.4-2.1,1
		c-0.6-0.2-0.5-0.8-0.3-1.2c0.1-0.2,0.1-0.4,0.2-0.6C34.7,36,34.8,35.9,35,35.8z"/>
	<path class="st13" d="M22.5,37.4c0.4,0,0.8,0,1,0.5c0.1,0.5,0,0.9-0.4,1.2c-0.3,0.3-0.7,0.6-1.1,0.7c-0.8,0.4-1.3,0.3-1.4-0.7
		C21,38.3,21.7,37.8,22.5,37.4z"/>
</g>
</svg>
