<?xml version="1.0" encoding="utf-8"?>
<!-- Generator: Adobe Illustrator 23.0.2, SVG Export Plug-In . SVG Version: 6.00 Build 0)  -->
<svg version="1.1" id="Camada_1" xmlns="http://www.w3.org/2000/svg" xmlns:xlink="http://www.w3.org/1999/xlink" x="0px" y="0px"
	 viewBox="0 0 97.79 97.56" style="enable-background:new 0 0 97.79 97.56;" xml:space="preserve">
<style type="text/css">
	.st0{fill:#323232;}
	.st1{fill:#FEFEFE;}
	.st2{fill:#2CC3EC;}
	.st3{fill:#44D4FE;}
	.st4{fill:#2FC7F3;}
	.st5{fill:#19AEDC;}
	.st6{fill:#137196;}
	.st7{fill:#4DCDF1;}
	.st8{fill:#72D8EB;}
	.st9{fill:#14BDF3;}
	.st10{fill:#66DBF7;}
	.st11{fill:#17B4E6;}
	.st12{fill:#189BD4;}
	.st13{fill:#1688B7;}
	.st14{fill:#B15505;}
	.st15{fill:#EFFBFB;}
	.st16{fill:#D6F5F7;}
	.st17{fill:#FCFDFD;}
	.st18{fill:#E7F7F4;}
	.st19{fill:#199BCB;}
	.st20{fill:#18C8FD;}
	.st21{fill:#35CAF7;}
	.st22{fill:#FC8A00;}
	.st23{fill:#43D2FE;}
	.st24{fill:#FC8E01;}
	.st25{fill:#FD9705;}
	.st26{fill:#FB8502;}
	.st27{fill:#F86A02;}
	.st28{fill:#FB8701;}
	.st29{fill:#F86902;}
	.st30{fill:#FCA008;}
	.st31{fill:#F86D03;}
	.st32{fill:#FDA406;}
	.st33{fill:#FCA11F;}
	.st34{fill:#FABB0F;}
	.st35{fill:#FDBB47;}
	.st36{fill:#FBBC0B;}
	.st37{fill:#FCCB28;}
	.st38{fill:#FCA30A;}
	.st39{fill:#F87808;}
	.st40{fill:#F86E01;}
	.st41{fill:#16BEF0;}
	.st42{fill:#FEBB09;}
	.st43{fill:#FEC525;}
	.st44{fill:#FEC82D;}
	.st45{fill:#FEC724;}
	.st46{fill:#FEC728;}
	.st47{fill:#FED867;}
	.st48{fill:#FECE41;}
</style>
<g>
	<path class="st0" d="M97.79,52.03c0,0.48,0,0.96,0,1.44c-0.65,4.74-1.67,9.4-3.44,13.86c-2.89,7.25-7.37,13.36-13.28,18.47
		c-7.89,6.82-17.18,10.23-27.35,11.67c-0.78,0.11-1.55,0.07-2.33,0.11c-1.71,0-3.42,0-5.12,0c-8-0.59-15.55-2.68-22.5-6.77
		c-4.21-2.48-8.13-5.36-11.35-9.05C8.05,76.75,4.54,71.3,2.39,64.88c-2.63-7.85-2.79-15.8-1.88-23.78
		c0.83-7.28,3.62-13.96,7.82-20.07c4.85-7.07,11.21-12.35,18.8-16.05C32.9,2.16,39.09,0.58,45.6,0.12
		c9.11-0.64,17.7,1.24,25.75,5.21c7.18,3.54,13.08,8.72,17.79,15.35c4.72,6.64,7.14,14.02,8.38,21.92c0.17,1.08,0.04,2.15,0.09,3.23
		C97.71,47.9,97.4,49.97,97.79,52.03z"/>
	<path class="st1" d="M88.73,48.86C87.27,73.73,69.91,86.8,48.78,88.73C27.36,86.67,8.91,72.85,9.18,48.5
		C9.44,24.72,26.88,10.58,49.1,8.9C71.2,10.91,87.35,24.64,88.73,48.86z"/>
	<path class="st2" d="M25.32,74.39c-1.78-1.47-3.36-3.13-4.69-5.03c0.03-0.31-0.07-0.59-0.21-0.86c-2.48-4.45-2.28-9.25-1.99-14.12
		c0.23-3.84,1.4-7.37,2.74-10.89c0.39-1.02,0.64-2.25,2.1-2.36c0.62,0.46,0.63,1.12,0.58,1.79c-0.33,4.61-0.31,9.21,0.17,13.81
		c0.32,3.14,1.67,4.5,4.84,4.61c2.04,0.07,4.08,0.02,6.12,0.02c1.18,0,2.2,0.33,3.17,1.06c3.73,2.81,6.98,6.2,10.76,8.94
		c0.2,0.14,0.31,0.36,0.39,0.59c0,0.4-0.13,0.83,0.34,1.11c1.52,0.89,2.35,2.33,3.1,3.86c0.89,1.83,0.36,2.83-1.62,3.36
		c-2.4,0.63-4.73,0.22-7.08-0.1c-3.81-0.52-7.46-1.62-10.88-3.37c-0.78-0.4-1.72,0.05-2.37-0.64c-0.31-0.41-0.11-0.86-0.1-1.3
		c0.01-0.58-0.33-0.2-0.54-0.15C28.44,75.75,26.9,74.82,25.32,74.39z"/>
	<path class="st3" d="M81.55,36.28c1.46,3.02,2.06,6.23,2.23,9.55c0.53,2.26-0.25,4.35-0.74,6.5c-1.02,4.46-2.17,8.84-4.92,12.62
		c-0.58,0.59-1.18,1.15-2.08,1.18c-1.4-0.12-2.46-0.65-2.6-2.24c-0.02-1.54,0.76-2.87,1.15-4.3c1.96-7.32,1.82-14.48-1.23-21.51
		c-0.52-1.19-1.27-2.3-1.47-3.62c0-0.44,0.32-0.71,0.52-1.06c0.62-1.04,0.31-1.52-0.92-1.35c-0.96-0.03-1.66-0.36-1.78-1.43
		c0.23-1.07,0.62-2.07,1.19-3c5.05,0.71,7.94,4.06,10.1,8.3C81.14,36.14,81.28,36.3,81.55,36.28z"/>
	<path class="st4" d="M73.97,63.79c-0.01,1.52,1.35,1.43,2.22,1.91c0.62,0.86,0,1.47-0.46,2.07c-5.69,7.59-13.31,11.96-22.6,13.55
		c-5.86,1-11.54,0.13-17.09-1.83c-1.6-0.57-3.14-1.27-4.9-0.8c-2.24-1.03-4.1-2.59-5.84-4.3c0.86-0.12,1.76,0.13,2.6-0.26
		c0.26-0.12,0.53-0.32,0.72,0.1c0.74,1.67,0.72-0.39,1.15-0.23c0.7,0.36,0.65,1.17,1.03,1.72c3.8,0.29,6.8,3.03,10.57,3.41
		c3.06,0.31,6.06,1.47,9.19,0.6c0.63-0.18,1.23-0.44,1.83-0.7c0.45-0.2,0.64-0.51,0.28-0.99c-1.25-1.69-1.91-3.86-4-4.87
		c-0.3-0.15-0.74-0.4-0.52-0.77c0.11-0.19,0.64-0.14,0.99-0.2c0.93-0.45,1.97-0.45,2.94-0.77c1.82-0.6,2.88-1.79,3.35-3.62
		c0.71-2.79,1.08-2.9,3.39-1.3c0.94,0.66,1.73,1.4,2.41,2.35c2.45,3.41,5.59,3.54,8.37,0.42c1.07-1.21,2-2.53,2.79-3.95
		C72.76,64.67,73.01,63.85,73.97,63.79z"/>
	<path class="st5" d="M23.37,41.25c-0.94,0.32-1.07,1.28-1.36,1.99c-2,4.94-3.26,10.06-3.06,15.44c0.12,3.16,0.34,6.3,1.65,9.25
		c0.2,0.45,0.66,0.94,0.02,1.42c-3.17-4.35-5.42-9.1-6.1-14.5c0.64,0.51,0.64,0.51,1.02,1.72c-1.31-3.73-0.93-7.57-0.72-11.41
		c0.01-0.18,0.04-0.35,0.08-0.53c0.23-1.44,0.76-2.8,1.08-4.21c1.2-2.47,1.99-5.11,3.39-7.5c3.97-6.76,9.42-11.82,16.67-14.9
		c3.62-1.54,7.37-2.4,11.29-2.55c1.41,0.11,2.86-0.26,4.24,0.27c0.39,0.35,0.24,0.7,0,1.05c-1.45,0.57-3.02,0.34-4.5,0.39
		c-5.73,0.21-10.77,2.21-15.46,5.32c-3.4,2.26-6.04,5.2-8.12,8.7c-0.71,1.19-0.81,2.27,0.23,3.22c1.55,1.43,1.73,3.01,0.79,4.81
		c-0.05,0.59-0.55,1-0.62,1.59C23.8,41.08,23.65,41.25,23.37,41.25z"/>
	<path class="st6" d="M15.68,38.16c2.11-7.32,6.48-13.09,12.61-17.43c7.85-5.56,16.58-7.92,26.22-6.15
		c0.46,0.38,1.07,0.04,1.54,0.32c0.28,0.17,0.77,0.23,0.66,0.7c-0.09,0.39-0.5,0.54-0.85,0.51c-1.07-0.09-2.12-0.34-3.21-0.27
		c-6.64-0.64-12.94,0.56-18.9,3.58C25,23.84,19.51,30.98,16.52,40.19c-0.51,1.52-1.09,3.01-1.16,4.64l0,0
		c-0.45,0.52,0.1,1.29-0.63,1.95c-0.83-1.43-0.17-2.81-0.12-4.14l-0.01,0.02C14.91,41.15,15.34,39.66,15.68,38.16z"/>
	<path class="st7" d="M31.15,78.69c0.43-1.89,1.5-1.28,2.69-0.78c4.05,1.7,8.3,2.8,12.65,3.16c4.25,0.36,8.45-0.47,12.52-1.78
		c6.71-2.17,12.04-6.27,16.26-11.87c0.39-0.51,0.85-1.02,0.92-1.72c0.48-0.36,0.95-0.72,1.43-1.07c0.46,0.36,0.51,0.85,0.47,1.38
		c-1.08,2.89-3.21,5.06-5.37,7.07c-6.21,5.79-13.68,8.72-22.12,9.65c-3.06,0.34-6.01,0.48-9.01-0.07
		C37.87,82,34.36,80.73,31.15,78.69z"/>
	<path class="st8" d="M41.6,82.65c1.08-0.07,2.13-0.04,3.2,0.21c1.06,0.24,2.1,0.15,3.15-0.31c2.34-1.02,4.92-0.77,7.36-1.31
		c5.71-1.25,10.82-3.62,15.37-7.31c2.77-2.25,4.86-5.04,6.95-7.87c0.3-0.95,0.8-1.81,1.38-2.59c0.42-0.56,0.97-1.36,1.75-0.31
		C75.48,74.23,66.7,80.72,54.73,82.99C50.34,83.83,45.95,83.97,41.6,82.65z"/>
	<path class="st9" d="M51.34,16.74c0.13-0.24,0.25-0.47,0.38-0.71c0.11-0.15,0.25-0.25,0.43-0.31c4.64,0.13,8.75,2.06,12.89,3.85
		c3.34,1.44,6.46,3.28,9.1,5.85c0.52,0.5,0.99,1.01,1.37,1.62c0.41,0.66,0.86,1.31,1.76,1.34c2.01,2.32,3.3,5.03,4.3,7.91
		c-0.18,0.48-0.44,0.6-0.66,0.06c-1.54-3.67-4.91-5.56-7.74-7.97c-0.63-0.53-1.67,0.18-2.07-0.8c-0.82,0.05-1.1-0.62-1.44-1.14
		c-0.76-1.17-1.72-2.11-2.93-2.8c-3.47-3.59-8.05-4.61-12.68-5.53c-0.92-0.18-1.92-0.15-2.68-0.85
		C51.22,17.08,51.22,16.91,51.34,16.74z"/>
	<path class="st10" d="M80.77,63.16c-1.12-0.31-1.31,0.7-1.8,1.27c-0.45,0.53-0.89,1.08-1.33,1.63c0-0.48-0.01-0.96-0.01-1.43
		c2.53-3.66,3.61-7.87,4.67-12.1c0.56-2.22,1.9-4.26,1.49-6.69c0.73,3.59,0.04,7.11-0.65,10.61C82.67,58.78,81.9,61.04,80.77,63.16z
		"/>
	<path class="st11" d="M77.26,28.38c-0.75,0.77-1.19-0.03-1.52-0.42c-3.87-4.56-8.95-7.25-14.4-9.37c-3.01-1.17-6.08-2.12-9.29-2.58
		c-0.11-0.18-0.09-0.34,0.08-0.47c0.18-0.04,0.36-0.06,0.55-0.05c6.3,0.09,11.98,2.02,17.02,5.79c0.32,0.24,0.56,0.65,1.07,0.5
		c1.93,0.99,3.28,2.62,4.64,4.23C76.05,26.78,76.64,27.59,77.26,28.38z"/>
	<path class="st12" d="M70.77,21.78c-1.05,0.47-1.66-0.47-2.31-0.88c-4.9-3.14-10.33-4.57-16.03-5.24c-0.23-0.11-0.23-0.22,0-0.33
		c1.3-0.14,2.58,0.07,3.98,0.33c-0.47-0.89-1.44-0.5-1.89-1.09C60.67,15.31,66.09,17.72,70.77,21.78z"/>
	<path class="st13" d="M14.6,42.64c0,1.13,0,2.27,0,3.63c0.57-0.48,0.25-1.19,0.76-1.44c0.13,4.7-0.6,9.44,0.9,14.08
		c-1.08-1.2-0.88-2.83-1.73-4.05C13.64,50.78,13.49,46.71,14.6,42.64z"/>
	<path class="st13" d="M15.68,38.16c-0.03,1.58-0.37,3.09-1.09,4.51C14.53,41.06,15.02,39.59,15.68,38.16z"/>
	<path class="st14" d="M23.37,41.25c0.11-0.11,0.21-0.23,0.32-0.34c0.17-0.84,0.8-1.38,1.32-1.99c0.95-0.72,2.03-0.94,3.2-0.94
		c2.21,0.01,4.42,0.01,6.63,0c0.78,0,1.52-0.05,2.18-0.6c2.61-2.17,5.33-4.22,7.76-6.61c0.97-0.96,1.98-1.92,3.35-2.33
		c4.01-1.39,7.29,0.11,8.58,4.02c0.37,1.13,0.78,1.16,1.59,0.5c0.51-0.41,1.08-0.72,1.44-1.32c1.29-2.11,3.07-3.49,5.66-3.55
		c1.8,0.3,3.3,1.14,4.55,2.46c0.32,0.93,1.12,0.87,1.87,0.9c0.98,0.7,0.83,1.62,0.52,2.58c1.61,2.98,2.85,6.1,3.6,9.4
		c0.88,3.89,0.91,7.8,0.35,11.76c-0.42,2.98-1.32,5.79-2.33,8.6c-1.08,1.82-2.03,3.74-3.28,5.43c-1.33,1.81-3.08,3.3-5.54,3.03
		c-2.31-0.26-3.99-1.55-4.85-3.8c-0.12-0.31-0.41-0.79-0.63-0.8c-1.36-0.07-1.94-1.28-2.99-2.05c-0.52,1.63-0.55,3.26-1.55,4.63
		c-1.23,1.69-3.87,2.68-5.97,1.96c-2.61-1.27-4.54-3.43-6.81-5.15c-1.7-1.29-3.22-2.82-4.76-4.31c-0.54-0.53-1.12-0.59-1.79-0.58
		c-2.27,0.01-4.55,0.06-6.82-0.01c-3.96-0.13-5.19-1.55-5.73-5.61c-0.44-3.28-0.23-6.52-0.33-9.78
		C22.85,44.88,23.2,43.08,23.37,41.25z"/>
	<path class="st15" d="M26.53,70.74c1,0.05,1.75,0.54,1.78,1.59c0.02,0.85-0.66,1.23-1.47,1.21c-0.97-0.03-1.86-0.38-1.93-1.45
		C24.85,71.13,25.68,70.87,26.53,70.74z"/>
	<path class="st16" d="M30.81,75.72c-1.18-0.07-1.22-0.83-1.03-1.72c0.52-0.44,1.05-1.14,1.73-0.29
		C32.29,74.68,31.26,75.12,30.81,75.72z"/>
	<path class="st17" d="M69.96,30.56c-1.21-0.11-2.28-0.51-3.08-1.48c-0.42-0.51-0.97-0.63-1.59-0.55c-1.68-0.87-2.12-1.87-1.79-4.1
		c1.11-1.77,1.23-1.8,3.69-1.21c2.03,0.79,2.83,2.69,3.89,4.35C71.18,28.75,71.07,29.84,69.96,30.56z"/>
	<path class="st18" d="M72.35,34.04c-0.87-0.72-0.29-1.73-0.52-2.58c0.9-0.55,1.42,0.06,1.69,0.72
		C73.91,33.19,73.2,33.71,72.35,34.04z"/>
	<path class="st11" d="M51.34,16.74c0,0.12,0.01,0.24,0.01,0.37c-0.03,0.29-0.18,0.51-0.42,0.67c-2.18,0.22-4.37,0.35-6.54,0.69
		c-2.33,0.36-4.5,1.15-6.66,2.02c-0.85,0.35-1.48,1-2.04,1.7c-0.62,0.78-0.67,1.35,0.35,1.99c1.68,1.06,1.66,1.78,0.23,3.19
		c-0.47,0.46-0.93,0.93-1.25,1.51c-1.89,2-4.14,3.58-6.06,5.56c-1.46,1.5-2.37,3.45-4.04,4.76c-0.27,0.24-0.54,0.45-0.92,0.22
		c-0.03-0.62,0.23-1.16,0.48-1.71c0.32-0.73,0.25-1.27-0.46-1.86c-2.33-1.9-2.46-2.86-0.91-5.37c4.44-7.16,10.87-11.36,19.07-13.12
		C45.23,16.72,48.24,16.38,51.34,16.74z"/>
	<path class="st19" d="M52.43,15.33c0,0.11,0,0.22,0,0.33c-0.11,0.01-0.23,0.02-0.34,0.02c-1.66,0.47-3.4-0.15-5.06,0.34
		c-7.97,0.62-14.93,3.57-20.77,9.07c-4.12,3.89-7.14,8.48-8.93,13.88c-0.18,0.55-0.59,1.03-0.89,1.54
		c-0.12-0.08-0.16-0.16-0.13-0.25c0.03-0.09,0.06-0.14,0.1-0.14c0.89-4.37,3.05-8.14,5.74-11.59C29.84,18.7,40.29,15.03,52.43,15.33
		z"/>
	<path class="st13" d="M16.41,40.13c0.01,0.13,0.02,0.26,0.04,0.39c-0.1,1.5-0.74,2.87-1.08,4.31
		C15.14,43.14,15.74,41.63,16.41,40.13z"/>
	<path class="st12" d="M47.03,16.02c1.64-0.73,3.37-0.19,5.06-0.34c-0.01,0.11-0.03,0.22-0.04,0.33c-0.11,0.01-0.22,0.01-0.34,0.02
		C50.15,16.03,48.59,16.02,47.03,16.02z"/>
	<path class="st2" d="M23.99,39.43c0.24-0.12,0.48-0.24,0.71-0.37c0.23,0.02,0.37,0.15,0.42,0.38c-0.34,0.62-0.84,1.09-1.43,1.46
		C22.6,40.18,24.04,39.95,23.99,39.43z"/>
	<path class="st20" d="M50.99,17.46c0.12-0.12,0.24-0.24,0.36-0.36c4.83,0.29,9.35,1.64,13.61,3.92c0.99,0.53,1.15,1.82,2.23,2.2
		c-1.3-0.02-2.56,0.05-3.23,1.44c-0.46,0.26-0.92,0.16-1.39,0.04c-4.04-1-8.12-1.43-12.28-0.87c-0.3,0.04-0.6-0.01-0.89-0.09
		c-0.2-0.06-0.37-0.16-0.53-0.3C48.42,21.05,49.22,19.08,50.99,17.46z"/>
	<path class="st21" d="M48.83,23.22c0.12,0.01,0.24,0.01,0.36,0.02c-0.24,1.9-0.15,3.84-0.72,5.7c-2.61,1.26-4.25,3.71-6.6,5.33
		c-1.6,1.1-2.96,2.55-4.37,3.9c-0.5,0.48-1.03,0.5-1.63,0.49c-2.27-0.01-4.54,0.05-6.8-0.01c-1.39-0.04-2.72,0.08-3.94,0.8
		c-0.14-0.13-0.28-0.25-0.42-0.38c2.34-4.32,6.09-7.32,9.73-10.43c3.42-2.99,7.49-4.58,11.84-5.58
		C47.12,22.86,48.02,22.51,48.83,23.22z"/>
	<path class="st22" d="M52.06,40.5c0.01,8.52,0.02,17.04,0.03,25.56c0,0.66,0.07,1.38-0.69,1.71c-0.75,0.32-1.36,0.03-1.96-0.48
		c-3.41-2.9-6.86-5.77-10.27-8.67c-0.59-0.5-1.16-0.63-1.95-0.59c-2.2,0.09-4.41,0-6.62-0.02c-0.25-0.59-0.03-1.24-0.41-1.86
		c-1.25-2.04-1.2-2.06,1.15-2.82c0.45-0.05,0.89-0.04,1.34-0.06c2.82-0.44,4.94,0.72,6.62,2.89c2.67,2.24,5.16,4.71,8.03,6.7
		c1.02,0.47,1.23-0.2,1.36-0.98c0.13-0.65,0.33-1.28,0.33-1.94c-0.04-8.29,0.09-16.59-0.07-24.88c0.61-1.42,1.68-1.79,3.1-1.37
		c0.01,0.59,0.01,1.18,0.02,1.77C50.27,37.15,51.59,38.82,52.06,40.5z"/>
	<path class="st23" d="M48.47,28.93c-0.43-1.98-0.89-3.97,0.72-5.7c4.02-0.7,8.01-0.39,11.99,0.33c1.02,0.18,1.94,0.5,2.77,1.11
		c-0.1,1.48,0.37,2.76,1.34,3.86c-1.57,0.54-3.5,0.73-4.19,2.45c-0.85,2.1-3.06,2.53-4.39,4.36c-0.53-2.16-0.6-4.42-2.31-5.63
		C52.69,28.49,50.57,28.25,48.47,28.93z"/>
	<path class="st24" d="M66.12,33.28c1.93,1.38,2.94,3.53,3.83,5.53c1.26,2.85,2.24,5.83,2.39,9.09c0.17,3.54,0.11,7.01-0.87,10.41
		c-0.93,3.23-2.49,6.18-4.53,8.86c-0.65,0.85-1.44,1-2.33,0.36c0.14-1.17,0.78-2.09,1.44-3.01c3.3-4.57,4.17-9.83,4.37-15.28
		c0.01-0.24,0.1,0.02-0.01-0.17c-0.13-0.22-0.22,0.12-0.36,0.12c-1.21-1.74-0.54-3.84-1.11-5.7c0.04-1.3,0.29-2.63-0.43-3.84
		c-0.52-1.57-1.42-2.94-2.2-4.38C66.19,34.61,65.46,34.01,66.12,33.28z"/>
	<path class="st25" d="M49.2,34.73c0.17,0.43,0.46,0.77,0.46,1.31c-0.06,8.3-0.08,16.6-0.12,24.9c0,0.64,0.15,1.33-0.35,1.88
		c-0.57-0.37-0.73-0.94-0.73-1.56c-0.01-5.75-0.2-11.5,0.1-17.25c-0.15-2.22-0.04-4.45-0.12-6.7c-0.93,0.1-1.25,0.85-1.85,1.2
		c-1.68,1.51-3.47,2.89-5.11,4.43c-1.09,1.03-2.36,1.51-3.87,1.54c-1.96,0.04-3.91-0.13-5.86-0.08c-0.91,0.06-1.85-0.35-2.73,0.17
		c-0.12,0.11-0.23,0.23-0.33,0.36c-0.38,0.56-0.35,1.6-1.49,1.29c-0.14-3.58,0.12-3.87,3.61-3.87c1.62,0,3.26-0.19,4.85,0.04
		c2.84,0.4,4.72-1.07,6.65-2.78c2.15-1.89,4.13-3.98,6.53-5.59C49.39,34.06,49.43,34.33,49.2,34.73z"/>
	<path class="st26" d="M63.58,47.39c-0.38-1.2-0.76-2.39-1.14-3.59c0.92-1.6-0.2-2.85-0.74-4.19c-0.3-0.75-0.99-1.42-0.28-2.29
		c2.62,2.37,3.88,5.49,4.64,8.82c0.35,1.55,0.69,3.16,0.42,4.79c-0.46,1.11-0.57,2.29-0.78,3.46c-0.14,0.8-0.25,1.74-1.46,1.62
		c-0.54-0.56-0.34-1.2-0.24-1.86c0.3-1.97,0.07-3.95,0.12-5.92C64.13,47.84,63.97,47.53,63.58,47.39z"/>
	<path class="st27" d="M70.05,49.18c0.12-0.74-0.2-1.53,0.29-2.25c2.09,4.4-0.85,14.92-5.73,20.59c-0.7-1.09-0.03-1.96,0.54-2.76
		c2.5-3.53,4.1-7.35,4.28-11.75C69.48,51.74,70.26,50.53,70.05,49.18z"/>
	<path class="st28" d="M56.05,42.02c2.16-0.37,2.23,1.66,2.68,2.73c1.2,2.86,1.58,5.93,0.94,9.05c-0.05-0.03-0.11-0.06-0.15-0.1
		c-0.04-0.04-0.07-0.09-0.1-0.13c-0.46,0.36-0.39,0.95-0.63,1.39c-0.3,0.58-0.54,1.42-1.53,0.92c-0.38-0.57-0.19-1.12,0.01-1.71
		c0.69-1.98,0.31-4.03,0.31-6.06c0-0.3-0.26-0.53-0.52-0.7c-0.58-0.34-0.68-0.89-0.69-1.49c0.28-0.82,0.3-1.6-0.15-2.38
		C55.96,43.08,55.77,42.57,56.05,42.02z"/>
	<path class="st29" d="M63.58,47.39c0.09-0.28,0.15-0.64,0.52-0.6c0.69,0.08,0.56,0.67,0.55,1.1c-0.04,2.7,0.25,5.42-0.34,8.1
		c0.82,1.18-0.34,1.97-0.58,2.94c-0.7,1.55-1.95,2.84-2.26,4.58c-1.71,0.08-1.74-0.97-1.27-2.1c0.45-1.08,1.15-2.06,1.72-3.09
		C63.8,54.88,63.74,51.14,63.58,47.39z"/>
	<path class="st30" d="M69.01,39.42c0.88,1.37,0.99,2.73-0.06,4.07c-1.28-2.75-2.41-5.57-4.31-7.99c-0.53-0.67-0.58-1.48-0.08-2.17
		c0.41-0.56,1.02-0.55,1.56-0.05c0.24,0.61,0.47,1.22,0.71,1.84C66.97,36.84,67.82,38.22,69.01,39.42z"/>
	<path class="st31" d="M57.07,47.42c1.29-0.2,1.05,0.8,1.11,1.48c0.21,2.4-0.12,4.75-0.71,7.07c0.19,1.04-0.46,1.88-0.68,2.82
		c-1.35,0.09-2.18-0.72-1.47-1.8C57.3,54,57.14,50.73,57.07,47.42z"/>
	<path class="st32" d="M61.41,37.32c0.65,1.39,1.36,2.76,1.91,4.19c0.36,0.93,0.78,2.07-0.89,2.29c-0.77-1.4-1.36-2.89-2.31-4.21
		C59.37,38.54,59.99,37.59,61.41,37.32z"/>
	<path class="st33" d="M31.19,53.88c-0.49,0.17-0.97,0.35-1.37,0.49c-0.25,1.35,3.25,1.78,0.77,3.63c-0.76,0-1.53,0.01-2.3,0.01
		c-0.51-1.29,0.03-2.65-0.25-3.97c0.06-0.19,0.16-0.34,0.31-0.47c0.41-0.29,0.87-0.39,1.36-0.37c0.45,0.11,0.96,0.06,1.34,0.42
		C31.1,53.72,31.14,53.8,31.19,53.88z"/>
	<path class="st34" d="M63.18,58.85c0.38-0.95,0.76-1.91,1.14-2.86c0.85-0.85,0.96-1.97,1.23-3.06c0.18-0.7,0.08-1.59,0.92-2.01
		c-0.14,3.01-0.51,5.96-2.16,8.59C63.95,59.26,63.4,59.33,63.18,58.85z"/>
	<path class="st35" d="M27.21,46.23c0.9-0.28,0.51-1.31,1.06-1.8c0.21,0.13,0.42,0.3,0.43,0.54c0.19,2.96,0.36,5.92-0.4,8.83
		l0.02,0.18c-0.4,0.21-0.75,0.14-1.06-0.19C27.25,51.27,27.23,48.75,27.21,46.23z"/>
	<path class="st36" d="M56.78,58.79c-0.63-1.15-0.13-2.02,0.68-2.82c0.99-0.84,1.17-2.18,2.07-3.26c0.06,0.44,0.1,0.77,0.14,1.09
		C58.89,55.57,58.86,57.77,56.78,58.79z"/>
	<path class="st37" d="M63.18,58.85c0.7-0.33,1.16-0.25,1.13,0.67c-1.23,1.12-1.12,3.2-2.83,3.99c-0.52-0.73-0.43-1.41,0.07-2.13
		C62.13,60.57,62.64,59.7,63.18,58.85z"/>
	<path class="st25" d="M52.06,40.5c-1.36-0.8-1.48-2.26-1.7-3.55c-0.18-1.09,0.62-1.57,1.7-1.48C52.06,37.15,52.06,38.82,52.06,40.5
		z"/>
	<path class="st38" d="M56.05,42.02c0.27,0.44,0.52,0.9,0.82,1.33c0.75,1.05,0.71,1.92-0.5,2.58c-0.33-0.62-0.62-1.26-1-1.85
		C54.72,43.08,55,42.44,56.05,42.02z"/>
	<path class="st39" d="M27.27,53.79c0.35,0.06,0.71,0.13,1.06,0.19c0.68,1.35,0.21,2.7-0.04,4.04C27,56.84,27.77,55.16,27.27,53.79z
		"/>
	<path class="st40" d="M49.2,34.73c-0.11-0.23-0.23-0.46-0.34-0.7c0.93-1.28,1.96-1.71,3.17-0.34
		C51.09,34.04,50.15,34.38,49.2,34.73z"/>
	<path class="st41" d="M48.83,23.22c-5.16,0.84-9.83,2.99-14.39,5.42c0.56-0.62,1.05-1.32,1.69-1.83c1.22-0.95,0.79-1.57-0.32-2.07
		c-2.02-0.92-2.06-1.24-0.73-3.06c1.39-1.91,3.53-2.43,5.55-3.03c3.36-0.99,6.79-1.74,10.35-1.18
		C50.27,19.38,49.55,21.3,48.83,23.22z"/>
	<path class="st42" d="M49.17,43.38c0.01,6.48,0.01,12.97,0.02,19.45c-0.54,0.79-1.12,1.48-2.19,0.75c0.17-0.48,0.12-0.91-0.25-1.31
		c-2.2-2.34-4.52-4.51-7.65-5.56c-0.32-0.26-0.68-0.49-0.96-0.78c-1.5-1.59-3.28-2.46-5.52-2.12c0.32-0.91,0.26-1.72-0.15-2.66
		c-1.02-2.34-0.92-4.88-0.93-7.38c2.03,0,4.05-0.06,6.08,0c1.34,0.04,2.37-0.4,3.36-1.32c1.7-1.56,3.54-2.99,5.32-4.47
		c1.03,0.62,1.08,1.79,1.55,2.73C48.3,41.6,48.23,42.74,49.17,43.38z"/>
	<path class="st43" d="M31.55,43.76c0.64,0.48,0.92,0.96,0.83,1.91c-0.23,2.37-0.01,4.73,1.62,6.72c0.56,0.68,0.51,0.73-1.36,1.42
		c-0.48,0.02-0.96,0.05-1.44,0.08c0,0,0.01-0.11,0.01-0.11c-1.15-2.6-1.68-5.31-1.46-8.16c0.04-0.56-0.2-0.91-0.77-1.02
		c-0.24-0.1-0.43-0.26-0.62-0.44C29.34,43.36,30.49,43.9,31.55,43.76z"/>
	<path class="st44" d="M39.11,56.71c0.6-0.59,1.21-0.3,1.8,0c2.75,1.38,4.93,3.48,6.95,5.73c1.02,1.14-0.25,0.98-0.85,1.13
		C44.26,61.42,41.63,59.13,39.11,56.71z"/>
	<path class="st45" d="M69.01,39.42c-0.05,0.23-0.02,0.56-0.16,0.66c-0.39,0.29-0.49-0.14-0.61-0.37c-0.9-1.66-1.79-3.33-2.68-5.01
		c0.63-0.38,0.85,0.3,1.27,0.41C67.62,36.51,68.5,37.87,69.01,39.42z"/>
	<path class="st46" d="M49.17,43.38c-0.57,0.34-1.02,0.25-1.24-0.41c-0.55-1.66-1.08-3.33-1.62-4.99c0.79-0.83,1.71-2.37,2.55-2.05
		c0.89,0.33,0.27,2.04,0.32,3.15C49.25,40.5,49.18,41.94,49.17,43.38z"/>
	<path class="st47" d="M28.36,44.15c0.22-0.01,0.44-0.03,0.66-0.04c0.73,0.62,0.74,1.46,0.73,2.31c-0.04,1.98,0.01,3.95,0.85,5.81
		c0.4,0.89-0.02,1.34-0.85,1.58c-0.48,0-0.96,0-1.44-0.01c-0.46-0.76-0.47-1.63-0.31-2.43c0.47-2.31,0.26-4.62,0.27-6.94
		C28.3,44.34,28.33,44.24,28.36,44.15z"/>
	<path class="st48" d="M29.75,53.81c0.21-0.32,0.78-0.51,0.48-1.02c-1.6-2.73-1.07-5.75-1.2-8.67c1.1-0.13,1.47,0.39,1.46,1.45
		c-0.03,2.54-0.31,5.14,1.38,7.39c0.41,0.54-0.52,0.47-0.65,0.82C30.72,53.79,30.23,53.8,29.75,53.81z"/>
</g>
</svg>
