<?xml version="1.0" encoding="utf-8"?>
<!-- Generator: Adobe Illustrator 23.0.2, SVG Export Plug-In . SVG Version: 6.00 Build 0)  -->
<svg version="1.1" id="Camada_1" xmlns="http://www.w3.org/2000/svg" xmlns:xlink="http://www.w3.org/1999/xlink" x="0px" y="0px"
	 viewBox="0 0 401.1 91.87" style="enable-background:new 0 0 401.1 91.87;" xml:space="preserve">
<style type="text/css">
	.st0{fill:#FEFEFE;}
	.st1{fill:#FAFAFA;}
	.st2{fill:#F9F9F9;}
	.st3{fill:#F8F8F8;}
	.st4{fill:#FDFDFD;}
	.st5{fill:#FCFCFC;}
	.st6{fill:#FBFBFB;}
	.st7{fill:#ACACAC;}
</style>
<g>
	<path class="st0" d="M266.63,187.39c3.94,0.84,7.29,2.57,9.38,6.22c0.47,0.83,1.02,0.21,1.53,0.03c3.87-1.33,7.64-1.15,11.21,0.92
		c3.75,2.17,5.94,5.34,5.71,9.8c-0.07,1.3,0.4,1.72,1.49,2.08c3.86,1.27,6.22,3.88,7.93,7.64c1.61,3.55,0.1,6.23-1.57,8.7
		c-1.25,1.84-1.27,2.77-0.12,4.63c3.62,5.84,0.47,13.48-6.41,15.61c-1.95,0.6-2.64,1.35-2.77,3.38c-0.33,5.18-4.97,8.8-9.65,9.62
		c-2.42,0.42-4.91,0.38-7.23-0.65c-0.75-0.33-1.04-0.13-1.44,0.45c-2.26,3.28-5.98,4.18-9.36,5.58c-1.84,0.76-3.34-0.89-5.03-1.32
		c-2.65-0.67-4.69-2.37-6.3-4.51c-0.59-0.8-1.01-0.77-1.86-0.53c-3.58,1.02-7.09,0.81-10.39-1.04c-0.68-0.38-1.36-0.4-2.07-0.4
		c-3.36,0-6.72-0.08-10.07,0.04c-1.6,0.06-1.56-0.78-1.51-1.89c0.04-1.02-0.22-2.03,1.46-1.93c2.5,0.14,5.01,0.04,7.72,0.04
		c-1.06-2.05-1.63-4.07-1.39-6.23c0.09-0.82-0.4-0.9-1.04-1.11c-4.43-1.41-7.61-4.06-8.74-8.8c-0.81-3.38,0.26-6.25,2.33-8.8
		c0.65-0.79,0.82-1.22,0.14-2.07c-5.41-6.72-1.64-15.38,6.49-17.62c1.09-0.3,1.35-0.67,1.28-1.65c-0.12-1.57,0.12-3.09,0.91-4.49
		c0.44-0.78,0.29-1.18-0.72-1.15c-1.56,0.05-3.13-0.09-4.68,0.04c-1.5,0.13-1.61-0.6-1.6-1.81c0.01-1.15,0.14-1.7,1.52-1.68
		c4.67,0.08,9.36,0.43,13.8-1.79c2.36-1.18,4.92-0.56,7.34,0.25c0.65,0.22,1.13,0.29,1.57-0.31c2.21-3,5.29-4.55,8.86-5.27
		C264.45,186.9,265.54,186.89,266.63,187.39z"/>
	<path class="st1" d="M-81.81,211.56c0-1.92,0.06-3.84-0.02-5.76c-0.05-1.09,0.3-1.57,1.41-1.49c0.6,0.04,1.2,0.03,1.8,0
		c0.77-0.03,1.07,0.34,1.07,1.09c-0.01,4.2-0.01,8.4,0.01,12.59c0,0.74-0.23,1.14-1.03,1.09c-0.48-0.03-0.96-0.05-1.44,0.01
		c-1.37,0.17-1.94-0.27-1.83-1.78C-81.69,215.41-81.81,213.48-81.81,211.56z"/>
	<path class="st0" d="M-81.8,234.02c0-1.97,0.05-3.95-0.02-5.92c-0.04-1.01,0.24-1.46,1.29-1.36c0.53,0.05,1.08,0.06,1.61,0
		c1.15-0.14,1.4,0.39,1.38,1.45c-0.05,3.89-0.07,7.78,0.01,11.67c0.02,1.25-0.45,1.49-1.57,1.48c-2.69-0.03-2.69,0.02-2.69-2.64
		C-81.8,237.13-81.8,235.58-81.8,234.02z"/>
	<path class="st1" d="M168.29,253.62c-2.03,0-4.06-0.05-6.09,0.02c-1.18,0.04-1.29-0.65-1.16-1.49c0.13-0.86-0.63-2.27,1.11-2.29
		c4.18-0.04,8.36,0,12.54-0.02c1.65-0.01,1.11,1.2,1.18,2.04c0.08,0.95,0.08,1.8-1.31,1.75
		C172.47,253.57,170.38,253.62,168.29,253.62z"/>
	<path class="st2" d="M-54.88,253.62c-2.04,0-4.07-0.05-6.11,0.02c-1.72,0.06-1.13-1.18-1.16-2c-0.03-0.8-0.41-1.85,1.16-1.82
		c4.07,0.07,8.15,0.06,12.22,0.01c1.51-0.02,1.38,0.92,1.38,1.92c0,1,0.15,1.95-1.38,1.89C-50.81,253.56-52.85,253.62-54.88,253.62z
		"/>
	<path class="st1" d="M-10.07,249.85c1.98,0,3.96,0.05,5.93-0.02c1.32-0.05,1.5,0.64,1.39,1.69c-0.09,0.92,0.45,2.14-1.31,2.12
		c-4.08-0.05-8.15-0.07-12.23,0.01c-1.68,0.03-1.21-1.07-1.25-1.94c-0.05-0.96-0.21-1.96,1.35-1.89
		C-14.15,249.92-12.11,249.85-10.07,249.85z"/>
	<path class="st1" d="M79.19,249.85c1.85,0,3.71,0.06,5.56-0.02c1.26-0.05,1.89,0.21,1.77,1.67c-0.09,1.18,0.15,2.21-1.67,2.16
		c-3.88-0.12-7.78-0.11-11.66,0c-1.67,0.04-1.42-0.94-1.46-1.96c-0.04-1.11-0.04-1.98,1.54-1.88
		C75.24,249.95,77.22,249.85,79.19,249.85z"/>
	<path class="st1" d="M123.69,249.85c2.04,0,4.08,0.05,6.12-0.02c1.46-0.05,1.46,0.85,1.43,1.89c-0.03,0.96,0.2,1.94-1.36,1.92
		c-4.08-0.06-8.16-0.07-12.23,0c-1.65,0.03-1.22-1.07-1.27-1.96c-0.05-0.97-0.19-1.94,1.37-1.86
		C119.73,249.93,121.72,249.85,123.69,249.85z"/>
	<path class="st1" d="M212.83,253.62c-1.91,0-3.83-0.07-5.74,0.02c-1.7,0.09-1.36-1.04-1.41-2.03c-0.06-1.07,0.01-1.82,1.46-1.79
		c3.95,0.08,7.9,0.09,11.85,0c1.57-0.03,1.52,0.83,1.54,1.94c0.02,1.16-0.06,1.97-1.59,1.89
		C216.9,253.54,214.86,253.62,212.83,253.62z"/>
	<path class="st1" d="M34.38,253.62c-1.98,0-3.96-0.07-5.94,0.02c-1.6,0.08-1.34-0.97-1.33-1.9c0.01-0.91-0.31-1.95,1.31-1.92
		c4.02,0.08,8.04,0.07,12.06,0c1.56-0.03,1.36,0.92,1.36,1.9c0,0.97,0.22,1.97-1.34,1.92C38.46,253.56,36.42,253.62,34.38,253.62z"
		/>
	<path class="st2" d="M-32.37,249.85c1.91,0,3.83,0.1,5.73-0.03c1.52-0.11,1.51,0.75,1.41,1.77c-0.09,0.88,0.52,2.11-1.3,2.07
		c-4-0.09-8.01-0.07-12.01-0.01c-1.65,0.03-1.23-1.06-1.25-1.94c-0.03-0.94-0.27-1.96,1.32-1.88
		C-36.44,249.93-34.41,249.85-32.37,249.85z"/>
	<path class="st2" d="M12.09,249.85c2.03,0,4.06,0.07,6.09-0.03c1.33-0.06,1.36,0.72,1.21,1.58c-0.15,0.82,0.75,2.23-1.12,2.22
		c-4.12-0.01-8.24,0-12.36-0.01c-1.7,0-0.96-1.31-1.06-2.11c-0.1-0.82-0.21-1.72,1.15-1.68C8.03,249.89,10.06,249.85,12.09,249.85z"
		/>
	<path class="st3" d="M56.9,249.85c1.92,0,3.84,0.11,5.75-0.03c1.75-0.14,1.38,0.99,1.42,1.96c0.04,1.06,0.15,1.94-1.49,1.89
		c-3.89-0.13-7.79-0.11-11.68-0.01c-1.66,0.04-1.44-0.9-1.47-1.95c-0.03-1.14-0.03-1.99,1.54-1.89
		C52.94,249.94,54.93,249.85,56.9,249.85z"/>
	<path class="st2" d="M101.48,253.62c-1.98,0-3.96-0.09-5.92,0.03c-1.44,0.09-1.43-0.75-1.3-1.68c0.12-0.83-0.68-2.16,1.2-2.14
		c4.01,0.06,8.02,0.06,12.03,0c1.88-0.03,1.1,1.3,1.2,2.13c0.11,0.89,0.22,1.8-1.28,1.7C105.43,253.52,103.45,253.62,101.48,253.62z
		"/>
	<path class="st2" d="M146.11,249.85c1.98,0,3.96,0.09,5.93-0.03c1.64-0.1,1.34,0.96,1.3,1.87c-0.04,0.84,0.49,1.99-1.21,1.96
		c-4.01-0.08-8.03-0.06-12.04-0.01c-1.85,0.03-1.12-1.28-1.22-2.14c-0.11-0.94-0.13-1.77,1.32-1.68
		C142.15,249.94,144.13,249.85,146.11,249.85z"/>
	<path class="st2" d="M190.66,249.85c2.04,0,4.08,0.07,6.11-0.02c1.56-0.08,1.25,0.97,1.18,1.79c-0.07,0.79,0.64,2.05-1.12,2.03
		c-4.07-0.05-8.15-0.02-12.22-0.01c-1.87,0.01-0.96-1.4-1.11-2.22c-0.16-0.89-0.08-1.64,1.23-1.58
		C186.7,249.92,188.68,249.85,190.66,249.85z"/>
	<path class="st4" d="M-30.2,194.53c2.03,0,4.06,0.06,6.09-0.02c1.18-0.04,1.29,0.57,1.12,1.44c-0.15,0.78,0.66,2.04-1.1,2.02
		c-4.18-0.04-8.36-0.05-12.54,0.01c-1.3,0.02-1.12-0.8-1.04-1.53c0.09-0.74-0.6-1.95,1.02-1.93
		C-34.5,194.55-32.35,194.53-30.2,194.53z"/>
	<path class="st4" d="M14.24,197.96c-2.03,0-4.07-0.08-6.09,0.03c-1.56,0.09-1.17-0.94-1.2-1.76c-0.03-0.89-0.22-1.76,1.26-1.73
		c4.12,0.09,8.24,0.08,12.36,0.01c1.51-0.03,1.19,0.92,1.22,1.78c0.03,0.92,0.16,1.78-1.29,1.71
		C18.42,197.88,16.33,197.96,14.24,197.96z"/>
	<path class="st4" d="M59.24,194.53c1.98,0,3.95,0.08,5.92-0.03c1.46-0.08,1.3,0.81,1.28,1.73c-0.02,0.87,0.26,1.79-1.24,1.76
		c-4.13-0.08-8.26-0.07-12.39,0c-1.38,0.02-1.22-0.8-1.16-1.63c0.06-0.78-0.48-1.9,1.12-1.84
		C54.93,194.58,57.08,194.53,59.24,194.53z"/>
	<path class="st4" d="M103.71,197.96c-2.04,0-4.08-0.09-6.11,0.03c-1.36,0.08-1.45-0.6-1.37-1.62c0.07-0.9-0.33-1.92,1.31-1.88
		c4.07,0.1,8.15,0.09,12.22,0.01c1.44-0.03,1.32,0.79,1.29,1.72c-0.03,0.87,0.28,1.84-1.23,1.76
		C107.79,197.89,105.75,197.96,103.71,197.96z"/>
	<path class="st5" d="M125.9,197.96c-1.98,0-3.96-0.07-5.93,0.02c-1.44,0.07-1.32-0.8-1.3-1.73c0.02-0.89-0.24-1.78,1.25-1.75
		c4.02,0.08,8.03,0.09,12.05,0c1.48-0.03,1.3,0.82,1.27,1.72c-0.02,0.86,0.29,1.84-1.23,1.76
		C129.98,197.88,127.93,197.96,125.9,197.96z"/>
	<path class="st4" d="M148.29,197.96c-2.04,0-4.08-0.1-6.11,0.03c-1.48,0.09-1.32-0.78-1.28-1.69c0.04-0.83-0.36-1.82,1.2-1.79
		c4.13,0.08,8.27,0.07,12.41,0c1.54-0.03,1.17,0.95,1.21,1.79c0.04,0.93,0.14,1.77-1.3,1.69
		C152.37,197.88,150.33,197.96,148.29,197.96z"/>
	<path class="st4" d="M193,197.96c-2.09,0-4.19-0.08-6.27,0.03c-1.54,0.08-1.19-0.92-1.21-1.76c-0.02-0.89-0.22-1.76,1.26-1.73
		c4.12,0.09,8.25,0.08,12.37,0.01c1.52-0.03,1.19,0.93,1.22,1.78c0.02,0.9,0.2,1.79-1.28,1.7
		C197.07,197.87,195.03,197.96,193,197.96z"/>
	<path class="st4" d="M81.42,194.53c1.98,0,3.96,0.09,5.93-0.03c1.52-0.09,1.24,0.87,1.25,1.74c0.01,0.9,0.21,1.78-1.27,1.75
		c-4.01-0.08-8.03-0.08-12.04,0c-1.49,0.03-1.24-0.87-1.25-1.75c-0.01-0.9-0.21-1.81,1.27-1.73
		C77.35,194.61,79.39,194.53,81.42,194.53z"/>
	<path class="st4" d="M170.67,194.53c2.03,0,4.07,0.06,6.09-0.02c1.64-0.06,1.02,1.09,1.08,1.84c0.07,0.79,0.3,1.66-1.12,1.63
		c-4.06-0.08-8.13-0.07-12.19-0.01c-1.58,0.02-1.09-1.04-1.14-1.84c-0.05-0.84-0.19-1.69,1.18-1.64
		C166.6,194.59,168.64,194.53,170.67,194.53z"/>
	<path class="st4" d="M215.13,197.96c-1.97,0-3.95-0.07-5.92,0.02c-1.35,0.06-1.27-0.75-1.19-1.61c0.07-0.79-0.45-1.88,1.13-1.86
		c4.07,0.05,8.13,0.07,12.2-0.01c1.4-0.03,1.22,0.81,1.14,1.62c-0.07,0.75,0.55,1.91-1.08,1.85
		C219.32,197.9,217.22,197.96,215.13,197.96z"/>
	<path class="st4" d="M-52.58,197.96c-1.98,0-3.96-0.09-5.93,0.03c-1.6,0.1-1.46-0.82-1.52-1.91c-0.06-1.13,0.17-1.59,1.42-1.57
		c3.95,0.07,7.9,0.1,11.85-0.01c1.58-0.05,1.34,0.84,1.39,1.81c0.06,1.11-0.05,1.79-1.48,1.69
		C-48.74,197.86-50.66,197.96-52.58,197.96z"/>
	<path class="st4" d="M-7.92,197.96c-1.97,0-3.94-0.08-5.91,0.03c-1.31,0.07-1.49-0.55-1.39-1.6c0.08-0.88-0.36-1.92,1.29-1.88
		c4,0.09,8,0.08,12,0c1.56-0.03,1.15,0.98,1.18,1.79c0.03,0.87,0.27,1.8-1.26,1.7C-3.97,197.86-5.95,197.96-7.92,197.96z"/>
	<path class="st4" d="M36.58,194.53c2.03,0,4.07,0.08,6.09-0.03c1.53-0.08,1.23,0.9,1.23,1.76c0,0.85,0.3,1.77-1.23,1.73
		c-4-0.1-8.01-0.09-12.01-0.01c-1.48,0.03-1.25-0.85-1.26-1.74c0-0.9-0.22-1.81,1.26-1.74C32.64,194.6,34.61,194.53,36.58,194.53z"
		/>
	<path class="st6" d="M-74.66,253.62c-1.07,0-2.15-0.01-3.22,0c-1.96,0.01-3.02-1.36-3.82-2.79c-0.45-0.8-0.37-1.96,1.18-1.88
		c1.21,0.06,2.29,0.26,3.48,0.74c1.44,0.58,3.29,0.17,4.95,0.17c2.03,0,2.92,1.35,2.18,3.26c-0.21,0.53-0.59,0.5-1,0.51
		C-72.15,253.62-73.41,253.62-74.66,253.62z"/>
	<path class="st4" d="M-73.51,194.53c1.62,0,3.23,0.05,4.85-0.02c1.28-0.05,1.14,0.77,1.05,1.54c-0.09,0.76,0.56,1.93-1.05,1.91
		c-2.81-0.03-5.63,0.12-8.43-0.06c-1.21-0.08-2.3-1-3.6-1.17c-0.63-0.08-0.37-0.64-0.11-0.97c0.62-0.79,1.4-1.26,2.46-1.23
		C-76.74,194.57-75.12,194.54-73.51,194.53C-73.51,194.53-73.51,194.53-73.51,194.53z"/>
	<path class="st7" d="M266.63,187.39c-1.09,0-2.19,0-3.28-0.01C264.45,186.28,265.54,186.27,266.63,187.39z"/>
</g>
</svg>
