<?xml version="1.0" encoding="utf-8"?>
<!-- Generator: Adobe Illustrator 23.0.2, SVG Export Plug-In . SVG Version: 6.00 Build 0)  -->
<svg version="1.1" id="Camada_1" xmlns="http://www.w3.org/2000/svg" xmlns:xlink="http://www.w3.org/1999/xlink" x="0px" y="0px"
	 viewBox="0 0 158.09 126.2" style="enable-background:new 0 0 158.09 126.2;" xml:space="preserve">
<style type="text/css">
	.st0{fill:#FEFEFE;}
	.st1{fill:#6BFDFE;}
	.st2{fill:#168A77;}
	.st3{fill:#0FC6C8;}
	.st4{fill:#10B3B0;}
	.st5{fill:#187E65;}
	.st6{fill:#187D64;}
</style>
<g>
	<path class="st0" d="M21.08,0c2.11,0.03,4.21,0.09,6.32,0.18c5.06,0.22,10.14,0.25,15.2,0.39c5.34,0.14,10.69,0.32,16.03,0.47
		c5.25,0.15,10.5,0.29,15.76,0.44c3.86,0.11,7.72,0.13,11.58,0.27c5,0.18,10.01,0.28,15.01,0.46c5.32,0.19,10.65,0.3,15.97,0.51
		c3.48,0.14,6.96,0.08,10.44,0.21c4.91,0.19,9.84,0.13,14.72,0.5c4.1,0.31,8.22,1.34,11.25,4.53c2.07,2.17,3.31,4.77,4.19,7.74
		c1.2,4.02,0.18,7.65-1.01,11.25c-0.62,1.9-2.14,3.52-3.35,5.2c-3.49,4.9-7.1,9.73-10.54,14.66c-4.49,6.45-9.13,12.78-13.76,19.13
		c-3.15,4.31-6.05,8.81-9.25,13.08c-4.14,5.52-8.06,11.2-12.1,16.79c-5.74,7.95-11.42,15.94-17.11,23.92
		c-2.44,3.42-5.83,5.08-9.86,6.12c-3.11,0.8-5.87,0.04-8.72-0.65c-3.05-0.73-5.5-2.54-7.29-5.04c-7.5-10.51-14.23-21.53-21.31-32.32
		C32.92,72.1,22.68,56.3,12.39,40.53C8.8,35.02,5.12,29.57,1.65,23.99c-1.08-1.73-1.26-3.91-1.54-5.95
		c-0.4-2.94,0.28-5.83,1.25-8.55c0.64-1.8,1.92-3.45,3.38-4.73c2.24-1.97,4.73-3.48,7.8-4.13C15.4,0.04,18.22,0.04,21.08,0z"/>
	<path d="M17.31,11.54c3.41,0.39,6.85,0.19,10.27,0.36c5.09,0.25,10.18,0.23,15.28,0.37c10.71,0.3,21.41,0.63,32.12,0.96
		c3.62,0.11,7.24,0.14,10.85,0.28c7.85,0.3,15.7,0.47,23.54,0.7c6.01,0.18,12.02,0.36,18.03,0.49c4.89,0.11,9.77,0.42,14.67,0.38
		c1.72-0.02,3.23,0.77,3.98,2.42c0.71,1.59,0.76,3.24-0.22,4.79c-2.5,3.94-5.25,7.71-8.02,11.46c-2.82,3.81-5.48,7.74-8.26,11.58
		c-3.31,4.58-6.62,9.17-10.01,13.7c-2.89,3.86-5.51,7.92-8.31,11.86c-2.1,2.95-4.28,5.85-6.43,8.77c-0.61,0.84-1.23,1.67-1.83,2.51
		c-3.41,4.81-6.69,9.72-10.26,14.42c-3.4,4.48-6.37,9.25-9.83,13.68c-0.56,0.72-1.01,1.53-1.55,2.27c-2.17,2.94-5.94,2.96-8.05-0.05
		c-2.07-2.94-4.01-5.96-5.98-8.97c-4.14-6.35-8.26-12.72-12.4-19.07C44.17,67.96,33.43,51.48,22.69,35
		c-3.51-5.38-7.02-10.76-10.54-16.13c-1.58-2.41-0.39-5.8,2.48-6.86C15.47,11.69,16.37,11.4,17.31,11.54z"/>
	<path class="st1" d="M140.52,19.71c0.44,0,0.87,0,1.62,0C121.18,49,100.33,78.13,79.48,107.25c-0.67,0.04-0.73-0.54-0.91-0.94
		c-1.02-2.26-1.91-4.57-2.84-6.87C71.71,89.64,67.74,79.83,63.8,70c-3.81-9.49-7.39-19.08-11.45-28.47
		c-1.66-3.85-3.33-7.7-5.55-11.28c-0.57-0.92-1.18-1.8-1.85-2.65c-0.59-0.74-0.39-1.22,0.55-1.24c2.4-0.06,4.77-0.4,7.16-0.53
		c1.79-0.1,3.58-0.17,5.36-0.39c0.33-0.07,0.67-0.08,1.01-0.11c3.89-0.27,7.77-0.58,11.65-0.86c3.25-0.24,6.5-0.44,9.75-0.71
		c0.36-0.08,0.72-0.08,1.09-0.12c4.03-0.19,8.04-0.57,12.07-0.84c4.02-0.27,8.05-0.53,12.07-0.87c3.74-0.32,7.49-0.56,11.23-0.83
		c3.94-0.28,7.88-0.57,11.82-0.86C132.64,19.96,136.59,19.93,140.52,19.71z"/>
	<path class="st2" d="M80.55,24.05c-1.46,0.14-2.92,0.32-4.38,0.43c-5.17,0.4-10.33,0.78-15.5,1.15c-0.6,0.04-1.2,0.02-1.8,0.03
		c-0.31-0.12-0.62-0.21-0.92,0.04c-1.56,0.38-3.16,0.27-4.74,0.42c-2.77,0.27-5.55,0.42-8.53,0.63c1.31,1.53,2.3,3.09,3.19,4.71
		c3.63,6.64,6.42,13.66,9.19,20.68C64,69.67,71.02,87.16,78.2,104.59c0.37,0.91,0.57,1.91,1.28,2.66c-0.7,0.96-1.39,1.92-2.18,3
		c-3-4.15-5.6-8.4-8.32-12.56c-0.06-0.8-0.66-1.33-1-1.98c-6.45-14.05-12.85-28.13-18.35-42.59c-2.88-7.58-5.47-15.27-8.37-22.84
		c-0.35-0.91-0.59-1.83-0.19-2.8c0.29-0.69-0.26-0.82-0.69-0.99c-2.63-1.06-5.26-2.13-7.9-3.16c-4.99-1.94-9.94-3.97-14.93-5.92
		c-0.28-0.11-0.66-0.14-0.65-0.58c-0.08-0.49-0.06-0.74,0.63-0.72c8.49,0.28,16.98,0.51,25.48,0.76c8.36,0.25,16.72,0.5,25.08,0.75
		c10.92,0.33,21.85,0.68,32.77,0.99c5.34,0.15,10.68,0.24,16.02,0.39c7.89,0.22,15.77,0.47,23.66,0.71
		c-1.35,0.41-2.75,0.25-4.13,0.37c-5,0.44-10.01,0.7-15.02,1.07c-8.14,0.6-16.28,1.24-24.42,1.83c-5.17,0.37-10.34,0.69-15.51,1.03
		C81.14,23.84,80.84,23.76,80.55,24.05z"/>
	<path class="st3" d="M16.89,16.83c8,3.18,15.99,6.37,23.99,9.52c0.69,0.27,0.99,0.44,0.51,1.18c-0.48,0.74-0.25,1.54,0.03,2.31
		c1.45,3.93,2.91,7.85,4.34,11.79c2.6,7.16,5.13,14.35,8.1,21.37c2.41,5.69,4.88,11.36,7.37,17.03c2.31,5.26,4.68,10.49,7.03,15.74
		c0.14,0.24,0.16,0.44-0.2,0.47c-3.99-6.11-8-12.21-11.98-18.32C43.03,57.89,29.98,37.87,16.97,17.83
		C16.84,17.63,15.93,17.22,16.89,16.83z"/>
	<path class="st4" d="M68.06,96.23c0.07-0.16,0.13-0.31,0.2-0.47c0.35,0.6,0.98,1.1,0.72,1.93C68.67,97.2,68.36,96.71,68.06,96.23z"
		/>
	<path class="st5" d="M80.55,24.05c0.28-0.57,0.59-0.28,0.9-0.04C81.15,24.02,80.85,24.04,80.55,24.05z"/>
	<path class="st6" d="M57.95,25.7c0.29-0.4,0.6-0.33,0.92-0.04C58.56,25.67,58.26,25.68,57.95,25.7z"/>
</g>
</svg>
