<?xml version="1.0" encoding="utf-8"?>
<!-- Generator: Adobe Illustrator 23.0.2, SVG Export Plug-In . SVG Version: 6.00 Build 0)  -->
<svg version="1.1" id="Camada_1" xmlns="http://www.w3.org/2000/svg" xmlns:xlink="http://www.w3.org/1999/xlink" x="0px" y="0px"
	 viewBox="0 0 221.82 177.66" style="enable-background:new 0 0 221.82 177.66;" xml:space="preserve">
<style type="text/css">
	.st0{fill:#FEFEFE;}
	.st1{fill:#963161;}
	.st2{fill:#AD2A2F;}
	.st3{fill:#FE6CBA;}
	.st4{fill:#FEE9F6;}
	.st5{fill:#FEA4D4;}
	.st6{fill:#FED4EC;}
	.st7{fill:#FEB1DA;}
	.st8{fill:#C06D94;}
	.st9{fill:#4C4C4C;}
	.st10{fill:#868686;}
	.st11{fill:#ADADAD;}
	.st12{fill:#8A8A8A;}
	.st13{fill:#353535;}
	.st14{fill:#AEAEAE;}
	.st15{fill:#A8A8A8;}
	.st16{fill:#969696;}
	.st17{fill:#7D7D7D;}
	.st18{fill:#878787;}
	.st19{fill:#2F2F2F;}
	.st20{fill:#939393;}
	.st21{fill:#BE6C92;}
	.st22{fill:#B73975;}
	.st23{fill:#531E37;}
	.st24{fill:#56213A;}
	.st25{fill:#5A223C;}
	.st26{fill:#511D36;}
	.st27{fill:#46182E;}
	.st28{fill:#501D35;}
	.st29{fill:#3B1326;}
	.st30{fill:#531F37;}
	.st31{fill:#3D1427;}
	.st32{fill:#521E37;}
	.st33{fill:#DC3B41;}
	.st34{fill:#FEC6E6;}
	.st35{fill:#EC6368;}
	.st36{fill:#723A58;}
	.st37{fill:#90476E;}
	.st38{fill:#FE76BC;}
	.st39{fill:#BF6C93;}
	.st40{fill:#C06C94;}
	.st41{fill:#7C7C7C;}
	.st42{fill:#363636;}
	.st43{fill:#B73A75;}
	.st44{fill:#B73B76;}
	.st45{fill:#EC6267;}
</style>
<g>
	<path class="st0" d="M221.33,63.86c0,5.36-0.16,10.72,0.05,16.07c0.17,4.16,0.03,8.31,0.18,12.46c0.47,13.03,0.05,26.06,0.25,39.09
		c0.05,3.33-0.61,6.53-1.58,9.63c-0.6,1.93-2.01,3.6-3.08,5.38c-0.55,0.92-1.18,1.8-1.74,2.72c-2.09,3.5-5.66,5.33-8.73,7.71
		c-3.03,2.35-6.34,4.3-9.77,6.01c-2.56,1.28-5.19,2.42-7.87,3.44c-4.65,1.76-9.42,3.11-14.22,4.42c-5.82,1.58-11.74,2.55-17.64,3.66
		c-3.51,0.66-7.12,0.75-10.65,1.3c-3.47,0.54-6.97,0.6-10.45,0.96c-4.18,0.43-8.37,0.3-12.55,0.52c-5.67,0.3-11.33,0.55-17,0.37
		c-4.89-0.16-9.77-0.6-14.66-0.88c-1.87-0.11-3.74-0.02-5.61-0.27c-2.87-0.38-5.76-0.73-8.65-0.91c-4.34-0.27-8.54-1.47-12.88-1.81
		c-3.29-0.26-6.45-1.43-9.67-2.12c-3.97-0.86-7.94-1.77-11.77-3.11c-5.24-1.83-10.63-3.27-15.61-5.82
		c-3.54-1.81-7.21-3.41-10.34-5.92c-2.77-2.22-5.58-4.39-8.38-6.57c-2-1.55-3.35-3.76-3.95-6.28c-0.9-3.75-1.51-7.51-1.69-11.41
		c-0.25-5.64-0.67-11.29-0.99-16.93c-0.15-2.66-0.37-5.32-0.44-7.99c-0.15-5.38-0.31-10.77-0.55-16.15
		c-0.07-1.58-0.32-3.17-0.63-4.72c-0.3-1.5,0.33-2.91,0.22-4.39c-0.47-6.53-0.5-13.08-0.54-19.63c-0.02-3.34-0.29-6.69-0.4-10.03
		c-0.24-7.23,2.61-13.23,7.44-18.43c1.19-1.28,2.11-2.76,3.38-4.01c1.6-1.58,3.33-2.97,5.09-4.33c5.38-4.15,11.41-7.14,17.68-9.66
		c8.63-3.46,17.62-5.75,26.73-7.46c4.02-0.75,8.1-1.27,12.16-1.86c2.72-0.39,5.46-0.56,8.18-0.86c3.01-0.33,6.05-0.44,9.08-0.64
		c0.36-0.02,0.7-0.08,1.03-0.27c2.75-1.63,5.77-2.64,8.71-3.83c3.88-1.56,7.98-1.29,12.06-1.28c3.3,0.01,6.48,0.62,9.66,1.39
		c2.33,0.57,4.47,1.44,6.35,2.91c0.63,0.49,1.32,0.67,2.1,0.71c4.83,0.23,9.66,0.47,14.48,0.76c5.73,0.35,11.38,1.33,17.07,2.04
		c5.8,0.72,11.39,2.33,17.05,3.6c5,1.12,9.93,2.61,14.87,3.99c1.33,0.37,2.36,1.35,3.37,2.23c0.65,0.57,1.33,1.01,2.09,1.36
		c2.55,1.15,4.92,2.63,7.19,4.24c4.51,3.2,8.31,7.08,11.33,11.72c1.76,2.7,2.41,5.78,3.2,8.83c0.64,2.46,0.87,4.93,0.83,7.47
		c-0.07,4.2-0.02,8.4-0.02,12.6C221.21,63.86,221.27,63.86,221.33,63.86z"/>
	<path d="M215.57,63.82c0,5.36-0.16,10.72,0.05,16.07c0.17,4.2,0.03,8.39,0.18,12.58c0.47,12.95,0.06,25.9,0.25,38.85
		c0.03,2.02-0.32,3.96-0.6,5.93c-0.13,0.91-0.47,1.74-0.98,2.54c-1.32,2.08-2.57,4.2-3.86,6.3c-0.79,1.28-1.76,2.31-3.18,2.97
		c-0.73,0.34-1.25,1.09-1.91,1.61c-5.83,4.58-12.31,7.98-19.23,10.6c-4.52,1.71-9.12,3.07-13.79,4.3c-3.24,0.85-6.57,1.22-9.8,2.04
		c-3.69,0.94-7.44,1.36-11.18,1.74c-3.09,0.31-6.14,0.88-9.24,1.12c-6.32,0.5-12.64,0.8-18.97,1.02c-5.79,0.2-11.58,0.63-17.36,0.29
		c-4.73-0.28-9.47-0.36-14.19-0.83c-1.86-0.19-3.74-0.04-5.61-0.28c-2.84-0.37-5.68-0.72-8.53-0.9c-4.34-0.27-8.53-1.51-12.88-1.8
		c-2.74-0.18-5.39-1.05-8.03-1.83c-1.46-0.44-2.97-0.55-4.44-0.92c-4.14-1.04-8.14-2.51-12.18-3.85c-4.76-1.58-9.3-3.6-13.8-5.84
		c-3.74-1.87-6.81-4.53-10.03-7.04c-0.6-0.47-1.2-0.94-1.85-1.33c-2.92-1.74-4.05-4.45-4.63-7.67c-0.91-5.08-0.8-10.22-1.2-15.33
		c-0.33-4.21-0.51-8.43-0.73-12.65c-0.21-4.22-0.25-8.45-0.49-12.67c-0.24-4.17,0.01-8.38-0.91-12.5c-0.26-1.15,0.29-2.2,0.23-3.31
		c-0.36-6.78-0.48-13.56-0.56-20.35C6.11,59,5.79,55.3,5.6,51.61c-0.16-3.17,0.92-6.22,2.63-8.92c3.56-5.61,8.02-10.4,13.6-14.06
		c4.29-2.81,8.91-5.03,13.63-7c5.08-2.12,10.36-3.73,15.68-5.09c6.99-1.8,14.12-2.86,21.27-3.83c6.33-0.86,12.69-1.23,19.05-1.64
		c0.83-0.05,1.37-0.57,2.05-0.88c4.35-2.03,8.6-4.32,13.51-4.76c0.97-0.09,1.92-0.04,2.87,0.13c3.09,0.55,6.28,0.2,9.34,1.15
		c1.85,0.57,3.76,1.07,5.14,2.39c1.55,1.5,3.38,1.57,5.27,1.68c4.83,0.27,9.66,0.49,14.48,0.78c5.73,0.34,11.4,1.18,17.07,2.06
		c2.2,0.34,4.42,0.55,6.59,1.07c5.3,1.28,10.61,2.5,15.87,3.93c2.3,0.63,4.62,1.25,6.91,1.93c0.7,0.21,1.37,0.56,1.83,1.09
		c1.19,1.37,2.78,2.04,4.34,2.82c2.82,1.39,5.46,3.1,7.89,5.08c2.67,2.17,5.08,4.63,6.99,7.51c1.44,2.17,2.31,4.55,3.02,7.07
		c1.02,3.59,0.68,7.2,0.75,10.82c0.06,2.96,0.01,5.92,0.01,8.88C215.45,63.82,215.51,63.82,215.57,63.82z"/>
	<path class="st0" d="M185.83,24.48c2.05,1.13,4.35,1.65,6.44,2.69c5.64,2.79,10.83,6.15,14.82,11.14c1.7,2.13,2.58,4.6,3.33,7.21
		c0.76,2.65,0.62,5.28,0.64,7.94c0.09,10.63,0.15,21.26,0.22,31.89c0,0.44-0.03,0.88-0.04,1.32c-1.32,2.1-3.33,3.09-5.68,3.54
		c-1-0.13-1.58-0.88-2.24-1.5c-1.26-1.19-2.57-2.28-4.26-2.83c-1.93-0.63-3.08-0.28-4.25,1.4c-1.21,1.74-2.43,3.46-3.94,4.97
		c-5.42,5.47-11.68,6.7-18.79,3.88c-2.16-0.86-4.24-1.88-6.41-2.69c-2.28-0.85-4.59-1.61-7.08-1.66c-3.23-0.06-6,1.22-8.64,2.86
		c-3.7,2.3-7.31,4.75-11.23,6.68c-3.9,1.93-7.99,3.01-12.39,2.71c-2.47-0.17-4.76-1.05-7.04-1.91c-1.95-0.73-3.86-1.57-5.86-2.13
		c-4.56-1.28-9.14-1.67-13.62,0.23c-1.65,0.7-3.21,1.63-4.81,2.44c-1,0.51-2.02,0.96-3.1,1.28c-1.88,0.49-3.72,1.12-5.66,1.3
		c-4.92,0.2-9.21-1.7-13.37-4.02c-2.45-1.37-4.66-3.09-6.96-4.68c-2.6-1.81-5.3-3.41-8.37-4.34c-3.44-1.04-6.76-0.81-10.09,0.51
		c-3.49,1.39-6.93,2.91-10.52,4.05c-1.26,0.4-2.54,0.67-3.85,0.74c0.57,0.77,0.51,1.09-0.33,1.21c-0.83,0.12-1.67,0.07-2.51-0.06
		c-3.32-0.5-6.43-1.61-9.36-3.23c-1.35-0.71-2.56-1.61-3.74-2.58c-1.48-1.21-2.77-2.65-4.52-3.53c-0.64-0.32-1.35-0.8-1.1-1.77
		c-0.22-1.94,0.73-3.85-0.14-5.85c-0.47-1.07-0.44-2.42,0.12-3.61c0.24-0.52,0.22-1.02-0.15-1.47c-0.49-0.59-0.5-1.24-0.25-1.92
		c0.67-1.78,0.4-3.54-0.19-5.26c-0.12-0.35-0.22-0.68-0.19-1.04c0.15-1.77-0.37-3.6,0.42-5.32c-0.84-1.94,0.8-4.04-0.36-5.97
		c-0.1-0.17-0.1-0.4-0.05-0.59c0.46-1.68,0.17-3.39,0.19-5.09c0.04-2.73,1.3-5,2.79-7.16c3.64-5.27,8.09-9.66,13.78-12.74
		c2.56-1.38,5.07-2.82,7.71-4.07c2.26-1.07,4.8-1.56,6.84-3.1c0.38-0.29,0.89-0.33,1.37-0.39c1.47-0.18,2.83-0.54,4.18-1.29
		c1.4-0.78,3.13-0.89,4.75-1.11c0.87-0.12,1.63-0.39,2.18-1.11c0.48-0.16,0.96-0.32,1.44-0.47c1.17,0.4,2.17-0.08,3.17-0.59
		c0.22-0.03,0.44-0.04,0.66,0.02c1.72,0.14,3.47,0.43,4.81-1.1c0.88-0.16,1.76-0.32,2.64-0.48c0.48,0.51,0.96,0.42,1.44,0.01
		c0.29-0.1,0.58-0.2,0.87-0.3c1.03-0.08,2.03-0.43,3.07-0.33c0.66,0.23,1.32,0.52,1.88-0.21c0.12,0,0.22,0.02,0.33,0.07
		c1.84,0.73,3.52,0.27,5.14-0.7c0.21-0.01,0.42-0.02,0.62-0.04c0.57-0.28,1.28,0.59,1.78-0.22c1.17,0.08,2.31-0.15,3.47-0.25
		c0.99-0.14,1.97-0.23,2.95,0.05c0.33,0.1,0.61,0.12,0.89-0.11c0.19-0.15,0.41-0.28,0.65-0.27c0.55,0.02,1.28-0.28,1.59,0.16
		c0.36,0.51-0.25,1.01-0.56,1.45c-0.75,1.07-1.37,2.24-2.3,3.19c-0.5,0.24-1.02,0.23-1.53,0.05c-1.64-1.03-3.22-0.32-4.81,0.16
		c-0.26,0.08-0.44,0.33-0.68,0.46c-0.16,0.08-0.33,0.1-0.51,0.07c-0.72-0.55-1.32-0.56-1.74,0.36c-0.1,0.05-0.21,0.05-0.32,0.02
		c-0.45-0.43-0.9-0.66-1.35,0c-0.15,0.09-0.3,0.12-0.47,0.09c-0.54-0.39-0.96-0.13-1.38,0.24c-0.18,0.04-0.36,0.03-0.53-0.02
		c-0.85-0.24-1.66,0.08-2.49,0.18c-9.15,1.18-18.11,3.21-26.8,6.32c-4.38,1.57-8.52,3.64-12.58,5.9c-3.28,1.83-6.67,3.46-9.79,5.58
		c-3.97,2.69-7.48,5.72-9.13,10.46c-1.21,3.47-0.49,6.48,2.4,8.79c4.2,3.35,8.93,5.76,13.88,7.77c11.55,4.7,23.58,7.59,35.87,9.51
		c4.97,0.78,9.98,1.28,15,1.72c5.09,0.44,10.21,0.6,15.29,1.02c4.86,0.4,9.71,0.57,14.57,0.64c1.25,0.02,2.46-0.29,3.7-0.28
		c0.52,0,0.89-0.32,1.21-0.69c0.29-0.19,0.62-0.3,0.95-0.4c1.13-0.15,2.27-0.05,3.4-0.08c1.12-0.05,2.25,0.14,3.36-0.14
		c0.21-0.06,0.42-0.08,0.64-0.09c4-0.12,7.97-0.51,11.95-0.93c0.55-0.06,1.11-0.03,1.66-0.05c2.33-0.46,4.66-0.93,7.05-1.06
		c1.46,0.19,2.84-0.29,4.26-0.46c0.12-0.04,0.25-0.07,0.37-0.09c1.29-0.01,2.52-0.51,3.81-0.54c1.94-0.42,3.88-0.86,5.84-1.23
		c2.66-0.5,5.35-0.88,7.98-1.55c1.12-0.28,2.25-0.54,3.29-1.08c0.53-0.27,1.12-0.46,1.72-0.49c0.73-0.04,1.43-0.21,2.09-0.49
		c3.78-1.59,7.81-2.54,11.5-4.41c4.6-2.33,9.18-4.69,13.24-7.9c1.63-1.29,3.04-2.83,4.31-4.49c0.35-0.46,0.49-0.99,0.58-1.55
		c0.36-2.21,0.51-4.44,0.81-6.66c0.12-0.87-0.3-1.54-0.75-2.21c-1.88-2.81-4.44-4.91-7.15-6.83c-1.2-0.85-2.45-1.65-3.71-2.42
		c-3.96-2.43-8.51-3.18-12.78-4.73c-2.52-0.91-5.14-1.52-7.71-2.25c-5.74-1.63-11.67-2.35-17.53-3.35
		c-5.98-1.03-12.01-1.74-18.07-2.24c-2.9-0.24-5.81-0.4-8.72-0.58c-0.45-0.07-0.63-0.44-0.8-0.79c-0.63-1.39-1.5-2.57-2.82-3.4
		c-0.35-0.22-0.9-0.49-0.42-1.09c3.02,0.17,6.05,0.07,9.06,0.42c1.19,0.14,2.39-0.1,3.58,0.11l-0.02-0.01
		c1.37,0.39,2.79-0.04,4.16,0.24c3,0.38,6.01,0.62,9.03,0.78c0.93,0.29,1.91,0.28,2.85,0.45c0.87,0.43,1.85,0.31,2.76,0.4
		c2.97,0.29,5.89,0.81,8.79,1.48c0.15,0.04,0.32,0.01,0.47,0.01c0.76,0.31,1.58,0.3,2.36,0.5c3.57,0.85,7.14,1.7,10.71,2.56
		c0.36,0.09,0.72,0.2,1.08,0.3c1.58,0.58,3.26,0.86,4.81,1.55C185.18,24.04,185.51,24.26,185.83,24.48z"/>
	<path class="st1" d="M211.49,102.48c0.33,1.38,0.16,2.78,0.16,4.17c0.02,8.72,0.16,17.44-0.01,26.15
		c-0.04,1.94-0.21,4.08-1.54,5.88c-1.34,1.82-2.43,3.83-3.8,6.02c-0.1-0.69-0.16-1.08-0.22-1.46c-0.09,0.01-0.15,0-0.16,0.02
		c-2.63,4.76-7.32,7.04-11.78,9.46c-9.57,5.2-19.88,8.26-30.55,10.29c-7.78,1.48-15.62,2.41-23.5,3.09
		c-5.53,0.48-11.07,0.78-16.62,1.01c-6.48,0.26-12.95,0.29-19.42,0.1c-7.9-0.23-15.8-0.78-23.66-1.62
		c-14.1-1.51-27.95-4.19-41.25-9.28c-4.71-1.8-9.31-3.83-13.67-6.38c-2.05-1.2-3.8-2.79-5.64-4.25c-0.88-0.69-1.75-1.42-2.71-1.98
		c-1.72-1.01-2.44-2.44-2.77-4.43c-1.04-6.24-1.15-12.54-1.59-18.82c-0.34-4.9-0.49-9.82-0.73-14.72c-0.01-0.28,0.02-0.56,0.03-0.84
		c0.36-0.07,0.62,0.15,0.83,0.37c0.79,0.83,1.79,1.3,2.85,1.66c0.45,0.16,0.9,0.33,1.08,0.85c0.22,1.3,0.07,2.62,0.18,3.92
		c-0.31,2.47,0.14,4.93,0.24,7.39c0.09,2.1,0.06,4.21,0.4,6.3c0.28,1.52,0.13,3.08,0.35,4.61c0.5,1.68,0.88,3.39,0.78,5.16
		c-0.04,0.58,0,1.09,0.31,1.6c0.46,0.76,0.69,1.61,0.78,2.5c0.1,0.93,0.58,1.57,1.31,2.17c4.14,3.35,8.85,5.7,13.61,7.98
		c0.39,0.19,0.83,0.3,1.09,0.69c1.92,1.08,4.03,1.72,6.07,2.49c7.49,2.82,15.22,4.79,23.06,6.36c0.4,0.08,0.79,0.13,1.18,0.05
		c0.27-0.03,0.5,0.06,0.71,0.22c1.65,0.63,3.4,0.7,5.11,0.99c2.81,0.47,5.63,0.86,8.47,1.09c0.14,0.02,0.27,0.04,0.41,0.08
		c4.02,0.5,8.05,0.86,12.09,1.16c1.69,0.32,3.42,0.22,5.12,0.32c7.41,0.43,14.84,0.41,22.26,0.25c4.09-0.09,8.19-0.4,12.28-0.72
		c2.62-0.21,5.25-0.29,7.85-0.67c2.92-0.26,5.82-0.65,8.72-1.07c1.53-0.22,3.06-0.44,4.57-0.75c2.56-0.54,5.15-0.89,7.7-1.43
		c4.41-0.75,8.73-1.86,13-3.2c3.08-0.87,6.11-1.89,9.03-3.22c0.64-0.74,1.54-0.93,2.42-1.17c0.32,0.02,0.63,0.01,0.93-0.13
		c1.89-0.94,3.78-1.87,5.65-2.85c0.18-0.1,0.3-0.26,0.39-0.44c0.32-0.44,0.8-0.66,1.24-0.91c2.87-1.59,5.48-3.55,7.94-5.72
		c1.25-1.11,2.28-2.45,3.34-3.74c0.53-0.65,0.09-1.56,0.51-2.29c0.15-0.25,0.16-0.61,0.34-0.88c-0.01-3.7,0.19-7.38-0.15-11.08
		c-0.16-1.77-0.23-3.55-0.43-5.32c-0.45-0.95-0.1-2-0.35-2.97c-0.09-2.22-0.04-4.44-0.03-6.66c0-0.68,0.02-1.39,0.91-1.58
		c1.13-0.15,2.28-0.01,3.42-0.19c1.04-0.17,1.52-0.63,1.46-1.72C211.08,103.74,210.92,103.02,211.49,102.48z"/>
	<path class="st2" d="M125.03,15.42c1.96,1.08,3.14,2.83,4.06,4.79c0.36,0.22,0.57,0.55,0.73,0.92c1.99,4.85,2.59,9.77,0.77,14.81
		c-3.02,7.09-8.32,11.42-15.9,12.69c-5.6,0.94-11.05,0.3-16.11-2.55c-6-3.58-9.57-8.83-10.48-15.74c-0.46-3.49-0.01-6.93,1.66-10.13
		c1.08-1.76,2.19-3.49,3.83-4.78c-0.54,0.31-1.06,0.39-1.55-0.12c3.08-0.11,5.28-2.37,8.02-3.34c2.21-0.78,4.3-1.91,6.67-2.21
		c0.43-0.05,0.89-0.18,1.31-0.1c2.74,0.53,5.55,0.34,8.29,0.72c2.97,0.42,5.54,1.73,7.58,3.99c0.19,0.2,0.42,0.36,0.63,0.54
		C124.77,15.03,124.96,15.16,125.03,15.42z"/>
	<path class="st3" d="M211.49,102.48c-0.01,0.84-0.11,1.68-0.02,2.51c0.1,0.91-0.36,1.17-1.11,1.35c-1.3,0.32-2.62,0.25-3.93,0.24
		c-2.58,0.06-4.63-1.35-6.75-2.51c-0.32-0.18-0.88-0.3-0.66-0.92c0.75-0.43,1.49-0.12,2.2,0.1c0.96,0.29,1.87,0.7,2.75,1.17
		c1.14,0.6,1.14,0.6,1.15-0.75c0.01-0.72-0.07-1.44,0.06-2.15c0.05-0.26-0.05-0.91,0.62-0.52c0,0.84,0.03,1.67-0.02,2.5
		c-0.01,0.16,0.25-0.04,0.09,0.01c-0.41-4.36-0.21-8.73-0.33-13.09c0.01-0.14,0.05-0.28,0.12-0.4c2.18-0.57,3.99-1.75,5.57-3.34
		c0.33,1.9,0.21,3.82,0.23,5.74C211.5,95.76,211.48,99.12,211.49,102.48z"/>
	<path class="st3" d="M16.56,107.56c-1.69-0.58-3.36-1.19-4.51-2.68c-0.23-5.73-0.46-11.47-0.69-17.2c0.04-0.11,0.09-0.12,0.17-0.03
		c0.13,0.76,0.73,1.17,1.3,1.46c1.62,0.83,2.9,2.1,4.23,3.28c1.17,1.04,2.44,1.92,3.79,2.71c-0.2,0.59-0.6,0.29-0.91,0.16
		c-0.76-0.31-1.48-0.72-2.17-1.17c-0.58-0.38-1.15-0.81-1.32,0.35c-0.03,0.17-0.2,0.22-0.37,0.15c-0.21-0.32-0.07-0.67-0.11-1
		c-0.01-0.16-0.21,0.08-0.06,0c0.04-0.02,0.06,0.01,0.07,0.09c0.36,3.23,0.52,6.46,0.46,9.7c-0.01,0.59,0.16,1.17,0.35,1.73
		c2.26,2.22,4.45,4.51,6.97,6.45c0.34,0.26,0.89,0.45,0.73,1.08c-0.45,0.23-0.87,0.03-1.24-0.18c-1.88-1.03-3.81-1.99-5.24-3.66
		C17.59,108.32,17.05,107.97,16.56,107.56z"/>
	<path class="st0" d="M11.53,87.65l-0.09-0.01c0,0-0.08,0.05-0.08,0.05c-0.93-1.44-0.23-2.98-0.28-4.47
		c-0.23-7.63-0.57-15.26-0.59-22.89c-0.01-2.31,0.07-4.6-0.32-6.92c-0.57-3.45,0.73-6.51,2.59-9.37c1.21-1.87,2.83-3.4,4.18-5.16
		c0.85-0.8,1.68-1.61,2.47-2.47c2.96-2.86,6.44-4.95,10.04-6.88c0.67-0.32,1.37-0.57,1.97-1.03c3.8-1.78,7.59-3.59,11.6-4.86
		c2.03-0.64,4.02-1.47,6.09-1.93c1.8-0.4,3.48-1.34,5.39-1.26c0.04,1.33-1.08,1.31-1.85,1.38c-1.52,0.13-2.93,0.74-4.45,0.79
		c-0.18,0.01-0.41,0.1-0.53,0.24c-1.14,1.24-2.72,1.19-4.19,1.4c-0.52,0.08-1.05,0.07-1.46,0.42c-1.23,1.02-2.87,1.15-4.17,1.9
		c-2.07,1.19-4.45,1.66-6.41,3.06c-1.19,0.85-2.56,1.44-3.84,2.17c-3.64,2.1-6.92,4.58-9.73,7.75c-1.77,2-3.35,4.1-4.82,6.32
		c-1.75,2.64-2.12,5.5-1.67,8.54c0.02,0.16,0.16,0.4,0.1,0.45c-1.17,1.06-0.46,2.04,0,3.12c0.22,0.53,0.08,1.24-0.08,1.88
		c-0.2,0.83-0.5,1.67,0.05,2.52c0.2,0.31,0.15,0.78-0.04,1.16c-0.99,1.96-0.72,3.86-0.09,5.92c0.51,1.7,1.08,3.61-0.06,5.39
		c-0.31,0.48-0.32,0.92,0.19,1.36c0.8,0.68,0.76,1.42,0.16,2.29c-0.62,0.91-0.5,2.02-0.11,2.96c0.54,1.29,1.08,2.47,0.32,3.86
		c-0.2,0.36-0.01,0.85,0.12,1.28C12.05,87,12.18,87.5,11.53,87.65z"/>
	<path class="st0" d="M92.04,15.33c0.54,0,1.09,0,2.02,0c-1.84,1.52-2.88,3.25-4.07,4.86c-0.32,0.24-0.64,0.28-0.94-0.04
		c0.51-1.32,1.52-2.33,2.25-3.52c0.16-0.26,0.43-0.46,0.45-0.93c-0.74-0.05-1.49-0.38-2.06,0.48c-0.15,0.23-0.49,0.42-0.72,0.21
		c-0.95-0.88-2.11-0.38-3.17-0.53C87.85,15.44,89.96,15.6,92.04,15.33z"/>
	<path class="st0" d="M79.93,16.36c-0.01,0.12,0.03,0.26-0.03,0.35c-0.62,0.99-4.46,1.25-5.25,0.36c0.18-0.24,0.55,0.01,0.71-0.28
		C76.87,16.58,78.38,16.29,79.93,16.36z"/>
	<path class="st0" d="M64.57,18.29c-0.11,0.62-0.38,1.04-1.06,1.26c-1.02,0.33-2.13-0.08-3.13,0.48c-0.24,0.14-0.59-0.15-0.62-0.55
		c0.41-0.58,1.19-0.13,1.64-0.59C62.46,18.69,63.52,18.49,64.57,18.29z"/>
	<path class="st4" d="M125.03,15.42c-0.17-0.16-0.33-0.31-0.5-0.47c4.43,0.1,8.85,0.17,13.26,0.66c-3.57,0.01-7.14-0.17-10.7-0.4
		C126.41,15.16,125.67,14.91,125.03,15.42z"/>
	<path class="st4" d="M185.83,24.48c-1.94-0.72-3.88-1.44-5.82-2.15c1.73,0.45,3.46,0.9,5.19,1.36
		C185.59,23.79,185.74,24.12,185.83,24.48z"/>
	<path class="st0" d="M59.05,19.52c-1.08,0.98-2.41,1.17-3.12,0.44c0.85-0.28,1.71-0.51,2.62-0.51
		C58.73,19.34,58.91,19.31,59.05,19.52z"/>
	<path class="st4" d="M75.36,16.8c-0.15,0.32-0.44,0.26-0.71,0.28c-0.08,0-0.16,0-0.24,0c-0.44,0.31-0.89,0.55-1.44,0.24
		c-1.16-0.19-2.29,0.38-3.45,0.2C71.43,17.02,73.4,16.92,75.36,16.8z"/>
	<path class="st4" d="M19.41,36.4c-0.6,1.05-1.43,1.86-2.47,2.47C17.61,37.9,18.47,37.11,19.41,36.4z"/>
	<path class="st4" d="M141.94,15.84c-1.39-0.04-2.8,0.32-4.16-0.24C139.18,15.55,140.56,15.63,141.94,15.84z"/>
	<path class="st0" d="M82.33,16.1c0.04,0.77-0.43,0.84-0.98,0.64c-0.27-0.1-0.45-0.43-0.8-0.42C81.12,16.07,81.72,16.01,82.33,16.1z
		"/>
	<path class="st0" d="M68.65,17.82c-0.05,0.55-0.39,0.7-0.89,0.69c-0.49,0-0.56-0.31-0.55-0.7C67.69,17.62,68.17,17.74,68.65,17.82z
		"/>
	<path class="st4" d="M153.83,17.07c-0.98,0.03-1.96,0.05-2.85-0.45C151.94,16.68,152.91,16.71,153.83,17.07z"/>
	<path class="st4" d="M59.05,19.52c-0.17-0.02-0.34-0.05-0.5-0.07c0.96-0.19,1.91-0.38,2.87-0.57c-0.4,0.6-1.14,0.28-1.64,0.59
		C59.53,19.5,59.29,19.51,59.05,19.52z"/>
	<path class="st4" d="M31.41,28.48c-0.48,0.67-1.19,0.93-1.97,1.03C30.03,29.04,30.71,28.74,31.41,28.48z"/>
	<path class="st4" d="M168.21,19.47c-0.83,0.04-1.64-0.01-2.36-0.5C166.67,18.97,167.46,19.11,168.21,19.47z"/>
	<path class="st4" d="M89.05,20.15c0.31,0.01,0.63,0.03,0.94,0.04c-0.42,1.53-1.2,2.95-1.42,4.54c-1.16,8.18,1.74,14.69,8.12,19.77
		c0.62,0.49,1.31,0.91,1.96,1.36c0.49,0.29,0.34,0.77,0.32,1.19c-0.03,0.74,0.09,1.42,0.53,2.04c1.83,2.55,4.27,4.04,7.4,4.36
		c6.84,0.68,13.27-0.75,19.34-3.87c1.57-0.8,3.13-1.57,4.78-2.2c3.49-1.33,5.65-4.6,5.72-8.12c0.06-2.84-2.98-4.92-5.4-3.3
		c-0.6,0.4-0.64,0.35-1.05,0.02c1.87-5.43,1.08-10.65-1.2-15.77c0.57-0.42,1.15-0.03,1.72-0.05c2.76-0.07,5.48,0.33,8.21,0.53
		c2.57,0.18,5.13,0.52,7.69,0.85c3.07,0.4,6.13,0.81,9.19,1.3c3.88,0.63,7.74,1.34,11.61,2.02c7,1.23,13.66,3.71,20.44,5.73
		c6.01,1.8,10.86,5.32,15.27,9.58c0.85,0.82,1.53,1.84,2.22,2.81c0.44,0.62,0.64,1.3,0.52,2.12c-0.32,2.16-0.58,4.33-0.75,6.5
		c-0.12,1.55-1.23,2.44-2.11,3.46c-2.87,3.3-6.53,5.6-10.31,7.68c-4.27,2.35-8.59,4.67-13.3,6.02c-1.6,0.46-3.03,1.32-4.64,1.65
		c-3.37,0.7-6.51,2.2-9.93,2.7c-1.44,0.21-2.89,0.44-4.32,0.72c-2.1,0.41-4.19,0.87-6.29,1.31c-0.5-0.21-0.96-0.06-1.46,0.06
		c-0.85,0.21-1.73,0.29-2.6,0.44l0.02-0.01c-1.44,0.13-2.84,0.61-4.31,0.49c-2.34,0.39-4.69,0.78-7.03,1.17
		c-1.56-0.37-3.09,0.11-4.62,0.21c-3.05,0.2-6.1,0.55-9.16,0.65c-0.91,0.15-1.83,0.06-2.74,0.21c-0.43,0.06-0.86,0.02-1.29,0.03
		c-1.84,0.01-3.7-0.12-5.51,0.4c-5.3,0.14-10.61,0.03-15.91,0.06c-5.42-0.27-10.85-0.36-16.26-0.91c-5.64-0.58-11.3-1.07-16.9-1.97
		c-8.1-1.29-16.11-2.99-23.95-5.44c-5.96-1.87-11.85-3.88-17.41-6.78c-2.81-1.47-5.48-3.14-7.99-5.07c-2.47-1.9-3.23-4.89-2.31-7.84
		c1.6-5.1,5.19-8.44,9.54-11.12c6.4-3.94,12.99-7.55,19.94-10.47c5.4-2.27,11.05-3.76,16.75-5.03c4.22-0.94,8.47-1.68,12.75-2.24
		c0.67-0.09,1.3-0.37,1.99-0.38c0.16,0.01,0.32,0.01,0.49,0.02c0.35-0.3,0.72-0.52,1.19-0.26c0.16,0.01,0.32,0.01,0.49,0.02
		c0.48-0.37,0.96-0.37,1.44-0.01c0.08,0,0.16,0.01,0.24,0.01c0.51-0.34,0.96-0.86,1.67-0.5c0.17-0.01,0.34-0.01,0.5-0.02
		c1.8-0.48,3.62-0.82,5.5-0.68C87.93,20.17,88.49,20.16,89.05,20.15z"/>
	<path class="st5" d="M24.5,112.6c-2.55-2.12-5.04-4.3-7.33-6.7c-0.15-0.16-0.42-0.19-0.63-0.29c-0.26-1.81-0.26-3.64-0.3-5.46
		c-0.03-1.43-0.15-2.86-0.14-4.29c0-0.43-0.08-0.88,0.19-1.28c0.1-1.64,0.08-1.61,1.56-0.81c0.96,0.52,1.78,1.4,3.01,1.33
		c2.53,1.28,5.11,2.4,7.92,2.94c1.09,0.21,2.18,0.48,3.31,0.38c0.4-0.03,1.01,0.26,1.16-0.27c0.11-0.42-0.57-0.45-0.86-0.85
		c5.4-0.47,10.08-3.04,14.97-4.93c4.32-1.67,8.45-1.45,12.63,0.36c3.74,1.61,6.87,4.16,10.2,6.41c4.1,2.77,8.44,4.97,13.39,5.71
		c0.86,0.13,1.75,0.06,2.63,0.08c-0.62,0.96-1.82,0.72-2.55,1.25c3.09,0.51,5.71-0.91,8.28-2.45c2.9-1.42,5.74-2.96,8.7-4.21
		c2.74-1.15,5.69-0.98,8.61-0.73c4.13,0.34,7.83,2.11,11.61,3.58c5.96,2.32,11.66,1.5,17.25-1.1c3.77-1.75,7.23-4.08,10.73-6.31
		c1.82-1.17,3.7-2.19,5.75-2.91c3.19-1.11,6.29-0.56,9.37,0.42c2.67,0.85,5.19,2.06,7.75,3.16c8.76,3.76,15.93,0.81,21.23-6.24
		c0.62-0.83,1.17-1.71,1.77-2.56c1.08-1.51,2.41-1.92,4.19-1.37c1.69,0.52,3.06,1.52,4.33,2.7c0.75,0.7,1.38,1.56,2.45,1.84
		c0.02,0.11,0.04,0.22,0.06,0.34c0.17,3.4,0.04,6.81,0.07,10.21c0,0.15-0.11,0.2-0.18,0.29c-0.38,1.49-0.01,3.02-0.23,4.66
		c-2.08-1-4.01-2.33-6.4-2.29c-0.29,0.22-0.54,0.02-0.8-0.08c-2-1.35-1.99-1.35-3.85,0.14c-0.34,0.27-0.7,0.53-1.01,0.85
		c-0.77,0.64-1.57,1.22-2.39,1.81c-2.8,1.91-5.71,3.6-8.9,4.81c-3.25,1.23-6.56,1.05-9.9,0.88c-1.51-0.08-3-0.28-4.51-0.39
		c-0.2-0.01-0.39-0.04-0.58-0.09c-2.48-0.77-4.99-1.44-7.6-1.57c-3.6-0.18-6.93,0.84-10.11,2.48c-3.91,2.02-7.43,4.67-11.26,6.81
		c-3.26,1.45-6.7,2.27-10.19,2.92c-0.43,0.08-0.88,0.02-1.31-0.07c-3.26-0.72-6.24-2.22-9.39-3.28c-0.57-0.19-1.13-0.4-1.72-0.53
		c-0.42-0.13-0.8-0.33-1.15-0.61c-1.66-2.03-3.68-2.39-6.07-1.42c-0.69,0.28-1.42,0.51-2.14,0.75c-0.12,0.04-0.24,0.07-0.36,0.08
		c-4.12,0.16-7.91,1.35-11.46,3.46c-2.8,1.66-5.77,2.89-9.15,2.84c-2.42-0.03-4.49-1.05-6.6-2c-2.96-1.33-5.67-3.12-8.46-4.75
		c-2.88-1.67-5.93-2.96-9.14-3.85c-0.87-0.19-1.69-0.51-2.53-0.81c-2.32-0.81-4.71-1.24-7.14-1.51c-2.99-0.33-5.79,0.53-8.53,1.56
		c-1.69,0.63-3.31,1.4-5.02,1.97c-1.44,0.48-2.9,0.89-4.4,1.13c-2.84,0.35-5.5-0.33-8.07-1.46C24.93,113.15,24.61,112.98,24.5,112.6
		z"/>
	<path class="st6" d="M88.27,81.9c0.82-0.01,1.63-0.02,2.45-0.03c-0.43,0.8-1.19,0.1-1.71,0.37c-0.19,0.02,0.01,0.27-0.04,0.12
		c-0.01-0.04,0-0.07,0.05-0.06c1.21,0.04,2.39-0.49,3.61-0.24c0.8,0.02,1.61,0.04,2.41,0.05c0.24,0.03-0.28,0.33,0.09,0.28
		c0.31-0.04,0.63-0.04,0.94-0.04c1.64,0.18,3.29,0.17,4.93,0.02c4.83,0,9.66,0,14.49,0c1.4,0.21,2.82,0.04,4.22,0.1
		c0.42,0.02,0.86-0.11,1.27,0.11c1.43-0.84,2.94-0.55,4.44-0.3c0.67,0.11,1.2-0.26,1.76-0.35c0.99-0.16,2.04-0.23,3.08,0.07
		c0.72,0.21,1.35-0.45,2.14-0.45c1.77,0,3.56-0.48,5.29-0.27c1.28,0.15,2.41-0.38,3.66-0.34c0.84,0.03,1.91-0.3,2.86-0.36
		c1.38-0.08,2.85-0.12,4.11-0.37c1.04-0.2,2.14-0.17,3.18-0.37c1.59-0.31,3.19-0.65,4.81-0.89c3.92-0.58,7.81-1.29,11.69-2.15
		c4.85-1.07,9.53-2.64,14.2-4.28c6.27-2.2,12.17-5.15,17.68-8.84c1.95-1.31,3.67-2.95,5.28-4.68c0.34-0.37,0.62-0.83,1.02-0.95
		c0,3.2,0,6.41,0,9.63c0.24,0.74,0.06,1.5,0.11,2.25c-0.06,0.29-0.22,0.52-0.47,0.66c-2.95,1.7-5.55,3.92-8.48,5.66
		c-2.89,1.72-5.88,2.66-9.31,2.62c-6.26-0.07-12.3,1.31-18.17,3.42c-2.48,0.89-4.92,1.88-7.34,2.91c-4.4-1.08-8.55-0.19-12.57,1.66
		c-2.02,0.93-3.91,2.08-5.72,3.37c-5.3,0.9-10.39-0.09-15.47-1.59c-5.03-1.49-10.14-2.6-15.45-2.36c-3.94,0.18-7.75,1.08-11.53,2.09
		c-5,1.33-10.05,2.22-15.22,2.51c-2.04,0.12-4.05,0.18-6.09-0.01c-2.19-0.21-4.22-0.75-6.12-1.9c-3.72-2.24-7.6-4.09-11.97-4.7
		c-1.76-0.25-3.5-0.2-5.24,0.13c-1.45,0.28-2.83,0.81-4.3,1.03c-2.32-0.31-4.65-0.4-6.92,0.29c-1.64,0.5-3.25,1.08-4.88,1.63
		c-2.62,0-5.11-0.74-7.59-1.44c-4.61-1.3-9-3.22-13.48-4.91c-0.63-0.24-1.29-0.43-1.91-0.7c-0.65-0.28-1.28-0.35-1.95-0.13
		c-0.2-0.61-0.26-1.23-0.26-1.88c0.01-4.83,0-9.67,0-14.5c0-0.34-0.19-0.8,0.18-0.99c0.37-0.2,0.66,0.22,0.91,0.42
		c3.77,2.87,7.95,4.97,12.26,6.92c2.46,1.11,4.99,2.04,7.53,2.9c3.94,1.34,8,2.34,12.01,3.48c0.67,0.63,1.63,0.36,2.37,0.78
		c2.46,0.24,4.91,0.47,7.23,1.43c1.82,0.32,3.59,0.93,5.48,0.77c2.97,0.37,5.95,0.75,8.92,1.12c1,0.37,2.01,0.57,3.07,0.32
		c1.55,0,3.08,0.15,4.61,0.4c-0.2,0.34-0.67-0.02-0.84,0.23c0.7-0.2,1.5,0.1,2.24-0.15c1.63-0.04,3.24,0.18,4.84,0.39
		c-0.01,0.04-0.01,0.1-0.03,0.11c-0.11,0.03-0.13,0.1-0.08,0.09C87.11,81.92,87.7,82.11,88.27,81.9z"/>
	<path class="st7" d="M52.83,85.46c2-1.06,4.17-1.53,6.39-1.65c5.27-0.27,9.97,1.66,14.3,4.34c3.86,2.39,7.92,2.78,12.25,2.42
		c1.94-0.16,3.88-0.27,5.81-0.49c3.8-0.43,7.49-1.37,11.18-2.31c4.36-1.11,8.74-2.02,13.3-1.83c3.84,0.17,7.56,0.94,11.23,1.96
		c4.41,1.22,8.79,2.49,13.44,2.39c1.16-0.02,2.33-0.64,3.5-0.04c-2.77,1.66-5.44,3.51-8.4,4.83c-2.52,1.12-5.12,2.02-7.94,1.91
		c-2.32-0.09-4.4-1.04-6.51-1.85c-2.97-1.15-5.95-2.37-9.11-2.81c-6.02-0.85-11.9-0.61-17.35,2.65c-1.94,1.16-3.98,2.17-6.21,2.78
		c-2.97,0.81-5.71,0.35-8.48-0.83c-3.43-1.46-6.57-3.43-9.77-5.31c-5.01-2.94-10.48-4.61-16.09-5.91
		C53.85,85.6,53.33,85.54,52.83,85.46z"/>
	<path class="st7" d="M162.5,85.21c0.41-0.78,1.27-0.89,1.96-1.17c5.36-2.26,10.87-4.1,16.64-5c2.19-0.34,4.45-0.6,6.65-0.48
		c3.93,0.23,7.23-1.18,10.43-3.19c2.7-1.69,5.08-3.86,7.96-5.27c0.33,1.19,0.07,2.41,0.15,3.61c0.03,0.47-0.07,0.94,0.07,1.41
		c-0.33,2.1-0.15,4.21-0.22,6.49c-1.5-1.09-3.02-1.91-4.68-2.46c-4.76-1.6-9.08-0.24-12.02,3.82c-0.84,1.16-1.57,2.41-2.51,3.49
		c-2.22,2.58-4.89,4.39-8.5,4.03c-2.34-0.23-4.4-1.35-6.53-2.24C168.85,86.98,165.83,85.62,162.5,85.21z"/>
	<path class="st0" d="M75.84,21.61c-1.06,1-2.47,0.76-3.71,0.94c-9.31,1.38-18.46,3.43-27.26,6.81c-3.95,1.52-7.65,3.59-11.38,5.59
		c-3.38,1.81-6.76,3.58-9.96,5.71c-3.95,2.64-7.05,5.91-8.47,10.59c-0.81,2.66,0,5.33,2.19,7.04c5.78,4.53,12.39,7.45,19.27,9.9
		c8.2,2.92,16.61,4.99,25.13,6.64c4.09,0.79,8.21,1.4,12.37,1.78c4.46,0.41,8.91,1.02,13.38,1.37c1.62,0.13,3.25,0.35,4.88,0.28
		c2.4-0.1,4.78,0.24,7.17,0.28c0.5,0.19,1.03,0.09,1.54,0.09c5.08-0.05,10.15,0.14,15.23-0.1c0.24-0.01,0.48,0.02,0.67,0.19
		c-0.06,0.61-0.41,0.95-1.01,0.98c-3.66,0.19-7.32,0.53-10.98,0.02c-0.16-0.02-0.32-0.02-0.48-0.01c-5.02,0.19-9.99-0.66-15-0.79
		c-4.51-0.11-9.03-0.66-13.52-1.16c-8.37-0.94-16.66-2.35-24.85-4.34c-6.94-1.68-13.75-3.8-20.35-6.51
		c-5.18-2.12-10.11-4.74-14.46-8.32c-2.07-1.7-2.85-5.29-1.79-8.17c0.87-2.38,2-4.65,3.76-6.47c1.6-1.65,3.45-3.07,5.38-4.34
		c5.03-3.33,10.45-5.99,15.81-8.73c4.91-2.51,10.16-4.17,15.47-5.66c4.6-1.29,9.28-2.18,13.97-3.05c2.1-0.39,4.24-0.62,6.35-0.94
		C75.53,21.19,75.7,21.34,75.84,21.61z"/>
	<path class="st7" d="M16.1,80.19c0.29-0.68,0.65-0.69,1.37-0.44c5.83,2.06,11.45,4.73,17.47,6.26c2.02,0.51,4.06,0.91,6.1,1.36
		c-2.78,1.49-5.74,2.45-8.87,2.61c-3.87,0.2-7.04-1.68-10.03-3.89c-2.12-1.56-3.43-4.02-5.85-5.24
		C16.03,80.73,16.1,80.43,16.1,80.19z"/>
	<path class="st8" d="M91.92,103.74c0.05,0.14,0.18,0.33,0.01,0.42c-2.11,1.08-4.15,2.36-6.63,2.44c-0.69,0.02-1.33-0.14-2.08-0.33
		c0.89-0.77,1.99-0.93,2.97-1.33c1.52-0.19,3.01-0.55,4.47-1C91.07,103.81,91.48,103.7,91.92,103.74z"/>
	<path class="st0" d="M87.37,20.18c-1.06,0.38-2.18,0.44-3.27,0.51c-0.74,0.05-1.47,0.38-2.23,0.17c0.34-0.61,0.93-0.87,1.56-0.98
		c1.01-0.17,2.02-0.3,3.04-0.41C86.96,19.42,87.33,19.62,87.37,20.18z"/>
	<path class="st9" d="M116.89,78.72c-4.99,0.01-9.99,0.04-14.98,0.03c-0.82,0-1.67,0.15-2.46-0.21c5.42-0.01,10.84-0.02,16.27-0.02
		c0.66-0.17,1.32-0.25,1.97,0.04C117.42,78.61,117.15,78.67,116.89,78.72z"/>
	<path class="st10" d="M125.02,78.07c1.61,0.08,3.22-0.17,4.79-0.33c2.26-0.22,4.55-0.13,6.79-0.67c0.71-0.17,1.57-0.2,2.31,0.22
		c-4.35,0.33-8.7,0.66-13.05,0.98c-0.27,0.02-0.55-0.01-0.83-0.02c-0.07-0.04-0.09-0.07-0.07-0.11
		C124.98,78.09,125,78.07,125.02,78.07z"/>
	<path class="st11" d="M206.36,75.12c-0.42-1.66-0.04-3.35-0.23-5.02c0.01-0.8,0.03-1.6,0.04-2.4c0.37,0.2,0.25,0.55,0.25,0.85
		C206.41,70.74,206.38,72.93,206.36,75.12z"/>
	<path class="st12" d="M63.81,79.5c-0.82,0.62-1.67,0.08-2.46-0.04c-1.01-0.16-2.13-0.01-3.02-0.72
		C60.15,78.98,61.98,79.24,63.81,79.5z"/>
	<path class="st13" d="M117.68,78.55c-0.66-0.01-1.31-0.03-1.97-0.04c0.43-0.57,1.02-0.21,1.52-0.23c1.31-0.05,2.63,0.01,3.95,0.03
		c0,0.05,0,0.1,0,0.15C120.02,78.5,118.85,78.53,117.68,78.55z"/>
	<path class="st14" d="M120.99,82.59c-1.83-0.09-3.68,0.22-5.5-0.21c1.47-0.01,2.94-0.04,4.41-0.03
		C120.27,82.35,120.71,82.15,120.99,82.59z"/>
	<path class="st0" d="M81.36,20.89c-0.62-0.04-1,0.72-1.67,0.5c-0.05-0.54,0.17-0.97,0.67-1.13C80.87,20.09,81.12,20.52,81.36,20.89
		z"/>
	<path class="st15" d="M101,82.38c-1.73,0.43-3.49,0.11-5.23,0.21c0.03-0.59,0.43-0.29,0.7-0.29C97.98,82.32,99.49,82.35,101,82.38z
		"/>
	<path class="st16" d="M145.95,76.11c1.44-0.16,2.85-0.57,4.31-0.49C148.85,76,147.43,76.4,145.95,76.11z"/>
	<path class="st16" d="M150.24,75.64c1.34-0.28,2.62-1.07,4.06-0.5C152.93,75.18,151.63,75.76,150.24,75.64z"/>
	<path class="st4" d="M92.63,82.06c-1.27,0.01-2.52,0.54-3.86,0.19c0.64-0.37,1.39,0.15,1.95-0.37
		C91.36,81.95,92.03,81.68,92.63,82.06z"/>
	<path class="st0" d="M79.45,21.37c-0.48,0-0.96,0.01-1.44,0.01C78,21,78.05,20.68,78.56,20.67C79.06,20.66,79.4,20.82,79.45,21.37z
		"/>
	<path class="st0" d="M72.97,17.32c0.48-0.09,0.93-0.33,1.44-0.24C73.87,18.12,73.6,18.16,72.97,17.32z"/>
	<path class="st17" d="M75.8,80.94c-1.14,0.62-2.25-0.07-3.37-0.12c-0.06,0,0.19-0.13,0.3-0.2C73.75,80.72,74.78,80.83,75.8,80.94z"
		/>
	<path class="st18" d="M51.1,77.3c-0.86-0.09-1.77,0-2.5-0.61c-0.01-0.01,0.01-0.07,0.03-0.09c0.02-0.03,0.06-0.05,0.09-0.07
		C49.5,76.85,50.4,76.76,51.1,77.3z"/>
	<path class="st10" d="M121.19,78.47c-0.01-0.05-0.01-0.1,0-0.15c0.41-0.02,0.82-0.03,1.23-0.05c0.73-0.17,1.45-0.2,2.18,0.02
		C123.47,78.62,122.32,78.48,121.19,78.47z"/>
	<path class="st4" d="M96.47,82.3c-0.24,0.09-0.58-0.07-0.7,0.29c-0.4,0-0.79,0-1.2,0c0-0.34,0.42-0.22,0.47-0.47
		C95.52,82.17,96.03,81.95,96.47,82.3z"/>
	<path class="st12" d="M81.81,81.42c-0.82,0.35-1.66,0.22-2.59,0.18c0.41-0.44,0.83-0.14,1.2-0.25
		C80.87,81.37,81.34,81.39,81.81,81.42z"/>
	<path class="st0" d="M77.52,21.37c-0.4,0.09-0.8,0.17-1.19,0.26C76.56,20.75,76.95,20.64,77.52,21.37z"/>
	<path class="st19" d="M124.59,78.29c-0.73-0.01-1.45-0.02-2.18-0.02c0.83-0.55,1.74-0.1,2.61-0.2c0,0.06,0,0.12,0.01,0.18
		C124.89,78.26,124.74,78.28,124.59,78.29z"/>
	<path class="st20" d="M88.27,81.9c-0.71,0.38-1.46,0.14-2.22,0.25c0.09-0.44,0.4-0.27,0.59-0.35
		C87.19,81.84,87.73,81.87,88.27,81.9z"/>
	<path class="st21" d="M186.01,151c-0.79,0.42-1.72,0.55-2.41,1.15c-2.5,1.16-5.11,2-7.72,2.85c-0.41,0.13-0.86,0.16-1.23,0.4
		c-3.66,1.08-7.36,2.04-11.1,2.81c-0.66,0.14-1.32,0.31-2,0.35c-2.03,0.53-4.12,0.76-6.18,1.15c-0.66,0.13-1.31,0.32-1.99,0.38
		c-4.24,0.66-8.49,1.3-12.77,1.71c-3.44,0.39-6.9,0.56-10.35,0.84c-7,0.56-14.01,0.75-21.02,0.68c-4.9-0.05-9.79-0.25-14.68-0.56
		c-4.65-0.27-9.27-0.74-13.9-1.23l0.02,0.01c-4.12-0.54-8.23-1.1-12.32-1.8c-0.54-0.09-1.08-0.19-1.61-0.37
		c-0.12-0.18-0.29-0.23-0.49-0.21c-1.41,0.13-2.73-0.38-4.06-0.69c-5.52-1.26-11.04-2.52-16.39-4.4c-3.2-1.12-6.37-2.3-9.53-3.53
		c-0.18-0.07-0.37-0.16-0.47-0.35c-4.04-1.88-8.04-3.84-11.76-6.31c-1.32-0.88-2.54-1.91-3.82-2.86c-0.68-0.5-0.58-1.29-0.68-1.96
		c-0.14-0.93-0.42-1.77-0.95-2.53c-0.19-0.27-0.33-0.51-0.23-0.87c0.53-1.93-0.34-3.72-0.55-5.58c-0.35-1.59,0.05-3.24-0.37-4.83
		c-0.33-4.37-0.53-8.74-0.74-13.12c0.47-0.74,0.83-0.09,1.04,0.18c0.88,1.09,1.93,2.02,2.83,3.1c1.39,1.67,2.97,3.14,4.86,4.23
		c3.59,2.06,7.37,2.18,11.24,0.97c3.36-1.05,6.61-2.43,9.83-3.82c5.53-2.39,10.75-1.65,15.86,1.2c2.27,1.27,4.39,2.77,6.5,4.29
		c2.83,2.04,5.84,3.74,9.05,5.14c4.87,2.12,9.7,2,14.57,0.09c1.72-0.67,3.42-1.41,4.96-2.4c3.73-2.41,7.83-2.55,12.02-2.19
		c3.4,0.29,6.5,1.62,9.62,2.85c2.72,1.07,5.44,2.05,8.44,2.09c3.74,0.05,7.2-0.99,10.53-2.5c3.95-1.78,7.55-4.21,11.13-6.6
		c5.31-3.55,10.77-4.08,16.62-1.55c2.2,0.95,4.38,1.95,6.62,2.82c4.57,1.78,9.12,2.02,13.56-0.38c2.86-1.55,5.14-3.78,6.99-6.45
		c0.54-0.79,1.07-1.6,1.69-2.33c1.21-1.44,2.75-1.86,4.53-1.24c1.07,0.37,2.06,0.91,2.92,1.62c1.28,1.06,2.66,2.04,3.59,3.48
		c0.43,0.85-0.19,1.79,0.21,2.65c0.37,1.11,0.22,2.28,0.33,3.41c0.42,4.33,0.32,8.69,0.29,13.04c0,0.13-0.07,0.23-0.12,0.33
		c-0.19,0.76-0.69,1.48-0.4,2.31c0.1,0.28-0.01,0.37-0.18,0.58c-3.44,4.42-7.82,7.68-12.7,10.33c-0.07,0.04-0.12,0.1-0.18,0.15
		c-1.18,1.1-2.72,1.56-4.12,2.29C187.93,150.32,187.1,150.99,186.01,151z"/>
	<path class="st22" d="M205.68,114.75c-1.66-1.11-2.86-2.78-4.6-3.8c-0.69-0.4-1.38-0.8-2.15-1.04c-1.72-0.54-3.16-0.09-4.22,1.36
		c-1.4,1.93-2.68,3.95-4.45,5.61c-2.34,2.21-4.96,3.88-8.13,4.55c-3.43,0.73-6.73,0.16-9.94-1.12c-2.85-1.14-5.62-2.45-8.52-3.47
		c-4.92-1.74-9.38-0.85-13.68,1.84c-3.92,2.45-7.71,5.14-11.93,7.06c-3.74,1.7-7.65,2.79-11.82,2.43c-3.06-0.26-5.86-1.47-8.65-2.63
		c-4.18-1.74-8.48-2.72-13.04-2.39c-2.34,0.17-4.54,0.81-6.55,2.02c-3.56,2.14-7.34,3.69-11.48,4.17c-3.04,0.35-5.91-0.51-8.72-1.6
		c-4.59-1.79-8.47-4.73-12.46-7.51c-2.43-1.69-5-3.15-7.87-3.96c-3.71-1.05-7.28-0.65-10.85,0.82c-3.68,1.52-7.29,3.26-11.19,4.18
		c-5.05,1.2-9.49-0.03-13.19-3.64c-1.88-1.83-3.6-3.83-5.39-5.75c-0.09-0.03-0.13-0.08-0.12-0.14c0.02-0.06,0.04-0.1,0.07-0.1
		c-0.48-1.34-0.12-2.73-0.24-4.09c0.68-0.12,1,0.38,1.38,0.79c1.83,1.97,4.04,3.34,6.55,4.25c2.8,1.36,5.73,2.11,8.86,1.91
		c3.42-0.32,6.85-0.72,9.96-2.25c2.05-1.01,4.12-1.4,6.35-1.23c1.04,0.08,2.06-0.17,3.1-0.24c1.97-0.14,3.88,0.22,5.8,0.58
		c0.79,0.25,1.57,0.51,2.36,0.76c2.28,0.73,3.97,2.34,5.69,3.88c2.57,2.29,5.2,4.51,8.4,5.9c2.8,1.22,5.69,1.97,8.79,2.16
		c6.56,0.41,12.18-2.09,17.65-5.25c1.44-0.83,2.69-2.02,4.39-2.39c0.08,0,0.16-0.01,0.24-0.01c2.88-0.68,5.67-0.3,8.4,0.73
		c0.31,0.16,0.63,0.32,0.94,0.49c0.87,0.39,1.65,0.94,2.46,1.45c2.49,1.58,5.26,2.16,8.15,2.27c0.16,0.01,0.32,0.01,0.45,0.11
		c3.18,0.1,6.07-1.14,9.05-1.94c0.84-0.23,1.64-0.61,2.46-0.92c3.97-1.76,7.96-3.49,11.67-5.78c2.77-1.71,5.7-2.89,9.06-2.49
		c0.67,0.08,1.36,0.02,2.04,0.01c2.11-0.04,4.22-0.03,6.28,0.53c0.16,0.03,0.32,0.05,0.48,0.08c2.36,0.36,4.42,1.56,6.59,2.44
		c1.52,0.61,3.04,1.21,4.71,1.3c3.31,0.19,5.71-1.46,7.76-3.8c0.55-0.63,1.07-1.3,1.51-2.01c0.78-1.27,1.74-2.37,2.93-3.28
		c0.73-0.55,1.45-1.1,2.18-1.65c1.58-0.91,3.18-1.73,5.09-1c0.23,0.09,0.46,0.18,0.7,0.27c2.26,1.62,4.74,2.74,7.44,3.37
		c-0.78-0.04-0.75,0.49-0.74,1.04C205.69,109.99,205.68,112.37,205.68,114.75z"/>
	<path class="st23" d="M94.56,162.54c0.31,0.06,0.62,0.16,0.94,0.16c6.07,0.12,12.14,0.64,18.21,0.45
		c6.33-0.2,12.68-0.14,18.99-0.86c2.33-0.27,4.69-0.36,7.03-0.54c0.31-0.02,0.62-0.13,0.93-0.19c0.14,0.15,0.14,0.3,0,0.45
		c-4.67,0.49-9.36,0.68-14.04,1.04c-7.77,0.6-15.54,0.47-23.31,0.37c-3.26-0.04-6.52-0.37-9.78-0.45c-0.23-0.01-0.45-0.12-0.68-0.18
		C93.37,162.43,94.01,162.8,94.56,162.54z"/>
	<path class="st24" d="M35.79,150.2c9.61,3.97,19.59,6.7,29.73,8.9c0.23,0.05,0.48,0.05,0.72,0.07c-1.16,0.54-2.25-0.1-3.32-0.33
		c-9.1-1.91-18-4.51-26.6-8.1C36.1,150.64,35.61,150.73,35.79,150.2z"/>
	<path class="st25" d="M140.65,162.01c0-0.15,0-0.3,0-0.45c4.27-0.33,8.5-1.06,12.74-1.66c0.13,0.14,0.39,0.02,0.49,0.24
		c-2.21,0.62-4.5,0.78-6.76,1.13C144.98,161.61,142.8,161.77,140.65,162.01z"/>
	<path class="st26" d="M66.73,159.38c2.2,0.32,4.41,0.64,6.61,0.96c2.31,0.33,4.62,0.65,6.92,0.98c0.14,0.02,0.26,0.15,0.39,0.24
		c-2.97-0.06-5.89-0.61-8.82-1.05c-1.71-0.26-3.41-0.6-5.12-0.92c-0.02,0-0.05-0.06-0.05-0.09
		C66.68,159.45,66.71,159.41,66.73,159.38z"/>
	<path class="st27" d="M161.53,158.47c4.43-0.96,8.87-1.9,13.19-3.3c0.11,0.11,0.11,0.23,0.01,0.35c-3.93,1.28-7.96,2.19-12,3.09
		c-0.38,0.09-0.79,0.05-1.19,0.08c-0.07-0.05-0.09-0.09-0.07-0.14C161.48,158.49,161.5,158.47,161.53,158.47z"/>
	<path class="st28" d="M206.4,134.19c0.14-5.6-0.13-11.2-0.5-16.79c0.13-0.08,0.24-0.02,0.25,0.11c0.43,5.47,0.63,10.95,0.5,16.44
		c0,0.07-0.01,0.17-0.05,0.22C206.56,134.2,206.47,134.18,206.4,134.19z"/>
	<path class="st26" d="M94.56,162.54c-0.53,0.41-1.16,0.09-1.72,0.24c-3.99-0.11-7.94-0.7-11.9-1.05c-0.1-0.01-0.19-0.13-0.29-0.19
		c3.62,0.09,7.21,0.61,10.82,0.86C92.49,162.46,93.52,162.49,94.56,162.54z"/>
	<path class="st29" d="M16.8,111.65c0.02,0.08,0.03,0.16,0.05,0.23c0.06,2.33,0.26,4.66,0.41,6.98c0.13,2.13,0.1,4.27,0.31,6.39
		c0.1,0.26-0.02,0.31-0.25,0.27c-0.25-4.22-0.51-8.43-0.74-12.65C16.56,112.47,16.37,111.99,16.8,111.65z"/>
	<path class="st30" d="M174.72,155.52c0-0.12-0.01-0.23-0.01-0.35c3.03-0.81,5.91-2.05,8.89-3.01c-0.25,0.77-1.04,0.69-1.58,0.88
		C179.6,153.9,177.22,154.89,174.72,155.52z"/>
	<path class="st24" d="M186.01,151c2.36-1.05,4.66-2.21,6.93-3.44c0.28,0.29,0.03,0.41-0.17,0.51c-2.01,1.01-4.02,2.01-6.04,3.02
		C186.48,151.22,186.21,151.34,186.01,151z"/>
	<path class="st31" d="M161.53,158.47c0,0.07,0,0.14,0.01,0.22c-2.51,0.7-5.1,0.98-7.65,1.45c-0.16-0.08-0.33-0.16-0.49-0.24
		C156.1,159.42,158.81,158.95,161.53,158.47z"/>
	<path class="st32" d="M17.32,125.53c0.08-0.09,0.16-0.18,0.25-0.27c0.44,1.6,0.08,3.23,0.23,4.84c-0.23,0.1-0.26-0.06-0.26-0.23
		C17.55,128.42,17.51,126.97,17.32,125.53z"/>
	<path class="st33" d="M122.19,22.82c0.44,0.34,0.4,1.41,1.41,0.93c0.03-0.01,0.34,0.42,0.41,0.67c1.54,5.05,0.99,9.74-2.38,13.96
		c-4.47,5.59-11.76,6.13-17.46,2.94c-3.33-1.86-5.96-4.41-7.35-8.01c-1.63-4.25-1.02-8.14,1.94-11.72c1.93-2.33,4.09-4.1,7.12-4.66
		c1.42-0.26,2.84-0.4,4.27-0.35c0.34,0.44,0.05,0.85-0.1,1.24c-0.46,1.26-0.24,2.43,0.33,3.58c2.04,4.08,7.43,5.21,10.65,2.24
		C121.39,23.32,121.67,22.89,122.19,22.82z"/>
	<path class="st34" d="M130.29,35.97c0.49,0.35,0.71-0.18,0.99-0.35c2.45-1.47,5.64,0.23,5.77,3.11c0.17,3.93-1.88,7.41-5.68,8.83
		c-2.79,1.04-5.26,2.67-8.01,3.73c-3.47,1.35-7.02,2.22-10.75,2.54c-2.69,0.23-5.31,0.12-7.91-0.53c-2.59-0.65-4.36-2.39-5.78-4.53
		c-0.6-0.91-0.05-1.95-0.26-2.91c3.24,1.66,6.65,2.55,10.3,2.77c9.2,0.56,17.48-3.68,21.18-12.48
		C130.17,36.08,130.24,36.03,130.29,35.97z"/>
	<path class="st35" d="M122.19,22.82c-1.66,2.13-3.81,3.36-6.51,2.72c-3-0.71-5.34-2.37-6.13-5.63c-0.3-1.23,0.36-2.23,0.61-3.33
		c0.76-1.31,1.78-1.41,3.21-1.01C117.41,16.7,120.37,19.03,122.19,22.82z"/>
	<path class="st36" d="M205.61,100.84c0.04-3.5,0.08-7,0.11-10.5c0.06,0.1,0.16,0.2,0.16,0.31c0.01,4.59,0.01,9.18-0.28,13.77
		C205.61,103.22,205.61,102.03,205.61,100.84z"/>
	<path class="st37" d="M16.28,94.59c0.08,3.67,0.17,7.35,0.25,11.02c-0.46-0.62-0.36-1.38-0.39-2.05
		c-0.15-3.38-0.21-6.77-0.29-10.16c-0.01-0.25-0.1-0.54,0.14-0.78C16.34,93.25,15.91,93.98,16.28,94.59z"/>
	<path class="st38" d="M105.85,116.43c-3.86,2.47-7.73,4.94-12.09,6.46c-8.74,3.04-16.77,1.63-24.12-3.91
		c-2.32-1.75-4.27-3.95-6.71-5.57c-0.66-0.44-1.33-0.86-2-1.29c2.27,0.48,4.38,1.41,6.47,2.37c3.98,1.84,7.47,4.58,11.51,6.33
		c1.89,0.82,3.73,1.76,5.87,1.85c3.45,0.15,6.47-1.09,9.34-2.78C97.75,117.75,101.61,116.45,105.85,116.43z"/>
	<path class="st21" d="M191.02,105.59c-1.64,1.79-2.78,3.98-4.42,5.75c-3.42,3.68-6.63,4.73-11.95,2.62
		c-2.4-0.95-4.75-2.01-7.13-3.02c2.67,0.03,5.31,0.41,7.98,0.49c3.86,0.12,7.29-1.11,10.58-2.92
		C187.77,107.6,189.38,106.57,191.02,105.59z"/>
	<path class="st38" d="M167.05,110.87c-3.22-0.27-6.45-0.12-9.68-0.21c-1.94-0.06-3.69,0.44-5.39,1.3
		c-3.27,1.65-6.31,3.74-9.73,5.11c-1.4,0.56-2.77,1.22-4.26,1.53c4.14-2.45,8.02-5.32,12.38-7.42c4.93-2.37,9.96-2.43,15.09-0.82
		C166,110.52,166.53,110.7,167.05,110.87z"/>
	<path class="st38" d="M58.57,111.37c-3.77-0.4-7.55,0.04-11.32,0.01c-0.78-0.01-1.47,0.17-2.17,0.51
		c-3.7,1.79-7.55,2.95-11.72,2.62c3.97-0.76,7.57-2.58,11.35-3.9c4.15-1.44,8.22-0.91,12.29,0.24
		C57.53,111,58.05,111.19,58.57,111.37z"/>
	<path class="st38" d="M126.49,121.46c-4.27,0.4-7.9-1.04-11.06-3.83c1.74,0.26,3.32,1.02,4.94,1.65
		C122.4,120.06,124.43,120.79,126.49,121.46z"/>
	<path class="st39" d="M114.49,117.15c-2.79-0.37-5.56-0.91-8.4-0.73c1.47-0.83,3.1-1.14,4.73-1.42
		C112.62,114.69,113.42,116.16,114.49,117.15z"/>
	<path class="st40" d="M198.29,102.94c-1.8-0.19-3.41,0.55-5.09,1c0.75-0.7,1.51-1.4,2.26-2.11c0.39-0.37,0.77-0.36,1.18-0.07
		C197.19,102.16,197.74,102.55,198.29,102.94z"/>
	<path class="st0" d="M25.45,81.39c-0.73-0.18-1.58-0.51-2.23-1.19c-0.56-0.58-0.36-1.18,0.19-1.66c0.6-0.53,2.88-0.46,3.48,0.09
		c0.53,0.49,0.86,1.07,0.67,1.81C27.42,81,26.64,81.35,25.45,81.39z"/>
	<path class="st41" d="M114.59,82.78c-4.29,0-8.58,0-12.88,0c0-0.04,0-0.08,0-0.13c4.28,0,8.56,0,12.83,0
		C114.56,82.7,114.57,82.74,114.59,82.78z"/>
	<path class="st42" d="M16.26,74.98c-0.27-2.92-0.28-5.88,0-8.84C16.26,69.09,16.26,72.03,16.26,74.98z"/>
	<path class="st22" d="M35.58,145.47c-2.06,0.01-3.27-1.64-2.67-3.56c0.25-0.81,1.34-1.1,2.2-0.45c0.78,0.59,1.44,1.33,2.12,2.03
		c0.33,0.35,0.32,0.84,0.07,1.22C36.9,145.32,36.26,145.53,35.58,145.47z"/>
	<path class="st43" d="M60.25,149.42c0.77-0.16,1.27,0.31,1.85,0.35c0.43,0.03,0.89,0.12,1.29-0.12c0.92-0.56,1.72-0.38,2.28,0.48
		c0.57,0.87,0.26,1.78-0.28,2.54c-0.71,0.98-1.41,0.99-2.27,0.11C62.12,151.76,61,150.84,60.25,149.42z"/>
	<path class="st22" d="M25.18,140.91c1.71,0.02,2.76,0.79,3.19,2.15c0.19,0.59,0.03,1.01-0.36,1.4c-0.43,0.43-0.96,0.4-1.44,0.13
		c-0.62-0.35-1.23-0.71-1.91-0.97c-0.71-0.28-1.24-0.82-1.03-1.66C23.84,141.15,24.43,140.77,25.18,140.91z"/>
	<path class="st22" d="M45.85,138.78c-0.01,1.39-0.9,2.61-1.91,2.61c-1.08,0.01-1.73-1.05-1.7-2.8c0.01-0.55-0.14-1.38,0.65-1.38
		C45.67,137.24,45.86,137.39,45.85,138.78z"/>
	<path class="st22" d="M29.75,133.97c-0.84-0.44-1.91-0.66-2.93-1c-0.57-0.19-0.96-0.8-0.03-1.27c0.49-0.25,0.92-0.68,1.43-0.82
		c0.65-0.18,1.38-0.11,1.87,0.46c0.55,0.64,0.49,1.49,0.58,2.26C30.71,134.02,30.21,133.92,29.75,133.97z"/>
	<path class="st44" d="M49.5,152.41c-0.47,0-0.76-0.2-0.76-0.7c-0.01-0.53,1.01-2.4,1.31-2.35c0.83,0.13,1.38,0.64,1.51,1.46
		C51.67,151.55,50.51,152.41,49.5,152.41z"/>
	<path class="st45" d="M104.16,37.44c0.01-1.47,0.93-2.63,2.24-2.83c1.14-0.17,2.46,0.66,2.65,1.89c0.17,1.12,0.09,2.32-0.5,3.33
		c-0.48,0.82-1.39,0.9-2.24,0.68C105.47,40.31,104.15,38.32,104.16,37.44z"/>
</g>
</svg>
