<?xml version="1.0" encoding="utf-8"?>
<!-- Generator: Adobe Illustrator 23.0.2, SVG Export Plug-In . SVG Version: 6.00 Build 0)  -->
<svg version="1.1" id="Camada_1" xmlns="http://www.w3.org/2000/svg" xmlns:xlink="http://www.w3.org/1999/xlink" x="0px" y="0px"
	 viewBox="0 0 143.84 143.45" style="enable-background:new 0 0 143.84 143.45;" xml:space="preserve">
<style type="text/css">
	.st0{fill:#FEFEFE;}
	.st1{fill:#612023;}
	.st2{fill:#EC6368;}
	.st3{fill:#AD2A2F;}
	.st4{fill:#DC3B41;}
	.st5{fill:#DA3A40;}
	.st6{fill:#D45459;}
	.st7{fill:#CB4044;}
	.st8{fill:#FEFDFD;}
	.st9{fill:#BC191E;}
	.st10{fill:#DDDCDB;}
	.st11{fill:#E85058;}
	.st12{fill:#E85E64;}
	.st13{fill:#AF2A2F;}
	.st14{fill:#BC1A1F;}
	.st15{fill:#712629;}
	.st16{fill:#EE767C;}
	.st17{fill:#8F0A0E;}
	.st18{fill:#E56368;}
	.st19{fill:#EA6065;}
	.st20{fill:#632626;}
	.st21{fill:#F18188;}
	.st22{fill:#951115;}
	.st23{fill:#551013;}
	.st24{fill:#991D20;}
	.st25{fill:#F2838A;}
</style>
<g>
	<path class="st0" d="M72.19,143.34c-6.78,0.3-12.82-1.08-18.84-2.76c-5.22-1.46-10.3-3.28-15.24-5.47
		c-2.37-1.05-4.41-2.72-6.57-4.15c-3.18-2.1-5.9-4.73-8.73-7.27c-4.57-4.1-8.29-8.86-11.62-13.94c-2.32-3.53-3.94-7.44-5.65-11.3
		c-2.65-6-3.9-12.35-4.79-18.78c-0.4-2.92-0.95-5.88-0.68-8.8c0.51-5.46,0.55-10.97,2.05-16.33c1.34-4.8,2.83-9.52,5.1-13.97
		c3.04-5.96,6.78-11.42,11.07-16.58c4.63-5.57,10.44-9.62,16.33-13.55c4.1-2.74,8.61-4.78,13.37-6.26c4.42-1.37,8.85-2.7,13.43-3.28
		c5.06-0.64,10.12-1.11,15.27-0.79c6,0.38,11.69,1.89,17.39,3.56c8.44,2.48,16.04,6.58,22.83,12.14c7.11,5.82,13,12.69,17.64,20.65
		c2.47,4.23,3.98,8.84,5.56,13.41c1.5,4.34,2.56,8.8,3.26,13.33c0.49,3.19,0.6,6.42,0.27,9.66c-0.34,3.37-0.42,6.77-1.08,10.09
		c-1.27,6.32-2.4,12.7-5.14,18.6c-2.77,5.95-6.32,11.46-10.55,16.48c-2.08,2.47-4.53,4.63-6.82,6.91
		c-3.39,3.38-7.44,5.88-11.36,8.55c-2.93,2-6.27,3.04-9.53,4.32c-5.06,1.99-10.24,3.49-15.58,4.46
		C79.67,142.99,75.73,143.74,72.19,143.34z"/>
	<path d="M71.09,137.88c-14.92-1.19-29.34-5.17-41.42-15.58C14.54,109.26,6.3,92.61,5.9,72.76C5.17,35.99,34.35,5.85,71.75,5.8
		c36.64-0.05,63.68,27.84,66.29,61.92c-0.1,18.62-4.77,35.43-18.09,49.35C106.7,130.91,90.34,136.77,71.09,137.88z"/>
	<path class="st1" d="M71.72,133.26c-34.39-0.48-60.62-27.34-61.38-60.82C9.56,38.42,37.31,10.34,71.27,10.15
		c35.06-0.2,60.14,26.64,62.41,57.96C134.41,106.42,106.77,132.71,71.72,133.26z"/>
	<path class="st2" d="M23.12,87.16c-1.37-4.5-2.22-9.08-2.26-13.8c-0.03-3.66-0.11-7.34,0.54-10.96c0.64-3.55,1.52-7.05,3.14-10.32
		c1.46-2.96,2.92-5.91,4.65-8.72c1.47-2.4,3.37-4.43,5.2-6.52c4.77-5.41,10.67-9.32,17.2-12.18c4.01-1.76,8.25-3.13,12.71-3.43
		c2.92-0.2,5.79-0.85,8.74-0.79c5.54,0.12,10.82,1.38,16.05,3.13c4.54,1.52,8.72,3.65,12.63,6.37c2.06,1.44,3.86,3.2,5.7,4.9
		c0.9,0.83,2.03,1.45,2.54,2.65c-0.1,0.34-0.38,0.51-0.66,0.65c-1.54,0.76-3.05,1.57-4.56,2.4c-0.42,0.23-0.87,0.4-1.38,0.27
		c-1.01-0.47-1.62-1.41-2.41-2.13c-2.38-2.14-4.77-4.34-7.79-5.51c-3.46-1.34-6.71-3.2-10.32-4.2c-1.71-0.47-3.44-0.71-5.19-0.87
		c-3.02-0.29-6.03-0.51-9.08-0.21c-3.53,0.35-6.89,1.33-10.3,2.16c-3.4,0.83-6.34,2.59-9.31,4.32c-2.46,1.43-4.75,3.09-6.82,5.05
		c-0.79,0.75-1.49,1.57-2.16,2.4c-1.61,1.98-3.66,3.57-4.99,5.81c-2.87,4.85-5.12,9.92-6.1,15.51c-0.39,2.21-0.78,4.41-0.9,6.64
		c-0.13,2.32,0.25,4.62,0.53,6.91c0.23,1.9,0.42,3.81,0.78,5.7c0.07,0.36,0.06,0.72-0.06,1.07c-0.84,1.12-2.2,1.51-3.26,2.34
		c-0.59,0.46-1.28,0.79-1.92,1.2C23.79,87.18,23.49,87.47,23.12,87.16z"/>
	<path class="st3" d="M59.06,120.77c-1.45,0.09-2.69-0.68-3.97-1.12c-5.55-1.88-10.89-4.24-15.39-8.12
		c-1.01-0.88-1.83-1.98-2.74-2.98c0.79-0.81,1.9-0.94,2.88-1.35c1.28-0.53,2.6-0.98,3.92-1.43c0.59,0.07,1.02,0.44,1.44,0.81
		c1.94,1.7,4.3,2.7,6.5,3.98c3.18,1.85,6.62,2.82,10.06,3.75c2.67,0.73,5.46,1.23,8.26,1.31c3.28,0.1,6.5-0.21,9.76-0.8
		c6.98-1.27,13.01-4.36,18.77-8.34c4.07-2.81,6.96-6.65,10.1-10.31c0.08-0.09,0.15-0.19,0.21-0.29c1.83-3.8,4.16-7.37,5.2-11.54
		c0.71-2.87,1.54-5.71,1.6-8.69c0.01-0.32,0.09-0.63,0.34-0.87c2.01-1.04,4.13-1.84,6.21-2.73c0.29-0.12,0.59-0.26,0.9-0.03
		c-0.59,3.51-0.3,7.09-1.28,10.59c-0.79,2.8-1.14,5.76-2.29,8.45c-2.16,5.02-4.8,9.84-8.44,13.92c-3.87,4.33-8.23,8.17-13.28,11.15
		c-2.18,1.28-4.6,1.98-6.93,2.88c-2.37,0.91-4.72,1.96-7.21,2.43c-4.2,0.8-8.39,1.92-12.73,1.44c-2.04-0.23-4.07-0.61-6.08-1.04
		c-0.73-0.16-1.54,0.19-2.19-0.36c-0.09-0.08-0.25-0.11-0.29-0.2C61.51,119.5,60.28,120.21,59.06,120.77z"/>
	<path class="st4" d="M123.1,72.03c-2.3,0.97-4.6,1.93-6.9,2.9c-0.38-0.34-0.35-0.79-0.33-1.23c0.26-4.09-0.34-8.1-1.06-12.11
		c-0.71-3.98-2.48-7.48-4.36-10.96c-0.93-1.72-2.05-3.33-3.05-5.01c-0.83-1.39-2.01-2.47-3.12-3.62c-0.37-0.38-0.91-0.69-0.83-1.37
		c1.24-0.12,2.14-1,3.2-1.5c1.11-0.52,2.2-1.1,3.3-1.65c3.1,3.41,5.91,7.05,7.76,11.28c2.18,5,4.05,10.14,5.11,15.51
		C123.34,66.83,123.17,69.44,123.1,72.03z"/>
	<path class="st4" d="M43.71,105.89c-2.11,1.24-4.5,1.78-6.75,2.67c-5.28-4.31-8.82-9.86-11.49-16.05
		c-0.77-1.79-1.57-3.56-2.36-5.35c1.99-1.2,3.98-2.39,5.97-3.59c0.45-0.01,0.44,0.38,0.56,0.66c2.33,5.69,4.79,11.3,8.98,15.94
		c1.39,1.54,2.92,2.94,4.33,4.45C43.3,104.98,43.83,105.25,43.71,105.89z"/>
	<path class="st5" d="M59.06,120.77c0.48-0.79,1.42-0.76,2.12-1.13c0.38-0.2,0.61,0.14,0.76,0.51c0.2,0.46,0.47,0.89,0.71,1.34
		C61.43,121.43,60.25,121.05,59.06,120.77z"/>
	<path class="st1" d="M43.71,105.89c-1.74-1.81-3.53-3.58-5.22-5.43c-4.46-4.88-7.04-10.83-9.4-16.89c-0.24-2.2-0.5-4.4-0.84-6.58
		c-0.68-4.36-0.73-8.67,0.16-13.01c0.48-2.33,1.02-4.64,1.65-6.92c0.25-0.91,0.75-1.75,1.1-2.63c2-5.07,5.21-9.29,8.88-13.3
		c4.46-4.87,9.94-8.08,15.83-10.66c2.73-1.2,5.79-1.66,8.73-2.34c2.95-0.68,5.98-0.85,9-0.71c5.23,0.24,10.36,0.94,15.06,3.5
		c1.95,1.06,4.18,1.53,6.12,2.64c3.28,1.88,6.02,4.43,8.68,7.08c5.15,4.95,8.47,11.07,10.86,17.68c1.27,3.51,1.71,7.26,1.89,11.01
		c0.09,1.87,0.13,3.73,0,5.6c-0.46,1.04-0.34,2.17-0.48,3.25c-0.46,3.43-1.28,6.77-2.66,9.94c-0.99,2.29-2.17,4.49-3.23,6.75
		c-0.67,1.43-1.62,2.72-2.7,3.77c-2.38,2.34-4.25,5.14-6.99,7.16c-3.68,2.7-7.53,5.15-11.72,6.87c-2.71,1.11-5.57,1.96-8.55,2.49
		c-3.29,0.59-6.53,0.78-9.82,0.8c-1.76,0.01-3.44-0.51-5.17-0.69c-3.47-0.37-6.8-1.44-9.94-2.77
		C50.94,110.82,46.98,108.89,43.71,105.89z"/>
	<path class="st4" d="M56.16,101.12c-2.28-0.72-4.14-2.02-5.86-3.72c-2.24-2.22-4.36-4.51-6.24-7.05c-0.89-1.2-1.5-2.52-2.07-3.87
		c-0.28-0.84-0.41-1.71-0.34-2.59c0.24-2.9,0.15-5.82,0.73-8.69c0.25-0.54,0.77-0.78,1.24-1.07c6.3-3.82,12.66-7.56,18.98-11.34
		c1.95-0.27,3.32-1.57,4.76-2.73c2.66-1.42,5.24-2.99,7.88-4.43c0.5-0.27,0.97-0.76,1.63-0.38c0.32,0.77-0.11,1.53-0.03,2.23
		c0.43-1.84,0.76-2.01,2.19-1.1c0.26,0.42,0.37,0.89,0.57,1.33c-0.05,0.9-0.05,1.8,0.11,2.7c-0.09,0.72-0.46,0.87-1.08,0.55
		c-0.46-0.24-0.82-0.59-1.26-1.06c0.5,1.85,1.54,3.02,3.21,3.72c0.95,0.4,1.7-0.27,2.56-0.25c0.49,0.04,0.97,0.12,1.35,0.46
		c0.11,0.31-0.13,0.42-0.33,0.54c-0.29,0.17-0.77,0.23-0.62,0.72c0.13,0.42,0.56,0.37,0.92,0.4c2.91,0.23,5.73-1.33,6.9-3.83
		c1.39-2.93,0.84-5.93-1.5-8.24c0.87,1.76,0.72,3.63,0.66,5.49c-0.01,0.31-0.06,0.66-0.49,0.71c-0.29-0.22-0.33-0.55-0.31-0.86
		c0.12-2.29-1.08-3.73-3.03-4.68c-0.25-0.13-0.53-0.23-0.77-0.38c-0.54-0.54-0.96-1.21-1.65-1.59c-0.34-0.24-0.96-0.06-1.02-0.71
		c1.38-0.87,2.76-0.36,4.08-0.06c-0.01-0.02-0.12-0.06-0.23-0.11c-0.51-0.26-1.35-0.22-1.39-0.93c-0.03-0.62,0.73-0.76,1.2-1.04
		c1.75-1.04,3.6-1.9,5.38-2.91c0.41-0.23,0.84-0.48,1.34-0.47c4.76,4.1,8.03,9.23,10.33,15.02c0.83,2.08,1,4.33,1.35,6.53
		c0.66,4.14,0.19,8.24-0.69,12.31c-0.25,0.6-0.77,0.88-1.33,1.12c-4.1,1.74-8.17,3.51-12.25,5.3c-0.43,0.19-0.87,0.44-1.35,0.11
		c-0.29-1.21,0.26-2.48-0.26-3.34c0.12,1.08,0.01,2.48-0.5,3.83c-0.15,0.37-0.51,0.48-0.83,0.64c-1.85,0.78-3.66,1.64-5.51,2.44
		c-0.32,0.09-0.64,0.17-0.96,0.03c-0.78-0.86-0.81-1.35-0.15-2.36c0.73-0.34,1.55-0.03,2.29-0.28c1.73-0.43,2.56-1.65,2.89-3.3
		c0.46-1.01-0.33-1.98-0.12-2.98c0.74-0.56,1.34,0,1.98,0.26c-1.34-3.48-3.81-4.21-6.13-4.04c-0.46,0.03-0.93,0.04-0.93,0.67
		c0,0.55,0.43,0.57,0.84,0.64c0.39,0.07,0.94-0.09,0.99,0.57c-0.15,0.14-0.34,0.24-0.54,0.23c-1.54-0.08-2.78,0.6-3.89,1.57
		c-0.45,0.33-0.91,0.25-1.34-0.03c-0.63-0.42-0.93-0.15-1.13,0.48c-0.17,0.54-0.26,1.09-0.26,1.65c0,0.76-0.06,1.51-0.13,2.27
		c-0.15,1.49,0.61,2.57,1.76,3.45c0.9,0.69,2.06,0.87,2.91,1.62c-0.07,0.63-0.65,0.66-1.05,0.84c-5.77,2.55-11.53,5.12-17.31,7.65
		c-1.54,0.67-3.05,1.4-4.59,2.06C57.26,101.05,56.76,101.37,56.16,101.12z"/>
	<path class="st2" d="M93.65,45.87c-2.33,1.29-4.65,2.57-6.98,3.86c-0.27,0.15-0.54,0.31-0.93,0.53c0.83,0.6,1.87,0.67,2.51,1.62
		c-1.69-0.54-3.3-0.85-4.95-0.44c-0.19,0.19-0.42,0.2-0.66,0.17c-2.25-0.27-3.75,0.86-4.94,2.6c-0.26,0.38-0.35,0.9-0.9,1.03
		c-2.45,1.08-4.67,2.57-7.02,3.83c-0.77,0.41-1.54,0.82-2.31,1.22c-0.35-0.53,0.1-0.9,0.27-1.31c1.24-2.88,0.64-6-1.53-8.01
		c-1.41-1.31-3.09-1.73-4.95-1.62c-0.28,0.02-0.6,0.02-0.8,0.21c-1.11,1.02-2.62,1.08-3.89,1.7c-0.39-0.15-0.7-0.16-1.05,0.2
		c-1.98,2.03-2.32,6.35-0.64,8.59c0.75,1,0.9,1.01,1.72,0.13c0.25-0.27,0.5-0.52,0.92-0.44c1.29,0.82,2.79,0.61,4.2,0.86
		c0.12,0.06,0.21,0.16,0.25,0.29c-0.47,0.7-1.22,0.34-1.83,0.46c-0.43,0.06-0.94,0.07-0.87,0.69c0.07,0.6,0.6,0.5,1.01,0.55
		c0.8,0.1,1.66-0.24,2.39,0.33c-1.59,1.48-3.61,2.29-5.43,3.4c-4.34,2.66-8.74,5.23-13.12,7.83c-0.44,0.26-0.9,0.5-1.36,0.75
		c-0.35-0.31-0.32-0.72-0.26-1.12c0.67-4.3,1.22-8.63,2.93-12.7c1.36-3.21,3.33-6.01,5.69-8.54c5.52-5.92,12.33-9.82,19.85-12.62
		c2.44-0.91,4.85-1.89,7.54-1.57c2.18,0.33,4.15,1.27,6.12,2.2c2.64,1.24,5.54,1.98,7.76,4.05C92.82,45.04,93.28,45.4,93.65,45.87z"
		/>
	<path class="st3" d="M81.87,89.81c0.24-0.08,0.48-0.16,0.72-0.24c2.11-0.19,4.2-0.4,5.49-2.43c0.25-0.14,0.5-0.28,0.75-0.42
		c0.23-0.35,0.54-0.53,0.96-0.5c1.61-0.36,3.02-1.21,4.52-1.83c3.02-1.23,6.01-2.57,9-3.88c0.47-0.21,0.89-0.52,1.34-0.78
		c-0.36,2.33-1.04,4.53-2.37,6.53c-1.09,1.65-1.44,3.71-2.78,5.23c-2.47,2.8-4.9,5.61-8.12,7.64c-2.88,1.82-5.85,3.37-9.06,4.51
		c-3.15,1.12-6.4,1.39-9.7,1.54c-4.59,0.2-8.98-0.69-13.27-2.2c-1.17-0.41-2.19-1.13-3.18-1.87c3.39-1.46,6.78-2.91,10.16-4.4
		c4.79-2.12,9.56-4.27,14.35-6.41C80.96,89.88,81.35,89.7,81.87,89.81z"/>
	<path class="st3" d="M78.5,38.39c-3.76,0.1-7.12,1.65-10.48,3.08c-6.1,2.59-11.65,6.07-16.29,10.9c-4.3,4.47-7.03,9.71-8.01,15.84
		c-0.36,2.24-0.86,4.45-0.97,6.72c-0.41,1.31-0.33,2.68-0.45,4.02c-0.23,2.5-0.22,5.02-0.31,7.53c-1.72-2.77-2.93-5.7-3.12-9.01
		c-0.12-2.09-0.56-4.16-0.64-6.25c-0.12-3.11,0.6-6.12,1.3-9.13c0.53-2.27,1.47-4.34,2.62-6.34c0.99-1.66,1.95-3.35,3.24-4.81
		c1.47-1.95,3.14-3.73,4.97-5.33c1.95-1.7,4.27-2.88,6.57-4.07c3.72-1.92,7.74-2.74,11.84-3.34C72.04,37.71,75.26,38.2,78.5,38.39z"
		/>
	<path class="st6" d="M45.39,50.93c-0.93,1.7-2.01,3.3-3.24,4.81C42.85,53.88,43.82,52.2,45.39,50.93z"/>
	<path class="st7" d="M62.66,62.94c-0.87,0-1.75,0.01-2.62-0.01c-0.56-0.01-1.23,0.2-1.23-0.8c0-0.92,0.39-1.23,1.24-1.09
		c2.08,0.55,3.5,0.09,4.46-1.45c1.17-1.28,1.42-2.9,1.66-4.52c0.39,0.2,0.39,0.2,0.43,0.71c0.2-0.74-0.4-1.22-0.62-1.82
		c-0.23-0.63-0.55-1.24-1.09-1.68c-0.55-0.45-1.12-0.89-1.84-1.04c-1.45-0.58-2.87-0.74-4.3,0.08c-0.4,0.23-0.7,0.5-0.77,0.97
		c-0.45,0.66-1.06,1.2-1.39,1.94c-0.44,0.97-0.67,1.95-0.37,3.02c0.11,0.39,0.36,0.85-0.12,1.2c-0.45-0.05-0.69-0.36-0.9-0.71
		c-0.88-1.46-0.69-4.77,0.34-6.08c0.23-0.29,0.46-0.56,0.88-0.52c0.79-0.47,1.59-0.92,2.52-0.98c0.73-0.04,0.87-0.88,1.53-0.99
		c2.19-0.38,4.19-0.04,5.87,1.5c2.66,2.43,3.15,6.03,1.28,9.19c-0.08,0.13-0.09,0.3-0.13,0.45c-1.17,0.89-2.09,2.14-3.66,2.47
		C63.42,62.83,63.05,62.95,62.66,62.94z"/>
	<path class="st0" d="M86.67,53.81c2.48,0.9,3.46,2.57,3.4,5.76c0.07,1.94-1.9,3.87-4.18,4.09c-0.16-0.04-0.39-0.07-0.41-0.2
		c-0.23-1.25-1.3-1.39-2.23-1.79c-2.36-1.01-2.76-2.76-1.16-4.74c0.61-0.75,1.28-1.43,2.23-1.74c0.48-0.16,0.82-0.45,1.07-0.89
		C85.67,53.8,86.07,53.52,86.67,53.81z"/>
	<path class="st8" d="M86.94,84.08c-0.29,1.7-1.12,2.93-2.9,3.34c-0.77,0.23-1.42,0.25-1.55-0.79c-0.05-0.39-0.31-0.64-0.65-0.8
		c-1.22-0.57-2.05-1.51-1.89-2.88c0.16-1.42,1.3-2.09,2.57-2.51c0.11-0.04,0.23-0.05,0.32-0.18c-0.4-0.09-0.5-0.37-0.42-0.73
		c0.07-0.35,0.34-0.4,0.64-0.39c0.24,0.01,0.46-0.13,0.7-0.14c0.59,0.03,1.09,0.31,1.58,0.6C86.63,80.83,87.23,82.29,86.94,84.08z"
		/>
	<path class="st0" d="M62.39,80.89c-0.48,1.9-1.97,2.82-3.54,3.66c-0.42,0.21-0.85,0.14-1.01-0.28c-0.3-0.79-0.94-1.09-1.61-1.47
		c-1.72-0.99-1.74-3.08-0.04-4.15c0.88-0.55,2.02-0.75,2.34-1.99c0.06-0.23,0.47-0.25,0.73-0.32c1.79,0.29,3.37,2.05,3.41,3.8
		C62.68,80.43,62.65,80.7,62.39,80.89z"/>
	<path class="st9" d="M86,63.45c2.15-0.47,3.42-1.85,4.07-3.88c0.46-2.42,0.33-4.77-1.03-7.15c2.51,1.69,3.65,3.89,3.35,6.66
		c-0.28,2.55-1.41,4.6-3.86,5.89c-1.44,0.75-2.86,0.85-4.37,0.84c-0.49,0-0.99,0.01-1.08-0.65c-0.1-0.69,0.33-0.9,0.9-1.01
		c0.19-0.04,0.36-0.14,0.54-0.21C84.83,63.22,85.51,63.64,86,63.45z"/>
	<path class="st10" d="M86,63.45c-0.5,0.16-0.99,0.32-1.49,0.48c-0.48-0.1-0.95-0.2-1.43-0.3c-1.93-0.31-3.21-1.42-3.58-3.11
		c-0.32-0.93-0.31-1.88-0.1-2.83c-0.03-0.08-0.08-0.16-0.05-0.23c0.77-2.24,3.62-5.19,6.57-3.93c0.25,0.09,0.5,0.19,0.75,0.28
		c-0.2,0.03-0.53,0.01-0.57,0.1c-0.62,1.66-2.66,1.59-3.54,2.92c-0.5,0.75-1.28,1.37-1.15,2.4c0.18,1.49,1.34,2.1,2.53,2.38
		c0.95,0.23,1.69,0.32,1.6,1.53C85.53,63.23,85.84,63.35,86,63.45z"/>
	<path class="st9" d="M62.39,80.89c-0.04-2.28-1.01-3.66-3.04-4.3c-0.16-0.12-0.41-0.02-0.52-0.25c-0.42-0.36-0.92-0.22-1.38-0.2
		c-0.81,0.04-1.03-0.35-1.04-1.09c-0.01-0.75,0.37-0.85,0.98-0.83c0.76,0.03,1.53-0.06,2.27,0.03c3.9,0.49,6.69,5.43,4.31,9.26
		c-0.32,0.52-0.91,0.87-1.47,1.39C62.86,83.49,62.59,82.19,62.39,80.89z"/>
	<path class="st10" d="M58.83,76.34c0.17,0.08,0.35,0.16,0.52,0.25c-0.25,0.08-0.68-0.03-0.7,0.32c-0.07,1.14-0.88,1.37-1.76,1.7
		c-0.94,0.35-1.77,1-1.66,2.21c0.1,1.14,0.81,1.8,1.88,2.02c0.54,0.11,0.72,0.38,0.78,0.88c0.06,0.54,0.36,0.87,0.96,0.83
		c-0.67,0.38-1.41,0.43-2.16,0.44c-1.24,0.12-2.09-0.55-2.87-1.38c-0.74-1.03-1.22-2.15-1.02-3.45c0.17-1.1,0.6-2.06,1.66-2.59
		C55.75,76.56,57.23,76.23,58.83,76.34z"/>
	<path class="st10" d="M83.81,79.24c-0.41,0.2-1.23-0.35-1.2,0.67c0.37,0.43,0.57-0.76,0.87-0.12c0.25,0.52-0.32,0.58-0.63,0.81
		c-0.57,0.42-1.31,0.42-1.84,1.01c-1.2,1.33-1.04,2.86,0.56,3.72c0.68,0.37,1.41,0.55,1.33,1.64c-0.05,0.7,0.76,0.29,1.15,0.45
		c-0.77,0.42-1.6,0.15-2.4,0.21c-0.82,0-1.51-0.33-2.13-0.84c-1.12-1.16-1.94-2.44-1.74-4.15c0.13-0.75,0.49-1.38,0.96-1.96
		c1.17-1.48,2.76-1.83,4.53-1.7C83.55,78.84,83.76,78.87,83.81,79.24z"/>
	<path class="st11" d="M54.46,77.56c-1.75,1.88-1.75,3.88-0.41,5.97c0.14,0.34,0.3,0.67-0.02,1c-0.16,0.01-0.38-0.04-0.47,0.05
		c-1.11,1.01-1.63,0.12-2-0.7c-1.01-2.26-1.07-4.54,0.16-6.75c0.54-0.97,1.17-0.95,1.86-0.12C53.81,77.27,54.05,77.57,54.46,77.56z"
		/>
	<path class="st12" d="M78.73,80.69c-0.24,0.64-0.47,1.28-0.71,1.92c-0.12,0.11,0.04-0.02-0.08,0.08c-1.88,1.63-1.95,2.59-0.4,4.56
		c0.4,0.5,0.72,0.72,1.17,0.06c0.23-0.34,0.45-0.78,1.01-0.65c0.64,0.32,1.27,0.64,1.91,0.96c-0.43,0.78-0.46,1.52,0.23,2.18
		c-0.4,0.16-0.8,0.33-1.2,0.49c-2.24-0.69-4.54-1.57-4.87-4.18c-0.23-1.83-0.18-3.81,0.56-5.63c0.21-0.51,0.45-0.52,0.91-0.24
		C77.7,80.52,78.07,81.17,78.73,80.69z"/>
	<path class="st13" d="M76.8,55.23c0.82-1.78,1.96-3.21,3.94-3.84c0.89-0.28,1.71-0.13,2.56,0.04c0.3,0.42,0.92,0.01,1.2,0.46
		c0.35,0.64,0.21,1.22-0.55,1.15c-2.49-0.24-3.79,1.17-4.75,3.17c-0.05,0.11-0.15,0.18-0.25,0.25c-1.4-0.49-1.4-0.49-2.03,1.75
		C76.2,57.21,76.78,56.21,76.8,55.23z"/>
	<path class="st14" d="M83.81,79.24c-0.18-0.08-0.37-0.17-0.55-0.25c-0.27-0.34-0.66-0.25-1-0.22c-0.76,0.06-1.16-0.11-1.15-1.02
		c0.01-0.92,0.51-0.86,1.15-0.91c2.57-0.22,4.56,0.7,5.99,2.87c0.41,0.62,0.3,1.37,0.78,1.95c-0.84-0.25-1.48-0.87-2.36-0.73
		c-0.75-0.11-0.8-1.13-1.58-1.19C84.66,79.58,84.24,79.41,83.81,79.24z"/>
	<path class="st15" d="M78.97,56.46c0.5-2.51,2.25-3.85,4.84-3.64c0.79,0.06,0.68-0.46,0.7-0.93c0.54,0.48,1.24,0.83,1.41,1.63
		c-3.31-0.4-5.13,1.53-6.51,4.16C78.97,57.38,78.96,56.92,78.97,56.46z"/>
	<path class="st16" d="M79.5,60.52c0.73,1.57,2,2.52,3.58,3.11c-1.42,0.71-2.74,0.51-3.96-0.46c-1.37-1.08-2.01-2.33-2.01-3.97
		c0.63,0.55,1.05,1.21,1.74,1.59C79.25,61,79.43,60.96,79.5,60.52z"/>
	<path class="st17" d="M88.08,87.14c-0.08,1.22-1.06,1.7-1.96,2.05c-1.11,0.42-2.29,0.89-3.53,0.39
		C84.37,88.65,86.22,87.87,88.08,87.14z"/>
	<path class="st18" d="M54.03,84.53c0.01-0.33,0.01-0.67,0.02-1c0.76,0.71,1.66,1.15,2.64,1.45c-0.03,0.03-0.06,0.06-0.09,0.08
		c-0.43,0.35,0.16,1.23-0.52,1.3c-0.68,0.07-0.99-0.7-1.44-1.13C54.42,85.02,54.35,84.66,54.03,84.53z"/>
	<path class="st19" d="M89.79,86.22c-0.25,0.29-0.59,0.43-0.96,0.5c0.06-1.45,0.7-2.86,0.31-4.36
		C90.27,83.5,90.08,84.85,89.79,86.22z"/>
	<path class="st20" d="M85.09,79.74c0.86-0.04,1.09,0.75,1.58,1.19c0.3,1.03,0.84,2.04,0.27,3.15
		C86.98,82.35,86.4,80.89,85.09,79.74z"/>
	<path class="st0" d="M66.28,55.03c0.2,1.87-0.29,3.48-1.74,4.74c-0.29,0.68-0.93,0.8-1.54,0.95c-0.32,0.2-0.56-0.42-0.9-0.09
		c-0.04,0.08-0.11,0.14-0.19,0.19c-0.06-0.05-0.12-0.07-0.19-0.08c-0.78-1.06-1.89-1.64-2.99-2.31c-1.51-0.92-1.46-3.19-0.08-4.47
		c0.27-0.25,0.57-0.43,0.89-0.59c0.73-0.36,2.35-1.58,2.79-2.1c0.24-0.1,0.49-0.08,0.74-0.04C64.85,51.9,66.11,53,66.28,55.03z"/>
	<path class="st10" d="M62.49,51.37c-0.33,1.39-1.34,1.85-2.62,2.21c-1.3,0.36-2.13,1.83-1.99,2.94c0.14,1.13,1.07,2.09,2.41,2.31
		c0.63,0.1,0.91,0.31,0.98,0.94c0.04,0.33,0.3,0.64,0.46,0.96c-1.56,0.17-3.09,0.19-4.4-0.88c-0.56-0.34-0.99-0.76-1.05-1.46
		c-1.1-2.47-0.37-4.5,1.51-6.25C58.8,50.81,61.38,50.39,62.49,51.37z"/>
	<path class="st21" d="M56.27,58.39c0.35,0.49,0.7,0.97,1.05,1.46c-0.18,0.16-0.39,0.28-0.53,0.47c-0.93,1.31-1.01,1.33-2.01,0.13
		c-2.01-2.44-1.72-7.19,0.87-9.59c0.46-0.43,0.68-0.32,0.73,0.28C54.41,52.94,54.34,57,56.27,58.39z"/>
	<path class="st22" d="M62.91,60.54c0.54-0.26,1.08-0.52,1.63-0.77c0.15,0.7-0.46,0.93-0.85,1.17c-1.17,0.7-2.41,0.91-3.64,0.1
		c0.62-0.1,1.28,0.15,1.87-0.22c0,0,0.01-0.06,0.01-0.06C62.21,60.44,62.63,60.8,62.91,60.54z"/>
	<path class="st23" d="M62.49,51.37c-1.69-0.47-3.25-0.15-4.71,0.77c0.12-0.8,1.27-1.63,2.38-1.72c1.04-0.09,2.03,0.05,2.96,0.54
		c0.41,0.32,0.42,0.33,0.03,0.49C62.92,51.43,62.7,51.4,62.49,51.37z"/>
	<path class="st24" d="M63.14,51.45c0.22-0.18,0.05-0.33-0.03-0.49c2.2,0.61,3.72,2.75,3.54,5.02c-0.29-0.27,0-0.75-0.38-0.96
		C65.82,53.32,64.72,52.17,63.14,51.45z"/>
	<path class="st25" d="M79.73,86.67c-0.21,0.18-0.46,0.33-0.62,0.55c-1.03,1.33-1.02,1.34-1.94-0.04c-0.24-0.36-0.47-0.74-0.66-1.13
		c-0.87-1.75-0.41-2.8,1.51-3.44C77.89,84.26,78.69,85.51,79.73,86.67z"/>
	<path class="st10" d="M62.91,60.54c-0.3,0.21-0.63,0.26-0.98,0.21c0.02-0.33,0.04-0.66,0.07-1.01
		C62.53,59.83,62.34,60.6,62.91,60.54z"/>
</g>
</svg>
