<?xml version="1.0" encoding="utf-8"?>
<!-- Generator: Adobe Illustrator 23.0.2, SVG Export Plug-In . SVG Version: 6.00 Build 0)  -->
<svg version="1.1" id="Camada_1" xmlns="http://www.w3.org/2000/svg" xmlns:xlink="http://www.w3.org/1999/xlink" x="0px" y="0px"
	 viewBox="0 0 218.93 197.4" style="enable-background:new 0 0 218.93 197.4;" xml:space="preserve">
<style type="text/css">
	.st0{fill:#FEFEFE;}
	.st1{fill:#50442E;}
	.st2{fill:#997E4B;}
	.st3{fill:#BEA473;}
	.st4{fill:#D8C196;}
	.st5{fill:#EAD9BA;}
	.st6{fill:#D7C196;}
	.st7{fill:#55482D;}
	.st8{fill:#443A28;}
	.st9{fill:#443A27;}
	.st10{fill:#463C28;}
	.st11{fill:#4B3F2A;}
	.st12{fill:#16130D;}
	.st13{fill:#3F3624;}
	.st14{fill:#BAA171;}
	.st15{fill:#443926;}
	.st16{fill:#493F2C;}
	.st17{fill:#453B28;}
	.st18{fill:#15120C;}
	.st19{fill:#3A3122;}
	.st20{fill:#3D3424;}
	.st21{fill:#524730;}
	.st22{fill:#C4AA76;}
	.st23{fill:#372F20;}
	.st24{fill:#473D2A;}
	.st25{fill:#423826;}
	.st26{fill:#3F3525;}
	.st27{fill:#4B412E;}
	.st28{fill:#C9AE79;}
	.st29{fill:#403624;}
	.st30{fill:#423827;}
	.st31{fill:#493E2A;}
	.st32{fill:#1D1911;}
	.st33{fill:#423725;}
	.st34{fill:#C8AD78;}
	.st35{fill:#3A3123;}
	.st36{fill:#534731;}
	.st37{fill:#3E3424;}
	.st38{fill:#1A160F;}
	.st39{fill:#362D1C;}
	.st40{fill:#443B2A;}
	.st41{fill:#483D29;}
	.st42{fill:#3E3525;}
	.st43{fill:#473C28;}
	.st44{fill:#352C1B;}
	.st45{fill:#433928;}
	.st46{fill:#4A402D;}
	.st47{fill:#3C3322;}
	.st48{fill:#413825;}
	.st49{fill:#473D29;}
	.st50{fill:#302818;}
	.st51{fill:#4D4331;}
	.st52{fill:#403626;}
	.st53{fill:#403725;}
	.st54{fill:#423926;}
	.st55{fill:#463C29;}
	.st56{fill:#493E2B;}
	.st57{fill:#433926;}
	.st58{fill:#3B3222;}
	.st59{fill:#201B13;}
	.st60{fill:#3A311F;}
	.st61{fill:#3A3221;}
	.st62{fill:#382F1E;}
	.st63{fill:#393120;}
	.st64{fill:#3F3524;}
	.st65{fill:#433927;}
	.st66{fill:#3B3221;}
	.st67{fill:#352C1C;}
	.st68{fill:#413725;}
	.st69{fill:#3F3420;}
	.st70{fill:#403521;}
	.st71{fill:#3D3320;}
	.st72{fill:#403827;}
	.st73{fill:#2C2517;}
	.st74{fill:#3B311F;}
	.st75{fill:#3F3523;}
	.st76{fill:#392F1D;}
	.st77{fill:#3B3426;}
	.st78{fill:#2D261A;}
	.st79{fill:#463C2A;}
	.st80{fill:#403625;}
	.st81{fill:#30291C;}
	.st82{fill:#362F20;}
	.st83{fill:#3E3422;}
	.st84{fill:#382E1D;}
	.st85{fill:#312919;}
	.st86{fill:#352E21;}
	.st87{fill:#443924;}
	.st88{fill:#3B3120;}
	.st89{fill:#3D3526;}
	.st90{fill:#3A3121;}
	.st91{fill:#332B1D;}
	.st92{fill:#392F1F;}
	.st93{fill:#3C3220;}
	.st94{fill:#3E3523;}
	.st95{fill:#3A311E;}
	.st96{fill:#322A1B;}
	.st97{fill:#231D12;}
	.st98{fill:#352B1B;}
	.st99{fill:#423722;}
	.st100{fill:#695D46;}
	.st101{fill:#3B3322;}
	.st102{fill:#383022;}
	.st103{fill:#3C3323;}
	.st104{fill:#423622;}
	.st105{fill:#292317;}
	.st106{fill:#3E3423;}
	.st107{fill:#3D331F;}
	.st108{fill:#403520;}
	.st109{fill:#070604;}
	.st110{fill:#433824;}
	.st111{fill:#2F2718;}
	.st112{fill:#39301F;}
	.st113{fill:#352E20;}
	.st114{fill:#423723;}
	.st115{fill:#413621;}
	.st116{fill:#3C3321;}
	.st117{fill:#221D13;}
	.st118{fill:#826A39;}
	.st119{fill:#A0844E;}
	.st120{fill:#8E7646;}
	.st121{fill:#665636;}
	.st122{fill:#C7AD78;}
	.st123{fill:#C7AC78;}
	.st124{fill:#66573C;}
	.st125{fill:#C8AD79;}
	.st126{fill:#997F4B;}
	.st127{fill:#826939;}
</style>
<g>
	<path class="st0" d="M215.49,82.23c0.24,4.94,0.44,9.88,0.73,14.81c0.24,4.1,0.58,8.18,0.74,12.29c0.16,3.98,0.69,7.94,0.86,11.92
		c0.13,3.11,0.27,6.21,0.51,9.31c0.06,0.76,0.23,1.5,0.35,2.24c0.67,4.18,0.04,8.06-2.57,11.51c-0.69,0.92-1.73,1.4-2.58,2.13
		c-1.43,1.21-2.97,2.3-4.42,3.49c-1.14,0.93-2.41,1.53-3.87,1.77c-1.55,0.26-2.72,1.32-3.98,2.12c-7.76,4.98-15.64,9.78-23.77,14.14
		c-4.18,2.24-8.25,4.7-12.47,6.88c-4.21,2.18-8.35,4.48-12.63,6.54c-4.57,2.19-9.02,4.64-13.53,6.94c-4.12,2.1-8.3,4.1-12.39,6.26
		c-2.27,1.2-4.55,2.28-7.12,2.7c-0.97,0.16-1.88,0.22-2.84,0c-5.17-1.21-10.11-3.19-15.2-4.64c-8.97-2.56-17.95-5.1-26.99-7.4
		c-4.79-1.22-9.49-2.75-14.1-4.55c-9.43-3.68-18.88-7.31-28.38-10.83c-8.26-3.06-16.55-6.02-24.93-8.76
		c-2.78-0.91-4.84-3.05-5.71-6.04c-0.63-2.16-0.84-4.36-0.81-6.62c0.07-4.84,0.11-9.68,0-14.52c-0.5-23.23-0.03-46.46-0.31-69.69
		c-0.1-8.56-0.17-17.12,0.14-25.67c0.14-3.81,1.55-7.08,4.85-9.55c3.82-2.86,8.12-4.02,12.64-5.02c8.33-1.83,16.58-4.04,24.79-6.4
		c5.71-1.64,11.36-3.43,17.02-5.23c6.72-2.13,13.4-4.39,20.07-6.69c3.99-1.38,7.93-2.89,11.82-4.55c2.85-1.21,5.88-1.28,9.03-0.92
		c8.28,0.96,16.22,3.42,24.33,5.11c8.59,1.79,17.15,3.69,25.78,5.25c6.78,1.23,13.55,2.52,20.37,3.53
		c4.61,0.69,9.18,1.71,13.81,2.22c4.01,0.44,8.01,0.89,11.88,2.03c2.72,0.8,5.49,1.39,8.2,2.18c1.97,0.57,3.28,2.14,4.59,3.67
		c1.94,2.26,2.52,4.96,2.7,7.76c0.4,6.34,0.59,12.68,1.01,19.02c0.48,7.28,1.1,14.55,1.67,21.83c0.24,3.14,0.5,6.28,0.75,9.41
		C215.52,82.22,215.5,82.22,215.49,82.23z"/>
	<path d="M6.17,141.85c0-2.88,0.07-5.76-0.01-8.64c-0.5-17.67-0.06-35.34-0.23-53C5.8,67.89,5.78,55.57,5.86,43.26
		c0.01-2.15-0.14-4.32,0.33-6.45c0.23-1.05,0.71-2.02,1.57-2.62c2.34-1.64,4.61-3.37,7.55-3.95c6.54-1.29,12.98-3.02,19.43-4.69
		c8.58-2.22,17.08-4.72,25.52-7.43c8.17-2.63,16.33-5.29,24.4-8.2c3.14-1.13,6.3-2.24,9.32-3.69c2.03-0.98,4.14-0.49,6.23-0.28
		c8.32,0.84,16.29,3.4,24.44,5.08c9.13,1.88,18.23,3.88,27.4,5.57c10.29,1.9,20.63,3.56,30.97,5.26c3.57,0.59,7.22,0.64,10.74,1.55
		c1.2,0.31,2.38,0.68,3.57,1.03c1.3,0.39,2.56,0.88,3.94,0.95c2.57,0.14,5.01,3.43,5.11,5.86c0.13,3.11,0.3,6.22,0.48,9.34
		c0.29,5.05,0.57,10.11,0.89,15.16c0.36,5.7,0.86,11.38,1.31,17.06c0.42,5.32,0.69,10.65,0.96,15.98c0.21,4.09,0.4,8.19,0.7,12.28
		c0.37,5.09,0.54,10.18,0.95,15.26c0.34,4.17,0.45,8.35,0.73,12.52c0.11,1.66,0.33,3.32,0.74,4.95c0.74,2.96-0.45,6.07-2.86,7.86
		c-1.09,0.81-2.09,1.73-3.16,2.56c-1.15,0.9-2.23,2.01-3.81,2.11c-1.87,0.12-3.17,1.38-4.6,2.3c-7.74,4.95-15.57,9.73-23.67,14.07
		c-4.23,2.27-8.34,4.78-12.61,6.97c-4.24,2.17-8.38,4.51-12.68,6.56c-4.55,2.17-8.96,4.61-13.45,6.9c-4.13,2.11-8.28,4.2-12.45,6.22
		c-1.46,0.71-2.75,1.72-4.39,2.11c-1.4,0.33-2.71,0.19-4-0.26c-8.83-3.07-17.84-5.53-26.84-8.02c-6.58-1.83-13.27-3.27-19.74-5.44
		c-4.23-1.42-8.38-3.08-12.54-4.7c-7.39-2.89-14.82-5.7-22.25-8.49c-4.89-1.83-9.81-3.59-14.74-5.32c-3.2-1.12-6.43-2.15-9.66-3.18
		c-2.16-0.68-3.5-2.44-3.52-4.86C6.16,148.09,6.17,144.97,6.17,141.85C6.17,141.85,6.17,141.85,6.17,141.85z"/>
	<path class="st1" d="M10.23,96.31c0-11.11,0.11-21.87-0.05-32.63c-0.07-5.03-0.16-10.07-0.09-15.1c0.05-3.23,0.14-6.47,0.17-9.7
		c0.01-1.16,0.68-1.72,1.55-2.33c2.56-1.82,5.52-2.37,8.48-3c7.61-1.62,15.11-3.68,22.62-5.7c10.8-2.91,21.41-6.41,32-9.97
		c7.04-2.37,14.14-4.58,20.9-7.69c1.19-0.55,2.36,0.05,3.53,0.13c8.44,0.6,16.47,3.26,24.7,4.97c10.22,2.13,20.42,4.33,30.7,6.19
		c6.82,1.24,13.64,2.45,20.48,3.55c5.19,0.84,10.41,1.47,15.61,2.21c2.82,0.4,5.49,1.36,8.17,2.27c0.87,0.3,2.03-0.06,2.61,1.05
		c0.16,0.32,0.39,0.57,0.41,0.96c0.14,2.75,0.31,5.49,0.45,8.24c0.34,6.37,0.6,12.75,1.03,19.12c0.4,5.96,1.12,11.9,1.45,17.87
		c0.24,4.42,0.46,8.84,0.69,13.26c0.29,5.41,0.57,10.83,0.97,16.24c0.38,5.09,0.67,10.18,0.95,15.28c0.21,3.78,0.47,7.56,0.72,11.34
		c0.02,0.31,0.09,0.63,0.2,0.93c0.68,1.86,0.18,3.59-1.33,4.77c-1.2,0.93-2.35,1.92-3.54,2.85c-0.31,0.24-0.67,0.87-0.97-0.12
		c-0.17-0.57-0.62-0.05-0.85,0.1c-2.97,1.88-5.9,3.81-8.88,5.69c-6.9,4.34-13.95,8.41-21.06,12.39
		c-10.92,6.11-22.05,11.8-33.22,17.45c-5.42,2.74-10.84,5.49-16.25,8.24c-1.21,0.62-2.41,1.25-3.61,1.9
		c-0.53,0.28-1.02,0.3-1.6,0.11c-13.71-4.55-27.66-8.29-41.64-11.92c-5.77-1.5-11.28-3.78-16.82-5.93
		c-9.15-3.55-18.32-7.07-27.55-10.43c-6.3-2.3-12.6-4.61-19.01-6.56c-1.2-0.37-1.69-0.92-1.67-2.28c0.08-5.84,0.17-11.68-0.02-17.52
		C10.07,120.34,10.43,108.15,10.23,96.31z"/>
	<path class="st2" d="M108.89,97.82c-0.42,1.83-0.13,3.68-0.21,5.53c0.15,2.56,0.19,5.11-0.02,7.67c-0.08,4.89-0.34,9.77-0.21,14.66
		c0.16,3.66,0.12,7.32,0.02,10.98c-0.16,5.54,0.1,11.07,0.2,16.6c0.18,1.92,0.18,3.83,0,5.75c-0.04,2.33,0.03,4.65,0.23,6.97
		c0.2,1.52,0.19,3.04,0.01,4.56c0.12,1.76-0.24,3.54,0.22,5.28c0.19,0.95,0.25,1.9-0.03,2.84c-2.11-0.69-4.22-1.37-6.33-2.07
		c-3.71-1.22-7.4-2.47-11.11-3.68c-3.26-1.07-6.51-2.14-9.78-3.14c-3.77-1.15-7.55-2.24-11.34-3.31c-0.86-0.24-1.63-0.64-2.45-0.93
		c-0.52,0.11-0.97-0.12-1.41-0.34c-3.54-0.84-7.09-1.65-10.53-2.8c-3.07-1.03-6.2-1.89-9.15-3.29c-1.56-0.75-3.38-0.8-5.01-1.48
		c-0.31-0.13-0.49-0.37-0.77-0.49c-1.29-0.12-2.42-0.7-3.6-1.16c-4.13-1.7-8.47-2.75-12.7-4.14c-2.72-0.89-5.44-1.82-7.92-3.32
		c-0.3-0.18-0.66-0.36-1-0.38c-1.42-0.08-1.44-1.34-1.87-2.21c-0.29-0.57,0.34-0.78,0.69-1.06c-0.19-1.99-0.17-3.99-0.01-5.98
		c-0.1-0.88,0.22-1.8-0.21-2.65c-0.23-0.63-0.17-1.26-0.04-1.9c-0.09-1.52,0.26-3.07-0.22-4.58l0,0c0-1.75,0-3.49-0.02-5.24
		c0-0.34,0.11-0.72-0.22-1l0,0c0-2.95,0-5.9-0.01-8.85c0-0.35,0.09-0.73-0.2-1.02c-0.11-0.13-0.15-0.28-0.14-0.44
		c0.03-4.15-0.25-8.31-0.1-12.46c0.15-0.59,0.11-1.19,0.11-1.79c0-14.51,0-29.02,0-43.53c0-0.56,0.04-1.12-0.1-1.67
		c-0.1-1.07-0.01-2.13,0.2-3.19c0.02-0.07,0.02-0.14,0.01-0.2l0-0.01c0.45-1.28,0.15-2.6,0.2-3.9c0.07-2,0.1-2.09,2.04-1.55
		c4.02,1.12,8.05,2.18,12.12,3.11c7.36,1.69,14.68,3.54,22.01,5.38c9.91,2.49,19.8,5.03,29.7,7.55c6.97,1.77,13.94,3.53,20.91,5.29
		c2.46,0.62,4.92,1.26,7.4,1.81c0.7,0.16,0.91,0.47,0.9,1.14c-0.03,2.04-0.01,4.08-0.01,6.11c0.16,3.44,0.2,6.88-0.02,10.32
		c-0.41,1.91-0.15,3.85-0.21,5.77C109.06,93.51,109.12,95.67,108.89,97.82z"/>
	<path class="st3" d="M118.73,177.97c-0.64,0.04-1.17,0.36-1.67,0.74c-0.25,0.36-0.66,0.49-1.03,0.69
		c-0.47,0.13-0.98,0.52-0.92-0.51c0.09-1.5,0.03-3.01,0.03-4.51c0.26-1.95,0.06-3.9,0.11-5.85c0.03-1.22,0.01-2.43-0.06-3.65
		c-0.11-0.15-0.27,0.05-0.13-0.02c0.06-0.03,0.1-0.01,0.1,0.06c0.1,1.65,0.22,3.31-0.06,4.96c-0.07-0.03-0.14-0.04-0.21-0.06l0,0
		c-0.08-6.75-0.17-13.51-0.25-20.26c0-0.24,0.02-0.48-0.2-0.65l0-0.01c0.03-8.39-0.3-16.78-0.53-25.16
		c-0.16-1.11-0.14-2.22-0.02-3.33c-0.07-1.77-0.14-3.54-0.21-5.3c-0.2-1.27-0.13-2.54-0.04-3.81c-0.06-1.45-0.12-2.89-0.19-4.34
		c-0.23-1.43-0.14-2.87-0.05-4.3c0.01-1.29,0.07-2.58-0.18-3.85c-0.24-0.96-0.18-1.92-0.03-2.88c-0.09-1.21,0.16-2.45-0.2-3.64
		c-0.24-0.86-0.18-1.73-0.04-2.6c-0.07-0.98,0.13-1.97-0.2-2.93c-0.23-0.55-0.22-1.09-0.01-1.64c-0.13-1.2,0.11-2.42-0.25-3.6l0,0
		c-0.13-1.2,0.15-2.42-0.25-3.6l0,0c0.05-2.59-0.32-5.16-0.49-7.74c-0.07-1.02,0.85-1.84,0.53-2.94c-0.1-0.33,0.45-0.39,0.73-0.47
		c13.03-3.94,25.65-9.01,38.33-13.93c0.56-0.22,1.12-0.4,1.69-0.59c0.36,0.34,0.39,0.79,0.35,1.22c-0.52,5.53-0.5,11.09-0.87,16.62
		c-0.17,2.63-0.18,5.27-0.21,7.9c-0.06,4.87-0.26,9.74-0.34,14.62c-0.17,9.87-0.01,19.74-0.26,29.61
		c-0.3,11.95-0.04,23.9-0.19,35.85c-0.01,0.75,0.15,1.53-0.38,2.19c-0.82,0.8-2.01,0.97-2.88,1.68c-0.5,0.43-1.04,0.8-1.71,0.9
		c-3.04,1.62-6.07,3.23-9.11,4.85c-0.61,0.51-1.3,0.86-2.01,1.19c-4.62,2.23-9.03,4.88-13.57,7.25c-0.18,0.26-0.43,0.39-0.73,0.43
		c-0.48,0.28-0.96,0.55-1.45,0.83C119.43,177.65,118.98,177.67,118.73,177.97z"/>
	<path class="st3" d="M161.26,77.15c-0.01-0.08-0.03-0.15-0.06-0.22c-0.21-0.8,0.02-1.63-0.19-2.42c0.22-1.18,0.13-2.36,0.14-3.55
		c-0.04-0.1-0.07-0.2-0.1-0.31c-0.03-1.34-0.07-2.68-0.1-4.02c-0.22-0.32-0.21-0.64-0.02-0.96c-0.32-0.86-0.07-1.77-0.21-2.64
		c-0.34-0.55-0.18-1.14-0.15-1.72c-0.03-0.64-0.06-1.27-0.09-1.91c-0.12-0.47-0.13-0.94,0-1.4c-0.08-0.49-0.16-0.98-0.23-1.47
		c-0.14-0.47-0.14-0.94,0-1.41c-0.08-0.33-0.15-0.66-0.23-0.99c-0.14-0.39-0.15-0.79,0.01-1.18c-0.08-0.33-0.16-0.65-0.24-0.98
		c-0.18-0.54-0.11-1.09-0.04-1.64c-0.29-1.52,1.13-1.06,1.76-1.5c2.42-1.03,4.83-2.06,7.42-2.62c0.36,0.06,0.67-0.08,0.97-0.27
		c1.25-1.03,2.72-1.49,4.3-1.67c1.34-0.22,2.52-0.91,3.76-1.39c4.91-1.91,9.8-3.88,14.69-5.82c0.58,0.54,0.42,1.26,0.42,1.92
		c0.01,6.67,0.01,13.35,0.01,20.02c0,19.62-0.07,39.24,0.04,58.86c0.04,7.07-0.16,14.13-0.04,21.2c-4.79,2.26-9.59,4.5-14.37,6.81
		c-1.39,0.67-2.69,1.53-4.03,2.31c-0.72,0.26-1.35,0.74-2.14,0.81c-1.3,0.7-2.59,1.4-3.89,2.11c-0.39,0.41-0.86,0.65-1.42,0.71
		c-1.52,0.8-3.03,1.62-4.56,2.41c-0.38,0.2-0.78,0.35-1.18,0.52c-0.43-0.41-0.32-0.95-0.34-1.46c-0.06-1.5,0.11-3.02-0.11-4.52
		c0.06-1.39,0.1-2.77,0.1-4.16c0.04-0.06,0.08-0.12,0.12-0.19c0.07,0,0.13-0.01,0.2-0.02c0.27-2.32,0.2-4.63,0.04-6.95
		c0-2.47,0-4.94,0-7.41c0.06-0.08,0.12-0.15,0.19-0.22c-0.13-3.32-0.03-6.64-0.06-9.96c-0.01-0.68,0.02-1.36-0.13-2.03
		c-0.02-7.62-0.02-15.25,0-22.87c0.29-2.37,0.07-4.74,0.14-7.12c0.02-0.63-0.09-1.27,0.14-1.89c0.05-0.15,0.04-0.24,0.01-0.08
		c0,0.02-0.07,0.03-0.11,0.04c-0.11,0-0.21-0.04-0.29-0.12c-0.06-0.11-0.1-0.22-0.12-0.34c-0.03-1.34-0.03-2.68,0-4.02
		c0.25-1.32,0.12-2.65,0.13-3.97C161.33,77.35,161.3,77.25,161.26,77.15z"/>
	<path class="st4" d="M54.17,47.08c-0.77-0.58-1.76-0.28-2.59-0.62c-0.3-0.2-0.68-0.11-1-0.26c-0.32-0.15-0.64-0.3-0.96-0.45
		c-0.84,0.06-1.63-0.15-2.39-0.48c-2.23-0.58-4.41-1.28-6.77-1.47c-1.5-0.12-3.08-0.52-4.53-1.16c-0.44,0.16-0.81-0.04-1.19-0.24
		c-1.76-0.33-3.53-0.66-5.29-0.98c-0.33-0.03-0.69,0.05-0.95-0.25c-0.66-0.15-1.32-0.29-1.98-0.44c1.53-0.69,3.17-1,4.77-1.47
		c7.51-2.21,14.98-4.55,22.43-6.95c5.21-1.67,10.43-3.32,15.64-4.98c0.69-0.22,1.41-0.24,2.08-0.52c7.39,2.1,14.86,3.93,22.34,5.69
		c9.33,2.19,18.67,4.33,28.03,6.39c7.8,1.72,15.64,3.3,23.45,4.95c0.07,0.01,0.12,0.1,0.18,0.15c-0.19,0.36-0.57,0.41-0.9,0.54
		c-9.08,3.67-18.24,7.13-27.29,10.87c-3.8,1.57-7.62,3.11-11.5,4.5c-0.92,0.55-1.62-0.31-2.42-0.45c-2.21-0.38-4.36-1.12-6.57-1.52
		c-4.11-0.74-8.04-2.18-12.13-2.96c-4.41-0.85-8.71-2.1-13.04-3.29c-2.49-0.68-4.88-1.69-7.4-2.24c-0.23-0.05-0.47-0.04-0.7-0.06
		c-0.54-0.15-1.11-0.16-1.65-0.32c-2.23-0.65-4.38-1.53-6.67-1.99C54.85,47.19,54.51,47.19,54.17,47.08z"/>
	<path class="st4" d="M154.02,40.9c-2.9-0.69-5.79-1.38-8.69-2.07c-11.61-2.75-23.24-5.41-34.9-7.94
		c-10.3-2.23-20.61-4.39-30.92-6.59c-0.07-0.02-0.14-0.08-0.2-0.12c0.88-0.62,1.96-0.58,2.94-0.88c5.73-1.77,11.46-3.53,17.21-5.22
		c1.04-0.31,2.04-0.26,3.07-0.05c12.34,2.55,24.75,4.67,37.16,6.8c10.83,1.86,21.68,3.68,32.51,5.55c1.22,0.21,2.45,0.35,3.67,0.59
		c0.38,0.08,0.9,0.05,0.99,0.52c0.11,0.57-0.46,0.69-0.84,0.85c-3.33,1.35-6.67,2.7-10.04,3.96C161.98,37.8,158,39.33,154.02,40.9z"
		/>
	<path class="st5" d="M193.05,139.05c-0.53-0.12-0.36-0.55-0.36-0.88c-0.01-3.88,0-7.76,0-11.63c-0.01-29.71-0.02-59.42-0.04-89.13
		c0-0.12-0.02-0.24-0.03-0.36c1.3-0.56,2.59-1.13,3.89-1.69c0.34-0.14,0.66-0.21,0.75,0.29c-0.03,0.88,0.65,1.55,0.72,2.41
		c0.31,1.04,0.31,2.09,0,3.13c-0.2,1.84,0.14,3.69-0.22,5.52c0.19,0.31,0.19,0.63,0.01,0.94c0.03,0.15,0.07,0.31,0.1,0.46
		c0.14,2.36,0.05,4.71,0.05,7.07c0.02,5.15,0.01,10.31,0,15.46c0,0.52,0.05,1.04-0.1,1.55c-0.01,0.05,0,0.1,0.02,0.14
		c0.11,0.42,0.09,0.84,0.04,1.27c0.03,1.36,0.06,2.71,0.09,4.07c0.08,0.55,0.18,1.11,0.01,1.66c0.08,1.21,0.15,2.41,0.23,3.62
		c0.13,0.55,0.13,1.1,0,1.66c0.08,1.13,0.16,2.26,0.24,3.39c0.13,0.63,0.14,1.26-0.01,1.9c0.27,0.48-0.08,0.98,0.06,1.46
		c0.51,0.66,0.17,1.42,0.27,2.13c-0.02,0.4,0.06,0.8-0.06,1.2c0.07,0.49,0.13,0.98,0.2,1.47c0.16,0.72,0.17,1.43,0,2.15
		c0.02,0.4,0.03,0.81,0.05,1.21c0.57,0.64,0.18,1.41,0.3,2.12c0,0.46-0.01,0.92,0.01,1.38c0.48,0.97,0.04,2.02,0.26,3.02
		c0.19,0.7,0.06,1.41,0.1,2.11c0.02,0.09,0.04,0.19,0.07,0.28c0.08,0.87,0.26,1.73,0.16,2.61c0.05,0.97-0.19,1.96,0.23,2.89
		c0.05,0.05,0.09,0.1,0.14,0.15c0.31,0.92-0.1,1.9,0.28,2.81c-0.09,1.67,0.54,3.3,0.23,4.98c0.01,0.05,0.01,0.1,0.01,0.15
		c0.07,0.26,0.08,0.52,0.04,0.78c0.02,0.08,0.04,0.15,0.06,0.23c0.15,0.47,0.1,0.95,0.05,1.42c0.06,0.49,0.12,0.97,0.19,1.46
		c0.19,0.38,0.03,0.79,0.12,1.18c0.36,0.7,0.24,1.43,0.11,2.16c-0.03,0.25-0.13,0.52,0.1,0.74c0.46,0.44,0.21,0.94,0.13,1.42
		c0.04,0.09,0.07,0.17,0.11,0.26c0.42,0.53,0.24,1.1,0.11,1.67c-0.09,0.27-0.15,0.53,0.13,0.73c0.08,0.01,0.12,0.04,0.12,0.09
		c0,0.06-0.01,0.09-0.03,0.09c-0.14,0.6-0.19,1.26-0.93,1.49c-0.31,0.12-0.6,0.3-0.95,0.26
		C197.75,137.01,195.4,138.03,193.05,139.05z"/>
	<path class="st5" d="M154.02,40.9c-0.23-0.42,0.11-0.42,0.36-0.52c6.58-2.54,13.16-5.08,19.74-7.63c0.88-0.34,1.73-0.72,2.58-1.31
		c-2.17-0.36-4.33-0.7-6.5-1.07c-4.34-0.75-8.68-1.51-13.03-2.26c-4.97-0.85-9.94-1.69-14.91-2.54c-4.38-0.75-8.77-1.49-13.15-2.26
		c-6.1-1.08-12.2-2.17-18.29-3.28c-2.15-0.39-4.32-0.73-6.42-1.31c-2.35-0.65-4.56-0.52-6.88,0.24c-5.42,1.76-10.9,3.33-16.34,5.01
		c-0.64,0.2-1.27,0.08-1.89,0.21c-3.25-0.72-6.54-1.29-9.75-2.23c-0.16-0.16-0.19-0.31,0.04-0.44c2.03-0.48,4.01-1.13,5.94-1.92
		c0.89-0.37,1.82-0.59,2.72-0.93c1.7-0.53,3.49-0.81,4.98-1.88c1.38-0.34,2.66-1.03,4.09-1.22c1.01-0.32,2.07-0.55,3.02-0.99
		c1.46-0.68,2.91-0.51,4.4-0.26c0.23-0.14,0.45-0.19,0.66,0.04c0.69,0.41,1.5,0.22,2.23,0.42c0.31-0.11,0.62-0.19,0.91,0.06
		c1.91,0.52,3.88,0.71,5.83,1.02c2.39,0.39,4.78,0.75,7.17,1.12c0,0,0,0,0,0c1.37,0.22,2.74,0.44,4.11,0.66
		c0.4-0.04,0.81-0.24,1.17,0.12c2.56,0.44,5.12,0.9,7.69,1.33c1.6,0.27,3.21,0.49,4.81,0.74c0.23-0.11,0.45-0.19,0.64,0.06
		c2.55,0.65,5.17,0.91,7.75,1.38c2.07,0.38,4.15,0.66,6.23,0.99l0,0c1.77,0.3,3.54,0.61,5.31,0.91c0.31-0.08,0.62-0.18,0.91,0.07
		c2.48,0.67,5.05,0.88,7.57,1.36c1.71,0.33,3.45,0.53,5.17,0.78c0.46,0.28,1-0.04,1.46,0.21c4.07,0.63,8.14,1.24,12.2,1.93
		c0.66,0.11,1.29,0.33,1.97,0.24l0.01,0c0.52,0.29,1.11,0.15,1.66,0.26c0.23-0.18,0.45-0.2,0.67,0.02c2.06,0.63,4.22,0.73,6.32,1.17
		c0.97,0.2,1.96,0.35,2.95,0.47c0.44,0.05,0.72,0.23,0.89,0.67c-2.57,0.85-5.14,1.69-7.69,2.55c-0.31,0.1-0.71,0.07-0.9,0.43
		c-0.23,0.2-0.51,0.2-0.78,0.21c-2.95,1.03-5.9,2.04-8.84,3.11c-1.51,0.55-3.11,0.86-4.48,1.76c-0.44,0.15-0.86,0.4-1.35,0.35
		c-0.71,0.09-1.31,0.45-1.93,0.75c-0.47,0.39-1.04,0.51-1.63,0.55c-1.07,0.64-2.45,0.55-3.4,1.47c-0.3,0.1-0.61,0.17-0.92,0.17
		c-0.56,0.23-1.1,0.29-1.7,0.06C156.29,41.32,155.07,41.43,154.02,40.9z"/>
	<path class="st5" d="M151.14,160.22c0.01-11.79-0.13-23.59,0.08-35.38c0.14-7.99-0.04-15.98,0.23-23.97
		c0.16-4.63,0.04-9.27,0.21-13.89c0.21-5.62,0.34-11.25,0.48-16.87c0.13-5.1,0.44-10.19,0.7-15.29c0.05-0.87,0.27-1.73,0.2-2.62
		c0.56-0.25,1.12-0.49,1.68-0.74c0.69,0.07,0.84,0.65,0.79,1.12c-0.17,1.65,0.19,3.29-0.03,4.93c0,0.56,0,1.11,0,1.67
		c0.12,0.63,0.2,1.26-0.05,1.87c-0.26,0.64-0.14,1.31-0.19,1.97c0.13,0.72,0.19,1.44-0.03,2.16c-0.23,0.79-0.17,1.6-0.18,2.41
		c0.09,0.72,0.16,1.43-0.04,2.14c-0.07,1.21-0.13,2.41-0.2,3.62c0.09,0.47,0.12,0.94-0.02,1.41c-0.34,5.56-0.28,11.14-0.42,16.7
		c-0.03,1.07-0.03,2.15-0.05,3.22c0.26,0.4,0.19,0.85,0.19,1.28c0.01,6.91,0,13.81,0,20.72c0,0.43,0.07,0.88-0.18,1.29
		c0.06,6.46,0.1,12.92,0.19,19.38c0.05,3.47,0.17,6.93,0.27,10.4c0.14,0.87,0.13,1.75,0,2.62c0.07,1.52-0.05,3.05,0.19,4.56
		c0.28,0.99,0.09,2,0.12,3c0.02,0.47-0.42,0.6-0.71,0.83C153.3,159.25,152.22,159.73,151.14,160.22z"/>
	<path class="st5" d="M71.45,26.82c-0.93,0.85-2.19,0.86-3.29,1.23c-5.44,1.79-10.91,3.49-16.37,5.24
		c-7.88,2.53-15.79,4.94-23.73,7.26c-0.49,0.14-1.02,0.13-1.53,0.19c-1.13,0.1-2.24-0.12-3.28-0.48c-1.11-0.38-2.23-0.62-3.39-0.71
		c-0.27,0.02-0.46-0.09-0.54-0.36c0.09-0.41,0.44-0.54,0.75-0.7c2.05-1.12,4.02-2.36,6.06-3.5c0.76-0.43,1.6-0.65,2.38-1.01
		c0.16-0.09,0.32-0.17,0.47-0.26c0.53-0.33,1.14-0.36,1.74-0.43c1.23-0.18,2.4-0.56,3.56-1.01c0.37-0.2,0.73-0.48,1.18-0.24
		c1.36-0.4,2.72-0.8,4.08-1.2c0.22-0.2,0.52-0.21,0.78-0.33c0.49-0.15,0.99-0.21,1.48-0.33c2.82-0.64,5.55-1.55,8.32-2.39
		c0.18-0.29,0.51-0.27,0.77-0.4c0.95-0.31,1.91-0.61,2.89-0.81c1.02-0.04,1.93-0.42,2.82-0.87c0.27-0.4,0.76-0.06,1.07-0.33
		c0.39,0.08,0.76,0.06,1.05-0.27c0.2-0.23,0.48-0.22,0.75-0.23c3.19-1.4,5.95,0.63,8.89,1.14C69.4,26.17,70.42,26.54,71.45,26.82z"
		/>
	<path class="st5" d="M105.77,59.91c0.65-0.96,1.8-0.96,2.73-1.33c11.81-4.75,23.64-9.46,35.47-14.16c0.48-0.19,0.99-0.28,1.49-0.42
		c0.85,0.11,1.7,0.22,2.55,0.32c0.6-0.03,1.19-0.02,1.68,0.39c0.63,0.69-0.15,0.68-0.44,0.8c-1.84,0.75-3.7,1.44-5.55,2.17
		c-7.56,2.99-15.15,5.89-22.59,9.17c-2.98,1.31-6,2.54-8.99,3.83c-0.43,0.19-0.84,0.21-1.28,0.16l0,0
		c-0.44-0.31-0.97-0.11-1.43-0.28c-0.41,0.05-0.83,0.08-1.23-0.06c-0.22-0.05-0.48,0.07-0.66-0.17
		C106.99,59.98,106.33,60.16,105.77,59.91z"/>
	<path class="st6" d="M28.5,33.96c-2.7,1.55-5.4,3.11-8.09,4.66c-0.34,0.2-0.68,0.39-1.02,0.59c-0.06,0.11-0.15,0.18-0.27,0.23
		c-0.62-0.12-1.27-0.01-1.88-0.23l0.04,0.01c-0.18-0.04-0.2-0.11-0.04-0.21c-0.52-0.43-1.2-0.08-1.78-0.37
		c-0.3-0.15-0.55-0.25-0.64-0.58c-0.23-0.44-0.15-0.77,0.34-0.95c1.21-0.09,2.37-0.42,3.51-0.82c0.21-0.26,0.47-0.2,0.73-0.11
		c2.61-0.65,5.21-1.3,7.82-1.95C27.64,34.12,28.07,34.05,28.5,33.96z"/>
	<path class="st7" d="M13.88,100.68c0,4.31,0,8.63,0.01,12.94c0,0-0.04,0.05-0.04,0.05c-0.08,0.1-0.16,0.09-0.23-0.01
		c0-1.68,0-3.36,0-5.04c-0.21-0.37-0.11-0.78-0.11-1.17c-0.01-18.18-0.01-36.35,0-54.53c0-0.39-0.1-0.8,0.11-1.18
		c0.06-0.41-0.16-0.87,0.25-1.2c0.01,1.05,0.01,2.09,0.02,3.14c0.16,0.34,0.09,0.71,0.09,1.06c0,14.96,0,29.93,0,44.89
		C13.98,99.97,14.05,100.34,13.88,100.68z"/>
	<path class="st8" d="M13.62,51.74c0,18.96,0,37.92,0,56.88c-0.39-0.35-0.23-0.82-0.23-1.24c-0.01-18.13-0.01-36.26,0-54.39
		C13.39,52.56,13.23,52.09,13.62,51.74z"/>
	<path class="st9" d="M161.46,85.82c0.07,0.01,0.14,0.03,0.22,0.05c0.31,1,0.14,2.03,0.13,3.04c-0.02,1.93,0.16,3.86-0.1,5.78
		c0,7.76,0,15.52,0,23.28c0.26,1.14,0.09,2.29,0.11,3.43c0.03,2.46,0.02,4.92,0,7.38c0,0.39,0.12,0.8-0.13,1.16
		c-0.07,0.02-0.14,0.04-0.21,0.07c0,0-0.03-0.07-0.03-0.07c-0.2-0.42-0.1-0.86-0.1-1.29c-0.01-4.77-0.01-9.54-0.01-14.31
		c-0.07-0.86,0.14-1.74-0.12-2.59c0-3.68,0-7.36,0-11.04c0.23-0.41,0.12-0.86,0.12-1.29c0.01-4.14,0-8.28,0.01-12.41
		C161.35,86.6,161.25,86.2,161.46,85.82z"/>
	<path class="st10" d="M197.84,72.19c-0.31-2.74-0.1-5.48-0.13-8.22c-0.05-4.91-0.02-9.81,0-14.72c0-0.38-0.15-0.8,0.17-1.14
		c0.42,0.28,0.3,0.71,0.3,1.09c0.01,7.31,0.01,14.61,0,21.92C198.18,71.5,198.28,71.93,197.84,72.19z"/>
	<path class="st11" d="M154.32,117.97c0-7.76-0.01-15.52-0.01-23.28c0.94-0.09,0.4,0.62,0.41,0.89c0.04,5.35,0.03,10.69,0.03,16.04
		c0,1.76,0.01,3.51-0.01,5.27C154.73,117.27,154.96,117.8,154.32,117.97z"/>
	<path class="st12" d="M168.9,46.21c-2.42,1.02-4.9,1.87-7.42,2.62c1.51-1.13,3.34-1.55,5-2.34c0.46-0.22,0.94-0.42,1.42-0.6
		C168.31,45.72,168.76,45.5,168.9,46.21z"/>
	<path class="st13" d="M161.44,114.14c0,5.26,0,10.53,0.01,15.79c-0.41-0.35-0.22-0.82-0.22-1.23c-0.01-4.86-0.01-9.71,0-14.57
		C161.3,114.02,161.37,114.03,161.44,114.14z"/>
	<path class="st14" d="M155.49,57.52c-0.1-1.55-0.2-3.09-0.28-4.64c-0.03-0.52,0.02-1.05-0.47-1.41c0.39-0.25,0.81-0.42,1.21-0.42
		c0,0.9,0,1.75,0,2.61l0,0C155.49,54.91,155.9,56.26,155.49,57.52z"/>
	<path class="st15" d="M161.46,85.82c0,4.58,0.01,9.17,0,13.75c0,0.38,0.13,0.81-0.23,1.12c0-4.96,0-9.92,0-14.88
		c0.04-0.03,0.08-0.07,0.12-0.1c0.04,0.03,0.09,0.06,0.13,0.08L161.46,85.82z"/>
	<path class="st16" d="M200.73,121.86c-0.32-1.66-0.4-3.35-0.41-5.04c-0.2-0.91-0.06-1.83-0.09-2.74c0.03-0.06,0.07-0.13,0.1-0.19
		c0.59,0.94,0.14,2,0.36,3.01c0.29,1.34,0.26,2.74,0.36,4.12C201.08,121.34,201.07,121.67,200.73,121.86z"/>
	<path class="st17" d="M160.98,144.37c0-4.14,0-8.29,0-12.43c0.08,0,0.17,0,0.25,0c0,4.15,0,8.3,0,12.45c0,0,0.01,0,0.01,0
		C161.15,144.49,161.06,144.48,160.98,144.37z"/>
	<path class="st18" d="M103.82,11.92c-1.47-0.01-2.91-0.22-4.32-0.67c1.81-0.4,3.54,0.24,5.3,0.43
		C104.61,12.29,104.18,11.97,103.82,11.92z"/>
	<path class="st19" d="M108.47,136.66c-0.01-3.66-0.01-7.32-0.02-10.98C108.81,129.34,108.78,133,108.47,136.66z"/>
	<path class="st20" d="M109.13,85.58c0.01-3.44,0.01-6.88,0.02-10.32c0.03,0.03,0.08,0.05,0.08,0.08c0.23,3.38,0.26,6.77-0.02,10.15
		C109.21,85.53,109.16,85.56,109.13,85.58z"/>
	<path class="st21" d="M160.98,144.37c0.09,0,0.17,0.01,0.26,0.01c0,1.44,0,2.88,0,4.32c0.16,1.92,0.15,3.84,0.01,5.76
		c-0.24,0.03-0.38-0.09-0.37-0.33c0.04-2.21-0.14-4.42,0.1-6.63C160.98,146.47,160.98,145.42,160.98,144.37z"/>
	<path class="st22" d="M115.12,169.87c0-1.69,0-3.39,0-5.08c0.08,0,0.15,0,0.23,0c0,3.1,0,6.19-0.01,9.29c0,0.1-0.12,0.19-0.19,0.29
		C115.14,172.87,115.13,171.37,115.12,169.87z"/>
	<path class="st23" d="M174.16,44.26c-1.43,0.56-2.87,1.12-4.3,1.67c-0.08-0.07-0.16-0.13-0.24-0.2c0.07-0.7,0.71-0.6,1.13-0.8
		c0.6-0.29,1.18-0.64,1.84-0.81c0.38-0.1,0.68-0.48,1.13-0.3C173.87,43.97,174.01,44.12,174.16,44.26z"/>
	<path class="st24" d="M197.98,41.18c0-1.04,0-2.09,0-3.13c0.17-0.08,0.43-0.6,0.44,0.08c0.01,1.65,0,3.3,0,5.15
		C197.95,42.5,198.45,41.75,197.98,41.18z"/>
	<path class="st25" d="M160.97,147.51c0,1.94,0,3.88,0.01,5.81c0,0.38-0.11,0.8,0.19,1.13c0.19,0.12,0.16,0.29,0.08,0.46
		c-0.22,0.05-0.52,0.22-0.51-0.19c0.01-2.35,0.04-4.69,0.07-7.04C160.82,147.63,160.92,147.57,160.97,147.51z"/>
	<path class="st26" d="M108.66,111.02c0.01-2.56,0.01-5.11,0.02-7.67c0.5,1.38,0.18,2.8,0.19,4.19
		C108.88,108.7,109.18,109.89,108.66,111.02z"/>
	<path class="st27" d="M87.32,15.55c-1.31,0.56-2.62,1.15-4.09,1.22C84.53,16.12,85.78,15.34,87.32,15.55z"/>
	<path class="st28" d="M161.48,137.42c0.5,1.54,0.15,3.12,0.2,4.67c0.02,0.75,0.29,1.57-0.24,2.28
		C161.45,142.06,161.46,139.74,161.48,137.42z"/>
	<path class="st29" d="M114.9,169.81c0,2.14,0,4.27,0,6.41C114.82,174.08,114.34,171.94,114.9,169.81
		C114.91,169.81,114.9,169.81,114.9,169.81z"/>
	<path class="st30" d="M13.62,113.65c0.08,0,0.15,0,0.23,0.01c0,2.14,0,4.28,0,6.42c-0.08,0-0.15,0-0.23,0
		C13.62,117.94,13.62,115.8,13.62,113.65z"/>
	<path class="st31" d="M114.45,148.9c0,2.15,0,4.3,0,6.45C114.36,153.19,113.83,151.03,114.45,148.9
		C114.45,148.88,114.45,148.9,114.45,148.9z"/>
	<path class="st20" d="M108.89,97.82c0.01-2.16,0.02-4.31,0.03-6.47C109.27,93.51,109.31,95.67,108.89,97.82z"/>
	<path class="st32" d="M172.74,44.28c-1.08,0.39-2.12,0.88-3.12,1.45c-0.72-0.32-0.07-0.56,0.09-0.62c0.92-0.35,1.75-0.93,2.75-1.09
		C172.73,43.93,172.78,44.06,172.74,44.28z"/>
	<path class="st33" d="M37.62,155.95c1.27,0.16,2.41,0.72,3.6,1.16C39.83,157.3,38.67,156.79,37.62,155.95z"/>
	<path class="st34" d="M161.26,154.92c-0.03-0.15-0.05-0.3-0.08-0.46c0.02-1.92,0.04-3.84,0.06-5.75c0.47,1.14,0.13,2.34,0.21,3.51
		c0.06,0.83,0.01,1.67,0.02,2.5C161.4,154.78,161.33,154.85,161.26,154.92z"/>
	<path class="st35" d="M14.81,138.86c0,1.99,0,3.99,0.01,5.98C14.43,142.85,14.44,140.86,14.81,138.86z"/>
	<path class="st36" d="M161.24,74.28c-0.02,0.88-0.03,1.76-0.05,2.64c-0.44-0.6-0.11-1.29-0.22-1.93c-0.23-1.24-0.06-2.49-0.1-3.73
		c-0.01-0.23,0.1-0.36,0.35-0.37C161.43,72.03,161.38,73.15,161.24,74.28z"/>
	<path class="st37" d="M108.67,159.01c0-1.92,0-3.83,0-5.75C109.05,155.18,109.06,157.09,108.67,159.01z"/>
	<path class="st9" d="M114.59,159.33c0,1.65,0,3.3,0,4.95c-0.04,0-0.08,0-0.12,0c0-1.66,0-3.32,0-4.98
		C114.52,159.3,114.55,159.31,114.59,159.33z"/>
	<path class="st38" d="M103.82,11.92c0.33-0.07,0.72,0.1,0.98-0.24c0.96,0.16,1.92,0.31,2.89,0.47c0.06,0.05,0.08,0.1,0.07,0.16
		c-0.02,0.05-0.04,0.08-0.06,0.08C106.39,12.39,105.1,12.2,103.82,11.92z"/>
	<path class="st39" d="M199.85,111.02c-0.15-0.86-0.42-1.72-0.16-2.61C200.07,109.26,200.4,110.11,199.85,111.02z"/>
	<path class="st40" d="M53.77,26.56c-0.91,0.54-1.92,0.76-2.94,0.96c-0.06-0.05-0.08-0.11-0.07-0.17c0.02-0.06,0.04-0.09,0.06-0.09
		C51.73,26.7,52.72,26.52,53.77,26.56z"/>
	<path class="st41" d="M161.22,85.82c-0.53-1.17-0.12-2.41-0.23-3.62c-0.05-0.47-0.01-0.95-0.01-1.43c0.17-0.07,0.28-0.02,0.35,0.14
		C161.28,82.55,161.48,84.19,161.22,85.82L161.22,85.82z"/>
	<path class="st10" d="M160.92,65.66c0.01,0.32,0.01,0.64,0.02,0.96c-0.44,0.81-0.02,1.72-0.26,2.55
		C160.32,67.88,160.43,66.24,160.92,65.66z"/>
	<path class="st42" d="M108.91,170.53c0-1.52-0.01-3.04-0.01-4.56C109.29,167.49,109.28,169.01,108.91,170.53z"/>
	<path class="st25" d="M161.19,70.93c-0.44,1.34-0.09,2.72-0.21,4.07c-0.35-1.46-0.45-2.91,0.07-4.35c0.06,0.01,0.12,0.03,0.18,0.05
		c0.06,0.06,0.08,0.12,0.05,0.17C161.24,70.91,161.21,70.93,161.19,70.93z"/>
	<path class="st29" d="M113.42,102.64c0.02,1.43,0.03,2.87,0.05,4.3C113.05,105.51,113.12,104.07,113.42,102.64z"/>
	<path class="st43" d="M154.37,158.76c0.7-0.44,0.58-1.14,0.57-1.81c-0.01-0.68,0.01-1.35,0.02-2.03c0.52,1.05,0.2,2.16,0.21,3.24
		C155.18,158.58,154.71,158.65,154.37,158.76z"/>
	<path class="st44" d="M199.62,108.13c-0.29-0.7-0.09-1.44-0.19-2.16c0.04,0,0.09,0,0.13,0
		C200.05,106.68,199.99,107.4,199.62,108.13z"/>
	<path class="st45" d="M13.88,50.33c-0.55-1.26-0.11-2.55,0-3.83C13.88,47.77,13.88,49.04,13.88,50.33
		C13.88,50.32,13.88,50.33,13.88,50.33z"/>
	<path class="st23" d="M174.17,43.32c0.71-0.31,1.43-0.63,2.14-0.94c0.05,0.09,0.1,0.19,0.14,0.28c-0.66,0.33-1.28,0.75-2.03,0.91
		C174.34,43.49,174.19,43.46,174.17,43.32z"/>
	<path class="st46" d="M163.4,40.03c0.51-0.28,1.03-0.54,1.63-0.55c0.15,0.01,0.31,0.02,0.46,0.04
		C164.82,39.8,164.24,40.47,163.4,40.03z"/>
	<path class="st47" d="M161.21,80.77c-0.07,0-0.15,0-0.22,0c0.16-1.2-0.34-2.46,0.27-3.62c0.06,0.02,0.12,0.04,0.19,0.05
		c0.08,0.12,0.09,0.25,0.05,0.38C161.31,78.64,161.74,79.75,161.21,80.77z"/>
	<path class="st48" d="M113.65,111.28c0.01,1.27,0.03,2.54,0.04,3.81C113.31,113.82,113.36,112.55,113.65,111.28z"/>
	<path class="st49" d="M160.55,61.3c0.38,0.54,0.13,1.14,0.15,1.72c-0.15,0.03-0.39,0.39-0.4,0.16
		C160.3,62.56,160,61.86,160.55,61.3z"/>
	<path class="st50" d="M199.57,105.97c-0.04,0-0.09,0-0.13,0c-0.4-0.94,0.05-1.94-0.22-2.88l0.07-0.01
		C199.93,103.99,199.53,105,199.57,105.97z"/>
	<path class="st25" d="M135.43,168.83c0.54-0.61,1.27-0.92,2.01-1.19c0.11,0.05,0.42,0.1,0.25,0.2
		C136.97,168.25,136.3,168.78,135.43,168.83z"/>
	<path class="st51" d="M78.26,18.64c-0.8,0.63-1.78,0.72-2.72,0.93C76.35,18.97,77.27,18.71,78.26,18.64z"/>
	<path class="st52" d="M14.1,123.5c0,1.11,0,2.22,0,3.33C13.98,125.72,13.61,124.6,14.1,123.5C14.1,123.5,14.1,123.5,14.1,123.5z"/>
	<path class="st53" d="M172.52,148.97c0.68-0.37,1.32-0.82,2.14-0.81C174.02,148.64,173.45,149.29,172.52,148.97z"/>
	<path class="st9" d="M113.9,120.39c0.01,1.11,0.01,2.22,0.02,3.33C113.56,122.62,113.6,121.51,113.9,120.39z"/>
	<path class="st54" d="M167.2,151.78c0.43-0.32,0.89-0.59,1.42-0.71c0.1,0.04,0.2,0.08,0.3,0.12
		C168.4,151.54,167.97,152.14,167.2,151.78z"/>
	<path class="st55" d="M146.55,162.8c0.53-0.38,1.09-0.71,1.71-0.9c0.09,0.05,0.19,0.09,0.28,0.14
		C147.9,162.36,147.4,163.02,146.55,162.8z"/>
	<path class="st56" d="M47.23,45.28c0.8,0.16,1.59,0.32,2.39,0.48C48.73,46.05,47.94,45.87,47.23,45.28z"/>
	<path class="st57" d="M117.15,62.95c-0.35,0.45-0.76,0.75-1.47,0.73C116.11,63.11,116.63,63.03,117.15,62.95z"/>
	<path class="st58" d="M112.97,89.66c0.01,0.87,0.02,1.73,0.04,2.6c-0.01,0.04-0.01,0.08-0.03,0.11c-0.04,0.05-0.09,0.09-0.14,0.14
		C112.76,91.55,112.53,90.59,112.97,89.66z"/>
	<path class="st42" d="M109.1,178.66c0.01-0.95,0.02-1.89,0.03-2.84c0.5,0.93,0.21,1.91,0.17,2.87c0,0.01-0.07,0.03-0.1,0.02
		C109.17,178.71,109.13,178.68,109.1,178.66z"/>
	<path class="st59" d="M174.17,43.32c0.08,0.08,0.17,0.17,0.25,0.25c-0.23,0.09-0.47,0.17-0.7,0.26c-0.33,0.15-0.65,0.3-0.98,0.46
		c-0.09-0.09-0.18-0.17-0.27-0.26C172.96,43.6,173.58,43.5,174.17,43.32z"/>
	<path class="st60" d="M30.71,33.27c-0.58,0.14-1.16,0.28-1.74,0.43C29.42,33.01,30.04,33.02,30.71,33.27z"/>
	<path class="st61" d="M113.21,95.9c0.01,0.96,0.02,1.92,0.03,2.88C112.82,97.83,112.86,96.87,113.21,95.9z"/>
	<path class="st62" d="M41.8,30.16c-0.46,0.33-0.99,0.42-1.54,0.43c-0.05-0.04-0.07-0.08-0.05-0.12c0.02-0.04,0.04-0.06,0.06-0.06
		C40.72,29.97,41.24,29.99,41.8,30.16z"/>
	<path class="st63" d="M61.85,49.08c0.6-0.16,1.14-0.02,1.65,0.32C62.89,49.64,62.36,49.39,61.85,49.08z"/>
	<path class="st64" d="M112.76,85.08c0,0.55,0.01,1.1,0.01,1.64c-0.1,0.24,0.09,0.56-0.26,0.81
		C112.61,86.68,112.23,85.85,112.76,85.08z"/>
	<path class="st65" d="M154.78,150.37c0-0.87,0-1.75,0-2.62C155.11,148.62,155.11,149.49,154.78,150.37z"/>
	<path class="st66" d="M198.69,93.5c-0.06-0.72-0.12-1.43-0.18-2.15c0.82,0.59,0.19,1.45,0.38,2.15
		C198.83,93.6,198.76,93.61,198.69,93.5z"/>
	<path class="st67" d="M199.15,101.66c-0.06-0.72-0.12-1.43-0.19-2.15c0.88,0.58,0.22,1.45,0.41,2.16
		C199.29,101.76,199.22,101.76,199.15,101.66z"/>
	<path class="st15" d="M161.44,114.14c-0.07,0-0.15-0.01-0.22-0.01c0-0.8,0-1.6,0-2.4C161.71,112.5,161.37,113.34,161.44,114.14z"/>
	<path class="st68" d="M201.32,129.25c-0.06-0.72-0.12-1.44-0.19-2.16c0.04,0,0.09-0.01,0.13-0.01
		C201.72,127.79,201.66,128.52,201.32,129.25z"/>
	<path class="st42" d="M14.34,129.74c0,0.7,0,1.39,0,2.09C14.19,131.13,13.89,130.42,14.34,129.74
		C14.34,129.74,14.34,129.74,14.34,129.74z"/>
	<path class="st46" d="M17.24,39.2c0.64-0.05,1.27-0.13,1.89,0.1c-0.12,0.5-0.42,0.31-0.71,0.2C18.02,39.42,17.54,39.69,17.24,39.2z
		"/>
	<path class="st69" d="M149.69,44.71c-0.56-0.13-1.12-0.26-1.68-0.39C148.69,43.93,149.23,44.17,149.69,44.71z"/>
	<path class="st70" d="M108.18,60.4c0.41,0.06,0.82,0.11,1.23,0.17c-0.4,0.42-0.81,0.4-1.23,0.03c-0.08-0.04-0.11-0.09-0.08-0.13
		C108.13,60.42,108.15,60.4,108.18,60.4z"/>
	<path class="st71" d="M166.96,38.73c0.43-0.21,0.85-0.43,1.35-0.35C167.95,38.84,167.53,39.08,166.96,38.73z"/>
	<path class="st72" d="M197.9,73.6c-0.31-0.41-0.26-0.84-0.04-1.27C198.32,72.74,198.33,73.16,197.9,73.6z"/>
	<path class="st73" d="M198.91,98.29c0-0.72,0-1.43,0-2.15C199.26,96.86,199.29,97.57,198.91,98.29z"/>
	<path class="st74" d="M155.21,65.18c0.01-0.72,0.02-1.44,0.03-2.16C155.59,63.75,155.62,64.47,155.21,65.18z"/>
	<path class="st75" d="M154.99,69.73c0.01-0.71,0.02-1.43,0.04-2.14C155.32,68.31,155.36,69.02,154.99,69.73z"/>
	<path class="st76" d="M155.43,61.06c0.02-0.62,0.03-1.25,0.05-1.87c0.4,0.6,0.19,1.26,0.15,1.9c0,0.01-0.07,0.03-0.1,0.03
		C155.5,61.11,155.47,61.08,155.43,61.06z"/>
	<path class="st77" d="M197.99,79.33c0-0.55-0.01-1.11-0.01-1.66C198.12,78.22,198.66,78.77,197.99,79.33z"/>
	<path class="st78" d="M107.7,12.38c0-0.08,0-0.16-0.01-0.24c0.49,0.11,0.99,0.21,1.72,0.37C108.66,12.62,108.16,12.77,107.7,12.38z
		"/>
	<path class="st29" d="M54.17,47.08c0.34-0.07,0.68-0.2,1.02,0.02C54.84,47.53,54.5,47.58,54.17,47.08z"/>
	<path class="st79" d="M18.42,39.49c0.25-0.01,0.52,0.04,0.71-0.2c0.09-0.03,0.17-0.06,0.26-0.09c0.15,0.11,0.31,0.22,0.46,0.33
		C19.37,39.83,18.89,39.87,18.42,39.49z"/>
	<path class="st30" d="M34.75,42.41c0.45-0.19,0.78,0.22,1.19,0.24C35.47,42.92,35.02,43.12,34.75,42.41z"/>
	<path class="st80" d="M197.26,35.64c-0.25-0.1-0.5-0.19-0.75-0.29c0.05-0.35,0.25-0.5,0.57-0.34
		C197.35,35.14,197.55,35.33,197.26,35.64z"/>
	<path class="st81" d="M198.45,89.88c0-0.63,0-1.26,0.01-1.9C198.77,88.62,198.8,89.25,198.45,89.88z"/>
	<path class="st82" d="M197.78,47.64c-0.11-0.31-0.1-0.63-0.01-0.94C198.41,47.01,198.42,47.32,197.78,47.64z"/>
	<path class="st83" d="M28.5,41.17c0.31,0.12,0.68,0,0.95,0.25c-0.33,0.33-0.64,0.33-0.96-0.02c-0.01-0.05-0.01-0.11-0.02-0.16
		L28.5,41.17z"/>
	<path class="st37" d="M14.56,134.31c0.01,0.63,0.03,1.27,0.04,1.9C14.19,135.59,14.23,134.96,14.56,134.31z"/>
	<path class="st80" d="M112.27,77.89c0,0.54,0,1.09,0,1.63C112.1,78.97,111.82,78.41,112.27,77.89
		C112.27,77.89,112.27,77.89,112.27,77.89z"/>
	<path class="st84" d="M200.09,113.91c0-0.47,0-0.94,0-1.41c0.08,0,0.17-0.01,0.25-0.01c0,0.47,0,0.93,0,1.4c0,0,0,0,0,0
		C200.26,114,200.18,114,200.09,113.91L200.09,113.91z"/>
	<path class="st85" d="M66.66,165.18c0.47,0.11,0.94,0.23,1.41,0.34C67.49,165.88,67.06,165.59,66.66,165.18z"/>
	<path class="st86" d="M198.22,84.6c0-0.55,0-1.1,0-1.66C198.53,83.5,198.54,84.05,198.22,84.6z"/>
	<path class="st87" d="M93.23,13.66c-0.57,0.2-0.94,0.16-1.33,0C92.27,13.66,92.63,13.66,93.23,13.66z"/>
	<path class="st88" d="M59.46,24.85c-0.17,0.32-0.5,0.14-0.75,0.23C58.81,24.48,59.08,24.49,59.46,24.85z"/>
	<path class="st89" d="M200.9,124.45c-0.02-0.47-0.03-0.95-0.05-1.42C201.08,123.49,201.29,123.96,200.9,124.45z"/>
	<path class="st90" d="M159.72,50.33c0.16,0.54,0.06,1.09,0.04,1.64C159.41,51.43,159.45,50.88,159.72,50.33z"/>
	<path class="st91" d="M118.73,177.97c0.12-0.5,0.58-0.5,0.95-0.64C119.57,177.86,119.14,177.9,118.73,177.97z"/>
	<path class="st92" d="M159.07,41.67c0.25-0.34,0.61-0.16,0.92-0.17C159.73,41.8,159.47,42.11,159.07,41.67z"/>
	<path class="st93" d="M181.63,33.51c0.19-0.33,0.52-0.15,0.78-0.21C182.27,33.81,182.01,33.89,181.63,33.51z"/>
	<path class="st94" d="M112.51,81.48c0,0.47,0,0.94,0,1.4C112.32,82.41,112.07,81.92,112.51,81.48
		C112.51,81.48,112.51,81.48,112.51,81.48z"/>
	<path class="st95" d="M201.78,133.34c-0.04-0.56-0.07-1.11-0.11-1.67C202.27,132.19,202.12,132.76,201.78,133.34z"/>
	<path class="st26" d="M154.78,74.76c0.01-0.47,0.01-0.94,0.02-1.41C155.08,73.82,155.1,74.3,154.78,74.76z"/>
	<path class="st37" d="M160.47,57.99c0,0.47,0,0.94,0,1.4C160.15,58.93,160.14,58.46,160.47,57.99z"/>
	<path class="st68" d="M155.94,53.66c0.37,0.35,0.25,0.76,0,1.18C155.94,54.44,155.94,54.05,155.94,53.66
		C155.94,53.66,155.94,53.66,155.94,53.66z"/>
	<path class="st96" d="M201.56,131.41c-0.04-0.47-0.09-0.95-0.13-1.42C201.98,130.41,201.88,130.9,201.56,131.41z"/>
	<path class="st97" d="M199.15,101.66c0.07,0,0.15,0,0.22,0.01c-0.03,0.47-0.05,0.95-0.08,1.42c0,0-0.08,0.01-0.08,0.01
		C198.96,102.62,199.08,102.14,199.15,101.66z"/>
	<path class="st42" d="M35.45,32.02c-0.39,0.08-0.79,0.16-1.18,0.24C34.58,31.79,34.96,31.63,35.45,32.02z"/>
	<path class="st98" d="M40.26,30.41c0,0.06,0,0.12-0.01,0.18c-0.17,0.28-0.48,0.17-0.72,0.24C39.6,30.37,39.9,30.35,40.26,30.41z"/>
	<path class="st99" d="M178.51,27.72c0.35-0.36,0.76-0.24,1.17,0C179.3,27.73,178.91,27.73,178.51,27.72
		C178.52,27.73,178.51,27.72,178.51,27.72z"/>
	<path class="st92" d="M50.82,27.26c0,0.08,0.01,0.17,0.01,0.25c-0.16,0.3-0.49,0.14-0.72,0.26C50.11,27.28,50.44,27.24,50.82,27.26
		z"/>
	<path class="st100" d="M164.34,25.56c-0.49-0.07-1,0.05-1.46-0.21C163.37,25.38,163.91,25.14,164.34,25.56z"/>
	<path class="st101" d="M160.23,55.11c0,0.47,0,0.94,0,1.41C159.91,56.05,159.9,55.58,160.23,55.11z"/>
	<path class="st102" d="M200.79,122.79c-0.31-0.24-0.29-0.51-0.04-0.78C201.1,122.25,201.16,122.51,200.79,122.79z"/>
	<path class="st103" d="M116.03,179.4c0.23-0.39,0.63-0.54,1.03-0.69C116.96,179.3,116.5,179.35,116.03,179.4z"/>
	<path class="st104" d="M110.84,60.84c-0.27,0.33-0.6,0.3-1.17,0.1C110.2,60.89,110.52,60.87,110.84,60.84
		C110.84,60.84,110.84,60.84,110.84,60.84z"/>
	<path class="st105" d="M198.69,93.5c0.07,0,0.14,0,0.21,0c-0.05,0.39,0.15,0.82-0.18,1.17C198.58,94.28,198.63,93.89,198.69,93.5z"
		/>
	<path class="st106" d="M17.24,39.01c0.03,0.07,0.05,0.13,0.04,0.21c-0.34,0.02-0.69,0.11-1.04-0.06
		C16.56,38.91,16.91,39.06,17.24,39.01z"/>
	<path class="st107" d="M108.18,60.4c0,0.07,0,0.13,0,0.2c-0.27,0-0.54,0.02-0.81,0.01c-0.15,0-0.18-0.09-0.07-0.19
		c0.05-0.05,0.14-0.05,0.22-0.08C107.75,60.3,107.97,60.23,108.18,60.4z"/>
	<path class="st69" d="M95.4,14.33c-0.22,0.05-0.45,0.1-0.66-0.04c0.21-0.31,0.54-0.24,0.83-0.22c0.15,0.01,0.16,0.1,0.04,0.19
		C95.56,14.3,95.48,14.31,95.4,14.33z"/>
	<path class="st70" d="M98.54,14.81c-0.3-0.02-0.6-0.04-0.91-0.06C97.95,14.48,98.26,14.35,98.54,14.81z"/>
	<path class="st108" d="M111.53,16.95c0.27-0.33,0.6-0.3,1.16-0.1C112.16,16.89,111.85,16.92,111.53,16.95
		C111.53,16.95,111.53,16.95,111.53,16.95z"/>
	<path class="st109" d="M69.61,21.5c-0.01,0.15-0.03,0.3-0.04,0.44c-0.17,0.21-0.46,0.14-0.49-0.01
		C68.99,21.55,69.43,21.66,69.61,21.5z"/>
	<path class="st110" d="M116.81,17.73c-0.39-0.04-0.78-0.08-1.17-0.12C116.06,17.35,116.46,17.24,116.81,17.73z"/>
	<path class="st90" d="M160.01,52.94c0,0.39,0,0.79-0.01,1.18C159.68,53.73,159.66,53.33,160.01,52.94z"/>
	<path class="st104" d="M143.93,22.23c0.27-0.33,0.6-0.3,1.17-0.1C144.57,22.17,144.25,22.2,143.93,22.23
		C143.93,22.23,143.93,22.23,143.93,22.23z"/>
	<path class="st111" d="M57.67,25.35c-0.24,0.49-0.7,0.26-1.07,0.33C56.83,25.17,57.29,25.39,57.67,25.35z"/>
	<path class="st108" d="M180.85,28.01c-0.22-0.01-0.45-0.01-0.67-0.02c0.2-0.33,0.53-0.25,0.83-0.24c0.14,0,0.18,0.09,0.06,0.19
		C181.01,27.98,180.92,27.98,180.85,28.01z"/>
	<path class="st106" d="M202,134.25c-0.03-0.06-0.06-0.12-0.09-0.18c0.53,0.21,0.31,0.61,0.19,0.97
		C202.06,134.78,202.03,134.51,202,134.25z"/>
	<path class="st112" d="M28.48,41.24c0.01,0.05,0.02,0.11,0.02,0.16c-0.31,0-0.62,0-1,0C27.85,41.04,28.18,41.25,28.48,41.24z"/>
	<path class="st113" d="M201.27,127.08c-0.04,0-0.09,0-0.13,0.01c-0.15-0.39-0.09-0.79-0.05-1.19
		C201.44,126.25,201.28,126.68,201.27,127.08z"/>
	<path class="st114" d="M150.14,23.2c-0.3-0.02-0.6-0.05-0.91-0.07C149.56,22.89,149.87,22.75,150.14,23.2z"/>
	<path class="st115" d="M129.95,19.86c-0.21-0.02-0.43-0.04-0.64-0.06c0.19-0.26,0.47-0.22,0.73-0.21c0.09,0,0.26-0.03,0.2,0.14
		C130.21,19.79,130.05,19.81,129.95,19.86z"/>
	<path class="st116" d="M19.41,36.17c-0.24,0.04-0.49,0.07-0.73,0.11C18.85,35.77,19.1,35.8,19.41,36.17z"/>
	<path class="st106" d="M200.11,135.99c0.28-0.23,0.59-0.36,0.95-0.26C200.79,135.97,200.55,136.37,200.11,135.99z"/>
	<path class="st68" d="M121.13,176.51c0.24-0.14,0.49-0.28,0.73-0.43C121.77,176.5,121.6,176.76,121.13,176.51z"/>
	<path class="st117" d="M15.16,37.11c-0.21,0.28-0.31,0.6-0.34,0.95C14.47,37.58,14.39,37.19,15.16,37.11z"/>
	<path class="st94" d="M50.58,46.21c0.38-0.09,0.76-0.19,1,0.26C51.23,46.42,50.84,46.57,50.58,46.21z"/>
	<path class="st118" d="M24.1,76.65c2.18,0.17,4.27,0.67,6.37,1.07c5.97,1.14,11.92,2.32,17.88,3.53
		c5.58,1.13,11.05,2.66,16.56,4.07c2.02,0.52,3.94,1.43,6.08,1.57c0.62,0.04,1.22,0.53,1.83,0.82c0.25,0.12,0.32,0.33,0.26,0.6
		c-1.33,6.67-0.99,13.43-0.83,20.15c0.12,4.87-0.08,9.75,0.22,14.6c0.29,4.79-0.06,9.59,0.24,14.37c0.22,3.55-0.04,7.11,0.24,10.65
		c0.2,2.44-0.65,4.41-1.86,6.36c-1.04,1.67-1.06,1.73-2.89,0.96c-5.12-2.13-10.55-3.35-15.7-5.42c-5.36-2.16-10.96-3.67-16.49-5.33
		c-2.97-0.89-6.07-1.4-8.89-2.73c-2-0.94-4.22-1.49-5.92-3.03c-0.54-0.49-0.73-0.9,0.18-1.11c0.72-0.16,0.38-0.71,0.38-1.06
		c0.02-7.16-0.17-14.32,0.07-21.47c0.28-8.31-0.06-16.62,0.24-24.92c0.16-4.37,0.05-8.75,0.58-13.1
		C22.78,76.18,23.66,76.95,24.1,76.65z"/>
	<path class="st119" d="M13.88,100.68c0-15.67,0-31.34,0-47.01c0.37,0.37,0.21,0.83,0.21,1.25c0.01,14.83,0.01,29.67,0,44.5
		C14.09,99.85,14.25,100.31,13.88,100.68z"/>
	<ellipse class="st120" cx="99.89" cy="152.2" rx="0.07" ry="4.19"/>
	<path class="st121" d="M20.23,144.66c-0.54-0.88-0.35-1.56-0.25-2.49C20.51,143.05,20.36,143.73,20.23,144.66z"/>
	<path class="st122" d="M161.69,129.94c0.01-3.99,0.01-7.98,0.02-11.97c0.22,0.16,0.24,0.4,0.24,0.64c0,3.94,0,7.87,0,11.86
		c-0.11-0.09-0.2-0.13-0.21-0.18C161.7,130.18,161.7,130.06,161.69,129.94z"/>
	<path class="st123" d="M161.7,94.69c-0.01-2.94-0.02-5.88-0.03-8.82c0.03-0.26,0.06-0.52,0.08-0.78c0.06,0.01,0.12,0.01,0.18,0.02
		c0,3.02,0,6.04-0.01,9.06C161.93,94.35,161.78,94.52,161.7,94.69z"/>
	<path class="st124" d="M161.21,80.77c0.13-1.12-0.2-2.27,0.21-3.37c0.3,1.27,0.17,2.56,0.07,3.84c-0.01,1.52-0.01,3.04-0.02,4.56
		c-0.08,0-0.17,0.01-0.25,0.01C161.22,84.13,161.21,82.45,161.21,80.77z"/>
	<path class="st125" d="M161.49,81.24c-0.02-1.28-0.05-2.56-0.07-3.84c0.02-0.06,0.03-0.13,0.02-0.2c0.55,0.37,0.24,0.93,0.23,1.38
		C161.65,79.47,161.95,80.38,161.49,81.24z"/>
	<path class="st28" d="M161.19,70.93c0.02-0.08,0.04-0.15,0.04-0.23c0.44,1.19,0.34,2.39,0.02,3.59
		C161.23,73.16,161.21,72.05,161.19,70.93z"/>
	<path class="st1" d="M200.08,113.91c0.09-0.01,0.17-0.01,0.26-0.02c-0.01,0.98-0.01,1.95-0.02,2.93
		C199.85,115.88,200.29,114.87,200.08,113.91z"/>
	<path class="st126" d="M24.9,116.14c0-6.52,0.12-13.04-0.04-19.56c-0.1-4.35-0.1-8.7-0.24-13.05c-0.05-1.51-0.18-3.02-0.2-4.53
		c-0.01-0.67,0.12-0.96,0.9-0.69c9.77,3.33,19.89,5.33,29.91,7.74c4.6,1.11,9.22,2.13,13.84,3.15c1.03,0.23,1.54,0.59,1.48,1.81
		c-0.28,5.78-0.44,11.56-0.59,17.34c-0.08,2.95,0,5.91-0.18,8.85c-0.31,5.23-0.02,10.47-0.28,15.69
		c-0.31,6.31-0.06,12.62-0.19,18.93c-0.03,1.29-0.08,1.33-1.27,0.91c-8.95-3.15-17.93-6.22-26.96-9.13
		c-4.96-1.6-9.96-3.11-14.96-4.58c-0.96-0.28-1.24-0.67-1.23-1.63C24.92,130.3,24.9,123.22,24.9,116.14
		C24.9,116.14,24.9,116.14,24.9,116.14z"/>
	<path class="st127" d="M30.31,89.51c0.14,0.06,0.28,0.13,0.43,0.18c4.55,1.59,9.17,2.99,13.78,4.4c5.3,1.62,10.56,3.34,15.83,5.02
		c0.34,0.11,0.67,0.25,1.02,0.34c2.18,0.59,2.24,0.62,1.1,2.62c-2.9,5.11-7.23,7.91-13.2,7.98c-0.36,0-0.72-0.02-1.08,0.01
		c-0.55,0.04-0.71,0.31-0.66,0.88c0.17,1.9,0.33,3.8,0.39,5.71c0.17,5.22,0.57,10.43,0.48,15.66c-0.01,0.53,0.24,0.8,0.68,1
		c2.02,0.92,3.54,2.44,4.8,4.21c0.8,1.13,1.03,2.55,1.74,3.75c0.46,0.78-0.16,0.72-0.69,0.6c-2.28-0.53-4.55-1.14-6.86-1.57
		c-4.18-0.78-8.12-2.27-12.09-3.69c-0.83-0.29-0.9-0.57-0.32-1.23c0.88-0.99,1.95-1.64,3.13-2.15c1.05-0.45,1.51-1.12,1.5-2.38
		c-0.07-7.4-0.05-14.79-0.02-22.19c0-0.79-0.2-1.31-0.88-1.78c-3.8-2.64-6.63-6.07-8.23-10.45c-0.73-1.99-1.11-4.06-1.22-6.17
		C29.94,89.99,29.8,89.59,30.31,89.51z"/>
</g>
</svg>
