<?xml version="1.0" encoding="utf-8"?>
<!-- Generator: Adobe Illustrator 23.0.2, SVG Export Plug-In . SVG Version: 6.00 Build 0)  -->
<svg version="1.1" id="Camada_1" xmlns="http://www.w3.org/2000/svg" xmlns:xlink="http://www.w3.org/1999/xlink" x="0px" y="0px"
	 viewBox="0 0 1280 800" style="enable-background:new 0 0 1280 800;" xml:space="preserve">
<style type="text/css">
	.st0{fill:#949494;}
	.st1{fill:#FEFEFE;}
	.st2{fill:#3E3E3E;}
	.st3{fill:#E14B40;}
	.st4{fill:#363636;}
</style>
<g>
	<path class="st0" d="M667.92,274.16c-0.96,0.38-1.92,0.38-2.88,0C666,274.16,666.96,274.16,667.92,274.16z"/>
	<path class="st1" d="M618.49,520.71c-7.96-0.98-15.81-2.29-22.28-7.66c-1.32-1.1-2.8-2.06-3.88-3.36
		c-2.75-3.29-3.81-7.06-2.71-11.36c3.65-14.35,7.21-28.71,10.87-43.05c3.06-12.02,6.21-24.02,9.31-36.03
		c2.94-11.35,5.86-22.71,8.81-34.06c3.13-12.08,6.26-24.17,9.44-36.24c4.56-17.32,9.14-34.63,13.76-51.92
		c0.56-2.09,0.85-4.3,2.32-6.1c2.44-2.98,5.39-5.34,8.67-7.25c4.26-2.47,9-3.7,13.86-3.65c4.74,0.05,9.26,1.37,13.29,4.15
		c4.22,2.9,7.33,6.63,9.74,11.15c1.21,2.27,1.56,4.66,2.18,7.03c0.29,1.09-0.07,2.23-0.35,3.31c-3.09,12.01-6.16,24.03-9.32,36.03
		c-4.41,16.7-8.4,33.51-12.67,50.25c-3.48,13.65-6.96,27.29-10.48,40.92c-2.92,11.32-5.93,22.61-8.84,33.93
		c-2.74,10.66-5.91,21.2-8.78,31.82c-0.83,3.08-1.64,6.16-2.57,9.22c-0.47,1.55-1.58,2.77-2.69,3.92c-0.72,0.75-1.4,1.52-2.08,2.3
		c-2.48,2.81-5.36,4.98-9.18,5.69C622.78,520.12,620.71,520.76,618.49,520.71z"/>
	<path d="M617.89,514.92c-5.88-0.56-12.19-1.84-17.58-5.95c-1.16-0.89-2.3-1.84-3.39-2.81c-1.96-1.73-2.45-4.07-1.83-6.55
		c2.45-9.88,4.93-19.75,7.44-29.61c2.9-11.41,5.85-22.82,8.78-34.22c3.04-11.79,6.08-23.58,9.14-35.36
		c3.19-12.33,6.39-24.65,9.6-36.97c3.02-11.59,6.03-23.18,9.12-34.75c2.88-10.8,5.95-21.55,8.63-32.4c0.3-1.23,0.91-2.35,1.9-3.12
		c2.37-1.85,4.52-4,7.33-5.26c8.24-3.7,16.26-2.72,22.89,3.57c2.4,2.28,3.98,5.08,5.42,7.95c0.96,1.91,1,4.05,0.44,6.19
		c-3.21,12.2-6.42,24.4-9.55,36.62c-3.77,14.77-7.45,29.57-11.18,44.36c-2.89,11.42-5.79,22.83-8.72,34.23
		c-2.43,9.47-4.87,18.94-7.36,28.4c-3.54,13.43-6.95,26.9-10.91,40.22c-1.51,5.09-2.83,10.23-4.21,15.36
		c-0.23,0.87-0.56,1.73-1.22,2.29c-1.44,1.23-2.47,2.81-3.78,4.15C626.02,514.14,622.41,514.82,617.89,514.92z"/>
	<path class="st2" d="M618.63,510.56c-5.5-0.33-10.72-1.55-15.29-4.81c-1.22-0.87-2.03-2.18-3.5-2.83c-0.71-0.32-0.83-1.34-0.6-2.25
		c1.83-7.26,3.6-14.54,5.45-21.8c3.55-13.9,7.13-27.8,10.71-41.69c4.07-15.78,8.16-31.57,12.25-47.34
		c3.57-13.77,7.14-27.55,10.76-41.3c4.45-16.92,8.96-33.82,13.45-50.73c0.27-1.01,0.74-1.88,1.93-2.03c0.35-0.04,0.57-0.24,0.78-0.5
		c4.67-5.6,14.53-7.73,21.51-1.34c1.91,1.75,3.13,3.94,4.56,6.05c1.65,2.45,1,4.59,0.4,6.91c-2.76,10.61-5.59,21.19-8.3,31.81
		c-4.62,18.07-9.15,36.16-13.74,54.23c-3.08,12.09-6.18,24.17-9.32,36.24c-4.68,17.97-9.19,35.99-14.26,53.86
		c-1.87,6.6-3.57,13.24-5.45,19.83c-0.29,1-0.68,1.88-1.77,2.24c-0.26,0.09-0.46,0.24-0.6,0.53c-1.7,3.58-4.74,4.86-8.48,4.91
		C618.95,510.56,618.79,510.56,618.63,510.56z"/>
	<path class="st1" d="M634.61,381.92c1.03-3.86,2.05-7.73,3.09-11.59c0.55-2.05,1.11-4.09,1.67-6.14c0.68-0.79,1.67-1.09,2.56-1.5
		c6.97-3.21,13.69-6.93,20.51-10.44c0.43-0.22,0.83-0.71,1.4-0.3c-0.65,3.33-1.71,6.56-2.52,9.84c-0.65,2.61-1.4,5.18-2.1,7.78
		c-0.37,0.56-0.94,0.85-1.52,1.12c-5.3,2.53-10.53,5.18-15.75,7.86c-1.99,1.02-3.94,2.11-5.92,3.15
		C635.58,381.93,635.15,382.34,634.61,381.92z"/>
	<path class="st1" d="M611.12,472.82c1.42-5.45,2.83-10.89,4.26-16.34c0.12-0.46,0.3-0.89,0.45-1.34c0.55-0.65,1.36-0.8,2.1-1.08
		c6.72-2.49,13.37-5.16,19.9-8.12c0.46-0.21,0.9-0.56,1.45-0.24c-1.44,5.67-2.87,11.34-4.31,17c-0.09,0.34-0.25,0.66-0.38,0.99
		c-0.67,0.69-1.62,0.83-2.46,1.15c-6.53,2.46-13.06,4.94-19.44,7.78C612.2,472.84,611.7,473.2,611.12,472.82z"/>
	<path class="st1" d="M641.8,354.75c0.43-2.73,1.32-5.34,1.95-8.02c0.82-3.48,1.75-6.94,2.64-10.4c0.04-0.15,0.14-0.28,0.22-0.42
		c0.39-0.58,1.05-0.7,1.64-0.91c6.88-2.45,13.75-4.94,20.55-7.61c0.46-0.18,0.93-0.51,1.47-0.19c-1.18,4.98-2.41,9.95-3.83,14.87
		c-0.84,0.91-2.01,1.27-3.08,1.76c-5.75,2.67-11.36,5.61-16.9,8.67c-1.22,0.67-2.43,1.36-3.65,2.04
		C642.49,354.71,642.19,354.96,641.8,354.75z"/>
	<path class="st1" d="M647.03,415.72c-1.37,5.27-2.75,10.55-4.12,15.82c-0.4,0.67-1.13,0.87-1.77,1.17
		c-7.21,3.35-14.26,6.99-21.08,11.08c-0.46,0.27-0.92,0.72-1.52,0.29c1.19-4.52,2.36-9.04,3.59-13.55c0.44-1.63,0.72-3.3,1.37-4.87
		c0.25-0.33,0.59-0.51,0.97-0.67c7.09-2.98,14.18-5.99,21.22-9.1C646.09,415.7,646.53,415.44,647.03,415.72z"/>
	<path class="st3" d="M618.52,444.09c0.57,0.04,0.97-0.33,1.4-0.59c7.41-4.46,15.13-8.32,22.97-11.95
		c-1.2,4.72-2.41,9.44-3.61,14.15c-4.32,1.83-8.62,3.71-12.97,5.47c-3.46,1.4-6.98,2.66-10.48,3.98c0.49-2.85,1.41-5.59,2.08-8.39
		C618.12,445.86,618.32,444.97,618.52,444.09z"/>
	<path class="st1" d="M675.38,307.06c-0.46,2.9-1.39,5.68-2.08,8.53c-0.28,1.15-0.6,2.29-0.9,3.44c-0.86,0.98-2.13,1.23-3.24,1.74
		c-6.52,2.95-12.89,6.17-19.17,9.59c-0.67,0.36-1.29,0.99-2.19,0.73c0.94-4.1,1.91-8.19,3.08-12.23c0.66-0.8,1.63-1.16,2.5-1.6
		c6.82-3.49,13.67-6.9,20.67-10.01C674.46,307.05,674.88,306.68,675.38,307.06z"/>
	<path class="st3" d="M675.38,307.06c-1.98,0.62-3.79,1.62-5.66,2.5c-5.98,2.81-11.89,5.76-17.76,8.79
		c-0.35,0.18-0.72,0.34-1.08,0.5c0.44-2.9,1.33-5.69,1.99-8.54c0.45-1.96,1.02-3.89,1.53-5.83c2.04-1.19,4.27-1.97,6.45-2.85
		c3.3-1.34,6.66-2.5,10.02-3.65c0.46-0.16,0.92-0.25,1.4-0.22c1.91,1.44,3.08,3.46,3.89,5.6
		C676.61,304.53,675.89,305.86,675.38,307.06z"/>
	<path class="st1" d="M625.25,418.13c0.95-3.57,1.9-7.13,2.85-10.7c0.1-0.38,0.19-0.76,0.29-1.14c0.88-1.01,2.16-1.34,3.3-1.87
		c4.13-1.92,8.28-3.81,12.35-5.86c2.39-1.21,4.85-2.27,7.24-3.48c0.38-0.19,0.76-0.49,1.23-0.23c-1.04,4.06-2.09,8.11-3.13,12.17
		c-0.58,0.8-1.52,1.02-2.34,1.37c-6.84,2.97-13.62,6.06-20.27,9.43C626.31,418.05,625.85,418.55,625.25,418.13z"/>
	<path class="st3" d="M641.8,354.75c7.61-4.35,15.39-8.39,23.32-12.11c0.43-0.2,0.87-0.38,1.31-0.57c-0.71,3.33-1.57,6.63-2.59,9.88
		c-1.75,0.68-3.34,1.67-4.99,2.53c-6.15,3.21-12.31,6.41-18.6,9.35c-0.29,0.13-0.59,0.24-0.88,0.36c0.49-2.83,1.39-5.56,2.06-8.35
		C641.51,355.47,641.44,355.03,641.8,354.75z"/>
	<path class="st1" d="M606.53,490.21c0.88-3.21,1.76-6.41,2.64-9.62c0.4-0.51,1.02-0.6,1.58-0.79c6.8-2.29,13.63-4.47,20.35-6.98
		c0.41-0.15,0.81-0.36,1.26-0.11c-0.67,2.91-1.35,5.82-2.02,8.73c-0.12,0.54-0.26,1.08-0.38,1.61c-0.41,0.58-1.07,0.68-1.67,0.84
		c-6.77,1.88-13.45,4.05-20.15,6.17C607.61,490.23,607.1,490.56,606.53,490.21z"/>
	<path class="st1" d="M619.14,507.44c-3.96-0.54-8.5-1.7-12.69-3.96c-1.06-0.57-1.96-1.5-2.83-2.36c-0.96-0.94-0.92-2.51,0.06-3.72
		c1.21-1.49,2.74-2.46,4.71-2.5c4.42-0.11,8.8-0.05,12.73,2.42c2.45,1.53,3.49,3.65,3.09,6.48
		C623.85,506.29,622.47,507.45,619.14,507.44z"/>
	<path class="st3" d="M652.5,394.85c-4.14,1.99-8.27,3.99-12.41,5.96c-3.89,1.85-7.81,3.66-11.71,5.48c0.79-3.17,1.59-6.33,2.38-9.5
		c2.73-1.66,5.67-2.89,8.56-4.23c4.55-2.12,9.2-4,13.81-5.98c0.5-0.21,0.98-0.58,1.58-0.31C654.15,389.17,653.29,392,652.5,394.85z"
		/>
	<path class="st3" d="M632.36,472.71c-7.47,2.77-15.03,5.29-22.61,7.73c-0.19,0.06-0.38,0.1-0.58,0.15c0.65-2.59,1.3-5.18,1.96-7.78
		c0.78-0.06,1.42-0.49,2.11-0.79c6.66-2.87,13.41-5.5,20.21-8c0.37-0.14,0.76-0.22,1.14-0.34
		C634.01,466.74,633.23,469.74,632.36,472.71z"/>
	<path class="st1" d="M654.7,386.26c-7.66,3.17-15.28,6.44-22.72,10.11c-0.39,0.19-0.74,0.49-1.22,0.42c0.73-2.7,1.46-5.4,2.19-8.1
		c0.28-0.34,0.61-0.62,1.02-0.8c7.32-3.35,14.45-7.1,21.65-10.7c0.52-0.26,1-0.69,1.66-0.52
		C656.49,379.88,655.74,383.11,654.7,386.26z"/>
	<path class="st3" d="M625.25,418.13c0.23-0.06,0.47-0.09,0.68-0.2c7.66-3.98,15.55-7.45,23.45-10.92c-0.78,2.9-1.56,5.81-2.35,8.71
		c-4.8,2.05-9.59,4.11-14.39,6.14c-3.04,1.29-6.1,2.53-9.16,3.8c0.34-2.29,1.12-4.47,1.62-6.71
		C625.16,418.68,625.2,418.4,625.25,418.13z"/>
	<path class="st3" d="M657.3,376.66c-6.93,3.52-13.85,7.08-20.87,10.42c-1.15,0.55-2.31,1.07-3.47,1.6c0.55-2.26,1.1-4.51,1.65-6.77
		c0.29,0.05,0.54-0.08,0.79-0.21c7.82-4.28,15.84-8.19,23.83-12.14C658.58,371.93,657.94,374.3,657.3,376.66z"/>
	<path class="st3" d="M647.8,331.08c3.33-1.73,6.65-3.47,9.98-5.18c4.79-2.47,9.66-4.77,14.62-6.88c-0.71,2.72-1.42,5.45-2.14,8.17
		c-6.8,2.52-13.59,5.04-20.39,7.56c-1.08,0.4-2.18,0.77-3.26,1.15C646.85,334.26,647.28,332.66,647.8,331.08z"/>
	<path class="st3" d="M606.53,490.21c3.27-1.03,6.52-2.1,9.8-3.09c4.53-1.38,9.08-2.71,13.63-4.07c-0.98,4.79-2.3,9.5-3.49,14.35
		c-2.54-3.02-5.66-4.51-9.31-5.14c-1.08-0.19-2.17-0.43-3.26-0.6c-0.47,0.09-0.94,0.11-1.4-0.02c-0.41,0-0.82,0-1.23,0
		c-0.55,0.14-1.09,0.1-1.64,0.02c-0.96,0.22-1.95,0.37-2.88,0.68c-0.8,0.27-0.81-0.07-0.65-0.64
		C606.22,491.2,606.38,490.71,606.53,490.21z"/>
	<path class="st1" d="M672.28,297.75c-5.89,2.12-11.81,4.18-17.53,6.75c-0.09,0.04-0.22-0.01-0.34-0.02
		c0.44-2.24,1.37-4.36,1.54-6.66c0.02-0.29,0.19-0.46,0.41-0.52c2.97-0.85,5.79-2.25,9-2.26C668.07,295,670.26,296.1,672.28,297.75z
		"/>
	<path class="st4" d="M609.62,491.66c0.55-0.01,1.09-0.02,1.64-0.02C610.72,491.95,610.17,491.93,609.62,491.66z"/>
	<path class="st4" d="M612.5,491.64c0.47,0.01,0.94,0.01,1.4,0.02C613.43,491.94,612.96,491.95,612.5,491.64z"/>
</g>
</svg>
