<?xml version="1.0" encoding="utf-8"?>
<!-- Generator: Adobe Illustrator 23.0.2, SVG Export Plug-In . SVG Version: 6.00 Build 0)  -->
<svg version="1.1" id="Camada_1" xmlns="http://www.w3.org/2000/svg" xmlns:xlink="http://www.w3.org/1999/xlink" x="0px" y="0px"
	 viewBox="0 0 160.64 244.6" style="enable-background:new 0 0 160.64 244.6;" xml:space="preserve">
<style type="text/css">
	.st0{fill:#FEFEFE;}
	.st1{fill:#2B2B2B;}
	.st2{fill:#393939;}
	.st3{fill:#3EEAE3;}
	.st4{fill:#96F4F0;}
	.st5{fill:#74F0EB;}
	.st6{fill:#6EEFEA;}
	.st7{fill:#2F2F2F;}
	.st8{fill:#7D7D7D;}
	.st9{fill:#9D9D9D;}
	.st10{fill:#8E8E8E;}
	.st11{fill:#696969;}
	.st12{fill:#636363;}
	.st13{fill:#626262;}
	.st14{fill:#8F8F8F;}
	.st15{fill:#262626;}
	.st16{fill:#222222;}
	.st17{fill:#767878;}
	.st18{fill:#252525;}
	.st19{fill:#242424;}
	.st20{fill:#202020;}
	.st21{fill:#303030;}
	.st22{fill:#232323;}
	.st23{fill:#959595;}
	.st24{fill:#282828;}
	.st25{fill:#212121;}
	.st26{fill:#2A2A2A;}
	.st27{fill:#B0B0B0;}
	.st28{fill:#242625;}
	.st29{fill:#475251;}
	.st30{fill:#838383;}
	.st31{fill:#898989;}
	.st32{fill:#80F1EC;}
	.st33{fill:#1D1D1D;}
	.st34{fill:#595959;}
	.st35{fill:#211C1C;}
	.st36{fill:#201818;}
	.st37{fill:#231D1D;}
	.st38{fill:#1F1616;}
	.st39{fill:#1A1A1A;}
	.st40{fill:#131313;}
	.st41{fill:#1E1B1B;}
	.st42{fill:#181818;}
	.st43{fill:#1D1919;}
	.st44{fill:#909090;}
	.st45{fill:#211919;}
	.st46{fill:#1F1A1A;}
	.st47{fill:#1D1112;}
	.st48{fill:#1D1516;}
	.st49{fill:#1F1717;}
	.st50{fill:#7D7E7E;}
	.st51{fill:#4D5554;}
	.st52{fill:#4B4B4B;}
	.st53{fill:#9C9E9E;}
	.st54{fill:#A0A0A0;}
	.st55{fill:#60EEE8;}
</style>
<g>
	<path class="st0" d="M75.97,4.83c2.58-0.35,5.42-0.28,8.21-0.91c1.22-0.28,2.53-0.17,3.8-0.27c5.83-0.46,11.67-0.9,17.49-1.47
		c4.31-0.42,8.62-0.91,12.94-1.25c4.44-0.35,8.86-1.12,13.33-0.88c4.39,0.23,8.2,1.69,10.88,5.5c2.46,3.49,4.07,7.41,5.96,11.18
		c1.88,3.74,3.48,7.61,5.18,11.43c1.81,4.08,3.8,8.1,5.33,12.29c1.33,3.63,2.16,7.45,0.93,11.36c-1.44,4.58-1.7,9.32-2.03,14.06
		c-0.45,6.57-1.04,13.14-1.44,19.71c-0.28,4.73-0.82,9.43-1.23,14.14c-0.75,8.66-1.82,17.29-2.71,25.94
		c-0.72,7.01-1.68,13.99-2.48,20.99c-0.37,3.27-0.8,6.55-1.13,9.83c-0.25,2.57-0.66,5.12-1,7.68c-0.38,2.87-0.74,5.75-1.14,8.62
		c-0.58,4.21-1.2,8.42-1.76,12.64c-0.55,4.1-1.21,8.19-1.63,12.31c-0.34,3.32-0.94,6.61-1.48,9.91c-0.56,3.42-0.94,6.87-1.4,10.3
		c-0.65,4.85-1.26,9.74-3.58,14.17c-1.17,2.23-2.38,4.47-4.07,6.33c-1.27,1.39-2.76,2.67-4.73,3.09c-1.91,0.4-3.77,1.32-5.73,1.11
		c-5.3-0.58-10.6-0.43-15.9-0.44c-2.54,0-5.09-0.05-7.64,0.17c-1.84,0.15-3.72-0.1-5.6,0.04c-3.9,0.28-7.83,0.22-11.72,0.6
		c-3.81,0.37-7.63,0.5-11.45,0.67c-3.22,0.14-6.44,0.38-9.67,0.46c-3.93,0.1-7.86,0.43-11.78,0.42c-3.19-0.01-6.37,0.18-9.57-0.09
		c-4.75-0.41-8.8-2.26-12.43-5.28c-1.71-1.43-3.56-2.71-5.38-4c-2.56-1.83-4.64-4.13-6.75-6.43c-3.13-3.41-6.4-6.71-9.51-10.12
		c-4.5-4.93-5.74-10.91-4.83-17.49c0.9-6.43,2.21-12.79,2.88-19.25c0.5-4.82,1.22-9.61,2.03-14.39c0.91-5.33,1.67-10.69,2.49-16.03
		c0.73-4.76,1.58-9.5,2.12-14.27c0.42-3.64,1.29-7.21,1.58-10.86c0.34-4.33,1.29-8.57,1.6-12.9c0.11-1.58,0.5-3.14,0.72-4.72
		c0.56-4.02,1.17-8.04,1.63-12.07c0.49-4.3,1.04-8.6,1.63-12.89c0.69-5,1.44-10,1.79-15.05c0.19-2.68,0.75-5.33,1.07-8
		c0.38-3.16,0.69-6.33,1.04-9.49c0.29-2.6,0.75-5.2,0.86-7.81c0.11-2.67,1.21-5.29,0.37-8c-0.18-0.59,0.09-1.19,0.23-1.77
		c0.57-2.45,1.09-4.91,1.81-7.31c0.42-1.38,1.42-2.54,2.41-3.54c2.98-3,5.71-6.26,9.3-8.61c1.96-1.28,4.2-1.69,6.38-2.32
		c8.85-2.58,17.92-4.22,26.9-6.21C71.29,5.15,73.49,4.73,75.97,4.83z"/>
	<path d="M75.91,10.6c2.61-0.36,5.45-0.3,8.25-0.9c1.34-0.29,2.77-0.18,4.16-0.31c4.71-0.44,9.43-0.92,14.16-1.15
		c3.55-0.18,7.03-0.85,10.57-1.06c3.84-0.23,7.66-0.88,11.5-1.09c2.76-0.15,5.5-0.81,8.31-0.31c3.04,0.54,5.05,2.31,6.33,4.94
		c1.5,3.11,3.12,6.17,4.61,9.29c2.08,4.37,4.04,8.8,5.93,13.25c1.37,3.22,2.92,6.35,4.22,9.59c1.15,2.87,1.23,5.86,0.34,8.8
		c-1.37,4.55-1.69,9.24-2.01,13.94c-0.47,6.89-1.05,13.77-1.49,20.67c-0.28,4.49-0.8,8.95-1.19,13.42
		c-0.68,7.87-1.6,15.71-2.47,23.55c-0.6,5.42-1.13,10.85-1.84,16.26c-0.43,3.23-0.88,6.46-1.1,9.74c-0.25,3.76-0.98,7.48-1.47,11.22
		c-0.32,2.44-0.55,4.89-0.87,7.33c-0.56,4.25-1.15,8.5-1.75,12.75c-0.6,4.3-1.3,8.58-1.83,12.89c-0.72,5.84-1.59,11.66-2.53,17.47
		c-0.53,3.3-0.79,6.64-1.27,9.95c-0.56,3.85-1.62,7.44-3.73,10.72c-0.86,1.33-1.48,2.81-2.85,3.78c-1.86,1.32-3.96,1.69-6.13,1.53
		c-2.3-0.17-4.6-0.44-6.91-0.45c-4.75-0.02-9.51-0.02-14.26,0.04c-6.37,0.08-12.75,0.26-19.1,0.81c-3.78,0.32-7.55,0.46-11.32,0.65
		c-3.1,0.15-6.2,0.42-9.31,0.46c-2.94,0.04-5.88,0.05-8.81,0.28c-3.51,0.27-7.01,0.09-10.52,0.19c-2.18,0.06-4.29-0.33-6.37-0.95
		c-1.28-0.38-2.26-1.33-3.33-2.08c-2.51-1.77-4.97-3.62-7.43-5.46c-2.65-1.98-4.72-4.54-6.92-6.95c-2.69-2.95-5.56-5.73-8.2-8.72
		c-3.03-3.43-4.27-7.51-3.47-12.18c1.11-6.47,2.18-12.96,2.99-19.47c0.66-5.24,1.3-10.48,2.17-15.69
		c0.94-5.61,1.89-11.22,2.61-16.85c0.57-4.46,1.53-8.86,1.97-13.33c0.36-3.61,1.27-7.13,1.56-10.74c0.35-4.36,1.3-8.65,1.61-13.01
		c0.11-1.5,0.49-2.98,0.69-4.48c0.49-3.63,0.94-7.26,1.44-10.89c0.66-4.76,1.13-9.55,1.84-14.31c0.74-4.99,1.45-10,1.8-15.05
		c0.19-2.68,0.75-5.33,1.07-8c0.38-3.16,0.69-6.33,1.04-9.49c0.29-2.6,0.75-5.2,0.86-7.81c0.11-2.66,1.02-5.25,0.43-8.01
		c-0.36-1.64,0.55-3.35,0.9-5.02c0.37-1.79,1.34-3.21,2.65-4.43c2.1-1.96,3.97-4.16,6.17-6.01c1.28-1.08,2.79-1.65,4.36-2.13
		c6.83-2.06,13.8-3.55,20.78-5.02c2.88-0.61,5.77-1.19,8.66-1.75C72.85,10.72,74.27,10.51,75.91,10.6z"/>
	<path class="st1" d="M18.96,213.63c-2.35-2.18-5-4.17-5.78-7.53c-0.3-1.29,0.19-2.59,0.36-3.87c0.57-4.25,1.21-8.5,1.83-12.75
		c0.67-4.6,1.36-9.2,2.04-13.8c0.6-4.01,1.21-8.02,1.8-12.03c0.51-3.46,1-6.92,1.51-10.38c0.6-4.05,1.24-8.09,1.85-12.13
		c0.56-3.77,1.11-7.54,1.63-11.32c0.59-4.29,1.12-8.59,1.73-12.88c0.92-6.45,1.59-12.93,2.57-19.37c0.72-4.71,1.16-9.47,1.76-14.2
		c0.6-4.69,1.27-9.37,1.85-14.06c0.47-3.87,0.83-7.75,1.27-11.62c0.34-3.04,0.75-6.07,1.11-9.11c0.36-3.08,0.69-6.16,1.05-9.24
		c0.06-0.51,0.29-1.05,0.19-1.53c-0.21-1.01,0.92-2.17-0.33-3.05c0.31-1.06,0.21-2.28,1.04-3.12c1.91-1.93,3.72-3.96,5.86-5.65
		c1.22-0.96,2.75-1.33,4.19-1.7C55.59,22,64.74,19.87,74,18.33c2.82-0.47,5.7-0.53,8.55-0.79c3.21-0.29,6.41-0.62,9.62-0.91
		c2.18-0.2,4.36-0.35,6.54-0.54c3.61-0.3,7.21-0.6,10.81-0.92c3.45-0.31,6.89-0.65,10.33-0.99c3.12-0.3,6.25-0.58,9.37-0.94
		c2.29-0.27,2.57-0.16,3.64,1.92c2.9,5.65,5.63,11.38,8.22,17.17c1.97,4.4,3.89,8.82,5.89,13.2c0.85,1.85,0.27,3.66-0.17,5.38
		c-1.17,4.5-1.71,9.05-1.88,13.69c-0.17,4.53-0.59,9.05-0.94,13.58c-0.29,3.89-0.55,7.78-0.97,11.65
		c-0.58,5.41-0.95,10.84-1.6,16.25c-0.53,4.42-0.8,8.87-1.27,13.3c-0.48,4.5-1.09,8.99-1.62,13.49c-0.58,4.85-1.12,9.71-1.72,14.56
		c-0.5,4.06-1.08,8.11-1.61,12.17c-0.51,3.86-0.98,7.72-1.5,11.58c-0.62,4.65-1.26,9.29-1.88,13.93c-0.59,4.41-1.13,8.83-1.74,13.24
		c-0.49,3.54-1.07,7.07-1.58,10.61c-0.53,3.7-1.11,7.39-1.5,11.11c-0.34,3.26-1.97,5.93-3.48,8.69c-0.33,0.6-0.87,0.5-1.37,0.46
		c-5.57-0.45-11.16-0.65-16.75-0.42c-3.75,0.15-7.51,0.08-11.25,0.22c-4.58,0.17-9.15,0.42-13.72,0.71
		c-4.45,0.29-8.9,0.54-13.36,0.73c-3.9,0.17-7.82,0.24-11.7,0.52c-3.07,0.22-6.14,0.15-9.2,0.29c-2.44,0.12-4.94-0.07-7.41-0.12
		c-0.53-0.01-0.89-0.36-1.26-0.63c-1.32-0.96-2.6-1.97-3.9-2.96c0.38-0.36,0.83-0.25,1.25-0.16c3.05,0.65,6.13,0.26,9.18,0.19
		c2.86-0.06,5.73-0.16,8.59-0.38c1.27-0.1,2.53-0.37,3.81-0.25c2.1-0.24,4.22-0.39,6.31-0.41c3.35-0.03,6.66-0.46,9.99-0.6
		c3.54-0.15,7.08-0.31,10.61-0.62c0.48-0.04,0.95-0.05,1.43-0.04c4.07-0.04,8.13-0.49,12.2-0.63c2.11-0.08,4.21-0.4,6.34-0.24
		c0.97,0.07,1.93-0.33,2.93-0.4c1.28-0.09,2.54-0.09,3.82,0.02c2.11,0.18,4.24,0.05,6.36,0.06c0.62,0,0.94-0.18,0.6-0.86
		c-1.94-3.82-3.48-7.8-5-11.9c-0.49,0.24-0.37,1.16-1.08,0.92c-0.45-0.15-0.65-0.57-0.8-0.99c-0.18-0.49-0.03-0.9,0.41-1.12
		c1.06-0.53,0.75-1.21,0.32-1.98c-0.93-1.64-1.73-3.34-2.24-5.15c-0.04-0.21-0.04-0.51-0.38-0.2c-0.37,0.26-0.73,0.54-1.22,0.3
		c-0.16-0.18-0.18-0.39-0.13-0.61c0.01-0.1,0.18-0.17,0.12-0.25c-0.08-0.1-0.16,0.06-0.25,0.08c-2.6,1.11-5.39,1.36-8.14,1.72
		c-2.84,0.37-5.66,0.8-8.48,1.26c-4.43,0.61-8.87,1.15-13.29,1.83c-4.5,0.69-9.05,0.98-13.56,1.56c-5.63,0.72-11.29,1.08-16.93,1.58
		c-4.29,0.38-8.59,0.64-12.9,0.83c-4.39,0.2-8.77,0.15-13.16,0.22c-0.85,0.01-1.67-0.13-2.49-0.21c-0.41,0.17-0.14,0.36-0.01,0.54
		C18.16,212.33,19.29,212.54,18.96,213.63z"/>
	<path class="st2" d="M56.41,227.3c-3.12,0.23-6.25,0.64-9.36,0.61c-1.86-0.02-3.7,0.19-5.56,0.15c-2.64-0.07-5.29,0.18-7.89-0.5
		c-2.32-1.6-4.77-3.02-6.68-5.15c-2.64-2.93-5.3-5.85-7.94-8.77c-0.1-0.92-1.1-1.19-1.43-1.94c-0.07-0.28-0.18-0.53-0.45-0.68
		c0.19-0.37,0.55-0.3,0.85-0.27c3,0.33,5.99,0.1,8.99,0.11c2.04,0,4.08-0.12,6.11-0.11c2.15,0.01,4.28-0.32,6.42-0.4
		c1.74-0.06,3.46-0.2,5.19-0.34c3.63-0.29,7.26-0.7,10.89-0.9c2.66-0.15,5.28-0.6,7.94-0.8c2.45-0.18,4.87-0.64,7.32-0.87
		c1.62-0.15,3.24-0.32,4.85-0.54c2.63-0.37,5.25-0.73,7.88-1.08c2.24-0.3,4.46-0.73,6.72-0.84c2.4,0.72,4.81,0.36,7.21,0.04
		c2.81-0.37,5.61-0.79,8.2-2.04c0.42-0.2,0.96-0.55,1.38,0.07c0.4-0.16,0.8-0.32,1.21-0.49c0.16-0.14,0.32-0.12,0.47,0.01
		c0.78,2.01,1.52,4.03,2.68,5.86c0.48,0.76,0.68,1.54-0.57,1.85c-0.25,0.06-0.71,0.18-0.54,0.63c0.15,0.4,0.25,0.95,0.67,1.08
		c0.52,0.16,0.36-0.36,0.39-0.63c0.04-0.32,0.02-0.71,0.4-0.78c0.5-0.09,0.51,0.39,0.62,0.71c1.45,4.14,3.09,8.21,5.1,12.11
		c0.43,0.83,0.22,1.04-0.64,0.99c-2.67-0.14-5.33,0.09-8.01-0.19c-1.58-0.17-3.28-0.17-4.83,0.58c-0.55,0.26-1.07-0.22-1.64-0.17
		c-1.75,0.16-3.52,0.11-5.24,0.32c-1.86,0.23-3.73,0.09-5.59,0.36c-2.16,0.31-4.37,0.21-6.56,0.3c-0.51-0.24-0.71-0.69-0.9-1.2
		c-1.13-3.08-2.16-6.19-2.84-9.4c-0.22-1.03-0.75-1.35-1.75-1.32c-1.83,0.04-3.66-0.04-5.5-0.17c-2.03-0.15-4.06,0.24-6.07,0.49
		c-3.53,0.43-7.06,0.81-10.59,1.14c-1.74,0.16-3.3,0.54-4.27,2.2c-0.66,1.15-0.76,2.24,0.03,3.36c1.15,1.64,2.17,3.35,3.08,5.14
		C56.37,226.3,56.76,226.74,56.41,227.3z"/>
	<path class="st3" d="M21.21,179.06c0.63-3.84,1.28-7.69,1.89-11.53c0.48-3.02,0.93-6.05,1.41-9.08c0.03-0.19,0.12-0.37,0.18-0.55
		c1.96-1.99,3.7-4.17,5.5-6.3c6.92-8.22,13.57-16.65,20.23-25.08c4.15-5.27,8.28-10.55,12.29-15.93c2.3-3.11,4.8-6.05,7.3-9
		c0.46-0.55,0.85-1.16,1.38-1.65c2.49-2.65,4.71-5.53,7.04-8.32c4.47-5.37,8.92-10.76,13.49-16.05c4.38-5.08,8.67-10.24,12.95-15.41
		c4.05-4.89,8.27-9.64,12.26-14.58c0.95-1.18,1.92-2.34,2.94-3.47c0.62-0.27,1.29-0.1,1.93-0.22c0.12-0.02,0.24-0.01,0.36,0.03
		c0.11,0.06,0.19,0.15,0.23,0.27c-0.14,2.76-0.74,5.46-1.12,8.18c-0.75,5.42-1.48,10.84-2.13,16.28c-0.35,2.86-0.86,5.69-1.25,8.54
		c-0.08,0.6-0.3,1.18-0.71,1.63c-1.1,1.22-2.02,2.6-3.2,3.73c-2.95,2.84-5.59,5.93-7.92,9.3c-1.37,1.98-3.03,3.69-4.76,5.37
		c-5.62,5.46-11.17,11-16.51,16.74c-4.41,4.74-8.76,9.53-13.06,14.37c-3.55,4-7.13,7.99-10.68,11.99
		c-3.77,4.24-7.46,8.55-11.23,12.79c-2.81,3.17-5.64,6.32-8.44,9.5c-4,4.56-8.15,9.01-12.18,13.55c-1.51,1.7-3.02,3.41-4.64,5.01
		c-0.17,0.1-0.35,0.15-0.55,0.18c-0.2,0.03-0.4,0.03-0.6,0.03C22.8,179.28,21.95,179.63,21.21,179.06z"/>
	<path class="st4" d="M71.53,100.1c-2.88,3.52-5.76,7.04-8.64,10.56c-4.89,6.21-10.01,12.24-15.28,18.12
		c-4.24,4.73-8.36,9.56-12.8,14.11c-2.62,2.69-5.1,5.51-7.74,8.18c-0.31,0.31-0.58,0.68-1.01,0.83c-0.51,0.19-0.55-0.1-0.41-0.49
		c0.81-5.35,1.62-10.69,2.44-16.04c0.44-1.17,1.17-2.16,1.93-3.14c4.76-6.18,9.33-12.49,13.84-18.85
		c3.73-5.25,7.65-10.36,11.41-15.58c4.07-5.64,8.21-11.24,12.4-16.78c3.35-4.43,6.83-8.77,10.29-13.12
		c3.21-4.03,6.35-8.13,9.74-12.01c3.02-3.46,5.96-6.99,9.19-10.27c0.39-0.4,0.76-0.83,1.33-0.99c5.89-0.87,11.82-1.41,17.72-2.18
		c0.28-0.04,0.56-0.04,0.83,0.03c0.87,0.44,0.19,0.9-0.06,1.22c-1.08,1.39-2.28,2.68-3.42,4.01c-4.38,5.1-8.54,10.36-12.64,15.69
		c-7.04,9.16-14.43,18.05-21.47,27.21C76.73,93.85,74.14,96.98,71.53,100.1z"/>
	<path class="st5" d="M97.92,45.02c-3.64,3.64-6.94,7.58-10.29,11.48C81.45,63.67,75.7,71.2,69.87,78.66
		c-4.53,5.8-8.88,11.74-13.18,17.72c-3.32,4.62-6.79,9.14-10.15,13.73c-2.26,3.09-4.42,6.24-6.66,9.34
		c-3.35,4.65-6.74,9.27-10.26,13.79c-0.54,0.69-1.02,1.42-1.53,2.13c0.61-4.77,1.35-9.52,2.08-14.28c0.66-4.28,1.16-8.59,1.73-12.88
		c0.09-0.71,0.15-1.42,0.23-2.13c-0.08-0.31-0.19-0.62,0.07-0.9c0.66-2.09,0.58-4.29,0.95-6.43c0.2-1.15,0.33-2.31,0.5-3.47
		c0.14-0.42,0.25-0.84,0.6-1.15c1.44-1.28,2.58-2.83,3.93-4.19c4.27-4.32,8.42-8.75,12.71-13.03c2.31-2.31,4.58-4.65,6.93-6.91
		c3.65-3.51,7.17-7.17,10.81-10.69c4.39-4.24,8.87-8.39,13.42-12.47c0.21-0.15,0.45-0.26,0.7-0.31c4.48-0.64,8.98-1.12,13.46-1.7
		c0.47-0.06,0.94-0.15,1.42-0.09C97.8,44.78,97.89,44.87,97.92,45.02z"/>
	<path class="st6" d="M24.72,178.96c0.68-1.3,1.87-2.15,2.8-3.23c2.66-3.08,5.5-5.99,8.21-9.02c3.48-3.89,6.89-7.84,10.34-11.74
		c2.19-2.48,4.44-4.9,6.63-7.38c3.15-3.59,6.26-7.22,9.41-10.81c2.1-2.39,4.25-4.75,6.37-7.13c3.24-3.62,6.47-7.25,9.71-10.88
		c1.09-1.22,2.25-2.37,3.36-3.58c6.83-7.39,13.88-14.57,21.11-21.56c2.06-1.99,3.51-4.41,5.26-6.61c1.19-1.49,2.31-3.05,3.72-4.36
		c1.97-1.82,3.61-3.94,5.41-5.91c0.89-0.97,0.81-2.24,0.97-3.39c0.72-4.91,1.34-9.83,1.98-14.75c0.63-4.84,1.28-9.68,2.11-14.49
		c0.12-0.66,0.19-1.34,0.28-2c0.62-0.66,1.32-0.8,2.12-0.32c-1.08,7.36-2.26,14.7-3.11,22.1c-0.63,5.5-1.41,10.99-2.06,16.49
		c-0.58,4.95-1.06,9.91-1.59,14.86c-0.11,0.06-0.2,0.05-0.29-0.04c-0.39-0.4-0.63-0.06-0.89,0.17c-2.31,2.03-4.61,4.07-6.85,6.18
		c-3.43,3.23-7.05,6.27-10.25,9.74c-3.47,3.77-7.2,7.27-10.73,10.98c-4.26,4.49-8.56,8.95-12.77,13.49
		c-4.27,4.6-8.54,9.18-12.82,13.77c-3.81,4.09-7.64,8.17-11.49,12.22c-4.48,4.72-8.86,9.55-13.45,14.17
		c-0.95,0.96-1.66,2.16-2.88,2.85c-0.19,0.07-0.39,0.09-0.59,0.1c-2.94,0.53-5.93,0.06-8.88,0.46
		C25.46,179.42,24.99,179.43,24.72,178.96z"/>
	<path class="st4" d="M35.53,178.53c1.19-1.29,2.35-2.6,3.56-3.87c3.72-3.9,7.46-7.77,11.17-11.67c2.5-2.63,4.97-5.28,7.45-7.93
		c4.66-4.97,9.34-9.93,13.95-14.94c2.11-2.29,4.24-4.54,6.35-6.83c5.81-6.31,11.82-12.43,17.79-18.58c2.36-2.43,4.67-4.92,7.14-7.24
		c4.59-4.31,9.27-8.51,13.92-12.75c0.17-0.16,0.36-0.42,0.6-0.25c0.25,0.18,0.11,0.52,0.15,0.79c0.19,0.2,0.24,0.45,0.23,0.71
		c0,0.38,0.03,0.77-0.04,1.15c-0.05,0.12-0.13,0.22-0.23,0.3c-0.07,0.65-0.14,1.3-0.21,1.95c0.13,0.15,0.17,0.29-0.03,0.41
		c-0.38,3.17-0.77,6.34-1.14,9.51c-0.26,2.22-0.48,4.44-0.73,6.65c-0.37,0.58,0.12,1.31-0.33,1.87c-0.6,0.92-1.46,1.58-2.21,2.35
		c-0.19,0.2-0.44,0.43-0.73,0.32c-0.35-0.13-0.36-0.51-0.36-0.82c-0.01-1.08,0.34-2.13,0.23-3.34c-1.19,1.04-2.26,2.1-3.24,3.23
		c-0.73,0.85-1.49,1.67-2.28,2.46c-3.88,3.86-7.64,7.85-11.47,11.77c-3.49,3.57-6.92,7.21-10.36,10.82
		c-4.66,4.89-9.25,9.84-13.96,14.68c-4.4,4.53-8.73,9.12-13.16,13.63c-1.29,1.31-2.47,2.72-3.79,4c-0.46,0.45-0.91,0.9-1.53,1.14
		c-0.13,0.05-0.26,0.08-0.4,0.09c-4.96,0.21-9.92,0.46-14.88,0.73C36.45,178.92,35.92,179,35.53,178.53z"/>
	<path class="st7" d="M79.69,198.26c-0.32,0.08-0.64,0.16-0.96,0.24c-0.44,0.37-0.97,0.19-1.46,0.24
		c-6.43,0.57-12.84,1.39-19.25,2.15c-0.66,0.07-1.34-0.11-1.98,0.14c-0.12,0.05-0.25,0.09-0.38,0.09c-0.52,0.05-1.05-0.08-1.54,0.2
		c-2.58,0.52-5.21,0.66-7.82,0.96c-2.24,0.26-4.47,0.64-6.72,0.85c-0.24,0.02-0.47,0.08-0.69-0.08c-0.76-0.55-1.55-0.03-2.26,0.07
		c-2.6,0.36-5.22,0.57-7.83,0.8c-0.34,0.03-0.66,0.2-0.99,0.31c-0.08-0.32,0.13-0.53,0.33-0.72c5.4-5.08,10.75-10.21,16.08-15.36
		c3.24-3.13,6.39-6.35,9.64-9.47c0.52-0.5,1-1.04,1.7-1.29c0.13-0.05,0.26-0.08,0.4-0.09c2.82-0.38,5.66-0.36,8.49-0.54
		c4.54-0.3,9.09-0.36,13.63-0.67c2.03-0.14,4.07-0.15,6.1-0.21c3.11-0.09,6.22-0.37,9.34-0.33c2.83,0.04,5.66-0.39,8.5-0.21
		c1.32,0.06,2.63-0.01,3.95,0.04c1.13,0.04,1.45,0.36,1.39,1.46c-0.32,5.81-0.38,11.63-0.86,17.43c-0.08,0.92-0.01,1.84-0.04,2.75
		c-0.01,0.51,0.05,1.05-0.35,1.48c-0.95-0.16-1.89-0.39-2.85-0.45c-0.91-0.05-1.81-0.07-2.7-0.26c-0.3,0.27-0.67,0.23-1.02,0.23
		c-2.71,0.01-5.43,0-8.14,0c-0.4,0-0.8,0-1.15-0.24c-0.78,0.28-1.59,0.25-2.4,0.24c-1.52,0.38-3.04,0.38-4.56,0
		c-0.24,0.08-0.48,0.16-0.72,0.24C81.61,198.62,80.65,198.62,79.69,198.26z"/>
	<path class="st8" d="M128.9,67.71c0.41-0.77,0.15-1.61,0.25-2.4c-0.08-0.05-0.1-0.1-0.07-0.14c0.03-0.04,0.06-0.06,0.09-0.06
		c0.53-2.5,0.62-5.06,0.9-7.59c0.6-5.31,1.2-10.62,1.66-15.94c0.44-5.08,1.11-10.15,1.27-15.26c0.01-0.23,0.12-0.45,0.18-0.68
		c0.62,0.54,0.73,1.32,0.9,2.04c1.78,7.63,3.32,15.31,4.79,23.01c0.66,3.48,0.24,6.82-0.34,10.22c-2.08,12.22-3.54,24.52-5.02,36.82
		c-1.23,10.2-2.35,20.4-3.69,30.59c-1.82,13.83-3.74,27.65-5.71,41.45c-1.73,12.11-3.41,24.22-5.17,36.32
		c-0.09,0.62-0.08,1.29-0.61,1.77c-1.4-2.37-2.63-4.84-4.22-7.09c-0.32-0.45-0.64-0.9-0.96-1.35c0.47-2.2,0.74-4.44,1-6.68
		c0.05-0.44,0.11-0.86,0.25-1.28c0.8-5.87,1.51-11.75,2.31-17.62c0.58-4.25,0.94-8.52,1.58-12.76c0.23-1.49,0.41-3,0.55-4.51
		c0.01-0.35,0.14-0.68,0.14-1.02c0.13-1.2,0.32-2.4,0.48-3.6c0.08-1.46,0.6-2.88,0.33-4.36c0.34-3.04,0.66-6.09,1.03-9.13
		c0.53-4.38,1.12-8.76,1.65-13.14c0.78-6.48,1.54-12.96,2.28-19.44c0.52-4.55,1.01-9.1,1.52-13.65c0.46-4.04,0.99-8.07,1.38-12.11
		c0.4-4.15,1.11-8.28,1.28-12.46L128.9,67.71z"/>
	<path class="st3" d="M82.1,47.05c-1.4,1.36-2.78,2.73-4.21,4.06c-1.46,1.36-2.98,2.65-4.44,4c-4.32,3.98-8.41,8.19-12.59,12.32
		c-2.31,2.29-4.76,4.44-6.99,6.81c-3.49,3.72-7.17,7.26-10.72,10.93c-2.91,3.01-5.77,6.07-8.65,9.12c-0.3,0.32-0.57,0.66-0.85,0.99
		c0.3-2.7,0.6-5.41,0.88-8.11c0.19-1.77,0.35-3.54,0.53-5.3c0,0,0,0,0,0c0.46-3.77,0.97-7.54,1.37-11.31
		c0.47-4.42,0.84-8.86,1.24-13.29c0.05-0.51,0.03-1.03,0.04-1.55l0,0c0.26-0.55,0.2-1.13,0.21-1.71c-0.08-0.14-0.07-0.27,0.01-0.4
		c0.56-0.68,1.39-0.73,2.16-0.9c5.91-1.24,11.89-2.04,17.86-2.83c7.44-0.99,14.88-1.97,22.31-3.04
		C80.89,46.75,81.54,46.56,82.1,47.05z"/>
	<path class="st7" d="M41.05,33.86c0.08-0.08,0.16-0.16,0.24-0.24c0.62-0.23,1.21-0.69,1.92-0.24c1.52-0.49,3.1-0.77,4.56-1.44
		c2.09-0.82,4.34-1.03,6.48-1.68c0.56-0.08,1.12-0.16,1.68-0.24c0.43-0.6,1.14-0.53,1.73-0.68c2.07-0.53,4.17-0.93,6.22-1.56
		c1.07-0.19,2.11-0.56,3.17-0.77c0.44-0.09,0.88-0.36,1.35-0.12c0.07,0,0.14,0,0.2,0c0.16,0.2,0.16,0.44,0.2,0.68
		c0.29,1.86,1.09,2.44,2.95,2.22c6.14-0.72,12.27-1.48,18.42-2.02c0.63-0.05,1.38,0.01,1.45-0.88c0.07-0.81-0.4-1.35-1.1-1.69
		c-0.62-0.3-1.31-0.35-1.99-0.34c-4.3,0.01-8.61-0.16-12.89,0.5c-0.28,0.04-0.56,0.07-0.78-0.18c0.56-0.64,1.34-0.61,2.07-0.67
		c3.97-0.35,7.95-0.24,11.92-0.25c0.19,0,0.39,0,0.58-0.17c-2.84,0-5.69,0-8.77,0c0.35-0.28,0.51-0.41,0.67-0.54
		c0.24-0.29,0.54-0.42,0.91-0.5c2.43-0.53,4.83-1.19,7.24-1.79c2.3-0.8,4.7-1.28,7.03-1.95c0.25-0.07,0.47-0.02,0.65,0.16
		c2.27-0.62,4.63-0.65,6.94-0.99c1.28-0.19,2.61,0.02,3.86-0.45c0.19-0.38,0.56-0.48,0.9-0.45c1.39,0.1,2.75-0.34,4.12-0.25
		c1.27,0.09,2.5-0.32,3.76-0.23c0.94,0.59,0.08,0.95-0.23,1.21c-1.48,1.27-3.05,2.43-4.54,3.69c-0.54,0.46-1.05,1-1.83,1.03
		c-0.24-0.02-0.45-0.12-0.68-0.19c-1.86-0.56-3.01,0.44-2.71,2.34c0.08,0.5-0.01,0.96-0.43,1.29c-4.03,3.25-7.81,6.8-11.81,10.08
		c-0.12,0.1-0.26,0.18-0.4,0.26c-0.71,0.4-1.48,0.6-2.28,0.71c-8.79,1.19-17.53,2.74-26.28,4.19c-8.67,1.44-17.33,2.99-25.92,4.89
		c-0.38,0.08-0.78,0.23-1.14-0.09c-0.41-1.19,0.09-2.35,0.15-3.52c0.12-2.21,0.24-4.41,0.4-6.62c0.32-0.72-0.01-1.55,0.42-2.25
		C40.03,34.04,40.45,33.43,41.05,33.86z"/>
	<path class="st9" d="M118.31,207.88c0.54-3.73,1.09-7.46,1.62-11.19c0.51-3.62,1.01-7.23,1.52-10.85c0.44-3.1,0.92-6.2,1.35-9.31
		c0.52-3.69,1.01-7.39,1.53-11.09c0.52-3.65,1.07-7.3,1.58-10.96c0.45-3.22,0.86-6.45,1.3-9.68c0.43-3.23,0.88-6.45,1.32-9.67
		c0.44-3.3,0.89-6.61,1.31-9.91c0.47-3.7,0.92-7.4,1.37-11.11c0.36-2.96,0.68-5.92,1.03-8.87c0.37-3.11,0.75-6.23,1.12-9.34
		c0.35-2.88,0.68-5.76,1.04-8.63c0.45-3.54,0.95-7.08,1.37-10.63c0.47-3.94,1.12-7.86,1.75-11.78c0.45-2.78,0.93-5.56,1.36-8.34
		c0.33-2.13-0.14-4.21-0.51-6.27c-0.78-4.38-1.62-8.75-2.54-13.1c-0.81-3.85-1.77-7.67-2.66-11.5c0.19-0.83-0.27-1.74,0.29-2.53
		c0.49,0.58,0.19,1.28,0.32,1.93c0.28-0.17,0.34-0.54,0.68-0.63c2.28,3.35,3.39,7.18,4.49,11.01c1.11,3.86,2.27,7.71,2.98,11.69
		c0.39,2.24,0.34,4.42,0.05,6.65c-0.56,4.34-1.04,8.69-1.56,13.03c-0.36,3.04-0.75,6.08-1.11,9.13c-0.36,3.08-0.68,6.17-1.02,9.25
		c-0.25,2.29-0.5,4.59-0.76,6.88c-0.33,2.92-0.66,5.84-0.99,8.76c-0.41,3.6-0.81,7.19-1.22,10.79c-0.4,3.53-0.79,7.05-1.2,10.57
		c-0.42,3.63-0.87,7.27-1.29,10.9c-0.37,3.24-0.71,6.49-1.06,9.73c0.31,0.6-0.09,1.2-0.01,1.81c-0.3,2.01-0.46,4.03-0.71,6.05
		c-0.03,0.28-0.04,0.56-0.24,0.78c-0.45,1.62-0.48,3.3-0.7,4.96c-0.49,3.58-0.92,7.17-1.34,10.76c-0.39,3.31-0.73,6.63-1.12,9.95
		c-0.48,4.19-0.98,8.38-1.47,12.56c-0.46,3.96-0.92,7.91-1.38,11.87c-0.61,5.18-1.22,10.36-1.83,15.54
		c-0.02,0.15-0.09,0.3-0.24,0.83C121.26,214.35,119.87,211.07,118.31,207.88z"/>
	<path class="st10" d="M25.47,204.29c-1.66,0.39-3.37,0.21-5.04,0.44c-0.97,0.14-1.95,0.18-2.93,0.24
		c-0.33,0.02-0.88,0.29-0.74-0.49c0.55-3.04,0.98-6.1,1.74-9.09c0.22-0.38,0.42-0.76,0.76-1.06c4.47-3.91,8.44-8.32,12.56-12.56
		c0.44-0.46,0.88-0.92,1.41-1.29c0.39-0.26,0.69-0.61,0.94-1.01c0.24-0.39,0.53-0.67,1.04-0.46c2.35,0.08,4.68-0.26,7.01-0.38
		c3.17-0.15,6.32-0.58,9.5-0.65c0.27-0.01,0.5,0.06,0.39,0.4c-0.13,0.39-0.44,0.66-0.72,0.94c-4.35,4.35-8.63,8.78-13.07,13.03
		c-3.87,3.7-7.67,7.46-11.55,11.14C26.37,203.86,25.9,204.03,25.47,204.29z"/>
	<path class="st7" d="M56.41,227.3c-0.86-2.24-2.18-4.23-3.49-6.21c-1.61-2.44-0.07-5.69,2.87-6.02c4.33-0.49,8.68-0.81,12.98-1.49
		c3.86-0.61,7.69-0.02,11.53-0.19c0.67-0.03,0.95,0.21,1.09,0.93c0.74,3.66,2.02,7.17,3.18,10.72c0.07,0.22,0.26,0.4,0.39,0.6
		c-3.68,0.31-7.37,0.36-11.05,0.67c-1.7,0.14-3.42,0.12-5.12,0.3c-3.64,0.38-7.32,0.2-10.96,0.69
		C57.37,227.34,56.88,227.29,56.41,227.3z"/>
	<path class="st11" d="M110.17,22.82c1.31-0.41,2.11-1.52,3.14-2.31c1.32-1.02,2.71-1.96,3.87-3.18c0.05-0.09,0.12-0.1,0.2-0.03
		c2.48,0.01,4.97,0.02,7.45,0.03c0.21,1.37-0.02,2.45-1.23,3.45c-4.26,3.48-8.34,7.16-12.15,11.14c-1.16,1.21-2.47,2.25-3.73,3.36
		c-0.12,0.06-0.24,0.11-0.37,0.14c-2.38,0.49-4.8,0.54-7.19,0.9c-1.41,0.22-2.83,0.4-4.24,0.63c-0.51,0.08-1.02,0.19-1.51-0.1
		c-0.13-0.1-0.16-0.22-0.09-0.37c3.78-3.31,7.52-6.67,11.42-9.84c0.45-0.37,1.03-0.67,0.83-1.43c0.56-0.09,0.43,0.57,0.77,0.72
		c0.09,0.05,0.18,0.09,0.27,0.13c0.58,0.08,1.15,0.15,1.7-0.12c0.83-0.6,1.4-1.3,1.04-2.41C110.3,23.29,110.02,23.1,110.17,22.82z"
		/>
	<path class="st6" d="M114.97,117.86c0.47-0.56-0.04-1.37,0.49-1.91c-0.41,4.12-0.81,8.23-1.21,12.35c-0.02,0.2-0.01,0.4-0.01,0.59
		c0.08,0.05,0.1,0.1,0.07,0.13c-0.03,0.03-0.06,0.04-0.1,0.04c-0.39,3.49-0.78,6.98-1.16,10.46c-0.04,0.39,0.03,0.8-0.21,1.16
		c-0.7,0.09-0.92,0.79-1.68,1.26c0.74-0.41,0.91-1.16,1.65-1.05c-0.29,3.1-0.55,6.2-0.87,9.3c-0.81,7.86-1.66,15.72-2.48,23.58
		c-0.04,0.4-0.03,0.8-0.04,1.2c-0.76,0.93-1.17,1.02-2.46,0.52c-0.56-0.43-0.47-1.06-0.5-1.65c-0.14-2.44,0.14-4.87,0.31-7.3
		c0.21-2.91,0.45-5.81,0.6-8.72c0.35-6.75,0.99-13.45,2.06-20.13c0.8-5.01,1.4-10.05,1.94-15.1c0.04-0.35,0.11-0.71,0.03-1.07
		c-0.24-0.62,0.12-0.75,0.63-0.99C113.25,119.95,114.19,118.98,114.97,117.86z"/>
	<path class="st10" d="M107.76,35.06c2.13-2.09,4.29-4.16,6.4-6.28c3.04-3.06,6.37-5.78,9.63-8.59c0.59-0.51,0.86-0.97,0.79-1.71
		c-0.04-0.4-0.01-0.8,0.24-1.15c0.91,0.03,1.83-0.15,2.74,0.13c0.43,0.14,0.68,0.26,0.59,0.82c-0.9,5.37-1.8,10.74-2.47,16.15
		c-0.01,0.07-0.08,0.14-0.12,0.2c-3.19-0.43-6.36,0.01-9.54,0.2c-2.38,0.14-4.77,0.28-7.15,0.54
		C108.48,35.42,108.07,35.38,107.76,35.06z"/>
	<path class="st9" d="M107.76,35.06c2.84-0.23,5.68-0.55,8.53-0.67c2.82-0.12,5.64-0.44,8.47-0.29c0.4,0.02,0.72,0.07,0.79,0.53
		c-0.07,0.55,0.01,1.12-0.27,1.63c-0.37,1.02-1.07,1.81-1.84,2.55c-0.53,0.3-0.72,0.04-0.77-0.46c-0.03-0.35,0.19-0.69,0.03-1.17
		c-1.54,1.68-3.07,3.28-4.47,5c-0.14,0.17-0.05,0.39-0.15,0.57c-0.32,0.27-0.64,0.3-0.97,0.02c-2.21,0.24-4.43,0.45-6.64,0.71
		c-4.19,0.5-8.37,1.03-12.56,1.55c-0.02-0.04-0.02-0.08,0-0.12c-0.08-0.23,0.06-0.38,0.2-0.51c2.82-2.59,5.22-5.59,8-8.22
		c0.44-0.41,0.92-0.76,1.41-1.1C107.61,35.06,107.69,35.06,107.76,35.06z"/>
	<path class="st6" d="M25.66,151.41c0.06,0.42,0.24,0.45,0.52,0.15c2.54-2.65,5.14-5.23,7.59-7.96c1.49-1.66,3.11-3.18,4.57-4.88
		c3.15-3.68,6.44-7.25,9.65-10.89c2.73-3.1,5.45-6.22,8.14-9.35c2.02-2.35,3.97-4.75,5.97-7.12c0.23-0.27,0.53-0.47,0.8-0.71
		c-0.64,1.44-1.79,2.51-2.71,3.74c-2.82,3.75-5.69,7.46-8.59,11.14c-3.24,4.13-6.52,8.23-9.8,12.32c-3.31,4.12-6.62,8.24-9.98,12.32
		c-2.02,2.46-4.13,4.84-6.23,7.23c-0.2,0.23-0.33,0.82-0.89,0.48C24.92,155.72,25.22,153.56,25.66,151.41z"/>
	<path class="st12" d="M33.36,180.73c-2.58,2.2-4.66,4.89-7.1,7.24c-2.58,2.48-4.97,5.16-7.76,7.42c0.44-2.64,0.88-5.28,1.31-7.92
		c0.21-1.28,0.39-2.57,0.59-3.85c-0.07-0.29,0.03-0.54,0.15-0.79c0.81-0.99,1.8-1.8,2.64-2.76c0.3-0.29,0.53-0.73,1.07-0.55
		c2.82-0.21,5.66,0.13,8.47-0.29c0.08-0.01,0.16-0.01,0.24,0c0.4,0.02,0.88-0.03,1.08,0.35c0.2,0.39-0.29,0.59-0.47,0.88
		C33.5,180.54,33.43,180.63,33.36,180.73z"/>
	<path class="st8" d="M74.88,25.18c4.33-0.9,8.72-0.65,13.1-0.67c0.79,0,1.58-0.03,2.38,0.18c0.97,0.26,1.49,0.88,1.7,1.8
		c0.22,0.95-0.25,1.57-1.18,1.64c-5.12,0.34-10.21,0.92-15.3,1.61c-1.45,0.2-2.92,0.33-4.37,0.53c-1.87,0.25-3.12-1.39-2.61-3.37
		C70.7,26.32,72.79,25.75,74.88,25.18z"/>
	<path class="st11" d="M25.47,204.29c2.93-2.82,5.83-5.67,8.78-8.47c5.77-5.47,11.35-11.13,16.97-16.75
		c0.31-0.31,0.59-0.65,0.88-0.97c0.05-0.11,0.12-0.19,0.23-0.25l0.02-0.1c1.02-0.29,2.03-0.94,3.09-0.13
		c-0.44,0.4-0.89,0.79-1.31,1.2c-5.35,5.25-10.67,10.53-16.05,15.75c-3.37,3.27-6.84,6.44-10.26,9.65
		C27.03,204.38,26.25,204.37,25.47,204.29z"/>
	<path class="st13" d="M107.04,175.4c0.82,0.03,1.68,0.29,2.37-0.43c-0.3,2.68-0.64,5.36-0.9,8.05c-0.44,4.47-0.8,8.95-1.42,13.41
		c-0.07,0.51-0.06,1.04-0.04,1.56c0.03,0.82-0.32,0.9-0.94,0.51c-0.13-3.35,0.19-6.68,0.41-10.02c0.17-2.54,0.19-5.1,0.29-7.64
		c0.05-1.31-0.12-2.63,0.2-3.93c0.2-0.79-0.05-1.28-1.04-1.23c-1.31,0.07-2.63,0.01-3.95,0.01c-0.01-0.38,0.29-0.48,0.55-0.5
		C104.07,175.1,105.58,174.84,107.04,175.4z"/>
	<path class="st7" d="M107.05,203.06c-0.7-0.3-1.25,0.19-1.78,0.45c-2.68,1.29-5.59,1.49-8.44,1.96c-1.55,0.26-3.1,0.19-4.65,0.25
		c-0.77,0.03-1.41-0.17-1.93-0.73c2.65-0.51,5.33-0.84,8-1.22c2.81-0.4,5.68-0.57,8.34-1.74c0.12-0.05,0.3,0.05,0.45,0.08
		c0.06,0.05,0.09,0.1,0.07,0.15c-0.02,0.05-0.04,0.08-0.06,0.08C107.05,202.58,107.05,202.82,107.05,203.06z"/>
	<path class="st14" d="M119.04,156.5c-0.48,4.13-0.94,8.26-1.45,12.38c-0.52,4.16-1.1,8.32-1.64,12.48
		c-0.42,3.26-0.83,6.52-1.25,9.78c-0.02,0.14-0.14,0.27-0.21,0.41c-0.15-0.02-0.18-0.16-0.25-0.25c0.08-2.59,0.61-5.12,0.92-7.68
		c0.95-7.85,1.94-15.7,2.98-23.54c0.18-1.37,0.21-2.77,0.65-4.1C118.99,156.09,118.87,156.37,119.04,156.5z"/>
	<path class="st15" d="M57.85,200.66c2.55-0.32,5.09-0.66,7.64-0.95c2.79-0.32,5.58-0.61,8.37-0.9c1.14-0.12,2.29-0.2,3.43-0.3
		c0.14,0.47-0.37,0.26-0.48,0.48c-1.31,0.42-2.68,0.26-4.02,0.44c-1.65,0.22-3.3,0.36-4.95,0.64c-2.37,0.4-4.79,0.5-7.17,0.87
		c-1.66,0.26-3.35,0.01-4.98,0.45c-0.08-0.06-0.12-0.14-0.14-0.24c0.01-0.1,0.06-0.18,0.14-0.24c0.08,0,0.16,0,0.24,0
		C56.54,200.58,57.24,200.99,57.85,200.66z"/>
	<path class="st16" d="M39.37,36.26c-0.02,3.45-0.49,6.87-0.73,10.31c0.48,0.99,0.16,2.03,0.07,3.01c-0.13,1.42,0.12,2.94-0.74,4.23
		c0.02,0.08,0,0.15-0.05,0.21c-0.83-0.49-0.24-1.23-0.17-1.75c0.27-1.92,0.28-3.84,0.4-5.76c0.22-3.52,0.63-7.03,0.55-10.57
		c-0.01-0.58-0.19-1.47,0.67-1.84c0.03,0.06,0.07,0.12,0.1,0.17C39.44,34.93,39.6,35.61,39.37,36.26z"/>
	<path class="st17" d="M123.36,38.65c0.64-0.8,1.28-1.6,1.92-2.39c-0.08,1.88-0.53,3.7-0.77,5.56c-0.71,0.11-1.41,0.22-2.12,0.32
		c-0.02-0.05-0.02-0.11,0.01-0.16c-0.42-0.7,0.37-1.6-0.36-2.25c-0.02-0.47,0.23-0.72,0.66-0.75
		C122.99,38.95,123.24,38.94,123.36,38.65z"/>
	<path class="st18" d="M55.69,201.14c0,0.08,0,0.16,0,0.24c-1.91-0.02-3.74,0.56-5.62,0.8c-2.12,0.26-4.25,0.31-6.35,0.64
		c-1.75,0.27-3.49,0.62-5.29,0.46c0.04-0.07,0.07-0.17,0.11-0.18c0.11-0.03,0.23-0.03,0.35-0.04c3.94-0.55,7.88-1.14,11.84-1.62
		c1.16-0.14,2.37,0.06,3.52-0.29C54.73,200.96,55.21,200.95,55.69,201.14z"/>
	<path class="st19" d="M117.37,17.29c-0.06,0.02-0.13,0.03-0.2,0.03c-3.06,0.19-6.13,0.22-9.17,0.69c-0.74-0.05-1.5,0.12-2.24-0.24
		c4.24-0.5,8.5-0.82,12.96-1.01C118.21,17.24,117.65,16.85,117.37,17.29z"/>
	<path class="st20" d="M90.25,197.78c3.44,0,6.88,0,10.32,0c0,0.16,0.62,0.46-0.05,0.47c-3.17,0.03-6.34,0.01-9.51,0.01
		C90.65,198.25,90.4,198.1,90.25,197.78z"/>
	<path class="st21" d="M23.3,180.26c-0.81,0.96-1.67,1.86-2.63,2.67c-0.34-0.77-0.02-1.48,0.22-2.19c0.34-0.26,0.2-0.63,0.23-0.96
		c0.47-0.41,1.03-0.36,1.58-0.28C23.11,179.56,23.52,179.69,23.3,180.26z"/>
	<path class="st16" d="M89.53,21.38c-2.67,0.92-5.45,1.39-8.16,2.16c-0.32,0-0.64,0-0.96,0l0,0c2.94-1.19,6.04-1.76,9.12-2.4
		c0.06,0.05,0.08,0.11,0.06,0.16C89.57,21.35,89.55,21.38,89.53,21.38z"/>
	<path class="st22" d="M89.53,21.38c0-0.08,0-0.16,0-0.24c1.6-1.05,3.53-1.02,5.27-1.63c0.63-0.22,1.29-0.35,1.95-0.5
		c0.34-0.08,0.69-0.1,0.46,0.44c-1.59,0.12-3.06,0.77-4.59,1.14C91.59,20.85,90.56,21.15,89.53,21.38z"/>
	<path class="st16" d="M63.85,27.86c-2.33,0.97-4.82,1.33-7.26,1.93c-0.23,0.06-0.44,0.15-0.67,0.23c0.01-0.33,0.22-0.53,0.5-0.59
		c2.38-0.56,4.72-1.34,7.18-1.57C63.69,27.77,63.77,27.76,63.85,27.86z"/>
	<path class="st23" d="M114.24,191.3c0.08,0.08,0.17,0.17,0.25,0.25c-0.32,2.42-0.65,4.85-0.96,7.27c-0.04,0.29-0.04,0.57-0.41,0.62
		C113.29,196.69,113.7,193.99,114.24,191.3z"/>
	<path class="st22" d="M54.25,30.26c-0.44,0.57-1.14,0.52-1.73,0.67c-1.57,0.39-3.16,0.68-4.75,1.01c-0.11-0.9,0.7-0.41,0.96-0.5
		C50.51,30.84,52.34,30.33,54.25,30.26z"/>
	<path class="st24" d="M130.81,151.46c0.01-2.35,0.51-4.64,0.73-6.96c0.15-0.14,0.31-0.14,0.46,0c-0.47,1.99-0.42,4.04-0.71,6.05
		C131.24,150.91,131.4,151.38,130.81,151.46z"/>
	<path class="st25" d="M83.29,198.02c1.52,0,3.04,0,4.56,0c0.07,0.24,0.16,0.48-0.25,0.48c-1.36,0-2.71,0-4.07,0
		C83.13,198.5,83.21,198.26,83.29,198.02z"/>
	<path class="st26" d="M128.9,67.7c-0.53,1.62-0.51,3.33-0.7,5c-0.11,0.98-0.45,1.92-0.33,2.92c-0.45-1.08-0.01-2.12,0.09-3.16
		c0.17-1.67,0.19-3.37,0.68-5.01c0.06-0.11,0.14-0.12,0.22-0.02c0.01,0.09,0.02,0.18,0.03,0.28C128.9,67.71,128.9,67.7,128.9,67.7z"
		/>
	<path class="st25" d="M63.85,27.86c-0.08,0-0.16,0-0.25,0c1.41-0.72,2.97-0.92,4.46-1.38c0.43-0.13,0.5,0.04,0.34,0.41
		C66.89,27.26,65.41,27.74,63.85,27.86z"/>
	<path class="st27" d="M134.45,24.42c-0.07,0.57-0.5,0.92-1,1.31c0-0.87,0-1.74,0-2.62C134.11,23.31,134.19,23.93,134.45,24.42z"/>
	<path class="st28" d="M117.57,97.43c-0.04-0.08-0.03-0.15,0.05-0.21c0.25-0.36,0.04-0.78,0.14-1.16c-0.05-0.26-0.1-0.53-0.15-0.79
		c0.05,0,0.1-0.01,0.15,0c0.6-1.1,0.43-2.34,0.72-3.51c0.01,1.92-0.18,3.82-0.63,5.7c-0.05,0.1-0.11,0.11-0.19,0.03L117.57,97.43z"
		/>
	<path class="st29" d="M23.3,180.26c-0.55-0.95-1.46-0.27-2.17-0.48c0.02-0.17,0.03-0.35,0.05-0.52c0.84-0.22,1.72,0.08,2.56-0.17
		c0.17-0.01,0.34-0.01,0.51-0.02c0.16,0.28,0.15,0.47-0.23,0.47C23.78,179.78,23.54,180.02,23.3,180.26z"/>
	<path class="st30" d="M119.76,147.62c0.58,1.48,0.04,2.89-0.23,4.33c-0.18-0.11-0.08-0.36-0.25-0.48
		C119.45,150.18,119.61,148.9,119.76,147.62z"/>
	<path class="st31" d="M119.29,151.46c0.19,0.1,0.23,0.29,0.25,0.48c-0.01,1.22-0.13,2.43-0.48,3.6c-0.19-0.11-0.08-0.35-0.23-0.48
		C118.98,153.86,119.14,152.66,119.29,151.46z"/>
	<path class="st25" d="M79.69,198.26c0.96,0,1.92,0,2.88,0c0.02,0.11,0.06,0.33,0.05,0.33c-0.99,0.23-1.99,0.23-2.98,0
		C79.63,198.59,79.67,198.37,79.69,198.26z"/>
	<path class="st32" d="M112.8,140.9c-0.63,0.56-1.26,1.11-1.89,1.67c0.24-1.03,0.99-1.61,1.71-2.2c0.11-0.09,0.17,0.19,0.21,0.33
		C112.87,140.77,112.86,140.84,112.8,140.9z"/>
	<path class="st16" d="M20.89,180.74c-0.08,0.73-0.15,1.46-0.22,2.19c-0.09,0.23-0.19,0.45-0.28,0.68
		c-0.57-0.87,0.19-1.68,0.12-2.53c-0.03-0.34,0.14-0.69,0.21-1.05C21.03,180.21,20.83,180.51,20.89,180.74z"/>
	<path class="st19" d="M43.21,33.38c-0.64,0.08-1.28,0.16-1.92,0.24C42.01,32.83,42.62,32.75,43.21,33.38z"/>
	<path class="st25" d="M76.81,198.98c0.16-0.16,0.32-0.32,0.48-0.48c0.48,0,0.96,0,1.44,0c0.07,0.24,0.17,0.48-0.24,0.48
		C77.93,198.97,77.37,198.98,76.81,198.98z"/>
	<path class="st17" d="M23.74,179.09c-0.83,0.41-1.71,0.13-2.56,0.17c-0.02-0.07-0.01-0.13,0.04-0.19
		C22.05,179.07,22.89,179.08,23.74,179.09z"/>
	<path class="st19" d="M41.05,33.86c-0.48,0.08-0.96,0.16-1.44,0.25c-0.08,0.11-0.16,0.11-0.24-0.01c0,0,0,0,0,0
		c0.32-0.19,0.64-0.38,0.96-0.57C40.72,33.31,40.98,33.37,41.05,33.86z"/>
	<path class="st33" d="M132.01,144.5c-0.15,0-0.31,0-0.46,0c0.07-0.56,0.15-1.12,0.22-1.68
		C132.23,143.32,131.91,143.94,132.01,144.5z"/>
	<path class="st34" d="M17.08,211.01c0.28,0,0.63-0.19,0.78,0.17c0.04,0.1-0.22,0.34-0.34,0.51
		C17.24,211.56,17.05,211.36,17.08,211.01z"/>
	<path class="st35" d="M114.21,129.06c-0.04-0.07-0.03-0.12,0.03-0.17c0.45,0.44,0.22,0.94,0.08,1.43
		C114.28,129.91,114.24,129.49,114.21,129.06z"/>
	<path class="st36" d="M114.82,124.79c0.2,0.67,0.18,1.04,0,1.43C114.82,125.84,114.82,125.48,114.82,124.79z"/>
	<path class="st37" d="M111.24,160.89c-0.14-0.48-0.17-0.88,0.02-1.35C111.41,160.02,111.43,160.42,111.24,160.89z"/>
	<path class="st38" d="M114.55,128.39c0-0.37,0-0.75,0-1.19C114.91,127.6,114.6,128,114.55,128.39z"/>
	<path class="st39" d="M122.78,217.97c0.22,0.05,0.31,0.17,0.31,0.34c0,0.19-0.13,0.31-0.29,0.21c-0.11-0.07-0.17-0.24-0.21-0.38
		C122.57,218.09,122.73,218.01,122.78,217.97z"/>
	<path class="st25" d="M141.06,65.25c-0.23-0.35-0.19-0.72-0.12-1.16C141.31,64.48,141,64.88,141.06,65.25z"/>
	<path class="st37" d="M115.1,123.06c0.15,0.48,0.17,0.88-0.02,1.35C114.94,123.93,114.91,123.53,115.1,123.06z"/>
	<path class="st40" d="M133.73,22.52c0.06,0.24-0.06,0.27-0.18,0.27c-0.18,0-0.29-0.11-0.31-0.29c-0.01-0.13,0.02-0.27,0.18-0.22
		C133.55,22.33,133.65,22.46,133.73,22.52z"/>
	<path class="st41" d="M117.33,99.79c0.01-0.14,0.02-0.27,0.03-0.41c0.39,0.33,0.24,0.75,0.2,1.18
		C117.25,100.34,117.45,100.02,117.33,99.79z"/>
	<path class="st39" d="M128.87,67.44c-0.07,0.02-0.15,0.02-0.22,0.02c0-0.38,0-0.77,0-1.39C128.97,66.65,128.84,67.06,128.87,67.44z
		"/>
	<path class="st42" d="M107.05,202.34c0-0.08,0-0.16-0.01-0.24c0.07-0.13,0.14-0.25,0.21-0.38c0.08,0.07,0.21,0.13,0.22,0.2
		C107.53,202.25,107.29,202.3,107.05,202.34z"/>
	<path class="st39" d="M108.72,202.59c-0.16,0-0.31-0.01-0.47-0.01c0.02-0.3,0.14-0.54,0.49-0.41
		C108.99,202.26,108.88,202.45,108.72,202.59z"/>
	<path class="st20" d="M124.52,206.93c0,0.3,0,0.6,0,0.9c-0.04,0-0.08,0-0.12,0c0-0.3,0-0.6,0-0.91
		C124.45,206.93,124.48,206.93,124.52,206.93z"/>
	<path class="st20" d="M124.26,209.74c-0.22-0.27-0.19-0.57-0.11-0.89C124.53,209.11,124.19,209.45,124.26,209.74z"/>
	<path class="st33" d="M129.16,65.11c0.01,0.07,0.01,0.13-0.02,0.2c-0.39-0.33-0.25-0.75-0.09-1.17
		C129.09,64.46,129.12,64.79,129.16,65.11z"/>
	<path class="st43" d="M117.66,97.49c0.06-0.02,0.12-0.03,0.19-0.03c0,0.38,0,0.77,0,1.42C117.54,98.26,117.65,97.87,117.66,97.49z"
		/>
	<path class="st25" d="M141.37,62.26c-0.02,0.3-0.04,0.6-0.06,1.03C141.04,62.82,141.15,62.49,141.37,62.26z"/>
	<path class="st44" d="M118.83,155.07c0.08,0.16,0.15,0.32,0.23,0.48c0,0.32-0.01,0.63-0.01,0.95c-0.21-0.11-0.23-0.32-0.25-0.52
		C118.8,155.67,118.82,155.37,118.83,155.07z"/>
	<path class="st45" d="M122.82,56.16c-0.2-0.22-0.2-0.46-0.07-0.72C123.02,55.65,122.8,55.91,122.82,56.16z"/>
	<path class="st16" d="M80.41,23.54c-0.14,0.69-0.47,0.14-0.73,0.04C79.92,23.56,80.16,23.55,80.41,23.54
		C80.41,23.54,80.41,23.54,80.41,23.54z"/>
	<path class="st46" d="M27.46,136.31c0.2,0.26,0.17,0.51,0.04,0.79C27.3,136.83,27.33,136.58,27.46,136.31z"/>
	<path class="st47" d="M35.06,81.87c-0.33-0.27-0.29-0.6-0.11-1.16C35,81.24,35.03,81.55,35.06,81.87
		C35.06,81.87,35.06,81.87,35.06,81.87z"/>
	<path class="st16" d="M37.71,55.73c-0.33-0.3-0.34-0.63-0.08-1.13C37.66,55.06,37.69,55.39,37.71,55.73
		C37.71,55.73,37.71,55.73,37.71,55.73z"/>
	<path class="st48" d="M32.2,105.19c0.05,0.31,0.1,0.61-0.07,0.9C31.89,105.76,31.73,105.45,32.2,105.19z"/>
	<path class="st49" d="M27.68,134.92c0.2,0.22,0.2,0.46,0.07,0.72C27.48,135.42,27.69,135.17,27.68,134.92z"/>
	<path class="st5" d="M117.12,42.76c0.32-0.09,0.7,0.06,0.96-0.24c0.62-0.41,1.25-0.58,1.93-0.14c-1.1,1.86-2.74,3.29-4.04,4.99
		c-4.19,5.47-8.93,10.47-13.25,15.83c-3.59,4.46-7.42,8.73-11.11,13.11c-3.56,4.23-7.08,8.49-10.62,12.74
		c-2.88,3.45-5.76,6.9-8.65,10.35c-0.23,0.27-0.54,0.47-0.81,0.7c0.79-1.62,2.14-2.84,3.21-4.25c2.69-3.55,5.47-7.02,8.24-10.5
		c3.68-4.64,7.39-9.25,11.06-13.9c2.9-3.68,5.77-7.39,8.64-11.1c2.85-3.68,5.74-7.31,8.76-10.85
		C113.34,47.26,115.23,45.01,117.12,42.76z"/>
	<path class="st50" d="M120.01,42.38c-0.64,0.05-1.28,0.09-1.93,0.14c-0.33-0.05-0.4-0.19-0.16-0.45c1.64-1.83,3.27-3.67,4.98-5.58
		c0.37,0.67,0.17,1.18,0.03,1.7c-0.08,0.31-0.14,0.71,0.43,0.47c-0.03,0.77-1.31,0.29-1.2,1.2c-0.04,0.99-0.74,1.53-1.47,2.14
		c-0.08,0.03,0.19,0.08,0.08-0.02c0.48-0.36,0.95-0.32,1.39,0.08C121.49,42.43,120.71,42.13,120.01,42.38z"/>
	<path class="st17" d="M24.01,179.54c0.08-0.16,0.16-0.31,0.23-0.47c0.16-0.04,0.31-0.07,0.47-0.11c2.77-0.08,5.54-0.16,8.3-0.25
		c0.67-0.02,1.34-0.06,2.01-0.09c0.15,0.14,0.12,0.28,0,0.42c-0.83,0.29-0.82,1.42-1.68,1.68c-0.01-0.44,0.4-0.66,0.59-1.07
		c-1.07-0.39-2.06,0.09-3.06,0.12c-2.14,0.07-4.3-0.23-6.43,0.19C24.16,180.03,24.04,179.81,24.01,179.54z"/>
	<path class="st51" d="M122.17,42.05c-0.49,0-0.98,0-1.64,0c0.63-0.84,1.13-1.51,1.64-2.19c0.28-0.06,0.74-0.5,0.58,0.3
		c-0.12,0.61-0.23,1.21-0.34,1.82C122.33,42,122.25,42.02,122.17,42.05z"/>
	<path class="st52" d="M37.97,53.81c0.22-2.41,0.45-4.83,0.67-7.24c3.24-0.96,6.57-1.5,9.88-2.14c5.1-0.98,10.2-1.97,15.32-2.83
		c6.64-1.12,13.31-2.12,19.96-3.2c2.74-0.44,5.47-0.94,8.23-1.23c0.77-0.08,1.52-0.45,2.27-0.69c0,0.08,0.01,0.17,0.01,0.25
		c-0.61,0.92-1.59,1.42-2.38,2.14c-2.72,2.52-5.53,4.95-8.31,7.4c-0.32,0.28-0.71,0.33-1.05,0.53c-0.16,0.08-0.32,0.16-0.48,0.24
		c-3.15,0.19-6.24,0.81-9.36,1.22c-8.14,1.07-16.27,2.19-24.4,3.35c-3.08,0.44-6.15,0.93-9.17,1.68
		C38.74,53.41,38.31,53.5,37.97,53.81z"/>
	<path class="st8" d="M82.58,46.81c3.29-2.93,6.59-5.86,9.87-8.81c0.57-0.51,1.19-0.94,1.87-1.28c1.93-0.24,3.86-0.45,5.78-0.73
		c2.12-0.31,4.25-0.55,6.39-0.71c0.35-0.03,0.7-0.14,1.05-0.22c-3.26,3.22-6.19,6.77-9.62,9.83c-2.96,0.57-5.98,0.77-8.97,1.18
		C86.84,46.36,84.71,46.57,82.58,46.81z"/>
	<path class="st53" d="M35.04,179.05c0-0.14,0-0.28,0-0.42c0.16-0.03,0.33-0.06,0.49-0.1c4.37-0.23,8.74-0.23,13.1-0.62
		c1.23-0.11,2.47-0.04,3.7-0.05c-0.08,0.08-0.15,0.16-0.23,0.25c-2.35,0.02-4.65,0.45-6.98,0.63c-2.22,0.17-4.43,0.36-6.64,0.55
		c-0.95,0.08-1.91-0.09-2.85,0.21C35.36,179.59,34.81,179.74,35.04,179.05z"/>
	<path class="st5" d="M55.45,177.64c-1.03,0.04-2.06,0.09-3.09,0.13c1.41-1.01,2.57-2.29,3.7-3.58c0.95-1.08,1.96-2.1,2.96-3.13
		c3.43-3.52,6.88-7.02,10.29-10.55c3.3-3.42,6.6-6.83,9.82-10.32c3.25-3.52,6.62-6.92,9.9-10.41c4.02-4.28,8.1-8.49,12.22-12.67
		c3.42-3.47,6.74-7.03,10.1-10.55c0.19-0.2,0.39-0.41,0.6-0.58c0.11-0.09,0.3-0.18,0.41-0.15c0.25,0.08,0.15,0.31,0.12,0.51
		c-0.16,1.3-0.31,2.59-0.49,4.1c1.31-0.73,1.93-1.9,2.97-2.58c0,0.39,0,0.79,0,0.84c-1.49,0.62-2.22,2.1-3.6,2.52
		c-0.03,0.78-0.65,1.16-1.12,1.63c-8.61,8.63-17.34,17.14-25.83,25.89c-9.07,9.35-18.4,18.45-27.55,27.73
		c-0.42,0.42-0.79,0.91-1.42,1.06L55.45,177.64z"/>
	<path class="st1" d="M117.75,96.06c0.12,0.41,0.23,0.81-0.14,1.16C117.66,96.83,117.71,96.45,117.75,96.06z"/>
	<path class="st3" d="M55.46,177.53c8.27-8.29,16.63-16.5,24.79-24.89c9.97-10.26,20.19-20.27,30.25-30.44
		c0.31-0.31,0.58-0.65,0.86-0.98c0.61,0.08,0.5,0.55,0.46,0.92c-0.31,2.72-0.62,5.44-0.99,8.15c-0.44,3.3-0.88,6.6-1.41,9.89
		c-0.77,4.83-1.26,9.67-1.48,14.56c-0.16,3.53-0.46,7.05-0.7,10.58c-0.2,2.9-0.49,5.78-0.45,8.69c0.01,0.48-0.07,0.96,0.23,1.39
		c-1.67,0.19-3.36-0.16-5.02,0.27c-9.74,0.34-19.48,0.64-29.22,1.02c-5.39,0.21-10.77,0.57-16.15,0.86
		C56.26,177.58,55.86,177.54,55.46,177.53z"/>
	<path class="st8" d="M69.11,189.42c0.04,3.72-1.33,6.59-4.88,8.16c-3.78,1.67-7.45,0.23-9.08-3.57c-1.33-3.09-0.55-7.4,1.79-9.82
		c2.15-2.22,5.2-2.89,8.01-1.76C67.32,183.38,69.13,186.43,69.11,189.42z"/>
	<path class="st1" d="M57.85,200.66c-0.59,0.48-1.28,0.13-1.92,0.24C56.52,200.42,57.21,200.76,57.85,200.66z"/>
	<path class="st1" d="M55.69,201.14c-0.48,0-0.96,0-1.44,0c0.42-0.43,0.96-0.16,1.44-0.24C55.69,200.98,55.69,201.06,55.69,201.14z"
		/>
	<path class="st8" d="M110.17,22.82c0.15,0.17,0.31,0.33,0.46,0.5c-1.22,0.83-2.61,1.45-3.34,2.86c-0.68,0.02-0.31-0.77-0.73-0.95
		c-0.49-0.93-0.16-1.7,0.55-2.32C108.08,22.05,109.13,22.19,110.17,22.82z"/>
	<path class="st1" d="M39.37,34.1c0.08,0,0.16,0,0.24,0.01c-0.11,0.71,0.24,1.48-0.24,2.15C39.37,35.54,39.37,34.82,39.37,34.1z"/>
	<path class="st54" d="M107.29,26.17c-0.06-0.18-0.21-0.49-0.15-0.53c1.08-0.9,1.93-2.16,3.49-2.32c0.38,1.28-0.08,2.2-1.18,2.86
		C108.73,26.36,108.01,26.37,107.29,26.17L107.29,26.17z"/>
	<path class="st8" d="M107.29,26.17c0.72,0,1.44,0,2.16,0.01C108.73,26.56,108.01,26.58,107.29,26.17z"/>
	<path class="st55" d="M110.63,118.08c0.29-0.76,0.64-1.03,1.31-0.86C111.74,117.77,111.31,117.93,110.63,118.08z"/>
	<path class="st7" d="M66.73,190.18c-0.01,3.03-2.05,5.2-4.69,5.44c-2.52,0.23-4.88-1.62-5.41-4.11c-0.62-2.94,1.07-6.28,3.54-7.28
		c1.93-0.78,4.38-0.07,5.29,1.78C66.17,187.43,66.6,188.98,66.73,190.18z"/>
</g>
</svg>
