<?xml version="1.0" encoding="utf-8"?>
<!-- Generator: Adobe Illustrator 23.0.2, SVG Export Plug-In . SVG Version: 6.00 Build 0)  -->
<svg version="1.1" id="Camada_1" xmlns="http://www.w3.org/2000/svg" xmlns:xlink="http://www.w3.org/1999/xlink" x="0px" y="0px"
	 viewBox="0 0 111.41 152.44" style="enable-background:new 0 0 111.41 152.44;" xml:space="preserve">
<style type="text/css">
	.st0{fill:#DBDBDB;}
	.st1{fill:#D9D9D9;}
	.st2{fill:#FEFEFE;}
	.st3{fill:#7D7D7D;}
	.st4{fill:#30B0CC;}
	.st5{fill:#186199;}
	.st6{fill:#933254;}
	.st7{fill:#1F78A8;}
	.st8{fill:#A03759;}
	.st9{fill:#7E7E7E;}
	.st10{fill:#973456;}
	.st11{fill:#2FADCA;}
	.st12{fill:#19639B;}
	.st13{fill:#943355;}
	.st14{fill:#A5395B;}
	.st15{fill:#19649B;}
	.st16{fill:#9B3557;}
	.st17{fill:#1A679D;}
	.st18{fill:#2EA9C8;}
	.st19{fill:#1E73A5;}
	.st20{fill:#1E74A6;}
	.st21{fill:#AA3B5D;}
	.st22{fill:#1B6A9F;}
	.st23{fill:#2CA4C4;}
	.st24{fill:#1C6EA2;}
	.st25{fill:#1C70A3;}
	.st26{fill:#2A9EC1;}
	.st27{fill:#9C3658;}
	.st28{fill:#1B6BA0;}
	.st29{fill:#2EAAC8;}
	.st30{fill:#2CA5C5;}
	.st31{fill:#268FB7;}
	.st32{fill:#2795BA;}
	.st33{fill:#2384B0;}
	.st34{fill:#2999BD;}
	.st35{fill:#2180AD;}
	.st36{fill:#2489B3;}
	.st37{fill:#2A9EC0;}
	.st38{fill:#217FAD;}
	.st39{fill:#207BAA;}
	.st40{fill:#2077A7;}
	.st41{fill:#258DB5;}
	.st42{fill:#2488B2;}
	.st43{fill:#2998BD;}
	.st44{fill:#2794BA;}
	.st45{fill:#C2C2C2;}
	.st46{fill:#1992B5;}
	.st47{fill:#C3C3C2;}
	.st48{fill:#7F7F7F;}
	.st49{fill:#515151;}
	.st50{fill:#3CF0ED;}
	.st51{fill:#3AEDEC;}
	.st52{fill:#1994B6;}
	.st53{fill:#1A4B78;}
	.st54{fill:#D15682;}
	.st55{fill:#FDFDFD;}
	.st56{fill:#21AEC1;}
	.st57{fill:#22B2C2;}
	.st58{fill:#22B3C3;}
	.st59{fill:#20ACC0;}
	.st60{fill:#D55B86;}
	.st61{fill:#1EA3BC;}
	.st62{fill:#D35884;}
	.st63{fill:#838280;}
	.st64{fill:#1A96B7;}
	.st65{fill:#1B9AB8;}
	.st66{fill:#878683;}
	.st67{fill:#22B5DA;}
	.st68{fill:#37E6EA;}
	.st69{fill:#39E9EB;}
	.st70{fill:#1FA7BE;}
	.st71{fill:#1FA8BE;}
	.st72{fill:#24BEDF;}
	.st73{fill:#34E1E9;}
	.st74{fill:#1FA4BD;}
	.st75{fill:#32DDE8;}
	.st76{fill:#38E9EB;}
	.st77{fill:#2ED3E5;}
	.st78{fill:#30D8E6;}
	.st79{fill:#2ACBE3;}
	.st80{fill:#2CD0E4;}
	.st81{fill:#2BCDE4;}
	.st82{fill:#23B6C4;}
	.st83{fill:#24BAC6;}
	.st84{fill:#26BFC8;}
	.st85{fill:#28C5CA;}
	.st86{fill:#2CCBCD;}
	.st87{fill:#C5C5C4;}
	.st88{fill:#8D8A85;}
	.st89{fill:#828280;}
	.st90{fill:#858482;}
	.st91{fill:#888683;}
	.st92{fill:#8A8884;}
	.st93{fill:#8B8884;}
	.st94{fill:#686764;}
	.st95{fill:#454441;}
	.st96{fill:#1A95B6;}
	.st97{fill:#20B6DD;}
	.st98{fill:#25C0E0;}
	.st99{fill:#28C8E2;}
	.st100{fill:#27C4E1;}
	.st101{fill:#1DA1BB;}
	.st102{fill:#36E5EA;}
	.st103{fill:#1C9DBA;}
	.st104{fill:#1FA6BE;}
	.st105{fill:#35E2E9;}
	.st106{fill:#20AABF;}
	.st107{fill:#33DEE8;}
	.st108{fill:#21AFC1;}
	.st109{fill:#23B7C4;}
	.st110{fill:#31D9E7;}
	.st111{fill:#1E9EBA;}
	.st112{fill:#2ED3E4;}
	.st113{fill:#25BEC8;}
	.st114{fill:#27C6CB;}
	.st115{fill:#2DD9D3;}
	.st116{fill:#2BD4D0;}
	.st117{fill:#2EDDD4;}
	.st118{fill:#2ACFCF;}
	.st119{fill:#23B5C4;}
	.st120{fill:#24B9C5;}
	.st121{fill:#29CBCD;}
	.st122{fill:#24BBC6;}
	.st123{fill:#26C0C8;}
	.st124{fill:#2ACECF;}
	.st125{fill:#2CD5D1;}
	.st126{fill:#2D75A0;}
	.st127{fill:#908D87;}
	.st128{fill:#928F88;}
	.st129{fill:#68595A;}
	.st130{fill:#6B5A5E;}
	.st131{fill:#23BCDF;}
	.st132{fill:#24BDDF;}
	.st133{fill:#21B9DE;}
</style>
<g>
	<path class="st0" d="M37.7,152.42c1.04-0.4,2.08-0.39,3.12,0C39.78,152.42,38.74,152.42,37.7,152.42z"/>
	<path class="st1" d="M0.02,25.7c0.38,0.8,0.37,1.6,0,2.4C0.02,27.3,0.02,26.5,0.02,25.7z"/>
	<path class="st2" d="M39.28,146.44c-4.37,0.21-8.73-0.91-13.08-2.15c-1.85-0.53-3.31-1.77-4.78-2.93c-2.85-2.24-5.4-4.85-7.01-8.09
		c-0.96-1.94-1.59-4.17-1.31-6.48c0.05-0.39,0.03-0.8,0.04-1.2c0.1-4.47,0.18-8.95,0.31-13.42c0.13-4.63,0.29-9.26,0.48-13.89
		c0.22-5.34,0.45-10.68,0.72-16.02c0.29-5.62,0.6-11.23,0.96-16.84c0.36-5.49,0.78-10.98,1.2-16.46c0.11-1.47,0.27-2.94,0.48-4.4
		c0.1-0.72-0.15-1.06-0.78-1.37c-3.13-1.55-5.81-3.68-7.71-6.65c-2.47-3.86-3.41-8.07-2.52-12.57c1.48-7.51,5.9-12.86,12.71-16.1
		c3.25-1.54,6.8-2.23,10.49-1.2c2.11,0.59,4.26,1.01,6.3,1.85c2.95,1.22,5.33,3.19,7.39,5.57c3.08,3.55,5.01,7.68,5.7,12.33
		c0.25,1.69,0.31,3.43-0.09,5.12c-0.19,0.8,0,1.3,0.57,1.87c4.12,4.07,8.29,8.11,12.28,12.3c4.73,4.97,9.41,10,14.01,15.11
		c5.45,6.05,10.83,12.16,15.87,18.57c2.37,3.02,4.7,6.06,7,9.14c1.5,2.02,3.13,3.94,4.53,6.04c1.56,2.36,2.17,5.01,2.07,7.72
		c-0.11,3.11-0.88,6.16-1.81,9.13c-0.97,3.08-3.14,5.45-5.19,7.84c-4.86,5.67-10.78,10.1-17.04,14.05
		c-5.65,3.56-11.6,6.54-17.94,8.72c-5.07,1.74-10.26,2.99-15.53,3.86C44.93,146.32,42.22,146.54,39.28,146.44z"/>
	<path d="M39.11,140.71c-3.04,0.08-6.39-0.4-9.67-1.33c-3.06-0.87-5.18-3.04-7.3-5.22c-1.55-1.59-2.86-3.3-3.3-5.56
		c-0.15-0.78,0.03-1.51,0.05-2.26c0.09-4.51,0.19-9.03,0.32-13.54c0.14-4.87,0.3-9.74,0.5-14.61c0.21-5.26,0.45-10.52,0.72-15.78
		c0.29-5.65,0.6-11.31,0.97-16.96c0.36-5.49,0.76-10.98,1.21-16.46c0.22-2.74,0.56-5.47,0.91-8.19c0.12-0.97-0.04-1.48-1.15-1.68
		c-3.27-0.57-5.98-2.22-8.07-4.76c-2.86-3.48-3.33-7.5-1.81-11.61c1.26-3.41,3.46-6.23,6.53-8.34c3.49-2.4,7.16-2.93,11.25-1.8
		c7.13,1.98,11.16,6.81,12.82,13.75c0.59,2.45,0.36,5.02-0.68,7.41c-0.28,0.65-0.1,0.97,0.37,1.4c4.92,4.46,9.51,9.24,14.12,14.01
		c2.19,2.26,4.39,4.51,6.53,6.83c4.65,5.05,9.27,10.12,13.83,15.25c5.8,6.55,11.21,13.41,16.49,20.37c1.16,1.52,2.25,3.11,3.5,4.56
		c2.29,2.64,2.35,5.6,1.85,8.88c-0.67,4.4-2.87,7.81-5.8,10.99c-5.3,5.75-11.49,10.31-18.25,14.16c-5.02,2.86-10.21,5.34-15.71,7.11
		c-4.13,1.34-8.34,2.4-12.68,2.91C44.26,140.48,41.88,140.71,39.11,140.71z"/>
	<path class="st3" d="M94.37,105.86c-0.03,1.21-0.58,2.23-1.23,3.2c-3.06,4.53-7.01,8.2-11.37,11.41
		c-9,6.63-18.83,11.58-29.72,14.29c-5.58,1.39-11.24,2.06-16.99,1.35c-3.36-0.41-6.53-1.29-8.7-4.19c-0.33-0.44-1.11-0.35-1.2-1.05
		c-0.83-1.6-0.63-3.22,0.15-4.71c2.11-3.99,4.27-7.95,6.8-11.69c1-1.48,2.62-2.43,3.81-3.78c0.37-0.42,0.84-0.74,1.04-1.3
		c0.32-0.54,0.71-0.98,1.41-0.97c0.7,0.74,1.68,0.97,2.58,1.32c0.7,0.27,1.37,0.57,1.85,1.18c-0.06,0.73-0.73,0.9-1.19,1.23
		c-3.54,2.49-6.84,5.24-9.47,8.73c-1.17,1.55-2.04,3.24-2.4,5.17c-0.18,0.51-0.14,1.02,0.05,1.52c0.3,1.53,1.26,2.42,2.69,2.89
		c2.6,0.85,5.27,1.16,7.99,0.89c1.66-0.16,3.33-0.21,4.97-0.54c6.23-1.03,12.14-3.08,17.86-5.71c6.94-3.2,13.34-7.25,19.16-12.2
		c1.09-0.93,2.01-2.06,3.07-3.03c0.45-0.32,0.74-0.88,1.35-0.99c0.94-0.07,1.87-0.15,2.57-0.9c0.17-0.18,0.36-0.37,0.6-0.33
		c1.08,0.19,1.78-0.49,2.52-1.07C93.11,106.16,93.71,105.94,94.37,105.86z"/>
	<path class="st4" d="M52.4,50.87c3.71,3.56,7.14,7.38,10.64,11.15c1.93,2.07,3.81,4.18,5.7,6.29c0.31,0.35,0.58,0.74,0.87,1.12
		c0.03,0.74-0.57,0.89-1.08,1.08c-1.28,0.49-2.64,0.62-3.99,0.78c-0.12,0-0.24-0.01-0.36-0.04c-0.62-0.18-0.94-0.71-1.33-1.15
		c-2.86-3.29-5.76-6.55-8.57-9.89c-1.14-1.57-2.46-3-3.8-4.4c-0.35-0.4-0.81-0.73-0.66-1.37c0.44-1.02,0.82-2.08,1.54-2.96
		C51.63,51.16,51.84,50.71,52.4,50.87z"/>
	<path class="st5" d="M37.18,109.45c0.05,0.58-0.42,0.86-0.77,1.13c-3.94,3.16-6.36,7.44-8.68,11.8c-0.54,1.02-1.13,2-1.74,2.99
		c-1.06,1.72-1.23,3.57-0.83,5.5c-1.33-1.28-2.11-2.62-2-4.69c0.36-6.69,0.41-13.4,0.61-20.1c0.13-4.23,0.32-8.45,0.49-12.67
		c0.01-0.35-0.02-0.72,0.2-1.04c0.17,0.12,0.3,0.31,0.28,0.5c-0.19,1.51,0.63,2.55,1.61,3.52c0.22,1.86-0.12,3.7-0.23,5.54
		c-0.03,0.43-0.11,0.86-0.09,1.3c-0.07,2.59-0.27,5.17-0.5,7.74c-0.13,2.1-0.23,4.21-0.41,6.32c-0.05,0.56-0.33,1.28,0.42,1.57
		c0.75,0.29,1.4-0.01,1.86-0.68c0.25-0.36,0.46-0.75,0.79-1.05c0.35-0.3,0.71-0.6,0.87-1.05c2.18-2.18,4.33-4.4,6.83-6.23
		C36.28,109.59,36.63,109.14,37.18,109.45z"/>
	<path class="st6" d="M16.82,30.03c-0.92-1.58-1.03-3.29-0.47-4.96c1.33-3.94,3.85-6.85,7.79-8.38c1.41-0.55,2.89-0.59,4.33-0.05
		c1.62,0.61,3.47,0.71,4.77,2.06c-0.99,0.95-2.13,1.73-3.08,2.73c-0.45,0.48-1.13,0.72-1.84,0.69c-1.37-0.45-2.73-0.59-4.06,0.15
		c-1.52,0.7-2.53,1.91-3.37,3.3c-0.2,0.34-0.31,0.73-0.61,1.01C18.47,27.09,18.16,29.08,16.82,30.03z"/>
	<path class="st7" d="M26.4,58.04c-0.03-2.23,0.16-4.45,0.48-6.66c0.33-1.62,0.77-3.2,1.48-4.69c0.19-0.41,0.32-1.17,1.12-0.65
		c0.29,0.89,0.23,1.81,0.11,2.7c-0.16,1.22-0.2,2.44-0.21,3.66c0,0.21-0.03,0.42-0.08,0.62c-0.17,0.46-0.17,0.93-0.14,1.41
		c0.13,1.56-0.32,3.1-0.24,4.66c-0.15,1.67-0.25,3.34-0.3,5.01c-0.31,0.89-0.11,1.8-0.19,2.7c-0.04,0.52,0.12,1.14-0.53,1.44
		c-0.39-0.12-0.53-0.46-0.62-0.81C26.46,64.35,26.16,61.22,26.4,58.04z"/>
	<path class="st8" d="M28.1,35.3c-0.08,0.01-0.16,0.02-0.23,0.03c-0.35-0.38-0.18-0.75,0.07-1.06c0.53-0.65,0.83-1.41,1.14-2.17
		c0.34-0.24,0.78-0.2,1.14-0.38c0.14-0.07,0.29-0.14,0.44-0.19c1.83-0.65,3.03-1.72,2.63-3.88c1.17-0.95,2.29-1.95,3.57-2.75
		c0.33-0.2,0.62-0.52,1.07-0.39c0.33,0.77,0.83,1.49,0.76,2.39c-0.71,1.21-1.96,1.85-2.95,2.76c-1.62,1.5-3.03,3.17-4.43,4.92
		c0.36,0.35,0.8,0.11,1.14,0.26c0.25,0.11,0.72,0.13,0.34,0.61c-0.35,0.19-0.73,0.16-1.1,0.19c-0.51,0-1.02,0-1.53-0.01
		c-0.25,0-0.49,0-0.74-0.02C28.93,35.7,28.59,35.18,28.1,35.3z"/>
	<path class="st9" d="M94.37,105.86c-1.02,0.5-1.95,1.11-2.8,1.85c-0.06,0.05-0.14,0.1-0.21,0.1c-1.48,0.05-2.55,1.1-3.87,1.54
		c-0.34,0.11-0.48-0.17-0.6-0.43c-0.01-0.7,0.5-1.17,0.87-1.62c1-1.22,1.61-2.61,2.08-4.08c0.43-0.79,0.92-1.53,1.83-1.83
		c1.09,0.25,1.41,1.31,2.06,2c0.34,0.36,0.66,0.79,0.85,1.27C94.59,105.08,94.64,105.5,94.37,105.86z"/>
	<path class="st10" d="M28.34,21.86c1-0.07,1.74-0.58,2.37-1.35c0.67-0.82,1.49-1.46,2.52-1.8c1.21,0.86,2.43,1.72,3.07,3.14
		c-1.28,1.24-2.58,2.47-4.31,3.08c-0.58-0.09-0.83-0.59-1.19-0.95c-0.62-0.52-1.22-1.07-1.95-1.45
		C28.6,22.39,28.25,22.28,28.34,21.86z"/>
	<path class="st11" d="M64.31,71.07c1.37-0.37,2.82-0.32,4.16-0.86c0.45-0.18,0.89-0.32,1.13-0.79c1.11,0.97,2.09,2.06,2.9,3.3
		c0.1,0.6-0.38,0.73-0.76,0.88c-1.34,0.56-2.69,1.1-4.16,1.23C66.51,74.42,64.58,72.2,64.31,71.07z"/>
	<path class="st12" d="M94.59,104.67c-0.91-0.47-1.2-1.48-1.88-2.15c-0.33-0.32-0.58-0.73-0.97-0.99c-1.28-0.74-2.52-1.54-3.28-2.87
		c0.8-1.17,2.17-1.56,3.24-2.37c0.7,0.91,1.35,1.87,2.1,2.73C95.32,100.74,95.36,102.64,94.59,104.67z"/>
	<path class="st13" d="M16.82,30.03c-0.02-0.42,0.08-0.76,0.49-0.99c0.26-0.15,0.62-0.4,0.65-0.64c0.17-1.34,1.22-1.61,2.21-1.98
		c0.33,1.82,1.56,2.99,2.94,4.05c0.06,0.26-0.04,0.49-0.22,0.63c-0.73,0.59-1.17,1.35-1.45,2.23c-0.08,0.26-0.26,0.48-0.56,0.56
		C19.05,33.11,17.63,31.9,16.82,30.03z"/>
	<path class="st14" d="M32.9,35.25c-0.38-0.31-0.84-0.13-1.26-0.19c-0.25-0.04-0.62,0.17-0.7-0.21c-0.05-0.25,0.09-0.5,0.29-0.74
		c2.2-2.7,4.59-5.2,7.46-7.21c0.2,1.29,0.5,2.59-0.01,3.88c-0.34-0.38-0.66-0.51-1.1-0.1c-1.2,1.12-2.36,2.26-3.45,3.49
		c-0.38,0.43,0.02,0.96-0.4,1.29C33.4,35.55,33.11,35.56,32.9,35.25z"/>
	<path class="st15" d="M26.17,96.26c-1.04-0.5-1.79-1.18-1.67-2.48c0.04-0.47-0.01-0.94-0.02-1.41c-0.08-2.31,0.01-4.61,0.26-6.91
		c1.07,0.36,1.31,1.52,2.08,2.17c0.05,0.12,0.09,0.24,0.12,0.36c0.04,0.2,0.05,0.4,0.06,0.6c-0.01,1.82-0.28,3.63-0.28,5.46
		C26.48,94.77,26.72,95.61,26.17,96.26z"/>
	<path class="st16" d="M31.92,24.75c1.41-0.26,2.01-1.71,3.28-2.22c0.37-0.15,0.7-0.5,1.1-0.68c0.82,0.71,1.22,1.69,1.63,2.66
		c-1.15,0.89-2.49,1.53-3.49,2.63c-0.26,0.29-0.65,0.45-1.06,0.48c-0.57,0-0.51-0.54-0.71-0.85C32.5,26.07,31.76,25.57,31.92,24.75z
		"/>
	<path class="st17" d="M91.7,96.28c-0.48,1.13-1.8,1.17-2.54,1.96c-0.16,0.17-0.38,0.27-0.57,0.41c-0.45,0.35-0.75-0.07-1.1-0.22
		c-0.51-0.49-1.38-0.56-1.62-1.37c0.3-0.36-0.18-0.64-0.11-0.99c1.06-1.32,2.36-2.21,4.12-2.25C90.59,94.57,91.16,95.41,91.7,96.28z
		"/>
	<path class="st11" d="M52.4,50.87c-0.92,0.64-1.38,1.6-1.82,2.57c-0.17,0.38-0.15,0.89-0.66,1.07c-1.35-0.69-2.29-1.74-2.8-3.17
		c0.38-1,0.98-1.87,1.65-2.7c0.23-0.28,0.46-0.7,0.95-0.38C50.76,48.98,51.59,49.92,52.4,50.87z"/>
	<path class="st18" d="M67.43,74.67c1.47-0.41,2.96-0.77,4.36-1.41c0.29-0.13,0.59-0.21,0.72-0.54c0.93,0.47,1.26,1.46,1.92,2.17
		c0.01,0.85-0.73,0.93-1.26,1.16c-1.11,0.48-2.32,0.71-3.39,1.31c-0.11,0.04-0.23,0.06-0.34,0.05c-0.83-0.37-1.21-1.15-1.69-1.84
		C67.6,75.28,67.33,75.04,67.43,74.67z"/>
	<path class="st10" d="M20.89,33.89c0.48-1.28,0.97-2.56,2.17-3.38c0.56-0.24,1.01,0.11,1.5,0.27c0.57,0.25,1.16,0.48,1.67,0.85
		c0.42,0.82-0.23,1.35-0.58,1.91c-0.36,0.59-0.5,1.11-0.19,1.73C23.83,35.16,22.28,34.77,20.89,33.89z"/>
	<path class="st19" d="M29.29,45.86c-1.11,1.32-1.39,2.98-1.88,4.55c-0.12,0.38-0.07,0.79-0.53,0.98c0.03-2.74,0.39-5.45,0.74-8.17
		c0.08-1.01,0.6-1.84,1.14-2.65c0.27-0.42,0.59-0.92,1.19-0.34c0.34,1.45-0.25,2.89-0.08,4.34C29.85,45.08,29.87,45.61,29.29,45.86z
		"/>
	<path class="st20" d="M26.4,58.04c0.12,3.44,0.52,6.83,1.46,10.15c0.4,0.4,0.31,0.91,0.34,1.4c-0.09,0.87,0.19,1.79-0.4,2.58
		c-0.73,0.39-0.89-0.24-1.08-0.66c-0.39-0.85-0.64-1.76-1.04-2.61c0.01-0.32,0.01-0.64,0.02-0.96c0.31-0.8-0.05-1.66,0.21-2.47
		C25.87,62.98,26.05,60.51,26.4,58.04z"/>
	<path class="st21" d="M33.86,35.3c-0.27-0.31-0.72-0.57-0.23-1.06c1.31-1.3,2.6-2.62,3.91-3.93c0.25-0.25,0.57-0.54,0.93-0.4
		c0.35,0.14,0.14,0.57,0.21,0.86c-0.22,1.76-1.25,3.03-2.56,4.15c0.25,0.29,0.48,0.56,0.7,0.82C35.74,36.21,34.75,36.12,33.86,35.3z
		"/>
	<path class="st22" d="M89.88,93.83c-1.36,0.31-2.38,1.26-3.62,1.82c-0.24,0.11-0.3,0.36-0.31,0.61c-0.89-0.2-1.19-1.08-1.83-1.57
		c-0.14-0.19-0.24-0.39-0.23-0.64c0.27-0.8,1.05-1.04,1.65-1.46c0.73-0.52,1.51-1,2.34-1.38C88.73,91.93,89.15,93,89.88,93.83z"/>
	<path class="st23" d="M69.61,77.32c0.59-0.88,1.64-0.83,2.47-1.2c0.81-0.36,1.77-0.41,2.34-1.23c0.66,0.38,1.06,0.99,1.47,1.6
		c0.26,0.89-0.47,1.09-1.01,1.31c-1.2,0.49-2.39,0.99-3.65,1.3c-0.12,0.02-0.24,0.02-0.36,0C70.19,78.69,69.64,78.19,69.61,77.32z"
		/>
	<path class="st24" d="M87.87,91.21c-0.63,1.06-1.94,1.19-2.76,1.99c-0.34,0.33-0.87,0.42-1.09,0.9c-1.12-0.28-1.56-1.14-1.85-2.13
		c0.12-0.5,0.58-0.61,0.95-0.82c1.07-0.6,2.04-1.36,3.06-2.04C86.89,89.68,87.36,90.46,87.87,91.21z"/>
	<path class="st25" d="M25.69,68.9c0.66,0.41,0.77,1.13,1.04,1.77c0.23,0.56,0.25,1.25,0.88,1.59c0.42,0.4,0.34,0.93,0.37,1.43
		c-0.01,1.27-0.09,2.52-0.46,3.75c-0.54,0.4-0.83-0.08-1.05-0.39c-0.76-1.09-1.44-2.22-1.03-3.65
		C25.41,71.89,25.34,70.38,25.69,68.9z"/>
	<path class="st17" d="M26.63,87.62c-0.89-0.49-1.23-1.46-1.89-2.16c0-0.16,0-0.32,0.01-0.48c0.31-0.88-0.06-1.82,0.21-2.7
		c0.02-1.52-0.18-3.06,0.23-4.56c0.22,0.15,0.32,0.38,0.31,0.62c-0.09,1.69,0.81,2.94,1.81,4.14c0.03,1.3-0.06,2.6-0.11,3.9
		C27.19,86.85,27.07,87.32,26.63,87.62z"/>
	<path class="st26" d="M71.06,79c1.16-0.46,2.31-0.93,3.47-1.38c0.59-0.23,1.2-0.4,1.37-1.13c0.66,0.43,0.92,1.19,1.41,1.76
		c0.11,0.59-0.36,0.77-0.74,0.93c-1.32,0.54-2.56,1.27-3.94,1.67c-0.12,0.02-0.24,0.01-0.36-0.01C71.58,80.41,71.09,79.86,71.06,79z
		"/>
	<path class="st27" d="M25.46,35.28c-0.85-0.3-0.75-0.78-0.34-1.43c0.43-0.68,1.05-1.27,1.07-2.16c0.51-0.46,1.07-0.12,1.6-0.1
		c0.24,0.03,0.48,0.06,0.72,0.14c0.23,0.09,0.44,0.21,0.56,0.44c0.33,0.86-0.31,1.4-0.72,1.99c-0.25,0.36-0.55,0.67-0.48,1.15
		C27.06,35.7,26.26,35.41,25.46,35.28z"/>
	<path class="st28" d="M27.1,82.34c-1.24-0.6-1.58-1.78-1.86-2.96c-0.13-0.53-0.04-1.11-0.05-1.67c0.03-1.44-0.18-2.9,0.25-4.32
		c-0.05,1.7,0.77,3,1.93,4.14c0.44,0.41,0.32,0.95,0.33,1.46C27.32,80.08,27.83,81.32,27.1,82.34z"/>
	<path class="st19" d="M86.18,89.1c-0.69,1.23-2,1.66-3.09,2.37c-0.26,0.17-0.59,0.21-0.77,0.51c-0.91-0.21-1.49-0.72-1.54-1.71
		c1.18-1.23,2.82-1.73,4.2-2.65C85.62,87.92,85.79,88.6,86.18,89.1z"/>
	<path class="st24" d="M29.77,40.1c-1.22,0.69-1.46,2.06-2.14,3.12c0.15-2.57,0.43-5.12,0.92-7.65c0.21-0.27,0.57-0.04,0.8-0.25
		c0.23,0.01,0.46,0.02,0.68,0.03c0.53,0.67,0.34,1.44,0.28,2.18c-0.05,0.67-0.19,1.34-0.23,2.01C30.04,39.76,29.96,39.96,29.77,40.1
		z"/>
	<path class="st29" d="M49.72,48.26c-1.27,0.68-1.62,2.08-2.42,3.13c-0.71,0.09-0.93-0.56-1.38-0.88c-0.29-0.32-0.54-0.65-0.49-1.11
		c0.29-1.03,1.03-1.79,1.67-2.59c0.22-0.28,0.53-0.52,0.93-0.23C48.7,47.04,49.35,47.5,49.72,48.26z"/>
	<path class="st30" d="M48.03,46.58c-1.29,0.56-1.72,1.84-2.41,2.89c-1.11-0.19-1.58-0.97-1.84-1.96c0.24-1.03,0.93-1.79,1.57-2.58
		c0.19-0.24,0.45-0.45,0.82-0.3C46.85,45.22,47.59,45.76,48.03,46.58z"/>
	<path class="st31" d="M79.21,80.46c0.57,0.32,0.86,0.88,1.21,1.39c0.1,0.66-0.45,0.77-0.84,0.99c-1.19,0.65-2.43,1.18-3.66,1.74
		c-0.71,0-1.04-0.52-1.38-1.03c-0.06-0.18-0.05-0.35,0.02-0.53c0.33-0.49,0.87-0.69,1.38-0.88C77.11,81.73,78.14,81.04,79.21,80.46z
		"/>
	<path class="st32" d="M79.21,80.46c-0.71,1.07-1.91,1.37-2.97,1.87c-0.54,0.26-1.08,0.49-1.62,0.74c-0.57,0.05-0.81-0.36-1.06-0.76
		c-0.03-0.11-0.05-0.23-0.04-0.35c0.06-0.42,0.39-0.56,0.72-0.71c1.37-0.61,2.68-1.33,4.02-2C78.72,79.53,78.91,80.04,79.21,80.46z"
		/>
	<path class="st33" d="M81.39,83.05c0.32,0.24,0.61,0.5,0.74,0.9c0.27,0.63-0.13,0.99-0.59,1.24c-1.17,0.63-2.31,1.35-3.62,1.71
		c-0.13,0.01-0.25,0-0.37-0.02c-0.46-0.14-0.71-0.47-0.86-0.91c-0.03-0.12-0.02-0.24,0-0.36C78.07,84.4,79.65,83.58,81.39,83.05z"/>
	<path class="st34" d="M78.26,79.25c-0.47,0.88-1.45,0.99-2.19,1.46c-0.78,0.49-1.8,0.56-2.36,1.4c-0.83-0.12-1.11-0.71-1.22-1.44
		c1.23-0.54,2.47-1.06,3.69-1.62c0.42-0.19,0.92-0.31,1.13-0.8C77.79,78.42,78.02,78.84,78.26,79.25z"/>
	<path class="st35" d="M77.74,86.68c1.34-0.41,2.51-1.18,3.77-1.78c0.37-0.18,0.6-0.52,0.63-0.96c0.4,0.33,0.75,0.71,0.96,1.2
		c0.28,0.65-0.19,0.96-0.63,1.22c-1.08,0.66-2.17,1.29-3.39,1.66c-0.32,0.01-0.61-0.1-0.88-0.26C77.88,87.47,77.5,87.21,77.74,86.68
		z"/>
	<path class="st36" d="M81.39,83.05c-1.52,0.89-3.05,1.77-4.57,2.66c-0.51,0.14-0.61-0.31-0.84-0.58c-0.11-0.19-0.22-0.37-0.13-0.6
		c0.78-0.97,2.1-0.98,3.04-1.66c0.5-0.36,1.21-0.4,1.53-1.02C80.85,82.17,81.15,82.58,81.39,83.05z"/>
	<path class="st37" d="M46.16,44.63c-1.11,0.7-1.57,1.88-2.22,2.92c-0.11,0.07-0.22,0.08-0.33,0.04c-0.61-0.47-1.29-0.89-1.29-1.8
		c0.24-0.87,0.82-1.53,1.33-2.23c0.23-0.3,0.52-0.65,0.99-0.34C45.22,43.61,45.76,44.04,46.16,44.63z"/>
	<path class="st38" d="M37.63,36.51c0.75,0.56,1.47,1.14,2.05,1.89c-0.66,0.63-1.08,1.48-1.87,2c-0.1,0.04-0.21,0.06-0.32,0.05
		c-0.37-0.13-0.6-0.44-0.88-0.69c-0.3-0.31-0.54-0.66-0.77-1.02c-0.12-0.19-0.21-0.4-0.19-0.64C36.15,37.36,36.46,36.4,37.63,36.51z
		"/>
	<path class="st7" d="M84.98,87.62c-0.79,1.12-2.13,1.44-3.2,2.15c-0.29,0.19-0.61,0.34-0.92,0.51c-0.11,0.05-0.21,0.03-0.31-0.03
		c-0.29-0.39-0.79-0.68-0.63-1.29c1.18-1.18,2.85-1.58,4.14-2.6C84.53,86.65,84.72,87.16,84.98,87.62z"/>
	<path class="st39" d="M84.05,86.35c-0.04,0.33-0.16,0.58-0.49,0.75c-1.22,0.64-2.43,1.31-3.65,1.96c-0.76-0.05-1-0.51-0.96-1.2
		c1.15-0.62,2.38-1.09,3.47-1.83c0.35-0.23,0.65-0.45,0.67-0.9C83.5,85.48,83.85,85.86,84.05,86.35z"/>
	<path class="st40" d="M37.63,36.51c-0.85,0.3-1.32,1.03-1.85,1.68c-0.77,0.06-1.02-0.6-1.42-1.03c-0.49-0.63-0.94-1.33-1.88-1.32
		c-0.32-0.08-0.76,0.01-0.78-0.52c0.4-0.02,0.8-0.05,1.2-0.07c0.32,0.02,0.64,0.04,0.96,0.06c0.97,0.29,1.97,0.36,2.96,0.45
		C37.13,35.97,37.5,36.11,37.63,36.51z"/>
	<path class="st41" d="M40.92,39.57c0.45,0.56,1.23,0.78,1.53,1.49c-0.81,0.74-1.26,1.84-2.35,2.3c-0.47-0.05-0.72-0.38-0.94-0.74
		c-0.12-0.22-0.21-0.44-0.24-0.69C39.19,40.81,39.65,39.85,40.92,39.57z"/>
	<path class="st42" d="M40.92,39.57c-0.8,0.67-1.59,1.34-1.78,2.45c-0.57,0.13-0.78-0.36-1.13-0.62c-0.23-0.31-0.63-0.58-0.31-1.05
		c0.68-0.63,0.91-1.71,1.98-1.95C40.16,38.71,40.57,39.11,40.92,39.57z"/>
	<path class="st43" d="M44.64,43.22c-1.23,0.48-1.48,1.73-2.14,2.67c-0.69,0.03-0.96-0.52-1.3-0.96c-0.04-0.11-0.05-0.22-0.04-0.34
		c0.55-1.03,1.05-2.12,2.27-2.56C43.86,42.4,44.44,42.61,44.64,43.22z"/>
	<path class="st44" d="M43.42,42.03c-0.84,0.77-1.49,1.7-2.12,2.64c-0.51,0.13-0.62-0.33-0.88-0.58c-0.16-0.27-0.48-0.48-0.33-0.86
		c0.94-0.55,1.18-1.86,2.35-2.16C42.64,41.52,43.32,41.48,43.42,42.03z"/>
	<path class="st15" d="M24.96,82.27c-0.06,0.9,0.26,1.83-0.21,2.7C24.74,84.07,24.6,83.15,24.96,82.27z"/>
	<path class="st25" d="M25.92,65.47c-0.07,0.82,0.28,1.68-0.21,2.47C25.69,67.11,25.57,66.27,25.92,65.47z"/>
	<path class="st27" d="M29.35,35.32c-0.22,0.23-0.52,0.2-0.8,0.25c-0.15-0.09-0.3-0.18-0.44-0.27
		C28.52,34.88,28.93,35.46,29.35,35.32z"/>
	<path class="st2" d="M29.51,126.04c0.39-2.7,1.89-4.82,3.62-6.81c2.71-3.13,5.89-5.72,9.38-7.95c0.13-0.08,0.22-0.22,0.33-0.34
		c1.51-1.39,3.37-2.19,5.18-3.07c0.71-0.35,1.45-0.65,2.15-1.02c1.59-0.67,3.17-1.35,4.79-1.94c1.52-0.57,3.04-1.15,4.58-1.67
		c1.44-0.45,2.88-0.94,4.31-1.44c1.22-0.38,2.44-0.79,3.64-1.22c1.02-0.32,2.03-0.7,3.11-0.81c0.57-0.02,1.15,0.04,1.7-0.16
		c0.45-0.09,0.9-0.1,1.36-0.1c0.65,0.05,1.25-0.24,1.89-0.22c0.25,0,0.5,0.04,0.72,0.17c0.55,0.8-0.17,1.25-0.55,1.72
		c-1.5,1.89-3.01,3.77-4.7,5.49c-0.28,0.28-0.48,0.63-0.73,0.93c-1.77,1.79-3.57,3.56-5.33,5.36c-3.48,3.09-7.07,6.08-10.23,9.51
		c-2.19,2.38-4.63,4.49-6.84,6.83c-0.66,0.7-1.38,1.32-2.29,1.67c-2.02,0.59-4.12,0.57-6.19,0.7c-2.46,0.16-4.89-0.19-7.24-1.02
		c-1.57-0.55-2.48-1.58-2.66-3.24C29.38,126.97,29.38,126.5,29.51,126.04z"/>
	<path class="st45" d="M45.59,131c4.69-4.2,8.93-8.85,13.45-13.21c1.83-1.76,3.83-3.33,5.76-4.98c1.18,0.12,2.28-0.19,3.34-0.69
		c0.32-0.15,0.71-0.31,1.04-0.22c1.8,0.51,3.32-0.49,4.96-0.83c1.2-0.25,2.44-0.49,3.65-0.47c1,0.01,1.9-0.12,2.76-0.57
		c0.63-0.33,1.28-0.47,1.97-0.36c0.65,0.1,1.24,0.09,1.85-0.25c0.57-0.31,1.09-0.16,1.33,0.52c-1.81,2.16-3.95,3.97-6.15,5.71
		c-4.19,3.32-8.79,6.02-13.5,8.47c-3.72,1.94-7.62,3.52-11.65,4.79c-2.53,0.8-5.1,1.4-7.66,2.05
		C46.39,131.05,45.98,130.99,45.59,131z"/>
	<path class="st46" d="M28.59,117.13c-0.37,0.26-0.49,0.69-0.71,1.05c-0.5,0.85-1.18,1.27-2.24,1.14c-0.63-0.08-0.96-0.2-0.9-0.89
		c0.15-1.84,0.29-3.69,0.42-5.54c0.04-0.59,0.05-1.19,0.08-1.78c0.7-1.46,1.8-2.61,2.81-3.84c1.31-1.6,2.62-3.21,4-4.76
		c0.27-0.3,0.49-0.64,0.93-0.69c1.48,0.82,3.11,1.29,4.49,2.36c0.88,0.69,2.16,0.76,3.12,1.43c0.32,0.22,0.76,0.27,0.99,0.64
		c0.1,0.26,0,0.5-0.2,0.62c-0.95,0.6-1.8,1.39-2.96,1.59c-0.47,0.26-0.96,0.48-1.23,0.98c-1.67,0.7-2.85,2.07-4.2,3.2
		c-1.3,1.08-2.46,2.33-3.69,3.5C29.04,116.46,28.82,116.8,28.59,117.13z"/>
	<path class="st47" d="M85.71,109.94c-0.55-0.47-1.07-0.66-1.63,0.01c-0.11,0.13-0.4,0.25-0.53,0.19c-1.64-0.68-3,0.24-4.4,0.8
		c-0.65,0.26-1.13-0.3-1.73-0.13c-1.98,0.57-4.17,0.38-6,1.55c-0.15,0.09-0.4,0.14-0.56,0.08c-1.36-0.55-2.68-0.23-3.85,0.43
		c-0.85,0.48-1.49,0.25-2.21-0.08c1.68-1.83,3.44-3.6,5.28-5.28c0.47-0.3,0.96-0.54,1.55-0.55c2.29-0.03,4.47-0.68,6.68-1.16
		c1.17-0.25,2.31-0.67,3.36-1.22c2.02-1.07,4.26-1.52,6.31-2.5c0.88,0,1.56,0.39,2.05,1.11c-0.34,2.29-1.78,3.98-3.14,5.72
		C86.44,109.2,86.28,109.81,85.71,109.94z"/>
	<path class="st48" d="M38.41,108.47c0.95-0.85,2.24-1.2,3.15-2.12c0.37-0.52,1.03-0.67,1.44-1.14c0.33-0.2,0.67-0.31,1.05-0.14
		c1,0.62,2.13,0.78,3.26,0.95c1.05,0.16,2.1,0.32,2.94,1.06c-2.47,1.28-4.95,2.57-7.42,3.85c-1.24-0.55-2.42-1.26-3.76-1.56
		C38.67,109.28,38.44,108.92,38.41,108.47z"/>
	<path class="st49" d="M29.51,126.04c0,0.47,0,0.94,0,1.4C29.19,126.97,29.18,126.5,29.51,126.04z"/>
	<path class="st2" d="M32.93,102.03c-2.52,2.67-4.79,5.54-7.05,8.41c-0.19,0.24-0.29,0.58-0.64,0.67c0.16-2.62,0.32-5.24,0.49-7.86
		c0.24-0.88,0.87-1.52,1.42-2.18c1.1-1.31,2.08-2.72,3.15-4.04c0.96-0.8,1.68-1.82,2.47-2.77c0.7-0.82,1.56-1.5,2.1-2.46
		c0.54-0.44,1.02-0.95,1.51-1.45c0.67-0.65,1.36-1.3,1.88-2.09c0.4-0.43,0.83-0.83,1.23-1.25c0.38-0.37,0.74-0.76,1.19-1.05
		c0.37-0.23,0.6-0.59,0.91-0.88c0.29-0.22,0.56-0.46,0.81-0.73c0.3-0.3,0.61-0.59,0.96-0.83c0.95-0.79,1.88-1.59,2.83-2.37
		c0.62-0.41,1.17-0.92,1.74-1.39c0.67-0.34,1.21-0.87,1.85-1.24c0.45-0.29,0.89-0.59,1.33-0.9c0.68-0.35,1.16-0.99,1.88-1.27
		c0.74-0.35,1.46-0.75,2.16-1.18c1.3-0.72,2.56-1.5,3.88-2.19c1.15-0.46,2.22-1.08,3.34-1.6c0.54-0.25,1.08-0.53,1.71-0.38
		c0.08,0.03,0.16,0.05,0.25,0.08c0.93,1.3,2,2.47,3.12,3.6c0.16,0.24,0.32,0.47,0.48,0.71c-0.11,0.39-0.43,0.55-0.76,0.68
		c-1.68,0.67-3.25,1.58-4.87,2.37c-1.09,0.47-2.05,1.15-3.09,1.7c-0.8,0.5-1.69,0.84-2.45,1.4c-0.82,0.43-1.6,0.92-2.38,1.43
		c-0.64,0.39-1.26,0.81-1.88,1.23c-0.57,0.37-1.14,0.73-1.67,1.16c-0.32,0.25-0.68,0.46-0.99,0.73c-0.32,0.25-0.67,0.45-0.97,0.73
		c-0.32,0.25-0.67,0.45-0.96,0.74c-0.45,0.43-1.01,0.71-1.42,1.18c-0.43,0.47-0.98,0.79-1.45,1.22c-0.47,0.44-0.93,0.91-1.38,1.37
		c-0.11,0.12-0.24,0.23-0.36,0.34c-1.15,0.79-2.03,1.87-3.02,2.83c-1.24,1.09-2.26,2.39-3.37,3.61c-1,0.92-1.9,1.93-2.76,2.98
		C33.8,101.47,33.37,101.76,32.93,102.03z"/>
	<path class="st2" d="M27.1,82.34c0.19-1.09-0.23-2.23,0.33-3.28c0.32-1.02,1.17-1.68,1.72-2.54c0.42-0.48,0.85-0.97,1.21-1.5
		c0.49-0.41,0.61-1.12,1.14-1.5c0.46-0.27,0.71-0.72,1.02-1.12c0.35-0.37,0.72-0.72,0.98-1.17c0.3-0.36,0.58-0.74,0.92-1.06
		c0.52-0.36,0.79-0.95,1.22-1.39c0.48-0.47,0.96-0.95,1.43-1.43c0.37-0.35,0.73-0.71,0.99-1.15c0.28-0.37,0.63-0.69,0.95-1.03
		c0.42-0.39,0.81-0.81,1.22-1.2c0.43-0.29,0.8-0.64,1.16-1.01c0.7-0.56,1.3-1.24,1.93-1.87c0.31-0.31,0.63-0.61,0.99-0.86
		c1.57-1.32,3.11-2.68,4.76-3.91c0.46-0.34,0.87-0.84,1.55-0.71c1.42,1.35,2.68,2.84,3.85,4.41c-0.13,0.52-0.57,0.75-0.95,1.03
		c-1.68,1.23-3.27,2.55-4.85,3.9c-0.79,0.74-1.71,1.33-2.41,2.16c-0.5,0.55-1.16,0.9-1.68,1.43c-0.3,0.29-0.6,0.58-0.88,0.88
		c-0.07,0.08-0.14,0.15-0.22,0.23c-0.62,0.58-1.2,1.19-1.8,1.79c-0.57,0.55-1.12,1.11-1.68,1.67c-0.48,0.47-0.96,0.94-1.43,1.43
		c-0.29,0.28-0.49,0.64-0.75,0.95c-0.31,0.33-0.64,0.65-0.96,0.98c-0.32,0.32-0.65,0.62-0.94,0.97c-0.24,0.32-0.46,0.67-0.75,0.95
		c-0.32,0.32-0.66,0.63-0.94,0.99c-0.35,0.52-0.77,0.98-1.21,1.42c-0.48,0.42-0.76,0.99-1.2,1.44c-0.57,0.48-0.94,1.14-1.44,1.68
		c-0.59,0.62-1.06,1.34-1.66,1.95c-0.71,0.63-0.91,1.8-2.06,1.97c0-0.08-0.02-0.15-0.05-0.22C27.18,85.9,26.65,84.07,27.1,82.34z"/>
	<path class="st50" d="M48.48,64.81c1.87-1.76,3.91-3.31,5.99-4.8c3.2,3.66,6.39,7.32,9.59,10.98c-1.67,0.73-3.33,1.46-5,2.19
		c-0.44-0.51-1.03-0.73-1.65-0.91c-1.34-0.4-2.56-1.02-3.78-1.74C51.3,69.14,50.06,66.85,48.48,64.81z"/>
	<path class="st51" d="M50.63,55.6c-2,1.21-3.69,2.81-5.48,4.28c-0.24,0.2-0.5,0.37-0.74,0.56c-0.47-0.16-0.51-0.57-0.54-0.96
		c-0.21-2.86,0.33-5.59,1.47-8.22c0.16-0.36,0.35-0.72,0.77-0.85c0.4,0.33,0.79,0.66,1.19,0.98c0.67,1.21,1.68,2.14,2.62,3.12
		C49.93,55.02,50.4,55.23,50.63,55.6z"/>
	<path class="st52" d="M30.5,97.2c-1.59,2.02-3.18,4.04-4.77,6.06c0.15-2.33,0.3-4.66,0.44-6.99c0.09-0.72-0.17-1.48,0.27-2.16
		c0.36-0.29,0.71-0.1,0.98,0.11c1.02,0.82,2.06,1.62,2.99,2.54C30.52,96.87,30.55,97.03,30.5,97.2z"/>
	<path class="st53" d="M28.59,117.13c0.05-0.46,0.19-0.86,0.71-0.98C29.3,116.65,28.99,116.92,28.59,117.13z"/>
	<path class="st54" d="M24.5,30.99c-0.48-0.16-0.96-0.32-1.44-0.48c-1.69-0.85-3.04-1.94-2.89-4.09c0.15-0.32,0.3-0.64,0.45-0.96
		c0.52,0.19,0.94,0.58,1.49,0.72c1.05,0.26,2.29-0.2,2.79-1.08c0.47-0.82,0.29-1.63-0.58-2.53c-0.14-0.14-0.28-0.28-0.3-0.49
		c1.4-0.87,2.84-0.81,4.31-0.21c0.89,0.62,1.89,1.08,2.62,1.92c-2.17,1.63-3.83,3.77-5.66,5.75C24.91,29.96,24.81,30.53,24.5,30.99z
		"/>
	<path class="st55" d="M24.03,22.07c1.01,0.5,1.68,1.23,1.46,2.44c-0.19,1.1-0.93,1.72-1.98,1.95c-1.15,0.26-2.2,0.12-2.88-1
		C21.45,24.03,22.52,22.82,24.03,22.07z"/>
	<path class="st2" d="M41.31,44.91c0.4,0.32,0.79,0.65,1.19,0.97c0.1,0.79,0.94,1.02,1.25,1.65c0.04,0.48-0.4,0.58-0.65,0.82
		c-0.18,0.12-0.36,0.22-0.54,0.35c-0.55,0.37-1.1,0.72-1.61,1.14c-0.64,0.47-1.35,0.85-1.9,1.43c-0.57,0.57-1.37,0.82-1.92,1.42
		c-0.42,0.32-0.87,0.6-1.22,1c-0.66,0.62-1.52,1-2.14,1.67c-0.68,0.61-1.49,1.03-2.18,1.63c-0.36,0.22-0.69,0.48-0.98,0.79
		c-0.43,0.41-0.95,0.71-1.38,1.12c-0.19,0.11-0.37,0.27-0.6,0.09c-0.21-1.59,0.38-3.15,0.21-4.74c0.17-0.2,0.22-0.48,0.41-0.66
		c0.54-0.49,1.15-0.9,1.68-1.4c0.47-0.24,0.74-0.73,1.18-1.01c0.63-0.3,1.07-0.84,1.65-1.21c0.84-0.6,1.6-1.28,2.42-1.9
		c1.14-0.77,2.24-1.59,3.35-2.4C40.14,45.5,40.61,44.93,41.31,44.91z"/>
	<path class="st56" d="M34.57,36.99c0.32,0.48,0.72,0.89,1.21,1.2c0.08,0.16,0.16,0.31,0.25,0.47c-0.72,1.33-1.78,2.42-2.5,3.76
		c-1.57,2.93-2.8,5.98-3.65,9.19c-0.12,0.44-0.12,0.99-0.8,0.97c-0.2-2.25,0.41-4.47,0.21-6.72c0.26-0.36,0.27-0.78,0.27-1.2
		c0.95-2.56,2.51-4.76,4.01-7.01C33.79,37.3,34.01,36.86,34.57,36.99z"/>
	<path class="st57" d="M28.63,58.99c0.13-0.06,0.26-0.13,0.39-0.19c1.17-0.2,1.04,0.7,1.09,1.36c0.17,2.27,0.34,4.54,1.03,6.72
		c0.45,1.41,0.81,2.84,1.43,4.19c0.22,0.48,0.41,0.96,0.11,1.48c-0.27,0.42-0.48,0.9-0.98,1.12c-0.81-0.71-1.14-1.72-1.49-2.67
		c-0.83-2.24-1.5-4.53-1.85-6.9C28.26,62.39,28.4,60.69,28.63,58.99z"/>
	<path class="st58" d="M29.07,52.58c0.22-0.11,0.39-0.27,0.44-0.53c0.75-3.77,2.32-7.23,4.18-10.57c0.59-1.06,1.26-2.13,2.33-2.83
		c0.24,0.32,0.48,0.64,0.72,0.96c-0.92,1.67-2.15,3.15-2.95,4.88c-1.09,2.37-2.3,4.71-2.56,7.37c-0.02,0.2-0.14,0.37-0.24,0.54
		c-0.49,0.56-1.08,0.99-1.7,1.39c-0.25-0.19-0.36-0.43-0.25-0.75C29.06,52.89,29.07,52.73,29.07,52.58z"/>
	<path class="st59" d="M28.36,64.1c0.8,0.4,0.45,1.22,0.61,1.83c0.72,2.65,1.55,5.26,2.73,7.74c-0.5,0.43-0.56,1.19-1.18,1.52
		c-0.82-0.53-1.09-1.42-1.4-2.26c-0.41-1.1-0.89-2.18-1.24-3.3c0-0.48-0.01-0.96-0.01-1.43c0.48-0.67,0.15-1.43,0.23-2.15
		C28.17,65.39,27.95,64.71,28.36,64.1z"/>
	<path class="st56" d="M29.06,53.05c0.08,0.25,0.17,0.5,0.25,0.75c-0.16,0.15-0.32,0.31-0.47,0.46
		C28.87,53.85,28.67,53.4,29.06,53.05z"/>
	<path class="st60" d="M28.57,31.95c-0.23-0.01-0.46-0.02-0.7-0.02c-0.19-0.53,0.11-0.94,0.4-1.29c1.01-1.27,2.03-2.52,3.27-3.58
		c0.37-0.32,0.76-0.75,1.35-0.39c0.16,0.32,0.32,0.64,0.48,0.96c0.57,2.07,0.24,2.78-1.8,3.77c-0.43,0.21-0.88,0.36-1.32,0.54
		C29.7,32.13,29.13,32.11,28.57,31.95z"/>
	<path class="st61" d="M31.7,35.31c0.25,0.35,0.64,0.19,0.96,0.25c0.25,0.28,0.26,0.62,0.05,0.87c-0.83,1-1.43,2.16-2.38,3.07
		c-0.15,0.14-0.33,0.21-0.54,0.12c-0.08-1.43,0.4-2.83,0.24-4.27C30.59,35.34,31.14,35.32,31.7,35.31z"/>
	<path class="st62" d="M28.57,31.95c0.56,0,1.13-0.01,1.69-0.01c-0.34,0.39-0.8,0.17-1.2,0.25C28.9,32.11,28.73,32.03,28.57,31.95z"
		/>
	<path class="st63" d="M90.03,103.22c-0.65-0.31-1.29-0.62-1.94-0.93c-1.17-0.33-2.25-0.86-3.18-1.67c-0.11-1.03,0.8-1.22,1.38-1.69
		c0.4-0.32,0.85-0.54,1.33-0.73c0.36,0.08,0.54,0.51,0.96,0.46c0.9,1.13,2.27,1.73,3.15,2.87
		C91.02,101.94,90.56,102.61,90.03,103.22z"/>
	<path class="st62" d="M32.89,26.66c-0.58,0.06-1,0.41-1.4,0.81c-1.35,1.37-2.77,2.68-3.62,4.46c-0.56-0.07-1.12-0.15-1.69-0.22
		c-0.66,0-1.14-0.43-1.68-0.71c-0.25-0.83,0.28-1.36,0.78-1.86c1.56-1.56,2.78-3.43,4.54-4.8c0.35-0.27,0.63-0.62,1.13-0.54
		c0.32,0.32,0.64,0.64,0.96,0.96C32.24,25.39,32.57,26.02,32.89,26.66z"/>
	<path class="st64" d="M30.5,97.2c-1.35-1.04-2.39-2.48-4.06-3.1c-0.18-1.93,0.24-3.84,0.24-5.76c0.77-0.35,1.2,0.2,1.6,0.66
		c1.2,1.38,2.38,2.77,3.88,3.86c0.49,0.35,1.07,0.78,0.78,1.58C32.18,95.41,31.48,96.43,30.5,97.2z"/>
	<path class="st65" d="M32.94,94.44c-0.05-0.73-0.61-1.16-1.11-1.49c-1.52-1.01-2.62-2.4-3.75-3.78c-0.36-0.44-0.82-0.76-1.41-0.83
		c0-0.17,0-0.33,0.01-0.5c0.65-0.71,1.29-1.42,1.94-2.13c0.58-0.34,0.91,0.13,1.18,0.46c1.47,1.78,3.25,3.24,4.95,4.77
		c0.29,0.26,0.62,0.54,0.31,1.01C34.5,92.91,33.73,93.68,32.94,94.44z"/>
	<path class="st66" d="M87.62,98.19c-0.39,0.62-1.04,0.93-1.63,1.26c-0.49,0.27-0.81,0.63-1.01,1.12c-0.32,0.27-0.68,0.18-1.01,0.09
		c-1.17-0.34-2.41-0.33-3.57-0.71c-0.21-0.14-0.39-0.3-0.53-0.51c-0.12-0.3-0.05-0.59,0.25-0.69c0.97-0.33,1.73-1.11,2.79-1.26
		c0.58-0.08,1.3-0.17,0.63-1.06c-0.13-0.17,0.08-0.35,0.24-0.48c0.92-0.09,1.62,0.29,2.15,1.02C86.33,97.61,87.15,97.66,87.62,98.19
		z"/>
	<path class="st67" d="M85.94,96.97c-0.73-0.28-1.36-0.82-2.17-0.9c-0.05-0.01-0.1-0.02-0.15-0.03c-0.25-0.11-0.45-0.25-0.37-0.58
		c0.26-0.4,0.54-0.77,1.03-0.91c0.55,0.57,1.11,1.14,1.66,1.71C85.72,96.49,86.86,96.73,85.94,96.97z"/>
	<path class="st68" d="M59.04,79.93c0.98-0.67,2-1.27,3.12-1.68c1.52-0.15,3.06-0.08,4.58-0.32c0.9-0.14,1.77-0.34,2.63-0.63
		c0.08,0,0.16,0.01,0.23,0.02c0.4,0.55,0.81,1.11,1.21,1.66c0.27,0.7-0.29,0.86-0.72,0.96c-3.29,0.83-6.62,1.08-9.99,0.63
		C59.68,80.52,59.24,80.41,59.04,79.93z"/>
	<path class="st69" d="M69.38,77.3c-0.21,0.88-0.99,0.69-1.56,0.77c-1.87,0.27-3.75,0.79-5.65,0.17c1.83-1.13,3.82-1.93,5.75-2.87
		C68.4,76.02,68.89,76.66,69.38,77.3z"/>
	<path class="st70" d="M29.79,39.62c1.13-1.23,2.29-2.44,2.87-4.06c1.02-0.03,1.38,0.81,1.91,1.43c-1.52,1.62-2.57,3.57-3.69,5.46
		c-0.44,0.74-0.58,1.66-1.33,2.21c-0.21-1.53,0.27-3.03,0.21-4.56C29.78,39.94,29.79,39.78,29.79,39.62z"/>
	<path class="st71" d="M27.88,69.62c0.86,0.5,0.82,1.51,1.16,2.26c0.49,1.1,0.95,2.23,1.49,3.31c-0.31,0.56-0.7,1.05-1.19,1.47
		c-0.84-0.83-1.09-2-1.7-2.95c-0.01-0.48-0.02-0.96-0.03-1.44C27.97,71.41,27.83,70.51,27.88,69.62z"/>
	<path class="st72" d="M84.28,94.55c-0.24,0.43-0.57,0.77-1,1.01c-0.55,0.41-1.04,0.02-1.56-0.1c-0.42-0.1-0.81-0.3-1.25-0.29
		c-0.12,0-0.24,0-0.36-0.01c-0.47-0.02-0.95-0.03-1.42,0.01c-0.23,0.03-0.45,0.11-0.68,0.15c-0.44,0.08-0.91,0.01-1.33,0.24
		c-1.5,0.33-3.03,0.48-4.55,0.76c-0.91,0.17-1.79,0.72-2.76,0.24c-0.11-0.55,0.37-0.65,0.68-0.85c2.96-1.94,6.07-3.62,9.24-5.19
		c0.42-0.21,0.85-0.46,1.36-0.25c0.07,0.01,0.14,0.01,0.21,0.02c0.26,0.76,0.9,1.2,1.46,1.7c0.44,0.81,0.95,1.56,1.7,2.12
		C84.11,94.25,84.2,94.4,84.28,94.55z"/>
	<path class="st73" d="M59.04,79.93c2.24,0.78,4.56,0.53,6.84,0.39c1.29-0.08,2.57-0.41,3.86-0.62c0.48-0.08,0.97-0.1,1.08-0.72
		c0.08,0,0.16,0.01,0.23,0.02c0.4,0.56,0.8,1.12,1.2,1.68c0.2,0.91-0.56,0.94-1.07,1.07c-3.81,0.96-7.65,1.55-11.59,0.84
		c-0.67-0.12-1.36-0.09-2.01-0.3c-0.47-0.15-1.04-0.27-0.96-0.99C57.34,80.68,58.22,80.36,59.04,79.93z"/>
	<path class="st74" d="M27.64,73.7c0.99,0.74,1.29,1.88,1.7,2.95c-0.54,0.87-1.18,1.67-1.91,2.4c-0.02-0.51-0.04-1.01-0.06-1.52
		C27.46,76.26,27.55,74.98,27.64,73.7z"/>
	<path class="st75" d="M56.63,81.31c0.22,0.6,0.81,0.71,1.27,0.73c1.9,0.09,3.75,0.66,5.67,0.53c2.69-0.17,5.35-0.53,7.95-1.23
		c0.34-0.09,0.7-0.21,0.74-0.66c0.07-0.01,0.15-0.02,0.23-0.01c0.4,0.48,0.81,0.96,1.22,1.44c0,0.08,0.01,0.15,0.01,0.23
		c-0.04,0.69-0.62,0.77-1.09,0.91C67.19,84.9,61.71,85,56.19,83.8c-0.72-0.16-1.49-0.33-1.98-1C54.94,82.18,55.75,81.69,56.63,81.31
		z"/>
	<path class="st76" d="M42.95,48.22c0.27-0.23,0.53-0.45,0.8-0.68c0.07,0,0.13,0,0.19,0.01c0.35,0.82,0.98,1.4,1.68,1.92
		c-0.03,0.42,0.35,0.61,0.49,0.94c-1.47,2.86-2.09,5.9-1.93,9.11c0.02,0.33,0.06,0.63,0.23,0.91c-0.31,0.27-0.62,0.54-0.93,0.82
		c-0.3-0.26-0.37-0.62-0.37-0.97C43.07,56.26,42.63,52.24,42.95,48.22z"/>
	<path class="st77" d="M50.61,85.2c0.49-0.5,1.07-0.89,1.7-1.2c0.79-0.1,1.48,0.24,2.21,0.45c6.28,1.83,12.52,1.78,18.73-0.3
		c0.49-0.17,0.93-0.45,1.43-0.62c0.39,0.33,0.79,0.67,1.18,1c0.08,0.16,0.16,0.32,0.24,0.48c-0.06,0.68-0.65,0.74-1.1,0.92
		c-2.95,1.22-6.05,1.77-9.2,2c-4.62,0.33-9.17-0.15-13.55-1.78C51.64,85.92,50.99,85.8,50.61,85.2z"/>
	<path class="st78" d="M74.67,83.52c-0.03,0.48-0.34,0.6-0.76,0.76c-3.22,1.26-6.6,1.78-10.01,1.81C59.93,86.14,56,85.64,52.31,84
		c0.59-0.47,1.18-0.94,1.9-1.21c3.37,1.24,6.87,1.55,10.41,1.44c2.81-0.09,5.59-0.57,8.29-1.43c0.3-0.1,0.61-0.2,0.8-0.48
		c0.3,0.25,0.61,0.49,0.91,0.74C74.64,83.22,74.65,83.37,74.67,83.52z"/>
	<path class="st79" d="M47.77,87.38c0.18-0.41,0.57-0.55,0.93-0.73c0.54-0.29,1.02-0.01,1.49,0.18c1.82,0.74,3.67,1.31,5.59,1.76
		c6.62,1.56,13.08,0.87,19.45-1.27c0.76-0.26,1.5-0.54,2.31-0.6c0.07-0.01,0.14-0.02,0.21-0.03c0.18,0.3,0.36,0.61,0.53,0.91
		c-0.17,0.57-0.7,0.73-1.16,0.92c-1.12,0.45-2.03,1.38-3.31,1.45c-1.06-0.11-2.06,0.2-3.07,0.42c-5.65,1.19-11.27,1.04-16.85-0.41
		c-1.7-0.44-3.36-1.02-4.96-1.76C48.49,88,48.02,87.83,47.77,87.38z"/>
	<path class="st80" d="M50.61,85.2c2.94,1.13,5.95,2.03,9.08,2.32c2.1,0.19,4.23,0.2,6.33,0.06c2.21-0.15,4.4-0.55,6.54-1.17
		c1.21-0.35,2.44-0.69,3.52-1.4c0.24,0.23,0.49,0.47,0.73,0.7c0,0.08,0.01,0.15,0.01,0.23c-0.01,0.73-0.61,0.89-1.11,1.07
		c-5.21,1.9-10.58,2.55-16.1,2c-2.96-0.29-5.81-0.98-8.56-2.06c-0.54-0.21-1.15-0.38-1.4-1.02C49.89,85.56,50.25,85.39,50.61,85.2z"
		/>
	<path class="st81" d="M49.65,85.92c3.06,1.51,6.31,2.3,9.7,2.69c4.81,0.55,9.52,0.15,14.13-1.25c1.15-0.35,2.45-0.45,3.35-1.42
		c0.23,0.26,0.47,0.52,0.7,0.78c-0.75,0.73-1.8,0.79-2.71,1.1c-4.32,1.48-8.79,2.16-13.36,1.95c-4.2-0.19-8.24-1.19-12.09-2.89
		c-0.22-0.1-0.45-0.15-0.68-0.22C48.94,86.29,49.28,86.09,49.65,85.92z"/>
	<path class="st2" d="M73.93,89.74c1.45-0.72,2.9-1.43,4.34-2.15c0.23,0.09,0.45,0.19,0.68,0.28c0.28,0.44,0.44,0.96,0.96,1.2
		c0.16,0.45,0.83,0.58,0.73,1.19c-3.91,1.75-7.65,3.81-11.2,6.21c-0.26,0.66-0.89,0.72-1.44,0.88c-0.8,0.23-1.61,0.4-2.4,0.62
		c-1.62,0.26-3.11,1.03-4.75,1.22c-0.19-0.02-0.37-0.07-0.53-0.18c-0.27-0.86,0.56-0.89,0.94-1.27c0.68-0.28,1.16-0.86,1.76-1.25
		c1.06-0.59,1.96-1.4,2.92-2.14c1.18-0.62,2.26-1.41,3.36-2.15c1.01-0.47,1.82-1.23,2.78-1.78C72.66,90.1,73.22,89.71,73.93,89.74z"
		/>
	<path class="st82" d="M31.01,52.41c-0.37-1.71,0.51-3.18,1.01-4.69c0.85-2.52,2.2-4.8,3.67-7.01c0.29-0.44,0.59-0.84,1.05-1.1
		c0.32,0.16,0.56,0.4,0.72,0.72c-0.09,0.58-0.47,1-0.78,1.45c-1.89,2.69-3.34,5.58-3.99,8.83c-0.07,0.33-0.21,0.59-0.51,0.76
		C31.85,51.79,31.54,52.22,31.01,52.41z"/>
	<path class="st83" d="M32.19,51.37c0.55-3.11,1.8-5.94,3.46-8.59c0.54-0.86,1.08-1.73,1.82-2.45c0.08,0,0.15,0.01,0.23,0.02
		c-0.03,0.42,0.35,0.62,0.49,0.95c-0.33,1.26-1.28,2.18-1.88,3.3c-0.97,1.8-1.57,3.74-2.45,5.57C33.33,50.61,32.91,51.2,32.19,51.37
		z"/>
	<path class="st84" d="M33.86,50.16c0.22-2.06,1.25-3.81,2.16-5.6c0.6-1.16,1.23-2.32,2.17-3.27c0.32,0.24,0.63,0.49,0.95,0.73
		c0.08,0.16,0.15,0.32,0.23,0.48c-0.69,1.49-1.78,2.74-2.45,4.25c-0.23,0.51-0.44,1.01-0.65,1.53
		C35.53,48.98,34.72,49.61,33.86,50.16z"/>
	<path class="st85" d="M36.27,48.28c-0.44-0.96,0.41-1.54,0.73-2.24c0.59-1.3,1.29-2.55,2.37-3.54c0.17,0.31,0.41,0.56,0.73,0.72
		c0.16,0.24,0.33,0.48,0.49,0.71c-0.21,0.69-0.53,1.34-0.97,1.92C38.63,46.83,37.44,47.54,36.27,48.28z"/>
	<path class="st86" d="M39.62,45.85c0.05-0.78,0.33-1.44,0.97-1.92c0.24,0.24,0.47,0.49,0.71,0.73c0,0.08,0,0.16,0.01,0.25
		C40.78,45.29,40.31,45.76,39.62,45.85z"/>
	<path class="st87" d="M80.42,99.68c1.52,0.3,3.04,0.59,4.56,0.89c1.04,0.56,2.2,0.92,3.11,1.71c-5.76,2.58-11.57,5-18.01,5.25
		c0.75-1.38,2.06-2.3,2.99-3.54c0.97-1.3,2.04-2.53,3.05-3.8c0.11-0.14,0.14-0.36,0.21-0.54C77.69,99.02,79.06,99.12,80.42,99.68z"
		/>
	<path class="st88" d="M60.29,98.87c0.15,0.02,0.3,0.04,0.46,0.06c0.3,0.23,0.64,0.36,1,0.31c1.35-0.17,2.7-0.01,4.04-0.09
		c3.34-0.18,6.61-0.92,9.83-1.81c0.81-0.22,1.6-0.5,2.42-0.64c1.18-0.21,2.13-0.85,3.08-1.51c0.8,0.15,1.6,0.29,2.25,0.83
		c-0.02,0.58-0.49,0.64-0.89,0.8c-2.61,1.09-5.33,1.84-8.04,2.63c-0.27,0.08-0.53,0.18-0.74,0.36c-0.46,0.01-0.92,0.03-1.38,0.04
		c-0.55,0.27-1.16-0.04-1.72,0.2c-1.02,0.26-2.04,0.52-3.06,0.78c-2.97-0.03-5.95,0.42-8.9-0.16c-0.53-0.1-1.32-0.13-0.93-1.08
		c0.61-0.46,1.37-0.56,2.04-0.86C59.95,98.72,60.13,98.73,60.29,98.87z"/>
	<path class="st89" d="M50.25,107.09c-1.78-0.63-3.66-0.77-5.47-1.24c-0.38-0.1-0.78-0.19-0.84-0.69c1.27-1.32,2.79-2.11,4.64-2.22
		c1.44,0.66,2.92,1.2,4.52,1.2c0.88,0,1.56,0.18,1.95,1.03C53.45,105.81,51.85,106.45,50.25,107.09z"/>
	<path class="st90" d="M55.05,105.17c-1.03-1.22-2.58-0.4-3.81-0.94c-0.69-0.3-1.43-0.66-2.27-0.55c-0.43,0.06-0.46-0.34-0.47-0.67
		c0.98-1.06,2.28-1.4,3.63-1.66c0.13,0.02,0.25,0.07,0.36,0.14c0.81,0.67,1.81,0.81,2.8,0.89c1.16,0.1,2.26,0.45,3.41,0.62
		c0.35,0.05,0.7,0.16,0.92,0.49C58.09,104.05,56.57,104.61,55.05,105.17z"/>
	<path class="st91" d="M59.62,103.49c-1.93-0.33-3.85-0.65-5.78-1c-0.61-0.11-1.26-0.21-1.5-0.93c0.89-0.69,1.75-1.47,3.01-0.83
		c1.24,0.82,2.68,0.41,4.02,0.64c1.03,0.18,2.11,0.25,3.18,0.15c0.5-0.05,1.03,0.08,1.38,0.53
		C62.54,102.68,61.11,103.17,59.62,103.49z"/>
	<path class="st92" d="M63.93,102.05c-1.58-0.33-3.2-0.09-4.78-0.31c-1.05-0.14-2.1-0.2-3.15-0.25c-0.4-0.02-0.77-0.24-0.8-0.73
		c0.69-0.85,1.47-1.45,2.66-1.1c-0.23,0.4-0.05,0.63,0.34,0.66c0.9,0.08,1.77,0.41,2.69,0.31c1.6-0.17,3.2,0.19,4.81-0.17
		c0.56-0.12,1.22,0.24,1.83,0.39C66.39,101.4,65.19,101.81,63.93,102.05z"/>
	<path class="st93" d="M73.7,99.82c0.26-0.99,1.27-0.99,1.9-1.1c2.62-0.46,4.97-1.65,7.48-2.41c0.09-0.03,0.15-0.18,0.22-0.27
		c0.16-0.17,0.32-0.15,0.49-0.02c0,0-0.02,0.05-0.02,0.05c-0.01,0.04-0.05,0.09-0.04,0.11c0.84,1.22,0.84,1.19-0.8,1.61
		c-1.11,0.29-2.1,0.86-2.99,1.59c-1.42,0.33-2.88-0.07-4.3,0.21C74.99,99.58,74.38,100,73.7,99.82z"/>
	<path class="st94" d="M75.64,99.58c1.41-0.46,2.87-0.08,4.3-0.21c0.21,0.02,0.41,0.07,0.48,0.31c-1.37-0.01-2.73-0.02-4.1-0.03
		C76.1,99.63,75.87,99.61,75.64,99.58z"/>
	<path class="st95" d="M70.61,100.07c0.53-0.42,1.14-0.13,1.72-0.2C71.8,100.33,71.18,100.03,70.61,100.07z"/>
	<path class="st96" d="M32.93,102.03c1.16-1.45,2.39-2.84,3.76-4.11c0.42-0.23,0.85-0.21,1.26-0.01c1.77,0.87,3.55,1.7,5.21,2.78
		c0.22,0.46,0.13,0.97,0.2,1.45c-0.09,1.1,0.27,2.24-0.34,3.29c-0.25,0.66-0.89,0.73-1.44,0.93c-1.43-0.44-2.96-1.02-4.07-1.79
		C36.03,103.54,34.27,103.17,32.93,102.03z"/>
	<path class="st97" d="M43,105.42c-0.01-1.13-0.01-2.26-0.02-3.4c0.37-0.84-0.1-1.64-0.09-2.46c0.02-2.2-0.06-4.39-0.05-6.59
		c0-0.57,0.13-1.1,0.37-1.62c0.07-0.07,0.14-0.13,0.22-0.2c0.11,0.07,0.2,0.16,0.24,0.29c0.14,0.44,0.1,0.89,0.12,1.33
		c0.02,0.58,0.02,1.15,0.01,1.73c-0.01,3.24-0.01,3.22,2.99,4.53c0.89,0.39,1.82,0.57,2.74,0.84c0.98,0.3,2.16,0.37,2.57,1.61
		c-1.2,0.5-2.39,1.01-3.59,1.51c-1.64,0.46-3.1,1.3-4.56,2.14C43.63,105.24,43.32,105.33,43,105.42z"/>
	<path class="st51" d="M48.48,64.81c0.84,0.13,1.09,0.9,1.44,1.47c1.82,2.95,4.42,4.78,7.72,5.77c0.56,0.17,1.54,0.03,1.43,1.13
		c-1.2,0.88-2.54,1.51-3.85,2.19c-1.71-1.02-3.61-1.76-5.04-3.19c-1.57-1.57-3.26-3.06-4.1-5.21C46.74,66.1,47.63,65.48,48.48,64.81
		z"/>
	<path class="st98" d="M66.02,94.59c-0.9,0.79-1.78,1.6-2.88,2.11c-2.88-0.12-5.72-0.5-8.54-1.06c-3.64-0.71-7.09-1.92-10.35-3.67
		c-0.33-0.18-0.59-0.41-0.77-0.73c0,0-0.05-0.08-0.05-0.08c0.44-0.52,0.91-1.01,1.49-1.38c0.45-0.29,0.85-0.05,1.24,0.14
		c5.71,2.8,11.74,4.12,18.1,3.84c0.52-0.02,1.05-0.06,1.54,0.16C66.07,94.05,66.24,94.26,66.02,94.59z"/>
	<path class="st99" d="M73.93,89.74c-1.6,0.74-2.9,2-4.55,2.66c-2.82,0.28-5.65,0.46-8.48,0.35c-4.87-0.2-9.41-1.69-13.85-3.58
		c-0.29-0.13-0.57-0.29-0.72-0.6c0.39-0.51,0.91-0.86,1.45-1.2c2.01,0.84,4.04,1.67,6.15,2.24c4.08,1.1,8.24,1.47,12.44,1.09
		c2.12-0.19,4.22-0.67,6.32-1.04C73.12,89.59,73.53,89.4,73.93,89.74z"/>
	<path class="st100" d="M46.32,88.57c2.76,1.1,5.53,2.19,8.41,2.92c4.05,1.02,8.15,1.17,12.3,0.74c0.76-0.08,1.6-0.39,2.35,0.17
		c-1.04,0.85-2.1,1.67-3.36,2.19c-0.11-0.67-0.64-0.48-1.04-0.48c-2.83-0.02-5.65,0.05-8.46-0.46c-2.75-0.5-5.42-1.24-8-2.3
		c-1.21-0.5-2.41-1.04-3.61-1.56C45.3,89.29,45.81,88.92,46.32,88.57z"/>
	<path class="st76" d="M46.08,66.97c1.12,1.39,2.18,2.83,3.37,4.15c1.04,1.15,2.3,2.07,3.71,2.77c0.76,0.38,1.62,0.65,2.06,1.48
		c-0.68,0.46-1.33,0.99-2.16,1.18c-2.73-1.01-4.81-2.91-6.65-5.06c-0.78-0.91-1.73-1.78-1.97-3.06
		C44.87,67.82,45.49,67.41,46.08,66.97z"/>
	<path class="st65" d="M42.98,100.58c-1.42-0.2-2.51-1.13-3.75-1.73c-0.83-0.4-1.61-0.85-2.55-0.94c1.05-1.27,2.18-2.47,3.41-3.58
		c1.07-0.05,1.85,0.6,2.67,1.15c0.24,0.16,0.35,0.42,0.34,0.72C43.03,97.66,43.24,99.13,42.98,100.58z"/>
	<path class="st101" d="M30.24,83.77c0.41-0.62,0.85-1.2,1.42-1.69c0.46-0.26,0.76,0.01,1.03,0.32c1.63,1.87,3.36,3.64,5.28,5.21
		c0.25,0.2,0.45,0.45,0.55,0.77c-0.6,0.78-1.26,1.49-2.02,2.11c-0.99-1.3-2.46-2.1-3.5-3.35C32.07,86.03,30.84,85.15,30.24,83.77z"
		/>
	<path class="st102" d="M44.44,68.43c1.85,2.75,4.02,5.17,6.84,6.98c0.59,0.38,1.36,0.49,1.78,1.14c-0.68,0.36-1.11,1.08-1.9,1.27
		c-2.59-1.76-5-3.7-6.97-6.17c-0.57-0.72-0.88-1.4-0.74-2.29C43.71,68.98,44.03,68.65,44.44,68.43z"/>
	<path class="st103" d="M30.24,83.77c1.25,1.3,2.55,2.57,3.74,3.93c0.48,0.55,1.06,0.94,1.61,1.37c0.47,0.37,0.98,0.7,0.91,1.42
		c-0.42,0.55-0.8,1.13-1.44,1.45c-0.31-1.14-1.45-1.51-2.18-2.24c-1.09-1.08-2.26-2.07-3.23-3.28c-0.26-0.32-0.53-0.72-1.04-0.72
		C29.09,85.01,29.6,84.33,30.24,83.77z"/>
	<path class="st104" d="M38.52,88.38c-2.22-1.62-4.12-3.59-5.91-5.67c-0.27-0.31-0.51-0.61-0.96-0.63c0.37-0.51,0.73-1.04,1.24-1.42
		c0.52-0.33,0.85,0.06,1.11,0.36c1.59,1.89,3.37,3.57,5.21,5.2c0.29,0.25,0.61,0.54,0.45,1.02C39.28,87.62,38.9,88,38.52,88.38z"/>
	<path class="st105" d="M43.45,69.36c1.11,3.32,3.87,5.15,6.41,7.18c0.47,0.38,1.22,0.48,1.29,1.27c-0.33,0.41-0.78,0.63-1.22,0.87
		c-2.59-1.53-4.88-3.39-6.56-5.93C43.04,71.61,42.92,70.48,43.45,69.36L43.45,69.36z"/>
	<path class="st106" d="M39.67,87.23c-0.62-0.95-1.52-1.6-2.36-2.33c-1.2-1.04-2.26-2.23-3.27-3.46c-0.29-0.35-0.59-0.78-1.14-0.79
		c0.41-0.47,0.83-0.95,1.24-1.42c0.33-0.12,0.55,0.08,0.71,0.3c1.52,2.07,3.45,3.75,5.32,5.48c0.31,0.29,0.7,0.56,0.64,1.08
		C40.43,86.48,40.05,86.86,39.67,87.23z"/>
	<path class="st107" d="M43.7,72.98c1.54,1.79,3.21,3.43,5.19,4.74c0.41,0.27,0.77,0.57,1.04,0.97c-0.61,0.44-1.14,1.02-1.9,1.23
		c-0.87-1.05-2.07-1.7-3.05-2.62c-0.58-0.54-1.21-1.02-1.53-1.77C43.42,74.67,43.13,73.78,43.7,72.98z"/>
	<path class="st108" d="M40.8,86.1c-2.22-2.29-4.72-4.31-6.67-6.87c0.21-0.41,0.52-0.73,0.89-1c0.34-0.14,0.53,0.08,0.71,0.3
		c1.64,1.97,3.41,3.79,5.35,5.47c0.34,0.3,0.79,0.59,0.7,1.17C41.44,85.47,41.29,85.96,40.8,86.1z"/>
	<path class="st109" d="M35.78,77.3c0.31-0.33,0.62-0.65,0.93-0.98c0.46-0.15,0.64,0.23,0.85,0.49c1.61,2.05,3.42,3.89,5.48,5.48
		c0.26,0.2,0.46,0.44,0.57,0.75c0.06,0.25,0.02,0.47-0.15,0.67c-0.32,0.28-0.63,0.55-0.95,0.83c-2.29-2.01-4.5-4.09-6.33-6.54
		C36.02,77.79,35.82,77.59,35.78,77.3z"/>
	<path class="st57" d="M35.78,77.3c1.67,1.53,2.91,3.45,4.59,4.97c0.77,0.7,1.88,1.11,2.15,2.28c-0.19,0.28-0.39,0.55-0.75,0.62
		c-1.78-2.01-4-3.58-5.67-5.71c-0.33-0.42-0.54-0.99-1.09-1.22C35.27,77.92,35.53,77.61,35.78,77.3z"/>
	<path class="st110" d="M43.7,75.86c1.42,1.14,2.84,2.29,4.26,3.43c0.24,0.19,0.17,0.41,0.06,0.63c-0.46,0.59-1.05,1.03-1.69,1.4
		c-1-0.93-2.37-1.48-2.9-2.88C43.43,77.57,43.12,76.67,43.7,75.86z"/>
	<path class="st111" d="M42.98,100.58c0-0.92,0-1.84,0-2.76c0-2.13-0.03-2.17-1.95-2.99c-0.32-0.14-0.63-0.33-0.94-0.5
		c0.98-1.06,1.98-2.09,3.11-2.98c0.01,3.26,0.01,6.52,0.01,9.79c0,0.31,0.06,0.65-0.23,0.88C42.98,101.54,42.98,101.06,42.98,100.58
		z"/>
	<path class="st112" d="M43.7,78.74c0.76,0.98,2.14,1.33,2.64,2.58c-0.96,0.8-1.92,1.6-2.87,2.4c0-0.22,0-0.44-0.01-0.66
		c-0.26-0.58-0.39-1.18-0.33-1.82c0.01-0.27,0.03-0.54,0.09-0.81C43.48,79.89,43.22,79.21,43.7,78.74z"/>
	<path class="st113" d="M31.42,56.88c0.56-0.76,1.48-1.07,2.14-1.7c0.89,0.03,0.91,0.72,0.83,1.28c-0.51,3.98,0.27,7.79,1.44,11.56
		c0.1,0.31,0.13,0.62-0.03,0.93c-0.38,0.47-0.66,1.04-1.23,1.34c-1.01-0.48-1.08-1.53-1.38-2.39c-1.1-3.16-1.41-6.45-1.47-9.77
		C31.71,57.67,31.65,57.26,31.42,56.88z"/>
	<path class="st114" d="M35.81,68.95c-1.26-3.37-1.91-6.85-1.94-10.44c0-0.52,0.04-1.02,0.15-1.53c0.14-0.62,0.36-1.37-0.46-1.79
		c0.59-0.73,1.48-1.07,2.17-1.67c0.8,0.02,0.71,0.57,0.65,1.09c-0.16,1.35-0.27,2.69-0.32,4.05c-0.09,2.67,0.4,5.24,1.16,7.77
		c0.1,0.34,0.25,0.69-0.01,1.03C36.83,68.03,36.35,68.52,35.81,68.95z"/>
	<path class="st115" d="M40.8,49.69c0.48-0.52,1.08-0.88,1.71-1.19c0.45-0.24,0.58,0.03,0.58,0.4c0.01,0.79,0.05,1.58-0.24,2.35
		c-1.27,3.42-1.8,6.92-1.14,10.56c0.08,0.43,0.16,0.87-0.16,1.26c-0.37,0.39-0.66,0.87-1.17,1.12c-1.12-1.1-0.97-2.59-1.05-3.93
		c-0.18-3,0.04-5.97,1.15-8.82C40.69,50.88,40.84,50.3,40.8,49.69z"/>
	<path class="st116" d="M40.8,49.69c0.7,0.28,0.39,0.79,0.22,1.2c-1.18,2.85-1.45,5.83-1.41,8.86c0.02,1.52,0.29,2.99,0.76,4.44
		c-0.4,0.4-0.79,0.8-1.19,1.19c-0.61-0.26-0.66-0.85-0.8-1.39c-0.95-3.76-0.75-7.51,0.17-11.25c0.13-0.54,0.29-1.08,0.27-1.64
		C39.41,50.53,40.07,50.05,40.8,49.69z"/>
	<path class="st117" d="M41.54,63.07c-0.64-2.9-0.61-5.8,0.02-8.68c0.28-1.27,0.58-2.52,1.2-3.71c0.34-0.65,0.65-1.55-0.25-2.18
		c0.15-0.09,0.29-0.19,0.44-0.28c0.38,0.3,0.29,0.72,0.27,1.11c-0.16,3.98,0.34,7.95,0.26,11.93C42.9,61.93,42.3,62.58,41.54,63.07z
		"/>
	<path class="st118" d="M38.83,51.1c0.62,0.52,0.19,1.09,0.06,1.63c-1.01,4.24-1.24,8.46,0.29,12.64c-0.32,0.32-0.63,0.65-0.95,0.97
		c-0.67-0.25-0.76-0.88-0.92-1.45c-0.98-3.49-1.08-7.01-0.42-10.56c0.11-0.59,0.28-1.17,0.05-1.77
		C37.4,51.85,38.28,51.69,38.83,51.1z"/>
	<path class="st119" d="M32.69,72.56c-0.29-1.53-1.06-2.89-1.53-4.36c-0.84-2.67-1.29-5.38-1.37-8.16
		c-0.02-0.57,0.03-1.16-0.77-1.23c0.4-0.51,0.92-0.87,1.47-1.19c0.8,0.07,0.79,0.73,0.77,1.24c-0.13,4.09,0.95,7.94,2.31,11.74
		c0.09,0.26,0.2,0.52,0.09,0.81C33.45,71.87,33.09,72.23,32.69,72.56z"/>
	<path class="st120" d="M33.67,71.39c-1.33-2.55-1.93-5.33-2.42-8.13c-0.26-1.47-0.41-2.98-0.27-4.49c0.04-0.45-0.11-0.86-0.49-1.16
		c0.23-0.35,0.53-0.6,0.93-0.73c0.42,0.02,0.79,0.06,0.75,0.65c-0.3,4.22,0.5,8.25,2.01,12.17c0.08,0.22,0.26,0.39,0.4,0.59
		C34.28,70.66,34.11,71.14,33.67,71.39z"/>
	<path class="st121" d="M36.95,52.56c0.42,0.02,0.76,0,0.59,0.67c-1.01,3.9-0.96,7.8,0.13,11.69c0.14,0.51,0.36,0.96,0.57,1.43
		c-0.24,0.46-0.59,0.81-1.01,1.1c-1.57-4.26-1.9-8.63-1.1-13.09c0.08-0.46-0.02-0.68-0.39-0.85C36.05,53.08,36.47,52.78,36.95,52.56
		z"/>
	<path class="st114" d="M38.44,74.42c0.37-0.58,0.85-1.04,1.39-1.46c0.32-0.22,0.63-0.11,0.84,0.14c1.01,1.19,2.15,2.27,2.9,3.66
		c0.01,0.81,0,1.63,0,2.44c-0.49,0.78-0.81,0.02-1.05-0.19C40.98,77.66,39.69,76.06,38.44,74.42z"/>
	<path class="st122" d="M43.46,81.14c0,0.64,0,1.28,0,1.92c-2.55-1.95-4.71-4.28-6.75-6.74c0.32-0.34,0.63-0.69,0.95-1.03
		c0.36,0.1,0.64,0.34,0.84,0.62C39.93,77.88,41.84,79.37,43.46,81.14z"/>
	<path class="st123" d="M43.46,81.14c-1.31-0.51-2.05-1.71-3.07-2.57c-1.07-0.9-1.83-2.17-2.73-3.28c0.2-0.35,0.43-0.66,0.78-0.87
		c0.99,0.19,1.24,1.16,1.78,1.78c1.01,1.16,2.07,2.25,3.24,3.26c0.18,0.32,0.17,0.64,0.01,0.96C43.47,80.66,43.46,80.9,43.46,81.14z
		"/>
	<path class="st124" d="M43.46,76.58c-1.15-0.7-1.69-1.97-2.62-2.88c-0.31-0.31-0.51-0.71-1.01-0.74c0.48-0.64,1.04-1.2,1.67-1.69
		c0.86,0.25,2.04,1.49,2.05,2.34C43.57,74.6,43.72,75.6,43.46,76.58z"/>
	<path class="st125" d="M43.46,76.58c0-0.44-0.06-0.88,0.01-1.31c0.31-1.82-0.88-2.88-1.97-4c0.58-0.71,1.22-1.36,1.95-1.91
		c0.07,1.21-0.16,2.43,0.25,3.61c0,0.96,0,1.92,0,2.88c0,0.96,0,1.92,0,2.88c-0.09,0.56,0.21,1.17-0.23,1.68
		c0-0.32,0-0.64-0.01-0.96C43.46,78.5,43.46,77.54,43.46,76.58z"/>
	<path class="st126" d="M83.79,96.02c-0.16,0.01-0.33,0.02-0.49,0.02c-0.69-0.33-1.41-0.58-2.17-0.72c-0.49,0.2-0.73,0.03-0.74-0.49
		c1.02,0,1.87,0.68,2.88,0.73C83.45,95.71,83.62,95.86,83.79,96.02z"/>
	<path class="st127" d="M80.39,94.83c0.15,0.3,0.41,0.46,0.74,0.49c-0.56,0.94-1.5,1.31-2.47,1.55c-3.14,0.79-6.26,1.71-9.45,2.21
		c-1.53,0.24-3.13,0.7-4.77,0.33c-0.64-0.14-1.33-0.04-2.01,0.14c-0.64,0.17-1.37,0.24-1.7-0.62c1.37-0.38,2.74-0.76,4.12-1.13
		c0.22-0.06,0.45-0.05,0.68-0.06c2.17,0.35,4.27-0.24,6.38-0.57c2.04-0.32,4.02-0.93,5.9-1.82c0.06-0.09,0.12-0.17,0.18-0.25
		c0.17-0.08,0.34-0.17,0.5-0.25c0.55,0.15,1.1,0.15,1.65,0C80.24,94.82,80.32,94.82,80.39,94.83z"/>
	<path class="st128" d="M78,95.29c0.2,0.37,0.21,0.39-0.07,0.48c-1.43,0.46-2.85,0.97-4.31,1.34c-2.29,0.58-4.63,0.92-7,1.05
		c-0.39,0.02-0.93,0.22-1.08-0.43c1.25-0.59,2.69-0.57,3.9-1.27c1.92-0.17,3.79-0.59,5.65-1.05c0.48-0.12,1.02,0.32,1.45-0.16
		C77.03,95.16,77.52,95.1,78,95.29z"/>
	<path class="st129" d="M80.16,94.85c-0.55,0.31-1.1,0.33-1.65,0C79.06,94.85,79.61,94.85,80.16,94.85z"/>
	<path class="st130" d="M78,95.29c-0.48-0.01-0.97-0.02-1.45-0.03c0.45-0.37,0.97-0.19,1.46-0.15C78.01,95.17,78.01,95.23,78,95.29z
		"/>
	<path class="st131" d="M43.46,94.58c0-0.64,0-1.28,0-1.92c0.33-0.28,0.68-0.19,1-0.01c3.83,2.09,8.01,3.1,12.23,3.96
		c1.29,0.26,2.63,0.2,3.91,0.51c0.39,0.1,1.06-0.01,0.85,0.78c-0.39,0.32-0.78,0.64-1.18,0.97c-0.16,0.01-0.33,0.03-0.49,0.04
		c-0.38,0.19-0.79,0.13-1.17,0.08c-5-0.66-9.86-1.84-14.48-3.93C43.89,94.94,43.67,94.77,43.46,94.58z"/>
	<path class="st132" d="M61.46,97.9c-0.41-0.83-1.28-0.56-1.88-0.63c-3.34-0.36-6.57-1.08-9.78-2.09c-1.98-0.62-3.83-1.43-5.64-2.39
		c-0.2-0.1-0.46-0.1-0.69-0.14c0-0.47,0-0.95,0.01-1.42c3.22,1.72,6.58,3.11,10.16,3.86c2.82,0.59,5.65,1.17,8.55,1.16
		c0.37,0,0.84-0.15,0.96,0.43C62.61,97.14,62.18,97.72,61.46,97.9z"/>
	<path class="st133" d="M43.46,94.58c0.79,0.24,1.65,0.35,2.37,0.73c2.81,1.49,5.91,2.08,8.95,2.76c1.63,0.36,3.35,0.55,5.02,0.84
		c-0.57,0.44-1.24,0.62-1.93,0.75c-1,0.1-1.8,0.66-2.66,1.1c-1.11-0.3-1.87,0.67-2.86,0.8c-0.08-0.02-0.17-0.04-0.25-0.06
		c-0.7-0.77-1.66-1.19-2.6-1.31c-1.89-0.25-3.47-1.3-5.26-1.79c-0.57-0.16-0.78-0.61-0.77-1.19C43.48,96.33,43.46,95.45,43.46,94.58
		z"/>
</g>
</svg>
