<?xml version="1.0" encoding="utf-8"?>
<!-- Generator: Adobe Illustrator 23.0.2, SVG Export Plug-In . SVG Version: 6.00 Build 0)  -->
<svg version="1.1" id="Camada_1" xmlns="http://www.w3.org/2000/svg" xmlns:xlink="http://www.w3.org/1999/xlink" x="0px" y="0px"
	 viewBox="0 0 119.71 152.58" style="enable-background:new 0 0 119.71 152.58;" xml:space="preserve">
<style type="text/css">
	.st0{fill:#EBEBEB;}
	.st1{fill:#F4F4F4;}
	.st2{fill:#FEFEFE;}
	.st3{fill:#737373;}
	.st4{fill:#737372;}
	.st5{fill:#792523;}
	.st6{fill:#757473;}
	.st7{fill:#CF392C;}
	.st8{fill:#6E2222;}
	.st9{fill:#767573;}
	.st10{fill:#702322;}
	.st11{fill:#D0B790;}
	.st12{fill:#752423;}
	.st13{fill:#762423;}
	.st14{fill:#732323;}
	.st15{fill:#AE9E86;}
	.st16{fill:#CD382C;}
	.st17{fill:#767574;}
	.st18{fill:#A99A84;}
	.st19{fill:#B7A488;}
	.st20{fill:#B3A287;}
	.st21{fill:#7A7875;}
	.st22{fill:#C7372B;}
	.st23{fill:#7A2523;}
	.st24{fill:#812624;}
	.st25{fill:#C9382B;}
	.st26{fill:#8B847A;}
	.st27{fill:#8D2A25;}
	.st28{fill:#B3A187;}
	.st29{fill:#7F7C76;}
	.st30{fill:#872825;}
	.st31{fill:#8E877B;}
	.st32{fill:#BB342A;}
	.st33{fill:#888279;}
	.st34{fill:#CAB28E;}
	.st35{fill:#91897C;}
	.st36{fill:#837F78;}
	.st37{fill:#C5AF8D;}
	.st38{fill:#A42F28;}
	.st39{fill:#9B907F;}
	.st40{fill:#9F9381;}
	.st41{fill:#A49782;}
	.st42{fill:#AD9D84;}
	.st43{fill:#AA3028;}
	.st44{fill:#958B7D;}
	.st45{fill:#BCA88A;}
	.st46{fill:#CDCDCD;}
	.st47{fill:#ABABAA;}
	.st48{fill:#ACABAB;}
	.st49{fill:#C0C0C0;}
	.st50{fill:#4A4A4A;}
	.st51{fill:#A52C2A;}
	.st52{fill:#A02B29;}
	.st53{fill:#982927;}
	.st54{fill:#2E0E0D;}
	.st55{fill:#1A0807;}
	.st56{fill:#120505;}
	.st57{fill:#621E1C;}
	.st58{fill:#140606;}
	.st59{fill:#210A09;}
	.st60{fill:#200909;}
	.st61{fill:#712322;}
	.st62{fill:#F7A180;}
	.st63{fill:#9A2928;}
	.st64{fill:#B13231;}
	.st65{fill:#1E0909;}
	.st66{fill:#4F1817;}
	.st67{fill:#AEADAB;}
	.st68{fill:#585756;}
	.st69{fill:#F2E8D9;}
	.st70{fill:#F8A481;}
	.st71{fill:#F4EADA;}
	.st72{fill:#BE9E7F;}
	.st73{fill:#B19F83;}
	.st74{fill:#958367;}
	.st75{fill:#9D2A29;}
	.st76{fill:#D9CDB9;}
	.st77{fill:#D4C9B8;}
	.st78{fill:#FAA983;}
	.st79{fill:#D0CFCE;}
	.st80{fill:#CECECD;}
	.st81{fill:#7A2928;}
	.st82{fill:#CFC5B6;}
	.st83{fill:#E06B68;}
	.st84{fill:#DCCFBA;}
	.st85{fill:#C1AC8C;}
	.st86{fill:#DED0BA;}
	.st87{fill:#B7A589;}
	.st88{fill:#C3362B;}
	.st89{fill:#A42D23;}
	.st90{fill:#AF3026;}
	.st91{fill:#A82E24;}
	.st92{fill:#E3716B;}
	.st93{fill:#BEB9B1;}
	.st94{fill:#BBB7B0;}
	.st95{fill:#932B26;}
	.st96{fill:#9A2C27;}
	.st97{fill:#A02E27;}
	.st98{fill:#B1AFAC;}
	.st99{fill:#C2BCB2;}
	.st100{fill:#B43229;}
	.st101{fill:#BE352A;}
	.st102{fill:#671D17;}
	.st103{fill:#7C231C;}
	.st104{fill:#B7B4AE;}
	.st105{fill:#B4B1AD;}
	.st106{fill:#EFE6D8;}
	.st107{fill:#786A56;}
	.st108{fill:#E98071;}
	.st109{fill:#8B2721;}
	.st110{fill:#C6BFB3;}
	.st111{fill:#CAC1B4;}
	.st112{fill:#AE3129;}
	.st113{fill:#A92D2A;}
	.st114{fill:#D03E3B;}
	.st115{fill:#CE3D3A;}
	.st116{fill:#7F2624;}
	.st117{fill:#F25846;}
	.st118{fill:#F59C7E;}
	.st119{fill:#511612;}
	.st120{fill:#D4605E;}
	.st121{fill:#F55A47;}
	.st122{fill:#A42C2A;}
	.st123{fill:#807C77;}
	.st124{fill:#E5DFD5;}
	.st125{fill:#D4D2CF;}
	.st126{fill:#E2DDD4;}
	.st127{fill:#E2D3BC;}
	.st128{fill:#ECE4D7;}
	.st129{fill:#E8E1D6;}
	.st130{fill:#D4413C;}
	.st131{fill:#E77A6F;}
	.st132{fill:#E5756D;}
	.st133{fill:#D8D5D1;}
	.st134{fill:#DED9D2;}
	.st135{fill:#F3977C;}
	.st136{fill:#F1937A;}
	.st137{fill:#C1AB8B;}
	.st138{fill:#9E9079;}
	.st139{fill:#DD483F;}
	.st140{fill:#DA453E;}
	.st141{fill:#EF8E78;}
	.st142{fill:#ED8875;}
	.st143{fill:#EC8574;}
	.st144{fill:#AD2E2B;}
	.st145{fill:#842724;}
	.st146{fill:#A82D2A;}
	.st147{fill:#AC2E2B;}
	.st148{fill:#EF5545;}
	.st149{fill:#EF5645;}
	.st150{fill:#F4856A;}
	.st151{fill:#F26B56;}
	.st152{fill:#8A8279;}
	.st153{fill:#857E77;}
	.st154{fill:#595753;}
	.st155{fill:#AF9E86;}
	.st156{fill:#A69883;}
	.st157{fill:#AA9A84;}
	.st158{fill:#7B7771;}
	.st159{fill:#66625C;}
	.st160{fill:#9C9180;}
	.st161{fill:#877E70;}
	.st162{fill:#B5A388;}
	.st163{fill:#BDA789;}
	.st164{fill:#D6423C;}
	.st165{fill:#8F867B;}
	.st166{fill:#948A7D;}
	.st167{fill:#988D7E;}
	.st168{fill:#817B70;}
	.st169{fill:#E04A40;}
	.st170{fill:#B8312C;}
	.st171{fill:#EB8573;}
	.st172{fill:#E54E42;}
	.st173{fill:#E95143;}
	.st174{fill:#EC5344;}
	.st175{fill:#8B2925;}
	.st176{fill:#B02F2B;}
	.st177{fill:#F39579;}
	.st178{fill:#D8443D;}
	.st179{fill:#E14B41;}
	.st180{fill:#A29481;}
	.st181{fill:#978870;}
	.st182{fill:#B3302C;}
	.st183{fill:#E34C41;}
	.st184{fill:#EF8B76;}
	.st185{fill:#F19178;}
</style>
<g>
	<path class="st0" d="M102.24,0c0,0.07,0,0.13,0.01,0.2c-0.88,0.6-1.77,0.59-2.65,0c0-0.07,0.01-0.13,0.01-0.2
		C100.48,0,101.36,0,102.24,0z"/>
	<path class="st1" d="M0.2,116.16l-0.1,0L0,116.16c0-0.48,0-0.96,0-1.44c0.07-0.01,0.13-0.01,0.2,0
		C0.65,115.2,0.65,115.68,0.2,116.16z"/>
	<path class="st2" d="M26.83,94.38c1.52,0.54,2.44-0.63,3.46-2.19c4.75-7.3,9.5-14.59,14.41-21.78c4.26-6.24,8.57-12.44,13.05-18.52
		c3.53-4.79,7.23-9.45,11.03-14.03c1.45-1.75,2.83-3.56,4.29-5.31c0.45-0.53,0.51-1.05,0.31-1.65c-1.54-4.58-0.41-9.03,1.21-13.21
		c1.14-2.96,3.39-5.41,6.21-7.27c3.01-1.99,6.3-2.7,9.74-2.69c2.02,0.01,3.86-0.56,5.7-1.1c4.39-1.28,8.61-0.64,12.59,1.18
		c2.27,1.04,4.34,2.6,6.06,4.6c3.11,3.61,4.59,7.83,4.83,12.45c0.12,2.37-0.58,4.73-1.34,7.01c-0.83,2.48-1.84,4.89-2.47,7.46
		c-0.49,2.02-1.96,3.65-3.33,5.2c-2.66,3.01-6.03,4.91-9.93,5.84c-0.66,0.16-0.94,0.38-0.87,1.1c0.26,2.88,0.58,5.76,0.66,8.65
		c0.06,2.34,0.22,4.67,0.35,6.99c0.16,2.81,0.22,5.62,0.34,8.42c0.11,2.43,0.12,4.9,0.21,7.34c0.09,2.53-0.03,5.08,0.28,7.62
		c0.18,1.49,0.07,3.01,0.1,4.52c0.08,3.84,0.04,7.69,0.28,11.52c0.16,2.59-0.09,5.18,0.18,7.76c0.03,0.3-0.12,0.62-0.18,0.93
		c-0.1,0.54,0.07,0.78,0.62,1.05c4.41,2.18,7.66,5.42,8.95,10.31c0.43,1.62,0.9,3.25,1.06,4.9c0.16,1.59,0.11,3.22-0.33,4.81
		c-0.71,2.57-0.86,5.3-2.08,7.71c-1.48,2.93-3.43,5.66-6.38,7.1c-2.5,1.22-5.34,1.9-8.23,1.19c-1.99-0.49-4.13-0.64-5.73-2.18
		c-0.36-0.35-0.81-0.25-1.24-0.12c-1.61,0.47-3.26,0.75-4.93,0.88c-0.82,0.07-1.68,0-2.49-0.18c-3.26-0.73-6.62-1.24-9.4-3.32
		c-0.44-0.33-0.88-0.34-1.36-0.24c-6.03,1.33-11.6-0.41-17.03-2.72c-1.7-0.73-3.22-1.93-4.59-3.23c-0.45-0.43-0.89-0.62-1.49-0.54
		c-0.99,0.13-1.99,0.17-2.97,0.29c-4.34,0.5-8.43-0.59-12.53-1.71c-2.53-0.7-4.62-2.12-6.56-3.81c-0.39-0.34-0.86-0.41-1.32-0.52
		c-5.34-1.28-10.34-3.3-14.4-7.11c-2.2-2.06-3.85-4.51-4.76-7.48c-1.18-3.84-1.12-7.62,0.82-11.01c1.56-2.72,2.71-5.69,4.71-8.15
		c2.43-2.98,5.32-5.24,9.15-6.13C23.07,94.63,24.65,94.17,26.83,94.38z"/>
	<path d="M26.22,100.04c1.78,0.08,3.11-0.05,4.36,0.45c0.53,0.21,0.69-0.14,0.95-0.43c1.78-1.95,3.17-4.18,4.62-6.37
		c2.13-3.22,4.21-6.46,6.34-9.68c2.65-4.01,5.26-8.05,7.99-12c3.6-5.21,7.26-10.38,10.96-15.52c3.36-4.66,6.98-9.11,10.56-13.6
		c2.51-3.15,5.06-6.26,7.61-9.38c0.23-0.29,0.35-0.47,0.15-0.91c-1.67-3.83-1.81-7.81-0.33-11.66c1.47-3.82,4.12-6.55,8.42-7.28
		c1.6-0.27,3.15-0.24,4.75-0.06c1.05,0.12,2.02-0.6,3.02-0.93c3.57-1.2,7.13-1.46,10.58,0.25c2.93,1.45,5.09,3.66,6.51,6.7
		c0.83,1.77,1.15,3.59,1.21,5.41c0.07,2.14-0.4,4.35-1.43,6.22c-0.87,1.59-1.11,3.27-1.6,4.93c-0.91,3.08-2.92,5.3-5.65,6.95
		c-2.15,1.3-4.46,2.03-6.93,2.37c-0.72,0.1-1.43,0.1-2.15,0.09c-0.64-0.01-0.72,0.26-0.66,0.79c0.38,3.23,0.6,6.48,0.86,9.72
		c0.18,2.23,0.25,4.48,0.38,6.72c0.12,2.05,0.14,4.11,0.34,6.16c0.12,1.27,0.03,2.59,0.11,3.89c0.19,3,0.22,6.01,0.38,9.01
		c0.11,2.07,0.05,4.18,0.13,6.27c0.11,2.93,0.29,5.87,0.34,8.79c0.06,3,0.12,6,0.12,9c0,2,0.26,4,0.18,5.99
		c-0.11,2.49-0.01,4.99-0.37,7.46c-0.12,0.81-0.19,1.33,1,1.41c4.28,0.28,7.17,2.66,8.82,6.51c0.76,1.78,0.99,3.68,1.04,5.67
		c0.05,2.3-0.64,4.39-1.09,6.54c-0.55,2.65-2.21,4.7-4.26,6.29c-1.69,1.31-3.82,0.99-5.86,0.77c-1.62-0.18-2.74-1.27-3.92-2.12
		c-1.15-0.83-2.14-0.77-3.28-0.34c-4.56,1.72-8.88,1.07-13.06-1.24c-0.31-0.17-0.69-0.31-0.89-0.58c-1.14-1.46-2.55-1.29-4.15-0.94
		c-5.96,1.3-11.42-0.08-16.42-3.4c-1.12-0.74-2.13-1.69-3.06-2.67c-0.61-0.64-1.24-0.8-2-0.64c-2.61,0.56-5.3,0.85-7.91,0.62
		c-4.56-0.39-9.15-1.04-12.44-4.85c-0.58-0.67-1.46-0.58-2.21-0.77c-4.58-1.16-8.98-2.69-12.62-5.88
		c-3.84-3.37-5.81-9.56-1.49-14.07c0.5-0.53,0.69-1.25,0.94-1.91c1.55-4.1,4.54-6.53,8.71-7.56
		C24.74,100.01,25.73,100.08,26.22,100.04z"/>
	<path class="st3" d="M84.98,32.4c-3.17-3.45-2.79-10.59,1.13-13.33c1.97-1.38,4.03-1.66,6.24-0.83c0.67,0.25,1.16,0.22,1.78-0.13
		c2.51-1.42,5.18-2.46,8.11-1.89c5.67,1.11,8.61,6.88,6.51,12.55c-0.04,0.11-0.08,0.23-0.14,0.33c-1.21,1.81-1.78,3.83-2.02,5.97
		c-0.93-0.37-1.82,0.24-2.77,0.13c-0.9-0.11-1.4-0.38-1.43-1.32c-0.03-0.28-0.07-0.56-0.18-0.82c-0.55-1.33-0.21-2.43,0.65-3.55
		c1.39-1.82,2.03-3.9,1.43-6.18c-0.62-2.37-2.6-3.44-4.98-2.83c-1.38,0.35-2.59,0.96-3.64,1.96c-1.44,1.37-2.89,1.45-4.44,0.4
		c-1.4-0.95-2.25-0.75-3.1,0.72c-0.24,0.42-0.39,0.87-0.56,1.32c-0.56,2.04-0.28,4.09-0.06,6.14C86.84,31.8,86.04,32.34,84.98,32.4z
		"/>
	<path class="st4" d="M28.32,125.06c-3.65-0.96-7.17-2.21-10.01-4.83c-1.05-0.97-1.7-2.19-2.02-3.59c-0.41-1.8,0.22-3.21,1.57-4.35
		c0.51-0.43,0.82-0.86,0.95-1.56c0.76-4,4.03-6.53,8.1-6.26c1.22,0.08,2.48,0.07,3.62,0.64c-0.57,0.54-1.22,0.18-1.82,0.12
		c-0.85-0.09-1.53,0.15-1.5,1.07c0.03,1.2-0.61,1.88-1.51,2.45c-0.82,0.92-1.39,2-1.91,3.1c-0.45,0.35-0.09,0.84-0.21,1.26
		c-0.14,1.33-1.29,1.81-2.13,2.55c-0.59,0.95,0.32,1.48,0.62,2.18c1.77,1.68,4.16,2.23,6.22,3.37c0.33,0.18,0.78,0.25,0.88,0.72
		C29.13,123.03,29.08,124.14,28.32,125.06z"/>
	<path class="st5" d="M45.83,87.09c1.34-2.44,3.01-4.67,4.55-6.98c2.6-3.9,5.27-7.76,7.92-11.64c0.2-0.29,0.46-0.54,0.69-0.81
		c1.81-2.34,4.33-3.84,6.62-5.61c0.4-0.31,0.82-0.5,1.32-0.22c0.31,0.55-0.1,0.9-0.39,1.25c-0.64,0.81-1.27,1.63-1.82,2.5
		c-3.71,4.63-6.91,9.64-10.44,14.41c-0.28,0.24-0.57,0.46-0.77,0.78c-0.15,0.21-0.29,0.42-0.36,0.68c-0.05,0.15-0.15,0.27-0.27,0.38
		c-0.2,0.16-0.38,0.33-0.44,0.6c-0.08,0.26-0.25,0.44-0.44,0.61c-0.26,0.25-0.46,0.55-0.69,0.82c-0.19,0.24-0.35,0.51-0.53,0.77
		c-0.25,0.41-0.57,0.78-0.85,1.17c-0.18,0.26-0.38,0.5-0.58,0.75c-0.21,0.29-0.43,0.57-0.51,0.93c-0.08,0.26-0.27,0.45-0.47,0.61
		c-0.32,0.26-0.58,0.59-0.9,0.87c-0.38,0.3,0.02,0.45,0.13,0.66c-0.8,1.93-1.97,3.61-3.49,5.05c-0.13,0.01-0.24-0.03-0.34-0.11
		c-0.36-0.35-0.18-0.72-0.08-1.11C44.28,91.28,44.86,89.12,45.83,87.09z"/>
	<path class="st6" d="M102.71,33.81c0.12,1.02,1.29,1.48,2.55,0.97c0.53-0.21,1.04-0.52,1.33,0.29c0,0,0-0.02,0-0.02
		c-0.87,0.46-0.82,1.44-1.22,2.17c-2.59,3.11-6.04,4.09-9.91,3.95c-1.6-0.06-3.14-0.5-4.53-1.34c-0.24-0.1-0.38-0.29-0.46-0.53
		c-0.18-0.58-0.3-1.18-0.47-1.76c-0.33-1.59-0.72-3.17-0.99-4.77c-0.07-0.43-0.16-0.86-0.03-1.29c1.11-0.45,1.62,0.43,1.66,1.12
		c0.11,1.92,1.53,2.72,2.79,3.62c1.28,0.91,2.8,0.78,4.28,0.51c0.67-0.12,1.31-0.33,1.93-0.63c0.84-0.38,1.53-0.97,2.17-1.62
		C102.06,34.21,102.22,33.79,102.71,33.81z"/>
	<path class="st7" d="M93.6,100.8c0.06,0.86,0.2,1.72,0.03,2.58c0.19,3.9,0.05,7.79,0.08,11.69c0.01,1.11-0.29,1.27-1.29,0.73
		c-1.11-0.6-2.02-1.42-2.69-2.49c-0.33-0.53-0.72-0.94-1.39-0.97c-0.31-0.26-0.34-0.62-0.34-0.98c0.01-2.1-0.08-4.21,0.04-6.31
		c1.39-0.68,1.74-2.22,2.68-3.28c0.69-0.77,1.31-1.72,2.58-1.58C93.53,100.35,93.42,100.64,93.6,100.8z"/>
	<path class="st8" d="M89.06,31.43c0.4,2.07,0.79,4.15,1.19,6.22c0.09,1.26-0.82,1.99-2.08,1.66c-0.59-0.15-1.09-0.45-1.37-1.02
		c-0.43-0.58-0.47,0.05-0.65,0.22c-0.11,0.18-0.24,0.35-0.4,0.48c-0.42,0.24-0.72,0.59-0.89,1.04c-0.18,0.21-0.35,0.46-0.68,0.27
		c-0.17-0.91-0.69-1.25-1.6-1.05c-0.55,0.12-1.11,0.18-1.49-0.38c1.09-1.77,2.47-3.32,3.87-4.83c0.62-0.67,0.59-1.07,0.03-1.63
		c0.79-0.38,1.42-1.07,2.35-1.18C87.93,31.12,88.57,30.65,89.06,31.43z"/>
	<path class="st9" d="M28.32,125.06c0.26-1.06,0.52-2.12,0.77-3.18c0.83-0.52,1.62-0.26,2.42,0.08c0.63,0.3,1.29,0.07,1.94,0.12
		c0.11-0.01,0.22-0.01,0.33-0.02c1.24,0,1.81,0.97,2.36,1.8c0.62,0.94,1.12,1.92,2.28,2.32c0.33,0.11,0.56,0.44,0.58,0.85
		c-0.03,0.48,0,0.95,0.08,1.43c0.11,0.72,0.35,1.29,1.15,1.49c0.27,0.07,0.66,0.16,0.57,0.62c-3.22-0.44-6.19-1.35-8-4.35
		c-0.24-0.4-0.55-0.48-0.98-0.53C30.65,125.53,29.43,125.56,28.32,125.06z"/>
	<path class="st10" d="M81.08,38.87c0.65,0.31,1.29,0.07,1.94,0.02c1.17-0.08,1.45,0.28,1.22,1.44c-0.07,1.04-0.91,1.62-1.48,2.34
		c-1.15,1.46-2.34,2.89-3.53,4.32c-0.28,0.34-0.57,0.66-1.04,0.73c-0.51-0.05-0.96,0.03-1.45,0.28c-1.12,0.56-2.28,1.05-3.6,0.72
		c1.3-2.01,2.9-3.79,4.41-5.63C78.72,41.67,79.73,40.12,81.08,38.87z"/>
	<path class="st11" d="M93.33,123.59c1.01,0.57,1.89,1.3,2.75,2.07c0.21,0.19,0.37,0.47,0.8,0.24c2.11-1.1,3.22-0.97,4.91,0.49
		c0.58,0.83-0.11,1.01-0.65,1.2c-1.08,0.39-2.25,0.42-3.3,0.91c-0.11,0.04-0.23,0.06-0.35,0.07c-0.3-0.02-0.54-0.16-0.69-0.41
		c-0.89-1.48-2.32-2.07-3.92-2.41c-0.66-0.14-1.32-0.28-1.94-0.55c-0.33-0.2-0.68-0.36-1.08-0.33c-0.4-0.01-0.79,0-1.19,0.01
		c-0.66,0.06-1.33,0.11-1.97,0.32c-0.12,0.2-0.32,0.24-0.53,0.24c-0.48-0.13-0.97,0.17-1.45-0.04c-0.13-0.09-0.32-0.29-0.25-0.36
		c0.94-1.01-0.11-1.42-0.58-2c-0.22-0.28-0.51-0.5-0.75-0.76c-0.22-0.23-0.16-0.42,0.12-0.56c1.47-0.19,2.95-0.42,4.42-0.04
		c0.37,0.1,0.7,0.31,1.06,0.45c1.07,0.43,2.19,0.66,3.31,0.91C92.51,123.14,92.99,123.21,93.33,123.59z"/>
	<path class="st12" d="M45.83,87.09c0.11,1.48-0.9,2.63-1.18,4.02c-0.2,0.97-0.35,2.01-0.87,2.91c-0.07,0.12,0.09,0.36,0.15,0.55
		c0.36,0.67-0.28,0.92-0.55,1.34c-0.11,0.15-0.28,0.28-0.17,0.51c0.56,1.21,0.3,2.37-0.22,3.52c-0.69,1.02-1.79,1.6-2.62,2.48
		c-0.47,0.16-0.76,0.92-1.43,0.43c-0.47-0.71-0.54-1.45-0.31-2.28c0.32-1.18,0.26-2.45,0.74-3.61
		C41.4,93.59,43.52,90.28,45.83,87.09z"/>
	<path class="st13" d="M66.96,61.92c-0.31,0.05-0.69-0.01-0.92,0.15c-1.8,1.3-3.66,2.53-5.29,4.03c-0.58,0.53-1.05,1.18-1.77,1.56
		c2.33-3.55,4.78-7.01,7.45-10.32c2.02-1.64,4.36-2.69,6.75-3.64c0.35,0.43,0.02,0.73-0.21,1.04c-0.5,0.66-1.05,1.28-1.53,1.96
		c-1.12,1.28-2.06,2.7-3.13,4.03C67.94,61.2,67.69,61.85,66.96,61.92z"/>
	<path class="st14" d="M73.21,53.76c-2.26,1.19-4.52,2.39-6.78,3.58c2.08-3.01,4.27-5.92,6.72-8.64c0.83-0.4,1.8-0.13,2.64-0.62
		c0.38-0.22,0.91-0.24,1.21-0.65c0.47-0.63,0.83,0.19,1.25,0.08c0.22,1.13-0.9,1.5-1.28,2.29c-0.96,1.06-1.78,2.24-2.75,3.3
		C73.94,53.41,73.77,53.89,73.21,53.76z"/>
	<path class="st15" d="M90.29,139.46c-0.66,0.4-1.37,0.66-2.14,0.73c-1.53,0.45-2.84,0.13-4.27-0.66c-3.34-1.85-6.58-3.79-9.17-6.65
		c-0.25-0.28-0.7-0.45-0.58-0.96c0.91-0.81,1.93-0.8,3-0.4c0.57,0.3,1.13,0.63,1.48,1.17c1.33,2.08,3.12,3.56,5.46,4.38
		C86.37,137.28,88.39,138.2,90.29,139.46z"/>
	<path class="st16" d="M88.55,112.35c0.36-0.66,0.69-0.56,1,0.04c0.71,1.38,1.75,2.44,3.11,3.2c0.24,0.13,0.42,0.41,0.73,0.23
		c0.3-0.17,0.21-0.5,0.2-0.76c-0.09-3.7,0.21-7.41-0.15-11.12c-0.02-0.18,0.12-0.37,0.19-0.56c0.35,1.9,0.19,3.82,0.19,5.72
		c0,3.15,0.19,6.31-0.22,9.45c-0.23,0.28-0.11,0.61-0.12,0.92c-0.03,1.21-0.25,1.39-1.42,0.98c-1.25-0.44-2.36-1.13-3.4-1.95
		c-0.42-1.03-0.01-2.13-0.3-3.17c-0.15-0.55-0.06-1.13-0.2-1.68c-0.04-0.18-0.04-0.36-0.01-0.54
		C88.21,112.83,88.31,112.55,88.55,112.35z"/>
	<path class="st17" d="M25.45,108.64c0.02-0.08,0.02-0.21,0.05-0.22c1.32-0.43,1.27-1.58,1.43-2.64c0.11-0.7,0.51-0.94,1.24-0.92
		c0.8,0.01,1.54,0.41,2.34,0.25c0.63,0.07,1.11,0.45,1.61,0.78c0.89,0.33,1.65,0.95,2.56,1.24c0.8,0.49,1.8,0.51,2.56,1.09
		c0.04,0.12,0.03,0.23-0.04,0.33c-0.92,0.09-1.55,0.44-1.7,1.48c-0.09,0.64-0.71,0.47-1.17,0.43c-0.65-0.12-1.22-0.44-1.77-0.78
		c-0.95-0.65-2.04-1.03-3.06-1.53c-0.82-0.4-1.62,0.04-2.42,0.18c-0.47,0.08-0.89,0.33-1.34,0.45
		C25.61,108.78,25.52,108.74,25.45,108.64z"/>
	<path class="st14" d="M34.53,107.31c-0.94-0.24-1.78-0.65-2.4-1.42c1.38-0.64,1.92-2.06,2.85-3.11c1.62-1.82,2.98-3.84,4.38-5.82
		c0.04,1.39-0.09,2.77-0.54,4.08c-0.26,0.77,0.45,1.25,0.3,1.93c0.13,0.52-0.33,0.67-0.6,0.92c-1.14,0.99-2.32,1.93-3.26,3.13
		C35.03,107.15,34.87,107.45,34.53,107.31z"/>
	<path class="st18" d="M74.16,132.05c1.66,1.16,2.81,2.88,4.56,3.98c1.64,1.03,3.26,2.07,4.95,3.02c1.41,0.79,2.78,1.57,4.48,1.13
		c-3.52,1.1-6.69,0.29-9.6-1.83c-1.13-0.82-2.04-1.87-2.89-2.97c-0.73,0.28-1.21-0.17-1.66-0.62c-0.51-0.51-1.06-0.93-1.72-1.23
		c-0.06-1,1.07-0.83,1.42-1.43C73.85,132.01,73.99,131.91,74.16,132.05z"/>
	<path class="st12" d="M91.45,51.12c0.28,2.15,0.52,4.3,0.48,6.48c-0.32,0.06-0.4-0.18-0.48-0.4c-0.1-0.3-0.09-0.62-0.11-0.94
		c-0.18-2.51-0.18-2.51-2.67-2.35c-0.4,0.03-0.79,0.06-1.12-0.23c-0.2-0.19-0.35-0.42-0.49-0.66c-0.52-1.5-0.25-3.03-0.23-4.56
		c0.03-0.13,0.08-0.25,0.14-0.37c1.32-0.57,2.67-0.85,4.09-0.44C91.35,48.79,91.23,49.97,91.45,51.12z"/>
	<path class="st19" d="M104.19,130.75c0.56,2.27,0.13,4.49-0.41,6.69c-0.03,0.13-0.22,0.22-0.33,0.32
		c-1.32,0.75-2.83,0.98-4.26,0.95c-3.05-0.07-6.13-0.13-9.08-1.11c-0.51-0.17-1.13-0.24-1.23-0.95c0.05-0.5,0.37-0.74,0.82-0.83
		c1.34,0.16,2.59,0.74,3.97,0.76c0.71,0.01,1.42,0.13,2.14,0.07c0.15,0.05-0.04-0.02,0.12,0.01c0.63,0.08,1.06,0.79,1.72,0.63
		c0.72-0.18,0.55-1.07,1-1.5c0.08-0.08,0.19-0.13,0.3-0.17c1.34-0.16,2.63-0.58,3.98-0.64c0.61-0.03,0.82-0.38,0.87-0.91
		c0.04-0.39,0.04-0.79,0.02-1.19c0.02-0.6-0.06-1.21,0.11-1.81C103.98,130.94,104.07,130.83,104.19,130.75z"/>
	<path class="st20" d="M89.03,136.53c0.04,0.62,0.6,0.58,0.97,0.7c2.36,0.71,4.8,0.81,7.24,1.08c2.15,0.24,4.13-0.47,6.2-0.55
		c0,0.16,0,0.32,0.01,0.48c-0.3,0.98-0.99,1.33-1.99,1.31c-1.83-0.03-3.65,0.13-5.48,0.01c-1.06-0.07-2.05-0.21-2.93-0.82
		c-1.14-0.64-1.81,0.58-2.75,0.71c-1.07-0.41-2.18-0.73-3.19-1.26c-0.87-0.46-1.71-0.81-2.71-0.68c-0.24,0.03-0.48-0.02-0.63-0.25
		c0.5-0.46,1.12-0.3,1.7-0.32c0.76-0.03,1.5-0.11,2.22-0.36C88.13,136.45,88.57,136.18,89.03,136.53z"/>
	<path class="st21" d="M40.8,130.58c-0.13-0.24-0.38-0.25-0.6-0.32c-1.39-0.47-1.93-1.9-1.27-3.32c0.64-0.29,1.25-0.17,1.86,0.11
		c0.92,0.49,1.93,0.38,2.9,0.34c0.97-0.04,1.65,0.25,1.87,1.22c0.24,1.1,0.73,1.85,2,1.76c0.11-0.01,0.2,0.12,0.27,0.21
		C45.48,130.96,43.14,130.95,40.8,130.58z"/>
	<path class="st22" d="M93.6,100.8c-0.19-0.1-0.24-0.28-0.24-0.48c-0.58-0.88-0.22-1.87-0.31-2.8c-0.07-0.66,0.19-1.52-0.47-1.88
		c-0.64-0.35-1.28,0.25-1.84,0.59c-0.75,0.46-1.52,0.87-2.31,1.26c-0.12,0.04-0.24,0.04-0.36-0.01c-0.18-0.19-0.21-0.43-0.18-0.67
		c0.13-0.44,0.16-0.89,0-1.33c-0.05-0.23-0.04-0.47,0-0.7c0.13-0.41,0.1-0.84,0.18-1.26c1.09-1.53,2.82-1.86,4.45-2.37
		c0.24-0.07,0.55-0.17,0.71,0.18c-0.11,0.95,0.19,1.87,0.16,2.81C93.7,96.35,93.59,98.58,93.6,100.8z"/>
	<path class="st23" d="M87.6,53.52c0.91,0.23,1.78-0.02,2.66-0.2c0.73-0.15,1.13-0.03,1.22,0.92c0.11,1.12,0,2.29,0.44,3.36
		c0.28,1.35,0.25,2.72,0.25,4.08c-0.53,0-0.49-0.43-0.55-0.75c-0.08-0.39-0.03-0.79-0.07-1.19c-0.14-1.37-0.3-1.49-1.62-1.23
		c-2.1,0.41-2.66-0.03-2.64-2.22C87.3,55.36,86.98,54.38,87.6,53.52z"/>
	<path class="st24" d="M87.6,53.52c0,1.12-0.03,2.24,0.01,3.35c0.05,1.41,0.4,1.67,1.76,1.43c0.08-0.01,0.16-0.03,0.23-0.05
		c2.21-0.5,2.26-0.44,2.32,1.83c0.01,0.53-0.23,1.12,0.24,1.6c0,0.16,0,0.32,0,0.47c-1.38,0.55-2.79,0.78-4.26,0.39
		c-0.46-0.34-0.36-0.91-0.55-1.36c-0.14-0.69-0.03-1.42-0.28-2.1c-0.11-1.69-0.04-3.38-0.05-5.07c0-0.36,0.03-0.71,0.31-0.98
		C87.55,53.14,87.59,53.32,87.6,53.52z"/>
	<path class="st25" d="M88.8,118.56c0.92-0.03,1.42,0.8,2.18,1.1c0.33,0.13,0.63,0.34,0.96,0.46c1.23,0.47,1.32,0.4,1.41-0.93
		c0.02-0.24,0.02-0.48,0.24-0.63c0.11,1.69-0.23,3.35-0.27,5.03c-1.62-0.3-3.25-0.52-4.76-1.24
		C88.49,121.08,88.2,119.79,88.8,118.56z"/>
	<path class="st26" d="M60.72,135.61c-1.01-0.34-1.9-0.87-2.66-1.62c-1.96-1.8-2.86-4.21-3.74-6.62c-0.08-0.23-0.04-0.47,0.1-0.68
		c0.43-0.31,0.84-0.13,1.25,0.05c0.71,0.39,1.36,0.86,1.68,1.65c0.35,1.42,1.13,2.64,1.98,3.79c0.55,0.74,0.9,1.59,1.43,2.34
		C61,134.85,61.06,135.26,60.72,135.61z"/>
	<path class="st27" d="M92.44,66.95c0.3,2.88,0.38,5.77,0.45,8.66c0.01,0.48,0,0.95-0.01,1.43c-0.77-0.24-0.51-0.9-0.58-1.42
		c-0.02-0.56-0.01-1.12-0.01-1.68c0.1-0.97-0.26-1.91-0.23-2.88c-0.04-2.69-0.04-2.69-2.68-2.12c-1.25,0.27-1.7-0.02-1.83-1.28
		c-0.07-0.66-0.18-1.35,0.23-1.96c1.42-0.37,2.8-1.08,4.34-0.52C92.52,65.72,92.02,66.41,92.44,66.95z"/>
	<path class="st28" d="M93.04,138.75c3.05,0.86,6.16,0.43,9.25,0.44c0.62,0,0.76-0.63,1.15-0.95c-0.15,1.35-0.98,2.28-1.95,3.11
		c-1.7,0.19-3.41,0.36-5.02-0.47C95.19,140.41,94.06,139.66,93.04,138.75z"/>
	<path class="st29" d="M47.82,130.59c-1.56,0.32-2.31-0.44-2.56-1.9c-0.15-0.9-0.71-1.03-1.54-1.02c-1.06,0.02-2.21,0.34-3.16-0.47
		c0.22-0.24,0.51-0.27,0.82-0.26c2.05,0.24,4.12,0.12,6.17,0.16c0.89-0.05,1.66,0.14,2.01,1.08c0.35,0.94,0.9,1.53,1.98,1.44
		c0.15-0.01,0.28,0.12,0.38,0.25C50.58,130.29,49.22,130.56,47.82,130.59z"/>
	<path class="st30" d="M92.16,65.28c-1.48-0.25-2.84,0.6-4.31,0.47c-0.61-0.95-0.3-1.98-0.26-2.99c0.05-0.14,0.13-0.26,0.25-0.36
		c1.46,0.16,2.88-0.34,4.33-0.24c0.02,0.07,0.02,0.14,0,0.21C92.33,63.34,92.36,64.31,92.16,65.28z"/>
	<path class="st31" d="M60.72,135.61c-0.04-1.25-0.9-2.11-1.52-3.08c-0.84-1.31-1.85-2.53-2.07-4.15c1.12,0.14,1.49,1.24,2.29,1.79
		c0.54,0.7,1.45,1.01,1.89,1.81c0.16,1.6,1.51,2.49,2.26,3.73c0.21,0.35,0.71,0.58,0.51,1.12
		C62.86,136.69,61.76,136.21,60.72,135.61z"/>
	<path class="st32" d="M93.39,94.14c-0.37-0.95-0.24-1.95-0.27-2.94c-0.57-0.74-0.27-1.6-0.34-2.4c0.05-2.35-0.03-2.41-2.23-1.69
		c-0.79,0.26-1.58,0.49-2.06,1.26c-0.13,0.21-0.34,0.34-0.56,0.05c-0.29-0.72-0.13-1.47-0.17-2.21c0.01-0.35,0.02-0.69,0.21-1
		c1.49-0.99,3.15-1.31,4.9-1.3c0.32,0.38-0.06,0.91,0.27,1.29c0.13,2.79,0.27,5.58,0.39,8.37C93.53,93.76,93.43,93.95,93.39,94.14z"
		/>
	<path class="st33" d="M54.49,126.7c0.38,1.76,1.18,3.34,2.07,4.89c0.47,0.82,1.01,1.6,1.51,2.39c-1.73-1.07-2.9-2.71-4.31-4.12
		c-0.78-0.28-1.44-0.74-1.67-1.55c-0.22-0.82-1.16-0.88-1.47-1.56c1.18-0.86,2.46-0.67,3.76-0.41
		C54.52,126.43,54.55,126.56,54.49,126.7z"/>
	<path class="st34" d="M97.65,128.45c0.36-0.74,1.14-0.55,1.74-0.75c0.62-0.21,1.28-0.35,1.92-0.47c0.53-0.1,0.62-0.39,0.47-0.84
		c0.83,0.52,1.36,1.27,1.68,2.18c0.22,0.54,0.08,0.92-0.49,1.11c-0.93,0.32-1.88,0.58-2.84,0.81c-0.54,0.13-0.9-0.15-1.22-0.53
		C98.4,129.53,97.25,129.64,97.65,128.45z"/>
	<path class="st35" d="M64.07,136.84c-0.75-0.97-1.5-1.93-2.26-2.9c-0.44-0.57-0.87-1.14-0.62-1.93c0.91,0.45,2.1,0.33,2.73,1.35
		c0.4,1.71,1.97,3.2,3.62,3.43c0.32,0.04,0.62,0.16,0.94,0.16c0.3,0.02,0.6,0.03,0.89,0.13c0.12,0.05,0.21,0.13,0.28,0.23
		C67.75,137.65,65.9,137.38,64.07,136.84z"/>
	<path class="st36" d="M50.62,126.95c0.75-0.1,1.3,0.1,1.56,0.91c0.27,0.86,0.9,1.46,1.58,2.01c-0.61,0-1.23,0-1.84,0
		c-0.04,0-0.08-0.02-0.12-0.01c-1.5,0.47-2.16-0.39-2.56-1.63c-0.24-0.78-0.81-0.87-1.49-0.8c-0.07-0.13-0.05-0.24,0.06-0.34
		c0.52-0.31,1.14-0.15,1.68-0.36C49.9,126.68,50.3,126.62,50.62,126.95z"/>
	<path class="st37" d="M99.06,129.62c0.34,0.55,0.72,0.79,1.42,0.48c0.75-0.33,1.56-0.55,2.37-0.7c0.54-0.1,0.61-0.41,0.62-0.83
		c0.31,0.34,0.47,0.74,0.48,1.19c0.15,0.4,0.08,0.8,0.07,1.21c-1.11,1.03-2.48,1.28-3.92,1.28c-0.38,0-0.65-0.27-0.8-0.63
		c-0.18-0.22,0.02-0.64-0.39-0.76c-0.09-0.06-0.16-0.14-0.2-0.23C98.61,130.22,98.64,129.85,99.06,129.62z"/>
	<path class="st38" d="M92.64,75.6c0.08,0.48-0.2,1.02,0.25,1.44c-0.06,0.64,0.22,1.28,0.03,1.93c-0.12,0.06-0.23,0.05-0.33-0.04
		c-0.5-1.3-0.49-1.26-1.88-1c-0.84,0.16-1.66,0.47-2.53,0.44c-0.25-0.1-0.37-0.32-0.45-0.55c-0.03-0.12-0.04-0.25-0.03-0.37
		c0.1-0.42,0.05-0.89,0.39-1.23c1.05-0.51,2.21-0.58,3.32-0.88C91.83,75.23,92.28,75.27,92.64,75.6z"/>
	<path class="st39" d="M69.37,137.25c-0.32,0-0.65,0-0.97,0c-0.73-0.46-1.11-1.21-1.58-1.89c-0.22-0.32-0.39-0.71-0.02-1.07
		c1.25-0.39,2.44-0.43,3.29,0.78c0.72,1.02,1.83,1.23,2.92,1.51c-0.52,0.33-1.08,0.47-1.69,0.47C70.69,137.32,70,137,69.37,137.25z"
		/>
	<path class="st40" d="M73.01,136.58c-1.32,0.4-2.29-0.15-3.02-1.19c-0.64-0.92-1.52-1.12-2.56-0.99c-0.24,0.03-0.48,0-0.72,0
		c-0.02-0.06-0.04-0.13-0.05-0.19c0.07-0.12,0.17-0.2,0.29-0.25c1-0.28,2.06,0.04,3.06-0.25c0.3-0.07,0.61-0.1,0.93-0.08
		c0.55,0.04,0.97,0.34,1.3,0.73c0.65,0.76,1.4,1.32,2.4,1.48C74.17,136.25,73.63,136.5,73.01,136.58z"/>
	<path class="st41" d="M74.65,135.84c-0.9,0.37-1.5-0.01-2.08-0.71c-0.41-0.49-0.78-1.13-1.54-1.22c-0.07-0.12-0.07-0.23,0.02-0.34
		c0.37-0.3,0.74-0.48,1.18-0.13c0.65-0.1,1.1,0.21,1.53,0.67c0.53,0.57,1.04,1.18,1.9,1.27C75.33,135.54,74.99,135.69,74.65,135.84z
		"/>
	<path class="st42" d="M96.48,140.88c1.24,0.31,2.5,0.24,3.76,0.24c0.44,0,0.87-0.01,1.26,0.23c-0.88,1.1-2.25,1.35-3.46,0.59
		C97.5,141.61,97,141.24,96.48,140.88z"/>
	<path class="st8" d="M91.45,51.12c-0.41-1.17-0.31-2.4-0.49-3.6c-0.3-0.26-0.33-0.62-0.38-0.97c-0.28-1.92-0.34-3.86-0.44-5.79
		c-0.03-0.49-0.2-1.15,0.55-1.38c0.08,0.15,0.16,0.3,0.24,0.46c-0.45,1.76,0.08,3.51,0.12,5.27C91.09,47.11,91.47,49.1,91.45,51.12z
		"/>
	<path class="st43" d="M92.64,78.96c0.09,0,0.18,0.01,0.27,0.01c0.28,2.07,0.2,4.15,0.22,6.23c-0.43-0.33-0.2-0.8-0.26-1.2
		c-0.56-0.77-0.3-1.64-0.34-2.48c0.11-0.8-0.29-1.6-0.04-2.41C92.55,79.06,92.59,79.01,92.64,78.96z"/>
	<path class="st3" d="M105.37,37.22c0.08-0.91-0.25-2.05,1.22-2.17C106.47,35.94,106,36.62,105.37,37.22z"/>
	<path class="st24" d="M92.16,65.28c0.01-0.97,0.01-1.94,0.02-2.91c0.42,1.51,0.17,3.06,0.26,4.58
		C91.9,66.47,92.27,65.84,92.16,65.28z"/>
	<path class="st44" d="M69.37,137.25c0.61-0.41,1.3-0.13,1.95-0.19c-0.52,0.29-1.09,0.26-1.66,0.25
		C69.56,137.29,69.47,137.27,69.37,137.25z"/>
	<path class="st45" d="M103.92,131.04c0.01-0.43,0.02-0.85,0.03-1.28c0.25,0.29,0.25,0.64,0.24,0.99c-0.02,0.1-0.04,0.2-0.06,0.3
		C104.05,131.12,103.98,131.11,103.92,131.04z"/>
	<path class="st46" d="M102.71,33.81c-0.77,1.03-1.61,1.98-2.85,2.47c-0.33,0.09-0.46-0.16-0.47-0.39c-0.06-1.2-0.85-1.95-1.66-2.65
		c-2.62-2.25-5.15-4.63-7.97-6.64c-0.58-0.42-1.19-0.8-1.87-1.05c-0.36-0.13-0.8-0.29-0.55-0.85c0.16-0.8,0.53-1.5,1.08-2.1
		c0.91-0.99,1.76-1.03,2.79-0.18c1.43,1.19,2.86,1.16,4.27-0.21c1.07-1.04,2.31-1.68,3.72-2.04c3.12-0.78,5.87,1.48,5.64,4.71
		c-0.13,1.85-0.57,3.62-1.89,5.05c-0.81,0.87-1.04,1.87-0.44,2.96C102.67,33.18,102.73,33.48,102.71,33.81z"/>
	<path class="st47" d="M87.34,24.7c0.05,0.19,0.08,0.39,0.31,0.47c2.63,0.93,4.49,2.96,6.59,4.63c1.12,0.89,2.19,1.84,3.26,2.79
		c1.13,1,2.23,2.03,2.36,3.68c-2.73,1.54-5.61,1.21-7.93-0.8c-0.84-0.73-1.59-1.32-1.5-2.62c0.05-0.72-0.55-1.3-1.37-1.43
		c-0.53-0.47-1.2,0.28-1.73-0.2C86.87,29.05,86.62,26.87,87.34,24.7z"/>
	<path class="st48" d="M33.84,122.37c-0.07,0.01-0.15,0.02-0.22,0.03c-0.69-0.34-1.47,0.11-2.16-0.26
		c-0.77-0.27-1.56-0.34-2.37-0.25c-1.92-1.25-4.34-1.49-6.1-3.07c-0.35-0.32-0.73-0.61-1.1-0.91c-0.12-0.86-1.06-1.46-0.78-2.44
		c0.83-0.69,2.02-1.03,2.17-2.35c0.28-0.38-0.05-0.88,0.25-1.26c0.37-1.23,1.01-2.3,1.92-3.21c0.01,0.04,0.01,0.09-0.01,0.13
		c0.49,0.62,0.31,1.44,0.68,2.13c0.77,1.45,1.91,2.55,3.09,3.62c0.41,0.38,0.86,0.71,1.18,1.18c0.17,0.35,0.25,0.75,0.52,1.06
		c0.52,0.6,0.51,1.29,0.35,2.02c-0.34,1.55,0.34,2.55,1.87,2.85C33.5,121.72,34.07,121.67,33.84,122.37z"/>
	<path class="st49" d="M21.11,115.46c0.05,0.88,1.06,1.46,0.78,2.44C21.39,117.17,20.5,116.55,21.11,115.46z"/>
	<path class="st50" d="M23.53,111.85c-0.06,0.42,0.14,0.9-0.25,1.26C23.4,112.7,23.01,112.18,23.53,111.85z"/>
	<path class="st51" d="M54.04,79.91c3.33-4.69,6.54-9.47,10.05-14.03c0.12-0.15,0.31-0.25,0.46-0.37c0.79-1.05,2-1.57,3.03-2.31
		c2.07-1.49,4.34-2.62,6.68-3.63c0.91-0.39,1.75-0.95,2.65-1.38c0.87-0.42,1.76-0.74,2.75-0.66c0.37,1.03-0.72,1.36-1,2.08
		c-0.98,1.14-1.89,2.33-2.83,3.51c-0.27,0.34-0.57,0.66-0.96,0.87c-2.49,0.48-4.37,2.08-6.32,3.5c-1.54,1.12-3.03,2.32-4.48,3.57
		c-4.03,3.49-7.05,7.77-9.77,12.29c-0.95,1.57-1.85,3.17-2.46,4.91c-0.17,0.49-0.35,0.98-0.34,1.51c-0.16,0.76-0.85,1.03-1.37,1.43
		c-0.73,0.56-1.5,1.06-2.23,1.63c-0.77,0.67-1.61,1.25-2.42,1.87c-0.34,0.26-0.69,0.53-1.17,0.44c-0.24-0.15-0.35-0.33-0.15-0.58
		c1.07-1.71,2.41-3.24,3.35-5.04c-0.13-0.14-0.15-0.29-0.11-0.47c0.36-0.35,0.57-0.81,0.86-1.21c0.16-0.14,0.32-0.28,0.47-0.42
		c0.04-0.32,0.34-0.5,0.4-0.8c0.26-0.31,0.6-0.55,0.71-0.96c0.24-0.32,0.61-0.54,0.72-0.96c0.29-0.29,0.53-0.62,0.72-0.98
		c0.29-0.24,0.4-0.58,0.52-0.91c0.17-0.15,0.34-0.29,0.51-0.44c0.08-0.32,0.32-0.53,0.51-0.78c0.07-0.06,0.14-0.12,0.21-0.18
		c0.05-0.31,0.35-0.5,0.41-0.8C53.67,80.39,53.84,80.14,54.04,79.91z"/>
	<path class="st52" d="M79.69,57.61c-1.84,0.49-3.5,1.33-5.19,2.21c-1.21,0.63-2.49,1.29-3.83,1.75c-1.12,0.39-1.97,1.4-3.05,1.98
		c-1.07,0.58-2.06,1.3-3.08,1.96c0.47-1.42,1.79-2.27,2.41-3.6c1.13-1.46,2.26-2.92,3.39-4.38c0.27-0.35,0.53-0.69,0.92-0.9
		c0.55-0.68,1.34-1.02,2.09-1.36c3.39-1.53,6.97-2.51,10.51-3.62c0.16-0.05,0.32-0.01,0.47,0.04c0.4,0.29,0.12,0.58-0.05,0.8
		c-1.23,1.61-2.51,3.18-3.79,4.74C80.31,57.49,80.07,57.72,79.69,57.61z"/>
	<path class="st53" d="M44.16,94.56c0.01,0.2,0.05,0.38,0.25,0.48c-0.32,1.07-0.55,1.21-1.21,0.72c0.18-0.44,0.74-0.64,0.73-1.2
		C44,94.56,44.08,94.56,44.16,94.56z"/>
	<path class="st54" d="M48.26,87.84c-0.08,0.51-0.27,0.94-0.71,1.24c-0.22,0.03-0.35-0.02-0.26-0.28
		C47.61,88.48,47.94,88.16,48.26,87.84z"/>
	<path class="st55" d="M50.65,84.74c0.01,0.5-0.35,0.72-0.71,0.94c-0.08,0.12-0.15,0.11-0.23,0c0.31-0.4,0.61-0.81,0.92-1.21
		c0.07,0.06,0.1,0.12,0.08,0.18C50.69,84.71,50.67,84.74,50.65,84.74z"/>
	<path class="st56" d="M50.65,84.74c0-0.09-0.01-0.18-0.01-0.28c0.16-0.24,0.33-0.47,0.49-0.71c0.09-0.1,0.18-0.1,0.27,0.01
		C51.36,84.26,51.02,84.51,50.65,84.74z"/>
	<path class="st57" d="M47.29,88.8c0.09,0.09,0.17,0.18,0.26,0.28c-0.01,0.15-0.02,0.29-0.04,0.44c-0.21-0.06-0.52,0.26-0.61-0.03
		C46.82,89.24,47.04,88.96,47.29,88.8z"/>
	<path class="st58" d="M49.71,85.68c0.07,0,0.15,0,0.23,0c-0.01,0.5-0.36,0.75-0.73,0.97c-0.07-0.05-0.09-0.11-0.07-0.16
		c0.02-0.05,0.05-0.08,0.07-0.08C49.37,86.17,49.54,85.93,49.71,85.68z"/>
	<path class="st59" d="M49.2,86.41c0,0.08,0,0.16,0,0.24c0.04,0.38-0.19,0.59-0.47,0.76C48.51,86.91,48.97,86.71,49.2,86.41z"/>
	<path class="st55" d="M51.4,83.77c-0.09,0-0.18,0-0.27-0.01c0.23-0.32,0.47-0.64,0.7-0.96C51.87,83.21,51.84,83.58,51.4,83.77z"/>
	<path class="st55" d="M53.55,80.65c0.01,0.37-0.2,0.59-0.49,0.76c-0.32-0.39,0.2-0.5,0.25-0.77
		C53.39,80.54,53.47,80.55,53.55,80.65z"/>
	<path class="st60" d="M52.84,81.59c-0.02,0.36-0.2,0.61-0.51,0.78C52.09,81.84,52.54,81.77,52.84,81.59z"/>
	<path class="st60" d="M53.55,80.65c-0.08,0-0.16,0-0.24,0c0.16-0.33,0.36-0.62,0.74-0.73C54.01,80.25,53.89,80.52,53.55,80.65z"/>
	<path class="st61" d="M90.69,39.37c-0.34,0.33-0.22,0.76-0.2,1.14c0.14,2.34,0.31,4.67,0.47,7.01c-1.24,0.37-2.52,0.46-3.8,0.48
		c-0.29-0.21-0.36-0.53-0.35-0.84c0.06-2.77-0.5-5.53-0.27-8.3c0-0.2-0.01-0.41-0.02-0.61c0.04-0.2,0.1-0.38,0.37-0.31
		c0.44,0.84,1.13,1.32,2.08,1.15c0.73-0.13,1.32-0.53,1.28-1.43C90.55,38.18,90.66,38.77,90.69,39.37z"/>
	<path class="st16" d="M88.32,97.44c1.23-1.05,2.64-1.8,4.15-2.36c0.44-0.16,0.58,0.18,0.69,0.59c0.41,1.54,0.11,3.1,0.21,4.65
		c-1.54,0.25-2.3,1.43-3.07,2.57c-0.38,0.56-0.7,1.15-1,1.75c-0.35,0.69-0.66,0.59-0.98-0.01c-0.77-1.59-0.56-3.27-0.49-4.95
		C88.15,98.98,87.76,98.11,88.32,97.44z"/>
	<path class="st62" d="M88.13,99.57c-0.08,1.7,0.05,3.38,0.18,5.07c0.02,2.27,0.03,4.53,0.05,6.8c0,0.32-0.04,0.64,0.19,0.91
		c-0.05,0.24,0.02,0.51-0.23,0.68c-0.5-0.32-0.58-0.85-0.57-1.37c0.07-4.85-0.27-9.69-0.35-14.54c0-0.2,0.06-0.39,0.09-0.59
		c0.1-1.19,0-2.37-0.04-3.56c-0.03-0.92-0.4-0.79-0.94-0.43c-1.1,0.72-2.1,1.53-2.98,2.52c-0.31,0.35-0.63,1.01-1.34,0.6
		c-0.25-0.49-0.19-1-0.11-1.51c0.04-0.19,0.16-0.39,0.13-0.58c-0.43-2.26,1.12-3.25,2.69-4.23c0.5-0.32,1.05-0.57,1.57-0.84
		c1.06-0.55,1.27-0.43,1.45,0.75c0.02,0.16,0.03,0.32,0.06,0.47c0.04,0.12,0.08,0.24,0.1,0.37c0.06,0.44,0.13,0.87,0.25,1.3
		c0.2,0.74-0.03,1.46-0.14,2.18c-0.04,0.4,0.09,0.81-0.09,1.2c0,0.25-0.01,0.5-0.01,0.75c0.17,0.39,0.14,0.78,0.02,1.17
		c0,0.25-0.01,0.5-0.01,0.75C88.27,98.15,88.23,98.86,88.13,99.57z"/>
	<path class="st63" d="M86.87,38.4c-0.14,3.21,0.35,6.39,0.28,9.6c-0.02,0.08-0.03,0.17-0.05,0.25c-0.79-0.29-0.47-0.99-0.55-1.53
		c0-0.56,0.32-1.1,0.24-1.44c0.09,0.17-0.11,0.54-0.2,0.92c-0.49,1.49-0.74,1.69-2.29,1.7c-0.49,0-0.94,0.14-1.4,0.28
		c-1.69,0.55-3.38,1.13-5.11,1.54c-0.35,0.08-0.68,0.25-1.01-0.05c0.35-0.81,1.21-1.28,1.45-2.16c1.63-1.46,2.78-3.34,4.25-4.95
		c0.64-0.7,1.17-1.5,1.75-2.25c0.16-0.16,0.32-0.31,0.48-0.47c0.18-0.27,0.35-0.55,0.67-0.69C86,39.13,86.2,38.31,86.87,38.4z"/>
	<path class="st64" d="M86.87,38.4c-0.44,0.4-0.81,0.91-1.47,0.96c-0.1-0.25,0.11-0.34,0.25-0.46c0.09-0.16,0.18-0.32,0.27-0.48
		c0.23-0.12,0.4-0.43,0.74-0.24C86.73,38.25,86.8,38.32,86.87,38.4z"/>
	<path class="st65" d="M86.65,38.17c-0.25,0.08-0.49,0.16-0.74,0.24c0.28-0.24,0.16-1.3,0.98-0.49
		C86.81,38.01,86.73,38.09,86.65,38.17z"/>
	<path class="st66" d="M85.65,38.89c-0.08,0.15-0.17,0.31-0.25,0.46c-0.23,0.17-0.45,0.34-0.68,0.5
		C84.78,39.3,85.07,38.95,85.65,38.89z"/>
	<path class="st67" d="M33.84,122.37c-0.04-0.2-0.15-0.47-0.34-0.41c-1.36,0.39-1.86-0.71-2.56-1.44c-0.26-0.27-0.53-0.6-0.28-1.05
		c0.57-1.02,0.66-1.97-0.27-2.88c-0.18-0.17-0.11-0.6-0.16-0.9c1.12,0,1.79,0.97,2.77,1.27c1.42,0.78,2.99,1.16,4.5,1.72
		c0.76,0.78,0.93,1.79,1.06,2.82c0.21,1.57,0.63,3.07,1.43,4.47c0.33,0.58,1.22,0.47,1.29,1.24c-0.24,0-0.48,0-0.72,0
		c-0.5-0.33-1.1-0.11-1.63-0.27c-2.04-0.64-2.64-2.69-3.96-4.04C34.65,122.56,34.35,122.25,33.84,122.37z"/>
	<path class="st68" d="M31.46,122.14c0.71,0.14,1.49-0.24,2.16,0.26c-0.72-0.02-1.45-0.04-2.17-0.06c-0.01,0-0.04-0.06-0.04-0.09
		C31.41,122.21,31.44,122.17,31.46,122.14z"/>
	<path class="st69" d="M99.06,129.62c-0.19,0.37-0.2,0.76-0.17,1.16c0.28,0.94-0.42,0.97-1.01,1.04c-4.16,0.53-8-0.41-11.58-2.54
		c-1.17-0.7-2.33-1.4-3.34-2.32c-0.37-0.34-0.9-0.7-0.71-1.28c0.21-0.62,0.86-0.42,1.36-0.48c0.24-0.03,0.48-0.02,0.72-0.02
		c0.13,0,0.26,0.03,0.38,0.08c0.49,0.17,0.98-0.46,1.46,0c3.25,2.83,6.94,4.11,11.26,3.2c0.07-0.02,0.15-0.03,0.22-0.02
		C97.52,129.56,98.57,129.25,99.06,129.62z"/>
	<path class="st70" d="M88.32,113.53c0.42,0.51,0.09,1.12,0.24,1.67c0.26,2.09,0.07,4.2,0.1,6.29c0.01,0.69-0.46,0.61-0.91,0.42
		c-1.57-0.22-3.14,0.06-4.71,0.02c-1.19-0.3-1.66-0.8-1.66-1.76c0.24-1.23,0.11-2.47,0.1-3.71c-0.02-3-0.01-6-0.01-9
		c0-0.48-0.02-0.97,0.35-1.36c0.95,0.21,0.6,1.02,0.56,1.52c-0.26,2.95,0.7,5.57,2.02,8.11c0.63,1.2,1.44,2.29,2.35,3.29
		c0.27,0.3,0.55,0.86,1.02,0.66c0.4-0.17,0.2-0.72,0.21-1.1c0.02-1.23,0-2.47,0.01-3.7C88,114.41,87.93,113.91,88.32,113.53z"/>
	<path class="st71" d="M97.44,128.47c-0.07,0.58-0.48,0.64-0.96,0.66c-3.69,0.12-7.06-0.81-10.01-3.09c-0.26-0.2-0.75-0.3-0.29-0.77
		c0.15-0.08,0.31-0.15,0.46-0.23c0.89-0.22,1.81-0.2,2.72-0.28c0.18-0.06,0.37-0.08,0.56-0.08c0.37,0.03,0.71,0.15,1.03,0.34
		C93.47,125.49,95.97,126,97.44,128.47z"/>
	<path class="st34" d="M81.38,120.45c0.45,0.61,1.1,1,1.66,1.48c0.92,0.55,1.5,1.46,2.28,2.16c0.42,0.38,0.21,0.63-0.25,0.69
		c-0.34,0.04-0.54,0.1-0.35,0.48c-0.09,0.02-0.17,0.05-0.26,0.07c-0.97-0.09-1.98,0.35-2.93-0.15c-0.04-0.62-0.35-1.12-0.72-1.6
		c-0.96-1.27-1.93-2.53-2.75-3.89c-0.3-0.49-0.67-1-0.56-1.65c1.67-0.02,2.79,1.02,3.9,2.06C81.45,120.23,81.45,120.34,81.38,120.45
		z"/>
	<path class="st7" d="M87.75,121.91c0.69,0.05,0.85-0.29,0.84-0.93c-0.04-1.93-0.02-3.86-0.03-5.78c0.51,1.09,0.12,2.24,0.24,3.36
		c-0.11,1.26,0.24,2.55-0.23,3.79C88.3,122.2,88.02,122.06,87.75,121.91z"/>
	<path class="st72" d="M89.55,124.83c-0.95,0.36-1.94,0.14-2.91,0.2c0.58-0.42,1.29-0.33,1.94-0.47
		C88.86,124.84,89.29,124.51,89.55,124.83z"/>
	<path class="st73" d="M90.95,125.02c-0.35,0.05-0.65-0.07-0.95-0.22c-0.08-0.05-0.1-0.1-0.08-0.15c0.02-0.05,0.05-0.08,0.07-0.08
		C90.39,124.54,90.76,124.58,90.95,125.02z"/>
	<path class="st74" d="M89.99,124.57C90,124.65,90,124.73,90,124.8c-0.15,0.01-0.3,0.02-0.45,0.03c-0.32-0.11-0.72,0.09-0.97-0.26
		C89.05,124.57,89.52,124.57,89.99,124.57z"/>
	<path class="st52" d="M40.32,102.23c0.56-1.03,1.79-1.41,2.41-2.39c0.55-0.4,0.84-1.06,1.41-1.44c0.33-0.22,0.66-0.64,1.07-0.09
		c-0.71,3.04-0.57,6.15-0.81,9.23c-0.05,0.67,0.37,1.32,0.09,2c-0.52,1.24-1.72,1.8-2.65,2.62c-0.12,0.04-0.24,0.04-0.36,0
		c-0.74-0.63-1.67-1.1-1.76-2.24c0.21-1.09,0.24-2.17,0.15-3.29C39.72,105.15,39.79,103.66,40.32,102.23z"/>
	<path class="st75" d="M40.32,102.23c-0.02,2.32-0.27,4.64-0.03,6.96c0.05,0.43-0.31,0.62-0.44,0.94c-1.15-0.12-1.65-1.25-2.62-1.67
		c-0.01-0.06-0.02-0.13-0.03-0.19c-0.54-0.33-1.14-0.5-1.72-0.74c-0.33-0.14-0.72-0.22-0.44-0.73c1.15-1.51,2.73-2.54,4.08-3.84
		C39.56,102.79,39.77,102.23,40.32,102.23z"/>
	<path class="st23" d="M45.12,98.15c-0.66,0.06-0.93,0.65-1.36,1.01c-0.32,0.26-0.55,0.67-1.03,0.68c0.4-0.8,0.55-1.65,0.48-2.54
		c-0.02-0.19,0.01-0.53-0.07-0.56c-1.23-0.43-0.22-0.68,0.07-0.98c0.76,0.37,0.86-0.39,1.21-0.72c1.23-0.65,2.22-1.63,3.36-2.4
		c0.78-0.25,0.72,0.37,0.75,0.78c0.04,0.62-0.16,1.23-0.22,1.85C47.63,96.67,46.31,97.34,45.12,98.15z"/>
	<path class="st75" d="M76.79,49.68c1.86-0.55,3.72-1.12,5.58-1.66c0.82-0.24,1.58-0.57,2.53-0.39c0.96,0.18,1.16-0.85,1.48-1.55
		c0.16,0.13,0.22,0.31,0.24,0.51c-0.1,1.26-0.28,2.51-0.69,3.72c-0.44,0.56-0.68,1.31-1.47,1.53c-1.81,0.57-3.61,1.14-5.42,1.7
		c-0.93,0.29-1.85,0.57-2.76,0.91c-1.71,0.64-3.34,1.47-5.01,2.18c0.24-0.83,0.96-1.31,1.41-1.99c0.19-0.29,0.52-0.49,0.52-0.89
		c1.09-0.99,1.91-2.21,2.84-3.33C76.28,50.15,76.46,49.84,76.79,49.68z"/>
	<path class="st76" d="M87.84,136.8c-1.29,0.72-2.7,0.44-4.08,0.46c-2.31-0.91-4.17-2.36-5.45-4.52c-0.23-0.39-0.69-0.64-1.04-0.96
		c-0.41-0.24-0.85-0.36-1.33-0.4c-0.99-0.06-1.74-0.93-1.85-2.03c1.48-0.6,2.46-0.38,3.56,0.66c2.6,2.47,5.56,4.42,8.83,5.87
		C86.99,136.11,87.55,136.26,87.84,136.8z"/>
	<path class="st77" d="M74.16,129.36c0.51,0.97,1.01,1.93,2.33,1.95c0.3,0,0.61,0.17,0.78,0.47c-1.07-0.3-2.12-0.31-3.12,0.27
		c-0.08,0.06-0.17,0.12-0.25,0.19c-0.55,0.46-1.08,0.49-1.55-0.1c-0.72-0.91-1.43-1.81-2.15-2.72c-0.24-0.31-0.43-0.69-0.12-1.1
		c1.06-0.33,1.91,0.41,2.88,0.57C73.35,129.08,73.84,128.99,74.16,129.36z"/>
	<path class="st78" d="M88.32,113.53c0,1.99,0.01,3.98,0,5.97c0,0.3,0.14,0.69-0.21,0.87c-0.42,0.22-0.66-0.16-0.89-0.41
		c-3.19-3.36-5.32-7.18-5.14-11.99c0.02-0.64,0-1.27-0.01-1.91c-0.42-0.45-0.3-0.98-0.23-1.5c0.89-2.84,2.07-5.52,4.28-7.61
		c0.46-0.44,0.89-1.09,1.72-0.71c-0.05,2.73,0.01,5.46,0.14,8.19c0.11,2.23,0.09,4.47,0.09,6.71c0,0.65,0.06,1.27,0.24,1.89
		C88.32,113.2,88.32,113.36,88.32,113.53z"/>
	<path class="st79" d="M37.44,118.81c-1.62-0.3-3.18-0.75-4.57-1.68c-0.74-0.92-1.11-2.08-1.17-3.15c-0.08-1.25-0.07-2.54,0.04-3.81
		c0.05-0.52,0.18-0.97,0.88-0.72c0.56,0.24,1.12,0.48,1.68,0.72c2.13,0.71,4.05,1.76,5.63,3.37c0.47,0.48,1.08,0.63,1.71,0.75
		c0.52,0.18,1.13-0.01,1.59,0.41c-1.06,0.86-0.68,1.93-0.41,2.98c0.19,0.75,0.65,1.47,0.25,2.29c-0.09,0.1-0.2,0.17-0.33,0.19
		C40.92,119.9,39.09,119.71,37.44,118.81z"/>
	<path class="st80" d="M32.62,109.45c-1.23,0.49-0.32,1.55-0.55,2.32c-0.14,0.47,0.1,1.13-0.09,1.72c-0.09,0.29-0.16,0.8-0.01,0.92
		c0.93,0.73,0.46,1.87,0.9,2.73c-1-0.25-1.76-0.96-2.64-1.44c-1.5-1.05-2.83-2.28-3.88-3.79c-0.65-0.93-1.09-1.95-0.92-3.13
		c1.51-0.81,2.98-1.6,4.77-0.59C30.99,108.62,31.9,108.87,32.62,109.45z"/>
	<path class="st21" d="M41.48,114.51c-0.5,0.04-1.01-0.06-1.33-0.4c-1.64-1.79-3.85-2.71-5.85-3.94c0.73,0.21,1.12-0.11,1.12-0.82
		c0.01-1,0.44-1.25,1.33-0.88c0.14,0.06,0.32,0,0.48,0c1.24-0.03,1.71,1.16,2.62,1.67c0.56,0.63,1.12,1.26,1.69,1.89
		C42.53,113.13,42.52,113.95,41.48,114.51z"/>
	<path class="st81" d="M35.04,106.8c0.43,0.92,1.64,0.68,2.15,1.47c-0.94-0.17-1.86-0.41-2.67-0.97
		C34.7,107.14,34.87,106.97,35.04,106.8z"/>
	<path class="st82" d="M70.08,128.4c0.55,1.53,1.85,2.52,2.74,3.8c0.32,0.46,0.73,0.03,1.09,0.04c-0.35,0.69-1.22,0.65-1.67,1.2
		c-0.39,0.08-0.79,0.17-1.18,0.25c-0.53,0.27-0.94,0.04-1.24-0.38c-1.15-1.58-2.65-2.89-3.58-4.64c-0.3-0.57-0.7-1.1-0.28-1.77
		c1-0.38,1.74,0.42,2.63,0.55C69.12,127.71,69.81,127.73,70.08,128.4z"/>
	<path class="st83" d="M85.67,50.4c0.25-1.28,0.5-2.55,0.75-3.83c0.15-0.15,0.31-0.15,0.47-0.01c0.13,0.56-0.17,1.17,0.22,1.69
		c0.08,1.6-0.15,3.21,0.24,4.79c0.01,2.08,0.03,4.16,0.04,6.24c-0.67-0.04-0.54-0.59-0.58-0.97c-0.07-0.75-0.02-1.51-0.03-2.27
		c-0.02-1.71-0.06-1.75-1.65-1.81C84.71,52.87,85.15,51.63,85.67,50.4z"/>
	<path class="st84" d="M74.16,129.36c-0.4-0.06-0.86,0.15-1.2-0.24c0.05-0.05,0.1-0.1,0.15-0.15c0.88-0.37,1.81-0.15,2.72-0.2
		c0.48-0.03,0.96,0.04,1.42-0.13c0.74-0.12,1.47-0.16,2.21,0c1.35,1.03,2.65,2.12,4.12,3c1.78,1.06,3.64,1.95,5.55,2.73
		c0.77,0.31,1.51,0.45,2.32,0.24c0.25-0.01,0.49,0.03,0.69,0.21c0.02,0.77-0.7,0.57-1.07,0.83c-0.4,0.27-0.92,0.2-1.34,0.43
		c-0.34,0-0.57,0.16-0.71,0.46c-0.4,0.09-0.79,0.18-1.19,0.27c-4.05-1.68-7.76-3.86-10.85-7.03
		C76.18,128.93,75.1,129.53,74.16,129.36z"/>
	<path class="st85" d="M103.92,131.04c0.07,0,0.13,0,0.2,0.01c0.01,0.64,0.02,1.27,0.03,1.91c-0.64,0.85-1.68,0.73-2.55,0.99
		c-0.82,0.24-1.67,0.36-2.45,0.74c-0.32-0.28-0.31-0.64-0.23-1.02c0.3-0.4-0.09-0.86,0.11-1.27c0.01-0.12,0.02-0.23,0.03-0.34
		c0.04-0.29,0.06-0.59,0.34-0.78c0.33,0.88,1.04,0.83,1.73,0.65C102.07,131.67,102.99,131.34,103.92,131.04z"/>
	<path class="st45" d="M99.12,134.64c0.27-0.43,0.56-0.68,1.16-0.77c1.31-0.19,2.58-0.6,3.87-0.91c0,0.36,0.05,0.72,0,1.07
		c-0.1,0.75-0.12,1.39-1.32,1.28c-1.31-0.12-2.6,0.61-3.96,0.53C98.53,135.35,98.7,134.97,99.12,134.64z"/>
	<path class="st86" d="M99.12,134.64c-0.08,0.4-0.17,0.8-0.25,1.2c-0.05,0.06-0.12,0.11-0.15,0.18c-0.67,2.16-0.84,2.21-2.73,0.78
		c-0.82-0.43-1.8-0.67-2.08-1.75c0.85-0.22,1.72-0.18,2.58-0.17c1.04,0.02,2.01,0.05,2.26-1.28c0.03-0.16,0.2-0.23,0.38-0.17
		C99.13,133.84,99.12,134.24,99.12,134.64z"/>
	<path class="st87" d="M93.84,135.12c0.7,0.58,1.6,0.92,2.16,1.68c-1.84,0.46-3.61,0.06-5.35-0.48c-0.3-0.09-0.57-0.25-0.9-0.25
		c0.68-0.65,1.62-0.79,2.42-1.19c0.55-0.45,1.05-0.18,1.56,0.09C93.76,135.02,93.8,135.07,93.84,135.12z"/>
	<path class="st88" d="M88.08,93.6c-0.01-0.79-0.02-1.58-0.03-2.37c-0.07-0.12-0.08-0.25-0.02-0.37c0.08-0.34,0.05-0.71,0.27-1.02
		c0.67-0.93,3.69-1.74,4.81-1.27c0,0.88,0,1.76,0.01,2.64c-1.37,0.46-2.75,0.9-4,1.64c-0.32,0.19-0.77,0.25-0.8,0.76
		C88.24,93.71,88.16,93.71,88.08,93.6z"/>
	<path class="st89" d="M88.13,99.57c-0.01-0.71-0.02-1.41-0.02-2.12c0.07-0.01,0.15-0.01,0.22-0.01
		C88.23,98.15,88.53,98.89,88.13,99.57z"/>
	<path class="st90" d="M88.08,93.6c0.08,0,0.16,0,0.24,0c-0.06,0.4,0.16,0.84-0.22,1.18C88.1,94.39,88.09,94,88.08,93.6z"/>
	<path class="st91" d="M88.11,96.7c-0.01-0.39-0.01-0.78-0.02-1.17C88.43,95.92,88.42,96.31,88.11,96.7z"/>
	<path class="st92" d="M85.2,54.24c1.32-0.84,1.85-0.59,1.91,0.97c0.04,0.99,0,1.98,0.01,2.97c0.01,0.38-0.14,0.81,0.26,1.1
		c0.39,0.6,0.06,1.29,0.22,1.92c0.24,0.49,0.06,1.01,0.12,1.52c-0.02,1.79,0.05,3.58-0.04,5.37c-0.64,0.22-0.5-0.34-0.63-0.63
		c-0.09-1.28-0.05-2.57-0.02-3.85c0.08-0.96-0.13-1.91-0.13-2.86c0-0.68-0.29-0.78-0.89-0.73c-0.54,0.04-1.05,0.42-1.62,0.18
		c-0.24-0.35-0.22-0.75-0.18-1.15c0.18-0.71,0.18-1.45,0.24-2.18C84.77,56.02,84.34,54.94,85.2,54.24z"/>
	<path class="st27" d="M87.61,62.64c0-0.48-0.01-0.96-0.01-1.44c0.4,0.33,0.18,0.8,0.24,1.2c0,0.08,0,0.16,0,0.24
		C87.76,62.75,87.69,62.75,87.61,62.64z"/>
	<path class="st93" d="M59.28,130.33c-0.72-0.65-1.43-1.3-2.15-1.95c-0.34-0.61-0.95-0.95-1.45-1.41c-0.27-0.22-0.61-0.39-0.74-0.75
		c-0.56-1.59-1.12-3.19-1.73-4.77c-0.07-0.18-0.05-0.39,0.07-0.57c0.22-0.17,0.47-0.22,0.74-0.23c0.72,0.08,1.45,0.13,2,0.7
		c0.81,2.5,2.02,4.82,3.09,7.21C59.35,129.13,59.8,129.69,59.28,130.33z"/>
	<path class="st94" d="M53.28,120.96c0.99,1.93,1.35,4.1,2.4,6.01c-0.4-0.09-0.79-0.18-1.19-0.27c0-0.07-0.01-0.14-0.01-0.21
		c-0.23-0.24-0.53-0.13-0.79-0.14c-1.75-0.03-1.75-0.03-2.21-1.66c-0.13-0.46-0.32-0.91-0.42-1.38c-0.23-1.14-0.7-1.93-2.05-1.85
		c-0.27,0.02-1.04,0.1-0.61-0.68C50.04,120.54,51.67,120.36,53.28,120.96z"/>
	<path class="st95" d="M87.61,62.64c0.08,0,0.15,0,0.23,0c0,1.04,0.01,2.08,0.01,3.12c0.02,0.75-0.01,1.51,0.08,2.26
		c0.07,0.61,0.32,1,1.12,0.68c0.72-0.29,1.53-0.39,2.31-0.53c0.73-0.13,1.13,0.13,1.06,0.96c-0.06,0.63-0.01,1.27-0.01,1.91
		c-1.47,0.53-2.93,1.07-4.54,0.82c-0.62-1.2-0.51-2.44-0.24-3.7C87.61,66.32,87.61,64.48,87.61,62.64z"/>
	<path class="st96" d="M87.83,71.76c1.56-0.02,2.99-0.82,4.57-0.72c-0.06,0.97,0.4,1.9,0.23,2.88c-1.04-0.08-2.05,0.15-3.06,0.35
		c-1.53,0.3-1.74,0.12-1.81-1.42c-0.01-0.24-0.02-0.48-0.04-0.71C87.71,71.99,87.75,71.87,87.83,71.76z"/>
	<path class="st97" d="M87.83,72c0.08,0.17,0.22,0.34,0.24,0.52c0.18,1.72,0.17,1.7,1.9,1.38c0.88-0.17,1.78-0.79,2.66,0.02
		c0,0.56,0.01,1.12,0.01,1.68c-1.58-0.14-3,0.67-4.55,0.72c-0.24-0.06-0.38-0.22-0.47-0.44C87.55,74.58,87.22,73.26,87.83,72z"/>
	<path class="st98" d="M37.44,118.81c1.76,0.4,3.52,0.8,5.28,1.19c0.22,0.11,0.43,0.26,0.46,0.51c0.28,1.91,1.39,3.54,1.77,5.4
		c0.14,0.66,0.48,0.93,1.14,0.96c0.58,0.02,1.2-0.15,1.69,0.34c-0.01,0.08-0.02,0.15-0.03,0.23c-1.73,0-3.47,0-5.2,0
		c-0.44,0-0.87-0.01-1.26-0.23c-1.51-0.61-2.03-1.84-2.51-3.34C38.24,122.2,38.43,120.35,37.44,118.81z"/>
	<path class="st99" d="M59.28,130.33c-0.25-1.89-1.4-3.41-2.07-5.13c-0.48-1.23-1.3-2.35-1.29-3.76c0.64-0.37,1.12,0.19,1.68,0.29
		c0.68,0.37,1.39,0.71,1.83,1.39c0.98,3.11,2.59,5.9,4.41,8.58c0.36,0.53,0.83,0.98,0.79,1.69c-0.17,0.25-0.39,0.25-0.64,0.16
		c-0.04-0.04-0.08-0.09-0.13-0.13c-0.89-0.47-1.77-0.93-2.66-1.4C60.57,131.44,59.74,131.1,59.28,130.33z"/>
	<path class="st100" d="M92.86,81.37c0.01,0.88,0.01,1.76,0.02,2.63c-1.59,0.4-3.19,0.8-4.78,1.2c-0.6-0.84-0.32-1.75-0.24-2.65
		c0.05-0.13,0.13-0.24,0.23-0.34c1.09-0.52,2.27-0.73,3.42-1.06C91.97,81.02,92.46,80.99,92.86,81.37z"/>
	<path class="st101" d="M93.11,88.56c-1.39-0.19-2.57,0.59-3.84,0.9c-0.73,0.17-0.92,0.88-1.15,1.5c-0.28-0.3-0.08-0.68-0.18-1
		c-0.08-0.48-0.24-0.98,0.18-1.4c0.17-1.02,1.02-1.29,1.8-1.61c0.25-0.1,0.54-0.1,0.8-0.2C93.04,85.9,93.13,85.97,93.11,88.56z"/>
	<path class="st102" d="M88.12,88.56c-0.02,0.48-0.04,0.96-0.06,1.44c-0.07,0.1-0.13,0.1-0.18-0.02l-0.08,0.02
		c-0.19-0.6,0.06-1.25-0.18-1.85c-0.14-0.62-0.18-1.24,0.09-1.84c0.09-0.12,0.21-0.18,0.36-0.15C88.08,86.96,88.1,87.76,88.12,88.56
		z"/>
	<path class="st103" d="M88.06,86.17c-0.06-0.01-0.12-0.01-0.19-0.02c-0.05-0.04-0.1-0.09-0.16-0.13c-0.38-1.06-0.17-2.16-0.16-3.24
		c0.03-0.14,0.08-0.26,0.16-0.38c0.1-0.12,0.22-0.15,0.36-0.08c0.01,0.96,0.02,1.92,0.02,2.88C88.09,85.52,88.07,85.84,88.06,86.17z
		"/>
	<path class="st104" d="M48.24,120.97c0.1,0.07,0.21,0.2,0.29,0.19c2.09-0.43,2.7,0.87,3,2.55c0.05,0.27,0.23,0.53,0.25,0.8
		c0.12,1.27,0.64,2.03,2.07,1.74c0.24-0.05,0.48,0.02,0.63,0.25c-1.3,0.02-2.63-0.22-3.86,0.45c-0.39,0.01-0.78,0.01-1.17,0.02
		c-0.08-0.01-0.17,0-0.23-0.04c-1.2-0.76-2.43-4.71-1.89-6.08C47.66,120.7,47.97,120.69,48.24,120.97z"/>
	<path class="st44" d="M66.72,134.4c0.22,1.15,1.28,1.81,1.68,2.85c-2.17,0.12-3.41-1.2-4.46-2.84c-0.22-0.34-0.54-0.63-0.08-1.01
		c0,0-0.01,0.01-0.01,0.01c0.38,0.3,0.8,0.24,1.22,0.1c0.29-0.04,0.54,0.06,0.78,0.19C66.18,133.89,66.54,134.03,66.72,134.4z"/>
	<path class="st105" d="M47.28,120.96c0.21,2.19,0.81,4.24,2.16,6.01c-0.51,0.4-1.1,0.18-1.66,0.24c-0.12,0-0.24-0.01-0.36-0.01
		c-2.28-0.02-2.18-0.06-3.01-2.06c-0.69-1.68-1.29-3.37-1.7-5.13c0.08-0.01,0.16-0.01,0.24-0.02
		C44.49,119.91,45.97,120.06,47.28,120.96z"/>
	<path class="st106" d="M99.36,132.26c-0.01,0.07-0.02,0.14-0.02,0.2c-0.22,0.19-0.49,0.32-0.77,0.25
		c-2.05-0.47-3.88,0.31-5.66,1.12c-1.53,0.7-2.73,0.65-4-0.59c-2.23-2.17-5.02-3.37-7.98-4.2c-2.04-2.12-4.21-4.14-5.72-6.72
		c-0.27-0.46-0.87-0.96-0.12-1.53c0.62-0.11,1.14,0.21,1.7,0.37c0.65,0.34,1.21,0.81,1.77,1.27c0.34,0.34,0.66,0.7,1.07,0.95
		c0.63,0.58,1.41,0.98,1.97,1.64c0.91,0.53,1.93-0.07,2.86,0.29c-0.42,0.34-0.92,0.12-1.38,0.19c-0.22,0.03-0.52-0.08-0.62,0.21
		c-0.1,0.27,0.15,0.43,0.31,0.59c1.79,1.75,3.97,2.89,6.2,3.95c1.78,0.85,3.7,1.25,5.61,1.39c1.19,0.09,2.44-0.13,3.67-0.16
		c0.43-0.01,0.61-0.32,0.65-0.72c0.06,0.02,0.13,0.03,0.19,0.04C99.46,131.24,99.03,131.82,99.36,132.26z"/>
	<path class="st107" d="M99.36,132.26c-0.51-0.4-0.1-0.98-0.27-1.45c0.53-0.13,0.15,0.34,0.31,0.46
		C99.38,131.61,99.37,131.93,99.36,132.26z"/>
	<path class="st108" d="M87.88,82.32c-0.03,0.08-0.05,0.16-0.08,0.24c-0.15,0.06-0.26,0.02-0.34-0.12
		c-0.11-0.18-0.15-0.38-0.17-0.59c-0.05-0.9-0.03-1.8-0.03-2.71c-0.04-0.92-0.01-1.85-0.02-2.77c0.03-0.68-0.01-1.36,0.01-2.05
		c0.1-2.74,0.1-2.73-2.52-2.18c-0.44,0.09-0.9,0.4-1.34-0.01c-0.32-0.72-0.19-1.46-0.12-2.2c0.15-0.52,0.13-1.07,0.36-1.57
		c1.11-0.84,2.34-1.2,3.73-0.93c0.01,0.27-0.04,0.56,0.26,0.72c0.29,1.19,0.1,2.4,0.22,3.6c0,0.08,0,0.16,0,0.24
		c0.01,1.36,0.01,2.72,0.02,4.08c0.17,0.47,0.15,0.95,0.01,1.42c0,0.09,0,0.18,0,0.27C88.28,79.29,88.41,80.81,87.88,82.32z"/>
	<path class="st43" d="M88.09,78.24c0.91-0.22,1.84-0.4,2.74-0.65c1.82-0.52,1.81-0.53,1.81,1.37l0,0
		c-1.27,0.88-2.78,1.02-4.22,1.34c-0.19,0.04-0.38-0.06-0.45-0.29C88.02,79.42,87.83,78.82,88.09,78.24z"/>
	<path class="st109" d="M88.09,78.24c0,0.64,0,1.28,0,1.92c0.48,0.72,0.47,1.44,0.01,2.16c0,0-0.02-0.01-0.02-0.01
		c-0.07,0-0.13,0-0.2,0c0-1.52-0.01-3.03-0.01-4.55C88.05,77.88,88.07,78.06,88.09,78.24z"/>
	<path class="st109" d="M87.86,77.5c0-0.47-0.01-0.95-0.01-1.42c0.08,0.08,0.16,0.16,0.24,0.24C88.02,76.72,88.23,77.17,87.86,77.5z
		"/>
	<path class="st110" d="M65.76,133.93c-0.24-0.07-0.49-0.15-0.73-0.22c-0.26,0.11-0.51,0.18-0.47-0.26
		c-1.76-2.57-3.27-5.29-4.68-8.07c-0.37-0.73-0.65-1.43-0.6-2.24c0.81-0.21,1.2,0.48,1.74,0.83c0.56,0.37,1.13,0.74,1.58,1.26
		c1.11,2.8,2.97,5.14,4.65,7.59c0.37,0.54,0.85,0.8,1.5,0.81c0.46,0.01,0.97-0.1,1.35,0.31c-1.1,0.47-2.25,0.13-3.37,0.22
		C66.42,134,66.05,134.12,65.76,133.93z"/>
	<path class="st111" d="M70.09,133.93c-2.46,0.52-3.46-1.18-4.47-2.9c-0.5-0.85-0.99-1.72-1.61-2.48c-0.8-0.98-1.25-2.09-1.61-3.27
		c0.8-0.37,1.3,0.34,1.95,0.52c0.54,0.4,1.4,0.35,1.65,1.17c0,1.62,1.26,2.58,2.04,3.77c0.6,0.9,1.56,1.56,2.09,2.56
		c0.2,0.38,0.56,0.4,0.93,0.4c-0.01,0.08-0.02,0.15-0.03,0.23C70.72,133.92,70.41,133.92,70.09,133.93z"/>
	<path class="st39" d="M65.76,133.93c0.33,0.02,0.69-0.09,0.96,0.22c0,0.08,0,0.17,0,0.25C66.4,134.24,66.08,134.08,65.76,133.93z"
		/>
	<path class="st112" d="M88.1,82.32c0-0.72-0.01-1.44-0.01-2.16c1.52-0.4,3.04-0.8,4.55-1.2c-0.04,0.81,0.4,1.58,0.22,2.41
		c-1.2-0.14-2.25,0.43-3.36,0.69C89.03,82.17,88.59,82.38,88.1,82.32z"/>
	<path class="st113" d="M51.36,89.76c-0.39-1.32,0.48-2.35,0.95-3.4c1.31-2.9,3.02-5.62,4.91-8.15c2.31-3.1,4.8-6.09,7.94-8.49
		c1.98-1.51,4.01-2.96,6-4.46c1.07-0.81,2.31-1.36,3.71-1.41c-0.09,1.1-1.13,1.6-1.54,2.5c-0.79,0.88-1.46,1.85-2.17,2.79
		c-0.29,0.37-0.56,0.77-1.03,0.93c-1.76,1.15-3.46,2.37-5,3.83c-2.7,2.56-4.95,5.48-7.06,8.52c-0.9,1.3-1.77,2.64-2.02,4.26
		c-0.26,0.85-1.11,1.05-1.7,1.52c-0.46,0.36-0.98,0.65-1.43,1.03C52.41,89.45,52.06,90.11,51.36,89.76z"/>
	<path class="st114" d="M73.19,66.23c0.31-0.98,1.16-1.57,1.68-2.4c1.24-1.41,2.24-3.02,3.6-4.32c0.94-0.62,2-0.96,3.06-1.3
		c1.1-0.36,2.32-0.43,3.19-1.34c-0.05,0.72,0.13,1.47-0.24,2.16c-0.23,0.28-0.13,0.61-0.12,0.92c0.1,1.93-0.02,2.01-1.86,2.71
		c-2.34,0.88-4.64,1.87-6.89,2.94C74.87,65.96,74.14,66.59,73.19,66.23z"/>
	<path class="st115" d="M84.72,56.88c-0.22,0.83-0.81,1.13-1.62,1.24c-1.61,0.23-3.02,1.16-4.63,1.4c0.19-0.77,1.07-1.11,1.22-1.91
		c1.46-1.3,2.45-3.02,3.76-4.45c0.37-0.41,0.68-0.87,1.02-1.31c0.4-0.48,0.8-0.96,1.2-1.44c-0.15,1.28-0.31,2.56-0.46,3.84
		C84.8,55.08,85.16,56.05,84.72,56.88z"/>
	<path class="st116" d="M51.36,89.76c0.57-0.06,0.91-0.57,1.43-0.73c0.65,0.1,0.48,0.58,0.39,0.95c-0.11,0.45-0.23,0.9-0.26,1.36
		c-0.14,0.45-0.42,0.82-0.75,1.15c-1.22,0.93-2.32,2-3.56,2.9c-0.19,0.12-0.38,0.25-0.62,0.11c0.02-0.55,0.02-1.08,0.16-1.63
		c0.11-0.42,0.38-1.05-0.4-1.25C48.85,91.55,50.38,90.99,51.36,89.76z"/>
	<path class="st117" d="M81.35,120.24c-1.21-0.84-2.37-1.78-3.83-2.2c-0.08-0.11-0.11-0.23-0.1-0.37c0.01-0.28,0.03-0.57-0.07-0.83
		c-1.42-3.65-1.74-7.45-1.65-11.31c-0.02-0.33,0.12-0.59,0.36-0.79c0.27-0.27,0.9-0.41,0.32-0.97c-0.06-1.64,0.51-3.12,1.17-4.56
		c1.01-2.17,2.36-4.13,3.87-5.98c0.23-0.28,0.43-0.81,0.99-0.5c-0.01,0.45,0.1,0.9-0.08,1.34c-0.01,0.56-0.01,1.13-0.02,1.69
		c0.58,0.88,0.04,1.74-0.04,2.61c-1.5,2.94-2.62,5.99-2.7,9.33c-0.07,2.86,0.4,5.66,1.66,8.24c0.69,1.4,0.42,2.79,0.41,4.2
		C81.64,120.28,81.47,120.26,81.35,120.24z"/>
	<path class="st70" d="M82.07,98.4c0.08-0.88,0.17-1.76,0.25-2.64c1.41-1.06,2.36-2.65,4-3.46c0.4-0.2,0.73-0.76,1.24-0.44
		c0.47,0.28,0.07,0.8,0.14,1.19c0.19,1.07,0.09,2.13,0.13,3.2c-2.01,0.74-2.97,2.52-3.97,4.18c-0.74,1.24-1.2,2.64-1.78,3.98
		C81.4,102.4,81.56,100.4,82.07,98.4z"/>
	<path class="st118" d="M82.34,94.07c-0.01-0.48-0.03-0.95-0.04-1.43c-0.57-0.79-0.29-1.66-0.2-2.5c0.05-0.47,0.12-0.93,0.19-1.4
		c0.05-1.3,0.78-2.07,1.9-2.63c0.75-0.37,1.47-0.8,2.23-1.14c0.4-0.18,0.82-0.36,1.23-0.02c0.11,0.39,0.04,0.78,0.06,1.17
		c0.05,0.65-0.1,1.3,0.08,1.94c0,0.65,0,1.29,0,1.94c-0.49-0.43,0.19-1.4-0.49-1.53c-0.46-0.08-1.02,0.53-1.56,0.76
		c-1.08,0.45-1.83,1.38-2.84,1.93c-0.4,0.22-0.3,0.6-0.34,0.94C82.47,92.76,82.78,93.46,82.34,94.07z"/>
	<path class="st119" d="M87.88,89.99C87.94,90,88,90,88.06,90c0.02,0.32,0.03,0.64,0.05,0.96c-0.02,0.09-0.04,0.18-0.06,0.27
		C87.66,90.86,87.89,90.41,87.88,89.99z"/>
	<path class="st120" d="M86.88,46.56c-0.16,0-0.31,0-0.47,0.01c-0.01-0.16-0.02-0.32-0.03-0.48c0.12-0.39,0.25-0.78,0.37-1.17
		c0.04,0,0.08,0,0.13,0C86.88,45.46,86.88,46.01,86.88,46.56z"/>
	<path class="st121" d="M82.07,98.4c0,2,0.01,4,0.01,6c0,0.55-0.01,1.11-0.01,1.66c-0.34,0.37-0.2,0.84-0.21,1.26
		c-0.02,3.99-0.02,7.97-0.05,11.96c0,0.4,0.33,1.01-0.43,1.17c-0.02-0.07-0.03-0.14-0.03-0.21c0.33-1.35,0.51-2.6-0.33-3.93
		c-0.89-1.41-1.27-3.1-1.54-4.73c-0.42-2.51-0.4-5.07,0.23-7.54C80.22,102.06,80.83,100.09,82.07,98.4z"/>
	<path class="st37" d="M77.5,117.85c0.01,0.06,0.02,0.13,0.03,0.19c0.93,2.11,2.42,3.85,3.75,5.7c0.24,0.33,0.92,0.7,0.32,1.3
		c-0.93-0.2-1.52-0.91-2.18-1.5c-0.29-0.33-0.48-0.78-0.99-0.86c-0.54-0.41-1.09-0.83-1.63-1.24c-0.57-0.85-0.96-1.79-1.4-2.7
		c-0.21-0.45-0.42-0.95-0.07-1.45C76.17,117.03,76.9,117.2,77.5,117.85z"/>
	<path class="st122" d="M48,95.52c0.16-0.08,0.32-0.16,0.48-0.24c0.6,0.81,0.3,1.68,0.14,2.53c-0.47,2.48-0.53,5-0.92,7.49
		c-0.05,0.32,0.04,0.64,0.05,0.96c-0.67,1.69-1.88,2.81-3.58,3.43c0.14-1.42,0.08-2.87,0.05-4.26c-0.05-2.07,0.33-4.07,0.41-6.1
		c0.02-0.49,0.3-0.8,0.49-1.18C45.85,97.02,47.16,96.53,48,95.52z"/>
	<path class="st114" d="M44.16,109.69c1.25-0.9,2.4-1.91,3.36-3.12c0.37-0.8,1.02-1.36,1.66-1.91c0.25-0.21,0.61-0.64,0.88,0.03
		c-0.41,2.14-0.4,4.28-0.07,6.42c0.05,0.35,0.13,0.71-0.08,1.05c-0.51,0.36-1.1,0.23-1.66,0.25c-1.24-0.19-2.48-0.39-3.73-0.05
		c-0.94,0.03-1.92,0.4-2.77-0.34C42.4,111.07,43.57,110.68,44.16,109.69z"/>
	<path class="st123" d="M41.76,112.01c0.95,0.02,1.91,0.04,2.86,0.06c1.55-0.22,1.94,0.39,1.36,2.13c-0.28,0.33-0.71,0.35-1.08,0.49
		c-0.56,0.07-1.13,0.27-1.7,0.03c-0.57-0.11-1.18,0.16-1.72-0.21c0.96-0.81,0.27-1.65,0.05-2.48
		C41.61,112.04,41.68,112.03,41.76,112.01z"/>
	<path class="st124" d="M70.08,128.4c-0.48-0.24-0.96-0.48-1.44-0.71c-1.13-1.46-1.89-3.1-2.57-4.8c-0.15-0.37-0.3-0.74-0.2-1.15
		c0.1-0.24,0.29-0.39,0.52-0.49c0.28-0.1,0.58-0.16,0.87-0.25c0.3-0.07,0.6-0.09,0.9,0c0.48,0.19,0.78,0.59,0.94,1.03
		c0.74,2,2.06,3.64,3.23,5.38c0.34,0.51,0.83,0.99,0.63,1.71c0,0,0.01,0.01,0.01,0.01C72,128.88,71.04,128.64,70.08,128.4z"/>
	<path class="st125" d="M43.2,114.71c0.52-0.27,1.09-0.21,1.65-0.2c0.49-0.17,1.01-0.18,1.52-0.26c0.12,0.01,0.24,0.03,0.36,0.05
		c0.85,0.18,1.7,0.1,2.56,0c0.4,0.03,0.57,0.27,0.59,0.65c-0.1,1.62,0.45,3.14,0.7,4.71c0.09,0.53,0.51,0.67,0.98,0.69
		c0.52,0.03,1.04-0.03,1.55,0.04c0.36,0.05,0.85-0.04,0.9,0.54c-0.24,0-0.48,0-0.72,0.01c-1.68,0-3.36,0.01-5.04,0.01
		c-0.32,0-0.64-0.01-0.96-0.01c-1.44-0.32-2.88-0.65-4.32-0.97c0.17-1.3-0.73-2.38-0.75-3.67C42.19,115.47,42.29,114.89,43.2,114.71
		z"/>
	<path class="st126" d="M66,121.72c0.59,1.66,1.12,3.35,2.24,4.76c0.27,0.34,0.44,0.75,0.39,1.21c-0.95,0.03-1.69-0.73-2.64-0.72
		c-0.56-0.32-1.12-0.64-1.68-0.96c-0.9-0.7-1.22-1.74-1.57-2.76c-0.17-0.51-0.03-0.94,0.48-1.21c0.11-0.06,0.22-0.1,0.34-0.13
		c0.41-0.07,0.82-0.21,1.23-0.28C65.2,121.62,65.63,121.35,66,121.72z"/>
	<path class="st127" d="M80.88,128.88c3.35,0.51,6.13,2.17,8.57,4.41c0.9,0.82,1.72,1.01,2.78,0.48c0.64-0.32,1.32-0.54,1.99-0.82
		c1.66-0.69,3.37-0.85,5.12-0.49c-0.3,0.28-0.02,0.67-0.21,0.97c-0.7,1.74-0.7,1.7-2.97,1.71c-0.77,0-1.55,0.15-2.32-0.02
		c0,0,0,0,0,0c-0.76-0.49-1.57-0.44-2.4-0.24c-0.53,0.1-1.01,0.29-1.61,0.08c-3.19-1.14-6.13-2.73-8.88-4.69
		c-0.52-0.37-0.98-0.8-1.27-1.38C80.08,128.52,80.48,128.58,80.88,128.88z"/>
	<path class="st128" d="M80.88,128.88c-0.4,0-0.8,0-1.2,0c-0.8,0-1.6,0-2.4,0c-0.46,0.26-0.76-0.05-1.03-0.34
		c-1.99-2.2-3.82-4.51-4.96-7.29c-0.12-0.3-0.27-0.59,0.02-0.88c0.34-0.21,0.72-0.2,1.09-0.21c0.55,0.03,1.1-0.06,1.66-0.06
		c0.47,0.14,0.99,0.22,1.09,0.84c-0.48,0.48,0.03,0.78,0.23,1.11c1.28,2.13,2.92,3.96,4.7,5.68
		C80.42,128.06,80.87,128.32,80.88,128.88z"/>
	<path class="st129" d="M71.28,120.51c1.18,3.05,3.18,5.56,5.28,8c0.19,0.22,0.42,0.37,0.72,0.37c-1.42,0.52-2.89,0.12-4.33,0.23
		c-0.56-1.28-1.36-2.42-2.25-3.47c-1.14-1.35-1.36-3.21-2.6-4.47c0.36-1.02,1.36-0.62,2.04-0.93
		C70.56,120.2,70.97,120.14,71.28,120.51z"/>
	<path class="st86" d="M91.44,134.88c0.84-0.33,1.67-0.54,2.4,0.24c-0.56-0.08-1.12-0.16-1.67-0.24
		C91.92,134.88,91.68,134.88,91.44,134.88z"/>
	<path class="st130" d="M73.19,66.23c1.79-0.45,3.3-1.54,5.02-2.14c1.71-0.6,3.26-1.6,5.06-1.97c0.94-0.2,0.78-1.08,0.95-1.72
		c0.12-0.44-0.17-0.96,0.25-1.35c0,0.4,0,0.8,0.01,1.2c0.43,1.2,0.08,2.38-0.11,3.57c-0.14,1.97-1.71,2.23-3.15,2.83
		c-3.13,1.3-6.12,2.89-8.93,4.81c-1.59,1.09-2.96,2.42-4.5,3.55c-0.44,0.32-0.88,0.74-1.52,0.46c-0.3-0.29-0.17-0.6,0.02-0.86
		c1.21-1.63,2.33-3.33,3.79-4.75c0.91-0.71,1.41-1.75,2.12-2.62C72.51,66.86,72.77,66.48,73.19,66.23z"/>
	<path class="st131" d="M87.36,67.44c-1.2,0.29-2.44,0.46-3.59,0.96c-0.46-0.45-0.31-1.02-0.3-1.57c0.09-0.46,0.19-0.92,0.4-1.34
		c0.3-1.7,1.39-2.36,3.48-2.13C87.36,64.72,87.36,66.08,87.36,67.44z"/>
	<path class="st132" d="M87.36,63.36c-0.45,0.14-0.9,0.33-1.36,0.41c-1.04,0.17-1.93,0.47-1.99,1.75c-0.19-0.56-0.19-1.12,0-1.68
		c0.42-1.17,0.17-2.42,0.48-3.6c0.64-0.8,1.62-0.38,2.42-0.64c0.23-0.07,0.5,0.31,0.4,0.6C86.92,61.27,87.6,62.31,87.36,63.36z"/>
	<path class="st133" d="M54,120.95c-0.85-0.5-1.78-0.17-2.66-0.22c-0.58-0.03-1.02-0.14-1.14-0.77c-0.26-1.39-0.5-2.78-0.73-4.17
		c-0.05-0.31-0.07-0.64,0.26-0.85c0.81-0.42,1.56,0.07,2.33,0.18c1.06,0.38,1.99,1.01,2.96,1.58c0.59,0.6,1.59,0.71,1.91,1.62
		c-0.37,1.08,0.19,2,0.49,2.96c0.07,0.21,0.3,0.38,0.19,0.65c-0.63,0.08-1.08-0.46-1.68-0.48C55.31,121.17,54.66,121.04,54,120.95z"
		/>
	<path class="st134" d="M57.6,121.93c-1.01-0.85-0.92-2.11-1.17-3.23c-0.05-0.22,0.18-0.33,0.39-0.36c0.06,0,0.11-0.01,0.17-0.01
		c1.08,0.32,1.59,1.32,2.39,1.97c0.26,0.27,0.52,0.53,0.87,0.7c0.82,0.41,1.62,0.87,2.59,0.83c0.26-0.01,0.46,0.1,0.53,0.38
		c-0.43,0.28-0.55,0.6-0.3,1.1c0.45,0.89,0.84,1.8,1.25,2.7c-0.64-0.24-1.28-0.49-1.92-0.73c-1.04-0.72-2.08-1.44-3.12-2.15
		C58.72,122.73,58.16,122.33,57.6,121.93z"/>
	<path class="st35" d="M64.56,133.44c0.16,0.09,0.31,0.17,0.47,0.26c-0.52,0.45-0.84,0.03-1.18-0.28
		C64.08,133.43,64.32,133.44,64.56,133.44z"/>
	<path class="st135" d="M87.8,88.07c-0.41-0.6-0.11-1.28-0.2-1.91c0.07-0.12,0.14-0.1,0.19,0.01l0.08-0.03
		C87.85,86.79,87.83,87.43,87.8,88.07z"/>
	<path class="st136" d="M87.79,86.17c-0.06-0.01-0.13-0.01-0.19-0.01c0-0.4,0-0.8,0-1.2c-0.5-0.8-0.52-1.6,0-2.4
		c0.07,0,0.13,0,0.2,0.01C87.8,83.77,87.8,84.97,87.79,86.17z"/>
	<path class="st137" d="M75.15,120.94c-0.34-0.22-0.67-0.44-1.01-0.65c-0.48-0.55-0.69-1.24-0.99-1.88c-0.5-1.07-0.35-1.3,0.85-1.6
		c0.49,0.08,1.13-0.22,1.36,0.53c-0.03,1.12,0.68,1.96,1.13,2.89c0.2,0.41,0.32,0.78,0.31,1.21
		C76.25,121.27,75.7,121.11,75.15,120.94z"/>
	<path class="st138" d="M78.43,122.68c0.69-0.13,0.85,0.36,0.99,0.86C79,123.36,78.72,123.01,78.43,122.68z"/>
	<path class="st139" d="M83.53,69.84c0,0.8,0,1.6,0,2.4c0.25,0.28,0.17,0.58,0.04,0.88c0.04,1.77-1.16,2.39-2.56,3.05
		c-2.91,1.37-5.42,3.34-7.81,5.49c-4.5,4.05-7.64,9-9.71,14.63c-0.96,2.59-1.3,5.35-1.75,8.07c-0.32,1.95-0.11,3.9-0.15,5.85
		c-0.03,1.56,0.56,3.12,0.56,4.73c-0.56,0.9-1.22,1.67-2.41,1.66c-0.34-0.12-0.56-0.35-0.62-0.71c-0.34-2.44-0.65-4.87-0.67-7.36
		c-0.03-3.7,0.52-7.28,1.43-10.84c0.61-2.37,1.71-4.54,2.48-6.84c0.1-0.3,0.21-0.6,0.25-0.92c0.06-0.27,0.14-0.55,0.31-0.77
		c2.04-2.6,3.82-5.39,5.83-8.01c2.63-2.3,5.17-4.73,8.23-6.47c1.49-0.85,2.93-1.79,4.55-2.37c0.93-0.33,1.64-0.79,1.54-1.94
		C83.02,70.11,83.11,69.77,83.53,69.84z"/>
	<path class="st140" d="M83.53,69.84c-0.08,0.13-0.24,0.29-0.22,0.4c0.37,1.61-0.82,1.97-1.91,2.45c-3.17,1.42-6.09,3.2-8.76,5.45
		c-1.26,1.07-2.39,2.29-3.76,3.22c-0.09-0.08-0.11-0.19-0.13-0.31c-0.07-0.42,0.72-0.83,0.12-1.19c-0.34-0.21-0.79,0.24-1.22,0.24
		c-0.37-0.07-0.86,0.09-1.04-0.39c-0.18-0.49,0.16-0.84,0.47-1.15c2.78-2.64,5.71-5.08,9.03-7.04c1.83-1.08,3.72-2,5.68-2.81
		c0.81-0.34,1.53-0.68,1.56-1.71c0.01-0.2,0.17-0.36,0.43-0.29c0,0.56,0,1.12,0.01,1.68C83.67,68.88,83.93,69.41,83.53,69.84z"/>
	<path class="st141" d="M87.59,76.32c0,0.96,0,1.92,0,2.88c-0.69,0.79-1.75,0.9-2.61,1.4c-0.79,0.46-1.68,0.78-1.77,1.9
		c-0.02,0.22-0.2,0.45-0.51,0.26c-0.17-0.22-0.21-0.47-0.23-0.73c-0.05-1.08,0.3-2.11,0.32-3.19c0.08-1.08,0.65-1.71,1.71-1.98
		c0.65-0.17,1.21-0.6,1.85-0.8C86.8,75.91,87.28,75.74,87.59,76.32z"/>
	<path class="st135" d="M87.6,82.56c0,0.8,0,1.6,0,2.4c-1.78,0.29-3.12,1.47-4.64,2.3c-0.42,0.23,0.05,0.95-0.39,1.3
		c-0.24-0.19-0.3-0.46-0.34-0.74c-0.03-0.61-0.03-1.22-0.01-1.83c0.01-0.6,0.1-1.19,0.41-1.72c1.27-1.15,2.84-1.72,4.41-2.31
		c0.19-0.07,0.39-0.03,0.56,0.11C87.6,82.24,87.6,82.4,87.6,82.56z"/>
	<path class="st136" d="M87.6,82.08c-1.71,0.47-3.2,1.43-4.79,2.16c-0.4-0.48-0.41-0.96,0.02-1.44c0.04-1.88,1.62-2.25,2.89-2.89
		c0.6-0.3,1.25-0.48,1.88-0.71C87.6,80.16,87.6,81.12,87.6,82.08z"/>
	<path class="st142" d="M87.59,76.32c-0.52-0.37-0.99-0.03-1.45,0.14c-0.52,0.2-0.98,0.6-1.5,0.7c-0.93,0.18-1.4,0.69-1.58,1.56
		c-0.52-0.53-0.31-1.18-0.31-1.8c0.14-0.57,0.14-1.18,0.4-1.73c0.91-0.88,2.07-1.27,3.27-1.57c0.53-0.13,0.94,0.02,1.17,0.54
		C87.59,74.88,87.59,75.6,87.59,76.32z"/>
	<path class="st143" d="M87.59,74.16c-0.76-0.66-1.51-0.15-2.22,0.07c-0.71,0.22-1.38,0.59-2.07,0.89c-0.21-0.72-0.2-1.44,0-2.16
		c0.26-0.18,0.2-0.47,0.23-0.72c1.09-0.32,2.19-0.63,3.28-0.97c0.42-0.13,0.49,0.02,0.59,0.42C87.57,72.51,87.63,73.33,87.59,74.16z
		"/>
	<path class="st144" d="M70.09,69.84c-0.94,1.76-2.39,3.14-3.49,4.78c-0.16,0.23-0.36,0.43-0.37,0.73c-0.94,1.84-2.4,3.32-3.54,5.03
		c-0.85,1.28-1.89,2.43-2.65,3.78c-0.21,0.63-0.78,0.82-1.3,1.06c-0.98,0.4-1.69,1.33-2.82,1.42c-0.35-0.29-0.26-0.62-0.1-0.96
		c1.01-2.08,2.38-3.93,3.66-5.84c1.01-1.51,2.2-2.94,3.43-4.19c1.51-1.55,2.9-3.39,4.97-4.34C68.7,70.93,68.98,69.76,70.09,69.84z"
		/>
	<path class="st145" d="M55.93,86.64c0.88-0.56,1.76-1.12,2.64-1.67c0.66,0.35,0.54,0.94,0.46,1.52c-0.66,1.33-2,1.97-3.01,2.93
		c-0.73,0.52-1.41,1.1-2.1,1.67c-0.31,0.26-0.6,0.67-1.11,0.35c-0.27-0.41-0.24-0.8,0-1.22c0.21-0.38,0.43-0.79-0.01-1.18
		C53.67,88.01,55.05,87.66,55.93,86.64z"/>
	<path class="st146" d="M49.92,104.41c-0.8,0.72-1.6,1.44-2.4,2.16c-0.16-0.65-0.23-1.28-0.14-1.98c0.43-3.09,0.74-6.2,1.09-9.3
		c1.16-1.01,2.22-2.14,3.6-2.89c0.48,0.53,0.25,1.13,0.11,1.69c-0.5,1.96-0.92,3.94-1.38,5.91c-0.29,1.26-0.23,2.52-0.38,3.78
		C50.35,104.07,50.22,104.3,49.92,104.41z"/>
	<path class="st147" d="M50.16,103.93c-0.21-3.51,1-6.78,1.74-10.13c0.1-0.47,0.18-0.93,0.17-1.41c0.2-0.35,0.29-0.78,0.72-0.95
		c0.95-0.27,1.44-1.17,2.23-1.65c0.29-0.18,0.49-0.52,0.89-0.52c0.07,1.44-0.64,2.67-1.12,3.94c-0.81,2.13-1.13,4.37-1.77,6.54
		c-0.13,0.46-0.07,0.95-0.04,1.42C52.37,102.43,51.54,103.45,50.16,103.93z"/>
	<path class="st148" d="M82.54,87.85c0.01,0.24,0.03,0.47,0.04,0.71c-0.09,1.36-0.18,2.72-0.28,4.08c-1.91,2.3-3.66,4.69-4.8,7.48
		c-0.5,1.22-0.83,2.48-0.94,3.8c0.16,0.52-0.34,0.61-0.57,0.88c-0.36,0.33-0.7,0.7-1.11,0.99c-0.43,0.29-0.85,0.58-1.28,0.87
		c-0.29,0.19-0.59,0.45-0.95,0.09c0.49-1.72,0.64-3.51,1.11-5.24c1.23-4.59,3.68-8.43,7.17-11.6
		C81.62,89.29,81.78,88.35,82.54,87.85z"/>
	<path class="st149" d="M75.36,117.34c-0.43-0.35-0.94-0.2-1.42-0.23c-0.1-0.1-0.11-0.21-0.05-0.33c0.13-0.25,0.28-0.51,0.18-0.79
		c-0.87-2.46-1.05-5.04-1.45-7.59c-0.04-0.85,0.64-1.21,1.16-1.66c0.38-0.33,0.78-0.66,1.18-0.98c0.26-0.2,0.44-0.57,0.87-0.4
		c0.48,0.61,0.24,1.32,0.22,1.96c-0.11,3.31,0.5,6.49,1.71,9.56c0.18,0.45,0.21,0.75-0.27,0.97
		C76.79,117.68,76.08,117.51,75.36,117.34z"/>
	<path class="st150" d="M75.84,105.36c-0.24,0.16-0.48,0.32-0.72,0.49c-0.15-0.03-0.24-0.12-0.27-0.27
		c0.33-0.31,0.66-0.62,0.99-0.93c0.28-0.18,0.47-0.18,0.47,0.23C76.16,105.04,76,105.2,75.84,105.36z"/>
	<path class="st151" d="M76.31,104.88c-0.1-0.2-0.28-0.23-0.47-0.23c0.24-0.24,0.48-0.48,0.72-0.72c0.19-0.03,0.42-0.14,0.54-0.07
		c0.24,0.15,0.02,0.33-0.1,0.45C76.79,104.51,76.54,104.69,76.31,104.88z"/>
	<path class="st130" d="M50.16,103.93c0.97-0.79,1.86-1.67,2.63-2.65c0.14-0.41,0.35-0.78,0.69-1.06c0.29-0.23,0.55-0.29,0.73,0.12
		c0.28,0.84,0.02,1.67-0.08,2.49c-0.35,2.7-0.26,5.41-0.22,8.12c0.01,0.67,0.1,1.37-0.43,1.92c-0.55,0.31-1.09,0.08-1.63-0.02
		c-0.63-0.3-1.51,0.01-1.94-0.78c-0.68-2.56-0.8-5.11,0-7.67C50,104.25,50.08,104.09,50.16,103.93z"/>
	<path class="st152" d="M49.92,112.07c0.64,0.16,1.28,0.32,1.92,0.49c0.51,0.92,0.85,1.85,0.24,2.87c-0.79-0.16-1.57-0.32-2.36-0.49
		c-0.07-0.26-0.17-0.48-0.5-0.43c-0.18-0.04-0.3-0.15-0.36-0.32c0.01-0.76-0.36-1.42-0.61-2.11
		C48.8,112.08,49.36,112.08,49.92,112.07z"/>
	<path class="st153" d="M48.24,112.08c0.94,0.49,0.95,1.28,0.72,2.16c-0.2,0.24-0.48,0.23-0.75,0.24c-0.6,0-1.21,0.04-1.81-0.12
		c-0.2-0.02-0.41,0.04-0.56-0.14c0.04-0.27,0.11-0.54,0.1-0.81c-0.02-0.85-0.17-1.59-1.32-1.34
		C45.83,111.68,47.03,111.81,48.24,112.08z"/>
	<path class="st154" d="M45.84,114.22c0.16,0.01,0.32,0.02,0.47,0.03c0.08,0.05,0.11,0.1,0.08,0.15c-0.03,0.05-0.05,0.08-0.08,0.08
		c-0.49,0.01-0.98,0.02-1.47,0.03C45.1,114.15,45.5,114.28,45.84,114.22z"/>
	<path class="st155" d="M70.07,120.47c-0.57,0.47-1.45,0.08-1.96,0.7c-0.29,0.02-0.58,0.03-0.87,0.05
		c-0.24,0.09-0.41-0.05-0.45-0.24c-0.21-0.95-0.79-1.81-0.75-2.83c0.33-0.79,1.1-0.79,1.77-0.97c0.12-0.01,0.25,0.01,0.36,0.06
		c0.33,0.17,0.55,0.47,0.61,0.81C68.95,119.01,69.49,119.75,70.07,120.47z"/>
	<path class="st156" d="M66,121.72c-0.42-0.04-0.77,0.33-1.21,0.19c-0.24-0.23-0.6,0.02-0.83-0.22c-0.43-0.52-0.63-1.17-0.91-1.77
		c-0.42-0.89-0.21-1.42,0.79-1.56c0.24-0.05,0.49-0.06,0.73,0.01c0.28,0.11,0.45,0.33,0.5,0.61c0.19,0.99,0.99,1.62,1.41,2.47
		C66.32,121.54,66.16,121.63,66,121.72z"/>
	<path class="st157" d="M66.48,121.45c-1.3-0.53-1.38-1.89-1.96-2.9c0.08-0.58,0.59-0.55,0.98-0.69c0.26-0.03,0.5-0.02,0.71,0.16
		c0.34,1.07,0.68,2.14,1.01,3.21C67.04,121.48,66.76,121.45,66.48,121.45z"/>
	<path class="st158" d="M48.23,114.24c0.24,0,0.49,0,0.73,0c0.09,0.09,0.17,0.18,0.26,0.27c-0.9,0.37-1.81,0.18-2.72,0.01
		C47.03,114.13,47.69,114.58,48.23,114.24z"/>
	<path class="st159" d="M48.23,114.24c-0.52,0.45-1.17,0.09-1.73,0.28c0,0-0.09,0-0.09,0l-0.09-0.04c0-0.08,0-0.16,0-0.23
		C46.95,114.25,47.59,114.25,48.23,114.24z"/>
	<path class="st160" d="M59.26,115.96c0.18,0.16,0.36,0.31,0.53,0.47c0.76,0.19,1.3,0.65,1.66,1.35c0.17,0.57,0.31,1.15,0.44,1.72
		c0.24,1.1,0.72,1.91,1.93,2.09c0.2,0.28,0.01,0.41-0.2,0.54c-0.08,0.03-0.17,0.05-0.25,0.08c-1.22-0.08-2.4-0.27-3.38-1.08
		c-0.24-0.34-0.59-0.61-0.71-1.03c-0.14-1.02-0.62-1.95-0.76-2.96c-0.07-0.46-0.27-0.92-0.04-1.38
		C58.83,115.45,59.04,115.71,59.26,115.96z"/>
	<path class="st161" d="M63.61,122.13c0.08-0.15,0.15-0.3,0.23-0.45c0.07-0.09,0.15-0.09,0.24-0.01c0.26,0.02,0.55-0.06,0.71,0.24
		C64.39,121.93,64.04,122.26,63.61,122.13z"/>
	<path class="st162" d="M70.07,120.47c-0.85-0.27-1.28-0.9-1.4-1.74c-0.07-0.49-0.26-0.9-0.51-1.31c0.53-0.7,1.29-0.62,2.03-0.6
		c0.87,0.09,1.03,0.83,1.31,1.45c0.19,0.42,0.4,0.84,0.52,1.29c0.05,0.27,0.25,0.43,0.45,0.59c0.07,0.09,0.07,0.18,0.01,0.27
		c-0.4,0.03-0.8,0.06-1.2,0.09C70.88,120.5,70.47,120.49,70.07,120.47z"/>
	<path class="st163" d="M71.76,120c-0.32-1.05-0.42-2.21-1.47-2.89c-0.05-0.16,0-0.29,0.14-0.38c1.16-0.21,2.33-0.5,3.46,0.16
		c0.02,0.07,0.03,0.15,0.05,0.22c-0.75-0.01-1.03,0.21-0.63,0.99c0.35,0.69,0.9,1.33,0.83,2.19c-0.53,0.31-1.11,0.14-1.67,0.13
		c0-0.06,0-0.12,0-0.18C72.32,119.94,71.94,120.26,71.76,120z"/>
	<path class="st164" d="M59.76,84c2.12-2.91,4.07-5.95,6.47-8.64c1.06-0.1,1.86-0.76,2.51-1.47c1.48-1.6,3.3-2.75,5.11-3.84
		c2.92-1.76,5.92-3.42,9.21-4.42c0.48-0.15,0.76-0.37,0.7-0.92c-0.03-0.31-0.08-0.65,0.24-0.87c0,0.56,0,1.12,0,1.68
		c-0.01,0.41-0.02,0.83-0.24,1.2c-0.07,1.86-1.57,2.13-2.88,2.68c-3.46,1.46-6.57,3.5-9.56,5.76c-1.4,1.06-2.51,2.42-3.9,3.49
		c-1.02,0.79-0.93,0.92,0.25,1.26c-0.31,0.97-1.36,0.67-1.97,1.14c-0.36,0.17-0.63,0.46-0.95,0.69c-1.2,0.56-2.29,1.3-3.46,1.9
		C60.83,83.9,60.38,84.37,59.76,84z"/>
	<path class="st165" d="M52.08,115.43c0.16-0.98-0.31-1.9-0.24-2.87c0.48,0.08,0.95,0.17,1.43,0.25c0.62,0.03,1.22,0.1,1.47,0.8
		c0.14,1.12,0.83,2.21,0.19,3.37C53.98,116.47,53.03,115.95,52.08,115.43z"/>
	<path class="st166" d="M54.93,116.99c-0.15-1.17-0.3-2.33-0.44-3.5c0.68-0.41,1.18,0.11,1.74,0.33c0.28,0.17,0.52,0.37,0.64,0.69
		c0.23,0.87,0.42,1.75,0.56,2.64c0.07,0.46,0.23,1.04-0.53,1.17c0,0-0.07,0.03-0.07,0.03C56.19,117.89,55.56,117.44,54.93,116.99z"
		/>
	<path class="st167" d="M56.89,118.31c0.81-0.9-0.13-1.77-0.09-2.66c0.02-0.35-0.18-0.75-0.17-1.15c0.92-0.06,1.61,0.25,1.92,1.19
		c0.05,1.58,0.94,2.98,0.96,4.56c-0.08,0.1-0.12,0.26-0.28,0.29C58.46,119.79,57.67,119.05,56.89,118.31z"/>
	<path class="st168" d="M59.24,120.53c0.09-0.1,0.19-0.19,0.28-0.29c0.12,0.31,0.5,0.48,0.46,0.88
		C59.66,121.02,59.42,120.81,59.24,120.53z"/>
	<path class="st169" d="M83.29,72.96c0,0.72,0,1.44,0,2.16c-0.06,0.56,0.07,1.15-0.25,1.68c-0.29,0.38,0,0.85-0.21,1.24
		c-3.33,1.15-5.96,3.42-8.48,5.71c-2.6,2.36-4.71,5.2-6.35,8.35c-2.51,4.85-4.17,9.92-4.1,15.45c0.02,1.87-0.14,3.76,0.34,5.6
		c-0.11,0.91-0.88,1.22-1.49,1.68c-0.26,0.13-0.52,0.28-0.83,0.14c-0.24-1.6-0.62-3.19-0.7-4.79c-0.22-4.58,0.36-9.12,1.76-13.45
		c1.14-3.53,2.9-6.84,5.15-9.9c3.26-4.44,7.29-7.92,12.03-10.63C81.54,75.42,83.41,75.17,83.29,72.96z"/>
	<path class="st140" d="M58.56,115.69c-0.55-0.55-1.22-0.88-1.92-1.19c-0.17-0.16-0.34-0.32-0.51-0.48
		c-0.07-2.35-0.44-4.68-0.32-7.04c0.15-2.98,0.46-5.94,1.22-8.84c0.14-0.54,0.21-1.09,0.25-1.65c0.03-0.78,0.55-1.27,1.05-1.78
		c1.24-1.37,2.34-2.87,3.56-4.26c0.26-0.3,0.42-0.81,0.99-0.69c-0.1,1.88-1.18,3.43-1.78,5.15c-0.93,2.66-1.6,5.37-2.04,8.14
		c-0.43,2.7-0.3,5.44-0.23,8.16c0.03,1.18,0.27,2.36,0.51,3.52c0.1,0.46,0.18,0.84-0.08,1.24
		C59.02,115.87,58.79,115.78,58.56,115.69z"/>
	<path class="st170" d="M62.88,89.76c-1.19,1.43-2.4,2.85-3.57,4.3c-0.23,0.28-0.41,0.59-0.75,0.75c-0.46-0.51-0.23-1.06-0.06-1.57
		c1.03-3.17,2.65-6.04,4.55-8.76c0.83-1.19,1.68-2.37,2.47-3.59c0.72-0.32,1.44-0.64,2.16-0.96c0.11-0.05,0.21-0.1,0.32-0.16
		c0.46-0.22,1.02-0.6,1.42-0.18c0.44,0.48-0.18,0.9-0.4,1.33c-0.07,0.14-0.09,0.3-0.14,0.45C66.88,84.16,64.88,86.96,62.88,89.76z"
		/>
	<path class="st171" d="M61.92,114.97c0.23-0.09,0.47-0.19,0.7-0.28c0.52,0.15,0.76,0.6,1.04,1c-0.43,1.02-1.54,1.38-2.17,2.2
		c-0.12,0.06-0.21,0.03-0.29-0.07c-0.36-0.58-0.93-0.94-1.42-1.39C60.76,116.33,61.23,115.48,61.92,114.97z"/>
	<path class="st172" d="M82.8,78c0.06-0.41-0.16-0.87,0.25-1.2c0.01,0.64,0.01,1.28,0.02,1.92c-0.09,1.12-0.18,2.24-0.28,3.36
		c-0.14,0.59-0.56,0.94-1.04,1.24c-2.99,1.9-5.57,4.26-7.68,7.1c-3.62,4.86-5.63,10.29-5.87,16.38c-0.04,1.12-0.03,2.22,0.13,3.32
		c-0.61,1.02-1.3,1.94-2.66,1.92c-0.62-2.36-0.39-4.73-0.2-7.11c0.22-2.81,0.78-5.55,1.83-8.14c1.37-3.37,3.15-6.53,5.48-9.36
		c2.33-2.85,5.18-5.06,8.3-6.95c0.85-0.52,1.52-0.98,1.49-2.06C82.56,78.25,82.7,78.12,82.8,78z"/>
	<path class="st173" d="M68.17,110.19c-0.79-1.6-0.33-3.3-0.19-4.91c0.27-3.21,0.99-6.36,2.39-9.28c1.25-2.61,2.84-5.01,4.66-7.29
		c2.18-2.72,5.12-4.47,7.75-6.63c0.01,0.24,0.03,0.48,0.04,0.72c-0.01,0.48-0.01,0.96-0.02,1.44c-0.08,0.56-0.17,1.12-0.25,1.68
		c-5.82,3.94-9.42,9.42-11.15,16.18c-0.53,2.06-0.63,4.17-0.68,6.29c-0.39,0.94-1.24,1.39-2.04,1.89
		C68.5,110.33,68.32,110.32,68.17,110.19z"/>
	<path class="st174" d="M70.56,108.48c-0.55-1.17-0.05-2.37,0.06-3.51c0.42-4.03,1.74-7.8,3.94-11.21c1.82-2.81,3.97-5.35,6.67-7.36
		c0.39-0.29,0.81-0.52,1.32-0.48c0,0.64-0.01,1.29-0.01,1.93c-0.19,1.43-1.37,2.06-2.25,2.98c-1.4,1.45-2.62,3.08-3.69,4.82
		c-1.78,2.9-2.8,6.05-3.2,9.42c-0.07,0.61-0.24,1.25-0.66,1.76C72.39,107.89,71.64,108.4,70.56,108.48z"/>
	<path class="st175" d="M59.76,84c1.39-0.37,2.5-1.29,3.74-1.95c0.42-0.22,0.81-0.48,1.3-0.48c0.03,0.63-0.42,0.96-0.83,1.31
		c-1.35,1.15-2.71,2.28-4.09,3.39c-0.34,0.17-0.62,0.52-1.08,0.37c-0.02-0.56,0.1-1.15-0.24-1.67C58.97,84.66,59.75,84.81,59.76,84z
		"/>
	<path class="st176" d="M58.8,86.64c0.34-0.12,0.55-0.51,0.96-0.48c-0.06,1.28-0.91,2.24-1.39,3.34c-1.27,2.92-2.61,5.81-2.91,9.03
		c-0.25,0.73-0.72,1.27-1.45,1.56c-0.55,0.24-0.6,1-1.2,1.19c-0.37-0.51-0.27-1.14-0.11-1.59c0.72-2.1,0.88-4.34,1.77-6.4
		c0.56-1.31,0.98-2.67,1.47-4.01C56.73,88.23,57.92,87.6,58.8,86.64z"/>
	<path class="st177" d="M70.56,108.48c0.81-0.44,1.57-0.94,2.17-1.65c0.82-0.22,1.28-1.06,2.12-1.25c0.09,0.09,0.18,0.18,0.27,0.27
		c-0.65,0.96-1.82,1.38-2.43,2.38c-0.71,0.93-1.58,1.68-2.5,2.38c-0.37,0.28-0.73,0.61-1.22,0.67c-0.76-0.19-0.97-0.54-0.34-1.15
		C69.27,109.58,69.92,109.03,70.56,108.48z"/>
	<path class="st174" d="M70.07,110.4c0.94-0.65,1.57-1.66,2.63-2.17c0.34,0.26,0.49,0.62,0.5,1.04c0.01,2.33,0.51,4.56,1.28,6.74
		c0.22,0.64,0.1,0.91-0.58,0.89c-1.19,0.01-2.38,0.01-3.57,0.02c1.29-0.87,0.74-2.02,0.45-3.12
		C70.48,112.67,70.45,111.5,70.07,110.4z"/>
	<path class="st178" d="M54,100.09c0.4-0.48,0.8-0.97,1.2-1.45c0.63-0.97,1.06-2.14,2.4-2.41c0.23,1.68-0.7,3.15-0.86,4.78
		c-0.33,3.43-0.96,6.84-0.36,10.31c0.14,0.78-0.07,1.59,0.16,2.38c0.07,0.24-0.22,0.28-0.41,0.32c-0.55-0.18-1.09-0.35-1.64-0.53
		c-0.41-0.23-0.82-0.45-1.22-0.68c0.4-0.28,0.32-0.75,0.3-1.1C53.33,107.82,53.64,103.95,54,100.09z"/>
	<path class="st173" d="M70.07,110.4c0.74,0.13,0.61,0.83,0.66,1.25c0.18,1.42,0.44,2.82,0.95,4.17c0.2,0.54,0,0.85-0.61,0.83
		c-0.28-0.01-0.57-0.03-0.74,0.26c0,0.07-0.01,0.14-0.03,0.21c-0.74-0.07-1.44,0.12-2.14,0.31c-0.08-0.02-0.16-0.04-0.24-0.06
		c1.24-1.4,0.12-2.69-0.18-4.02c-0.06-0.25-0.34-0.43-0.41-0.71c0.21-0.94,1.08-1.13,1.77-1.52
		C69.42,110.88,69.75,110.64,70.07,110.4z"/>
	<path class="st172" d="M67.44,112.56c1.27,1.04,1.06,2.65,1.47,4.01c0.18,0.61-0.77,0.37-0.99,0.8c-0.57,0.22-1.13,0.43-1.7,0.65
		c-0.23,0.02-0.47,0.04-0.7,0.06c0.25-1.18-0.24-2.23-0.58-3.31c0.03-0.88,0.98-1.03,1.32-1.67
		C66.58,112.76,66.88,112.37,67.44,112.56z"/>
	<path class="st179" d="M65.02,114.71c0.89,1.28,1.09,2.62,0.5,3.36c-0.33,0.16-0.66,0.31-1,0.47c-0.24,0.02-0.47,0.05-0.71,0.07
		c-0.93,0.12-1.9,0.38-2.4-0.8c0.36-1.08,1.55-1.31,2.15-2.14C63.72,114.85,64.34,114.73,65.02,114.71z"/>
	<path class="st180" d="M61.42,117.81c0.68,0.63,1.49,0.87,2.4,0.8c-0.5,0.2-1.02,0.32-0.53,1.09c0.37,0.59,0.54,1.31,0.8,1.97
		c-0.08,0.01-0.16,0.01-0.24,0.01c-1.41-0.01-1.89-0.42-2.17-1.85c-0.13-0.68-0.51-1.3-0.47-2.01
		C61.28,117.82,61.35,117.82,61.42,117.81z"/>
	<path class="st181" d="M71.76,120c0.3,0,0.65-0.09,0.89,0.04c0.22,0.11-0.08,0.15-0.17,0.2C72.22,120.23,71.93,120.29,71.76,120z"
		/>
	<path class="st182" d="M57.6,96.23c-1.01,0.59-1.48,1.72-2.4,2.41c-0.01-2.74,1.18-5.14,2.14-7.6c0.66-1.69,1.51-3.31,2.42-4.88
		c1.1-1.3,2.6-2.16,3.82-3.32c0.43-0.41,0.94-0.72,1.22-1.26c0.02-0.46,0.42-0.52,0.72-0.69c0.15,0.11,0.88-0.21,0.35,0.41
		c-3.17,3.66-5.64,7.73-7.19,12.33c-0.12,0.37-0.09,0.78-0.12,1.18C58.34,95.35,57.63,95.56,57.6,96.23z"/>
	<path class="st183" d="M82.8,78c0.28,1.44-0.43,2.1-1.67,2.82c-3.69,2.15-6.87,4.91-9.39,8.43c-1.71,2.38-3.08,4.95-4.17,7.62
		c-1.11,2.75-1.54,5.7-1.87,8.68c-0.24,2.2,0.07,4.35,0.05,6.52c0.06,0.07,0.08,0.13,0.07,0.21c-0.01,0.07-0.02,0.11-0.04,0.11
		c-0.54,0.35-0.83,1.18-1.7,0.92c-0.34-0.86-0.51-1.74-0.5-2.68c0.05-3.22-0.2-6.45,0.72-9.6c0.99-3.37,1.96-6.7,3.81-9.78
		c1.49-2.48,3.25-4.69,5.09-6.86c1.34-1.58,3.13-2.69,4.76-3.96c0.69-0.54,1.41-1.04,2.14-1.51C80.93,78.39,81.8,77.97,82.8,78z"/>
	<path class="st184" d="M64.09,113.31c0.71-0.08,0.95-0.93,1.66-1.02c0.39,0.22,0.57,0.59,0.72,0.99c-0.27,0.69-1.14,0.78-1.44,1.44
		c-0.4,0.45-1.13,0.4-1.46,0.96c-0.55-0.1-0.65-0.63-0.94-0.98C63.03,114.14,63.77,113.95,64.09,113.31z"/>
	<path class="st185" d="M66.47,113.28c-0.4-0.22-0.69-0.5-0.72-0.99c0-0.07,0.01-0.14,0.01-0.22c0.92-0.47,1.7-1.14,2.41-1.88
		c0.15-0.02,0.31-0.04,0.46-0.07c-0.26,0.53-0.24,0.92,0.47,0.99c-0.41,0.64-1.16,0.89-1.66,1.44
		C67.1,112.77,66.67,112.87,66.47,113.28z"/>
</g>
</svg>
