<?xml version="1.0" encoding="utf-8"?>
<!-- Generator: Adobe Illustrator 23.0.2, SVG Export Plug-In . SVG Version: 6.00 Build 0)  -->
<svg version="1.1" id="Camada_1" xmlns="http://www.w3.org/2000/svg" xmlns:xlink="http://www.w3.org/1999/xlink" x="0px" y="0px"
	 viewBox="0 0 177.51 102.99" style="enable-background:new 0 0 177.51 102.99;" xml:space="preserve">
<style type="text/css">
	.st0{fill:#F9F9F9;}
	.st1{fill:#FEFEFE;}
	.st2{fill:#31241C;}
	.st3{fill:#513725;}
	.st4{fill:#4D3524;}
	.st5{fill:#4F3625;}
	.st6{fill:#37281E;}
	.st7{fill:#453022;}
	.st8{fill:#432F21;}
	.st9{fill:#493323;}
	.st10{fill:#34261D;}
	.st11{fill:#463122;}
	.st12{fill:#402D20;}
	.st13{fill:#3B2A1F;}
	.st14{fill:#38281E;}
	.st15{fill:#3C2B1F;}
	.st16{fill:#3D2C20;}
	.st17{fill:#4A3323;}
	.st18{fill:#33251D;}
	.st19{fill:#3F3027;}
	.st20{fill:#4F3628;}
	.st21{fill:#523829;}
	.st22{fill:#32251C;}
	.st23{fill:#673C25;}
	.st24{fill:#503628;}
	.st25{fill:#201712;}
	.st26{fill:#473125;}
	.st27{fill:#241B14;}
	.st28{fill:#221813;}
	.st29{fill:#5A3624;}
	.st30{fill:#241A14;}
	.st31{fill:#251B15;}
	.st32{fill:#241B15;}
	.st33{fill:#A55A31;}
	.st34{fill:#815335;}
	.st35{fill:#D2814F;}
	.st36{fill:#D2804F;}
	.st37{fill:#7E5134;}
	.st38{fill:#CF7F4F;}
	.st39{fill:#CD7E4E;}
	.st40{fill:#7D5034;}
	.st41{fill:#CC7D4E;}
	.st42{fill:#C97B4D;}
	.st43{fill:#C67A4C;}
	.st44{fill:#C4794C;}
	.st45{fill:#C1774B;}
	.st46{fill:#453429;}
	.st47{fill:#5B3D2B;}
	.st48{fill:#5E3F2C;}
	.st49{fill:#563A2A;}
	.st50{fill:#BC744A;}
	.st51{fill:#B57048;}
	.st52{fill:#B16E47;}
	.st53{fill:#AD6C46;}
	.st54{fill:#AA6A45;}
	.st55{fill:#C0774B;}
	.st56{fill:#48362A;}
	.st57{fill:#744B31;}
	.st58{fill:#6F4830;}
	.st59{fill:#A46744;}
	.st60{fill:#9E6443;}
	.st61{fill:#9B6241;}
	.st62{fill:#17110C;}
	.st63{fill:#7C4629;}
	.st64{fill:#67432E;}
	.st65{fill:#794E33;}
	.st66{fill:#C87B4D;}
	.st67{fill:#6B462F;}
	.st68{fill:#413228;}
	.st69{fill:#513728;}
	.st70{fill:#513729;}
	.st71{fill:#543929;}
	.st72{fill:#83543B;}
	.st73{fill:#784E38;}
	.st74{fill:#6C4733;}
	.st75{fill:#704935;}
	.st76{fill:#62412F;}
	.st77{fill:#423228;}
	.st78{fill:#6B3E26;}
	.st79{fill:#553929;}
	.st80{fill:#6F4027;}
	.st81{fill:#A05730;}
	.st82{fill:#805234;}
	.st83{fill:#7C5033;}
	.st84{fill:#97532F;}
	.st85{fill:#5F4431;}
	.st86{fill:#9D5630;}
	.st87{fill:#A05830;}
	.st88{fill:#7B4F33;}
	.st89{fill:#9E5630;}
	.st90{fill:#99542F;}
	.st91{fill:#774D32;}
	.st92{fill:#C1764A;}
	.st93{fill:#915D3F;}
	.st94{fill:#7B4629;}
	.st95{fill:#5F3F2C;}
	.st96{fill:#965F40;}
	.st97{fill:#92512D;}
	.st98{fill:#734A31;}
	.st99{fill:#6C462F;}
	.st100{fill:#543E2E;}
	.st101{fill:#834A2B;}
	.st102{fill:#A66845;}
	.st103{fill:#6A452F;}
	.st104{fill:#93512E;}
	.st105{fill:#B67148;}
	.st106{fill:#5A3C2B;}
	.st107{fill:#4C382B;}
	.st108{fill:#894D2C;}
	.st109{fill:#82492B;}
	.st110{fill:#7F472A;}
	.st111{fill:#543D2E;}
	.st112{fill:#503B2C;}
	.st113{fill:#6A3D26;}
	.st114{fill:#82543B;}
	.st115{fill:#6E3F27;}
	.st116{fill:#8B593E;}
	.st117{fill:#573A2A;}
	.st118{fill:#8A583D;}
	.st119{fill:#6E4027;}
	.st120{fill:#734228;}
	.st121{fill:#5A3C2A;}
	.st122{fill:#754328;}
	.st123{fill:#5C3D2B;}
	.st124{fill:#90502D;}
	.st125{fill:#6C452E;}
	.st126{fill:#704930;}
	.st127{fill:#8E4F2D;}
	.st128{fill:#BC7449;}
	.st129{fill:#5C4230;}
	.st130{fill:#B87249;}
	.st131{fill:#59412F;}
	.st132{fill:#815235;}
	.st133{fill:#8D5635;}
	.st134{fill:#C87B4C;}
	.st135{fill:#784D32;}
	.st136{fill:#BA7248;}
	.st137{fill:#734B31;}
	.st138{fill:#96532E;}
	.st139{fill:#63412D;}
	.st140{fill:#9A6141;}
	.st141{fill:#764328;}
	.st142{fill:#AE6D46;}
	.st143{fill:#A56744;}
	.st144{fill:#8F502D;}
	.st145{fill:#6C472F;}
	.st146{fill:#66432E;}
	.st147{fill:#62412D;}
	.st148{fill:#986041;}
	.st149{fill:#935D40;}
	.st150{fill:#65422D;}
	.st151{fill:#603F2C;}
	.st152{fill:#422E21;}
	.st153{fill:#82492A;}
	.st154{fill:#874C2B;}
	.st155{fill:#68442E;}
	.st156{fill:#B47048;}
	.st157{fill:#AF6D47;}
	.st158{fill:#B36F47;}
	.st159{fill:#583F2F;}
	.st160{fill:#A06543;}
	.st161{fill:#4E3A2C;}
	.st162{fill:#774428;}
	.st163{fill:#60402C;}
	.st164{fill:#9C6242;}
	.st165{fill:#A56844;}
	.st166{fill:#AA6A46;}
	.st167{fill:#533D2D;}
	.st168{fill:#6A462F;}
	.st169{fill:#A26643;}
	.st170{fill:#9C6342;}
	.st171{fill:#A16543;}
</style>
<g>
	<path class="st0" d="M0,42.58c0.07,0,0.14,0,0.21,0c0.48,0.43,0.41,1.02,0.41,1.57c0.01,4,0.01,7.99,0,11.99
		c0,0.55,0.06,1.13-0.41,1.57l-0.11,0L0,57.7C0,52.66,0,47.62,0,42.58z"/>
	<path class="st1" d="M5.99,50.66c0-1.56,0.04-3.12-0.01-4.68c-0.07-2.13,0.17-4.2,0.7-6.28c0.52-2.05,1.71-3.57,3.24-4.89
		c1.75-1.51,3.88-2.38,6-3.15c4.17-1.51,8.13-3.5,12.24-5.11c5.64-2.21,11.25-4.48,16.95-6.51c8.59-3.06,17.28-5.83,26.01-8.48
		c5.26-1.6,10.69-2.79,15.76-4.88c7.4-3.04,15.26-4.19,22.87-6.35c2.42-0.69,4.93-0.13,7.38,0.15c11.03,1.26,21.81,3.85,32.69,5.97
		c4.42,0.86,8.85,1.7,13.31,2.26c1.64,0.21,3.33-0.02,5.03,0.36c1.69,0.38,3.13,1.16,4.23,2.32c1.47,1.54,2.87,3.22,3.29,5.46
		c0.41,2.19,1.19,4.36,1.28,6.56c0.08,1.89,0.05,3.8,0.12,5.71c0.19,4.95,0.62,9.9,0.28,14.86c-0.3,4.33-1.91,7.97-4.8,11.29
		c-2.97,3.41-6.93,5.21-10.61,7.46c-4.56,2.79-9.25,5.36-13.9,8c-3.75,2.13-7.49,4.28-11.29,6.31
		c-9.76,5.22-19.66,10.17-29.53,15.19c-5.12,2.6-10.17,5.33-15.49,7.5c-0.15,0.06-0.31,0.12-0.41,0.23
		c-1.77,1.78-4.01,2.51-6.41,2.93c-0.73,0.13-1.39,0.15-2.12-0.01c-2.15-0.46-4.28-1-6.33-1.8c-9.44-3.68-19.36-5.8-28.92-9.07
		c-9.88-3.37-19.78-6.68-29.69-9.96c-1.73-0.57-3.29-1.39-4.78-2.4c-2.16-1.45-3.43-3.41-4.03-5.97c-0.94-4-1.93-7.99-2.69-12.03
		c-0.3-1.6-0.32-3.26-0.36-4.89C5.95,54.74,6,52.7,5.99,50.66C6,50.66,6,50.66,5.99,50.66z"/>
	<path d="M112.81,5.85c5.81,0.38,11.83,1.33,17.82,2.49c10.05,1.95,20.04,4.2,30.14,5.85c1.42,0.23,2.83,0.52,4.36,0.14
		c1.94-0.48,4.36,1.46,5.08,3.92c0.52,1.79,1.01,3.65,1.08,5.49c0.05,1.45-0.02,2.92,0.03,4.39c0.18,5.31,0.6,10.61,0.33,15.94
		c-0.15,2.79-1.34,4.94-3.09,7.04c-3.01,3.63-7.29,5.28-11.15,7.58c-9.79,5.82-19.73,11.39-29.83,16.67
		c-7.25,3.79-14.56,7.47-21.86,11.18c-3.86,1.96-7.62,4.1-11.57,5.86c-1.34,0.6-2.69,1.19-4.02,1.8c-1.14,0.52-2.29,0.89-3.21,1.93
		c-0.98,1.1-2.47,1.43-3.97,0.99c-2.02-0.59-4.12-0.96-5.88-2.23c-0.24-0.18-0.59-0.22-0.89-0.3c-8.03-2.11-15.98-4.53-23.87-7.1
		c-10.17-3.31-20.32-6.7-30.47-10.08c-1.7-0.56-3.38-1.15-4.94-2.07c-1.25-0.73-2.07-1.72-2.39-3.13c-0.81-3.58-1.69-7.14-2.4-10.73
		c-0.3-1.55-0.3-3.18-0.32-4.78c-0.04-4.32,0.02-8.64-0.03-12.96c-0.03-2.78,1.24-4.56,3.74-5.62c9.67-4.09,19.31-8.23,29.16-11.86
		c4.22-1.56,8.49-3,12.77-4.41c6.37-2.09,12.77-4.08,19.18-6.03c4.43-1.35,9.03-2.3,13.25-4.12c6.44-2.78,13.37-3.55,19.96-5.66
		C110.7,5.75,111.62,5.93,112.81,5.85z"/>
	<path class="st2" d="M166.8,27.45c0.2,0.18,0.22,0.41,0.22,0.66c0.08,2.59,0.18,5.18,0.25,7.77c0.06,2.38,0.11,4.76,0.1,7.15
		c-0.01,2.38-1.1,3.88-2.52,5.52c-2.34,2.71-5.59,3.94-8.51,5.7c-5.18,3.14-10.48,6.09-15.75,9.08c-3.37,1.91-6.76,3.77-10.17,5.59
		c-13.01,6.94-26.19,13.53-39.4,20.05c-2.11,1.04-4.29,1.92-6.45,2.87c-0.18,0.08-0.51,0.11-0.54,0.22c-0.36,1.5-1.3,0.55-1.84,0.33
		c-8.85-3.54-18.19-5.56-27.2-8.57c-0.11-0.04-0.19-0.14-0.29-0.2c0.67-0.94,1.66-1.48,2.68-1.88c0.8-0.31,1.18-0.78,1.28-1.58
		c1.22-0.2,2.21,0.52,3.3,0.83c5.06,1.79,10.1,3.63,15.08,5.61c0.67,0.26,1.32,0.55,1.92,0.95c0.72,0.13,0.2-0.31,0.23-0.5
		c-0.13-0.26-0.21-0.53-0.17-0.82c0.11-0.62,0.21-1.23-0.1-1.83c-0.16-0.34-0.24-0.69-0.17-1.06c0.14-0.85,0.28-1.7-0.14-2.52
		c-0.21-0.45-0.22-0.92-0.13-1.4c0.21-2.63,0.19-5.26,0.01-7.89c-0.1-0.47-0.1-0.93,0.1-1.38c0.37-0.59,0.31-1.22,0.16-1.85
		c-0.07-0.41-0.36-0.59-0.74-0.68c-1.4-0.3-2.75-0.78-4.17-1.04c-0.8-0.25-1.69-0.28-2.35-0.89c-0.04-0.08-0.06-0.2-0.02-0.22
		c1.94-0.76,2.87-2.48,3.94-4.07c0.18-0.26,0.38-0.52,0.65-0.7c0.98-0.29,1.73,0.39,2.6,0.6c0.63,0.28,1.33,0.39,1.91,0.77
		c0.63,0.51,1.03-0.15,1.54-0.29c1.6-0.74,3.23-1.39,4.85-2.07c3.93-1.64,7.4-4.1,11.09-6.18c5.18-2.94,10.38-5.83,15.63-8.63
		c1.59-0.85,3.18-1.67,4.76-2.54c0.58-0.26,1.06-0.88,1.82-0.51c0.11,0.7-0.8,0.74-0.87,1.31c0.07,0.21,0.25,0.28,0.38,0.2
		c1.24-0.72,2.58-0.35,3.86-0.28c1.07,0.06,2.14,0.15,3.22,0.17c0.56,0.01,1.15,0.02,1.37,0.71c0.04,0.36-0.22,0.53-0.46,0.7
		c-0.97,0.51-1.89,1.11-2.88,1.58c-5.54,3.08-11.16,6.03-16.83,8.87c-2.07,1.04-4.18,1.97-6.24,3.03c-1.05,0.56-2.2,0.91-3.23,1.51
		c-5.04,2.52-10.11,4.97-15.39,6.94c-0.67,0.25-0.94,0.59-0.84,1.33c0.78,5.69,0.9,11.47,2.41,17.05c0.2,0.73,0.39,1.47,0.65,2.18
		c0.2,0.2-0.21,0.69,0.35,0.72c5.21-3.69,10.71-6.9,16.17-10.19c1.39-0.78,2.76-1.58,4.12-2.42c6.64-3.81,13.22-7.72,19.88-11.5
		c1.99-1.15,4-2.24,5.98-3.39c5.05-2.77,10.05-5.64,15.13-8.35c1.02-0.41,1.88-1.1,2.87-1.55c4.08-2.23,8.18-4.39,12.31-6.52
		c0.28-0.15,0.55-0.32,0.79-0.53c0.56-0.46,0.56-1.1,0.57-1.74c0.01-1.82,0-3.64,0-5.45c0.03-0.59,0.07-1.19-0.12-1.77
		c-0.06-0.27-0.09-0.53-0.07-0.81c0.05-0.77,0.52-1.07,1.23-1.22c1.4-0.29,1.74-0.76,1.85-2.19
		C166.54,29.3,166.18,28.31,166.8,27.45z"/>
	<path class="st3" d="M16.32,42.61c9.61-4.24,19.31-8.28,29.15-11.94c0.18-0.07,0.39-0.07,0.59-0.1c2.83,0.39,4.84,1.96,6.28,4.36
		c0.19,0.32,0.26,0.67,0.04,1.01c-1.5,0.91-3.24,1.16-4.84,1.82c-7.6,2.28-15.1,4.84-22.94,7.04c2.2,0.82,4.36,1.08,6.39,1.8
		c5.25,1.33,10.47,2.76,15.68,4.22c0.19,0.05,0.37,0.13,0.54,0.24c0.1,0.07,0.18,0.17,0.23,0.29c0.22,0.74-0.28,1.17-0.69,1.65
		c-1.26,1.49-3.05,2.38-4.32,3.86c-0.92,0.25-1.62-0.48-2.47-0.54c-4.29-1.45-8.55-3-12.81-4.54c-2.54-0.95-5.09-1.85-7.62-2.82
		c-0.72-0.27-0.92-0.14-0.81,0.64c0.48,3.35,0.85,6.72,1.29,10.08c0.05,0.75,0.46,1.52-0.08,2.25c-1.71,0.65-3.37-0.48-3.52-2.24
		c-0.46-5.26-0.1-10.53-0.21-15.8C16.2,43.47,16.1,43.02,16.32,42.61z"/>
	<path class="st4" d="M61.19,25.3c5.02-1.82,10.13-3.35,15.23-4.93c5.71-1.77,11.59-3.08,17.12-5.29
		c5.18-2.07,10.59-2.97,15.88-4.42c0.71,0.15,0.84,0.4,0.36,1.03c-0.78,1.02-1.66,1.95-2.74,2.65c-0.51,0.33-0.98,0.68-1.26,1.25
		c-0.23,0.32-0.58,0.44-0.92,0.57c-3.47,0.9-6.71,2.42-10,3.83c-2.58,1.01-5.14,2.08-7.7,3.15c-4.62,1.9-9.31,3.63-13.93,5.53
		c-2.43,0.91-4.87,1.76-7.29,2.69c-0.37,0.14-0.76,0.26-1.14,0c-0.13-0.49,0.31-0.58,0.57-0.77c1.03-0.75,1.96-1.62,2.95-2.42
		c0.52-0.42,0.68-1.06,0.84-1.68c0.13-0.49-0.11-0.84-0.53-1.08c-0.54-0.31-1.11-0.38-1.72-0.32c-1.43,0.12-2.81,0.57-4.25,0.54
		C62.15,25.6,61.61,25.73,61.19,25.3z"/>
	<path class="st5" d="M61.19,25.3c1.96,0.21,3.86-0.3,5.78-0.55c1.11-0.14,1.96,0.14,2.56,1.01c0.34,0.5-0.45,2.29-1.05,2.75
		c-1.23,0.95-2.44,1.91-3.66,2.87c-0.14,0.63-0.72,0.68-1.18,0.84c-2.01,0.7-4.02,1.4-6,2.21c-1.39,0.59-2.88,0.89-4.3,1.39
		c-0.33,0.11-0.68,0.27-1.02,0.01c-0.43-1.45-1.35-2.53-2.57-3.4c-1.14-0.81-2.43-1.29-3.69-1.84
		C51.02,28.59,56.06,26.83,61.19,25.3z"/>
	<path class="st6" d="M165.84,19.56c0.76,1.16,0.73,2.53,0.97,3.82c-0.09,1.83-1.75,3.19-3.62,2.97c-0.42-0.44-0.21-1.05-0.39-1.55
		c-0.13-0.41-0.39-0.46-0.74-0.27c-0.42,0.23-0.81,0.5-1.21,0.78c-2.35,1.4-4.69,2.83-7.02,4.27c-0.57,0.35-1.12,0.77-1.82,0.84
		c-2.12,0.33-4.2,0.9-6.26,1.45c-1.7,0.46-3.45,0.54-5.16,0.92c-0.53,0.12-1.23,0.23-1.51-0.55c0.04-0.47,0.42-0.64,0.76-0.84
		c2.29-1.36,4.65-2.59,6.98-3.87c1.33-0.63,2.63-1.3,3.94-1.95c0.42-0.21,0.82-0.51,1.34-0.37c0.4,0.32,0.81,0.19,1.24,0.04
		c4.05-1.41,7.98-3.07,11.62-5.34C165.24,19.72,165.53,19.64,165.84,19.56z"/>
	<path class="st7" d="M121.2,11.15c3.56,0.38,7.05,1.13,10.56,1.8c1.44,0.27,2.88,0.57,4.32,0.86c0.73,0.21,0.76,0.61,0.27,1.1
		c-0.38,0.38-0.89,0.53-1.37,0.7c-1.95,0.7-3.78,1.68-5.79,2.22c-0.31,0.08-0.56,0.29-0.85,0.43c-0.65,0.22-1.28-0.08-1.93-0.08
		c-2.66-0.5-5.31-1.07-7.97-1.52c-0.46-0.17-1-0.11-1.37-0.52c-0.18-0.6,0.32-0.75,0.68-0.95c1.15-0.66,2.1-1.56,3.04-2.48
		C121.28,12.25,121.38,11.76,121.2,11.15z"/>
	<path class="st8" d="M128.4,18.1c0.58-0.97,1.72-0.76,2.57-1.17c1.56-0.75,3.21-1.31,4.82-1.97c0.57-0.23,1.03-0.56,0.3-1.16
		c4.34,0.76,8.66,1.62,12.95,2.64c0.23,1.03-0.65,1.14-1.23,1.37c-2.09,0.84-4.17,1.71-6.34,2.33c-0.3,0.09-0.58,0.25-0.89,0.33
		c-1.06,0.19-2.03-0.39-3.07-0.36c-1.83-0.13-3.58-0.71-5.39-0.97c-0.19-0.01-0.38-0.05-0.57-0.09c-0.42-0.16-0.86-0.14-1.29-0.18
		C129.62,18.65,128.82,18.84,128.4,18.1z"/>
	<path class="st9" d="M121.2,11.15c0.89,0.38,0.63,0.86,0.15,1.41c-1.22,1.38-2.68,2.45-4.24,3.42c-0.74,0.47-1.45,0.04-2.17-0.08
		c-0.74-0.12-1.46-0.32-2.18-0.55c-0.78-0.18-1.57-0.37-2.33-0.62c-0.65-0.31-1.26-0.19-1.93,0.05c-0.94,0.33-1.79,1.03-2.89,0.76
		c-0.04-0.62,0.39-0.99,0.83-1.2c1.23-0.58,2-1.66,2.92-2.58c0.24-0.24,0.99-0.71,0.05-1.12c1.23-0.59,2.56-0.53,3.86-0.45
		C115.94,10.37,118.59,10.63,121.2,11.15z"/>
	<path class="st10" d="M58.57,80.26c0.53,0.46,0.67,0.91-0.1,1.25c-1.32,0.58-2.5,1.41-3.75,2.12c-3-0.85-5.99-1.71-8.88-2.87
		c-0.3-0.69,0.29-0.79,0.68-0.96c0.86-0.39,1.64-0.92,2.48-1.34c0.57-0.29,0.89-0.73,0.93-1.37c0.1-0.07,0.21-0.11,0.32-0.13
		c1.46,0.34,2.84,0.91,4.25,1.4c0.91,0.48,2,0.52,2.85,1.15c0.15,0.6,0.84,0.26,1.12,0.63C58.5,80.18,58.53,80.22,58.57,80.26z"/>
	<path class="st11" d="M22.8,73.06c-0.81-0.27-1.64-0.51-2.45-0.8c-1.73-0.62-2.11-1.94-2.14-3.52c2.93,1.16,6.01,1.39,9.12,1.34
		c0.47-0.01,0.97,0.07,1.33-0.37c0.49-0.38,0.99-0.16,1.47,0.01c1.01,0.37,2.01,0.75,3.03,1.07c0.25,0.18,0.49,0.36,0.72,0.57
		c0.56,0.88-0.21,1.05-0.72,1.2c-1.14,0.33-2.33,0.46-3.51,0.6C27.36,73.44,25.08,73.37,22.8,73.06z"/>
	<path class="st12" d="M140.64,20.23c1.21-0.72,2.61-0.9,3.88-1.44c1.14-0.48,2.31-0.89,3.44-1.37c0.45-0.19,1.04-0.3,1.07-0.98
		c1.67,0.27,3.34,0.53,4.95,1.04c0.51,0.16,1.02,0.09,1.52,0.17c0.03,0.91-0.72,1.19-1.31,1.49c-2.09,1.04-4.22,1.97-6.49,2.56
		c-1.19,0.07-2.32-0.36-3.49-0.4c-0.82-0.17-1.64-0.33-2.46-0.47C141.32,20.75,140.88,20.68,140.64,20.23z"/>
	<path class="st13" d="M165.84,19.56c-3.12,2.44-6.81,3.75-10.4,5.25c-0.8,0.34-1.63,0.65-2.46,0.88c-0.25,0.07-0.98,0.61-0.81-0.4
		c0.06-0.31,0.27-0.5,0.53-0.65c1.17-0.43,2.05-1.43,3.28-1.72c-0.02,0,0.03-0.02,0.03-0.02s-0.08-0.01-0.1-0.01
		c-0.57,0.09-1.1,0.07-1.61-0.21c-0.1-0.07-0.18-0.15-0.25-0.25c0.05-0.89,0.84-1,1.42-1.25c1.76-0.77,3.48-1.6,5.11-2.62
		c0.89,0.12,1.78,0.23,2.66,0.38c0.43,0.08,0.9,0.23,1.26,0.01C165.28,18.48,165.57,18.95,165.84,19.56z"/>
	<path class="st14" d="M49.92,77.14c0.52,0.39,0.49,0.78-0.05,1.09c-1.06,0.61-2.13,1.22-3.21,1.79c-0.35,0.18-0.78,0.23-0.82,0.74
		c-2.22-0.55-4.38-1.3-6.5-2.16c1.15-1.06,2.68-1.32,4.04-1.92c0.71-0.31,1.35-0.64,1.78-1.3c0.44-0.16,0.83,0.04,1.23,0.14
		c0.87,0.29,1.75,0.56,2.6,0.88C49.36,76.54,49.9,76.53,49.92,77.14z"/>
	<path class="st15" d="M45.12,75.45c0.33,0.75-0.31,0.9-0.74,1.09c-1.67,0.71-3.36,1.38-5.05,2.06c-1.97-0.48-3.89-1.13-5.76-1.92
		c0.34-0.52,0.92-0.59,1.45-0.74c1.3-0.38,2.6-0.73,3.89-1.17c0.62-0.21,1.17-0.49,1.58-1.02c1.1-0.29,1.97,0.42,2.95,0.66
		c0.11,0.04,0.22,0.09,0.33,0.14C44.2,74.87,44.98,74.69,45.12,75.45z"/>
	<path class="st16" d="M160.56,18.58c-1.12,1.48-2.92,1.83-4.45,2.64c-0.69,0.37-1.51,0.51-2.03,1.17
		c-0.41,0.46-0.94,0.34-1.43,0.25c-1.04-0.2-2.1-0.35-3.14-0.58c-0.61-0.07-1.24-0.08-1.67-0.62c1.96-0.75,3.94-1.43,5.83-2.35
		c0.72-0.35,1.4-0.74,1.85-1.44C157.23,17.75,158.83,18.52,160.56,18.58z"/>
	<path class="st17" d="M28.8,69.71c0.25,0.77-0.41,0.68-0.76,0.7C25,70.53,22,70.26,19.04,69.5c-0.5-0.13-0.5-0.57-0.83-0.76
		c-0.41-1-0.67-2.04-0.72-3.12c0.95,0.39,1.9,0.91,2.93,0.2c0.47,0.71,1.2,0.99,1.97,1.23c0.94,0.3,1.9,0.58,2.82,0.96
		c0.57,0.26,1.23,0.28,1.75,0.68c0.32,0.3,0.72,0.46,1.14,0.58C28.36,69.39,28.63,69.46,28.8,69.71z"/>
	<path class="st18" d="M163.2,26.27c1.54-0.54,3.34-0.76,3.6-2.89c0,1.36,0,2.72,0,4.08c0,1.03,0.02,2.07-0.01,3.1
		c-0.05,1.43-0.69,2.11-2.1,2.18c-0.69,0.03-1.06,0.25-1.01,0.98c-0.37,0.01-0.48-0.27-0.51-0.54c-0.23-2.12-0.43-4.25-0.24-6.39
		C162.94,26.57,163.05,26.4,163.2,26.27z"/>
	<path class="st12" d="M40.56,73.78c0.06,0.91-0.71,0.99-1.27,1.17c-1.89,0.61-3.81,1.15-5.72,1.72c-1.72-0.43-3.41-0.95-5.04-1.68
		c0.53-0.6,1.29-0.58,1.98-0.69c1.46-0.23,2.9-0.49,4.34-0.81c0.76-0.17,1.44-0.43,2-0.98c0.8-0.36,1.47,0.14,2.2,0.31
		C39.62,73.05,40.17,73.29,40.56,73.78z"/>
	<path class="st8" d="M36.96,72.59c-0.12,0.86-0.89,1.02-1.49,1.14c-2.3,0.48-4.62,0.85-6.94,1.27c-1.96-0.49-3.88-1.12-5.74-1.93
		c0.55-0.34,1.17-0.32,1.74-0.21c2.58,0.49,5.09-0.05,7.62-0.4c0.46-0.06,0.92-0.19,1.38-0.33c0.59-0.18,0.34-0.47,0.07-0.74
		c1.05-0.47,1.87,0.28,2.79,0.52C36.65,72.07,36.86,72.29,36.96,72.59z"/>
	<path class="st4" d="M20.37,65.87c-0.65,1.01-2.04,0.89-2.87-0.24c-0.86-2.49-1.31-5.08-1.37-7.68c-0.11-4.78-0.04-9.56-0.04-14.34
		c0-0.34-0.12-0.73,0.23-1c0,4.6-0.02,9.2,0.01,13.79c0.01,1.27,0.14,2.54,0.24,3.81c0.01,0.18,0.06,0.43,0.19,0.53
		c0.91,0.72,1.89,1.28,3.13,1.05c0.62,0.51,0.56,1.23,0.62,1.92C20.36,64.42,21.04,65.19,20.37,65.87z"/>
	<path class="st19" d="M101.76,57.94c1.62-1.02,3.38-1.73,5.09-2.57c4.78-2.35,9.51-4.8,14.17-7.39c1.25-0.7,2.52-1.35,3.78-2.02
		c0.64,1.09,0.48,2.33,0.56,3.49c0.27,4.45,0.62,8.9,0.83,13.36c0.02,0.4,0.09,0.8-0.19,1.15c-3.63,2.14-7.26,4.28-10.9,6.41
		c-2.82,1.65-5.64,3.27-8.47,4.91c-0.17,0.1-0.36,0.14-0.55,0.21c-0.79-1.68-0.97-3.52-1.4-5.29c-0.87-3.57-1.84-7.11-2.86-10.64
		C101.67,59.02,101.34,58.49,101.76,57.94z"/>
	<path class="st19" d="M102,77.87c-3.01,1.86-6.02,3.71-9.01,5.59c-2.45,1.55-4.87,3.15-7.31,4.72c-0.63,0.07-0.17-0.58-0.48-0.72
		c-1.16-3.3-1.74-6.73-2.17-10.19c-0.4-3.26-0.52-6.56-1.11-9.8c-0.08-0.44-0.11-0.74,0.42-0.93c5.54-1.94,10.77-4.59,16.06-7.12
		c0.07-0.03,0.16-0.03,0.24-0.04c0.75,0.6,0.67,1.5,0.8,2.31c0.58,3.63,0.8,7.3,1.47,10.92C101.23,74.37,101.81,76.08,102,77.87z"/>
	<path class="st19" d="M127.68,44.51c0.16-0.16,0.32-0.32,0.48-0.48c1.7-1.38,3.59-2.43,5.65-3.17c2.54-0.04,5.03-0.45,7.52-0.88
		c1.14-0.2,2.29-0.25,3.44,0.03c0.67,0.45,0.5,1.22,0.7,1.85c0.49,2.92,1,5.84,1.65,8.74c0.12,0.53,0.39,1.06-0.01,1.59
		c-2.24,1.28-4.47,2.58-6.73,3.83c-2.78,1.54-5.59,3.05-8.39,4.57c-0.42-0.39-0.44-0.92-0.53-1.43c-0.86-4.72-1.75-9.42-3.72-13.84
		C127.64,45.06,127.54,44.79,127.68,44.51z"/>
	<path class="st20" d="M78.97,83.38c-0.05,0.35,0.07,0.67,0.24,0.97c0.19,0.64,0.18,1.27,0.01,1.91c0.08,0.24,0.16,0.49,0.23,0.73
		c0.21,0.92,0.18,0.98-0.48,0.95c-1.96-1.26-4.2-1.86-6.34-2.69c-3.55-1.37-7.13-2.69-10.69-4.02c0.15-0.64,0.66-0.98,1.14-1.33
		c1.2-0.89,2.15-2,2.94-3.26c0.32-0.52,0.68-0.99,1.28-1.2c0.39-0.14,0.68-0.41,0.88-0.77c0.8-1.49,2.11-2.58,3.06-3.94
		c0.67-0.96,1.55-1.8,1.87-3c0.14-0.51,0.25-1.11,0.84-1.38c1.61,0.19,3.12,0.81,4.7,1.13c0.58,0.12,0.35,0.49,0.35,0.8
		c0.16,0.64,0.19,1.27-0.02,1.91c-0.39,0.34-0.19,0.8-0.23,1.21c0.18,2.71,0.18,5.43,0,8.14c0.04,0.41-0.16,0.87,0.23,1.21
		C79.15,81.62,79.14,82.5,78.97,83.38z"/>
	<path class="st20" d="M80.64,62.27c-0.65-0.2-1.34-0.31-1.91-0.73c0.05-0.76,0.73-0.88,1.21-1.15c2.93-1.61,5.78-3.36,8.65-5.08
		c0.26-0.16,0.59-0.26,0.7-0.65c-0.75-0.64-1.97-0.42-2.56-1.35c-0.15-0.54-0.07-1,0.52-1.23c0.42-0.04,0.84,0.05,1.25,0.14
		c0.59,0.25,1.19,0.47,1.79,0.67c0.04,0.01,0.17,0.24,0.18-0.01c0-0.08-0.13-0.19-0.16-0.3c0.24-1.23,1.31-1.61,2.24-2.01
		c0.88-0.38,1.73-0.75,2.47-1.37c0.7-0.27,1.33,0.06,1.98,0.23c0.56,0.16,1.07,0.19,1.6-0.13c4.5-2.67,9.1-5.15,13.77-7.61
		c-0.66-0.52-1.7-0.19-2.13-1.05c-0.06-0.33-0.02-0.62,0.31-0.8c0.39-0.1,0.74,0.04,1.09,0.15c0.91,0.42,1.86,0.72,2.84,0.95
		c0.71,0.22,1.38,0.58,2.12,0.72c0.63,0.26,1.34,0.33,1.9,0.78c0.03,0.05,0.06,0.1,0.09,0.15c-2.48,1.36-4.95,2.74-7.45,4.07
		c-6.09,3.24-12.12,6.59-18.01,10.2c-3.48,2.13-7.21,3.74-11.02,5.17C81.61,62.15,81.18,62.58,80.64,62.27z"/>
	<path class="st19" d="M162.96,43.79c-1.46,0.81-2.92,1.63-4.39,2.42c-2.85,1.52-5.72,3.02-8.58,4.53
		c-0.54-0.35-0.54-0.94-0.63-1.48c-0.45-2.86-0.93-5.71-1.51-8.55c-0.08-0.33-0.1-0.67-0.06-1.01c0.12-0.77,0.65-1.2,1.35-1.34
		c2.17-0.43,4.28-1.11,6.41-1.7c1.49-0.41,2.9-1.08,4.33-1.68c0.65-0.27,1.33-0.61,2.02-0.06c0.68,1.2,0.53,2.56,0.67,3.85
		C162.73,40.44,162.86,42.11,162.96,43.79z"/>
	<path class="st21" d="M73.92,66.35c-0.5,1.52-1.11,3.04-2.12,4.24c-0.75,0.89-1.46,1.85-2.29,2.68c-0.46,0.45-0.81,0.95-1.09,1.54
		c-0.21,0.44-0.46,0.93-1.12,0.94c-0.39,0-0.63,0.32-0.8,0.65c-1.07,2.05-2.83,3.44-4.58,4.84c-1.15-0.22-2.18-0.85-3.36-0.97
		c0,0,0,0,0,0c-0.38-0.21-0.82-0.26-1.2-0.48c-0.96-0.4-1.92-0.8-2.88-1.2c0.76-1.04,1.92-1.62,2.84-2.49c2.4-2.26,4.76-4.57,6.98-7
		c1.35-1.48,2.64-3.04,3.96-4.56c1.17,0.1,2.35,0.2,3.26,1.09C72.32,65.86,73.12,66.1,73.92,66.35z"/>
	<path class="st20" d="M127.68,44.51c2.51,5.07,3.42,10.57,4.32,16.08c-1.95,1.22-3.94,2.35-6,3.36c-0.26-2.2-0.38-4.41-0.5-6.62
		c-0.16-3.04-0.46-6.07-0.67-9.1c-0.05-0.75-0.02-1.51-0.02-2.27C125.82,45.58,126.61,44.77,127.68,44.51z"/>
	<path class="st20" d="M102,77.87c-0.97-1.61-1.11-3.46-1.41-5.23c-0.67-4.02-1.15-8.07-1.71-12.1c-0.05-0.39-0.16-0.77-0.24-1.16
		c0.94-0.71,2.05-1.02,3.12-1.44c0.81,2.94,1.65,5.88,2.41,8.83c0.74,2.87,1.59,5.73,1.92,8.69C104.83,76.44,103.44,77.2,102,77.87z
		"/>
	<path class="st22" d="M133.68,41.14c-1.73,0.68-3.24,1.76-4.88,2.61c-0.21,0.11-0.42,0.18-0.64,0.27c-0.27-0.22-0.47-0.49-0.9-0.49
		c-1.95,0.01-3.89-0.01-5.83-0.36c-0.47-0.08-1.02,0.36-1.54,0.54c-0.28,0.09-0.62,0.53-0.86-0.08c-0.17-0.44-0.29-0.82,0.28-1.08
		c0.35-0.16,0.76-0.28,0.92-0.7c0.39-0.73,1.18-0.84,1.83-1.19c0.78-0.28,1.55-0.59,2.14-1.22c1.4-0.76,2.84-1.43,4.17-2.33
		c0.43-0.29,0.94-0.66,1.55-0.32c0.7,0.87,1.64,0.68,2.54,0.55c2.24-0.34,4.52-0.34,6.76-0.68c0.41-0.06,0.81-0.03,1,0.43
		c0.05,0.33-0.18,0.52-0.41,0.66C137.8,38.95,135.87,40.29,133.68,41.14z"/>
	<path class="st21" d="M129.84,36.81c-1.43,0.31-2.41,1.47-3.73,2c-0.61,0.25-1.2,0.58-1.79,0.88c-0.67,0.5-1.49,0.73-2.17,1.21
		c-0.63,0.32-1.27,0.64-1.9,0.96c-0.63,0.08-1.11,0.5-1.68,0.72c0,0-0.01-0.01-0.01-0.01c-0.54-0.39-1.15-0.6-1.78-0.77
		c-0.65-0.16-1.23-0.53-1.89-0.67c-0.85-0.21-1.57-0.76-2.44-0.9c-1.11-0.49-2.39-0.68-3.16-1.78c0-0.76,0.59-0.94,1.15-1.11
		c0.44-0.13,0.9-0.25,1.36-0.32c1.72,0.11,3.38,0.6,5.03,1.03c1.15,0.29,2.17,0.24,3.22-0.37c1.03-0.61,2.14-1.08,3.21-1.62
		c0.43-0.22,0.86-0.44,1.37-0.38c1.21,0.08,2.42,0.3,3.65,0.14c0.63-0.08,1.28-0.04,1.67,0.61
		C129.95,36.57,129.92,36.7,129.84,36.81z"/>
	<path class="st23" d="M86.88,53.38c0.82,0.29,1.65,0.57,2.47,0.88c0.2,0.08,0.53,0.04,0.54,0.36c0.01,0.27-0.26,0.37-0.46,0.49
		c-2.45,1.46-4.91,2.93-7.36,4.4c-1.12,0.67-2.34,1.18-3.35,2.03c-0.95,0-1.69-0.75-2.64-0.72c-0.19-0.04-0.31-0.14-0.38-0.32
		c-0.03-0.83,0.44-1.42,0.99-1.94c1.64-1.55,3.33-3.06,5.25-4.26c0.83-0.52,1.49-1.13,1.92-2C85.01,52.3,86.06,52.51,86.88,53.38z"
		/>
	<path class="st10" d="M75.84,60.57c0.08,0.08,0.16,0.16,0.24,0.24c-0.76,1.05-0.97,2.49-2.28,3.14c-0.07,0.03-0.12,0.11-0.17,0.16
		c-1.17,1.21-1.17,1.21-2.11,1.51c-1.12-0.31-2.24-0.63-3.37-0.94c-1.31,0.32-2.36-0.44-3.5-0.82c-0.38-0.62,0.19-0.61,0.47-0.6
		c0.8,0.05,1.26-0.41,1.68-0.97c0.97-1.31,2.3-2.32,3.12-3.76c0.76-0.22,1.4,0.24,2.09,0.39C73.3,59.47,74.73,59.65,75.84,60.57z"/>
	<path class="st20" d="M148.08,40.66c0.78,2.33,0.91,4.78,1.43,7.16c0.21,0.96,0.33,1.94,0.49,2.92c-1.01,0.39-1.78,1.23-2.88,1.45
		c-0.6-3.05-1.21-6.1-1.8-9.15c-0.07-0.38-0.08-0.78-0.12-1.17c0.12-0.13,0.27-0.15,0.43-0.11C147.36,42.2,147.36,42.2,148.08,40.66
		z"/>
	<path class="st24" d="M162.96,43.79c-0.41-0.05-0.49-0.33-0.48-0.68c0.03-2.25-0.35-4.46-0.49-6.7c-0.03-0.51-0.15-1.01-0.23-1.51
		c-0.62-1.55-0.74-3.17-0.68-4.81c0.05-0.13,0.14-0.22,0.26-0.29c0.95,0.19,1.29-0.28,1.29-1.17c0-0.91-0.01-1.82,0.01-2.73
		c0.01-0.46-0.07-0.96,0.33-1.33c0.45,0.51,0.14,1.13,0.24,1.69c-0.15,2.31,0.21,4.61,0.25,6.92c0,0.18,0.15,0.35,0.22,0.53
		c0,0.24,0,0.48,0,0.72c0.31,0.53-0.08,1.16,0.24,1.68c0,2.05-0.03,4.1,0.02,6.16C163.96,43.06,163.7,43.54,162.96,43.79z"/>
	<path class="st25" d="M78.73,79.53c0-2.71,0-5.43,0-8.14c0.33,0.27,0.23,0.65,0.23,0.99c0.01,2.05,0.01,4.1,0,6.16
		C78.95,78.88,79.06,79.26,78.73,79.53z"/>
	<path class="st26" d="M164.31,44.29c0.23-0.79-0.02-1.62,0.21-2.41C164.53,42.7,165.39,43.56,164.31,44.29z"/>
	<path class="st27" d="M78.97,83.38c0-0.88,0-1.76-0.01-2.63C79.35,81.62,79.34,82.5,78.97,83.38z"/>
	<path class="st28" d="M78.96,70.19c0.01-0.64,0.01-1.27,0.02-1.91C79.32,68.92,79.34,69.55,78.96,70.19z"/>
	<path class="st29" d="M80.64,62.27c0.48-0.08,0.97-0.16,1.45-0.24C81.64,62.32,81.23,62.86,80.64,62.27z"/>
	<path class="st30" d="M79.21,86.26c0-0.64,0-1.27-0.01-1.91C79.57,84.98,79.57,85.62,79.21,86.26z"/>
	<path class="st18" d="M163.92,36.11c-0.45-0.51-0.15-1.12-0.24-1.68C164.14,34.93,163.83,35.55,163.92,36.11z"/>
	<path class="st31" d="M78.96,87.93c0.67-0.06,0.42-0.58,0.48-0.95c0.34,0.32,0.34,0.72,0.1,1.05
		C79.38,88.27,79.12,88.16,78.96,87.93z"/>
	<path class="st32" d="M85.2,87.46c0.16,0.24,0.32,0.48,0.48,0.72c-0.1,0.1-0.27,0.31-0.29,0.29C85,88.21,85.28,87.8,85.2,87.46z"/>
	<path class="st33" d="M47.27,51.24c-4.06-1.08-8.12-2.17-12.18-3.25c-1.38-0.37-2.76-0.72-4.13-1.07c0-0.62,0.55-0.62,0.92-0.75
		c4.39-1.59,8.71-3.36,13.07-5.05c0.52-0.2,1.03-0.46,1.61-0.39c2.15,0.67,4.38,1.04,6.48,1.91c0.58,0.44,0.38,0.97,0.19,1.51
		c-0.88,2.49-2.57,4.48-4.08,6.57C48.58,51.13,48.06,51.67,47.27,51.24z"/>
	<path class="st34" d="M27.34,51.48c4.25,1.52,8.49,3.04,12.74,4.56c0.47,0.92-0.35,1.13-0.85,1.38c-2.02,1-3.94,2.18-6.2,2.74
		c-2.7,0.67-5.39,1.28-8.14,1.61c-0.22-0.28-0.23-0.61-0.19-0.95c0.27-2.63,0.88-5.18,1.79-7.65C26.7,52.58,26.87,51.95,27.34,51.48
		z"/>
	<path class="st35" d="M46.56,40.9c-5.2,2-10.4,4.01-15.6,6.01c-2.32-0.82-4.8-1.08-7.35-2.13c1.73-0.5,3.21-0.91,4.67-1.37
		c6.16-1.91,12.33-3.84,18.49-5.75c0.23-0.07,0.47-0.09,0.7-0.14c0.67-0.28,1.04,0.06,1.26,0.64c0.21,0.54,0.49,1.07,0.36,1.69
		C48.42,40.62,47.54,40.9,46.56,40.9z"/>
	<path class="st36" d="M27.34,51.48c-0.45,2-1.4,3.84-1.74,5.87c-0.19,1.16-0.42,2.31-0.63,3.47c-1.39,0.78-2.7-0.06-4.05-0.21
		c-0.57-0.06-1.07-0.32-1.2-0.98c-0.47-3.53-0.93-7.06-1.43-10.58c-0.12-0.83,0.15-0.85,0.8-0.61
		C21.83,49.47,24.59,50.47,27.34,51.48z"/>
	<path class="st37" d="M24.99,61.79c0.53-0.7,1.35-0.59,2.06-0.7c3.66-0.56,7.27-1.24,10.5-3.18c0.61-0.37,1.27-0.65,1.91-0.96
		c0.39-0.19,0.69-0.41,0.61-0.9c0.8,0.24,1.6,0.48,2.39,0.73c0.66,0,1.32-0.02,1.75,0.63c0.01,0.26-0.08,0.49-0.23,0.69
		c-3.6,2.94-7.65,4.96-12.19,6.01c-1.52,0.35-3.02,0.69-4.59,0.69c-0.8,0-1.56,0.24-2.12,0.89c-0.38-0.18-0.4-0.53-0.45-0.88
		C24.67,63.78,24.31,62.72,24.99,61.79z"/>
	<path class="st4" d="M44.16,57.46c-0.49-0.41-1.23-0.22-1.69-0.69c0.19-0.85,0.86-1.31,1.53-1.73c1.1-0.68,1.92-1.66,2.84-2.53
		c0.31-0.29,0.48-0.63,0.44-1.06c1.46-0.26,2.75,0.41,4.09,0.77c0.49,0.19,1.06,0.2,1.46,0.61c0.32,0.81-0.28,1.24-0.73,1.74
		c-1.32,1.44-2.81,2.71-4.1,4.18c-0.81,0.23-1.47-0.28-2.2-0.45c-0.53-0.21-1.11-0.3-1.56-0.68C44.22,57.56,44.19,57.51,44.16,57.46
		z"/>
	<path class="st38" d="M48.96,39.91c-0.17-0.57-0.35-1.13-0.52-1.7c-0.15-0.48-0.46-0.72-0.97-0.69c1.62-0.57,3.24-1.14,4.86-1.71
		c1.76-0.56,3.51-1.12,5.27-1.68c0.27,0.29,0.19,0.62,0.01,0.87c-0.47,0.65-0.6,1.44-1,2.11c-0.91,0.72-2.04,0.95-3.07,1.38
		c0.44,0.02,0.84,0.15,1.08,0.58c0.02,0.86-0.17,1.64-0.87,2.22C52,41.33,50.47,40.66,48.96,39.91z"/>
	<path class="st39" d="M24.99,61.79c-0.02,1.04-0.03,2.08-0.05,3.12c-1.45,0.73-2.83,0.17-4.22-0.21c-0.47-0.13-0.39-0.63-0.52-0.98
		c-0.1-0.64-0.2-1.29-0.3-1.93c0.18-0.74-0.21-1.43-0.17-2.15c1.21,1.05,2.77,0.85,4.19,1.18c0.33,0.08,0.7,0.01,1.06,0.01
		C24.97,61.15,24.98,61.47,24.99,61.79z"/>
	<path class="st40" d="M51.36,52.43c-1.36-0.33-2.72-0.65-4.07-0.98c0-0.07-0.01-0.14-0.02-0.21c0.66-0.02,1.21-0.29,1.69-0.73
		c1.69-1.21,3.63-1.95,5.4-3.02c0.3-0.18,0.64-0.34,1.02-0.19c0.37,0.68-0.13,1.13-0.47,1.56c-1,1.26-2.07,2.48-3.23,3.6
		C51.56,52.52,51.46,52.51,51.36,52.43z"/>
	<path class="st41" d="M56.4,37.06c0.05-1.12,0.97-1.88,1.19-2.93c2.41-0.92,4.82-1.84,7.23-2.76c2.79-0.99,5.57-1.98,8.36-2.97
		c0.63,0.36,0.09,0.65-0.1,0.87c-0.79,0.94-1.81,1.62-2.73,2.41c-0.33,0.28-0.64,0.58-0.89,0.93c-0.31,0.32-0.72,0.44-1.12,0.59
		c-3.51,1.18-6.98,2.45-10.47,3.69C57.39,37.08,56.93,37.42,56.4,37.06z"/>
	<path class="st42" d="M69.36,32.49c0.37-1.1,1.5-1.41,2.2-2.17c0.57-0.61,1.47-0.95,1.61-1.92c4.65-1.83,9.3-3.67,13.95-5.5
		c0.53,0.43,0.04,0.69-0.2,0.89c-0.77,0.62-1.61,1.16-2.43,1.73c-2.02,1.41-4.33,2.38-6.18,4.05c-1.21,0.7-2.62,0.9-3.87,1.52
		c-1.28,0.45-2.59,0.82-3.84,1.33C70.21,32.59,69.79,32.83,69.36,32.49z"/>
	<path class="st43" d="M78.24,29.36c0.3-0.49,0.75-0.79,1.23-1.09c2.38-1.48,4.74-2.99,7.08-4.52c0.27-0.17,0.78-0.31,0.58-0.85
		c2.5-1.19,5.07-2.21,7.67-3.16c0.47,0.66,0.01,1.08-0.46,1.37c-1.69,1.07-3.29,2.27-5.02,3.26c-1.12,0.64-2.14,1.39-3.05,2.3
		c-1.6,0.96-3.42,1.3-5.01,1.93c0.31,0.17,1.04,0.01,1.41,0.59c0.04,0.85-0.56,0.91-1.17,0.95c-0.19,0-0.38-0.03-0.56-0.08
		C80.08,29.67,79.11,29.71,78.24,29.36z"/>
	<path class="st44" d="M86.16,26.51c0.46-0.84,1.26-1.39,2.03-1.81c2.04-1.1,3.83-2.6,5.86-3.7c0.5-0.27,0.81-0.64,0.73-1.24
		c3.3-1.45,6.5-3.14,10.09-3.8c0.4,0.51,0.4,0.62-0.24,1.02c-1.32,0.82-2.74,1.44-4.11,2.16c-3.31,1.72-6.61,3.48-9.49,5.91
		c-1.26,0.67-2.65,1.03-3.98,1.53C86.77,26.67,86.45,26.75,86.16,26.51z"/>
	<path class="st45" d="M90.96,24.82c1.39-1.72,3.42-2.54,5.23-3.64c2.6-1.58,5.36-2.87,8.04-4.33c0.3-0.16,1.13-0.12,0.66-0.91
		c0.25-0.13,0.49-0.27,0.74-0.4c0.99-0.36,2.02-0.63,2.96-1.09c0.68-0.34,1.23-0.41,1.82,0.05c0.1,0.65-0.39,0.9-0.82,1.17
		c-2.31,1.44-4.87,2.37-7.31,3.53c-1.66,0.79-3.34,1.54-4.84,2.61c-0.93,0.67-2.15,0.92-2.83,1.96
		C93.41,24.18,92.35,25.09,90.96,24.82z"/>
	<path class="st10" d="M129.84,36.81c0-0.08,0-0.15,0-0.23c1.48-1.16,3.27-1.75,4.85-2.74c0.63-0.4,1.34-0.68,2.01-1.03
		c0.69-0.28,1.31-0.69,2.02-0.94c0.18-0.03,0.35,0,0.48,0.14c0.52,0.95,1.3,0.42,1.98,0.33c3.49-0.46,6.86-1.43,10.27-2.23
		c0.23-0.05,0.48-0.01,0.72-0.01c0.04,0.58-0.5,0.66-0.83,0.88c-1.27,0.82-2.59,1.55-3.86,2.36c-0.48,0.27-1,0.47-1.46,0.79
		c-0.72,0.42-1.42,0.87-2.13,1.28c-1.27,0.58-2.28,1.66-3.73,1.88c-0.8-0.74-1.7-0.18-2.54-0.13c-2.19,0.13-4.38,0.44-6.57,0.57
		C130.59,37.77,129.48,38.1,129.84,36.81z"/>
	<path class="st46" d="M147.36,33.22c1.3-1.16,2.92-1.81,4.34-2.77c0.16-0.11,0.31-0.23,0.47-0.34c2.54-1.23,4.8-2.94,7.28-4.29
		c0.45-0.25,0.91-0.5,1.36-0.75c0.61,1.56,1,3.13,0.48,4.8l0,0c-0.72-0.39-1.39-0.28-2.12,0.05c-3.35,1.55-6.86,2.62-10.45,3.47
		C148.25,33.49,147.77,33.63,147.36,33.22z"/>
	<path class="st47" d="M139.2,32.03c-0.16,0-0.32,0-0.49,0c-0.95,0.21-1.79-0.25-2.66-0.47c-0.88-0.23-1.75-0.53-2.66-0.64
		c-0.78-0.15-1.56-0.29-2.21-0.78c-0.42-0.64-0.1-0.92,0.52-1.07c1.23-0.29,2.5-0.29,3.74-0.49c0.39-0.06,0.76-0.14,1.11-0.33
		c0.82-0.22,1.62,0.16,2.43,0.07c2.06,0.05,4.01-0.53,5.99-0.96c0.67-0.15,1.42-0.48,1.92,0.36
		C144.33,29.15,141.76,30.59,139.2,32.03z"/>
	<path class="st48" d="M146.89,27.71c-0.48-0.27-0.96-0.26-1.49-0.13c-2.12,0.53-4.22,1.13-6.44,1.08
		c-0.03-0.59,0.48-0.68,0.84-0.87c2.21-1.13,4.43-2.22,6.64-3.34c0.63-0.31,1.28-0.44,1.97-0.44c0.46,0,0.91,0.01,1.36,0.1
		c0.94,0.3,2.03,0.03,2.87,0.72c-0.16,0.15-0.32,0.31-0.49,0.46C150.4,26.1,148.65,26.91,146.89,27.71z"/>
	<path class="st49" d="M161.28,29.87c-0.16-1.6-0.32-3.2-0.48-4.8c0.44-0.44,0.98-0.73,1.53-1c0.63-0.31,0.63,0.09,0.63,0.51
		c0,1.52-0.01,3.03,0,4.55c0,0.48-0.14,0.86-0.56,1.11C161.9,30.53,161.59,30.18,161.28,29.87z"/>
	<path class="st50" d="M112.8,15.04c1.44,0.31,2.88,0.62,4.31,0.94c0.3,0.44,0.92-0.03,1.22,0.42c0.28,0.66-0.25,0.82-0.66,0.97
		c-0.62,0.24-1.2,0.55-1.76,0.89c-0.31,0.12-0.63,0.11-0.96,0.05c-0.84-0.25-1.67-0.14-2.48,0.09c-3.16,0.89-6.32,1.76-9.44,2.78
		c-1.2,0.24-2.29,1.04-3.6,0.81c-0.21-0.9,0.55-1.01,1.07-1.27c2.95-1.49,6.05-2.6,9.07-3.92C110.7,16.32,111.85,15.85,112.8,15.04z
		"/>
	<path class="st51" d="M115.92,18.13c0.24-0.65,0.85-0.74,1.39-0.94c0.43-0.16,0.95-0.18,1.02-0.79c2.75,0.3,5.44,0.94,8.14,1.5
		c-0.17,0.98-1.07,0.97-1.74,1.15c-0.66,0.17-1.31,0.34-1.9,0.69c-0.39,0.13-0.78,0.11-1.17,0.04c-1.5-0.33-3.02-0.58-4.52-0.92
		C116.67,18.74,116.07,18.79,115.92,18.13z"/>
	<path class="st52" d="M122.88,19.57c0.29-0.56,0.81-0.7,1.38-0.74c0.84-0.06,1.58-0.36,2.21-0.92c0.64,0.07,1.29,0.13,1.93,0.2
		c0.64,0.17,1.29,0.35,1.93,0.52c0.37,0.23,0.83-0.06,1.18,0.21c0.16,0.01,0.33,0.03,0.49,0.04c0.69,0.19,0.6,0.53,0.12,0.86
		c-0.5,0.34-1.1,0.48-1.69,0.54c-1.3,0.13-2.59,0.4-3.91,0.34c-0.81,0.03-1.59-0.19-2.38-0.33
		C123.74,20.01,123.03,20.29,122.88,19.57z"/>
	<path class="st53" d="M126.46,20.28c1.79-0.09,3.59-0.17,5.33-0.7c0.5-0.15,0.74-0.29,0.23-0.72c1.84,0.32,3.68,0.64,5.52,0.96
		c0.21,0.18,0.65-0.05,0.69,0.3c0.05,0.37-0.33,0.51-0.62,0.61c-1.57,0.55-3.22,0.74-4.84,1.06c-0.65,0.02-1.28-0.12-1.91-0.24
		c-0.8-0.29-1.52-0.09-2.27,0.26c-1.35,0.64-2.58,1.56-4.09,1.82c-0.53-0.08-1.06-0.15-1.61-0.07c-0.4,0.06-0.8,0.03-0.85-0.52
		c0.13-0.59,0.62-0.77,1.09-0.98c1.11-0.5,2.2-1.06,3.37-1.42C126.7,20.58,126.33,20.42,126.46,20.28z"/>
	<path class="st54" d="M132.72,21.47c1.63-0.34,3.25-0.67,4.87-1.03c0.15-0.03,0.46-0.06,0.4-0.31c-0.03-0.13-0.3-0.21-0.46-0.31
		c1.04,0.14,2.07,0.28,3.11,0.42c1.2,0.26,2.4,0.51,3.59,0.77c0.02,0.7-0.56,0.77-1.02,0.94c-1.26,0.45-2.59,0.63-3.86,1.04
		c-2.03-0.11-4-0.58-5.99-0.96C133.07,21.96,132.71,21.91,132.72,21.47z"/>
	<path class="st53" d="M131.52,18.83c-0.4-0.05-0.84,0.14-1.18-0.21C130.74,18.61,131.17,18.46,131.52,18.83z"/>
	<path class="st55" d="M112.8,15.04c-0.45,1.43-1.89,1.47-2.94,1.96c-3.13,1.46-6.35,2.75-9.53,4.11c-0.41,0.18-0.77,0.41-0.96,0.84
		c0,0.05,0,0.1,0,0.16c0.3,0.83-0.05,1.23-0.88,1.32c-0.97-0.09-1.94-0.33-2.88,0.15c-0.35,0.08-0.69,0.25-1.05,0.05
		c0.02-0.46,0.32-0.71,0.67-0.92c3.2-1.99,6.53-3.76,10.01-5.19c1.55-0.63,2.94-1.52,4.44-2.22c0.3-0.14,0.48-0.52,0.72-0.78
		C111.2,14.68,112,14.86,112.8,15.04z"/>
	<path class="st49" d="M64.56,63.7c1.2,0.33,2.4,0.66,3.59,0.98c-0.02,0.37-0.16,0.74-0.42,0.97c-2.24,2-3.8,4.62-6.13,6.59
		c-1.55,1.31-2.89,2.9-4.38,4.31c-0.84,0.8-1.73,1.48-2.74,2.04c-1.44-0.48-2.88-0.97-4.32-1.45c-0.38-0.52-0.39-1.08-0.22-1.66
		c0.18-0.36,0.46-0.4,0.58-0.03c0.27,0.89,0.7,0.49,1.14,0.2C54,74.1,56,72.16,58.02,70.25c2.2-2.08,4.03-4.5,6.23-6.59
		C64.36,63.62,64.47,63.63,64.56,63.7z"/>
	<path class="st56" d="M50.16,75.22c0,0.63,0,1.27,0,1.9c-0.08,0-0.16,0.01-0.24,0.01c-1.11-0.71-2.5-0.72-3.61-1.44
		c0.02-0.06,0.04-0.11,0.06-0.17c0.69-0.67,1.48-1.22,2.32-1.67c0.59-0.32,1.22-0.48,1.65,0.29C50.46,74.53,50.47,74.9,50.16,75.22z
		"/>
	<path class="st2" d="M57.37,79.78c0.46,0,0.88,0.11,1.2,0.48C58.12,80.21,57.62,80.3,57.37,79.78z"/>
	<path class="st57" d="M28.8,69.71c-0.26-0.02-0.54,0.04-0.71-0.24c-0.09-0.1-0.13-0.22-0.11-0.35c0.26-0.56,0.79-0.63,1.3-0.69
		c4.75-0.58,9.11-2.23,13.16-4.74c0.42-0.26,0.88-0.62,1.39-0.11c0.28,0.94,0.22,1.89,0.05,2.84c-1.22,1.05-2.76,1.51-4.15,2.24
		c-2.08,1.09-4.32,1.78-6.62,2.27C31.57,70.89,30.32,69.8,28.8,69.71z"/>
	<path class="st58" d="M33.11,70.92c0.13-0.27,0.32-0.43,0.63-0.49c3.04-0.6,5.78-1.96,8.5-3.36c0.45-0.23,0.89-0.55,1.45-0.49
		c0.62,1.13,0.3,2.36,0.35,3.55c0.02,0.96,0.03,1.93,0,2.89c-0.02,0.59,0.12,1.21-0.35,1.71c-0.08,0-0.16-0.01-0.24-0.01
		c-0.64-1.04-0.27-2.18-0.35-3.28c-0.03-0.62,0.34-1.45-0.19-1.8c-0.55-0.36-1.13,0.35-1.69,0.61c-1.54,0.73-3.07,1.47-4.74,1.87
		c-1.01-0.05-1.85-0.73-2.87-0.73C33.3,71.38,33.13,71.23,33.11,70.92z"/>
	<path class="st59" d="M139.43,22.67c1.28-0.36,2.56-0.71,3.83-1.08c0.36-0.11,0.8-0.14,0.97-0.58c1.23-0.1,2.38,0.48,3.61,0.43
		c0.56,0.1,1.12,0.21,1.69,0.31c0.62,0.7-0.08,0.86-0.47,1.03c-1.27,0.53-2.59,0.89-3.94,1.17c-1.42,0-2.78-0.38-4.18-0.56
		C140.47,23.08,139.66,23.49,139.43,22.67z"/>
	<path class="st60" d="M145.19,23.63c1.33-0.4,2.67-0.81,4.01-1.2c0.38-0.11,0.54-0.3,0.33-0.68c1.53,0.16,2.99,0.73,4.55,0.65
		c0.08,0.02,0.16,0.05,0.23,0.07c0.25,0.39-0.02,0.65-0.31,0.74c-1.25,0.38-2.38,1.07-3.7,1.25c-0.19,0.03-0.4,0.03-0.57-0.11
		c-0.47-0.01-0.95-0.01-1.42-0.02c-0.87-0.3-1.79,0.15-2.65-0.19C145.43,24.05,145.15,23.99,145.19,23.63z"/>
	<path class="st61" d="M149.75,24.35c1.62-0.4,3.21-0.85,4.57-1.89c0.6,0.3,1.25,0.18,1.89,0.21c0.17,0.16,0.18,0.32-0.02,0.47
		c-1.32,0.27-2.18,1.5-3.54,1.7C151.66,24.78,150.68,24.7,149.75,24.35z"/>
	<path class="st62" d="M156.18,23.14c0.01-0.16,0.01-0.31,0.02-0.47c0.19,0.05,0.54-0.15,0.54,0.2
		C156.75,23.13,156.42,23.13,156.18,23.14z"/>
	<path class="st63" d="M43.68,74.73c0-0.56,0-1.11,0-1.67c0.67-0.54,1.37-1.03,2.28-1.06c0.13,0.04,0.23,0.12,0.29,0.24
		c0.32,0.88,0.01,1.82,0.27,2.71c0.03,0.28-0.03,0.53-0.21,0.75c0,0,0,0,0,0c-0.4-0.08-0.79-0.16-1.19-0.24
		C44.64,75.21,44.16,74.97,43.68,74.73z"/>
	<path class="st64" d="M43.44,71.15c0,1.19,0,2.38,0.01,3.57c-0.96-0.31-1.92-0.63-2.89-0.94c-0.62,0.05-0.96-0.48-1.45-0.71
		C40.34,71.95,41.66,71.04,43.44,71.15z"/>
	<path class="st65" d="M43.68,63.46c-1.09,0.2-1.93,0.95-2.83,1.48c-2.82,1.65-5.85,2.68-9.01,3.37c-0.85,0.19-1.71,0.31-2.58,0.42
		c-0.45,0.05-0.87,0.12-1.18,0.48c-0.47,0.26-0.81-0.13-1.2-0.24c-0.46-0.47-1.19-0.3-1.69-0.69c-0.06-0.31-0.08-0.62-0.05-0.94
		c0.02-0.83,0.55-1.06,1.27-1.08c2.24-0.07,4.42-0.5,6.6-1.03c3.12-0.75,5.82-2.36,8.6-3.83c0.62-0.33,1.19-1.05,1.93-0.65
		c0.76,0.41,0.38,1.29,0.45,1.98C43.97,63.01,43.91,63.28,43.68,63.46z"/>
	<path class="st66" d="M25.44,67.56c-0.02,0.26,0.05,0.56-0.24,0.73c-1.28-0.42-2.56-0.85-3.84-1.27c-0.57-0.19-1.02-0.46-0.99-1.15
		c0.2-0.74-0.29-1.42-0.17-2.15c0.66,1.36,2.05,0.84,3.1,1.16c0.51,0.15,1.1,0.03,1.65,0.03c0.04,0.26-0.01,0.55,0.25,0.74
		C25.8,66.21,25,66.96,25.44,67.56z"/>
	<path class="st11" d="M26.88,68.97c0.4,0.08,0.8,0.16,1.2,0.24c0,0.08,0,0.17,0,0.25C27.61,69.48,27.18,69.38,26.88,68.97z"/>
	<path class="st67" d="M43.44,71.15c-1.58,0.33-2.9,1.25-4.33,1.93c-0.72-0.16-1.43-0.32-2.15-0.48c-0.31-0.01-0.47-0.16-0.49-0.47
		c1.06-0.97,2.57-0.97,3.73-1.73c0.69-0.45,1.48-0.75,2.22-1.14c0.67-0.35,1.06-0.3,1.02,0.58C43.42,70.27,43.44,70.71,43.44,71.15z
		"/>
	<path class="st68" d="M140.16,37.3c1.2-0.72,2.4-1.43,3.61-2.15c0.93,1.56,1.39,3.21,0.96,5.03c-1.72-0.14-3.58-0.23-5.07,0.37
		c-1.67,0.67-3.34,0.04-4.91,0.64c-0.3,0.12-0.7-0.03-1.05-0.05C135.74,39.69,137.99,38.57,140.16,37.3z"/>
	<path class="st69" d="M144.72,40.18c-0.09-1.72-0.58-3.37-0.96-5.03c0.72-0.4,1.44-0.8,2.16-1.21c0.48,0.15,0.66,0.57,0.81,0.98
		c0.56,1.56,1.26,3.09,1.35,4.78c0,0.32,0,0.64,0,0.96c-0.09,0.54,0.26,1.21-0.49,1.56c-0.71,0.33-1.35,0.37-1.95-0.23
		c-0.1-0.1-0.29-0.09-0.44-0.14C144.77,41.38,145.19,40.65,144.72,40.18z"/>
	<path class="st23" d="M110.4,40.67c0.82,0.27,1.63,0.54,2.53,0.84c-0.43,0.47-0.93,0.75-1.44,1.02c-4.38,2.26-8.7,4.62-12.92,7.17
		c-0.43,0.26-0.83,0.34-1.34,0.15c-0.7-0.25-1.45-0.37-2.19-0.54c-1.22-0.15-2.48-0.18-3.41-1.17c3.9-1.76,7.55-4.01,11.57-5.58
		c1.98-0.78,4.18-1.03,5.98-2.26C109.66,40.17,110.05,40.34,110.4,40.67z"/>
	<path class="st70" d="M91.68,48.11c1.04,0.62,2.34,0.53,3.36,1.2c-0.37,0.84-1.17,1.25-1.93,1.36c-1.08,0.16-1.6,1.1-2.51,1.46
		c-0.1,0.04-0.08,0.36-0.12,0.55c-0.57,0.35-0.99-0.16-1.48-0.24c-0.63-0.29-1.25-0.57-1.93-0.72c-0.77-0.32-1.56-0.59-2.18-1.19
		c-0.26-0.54-0.01-0.93,0.43-1.19c1.08-0.63,2.08-1.38,3.09-2.11C89.58,47.23,90.7,47.42,91.68,48.11z"/>
	<path class="st71" d="M110.4,40.67c-0.4-0.08-0.8-0.16-1.2-0.24c-1.32,0.52-2.48-0.21-3.67-0.53c-0.95-0.26-1.89-0.58-2.86-0.82
		c-0.82-0.33-1.82-0.2-2.47-0.96c-0.07-0.94,0.66-1.18,1.31-1.5c1.65,0.05,3.08,0.89,4.63,1.3c0.57,0.15,1.12,0.36,1.67,0.59
		c0.66,0.3,1.36,0.46,2.03,0.73c0.34,0.14,0.83,0.14,0.83,0.7C110.36,40.11,110.41,40.4,110.4,40.67z"/>
	<path class="st21" d="M86.88,53.38c-1.03-0.36-2.02-0.82-3.12-0.96c-0.77,0.11-1.37-0.17-1.83-0.79c-0.13-0.66,0.17-1.01,0.8-1.13
		c0.57-0.01,1.12,0.16,1.68,0.26c0.74,0.24,1.49,0.49,2.22,0.75c0.23,0.23,0.78,0.12,0.72,0.66C86.8,52.43,86.88,52.92,86.88,53.38z
		"/>
	<path class="st72" d="M110.65,39.94c-0.96-0.4-1.92-0.8-2.89-1.2c0.26-0.31,0.64-0.33,0.99-0.43c0.26-0.04,0.49,0,0.68,0.21
		c1.02,0.52,2,1.14,3.12,1.43c-0.18,0.64-0.59,0.35-0.96,0.23C111.25,40.22,110.94,40.11,110.65,39.94z"/>
	<path class="st73" d="M111.6,40.19c0.33-0.04,0.7,0.11,0.96-0.23c0.92,0.02,1.53,0.81,2.4,0.96c0.02,0.45-0.21,0.38-0.48,0.24
		C113.43,41.1,112.46,40.8,111.6,40.19z"/>
	<path class="st74" d="M87.35,52.19c-0.24-0.16-0.48-0.31-0.72-0.47c0.1-0.2,0.35-0.11,0.49-0.25c0.75-0.04,1.28,0.47,1.92,0.72
		c0.01,0.4-0.2,0.4-0.48,0.25C88.16,52.36,87.69,52.58,87.35,52.19z"/>
	<path class="st21" d="M88.56,52.43c0.2-0.01,0.38-0.05,0.48-0.25c0.48,0.16,0.96,0.32,1.44,0.48c-0.04,0.16,0.62,0.43-0.02,0.46
		C89.77,53.15,89.1,52.93,88.56,52.43z"/>
	<path class="st75" d="M114.48,41.15c0.2-0.01,0.38-0.04,0.48-0.24c0.72,0.03,1.25,0.56,1.92,0.72c0.06,0.21,0.02,0.33-0.24,0.24
		C115.82,41.92,115.15,41.52,114.48,41.15z"/>
	<path class="st76" d="M116.64,41.87c0.08-0.08,0.16-0.16,0.24-0.24c0.64,0.16,1.27,0.35,1.67,0.94
		C117.89,42.39,117.21,42.27,116.64,41.87z"/>
	<path class="st77" d="M148.08,39.71c-0.81-1.89-1.14-3.95-2.16-5.76c0.4-0.4,0.89-0.62,1.44-0.72c0.98,0.11,1.9-0.24,2.79-0.51
		c3-0.88,6.04-1.68,8.86-3.09c0.49-0.24,1.02-0.43,1.54-0.58c0.77-0.23,0.29,0.71,0.73,0.82c0.16,1.68,0.32,3.36,0.48,5.04
		c-1.56-0.12-2.74,0.92-4.11,1.37c-2.63,0.87-5.25,1.76-7.99,2.26C148.99,38.66,148.19,38.76,148.08,39.71z"/>
	<path class="st2" d="M122.14,40.9c0.57-0.67,1.38-0.93,2.17-1.21C123.77,40.41,122.96,40.66,122.14,40.9z"/>
	<path class="st78" d="M124.56,35.86c-1.62,0.55-3.11,1.4-4.6,2.21c-1.02,0.55-1.96,0.62-3.04,0.33c-1.67-0.45-3.35-0.9-5.08-1.11
		c-0.89,0.03-1.78-0.02-2.6-0.42c-0.27-0.13-0.79-0.16-0.42-0.7c1.85-0.84,3.85-0.91,5.81-1.12c2.96-0.33,5.94-0.29,8.92-0.21
		c0.48,0.01,0.95,0.07,1.37,0.35C125.29,35.68,124.91,35.77,124.56,35.86z"/>
	<path class="st49" d="M124.56,35.86c0.16-0.16,0.32-0.32,0.48-0.48c1.16-1.01,2.64-1.43,3.95-2.18c0.41-0.24,0.85-0.43,1.28-0.65
		c0.61-0.26,1.17-0.64,1.83-0.79c0.38-0.06,0.76-0.06,1.15-0.05c0.92,0.1,1.8,0.38,2.68,0.61c0.35,0.09,0.84,0.09,0.87,0.65
		c-2.26,1.32-4.51,2.65-6.96,3.62c-0.6-0.64-1.34-0.49-2.09-0.4C126.67,36.31,125.6,36.19,124.56,35.86z"/>
	<path class="st79" d="M108.72,36.35c0.98,0.52,2.11,0.56,3.12,0.96c-0.79,0.43-2.03-0.03-2.41,1.22c-0.24-0.01-0.47-0.01-0.71-0.02
		c-0.36,0.25-0.72,0.05-1.01-0.08c-1.12-0.49-2.22-1.05-3.37-1.46c-0.3-0.11-0.54-0.33-0.59-0.69c0.04-0.71,0.51-0.9,1.12-0.93
		C106.17,35.59,107.55,35.58,108.72,36.35z"/>
	<path class="st78" d="M82.08,51.7c0.56,0.24,1.12,0.48,1.68,0.72c0.32,0.86-0.33,1.28-0.87,1.61c-2.12,1.3-4,2.89-5.83,4.57
		c-0.62,0.57-1.02,1.19-1.22,1.97c-1.31-0.4-2.6-0.84-3.84-1.42c-0.21-0.61,0.23-0.97,0.58-1.33c0.94-0.96,1.84-1.97,2.94-2.76
		c1.68-1.2,3.15-2.65,4.72-3.98C80.97,50.92,81.57,51.18,82.08,51.7z"/>
	<path class="st80" d="M80.16,51.23c-0.94,1.39-2.29,2.33-3.57,3.35c-1.7,1.35-3.43,2.68-4.59,4.58c-0.72-0.17-1.44-0.34-2.15-0.51
		c-0.39,0.07-0.71-0.02-0.88-0.42c-0.11-0.61,0.32-0.94,0.67-1.31c1.54-1.61,3.24-3.03,4.99-4.39c0.94-0.73,1.63-1.74,2.65-2.37
		c0.37-0.11,0.7,0.02,1.05,0.12C78.98,50.49,79.75,50.52,80.16,51.23z"/>
	<path class="st14" d="M69.12,58.18c0.24,0.15,0.48,0.31,0.72,0.46c0.2,0.37,0.12,0.72-0.16,0.97c-1.11,1-2.18,2.07-2.97,3.32
		c-0.6,0.95-1.52,0.3-2.15,0.76c-0.08,0-0.16,0.01-0.24,0.01c-1.04,0.07-1.94-0.41-2.88-0.71c-0.1-0.05-0.19-0.13-0.27-0.21
		c0.66-1.14,1.68-1.94,2.6-2.84c0.31-0.31,0.67-0.55,0.93-0.91c0.45-0.61,1.14-1.1,1.09-1.99c0.24-0.07,0.47-0.06,0.71-0.01
		C67.38,57.4,68.4,57.45,69.12,58.18z"/>
	<path class="st81" d="M55.44,47.38c-1.78,0.58-3.24,1.79-4.96,2.48c-0.51,0.21-0.95,0.58-1.52,0.64c1.43-2.13,3.2-4.06,4.02-6.56
		c0.13-0.38,0.35-0.72,0.06-1.11c0.81-0.39,1.5,0.19,2.24,0.31c0.46,0.07,0.9,0.26,1.36,0.37c0.93,0.33,1.91,0.5,2.83,0.87
		c0.68,0.27,0.78,0.73,0.13,1.08C58.26,46.19,56.97,47.06,55.44,47.38z"/>
	<path class="st82" d="M56.64,43.78c-1.2-0.32-2.4-0.64-3.6-0.95c-2.15-0.67-4.41-1-6.48-1.93c0.8-0.33,1.6-0.66,2.4-0.99
		c1.67,0.15,3.13,1.07,4.79,1.26c1.35,0.11,2.62,0.44,3.71,1.28C57.52,43.11,57.07,43.44,56.64,43.78z"/>
	<path class="st83" d="M25.44,67.56c-0.44-0.59-0.16-1.28-0.24-1.91c-0.03-0.57,0.03-0.98,0.8-1c3.35-0.08,6.57-0.97,9.71-1.98
		c1.71-0.55,3.3-1.55,4.86-2.48c1.15-0.69,2.17-1.58,3.36-2.24c0.59,1.54,0.4,3.11,0.15,4.68c-0.09,0.15-0.22,0.19-0.39,0.12
		c-0.09-0.61,0.32-1.44-0.25-1.78c-0.61-0.36-1.12,0.41-1.64,0.72c-4.04,2.34-8.2,4.28-12.95,4.7c-0.82,0.07-1.65,0.25-2.48,0.19
		C25.6,66.52,25.36,66.87,25.44,67.56z"/>
	<path class="st84" d="M43.92,62.74c0-1.6,0-3.2,0-4.8c0.01-0.2,0.05-0.38,0.24-0.48c0,0-0.01,0.02-0.01,0.02
		c0.38,0.38,0.37,0.88,0.32,1.34c-0.11,1.04,0.02,1.89,1.27,2.08c0.31,1.05,0.23,2.1,0.06,3.16c-0.5,0.66-1.03,1.23-1.97,0.79
		C43.83,64.15,43.69,63.44,43.92,62.74z"/>
	<path class="st9" d="M48,58.66c0-0.32,0-0.64,0.31-0.85c1.46-0.98,2.44-2.46,3.76-3.59c0.4-0.34,0.67-0.78,0.73-1.32
		c0.58-0.04,1.1,0.24,1.67,0.28c0.56,0.18,1.17,0.22,1.68,0.56c0.09,0.08,0.16,0.18,0.2,0.3c0.17,0.68-0.26,1.11-0.67,1.55
		c-1.36,1.48-3.02,2.66-4.36,4.17c-0.96,0.2-1.74-0.41-2.63-0.56C48.39,59.12,48.11,59,48,58.66z"/>
	<path class="st85" d="M54.46,53.39c-0.6-0.01-1.24,0.13-1.66-0.48c-0.48-0.17-1.02-0.13-1.44-0.48c0.08,0,0.16-0.01,0.24-0.01
		c1.77-1.28,3.73-2.22,5.7-3.13c1.34-0.51,2.56-1.27,3.91-1.76c0.37-0.14,0.71-0.39,1.13-0.24c0.51,1.02-0.45,1.27-0.96,1.67
		c-0.53,0.43-0.36,0.61,0.11,0.84c-0.09,0.67-0.76,0.63-1.14,0.94C58.4,51.65,56.53,52.73,54.46,53.39z"/>
	<path class="st85" d="M48,58.66c0.24,0.08,0.48,0.16,0.72,0.25c0.55,0.84,0.71,1.76,0.62,2.75c-0.88,0.46-1.61,1.13-2.47,1.62
		c-0.36,0.2-0.79,0.68-1.15-0.04c-0.07-0.94,0.16-1.9-0.17-2.82c-0.07-0.49-0.03-0.98-0.05-1.47c0-0.37,0.08-0.71,0.33-0.99
		C46.56,58.19,47.28,58.42,48,58.66z"/>
	<path class="st86" d="M45.83,57.95c0,0.32,0,0.64,0,0.95c-0.25,0.45-0.06,0.94-0.12,1.41c0,0.18,0.02,0.36-0.12,0.51
		c-1.44,0.29-1.44,0.29-1.44-1.32c0-0.67,0-1.35,0-2.02C44.72,57.64,45.27,57.79,45.83,57.95z"/>
	<path class="st87" d="M56.4,37.06c3.54-1.25,7.08-2.5,10.63-3.74c0.44-0.16,0.91-0.24,1.37-0.35c0.08,0.88-0.66,1.24-1.16,1.67
		c-1.83,1.6-3.38,3.46-5.09,5.17c-0.32,0.32-0.61,0.63-1.1,0.65c-1.57-0.18-3.08-0.58-4.6-0.99c-0.41-0.18-0.85-0.17-1.28-0.19
		c-0.26-0.02-0.49-0.12-0.69-0.29c-0.48-0.07-0.89-0.29-1.29-0.63C54.28,37.92,55.34,37.49,56.4,37.06z"/>
	<path class="st41" d="M54.48,38.99c0.23,0,0.46,0,0.69,0c0.36,0.19,0.81,0.1,1.16,0.32c1.32,0.57,2.91,0.46,4.01,1.58
		c0.23,1.12-0.58,1.61-1.32,2.14c-0.62,0.07-1.19-0.01-1.65-0.47c-1.21-0.46-2.42-0.92-3.63-1.38
		C53.99,40.45,54.24,39.72,54.48,38.99z"/>
	<path class="st88" d="M57.38,42.55c0.55,0.1,1.09,0.19,1.64,0.29c1.27,0.08,2.42,0.55,3.56,1.05c0.09,0.08,0.13,0.19,0.14,0.31
		c-1.76,1.81-3.54,3.6-5.36,5.35c-1.98,0.84-3.73,2.14-5.76,2.88c0.57-1.3,1.84-2.03,2.63-3.17c0.42-0.61,0.89-1.19,1.21-1.87
		c1.47-0.8,2.94-1.6,4.59-2.5c-1.26-0.41-2.33-0.76-3.39-1.1C56.62,43.21,57.21,43.01,57.38,42.55z"/>
	<path class="st89" d="M61.2,40.18c0.67-0.18,0.93-0.83,1.36-1.27c1.97-1.96,3.9-3.96,5.84-5.94c0.32-0.16,0.64-0.32,0.96-0.48
		c1.68-0.56,3.36-1.11,5.04-1.67c0.61,0.15,1.22,0.28,1.74,0.68c0.25,0.64-0.2,1-0.61,1.28c-3.61,2.46-7,5.17-10.1,8.25
		c-0.14,0.14-0.32,0.24-0.51,0.3c-1.27-0.07-2.55-0.1-3.68-0.79C61.13,40.43,61.12,40.31,61.2,40.18z"/>
	<path class="st88" d="M76.08,31.55c-0.66,0-1.2-0.29-1.68-0.72c1.28-0.49,2.56-0.97,3.84-1.46c0.95-0.23,1.82,0.02,2.64,0.5
		c-0.68,1.06-1.8,1.6-2.75,2.35C77.33,32.35,76.64,32.13,76.08,31.55z"/>
	<path class="st90" d="M94.56,23.61c0.32-0.08,0.64-0.15,0.96-0.23c0.08,0.48-0.36,0.56-0.61,0.77c-2.13,1.72-4.55,3.02-6.79,4.58
		c-0.68,0.48-1.36,0.94-1.96,1.52c-0.17,0.08-0.35,0.12-0.53,0.13c-1.07-0.29-2.15-0.54-3.06-1.23c-0.6-0.03-1.15-0.24-1.81-0.58
		c1.88-0.71,3.64-1.39,5.41-2.06c1.6-0.56,3.2-1.12,4.8-1.68C92.16,24.42,93.36,24.02,94.56,23.61z"/>
	<path class="st91" d="M78.24,32.03c0.66-0.99,1.73-1.49,2.64-2.17c0.16,0,0.32,0,0.48,0c1.09,0.26,2.3,0.12,3.17,1.04
		c-0.18,0.58-0.79,0.7-1.19,1.04c-0.51,0.43-1.01,0.83-1.36,1.4c-0.93,0.14-1.73-0.41-2.62-0.51C78.89,32.69,78.3,32.72,78.24,32.03
		z"/>
	<path class="st92" d="M84.48,31.07c-0.95-0.64-2.13-0.66-3.12-1.2c0.54-0.01,1.14,0.08,1.2-0.72c1.11,0.11,2.06,0.72,3.12,0.96
		c0.71,0.78-0.04,0.91-0.51,1.17C84.91,31.31,84.66,31.28,84.48,31.07z"/>
	<path class="st93" d="M136.8,32.97c-1.15-0.49-2.38-0.71-3.6-0.95c-0.36-0.25-0.77-0.04-1.15-0.15c-0.1-0.07-0.14-0.17-0.14-0.29
		c0.28-0.68,1.01-0.66,1.52-0.99c1.81,0.28,3.53,0.91,5.28,1.42C138.16,32.5,137.51,32.81,136.8,32.97z"/>
	<path class="st94" d="M145.68,23.87c0.89,0.13,1.8,0.11,2.65,0.46c-0.65-0.04-1.25,0.13-1.83,0.44c-2.5,1.33-5.11,2.43-7.54,3.89
		c-0.82,0.14-1.59-0.27-2.4-0.24c-2.07-0.19-4.08-0.63-6.02-1.4c-0.06-0.14-0.04-0.26,0.05-0.38c0.41-0.36,0.94-0.43,1.45-0.5
		c3.32-0.43,6.64-0.82,9.94-1.39C143.23,24.54,144.45,24.19,145.68,23.87z"/>
	<path class="st95" d="M130.56,26.98c2.03,0.33,4.06,0.71,6,1.44c-0.71,0.87-1.77,0.51-2.65,0.67c-0.72,0.13-1.48,0.3-2.23,0.28
		c-0.66-0.01-0.41,0.4-0.39,0.71c-1.13,0.11-2.1-0.64-3.22-0.62c-1.52-0.33-3.06-0.63-4.4-1.5c-0.25-0.47,0.01-0.7,0.42-0.76
		c2.05-0.27,4.12-0.29,6.17-0.4C130.37,26.8,130.47,26.91,130.56,26.98z"/>
	<path class="st96" d="M128.16,29.15c1.09,0.13,2.14,0.43,3.12,0.94c0.72,0.17,1.43,0.34,2.15,0.51c-0.31,0.57-0.96,0.63-1.44,0.95
		c-0.4,0.35-0.81,0.21-1.23,0.03c-0.32-0.19-0.68-0.2-1.05-0.2c-1.25-0.16-2.46-0.44-3.64-0.88c-0.1-0.07-0.17-0.17-0.2-0.29
		c0.02-0.55,0.46-0.54,0.83-0.64C127.2,29.43,127.75,29.54,128.16,29.15z"/>
	<path class="st58" d="M115.92,18.13c1.69,0.66,3.51,0.77,5.25,1.19c0.18,0.04,0.35,0.15,0.52,0.22c-0.42,0.49-1,0.64-1.59,0.76
		c-3.64,0.72-7.26,1.61-10.9,2.32c-1.21,0.24-2.41,0.58-3.53,1.13c-0.53,0.15-1.05-0.04-1.57-0.04c-0.69-0.17-1.48-0.05-1.99-0.72
		c-0.13-0.53,0.15-0.86,0.58-1.03c0.69-0.28,1.34-0.7,2.11-0.79c3.05,0.69,5.17-1.57,7.72-2.44c0.8-0.28,1.51-0.89,2.44-0.62
		C115.28,18.11,115.6,18.12,115.92,18.13z"/>
	<path class="st97" d="M114.97,18.1c-1.76,0.39-3.2,1.52-4.88,2.1c-0.45,0.15-0.89,0.36-1.27,0.63c-1.21,0.88-2.54,0.91-3.93,0.64
		c-0.61-0.3-1.44,0.26-1.94-0.49c2.48-1.04,5.11-1.61,7.68-2.37c1.02-0.3,2.01-0.74,3.1-0.73C114.14,17.87,114.61,17.73,114.97,18.1
		z"/>
	<path class="st98" d="M102.95,20.98c0.66,0.12,1.34,0.15,1.94,0.49c-0.94,0.38-2.1,0.34-2.65,1.45c-1.25,0.24-2.35-0.13-2.87-0.96
		c0,0-0.01,0-0.01,0C100.56,21.62,101.75,21.3,102.95,20.98z"/>
	<path class="st99" d="M105.6,23.61c1.04-0.96,2.44-1.07,3.71-1.37c3.19-0.76,6.42-1.37,9.63-2.05c0.92-0.2,1.84-0.43,2.76-0.64
		c0.39,0.01,0.79,0.02,1.18,0.03c0.32,0.4,0.91,0.03,1.23,0.44c-2.2,0.57-4.27,1.5-6.34,2.42c-2.05,0.9-4.17,1.63-6.12,2.74
		c-0.37,0.14-0.74,0.01-1.1-0.02c-1.07-0.04-2.03-0.55-3.06-0.73C106.8,24.29,106.06,24.25,105.6,23.61z"/>
	<path class="st100" d="M111.61,25.04c0.93-1.05,2.3-1.27,3.5-1.81c1.95-0.89,3.96-1.63,5.91-2.53c1-0.46,2-0.76,3.1-0.69
		c0.78,0.09,1.57,0.18,2.35,0.27c0.16,0.1,0.32,0.2,0.54,0.34c-1.59,0.85-3.33,1.35-4.84,2.29c-1.15,0.88-2.56,1.24-3.82,1.9
		c-0.83,0.39-1.61,0.89-2.5,1.12C114.29,26.34,112.86,26.07,111.61,25.04z"/>
	<path class="st101" d="M139.43,22.67c0.38,0.49,1.08-0.01,1.45,0.47c-0.54,0.68-1.33,0.88-2.11,0.98
		c-4.13,0.55-8.25,1.27-12.44,1.29c-0.65,0-1.25,0.24-1.89,0.22c-0.34,0.02-0.69,0.01-1.01-0.13c-0.48-0.2-0.37-0.49-0.08-0.78
		c2.45-1.23,4.92-2.41,7.44-3.49c0.65-0.01,1.26,0.35,1.92,0.23C134.92,22.07,137.17,22.42,139.43,22.67z"/>
	<path class="st102" d="M118.31,24.57c1.24-0.66,2.48-1.31,3.85-1.66c0.04,0.34,0.23,0.56,0.56,0.4c0.65-0.32,1.24-0.06,1.85,0.08
		c-0.12,0.81-0.98,0.76-1.4,1.21c-0.81,0.51-1.66,0.92-2.63,1.01c-0.58,0.01-1.15-0.11-1.7-0.26
		C118.47,25.25,118.05,25.12,118.31,24.57z"/>
	<path class="st103" d="M123.1,24.34c0.49-0.32,0.98-0.63,1.47-0.95c1.44-0.48,2.74-1.27,4.08-1.95c0.72-0.37,1.39-0.55,2.15-0.21
		c-0.15,0.38-0.51,0.49-0.82,0.64c-2.12,0.99-4.25,1.97-6.37,2.95C123.43,24.67,123.18,24.59,123.1,24.34z"/>
	<path class="st104" d="M86.16,30.12c0.2-0.38,0.37-0.75,0.78-1.01c2.91-1.84,5.83-3.66,8.58-5.72c0.98-0.86,2.07-0.26,3.11-0.24
		c0.27,0.31,0.89-0.21,1.02,0.43c-1.8,1.5-3.98,2.43-5.85,3.84c-0.82,0.62-1.66,1.22-2.41,1.92c-0.94,0.78-2.17,1.09-3.12,1.85
		C87.41,31.13,86.61,30.96,86.16,30.12z"/>
	<path class="st105" d="M99.61,23.62c-0.32-0.16-0.65-0.32-0.97-0.47c0.45-0.1,0.88-0.18,0.43-0.8c-0.23-0.32,0.07-0.36,0.3-0.4
		c0.82,0.73,1.94,0.57,2.87,0.96c0.59,0.35,1.27,0.34,1.92,0.48c-0.11,1.22-1.12,0.91-1.84,1.09c-0.25,0.02-0.49-0.05-0.72-0.13
		C100.95,24.05,100.17,24.14,99.61,23.62z"/>
	<path class="st106" d="M61.44,62.77c0.97,0.28,1.98,0.44,2.88,0.94c-1.2,1.4-2.37,2.83-3.61,4.19c-2.24,2.47-4.72,4.7-7.26,6.85
		c-0.66,0.56-1.47,0.95-2.16,1.48c-0.74,0.57-0.95,0.33-0.9-0.49c0.01-0.21-0.06-0.39-0.23-0.52c0-0.4,0-0.8,0-1.2
		c-0.18-0.26-0.26-0.53-0.14-0.84c1.61-0.65,2.83-1.84,4.13-2.93c2.13-1.8,4.03-3.82,6.01-5.78C60.67,63.96,61.13,63.42,61.44,62.77
		z"/>
	<path class="st107" d="M50.16,73.06c0,0.32,0,0.64,0,0.96c-0.82-0.52-1.42,0.08-2,0.48c-0.61,0.42-1.17,0.89-1.85,1.19
		c0-0.23,0.01-0.47,0.01-0.7c-0.35-2.27,0.86-4.06,3.03-4.49c0.25-0.05,0.47-0.01,0.67,0.16C50.28,71.45,50.66,72.23,50.16,73.06z"
		/>
	<path class="st108" d="M43.92,62.74c0,0.72,0,1.44,0,2.16c0.59,0.84,0.23,1.78,0.28,2.62c0.41-0.42,0.87-0.71,1.52-0.39
		c0.33,0.83,0.28,1.67,0.04,2.51c-0.58,0.6-1.21,1.05-2.08,0.54c0-1.2,0-2.4,0-3.6c0-1.04,0-2.08,0-3.12c0-0.24,0-0.48,0-0.72
		C43.76,62.74,43.84,62.74,43.92,62.74z"/>
	<path class="st109" d="M43.68,70.18c0.72,0.15,1.26-0.39,1.92-0.48c0.25,0.14,0.39,0.37,0.47,0.64c0.1,0.61,0.21,1.22-0.23,1.76
		c-0.74,0.28-1.3,0.96-2.16,0.96C43.68,72.1,43.68,71.14,43.68,70.18z"/>
	<path class="st110" d="M124.32,25.31c5.54-0.56,11.16-0.59,16.57-2.16c1.44,0.16,2.87,0.32,4.31,0.49
		c0.11,0.19,0.29,0.23,0.48,0.24c-0.86,0.9-2.06,0.99-3.16,1.16c-3.98,0.63-7.97,1.15-11.96,1.71c-2.13,0.28-4.07-0.51-6.05-1.05
		C124.35,25.66,124.29,25.48,124.32,25.31z"/>
	<path class="st111" d="M45.84,72.1c0-0.64,0-1.28-0.01-1.91c-0.24-1.03-0.04-2.08-0.12-3.11c1.1-1,2.1-2.19,3.78-2.22
		c0.28,0.31,0.37,0.69,0.46,1.08c0.06,0.59,0.12,1.18-0.1,1.75c-0.58,0.67-1.35,1.09-2.07,1.55c-0.85,0.54-1.53,1.11-1.42,2.24
		c0.02,0.23-0.07,0.47-0.28,0.63C46,72.11,45.92,72.11,45.84,72.1z"/>
	<path class="st112" d="M46.08,72.11c0.01-2.22,1.06-3.48,3.6-4.33c0.37,0.23,0.47,0.61,0.53,1c0.04,0.46,0.05,0.91-0.01,1.37
		c-0.04,0.2-0.12,0.38-0.28,0.51c-1.13,0.11-1.81,1.05-2.76,1.5c-1.33,0.63-0.7,1.84-0.85,2.82C45.84,74.06,46.19,73.07,46.08,72.11
		z"/>
	<path class="st113" d="M102.72,38.75c2.2,0.42,4.22,1.52,6.48,1.68c-0.81,1.12-2.17,1-3.28,1.41c-0.35,0.13-0.78,0.11-1.13,0.32
		c-1.89,1.16-4.06,1.69-6.04,2.69c-1.73,0.88-3.38,1.92-5.15,2.72c-0.63,0.28-1.22,0.56-1.91,0.54c-1.12-0.24-2.24-0.48-3.36-0.72
		c-0.41,0-0.9,0.15-1-0.49c3.11-1.65,5.99-3.68,9.18-5.21C98.56,40.69,100.83,40.1,102.72,38.75z"/>
	<path class="st49" d="M87.36,46.9c0.21,0.39,0.75,0.09,0.96,0.48c-0.6,1.05-1.7,1.46-2.65,2.03c-0.44,0.26-0.77,0.52-0.71,1.08
		c-0.04,0.04-0.09,0.08-0.13,0.11c-1.22-0.08-2.15-0.81-3.11-1.45c-0.3-0.39-0.19-0.76,0.12-1.05c0.89-0.82,1.79-1.63,3-1.96
		C85.73,46.22,86.63,46.27,87.36,46.9z"/>
	<path class="st114" d="M87.12,51.47c-0.1,0.2-0.29,0.23-0.49,0.25c-0.77-0.1-1.5-0.31-2.17-0.72c0.13-0.2,0.38-0.26,0.5-0.47
		c0,0-0.01-0.04-0.01-0.04C85.68,50.81,86.4,51.14,87.12,51.47z"/>
	<path class="st115" d="M87.36,46.9c-0.9-0.03-1.72-0.54-2.64-0.48c-0.06-0.06-0.08-0.13-0.08-0.21c0-0.08,0.01-0.12,0.02-0.12
		c1.22-1.61,3.03-2.42,4.71-3.37c2.66-1.5,5.16-3.28,7.93-4.6c0.36-0.17,0.54-0.59,0.93-0.73c0.77-0.03,1.46,0.18,2.08,0.62
		c0.74,0.44,1.61,0.45,2.4,0.72c-0.77,1.43-2.36,1.52-3.61,2.07c-1.48,0.64-2.81,1.56-4.31,2.12c-2.47,0.92-4.33,2.86-6.74,3.86
		C87.84,46.87,87.59,46.87,87.36,46.9z"/>
	<path class="st116" d="M103.91,36.37c1.6,0.71,3.21,1.42,4.81,2.13c-0.25,0.36-0.63,0.21-0.96,0.24c-2.11-0.53-4.09-1.5-6.23-1.93
		c-0.53-0.12-1.18,0.05-1.51-0.59c0.05-0.25,0.18-0.48,0.09-0.77c-0.14-0.44,0.1-0.64,0.54-0.61
		C101.68,35.46,102.94,35.61,103.91,36.37z"/>
	<path class="st106" d="M100.08,36.11c0.48,0.24,0.97,0.47,1.46,0.71c-0.43,0.38-1.04,0.58-1.21,1.21
		c-0.78,0.09-1.43-0.38-2.16-0.48c-0.79,0.42-1.42,0.2-1.97-0.45C97.07,35.79,98.87,35.33,100.08,36.11z"/>
	<path class="st117" d="M80.16,51.23c-0.64-0.24-1.28-0.48-1.92-0.72c-0.27-0.83,0.25-1.03,0.9-1.14c0.5,0.06,1,0.11,1.49,0.22
		c0.71,0.4,1.77,0.18,2.17,1.16c-0.62,0.03-0.75,0.44-0.72,0.96C81.42,51.63,80.85,51.19,80.16,51.23z"/>
	<path class="st118" d="M82.8,50.74c-0.63-0.54-1.54-0.42-2.17-0.95c0.12-0.35,0.22-0.71,0.46-1c0.32-0.11,0.51,0.15,0.74,0.27
		c1.07,0.43,1.99,1.18,3.13,1.47c0.26,0.61-0.23,0.42-0.5,0.47C83.89,51.06,83.35,50.88,82.8,50.74z"/>
	<path class="st119" d="M108.72,36.35c-1.28-0.24-2.56-0.48-3.84-0.72c-0.16-0.19-0.64-0.06-0.51-0.53
		c0.37-0.78,1.15-0.95,1.85-1.19c2.54-0.88,5.16-1.34,7.84-1.51c4.82-0.3,9.64-0.27,14.46-0.24c0.65,0,1.39-0.16,1.81,0.6
		c-1.68,1.04-3.45,1.91-5.28,2.64c-3.85-0.37-7.69-0.29-11.54,0.15C111.88,35.73,110.33,36.15,108.72,36.35z"/>
	<path class="st120" d="M130.32,32.75c-0.43-0.27-0.91-0.24-1.39-0.24c-3.36,0-6.72-0.12-10.08,0.04c-3.09,0.15-6.21,0.13-9.26,0.73
		c-1.55,0.31-3.03,0.94-4.53,1.45c-0.31,0.1-0.52,0.36-0.66,0.66c-1.07,0.29-2.03,0.05-2.9-0.62c-0.12-0.34,0.1-0.56,0.35-0.67
		c1.97-0.85,3.78-2.04,5.87-2.62c0.84,0.02,1.49-0.74,2.36-0.59c4.91-0.36,9.82-0.71,14.75-0.64c0.39,0.01,0.8-0.09,1.18,0.1
		c1.28,0.24,2.55,0.48,3.83,0.73c0.26,0.33,0.69-0.05,0.96,0.24c0.37,0.23,0.77,0.27,1.19,0.24c0,0.08,0.01,0.15,0.01,0.23
		c0.08,0.05,0.11,0.11,0.08,0.16c-0.03,0.05-0.06,0.08-0.08,0.08C131.44,32.26,130.95,32.66,130.32,32.75z"/>
	<path class="st119" d="M132,32.02c0-0.08,0-0.16,0-0.24c0.41,0.06,0.86-0.14,1.2,0.24C132.8,32.02,132.4,32.02,132,32.02z"/>
	<path class="st121" d="M101.51,34.66c0.92,0.42,1.93,0.44,2.89,0.72c0.2,0.01,0.38,0.05,0.48,0.24c-0.54-0.03-0.93,0.12-0.97,0.74
		c-1.19-0.31-2.42-0.52-3.33-1.46C100.82,34.58,101.11,34.39,101.51,34.66z"/>
	<path class="st122" d="M69.12,58.18c-0.91-0.25-1.82-0.47-2.65-0.93c-0.24-0.75,0.25-1.16,0.74-1.59c2.06-1.79,4.14-3.55,6.22-5.3
		c0.4-0.34,0.69-0.75,1.01-1.15c0.55-0.18,1.02,0.14,1.52,0.26c0.47,0.21,1.07,0.21,1.32,0.79c-1.32,1.7-3.13,2.88-4.7,4.3
		C71.35,55.68,69.87,56.59,69.12,58.18z"/>
	<path class="st123" d="M77.28,50.26c-0.48-0.16-0.96-0.32-1.44-0.48c-0.34-0.58-0.16-1,0.39-1.32c0.52-0.08,1.01,0.06,1.51,0.16
		c0.5,0.28,1.28,0.13,1.46,0.93c-0.57,0.07-0.89,0.39-0.96,0.96C77.92,50.42,77.6,50.34,77.28,50.26z"/>
	<path class="st48" d="M49.92,70.67c0-0.16,0-0.32,0-0.48c0.58,0.16,1.05-0.03,1.51-0.4c2.12-1.7,4.1-3.55,5.92-5.57
		c0.69-0.77,1.34-1.59,2.26-2.12c0.65-0.07,1.23,0.02,1.59,0.64c0.08,0.01,0.16,0.02,0.24,0.03c0.3,0.62-0.17,0.95-0.51,1.32
		c-1.21,1.31-2.4,2.69-3.72,3.84c-1.95,1.71-3.79,3.59-5.95,5.06c-0.35,0.24-0.71,0.36-1.1,0.08
		C50.19,72.25,49.78,71.49,49.92,70.67z"/>
	<path class="st15" d="M61.2,62.74c-0.55-0.21-1.08-0.47-1.69-0.47c-0.68,0.17-1.27-0.15-1.87-0.37c-0.09-0.08-0.15-0.17-0.18-0.29
		c0-0.59,0.45-0.9,0.81-1.26c0.94-0.97,1.91-1.91,2.86-2.87c0.43-0.44,1.08-0.85,0.14-1.45c-0.22-0.14,0.02-0.33,0.2-0.43
		c0.23-0.07,0.46-0.06,0.69-0.01c0.5,0.16,1.01,0.32,1.51,0.48c0.68,0.42,1.72,0.18,2.11,1.14c0.23,0.31,0.28,0.59,0,0.94
		C64.44,59.87,62.8,61.28,61.2,62.74z"/>
	<path class="st94" d="M65.78,57.21c-0.73-0.31-1.46-0.63-2.19-0.94c1.9-1.78,3.83-3.55,5.84-5.2c0.98-0.8,2.03-1.52,2.79-2.56
		c0.36-0.18,0.69-0.04,1.03,0.06c0.42,0.19,0.95,0.21,1.15,0.74c0.1,1.23-1.06,1.61-1.73,2.1c-2,1.49-3.67,3.34-5.69,4.79
		c-0.28,0.2-0.35,0.69-0.51,1.05C66.24,57.24,66.01,57.23,65.78,57.21z"/>
	<path class="st124" d="M45.59,67.06c-0.18,0.09-0.36,0.17-0.53,0.27c-0.89,0.49-1.28,0.3-1.16-0.77c0.06-0.55,0.01-1.11,0.01-1.66
		c0.63-0.08,1.11-0.48,1.67-0.72C46.15,65.14,46.04,66.1,45.59,67.06z"/>
	<path class="st125" d="M45.59,67.06c0-0.96,0-1.92,0-2.88c0-1.12,0.01-2.24,0.01-3.36c0-0.16,0-0.32,0-0.47
		c0.07-0.11,0.15-0.11,0.23-0.01c0,1.04,0,2.09,0.01,3.13c0.56,1.12,0.56,2.24,0,3.36c0,1.12,0,2.24,0,3.36
		c-0.19-0.11-0.23-0.29-0.24-0.48C45.6,68.82,45.6,67.94,45.59,67.06z"/>
	<path class="st11" d="M51.36,59.64c0.41-0.94,1.22-1.52,1.94-2.2c1.06-1.01,2.47-1.74,2.87-3.33c1.15-0.34,2.1,0.07,2.98,0.77
		c0.26,0.72-0.28,1.1-0.67,1.53c-1.33,1.43-2.88,2.65-4,4.28c-0.43,0.22-0.85,0.04-1.27-0.04C52.56,60.36,51.68,60.5,51.36,59.64z"
		/>
	<path class="st126" d="M51.36,59.64c0.58,0.41,1.27,0.5,1.92,0.72c0.26,0.32,0.08,0.61-0.12,0.84c-0.7,0.79-1.41,1.58-2.31,2.16
		c-0.55,0.35-1.09,0.46-1.57-0.12c-0.27-0.47-0.49-0.95-0.07-1.45c-0.16-0.96-0.32-1.92-0.48-2.88
		C49.6,59.15,50.48,59.39,51.36,59.64z"/>
	<path class="st127" d="M59.05,55.04c-0.87-0.58-1.89-0.74-2.89-0.93c-0.01-0.07-0.02-0.14-0.03-0.2c0.65-0.83,1.69-0.87,2.56-1.25
		c1-0.34,1.97-0.77,2.95-1.16c0.56-0.17,1.08-0.58,1.72-0.32c0.33,0.54-0.02,0.96-0.34,1.26c-1.06,0.99-2.13,1.97-3.3,2.85
		C59.46,55.31,59.23,55.25,59.05,55.04z"/>
	<path class="st128" d="M58.8,52.89c-0.89,0.34-1.78,0.67-2.67,1.01c-0.57-0.12-1.15-0.2-1.66-0.52c1.8-1.22,3.87-1.89,5.78-2.88
		c0.58,0.14,0.64,0.24,0.37,0.73C60.19,51.98,59.4,52.34,58.8,52.89z"/>
	<path class="st91" d="M57.36,49.54c1.49-2.04,3.22-3.85,5.31-5.29c1.12-0.43,2.04,0.28,3.05,0.51c0.33,0.16,0.74,0.22,0.83,0.67
		c-1.18,1.07-2.6,1.64-4.15,1.95C60.72,48.1,59.04,48.82,57.36,49.54z"/>
	<path class="st129" d="M62.4,47.38c1.37-0.64,2.73-1.29,4.1-1.93c0.78-0.41,1.45,0.04,2.14,0.28c1.17,0.86,0,0.99-0.42,1.36
		c-1.58,0.63-3.09,1.41-4.69,2c-0.68,0.27-1.2,1.05-2.09,0.69c-0.34,0.04-0.68,0.09-1.12,0.15c0.12-0.69,0.64-0.99,1.08-1.32
		C61.84,48.28,62.34,48.01,62.4,47.38z"/>
	<path class="st130" d="M61.44,49.79c0.75-0.08,1.28-0.63,1.93-0.91c0.63,0.08,0.56,0.41,0.3,0.82c-0.52,0.82-1.25,1.42-1.99,2.01
		c-0.91,0.51-1.89,0.87-2.88,1.18c0.18-0.62,0.71-0.91,1.16-1.29c0.56-0.47,0.57-0.6,0.28-1.1C60.64,50.27,61.04,50.03,61.44,49.79z
		"/>
	<path class="st131" d="M49.2,61.78c-0.08,0.51,0.16,0.96,0.24,1.44c0.33,0.56,0.49,1.12,0,1.68c-0.82,0.14-1.39,0.72-2.03,1.17
		c-0.47,0.33-0.89,0.82-1.57,0.75c0-1.12,0-2.24,0-3.36c0.91-0.3,1.64-0.89,2.33-1.51C48.51,61.64,48.8,61.51,49.2,61.78z"/>
	<path class="st84" d="M45.84,60.34c-0.08,0.01-0.15,0.01-0.23,0.01c0.07-0.48-0.2-1.02,0.23-1.44
		C45.84,59.38,45.84,59.86,45.84,60.34z"/>
	<path class="st132" d="M61.2,40.18c0,0.08,0,0.16,0,0.24c0.03,0.29,0.55,0.5,0.13,0.85c-0.46,0.17-0.79-0.04-1.09-0.35
		c-1.31-0.63-2.69-1.05-4.07-1.48c-0.05-0.21-0.02-0.33,0.23-0.22C58,39.54,59.6,39.86,61.2,40.18z"/>
	<path class="st133" d="M56.4,39.22c-0.08,0.07-0.15,0.15-0.23,0.22c-0.33-0.15-0.67-0.3-1-0.45C55.59,39.04,56.05,38.82,56.4,39.22
		z"/>
	<path class="st134" d="M60.24,40.92c0.4,0.08,0.8,0.17,1.2,0.25c0.89-0.1,1.58,0.34,2.25,0.82c0.41,0.97,0.24,1.3-1.05,2.04
		c-1.26-0.23-2.46-0.65-3.62-1.19C59.42,42.2,60.28,41.85,60.24,40.92z"/>
	<path class="st45" d="M62.64,44.03c0.15-0.72,1.51-0.83,0.96-1.91c1.34-0.28,2.39,0.39,3.46,1.02c0.39,1.01,0.04,1.49-1.31,1.85
		c-1.03-0.25-2.05-0.5-3.08-0.74C62.66,44.18,62.65,44.1,62.64,44.03z"/>
	<path class="st90" d="M78.24,32.03c0.32,0.37,0.74,0.49,1.2,0.48c0.67,0.68-0.02,1.01-0.41,1.28c-1.54,1.08-3.03,2.23-4.64,3.19
		c-0.58,0.34-1.02,0.75-1.25,1.39c-0.58,0.73-1.5,0.92-2.24,1.38c-1.21,0.59-2.4,1.24-3.63,1.8c-0.81,0.37-1.61,0.42-2.23-0.41
		c1.82-2.12,3.97-3.86,6.2-5.54c1.42-1.07,2.79-2.22,4.3-3.18c0.29-0.19,0.55-0.47,0.54-0.88C76.81,31.65,77.46,32.12,78.24,32.03z"
		/>
	<path class="st135" d="M65.04,41.14c0.91,0.45,1.77,0.43,2.68-0.12c0.98-0.59,2.05-1.04,3.08-1.56c0.36,0.72-0.29,0.97-0.66,1.31
		c-0.91,0.86-2.02,1.51-2.72,2.6c-0.17,0.07-0.33,0.05-0.47-0.07c-1.07-0.53-2.2-0.91-3.36-1.18c-0.72-0.32-1.44-0.63-2.16-0.95
		c0-0.27-0.73-0.32-0.23-0.75C62.48,40.66,63.76,40.9,65.04,41.14z"/>
	<path class="st136" d="M86.16,30.12c0.72,0.32,1.37,0.8,2.18,0.91c0.13-0.05,0.24-0.01,0.31,0.11c0.12,0.53-0.2,0.8-0.6,1.03
		c-0.51,0.16-0.97-0.05-1.44-0.18c-0.49-0.29-1.25-0.15-1.44-0.91c0.36-0.22,0.8-0.4,0.5-0.97C85.84,30.11,86,30.11,86.16,30.12z"/>
	<path class="st137" d="M85.18,31.07c0.48,0.24,0.97,0.48,1.45,0.71c-0.18,0.67-0.71,1.06-1.25,1.38
		c-3.48,2.09-6.79,4.44-10.12,6.75c-1.68,1.17-3.4,2.35-4.77,3.91c-0.21,0.27-0.38,0.59-0.71,0.75c-0.81-0.36-1.83-0.34-2.35-1.25
		c-0.27-0.48,0.08-0.73,0.38-0.98c0.75-0.62,1.53-1.22,2.28-1.85c0.33-0.27,0.7-0.53,0.71-1.03c0.71-0.43,1.53-0.64,2.16-1.2
		c0.49-0.56,1.19-0.78,1.82-1.11c2.09-1.07,4.2-2.11,6.29-3.16c0.38-0.19,0.85-0.29,1-0.77c-0.05-0.19-0.17-0.51-0.12-0.54
		c0.87-0.49,1.4-1.53,2.52-1.62C84.71,31.07,84.95,31.07,85.18,31.07z"/>
	<path class="st138" d="M82.08,33.22c0.78,0.52-0.02,0.59-0.24,0.71c-2.19,1.12-4.39,2.23-6.61,3.31c-0.75,0.36-1.44,0.86-2.27,1.02
		c0.08-0.64,0.45-1.02,0.99-1.36c1.73-1.1,3.41-2.26,5.09-3.43c0.3-0.21,0.7-0.47,0.39-0.96C80.32,32.75,81.2,32.99,82.08,33.22z"/>
	<path class="st139" d="M124.32,25.31c2.03,0.69,4.13,1.08,6.24,1.44c0,0.08,0,0.16,0,0.24c-2.1,0.36-4.23,0.4-6.35,0.47
		c-0.37,0.01-0.54,0.09-0.37,0.48c-0.67,0.48-1.29,0-1.93-0.09c-0.47-0.06-0.91-0.27-1.4-0.29c-0.56-0.01-1.07-0.17-1.55-0.46
		c-0.32-0.2-0.59-0.41-0.34-0.84c0.53-0.69,1.41-0.61,2.11-0.95c0.86-0.17,1.61-0.58,2.38-0.97c0.31,0.01,0.49,0.16,0.5,0.49
		c-0.1,0.1-0.31,0.27-0.29,0.29C123.57,25.5,123.98,25.22,124.32,25.31z"/>
	<path class="st140" d="M120.48,27.23c1.12,0.24,2.24,0.47,3.36,0.71c1.45,0.36,2.81,1.07,4.32,1.22c0.09,0.24,0.12,0.38-0.23,0.5
		c-0.63,0.21-1.35,0.04-1.93,0.46c-0.32,0.22-0.66,0.25-1.03,0.16c-2.07-0.46-4.13-0.97-6.17-1.54c-0.19-0.05-0.37-0.16-0.49-0.32
		c0.05-0.71,0.64-0.63,1.09-0.74C119.79,27.59,120.28,27.77,120.48,27.23z"/>
	<path class="st141" d="M118.31,28.19c2.52,0.81,5.08,1.46,7.69,1.92c0,0.08,0,0.15,0.01,0.23c-0.3,0.08-0.6,0.23-0.91,0.23
		c-2.53,0.06-5.06,0.03-7.59,0.21c-2.32,0.17-4.65,0.14-6.95,0.49c-0.25,0.04-0.48,0.01-0.64-0.22c0.22-0.61,0.8-0.76,1.3-0.97
		c1.83-0.77,3.65-1.59,5.49-2.34C117.3,27.7,117.85,27.76,118.31,28.19z"/>
	<path class="st93" d="M130.8,31.3c-0.29-0.19-0.79,0.43-0.96-0.24C130.17,31.1,130.55,30.95,130.8,31.3z"/>
	<path class="st142" d="M102.24,24.31c0.58-0.43,1.61,0.06,1.92-0.93c0.48,0.07,0.96,0.15,1.44,0.22c0.64,0.17,1.28,0.34,1.92,0.51
		c0.13,1.28-0.86,1.12-1.61,1.26c-0.27,0-0.53-0.03-0.79-0.09C104.17,24.93,103.07,25,102.24,24.31z"/>
	<path class="st143" d="M120.73,25.31c-0.53,0.55-1.29,0.63-1.92,0.96c-0.41,0.28-0.87,0.37-1.35,0.35
		c-1.59-0.07-3.15,0.18-4.72,0.42c-1.36,0-2.63-0.41-3.89-0.84c-0.11-0.07-0.18-0.17-0.19-0.3c0.45-0.75,1.45-0.46,1.99-1.05
		c0.32,0.06,0.65,0.13,0.97,0.19c0.6-0.09,1.05,0.34,1.54,0.53c1.98,0.8,3.5-0.42,5.17-1C118.92,25.47,119.93,25.05,120.73,25.31z"
		/>
	<path class="st54" d="M110.64,24.84c-0.27,1.06-1.25,0.7-1.92,0.94c-1.02,0.34-2.24,0.04-2.88-0.72c0.72-0.03,1.47-0.01,1.68-0.95
		C108.59,24.22,109.53,24.88,110.64,24.84z"/>
	<path class="st144" d="M99.61,23.62c0.76-0.01,1.46,0.21,2.15,0.49c0.02,0.55-0.48,0.56-0.79,0.72c-1.4,0.71-2.81,1.4-4.2,2.12
		c-1.43,0.71-2.91,1.32-4.34,2.03c-0.37,0.18-0.76,0.5-1.22,0.17c1.98-1.89,4.32-3.27,6.67-4.63C98.43,24.2,98.82,23.5,99.61,23.62z
		"/>
	<path class="st58" d="M91.2,29.15c1.84-0.8,3.68-1.61,5.52-2.41c0.19,0.58-0.17,0.9-0.59,1.14c-1.34,0.76-2.51,1.79-3.89,2.48
		c-0.64,0.32-1.06,0.8-1.26,1.48c-0.1,0.07-0.2,0.12-0.32,0.15c-0.84,0-1.49-0.4-2.1-0.93c-0.07-0.01-0.15-0.03-0.22-0.04
		c0.26-0.81,1.11-0.77,1.66-1.16C90.38,29.6,90.8,29.39,91.2,29.15z"/>
	<path class="st145" d="M90.96,31.77c-0.48-0.87,0.28-1.12,0.77-1.43c1.45-0.94,2.94-1.82,4.41-2.73c0.33-0.2,0.41-0.57,0.58-0.87
		c1.58-1.07,3.38-1.71,5.04-2.63c0.16,0.07,0.32,0.14,0.48,0.2c1,0.11,1.97,0.31,2.88,0.75c-0.04,0.72-0.62,0.87-1.14,1.04
		c-3.62,1.12-6.63,3.37-9.85,5.24c-0.57,0.33-0.77,0.87-0.97,1.43C92.22,32.88,91.52,32.49,90.96,31.77z"/>
	<path class="st146" d="M57.59,61.56c0,0.07,0.01,0.15,0.01,0.22c0.14,0.33-0.11,0.52-0.29,0.71c-2,2.14-4.1,4.18-6.42,5.99
		c-0.28,0.22-0.57,0.45-0.97,0.26c-0.08-0.32-0.16-0.64-0.24-0.96c0-0.64,0-1.28,0-1.92c0.66,0.06,1.13-0.27,1.56-0.72
		c1.25-1.29,2.67-2.41,3.85-3.77c0.18-0.21,0.4-0.39,0.68-0.47C56.46,60.91,57.08,61.07,57.59,61.56z"/>
	<path class="st67" d="M55.68,61.08c-1.29,1.78-3.1,3.04-4.59,4.63c-0.3,0.32-0.86,0.84-1.41,0.16c-0.17-0.3-0.28-0.61-0.24-0.96
		c0-0.56,0-1.12,0-1.68c0.29,0.12,0.57,0.36,0.89,0.13c1.16-0.83,2.3-1.67,2.95-2.99c0.4,0.08,0.8,0.16,1.2,0.24
		C54.94,60.59,55.36,60.71,55.68,61.08z"/>
	<path class="st147" d="M49.92,68.74c1.51-0.88,2.76-2.11,4.05-3.26c1.29-1.14,2.43-2.46,3.63-3.71c0.69-0.04,1.31,0.21,1.91,0.49
		c-2.64,2.94-5.32,5.82-8.51,8.21c-0.72,0.53-0.81,0.11-1.08-0.29C49.92,69.7,49.92,69.22,49.92,68.74z"/>
	<path class="st106" d="M81.84,49.06c-0.24-0.07-0.48-0.15-0.72-0.22c-1.03,0.46-1.6-0.6-2.45-0.74c-0.11-0.06-0.2-0.14-0.27-0.24
		c-0.11-0.29-0.05-0.6,0.18-0.75c0.94-0.62,1.66-1.56,2.79-1.9c0.25-0.02,0.5,0,0.75,0.06c0.86,0.33,1.87,0.25,2.61,0.92
		c0,0.08,0,0.16,0,0.24c-0.98,0.48-1.85,1.13-2.67,1.83C81.79,48.48,81.62,48.72,81.84,49.06z"/>
	<path class="st120" d="M84.72,46.18c-0.9-0.15-1.81-0.3-2.64-0.72c2.43-1.89,5.1-3.41,7.66-5.09c0.44-0.29,0.83-0.61,1.13-1.04
		c1.45-0.98,3.12-1.54,4.69-2.29c0.21-0.1,0.46-0.12,0.69,0.02c0.61,0.26,1.22,0.53,1.92,0.48c-0.2,0.56-0.59,0.84-1.15,1.09
		c-1.94,0.88-3.68,2.12-5.51,3.2C89.19,43.2,86.76,44.39,84.72,46.18z"/>
	<path class="st148" d="M96.24,37.06c-1.76,0.8-3.52,1.61-5.28,2.41c-0.48,0.59-1.06,0.96-1.86,0.8c-0.32-0.59,0.1-0.89,0.5-1.14
		c2.33-1.47,4.57-3.06,7-4.38c1.12-0.6,2.41-1.09,3.2-2.23c1.66-0.99,3.36-1.88,5.27-2.3c1.49,0.32,2.83-0.57,4.28-0.55
		c0.49,0.01,1.03-0.24,1.38,0.32c0.06,0.55-0.41,0.63-0.74,0.77c-0.76,0.31-1.47,0.75-2.25,1.02c-2.19,0.71-4.19,1.83-6.22,2.88
		c-0.31,0.08-0.63,0.17-0.94,0.25c-0.23,0.13-0.53,0.2-0.14,0.55c0.67,0.61,0.11,0.62-0.36,0.65C98.57,35.51,97.46,36.5,96.24,37.06
		z"/>
	<path class="st149" d="M78.72,47.88c0.92,0.01,1.48,0.95,2.4,0.95c-0.03,0.38,0.15,0.88-0.49,0.95c-0.48-0.08-1.01,0.18-1.43-0.24
		c-0.48-0.24-0.97-0.48-1.45-0.72C77.99,48.43,78.39,48.2,78.72,47.88z"/>
	<path class="st150" d="M107.74,31.78c0.97-0.55,1.94-1.1,2.91-1.66c1.4-1.01,3.05-1.53,4.53-2.39c0.52-0.19,1.07-0.5,1.46,0.21
		c-1.36,0.97-3.01,1.32-4.47,2.09c-0.73,0.38-1.5,0.69-2.25,1.03C109.14,31.13,108.57,31.88,107.74,31.78z"/>
	<path class="st151" d="M74.4,49.3c-0.4-0.16-0.8-0.32-1.2-0.48c-0.57-0.4-0.57-0.82-0.05-1.26c0.51-0.13,1,0.02,1.5,0.11
		c0.54,0.33,1.4,0.09,1.67,0.92c-0.39,0.31-0.5,0.73-0.49,1.2C75.36,49.62,74.88,49.46,74.4,49.3z"/>
	<path class="st140" d="M76.33,48.58c-0.48-0.43-1.23-0.23-1.69-0.71c0.46-0.39,0.77-0.93,1.24-1.31c1.08,0,1.88,0.58,2.61,1.3
		c0.08,0.01,0.16,0.02,0.23,0.04c-0.07,0.57-0.41,0.87-0.97,0.94C77.26,48.83,76.76,48.87,76.33,48.58z"/>
	<path class="st152" d="M55.68,61.08c-0.46-0.01-0.88-0.12-1.2-0.48c-0.07-0.54,0.26-0.88,0.61-1.22c1.1-1.08,2.19-2.18,3.28-3.28
		c0.3-0.3,0.69-0.56,0.69-1.06c0.24,0.01,0.48,0.01,0.72,0.02c0.6,0.15,1.42-0.22,1.69,0.72c1,0.79,0.99,0.78-0.08,1.88
		c-1.27,1.29-2.52,2.6-3.78,3.9C56.95,61.4,56.32,61.24,55.68,61.08z"/>
	<path class="st153" d="M72.24,48.59c-0.05,1.26-1.25,1.64-1.97,2.19c-2.1,1.59-3.89,3.52-5.95,5.14c-0.22,0.18-0.43,0.35-0.73,0.36
		c-0.52-0.03-1.01-0.15-1.43-0.47c0.03-1.17,1.07-1.56,1.74-2.21c1.72-1.68,3.68-3.11,5.29-4.9c0.54-0.59,1.25-0.82,2.02-0.91
		C71.58,48.01,71.94,48.26,72.24,48.59z"/>
	<path class="st154" d="M69.36,48.82c-0.52,1.06-1.57,1.59-2.37,2.39c-1.57,1.57-3.47,2.81-4.84,4.6c-0.23-0.01-0.47-0.02-0.7-0.02
		c-0.46-0.48-1.2-0.29-1.69-0.72c0.84-1.01,1.88-1.8,2.89-2.61c0.34-0.27,0.66-0.7,0.7-1.21c0.25-0.63,0.89-0.73,1.4-0.99
		c1.39-0.48,2.7-1.15,4.1-1.61C69.05,48.63,69.22,48.68,69.36,48.82z"/>
	<path class="st155" d="M72.24,48.59c-0.5,0.02-0.92-0.08-0.95-0.7c0.24-0.4,0.65-0.55,1.05-0.69c0.36-0.01,0.79-0.16,0.86,0.42
		c-0.26,0.4-0.28,0.81,0,1.21C72.88,48.74,72.56,48.67,72.24,48.59z"/>
	<path class="st156" d="M64.8,50.51c-0.48,0.24-0.96,0.49-1.44,0.73c-0.56,0.16-1.12,0.32-1.68,0.48c0.36-0.89,1.25-1.33,1.77-2.1
		c0.25-0.36,0.21-0.51-0.08-0.73c1.59-0.66,3.17-1.33,4.76-2c0.72,0.42,0.1,0.75-0.13,0.98C67.04,48.86,65.94,49.71,64.8,50.51z"/>
	<path class="st130" d="M67.43,43.33c0.76,0.47,1.71,0.56,2.42,1.16c0.14-0.06,0.24-0.02,0.32,0.1c-0.19,1.25-0.47,1.49-1.53,1.36
		c-0.71-0.17-1.43-0.33-2.14-0.5c-0.25-0.15-0.5-0.3-0.75-0.45c0.41-0.56,1.54-0.6,1.21-1.69C67.12,43.31,67.28,43.32,67.43,43.33z"
		/>
	<path class="st157" d="M68.64,45.95c0.98,0.03,1.16-0.75,1.44-1.43c0.8-0.45,1.44,0.44,2.21,0.26c0.89,0.26,0.38,0.72,0.09,1.03
		c-0.73,0.78-1.58,1.44-2.45,2.06c-0.39,0.28-0.77,0.56-1.05,0.95c-1.31,0.67-2.68,1.21-4.08,1.68c0.78-1.17,2.06-1.8,2.99-2.8
		c0.23-0.25,0.63-0.37,0.34-0.82C68.1,46.46,69.43,46.78,68.64,45.95z"/>
	<path class="st58" d="M70.32,43.78c0.01-0.51,0.38-0.79,0.73-1.04c2.15-1.56,4.2-3.26,6.44-4.71c2.6-1.68,5.09-3.53,7.77-5.09
		c0.51-0.29,0.92-0.76,1.37-1.15c0.48,0.09,0.96,0.17,1.44,0.26c0.61-0.02,1.21-0.03,1.5,0.66c-3.29,2.12-6.57,4.25-9.79,6.47
		c-0.4,0.27-0.8,0.54-1.1,0.92c-0.12,0.13-0.26,0.24-0.42,0.32c-2.28,1.02-4.52,2.15-6.82,3.14C71.09,43.72,70.75,43.97,70.32,43.78
		z"/>
	<path class="st158" d="M89.51,32.75c-0.48-0.23-0.96-0.47-1.44-0.7c0.12-0.35,0.52-0.56,0.49-0.98c0.8,0.02,1.36,0.72,2.16,0.72
		c0.73,0.75,0.23,1.01-0.46,1.21C89.98,33.01,89.71,32.97,89.51,32.75z"/>
	<path class="st159" d="M70.32,43.78c2.64-1.2,5.28-2.4,7.92-3.59c0.33,0.59-0.22,0.77-0.51,1.02c-0.61,0.5-1.23,1-1.86,1.49
		c-0.34,0.26-0.74,0.5-0.7,1.03c-0.85,0.72-1.84,1.1-2.92,1.27c-0.86,0.47-1.38-0.6-2.16-0.47c-0.08-0.01-0.15-0.02-0.23-0.04
		C69.84,44.14,70.02,43.92,70.32,43.78z"/>
	<path class="st160" d="M116.64,27.95c-0.48-0.39-0.95-0.08-1.42,0.01c-1.04,0.42-2.16,0.32-3.24,0.42
		c-0.36,0.03-0.82,0.06-0.97-0.45c0.13-0.88,1-0.79,1.52-1.17c2.06-0.56,4.17-0.52,6.28-0.49c0.24,0.87,0.95,0.93,1.68,0.96
		c0.39,0.37,0.46,0.69-0.2,0.7c-0.67,0.01-1.33,0.06-1.97,0.26C117.75,28.11,117.2,28.03,116.64,27.95z"/>
	<path class="st146" d="M93.12,32.73c-0.22-0.58-0.16-0.96,0.47-1.35c3.34-2.07,6.55-4.36,10.35-5.55c0.48-0.15,0.85-0.41,1.18-0.76
		c0.24,0,0.48,0,0.72,0c0.94,0.3,1.87,0.69,2.88,0.72c0.01,0.07,0.01,0.14,0.01,0.22c-0.01,0.77-0.7,0.77-1.16,0.99
		c-3.97,1.88-7.98,3.69-11.96,5.57c-0.4,0.19-0.77,0.42-1.14,0.67c-0.44,0.21-0.76-0.11-1.12-0.26
		C93.26,32.91,93.18,32.83,93.12,32.73z"/>
	<path class="st161" d="M94.33,33.18c0.81-1.07,2.1-1.33,3.22-1.86c3.59-1.69,7.21-3.34,10.82-5.01c0.14-0.06,0.24-0.2,0.36-0.3
		c1.27,0.25,2.53,0.5,3.8,0.75c-0.27,0.61-0.96,0.6-1.4,0.95c-1.86,1.21-3.8,2.22-6,2.65c-1.81,0.7-3.58,1.46-5.29,2.38
		c-0.95,0.8-2.03,1.3-3.27,1.44c-0.46-0.09-0.86-0.38-1.34-0.43C94.86,33.65,94.5,33.56,94.33,33.18z"/>
	<path class="st54" d="M93.12,32.73c0.08,0.01,0.16,0.02,0.24,0.04c0.65,0.73-0.02,0.89-0.49,1.14c-0.18,0.03-0.37,0.02-0.55-0.02
		c-0.73-0.32-1.71-0.17-2.11-1.12c0.64-0.08,0.84-0.38,0.5-0.97c0.08-0.01,0.16-0.01,0.24-0.02C91.68,32.09,92.4,32.41,93.12,32.73z
		"/>
	<path class="st162" d="M89.04,40.19c0.64-0.24,1.28-0.48,1.92-0.72c-0.16,1.12-1.28,1.28-1.97,1.73c-2.08,1.36-4.22,2.64-6.23,4.12
		c-0.17,0.13-0.45,0.1-0.68,0.14c-0.24,0-0.48,0-0.72,0c-0.74-0.2-1.65,0.13-2.21-0.68c0.05-0.74,0.73-0.72,1.18-0.95
		c0.38-0.2,0.79-0.33,1.19-0.5c2.13-0.93,4.26-1.88,6.39-2.83C88.27,40.35,88.62,40.13,89.04,40.19z"/>
	<path class="st163" d="M79.2,44.74c0.67,0.38,1.52,0.26,2.16,0.72c-1.02,0.73-2.26,1.18-2.88,2.39c-0.96-0.22-1.65-1.03-2.65-1.17
		c-0.3,0.1-0.56,0.01-0.68-0.25c-0.15-0.35,0.19-0.44,0.41-0.56c0.23-0.14,0.48-0.25,0.72-0.37C77.26,45.27,78.07,44.38,79.2,44.74z
		"/>
	<path class="st164" d="M89.04,40.19c-2.39,1.32-4.91,2.34-7.44,3.35c-0.12-0.66,0.41-0.88,0.81-1.18c1.94-1.43,4.02-2.65,6.06-3.94
		c0.79-0.5,1.66-0.93,2.17-1.79c0.89-0.89,2.16-1.07,3.22-1.66c0.41-0.23,0.86-0.37,1.27-0.62c0.45-0.15,0.92-0.2,1.35-0.39
		c1.21-0.15,2.2-0.91,3.35-1.22c0.18,0.13,0.13,0.31-0.01,0.38c-1.31,0.62-2.34,1.68-3.74,2.18c-0.76,0.27-1.39,0.88-2.09,1.33
		c-1.46,0.94-2.93,1.88-4.4,2.81C89.3,39.62,89.18,39.91,89.04,40.19z"/>
	<path class="st164" d="M105.12,30.36c2-0.88,4-1.76,6-2.65c0.16,0.63,0.78,0.41,1.04,0.36c1.02-0.22,2.04-0.06,3.05-0.12
		c-1.44,0.89-2.93,1.68-4.56,2.17c-1.13-0.44-2.25-0.09-3.3,0.24c-0.74,0.23-1.5,0.09-2.22,0.37
		C105.01,30.78,105.09,30.49,105.12,30.36z"/>
	<path class="st165" d="M76.32,45.72c-0.19,0.13-0.37,0.3-0.58,0.37c-1.06,0.37,0.06,0.4,0.09,0.59c-0.19,0.61-0.4,1.2-1.2,1.19
		c-0.49-0.01-1,0.05-1.43-0.26c-0.26-0.33-0.63-0.19-0.96-0.21c-0.34-0.6,0.24-0.73,0.52-1c1.13-1.11,2.63-1.73,3.78-2.83
		c0.29-0.28,0.59-0.52,0.66-0.94c2.02-1.29,4.13-2.36,6.53-2.76c0.32,0.4,0.04,0.68-0.25,0.89c-0.67,0.49-1.26,1.1-1.98,1.5
		C79.69,43.28,78.16,44.73,76.32,45.72z"/>
	<path class="st166" d="M77.25,42.81c0.48,0.46-0.04,0.55-0.27,0.77c-1.29,1.25-2.95,1.99-4.27,3.2c-0.21,0.19-0.48,0.29-0.47,0.63
		c-0.25,0.29-0.6,0.4-0.96,0.48c-0.61,0.38-1.39,0.41-1.93,0.93c-0.16,0-0.32,0-0.48,0.01c-0.07-0.57,0.27-0.82,0.71-1.09
		c1-0.62,1.89-1.4,2.73-2.24c0.18-0.18,0.51-0.43-0.08-0.51c0.96-0.48,1.92-0.96,2.89-1.44C75.69,42.88,76.4,42.66,77.25,42.81z"/>
	<path class="st167" d="M77.25,42.81c-0.71,0.25-1.41,0.49-2.12,0.74c-0.55-0.06-0.32-0.32-0.1-0.5c0.72-0.6,1.49-1.15,2.19-1.78
		c0.36-0.33,0.93-0.48,1.02-1.08c0.08-0.08,0.16-0.16,0.24-0.24c3.02-1.78,6.31-2.99,9.44-4.53c0.25-0.12,0.53-0.17,0.81-0.11
		c0.48,0.62-0.07,0.93-0.41,1.25c-0.61,0.56-1.41,0.87-2.07,1.37c-0.52,0.39-1.2,0.64-1.4,1.37c-0.23,0.45-0.59,0.66-1.1,0.61
		C81.55,40.79,79.31,41.61,77.25,42.81z"/>
	<path class="st168" d="M88.8,35.39c-2.78,1.27-5.55,2.53-8.32,3.81c-0.65,0.3-1.29,0.62-2,0.75c1.08-1.18,2.48-1.95,3.78-2.84
		c1.99-1.36,4.04-2.65,6.04-4.01c0.4-0.27,0.77-0.37,1.21-0.35c0.24,0,0.47,0.01,0.71,0.01c0.73,0.32,1.45,0.63,2.18,0.95
		C91.38,34.66,90.17,35.19,88.8,35.39z"/>
	<path class="st169" d="M92.88,33.71c0.34-0.22,0.79-0.39,0.49-0.94c0.42-0.09,0.61,0.35,0.97,0.42c0.32,0.09,0.63,0.19,0.95,0.28
		c0.3,0.7-0.2,0.84-0.69,0.99C93.95,34.36,93.2,34.54,92.88,33.71z"/>
	<path class="st170" d="M94.53,34.2c0.46-0.03,0.73-0.26,0.75-0.74c0.51-0.09,0.83,0.25,1.2,0.5c-0.23,0.63-0.73,0.59-1.25,0.49
		C94.91,34.6,94.62,34.7,94.53,34.2z"/>
	<path class="st112" d="M94.53,34.2c0.18,0.24,0.44,0.23,0.7,0.25c-0.83,0.92-2.08,1.03-3.09,1.61c-0.47,0.27-1.03,0.38-1.45,0.75
		c-1.81,1.23-3.8,2.02-5.95,2.43c-0.43-0.36-0.07-0.53,0.19-0.71c0.95-0.64,1.9-1.28,2.86-1.91c0.47-0.31,0.95-0.6,1.02-1.23
		c1.2-0.56,2.4-1.12,3.6-1.68c0.16,0,0.32,0,0.48,0C93.38,34.02,93.95,34.15,94.53,34.2z"/>
	<path class="st171" d="M84.74,39.23c1.98-0.81,3.97-1.62,5.95-2.43c0.32,0.53-0.24,0.56-0.46,0.74c-1.8,1.43-3.89,2.42-5.75,3.75
		c-0.99,0.7-2.15,1.2-2.87,2.25c-0.71,0.58-1.72,0.56-2.4,1.2c-0.96,0.33-1.91,0.65-2.87,0.98c0.37-0.92,1.36-1.15,2.04-1.7
		c1.47-1.19,3.11-2.17,4.66-3.27c0.3-0.21,0.76-0.34,0.73-0.85C84.08,39.68,84.41,39.45,84.74,39.23z"/>
</g>
</svg>
