<?xml version="1.0" encoding="utf-8"?>
<!-- Generator: Adobe Illustrator 23.0.2, SVG Export Plug-In . SVG Version: 6.00 Build 0)  -->
<svg version="1.1" id="Camada_1" xmlns="http://www.w3.org/2000/svg" xmlns:xlink="http://www.w3.org/1999/xlink" x="0px" y="0px"
	 viewBox="0 0 116.29 179.31" style="enable-background:new 0 0 116.29 179.31;" xml:space="preserve">
<style type="text/css">
	.st0{fill:#FEFEFE;}
	.st1{fill:#FDFDFA;}
	.st2{fill:#C4C4BE;}
	.st3{fill:#FE9007;}
	.st4{fill:#CAC6BE;}
	.st5{fill:#CEC8BE;}
	.st6{fill:#FEAA0A;}
	.st7{fill:#D8CBBE;}
	.st8{fill:#D3CAC0;}
	.st9{fill:#E8F4AB;}
	.st10{fill:#D5CABE;}
	.st11{fill:#D1C8C0;}
	.st12{fill:#D0C8C2;}
	.st13{fill:#E8F6B6;}
	.st14{fill:#E6F5B2;}
	.st15{fill:#ECD3BA;}
	.st16{fill:#EBD9B6;}
	.st17{fill:#FC951A;}
	.st18{fill:#EBDEAD;}
	.st19{fill:#ECD1B5;}
	.st20{fill:#E4CFBD;}
	.st21{fill:#DCCCBF;}
	.st22{fill:#DCCDBE;}
	.st23{fill:#E3CDBA;}
	.st24{fill:#CEC9C5;}
	.st25{fill:#FEE81E;}
	.st26{fill:#EAF5B1;}
	.st27{fill:#ECD7AB;}
	.st28{fill:#EBE1AA;}
	.st29{fill:#EBEFAE;}
	.st30{fill:#E9F5AD;}
	.st31{fill:#FE8A07;}
	.st32{fill:#FEA60A;}
	.st33{fill:#FEE919;}
	.st34{fill:#FEA90A;}
	.st35{fill:#FE8C07;}
	.st36{fill:#C4C4BC;}
	.st37{fill:#FE9C12;}
	.st38{fill:#C3C5BF;}
	.st39{fill:#EEC495;}
	.st40{fill:#FEA50A;}
	.st41{fill:#FE8B07;}
	.st42{fill:#FE8707;}
	.st43{fill:#FE7E04;}
	.st44{fill:#EAF4B6;}
	.st45{fill:#EAE6AF;}
	.st46{fill:#E9F0B1;}
	.st47{fill:#EDDD8E;}
	.st48{fill:#FE8407;}
	.st49{fill:#FE7F07;}
	.st50{fill:#FE7B07;}
	.st51{fill:#FE7707;}
	.st52{fill:#FE9E12;}
	.st53{fill:#FB8823;}
	.st54{fill:#C8C4B9;}
	.st55{fill:#F7B823;}
	.st56{fill:#FD9B0E;}
	.st57{fill:#FEA20A;}
	.st58{fill:#FE8807;}
	.st59{fill:#FEA10A;}
	.st60{fill:#FE9B12;}
	.st61{fill:#FEB719;}
	.st62{fill:#FD9809;}
	.st63{fill:#C4C4BD;}
	.st64{fill:#C5C5BC;}
	.st65{fill:#FE7507;}
	.st66{fill:#FE8A0A;}
	.st67{fill:#FEBB19;}
	.st68{fill:#FE8307;}
	.st69{fill:#FE9E0A;}
	.st70{fill:#FEDD19;}
	.st71{fill:#FE7D07;}
	.st72{fill:#FE980A;}
	.st73{fill:#FE9C0A;}
	.st74{fill:#FE910A;}
	.st75{fill:#FE8D0A;}
	.st76{fill:#FE7307;}
	.st77{fill:#FE9B0D;}
	.st78{fill:#FE7A07;}
	.st79{fill:#FE7607;}
	.st80{fill:#FE8507;}
	.st81{fill:#FE9F12;}
	.st82{fill:#FE8E0A;}
	.st83{fill:#FE9A0A;}
	.st84{fill:#FE950A;}
	.st85{fill:#FE8107;}
	.st86{fill:#FE920A;}
	.st87{fill:#FEFDFA;}
	.st88{fill:#FE7509;}
</style>
<g>
	<path class="st0" d="M116.23,89.12c0,16.92,0,33.84,0,50.76c0,2.52,0.15,5.05-0.03,7.55c-0.4,5.44-1.97,10.44-5.71,14.64
		c-4.55,5.12-10.16,8.54-16.53,10.79c-7.27,2.57-14.77,4.28-22.39,5.43c-3.5,0.53-7.04,0.77-10.59,0.93
		c-3.64,0.16-7.27,0.03-10.89-0.2c-5.97-0.38-11.85-1.48-17.67-2.9c-3.72-0.9-7.45-1.77-11.04-3.1c-4.77-1.76-8.99-4.43-12.83-7.74
		c-2.41-2.07-4.04-4.72-5.72-7.34c-1.12-1.75-1.21-3.86-1.77-5.81c-0.38-1.35-0.52-2.72-0.52-4.13c-0.04-19.44-0.1-38.88-0.18-58.32
		C0.31,79.05,0.26,68.41,0.14,57.78c-0.08-6.72-0.1-13.44,0.01-20.15c0.02-1.31-0.02-2.62-0.1-3.91c-0.22-3.48,0.36-6.84,1.26-10.17
		c0.2-0.73,0.46-1.44,0.88-2.08C5.48,16.5,9.15,11.87,14.31,8.7c2.97-1.82,6.24-3.05,9.49-4.27c3.71-1.4,7.65-1.94,11.52-2.65
		c3.72-0.69,7.42-1.6,11.23-1.66c0.48-0.01,0.96-0.06,1.44-0.06c7.24,0,14.48,0.12,21.72-0.04c5.81-0.13,11.45,0.67,17.05,2.09
		c4.78,1.21,9.37,2.89,13.68,5.24c5.26,2.87,9.68,6.76,12.81,11.95c1.3,2.15,1.57,4.67,2.26,7.03c1.11,3.77,0.68,7.62,0.7,11.43
		C116.27,54.88,116.23,72,116.23,89.12z"/>
	<path d="M110.47,88.97c0,17.12,0,34.24,0,51.36c0,2.32,0.06,4.64-0.01,6.96c-0.13,4.03-1.42,7.6-4.06,10.73
		c-4.08,4.83-9.37,7.73-15.19,9.78c-6.33,2.23-12.85,3.77-19.5,4.72c-3.31,0.48-6.64,0.76-9.99,0.94
		c-3.92,0.21-7.83,0.08-11.72-0.18c-6.25-0.42-12.4-1.6-18.48-3.12c-4.73-1.18-9.36-2.63-13.6-5.1c-4.06-2.37-7.55-5.34-9.87-9.53
		c-1.06-1.93-1.67-4.02-1.68-6.17c-0.12-19.84-0.16-39.68-0.24-59.51C6.07,79.12,5.98,68.4,5.91,57.69
		c-0.04-5.68-0.14-11.36-0.1-17.03c0.02-2.54-0.01-5.06-0.2-7.6c-0.37-4.94,1.41-9.1,4.53-12.96c3.95-4.89,9.06-7.78,14.77-10
		c3.92-1.52,8.02-2.05,12.08-2.84c12.26-2.39,24.66-2.03,37.03-1.62c4.83,0.16,9.62,1.24,14.27,2.83c3.1,1.06,6.12,2.25,9.02,3.76
		c4.4,2.29,8.13,5.38,10.74,9.64c1.55,2.52,2.33,5.44,2.35,8.32C110.52,49.77,110.46,69.37,110.47,88.97
		C110.47,88.97,110.47,88.97,110.47,88.97z"/>
	<path class="st0" d="M13.52,69.18c-0.07-5.68-0.18-11.35-0.22-17.03c-0.03-4.83-0.11-9.67,0.07-14.5c0.08-2.16-0.52-4.23-0.38-6.38
		c0.11-1.73,0.46-3.27,1.54-4.68c1.64-2.13,3.42-4.12,5.46-5.87c0.36-0.31,0.77-0.57,1.19-0.79c2.82-1.42,5.7-2.73,8.68-3.75
		c2.72-0.93,5.64-1.09,8.43-1.73c5.3-1.21,10.7-1.3,16.08-1.42c6.39-0.14,12.79-0.5,19.18-0.05c7.37,0.51,14.32,2.56,20.79,6.08
		c3.35,1.82,6.3,4.18,7.85,7.86c0.53,1.26,0.79,2.56,0.79,3.94c-0.02,32.15-0.02,64.3-0.01,96.45c0,6.8,0.04,13.59,0.03,20.39
		c0,2.99-1.74,5.14-3.73,7.07c-3.14,3.04-7.05,4.83-11.09,6.27c-4.83,1.72-9.8,2.97-14.87,3.76c-3.96,0.62-7.94,1.04-11.96,1.22
		c-3.64,0.16-7.26,0.05-10.87-0.18c-5.55-0.35-11.03-1.28-16.44-2.59c-3.8-0.92-7.5-2.12-10.99-3.87c-3.42-1.71-6.5-3.87-8.43-7.33
		c-0.27-0.49-0.53-0.97-0.65-1.52c-0.21-0.37-0.11-0.78-0.11-1.17c-0.01-11.27,0-22.54-0.02-33.81c0-0.83-0.01-1.5,1.09-1.56
		c0.51-0.03,0.61-0.53,0.66-1c0.14-1.43,0.47-2.84,0.42-4.29c-0.01-0.28,0.03-0.56,0.16-0.82c0.07-0.14,0.14-0.29,0.34-0.27
		c0.19,0.02,0.25,0.18,0.3,0.32c0.18,0.5,0.13,1.03,0.13,1.54c0,8.99,0,17.99,0.01,26.98c0,0.57-0.18,1.24,0.61,1.52
		c0.45,0.5,0.36,1.12,0.36,1.7c0.01,2.9,0,5.81,0.01,8.71c0.01,1.41,0.12,1.45,1.43,1.02c0.88-0.28,1.71-0.92,2.72-0.51
		c0.26,0.22,0.41,0.53,0.4,0.84c-0.04,1.6,1.01,2.18,2.3,2.58c0.57,0.18,1.11,0.44,1.67,0.65c1.59,0.69,3.25,1.16,4.9,1.68
		c3.05,0.79,6.1,1.59,9.23,2.03c6.97,1.18,13.99,1.52,21.04,1.4c1.2,0.11,2.36-0.38,3.56-0.21c10.02-0.78,19.83-2.45,28.9-7.09
		c0.82-0.42,1.62-0.86,2.38-1.38c0.14-0.13,0.28-0.27,0.36-0.44c0.18-2.48,0.03-4.96,0.08-7.43c0.01-0.32,0-0.64,0-0.96
		c0.02-1.66,0.07-1.7,1.68-1.36c0.41-0.41,0.23-0.92,0.23-1.38c-0.01-7.35,0.01-14.71-0.02-22.06c-0.03-7.35,0.06-14.71,0.01-22.06
		c-0.1-1.31,0.08-2.62-0.01-3.92c-0.02-3.27-0.03-6.54,0-9.81c-0.01-3.91-0.04-7.81-0.01-11.72c0.12-2.08-0.08-4.16,0-6.25
		c0.12-1.53-0.06-3.05,0-4.58c0.09-1.5-0.03-3.01-0.01-4.51c0.05-3.96,0.04-7.92,0.03-11.88c0-0.16-0.02-0.31-0.11-0.44
		c-0.17-0.07-0.32-0.03-0.43,0.09c-2.58,2.54-5.75,4.18-8.94,5.78c-3.71,1.48-7.42,2.98-11.34,3.85c-4.83,1.02-9.66,2.07-14.61,2.35
		c-2.46,0.14-4.94-0.06-7.4,0.2c-0.82-0.23-1.67-0.13-2.5-0.15c-7.83-0.22-15.46-1.61-22.9-4.07c-0.72-0.24-1.44-0.49-2.17-0.7
		c-4.18-1.77-8.24-3.74-11.67-7.04c-0.22,2.14,0.01,4.1,0.19,6.07c-0.04,3.47,0.08,6.94,0.04,10.41c-0.12,1.3,0.06,2.6-0.01,3.91
		c-0.09,3.05,0.07,6.11,0.02,9.16c-0.01,0.59,0.06,1.19-0.22,1.75c-0.9,0.8-1.78,0.24-2.64-0.08c-0.76-0.29-0.46-0.99-0.52-1.54
		C13.58,70.11,13.75,69.62,13.52,69.18z"/>
	<path class="st1" d="M17.58,138.05c-0.95,0.79-0.96,0.16-0.96-0.61c0.01-9.43,0-18.86,0.01-28.29c0-0.43,0-0.86,0-1.3
		c-0.36,1.17-0.16,2.38-0.41,3.57c-0.13,0.64-0.38,1.28-0.17,2.05c0.14,0.53-0.45,1.24-1.26,1.02c-0.73-0.2-0.84,0.09-0.8,0.68
		c0.02,0.28,0,0.56,0,0.84c0,11.51,0,23.02,0,34.52c-0.3-0.3-0.18-0.68-0.18-1.02c-0.12-26.58-0.23-53.16-0.33-79.74
		c0-0.2,0.03-0.4,0.05-0.59c0.08,0.17,0.2,0.34,0.22,0.52c0.1,0.65-0.31,1.58,0.2,1.92c0.74,0.5,1.69,0.85,2.68,0.68
		c0.65,1.15,0.4,2.45,0.55,3.67c0.13,1.05,0.03,2.12,0.04,3.19c0.01,4.34,0.04,8.68,0,13.01c0.02,1.85,0.01,3.69,0,5.54
		c0.01,1.46-0.01,2.91,0,4.37c0,3.03-0.02,6.06,0.03,9.08c-0.07,2.87-0.01,5.74-0.03,8.61c-0.01,5.37,0.01,10.74-0.01,16.11
		C17.2,136.64,17.26,137.36,17.58,138.05z"/>
	<path class="st2" d="M18.57,33.64c-2.13-3.24-0.85-6.94,1.76-9.19c4.49-3.88,9.94-5.65,15.54-7.07c4.79-1.22,9.68-1.81,14.61-2.23
		c4.75-0.4,9.52-0.43,14.24-0.13c9.53,0.6,18.95,1.97,27.64,6.35c2.52,1.27,4.81,2.87,6.4,5.27c1.62,2.45,1.39,5.32-0.5,7.51
		c-0.64-0.74-1.46-0.85-2.41-0.85c-24.86,0.02-49.71,0.02-74.57,0C20.35,33.31,19.47,33.52,18.57,33.64z"/>
	<path class="st3" d="M96.79,149.56c-2.67,1.89-5.65,3.15-8.7,4.22c-7.36,2.6-14.98,3.92-22.76,4.39c-1.25-1.28-2.38-0.22-3.54,0.19
		c-7.19,0.3-14.32-0.12-21.41-1.39c-0.94-0.25-0.58-0.73-0.21-1.21c1.2-1.55,2.47-3.04,3.71-4.55c2.68-3.28,5.37-6.54,7.89-9.94
		c1.35-1.55,2.62-3.18,3.95-4.75c0.32-0.38,0.59-0.92,1.25-0.57c0.57,0.4,1.22,0.32,1.86,0.32c4.84,0,9.67-0.01,14.51,0.01
		c0.65,0,1.59-0.23,1.79,0.56c0.2,0.81-0.8,0.88-1.33,1.06c-1.65,0.56-1.92,2.13-2.63,3.37c-0.08,0.14-0.08,0.23-0.03,0.08
		c0.07,0.04,0.15,0.05,0.24,0.03c0.51,0.86,0.16,1.34-0.69,1.6c-0.3,0.09-0.62,0.17-0.89,0.34c-0.64,0.43-1.08,0.98-0.72,1.8
		c0.33,0.77,1.23,1.07,2.02,0.64c0.85-0.46,1.66-0.96,2.69-0.74c0.97,0.55,1.93,0.48,2.98,0.13c1.07-0.36,2.25-0.27,3.27-0.99
		c1.5-1.07,1.98-2.04,1.6-3.86c-0.07-0.32-0.12-0.63,0.02-0.94c0.23-0.74-0.13-1.13-0.79-1.34c-0.3-0.09-0.63-0.12-0.92-0.26
		c-0.35-0.16-0.59-0.42-0.54-0.84c0.04-0.38,0.34-0.51,0.66-0.59c0.43-0.11,0.87-0.09,1.31-0.09c4.58,0,9.16-0.01,13.74,0.01
		c0.62,0,1.29-0.11,1.82,0.39c0.27,0.44,0.24,0.92,0.21,1.4c-0.19,3.42-0.05,6.84-0.09,10.26
		C97.02,148.73,97.05,149.17,96.79,149.56z"/>
	<path class="st4" d="M18.57,33.64c0.35-0.56,0.84-0.72,1.5-0.72c25.71,0.02,51.43,0.02,77.14-0.01c1.07,0,1.2,0.41,1.04,1.25
		c-0.9,1.6-2.4,2.53-3.86,3.49c-2.58,1.71-5.38,2.92-8.37,3.72c-0.79-0.5-1.65-0.62-2.58-0.62C66.63,40.76,49.81,40.75,33,40.78
		c-0.48,0-1.26-0.44-1.43,0.54c-0.19,0.73-0.7,0.42-1.11,0.3c-0.72-0.2-1.36-0.61-2.1-0.73C24.84,38.81,20.97,37.23,18.57,33.64z"/>
	<path class="st5" d="M31.51,41.57c-0.16-0.4-1-0.3-0.81-0.87c0.17-0.5,0.76-0.33,1.18-0.33c17.6-0.01,35.2,0,52.8-0.02
		c0.77,0,1.31,0.1,1.34,1c-2.92,1.23-6.01,1.77-9.09,2.37c-7.99,1.54-16.07,1.67-24.16,1.41c-4.81-0.15-9.58-0.82-14.29-1.78
		c-0.65-0.13-1.37,0.12-1.97-0.33c-1.39-0.34-2.79-0.62-4.19-0.93C32.02,41.97,31.51,42.17,31.51,41.57z"/>
	<path class="st6" d="M51.91,141.42c-2.87,4.2-6.26,8-9.44,11.95c-0.75,0.93-1.49,1.86-2.28,2.75c-0.39,0.44-0.06,0.61,0.19,0.85
		c-3.09-0.47-6.15-1.12-9.12-2.11c1.59-1.13,2.52-2.83,3.74-4.28c1.89-2.25,3.76-4.51,5.5-6.88c0.65-0.7,1.25-1.45,1.82-2.22
		c0.29-0.39,0.6-0.75,1.11-0.86c2.47,1.1,5.02,0.73,7.56,0.44C51.32,141.04,51.8,140.77,51.91,141.42z"/>
	<path class="st7" d="M55.99,52.6c3.69-0.37,7.44,0.01,11.1-0.61c2.35-0.4,4.73-0.61,7.05-1.23c1.29-0.35,2.62-0.53,3.93-0.78
		c1.34,0.14,2.67,0.4,4.02,0.35c4.15-0.17,8.26,0.34,12.36,0.87c0.97,0.12,1.91-0.13,2.86-0.02c1.62,0.19,1.62,0.18,1.86,1.67
		c0,1.52,0,3.04,0,4.56c-0.64-0.08-0.48-0.62-0.54-1.01c-0.07-0.39,0.02-0.8-0.18-1.17c-0.13-0.23-0.34-0.36-0.59-0.3
		c-0.23,0.05-0.25,0.27-0.27,0.48c-0.08,0.82,0.18,1.67-0.26,2.46c-0.11,0.09-0.23,0.11-0.36,0.05c-0.09-0.1-0.16-0.21-0.2-0.34
		c-0.18-0.91-0.1-1.83-0.09-2.74c0-0.82-0.27-1.16-1.14-1.02c-4.08,0.64-8.17,1.29-12.25,1.93c-1.34-0.13-2.68-0.14-4.02-0.24
		c-1.91-0.27-3.83-0.37-5.75-0.48c-2.16-0.25-4.33-0.45-6.49-0.63c-2.68-0.22-5.39-0.23-8.04-0.74c-0.74-0.39-1.55-0.18-2.32-0.29
		c-0.13-0.02-0.26-0.06-0.38-0.12C56.05,53.1,55.88,52.91,55.99,52.6z"/>
	<path class="st6" d="M26.44,153.24c-1.22-0.45-2.45-0.91-3.68-1.35c-0.39-0.14-0.36-0.47-0.4-0.78c-0.08-0.67-0.16-1.34-0.25-2.01
		c-0.7-1.53-0.61-3.16-0.68-4.78c0.02-0.03,0.02-0.09,0.05-0.1c0.26-0.15,0.5-0.21,0.69-0.55c0.77-1.43,1.69-2.78,2.63-4.12
		c0.18-0.26,0.41-0.48,0.7-0.64c0.71-0.35,1.13-0.08,0.76,0.62c-0.64,1.21,0.2,1.08,0.85,1.06c2.62-0.08,5.26,0.28,7.87-0.26
		c0.12-0.02,0.23,0.05,0.33,0.12c0.32,1.03-0.61,1.5-1,2.22c-2.37,2.99-4.46,6.18-6.74,9.23C27.24,152.37,26.97,152.91,26.44,153.24
		z"/>
	<path class="st3" d="M26.44,153.24c0.76-1.63,2-2.93,3.01-4.38c1.36-1.95,2.76-3.87,4.15-5.79c0.13-0.19,0.36-0.31,0.54-0.46
		c1.81-1.19,3.82-0.85,5.78-0.72c0.94,0.06,1.12,0.72,0.7,1.93c-0.75,1.65-2.13,2.82-3.19,4.23c-1.52,2.02-3.13,3.97-4.73,5.94
		c-0.37,0.45-0.75,0.96-1.46,0.88C29.6,154.48,27.98,153.97,26.44,153.24z"/>
	<path class="st8" d="M99.18,52.85c-0.4-1.05-1.47-1.61-2.74-1.36c-1.64,0.31-3.21-0.24-4.81-0.31c-1.62-0.07-3.19-0.43-4.79-0.48
		c-2.59-0.07-5.18,0.14-7.77-0.24c-0.41-0.06-0.8-0.04-1.01-0.48c3.89-0.9,7.56-2.43,11.29-3.82c2.47,0.76,5.03,0.57,7.56,0.68
		c1.93,0.08,1.94,0.02,1.89,1.95c0.12-1.46-0.32-2.89-0.23-4.35c0.1-1.5-0.09-3.02,0.15-4.52c0.86-0.27,0.41,0.47,0.41,0.65
		C99.19,44.65,99.18,48.75,99.18,52.85z"/>
	<path class="st9" d="M21.68,144.05c0.15,1.68,0.29,3.37,0.44,5.05c-1.17-0.18-2.12,0.48-3.13,0.85c-1.33,0.49-1.38,0.47-1.39-0.94
		c-0.01-3.65-0.01-7.31-0.02-10.96c-0.44-0.18-0.76-0.34-0.76-0.99c0.05-5.75,0.03-11.5,0.04-17.25c0.15-0.08,0.27-0.05,0.37,0.08
		c0.31,0.59,0.2,1.24,0.23,1.87c0.02,2.07,0.25,4.17,0.16,6.21c-0.12,2.63,0.03,5.27-0.21,7.94c0.49-0.27,0.96-0.41,1.46-0.46
		c1.08-0.1,1.49,0.19,1.58,1.28c0.28,3.58,0.73,7.14,0.95,9.8c-0.44-3.57-0.63-8.08-1.41-12.53c-0.32-4.31-0.83-8.61-1.2-12.92
		c-0.06-0.75-0.18-1.5,0.04-2.25c0.06-0.13,0.16-0.23,0.3-0.28c0.85,0.95,0.56,2.17,0.68,3.26c0.24,2.17,0.46,4.34,0.63,6.51
		c0.21,0.79-0.01,1.61,0.23,2.4c0.04,0.13,0.06,0.26,0.08,0.39c0.09,0.72-0.06,1.45,0.2,2.16c0.04,0.13,0.06,0.27,0.07,0.41
		c0.13,3.05,0.58,6.07,0.81,9.1C21.86,143.22,22.02,143.67,21.68,144.05z"/>
	<path class="st10" d="M55.99,52.6c0.08,0.16,0.16,0.33,0.24,0.49c-0.42,0.42-0.96,0.38-1.47,0.32c-5.04-0.56-10.11-0.76-15.14-1.33
		c-3.01-0.34-6.05-0.4-9.07-0.74c-2.2-0.25-4.06-1.34-5.92-2.43c-0.46-0.88-0.37-1,0.53-1.21c1.07-0.25,2.16,0.11,3.22-0.12
		c2.77,0.86,5.53,1.76,8.36,2.45c3.42,0.84,6.87,1.45,10.36,1.88c2.66,0.32,5.31,0.5,7.98,0.48C55.41,52.39,55.74,52.32,55.99,52.6z
		"/>
	<path class="st11" d="M28.39,47.58c-0.2,0.43-0.58,0.59-0.98,0.42c-0.94-0.41-1.84,0.14-2.76,0.08c-0.29-0.02-0.13,0.28-0.1,0.45
		c-0.5,0.33-0.93,0.01-1.34-0.2c-1.39-0.7-2.85-1.27-4.24-1.97c-0.9-0.46-1.03-0.37-1.05,0.63c-0.02,1.36,0.01,2.72-0.01,4.08
		c-0.01,0.51,0.06,1.05-0.37,1.46c-0.71,0.36-0.79-0.04-0.79-0.62c0.01-1.38,0.01-2.75,0-4.13c0-0.39,0.09-0.79-0.1-1.16
		c-0.35-2.11-0.25-4.23-0.21-6.61C19.89,43.75,24.11,45.72,28.39,47.58z"/>
	<path class="st12" d="M98.74,39.91c0.25,0.21,0.21,0.5,0.21,0.78c0,2.83,0,5.66,0,8.53c-0.28-0.03-0.23-0.21-0.24-0.32
		c-0.06-1.64-0.1-1.41-1.75-1.66c-1.61-0.24-3.25,0.28-4.83-0.33c-0.54-0.21-1.13,0.2-1.75,0c-0.45-0.15-0.79-0.33-1.02-0.73
		C92.72,44.43,96.04,42.64,98.74,39.91z"/>
	<path class="st13" d="M99.18,93.66c0,15.14,0.01,30.29-0.01,45.43c0,0.29,0.45,1-0.46,0.89c-0.13-0.55-0.13-1.1-0.13-1.66
		c0.01-3.91-0.07-7.82,0.03-11.73c0.07-2.7,0.33-5.4,0.23-8.11c-0.01-0.26,0.11-0.53,0-0.69c0,1.7,0.01,3.48-0.01,5.26
		c0,0.45,0.21,1.06-0.34,1.29c-0.63,0.26-1.01-0.25-1.37-0.69c-0.07-0.14-0.13-0.3-0.14-0.45c-0.08-4.06-0.06-8.11-0.01-12.17
		c0-0.16,0.06-0.31,0.13-0.46c0.54-0.54,1.11-0.79,1.72-0.13c-0.41-1.42-0.17-2.91-0.22-4.38c0.05-1.43-0.08-2.85-0.01-4.28
		c0.08-2.21-0.05-4.42-0.01-6.63C98.59,94.6,98.43,93.93,99.18,93.66z"/>
	<path class="st14" d="M97.28,123.65c0.14,0.06,0.32,0.09,0.42,0.19c0.2,0.21,0.43,0.45,0.71,0.35c0.36-0.13,0.3-0.52,0.3-0.84
		c0-1.72,0-3.44,0.01-5.15c0-0.26-0.11-0.55,0.23-0.89c0,0.43,0,0.74,0,1.05c0,6.79,0,13.59-0.01,20.38c0,0.42,0.16,0.89-0.24,1.24
		c-0.46-0.2-0.78-0.97-1.26-0.72c-0.43,0.23-0.16,0.94-0.17,1.43c-0.02,2.46,0,4.92-0.02,7.39c0,0.42,0.14,0.88-0.2,1.25
		c-0.29-0.89-0.12-1.81-0.12-2.72c-0.02-2.59-0.03-5.19,0.01-7.78c0.2-0.99,0.02-1.98,0.01-2.97c-0.03-3.66-0.02-7.32-0.01-10.98
		C96.94,124.44,96.91,123.99,97.28,123.65z"/>
	<path class="st15" d="M99.19,68.21c0,3.92,0,7.84,0,11.76C98.5,79.28,97.7,78.7,97.02,78c-0.18-3.76-0.07-7.52-0.06-11.29
		c0-0.2,0.06-0.39,0.15-0.57c0.25-0.36,0.64-0.41,1.03-0.47c0.63-0.1,0.95,0.1,0.94,0.81C99.07,67.06,98.94,67.65,99.19,68.21z"/>
	<path class="st16" d="M97.28,78.29c1.16-0.04,1.59,0.76,1.91,1.68c0,3.28,0,6.56,0,9.85c-0.29,1.65-0.69,1.87-2.05,1.14
		c-0.22-0.36-0.2-0.76-0.2-1.16c-0.01-3.39-0.01-6.77,0-10.16C96.94,79.17,96.87,78.67,97.28,78.29z"/>
	<path class="st17" d="M97.08,138.77c-0.01,3.52-0.02,7.04-0.03,10.56c-0.09,0.08-0.18,0.15-0.26,0.23c0-4.32,0-8.63,0-12.95
		c-0.35-0.39-0.38-0.87-0.38-1.35c0-3.94-0.05-7.89,0.02-11.83c-0.05-4.24-0.05-8.47,0-12.71c-0.04-2.73-0.05-5.45,0-8.18
		c-0.05-3.43-0.05-6.86,0-10.28c-0.05-1.74-0.02-3.48-0.02-5.22c0-0.43,0.01-0.87,0.28-1.25c0.14-0.12,0.27-0.12,0.41,0.01
		c0.11,5.26,0.38,10.52,0.26,15.79c0,0.88,0.02,1.76-0.01,2.63c-0.32,11.28-0.2,22.56-0.22,33.84
		C97.15,138.3,97.17,138.54,97.08,138.77z"/>
	<path class="st18" d="M97.28,91.01c0.96,0.13,1.77-0.01,1.91-1.19c0,1.28-0.01,2.56-0.01,3.84c-0.39,0.4-0.21,0.91-0.22,1.36
		c-0.02,2.26-0.01,4.53-0.01,6.79c-0.32,0.04-0.4-0.19-0.47-0.42c-0.12-0.39-0.15-0.79-0.09-1.18c0.16-1.11-0.08-1.97-1.22-2.4
		C97.23,95.54,97.01,93.27,97.28,91.01z"/>
	<path class="st19" d="M16.87,79.01c0.08-2.25-0.18-4.48-0.25-6.72c0.01-3.67,0.03-7.35,0.04-11.02c0.76,0.29,0.57,0.97,0.54,1.5
		c-0.06,0.93-0.02,1.87-0.18,2.54c0.03,0.41,0.29,0.27,0.13,0.28c-0.03,0-0.05-0.01-0.05-0.03c-0.1-0.61,0.02-1.22,0.09-1.82
		c0.03-0.23,0.19-0.45,0.5-0.26c0.48,0.92,0.22,1.91,0.27,2.87c-0.09,2.37,0.08,4.75-0.09,7.12c-0.36,1.93-0.09,3.87-0.17,5.81
		c-0.03,0.67,0.02,1.35-0.02,2.02c-0.02,0.41,0.06,0.9-0.54,1.11C16.77,81.28,17.21,80.11,16.87,79.01z"/>
	<path class="st20" d="M99.19,68.21c-0.22-0.16-0.28-0.4-0.23-0.64c0.3-1.46-0.39-1.82-1.68-1.52c-0.12-0.11-0.24-0.24-0.25-0.4
		c-0.08-2.02-0.3-4.05,0.13-6.06c1.42-0.68,1.89-0.41,1.92,1.08c0.01,0.43-0.11,0.88,0.11,1.29C99.19,64.05,99.19,66.13,99.19,68.21
		z"/>
	<path class="st21" d="M99.19,61.97c-0.26-0.2-0.23-0.48-0.24-0.76c-0.07-1.64-0.08-1.64-1.67-1.64c-0.44-0.56-0.41-1.12-0.01-1.68
		c0-0.84-0.03-1.67,0.02-2.5c0.02-0.32-0.37-0.95,0.48-0.89c0.64,0.05,1.18,0.08,1.2,0.95c0.02,0.65-0.25,1.35,0.22,1.96
		C99.19,58.93,99.19,60.45,99.19,61.97z"/>
	<path class="st22" d="M16.65,46.62c0.48,1.66,0.11,3.35,0.21,5.02c0.03,0.52-0.02,0.99,0.73,0.73c0.57,0.68,0.31,1.49,0.35,2.25
		c0.04,0.74,0.01,1.48,0.02,2.22c0.09,0.43-0.04,0.86,0.02,1.29c0,0.31-0.05,0.61-0.1,0.92c-0.06,0.26-0.12,0.51-0.39,0.64
		c-0.52,0.12-0.72-0.1-0.74-0.62c-0.01-0.55,0.12-1.11-0.1-1.66C16.65,53.82,16.65,50.22,16.65,46.62z"/>
	<path class="st23" d="M16.65,57.43c0.39,0.4,0.2,0.9,0.21,1.35c0.01,0.52,0.14,0.85,0.73,0.8c0.64,0.88,0.19,1.91,0.37,2.85
		c0.03,0.13,0.04,0.25,0.02,0.38c-0.05,0.26-0.17,0.48-0.42,0.6c-0.42,0.73-0.06,1.65-0.61,2.42c-0.29-1.54,0.22-3.09-0.29-4.56
		C16.66,59.99,16.65,58.71,16.65,57.43z"/>
	<path class="st24" d="M31.51,41.57c0.25,0.35,0.63,0.21,0.96,0.24c0.23,0.2,0.85,0.16,0.47,0.74c-1.64-0.25-3.29-0.48-4.59-1.68
		c0.57-0.45,1.01,0.08,1.51,0.19C30.43,41.19,30.89,41.65,31.51,41.57z"/>
	<path class="st25" d="M61.78,158.36c0.53-0.82,1.44-0.94,2.27-1.16c0.75-0.2,1.02,0.43,1.28,0.97
		C64.15,158.23,62.97,158.3,61.78,158.36z"/>
	<path class="st4" d="M32.94,42.56c0.06-0.39-0.32-0.49-0.47-0.74c1.45,0.22,2.79,0.86,4.26,0.98c0.02,0,0.03,0.05,0.05,0.08
		c-0.09,0.05-0.18,0.1-0.27,0.16C35.3,43.05,34.11,42.94,32.94,42.56z"/>
	<path class="st26" d="M17.11,121.73c0-0.64,0-1.28,0-1.92c-0.27-2.41-0.04-4.83-0.12-7.24c-0.02-0.47,0.13-0.95-0.12-1.4
		c0-3.04,0-6.08,0-9.12c0.33-0.68-0.08-1.47,0.29-2.25c0.85,0.7,0.31,1.67,0.65,2.41c0.1,0.48,0.12,0.98,0.29,1.44
		c0.29,3.93,0.83,7.83,1.07,11.76c0.06,1.05,0.52,2.11-0.11,3.13c-0.02,0.1-0.04,0.19-0.05,0.29c-0.48-0.03-0.43-0.43-0.43-0.7
		c-0.04-2.67-0.4-5.32-0.66-7.97c-0.16-1.61-0.49-3.21-0.55-4.61c-0.07,2.37,0.66,4.89,0.83,7.47c0.21,3.17,0.54,6.33,0.83,9.5
		c0.1,1.11,0.36,2.2,0.27,3.33c-1.43,0.83-1.89,0.56-1.95-1.07C17.3,123.77,17.58,122.72,17.11,121.73z"/>
	<path class="st27" d="M16.87,79.01c0.58,0.98-0.02,2.11,0.48,3.11c0-2.42-0.01-4.83,0.01-7.25c0-0.46-0.15-0.96,0.19-1.38
		c0.37,0.27,0.37,0.69,0.37,1.08c0.01,6.02,0.03,12.05-0.01,18.07c0,0.16-0.04,0.32-0.08,0.47c-0.28,0.52-0.52,0.38-0.67-0.08
		c-0.14-0.46,0.09-0.91,0.09-1.35c-0.11,0.17,0.11,0.6-0.38,0.52C16.87,87.81,16.87,83.41,16.87,79.01z"/>
	<path class="st28" d="M16.87,92.21c0.42-0.3,0.12-0.82,0.36-1.29c0.32,0.88-0.14,1.74,0.32,2.49c0.25,0.17,0.34,0.44,0.34,0.72
		c0,1.53,0.17,3.06-0.1,4.58c-0.32,0.46-0.52,0.21-0.63-0.14c-0.15-0.47,0.09-0.94,0.08-1.39c0.04-0.18-0.19-0.04-0.03-0.02
		c0.03,0,0.02,0.04,0.01,0.11c-0.04,0.22,0.03,0.51-0.36,0.45C16.87,95.89,16.87,94.05,16.87,92.21z"/>
	<path class="st29" d="M16.87,97.73c0.42-0.3,0.13-0.82,0.36-1.29c0.32,0.88-0.14,1.75,0.32,2.49c0.61,1.11,0.55,2.23,0.04,3.36
		c-0.52-0.65-0.03-1.47-0.34-2.2c-0.37,0.64,0.16,1.4-0.38,1.96C16.87,100.62,16.87,99.18,16.87,97.73z"/>
	<path class="st30" d="M16.87,111.17c0.39,0.35,0.23,0.82,0.24,1.24c0.01,2.47,0.01,4.94,0.01,7.4c-0.08,0-0.16,0-0.24,0
		C16.87,116.93,16.87,114.05,16.87,111.17z"/>
	<path class="st31" d="M96.79,123.41c0,4.4,0,8.8,0,13.2c-5.34,0-10.69-0.01-16.03,0.02c-0.4,0-1.13-0.34-1.16,0.4
		c-0.03,0.67,0.66,0.51,1.11,0.55c0.91,0.08,1.62,0.98,1.42,1.81c-0.07,0.31-0.3,0.14-0.48,0.12c-0.05-0.03-0.09-0.06-0.14-0.08
		c-0.29-0.32-0.61-0.6-1.05-0.71c-1.8-0.9-3.61-1.3-5.61-0.6c-1.47,0.51-2.37,1.5-3.01,2.83c-0.14,0.19-0.28,0.37-0.51,0.47
		c-0.26,0.16-0.2,0.49-0.33,0.85c-0.13-1.14,0.27-2.13,1.09-3.44c0.7-1.11,2.01-1.18,2.96-1.89c-0.44-0.49-0.95-0.31-1.4-0.31
		c-5.26-0.01-10.52,0-15.79-0.01c-0.51,0-1.21,0.23-1.17-0.72c-0.11-0.19-0.1-0.41,0.02-0.56c1.06-1.4,1.94-2.95,3.15-4.24
		c1.89-2.15,3.58-4.47,5.31-6.75c0.38-0.5,0.69-1.11,1.47-1.07c0.7-0.21,1.42-0.24,2.14-0.24c8.72,0,17.43,0,26.15,0
		C95.59,123.04,96.25,122.95,96.79,123.41z"/>
	<path class="st32" d="M60.07,131.33c-1.23,1.44-2.31,2.99-3.36,4.56c-1.38,1.42-2.59,2.97-3.8,4.52c-0.3,0.38-0.57,0.76-0.99,1
		c-1.24-0.18-2.42,0.43-3.68,0.26c-0.86-0.11-1.74-0.02-2.61-0.02c-0.71,0-1.44,0.13-1.82-0.73c-0.09-0.22-0.35-0.04-0.53,0.01
		c-0.26-1.01,0.6-1.46,1.08-2.05c1.84-2.22,3.67-4.47,5.39-6.78c0.29-0.56,0.7-0.98,1.26-1.27c0.5-0.19,1.17-0.66,0.93,0.5
		c-0.11,0.55,0.23,0.62,0.61,0.62c1.79,0.02,3.58,0.05,5.37-0.01c0.62-0.02,0.96-0.49,1.37-0.87
		C59.79,130.6,59.91,130.65,60.07,131.33z"/>
	<path class="st33" d="M71.59,140.93c0.9-3.33,5.67-4.6,9.13-2.4c0.37,0.27,0.72,0.56,0.94,0.97c0,0,0,0,0,0
		c1.73,3.08-1.41,5.69-3.99,5.76c-0.41,0.01-0.78,0.09-1.15,0.27c-0.98,0.47-1.91,0.45-2.77-0.28
		C71.62,144.96,71.13,143.34,71.59,140.93z"/>
	<path class="st6" d="M60.91,150.28c-1.29,0.04-2.47-0.74-2.52-1.53c-0.08-1.2,0.88-2.23,2.22-2.29c0.69-0.03,1.37-0.37,2.09,0.01
		c0.9,0.47,1.19,1.38,0.55,2.16C62.59,149.44,61.77,150.05,60.91,150.28z"/>
	<path class="st34" d="M71.59,140.93c0.04,0.7-0.13,1.42,0.11,2.11c0.36,1.04,0.95,1.86,2.06,2.21c-0.86-0.02-1.64,0.14-2.33,0.73
		c-0.6,0.52-1.34,0.51-1.99,0.07c-0.5-0.34-1-0.82-0.9-1.46c0.12-0.75,0.48-1.44,1.33-1.7c0.76-0.22,1.77-0.21,1.47-1.48
		C71.36,141.22,71.4,141.04,71.59,140.93z"/>
	<path class="st35" d="M49.99,132.29c-2.12,2.64-4.23,5.28-6.36,7.92c-0.18,0.22-0.36,0.42-0.36,0.72c-1.09,0.77-1.46,2.2-2.63,2.88
		c-0.01-1.68-0.01-1.71-1.8-1.67c-1.45,0.03-2.96-0.31-4.28,0.62c-0.14,0.1-0.3-0.01-0.4-0.15c0.17-0.78,0.96-1.18,1.2-1.92
		c0.1-0.38,0.25-0.73,0.49-1.06c1.96-2.69,4.02-5.31,5.81-8.13c0.11-0.18,0.27-0.29,0.47-0.33c0.13-0.02,0.25-0.02,0.38,0
		c1.73-0.36,3.47-0.45,5.23-0.42C48.88,130.76,49.67,131.15,49.99,132.29z"/>
	<path class="st36" d="M17.6,58.86c0.08-0.21,0.16-0.42,0.23-0.63c0.15-0.77,1.08-0.74,1.39-1.4c-0.55-0.14-0.93,0.36-1.43,0.35
		c-0.47-1.58-0.08-3.2-0.21-4.8c0-1.95,0.06-3.89-0.02-5.84c-0.05-1.14,0.4-1.04,1.16-0.68c1.75,0.85,3.5,1.68,5.26,2.5
		c0.18,0.08,0.38,0.11,0.56,0.17c2.6,1.46,5.24,2.6,8.35,2.7c3.23,0.11,6.49,0.3,9.69,0.85c0.98,0.17,1.99,0.17,2.96,0.21
		c3.57,0.13,7.1,0.74,10.67,0.79c0.08,0,0.16,0,0.24,0c0.77,0.34,1.63-0.09,2.4,0.24c1.34,0.46,2.76,0.27,4.14,0.43
		c3.31,0.38,6.65,0.53,9.98,0.78c0.18,0.01,0.35,0.15,0.53,0.23c-0.41,0.37-0.91,0.24-1.38,0.23c-9.15-0.11-18.25,0.72-27.32,1.82
		c-1.04,0.13-2.07,0.34-3.12,0.48c-0.16,0.01,0.06,0.25-0.01,0.11c-0.01-0.02,0.01-0.03,0.07-0.04c5.53-1.02,11.12-1.43,16.72-1.89
		c5.58-0.46,11.16-0.52,16.75-0.46c1.35,0.02,2.7,0.04,4.04,0.23c1.37-0.02,2.74-0.01,4.09,0.23c0.71-0.16,1.42-0.18,2.13-0.04
		c0.09,0.14,0.08,0.27-0.05,0.39c-1.01,0.48-2.07,0.14-3.1,0.23c-3.98-0.43-7.98-0.13-11.97-0.23c-3.2-0.08-6.39,0.05-9.57,0.28
		c-5.24,0.38-10.49,0.74-15.69,1.56c-3.14,0.32-6.26,0.85-9.36,1.42c-0.35,0.07-0.71,0.08-1.06,0.08c-0.47,0-0.94-0.05-1.41,0.03
		c-0.1,0.03-0.21,0.06-0.31,0.08c-0.35,0.07-0.72,0.06-1.06,0.17c-0.09,0.03-0.19,0.06-0.29,0.08c-0.29,0.05-0.59,0.06-0.88,0.15
		c-0.09,0.03-0.19,0.06-0.29,0.08c-0.34,0.06-0.69,0.06-1.02,0.19c-0.1,0.04-0.2,0.06-0.3,0.08c-0.65,0.05-1.28,0.18-1.91,0.36
		c-0.1,0.03-0.2,0.06-0.3,0.08c-0.35,0.07-0.71,0.06-1.05,0.19c-0.1,0.04-0.2,0.06-0.3,0.08c-0.62,0.07-1.22,0.23-1.82,0.4
		c-0.1,0.04-0.21,0.06-0.31,0.09c-0.67,0.08-1.32,0.24-1.96,0.44c-0.11,0.04-0.23,0.07-0.35,0.09c-0.76,0.09-1.48,0.33-2.21,0.52
		c-0.37,0.09-0.89,0.3-1.03-0.19c-0.13-0.46,0.4-0.63,0.76-0.77c1.35-0.5,2.76-0.78,4.17-1.06c1.09-0.22,2.18-0.42,3.26-0.65
		c-2.48,0.55-5.02,0.11-7.51,0.38C17.57,60.12,17.8,59.33,17.6,58.86z"/>
	<path class="st37" d="M97,57.73c-0.01,0.06,0,0.11,0.04,0.16c0.25,1.87,0.07,3.74,0.1,5.61c0.03,1.88,0.01,3.75,0.01,5.63
		c-0.01,0.39-0.3,0.53-0.59,0.67c-4.18,2.11-8.6,3.35-13.27,3.71c-0.12-0.02-0.24-0.07-0.35-0.13c-0.19-0.17-0.13-0.35-0.02-0.53
		c1.67-2.64,3.05-5.46,5.04-7.89c1.64-2.22,3-4.63,4.59-6.88c0.34-0.48,0.6-1.05,1.19-1.31c0.62-0.12,1.21,0.13,1.81,0.2
		C96.07,57.18,96.68,57.18,97,57.73z"/>
	<path class="st2" d="M97,57.73c-0.48-0.15-0.95-0.3-1.43-0.44c-0.65-0.28-1.29-0.57-2.03-0.44c-0.13,0.02-0.26,0.01-0.39-0.03
		c-2.17-0.34-4.34-0.79-6.55-0.77c-0.45,0-0.87-0.09-1.09-0.55c-0.72,0-1.43-0.01-2.15-0.01c1.78-0.53,3.63-0.64,5.45-0.95
		c2.3-0.39,4.61-0.72,6.9-1.14c0.97-0.18,1.43,0.01,1.34,1.11C96.96,55.58,97.01,56.66,97,57.73z"/>
	<path class="st38" d="M79.27,55.25c-12.68-0.24-25.32,0.32-37.9,2.11c10.64-1.81,21.36-2.68,32.14-2.59
		C75.45,54.76,77.37,54.8,79.27,55.25z"/>
	<path class="st39" d="M96.98,69.41c0.02-3.84,0.04-7.68,0.06-11.52c0.08,0,0.15,0,0.23,0c0,0.56,0,1.12,0.01,1.68
		c0,2.16,0,4.32,0,6.48c0,4.08,0,8.16,0,12.24c0,4.24,0,8.48,0,12.72c0,2.32,0,4.64,0,6.96c0.59,1.12,0.4,2.28,0.16,3.45
		c-0.08,0.15-0.2,0.2-0.36,0.16c-0.01-4.73-0.03-9.46-0.04-14.18c0-0.56-0.03-1.11-0.05-1.67c-0.54-0.88-0.22-1.85-0.29-2.78
		c-0.05-0.67,0-1.34-0.02-2.02c-0.08-2.47-0.01-4.93-0.01-7.4C96.76,72.15,96.35,70.74,96.98,69.41z"/>
	<path class="st10" d="M58.87,53.33c-0.8-0.11-1.64,0.25-2.4-0.24C57.27,53.2,58.11,52.84,58.87,53.33z"/>
	<path class="st40" d="M42.07,131.34c-2.04,3.26-4.36,6.32-6.72,9.36c-2.18,0.35-4.37,0.23-6.56,0.24c-0.72,0-1.44,0-2.16,0
		c-0.48,0-1.04,0.03-1.26-0.47c-0.23-0.51,0.44-0.56,0.64-0.87c0.14-0.21,0.24-0.4,0.14-0.69c-0.23,0.13-0.44,0.24-0.64,0.35
		c-0.33-0.49,0.05-0.84,0.29-1.18c1.54-2.19,2.98-4.45,4.51-6.65c0.31-0.45,0.62-0.96,1.29-0.94c0.87,0.66,1.85,0.81,2.91,0.74
		c2.29-0.14,4.6,0.25,6.87-0.29C41.67,130.87,42.05,130.85,42.07,131.34z"/>
	<path class="st41" d="M31.27,130.61c-1.98,2.84-4.03,5.63-5.76,8.64c-1.28,1.39-2.13,3.07-3.14,4.64
		c-0.21,0.33-0.33,0.64-0.68,0.16c-0.43-3.51-0.82-7.03-0.99-10.56c0.56-0.03,0.37,0.45,0.39,0.69c0.17,2.02,0.53,4.03,0.47,5.49
		c-0.01-2.45-0.5-5.45-0.82-8.45c-0.05-0.48-0.13-0.95-0.12-1.43c0.05-1.76,0.64-2.38,2.39-2.39c2.28-0.02,4.55-0.01,6.83,0
		c1.73,0.01,1.76,0.05,1.72,1.81c0,0.2,0.02,0.4,0.07,0.59C31.72,130.15,31.61,130.43,31.27,130.61z"/>
	<path class="st42" d="M31.51,129.89c-0.6-0.34-0.46-1.07-0.31-1.36c0.52-0.97-0.14-0.8-0.64-0.8c-2.64-0.01-5.28,0.05-7.91-0.03
		c-1.26-0.04-1.65,0.72-1.66,1.66c-0.01,1.58,0.17,3.17,0.3,4.76c0.17,2.09,0.51,4.17,0.27,6.29c-0.08-1.95-0.43-3.87-0.6-5.81
		c-0.03-0.38,0.13-0.81-0.26-1.11c-0.04-0.06-0.04-0.12,0-0.18c-0.29-0.72,0.12-1.51-0.23-2.22c-0.04-0.06-0.04-0.12-0.01-0.18
		c-0.13-0.2-0.1-0.41-0.04-0.63c0.03-2.74-0.43-5.44-0.6-8.16c-0.08-1.3-0.22-2.61-0.39-3.91c-0.08-0.58-0.12-1.2,0.24-1.74
		c0.93-0.31,1.1,0.32,0.98,0.94c-0.2,1.08,0.37,1.23,1.22,1.42c2.41,0.55,4.85,0.35,7.28,0.38c2.16,0.03,4.31-0.04,6.47,0.03
		c1.45,0.04,1.82,0.36,2.1,1.6c-0.04,0.99-0.55,1.71-1.36,2.25c-0.75,0.02-1.4-0.35-2.11-0.5c-0.1-0.07-0.15-0.16-0.17-0.28
		c0.13-0.19,0.34-0.24,0.54-0.33c-0.19,0.05-0.37,0.14-0.52,0.28c-0.96,0.74-1.89,1.48-1.37,2.91c0.26,0.37,0.23,0.84,0.43,1.23
		c0.1,0.2,0.2,0.41,0.22,0.64C33.16,128.27,32.45,129.16,31.51,129.89z"/>
	<path class="st30" d="M17.11,121.73c0.49,0.22,0.49,0.66,0.48,1.1c-0.01,0.51,0,1.02,0,1.53c0,1.71,0,1.71,1.68,1.45
		c0.39,2.52,0.58,5.06,0.84,7.6c0.02,0.19-0.01,0.4,0.13,0.56c0.54,0.78,0.26,1.7,0.36,2.54c0.45,3.7,0.74,7.42,1.08,11.13
		c0.01,0.15-0.02,0.31-0.04,0.66c-0.6-1.34-0.48-2.63-0.64-3.84c-0.33-2.43-0.51-4.89-0.73-7.33c-0.06-0.63,0.06-1.5-0.84-1.39
		c-0.75,0.09-2-0.26-1.93,1.35c-0.12-0.04-0.25-0.09-0.37-0.13c0-2.54-0.06-5.09,0.02-7.63C17.21,126.79,17.01,124.26,17.11,121.73z
		"/>
	<path class="st43" d="M19.75,116.45c0.12,4.04,0.57,8.05,0.92,12.07c0.05,0.61,0.23,1.26-0.18,1.84c-0.39-0.59,0.12-1.32-0.3-1.9
		c-0.31-2.92-0.62-5.84-0.92-8.75c-0.04-0.39,0.04-0.8-0.21-1.15c-0.17-4.19-0.76-8.34-1.08-12.52c-0.06-0.83-0.11-1.67-0.17-2.5
		c-0.21-1.58-0.06-3.16-0.08-4.74c0.83-0.09,0.63,0.58,0.67,0.99c0.26,2.21,0.44,4.43,0.7,6.64c0.03,0.21,0.03,0.42,0.02,0.63
		c-0.03,0.48,0.03,0.95,0.17,1.41c0.15,2.28,0.57,4.54,0.58,6.84C19.88,115.68,19.95,116.08,19.75,116.45z"/>
	<path class="st44" d="M20.23,133.97c-0.72-1.26-0.47-2.69-0.65-4.03c-0.18-1.35-0.46-2.73-0.31-4.13
		c-0.45-1.01-0.35-2.12-0.43-3.16c-0.34-4.15-0.93-8.28-1.01-12.44c-1.17-1.56-0.6-3.37-0.71-5.08c-0.02-0.32-0.15-0.71,0.28-1.07
		c0.37,0.84,0.28,1.73,0.38,2.53c0.36,2.95,0.45,5.93,0.82,8.88c0.14,1.13-0.04,2.3,0.41,3.38c0.25,4.3,0.63,8.59,1.19,12.86
		C20.29,132.45,20.22,133.22,20.23,133.97z"/>
	<path class="st41" d="M20.2,128.46c0.56,0.56,0.14,1.28,0.3,1.9c-0.01,0.18-0.03,0.36-0.04,0.54
		C20.11,130.12,20.25,129.28,20.2,128.46z"/>
	<path class="st41" d="M20.46,131.09c0.49,0.7,0.15,1.48,0.23,2.22C20.38,132.59,20.46,131.84,20.46,131.09z"/>
	<path class="st45" d="M97.27,101.57c0-1.2,0.01-2.4,0.01-3.6c1.43-0.37,1.39-0.37,1.45,1.15c0.04,0.89-0.29,1.83,0.22,2.69
		c0,1.44,0,2.88,0,4.32c-0.52-0.57-1.15-1.01-1.8-1.43C97.22,103.66,97.02,102.61,97.27,101.57z"/>
	<path class="st46" d="M97.28,104.94c1.39-0.76,1.37,0.44,1.67,1.2c0,1.5,0,3,0,4.59c-0.51-0.73-1.13-0.14-1.67-0.27
		C97.07,108.62,97.07,106.78,97.28,104.94z"/>
	<path class="st47" d="M97.28,104.94c0,1.84,0,3.68,0,5.52c0,4.4,0,8.8,0,13.2c0,4.62,0,9.24-0.01,13.86c0,0.42,0.14,0.88-0.19,1.26
		c-0.01-3.44-0.04-6.88-0.04-10.32c0.01-8.96,0.03-17.92,0.04-26.88c0.06,0,0.13,0,0.19-0.01
		C97.27,102.69,97.28,103.82,97.28,104.94z"/>
	<path class="st48" d="M96.79,123.41c-9.4,0-18.8,0-28.2,0.01c-0.62,0-1.27-0.13-1.84,0.32c-0.28,0.23-0.4-0.07-0.44-0.33
		c-0.3-0.42,0.02-0.66,0.26-0.92c1.92-2.25,3.6-4.67,5.18-7.16c0.3-0.47,0.63-0.93,1.07-1.28c0.53-0.46,0.75-1.29,1.59-1.39
		c0.52-0.24,0.96-0.59,1.28-1.05c0.72-1.02,1.7-1.3,2.9-1.29c5.49,0.03,10.99,0.01,16.48,0.02c0.59,0,1.21-0.08,1.71,0.36
		C96.79,114.93,96.79,119.17,96.79,123.41z"/>
	<path class="st49" d="M96.79,110.69c-6.16,0-12.32,0.02-18.47-0.02c-1.01-0.01-1.74,0.2-2.29,1.13c-0.33,0.56-0.93,0.97-1.46,1.38
		c-0.21,0.16-0.3-0.14-0.33-0.33c-0.28-0.33-0.06-0.6,0.13-0.85c1.92-2.6,3.7-5.3,5.66-7.87c0.48-0.42,0.67-1.1,1.27-1.42
		c0.45,0.09,0.24-0.29,0.31-0.46c0.17-0.43,0.44-0.61,0.89-0.38c0.63,0.33,1.31,0.29,1.99,0.29c3.5,0,7,0,10.5,0.01
		c0.63,0,1.29-0.09,1.82,0.37C96.79,105.25,96.79,107.97,96.79,110.69z"/>
	<path class="st50" d="M96.79,102.54c-4.46,0-8.92,0-13.38,0c-0.55,0-1.17,0.11-1.26-0.72c-0.21-0.56,0.21-0.89,0.47-1.27
		c1.66-2.34,3.23-4.74,4.89-7.08c0.41-0.61,0.86-1.18,1.64-1.33c2.24-0.5,4.51-0.25,6.76-0.26c0.32,0,0.62,0.12,0.87,0.34
		C96.79,95.66,96.79,99.1,96.79,102.54z"/>
	<path class="st51" d="M96.79,92.22c-2.64,0.04-5.29-0.15-7.92,0.24c-0.32-0.41-0.05-0.77,0.16-1.08c1.94-2.85,3.75-5.79,5.89-8.51
		c0.34-0.37,0.61-0.8,0.96-1.16c0.26-0.28,0.55-0.59,0.98-0.22c0.06,1.42,0.16,2.84-0.06,4.25C96.79,87.9,96.79,90.06,96.79,92.22z"
		/>
	<path class="st50" d="M96.79,85.74c-0.15-1.44,0.3-2.91-0.24-4.32c-0.18-0.45-0.07-0.64,0.43-0.48c0,1.6,0.01,3.19,0.01,4.79
		C96.92,85.73,96.86,85.74,96.79,85.74z"/>
	<path class="st52" d="M17.56,63.41c0.09-0.17,0.17-0.34,0.26-0.51c1.8-0.65,3.67-1.01,5.54-1.37c0.43-0.08,0.87-0.14,1.26,0.16
		c0.34,0.5,0.31,1.07,0.21,1.61c-0.15,0.84,0.05,1.3,0.99,1.28c0.35-0.01,0.7,0.12,1.01,0.32c0.32,0.26,0.17,0.52-0.06,0.69
		c-1.42,1.02-2.5,2.41-3.88,3.48c-0.71,0.24-1.2-0.29-1.76-0.53c-1.13-0.48-2.22-1.05-3.23-1.76c-0.1-0.14-0.19-0.3-0.24-0.47
		C17.62,65.34,17.59,64.38,17.56,63.41z"/>
	<path class="st53" d="M17.65,66.31c0.06,0.08,0.12,0.16,0.19,0.24c0.33,0.48,0.38,1.03,0.38,1.6c-0.01,1.63,0.04,3.26-0.03,4.88
		c-0.05,4.23,0.07,8.46,0,12.68c0.04,3.73,0.06,7.47,0,11.2c-0.02,0.61,0.14,1.26-0.35,1.78c-0.01,1.61-0.01,3.22-0.02,4.83
		c-0.27-0.37-0.11-0.83-0.23-1.23c-0.01-1.12-0.02-2.24-0.04-3.36c0-1.84,0-3.68,0-5.52c0-6.64,0-13.28,0-19.92
		C17.58,71.1,17.62,68.7,17.65,66.31z"/>
	<path class="st54" d="M17.6,58.86c0.25,0.68,0.54,0.96,1.43,0.78c1.14-0.23,2.37-0.06,3.55-0.06c1.03,0,2.06,0.01,3.08-0.21
		c0.41-0.09,0.95-0.21,1.42,0.32c-3.05,0.89-6.23,1.02-9.08,2.37c1.18-0.01,2.25-0.71,3.45-0.53c-1.05,0.94-2.36,1.03-3.66,1.17
		c-0.44-1.01-0.08-2.08-0.2-3.11C17.59,59.34,17.59,59.1,17.6,58.86z"/>
	<path class="st55" d="M17.8,57.18c0.5-0.71,1.22-0.78,2.06-0.73c-0.34,1.05-1.34,1.23-2.02,1.78
		C17.41,57.89,17.75,57.53,17.8,57.18z"/>
	<path class="st56" d="M17.79,62.69c1.22-0.39,2.44-0.78,3.66-1.17c0,0-0.02,0-0.02,0c0.71-0.24,1.46-0.31,2.18-0.49l-0.02,0.01
		c0.71-0.23,1.46-0.31,2.18-0.49l-0.02,0.01c0.35-0.34,0.85,0.02,1.21-0.25l-0.02,0.01c0.78-0.27,1.61-0.33,2.41-0.49l-0.02,0.01
		c0.36-0.32,0.85,0.02,1.22-0.25l-0.02,0.01c0.36-0.32,0.85,0.02,1.22-0.25l-0.02,0.01c0.36-0.33,0.85,0.01,1.22-0.25l-0.02,0.01
		c0.45-0.29,0.95-0.09,1.43-0.15c1.99-0.06,3.92-0.52,5.86-0.86c0.54-0.09,1.11,0.02,1.63-0.28c0.23-0.13,0.6-0.17,0.71,0.17
		c0.14,0.42-0.23,0.56-0.53,0.63c-1.2,0.28-2.41,0.56-3.64,0.72c-4.08,0.54-8.1,1.36-12.1,2.28c-0.58,0.13-1.17,0.28-1.77,0.08
		c-2.12,0.19-4.18,0.66-6.2,1.34c-0.29,0.1-0.49,0.31-0.54-0.17C17.81,62.83,17.8,62.76,17.79,62.69z"/>
	<path class="st57" d="M66.79,122.69c-0.32,0.14-0.48,0.38-0.48,0.72c-2.13,2.6-4,5.41-6.24,7.92c-0.12-0.58-0.36-0.47-0.56-0.07
		c-0.51,0.98-1.36,1.08-2.34,1.05c-1.48-0.05-2.96,0-4.44-0.02c-0.46-0.01-1.02,0.2-1.35-0.25c-0.4-0.54,0.49-0.72,0.46-1.25
		c-0.32,0.11-0.6,0.21-0.88,0.31c-0.36-0.71,0.28-1,0.62-1.38c1.59-1.74,3.1-3.55,4.51-5.44c0.87-0.96,1.45-2.21,2.69-2.82
		c0.94,0.74,2.04,0.69,3.15,0.67c1.36-0.02,2.72-0.01,4.08,0C66.35,122.12,66.99,121.89,66.79,122.69z"/>
	<path class="st3" d="M81.66,139.5c-0.39-0.25-0.72-0.57-0.94-0.97C81.28,138.61,81.61,138.92,81.66,139.5z"/>
	<path class="st58" d="M56.23,124.38c-0.53,1.41-1.86,2.22-2.61,3.46c-0.74,1.22-2.11,1.91-2.67,3.26c-0.41,0.33-0.8,0.68-0.97,1.2
		c-1.81-2.09-4.1-1.12-6.25-0.93c-0.49,0.04-0.96,0.42-1.43-0.03c-0.15-0.45,0.16-0.75,0.38-1.06c1.39-1.97,2.89-3.86,4.12-5.94
		c0.3-0.51,0.68-0.98,1.24-1.25c0.12-0.03,0.24-0.04,0.36-0.03c2.14-0.63,4.34-0.46,6.53-0.41
		C56.23,122.67,56.49,123.08,56.23,124.38z"/>
	<path class="st59" d="M48.07,123.18c-1.92,2.72-3.84,5.44-5.76,8.16c-0.08,0-0.16,0-0.24,0c-0.13-0.07-0.29-0.23-0.39-0.2
		c-2.91,0.94-5.91,0.15-8.84,0.47c-0.93,0.1-0.79-1.09-1.57-0.99c0.08-0.24,0.16-0.48,0.24-0.72c0.43-1.05,1.49-1.72,1.7-2.9
		c1.61,0.61,2.6-0.18,3.38-1.48c0.04-0.06,0.14-0.07,0.21-0.1c0.85-1.59,2.28-1.72,3.86-1.63c1.19,0.07,2.4,0,3.59,0.02
		c0.93,0.01,1.83,0,2.62-0.62C47.22,122.9,47.67,122.81,48.07,123.18z"/>
	<path class="st60" d="M24.55,61.73c2.89-0.81,5.84-1.34,8.79-1.91c3.01-0.58,6.07-0.89,9.05-1.71c-2.71,0.09-5.33,0.97-8.05,0.96
		c-0.04-0.1-0.01-0.17,0.1-0.2c2.95-0.45,5.89-0.9,8.84-1.33c0.55-0.08,1.11-0.1,1.66-0.15c2.23,0.04,4.43-0.35,6.64-0.55
		c4.96-0.44,9.93-0.85,14.91-0.98c4.35-0.12,8.7-0.12,13.05-0.01c1.24,0.03,2.47,0.08,3.69,0.33c0.94,0.46,0.34,0.96,0.01,1.42
		c-1.81,2.48-3.7,4.9-5.51,7.39c-0.74,0.84-1.02,2.18-2.46,2.27c-0.84-0.08-1.68-0.1-2.51-0.1c-9.31,0-18.61,0.01-27.92-0.01
		c-1.95,0-3.88-0.15-5.64-1.23c-0.7-0.43-1.65-0.19-2.45-0.49c-0.36-0.06-0.67-0.24-0.99-0.41c-2.3-1.2-4.67-1.39-7.12-0.49
		c-0.56,0.21-0.95,0.93-1.7,0.57c-0.82-0.12-1.85,0.03-2.39-0.42c-0.61-0.51,0.2-1.53-0.01-2.35
		C24.51,62.14,24.55,61.93,24.55,61.73z"/>
	<path class="st61" d="M77.59,64.85c0.75-1.34,1.75-2.49,2.64-3.73c1.12-1.56,2.42-2.98,3.36-4.67c0-0.37-0.26-0.23-0.45-0.26
		c-0.31-0.03-0.75,0.13-0.73-0.45c1.03,0.01,2.07,0.01,3.1,0.02c2.67,0.09,5.31,0.38,7.92,0.95l-0.02-0.01
		c0.1,0.06,0.24,0.09,0.26,0.24c-1.66,2.51-3.32,5.03-4.97,7.55c-0.15,0.23-0.27,0.49-0.55,0.6c-1.15,0.9-2.47,1.14-3.91,1.07
		c-1.5-0.07-3.01-0.05-4.52-0.01C78.69,66.2,77.96,65.85,77.59,64.85z"/>
	<path class="st62" d="M82.4,55.75c0.34,0.38,0.79,0.14,1.18,0.23c0.62,0.14-0.04,0.32,0,0.48c-3.44-0.41-6.91-0.37-10.35-0.42
		c-4.8-0.07-9.62,0.16-14.42,0.45c-4.15,0.25-8.28,0.77-12.42,1.14c-0.48,0.04-1.04,0.23-1.47-0.24c2.38-0.54,4.82-0.64,7.23-0.91
		c9.38-1.02,18.79-1.16,28.21-0.93C81.06,55.57,81.73,55.68,82.4,55.75z"/>
	<path class="st63" d="M93.43,56.72c-2.64-0.32-5.28-0.63-7.92-0.95c0-0.09,0-0.18,0.01-0.27c1.42,0.49,2.92,0.11,4.36,0.46
		C91.05,56.24,92.3,56.17,93.43,56.72z"/>
	<path class="st64" d="M29.37,59.83c-0.77,0.31-1.58,0.49-2.41,0.49C27.69,59.8,28.52,59.79,29.37,59.83z"/>
	<path class="st54" d="M25.77,60.55c-0.68,0.36-1.42,0.46-2.18,0.49C24.26,60.58,25,60.49,25.77,60.55z"/>
	<path class="st54" d="M23.61,61.03c-0.68,0.35-1.42,0.46-2.18,0.49C22.09,61.06,22.84,60.98,23.61,61.03z"/>
	<path class="st64" d="M34.44,58.87c-0.03,0.07-0.07,0.13-0.1,0.2c-0.46,0.02-0.92,0.04-1.39,0.05
		C33.38,58.63,33.94,58.93,34.44,58.87z"/>
	<path class="st64" d="M32.97,59.11c-0.36,0.32-0.8,0.24-1.22,0.25C32.09,58.91,32.56,59.15,32.97,59.11z"/>
	<path class="st54" d="M26.97,60.31c-0.36,0.31-0.79,0.25-1.21,0.25C26.08,60.11,26.56,60.35,26.97,60.31z"/>
	<path class="st64" d="M30.57,59.59c-0.36,0.3-0.8,0.24-1.22,0.25C29.69,59.4,30.16,59.63,30.57,59.59z"/>
	<path class="st64" d="M31.77,59.35c-0.36,0.29-0.79,0.25-1.22,0.25C30.89,59.16,31.36,59.39,31.77,59.35z"/>
	<path class="st65" d="M96.98,69.41c0,1.37,0,2.73,0,4.1c-0.05,0.62-0.33,1.1-0.74,1.57c-2.09,2.44-4.26,4.81-6.22,7.35
		c-0.46,0.45-0.87,0.94-1.24,1.48c-0.3,0.31-0.57,0.65-0.8,1.02c-0.93,0.89-1.5,2.09-2.53,2.91c-0.51,0.54-1.1,0.56-1.83,0.51
		c-3.13-0.2-6.26-0.19-9.4-0.01c-0.37,0.02-0.78,0.3-1.08-0.16c-0.07-1,0.69-1.63,1.11-2.41c0.21-0.38,0.52-0.69,0.75-1.06
		c2.37-3.43,4.63-6.94,6.89-10.44c0.31-0.48,0.61-0.91,1.21-1.01c4.39-0.48,8.66-1.43,12.64-3.44
		C96.14,69.62,96.52,69.37,96.98,69.41z"/>
	<path class="st66" d="M83.11,73.26c-1.43,1.5-2.31,3.38-3.48,5.07c-1.49,2.14-2.76,4.44-4.44,6.45c-1.09,0.43-2.22,0.59-3.38,0.58
		c-1.83-0.02-3.65,0-5.48-0.01c-0.48,0-0.95,0-1.42-0.13c-0.8-0.22-1.16-0.67-0.74-1.49c0.11-0.22,0.23-0.42,0.12-0.67
		c-0.07-0.85,0.58-1.36,0.96-1.99c0.25-0.4,0.65-0.71,0.81-1.17c1-1.67,2.17-3.21,3.4-4.72c0.18-0.16,0.35-0.35,0.59-0.44
		c0.62-0.2,1.29-0.06,1.91-0.31c3.26-0.47,6.52-0.99,9.79-1.42c0.4-0.05,0.8-0.09,1.12,0.24C82.95,73.25,83.03,73.26,83.11,73.26z"
		/>
	<path class="st67" d="M82.87,73.25c-2.54,0.35-5.08,0.72-7.62,1.06c-1.13,0.15-2.27,0.26-3.41,0.39c-0.17,0.14-0.37,0.13-0.56,0.11
		c-0.33-0.04-0.76,0.19-0.95-0.25c-0.14-0.33,0.09-0.61,0.28-0.86c0.32-0.41,0.5-0.9,0.78-1.33c0.14-0.2,0.34-0.34,0.52-0.48
		c0.94-0.94,1.61-2.09,2.37-3.17c0.09-0.14,0.18-0.26,0.28-0.39c0.32-0.48,0.67-0.94,1.12-1.31c0.94-0.45,1.1-1.59,1.91-2.16
		c0.11-0.02,0.33-0.07,0.33-0.06c0.34,1.32,1.4,1.01,2.3,1.02c1,0.01,2-0.07,3,0.02c1.71,0.15,3.34-0.15,4.94-0.73
		c-1.69,2.3-3.09,4.79-4.57,7.22C83.38,72.65,83.11,72.94,82.87,73.25z"/>
	<path class="st63" d="M93.67,56.95c-0.09-0.08-0.17-0.16-0.26-0.24c0.79-0.05,1.54,0.01,2.16,0.58
		C94.94,57.18,94.3,57.06,93.67,56.95z"/>
	<path class="st66" d="M89.83,82.37c0.87-1.43,2.03-2.64,3.09-3.91c1.17-1.4,2.41-2.74,3.61-4.12c0.2-0.23,0.3-0.55,0.45-0.82
		c0,2.48,0,4.95,0,7.42c-0.3,0.02-0.42,0.2-0.43,0.48c-0.48,0.56-0.96,1.12-1.44,1.68c-0.68,0-0.99,0.57-1.41,0.95
		c-0.79,0.72-2.84,1.11-3.79,0.71c-0.42-0.18-0.5-0.47-0.38-0.86C89.68,83.39,89.74,82.88,89.83,82.37z"/>
	<path class="st68" d="M18.79,107.09c0-0.16,0-0.32,0-0.48c0.29-1.01,1-1.36,2-1.29c0.32,0.02,0.64,0.02,0.96,0
		c1.5-0.12,2.7-0.04,3.28,1.84c0.42,1.37,1.76,2.07,3.32,2.01c0.24-0.01,0.48,0,0.72,0c1.63,0.02,1.71,0.08,2.11,1.63
		c0.12,0.29,0.15,0.61,0.22,0.91c0.18,0.71,0.63,1.1,1.36,1.03c0.72-0.07,1.11-0.54,1.23-1.23c0.08-0.42-0.1-0.86,0.06-1.29
		c0.21-0.79,0.78-1.06,1.52-1.06c2.58-0.03,5.15-0.02,7.73,0c0.68,0.01,1.2,0.38,1.76,0.66c0.6,0.53,0.08,0.93-0.19,1.32
		c-1.04,1.46-2.13,2.89-3.09,4.41c-1.08,1.5-2.03,3.1-3.13,4.58c-0.28,0.38-0.46,0.95-1.12,0.88c-0.1-1.22-0.91-1.45-1.95-1.45
		c-2.96,0.02-5.92-0.07-8.88,0.03c-1.97,0.07-3.88-0.32-5.81-0.52c-0.91-0.09-0.82-0.65-0.64-1.28c0.15-0.55,0.53-1.21-0.49-1.35
		c-0.55-1.25-0.2-2.59-0.4-3.89c-0.22-1.39-0.48-2.83-0.32-4.27C18.75,107.93,19.26,107.42,18.79,107.09z"/>
	<path class="st69" d="M37.51,121.02c1.28-1.27,2.08-2.89,3.13-4.33c0.3-0.41,0.46-0.94,0.95-1.2c0.63,0.74,1.44,0.89,2.39,0.86
		c2.31-0.06,4.62-0.03,6.93-0.02c0.55,0,1.12-0.06,1.63,0.24c0.37,0.36,0.22,0.75-0.01,1.08c-1.21,1.81-2.53,3.54-3.81,5.3
		c-0.1,0.13-0.25,0.18-0.41,0.21c-0.08,0-0.16,0-0.24,0c-0.31,0.04-0.77-0.03-0.91,0.15c-0.84,1.07-2,0.79-3.08,0.8
		c-1.63,0.01-3.27,0-4.9,0.01c-0.84,0-1.61,0.1-1.73,1.2c-0.02,0.15-0.16,0.95-0.66,0.24c-0.11-0.89-0.37-1.74-0.49-2.63
		C36.78,122.35,37.3,121.78,37.51,121.02z"/>
	<path class="st70" d="M36.3,122.94c0.62,0.79,0.9,1.64,0.49,2.63c-0.25,0.3-0.54,0.57-0.75,0.9c-0.85,1.35-0.84,1.36-2.39,0.66
		c-0.14-0.06-0.3-0.09-0.45-0.14c-0.08-0.15-0.16-0.3-0.24-0.45c-0.07-0.93-0.73-1.81-0.25-2.79c0.19-0.76,0.66-1.19,1.44-1.28
		C34.94,122.3,35.62,122.62,36.3,122.94z"/>
	<path class="st68" d="M34.16,122.47c-0.35,0.45-1.07,0.52-1.21,1.18c-0.34,0.51-0.27,1.13-0.47,1.68
		c-0.52-1.44,0.22-2.81,1.68-3.12C34.15,122.3,34.15,122.39,34.16,122.47z"/>
	<path class="st41" d="M32.47,125.33c0-0.6-0.07-1.23,0.47-1.68c-0.29,0.96,0.07,1.92,0.02,2.88
		C32.49,126.26,32.93,125.62,32.47,125.33z"/>
	<path class="st68" d="M34.05,122.28c0.51-0.61,0.9-0.69,1.44-0.25C35.03,122.35,34.56,122.12,34.05,122.28z"/>
	<path class="st71" d="M31.03,110.93c-0.04-0.02-0.1-0.03-0.1-0.05c-0.07-1.75-1.4-1.56-2.4-1.34c-1.41,0.32-2.3-0.67-3.29-1.17
		c-0.34-0.17-1.15-1.23-1.06-2.09c0.07-0.67-0.23-0.64-0.66-0.64c-1.07,0-2.16,0.08-3.22-0.03c-0.85-0.08-0.97,0.71-1.51,0.98
		c-0.24-2.43-0.48-4.85-0.72-7.28c-0.02-0.24-0.03-0.48-0.24-0.64c0-0.56,0-1.12,0-1.68c0.39-0.35,0.87-0.36,1.35-0.37
		c2.08-0.01,4.16,0,6.23-0.01c0.97,0,1.8,0.26,2.42,1.06c0.64,0.82,1.61,0.82,2.52,0.84c2.6,0.04,5.19,0.01,7.79,0.02
		c3.96,0,7.91,0,11.87,0c0.86,0,1.69,0.04,2.26,0.82c0.55,0.65,0.01,1.11-0.33,1.57c-1.69,2.27-3.24,4.63-4.91,6.92
		c-0.63,0.69-0.78,1.81-1.86,2.1c-0.25,0-0.53,0.56-0.66,0.19c-0.31-0.89-0.99-0.66-1.58-0.67c-2.39-0.02-4.77,0.03-7.16-0.03
		c-0.83-0.02-1.34,0.25-1.64,0.98c-0.04-0.03-0.09-0.05-0.13-0.07c-0.23-0.3-0.55-0.38-0.91-0.35
		C32.26,109.96,31.71,110.61,31.03,110.93z"/>
	<path class="st71" d="M18.79,107.09c0.96,0.22,0.13,0.81,0.24,1.2C18.63,107.96,18.85,107.5,18.79,107.09z"/>
	<path class="st72" d="M80.23,104.21c-1.96,2.73-3.92,5.46-5.86,8.19c-0.09,0.12-0.09,0.3-0.14,0.45c-0.59,0.32-0.69,1.05-1.2,1.44
		c-1.62-0.3-3.25-0.08-4.88-0.15c-0.36-0.01-0.72,0.01-1.08-0.01c-1.27-0.08-1.48-0.41-1.01-1.56c0.06-0.15,0.09-0.3,0.1-0.46
		c-0.05-0.49,0.26-0.81,0.53-1.15c1.29-1.57,2.44-3.24,3.8-4.75c0.27-0.3,0.46-0.65,0.65-1c0.35-0.57,0.74-1.1,1.19-1.6
		c0.33-0.37,0.68-0.65,1.22-0.51c1.67,0.51,3.39,0.15,5.08,0.29C79.25,103.45,80.03,103.29,80.23,104.21z"/>
	<path class="st73" d="M66.31,112.13c0.35-0.13,0.61-0.14,0.28,0.31c-0.25,0.34-0.76,0.65-0.55,1.09c0.25,0.51,0.86,0.27,1.31,0.27
		c1.55,0.02,3.1,0,4.64,0.02c0.4,0,0.93-0.19,1.04,0.47c-0.85,0.67-1.36,1.62-1.91,2.52c-1.27,2.09-2.81,3.98-4.33,5.88
		c-0.04-0.21-0.1-0.32-0.38-0.31c-2.09,0.04-4.18,0.06-6.27,0.07c-0.55,0-1.3,0.25-1.17-0.79c-0.11,0.02-0.23,0.05-0.34,0.07
		c-0.34-0.52,0.11-0.81,0.37-1.12c0.96-1.17,1.91-2.35,2.83-3.55c1.09-1.37,2.21-2.73,3.28-4.12
		C65.42,112.55,65.66,112.03,66.31,112.13z"/>
	<path class="st74" d="M80.23,104.21c-0.37-0.44-0.87-0.49-1.4-0.48c-1.31,0.01-2.61-0.02-3.92,0.01c-0.62,0.02-1.17-0.09-1.65-0.49
		c-0.32-0.45,0.04-0.74,0.28-1.04c2.36-3.04,4.85-5.98,7.22-9.03c0.27-0.34,0.54-0.72,1.08-0.55c0.4,0.52,0.92,0.71,1.57,0.69
		c1.08-0.04,2.16,0.03,3.24-0.06c0.38-0.03,0.89-0.26,1.02,0.39c-1.63,2.39-3.26,4.77-4.88,7.16c-0.22,0.33-0.43,0.67-0.64,1
		c-0.16,0.24-0.32,0.48-0.48,0.72c-0.02,0.13-0.11,0.21-0.24,0.24C80.93,103.17,80.82,103.89,80.23,104.21z"/>
	<path class="st50" d="M81.43,102.77c0.08-0.08,0.16-0.16,0.24-0.24c0.18,0.09,0.37,0.18,0.33,0.42c-0.02,0.09-0.16,0.2-0.25,0.21
		C81.48,103.19,81.46,102.97,81.43,102.77z"/>
	<path class="st75" d="M87.67,93.66c-1.58,0-3.16-0.05-4.73,0.02c-0.79,0.04-1.13-0.28-1.27-0.98c-0.36-0.57,0.14-0.88,0.4-1.23
		c1.06-1.42,2.27-2.73,3.44-4.05c0.93-0.76,1.32-2.02,2.4-2.64c0.38-0.22,0.57-0.57,0.72-0.96c0.26-0.6,0.61-1.12,1.2-1.44
		c0.4,0.41,0.36,0.94,0.13,1.32c-0.47,0.76-0.16,0.86,0.52,0.85c1.23-0.03,2.53,0.29,3.36-1.11c0.15-0.26,0.67-0.93,1.27-0.33
		c-2.15,2.75-3.97,5.72-5.96,8.58c-0.15,0.22-0.19,0.52-0.28,0.78C88.32,92.7,88.08,93.26,87.67,93.66z"/>
	<path class="st76" d="M17.84,73.01c0-2.16,0-4.31,0-6.47c1.45,0.75,2.9,1.52,4.35,2.26c0.2,0.1,0.45,0.09,0.68,0.13
		c0.27,0.11,0.37,0.31,0.32,0.59c-0.26,0.73-0.81,1.27-1.25,1.88c-1.24,1.73-2.18,3.61-2.74,5.67c-0.43,1.57,0.26,2.96,0.74,4.38
		c-0.17,0.78-0.59,0.47-0.93,0.17c-0.55-0.49-0.91-1.13-0.98-1.86c-0.16-1.66-0.2-3.31,0.55-4.89
		C19.27,73.43,19.24,73.42,17.84,73.01z"/>
	<path class="st77" d="M23.1,69.32c-0.08-0.13-0.16-0.26-0.24-0.39c1.17-1.49,2.6-2.69,4.08-3.84c1.29-0.56,2.43-1.55,3.97-1.44
		c1.96,0.15,3.99,0.03,5.63,1.44c2.12,1.33,2.74,4.29,1.39,6.62c-0.45,0.77-1.02,1.48-1.43,2.32c0.61,0.2,1.14,0,1.63,0.17
		c0.27,0.09,0.84,0.04,0.46,0.64c-0.94,0.35-1.91,0.14-2.86,0.17c-0.2-0.02-0.39-0.07-0.56-0.18c-0.5-0.74,0.14-1.18,0.48-1.67
		c0.89-1.3,1.65-2.6,1.57-4.29c-0.11-2.4-1.65-3.82-4.04-4.22c-3.93-0.67-6.38,1.63-8.92,3.92C23.93,68.87,23.78,69.53,23.1,69.32z"
		/>
	<path class="st78" d="M52.39,99.65c-1.75-1.3-3.77-0.66-5.66-0.69c-5.38-0.08-10.77-0.04-16.15-0.01c-0.77,0-1.49-0.2-2.24-0.26
		c-0.31-0.02-0.54-0.18-0.65-0.46c-0.41-1.12-1.29-1.24-2.32-1.22c-2.51,0.03-5.02,0.01-7.54,0.01c0-3.76,0-7.52,0-11.28
		c0.43-0.38,0.96-0.36,1.48-0.36c1.92-0.01,3.84-0.02,5.75,0c1.36,0.01,2.65,0.18,3.29,1.67c0.21,0.49,0.71,0.47,1.14,0.48
		c1.32,0.02,2.64,0.04,3.96-0.01c0.67-0.02,1.26,0.09,1.75,0.6c0.73,0.76,1.58,0.78,2.37,0.17c0.89-0.69,1.89-0.76,2.94-0.76
		c5.79,0.01,11.59,0,17.38,0.01c0.8,0,1.6-0.05,2.35,0.3c0.5,0.24,0.4,0.62,0.17,0.98c-0.73,1.15-1.42,2.35-2.5,3.23
		c-0.38,0.09-0.65,0.28-0.55,0.74c0.01,0.16-0.01,0.32-0.07,0.48c-1.45,2.14-3.03,4.19-4.63,6.22
		C52.59,99.55,52.49,99.61,52.39,99.65z"/>
	<path class="st79" d="M60.55,88.13c-1.25-0.32-2.53-0.24-3.8-0.24c-5.67,0-11.34,0-17.01-0.01c-0.66,0-1.19,0.11-1.75,0.55
		c-1.24,0.98-1.93,0.89-3.14-0.22c-0.31-0.29-0.58-0.38-1.04-0.36c-1.63,0.08-3.27,0.04-4.91,0.04c-0.42,0-0.89-0.03-0.93-0.53
		c-0.13-1.63-1.4-1.57-2.46-1.6c-2.55-0.08-5.11-0.03-7.67-0.03c0-4.24,0-8.48,0-12.72c0.59,0.08,1.33-0.61,1.67-0.1
		c0.37,0.54-0.25,1.24-0.52,1.81c-0.98,2.1-1.49,4.19-0.13,6.32c0.33,0.52,0.49,0.58,0.9,0.35c0.51-0.1,0.67,0.24,0.79,0.63
		c0.33,1.06,1.46,0.88,2.15,1.39c0.59,0.53,1.09,0.14,1.6-0.18c3.33-0.94,5.67-3.35,8.16-5.53c0.7-0.61,1.25-1.21,2.24-0.46
		c0.51,0.38,1.24,0.22,1.88,0.22c9.12,0,18.24,0,27.36,0c0.24,0,0.48,0,0.72,0c2.14,0.01,2.17,0.04,1.19,1.9
		c-0.36,0.69,0.25,0.45,0.47,0.6c-0.45,1.08-1.4,1.84-1.92,2.88c0.14,0.37-0.11,0.61-0.3,0.86c-0.89,1.23-1.78,2.45-2.65,3.69
		C61.22,87.73,60.99,88.06,60.55,88.13z"/>
	<path class="st80" d="M61.99,117.18c-0.75,1.32-1.82,2.39-2.75,3.58c-0.24,0.31-0.62,0.52-0.62,0.98c-0.8,0.88-1.6,1.76-2.39,2.64
		c-0.33,0.12-0.69,0.07-0.37-0.32c0.77-0.93-0.05-1.1-0.57-1.08c-2.17,0.09-4.39-0.48-6.5,0.44c-0.28,0.12-0.45,0.11-0.48-0.24
		c1.44-2.08,2.88-4.16,4.32-6.24c0.24-0.85,0.8-1.51,1.31-2.2c0.25-0.34,0.56-0.69,1.08-0.4c0.49,0.34,1.04,0.33,1.6,0.34
		c1.55,0,3.09-0.02,4.64,0.01c0.59,0.01,1.24-0.03,1.55,0.62c0.28,0.6-0.29,0.92-0.52,1.35C62.19,116.83,62.07,116.99,61.99,117.18z
		"/>
	<path class="st81" d="M38.71,74.7c-0.83-0.56-1.79-0.01-2.81-0.38c2.13-2.94,3.88-5.95,0.65-9.22c0.82,0.13,1.64,0.32,2.49,0.25
		c0.15-0.01,0.36-0.01,0.46,0.08c1.62,1.5,3.64,1.35,5.62,1.35c9.52,0.01,19.04,0.01,28.55,0c0.68,0,1.35,0.04,2.01,0.25
		c-0.08,0.64-0.63,0.97-0.96,1.44c-0.17-0.01-0.25,0.07-0.24,0.24c-0.59,1.27-1.41,2.38-2.4,3.36c-0.22-0.03-0.35,0.1-0.48,0.24
		c-0.14,0.41-0.26,0.83-0.43,1.22c-0.16,0.38-0.88,0.56-0.58,1.03c0.22,0.35,0.82,0.09,1.25,0.14c-0.59,0.47-1.28,0.14-1.92,0.24
		c-0.79,0.59-1.77,0.14-2.61,0.48c-0.14,0.04-0.28,0.06-0.42,0.07c-1.86,0.12-3.72-0.15-5.57,0.18c-0.36,0.08-0.73,0.12-1.1,0.1
		c-2.09-0.01-4.18-0.01-6.28,0c-0.38,0.03-0.75-0.02-1.12-0.09c-0.38-0.12-0.77-0.17-1.17-0.15c-3.81,0.14-7.61-0.22-11.41-0.26
		c-0.14,0-0.28-0.02-0.42-0.06C39.44,75.05,39,75.03,38.71,74.7z"/>
	<path class="st78" d="M85.51,87.42c-0.62,1.28-1.67,2.26-2.53,3.36c-0.48,0.61-1.08,1.14-1.31,1.92c-1.43,1.48-2.63,3.16-3.92,4.76
		c-1.4,1.73-2.8,3.44-4.19,5.17c-0.14,0.18-0.2,0.42-0.29,0.63c-0.91,0.48-1.35,1.38-1.92,2.16c-0.04,0-0.11,0.01-0.12,0
		c-0.36-1.5-1.51-1.39-2.66-1.34c-1.67,0.07-3.35-0.11-5.02,0.17c-0.47,0.08-0.98,0.08-1.23-0.48c-0.01-1.3,1.06-2.02,1.63-3
		c1.87-2.42,3.22-5.19,5.13-7.59c0.29-0.37,0.52-0.79,0.85-1.15c0.86-1.08,1.63-2.23,2.42-3.36c0.23-0.33,0.35-0.83,0.92-0.77
		c0.02,0.16,0.06,0.36,0.25,0.32c3.31-0.7,6.65-0.24,9.98-0.24C84.33,87.97,84.94,87.99,85.51,87.42z"/>
	<path class="st82" d="M73.27,87.89c-1.04,1.44-2.08,2.88-3.12,4.32c-0.44-0.07-0.54,0.32-0.67,0.57c-0.59,1.19-1.62,1.62-2.84,1.66
		c-2.55,0.09-5.11,0.06-7.67,0.01c-0.86-0.02-1.56-0.34-1.79-1.28c0-0.16,0-0.32,0-0.48c-0.12-0.43,0.27-0.51,0.48-0.72
		c1.18-1.12,1.98-2.52,2.88-3.84c1.28-1.76,2.56-3.52,3.84-5.28c0.48,0.24,0.55,0.54,0.15,0.92c-0.77,0.75-0.19,0.97,0.46,1.16
		c0.11,0.03,0.23,0.07,0.35,0.07c2.94-0.1,5.89,0.24,8.83-0.18c0.29-0.04,0.67-0.86,1.01-0.04C74.55,85.82,73.91,86.85,73.27,87.89z
		"/>
	<path class="st66" d="M88.63,83.81c0.22,0.67,0.05,1.04-0.72,0.96C87.93,84.29,88.25,84.03,88.63,83.81z"/>
	<path class="st76" d="M60.31,75.41c0.32,0,0.64,0,0.95,0c1.91-0.29,3.85,0.09,5.77-0.24c0.08,0,0.16,0,0.23,0
		c0.81-0.03,1.67-0.51,2.4,0.24c-1.25,1.43-2.3,3-3.36,4.56c-0.42,0.02-0.6,1.01-1.15,0.37c-0.43-0.5,0.1-0.86,0.41-1.19
		c0.33-0.35,0.6-0.73,0.85-1.34c-0.49,0-0.9,0-1.31,0c-9.66,0-19.31,0-28.97-0.01c-0.8,0-1.64,0.16-2.27-0.64
		c-0.29-0.37-0.51,0.15-0.7,0.32c-1.67,1.53-3.35,3.05-5.19,4.37c-1.18,0.85-2.5,1.38-3.91,1.72c-0.48,0.3-0.96,0.3-1.44,0
		c-0.78-0.16-1.51-0.44-2.17-0.89c-0.23-0.16-0.63-0.43,0.04-0.59c0.05,0.01,0.1,0.02,0.15,0.03c0.4,0.22,0.8,0.43,1.26,0.52
		c0.1,0.02,0.21,0.05,0.31,0.08c0.82,0.07,1.64,0.13,2.45-0.07c0.26-0.09,0.51-0.19,0.78-0.27c0.54-0.09,1.02-0.29,1.4-0.69
		c1.8-1.19,3.26-2.8,5-4.07c0.57-0.2,0.96-0.58,1.16-1.16c0.59-0.72,1.02-1.63,2.09-1.8c0.17,0,0.33,0.01,0.5,0.01
		c1.35,0.34,2.74-0.08,4.09,0.24c0.08,0,0.16,0,0.23,0c0.29,0.21,0.62,0.11,0.93,0.12c4.01,0.18,8.02,0.25,12.03,0.36
		c0.32,0,0.64,0,0.95,0C55.99,75.62,58.15,75.62,60.31,75.41z"/>
	<path class="st79" d="M69.67,75.41c-0.76-0.49-1.61-0.13-2.4-0.24c0.84-0.5,1.77-0.12,2.65-0.24
		C69.91,75.13,69.87,75.31,69.67,75.41z"/>
	<path class="st60" d="M74.47,68.7c-0.14-0.03-0.36,0.01-0.3-0.22c0.04-0.13,0.19-0.28,0.31-0.32c0.23-0.07,0.2,0.16,0.22,0.3
		C74.63,68.53,74.55,68.61,74.47,68.7z"/>
	<path class="st60" d="M71.59,72.3c0.02-0.22,0.02-0.49,0.28-0.55c0.19-0.04,0.18,0.17,0.2,0.3C71.97,72.25,71.79,72.29,71.59,72.3z
		"/>
	<path class="st83" d="M54.79,114.29c-1.02,0.63-1.21,1.95-2.16,2.64c-0.35-0.39-0.82-0.23-1.23-0.23
		c-2.82-0.01-5.64-0.05-8.46,0.02c-0.96,0.02-1.5-0.15-1.35-1.22c0.81-1.78,2.15-3.21,3.24-4.79c0.16-0.23,0.36-0.42,0.36-0.73
		c0.56-0.72,1.12-1.44,1.68-2.16c0.74-0.61,0.74,0.13,0.67,0.46c-0.22,1.04,0.35,1.13,1.14,1.13c2.16-0.01,4.32-0.01,6.48,0
		c0.8,0.01,1.46-0.28,2.1-0.73c0.49-0.34,1.16-0.75,1.2,0.41C57.57,111.05,56.29,112.75,54.79,114.29z"/>
	<path class="st72" d="M31.03,110.93c0.45-0.89,1.21-1.21,2.16-1.2c0.38,0.16,0.79,0.28,0.96,0.72c0,0,0,0,0,0
		c0.44,1.68-0.46,2.95-1.88,2.61C31.14,112.79,30.97,111.92,31.03,110.93z"/>
	<path class="st84" d="M58.15,109.26c-0.05-0.22,0.23-0.48-0.02-0.65c-0.18-0.13-0.41-0.02-0.53,0.14c-0.84,1.13-2.06,1-3.25,1
		c-2.06-0.01-4.13-0.02-6.19,0c-0.92,0.01-1.58-0.09-0.94-1.25c0.13-0.23,0.51-0.85-0.36-0.68c1.33-2.27,2.96-4.33,4.45-6.5
		c0.37-0.54,0.93-0.97,1.07-1.66c0-0.08,0-0.16,0.01-0.24c0.67-0.37,0.83,0.05,0.95,0.59c0.16,0.73-0.22,1.31-0.52,1.9
		c0.34,0.41,0.77,0.28,1.14,0.28c1.92,0.02,3.84-0.01,5.76,0.02c1.19,0.02,2.17-0.33,2.98-1.24c0.66-0.74,0.83-0.71,1.45-0.11
		c-0.56,0.88-1.12,1.76-1.68,2.64c-0.79,1.9-2.24,3.36-3.35,5.05C58.9,108.88,58.73,109.37,58.15,109.26z"/>
	<path class="st68" d="M34.15,110.45c-0.32-0.24-0.64-0.48-0.96-0.72C33.7,109.72,34.22,109.69,34.15,110.45z"/>
	<path class="st85" d="M58.15,109.26c1.44-1.92,2.88-3.84,4.32-5.76c0.16,0.73,0.74,0.51,1.15,0.43c2.25-0.41,4.51-0.1,6.76-0.19
		c1.35-0.05,0.8,1.02,0.97,1.67c-1.53,1.97-3.05,3.94-4.59,5.91c-0.2,0.25-0.45,0.46-0.45,0.81c-1.37,1.28-2.4,2.85-3.57,4.29
		c-0.23,0.28-0.41,0.59-0.75,0.75c-0.24-0.41,0.1-0.65,0.31-0.9c0.23-0.28,0.53-0.53,0.3-0.93c-0.21-0.37-0.6-0.33-0.95-0.33
		c-1.98,0-3.96-0.01-5.94,0c-0.52,0-0.98-0.02-0.92-0.73C55.74,112.5,57.23,111.07,58.15,109.26z"/>
	<path class="st0" d="M31.97,77.81c-1.71,1.33-3.22,2.91-5.02,4.13c-0.48,0.26-0.96,0.52-1.5,0.66c-0.22,0.09-0.44,0.19-0.66,0.28
		c-0.96,0.12-1.92,0.22-2.87-0.05l0.02,0.01c-0.51-0.2-1.04-0.34-1.45-0.74c0,0,0.01,0,0.01,0c-0.25-0.23-0.5-0.46-0.74-0.7
		c-1.33-1.93-1.19-3.91-0.35-6c0.9-2.24,2.26-4.18,3.7-6.08c1.4-1.37,2.82-2.7,4.42-3.84c2.33-1.66,4.85-1.52,7.33-0.71
		c2.63,0.86,3.58,4.27,2.14,6.87c-0.58,1.04-1.45,1.9-1.89,3.03c-0.81,0.47-1.36,1.2-1.9,1.93C32.86,77.09,32.48,77.52,31.97,77.81z
		"/>
	<path class="st79" d="M39.68,74.93c-1.36-0.13-2.75,0.29-4.09-0.24c1.04,0,2.08,0,3.12,0C39.04,74.73,39.42,74.59,39.68,74.93z"/>
	<path class="st86" d="M64.15,100.85c-0.48-0.42-0.85-0.29-1.16,0.22c-0.61,1-1.54,1.45-2.67,1.46c-2.35,0.02-4.7,0.01-7.05,0
		c-0.35,0-0.79,0.11-0.95-0.31c-0.11-0.31,0.17-0.58,0.36-0.84c0.65-0.88,0.52-1.7-0.3-1.97c1.6-2.08,3.2-4.16,4.79-6.24
		c0.84,1.05,1.99,1.03,3.17,0.97c2.34-0.12,4.68,0.19,7.02-0.16c0.93-0.14,1.65-0.51,2.03-1.43c0.12-0.29,0.26-0.77,0.75-0.33
		c-2.03,2.54-3.62,5.37-5.45,8.04C64.54,100.49,64.43,100.74,64.15,100.85z"/>
	<path class="st79" d="M57.67,91.98c0.04,0.37-0.34,0.47-0.48,0.72C56.99,92.05,57.11,91.87,57.67,91.98z"/>
	<path class="st87" d="M35.59,88.37c-0.34-0.25-0.64-0.53-0.74-0.96c-0.14-0.48-0.19-0.96,0.04-1.43l-0.01,0.01
		c0.15-0.33,0.22-0.69,0.45-0.97c0.17-0.16,0.33-0.32,0.5-0.48c0.78-0.3,1.52-0.36,2.13,0.35c0,0.09,0.05,0.14,0.14,0.15
		c0.73,0.76,0.6,1.55,0.09,2.35l0.02-0.02c-0.13,0.35-0.39,0.58-0.72,0.74l0.02-0.01C36.92,88.62,36.27,88.57,35.59,88.37z"/>
	<path class="st88" d="M38.19,87.4c0.23-0.79,0.37-1.59-0.09-2.35C38.94,85.67,38.97,86.61,38.19,87.4z"/>
	<path class="st88" d="M37.96,84.89c-0.64-0.58-1.39-0.42-2.13-0.35C36.69,83.78,37.38,84.02,37.96,84.89z"/>
	<path class="st78" d="M22.63,83.58c0.48,0,0.96,0,1.44,0C23.59,84.26,23.11,84.26,22.63,83.58z"/>
	<path class="st88" d="M35.59,88.37c0.66,0.07,1.31,0.07,1.91-0.27C36.96,88.9,36.29,88.71,35.59,88.37z"/>
	<path class="st88" d="M34.89,85.98c-0.01,0.48-0.02,0.95-0.04,1.43C34.52,86.92,34.49,86.45,34.89,85.98z"/>
	<path class="st88" d="M37.48,88.11c0.24-0.25,0.48-0.49,0.72-0.74C38.23,87.88,37.98,88.12,37.48,88.11z"/>
	<path class="st88" d="M35.33,85.02c-0.03,0.38-0.24,0.68-0.45,0.97C34.84,85.58,34.9,85.21,35.33,85.02z"/>
	<path class="st79" d="M52.88,75.41c-0.93,0.49-1.87-0.05-2.8,0c-3.14,0.17-6.27-0.27-9.41-0.24c-0.28,0-0.56,0.02-0.76-0.24
		c4.07-0.04,8.13,0.42,12.2,0.25C52.39,75.17,52.67,75.16,52.88,75.41z"/>
	<path class="st79" d="M60.31,75.41c-0.68,0.48-1.46,0.25-2.17,0.22c-1.44-0.06-2.9,0.32-4.31-0.22
		C55.99,75.41,58.15,75.41,60.31,75.41z"/>
	<path class="st79" d="M67.03,75.17c-0.43,0.43-0.97,0.22-1.46,0.23c-1.44,0.03-2.87,0.01-4.31,0.01c1.14-0.5,2.34-0.14,3.5-0.23
		C65.52,75.13,66.28,75.17,67.03,75.17z"/>
	<path class="st79" d="M21.92,82.83c0.96,0.02,1.91,0.03,2.87,0.05C23.82,83.2,22.87,83.28,21.92,82.83z"/>
	<path class="st79" d="M31.97,77.81c0.41-0.4,0.82-0.79,1.22-1.19C33.05,77.29,32.66,77.7,31.97,77.81z"/>
	<path class="st79" d="M20.48,82.1c0.48,0.25,0.97,0.49,1.45,0.74C21.32,82.85,20.78,82.72,20.48,82.1z"/>
	<path class="st79" d="M25.45,82.59c0.48-0.26,0.93-0.58,1.5-0.66C26.58,82.46,26.06,82.64,25.45,82.59z"/>
</g>
</svg>
