<?xml version="1.0" encoding="utf-8"?>
<!-- Generator: Adobe Illustrator 23.0.2, SVG Export Plug-In . SVG Version: 6.00 Build 0)  -->
<svg version="1.1" id="Camada_1" xmlns="http://www.w3.org/2000/svg" xmlns:xlink="http://www.w3.org/1999/xlink" x="0px" y="0px"
	 viewBox="0 0 222.7 295.71" style="enable-background:new 0 0 222.7 295.71;" xml:space="preserve">
<style type="text/css">
	.st0{fill:#FEFEFE;}
	.st1{fill:#FE7909;}
	.st2{fill:#60DBD9;}
	.st3{fill:#3EA7A4;}
	.st4{fill:#5FDBD9;}
	.st5{fill:#C1FEFC;}
	.st6{fill:#FE9709;}
	.st7{fill:#7DF1F0;}
	.st8{fill:#A6E9E7;}
	.st9{fill:#010101;}
	.st10{fill:#FE7A09;}
	.st11{fill:#5DDAD8;}
	.st12{fill:#BFFDFB;}
	.st13{fill:#1E9A96;}
	.st14{fill:#FEB67A;}
	.st15{fill:#FEC279;}
	.st16{fill:#FE900A;}
	.st17{fill:#FE9308;}
	.st18{fill:#FE990B;}
	.st19{fill:#FEB77C;}
	.st20{fill:#FEC77B;}
	.st21{fill:#FE5204;}
	.st22{fill:#FE5203;}
	.st23{fill:#FE5303;}
	.st24{fill:#FE5702;}
	.st25{fill:#FE5105;}
	.st26{fill:#FE5104;}
	.st27{fill:#FE4F04;}
	.st28{fill:#FEB618;}
	.st29{fill:#FEDB86;}
	.st30{fill:#FEA00F;}
	.st31{fill:#FEB619;}
	.st32{fill:#FEDA86;}
	.st33{fill:#A5E9E7;}
	.st34{fill:#FEB719;}
	.st35{fill:#FC7908;}
	.st36{fill:#FDA41C;}
	.st37{fill:#7EF1F0;}
	.st38{fill:#FE6E01;}
	.st39{fill:#FE9E11;}
	.st40{fill:#F28418;}
	.st41{fill:#FECB7C;}
	.st42{fill:#FE9813;}
	.st43{fill:#FE7504;}
	.st44{fill:#FE7505;}
	.st45{fill:#FE7301;}
	.st46{fill:#FEBA27;}
	.st47{fill:#FEB92F;}
</style>
<g>
	<path class="st0" d="M222,42.76c0,0.36,0.08,0.74-0.01,1.08c-3.04,10.76-0.79,21.64-0.67,32.45c0.16,14.85,0.88,29.7,1.01,44.55
		c0.25,29.5,0.28,59,0.38,88.5c0.06,16.89-1.36,33.73-2.22,50.58c-0.29,5.74-3.07,10.23-7.91,13.78
		c-20.62,15.13-44.26,20.58-69.17,21.84c-22.3,1.13-43.56-3.64-63.85-12.65c-9.82-4.36-18.48-10.64-25.91-18.44
		c-8.47-8.9-13.49-19.07-12.59-31.91c0.53-7.61-0.41-15.31-0.53-22.97c-0.05-2.87-1.02-4.64-3.62-6.27
		c-23-14.44-34.72-35.66-36.66-62.47c-1.06-14.68,1.02-28.67,10.25-40.8c6.66-8.75,15.05-15.08,25.91-17.58
		c2.35-0.54,2.68-1.57,2.68-3.65c0.04-14.03,0.17-28.06,0.37-42.08c0.04-2.86,0.48-5.71,0.78-8.56c0.83-8,5.97-12.55,12.8-15.48
		C65.68,7.26,79.12,4.84,92.56,2.37c17.71-3.25,35.51-2.51,53.32-1.58c10.03,0.52,20.21-0.01,29.93,3.04
		c10.68,3.35,21.97,5.29,30.94,12.82C214.97,23.54,221.57,31.35,222,42.76z"/>
	<path d="M216.24,42.14c0,1.01,0.08,1.4-0.01,1.73c-3.14,10.75-0.75,21.63-0.66,32.44c0.13,14.85,0.87,29.7,1,44.55
		c0.25,29.5,0.28,59.01,0.38,88.51c0.06,16.9-1.45,33.73-2.19,50.59c-0.17,3.79-2.21,6.58-5.28,8.93
		c-13.17,10.1-28.36,15.33-44.36,18.48c-28.59,5.63-56.27,2.4-82.81-9.55c-11.85-5.34-22.06-13.02-29.72-23.73
		c-3.18-4.44-6.01-9.41-5.77-14.8c0.27-6.01-0.42-11.92-0.42-17.88c0-5.86-0.39-11.73-0.45-17.59c-0.02-1.59-0.69-2.24-1.98-2.96
		c-19.93-11.03-32.39-27.64-36.76-50.05c-2.13-10.91-2.61-22,0.65-32.74c4.98-16.4,15.73-27.13,32.77-30.78
		c3.28-0.7,4.3-1.78,4.27-5.27c-0.13-15.23,0.11-30.46,0.31-45.68c0.04-2.74,0.44-5.48,0.79-8.2c0.71-5.47,4.68-8.12,9.18-10.11
		c11.94-5.26,24.66-7.58,37.39-9.9c17.71-3.24,35.51-2.51,53.33-1.56c9.07,0.48,18.33-0.21,27.12,2.42
		c10.25,3.08,21.16,4.82,29.79,11.9c6.26,5.14,11.99,10.76,13.17,19.41C216.11,41.12,216.22,41.95,216.24,42.14z"/>
	<path class="st0" d="M52.38,66.2c0.25-11.37-0.22-22.75,0.59-34.13c0.28-3.88,2.03-5.87,5.17-7.24
		c11.85-5.14,24.43-7.41,37.07-9.61c18.85-3.27,37.72-1.78,56.61-0.87c6.34,0.31,12.78-0.13,18.91,1.64
		c6.88,1.98,13.88,3.7,20.48,6.56c6.45,2.8,11.45,7.32,15.25,13.22c1.76,2.74,2.94,5.92,1.89,8.88c-2.35,6.63-0.82,13.25-0.71,19.86
		c0.19,11.01,0.74,22.01,1.03,33.02c0.93,36.45,0.6,72.91,0.77,109.36c0.08,17.5-1.28,34.92-2.16,52.37
		c-0.09,1.8-1.17,2.66-2.46,3.66c-12.03,9.35-25.98,14.25-40.68,17.1c-27.23,5.28-53.65,2.56-78.95-9.11
		c-9.57-4.41-18.08-10.39-24.7-18.71c-3.82-4.81-6.32-9.9-6.16-16.62c0.3-12.19-0.61-24.41-0.86-36.62
		c-0.04-1.94-1.09-2.33-2.42-2.96c-20-9.45-32.85-24.99-36.39-46.75c-1.79-11.02-2.89-22.84,1.89-33.68
		c5.78-13.08,16.09-20.4,30.44-22.1c1.78-0.21,5.46,1.84,5.39-2.82C52.3,82.51,52.38,74.36,52.38,66.2z"/>
	<path class="st1" d="M68.17,200.59c4.94,0.45,9.25-1.32,13.5-3.61c10.27-5.51,11.67-13.7,3.72-22.67c0.56-1.79,1.7-0.79,2.53-0.42
		c5.67,2.52,11.42,4.76,17.53,6c0.44,0.42,0.56,0.94,0.5,1.53c-2,3.1-2.58,7.11-5.94,9.35c-5.33,0.11-5.97,1.35-3.52,6.85
		c-1.71,4.62-3.6,9.14-7.52,12.42c-2.31-0.2-4.33-1.3-6.47-2.06c-0.78-0.28-1.72-0.74-2.29,0.16c-0.68,1.06-0.47,2.32-0.23,3.49
		c0.22,1.09,1.1,1.11,1.98,1.02c1.66-0.16,3.33-0.57,4.89,0.45c0.83,1.37,0.21,2.36-0.85,3.24c-0.46,0.12,0.14,0.03-0.33,0.13
		c-4.92,1.12-4.92,1.12-3.53,6.15c-0.44,3.6-3,6.19-4.46,9.31c-1.33,2.85-0.41,5.34,2.51,6.57c1.33,0.56,2.02-0.09,2.67-1.04
		c1.42-2.08,2.75-4.21,4.21-6.26c0.73-1.02,1.25-2.42,2.93-2.27c2.77,1.15,5.61,2.02,8.57,2.55c2.18,0.39,2.98-0.28,2.36-2.45
		c-1.25-4.37-1.77-8.91-2.91-13.31c-0.11-1.7,1-2.89,1.85-4.14c5.37-7.86,10.32-16,15.63-23.9c1.04-1.61,1.79-3.51,3.88-4.13
		c3.7,2.6,7.79,4.19,12.28,4.76c0.73,0.09,1.37,0.34,1.61,1.14c-0.02,2.53-1.52,4.51-2.69,6.54c-3.89,6.71-7.62,13.51-11.68,20.12
		c-0.62,1-1.11,2.14-2.27,2.7c-2.73,0.7-4.96-0.95-7.39-1.67c-0.47-0.09-0.17,0.65-0.13,0.17c0.01-0.19,0.12-0.25,0.32-0.15
		c2.1,1.09,4.11,2.32,5.69,4.13c-0.04,1.71-0.37,3.24-2.36,3.72c-2.85-2.31-4.9-5.51-8.44-7.72c0.6,4.27,1.44,8.1,2.05,11.96
		c0.19,1.21,1,1.85,1.92,2.45c1.01,3.5-2.68,4.7-3.04,6.62c-0.83,1.03-0.01,1.11-0.44,0.88c-0.07-0.04-0.06-0.13,0.05-0.27
		c3.03-3.99,5.58-8.34,8.82-12.18c0.91-1.08,1.64-2.38,3.09-2.9c3.34-0.09,3.76-0.63,3.41-4.34c0.61-3.36,3.23-5.47,5.1-8.01
		c3.6-4.89,7.38-9.64,11.02-14.51c0.83-1.11,1.48-2.51,3.11-2.74c3.92,4.65,9.93,6.29,14.46,10.06c1.56,1.3,3.86-0.06,5.23,1.64
		c0.07,1.77-1.22,2.9-2.04,4.24c-10.55,13-21.05,26.04-31.35,39.34c1.31,0.9,2.65,1,3.92,0.87c7.61-0.77,15.29-0.82,22.85-2.13
		c2.74-0.48,4.8-1.49,6.47-3.91c3.93-5.72,8.23-11.19,12-17.03c1.09-1.37,1.59-3.37,3.78-3.57c2.27,3.52,3.95,7.43,6.98,10.46
		c0.83,0.83,1.47,1.87,2.37,2.65c1.8,1.54,3.37,1.59,4.62-0.71c0.41-0.74,0.39-2.22,1.69-1.79c0.97,0.32,0.88,1.57,0.91,2.52
		c0.02,0.6-0.08,1.18-0.28,1.75c-0.5,1.12-1.5,1.69-2.51,2.26c-18.89,10.87-39.24,17-60.97,18.3c-5.63,0.34-11.04-1.94-16.54-3.04
		c-5.4-1.08-10.66-2.73-15.85-4.6c-10.26-3.32-18.65-9.59-26.56-16.66c-1.95-1.74-2.56-3.6-2.51-6.28c0.16-7.78,1-15.52,1.01-23.3
		C67.12,203.7,66.74,201.93,68.17,200.59z"/>
	<path class="st2" d="M90.33,83.83c12.79,2.36,25.68,3.97,38.66,4.83c16.25,1.08,32.44,1.13,48.5-2.12c0.79-0.34,1.73-0.67,2.2,0.26
		c0.42,0.84-0.34,1.56-0.88,2.19c-4.1,4.85-8.1,9.78-12.09,14.71c-8.52,10.53-16.93,21.13-25.21,31.85
		c-1.01,1.31-1.9,2.79-3.49,3.57c-0.4,0.15-0.81,0.24-1.23,0.28c-13.87,0.4-27.74,0.13-41.61,0.15c-1.2,0-2.4-0.13-3.42-0.87
		c-1.56-2.58-1.74-5.53-1.68-8.35c0.3-13.68-1.13-27.31-0.8-40.98C89.32,87.46,88.93,85.46,90.33,83.83z"/>
	<path class="st2" d="M128.63,23.89c19.58-0.33,39.01,0.89,58.05,5.87c3.7,0.97,7.38,2.13,10.55,4.41c3.73,2.68,3.81,5.78-0.01,8.33
		c-5.81,3.88-12.56,5.29-19.26,6.53c-22.75,4.22-45.7,4.59-68.72,3.2c-10.75-0.65-21.46-1.6-31.92-4.36
		c0.48-4.65,4.11-6.92,7.44-9.08c8.44-5.46,17.98-8.41,27.49-11.39C117.61,25.73,123.05,24.48,128.63,23.89z"/>
	<path class="st3" d="M90.33,83.83c0.14,18.25,0.66,36.49,1.47,54.72c-0.7,1.4-2.03,1.56-3.33,1.56c-5.51,0.03-10.72,1.77-16.05,2.8
		c-2.19,0.71-1.8,2.61-1.81,4.2c-0.04,6.34,0.03,12.68-0.05,19.02c-0.02,1.59,0.44,3.42-1.34,4.54c-9.34-1.79-9.32-1.79-9.1-11.03
		c0.31-13.15,0.66-26.31,0.81-39.47c0.03-2.39,0.75-3.53,3.05-3.83c1.54-0.2,3.07-0.86,4.58-0.77c3.61,0.21,5.62-1.63,7.34-4.53
		c2.48-4.19,2.55-5.46-0.58-9.25c-2.99-3.63-6.78-6.1-11.37-7.05c-2.07-0.43-2.7-1.25-2.63-3.33c0.21-6.44,0.26-12.9-0.43-19.95
		C70.09,77.79,80.07,81.16,90.33,83.83z"/>
	<path class="st2" d="M89.61,60.73c6.4-2.33,12.77-0.61,19.14,0.17c19.4,2.37,38.82,3.82,58.33,1.63c1-0.11,1.91-0.09,2.8,0.25
		c6.85,2.53,13.7,5.06,20.52,7.67c1.17,0.45,2.81,0.88,2.66,2.51c-0.15,1.56-1.85,1.69-3.03,2.12c-12.04,4.37-24.49,6.49-37.29,6.61
		c-20.4,0.19-40.66-1.28-60.69-5.31c-0.82-0.16-1.61-0.48-2.41-0.73C87.91,70.68,87.95,65.71,89.61,60.73z"/>
	<path class="st2" d="M95.49,250.74c5.11,1.7,10.4,2.86,15.5,4.52c13.73,4.47,27.21,2.62,40.75-0.6
		c12.92-3.08,24.96-8.37,36.64-14.55c1.34,0.53,1.62,1.73,1.67,2.93c0.22,5.5,0.2,11.01,0.01,16.52c-0.03,0.98-0.48,1.84-1.05,2.64
		c-10.24,5.48-21.28,8.45-32.68,10.11c-20.33,2.96-40.23,1.04-59.65-5.69c-0.44-0.15-0.84-0.41-1.26-0.61
		c-0.44-3.87-0.1-7.79-0.84-11.64C94.36,253.09,94.43,251.76,95.49,250.74z"/>
	<path class="st2" d="M180.43,85.91c3.88-1.08,7.81-2.02,11.49-3.73c1.96,0.41,1.72,2.08,1.77,3.4c0.12,2.96,0.25,5.94-0.23,8.89
		c-1.03,3.73-0.91,7.64-1,11.38c-0.18,7.18-0.7,14.34-0.91,21.52c-0.4,13.51-0.94,27.02-1.43,40.53c-0.03,0.84-0.15,1.67-0.52,2.44
		c-0.22,0.44-0.59,0.66-1.08,0.67c-0.86-0.53-1.02-1.41-1.14-2.3c-0.21-2.91-0.07-5.83-0.09-8.74c0.37-8.15,0.01-8.73-7.46-12.1
		c-1.29-0.58-2.72-0.9-3.78-1.93c-0.23-0.3-0.35-0.63-0.38-1.01c0.02-0.61,0.17-1.25,0.6-1.66c6.39-6.03,4.82-13.81,4.45-21.19
		c-0.17-3.34-0.49-6.68-0.51-10.77c-3.49,5.5-6.36,10.64-9.56,15.56c-3.13,4.81-5.53,10.1-9.21,14.57
		c-0.31,0.23-0.66,0.38-1.03,0.46c-3.8-0.44-7.74,0.14-11.36-1.59c-1.32-1.94,0.42-3.13,1.26-4.35
		c8.3-12.12,17.18-23.81,26.27-35.33c2.05-2.6,3.21-5.17,2.97-8.48C179.38,90.05,179.34,87.88,180.43,85.91z"/>
	<path class="st4" d="M24.71,152.96c-3.7-13.26-5.16-26.48,2.95-38.71c6-9.05,15-13.14,25.74-13.14c4.42,0,8.69-1.52,13.16-0.89
		c3.35,0.48,6.24,1.24,7.69,4.81c1.31,3.23-0.15,5.7-3.6,5.13c-5.98-1-11.68,0.49-17.29,1.9c-3.2,0.8-6.02,3.15-9.01,4.8
		c-0.58-1.55,0.87-2.34,1.34-3.49c0.7-1.71,0.68-3.3-0.72-4.61c-1.34-1.25-2.84-0.98-4.33-0.24c-1.42,0.71-2.64,1.66-3.37,3.11
		c-0.74,1.48-0.92,3,0.21,4.38c1.03,1.26,2.39,1.42,3.91,1.01c0.97-0.27,1.94-1.15,3-0.18c-0.8,1.58-2.46,2.23-3.66,3.38
		c-7.27,6.95-8.53,15.65-7.65,25.14c1.28,13.82,9.64,22.46,21.21,28.19c4.43,2.2,9.66,3.29,14.77,3.9c0.44,0.72,0.38,1.43-0.05,2.12
		c-1.05,0.87-2.25,0.69-3.41,0.38c-10.48-2.82-20.43-6.59-28.03-14.89c-2.2-2.4-4.12-4.98-5.7-7.77
		C30.23,154.41,28.07,152.8,24.71,152.96z"/>
	<path class="st5" d="M192.64,94.5c-0.42-4.1,1.05-8.3-0.72-12.32c2.7-0.83,5.23-2.07,8.16-3.86c-0.78,9.52,0.38,18.51-0.8,27.53
		c-0.54,4.13-0.15,8.38-0.15,12.58c0,37.78-0.04,75.55,0.06,113.33c0.02,6.43,1.37,12.8,1.46,19.26c0.04,2.57-0.58,4.4-2.88,5.57
		c-2.1-3.46-1.74-7.43-1.82-11.13c-0.31-14.24-1.26-28.44-1.71-42.67c-0.48-15.06-0.8-30.14-1.49-45.19
		c-0.77-16.77-0.36-33.51-0.35-50.27C192.41,103.06,191.73,98.75,192.64,94.5z"/>
	<path class="st3" d="M95.49,250.74c0.25,4.47,0.48,8.95,0.78,13.41c0.06,0.84,0.43,1.67-0.84,1.85
		c-12.97-4.65-24.54-11.45-33.72-21.91c-0.54-0.61-0.93-1.36-1.39-2.04c-0.4-1.62-0.52-3.26-0.51-4.93
		c0.03-10.59,0.03-21.18,0-31.78c0-1.17,0.26-2.38-0.28-3.52c-0.48-2.13-0.05-3.05,2.43-2.29c1.99,0.61,4.14,0.72,6.22,1.05
		c-0.37,9.46-0.59,18.93-1.21,28.38c-0.15,2.27,0.59,3.53,2.07,4.88C76.87,241.03,85.33,247.21,95.49,250.74z"/>
	<path class="st6" d="M69.22,170.67c0.51-8.27,0.36-16.54,0.01-24.8c-0.11-2.58,0.55-3.88,3.13-4.07
		c6.91,11.09,17.77,16.71,29.44,21.15c3.47,1.32,7,2.48,10.65,3.24c1.03,0.21,2.18,0.29,2.75,1.43c0.24,0.88,0.03,1.75-0.52,2.38
		c-2.97,3.45-4.69,8.02-9.08,10.2c-6.69,0.29-12.21-3.23-18.1-5.54c-0.71-0.28-1.21-1.29-2.1-0.35c-3.49-2.59-7.75-1.94-11.67-2.71
		C72.23,171.31,70.63,171.48,69.22,170.67z"/>
	<path class="st7" d="M192.64,94.5c1.01,54.05,2,108.09,5.14,162.07c-2.55,2.44-5.52,4.23-8.76,5.61c0-6.09,0.01-12.18,0.02-18.27
		c0-1.31,0.09-2.64-0.65-3.82c0.69-0.58,1.37-1.15,2.06-1.72c1.39-2.86-0.54-5.57-0.38-8.41c0.53-9.08-0.64-18.14-0.59-27.22
		c0.01-0.97-0.17-1.9-0.42-2.82c-0.35-1.71-0.36-3.45-0.34-5.19c0.12-1.68-0.07-3.36,0.02-5.04c-0.22-2.3-0.92-4.56-0.7-6.9
		c0.31-3.88-0.8-7.86,0.89-11.63c0.28-7.75,0.58-15.5,0.85-23.25c0.49-13.95,0.72-27.92,1.62-41.84
		C191.63,102.25,191.11,98.22,192.64,94.5z"/>
	<path class="st3" d="M128.63,23.89c-8.49,2.3-17.09,4.29-25.32,7.42c-8.01,3.05-16.33,5.6-22.63,11.99
		c-1.36,1.39-2.33,2.98-3.36,4.57c-4.64-0.81-9.08-2.25-13.17-4.58c-5.41-3.08-5.44-6.8-0.06-9.85c6.36-3.61,13.44-5.02,20.52-6.24
		C99.18,24.69,113.85,23.54,128.63,23.89z"/>
	<path class="st3" d="M24.71,152.96c2.98-1.56,5.12-0.84,6.77,2.15c8.11,14.74,21.47,21.53,37.35,24.42c1.63,4.01,1.9,8-0.2,11.95
		C47.91,188.83,29.79,172.93,24.71,152.96z"/>
	<path class="st8" d="M180.43,85.91c1.2,7.86-1.63,14.04-6.71,20.1c-8.96,10.7-17.12,22.07-24.94,33.66
		c-0.23,0.37-0.55,0.59-0.97,0.67c-3.13-0.41-6.56,0.59-9.24-1.95c3.38-5.62,7.78-10.48,11.83-15.58
		c9.17-11.56,18.52-22.98,27.87-34.4c1.23-1.51,1.06-1.9-0.78-1.86C178.33,85.66,179.4,85.86,180.43,85.91z"/>
	<path class="st9" d="M52.28,164.33c-8.09-5.08-11.75-12.52-12.35-21.9c-0.63-9.74,3.1-16.86,12.35-21.58
		C52.28,135.46,52.28,149.77,52.28,164.33z"/>
	<path class="st10" d="M68.62,191.48c0.07-3.98,0.14-7.97,0.2-11.95c0.08-0.7,0.15-1.39,0.23-2.09c4.18-0.04,8.37,0.21,12.5-0.69
		c0.54-0.12,1.24-0.08,1.71,0.18c1.44,0.8,3.37,7.57,2.86,9.73c-0.57,2.42-4.62,5.82-7.18,5.72
		C75.49,192.25,72.01,192.36,68.62,191.48z"/>
	<path class="st3" d="M89.61,60.73c0.01,4.97,0.02,9.95,0.03,14.92c-8.15-1.78-15.88-4.61-23.55-9.52
		C74.03,63.02,81.79,61.77,89.61,60.73z"/>
	<path class="st3" d="M84.92,57.06c-5.29,1.14-10.53,2.25-15.53,4.2c-1.57,0.61-3.06,1.29-4.28,2.5c-0.42,0.41-0.74,1.56-1.57,0.71
		c-0.54-0.56-1.1-2.06-1-2.12c2.08-1.33,1.28-4.52,4.39-5.56C73.04,54.76,78.86,52.72,84.92,57.06z"/>
	<path class="st11" d="M191.92,65.15c-3.67-2.13-7.77-3.24-11.73-4.88c4.18-0.19,7.96-4.62,12.36-0.95
		C193.66,61.4,194.81,63.49,191.92,65.15z"/>
	<path class="st12" d="M191.92,65.15c1.55-1.8,0.58-3.87,0.63-5.83c2.09,1.37,4.25,2.66,5.85,4.64c1.09,1.35,1.81,2.89,1.3,4.64
		c-0.18,0.62-0.74,1.3-1.31,1.6c-0.9,0.46-1.18-0.48-1.5-1.06C195.76,67.12,193.65,66.37,191.92,65.15z"/>
	<path class="st13" d="M59.53,201.83c1.08,1.11,0.62,2.5,0.62,3.77c0.04,10.07,0.01,20.13,0.03,30.2c0,2.09,0.09,4.17,0.14,6.26
		c-0.56-0.64-1.04-1.33-1.03-2.22C59.4,227.16,58.94,214.49,59.53,201.83z"/>
	<path class="st14" d="M171.68,227.68c-4.17,7-9.36,13.29-13.99,19.97c-0.9,1.29-2.39,0.96-3.64,1.17
		c-9.9,1.67-19.84,2.66-30.6,2.12c11.21-14.24,21.83-28.04,33.15-41.29c5.18-0.3,9.36,4.52,8.18,9.45c-0.77,3.21-0.04,4.31,2.76,4.2
		C171.56,223.12,171.84,223.42,171.68,227.68z"/>
	<path class="st15" d="M171.68,227.68c-0.2-0.41-0.58-0.83-0.59-1.25c-0.05-2.29-0.68-3.62-3.22-2.19
		c-1.62,0.92-2.73-0.13-3.81-1.06c-1.05-0.9-1.03-2.02-0.62-3.28c1.41-4.37-1.08-8.71-5.57-9.81c-0.44-0.11-0.97,0.1-1.26-0.44
		c0.74-1.16,1.49-2.33,2.23-3.49c1.3-3.06,3.89-5.16,5.79-7.78c2.34-2.75,4.64-5.54,6.72-8.49c3.17-3.23,5.88-6.86,8.78-10.33
		c0.9-0.91,1.73-1.88,2.65-2.77c0.62-0.6,1.39-0.91,2.22-0.45c0.99,0.55,0.49,1.39,0.33,2.16c-0.59,2.71-0.59,5.42,0.05,8.13
		c0.11,0.38,0.18,0.76,0.22,1.15c0.16,1.41,0.14,2.81,0.13,4.22c0.1,3.29,0.06,6.58,0.04,9.86c1.19,9.88-5.3,15.89-11.17,22.22
		C173.13,224.87,172.91,226.69,171.68,227.68z"/>
	<path class="st14" d="M89.03,209.76c2.57-3.98,4.98-8.06,7.03-12.34c0.48-2.82,1.78-5.19,3.92-7.09c1.8-2.96,3.61-5.91,5.41-8.87
		c3.67-0.75,6.74,1.01,9.83,2.48c1.79,0.85,1.16,2.62,1,4.13c-5.93,9.14-11.85,18.29-17.78,27.43c-1.81,5.28-4.65,9.88-8.85,13.6
		c-2.21,3.26-4.48,6.49-6.6,9.8c-1.03,1.6-1.96,1.87-3.28,0.42c-0.4-0.44-0.89-0.79-1.38-1.14c-2.67-1.95-3.66-3.94-1.27-7.06
		c1.93-2.53,3.15-5.61,4.68-8.45c0.56-2.53,1.3-4.96,3.67-6.46c0.8-0.8,1.23-1.79,1.5-2.86C86.84,211.69,87.72,210.6,89.03,209.76z"
		/>
	<path class="st16" d="M165.15,198.87c-1.99,2.53-3.74,5.26-6.3,7.29c-4.54-0.11-17.53-7.82-19.47-11.56c-0.4-0.72,0-1.32,0.31-1.93
		c2.3-3.41,4.87-6.61,7.33-9.91c0.69-0.93,1.41-1.91,2.72-2.06c1.62,2.13,3.72,3.44,6.37,4.04c2.48,0.56,4.61,1.9,6.36,3.77
		C163.47,191.94,164.24,195.42,165.15,198.87z"/>
	<path class="st17" d="M174.61,224.08c1.24-3.26,3.8-5.63,5.9-8.23c3.2-3.96,5.07-8.12,4.36-13.25c1.77-0.35,0.68,2.84,2.53,2.14
		c1.65-0.62,1.35-2.36,1.6-3.73c0.11-0.6,0.3-1.16,0.86-1.5c1.17,10.83,1.9,21.68,1.26,32.58c-0.12,2.1,0.5,4.3-0.68,6.29
		c0-1.17,0-2.34,0-3.5c-0.46,2.04-1.19,3.63-3.36,4.22c-2.23,0.61-3.36-1.03-4.43-2.35C179.51,232.83,175.7,229.31,174.61,224.08z"
		/>
	<path class="st18" d="M132.95,189.7c-2.98-0.82-5.94-1.68-8.93-2.45c-2.05-0.53-3.65-1.59-4.7-3.44c-0.67-1.51,0.52-2.44,1.18-3.46
		c2.12-3.28,4.14-6.62,6.19-9.94c0.72-1.17,1.55-2.21,3.09-2.27c4.88,0.63,9.82-0.26,14.69,0.59c0.68,0.86,0.63,1.85,0.14,2.69
		c-3.57,6.04-6.41,12.51-10.59,18.2C133.66,189.81,133.31,189.84,132.95,189.7z"/>
	<path class="st19" d="M132.95,189.7c0.22-0.06,0.44-0.11,0.66-0.16c1.6-1.16,3.24-1.99,5.19-0.7c1.65,1.09,2.02,2.52,1.26,4.3
		c-0.23,0.49-0.46,0.98-0.68,1.47c-6.42,8.26-12.95,16.45-18.88,25.08c-0.53,1.97-1.47,3.62-3.48,4.43
		c-4.39,5.66-8.78,11.31-13.17,16.97c-0.15-0.08-0.3-0.17-0.45-0.25c1.66-2.93,3.32-5.86,4.97-8.79c0.62-2.93,2.02-5.37,4.4-7.22
		c0.69-1.18,1.39-2.36,2.08-3.54c-0.55-1.53,0.76-2.07,1.52-2.91C122.28,209.03,127.72,199.42,132.95,189.7z"/>
	<path class="st20" d="M127.19,171.05c-2.63,4.25-5.25,8.51-7.88,12.76c-1.03,1.42-2.06,2.84-3.09,4.27
		c-0.74-5.88-6.09-4.63-9.62-6.18c-0.36-0.16-0.9,0.03-1.21-0.43c0.07-0.42,0.14-0.84,0.2-1.26c3.37-3.86,6.5-7.91,9.37-12.16
		c0.27-0.29,0.6-0.47,0.99-0.55c3.07-0.28,6.09,0.11,9.07,0.8C126.34,168.6,128,168.94,127.19,171.05z"/>
	<path class="st21" d="M89.61,229.1c2.95-4.53,5.9-9.07,8.85-13.6c2.28,5.09,2.3,10.75,4.02,15.99c0.27,0.83-0.59,1.32-1.34,1.21
		C97.1,232.11,92.87,232.16,89.61,229.1z"/>
	<path class="st22" d="M112.78,224.81c-1.31,2.5-2.6,5.02-4.4,7.22c-1.82,0.19-2.7-0.27-2.94-2.45c-0.49-4.45-1.48-8.85-2.44-14.32
		C107.44,218.21,110.71,220.86,112.78,224.81z"/>
	<path class="st23" d="M89.03,209.76c-0.35,1.41-1.17,2.54-2.12,3.59c-1.42,0.02-2.85-0.03-4.26,0.08c-1.27,0.1-3.03,1.55-3.56-0.53
		c-0.51-1.99-0.66-4.26,0.21-6.27c0.32-0.74,1.26-0.35,1.92-0.08C83.83,207.62,86.43,208.69,89.03,209.76z"/>
	<path class="st24" d="M99.98,190.34c-1.02,2.52-2.25,4.93-3.92,7.09c-1.94-1.49-2.7-3.41-1.58-5.64
		C95.7,189.37,97.78,189.43,99.98,190.34z"/>
	<path class="st25" d="M85.42,216.21c-1.22,2.15-2.45,4.31-3.67,6.46c-0.21-0.27-0.5-0.51-0.63-0.82
		C78.75,216.09,78.76,216.08,85.42,216.21z"/>
	<path class="st26" d="M116.38,218.37c-0.08,1.19-0.94,1.98-1.52,2.91c-2.56-0.81-4.47-2.46-6.29-4.89
		C111.44,217.11,113.91,217.74,116.38,218.37z"/>
	<path class="st27" d="M117.02,224.11c1.03-1.58,1.95-3.24,3.48-4.43c2.72,1.67,0.25,3.11-0.37,4.41
		C119.35,225.72,118.07,225.37,117.02,224.11z"/>
	<path class="st28" d="M115.58,167.91c-0.2,0.04-0.41,0.08-0.61,0.13c-5.98-1.96-12.14-3.36-17.92-5.9
		c-8.63-3.79-16.58-8.56-22.85-15.79c-1.15-1.33-1.87-2.76-1.83-4.54c6.39-1.63,12.88-2.6,19.43-3.26
		c14.39-0.06,28.78-0.13,43.17-0.18c0.95,0,1.9,0.16,2.86,0.25c0.38,1.21-0.35,2.1-1,2.91c-6.45,8.12-12.59,16.48-19.1,24.55
		C117.13,166.83,116.53,167.57,115.58,167.91z"/>
	<path class="st29" d="M115.58,167.91c6.42-8.43,12.84-16.85,19.26-25.28c1.01-1.32,1.99-2.67,2.98-4.01
		c0.25-0.08,0.5-0.16,0.75-0.24c3.1,1.05,6.51,0.21,9.55,1.57c0.74,1.34-0.18,2.32-0.83,3.26c-5.44,7.91-10.84,15.84-16.13,23.84
		c-0.47,0.71-1.04,1.31-1.86,1.64c-1.13,0.4-1.38,1.59-2.11,2.36c-0.51-2.49-2.8-1.89-4.34-2.26
		C120.5,168.21,118.01,168.17,115.58,167.91z"/>
	<path class="st30" d="M162.42,188.84c-3.43-1.87-6.79-3.89-10.78-4.47c-1.92-0.28-1.02-2.51-2.08-3.45
		c-0.65-1.58,0.7-2.41,1.39-3.4c1.98-2.84,4.24-5.48,6.03-8.46c1.31-1.44,2.13-3.4,4.23-4.01c1.97-0.17,3.88-1.14,5.91-0.4
		c1.39,2.14-0.83,2.91-1.67,4.09c-2.3,3.25-2.21,3.92,1.31,5.5c1.71,0.76,3.36,1.7,5.41,2.02c-0.4-4.41-3.28-7.95-2.97-12.26
		c0.87-1.42,2.11-1.93,3.73-1.53c2.44,2.1,2.42,5.31,3.59,7.99c0.61,1.39,0.93,2.91,1.68,4.78c1.17-2.08,2.21-3.76,3.15-5.49
		c1.53-2.83,1.09-3.81-1.95-5.16c-1.39-0.61-3.09-0.52-4.21-1.78c0.07-1.78,1.51-2.31,2.77-2.9c2.26-1.07,4.68-1.73,6.99-2.68
		c2-0.82,3.13-0.19,3.26,2.03c0.05,3.13,0.1,6.26,0.15,9.4c-2.51,0.74-3.46,2.72-4.12,5c-0.73,2.53-2.46,4.52-3.78,6.73
		c-2.75,3.45-5.33,7.04-8.6,10.05c-0.93-1.67-2.33-1.66-3.99-1.31C166.06,189.53,164.15,190.35,162.42,188.84z"/>
	<path class="st31" d="M129.3,168.69c5.14-8.63,11.03-16.76,16.67-25.06c0.8-1.17,1.44-2.45,2.15-3.68
		c0.23-0.07,0.45-0.16,0.66-0.29c3.97,1.24,8.15,0.89,12.18,1.62c0.33,0.57,0.28,1.18-0.02,1.7c-5.14,8.81-9.85,17.86-15.45,26.4
		c-0.31,0.21-0.64,0.25-1,0.14c-3.7-0.04-7.39-0.1-11.09-0.12C131.99,169.4,130.58,169.46,129.3,168.69z"/>
	<path class="st32" d="M145.12,169.38c4.32-8.81,9.67-17.04,14.45-25.59c0.47-0.83,0.93-1.67,1.4-2.5
		c-0.02-0.13,0.02-0.24,0.12-0.33c5.5-0.67,10.42,0.8,14.89,3.99c0.07,0.14,0.1,0.29,0.09,0.45c-0.88,3.05-3.03,5.32-4.91,7.71
		c-3.37,4.25-5.97,9.13-10.19,12.7c-1.17,1.28-2.34,2.55-3.51,3.83c-3.46-1.29-6.83,0-10.24,0.34
		C146.51,170.03,145.37,171.13,145.12,169.38z"/>
	<path class="st33" d="M175.97,144.94c-4.87-1.68-9.78-3.2-14.89-3.99c6.41-10.56,12.83-21.12,19.24-31.68
		c0.34,6.57,0.95,12.88,1.74,19.06C182.94,135.29,180.19,140.21,175.97,144.94z"/>
	<path class="st34" d="M160.96,165.79c4.73-7.03,9.79-13.82,15.11-20.41c1.77,0.73,3.5,1.57,5.31,2.18
		c5.72,1.93,8.17,5.71,6.83,11.72c-0.82-0.26-0.27-2.26-1.82-1.53c-3.68,1.72-8.06,1.93-11.05,5.12c-0.68,0.66-1.38,0.61-2.09,0.08
		c-1.44-0.1-2.7,0.26-3.64,1.41c-0.6,0.57-1.18,1.2-2.14,0.73C165.3,165.33,163.13,165.56,160.96,165.79z"/>
	<path class="st35" d="M180.46,180.41c1.31-3.76,3.37-7.21,4.41-11.08c0.63-2.33,2.51,0.67,3.48-0.65c0.02,0.67,0.05,1.34,0.07,2.01
		c0.54,2.37,0.26,4.77,0.18,7.15c-0.06,1.74-1.48,2.49-3,2.47c-1.74-0.02-1.23-1.32-0.95-2.35c0.66-1.58,0.03-1.84-1.11-0.89
		C182.39,178.03,181.48,179.28,180.46,180.41z"/>
	<path class="st36" d="M184.66,177.95c0.28,0.62-0.43,2.05,1.04,1.65c1.19-0.32,2.61-0.75,2.63-2.48c0.02-2.15,0.07-4.29,0.1-6.44
		c0.18,0.14,0.34,0.29,0.49,0.47c0.05,3.97,0.09,7.94,0.14,11.9c-1.54,1.15-3.31,2.03-4.39,3.72
		C183.78,183.84,183.69,180.9,184.66,177.95z"/>
	<path class="st8" d="M44.39,116.84c-0.35,0.06-0.77,0.02-1.04,0.2c-2.65,1.86-5.28,2.01-7.06-0.9c-1.71-2.79-0.29-5.26,1.94-7.21
		c2.83-2.46,5.76-2.74,7.67-0.83c1.97,1.97,1.69,4.58-0.78,7.58c-0.3,0.36-0.51,0.79-0.76,1.18
		C44.35,116.87,44.39,116.84,44.39,116.84z"/>
	<path class="st37" d="M60.99,102.38c3.17,0.19,6.56-0.57,6.88,2.7c0.35,3.58-3.23,3.36-5.71,3.82c-2.21,0.41-4.41,0.94-6.7,0.75
		c-1.47-0.12-2.59-0.7-3.02-2.07c-0.45-1.42,0.66-2.25,1.7-2.8C56.52,103.52,58.69,101.48,60.99,102.38z"/>
	<path class="st38" d="M189.86,199.5c-0.41,2.81,1.17,6.84-4.14,6.66c-0.74-1.03,0.27-2.57-0.84-3.56
		c-0.05-3.64-0.11-7.28-0.16-10.92c2.65-0.69,3.75,1.21,4.94,2.96C189.72,196.26,189.79,197.88,189.86,199.5z"/>
	<path class="st39" d="M189.65,194.63c-1.88-0.6-2.88-2.65-4.94-2.96c0.01-1.44,0.02-2.87,0.03-4.31c2.35-0.97,3.53,0.62,4.71,2.18
		C189.52,191.24,189.59,192.94,189.65,194.63z"/>
	<path class="st40" d="M189.45,189.55c-1.72-0.4-2.81-2.15-4.71-2.18c-0.05-0.19-0.07-0.39-0.08-0.58c-0.34-3.37,2.07-3.5,4.39-3.72
		C189.19,185.22,189.32,187.39,189.45,189.55z"/>
	<path class="st38" d="M162.42,188.84c2.39,0.33,4.76-0.22,6.92-0.91c3.07-0.97,3.12,0.25,2.52,2.52c-1.96,3.03-4.21,5.82-6.72,8.41
		C162.89,195.89,162.2,192.49,162.42,188.84z"/>
	<path class="st41" d="M145.12,169.38c3.14-0.47,6.27-1,9.41-1.39c1.26-0.16,2.7-0.26,2.92,1.63c-2.06,4.17-5.5,7.38-7.9,11.31
		c-3.17,4.07-6.33,8.14-9.5,12.2c-0.56-4.12-1.74-4.78-6.45-3.6c3.63-6.67,7.25-13.34,10.88-20.01
		C144.7,169.47,144.91,169.42,145.12,169.38z"/>
	<path class="st42" d="M108.89,225.42c-0.01,0.74-0.44,1.26-1.02,1.28c-1.35,0.05-1.72-1.07-1.9-2.1c-0.11-0.61,0.41-1.14,1.09-1.02
		C108.07,223.77,108.6,224.54,108.89,225.42z"/>
	<path class="st43" d="M167.47,165.1c0.71-0.24,1.42-0.49,2.14-0.73c1.38,4.37,2.77,8.74,4.37,13.8c-3.83-1.57-7.07-2.89-10.29-4.22
		c-1.58-0.65-1.15-1.67-0.69-2.92C163.89,168.57,166.11,167.17,167.47,165.1z"/>
	<path class="st44" d="M173.25,162.95c0.7-0.03,1.4-0.05,2.1-0.08c1.05,0.16,2.13,0.22,3.13,0.51c5.31,1.54,5.94,3.07,3.23,7.66
		c-1.13,1.92-2.29,3.83-3.82,6.4C176.23,172.24,174.74,167.6,173.25,162.95z"/>
	<path class="st45" d="M174.28,182.95c-3.76,2.25-7.8,1.93-11.57,2.91c-0.91,0.24-1.68-0.27-1.7-1.33
		c-0.05-2.15-0.04-4.29-0.01-6.44c0.02-1.12,0.66-1.63,1.61-0.97C166.2,179.6,170.08,181.47,174.28,182.95z"/>
	<path class="st46" d="M169.44,170.98c-0.25,0.56-0.6,1.16-1.27,0.79c-0.45-0.25-0.96-0.85-0.98-1.32c-0.02-0.61,0.63-1.01,1.28-0.8
		C169.04,169.83,169.44,170.3,169.44,170.98z"/>
	<path class="st47" d="M178.62,169.47c0.66,0.13,1.05,0.5,0.95,1.19c-0.1,0.75-0.52,1.36-1.32,1.35c-0.8-0.01-1.31-0.57-1.17-1.38
		C177.22,169.88,177.86,169.53,178.62,169.47z"/>
</g>
</svg>
