<?xml version="1.0" encoding="utf-8"?>
<!-- Generator: Adobe Illustrator 23.0.2, SVG Export Plug-In . SVG Version: 6.00 Build 0)  -->
<svg version="1.1" id="Camada_1" xmlns="http://www.w3.org/2000/svg" xmlns:xlink="http://www.w3.org/1999/xlink" x="0px" y="0px"
	 viewBox="0 0 124.49 168.6" style="enable-background:new 0 0 124.49 168.6;" xml:space="preserve">
<style type="text/css">
	.st0{fill:#999999;}
	.st1{fill:#CFCFCF;}
	.st2{fill:#EAEAEA;}
	.st3{fill:#DDDDDD;}
	.st4{fill:#FEFEFE;}
	.st5{fill:#0D3A67;}
	.st6{fill:#1A6A9A;}
	.st7{fill:#0E3C69;}
	.st8{fill:#7E532D;}
	.st9{fill:#0D3B68;}
	.st10{fill:#0E3D6A;}
	.st11{fill:#7C532E;}
	.st12{fill:#8A592F;}
	.st13{fill:#FA9644;}
	.st14{fill:#196798;}
	.st15{fill:#87572E;}
	.st16{fill:#0E3D69;}
	.st17{fill:#0F416E;}
	.st18{fill:#196494;}
	.st19{fill:#13517F;}
	.st20{fill:#F69342;}
	.st21{fill:#104573;}
	.st22{fill:#186191;}
	.st23{fill:#124C7A;}
	.st24{fill:#175E8E;}
	.st25{fill:#155887;}
	.st26{fill:#145583;}
	.st27{fill:#EC8E41;}
	.st28{fill:#165B8A;}
	.st29{fill:#114876;}
	.st30{fill:#145280;}
	.st31{fill:#F19141;}
	.st32{fill:#E4893F;}
	.st33{fill:#DB853D;}
	.st34{fill:#0F406D;}
	.st35{fill:#104370;}
	.st36{fill:#114774;}
	.st37{fill:#124C79;}
	.st38{fill:#CF7F3B;}
	.st39{fill:#D6823D;}
	.st40{fill:#1F62A5;}
	.st41{fill:#C6986C;}
	.st42{fill:#DCBD8A;}
	.st43{fill:#1F91C7;}
	.st44{fill:#5BABD0;}
	.st45{fill:#EDD4AE;}
	.st46{fill:#0D355E;}
	.st47{fill:#0D365E;}
	.st48{fill:#0E365F;}
	.st49{fill:#0C3459;}
	.st50{fill:#0E365E;}
	.st51{fill:#0D365F;}
	.st52{fill:#0A2B4C;}
	.st53{fill:#0E355D;}
	.st54{fill:#0D355C;}
	.st55{fill:#0D335A;}
	.st56{fill:#0C3259;}
	.st57{fill:#061B2F;}
	.st58{fill:#12304E;}
	.st59{fill:#17304A;}
	.st60{fill:#072E58;}
	.st61{fill:#3EEBE3;}
	.st62{fill:#B5F0E7;}
	.st63{fill:#196697;}
	.st64{fill:#B1EDE5;}
	.st65{fill:#23698A;}
	.st66{fill:#216487;}
	.st67{fill:#15608A;}
	.st68{fill:#1F6485;}
	.st69{fill:#2167A9;}
	.st70{fill:#226AAA;}
	.st71{fill:#2269AA;}
	.st72{fill:#0E3F6C;}
	.st73{fill:#0D365D;}
	.st74{fill:#0E375F;}
	.st75{fill:#412915;}
	.st76{fill:#74502F;}
	.st77{fill:#714E2E;}
	.st78{fill:#6C4929;}
	.st79{fill:#714D2E;}
	.st80{fill:#704B2A;}
	.st81{fill:#704D2D;}
	.st82{fill:#6D492B;}
	.st83{fill:#6E4B2C;}
	.st84{fill:#765130;}
	.st85{fill:#6E4C2F;}
	.st86{fill:#654223;}
	.st87{fill:#644123;}
	.st88{fill:#614023;}
	.st89{fill:#2065A7;}
	.st90{fill:#0D345B;}
	.st91{fill:#CFA674;}
	.st92{fill:#D2A977;}
	.st93{fill:#236DAB;}
	.st94{fill:#229CCA;}
	.st95{fill:#815A35;}
	.st96{fill:#2397C5;}
	.st97{fill:#0C345F;}
	.st98{fill:#E5CCA6;}
	.st99{fill:#694525;}
	.st100{fill:#E9CFA7;}
	.st101{fill:#765432;}
	.st102{fill:#ED9042;}
	.st103{fill:#F6E49E;}
	.st104{fill:#DA9749;}
	.st105{fill:#C27535;}
	.st106{fill:#BB8240;}
	.st107{fill:#AEEBE5;}
	.st108{fill:#CDA272;}
	.st109{fill:#B68E63;}
	.st110{fill:#745636;}
	.st111{fill:#684628;}
	.st112{fill:#61B0D2;}
	.st113{fill:#67B5D3;}
	.st114{fill:#A7E5E3;}
	.st115{fill:#84CBDA;}
	.st116{fill:#7EC6D9;}
	.st117{fill:#C18A46;}
	.st118{fill:#CF8740;}
	.st119{fill:#6DB9D4;}
	.st120{fill:#72BDD6;}
	.st121{fill:#A0E0E1;}
	.st122{fill:#78C1D7;}
	.st123{fill:#8BD0DC;}
	.st124{fill:#93D6DE;}
	.st125{fill:#9ADBE0;}
	.st126{fill:#FBEEBF;}
	.st127{fill:#F9EABC;}
	.st128{fill:#C68B47;}
	.st129{fill:#C87B3B;}
	.st130{fill:#134D7A;}
	.st131{fill:#0F3D63;}
	.st132{fill:#2190A8;}
	.st133{fill:#BC8D49;}
	.st134{fill:#F7E8BA;}
	.st135{fill:#F5E4B5;}
	.st136{fill:#B98143;}
	.st137{fill:#24A0CC;}
	.st138{fill:#25A4CD;}
	.st139{fill:#27A9CE;}
	.st140{fill:#29AFD0;}
	.st141{fill:#2CB7D3;}
	.st142{fill:#B27A40;}
	.st143{fill:#2095C8;}
	.st144{fill:#F0D8B2;}
	.st145{fill:#C3B299;}
	.st146{fill:#E4CEAB;}
	.st147{fill:#3CE7E2;}
	.st148{fill:#3CE5E1;}
	.st149{fill:#186291;}
	.st150{fill:#2199CA;}
	.st151{fill:#236BAB;}
	.st152{fill:#239ECB;}
	.st153{fill:#2571AE;}
	.st154{fill:#246EAC;}
	.st155{fill:#236DAC;}
	.st156{fill:#114572;}
	.st157{fill:#18436A;}
	.st158{fill:#D4AC79;}
	.st159{fill:#114874;}
	.st160{fill:#E5CD9C;}
	.st161{fill:#3ADFDF;}
	.st162{fill:#3BE2E0;}
	.st163{fill:#38D9DE;}
	.st164{fill:#2BB5D2;}
	.st165{fill:#2DBBD4;}
	.st166{fill:#2CB8D3;}
	.st167{fill:#29B0D1;}
	.st168{fill:#24A2CC;}
	.st169{fill:#26A7CE;}
	.st170{fill:#28ABCF;}
	.st171{fill:#36D4DC;}
	.st172{fill:#2FC1D6;}
	.st173{fill:#2EBED5;}
	.st174{fill:#32C8D8;}
	.st175{fill:#33CDDA;}
	.st176{fill:#EED9A9;}
	.st177{fill:#EAD4A3;}
	.st178{fill:#165C8C;}
	.st179{fill:#F2E0B0;}
	.st180{fill:#E6C98B;}
	.st181{fill:#F0DDAD;}
	.st182{fill:#2675B0;}
	.st183{fill:#2879B3;}
	.st184{fill:#D6B07B;}
	.st185{fill:#114875;}
	.st186{fill:#E8D1A0;}
	.st187{fill:#2A7FB6;}
	.st188{fill:#2C85B9;}
	.st189{fill:#3294C1;}
	.st190{fill:#3499C4;}
	.st191{fill:#34CFDA;}
	.st192{fill:#2F8BBC;}
	.st193{fill:#2D88BA;}
	.st194{fill:#308FBF;}
	.st195{fill:#DFBF85;}
	.st196{fill:#E2C387;}
	.st197{fill:#DCBA81;}
	.st198{fill:#155786;}
	.st199{fill:#145382;}
	.st200{fill:#D8B47E;}
	.st201{fill:#12446C;}
	.st202{fill:#32C8D7;}
	.st203{fill:#134F7D;}
</style>
<g>
	<path class="st0" d="M78.17,168.6c1.2-0.39,2.4-0.39,3.6,0C80.57,168.6,79.37,168.6,78.17,168.6z"/>
	<path class="st1" d="M124.49,133.08c-0.46-0.69-0.17-1.44-0.2-2.17c0.07-0.1,0.14-0.1,0.2,0.01
		C124.49,131.64,124.49,132.36,124.49,133.08z"/>
	<path class="st2" d="M124.28,129.47c0-0.72,0-1.44,0-2.16c0.07,0,0.14,0,0.2,0.01c0,0.72,0,1.44,0,2.16
		C124.42,129.59,124.35,129.58,124.28,129.47z"/>
	<path class="st3" d="M124.28,129.47c0.07,0,0.14,0,0.2,0.01c0,0.48,0,0.96,0,1.44c-0.07-0.01-0.13-0.01-0.2-0.01
		C124.29,130.43,124.29,129.95,124.28,129.47z"/>
	<path class="st4" d="M118.55,130.23c0.03,7.58-2.6,14.12-7.79,19.62c-6.26,6.62-14.02,10.39-22.92,12.05
		c-3.67,0.68-7.33,1.21-11.06,0.71c-2.97-0.4-5.84-1.24-8.73-2.04c-5.7-1.57-9.81-5.39-13.91-9.39c-1.9-1.86-3.72-3.68-5.13-5.93
		c-5.98-9.59-11.97-19.17-17.76-28.88c-3.8-6.38-7.62-12.74-11.43-19.12c-0.22-0.38-0.51-0.76-0.59-1.18
		c-0.52-2.62-2.1-4.69-3.43-6.9c-1.63-2.73-3.12-5.56-4.62-8.37c-1.23-2.29-2.39-4.61-3.57-6.92c-0.15-0.29-0.34-0.48-0.64-0.66
		c-1.55-0.93-3.04-1.94-3.93-3.59c-1.12-2.06-1.84-4.22-1.38-6.59c0.1-0.5,0.06-0.94-0.06-1.4c-0.56-2.21-0.97-4.42-0.96-6.72
		c0.02-3.48-0.18-6.95-0.33-10.42c-0.27-6.23-0.11-12.47-0.29-18.7C-0.08,21.54,0.07,17.26,0.43,13c0.19-2.23,0.01-4.51,0.87-6.67
		c1.06-2.65,2.85-4.63,5.55-5.56c4.93-1.7,9.48-0.41,13.81,2.07c5.89,3.37,11.57,7.11,17.69,10.09c2.75,1.34,4.92,3.54,7.53,5.09
		c3.29,1.96,6.61,3.91,9.67,6.22c2.81,2.12,4.85,4.9,6.59,7.95c0.88,1.55,2.07,2.93,3.14,4.38c4.53,6.1,8.76,12.41,13.01,18.7
		c9.88,14.63,19.36,29.53,28.89,44.4c2.86,4.47,5.63,9.01,8.59,13.42c1.31,1.95,1.6,4.35,1.94,6.62
		C118.22,123.2,118.58,126.7,118.55,130.23z"/>
	<path d="M112.77,129.81c0.3,6.55-2.04,11.64-6.12,16.02c-5.45,5.85-12.31,9.02-20.07,10.57c-7.28,1.46-14.14,0.34-20.7-2.9
		c-2.92-1.45-5.17-3.82-7.38-6.19c-0.41-0.44-0.79-0.88-1.32-1.18c-1.5-0.84-2.31-2.29-3.17-3.68c-5.19-8.36-10.4-16.7-15.5-25.1
		c-4.23-6.97-8.23-14.08-12.54-20.99c-1.41-2.26-1.97-4.83-3.3-7.1C18.8,82.66,15,76.02,11.66,69.14c-0.1-0.21-0.24-0.56-0.38-0.57
		c-1.42-0.13-1.42-1.35-1.72-2.27c-0.78-2.39-2.13-4.55-2.71-7c-0.37-1.56-0.39-3.15-0.43-4.74c-0.08-2.8-0.17-5.59-0.27-8.39
		c-0.28-8.35-0.35-16.7-0.29-25.06c0.02-3.11,0.02-6.22,0.58-9.3c0.16-0.89-0.29-1.73-0.07-2.7c0.56-2.49,3.17-3.65,5.42-3.43
		C15,5.99,17.57,7.7,20.25,9.25c5.2,3.02,10.29,6.23,15.68,8.95c2.87,1.45,5.19,3.8,8.03,5.37c2.09,1.16,4.04,2.55,6.08,3.8
		c3.15,1.92,5.39,4.58,7.15,7.82c1.11,2.05,2.74,3.82,4.17,5.7c3.05,4,5.78,8.23,8.65,12.36c7.02,10.13,13.7,20.49,20.38,30.85
		c6.46,10.01,12.71,20.16,19.3,30.09c2.14,3.21,2.43,6.66,2.8,10.2C112.67,126.32,112.89,128.28,112.77,129.81z"/>
	<path class="st5" d="M71.89,151.26c-3.1-0.71-5.63-2.36-7.87-4.56c-1.59-1.56-3.11-3.18-4.89-4.57c-1.41-1.11-2.09-2.99-3.05-4.55
		c-6.01-9.76-12.01-19.52-17.96-29.32c-2.68-4.4-5.24-8.87-7.85-13.31c-0.01-2.1-1.73-3.46-2.32-5.31c1.21-0.04,2.34,0.59,3.08,1.26
		c1.22,1.1,2.67,1.48,4.06,2.1c0.25,0.11,0.53,0.17,0.78,0.3c0.21,0.11,0.36,0.28,0.49,0.47c0.56,0.74,0.85,1.66,1.49,2.36
		c0.07,0.09,0.12,0.18,0.17,0.28c0.22,0.5,0.39,1.04,0.94,1.3c0.42,0.3,0.61,0.74,0.69,1.23c0.06,0.74,0.4,1.31,1.05,1.68
		c1.38,1.84,2.52,3.82,3.5,5.9c0.04,0.64,0.17,1.24,0.83,1.55c1.23,1.59,2.17,3.35,3.01,5.17c-0.03,0.74,0.41,1.27,0.78,1.84
		c0.57,1.26,1.32,2.42,1.97,3.64c0.45,0.69,0.78,1.45,1.25,2.13c0.07,0.09,0.12,0.18,0.18,0.28c0.62,1,0.89,2.21,1.87,2.98
		c0.57,0.54,0.89,1.22,1.14,1.95c0.1,0.97,0.56,1.74,1.27,2.38c0.64,0.69,1.17,1.45,1.38,2.39c-0.06,0.64,0.2,1.12,0.76,1.44
		c0.42,0.3,0.61,0.74,0.69,1.23c0.03,0.78,0.47,1.38,0.86,1.99c0.06,0.09,0.12,0.18,0.17,0.27c0.29,0.47,0.35,1.1,0.96,1.34
		c0.74,0.81,1.11,1.84,1.62,2.72c-0.14-0.11-0.06-0.3-0.04-0.49c0.06-1.04,0.15-2.07-0.08-3.1c-0.09-1.58,0.43-3.05,0.9-4.51
		c0.62-1.92,1.2-3.86,1.88-5.76c0.16-0.45,0.32-0.9,0.69-1.23c0.75-0.27,0.65-1.1,1.06-1.6c0.25-0.53,0.62-1.02,0.6-1.64
		c0.24-0.86,0.72-1.56,1.39-2.14c0.44-0.07,0.52-0.4,0.55-0.77c0.4-0.77,0.81-1.54,1.66-1.93c0.92-0.62,1.78-1.29,2.25-2.34
		c0.65-0.89,1.54-1.51,2.49-2.02c2.54-1.35,4.9-3.03,7.65-3.98c2.67-0.93,5.39-1.43,8.22-0.91c0.44,0.17,0.88,0.32,1.35,0.38
		c0.26,0.18,0.54,0.26,0.85,0.15c0.44-0.12,0.85,0.08,1.31,0.13c-2.23-3.49-4.67-6.8-6.95-10.21c-0.3-0.45-0.74-0.87-0.62-1.5
		c0.69-0.55,1.47-0.61,2.29-0.43c0.81,0.18,1.62,0.27,2.44,0.17c1.97,2.71,3.67,5.6,5.47,8.42c2.66,4.17,5.19,8.43,7.94,12.53
		c1.31,1.95,1.65,4.01,1.69,6.22c-0.61,0-0.6-0.56-0.78-0.9c-1.43-2.65-3.02-5.14-5.74-6.68c-2.01-1.14-4.21-1.62-6.45-1.98
		c-0.54-0.09-1.01-0.37-1.52-0.56c-3.47-1.32-6.92-1.44-10.27,0.31c-2.52,1.31-4.77,3.02-6.7,5.12c-3.05,3.28-5.68,6.85-7.59,10.93
		c-0.93,1.99-1.45,4.13-2.24,6.17c-0.25,0.58-0.12,1.19-0.13,1.79c-0.05,1.88,0.2,3.72,0.74,5.52c0.12,0.42,0.2,0.85,0.21,1.29
		c0.03,0.58-0.11,1.18,0.13,1.75c0.65,0.74,1.35,1.44,2.15,2.03c0.65,0.75,1.39,1.41,1.99,2.21
		C71.95,150.56,72.31,150.84,71.89,151.26z"/>
	<path class="st6" d="M45.32,29.58c2.89,1.4,5.48,3.25,7.16,5.99c4.49,7.28,10.03,13.82,14.59,21.04c1.26,1.99,2.6,3.92,3.91,5.88
		c0.11,0.33-0.08,0.57-0.34,0.66c-1.47,0.49-2.92,1.27-4.5,0.32c-0.12-0.02-0.23-0.06-0.34-0.1c-0.94-0.95-1.41-2.2-2.15-3.28
		c-2.48-3.67-4.59-7.57-7.3-11.09c-0.22-0.29-0.35-0.62-0.48-0.96c-0.24-0.67-0.61-1.25-1.21-1.66c-1.56-1.81-2.94-3.75-4.27-5.74
		c-0.17-0.34-0.23-0.77-0.71-0.85c-0.19-0.1-0.28-0.27-0.34-0.46c-0.08-0.37-0.37-0.56-0.65-0.75c-0.87-0.82-1.5-1.84-2.29-2.72
		c-0.64-0.71-1.32-1.25-2.33-1.18c-0.11-0.02-0.21-0.04-0.31-0.07c-0.52-0.23-0.9,0.06-1.3,0.32c-0.83,0.3-1.67,0.58-2.58,0.51
		c-1.34-0.55-1.76-2.57-0.78-3.76c0.51-0.34,1.11-0.41,1.7-0.48C42.43,31,43.99,30.62,45.32,29.58z"/>
	<path class="st7" d="M17.71,71.4c-1.5-2.76-2.89-5.58-4.14-8.46c-0.31-0.72-0.93-1.16-1.3-1.82c-0.82-1.44-1.38-2.93-1.48-4.59
		c0.38-1.24,1.11-2.32,1.6-3.51c0.11-0.2,0.23-0.4,0.5-0.39c0.58,0.46,0.95,1.09,1.21,1.76c0.24,0.62,0.63,0.98,1.24,1.16
		c-0.09,0.82,0.19,1.5,0.61,2.21c1.38,2.32,2.58,4.74,3.87,7.12c0.97,1.82,1.95,3.64,2.87,5.48c0.83,1.49,1.67,2.96,2.36,4.52
		c0.28,1.32,1.26,2.26,1.9,3.38c0.24,0.42,0.46,0.86,0.76,1.24c0.37,0.55,0.64,1.15,0.95,1.73c0.04,0.11,0.05,0.22,0.06,0.34
		c-0.16,0.69-0.6,0.96-1.07,0.39c-1-1.22-2.4-1.93-3.47-3.05c-2.02-2.1-3.89-4.31-5.64-6.64C18.27,71.95,18.08,71.58,17.71,71.4z"/>
	<path class="st8" d="M71.89,151.26c0-0.87-0.83-1.16-1.24-1.75c-0.33-0.48-0.87-0.8-1.12-1.36c0.98-0.15,1.47,0.72,2.21,1.07
		c0.3,0.55,0.82,0.47,1.31,0.45c0.37-0.03,0.67,0.11,0.95,0.34c0.98,0.65,2.05,0.77,3.18,0.56c0.77-0.02,1.58-0.34,2.23,0.36
		c-0.28,0.5-0.69,0.2-1.05,0.2c0.56,0.19,1.06,0.06,1.54-0.27c0.45-0.12,0.9-0.15,1.34,0.06c0.52,0.52,1.17,0.14,1.61,0.26
		c0.31-0.04,0.08-0.28,0.16-0.14c0.03,0.05,0,0.09-0.07,0.09c-0.49,0.03-1,0.17-1.46-0.12c0.57-0.88,1.42-0.44,2.17-0.47
		c0.45,0.09,0.9,0.31,1.35-0.01c0.27-0.14,0.55-0.2,0.85-0.15c0.86,0.26,1.67-0.03,2.49-0.26c0.52-0.21,1-0.53,1.56-0.63
		c0.79,0.13,1.47-0.22,2.17-0.52c0.57-0.17,1.1-0.43,1.63-0.71c0.51-0.3,1.17-0.38,1.46-1c0.67-0.7,1.5-1.16,2.34-1.6
		c0.59,0.01,0.88-0.47,1.3-0.76c0.8-0.64,1.64-1.23,2.1-2.2c1.17-1.73,2.31-3.48,3.47-5.23c0.4-0.31,0.62-0.69,0.54-1.22
		c0.01-0.36,0.15-0.68,0.36-0.96c0.84-1.27,1.05-2.65,0.75-4.13c-0.15-1.14-0.06-2.28-0.08-3.43c0.08-0.56-0.12-1.09-0.22-1.63
		c-0.14-0.77,0.12-0.97,0.83-0.64c0.61,0.29,1.17,0.65,1.68,1.1c0.24,2.81,0.54,5.59-0.26,8.4c-2.04,7.2-7.31,11.33-13.6,14.42
		c-4.57,2.24-9.49,3.31-14.59,3.31C77.04,152.73,74.42,152.22,71.89,151.26z"/>
	<path class="st9" d="M17.71,71.4c0.56-0.11,0.78,0.33,1.01,0.68c1.36,2.04,3.07,3.79,4.68,5.62c1.02,1.16,2.09,2.36,3.56,3.01
		c0.43,0.19,0.48,0.58,0.68,0.91c0.34,0.56,0.71,0.72,0.85-0.15c0.75,0.05,0.74,0.86,1.21,1.19c0.07,0.08,0.13,0.17,0.18,0.26
		c0.2,0.34,0.28,0.78,0.75,0.9c0.88,0.97,1.57,2.07,2.07,3.28c0.01,0.41,0.05,0.8,0.5,0.99c0.3,0.17,0.42,0.45,0.47,0.78
		c0.04,0.56,0.36,0.95,0.79,1.28c0.46,0.34,0.81,0.75,0.9,1.34c-0.1,0.75,0.71,1.23,0.58,1.98c-1.67-0.56-3.42-0.77-4.79-2.17
		c-0.79-0.81-2.1-1.13-3.18-1.66c-1.49-2.17-2.71-4.5-3.99-6.8C21.86,79.04,19.6,75.32,17.71,71.4z"/>
	<path class="st10" d="M10.29,33.26c-0.19-5.63-0.14-11.26-0.01-16.88c0.02-0.91,0.15-1.83,0.21-2.74c0.07-1.01,1.72-3.21,2.68-3.25
		c0.93-0.04,1.61,0.76,2.37,1.24c-0.5,0.46-0.46,1.33-1.22,1.58c-0.62-0.2-1.05-0.19-0.9,0.69c0.09,0.5,0.04,1.03,0.04,1.55
		c0.02,3.49,0.05,6.98,0.02,10.46c0.06,0.16,0.16,0.18,0.3,0.08c0.42-0.43,0.6-1.11,1.3-1.27c0.65,0.34,0.22,0.72,0.02,1.07
		c-0.4,0.68-1.04,1.19-1.37,1.93c0.58-0.35,0.93-0.92,1.39-1.37c0.27-0.26,0.41-0.73,0.94-0.57c0.3,1.05-0.71,1.46-1.06,2.19
		c-0.64,0.67-1.15,1.44-1.68,2.19c-0.18,0.2-0.37,0.39-0.53,0.61C11.95,31.61,11.55,32.87,10.29,33.26z"/>
	<path class="st11" d="M108.19,126.6c-0.94,0.08-1.42-0.89-2.32-1.07c0.03,0.74,0.52,1.36,0.36,2.07c-0.75-0.2-0.82-0.86-0.97-1.45
		c-0.1-0.41,0.02-0.87-0.2-1.26c-0.23-0.4-0.52-0.78-0.49-1.28c0.1-0.52,0.11-1.03-0.28-1.47c-0.99-2.89-3.65-4.11-5.82-5.82
		c-0.28-0.18-0.53-0.4-0.79-0.6c-0.64-0.46-1.31-0.87-1.95-1.32c-0.34-0.24-0.79-0.4-0.81-0.93c6.07,0.42,10.17,3.59,12.62,9.05
		c0.11,0.25,0.25,0.48,0.38,0.73C108.15,124.35,108.26,125.47,108.19,126.6z"/>
	<path class="st12" d="M10.29,33.26c0.79-0.88,1.58-1.77,2.37-2.65c0.73,0.17,0.54,0.78,0.55,1.25c0.04,1.61,0.02,3.23,0.02,4.85
		c0.07,0.94-0.34,1.85-0.24,2.79c0.11,2.6-0.15,5.18-0.25,7.77c-0.01,0.16-0.01,0.32-0.04,0.48c-0.06,0.27-0.1,0.61-0.44,0.62
		c-0.3,0.01-0.49-0.27-0.56-0.55c-0.33-1.31-0.86-2.58-0.96-3.95c-0.03-0.43,0-0.88-0.26-1.26C10.11,39.49,10.29,36.37,10.29,33.26z
		"/>
	<path class="st13" d="M45.32,29.58c-0.66,1.17-1.79,1.49-3,1.69c-1.02,0.17-2.03,0.37-3.04,0.56c-1.02,0.42-2,0.94-3.14,0.97
		c-0.3-0.06-0.71-0.05-0.69-0.49c0.02-0.41,0.27-0.74,0.66-0.93c0.44-0.22,0.95-0.1,1.4-0.27c0.53-0.1,1.05-0.25,1.58-0.32
		c0.17-0.09,0.43,0.14,0.55-0.14c-0.09-0.09-0.17-0.18-0.25-0.27c-0.24-0.34-0.67-0.45-0.92-0.78c-0.05-0.11-0.08-0.22-0.1-0.34
		c0.07-0.8,0.09-1.6,0.37-2.36c0.15-0.42,0.22-0.98,0.89-0.91c1.58,0.96,3.16,1.93,4.74,2.9C44.69,29.1,44.99,29.35,45.32,29.58z"/>
	<path class="st14" d="M66.14,63.29c1.29,0.63,2.54,0.18,3.79-0.16c0.4-0.11,0.88-0.15,1.05-0.64c1.19,1.16,1.6,2.85,2.71,4.07
		c-1.06,1.21-3.49,1.6-5.08,0.82c-0.28-0.15-0.5-0.37-0.7-0.61C67.06,65.74,66.38,64.63,66.14,63.29z"/>
	<path class="st15" d="M10.47,42.59c0.69,0.53,0.52,1.38,0.7,2.08c0.29,1.17,0.81,2.27,1.02,3.48c0.29-2.9,0.57-5.78,0.46-8.68
		c0.32-0.1,0.49,0.08,0.6,0.34c0.03,0.13,0.03,0.26,0,0.4c-0.08,1.47,0,2.94-0.05,4.41c0,0.2-0.04,0.4-0.08,0.59
		c-0.21,0.56-0.15,1.14-0.15,1.71c0.01,0.64-0.07,1.28,0.14,1.9c0.08,0.39,0.08,0.77,0.01,1.16c-0.24,0.66-0.08,1.36-0.23,2.02
		c-0.02,0.39-0.57,0.66-0.24,1.13c-0.6,1.14-1.01,2.38-1.87,3.38C10.79,51.87,10.32,47.24,10.47,42.59z"/>
	<path class="st16" d="M92.83,96.07c-0.54,0.99-1.45,0.33-1.98,0.2c-0.96-0.24-1.77-0.03-2.64,0.15c-0.47,0.02-0.64-0.39-0.93-0.64
		c-0.94-1.41-1.94-2.79-2.79-4.26c-0.04-0.18-0.04-0.35,0.04-0.52c0.46-0.44,0.76-0.04,0.93,0.26c0.41,0.7,0.98,0.81,1.7,0.72
		c1.01-0.13,2.03,0.35,3.04-0.01C91.29,93.21,91.76,94.83,92.83,96.07z"/>
	<path class="st17" d="M90.21,91.98c-0.15,0.31-0.37,0.57-0.73,0.52c-1.14-0.15-2.25-0.38-3.41-0.08c-0.33,0.08-0.42-0.41-0.61-0.65
		c-0.22-0.28-0.2-0.92-0.84-0.63c-1.09-0.43-1.41-1.42-1.78-2.39c0.32-0.76,0.95-0.37,1.43-0.33c1.25,0.11,2.49,0.46,3.76,0.21
		C88.88,89.66,89.64,90.76,90.21,91.98z"/>
	<path class="st18" d="M68.57,67.08c1.83,1,3.46,0.12,5.12-0.52c0.85,0.82,1.21,1.98,1.92,2.89c-1.51,0.76-3.1,1.13-4.8,0.93
		c-0.6-0.1-0.85-0.62-1.22-1.01C69.14,68.66,68.51,68.02,68.57,67.08z"/>
	<path class="st19" d="M82,79.35c0.73,0.75,1.25,1.64,1.71,2.56c-0.13,0.85-0.77,0.75-1.35,0.71c-1.11-0.09-2.21-0.21-3.3,0.11
		c-0.56,0.11-0.76-0.34-1.04-0.68c-0.35-0.76-1.16-1.3-1.08-2.27c0.29-0.47,0.75-0.34,1.17-0.34C79.41,79.44,80.71,79.56,82,79.35z"
		/>
	<path class="st20" d="M39.61,26c-1.09,1-0.64,2.46-1.08,3.66c-0.3,0.2-0.53,0.05-0.76-0.14c-0.33-0.53-0.85-0.77-1.44-0.88
		c-0.11-0.04-0.21-0.1-0.3-0.17c-0.29-0.38-0.75-0.64-0.82-1.17c0.03-0.87,0.14-1.73,0.51-2.53c0.15-0.32,0.21-0.81,0.78-0.69
		C37.47,24.83,38.72,25.12,39.61,26z"/>
	<path class="st21" d="M88.04,88.62c-0.31,0.65-0.84,0.54-1.41,0.45c-1.11-0.19-2.23-0.32-3.35-0.48c-0.2-0.03-0.27,0.09-0.32,0.26
		c-0.04,0.03-0.08,0.07-0.13,0.1c-0.68-0.36-0.72-1.22-1.29-1.66c-0.38-0.47-0.72-0.95-0.57-1.61c0.24-0.3,0.49-0.1,0.74-0.01
		c1.56,0.61,3.2,0.67,4.85,0.64C87.35,86.89,87.39,87.95,88.04,88.62z"/>
	<path class="st22" d="M70.69,70.27c1.68-0.05,3.27-0.63,4.93-0.82c0.47,0.5,0.83,1.08,1.11,1.7c0.36,0.69-0.1,0.95-0.63,1.13
		c-1.23,0.41-2.5,0.52-3.78,0.48c-0.31-0.08-0.54-0.28-0.76-0.51C71.21,71.62,70.55,71.12,70.69,70.27z"/>
	<path class="st23" d="M78.89,82.67c0.07-0.49,0.44-0.49,0.79-0.47c0.97,0.06,1.95-0.16,2.91,0.15c0.47,0.15,0.83-0.08,1.12-0.44
		c0.85,0.71,1.01,1.86,1.71,2.65c-0.06,0.15-0.15,0.35-0.3,0.34c-1.78-0.08-3.66,0.51-5.27-0.75c-0.29-0.22-0.62-0.41-0.88-0.67
		C78.8,83.24,78.62,82.98,78.89,82.67z"/>
	<path class="st24" d="M72.22,72.6c1.18-0.17,2.37-0.31,3.54-0.53c0.46-0.09,1.07-0.17,0.97-0.91c0.57,0.66,1.05,1.39,1.43,2.18
		c0.27,0.65-0.2,0.86-0.66,1c-0.91,0.28-1.86,0.41-2.81,0.49c-1.15,0.1-1.44-0.99-2.13-1.52C72.37,73.1,72,73,72.22,72.6z"/>
	<path class="st25" d="M79.67,75.68c0.53,0.48,0.79,1.15,1.13,1.76c0.22,0.71-0.37,0.71-0.74,0.72c-1.39,0.03-2.79,0.19-4.18-0.04
		c-0.12-0.02-0.24-0.06-0.35-0.11c-0.78-0.57-1.03-1.53-1.65-2.23c-0.17-0.26-0.28-0.54-0.15-0.85c0.45-0.43,0.74-0.03,0.96,0.26
		c0.54,0.7,1.23,0.73,2.03,0.64C77.7,75.71,78.68,75.53,79.67,75.68z"/>
	<path class="st26" d="M75.74,77.93c1.37-0.02,2.74-0.03,4.11-0.06c0.37-0.01,0.83,0.15,0.94-0.43c0.63,0.49,0.82,1.26,1.2,1.91
		c-0.11,0.59-0.59,0.45-0.95,0.44c-1.19-0.04-2.39,0.13-3.57-0.1c-0.24-0.04-0.37,0.11-0.51,0.24c-0.03,0.05-0.06,0.1-0.09,0.15
		C76.28,79.48,75.79,78.82,75.74,77.93z"/>
	<path class="st27" d="M32.64,21.44c1.04,0.49,2.25,0.76,2.78,1.96c-0.77,0.15-1.22,0.58-1.39,1.38c-0.13,0.61-0.2,1.28-0.67,1.77
		c-0.15,0.1-0.32,0.13-0.5,0.1c-0.45-0.17-0.82-0.46-1.17-0.79c-0.24-0.29-0.5-0.55-0.56-0.95c0.05-0.99,0.51-1.88,0.7-2.84
		C31.91,21.7,32.11,21.32,32.64,21.44z"/>
	<path class="st28" d="M79.67,75.68c-1.32,0.47-2.71,0.37-4.07,0.5c-0.5,0.05-0.76-0.31-1.03-0.68c-0.17-0.23-0.2-0.77-0.73-0.48
		c-0.75,0.02-0.75-0.7-1.1-1.08c-0.13-0.24-0.3-0.48-0.14-0.78c0.47-0.41,0.46,0.14,0.61,0.32c0.2,0.24,0.33,0.55,0.55,0.76
		c0.69,0.68,3.89,0,4.4-0.92C78.82,74.02,79.21,74.87,79.67,75.68z"/>
	<path class="st29" d="M79.82,83.88c1.76,1.16,3.71,0.68,5.61,0.69c0.54,0.48,0.79,1.14,1.12,1.75c-0.3,0.53-0.78,0.47-1.26,0.38
		c-1.42-0.26-2.91-0.23-4.25-0.87c-0.53,0.06-0.66-0.38-0.89-0.7C79.98,84.73,79.54,84.4,79.82,83.88z"/>
	<path class="st30" d="M24.17,16.68c1.09,0.64,2.37,0.99,3.17,2.08c-0.05,0.26-0.27,0.36-0.46,0.49c-0.98,0.44-1.64,1.43-2.75,1.65
		c-0.71-0.26-1.59-0.4-1.06-1.52c0.14-0.21,0.37-0.26,0.6-0.32c0.15-0.04,0.19-0.18,0.06-0.08c-0.01,0.01-0.05-0.04-0.09-0.07
		c-0.18-0.11-0.31-0.25-0.42-0.42C22.84,17.2,23.09,16.74,24.17,16.68z"/>
	<path class="st31" d="M33.29,26.5c0.21-0.75,0.53-1.49,0.62-2.26c0.13-1.08,0.66-1.2,1.52-0.84c0.4,0.16,0.78,0.34,1.08,0.67
		c-0.9,0.97-0.79,2.25-1.06,3.41c-0.08,0.13-0.14,0.28-0.32,0.32c-0.22-0.01-0.39-0.13-0.54-0.28c-0.23-0.29-0.55-0.43-0.89-0.56
		C33.5,26.86,33.33,26.74,33.29,26.5z"/>
	<path class="st32" d="M32.64,21.44c-0.26,0.12-0.52,0.28-0.52,0.58c-0.01,1.08-0.63,2.01-0.75,3.05c-0.14,0.14-0.32,0.2-0.52,0.19
		c-0.6-0.12-1.06-0.42-1.32-0.99c-0.06-1.02,0.2-2.01,0.39-3c0.07-0.37,0.17-0.89,0.79-0.8C31.33,20.86,32.1,20.92,32.64,21.44z"/>
	<path class="st33" d="M30.72,20.48c-0.65,0.48-0.59,1.23-0.7,1.9c-0.11,0.65-0.22,1.3-0.33,1.95c-0.04,0.04-0.09,0.08-0.13,0.12
		c-0.78,0-1.11-0.56-1.44-1.13c-0.02-0.12-0.02-0.24,0-0.36c0.29-0.7,0.52-1.41,0.59-2.17c0.04-0.44,0.08-0.98,0.75-0.99
		C29.92,19.94,30.35,20.16,30.72,20.48z"/>
	<path class="st34" d="M14.28,13.09c0.35-0.23,0.49-0.58,0.52-0.96c0.05-0.49,0.39-0.49,0.74-0.5c0.61,0.22,1.17,0.5,1.62,0.99
		c-0.08,0.83,0.23,1.63,0.26,2.45c-0.51,0.21-0.88-0.12-1.27-0.34C15.57,14.13,14.51,14.09,14.28,13.09z"/>
	<path class="st35" d="M17.43,15.06c-0.63-0.75-0.75-1.57-0.26-2.44c0.67,0.7,1.8,0.63,2.41,1.42c-0.33,0.69-0.61,1.34,0.31,1.86
		c0.29,0.16,0.39,0.5-0.05,0.71c-0.35,0.1-0.67,0.01-0.96-0.19c-0.37-0.32-0.78-0.56-1.2-0.8C17.5,15.47,17.38,15.31,17.43,15.06z"
		/>
	<path class="st36" d="M19.8,16.46c0.31-0.3-0.01-0.38-0.18-0.5c-0.99-0.65-1-1.05-0.04-1.92c0.69,0.43,1.56,0.55,2.12,1.2
		c-0.51,0.83,0.25,1.6,0.11,2.41c-0.5,0.17-0.86-0.15-1.26-0.33C20.24,17.08,19.82,16.94,19.8,16.46z"/>
	<path class="st37" d="M21.77,17.61c-0.29-0.78-1.25-1.54-0.07-2.36c0.72,0.65,1.8,0.68,2.47,1.43c-1.07,0.29-0.99,1.03-0.73,1.85
		c-0.04,0.04-0.08,0.08-0.11,0.13c-0.57,0.07-0.99-0.2-1.36-0.58C21.85,17.93,21.77,17.79,21.77,17.61z"/>
	<path class="st38" d="M26.77,18.99c0.19-0.08,0.37-0.15,0.56-0.23c0.45,0.08,0.92,0.1,1.23,0.51c-0.33,1.16-0.48,2.36-0.86,3.51
		c-0.07,0.1-0.16,0.17-0.28,0.2c-0.43-0.18-0.77-0.51-1.15-0.77c-0.07-0.1-0.12-0.21-0.14-0.32C26.21,20.89,26.45,19.93,26.77,18.99
		z"/>
	<path class="st39" d="M27.53,22.91c0.21-1.25,0.07-2.6,1.04-3.64c0.35,0.09,0.65,0.25,0.89,0.52c-0.37,0.3-0.51,0.7-0.49,1.16
		c0.04,0.83-0.25,1.55-0.73,2.21C27.92,23.31,27.7,23.17,27.53,22.91z"/>
	<path class="st40" d="M35.18,91.57c-0.17-0.49-0.42-0.93-0.87-1.23c-0.21-0.1-0.2-0.27-0.13-0.45c0.25-0.2,0.55-0.16,0.8-0.06
		c1.85,0.8,3.75,1.5,5.59,2.35c1.66,0.76,3.22,1.78,5.16,1.93c0.95,0.07,1.88,0.62,2.76,1.02c2.31,1.06,4.71,1.36,7.19,1.46
		c1.27,0.05,2.54,0.17,3.78,0.5c0.63,0.17,1.2,0.24,1.62-0.39c0.74,0.06,0.85,0.75,1.21,1.2c3.34,5.48,6.64,10.98,9.9,16.52
		c0.2,0.34,0.45,0.66,0.56,1.05c-0.08,0.65-0.6,0.94-1.07,1.26c-0.74,0.49-1.13,1.27-1.65,1.95c0.08,0.41-0.24,0.54-0.5,0.71
		c-0.57,0.66-1.06,1.38-1.42,2.17c0.03,0.6-0.48,0.96-0.64,1.48c-0.35,0.5-0.39,1.15-0.85,1.59c-0.13,0.2-0.29,0.39-0.37,0.61
		c-1.2,3.45-2.51,6.88-3.18,10.49c-0.03,0.15,0,0.32,0,0.48c0.15,1.11,0.17,2.22-0.01,3.33c0.02,0.19,0.03,0.39,0.06,0.75
		c-0.95-0.98-1.24-2.21-1.99-3.13c-0.53-0.35-0.56-1.02-0.95-1.46l0.01,0.01c-0.37-0.69-0.86-1.34-0.99-2.15
		c-0.2-0.42-0.33-0.89-0.7-1.21c-0.42-0.39-0.77-0.81-0.74-1.43c-0.38-0.86-0.86-1.66-1.41-2.43c-0.64-0.67-1.03-1.47-1.24-2.37
		c-0.39-0.65-0.77-1.3-1.16-1.95c-0.87-0.9-1.19-2.14-1.92-3.12l0.01,0.01c-0.41-0.79-0.84-1.58-1.33-2.34
		c-0.71-1.27-1.41-2.55-2.1-3.83c-0.33-0.45-0.65-0.9-0.69-1.49c-0.98-1.8-1.92-3.62-3.08-5.31c-0.37-0.41-0.73-0.82-0.76-1.41
		c-1.14-2.04-2.24-4.1-3.56-6.03c-0.4-0.51-0.91-0.96-0.98-1.66c-0.19-0.43-0.34-0.88-0.7-1.21c-0.52-0.35-0.64-0.96-0.95-1.45l0,0
		c-0.61-0.8-0.99-1.74-1.56-2.57C35.96,93.03,35.29,92.44,35.18,91.57z"/>
	<path class="st41" d="M89.94,149.67c-0.48,0.23-0.97,0.46-1.45,0.69c-0.88,0.07-1.73,0.4-2.62,0.26c-0.27-0.02-0.54-0.07-0.73,0.18
		c-0.38,0.28-0.78,0.15-1.19,0.06c-0.81,0.09-1.65-0.2-2.43,0.2c-0.07,0.1-0.15,0.11-0.23,0.01c-0.48,0-0.95,0-1.43,0
		c-0.16,0.13-0.31,0.15-0.45-0.02c-0.79-0.36-1.62-0.14-2.43-0.21c-1.09-0.02-2.14-0.19-3.12-0.7c-0.29-0.19-0.61-0.28-0.96-0.27
		c-0.45-0.02-0.85-0.17-1.17-0.5c-0.73-0.41-1.46-0.81-2.19-1.22c-0.89-0.42-1.37-1.31-2.15-1.86c-0.34-0.64,0.05-1.36-0.24-2
		c-0.43-2.26-1.18-4.48-0.97-6.83c0.31-0.64-0.11-1.36,0.25-1.99c1.05-3.96,2.69-7.65,4.97-11.06c1.43-2.15,3.08-4.13,4.81-6.03
		c2.28,2.12,4.58,4.22,6.73,6.47c0.36,0.37,0.77,0.73,0.68,1.33c-0.25,0.76-0.9,1.2-1.43,1.73c-1.06,1.07-1.81,2.32-2.26,3.74
		c-0.67,2.08-0.38,4.01,0.99,5.74c0.31,0.47,0.74,0.77,1.25,0.98c0.26,0.12,0.53,0.19,0.81,0.27c1.05,0.25,2.08,0.53,3.17,0.62
		c2.73,0.22,5.17-0.34,7.13-2.38c0.14-0.14,0.32-0.24,0.51-0.3c0.67-0.12,1,0.39,1.39,0.77c1.87,1.83,3.69,3.72,5.58,5.53
		c-0.27,0.99-1.11,1.46-1.85,2.04c-0.47,0.25-0.68,0.88-1.3,0.91c-0.81,0.55-1.62,1.1-2.43,1.65c-0.37,0.44-0.87,0.67-1.4,0.87
		c-0.58,0.23-1.09,0.59-1.71,0.74C91.39,149.37,90.74,149.77,89.94,149.67z"/>
	<path class="st42" d="M83.46,126.21c0.02-0.56-0.41-0.84-0.74-1.16c-1.88-1.88-3.72-3.79-5.73-5.53c-0.35-0.3-0.75-0.61-0.78-1.15
		c2.78-2.87,5.84-5.32,9.84-6.27c2.58-0.61,5.06-0.28,7.46,0.81c1.2,1.15,2.79,1.71,4.1,2.68c0.31,0.16,0.51,0.54,0.94,0.47
		c1.64,0.95,3.07,2.19,4.53,3.38c0.8,0.65,0.96,1.72,1.4,2.59c0.27,0.14,0.17,0.39,0.2,0.61c-0.03,0.37-0.32,0.61-0.44,0.94
		c-0.27,0.7,0.19,1.18,1.05,1.09c0.4,0.95,0.07,2.13,0.94,2.92c0.01,1.27,0.03,2.53,0.04,3.8c0.13,1.45-0.25,2.79-0.91,4.07
		c-0.12,0.31-0.24,0.63-0.36,0.94c-0.03,0.47-0.17,0.88-0.54,1.2c-1.06,1.84-2.13,3.67-3.53,5.28c-0.04,0.09-0.1,0.11-0.18,0.05
		c-0.54-0.03-0.81-0.46-1.15-0.79c-1.88-1.83-3.75-3.66-5.62-5.5c-0.17-0.49,0.18-0.83,0.38-1.2c0.57-1.06,0.99-2.17,0.93-3.4
		c0.01-0.28,0.12-0.54,0.21-0.81c1.15-3.34-0.56-6.85-3.93-8c-1.09-0.37-2.13-0.18-3.1,0.38c-1.31,0.76-2.71,1.36-3.93,2.26
		C84.24,126.13,83.91,126.39,83.46,126.21z"/>
	<path class="st43" d="M72.65,115.56c-1.9-2.65-3.36-5.56-5.06-8.33c-1.87-3.04-3.67-6.13-5.5-9.19c0.3-0.64,0.93-0.6,1.46-0.59
		c2.98,0.05,5.95-0.06,8.93,0.04c1.94,0.07,3.87,0.5,5.84,0.16c0.79-0.14,1.64,0.26,2.49,0.15c1.53-0.21,3.09-0.27,4.61-0.61
		c0.49-0.05,0.69,0.31,0.91,0.65c1.91,2.85,3.8,5.72,5.7,8.57c0.23,0.34,0.61,0.68,0.33,1.18c-1.57-0.02-3.11-0.15-4.71,0.14
		c-1.41,0.26-2.84,0.44-4.12,1.06c-3.4,1.64-6.88,3.16-9.69,5.79C73.51,115.01,73.31,115.56,72.65,115.56z"/>
	<path class="st44" d="M92.34,107.59c-0.98-1.83-2.24-3.48-3.37-5.21c-1.11-1.7-2.25-3.37-3.38-5.06c-0.44-0.19-0.72-0.48-0.58-1
		c0.6-1.12,1.52-0.99,2.49-0.63c0.24,0.24,0.47,0.49,0.71,0.73c1.67,2.8,3.65,5.38,5.45,8.09c0.87,1.31,1.76,2.61,2.71,4.03
		c-0.81-0.17-1.46-0.32-2.11-0.46c-0.26,0.04-0.51,0.02-0.73-0.16C93.14,107.8,92.6,108.22,92.34,107.59z"/>
	<path class="st45" d="M97.6,115.8c-1.37-0.8-2.73-1.6-4.09-2.41c-0.24-0.14-0.58-0.31,0-0.47c0.47,0.18,0.94,0.36,1.42,0.55
		c0.97,0.7,1.94,1.41,2.91,2.11C97.89,115.79,97.85,115.9,97.6,115.8z"/>
	<path class="st46" d="M48.65,114.84c0.85,1.21,1.51,2.52,2.17,3.83c0.1,0.26-0.03,0.3-0.25,0.25c-0.59-1.31-1.56-2.42-1.92-3.84
		c-0.07-0.05-0.1-0.11-0.07-0.16C48.6,114.86,48.62,114.84,48.65,114.84z"/>
	<path class="st47" d="M52.02,121.06c0.95,0.85,1.31,2.06,1.92,3.12c-0.57-0.28-0.57-0.28-0.99-1.14
		C52.63,122.38,52.09,121.84,52.02,121.06z"/>
	<path class="st48" d="M36.41,93.72c0.57,0.83,1.19,1.63,1.46,2.63c-0.98-0.5-1.01-1.68-1.7-2.39
		C36.24,93.87,36.26,93.73,36.41,93.72z"/>
	<path class="st49" d="M72.65,115.56c0.39-0.33,0.79-0.65,1.18-0.98c-0.4,1.04-1.12,1.75-2.15,2.16
		C72,116.35,72.32,115.96,72.65,115.56z"/>
	<path class="st50" d="M50.57,118.92c0.08-0.08,0.17-0.17,0.25-0.25c0.46,0.77,1.15,1.43,1.21,2.41
		C51.23,120.56,51.18,119.55,50.57,118.92z"/>
	<path class="st47" d="M55.09,126.14c0.41,0.79,0.83,1.58,1.24,2.37C55.66,128.18,54.97,126.88,55.09,126.14z"/>
	<path class="st50" d="M36.41,93.72c-0.08,0.08-0.16,0.16-0.24,0.24c-0.08-0.16-0.16-0.32-0.24-0.48c-0.27-0.63-1.06-1.05-0.75-1.9
		C35.59,92.29,36,93,36.41,93.72z"/>
	<path class="st51" d="M59.19,133.57c0.39,0.69,0.87,1.33,0.99,2.15C59.56,135.13,59.05,134.5,59.19,133.57z"/>
	<path class="st52" d="M63.06,139.55c0-1.11,0.01-2.22,0.01-3.33C63.41,137.33,63.43,138.44,63.06,139.55z"/>
	<path class="st50" d="M39.51,99c0.34,0.54,0.82,1.01,0.98,1.66C39.82,100.32,39.29,99.88,39.51,99z"/>
	<path class="st47" d="M66.62,124.64c0.21-0.57,0.29-1.2,0.74-1.66c0.15,0.02,0.18,0.16,0.25,0.26
		C67.21,123.66,67.37,124.47,66.62,124.64z"/>
	<path class="st53" d="M44.06,106.69c0.25,0.47,0.5,0.94,0.76,1.41C44.04,107.91,43.95,107.36,44.06,106.69z"/>
	<path class="st54" d="M37.86,96.34c0.55,0.33,0.66,0.95,0.95,1.45C38.05,97.6,37.87,97.03,37.86,96.34z"/>
	<path class="st54" d="M57.75,130.93c0.25,0.48,0.49,0.95,0.74,1.43C57.83,132.09,57.37,131.73,57.75,130.93z"/>
	<path class="st55" d="M67.61,123.24c-0.08-0.09-0.17-0.17-0.25-0.26c0.08-0.56,0.55-0.92,0.75-1.41
		C68.43,122.27,67.74,122.67,67.61,123.24z"/>
	<path class="st56" d="M48.65,114.84c0,0.08,0,0.16,0,0.24c-0.49-0.44-1-0.88-0.75-1.66C48.15,113.89,48.4,114.36,48.65,114.84z"/>
	<path class="st54" d="M60.17,135.7c0.58,0.32,0.65,0.96,0.95,1.46C60.34,136.98,60.37,136.27,60.17,135.7z"/>
	<path class="st57" d="M63.29,140.47c0.27,0.46,0.31,0.79,0.26,1.25C63.2,141.32,62.96,141.03,63.29,140.47z"/>
	<path class="st58" d="M66.43,135.46c-0.04,0.67,0.01,1.35-0.25,1.99C66.27,136.79,65.91,136.07,66.43,135.46z"/>
	<path class="st59" d="M67.15,144.29c0.48,0.62,0.05,1.35,0.24,2C66.88,145.67,67.22,144.96,67.15,144.29z"/>
	<path class="st60" d="M93.53,107.93c0.25,0.01,0.52-0.04,0.73,0.16C93.93,108.47,93.67,108.46,93.53,107.93z"/>
	<path class="st55" d="M69.53,119.4c0.17-0.24,0.33-0.47,0.5-0.71C70.3,119.24,70.07,119.43,69.53,119.4z"/>
	<path class="st61" d="M40.06,35.18c0.87-0.18,1.73-0.37,2.6-0.55c0.32-0.4,0.73-0.35,1.16-0.22c-0.01,0.04-0.02,0.08-0.04,0.11
		c-0.07,0.54,0.09,0.97,0.41,1.42c5.85,8.21,11.45,16.6,17.09,24.96c0.3,0.44,0.77,0.84,0.61,1.49c-0.36,0.46-0.86,0.72-1.36,0.44
		c-1.43-0.8-3.07-0.86-4.59-1.32c-2.03-0.62-3.77-1.74-5.46-2.93c-0.81-0.57-1.52-1.29-2.33-1.88c-1.18-0.86-1.65-2.24-2.44-3.37
		c-0.61-0.88-1.11-1.84-1.78-2.7c-0.55-0.71-0.91-1.52-1.13-2.37c-0.57-2.25-1.5-4.4-1.96-6.67c-0.28-1.38-0.3-2.82-0.61-4.22
		c-0.14-0.62-0.22-1.25-0.51-1.82C39.69,35.3,39.89,35.26,40.06,35.18z"/>
	<path class="st62" d="M61.82,62.29c-5-7.37-9.99-14.74-14.99-22.11c-1.1-1.62-2.22-3.22-3.39-4.79c-0.45-0.6-0.09-0.7,0.33-0.87
		c2.02-0.72,2.6,1.12,3.63,2.1c0.59,0.56,1.03,1.26,1.55,1.9c0.26,0.24,0.58,0.44,0.64,0.83c0.09,0.12,0.17,0.24,0.26,0.36
		c0.35,0.18,0.6,0.44,0.7,0.83c1.41,1.89,2.82,3.78,4.23,5.68c0.59,0.47,0.94,1.12,1.28,1.77c3.1,4.23,5.76,8.75,8.6,13.15
		c0.45,0.69,0.84,1.43,1.25,2.15c-0.08,0.59-0.58,0.47-0.93,0.49c-0.61,0.02-1.18,0.16-1.77,0.28
		C62.4,63.74,61.95,63.14,61.82,62.29z"/>
	<path class="st63" d="M40.06,35.18c-0.1,0.08-0.19,0.15-0.29,0.23c-0.69,0.48-1.51,0.65-2.27,0.95c-0.46,0.13-0.9,0.31-1.38,0.4
		c-0.13,0.02-0.25,0.02-0.38,0c-0.65-0.12-1.13,0.3-1.66,0.54c-0.55,0.25-0.98,0.13-1.15-0.42c-0.38-1.21-0.73-2.44-0.17-3.7
		c1.08-0.67,2.3-0.52,3.48-0.63c1.05-0.07,1.97-0.71,3.05-0.71C38.52,32.81,38.98,34.79,40.06,35.18z"/>
	<path class="st64" d="M63.08,63.96c0.78-0.89,1.95-0.16,2.83-0.67c0.08-0.02,0.15-0.01,0.23,0.01c0.69,1.08,1.15,2.3,1.98,3.29
		c-0.78,0.85-1.91,0.21-2.79,0.64c-0.12,0.01-0.23-0.01-0.34-0.05c-0.5-0.39-0.74-0.99-1.13-1.47
		C63.62,65.11,62.92,64.72,63.08,63.96z"/>
	<path class="st65" d="M56.06,47.99c-0.43-0.59-0.85-1.18-1.28-1.77C55.57,46.54,55.93,47.18,56.06,47.99z"/>
	<path class="st66" d="M50.54,40.54c-0.23-0.28-0.46-0.55-0.7-0.83C50.51,39.62,50.52,40.09,50.54,40.54z"/>
	<path class="st67" d="M43.81,34.41c-0.39,0.07-0.77,0.14-1.16,0.22C42.93,33.96,43.36,34.11,43.81,34.41z"/>
	<path class="st68" d="M49.58,39.35c-0.29-0.22-0.56-0.46-0.64-0.83C49.44,38.58,49.62,38.88,49.58,39.35z"/>
	<path class="st69" d="M24.87,75.01c-0.8-1.52-1.6-3.04-2.4-4.57c1.11,0.03,1.83,0.75,2.42,1.53c1.98,2.61,4.7,4.39,7.01,6.63
		c3.08,2.98,6.83,4.74,10.62,6.52c3.75,1.77,7.63,3.14,11.65,4.13c0.85,0.21,1.72,0.31,2.6,0.3c0.6,0.59,1.27,1.13,1.28,2.08
		c-0.38,0.92-0.95,0.99-1.91,0.73c-1.53-0.42-3.09-0.71-4.62-1.12c-3.74-1-7.45-2.03-10.89-3.86c-0.6-0.32-1.21-0.62-1.88-0.77
		c-0.49-0.11-0.89-0.35-1.16-0.78c-0.55-0.86-1.35-1.32-2.31-1.58c-1.89-0.49-3.11-2.06-4.72-2.99c-0.92-0.53-1.63-1.4-2.68-1.73
		c-0.12-0.02-0.22-0.06-0.33-0.12c-0.27-0.3-0.47-0.64-0.63-1.01C26.21,77.29,25.4,76.23,24.87,75.01z"/>
	<path class="st70" d="M19.6,64.92c-1.68-2.6-2.82-5.5-4.57-8.06c-0.38-0.55,0.16-0.87,0.25-1.3c-0.07-0.1-0.1-0.2-0.06-0.32
		c0.21-0.34,0.36-0.78,0.9-0.68c0.64,0.35,1.03,0.94,1.19,1.59c0.55,2.17,1.7,4.06,2.83,5.92C22.5,66,25.2,69.69,28.43,73
		c2.46,2.52,5.05,4.86,8,6.8c1.37,0.9,2.89,1.54,4.3,2.35c4.04,2.32,8.43,3.75,12.89,5c0.51,0.14,1.02,0.18,1.54,0.12
		c0.66,0.1,0.95,0.51,1.02,1.14c-0.38,0.69-0.94,0.7-1.64,0.54c-4.63-1.11-9.03-2.87-13.35-4.83c-2.47-1.12-4.61-2.84-6.93-4.24
		c-3.84-2.3-6.65-5.66-9.58-8.93C22.91,68.99,21.52,66.73,19.6,64.92z"/>
	<path class="st71" d="M19.6,64.92c0.96,0.16,1.53,0.95,1.91,1.63c0.94,1.66,2.34,2.91,3.53,4.34c2.21,2.66,4.42,5.36,7.3,7.32
		c4.15,2.83,8.28,5.68,13.09,7.41c1.74,0.63,3.5,1.24,5.21,1.97c1.38,0.59,2.98,0.46,4.34,1.21c0.37,0.2,0.72-0.23,1.09-0.37
		c0.17,0.01,0.3,0.09,0.42,0.2c0.22,0.3,0.5,0.57,0.3,1c-1.76,0.53-3.35-0.24-4.96-0.71c-2.16-0.64-4.26-1.43-6.36-2.26
		c-3.16-1.26-6.22-2.68-9.17-4.32c-2.33-1.29-4.35-3.06-6.2-4.99c-0.41-0.42-0.94-0.73-1.42-1.08c-1.68-1.19-2.87-2.84-4.2-4.37
		c-0.53-0.61-1.33-0.99-2.01-1.47C21.43,68.64,20.46,66.81,19.6,64.92z"/>
	<path class="st72" d="M15.32,55.34c-0.01,0.07-0.02,0.15-0.04,0.22c-0.38,0.01-0.8,0.41-1.08-0.24c-0.39-0.88-0.87-1.73-1.31-2.59
		c-0.01-0.18-0.01-0.35,0.05-0.52c0.83-1.65,1.31-3.5,2.58-4.92c0.71-0.13,0.86,0.39,1.05,0.88c0.39,1,0.82,1.99,1.4,2.89
		c0.05,0.1,0.09,0.21,0.1,0.33c0.01,0.24-0.09,0.44-0.22,0.62c-0.31,0.33-0.6,0.68-0.75,1.13c-0.12,0.22-0.28,0.42-0.44,0.62
		c-0.1,0.12-0.23,0.21-0.36,0.28C15.83,54.35,15.45,54.75,15.32,55.34z"/>
	<path class="st9" d="M24.87,75.01c0.83,1.05,1.51,2.19,2.16,3.35c-0.08,0.11-0.15,0.12-0.23,0C25.98,77.34,25.04,76.4,24.87,75.01z
		"/>
	<path class="st9" d="M27.54,79.28c0.07,0.01,0.14,0.03,0.22,0.04c0.61,0.36,0.86,0.95,1.05,1.58c-0.04,0.18-0.15,0.29-0.33,0.33
		c-0.57-0.42-0.7-1.08-0.96-1.68c-0.07-0.07-0.09-0.13-0.07-0.19C27.49,79.31,27.52,79.28,27.54,79.28z"/>
	<path class="st73" d="M28.48,81.24c0.07-0.08,0.14-0.16,0.21-0.24c0.7,0.43,1.22,0.97,1.02,1.89c-0.73-0.19-0.73-1.01-1.23-1.41
		C28.49,81.4,28.49,81.32,28.48,81.24z"/>
	<path class="st74" d="M27.54,79.28c-0.01,0.09-0.01,0.18-0.02,0.27c-0.48-0.25-0.64-0.71-0.72-1.2c0.08,0,0.15,0,0.23,0
		C27.2,78.67,27.52,78.89,27.54,79.28z"/>
	<path class="st75" d="M13.07,52.44c-0.06,0.09-0.12,0.19-0.18,0.28c-0.08,0.14-0.16,0.28-0.24,0.42c-0.34-0.33-0.32-0.66,0.02-0.97
		c0.09-0.06,0.19-0.07,0.28-0.01C13.01,52.24,13.05,52.34,13.07,52.44z"/>
	<path class="st76" d="M105.36,135.47c0.32-1.35,0.81-2.67,0.91-4.07C106.53,132.89,106.49,134.3,105.36,135.47z"/>
	<path class="st77" d="M73.85,150.14c1.04,0.23,2.08,0.47,3.12,0.7C75.83,151.04,74.72,151.1,73.85,150.14z"/>
	<path class="st78" d="M100.76,142.94c0.06-0.02,0.12-0.04,0.18-0.05c-0.21,0.77-1.14,1.72-2.12,2.19
		c-0.12-0.09-0.13-0.19-0.02-0.29C99.51,144.25,100.18,143.64,100.76,142.94z"/>
	<path class="st79" d="M89.94,149.67c0.72-0.25,1.43-0.49,2.15-0.74c0.08,0.05,0.11,0.1,0.08,0.15c-0.03,0.05-0.05,0.08-0.08,0.08
		C91.44,149.6,90.8,150.11,89.94,149.67z"/>
	<path class="st80" d="M85.86,150.62c0.86-0.26,1.73-0.32,2.62-0.26C87.62,150.59,86.8,151.13,85.86,150.62z"/>
	<path class="st81" d="M92.09,149.16c0-0.08,0-0.16,0-0.23c0.56-0.24,1.12-0.48,1.68-0.72c0.08,0.05,0.11,0.1,0.08,0.16
		c-0.03,0.05-0.06,0.08-0.08,0.08C93.29,148.87,92.75,149.15,92.09,149.16z"/>
	<path class="st82" d="M93.77,148.44c0-0.08,0-0.16,0-0.23c0.47-0.25,0.94-0.5,1.41-0.75C95.07,148.31,94.3,148.2,93.77,148.44z"/>
	<path class="st83" d="M98.79,144.8c0.01,0.1,0.01,0.19,0.02,0.29c-0.35,0.32-0.45,1.07-1.2,0.72C98,145.47,98.4,145.13,98.79,144.8
		z"/>
	<path class="st84" d="M104.46,137.61c0.13-0.42,0.23-0.86,0.54-1.2C105.41,137.08,104.98,137.37,104.46,137.61z"/>
	<path class="st85" d="M71.72,149.37c0.41,0.12,0.83,0.2,1.17,0.5C72.26,150.05,71.97,149.93,71.72,149.37z"/>
	<path class="st86" d="M81.28,151.07c0.07-0.02,0.15-0.02,0.23-0.01c0.54,0,1.09,0,1.63,0C82.52,151.23,81.88,151.55,81.28,151.07z"
		/>
	<path class="st87" d="M79.4,151.05c0.15,0.01,0.3,0.02,0.45,0.02c-0.52,0.44-1.11,0.19-1.85,0.23
		C78.56,150.96,79,151.16,79.4,151.05z"/>
	<path class="st88" d="M83.94,150.86c0.39-0.02,0.79-0.04,1.19-0.06C84.75,151.22,84.35,151.18,83.94,150.86z"/>
	<path class="st89" d="M29.71,82.89c-0.14-0.74-0.71-1.24-1.02-1.89c-0.31-0.56-0.63-1.12-0.94-1.68c0.29-0.14,0.55-0.28,0.85,0.03
		c1.36,1.42,3.21,2.18,4.64,3.52c0.7,0.65,1.61,1.05,2.57,1.21c0.51,0.09,1.06,0.32,1.23,0.65c0.83,1.61,2.52,1.8,3.89,2.44
		c2.3,1.07,4.54,2.32,7.09,2.79c1.73,0.32,3.42,0.85,5.06,1.51c1.25,0.51,2.69,0.11,3.93,0.85c0.57,0.33,0.36-0.86,0.97-0.76
		c0.81,0.25,0.89,1.13,1.4,1.65c0.53,0.84,1.04,1.69,1.53,2.55c0.19,0.32,0.52,0.64,0.22,1.08c-0.61,0.26-0.5,0.68-0.06,1.18
		c-1.94-0.94-3.83-0.97-5.73-1.08c-1.66-0.09-3.34-0.2-4.95-0.77c-1.51-0.53-3.04-0.98-4.45-1.75c-0.62-0.34-1.35,0.38-1.99-0.22
		c-1.23-1.14-2.93-1.47-4.37-2.18c-1.68-0.83-3.48-1.65-5.34-2.14c-0.54-0.1-0.61-0.54-0.72-0.96c-0.16-0.24-0.32-0.49-0.47-0.73
		c-0.37-0.2-0.52-0.52-0.51-0.93c-0.64-1.17-1.31-2.32-2.13-3.38c-0.42-0.19-0.44-0.67-0.71-0.97L29.71,82.89z"/>
	<path class="st50" d="M33.53,88.92c0.24,0.32,0.48,0.64,0.72,0.96c0.02,0.15,0.04,0.31,0.07,0.46
		C33.8,90.01,33.27,89.68,33.53,88.92z"/>
	<path class="st90" d="M32.54,87.25c0.17,0.31,0.34,0.62,0.51,0.93C32.53,88.12,32.39,87.86,32.54,87.25z"/>
	<path class="st54" d="M29.7,82.9c0.42,0.19,0.52,0.61,0.71,0.97C29.72,83.88,29.82,83.31,29.7,82.9z"/>
	<path class="st91" d="M13.08,39.98c0-0.09,0-0.18,0-0.27c-0.44-0.97,0.06-1.95-0.07-2.93c0.08-2.23-0.16-4.47,0.12-6.69
		c0.4-0.81,0.92-1.54,1.59-2.15c0.41-0.36,0.72-0.24,0.93,0.22c0.23,0.49,0.23,1.01,0.16,1.52c-0.26,1.77-0.31,3.57-0.44,5.35
		c-0.08,1.17,0.1,2.4,0.33,3.54c0.39,1.94,0.19,3.98,0.99,5.85c-0.01,0.93-0.47,1.61-1.18,2.15c-0.7,0.11-0.93-0.38-1.04-0.9
		c-0.27-1.25-0.81-2.43-0.76-3.81c-0.26,0.4,0.33,1.29-0.71,1.06C13.05,41.91,12.92,40.94,13.08,39.98z"/>
	<path class="st92" d="M16.52,44.59c-0.54-1.13-0.63-2.33-0.82-3.56c-0.27-1.79-0.26-3.61-0.72-5.38c-0.18-0.7,0.06-1.51,0.13-2.27
		c0.13-1.46,0.31-2.91,0.39-4.38c0.03-0.47,0.19-1.24-0.78-1.07c0.31-0.8,1.21-1.22,1.38-2.11c0.08-0.29,0.23-0.4,0.51-0.23
		c0.45,0.51,0.61,1.12,0.5,1.78c-0.44,2.67-0.39,5.36-0.33,8.05c0.03,1.66,0.29,3.33,0.28,5c-0.01,0.92,0.35,1.7,0.72,2.5
		c0.03,0.11,0.04,0.22,0.03,0.33c-0.11,0.38-0.37,0.67-0.63,0.95C16.98,44.36,16.82,44.6,16.52,44.59z"/>
	<path class="st93" d="M13.36,26.75c-0.59-0.92-0.15-1.94-0.18-2.89c-0.11-2.87-0.03-5.75-0.03-8.62c0.73,0.22,0.7,0.97,1.02,1.48
		c0.28,0.43,0.5,0.9,0.78,1.33c0.49,0.96,0.96,1.92,1.45,2.87c0.21,0.52,0.54,0.99,0.66,1.54c-0.44,1-1.09,1.81-2.03,2.38
		c-0.4,0.48-0.8,0.96-1.19,1.44c-0.19-0.1-0.22-0.3-0.3-0.46c0.02,0.18,0.06,0.35,0.01,0.53C13.52,26.49,13.47,26.63,13.36,26.75z"
		/>
	<path class="st94" d="M14.79,18.13c-0.86-0.78-1.06-1.94-1.63-2.89c0-0.87,0-1.74,0-2.64c0.48-0.08,0.73,0.39,1.13,0.5
		c0.66,0.47,1.31,0.95,1.97,1.42c-0.06,0.95-0.16,1.9-0.45,2.81C15.65,17.77,15.56,18.4,14.79,18.13z"/>
	<path class="st35" d="M15.04,24.83c0.64-0.79,1.29-1.59,1.93-2.38c0.2-0.6,0.57-1.01,1.23-1.08c0.73,0.63-0.15,1.38,0.14,2.04
		c0.04,0.59-0.39,0.92-0.7,1.32c-0.34,0.36-0.52,0.92-1.15,0.92c-0.13,0.05-0.26,0.11-0.39,0.16c-0.72,0.5-1.19,1.23-1.76,1.87
		c-0.24,0.28-0.41,0.88-0.85,0.57c-0.54-0.37-0.12-0.84,0.19-1.21c0.45-0.55,0.91-1.09,1.37-1.63
		C15.23,25.21,15.31,25.02,15.04,24.83z"/>
	<path class="st95" d="M13.13,30.08c0,2.25-0.01,4.5-0.01,6.75c-0.08,0.11-0.16,0.11-0.23,0c0-1.7,0.01-3.41-0.01-5.11
		c0-0.38,0.13-0.8-0.22-1.12C12.74,30.36,12.9,30.19,13.13,30.08z"/>
	<path class="st96" d="M13.36,26.75c0-0.39,0-0.79,0-1.21c0.44,0.11,0.42,0.45,0.48,0.73C13.73,26.48,13.62,26.69,13.36,26.75z"/>
	<path class="st97" d="M12.78,13.72c0.15,0.48,0.17,0.88-0.02,1.35C12.61,14.59,12.58,14.19,12.78,13.72z"/>
	<path class="st98" d="M105.29,124.68c-0.08,0.19,0.17,0.65-0.35,0.48c-1.46-0.49-1.56-1.11-0.41-2.39c0.34,0.17,0.1,0.53,0.26,0.76
		C104.71,124.01,105.17,124.27,105.29,124.68z"/>
	<path class="st99" d="M104.79,123.52c-0.09-0.25-0.17-0.51-0.26-0.76c-0.02-0.24-0.03-0.48-0.05-0.71
		C105.01,122.45,105.07,122.95,104.79,123.52z"/>
	<path class="st100" d="M97.6,115.8c0.08-0.07,0.15-0.15,0.23-0.22c0.24,0.16,0.48,0.33,0.72,0.49
		C98.11,116.42,97.88,116.03,97.6,115.8z"/>
	<path class="st101" d="M12.89,36.84c0.08,0,0.16,0,0.23,0c-0.01,0.96-0.03,1.91-0.04,2.87c-0.14-0.08-0.29-0.15-0.43-0.23
		C12.73,38.6,12.81,37.72,12.89,36.84z"/>
	<path class="st102" d="M36.23,32.54c-1.1,0.43-2.27,0.51-3.42,0.69c-0.8,0.35-1.45-0.12-2.13-0.39c-0.09-0.1-0.11-0.22-0.07-0.36
		c0.4-0.49,1.03-0.48,1.54-0.73c1.45-0.34,2.9-0.67,4.37-0.91c0.35-0.06,0.7-0.07,1.03,0.12c0.12,0.1,0.14,0.21,0.07,0.35
		c-0.35,0.4-0.82,0.19-1.24,0.25c-0.51,0.06-0.44,0.59-0.7,0.84C35.86,32.45,36.04,32.5,36.23,32.54z"/>
	<path class="st103" d="M36.18,28.42c0.06,0.02,0.11,0.03,0.17,0.03c0.57,0.18,1.09,0.43,1.49,0.89c0.2,0.16,0.4,0.33,0.68,0.31
		c0,0,0.02-0.01,0.02-0.01c0.31,0.24,0.72,0.35,0.98,0.67c0.08,0.08,0.16,0.17,0.23,0.25c-0.05,0.27-0.25,0.36-0.5,0.39
		c-0.23,0-0.46,0.01-0.69-0.01c-1.08-0.63-2.09-1.34-2.69-2.48C35.97,28.37,36.07,28.35,36.18,28.42z"/>
	<path class="st104" d="M38.57,30.85c0.24,0,0.47-0.01,0.71-0.01c0.09,0.05,0.12,0.1,0.09,0.15c-0.02,0.06-0.05,0.09-0.08,0.09
		c-0.56,0.08-1.12,0.16-1.68,0.25c-0.01-0.1-0.02-0.19-0.04-0.29C37.81,30.44,38.19,30.65,38.57,30.85z"/>
	<path class="st105" d="M39.29,31.07c-0.01-0.08-0.01-0.16-0.02-0.24c0.16-0.09,0.32-0.18,0.48-0.27c0.2,0.11,0.7-0.06,0.56,0.31
		C40.17,31.27,39.65,31.02,39.29,31.07z"/>
	<path class="st106" d="M39.53,30.31c-0.38-0.14-0.77-0.27-0.98-0.67C38.98,29.7,39.42,29.77,39.53,30.31z"/>
	<path class="st107" d="M65.19,67.09c0.87-0.78,2-0.07,2.93-0.5c0.15,0.16,0.3,0.33,0.45,0.49c0.41,0.7,0.83,1.4,1.24,2.1
		c0.04,0.63-0.47,0.56-0.83,0.6c-0.56,0.06-1.11,0.11-1.64,0.3c-0.62,0.07-0.82-0.43-1.1-0.81c-0.31-0.52-0.68-1.01-0.98-1.54
		C65.17,67.52,65.07,67.31,65.19,67.09z"/>
	<path class="st108" d="M13.13,43.08c0.53-0.66,0.02-1.48,0.36-2.27c0.48,0.51,0.47,1.14,0.6,1.72c0.25,1.15,0.5,2.3,0.77,3.45
		c0.07,0.31,0.33,0.43,0.63,0.46c0.1,0.14,0.14,0.3,0.06,0.44c-0.83,1.39-1.43,2.89-2.16,4.32c-0.08,0.16-0.19,0.35-0.44,0.31
		c-0.31-0.48-0.2-0.99-0.08-1.49c-0.01-0.4-0.03-0.8-0.04-1.2c-0.13-0.63-0.03-1.27-0.06-1.9c0.06-0.56-0.13-1.13,0.12-1.68
		c0-0.14,0.01-0.29,0.01-0.43C13.19,44.25,12.82,43.62,13.13,43.08z"/>
	<path class="st12" d="M13.13,43.08c-0.13,0.57,0.14,1.19-0.23,1.72c0.08-1.6-0.25-3.22,0.18-4.82
		C13.1,41.01,13.12,42.04,13.13,43.08z"/>
	<path class="st109" d="M12.87,50.02c0.11,0.48-0.15,1,0.2,1.44c0.26,0.32-0.01,0.5-0.19,0.71l-0.11,0.02c0,0-0.11-0.02-0.11-0.02
		C12.75,51.45,12.46,50.7,12.87,50.02z"/>
	<path class="st110" d="M12.85,46.91c-0.01,0.63-0.01,1.27-0.02,1.9c-0.38-0.6-0.1-1.27-0.18-1.89
		C12.71,46.81,12.78,46.81,12.85,46.91z"/>
	<path class="st111" d="M12.85,46.91c-0.07,0-0.14,0.01-0.21,0.01c0.08-0.56-0.22-1.18,0.24-1.69
		C12.88,45.79,12.87,46.35,12.85,46.91z"/>
	<path class="st112" d="M87.51,95.69c-0.82,0.15-1.78-0.19-2.4,0.68c-1.15-0.47-1.45-1.7-2.21-2.52c-0.21-0.65-1.07-1.09-0.63-1.95
		c0.73-0.55,1.56-0.47,2.39-0.36C85.82,92.78,86.61,94.27,87.51,95.69z"/>
	<path class="st113" d="M84.66,91.54c-0.74,0.51-1.68,0.1-2.44,0.51c-0.74,0.04-0.94-0.55-1.23-1.04c-0.17-0.63-1.02-0.91-0.87-1.7
		c0.89-0.67,1.9-0.22,2.85-0.32c-0.01-0.04-0.01-0.09-0.01-0.13c0.55,0.76,1.11,1.53,1.66,2.29C84.63,91.27,84.64,91.41,84.66,91.54
		z"/>
	<path class="st114" d="M67.11,69.96c0.35-0.47,0.84-0.5,1.37-0.5c0.45,0,0.97,0.19,1.32-0.29c0.29,0.37,0.59,0.73,0.88,1.1
		c0.35,0.61,0.7,1.22,1.05,1.83c-0.9,0.47-1.89,0.48-2.87,0.53c-0.65-0.36-1.02-0.97-1.46-1.54C67.24,70.74,66.95,70.41,67.11,69.96
		z"/>
	<path class="st115" d="M76.96,79.93c0.42,0.65,0.84,1.3,1.25,1.95c0.09,0.36-0.17,0.42-0.4,0.41c-0.72-0.03-1.41,0.22-2.13,0.16
		c-0.25-0.04-0.48-0.14-0.68-0.3c-0.34-0.28-0.58-0.62-0.71-1.04c-0.06-0.24-0.11-0.47,0.01-0.7c0.82-0.66,1.73-0.57,2.66-0.34
		C76.95,80.02,76.95,79.98,76.96,79.93z"/>
	<path class="st116" d="M75.5,82.21c0.9-0.11,1.81-0.22,2.71-0.33c0.22,0.26,0.45,0.52,0.67,0.79c-0.01,0.26,0.12,0.46,0.29,0.65
		c0.09,0.48-0.27,0.53-0.57,0.51c-0.66-0.05-1.31,0.12-1.97,0.06c-0.48-0.1-0.74-0.47-1.02-0.82C75.46,82.8,75.28,82.53,75.5,82.21z
		"/>
	<path class="st117" d="M37.85,29.34c-0.55-0.22-1.05-0.51-1.49-0.89C37.02,28.47,37.65,28.54,37.85,29.34z"/>
	<path class="st118" d="M36.18,28.42c-0.08,0-0.16,0-0.25,0.01c-0.38-0.09-0.74-0.2-0.75-0.69c0.09-0.09,0.18-0.17,0.26-0.26
		C35.68,27.8,36.22,27.89,36.18,28.42z"/>
	<path class="st119" d="M82.96,88.98c-0.86,0.78-1.95-0.08-2.85,0.41c-0.1-0.04-0.19-0.11-0.26-0.2c-0.29-0.64-1.03-1.01-1.1-1.79
		c0.33-0.93,1.11-0.41,1.7-0.52c0.48-0.09,0.89,0.2,1.34,0.31C82.37,87.67,82.52,88.42,82.96,88.98z"/>
	<path class="st120" d="M81.79,87.19c-0.71-0.02-1.43,0.02-2.14-0.08c-0.4-0.06-0.6,0.03-0.76,0.34c-0.19,0.11-0.3-0.01-0.41-0.14
		c-0.26-0.54-0.71-0.99-0.89-1.58c0.01-0.12,0.06-0.21,0.14-0.29c0.83-0.42,1.74-0.29,2.62-0.4c0.23,0.26,0.46,0.52,0.69,0.78
		C81.29,86.28,81.54,86.74,81.79,87.19z"/>
	<path class="st121" d="M68.79,72.36c0.99,0.03,1.94-0.41,2.94-0.26c0.16,0.16,0.33,0.33,0.49,0.49c0.13,0.19,0.25,0.38,0.38,0.57
		c0.09,0.22,0.19,0.43,0.28,0.65c0.3,0.62-0.22,0.68-0.58,0.73c-0.63,0.08-1.22,0.35-1.86,0.36c-0.83-0.29-1.03-1.16-1.57-1.71
		C68.73,72.93,68.55,72.67,68.79,72.36z"/>
	<path class="st122" d="M80.35,85.04c-0.78,0.68-1.77,0.29-2.64,0.51c-0.59-0.15-0.83-0.68-1.16-1.11c-0.1-0.26-0.22-0.52-0.08-0.8
		c0.89-0.27,1.84,0.06,2.71-0.33c0.21,0.19,0.42,0.37,0.64,0.56C79.76,84.37,80.3,84.59,80.35,85.04z"/>
	<path class="st123" d="M76.97,80.07c-0.87,0.22-1.8,0.03-2.64,0.45c-0.4,0.13-0.56-0.23-0.83-0.38c-0.29-0.28-0.47-0.62-0.63-0.98
		c-0.09-0.22-0.16-0.44-0.11-0.68c0.74-1.04,1.84-0.49,2.78-0.62c0.07,0.02,0.14,0.05,0.2,0.08C76.15,78.64,76.56,79.36,76.97,80.07
		z"/>
	<path class="st124" d="M75.54,77.85c-0.52,0.49-1.19,0.28-1.78,0.31c-0.4,0.02-0.68,0.06-0.87,0.42c-0.37,0.16-0.51-0.13-0.68-0.36
		c-0.14-0.59-0.86-0.92-0.72-1.64c0.69-0.82,1.69-0.71,2.61-0.87C74.71,76.34,75.12,77.1,75.54,77.85z"/>
	<path class="st125" d="M74.09,75.71c-0.7,0.78-1.87,0.28-2.6,0.95c-0.05-0.02-0.1-0.04-0.15-0.06c-0.45-0.52-0.92-1.03-1.14-1.7
		c0.03-0.05,0.05-0.09,0.08-0.14c0.71-0.21,1.37-0.61,2.16-0.51c0.28,0.04,0.41-0.18,0.45-0.45c0.32,0.4,0.63,0.81,0.95,1.21
		C73.92,75.25,74,75.48,74.09,75.71z"/>
	<path class="st126" d="M35.18,27.74c0.25,0.23,0.5,0.46,0.75,0.69c0.88,0.81,1.76,1.61,2.64,2.42c-0.33,0.07-0.71-0.12-1,0.18
		c-1.85,0.22-3.66,0.62-5.47,1.07c-0.24-0.19-0.34-0.47-0.3-0.75c0.18-1.31,0.06-2.64,0.37-3.93c0.09-0.38,0.04-0.94,0.69-0.94
		c0.14,0.01,0.28,0.02,0.42,0.02c0.13,0.09,0.26,0.19,0.39,0.28c0.39,0.17,0.78,0.34,1.06,0.68C34.89,27.55,35.03,27.65,35.18,27.74
		z"/>
	<path class="st127" d="M32.86,26.48c-0.8,1.8-0.55,3.74-0.76,5.62c-0.47,0.15-0.95,0.3-1.42,0.45c-0.49,0.04-0.47-0.34-0.47-0.64
		c-0.02-2.21,0.11-4.41,0.46-6.6c0.52-0.2,0.84,0.16,1.18,0.44C32.19,25.99,32.53,26.23,32.86,26.48z"/>
	<path class="st128" d="M31.85,25.75c-0.32-0.14-0.64-0.29-0.96-0.43c-0.07-0.03-0.1-0.08-0.1-0.13c0-0.06,0.01-0.09,0.03-0.09
		c0.18,0,0.37-0.01,0.55-0.01C31.5,25.32,31.87,25.4,31.85,25.75z"/>
	<path class="st129" d="M26.77,18.99c0.27,1.05-0.31,1.98-0.45,2.97c-0.63,0.26-1.01-0.49-1.59-0.4c-0.38,0.01-0.77,0.03-0.88-0.47
		c0.03-0.19,0.18-0.25,0.32-0.33C25.04,20.17,25.91,19.58,26.77,18.99z"/>
	<path class="st130" d="M24.17,20.76C24.09,20.84,24,20.92,23.91,21c-0.09,0.09-0.2,0.12-0.33,0.12c-0.43-0.06-0.85-0.05-1.28-0.03
		c-0.16,0.01,0.04,0.03-0.12,0c-0.55-0.09-1.37,0.46-1.58-0.5c-0.21-0.98,0.63-1.12,1.29-1.36c0.11-0.04,0.23-0.07,0.34-0.11
		c0.36-0.07,0.7-0.08,0.98,0.22C22.85,20.26,23.67,20.4,24.17,20.76z"/>
	<path class="st131" d="M23.21,19.32c-0.32,0-0.64,0-0.96,0c-0.07-0.12-0.05-0.23,0.05-0.33c0.51-0.39,1.09-0.01,1.62-0.15
		c0.24,0.05,0.53,0.13,0.16,0.36C23.85,19.34,23.5,19.29,23.21,19.32z"/>
	<path class="st132" d="M23.92,18.84c-0.49,0.49-1.12,0.1-1.67,0.26c-0.12,0.05-0.22,0.03-0.3-0.07c-0.01-0.13,0.03-0.23,0.12-0.31
		c0.44-0.29,0.93,0.03,1.37-0.12c0,0-0.01-0.07-0.01-0.07C23.6,18.63,23.76,18.73,23.92,18.84z"/>
	<path class="st133" d="M34.74,27.46c-0.41-0.14-0.78-0.33-1.06-0.68C34.17,26.8,34.61,26.89,34.74,27.46z"/>
	<path class="st134" d="M30.82,25.09c0.03,0.07,0.05,0.15,0.07,0.22c-0.15,2.28-0.3,4.56-0.44,6.85c-0.01,0.12,0.15,0.26,0.23,0.38
		c0,0,0,0.11,0,0.11c-0.22,0.49-0.67,0.54-1.12,0.59c-0.66-0.02-0.88-0.47-0.92-1.03c-0.13-2.3-0.04-4.6,0.42-6.86
		c0.08-0.39,0.19-0.78,0.63-0.94c0,0-0.01-0.08-0.01-0.08C30.06,24.59,30.44,24.84,30.82,25.09z"/>
	<path class="st135" d="M29.69,24.41c-0.84,2.62-0.73,5.32-0.72,8.02c0,0.51,0.33,0.57,0.72,0.57c0.06,0.51-0.38,0.55-0.68,0.73
		c-0.54,0.16-1.03,0.53-1.64,0.39c-0.13-0.05-0.24-0.13-0.34-0.23c-0.61-1.13-0.36-2.35-0.29-3.52c0.13-2.19,0.36-4.37,0.66-6.54
		c0.03-0.2,0.07-0.39,0.25-0.51c0.22-0.09,0.42-0.05,0.6,0.1C28.8,23.65,29.01,24.37,29.69,24.41z"/>
	<path class="st136" d="M28.26,23.41c-0.16,0-0.32-0.01-0.49-0.01c-0.17-0.14-0.5-0.06-0.54-0.38c0.03-0.04,0.05-0.08,0.08-0.12
		c0.07,0.01,0.14,0.02,0.22,0.02c0.24,0.08,0.48,0.17,0.72,0.25C28.25,23.24,28.25,23.33,28.26,23.41z"/>
	<path class="st137" d="M14.79,18.13c1.06-0.41,0.78-1.44,0.95-2.22c0.11-0.5,0.06-1.03,0.51-1.39c0.39,0.18,0.78,0.36,1.17,0.55
		c0.09,0.12,0.19,0.25,0.28,0.37c0.19,1.52-0.11,3-0.51,4.44c-0.14,0.49-0.41,0.96-0.96,1.14C15.62,20.12,15.14,19.15,14.79,18.13z"
		/>
	<path class="st138" d="M16.24,21.01c1.08-1.3,0.97-2.93,1.19-4.46c0.06-0.39,0.08-0.78,0.28-1.13c0.45,0.17,0.93,0.29,1.18,0.76
		c0.26,0.7-0.05,1.41-0.14,2.07c-0.12,0.91-0.1,1.81-0.2,2.71c-0.04,0.25-0.19,0.41-0.43,0.48c-0.39,0.33-0.77,0.66-1.16,1
		C16.56,22.05,16.36,21.55,16.24,21.01z"/>
	<path class="st139" d="M18.43,21c-0.32-1.65-0.08-3.25,0.46-4.82c0.27,0.19,0.57,0.29,0.91,0.27c0.27,0.22,0.55,0.44,0.82,0.66
		c-0.17,0.91-0.23,1.84-0.42,2.76C19.78,20.51,19.24,20.98,18.43,21z"/>
	<path class="st140" d="M20.1,19.8c-0.02-0.93-0.2-1.9,0.52-2.68c0.38,0.16,0.76,0.33,1.14,0.49c0.08,0.09,0.16,0.18,0.24,0.27
		c0.11,0.32,0.35,0.65,0.01,0.98c0.01,0.08,0.01,0.17,0.02,0.25C21.51,19.68,20.79,19.69,20.1,19.8z"/>
	<path class="st141" d="M22.01,18.86c0.1-0.33-0.25-0.65-0.01-0.98c0.48,0.24,0.96,0.48,1.44,0.72
		C23.04,19.05,22.48,18.73,22.01,18.86z"/>
	<path class="st142" d="M24.57,21.28c0.75-0.19,1.15,0.5,1.75,0.68c0,0.08,0,0.16,0,0.24c-0.04,0.03-0.08,0.07-0.13,0.1
		c-0.48,0.11-0.81-0.19-1.17-0.41C24.83,21.72,24.58,21.59,24.57,21.28z"/>
	<path class="st129" d="M26.33,22.2c0.51-0.03,0.9,0.11,0.98,0.69c0,0-0.02,0.02-0.02,0.02c-0.44,0.19-0.7-0.08-0.98-0.35
		c-0.05-0.1-0.07-0.2-0.03-0.31L26.33,22.2z"/>
	<path class="st143" d="M83.19,93.72c0.64,0.88,1.27,1.76,1.91,2.65c0.16,0.32,0.33,0.64,0.49,0.96c-0.45,0.37-0.96,0.46-1.55,0.49
		c-1.36,0.07-2.74,0.48-4.05,0.32c-1.61-0.19-3.22,0.21-4.8-0.17c-1.28-0.31-2.58,0.08-3.86-0.09c-0.18-0.02-0.46,0.17-0.56,0.09
		c-1.01-0.79-2.07-0.26-3.11-0.17c-1.52,0.13-3.03-0.22-4.54-0.02c-0.36,0.05-0.71,0.07-1.03,0.25c-0.44-0.3-0.41-0.97-0.95-1.2
		c-0.65-1.2-1.3-2.39-1.95-3.59c0.13-1.01,0.84-1.03,1.61-0.94c2.7,0.29,5.38,0.68,8.09,0.93c4.1,0.38,8.2,0.63,12.32,0.61
		C81.88,93.84,82.51,93.39,83.19,93.72z"/>
	<path class="st5" d="M83.46,126.21c1.54-0.91,3.09-1.8,4.62-2.74c1.76-1.08,3.21-1.06,4.89,0.14c0.68,0.49,1.31,1.04,1.87,1.67
		c1.92,2.13,1.95,4.42,0.64,6.84c-0.07,1.06-0.84,1.71-1.5,2.36c-2.15,2.11-4.7,3.54-7.64,4.25c-1.15,0.28-2.29,0.2-3.44-0.01
		c-0.23-0.06-0.45-0.15-0.66-0.25c-0.5-0.26-1.01-0.51-1.46-0.86c-2.14-3.22-1.93-6.25,0.68-9.35
		C82.07,127.53,82.79,126.89,83.46,126.21z"/>
	<path class="st144" d="M82.75,138.51c5.52,0.42,9.58-2.09,12.74-6.38c0.3,1.32-0.31,2.42-0.87,3.53c-0.18,0.35-0.41,0.67-0.62,1.01
		c-3.23,3.44-7.11,3.55-11.27,2.17C82.64,138.71,82.65,138.61,82.75,138.51z"/>
	<path class="st145" d="M80.78,137.62c0.58,0.06,1.01,0.46,1.5,0.72c-0.02,0.16-0.17,0.18-0.27,0.25
		C81.5,138.38,81.03,138.13,80.78,137.62z"/>
	<path class="st146" d="M82,138.59c0.09-0.08,0.18-0.17,0.27-0.25c0.16,0.06,0.31,0.12,0.47,0.17c-0.01,0.11-0.01,0.22-0.02,0.32
		C82.49,138.75,82.24,138.67,82,138.59z"/>
	<path class="st147" d="M63.08,63.96c0.32,0.56,0.64,1.12,0.96,1.68c-0.45,0.41-0.98,0.46-1.56,0.42
		c-3.83-0.26-7.31-1.64-10.61-3.46c-6.4-3.53-10.11-9.15-12.27-16c-0.74-2.36-1.32-4.76-1.89-7.16c-0.26-1.08-0.26-2.2-0.33-3.3
		c0.79-0.28,1.48-0.87,2.39-0.74c0.53,0.36,0.81,0.82,0.73,1.5c-0.08,0.68,0,1.35,0.4,1.95c0.09,0.13,0.21,0.3,0.19,0.43
		c-0.42,2.61,1.09,4.81,1.53,7.23c0.55,3,2.57,5.13,3.99,7.62c1.74,3.04,4.63,4.67,7.51,6.33c1.36,0.78,2.89,1.06,4.41,1.33
		c0.52,0.09,1.06,0.14,1.45,0.47c0.64,0.53,1.22,0.46,1.83,0.03C62.24,62.84,62.66,63.4,63.08,63.96z"/>
	<path class="st148" d="M37.37,36.15c0.81,1.12,0.38,2.48,0.69,3.71c0.97,3.89,1.86,7.81,3.66,11.41
		c3.13,6.28,7.89,10.76,14.66,13.03c2.05,0.69,4.08,1.21,6.2,1.52c0.56,0.08,0.93-0.56,1.45-0.18c0.46,0.39,0.77,0.87,0.95,1.44
		c-0.34,0.28-0.74,0.28-1.14,0.24c-7.03-0.81-13.37-3.2-18.36-8.4c-2.59-2.7-4.52-5.87-5.88-9.39c-1.21-3.13-1.97-6.39-3.04-9.56
		c-0.36-1.05-0.5-2.22-0.4-3.38C36.52,36.31,36.94,36.21,37.37,36.15z"/>
	<path class="st148" d="M36.16,36.58c0.35,2.43,1.09,4.78,1.78,7.1c1.45,4.82,3.16,9.56,6.47,13.56c2.96,3.57,6.64,5.98,10.88,7.72
		c2.76,1.13,5.65,1.53,8.52,2.09c0.39,0.08,0.78-0.23,1.17,0.02c0.07,0.01,0.14,0.01,0.21,0.01c0.08,0.16,0.15,0.32,0.23,0.48
		c-0.44,0.78-1.19,0.57-1.82,0.5c-4.16-0.47-8.1-1.7-11.85-3.59c-5.74-2.9-9.72-7.53-12.4-13.19c-2.13-4.49-3.71-9.25-4.52-14.21
		c0.2-0.5,0.59-0.63,1.09-0.52C35.99,36.57,36.08,36.58,36.16,36.58z"/>
	<path class="st149" d="M35.91,36.56c-0.35,0.1-0.69,0.22-0.96,0.49c-0.35,0.57-0.93,0.81-1.51,1.03c-0.8,0.26-1.5,0.74-2.23,1.15
		c-0.23,0.1-0.46,0.17-0.71,0.16c-0.43-0.01-0.82-0.16-0.94-0.59c-0.49-1.74-0.91-3.5-0.59-5.34c0.24-0.16,0.48-0.31,0.72-0.47
		c0.33-0.11,0.66-0.23,0.99-0.34c0.71,0.19,1.42,0.39,2.13,0.58c-0.06,1.11,0.03,2.2,0.27,3.28c0.13,0.6,0.33,0.91,1.03,0.44
		C34.61,36.62,35.17,36.04,35.91,36.56z"/>
	<path class="st150" d="M83.19,93.72c-2.22,0.95-4.56,0.53-6.81,0.39c-2.01-0.13-4.03-0.06-6.05-0.35
		c-3.17-0.46-6.37-0.66-9.54-1.11c-0.78-0.11-1.19,0.07-1.6,0.6c-0.61-0.41-0.71-1.19-1.2-1.69c-0.3-0.7-1.01-1.15-1.2-1.92
		c-0.16-0.32-0.31-0.64-0.47-0.96c0.63-0.53,1.37-0.38,2.06-0.25c4.39,0.84,8.84,1.36,13.27,1.89c3.06,0.37,6.17,0.77,9.28,0.4
		c0.12-0.01,0.23,0.06,0.33,0.12c0.1,0.58,0.54,0.88,0.95,1.21C82.37,92.7,82.92,93.13,83.19,93.72z"/>
	<path class="st151" d="M16.25,53.88c0.08-0.08,0.17-0.16,0.25-0.24c0.73-0.32,0.92,0.28,1.11,0.72c0.81,1.87,1.56,3.76,2.6,5.51
		c2.26,3.8,4.55,7.56,7.65,10.79c1.79,1.87,3.54,3.78,5.58,5.38c2.47,1.94,4.96,3.86,7.81,5.27c3.07,1.52,6.19,2.94,9.44,3.99
		c1.17,0.38,2.43,0.82,3.74,0.43c0.46,0.48,1.02,0.92,0.72,1.72c-1.06,0.52-2.05-0.11-2.98-0.36c-1.9-0.51-3.69-1.45-5.6-1.97
		c-3.5-0.96-6.44-3.07-9.61-4.67c-1.89-0.95-3.59-2.37-5.17-3.8c-2.3-2.08-4.53-4.24-6.48-6.67c-3.12-3.89-5.89-8.01-7.92-12.58
		c-0.43-0.97-0.65-2.02-1.38-2.84C15.76,54.24,15.98,54.05,16.25,53.88z"/>
	<path class="st152" d="M55.14,87.47c-0.02-0.66-0.66-1.04-0.75-1.67c-0.07-0.14-0.03-0.26,0.1-0.34c1.47-0.27,2.82,0.41,4.2,0.68
		c5.6,1.08,11.23,1.85,16.91,2.31c1.49,0.12,3,0.27,4.45,0.71c0.02,0.08,0.03,0.16,0.05,0.24c0.38,0.48,0.77,0.96,1.15,1.44
		c-0.95,0.51-1.9,0.52-2.98,0.3c-1.31-0.27-2.69-0.16-4.04-0.25c-3.81-0.24-7.54-1.02-11.32-1.42c-2.21-0.23-4.36-0.98-6.61-0.8
		c-0.08-0.08-0.17-0.16-0.25-0.24C55.8,88.08,55.69,87.56,55.14,87.47z"/>
	<path class="st7" d="M16.25,53.88c-0.08,0.23-0.16,0.47-0.25,0.7c-0.23,0.25-0.45,0.5-0.68,0.75
		C15.21,54.59,15.56,54.12,16.25,53.88z"/>
	<path class="st153" d="M17.68,51.94c0.09-0.15,0.17-0.3,0.26-0.45c0.15-0.53,0.3-1.06,0.98-1.15c0.66,0.01,0.89,0.53,1.04,1.01
		c1.09,3.51,2.95,6.63,4.79,9.76c1.65,2.81,3.66,5.34,5.83,7.74c3.3,3.64,7.07,6.75,11.38,9.09c3,1.63,6,3.31,9.35,4.2
		c0.31,0.08,0.64,0.05,0.95,0.13c0.61,0.28,0.88,0.82,1.1,1.4c0.03,0.19,0,0.37-0.12,0.52c-0.6,0.35-1.24,0.27-1.86,0.1
		c-3.64-1-7.02-2.59-10.33-4.39c-1.97-1.07-3.77-2.4-5.65-3.61c-0.89-0.57-1.47-1.46-2.29-2.11c-3.47-2.75-6.16-6.18-8.72-9.76
		c-2.37-3.3-4.08-6.94-5.82-10.57C18.27,53.22,17.74,52.69,17.68,51.94z"/>
	<path class="st154" d="M17.68,51.94c0.33,0.33,0.62,0.64,0.84,1.11c1.46,3.14,2.82,6.36,4.75,9.23c2.17,3.22,4.31,6.53,7.16,9.19
		c4.8,4.49,9.99,8.42,16.25,10.82c1.58,0.6,3.2,1.07,4.77,1.72c0.52,0.22,1.18,0.09,1.77,0.11c0.5,0.18,0.85,0.46,0.76,1.06
		c-0.4,0.71-1.05,0.66-1.68,0.47c-2.93-0.92-5.8-1.98-8.63-3.19c-2.18-0.93-4.19-2.15-6.09-3.5c-2.29-1.63-4.67-3.16-6.66-5.2
		c-1.81-1.85-3.72-3.61-5.28-5.69c-3.11-4.16-5.83-8.56-7.79-13.38c-0.23-0.56-0.47-1.1-0.91-1.53
		C16.95,52.61,17.2,52.21,17.68,51.94z"/>
	<path class="st155" d="M16.93,53.15c0.7-0.28,0.68,0.38,0.84,0.69c1.09,2.08,1.8,4.33,3.05,6.34c1.77,2.86,3.4,5.81,5.56,8.4
		c1.96,2.34,4.12,4.48,6.45,6.45c2.17,1.83,4.52,3.41,6.88,4.97c2.44,1.62,5.11,2.73,7.88,3.66c1.65,0.56,3.23,1.31,4.93,1.73
		c0.62,0.15,0.98-0.03,1.41-0.32c0.41-0.09,0.44,0.2,0.48,0.48c0,0.08,0,0.16,0,0.24c-0.28,0.29-0.57,0.61-1.02,0.46
		c-1.27-0.44-2.63-0.46-3.88-1.07c-1.6-0.77-3.39-1.08-4.98-1.93c-1.89-1-3.91-1.79-5.71-2.94c-3.1-1.99-6.13-4.15-8.71-6.78
		c-2.65-2.71-5.19-5.54-7.26-8.77c-2.1-3.29-4.06-6.62-5.46-10.27c-0.16-0.41-0.32-0.84-0.88-0.86
		C16.64,53.48,16.79,53.31,16.93,53.15z"/>
	<path class="st156" d="M17.66,43.26c0-0.07-0.01-0.13-0.01-0.2c-0.04-0.57,0.43-0.88,0.67-1.31c0.25-0.22,0.45-0.56,0.87-0.33
		c-0.5,1.8-0.05,3.47,0.58,5.16c0.23,0.63,0.51,0.99,1.11,1.16c0.12,0.59-0.36,0.89-0.63,1.29c-0.08,0.07-0.17,0.13-0.27,0.16
		c-0.32,0.07-0.5,0.3-0.66,0.56c-0.05,0.09-0.12,0.17-0.19,0.25c-0.45,0.36-0.92,0.71-1.22,1.22c-0.97-0.79-1.2-1.99-1.65-3.06
		c-0.17-0.39-0.23-0.75-0.72-0.78c0-1.1,0.81-1.83,1.22-2.75C17.16,44.24,17.45,43.78,17.66,43.26z"/>
	<path class="st15" d="M16.89,44.74c-0.44,0.89-0.89,1.77-1.33,2.66c-0.83,1.68-1.66,3.36-2.49,5.04c-0.06-0.09-0.12-0.18-0.18-0.27
		c0.06-0.24,0.12-0.47,0.19-0.71c0.66-1.75,1.56-3.37,2.42-5.02c0.33-0.62,0.84-1.15,1.03-1.85c0.23-0.13,0.19-0.51,0.52-0.53
		C17.09,44.3,17.19,44.56,16.89,44.74z"/>
	<path class="st157" d="M17.93,51.24c0.13-0.71,0.66-1.08,1.22-1.42c0.22,0.36-0.01,0.54-0.29,0.69c-0.31,0.33-0.62,0.66-0.93,0.98
		C17.93,51.41,17.93,51.32,17.93,51.24z"/>
	<path class="st158" d="M18.47,41.9c-0.27,0.39-0.55,0.77-0.82,1.16c-0.76-0.85-0.88-1.89-0.93-2.97c-0.12-3.07-0.44-6.14-0.31-9.19
		c0.05-1.1-0.06-2.33,0.41-3.44c0.28-0.66-0.18-1.21-0.33-1.81c0.32-0.34,0.65-0.68,0.97-1.03c0.46,0.3,0.79,0.7,0.91,1.25
		c-0.03,2.74-0.71,5.48-0.35,8.22c0.28,2.17,0.09,4.35,0.48,6.5C18.59,41.04,18.53,41.47,18.47,41.9z"/>
	<path class="st157" d="M16.89,44.74c0.05-0.23,0.1-0.45,0.15-0.68c0.21-0.26,0.42-0.53,0.63-0.79
		C17.59,43.85,17.42,44.39,16.89,44.74z"/>
	<path class="st159" d="M20.1,19.8c0.55-0.49,1.32-0.37,1.94-0.69c0.07-0.02,0.14-0.02,0.22-0.01c0,0.07-0.01,0.14-0.01,0.22
		c-0.23,0.32-0.62,0.33-0.95,0.43c-0.45,0.14-0.53,0.43-0.48,0.81c0.08,0.54,0.43,0.27,0.72,0.23c0.31-0.04,0.63-0.03,0.94-0.04
		c-0.03,0.69-0.67,0.63-1.06,0.87c-0.56,0.18-1.01,0.55-1.48,0.88c-0.1,0.04-0.2,0.07-0.3,0.08c-0.46-0.01-0.71,0.32-0.98,0.63
		c-0.11,0.12-0.23,0.21-0.4,0.22c-0.79-0.61,0.38-1.35-0.13-1.98c0.1-0.15,0.2-0.3,0.3-0.45C18.98,20.6,19.54,20.2,20.1,19.8z"/>
	<path class="st160" d="M19.6,22.39c0.08,0,0.15-0.02,0.22-0.03c0.74,1.45,0.39,2.85-0.2,4.24c-0.95,0.58-1.07-0.34-1.45-0.8
		c-0.16-0.43-0.73-0.62-0.7-1.17c0.2-0.44,0.8-0.62,0.8-1.2c0.06-0.06,0.11-0.12,0.17-0.18C18.79,22.93,19.03,22.44,19.6,22.39z"/>
	<path class="st161" d="M31.15,39.05c0.65-0.51,1.37-0.89,2.14-1.18c0.56,0.36,0.67,0.95,0.81,1.54c1.21,5.08,3.13,9.86,5.79,14.37
		c1.57,2.67,3.39,5.11,5.72,7.16c5.12,4.5,11.17,6.82,17.84,7.75c0.98,0.14,1.98,0.05,2.94,0.3c0.24,0.32,0.48,0.64,0.73,0.96
		c0.16,0.32,0.32,0.64,0.48,0.96c-0.32,0.65-0.93,0.56-1.47,0.52c-7.06-0.57-13.67-2.54-19.45-6.71c-4.6-3.32-8.13-7.63-10.71-12.71
		c-1.84-3.61-3.28-7.36-4.29-11.28C31.52,40.17,31.15,39.66,31.15,39.05z"/>
	<path class="st162" d="M66.39,69c-1.72,0.65-3.41-0.05-5.04-0.35c-3.44-0.62-6.82-1.59-9.91-3.31c-1.73-0.96-3.34-2.1-4.93-3.31
		c-1.98-1.51-3.68-3.26-5.09-5.24c-1.38-1.94-2.59-4-3.64-6.16c-1.39-2.87-2.44-5.86-3.47-8.87c-0.44-1.28-0.44-2.66-1.03-3.9
		c0.55-0.27,1.11-0.54,1.66-0.81c0.72,1.85,0.93,3.84,1.59,5.72c0.75,2.13,1.58,4.25,2.29,6.38c1.04,3.1,2.92,5.62,4.73,8.21
		c1.45,2.07,3.41,3.6,5.48,5.05c3.01,2.11,6.33,3.48,9.82,4.47c1.52,0.43,3.11,0.64,4.67,0.88c0.61,0.09,1.28,0.16,1.87-0.2
		C65.74,68.04,66.06,68.52,66.39,69z"/>
	<path class="st163" d="M31.15,39.05c0.39,0.31,0.6,0.69,0.72,1.19c0.54,2.28,1.25,4.52,2.13,6.69c1.96,4.86,4.37,9.48,8.06,13.28
		c2.63,2.71,5.54,5.08,8.98,6.79c3.38,1.68,6.89,2.88,10.58,3.52c1.96,0.34,3.94,0.95,5.98,0.41c0.4,0.48,0.8,0.96,1.2,1.44
		c0.09,0.24,0.18,0.47,0.28,0.71c-0.75,0.54-1.64,0.42-2.43,0.33c-4.98-0.55-9.85-1.59-14.46-3.63
		c-6.96-3.08-12.42-7.86-16.38-14.39c-2.22-3.65-3.87-7.53-5.31-11.51c-0.45-1.24-0.54-2.58-0.94-3.83c0.11-0.61,0.62-0.7,1.09-0.84
		C30.8,39.14,30.97,39.09,31.15,39.05z"/>
	<path class="st164" d="M75.5,82.21c0.09,0.24,0.18,0.47,0.27,0.71c-0.39,0.59-0.98,0.43-1.52,0.39c-4.05-0.28-8.08-0.88-12.05-1.7
		c-3.92-0.81-7.88-1.64-11.54-3.38c-0.44-0.21-0.93-0.24-1.36-0.46c-0.44-0.38-0.95-0.73-0.59-1.43c0.79-0.32,1.49,0.03,2.19,0.31
		c3.38,1.33,6.82,2.36,10.37,3.18c4.41,1.01,8.92,1.14,13.33,2.01c0.16,0.03,0.31,0.06,0.47,0.11
		C75.22,82.03,75.36,82.12,75.5,82.21z"/>
	<path class="st165" d="M73.63,80c0.36,0.01,0.45,0.36,0.7,0.51c0.07,0.16,0.14,0.33,0.21,0.49c-0.8,0.95-1.87,0.53-2.78,0.41
		c-2.56-0.31-5.15-0.51-7.67-1.04c-2.39-0.5-4.78-1.03-7.14-1.71c-3.11-0.89-6.07-2.16-9.11-3.2c-0.52-0.34-0.92-0.75-0.7-1.45
		c0.63-0.47,1.23-0.14,1.8,0.12c3.09,1.4,6.25,2.6,9.53,3.43c2.74,0.69,5.49,1.3,8.3,1.67C69.05,79.55,71.31,80.02,73.63,80z"/>
	<path class="st166" d="M47.91,75.24c2.42,0.88,4.79,1.97,7.27,2.59c2.21,0.56,4.34,1.38,6.64,1.73c1.93,0.29,3.87,0.77,5.82,1.04
		c2.03,0.27,4.05,0.76,6.11,0.63c0.27-0.02,0.53-0.14,0.79-0.22c0.04,0.39,0.35,0.62,0.53,0.93c-0.36,0.21-0.71,0.18-1.13,0.11
		c-2.03-0.29-4.06-0.53-6.1-0.74c-2.02-0.21-4.05-0.66-6.07-1.05c-3.51-0.67-6.86-1.79-10.21-2.94c-0.97-0.33-1.85-0.89-2.92-0.89
		c-0.59,0-0.7-0.47-0.86-0.89C47.79,75.43,47.83,75.33,47.91,75.24z"/>
	<path class="st167" d="M49.37,77.64c0.62-0.04,1.22,0.1,1.71,0.44c0.64,0.45,1.36,0.68,2.09,0.85c2.6,0.59,5.14,1.43,7.75,2.01
		c2.36,0.52,4.74,0.9,7.11,1.31c2.55,0.44,5.12,0.94,7.75,0.67c0.23,0.24,0.46,0.49,0.69,0.73c0.09,0.24,0.17,0.48,0.26,0.71
		c-0.15,0.35-0.45,0.44-0.79,0.4c-1.03-0.11-2.09,0.06-3.1-0.11c-4.71-0.79-9.52-0.94-14.14-2.26c-2.6-0.74-5.17-1.62-7.79-2.28
		c-0.82-0.5-1.22-1.31-1.61-2.13C49.26,77.85,49.29,77.74,49.37,77.64z"/>
	<path class="st168" d="M54.4,85.56c-0.16-0.16-0.32-0.32-0.48-0.48c-0.24-0.32-0.48-0.64-0.71-0.96c-0.01-0.16-0.01-0.31-0.02-0.47
		c0.26-0.57,0.75-0.52,1.23-0.41c1.9,0.45,3.77,1.03,5.66,1.46c2.25,0.51,4.54,0.79,6.82,1.19c3.89,0.68,7.85,0.82,11.75,1.35
		c0.08,0.07,0.16,0.15,0.24,0.22c0.33,0.61,1,0.98,1.17,1.7c-3.08-0.01-6.11-0.69-9.17-0.82c-2.8-0.12-5.49-0.82-8.24-1.13
		c-2.04-0.23-4.06-0.71-6.07-1.15C55.85,85.89,55.14,85.65,54.4,85.56z"/>
	<path class="st169" d="M78.65,87.23c-0.65,0.45-1.3,0.04-1.96,0.03c-3.52-0.07-6.98-0.76-10.48-1.07c-1.11-0.1-2.23-0.64-3.36-0.71
		c-2.19-0.13-4.18-1.06-6.27-1.42c-1.06-0.19-2.18-1.15-3.38-0.41c-0.32-0.4-0.63-0.81-0.95-1.21c-0.33-0.2-0.49-0.46-0.28-0.83
		c0.56-0.59,1.24-0.49,1.89-0.24c2.99,1.13,6.14,1.6,9.25,2.28c1.91,0.42,3.84,0.65,5.76,0.94c2.4,0.36,4.82,0.52,7.23,0.84
		c0.54,0.07,1.13,0.02,1.61,0.37C78.17,86.17,78.51,86.64,78.65,87.23z"/>
	<path class="st170" d="M77.71,85.79c-1.5,0.16-2.97-0.19-4.44-0.33c-2.35-0.21-4.7-0.51-7.04-0.88c-2.1-0.33-4.21-0.65-6.25-1.27
		c-1.32-0.4-2.74-0.33-4.03-0.88c-0.62-0.26-1.32-0.28-1.91-0.65c-0.66-0.4-1.35-0.43-2.05-0.06c-0.81-0.14-0.93-0.91-1.31-1.44
		c-0.04-0.18-0.02-0.34,0.12-0.48c2.32,0.46,4.56,1.23,6.82,1.94c2.55,0.79,5.15,1.42,7.85,1.47c0.87,0.02,1.69,0.35,2.56,0.46
		c2.7,0.35,5.41,0.67,8.13,0.84c0.18,0.01,0.37-0.1,0.56-0.16c0.33,0.4,0.66,0.8,0.98,1.2C77.7,85.63,77.7,85.71,77.71,85.79z"/>
	<path class="st171" d="M29.69,39.97c0.9,1.63,0.92,3.51,1.58,5.23c1.48,3.85,3.17,7.58,5.4,11.03c1.65,2.56,3.61,4.89,5.93,6.93
		c2.16,1.9,4.42,3.63,6.91,5.02c2.58,1.43,5.37,2.39,8.21,3.24c2.14,0.64,4.33,1.02,6.52,1.4c1.57,0.27,3.21,0.4,4.83,0.26
		c0.56,0.45,0.85,1.1,1.21,1.69c0,0-0.07-0.01-0.07-0.01c-0.2,0.7-0.74,0.73-1.33,0.69c-5.13-0.33-10.12-1.42-14.91-3.2
		c-3.73-1.38-7.3-3.19-10.37-5.83c-0.9-0.78-1.88-1.48-2.88-2.12c-0.11-0.05-0.21-0.12-0.3-0.2c-1.98-2.6-3.62-5.44-5.5-8.11
		c-1.12-1.6-2.14-3.27-3.3-4.84c-0.31-0.41-0.61-0.84-0.66-1.39c0.03-0.45-0.05-0.88-0.24-1.27c-1.2-2.38-1.87-4.94-2.52-7.51
		C28.43,40.27,28.8,39.72,29.69,39.97z"/>
	<path class="st172" d="M72.42,78.12c0.11,0.21,0.23,0.39,0.47,0.46c0.07,0.17,0.15,0.34,0.22,0.5c-0.21,0.63-0.7,0.66-1.26,0.62
		c-6.62-0.55-13.13-1.7-19.36-4.06c-2.11-0.8-4.21-1.69-6.24-2.71c-0.12-0.05-0.22-0.12-0.32-0.2c-0.42-0.6-1.1-1.06-0.99-1.93
		c0.48-0.59,0.91-0.18,1.36,0.05c1.45,0.76,2.89,1.54,4.35,2.27c3.37,1.68,6.98,2.5,10.6,3.34c3.46,0.8,6.93,1.48,10.51,1.4
		C72.01,77.85,72.23,77.95,72.42,78.12z"/>
	<path class="st173" d="M46.23,72.61c2.04,1.04,4.17,1.91,6.29,2.77c2.5,1.02,5.18,1.62,7.83,2.28c3.89,0.98,7.87,1.23,11.82,1.8
		c0.45,0.07,0.64-0.26,0.95-0.38c0.17,0.31,0.34,0.61,0.51,0.92c-0.45,0.43-0.99,0.37-1.55,0.29c-1.82-0.26-3.64-0.48-5.45-0.75
		c-5.43-0.78-10.71-2.13-15.8-4.2c-1.2-0.49-2.27-1.3-3.64-1.3c-0.38,0.24-0.54-0.03-0.72-0.29C46.32,73.39,45.94,73.07,46.23,72.61
		z"/>
	<path class="st174" d="M72.42,78.12c-2.65,0.22-5.22-0.22-7.83-0.66c-3.75-0.63-7.43-1.48-10.99-2.74
		c-2.7-0.96-5.34-2.16-7.73-3.81c-0.29-0.2-0.55-0.34-0.82,0.01c-0.21,0.08-0.33-0.04-0.44-0.19c-0.43-0.74-0.9-1.46-1.44-2.13
		c-0.27-0.33-0.57-0.66-0.37-1.15c0.6-0.41,0.97,0.1,1.34,0.38c3.56,2.65,7.47,4.6,11.71,5.88c4.76,1.43,9.59,2.43,14.56,2.7
		c0.35,0.02,0.73,0,1.02,0.28c0,0,0.06-0.02,0.06-0.02C71.81,77.14,72.35,77.48,72.42,78.12z"/>
	<path class="st175" d="M71.43,76.69c-1.71,0.17-3.4-0.16-5.08-0.33c-1.83-0.19-3.67-0.49-5.46-0.91c-2.11-0.5-4.19-1.18-6.27-1.79
		c-3.25-0.96-6.1-2.75-9.08-4.3c-0.96-0.5-1.44-1.69-2.65-1.8c-0.2,0.09-0.33-0.02-0.46-0.15c-0.57-0.79-1.01-1.66-1.55-2.48
		c-0.19-0.28-0.43-0.58-0.17-0.96c1.16,0.83,2.37,1.6,3.47,2.5c2.12,1.73,4.49,3.01,6.93,4.22c2.08,1.03,4.26,1.79,6.47,2.4
		c3.4,0.95,6.84,1.79,10.4,1.9c0.74,0.02,1.56,0.6,2.22-0.23C70.67,75.37,71.29,75.87,71.43,76.69z"/>
	<path class="st176" d="M24.57,21.28c0.18,0.15,0.37,0.3,0.55,0.44c0.25,0.44,0.22,0.9,0.13,1.38c-0.33,1.75-0.5,3.52-0.51,5.3
		c-0.01,0.91,0,1.83-0.59,2.61c-0.65,0.39-0.94-0.2-1.34-0.5c-0.27-0.29-0.51-0.61-0.56-1.02c0.09-2.71,0.66-5.38,0.68-8.09
		c0.01-0.68,0.41-0.54,0.81-0.41c0.06-0.02,0.12-0.02,0.18,0.02C24.04,21.31,24.3,21.31,24.57,21.28z"/>
	<path class="st177" d="M23.73,20.98c-0.16,0.11-0.53-0.16-0.52,0.24c0.07,2.84-0.48,5.62-0.73,8.43c-0.32,0.14-0.58-0.01-0.85-0.16
		c-0.47-0.4-0.98-0.78-1.03-1.48c0.45-2.17,0.61-4.38,0.66-6.59c0.41-0.22,0.82-0.44,1.23-0.66C22.91,20.79,23.37,20.62,23.73,20.98
		z"/>
	<path class="st178" d="M29.69,39.97c-0.61,0.15-1.05,0.55-1.44,1.01c-0.06,0.01-0.12,0.02-0.19,0.02
		c-0.68,0.08-0.92-0.38-1.02-0.91c-0.3-1.52-0.44-3.06-0.63-4.59c-0.05-0.43,0.15-0.77,0.37-1.1c0.16-0.33,0.53-0.3,0.8-0.43
		c0.47-0.17,0.93-0.34,1.4-0.51c0.24,1.6,0.5,3.2,0.7,4.8c0.08,0.63,0.44,0.83,0.96,0.92C30.31,39.45,30,39.71,29.69,39.97z"/>
	<path class="st179" d="M26.32,22.44c0.32,0.16,0.64,0.31,0.96,0.47c0.16,0.16,0.32,0.32,0.48,0.48c-0.25,3.05-0.79,6.08-0.73,9.16
		c0.01,0.48-0.04,0.96,0.24,1.38c-0.96,0.05-1.65-0.53-2.14-1.82c0.05-3.06,0.37-6.1,0.74-9.13C25.92,22.73,25.89,22.4,26.32,22.44z
		"/>
	<path class="st180" d="M25.36,32.28c0.57,0.64,1,1.43,1.93,1.66c0.1,0.01,0.19,0.02,0.29,0.03c-0.18,0.14-0.37,0.27-0.55,0.41
		c-0.32,0.39-0.71,0.69-1.14,0.97c-0.51,0.24-0.92,0.72-1.55,0.67c-0.2-0.06-0.42-0.17-0.42-0.37c-0.03-1.44-0.42-2.87-0.06-4.31
		C24.72,31.06,25.01,31.72,25.36,32.28z"/>
	<path class="st181" d="M25.36,32.28c-0.48-0.32-0.95-0.65-1.43-0.97c-0.06-0.05-0.08-0.1-0.06-0.15c0.02-0.05,0.04-0.08,0.05-0.08
		c0.33-0.82,0.51-1.66,0.48-2.56c-0.07-2.3,0.33-4.55,0.71-6.8c0.39,0.18,0.77,0.36,1.16,0.54c0.01,0.06,0.03,0.12,0.04,0.18
		c-0.11,2.63-0.92,5.2-0.72,7.86C25.66,30.97,25.57,31.64,25.36,32.28z"/>
	<path class="st43" d="M82,132.36c0.4-2.45,2.24-3.86,3.9-5.4c0.2-0.19,0.44-0.34,0.67-0.5c2.39-1.71,2.56-2.22,5.53-0.09
		c1.9,1.37,2.33,2.95,1,4.83c-2.15,3.03-5.06,4.91-8.92,4.99C83.18,135.06,82.51,133.75,82,132.36z"/>
	<path class="st40" d="M82,132.36c0.95,1.15,1.53,2.51,2.17,3.83C81.96,136.18,81.07,134.62,82,132.36z"/>
	<path class="st182" d="M50.82,80.27c0.56,0.35,0.69,1.04,1.17,1.45c0.09,0.24,0.17,0.48,0.26,0.71c-1.73-0.01-3.25-0.75-4.81-1.37
		c-1.72-0.68-3.28-1.69-4.95-2.49c-2.14-1.04-4.09-2.44-6.01-3.86c-2.15-1.6-4.05-3.48-5.89-5.42c-3.14-3.31-5.67-7.06-7.88-11.05
		c-1.22-2.2-2.24-4.45-3.04-6.82c-0.13-0.39-0.25-0.88-0.82-0.92c0.09-0.23,0.19-0.46,0.28-0.69c0,0-0.01,0-0.01,0
		c0.18-0.3,0.37-0.59,0.71-0.73c0.07-0.01,0.14-0.02,0.21-0.02c0.85-0.06,0.89,0.67,1.08,1.18c1.44,3.78,3.14,7.42,5.49,10.73
		c2.33,3.29,4.77,6.46,7.74,9.25c3.74,3.51,7.87,6.34,12.45,8.56C48.1,79.4,49.42,79.95,50.82,80.27z"/>
	<path class="st183" d="M50.82,80.27c-1.43,0.42-2.53-0.54-3.68-1.03c-2.56-1.09-5.1-2.36-7.3-4.04c-3.52-2.68-6.9-5.53-9.72-9.02
		c-2.79-3.45-5.2-7.12-7.31-11c-0.83-1.52-1.34-3.23-1.97-4.85c-0.19-0.48-0.27-1.01-0.81-1.27c0.07-0.51,0.56-0.74,0.77-1.16
		c0.14-0.37,0.33-0.65,0.78-0.61c1.06,1.02,1.29,2.46,1.74,3.73c1.83,5.11,4.79,9.52,8.15,13.69c4.45,5.52,9.98,9.67,16.41,12.63
		c0.47,0.22,1,0.29,1.46,0.53c0.48,0.64,0.95,1.28,1.43,1.92C50.81,79.96,50.82,80.11,50.82,80.27z"/>
	<path class="st184" d="M18.17,25.8c0.4,0.32,0.8,0.65,1.2,0.97c0.08,0.09,0.13,0.2,0.15,0.32c-0.59,4.15-0.46,8.3-0.03,12.45
		c0.04,0.36,0.08,0.71,0.05,1.07c-0.04,0.3-0.12,0.57-0.44,0.7c-0.21,0.2-0.41,0.4-0.62,0.6c-0.28-1.74-0.74-3.45-0.46-5.25
		c0.16-1.06-0.35-2.07-0.35-3.16C17.63,30.91,17.93,28.36,18.17,25.8z"/>
	<path class="st185" d="M19.09,41.3c0.11-0.2,0.22-0.4,0.33-0.6c0.14-0.33,0.23-0.74,0.75-0.45c0.59,1.89,0.71,3.91,1.59,5.71
		c0.25,0.42-0.12,0.79-0.1,1.19c-0.02,0.1-0.08,0.18-0.17,0.22c-0.22,0.17-0.44,0.35-0.66,0.52c-0.88,0.25-1.21-0.13-1.23-0.99
		c-0.02-0.73-0.56-1.29-0.73-2C18.56,43.66,18.5,42.47,19.09,41.3z"/>
	<path class="st157" d="M19.85,49.08c-0.17,0.31-0.39,0.57-0.71,0.73C19.21,49.4,19.25,48.98,19.85,49.08z"/>
	<path class="st186" d="M19.37,27c0-0.08,0-0.16,0-0.23c0.49-1.43,0.57-2.91,0.46-4.41c0.38-0.47,0.89-0.74,1.44-0.94
		c0.57,0.55,0.43,1.2,0.27,1.87c-0.38,1.61,0.02,3.35-0.73,4.91c-0.08,0.09-0.17,0.12-0.29,0.12C19.94,28.05,19.63,27.54,19.37,27z"
		/>
	<path class="st35" d="M19.6,22.39c-0.36,0.33-0.58,0.83-1.16,0.86C18.71,22.82,18.8,22.13,19.6,22.39z"/>
	<path class="st187" d="M21.49,47.37c0.01-0.08,0.02-0.15,0.01-0.23c0.21-0.63,0.48-1.2,1.26-1.25c1,0.7,1.22,1.88,1.56,2.89
		c2.31,6.77,6.13,12.55,11.04,17.71c3.31,3.48,7.21,6.12,11.34,8.47c0.38,0.22,0.78,0.39,1.21,0.52c0.24,0.32,0.49,0.64,0.73,0.96
		c0.24,0.4,0.49,0.8,0.73,1.2c0,0.08,0,0.16,0,0.24c-0.39,0.28-0.73,0.11-1.11-0.06c-3.86-1.71-7.38-3.9-10.64-6.62
		c-1.73-1.44-3.42-2.93-4.98-4.53c-1.46-1.5-2.61-3.3-3.84-5c-1.56-2.15-3.07-4.36-4.17-6.78c-1.04-2.3-1.89-4.68-2.84-7.02
		C21.72,47.69,21.59,47.54,21.49,47.37z"/>
	<path class="st188" d="M47.92,75.48c-1.02,0.44-1.63-0.42-2.32-0.81c-3.09-1.72-6.06-3.68-8.62-6.09
		c-2.33-2.19-4.49-4.61-6.39-7.22c-1.9-2.62-3.5-5.41-4.88-8.32c-0.84-1.78-1.55-3.64-2.19-5.5c-0.2-0.58-0.6-1.02-0.77-1.59
		c-0.05-0.71,0.35-0.98,0.99-1.01c0.64,0.42,1,1.04,1.15,1.76c0.72,3.58,2.58,6.65,4.31,9.78c1.43,2.6,3.13,5.01,5.09,7.22
		c2.14,2.41,4.35,4.75,7.06,6.57c1.75,1.18,3.43,2.45,5.38,3.28c0.03,0.29,0.17,0.47,0.48,0.49c0.11,0.48,0.26,0.94,0.72,1.2
		C47.91,75.32,47.91,75.4,47.92,75.48z"/>
	<path class="st189" d="M40.71,63.97c0.64,1.12,1.29,2.24,1.93,3.35c-0.37,0.66-0.81,0.32-1.2,0.06c-1.51-0.99-2.69-2.36-3.97-3.61
		c-2.34-2.27-4.05-5.02-5.76-7.76c-1.93-3.08-3.37-6.4-4.53-9.85c-0.15-0.43-0.18-0.87,0.24-1.2c0.11-0.05,0.22-0.07,0.34-0.05
		c1.17,1.35,2.29,2.74,3.05,4.38c-0.09,0.84,0.25,1.57,0.62,2.28c2.25,4.29,4.78,8.39,8.3,11.8c0.23,0.22,0.48,0.42,0.75,0.58
		C40.56,63.96,40.63,63.96,40.71,63.97z"/>
	<path class="st190" d="M40.49,63.96c-1.11-0.03-1.64-0.95-2.23-1.62c-2.98-3.43-5.44-7.22-7.43-11.32
		c-0.25-0.51-0.53-1.09-0.19-1.69c0.46-0.14,0.32,0.32,0.48,0.47c1.56,2.31,3.12,4.62,4.66,6.95
		C37.37,59.14,38.92,61.55,40.49,63.96z"/>
	<path class="st191" d="M31.13,49.8c-0.16-0.16-0.32-0.32-0.48-0.47c-0.87-1.5-2.1-2.76-2.89-4.31c-0.31-1.03-0.71-2.04-0.81-3.12
		c0.22-0.61,0.64-0.97,1.3-1.02c0,0,0.01,0.12,0.01,0.12c0.5,0.55,0.62,1.21,0.76,1.93c0.32,1.74,1.04,3.38,1.77,5
		C31.05,48.5,31.52,49.08,31.13,49.8z"/>
	<path class="st192" d="M44.8,70.68c0.08,0.08,0.16,0.16,0.25,0.24c0.32,0.56,0.64,1.12,0.96,1.68c-0.5,0.41-0.9,0.04-1.3-0.18
		c-1.4-0.78-2.71-1.67-3.95-2.69c-2.93-2.42-5.69-4.99-7.99-8.02c-2.43-3.19-4.33-6.68-6.08-10.27c-1.09-2.22-1.61-4.66-2.67-6.88
		c0.11-0.62,0.44-1.01,1.1-1.07c0.59,0.31,0.79,0.89,0.93,1.47c0.19,0.82,0.63,1.58,0.81,2.36c0.49,2.14,1.59,3.99,2.51,5.93
		c1.28,2.72,2.99,5.17,4.79,7.57c2.59,3.46,5.68,6.36,9.17,8.87C43.81,70.04,44.44,70.16,44.8,70.68z"/>
	<path class="st193" d="M24.16,44.51c1.09,1.24,1.29,2.9,1.81,4.36c0.71,1.99,1.7,3.83,2.63,5.69c1.78,3.55,4.04,6.82,6.71,9.77
		c1.69,1.87,3.66,3.47,5.57,5.12c1.31,1.12,2.75,2.02,4.23,2.89c0.29,0.17,0.56,0.28,0.89,0.26c0.07,0,0.15,0.01,0.22,0.01
		c0.16,0.32,0.32,0.64,0.48,0.95c-0.39,0.08-0.75,0.14-1.14-0.1c-2.39-1.46-4.82-2.92-6.88-4.79c-2.56-2.33-4.91-4.89-6.98-7.72
		c-1.99-2.7-3.6-5.61-5.1-8.57c-0.89-1.76-1.92-3.55-2-5.65c-0.03-0.7-0.71-1.12-0.93-1.76C23.62,44.6,23.78,44.44,24.16,44.51z"/>
	<path class="st194" d="M44.8,70.68c-2.09-0.61-3.54-2.18-5.16-3.49c-2.73-2.21-4.89-4.96-6.92-7.79c-1.5-2.08-2.73-4.32-3.92-6.61
		c-1.03-1.98-1.65-4.09-2.57-6.09c-0.46-1-0.43-2.19-1.1-3.13c-0.06-0.06-0.09-0.13-0.08-0.2c0.01-0.07,0.02-0.11,0.03-0.11
		c0.29-0.29,0.59-0.55,1.05-0.5c0.76,0.57,1.27,1.29,1.4,2.25c-0.59,1.04,0.26,1.84,0.53,2.68c0.56,1.72,1.22,3.43,2.07,5.03
		c1.01,1.91,2.27,3.69,3.38,5.56c1.22,2.05,2.77,3.86,4.42,5.54c1.2,1.23,2.4,2.5,3.85,3.47c0.34,0.22,0.57,0.18,0.87,0.02
		c0.08,0.08,0.17,0.15,0.25,0.23C43.33,68.71,44.48,69.44,44.8,70.68z"/>
	<path class="st195" d="M21.77,29.39c0.24,0.09,0.47,0.17,0.71,0.26c0.16,0.24,0.32,0.47,0.49,0.71c0.44,1.07-0.04,2.17,0.09,3.27
		c0.12,1.09,0.02,2.21,0.25,3.31c-0.18,0.57-0.59,0.78-1.16,0.76c-0.67-0.24-0.81-0.8-0.83-1.43c-0.04-1.85-0.07-3.71-0.1-5.56
		C21.21,30.21,21.17,29.65,21.77,29.39z"/>
	<path class="st196" d="M23.17,36.83c-0.33-0.24-0.32-0.6-0.33-0.96c-0.05-1.84-0.24-3.68,0.12-5.51c0.32,0.24,0.64,0.48,0.96,0.72
		c0,0.08,0,0.15,0,0.23c-0.02,1.42,0.35,2.83,0.15,4.26c-0.01,0.09,0.21,0.21,0.32,0.31c0.08,0.69-0.52,0.79-0.92,1.05
		C23.36,36.96,23.26,36.92,23.17,36.83z"/>
	<path class="st197" d="M21.77,29.39c-0.6,1.41-0.02,2.87-0.2,4.3c-0.11,0.87,0.1,1.77,0.06,2.65c-0.03,0.6,0.18,0.97,0.68,1.24
		c0.03,0.11,0.03,0.23-0.02,0.34c-0.44,0.55-0.9,1.07-1.67,1.13c-0.78-0.9-0.77-2.13-0.78-3.12c-0.03-1.99-0.13-3.99-0.05-5.98
		c0.03-0.68,0.02-1.39,0.78-1.75c0.08,0,0.16,0,0.24-0.01C21.13,28.59,21.45,28.99,21.77,29.39z"/>
	<path class="st198" d="M28.24,40.87c-0.39,0.35-0.79,0.7-1.18,1.05c-0.2,0.36-0.45,0.62-0.91,0.49c-0.62-0.27-0.75-0.86-0.93-1.43
		c-0.43-1.41-0.33-2.9-0.65-4.33c-0.08-0.35,0.05-0.59,0.36-0.79c0.33-0.21,0.65-0.44,0.88-0.78c0.37-0.29,0.74-0.57,1.2-0.7
		c-0.71,1.49,0.17,2.95,0.09,4.44c-0.02,0.34,0.17,0.69,0.16,1.04C27.25,40.55,27.69,40.75,28.24,40.87z"/>
	<path class="st199" d="M25.82,35.08c-0.04,0.68-1.14,0.77-0.94,1.48c0.55,1.93-0.06,4.15,1.46,5.83c0.06,0.25-0.05,0.38-0.29,0.43
		c-0.3,0.15-0.48,0.5-0.86,0.52c-0.3,0.11-0.55,0.43-0.92,0.22c-0.81-1.31-0.98-2.81-1.14-4.29c-0.09-0.84-0.34-1.74,0.3-2.51
		c0.33-0.29,0.65-0.58,0.98-0.88C24.87,35.61,25.34,35.35,25.82,35.08z"/>
	<path class="st200" d="M20.56,28.2c-0.4,0.63-0.48,1.31-0.49,2.04c-0.04,1.92,0.02,3.85,0.08,5.75c0.03,0.89-0.08,2.12,0.64,3
		c0.14,0.63-0.12,0.99-0.74,1.12c-0.21,0.2-0.43,0.39-0.64,0.59c-0.53-2.28-0.43-4.62-0.67-6.93c-0.21-1.94,0.45-3.85,0.23-5.8
		c-0.04-0.31,0.25-0.65,0.39-0.98C19.92,27.25,20.17,27.8,20.56,28.2z"/>
	<path class="st23" d="M20.06,40.11c0.18-0.42,0.68-0.62,0.74-1.12c0.49-0.4,0.98-0.8,1.47-1.2c0.13-0.01,0.28,0.08,0.24,0.17
		c-0.94,2.38,0,4.54,0.79,6.72c-0.26,0.76-0.72,1.31-1.53,1.51c-0.33-0.17-0.61-0.4-0.7-0.78c-0.35-1.47-0.54-2.97-1.12-4.38
		C19.85,40.79,20.02,40.42,20.06,40.11z"/>
	<path class="st201" d="M21.77,46.2c0.57-0.39,1.05-0.87,1.44-1.44c0.21-0.59,0.61-0.99,1.2-1.2c0.26-0.08,0.52-0.15,0.78-0.23
		c-0.02,0.08-0.04,0.16-0.06,0.24c-0.42,0.21-0.71,0.55-0.97,0.93c-0.16,0.16-0.32,0.32-0.48,0.48c-0.39,0.25-0.72,0.56-0.96,0.97
		c-0.41,0.4-0.82,0.79-1.23,1.19C21.06,46.68,21.74,46.53,21.77,46.2z"/>
	<path class="st202" d="M26.05,42.81c0.1-0.14,0.19-0.28,0.29-0.43c0.24-0.16,0.48-0.31,0.72-0.47c0.32,1.01,0.94,1.95,0.7,3.09
		c0,0-0.12,0-0.12,0s-0.12,0.01-0.12,0.01C27.03,44.28,26.54,43.55,26.05,42.81z"/>
	<path class="st203" d="M24.41,43.56c-0.31,0.49-0.71,0.89-1.2,1.2c-0.54-0.21-0.5-0.77-0.68-1.18c-0.61-1.35-0.47-2.86-0.85-4.26
		c-0.19-0.7,0.73-0.89,0.59-1.52c0.02-0.07,0.03-0.14,0.05-0.21c0.35-0.18,0.66-0.4,0.86-0.75c0.08-0.02,0.16-0.05,0.25-0.07
		C23.14,39.11,23.76,41.34,24.41,43.56z"/>
</g>
</svg>
