<?xml version="1.0" encoding="utf-8"?>
<!-- Generator: Adobe Illustrator 23.0.2, SVG Export Plug-In . SVG Version: 6.00 Build 0)  -->
<svg version="1.1" id="Camada_1" xmlns="http://www.w3.org/2000/svg" xmlns:xlink="http://www.w3.org/1999/xlink" x="0px" y="0px"
	 viewBox="0 0 253.15 236.69" style="enable-background:new 0 0 253.15 236.69;" xml:space="preserve">
<style type="text/css">
	.st0{fill:#F2F2F2;}
	.st1{fill:#FEFEFE;}
	.st2{fill:#402E5C;}
	.st3{fill:#764BB9;}
	.st4{fill:#6237A2;}
	.st5{fill:#916ACE;}
	.st6{fill:#E0E0E0;}
	.st7{fill:#848484;}
	.st8{fill:#B9B9B9;}
	.st9{fill:#774BB9;}
	.st10{fill:#9A9A9A;}
	.st11{fill:#858484;}
	.st12{fill:#764AB9;}
	.st13{fill:#302147;}
	.st14{fill:#2F2440;}
	.st15{fill:#312841;}
	.st16{fill:#302149;}
	.st17{fill:#312249;}
	.st18{fill:#32224B;}
	.st19{fill:#34264B;}
	.st20{fill:#35264E;}
	.st21{fill:#312149;}
	.st22{fill:#35264C;}
	.st23{fill:#322742;}
	.st24{fill:#332844;}
	.st25{fill:#312347;}
	.st26{fill:#3F364E;}
	.st27{fill:#33224E;}
	.st28{fill:#34254A;}
	.st29{fill:#2F2046;}
	.st30{fill:#322448;}
	.st31{fill:#312248;}
	.st32{fill:#32214C;}
	.st33{fill:#2E1F45;}
	.st34{fill:#30283C;}
	.st35{fill:#8962C3;}
	.st36{fill:#312349;}
	.st37{fill:#2F253E;}
	.st38{fill:#302247;}
	.st39{fill:#08050B;}
	.st40{fill:#312740;}
	.st41{fill:#36274D;}
	.st42{fill:#36274E;}
	.st43{fill:#33254A;}
	.st44{fill:#312247;}
	.st45{fill:#2E2045;}
	.st46{fill:#2A1F3A;}
	.st47{fill:#2E243F;}
	.st48{fill:#2C203F;}
	.st49{fill:#342846;}
	.st50{fill:#37284F;}
	.st51{fill:#2D2040;}
	.st52{fill:#2A1E3C;}
	.st53{fill:#362D44;}
	.st54{fill:#392952;}
	.st55{fill:#171121;}
	.st56{fill:#150F1E;}
	.st57{fill:#2A1F3D;}
	.st58{fill:#342C40;}
	.st59{fill:#251B36;}
	.st60{fill:#221830;}
	.st61{fill:#1B1327;}
	.st62{fill:#2E253B;}
	.st63{fill:#291F38;}
	.st64{fill:#2C1F40;}
	.st65{fill:#181223;}
	.st66{fill:#160F1F;}
	.st67{fill:#241A33;}
	.st68{fill:#1D152A;}
	.st69{fill:#271C38;}
	.st70{fill:#261D35;}
	.st71{fill:#2E2042;}
	.st72{fill:#312741;}
	.st73{fill:#241A34;}
	.st74{fill:#2D233D;}
	.st75{fill:#291E3B;}
	.st76{fill:#2C1F41;}
	.st77{fill:#291E3C;}
	.st78{fill:#261E34;}
	.st79{fill:#302345;}
	.st80{fill:#231932;}
	.st81{fill:#34234E;}
	.st82{fill:#261C37;}
	.st83{fill:#3B3349;}
	.st84{fill:#332943;}
	.st85{fill:#271D37;}
	.st86{fill:#2A1F3C;}
	.st87{fill:#291E3A;}
	.st88{fill:#261C36;}
	.st89{fill:#2B1F3F;}
	.st90{fill:#251C33;}
	.st91{fill:#2B1E40;}
	.st92{fill:#140E1C;}
	.st93{fill:#271E34;}
	.st94{fill:#312346;}
	.st95{fill:#372D46;}
	.st96{fill:#291F37;}
	.st97{fill:#221831;}
	.st98{fill:#251B35;}
	.st99{fill:#291E39;}
	.st100{fill:#231933;}
	.st101{fill:#231A33;}
	.st102{fill:#271D36;}
	.st103{fill:#281D39;}
	.st104{fill:#2A1D3D;}
	.st105{fill:#2D2042;}
	.st106{fill:#2B1F3D;}
	.st107{fill:#1E162C;}
	.st108{fill:#2A1E3D;}
	.st109{fill:#1F162C;}
	.st110{fill:#231A31;}
	.st111{fill:#2E2143;}
	.st112{fill:#281E37;}
	.st113{fill:#2A1D3E;}
	.st114{fill:#221931;}
	.st115{fill:#2D1F41;}
	.st116{fill:#211830;}
	.st117{fill:#291D3B;}
	.st118{fill:#2B203B;}
	.st119{fill:#221932;}
	.st120{fill:#2B1E3F;}
	.st121{fill:#281E38;}
	.st122{fill:#291C3C;}
	.st123{fill:#2C1F3E;}
	.st124{fill:#2B1F3E;}
	.st125{fill:#281D3A;}
	.st126{fill:#2B1D40;}
	.st127{fill:#20172E;}
	.st128{fill:#885FC6;}
	.st129{fill:#442F64;}
	.st130{fill:#49306E;}
	.st131{fill:#CECECE;}
	.st132{fill:#A42C2A;}
	.st133{fill:#858585;}
	.st134{fill:#897F7F;}
</style>
<g>
	<path class="st0" d="M252.96,156.73c0.07,0,0.13,0,0.2,0c0,1.12,0,2.24,0,3.36l-0.1,0.01l-0.1,0
		C252.32,158.97,252.31,157.85,252.96,156.73z"/>
	<path class="st1" d="M247.21,158.84c-0.24,2.48-0.49,5.36-2.46,7.77c-0.6,0.74-1.31,1.3-2.09,1.77c-2.13,1.3-4.16,2.86-6.73,3.22
		c-0.64,0.09-0.87,0.46-0.98,1.02c-1.13,5.63-2.16,11.28-3.85,16.78c-0.19,0.63,0.02,1.05,0.39,1.51c2.85,3.55,5.75,7.08,8.25,10.89
		c1.29,1.97,1.84,4.28,1.39,6.71c-0.45,2.41-1.28,4.72-2.26,6.92c-1.19,2.69-3.15,4.7-6.24,5.45c-4.87,1.18-9.87,1.37-14.77,2.28
		c-6.43,1.21-12.97,1.63-19.4,2.86c-3.55,0.68-7.19,0.89-10.79,1.28c-3.45,0.37-6.87,0.92-10.3,1.39c-2.6,0.36-5.23,0.49-7.84,0.79
		c-3.56,0.41-7.14,0.65-10.68,1.3c-2.53,0.47-5.14,0.55-7.71,0.85c-4.95,0.59-9.92,0.94-14.85,1.79c-2.74,0.47-5.54,0.57-8.31,0.86
		c-5.2,0.53-10.39,1.14-15.6,1.57c-1.88,0.15-3.72,0.34-5.55,0.78c-0.62,0.15-1.26-0.05-1.89-0.2c-2.17-0.53-4.36-0.97-6.52-1.55
		c-3.56-0.96-5.6-3.65-7.3-6.66c-2.58-4.59-5.32-9.09-8.22-13.5c-2.35-3.56-4.45-7.29-6.65-10.95c-2.33-3.86-4.65-7.73-6.98-11.59
		c-2.34-3.89-4.69-7.77-7.04-11.66c-2.56-4.23-5.12-8.47-7.67-12.7c-3.32-5.5-6.61-11.02-9.94-16.52
		c-3.22-5.33-6.48-10.64-9.7-15.96c-2.56-4.23-5.09-8.48-7.64-12.72c-2.08-3.46-4.15-6.92-6.26-10.35
		c-3.91-6.35-7.83-12.69-11.79-19.01C8.2,91.61,7.13,90,6.18,88.32c-0.56-1-1.64-1.55-2.34-2.47c-1.33-1.73-1.88-3.78-2.66-5.75
		c-0.39-0.98-0.66-2.01-0.98-3.01c-0.49-1.55,0.04-3.04,0.33-4.52c0.58-2.97,1.02-5.96,1.35-8.97c0.38-3.48,0.89-6.94,1.17-10.43
		C3.78,43.99,6.7,35.3,8.94,26.45c0.94-3.72,1.94-7.43,2.88-11.15c0.93-3.72,3.53-6.08,7.25-7.13c3.01-0.85,6.08-1.14,9.21-1.24
		c5.98-0.2,11.94-0.61,17.92-0.91c3.67-0.19,7.34-0.3,11.01-0.53c4.3-0.26,8.62-0.21,12.9-0.87c1.6-0.25,3.26-0.12,4.89-0.25
		c3.77-0.3,7.57-0.33,11.35-0.56c6.57-0.4,13.15-0.8,19.71-1.35c3.77-0.31,7.55-0.46,11.31-0.81c5.96-0.55,11.94-0.81,17.87-1.6
		c0.24-0.03,0.49-0.07,0.72-0.01c2.78,0.77,5.75,0.48,8.47,1.48c3.08,1.14,5.57,2.98,6.84,6.21c0.37,0.95,1.06,1.77,1.65,2.63
		c6.48,9.56,12.99,19.1,19.63,28.54c5.22,7.42,10.34,14.91,15.43,22.41c5.43,8,10.85,16,16.14,24.09
		c6.56,10.03,13.05,20.09,19.43,30.23c5.25,8.34,10.38,16.76,15.39,25.25c2.17,3.67,4.3,7.36,6.77,10.86
		C247.01,153.6,247.15,156.07,247.21,158.84z"/>
	<path d="M241.4,158.65c0.07,0.85-0.04,1.84-0.28,2.81c-0.18,0.73-0.52,1.42-1.11,1.79c-1.81,1.13-3.54,2.43-5.67,2.97
		c-0.44,0.11-0.86,0.13-1.29-0.02c-0.82-0.3-1.61-0.15-2.45,0.03c-0.64,0.13-0.68,0.43-0.73,0.95c-0.21,2.42-0.46,4.83-0.99,7.2
		c-1.23,5.52-2.18,11.12-4.19,16.44c-0.19,0.51,0.02,0.82,0.31,1.17c3.32,3.98,6.45,8.12,9.57,12.27c1.14,1.52,1.29,3.16,0.57,4.84
		c-0.44,1.03-0.84,2.07-1.16,3.14c-0.65,2.17-2.09,3.26-4.31,3.54c-4.11,0.51-8.25,0.92-12.32,1.68c-6.27,1.17-12.65,1.58-18.92,2.8
		c-3.58,0.7-7.26,0.89-10.9,1.29c-3.41,0.37-6.79,0.91-10.18,1.37c-2.64,0.36-5.31,0.48-7.95,0.8c-3.52,0.42-7.06,0.65-10.56,1.3
		c-2.53,0.47-5.14,0.55-7.7,0.86c-4.95,0.59-9.93,0.9-14.85,1.8c-1.79,0.33-3.63,0.41-5.45,0.59c-4.41,0.43-8.81,0.91-13.23,1.25
		c-2.62,0.2-5.22,0.77-7.87,0.67c-0.2-0.01-0.42-0.03-0.59,0.04c-3.49,1.55-6.64-0.16-9.83-1.11c-1.14-0.34-1.86-1.45-2.48-2.51
		c-2.19-3.74-4.22-7.59-6.65-11.19c-4.22-6.23-7.84-12.84-11.82-19.22c-2.55-4.08-4.95-8.25-7.49-12.33
		c-3.92-6.31-7.66-12.72-11.48-19.09c-4.19-6.99-8.37-13.98-12.58-20.96c-2.24-3.71-4.54-7.39-6.79-11.1
		c-3.51-5.82-6.98-11.67-10.5-17.48c-2.39-3.95-4.86-7.86-7.26-11.8c-3.63-5.97-7.47-11.82-10.94-17.89c-0.57-1-1.2-1.95-2.18-2.65
		c-0.9-0.64-1.33-1.68-1.7-2.67c-0.56-1.52-0.88-3.14-1.51-4.63c-1.03-2.44-0.34-4.85-0.01-7.23c0.64-4.55,1.48-9.06,2.21-13.6
		C9,49.42,10.28,44.18,11.6,38.94c1.36-5.4,2.83-10.77,4.07-16.19c0.41-1.78,0.95-3.49,1.51-5.22c1.07-3.32,2.91-4.25,6.5-4.52
		c5.52-0.42,11.06-0.55,16.6-0.82c4.58-0.22,9.17-0.47,13.75-0.71c4.71-0.25,9.43-0.33,14.11-0.85c2.26-0.25,4.53-0.27,6.78-0.49
		c3.76-0.37,7.56-0.35,11.34-0.58c6.66-0.4,13.31-0.77,19.96-1.34c3.73-0.32,7.47-0.47,11.19-0.82c5.95-0.57,11.92-1.07,17.88-1.49
		c2.43-0.17,5.14,0.12,7.51,1.05c1.54,0.6,3.07,1.57,3.39,3.57c0.08,0.5,0.59,0.93,0.91,1.39c5.11,7.45,10.03,15.03,15.29,22.38
		c4.08,5.7,8.03,11.49,12.01,17.27c4.51,6.56,9.01,13.14,13.47,19.74C191.61,76.85,195.34,82.4,199,88
		c4.97,7.6,9.89,15.23,14.77,22.88c4.08,6.41,8.11,12.85,12.08,19.33c3.22,5.25,6.3,10.58,9.45,15.88c1.3,2.19,2.59,4.37,3.88,6.56
		c0.08,0.14,0.11,0.33,0.23,0.41C241.41,154.38,241.44,156.43,241.4,158.65z"/>
	<path class="st2" d="M237.01,158.46c-0.08,0.54,0.35,1.25-0.26,1.65c-0.9,0.59-1.97,1.66-2.77,1.51c-2.38-0.46-4.49,0.64-6.74,0.67
		c-0.98,0.01-1.43,0.43-1.5,1.6c-0.3,5.02-1.23,9.95-2.19,14.88c-0.82,4.2-2.01,8.3-3.57,12.28c-0.32,0.82-0.26,1.36,0.29,2.03
		c3.38,4.05,6.49,8.3,9.71,12.46c0.95,1.22,1.07,2.21,0.6,3.67c-0.53,1.62-1.33,2.29-3.03,2.51c-9.16,1.21-18.3,2.57-27.45,3.83
		c-7.1,0.98-14.21,1.88-21.33,2.67c-7.52,0.83-15.04,1.75-22.56,2.62c-6.84,0.8-13.69,1.6-20.53,2.39
		c-5.38,0.62-10.75,1.34-16.14,1.83c-3.85,0.35-7.7,0.79-11.57,0.8c-0.24,0-0.58-0.07-0.7,0.05c-1.07,1.14-2.19,0.33-3.31,0.17
		c-2.11-0.29-3.28-1.52-4.39-3.35c-10.99-18.18-22.03-36.33-32.96-54.55c-9.47-15.79-19.01-31.54-28.55-47.28
		c-8.45-13.93-16.95-27.83-25.44-41.74c-0.14-0.24-0.24-1.06-0.87-0.31c-0.12,0.14-0.25-0.21-0.31-0.39
		c-0.58-1.57-1.25-3.12-1.69-4.73c-0.4-1.45,0.14-2.92,0.35-4.36c0.83-5.8,1.63-11.6,2.82-17.34c1.66-8,3.72-15.92,5.79-23.82
		c0.82-3.12,1.37-6.3,2.52-9.34c0.35-0.93,0.81-1.29,1.8-1.36c6.01-0.46,12.03-0.68,18.04-0.99c4.42-0.22,8.84-0.52,13.26-0.7
		c5.74-0.24,11.47-0.62,17.2-0.96c3.94-0.23,7.88-0.46,11.82-0.71c6.17-0.39,12.33-0.8,18.5-1.21c4.41-0.3,8.83-0.59,13.24-0.95
		c6.75-0.56,13.49-1.23,20.25-1.74c1.19-0.09,2.43,0.32,3.64,0.52c0.84,0.14,1.7-0.17,2.51,0.49c0.61,0.5,0.57,1.19,0.95,1.74
		c5.13,7.43,10.22,14.88,15.34,22.31c4.1,5.95,8.25,11.87,12.33,17.84c6.71,9.83,13.47,19.62,20.05,29.54
		c12.01,18.1,23.81,36.35,35,54.97c3.66,6.09,7.29,12.21,10.92,18.32C236.53,156.73,237.57,157.28,237.01,158.46z"/>
	<path class="st3" d="M32.57,24.27c-0.07-0.09-0.14-0.17-0.21-0.26c0.42-0.42,0.97-0.32,1.47-0.32c1.88-0.02,3.76-0.04,5.64,0
		c5.8,0.11,11.58-0.32,17.36-0.53c5.86-0.21,11.71-0.63,17.57-0.95c6.02-0.33,12.03-0.74,18.04-1.2c5.41-0.42,10.82-0.86,16.23-1.34
		c3.26-0.28,6.52-0.52,9.8-0.59c4.23-0.09,8.47-0.21,12.7-0.2c0.68,0,1.35-0.16,2.02-0.24c1.36-0.15,2.21,0.36,2.88,1.59
		c2.17,3.96,4.48,7.84,6.81,11.72c6.55,10.9,13.18,21.74,19.82,32.58c9.19,15,18.64,29.83,28.02,44.71
		c4.6,7.3,9.21,14.61,13.9,21.86c0.26,0.4,0.51,0.81,0.87,1.14c0.73,3.38,2.93,5.96,4.82,8.71c1.32,1.92,1.31,2.08-0.89,2.83
		c-1.66,0.56-3.35,1.05-4.97,1.73c-0.39,0.16-0.83,0.26-1.18,0.82c1.56,0.62,3.12,0.78,4.68,0.96c2.02,0.23,4.05,0.37,6.06-0.14
		c0.27-0.07,0.56-0.02,0.81,0.13c1.04,1.31,2.03,2.66,2.66,4.23c0.24,0.6,0.56,1.14,0.91,1.67c0.75,1.14,0.63,1.43-0.77,1.67
		c-1.57,0.28-3.15,0.48-4.72,0.73c-0.94,0.15-1.86,0.43-2.82,0.49c-0.61-0.02-1.22,0.14-1.83,0.04c-0.16,0.04,0.03,0.23,0.03,0.07
		c0-0.04,0.03-0.06,0.1-0.06c0.16,0,0.32,0.01,0.43,0.16c-0.1,0.47-0.51,0.45-0.85,0.49c-4.56,0.53-9.13,1-13.67,1.7
		c-5.69,0.87-11.39,1.61-17.1,2.3c-5.27,0.63-10.55,1.22-15.83,1.81c-6.11,0.68-12.22,1.39-18.34,2.04
		c-4.89,0.52-9.77,1.04-14.64,1.73c-1.02,0.15-1.72-0.18-2.26-1.13c-6.97-12.04-14.17-23.94-21.13-35.99
		c-6.57-11.36-13.74-22.33-20.79-33.38C73.71,79.45,62.99,63.2,52.74,46.65c-4.32-6.97-8.61-13.95-13.11-20.8
		c-0.62-0.94-1.31-1.39-2.45-1.31c-1.07,0.08-2.16,0.02-3.24,0.01C33.46,24.56,32.97,24.61,32.57,24.27z"/>
	<path class="st4" d="M34.53,103.21c0.5-3.14,0.99-6.28,1.49-9.42c1.03-6.52,2.24-13.01,3.54-19.48c1.39-6.88,3.14-13.66,5.32-20.33
		c0.06-0.19,0.16-0.36,0.33-0.72c1.13,1.79,2.19,3.45,3.23,5.12c4.61,7.38,9.22,14.75,13.82,22.13
		c5.93,9.52,11.85,19.04,17.78,28.55c4.2,6.74,8.41,13.46,12.62,20.2c3.63,5.82,7.24,11.65,10.89,17.47
		c0.43,0.69,0.29,1.24-0.05,1.89c-2.48,4.88-4.86,9.81-7.07,14.81c-2.25,5.08-4.18,10.27-5.99,15.51c-1.12,3.24-2.22,6.47-3.33,9.71
		c-0.68,0.01-0.78-0.61-1.02-1.01c-2.56-4.43-5.18-8.83-7.77-13.24c-4.96-8.45-10-16.85-15.11-25.21
		c-4.48-7.34-8.96-14.67-13.49-21.98c-4.76-7.68-9.55-15.35-14.33-23.01C35.14,103.84,34.91,103.46,34.53,103.21z"/>
	<path class="st5" d="M205.39,132.24c-0.56,0.3-0.56-0.24-0.72-0.49c-6.39-10.06-12.8-20.11-19.17-30.19
		c-5.71-9.03-11.4-18.07-17.05-27.14c-4.36-7-8.66-14.05-12.96-21.09c-4.67-7.66-9.33-15.32-13.96-23
		c-2.06-3.42-4.09-6.85-5.99-10.35c-0.79-1.46-1.95-1.01-2.99-0.92c-0.83,0.07-1.66,0.18-2.5,0.15c-5.07-0.16-10.14,0.22-15.21,0.3
		c-3.29,0.05-6.56,0.58-9.85,0.87c-2.22,0.2-4.44,0.35-6.66,0.52c-4.04,0.31-8.08,0.63-12.13,0.93c-1.27,0.1-2.54,0.11-3.81,0.22
		c-3.45,0.28-6.92,0.34-10.38,0.54c-4.92,0.29-9.84,0.64-14.77,0.93c-1.91,0.11-3.82,0.1-5.73,0.22
		c-6.38,0.41-12.78,0.27-19.17,0.28c-0.74-0.96-1.51-1.89-1.87-3.08c0.93-0.3,1.87-0.16,2.81-0.09c0.51,0.03,1.03,0.12,1.5-0.18
		c0.62-0.24,1.25-0.18,1.87-0.04c0.74-0.01,1.49,0.16,2.2-0.2c0.7-0.24,1.41-0.17,2.11-0.05c0.66,0,1.33,0.13,1.94-0.22
		c0.79-0.2,1.58-0.15,2.37-0.03c0.5-0.02,1.02,0.13,1.49-0.18c0.29-0.26,0.65-0.09,0.97-0.14c0.54,0.04,1.08-0.08,1.61,0.08
		c0.64-0.27,1.32-0.11,1.98-0.23c0.81-0.25,1.66,0.09,2.46-0.2c1.27-0.06,2.55,0.19,3.79-0.23c2.3-0.13,4.58-0.56,6.9-0.3
		c0.43,0.03,0.87,0.09,1.26-0.18c0.93-0.26,1.87-0.16,2.82-0.06c0.43,0.03,0.87,0.1,1.27-0.17c0.77-0.26,1.55-0.17,2.33-0.07
		c0.59,0.03,1.19,0.14,1.75-0.17c0.69-0.29,1.39-0.15,2.09-0.07c0.58,0.02,1.16,0.17,1.7-0.18c0.71-0.26,1.42-0.16,2.14-0.05
		c0.57-0.01,1.17,0.16,1.7-0.2c0.79-0.24,1.58-0.16,2.38-0.05c0.49-0.03,1.01,0.15,1.46-0.21c0.95-0.22,1.9-0.14,2.85-0.04
		c0.33-0.07,0.67-0.14,1-0.21c0.94-0.18,1.89-0.14,2.84-0.03c1.11-0.41,2.32,0.04,3.42-0.41c0.41-0.29,0.88-0.07,1.31-0.15
		c0.13-0.03,0.25-0.06,0.37-0.09c0.51-0.06,1.03,0.03,1.53-0.14c0.59,0,1.18,0,1.77-0.12c0.54-0.02,1.09,0.04,1.62-0.12
		c1.55,0.11,3.07-0.47,4.63-0.16c0.17-0.02,0.35-0.03,0.52-0.05c0.84-0.38,1.72-0.33,2.6-0.2c0.51,0.02,1.03,0.11,1.51-0.17
		c0.46-0.25,0.92-0.19,1.39-0.04c0.43,0.01,0.86,0.04,1.26-0.18c0.69-0.26,1.39-0.21,2.09-0.07c0.35,0.03,0.67-0.02,0.97-0.21
		c0.71-0.22,1.43-0.15,2.15-0.04c0.33-0.08,0.66-0.15,0.99-0.23c0.63-0.16,1.26-0.14,1.88-0.01c0.17-0.07,0.34-0.15,0.51-0.22
		c0.62-0.24,1.26-0.03,1.89-0.13c1.91-0.38,3.87-0.32,5.8-0.58c0.79-0.11,1.58-0.14,2.38-0.14c0.13-0.04,0.26-0.07,0.39-0.09
		c0.46-0.04,0.92,0.04,1.37-0.12c0.45,0.01,0.9-0.08,1.34,0.06c0.18-0.02,0.35-0.04,0.53-0.05c0.37-0.19,0.73-0.37,1.16-0.18
		c1.42-0.28,2.02,0.5,2.7,1.66c5.15,8.83,10.64,17.45,16.2,26.03c9.69,14.95,19.37,29.9,29.06,44.85
		c6.56,10.13,13.15,20.24,19.66,30.39c8.65,13.48,17.2,27.02,25.54,40.7c0.06,0.1,0.14,0.19,0.21,0.29
		c-0.64,0.53-1.44,0.25-2.14,0.33c-2.07,0.22-4.13,0.65-6.23,0.55c-0.36-0.04-0.73-0.08-1.05,0.16c-0.29,0.27-0.62,0.17-0.94,0.07
		c-0.46-0.48-0.62-1.11-0.82-1.7c-0.32-0.92-0.91-1.18-1.84-1.07c-1.69,0.21-3.39,0.44-5.1,0.43c-0.44-0.02-0.88-0.02-1.31,0.12
		c-0.32,0.07-0.64,0.1-0.97,0.05c-0.25-0.08-0.53-0.13-0.48-0.5c2.89-0.47,5.78-0.95,8.75-1.44c-1.35-2.38-2.65-4.67-3.94-6.96
		c0.3-0.35,0.72-0.27,1.11-0.31c2.12-0.25,2.98-1.88,1.83-3.69c-1.57-2.45-3.22-4.85-5.04-7.12c-0.9-1.12-1.79-2.24-2.66-3.38
		C208.13,130.44,207.64,130.36,205.39,132.24z"/>
	<path class="st4" d="M210.44,156.02c0.32-0.01,0.63-0.02,0.95-0.02c0.37-0.24,0.84,0.05,1.21-0.21c1.59-0.12,3.18-0.15,4.75-0.39
		c1.93-0.29,2-0.32,2.68,1.51c0.18,0.48,0.33,0.98,0.5,1.46c-0.78,0.32-1.57,0.49-2.41,0.3c-0.42,0.01-0.87-0.14-1.25,0.19
		c-0.21,0.22-0.44,0.16-0.67,0.05c-0.42,0.02-0.87-0.14-1.23,0.2c-0.31,0.22-0.63,0.18-0.94,0.02c-0.97,0.16-1.93,0.33-2.9,0.49
		c-0.39,0.16-0.77,0.14-1.16,0.01c-0.21-0.02-0.39,0.02-0.51,0.21c-1.16,0.13-2.3,0.37-3.48,0.37c-0.57,0.35-1.21,0.18-1.82,0.26
		c-1.98,0.26-3.95,0.61-5.96,0.6c-0.35,0-0.71-0.1-1.01,0.19c-0.28,0.25-0.59,0.16-0.9,0.06c-0.35-0.01-0.71-0.12-1,0.19
		c-0.31,0.21-0.62,0.17-0.94,0.03c-0.25,0.08-0.49,0.16-0.74,0.23c-0.47,0.18-0.95,0.17-1.42,0.01c-0.25,0.08-0.5,0.16-0.75,0.24
		c-0.39,0.15-0.78,0.15-1.17,0c-0.2-0.01-0.38,0.03-0.5,0.21c-0.38,0.26-0.82,0.05-1.22,0.16c-2.3,0.44-4.64,0.61-6.96,0.92
		c-0.78,0.1-1.55,0.45-2.35,0.17c-0.28-0.02-0.56-0.05-0.77,0.18c-0.2,0.22-0.43,0.16-0.66,0.06c-1.46,0.22-2.93,0.38-4.37,0.69
		c-0.48,0.1-0.99-0.07-1.42,0.23c-0.91,0.15-1.8,0.43-2.74,0.37c-0.54,0.34-1.16,0.2-1.74,0.25c-0.48,0.33-1.03,0.2-1.55,0.23
		c-1.65,0.27-3.29,0.66-4.98,0.63c-1.69,0.31-3.37,0.61-5.06,0.92c-2.7,0.53-5.45,0.82-8.16,1.31c-0.23,0.04-0.48,0.04-0.7-0.07
		c-2.01,0.39-4.02,0.78-6.03,1.18c-0.37,0.26-0.84-0.05-1.21,0.22l0.01-0.01c-1.91,0.29-3.79,0.83-5.74,0.76
		c-0.27-0.02-0.55-0.04-0.75,0.21c-0.21,0.2-0.44,0.15-0.68,0.05c-3.21,0.63-6.43,1.25-9.64,1.88c-0.32,0.18-0.64,0.23-0.95-0.04
		c-1.27-3.02-2.82-5.9-4.43-8.75c-3.01-5.35-6.07-10.68-9.17-15.99c-4.23-7.23-8.49-14.44-12.78-21.64
		c-4.66-7.81-9.33-15.61-14.05-23.38c-4.74-7.81-9.5-15.61-14.32-23.36C60.96,69.11,54.5,58.84,48.01,48.6
		c-4.95-7.82-9.99-15.58-14.98-23.37c-0.19-0.3-0.31-0.64-0.46-0.96c1.84-0.01,3.68,0.02,5.52-0.04c0.67-0.02,1.02,0.27,1.35,0.77
		c3.98,6.07,7.83,12.21,11.63,18.39c3.13,5.09,6.31,10.15,9.53,15.19c6.13,9.56,12.32,19.09,18.46,28.64
		c3.92,6.1,7.81,12.22,11.72,18.33c5.13,8.02,10.21,16.08,14.95,24.35c3.88,6.77,7.98,13.43,11.94,20.16
		c2.97,5.05,5.91,10.12,8.8,15.21c0.42,0.74,0.92,0.92,1.65,0.83c2.68-0.34,5.35-0.7,8.03-1.03c1.93-0.24,3.86-0.43,5.79-0.65
		c2.64-0.3,5.28-0.6,7.92-0.89c2.45-0.27,4.89-0.52,7.34-0.79c2.6-0.29,5.2-0.6,7.8-0.9c2.33-0.26,4.65-0.52,6.98-0.78
		c2.29-0.26,4.58-0.51,6.86-0.79c2.87-0.36,5.74-0.73,8.61-1.13c3.69-0.51,7.38-1.08,11.07-1.58c2.36-0.32,4.73-0.51,7.09-0.83
		c1.05-0.14,2.13-0.06,3.15-0.45C209.26,155.76,209.91,156.28,210.44,156.02z"/>
	<path class="st6" d="M220.78,168.24c-0.81,2.17-0.76,4.49-1.2,6.72c-1.27,6.36-3.3,12.44-6.79,17.95
		c-1.57,2.47-3.13,4.97-5.23,7.05c-2.05,0.32-4.12,0.57-6.2,0.56c-0.4-0.09-0.95,0.32-1.2-0.19c-0.2-0.43,0.22-0.81,0.44-1.18
		c0.38-0.61,0.85-1.16,1.22-1.78c0.15-0.26,0.48-0.52,0.27-0.85c-0.17-0.26-0.52-0.12-0.78-0.1c-2.55,0.12-5.09,0.41-7.63,0.62
		c-4.41,0.36-8.82,0.74-13.23,1.09c-4.97,0.39-9.95,0.56-14.92,0.9c-1.83,0.12-3.66,0.12-5.5,0.01c-0.6-0.7,0.08-0.81,0.48-0.93
		c1.03-0.31,2.11-0.42,3.18-0.58c6.51-0.98,13.06-1.73,19.6-2.51c6.56-0.69,13.12-1.28,19.69-1.92c0.77-0.07,1.24-0.39,1.57-1.08
		c1.12-2.35,1.97-4.81,2.93-7.23c0.31-0.79-0.06-0.91-0.72-0.84c-2.67,0.26-5.32,0.57-7.99,0.85c-5.8,0.59-11.61,1.18-17.43,1.59
		c-4.18,0.29-8.36,0.68-12.56,0.66c-0.56,0-1.24,0.22-1.58-0.5c0.08-0.13,0.18-0.22,0.32-0.29c4.61-1.23,9.37-1.6,14.07-2.26
		c8.55-1.19,17.14-2.02,25.72-2.93c1.13-0.12,1.86-0.57,2.19-1.68c0.16-0.54,0.38-1.05,0.54-1.59c0.32-1.09,0.22-1.27-0.96-1.25
		c-4.43,0.05-8.86,0.18-13.28,0.42c-2.15,0.12-4.31,0.15-6.46,0.21c-3.15,0.09-6.31,0.21-9.45,0.36c-5.06,0.23-10.13,0.39-15.19,0.6
		c-3.91,0.16-7.82,0.47-11.73,0.28c-0.28-0.01-0.56-0.01-0.83-0.12c-0.7-0.62,0.12-0.62,0.35-0.87c0.13-0.06,0.26-0.12,0.4-0.16
		c4.88-1.11,9.83-1.72,14.78-2.41c5.74-0.8,11.51-1.29,17.27-1.84c3.77-0.36,7.56-0.62,11.34-0.83c4.9-0.28,9.8-0.49,14.71-0.69
		c0.75-0.03,1.16-0.33,1.38-1.05c0.49-1.56,0.95-3.13,1.45-4.7c0.17-0.55,0.4-1.05,0.96-1.3c0.32-0.09,0.68,0.08,0.97-0.18
		c0.93-0.3,1.86-0.57,2.86-0.37c0.2,0.03,0.36-0.04,0.49-0.2c0.4-0.18,0.8-0.2,1.2,0.01c0.16,0.8,0.31,1.59,0.47,2.39
		C220.97,166.81,220.9,167.52,220.78,168.24z"/>
	<path class="st4" d="M95.97,204.73c2.32-6.8,4.58-13.61,6.96-20.39c2.6-7.42,5.6-14.68,8.12-22.13c0.22-0.64,0.38-1.3,0.6-2.07
		c1.12,1.05,1.71,2.37,2.49,3.53c2.06,3.04,4,6.16,6.03,9.22c0.43,0.64,0.46,1.14,0.17,1.86c-4.36,10.88-8.68,21.78-13,32.68
		c-0.79,2-1.24,4.11-1.76,6.2c0.2,0.61-0.14,1.12-0.31,1.66c-0.55,0.89-0.55,2-1.16,2.87c-1.12-1.54-1.97-3.25-2.99-4.85
		C99.34,210.49,97.87,207.48,95.97,204.73z"/>
	<path class="st7" d="M160.1,198.93c0.41-0.21,0.86-0.15,1.29-0.16c8.01-0.25,16-0.67,23.98-1.41c5.75-0.53,11.51-0.98,17.26-1.46
		c0.07-0.01,0.15,0.04,0.31,0.09c-0.59,1.63-1.83,2.85-2.71,4.37c0.42,0.03,0.76,0.06,1.11,0.09c0.07,0.09,0.05,0.16-0.07,0.19
		c-0.15,0.02-0.31,0.03-0.46,0.05c-0.78,0.14-1.57,0.13-2.35,0.01c-0.28-0.03-0.55-0.04-0.78,0.17c-0.62,0.25-1.25,0.19-1.89,0.04
		c-0.19,0-0.37,0.02-0.48,0.2c-0.47,0.25-0.95,0.18-1.43,0.05c-0.33,0.08-0.66,0.17-1,0.25c-0.55,0.12-1.09,0.13-1.64-0.01
		c-0.21-0.03-0.37,0.03-0.49,0.22c-3.04,0.24-6.06,0.57-9.1,0.85c-1.34,0.12-2.7,0.14-4.03,0.4c-0.42,0.08-0.84,0.11-1.26-0.02
		c-0.58,0-1.18-0.15-1.73,0.17c-0.28,0.25-0.59,0.14-0.9,0.08c-0.43-0.02-0.87-0.13-1.26,0.17c-0.37,0.25-0.76,0.15-1.15,0.07
		c-0.33,0.07-0.66,0.13-0.98,0.2c-0.48,0.19-0.96,0.16-1.44,0.02c-0.33,0.08-0.66,0.17-0.99,0.25c-0.47,0.15-0.93,0.13-1.4,0.01
		c-0.29-0.05-0.52,0.1-0.76,0.23c-0.54,0.17-1.09,0.12-1.63,0.03c-0.21-0.04-0.39,0.01-0.51,0.2c-0.54,0.24-1.12,0.03-1.68,0.13
		c-1.83,0.39-3.71,0.48-5.56,0.67c-1.65,0.17-3.3,0.57-4.98,0.44c-0.35-0.02-0.7-0.1-1,0.17c-0.28,0.25-0.6,0.14-0.91,0.08
		c-0.25,0.06-0.5,0.12-0.75,0.19c-0.48,0.19-0.95,0.16-1.43,0.02c-0.25,0.08-0.49,0.16-0.74,0.24c-0.39,0.15-0.79,0.15-1.18,0
		c-0.25,0.08-0.5,0.17-0.75,0.25c-0.47,0.14-0.93,0.13-1.4,0.01c-0.2-0.03-0.38,0-0.5,0.18c-0.51,0.29-1.07,0.07-1.61,0.15
		c-1,0.37-2.07,0.27-3.1,0.44c-0.5,0.08-1,0.12-1.49,0.26c-0.4,0.02-0.81,0-1.21,0.01c-0.71,0.17-1.43,0.37-2.17,0.16
		c-0.28-0.04-0.55-0.06-0.77,0.16c-0.2,0.24-0.44,0.16-0.67,0.06c-0.99-0.05-1.92,0.34-2.89,0.43c-0.38,0.24-0.78,0.14-1.17,0.07
		c-0.81,0.15-1.62,0.29-2.43,0.44c-1.12-0.01-2.2,0.56-3.34,0.26c-0.2-0.02-0.37,0.03-0.49,0.21c-1.1,0.1-2.17,0.39-3.28,0.37
		c-1.53,0.35-3.09,0.46-4.65,0.59c-0.51,0.25-1.08,0.36-0.78-0.47c0.94-2.57,1.97-5.1,2.96-7.64c1.41,0.26,2.78-0.12,4.16-0.27
		c5.15-0.58,10.31-0.98,15.48-1.35c3.89-0.28,7.79-0.49,11.68-0.84c0.15,0.04-0.02-0.07,0.11,0.01c1.28,0.76,2.51,1.02,3.59-0.34
		c0.04-0.05,0.15-0.02,0.23-0.02c2.6-0.01,5.17-0.49,7.77-0.54C159.17,198.77,159.64,198.72,160.1,198.93z"/>
	<path class="st4" d="M148.73,211.67c0.42-0.01,0.87,0.14,1.23-0.2c0.31-0.21,0.62-0.18,0.94-0.02c0.35,0.04,0.67-0.08,0.97-0.24
		c0.47-0.18,0.95-0.17,1.42-0.01c0.08-0.07,0.17-0.14,0.25-0.2c0.7-0.4,1.55,0.15,2.23-0.36c2.68-0.16,5.33-0.56,7.99-0.87
		c0.59-0.07,1.17-0.2,1.76-0.02c0.35,0.01,0.71,0.1,1-0.2c0.21-0.2,0.44-0.15,0.67-0.05c0.43,0,0.87,0.14,1.25-0.19
		c0.2-0.22,0.43-0.15,0.66-0.06c2.02-0.29,4.05-0.46,6.04-0.94c0.39-0.17,0.78-0.15,1.17-0.01c0.21,0.02,0.39-0.02,0.51-0.2
		c1.01-0.16,2.02-0.37,3.05-0.39c1.68-0.28,3.35-0.63,5.07-0.61c1.61-0.23,3.21-0.47,4.82-0.7c1.1,0.37,2.1,0.95,3.11,1.5
		c0.57,0.3,0.78,0.71,0.08,1.13c-2.83,0.71-5.74,1.05-8.6,1.6c-11.31,2.15-22.63,4.22-33.87,6.74c-1.32,0.3-2.67,0.48-3.97,0.86
		c-1,0.23-2.04,0.29-2.98,0.77c-2.79,0.39-5.59,0.7-8.36,1.18c-0.27,0.05-0.56,0.07-0.82-0.06c-0.81,0.14-1.62,0.29-2.43,0.43
		c-0.31,0.21-0.62,0.18-0.94,0.03c-0.56,0.16-1.12,0.31-1.68,0.47c-0.55,0.14-1.11,0.2-1.66,0.03c-0.09,0.06-0.17,0.12-0.26,0.18
		c-0.43,0.31-0.93,0.06-1.39,0.16c-1.48,0.39-3.01,0.45-4.52,0.69c-0.35,0.06-0.7,0.09-1.04,0.21c-0.4,0.05-0.8,0.11-1.2-0.05
		c-0.35-0.02-0.72-0.1-1.01,0.19c-0.13,0.17-0.28,0.15-0.44,0.04c-1.97,0.1-3.84,0.78-5.8,0.96c-0.52,0.21-1.07,0.03-1.6,0.11
		c-0.87,0.39-1.84,0.18-2.74,0.42c-0.16,0.04-0.24-0.14-0.16-0.32c0.81-2.35,1.61-4.7,2.44-7.03c0.19-0.52,0.3-1.22,1.13-1.15
		c0.95-0.6,2.03-0.25,3.05-0.41c2.12-0.33,4.28-0.38,6.42-0.64c0.27-0.03,0.56-0.06,0.82,0.08c0.43,0,0.88,0.13,1.26-0.18
		c0.28-0.26,0.59-0.16,0.9-0.06c0.58-0.03,1.19,0.18,1.73-0.19c0.13-0.17,0.28-0.16,0.44-0.04c0.49-0.05,1.02,0.16,1.46-0.21
		c0.39-0.21,0.79-0.17,1.18-0.02c0.41-0.08,0.81-0.16,1.22-0.24c0.47-0.17,0.94-0.16,1.41-0.01c0.2,0.01,0.38-0.04,0.5-0.22
		c4.34-0.49,8.68-1,13.03-1.32c0.61-0.07,1.19-0.4,1.83-0.14c0.58-0.03,1.19,0.17,1.73-0.19
		C148.27,211.5,148.5,211.56,148.73,211.67z"/>
	<path class="st4" d="M27.58,25.19c2.31,3.64,4.61,7.28,6.92,10.91c0.22,0.34,0.28,0.59,0.05,0.97c-2.9,5.06-4.63,10.58-6.26,16.14
		c-2.1,7.16-3.28,14.5-4.29,21.87c-0.4,2.91-0.94,5.81-1.05,8.76c-0.01,0.14-0.13,0.28-0.19,0.42c-1.4-2.83-3.18-5.43-4.82-8.12
		c-0.54-0.89-1.15-1.75-1.03-2.87c0.84-5.37,2.03-10.67,3.09-16c1.81-9.13,3.56-18.27,5.83-27.31c0.29-1.16,0.61-2.32,0.98-3.46
		C26.97,26.02,27.07,25.48,27.58,25.19z"/>
	<path class="st4" d="M26.37,90.49c0.49-3.26,0.97-6.52,1.47-9.78c0.69-4.52,1.4-9.03,2.11-13.54c1.15-7.32,2.74-14.54,4.8-21.66
		c0.58-1.99,1.16-3.97,1.8-6.16c0.76,1.2,1.43,2.27,2.09,3.33c1.54,2.47,3.06,4.96,4.63,7.41c0.28,0.44,0.3,0.75,0.05,1.18
		c-4.39,7.58-6.77,15.89-8.77,24.32c-1.21,5.07-2.08,10.2-2.84,15.36c-0.26,1.77-0.37,3.55-0.79,5.29
		c-0.58,0.11-0.77-0.36-0.97-0.71c-0.99-1.81-2.33-3.42-3.18-5.31C26.65,90.34,26.61,90.57,26.37,90.49z"/>
	<path class="st8" d="M214.76,164.45c-0.71,0.91-0.77,2.07-1.15,3.11c-0.42,1.16-0.72,2.36-1.05,3.55
		c-0.15,0.54-0.46,0.75-1.04,0.76c-2.63,0.05-5.27,0.07-7.89,0.25c-4.6,0.32-9.22,0.4-13.81,0.9c-3.16,0.34-6.35,0.42-9.51,0.79
		c-4.02,0.47-8.06,0.81-12.08,1.36c-4.8,0.65-9.6,1.35-14.37,2.21c-0.43,0.08-0.86,0.15-1.29,0.23c-1.82-1.16-3.73-2.15-5.61-3.21
		c-0.34-0.19-1.08-0.21-0.71-0.97c0.89-0.12,1.77-0.33,2.68-0.26c0.85-0.45,1.84-0.01,2.7-0.43c0.39-0.05,0.79-0.08,1.18,0.03
		c0.17-0.02,0.34-0.04,0.51-0.06c0.38-0.16,0.75-0.37,1.18-0.15c0.34,0.02,0.68,0.03,0.99-0.16c0.37-0.21,0.76-0.24,1.16-0.1
		c1.04-0.21,2.14-0.05,3.15-0.46c0.47-0.15,0.94-0.13,1.41-0.02c0.17-0.07,0.34-0.15,0.51-0.22c0.47-0.15,0.94-0.13,1.41-0.02
		c0.21,0.04,0.4,0.02,0.55-0.15c2.53-0.36,5.05-0.79,7.61-0.8c0.35,0.04,0.7,0.04,1.01-0.17c0.28-0.25,0.6-0.14,0.9-0.08
		c0.36,0.05,0.72,0.04,1.05-0.15c0.26-0.29,0.57-0.15,0.87-0.1c0.81-0.09,1.64-0.06,2.41-0.41c0.39-0.24,0.79-0.17,1.2-0.04
		c0.32-0.08,0.65-0.16,0.97-0.24c0.39-0.17,0.78-0.12,1.18-0.03c0.09-0.06,0.17-0.11,0.26-0.17c0.47-0.24,0.95-0.16,1.43-0.06
		c0.21,0.03,0.39,0,0.54-0.17c2.23-0.45,4.5-0.62,6.74-0.94c0.53-0.07,1.05-0.29,1.59-0.1c2.37-0.34,4.74-0.64,7.09-1.03
		c1.16-0.19,2.37-0.14,3.48-0.6c0.39-0.2,0.79-0.14,1.19-0.04c0.21,0.04,0.39,0,0.52-0.18c0.37-0.25,0.77-0.15,1.16-0.07
		c0.21,0.04,0.38-0.01,0.52-0.18c0.34-0.27,0.75-0.07,1.11-0.15c0.48-0.16,0.97-0.34,1.49-0.16
		C210.27,165.19,212.51,164.82,214.76,164.45z"/>
	<path class="st9" d="M34.53,103.21c0.58-0.34,0.67,0.19,0.86,0.5c2.12,3.37,4.25,6.74,6.35,10.13c3.54,5.69,7.08,11.37,10.58,17.07
		c4.84,7.88,9.66,15.76,14.47,23.66c3.04,5.01,6.06,10.03,9.05,15.07c3.41,5.76,6.77,11.55,10.16,17.33c0.34,0.58,0.73,1.13,1.1,1.7
		c-0.24,0.91-0.48,1.81-0.79,2.97c-1.99-3.35-3.83-6.47-5.7-9.58c-6.91-11.49-13.81-22.99-20.82-34.42
		c-7.85-12.79-15.8-25.5-23.82-38.19c-0.06-0.1-0.12-0.21-0.2-0.3C34.21,107.41,33.71,105.45,34.53,103.21z"/>
	<path class="st5" d="M146.36,217.94c6.44-1.44,12.88-2.85,19.36-4.09c6.55-1.26,13.11-2.53,19.67-3.76
		c2.58-0.48,5.17-0.87,7.76-1.3c0.6-0.44,1.3-0.59,2.01-0.71c6.34-1.05,12.7-1.96,19.13-2.31c1.87-0.1,3.75-0.05,5.61-0.32
		c0.84-0.12,1.02-0.41,0.56-1.16c-0.98-1.6-1.86-3.26-2.67-4.96c-0.24-0.5-0.52-0.99-0.43-1.59c0.38-0.99,0.77-1.98,1.22-3.13
		c0.31,0.48,0.56,0.86,0.79,1.25c2.19,3.72,4.69,7.23,7.19,10.73c0.22,0.31,0.64,0.58,0.14,0.99c-0.2,0.22-0.43,0.15-0.66,0.06
		c-0.44-0.03-0.88-0.06-1.29,0.17c-0.27,0.27-0.57,0.16-0.87,0.08c-0.27-0.03-0.54-0.04-0.76,0.18c-0.38,0.25-0.77,0.16-1.16,0.05
		c-1.76,0.31-3.52,0.61-5.28,0.92c-1.27,0.12-2.53,0.38-3.81,0.39c-0.55,0.32-1.12,0.28-1.71,0.13c-0.28-0.04-0.55-0.02-0.77,0.19
		c-0.37,0.24-0.76,0.14-1.14,0.06c-2.44,0.37-4.88,0.74-7.32,1.12c-0.45,0.07-0.89,0.18-1.34,0.27c-2.24,0.24-4.43,0.87-6.7,0.76
		c-0.21-0.03-0.4,0-0.54,0.17c-0.36,0.28-0.75,0.16-1.13,0.08c-0.28-0.05-0.56-0.05-0.78,0.18c-0.2,0.22-0.43,0.15-0.66,0.06
		c-1.56,0-3.05,0.49-4.58,0.67c-0.39,0.22-0.78,0.15-1.18,0.04c-0.25,0.07-0.5,0.15-0.75,0.22c-0.39,0.17-0.78,0.14-1.17,0.02
		c-1,0.43-2.15,0.14-3.12,0.66c-2.57,0.19-5.09,0.81-7.68,0.79c-0.28-0.04-0.56-0.04-0.8,0.16c-0.27,0.27-0.58,0.15-0.88,0.08
		c-0.36-0.04-0.72-0.05-1.05,0.16c-0.2,0.24-0.42,0.17-0.65,0.06c-0.34,0-0.7-0.05-0.99,0.2c-0.3,0.22-0.61,0.16-0.93,0.04
		c-0.25,0.07-0.49,0.15-0.74,0.22c-0.47,0.19-0.94,0.14-1.41,0.03c-0.09,0.06-0.18,0.13-0.27,0.19c-0.47,0.21-0.94,0.16-1.42,0.04
		c-0.09,0.06-0.18,0.11-0.26,0.17c-0.32,0.33-0.78,0.03-1.13,0.24c-1.16,0.26-2.36,0.24-3.51,0.5c-0.68,0.21-1.43,0.02-2.1,0.34
		c-0.39,0.02-0.77,0.09-1.15-0.06c-0.36-0.04-0.72-0.07-1.04,0.17c-0.19,0.25-0.42,0.16-0.65,0.07c-0.43-0.02-0.87-0.07-1.26,0.18
		c-0.13,0.18-0.28,0.16-0.43,0.04c-0.35,0-0.7-0.04-1,0.2c-0.29,0.24-0.6,0.17-0.92,0.05c-0.24,0.07-0.49,0.15-0.73,0.22
		c-0.39,0.2-0.78,0.15-1.18,0.03c-0.08-0.01-0.16-0.01-0.24-0.02C147.15,218.19,146.63,218.74,146.36,217.94z"/>
	<path class="st4" d="M89.5,193.69c2.06-5.82,4.13-11.64,6.19-17.46c2.26-6.39,4.9-12.63,7.47-18.9c0.89-2.16,1.81-4.31,2.79-6.63
		c1.2,1.93,2.31,3.72,3.42,5.5c0.17,0.28,0.26,0.53,0.03,0.87c-2.09,3.24-3.42,6.85-4.95,10.34c-3.24,7.38-5.93,14.97-8.36,22.65
		c-0.96,3.04-1.86,6.09-2.79,9.14c-0.71-0.02-0.8-0.67-1.08-1.1C91.3,196.65,90.59,195.06,89.5,193.69z"/>
	<path class="st10" d="M146.13,173.59c1.87,1.04,3.75,2.08,5.62,3.12c0.37,0.21,0.85,0.32,0.83,0.89c0,0,0.01,0.02,0.01,0.02
		c-0.58,0.07-1.07,0.42-1.65,0.46c-0.29,0.02-0.59-0.02-0.76,0.02c1.41-0.05,2.95,0.06,4.47,0.16c1.36,0.1,2.44,1.06,3.55,1.81
		c0.21,0.14,0.27,0.39,0.02,0.6c-1.54,0.72-3.22,0.47-4.83,0.62c-4.09,0.38-8.19,0.72-12.27,1.12c-5.76,0.56-11.52,1.11-17.25,1.93
		c-0.52,0.07-1.39,0.4-1.3-0.75c0.72-2.58,1.76-5.06,2.36-7.68c0.41-0.59,0.97-0.28,1.48-0.25c0.43,0.04,0.86,0.11,1.25-0.17
		c0.45-0.25,0.92-0.14,1.39-0.07c0.44,0.04,0.88,0.11,1.28-0.15c0.36-0.29,0.75-0.15,1.13-0.08c0.43,0.02,0.87,0.09,1.27-0.16
		c0.36-0.29,0.75-0.16,1.13-0.08c0.36,0.02,0.71,0.04,1.03-0.16c0.27-0.27,0.58-0.14,0.88-0.09c0.41-0.06,0.81-0.12,1.22-0.19
		c0.39-0.19,0.79-0.14,1.19-0.03c0.25-0.08,0.5-0.16,0.75-0.24c0.47-0.14,0.94-0.15,1.42,0c0.25-0.08,0.5-0.17,0.75-0.25
		c0.54-0.15,1.08-0.1,1.63-0.03c0.09-0.05,0.18-0.1,0.27-0.15c0.51-0.29,1.07-0.07,1.6-0.15
		C145.1,173.42,145.6,173.24,146.13,173.59z"/>
	<path class="st11" d="M122.58,183.59c0.15,0.73,0.72,0.53,1.15,0.46c3.95-0.65,7.93-1.06,11.91-1.42c4.54-0.41,9.06-0.97,13.59-1.4
		c2.49-0.24,4.99-0.33,7.48-0.51c0.55-0.04,1.1-0.15,1.64-0.23c1.25-0.66,2.65-0.48,3.97-0.57c6.21-0.45,12.42-0.71,18.64-0.96
		c3.67-0.14,7.35-0.05,11.02-0.03c0.28,0,0.56,0.03,0.82,0.15c0.42,0.2,0.43,0.43,0.04,0.66c-0.5,0.29-1.06,0.33-1.61,0.4
		c-9.23,1.16-18.48,2.21-27.71,3.32c-2.38,0.25-4.76,0.54-7.14,0.85c-0.44,0.06-0.87,0.14-1.31,0.04c-0.28-0.07-0.57-0.21-0.68-0.46
		c-0.54-1.25-1.55-1.25-2.69-1.14c-4.13,0.37-8.24,0.82-12.37,1.2c-0.6,0.05-0.77,0.26-0.56,0.84c0.18,0.5,0.53,1.02,0.11,1.58
		c-1.92,0.52-3.92,0.63-5.88,0.89c-3.62,0.49-7.25,0.94-10.89,1.36c-0.47,0.05-0.95,0.19-1.36-0.18
		C121.35,186.81,121.79,185.13,122.58,183.59z"/>
	<path class="st5" d="M27.58,25.19c-2.42,7.72-3.89,15.66-5.52,23.57c-1.54,7.43-2.98,14.88-4.46,22.33
		c-0.15,0.78-0.25,1.57-0.37,2.35c-0.18,0.17-0.26,0.86-0.58,0.36c-0.95-1.46-2.36-2.72-2.3-4.68c0.91-4.12,1.82-8.25,2.74-12.37
		c2.55-11.39,4.93-22.81,7.15-34.27c0.08-0.4,0.02-0.94,0.56-1.08c0.64-0.16,0.78,0.43,1.02,0.81C26.41,23.2,26.99,24.2,27.58,25.19
		z"/>
	<path class="st10" d="M120.76,188.43c3.62-0.46,7.24-0.98,10.86-1.37c2.45-0.26,4.87-0.8,7.34-0.83c0.33,0,0.49,0.24,0.61,0.48
		c0.76,1.43,1.6,2.81,2.41,4.21c0.2,0.35,0.35,0.71,0.22,1.13c-0.26,0.53-0.76,0.51-1.24,0.55c-7.12,0.65-14.21,1.41-21.18,3.11
		c-0.59,0.14-1.26,0.45-1.69-0.34C119.17,193.13,119.82,190.73,120.76,188.43z"/>
	<path class="st9" d="M217.37,197.75c1.17,2.31,2.27,4.65,3.67,6.84c0.53,0.82,0.42,1.06-0.64,1.15c-2.57,0.21-5.15,0.25-7.72,0.45
		c-3.91,0.31-7.81,0.71-11.68,1.33c-2.62,0.42-5.23,0.85-7.85,1.27c0.3-0.66-0.35-0.58-0.61-0.76c-0.88-0.6-2.02-0.76-2.74-1.63
		c1.04-0.22,2.08-0.44,3.12-0.66c0.33-0.4,0.86,0.01,1.21-0.3l-0.02,0.01c1.52-0.09,3-0.63,4.54-0.53c0.28,0.03,0.55,0.03,0.77-0.19
		c0.2-0.21,0.43-0.14,0.66-0.07c1.8-0.23,3.58-0.59,5.32-1.11c1.58-0.39,3.16-0.83,4.78-1.03c2.07-0.67,3.94-1.8,5.89-2.73
		C216.84,199.45,216.81,198.37,217.37,197.75z"/>
	<path class="st10" d="M147.32,199.93c-3.15,0.41-6.33,0.48-9.5,0.74c-3.68,0.3-7.36,0.56-11.04,0.88
		c-3.56,0.31-7.1,0.71-10.65,1.15c-0.56,0.07-0.46-0.26-0.49-0.56c0.39-0.98,0.78-1.95,1.17-2.93c0.4-0.36,0.88-0.51,1.41-0.58
		c5.69-0.74,11.41-1.31,17.11-1.92c2.54-0.27,5.07-0.54,7.6-0.87c0.56-0.07,1.11-0.14,1.66-0.02
		C146.03,196.85,147,198.18,147.32,199.93z"/>
	<path class="st7" d="M144.9,196.09c-2.68,0.27-5.36,0.53-8.03,0.81c-1.85,0.19-3.69,0.45-5.54,0.63
		c-3.39,0.33-6.77,0.66-10.14,1.15c-1.45,0.21-2.91,0.35-4.36,0.53c0.42-1.28,0.85-2.56,1.27-3.84c0.35,0.25,0.71,0.25,1.13,0.14
		c4.95-1.28,9.99-2.03,15.08-2.56c2.32-0.24,4.63-0.6,6.97-0.69c0.38-0.02,0.73-0.04,0.8-0.52c1.05,0.48,1.38,1.55,1.92,2.42
		C144.36,194.75,145.13,195.21,144.9,196.09z"/>
	<path class="st3" d="M14.34,69.12c0.41,1.74,1.65,3.03,2.46,4.56c0.11,0.2,0.26-0.2,0.43-0.24c-0.05,0.61,0.12,1.13,0.46,1.67
		c1.55,2.44,3.03,4.93,4.56,7.38c0.35,0.56,0.58,1.11,0.52,1.78c-0.14,1.21-0.27,2.43-0.41,3.64c-0.08,0.02-0.17,0.04-0.25,0.06
		c-1.45-2.22-2.89-4.44-4.34-6.66c-1.37-2.1-2.73-4.2-4.13-6.28c-0.38-0.57-0.53-1.07-0.32-1.77C13.73,71.9,14.01,70.5,14.34,69.12z
		"/>
	<path class="st3" d="M95.97,204.73c0.18-0.07,0.36-0.18,0.5,0.07c2.52,4.33,5.05,8.67,7.57,13c0.06,0.1,0.05,0.23,0.07,0.35
		c-0.18,0.59-0.82,0.71-1.18,1.15c-0.32,0.4-0.4-0.08-0.54-0.25c-0.99-1.23-1.66-2.66-2.07-4.14c-0.53-1.97-2.33-2.99-3.13-4.72
		c-0.27-0.57-0.59-1.14-0.99-1.63C95.19,207.32,95.24,206.06,95.97,204.73z"/>
	<path class="st3" d="M26.37,90.49c0.32-0.8,0.59-0.33,0.83,0.04c1.07,1.7,2.12,3.41,3.17,5.12c0.15,0.24,0.27,0.49,0.54,0.6
		c0.01,1.41-0.23,2.79-0.55,4.45c-1.56-2.39-3.01-4.52-4.34-6.71c-0.48-0.79,0.17-1.7,0.16-2.57C26.18,91.11,26.3,90.8,26.37,90.49z
		"/>
	<path class="st12" d="M89.5,193.69c0.77-0.13,0.8,0.58,1.05,0.98c0.94,1.5,1.69,3.11,2.75,4.54c-0.32,0.89-0.33,1.86-0.87,2.81
		c-1.18-1.98-2.39-3.88-3.45-5.86C88.54,195.33,89.37,194.53,89.5,193.69z"/>
	<path class="st13" d="M144.68,212.12c-3.84,0.41-7.69,0.83-11.54,1.23c-0.55,0.06-1.11,0.02-1.67,0.02
		c0.63-0.55,1.44-0.31,2.13-0.38c3.69-0.37,7.35-1.01,11.07-1.05l0.08,0.09L144.68,212.12z"/>
	<path class="st14" d="M177.54,202.77c1.92-0.22,3.84-0.54,5.76-0.63c2.49-0.11,4.95-0.63,7.46-0.52c-0.85,0.53-1.83,0.27-2.74,0.39
		c-2.93,0.39-5.89,0.55-8.83,0.81c-0.55,0.05-1.09,0.15-1.64,0.23C177.42,202.96,177.42,202.87,177.54,202.77z"/>
	<path class="st15" d="M151.42,205.5c3.51-0.4,7.03-0.8,10.54-1.2c0.08,0.04,0.1,0.09,0.08,0.13c-0.03,0.04-0.05,0.06-0.08,0.06
		c-0.74,0.5-1.63,0.34-2.42,0.43c-2.25,0.24-4.5,0.46-6.74,0.76C152.35,205.73,151.84,205.85,151.42,205.5z"/>
	<path class="st16" d="M121.37,214.55c-3.43,0.32-6.86,0.64-10.29,0.97c0.13-0.28,0.34-0.43,0.65-0.45c2.84-0.24,5.67-0.5,8.51-0.72
		C120.62,214.31,121.05,214.2,121.37,214.55z"/>
	<path class="st17" d="M134.38,220.12c3.12-0.42,6.24-0.84,9.35-1.26c0.21-0.17,0.43-0.32,0.73-0.25c0.06,0.1,0.06,0.19-0.03,0.28
		c-1.12,0.58-2.37,0.42-3.56,0.65c-1.85,0.36-3.74,0.55-5.61,0.79C134.96,220.36,134.62,220.41,134.38,220.12z"/>
	<path class="st18" d="M179.26,163.48c3.11-0.4,6.23-0.8,9.34-1.19c0.08,0.05,0.11,0.09,0.08,0.14c-0.03,0.04-0.06,0.07-0.08,0.07
		c-1.26,0.48-2.61,0.38-3.91,0.61c-1.43,0.26-2.87,0.42-4.31,0.58C180.01,163.72,179.58,163.82,179.26,163.48z"/>
	<path class="st13" d="M165.53,209.75c-2.64,0.31-5.27,0.64-7.91,0.93c-0.63,0.07-1.27,0.04-1.91,0.05c-0.08,0.09-0.16,0.09-0.24,0
		c1.22-0.46,2.53-0.39,3.8-0.58c1.67-0.25,3.34-0.44,5.02-0.61C164.7,209.5,165.17,209.38,165.53,209.75z"/>
	<path class="st19" d="M132.9,13.89c-2.8,0.24-5.59,0.48-8.39,0.72c-0.08-0.04-0.11-0.09-0.08-0.13c0.03-0.04,0.06-0.06,0.08-0.06
		c1.02-0.52,2.15-0.3,3.22-0.42c1.63-0.17,3.28-0.48,4.94-0.31C132.92,13.56,132.93,13.7,132.9,13.89z"/>
	<path class="st20" d="M222.45,158.21c2.79-0.29,5.58-0.58,8.37-0.87c-0.38,0.69-1.09,0.34-1.62,0.42c-1.9,0.29-3.83,0.46-5.75,0.65
		C223.12,158.44,222.74,158.51,222.45,158.21z"/>
	<path class="st21" d="M147.1,168.28c2.96-0.38,5.88-1.01,8.86-1.24c-1.54,0.68-3.22,0.58-4.82,0.95c-0.96,0.22-1.94,0.33-2.91,0.46
		C147.84,168.51,147.43,168.62,147.1,168.28z"/>
	<path class="st22" d="M172.3,214.86c2.5-0.31,5-0.63,7.51-0.94c0.05-0.01,0.11,0.09,0.17,0.14c-1.54,0.55-3.18,0.53-4.77,0.71
		C174.25,214.89,173.28,215.42,172.3,214.86z"/>
	<path class="st23" d="M171.3,170.61c-2.54,0.27-5.08,0.54-7.61,0.8c0.35-0.68,0.98-0.23,1.46-0.32c1.66-0.3,3.35-0.49,5.03-0.68
		C170.55,170.38,170.97,170.28,171.3,170.61z"/>
	<path class="st24" d="M190.06,168.17c-2.31,0.3-4.6,0.72-6.93,0.84c0.6-0.48,1.34-0.41,2.03-0.51c1.71-0.25,3.42-0.48,5.13-0.72
		C190.35,168,190.24,168.1,190.06,168.17z"/>
	<path class="st25" d="M64.5,18.94c-2.3,0.1-4.6,0.2-6.9,0.3c-0.23-0.03-0.46-0.05-0.7-0.08C59.44,19.26,61.95,18.27,64.5,18.94z"/>
	<path class="st26" d="M201.27,200.64c0.03-0.06,0.05-0.12,0.07-0.19c2.07-0.16,4.14-0.32,6.21-0.48c-0.17,0.3-0.43,0.46-0.77,0.44
		C204.93,200.28,203.12,200.84,201.27,200.64z"/>
	<path class="st27" d="M198.21,161.07c2-0.24,3.99-0.48,5.99-0.72c0.08,0.05,0.11,0.1,0.08,0.15c-0.03,0.05-0.06,0.07-0.08,0.07
		c-1.08,0.38-2.23,0.41-3.35,0.45C199.97,161.06,199.09,161.69,198.21,161.07z"/>
	<path class="st28" d="M193.89,211.96c2.24-0.18,4.44-0.72,6.7-0.76C198.39,211.71,196.19,212.3,193.89,211.96z"/>
	<path class="st29" d="M120.42,222.22c1.43-0.41,2.92-0.46,4.38-0.7c0.38-0.06,0.77-0.13,1.15-0.19c0.08,0.05,0.11,0.09,0.08,0.13
		c-0.03,0.04-0.06,0.06-0.08,0.06c-1.29,0.5-2.68,0.44-4.02,0.7c-0.49,0.1-1,0.17-1.5,0.26C120.3,222.4,120.3,222.31,120.42,222.22z
		"/>
	<path class="st30" d="M106.74,16.06c-1.58,0.1-3.16,0.2-4.74,0.3c-0.31,0.15-0.63,0.09-0.95,0.06c-0.12-0.09-0.14-0.2-0.06-0.32
		c1.55,0.16,3.07-0.33,4.61-0.24C105.99,15.87,106.41,15.72,106.74,16.06z"/>
	<path class="st31" d="M134.13,170.43c1.93-0.15,3.8-0.71,5.74-0.75C138,170.26,136.11,170.68,134.13,170.43z"/>
	<path class="st32" d="M161.02,166.12c1.67-0.24,3.35-0.48,5.02-0.72c0.08,0.05,0.1,0.1,0.07,0.14c-0.03,0.05-0.05,0.07-0.08,0.07
		C164.37,165.88,162.74,166.47,161.02,166.12z"/>
	<path class="st33" d="M184.98,207.11c-1.67,0.24-3.35,0.48-5.02,0.72c-0.08-0.05-0.11-0.1-0.08-0.14c0.03-0.05,0.06-0.07,0.08-0.07
		C181.62,207.34,183.25,206.74,184.98,207.11z"/>
	<path class="st34" d="M113.47,210.24c1.5-0.42,3.06-0.38,4.57-0.67c0.08,0.04,0.11,0.09,0.08,0.13c-0.03,0.04-0.05,0.06-0.08,0.06
		C116.53,210.11,115.03,210.46,113.47,210.24z"/>
	<path class="st35" d="M144.44,218.7c-0.23,0.05-0.47,0.1-0.7,0.15c0.67-0.9,1.77-0.55,2.63-0.91c0.34,0.39,0.81,0.16,1.21,0.24
		c-0.17,0.09-0.35,0.17-0.52,0.26c-0.37,0.22-0.83-0.06-1.2,0.2l0.02-0.01C145.4,218.87,144.92,218.78,144.44,218.7z"/>
	<path class="st36" d="M210.18,202.54c-1.58,0.43-3.15,0.88-4.78,1.03C206.93,202.94,208.49,202.48,210.18,202.54z"/>
	<path class="st37" d="M136.51,207.37c1.06-0.38,2.18-0.36,3.28-0.48c0.43-0.05,0.87-0.02,1.29-0.19c0.08,0.04,0.1,0.08,0.08,0.12
		c-0.03,0.04-0.05,0.06-0.08,0.06c-1.48,0.52-3.06,0.38-4.56,0.72c-0.08-0.05-0.1-0.1-0.08-0.16
		C136.46,207.4,136.49,207.37,136.51,207.37z"/>
	<path class="st38" d="M198.66,204.94c-1.51,0.2-3,0.62-4.54,0.53C195.61,205.15,197.08,204.56,198.66,204.94z"/>
	<path class="st39" d="M122.44,177.51c-0.24-0.81,0.07-1.44,0.22-2.1C123.41,175.96,123.41,175.96,122.44,177.51z"/>
	<path class="st40" d="M146.13,173.59c-0.5-0.09-0.99-0.08-1.46,0.14c-0.08-0.04-0.11-0.09-0.08-0.13c0.03-0.04,0.05-0.06,0.08-0.06
		c1.42-0.38,2.86-0.51,4.32-0.49c0.05,0.05,0.07,0.09,0.05,0.13c-0.02,0.04-0.04,0.07-0.05,0.07
		C148.04,173.36,147.08,173.47,146.13,173.59z"/>
	<path class="st41" d="M158.13,216.77c1.2-0.16,2.4-0.31,3.6-0.47c0.1,0.03,0.18,0.1,0.23,0.2c-1.09,0.38-2.22,0.48-3.36,0.48
		C158.35,217.11,158.13,217.19,158.13,216.77z"/>
	<path class="st20" d="M218.13,158.68c0.8-0.1,1.61-0.2,2.41-0.3c0.29,0,0.57,0,0.86,0c0.18,0.03,0.36,0.06,0.53,0.09
		C220.65,158.36,219.42,159.31,218.13,158.68z"/>
	<path class="st42" d="M101,16.09c0,0.07,0,0.15,0,0.22c-0.11,0.19-0.34,0.09-0.48,0.21c-0.62,0.02-1.24,0.05-1.87,0.07
		c-0.48,0.22-1.01-0.04-1.49,0.18c-0.08,0-0.17,0-0.25,0c-0.08-0.05-0.11-0.09-0.08-0.14c0.03-0.04,0.06-0.07,0.08-0.07
		C98.23,16.06,99.67,16.51,101,16.09z"/>
	<path class="st43" d="M212.83,209.33c1.29-0.02,2.55-0.5,3.85-0.3c-1.25,0.42-2.54,0.52-3.85,0.5c-0.07-0.04-0.09-0.09-0.07-0.14
		C212.79,209.35,212.81,209.33,212.83,209.33z"/>
	<path class="st44" d="M205.87,160.13c1.2-0.04,2.38-0.41,3.6-0.29c-1.16,0.44-2.37,0.51-3.59,0.49c-0.07-0.04-0.09-0.09-0.07-0.13
		C205.83,160.15,205.85,160.13,205.87,160.13z"/>
	<path class="st31" d="M107.51,223.69c0.96,0.1,1.91,0.03,2.85-0.2c0.08,0.04,0.11,0.09,0.08,0.13c-0.03,0.04-0.06,0.06-0.08,0.06
		c-0.83,0.39-1.74,0.36-2.62,0.47C107.43,224.19,107.12,224.07,107.51,223.69z"/>
	<path class="st45" d="M179.95,207.61c0,0.07,0,0.14,0,0.22c-1.04,0.05-2.05,0.39-3.1,0.29
		C177.83,207.62,178.89,207.6,179.95,207.61z"/>
	<path class="st46" d="M118.04,209.77c0-0.07,0-0.13,0-0.2c1.13-0.02,2.22-0.42,3.36-0.29C120.31,209.68,119.18,209.8,118.04,209.77
		z"/>
	<path class="st25" d="M68.57,18.7c-0.94,0.02-1.88,0.04-2.82,0.06c-0.24-0.1-0.55,0.1-0.82-0.29C66.2,18.61,67.4,18.25,68.57,18.7z
		"/>
	<path class="st47" d="M121.89,209.08c1.12,0.03,2.21-0.43,3.34-0.26C124.12,209.02,123.05,209.59,121.89,209.08z"/>
	<path class="st48" d="M109.85,15.81c-0.87,0.07-1.73,0.13-2.6,0.2C108.07,15.24,108.96,15.61,109.85,15.81z"/>
	<path class="st49" d="M218.59,163.9c-0.95,0.12-1.91,0.25-2.86,0.37C216.63,163.74,217.57,163.47,218.59,163.9z"/>
	<path class="st50" d="M132.9,13.89c-0.08-0.07-0.15-0.13-0.23-0.2c1.03-0.4,2.06-0.35,3.1-0.04c-0.46,0.02-0.91,0.04-1.37,0.06
		c-0.39,0.21-0.85-0.02-1.24,0.17C133.08,13.89,132.99,13.89,132.9,13.89z"/>
	<path class="st13" d="M169.15,164.93c0.96-0.1,1.92-0.19,2.87-0.29c-0.9,0.5-1.88,0.51-2.87,0.49c-0.07-0.04-0.09-0.09-0.07-0.13
		C169.11,164.95,169.13,164.93,169.15,164.93z"/>
	<path class="st51" d="M72.17,18.45c-0.78,0.02-1.55,0.04-2.33,0.07c-0.15-0.03-0.31-0.05-0.46-0.08
		C70.31,18.34,71.24,18.04,72.17,18.45z"/>
	<path class="st52" d="M33.29,20.85c-0.94,0.03-1.87,0.06-2.81,0.09C31.4,20.4,32.34,20.6,33.29,20.85z"/>
	<path class="st53" d="M148.99,173.25c0-0.07,0-0.13,0-0.2c0.68-0.48,1.45-0.13,2.17-0.24c0.2-0.14,0.38-0.15,0.55,0.04
		C150.84,173.23,149.87,172.93,148.99,173.25z"/>
	<path class="st54" d="M158.13,216.77c0.16,0.07,0.31,0.14,0.47,0.21c-0.74,0.48-1.65,0.07-2.41,0.47
		c-0.08-0.06-0.11-0.11-0.08-0.17c0.03-0.06,0.05-0.09,0.08-0.09C156.76,216.7,157.54,217.16,158.13,216.77z"/>
	<path class="st55" d="M88.25,17.49c-0.95,0.01-1.9,0.03-2.85,0.04C86.34,17.16,87.29,17.15,88.25,17.49z"/>
	<path class="st56" d="M92.08,17.25c-0.95,0.01-1.89,0.02-2.84,0.03C90.19,16.94,91.13,16.9,92.08,17.25z"/>
	<path class="st57" d="M76.01,18.22c-0.7,0.02-1.39,0.05-2.09,0.07c-0.1-0.07-0.34-0.23-0.22-0.23
		C74.47,18.06,75.27,17.8,76.01,18.22z"/>
	<path class="st58" d="M133.17,207.65c0.71-0.09,1.43-0.17,2.14-0.26c0.08,0.05,0.1,0.1,0.07,0.14c-0.03,0.05-0.05,0.07-0.08,0.07
		C134.61,207.92,133.9,208.01,133.17,207.65z"/>
	<path class="st59" d="M36.66,20.63c-0.62,0.01-1.25,0.03-1.87,0.04c-0.15-0.03-0.31-0.05-0.46-0.08
		C35.11,20.52,35.89,20.17,36.66,20.63z"/>
	<path class="st60" d="M40.98,20.39c-0.71,0.02-1.41,0.03-2.11,0.05c-0.04-0.01-0.08-0.02-0.11-0.04c-0.05-0.04-0.08-0.09-0.13-0.14
		C39.42,20.2,40.22,19.96,40.98,20.39z"/>
	<path class="st61" d="M83.93,17.74c-0.79,0.02-1.59,0.03-2.38,0.05C82.34,17.38,83.13,17.42,83.93,17.74z"/>
	<path class="st62" d="M195.79,200.9c0.63-0.01,1.26-0.03,1.89-0.04c0.04,0.01,0.08,0.01,0.11,0.03c0.05,0.04,0.09,0.09,0.14,0.14
		C197.21,201.13,196.48,201.32,195.79,200.9z"/>
	<path class="st63" d="M198.46,200.69c0.78,0,1.57-0.01,2.35-0.01C200.03,201.02,199.24,201.02,198.46,200.69z"/>
	<path class="st64" d="M144.68,212.12c0-0.06,0-0.12,0-0.18c0.55-0.39,1.1-0.37,1.66-0.03
		C145.78,211.98,145.23,212.05,144.68,212.12z"/>
	<path class="st65" d="M45.29,20.14c-0.79,0.01-1.58,0.02-2.37,0.03C43.7,19.79,44.49,19.8,45.29,20.14z"/>
	<path class="st66" d="M53.8,19.46c-0.78,0.51-1.64,0.12-2.46,0.2C52.13,19.23,52.98,19.52,53.8,19.46z"/>
	<path class="st67" d="M116.1,15.35c-0.7,0.02-1.4,0.05-2.09,0.07C114.69,14.91,115.39,15.04,116.1,15.35z"/>
	<path class="st68" d="M79.85,17.98c-0.71,0.02-1.43,0.04-2.14,0.05C78.42,17.6,79.13,17.65,79.85,17.98z"/>
	<path class="st69" d="M220.78,168.24c-0.01-0.72-0.02-1.43-0.04-2.15C221.16,166.8,221.12,167.52,220.78,168.24z"/>
	<path class="st70" d="M129.05,175.4c-0.46,0.02-0.92,0.05-1.39,0.07c-0.15-0.02-0.3-0.05-0.46-0.07
		C127.82,175.29,128.44,175.02,129.05,175.4z"/>
	<path class="st71" d="M155.48,210.73c0.08,0,0.16,0,0.24,0c-0.67,0.51-1.45,0.11-2.16,0.26
		C154.13,210.47,154.84,210.84,155.48,210.73z"/>
	<path class="st72" d="M133.86,174.93c-0.38,0.03-0.75,0.05-1.13,0.08c-0.25-0.1-0.55,0.06-0.84-0.25
		C132.6,174.79,133.25,174.53,133.86,174.93z"/>
	<path class="st73" d="M119.22,15.1c-0.72,0.01-1.43,0.02-2.15,0.04C117.78,14.75,118.49,14.76,119.22,15.1z"/>
	<path class="st74" d="M131.46,175.17c-0.38,0.03-0.75,0.06-1.13,0.08c-0.26-0.04-0.52-0.08-0.78-0.12
		C130.2,175.03,130.84,174.78,131.46,175.17z"/>
	<path class="st75" d="M208.02,165.56c-0.47,0.07-0.95,0.14-1.42,0.22c0-0.05,0-0.1,0-0.15
		C207.05,165.23,207.53,165.28,208.02,165.56z"/>
	<path class="st76" d="M169.15,164.93c0,0.07,0,0.13,0,0.2c-0.51,0.46-1.12,0.16-1.68,0.24c-0.07-0.04-0.09-0.09-0.07-0.13
		c0.02-0.04,0.05-0.06,0.07-0.06C168.03,165.08,168.62,165.2,169.15,164.93z"/>
	<path class="st77" d="M226.06,207.64c0.22-0.02,0.44-0.04,0.66-0.06c0.28,0.13,0.44-0.21,1.01-0.18
		C227.04,207.94,226.58,207.98,226.06,207.64z"/>
	<path class="st30" d="M212.83,209.33c0,0.07,0,0.14,0,0.2c-0.55,0.38-1.1,0.36-1.66,0.03C211.73,209.49,212.3,209.57,212.83,209.33
		z"/>
	<path class="st78" d="M126.41,175.65c-0.48,0.14-1.04-0.15-1.48,0.25C125.15,175.35,125.39,175.3,126.41,175.65z"/>
	<path class="st76" d="M205.87,160.13c0,0.07,0,0.13,0,0.2c-0.5,0.46-1.12,0.15-1.68,0.24c0-0.07,0-0.15,0-0.22
		C204.76,160.28,205.34,160.43,205.87,160.13z"/>
	<path class="st79" d="M124.52,14.42c0,0.06,0,0.13,0,0.19c-0.64,0.01-1.27,0.02-1.91,0.04C123.19,14.18,123.88,14.51,124.52,14.42z
		"/>
	<path class="st80" d="M122.09,14.86c-0.63,0-1.26,0.01-1.88,0.01C120.84,14.54,121.46,14.51,122.09,14.86z"/>
	<path class="st54" d="M223.89,207.89c0.29-0.03,0.58-0.05,0.87-0.08c0.26,0.03,0.53,0.07,0.79,0.11
		C224.99,208.06,224.43,208.26,223.89,207.89z"/>
	<path class="st81" d="M105.27,215.29c0.1-0.55,0.21-1.11,0.31-1.66C106.05,214.29,105.61,214.78,105.27,215.29z"/>
	<path class="st16" d="M123.53,214.3c-0.3,0.02-0.6,0.04-0.9,0.06c-0.26-0.03-0.52-0.06-0.78-0.09
		C122.43,214.14,123.01,213.9,123.53,214.3z"/>
	<path class="st17" d="M127.65,221.08c0.55-0.01,1.11-0.02,1.66-0.03C128.77,221.43,128.21,221.42,127.65,221.08z"/>
	<path class="st82" d="M112.75,15.6c-0.46,0.01-0.93,0.03-1.39,0.04c-0.04-0.01-0.08-0.02-0.11-0.04c-0.05-0.04-0.1-0.09-0.15-0.14
		C111.66,15.36,112.23,15.21,112.75,15.6z"/>
	<path class="st83" d="M175.14,170.12c-0.29,0.03-0.58,0.06-0.87,0.1c-0.19-0.03-0.38-0.06-0.56-0.09
		C174.2,169.93,174.68,169.79,175.14,170.12z"/>
	<path class="st23" d="M173.22,170.36c-0.3,0.03-0.6,0.05-0.9,0.08c-0.15-0.02-0.31-0.04-0.46-0.07
		C172.31,170.18,172.76,170.03,173.22,170.36z"/>
	<path class="st69" d="M154.51,172.55c-0.39,0.05-0.79,0.1-1.18,0.15C153.65,172.11,154.07,172.25,154.51,172.55z"/>
	<path class="st84" d="M151.72,172.85c-0.18-0.01-0.37-0.03-0.55-0.04c0.54-0.38,1.09-0.33,1.65-0.05
		C152.45,172.79,152.08,172.82,151.72,172.85z"/>
	<path class="st85" d="M144.67,173.53c0,0.06,0,0.13,0,0.19c-0.56,0.03-1.12,0.05-1.68,0.08
		C143.49,173.3,144.11,173.62,144.67,173.53z"/>
	<path class="st86" d="M142.72,173.95c-0.54,0.01-1.09,0.02-1.63,0.03C141.63,173.66,142.18,173.67,142.72,173.95z"/>
	<path class="st30" d="M209.26,209.82c0.38-0.02,0.76-0.04,1.14-0.06c0.09,0.06,0.39,0.16,0.21,0.2
		C210.18,210.05,209.67,210.16,209.26,209.82z"/>
	<path class="st87" d="M191.25,201.4c0.55,0,1.09,0,1.64,0.01C192.34,201.71,191.79,201.74,191.25,201.4z"/>
	<path class="st88" d="M173.75,203.1c0.3-0.03,0.6-0.05,0.9-0.08c0.15,0.02,0.3,0.05,0.45,0.07
		C174.65,203.26,174.2,203.44,173.75,203.1z"/>
	<path class="st69" d="M171.34,203.33c0.38-0.02,0.77-0.04,1.15-0.07c0.08,0.07,0.39,0.17,0.19,0.21
		C172.25,203.57,171.75,203.7,171.34,203.33z"/>
	<path class="st89" d="M148.73,211.67c-0.22,0.02-0.45,0.03-0.67,0.05c-0.26-0.03-0.51-0.06-0.77-0.1
		C147.79,211.47,148.29,211.28,148.73,211.67z"/>
	<path class="st88" d="M164.14,204.06c0.54-0.01,1.09-0.02,1.63-0.03C165.24,204.37,164.69,204.36,164.14,204.06z"/>
	<path class="st90" d="M161.96,204.49c0-0.06,0-0.12,0.01-0.19c0.56-0.01,1.12-0.03,1.67-0.04
		C163.12,204.69,162.52,204.42,161.96,204.49z"/>
	<path class="st48" d="M137.46,13.42c-0.39,0.06-0.77,0.12-1.16,0.18C136.59,12.94,137.02,13.17,137.46,13.42z"/>
	<path class="st91" d="M110.35,223.69c0-0.06,0-0.13,0-0.19c0.55-0.01,1.1-0.02,1.66-0.02C111.51,223.9,110.91,223.61,110.35,223.69
		z"/>
	<path class="st51" d="M96.91,16.57c0,0.07,0,0.13,0,0.2c-0.47,0.02-0.94,0.04-1.41,0.06C95.87,16.23,96.46,16.74,96.91,16.57z"/>
	<path class="st92" d="M49.36,19.89c-0.55,0-1.09,0.01-1.64,0.01c-0.08-0.05-0.11-0.09-0.08-0.13c0.03-0.04,0.06-0.06,0.09-0.06
		C48.27,19.77,48.86,19.49,49.36,19.89z"/>
	<path class="st93" d="M141.07,206.88c0-0.06,0-0.12,0.01-0.18c0.56-0.02,1.12-0.05,1.68-0.08
		C142.26,207.12,141.64,206.81,141.07,206.88z"/>
	<path class="st94" d="M105.09,149.16c0.49,0.2,0.56,0.53,0.65,0.93C105.27,149.93,105.22,149.59,105.09,149.16z"/>
	<path class="st79" d="M109.9,156.81c0.47,0.25,0.58,0.55,0.63,1.03C110.11,157.58,110,157.27,109.9,156.81z"/>
	<path class="st76" d="M167.47,165.17c0,0.06,0,0.13,0,0.19c-0.42,0.44-0.96,0.17-1.44,0.24c0-0.07,0-0.14,0-0.21
		C166.52,165.34,167.02,165.42,167.47,165.17z"/>
	<path class="st95" d="M135.77,174.67c-0.29,0.03-0.59,0.06-0.88,0.09c-0.18-0.03-0.37-0.06-0.56-0.09
		C134.84,174.5,135.32,174.35,135.77,174.67z"/>
	<path class="st96" d="M190.06,168.17c0.07-0.13,0.15-0.26,0.22-0.39c0.4,0.04,0.83-0.15,1.18,0.19
		C190.99,168.03,190.52,168.1,190.06,168.17z"/>
	<path class="st97" d="M192.21,161.79c0.47,0,0.95-0.01,1.42-0.01C193.16,162.11,192.68,162.16,192.21,161.79z"/>
	<path class="st98" d="M161.22,171.81c-0.47,0.01-0.94,0.01-1.41,0.02C160.27,171.5,160.75,171.48,161.22,171.81z"/>
	<path class="st99" d="M203.22,166.29c-0.4,0.01-0.79,0.03-1.19,0.04C202.42,165.91,202.82,166.03,203.22,166.29z"/>
	<path class="st76" d="M196.3,161.32c0.3-0.02,0.6-0.04,0.9-0.06c0.09,0.07,0.4,0.13,0.21,0.21
		C197.07,161.6,196.63,161.66,196.3,161.32z"/>
	<path class="st100" d="M147.32,205.95c0.48-0.01,0.96-0.02,1.43-0.02C148.28,206.27,147.81,206.31,147.32,205.95z"/>
	<path class="st101" d="M153.3,211.2c-0.47,0-0.95,0-1.42,0.01C152.35,210.87,152.83,210.82,153.3,211.2z"/>
	<path class="st70" d="M143.25,206.44c0.47,0,0.93,0,1.4-0.01C144.19,206.76,143.72,206.78,143.25,206.44z"/>
	<path class="st102" d="M163.14,171.57c-0.47,0.01-0.94,0.01-1.41,0.02C162.2,171.26,162.67,171.25,163.14,171.57z"/>
	<path class="st103" d="M220.27,163.71c-0.4,0-0.8-0.01-1.2-0.01C219.48,163.27,219.88,163.36,220.27,163.71z"/>
	<path class="st104" d="M169.12,209.26c-0.22,0.02-0.44,0.04-0.66,0.06c-0.18-0.03-0.36-0.06-0.85-0.14
		C168.35,209.04,168.76,208.92,169.12,209.26z"/>
	<path class="st105" d="M188.59,162.49c0-0.07,0-0.14,0-0.2c0.4-0.02,0.79-0.03,1.19-0.05
		C189.48,162.76,188.98,162.37,188.59,162.49z"/>
	<path class="st24" d="M182.59,169.18c-0.48,0.02-0.95,0.04-1.43,0.06C181.62,168.83,182.1,168.86,182.59,169.18z"/>
	<path class="st104" d="M167.21,209.5c-0.22,0.02-0.45,0.03-0.67,0.05c-0.15-0.02-0.3-0.04-0.46-0.05
		C166.46,209.32,166.84,209.16,167.21,209.5z"/>
	<path class="st102" d="M204.9,166.05c-0.39,0.02-0.77,0.04-1.16,0.07C204.1,165.61,204.5,165.83,204.9,166.05z"/>
	<path class="st69" d="M193.88,201.15c0.48-0.02,0.96-0.03,1.43-0.05C194.85,201.5,194.37,201.5,193.88,201.15z"/>
	<path class="st63" d="M206.6,165.64c0,0.05,0,0.1,0,0.15c-0.39,0.03-0.79,0.06-1.18,0.09C205.72,165.34,206.2,165.72,206.6,165.64z
		"/>
	<path class="st106" d="M192.22,212.21c0.38-0.03,0.76-0.05,1.13-0.08C193.01,212.71,192.61,212.39,192.22,212.21z"/>
	<path class="st107" d="M130.98,213.6c-0.47,0-0.94,0-1.41,0.01C130.04,213.27,130.51,213.23,130.98,213.6z"/>
	<path class="st67" d="M128.35,213.84c-0.39,0.01-0.79,0.02-1.18,0.02C127.55,213.42,127.94,213.53,128.35,213.84z"/>
	<path class="st108" d="M125.7,214.08c-0.15,0.01-0.29,0.03-0.44,0.04c-0.24-0.08-0.54,0.07-0.78-0.19
		C124.92,213.85,125.34,213.71,125.7,214.08z"/>
	<path class="st48" d="M170.62,215.1c0.29-0.03,0.59-0.06,0.88-0.08c0.09,0.07,0.4,0.15,0.24,0.21
		C171.39,215.36,170.96,215.41,170.62,215.1z"/>
	<path class="st41" d="M168.93,215.31c0.22-0.02,0.43-0.04,0.65-0.06c0.18,0.03,0.36,0.06,0.87,0.14
		C169.7,215.55,169.3,215.65,168.93,215.31z"/>
	<path class="st109" d="M164.86,215.81c0.47-0.01,0.94-0.02,1.41-0.03C165.81,216.12,165.34,216.15,164.86,215.81z"/>
	<path class="st73" d="M163.17,216.04c0.47-0.01,0.95-0.03,1.42-0.04C164.13,216.36,163.66,216.39,163.17,216.04z"/>
	<path class="st75" d="M140.35,174.23c-0.47,0-0.94,0-1.42,0C139.41,173.91,139.88,173.87,140.35,174.23z"/>
	<path class="st67" d="M221.97,208.12c0.39-0.02,0.77-0.03,1.16-0.05C222.76,208.56,222.37,208.38,221.97,208.12z"/>
	<path class="st73" d="M168.92,203.55c0.48-0.01,0.96-0.01,1.44-0.02C169.88,203.88,169.4,203.91,168.92,203.55z"/>
	<path class="st110" d="M166.53,203.81c0.47,0,0.93-0.01,1.4-0.01C167.47,204.13,167,204.14,166.53,203.81z"/>
	<path class="st111" d="M144.44,218.7c0.48-0.02,0.96-0.05,1.44-0.07c-0.41,0.46-0.96,0.19-1.44,0.25
		C144.44,218.83,144.44,218.77,144.44,218.7z"/>
	<path class="st112" d="M156.66,172.29c-0.39,0.03-0.77,0.07-1.16,0.1C155.85,171.89,156.25,172.03,156.66,172.29z"/>
	<path class="st113" d="M125.95,221.53c0-0.07,0-0.13,0-0.2c0.48-0.02,0.96-0.05,1.44-0.07
		C126.99,221.75,126.44,221.45,125.95,221.53z"/>
	<path class="st114" d="M150.91,211.44c-0.31,0.01-0.63,0.02-0.94,0.02C150.27,210.96,150.59,211.19,150.91,211.44z"/>
	<path class="st115" d="M216.21,158.91c0.22-0.02,0.45-0.03,0.67-0.05c0.07,0.02,0.16,0.02,0.21,0.07c0.11,0.09,0.07,0.19-0.06,0.19
		C216.74,159.13,216.43,159.21,216.21,158.91z"/>
	<path class="st77" d="M178.75,169.67c-0.4,0.01-0.8,0.03-1.2,0.04C177.94,169.33,178.34,169.34,178.75,169.67z"/>
	<path class="st108" d="M200.08,204.69c-0.22,0.02-0.44,0.04-0.66,0.07c-0.08-0.07-0.41-0.06-0.21-0.2
		C199.45,204.39,199.83,204.41,200.08,204.69z"/>
	<path class="st52" d="M190.78,212.45c0.22-0.02,0.44-0.04,0.66-0.06c0.08,0.02,0.16,0.03,0.22,0.07c0.02,0.02,0.01,0.15,0,0.15
		C191.35,212.66,191.03,212.73,190.78,212.45z"/>
	<path class="st116" d="M185.01,213.16c0.39-0.01,0.79-0.03,1.18-0.04C185.81,213.48,185.42,213.48,185.01,213.16z"/>
	<path class="st51" d="M194.13,205.46c-0.32,0.44-0.83,0.12-1.21,0.3C193.22,205.26,193.72,205.52,194.13,205.46z"/>
	<path class="st109" d="M183.1,213.4c0.39-0.01,0.78-0.02,1.17-0.02C183.88,213.7,183.49,213.73,183.1,213.4z"/>
	<path class="st117" d="M47.73,19.71c-0.01,0.06-0.01,0.13-0.01,0.19c-0.31,0.02-0.63,0.04-0.94,0.05
		C46.96,19.36,47.43,19.85,47.73,19.71z"/>
	<path class="st67" d="M149.51,205.74c0.3-0.03,0.61-0.05,0.91-0.08C150.15,206.09,149.84,206,149.51,205.74z"/>
	<path class="st82" d="M145.4,206.19c0.39,0,0.79,0,1.18,0C146.19,206.51,145.79,206.54,145.4,206.19z"/>
	<path class="st100" d="M194.36,161.54c0.31-0.01,0.63-0.02,0.94-0.03C195.01,162.02,194.68,161.8,194.36,161.54z"/>
	<path class="st118" d="M177.54,202.77c0,0.09,0.01,0.19,0.01,0.28c-0.4-0.04-0.83,0.16-1.18-0.2
		C176.76,202.82,177.15,202.79,177.54,202.77z"/>
	<path class="st119" d="M138.18,174.46c-0.4,0.01-0.79,0.02-1.19,0.03C137.38,174.15,137.78,174.13,138.18,174.46z"/>
	<path class="st120" d="M132.7,170.68c0.23-0.02,0.45-0.03,0.68-0.05c0.08,0.07,0.42,0.06,0.19,0.2
		C133.33,170.99,132.95,170.98,132.7,170.68z"/>
	<path class="st31" d="M139.86,169.68c0.34-0.4,0.8-0.18,1.21-0.22C140.72,169.85,140.27,169.64,139.86,169.68z"/>
	<path class="st80" d="M167.01,215.55c0.31-0.01,0.62-0.03,0.93-0.04C167.65,216.03,167.33,215.79,167.01,215.55z"/>
	<path class="st80" d="M180.9,169.4c-0.39,0.01-0.78,0.02-1.18,0.03C180.11,169.11,180.5,169.09,180.9,169.4z"/>
	<path class="st70" d="M135.32,207.61c0-0.07,0-0.14,0-0.21c0.4-0.01,0.8-0.02,1.19-0.02c0,0.08,0,0.16,0,0.23
		C136.11,207.61,135.71,207.61,135.32,207.61z"/>
	<path class="st121" d="M131.73,207.88c0.22-0.02,0.45-0.04,0.67-0.06c0.07,0.02,0.16,0.03,0.21,0.07c0.11,0.09,0.08,0.18-0.06,0.19
		C132.26,208.09,131.95,208.17,131.73,207.88z"/>
	<path class="st122" d="M176.34,208.31c-0.39,0-0.78,0.01-1.17,0.01C175.55,207.99,175.94,207.97,176.34,208.31z"/>
	<path class="st123" d="M156.19,217.19c0,0.09,0,0.17,0,0.26c-0.39-0.05-0.83,0.16-1.17-0.2
		C155.41,217.23,155.8,217.21,156.19,217.19z"/>
	<path class="st124" d="M153.33,217.48c0.22-0.02,0.43-0.05,0.65-0.07c0.1,0.05,0.19,0.09,0.29,0.14c-0.04,0.04-0.07,0.12-0.11,0.12
		C153.87,217.68,153.56,217.77,153.33,217.48z"/>
	<path class="st48" d="M151.64,217.7c0.14-0.01,0.29-0.02,0.43-0.04c0.18,0.03,0.36,0.06,0.67,0.11
		C152.26,217.98,151.93,218.03,151.64,217.7z"/>
	<path class="st75" d="M127.66,208.38c0.39-0.02,0.78-0.04,1.17-0.07C128.47,208.7,128.07,208.67,127.66,208.38z"/>
	<path class="st125" d="M149.73,217.95c0.31-0.02,0.61-0.03,0.92-0.05C150.36,218.33,150.05,218.26,149.73,217.95z"/>
	<path class="st116" d="M147.82,218.2c0.39-0.01,0.79-0.02,1.18-0.03C148.61,218.51,148.22,218.53,147.82,218.2z"/>
	<path class="st68" d="M145.86,218.64c0.33-0.46,0.8-0.14,1.2-0.2C146.7,218.8,146.26,218.61,145.86,218.64z"/>
	<path class="st51" d="M161.96,216.5c-0.08-0.07-0.15-0.13-0.23-0.2c0.39-0.03,0.79-0.06,1.18-0.08
		C162.69,216.62,162.29,216.46,161.96,216.5z"/>
	<path class="st126" d="M177.82,163.72c0.22-0.02,0.44-0.04,0.66-0.06c0.08,0.07,0.42,0.07,0.2,0.21
		C178.45,164.03,178.07,164.02,177.82,163.72z"/>
	<path class="st82" d="M131,220.58c0.31-0.01,0.63-0.02,0.94-0.03C131.64,221.06,131.32,220.84,131,220.58z"/>
	<path class="st127" d="M190.29,162.03c0.39,0,0.78,0,1.17,0C191.07,162.34,190.68,162.38,190.29,162.03z"/>
	<path class="st123" d="M209.98,159.64c0.39,0,0.77-0.01,1.16-0.01C210.75,159.96,210.37,159.97,209.98,159.64z"/>
	<path class="st77" d="M214.03,159.13c0.32-0.01,0.63-0.02,0.95-0.02C214.68,159.64,214.36,159.39,214.03,159.13z"/>
	<path class="st45" d="M120.42,222.22c0,0.09,0.01,0.18,0.01,0.27c-0.4-0.05-0.84,0.16-1.18-0.21
		C119.65,222.26,120.03,222.24,120.42,222.22z"/>
	<path class="st45" d="M117.81,222.51c0.15-0.01,0.29-0.03,0.44-0.04c0.18,0.03,0.36,0.06,0.73,0.11
		C118.44,222.77,118.1,222.83,117.81,222.51z"/>
	<path class="st120" d="M122.11,172.52c0.32,0.01,0.63,0.02,0.95,0.04C122.73,173.01,122.42,172.85,122.11,172.52z"/>
	<path class="st4" d="M129.76,161.55c-1.94,0-3.05-0.89-3.7-2.26c-2.06-4.35-4.29-8.64-5.13-13.46c-0.24-1.36-0.86-2.65-0.74-4.09
		c0.06-0.79,0.07-1.56,0.94-1.89c0.91-0.35,1.67,0.04,2.22,0.73c1.44,1.82,2.55,3.83,3.59,5.91c1.19,2.38,2.18,4.88,3.98,6.91
		c0.89,1,2.02,1.24,3.35,1.04c1.92-0.28,3.87-0.39,5.81-0.58c1.11-0.11,2.23-0.14,3.31-0.36c0.75-0.15,0.89,0.14,0.8,0.71
		c-0.08,0.55,0,0.77,0.62,0.96c0.98,0.3,1.64,1.04,1.53,2.16c-0.1,1.06-0.99,1.74-2.19,1.81c-2.86,0.15-5.72,0.29-8.58,0.49
		c-1.21,0.08-2.24,0.8-3.36,1.19C131.3,161.12,130.44,161.57,129.76,161.55z"/>
	<path class="st4" d="M54.41,32.25c1.07,1.5,2.04,2.88,3.03,4.25c1.57,2.15,3.2,4.27,4.73,6.45c1.05,1.5,0.53,3.11-1.05,3.52
		c-0.88,0.23-1.58-0.11-2.13-0.75c-2.17-2.54-4.28-5.13-6.25-7.83c-1.17-1.61-2.37-3.2-3.49-4.85c-1.96-2.88-1.01-5.16,2.43-5.89
		c2.46-0.52,4.91-0.63,7.45-0.18c1.49,0.27,3.13-0.28,4.7-0.46c0.99-0.11,1.94-0.4,2.95-0.35c1.39,0.07,2.38,0.8,2.52,1.91
		c0.14,1.13-0.73,2.32-2.05,2.56c-2.26,0.41-4.54,0.75-6.82,1.04C58.52,31.92,56.58,32.05,54.41,32.25z"/>
	<path class="st4" d="M205.39,132.24c0.94-2,2.77-2.26,4.12-0.52c2.84,3.64,5.68,7.27,8.25,11.1c0.69,1.03,1.05,2.1,0.47,3.23
		c-0.58,1.12-1.68,1.37-2.87,1.3c-0.2-0.01-0.4,0.01-0.6,0.01c-1.39,0.06-2.73,0.62-4.13,0.46c-2.44-0.27-4.92-0.26-7.27-1.12
		c-0.25-0.09-0.64-0.07-0.68-0.39c-0.04-0.36,0.32-0.51,0.61-0.66c2.01-0.99,4.18-1.55,6.28-2.3c0.26-0.09,0.52-0.21,0.79-0.26
		c0.79-0.14,0.79-0.54,0.36-1.07c-1.66-2.05-3.01-4.3-4.38-6.55C205.73,134.48,205.23,133.47,205.39,132.24z"/>
	<path class="st4" d="M131.95,21.61c1.32,0.02,2.34,0.54,3.06,1.52c2.87,3.86,6.04,7.5,8.67,11.54c0.61,0.94,1.07,1.96,1.5,2.99
		c0.32,0.77,0.16,1.39-0.4,1.96c-0.6,0.6-1.25,0.39-1.87,0.08c-1.89-0.97-3.26-2.5-4.51-4.18c-2.29-3.06-4.55-6.14-6.51-9.43
		c-0.31-0.51-0.75-0.64-1.32-0.63c-1.43,0.03-2.88,0.11-4.28-0.26c-0.82-0.22-1.93-0.38-1.97-1.42c-0.04-1.08,1.08-1.17,1.9-1.45
		C128.13,21.67,130.13,22.05,131.95,21.61z"/>
	<path class="st128" d="M210.44,156.02c-0.51,0.43-1.12,0.15-1.68,0.25c-0.23-0.01-0.46-0.02-0.68-0.04
		c0.61-0.24,1.21-0.5,1.87-0.45C210.06,155.97,210.25,156,210.44,156.02z"/>
	<path class="st129" d="M88.04,144.36c1.4,1.09-0.11,1.49-0.43,2.15C87.52,145.76,87.73,145.06,88.04,144.36z"/>
	<path class="st130" d="M79.42,153.05c0.47,0,0.46,0.19,0.41,0.33c-0.05,0.13-0.19,0.22-0.29,0.32c-0.08-0.13-0.22-0.25-0.22-0.39
		C79.31,153.18,79.42,153.04,79.42,153.05z"/>
	<path class="st2" d="M97.16,16.78c0.46-0.37,0.99-0.16,1.49-0.18C98.18,16.88,97.67,16.78,97.16,16.78z"/>
	<path class="st2" d="M100.52,16.53c0.16-0.07,0.32-0.14,0.48-0.21c0.33,0.01,0.67,0.03,1,0.04
		C101.53,16.64,101.02,16.54,100.52,16.53z"/>
	<path class="st128" d="M212.61,155.78c-0.35,0.36-0.8,0.19-1.21,0.21C211.75,155.62,212.2,155.82,212.61,155.78z"/>
	<path class="st2" d="M133.16,13.89c0.37-0.34,0.82-0.16,1.24-0.17C134.02,13.98,133.59,13.92,133.16,13.89z"/>
	<path class="st8" d="M163.4,183.14c4.11-0.48,8.21-0.96,12.31-1.46c4.97-0.61,9.94-1.26,14.91-1.86c0.75-0.09,1.51-0.06,2.26-0.39
		c-0.31-0.26-0.65-0.13-0.95-0.13c-3.48-0.01-6.96-0.13-10.43,0.04c-5.65,0.27-11.31,0.32-16.95,0.87c-2.06,0.2-4.14,0.2-6.21,0.28
		c-2.64-2.33-5.83-2.44-9.12-2.18c0.55-0.31,1.09-0.51,1.69-0.45c0.27,0.26,0.7-0.13,0.95,0.22c4.2,0.18,8.38-0.18,12.57-0.29
		c4.26-0.11,8.52-0.3,12.79-0.47c4.06-0.16,8.13-0.3,12.19-0.48c4.62-0.2,9.24-0.34,13.87-0.5c2.19-0.08,4.38-0.1,6.57-0.19
		c0.78-0.03,1.14,0.12,0.78,0.98c-0.36,0.88-0.73,1.78-0.94,2.71c-0.25,1.08-0.92,1.46-1.92,1.56c-3.2,0.33-6.41,0.65-9.61,1
		c-3.36,0.37-6.71,0.74-10.06,1.15c-3.86,0.47-7.73,0.96-11.59,1.49c-2.72,0.37-5.44,0.67-8.12,1.31c-0.31,0.07-0.63,0.08-0.94,0.11
		c-0.05-0.5,0.37-0.27,0.47-0.33c-1.48-0.6-2.91-1.47-4.3-2.4C163.44,183.62,163.28,183.41,163.4,183.14z"/>
	<path class="st8" d="M167.25,186.51c1.6,0.5,3.26,0.33,4.84,0.15c1.91-0.22,3.82-0.18,5.72-0.34c4.68-0.38,9.35-0.73,14.02-1.22
		c3.44-0.37,6.88-0.66,10.33-1c1.78-0.18,3.56-0.34,5.33-0.6c0.78-0.12,0.86,0.07,0.6,0.72c-1.13,2.81-2.14,5.67-3.42,8.42
		c-0.2,0.43-0.44,0.75-0.94,0.8c-2.61,0.24-5.22,0.48-7.84,0.73c-3.08,0.3-6.17,0.61-9.25,0.91c-1.11,0.11-2.22,0.19-3.33,0.29
		c-1.63-0.7-3.04-1.76-4.54-2.67c-0.41-0.25-1.03-0.57-0.28-1.16c2.72-0.67,5.52-0.86,8.28-1.25c4.39-0.61,8.77-1.26,13.16-1.87
		c0.63-0.09,1.27-0.1,1.72-0.18c-1.31,0.02-2.8,0.21-4.28,0.24c-5.35,0.11-10.67,0.54-16.01,0.79c-2.11,0.1-4.21,0.29-6.32,0.44
		c-0.42-0.04-0.84-0.02-1.25-0.07c-0.14-0.02-0.27-0.06-0.4-0.11c-0.26-0.11-0.51-0.23-0.73-0.4c-1.88-1.39-3.92-2.19-6.31-1.87
		c-0.44,0.06-1.19,0.09-1.2-0.42c-0.01-0.57,0.75-0.54,1.23-0.62C166.7,186.19,167.02,186.23,167.25,186.51z"/>
	<path class="st10" d="M178.29,191.78c0.93,1.17,2.37,1.61,3.53,2.47c0.5,0.37,1.14,0.55,1.5,1.12c-7.41,0.9-14.83,1.73-22.2,2.95
		c-0.29,0.05-1.12-0.31-1.02,0.6c-2.58,0.25-5.16,0.53-7.74,0.74c-0.55,0.05-1.19,0.25-1.7-0.23c-0.15-0.17-0.17-0.38-0.15-0.59
		c0.15-0.79,0.06-1.58,0.08-2.37c0.03-1.41,0.15-1.55,1.54-1.7c0.24-0.03,0.46-0.1,0.7-0.11c0.85,0.04,1.62,0.33,2.35,0.77
		c0.99,0.59,2.02,1.12,3.17,1.36c1.87,0.4,2.97-0.55,2.83-2.46c-0.02-0.26,0-0.47,0.25-0.61c0.89-0.45,1.87-0.36,2.81-0.48
		c4.22-0.57,8.45-1.12,12.68-1.61C177.38,191.58,177.87,191.4,178.29,191.78z"/>
	<path class="st10" d="M167.25,186.51c-0.69-0.11-1.3,0.13-1.96,0.46c3.16-0.57,5.82,0.42,8.18,2.39c-0.01,0.52-0.43,0.54-0.76,0.56
		c-4.36,0.32-8.71,0.77-13.08,0.98c-0.08,0-0.16-0.02-0.24-0.03c-0.46-0.06-0.8-0.31-1.05-0.69c-1.09-1.69-2.2-3.37-3.22-5.11
		c-0.17-0.3-0.41-0.6-0.18-0.98c2.42-0.29,4.85-0.57,7.27-0.86c0.39-0.05,0.78-0.07,1.18-0.1c1.17,1.19,2.74,1.74,4.14,2.56
		c0.69,0.41,0.26,0.55-0.07,0.78C167.4,186.49,167.32,186.5,167.25,186.51z"/>
	<path class="st131" d="M151.88,178.09c-0.33-0.02-0.7,0.12-0.95-0.22c0.55-0.15,1.09-0.32,1.67-0.24
		C152.36,177.78,152.12,177.93,151.88,178.09z"/>
	<path class="st132" d="M154.96,184.1c1.22,2.25,2.61,4.4,4.07,6.5c0.99,0.94,1.78,2.02,2.21,3.33c0.42,0.71,0.72,1.42,0.07,2.18
		c-0.7,0.82-1.56,1.21-2.63,1.06c-0.95-0.13-1.83-0.5-2.68-0.95c-0.94-0.5-1.84-1.07-2.88-1.36c-0.32-0.16-0.69-0.11-1.04-0.23
		c-0.98-0.35-1.21-0.19-1.28,0.9c-0.08,1.14,0.09,2.29-0.09,3.44c-0.02,0.16-0.04,0.31-0.05,0.47c-0.91,1.67-1.76,1.79-3.33,0.5
		c-0.67-1.37-1.56-2.6-2.43-3.84c-0.94-1.45-1.89-2.9-2.83-4.35c-1.04-1.84-2.07-3.68-3.11-5.51c-0.28-0.79-0.97-1.73-0.75-2.32
		c0.3-0.78,1.46-0.27,2.24-0.35c4.23-0.47,8.47-0.85,12.71-1.3c0.47-0.05,0.63,0.2,0.85,0.48
		C154.35,183.17,154.47,183.76,154.96,184.1z"/>
	<path class="st133" d="M161.23,193.93c-0.84-1.04-1.59-2.14-2.21-3.33c4.65-0.33,9.29-0.66,13.94-1.01
		c0.18-0.01,0.34-0.15,0.52-0.24c0.08,0.01,0.16,0.01,0.23,0.02c0.4,0.19,0.8,0.17,1.21,0.01c5.88-0.36,11.75-0.8,17.64-1.02
		c3.56-0.14,7.12-0.45,10.92-0.41c-0.64,0.65-1.3,0.5-1.82,0.58c-4.12,0.64-8.25,1.22-12.39,1.78c-3.66,0.5-7.32,0.97-10.98,1.46
		c-4.78,0.63-9.56,1.27-14.34,1.89C163.05,193.79,162.14,193.85,161.23,193.93z"/>
	<path class="st10" d="M174.92,189.39c-0.4,0.32-0.81,0.34-1.21-0.01C174.11,189.38,174.52,189.38,174.92,189.39z"/>
	<path class="st134" d="M150.71,198.96c0-1.51,0.01-3.01-0.02-4.52c-0.01-0.64,0.2-0.79,0.76-0.48c0.55,0.31,1.11,0.6,1.66,0.9
		c-0.08,0.02-0.17,0.01-0.23,0.05c-0.57,0.44-1.58-0.19-1.89,0.59c-0.24,0.62-0.06,1.4-0.1,2.1
		C150.88,198.06,151.07,198.55,150.71,198.96z"/>
</g>
</svg>
