<?xml version="1.0" encoding="utf-8"?>
<!-- Generator: Adobe Illustrator 23.0.2, SVG Export Plug-In . SVG Version: 6.00 Build 0)  -->
<svg version="1.1" id="Camada_1" xmlns="http://www.w3.org/2000/svg" xmlns:xlink="http://www.w3.org/1999/xlink" x="0px" y="0px"
	 viewBox="0 0 380.53 67.68" style="enable-background:new 0 0 380.53 67.68;" xml:space="preserve">
<style type="text/css">
	.st0{fill:#565656;}
</style>
<g>
	<path class="st0" d="M190.27,67.68c-56.57,0-113.15,0-169.72,0c-9.95,0-17.7-6.02-19.99-15.53C0.16,50.52,0,48.85,0,47.16
		c0.02-8.88,0-17.76,0.01-26.64C0.03,8.68,8.7,0.01,20.55,0.01C133.69,0,246.84,0,359.99,0c9.95,0,17.7,6.03,19.99,15.53
		c0.39,1.63,0.56,3.3,0.55,4.98c-0.02,8.88,0,17.76-0.01,26.64c-0.02,11.84-8.69,20.52-20.54,20.52
		C303.41,67.68,246.84,67.68,190.27,67.68z"/>
</g>
</svg>
