<?xml version="1.0" encoding="utf-8"?>
<!-- Generator: Adobe Illustrator 23.0.2, SVG Export Plug-In . SVG Version: 6.00 Build 0)  -->
<svg version="1.1" id="Camada_1" xmlns="http://www.w3.org/2000/svg" xmlns:xlink="http://www.w3.org/1999/xlink" x="0px" y="0px"
	 viewBox="0 0 22.89 23.05" style="enable-background:new 0 0 22.89 23.05;" xml:space="preserve">
<style type="text/css">
	.st0{fill:#FEFEFE;}
	.st1{fill:#0C090C;}
	.st2{fill:#2F2D2C;}
	.st3{fill:#367C93;}
	.st4{fill:#2D2929;}
	.st5{fill:#592316;}
	.st6{fill:#DBB93D;}
	.st7{fill:#D8B73D;}
	.st8{fill:#DEBE3E;}
	.st9{fill:#CDE3E5;}
	.st10{fill:#FBFCFC;}
	.st11{fill:#ECC840;}
	.st12{fill:#EDC940;}
	.st13{fill:#BA8429;}
	.st14{fill:#EACB41;}
	.st15{fill:#D0E5E7;}
	.st16{fill:#EDCD43;}
	.st17{fill:#C18929;}
	.st18{fill:#BB8529;}
	.st19{fill:#FCFDFD;}
	.st20{fill:#ECC740;}
	.st21{fill:#D99026;}
	.st22{fill:#B4741B;}
	.st23{fill:#35302E;}
	.st24{fill:#37302E;}
</style>
<g>
	<path class="st0" d="M13.82,17.05c-0.09,0.91-0.03,1.55,0.17,2.22c0.32,1.08-0.21,2.45-1.12,2.4c-1.71-0.09-3.3,3.01-5.07,0.22
		c-0.31-0.48-0.68-1-0.48-1.55c0.34-0.89-0.22-0.83-0.77-0.93c-1.15-0.19-2.09,0.41-3.07,0.79c-0.84,0.33-1.63,0.56-2.28-0.23
		c-0.65-0.8-0.49-1.7,0.08-2.43c0.48-0.62,0.37-0.88-0.17-1.4c-1.38-1.31-1.44-2.79-0.37-4.4c0.29-0.43,0.67-0.74,0.4-1.47
		C0.12,7.5,1.65,4.32,4.46,3.28c0.75-0.27,1.3-0.64,1.71-1.31c0.45-0.73,1.18-1.19,1.9-1.61c1.39-0.81,2.51-0.12,3.55,0.77
		c0.56,0.47,1.02,0.8,1.54-0.06c0.25-0.42,0.87-0.77,1.22-0.62c1.33,0.59,2.6-0.76,3.85-0.05c0.88,0.5,1.51,1.33,1.98,2.2
		c0.64,1.18,1.22,2.4,1.72,3.65c0.8,1.99,0.39,3.89-0.96,5.46c-0.63,0.74-0.35,1.05,0.17,1.47c0.34,0.27,0.74,0.44,1.04,0.79
		c0.61,0.72,0.97,1.48,0.46,2.4c-0.53,0.95-1.35,1.56-2.43,1.38c-0.65-0.1-1.02,0.06-1.49,0.41c-0.76,0.57-1.62,0.67-2.45,0.12
		C15.54,17.82,14.61,17.79,13.82,17.05z"/>
	<path class="st1" d="M2.98,10.81C2.01,9.9,1.62,8.75,2.1,7.48c0.6-1.57,1.53-2.94,3.36-3.26c0.57-0.1,0.9-0.28,1.15-0.82
		c0.4-0.84,1.12-1.43,1.9-1.94c0.57-0.37,1.09-0.33,1.66,0.06c1.5,1.01,2.74,2.2,3.12,4.19c0.65-0.65,1.21-1.18,1.91-1.49
		c-0.15-0.46-0.49-0.49-0.78-0.57c-0.52-0.15-0.87-0.48-0.82-1.02c0.05-0.5,0.38-0.89,0.9-1.02c0.55-0.14,0.98,0.19,1.19,0.6
		c0.22,0.42,0.46,0.81,0.73,1.2c0.38,0.55,0.81,0.66,1.41,0.51c-0.13-0.42-0.49-0.52-0.79-0.7c-0.73-0.44-0.69-0.96-0.18-1.58
		C17.4,1,17.75,1.47,18.1,1.83c0.72,0.75,1.4,1.55,1.61,2.61c0.08,0.41,0.26,0.71,0.5,1.04c1.56,2.09,1.12,4.84-1.08,6.27
		c-0.74,0.48-0.67,0.72-0.04,1.15c0.66,0.44,1.08,1.15,1.79,1.56c0.46,0.26,1.01,0.67,0.71,1.34c-0.23,0.52-0.7,0.91-1.34,0.81
		c-0.69-0.11-1.18-0.53-1.31-1.22c-0.34-1.78-1.59-2.39-3.06-1.42c-0.24,0.16-0.67,0.43-0.43,0.86c0.17,0.3,0.46,0.59,0.89,0.4
		c0.59-0.27,1.09-0.04,1.56,0.28c0.52,0.35,0.79,0.85,0.4,1.43c-0.39,0.58-0.98,0.73-1.55,0.26c-0.78-0.64-2.05-0.46-2.57-1.55
		c-0.08-0.16-1.85,1.07-1.75,1.3c0.34,0.76-0.19,1.6,0.31,2.33c0.26,0.38,0.26,0.86-0.11,1.21c-0.33,0.31-0.74,0.3-1.11,0.07
		c-0.43-0.27-0.78-0.63-0.6-1.18c0.13-0.39,0.23-0.76,0.17-1.16c-0.04-0.26,0.01-0.62-0.44-0.5c-0.31,0.08-0.64,0.17-0.51,0.63
		c0.16,0.57,0.35,1.14,0.46,1.73c0.14,0.69-0.2,1.25-0.71,1.65c-0.24,0.19-0.66,0.15-0.86-0.14c-0.34-0.5-0.77-0.94-0.27-1.7
		c0.58-0.88,0.03-1.5-0.98-1.62c-1.77-0.21-3.38,0.2-4.96,0.9c-0.24,0.11-0.51,0.35-0.73,0.01C1.91,18.9,2,18.61,2.15,18.37
		c0.28-0.44,0.56-0.88,0.89-1.28c0.41-0.51,0.63-0.93-0.24-1.16c-0.11-0.03-0.21-0.11-0.31-0.18c-1.39-0.92-1.63-2.05-0.69-3.43
		C2.15,11.8,2.58,11.32,2.98,10.81z"/>
	<path class="st2" d="M15.7,13.39c-0.46,0.38-1.06,0.88-0.73,1.42c0.33,0.55,0.76,1.52,1.83,0.84c0.15-0.1,0.63,0.01,0.8,0.36
		c-0.22,0.25-0.46,0.48-0.72,0.69c-0.73-0.68-1.9-0.55-2.53-1.54c-0.27-0.42-2.39,1.28-2.34,1.91c0.05,0.67,0.06,1.34,0.07,2.02
		c0,0.28-0.03,0.64-0.38,0.62c-0.45-0.03-0.26-0.37-0.19-0.63c0.03-0.11,0.09-0.23,0.08-0.34c-0.04-0.54,0.28-1.29-0.24-1.54
		c-0.39-0.19-1.04,0.13-1.56,0.26c-0.44,0.11-0.18,0.42-0.14,0.67c0.09,0.66,0.41,1.3,0.25,1.99c-0.16,0.1-0.31,0.09-0.44-0.05
		c-0.02-0.44-0.01-0.88-0.08-1.3c-0.15-0.91-0.61-1.08-1.58-1.05c-1.69,0.04-3.34,0.11-5.11,1.07c0.42-1.19,1.09-1.82,1.51-2.6
		c0.08-0.33-0.11-0.64-0.03-0.97c0.03-0.29,0.13-0.55,0.26-0.8c0.81-1.52,2.17-2.47,3.56-3.37c0.7-0.23,1.32-0.6,1.95-0.97
		c0.38-0.14,0.78-0.17,1.18-0.21c0.37,0.02,0.68,0.13,0.82,0.52c0.02,0.72,1.38,2.6,2.02,2.8c0.51,0.16,0.72-0.43,1.15-0.46
		C15.49,12.77,15.83,12.87,15.7,13.39z"/>
	<path class="st3" d="M4.36,15.28c-0.03,0.31,0.15,0.65-0.17,0.91c-0.08-0.09-0.13-0.22-0.23-0.26c-3.27-1.16-2.57-3.12-0.36-4.82
		c0.06-0.05,0.11-0.11,0.23-0.26c-1.19-0.81-1.79-1.92-1.21-3.33C3.25,5.99,4.15,4.7,6.05,4.65c0.49-0.01,0.63-0.33,0.83-0.71
		c1.29-2.48,2.87-2.66,4.75-0.6c0.86,0.94,1,2.24,1.68,3.27c0.07,0.1,0.11,0.2,0.11,0.32c-0.22,0.5-0.5,0.93-1.13,0.91
		c-0.4-0.94-0.33-2.02-0.89-2.93c-0.36-0.58-0.72-1.13-1.28-1.54C9.5,2.91,8.95,3.02,8.4,3.49c-0.58,0.5-0.69,0.92,0.13,1.32
		c1.08,0.53,2.01,1.28,2.76,2.22c0.32,0.4,0.63,0.83,0.63,1.38c-0.16,0.33-0.44,0.35-0.75,0.28c-0.83-0.62-1.45-1.45-2.29-2.06
		c-2.19-1.59-4.06-1.14-5.22,1.3c-0.18,1.44,0.69,2.44,2.3,2.7c0.48,0.08,1.23-0.16,1.16,0.78c-0.37,0.39-0.88,0.37-1.32,0.29
		c-1.32-0.22-2.18,0.35-2.8,1.44c-0.43,0.71-0.01,1.15,0.48,1.58C3.75,14.95,4.13,14.99,4.36,15.28z"/>
	<path class="st4" d="M13.34,6.88c-0.01-0.09-0.02-0.18-0.03-0.27c0.71-0.67,1.2-1.55,2.19-1.97c0.79-0.33,0.19-0.78-0.14-1.07
		c-0.23-0.2-0.56-0.27-0.84-0.41c-0.2-0.11-0.51-0.19-0.39-0.5c0.08-0.2,0.28-0.4,0.48-0.5c0.25-0.13,0.47,0.07,0.6,0.27
		c0.21,0.32,0.32,0.68,0.51,1.02c0.68,1.15,1.9,0.96,3.03,1.35c-0.22-0.82-0.52-1.47-1.28-1.88c-0.23-0.12-0.69-0.32-0.31-0.71
		c0.28-0.29,0.59-0.13,0.82,0.15c0.12,0.15,0.24,0.32,0.33,0.5c0.78,1.45,1.66,2.85,2.3,4.36c0.59,1.38-0.61,3.72-2.02,4.3
		c-0.21,0.09-0.38,0.09-0.51-0.11c-0.08-0.09-0.11-0.19-0.1-0.31c0.08-0.29,0.32-0.45,0.56-0.59c1.24-0.77,1.43-1.94,1.2-3.24
		c-0.22-1.22-1.19-1.61-2.23-1.86c-1.26-0.3-2.16,0.25-2.8,1.31c-0.08,0.14-0.18,0.27-0.28,0.39C13.95,7.55,13.58,7.51,13.34,6.88z"
		/>
	<path class="st5" d="M13.34,6.88c0.27,0.06,0.4,0.58,0.79,0.23c1.56,1.1,3.04,2.27,3.92,4.03c0.01,0.09,0.02,0.18,0.03,0.27
		c-0.29,1.36-0.88,1.85-2.38,1.97c-0.16-0.38-0.44-0.55-0.85-0.5c-1.38-0.35-2.45-1.08-3.01-2.44c-0.21-0.15-0.43-0.31-0.64-0.46
		c-0.32-0.45-0.42-0.91-0.05-1.39c0.24-0.03,0.49-0.02,0.65-0.24c0.1-0.28,0.26-0.51,0.58-0.6C12.7,7.47,13.02,7.18,13.34,6.88z"/>
	<path class="st6" d="M20.28,14.75c0.47,0.06,0.77,0.3,0.76,0.76c0,0.43-0.28,0.63-0.71,0.6c-0.45-0.04-0.77-0.28-0.76-0.74
		C19.6,14.98,19.88,14.75,20.28,14.75z"/>
	<path class="st7" d="M16.88,16.7c-0.1-0.58,0.17-0.78,0.72-0.69c0.16,0.26,0.45,0.51,0.12,0.82C17.41,17.1,17.13,16.89,16.88,16.7z
		"/>
	<path class="st8" d="M9.45,20.08c0.15,0.02,0.3,0.03,0.44,0.05c0.16,0.34,0.27,0.69-0.1,0.97C9.6,21.24,9.4,21.17,9.27,21
		C8.98,20.63,9.13,20.33,9.45,20.08z"/>
	<path class="st0" d="M11.16,8.6c-0.21,0.47,0.56,0.91,0.04,1.39c-0.36,0.27-0.78,0.31-1.22,0.29c-1.3-0.11-2.61-0.15-3.91-0.26
		C4.72,9.9,3.54,8.83,3.41,7.78c1.21-2.63,3.22-3.16,5.53-1.44C9.79,6.98,10.66,7.61,11.16,8.6z"/>
	<path class="st9" d="M3.41,7.78c0.81,1.19,1.83,2,3.37,1.98c1.09-0.01,2.23-0.22,3.21,0.52c-0.53,0.52-1.15,0.84-1.89,0.93
		c-0.36,0.07-0.67,0.4-1.08,0.2c-0.18-0.7-0.78-0.36-1.17-0.43c-1.54-0.26-2.78-1.52-2.63-2.8C3.23,8.05,3.34,7.91,3.41,7.78z"/>
	<path class="st10" d="M7.01,11.41c0.35-0.13,0.69-0.28,1.08-0.2c-1.26,1-2.65,1.88-3.49,3.32c-0.85-0.19-1.88-0.16-1.9-1.45
		c0.68-1.15,1.47-2.03,3.01-1.61C6.12,11.57,6.58,11.43,7.01,11.41z"/>
	<path class="st11" d="M11.84,15.01c-1.1-0.64-1.78-1.68-2.52-2.66c-0.17-0.24-0.69-0.59-0.06-0.8c0.43-0.14,0.89-0.95,1.41-0.15
		c0.66,1.01,1.55,1.81,2.37,2.67C12.95,14.77,12.43,14.94,11.84,15.01z"/>
	<path class="st12" d="M9.16,16.03c-0.91-0.61-1.48-1.51-2.12-2.37c-0.55-0.74,0.16-0.82,0.49-1.13c0.42-0.39,0.7-0.38,0.95,0.19
		c0.44,0.99,1.22,1.74,1.94,2.53C10.35,16.09,9.78,16.1,9.16,16.03z"/>
	<path class="st13" d="M7.3,15.5c0.47,0.45,0.94,0.91,1.54,1.48c-1.37,0.33-2.47,0.32-3.39-0.57c-0.49-0.47-0.47-1.06-0.04-1.6
		C6.28,14.36,6.63,15.37,7.3,15.5z"/>
	<path class="st14" d="M11.85,10.45c0.91,0.92,1.85,1.82,3.01,2.44c-0.25,0.86-0.63,1.02-1.28,0.3c-0.56-0.62-1.16-1.2-1.77-1.77
		C11.42,11.05,11.43,10.75,11.85,10.45z"/>
	<path class="st15" d="M2.7,13.08c0.19,1.06,1.44,0.74,1.9,1.45c-0.08,0.25-0.16,0.5-0.24,0.75C2.83,15.12,2.25,14.36,2.7,13.08z"/>
	<path class="st16" d="M7.3,15.5c-0.79,0.21-1.16-0.73-1.89-0.69c0.12-0.39,0.35-0.7,0.71-1.03C6.52,14.36,6.91,14.93,7.3,15.5z"/>
	<path class="st17" d="M9.16,16.03c0.39-0.31,1.04-0.2,1.27-0.78c0.26,0.27,0.97,0.45,0.54,0.89C10.46,16.67,9.72,16.78,9.16,16.03z
		"/>
	<path class="st18" d="M11.84,15.01c0.4-0.32,0.8-0.63,1.21-0.95c0.43,0.21,0.5,0.48,0.07,0.75C12.73,15.05,12.4,15.83,11.84,15.01z
		"/>
	<path class="st19" d="M12.39,7.76c-0.11,0.27-0.19,0.58-0.58,0.6C11,6.66,9.64,5.53,7.92,4.86C7.24,4.58,7.3,4.36,7.66,3.87
		c1-1.37,1.92-1.51,3.11-0.33C11.92,4.69,12.42,6.14,12.39,7.76z"/>
	<path class="st20" d="M18.05,11.15c-1.12-0.15-0.93-1.47-1.83-1.97c-0.79-0.44-1.66-1.1-2.09-2.06c1.12-1.92,2.28-2.48,3.93-1.88
		c1.12,0.41,1.95,1.09,2.06,2.38c0.11,1.33-0.22,2.45-1.46,3.15C18.45,10.89,18.25,11.02,18.05,11.15z"/>
	<path class="st21" d="M12.77,8.78c0.2-0.29,0.4-0.59,0.62-0.87c0.16-0.2,0.59-0.29,0.59-0.11c0.02,1.01,1.04,1.06,1.5,1.64
		c0.38,0.47,0.95,0.66,1.28,1.36c0.47,1,0.64,1.06-0.59,1.6C14.87,11.34,13.95,9.94,12.77,8.78z"/>
	<path class="st22" d="M12.77,8.78c0.42-0.03,0.87,0.04,1.02,0.44c0.39,1.02,1.35,1.53,1.95,2.36c0.18,0.25,0.45,0.45,0.43,0.81
		c-1.41,0.01-2.25-0.99-3.19-1.8c-0.43-0.37-0.89-0.71-0.8-1.42C12.23,8.71,12.55,8.87,12.77,8.78z"/>
	<path class="st23" d="M18.06,7.71c-0.42-0.45-0.54-0.84-0.37-1.28c0.02-0.05,0.25-0.09,0.29-0.05C18.31,6.73,18.36,7.12,18.06,7.71
		z"/>
	<path class="st24" d="M19.47,7.7c-0.44-0.49-0.57-0.84-0.46-1.34C19.6,6.63,19.61,7.03,19.47,7.7z"/>
</g>
</svg>
