<?xml version="1.0" encoding="utf-8"?>
<!-- Generator: Adobe Illustrator 23.0.2, SVG Export Plug-In . SVG Version: 6.00 Build 0)  -->
<svg version="1.1" id="Camada_1" xmlns="http://www.w3.org/2000/svg" xmlns:xlink="http://www.w3.org/1999/xlink" x="0px" y="0px"
	 viewBox="0 0 23.56 23.56" style="enable-background:new 0 0 23.56 23.56;" xml:space="preserve">
<style type="text/css">
	.st0{fill:#0B080C;}
	.st1{fill:#302D2C;}
	.st2{fill:#367C93;}
	.st3{fill:#2C2929;}
	.st4{fill:#582216;}
	.st5{fill:#DBB93D;}
	.st6{fill:#2F2B27;}
	.st7{fill:#D8B73D;}
	.st8{fill:#DEBE3E;}
	.st9{fill:#CDE3E5;}
	.st10{fill:#FCFCFC;}
	.st11{fill:#ECC840;}
	.st12{fill:#EDC940;}
	.st13{fill:#292629;}
	.st14{fill:#BA8429;}
	.st15{fill:#EBCC41;}
	.st16{fill:#D1E5E8;}
	.st17{fill:#EDCD43;}
	.st18{fill:#BE8729;}
	.st19{fill:#BB8529;}
	.st20{fill:#FEFEFE;}
	.st21{fill:#FCFDFD;}
	.st22{fill:#ECC740;}
	.st23{fill:#D99026;}
	.st24{fill:#B3741B;}
	.st25{fill:#35302E;}
	.st26{fill:#37302E;}
</style>
<g>
	<path class="st0" d="M3.4,10.93C2.42,10.01,2.04,8.86,2.52,7.6c0.6-1.57,1.53-2.94,3.36-3.26c0.57-0.1,0.9-0.28,1.15-0.82
		c0.4-0.84,1.12-1.43,1.9-1.94c0.57-0.37,1.09-0.33,1.66,0.06c1.5,1.01,2.74,2.2,3.12,4.19c0.64-0.65,1.21-1.18,1.91-1.49
		c-0.15-0.46-0.49-0.49-0.78-0.57c-0.52-0.15-0.87-0.48-0.82-1.02c0.05-0.5,0.38-0.89,0.9-1.02c0.55-0.14,0.98,0.19,1.19,0.6
		c0.22,0.42,0.46,0.81,0.73,1.2c0.38,0.55,0.81,0.66,1.41,0.51c-0.13-0.42-0.49-0.52-0.79-0.7c-0.73-0.44-0.69-0.96-0.18-1.58
		c0.54-0.66,0.89-0.19,1.24,0.17c0.73,0.75,1.4,1.55,1.61,2.61c0.08,0.41,0.26,0.71,0.5,1.04c1.56,2.09,1.12,4.84-1.08,6.27
		c-0.74,0.48-0.67,0.72-0.04,1.15c0.66,0.44,1.08,1.15,1.79,1.56c0.46,0.26,1.01,0.67,0.71,1.34c-0.23,0.52-0.7,0.91-1.34,0.81
		c-0.69-0.11-1.18-0.53-1.31-1.22c-0.34-1.78-1.59-2.39-3.05-1.42c-0.24,0.16-0.67,0.43-0.43,0.86c0.17,0.3,0.46,0.59,0.89,0.4
		c0.59-0.27,1.09-0.04,1.56,0.28c0.52,0.35,0.79,0.85,0.4,1.43c-0.39,0.58-0.98,0.73-1.55,0.26c-0.78-0.64-2.05-0.46-2.57-1.55
		c-0.08-0.16-1.85,1.07-1.75,1.3c0.34,0.76-0.19,1.6,0.31,2.33c0.26,0.38,0.26,0.86-0.11,1.21c-0.33,0.31-0.74,0.3-1.11,0.07
		c-0.43-0.27-0.78-0.63-0.6-1.18c0.13-0.39,0.23-0.76,0.17-1.16c-0.04-0.26,0.01-0.62-0.44-0.5c-0.31,0.08-0.64,0.17-0.51,0.63
		c0.16,0.57,0.35,1.14,0.46,1.73c0.14,0.69-0.2,1.25-0.71,1.65c-0.24,0.19-0.66,0.15-0.86-0.14c-0.34-0.5-0.77-0.94-0.27-1.7
		c0.58-0.88,0.03-1.5-0.98-1.62c-1.77-0.21-3.38,0.2-4.96,0.9c-0.24,0.11-0.51,0.35-0.73,0.01c-0.17-0.26-0.08-0.55,0.07-0.79
		c0.28-0.44,0.56-0.88,0.89-1.28c0.41-0.51,0.63-0.93-0.24-1.16C3.1,16.01,3,15.93,2.9,15.86c-1.39-0.92-1.63-2.05-0.69-3.43
		C2.56,11.91,2.99,11.44,3.4,10.93z"/>
	<path class="st1" d="M17.29,16.82c-0.73-0.68-1.9-0.55-2.53-1.54c-0.27-0.42-2.39,1.28-2.34,1.91c0.05,0.67,0.06,1.34,0.07,2.02
		c0,0.28-0.03,0.64-0.38,0.62c-0.45-0.03-0.26-0.37-0.19-0.63c0.03-0.11,0.09-0.23,0.08-0.34c-0.04-0.54,0.28-1.29-0.24-1.54
		c-0.39-0.19-1.04,0.13-1.56,0.26c-0.44,0.11-0.18,0.42-0.14,0.67c0.09,0.66,0.41,1.3,0.25,1.99c-0.16,0.1-0.31,0.09-0.44-0.05
		c-0.02-0.44-0.01-0.88-0.08-1.3c-0.15-0.91-0.61-1.08-1.58-1.05c-1.69,0.05-3.33,0.13-5.09,1.02c0.4-1.14,1.08-1.77,1.49-2.55
		c0.08-0.33-0.11-0.64-0.03-0.97c0.03-0.29,0.13-0.55,0.26-0.8c0.81-1.52,2.16-2.48,3.57-3.36c0.23-0.09,0.46-0.09,0.69-0.03
		c0.23,0.07,0.43,0.18,0.58,0.36c0.43,1.52,1.66,2.4,2.7,3.43c0.81,0.37,0.99-0.26,1.24-0.78c0.19-0.29,0.48-0.44,0.77-0.61
		c0.4-0.19,0.69-0.59,1.15-0.69c0.39,0.05,0.73,0.15,0.59,0.67c-0.46,0.38-1.06,0.88-0.73,1.42c0.33,0.55,0.76,1.52,1.83,0.84
		c0.15-0.1,0.63,0.01,0.8,0.36C17.79,16.37,17.55,16.61,17.29,16.82z"/>
	<path class="st2" d="M4.77,15.39C4.75,15.7,4.92,16.05,4.6,16.3c-0.08-0.09-0.13-0.22-0.23-0.26c-3.27-1.16-2.57-3.12-0.36-4.82
		c0.06-0.05,0.11-0.11,0.24-0.26c-1.19-0.81-1.79-1.92-1.21-3.33c0.63-1.53,1.53-2.83,3.43-2.87c0.49-0.01,0.63-0.33,0.83-0.71
		c1.29-2.48,2.87-2.66,4.75-0.6c0.86,0.94,1,2.24,1.68,3.27c0.07,0.1,0.11,0.2,0.11,0.33c-0.22,0.5-0.5,0.93-1.13,0.91
		c-0.4-0.94-0.33-2.02-0.89-2.93c-0.36-0.58-0.72-1.13-1.28-1.54C9.92,3.02,9.36,3.13,8.82,3.6C8.24,4.1,8.13,4.52,8.95,4.93
		c1.08,0.53,2.01,1.28,2.76,2.22c0.32,0.4,0.63,0.83,0.63,1.38c-0.16,0.33-0.44,0.35-0.75,0.28c-0.83-0.62-1.45-1.45-2.29-2.06
		C7.1,5.16,5.23,5.61,4.08,8.04c-0.18,1.44,0.69,2.44,2.3,2.7c0.48,0.08,1.23-0.16,1.16,0.78c-0.37,0.39-0.88,0.37-1.32,0.29
		c-1.32-0.22-2.18,0.35-2.8,1.44c-0.43,0.71-0.01,1.15,0.48,1.58C4.17,15.06,4.55,15.1,4.77,15.39z"/>
	<path class="st3" d="M13.75,7c-0.01-0.09-0.02-0.18-0.03-0.27c0.71-0.67,1.2-1.55,2.19-1.97c0.79-0.33,0.19-0.78-0.15-1.07
		c-0.23-0.2-0.57-0.26-0.84-0.41c-0.2-0.11-0.51-0.2-0.39-0.5c0.08-0.2,0.28-0.4,0.48-0.5c0.25-0.13,0.47,0.08,0.6,0.27
		c0.2,0.32,0.32,0.68,0.52,1.02c0.68,1.16,1.9,0.95,3.03,1.35c-0.23-0.83-0.52-1.48-1.29-1.89c-0.23-0.12-0.68-0.32-0.3-0.71
		c0.28-0.28,0.61-0.13,0.81,0.17c0.51,0.75,1.17,1.41,1.32,2.37c0.13,0.84,0.91,1.34,1.21,2.12c0.64,1.63-0.28,3.97-1.91,4.65
		c-0.21,0.09-0.38,0.09-0.51-0.11c-0.08-0.09-0.12-0.19-0.1-0.31c0.08-0.3,0.32-0.45,0.56-0.59c1.24-0.77,1.43-1.94,1.2-3.24
		c-0.22-1.22-1.19-1.61-2.23-1.86c-1.26-0.3-2.16,0.25-2.8,1.31c-0.08,0.14-0.18,0.27-0.28,0.39C14.36,7.67,13.99,7.62,13.75,7z"/>
	<path class="st4" d="M13.75,7c0.27,0.06,0.4,0.58,0.79,0.23c1.56,1.1,3.04,2.27,3.92,4.03c0.01,0.09,0.02,0.18,0.03,0.27
		c-0.39,0.24,0.11,0.71-0.25,0.97c-0.11,0.17-0.27,0.25-0.48,0.25c-0.52,0.32-0.9,0.95-1.66,0.75c-0.16-0.38-0.44-0.55-0.85-0.5
		c-1.41-0.23-2.23-1.29-3.16-2.21c-0.21-0.17-0.5-0.24-0.66-0.48c-0.07-0.54-0.27-1.1,0.13-1.61c0.24-0.03,0.49-0.02,0.65-0.24
		c0.1-0.28,0.26-0.51,0.58-0.6C13.12,7.58,13.44,7.29,13.75,7z"/>
	<path class="st5" d="M20.9,14.86c0.47,0.25,0.77,0.59,0.45,1.12c-0.22,0.36-0.61,0.33-0.94,0.15c-0.54-0.29-0.52-0.71-0.19-1.17
		C20.4,14.66,20.65,14.79,20.9,14.86z"/>
	<path class="st6" d="M20.9,14.86c-0.23,0.03-0.45,0.07-0.68,0.1c-0.52-1.06-1.68-1.43-2.45-2.22c0.1-0.2,0.28-0.24,0.48-0.25
		C19.13,13.29,20.01,14.07,20.9,14.86z"/>
	<path class="st7" d="M17.29,16.82c-0.1-0.58,0.17-0.78,0.72-0.69c0.16,0.26,0.45,0.51,0.12,0.82C17.82,17.22,17.55,17,17.29,16.82z
		"/>
	<path class="st8" d="M9.86,20.19c0.15,0.02,0.3,0.03,0.44,0.05c0.16,0.34,0.27,0.69-0.1,0.97c-0.19,0.14-0.39,0.08-0.52-0.1
		C9.4,20.74,9.55,20.45,9.86,20.19z"/>
	<path class="st9" d="M7.43,11.52c-0.18-0.7-0.78-0.36-1.17-0.43c-1.54-0.26-2.78-1.52-2.63-2.8c0.02-0.14,0.13-0.27,0.2-0.41
		c0.24,0.06,0.44,0.2,0.61,0.37C5.45,9.32,6.7,9.65,8.14,9.55c0.79-0.05,1.62-0.08,2.21,0.65c0.1,0.93-0.57,0.99-1.22,1.07
		c-0.21,0.02-0.41,0.04-0.62,0.06C8.15,11.4,7.84,11.72,7.43,11.52z"/>
	<path class="st10" d="M7.43,11.52c0.35-0.13,0.69-0.28,1.08-0.2c-1.25,1.01-2.66,1.85-3.47,3.33c-0.87-0.19-1.9-0.16-1.92-1.46
		c0.68-1.15,1.47-2.03,3.01-1.61C6.53,11.68,6.99,11.55,7.43,11.52z"/>
	<path class="st11" d="M12.26,15.13c-1.18-0.7-1.87-1.86-2.71-2.89c-0.25-0.31-0.1-0.48,0.12-0.68c0.91-0.78,1.2-0.83,1.82,0.03
		c0.65,0.9,1.75,1.42,2.08,2.56C13.38,14.82,12.89,15.06,12.26,15.13z"/>
	<path class="st12" d="M9.58,16.15c-0.91-0.61-1.48-1.51-2.12-2.37c-0.55-0.74,0.16-0.82,0.49-1.13c0.42-0.39,0.7-0.38,0.95,0.19
		c0.44,0.99,1.22,1.74,1.94,2.53C10.77,16.2,10.2,16.21,9.58,16.15z"/>
	<path class="st13" d="M13.47,14.18c-0.79-0.84-1.71-1.57-2.28-2.58c-0.52-0.92-1.01,0.05-1.51-0.04c-0.22-0.03-0.44-0.06-0.55-0.3
		c0.36-0.39,0.99-0.39,1.28-0.87c0.31-0.38,0.67-0.35,1.05-0.12c0.28,0.07,0.6,0.01,0.8,0.28c-0.05,0.62,0.32,1,0.7,1.42
		c0.52,0.57,1.27,0.95,1.46,1.79c-0.25,0.14-0.51,0.29-0.76,0.43C13.58,14.29,13.52,14.27,13.47,14.18z"/>
	<path class="st14" d="M7.71,15.61c0.47,0.45,0.94,0.91,1.54,1.48c-1.37,0.33-2.47,0.32-3.39-0.57c-0.49-0.47-0.47-1.06-0.04-1.6
		C6.7,14.47,7.05,15.48,7.71,15.61z"/>
	<path class="st15" d="M14.42,13.77c-0.71-0.73-1.4-1.47-2.14-2.18c-0.38-0.37-0.53-0.68-0.02-1.03c0.91,0.93,1.85,1.83,3.01,2.45
		C15.16,13.46,14.95,13.79,14.42,13.77z"/>
	<path class="st16" d="M3.12,13.19c0.21,1.05,1.44,0.77,1.92,1.46c-0.09,0.25-0.18,0.49-0.27,0.74C3.25,15.24,2.67,14.47,3.12,13.19
		z"/>
	<path class="st17" d="M7.71,15.61c-0.79,0.21-1.16-0.73-1.89-0.69c0.12-0.39,0.35-0.7,0.71-1.03C6.93,14.48,7.32,15.05,7.71,15.61z
		"/>
	<path class="st18" d="M9.58,16.15c0.39-0.31,1.04-0.2,1.27-0.78c0.26,0.27,0.97,0.45,0.54,0.89C10.88,16.78,10.13,16.9,9.58,16.15z
		"/>
	<path class="st19" d="M13.47,14.18c0.06,0.01,0.13,0.01,0.19,0.02c0.44,0.67-0.26,0.78-0.54,1.07c-0.32,0.32-0.63,0.29-0.85-0.14
		C12.66,14.81,13.07,14.49,13.47,14.18z"/>
	<path class="st20" d="M11.46,10.28c-0.35,0.04-0.7,0.08-1.05,0.12C9.43,9.65,8.29,9.86,7.2,9.87c-1.55,0.02-2.56-0.8-3.37-1.98
		c1.21-2.61,3.2-3.15,5.5-1.46c0.87,0.64,1.75,1.28,2.25,2.28C11.46,9.23,12.13,9.8,11.46,10.28z"/>
	<path class="st21" d="M12.8,7.88c-0.11,0.27-0.19,0.58-0.58,0.6c-0.81-1.7-2.17-2.83-3.89-3.5C7.65,4.7,7.72,4.47,8.07,3.98
		c1-1.37,1.92-1.51,3.11-0.32C12.34,4.81,12.83,6.25,12.8,7.88z"/>
	<path class="st22" d="M18.47,11.26c-1.12-0.14-0.93-1.47-1.83-1.97c-0.79-0.44-1.66-1.1-2.09-2.06c1.17-2,2.4-2.51,4.16-1.79
		c1.1,0.45,1.78,1.21,1.85,2.41c0.07,1.22-0.24,2.3-1.38,2.98C18.94,10.97,18.7,11.12,18.47,11.26z"/>
	<path class="st23" d="M13.18,8.89c0.21-0.29,0.4-0.59,0.62-0.87c0.16-0.2,0.59-0.29,0.59-0.11c0.02,1.01,1.04,1.06,1.5,1.64
		c0.38,0.47,0.95,0.66,1.28,1.36c0.47,0.99,0.64,1.06-0.59,1.6C15.29,11.45,14.37,10.05,13.18,8.89z"/>
	<path class="st24" d="M13.18,8.89c0.42-0.03,0.87,0.04,1.02,0.44c0.39,1.02,1.35,1.54,1.95,2.36c0.18,0.25,0.45,0.45,0.43,0.81
		c-1.41,0.01-2.25-0.99-3.19-1.8c-0.43-0.37-0.89-0.71-0.8-1.42C12.64,8.82,12.96,8.98,13.18,8.89z"/>
	<path class="st25" d="M18.41,7.75c-0.37-0.37-0.48-0.76-0.32-1.2c0.07-0.18,0.32-0.12,0.38,0C18.67,6.93,18.86,7.34,18.41,7.75z"/>
	<path class="st26" d="M19.41,6.45C20,6.76,20.03,7.15,19.9,7.7C19.39,7.39,19.35,7,19.41,6.45z"/>
</g>
</svg>
