<?xml version="1.0" encoding="utf-8"?>
<!-- Generator: Adobe Illustrator 23.0.2, SVG Export Plug-In . SVG Version: 6.00 Build 0)  -->
<svg version="1.1" id="Camada_1" xmlns="http://www.w3.org/2000/svg" xmlns:xlink="http://www.w3.org/1999/xlink" x="0px" y="0px"
	 viewBox="0 0 344.13 221.55" style="enable-background:new 0 0 344.13 221.55;" xml:space="preserve">
<style type="text/css">
	.st0{fill:#FEFEFE;}
	.st1{fill:#1D1D1D;}
	.st2{fill:#403A67;}
	.st3{fill:#35677C;}
	.st4{fill:#363151;}
	.st5{fill:#1369B0;}
	.st6{fill:#1D6CB1;}
	.st7{fill:#3176B8;}
	.st8{fill:#17578D;}
	.st9{fill:#2F73B6;}
	.st10{fill:#2E3D61;}
	.st11{fill:#246199;}
	.st12{fill:#417DB9;}
	.st13{fill:#2A2C40;}
	.st14{fill:#1369AF;}
	.st15{fill:#17578E;}
	.st16{fill:#175080;}
	.st17{fill:#958FBC;}
	.st18{fill:#86AFC0;}
	.st19{fill:#756EA6;}
	.st20{fill:#BAB5D7;}
	.st21{fill:#BBB6D7;}
	.st22{fill:#BBB5D7;}
	.st23{fill:#C4BEDE;}
	.st24{fill:#B8B2D5;}
	.st25{fill:#433D6A;}
	.st26{fill:#46436E;}
	.st27{fill:#B5B0D3;}
	.st28{fill:#B7B1D4;}
	.st29{fill:#756EA5;}
	.st30{fill:#47406E;}
	.st31{fill:#928CB9;}
	.st32{fill:#474170;}
	.st33{fill:#B0AACE;}
	.st34{fill:#5D5682;}
	.st35{fill:#48416E;}
	.st36{fill:#4B4572;}
	.st37{fill:#ADA8CD;}
	.st38{fill:#90B5C5;}
	.st39{fill:#4F4F78;}
	.st40{fill:#8C86B3;}
	.st41{fill:#5C5582;}
	.st42{fill:#4E4775;}
	.st43{fill:#504977;}
	.st44{fill:#4D4B75;}
	.st45{fill:#AAA4CA;}
	.st46{fill:#938CB9;}
	.st47{fill:#4F4875;}
	.st48{fill:#46406D;}
	.st49{fill:#5A5380;}
	.st50{fill:#ADA7CC;}
	.st51{fill:#504976;}
	.st52{fill:#A8A2C8;}
	.st53{fill:#B0AACF;}
	.st54{fill:#90AFC1;}
	.st55{fill:#5B5380;}
	.st56{fill:#A099C2;}
	.st57{fill:#9FC0CF;}
	.st58{fill:#AEA8CB;}
	.st59{fill:#7F78A5;}
	.st60{fill:#928BB1;}
	.st61{fill:#9D96BB;}
	.st62{fill:#7B74A2;}
	.st63{fill:#5C5586;}
	.st64{fill:#827BAA;}
	.st65{fill:#5C5480;}
	.st66{fill:#AAA3C7;}
	.st67{fill:#BFD9E4;}
	.st68{fill:#9CCEF2;}
	.st69{fill:#FBFCFD;}
	.st70{fill:#78AFE0;}
	.st71{fill:#5082C1;}
	.st72{fill:#9ACCF1;}
	.st73{fill:#9CCDF1;}
	.st74{fill:#3579BB;}
	.st75{fill:#EAF1FA;}
	.st76{fill:#361B14;}
	.st77{fill:#FEFDFE;}
	.st78{fill:#453E6C;}
	.st79{fill:#FDFDFD;}
	.st80{fill:#9A93BF;}
	.st81{fill:#4E4977;}
	.st82{fill:#4C4573;}
	.st83{fill:#736691;}
	.st84{fill:#585482;}
	.st85{fill:#B4AFD2;}
	.st86{fill:#544D7A;}
	.st87{fill:#635C8A;}
	.st88{fill:#766D9F;}
	.st89{fill:#7F78AC;}
	.st90{fill:#505580;}
	.st91{fill:#857DAE;}
	.st92{fill:#462E2D;}
	.st93{fill:#827BAE;}
	.st94{fill:#514A78;}
	.st95{fill:#534C7A;}
	.st96{fill:#625B88;}
	.st97{fill:#837491;}
	.st98{fill:#5F5885;}
	.st99{fill:#857EAB;}
	.st100{fill:#8A83B0;}
	.st101{fill:#BBD6E1;}
	.st102{fill:#D7EAF7;}
	.st103{fill:#7984A2;}
	.st104{fill:#CEE3F0;}
	.st105{fill:#F0F5FB;}
	.st106{fill:#2A72B6;}
	.st107{fill:#F2EFEF;}
	.st108{fill:#514354;}
	.st109{fill:#2A72B5;}
	.st110{fill:#F3F1F0;}
	.st111{fill:#ECE8E8;}
	.st112{fill:#E2DFE6;}
	.st113{fill:#9ACAEE;}
	.st114{fill:#8885B1;}
</style>
<g>
	<path class="st0" d="M83.42,55.31c-4.25-1.34-6.98-3.9-9.42-6.94c-3.63-4.51-1.9-11.14,2.66-13.46c6.02-3.07,12.13-3.45,18,0.59
		c0.38,0.26,0.68,0.78,1.21,0.31c0.48-0.42,0.16-0.88,0.01-1.32c-1.83-5.52-2.94-11.17-3.42-16.98c-0.25-2.99-0.5-5.93,0.06-8.92
		c1.11-5.84,7.66-9.45,13.53-8.41c7.69,1.36,11.76,6.26,13.72,13.42c0.98,3.59,1.08,7.19,0.55,10.84c-0.11,0.75-0.02,1.52-0.02,2.47
		c1.61-1.08,3.24-1.72,5-2.11c5.97-1.32,10.98,1.85,11.73,7.91c0.38,3.05,0.42,6.21-0.22,9.31c-0.96,4.67-3.48,8.46-6.59,11.95
		c-0.54,0.61-1.29,1.05-1.73,2.08c3.9,0.32,7.58,1.29,11.32,1.96c8.47,1.53,16.96,2.96,25.22,5.42c4.52,1.34,8.77,3.46,13.06,5.42
		c5.05,2.31,10.36,4.06,15.18,6.84c7.56,4.35,15.53,8.02,22.51,13.3c5.77,4.37,11.29,9.07,16.93,13.62
		c1.68,1.36,3.49,2.52,5.37,3.59c3.13,1.78,5.92,4.06,8.86,6.12c3.37,2.37,7.22,3.68,10.9,5.37c1.6,0.73,3.37,0.72,5.08,0.07
		c3.42-1.3,6.45-3.11,8.37-6.39c0.6-1.03,0.46-1.65-0.61-2.28c-10.16-5.94-16.59-15.05-21.08-25.58c-1.87-4.38-2.86-9.21-2.57-14.02
		c0.51-8.15,2.21-16.08,5.67-23.56c0.95-2.05,2.39-3.73,3.94-5.31c3.87-3.94,7.5-8.07,10.73-12.54c0.81-1.13,1.31-2.42,2.05-3.56
		c3.28-5.03,9.6-5.79,14.15-1.71c3.92,3.52,6.43,7.99,8.33,12.83c0.44,1.11,0.76,2.27,1.19,3.6c3.34-2.6,6.98-4.46,10.71-6.14
		c3.37-1.52,6.87-2.76,10.24-4.28c3.77-1.7,7.29-3.86,10.5-6.49c3.46-2.84,7.2-2.44,11.01-0.98c3.51,1.35,4.65,4.4,4.97,7.71
		c0.54,5.65,1.38,11.24,2.56,16.79c1.29,6.08,1.19,12.21,0.86,18.38c-0.37,6.92-2.46,13.31-5.79,19.23
		c-2.35,4.17-5.9,7.49-9.4,10.77c-4.12,3.85-8.35,7.55-13.31,10.3c-0.93,0.52-0.86,1.26-0.72,1.98c0.46,2.44,0.3,4.89,0.32,7.34
		c0.06,9.62-2.99,18.25-9.46,25.25c-4.86,5.26-10.6,9.68-17,13.11c-3.95,2.11-7.81,4.4-11.82,6.38c-4.17,2.07-8.36,4.08-12.53,6.57
		c3.08,1.32,6.02,2.68,8.79,4.35c2.66,1.61,5.44,3.04,7.32,5.68c2.74,3.86,1.59,8.8-2.36,11.33c-7.86,5.03-16.49,8-25.46,10.29
		c-3.53,0.9-7.06,2.08-10.66,2.2c-4.51,0.14-9.04,0.49-13.57-0.13c-2.6-0.36-5.26-0.04-7.89-0.4c-3.72-0.5-7.53-0.43-11.15-1.53
		c-2.23-0.68-3.9,0.26-5.72,1.14c-5.26,2.55-10.16,5.92-15.7,7.8c-5.72,1.94-11.38,4.05-17.03,6.16c-7.48,2.8-15.09,4.99-22.95,6.34
		c-4.41,0.76-8.85,1.31-13.31,1.69c-7.22,0.61-14.42,1.4-21.67,1.43c-6.66,0.03-13.32,0.13-19.98-0.13
		c-4.28-0.16-8.54-0.9-12.8-1.38c-7.02-0.79-14.01-1.87-20.66-4.31c-8.2-3.01-16.37-6.25-23.31-11.67
		c-5.65-4.42-11.6-8.5-16.65-13.67c-4.35-4.45-7.6-9.68-10.9-14.89c-1.57-2.48-2.52-5.14-2.94-8.01c-0.24-1.67-1.19-3.1-2.19-4.22
		c-4.37-4.9-4.62-13.82-0.23-18.51c0.39-0.42,0.78-0.84,0.78-1.54c-0.02-5.99,1.55-11.71,3.06-17.43
		c3.36-12.73,9.37-24.13,17.45-34.49c3.69-4.73,7.42-9.4,11.77-13.55c9.54-9.1,20.61-15.47,33.34-18.93
		C74,57.57,78.35,56.09,83.42,55.31z"/>
	<path class="st1" d="M290.68,45.76c4.43-3.93,9.14-7.06,14.37-9.34c3.66-1.6,7.39-3.03,11.04-4.66c3.94-1.77,7.51-4.17,10.94-6.8
		c3.68-2.83,9.47-0.61,9.85,3.94c0.55,6.62,1.83,13.11,3.01,19.62c0.97,5.36,0.59,10.71,0.39,16.09
		c-0.23,6.22-2.32,11.88-5.31,17.12c-2.17,3.82-5.54,6.84-8.76,9.88c-4.32,4.07-8.83,7.87-14.08,10.71
		c-0.87,0.47-1.15,1.02-1.1,1.98c0.14,3.17,0.35,6.33,0.46,9.5c0.17,4.93-1.31,9.37-2.91,13.92c-2.35,6.65-7.5,10.78-12.55,15.09
		c-4.26,3.64-9.16,6.27-14.09,8.84c-8.53,4.43-17.04,8.88-25.56,13.33c-0.15,0.08-0.26,0.22-0.52,0.44
		c4.46,1.86,8.82,3.68,13.01,5.86c2.23,1.16,4.41,2.4,6.44,3.88c1.27,0.92,2.46,1.97,2.83,3.59c0.39,1.7,0.12,3.3-1.46,4.28
		c-6.83,4.24-13.95,7.81-21.95,9.33c-3.22,0.61-6.2,2.14-9.5,2.56c-5.64,0.72-11.27,0.77-16.92,0.29c-2.56-0.22-5.14-0.04-7.72-0.35
		c-4.32-0.52-8.69-0.68-12.91-1.86c-2.44-0.68-4,1.12-5.86,1.97c-5.27,2.38-10.07,5.82-15.56,7.67c-6.85,2.31-13.59,4.9-20.38,7.36
		c-9,3.26-18.29,4.98-27.75,6.12c-15.03,1.82-30.12,2.05-45.22,1.62c-5.64-0.16-11.25-1.29-16.88-1.91
		c-5.19-0.57-10.31-1.6-15.19-3.41c-7.95-2.96-15.95-6.02-22.67-11.32c-5.95-4.69-12.34-8.91-17.43-14.63
		c-4.16-4.66-7.44-9.94-10.49-15.36c-0.52-0.92-0.73-2.01-0.91-3.08c-0.5-3.05-1.74-5.73-3.88-8.02c-2.87-3.08-2.43-9.98,0.88-13.37
		c0.87-0.89,1.21-1.78,1.23-3c0.13-8.17,2.39-15.89,5-23.56c2.58-7.59,6.2-14.62,10.78-21.16c4.85-6.91,9.98-13.59,16.19-19.38
		c9.09-8.49,19.67-14.27,31.64-17.56c4.61-1.26,9.18-2.71,13.92-3.44c1.65-0.25,3.29-0.63,4.97-0.56c2.76,0.11,5.47-0.51,8.2-0.64
		c3.51-0.16,7.08,0,10.57,0.4c2.5,0.29,5.01,0.25,7.51,0.48c5.06,0.47,10.09,1,15.1,1.85c9.18,1.56,18.31,3.35,27.42,5.26
		c5.06,1.06,9.79,3.11,14.44,5.28c6.05,2.83,12.45,4.91,18.28,8.22c7.99,4.54,16.37,8.46,23.66,14.14c5.09,3.97,10,8.17,15.02,12.24
		c1.07,0.86,2.19,1.68,3.37,2.38c4.58,2.73,8.68,6.18,13.26,8.87c3.77,2.22,7.75,4.23,12.11,5.12c3.66,0.75,6.72-0.97,9.73-2.69
		c3.67-2.1,5.75-5.42,7.26-9.25c0.67-1.69-0.56-2-1.47-2.49c-4.05-2.16-7.78-4.73-10.8-8.2c-6.15-7.07-11.31-14.63-12.77-24.22
		c-0.73-4.83-0.02-9.52,0.81-14.22c0.68-3.83,1.89-7.52,3.3-11.16c0.93-2.41,2.34-4.43,4.12-6.22c4.43-4.47,8.53-9.21,12.07-14.43
		c0.52-0.76,0.72-1.63,1.22-2.38c2-3.02,5.83-3.49,8.55-1.01c5.01,4.58,7.63,10.47,9.13,16.94
		C290.37,43.33,290.47,44.4,290.68,45.76z"/>
	<path class="st1" d="M117,20.21c-0.43,5.64-0.14,11.35-1.8,16.88c-0.57,1.91-1.31,3.73-2.28,5.44c-1.07,1.88-2.79,2.69-4.99,2.52
		c-2.35-0.18-4.11-1.26-5.11-3.39c-2.98-6.34-5.49-12.83-6.36-19.85c-0.45-3.68-0.84-7.36-0.71-11.08
		c0.17-4.73,5.04-8.01,10.13-7.01c5.68,1.12,8.64,4.94,10.29,10.09C116.84,15.88,117.25,18.01,117,20.21z"/>
	<path class="st1" d="M133.56,37.19c0.64,5.65-2.29,10.27-6.17,14.47c-1.54,1.67-3.16,3.28-5.1,4.51c-1.71,1.08-3.6,1.99-5.54,1.01
		c-2.11-1.06-3.24-3.1-3.32-5.43c-0.29-8.17,2.51-15.2,8.14-21.12c1.33-1.4,2.99-2.21,4.87-2.48c4.43-0.65,7.12,1.75,7.14,6.27
		C133.56,35.2,133.56,35.98,133.56,37.19z"/>
	<path class="st1" d="M86.04,36.38c3.89-0.59,6.75,1.6,8.96,4.98c1.7,2.6,3.16,5.34,4.09,8.31c0.54,1.73,0.52,3.52-0.88,4.84
		c-1.35,1.27-3.06,1.2-4.73,0.62c-3.43-1.2-6.85-2.4-10.26-3.67c-3.17-1.18-5.32-3.62-7.09-6.34c-1.5-2.29-0.15-5.81,2.57-7.32
		C80.82,36.64,82.01,36.39,86.04,36.38z"/>
	<path class="st2" d="M249.1,166.72c6.42,2.43,12.65,5.27,18.81,8.28c2.11,1.03,3.92,2.49,5.9,3.71c1.28,0.79,0.38,1.27-0.37,1.77
		c-5.8,3.85-12.06,6.54-18.9,7.92c-3.5,0.7-6.7,2.53-10.38,2.62c-2.26,0.06-4.52,0.53-6.77,0.51c-5.86-0.04-11.75,0.47-17.58-0.36
		c-4.48-0.64-8.99-1.13-13.37-2.37c-0.4-0.11-0.83-0.1-1.24-0.15c-0.83-1.16-2.5-1.2-3.24-2.47c-0.93-0.66-1.99-1.07-3-1.57
		c-1.36-0.64-2.61-1.49-3.95-2.15c-5.08-2.81-10.18-5.65-14.96-8.92c-5.42-3.71-10.62-7.78-14.89-12.87
		c-0.88-1.05-1.89-2.01-2.93-2.91c-0.64-0.53-0.91-1.33-1.45-1.94c-0.15-0.18-0.28-0.37-0.4-0.57c-0.12-0.19-0.24-0.39-0.38-0.57
		c-1.66,0.3-3.05,1.24-4.52,1.93c-2.71,1.27-5.35,2.69-8.05,4c-4.01,1.71-8.11,3.1-12.45,3.71c-0.7,0-1.4,0.06-2.06,0.3
		c-5.02,0.75-10.02,1.67-15.06,2.29c-0.99,0.12-1.89-0.14-2.83-0.27c-0.67-0.1-1.55-0.78-1.83,0.66c-0.1,0.52-0.98,0.57-1.58,0.64
		c-5.35,0.59-10.7,1.06-16.08,1.09c-8.69,0.04-17.39-0.29-26.06,0.11c-7.88,0.37-15.59-0.89-23.37-1.45
		c-5.02-0.36-9.94-1.32-14.92-1.88c-0.36,0.03-0.73,0.05-1.07-0.04c-3.88-1.02-7.9-1.39-11.77-2.46c-1.49-0.79-3.14-1.09-4.71-1.66
		c-0.9-0.33-1.8-0.65-2.47-1.38c-0.84-0.74-1.59-1.57-2.4-2.34c-2.13-2-1.66-7.34,0.78-9.02c1.24-0.85,1.64-1.8,1.67-3.27
		c0.15-7.84,1.99-15.36,4.45-22.77c2.29-6.91,5.35-13.44,9.39-19.51c3.28-4.93,6.82-9.67,10.63-14.21
		c7.16-8.52,15.8-15.21,25.94-19.75c7.66-3.43,15.8-5.55,24.06-7.01c5.65-1,11.41-1.36,17.15-1.12c10.44,0.45,20.83,1.15,31.16,3.05
		c8.04,1.48,16.04,3.13,24.08,4.63c5.68,1.06,10.78,3.89,16.07,6.12c4.19,1.76,8.43,3.45,12.52,5.43c3.88,1.88,7.62,4.03,11.36,6.17
		c4.78,2.73,9.73,5.19,14.07,8.62c5.07,4,10.25,7.86,15.04,12.2c2.28,2.06,4.85,3.7,7.47,5.26c3.66,2.17,7.03,4.77,10.59,7.09
		c2.73,1.78,5.97,2.44,8.76,4.06c2.14,1.24,4.57,1.33,6.9,1.72c1.46,0.25,2.93-0.48,4.33-0.94c7.93-2.61,13.1-7.84,15.07-16.08
		c0.32-1.34,0.28-2.17-1.13-2.9c-2.28-1.18-4.38-2.69-6.61-3.98c-4.49-2.61-7.23-6.86-10.36-10.78c-4.62-5.79-7.11-12.45-7.86-19.72
		c-0.24-2.38,0.42-4.85,0.73-7.27c0.61-4.65,2.12-9.07,3.64-13.48c0.48-1.39,1.18-2.62,2.22-3.64c4.7-4.63,8.99-9.61,12.82-14.99
		c0.73-1.02,1.4-2.09,1.97-3.21c0.66-1.29,1.53-1.38,2.63-0.65c2.27,1.51,3.6,3.81,4.89,6.09c2.83,5,4.19,10.4,4.1,16.15
		c-0.01,0.54,0.01,1.08,0.01,1.62c0,0.6,0.29,1.06,0.8,1.31c0.61,0.29,1.02-0.12,1.35-0.57c3.8-5.15,9.14-8.44,14.51-11.54
		c3.17-1.82,6.61-3.26,10.2-4.34c4.68-1.4,8.73-4.17,12.73-6.93c0.94-0.64,1.79-1.42,2.76-2c1.47-0.89,3.61,0.07,3.67,1.76
		c0.17,5.16,1.29,10.17,2.23,15.21c1.14,6.13,1.55,12.25,1.18,18.52c-0.45,7.8-3.01,14.6-8.02,20.47
		c-5.43,6.37-11.84,11.6-19.04,15.89c-1.62,0.97-2.6,2.16-2.34,4.48c0.49,4.51,0.71,9.07,0.47,13.63c-0.1,1.81-0.72,3.52-1.41,5.17
		c-1.79,4.29-3.24,8.73-6.86,12.05c-5.68,5.21-11.67,9.9-18.65,13.27c-2.8,1.35-5.41,3.13-8.24,4.4
		c-7.83,3.49-15.14,7.98-22.9,11.58c-0.8,0.37-2.25-0.07-2.38,1.46C247.81,166.14,248.51,166.35,249.1,166.72z"/>
	<path class="st3" d="M11.13,160.24c2.36,0.96,4.89,1.44,7.18,2.61c-0.8,0.82-0.81,1.64-0.43,2.75c2.23,6.5,6.19,11.82,10.82,16.77
		c4.77,5.11,10.3,9.11,16.53,12.22c3.6,1.79,6.75,4.34,10.35,6.16c8.18,4.13,16.87,6.44,25.92,7.62c6.72,0.88,13.47,1.21,20.22,1.7
		c2.8,0.21,5.63,0.29,8.43-0.17c0.65-0.11,1.31-0.11,1.97-0.11c2.63-0.01,5.27,0.12,7.88-0.38c12.14-0.3,24.1-1.84,35.83-5.09
		c5.95-1.65,11.86-3.4,17.66-5.52c7.54-2.41,14.75-5.62,21.98-8.82c2.46-1.09,4.85-2.27,6.83-4.16c0.41,0.84,1.2,1.15,1.99,1.52
		c0.5,0.23,1.42,0.31,0.92,1.31c-1.03,0.84-2.15,1.52-3.35,2.07c-5.61,2.58-10.76,6.14-16.57,8.22
		c-10.75,3.84-21.19,8.59-32.4,11.05c-6.13,1.35-12.33,2.18-18.58,2.87c-12.41,1.37-24.85,1.51-37.31,1.35
		c-6.83-0.09-13.57-1.1-20.33-1.95c-5.48-0.69-10.87-1.78-16.01-3.8c-8.32-3.28-16.41-6.93-23.35-12.81
		c-3.46-2.93-7.2-5.55-10.65-8.51c-3.86-3.32-6.7-7.45-9.51-11.64c-2.45-3.65-3.89-7.65-4.9-11.87
		C11.97,162.48,11.51,161.37,11.13,160.24z"/>
	<path class="st4" d="M249.1,166.72c-0.87,0.07-1.45-0.33-1.77-1.12C248.03,165.8,248.74,165.98,249.1,166.72z"/>
	<path class="st5" d="M100.38,21.38c-0.85-3.65-0.8-7.36-0.62-11.05c0.08-1.7,1.87-2.97,3.89-3.08c3.62-0.19,5.92,1.86,7.74,4.65
		c0.99,1.53,1.57,3.3,1.61,5.08c0.14,6.4,0.29,12.81-1.42,19.07c-0.41,1.52-0.96,2.97-1.92,4.22c-0.98,1.27-2.72,1.34-3.23-0.06
		c-1.65-4.52-4.33-8.66-4.96-13.55c2.03-0.77,2.02-0.76,3.08,1.42c1.27,2.62,2.46,5.27,4,8.08c1.08-2.48,1.12-4.88,1.34-7.21
		c0.29-3.16,0.1-6.34,0.17-9.51c0.05-2.26-0.73-4.27-1.8-6.12c-1.06-1.84-2.63-3.13-5.03-2.55c-0.17,0.08-0.34,0.15-0.51,0.22
		c-1.19,1.04-1.78,2.35-1.77,3.93c0,1.49,0.02,2.98-0.01,4.47C100.91,20.09,101.03,20.84,100.38,21.38z"/>
	<path class="st6" d="M102.98,10.52c2-0.84,4.49,0.15,5.72,2.54c1.06,2.05,1.91,4.19,1.85,6.64c-0.12,5.16,0.14,10.35-1.09,15.43
		c-0.07,0.29-0.09,0.6-0.21,0.86c-0.16,0.36-0.23,0.9-0.75,0.88c-0.41-0.02-0.5-0.47-0.65-0.79c-1.4-2.95-2.79-5.91-4.18-8.87
		c-0.41-0.87-0.82-1.48-1.43-0.14c-0.25-0.13-0.51-0.27-0.77-0.4c-0.55-1.73-1.01-3.47-1.09-5.3c0.02-2.33,0.12-4.66,0.02-6.98
		c-0.07-1.62,1.07-2.56,1.75-3.76c0.09-0.15,0.55-0.09,0.84-0.13c0.14,0.6-0.33,1-0.49,1.5c-0.01,5.88,0.39,11.68,3.08,17.08
		c0.85,1.71,1.79,3.38,2.65,5.08c0.07,0.12,0.14,0.4,0.23,0.34c0.3-0.19,0.15-0.57,0.24-0.87c0.61-6.23,1.1-12.45-0.46-18.62
		c-0.01-0.82-0.21-1.55-0.93-2.05C106.15,11.65,104.63,10.97,102.98,10.52z"/>
	<path class="st7" d="M118.06,45.03c1-3.07,1.63-6.28,3.58-8.98c0.32-0.44,0.67-0.8,1.11-1.1c1.61-1.32,3.25-2.6,5.42-2.89l0,0
		c1.51,1.43,1.36,3.31,1.43,5.14c-0.59,2.01-0.45,4.32-2.43,5.74c-0.93-1.29,0.46-2.42,0.25-3.66c0.02-0.17,0.07-0.35,0.11-0.51
		c0.31-1.06,0.19-2.15,0.16-3.22c-0.04-1.21-0.52-1.43-1.59-0.78c-0.67,0.41-1.23,0.97-1.67,1.62c-2.64,3.93-4.37,8.25-5.45,12.84
		c-0.08,0.35-0.09,0.71-0.08,1.07c0.01,0.18,0.02,0.36,0.28,0.5c2.66-1.66,4.61-4.05,6.36-6.64c0.38-0.56,0.56-1.39,1.52-1.3
		c0.6,1.45-0.71,2.24-1.13,3.34c-1.52,2.29-3.63,4.01-5.58,5.9c-0.51,0.5-1.19,0.75-1.95,0.7c-1.68-1.19-1.04-2.99-1.05-4.53
		C117.35,47.21,117.67,46.08,118.06,45.03z"/>
	<path class="st8" d="M118.8,52.59c2.71-1.71,4.68-4.2,6.83-6.5c0.85-0.7,1.05-2.16,2.51-2.15c-1.79,3.76-4.55,6.66-7.97,8.96
		C119.62,53.19,119.06,53.56,118.8,52.59z"/>
	<path class="st9" d="M128.14,43.95c-0.84,0.72-1.67,1.43-2.51,2.15c0.26-1.18,1.38-1.97,1.41-3.25l-0.01,0
		c1.43-1.65,1.58-3.78,2.21-5.74c0.99,0.73,0.45,1.7,0.39,2.59c-0.02,0.34-0.04,0.68-0.06,1.03c-0.24,0.56-0.43,1.14-0.43,1.76
		C128.81,42.97,128.47,43.46,128.14,43.95z"/>
	<path class="st10" d="M118.8,52.59c0.36,0.52,0.89,0.31,1.37,0.32c-0.8,1.02-1.63,0.87-2.47,0.05c-0.22-0.49-0.33-1.03-0.68-1.46
		c-0.08-2.22-0.09-4.44,1.04-6.47c-0.12,1.86-0.83,3.68-0.35,5.57C117.9,51.36,117.73,52.32,118.8,52.59z"/>
	<path class="st11" d="M129.63,39.7c-0.24-0.85,0.27-1.81-0.39-2.59c0.05-1.77-0.38-3.44-1.08-5.05c0.86,0.03,1.29,0.56,1.43,1.32
		C129.97,35.48,130.15,37.59,129.63,39.7z"/>
	<path class="st11" d="M128.16,32.06c-1.81,0.96-3.61,1.93-5.42,2.89C124.17,33.27,125.64,31.68,128.16,32.06z"/>
	<path class="st12" d="M129.14,42.49c-0.55-0.76,0-1.25,0.43-1.76C129.66,41.37,129.68,41.99,129.14,42.49z"/>
	<path class="st13" d="M117.02,51.5c0.63,0.3,0.72,0.85,0.68,1.46C117.24,52.59,117.04,52.09,117.02,51.5z"/>
	<path class="st14" d="M81.39,45.73c-0.5-0.71-0.99-1.42-1.49-2.13c-0.62-1.12,0.01-1.8,0.89-2.3c0.94-0.53,1.98-0.73,3.06-0.54
		c0.91,0.52,0.22,0.83-0.17,1.13c-0.77,0.61-1.14,1.24-0.23,2.03c2.29,1.4,4.82,2.28,7.3,3.38c-0.85-1.2-1.28-2.6-2.16-3.76
		c-0.22-0.27-0.36-0.58-0.47-0.9c-0.01-0.73-1.12-1.19-0.54-2.08c0.78-0.22,1.35,0.32,2.01,0.53c2.97,2.54,4.46,6.02,5.88,9.5
		c0.56,1.38-0.58,0.96-1.2,0.74c-2.88-1-5.74-2.05-8.61-3.08C84.05,47.75,82.95,46.35,81.39,45.73z"/>
	<path class="st15" d="M84.23,41.07c-0.6,0-1.2-0.02-1.79,0.02c-1.57,0.1-2.66,0.71-2.53,2.52c-1.15-0.74-0.45-1.47,0.11-2.05
		c1.83-1.88,7.38-2.12,9.58-0.47c-0.71-0.12-1.42-0.24-2.14-0.37C86.45,41.42,85.35,41.33,84.23,41.07z"/>
	<path class="st16" d="M81.39,45.73c1.85,0.13,2.85,1.69,4.28,2.53C83.82,48.14,82.69,46.8,81.39,45.73z"/>
	<path class="st17" d="M265.62,182.52c-0.46,0.13-0.92,0.27-1.38,0.4c-2.98,1.14-6.16,1.26-9.25,1.87
		c-0.79,0.15-1.53-0.14-2.29-0.25c-1.17,0.13-2.06-0.81-3.18-0.86c-0.59-0.24-1.13-0.65-1.85-0.57c0.1,0.51,0.53,0.8,0.71,1.23
		c0.17,0.35,0.27,0.7,0.07,1.07c-2.64,1.34-5.49,1.56-8.38,1.54c-1.47-0.4-2.84-1.03-4.12-1.85c-0.59-0.4-1.15-0.84-1.81-1.12
		c-0.14-0.06-0.28-0.14-0.41-0.22c-0.59-0.35-1.15-0.73-1.75-1.06c-0.57-0.43-1.31-0.48-1.88-0.91c-0.38-0.28-0.84-0.41-1.23-0.72
		c0.28,0.33,0.65,0.51,0.91,0.81c0.39,0.4,0.77,0.82,1.2,1.19c0.96,0.72,1.83,1.56,2.86,2.2c0.45,0.39,1.09,0.64,1.01,1.41
		c-0.85,1.03-2.01,0.73-3,0.52c-5.72-1.25-11.59-1.76-17.18-3.73c-9.69-3.41-19.22-7.08-27.94-12.65
		c-7.45-4.76-14.32-10.26-21.21-15.75c-0.86-0.69-1.56-1.36-0.28-2.34c0.31-0.24,0.33-0.76-0.03-1.12c-0.25-0.35-0.5-0.69-0.75-1.04
		c0.16-0.78-0.04-1.46-0.74-1.86c-3.26-1.87-6.42-3.96-10.49-3.52c-1.87,0.2-3.64,0.65-5.38,1.3c-0.5,0.19-1.07,0.51-0.79,1.18
		c0.23,0.55,0.79,0.42,1.26,0.3c0.74-0.19,1.47-0.62,2.21-0.02c-0.26,0.77-0.37,1.24,0.75,1.6c1.75,0.56,3.55,0.31,5.29,0.74
		c1.3,0.32,0.73,0.73,0.33,1.28c-4.42,3.91-9.8,5.87-15.32,7.58c-5.01,1.56-10.23,1.78-15.36,2.51c-5.67,0.81-11.35,1.59-17.03,2.31
		c-2.25,0.28-4.52,0.46-6.79,0.51c-7.18,0.18-14.37,0.45-21.55,0.36c-11.36-0.14-22.71-0.78-34.04-1.65
		c-2.67-0.21-5.35-0.26-7.99-0.77c0.65-0.69,1.33-0.11,1.89-0.12c-0.64-0.25-1.43-0.26-2.23-0.29c-0.17-0.01-0.34-0.04-0.5-0.09
		c-1.49-0.32-2.92-0.82-4.24-1.59c-0.96-0.32-1.96-0.49-2.93-0.8c-0.17-0.05-0.33-0.1-0.49-0.17c-0.82-0.36-1.69-0.48-2.57-0.6
		c-4.13-0.72-8.18-1.76-12.15-3.11c-2-0.68-2.13-0.94-1.06-2.73c0.83-1.39,1.52-2.85,2.21-4.3c0.44-0.92,0.85-1.94,0.67-2.93
		c-0.75-4.2,0.56-8.16,1.22-12.2c0.22-1.35,0.43-2.71,0.71-4.05c0.45-1.64,0.98-3.25,1.92-4.69c1.3-2.19,2.71-4.33,3.22-6.9
		c0.08-0.4,0.26-0.8,0.54-1.12c0.39-0.46,0.86-0.98,1.49-0.72c0.61,0.25,0.3,0.91,0.31,1.43c0.05,2.11-0.6,4.26,0.42,6.3
		c0.57,0.74,1.56,1.17,1.65,2.26c-0.37,0.71,0.12,0.93,0.65,1.1c1.11,0.35,2.15,0.92,3.31,1.13c2.31,0.67,4.54,1.58,6.77,2.46
		c0.16,0.05,0.31,0.13,0.45,0.21c0.41,0.4,0.98,0.54,1.43,0.89c-0.31-0.38-0.93-0.4-1.13-0.93c-0.22-0.69-0.04-1.33,0.33-1.89
		c0.54-0.8,0.57-1.68,0.54-2.58c0.7-2.95,0.45-5.93,0.36-8.91c-0.06-2.01-0.56-3.89-1.6-5.63c-1.85-3.11-5.66-4.62-8.78-2.85
		c-0.84,0.2-1.34,1.29-2.39,0.96c-0.42-0.81,0.31-1.19,0.67-1.67c3.26-4.29,6.73-8.4,10.68-12.08c0.7-0.66,1.38-1.34,1.61-2.32
		c1.96-2.1,4.39-3.67,6.5-5.61c6.83-6.28,15.01-10.46,23.09-14.78c2.85-1.52,5.59-3.27,8.66-4.37c4.05-0.72,7.83-2.49,11.88-3.19
		c0.88-0.2,1.76-0.41,2.58-0.45c0.32,0.11-0.01-0.33-0.02-0.09c0,0.04-0.06,0.03-0.18,0.02c-0.18-0.02-0.33-0.09-0.44-0.24
		c3.54-0.49,7.08-1.02,10.68-0.43c1.18,0.19,2.38,0.41,3.56,0.39c6.32-0.12,12.51,1.07,18.72,1.95c11.08,1.56,22.05,3.66,32.93,6.3
		c7.24,1.76,13.88,4.82,20.38,8.32c6.38,3.43,12.79,6.83,19.18,10.25c0.31,0.17,0.58,0.41,0.87,0.61c0.18,1.25,1.18,1.86,2.03,2.57
		c1.16,0.93,2.29,1.88,3.54,2.69c4.15,3.17,8.6,5.95,12.47,9.44c8.11,7.31,17.93,11.91,27.13,17.51c0.26,0.16,0.54,0.26,0.79,0.42
		c2.2,1.43,4.52,2.46,7.24,1.99c1.44,0.37,2.9,0.7,4.33,1.11c1.69,0.49,3.02,0.07,4.66-0.71c2.28-1.09,4.86-1.63,7.23-2.65
		c2.37-1.02,4.74-2.03,6.83-3.58c3.02-1.36,5-3.85,6.85-6.44c1.36-1.91,2.37-4.03,3.09-6.27c1.16-3.57,0.04-6.85-2.76-9.34
		c-5.37-4.77-10.7-9.6-15.66-14.8c-2.43-2.54-3.33-5.69-4.05-9.17c-1.24-5.98-0.64-11.93-0.86-17.9c-0.01-0.24,0.03-0.48,0.08-0.71
		c1.62-2.55,3.83-4.64,5.47-7.18c0.35-0.54,0.58-1.18,1.1-1.6c2.38-2.91,3.8-6.34,5.26-9.74c0.56-1.31,0.99-2.66,1.49-4
		c0.48,0.36,0.53,0.99,0.91,1.42c0.19,0.4,0.22,0.82,0.16,1.25c-0.02,0.17-0.06,0.34-0.11,0.5c-0.21,0.66-0.11,1.37-0.24,2.04
		c-0.32,1.82-0.62,3.65-0.85,5.49c-0.62,4.87-2.31,9.38-4.36,13.78c-0.23,0.49-0.51,0.95-0.64,1.48c-0.03,0.12-0.01,0.24,0.23,0.61
		c1.63-2.47,2.53-5.13,3.6-7.7c1.42-3.29,1.63-6.85,2.3-10.31c0.4-2.11,0.26-4.3,1.08-6.33c0.18-0.13,0.37-0.13,0.55,0
		c1.25,4.56,1.94,9.22,2.62,13.9c0.7,4.81-0.32,9.56-0.05,14.34c0.04,0.78,0.01,0.79,0.54,1.24c1.42,0.89,1.55,0.83,2.91-1.42
		c0.39-0.67,0.89-1.29,1.14-2c1.98-5.47,5.88-9.41,10.28-12.95c1.81-1.45,3.64-2.88,5.79-3.81c0.63-0.24,1.14-0.78,1.88-0.75
		c0.11,0.14,0.18,0.3,0.21,0.47c-0.05,0.79-0.23,1.55-0.58,2.27c-2.22,2.64-4.77,5.02-6.53,8.03c-0.39,0.67-0.83,1.31-1.14,2.02
		c-0.99,1.79-1.56,3.7-1.54,5.78c1.1-1.66,1.85-3.49,2.78-5.23c3.15-5.16,7.23-9.46,12.03-13.11c2.24-1.57,4.37-3.27,6.27-5.26
		c0.53-0.56,1.17-1.01,1.87-1.36c2.88-1.32,5.63-2.85,8.19-4.73c0.59-0.34,0.86-0.02,1.04,0.49c0.1,0.5-0.08,0.94-0.3,1.37
		c-3.72,7.32-7.66,14.53-12.2,21.38c-1.05,1.58-2.09,3.17-3.06,5c1.39,0.17,2.03-0.63,2.6-1.45c1.51-2.17,3.07-4.3,4.36-6.6
		c2.81-5.01,5.9-9.88,8.32-15.11c0.53-0.81,0.76-1.77,1.33-2.56c0.18-0.11,0.36-0.11,0.55,0.01c0.13,0.16,0.23,0.34,0.29,0.54
		c0.51,5.77,1.03,11.54,0.88,17.35c-0.03,1.2-0.5,2.34-0.37,3.55c-0.04,0.3,0.1,0.67-0.29,0.85c-0.82,1.54-1.63,3.08-2.45,4.63
		c-0.81,0.85-0.31,1.62,0.17,2.38c-1.47,4.43-3.11,8.81-5.02,13.06c-2.88,6.43-7.43,11.66-12.52,16.46
		c-2.37,1.97-4.61,4.09-7.05,5.98c-0.34,0.26-0.41,0.55-0.29,0.93c-1.02,1.03-2.58,1.17-3.61,2.28c1.43-0.32,2.81-0.79,4.24-1.03
		c1.06-0.59,1.72-0.58,1.91,0.9c1.13,8.79,1.5,17.48-3.98,25.19c-2.75,3.87-6.65,6.52-10.5,9.16c-6.93,4.73-14.4,8.56-21.64,12.77
		c-7.98,4.63-16.47,8.29-24.65,12.53c-0.89,0.46-1.71,0.27-2.6,0.02c-3.57-0.99-7.15-1.96-10.86-2.26
		c-3.12-0.43-6.26-0.22-9.39-0.17c-0.93,0.06-1.87-0.14-2.78,0.13c-3.76,0.38-7.52,0.2-10.73,0.1c0.8,0.12,2.17,0.14,3.54,0.21
		c0.2,0.01,0.39,0.05,0.58,0.09c0.94,0.36,1.93,0.21,2.9,0.25c0.5,0.01,1,0.04,1.43,0.36c0.13,0.17,0.15,0.35,0.05,0.54
		c-0.24,0.18-0.49,0.34-0.84,0.33c9.79,0.39,19.18,2.4,28,6.75c1.26,0.92,2.68,1.54,4.06,2.23c0.15,0.08,0.3,0.17,0.44,0.27
		c2.86,1.58,5.52,3.56,8.67,4.6c1.3,0.43,2.59,0.9,4.02,0.65c0.68-0.12,1.28,0.22,1.84,0.58c0.14,0.11,0.25,0.24,0.34,0.4
		c0.02,0.18-0.03,0.34-0.16,0.47c-0.22,0.15-0.46,0.22-0.72,0.26c-0.44,0.07-0.88-0.09-1.4,0c0.81-0.03,1.34,0.53,2.03,0.61
		c0.91,0.26,1.8,0.6,2.73,0.78C266.17,181.7,266.17,181.7,265.62,182.52z"/>
	<path class="st18" d="M119.88,209.9c-8.54,0.68-17.06,0.88-25.63,0.14c-7.1-0.61-14.18-1.15-21.15-2.64
		c-8.93-1.9-17.23-5.29-24.82-10.46c-3.26-2.22-6.82-3.99-10.25-5.95c-4.18-2.39-7.28-6.01-10.62-9.34c-3.11-3.1-5.57-6.7-7.7-10.53
		c-1.23-2.22-1.96-4.63-2.85-6.98c-0.62-1.64,1.05-0.77,1.45-1.3c4.19,0.82,8.39,1.64,12.58,2.46c1.95,0.45,3.98,0.56,5.89,1.19
		c-0.37,0.88-1.18,0.65-1.84,0.67c-1.79,0.05-3.58,0-5.38,0.03c-0.65,0.01-1.38-0.04-1.76,0.63c-0.43,0.76,0.08,1.39,0.49,1.96
		c1.62,2.21,3.95,3.63,6.08,5.23c2.67,2.01,5.45,3.87,7.91,6.15c5.07,4.31,10.3,8.39,16.08,11.71c2.91,1.67,5.84,3.29,8.84,4.8
		c1.4,0.7,2.89,1.15,4.4,1.53c11.73,3.24,23.56,6,35.62,7.7c3.85,0.54,7.61,1.64,11.47,2.18
		C119.19,209.15,119.84,209.13,119.88,209.9z"/>
	<path class="st18" d="M202.29,185.82c-1.15,2.37-3.5,3.1-5.65,4.09c-7.23,3.33-14.53,6.47-22.07,9.05
		c-0.22,0.08-0.46,0.11-0.69,0.16c-0.57-0.93-0.16-1.88,0.03-2.78c1.25-6.03,0.99-11.97-0.63-17.92c-0.73-2.69-2.04-4.93-3.82-7
		c-1.4-1.63-2.89-3.2-3.9-5.12c-0.58-1.44-1.51-2.66-2.47-3.88c-1.21-1.53-1.86-3.18-0.74-5.06c1.79,1.32,3.09,3.13,4.63,4.7
		c6.75,6.89,14.54,12.35,22.96,16.98c1.77,0.98,3.48,2.07,5.22,3.11c1.14,1.03,2.39,1.85,3.92,2.17
		C200.15,184.83,201.22,185.32,202.29,185.82z"/>
	<path class="st19" d="M263.51,56.56c0,4.31-0.29,8.65,0.09,12.92c0.37,4.16,0.51,8.51,2.81,12.22c2.03,3.28,5.1,5.69,7.82,8.36
		c2.47,2.42,5.1,4.68,7.65,7.01c0.84,0.77,1.63,1.56,2.55,2.25c2.98,2.27,3.69,6.72,1.89,10.97c-1.66,3.92-4.09,7.27-7.27,10.1
		c-0.76,0.68-1.58,1.07-2.6,0.93c2.66-2.55,4.87-5.4,6.29-8.85c0.53-1.29,0.94-2.59,1.23-3.93c0.32-1.55-0.29-2.56-1.6-3.62
		c-4.91-3.97-10.6-6.93-14.98-11.58c-3.76-3.99-7.28-8.22-9.13-13.39c-1.73-4.84-2.44-9.97-1.75-15.18
		c0.43-3.25,0.62-6.56,1.82-9.65c1.75-4.51,4.7-8.15,8.42-11.2c0.6,1.75-0.82,3.02-1.11,4.56c-0.09,0.49-0.7,0.88-0.3,1.48
		c-0.05,1.37-1.16,2.16-1.88,3.1c-1.07,1.39-1.83,2.9-2.62,4.48C261.96,57.75,262.42,56.28,263.51,56.56z"/>
	<path class="st20" d="M21.59,124.96c-0.6,1.44-1.2,2.88-1.8,4.32c-0.96,4.28-2.01,8.55-2.47,12.93c-0.09,0.83-0.05,1.67,0.05,2.51
		c0.28,2.3-0.46,4.37-1.58,6.32c-0.33,0.57-0.71,1.14-1.47,1.2c-0.36,0.03-0.75,0.02-0.95-0.35c-0.17-0.32,0.08-0.57,0.28-0.77
		c1.31-1.36,1.47-3.04,1.49-4.82c0.05-5.64,1.25-11.11,2.6-16.55c1.37-5.53,3.54-10.77,5.65-16.03c0.43-1.08,1.65-1.79,1.51-3.15
		c3.15-5.8,7.14-11.01,11.12-16.24c5.97-7.85,13.13-14.39,21.57-19.51c0.45-0.28,0.95-0.48,1.43-0.71c-0.2,1.08-0.2,1.08-1.57,2.41
		c1.83-1.09,3.7-2.66,5.85-3.84c0.21-0.11,0.42-0.23,0.64-0.32c0.68-0.27,1.45-0.59,1.98,0.1c0.56,0.73-0.02,1.35-0.51,1.88
		c-1.62,1.78-3.41,3.38-5.39,4.72c-4.41,2.99-8.57,6.3-12.86,9.45c-1.84,1.35-3.25,3.17-4.94,4.69c-0.24,0.22-0.31,0.5-0.1,0.79
		c0.15,1-0.59,1.51-1.18,2.07c-4.48,4.21-8.43,8.89-12.11,13.81c-0.01,0.86-0.99,1.06-1.2,1.78c-0.22,1.33-0.9,2.48-1.59,3.58
		C24.12,118.29,23.12,121.74,21.59,124.96z"/>
	<path class="st19" d="M165.2,151.61c0.58,0.41,0.57,1.05,0.14,1.38c-0.97,0.76-0.33,1.16,0.23,1.59
		c6.94,5.38,13.72,10.95,21.14,15.7c7.26,4.64,15.06,8.07,23.12,10.99c4.22,1.53,8.44,3.04,12.85,3.89
		c3.56,0.69,7.16,1.15,10.75,1.69c0.46,0.07,0.97,0.09,1.31-0.37c1.28-0.38,2.11,0.49,2.66,1.31c0.72,1.08-0.75,0.4-0.92,0.87
		c-3.83,0.08-7.65,0.02-11.48,0.31c-6.34,0.49-12.27-1.05-18-3.84c-7.06-3.44-13.74-7.51-20.6-11.29
		c-7.19-3.97-13.21-9.24-18.81-15.08c-1.89-1.98-3.84-3.93-5.51-6.32C163.25,152.32,164.97,154.36,165.2,151.61z"/>
	<path class="st21" d="M308.86,95.06c3.04-3.2,5.99-6.48,8.64-10.02c3.39-4.53,5.02-9.87,7.12-15c0.63-1.53,0.84-3.24,1.95-4.56
		c1.41-0.9,1.76-2.5,2.39-3.87c1.09-2.37,1.89-4.86,2.81-7.31c0.38-1.02,0.76-2.12,1.94-2.56c0.11,0.06,0.23,0.13,0.34,0.19
		c0.45,0.51-0.07,1.23,0.37,1.74c1.17,6.57,0.29,12.92-2.53,18.91c-2.18,4.62-5.2,8.75-8.61,12.55c-0.43,0.48-0.98,0.86-1.47,1.29
		c-3.04,2.6-6.05,5.24-8.96,8c-0.87,0.83-1.8,1.56-2.89,2.09c-0.85,0.43-1.6,1.06-2.46,1.47c-0.38,0.18-0.82,0.39-1.12-0.08
		c-0.26-0.4,0.15-0.65,0.38-0.89C307.43,96.33,308.08,95.62,308.86,95.06z"/>
	<path class="st22" d="M242.97,170.68c-3.47-1.3-6.94-2.58-10.4-3.92c-4.13-1.61-8.5-1.72-12.82-2.22c-2.14-0.25-4.26-0.6-6.83-0.97
		c1.2-0.65,1.99-0.3,2.72-0.48c0.37-0.35,0.86-0.56,1.3-0.41c2.27,0.74,4.65,0.43,6.95,0.81c4.14,0.15,8.15,1.27,12.28,1.57
		c3.9,0.28,7.15,2.66,10.8,3.81c5.38,1.69,10.41,4.25,15.46,6.74c1.41,0.82,2.91,1.45,4.34,2.21l-0.02-0.02
		c0.53,0.46,0.9,1.03,0.48,1.7c-0.49,0.78-1.32,0.63-2.08,0.56c-1.04-0.35-2.25-0.23-3.11-1.11l0,0c-0.75-0.65-1.59-0.91-2.62-0.89
		c-3.57,0.08-6.46-1.83-9.39-3.5c-1.03-0.59-2.11-1.09-3.11-1.74l0,0C245.74,171.91,244.25,171.5,242.97,170.68z"/>
	<path class="st23" d="M42.11,93.99c-1.46-0.52-0.2-1,0.09-1.32c2.52-2.83,5.59-5,8.51-7.38c4.62-3.77,10.04-6.51,14.1-10.97
		c0.43-0.48,1.47-0.92,0.8-1.7c-0.56-0.66-1.33,0.03-1.95,0.34c-2.5,1.25-4.49,3.33-7.32,4.47c0.64-1.47,2.12-2.04,2.67-3.33
		c4.63-2.98,9.64-5.01,15.05-6.07c3.01-0.65,6.05-1.09,9.09-1.52c0.8-0.11,2.18-0.5,2.4,0.32c0.27,1.03-1.16,1.12-1.92,1.47
		c-1.19,0.54-2.47,0.83-3.72,1.22c-8.7,4.48-17.43,8.91-25.55,14.4c-3.36,2.27-6.26,5.13-9.34,7.75
		C44.07,92.48,42.85,92.94,42.11,93.99z"/>
	<path class="st22" d="M253.4,127.16c-2.04,1.13-3.93,0.41-5.71-0.6c-5.45-3.12-10.87-6.29-16.3-9.45
		c-1.81-1.05-3.56-2.21-5.39-3.21c-3.82-2.1-6.58-5.52-10.1-7.99c-3.13-2.2-6.14-4.56-9.22-6.82c-0.44-0.32-0.88-0.62-1.15-1.1
		c0.4-1.29,1.2-0.54,1.8-0.29c3.65,1.51,6.7,4,9.97,6.11c1.04,0.67,2.02,1.46,3.12,2.03c2.24,1.18,4.14,2.85,6.12,4.39
		c6.82,5.32,14.05,10.02,21.48,14.44C249.75,125.67,251.61,126.33,253.4,127.16z"/>
	<path class="st24" d="M24.89,110.57c0.66,0.7,0.28,1.52-0.12,1.97c-2.39,2.72-3.05,6.23-4.34,9.42c-1.63,4.03-2.66,8.27-3.53,12.53
		c-0.76,3.7-1.48,7.41-1.41,11.2c0.04,2.27-0.13,4.42-2.12,6.06c1.35,0.46,1.94-0.35,2.34-1.1c0.65-1.2,1.21-2.5,1.19-3.9
		c-0.07-4.86,0.54-9.62,2-14.27c0.33-1.06,0.04-2.29,0.89-3.21c-0.44,2.57-0.89,5.15-1.32,7.72c-0.45,2.68-1.2,5.32-0.54,8.12
		c0.33,1.41-0.26,2.82-0.93,4.12c-0.74,1.44-1.31,3-2.27,4.26c-0.88,1.15-0.37,1.33,0.58,1.6c3.89,1.12,7.71,2.47,11.75,2.99
		c0.35,0.04,0.67,0.23,1.01,0.34c0.81,0.33,1.7,0.43,2.52,0.72h0c0.72,0.42,1.59,0.47,2.3,0.9c0.39,0.24,0.89,0.49,0.65,1.1
		c-0.19,0.48-0.64,0.39-1.06,0.4c-1.96,0-3.86-0.45-5.75-0.83c-1.5-0.3-3.05-0.28-4.5-0.81c-3.41-0.94-6.66-2.3-9.88-3.73
		c-1.39-0.62-1.54-1.92-0.41-3.44c1.26-1.71,2.95-3.15,2.87-5.57c-0.05-1.55,0.14-3.09,0.29-4.64c1-10.55,4.34-20.41,8.6-30.01
		C23.99,111.83,24.48,111.22,24.89,110.57z"/>
	<path class="st22" d="M282.58,65.91c-0.57,0.39-0.31,1.3-1.03,1.61c-0.64-0.22-0.41-0.79-0.39-1.2c0.1-3.09,0.06-6.19,0.26-9.29
		c0.35-5.66-0.65-11.26-1.96-16.76c-0.31-1.3-0.5-2.56-0.48-3.88c-0.42-0.59-0.61-1.27,0.05-1.72c0.54-0.37,0.74,0.36,1.09,0.63
		c4.11,6.04,4.88,12.84,4.43,19.87c-0.15,2.37-0.59,4.73-0.9,7.1C283.3,63.48,283.6,64.89,282.58,65.91z"/>
	<path class="st25" d="M326.88,38.93c-1.47,3.95-3.8,7.45-5.82,11.11c-2.05,3.7-4.3,7.29-6.73,10.77c-0.95,1.37-1.98,2.21-3.8,1.71
		c0.4-1.4,1.36-2.49,2.13-3.65c4.77-7.19,9.07-14.64,12.91-22.36c0.31-0.63,0.95-1.11,0.95-1.89c0.17-0.66,0.5-1.25,0.83-1.85
		c0.16-0.26,0.39-0.47,0.6-0.69c0.2-0.48,0.56-0.72,1.08-0.72c0.91,1.95-0.35,3.45-1.07,5.06l0-0.01
		C327.57,37.23,327.2,38.07,326.88,38.93z"/>
	<path class="st26" d="M36.75,166.68c-1.88-0.76-4.02-0.44-5.86-1.38c2.89-0.07,5.62,0.97,8.47,1.18c2.96,0.21,5.91,0.66,8.86,0.95
		c4.97,0.49,9.95,0.92,14.92,1.42c2.11,0.21,4.16-0.32,6.25-0.32c8.27-0.02,16.54-0.03,24.81,0c5.91,0.02,11.79-0.55,17.66-1.09
		c0.54-0.05,1.16-0.11,1.3-0.71c0.12-0.51-0.78-0.13-0.8-0.58c1.84-0.64,3.58,0.47,5.38,0.22c3.74-0.52,7.47-1.1,11.2-1.64
		c1.41-0.2,2.83-0.35,4.25-0.52c0.05,0.08,0.09,0.16,0.14,0.24c0.02,0.19-0.02,0.36-0.13,0.52c-0.95,0.62-2.05,0.66-3.13,0.78
		c-0.63,0-1.26-0.02-1.87,0.21c-0.19,0.06-0.37,0.1-0.56,0.13c-5.04,1.05-10.14,1.74-15.22,2.51c-5.92,0.75-11.86,0.88-17.81,0.81
		c-0.95-0.01-1.91-0.06-2.83,0.26c-3.47,0.23-6.94,0.3-10.4-0.06c-2.21-0.23-4.48-0.44-6.63-0.01c-4.37,0.87-8.73,0.47-13.07,0.16
		c-4.6-0.33-9.19-0.68-13.78-1.13c-1.18-0.43-2.42-0.25-3.64-0.39c-0.2-0.02-0.4-0.07-0.59-0.12c-1.76-0.25-3.54-0.42-5.29-0.78
		C37.8,167.19,37.17,167.21,36.75,166.68z"/>
	<path class="st20" d="M329.01,57.98c-0.73-0.78-0.06-1.57-0.02-2.36c0.22-4.95-0.01-9.88-0.5-14.8c-0.15-1.49-0.07-2.97-0.19-4.45
		c-0.1-1.55,0.89-2.78,1.26-4.19c0.08-0.29,0.39-0.55,0.68-0.5c0.67,0.11,0.24,0.84,0.56,1.17c0.48,3.46,1.17,6.88,1.3,10.41
		c0.09,2.54-0.56,4.94-0.59,7.43c-0.41,0.56,0.24,1.39-0.48,1.86c-0.2,0.82-0.4,1.64-0.6,2.47c-0.23,0.63-0.36,1.3-0.72,1.88
		l0.01-0.02C329.49,57.25,329.59,57.84,329.01,57.98z"/>
	<path class="st27" d="M150.46,147.99c-0.82-0.13-1.51,0.23-2.23,0.55c-0.86,0.39-1.57,0.08-1.94-0.73
		c-0.36-0.79,0.26-1.31,0.85-1.54c4.53-1.76,9.06-2.54,13.54,0.24c1.06,0.66,2.25,1.13,3.3,1.81c0.84,0.54,1.91,1.19,0.45,2.26
		c-3.38-2.17-6.96-3.59-11.09-2.95C152.38,147.66,151.5,148.47,150.46,147.99z"/>
	<path class="st28" d="M220.43,105.83c-0.82,0.12-1.37-0.48-1.88-0.9c-2.65-2.18-5.8-3.61-8.57-5.64c-1.07-0.78-2.67-1.93-4.45-1.32
		c-1.44-0.5-2.37-1.71-3.57-2.55c0.26-0.44,0.03-1.33,1.02-1.06c5.58,3.09,10.9,6.6,16.06,10.35
		C219.53,105.06,219.97,105.46,220.43,105.83z"/>
	<path class="st29" d="M239.73,186.54c2.97-0.06,5.9-0.37,8.69-1.49c1.15-0.04,1.64,1.02,2.48,1.5c0.31,0.57-0.03,0.59-0.5,0.75
		c-1.6,0.56-3.33-0.08-4.89,0.65C243.39,188.26,241.33,188.37,239.73,186.54z"/>
	<path class="st28" d="M79.91,69.52c1.84-0.84,3.68-1.67,5.52-2.51c-2.67-0.44-5.17,0.17-7.7,0.53c-1.22,0.17-2.4,0.69-3.67,0.49
		c4.7-1.45,9.56-1.77,14.42-2.16c1.24,0,2.55-0.71,3.67,0.39C88.01,67.16,84.12,68.94,79.91,69.52z"/>
	<path class="st30" d="M239.73,186.54c1.75,1.19,3.71,1.52,5.78,1.41c-1.97,0.84-3.82,0.27-5.65-0.5c-0.27-0.11-0.48-0.41-0.75-0.47
		c-0.43-0.1-0.98-0.57-1.29-0.02c-0.38,0.66,0.45,0.66,0.73,0.97c0.11,0.12,0.21,0.25,0.41,0.49c-0.85,0.46-1.69,0.19-2.48,0.25
		c0.28-0.18,0.57-0.36,0.89-0.57c-0.89-0.56-1.61-1.33-2.64-1.61c-0.37-0.33-0.75-0.67-1.12-1c-0.44-0.39-0.92-0.74-1.3-1.2
		c-0.24-0.29-0.76-0.55-0.4-1.02c0.3-0.4,0.75-0.27,1.12-0.02c0.3,0.2,0.68,0.19,0.98,0.38l-0.01-0.01
		c0.53,0.49,1.23,0.71,1.84,1.08C237.26,185.05,238.27,186.26,239.73,186.54z"/>
	<path class="st29" d="M252.32,184.38c3.45,0.09,6.76-0.95,10.16-1.31c0.59-0.06,1.17-0.1,1.76-0.15c-2.05,1.38-4.28,2.37-6.63,3.11
		c-1.24,0.39-2.35,0.01-3.44-0.57c-0.57-0.31-1.21-0.5-1.82-0.74c-0.11-0.06-0.16-0.13-0.13-0.21
		C252.26,184.42,252.29,184.38,252.32,184.38z"/>
	<path class="st31" d="M265.26,50.05c-0.77-1.31,0.32-2.33,0.59-3.46c0.21-0.9,0.76-1.71,0.89-2.66c1.17-1.48,2.57-2.73,3.97-3.98
		c0.58,0.04,0.7,0.27,0.3,0.72c-1.54,3.23-3.39,6.25-5.6,9.07C265.48,49.9,265.44,50,265.26,50.05z"/>
	<path class="st32" d="M265.26,50.05c0.03-0.11,0.07-0.22,0.14-0.31c0.7,0.85-0.19,1.32-0.51,1.84c-0.65,1.05-1.48,1.99-2.18,3.02
		c-0.22,0.32-0.92,0.71-0.23,1.14c0.42,0.26,0.91,0.05,1.25-0.38c1.28-1.63,2.58-3.24,3.85-4.87c0.68-0.87,1.15-1.92,2.13-2.54
		c-1.29,2.99-3.64,5.23-5.56,7.77c-0.21,0.28-0.42,0.57-0.63,0.86c-0.98,0.57-1.61,1.86-3.26,1.41
		C261.19,54.88,263.75,52.78,265.26,50.05z"/>
	<path class="st33" d="M308.86,95.06c-0.77,0.89-1.55,1.77-2.42,2.77c1.54,0.21,2.24-1.34,3.52-1.31c-2.29,1.66-4.59,3.31-6.88,4.97
		c-0.44,0.25-0.86,0.55-1.42,0.42c-0.28-0.06-0.74-0.16-0.36-0.49C303.78,99.24,306.17,96.97,308.86,95.06z"/>
	<path class="st34" d="M277.17,37.1c0-0.48,0-0.96,0-1.44c-0.19-0.24-0.26-0.51-0.23-0.81c0.24-0.91,0.03-1.92,0.59-2.76
		c0.59,0.62,1.18,1.25,1.77,1.87c-0.7,0.69-0.32,1.65-0.64,2.44c-0.34,4.96-1.17,9.84-2.26,14.68c-0.18,0.8-0.34,1.66-0.98,2.28
		c-0.46-0.45-0.36-0.99-0.21-1.51c1.56-5.42,1.9-11.05,2.91-16.56C277.86,36.5,277.84,36.53,277.17,37.1z"/>
	<path class="st35" d="M333.72,51.75c-0.91,0.88-1.51,1.94-1.89,3.15c-1.04,3.28-2.19,6.52-3.85,9.56c-0.31,0.57-0.5,1.27-1.4,1.03
		c-1.4-0.66-1-1.4-0.1-2.17c0.24,0.47-0.66,1.13,0.1,1.4c0.69,0.25,0.83-0.56,1.02-1c1.33-3.13,2.61-6.29,3.95-9.42
		c0.44-1.04,0.86-2.12,1.51-3.01C333.51,50.66,333.57,51.46,333.72,51.75z"/>
	<path class="st36" d="M317.58,38.59c-2.35,2.65-4.92,5.05-7.98,6.87c-0.3-0.82,0.35-1.18,0.82-1.55c0.74-0.58,1.42-1.22,2.13-1.83
		c-0.37-0.11-0.81,0.12-1.15-0.18c-0.11-0.15-0.12-0.3-0.01-0.45c0.01-0.51,0.36-0.65,0.78-0.81
		C313.98,39.98,315.78,39.28,317.58,38.59z"/>
	<path class="st37" d="M22.22,159.91c2.71,0.12,5.35,0.79,8.01,1.24c1,0.17,1.97,0.23,3.06,0.03c-0.41-1.42-2.02-1.11-2.7-2.02
		c1.08,0.24,2.16,0.48,3.24,0.72c1.15,1.29,2.76,1.49,4.32,1.8h0c-0.73,1.01-1.69,0.46-2.59,0.39c-0.22-0.01-0.44-0.03-0.66-0.04
		c-0.82-0.44-1.76,0.07-2.59-0.31C28.91,161.38,25.5,160.97,22.22,159.91z"/>
	<path class="st38" d="M162.35,157.37c-0.88,3.22,1.54,5.12,2.96,7.42c0.25,0.4,0.66,0.69,0.63,1.23c-0.63,0.17-1.02-0.25-1.34-0.66
		c-1.55-2.01-3.11-4.01-4.17-6.34c-0.34-1.26-0.73-2.52,0.51-3.55C161.66,155.93,161.83,156.78,162.35,157.37z"/>
	<path class="st39" d="M147.54,160.19c3.18-1.7,6.33-3.46,9.69-4.81c0.7-0.28,1.34-0.76,1.96-1.21c0.66-0.49,1.07-0.41,1.29,0.41
		c-0.45,0.34-0.95,0.61-1.37,0.99c-3.55,2.03-7.25,3.72-11.16,4.93C147.79,160.44,147.65,160.34,147.54,160.19z"/>
	<path class="st40" d="M304.19,45.39c0-0.12,0-0.23,0-0.35c-0.12-0.08-0.17-0.16-0.12-0.24c0.04-0.08,0.08-0.12,0.13-0.12
		c1.68-1.07,3.44-1.97,5.35-2.57c0.37-0.2,0.68-0.17,0.86,0.26c-1.41,1.89-3.35,3.11-5.35,4.26
		C303.71,46.96,304.43,45.85,304.19,45.39z"/>
	<path class="st41" d="M301.67,101.91c0.47-0.14,0.94-0.28,1.42-0.42c-0.44,0.72-1.29,0.94-1.97,1.59c0.41,0.39,0.88,0.19,1.28,0.28
		c-1.36,0.55-2.71,1.12-4.08,1.65c-0.38,0.15-0.88,0.31-1.11-0.13c-0.24-0.46,0.26-0.74,0.54-1
		C298.86,102.85,300.47,102.8,301.67,101.91z"/>
	<path class="st42" d="M150.46,147.99c0.97-0.03,1.89-0.55,2.89-0.37c-0.61,0.67-1.81,0.24-2.29,1.27c1.69,1.33,3.82,0.62,5.65,1.23
		c0.38,0.13,0.97,0.01,1.06,0.47c0.1,0.54-0.41,0.8-0.88,0.97c0.26-0.67,0.24-1.06-0.69-1.13c-1.78-0.14-3.56-0.42-5.33-0.65
		c-0.64-0.08-1.5,0-1.65-0.76C149.06,148.26,150.18,148.52,150.46,147.99z"/>
	<path class="st43" d="M265.62,182.52c0.5-1.18-0.82-0.56-1.03-1.05c-0.14-0.11-0.34-0.13-0.47-0.22c-0.56-0.36-1.8-0.19-1.64-1.02
		c0.18-0.97,1.28-0.46,2-0.48c0.44,0.25,0.92,0.31,1.42,0.29c1.34,0.36,2.83-0.15,4.08,0.71
		C268.42,181.07,267.01,181.77,265.62,182.52z"/>
	<path class="st44" d="M134.99,163.83c3.82-0.58,7.48-1.68,11.04-3.18c0.48-0.2,1.01-0.31,1.51-0.47c0.04,0.05,0.09,0.1,0.13,0.15
		c-0.5,1.21-1.7,1.46-2.71,1.85c-2.57,0.97-5.21,1.74-7.9,2.33c-0.65,0.14-1.3,0.21-1.91-0.16
		C134.99,164.21,134.93,164.04,134.99,163.83z"/>
	<path class="st45" d="M312.86,94.44c2.68-3.01,5.55-5.81,8.96-8C319.15,89.46,316.04,91.98,312.86,94.44z"/>
	<path class="st46" d="M269.99,180.75c-1.45-0.03-2.92,0.11-4.31-0.46c0.8-0.66,2.14-0.53,2.54-1.75c0.77,0.14,1.34,0.67,2,1.03
		C271.42,180.24,270.49,180.44,269.99,180.75z"/>
	<path class="st47" d="M330.8,32.86c-0.18-0.3-0.3-0.79-0.54-0.85c-0.43-0.11-0.45,0.41-0.56,0.72c-0.47,1.21-0.94,2.43-1.4,3.65
		c-0.11,0.01-0.22,0.03-0.33,0.04c-0.07-1.77,1.29-3.25,1.07-5.06c0.47-0.2,0.54-1.19,1.14-0.87
		C331.08,30.98,330.83,31.99,330.8,32.86z"/>
	<path class="st48" d="M252.32,184.38c0.02,0.11,0.03,0.22,0.04,0.33c-0.12,0-0.24-0.02-0.36,0c-0.81,0.15-1.62-1.24-2.23-0.3
		c-0.64,0.97,0.97,1.29,1.13,2.14c-1-0.21-1.64-1.02-2.48-1.5c-0.13-0.22-0.27-0.45-0.4-0.67c-0.5-1.7,0.6-1.28,1.5-1.14
		C250.45,183.62,251.38,184,252.32,184.38z"/>
	<path class="st49" d="M282.58,65.91c0.35-1.22,0.7-2.43,1.05-3.65c0.06,0.71,0.11,1.42-0.11,2.12c-0.14,0.44-0.46,1.02,0.05,1.29
		c0.61,0.31,0.68-0.46,0.98-0.76c0.16-0.16,0.37-0.29,0.56-0.43c-0.31,1.36-1.12,2.32-2.28,3.07
		C282.42,66.95,282.7,66.41,282.58,65.91z"/>
	<path class="st50" d="M202.99,94.36c-0.67,0.03-0.52,0.87-1.02,1.06c-0.94-0.53-1.55-1.37-2.12-2.25c-0.32-0.5-0.05-0.58,0.34-0.64
		C201.17,93.06,202.23,93.48,202.99,94.36z"/>
	<path class="st51" d="M215.61,162.77c-0.47-0.01-0.94-0.02-1.42-0.04c-0.31-0.35-0.95,0.09-1.16-0.48c0.33-0.81,1.15-0.45,1.7-0.74
		c0.96-0.02,1.93-0.01,2.89-0.01c0.2-0.01,0.38,0.05,0.53,0.18c-0.24,0.35-0.23,0.71-0.01,1.07
		C217.31,163.04,216.46,163.01,215.61,162.77z"/>
	<path class="st51" d="M220.67,161.32c3.14-0.22,6.28-0.5,9.39,0.34c-3.13,0.01-6.26,0.01-9.39,0.02c-0.12-0.08-0.16-0.16-0.12-0.24
		C220.59,161.36,220.63,161.32,220.67,161.32z"/>
	<path class="st52" d="M92.14,66.27c-1.16-0.76-2.46-0.13-3.67-0.39c1.76-0.5,3.6-0.5,5.4-0.73c0.28,0.05,0.57,0.09,1.09,0.18
		C93.95,65.93,93.1,66.25,92.14,66.27z"/>
	<path class="st53" d="M268.22,178.54c0.31,2.26-1.77,1.07-2.54,1.75c-0.42,0.1-0.81,0.11-1.13-0.25c-0.1-0.14-0.11-0.28-0.02-0.43
		c0.15-0.09,0.29-0.08,0.43,0.04c2.34,0.03,2.34,0.03,1.83-1.84C267.36,177.87,267.81,178.17,268.22,178.54z"/>
	<path class="st54" d="M199.08,184.33c-1.42,0.2-3.45-0.92-3.92-2.17C196.57,182.7,197.84,183.5,199.08,184.33z"/>
	<path class="st55" d="M215.61,162.77c0.85,0,1.7-0.01,2.55-0.01c0.12,0,0.24,0,0.36,0c0.54,0.44,1.26-0.05,1.81,0.34
		c1.19,0.19,2.46-0.36,3.59,0.39c-2.77,0.19-5.51-0.21-8.25-0.4C215.65,162.98,215.63,162.87,215.61,162.77z"/>
	<path class="st56" d="M35.57,162.07c0.85-0.22,1.81,0.31,2.59-0.39c1.02-0.13,1.93,0.24,2.86,0.75c-0.73,0-1.47,0-2.2,0
		C37.73,162.34,36.6,162.62,35.57,162.07z"/>
	<path class="st57" d="M160.95,155.48c-0.47,1.22-0.52,2.45-0.04,3.69c-1.69-0.71-1.96-2.07-0.77-3.86
		c0.16-0.11,0.34-0.17,0.53-0.19C160.76,155.23,160.85,155.35,160.95,155.48z"/>
	<path class="st53" d="M266.8,177.83c-1.6-0.43-3.1-1.07-4.34-2.21C264.03,176.11,265.53,176.75,266.8,177.83z"/>
	<path class="st58" d="M277.23,35.01c-0.02,0.22-0.04,0.44-0.05,0.66c-0.99-0.12-0.58-0.93-0.72-1.47c0.01-0.39-0.09-0.82,0.3-1.11
		C277.87,33.49,277.28,34.31,277.23,35.01z"/>
	<path class="st59" d="M327.59,32.8c-0.06,0.78-0.66,1.24-1.07,1.81c-0.02-0.48-0.28-0.72-0.75-0.75c0.37-0.35,0.74-0.7,1.12-1.04
		C327.11,32.59,327.35,32.57,327.59,32.8z"/>
	<path class="st60" d="M278.65,36.4c0.13-0.84-0.43-1.85,0.64-2.44c0.29,0.43,0.8,0.73,0.81,1.34c-1.8-1.1-0.83,0.66-1.13,1.1
		C278.87,36.39,278.76,36.4,278.65,36.4z"/>
	<path class="st61" d="M277.23,35.01c-0.16-0.64,0.24-1.42-0.48-1.92c0.1-0.46,0.03-1.05,0.78-1
		C277.52,33.07,277.79,34.08,277.23,35.01z"/>
	<path class="st62" d="M310.29,42.45c-0.25-0.11-0.5-0.22-0.75-0.34c0.51-0.51,1.11-0.78,1.85-0.67c0.01,0.12,0.03,0.24,0.05,0.36
		C311.37,42.57,311.06,42.92,310.29,42.45z"/>
	<path class="st55" d="M220.67,161.32c0,0.12,0,0.24,0,0.35c-0.84,0-1.67,0.01-2.51,0.01c-0.13-0.01-0.25-0.01-0.38-0.02
		c-0.11-0.08-0.15-0.15-0.11-0.22c0.04-0.07,0.08-0.1,0.12-0.1C218.76,161.33,219.71,161.33,220.67,161.32z"/>
	<path class="st63" d="M271,40.67c0.03-0.29-0.04-0.54-0.3-0.72c0.22-0.36,0.43-0.72,0.99-0.81C271.57,39.73,271.6,40.33,271,40.67z
		"/>
	<path class="st64" d="M304.2,44.69c0,0.12,0,0.23,0,0.35c-0.62,0.22-1.13,0.74-1.86,0.67C302.81,45.1,303.43,44.77,304.2,44.69z"/>
	<path class="st56" d="M32.32,161.71c0.87,0.05,1.79-0.35,2.59,0.31C34.03,162.03,33.14,162.19,32.32,161.71z"/>
	<path class="st57" d="M159.1,155.19c0.28-0.61,0.72-0.88,1.39-0.62c0.06,0.18,0.12,0.35,0.17,0.53c-0.06,0.04-0.12,0.08-0.18,0.12
		C160.02,155.35,159.55,155.62,159.1,155.19z"/>
	<path class="st35" d="M329.71,56.9c0.04-0.7,0.29-1.33,0.72-1.88C330.52,55.77,330.37,56.44,329.71,56.9z"/>
	<path class="st35" d="M329.01,57.98c0.24-0.37,0.48-0.73,0.72-1.1c0.04,0.74-0.05,1.42-0.8,1.8
		C328.95,58.45,328.98,58.22,329.01,57.98z"/>
	<path class="st65" d="M327.59,32.8c-0.23,0.01-0.47,0.01-0.7,0.02c0.18-0.5,0.55-0.72,1.07-0.74
		C327.94,32.37,327.89,32.65,327.59,32.8z"/>
	<path class="st26" d="M134.99,163.83c0.02,0.14,0.03,0.28,0.05,0.42c-0.08,0.06-0.15,0.12-0.23,0.18
		c-0.59,0.25-1.13,0.19-1.62-0.24c0,0,0,0,0,0C133.7,163.6,134.38,163.92,134.99,163.83z"/>
	<path class="st51" d="M220.32,163.1c-0.61-0.06-1.3,0.24-1.81-0.34C219.12,162.83,219.8,162.53,220.32,163.1z"/>
	<path class="st35" d="M331.03,52.56c0.2-0.61,0-1.32,0.48-1.86C331.44,51.34,331.92,52.12,331.03,52.56z"/>
	<path class="st66" d="M334.43,53.67c-0.58-0.48-0.3-1.15-0.37-1.74C334.62,52.42,334.41,53.07,334.43,53.67z"/>
	<path class="st67" d="M159.1,155.19c0.46,0.05,0.94-0.41,1.39,0.04c-0.98,1.43-1,2.76,0.42,3.93c1.51,2.41,2.86,4.93,5.03,6.85
		c0.8,1.76,2.08,3.24,3.4,4.51c3.3,3.18,4.36,7.25,5.27,11.47c1.25,5.78,0.42,11.45-0.73,17.12c-5.26,2.21-10.77,3.67-16.24,5.24
		c-12.34,3.54-24.93,5.34-37.76,5.54c-4.19-0.83-8.34-1.88-12.56-2.46c-12.12-1.69-23.99-4.49-35.77-7.72
		c-0.1-0.03-0.18-0.15-0.27-0.22c-2.67-1.07-5.04-2.65-7.46-4.16c-5.52-3.44-11.09-6.8-16.59-10.27c-1.76-1.11-3.47-2.31-5.12-3.59
		c-4.16-3.18-8.32-6.35-12.49-9.53c-0.92-0.7-1.6-1.61-2.17-2.59c-0.93-1.59-0.32-2.6,1.61-2.63c2.57-0.04,5.14-0.03,7.71-0.04
		c2.4,0.36,4.8,0.71,7.2,1.07c-0.64,0.73-1.55,0.5-2.35,0.65c-0.41,0.08-0.89,0.11-0.98,0.63c-0.08,0.47,0.29,0.76,0.62,1.02
		c0.43,0.35,0.95,0.52,1.48,0.61c2.48,0.43,4.93,0.93,7.48,0.92c10.07-0.04,20.13-0.01,30.2-0.02c4.49,0,8.98,0.12,13.46-0.34
		c1.74,0.22,3.45-0.08,5.17-0.31c0.42-0.06,0.96-0.09,0.99-0.57c0.03-0.52-0.52-0.56-0.94-0.59c-0.42-0.03-0.84,0.02-1.26,0.03
		c-1.44,0.03-2.87,0.05-4.31,0c-0.65-0.02-1.33-0.01-1.8-0.6c1.23-0.37,2.5-0.21,3.74-0.22c5.75-0.05,11.48-0.43,17.22-0.83
		c5.2-0.59,10.41-1.19,15.5-2.49l0,0c0.53-0.45,1.26,0.06,1.8-0.37c1.11-0.12,2.22-0.23,3.26-0.66c0.51-0.55,1.27,0.02,1.81-0.39
		c0,0,0.01,0.02,0.01,0.02c4.44-0.57,8.69-1.76,12.64-3.91C151.55,158.76,155.44,157.22,159.1,155.19z"/>
	<path class="st68" d="M108,34.59c-4.12-6.27-5.98-13.21-6.08-20.66c-0.01-0.81-0.32-1.67,0.28-2.42c0.27,0.18,0.36,0.46,0.42,0.75
		c0.67,3.04,3.05,3.95,5.6,2.13c0.18-0.09,0.33-0.05,0.47,0.08c1.23,4.26,1.13,8.63,1,12.98c-0.07,2.26,0,4.55-0.64,6.77
		C108.8,34.63,108.74,35.59,108,34.59z"/>
	<path class="st69" d="M108.38,14.43c-0.33,1.42-1.35,1.49-2.51,1.28c-1.48-0.27-3.28-0.06-3.58-2.22
		c-0.09-0.65-0.06-1.31-0.09-1.97c0.26-0.34,0.53-0.67,0.79-1.01c0,0-0.01,0.01-0.01,0.01c2.06-0.42,3.32,0.84,4.55,2.17
		C108.06,13.15,108.37,13.71,108.38,14.43z"/>
	<path class="st70" d="M108,34.59c0.53,0.39,0.74-0.12,1.05-0.36c0.04,0.54,0.05,1.19-0.56,1.28
		C107.97,35.59,108.02,34.98,108,34.59z"/>
	<path class="st71" d="M108.38,14.43c-0.29-0.58-0.57-1.16-0.86-1.74c0.91,0.26,1.07,1,1.16,1.79
		C108.58,14.46,108.48,14.44,108.38,14.43z"/>
	<path class="st72" d="M127.04,42.84c-2.01,2.88-3.97,5.81-6.89,7.9c-0.47,0.34-0.91,1.06-1.49,0.79c-0.6-0.28-0.32-1.09-0.22-1.62
		c0.9-5.19,2.96-9.92,5.94-14.25c0.2-0.29,0.49-0.52,0.76-0.75c0.73-0.62,1.51-1.44,2.51-1.01c0.95,0.41,0.53,1.49,0.52,2.27
		c-0.01,0.92,0.33,1.91-0.37,2.75c-0.94-1.08-0.03-2.56-0.74-3.73c-1.6,1.47-1.58,1.96,0.07,3.13c0.25,0.17,0.45,0.39,0.67,0.59
		c0.35,1.43-0.6,2.6-0.77,3.93C127.02,42.84,127.04,42.84,127.04,42.84z"/>
	<path class="st73" d="M88.9,43.28c0.9,1.48,1.81,2.96,3,4.9c-3.36-1.19-6.05-2.51-8.71-3.89c-0.92-2.02-0.02-2.99,2.6-2.79
		c0.5,0.2,0.64,0.68,0.83,1.11C87.12,43.75,87.87,43.97,88.9,43.28z"/>
	<path class="st74" d="M86.03,41.79c-2.88,0.03-3.22,0.33-2.85,2.51c-1.28-1.42-1.08-2.05,1.05-3.23c1.03-0.57,2.15-0.3,3.24-0.35
		c0.25,0.66,1.17,0.94,1.07,1.81C87.61,42.59,86.89,41.96,86.03,41.79z"/>
	<path class="st75" d="M86.03,41.79c1.09-0.6,1.76,0.18,2.51,0.74c0.04,0.29,0.07,0.58,0.36,0.75c-0.45,1.54-1.31,1.2-2.16,0.41
		C86.23,43.21,86,42.53,86.03,41.79z"/>
	<path class="st76" d="M115.14,116.99c-0.77,0.57-1.5,0.31-2.09-0.25c-0.77-0.72-0.96-1.74-0.59-2.65c1.45-3.68,4.47-7.06,9.28-7.16
		c5.46-0.1,8.8,2.79,11.01,7.3c1.47,3,2.07,6.3,2.21,9.65c-0.25,0.72-0.84,0.91-1.51,0.99c-0.39-0.03-0.69-0.19-0.79-0.61
		c-0.04-0.43,0.2-0.81,0.22-1.23c0.13-2.36-1.67-3.84-3.95-3.25c-0.89,0.23-1.63,0.75-2.36,1.27c-0.98,0.7-1.31,1.68-1.12,2.84
		c0.2,1.19,1.11,1.62,2.13,1.93c0.57,0.17,1.21,0.08,1.69,0.52c-0.6,1.68-3.16,3.26-4.61,2.85c-0.12-0.1-0.23-0.21-0.35-0.31
		c-1.81-1.06-2.26-3.04-2.87-4.76c-1.46-4.11-2-8.33-0.37-12.92c-2.18,0.72-3.23,2.25-4.29,3.79
		C116.28,115.7,116.17,116.72,115.14,116.99z"/>
	<path class="st76" d="M30.93,108.71c2.68-1.9,6.89-0.96,9.27,2.54c0.84,1.24,1.49,2.58,1.69,4.11c0.47,3.69,0.64,7.36-0.14,11.03
		c-0.16,1.64-1.04,3.02-1.65,4.49c-2.97-0.93-5.76-2.23-8.3-4.05c-0.23-0.33-0.42-0.68-0.55-1.06c-1.2-3.47-0.67-7.07-0.79-10.62
		c0-1,0.15-1.96,0.72-2.82c0.39-0.46,0.85-0.85,1.23-1.33c-0.25,0.26-0.58,0.34-0.93,0.37c-0.9-0.03-1.76,0.19-2.61,0.44
		c-0.35,0.1-0.73,0.05-0.89-0.36c-0.17-0.41,0.08-0.73,0.39-0.88C29.33,110.09,30.18,109.47,30.93,108.71z"/>
	<path class="st21" d="M166.51,82.11c2.57-0.56,4.99,0.86,7.39,2.21c1.5,0.85,2.42,2.16,2.11,4.01c-0.28,1.69-1.51,2.25-3.05,2.55
		c-4.53,0.89-8.24-0.48-11.27-3.87c-0.84-0.93-1.07-2.09-0.63-3.18c0.45-1.12,1.47-1.7,2.73-1.72
		C164.56,82.1,165.34,82.11,166.51,82.11z"/>
	<path class="st77" d="M115.14,116.99c0.89-1.54,1.58-3.21,2.9-4.48c1.1-1.06,2.3-1.84,3.86-1.96c-2.64,6.63-1.08,12.6,2.41,18.32
		c-3.8,0.23-8.17-3.5-8.71-7.46C115.4,119.95,115.29,118.46,115.14,116.99z"/>
	<path class="st78" d="M310.29,42.45c0.56,0.1,0.88-0.23,1.14-0.65c0.79,0.09,1.41-0.46,2.31-0.73c-1,2.03-3.13,2.67-4.14,4.38
		c-2.53,2.49-5.5,4.52-7.67,7.39c-1.39,1.84-2.79,3.68-4.19,5.52c-0.82,1.03-1.18,2.32-1.93,3.38c-0.2,0.29-0.41,0.67-0.81,0.56
		c-0.57-0.15-0.39-0.64-0.34-1.03c0.18-1.3,0.79-2.46,1.23-3.68c1.28-3,3.35-5.43,5.52-7.8c0.68-0.74,1.39-1.46,2.08-2.2
		c0.43-0.41,0.89-0.78,1.36-1.15C306.67,45.13,308.48,43.79,310.29,42.45z"/>
	<path class="st79" d="M31.67,112.33c-0.52,0.77-0.66,1.65-0.73,2.55c-0.39,3.5-0.86,6.99,0.42,10.44c0.5,1.35-0.47,1.5-1.46,1.54
		c-0.52-0.08-1.08-0.11-1.19-0.8c-0.54-0.61-1.08-1.22-1.62-1.84c-1.13-2.6-0.54-5.24-0.24-7.9c0.23-2.07,1.07-3.63,2.87-4.68
		C30.46,111.59,31.56,110.54,31.67,112.33z"/>
	<path class="st43" d="M277.17,37.1c0.66-0.82,0.56-1.87,0.97-3.09c0.44,3.46-0.46,6.52-0.78,9.62c-0.34,3.31-1.26,6.49-1.95,9.73
		c-0.73,2.6-1.95,5-3.18,7.39c-0.26,0.51-0.54,0.96-1.24,0.62c-0.79-0.38-0.33-0.95-0.15-1.37c0.72-1.71,1.51-3.39,2.27-5.08
		c2-4.42,2.62-9.17,3.33-13.89c0.09-0.59,0.08-1.19,0.37-1.74C277.3,38.61,276.76,37.78,277.17,37.1L277.17,37.1z"/>
	<path class="st80" d="M29.81,111.95c-2.57,1.77-2.82,4.56-3.1,7.29c-0.17,1.66-0.02,3.33,0.37,4.97c-0.66-0.37-0.82-1.01-0.8-1.68
		c0.06-2.07-0.25-4.16,0.33-6.27c-1.3,0.11-1.63,1.12-1.78,1.96c-0.45,2.57-1.88,4.62-3.24,6.73c0.76-4.05,2.85-7.54,4.73-11.1
		c0.45-0.85,0.42-1.82,0.99-2.58c0.72,1.25,1.7,0.13,2.54,0.27C29.98,111.69,29.96,111.83,29.81,111.95z"/>
	<path class="st81" d="M112.68,70.23c0.12,0.12,0.23,0.24,0.35,0.37c0.1,1.65-0.17,1.9-2.15,1.98c-2.06,0.74-4.12-0.01-6.14-0.18
		c-1.92-0.16-3.83-0.63-5.78-0.7l-0.16,0.01l-0.16-0.03c-0.1-0.73,0.38-1.04,0.93-1.31c2.05-0.08,4.05,0.57,6.1,0.48
		c0.28,0.01,0.56,0.05,0.83,0.12c1.11,0.34,2.23,0.3,3.35,0.12c0.47-0.15,1.18-0.18,0.39-0.89c-0.41-0.65-1.38-0.78-1.58-1.79
		C110.48,68.06,111.45,69.44,112.68,70.23z"/>
	<path class="st82" d="M99.35,70.6c0.06,0.56-0.5,0.7-0.72,1.07c-0.12,0-0.24-0.01-0.36-0.01c-0.57-0.51-1.33-0.72-1.88-1.31
		c-1.21-1.29-1.03-2.26,0.6-2.97c0.65-0.28,1.39-0.21,2.02-0.56c2.3-0.07,4.58-0.02,6.83,0.52l0-0.01c0.93,1.21-0.3,1.16-0.81,1.17
		c-1.84,0.02-3.67,0.24-5.49,0.42c-0.39,0.02-0.81-0.09-1.17,0.08c-0.69,0.33-0.25,0.56,0.11,0.78
		C98.86,69.97,99.24,70.14,99.35,70.6z"/>
	<path class="st27" d="M160.22,99.41c-1.17-0.03-2.05-0.61-2.15-1.87c-0.12-1.48,1-1.98,2.2-2.07c1.3-0.1,2.33,0.61,2.35,1.93
		C162.63,98.73,161.58,99.32,160.22,99.41z"/>
	<path class="st83" d="M133.55,124.59c0.47-0.24,0.93-0.47,1.4-0.71c0,0,0.12-0.03,0.12-0.03c0.43,1.13-0.64,1.3-1.16,1.81
		c-2.79,1.16-5.43,2.6-7.91,4.34c-0.62,0.4-1.03,0.08-1.39-0.39c0.02-0.14,0.03-0.28,0.05-0.42c1.87-0.33,3.15-1.62,4.53-2.76
		c0.41-0.67,1.01-1.08,1.75-1.31C131.81,125,132.67,124.72,133.55,124.59z"/>
	<path class="st84" d="M99,68.44c2.11-0.06,4.2-0.58,6.33-0.36c0.62,0.06,0.71-0.25,0.52-0.75c2.43,0.6,5.19,0.44,6.84,2.9
		c-1.32-0.29-2.08-1.75-3.79-1.72c0.57,0.67,1.65,0.72,1.65,1.69c-0.08,0.06-0.15,0.12-0.23,0.18c-1.01,0.14-1.78-0.55-2.68-0.82
		c-2.56-0.77-5.14-0.67-7.73-0.32c-0.3-0.03-0.58-0.11-0.83-0.28C98.9,68.81,98.88,68.63,99,68.44z"/>
	<path class="st85" d="M246.95,172.84c2.05,0.37,3.64,1.71,5.35,2.72c2.54,1.49,5.26,2.01,8.08,2.29c0.81,0.08,1.34,0.42,1.69,1.11
		c-1.1-0.5-2.3-0.27-3.41-0.46C254.24,177.76,250.55,175.35,246.95,172.84z"/>
	<path class="st86" d="M295.89,57.6c0,1.53-1.18,2.82-0.98,4.53c1.5-0.94,1.47-2.88,2.83-3.76c-0.79,1.79-1.58,3.57-2.37,5.36
		c-0.21,0.46-0.5,0.87-1.07,0.71c-0.76-0.21-0.29-0.77-0.24-1.17C294.3,61.26,294.63,59.28,295.89,57.6z"/>
	<path class="st87" d="M217.8,161.34c0,0.11-0.01,0.22-0.01,0.32c-1.08,0.01-2.15,0.02-3.23,0.02c-1.18,0.35-2.45,0.27-3.61,0.71
		c-2.08,0.08-4.1-0.19-6.06-1.06C209.19,161.34,213.49,161.34,217.8,161.34z"/>
	<path class="st88" d="M32.07,126.72c2.63,1.35,5.26,2.71,7.88,4.06c0.07,0.08,0.09,0.15,0.06,0.22c-0.03,0.07-0.06,0.1-0.08,0.1
		c-2.39-0.85-4.79-1.69-7.18-2.54C31.83,128.2,31.3,127.7,32.07,126.72z"/>
	<path class="st89" d="M124.61,129.61c0.46,0.13,0.93,0.26,1.39,0.39c-0.75,0.92-1.47,1.87-2.26,2.75
		c-0.35,0.39-0.75,1.16-1.43,0.47c-0.58-0.59-0.06-1.08,0.35-1.52C123.31,131.01,123.96,130.31,124.61,129.61z"/>
	<path class="st90" d="M98.95,71.7c1.41-0.6,2.89-0.22,4.18,0.17c2.04,0.62,4.16,0.28,6.18,0.82c0.46,0.12,1.04-0.18,1.56-0.29
		c0.12,0.08,0.16,0.17,0.12,0.25c-0.04,0.08-0.08,0.13-0.12,0.13c-2.98,0.61-5.9-0.14-8.81-0.56
		C101.04,72.07,99.89,72.39,98.95,71.7z"/>
	<path class="st91" d="M32.07,126.72c-0.19,0.77,0.09,1.36,0.68,1.84c-1.49-0.18-2.81-0.89-4.19-1.41c-1-0.38-0.91-0.85,0.14-1.1
		c0.31,0.4,0.76,0.29,1.17,0.34c0.7,0.36,1.32,0.3,1.84-0.34C31.83,126.28,31.95,126.5,32.07,126.72z"/>
	<path class="st92" d="M29.83,111.57c-0.34,0.19-0.68,0.39-1.03,0.57c-0.96,0.52-1.54,0.36-1.49-0.87c0.5-0.46,1.01-0.93,1.51-1.4
		c0.91-0.01,1.22-1.12,2.12-1.17c-0.29,1.47-2.15,1.41-3.02,3c1.5-0.57,2.6-1,3.78-0.79C31.33,111.9,30.46,111.38,29.83,111.57z"/>
	<path class="st93" d="M133.91,125.67c0.3-0.66,1.09-1,1.16-1.81c1.17-0.13,2.32-0.58,4.12-0.08
		C137.12,124.52,135.51,125.09,133.91,125.67z"/>
	<path class="st94" d="M234.01,183.62c-0.62-0.09-1.25-0.18-1.94-0.29c0.22,1,1.29,1.28,1.54,2.15c-1.16-0.46-1.99-1.36-2.88-2.19
		c-0.24-0.38-0.35-0.82,0.05-1.11c0.55-0.39,0.97,0.19,1.45,0.34C232.94,182.7,233.5,183.12,234.01,183.62z"/>
	<path class="st95" d="M98.64,67.02c-0.96,0.6-2.67,0.41-2.77,1.86c-0.09,1.24,1.21,1.76,2.21,2.29c0.11,0.06,0.12,0.32,0.18,0.49
		c-0.33-0.1-0.71-0.14-0.98-0.33c-0.97-0.66-2.22-1.26-1.87-2.71c0.33-1.38,1.57-1.62,2.82-1.65
		C98.39,66.85,98.52,66.86,98.64,67.02z"/>
	<path class="st96" d="M264.55,179.7c0.03,0.12,0.03,0.23,0,0.35c-0.59,0-1.18,0-1.93,0c0.44,0.98,1.59,0.68,1.97,1.43
		c-1.03,0.05-1.88-0.59-2.86-0.74c-0.43-0.39-1.42-0.64-0.36-1.41c0.23-0.01,0.47-0.01,0.7-0.02
		C262.95,179.09,263.72,179.59,264.55,179.7z"/>
	<path class="st84" d="M98.64,67.02c-0.13-0.01-0.27-0.03-0.4-0.04c2.57-0.62,5.11-0.56,7.6,0.36
		C103.45,67.14,101.06,66.85,98.64,67.02z"/>
	<path class="st97" d="M39.93,131.1c0.01-0.11,0.02-0.21,0.02-0.32c0.6-1.46,1.19-2.93,1.79-4.39c0.08,1.01,0.07,1.97-0.65,2.82
		c-0.44,0.52-0.45,1.19-0.37,1.84c-0.25,0.25-0.51,0.23-0.78,0.05L39.93,131.1z"/>
	<path class="st85" d="M242.97,170.68c1.46,0.47,2.97,0.85,3.97,2.16C245.51,172.33,244.06,171.84,242.97,170.68z"/>
	<path class="st56" d="M38.15,161.67c-1.67-0.05-3.35-0.08-4.32-1.8C35.15,160.77,36.72,161.06,38.15,161.67z"/>
	<path class="st98" d="M249.51,183.24c-0.77,0.03-1.6-0.03-1.5,1.14c-0.41-0.54-0.82-1.08-1.32-1.72
		C247.85,182.47,248.72,182.7,249.51,183.24z"/>
	<path class="st87" d="M232.24,182.52c-0.62,0.03-1.63-0.71-1.5,0.77c-0.46-0.26-0.82-0.62-1.06-1.1c-0.19-0.28-0.21-0.55,0.07-0.76
		c0.22-0.17,0.43-0.09,0.62,0.08C230.88,182.06,231.9,181.66,232.24,182.52z"/>
	<path class="st99" d="M230.37,181.51c-0.47-0.02-0.67,0.24-0.69,0.68c-0.69-0.42-1.21-1.08-1.98-1.5
		C228.73,180.5,229.56,180.97,230.37,181.51z"/>
	<path class="st100" d="M261.37,179.33c-0.52,0.64,0.14,0.96,0.36,1.41c-0.87-0.33-1.74-0.66-2.9-1.11
		C259.82,179.15,260.62,179.37,261.37,179.33z"/>
	<path class="st55" d="M210.95,162.4c0.95-1.53,2.43-0.35,3.61-0.71c-0.32,0.56-1.12,0.12-1.44,0.7c-0.61,0.29-1.22,0.26-1.83,0.02
		l-0.17,0.01L210.95,162.4z"/>
	<path class="st64" d="M304.86,46.46c-0.25,0.62-0.71,1-1.36,1.14c0.23-0.74,0.47-1.47,0.7-2.21c0.43-0.16,0.91-0.33,0.45,0.42
		C304.42,46.17,304.25,46.42,304.86,46.46z"/>
	<path class="st88" d="M39.94,131.09c0.26-0.02,0.52-0.03,0.78-0.05c0.77,0.2,1.33,0.7,1.84,1.3
		C41.6,132.1,40.7,131.75,39.94,131.09z"/>
	<path class="st84" d="M110.87,72.78c0-0.13,0-0.25,0-0.38c1.28,0.07,2.18-0.31,2.16-1.8C113.61,72.22,113.14,72.7,110.87,72.78z"/>
	<path class="st85" d="M264.55,179.7c-0.85,0.07-1.66-0.17-2.47-0.38c0-0.12,0-0.24,0-0.36c0.97,0.18,1.99,0.2,2.88,0.7
		C264.82,179.67,264.68,179.68,264.55,179.7z"/>
	<path class="st47" d="M326.88,38.93c-0.02-1.01,0.4-1.83,1.09-2.53C327.91,37.38,327.52,38.21,326.88,38.93z"/>
	<path class="st37" d="M30.59,159.15c-0.92,0.02-1.79-0.1-2.52-0.72C28.99,158.41,29.86,158.55,30.59,159.15z"/>
	<path class="st87" d="M211.29,162.41c0.61-0.01,1.22-0.01,1.83-0.02c0.39,0.02,0.81-0.05,1.07,0.34
		C213.22,162.66,212.2,163.03,211.29,162.41z"/>
	<path class="st94" d="M235.84,184.69c-0.78-0.07-1.47-0.31-1.84-1.08C234.74,183.75,235.39,184.06,235.84,184.69z"/>
	<path class="st34" d="M277.18,37.1c-0.08,0.73,0.31,1.54-0.36,2.18C276.88,38.54,276.59,37.75,277.18,37.1z"/>
	<path class="st101" d="M42.1,181.48c2.94,1.8,5.9,3.57,8.83,5.4c4.95,3.11,9.98,6.08,14.89,9.26c1.78,1.15,3.6,2.28,5.44,3.35
		c-2.61-0.35-4.82-1.72-7.11-2.87c-7.56-3.79-14.38-8.71-20.98-13.96C42.77,182.33,42.46,181.87,42.1,181.48z"/>
	<path class="st102" d="M91.7,169.18c2.19,0.03,4.38,0.06,6.57,0.09c0.51,0.24,1.29,0.26,1.22,1.06c-0.07,0.75-0.83,0.67-1.36,0.9
		c-1.24,0.52-2.58,0.13-3.82,0.53c-15,0.78-30.01,0.18-45.02,0.36c-2.58,0.03-5.06-0.66-7.58-1.07c-0.73-0.12-1.15-0.62-1.58-1.1
		c-0.92-1.05-0.62-1.92,0.77-2.09c1-0.12,2.03-0.07,3.05-0.1c0,0-0.02,0-0.02,0c1.16,0.56,2.45-0.06,3.63,0.38
		c6.22,0.43,12.44,0.82,18.66,1.32c1.63,0.13,3.26,0.16,4.84-0.05C77.93,168.48,84.82,169.36,91.7,169.18z"/>
	<path class="st103" d="M128.16,165.65c-3.42,1.49-7.1,1.69-10.72,2.12c-1.58,0.19-3.16,0.63-4.77,0.37
		c2.89-0.87,5.93-0.86,8.88-1.38C123.74,166.37,125.86,165.44,128.16,165.65z"/>
	<path class="st67" d="M47.55,168.13c-1.21-0.08-2.49,0.43-3.63-0.38C45.15,167.74,46.38,167.7,47.55,168.13z"/>
	<path class="st103" d="M129.96,165.28c-0.52,0.51-1.18,0.34-1.8,0.37C128.66,165.04,129.33,165.27,129.96,165.28z"/>
	<path class="st44" d="M135.03,164.23c-0.53,0.46-1.19,0.36-1.81,0.39c-0.01-0.14-0.02-0.28-0.02-0.42
		C133.8,164.21,134.42,164.22,135.03,164.23z"/>
	<path class="st104" d="M94.31,171.75c1.1-0.74,2.46-0.13,3.61-0.69c0.46-0.23,1.17-0.17,1.27-0.79c0.09-0.55-0.66-0.6-0.91-1
		c1.07-0.04,2.59-0.21,2.62,1.07c0.03,1.13-1.52,0.88-2.49,1.09C97.04,171.74,95.68,171.76,94.31,171.75z"/>
	<path class="st105" d="M127.8,38.92c-2.81-0.79-3.25-2.2-1.32-4.18c0.26-0.27,0.52-0.52,0.91-0.42c0.43,0.12,0.42,0.53,0.42,0.87
		C127.81,36.43,127.8,37.68,127.8,38.92C127.79,38.92,127.8,38.92,127.8,38.92z"/>
	<path class="st106" d="M130.99,125.34c-0.63,0.32-1,1.07-1.81,1.1c-3.38-0.02-5-1.64-4.15-4.15c0.55-1.64,3.03-3.03,5.25-3.1
		c1.28-0.04,2.03,0.48,2.47,1.61c0.43,1.12,1.36,2.24,0.06,3.4C132.3,124.73,131.86,125.37,130.99,125.34z"/>
	<path class="st107" d="M128.83,112.7c-0.12,0.96-0.6,1.54-1.63,1.48c-0.86-0.05-1.56-0.46-1.54-1.38c0.02-1.04,0.71-1.61,1.75-1.61
		C128.37,111.19,128.72,111.85,128.83,112.7z"/>
	<path class="st108" d="M130.99,125.34c0.65-0.32,1.02-1.07,1.82-1.14c0.15,0.31,0.44,0.35,0.73,0.39
		C132.73,124.98,132.06,125.82,130.99,125.34z"/>
	<path class="st109" d="M36.38,126.82c-2.49,0.22-3.44-2.04-3.66-4.37c-0.12-1.34,1-2.12,2.73-2.12c2.2,0,3.74,1.59,3.77,3.89
		C39.24,125.99,38.33,126.83,36.38,126.82z"/>
	<path class="st110" d="M37.17,112.61c1.08,0.13,1.59,0.83,1.56,1.82c-0.03,0.97-0.71,1.54-1.68,1.41c-1.1-0.15-1.91-0.78-1.75-2.03
		C35.44,112.76,36.27,112.57,37.17,112.61z"/>
	<path class="st111" d="M31.71,126.06c-0.42,1.18-1.12,0.85-1.84,0.34c1.21,0.1,1.6-0.2,1.08-1.52c-1.31-3.3-0.86-6.67-0.01-10.01
		C31.05,118.61,30.61,122.39,31.71,126.06z"/>
	<path class="st112" d="M29.83,111.57c0.62-0.21,1.25-0.43,1.87-0.64c0.3,0.11,0.89-0.18,0.86,0.23c-0.03,0.45-0.32,0.99-0.89,1.18
		c-0.36-1.42-1.27-0.09-1.86-0.38C29.82,111.82,29.82,111.69,29.83,111.57z"/>
	<path class="st90" d="M99.35,70.6c-0.36-0.12-0.72-0.24-1.08-0.36c-0.13-0.19-0.11-0.36,0.07-0.51c0.36-0.22,0.75-0.24,1.16-0.2
		c2.06,0.59,4.31,0.21,6.27,1.26c0.16,0.16,0.18,0.34,0.06,0.53C103.64,71.35,101.49,71.01,99.35,70.6z"/>
	<path class="st84" d="M105.83,71.32c0-0.11,0-0.22,0-0.33c0.79-0.78,1.8-0.43,2.72-0.55c0.64-0.09,1.31,0.3,1.91-0.15
		c0,0,0.08-0.08,0.08-0.08c0.38,0.1,0.93,0.13,0.79,0.66c-0.14,0.55-0.73,0.43-1.18,0.47c-1.21,0.24-2.41,0.26-3.61-0.01
		C106.31,71.32,106.07,71.32,105.83,71.32z"/>
	<path class="st90" d="M106.54,71.32c1.2,0,2.41,0.01,3.61,0.01C108.95,71.86,107.75,71.88,106.54,71.32z"/>
	<path class="st95" d="M98.28,69.87c0,0.12,0,0.24,0,0.36c-0.41-0.29-1.22-0.33-0.96-1.05c0.25-0.7,1.01-0.74,1.69-0.74
		c0,0.11-0.01,0.23-0.01,0.34c-0.08,0.15-0.21,0.26-0.34,0.37C98.44,69.34,97.54,69.19,98.28,69.87z"/>
	<path class="st113" d="M110.46,70.28c-0.03,0.95-0.76,0.72-1.29,0.73c-1.11,0.02-2.23-0.02-3.34-0.03
		c-2.13-0.56-4.39-0.36-6.5-1.08c-0.35-0.54-0.1-0.85,0.42-1.04c2.67-0.5,5.31-0.54,7.97,0.2
		C108.73,69.34,109.54,69.89,110.46,70.28z"/>
	<path class="st114" d="M99.75,68.86c-0.14,0.35-0.28,0.69-0.42,1.04c-0.35-0.01-0.7-0.02-1.06-0.03c-1.14-1.27,0.4-0.77,0.71-1.09
		C99.24,68.81,99.5,68.83,99.75,68.86z"/>
</g>
</svg>
