<?xml version="1.0" encoding="utf-8"?>
<!-- Generator: Adobe Illustrator 23.0.2, SVG Export Plug-In . SVG Version: 6.00 Build 0)  -->
<svg version="1.1" id="Camada_1" xmlns="http://www.w3.org/2000/svg" xmlns:xlink="http://www.w3.org/1999/xlink" x="0px" y="0px"
	 viewBox="0 0 189.23 274.32" style="enable-background:new 0 0 189.23 274.32;" xml:space="preserve">
<style type="text/css">
	.st0{fill:#FEFEFE;}
	.st1{fill:#242424;}
	.st2{fill:#201C35;}
	.st3{fill:#211D36;}
	.st4{fill:#201C34;}
	.st5{fill:#201D35;}
	.st6{fill:#221E37;}
	.st7{fill:#231F38;}
	.st8{fill:#231F37;}
	.st9{fill:#242038;}
	.st10{fill:#231F36;}
	.st11{fill:#211E36;}
	.st12{fill:#211E2F;}
	.st13{fill:#29243B;}
	.st14{fill:#211E31;}
	.st15{fill:#2F2A43;}
	.st16{fill:#211E30;}
	.st17{fill:#36324A;}
	.st18{fill:#342E47;}
	.st19{fill:#2E2944;}
	.st20{fill:#25213A;}
	.st21{fill:#2D2A3E;}
	.st22{fill:#242036;}
	.st23{fill:#2B2641;}
	.st24{fill:#3D3754;}
	.st25{fill:#9592C0;}
	.st26{fill:#8481AB;}
	.st27{fill:#4E4F6A;}
	.st28{fill:#E3E3E3;}
	.st29{fill:#26213B;}
	.st30{fill:#2E2942;}
	.st31{fill:#423B54;}
	.st32{fill:#8683AD;}
	.st33{fill:#7D7BA3;}
	.st34{fill:#27243E;}
	.st35{fill:#302B48;}
	.st36{fill:#656286;}
	.st37{fill:#474762;}
	.st38{fill:#8D8AB7;}
	.st39{fill:#7A779F;}
	.st40{fill:#34304D;}
	.st41{fill:#3B3654;}
	.st42{fill:#676588;}
	.st43{fill:#9390BE;}
	.st44{fill:#51516D;}
	.st45{fill:#363049;}
	.st46{fill:#928FBC;}
	.st47{fill:#8986B1;}
	.st48{fill:#706D93;}
	.st49{fill:#6F6B92;}
	.st50{fill:#636084;}
	.st51{fill:#233B53;}
	.st52{fill:#2A2541;}
	.st53{fill:#27233D;}
	.st54{fill:#352F4C;}
	.st55{fill:#2F2A47;}
	.st56{fill:#8E8BB7;}
	.st57{fill:#231F39;}
	.st58{fill:#2A2641;}
	.st59{fill:#423F5C;}
	.st60{fill:#3C3754;}
	.st61{fill:#3A344C;}
	.st62{fill:#494763;}
	.st63{fill:#4E4B6A;}
	.st64{fill:#64627F;}
	.st65{fill:#656383;}
	.st66{fill:#605E7F;}
	.st67{fill:#625B71;}
	.st68{fill:#423E5B;}
	.st69{fill:#DBDADC;}
	.st70{fill:#6D6C8F;}
	.st71{fill:#8280A9;}
	.st72{fill:#727095;}
	.st73{fill:#646384;}
	.st74{fill:#484561;}
	.st75{fill:#322F4A;}
	.st76{fill:#737196;}
	.st77{fill:#9A7A82;}
	.st78{fill:#FDFDFD;}
	.st79{fill:#1F1111;}
	.st80{fill:#464460;}
	.st81{fill:#43405C;}
	.st82{fill:#221414;}
	.st83{fill:#252039;}
	.st84{fill:#474561;}
	.st85{fill:#302842;}
	.st86{fill:#29253F;}
	.st87{fill:#3E3A57;}
	.st88{fill:#2F2841;}
	.st89{fill:#2D2640;}
	.st90{fill:#2F2C47;}
	.st91{fill:#5B5B74;}
	.st92{fill:#35282B;}
	.st93{fill:#302C47;}
	.st94{fill:#25223B;}
	.st95{fill:#2C1E22;}
	.st96{fill:#2C253F;}
	.st97{fill:#6C6B8E;}
	.st98{fill:#7C79A0;}
	.st99{fill:#5C5A7C;}
	.st100{fill:#6E6C90;}
	.st101{fill:#34314C;}
	.st102{fill:#615E81;}
	.st103{fill:#5D5B7C;}
	.st104{fill:#77759B;}
	.st105{fill:#646185;}
	.st106{fill:#E2E1E7;}
	.st107{fill:#32262A;}
	.st108{fill:#35304A;}
	.st109{fill:#383550;}
	.st110{fill:#6A698B;}
	.st111{fill:#545371;}
	.st112{fill:#535370;}
	.st113{fill:#2F2226;}
	.st114{fill:#666486;}
	.st115{fill:#29233D;}
	.st116{fill:#352C45;}
	.st117{fill:#26223C;}
	.st118{fill:#76739A;}
	.st119{fill:#706D92;}
	.st120{fill:#5A5169;}
	.st121{fill:#737195;}
	.st122{fill:#33314B;}
	.st123{fill:#6D6B8F;}
	.st124{fill:#3E3D58;}
	.st125{fill:#253D55;}
	.st126{fill:#9CCEF2;}
	.st127{fill:#4C83AA;}
	.st128{fill:#5584A9;}
	.st129{fill:#605D81;}
	.st130{fill:#B1B0BA;}
	.st131{fill:#8A899B;}
	.st132{fill:#9997A7;}
	.st133{fill:#BCBBC3;}
	.st134{fill:#A5A4B1;}
	.st135{fill:#B1AFBA;}
	.st136{fill:#9896A6;}
	.st137{fill:#D1D1D4;}
	.st138{fill:#BEBDC5;}
	.st139{fill:#CAC9CE;}
	.st140{fill:#908486;}
	.st141{fill:#4B779A;}
	.st142{fill:#D6D2D2;}
	.st143{fill:#CDC8C9;}
	.st144{fill:#C5BEBF;}
	.st145{fill:#362829;}
	.st146{fill:#86B8DE;}
	.st147{fill:#807F93;}
	.st148{fill:#4A7292;}
	.st149{fill:#D2CDCE;}
</style>
<g>
	<path class="st0" d="M72.01,260.13c-0.99,3.26-1.29,6.63-3.55,9.23c-2.58,2.96-5.69,5.09-9.73,4.92c-4.56-0.2-9.16,0.55-13.69-0.68
		c-2.64-0.72-5.04-2.05-7.73-2.72c-1.92-0.48-3.12-2.35-3.91-4.23c-1.39-3.31-1.34-6.62,0.2-9.87c0.92-1.93,0.96-4.05,1.51-6.06
		c0.21-0.76-0.28-1.39-0.62-2.01c-4.46-7.91-8.48-16.05-13.62-23.58c-2.93-4.29-4.99-9.1-6.51-14.09c-1.31-4.32-3.4-8.39-4.18-12.88
		c-0.03-0.17-0.1-0.38-0.22-0.48c-4.09-3.35-4.39-8.47-5.85-12.96c-1.95-5.98-3.01-12.18-2.8-18.52c0.02-0.65,0.11-1.31,0.2-1.95
		c0.21-1.57,0.38-2.97-0.57-4.56c-1.07-1.8-0.99-4-0.84-6.24c0.28-3.94,1.2-7.68,2.48-11.33c2.82-8.03,7.39-15.1,12.59-21.78
		c0.95-1.22,2.01-2.36,3.02-3.54c-4.04-2.45-5.72-6.41-6.63-10.78c-0.28-1.34-0.82-1.91-2.15-2.36c-3.33-1.1-6.17-2.86-7.01-6.71
		c-0.77-3.54,0.32-6.4,3.08-8.56c2.59-2.04,4.64-4.64,7.21-6.69c0.25-0.2,0.37-0.43,0.32-0.77c-1.05-7.33,0.79-14.23,3.52-20.88
		c1.21-2.95,1.08-5.18-0.57-7.94C9.92,41.99,8.03,30.85,8.41,19.21c0.14-4.26,0.52-8.46,1.41-12.64c1.06-4.96,6.06-7.2,9.81-6.42
		C24.61,1.2,29.65,2.2,34.31,4.6c6.21,3.2,12.18,6.64,16.98,11.81c0.57,0.61,1.12,0.78,1.89,0.53c1.34-0.44,2.66-0.38,4.06-0.08
		c1.9,0.4,3.82-0.16,5.7-0.4c5.78-0.76,11.54-0.72,17.35-0.32c5.75,0.4,11.31,1.73,16.89,2.99c3.82,0.87,6.63,3.4,9.21,6.19
		c0.5,0.54,0.73,1.2,0.9,1.92c0.68,2.72,2.21,3.52,4.89,2.65c4.02-1.31,7.97-2.91,12.23-3.35c2.77-0.29,5.5-0.8,8.36-0.38
		c3.11,0.46,6.29,0.1,9.44,0.91c5.15,1.33,7.22,4.93,7.38,9.34c0.42,11.28-2.73,21.48-9.82,30.36c-0.3,0.37-0.63,0.73-0.96,1.07
		c-2.44,2.44-4.27,4.96-5.14,8.64c-0.95,4.02-1.82,8.2-3.65,12.07c-1.52,3.23-1.45,6.82-1.07,10.38c0.55,5.02,1.74,10.02,0.18,15.1
		c-1.27,4.17-2.82,8.12-6.36,10.92c-0.5,0.39-0.41,0.67-0.22,1.18c2.59,6.93,4.84,13.97,6.4,21.22c0.18,0.86-0.21,1.82,0.48,2.57
		c0.04,0.04,0.11,0.04,0.35,0.12c-0.01-2.14,0.24-4.21,0.56-6.28c0.88-5.61,4.15-9.86,7.78-13.88c2.25-2.48,4.69-4.75,7.82-6.22
		c1-0.47,1.59-1.75,2.43-2.6c2.34-2.4,5.4-3.15,8.57-3.67c1.41-0.23,2.84-0.44,4.22-0.8c1.2-0.31,2.33-0.36,3.53,0
		c1.08,0.32,2.17,0.27,3.33,0.16c5.26-0.47,10.38,0.58,15.33,2.2c3.19,1.04,6.09,6.13,5.87,9.43c-0.26,3.81-2.62,6.8-6.6,8.09
		c-3.62,1.18-7.44,1.72-10.98,3.2c-2.39,1-4.67,2.14-6.62,3.87c-1.92,1.7-2.18,3.99-2.31,6.36c-0.24,4.51,0.39,8.97,0.75,13.44
		c0.24,2.92,0.59,5.83,0.64,8.77c0.03,2.15-0.14,4.31,0.58,6.41c0.18,0.54,0.19,1.22,0.04,1.78c-1.36,5.34-1.21,10.91-2.63,16.26
		c-1.86,7-4.91,13.54-7.35,20.31c-1.85,5.13-4.46,9.76-7.66,14.08c-3.5,4.74-8.29,7.9-13.62,10.25c-4.35,1.92-8.91,3.05-13.68,3.17
		c-0.52,0.01-0.7,0.38-0.96,0.69c-1.48,1.8-3.28,3.17-5.58,3.69c-0.84,0.19-0.92,0.54-0.68,1.22c0.28,0.8,0.73,1.49,1.22,2.18
		c4.78,6.69,1.43,12.78-5.01,15.82c-2.26,1.06-4.47,2.24-6.61,3.45c-5.53,3.12-10.77,3.67-16.58,0.57
		C80.09,269.07,75.72,265.11,72.01,260.13z"/>
	<path class="st1" d="M118.72,196.97c1.51-0.23,2.7-0.95,4.05-0.79c0.36,0.04,0.47-0.27,0.61-0.54c2.47-4.55,5.63-8.74,7.03-13.85
		c1.01-3.69,2.11-7.35,2.29-11.21c0.04-0.85,0.19-1.89,0.94-2.24c1.46-0.69,1.16-1.86,1.22-3.01c0.24-5.1-0.25-10.18-0.44-15.26
		c-0.25-6.86,2.51-12.28,7.07-17.02c2.02-2.1,3.98-4.3,6.9-5.31c0.72-0.25,1.35-1.03,1.81-1.71c1.61-2.41,3.87-3.63,6.68-3.99
		c1.65-0.21,3.3-0.36,4.89-0.94c0.54-0.2,1.3-0.34,1.75-0.1c1.98,1.02,3.98,0.38,5.97,0.28c3.51-0.18,6.88,0.68,10.28,1.31
		c1.48,0.27,2.74,0.99,3.56,2.24c1.67,2.57,1.89,5.37-1.6,6.94c-2.71,1.22-5.66,1.47-8.45,2.37c-4.07,1.31-7.98,2.87-11.23,5.74
		c-3.05,2.69-3.98,6.19-4.06,10.13c-0.09,4.45,0.42,8.85,0.79,13.26c0.26,3.16,0.61,6.32,0.66,9.49c0.03,1.89-0.27,3.82,0.54,5.66
		c0.22,0.51,0.21,1.22,0.06,1.78c-1.29,4.81-1.02,9.86-2.27,14.68c-1.76,6.8-4.8,13.12-7.15,19.69c-1.69,4.73-4.06,9.01-6.91,13.06
		c-3.09,4.39-7.49,7.09-12.27,9.32c-3.08,1.43-6.35,2.05-9.63,2.71c-1.47,0.3-2.83-0.43-4.28-0.31c-0.72,0.06-1.19,0.1-1.44,0.94
		c-0.9,3.01-3.33,4.1-6.13,4.44c-1.73,0.21-3.43,0.4-5.14,1.29c1.83,2.52,3.27,5.23,4.52,8.08c0.48,1.1,1.58,1.99,1.94,3.3
		c0.26,0.94,0.3,1.93-0.25,2.59c-1.19,1.45-2.21,3.17-4.19,3.74c-2.48,0.72-4.65,2.19-6.8,3.44c-4.26,2.47-8.04,3.03-12.56,0.49
		c-4.99-2.8-9.1-6.31-12.06-11.17c-1.52-2.5-2.16-5.43-3.9-7.84c-0.43-0.59-0.75-1.26-1.63-1.01c-0.93,0.27-0.56,1.1-0.51,1.63
		c0.23,2.58-0.44,5.03-1.2,7.4c-0.99,3.1-1.13,6.52-3.08,9.28c-1.58,2.24-3.69,3.86-6.6,3.61c-3.86-0.33-7.74,0.47-11.58-0.33
		c-1.23-0.26-2.45-0.53-3.47-1.37c-0.55-0.45-1.23-0.7-1.96-0.79c-3.39-0.42-5.33-3.39-4.25-6.69c0.82-2.49,1.69-4.94,2.19-7.54
		c0.47-2.47,0.35-4.61-0.99-6.82c-3.8-6.27-6.72-13.05-10.88-19.12c-3.91-5.69-7.06-11.74-9.1-18.36
		c-1.36-4.43-3.37-8.65-4.28-13.22c-0.08-0.4-0.11-0.96-0.53-1.09c-2.23-0.69-2.46-2.71-3.11-4.49c-2.23-6.08-3.92-12.3-4.49-18.77
		c-0.28-3.22-0.19-6.46,0.59-9.63c0.2-0.82,0.26-1.45-0.5-2.19c-1.55-1.54-1.52-3.44-1.38-5.63c0.31-4.83,1.78-9.24,3.71-13.57
		c2.61-5.87,6-11.28,9.95-16.32c2.47-3.15,5.14-6.14,7.72-9.2c0.3-0.36,0.83-0.71,0.22-1.16c-0.61-0.44-0.84-1.51-1.92-1.2
		c-4.09,1.15-5.11,0.7-6.98-3.01c-1.21-2.39-1.96-4.89-1.76-7.59c0.07-0.99-0.06-1.5-1.3-1.46c-2.22,0.07-4.2-0.87-6.03-2.02
		c-1.97-1.23-2.38-3.89-0.62-5.4c2.81-2.41,5.27-5.19,8.16-7.49c1.37-1.09,1.96-2.64,1.75-4.1c-0.87-6.23,0.4-12.09,2.58-17.84
		c0.89-2.35,1.72-4.72,2.65-7.05c0.35-0.87,0.23-1.45-0.34-2.25c-5.12-7.14-8.03-15.11-9.06-23.83C12.67,23.06,13,16.1,13.91,9.13
		c0.54-4.15,3.57-4.83,6.45-4.24c6.5,1.34,12.52,3.88,18.19,7.26c4.03,2.4,7.7,5.28,10.63,8.99c0.62,0.78,1.19,1.31,2.23,0.85
		c3.09-1.36,6.36-0.14,9.55-0.67c5.13-0.85,10.36-1.03,15.57-0.77c5.13,0.26,10.26,0.6,15.18,2.26c0.89,0.3,1.78,0.18,2.67,0.29
		c3.22,0.39,5.41,2.64,7.82,4.42c0.9,0.67,1.07,1.86,0.96,2.97c-0.1,0.99,0.31,1.46,1.15,1.93c1.87,1.05,3.61,3.05,5.5,3.18
		c1.8,0.12,3.86-1.27,5.81-2c4.28-1.61,8.7-2.92,13.25-2.88c4.21,0.03,8.51-0.27,12.64,0.99c2.2,0.67,3.33,2.17,3.42,4.5
		c0.48,12.54-3.58,23.24-12.9,31.81c-0.26,0.24-0.49,0.56-0.8,0.72c-1.78,0.93-2.53,2.14-1.52,4.15c0.41,0.82,0.23,1.99-0.38,2.56
		c-1.34,1.26-1.27,2.79-1.42,4.38c-0.2,2.04-0.98,3.94-1.8,5.8c-2.33,5.29-2.53,10.8-1.49,16.35c1.11,5.92,0.76,11.51-2.45,16.77
		c-1.16,1.91-2.62,3.23-4.96,3.33c-1.32,0.06-1.69,0.69-1,1.87c3.28,5.65,4.73,11.97,6.74,18.1c1.23,3.76,1.57,7.7,2.76,11.48
		c1.32,4.16,0.67,8.43-0.13,12.73c-1.8,9.69-4.23,19.24-6.31,28.87C119.15,195.69,118.95,196.23,118.72,196.97z"/>
	<path class="st2" d="M127.3,234.73c-3.5,1.93-7.29,1.61-11.02,1.24c-1.28-0.13-2.2-0.04-3.02,0.92c-1.17-0.07-1.11-0.89-0.95-1.68
		c0.72-3.62,0.58-7.23-0.17-10.83c-0.09-0.41-0.09-0.83-0.1-1.25c-0.1-3.69,0.11-7.39-0.32-11.09c-0.37-3.26,0.51-6.54,0.3-9.82
		c0.21-4.89,1.59-9.56,2.71-14.27c1.43-6,3.14-11.94,4.24-18.02c0.69-3.84,0.83-7.74,1.24-11.6c0.08-0.73-0.11-1.43-0.26-2.13
		c-1.81-8.57-4.07-17.01-7.21-25.21c-0.6-1.57-1.43-3.03-2.32-4.46c-0.16-0.34-0.3-0.7-0.47-1.04c-0.44-1.03-1.25-1.88-1.53-3
		c-0.36-1.62,0.65-1.97,1.92-2.02c0.76-0.03,1.56-0.13,2.18,0.49c-0.49,0.64-1.26,0.17-2.02,0.55c3.22,3.98,5.17,8.56,6.62,13.36
		c1.88,6.19,4.46,12.22,4.09,18.94c-0.11,1.99,0.39,4.01,0.67,6.01c0.9,6.48-0.77,12.65-2.39,18.79c-2.08,7.89-4.1,15.79-5.42,23.84
		c-0.28,1.68-0.54,3.5-0.11,5.27c0.27,0.31,0.43,0.66,0.46,1.07c0.35,7.11,0.18,14.24,1.24,21.31c0.11,0.73,0.02,1.43-0.12,2.14
		c-0.44,2.16-0.28,2.3,1.99,2.37c6.47,0.2,11.64-2.75,16.4-6.7c2.4-1.99,4.61-4.17,6.65-6.53c2.04-2.36,3.08-5.24,4.32-8.03
		c1.16-2.62,1.98-5.39,3.56-7.82c0.76-0.69,1.3-1.56,1.9-2.38c0.36-0.49,0.55-1.26,1.41-1.18c-0.82,3.3-2.26,6.36-3.59,9.46
		c-1.44,3.38-2.41,6.98-4.55,10.04c-0.4,0.58-0.81,1.16-1.22,1.74c-3.46,4.37-7.85,7.63-12.6,10.44
		C128.97,233.98,128.14,234.36,127.3,234.73z"/>
	<path class="st3" d="M86.98,263.52c-4.11-2.93-7.89-6.04-9.63-11.13c-0.86-2.5-2.62-4.68-3.32-7.32c-0.16-0.61-0.63-0.64-1.13-0.63
		c-1.98,0.05-3.93-0.08-5.78-0.9c-0.88-0.39-1.02,0.23-1.02,0.91c0,1.68,0,3.35-0.01,5.03c-0.49,0.91,0.12,1.96-0.36,2.88
		c-0.56,3.3-1.72,6.41-3.16,9.42c-0.44,0.91-1.09,1.74-1.43,2.68c-0.54,1.49-2.05,2.12-2.97,1.72c-3.09-1.35-6.08-0.07-9.1-0.12
		c-1.31-0.02-2.47-0.32-3.51-1.1c-0.36-1.15,0.56-1.01,1.18-1.18c1.5-0.29,2.87,0.83,4.37,0.39c0.54-0.47,0.09-0.98,0.06-1.46
		c-0.05-0.6-0.18-1.26,0.81-1.08c0.59,0.42,0.6,1.35,1.4,1.59c0.39,0.15,0.82,0.15,1.21,0.26c3.99,1.13,3.58,1.27,6.23-2.82
		c0.55-0.85,0.97-1.76,1.34-2.7c0.32-0.98,0.42-2.02,0.74-3c0.81-4.14,0.6-8.33,0.53-12.5c-0.04-2.15,0.08-4.31-0.18-6.46
		c-1.12-9.23-4.1-18.08-5.56-27.24c-0.13-0.83-0.4-1.63-0.39-2.48c0.13-0.81-0.14-1.83,1.1-2.03c1.25,0.29,1.39,1.42,1.64,2.36
		c1.4,5.09,2.36,10.29,3.28,15.48c0.31,1.77,0.64,3.52,1.24,5.24c1.21,3.49,1.6,7.13,1.68,10.8c0.06,2.5,1.77,4.05,4.29,3.82
		c1.37-0.13,0.86-1.09,0.7-1.75c-0.86-3.44-1.43-6.93-1.86-10.45c-0.58-4.7-1.16-9.4-1.27-14.14c-0.01-2.27,0.16-4.54-0.1-6.8
		c-0.06-0.21-0.09-0.41-0.1-0.63c-0.05-0.55,0.11-1.06,0.29-1.56c0.28-0.83,0.5-1.85,1.7-1.67c1.13,0.17,0.96,1.17,1.04,1.97
		c-0.82,5.35,0.51,10.59,0.89,15.88c0.27,3.87,0.81,7.73,1.54,11.56c0.91,4.77,2.13,9.44,4.49,13.74c0.73,1.33,0.66,2.9,1.44,4.23
		c1.1,1.87,2.36,3.6,3.85,5.16c0.91,0.95,1.96,1.77,2.73,2.87c0.4,0.85,1.44,1.19,1.74,2.13C87.67,262.99,87.39,263.3,86.98,263.52z
		"/>
	<path class="st3" d="M112.51,201.89c0.09,2.38-0.39,4.78-0.25,7.11c0.36,6.13-0.12,12.28,0.89,18.4c0.42,2.54,0.45,5.26-0.37,7.83
		c-0.23,0.72-0.3,1.28,0.48,1.65c-0.26,3.73-2.31,5.42-6,4.9c-0.29-0.04-0.66-0.28-0.85-0.18c-1.97,1.04-3.98,1.25-6.16,0.74
		c-0.72-0.17-0.67,0.67-0.66,1.19c0.02,1.23,0.89,2.04,1.53,2.96c1.46,2.1,3.03,4.12,3.86,6.58c-1.46-0.11-2.15-1.36-3.1-2.18
		c-0.53-0.46-0.95-1.07-1.44-1.6c-1.04-1.42-1.69-3.14-3.11-4.29c-2.62-3.21-4.13-6.92-5-10.93c-0.13-0.58-0.19-1.17-0.33-1.76
		c-0.38-3.78-0.01-7.49,0.98-11.15c0.84-3.11,1.71-6.2,2.58-9.3c0.17-0.45,0.33-0.91,0.46-1.38c1.28-4.55,2.39-9.14,3.65-13.7
		c0.3-1.09,0.59-2.2,1.21-3.18c0.49-0.54,0.78-1.15,0.82-1.89c0.19-0.86,0.54-1.6,1.38-2.01c1.12-0.3,1.19,0.39,1,1.16
		c-0.18,0.72-0.47,1.42-0.58,2.17c-2.2,7.98-3.67,16.13-5.45,24.21c-0.29,1.3-0.31,1.31-1.47,2.14c-0.22,0.16-0.06,0.25-0.08,0.35
		c-0.48,2.9-1.21,5.77-1.4,8.69c-0.26,3.84,0.67,7.49,2.39,10.94c0.35,0.71,0.81,1.24,1.68,0.95c1.03-0.34,2.01-0.16,3.01,0.1
		c0.29,0.08,0.63,0.23,0.88,0.13c2.3-0.97,4.8-1.11,7.15-1.83c1.15-1.53,1.35-3.34,1.36-5.13c0.03-3.53,0.27-7.07-0.26-10.59
		c-0.05-0.35-0.09-0.72-0.04-1.08c0.67-4.9-0.28-9.8-0.03-14.7c0.07-1.38,0.24-2.74,0.43-4.11
		C111.76,202.61,111.81,202.02,112.51,201.89z"/>
	<path class="st2" d="M14.26,188.29c-5.47-10.58-6-21.56-2.69-32.86c-0.14-0.05-0.28-0.15-0.34-0.11c-0.74,0.45-1.43,1.38-2.38,0.79
		c-1.1-0.69-0.78-1.96-0.68-2.98c0.56-5.49,2.45-10.57,5.09-15.37c2.42-4.4,5.01-8.69,8.25-12.55c1.83-2.19,3.79-4.27,5.69-6.4
		c1-0.6,1.52-1.68,2.42-2.38c1.16-1.27,2.7-2.06,4.01-3.14c0.15-0.1,0.3-0.2,0.45-0.28c0.87-0.43,1.65-0.32,2.13,0.55
		c0.59,1.06-0.56,1.21-0.99,1.74c-0.96,1.09-2.15,1.91-3.25,2.83c-6.76,5.67-11.78,12.7-16.06,20.33c-2.36,4.2-4.25,8.57-5.53,13.52
		c1.21-0.55,1.8-1.45,2.58-2.09c0.51-0.42,1.04-0.94,1.75-0.61c0.81,0.37,0.4,1.12,0.41,1.75c0.03,1.84-0.6,3.5-1.18,5.21
		c-1.91,5.64-2.53,11.42-1.56,17.35c0.7,4.26,1.74,8.44,2.69,12.65C15.05,187.01,15.17,187.86,14.26,188.29z"/>
	<path class="st3" d="M154.3,127.44c1.2-1.2,2.39-2.42,4.32-2.16c0.93,1.24,1.91,2.11,3.68,1.36c0.58-0.25,1.52-0.16,2.15,0.44
		c-0.17,0.95-1.04,0.87-1.67,1.04c-1.17,0.32-2.29,0.66-3.07,1.68c-0.25,0.32-0.59,0.68-1.06,0.45c-0.34-0.17-0.44-0.59-0.42-0.94
		c0.14-1.78-0.72-1.32-1.67-0.78c-3.74,2.11-6.18,5.18-6.96,9.47c-0.05,0.29-0.13,0.58-0.22,0.87c-0.25,0.78-0.58,1.52-1.57,1.38
		c-0.87-0.13-1.06-0.85-1.14-1.6c-0.09-0.89,0.05-1.78-0.13-2.95c-1.06,1.01-1.73,2.09-2.54,3.07c-3.24,3.8-3.45,8.47-3.52,13.08
		c-0.08,4.84-0.02,9.69,0.17,14.54c0.16,4.15-0.37,8.37-1.49,12.44c-0.25,0.47-0.51,1.02-1.14,0.9c-0.63-0.12-0.67-0.74-0.74-1.27
		c-0.06-0.46-0.02-0.94-0.19-1.39c-0.05-0.17-0.04-0.46-0.12-0.5c-0.21-0.11-0.11,0.14-0.12,0.21c-0.51,4.55-2,8.82-3.79,12.99
		c-0.94,2.19-2.21,4.22-3.93,5.92c-0.85,0.36-1.14,1.51-2.2,1.57c0.42-2.29,1.65-4.2,2.88-6.1c3.1-4.8,4.86-10.09,5.76-15.7
		c0.15-0.93,0.39-1.84,0.6-2.81c0.84,0.19,0.93,1.19,1.93,1.28c0-0.57,0-1.14,0-1.7c0-7.68,0.11-15.36-0.04-23.03
		c-0.1-5.15,1.25-9.53,5.33-12.88c0.88-0.72,1.62-1.6,2.43-2.4c1.3-1.29,2.43-2.84,4.52-2.9
		C151.92,130.13,153.03,128.7,154.3,127.44z"/>
	<path class="st2" d="M99.22,29.53c1.15,0.53,0.54,1.44,0.19,1.95c-0.59,0.87-0.45,1.44,0.31,1.94c3.15,2.06,6.33,4.09,9.49,6.13
		c0.79,0.51,1.38-0.05,1.98-0.37c5.73-3.03,11.75-4.97,18.3-4.98c2.58,0,5.16,0.04,7.74-0.01c1.12-0.02,2.1,0.43,3.13,0.7
		c0.81,0.22,0.86,0.79,1,1.48c0.8,3.81,0.09,7.5-0.94,11.12c-1.5,5.24-3.35,10.35-7.06,14.51c-1.51,1.69-2.91,3.52-4.98,4.6
		c-1.46-0.19-1.04-1.1-0.75-1.96c2.53-3.03,4.79-6.26,6.93-9.58c3.21-4.97,4.41-10.55,4.85-16.33c0.16-2.07-0.28-2.44-2.21-2.62
		c-7.32-1.04-14.22,0.82-21.06,3.04c-1.25,0.4-2.47,0.9-3.69,1.36c-0.64,0.15-1.17,0.42-1.26,1.17c-0.41,0.5-1,0.54-1.57,0.62
		c-0.55-0.02-1.13-0.16-1.45-0.56c-1.42-1.73-3.5-2.58-5.13-4.02c-0.99-0.62-1.77-1.82-3.22-1.22c-1.58-0.18-2.96-0.92-4.39-1.54
		c-0.44-0.34-0.99-0.36-1.5-0.51c-0.96-0.34-2.63-0.08-2.64-1.28c0-1.34,1.69-0.83,2.62-1.13c1.01-0.32,2-0.76,3.07-0.85
		C98.19,31.29,98.56,30.21,99.22,29.53z"/>
	<path class="st4" d="M164.49,127.14c-1.27,0.15-2.64-0.63-3.83,0.56c-0.36,0.36-1.02,0-1.27-0.61c-0.25-0.61-0.52-1.2-0.78-1.81
		c4.22,1.02,8.26-1.02,12.43-0.71c2.73,0.21,5.43,0.62,8.08,1.38c0.92,0.26,1.73,0.79,1.75,1.79c0.01,0.99-0.93,1.33-1.73,1.53
		c-3.12,0.79-6.25,1.51-9.32,2.51c-4.72,1.54-8.8,4.04-11.99,7.84c-1.71,2.04-2.57,4.42-2.89,7.16c-0.5,4.26-0.22,8.48,0.16,12.68
		c0.48,5.29,1.18,10.55,1,15.87c-1.09-0.24-0.81-1.17-0.86-1.86c-0.22-2.91-0.76-5.75-1.76-8.49c-0.5-1.7-0.76-3.43-0.76-5.2
		c0-0.88,0.01-1.77-0.28-2.62c-0.29-3.5-0.11-7-0.12-10.49c0.98-7.57,5.83-12.1,12.25-15.27c2.84-1.4,5.8-2.61,9.03-2.86
		c1.22-0.05,2.39-0.49,3.62-0.44c0.21,0.01,0.44,0.19,0.65-0.01c-0.18,0.01-0.34-0.04-0.52-0.09c-3.46-1-6.93-1.59-10.5-0.65
		C166.07,127.55,165.24,127.75,164.49,127.14z"/>
	<path class="st3" d="M26.86,55.44c0.16-1.36-0.33-2.44-1.35-3.34c-1.27-1.12-1.89-2.67-2.72-4.1c-3.25-5.56-4.96-11.58-6.04-17.88
		c-0.95-5.54-0.3-11.07-0.26-16.6c0.01-1.5,0.6-3.03,1.11-4.48c0.35-0.98,1.34-1.13,2.26-0.83c7.58,2.44,15.2,4.81,21.55,9.91
		c1.94,1.56,4.04,3,5.26,5.3c0.2,0.59,1.28,1.04,0.74,1.63c-0.68,0.73-1.36-0.2-2.02-0.52c-1.86-1.58-3.63-3.26-5.55-4.77
		c-3.48-2.74-7.33-4.89-11.35-6.73c-0.62-0.31-1.3-0.5-1.94-0.77c-1.79-0.69-3.63-1.24-5.45-1.84c-0.98-0.43-1.51-0.31-1.65,0.94
		c-1.02,9.18-0.9,18.29,1.58,27.26c0.6,2.39,1.62,4.62,2.5,6.91c0.32,0.82,0.69,1.61,1.22,2.32c0.25,0.33,0.42,0.76,0.75,0.99
		c2.24,1.53,2.37,4.11,3.11,6.35c0.45,1.35-0.08,2.69-0.76,3.91c-0.18,0.32-0.47,0.56-0.83,0.16C26.4,58.01,26.43,56.73,26.86,55.44
		z"/>
	<path class="st3" d="M128.01,64.76c-0.33,0.71-0.59,1.4,0.37,1.84c-0.36,0.3-0.72,0.61-1.09,0.91c-2.4,1.92-2.4,1.92-1.4,4.79
		c0.31,0.89,0.68,1.77-0.95,1.26c-0.81-0.25-0.93,0.25-0.72,0.91c1.06,3.33,0.32,6.38-1.05,9.53c-2.62,6.02-3.03,12.34-1.76,18.78
		c0.96,4.83,0.69,9.46-1.98,13.83c-1.53,2.5-2.25,2.73-4.1,0.45c-0.58,1.6-0.96,3.3-2.79,3.89c-0.71,0-1.42,0.05-2.13-0.01
		c-1.42-0.11-2.05,0.35-1.48,1.82c-1.62-0.78-2.76-0.12-3.99,1.01c-1.06,0.97-2.34,1.8-3.89,1.96c-1.22-0.09-2.51,0.38-3.64-0.45
		c-0.14-1.2,0.91-1.27,1.6-1.54c2.51-0.97,4.96-2.05,7.06-3.78c0.98-0.88,2.29,0.4,3.27-0.52c2.95-0.95,4.15-3,3.81-6.04
		c-0.07-0.59-0.04-1.2,0.15-1.78c0.1-0.26,0.27-0.46,0.52-0.6c1.06-0.35,1.71,0.23,2.25,1.01c0.58,0.83,1.02,1.75,1.63,2.7
		c1.52-1.99,1.65-4.34,2.12-6.58c0.73-1.89-0.21-3.76-0.11-5.65c0.09-1.78-0.34-3.56-0.46-5.35c0.03-1.28-0.05-2.57,0.07-3.85
		c0.02-0.19,0.07-0.38,0.12-0.57c0.72-1.88,0.87-3.87,1.2-5.83c0.05-0.96,0.31-1.88,0.5-2.81c0.64-2.98,1.26-5.95,0.59-9.02
		c-0.34-1.56,0.04-2.97,1.3-4.04c0.47-0.4,0.52-0.89,0.58-1.43c0.22-2.32,1.84-3.64,3.54-4.89
		C127.41,64.55,127.73,64.57,128.01,64.76z"/>
	<path class="st5" d="M43.06,252.72c1.15-3.73-0.69-6.66-2.47-9.66c-3.37-5.68-5.88-11.86-9.75-17.26
		c-3.57-4.98-6.27-10.4-8.51-16.07c-0.39-0.99-0.58-2.06-0.86-3.09c0.31-1.19,0.71-1.22,2.16-0.19c0.88,1.44,1.32,3.07,1.98,4.61
		c2.94,6.92,7.13,13.14,10.96,19.56c2.61,4.37,5.08,8.82,7.46,13.31c0.45,0.85,0.9,1.7,0.95,2.69c0.01,1.43,0.2,2.89-0.11,4.29
		C44.67,251.79,44.65,253.13,43.06,252.72z"/>
	<path class="st6" d="M99.22,29.53c0,1.23-0.67,1.89-1.83,2.15c0.59-1.26,0.08-1.72-1.17-2.16c-4.65-1.65-9.47-2.5-14.33-3.2
		c-0.18-0.02-0.36-0.07-0.54-0.12c-0.75-0.24-1.52-0.12-2.28-0.13c-2.75-0.01-5.52-0.31-8.23-0.22c-4.99,0.17-10.02,0.26-14.98,1.18
		c-1.88,0.35-3.78,0.6-5.66,0.96c-0.31,0.09-0.62,0.11-0.93,0.07c-1.68-0.91-1.76-1.29-0.46-2.13c0.33,0.12,0.65,0.41,1.01,0.19
		c1.98-1.19,4.16-0.92,6.3-0.9c2.16,0.02,4.26-0.4,6.39-0.65c6.25-0.73,12.52-0.65,18.78-0.12c1.19,0.1,2.38,0.07,3.57,0.2
		C90.05,25.19,94.28,28.39,99.22,29.53z"/>
	<path class="st7" d="M23.27,206.64c-0.61-0.46-1.21-0.92-1.81,0.01c-0.83-2.06-1.85-4.07-2.43-6.2c-0.7-2.56-1.55-5.1-1.97-7.75
		c-0.13-0.85-0.49-1.62-1.81-1.8c-1.13-0.15-0.87-1.64-1-2.62c0.43-0.67,0.37-1.42,0.36-2.17c2.27-0.7,2.25-0.42,3.24,1.61
		c2.6,5.32,3.46,11.17,5.36,16.69C23.46,205.13,23.86,205.89,23.27,206.64z"/>
	<path class="st4" d="M26.86,55.44c0.12,1.31,0.24,2.63,0.36,3.94c0.42,1.77-0.38,3.3-0.97,4.85c-1.64,4.35-2.91,8.77-2.86,13.47
		c0.01,0.59-0.01,1.17-0.14,1.75c-0.43,1.1-0.47,2.43-1.79,2.99c-1.78-7.16,0.2-13.8,2.8-20.36C25.14,59.88,25.99,57.66,26.86,55.44
		z"/>
	<path class="st8" d="M21.46,82.45c0.48-0.96,0.96-1.92,1.44-2.88c0.89,0.82,0.8,1.92,0.83,2.98c0,0.28-0.02,0.56-0.06,0.84
		c-0.02,0.18-0.07,0.35-0.12,0.52c-0.55,1.47-1.34,2.78-2.49,3.87c-0.8,0.4-0.92,1.25-1.27,1.95c-1.74,1.47-3.75,2.56-5.5,4.02
		c-0.56,0.47-0.74,0.78,0.09,1.08c0.9,0.28,1.81,0.45,2.75,0.5c0.57,0.03,1.36-0.15,1.46,0.81c-2.61,1.4-5.07,0.52-7.51-0.52
		c-1.03-0.44-0.63-0.98-0.05-1.44c2.26-1.78,4.08-4.05,6.29-5.85c1.55-1.26,2.73-2.6,3.32-4.51C20.78,83.32,21.18,82.9,21.46,82.45z
		"/>
	<path class="st9" d="M18.58,96.13c-1.47-0.77-3.28-0.01-4.68-1.07c0.24-0.31,0.6-0.47,0.95-0.41c1.75,0.3,3.43-0.17,5.14-0.41
		c1.84-0.26,2.16,0.18,1.67,1.96c-0.78,2.81-0.6,7.44,0.45,9.64c0.63-0.84,1.16-1.69,1.95-2.28c1.48-1.11,2.66-0.74,2.91,1.06
		c0.23,1.66,1.44,2.55,2.44,3.63c0.61,0.66,1.39,1.13,1.97,1.82c0.47,0.69,1.05,1.27,1.76,1.72c0.56,0.36,0.94,0.79,0.23,1.39
		c-0.27,0.1-0.52,0.09-0.74-0.12c-0.96-1.27-2.63-1.44-3.8-2.41c-0.59-0.48-1.23-0.88-1.61-1.56c-0.67-0.9-1.41-1.8-1.58-2.93
		c-0.21-1.45-0.83-0.98-1.49-0.41c-0.32,0.27-0.41,0.71-0.62,1.06c-0.67,1.08-1.53,1.65-2.79,0.84c-0.47-0.37-0.66-0.87-0.72-1.44
		c-0.03-0.75-0.12-1.49-0.12-2.24c0-0.86,0.08-1.72-0.32-2.53c-0.22-1.42-0.18-2.83,0.08-4.23C19.74,96.4,19.38,96.05,18.58,96.13z"
		/>
	<path class="st10" d="M43.06,252.72c1.47-0.28,1.32-1.55,1.41-2.54c0.13-1.3,0.03-2.63,0.03-3.94c0.84,0.08,0.82,0.78,0.84,1.32
		c0.08,1.66,0.21,3.32-0.28,4.95c-0.34,2.18-0.64,4.37-1.45,6.44c-0.52,1.32-0.47,2.56,0.36,3.73c0.2,0.16,0.4,0.6,0.67,0.24
		c1.33-1.73,1.31-1.74,2.29,0.05c0.2,0.38,0.43,0.76,0.19,1.21c-0.57,0.15-1.41-0.24-1.55,0.77c-1.57-0.11-2.69-1.38-4.29-1.6
		c-0.89-0.12-0.91-1.36-0.7-2.16C41.36,258.36,42.23,255.55,43.06,252.72z"/>
	<path class="st7" d="M126.94,197.28c0.62-0.59,0.97-1.46,1.84-1.79c0.41,0.62,0.07,1.17-0.22,1.66c-1.41,2.35-2.55,4.83-3.79,7.26
		c-0.3,0.58-0.62,1.16-1.29,1.41c-1.69,0.3-1.99-0.91-2.28-2.11c-0.37-1.52-0.53-1.58-1.73-0.61c-1.08,0.87-1.8,2.07-2.71,3.1
		c-0.43,0.48-0.73,1.11-1.46,1.24c-0.08-0.03-0.16-0.06-0.24-0.08c0.41-3.81,2.97-5.88,6.07-7.52c0.44-0.24,0.96-0.66,1.43-0.06
		c0.39,0.5,0.56,1.05,0.09,1.63c-0.15,0.18-0.31,0.41-0.32,0.62c-0.02,0.56-0.36,1.28,0.33,1.6c0.61,0.29,1-0.3,1.31-0.7
		c0.85-1.09,1.38-2.36,1.89-3.63C126.13,198.58,126.35,197.83,126.94,197.28z"/>
	<path class="st11" d="M156.1,180.37c-0.21,6.1-0.71,12.16-2.83,17.96c-0.1,0.27-0.27,0.51-0.41,0.76c-0.41-0.96-0.62-1.96-0.68-3
		c0.03-0.17,0.07-0.34,0.12-0.5c0.37-0.91,0.52-1.85,0.45-2.82c-0.06-0.88,0.25-1.7,0.32-2.56c0.09-1.61-0.1-3.22,0.13-4.82
		c0.15-0.56,0.36-1.1,0.66-1.6c0.47-0.68,0.5-1.56,0.91-2.26C155.07,181,155.25,180.28,156.1,180.37z"/>
	<path class="st7" d="M156.1,180.37c-1.19,0.9-1.12,2.44-1.83,3.59c-0.91-1.86-0.7-3.81-0.38-5.74c0.37-2.26,0.32-4.51,0.04-6.76
		c-0.15-0.91-0.11-1.82-0.12-2.73c0-0.66,0.05-1.33-0.17-1.98c-0.11-0.47-0.15-0.94-0.01-1.42c0.07-0.19,0.18-0.34,0.34-0.45
		c1.05,2.83,1.62,5.76,1.78,8.77c0.03,0.57-0.2,1.21,0.35,1.67C156.1,177.01,156.1,178.69,156.1,180.37z"/>
	<path class="st12" d="M129.82,233.65c0.43-0.99,1.5-1.14,2.23-1.72c3.17-2.51,6.48-4.85,9.28-7.8c0.33-0.34,0.73-0.62,1.09-0.92
		c-0.86,2.68-2.97,4.43-4.96,6.12C135.23,231.23,132.81,233,129.82,233.65z"/>
	<path class="st13" d="M106.07,256.32c0.69,1.03,0.26,2.18,0.32,3.28c0.02,0.52-0.42,0.73-0.86,0.67c-1.23-0.18-1.97,0.53-2.76,1.3
		c-0.86,0.83-1.91,1.51-3.12,1.55c-0.93,0.03-1.36,0.58-1.87,1.13c-1.24-0.17-1.29-0.46-0.35-1.99c0.42-0.47,1.01-0.57,1.59-0.67
		c0.41-0.07,0.96-0.06,1.16-0.36c1.22-1.81,3.27-2.03,5.04-2.78C105.84,257.87,105.37,256.86,106.07,256.32z"/>
	<path class="st7" d="M152.5,195.84c-0.02,1.1,0.66,2.12,0.36,3.25c0,1.09-0.59,1.97-1.08,2.88c-1.15,1.05-1.49,2.75-2.89,3.6
		c-0.42-0.53-0.11-1.07-0.01-1.61c0.86-2.29,1.84-4.54,2.56-6.89C151.6,196.56,151.66,195.83,152.5,195.84z"/>
	<path class="st14" d="M20.74,107.65c1.35,0.19,2.31-0.28,2.79-1.6c0.27-0.75,0.9-1.18,1.63-1.18c0.93,0,0.46,0.9,0.69,1.37
		c0.45,0.95,0.92,1.9,1.37,2.85c-1.05-0.54-1.34-1.6-1.75-2.57c-0.13-0.3,0.05-0.8-0.43-0.85c-0.47-0.05-0.73,0.36-0.91,0.72
		c-0.24,0.47-0.37,1-0.61,1.47c-0.34,0.68-0.63,1.57-1.54,1.51C21.04,109.3,20.91,108.4,20.74,107.65z"/>
	<path class="st15" d="M106.07,256.32c-0.18,0.83,0.41,1.79-0.45,2.5c-0.59-2.62-1.54-5.05-3.66-6.86c-0.63-0.71-1.4-1.33-1.51-2.38
		c0.02-0.18,0.1-0.33,0.22-0.46c1.47,1.29,2.68,2.86,4.31,3.97C105.31,254.17,106.03,255.13,106.07,256.32z"/>
	<path class="st3" d="M95.63,265.33c-1.55,1.08-3.14,1.15-4.76,0.14c-1.14-0.71-2.58-0.88-3.53-1.94c0.27-0.3,0.63-0.41,1.02-0.44
		c1.6-0.24,2.59,1.33,4.1,1.38c0.37,0.04,0.73,0.09,1.09,0.18C94.21,264.95,95.06,264.7,95.63,265.33z"/>
	<path class="st16" d="M19.66,97.21c0.03,1.45-0.15,2.91,0.36,4.32c0.47,0.79-0.13,1.73,0.36,2.52c0.01,0.74,0.07,1.49-0.36,2.16
		C18.47,103.26,18.83,100.24,19.66,97.21z"/>
	<path class="st4" d="M154.3,127.44c0.04,0.63-0.09,1.2-0.76,1.45c-0.78,0.29-1.38,0.88-1.58,1.58c-0.32,1.16-1,0.65-1.63,0.57
		C151.15,129.28,152.77,128.42,154.3,127.44z"/>
	<path class="st17" d="M32.63,113.06c0.24,0,0.47-0.01,0.71-0.01c0.32,0.14,0.53,0.33,0.35,0.72c-1.32,0.96-2.63,1.93-3.95,2.89
		c-0.34,0.09-0.47-0.03-0.37-0.37C30.11,114.86,31.83,114.42,32.63,113.06z"/>
	<path class="st18" d="M93.47,264.99c-0.37-0.01-0.73-0.01-1.1-0.02c-0.12-0.18-0.1-0.34,0.04-0.49c1.6-0.5,3.33-0.69,4.53-2.08
		c0.19-0.22,0.54-0.2,0.82-0.03c-0.02,0.62-1.5,1.26,0.02,1.87c-0.19,0.48-0.55,0.73-1.07,0.72
		C95.62,264.88,94.55,265.39,93.47,264.99z"/>
	<path class="st19" d="M48.82,25.93c-1.07,0.84-0.44,1.34,0.36,1.8c-0.32,1.01-0.9,0.58-1.46,0.26c-0.43-0.46-0.67-1.03-0.86-1.62
		c-0.02-0.17,0-0.33,0.05-0.49c0.46-0.36,0.61-0.89,0.82-1.4C48.1,24.96,48.46,25.45,48.82,25.93z"/>
	<path class="st20" d="M47.74,24.48c-0.06,0.57,0.24,1.33-0.73,1.45c-1.14-0.06-1.74-0.56-1.48-1.79c0.6,0.16,0.93,0.87,1.74,0.78
		c-0.21-0.53-0.42-1.02-0.62-1.51C47.15,23.64,47.5,24,47.74,24.48z"/>
	<path class="st21" d="M29.37,116.28c0.12,0.12,0.25,0.25,0.37,0.37c-0.72,0.86-1.3,1.9-2.53,2.15
		C27.86,117.9,28.33,116.85,29.37,116.28z"/>
	<path class="st22" d="M93.47,264.99c1.08,0.26,2.15-0.77,3.23-0.03c-0.26,0.42-0.68,0.35-1.08,0.36
		C94.91,265.21,94.11,265.6,93.47,264.99z"/>
	<path class="st12" d="M127.3,234.73c0.71-0.66,1.53-1.08,2.52-1.08C129.11,234.3,128.29,234.73,127.3,234.73z"/>
	<path class="st23" d="M65.74,252.37c0.16-0.96-0.36-1.99,0.36-2.88C65.94,250.45,66.46,251.48,65.74,252.37z"/>
	<path class="st7" d="M113.99,208.82c0-0.36,0-0.73-0.01-1.09c0.36-0.12,0.72-0.24,1.07-0.36c0,0,0.01,0.01,0.01,0.01
		C115.44,208.4,114.96,208.79,113.99,208.82z"/>
	<path class="st22" d="M88.42,263.52c-0.36,0-0.73,0-1.09,0c-0.12,0-0.24,0-0.35,0c0.12-0.36,0.24-0.72,0.36-1.08
		C88.16,262.35,88.51,262.72,88.42,263.52z"/>
	<path class="st24" d="M113.99,208.82c0.56-0.33,1.04-0.72,1.08-1.44c1.08-0.79,1.72-1.95,2.54-2.96c0.61-0.75,1.24-1.46,2.02-2.02
		c1.58-1.13,1.67-1.05,1.94,0.82c0.15,1.06,0.09,2.41,1.79,2.37c0.98,2.16,1.36,4.54,2.67,6.6c2.06,3.22,2.59,3.54,6.27,2.33
		c4.47-1.48,8.42-3.95,12.26-6.6c1.57-1.09,3.11-2.21,4.19-3.82c0.18-0.09,0.35-0.07,0.5,0.04c-0.12,0.48-0.24,0.96-0.36,1.44
		c-1.86,3.36-3.16,6.96-4.59,10.5c-1.67,4.13-4.53,7.28-7.73,10.18c-2.25,2.04-4.48,4.1-7.21,5.58c-4.14,2.24-8.4,3.72-13.19,3.29
		c-1.2-0.11-1.78-0.66-1.4-1.7c1.1-2.99-0.15-5.89-0.21-8.83c-0.02-0.8-0.26-1.65-0.22-2.48
		C114.6,217.65,113.82,213.25,113.99,208.82z"/>
	<path class="st25" d="M112.51,201.89c-0.98,4.37-0.58,8.79-0.6,13.21c-0.02,6.93,0.81,13.87-0.01,20.8
		c-0.15,1.25-0.3,2.65-1.53,3.49c-1.92,0.31-2.07,0.21-2.45-1.53c-0.1-0.47-0.2-0.94-0.2-1.42c0.08-6.29-0.18-12.57,0.23-18.87
		c1-15.6,4.47-30.69,9.03-45.57c0.21-0.69,0.38-1.39,0.41-2.11c0.44-11.11-0.33-22.04-4.32-32.57c-0.92-2.42-1.96-4.76-3.13-7.07
		c-0.46-0.91-0.99-1.79-1.09-2.84c0.06-1.17,0.26-2.16,1.81-1.4c2.82,4.18,4.16,8.97,5.6,13.71c1.25,4.13,2.17,8.35,3.43,12.47
		c1.5,4.93,0.82,9.85,0.22,14.77c-1.21,9.84-4.59,19.21-6.44,28.91C113.08,197.87,112.57,199.85,112.51,201.89z"/>
	<path class="st24" d="M101.37,125.3c1.5-0.46,2.9-1.2,3.9-2.36c1.27-1.48,2.37-1.53,3.66-0.16c0.48,0.84,0.95,1.69,1.43,2.53
		c-0.32,0.31-0.74,0.31-1.14,0.38c-2.68,0.46-5.33,1.12-8.09,0.83C100.57,125.99,100.89,125.63,101.37,125.3z"/>
	<path class="st26" d="M109.33,125.3c0.35,0,0.69,0.01,1.04,0.01c0.1,0.24,0.2,0.47,0.3,0.71c-1.2-0.21-1.45,0.47-1.39,1.46
		C108.04,126.72,108.42,126.01,109.33,125.3z"/>
	<path class="st27" d="M63.23,255.25c-0.26,0.96-0.12,2-0.67,2.89c-1.49-2.6-3.94-3.65-6.72-4.19c-2.86-0.56-5.7-1.29-8.66-1.11
		c-0.53,0.03-1.08-0.01-1.54-0.36c-0.04-1.32,1.04-0.92,1.65-0.93c1.41,0,1.63-0.62,1.28-1.81c-2.48-8.35-5.29-16.56-9.46-24.26
		c-2.62-4.84-5.92-9.32-7.5-14.71c-2.32-7.91-3.99-15.93-4.89-24.13c-0.14-1.25-0.39-2.49-0.41-3.75c-0.01-0.55-0.22-1.34,0.85-1.01
		c1.77,2.33,3.14,4.93,4.99,7.23c3.64,4.52,7.88,8.36,12.69,11.6c1.14,0.77,2.32,1.49,3.43,2.31c1.95,1.3,4.03,2.36,6.17,3.3
		c1.11,0.48,1.76,1.22,1.72,2.46c-0.23,7.25,1.97,14.09,3.6,21.01c1.61,6.83,3.08,13.67,3.74,20.67
		C63.65,252.08,63.43,253.66,63.23,255.25z"/>
	<path class="st24" d="M68.62,215.65c0.23,5.66,0.88,11.27,1.69,16.87c0.42,2.9,0.99,5.76,1.72,8.58c0.31,1.21-0.17,1.64-1.22,1.5
		c-1.48-0.2-2.93-0.52-4.24-1.33c-0.51-0.32-0.83-0.67-0.81-1.28c0.1-5.18-1.14-10.1-2.38-15.11c-1.24-5.06-2.08-10.26-3.07-15.4
		c-0.33-1.73-0.62-3.54-1.77-5.01c0.23-1.04,0.95-0.56,1.38-0.33c1.78,0.93,3.71,1.31,5.66,1.61c1.61,0.25,2.83,0.75,2.68,2.69l0,0
		c0.39,1.75,0.07,3.53,0.18,5.29C68.48,214.38,68.27,215.04,68.62,215.65z"/>
	<path class="st28" d="M97.76,262.37c-1.1-0.16-0.88,1.12-1.58,1.43c-1.21,0.53-2.43,0.93-3.77,0.73c-2.6-0.77-4.89-2.07-6.82-4
		c-0.82-0.82-1.65-1.63-2.47-2.45c-0.19-1.36,1.16-1.46,1.78-2.15c4.05-2.63,8.64-3.63,13.3-4.38c0.93-0.15,1.87-0.36,2.83-0.34
		c0.4,0.06,0.76,0.21,1.11,0.39c2.2,1.9,3.73,4.12,3.49,7.2c-0.41,0.23-0.71,0.7-1.23,0.66c-1.44-0.13-2.42,0.33-3.19,1.69
		C100.5,262.37,98.89,261.89,97.76,262.37z"/>
	<path class="st28" d="M45.58,252.32c4.02-0.23,7.93,0.48,11.8,1.48c1.58,0.41,2.99,1.13,4.24,2.18c0.7,0.59,1.05,1.25,0.92,2.16
		c-0.7,2.19-2.2,3.94-3.32,5.9c-0.36,0.62-0.91,0.77-1.53,0.63c-1.54-0.35-3.07-0.75-4.61-1.14c-0.56-0.47-0.8-1.09-0.91-1.79
		c-0.34-0.78-0.09-1.64-0.31-2.5c-0.55,0.38-0.34,0.89-0.42,1.33c-0.73,1.37,0.4,2.65,0.17,4c-1.59,0.96-2.96-0.68-4.5-0.38
		c0.03-0.43-0.25-0.72-0.48-1.03c-0.44-0.92-0.33-1.94-0.59-3.13c-0.59,0.9-1.08,1.62-1.03,2.59c0.07,1.3-0.55,1.01-1.25,0.54
		c-1.29-1.48-1.33-3.02-0.51-4.79c0.8-1.74,1.01-3.68,1.27-5.58C44.75,252.34,45.01,251.97,45.58,252.32z"/>
	<path class="st24" d="M84.85,256.39c-0.58,0.57-1.16,1.13-1.75,1.7c-1.85-1.64-3.71-3.51-4.32-5.81c-0.91-3.42-2.87-6.33-3.84-9.73
		c-1.01-3.55-1.99-7.09-2.54-10.73c-0.53-3.52-0.87-7.08-1.27-10.62c-0.34-3.01-0.6-6.03-1-9.03c-0.23-1.75,0.11-3.44,0.28-5.16
		c0.34-0.6,0.15-1.23,0.12-1.85c-0.03-0.74,0.06-1.39,1.02-1.43c1.05,1.44,1.18,3.2,1.11,4.81c-0.53,10.9,2.69,21.09,5.72,31.32
		c0.65,2.18,1.33,4.35,2.09,6.5c0.94,2.68,2.09,5.22,3.66,7.59C84.59,254.66,85.35,255.37,84.85,256.39z"/>
	<path class="st24" d="M63.23,255.25c-0.13-8.82-2.02-17.36-4.13-25.86c-1.29-5.2-2.51-10.42-3.36-15.7
		c-0.25-1.58-0.11-3.23-0.06-4.84c0.03-1.02-0.28-1.55-1.3-2.01c-2.32-1.04-4.73-2-6.65-3.78c0.68-0.5,1.26-0.03,1.83,0.25
		c1.25,0.6,2.53,1.08,3.87,1.42c2.42,0.62,2.67,0.39,2.18-1.95c1.45-0.26,2.12,0.24,2.1,1.62c-0.01,0.64-0.23,1.28,0.11,1.9
		c0.99,4.95,2.04,9.89,2.94,14.86c0.65,3.57,1.98,6.97,2.56,10.55c0.31,1.93,0.55,3.89,0.59,5.84c0.08,4.58,0.03,9.15,0.03,13.73
		C63.94,252.64,63.69,253.97,63.23,255.25z"/>
	<path class="st29" d="M57.82,206.29c-0.59-0.52-0.23-1.23-0.38-1.83c-0.23-0.88-0.37-1.94-1.76-1.41
		c-0.73,0.11-0.68-0.49-0.78-0.89c-0.15-0.63-0.37-1.21-0.72-1.76c-0.56-0.88-1.16-1.08-1.87-0.18c-1.08-0.25-1.12-1-0.74-1.79
		c0.39-0.79,1.12-0.8,1.86-0.51c0.51,0.2,0.95,0.52,1.33,0.91c1.77,1.85,4.03,2.78,6.44,3.4c1.8,0.47,3.59,0.95,5.36,1.53
		c1.3,0.43,2.16,0.05,2.74-1.24c0.58-1.31,1.16-2.65,2.23-3.67c0.22-0.2,0.46-0.38,0.71-0.54c0.34-0.22,0.7-0.54,1.13-0.22
		c0.43,0.32,0.56,0.82,0.36,1.28c-0.67,1.5-1.09,3.13-2.22,4.4c-1.18,0.82-0.28,2.31-1.07,3.25c-0.17-0.6,0.41-1.58-0.64-1.73
		c-1.02-0.15-0.88,0.91-1.13,1.48c-0.23,0.52-0.28,1.12-0.4,1.69c-0.26-1.63-1.41-1.98-2.84-2.21c-2-0.31-4.02-0.63-5.79-1.74
		c-0.33-0.21-0.72-0.54-1.09-0.01C57.38,204.72,57.98,205.66,57.82,206.29z"/>
	<path class="st30" d="M85.58,260.54c2.2,1.47,4.43,2.88,6.82,4c-0.01,0.15-0.02,0.29-0.03,0.44c-1.51,0.04-2.36-1.71-3.95-1.45
		c-0.24-0.48-0.6-0.84-1.08-1.07C86.76,261.8,85.81,261.5,85.58,260.54z"/>
	<path class="st31" d="M51.63,264.58c-0.45-1.39-1.11-2.76-0.62-4.29c0.24-0.32,0.15-1.03,0.85-0.82c0.52,0.16,0.35,0.65,0.37,1.03
		c0.02,0.34,0.02,0.69-0.02,1.03c-0.06,0.08-0.12,0.16-0.19,0.24c-1.01,0.12-0.35,0.72-0.34,1.15
		C51.69,263.47,52.54,264.05,51.63,264.58z"/>
	<path class="st29" d="M68.62,215.65c-0.81-2.37-0.15-4.81-0.36-7.21C69.08,210.81,68.4,213.25,68.62,215.65z"/>
	<path class="st31" d="M52.4,261.73c0.23,0.6,0.47,1.2,0.7,1.8c-0.99-0.21-0.97-1.03-1.08-1.77c0,0,0.06-0.06,0.06-0.06
		C52.2,261.56,52.31,261.57,52.4,261.73z"/>
	<path class="st27" d="M71.49,203.76c0.15-1.95,1.96-3.41,1.85-5.72c-0.66,0.45-1.08,0.74-1.5,1.03c-0.44-0.96,0.26-1.52,0.85-1.93
		c1.73-1.18,2.63-2.93,3.4-4.76c1.83-4.32,4.01-8.46,6.48-12.43c1.74-2.81,1.79-5.66,0.75-8.61c-0.53-1.53-1.06-3.04-1.36-4.65
		c-0.43-2.24-1.54-4.21-3.14-5.78c-3.06-3-6.41-5.58-10.75-6.58c-5.46-1.26-10.92-2.33-16.54-1.05c-3.53,0.81-6.84,2.22-10.03,3.9
		c-2.14,0.85-3.89,2.23-5.39,3.96c-0.38,0.44-0.64,1.24-1.51,0.76c-0.41-0.7-0.25-1.49-0.41-2.23c0.15,1.4-0.55,2.76-0.22,4.17
		c-0.17,1.17-0.18,2.39-1.2,3.24c-3.55-3.73-6.22-8.01-8.06-12.82c-0.46-4.6,0.02-9.03,1.68-13.42c2.47-6.53,5.4-12.81,8.82-18.88
		c0.61-1.09,0.91-2.54,2.43-2.9c0.87,0.45,0.87,1.38,1.2,2.13c1.53,3.55,3.7,6.36,7.15,8.46c7.31,4.45,15.46,5.68,23.62,7.02
		c6.41,1.06,12.77,0.83,19.06-0.89c2.15-0.59,4.2-1.44,6.2-2.4c3.04-1.46,5.31-3.62,6.15-7.01c2.76-0.36,5.53-0.71,8.29-1.07
		c-0.37,0.72-0.7,1.44-0.05,2.18c1.6,3.74,3.56,7.3,4.83,11.2c2.5,7.69,3.57,15.53,3.99,23.61c0.35,6.88-1.77,13.08-3.42,19.48
		c-2.44,9.44-4.5,18.96-5.65,28.65c-1.03,8.7-1.01,17.46-0.73,26.2c0.04,1.14-0.37,3.2,2.08,2.78c-0.65,0.66-1.47,0.36-2.22,0.35
		c-1.16-0.01-2.25,0.08-3.2,0.88c-0.61,0.52-1.39,0.7-2.2,0.49c-1.3-0.34-2.54-0.97-3.92-0.04c-0.49,0.33-1.18-0.17-1.46-0.75
		c-1.97-4.15-3.3-8.39-2.59-13.1c0.44-2.93,0.88-5.84,1.7-8.8c0.15,0.35,0.26,0.59,0.46,1.04c1.32-4.45,2.09-8.84,2.94-13.19
		c0.67-3.4,1.47-6.76,2.41-10.09c0.3-1.07,0.59-2.15,0.89-3.23c0.63-1.49,0.88-3.1,1.46-4.6c0,0,0.03-0.05,0.1-0.14
		c0.11-0.14,0.21-0.28,0.31-0.42c-0.13,0.05-0.15,0.21-0.25,0.3c-0.42,0.78-1.04,1.38-1.66,1.98c-0.67,0.41-0.93,1.05-1.05,1.79
		c-0.29,0.59-0.39,1.25-0.72,1.83c-1.08,2.06-1.58,4.33-2.12,6.56c-0.85,3.5-1.82,6.96-2.86,10.41c-0.2,0.06-0.11-0.49-0.34-0.19
		c-0.16,0.21-0.07,0.57-0.19,0.85c-2.26,4.8-3.94,9.78-4.52,15.08c-0.94,3.96,0.63,7.56,1.79,11.16c1.42,4.42,3.67,8.42,6.8,11.91
		c0.52,0.58,1.2,1.19,1.07,2.15c-4.19,0.59-8.37,1.24-12.3,2.9c-1.31,0.55-2.56,1.25-3.84,1.87c0-0.72-0.52-1.22-0.89-1.73
		c-3.5-4.93-4.85-10.74-6.62-16.36c-1.5-4.77-2.85-9.6-3.78-14.52c-0.67-3.56-1.56-7.09-1.36-10.78
		C72.37,209.9,72.21,206.8,71.49,203.76z"/>
	<path class="st32" d="M100.99,251.62c-3.49-4.13-6.59-8.5-8.28-13.72c-1.01-3.11-2.08-6.21-2.13-9.54
		c-0.01-0.66,0.01-1.32,0.35-1.92c0.21-0.2,0.16-0.66,0.47-0.7c0.45-0.06,0.51,0.36,0.6,0.7c0.28,1.16,0.14,2.35,0.21,3.52
		c0.05,0.86-0.27,1.76,0.21,2.58c0.82,4.24,2.39,8.17,4.82,11.75c0.13,0.19,0.32,0.35,0.48,0.52c1.09,1.49,1.99,3.1,2.93,4.69
		c0.49,0.7,0.98,1.4,1.48,2.1C101.75,251.62,101.37,251.62,100.99,251.62z"/>
	<path class="st33" d="M92.42,232.56c-0.83-1.12-0.33-2.41-0.38-3.61c-0.04-0.9-0.16-1.78-0.41-2.62c-0.22-0.71-0.44,0.18-0.7,0.12
		c0.41-5.51,2.17-10.61,4.69-15.48c0.69-0.04,0.55,0.35,0.38,0.75c-0.99,3.93-1.95,7.86-2.99,11.77
		C92.22,226.48,92.29,229.51,92.42,232.56z"/>
	<path class="st34" d="M105,188.3c-0.61,1.55-0.83,3.25-1.82,4.65c-0.1-0.81,0.21-1.52,0.56-2.22c0.32-0.64,0.11-0.91-0.61-0.66
		c0.2-0.91,0.98-1.44,1.47-2.15C104.96,187.83,105.12,187.92,105,188.3z"/>
	<path class="st35" d="M100.65,249.51c-1.26-1.38-2.18-2.99-2.93-4.69c1.39,1.15,2.13,2.74,2.95,4.29
		C100.66,249.25,100.66,249.38,100.65,249.51z"/>
	<path class="st36" d="M96,211.72c-0.13-0.25-0.26-0.5-0.38-0.75c0.05-0.45,0.1-0.9,0.58-1.13c0.06,0.27,0.12,0.55,0.18,0.82
		C96.35,211.04,96.37,211.45,96,211.72z"/>
	<path class="st34" d="M101.36,193.68c0-0.7,0.19-1.33,0.72-1.82C102.13,192.58,101.97,193.22,101.36,193.68z"/>
	<path class="st24" d="M37.66,119.15c-1.85,1.79-2.68,4.22-3.85,6.4c-3.54,6.65-6.76,13.46-8.51,20.84
		c-0.62,2.65-0.12,5.37-0.25,8.05c0.55,1.54,0.43,3.17,0.68,4.75c1.15,4.91,3.06,9.52,5.48,13.94c0.36,0.65,0.44,1.35,0.43,2.07
		c0.01,0.66-0.07,1.32-0.28,1.95c-0.76,2.26-0.12,4.25,1.2,6.08c2.59,3.59,4.45,7.68,7.44,11c0.2,0.23,0.3,0.51,0.26,0.83
		c-0.94,0.66-1.44-0.17-1.94-0.66c-4.26-4.16-8.13-8.64-10.72-14.08c-0.25-0.53-0.43-1.12-1-1.54c-0.34,0.7,0.13,1.21,0.34,1.76
		c0.2,0.53,0.76,0.99,0.27,1.64c-0.23-0.02-0.65-0.37-0.58,0.2c1.21,10.29,2.81,20.51,6.16,30.37c1.11,3.26,3.04,6.09,4.77,9.01
		c5.33,8.96,8.85,18.63,11.68,28.6c0.45,1.6-0.16,1.7-1.41,1.66c-0.74-0.03-1.56-0.28-2.24,0.31c-0.35,0.16-0.7,0.31-1.05,0.47
		c0.34-2.18,0.69-4.37-0.04-6.55c-1.47-3.87-3.72-7.33-5.73-10.91c-3.95-7.07-8.59-13.73-12.19-21c-1.23-2.5-2.22-5.12-3.31-7.69
		c-1.44-5.21-2.75-10.46-4.41-15.61c-0.46-1.44-1.65-2.68-1.77-4.33c-0.04-0.56-0.53-0.64-0.95-0.52c-0.53,0.16-1.03,0.3-1.52-0.06
		c-0.98-4.05-1.91-8.11-2.62-12.22c-1.17-6.79-0.37-13.31,2.23-19.61c0.6-1.46-0.16-2.99,0.69-4.34c0.1-0.16-0.12-0.44-0.4-0.49
		c-0.41-0.06-0.67,0.2-0.93,0.44c-1.17,1.07-2.12,2.42-3.9,3.07c0.62-3.02,1.53-5.78,2.7-8.43c4.08-9.22,9.56-17.49,16.76-24.58
		c1.57-1.54,3.35-2.87,5.05-4.28c0.29-0.24,0.57-0.43,0.59-0.84c1.12-0.37,2.08,0,2.98,0.65C38.01,116.73,38.39,117.96,37.66,119.15
		z"/>
	<path class="st29" d="M37.66,115.58c-1.05,0.12-1.81-0.89-2.87-0.72c0.04-0.71,1.79,0.05,1.09-1.18c-0.66-1.16-1.47-0.38-2.19,0.08
		c-0.12-0.24-0.24-0.48-0.35-0.72c0.37-0.63-0.12-0.8-0.54-1c-0.7-0.34-1.24-0.85-1.62-1.53c0.64-0.48,1.13,0.01,1.59,0.31
		c1.74,1.16,3.61,2.03,5.53,2.85C38.4,114.42,38.78,115.26,37.66,115.58z"/>
	<path class="st27" d="M148.9,204.12c-0.52,1.91-2.17,2.74-3.61,3.79c-3.57,2.62-7.31,5.04-11.47,6.53c-6.03,2.17-5.8,1.9-8.67-2.96
		c-1.06-1.8-1.79-3.76-1.8-5.91c0.97-0.63,1.17-1.75,1.66-2.67c1.29-2.45,2.52-4.94,3.77-7.41c3.16-3.33,4.72-7.49,6.06-11.76
		c0.87-2.75,1.46-5.57,2.09-8.46c0.15,0.49,0.3,0.98,0.45,1.47c0.35,0.66,0.11,1.38,0.16,2.07c0.04,0.47-0.05,1.07,0.55,1.13
		c0.67,0.06,0.41-0.73,0.71-1.04c0.46-3.6,0.89-7.2,1.39-10.8c0.22-1.58-0.31-3.08-0.3-4.63c0.04-5.62-0.11-11.24,0.34-16.85
		c0.26-3.24,1.62-5.93,3.6-8.39c1.89,1.7,3.61,3.58,5.6,5.18c0.46,0.37,0.81,0.86,0.96,1.47c0.52,2.01,0.18,4.03,0.18,6.05
		c0.01,4.48,0.66,8.92,1.17,13.37c0.65,5.68,1.58,11.34,1.62,17.08c0.1,2.32-0.29,4.63-0.11,6.95c0.14,0.4-0.02,0.8-0.03,1.19
		C152.56,194.63,150.9,199.42,148.9,204.12z"/>
	<path class="st28" d="M149.95,144.41c-1.66-1.54-3.57-2.81-5.06-4.53c-0.43-0.49-0.92-0.95-1.05-1.63
		c0.93-1.23,1.79-2.51,3.22-3.74c0,1.56-0.01,2.83,0.01,4.11c0.01,0.61,0.08,1.3,0.83,1.4c0.85,0.12,0.85-0.64,1-1.2
		c0.47-1.78,0.86-3.55,1.77-5.22c1.45-2.67,3.72-4.33,6.24-5.75c1.56-0.87,1.82-0.65,1.72,1.18c-0.02,0.33,0.03,0.66,0.18,1.1
		c1.19-2.48,3.78-2.04,5.68-2.97c1.26,0.03,2.45-0.43,3.68-0.59c3.32-0.42,6.58-0.25,9.66,1.24c-0.92,1.04-2.29,0.37-3.35,0.89
		c-0.24,0.12-0.58,0.02-0.86,0.15c-2.79,0.59-5.5,1.47-8.11,2.61c-3.46,1.51-6.48,3.63-8.94,6.5c-2.04,2.37-3.34,5.1-3.71,8.23
		C151.28,146.59,150.71,145.34,149.95,144.41z"/>
	<path class="st4" d="M149.96,132.39c-0.17,1.6-1.21,2.94-1.11,4.58c0.02,0.25-0.18,0.45-0.45,0.45c-0.48,0.01-0.51-0.37-0.57-0.73
		C147.49,134.76,148.62,133.53,149.96,132.39z"/>
	<path class="st37" d="M138.81,178.91c0.01,0.75,0.1,1.52-0.75,2.05c-1-1.31-0.59-2.8-0.67-4.2c0.6,0.59,0.28,1.35,0.37,2.04
		C137.96,180.29,138.44,179.1,138.81,178.91z"/>
	<path class="st27" d="M45.53,24.14c0.19,0.85,0.8,1.34,1.48,1.79c0.01,0.11,0.02,0.23,0.02,0.34c-0.1,0.65,0.27,1.07,0.72,1.46
		c0.48,0.19,0.95,0.65,1.43,0c0.22-0.01,0.45-0.02,0.67-0.02c3.12,0.06,6.16-0.6,9.23-1.01c4.48-0.6,8.98-0.96,13.52-0.79
		c2.98,0.11,5.97,0,8.95,0.04c4.15,0.27,8.2,1.09,12.18,2.3c0.97,0.29,1.91,0.64,2.87,0.96c2.26,0.74,2.26,0.74,0.79,2.48
		c-2.02,0.11-3.78,1.4-6.12,1.09c0.85,1.33,2.17,0.74,2.95,1.4c-0.17,0.31-0.46,0.22-0.72,0.21c0.33,0.13,0.69,0.18,1.03,0.27
		c5.57,1.97,10.44,5.23,15.45,8.25c0.6,0.43,1.23,0.82,1.89,1.15c0.59,0.4,1.2,0.79,1.82,1.16c0.45,0.21,0.85,0.57,1.47,0.52
		c-0.5-0.15-0.95-0.22-1.31-0.5c-0.22-0.14-0.36-0.32-0.31-0.59c0.62-0.75-0.19-0.95-0.51-1.35c-0.42-0.52-1.44-0.88-0.53-1.81
		c5.99-1.68,11.83-3.85,17.93-5.14c1.95-0.41,3.89-0.61,5.88-0.38c0.3,0.03,0.94,0.58,1.05-0.29c2.14,0.09,2.61,0.45,2.51,2.53
		c-0.29,6.04-1.54,11.84-4.88,17.02c-2.14,3.32-4.27,6.64-6.98,9.54c-2.06,1.42-4.22,2.78-3.89,5.8c0.05,0.43,0.01,0.62-0.46,0.74
		c-1.37,0.36-1.74,1.78-1.55,2.66c0.9,4.1,0.11,8.01-0.89,11.93c-0.1,0.39-0.03,0.83-0.04,1.25c-0.17,0.11-0.36,0.13-0.55,0.06
		c-2.16-0.44-4.31-0.99-6.53-0.41c-3.68-0.18-7.31-0.75-10.97-1.14c-1.39-0.15-2.87,0.19-4.18-0.56c-0.25-0.15,0.07-0.59-0.11-0.56
		c-2.4,0.37-4.68-0.83-7.08-0.52c-0.58,0.08-1.2-0.09-1.73,0.31c-1.24,0.34-0.04,0.83-0.07,1.23c1.42,0.85,2.87,0.35,4.31,0.09
		c5.65-0.33,11.21,0.53,16.79,1.14c2.55,0.28,5.09,0.71,7.62,1.18c1.9,0.35,2.14,0.75,1.61,2.54c-0.24,0.8-0.31,1.62-0.58,2.41
		l0-0.01c-0.37,1.34-0.07,2.71-0.18,4.06c-0.02,0.21-0.13,0.35-0.32,0.44c-1.25,0.21-2.34-0.42-3.45-0.77
		c-6.67-2.11-13.53-3.33-20.41-4.43c3.54,0.74,7.12,1.27,10.64,2.05c1.15,0.25,2.4,0.27,3.31,1.18c0.09,0.16-0.01,0.29-0.09,0.42
		c3.4,0.62,6.53,2.21,9.96,2.69c0.47,0.27,0.52,0.77,0.63,1.21c0.12,0.5,0.33,1.14-0.17,1.48c-0.54,0.37-0.97-0.17-1.38-0.49
		c-0.18-0.12-0.36-0.33-0.6-0.24c-0.23,0.09-0.08,0.27,0.01,0.41c0.88,1.17,1.29,2.55,1.73,3.91c0.08,0.29,0.12,0.58,0.21,0.86
		c0.65,2.27,0.66,2.29-1.53,3.23c-1.46,0.63-2.49,2.01-4.1,2.36c-0.12,0.12-0.24,0.24-0.36,0.36c-1.13,2.12-3.25,3.14-5.09,4.42
		c-2.51,1.74-5.31,3.01-8.07,4.33c-1.85,0.88-3.87,0.98-5.8,1.01c-5.05,0.1-9.96,1.38-14.99,1.64c-7.03,0.36-13.96,0.4-20.38-3.25
		c-4.53-2.58-9.46-4.35-14.21-6.5c-4.75-2.15-9.28-4.74-13.16-8.31c-0.93-0.86-1.81-1.81-2.26-2.99c-0.58-1.55-1.66-1.9-3.12-1.7
		c-0.42,0.06-0.83,0.13-1.24,0.22c-1.83,0.37-2.24,0.04-2.01-1.74c0.29-2.33,0.25-4.66,0.06-6.99c-0.04-0.48-0.11-0.96,0.17-1.39
		c1.44-0.95,3.03-1.22,4.73-1.2c1.47,0.02,2.96,0.16,4.42-0.17c0.93,0,1.85-0.17,2.78-0.18c0.52,0,1.04,0,1.57,0
		c2.27-0.08,4.55,0.16,6.81-0.22c2.14-0.17,4.2-0.87,6.11-1.1c-0.41-0.09-1.04,0.19-1.69,0.15c-0.8,0-1.6-0.1-2.39,0.11
		c-0.17,0.06-0.35,0.09-0.53,0.12c-0.81,0.12-1.64,0.05-2.42,0.34c-0.28,0.08-0.57,0.11-0.87,0.13c-2.64,0.22-5.27,0.38-7.91,0.54
		c-0.52,0.08-1.05,0.05-1.57,0.07c-0.44,0.03-0.85-0.03-1.11-0.45c0.53-1.07,1.62-0.9,2.51-1.03c5.24-0.78,10.5-1.37,14.81-1.24
		c-5.36-0.33-11.65,0.39-17.91,1.44c-0.83,0.14-1.65,0.32-2.49,0.33c-0.3,0.01-0.6,0-0.89-0.03c-0.69-0.07-1.62,0.19-1.96-0.53
		c-0.32-0.69,0.59-1.05,0.95-1.57c0.51-0.74,0.46-1.71,1.15-2.46c-0.84,0.29-1.42,0.79-2.06,1.21c-1.64,1.08-2.12,0.85-2.28-1.08
		c-0.01-0.24-0.02-0.48-0.02-0.71c0.35-0.68,0.23-1.41,0.12-2.1c-0.18-1.17,0.43-1.59,1.41-1.53c4.47,0.28,8.96,0.29,13.43,0.71
		c4.94,0.46,9.88,0.98,14.8,1.59c0.35,0.04,0.69,0.06,1.27-0.17c-3.65-0.81-7.1-1.19-10.54-1.58c-0.7-0.08-1.45,0.05-2.05-0.48
		c-1.38-0.81-2.95-0.56-4.43-0.79c-1.77-0.28-3.55-0.52-5.34-0.57c-2.12-0.16-4.25-0.35-6.36-0.59c-0.77-0.09-1.54-0.26-2.13,0.45
		c-0.18,0.12-0.36,0.13-0.54,0.01c-0.12-4.66,1.11-9.05,2.76-13.34c0.64-1.66,1.05-3.36,1.56-5.05c0.96-1.77,0.9-3.44,0.58-5.52
		c-0.41-2.69-2.49-3.89-3.49-5.93c-0.12-1.19-0.73-2.2-1.19-3.27c-1.15-2.74-1.46-5.65-1.76-8.55c-0.18-1.72-0.45-3.43-0.79-5.11
		c-1.06-5.21-0.61-10.46-0.63-15.7c0.46-1.53,0.05-3.3,1.27-4.61c1.82-0.09,3.38,0.89,5.08,1.27c0.76,0.31,1.47,0.79,2.36,0.66
		C35.04,15.35,40.56,19.35,45.53,24.14z"/>
	<path class="st38" d="M137.36,35.68c0.23,0.17,0.46,0.34,0.91,0.66c-8.01-0.41-15.13,2.47-22.39,4.72
		c-1.2,0.37-2.42,0.64-3.68,0.69c-0.08-0.02-0.16-0.04-0.25-0.05c-0.62-0.4-0.81-0.85-0.15-1.39c6.98-2.96,14.21-4.87,21.83-4.98
		C134.87,35.3,136.11,35.55,137.36,35.68z"/>
	<path class="st39" d="M109.99,43.22c-2.55-1.05-4.72-2.76-7.08-4.13c-2.8-1.62-5.73-2.93-8.7-4.18c0.26-0.94,0.84-0.5,1.37-0.33
		c1.45,0.57,2.9,1.14,4.35,1.71c1.21,0.03,2.18,0.75,3.26,1.14c2.37,1.22,4.19,3.25,6.49,4.57c0.61,0.04,1.04,0.31,1.17,0.95
		C110.67,43.41,110.38,43.49,109.99,43.22z"/>
	<path class="st40" d="M110.74,42.84c-0.36-0.28-0.71-0.55-1.07-0.83c0.36-0.45,1.1-0.02,1.41-0.59c0.48-0.26,0.75,0.19,1.11,0.33
		c0,0,0,0,0,0c0.38,0.84,1.24,1.19,1.85,1.79c0.48,0.47,0.9,1.16-0.4,1.09c-0.65,0.31-1.04-0.26-1.55-0.44
		C111.49,43.88,111.12,43.36,110.74,42.84z"/>
	<path class="st41" d="M103.18,37.44c-1.23,0.02-2.29-0.45-3.26-1.14c0.09-0.5,0.45-0.83,0.85-0.53
		C101.56,36.36,102.65,36.5,103.18,37.44z"/>
	<path class="st27" d="M112.19,41.75c-0.37-0.11-0.74-0.22-1.11-0.33c-0.71-0.97,0.18-0.93,0.71-1.12
		C111.37,40.94,111.94,41.3,112.19,41.75z"/>
	<path class="st42" d="M95.57,34.58c-0.47,0.05-1.01-0.19-1.37,0.33c-0.3-0.15-0.68-0.18-0.81-0.58c0.28-0.06,0.55-0.11,0.83-0.17
		C94.69,34.26,95.25,34.05,95.57,34.58z"/>
	<path class="st43" d="M149.95,144.41c1.01,0.52,1.7,1.57,2.91,1.76c0.01,3.71,0.03,7.43,0.04,11.14c0,5.08,0.8,10.12,0.85,15.21
		c-0.07,2.21,0.08,4.42-0.08,6.61c-0.05,0.76,0.38,1.84-0.78,2.27c-0.19-6.57-1.36-13.03-1.99-19.55
		c-0.43-4.43-1.33-8.85-0.68-13.36C150.41,147.17,150.05,145.77,149.95,144.41z"/>
	<path class="st44" d="M153.25,172.43c-0.22-3.86-0.48-7.72-0.64-11.58c-0.05-1.18,0.19-2.36,0.29-3.54
		c0.68,1.91,0.05,3.96,0.66,5.89c0.17,0.54,0.08,1.16,0.41,1.68c-0.02,0.13-0.05,0.27-0.07,0.4c-0.39,1.13,0.12,2.21,0.17,3.31
		c0.21,0.91-0.22,1.88,0.25,2.77c0.61,2.2,0.5,4.44,0.06,6.63c-0.4,2.01,0,3.98-0.11,5.97c-0.21,0.38-0.42,0.77-0.63,1.15
		c-0.08-0.08-0.16-0.16-0.24-0.24c-0.5-2.31,0.2-4.62,0.02-6.93C153.27,176.11,153.59,174.26,153.25,172.43z"/>
	<path class="st45" d="M173.62,128.83c1.31-0.74,2.88-0.4,4.21-1.04c0.29-0.04,0.59-0.07,0.88-0.13c0.35-0.07,0.61,0.04,0.63,0.4
		c0.03,0.41-0.33,0.48-0.61,0.44C177,128.27,175.34,129.01,173.62,128.83z"/>
	<path class="st46" d="M21.46,10.81c-0.94,1.29-0.46,2.94-1.07,4.31c-0.37,0.54-0.19,1.16-0.19,1.74
		c0.03,6.07-0.36,12.16,1.13,18.15c0.22,0.89-0.06,1.88,0.11,2.83c0.09,0.49,0,1.11-0.79,1.1c-1.93-6.64-2.61-13.42-2.22-20.32
		c0.13-2.38,0.35-4.76,0.51-7.15c0.16-2.57,0.15-2.58,2.53-1.41C21.67,10.32,21.69,10.56,21.46,10.81z"/>
	<path class="st47" d="M20.65,38.94c0.64-1.5,0.35-3.1,0.05-4.54c-1.26-6.21-0.46-12.46-0.65-18.68c-0.01-0.2,0.22-0.4,0.33-0.6
		c0,1.14,0.06,2.28-0.03,3.41c-0.48,6.31,0.77,12.46,1.64,18.65c0.37,2.64,0.69,5.29,1.63,7.81c0.2,0.46,0.22,0.83-0.45,0.79
		C22.15,43.57,21.26,41.31,20.65,38.94z"/>
	<path class="st48" d="M21.46,10.81c0-0.25,0.01-0.49,0.01-0.74c1.79,0.61,3.59,1.22,5.38,1.83c0.08,0.33,0.01,0.49-0.37,0.37
		C24.81,11.79,23.14,11.3,21.46,10.81z"/>
	<path class="st49" d="M23.19,45.78c0.33-0.16,0.41-0.47,0.45-0.79c0.38,0.95,1.16,1.8,0.66,2.95
		C23.94,47.22,23.56,46.5,23.19,45.78z"/>
	<path class="st50" d="M26.49,12.27c0.12-0.12,0.24-0.25,0.37-0.37c0.6,0.24,1.19,0.48,1.79,0.73
		C27.8,13.29,27.17,12.61,26.49,12.27z"/>
	<path class="st24" d="M23.63,90.36c0.47,2.9,0.59,5.81,0.04,8.72c-0.21,1.11,0.19,1.46,1.26,1c0.61-0.26,1.26-0.31,1.92-0.37
		c1.58-0.15,2.54,0.18,3.23,1.92c1.02,2.55,3.31,4.16,5.54,5.71c7.92,5.53,17.24,8.23,25.67,12.72c3.5,1.86,7.15,2.16,11.02,2.49
		c6.35,0.54,12.44-0.73,18.63-1.51c1.78-0.22,3.59-0.26,5.35-0.3c3.08-0.06,5.45-1.62,8.02-2.83c3.43-1.62,6.42-3.9,9.32-6.3
		c0,0.6,0,1.2,0,1.79c0.01,4.46-0.23,4.83-4.31,6.5c-1.44,0.47-0.85-1.06-1.55-1.51c-0.34,0.68-0.83,1.28-1.34,1.85
		c-2.56,2.4-5.92,3.28-9,4.69c-0.35,0.81-1.18,0.87-1.86,1.19c-3.66,1.42-7.44,2.27-11.39,2.18c-4.24-0.1-8.5,0.29-12.73-0.35
		c-2.86-0.43-5.68-1.07-8.3-2.23c-3.77-1.68-7.68-3.01-11.41-4.81c-4.11-1.98-8.17-4-11.62-7.05c-0.37-0.33-0.75-0.6-1.28-0.51
		c-0.27,0.06-0.54,0.1-0.81,0.07c-0.55,0.7-1.02,0.37-1.64,0c-1.7-1.02-3.46-1.93-5.2-2.89c-1.12-1.06-2.24-2.12-3.37-3.17
		c-0.82-0.76-1.4-1.62-1.32-2.81c0.03-0.46,0.09-1.02-0.54-1.17c-0.55-0.13-1.04-0.01-1.49,0.39c-0.94,0.84-1.72,1.79-2.26,3.17
		c-0.91-1.08-1.42-2.14-1.4-3.22c0.05-2.78-0.62-5.62,0.65-8.31c0.37-0.79,0.07-0.93-0.7-0.78c-2.26,0.42-4.53,0.87-6.85,0.44
		c-0.65-0.28-1.29-0.58-0.34-1.28c1.98-1.46,3.81-3.13,6.1-4.13c1.4-0.75,2.92-0.63,4.43-0.61C24.86,89.8,23.99,89.99,23.63,90.36z"
		/>
	<path class="st51" d="M95.62,125.65c0.6-0.24,1.2-0.48,1.8-0.72c1.26,0.75,2.65,0.16,3.96,0.37c-0.11,0.36-0.23,0.72-0.34,1.08
		c0.32,2.89-1.48,4.69-3.55,6.01c-5.07,3.24-10.69,4.78-16.73,5.2c-9.84,0.68-19.19-1.51-28.46-4.3c-3.43-1.04-6.58-2.91-9.36-5.16
		c-2.8-2.27-4.33-5.5-5.28-8.97c0.03-1.19-0.37-2.38-0.01-3.58c0.66-0.63,0.25-1.45,0.36-2.17c0.12-0.12,0.24-0.24,0.36-0.37
		c1.93-0.12,3.54,1.78,2.97,3.53c-0.13,0.39-0.33,0.75-0.31,1.17c-0.07,0.99-0.09,1.98,0.32,2.93c0.74,1.94,1.95,3.52,3.46,4.94
		c4.26,3.99,9.42,5.99,15.08,6.88c6.84,1.67,13.75,2.76,20.82,2.34c5.21-0.31,10.12-1.83,14.76-4.22c1.07-0.55,1.97-1.36,2.8-2.23
		c0.25-0.25,0.6-0.42,0.75-0.75c0.17-0.36,0.54-0.72,0.22-1.14c-0.28-0.36-0.72-0.37-1.15-0.29c-0.64,0.12-1.27,0.38-1.93,0.34
		C95.63,126.53,95.25,126.29,95.62,125.65z"/>
	<path class="st52" d="M119.73,92.88c0.04-0.53,0.02-1.08,0.13-1.6c0.56-2.61,0.58-2.68-2.08-3.02c-5.59-0.71-11.15-1.67-16.81-1.95
		c-2.38-0.12-4.76-0.19-7.14-0.3c-1.31-0.13-2.68,0.4-3.94-0.36c-0.14-0.11-0.27-0.23-0.42-0.34c-0.34-0.23-0.9-0.43-0.75-0.87
		c0.15-0.43,0.75-0.13,1.13-0.23c0.99-0.61,2.08-0.24,3.12-0.3c1.23,0.26,2.47,0.33,3.72,0.36c0.68,0.3,1.47-0.07,2.13,0.34
		c1.49,0.8,3.15,0.3,4.72,0.56c3.57,0.6,7.19,0.83,10.8,1.2c2.22-0.25,4.36,0.17,6.48,0.76c0.11,0,0.23,0,0.34-0.01
		C120.61,89.03,120.8,91.11,119.73,92.88z"/>
	<path class="st24" d="M113.98,111.24c1.58-1.24,3-2.71,5.05-3.2c0.75-0.18,0.7-0.62,0.5-1.22c-0.22-0.67-0.35-1.37-0.51-2.06
		c1.85,0.75,1.32,2.22,1.08,3.6c-0.04,2.68-0.88,5.09-2.38,7.47c-0.68-1.23-1.31-2.33-1.91-3.45
		C115.41,111.64,114.87,111.16,113.98,111.24z"/>
	<path class="st53" d="M120.1,108.37c0.09-1.33-0.06-2.6-1.08-3.6c-0.6-1.32-0.92-2.77-1.81-3.96c-0.01-0.8,0.57-0.71,1.08-0.71
		c0.37,0.32,0.74,0.65,1.23,1.07c0.32-1.09,0.03-1.84-0.48-2.54c-0.14-0.08-0.25-0.18-0.33-0.31c-0.41-0.74,0.22-0.88,0.66-1.13
		l-0.01,0c0.13-0.14,0.26-0.15,0.38,0.01c0.62,2.92,0.12,5.95,0.94,8.85C120.9,106.82,120.59,107.67,120.1,108.37z"/>
	<path class="st54" d="M106.42,120.23c-0.01-0.75,0.83-1.17,0.74-1.97c-0.05-0.43,0.06-0.89,0.66-0.81
		c0.49,0.06,0.67,0.44,0.74,0.88c0.1,0.59-0.27,1.41,0.74,1.56c-0.48,0.44-0.92,0.94-1.6,0.21
		C107.29,119.65,106.84,120.1,106.42,120.23z"/>
	<path class="st55" d="M119.74,97.2c-0.13,0-0.25-0.01-0.38-0.01c0.17-1.43-0.37-2.93,0.36-4.31
		C119.73,94.32,119.73,95.76,119.74,97.2z"/>
	<path class="st56" d="M81.56,25.94c-0.55,0.54-1.24,0.31-1.88,0.33c-5.07,0.16-10.15-0.19-15.23,0.32
		c-3.21,0.33-6.37,0.85-9.56,1.3c-1.67,0.23-3.39,0.67-5.04-0.19c4.66-1.42,9.5-1.69,14.31-2.1c5.07-0.43,10.15-0.17,15.23,0
		c0.69,0.38,1.51-0.13,2.18,0.33L81.56,25.94z"/>
	<path class="st27" d="M81.57,25.94c-0.74-0.01-1.51,0.17-2.18-0.33C80.14,25.59,80.92,25.31,81.57,25.94z"/>
	<path class="st57" d="M22.9,77.77c0.12-0.01,0.25-0.01,0.37-0.02c0.78-0.62,1.66-0.52,2.54-0.33c1.71,0.36,3.45,0.27,5.17,0.31
		c2.15,0.06,4.25,0.44,6.39,0.54c0.8,0.29,1.64,0.16,2.46,0.24c0.57,0.26,1.23-0.03,1.78,0.33c2.52,0.35,5.04,0.7,7.56,1.06
		c1.77,0.25,3.54,0.49,5.3,0.78c0.37,0.06,0.94,0.11,0.9,0.67c-0.04,0.59-0.52,0.76-1.05,0.72c-1.67-0.13-3.34-0.19-4.99-0.43
		c-4.84-0.7-9.73-0.97-14.59-1.46c-3.28-0.33-6.59,0.11-9.83-0.57c-0.88-0.18-1.35,0.13-1.33,1.13c0.01,0.68,0.29,1.45-0.32,2.05
		c0.17-1.11-0.28-2.16-0.36-3.25C22.9,78.97,22.9,78.37,22.9,77.77z"/>
	<path class="st58" d="M24.36,89.31c-1.57,0.1-3.11,0.53-4.7,0.34c-0.09-0.95,0.14-1.73,1.09-2.15c0.56,0.75,1.35,0.68,2.12,0.54
		c1-0.18,2-0.28,3.01-0.33c0.68-0.14,1.41,0.18,2.07-0.21c3.01-0.42,6.02-0.84,9.02-1.27c4.58-0.66,9.19-0.57,13.79-0.51
		c0.36,0,0.81,0.02,0.83,0.48c0.02,0.61-0.51,0.57-0.91,0.56c-3.23-0.05-6.46,0.04-9.68,0.38c-3.18,0.33-6.39,0.55-9.5,1.41
		c-0.59,0.67-1.45,0.33-2.16,0.58c-0.16,0.06-0.33,0.09-0.5,0.12c-0.35,0.03-0.7,0.03-1.04,0.03c-0.62,0.01-1.25-0.04-1.85,0.19
		C25.39,89.62,24.85,89.78,24.36,89.31z"/>
	<path class="st59" d="M27.94,87.49c-0.63,0.63-1.43,0.25-2.15,0.37c-2.09,0.31-2.19,0.23-2.57-1.75c-0.14-0.75-0.31-1.49,0.04-2.23
		c0.01-0.12,0.02-0.24,0.03-0.36c0.43,1.42,1.01,1.77,2.24,0.58c0.61-0.59,1.38-1.33,2.59-1.19c-0.77,1.52-0.57,3.43-2.34,4.58
		C26.49,87.49,27.22,87.49,27.94,87.49z"/>
	<path class="st60" d="M23.26,83.88c-0.22,1.14,0.64,2.05,0.63,3.21c-0.01,1.03,1.18,0.68,1.9,0.76c-1.39,0.53-2.83,0.66-4.3,0.73
		c-1,0.05-0.87-0.47-0.74-1.09C21.91,86.51,22.45,85.1,23.26,83.88z"/>
	<path class="st8" d="M20.38,104.05c-0.69-0.76-0.22-1.68-0.36-2.52C20.71,102.28,20.24,103.21,20.38,104.05z"/>
	<path class="st61" d="M43.78,263.16c0.57,0.05,1.09,0.23,1.05-0.76c-0.06-1.27,0.42-2.42,1.45-3.55c0.61,1.52,0.17,2.95,0.38,4.31
		c-0.59-0.35-0.53-1.11-0.97-1.62C44.65,263.9,44.65,263.9,43.78,263.16z"/>
	<path class="st62" d="M148.9,204.12c1.13-3.81,2.29-7.61,3.37-11.44c0.31-1.08,0.4-2.21,0.59-3.32c0.94-0.11,0.26,0.84,0.7,1.06
		c-0.15,0.83-0.46,1.65-0.34,2.52c-0.28,0.96-0.33,1.97-0.72,2.9c0,0,0,0,0,0c-1.08,2.76-2.16,5.52-3.24,8.28c0,0-0.18,0-0.18,0
		L148.9,204.12z"/>
	<path class="st63" d="M153.56,190.43c-0.23-0.35-0.46-0.71-0.7-1.06c0.11-0.26,0.23-0.51,0.34-0.77c-0.08-1.22-0.62-2.48,0.33-3.6
		c0,0,0.1,0.1,0.1,0.1C153.61,186.88,153.59,188.66,153.56,190.43z"/>
	<path class="st7" d="M152.49,195.84c0.01-1.02,0.24-1.99,0.72-2.9C153.25,193.98,153.22,195,152.49,195.84z"/>
	<path class="st64" d="M153.94,168.48c-0.59-1.06-0.52-2.13-0.04-3.2c0.02,0.46,0.05,0.91,0.07,1.37c0.27,0.52,0.11,1.07,0.13,1.6
		C154.04,168.33,153.99,168.41,153.94,168.48z"/>
	<path class="st65" d="M154.32,171.37c-0.75-0.88-0.22-1.93-0.38-2.88c0,0,0,0,0,0c0.12-0.17,0.23-0.16,0.34,0.01
		C154.29,169.45,154.31,170.41,154.32,171.37z"/>
	<path class="st44" d="M154.27,168.5c-0.11-0.01-0.22-0.01-0.34-0.01c0.01-0.61,0.02-1.22,0.03-1.84
		C154.46,167.2,154.27,167.87,154.27,168.5z"/>
	<path class="st66" d="M47.75,27.72c-0.84-0.19-1.5-0.47-0.72-1.46C47.5,26.64,47.69,27.15,47.75,27.72z"/>
	<path class="st6" d="M27.21,182.18c-0.04-0.89-0.92-1.4-1.03-2.25c-0.09-0.65-0.91-1.49-0.03-1.92c0.92-0.45,1.12,0.65,1.4,1.23
		c1.11,2.25,2.29,4.47,3.77,6.5c2.32,3.19,4.96,6.12,7.8,8.85c0.31,0.3,0.63,0.56,1.1,0.51c1.26-0.03,1.68,1.29,2.68,1.66
		c3.04,2.44,6.52,4.15,10,5.82c0.29,0.14,0.6,0.23,0.45-0.28c-0.19-0.67-0.63-1.24-0.95-1.86c-0.02-0.08-0.04-0.16-0.05-0.24
		c0.17-0.47-0.18-1.18,0.51-1.39c0.62-0.19,0.91,0.42,1.31,0.76c1.09,0.9,0.95,2.33,1.51,3.46c0.64,0.49,1.3,1.02,0.73,1.9
		c-0.51,0.77-1.3,0.63-2.11,0.48c-2.32-0.43-4.36-1.61-6.56-2.38c-8.57-5.09-15.62-11.71-20.46-20.53
		C27.22,182.43,27.23,182.29,27.21,182.18z"/>
	<path class="st67" d="M52.4,261.73c-0.11,0-0.21-0.01-0.31-0.03c-0.01-0.42-0.01-0.84-0.04-1.26c-0.12-1.47-0.65-0.38-1.03-0.16
		c-0.01-0.06-0.04-0.12-0.03-0.17c0.12-0.69,0.2-1.71,0.96-1.66c0.74,0.06,0.4,1.08,0.47,1.69C52.46,260.67,52.4,261.2,52.4,261.73z
		"/>
	<path class="st28" d="M52.81,202.96c-3.57-1.64-7.16-3.27-10.14-5.93c-3.68-3.08-5.95-7.25-8.49-11.19
		c-0.45-0.7-0.91-1.4-1.44-2.03c-2.11-2.54-1.38-5.51-1.37-8.37c0-0.18,0.02-0.36,0.07-0.54c-0.04-3.96,1.25-7.66,2.74-11.19
		c1.08-2.55,3.2-4.55,5.72-5.95c0.46-0.26,1.01-0.39,1.33-0.87c7.39-4.34,15.19-5.54,23.65-3.81c6.21,1.27,11.35,3.92,15.34,8.83
		c0.26,0.32,0.55,0.65,0.72,1.02c1.71,3.69,2.75,7.6,3.46,11.58c0.35,1.98-0.27,3.83-1.38,5.61c-2.32,3.7-4.25,7.63-6.13,11.58
		c-1.04,2.19-1.81,4.58-4.11,5.93c-0.47,0.28-0.91,0.79-0.96,1.45c-1.14,1.26-1.84,2.8-2.46,4.34c-0.43,1.08-1.08,1.42-2.05,1.06
		c-4.65-1.69-9.96-1.87-13.6-5.9c-0.46-0.51-1.12-0.84-1.71-0.19c-0.62,0.69-0.3,1.31,0.33,1.83c0,0-0.01-0.01-0.01-0.01
		c0.6,0.61,0.91,1.4,1.2,2.16C53.79,202.99,53.63,203.47,52.81,202.96z"/>
	<path class="st68" d="M25.42,159.49c-0.76-1.64-0.18-3.37-0.36-5.04c2.02,4,4,8.02,7.15,11.3c0.37,0.39,0.38,0.86,0.44,1.33
		c-0.02,0.08-0.03,0.16-0.05,0.25c-0.95,1.16-1.42,0.05-1.9-0.47c-1.74-1.9-3.19-4.02-4.44-6.27
		C26.04,160.18,25.92,159.68,25.42,159.49z"/>
	<path class="st69" d="M41.23,156.88c-0.09,0.38-0.34,0.61-0.67,0.79c-4.79,2.55-6.95,6.84-7.94,11.92
		c-0.35,1.79-0.72,3.58-1.08,5.37c-0.85-2.81-0.17-5.4,1.11-7.91c0,0,0,0.01,0,0.01c0.35-1.09,0.69-2.18,1.04-3.27
		c-0.38-1.06,0.48-1.33,1.11-1.74C36.55,159.84,38.46,157.82,41.23,156.88z"/>
	<path class="st70" d="M105.34,145.09c-0.86,0.1-0.92,0.8-1.09,1.44c-0.41,1.55-0.83,3.09-1.94,4.38c0.3-2.33,0.21-4.7,1.22-6.9
		C104.06,144.5,105.14,144.06,105.34,145.09z"/>
	<path class="st71" d="M105.34,145.09c-0.35-0.78-1.89,0.43-1.8-1.08c0,0,0,0,0,0c0.52-0.83,1.18-1.19,2.13-0.69
		c0.37,0.24,0.75,0.48,1.12,0.72c0.98-0.13,1.9-0.02,1.92,1.21c0.02,1.04-0.67,1.28-1.59,0.94
		C106.53,145.82,105.93,145.45,105.34,145.09z"/>
	<path class="st72" d="M107.12,146.18c0.59-0.03,1.28-0.01,1.38-0.79c0.16-1.3-1.26-0.74-1.71-1.37c0,0-0.02-0.03-0.02-0.03
		c0.78-0.38,0.52-1.1,0.55-1.71c0.05-1.09-0.08-2.19,0.1-3.43c1.22,0.51,0.76,1.6,1.17,2.27c0.28,1.33,0.44,2.67,0.35,4.03
		C108.85,146.37,108.35,146.93,107.12,146.18z"/>
	<path class="st73" d="M108.59,141.12c-0.65-0.41-0.12-1.44-1.08-1.86c0,1.17,0.01,2.27-0.01,3.37c-0.01,0.56,0.18,1.26-0.73,1.36
		c1.06-2.58-0.07-5.11-0.14-7.72C107.91,137.66,108.65,139.22,108.59,141.12z"/>
	<path class="st74" d="M34.8,162.06c-0.04,0.79-0.96,1.02-1.11,1.74c-0.81-1.5,0.29-2.95,0.13-4.44c-0.02-0.19,0.25-0.45,0.51-0.31
		c0.18,0.09,0.38,0.34,0.39,0.53C34.79,160.41,34.78,161.23,34.8,162.06z"/>
	<path class="st70" d="M105.67,143.31c-0.85-0.19-1.5,0.24-2.13,0.69C103.89,142.66,104.66,142.62,105.67,143.31z"/>
	<path class="st75" d="M105,188.3c-0.13-0.13-0.26-0.26-0.39-0.39c0.3-0.39,0.59-0.78,0.96-1.28
		C105.74,187.44,105.4,187.89,105,188.3z"/>
	<path class="st27" d="M32.66,167.06c-0.29,2.65-1.4,5.18-1.11,7.91c-0.07,0.09-0.08,0.19-0.03,0.3c-0.05,0.14-0.14,0.19-0.29,0.14
		c0.05-1.04-0.37-1.91-0.84-2.83c-2.16-4.17-4.1-8.43-4.97-13.09c0.19-0.84,0.47-0.47,0.7-0.04c1.35,2.54,2.94,4.91,4.82,7.08
		C31.38,167.04,31.73,168.04,32.66,167.06z"/>
	<path class="st69" d="M31.23,175.41c0.1-0.04,0.2-0.09,0.29-0.14c0.08,1.59,0.38,3.13,0.09,4.77c-0.28,1.55,1,2.78,1.74,4.02
		c1.73,2.9,3.75,5.61,5.53,8.48c1.05,1.7,2.83,2.75,3.79,4.5c-0.82-0.64-1.63-1.28-2.45-1.93c-3.31-3.49-5.27-7.92-8.14-11.71
		C30.16,180.86,30.57,178.17,31.23,175.41z"/>
	<path class="st76" d="M153.54,185.01c-0.63,1.15-0.2,2.4-0.33,3.6c-0.75-2.37-0.2-4.8-0.32-7.2c0.71-1.71,0.21-3.49,0.33-5.24
		c0.08-1.24,0.02-2.49,0.03-3.74c0.62,0.86,0.32,1.84,0.33,2.77C153.6,178.47,153.56,181.74,153.54,185.01z"/>
	<path class="st77" d="M31.19,39.97c-0.84,1.22-2.25,1.94-2.95,3.66c-2.07-4.26-3.65-8.37-4.62-12.72
		c-0.33-1.47-0.36-2.95-0.39-4.44c-0.08-3.39-0.22-6.79-0.29-10.18c-0.01-0.63-0.24-1.64,1.06-1.2c0.61,0.16,1.01,0.67,1.56,0.93
		c0.33,0.22,0.66,0.43,1,0.64c0.14,0.09,0.27,0.19,0.4,0.29c0.72,0.73,1.6,1.26,2.43,1.85c0.53,0.38,1.27,0.84,1.07,1.52
		c-0.25,0.84-1.19,0.58-1.88,0.62c-0.36,0.02-0.72-0.02-1.07-0.1c-0.72-0.15-1.44-0.34-1.97,0.39c-0.54,0.75,0.04,1.35,0.34,1.98
		c0.13,0.27,0.34,0.5,0.5,0.75c1.07,1.72,2.7,2.8,4.4,3.79c0.56,0.32,1.21,0.5,1.63,1.04c0.28,1.26-0.78,1.79-1.45,2.46
		c-1.4,1.41-2.43,2.99-2.91,4.99c1.11,0.22,1.81-0.55,2.7-0.62c1.53-0.12,2.03,0.45,1.44,1.85C31.81,38.3,31.63,39.19,31.19,39.97z"
		/>
	<path class="st78" d="M40.9,68.41c-1.69-2.84-0.83-5.56,0.37-8.26c0.58-1.99,2.48-2.13,3.99-2.83c0.37-0.1,0.74-0.13,1.11-0.07
		c0.39,0.08,0.71,0.24,0.82,0.66c0.05,0.52-0.27,0.9-0.53,1.3c-1.48,2.25-1.89,4.76-1.66,7.39c0.19,2.12,1.5,3.64,3.31,3.98
		c1.72,0.33,3.18-0.59,4.19-2.65c0.29-0.59,0.5-1.22,0.71-1.84c0.61-1.51,0.99-3.06,0.91-4.71c-0.04-0.74-0.21-1.71,0.69-2.05
		c0.91-0.35,1.55,0.39,2.17,0.95c0.22,0.2,0.4,0.44,0.54,0.71c0.09,0.19,0.1,0.38,0.03,0.58c0.97,3.45,0.21,6.66-1.63,9.58
		c-1.11,1.75-3.09,2.25-5.07,2.15c-1.65-0.08-3.32-0.34-4.91-0.9C43.82,71.62,42.15,70.28,40.9,68.41z"/>
	<path class="st79" d="M90.19,64.75c4.02-3.73,9.62-2.17,13,1.49c0.17,0.24,0.33,0.49,0.52,0.73c0.72,0.9,0.33,1.28-0.65,1.34
		c-0.48,0.03-1.18-0.32-1.04,0.67c0.05,0.17,0.08,0.33,0.1,0.5c0.07,0.55,0.09,1.09,0.03,1.64c-0.05,0.42-0.15,0.82-0.21,1.23
		c-0.66,4.37-4.29,6.16-8.34,4.1c-1.7-1.92-1.3-4.37-1.69-6.62c-0.1-0.58-0.03-1.19,0-1.79c0.03-0.54,0.18-1.04,0.42-1.52
		c0.02-0.04,0.42-0.23-0.01-0.28c-0.1-0.01-0.22,0.08-0.34,0.11c-0.24,0.06-0.46,0.16-0.69,0.23c-0.85,0.25-1.98,0.64-2.42-0.15
		C88.51,65.79,89.72,65.33,90.19,64.75z"/>
	<path class="st77" d="M128.7,49.34c-0.17-0.68-1.07-0.94-0.99-1.76c0.73-1.01,2.06-1.14,2.9-2.01c0.75-0.78,1.05-1.41,0.01-2.18
		c-0.47-0.34-1.24-0.68-0.63-1.52c1.97-1.2,4.22-0.82,6.35-1.16c1.22,0.67,1.17,1.89,0.98,2.93c-0.85,4.73-2.24,9.25-5.77,12.78
		c-0.08,0.08-0.17,0.17-0.26,0.25c-0.76,0.77-1.63,1.71-2.62,1.75c-1.27,0.05-0.58-1.68-1.36-2.28c-0.28-0.15-0.39-0.39-0.38-0.7
		c-0.35-0.7-1.07-1.2-1.03-2.09c0.72-1.06,2.19-1.23,2.83-2.38C129.16,50.41,128.77,49.88,128.7,49.34z"/>
	<path class="st78" d="M93.83,76.32c1.56,0.38,3.1,0.79,4.72,0.21c1.63-0.58,2.87-2.08,2.84-3.84c-0.01-0.63,0.51-1.05,0.39-1.65
		c0.18-0.65,0.25-1.3-0.02-1.94l0,0.02c-0.45-0.82,0.11-1.03,0.67-0.84c1.21,0.4,2.5,0.75,3.22,1.96c-0.11,2-0.55,3.92-1.41,5.73
		c-2.56,3.17-6.06,4.24-9.8,2.9c-0.58-0.21-1.19-0.04-1.72-0.35c-6.08-2.51-5.45-8.21-2.49-11.52c0.52-0.49,1.24-0.65,1.8-1.09
		c0.29-0.08,0.57-0.16,0.98-0.27c-0.24,0.73-0.46,1.39-0.68,2.06c-0.55,2.29-0.32,4.54,0.26,6.78
		C92.8,75.23,93.09,75.93,93.83,76.32z"/>
	<path class="st79" d="M70.45,88.19c-1.42-1.85-2.87-3.69-3.7-5.89c-0.8-2.13-0.36-2.7,1.89-2.73c3.13-0.04,6.18,0.53,9.2,1.22
		c1.81,0.42,2.08,1.29,1.01,2.85c-1.63,2.39-3.47,4.56-6.26,5.67C71.41,89.83,71.22,88.46,70.45,88.19z"/>
	<path class="st80" d="M97.57,50.05c5.1,0.48,9.76,2.1,13.72,5.44c0.44,0.37,0.75,0.92,1.06,1.42c0.35,0.57,0.07,1.03-0.37,1.42
		c-0.49,0.44-0.96,0.41-1.43-0.02c-3.96-3.65-9.03-4.99-13.93-6.68c-0.61-0.21-1.74,0.01-1.59-1.02c0.15-1,1.19-0.4,1.82-0.55
		C97.08,50,97.33,50.05,97.57,50.05z"/>
	<path class="st81" d="M88.85,35.35c-3.3,0.59-6.17-1.03-9.48-1.85c0.6,1.16,1.06,2.04,1.51,2.92c0.66,1.31,0.01,2.14-1.21,2.05
		c-4.57-0.33-9.17-0.66-13.39-2.74c-0.85-0.42-1.36-1.05-1.57-2.32c2.71,1.89,5.57,2.6,8.48,3.08c1.7,0.28,3.42,0.39,5.13,0.6
		c1.44,0.18,1.33-0.47,0.76-1.39c-0.59-0.97-1.24-1.9-2.09-2.68c-0.27-0.24-0.5-0.55-0.23-0.94c0.18-0.27,0.48-0.44,0.77-0.34
		C81.27,33.04,85.08,34.13,88.85,35.35z"/>
	<path class="st82" d="M46.26,57.54c-0.32,0.03-0.63,0.07-0.95,0.1c-1.42,0.11-2.53,0.95-3.7,1.64c-1.93,1.14-1.95,1.13-3.94-0.73
		c2.78,0.57,3.41-2.2,5.37-2.77l-0.01,0.01c1.42-0.43,2.79-1.2,4.36-0.72c3.7-0.35,6.69,1.2,9.36,3.57
		c0.49,0.42,1.05,0.79,1.38,1.34c0.53,0.88,0.45,1.48-0.81,1.28c-0.86-0.67-1.47-1.7-2.81-1.88c0.41,2.46,0.18,4.77-0.99,6.93
		c-0.64-0.6-0.45-1.34-0.26-2.01c0.59-2,0.07-3.91-0.38-5.82c-0.27-1.16-2.12-1.69-3.49-1.1c-0.59,0.26-1.04,0.84-1.77,0.78
		C47.19,57.94,47.02,57.08,46.26,57.54z"/>
	<path class="st83" d="M32.17,28.85c-2.49-0.94-4.64-2.31-6.05-4.65c-1.71-3.34-1.56-3.59,2.08-3.49c0.36,0.01,0.73,0.05,1.08-0.01
		c0.48-0.09,1.21,0.46,1.39-0.31c0.14-0.6-0.58-0.86-0.98-1.15c-1.07-0.76-2.11-1.57-3.2-2.29l0.01,0.01
		c-0.22-0.5-0.48-1.02,0.4-1.13c1.75,1.24,3.51,2.47,5.25,3.73c0.58,0.42,1.18,0.87,1.19,1.7c0.01,0.92-0.23,1.56-1.37,1.27
		c-1.46-0.37-2.94-0.18-4.67-0.15c1.68,3.28,5.07,4.09,7.5,6.07c0.41,0.99-0.38,0.79-0.89,0.92C33.19,29.55,32.66,29.28,32.17,28.85
		z"/>
	<path class="st84" d="M50,45.03c-0.39-0.03-0.84,0.02-1.22-0.1c-4.16-1.35-7.85-0.32-11.32,2.11c-0.46,0.32-1.1,1.38-1.76,0.35
		c-0.49-0.77-0.15-1.44,0.63-2.13c3.51-3.04,7.51-3.66,11.9-2.75c0.83,0.17,1.58,0.57,2.24,1.1c0.38,0.31,1.22,0.39,1.01,1.06
		C51.27,45.31,50.52,44.88,50,45.03z"/>
	<path class="st55" d="M119.37,97.19c-0.24,0.34-0.72,0.61-0.38,1.15c-1.01,0.56-1.85-0.17-2.71-0.43c-2.32-0.7-4.72-1.16-6.95-2.17
		c-2.86-1.3-5.99-1.46-9-2.12c-1.74-0.38-3.51-0.66-5.26-1c-0.49-0.09-1.08-0.29-0.93-0.86c0.16-0.6,0.8-0.29,1.22-0.22
		C103.46,93,111.54,94.55,119.37,97.19z"/>
	<path class="st85" d="M32.17,28.85c0.86-0.17,1.96,1.17,2.61-0.39c1.04,0.23,0.69,0.73,0.08,0.96c-2.55,0.97-3.73,3.24-5.44,5.32
		c0.39,0.02,0.53,0.05,0.68,0.03c1.27-0.19,2.79-0.78,3.62,0.5c0.79,1.22-0.49,2.24-1.09,3.27c-0.21,0.6,0.77,2.1-1.09,1.44l-0.18,0
		c0,0-0.18,0-0.18,0c-0.44-0.97,0.23-1.71,0.52-2.53c0.15-0.42,0.69-0.85,0.27-1.28c-0.35-0.36-0.93-0.19-1.38-0.08
		c-0.52,0.13-1,0.38-1.5,0.59c-0.48,0.21-0.96,0.64-1.48,0.17c-0.63-0.57-0.07-1.09,0.15-1.61c0.8-1.9,1.94-3.56,3.48-4.95
		C31.67,29.9,32.31,29.6,32.17,28.85z"/>
	<path class="st86" d="M70.45,88.19c0.9,0.02,1.22,1.13,2.14,1.12c-1.77,2.11-1.35,5.37,0.89,6.81c0.99,0.64,2.04,1.2,3.06,1.79
		c0.23,0.18,0.55,0.44,0.32,0.68c-0.4,0.42-0.93,0.29-1.42,0.07c-1.1-0.58-2.36-0.98-3.25-1.79c-0.91-0.84-1.74-1.08-2.84-0.73
		c-0.77,0.28-1.01,0.03-0.74-0.74c0.93-1.61,1.72-3.26,2.19-5.07C71.02,89.51,70.96,88.84,70.45,88.19z"/>
	<path class="st87" d="M71.54,102.25c-0.59-0.11-1.71-0.25-2.79-0.52c-0.63-0.16-1.27-0.5-1.16-1.35c0.13-0.9,0.87-0.58,1.41-0.65
		c1.47-0.19,2.8,0.38,4.14,0.86c0.47,0.17,1.17,0.32,1.07,0.99c-0.12,0.8-0.87,0.63-1.44,0.67
		C72.54,102.26,72.3,102.25,71.54,102.25z"/>
	<path class="st88" d="M129.89,42.15c0.02,0.06,0.04,0.11,0.07,0.17c0.51,0.88,2.3,0.84,1.92,2.22c-0.36,1.32-1.66,1.96-2.83,2.57
		c-0.42,0.22-0.9,0.32-1.35,0.47c-0.12,0-0.24-0.02-0.35,0c-0.83,0.18-2.06,0.8-2.29-0.26c-0.19-0.86,1.19-0.72,1.93-0.89
		c1.23-0.29,2.28-0.92,3.18-1.79c0.11-1.02-1.2-1.19-1.26-2.1C129.07,41.98,129.37,41.79,129.89,42.15z"/>
	<path class="st89" d="M129.89,42.15c-0.46-0.04-0.75,0.14-0.79,0.62c-0.21,0.29-0.45,0.27-0.72,0.08c-0.74,0.2-1.47,0.4-2.22,0.6
		c-0.29-0.68,0.33-0.77,0.59-0.93c2.45-1.43,5.04-2.45,7.91-2.57c0.68-0.03,1.34,0.01,1.68,0.75c-0.34,0.6-0.93,0.78-1.54,0.72
		C133.1,41.26,131.51,41.77,129.89,42.15z"/>
	<path class="st90" d="M68.62,95.4c0.01,0.48,0.27,0.71,0.74,0.74c-4.27,2.43-7.15,2.44-10.47-0.36c0.17-0.33,1.02,0,0.75-0.76
		c0.32,0.15,0.67,0.26,0.95,0.46C63.29,97.46,65.95,96.71,68.62,95.4z"/>
	<path class="st91" d="M92.74,78.51c2.15,0.12,4.23,1.04,6.46,0.28c1.88-0.64,3.61-1.45,5.05-2.82c-1.64,3.64-4.35,4.91-8.23,3.78
		C94.91,79.42,93.84,78.93,92.74,78.51z"/>
	<path class="st92" d="M105.67,70.23c-1.03-0.52-2.08-1.02-3.09-1.57c-0.58-0.32-0.7,0-0.8,0.45c-0.47-1.28-0.47-1.28,2.02-1.28
		c-0.21-0.55-0.41-1.07-0.61-1.59c1.42,1.01,2.55,2.46,4.51,2.59c0.69,0.05,0.4,0.59,0.08,0.89
		C107.18,70.28,106.48,70.49,105.67,70.23z"/>
	<path class="st93" d="M75.44,98.66c0.36-0.25,1.47,0.59,1.1-0.75c2.31-0.14,4.76,0.62,6.82-1.08c0.32,0.21-0.12,1.17,0.84,0.82
		c0.27-0.1,0.7,0.15,0.61,0.64c-0.81-0.12-1.53,0.2-2.26,0.45C80.18,99.56,77.81,99.28,75.44,98.66z"/>
	<path class="st94" d="M84.82,98.29c-0.32-0.65-2.04,0.09-1.45-1.46c-0.11-0.51-1.04-0.86-0.36-1.5c0.71-0.67,1.43,0.01,2.15,0.1
		c0.52,0.02,0.92,0.32,1.31,0.62c0.28,0.33,0.51,0.68,0.22,1.12C86.67,98.57,85.67,98.3,84.82,98.29z"/>
	<path class="st95" d="M43.05,55.79c-0.73,0.68-1.48,1.35-2.19,2.05c-0.68,0.68-1.28,1.51-2.52,0.78c0.76,1.12,1.42,1.3,2.61,0.7
		c1.37-0.69,2.58-2.01,4.37-1.67c-1.54,0.53-3,1.18-4.05,2.5c-1.95,0.73-3.06-0.54-4.6-2c2.03,0.39,3.39,0.17,4.36-1.39
		C41.38,56.19,42.18,55.69,43.05,55.79z"/>
	<path class="st96" d="M129.13,51.18c-0.78,1.15-1.97,1.7-3.21,2.17c-0.34,0.09-0.68,0.23-1.03,0.27c-0.36,0.05-0.78,0.01-0.91-0.39
		c-0.16-0.47,0.3-0.56,0.59-0.73c1.22-0.71,2.71-1.04,3.44-2.44c0.01-0.51,0.31-0.63,0.69-0.42
		C129.34,49.99,129.4,50.55,129.13,51.18z"/>
	<path class="st36" d="M41.61,78.86c-0.6-0.01-1.19-0.03-1.79-0.04c-0.69-0.4-1.5,0.07-2.19-0.31c-3.97-0.32-7.96-0.18-11.91-0.71
		c1.2-0.75,2.5-0.34,3.76-0.31c0.81,0.02,1.62,0.27,2.41-0.08c3.25,0.22,6.49,0.62,9.7,1.15c0.03,0.01,0.08,0.09,0.08,0.14
		C41.68,78.75,41.64,78.8,41.61,78.86z"/>
	<path class="st97" d="M48.12,87.14c0.94,0,1.89,0,2.83,0c-2.17,1.07-4.42,1.68-6.81,1.79c-0.13-0.29,0.01-0.43,0.27-0.51
		c-0.14-0.11-0.24,0.02-0.36,0.06c-0.6,0.18-1.17,0.2-1.71-0.18c-0.11-0.15-0.11-0.3,0.01-0.45c0.24,0,0.47-0.01,0.71-0.01
		c0.79-0.46,1.73,0.12,2.52-0.35l0,0C46.38,87.02,47.32,87.6,48.12,87.14z"/>
	<path class="st98" d="M42.33,88.2c0.83,0,1.66,0,2.68,0c-0.39,0.32-0.63,0.53-0.87,0.73c-2.37,0.73-4.8,0.24-7.2,0.35
		c-0.12-0.51,0.15-0.76,0.6-0.88C39.15,88.62,40.71,87.58,42.33,88.2z"/>
	<path class="st99" d="M109.33,95.74c3.22,0.86,6.44,1.73,9.66,2.59c0.01,0.1,0.02,0.2,0.04,0.3c-1.04,0.82-1.89-0.14-2.77-0.37
		c-2.45-0.63-4.85-1.44-7.27-2.18c-0.03-0.01-0.05-0.07-0.08-0.11C109.06,95.9,109.19,95.82,109.33,95.74z"/>
	<path class="st100" d="M31.9,77.41c-2.02,0.79-4.13,0.12-6.18,0.39c-0.82-0.02-1.63-0.03-2.45-0.05c0.02-1.73,1.31-1.02,2.08-0.98
		C27.54,76.9,29.72,77.19,31.9,77.41z"/>
	<path class="st101" d="M31.54,39.97c1.42,0.32,0.36-1.24,1.09-1.44c1.12,0.55,1.61-0.64,2.42-0.93c0.54-0.2,0.97-0.66,1.63-0.39
		C35.33,39.25,33.06,40.46,31.54,39.97z"/>
	<path class="st102" d="M98.84,84.63c-0.71-0.01-1.43-0.03-2.14-0.04c-1.19-0.46-2.46,0.11-3.65-0.32
		c-1.06-0.02-2.12-0.03-3.17-0.05c-0.05-0.26-0.29-0.63,0.2-0.68c3.09-0.29,6.1,0.4,9.13,0.82c-0.01,0.05,0,0.12-0.03,0.14
		C99.06,84.55,98.95,84.59,98.84,84.63z"/>
	<path class="st103" d="M27.94,88.94c0.36-0.01,0.71-0.02,1.07-0.02c1.2,0.16,2.47-0.35,3.62,0.37c-0.91,0.69-1.98,0.38-2.94,0.31
		c-2.09-0.14-4.06,0.32-6.06,0.75c-0.09-0.58,0.47-0.72,0.73-1.06c0.59-0.01,1.17-0.03,1.76-0.04
		C26.68,88.89,27.39,89.34,27.94,88.94z"/>
	<path class="st104" d="M86.68,97.17c-0.15-0.31-0.31-0.63-0.46-0.94c-0.17-0.41-0.89-0.58-0.65-1.1c0.19-0.43,0.66-0.31,1.03-0.07
		c0.36,0.3,0.74,0.57,1.08,0.89c0.48,0.45,1.07,1.04,0.59,1.65C87.63,98.4,87.19,97.42,86.68,97.17z"/>
	<path class="st20" d="M55.32,94.31c-0.02-0.97,0.81-1.09,1.42-1.43c0.68-0.27,1.32-0.34,1.8,0.36c0,0.12,0,0.24-0.01,0.36
		c-0.14,0.8-0.9,0.79-1.43,1.09l0,0C56.41,95.03,55.91,94.48,55.32,94.31z"/>
	<path class="st105" d="M120.84,87.15c-2.2,0.06-4.3-0.67-6.48-0.76C116.61,85.82,118.8,85.84,120.84,87.15z"/>
	<path class="st106" d="M40.9,68.41c1.62,1.4,3.09,2.99,5.04,3.98C43.52,72,41.8,70.72,40.9,68.41z"/>
	<path class="st107" d="M92.05,65.9c-0.45,0.62-1.07,0.93-1.8,1.09c-0.64-0.15-1.59,0.88-1.84-0.04c-0.31-1.17,0.78-1.77,1.78-2.19
		c-0.4,0.55-0.79,1.1-1.2,1.67C90.21,67.01,91.02,65.9,92.05,65.9z"/>
	<path class="st108" d="M129.13,51.18c-0.15-1.36-0.22-1.43-1.12-1.12c-0.81-0.09-2.1-0.24-1.88-1.04c0.25-0.95,1.22,0.14,1.9,0.15
		c0.23,0,0.45,0.12,0.67,0.18C129.5,49.8,129.79,50.38,129.13,51.18z"/>
	<path class="st109" d="M126.95,55.44c0.13,0.23,0.25,0.47,0.38,0.7c-0.01,0.06-0.02,0.11-0.03,0.17c-0.17,0.67-0.55,1.29-1.27,1.21
		c-0.9-0.1-0.17-0.84-0.28-1.28C125.44,55.05,126.46,55.59,126.95,55.44z"/>
	<path class="st110" d="M32.63,89.29c-1.2-0.19-2.48,0.37-3.62-0.37c0,0,0-0.01,0-0.01c1.18-0.45,2.45,0.14,3.63-0.33
		c0.47-0.01,0.95-0.02,1.42-0.02c0.32-0.24,0.67-0.16,1.02-0.12c0.33,0.19,0.59,0.41,0.42,0.85C34.54,89.29,33.59,89.29,32.63,89.29
		z"/>
	<path class="st111" d="M89.9,85.66c1.31,0.19,2.68-0.35,3.94,0.36c-1.32,0.72-2.69,0.47-4.03,0.14C89.16,86,89.47,85.76,89.9,85.66
		z"/>
	<path class="st112" d="M35.15,88.57c-0.36-0.01-0.72-0.01-1.08-0.02c0.2-0.11,0.42-0.33,0.61-0.31c2.58,0.2,5.11-0.45,7.68-0.39
		c-0.01,0.12-0.02,0.23-0.02,0.35c-1.68,0.13-3.35,0.25-5.03,0.38C36.58,89,35.86,89.01,35.15,88.57z"/>
	<path class="st113" d="M57.33,61.26c0.8-0.14,1.06-0.53,0.54-1.23c-0.35-0.48-0.74-0.93-1.11-1.39c0.85,0.15,1.27,0.86,1.81,1.4
		c0.37,0.37,0.45,0.85,0.23,1.33c-0.31,0.68-0.83,0.16-1.25,0.18C57.48,61.45,57.4,61.36,57.33,61.26z"/>
	<path class="st114" d="M113.98,45.01c0.44,0.25,0.86,0.24,1.36,0.12c0.48-0.11,0.79,0.32,0.74,0.78c-0.07,0.6-0.54,0.56-0.95,0.36
		c-0.53-0.26-1.03-0.58-1.54-0.88C113.62,45.16,113.83,45.12,113.98,45.01z"/>
	<path class="st115" d="M26.88,15.83c-0.44,0.27-0.36,0.72-0.4,1.13c-0.5,0.01-0.86-0.23-1.1-0.66c-0.11-0.51-1.2-1.04,0.03-1.52
		C25.9,15.13,26.39,15.48,26.88,15.83z"/>
	<path class="st116" d="M25.41,14.78c-0.63,0.49,0.21,1.02-0.03,1.52c-0.62-0.22-1.08-0.63-1.38-1.21
		C24.11,13.4,24.85,14.53,25.41,14.78z"/>
	<path class="st117" d="M59.64,95.01c0.36,0.86-0.25,0.76-0.75,0.76c-0.23-0.13-0.47-0.25-0.7-0.38c-0.21-0.66-0.49-1.36,0.72-1.07
		C59.15,94.55,59.39,94.78,59.64,95.01z"/>
	<path class="st95" d="M47.4,55.07c-1.52-0.15-2.87,0.67-4.36,0.72C44.41,55,45.79,54.33,47.4,55.07z"/>
	<path class="st118" d="M110.74,42.84c0.79-0.05,0.96,0.72,1.44,1.08c0.07,0.33-0.02,0.5-0.39,0.39c-0.74-0.13-1.37-0.45-1.8-1.09
		C110.29,43.2,110.58,43.14,110.74,42.84z"/>
	<path class="st119" d="M111.79,44.31c0.13-0.13,0.26-0.26,0.39-0.39c0.62-0.04,0.95,0.52,1.45,0.71c0.11,0.13,0.23,0.25,0.34,0.38
		c-0.13,0.13-0.26,0.26-0.38,0.38C112.88,45.23,112.21,44.98,111.79,44.31z"/>
	<path class="st120" d="M128.38,42.85c0.24-0.03,0.48-0.05,0.72-0.08c0.31,0.65,1.78,0.63,1.07,1.86
		C129.57,44.04,128.98,43.45,128.38,42.85z"/>
	<path class="st121" d="M35.15,88.57c0.72,0,1.44,0,2.15,0c-0.12,0.24-0.24,0.47-0.36,0.71c-0.48,0-0.96,0-1.44,0
		C35.38,89.05,35.26,88.81,35.15,88.57z"/>
	<path class="st112" d="M32.64,88.58c-1.16,0.69-2.42,0.22-3.63,0.33c0.76-0.62,1.66-0.24,2.49-0.37
		C31.88,88.55,32.26,88.57,32.64,88.58z"/>
	<path class="st122" d="M58.91,94.32c-0.72,0.04-0.74,0.54-0.72,1.07c-0.38-0.2-0.53-0.76-1.08-0.7c0.48-0.36,0.95-0.73,1.43-1.09
		C58.66,93.84,58.78,94.08,58.91,94.32z"/>
	<path class="st123" d="M86.6,95.05c-1.64-0.1-0.28,0.78-0.38,1.18c-0.46-0.13-0.81-0.4-1.07-0.8C85.4,94.41,85.94,94.5,86.6,95.05z
		"/>
	<path class="st124" d="M118.29,100.1c-0.36,0.24-0.72,0.47-1.08,0.71c-0.26-0.07-0.74-0.21-0.49-0.44
		C117.1,100.01,117.66,99.49,118.29,100.1z"/>
	<path class="st112" d="M48.12,87.14c-0.77,0.64-1.69,0.23-2.54,0.35C46.35,86.79,47.27,87.26,48.12,87.14z"/>
	<path class="st112" d="M45.58,87.49c-0.76,0.66-1.68,0.23-2.52,0.35C43.82,87.16,44.74,87.62,45.58,87.49z"/>
	<path class="st122" d="M55.32,94.31c0.6,0.13,1.19,0.25,1.79,0.38C56.33,95.41,55.84,94.78,55.32,94.31z"/>
	<path class="st122" d="M58.54,93.25c-0.56-0.35-1.17-0.39-1.8-0.36C57.45,92.42,58.14,92.11,58.54,93.25z"/>
	<path class="st125" d="M40.58,117.8c0.02-0.29-0.04-0.61,0.06-0.87c0.81-2.06,0.03-3.41-2.25-3.89c0.82-0.78,1.39-0.19,1.98,0.36
		c3.19,2.98,7.02,4.95,10.93,6.75c3.9,1.8,7.85,3.5,11.85,5.06c3.72,1.45,7.6,2.43,11.63,2.57c2.21,0.08,4.43-0.07,6.65,0.03
		c4.89,0.22,9.63-0.44,14.21-2.17c0.06,0.29,0.09,0.63,0.49,0.58c0.46-0.06,0.95-0.12,1.36-0.3c0.91-0.42,1.99-0.41,2.37,0.37
		c0.36,0.74-0.17,1.72-1.07,2.21c-0.24-1.09-0.83-1.12-1.83-0.84c-5,1.39-10,2.86-15.3,2.45c-0.71-0.06-1.43,0-2.14-0.15
		c-0.99-0.34-2.01-0.25-3.02-0.23c-7.48,0.15-14.52-1.43-21.27-4.76c-4.45-2.19-9.03-4.1-13.14-6.92
		C41.61,117.77,41.06,118.01,40.58,117.8z"/>
	<path class="st126" d="M79.43,129.56c6.17,0.58,12.07-0.77,17.92-2.54c0.54-0.16,1.16-0.79,1.62-0.36
		c0.56,0.52-0.17,1.21-0.19,1.84c-0.96,1.36-2.3,2.24-3.76,2.96c-7.08,3.5-14.58,4.57-22.36,3.78c-4.4-0.45-8.79-1.1-13.04-2.4
		c-0.12-0.45,0.23-0.59,0.51-0.79c1.01-0.44,1.18-1.45,1.56-2.31c0.84-1.34,1.9-1.7,3.51-1.26c3.96,1.08,8.04,1.01,12.11,0.97
		C78.01,129.43,78.73,129.31,79.43,129.56z"/>
	<path class="st127" d="M79.43,129.56c-4.96-0.04-9.95,0.49-14.83-0.9c-1.56-0.44-2.1,0.75-2.84,1.65
		c-0.44,0.76-0.87,1.51-1.49,2.14c-0.28,0.03-0.54,0.08-0.65,0.39c-7.14-1-13.24-3.86-17.58-9.84c-0.45-0.62-0.71-1.37-1.06-2.06
		c0.1-1.22-0.53-2.66,1-3.48c5.41,3.81,11.52,6.27,17.51,8.91c4.42,1.95,9.22,2.77,14.1,2.85
		C75.54,129.25,77.52,128.94,79.43,129.56z"/>
	<path class="st128" d="M41.98,117.45c-0.76,1.04-0.56,2.35-1,3.48c-0.5-1-0.55-2.05-0.4-3.13C41,117.49,41.42,117.19,41.98,117.45z
		"/>
	<path class="st129" d="M93.04,84.27c1.22,0.11,2.49-0.37,3.65,0.32C95.47,84.49,94.21,84.87,93.04,84.27z"/>
	<path class="st27" d="M37.64,78.51c0.74,0.04,1.53-0.28,2.19,0.31C39.08,78.79,38.3,79.06,37.64,78.51z"/>
	<path class="st27" d="M27.94,88.94c-0.52,0.57-1.2,0.28-1.82,0.33C26.65,88.74,27.32,88.98,27.94,88.94z"/>
	<path class="st29" d="M52.81,202.96c0.41-0.01,0.7-0.08,0.45-0.62c-0.33-0.7-0.61-1.43-0.91-2.14c0.98,0.34,1.01,1.36,1.47,2.07
		c0.17,0.26,0.49,0.65,0.15,0.94C53.55,203.55,53.1,203.49,52.81,202.96z"/>
	<path class="st130" d="M47.03,195.83c-3.69-1.58-5.89-4.66-7.92-7.9c-0.26-0.45-0.23-0.75,0.39-0.75c1.81,2.02,3.15,4.45,5.42,6.08
		c0.78,0.56,1.55,1.09,2.44,1.45C47.56,195.18,47.15,195.46,47.03,195.83z"/>
	<path class="st131" d="M52.41,164.89c0.78,1.78,1.49,3.61,2.77,5.12c0.48,0.57,0.84,1.22,0.19,1.71c-0.7,0.53-1.03-0.37-1.35-0.75
		c-1.19-1.44-2.1-3.04-2.36-4.94c-0.17-0.49-0.34-1.03,0.08-1.44C52,164.33,52.25,164.64,52.41,164.89z"/>
	<path class="st132" d="M47.03,195.83c-0.43-0.53,0.21-0.75,0.32-1.12c0.02-0.82,0.03-1.64,0.05-2.46c0.48-1.03-0.16-2.2,0.37-3.22
		l0,0c0.7-0.27,1.33-0.43,1.09,0.73c0.1,1.99-0.4,3.97,0.04,5.99c0.2,0.93-0.44,1.1-1.15,0.46l0,0
		C47.5,196.08,47.26,195.95,47.03,195.83z"/>
	<path class="st133" d="M48.85,189.76c-0.05-0.71-0.52-0.79-1.09-0.73c0.77-0.78,1.46-0.41,2.14,0.15c0.78,0.65,1.25,1.53,1.81,2.34
		c0.25,0.43,0.24,0.73-0.37,0.73C50.4,191.53,50.2,190.08,48.85,189.76z"/>
	<path class="st134" d="M56.22,169.92c0.24-1.34,0-2.88,1.53-4.09C57.72,167.59,56.81,168.7,56.22,169.92z"/>
	<path class="st135" d="M51.31,164.93c-0.56-1.23-0.61-2.39,0.4-3.61c0.55,0.76,0.29,1.47,0.36,2.13c-0.27,0.11-0.44,0-0.51-0.27
		c-0.09,0.1,0,0.2,0.03,0.28C51.76,164,51.69,164.49,51.31,164.93z"/>
	<path class="st136" d="M51.31,164.93c0-0.72,0-1.45,0-2.39c0.36,0.43,0.56,0.67,0.76,0.9c0.21,0.46,0.43,0.91,0.34,1.44
		c-1.36-0.34-0.41,0.81-0.74,1.14C51.31,165.74,51.33,165.32,51.31,164.93z"/>
	<path class="st137" d="M51.34,192.25c0.29-0.16,0.36-0.43,0.37-0.73c0.69,0.73,0.99,1.65,1.28,2.6
		C52.24,193.65,51.46,193.23,51.34,192.25z"/>
	<path class="st138" d="M39.49,187.18c-0.3,0.16-0.38,0.44-0.39,0.75c-0.36-0.48-0.72-0.96-1.08-1.44
		c-0.25-0.43-0.25-0.72,0.36-0.72C38.74,186.25,39.51,186.4,39.49,187.18z"/>
	<path class="st133" d="M47.77,189.03c-0.18,1.07,0.3,2.21-0.37,3.22C47.5,191.17,47.01,190.03,47.77,189.03z"/>
	<path class="st139" d="M38.38,185.77c-0.29,0.15-0.35,0.43-0.36,0.72c-0.43-0.41-0.76-0.85-0.63-1.52
		C37.99,184.93,38.15,185.39,38.38,185.77z"/>
	<path class="st115" d="M26.47,16.95c1.76,0.5,2.92,1.95,4.43,2.85c0.31,0.19,0.6,0.66,0.33,1.09c-0.26,0.43-0.7,0.36-1.11,0.2
		c-0.86-0.35-1.76-0.18-2.64-0.19c-2.34-0.02-2.46,0.19-1.56,2.45c0.11,0.27,0.13,0.57,0.19,0.86c-0.58-0.38-0.83-1-1.08-1.59
		c-0.6-1.42,0.21-2.58,1.73-2.34c1.12,0.18,2.22,0.25,3.54,0.22C29.42,18.75,27.33,18.48,26.47,16.95z"/>
	<path class="st79" d="M47.38,57.97c0.83,0.05,1.12-0.82,1.81-1.04c1.3-0.41,2.51-0.38,3.68,0.49c1.11,0.84,0.5,2.11,0.94,3.15
		c0.79,1.88-0.42,3.8-0.27,5.74c-0.19,0.62-0.33,1.27-0.59,1.86c-0.92,2.09-2.6,3.19-4.43,2.95c-2.03-0.26-3.69-1.82-3.93-4.07
		c-0.36-3.31,0.22-6.44,2.47-9.07C47.15,57.82,47.26,57.82,47.38,57.97z"/>
	<path class="st140" d="M47.38,57.97l-0.17,0.02l-0.17-0.01c-0.11-0.41-0.51-0.3-0.78-0.44c0.36-0.34,0.77-0.44,1.19-0.19
		C47.53,57.4,47.41,57.76,47.38,57.97z"/>
	<path class="st141" d="M98.53,73.12c-0.26,1-1.04,1.35-1.99,1.37c-0.97,0.02-1.39-0.55-1.36-1.47c0.04-1.18,0.95-1.26,1.77-1.25
		C97.75,71.79,98.49,72.06,98.53,73.12z"/>
	<path class="st142" d="M93.83,76.32c-1.45-0.14-1.52-1.37-1.78-2.36c-0.56-2.11-0.72-4.22,0.29-6.27
		C92.63,70.6,92.19,73.64,93.83,76.32z"/>
	<path class="st143" d="M96.96,68.03c-0.02,0.63-0.38,1-0.99,1.07c-0.67,0.08-1.27-0.2-1.32-0.9c-0.05-0.64,0.38-1.16,1.07-1.24
		C96.45,66.88,96.78,67.39,96.96,68.03z"/>
	<path class="st92" d="M101.77,69.09c0.32,0.64,0.3,1.29,0.02,1.94C101.78,70.39,101.78,69.74,101.77,69.09z"/>
	<path class="st144" d="M76.21,81.43c0.34,0.04,0.56,0.25,0.53,0.58c-0.03,0.38-0.36,0.48-0.65,0.39c-0.19-0.06-0.44-0.29-0.45-0.46
		C75.62,81.62,75.85,81.41,76.21,81.43z"/>
	<path class="st145" d="M73.56,82.5c0.16-0.08,0.3-0.22,0.44-0.22c0.31-0.02,0.37,0.24,0.3,0.46c-0.04,0.12-0.25,0.27-0.34,0.25
		C73.84,82.96,73.77,82.77,73.56,82.5z"/>
	<path class="st146" d="M60.27,132.45c0.25-0.88,0.66-1.66,1.5-2.14C61.86,131.43,61.19,132.02,60.27,132.45z"/>
	<path class="st147" d="M47.74,196.2c0.05-0.32-0.12-0.73,0.31-0.89c0.07-0.03,0.31,0.16,0.33,0.28
		C48.47,196.08,48.1,196.15,47.74,196.2C47.74,196.2,47.74,196.2,47.74,196.2z"/>
	<path class="st148" d="M50.64,67.01c-0.13,0.96-0.84,1.26-1.63,1.35c-0.89,0.1-1.29-0.44-1.32-1.28c-0.04-0.94,0.42-1.52,1.36-1.46
		C49.85,65.67,50.51,66.08,50.64,67.01z"/>
	<path class="st149" d="M50.9,60.24c-0.09,0.74-0.55,1.06-1.22,1.05c-0.73-0.02-1.29-0.37-1.33-1.16c-0.04-0.84,0.53-1.14,1.28-1.11
		C50.4,59.05,50.81,59.5,50.9,60.24z"/>
</g>
</svg>
