<?xml version="1.0" encoding="utf-8"?>
<!-- Generator: Adobe Illustrator 23.0.2, SVG Export Plug-In . SVG Version: 6.00 Build 0)  -->
<svg version="1.1" id="Camada_1" xmlns="http://www.w3.org/2000/svg" xmlns:xlink="http://www.w3.org/1999/xlink" x="0px" y="0px"
	 viewBox="0 0 223.62 353.97" style="enable-background:new 0 0 223.62 353.97;" xml:space="preserve">
<style type="text/css">
	.st0{fill:#FEFEFE;}
	.st1{fill:#6B431B;}
	.st2{fill:#77442B;}
	.st3{fill:#77432B;}
	.st4{fill:#76432A;}
	.st5{fill:#361B14;}
	.st6{fill:#361B13;}
	.st7{fill:#78452B;}
	.st8{fill:#734129;}
	.st9{fill:#79472B;}
	.st10{fill:#78472D;}
	.st11{fill:#6E3F27;}
	.st12{fill:#381D15;}
	.st13{fill:#7C492B;}
	.st14{fill:#704128;}
	.st15{fill:#693C25;}
	.st16{fill:#673D26;}
	.st17{fill:#79482A;}
	.st18{fill:#976730;}
	.st19{fill:#754429;}
	.st20{fill:#5F3623;}
	.st21{fill:#5C3421;}
	.st22{fill:#663A25;}
	.st23{fill:#86502C;}
	.st24{fill:#7E4E2B;}
	.st25{fill:#8E5B2F;}
	.st26{fill:#87582D;}
	.st27{fill:#85552C;}
	.st28{fill:#623D2A;}
	.st29{fill:#85532D;}
	.st30{fill:#82512C;}
	.st31{fill:#814F2C;}
	.st32{fill:#A06727;}
	.st33{fill:#82582A;}
	.st34{fill:#8B5C2D;}
	.st35{fill:#956C2E;}
	.st36{fill:#E0B542;}
	.st37{fill:#F3D686;}
	.st38{fill:#B67B2A;}
	.st39{fill:#B87924;}
	.st40{fill:#F2D585;}
	.st41{fill:#B67C2A;}
	.st42{fill:#7F4B2B;}
	.st43{fill:#F0D382;}
	.st44{fill:#F3D788;}
	.st45{fill:#B77D2B;}
	.st46{fill:#F0D281;}
	.st47{fill:#F0D384;}
	.st48{fill:#EBCC7A;}
	.st49{fill:#EDCE7B;}
	.st50{fill:#D6B56C;}
	.st51{fill:#E9C979;}
	.st52{fill:#E2BF68;}
	.st53{fill:#CBA663;}
	.st54{fill:#BB9254;}
	.st55{fill:#B87923;}
	.st56{fill:#D79744;}
	.st57{fill:#7D482C;}
	.st58{fill:#D69643;}
	.st59{fill:#F2D586;}
	.st60{fill:#6A3D26;}
	.st61{fill:#8F5D33;}
	.st62{fill:#ECE1CE;}
	.st63{fill:#351F13;}
	.st64{fill:#5C3521;}
	.st65{fill:#321E12;}
	.st66{fill:#B8833B;}
	.st67{fill:#4B2B1B;}
	.st68{fill:#512E1D;}
	.st69{fill:#CCA23D;}
	.st70{fill:#BF963C;}
	.st71{fill:#BD9236;}
	.st72{fill:#A77C2E;}
	.st73{fill:#C19638;}
	.st74{fill:#B38935;}
	.st75{fill:#F2D686;}
	.st76{fill:#EFCF79;}
	.st77{fill:#D5AA3F;}
	.st78{fill:#84502C;}
	.st79{fill:#B88937;}
	.st80{fill:#996B3E;}
	.st81{fill:#804D2D;}
	.st82{fill:#D1A53E;}
	.st83{fill:#EECE78;}
	.st84{fill:#613723;}
	.st85{fill:#804F2D;}
	.st86{fill:#5A3420;}
	.st87{fill:#4A2A1B;}
	.st88{fill:#583220;}
	.st89{fill:#4B2E19;}
	.st90{fill:#56311F;}
	.st91{fill:#DDB241;}
	.st92{fill:#7D4A2B;}
	.st93{fill:#DFB542;}
	.st94{fill:#B77E2A;}
	.st95{fill:#EBCD7E;}
	.st96{fill:#BF892F;}
	.st97{fill:#E9C872;}
	.st98{fill:#A56D2A;}
	.st99{fill:#E6C679;}
	.st100{fill:#D9AE40;}
	.st101{fill:#E9C97B;}
	.st102{fill:#BC9456;}
	.st103{fill:#EED07E;}
	.st104{fill:#E6C46F;}
	.st105{fill:#4D2C1C;}
	.st106{fill:#2B1F0E;}
	.st107{fill:#E8C775;}
	.st108{fill:#E0BB62;}
	.st109{fill:#5C3920;}
	.st110{fill:#82502D;}
	.st111{fill:#613B21;}
	.st112{fill:#53351B;}
	.st113{fill:#F0D383;}
	.st114{fill:#DDD6D3;}
	.st115{fill:#BD943C;}
	.st116{fill:#BE9039;}
	.st117{fill:#412E15;}
	.st118{fill:#5D441E;}
	.st119{fill:#271D10;}
	.st120{fill:#45341F;}
	.st121{fill:#342811;}
	.st122{fill:#371C15;}
	.st123{fill:#FDFDFC;}
	.st124{fill:#B87E2B;}
	.st125{fill:#B77D2A;}
	.st126{fill:#B77C2A;}
	.st127{fill:#B97F2B;}
	.st128{fill:#BD822B;}
	.st129{fill:#F1EBE2;}
	.st130{fill:#BA812C;}
	.st131{fill:#D8AB3D;}
	.st132{fill:#F6EEDD;}
	.st133{fill:#976631;}
	.st134{fill:#DFB85C;}
	.st135{fill:#513022;}
	.st136{fill:#ECCB73;}
	.st137{fill:#C48F33;}
	.st138{fill:#E5BE55;}
	.st139{fill:#EAC86E;}
	.st140{fill:#604233;}
	.st141{fill:#A16F32;}
	.st142{fill:#CF9E37;}
	.st143{fill:#CC9732;}
	.st144{fill:#582F1A;}
	.st145{fill:#774725;}
	.st146{fill:#925C2C;}
	.st147{fill:#CDA33F;}
	.st148{fill:#E1DBD9;}
</style>
<g>
	<path class="st0" d="M81.47,317.64c0.57,3.59,1.25,7.16,1.69,10.77c0.1,0.8-0.01,1.53-0.17,2.3c-0.68,3.24-1.91,6.27-3.23,9.29
		c-2.08,4.77-6.04,6.45-10.71,6.3c-5.12-0.16-10.28-0.7-15.21-2.27c-3.39-1.08-6.4-2.72-7.07-6.8c-0.45-2.72,0.28-5.04,2.27-6.79
		c1.46-1.29,2.88-2.64,4.63-3.66c1.34-0.79,2.11-2.29,1.82-4.14c-0.91-5.95-1.5-11.94-2.19-17.91c-0.23-2-0.59-4.03-0.77-6.02
		c-0.67-7.2-3.07-14.07-3.75-21.24c-0.2-2.06,0.23-4.21,0.11-6.22c-0.19-3.17,0.04-6.35-0.28-9.5c-0.53-5.2-0.06-10.44-0.65-15.63
		c-0.24-2.13-1.12-4.23-0.69-6.38c0.32-1.61,0.31-3.2,0.34-4.82c0.17-8.48-1.15-16.75-2.95-25.03c-1.61-7.38-2.48-14.93-3.29-22.47
		c-0.8-7.55-0.45-15.1-0.65-22.65c-0.19-7.06-0.73-14.13-0.63-21.18c0.15-10.13,0.12-20.27,0.35-30.4
		c0.11-4.79,0.19-9.59,0.28-14.38c0.11-5.2,0.48-10.38,1.36-15.52c0.34-1.99,0.26-4.05,0.47-6.07c0.11-1.09-0.11-1.2-1.21-1.06
		c-4.65,0.56-9.03,1.86-13.48,3.37c-6.66,2.25-12.97,0.4-18.57-3.78c-3.17-2.37-5.78-5.26-7.65-8.71
		c-1.84-3.38-1.88-7.13-1.45-10.86C0.7,52.14,2.85,48.9,5.3,45.83c1.49-1.87,3.8-2.47,5.87-3.33c3.64-1.51,7.23-3.12,11.05-4.92
		c-3.36-2.31-4.96-6.04-7.66-8.85c-2.82-2.92-2.84-7.47,0.14-10.28c2.24-2.12,4.95-3.39,8.12-3.25c5.64,0.24,11.23-0.54,16.84-0.75
		c1.53-0.05,2.63-0.52,2.85-2.35c0.35-2.9,2.03-4.79,4.91-5.49c0.54-0.13,0.77-0.43,1.01-0.88c2.18-3.93,5.85-5.28,10.02-5.64
		c1.42-0.12,2.91-0.15,4.3,0.12c5.01,0.96,7.01,3.23,7.64,8.55c2.53-3.79,6.27-4.71,10.26-4.32c4.16,0.4,7.89,2.09,10.43,5.63
		c2.5,3.48,2.97,7.23,1.15,11.18c-0.26,0.56-0.79,1.06,0.07,1.67c2.89,2.02,4.91,4.89,7.09,7.59c1.55,1.92,3.24,3.62,5.37,4.95
		c2.81,1.76,5.33,3.87,5.92,7.5c0.55,3.37-0.44,6.14-3.01,8.31c-4.22,3.56-8.86,6.35-14.38,7.37c-0.89,0.16-0.97,0.61-1.04,1.32
		c-0.1,1.01-0.12,2.08-0.5,2.99c-1.87,4.6-1.83,9.81-4.51,14.15c-0.42,0.68-0.35,1.34-0.01,2.15c0.68,1.6,1.09,3.3,0.38,5.05
		c-0.49,1.2-0.12,2.44-0.11,3.67c0.02,2.57,0.4,5.02,1.25,7.44c0.46,1.31,0.62,2.69,0.52,4.08c-0.1,1.44,1,2.48,1.27,3.85
		c0.41,2.1-0.03,3.92-1.12,5.61c-0.47,0.72-0.62,1.34-0.37,2.13c0.59,1.91,0.97,3.83,0.39,5.82c-0.15,0.5-0.13,1.04,0.25,1.53
		c1.68,2.14,1.53,4.84,2.24,7.28c0.74,2.56,0.89,5.23,3.06,7.48c1.77,1.82,3.21,3.84,5.6,4.94c0.44,0.2,0.86,0.75,1,1.23
		c0.68,2.27,2.45,3.3,4.38,4.36c1.31,0.71,2.32,1.3,4,1.15c4.25-0.38,8.48-0.01,12.35,2.14c0.96,0.53,2.03-0.33,3.13,0.11
		c1.77,0.7,3.59,0.83,5.55,0.29c1.7-0.47,3.41,0.41,5.01,1.05c0.69,0.28,1.33,0.51,2.06,0.28c2.9-0.93,5.66-0.12,8.15,1.13
		c2.07,1.04,4.16,1.73,6.39,2.09c1.55,0.25,2.87,0.94,3.76,2.21c0.64,0.91,1.61,0.77,2.41,0.92c2.17,0.4,3.74,1.51,4.85,3.35
		c0.31,0.51,0.56,1,1.28,1.12c2.5,0.4,4.14,2.01,5.43,4.05c0.35,0.56,0.66,1.08,1.4,1.27c3.78,0.98,5.9,3.74,6.69,7.27
		c0.83,3.7,2.71,6.83,4.37,10.12c0.97,1.91,1.8,3.91,2.52,5.93c1.8,5.05,3.93,9.96,5.25,15.22c1.22,4.83,3.46,9.41,4.89,14.22
		c1.19,4.01,2.47,8,4.66,11.6c1.5,2.47,3.05,4.72,6.12,5.86c3.91,1.44,7.51,3.7,10.72,6.44c4.46,3.8,6.69,8.69,6.6,14.53
		c-0.09,6-0.94,11.8-4.86,16.74c-3.51,4.43-9.54,4.34-12.73-0.32c-0.4-0.59-0.78-0.95-1.51-1.06c-2.02-0.28-3.77-1.19-5.15-2.69
		c-0.58-0.63-1.05-0.42-1.73-0.21c-2.74,0.84-5.48,1.7-8.4,0.57c-1.02-0.39-1.88-1.02-3.1-1.69c0.62,2.14,1.12,4.02,1.7,5.88
		c3.24,10.46,7.03,20.72,11.05,30.9c1.88,4.75,1.97,9.78,2.82,14.7c0.85,4.92-1.13,8.32-5.42,10.59c-2.41,1.27-4.41,3.16-7.23,3.86
		c-3.37,0.83-6.39,0.31-9.41-1.05c-1.8-0.81-3.51-1.77-5.34-2.53c-3.01-1.26-5.21-5.7-4.38-8.82c0.7-2.66,1.27-5.35,1.87-8.04
		c0.64-2.87-1.3-5-2.25-7.38c-3-7.47-6.19-14.86-9.27-22.3c-1.42-3.41-2.87-6.8-4.06-10.68c-1.24,4.64-2.34,8.93-3.53,13.2
		c-1.34,4.78-2.69,9.57-4.16,14.31c-1.18,3.81-1.19,7.78-1.92,11.65c-0.58,3.09-0.29,6.2-0.35,9.3c-0.09,5.06-4.36,9.81-10.02,11.28
		c-5.64,1.46-11.14,0.82-16.6-0.91c-0.89-0.28-1.49-0.99-2.46-1.43c0.33,1.78,0.52,3.46,0.96,5.15c1.97,7.45-0.11,13.21-8.06,16.37
		c-3.25,1.29-6.63,2.07-10.07,2.44c-3.2,0.35-6.31-0.56-9.31-1.55c-1.54-0.5-2.74-1.81-3.16-3.46c-0.32-1.28-1.09-2.09-2.06-2.82
		c-3.04-2.27-4.49-6.87-1.98-10.38c4.27-5.96,3.84-12.55,3.46-19.27c-0.28-4.89-1.17-9.7-1.64-14.57
		c-0.65-6.65-1.69-13.26-3.15-19.8c-0.8-3.62-1.59-7.24-2.28-10.88c-0.67-3.54-1.23-7.1-2.2-10.69c-0.43,2.24-1.03,4.47-1.24,6.74"
		/>
	<path d="M77.37,240.66c-1.41,5.3-1.39,10.55-2.49,15.68c-1.31,6.1-2.9,12.23-2.42,18.6c0.46,6.07,0.53,12.15,1.63,18.18
		c1.22,6.68,2.33,13.38,3.09,20.15c0.44,3.9,1.13,7.8,1.96,11.64c1.24,5.71-0.88,10.55-3.62,15.24c-1.45,2.47-4.12,2.72-6.51,2.57
		c-4.4-0.27-8.82-0.65-13.13-1.74c-1.35-0.34-2.6-0.92-3.76-1.64c-2.43-1.53-2.72-4.6-0.5-6.36c1.51-1.19,2.62-3.06,4.86-3.18
		c0.58-0.03,0.5-0.59,0.67-0.94c0.23-0.48,0.33-1.2,0.71-1.4c2.3-1.25,1.37-3.23,1.18-4.99c-0.53-4.74-1.03-9.48-1.74-14.19
		c-0.48-3.17-0.79-6.37-1.12-9.54c-0.75-7.25-3.13-14.17-3.8-21.4c-0.18-1.99,0.26-4.09,0.13-6.04c-0.21-3.23,0.05-6.47-0.29-9.68
		c-0.54-5.08-0.07-10.19-0.62-15.28c-0.23-2.13-1.12-4.22-0.72-6.38c0.32-1.72,0.32-3.44,0.35-5.17c0.15-8.42-1.13-16.63-2.93-24.85
		c-1.63-7.44-2.52-15.04-3.31-22.65c-0.7-6.71-0.54-13.42-0.62-20.13c-0.09-8.38-0.88-16.75-0.65-25.14
		c0.26-9.35,0.04-18.71,0.35-28.06c0.26-7.9-0.04-15.83,0.68-23.71c0.44-4.8,1-9.61,1.74-14.37c0.31-1.96-1.91-4.22-3.64-3.68
		c-2.55,0.8-5.19,0.83-7.77,1.25c-2.15,0.35-4.18,1.01-6.12,1.94c-5.02,2.43-9.94,1.73-14.63-0.68c-4.07-2.09-7.12-5.39-9.5-9.32
		C2.72,61.89,3.8,54.24,6.11,50.65c2.7-4.18,7.17-4.79,11.01-6.75c3.5-1.79,7.31-2.91,10.61-5.15c1.33-0.9,0.92-1.64-0.09-2.08
		c-4.31-1.87-6.83-5.48-9.3-9.17c-0.26-0.39-0.59-0.75-0.94-1.08c-1.99-1.89-1.91-4.12,0.23-5.79c1.55-1.2,3.23-1.93,5.29-1.86
		c6.17,0.22,12.3-0.37,18.42-1.03c0.59-0.06,1.2,0.11,1.79,0.05c0.89-0.1,1.93-0.07,2.6-0.53c0.76-0.53-0.04-1.48-0.12-2.24
		c-0.35-3.28,1.27-5.18,4.56-5.05c0.68,0.03,0.63-0.26,0.72-0.65c0.86-3.86,4.13-5.47,7.78-5.62c1.02-0.04,2.04-0.05,3.06,0
		c3.14,0.13,4.95,2.02,4.97,5.14c0.01,1.92,0.04,3.84-0.01,5.76c-0.02,0.91,0.11,1.32,1.2,1.42c3.11,0.27,3.1,0.35,4.41-2.46
		c0.1-0.22,0.22-0.43,0.28-0.66c1.24-4.93,5.59-5.48,9.41-4.58c2.69,0.64,5.04,1.99,6.56,4.38c2.09,3.29,1.52,6.45-1.61,10.11
		c-0.3,0.35-0.81,0.54-0.87,1.27c5.19,0.95,7.72,5.23,10.65,8.92c2.14,2.69,4.79,4.62,7.54,6.53c2.74,1.9,3.67,4.33,2.77,6.74
		c-0.25,0.67-0.55,1.35-1.11,1.82c-4.68,3.97-9.72,7.17-16.1,7.45c-1.04,0.04-1.62,0.05-1.31,1.5c0.75,3.43-0.29,6.62-1.89,9.66
		c-0.22,0.42-0.73,0.95-0.62,1.25c1.19,3.34-1.37,5.63-2.31,8.35c-0.54,1.56-1.25,2.78,0.2,4.32c1,1.07,0.63,2.63,0,3.92
		c-0.3,0.62-0.46,1.13-0.28,1.84c0.54,2.05,0.8,4.12,0,6.18c-0.14,0.37-0.15,0.6,0.2,0.92c2.06,1.88,2,4.35,1.73,6.81
		c-0.08,0.77-0.06,1.27,0.52,1.9c1.78,1.95,1.48,4.29-0.63,5.88c-0.57,0.43-1.15,0.86-1.81,1.35c2.5,1.9,2.83,4.42,2.3,7.26
		c-0.27,1.44-0.27,2.75,0.94,4.09c1.38,1.53,1.49,3.71,1.33,5.78c-0.04,0.5-0.34,0.91,0.05,1.5c1.89,2.86,1.86,2.95,0.91,6.48
		c2.85,0.03,4.09,1.03,4.54,3.83c0.15,0.92,0.44,1.3,1.42,1.41c3.64,0.4,4.8,2.05,3.99,5.69c1.84,0.05,4.01-0.1,5.12,1.42
		c1.6,2.19,3.34,2.01,5.62,1.63c2.7-0.44,5.48-0.13,8.19,0.56c1.27,0.32,2.47,0.65,3.02,1.95c0.35,0.82,0.74,0.31,1.11,0.13
		c1.8-0.9,3.46-0.67,5.03,0.55c0.33,0.26,0.62,0.8,1.2,0.35c2.45-1.85,4.84-1.03,7.23,0.17c0.56,0.28,1.04,0.65,1.82,0.36
		c3.4-1.27,6.47-0.29,9.31,1.65c0.87,0.59,1.68,0.89,2.79,0.88c1.93-0.01,3.89,0.26,4.83,2.4c0.39,0.89,1.26,0.91,1.99,0.89
		c2.57-0.09,4.24,1.02,4.98,3.48c0.17,0.57,0.37,0.97,1.08,0.93c3-0.18,4.57,1.69,5.71,4.1c0.36,0.76,0.58,1.32,1.75,1.21
		c1.4-0.13,2.64,0.73,3.53,1.86c0.55,0.7,1.24,1.47,1.37,2.28c0.74,4.75,3.53,8.6,5.39,12.85c2.98,6.82,5.37,13.85,7.61,20.98
		c2.05,6.52,4.26,13.03,6.59,19.48c1.36,3.77,3.53,7.17,5.96,10.35c0.89,1.16,2.4,1.51,3.71,2.08c3.79,1.65,7.42,3.61,10.6,6.28
		c3.64,3.06,5.53,6.99,5.4,11.8c-0.14,5.2-0.61,10.3-4.09,14.57c-1.09,1.34-2.46,2.13-4.21,1.87c-1.82-0.27-2.78-1.48-3.16-3.23
		c-0.14-0.64-0.35-1.26-0.57-2.03c-1.37,0.68-2.76,1.08-4.23,0.37c-1.34-0.65-2.4-1.64-3.17-2.85c-0.79-1.23-1.34-1.25-2.6-0.45
		c-2.12,1.35-4.49,2.27-7.14,1.56c-2.41-0.65-3.51-2.33-2.78-4.72c1.57-5.16,1.16-10.28-0.04-15.42c-0.11-0.48-0.2-0.93-0.61-1.25
		c-4.64-3.62-5.57-9.14-7.31-14.25c-0.46-1.34-0.79-2.72-1.47-4.05c0,0.61,0.01,1.22,0,1.82c-0.08,3.95-0.05,7.91-0.26,11.87
		c-0.36,6.94-0.22,13.8,1.95,20.61c2.5,7.85,4.57,15.85,7.27,23.64c2.6,7.49,5.42,14.91,8.26,22.32c1.54,4.03,1.25,8.34,2.23,12.43
		c0.92,3.84-0.75,6.21-4.02,7.78c-2.03,0.97-3.56,2.74-5.91,3.27c-2.42,0.54-4.61,0.27-6.79-0.76c-1.83-0.86-3.6-1.87-5.5-2.61
		c-1.84-0.71-2.85-3.25-2.46-5.28c0.66-3.39,2.15-6.61,2.04-10.17c-0.02-0.67,0.01-1.32-0.28-1.9c-4-8.07-7.01-16.57-10.55-24.84
		c-2.21-5.15-4.19-10.38-5.97-15.71c-1.09-3.25-1.72-6.66-3.19-9.77c-2.38,13.72-6.47,26.99-10.39,40.31
		c-1.19,4.05-1.34,8.24-2.07,12.35c-0.48,2.67-0.62,5.38-0.32,8.04c0.5,4.31-2.81,7.56-5.88,8.74c-5.32,2.03-10.72,1.45-15.98-0.34
		c-1.57-0.54-2.47-1.99-2.68-3.76c-0.28-2.32,0-4.58,0.86-6.71c1.7-4.23,2.71-8.65,3.8-13.05c1.14-4.59,3.05-8.92,4.56-13.38
		c2.28-6.74,4.21-13.56,5.22-20.63c0.58-4.07,1.4-8.12,2.23-12.15c0.51-2.45,0.39-4.72-0.42-7.15c-2.81-8.44-5.37-16.97-8.03-25.46
		c-0.04-0.11-0.06-0.23-0.11-0.34c-0.91-2.48-0.9-2.44-3.43-2.02c-3.7,0.62-7.41,1.26-11.14,1.71c-1.08,0.13-1.1,0.53-1.04,1.33
		c0.69,8.44,0.29,16.9,0.23,25.35c-0.05,7.36-0.63,14.72-0.57,22.08c0.04,4.58,0.84,9.15,1.28,13.72c0.19,1.96,0.33,3.95,0.38,5.9
		c0.26,10,0.65,20,0.89,30c0.11,4.48,1.03,8.95,2,13.4c1.26,5.78,0.07,8.66-6.02,11.28c-5,2.14-10.17,2.96-15.55,1.46
		c-1.22-0.34-2.33-0.87-2.54-2.22c-0.29-1.83-1.52-2.89-2.87-3.89c-2.15-1.6-2.73-3.91-1.24-6.11c1.52-2.25,2.64-4.68,3.6-7.17
		c0.57-1.47,0.33-3.18,0.47-4.78c0.22-2.56,0.24-5.17,0.01-7.73c-0.47-5.28-1.15-10.54-1.78-15.81c-0.87-7.23-1.92-14.44-3.57-21.55
		c-2.56-11-3.86-22.24-6.46-33.23C78.44,244.97,77.92,242.89,77.37,240.66z"/>
	<path class="st1" d="M84.03,51.94c-0.03,0.84-0.07,1.68-0.09,2.52c-0.03,1.41-0.19,2.77-1.64,3.43c0.21,0.64,0.68,0.58,0.94,0.49
		c2.01-0.72,1.98,0.48,1.83,1.87c-0.3,2.79-1.61,5.1-3.43,7.16c-0.47,0.53-0.97,1.02-1.45,1.53c0.74,0.85,1.71,0.37,2.57,0.81
		c-0.51,1.08-0.97,2.18-1.53,3.22c-1.34,2.5-1.91,5.23-2.6,7.94c-0.32,1.25,0.49,1.16,1.15,1.21c1.21,0.09,1.13,0.6,0.55,1.36
		c-0.29,0.38-0.53,0.8-0.84,1.16c-0.66,0.77-0.97,1.23,0.23,2c1.32,0.84,0.81,3.51-0.52,4.33c-1,0.61-0.65,1.84-0.91,2.78
		c-0.18,0.64,0.14,1.15,0.79,1.43c1.49,0.65,3.27,0.97,3.1,3.29c-0.12,1.72-0.38,3.32-1.56,4.66c-0.06,0.07-0.03,0.22-0.06,0.43
		c0.98,0.29,2.54,0.18,2.76,1.17c0.2,0.94-1.41,1.2-2.07,1.95c-0.95,1.07-2.1,1.95-2.74,3.3c-0.42,0.88-0.21,1.35,0.67,1.62
		c0.23,0.07,0.46,0.13,0.68,0.22c2.82,1.12,2.94,1.58,2.54,4.57c-0.35,2.61-0.46,5.22-1.52,7.69c-0.39,0.92,0.29,0.97,0.99,0.74
		c1.02-0.33,1.32-1.32,2.06-2.29c0.88,1.96,1.18,3.75,0.06,5.48c-0.68,1.05-0.72,1.52,0.59,2c1.81,0.67,2,1.3,1.16,3.02
		c-0.71,1.45-1.43,2.85-1.6,4.53c-0.11,1.09,0.26,1.39,1.23,1.45c1.58,0.1,3.1-0.04,4.52-0.89c0.59,1.26,0.66,2.5,0.58,3.75
		c-0.06,1.03,0.19,1.56,1.38,1.49c1.25-0.08,2.93-0.57,3.64,0.21c0.69,0.76-0.85,2.01-0.93,3.19c-0.09,1.23-0.7,2.81,0.23,3.59
		c0.96,0.81,2.4,0.01,3.55-0.52c2.95-1.35,4.23-0.8,5.12,2.36c0.31,1.12,0.81,1.49,1.93,1.03c3.6-1.5,7.33-1.49,11.11-0.88
		c1.35,0.22,1.62,0.6,0.62,1.62c-0.33,0.34-0.82,0.7-0.64,1.21c0.23,0.67,0.92,0.4,1.42,0.41c1.97,0.06,3.94,0.18,5.71-1.06
		c1.21-0.85,2.03,0.26,2.48,1.02c0.84,1.4,1.69,1.22,2.78,0.51c0.45-0.29,0.99-0.49,1.36-0.86c0.82-0.81,1.67-0.81,2.62-0.32
		c0.69,0.35,1.5,0.57,2.07,1.07c1.37,1.18,2.46,1.39,3.99,0.02c1.28-1.14,5.56,0.12,6.77,1.99c0.66,1.01,1.28,0.97,2.17,0.9
		c1.05-0.09,2.13-0.42,3.24,0.21c-0.99,1.17-0.26,1.62,0.84,1.87c1.63,0.37,3.15,1.12,4.87,1.17c1.42,0.04,1.44,1.42,1.58,2.25
		c0.3,1.74,1.12,2.38,2.79,2.07c2.08-0.39,3.27,0.59,3.96,2.46c0.46,1.23,1.15,2.38,1.56,3.63c0.37,1.12,0.74,0.96,1.46,0.32
		c1.73-1.54,2.29-1.38,3.33,0.73c0.86,1.75,0.79,3.6,0.69,5.46c-0.84,0.19-1.17-0.55-1.69-0.93c-0.56-0.57-1.14-1.13-1.75-1.66
		c-12.73-10.67-27.62-16.11-43.92-18.17c-5.12-0.65-10.28-0.71-15.42-1.03c-1.47-0.09-2.48-1.09-3.83-1.42
		c-4.42-1.08-8.85-2.19-13.14-3.74c-0.96-0.35-1.9-0.73-2.82-1.18c-4.22-2.07-7.08-4.92-8.12-9.93c-2.05-9.93-3.89-19.89-5.11-29.95
		c-1.04-8.59-0.99-17.24-0.77-25.87c0.27-10.52,1.91-20.88,4.12-31.15c0.46-2.15,0.82-2.42,3.21-2.53
		C83.34,51.48,83.75,51.56,84.03,51.94z"/>
	<path class="st2" d="M82.89,51.91c-1.64-0.21-2.45,0.36-2.74,2.15c-1.02,6.22-2.32,12.38-3.08,18.65c-1.17,9.65-1.2,19.34-0.91,29
		c0.16,5.32,0.79,10.66,1.63,15.97c1.25,7.88,2.71,15.7,4.29,23.52c0.9,4.45,3.42,6.98,7.11,8.9c3.8,1.97,7.95,2.9,12.03,4.03
		c2.01,0.56,4.25,0.72,6.02,1.58c3.52,1.7,7.11,1.05,10.68,1.3c10.23,0.72,20.13,2.74,29.77,6.39c7.5,2.83,14.09,7.01,20.41,11.76
		c0.47,0.35,0.82,0.86,1.22,1.29c0.3,0.67,0.88,1.05,1.45,1.44c0.47,0.36,0.94,0.72,1.41,1.08c0.38,0.45,0.76,0.89,1.14,1.34
		c0.55,1.94,0.83,3.94,1.1,5.94c0.09,0.66,0.22,1.59-0.72,1.75c-0.79,0.13-1.26-0.52-1.57-1.22c-0.41-0.94-0.47-1.96-0.7-2.94
		c-0.15-0.65-0.27-1.28-0.74-1.78c-1.39-1.28-2.82-2.52-4.19-3.82c-1.65-1.81-3.95-2.8-5.72-4.47c-1.4-1.43-3.42-1.77-5-2.88
		c-1.75-1.48-3.72-2.55-5.93-3.15c-4.6-1.75-9.32-3.07-14.02-4.5c-4.64-1.4-9.31-2.2-14.07-2.64c-3.27-0.3-6.56-0.19-9.84-0.53
		c-3.79-0.4-7.46-1.1-10.83-2.96c-1-0.56-2.1-0.88-3.2-1.16c-3.26-0.82-6.33-2.14-9.42-3.43c-1.07-0.45-1.94-1.16-2.77-1.95
		c-1.56-1.38-3.27-2.59-4.57-4.26c-0.72-1.21-1.12-2.59-1.98-3.72c-1-3.68-1.99-7.36-2.66-11.12c-0.42-2.41-0.89-4.81-1.26-7.23
		c0.14-1.35-0.27-2.64-0.42-3.96c-0.88-4.24-1.37-8.51-1.42-12.84c0.09-0.85,0.02-1.68-0.23-2.5c-0.8-9.13-0.39-18.24,0.37-27.35
		c1.45-3.35,0.83-6.97,1.34-10.44c0.48-4.17,1.37-8.27,2.42-12.33c0.43-1.67,1-3.33,0.28-5.09c-0.35-0.87,0.28-1.05,0.96-0.99
		c0.84,0.07,1.6,0.55,2.43,0.64c4.36,0.48,8.71,0.59,12.97-0.79c2.31-0.75,4.23-2.24,6.37-3.28c0.14-0.07,0.38-0.14,0.28-0.33
		c-0.12-0.24-0.42-0.18-0.65-0.16c-5.98,0.48-11.91-0.26-17.85-0.73c-4.82-0.57-8.03-3.36-10.26-7.49c-0.4-0.64-0.76-1.3-0.84-2.08
		c-0.1-1.54-0.18-3.08,1.36-4.06c0.67-0.41,1.23-0.94,1.7-1.56c1-0.72,1.5-1.72,1.98-2.86c1.07-2.57,2.95-4.61,4.91-6.54
		c0.55-0.54,1.17-1.02,1.66-1.62c0.18-2.01-2.11-3.86-4.13-3.33c-1.46,2.25-2.25,4.82-3.44,7.2c-0.65,1.3-1.48,2.28-3.08,2.24
		c-0.67-0.45-0.31-0.88,0.06-1.25c0.44-0.45,0.87-0.91,1.21-1.44c0.96-2.37,1.94-4.73,2.89-7.11c0.97-2.44,2.61-3.31,5.1-2.49
		c1.31,0.43,2.52,1.14,3.5,2.14c1.76,1.8,1.52,3.61-0.34,5.35c-1.83,1.7-3.68,3.44-4.99,5.61c-0.68,1.13-0.37,2.21,1.02,2.15
		c5.69-0.26,9.39,2.82,12.54,7.04c1.35,1.81,2.89,3.49,4.35,5.22c0.76,0.38,1.12,1.29,2.01,1.49c1.52,0.64,2.58,1.9,3.85,2.87
		c0.85,0.65,0.43,1.27-0.14,1.78c-4.46,4.07-9.52,6.74-15.76,6.52C85.76,51.63,84.32,51.58,82.89,51.91z"/>
	<path class="st3" d="M55.58,252.46c-0.12-1.82-0.23-3.64-0.35-5.46c0.19-2.02,0.24-4.05-0.03-6.07c-0.52-2.97-0.46-5.96-0.38-8.95
		c0.17-6.2-0.88-12.22-2-18.3c-1.59-8.68-3.2-17.37-4.17-26.15c-0.37-3.33-0.86-6.64-0.63-10c0.24-3.1,0.19-6.19,0.02-9.29
		c0.07-8.69-1.03-17.35-0.7-26.04c0.36-9.41,0-18.82,0.38-28.22c0.31-7.6-0.09-15.22,0.62-22.8c0.25-2.67,0.82-5.31,1.15-7.98
		c0.56-4.4,0.63-8.83,0.73-13.25c0.01-0.6-0.2-0.68-0.69-0.74c-1.96-0.23-3.91-0.54-5.87-0.75c-1.19-0.13-2.36-0.05-3.51,0.5
		c-1.43,0.68-3.05,0.52-4.59,0.72c-3.11,0.4-6,1.54-8.92,2.61c-4.9,1.8-9.29,0.56-13.23-2.55c-1.36-1.07-2.54-2.38-3.69-3.68
		c-3.29-3.74-3.27-8.92-0.56-13.08c1.71-2.63,4.23-3.55,6.81-4.61c4.75-1.96,9.45-4.05,13.95-6.54c0.91-0.02,1.92-1.08,2.69,0.27
		c0.04,0.17,0.04,0.35,0,0.52c-0.18,0.41-0.49,0.73-0.79,1.05c-1.01,1.08-2.33,1.65-3.66,2.19c-4.43,1.8-8.66,4.06-13.13,5.77
		c-4.43,2.24-6.2,5.82-5.04,10.5c0.35,1.41,1.53,2.38,2.58,3.34c0.7,0.65,1.55,1.13,2.19,1.84c1.34,0.57,2.08,1.92,3.38,2.56
		c3.07,1.41,6.03,1.15,8.87-0.62c2.23-1.39,4.7-1.98,7.27-2.27c6.11-0.87,12.25-0.5,18.37-0.29c1.72,0.06,3.43,0.38,5.13-0.14
		c2.28-1.12,4.62-2.12,6.82-3.4c1.27-0.42,2.39-1.05,3.2-2.16c1.5-1.52,2.47-3.51,4.28-4.76c0.7-0.18,1.5-0.59,1.65,0.65
		c-0.12,0.66-0.47,1.23-0.68,1.86c-1.1,3.21-3.55,5.19-6.32,6.83c-2.68,1.58-5.62,2.66-8.42,4.03c-1.29,0.64-2.69,0.54-4.06,0.34
		c-1.01-0.15-1.51,0.23-1.46,1.24c0.32,6.01-1.03,11.91-1.1,17.89c-0.02,1.38-0.47,2.71-0.42,4.1c-0.02,0.2-0.05,0.4-0.1,0.59
		c-0.31,0.87-0.19,1.77-0.2,2.67c0.1,2-0.24,4.01,0.26,5.99c0.01,2.87-0.23,5.73-0.36,8.59c-0.55,3.57-0.11,7.16-0.24,10.74
		c-0.01,1.69-0.01,3.38,0,5.07c0.09,3.89-0.22,7.78,0.18,11.66c0.11,0.72,0.24,1.44-0.37,2.03c-0.6,0.64-0.15,1.39-0.16,2.07
		c-0.04,5-0.02,10-0.03,15c0,0.84,0,1.67,0.27,2.47c0.34,4.29-0.04,8.57,0.09,12.86c0.03,0.89-0.08,1.79,0.2,2.66
		c0.09,0.32,0.14,0.66,0.15,0.99c-0.01,8.91,1.6,17.62,3.08,26.35c1.03,6.08,2.02,12.17,2.95,18.25c0.92,6.07,1.01,12.28,0.83,18.45
		c-0.19,7.07,0.32,14.13,0.47,21.19c0.09,4.36,0.14,8.74,0.23,13.1c0.03,1.38,0.53,2.71,0.36,4.11c-0.1,0.82-0.02,1.76-1.23,1.81
		c-1-0.78-0.64-1.97-0.87-2.98c-0.12-0.54,0.24-1.15-0.22-1.66c-0.4-0.45-0.32-0.99-0.27-1.53c0.14-1.43,0.32-2.87-0.09-4.29
		c-0.44-0.56-0.29-1.21-0.26-1.84c0.19-1.78,0.23-3.57-0.04-5.35c-0.05-1.1-0.52-2.16-0.33-3.29
		C55.79,256.73,55.81,254.59,55.58,252.46z"/>
	<path class="st1" d="M196.63,237.7c1.31,1.74,3.13,2.72,5.13,3.42c3.48,1.22,6.64,3.12,9.65,5.15c3.46,2.33,5.31,5.73,5.05,10.1
		c-0.24,4.07-0.3,8.17-3.03,11.58c-0.29,0.36-0.43,0.99-1.01,0.87c-0.46-0.1-0.4-0.69-0.52-1.05c-0.43-1.24-0.79-2.51-1.15-3.77
		c-0.25-0.89-0.65-1.7-1.29-2.34c-1.54-1.56-2.9-1.18-3.47,0.92c-0.15,0.56-0.09,1.41-0.62,1.56c-0.69,0.2-1.08-0.63-1.5-1.09
		c-1.56-1.7-2.78-3.59-3.06-6.52c-0.79,0.99-1.27,1.61-1.77,2.21c-1.69,2.07-3.75,3.49-6.48,3.78c-0.87,0.09-1.21-0.15-0.91-1.09
		c1.91-5.93,1.04-11.81-0.39-17.67c-0.17-0.67-0.5-1.17-1.02-1.63c-0.62-0.55-1.34-1.04-1.58-1.91c0.89,0.28,1.3-0.41,1.83-0.89
		c1.28,0.19,2.45-0.01,3.42-0.95C194.7,237.68,195.64,237.59,196.63,237.7z"/>
	<path class="st2" d="M94.4,315.06c-1.21-8.74-2.29-17.51-3.66-26.23c-0.84-5.3-2.12-10.52-3.22-15.78
		c-1.7-8.11-2.81-16.34-4.62-24.43c-1.58-7.05-3.48-14.02-5.24-21.02c-0.15-0.61,0.03-1.34-0.59-1.94
		c-1.08,4.17-2.1,8.28-3.21,12.37c-0.93,3.43-1.26,6.93-1.62,10.45c-0.52,5.06-1.62,10.02-2.66,14.99
		c-0.95,4.56-0.68,9.18-0.74,13.79c-0.3,1.65-0.29,3.3,0.03,4.94c0.18,0.95,0.5,2.45,0.07,2.72c-0.8,0.51-0.17,1.5-0.97,1.76
		c-1.21-1.25-0.99-2.91-1.05-4.38c-0.32-8.97,0.16-17.89,1.94-26.72c0.36-1.81,0.54-3.65,0.66-5.5c0.95-8.83,2.72-17.53,3.82-26.34
		c0.11-0.89,0.27-1.78,0.65-2.6c0.27-0.51,0.84-1,0.09-1.57c-0.25-0.19-0.53-0.34-0.81-0.48c-3.1-1.74-6.03-3.73-8.67-6.12
		c-0.87-0.89-1.82-1.75-1.9-3.12c-0.04-0.67-0.01-1.35,0.64-1.74c0.72-0.44,1.29,0.02,1.72,0.5c2.73,3.04,6.37,4.97,9.36,7.68
		c0.3,0.16,0.65,0.48,0.92,0.04c0.29-0.49-0.15-0.88-0.35-1.29c-0.28-0.45-0.42-0.93-0.45-1.46c-0.03-0.59,0-1.19-0.19-1.77
		c-0.05-0.17-0.07-0.34-0.09-0.52c0.03-0.4-0.01-0.9,0.48-0.99c0.51-0.09,0.57,0.46,0.77,0.78c0.07,0.16,0.12,0.33,0.16,0.5
		c0.11,0.95,0.35,1.87,0.74,2.75c1.75,4.03,3.91,7.89,4.7,12.29c0.11,0.64,0.4,1.25,0.29,1.92c-0.35,1.14,0.16,2.15,0.48,3.19
		c3.28,11.24,5.73,22.67,7.46,34.23c0.77,5.17,2.02,10.22,3.09,15.32c1.93,9.22,3.05,18.56,4.27,27.89
		c0.05,1.11-0.14,2.24,0.24,3.34c0.06,0.21,0.09,0.42,0.1,0.63c0.13,3.13-0.25,6.22-0.64,9.31c-1.1,0.38-0.91-0.59-1.06-1.08
		C94.71,319.34,94.79,317.17,94.4,315.06z"/>
	<path class="st2" d="M149.85,211.38c-0.51,0.05-0.67,0.29-0.64,0.83c0.31,5.71,0.75,11.41,0.66,17.13
		c0.35,2.32,0.07,4.65,0.15,6.97c0.01,0.22,0.05,0.5-0.25,0.61c-0.34,0.12-0.56-0.1-0.76-0.32c-0.46-0.47-0.41-1.09-0.48-1.68
		c-0.38-3.44-0.61-6.9-1.1-10.33c0-0.24-0.04,0.07-0.03-0.17c0.04-0.99,0.04-0.99-0.43-0.81c-0.86-1.64-0.48-3.48-0.85-5.2
		c0.03-1.52-0.79-3.06,0.1-4.59c-0.33,0.15-0.32,0.68-0.78,0.65c-3.32-0.2-6.02,1.85-9.12,2.5c-1.4,0.3-2.76,0.82-4.15,1.18
		c-1.08,0.28-1.28,0.83-0.97,1.84c0.99,3.15,1.81,6.34,2.83,9.48c1.75,5.36,3.47,10.72,5.04,16.14c0.88,2.49,1.35,5.1,2.18,7.61
		c0.46,1.39,0.35,2.79,0.05,4.25c-1.16,5.76-2.27,11.52-3.55,17.26c-1.28,5.76-3.65,11.16-5.42,16.76
		c-0.11,0.35-0.32,0.64-0.61,0.87c-0.18,0.12-0.37,0.13-0.56,0.02c1.85-5.94,3.69-11.87,4.86-18c0.77-4,0.63-8.1,1.56-12.07
		c0.47-2.03,0.94-4.07,1.29-6.13c0.27-1.55,0.1-3.02-0.4-4.41c-2.56-7.09-4.5-14.38-6.85-21.54c-0.84-2.55-1.34-5.21-1.88-7.84
		c-0.26-1.29-0.67-2.4-1.85-3.1c-0.94-0.46-1.9-0.16-2.85-0.04c-3.08,0.72-6.17,1.35-9.34,1.5c-3.07,0.39-6.14,0.47-9.29-0.28
		c1,2.85,0.18,4.23-2.05,3.84c-0.4-0.59-0.42-1.3-0.61-1.95c-0.15-1.11-0.18-2.23,0-3.34c0.52-1.32-0.13-2.85,0.73-4.12
		c0.39-0.42,0.72-1.19,1.35-0.94c0.73,0.28,0.54,1.23,0.81,1.87c0.1,0.41,0.16,0.82,0.2,1.24c0.12,1.25,0.8,1.76,2.04,1.72
		c2.46-0.07,4.89-0.46,7.31-0.85c4.31-0.7,8.62-1.35,12.99-1.74c3.54-0.31,6.76-1.99,10.15-3c0.34-0.1,0.68-0.24,1.02-0.34
		c2.71-0.58,5.25-1.72,7.96-2.28c0.5-0.04,0.99-0.03,1.43,0.26C149.92,211.01,149.95,211.18,149.85,211.38z"/>
	<path class="st2" d="M179.36,312.54c0.07-0.89-0.05-1.8,0.25-2.68c0.23-0.68,0.03-1.37-0.41-1.86c-2.53-2.86-3.6-6.49-5.05-9.86
		c-3.54-8.24-6.8-16.61-10.19-24.91c-0.64-1.56-1.01-3.18-1.34-4.82c-0.56-2.75-1.86-5.27-2.68-7.95
		c-2.25-7.39-3.73-14.98-5.8-22.41c-1.49-5.35-1.85-10.8-2.51-16.24c-0.39-3.2-0.73-6.41-1.09-9.61c-0.2-0.36-0.31-0.75-0.34-1.17
		c-0.09-1.08,0.26-2.11,0.39-3.17c0.05-0.42,0.35-0.8,0.84-0.78c0.43,0.02,0.53,0.42,0.63,0.75c0.37,1.25,0.69,2.52,1.03,3.78
		c0.33,0.85,0.5,1.74,0.5,2.66c0.35,1.67,0.33,3.38,0.68,5.05c0.8,7.29,2.24,14.48,3.61,21.68c0.13,1.05,0.33,2.08,0.58,3.11
		c1.38,5.14,2.79,10.29,4.01,15.47c2.38,10.11,7.31,19.2,11.12,28.74c2.46,6.17,5.15,12.25,7.34,18.53
		c0.17,2.21-0.16,4.41-0.06,6.63c0.03,0.6-0.24,1.15-0.89,1.39C178.51,314.43,179.32,313.38,179.36,312.54z"/>
	<path class="st4" d="M104.54,224.35c2.27-0.55,2.66-1.65,1.07-4.32c3.55,0.49,6.81,0.94,10.09,0.74c-2.3,0.69-4.71,0.62-7.06,0.93
		c-1.63,0.22-1.77,0.94-1.67,2.24c0.63,8.14,0.58,16.3,0.3,24.44c-0.24,7.3,0.05,14.63-0.63,21.91c-0.39,4.22,0.67,8.31,0.83,12.48
		c0.14,3.82,0.69,7.62,0.9,11.44c0.24,4.31,0.32,8.62,0.43,12.93c0.15,6.11,0.26,12.22,0.39,18.33c0.27,2.15,0.31,4.32,0.37,6.48
		c0.02,0.65-0.19,1.28-0.6,1.82c-0.85,0.58-1.54,0.28-2.16-0.41c-0.42-0.84-0.27-1.75-0.29-2.64c-0.11-4.3,0.21-8.6-0.18-12.89
		c-0.28-1.02-0.03-2.11-0.4-3.13c-0.16-0.82-0.17-1.65-0.01-2.47c0.38-1.66,0.33-3.33,0.04-5c-0.09-0.4-0.14-0.8-0.16-1.2
		c0-0.51-0.01-1.02-0.01-1.54c-0.06-1.45,0.19-2.92-0.26-4.34c-0.09-4.88-0.43-9.75-0.73-14.63c0.24-0.89,0.42-1.79-0.06-2.67
		c-0.72-1.59-0.41-3.32-0.55-4.97c-0.3-3.37-1.15-6.77-0.14-10.17c0.09-0.29,0.19-0.57,0.33-0.83c0.2-0.31,0.31-0.65,0.31-1.02
		c-0.02-4.9,0.17-9.8-0.1-14.7c-0.03-0.22-0.04-0.44-0.01-0.66c0.31-2.85,0.07-5.72,0.13-8.58c0.01-3.15,0-6.31,0.01-9.46
		c0-0.66-0.04-1.31-0.24-1.94c-0.2-1.4-0.54-2.79-0.5-4.22C103.98,225.61,103.91,224.87,104.54,224.35z"/>
	<path class="st5" d="M107.03,333.4c0.59,0.13,1.19,0.25,1.78,0.38c0.52,0.02,1.02-0.06,1.46-0.37c0.71,2.56,1.45,5.1,1.07,7.82
		c-0.14,1.03-0.7,1.64-1.5,2.08c-3,1.65-6.11,2.72-9.58,3.23c-2.91,0.43-4.62-0.57-6.29-2.54c-0.73-0.87-1.51-1.74-2.42-2.39
		c-1.66-1.18-1.63-2.49-0.51-3.92c1.38-1.75,1.59-4.03,2.87-5.87c0.68-0.98-0.22-2.58,0.47-3.8c0.73,0.72,0.47,1.66,0.53,2.52
		c0.07,0.94,0.45,1.44,1.45,1.28c3.03,0.03,6.06-0.03,9,0.82C105.94,332.85,106.54,333,107.03,333.4z"/>
	<path class="st1" d="M73.17,21.32c0.6,1.46-1.47,1.39-1.45,2.52c0.01,0.24-0.07,0.45-0.2,0.65c-0.35,0.43-0.82,0.73-1.18,1.14
		c-0.93,0.84-1.67,1.97-3.09,2.07c-1.03-0.13-0.88-1.09-1.21-1.71c-0.83-0.56-1.24,0.3-1.8,0.57c-0.89,0.42-1.68,1.03-2.55,1.51
		c-0.94,0.42-1.76,1.05-2.65,1.54c-1.42,0.75-2.9,1.4-4.44,1.86c-0.57,0.17-1.15,0.33-1.75,0.32c-0.47-0.01-1.04,0.03-1.22-0.52
		c-0.16-0.48,0.32-0.72,0.63-0.98c0.96-0.8,2.03-1.46,3.31-2.47c-2.49,0.44-4.66,0.64-6.82,0.1c-0.64-0.16-1.32-0.2-1.61-0.93
		c-0.08-0.78,0.42-1.28,0.89-1.78c0.24-0.25,0.32-0.48-0.15-0.53c-0.51-0.06-1.03,0.16-1.54-0.01c-1.17-0.52-2.46-0.59-3.68-0.9
		c-0.34-0.11-0.67-0.25-1-0.38c-0.58-0.27-1.23-0.46-1.31-1.25c0.54-0.56,1.29-0.04,1.84-0.43c3.03-0.78,6.1-1.39,9.49-1.79
		c-1.16-1.64-2.22-3.03-2.48-4.79c-0.08-0.53-0.32-1.17,0.24-1.46c0.52-0.27,0.79,0.39,1.08,0.71c1.2,1.3,2.72,2.11,4.25,2.93
		c0.62-0.02,1.13,0.33,1.69,0.52c1.62,0.5,3,1.74,4.83,1.59c0.61,0,1.22-0.05,1.83,0.07c2.17,0.19,4.34-0.1,6.53,0.33
		C70.99,20.06,71.91,21.04,73.17,21.32z"/>
	<path class="st6" d="M139.02,313.97c0.01,1.8,0.01,3.6,0.02,5.4c0,2.97-1.16,4.75-3.96,5.72c-3.94,1.36-7.9,0.81-11.83-0.14
		c-1.02-0.25-1.49-1.02-1.51-2.16c-0.05-2.16,0.69-4.11,1.37-6.09c0.48-1.4,1.01-2.78,1.51-4.17c1,0.25,2.02,0.42,3.03,0.64
		c0.27,0.04,0.53,0.1,0.8,0.17c1.7,0.57,3.51,0.51,5.24,0.91c0.88,0.19,1.77,0.38,2.68,0.34
		C137.34,314.76,138.25,314.65,139.02,313.97z"/>
	<path class="st5" d="M179.36,312.54c0.38,0.67-0.69,1.83,0.74,2.14c1.24-0.78,2.62-0.39,3.94-0.48c0.75-0.05,1.52,0.06,2.26-0.17
		c1.67-0.29,3.28-0.87,4.96-1.1c0.78,0.25,1.43-0.28,2.15-0.39c0.41,2.71,0.9,5.4,0.76,8.17c-0.05,1.1-0.36,1.73-1.35,2.24
		c-1.7,0.87-3.31,1.91-4.96,2.89c-1.38,0.82-2.72,1-4.24,0.2c-1.85-0.97-3.66-2.07-5.7-2.62c-1-0.27-1.23-0.93-1.02-1.77
		C177.69,318.6,178.54,315.58,179.36,312.54z"/>
	<path class="st5" d="M75.36,327.28c1.48,2.57-0.4,4.67-1.01,6.93c-0.2,0.74-0.66,1.41-1.01,2.1c-1.26,2.52-2.56,3-5.37,2.69
		c-3.26-0.36-6.51-0.69-9.74-1.25c-1.19-0.21-2.31-0.61-3.4-1.09c-0.56-0.25-0.94-0.64-0.38-1.23c0.94-0.99,1.81-2.32,3.3-2.26
		c2.49,0.1,3.13-1.99,4.08-3.42c0.63-0.94,1.68-2.09,1.28-3.55c0.81,0.29,1.31,1.31,2.38,0.97c1.37-0.02,2.68,0.33,4.03,0.49
		C71.5,327.96,73.47,328.27,75.36,327.28z"/>
	<path class="st7" d="M196.63,237.7c-0.8,0.5-1.85,0.35-2.59,1.01c-0.18-0.79-0.08-1.62-0.72-2.32c-2.42-2.68-3.76-5.98-4.9-9.31
		c-3.14-9.16-6.54-18.24-9.23-27.55c-0.61-2.13-1.09-4.29-1.94-6.34c-0.78-2.16-1.74-4.26-2.52-6.42c0.01-0.39-0.21-0.79-0.08-1.04
		c-0.2,0.68,0.21,1.41,0.38,2.17c0.14,0.91,0.28,1.81,0.3,2.73c-0.4,0.6-0.65,1.15-0.51,1.97c0.33,1.9,0.75,3.84,0.01,5.75
		c-0.99,0.25-0.98-0.6-1.17-1.13c-0.28-0.79-0.15-1.66-0.35-2.48c-0.18,3.56,0.42,7.07,0.77,10.6c0.04,0.19,0.06,0.39,0.08,0.58
		c-0.35,3.97,0.42,7.89,0.48,11.84c-0.38,1.65-0.14,3.3,0.03,4.94c0.27,4.72,0.17,9.45,0.17,14.17c0,0.53,0.13,1.08-0.15,1.59
		c0.04,0.1,0.04,0.2,0,0.3c-0.39,0.54-0.2,1.16-0.19,1.73c0.1,5.41-0.28,10.83,0.32,16.24c0.16,1.46,0.16,2.97-0.25,4.44
		c-0.11,0.23-0.29,0.33-0.55,0.3c-0.99-0.76-0.91-1.88-0.99-2.95c-0.18-2.64,0.31-5.26,0.33-7.9c0.05-7.08,0.26-14.16-0.05-21.22
		c-0.3-6.88-0.25-13.77-0.87-20.65c-0.45-5.06-0.73-10.15-0.92-15.24c-0.14-3.58-0.18-7.2-0.96-10.73
		c-0.09-0.41-0.16-0.83,0.07-1.22c1.55,0.75,1.05,2.37,1.48,3.58c0.34,0.96,0.2,2.66,1.41,2.46c1.02-0.17,0.15-1.66,0.13-2.58
		c-0.04-1.57-0.81-3.07-0.38-4.66c2.48,4.08,4.72,8.28,6.1,12.87c3.46,11.45,7.85,22.58,11.8,33.87
		C192.5,230.82,194.39,234.37,196.63,237.7z"/>
	<path class="st8" d="M147.7,224.34c0.67,1.49,0.6,3.11,0.7,4.68c0.13,2.24,0.74,4.44,0.59,6.72c-0.02,0.34,0.12,0.84,0.88,0.91
		c0-2.46,0-4.88,0-7.31c0.39,0.46,0.28,1.02,0.29,1.55c0.14,5.8,0.33,11.6,0.38,17.4c0.02,3.01,0.8,5.9,1.03,8.86
		c0.35,4.67-1.19,9.08-2.35,13.52c-1.52,5.82-2.87,11.69-4.74,17.42c-0.25-0.19-0.32-0.47-0.37-0.76c-0.04-0.26,0.26-0.93-0.48-0.26
		c-0.81,0.73-0.85-0.2-1.01-0.72c0.71-4.11,2.04-8.07,3.06-12.1c0.91-3.63,1.86-7.26,2.75-10.9c0.24-0.62,0.26-1.28,0.39-1.93
		c0.39-1.28-0.44-2.55,0-3.83c0.29-0.81,0.27-1.59-0.23-2.33c-0.58-1.98-0.72-4-0.68-6.05c0.05-0.62,0.02-1.25,0.03-1.87
		c-0.08-1.77,0.21-3.54-0.22-5.3c-0.18-0.92-0.19-1.85-0.02-2.77c0.33-1.14,0.37-2.28,0.03-3.43c-0.11-0.49-0.15-0.98-0.16-1.48
		c-0.01-1.09,0.13-2.2-0.23-3.27c-0.18-0.92-0.15-1.86-0.15-2.79c0.11-1.15-0.09-2.32,0.16-3.46
		C147.4,224.65,147.53,224.48,147.7,224.34z"/>
	<path class="st2" d="M193.41,312.55c-0.43,0.8-0.91,1.45-1.89,0.64c-1.11-1.13-1.24-2.7-1.77-4.07
		c-3.33-8.59-6.84-17.12-9.68-25.89c-0.59-1.82-1.04-3.69-1.7-5.48c-0.22-0.78-0.49-1.55-0.75-2.33c-0.42-1.67-0.88-3.33-1.62-4.89
		c-0.57-2.36-1.25-4.68-1.9-7.02c-0.19-0.68-0.35-1.4,0.18-2.03l0.09-0.06c0.46-0.07,0.7,0.26,0.79,0.58c0.6,2.07,2,3.83,2.36,5.99
		c0.16,0.96,0.52,1.85,1.01,2.68c1.88,3.18,2.6,6.78,3.76,10.22c0.21,0.61,0.37,1.24,0.78,1.76c1.35,2.75,2.07,5.73,3.11,8.59
		c2.37,6.53,5.13,12.91,7.12,19.58C193.44,311.38,193.76,311.94,193.41,312.55z"/>
	<path class="st9" d="M57.33,279.43c1.31,0.47,1.11-0.57,1.06-1.19c-0.26-2.85-0.39-5.7-0.35-8.57c0.09-6.45-0.34-12.89-0.46-19.33
		c-0.07-3.63-0.13-7.27-0.24-10.9c0.25-0.08,0.44-0.01,0.57,0.21c0.52,3.07,0.66,6.2,0.64,9.29c-0.04,6.42,0.39,12.82,0.48,19.23
		c0.15,10.44,1.24,20.81,3.41,31.05c0.25,1.17,0.49,2.35,0.47,3.56c0.06,3.34,0.69,6.63,0.85,9.97c0.16,3.51,0.45,7.02,0.53,10.54
		c0.01,0.57,0.02,1.22-0.69,1.52c-0.65-0.48-0.07-1.28-0.49-1.81c-0.74-7.14-1.53-14.27-2.19-21.41c-0.47-5.09-1.94-9.96-3.05-14.91
		c-0.4-1.8-0.58-3.65-0.86-5.47C57.36,280.65,56.92,279.97,57.33,279.43z"/>
	<path class="st10" d="M142.94,286.5c0.36,1.25,0.52,0.16,0.68-0.08c0.21-0.31,0.14-0.95,0.74-0.77c0.66,0.2,0.14,0.67,0.13,1.03
		c-0.01,0.47-0.02,0.94-0.03,1.41c-0.6,3.24-1.71,6.34-2.68,9.47c-1.37,4.44-1.68,9.03-2.39,13.56c-0.15,0.94-0.25,1.89-0.37,2.84
		c-0.33,1.58-1.5,1.16-2.53,1.06c-0.98-2.37-0.24-4.72,0.13-7.05c0.68-4.31,1.95-8.48,3.07-12.69c0.63-2.21,1.35-4.4,1.99-6.61
		C141.91,287.88,141.93,286.89,142.94,286.5z"/>
	<path class="st11" d="M188.35,239.87c-2.62-2-2.88-5.19-3.78-7.95c-2.35-7.21-4.4-14.52-6.84-21.7c-0.36-1.07-0.83-2.11-1.24-3.16
		c-0.38-1.26-1.19-2.43-0.91-3.85c0.16-0.27,0.42-0.39,0.71-0.44c0.19-0.02,0.38,0,0.56,0.04c0.68,0.28,0.93,0.83,0.98,1.52
		c-0.12,0.73,0.34,1.36,0.35,2.05c0,0.5,0.35,0.18,0.49,0.31c1.14,1.72,1.74,3.64,2.06,5.66c-0.18,1.8,0.92,3.28,1.22,4.96
		c0.41,0.89,0.11,2.06,1.09,2.73c0.93,1.3,1.16,2.86,1.48,4.35c0.71,3.32,1.5,6.6,2.81,9.74c-0.16,1.77-0.01,3.46,1.15,4.93
		C188.66,239.31,188.58,239.64,188.35,239.87z"/>
	<path class="st7" d="M63.12,19.46c-0.53,0.65-1.25,0.33-1.9,0.37c-0.83-1.69-0.43-3.46-0.3-5.19c0.07-0.99,0.3-1.98,0.48-2.96
		c-1.05-1.04-3.36-1-4.26,0.09c-0.01,1.41,0.03,2.81-0.03,4.22c-0.03,0.76-0.09,1.53-0.77,2.06c-0.64-0.01-1.18-0.23-1.57-0.75
		c0-2.33,0.04-4.66-0.02-6.98c-0.02-1.03,0.31-1.62,1.27-2.08c1-0.47,2.04-0.67,3.09-0.85c3.09-0.52,3.92,0.22,3.94,3.3
		C63.07,13.61,63.1,16.54,63.12,19.46z"/>
	<path class="st12" d="M32.43,42.63c0.02-0.15,0.04-0.29,0.05-0.44c-0.13-0.55-0.54-0.96-0.73-1.47c1.12-1.34,1.12-5.1,0-6.41
		c0.21-0.94,1.05-1.07,1.75-1.37c0.17-0.06,0.35-0.11,0.53-0.14c0.95-0.1,1.89-0.15,2.75,0.38c0.84,0.39,1.62,0.85,1.61,1.95
		c-0.17,2.61-0.39,5.22-0.72,7.82c-0.13,1.03-0.56,1.81-1.62,2.12C33.68,45.14,32.84,44.57,32.43,42.63z"/>
	<path class="st13" d="M33.59,33.22c-0.61,0.36-1.23,0.72-1.84,1.09c-2.8-1.2-5.37-2.72-7.47-5c-0.81-0.88-1.59-1.73-1.9-2.92
		c-0.41-0.74,0.15-1.9-1.12-2.34c-0.36-0.12-0.26-0.87,0.34-1.09c0.37-0.13,0.84,0.15,1.15-0.27c0.56-0.47,1.22-0.28,1.85-0.25
		c2.51,0.17,5.02,0.33,7.53-0.09c0.44-0.39,0.96-0.3,1.48-0.25c0.71,0.17,1.41,0.23,2.11-0.04c2.13-0.62,4.31-0.38,6.47-0.35
		c-0.37,0.55-1.03,0.16-1.49,0.46c0.03,0.77,0.9,0.42,1.16,0.87c-1.79,1.07-3.83,0.55-5.74,0.89c-3.49,0.62-7.05,0.38-10.58,0.42
		c-0.52,0.01-1.18-0.16-1.47,0.4c-0.28,0.55,0.23,1.01,0.52,1.44c2.04,3.08,4.63,5.48,8.26,6.57
		C33.14,32.84,33.41,32.96,33.59,33.22z"/>
	<path class="st2" d="M183.05,282.65c-1.49-1.73-1.67-4.01-2.46-6.03c-0.64-1.65-1.02-3.35-2.1-4.85c-1.22-1.7-1.32-3.89-2.17-5.78
		c-0.69-1.52-1.32-3.06-1.98-4.59c-0.01-7.24-0.01-14.48-0.02-21.72c0-0.37,0.05-0.72,0.38-0.96c-0.01,2.4,0.14,4.81-0.06,7.19
		c-0.53,6.24,1.08,12.1,2.85,17.96C179.38,270.14,181.2,276.4,183.05,282.65z"/>
	<path class="st14" d="M68.08,286.71c1.12-2.72,0.24-5.53,0.4-8.3c0.02-0.41-0.03-0.84,0.35-1.14c0.38,7.69,0.98,15.35,2.7,22.9
		c0.62,2.7,0.96,5.53,0.94,8.35c0.07,0.66,0.52,1.37-0.28,1.9c-1.09-0.61-0.88-1.69-0.97-2.66c-0.12-0.7-0.01-1.41-0.02-1.71
		c0,0,0.16,0.4-0.52,0.4c-0.46-0.38-0.49-0.93-0.55-1.46c-0.66-5.25-1.65-10.46-2.34-15.71C67.67,288.4,67.42,287.5,68.08,286.71z"
		/>
	<path class="st15" d="M96.23,332.33c-1.31,0.22-2.03-0.16-1.85-1.67c0.1-0.87,0.01-1.77,0-2.65c0-4.31,0.01-8.63,0.01-12.94
		c0.48,2.2,0.97,4.4,1.43,6.61c0.07,0.34,0.03,0.71,0.34,0.96c0.63,0.54,0.6,1.3,0.5,1.97C96.3,327.17,96.52,329.76,96.23,332.33z"
		/>
	<path class="st2" d="M174.33,217.87c0.2-2.35-0.81-4.57-0.73-6.91c0.06-1.79-0.07-3.58,0.38-5.34c0.12-0.16,0.25-0.16,0.37,0
		c0.45,1.37,0.72,2.76,0.71,4.21c-0.01,8.9-0.02,17.81-0.04,26.71c0,0.64,0.14,1.33-0.3,1.9c-0.09-5.3,0.19-10.61-0.38-15.89
		C174.5,220.99,174.23,219.43,174.33,217.87z"/>
	<path class="st16" d="M72.11,310.39c0.58-0.53,0.23-1.25,0.37-1.87c0.8,3.04,0.88,6.2,1.4,9.29c0.53,3.15,0.99,6.32,1.48,9.47
		c-0.08,0.46-0.01,1.08-0.69,1.06c-1.7-0.06-3.44,0.39-5.11-0.3c0.5-0.57,1.19-0.46,1.83-0.49c1.86-0.09,1.86-0.09,1.63-1.92
		c-0.04-0.3-0.14-0.58-0.2-0.87c-0.08-0.47-0.08-0.93,0.19-1.34c0.36-0.19,0.64-0.26,0.52,0.32c0.38-0.32-0.04-0.49-0.15-0.69
		c-0.59-1.1-0.13-2.38-0.6-3.49c-0.24-2.14-0.75-4.23-0.85-6.39c-0.01-0.86-0.52-1.71-0.05-2.58
		C71.97,310.52,72.04,310.46,72.11,310.39z"/>
	<path class="st17" d="M127.55,313.6c-0.88-0.64-2.33,0.27-2.94-1.08c0.23-2.29,1.11-4.41,1.84-6.56c1.53-4.54,3.13-9.06,4.71-13.58
		c0.1,0,0.21,0,0.31,0c0.53,0.7,0.1,1.37-0.1,2.02c-0.69,2.21-1.54,4.37-2.07,6.63c-0.69,2.1-1.2,4.25-1.79,6.38
		C126.93,309.48,127.18,311.55,127.55,313.6z"/>
	<path class="st18" d="M63.11,323c0.51,0.32,0.22,0.98,0.78,1.36c-0.23-3.88-0.43-7.76-0.7-11.63c-0.23-3.31-0.53-6.62-0.81-9.93
		c0.95,0.21,0.87,1.06,0.97,1.71c0.83,5.73,1.54,11.48,1.66,17.27c0.04,1.96,0.7,3.89,0.25,5.86c-1.26,0.34-1.89-0.27-2.14-1.44
		C63.12,325.13,63.12,324.07,63.11,323z"/>
	<path class="st19" d="M188.35,239.87c-0.05-0.23-0.03-0.53-0.17-0.67c-1.35-1.39-1.72-3.01-1.22-4.86c0.41-0.05,0.73,0.16,0.9,0.48
		c0.67,1.21,1.48,2.31,2.38,3.36c0.29,0.34,0.58,0.8,0.2,1.29c-0.44,0.4-0.18,0.98-0.35,1.48c-0.7,0.12-0.86-0.72-1.44-0.74
		C188.56,240.1,188.45,239.99,188.35,239.87z"/>
	<path class="st20" d="M110.27,333.41c-0.1,1.67-0.8,0.93-1.46,0.37c0.57-2.75,0.27-5.53,0.38-8.3
		C109.81,328.08,109.87,330.77,110.27,333.41z"/>
	<path class="st21" d="M174.34,205.62c-0.12,0-0.24,0-0.37,0c0-0.12,0-0.24,0-0.35c-0.27-0.55-0.38-1.13-0.29-1.73
		c0.08-0.52,0.39-0.89,0.89-1.01c0.53-0.13,1.09-0.19,1.2,0.59c0.24,1.32,0.48,2.64,0.72,3.96c-0.88-0.83-0.79-2.31-2.06-3.04
		C174.4,204.62,174.37,205.12,174.34,205.62z"/>
	<path class="st22" d="M22.75,22.69c-0.22,0.56-0.86,0.28-1.19,0.6c-0.25,0.23-0.28,0.53,0.06,0.7c1.11,0.52,1.11,0.51,0.83,1.71
		c-0.05,0.23-0.05,0.46-0.08,0.7c-0.31-0.43-0.68-0.83-0.92-1.29c-0.3-0.59-1.14-1.05-0.66-1.86
		C21.25,22.49,22.07,22.79,22.75,22.69z"/>
	<path class="st23" d="M48.04,168.22c0.46,3.1,0.49,6.2-0.02,9.29C48.03,174.42,48.04,171.32,48.04,168.22z"/>
	<path class="st24" d="M57.33,279.43c-0.08,0.6,0.22,1.26-0.31,1.78c-0.18-2.01-0.58-4.01-0.44-6.04c0.01-0.06,0.02-0.12,0.04-0.17
		c0.06-0.17,0.32-0.28,0.3-0.14C56.78,276.4,57.36,277.89,57.33,279.43z"/>
	<path class="st25" d="M32.13,22.35c-2.5,0.7-5.01,0.55-7.53,0.09C27.11,22.41,29.62,22.38,32.13,22.35z"/>
	<path class="st26" d="M55.58,252.46c0.5,2.14,0.49,4.28,0.01,6.42C55.59,256.73,55.58,254.59,55.58,252.46z"/>
	<path class="st27" d="M55.2,240.93c0.55,2.02,0.51,4.04,0.03,6.07C55.22,244.97,55.21,242.95,55.2,240.93z"/>
	<path class="st28" d="M31.75,40.72c0.63,0.3,0.79,0.83,0.73,1.47c-0.75-0.81-1.75,0.03-2.55-0.38
		C30.54,41.44,31.14,41.08,31.75,40.72z"/>
	<path class="st29" d="M55.92,262.16c0.56,1.78,0.51,3.56,0.04,5.35C55.94,265.73,55.93,263.95,55.92,262.16z"/>
	<path class="st30" d="M56.22,269.35c0.66,1.42,0.54,2.85,0.09,4.29C56.28,272.21,56.25,270.78,56.22,269.35z"/>
	<path class="st31" d="M82.89,51.91c1.43-0.59,2.87-0.55,4.31-0.03c-1.06,0.02-2.11,0.04-3.17,0.06
		C83.65,51.93,83.27,51.92,82.89,51.91z"/>
	<path class="st32" d="M125.04,219.26c0.95-0.24,1.91-0.95,2.85,0.04C126.94,219.29,125.99,219.28,125.04,219.26z"/>
	<path class="st33" d="M99.24,40.71c-1.07,0.04-1.52-0.75-2.01-1.49C98.24,39.26,98.6,40.19,99.24,40.71z"/>
	<path class="st34" d="M35.71,22.05c-0.69,0.53-1.4,0.49-2.11,0.04C34.31,22.08,35.01,22.06,35.71,22.05z"/>
	<path class="st35" d="M150.56,211.04c0,0.39-0.01,0.77-0.01,1.16c-0.23-0.27-0.47-0.54-0.7-0.81c0.01-0.12,0.02-0.23,0.02-0.35
		C150.1,210.84,150.33,210.81,150.56,211.04z"/>
	<path class="st30" d="M170.74,177.91c-0.78-0.18-1.46-0.47-1.45-1.44C169.91,176.81,170.38,177.3,170.74,177.91z"/>
	<path class="st36" d="M35.81,44.75c0.76-0.31,1.28-0.79,1.36-1.68c0.23-2.69,0.48-5.39,0.73-8.08c0.35-1.61,1.62-2.65,2.7-3.63
		c1.85-1.68,3.05-4.14,5.64-4.98c0.38-0.04,0.73,0.01,1,0.33c1.95,1.37,4.17,1.01,6.33,0.92c0.93-0.04,1.85-0.31,3.14-0.05
		c-1.75,1.3-3.29,2.45-5.03,3.75c2.95,0.21,5.1-1.36,7.46-2.18c0.63,0.21,0.82,0.82,1.16,1.3c0.52,0.74,1.26,1.09,2.13,1.12
		c0.93,0.03,1.65-0.38,1.83-1.34c0.17-0.95-0.31-1.59-1.22-1.9c-0.49-0.16-1.09-0.07-1.46-0.55c1.29-0.84,2.57-1.68,3.85-2.53
		c0.52-0.34,0.88-0.39,0.92,0.38c-0.64,1.83-0.53,2.02,1.09,1.86c0.95-0.74,1.9-1.47,2.85-2.21c0.58-0.16,1.76,0.38,1.21-1.06
		c0.08-0.12,0.16-0.24,0.24-0.37c1.92-0.17,2.58-1.64,3.28-3.12c1.04-2.2,1.76-4.57,3.2-6.57c0.8,1.14,2.03,1.7,3.15,2.43
		c0.61,0.4,1.34,0.75,1.6,1.55c-2.08,1.94-4.1,3.94-5.67,6.34c-0.55,0.85-1.16,1.67-1.21,2.73c-0.05,1.21-1.29,1.25-1.86,1.94
		c-0.49,0.44-0.95,0.92-1.5,1.3c-0.95,0.38-1.57-0.35-2.31-0.68c-1.16-0.51-2.38-0.11-2.85,1.01c-0.5,1.17,0.25,1.92,1.01,2.62
		c0.28,0.26,0.7,0.36,1,0.16c1.42-0.98,1.63-0.03,1.77,1.06c0.25,0.6,0.5,1.2,0.74,1.81c0.51,1.12,0.35,2.33,0.53,3.49
		c0.41,2.62,0.58,5.44,3.68,6.59c5.94,1.19,11.83,1.08,17.65-0.72c2.02-0.63,3.96-1.62,6.19-1.27c1.18,0.18,1.31,0.54,0.31,1.23
		c-2.93,1.71-5.77,3.63-9.25,4.07c-4.27,0.53-8.54,0.96-12.71-0.62c-0.2-0.08-0.44-0.07-0.97-0.15c1.68,1.87,0.8,3.66,0.35,5.36
		c-1.12,4.15-1.91,8.37-2.58,12.61c-0.12,0.85-0.33,1.31-1.46,1.09c-2.83-0.56-4.51,1.35-3.92,4.19c0.5,2.41,1.67,4.38,3.56,5.93
		c-0.68,6.66-0.54,13.37-1.22,20.02c-0.26,2.5-0.27,5.02-0.48,7.51c-0.14,0.62-0.6,1-1.07,1.39c-2.68,2.21-3.28,5-2.22,8.22
		c0.82,2.51,2.09,4.82,3.25,7.18c0.27,0.55,1,0.09,1.03,0.73c0.89,5.44,1.86,10.85,4.55,15.77c0.45,0.82,1.2,1.53,1.1,2.59
		c-1.14,0.82-1.53-0.38-2.07-0.87c-1.43-1.27-1.38-1.32-2.46,0.2c-0.35,0.49-0.64,1.01-0.94,1.52c-1.64,2.77-1.53,3.68,0.71,5.93
		c0.63,0.63,1.25,1.29,1.91,1.89c1.29,1.18,1.89,1.06,2.69-0.53c0.7-1.38,0.82-3,1.7-4.31c0.83-0.15,0.96,0.58,1.3,1.04
		c1.48,2.32,3.05,4.55,5.31,6.22c0.46,0.34,1.22,0.63,1.01,1.5c-1.87,0.12-2.94,1.3-3.8,2.81c-0.48,0.84-1.2,1.47-1.96,2.08
		c-1.33,1.07-1.28,1.54,0.02,2.63c2.98,2.51,6.59,3.27,10.29,3.79c0.59,0.08,1.19,0.08,1.78,0.23c1.4,0.35,2.62,0.07,3.55-1.09
		c1.27-1.58,3.24-2.38,4.51-3.98c2.34-0.1,4.59,0.41,6.84,0.93c0.35,0.08,0.67,0.23,0.82,0.6c-0.91,1.21-2.38,1.75-3.41,2.82
		c-0.32,0.33-0.88,0.55-0.76,1.11c0.12,0.55,0.68,0.64,1.15,0.69c4.16,0.43,8.32,0.65,12.5,0.38c1.25-0.08,2.19-0.87,3.03-1.75
		c0.49-0.51,0.84-1.17,1.5-1.52c3.96-0.13,7.83,0.28,11.46,2.02c0.58,0.28,1.21,0.54,1.52,1.18c-0.33,0.91-1.1,0.61-1.62,0.44
		c-2.61-0.88-4.34,0.02-5.57,2.39c-0.55,1.05-1.5,1.87-2.01,2.97c-0.74,1.6-0.54,2.54,0.87,3.61c2.61,1.97,5.48,3.43,8.62,4.38
		c1.09,0.33,1.69,0.04,2.11-0.98c0.59-1.45,1.35-2.83,2.4-3.99c1.38-1.52,1.33-3.09,0.47-4.81c-0.31-0.62-0.9-1.17-0.66-1.98
		c0.69-0.4,1.26,0.04,1.85,0.28c5.14,2.07,10.15,4.43,15.04,7.04c0.87,0.6,1.84,1.03,2.73,1.6c0.34,0.31,0.53,0.7,0.58,1.16
		c-0.72,1.31,0.96,1.38,1.15,2.22c-0.84,1.31-1.42,2.78-2.23,4.1c-0.71,1.16-0.48,2.04,0.53,2.8c0.84,0.64,1.63,1.74,2.77,1.35
		c1.28-0.44,1.35-1.86,1.57-3.02c0.19-0.98-0.18-1.88-0.52-2.79c-0.18-0.48-0.79-1.28,0.45-1.37c2.75,2.31,3.04,5.55,3.26,8.79
		c0.35,5.19,0.58,10.38,0.84,15.57c0.29,5.97-0.03,11.94,0.25,17.9c0.03,0.65,0.02,1.32-0.18,1.95c-0.04,0.11-0.09,0.22-0.17,0.3
		c-0.53,0.52-1.78-0.55-1.91,1.06c-0.2,2.47-2.29,4.92,0.07,7.38c0.73,0.77,1.64,1.39,2.03,2.46c0.2,2.65,0.3,5.29,0.32,7.94
		c-0.12,0.26-0.27,0.49-0.61,0.44c-1.27,0.57-0.78,1.39-0.3,2.18c0.37-0.21,0.23-0.98,0.91-0.83c0.77,0.79,0.39,1.82,0.59,2.72
		c0.68,3.09,1.06,6.2,1.13,9.38c0.05,2.43,1.26,4.59,2.55,6.61c1.03,1.62,1.88,3.31,2.55,5.09c0.34,1.36,1.01,2.62,1.35,3.99
		c0.4,0.64,0.26,1.53,0.93,2.05c1.79,5.2,3.5,10.43,5.39,15.6c2.24,6.13,4.64,12.2,6.95,18.3c0.21,0.55,0.31,1.14,0.47,1.71
		c-1.63,0.49-3.25,0.99-4.94,1.19c-1.54,0.29-3.1,0.05-4.65,0.14c-0.77,0.04-1.09-0.35-1.11-1.07c-0.02-1.2-0.21-2.43,0.05-3.58
		c0.25-1.15,0.05-2.11-0.42-3.1c-3.09-8.55-6.76-16.87-10.3-25.24c-2.16-5.12-4.72-10.12-6.43-15.39
		c-1.38-4.23-2.38-8.62-3.44-12.97c-0.73-3.01-1.44-6.02-2.16-9.04c1.24-0.57,1.99,0.46,2.9,0.91c0.8,0.4,1.54,0.91,2.39,1.74
		c0.96-4.27-0.7-7.9-1.57-11.69c-1.48,1.63-2.74,3.27-3.6,5.18c-0.17,0.39-0.09,1.03-0.82,0.96c-1.43-6.73-2.53-13.52-3.55-20.32
		c-0.08-0.53-0.06-1.08-0.08-1.62c0.93-1.18,2.36-1.8,3.28-2.98c0.29-0.37,0.71-0.65,0.9-1.1c0.26-0.61,0.09-1.19-0.23-1.7
		c-0.39-0.61-0.94-0.32-1.45-0.17c-0.7,0.2-1.3,0.57-1.88,1c-0.44,0.33-0.93,0.65-1.32-0.1c-0.13-0.84-0.26-1.67-0.39-2.51
		c-0.87-3.93-1.37-7.91-1.61-11.92c0.04-1.43,0.14-2.86-0.2-4.29c-0.24-1-0.02-1.86,1-2.44c2.37-1.35,2.05-6.39,0.94-7.92
		c-0.34-0.47-0.81-0.7-1.34-0.85c-1.39-0.37-2.79-0.69-4.16-1.13c-1.04-0.34-1.72-0.04-2.11,1.01c-0.63,1.69-1.1,3.42-1.36,5.21
		c-0.19,1.31,0.35,2.18,1.61,2.64c1.24,0.46,2.49,0.88,3.79,1.11c1.42,0.25,1.8,1,1.28,2.3c-0.46,1.99-0.34,4.04-0.34,6.04
		c0,1.9,0.08,3.81,0.1,5.72c0.02,2.48-0.33,2.95-2.75,3.67c-2.38,0.71-4.74,1.5-7.07,2.34c-4.99,1.8-9.9,3.65-15.36,3.89
		c-4.63,0.2-9.21,1.3-13.82,2c-0.35,0.05-0.71,0.15-1.06,0.15c-3.72-0.05-3.62,1.22-4.01-3.56c-0.45-1.33-0.05-2.32,1.17-3.01
		c1.13-0.64,1.2-1.52,0.57-2.58c-0.62-1.04-1.34-1.99-2.29-2.75c-1.64-1.31-2.21-1.4-4.02-0.25c-0.88,0.56-1.62,0.55-2.52,0.13
		c-1.63-0.76-3.36-1.29-5.11-1.7c-0.63-0.15-1.35-0.41-1.82,0.27c-0.43,0.62-0.15,1.29,0.14,1.88c0.72,1.43,1.89,2.46,3.15,3.39
		c1.65,1.21,3.46,2.14,5.33,2.96c0.94,0.41,1.88,0.75,2.95,0.49c0.37-0.09,0.99-0.36,1.07,0.44c-0.91,1.21-0.06,2.73-0.71,3.99
		c-0.46-0.35-0.42-0.74-0.23-1.01c-0.59,1.2-0.35,2.7-0.5,4.13c-0.02,0.19-0.06,0.38-0.11,0.57c-0.29,0.87-0.13,1.78-0.23,2.66
		c-0.35,3.68-0.72,7.36-0.62,11.07c0.02,0.66,0.01,1.31-0.12,1.96c-0.08,0.29-0.18,0.63-0.44,0.75c-3.06,1.4-2.99,4.24-3.06,6.91
		c-0.07,2.68,0.34,5.29,2.81,7.01c0.14,0.1,0.2,0.3,0.27,0.46c0.28,0.94,0.21,1.9,0.2,2.85c-0.05,10.16,0.59,20.28,1.38,30.4
		c0.09,1.19,0.01,2.39,0.22,3.57c0.18,5.33,1.05,10.56,2.46,15.7c0.03,0.38,0.07,0.76,0.1,1.14c0.21,1.66,0.19,3.32,0.02,4.97
		c-0.01,0.83-0.02,1.66-0.03,2.49c0.57,5.68,0.25,11.37,0.31,17.05c0.01,1.22-0.69,1.34-1.68,1.12c-1.57-0.35-3.15-0.65-4.77-0.65
		c-2.83,0-4.06-1.17-3.93-4.09c0.07-1.66,0.12-3.33,0.19-5c0.14-3.17,0.32-6.34,0.31-9.51c0-0.25-0.04-0.47-0.21-0.67
		c-0.03-0.1-0.03-0.21,0-0.31c-0.42-1.06,0.12-2.22-0.31-3.28c-1.21-8.09-1.97-16.25-3.63-24.28c-1.05-5.09-2.41-10.13-3.2-15.26
		c-1.38-8.98-3.01-17.9-5.1-26.74c-0.91-3.84-1.92-7.65-2.88-11.48c0.13-1-0.4-1.91-0.37-2.9c-0.75-4.69-2.6-9-4.69-13.22
		c-0.2-0.4-0.26-0.77-0.31-1.18c-0.37-0.93-0.43-1.93-0.72-2.88l0,0c-0.9-2.15-1.61-4.36-2.16-6.62c-0.12-0.86-0.3-1.7-0.65-2.5
		c-0.04-0.16-0.07-0.32-0.07-0.49c-0.07,0.14,0,0.27,0.02,0.4c0.05,0.27,0.23,0.5,0.29,0.77c0.28,0.92,0.33,1.9,0.64,2.81
		c0.38,1.8,1.15,3.52,1,5.42c-0.26,0.6-0.75,0.35-1.04,0.16c-2.6-1.77-5.38-3.32-7.35-5.88c-0.36-0.91-0.98-1.67-1.54-2.45
		c-6.69-11.4-11.71-23.44-13.94-36.53c0.03-0.27-0.33-0.02-0.09-0.08c0.06-0.02,0.09,0.01,0.11,0.07c0.57,2.71,0.44,5.45,0.39,8.19
		c-0.01,0.42-0.1,0.84-0.48,1.11c-0.52-1.51-0.23-3.07-0.26-4.6c-0.07-3.76-0.05-7.51-0.07-11.27c-0.35-1.88-0.13-3.79-0.15-5.68
		c-0.04-3.98-0.02-7.97,0-11.95c0-0.58-0.19-1.19,0.2-1.73c0.41-0.6,0.3-1.27,0.26-1.92c-0.25-3.92-0.04-7.84-0.11-11.76
		c0-1.72,0-3.44,0-5.16c0.1-3.58-0.21-7.17,0.16-10.75c0.11-2.9,0.21-5.79,0.32-8.69c-0.27-1.98-0.05-3.98-0.12-5.97
		c0.07-0.87-0.15-1.75,0.14-2.61c0.03-0.12,0.06-0.24,0.1-0.37c0.48-2.16,1.46-4.08,2.99-5.65c5.02-5.15,9.06-11.01,12.56-17.26
		c1.64-2.93,3.32-5.84,4.99-8.75c0.6-1.05,1.06-2.12,1.34-3.28c0.09-0.56,0.32-1.05,0.73-1.45c0.49-1.1,1.61-1.77,2.1-3.1
		c-1.28,0.43-1.64,1.81-2.76,2.17c-1.19-0.07-2,0.7-2.85,1.33c-3.53,2.64-7.06,5.3-10.73,7.74c-0.31,0.47-1.6,0.1-1.08,1.28
		c0.12,0.1,0.2,0.22,0.25,0.36c-1.54,1.25-3.37,0.81-5.01,0.6c-4.41-0.54-8.83-0.19-13.24-0.27c-2.08-0.04-4.16,0.23-6.24,0.36
		c-2.28,0.25-3.21-0.24-3.92-2.02c1.3-2.31,4.47-3.9,7.09-3.52c0.52,0.08,0.93,0.02,1.27-0.39c0.51-0.45,0.71-0.92,0.16-1.5
		c-1.15-1.22-4.54-1.38-5.85-0.26c0.85,1.98,0.83,2.12-1.15,3.17c-0.92,0.49-1.73,1.26-2.88,1.22c-0.64-0.07-1.12-0.44-1.53-0.88
		c-2.3-2.51-4.78-4.92-5.24-8.56c-0.11-0.86-0.7-1.17-1.43-1.4c-1.33-0.41-2.69-0.52-4.07-0.6c-0.83-0.05-1.93-0.03-1.57-1.46
		c4.37-1.94,8.74-3.89,13.12-5.8c1.32-0.58,2.62-1.19,3.72-2.14C32.8,44.52,33.96,45.63,35.81,44.75z"/>
	<path class="st37" d="M169.25,246.31c-0.39-2.88-0.29-5.78-0.35-8.67c-0.11-0.15-0.2-0.42-0.09-0.48c1.89-1.06,2.15-3.2,3.25-4.78
		c0.6-0.86,0.46-1.53-0.42-2.1c-0.7-0.45-1.42-0.88-2.06-1.42c-0.48-0.4-1.12-0.8-0.69-1.61c-0.07-3.52,0.31-7.04-0.26-10.56
		c-0.15-0.9,0.3-1.88,0.27-2.83c-0.21-8.76-0.51-17.52-1.47-26.23c-0.22-1.98-1.39-3.63-2.86-5.01c-0.55,0.1-0.79-0.28-1.03-0.65
		c-0.31-0.81-1.06-1.21-1.59-1.82c-0.45-0.52-1.4-1.26,0.07-1.79c0.36,0.02,0.64,0.2,0.9,0.43c0.44,0.42,0.83,0.98,1.57,0.52
		c0.86-0.28,0.93-1.86,2.25-1.37c1.31,1.2,2.61,2.4,3.92,3.6c0.61,1.26,0.88,2.57,0.95,3.98c0.18,3.59,0.43,7.17,0.61,10.76
		c0.22,4.3,0.55,8.6,0.81,12.9c0.2,3.46,0.52,6.91,0.62,10.38c0.3,10.25,0.38,20.5,0.27,30.75c-0.03,2.51-0.23,5.03-0.36,7.54
		c-0.07,1.27,0.04,2.51,0.7,3.64c0.05,1.8,0.79,3.44,1.23,5.15c0.33,1.3,0.65,2.6,0.98,3.9c0.21,0.53,0.53,1.09-0.34,1.34
		c-0.8-2.67-2.64-4.79-3.84-7.25c-1.04-2.13-1.69-4.32-1.57-6.71c0.18-3.48-1.19-6.76-1.37-10.19
		C168.87,247.27,168.87,246.8,169.25,246.31z"/>
	<path class="st37" d="M158.08,176.81c-0.58,0.08-0.99-0.26-1.47-0.51c-5-2.63-10.11-5.05-15.41-7.02c-1.77-0.06-3.3-0.74-4.65-1.84
		c-2.82-1.86-5.96-2.67-9.3-2.85c-1.25-0.07-2.49-0.2-3.74-0.3c-0.11,0.06-0.31,0.12-0.32,0.07c-0.74-1.73-2.37-1.49-3.76-1.61
		c-3.28-0.28-6.57-0.81-9.88-0.38c-2.57-0.81-5.26-0.96-7.89-1.42c-0.48-0.04-0.74-0.38-0.97-0.73c-1.08-1.68-2.66-2.71-4.44-3.52
		c-0.46-0.21-1.69-0.21-0.87-1.36c0.77-0.03,1.54,0,2.29,0.23c1.11-0.01,2.18,0.31,3.08,0.86c4.64,2.82,9.86,3.26,15.04,3.47
		c5.62,0.22,11.27,0.28,16.68,1.85c5.96,1.73,12.07,3.02,17.72,5.71c1.91,1.12,3.95,2,5.79,3.23c1.66,0.96,3.71,1.25,4.99,2.88
		C159.87,174.52,158.6,175.32,158.08,176.81z"/>
	<path class="st36" d="M96.2,40.81c0.77,0.55,1.54,1.1,2.31,1.64c-0.02,0.13-0.04,0.27-0.06,0.4c-1.91,0-3.84,0.21-5.72-0.05
		c-3.04-0.41-6.09-0.16-9.13-0.59c-4.6-0.65-7.77-3.24-10.2-6.93c-1.64-2.5,0.25-5.48,2.86-6.05c0.64-0.14,1.3-0.18,1.95-0.27
		c0.58,0.45,1.26,0.11,1.89,0.23c4.09,1.11,6.78,4.11,9.43,7.12c0.87,1,1.75,1.95,2.84,2.71C93.47,40.01,94.44,41.24,96.2,40.81z"/>
	<path class="st38" d="M72.44,123.23c-0.6,0.06-0.95-0.3-1.2-0.76c-1.42-2.63-2.81-5.26-3.53-8.21c-0.78-3.21,0.92-6.88,3.61-7.96
		c0.71,0.09,1.45-0.21,2.14,0.15c0.3,0.21,0.16,0.62,0.39,0.87c0.06,4.39,0.67,8.72,1.41,13.03c-0.26,0.61-0.08,1.21,0.02,1.81
		C74.56,123.95,73.38,124.39,72.44,123.23z"/>
	<path class="st39" d="M76.02,46.9c-3.39-1.02-3.36-4.08-3.89-6.71c-0.24-1.2-0.04-2.49-0.04-3.74c1.61,2.85,3.76,5.13,6.81,6.45
		c0.92,0.4,1.85,0.81,2.89,0.75c3.81,0.61,7.64,1.03,11.71,0.9c-0.86,1.69-2.3,1.52-3.52,1.71c-3.74,0.6-7.53,0.42-11.3,0.44
		C77.79,46.69,76.88,46.52,76.02,46.9z"/>
	<path class="st40" d="M72.44,123.23c1.3,0.69,2.02,0.01,2.54-1.1c1.11,0.43,0.12,1.54,0.7,2.14c0.92,5.97,2.27,11.85,3.66,17.72
		c0.05,0.22,0.2,0.42,0.3,0.63c0.3,0.42,0.14,0.69-0.28,0.88c-0.96-0.1-1.31-0.66-1.2-1.58c-0.86-2.34-2.38-4.36-3.15-6.74
		C73.75,131.29,72.69,127.35,72.44,123.23z"/>
	<path class="st41" d="M73.13,77.79c-0.74,0.12-1.28-0.24-1.68-0.79c-1.3-1.82-2.12-3.87-2.2-6.1c-0.08-2.23,2.44-4.04,4.61-3.27
		c0.93,0.33,1.1-0.08,1.43-0.62c-0.45,3.34,0.23,6.79-1.09,10.03c-0.06,0.16-0.21,0.28-0.32,0.42
		C73.69,77.69,73.46,77.85,73.13,77.79z"/>
	<path class="st42" d="M76.02,46.9c-0.27-0.67-0.46-0.96,0.67-0.89c5.13,0.33,10.26,0.31,15.34-0.62c0.33-0.06,0.64-0.24,0.94-0.52
		c-3.77-0.19-7.54-0.11-11.17-1.24c4.15,0.16,8.28,0.65,12.43,0.84c2.05,0.1,4.04-0.55,6.06-0.13c0.52,0.11,1.39-0.39,1.47,0.47
		c0.06,0.61-0.61,0.96-1.29,0.94c0.11-0.34,0.67-0.88-0.06-0.95c-1.22-0.11-2.47-0.37-3.67,0.29c-4.5,2.48-9.41,2.84-14.39,2.6
		C80.22,47.59,78.02,47.96,76.02,46.9z"/>
	<path class="st43" d="M73.13,77.79c0.17-0.29,0.45-0.33,0.75-0.33c-0.46,6.96-0.66,13.93-0.59,20.91c0.02,2.27,0.17,4.53,0.26,6.79
		c0.2,0.47,0.26,0.94-0.04,1.4c-0.7-0.36-1.6,1.02-2.18-0.26c-0.12-7.7,1.36-15.32,1.17-23.04C72.45,81.45,72.91,79.62,73.13,77.79z
		"/>
	<path class="st44" d="M92.22,39.32c-1.23-0.56-2.03-1.58-2.89-2.58c-2.61-3.02-5.27-6-9.32-7.17c-0.69-0.6-0.45-0.89,0.34-0.88
		c1.11,0.02,2.23-0.15,3.33,0.12c2.45,0.58,4.13,2.23,5.69,4.06c1.04,1.22,2.11,2.42,2.91,3.82c0.38,0.92,1.29,1.42,1.8,2.24
		c0.11,0.11,0.22,0.23,0.33,0.34c0.31,1.08-0.32,1.08-1.03,0.83C92.95,39.97,92.66,39.52,92.22,39.32z"/>
	<path class="st41" d="M158.08,176.81c-0.25-1.33,1.14-2.88,2.91-3.24c1.92,1.45,4.02,2.66,5.74,4.37
		c-1.03,0.27-1.26,1.47-2.16,1.88c-0.8,0.19-1.21-0.46-1.77-0.8c-0.23-0.13-0.45-0.27-0.68-0.4c-0.43-0.35-1.03,0.08-1.46-0.31
		C159.69,178.01,158.69,177.76,158.08,176.81z"/>
	<path class="st45" d="M71.34,34.63c-0.44-0.25-0.25-0.76-0.47-1.11c-1.96,1.02-2.75,0.78-3.69-1.14c-0.61-1.24-0.09-2.41,1.33-3.18
		c0.74-0.41,1.34-0.17,2.03,0.12c0.74,0.32,1.27,1.17,2.24,0.95c0.13,0.08,0.17,0.16,0.13,0.25c-0.04,0.09-0.08,0.13-0.12,0.13
		C71.02,31.52,71.37,33.14,71.34,34.63z"/>
	<path class="st46" d="M87.57,154.14c-2.62-2.12-5.23-4.24-6.51-7.52c-0.08-0.37,0.08-0.5,0.43-0.41c1.42,1.34,2.85,2.67,4.27,4.01
		c1.27,1.98,3.55,2.41,5.39,3.52c0.47,0.28,1.63,0.28,0.86,1.39C90.38,155.44,88.79,155.61,87.57,154.14z"/>
	<path class="st47" d="M82.95,18.14c-1.3-0.79-2.6-1.59-3.9-2.38c-0.6-0.37-0.94-0.87-0.85-1.61c0.93-0.96,1.73-0.2,2.56,0.19
		c1.19,0.57,1.72,1.79,2.6,2.68C83.87,17.55,83.32,17.85,82.95,18.14z"/>
	<path class="st48" d="M92.24,154.82c-1.65-0.93-3.3-1.84-4.93-2.78c-0.72-0.42-1.42-0.88-1.55-1.81c3.15,2.62,7.04,3.59,10.78,4.91
		c0.38,0.14,0.76,0.29,1.14,0.44c-0.87,0.01-1.73,0.02-2.6,0.03C93.91,156.17,93.02,155.7,92.24,154.82z"/>
	<path class="st49" d="M92.22,39.32c0.72-0.44,1.48,1.76,2.19-0.03c0.8,0.27,1.17,1.04,1.79,1.52c-0.2,0.89-0.81,0.7-1.37,0.48
		C93.79,40.87,92.82,40.34,92.22,39.32z"/>
	<path class="st50" d="M156,170.69c-2.09-0.8-4.13-1.66-5.79-3.23C152.42,168.03,154.38,169.04,156,170.69z"/>
	<path class="st51" d="M81.49,146.21c-0.14,0.14-0.29,0.27-0.43,0.41c-0.34-0.38-0.67-0.76-1.01-1.14
		c-0.71-0.52-1.14-1.16-0.85-2.09c0.34-0.15,0.43-0.44,0.45-0.77C80.26,143.82,80.87,145.02,81.49,146.21z"/>
	<path class="st52" d="M83.68,28.82c-1.05,0.02-2.1,0.05-3.14,0.04c-0.55,0-0.77,0.17-0.53,0.72c-0.62-0.13-1.47,0.41-1.79-0.61
		C80.03,28.49,81.84,28.09,83.68,28.82z"/>
	<path class="st53" d="M75.69,124.27c-0.73-0.55,0.02-1.58-0.7-2.14c0.03-0.6-0.22-1.25,0.28-1.77
		C75.44,121.66,75.91,122.93,75.69,124.27z"/>
	<path class="st49" d="M94.07,38.95c-0.8-0.59-1.71-1.08-1.8-2.24C93,37.36,93.81,37.94,94.07,38.95z"/>
	<path class="st25" d="M72.78,30.65c0-0.13-0.01-0.25-0.01-0.38c0.38-0.5,0.8-0.96,1.45-1.12C73.96,29.87,73.43,30.31,72.78,30.65z"
		/>
	<path class="st54" d="M73.51,106.57c0.01-0.47,0.03-0.93,0.04-1.4c0.51,0.66,0.26,1.43,0.3,2.16
		C73.55,107.16,73.54,106.86,73.51,106.57z"/>
	<path class="st55" d="M66.32,205.36c2.36,2.38,5.09,4.27,7.92,6.03c0.13-0.18,0.25-0.17,0.35,0.02c0,0.11,0,0.22,0.01,0.34
		c0.42,0.54-0.08,1.27,0.36,1.81c-0.05,0.52,0.1,1,0.37,1.43c0.44,1.84,0.42,1.89-1.08,1.78c-3.06-2.84-6.89-4.77-9.65-7.98
		c-0.26-0.3-0.55-0.71-1.05-0.43c-0.42,0.23-0.42,0.67-0.47,1.1c-0.17,1.55,1.09,2.31,1.82,3.36c-3.57,3.93-3.85,9.02-4.86,13.84
		c-0.24,1.17-0.39,2.36-0.59,3.54c-0.2,2.77-1.46,5.37-1.3,8.2c-0.04,0.43-0.14,0.83-0.51,1.09c-0.1-0.01-0.2-0.03-0.3-0.05
		c0.18-6.23-0.2-12.44-0.85-18.61c-0.37-3.52-1.44-7-1.86-10.55c-0.81-6.8-2.35-13.49-3.14-20.3c-0.52-4.51-1.16-8.99-0.99-13.54
		c1.33,0.37,1.46,1.63,1.83,2.63c1.44,3.8,2.94,7.58,4.34,11.39c1.76,4.8,4.43,8.98,7.9,12.69
		C65.18,203.87,65.86,204.52,66.32,205.36z"/>
	<path class="st55" d="M72.8,58.39c-0.04,2.8-1.79,4.9-3.07,7.16c-3.38,5.97-6.64,12.04-11.01,17.39c-0.87,1.06-1.68,2.2-2.7,3.11
		c-2.29,2.04-3.73,4.63-5.12,7.29c0.2-4.04,0.39-8.09,0.9-12.11c0.44-3.44,0.67-6.9,0.48-10.37c-0.09-1.58,0.46-1.84,1.87-1.49
		c1.66,0.41,3.27,0.24,4.85-0.61c2-1.08,4.1-1.96,6.15-2.94C68.54,64.19,71.31,61.96,72.8,58.39z"/>
	<path class="st56" d="M14.86,51.23c0.08,0.87,0.66,1.04,1.39,1.03c0.66-0.01,1.33-0.09,1.97,0.02c1.05,0.18,2.08,0.5,3.12,0.75
		c1.56,0.37,0.82,1.77,1.19,2.67c1.35,3.31,3.23,6.2,6.37,8.1c0.06,0.51-0.29,0.79-0.66,0.97c-2.98,1.53-5.99,3.02-9.38,3.42
		c-1.48,0.18-2.96,0.04-4.38-0.5c-1.1-1.41-2.71-2.25-3.9-3.64c-1.01-1.17-1.08-2.23-1.19-3.53c-0.28-3.12,0.43-5.81,2.99-7.84
		C13.16,52.08,13.96,51.58,14.86,51.23z"/>
	<path class="st40" d="M64.47,203.52c-4.06-3.81-6.64-8.53-8.53-13.69c-1.33-3.64-2.7-7.27-4.09-10.89
		c-0.34-0.88-0.63-1.81-1.34-2.5c-0.02-0.22-0.03-0.45-0.05-0.67c0-3.23,0-6.47,0-9.7c1.16,4.56,2.28,9.11,3.8,13.53
		c2.73,7.94,6.08,15.61,10.43,22.82c0.12,0.2,0.16,0.45,0.24,0.67C64.97,203.44,64.84,203.61,64.47,203.52z"/>
	<path class="st57" d="M14.5,67.7c5.34,0.69,9.96-1.3,14.41-3.89c0.73-0.37,1.61-0.59,2.16-1.14c0.62-0.62,3.51-0.61,0.95-2.51
		c-0.08-0.06,0.08-0.44,0.12-0.67c1.81-0.87,3.55-0.58,5.24,0.34c0.69,0.37,1.25,0.9,1.23,1.8c-0.13,0.85-0.61,1.51-1.41,0.88
		c-1.16-0.93-2.08-0.41-3.1,0.09c-1.4,0.67-2.54,1.72-3.77,2.64c-0.34,0.69-0.98,1.01-1.62,1.33c-3.45,1.74-6.97,3.3-10.88,3.66
		C16.53,69.63,15.96,68.07,14.5,67.7z"/>
	<path class="st58" d="M17.82,70.22c-0.01-0.33,0.07-0.61,0.46-0.63c4.47-0.21,8.17-2.51,12.04-4.37c0.57,1.81,2.1,2.01,3.65,2.19
		c-3.22,0.08-5.86,1.79-8.59,3.17C22.73,71.92,20.3,71.11,17.82,70.22z"/>
	<path class="st59" d="M59.11,64.84c3.88-2.85,7.75-5.71,11.64-8.53c0.58-0.42,1.16-1.15,2.04-0.53c-0.01,0.45-0.46,0.55-0.68,0.82
		c-1.34,1.53-2.68,3.06-4.03,4.59c-0.94,0.94-2.12,1.53-3.23,2.23c-2.02,1.32-4.24,2.24-6.4,3.3c-0.13-0.03-0.27-0.05-0.4-0.08
		C57.47,65.49,58.73,65.42,59.11,64.84z"/>
	<path class="st60" d="M50.17,140.54c-0.02,6.45-0.04,12.9-0.05,19.36c-0.11-0.26-0.33-0.53-0.33-0.79
		c-0.02-6.44-0.01-12.87-0.01-19.37C50.26,139.94,50.06,140.3,50.17,140.54z"/>
	<path class="st61" d="M72.11,56.6c0.23-0.27,0.46-0.55,0.68-0.82c0.83-0.85,1.65-1.7,2.49-2.54c0.22-0.22,0.54-0.33,0.81-0.15
		c0.31,0.21,0.16,0.52,0.05,0.8c-0.53,1.31-1.44,2.3-2.62,3.05C73.32,55.69,72.57,56.77,72.11,56.6z"/>
	<path class="st62" d="M35.81,44.75c-1.75,1.3-3.48,0.69-4.11-1.46c0.11-0.37,0.36-0.58,0.73-0.66
		C33.16,43.97,34.17,44.86,35.81,44.75z"/>
	<path class="st63" d="M50.43,126.79c0,3.94-0.01,7.88-0.01,11.83c-0.62-1.48-0.25-3.03-0.28-4.54c-0.06-2.43,0-4.86,0.01-7.28
		C50.24,126.63,50.34,126.62,50.43,126.79z"/>
	<path class="st64" d="M50.48,110.95c-0.01,3.6-0.03,7.2-0.04,10.8c-0.1,0.15-0.2,0.16-0.3,0c0-3.04-0.01-6.08,0-9.12
		C50.14,112.06,49.94,111.43,50.48,110.95z"/>
	<path class="st65" d="M50.79,96.2c0,2.02,0,4.05,0,6.07c-0.68-1.99-0.16-4.04-0.28-6.06C50.6,96.02,50.69,96.03,50.79,96.2z"/>
	<path class="st66" d="M64.86,63.42c0.91-0.98,2.04-1.65,3.23-2.23C67.36,62.44,66.21,63.07,64.86,63.42z"/>
	<path class="st67" d="M50.14,121.75c0.1,0,0.2,0,0.3,0c0,1.68,0,3.36,0,5.04c0,0-0.14,0-0.14,0s-0.14,0-0.14,0
		C50.15,125.12,50.14,123.43,50.14,121.75z"/>
	<path class="st68" d="M50.79,96.2l-0.14,0c0,0-0.14,0.01-0.14,0.01c0.08-0.84-0.32-1.74,0.3-2.51
		C50.81,94.53,50.8,95.36,50.79,96.2z"/>
	<path class="st36" d="M190.45,239.47c-1.16-1.71-2.32-3.42-3.48-5.13c-2.02-3.97-2.36-8.42-3.64-12.59
		c-0.19-0.62-0.43-1.22-0.64-1.82c-0.49-0.76-0.61-1.66-0.97-2.47c-0.11-1.74-1.25-3.22-1.28-4.98c-0.59-1.98-1.14-3.98-2.1-5.82
		c-0.27-0.69-0.73-1.32-0.77-2.1c0.05-0.62-0.25-1.07-0.68-1.46c-1.07-0.92-1.39-2.27-2.04-3.43c-0.16-0.4-0.22-0.81-0.13-1.23
		c-0.12-2.14-0.2-4.29-0.4-6.42c-0.07-0.73,0.22-1.11,0.7-1.5c1.49,0.19,1.66,1.77,2.63,2.51c1.77,4.38,2.63,9.04,4.23,13.48
		c2.63,7.31,5.02,14.71,7.63,22.03c1,2.81,2.23,5.57,4.36,7.76c0.82,0.84,0.81,1.56,0.19,2.42
		C193.01,239.76,191.88,240.31,190.45,239.47z"/>
	<path class="st69" d="M203.12,244.15c2.35,1.03,4.46,2.45,6.51,3.98c0.86,0.65,1.7,1.32,2.23,2.28c0.2,0.37,0.41,0.81-0.01,1.13
		c-0.42,0.32-0.79,0.01-1.08-0.31c-2.41-2.61-5.65-4.12-8.39-6.3c-0.18-0.21-0.47-0.45-0.3-0.72
		C202.35,243.83,202.75,243.91,203.12,244.15z"/>
	<path class="st70" d="M204.88,248.2c0.68,0.06,2.59,2.34,2.53,2.93c-0.03,0.34-0.21,0.6-0.57,0.44c-1.11-0.51-1.97-1.34-2.54-2.39
		C204.05,248.72,204.35,248.26,204.88,248.2z"/>
	<path class="st71" d="M203.12,244.15c-0.58-0.05-1.04,0.01-0.74,0.79c-0.68-0.24-1.4-0.42-1.82-1.11c0.25-1.01,0.87-0.58,1.44-0.38
		C202.37,243.68,202.74,243.92,203.12,244.15z"/>
	<path class="st72" d="M202,243.45c-0.51,0.02-1.07-0.17-1.44,0.38c-0.43-0.14-1.04-0.25-0.82-0.85c0.16-0.45,0.71-0.29,1.07-0.14
		C201.21,243.02,201.75,242.96,202,243.45z"/>
	<path class="st73" d="M201.97,250.93c-0.2-0.04-0.49-0.25-0.49-0.66c0-0.34,0.21-0.56,0.59-0.48c0.37,0.08,0.7,0.25,0.69,0.68
		C202.75,250.82,202.53,251.01,201.97,250.93z"/>
	<path class="st74" d="M200.11,251.36c-0.05,0.35-0.23,0.56-0.57,0.58c-0.35,0.02-0.56-0.2-0.59-0.53
		c-0.02-0.29,0.23-0.41,0.47-0.42C199.72,250.97,200.03,250.98,200.11,251.36z"/>
	<path class="st36" d="M59.12,230.1c0.68-5.23,1.28-10.48,3.69-15.29c0.45-0.9,0.92-1.83,2.09-2c2.73,2.26,5.63,4.27,8.68,6.07
		c-0.55,1.22-1.1,2.43-1.58,3.69c-0.18,0.47-0.2,1.25-1.09,1.05c-0.5-0.66-0.46-1.48-0.59-2.23c-0.24-1.36-0.9-1.34-1.88-0.75
		c-0.88,0.54-1.38,1.32-1.54,2.31c-0.59,3.58-0.55,7.15-0.03,10.74c0.14,0.96,0.78,1.43,1.44,1.94c0.49,1.35-0.07,2.63-0.26,3.93
		c-2.95,0.54-3.89,2.72-4.42,5.32c-0.4,1.96,0.64,3.43,1.4,5.05c0.46,0.98,1.57-0.29,1.96,0.68c0.32,0.9,0.04,1.77-0.11,2.64
		c-0.58,3.22-1.37,6.4-1.48,9.69c-0.6,5.49-1.11,11.11,0.07,16.45c1.42,6.41,1.57,12.92,2.66,19.34c1.49,8.75,2.94,17.5,4.58,26.22
		c0.12,0.64,0.02,1.31,0.29,1.87c-0.11-0.68-0.46-1.43,0.26-2.06c0.91,3.19,0.91,3.19-2.26,3.2c-0.47,0-0.95,0.05-1.42,0.08
		c-1.43-0.14-2.86-0.27-4.3-0.41c-0.59-1.39-0.68-2.87-0.71-4.35c-0.14-6.73-1.01-13.38-1.9-20.04c-0.02-0.16-0.17-0.3-0.27-0.45
		c-0.63-3.94-1.11-7.92-1.93-11.83c-0.99-4.7-1.34-9.45-1.62-14.21c-0.27-4.65-0.3-9.32-0.45-13.98c-0.24-7.77-0.49-15.53-0.74-23.3
		c0.03-0.36,0.05-0.72,0.08-1.08c0.79-2.24,0.8-4.62,1.22-6.92C59.03,231.03,58.83,230.54,59.12,230.1z"/>
	<path class="st75" d="M71.08,223.66c0.46-1.19,0.94-2.38,1.39-3.57c0.21-0.56,0.41-1.11,1.11-1.21c0.22,0.14,0.45,0.28,0.68,0.43
		c0.21,0.46,0.78,0.83,0.37,1.45c-1.16,3.43-1.25,7.05-1.8,10.58c-0.98,6.19-1.9,12.39-2.85,18.58c-0.59,3.74-0.73,7.59-1.75,11.22
		c-1.71,6.08-0.95,12.23-1.19,18.35c-0.02,0.58,0.12,1.37-0.66,1.47c-0.84,0.11-1.02-0.59-1.13-1.3c-0.8-5.12-0.66-10.26-0.3-15.4
		c0.03-0.47,0.27-0.93-0.04-1.39c0.04-3.52,0.99-6.9,1.6-10.33c0.14-0.77,0.21-1.52,0.18-2.29c-0.57-1.84,0.55-3.33,1.18-4.83
		c0.7-1.7,1.25-3.17-0.16-4.72c-0.2-0.22-0.17-0.55,0.01-0.83c0.14-1.45,0.28-2.9,0.42-4.35c-0.53-0.84,0.05-1.5,0.43-2.12
		c1.21-1.96,1.75-4.15,2.37-6.33c0.18-0.64,0.18-1.28-0.02-1.93C70.74,224.63,70.53,224.09,71.08,223.66z"/>
	<path class="st76" d="M64.9,262.87c0.45,0.35,0.39,0.87,0.34,1.32c-0.64,5.06-0.55,10.1,0.37,15.12c0.09,0.51-0.06,1.34,0.58,1.32
		c0.9-0.03,0.48-0.93,0.49-1.43c0.03-4.73,0.02-9.45,0.02-14.18c0-0.75-0.16-1.5,0.79-1.98c0.49-0.25,0.55-1.02,0.63-1.61
		c0.5-3.65,0.99-7.29,1.5-10.94c0.03-0.2,0.24-0.38,0.37-0.57c-0.28,5.13-1.47,10.15-2.05,15.24c-0.83,7.18-1.1,14.38,0.16,21.56
		c0.65,6.65,1.86,13.22,2.86,19.82c0.74,0.7,0.22,1.68,0.57,2.47c0.2,0.85,0.16,1.73,0.37,2.57c0.08,0.68,0.26,1.35,0.21,2.05
		c0.38,2.37,0.66,4.75,1.07,7.11c-0.19,0.88,0.43,1.75,0.04,2.63c0.01,0.47,0.03,0.93,0.04,1.4c0,0.89,0,1.78,0,2.66
		c-1.19-2.08-1.39-4.43-1.85-6.69c-1.69-8.35-3.04-16.77-4.24-25.2c-0.56-3.94-1.17-7.91-1.2-11.92c0-0.36,0.04-0.77-0.11-1.06
		c-2.04-4.01-1.17-8.33-1.3-12.53C64.48,267.64,64.31,265.23,64.9,262.87z"/>
	<path class="st77" d="M96.55,312.9c0.62,0.52,0.35,1.22,0.37,1.85c0.16,4.28-0.11,8.56-0.39,12.82c-0.11,1.62,1.39,2.54,1.33,4.1
		c-0.02,0.41,0.83,0.33,1.28,0.3c1.87-0.13,3.72,0.07,5.5,0.53c1.4,0.36,1.67-0.06,1.67-1.34c-0.03-5.51,0.01-11.02,0.02-16.53
		c0.57,0.94,0.11,1.99,0.35,2.97c0.34,4.88,0.05,9.77,0.15,14.65c0.02,0.96-0.46,1.13-1.26,0.86c-3.07-0.73-6.2-0.77-9.33-0.79
		c-0.7-1.78-0.37-3.64-0.23-5.44c0.11-1.42,0.22-2.83,0.17-4.26C96.3,319.39,96.42,316.14,96.55,312.9z"/>
	<path class="st78" d="M74.6,211.41c-0.12-0.01-0.24-0.02-0.35-0.02c-0.12-1.95-1.15-3.72-1.11-5.7c-0.05-0.44-0.49-1.01,0.39-1.13
		c0.53,2.3,1.67,4.43,1.81,6.83c-0.19-0.26-0.39-0.52-0.58-0.78C74.7,210.87,74.65,211.14,74.6,211.41z"/>
	<path class="st79" d="M81.05,228.66c0.58,0.91,0.99,1.84,0.37,2.9C81.08,230.62,80.32,229.74,81.05,228.66z"/>
	<path class="st78" d="M74.25,216.77c1.52,0.11,0.95-1.05,1.08-1.78c0.49,0.52,1.01,1.11,0.42,1.81
		C75.34,217.29,74.74,217.34,74.25,216.77z"/>
	<path class="st77" d="M96.23,309.31c0.66,1.04,0.23,2.18,0.31,3.28C96.01,311.54,96.28,310.41,96.23,309.31z"/>
	<path class="st78" d="M75.33,211.38c0.49,0.9,0.73,1.86,0.72,2.88C75.35,213.42,75.29,212.41,75.33,211.38z"/>
	<path class="st80" d="M74.63,220.75c-0.12-0.48-0.25-0.97-0.37-1.45C74.64,219.72,75.84,219.92,74.63,220.75z"/>
	<path class="st78" d="M74.96,213.55c-0.56-0.51-0.3-1.19-0.36-1.81C75.21,212.25,74.89,212.94,74.96,213.55z"/>
	<path class="st36" d="M128.94,300.97c0.4-2.99,1.86-5.67,2.53-8.58c4.02-10.23,6.88-20.78,8.65-31.62
		c0.44-2.72,1.56-5.38,0.45-8.27c-0.85-2.22-1.28-4.6-1.89-6.91c-0.23-1.93,0.68-3.63,1.18-5.39c0.5-1.78,0.94-3.59,1.77-5.26
		c0.85-0.61,1.35,0.12,1.76,0.6c0.61,0.7,1.29,0.9,2.15,0.71c0.71,0.87,0.47,1.95,0.67,2.93c0.67,3.34,1.68,6.61,2.15,9.99
		c0.07,2.07,0.01,4.16,0.73,6.15c0.35,0.7,0.24,1.41,0.08,2.13c-0.38,1.35,0.54,2.7,0.01,4.05c-0.18-0.09-0.22-0.24-0.2-0.42
		c-0.2,0.02-0.03,0.12-0.03,0.18c-0.05,0.52-0.2,1.02-0.23,1.54c-2.16,7.59-4.15,15.22-6.11,22.86c-0.82,3.17-1.71,6.33-3.01,9.36
		c-0.15,0.19-0.31,0.41-0.54,0.45c-2.5,0.41-3.11,2.23-3.41,4.38c-0.42,3.01-1.06,5.99-1.6,8.98c-0.35,1.93-0.75,3.85-0.44,5.82
		c-1.79-0.32-3.68-0.09-5.37-0.96c-0.6-0.43-0.85-1.02-0.65-1.72c0.45-1.54,0.76-3.13,1.48-4.37c-0.28,0.29-0.62,1.1-1.4,0.7
		c-0.73-0.38-0.27-1.09-0.11-1.61C128.12,304.79,128.42,302.85,128.94,300.97z"/>
	<path class="st55" d="M141.93,234.79c-1.08,3.6-2.17,7.2-3.25,10.8c-2.15-6.81-4.31-13.62-6.46-20.44
		c-0.59-1.88-1.11-3.78-1.73-5.64c-0.3-0.91-0.22-1.38,0.85-1.65c3.93-1,7.82-2.14,11.57-3.72c0.64-0.27,1.32-0.36,1.92-0.13
		c0.64,0.25,0.96-0.03,1.45-0.65c-0.23,1.83,0.3,3.38,0.26,4.98c-0.5,2.36-0.66,4.78-1.32,7.11c-0.19,0.68-0.33,1.38-0.68,2.01
		c-0.68,1.11-0.64,2.42-1.01,3.61C143.12,232.35,143.05,233.8,141.93,234.79z"/>
	<path class="st38" d="M104.9,215.01c-5.1,0.32-8.64-2.61-12.08-5.76c-0.22-0.2-0.4-0.45-0.55-0.71c-0.56-1-1.24-2.14-0.5-3.18
		c0.72-1.01,1.87-0.35,2.82-0.1c0.98,0.25,1.97,0.51,2.91,0.87c1.73,0.67,3.36,1.74,5.14-0.06c0.56-0.57,1.53-0.37,2.31,0.2
		c1.12,0.81,2.16,1.67,2.93,2.86c1.56,2.39,1.59,2.79-0.71,4.28c-1,0.65-0.83,1.47-0.93,2.32c-0.48-0.4-0.2-1.01-0.45-1.52
		C105.5,214.48,105.2,214.74,104.9,215.01z"/>
	<path class="st40" d="M103.04,222.53c-0.01-0.11-0.01-0.23,0-0.34c0.47-0.51-0.11-1.31,0.53-1.88c0.78,0.62,0.01,1.63,0.6,2.23
		c0.44,0.54,0.17,1.22,0.37,1.81c-0.08,2.06,0.09,4.1,0.34,6.14c0.31,3.82,0.06,7.64,0.14,11.46c-0.08,2.88,0.17,5.77-0.13,8.65
		c0,0.13,0,0.27,0,0.4c0.19,5.39,0.31,10.79-0.06,16.18c-0.59,0.62-0.58,1.43-0.6,2.18c-0.15,4.59,0.48,9.13,0.99,13.67
		c0.28,0.7,0.21,1.42,0.05,2.13c0.29,5.04,0.75,10.07,0.71,15.13c0.34,1.42-0.09,2.89,0.24,4.31c0.01,0.48,0.01,0.96,0.02,1.44
		c-1.46-1.95-1.59-4.34-2.01-6.58c-0.54-2.91-0.93-5.88-0.83-8.87c1.02,0.16,0.8,1.04,0.92,1.67c0.45,2.35,0.27,4.78,0.89,6.89
		c-0.56-3.97-0.57-8.19-0.85-12.39c-0.26-3.88-0.62-7.75-0.92-11.63c-0.23-2.94-0.38-5.85,0.26-8.76c0.18-0.82,0.34-1.67,0.21-2.5
		c-0.51-3.27,0.05-6.58-0.3-9.86c-0.09-0.83-0.09-1.67-0.33-2.48c0.72-4.06-0.45-8.01-0.74-12.01c-0.03-0.38-0.24-0.66-0.57-0.86
		c-0.06-4.55-0.02-9.1,0.71-13.6C103.17,224.27,102.59,223.33,103.04,222.53z"/>
	<path class="st40" d="M144.11,227.23c0.77-1.96,1.12-4.01,1.47-6.07c0.17-0.98,0.18-2.05,0.96-2.83c0.25,1.79,0.5,3.59,0.74,5.38
		c0.36,0.33,0.17,0.76,0.22,1.14c0.07,1.2-0.16,2.42,0.14,3.61c0.03,0.91,0.06,1.83,0.09,2.74c0.34,1.1-0.1,2.27,0.27,3.37
		c0.02,0.43,0.03,0.87,0.05,1.3c0.3,1.06,0.19,2.13,0.06,3.2c0,0.96-0.01,1.93-0.01,2.89c0.33,1.78-0.07,3.6,0.21,5.38
		c0.02,0.6,0.04,1.2,0.05,1.8c-1.41-3.75-2.26-7.64-2.84-11.59c-0.07-0.46,0.08-0.97-0.3-1.36c-0.65-0.92-0.1-1.84,0.02-2.75
		c0.17-1.23,0.24-2.33-0.9-3.24C143.3,229.37,143.93,228.25,144.11,227.23z"/>
	<path class="st81" d="M151.64,199.51c0.36,4.08,0.73,8.16,1.09,12.24c-0.43-1.44-0.86-2.87-1.46-4.84c-0.29,1.67-0.5,2.9-0.71,4.13
		c-0.23,0-0.46,0-0.69,0c-0.49,0-0.98-0.01-1.47-0.01c2.09-1.22,1.61-3.26,1.63-5.14c0.03-2.51-0.14-5.02,0-7.53
		c0.35-0.64-0.17-1.97,0.69-1.94c0.93,0.04,0.65,1.3,0.73,2.07C151.5,198.83,151.39,199.2,151.64,199.51z"/>
	<path class="st82" d="M150.24,198.08c0,3.28-0.11,6.57,0.03,9.85c0.07,1.59-0.32,2.61-1.87,3.09c-2.68,0.59-5.18,1.79-7.9,2.22
		c2.02-1.3,4.38-1.73,6.6-2.52c2.52-0.89,2.75-1.06,2.75-3.74c0-3.32-0.01-6.63,0.01-9.95c0-0.63-0.24-1.33,0.35-1.85
		C150.73,196.15,150.35,197.12,150.24,198.08z"/>
	<path class="st83" d="M104.17,222.54c-0.7-0.43-0.23-1.2-0.51-1.8c-0.51,0.38-0.01,1.17-0.62,1.45c0.04-1.49-0.23-3.04,0.74-4.48
		c0.51,0.38,0.25,0.9,0.41,1.28C104.19,220.17,104.18,221.36,104.17,222.54z"/>
	<path class="st84" d="M147.36,224.7c-0.03-0.33-0.05-0.66-0.08-1c0.07-0.15,0.15-0.29,0.22-0.44c0.39,0.3,0.09,0.73,0.19,1.08
		c0,0.12-0.01,0.24-0.01,0.36C147.58,224.87,147.47,224.86,147.36,224.7z"/>
	<path class="st41" d="M157.43,241.24c0.62-2.49,2.38-4.31,3.68-6.4c0.62-1,1.12-0.79,1.35,0.23c0.92,4.07,2.52,8.07,1.26,12.54
		c-1.73-1.51-3.47-2.82-5.6-3.46C157.64,243.24,157.5,242.24,157.43,241.24z"/>
	<path class="st41" d="M153.12,214.25c0.33,0.21,0.65,0.3,0.93-0.07c0.61-0.82,1.52-1.12,2.44-1.33c0.5-0.12,1.22-0.81,1.53,0.05
		c0.3,0.85,1.28,1.76,0.31,2.76c-1.36,1.4-2.58,2.97-4.52,3.65C153.58,217.62,153.35,215.94,153.12,214.25z"/>
	<path class="st85" d="M180.45,306.78c1.54,1.55,0.76,3.43,0.74,5.2c-0.02,2.36-0.03,2.36,2.38,2.36c1,0,2.01,0.03,3.01,0.05
		c-2.14,0.63-4.32,0.19-6.48,0.3c0.09-0.22,0.26-0.44,0.27-0.66C180.41,311.61,180.43,309.19,180.45,306.78z"/>
	<path class="st86" d="M105.57,333.12c1.24,0.11,1.08-0.76,1.08-1.53c0.01-4.66,0.02-9.32,0.03-13.98c0.55,0.54,0.32,1.24,0.32,1.87
		c0.03,4.64,0.02,9.29,0.03,13.93C106.52,333.41,105.98,333.58,105.57,333.12z"/>
	<path class="st84" d="M104.83,267.18c0.02-5.39,0.04-10.79,0.06-16.18c0.07,0.09,0.21,0.18,0.21,0.27
		c0.02,5.16,0.04,10.33,0.04,15.49C105.13,266.91,104.93,267.04,104.83,267.18z"/>
	<path class="st87" d="M104.9,241.98c-0.01-3.83-0.01-7.66-0.02-11.5c0.64,1.11,0.28,2.32,0.31,3.47c0.06,2.67,0.01,5.35,0.01,8.02
		C105.1,242.14,105,242.15,104.9,241.98z"/>
	<path class="st88" d="M104.9,241.98c0.1,0,0.2,0,0.3,0c0,2.37,0.01,4.74,0,7.12c0,0.52,0.16,1.08-0.31,1.51
		C104.89,247.73,104.9,244.86,104.9,241.98z"/>
	<path class="st89" d="M106.35,312.15c-0.01-1.66-0.01-3.32-0.02-4.97C106.85,308.83,106.82,310.49,106.35,312.15z"/>
	<path class="st36" d="M106.22,304.6c-0.55-1.41-0.25-2.87-0.24-4.31C106.42,301.71,106.22,303.16,106.22,304.6z"/>
	<path class="st90" d="M105.27,285.16c-0.02-0.71-0.03-1.42-0.05-2.13C105.76,283.73,105.74,284.44,105.27,285.16z"/>
	<path class="st91" d="M33.59,33.22c-2.98,0.04-4.96-1.9-6.95-3.67c-1.23-1.1-2.18-2.53-3.06-3.96c-0.73-1.18-0.6-1.79,0.91-1.72
		c5.82,0.27,11.58-0.58,17.37-0.85c0.26,0.12,0.53,0.24,0.79,0.36c-0.33,1.09,0.69,0.85,1.15,1.15c0.47,0.31,1.09,0.56,0.15,1.05
		c-3.05-0.17-6.09-0.18-9.14-0.15c-0.72,0.01-1.44-0.08-2.14,0.12c-0.86,0.23-1.77,0.12-2.62,0.53c-1.01,0.49-1.22,1.1-0.44,1.93
		c1.45,1.53,3.05,2.87,5.14,3.46c0.64,0.31,1.48,0.32,1.78,1.16c-0.87,0.85-2.03,0.02-2.97,0.52L33.59,33.22z"/>
	<path class="st92" d="M32.13,25.25c3.42-0.58,6.86-0.37,10.3-0.19c0.65,0.04,1.3,0.13,1.94,0.2c0.65-0.54,1.31-1.03,2.23-0.71
		c0.63-0.46,1.32-0.49,2.01-0.2c0.24,0.1,0.67,0.18,0.48,0.55c-0.1,0.2-0.49,0.25-0.75,0.36c-1.01,0.04-1.44,0.97-2.18,1.44
		c-3.26,2.26-5.63,5.41-8.28,8.28c0.26-1.18-1.05-0.89-1.4-1.49c0.2-0.33,0.37-0.68,0.62-0.98c1.42-1.49,2.84-2.96,4.02-4.67
		c0.69-1,0.26-1.17-0.6-1.31c-3.29-0.26-6.64,0.31-10.12-0.41C31.04,25.19,31.74,25.68,32.13,25.25z"/>
	<path class="st93" d="M61.97,11.24c-0.58,2.83-0.71,5.71-0.75,8.59c-1.93,0.24-3.29-1.1-4.88-1.78c0.43-2.26,0.13-4.56,0.31-6.83
		C58.42,10.99,60.2,10.97,61.97,11.24z"/>
	<path class="st94" d="M61.56,27.78c0.36,0.01,0.72,0.03,1.08,0.02c1.56-0.04,2.15,0.94,2.19,2.27c0.04,1.28-1.28,2.15-2.68,2
		c-1.79-0.19-2.48-1.48-3.02-2.93C59.89,28.61,60.6,27.96,61.56,27.78z"/>
	<path class="st95" d="M46.6,24.55c-0.74,0.26-1.34,0.92-2.23,0.71c-0.54-0.56-1.35-0.38-1.98-0.7c-0.32-0.17-0.75-0.26-0.73-0.67
		c0.04-0.62,0.65-0.35,0.99-0.5C43.98,23.71,45.51,23.38,46.6,24.55z"/>
	<path class="st96" d="M67.42,27.48c-0.58,0.88-1.25,0.83-1.84,0.06c-0.75-0.98,0.03-1.46,0.75-1.92
		C67.01,26.06,66.26,27.33,67.42,27.48z"/>
	<path class="st97" d="M71.49,24.21c0.57,0.12,1.14,0.35,0.72,1.04c-0.57,0.94-1.28,0.49-1.93,0.01
		C70.5,24.7,71.14,24.63,71.49,24.21z"/>
	<path class="st98" d="M46.17,26.71c0.57-0.72,0.49-2.41,2.18-1.44c-0.37,0.48-0.74,0.96-1.11,1.44
		C46.88,26.71,46.53,26.71,46.17,26.71z"/>
	<path class="st99" d="M133.61,314.63c-0.87-0.87-0.81-1.98-0.62-3.03c0.79-4.51,1.69-9,2.45-13.52c0.39-2.32,2.09-2.8,3.95-3.19
		c0.19,0.22,0.27,0.67,0.73,0.38c-0.89,4.26-2.25,8.4-3,12.7c-0.41,2.35-0.43,4.71-0.63,7.07
		C135.51,315.05,134.53,315.07,133.61,314.63z"/>
	<path class="st100" d="M128.94,300.97c-0.14,2.4-0.84,4.7-1.41,7.04c0.97,0.19,1.13-0.57,1.72-1c0,1.6-0.56,2.93-1.02,4.28
		c-0.28,0.82-0.49,1.59,0,2.39c-0.23-0.02-0.46-0.04-0.68-0.06c-1-1.26-1.03-2.69-0.82-4.21
		C127.13,306.49,127.95,303.71,128.94,300.97z"/>
	<path class="st2" d="M174.71,198.42c0.33,0.27,0.33,0.65,0.36,1.03c0.15,1.34,1.37,2.27,1.41,3.65c-0.24,0-0.48,0-0.72,0
		c-1.67-0.55-1.79-0.42-1.8,2.16c-0.17-0.24-0.49-0.47-0.49-0.71c-0.04-3.77-1.32-7.5-0.36-11.53c0.81,0.85,0.87,1.7,0.86,2.56
		C173.96,196.61,173.97,197.61,174.71,198.42z"/>
	<path class="st101" d="M177.64,193.02c-1.14-0.56-1.76-1.67-2.63-2.51c-0.62-0.88-0.19-1.9-0.38-2.84
		c-0.02-0.42-0.48-1.01,0.4-1.11C175.99,188.68,176.95,190.79,177.64,193.02z"/>
	<path class="st2" d="M173.63,190.63c-0.1,0.73,0.2,1.74-0.57,1.77c-0.92,0.04-0.49-0.98-0.5-1.52c-0.01-0.57-0.4-1.58,0.45-1.64
		C174.03,189.16,173.34,190.25,173.63,190.63z"/>
	<path class="st2" d="M174.33,217.87c0.59,1.56,0.59,3.12,0,4.68C173.98,220.99,173.58,219.43,174.33,217.87z"/>
	<path class="st102" d="M175.03,186.56c-0.44,0.26-0.28,0.73-0.4,1.11c-0.51-0.7-0.24-1.48-0.37-2.31
		C174.94,185.63,174.99,186.09,175.03,186.56z"/>
	<path class="st103" d="M140.12,295.27c-0.42,0.22-0.73,0.22-0.73-0.38c1.75-5.32,3.25-10.72,4.51-16.18
		c1.26-5.47,2.99-10.8,4.51-16.2c0.72-0.02,0.5,0.42,0.4,0.81c-1.53,7.23-3.55,14.34-5.52,21.45c-0.16,0.57-0.38,1.12-0.36,1.72
		C142,289.42,141.06,292.34,140.12,295.27z"/>
	<path class="st36" d="M148.31,247.35c-0.53-1.78-0.22-3.59-0.21-5.38C148.54,243.75,148.33,245.55,148.31,247.35z"/>
	<path class="st104" d="M148.81,263.32c-0.06-0.31-0.08-0.63-0.4-0.81c0.16-0.62,0.31-1.24,0.55-2.22c0.12,0.63,0.17,0.91,0.22,1.18
		C149.07,262.09,149.24,262.77,148.81,263.32z"/>
	<path class="st2" d="M147.36,224.7c0.11,0,0.22,0,0.33,0c-0.01,1.25-0.03,2.5-0.04,3.75C147.19,227.23,147.4,225.96,147.36,224.7z"
		/>
	<path class="st2" d="M148.01,234.57c-0.43-1.1-0.23-2.24-0.27-3.37C148.35,232.28,147.94,233.45,148.01,234.57z"/>
	<path class="st105" d="M148.11,239.08c-0.02-1.07-0.04-2.14-0.06-3.2C148.61,236.93,148.57,238,148.11,239.08z"/>
	<path class="st106" d="M149.18,257.44c-0.03-0.71-0.05-1.42-0.08-2.13C149.71,255.99,149.69,256.71,149.18,257.44z"/>
	<path class="st107" d="M176.13,271.86c0.51-0.35,0.29-0.88,0.34-1.34c0.76,1.54,1.2,3.18,1.52,4.85c0.16,0.42-0.07,0.5-0.42,0.45
		C177.25,274.45,176.3,273.3,176.13,271.86z"/>
	<path class="st108" d="M177.57,275.82c0.14-0.15,0.28-0.3,0.42-0.45c0.43,0.67,0.61,1.42,0.72,2.2
		C177.64,277.43,178.09,276.32,177.57,275.82z"/>
	<path class="st109" d="M180.44,212.47c0.65,1.63,1.29,3.27,1.47,5.04c-0.13,0.17-0.26,0.16-0.39,0c-0.39-1.25-0.78-2.51-1.18-3.75
		C180.2,213.3,179.91,212.86,180.44,212.47z"/>
	<path class="st110" d="M176.49,203.11c-0.37-1.25-1.69-2.15-1.41-3.65c0.82,1.1,1.4,2.33,1.81,3.63
		C176.75,203.09,176.62,203.1,176.49,203.11z"/>
	<path class="st111" d="M181.53,217.51c0.13,0,0.26,0,0.39,0c0.45,0.74,0.74,1.54,0.77,2.42
		C181.68,219.42,181.89,218.32,181.53,217.51z"/>
	<path class="st112" d="M177.57,204.55c0.47,0.62,0.85,1.28,0.77,2.1C177.73,206.08,177.11,205.51,177.57,204.55z"/>
	<path class="st113" d="M61.97,11.24c-1.77,0.55-3.55,0.56-5.32-0.02c0.06-0.21,0.1-0.6,0.2-0.62c1.65-0.26,3.31-0.24,4.96,0.02
		C61.89,10.64,61.92,11.03,61.97,11.24z"/>
	<path class="st114" d="M36.46,36.52c-0.07,0.61-0.38,1.04-1.01,1.03c-0.66,0-0.95-0.45-0.91-1.08c0.04-0.62,0.4-1.04,1.01-1.04
		C36.21,35.43,36.48,35.89,36.46,36.52z"/>
	<path class="st115" d="M36.06,40.82c0.01,0.58-0.24,0.97-0.81,1c-0.57,0.04-0.87-0.34-0.95-0.87c-0.08-0.54,0.13-0.98,0.69-1.06
		C35.67,39.79,35.91,40.28,36.06,40.82z"/>
	<path class="st116" d="M37.22,32.84c-0.04,0.44-0.29,0.64-0.72,0.66c-0.92-0.63-1.97-0.2-2.94-0.35c0.82-0.81,2.04,0.13,2.87-0.66
		C36.83,32.29,37.05,32.5,37.22,32.84z"/>
	<path class="st117" d="M71.65,311.6c-0.39-0.81-0.35-1.67-0.34-2.53c0-0.55-0.57-1.25,0.4-1.54c-0.04,0.98,0.09,1.93,0.4,2.86
		c0,0-0.05,0.01-0.05,0.01C71.72,310.73,72.12,311.31,71.65,311.6z"/>
	<path class="st118" d="M71.71,307.53c-0.54,0.41-0.23,1.04-0.4,1.54c-0.41-0.8-0.38-1.67-0.37-2.54c0.05-0.4,0.11-0.81,0.21-1.58
		C71.39,306.05,71.55,306.79,71.71,307.53z"/>
	<path class="st119" d="M72.85,320.81c-0.36-2.4-0.72-4.79-1.07-7.19c0.27-0.18-0.05-0.9,0.64-0.69c0.26,2.27,0.53,4.54,0.79,6.81
		C73.27,320.16,73.68,320.69,72.85,320.81z"/>
	<path class="st120" d="M72.85,320.81c0.4-0.26,0.3-0.69,0.36-1.07c0.74,1.35-0.08,2.94,0.92,4.3c-0.76,0.01-0.56-0.61-0.93-0.68
		C73.08,322.51,72.97,321.66,72.85,320.81z"/>
	<path class="st121" d="M72.41,312.93c-0.21,0.23-0.42,0.46-0.64,0.69c-0.04-0.67-0.08-1.35-0.12-2.02c0.12-0.41-0.01-0.9,0.41-1.2
		C72.18,311.24,72.3,312.08,72.41,312.93z"/>
	<path class="st38" d="M92.24,154.82c0.95,0.26,1.89,0.52,2.84,0.78c0.5,0.66,1.34,0.66,2.01,0.98c2.03,0.94,3.56,2.39,4.57,4.38
		c0.05,0.35,0.95,0.69,0.01,1.05c-1.79,0.69-3.03,2.09-4.3,3.43c-0.73,0.77-1.54,1.08-2.56,0.94c-3.36-0.46-6.74-0.79-9.92-2.12
		c-1.52-0.64-2.74-1.68-4.02-2.65c-0.87-0.66-1.16-1.58-0.02-2.33c1.38-0.91,2.44-2.1,3.22-3.54c0.77-1.41,1.91-1.93,3.47-1.59
		C89.07,154.76,90.62,155.02,92.24,154.82z"/>
	<path class="st38" d="M136.55,167.43c1.6,0.5,3.17,1.06,4.65,1.84c0.65,0.94,1.21,1.9,1.55,3.01c0.41,1.32,0.28,2.44-0.65,3.5
		c-1.31,1.49-2.34,3.18-3,5.06c-0.3,0.86-0.69,1.08-1.6,0.82c-3.49-0.98-6.68-2.56-9.6-4.7c-1.62-1.19-1.97-2.59-0.89-4.36
		c1.12-1.83,2.47-3.51,3.72-5.26c0.56-0.78,1.36-0.65,2.13-0.53C134.1,166.99,135.32,167.22,136.55,167.43z"/>
	<path class="st38" d="M58.35,175.52c0.09-1.7,0.3-3.28,1.1-4.84c1.62-3.16,5.02-2.89,7.59-4.19c0.56-0.28,0.82,0.38,0.97,0.82
		c0.81,2.31,2.42,4.33,1.94,7.09c-0.65,3.72-2.59,6.77-4.54,9.84c-0.43,0.68-1.39,1.34-2.12,0.48
		C60.98,182.03,58.41,179.43,58.35,175.52z"/>
	<path class="st38" d="M116.56,189.8c-2.84-0.56-5.64-1.33-8.28-2.62c-0.5-0.24-0.8-0.7-1.02-1.21c-0.79-1.85,0.33-4.87,2.11-5.86
		c1.4-0.77,3.02-1.05,4.37-2.01c0.47-0.33,1.47,0.12,2.23,0.15c0.9,0.03,1.83,0.15,2.68-0.04c2.15-0.47,3.09,1.12,4.2,2.35
		c0.55,0.6,0.62,1.55-0.02,2.14c-1.57,1.43-2.2,3.38-3.17,5.15C119,189.08,118.22,190.11,116.56,189.8z"/>
	<path class="st41" d="M134.7,193.66c0.56,1.8-0.56,3.42-1.13,5.14c-0.3,0.91-1.05,1.24-2.03,0.91c-2.66-0.9-4.69-2.81-6.88-4.43
		c-0.69-0.51-0.48-1.49-0.28-2.21c0.71-2.59,1.52-5.14,2.29-7.71c0.45-1.52,1.65-1.21,2.43-0.66
		C132.15,186.84,135.19,189.06,134.7,193.66z"/>
	<path class="st41" d="M150.24,198.08c-0.01-0.96-0.02-1.93-0.02-2.89c0.51-0.9,0.42-1.33-0.78-1.5c-1.65-0.23-3.25-0.77-4.79-1.45
		c-0.94-0.41-1.37-1.01-1.3-2.08c0.16-2.55,0.99-4.9,1.89-7.25c0.21-0.55,0.59-0.61,1.16-0.46c2.01,0.56,4.04,1.06,6.06,1.6
		c0.21,0.06,0.44,0.19,0.59,0.35c2.09,2.16,1.31,7.86-1.34,9.35c-0.7,0.39-0.58,0.8-0.43,1.31c0.42,1.46,0.42,2.95,0.36,4.45
		c-0.73-0.81,0.01-2.04-0.96-2.82C150.38,197.03,150.77,197.76,150.24,198.08z"/>
	<path class="st38" d="M56.2,127.57c-0.08-0.86,0.92-1.46,1.45-2.28c0.45-0.69,1.18-1.19,1.72-1.83c0.85-0.99,1.65-1.73,2.84-0.39
		c0.67,0.76,1.85,0.25,2.64,0.96c1.53,1.38,2.49,5.16,1.7,7.32c-0.69,1.88-1.85,3.48-3.15,4.97c-0.31,0.36-0.74,0.78-1.22,0.33
		c-2.47-2.38-4.52-5.07-5.91-8.22C56.21,128.27,56.24,128.07,56.2,127.57z"/>
	<path class="st40" d="M103.38,251.34c0.88,0.11,0.7,0.79,0.75,1.37c0.32,3.76,0.03,7.54,0.29,11.32c0.2,2.83-0.94,5.62-0.67,8.52
		c0.52,5.56,1,11.13,1.39,16.7c0.24,3.39,0.29,6.79,0.42,10.19c0.01,0.37-0.06,0.7-0.43,1c-1.11-2.74-0.91-5.61-1.36-8.36
		c-0.08-0.51,0.15-1.1-0.38-1.49c-0.78-1.74-0.4-3.64-0.6-5.44c-0.5-4.56-0.58-9.16-0.83-13.74c-0.33-6.09-0.4-12.19-0.39-18.28
		C101.4,251.74,101.97,251.11,103.38,251.34z"/>
	<path class="st38" d="M109.55,162.37c1.59-1.24,3.5-0.83,5.15-0.56c1.94,0.33,3.88,0.12,5.82,0.54c2.25,0.49,2.29,0.26,2.99,1.93
		c-1.23,2.37-3.03,3.67-5.86,3.58c-3.57-0.11-7.16,0-10.72-0.41c-0.64-0.07-1.3-0.24-1.89-0.49c-0.61-0.26-0.79-0.91-0.27-1.3
		C106.33,164.5,107.5,162.79,109.55,162.37z"/>
	<path class="st41" d="M92.97,223.7c0-0.66-0.04-1.32,0.01-1.97c0.15-2.03,3.2-3.85,5.02-3.02c0.41,0.19,0.37,0.58,0.43,0.92
		c0.23,1.29,0.45,2.57,0.67,3.86c0.06,0.35-0.01,0.77,0.15,1.05c1.55,2.73,0.41,5.53,0.24,8.3c-0.09,1.41-1.23,1.67-2.27,1.88
		c-1.04,0.21-1.66-0.44-2.07-1.34C93.71,230.31,92.89,227.1,92.97,223.7z"/>
	<path class="st38" d="M156.7,203.07c0.18-2.89,1.07-5.39,3.44-7.21c0.41-0.32,0.67-0.66,1.08,0.01c1.76,2.91,3.54,5.8,5.32,8.69
		c0.18,0.3,0.11,0.56-0.1,0.81c-1.32,1.62-2.41,3.42-4.02,4.79c-0.49,0.42-0.94,0.57-1.36-0.01c-1.41-1.99-3.11-3.79-4.07-6.08
		C156.86,203.75,156.8,203.4,156.7,203.07z"/>
	<path class="st41" d="M100.52,262.94c0.04,2.64-0.03,5.27-1.19,7.72c-0.22,0.47-0.4,1.07-1.04,1.13c-0.78,0.08-0.99-0.6-1.22-1.12
		c-1.57-3.43-2.83-6.97-3.98-10.56c-0.52-1.62,0.2-3.03,0.95-4.43c0.37-0.68,0.84-0.57,1.35-0.35c1.32,0.56,2.63,1.14,3.94,1.73
		c1.16,0.53,0.99,1.71,1.15,2.65C100.66,260.76,100.52,261.87,100.52,262.94z"/>
	<path class="st41" d="M79.2,143.39c0.28,0.7,0.57,1.39,0.85,2.09c-0.42,1.87-0.93,3.7-1.93,5.37c-0.66,1.09-1.4,1.22-2.3,0.34
		c-1.29-1.26-2.55-2.54-3.84-3.79c-0.86-0.84-0.76-1.85-0.48-2.85c0.56-2,1.87-3.59,3.03-5.25c0.42-0.61,0.68-0.32,1.07,0.11
		c0.8,0.88,1.7,1.69,2.55,2.52C78.51,142.41,78.64,143.06,79.2,143.39z"/>
	<path class="st122" d="M48.29,35.66c2.74-3.03,7.74-3.04,9.79-0.02c0.33,0.97,0.21,1.94,0.01,2.91c0.1,0.5,0.03,0.99-0.07,1.48
		c-0.45,1.31-0.61,2.66-0.64,4.04c-0.66,1.89-2.16,2.22-3.9,2.08c-1.32-0.1-1.82-1.13-2.12-2.14c-0.5-1.66-0.78-3.37-0.52-5.13
		c0.34-2.35,0.33-2.35-1.88-1.62C48.02,37.02,47.94,36.43,48.29,35.66z"/>
	<path class="st41" d="M113.11,174.3c-3.72,1.94-7.45,0.91-11.18,0.04c-0.95-0.22-1.04-0.66-0.68-1.56c1.04-2.63,3.15-3.4,5.69-3.48
		c1.68-0.05,3.36-0.07,5.04-0.02c1.9,0.06,2.88,1.97,1.88,3.59C113.43,173.26,113.39,173.84,113.11,174.3z"/>
	<path class="st41" d="M68.12,51.44c0.02,2.43-3.08,5.11-5.14,4.78c-0.06-0.01-0.13,0-0.18-0.03c-1.63-0.91-2.02-2.62-2.44-4.18
		c-0.34-1.27-0.59-2.74,0.8-3.76c0.67-0.49,1.26-1.09,1.94-1.57c0.73-0.51,1.02-1.9,2.43-1.16c1.29,0.67,2.59,1.13,2.29,3.08
		C67.67,49.62,68.03,50.72,68.12,51.44z"/>
	<path class="st41" d="M103.38,251.34c-1,0.19-1.51,0.87-1.81,1.78c-0.99-0.07-1.58-0.63-2.02-1.5c-1.69-3.34-1.31-6.82-0.62-10.26
		c0.29-1.45,1.83-2,3.04-2.68c0.33,0.27,0.91-1.23,1.07,0.12c0.39,3.3,0.74,6.6,1.09,9.91
		C104.23,249.66,104.19,250.61,103.38,251.34z"/>
	<path class="st41" d="M94.92,174.65c2.48,0.01,6.4,2.93,7.18,5.27c0.23,0.69,0.06,1.07-0.6,1.19c-4.06,0.78-7.93,0.63-11.15-2.44
		c-0.25-0.24-0.49-0.42-0.33-0.9c0.64-1.9,2.31-3.14,4.36-3.13C94.56,174.65,94.74,174.65,94.92,174.65z"/>
	<path class="st38" d="M168.89,227.24c0.42,1.6,1.99,1.96,3.12,2.71c1.18,0.79,1.42,1.38,0.54,2.51c-0.53,0.69-0.88,1.54-1.28,2.33
		c-0.57,1.13-0.99,2.39-2.37,2.83c-3.63-2.83-3.89-3.67-2.5-8.06c0.16-0.51,0.27-1.04,0.37-1.56
		C167.13,226.01,167.16,226,168.89,227.24z"/>
	<path class="st41" d="M66.76,152.36c3.37,0.04,4.01,0.91,3.26,4.2c-0.38,1.64-0.84,3.23-1.7,4.68c-0.46,0.77-0.97,1.02-1.55,0.04
		c-0.73-1.23-1.67-2.35-2.24-3.65c-0.71-1.59-0.04-3.25,0.39-4.81C65.14,151.98,66.18,152.49,66.76,152.36z"/>
	<path class="st41" d="M85.8,172.52c-2.97-0.48-5.34-2.25-7.83-3.77c-0.51-0.31-0.28-0.83,0-1.08c0.78-0.71,1.05-2.49,2.47-1.92
		c2.53,1.02,4.96,2.33,7.36,3.64c0.75,0.4,0.53,1.23,0.2,1.94C87.55,172.26,86.85,172.67,85.8,172.52z"/>
	<path class="st41" d="M164.89,223c-1.13,2.21-1.5,4.79-3.29,6.68c-0.51,0.54-0.91,0.34-1.29-0.21c-0.97-1.39-1.51-2.97-2.05-4.54
		c-0.27-0.78,0.24-1.36,0.67-1.93c0.21-0.28,0.41-0.59,0.65-0.85c0.69-0.76,1.06-2.47,1.95-2.21c1.19,0.35,2.11,1.65,3.13,2.56
		C164.78,222.6,164.81,222.81,164.89,223z"/>
	<path class="st41" d="M163.87,181.9c0.23,0.24,0.47,0.48,0.7,0.73c1.09,2.16,1.6,4.3,0.35,6.64c-0.73,1.36-1.53,1.51-2.71,0.73
		c-0.3-0.2-0.6-0.4-0.89-0.6c-2.31-1.6-2.46-2.04-1.12-4.42c0.68-1.21,0.84-2.77,2.23-3.53c0.2-0.19,0.44-0.21,0.69-0.16
		C163.45,181.4,163.66,181.65,163.87,181.9z"/>
	<path class="st123" d="M49.04,37.14c0.63-0.84,1.52-1.04,2.6-1.04c-0.25,2.39-0.59,4.73-0.09,7.09c0.24,1.13,0.67,2.1,1.81,2.59
		c0.13,0.2,0.1,0.37-0.08,0.51c-1.03,0.57-2.11,0.48-3.2,0.23c-2.3-1.97-2.72-4.47-2.08-7.29c0.15-0.66,0.33-1.26,0.9-1.67
		C48.84,37.38,48.88,37.24,49.04,37.14z"/>
	<path class="st124" d="M91.17,226.7c-0.02,0.26-0.03,0.62-0.1,0.97c-0.55,2.91-1.33,3.23-3.93,1.64c-0.1-0.06-0.25-0.1-0.3-0.19
		c-0.96-1.77,0.48-3.17,0.8-4.74c0.21-1.03,1.27-0.88,1.96-0.67C90.99,224.11,91.17,225.34,91.17,226.7z"/>
	<path class="st125" d="M142.92,199.89c-1.9,0.01-3.2-1.06-3.16-2.62c0.03-1.33,1.09-2.06,3.02-2.07c1.49-0.01,2.75,1.22,2.74,2.7
		C145.51,199.27,144.73,199.87,142.92,199.89z"/>
	<path class="st41" d="M59.48,102.21c0-1.64,1.6-3.61,3.2-4.03c0.63-0.17,0.63,0.19,0.8,0.61c0.91,2.32-0.18,4.22-1.39,5.98
		c-0.54,0.79-1.6,0.68-2.22-0.31C59.42,103.77,59.47,102.99,59.48,102.21z"/>
	<path class="st126" d="M149.87,176.61c-0.04,0.31-0.07,0.72-0.15,1.13c-0.17,0.9-0.52,1.43-1.53,0.79
		c-0.5-0.32-1.06-0.53-1.59-0.81c-1.98-1.04-2.46-2.71-1.41-4.69c0.17-0.32,0.36-0.5,0.67-0.34c1.25,0.68,2.52,1.34,3.71,2.12
		C150.12,175.19,149.77,175.93,149.87,176.61z"/>
	<path class="st126" d="M91.73,244.7c-0.89-1.55-1.49-2.71-2.21-3.79c-1.05-1.57-0.24-2.86,0.51-4.16c0.5-0.86,1.19-0.1,1.77-0.07
		c0.7,0.04,1.2,0.45,1.18,1.3C92.93,240.12,92.55,242.21,91.73,244.7z"/>
	<path class="st126" d="M77.47,157.87c-0.38,1.28-0.33,2.73-1.77,2.84c-1.33,0.1-2.02-1.02-2.55-2.12c-0.1-0.21-0.19-0.44-0.22-0.68
		c-0.15-1.05-0.56-2.47,0.12-3.06c0.62-0.54,1.63,0.62,2.32,1.17C76.12,156.62,77.57,156.62,77.47,157.87z"/>
	<path class="st126" d="M65.06,35.1c0.89,0.67,1.48,1.71,2.14,2.69c0.42,0.64,0.09,1.13-0.37,1.58c-0.26,0.25-0.48,0.55-0.77,0.76
		c-0.59,0.42-0.9,1.57-1.81,1.12c-1-0.49-1.53-1.48-1.51-2.67C62.76,37.64,64.37,35.08,65.06,35.1z"/>
	<path class="st125" d="M121.29,173.95c-1.52,0-3-0.23-2.93-1.84c0.07-1.68,1.63-1.78,3.02-1.78c1.22,0,2.22,0.27,2.16,1.74
		C123.48,173.58,122.59,174.17,121.29,173.95z"/>
	<path class="st127" d="M70.34,90.94c-0.39,1.21-0.31,2.7-1.98,2.69c-1.77-0.01-1.64-1.54-1.61-2.65c0.03-1.14,0.15-2.67,1.76-2.65
		C70.15,88.35,69.92,89.97,70.34,90.94z"/>
	<path class="st127" d="M70.07,42.89c1.28-0.03,2.07,0.48,2.02,1.87c-0.05,1.25-0.72,2.04-1.96,2.09c-1.18,0.04-2.26-0.58-2.17-1.83
		C68.03,43.96,68.51,42.75,70.07,42.89z"/>
	<path class="st128" d="M38.61,61.63c-1.6-2.4-4.04-2.24-6.46-2.13c1.78-1.48,5.4-1.34,6.95,0.28
		C39.94,60.64,39.94,61.31,38.61,61.63z"/>
	<path class="st129" d="M53.37,46.15c0-0.12,0-0.25,0-0.37c1.42-0.14,3.05,0.17,3.63-1.73c0.31-1.33,0.34-2.71,0.7-4.03
		c0-0.47,0-0.93,0-1.4c0.19-0.29,0.34-0.67,0.79-0.34c0.96,3.06,0.27,5.74-1.93,7.5C55.58,46.55,54.48,46.43,53.37,46.15z"/>
	<path class="st130" d="M90.81,215.87c0.03,1.07-0.72,1.51-1.57,1.54c-0.9,0.03-1.31-0.67-1.32-1.55c-0.01-0.9,0.51-1.24,1.36-1.25
		C90.16,214.6,90.81,214.83,90.81,215.87z"/>
	<path class="st131" d="M168.95,249.53c-1.73-0.85-1.16-2.46-1-3.72c0.13-1.02,0.68-0.25,0.98,0.15
		C168.89,247.15,169.4,248.34,168.95,249.53z"/>
	<path class="st49" d="M163.87,181.9c-0.25-0.11-0.49-0.22-0.74-0.34c-0.64-0.8-2.13-0.79-2.13-2.21c-0.11-0.35-0.23-0.7-0.34-1.05
		c0.52-0.05,1.04-0.1,1.46,0.31c-1.27,0.59-0.19,1.03,0.16,1.33C162.95,180.5,163.8,180.87,163.87,181.9z"/>
	<path class="st132" d="M53.37,46.15c1.09,0.05,2.16,0.02,3.2-0.36c-2.04,1.34-4.25,1.13-6.48,0.74
		C51.2,46.5,52.31,46.51,53.37,46.15z"/>
	<path class="st133" d="M73.52,204.55c-0.44,0.27-0.31,0.73-0.39,1.13c-0.46-0.9-0.67-1.87-0.72-2.88
		c-0.13-0.39-0.32-0.81,0.39-0.78C73.14,202.84,73.52,203.64,73.52,204.55z"/>
	<path class="st134" d="M161.01,179.35c0.31,1.12,1.79,1.12,2.13,2.21c-0.24-0.04-0.47-0.07-0.71-0.11
		C161.34,181.16,160.46,180.74,161.01,179.35z"/>
	<path class="st135" d="M58.5,38.29c-0.26,0.11-0.53,0.22-0.79,0.34c0.13-1,0.25-1.99,0.38-2.99C58.6,36.46,59.11,37.29,58.5,38.29z
		"/>
	<path class="st136" d="M59.11,64.84c-0.19,0.69-1.11,0.97-1.05,1.8c-0.75-0.06-1.28-0.26-0.53-1.04
		C57.94,65.17,58.5,64.93,59.11,64.84z"/>
	<path class="st137" d="M168.95,249.53c0.23-1.19-0.52-2.38-0.02-3.57c0.11,0.12,0.22,0.24,0.33,0.35c0.03,0.47,0.06,0.93,0.1,1.4
		C169.16,248.3,169.53,249.02,168.95,249.53z"/>
	<path class="st138" d="M53.7,157.64c-0.39-0.08-0.63-0.33-0.55-0.72c0.05-0.28,0.28-0.52,0.62-0.48c0.4,0.05,0.63,0.32,0.56,0.71
		C54.27,157.43,54.04,157.64,53.7,157.64z"/>
	<path class="st139" d="M64.47,203.52c0.15-0.14,0.3-0.29,0.45-0.43c0.72,0.6,1.27,1.3,1.4,2.27
		C65.6,204.84,64.96,204.25,64.47,203.52z"/>
	<path class="st140" d="M49.04,37.14c-0.05,0.14-0.09,0.28-0.14,0.42c-1.37-0.26-1.71-0.85-0.61-1.9
		C48.33,36.26,48.36,36.86,49.04,37.14z"/>
	<path class="st141" d="M72.8,202.03c-0.32,0.17-0.35,0.48-0.39,0.78c-0.51-0.58-0.3-1.32-0.67-2.06
		C72.53,201.02,72.77,201.45,72.8,202.03z"/>
	<path class="st83" d="M103.04,222.53c-0.12,0.84,0.34,1.77-0.35,2.53C102.79,224.22,102.39,223.3,103.04,222.53z"/>
	<path class="st142" d="M113.11,174.3c0-0.61,0.08-1.17,0.74-1.43C113.78,173.44,113.61,173.95,113.11,174.3z"/>
	<path class="st49" d="M162.81,179.01c0.74-0.06,1.11,0.69,1.77,0.8C163.66,180.26,163.12,179.89,162.81,179.01z"/>
	<path class="st143" d="M59.12,230.1c-0.12,2.28-0.22,4.56-0.37,6.84c-0.04,0.66-0.23,1.29-1.02,1.46
		C57.42,235.51,58.72,232.88,59.12,230.1z"/>
	<path class="st144" d="M15.57,56.23c0.65-0.07,1.31-0.17,1.93,0.11c0.58,0.27,1.03,0.63,0.74,1.38c-0.25,0.63-0.72,1.06-1.37,0.71
		c-1.29-0.69-2.53-0.36-3.8-0.04c-0.73-0.76-0.7-0.93-0.03-1.51C13.78,56.25,14.76,56.59,15.57,56.23z"/>
	<path class="st145" d="M15.57,56.23c-0.47,0.6-1.24,0.19-1.79,0.54c-0.6,0.38-1.59,0.58-0.73,1.62c-0.21,0.33-0.52,0.57-0.88,0.43
		c-0.32-0.13-0.22-0.53-0.15-0.79C12.5,56.08,14.06,56.19,15.57,56.23z"/>
	<path class="st41" d="M71.08,223.66c1.13,3.76-0.58,6.89-2.22,10.05c-0.3,0.57-0.5,1.19-0.75,1.79c-1.55,0.57-1.59-0.75-1.72-1.57
		c-0.59-3.72-0.53-7.46-0.02-11.19c0.07-0.51,0.34-1.01,0.6-1.48c0.64-1.17,1.86-1.67,2.98-1.64c0.94,0.03,0.63,1.37,0.92,2.1
		C71.11,222.3,71.03,223.01,71.08,223.66z"/>
	<path class="st41" d="M67.7,239.85c0.28,1.23,1.96,1.77,1.52,3.41c-0.22,0.84-0.77,1.46-1.01,2.25c-0.49,1.58-1.02,3.15-1.54,4.72
		c-0.94,1-1.42,0.99-2.24-0.37c-2.32-3.81-1.26-7,1.21-10.16C66.5,238.62,67.04,239.39,67.7,239.85z"/>
	<path class="st126" d="M144.11,227.23c0.03,1.24-0.42,2.5,1.38,3.2c0.92,0.36,0.4,1.86,0.34,2.83c-0.07,0.99-0.39,1.96-0.61,2.93
		c-0.11,0.66-0.1,1.51-1.08,0.6c-0.73-0.68-1.47-1.35-2.21-2.02C142.66,232.27,143.38,229.75,144.11,227.23z"/>
	<path class="st38" d="M139.21,216.87c1.02,1.61,1.89,2.96,2.75,4.32c0.62,0.98,0.16,1.83-0.57,2.36c-0.91,0.65-1.12-0.48-1.57-0.92
		C138.13,220.99,138.61,219.05,139.21,216.87z"/>
	<path class="st55" d="M37.22,32.84c-0.26-0.12-0.53-0.23-0.79-0.35c-0.6-0.24-1.21-0.47-1.81-0.71c0.2-0.84-0.59-0.77-0.98-0.98
		c-1.37-0.76-2.64-1.63-3.6-2.88c-0.79-1.03-0.53-1.71,0.79-1.71c3.44,0,6.88-0.25,10.31,0.13c0.43,0.1,1.04-0.22,1.26,0.35
		c0.17,0.46-0.38,0.67-0.61,0.99C40.44,29.57,39.06,31.41,37.22,32.84z"/>
	<path class="st146" d="M41.13,26.35c-3.74,0.16-7.51-0.31-11.44,0.32c1.55,2.48,3.83,3.6,6.28,4.66c-0.45,0.59-0.96,0.34-1.36,0.46
		c-2.48-0.47-4.14-2.19-5.75-3.92c-0.63-0.68-0.48-1.39,0.39-1.9c0.9-0.52,1.83-0.83,2.87-0.72c-0.22,0.42-0.7,0.33-1.03,0.74
		c2.73,0,5.46-0.01,8.19,0.01C39.91,26.01,40.6,25.77,41.13,26.35z"/>
	<path class="st147" d="M54.7,44.06c-0.84-0.03-1.38-0.42-1.34-1.29c0.04-0.81,0.38-1.56,1.28-1.67c0.91-0.11,1.23,0.55,1.29,1.34
		C56,43.33,55.66,43.94,54.7,44.06z"/>
	<path class="st148" d="M56.93,37.6c-0.05,0.62-0.37,0.99-1.01,0.99c-0.62,0-1.01-0.38-1.07-0.97c-0.06-0.66,0.38-0.96,0.99-0.96
		C56.46,36.65,56.83,36.98,56.93,37.6z"/>
	<path class="st135" d="M57.7,40.02c0.16,1.41-0.07,2.75-0.7,4.03C56.92,42.65,56.92,41.27,57.7,40.02z"/>
</g>
</svg>
