<?xml version="1.0" encoding="utf-8"?>
<!-- Generator: Adobe Illustrator 23.0.2, SVG Export Plug-In . SVG Version: 6.00 Build 0)  -->
<svg version="1.1" id="Camada_1" xmlns="http://www.w3.org/2000/svg" xmlns:xlink="http://www.w3.org/1999/xlink" x="0px" y="0px"
	 viewBox="0 0 253.47 329.32" style="enable-background:new 0 0 253.47 329.32;" xml:space="preserve">
<style type="text/css">
	.st0{fill:#D6CFCC;}
	.st1{fill:#472617;}
	.st2{fill:#482717;}
	.st3{fill:#492818;}
	.st4{fill:#4B291A;}
	.st5{fill:#682B14;}
	.st6{fill:#4A2919;}
	.st7{fill:#613F2E;}
	.st8{fill:#BAAEA9;}
	.st9{fill:#E0DBD8;}
	.st10{fill:#6F391C;}
	.st11{fill:#5A201E;}
	.st12{fill:#CF883D;}
	.st13{fill:#70391C;}
	.st14{fill:#B15B25;}
	.st15{fill:#672A14;}
	.st16{fill:#FEFEFE;}
	.st17{fill:#B25B25;}
	.st18{fill:#B1653D;}
	.st19{fill:#EDC774;}
	.st20{fill:#EEC976;}
	.st21{fill:#B2663D;}
	.st22{fill:#682C15;}
	.st23{fill:#B15D26;}
	.st24{fill:#B0653C;}
	.st25{fill:#AB6039;}
	.st26{fill:#ECC774;}
	.st27{fill:#AA613A;}
	.st28{fill:#B97D35;}
	.st29{fill:#6A2D16;}
	.st30{fill:#AA6139;}
	.st31{fill:#623720;}
	.st32{fill:#954D2D;}
	.st33{fill:#A05834;}
	.st34{fill:#E9E2DD;}
	.st35{fill:#773F1F;}
	.st36{fill:#A76A34;}
	.st37{fill:#825B41;}
	.st38{fill:#C9C0BD;}
	.st39{fill:#956237;}
	.st40{fill:#9A512F;}
	.st41{fill:#72594E;}
	.st42{fill:#AA5B27;}
	.st43{fill:#804D2A;}
	.st44{fill:#A75F39;}
	.st45{fill:#734E2F;}
	.st46{fill:#EECA76;}
	.st47{fill:#CF883E;}
	.st48{fill:#482617;}
	.st49{fill:#B1682C;}
	.st50{fill:#8F4D2B;}
	.st51{fill:#95512E;}
	.st52{fill:#4E2918;}
	.st53{fill:#E9C06D;}
	.st54{fill:#E3DBD6;}
	.st55{fill:#3A221F;}
	.st56{fill:#713A1D;}
	.st57{fill:#925B2F;}
	.st58{fill:#EFEAE8;}
	.st59{fill:#F1EDEB;}
	.st60{fill:#782934;}
	.st61{fill:#B1464E;}
	.st62{fill:#7C3638;}
	.st63{fill:#F0EBE8;}
	.st64{fill:#EEE8E4;}
	.st65{fill:#6D381C;}
	.st66{fill:#C2B7B4;}
	.st67{fill:#B05F62;}
</style>
<g>
	<path class="st0" d="M0.69,73.69L0.53,73.7l-0.17-0.02c0-1.68,0-3.36,0-5.04c0.11-0.01,0.22-0.02,0.33-0.01
		C1.6,70.32,1.59,72,0.69,73.69z"/>
	<path class="st1" d="M54.03,105.47c2.56,4.61,5.09,9.23,6.46,14.39c1.71,6.42,1.44,12.93,1.29,19.48
		c-0.33,14.11-4.66,27.2-9.77,40.12c-3.34,8.43-5.85,17.12-7.54,26.02c-1.39,7.35-1.44,14.79-0.22,22.2
		c0.19,1.17,0.17,2.78,1.23,3.21c0.95,0.38,1.65-1.11,2.4-1.81c7.35-6.84,15.77-12.12,24.55-16.85c7.11-3.83,13.73-8.17,19.59-13.86
		c10.14-9.86,17.55-21.62,24.54-33.72c2.06-3.57,4.36-7.02,5.61-11.01c0.22-0.69,0.46-1.34-0.06-2.04c-3.52-4.72-5.35-10-4.99-15.93
		c-1.04-0.11-1.28,0.61-1.62,1.11c-1.38,1.99-2.36,4.17-2.89,6.53c-0.14,0.61-0.22,1.28-0.89,1.42c-0.79,0.17-1.16-0.49-1.48-1.08
		c-2.16-3.98-3.6-8.19-3.63-12.77c-0.03-3.84-0.24-7.67,0.01-11.51c0.15-2.22-0.54-4.38-1.01-6.55c-0.97-4.46-2.87-8.63-4.09-12.99
		C98.47,88.96,98.5,77.97,101.33,67c0.78-3.03,0.91-6.16,1.37-9.24c0.82-5.52,2.63-10.81,3.63-16.29c0.54-2.91,1.39-5.69,2.51-8.41
		c2.05-4.96,5.81-8.51,9.88-11.69c6.56-5.12,13.36-9.94,20.78-13.79c2.88-1.49,5.97-2.48,9.02-3.52c1.55-0.53,3.23-0.36,4.82-0.24
		c4.81,0.38,9.39-0.48,13.94-1.97c5.48-1.8,11.07-1.73,16.68-0.5c2.79,0.61,4.99,2.31,7.23,3.89c4.11,2.91,8.21,5.83,12.56,8.38
		c2.38,1.4,4.48,3.21,6.6,4.96c0.91,0.75,1.7,1.69,2.05,2.88c2.01,3.94,3.46,8.13,5.09,12.23c1.48,3.69,2.75,7.45,3.5,11.43
		c0.74,3.92,1.65,7.82,2.24,11.78c0.29,1.98,0.08,3.77-1.79,4.97c-0.67-0.53-0.4-1.38-0.7-2.03c-0.39-1.36-1.36-2.43-1.9-3.71
		c-0.25-0.75-0.88-1.27-1.22-1.95c-0.28-0.55-0.81-1.18,0.2-1.59c0.68-0.06,1.23,0.42,2.13,0.63c-0.38-2.63-0.91-5.06-1.43-7.48
		c-1.53-7.05-4.11-13.75-6.88-20.38c-0.63-1.49-1.53-2.84-2.41-4.2c-0.48-0.74-0.96-0.85-1.47-0.01c-0.69,1.12-1.43,2.21-2.36,3.16
		c-0.67,0.68-0.61,1.41-0.04,2.09c2.15,2.58,3.28,5.69,4.47,8.76c1.13,2.92,1.29,6.06,1.6,9.14c0.22,2.16,0.47,4.24,2.16,5.82
		c-1.29,1.22-3.03,0.86-3.68-0.76c-0.55-1.36-0.41-2.83-0.67-4.24c-0.12-0.44-0.22-0.89-0.36-1.32c-0.29-1.33-0.41-2.75-1.99-3.52
		c1.27,2.08,1.42,4.32,1.44,6.52c0.02,1.92-1.05,2.92-3.18,3.52c-1.48,0.1-2.32-0.72-2.92-1.95c-1.09-2.24-1.29-4.61-1.02-7.03
		c0.18-1.62,2.47-3.47,4.41-3.73c0.41-0.06,0.82,0.07,1.37-0.1c-0.86-1.39-1.74-2.75-2.16-4.32c-0.42-1.18-0.8-2.38-1.51-3.43
		c-1.26-3.74-4.11-5.02-7.78-5.85c-3.56-0.8-7.02-2.11-10.71-1.56c-8.73,1.3-17.6,2.17-25.49,6.72c-0.73,0.42-1.39,0.93-2.07,1.42
		c-1.81,0.9-2.27,2.56-2.3,4.35c-0.14,7.37-2.32,14.24-4.89,21.06c-1.8,4.77-3.91,9.4-5.71,14.16c-0.08,0.19-0.19,0.35-0.34,0.49
		c-0.28,0.15-0.57,0.17-0.87,0.09c-1.24-1.11-0.72-2.42-0.31-3.65c0.9-2.73,2.03-5.38,3.09-8.06c1.43-3.59,2.31-7.31,3.09-11.07
		c0.51-2.47,0.96-4.95,1.68-7.36c1.05-3.53,1.41-7.16,1.8-10.79c0.08-0.72,0.18-1.44,0.5-2.09c0.39-0.8,0.98-1.17,1.63-0.32
		c0.5,0.65,0.88,0.61,1.46,0.15c3.93-3.12,8.68-4.27,13.4-5.38c2.84-0.66,5.72-1.2,8.62-1.66c2.22-0.35,4.4-0.81,6.67-0.89
		c4.47-0.16,8.6,1.49,12.9,2.2c1.12,0.18,2.25,0.42,3.32,0.79c1.81,0.62,3-0.01,3.92-1.54c0.25-0.41,0.52-0.81,0.77-1.21
		c0.73-0.92,0.06-1.4-0.6-1.85c-1.43-0.98-2.98-1.79-4.43-2.75c-4.28-2.84-8.77-5.38-12.84-8.73c-0.02,0.69,0.41,1,0.52,1.45
		c0.28,0.79,0.62,1.56,0.66,2.41c0.02,0.49-0.02,1.01-0.53,1.23c-0.52,0.22-0.93-0.11-1.25-0.47c-0.73-0.82-1.07-1.86-1.59-2.79
		c-0.7-1.24-1.1-2.66-2.12-3.71c-0.87-0.85-1.99-1.12-3.12-1.19c-5.62-0.32-11.21-0.19-16.66,1.76c2.97,0.72,5.61,1.98,7.94,3.87
		c0.46,0.76,1.27,1.58-0.29,2.05c-0.63,0.04-1.16-0.24-1.69-0.53c-6.11-3.36-12.71-4.66-19.59-4.28c-3.56,0.2-6.84,1.83-9.99,3.42
		c-5.79,2.91-11.36,6.21-16.55,10.14c-4,3.03-7.45,6.58-10.44,10.6c-1.05,1.42-1.68,3.05-2.23,4.7c-2.55,7.59-4.16,15.39-5.25,23.31
		c-0.4,2.86-0.95,5.67-1.63,8.47c-0.81,3.33-1.11,6.71-1.36,10.14c-0.29,3.97,0,7.9,0.14,11.84c0.18,5.35,1.36,10.59,3.22,15.62
		c1.54,4.16,3,8.33,3.44,12.84c0.39-1.45,0.39-1.45-0.04-2.6c-0.75-2.02-1.42-4.07-1.83-6.19c-0.56-5.93,0.38-11.69,2.22-17.3
		c0.75-2.27,1.01-4.53,0.92-6.87c-0.06-1.51,0.16-2.98,0.7-4.39c0.42-1.09,0.99-1.3,1.77-0.34c0.16-0.01,0.24-0.08,0.29-0.19
		c0.34-0.72,0.4-1.97,1.41-1.77c1.12,0.22,0.83,1.45,0.72,2.29c-0.17,1.36-0.23,2.75-0.72,4.05c-2.35,6.31-4.27,12.73-4.88,19.48
		c-0.33,3.72,0.08,7.27,2.37,10.44c0.83,1.15,1.28,2.57,2.28,3.64c0.48,0.52,0.95,1.04,1.77,1.41c0.11-1.88,0.15-3.6,0.48-5.3
		c0.47-2.43,1.83-4.26,3.7-5.78c0.52-0.42,1.11-0.72,1.83-0.6c0.79,0.24,1.05,0.86,1.13,1.6c0.03,0.49,0,0.97-0.11,1.45
		c-0.34,5.56,0.47,10.98,4.33,15.13c4.12,4.43,8.06,9,12.07,13.52c1.34,1.52,2.33,3.32,3.78,5.02c0.59-0.97,0.76-1.9,0.96-2.81
		c0.48-2.17,0.99-4.33,1.62-6.46c0.23-0.76,0.63-1.5,1.58-1.48c1,0.02,1.19,0.84,1.37,1.62c0.39,1.64,0.55,3.31,0.89,4.96
		c1.04,5.15,4.13,9.08,8.12,12.18c6.2,4.81,12.39,9.66,19.28,13.48c1.35,0.75,2.53,1.78,4.07,2.7c0.37-3.84,0.36-7.37-1.26-10.73
		c-0.38-0.78-1.15-1.78-0.12-2.38c0.95-0.55,1.64,0.51,2.11,1.23c1.33,2.05,2,4.35,2.15,6.78c0.08,1.2,0.02,2.4,0.04,3.6
		c0.06,1.53-0.73,2.83-1.19,4.21c-0.28,0.84-0.95,1.17-1.84,0.82c-6.26-5.06-13.44-8.77-19.96-13.45c-2.39-1.72-4.76-3.48-6.86-5.53
		c-3.68-3.6-5.95-8.03-7.14-13.48c-0.52,2.61-1.18,4.81-1.79,7.02c-0.58,2.11-1.45,2.36-2.92,0.76c-1.75-1.9-2.98-4.2-4.65-6.17
		c-3.99-4.7-7.82-9.55-12.2-13.91c-3.11-3.09-4.6-6.97-5-11.28c-0.1-1.08-0.27-2.13-0.58-3.21c-0.82,2.01-1.28,4.08-0.92,6.28
		c0.16,1.01,0.48,1.99,0.64,2.99c0.26,1.57-0.68,2.29-2.15,1.65c-1.56-0.68-2.74-1.92-4.09-2.91c-2.07-1.69-2.41-1.65-3.12,0.92
		c-1.7,6.13-1.87,12.23,0.6,18.63c1.14-1.83,1.76-3.59,2.95-4.98c0.62-0.65,1.23-1.3,1.96-1.83c1.85-1.33,2.82-0.97,3.42,1.29
		c0.29,7.28,2.72,13.52,8.88,17.84c2.6,1.82,5.57,3.01,8.54,4.11c1.78,0.67,3.53,1.48,5.43,1.81c2.37,0.41,2.47,0.36,2.48-2
		c-0.03-1.66-0.12-3.33,0.48-4.93c0.27-0.73,0.59-1.55,1.54-1.46c0.87,0.09,1.01,0.89,1.12,1.61c0.25,1.52,0.72,2.99,0.88,4.53
		c0.61,1.7,1.8,2.92,3.16,4.05c4.8,3.98,10.21,6.89,15.92,9.3c2.83,1.2,5.45,2.74,7.93,4.55c0.49,0.43,1.06,0.78,1.51,1.26
		c0.41,0.45,0.83,0.96,0.51,1.59c-0.4,0.77-1.01,0.33-1.55,0.13c-0.28-0.11-0.58-0.15-0.85-0.26c-0.68-0.21-1.2-0.78-2.39-0.98
		c2.89,5.34,2.1,10.99,2.26,16.76c1.69-0.84,2.6-2.05,3.49-3.28c1.29-1.78,2.12-3.74,2.39-5.93c0.07-0.53,0.19-1.06,0.37-1.57
		c0.18-0.51,0.36-1.11,1.03-1.05c0.65,0.05,0.77,0.65,0.9,1.18c0.52,2.27,1.23,4.49,1.99,6.69c0.91,2.63,2.61,4.67,4.65,6.48
		c1.88,1.67,3.86,3.22,5.6,5.04c0.5,0.53,0.96,1.07,1.15,1.79c0.63,1.8,2.03,3.18,2.59,5.07c0.63,2.11,0.91,4.18,0.64,6.34
		c-0.07,0.54-0.19,1.06-0.46,1.53c-0.26,0.46-0.53,1.06-1.17,0.9c-0.68-0.18-0.53-0.83-0.51-1.36c0.19-4.36-0.94-8.31-3.65-11.76
		c-0.6-0.77-1.37-1.32-2.33-1.56c-0.94-0.15-1.63-0.7-2.28-1.34c-3.01-2.99-6.22-5.84-7.7-10.23c-0.59,2.76-3.17,3.48-4.81,5.12
		c-0.34,0.34-0.77,0.57-1.22,0.74c-1.8,0.65-2.97-0.09-3.04-1.99c-0.07-1.86-0.02-3.72-0.02-5.57c0-4.01-0.73-7.85-2.38-11.52
		c-0.62-1.39-1.53-2.39-2.86-3.08c-2.4-1.23-4.82-2.42-7.41-3.21c-2.15-0.65-3.99-1.91-5.98-2.87c-1.46-1.05-2.77-2.28-4.14-3.44
		c-0.7-0.59-1.31-0.91-2.25-0.64c-1.1,0.32-2.29,0.31-3.39,0.03c-5.46-1.35-10.88-2.86-16.03-5.18c-0.38-0.17-0.75-0.38-1.11-0.59
		c-2.31-1.35-2.29-1.34-3.43,0.96c-5.49,11.11-12.09,21.56-19.65,31.33c-4.02,5.19-9.01,9.61-14.1,13.81
		c-3.23,2.67-6.41,5.42-10.26,7.21c-3.08,1.03-5.68,2.92-8.31,4.74c-0.73,0.51-1.43,1.06-2.12,1.62
		c-5.08,3.48-10.56,6.37-15.23,10.47c-2.26,1.98-4.3,4.17-6.42,6.29c-5.18,4.95-9.3,10.65-12.13,17.24c-1.56,3.63-2.12,7.5-2.2,11.4
		c-0.11,5.21-0.21,10.43,0.36,15.63c0.52,4.72,2.99,7.95,7.25,10.17c6.27,3.26,13.03,5.13,19.6,7.55c2.47,0.91,4.77,2.26,7.35,2.9
		c1.84,0.46,3.66,0.58,5.52,0.27c0.65-0.11,1.32-0.26,1.97-0.15c2.41,0.4,2.24,0.02,2.55-2.25c0.23-1.66,0.26-3.34,0.49-5.01
		c0.07-0.47,0.09-0.96,0.23-1.42c0.32-0.98,0.8-1.83,2.02-1.58c1.11,0.23,1.58,1.1,1.5,2.15c-0.1,1.37-0.33,2.74-0.41,4.11
		c-0.26,4.17-1.09,8.32-0.19,12.51c0.49,2.27,1.31,4.09,3.33,5.65c6.1,4.72,13.06,7.5,20.32,9.68c1.53,0.46,3.18,0.57,4.73,1.04
		c3.46,1.18,6.94,0.96,10.42,0.13c1.97-0.47,2.53-1.23,2.66-3.27c0.05-0.78,0.03-1.55,0.01-2.33c-0.05-2.42-1.19-4.07-3.47-4.93
		c-0.61-0.23-1.29-0.32-1.71-0.91c-0.5-1.12,0.18-1.49,1.09-1.67c1.15-0.23,2.18,0.17,3.18,0.7c3.88,2.31,4.37,5.97,3.95,9.99
		c-0.04,0.42-0.15,0.82-0.22,1.24c-0.2,1.17,0.33,1.4,1.33,1.03c2.5-0.93,4.03-2.54,4.35-5.34c0.3-2.68-0.13-4.99-2.21-6.82
		c-0.61-0.54-1.5-0.81-1.66-1.77c0.05-0.44,0.34-0.61,0.74-0.65c4.06,0.57,6.2,2.67,6.86,6.72c1.52-3.83,1.05-5.96-1.88-8.74
		c-0.52-0.49-1.12-0.9-1.63-1.4c-0.12-0.12-0.22-0.25-0.32-0.39c-0.59-1.13-1.44-1.98-2.6-2.46c0.3,1.01-0.33,1.16-1.16,1.14
		c-1.08-0.17-1.99-0.76-2.94-1.24c-3.33-1.7-6.68-3.34-10.21-4.59c-3.21-1.57-6.26-3.55-9.96-3.88c-0.77-0.07-1.53-0.29-2.26-0.57
		c-0.51-0.2-1.09-0.39-1.1-1.03c-0.01-0.76,0.66-0.91,1.23-1.1c1.17-0.4,2.36-0.34,3.55-0.09c1.07,0.22,1.81-0.14,2.42-1.08
		c6.16-9.65,11.17-19.81,14.08-30.95c1.39-5.33,0.88-10.7,0.76-16.08c-0.01-0.53-0.16-1.06-0.19-1.6c-0.17-3.48-0.27-3.61-3.69-4.7
		c-7.21-2.86-14.71-4-22.41-3.46c-8.61,0.61-17.04,2.07-24.61,6.65c-2.32,1.4-4.88,2.31-7.47,3.09c-0.6,0.18-1.41,0.62-1.82-0.03
		c-0.47-0.75,0.28-1.34,0.81-1.78c4.81-4.07,10.08-7.35,16.16-9.17c7.77-2.32,15.7-3.44,23.81-3.01c6.47,0.34,12.65,2.03,18.65,4.44
		c3.12,1.25,4.22,4.03,4.59,6.85c0.8,6.12,1.13,12.31-0.27,18.43c-0.46,1.99-0.96,3.96-1.73,5.86c-1.5,3.66-2.57,7.47-4.26,11.06
		c-2.07,4.41-4.62,8.53-7.35,12.76c9.72-5.91,20.2-9.88,30.42-14.38c3.61-1.59,6.14-4.31,8.61-7.15c0.73-0.84,0.73-2,0.88-3.07
		c1.15-5.67,1.6-11.35,0.98-17.13c-0.43-3.94,0.23-7.89,0.41-11.83c0.19-4,0.43-8,0.59-12c0.05-1.2,0.02-2.4,0.47-3.54
		c0.08-0.29,0.24-0.54,0.32-0.83c0.16-0.61,0.43-1.16,1.18-1.11c0.73,0.05,1.17,0.54,1.42,1.2c0.22,0.57,0.18,1.18,0.19,1.77
		c0.02,2.27-0.01,4.54,0.02,6.81c-0.19,7.06-0.61,14.12-1.01,21.17c-0.02,0.3-0.06,0.6-0.05,0.9c0.16,6.6-0.44,13.17-0.43,19.77
		c0,5.31,0.14,10.65-0.56,15.94c-0.08,0.6,0.03,1.19,0.09,1.79c0.26,2.69,0.35,5.39-0.24,8.06c-0.35,1.6-0.44,3.22-0.21,4.83
		c0.23,1.61,0.35,3.23,0.25,4.84c-0.27,4.35,2.4,8.93,7.55,9.58c2.12,0.26,4.01,1.19,5.8,2.32c1.32,0.84,2.71,1.56,4.16,2.13
		c3.75,1.47,7.37,3.19,10.96,5c2.36,1.19,4.81,2.17,7.5,2.33c1.2,0.01,2.39,0.03,3.59,0.03c3.73-0.02,5.36-2.35,4.15-5.97
		c-0.23-0.68-0.6-1.31-0.8-2c-0.32-1.11-0.48-2.19,0.95-2.65c1.37-0.44,2.63,0.15,2.97,1.52c0.53,2.12,0.3,4.28,0.16,6.44
		c-0.03,0.46-0.32,0.91,0.05,1.56c2.19-0.63,4.05-1.63,4.78-4.02c0.71-2.32,0.64-4.61-0.5-6.81c-0.14-0.27-0.3-0.52-0.42-0.8
		c-0.29-0.71-0.41-1.43,0.31-1.94c0.7-0.5,1.39-0.23,1.99,0.23c1.1,0.86,1.51,2.12,1.9,3.39c0.19,0.63,0.25,1.29,0.46,1.91
		c1.35-3.81-0.05-7.06-2.18-10.17c-1.92-2.51-4.38-4.02-7.6-4.17c-5.97-0.27-11.72-1.66-17.37-3.52c-0.68-0.22-1.34-0.51-2.04-0.7
		c-2.63-0.71-3.77-2.15-3.62-4.95c0.31-5.74,0.5-11.49,1.97-17.1c1.15-4.38,1.15-8.89,1.58-13.36c0.71-7.39,1.23-14.79,2.37-22.14
		c0.88-5.68,1.38-11.42,2.72-17.02c0.89-3.73,1.69-7.48,2.98-11.11c0.8-1.55,1.36-3.16,1.34-4.94c-0.01-0.63-0.01-1.49,0.82-1.57
		c0.9-0.09,1.08,0.76,1.27,1.46c0.79,2.86-0.2,5.53-0.84,8.24c-1.41,4.88-2.08,9.92-3.25,14.86c-0.89,3.73-0.73,7.58-1.33,11.39
		c1.88-1.77,3.37-3.83,5.13-5.65c1.35-1.38,2.27-3.17,3.95-4.25c1.89-1.12,3.32-2.75,4.65-4.43c2.4-3.05,4.87-6.07,7.01-9.32
		c0.2-0.3,0.41-0.59,0.7-0.81c0.19-0.15,0.41-0.29,0.65-0.19c0.32,0.14,0.36,0.45,0.33,0.76c-0.06,0.56-0.4,0.99-0.67,1.45
		c-2.24,3.76-4.98,7.17-7.65,10.63c-0.8,1.04-1.74,2.01-1.56,3.49c-0.71,4.44-0.97,8.92-0.98,13.41
		c-0.01,9.58-0.04,19.16,0.01,28.74c0.03,5.04-0.37,10.04-0.97,15.03c-0.43,3.57,0.23,4.97,3.4,6.75c3.34,1.88,6.69,3.73,9.8,5.98
		c3.29,2.93,7.37,4.12,11.48,5.24c2.49,0.84,4.98,1.2,7.57,0.4c2.99-0.92,4.13-3.33,2.85-6.22c-0.24-0.55-0.62-1.03-0.83-1.59
		c-0.42-1.14,0.04-1.76,1.24-1.64c1.1,0.11,1.87,0.75,2.41,1.67c1.08,1.84,1.49,3.77,0.75,5.85c-0.54,0.96,0.03,1.37,0.83,1.65
		c0.05,0.06,0.1,0.12,0.15,0.18c-1.79,1.44-3.91,2.07-6.11,2.51c-5.53,1.08-10.77,0.42-15.73-2.36c-1.08-0.61-1.77,0.09-1.5,1.11
		c1.03,3.87-1.11,6.65-2.96,9.6c-4.91,7.85-17.83,10.62-26.08,6.58c-5.49-2.69-11.29-4.67-16.66-7.63
		c-2.73-1.51-5.78-2.36-8.75-3.22c-6.83-1.97-7.9-5.55-7.87-11.51c0.03-7.37,0.43-14.74,0.65-22.11c0.07-2.28,0.08-4.56,0.09-6.83
		c0-0.53-0.01-1.09-0.14-1.6c-0.54-2.19-0.92-2.39-2.72-1.1c-5.31,3.82-11.34,6.09-17.35,8.54c-7.76,3.15-15.24,6.95-22.73,10.71
		c-1.12,0.56-1.07,1.43,0.14,2.1c1.47,0.81,3.05,1.45,4.68,1.81c7.32,1.62,13.69,5.26,19.85,9.31c2.36,1.55,3.18,3.82,2.92,6.68
		c-0.29,3.17-1.42,5.69-3.99,7.66c-1.36,1.04-2.61,2.36-3.56,3.79c-1.59,2.4-3.89,3.06-6.48,3.14c-2.94,0.1-5.83,0.45-8.73,0.99
		c-2.11,0.4-4.31-0.28-6.31-1.03c-2.48-0.94-5.01-1.61-7.59-2.17c-4.81-1.04-9.19-3.05-13.19-5.9c-2.59-1.84-5.26-3.55-7.77-5.52
		c-0.91-0.72-1.46-1.48-1.71-2.59c-0.45-1.99-0.89-3.98-1.05-6.01c-0.11-1.39-0.57-1.88-2.25-2.18c-5.7-1.01-11.6-0.87-17.1-3.1
		c-6.31-2.56-12.86-4.46-19.08-7.35c-7.47-3.47-9.97-9.56-10.75-16.95c-0.58-5.5-0.26-11.05,0.09-16.54
		c0.23-3.55,2.03-6.85,3.52-10.12c0.35-0.76,0.52-1.4,0.14-2.2c-3.62-7.61-4.55-15.87-5.5-24.06c-1.04-8.94,0.38-17.76,2.06-26.55
		c1.19-6.22,3.16-12.16,5.45-18.01c2.74-6.97,5.35-14.02,7.21-21.23c2.1-8.15,3.72-16.5,3.51-25.01c-0.1-3.82-0.46-7.67-2.12-11.23
		c-0.6-1.3-1.19-2.63-2.51-3.41c-0.98-0.24-1.43-1.01-1.81-1.84c-0.47-1.1-1.68-1.45-2.34-2.36c-0.69-0.77,0.11-2.24-1.26-2.68
		c-3.55-0.56-7.11-1.08-10.35-2.76c-4.09-1.67-7.81-3.94-11.13-6.86c-1.79-1.73-3.24-3.7-4.06-6.08c0.64-1.48,1.16-1.62,2.16-0.34
		c1.33,1.69,2.66,3.36,4.24,4.83c0.52,0.49,1.03,0.99,1.65,1.36c2.32,2.01,4.95,3.51,7.77,4.71c2.41,1.45,5.19,1.73,7.84,2.41
		c1.06,0.27,1.7-0.22,2.02-1.24c1.07-3.36,3.6-4.75,6.9-5.01c2.02-0.16,4.06-0.06,6.09-0.04c0.96,0.01,1.74,0.36,2.28,1.18
		c0.29,0.44,0.47,1.11,0.98,1.23C54.52,103.01,54.32,104.2,54.03,105.47z"/>
	<path class="st2" d="M181.43,171.24c0.58,0.32,1.22,0.44,1.38-0.37c0.3-1.47,1.34-2.73,1.15-4.32c0.46-0.14,0.67,0.19,0.84,0.49
		c3.02,5.4,7.56,9.37,12.31,13.15c1.23,0.88,2.15,2.09,3.31,3.05c1.6,1.74,3.07,3.57,3.84,5.86c-0.37,0.67-0.07,1,0.59,1.15
		c0.81,0.69,0.9,1.71,1.23,2.62c0.4,1.28,0.83,0.64,1.2,0c1.39-2.4,2.46-4.95,3.29-7.57c2.34-7.45,2.98-15.12,2.76-22.89
		c-0.01-0.3-0.13-0.58-0.19-0.88c-0.39-4.11-1.64-7.97-3.33-11.71c-0.29-0.65-1.04-1.53-0.09-2.04c0.85-0.46,1.37,0.49,1.78,1.12
		c1.83,2.8,2.88,5.91,3.58,9.15c0.56,2.38,0.89,4.8,1.15,7.62c2.57-2.17,4.26-4.57,5.38-7.35c1.08-2.69,1.58-5.53,1.44-8.44
		c-0.05-0.97-0.17-2.04,0.89-2.52c1.2-0.54,1.89,0.43,2.56,1.17c1.2,1.33,2.2,2.82,3,4.37c0.57,0.02,0.7-0.37,0.82-0.68
		c2.6-7.16,3.69-14.51,2.23-22.05c-0.57-2.96-2.03-5.62-3.86-8.05c-1.43-2.31-1.41-2.59,0.29-3.48c2.95-0.45,4.99,0.91,6.53,3.28
		c0.52,0.8,0.6,1.64,0.32,2.53c0.02,0.62-0.14,1.17-0.56,1.79c-1.28-2.07-1.71-4.78-4.73-5.46c-0.03,0.69,0.36,1.08,0.63,1.47
		c3.59,5.16,4.91,10.85,4.04,17.06c-0.13,0.93,0.1,1.67,0.54,2.53c1.37,2.7,1.82,5.68,2.2,8.65c0.54,4.24,0.35,8.5,0.32,12.76
		c-0.03,4.42,0.33,8.87-0.8,13.23c-1.35,5.2-3.76,9.96-6.08,14.75c-0.34,0.7-0.76,1.36-1.15,2.03c-2.23,3.76-3.92,7.72-3.72,12.2
		c0.18,4.06-0.9,7.96-1.38,11.93c-1.01,8.28-1.74,16.57-1.15,24.92c0.1,1.43,0,2.88-0.1,4.31c-0.78,11.16,0.24,22.27,0.81,33.4
		c0.15,2.9,1.55,4,3.8,5.12c4.17,2.07,8.5,3.17,13.15,3.02c0.55-0.02,1.06,0.14,1.55,0.39c2.41,1.22,4.83,2.4,7.23,3.63
		c0.8,0.41,1.54,0.91,1.9,1.81c0.22,1.61,0.07,1.75-1.27,1.25c-0.39-0.14-0.75-0.34-1.11-0.55c-3.17-2.63-6.88-3.79-10.94-3.95
		c-1.33-0.38-2.72-0.39-4.08-0.56c-3.43-0.42-6.46-1.75-9.22-3.75c-1-0.73-1.86-0.88-2.95-0.24c-1.13,0.67-2.32,1.26-3.69,1.33
		c-0.79-0.09-1.45-0.32-1.44-1.29c0.7-1.23,2.07-1.59,3.13-2.33c1.18-0.82,1.63-1.82,1.45-3.22c-0.78-6.07-0.71-12.2-1.12-18.28
		c-0.45-6.68,0.12-13.3,0.2-19.94c0.08-6.64,0.85-13.26,1.53-19.88c0.62-6.02,1.49-12.01,2.05-18.04c0.05-0.56,0.64-1.59-0.77-1.45
		c-1.04,0.03-1.92,0.27-2.07,1.52c-0.2,0.45-0.45,0.88-0.76,1.26c-0.73,0.83-1.66,1.49-2.17,2.51c-0.38,0.73-0.9,1.35-1.48,1.92
		c-1.02,0.85-1.75,1.88-2.02,3.2c-0.77,2.5-2.22,4.63-3.62,6.79c-2.65,4.14-5.71,7.98-8.87,11.75c-0.4,0.48-0.67,1.18-1.49,1.14
		c-0.31-1.55,0.91-2.38,1.67-3.38c2.88-3.79,5.83-7.53,8.25-11.64c0.08-0.14,0.05-0.34,0.14-1.04c-1.4,1.88-2.55,3.37-3.64,4.89
		c-2.5,3.49-5.1,6.89-8.26,9.83c-0.32,0.29-0.64,0.54-1.09,0.53c-0.13-1.11,0.7-1.72,1.3-2.43c3.91-4.64,7.64-9.41,10.78-14.61
		c0.91-1.5,1.62-3.06,2.04-4.77c0.15-0.62,0.05-1.51,1.04-1.64c0.53,0.48,0.28,1.25,0.62,1.86c0.55-1.65,0.55-1.65-0.77-2.15
		c-0.55-1.12-1.07-0.86-1.62,0.02c-1.44,2.3-3.19,4.32-5.1,6.25c-2.31,2.32-5.15,3.64-8.14,4.77c-0.79,0.3-1.12-0.04-1.32-0.7
		c-0.52-1.67-0.94-3.36-0.58-5.12c0.84-4.07-0.37-7.54-3-10.65c-0.71-0.84-1.67-1.57-1.81-2.8c1.1,0.1,2.01,0.72,2.51,1.55
		c1.16,1.94,3.08,3.65,3.26,5.9c0.2,2.47,1.55,4.86,0.21,7.83c1.94-1.26,1.88-2.89,1.83-4.13c-0.1-2.91-0.65-5.8-2.68-8.14
		c-0.4-0.46-0.68-0.99-0.72-1.61c1.06-0.14,1.49,0.69,1.9,1.37c2.16,3.54,3.3,7.28,2.19,11.46c-0.05,0.17-0.07,0.35,0.17,0.66
		c4.32-2.34,7.56-5.71,9.74-10.13c0.13-0.27,0.23-0.55,0.34-0.83c0.35-0.85,0.71-1.72,1.81-1.74c1.03-0.02,1.62,0.68,2.12,1.45
		c0.39,0.6,0.61,1.3,1,1.91c0.82,1.27,1.15,1.3,2.12,0.15c2.09-2.45,3.47-5.3,4.58-8.29c0.58-1.58,1.28-3.1,2.22-4.5
		c0.33-0.49,0.72-1.14,1.39-0.93c0.87,0.27,0.51,1.07,0.46,1.7c-0.01,0.18-0.07,0.35,0.1,0.58c4.28-9.75,7.73-19.75,8.94-30.43
		c0.01-2.91,0.03-5.81-0.02-8.71c-0.42-2.41-0.57-4.86-0.93-7.44c-0.91,3.6-2.41,6.75-4.32,9.71c-0.43,0.67-0.99,1.28-1.91,1.03
		c-0.84-0.23-0.93-0.99-1.09-1.7c-0.36-1.55-0.24-3.24-1.37-4.73c-0.51,0.57-0.44,1.23-0.52,1.82c-0.72,5.55-3.25,9.97-8.12,12.89
		c-0.88,0.53-1.18,1.22-1.31,2.18c-0.63,4.75-1.04,9.54-2.27,14.19c-1.32,5.03-3.41,9.72-6.29,14.05c-0.51,0.77-1.06,1.55-2.15,1.25
		c-0.93-0.26-1.28-1.05-1.31-1.95c-0.1-3.37-1.43-6.27-3.35-8.96c-0.34-0.48-0.79-0.93-0.72-1.59c0.6-0.98,1.04-0.15,1.47,0.1
		c-0.4-0.1-0.59-1.28-1.34-0.34c-0.56,0.13-0.93-0.22-1.24-0.57c-2.63-2.88-5.77-5.19-8.6-7.84c-2.23-2.09-4.11-4.49-6.01-7.08
		c-0.55,0.93-0.76,2.22-2.14,1.98C181.5,172.42,180.98,172.03,181.43,171.24z"/>
	<path class="st3" d="M54.03,105.47c-0.13-0.95,0.46-2.29-1.46-2.2c-0.55,0.03-0.82-0.94-1.09-1.53c0.71-0.56,0.94-1.27,0.99-2.19
		c0.27-4.53-1.11-8.52-3.84-12.07c-1.23-1.59-2.28-3.36-4.42-4.48c0.31,1.57-0.02,2.9-0.2,4.25c-0.11,0.8-0.25,1.62-1.21,1.77
		c-0.86,0.14-1.24-0.55-1.66-1.15c-2.5-3.59-4.99-7.19-8.14-10.27c-1.81-1.77-3.83-2.77-6.4-2.76C17.15,74.91,10.45,70,5.08,62.76
		c-0.25-0.24-0.35-0.69-0.76-0.68c-0.28,0-0.29,0.33-0.31,0.56c-0.27,3.16-0.78,6.4-0.38,9.47c0.47,3.66,0.48,7.35,0.85,11
		C4.87,86.98,5.58,90.7,7,94.24c3.68,9.17,10.32,15.54,19.27,19.59c1.26,0.57,2.59,0.39,3.89,0.43c0.95,0.03,1.94-0.12,2.68,0.71
		c0.31,0.42,0.82,0.83,0.62,1.37c-0.24,0.66-0.92,0.28-1.4,0.33c-1.33,0.13-2.68-0.21-3.99,0.2c-1.29,0.54-2.47,0.08-3.62-0.44
		c-12.9-5.76-20.1-15.87-22.65-29.57c-0.81-4.37-0.27-8.83-1.11-13.19c0-1.69,0-3.37-0.01-5.06c0.29-2.74,0.57-5.47,0.89-8.2
		c0.1-0.82,0.16-1.67,0.77-2.35c0.73-0.82,1.1-1.23,2.07,0.06c2.72,3.63,5.6,7.14,9.24,9.97c3.96,3.08,8.55,4.13,13.37,4.43
		c3.13,0.19,5.59,1.56,7.74,3.69c1.96,1.94,3.76,4.01,5.2,6.38c0.51,0.83,1.04,1.7,2.08,2.48c0.16-2.06-0.79-3.47-1.43-4.95
		c-0.25-0.57-0.59-1.12-0.05-1.63c0.54-0.51,1.1-0.16,1.64,0.12c4.98,2.57,8.48,6.5,10.74,11.59c1.18,3.91,2,7.87,1.46,12
		C54.36,103.3,54.46,104.42,54.03,105.47z"/>
	<path class="st4" d="M221.43,61.79c1.6-1.96,1.92-4.21,1.38-6.58c-0.74-3.23-1.17-6.51-2.17-9.72c-0.6-1.93-0.63-4.16-1.39-6.14
		c-1.49-3.85-3.13-7.65-4.53-11.53c-0.76-2.12-1.87-4.11-2.31-6.35c4.58,7.87,7.43,16.39,9.31,25.26c0.85,4.02,1.49,8.08,2.22,12.12
		c0.21,0.27,0.19,0.52-0.05,0.76c0.03,0.85,0.06,1.69,0.09,2.54c0.54,0.63,0.18,1.53,0.66,2.18c-0.26,2.04-0.52,4.09-0.79,6.13
		c-0.28,2.07-0.47,4.14-0.61,6.22c-0.1,2.27-0.2,4.54-0.29,6.81c-0.16,3.9,0.88,7.16,3.73,10.15c6.06,6.37,9.5,14.11,10.61,22.88
		c0.16,1.29-0.2,2.42-0.42,3.62c-1-0.19-0.8-1.03-0.86-1.68c-0.13-1.24,0.09-2.49-0.12-3.73c-1.38-7.27-5.43-13.19-9.65-19.02
		c-4.47-3.24-4.87-8.07-4.97-12.95c-0.11-4.94,0.28-9.87,1.11-14.75c-0.09-0.42,0.91-1.48-0.65-1.06c-0.39,0.11-0.64-0.34-0.67-0.69
		C220.96,64.76,220.52,63.22,221.43,61.79z"/>
	<path class="st5" d="M236.19,114.36c0.68,1.15,0.18,2.4,0.33,3.6c0.1,0.73-0.28,1.54,0.36,2.17c-0.2,1.49-0.49,2.95-1.05,4.35
		c-0.31-3.44-2.84-5.44-6.87-5.44c-0.46-1.16-0.17-2.37-0.18-3.55c-0.04-3.35-0.03-6.69,0-10.04c0.01-0.89-0.08-1.81,0.65-2.52
		c1.15-0.54,1.46,0.46,1.87,1.1c2.04,3.17,3.73,6.49,4.55,10.21c0.05,0.23-0.03-0.06,0.07,0.15
		C235.99,114.53,236.1,114.51,236.19,114.36z"/>
	<path class="st6" d="M250.06,294.41c0.38,0.14,0.79,0.23,1.12,0.44c1.09,0.69,1.28,0.15,1.17-0.82c0.84,1.87,0.21,3.71-0.08,5.58
		c-0.5,3.22-2.43,4.9-5.39,5.95c-1.77,0.63-3.33,1.84-5,2.76c-0.66,0.36-1.26,0.94-2.12,0.81l-0.01-0.01
		c-0.2-0.88,0.57-1.22,0.96-1.77c1.19-1.24,2.49-2.38,3.45-3.84c1.83-2.75,2.33-5.55,0.56-8.52c-0.12-0.21-0.18-0.44-0.21-0.68
		c0.14-1.25,0.84-1.35,1.82-0.9c3.54,2.34,2.53,5.8,2.23,9.07c2.35-1.83,2.94-4.16,1.72-6.89
		C250.11,295.21,249.87,294.86,250.06,294.41z"/>
	<path class="st7" d="M28.08,116.89c1.61-0.88,3.39-0.03,5.07-0.51c0.09-0.62-0.67-0.79-0.74-1.32c2.55-0.83,5.22-0.78,7.85-1.02
		c0.5,0.69,1,1.39,1.5,2.08C37.21,116.58,32.66,116.92,28.08,116.89z"/>
	<path class="st8" d="M223.88,59.61c0.02-0.25,0.03-0.51,0.05-0.76c6.5-3,13.46-3.77,20.48-4.2
		C237.53,56.15,230.37,56.48,223.88,59.61z"/>
	<path class="st9" d="M224.64,64.33c-0.58-0.62-0.83-1.34-0.66-2.18c1.6,0.14,3.19-0.2,4.77-0.25c4.99-0.15,10-0.45,14.96,0.63
		c-5.01,0-10.01,0.01-15.02-0.01c-0.96,0-1.9,0.21-2.83,0.28C224.7,62.88,224.63,63.5,224.64,64.33z"/>
	<path class="st10" d="M54.41,102.2c0.27-4.09-0.91-8.01-1.46-12C54.79,94.04,55.23,98.04,54.41,102.2z"/>
	<path class="st11" d="M223.24,76.68c-0.14-2.11-0.07-4.19,0.61-6.22C224.03,72.57,223.54,74.62,223.24,76.68z"/>
	<path class="st12" d="M79.92,210.13c6.05-3.42,11.15-8.04,16.22-12.71c11.53-10.63,18.99-24.12,26.57-37.53
		c0.56-0.99,1.11-2.02,1.42-3.1c0.48-1.69,1.27-1.51,2.48-0.75c1.37,0.86,2.76,1.8,4.27,2.28c4.44,1.41,8.8,3.12,13.39,4.05
		c1.46,0.3,3.04,0.77,4.47-0.34c0.52-0.4,0.85,0.17,1.19,0.47c1.51,1.36,3.01,2.72,4.51,4.08c2.77,1.94,5.02,4.45,7.29,6.91
		c2.96,3.21,5.92,6.43,8.97,9.55c1.8,1.84,2.64,3.93,2.63,6.45c-0.01,1.26-0.02,2.52,0.01,3.77c0.01,0.69-0.25,1.73,0.56,1.89
		c0.92,0.17,2.01,0.43,2.92-0.26c0.1-0.07,0.18-0.16,0.27-0.24c2.18-1.98,2.2-2,4.05,0.33c3.87,4.89,7.53,9.93,10.38,15.51
		c0.36,0.7,0.78,1.36,0.41,2.19c-2.65,8.96-4.34,18.1-5.53,27.38c-1,7.83-1.92,15.67-2.45,23.54c-0.42,6.16-1.37,12.23-2.63,18.26
		c-0.84,4.01-0.61,8.11-0.85,12.16c-0.13,2.2,0.78,2.72,3.38,3.76c4.99,2.01,10.25,2.8,15.45,3.91c1.32,0.28,2.63,0.1,3.93,0.22
		c3.34,0.3,6.02,1.71,7.73,4.7c-0.53,0.52-1.22,0.49-1.86,0.44c-3.99-0.27-7.07,1.49-9.63,4.34c-2.04,2.28-3.89,4.71-5.51,7.31
		c-0.52,0.83-0.81,1.72-0.96,2.68c-0.08,0.52-0.04,1.34-1.03,1c-1.03-0.94-2.25-1.61-3.46-2.25c-6.55-3.46-12.36-8.04-18.39-12.28
		c-1.63-1.14-2.47-2.61-2.71-4.62c-0.61-5.06-1.05-10.12-1.3-15.22c-0.7-14.8-0.49-29.61-0.76-44.41
		c-0.15-8.07-0.39-16.18-1.41-24.21c-0.19-1.49-0.45-2.97-0.89-4.41c-0.52-1.68-1.44-2.34-3.19-2.17c-1.17,0.11-1.49-0.43-1.58-1.41
		c-0.06-0.65,0.09-1.31-0.08-1.96c-0.01-0.04-0.07-0.1-0.12-0.1c-0.05-0.01-0.11,0.03-0.17,0.07c-0.69,3.11-0.61,6.3-1.14,9.41
		c-0.04,0.23-0.03,0.47-0.21,0.66c-0.59,2.77-0.31,5.6-0.56,8.4c-0.45,5.18-0.54,10.38-0.87,15.57c-0.15,2.47,0.35,4.88,0.39,7.33
		c0.06,4.62-0.31,9.19-1.49,13.68c-1.9,0.94-3.96,0.66-5.96,0.75c-0.77,0.04-1.54-0.11-2.31,0.11c-6.4,1.86-12.96,0.97-19.46,1.09
		c-0.91,0.02-1.91-0.2-1.42-1.59c2.98-7.83,3.05-15.96,2.08-24.1c-0.39-3.31-1.9-6.02-5.63-7.34c-7.79-2.75-15.71-4.34-23.95-3.78
		c-11.73,0.8-22.87,3.39-32.07,11.38c-0.67,0.58-1.41,1.09-1.95,2.1c2.71-0.73,5.3-1.38,7.51-2.73c6.57-4.04,13.77-6.03,21.32-7.04
		c9.49-1.27,18.75-0.56,27.68,3.12c1.06,0.63,0.78,1.63,0.72,2.57c-0.28,4.63-2.75,8.21-5.57,11.62c-2.37,2.86-4.82,5.66-7.46,8.27
		c-5.67,5.61-10.82,11.67-15.85,17.85c-3.52,4.32-7.98,7.58-12.79,10.34c-1.47,0.84-2.95,0.84-4.66,0.45
		c-3.97-0.91-8.01-1.49-11.94-2.57c-2.66-0.73-5.29-1.54-7.9-2.42c-2.78-0.94-4.95-2.54-6.74-4.83c-2.4-3.07-4.74-6.18-6.93-9.4
		c-0.87-1.28-1.11-2.68-1.31-4.21c-0.81-6.4,0.11-12.66,1.15-18.93c0.21-1.26,0.6-2.41,1.27-3.51c1.82-2.97,3.74-5.85,6.01-8.5
		c4.52-5.43,10.08-9.62,16.1-13.22c1.84-1.1,3.53-2.44,5.45-3.41c2.81-1.31,5.37-3.05,7.98-4.71
		C78.25,211.28,79.05,210.65,79.92,210.13z"/>
	<path class="st13" d="M230.04,102.84c-0.85,0.39-0.72,1.16-0.72,1.87c0,4.08,0,8.16,0,12.24c0,0.72,0.04,1.44-0.36,2.09
		c-2.16,0.96-0.01,1.92,0,2.88c1.02,2.18,0.01,4.36-0.03,6.53c-0.05,2.32-0.48,4.63-0.57,6.96c-0.06,1.65-0.51,3.15-1.35,4.59
		c-2.8,4.74-6.13,9.14-8.78,13.98c-0.63,1.16-1.19,2.35-1.86,3.48c-0.39,0.67-0.8,1.44-1.8,0.82c-0.72-3.82-1.94-7.41-4.72-10.3
		c1.55,4.44,3.57,8.73,3.63,13.55c0.4,2.82-1.33,4.83-2.72,6.92c-0.54,0.8-1.47,0.39-2.06-0.16c-1.69-1.6-3.67-1.79-5.84-1.48
		c-1.79,0.25-5.02-1.84-5.88-3.66c0.73-2.45,1.09-4.89-0.18-7.3c0.42,1.26,0.63,2.54,0.54,3.87c-0.12,1.75-0.65,2.05-2.11,1.09
		c-2.93-1.94-5.22-4.53-7.25-7.37c-0.69-0.97-1.32-1.99-2.08-2.93c0.29,0.92,0.91,1.65,1.38,2.48c0.37,0.66,0.95,1.27,0.65,2.14
		c-0.1,0.07-0.24,0.16-0.33,0.12c-2.61-1.37-5.62-2.03-7.54-4.6c-3.34-4.47-6.5-9.08-10.63-12.9c-0.8-0.74-1.59-1.46-2.53-2.01
		c-1.98-1.15-3.36-1.02-5.07,0.47c-1.52,1.33-1.75,1.29-3.22-0.22c-1.52-1.55-2.71-3.36-4.09-5.02c-1.48-1.79-3.1-2.99-5.59-1.96
		c-1.08,0.45-1.97-0.01-2.62-0.98c-0.67-1-1.28-2.03-1.88-3.07c-0.64-1.1-1.46-2.1-2.75-2.45c-1.43-0.39-2.54,0.14-3.46,1.3
		c-1.34,1.69-1.9,1.72-3.44,0.15c-2.99-3.05-5.53-6.47-8.17-9.81c-1.3-1.64-2.74-3.18-3.51-5.18c0.03-0.62-0.08-1.17-0.73-1.44
		c-0.46-0.28-0.9-0.55-1.19-1.04c-4.11-6.89-6.26-14.37-6.73-22.36c0.15-2.08,1.03-4.11,0.54-6.52c-1.25,1.03-0.86,2.5-1.52,3.5
		c-0.91-0.37-0.66-1.28-1.25-2.18c-0.39,1.38-1.06,2.51-0.95,3.56c0.54,5.05-1.28,9.65-2.5,14.36c-1.01,3.9-0.73,7.84-0.82,11.77
		c-1-0.13-0.8-1.02-0.78-1.54c0.24-6.43-1.65-12.58-2.39-18.88c-0.28-2.38,0.02-4.67,0.21-6.98c0.31-3.88,0.26-7.77,0.59-11.66
		c0.58-6.79,2.12-13.38,3.81-19.93c0.7-2.7,0.88-5.43,1.28-8.15c0.6-4.02,1.98-7.82,3.82-11.38c1.45-2.81,3.87-4.98,6.23-7.14
		c4.75-4.36,9.92-8.1,15.56-11.23c2.55-1.42,5.3-2.21,8.1-2.89c3.97-0.97,8-1.54,12.04-2.11c3.07-0.44,5.77,0.7,8.42,2
		c1.45,0.72,2.89,1.46,4.38,2.1c0.66,0.29,1.44,0.8,2.09-0.09c1.53-0.44,0.01-1,0.06-1.5c0.62-0.42,0.99,0.11,1.59,0.48
		c-0.95-1.34-2.16-2.12-3.27-3.02c-0.62-0.51-1.57-0.93-1.17-1.98c0.36-0.94,1.22-1.16,2.19-1.25c2.83-0.25,5.61,0.33,8.42,0.41
		c1.59,0.04,3.21,0.2,4.81,0.34c1.31,1.72,1.96,3.79,3.03,5.64c0.34,0.58,0.57,1.62,1.39,1.27c0.62-0.26,0.2-1.16-0.01-1.77
		c-0.17-0.51-0.3-1.02-0.45-1.54c0.39-0.21,0.7,0,0.98,0.2c5.09,3.68,10.73,6.52,15.87,10.12c0.58,0.41,1.25,0.73,1.48,1.49
		c-0.02,0.06-0.02,0.12-0.05,0.17c-1.77,3.47-2.53,3.85-6.15,3.03c-3.77-0.85-7.53-1.76-11.31-2.56c-2.66-0.56-5.53-0.76-8.02-0.09
		c-5.3,1.42-10.81,1.81-16.02,3.65c-3.46,1.23-6.81,2.54-9.54,4.98c-0.15-0.06-0.2-0.08-0.25-0.1c-1.65-0.92-1.54-0.91-1.94,1.67
		c-1.81,11.67-4.02,23.24-8.71,34.17c-0.42,0.99-0.83,1.99-1.13,3.02c-0.28,0.96-0.51,1.97,0.18,2.9c0.04,0.55-0.41,0.68-0.77,0.86
		c-7.29,3.6-14.6,7.17-21.66,11.23c7.05-3.2,14.11-6.39,20.98-9.95c0.67-0.35,1.3-0.94,2.15-0.47c0.16,0.19,0.29,0.43,0.21,0.66
		c-0.97,2.79-0.06,5.45,0.63,8.09c0.41,1.58-0.01,2.6-1.31,3.53c-3.37,2.39-6.53,5.05-9.64,7.77c-0.81,0.7-1.6,1.45-2.15,2.41
		c3.34-3.01,7-5.61,10.51-8.4c1.08-0.86,2.07-2.06,3.71-1.91c1.09,0.75,1.55,1.96,2.13,3.06c2.98,5.68,7.5,9.41,13.79,10.82
		c8,1.79,15.97,3.73,23.98,5.46c6.7,1.55,13.35,3.34,20.26,3.75c2.1,0.12,4.08-0.31,5.9-1.25c1.93-1,2.74-2.9,2.69-4.94
		c-0.05-2.39-0.32-4.74,0.66-7.04c0.41-0.97-0.28-1.98-0.29-2.99c-0.64-4.22,0.67-8.35,0.6-12.54c-0.02-1.25,1.12-1.03,1.59-1.62
		c1.16-0.37,1.05,1.06,1.8,1.27c0.98,0.1,0.95-0.75,1.16-1.3c0.32-0.82,0.52-1.69,0.68-2.64c-0.43,0.27-0.34,1.06-1.05,0.81
		c0.08-1.47-1.1-0.51-1.61-0.84c-0.25-0.11-0.43-0.29-0.54-0.54c0.32-1.06,1.35-1.38,2.1-2c1.34-0.26,1.14-1.47,1.45-2.36
		c0.27-0.78,0.21-1.88,1.57-1.47c-0.79,5.5-1.29,11.04-1.02,16.59c0.12,2.4,0.88,4.76,1.32,7.15c0.12,0.68,0.65,0.92,1.09,1.32
		c0.92,0.83,1.95,1.58,2.54,2.72c0.75,1.85,2,3.43,2.87,5.21C229.93,101.52,230.56,102.06,230.04,102.84z"/>
	<path class="st12" d="M185.73,103.96c-2.89-0.14-5.59-1.17-8.38-1.8c-5.35-1.21-10.72-2.38-16.05-3.66
		c-6.05-1.45-10.44-5.06-13.38-10.51c-0.65-1.2-1.4-2.35-2.11-3.53c-1.29-1.04-1.31-2.08-0.02-2.94c2.87-1.92,5.76-3.8,8.74-5.53
		c-2.66,1.46-5.16,3.19-7.73,4.81c-0.39,0.25-0.7,0.81-1.23,0.52c-0.63-0.34-0.53-1.01-0.46-1.61c0.31-2.61,0.9-5.18,1.31-7.87
		c-0.85-0.2-1.62,0.7-2.41,0.1c-0.51-0.52-0.39-1.05-0.07-1.6c0.01-0.09,0.03-0.17,0.08-0.25c0.28-0.31,0.52-0.71,0.93-0.82
		c2.12-0.59,2.63-2.27,3.13-4.16c1.92-7.29,4.22-14.49,5.89-21.84c0.8-3.5,1.51-7.02,2.14-10.56c0.16-0.88,0.27-1.78,0.87-2.52
		c3.3-2.9,7.36-4.26,11.47-5.33c5.72-1.49,11.54-2.56,17.46-3.07c3.4-0.3,6.42,1.08,9.62,1.66c4.01,0.72,7.05,2.18,8.28,6.3
		c0.33,1.03-0.54,1.01-1.1,1.23c-1.63,0.65-3.04,1.61-4.55,3.18c1.59-0.39,2.78-0.77,3.96-1.2c1.01-0.37,2.05-0.74,3.06,0.04
		c0.61,1.94,1.81,3.58,2.79,5.46c-3.2-1.22-6.34,0.95-6.41,4.24c-0.04,1.89,0.29,3.67,1,5.42c0.49,1.2,1.21,1.89,2.54,1.83
		c2.56,0.06,3.35-0.66,3.54-3.06c0.08-1.02-0.37-2.16,0.6-3.01c0.11,0.35,0.23,0.69,0.34,1.04c0.26,1.69-0.12,3.44,0.68,5.11
		c0.42,0.88-0.63,1.01-1.2,1.17c-3,0.89-5.91,1.99-8.69,3.42c-0.21,0.11-0.43,0.21-0.64,0.33c-1.79,0.97-1.82,1.11-0.5,2.61
		c0.21,0.24,0.34,0.49,0.2,0.81c-1.81,1.36-3.87,2.34-5.58,3.88c-2.02,1.81-3.83,3.8-5.4,5.99c-1.95,2.71-2.85,5.87-2.86,9.13
		c0,4.55-0.39,9.09-0.45,13.64c-0.05,3.67,0.39,7.29,0.82,10.91C186.07,102.62,186.36,103.35,185.73,103.96z"/>
	<path class="st14" d="M47.88,233.16c-0.74,1.99-2.11,3.64-3.42,5.2c-3.49,4.19-3.72,9.27-4.52,14.24
		c-0.66,4.12-0.13,8.22-0.01,12.34c0.03,1.03,0.39,1.88,0.92,2.68c2.81,4.24,5.84,8.31,9.21,12.11c1.36,1.53,3.42,1.97,5.25,2.61
		c5.86,2.07,12.02,3.05,18.01,4.6c4.04,1.05,6.55-0.87,9.28-2.72c5.76-3.91,10.19-9.12,14.31-14.69c2.08-2.82,4.71-5.26,7.18-7.78
		c4.98-5.09,10.09-10.08,13.92-16.13c1.76-2.78,2.51-5.88,1.87-9.2c0.79,0.28,1.59,0.5,2.35,0.84c1.2,0.54,1.7,1.41,1.68,2.83
		c-0.03,2.87,0.14,5.74,0.34,8.61c0.44,6.24-1.26,12.05-3.23,17.88c-2.91,8.65-7.41,16.47-12.11,24.21
		c-0.82,1.35-1.86,1.09-2.94,0.89c-1.51-0.28-2.92-0.17-4.33,0.84c4.77,1.09,9.44,2.36,13.54,5.09c-0.7,0.57-1.36,0.11-2.03-0.1
		c-3.89-1.21-7.7-2.67-11.72-3.44c-2.03-0.38-4.04-0.41-6.08-0.11c-2.15,0.31-4.31,0.21-6.46,0.12c-1.47-0.06-1.66,0.54-1.58,1.81
		c0.39,6.26,4,10.33,9.01,13.46c4.3,2.68,8.93,4.63,13.83,5.93c0.9,0.24,1.98,0.32,2.05,1.63c-0.07,0.49-0.3,0.91-0.61,1.27
		c-1.13,1.3-1.46,2.81-1.28,4.49c0.04,0.41,0.1,0.83-0.15,1.21c-8-1.33-15.41-4.27-22.22-8.58c-2.19-1.39-4.96-2.52-5.82-5.43
		c-0.93-3.16-1.49-6.37-1.03-9.69c0.44-3.19,0.37-6.44,0.95-9.62c0.16-0.89-0.1-1.75-1.13-1.94c-1.18-0.22-1.43,0.77-1.53,1.57
		c-0.34,2.6-0.65,5.22-0.8,7.84c-0.08,1.3-0.51,1.57-1.66,1.16c-0.81-0.28-1.69-0.28-2.49-0.08c-3.41,0.81-6.55,0-9.64-1.36
		c-5.64-2.48-11.56-4.23-17.34-6.35c-3.67-1.35-7.15-3.17-10.28-5.48c-2.29-1.69-3.27-4.54-3.53-7.22
		c-0.72-7.44-1.11-14.96,0.17-22.37c1.2-6.93,4.79-12.81,9.26-18.14C44.54,236.41,45.99,234.57,47.88,233.16z"/>
	<path class="st15" d="M181.43,171.24c0.06,0.6,0.33,1.13,0.99,1.01c1.45-0.27,1.02-1.66,1.48-3.09c4.23,7.1,10.82,11.4,16.25,16.85
		l0,0c1.03,2.14,2.78,3.86,3.46,6.2c0.43,1.49,0.98,2.95,0.86,4.54c-0.06,0.8,0.21,1.49,0.97,1.74c0.88,0.28,1.21-0.5,1.61-1.1
		c3.92-5.85,6.25-12.33,7.39-19.24c0.52-3.16,0.84-6.37,1.15-9.56c0.08-0.82,0.34-1.27,1.06-1.66c5.19-2.84,7.77-7.35,8.35-13.14
		c0.08-0.81,0.31-1.61,0.5-2.57c2.14,1.4,1.82,3.7,2.33,5.62c0.18,0.66-0.15,1.6,0.86,1.71c0.85,0.1,1.14-0.72,1.51-1.33
		c2.01-3.32,3.7-6.76,4.46-10.65c1.02,2.77,0.69,5.72,1.47,8.48c-0.28,3.22-0.26,6.45-0.01,9.67c-0.24,1.68-0.82,3.27-0.44,5.09
		c0.25,1.18-0.92,2.29-1.23,3.59c-1.59,6.75-3.67,13.35-6.4,19.74c-0.46,1.07-0.96,2.13-2.24,3.07c0.21-1.39,0.36-2.45,0.59-4
		c-1.9,1.7-2.6,3.56-3.29,5.41c-1.21,3.27-2.74,6.35-4.97,9.06c-1.23,1.49-1.48,1.49-2.5-0.13c-0.57-0.9-0.93-1.95-1.57-2.78
		c-1.01-1.32-2.06-1.14-2.65,0.42c-1.97,5.14-5.6,8.78-10.26,11.52c-0.35,0.21-0.77,0.61-1.13,0.34c-0.5-0.38-0.04-0.88,0.09-1.31
		c1.3-4.31-0.34-10.26-3.58-12.9c-0.7-1.75-2.28-2.69-3.55-3.92c-1.78-1.74-3.84-3.15-5.46-5.12c-1.65-2.02-2.57-4.29-3.18-6.69
		c-0.39-1.53-1.39-2.92-1.18-4.61c0.04-0.3-0.17-0.63-0.5-0.63c-0.34,0-0.45,0.33-0.52,0.64c-0.19,0.93-0.47,1.85-0.58,2.79
		c-0.22,1.92-1.14,3.49-2.27,4.97c-0.61-0.47-0.55-1.17-0.54-1.81c0.09-3.51-0.7-6.76-2.7-9.68c-0.29-0.43-0.64-0.89-0.41-1.49
		c0.78-0.42,1.59,1.15,1.97,0.31c0.4-0.89-0.79-1.41-1.53-1.9c-0.19-0.13-0.31-0.35-0.46-0.53c-1.34-1.64-3.05-2.97-4.86-3.87
		c-7.18-3.59-13.32-8.71-19.89-13.21c-0.67-0.46-1.32-1.14-2.26-0.59c-0.35-1.61-0.73-3.21-1.05-4.82
		c-0.11-0.56,0.14-1.38-0.64-1.48c-0.85-0.1-0.92,0.79-1.14,1.37c-0.61,1.61-0.3,3.32-0.44,4.98c-0.44,0.11-0.83-0.08-1.2-0.26
		c-2.88-1.38-5.89-2.37-9.03-2.87c-5.11-0.81-8.5-3.91-10.92-8.2c-1.93-3.42-4.01-6.79-5.06-10.65c-0.42-1.98-0.96-2.24-2.54-1.12
		c-0.76,0.54-1.45,1.19-2.17,1.79c-0.48-0.45-0.55-1.06-0.54-1.65c0.05-3.64-0.13-7.28-0.37-10.91c-0.06-0.87-0.16-1.81,0.54-2.55
		c1.19,0.89,2.36,1.82,3.59,2.65c0.45,0.31,1.01,0.83,1.63,0.37c0.66-0.48,0.43-1.15,0.2-1.79c-0.95-2.55-0.81-5.15-0.27-7.75
		c0.18-0.87,0.5-1.73,1.5-2.46c0.2,1.29,0.5,2.46,0.56,3.64c0.25,5.07,2.2,9.29,5.87,12.84c4.03,3.9,7.48,8.33,11.04,12.65
		c1.71,2.06,3.21,4.3,4.85,6.42c0.34,0.44,0.7,1.11,1.39,0.98c0.78-0.15,0.59-0.95,0.73-1.49c0.61-2.3,1.44-4.55,1.74-6.93
		c0.05-0.41,0.27-0.76,0.79-1.1c0.58,2.23,0.93,4.37,1.8,6.39c2.49,5.75,6.92,9.72,11.96,13.1c5.75,3.86,11.59,7.58,17.36,11.41
		C179.77,169.68,180.57,170.51,181.43,171.24z"/>
	<path class="st12" d="M211.7,220.23c1.19-2.29,2.76-4.39,3.61-6.86c0.67-1.11,1.71-1.97,2.13-3.25c0.48-0.62,0.96-1.23,1.43-1.85
		c0.6-0.91,1.6-1.48,2.1-2.47c0.26-0.37,0.52-0.75,0.78-1.12c0.39-0.79,0.81-1.54,1.75-1.78c0.26-0.15,0.51-0.3,0.78-0.44
		c0.35-0.18,0.66-0.64,1.11-0.32c0.39,0.28,0.31,0.76,0.26,1.17c-0.6,5.17-1.21,10.34-1.83,15.5c-0.72,6-1.3,12.01-1.66,18.05
		c-0.31,5.14-0.63,10.29-0.64,15.43c-0.02,9.34,0.06,18.69,1.22,27.97c0.25,2-0.07,3.52-2.07,4.42c-1.03,0.46-1.96,1.13-2.93,1.7
		c-0.13,0.4-0.65,0.52-0.71,1.05c0.78,0.09,1.52,0.04,2.24-0.25c1.1-0.46,2.35-0.73,3.27-1.42c1.27-0.94,2.15-0.75,3.28,0.17
		c3.23,2.61,7.05,3.71,11.12,4.06c0.71,0.06,1.44,0.03,2.1,0.4c0.1,0.57-0.37,0.72-0.73,0.85c-3.01,1.13-4.68,3.57-6.1,6.24
		c-1.66,3.1-3.22,6.26-5.92,8.64c-0.94,0.83-0.9,2.18-1.71,3.07c-4.02-1.02-7.97-2.18-11.12-5.11c-2.4-4.1-6.6-6.77-8.74-11.09
		c-0.57-1.16-0.94-2.26-0.83-3.59c0.94-11.58,1.9-23.15,3.23-34.69c0.11-0.96,0.08-1.92,0.07-2.87c-0.08-9.63,0.75-19.15,3.26-28.48
		C210.75,222.27,211.22,221.25,211.7,220.23z"/>
	<path class="st14" d="M157.68,208.66c0.21-0.39,0.47-0.75,0.97-0.5c0.37,0.19,0.38,0.53,0.28,0.93c-0.11,0.46-0.17,0.94-0.17,1.41
		c0.01,1.1-0.49,2.63,1.72,1.56c1.06-0.51,2.89,1.27,3.21,3.03c0.46,2.51,0.96,5.04,1.14,7.58c0.4,5.78,0.53,11.57,0.84,17.35
		c0.52,9.7-0.07,19.4,0.35,29.09c0.22,5.15,0.08,10.29,0.35,15.43c0.35,6.72,0.69,13.44,1.73,20.11c0.19,1.23,1.07,1.88,1.91,2.48
		c6.79,4.87,13.44,9.98,20.94,13.77c0.67,0.34,1.23,0.75,1.32,1.57c0.64,1.22,0.42,2.66,1.04,3.89c-2.91,0.06-5.55-0.99-8-2.35
		c-5.55-3.08-11.75-4.81-17.12-8.28c-1.57-1.02-3.52-1.16-5.32-1.51c-3.62-0.7-5.83-4.54-6.21-7.38c-0.39-2.94-0.33-5.95-0.42-8.93
		c-0.08-2.64,0.92-5.18,0.7-7.84c-0.31-3.87,0.22-7.73,0.2-11.58c-0.01-3.34,0.2-6.67,0.2-10c0.01-6.7,0.16-13.41,0.4-20.11
		c0.25-6.99,0.68-13.97,1.03-20.96c0.32-4.45,0.43-8.9-0.67-13.27C157.65,212.33,158.12,210.46,157.68,208.66z"/>
	<path class="st15" d="M197.28,162.96c0.9,1.74,4.15,3.48,5.91,3.29c2.12-0.24,4.17-0.12,5.75,1.67c0.48,0.54,1.28,1.05,1.75,0.09
		c1.04-2.11,2.6-4.01,2.8-6.49c0.54,0.47,0.33,1.11,0.35,1.69c0.19,7.29-0.46,14.5-2.55,21.51c-0.94,3.14-2.2,6.18-3.91,8.99
		c-0.26,0.42-0.4,1.18-1.03,1.11c-0.7-0.08-0.32-0.92-0.62-1.34c-0.12-0.17-0.09-0.46-0.13-0.69c-0.13-2.69-1.27-5.11-2.58-7.32
		c-3.3-5.53-7.34-10.49-12.72-14.21c0.54,0.68,1.17,1.29,1.79,1.91c0.63,0.64,1.25,1.29,1.91,1.9c2.06,1.94,3.77,4.18,5.52,6.38
		c0.44,0.56,1.18,1.13,0.66,2.04c-1.08-0.96-2.16-1.93-3.24-2.89c-1.81-2.26-4.19-3.93-6.15-6.04c-1.15-1.23-2.35-2.4-3.46-3.65
		c-0.62-0.7-1.4-1.48-0.91-2.54c0.47-1.01,1.52-0.68,2.35-0.75c-0.86-1.33-2.42,0.66-3.2-0.65c-0.64-1.06-0.32-2.35-0.46-3.53
		c-0.15-1.28,0.55-1.88,1.8-2.1c-3.16-0.57-3.35-3.13-3.82-5.43c-0.08-0.41,0.03-0.65-0.51-0.63c-0.37,0.01-0.67-0.27-0.89-0.56
		c-0.86-1.16-1.99-1.27-3.34-1.17c-2.62,0.19-3.81-1.04-3.74-3.66c0.02-0.76-0.51-1.5-0.02-2.27c-0.36,0.54-0.67,1.09-0.92,1.67
		c-0.29,0.68-0.7,1.11-1.5,0.98c-0.37-0.06-0.71-0.01-0.97,0.32c-0.82,1.05-1.27,0.42-1.67-0.39c-0.54-1.07-1.17-1.99-2.65-1.59
		c0.86,0.25,1.44,0.65,1.3,1.64c-0.07,0.55,0.09,1.05,0.38,1.53c0.53,0.88,0.52,1.88,0.14,2.78c-0.33,0.79-0.47,1.41,0.14,2.13
		c0.42,0.49,0.18,1.02-0.29,1.42c-0.53,0.45-1.09,0.3-1.41-0.18c-0.7-1.02-1.96-1.39-2.64-2.41c-0.25-0.38-0.59-0.49-1.04-0.58
		c-2.3-0.42-2.81-1.38-1.93-3.48c0.13-0.31,0.15-0.67,0.38-0.94c-1.68,1.64-1.97,1.61-3.44-0.18c-0.74-0.9-1.71-1.43-2.83-1.81
		c-1.86-0.62-2.03-1.49-0.63-2.73c0.34-0.3,0.66-0.65,0.35-1.06c-0.32-0.42-0.6,0.05-0.88,0.22c-1.32,0.8-1.88,0.63-2.43-0.77
		c-0.09-0.22-0.17-0.46-0.19-0.69c-0.1-1.22-1.75-2.59-0.39-3.59c2.3-1.68,5.33-1.08,6.8,0.93c0.21,0.29,0.28,0.67,0.54,0.92
		c0.42,0.35,0.75,0.79,0.91,1.31c0.35,1.17,1.13,1.68,2.34,1.88c1.7,0.29,1.87,0.81,1.03,2.4c0.55,0.02,1.08-0.01,1.61-0.52
		c-0.5-0.54-1.22-0.93-1.06-1.95c0.12-0.79-0.88-0.59-1.39-0.77c-1.09-0.4-1.91-0.87-1.05-2.38c-0.89,0.23-1.69,0.65-2.4,0
		c-0.17-0.19-0.22-0.41-0.23-0.66c-0.04-0.65,0.77-1.43-0.17-1.94c-0.99-0.53-1.69-1.71-3.19-1.12c-1.15,0.46-2.49,0.18-3.67,0.75
		c-0.82,0.4-1.39-0.18-1.41-0.86c-0.04-1.17-1.1-2.61,0.72-3.44c0.5-0.23,0.19-0.69-0.16-0.78c-1.26-0.31-2.06-0.94-2.55-2.23
		c-0.34-0.89-0.93-0.45-1.19,0.28c-0.21,0.59-0.46,1.18-1.2,1.12c-0.68-0.05-1.03-0.61-1.22-1.19c-0.34-1.05-0.98-1.92-1.61-2.85
		c0.62,1.09-0.1,2.27,0.3,3.35c0.39,1.06,1.21,1.93,1.6,3.01c0.61,1.67,0.48,3.31-0.27,4.89c-0.66,1.38-1.66,1.5-2.65,0.37
		c-0.16-0.18-0.28-0.39-0.41-0.59c-1.14-1.67-1.1-1.83,0.72-2.72c-0.35-0.67-0.72-0.93-1.55-0.59c-1.51,0.62-1.9,0.28-1.85-1.38
		c0.01-0.42,0.04-0.84-0.02-1.25c-0.38-2.69-0.8-3.02-3.43-2.35c-0.94,0.24-1.98,0.15-2.16-0.67c-0.28-1.28-1.07-1.8-2.01-2.39
		c-0.5-0.32-0.89-0.88-0.68-1.54c0.31-0.97,1.24-0.38,1.94-0.61c-0.74-0.53-1.56-0.52-2.27-0.83c-0.41-0.17-0.75-0.4-0.75-0.9
		c0-0.51,0.32-0.8,0.79-0.81c1.32,0,0.96-0.62,0.55-1.33c-0.31-0.53-0.67-1-1.27-1.21c-0.75-0.27-1.16-0.8-1.1-1.55
		c-0.31-0.13-0.47-0.05-0.58,0.1c-0.43,0.61-0.67,1.54-1.7,1.27c-1.02-0.27-1.39-1.2-1.47-2.07c-0.28-2.92-0.85-5.77-1.49-8.62
		c0-0.48,0.01-0.96,0.01-1.44c2.16,2.77,4.27,5.58,6.5,8.28c1.93,2.35,3.76,4.8,5.97,6.91c0.76,0.72,1.41,0.95,1.97-0.16
		c1.6-3.19,5.35-2.67,7.23,0.61c0.63,1.09,1.35,2.12,1.94,3.22c0.54,1.02,1.31,1.09,2.27,0.77c2.43-0.81,4.18-0.2,5.75,1.84
		c1.53,1.98,3.15,3.89,4.72,5.85c0.53,0.66,0.95,0.66,1.62,0.09c3-2.6,4.98-2.42,8.04,0.4c4.43,4.08,7.94,8.92,11.41,13.78
		c1.37,1.92,3.54,2.11,5.19,3.34c0.63,0.47,1.31,1.06,2.19,1.15c0.56-0.21,0.95,0.15,1.21,0.51
		C191.36,158.57,194.4,160.68,197.28,162.96z"/>
	<path class="st10" d="M5.41,62.52c2.22,2.82,4.68,5.4,7.56,7.59c4.04,3.07,8.66,4.2,13.59,4.26c2.69,0.03,4.81,0.94,6.71,2.82
		c3.25,3.22,5.88,6.9,8.39,10.68c0.3,0.46,0.51,1.01,1.2,0.84c0.66-0.17,0.67-0.74,0.72-1.29c0.15-1.75,0.72-3.48,0.12-5.31
		c3.2,1.78,5.17,4.59,6.94,7.53c2.01,3.34,2.53,7.03,2.32,10.89c-0.06,1.11-0.53,1.33-1.46,1.22c-0.34-0.61-0.79-1.09-1.54-1.05
		c-2.68,0.12-5.38-0.3-8.05,0.3c-2.55,0.58-4.29,1.92-4.93,4.54c-0.22,0.88-0.5,1.9-1.72,1.6c-3.04-0.75-6.29-0.85-8.95-2.82
		c-2.73-1.58-5.01-3.69-7.09-6.02c-0.69-0.78-1.8-1.44-1.46-2.8c0.68-0.34,1.28,0.01,1.89,0.24c1.75,0.66,3.57,0.95,5.42,1.12
		c-1.85-1.04-3.99-1.29-5.89-2.2c-1.4-0.67-2.9-1.17-3.98-2.37c-3.74-6.29-7.53-12.55-8.99-19.87c-0.03,1.6-0.03,1.6-0.94,1.82
		c-0.5-0.82-0.4-1.72-0.41-2.61C4.82,69.32,4.81,67,4.84,64.69C4.85,63.93,4.78,63.13,5.41,62.52z"/>
	<path class="st12" d="M34.5,187.03c1.38-5.17,3.68-10.01,5.43-15.04c2.83-8.15,6.07-16.21,7.66-24.71
		c2.09-11.13,1.49-22.09-3.7-32.45c-0.82-1.64-1.77-3.25-2.92-4.67c-2.38-2.94-1.43-6.46,2.21-7.71c1.78,1.77,2.95,3.87,3.69,6.28
		c1,3.27,3.34,5.81,5.14,8.62c1.25,1.96,2.22,3.97,2.71,6.22c1.6,7.26,1.83,14.59,1.35,21.99c-0.45,7.01-1.62,13.92-2.28,20.9
		c-0.03,0.3-0.07,0.6,0.19,0.83c-1.07,4.17-2.69,8.15-4.3,12.12c-3.57,8.77-6.23,17.78-7.48,27.18c-0.14,1.06-0.09,2.15-0.49,3.18
		c-0.99,0.02-1.25-0.83-1.61-1.46c-2.44-4.29-4.01-8.9-4.93-13.73C34.7,192.1,33.81,189.63,34.5,187.03z"/>
	<path class="st16" d="M182.59,291.52c-0.78-7.92,1.26-15.46,3.11-23.03c0.29-1.21,0.31-2.5,0.33-3.75
		c0.06-4.8,0.79-9.55,1.12-14.34c0.06-0.91,0.28-1.83,0.91-2.5c2.96-3.14,5.68-6.5,8.85-9.44c0.46-0.43,0.89-0.85,1.56-0.55
		c0.78,0.35,0.67,1.04,0.6,1.7c-0.5,5.13-0.73,10.26-0.51,15.42c0.54,13.06,0.25,26.12-0.87,39.15c-0.07,0.85,0.33,1.39,0.8,1.9
		c0.81,0.88,1.7,1.69,2.54,2.54c0.34,0.34,0.71,0.73,0.43,1.26c-0.24,0.44-0.72,0.36-1.13,0.34c-2.17-0.08-4.28-0.5-6.37-1.04
		c-3.07-0.79-6.12-1.66-9.19-2.44c-1.64-0.42-2.75-1.08-2.21-3.08C182.74,293,182.59,292.24,182.59,291.52z"/>
	<path class="st12" d="M111.95,317.02c-0.02-0.89-0.66-0.94-1.34-1.12c-6.17-1.62-11.94-4.1-17.12-7.91
		c-4.46-3.29-6.54-7.74-6.74-13.19c-0.04-1.04,0.12-1.32,1.36-1.26c2.61,0.13,5.23,0.21,7.86-0.18c3.23-0.48,6.41,0.21,9.51,1.17
		c3.24,1.01,6.47,2.05,9.7,3.08c4.58,1.34,8.6,3.97,12.98,5.76c1.38,0.29,2.94,0.1,3.9,1.47c0.06,0.08,0.09,0.18,0.11,0.28
		c-1.52,1.46-3.63,1.88-5.29,3.09c-1.62,0.99-3.68,1.39-4.51,3.43c-0.98-0.38-1.9-0.89-3.02-0.81c-0.83,0.06-1.22,0.32-0.97,1.19
		c-2.08,0.99-3.68,2.57-5.17,4.28C112.89,316.67,112.64,317.26,111.95,317.02z"/>
	<path class="st14" d="M211.7,220.23c-1.01,4.9-2.35,9.73-3.06,14.69c-0.21,1.47-0.54,2.96-0.52,4.43
		c0.05,3.96-0.51,7.88-0.43,11.84c0.09,5.08-0.75,10.09-1.33,15.13c-0.33,2.84-0.56,5.69-0.79,8.55c-0.39,4.99-0.68,10-1.18,14.98
		c-0.11,1.08,0.18,1.85,0.64,2.67c1.5,2.68,3.36,5.09,5.66,7.14c1.37,1.22,2.49,2.57,2.77,4.45c-3.9-2.3-7.82-4.58-11.7-6.92
		c-2.2-1.32-2.6-3.45-2.26-5.79c1.62-11.31,0.84-22.68,1.02-34.03c0.1-6.4-0.07-12.8,0.35-19.19c0.11-1.68,0.46-3.3,0.77-4.94
		C205.2,229.06,208.52,224.7,211.7,220.23z"/>
	<path class="st15" d="M158.76,141.72c-0.41-0.35-0.93-0.62-1.2-1.06c-1.18-1.84-2.78-1.41-4.3-0.74c-0.65,0.29-1.23,0.26-1.98,0.29
		c0.42,1.4,0.78,2.75,1.23,4.07c0.4,1.17,1.03,1.13,1.82,0.28c0.3-0.32,0.41-1.02,1.02-0.86c0.62,0.17,0.57,0.87,0.73,1.36
		c0.22,0.66-0.34,0.93-0.78,1.24c-0.34,0.23-1.18-0.13-1,0.66c0.13,0.57,0.66,1.07,1.27,1.17c1.71,0.27,2.96,1.06,3.67,2.69
		c0.3,0.7,0.87,0.75,1.47,0.28c0.6-0.47,1.2-0.93,1.74-1.35c-0.22,0.64-0.03,1.62-0.67,2.25c-0.67,0.66-0.4,1.2-0.02,1.74
		c0.43,0.59,1.01,1.05,1.83,0.78c0.25-0.08,0.61-0.55,0.7-0.15c0.35,1.56,2.13,1.64,2.8,2.85c0.25,0.45,0.52,1.29,1.31,0.59
		c0.68-0.61,0.29-1.02-0.33-1.37c-0.75-0.42-0.53-0.84-0.12-1.44c0.74-1.08,1.02-2.18-0.14-3.28c-0.71-0.67,0.43-1.59-0.52-2.71
		c-0.16-0.12-0.49,1.56-1.09,0.56c-0.37-0.62,0.2-1.13,0.48-1.62c0.48-0.82,0.95-0.19,1.48,0.03c1.32,0.55,1.69,1.82,2.39,3.08
		c0.08-1.32,0.43-1.99,1.69-1.21c0.43,0.26,0.89,0.08,0.9-0.48c0.03-1.03,1.27-1.46,1.17-2.55c-0.03-0.26,0.18-0.63,0.56-0.52
		c0.42,0.12,0.59,0.63,0.36,0.86c-1.18,1.22,0.42,2.63-0.41,4.02c-0.46,0.78,2.52,2.52,4.01,1.94c1.35-0.54,2.07,0.05,2.72,0.82
		c0.67,0.8,1.33,1.24,2.52,0.87c-1.39,1.27-0.21,2.43,0.04,3.49c0.26,1.08,0.69,2.44,2.44,2.25c0.39-0.04,1.24,0.07,1.26,0.74
		c0.02,0.84-0.77,0.54-1.24,0.58c-0.82,0.08-1.3,0.51-1.09,1.29c0.19,0.72,0.02,1.42,0.11,2.09c0.11,0.83-0.19,2.54,1.79,1.39
		c0.83-0.48,1.4,0.04,2.44,1.56c-0.36,0.26-0.67-0.03-1.01-0.09c-0.75-0.12-1.72-0.46-2.09,0.42c-0.29,0.7,0.17,1.49,0.75,2.07
		c2.76,2.75,5.52,5.51,8.27,8.28c0.49,0.5,1.18,0.88,1.2,1.72c-5.11-3.95-9.77-8.32-12.96-14.04c0.1-2.76,0.03-5.5-1.07-8.11
		c-0.44-1.06-0.89-2.09-1.8-2.85c-0.26-0.22-0.52-0.62-0.9-0.3c-0.3,0.25-0.25,0.7-0.05,1c2.31,3.47,2.08,7.39,2.01,11.28
		c-0.01,0.45,0.25,1.05-0.3,1.3c-0.47,0.22-0.69-0.35-1.02-0.56c-4.26-2.76-8.72-5.25-12.73-8.34c-4.1-3.16-8.6-5.81-12.32-9.48
		c-3.9-3.85-6.24-8.37-6.74-13.84c-0.06-0.65-0.27-1.28-0.35-1.93c-0.07-0.57-0.15-1.13-0.83-1.2c-0.78-0.09-1.04,0.58-1.19,1.13
		c-0.56,2.07-1.15,4.14-1.54,6.25c-0.19,1.01-0.61,1.94-0.76,2.94c-0.05,0.36-0.08,0.79-0.48,0.88c-0.4,0.09-0.63-0.28-0.83-0.57
		c-2.14-3.24-4.56-6.28-7.17-9.15c-2.37-2.61-4.37-5.65-6.98-7.9c-3.98-3.43-5.23-7.73-5.81-12.53c-0.17-1.39-0.8-2.77,0.01-4.16
		c1.49,2.31,1.44,4.98,1.78,7.56c0.09,0.66,0.08,1.31,0.43,1.9c0.24,0.4,0.36,0.92,0.97,0.94c0.68,0.03,0.71-0.46,0.83-0.94
		c0.19-0.75,0.83-1.15,1.48-1.03c0.79,0.15,0.53,0.73,0.21,1.25c-0.2,0.33,0.05,0.67,0.35,0.65c1.61-0.06,1.72,1.43,2.44,2.29
		c0.23,0.27,0.55,0.52,0.33,0.93c-0.24,0.44-0.63,0.51-1.08,0.38c-0.43-0.13-1.02-0.52-1.14,0.24c-0.11,0.72,0.65,0.51,1.04,0.66
		c0.17,0.07,0.33,0.15,0.5,0.19c0.8,0.18,2.12,0.22,2.03,1.06c-0.09,0.94-1.23,0.41-1.95,0.29c-0.68-0.12-0.78,0.36-0.5,0.74
		c0.54,0.72,1.04,1.72,2.25,1.19c0.42-0.18,0.79-0.06,0.93,0.24c0.26,0.59-0.33,0.45-0.61,0.56c-0.69,0.26-0.26,0.79-0.11,1.02
		c0.3,0.48,0.77,1.1,1.4,0.78c0.57-0.29,1.26-0.17,1.68-0.47c1.59-1.14,1.98,0.08,2.35,1.13c0.37,1.06,0.8,2.15,0.52,3.32
		c-0.1,0.41-0.35,0.82,0.09,1.14c0.51,0.36,0.89-0.04,1.28-0.31c0.28-0.19,0.35-1.02,0.86-0.43c0.53,0.61,1.6,0.83,1.57,1.84
		c-0.02,0.58-0.5,0.56-0.94,0.37c-0.35-0.15-0.72-0.18-0.99,0.14c-0.34,0.4,0.04,0.66,0.28,0.89c0.69,0.65,0.77,2.3,2.05,1.85
		c1.04-0.37,1.09-1.76,1.26-2.81c0.3-1.79-0.48-3.27-1.43-4.69c-0.23-0.34-0.69-0.72-0.64-1.03c0.23-1.59-0.1-3.13-0.23-4.77
		c0.88,1.18,1.88,2.21,2.33,3.61c0.2,0.61,0.27,1.47,1.07,1.46c0.83,0,0.64-0.84,0.73-1.4c0.09-0.52,0.33-1,0.94-0.77
		c0.49,0.19,1.42,0.01,1.31,0.9c-0.17,1.32,0.5,1.82,1.62,1.78c1.13-0.04,1.35,0.74,1.41,1.47c0.09,1.1-0.72,0.34-1.13,0.41
		c-0.48,0.08-0.65,0.43-0.46,0.77c0.32,0.59,0.01,1.19,0.14,1.75c0.17,0.7,0.06,1.61,1.41,0.76c1.35-0.85,3.16-0.61,4.74-0.87
		c0.84-0.13,1.73,1.44,2.93,1.77c0.36,0.1,0.05,0.48-0.06,0.75C159.15,140.47,158.97,141.1,158.76,141.72z"/>
	<path class="st14" d="M191.93,212.68c-0.92-2.95-2.73-5.42-4.31-8.01c-2.3-3.78-5.15-7.17-7.81-10.7c-0.65-0.86-1.39-0.9-1.78,0.04
		c-0.84,2.04-2.62,1.47-4.09,1.58c-0.86,0.06-0.75-0.89-0.8-1.54c-0.18-2.43,0.31-4.88-0.58-7.3c-0.41-1.11-0.93-2.05-1.72-2.86
		c-5.36-5.55-10.45-11.37-15.99-16.75c-0.17-0.16-0.28-0.38-0.43-0.57c4.61,2.53,9.77,3.85,14.37,6.43
		c2.11,1.18,2.51,3.43,3.26,5.39c1.48,3.87,1.54,7.95,1.44,12.03c-0.02,0.78-0.03,1.56,0.01,2.34c0.04,0.74-0.28,1.68,0.63,2.09
		c1.03,0.46,2.04,0.13,2.81-0.62c1.87-1.81,4.81-2.72,4.79-5.86c0.68-0.1,0.83,0.19,0.91,0.46c1.04,3.88,3.61,6.7,6.48,9.28
		c0.94,0.85,1.46,2.27,3.02,2.33c1.47,1.79,3.11,3.42,4.21,5.53c1.34,2.58,1.62,5.19,1.04,7.98c-0.41,1.95,0.23,3.77,0.79,5.84
		c0.72-1.28,2-1.04,3.01-1.48c4.8-2.13,7.97-5.93,10.74-10.18c0.32-0.49,0.55-1.24,1.24-1.1c0.89,0.18,0.54,1.05,0.65,1.65
		c0.09,0.07,0.11,0.14,0.08,0.21c-0.03,0.06-0.06,0.1-0.09,0.1c-2.29,8.5-8.27,14.67-13.48,21.32c-0.55,0.7-1.09,1.42-1.63,2.13
		c-1.2,1.31-2.4,2.62-3.6,3.92c-0.62-0.67-0.39-1.45-0.3-2.21c0.36-2.85,0.82-5.68,1.37-8.49c0.41-2.11,0.08-4-0.9-5.88
		c-0.66-1.26-1.5-2.46-1.64-3.94c0.29-1.46,0.48-2.96,0.9-4.38c0.45-1.53,0.09-2.95-0.2-4.41c-0.07-0.36-0.2-0.76-0.65-0.68
		c-0.48,0.08-0.4,0.56-0.37,0.88C193.48,209.22,192.99,211.02,191.93,212.68z"/>
	<path class="st14" d="M34.5,187.03c0.78,7.67,2.48,15.07,6.44,21.79c0.21,0.35,0.51,0.64,0.77,0.96
		c-0.13,3.82-0.91,7.56-0.31,11.47c0.33,2.16,0.76,4.4,0.81,6.63c0.03,1.63,0.52,3.05,1.57,4.27c0.3,0.35,0.53,0.57,0.04,1.01
		c-3.34,2.96-5.94,6.52-8.28,10.35c-0.97-0.7-1.12-1.71-1.28-2.6c-0.84-4.64-2.56-9.09-3.09-13.8c-0.67-5.9-0.82-11.8-0.32-17.73
		c0.42-4.88,0.46-9.8,1.56-14.6C33.01,192.18,33.46,189.52,34.5,187.03z"/>
	<path class="st17" d="M124.89,264.83c0,0.7,0.23,1.13,1.05,1.1c5.96-0.22,11.98,0.65,17.88-0.73c3.39-0.79,6.81-0.55,10.22-0.73
		c-0.08,1.4-0.68,2.46-1.55,3.63c-3.77,5.05-9.38,7.03-14.82,9.33c-7.88,3.34-15.72,6.75-23.12,11.09
		c-0.48,0.28-0.94,0.72-1.74,0.63c1.35-2.12,2.68-4.15,3.95-6.22c3.21-5.22,5.66-10.79,7.5-16.63
		C124.43,265.79,124.68,265.31,124.89,264.83z"/>
	<path class="st18" d="M171.32,10.72c0.57,0.97,0.37,1.35-0.79,1.06c-1.94-0.47-3.58-1.61-5.39-2.38c-2.29-0.97-4.39-2.61-7.05-2.32
		c-6.41,0.7-12.86,1.41-18.86,3.86c-5.5,2.25-10.41,5.61-14.89,9.53c-3.05,2.67-6.23,5.21-8.63,8.55c-0.38,0.53-0.75,1.03-1.02,1.65
		c-2.18,5.01-3.43,10.21-4.13,15.67c-0.67,5.3-2.5,10.43-3.43,15.73c-0.67,3.82-1.25,7.66-1.28,11.55
		c-0.03,3.65-0.39,7.27-0.67,10.9c-0.25,3.3,0.54,6.54,1.08,9.76c0.72,4.36,1.66,8.68,1.4,13.15c-0.02,0.42-0.03,0.85,0.33,1.16
		c0.2,1.87,0.73,3.7,1.67,5.27c1.08,1.79,0.67,3.24-0.5,5.02c-0.22-1.89-0.33-3.57-0.63-5.21c-0.44-2.36-1.18-4.63-2.09-6.86
		c-2.72-6.66-3.92-13.59-4.33-20.79c-0.5-8.84,1.08-17.35,2.7-25.95c1.15-6.1,2.07-12.25,3.55-18.29c0.78-3.2,1.64-6.41,3.07-9.38
		c1.72-3.61,4.38-6.59,7.32-9.24c7.23-6.52,15.52-11.37,24.33-15.45c6.4-2.97,12.8-2.25,19.3-0.71
		C165.57,7.79,168.42,9.3,171.32,10.72z"/>
	<path class="st19" d="M53.99,167.3c-0.24-0.02-0.74,0.94-0.68-0.16c0.1-1.73,0.16-3.47,0.41-5.17c1.24-8.45,2.32-16.92,2.05-25.49
		c-0.16-5.14-0.55-10.29-2.23-15.18c-1.13-3.29-3.52-5.95-5.41-8.84c-0.66-1.02-1.24-2.05-1.62-3.17c-0.73-2.16-1.31-4.38-3.24-5.87
		c-0.38-0.29-0.2-0.63-0.08-0.97c0.9-0.52,1.79-0.48,2.75-0.1c2.53,0.99,4.3,2.73,6.07,4.81c3.92,4.59,5.89,9.96,7.09,15.67
		c0.87,4.1,0.88,8.27,0.73,12.48C59.44,146.28,57.99,157.02,53.99,167.3z"/>
	<path class="st20" d="M224.58,309.21c0.06-1.44,0.57-2.7,1.64-3.64c2.3-2.01,3.74-4.62,5.06-7.28c1.74-3.51,3.87-6.54,7.76-7.89
		c4.17-0.03,7.91,1.11,11.01,4.01c2.78,2.62,1.16,8.22-2.33,9.13c0.85-3.53,1.92-7.08-1.55-9.88c-0.12-0.13-0.25-0.26-0.41-0.33
		c-0.58-0.25-1.17-0.48-1.9-0.7c0.26,0.7,0.69,1.18,0.91,1.76c1.94,2.71,2.03,5.84,0.24,8.66c-1.13,1.77-2.5,3.34-4.15,4.65
		c-0.52,0.25-0.93,0.7-1.51,0.83c-0.7,0.16-1.32,0.16-1.07-0.87c0.37-1.84,0.64-3.66-0.28-5.45c-0.73-1.41-1.73-2.24-3.45-2
		c-0.05,0.96,0.6,1.57,0.99,2.28c0.41,0.75,0.7,1.49,0.68,2.38c-0.06,3.54-1.71,5.06-6.05,5.3
		C228.25,310.29,226.35,310.05,224.58,309.21z"/>
	<path class="st11" d="M199.47,58.17c-0.57-0.73-2.11-0.56-2.02-1.78c0.09-1.17,1.36-1.39,2.22-1.87c2.95-1.63,6.06-2.87,9.32-3.74
		c0.81-0.22,1.41-0.16,0.78-1.41c-0.66-1.32-0.12-2.95-0.17-4.44c0.57,1.32,0.13,2.77,0.63,4.12c0.52,1.4,1.95,1.85,3.24,0.88
		c2.17-0.14,3.14,1.53,4.32,2.87c-0.73,0.72,0.26,0.99,0.4,1.48c0.2,0.66,1.1,0.96,1.02,1.81c-0.66-0.05-1.3-0.34-1.55,0.77
		c-0.4,1.79-1.51,3.27-2.73,4.59c-0.85,0.92-1.14,1.85-1.04,3.08c0.24,2.79,0.46,5.61-0.03,8.4c-0.28,1.57,0.45,1.39,1.49,1.03
		c0.75-0.26,1.49-0.9,2.36-0.31c0.15,0.16,0.3,0.32,0.45,0.47c-0.68,0.85-0.94,1.82-0.75,2.9c0.04,0.35,0.07,0.71,0.11,1.05
		c-1.33-0.28-1.12-0.27-1.25,1.3c-0.2,2.48-0.61,4.93-0.8,7.42c-0.09,1.18-0.49,2.31,0.22,3.44c0.26,0.41-0.2,0.6-0.48,0.8
		c-0.06,1.13,0.49,2.49-1.11,3.06c-1.5-0.37-1.51-1.59-1.37-2.7c0.53-4.08,0.68-8.22,1.65-12.25c0.5-2.05,0.34-2.14-1.8-1.71
		c-0.89,0.18-1.71,0.53-2.56,0.8c-2.84,0.9-5.64,1.92-8.73,1.75c-2.6-0.14-3.46,0.86-3.37,3.51c0.02,0.47,0.16,0.94,0.14,1.42
		c-0.57,1.77-1.29,2.1-2.88,1.32c-0.21-0.11-0.41-0.24-0.62-0.37c-0.5-0.31-0.95-0.68-1.46-1.14c1.16,3.87,3.26,6.98,6.49,9.28
		c1.46,1.04,1.64,0.97,1.93-0.73c0.22-1.28,0.99-1.69,2.16-1.61c0.81,0.05,1.59,0.34,2.08,0.95c1.69,2.11,3.73,2.07,5.97,1.14
		c0.79-0.15,1.65-0.4,1.58,0.92c-1.96,2.18-4.38,2.11-6.92,1.43c-0.1-0.06-0.19-0.13-0.29-0.2c-0.8-0.59-1.33-1.98-2.26-1.82
		c-1.07,0.19-0.47,1.8-1.13,2.57c-0.74,0.86-1.6,0.59-2.47,0.26c-2.56-0.97-4.49-2.7-6.09-4.88c-2.75-3.74-3.96-8.04-4.49-12.56
		c-0.14-1.2-0.26-2.14-1.85-1.91c-0.65,0.09-1.12-0.38-1.26-1.05c-0.12-0.59,0.08-1.08,0.59-1.4c0.93-0.58,1.95-0.96,3.04-0.99
		c0.86-0.03,1.58,0.41,1.76,1.26c0.28,1.33,1.18,1.64,2.33,1.81c5.07,0.77,10.04,0.28,14.95-1.12c1.41-0.4,2.15-1.31,2.21-2.71
		c0.12-2.93,0.28-5.87-0.16-8.8c-0.14-0.96-0.6-1.38-1.5-1.74c-2.96-1.16-5.81-2.57-8.89-3.43
		C200.29,59.23,199.66,58.92,199.47,58.17z"/>
	<path class="st21" d="M5.41,62.52c0,3.4,0,6.81,0.02,10.21c0,0.58-0.16,1.21,0.31,1.71c0.42,0.33,0.47,0.82,0.49,1.29
		c0.2,5.59,1.94,10.76,4.31,15.75c0.31,0.66,0.33,1.38,0.61,2.03c0.97,2.14,2.25,4.08,3.91,5.77c2.86,2.9,5.74,5.84,9.06,8.17
		c3.41,2.4,7.51,3.35,11.65,3.93c0.7,0.1,1.46-0.1,2.04,0.48c0.9,0.64,2.02,1.03,2.46,2.19c-2.51,1.16-5.2,0.95-7.85,1.02
		c-0.46-0.41-1.04-0.35-1.55-0.28c-3.38,0.46-6.24-0.89-8.93-2.61c-3.99-2.56-7.75-5.41-10.6-9.31c-2.89-3.95-4.87-8.28-6.29-12.95
		c-0.84-2.74-0.57-5.57-1.14-8.29c-0.5-2.42,0.04-4.87-0.41-7.2c-0.78-3.98,0.11-7.9-0.02-11.84c-0.02-0.56,0.32-1.13,0.51-1.75
		C4.8,61.23,4.98,61.98,5.41,62.52z"/>
	<path class="st20" d="M193.32,326.36c-1.69-0.94-0.86-2.55-1.04-3.89c1.3-5.89,5.25-9.95,9.54-13.74c2.62-2.31,5.9-2.25,9.15-2.12
		c2.99,3.14,3.69,8.97,1.18,11.86c-0.14-1.52-0.04-2.89-0.54-4.15c-0.38-0.95-0.77-1.9-1.59-2.57c-0.49-0.4-1.08-0.65-1.63-0.17
		c-0.5,0.44-0.31,1.01,0.04,1.46c1.29,1.68,1.5,3.61,1.38,5.63c-0.22,3.56-1.44,5.18-4.79,6.36c-0.51,0.18-1.02,0.34-1.82,0.62
		c0.65-2.62,0.61-5.09,0.55-7.57c-0.03-1.35-0.36-2.4-2.07-2.45c-1.46-0.04-1.86,0.36-1.32,1.8c0.61,1.61,1.51,3.08,1.33,4.95
		c-0.25,2.61-1.6,4.04-4.23,4.05C196.08,326.44,194.7,326.39,193.32,326.36z"/>
	<path class="st15" d="M114.48,84.12c0.92,2.81,1.05,5.79,1.76,8.66c1.29,5.26,3.19,10.21,6.17,14.74
		c-2.87,1.12-4.43,3.32-5.02,6.24c-0.4,1.98-0.61,3.99-0.15,6.21c-2.14-0.71-3.3-2.29-4.25-3.82c-2.66-4.25-4.07-8.71-3.31-13.98
		c0.87-6.08,2.56-11.87,4.49-17.64C114.21,84.38,114.37,84.26,114.48,84.12z"/>
	<path class="st10" d="M217.8,52.8c-1.67-0.61-2.45-2.56-4.32-2.87c-1.82-0.51-2.21-1.91-2.31-3.57
		c-0.36-5.91-1.36-11.68-4.34-16.91c-0.62-1.09-1.32-2.14-2.11-3.1c-0.75-0.92-0.6-1.57,0.23-2.27c1.17-0.98,2.08-2.24,2.63-3.59
		c0.61-1.51,1.11-0.91,1.64-0.16c1.6,2.25,2.82,4.7,3.88,7.26c3.19,7.75,5.65,15.71,7.11,23.97c0.14,0.81,0.21,1.63,0.35,2.66
		C219.54,53.69,218.67,53.24,217.8,52.8z"/>
	<path class="st20" d="M111.95,317.02c1.15-1.2,2.26-2.45,3.47-3.6c0.81-0.78,1.69-1.57,2.97-1.4c0.83,0.29,1.71,0.49,2.49,0.88
		c2.9,1.44,4.33,7.46,2.37,10.05c-0.87,1.14-2.32,1.22-3.59,1.43c-3.19,0.52-6.4,0.79-9.51-0.5
		C109.12,321.17,110.12,318.98,111.95,317.02z"/>
	<path class="st12" d="M193.63,215.83c3.23,4.12,3.84,8.66,2.46,13.65c-0.62,2.22-0.9,4.55-0.99,6.88c-1.9,2.28-3.8,4.55-5.93,7.11
		c-0.38-1.74,0.08-3.03,0.14-4.35c0.25-5.76,1.56-11.33,2.84-16.9C192.64,220.09,192.39,217.78,193.63,215.83z"/>
	<path class="st20" d="M217.73,73.63c-1.24,0.42-2.49,0.83-3.72,1.28c-0.73,0.26-1.02,0.09-0.85-0.71
		c0.79-3.68,0.57-7.38,0.12-11.07c-0.06-0.48,0.06-0.81,0.39-1.11c2.09-1.88,3.48-4.21,4.11-6.92c0.8,0.09,0.94,0.77,1.44,0.98
		c0.58,1.21,1.54,2.23,1.86,3.57c-0.08,3.56,0.8,7.15-0.28,10.69c-0.17,0.57-0.33,1.15-0.87,1.5
		C219.5,72.81,218.67,73.29,217.73,73.63z"/>
	<path class="st18" d="M119.18,134.56c0.65,0.19,0.64,0.8,0.83,1.28c1.66,4.11,3.76,7.99,6.27,11.63c2.45,3.56,6.13,5.1,10.3,5.79
		c3.12,0.52,6.12,1.52,8.81,3.27c0.02,2.78-0.02,2.94-2.79,2.16c-6.39-1.8-12.77-3.75-17.54-8.76c-2.57-2.7-4.65-5.68-4.97-9.64
		C119.93,138.39,118.83,136.58,119.18,134.56z"/>
	<path class="st21" d="M114.11,120.13c0.09,5.04,0.52,10.07,0.37,15.11c-1.01,1.83-2.01,3.66-3.1,5.64
		c-1.19-1.96-2.02-4.01-2.17-6.14c-0.31-4.53-0.52-9.09,1-13.51C111.37,117.86,111.48,117.81,114.11,120.13z"/>
	<path class="st20" d="M122.38,311.64c-0.46-0.71-0.13-1.22,0.46-1.61c1.21-0.81,2.41-1.67,3.88-1.98c0.07,0.04,0.13,0.07,0.2,0.1
		c0.41,0.43,0.84,0.83,1.16,1.34c2.04,1.42,3.81,2.97,4.3,5.63c0.72,3.9-1.27,7.73-4.8,8.87c-0.69,0.22-1.51,0.48-2.06,0.02
		c-0.46-0.4,0.08-1.11,0.19-1.66C126.53,318.17,126.31,314.33,122.38,311.64z"/>
	<path class="st22" d="M11.15,93.5c-2.7-4.15-3.91-8.85-5.02-13.59c-0.42-1.81-0.41-3.64-0.39-5.48c0-1.11,0-2.21,0-3.38
		c0.89,0.22,0.71,0.8,0.8,1.22c1.48,6.74,4.82,12.65,8.24,18.53c0.24,0.41,0.47,0.83,0.7,1.25c-0.33,0.45-0.89,0.23-1.37,0.46
		c0.39,0.89,1.76,0.86,1.86,1.98c-0.18,1.54,1.17,2.24,1.81,3.34c0.34,0.58,1.18,0.9,0.92,1.78c-2.51-1.47-4.18-3.75-5.91-6
		C12.45,93.17,11.81,91.52,11.15,93.5z"/>
	<path class="st23" d="M156.99,30.2c-0.88,6.19-2.25,12.29-3.84,18.33c-1.67,6.33-3.46,12.64-5.17,18.96
		c-0.56,2.07-2.62,1.76-3.95,2.61c0.15-2.55,1.81-4.51,2.66-6.79c2.68-7.21,5.92-14.23,7.15-21.91c0.34-2.12,0.61-4.25,0.64-6.4
		C154.51,32.99,154.74,31.05,156.99,30.2z"/>
	<path class="st24" d="M175.69,176.28c3.09,3.8,3.85,8.26,3.65,12.98c-0.63,1.58-2.04,2.47-3.2,3.56c-0.81,0.76-1.13,0.22-1.13-0.65
		c0-2.04-0.07-4.08,0.01-6.11c0.13-3.55-0.66-6.89-2.16-10.08c-0.14-0.3-0.45-0.6-0.11-1.08
		C173.89,174.92,174.74,175.72,175.69,176.28z"/>
	<path class="st25" d="M148.67,156.48c-0.01-1.6,0.83-0.91,1.44-0.49c2.46,1.7,4.98,3.33,7.32,5.19c3.63,2.87,7.43,5.44,11.6,7.45
		c2.35,1.14,4.25,2.89,6.2,4.55c0.25,0.21,0.86,0.39,0.44,0.97c-3.39-2.4-7.15-4.12-10.93-5.8c-4.95-2.2-9.53-5.02-13.63-8.58
		C150.06,158.85,149.19,157.79,148.67,156.48z"/>
	<path class="st26" d="M126.72,308.05c1.58-1.43,3.52-2.17,5.46-2.93c1.55,0.84,2.79,2.07,3.89,3.39c1.45,1.74,0.89,6.62-1.1,8.44
		c0.28-2.52-0.51-4.42-2.19-6.06c-1.15-1.13-2.67-1.12-3.97-1.72c-0.7-0.38-1.61-0.38-2.11-1.14L126.72,308.05z"/>
	<path class="st27" d="M183.95,4.21c-1.22,0.78-2.55,0.33-3.82,0.27c-3.03-0.14-6.06-0.42-9.09-0.63c-0.41-0.03-0.86-0.03-1.24,0.12
		c-1.2,0.46-1.32,1.27-0.28,2c1.42,1.01,2.77,2.09,3.92,3.39c0.27,0.3,0.97,0.59,0.35,1.12c-0.45,0.39-0.92,0.14-1.21-0.32
		c-0.3-0.47-0.57-0.92-1.21-0.94c-2.67-1.84-5.49-3.33-9.03-3.93c1.15-0.95,2.29-0.98,3.31-1.27c1.03-0.29,2.08-0.5,3.14-0.71
		c4.26-0.84,8.53-0.81,12.82-0.29C182.59,3.15,183.25,3.66,183.95,4.21z"/>
	<path class="st28" d="M143.95,70.34c0.12,0.52-0.13,1.13,0.41,1.54c0.06,0.34-0.06,0.5-0.42,0.4c-0.89-0.17-1.4,0.57-2.09,0.89
		c-6.99,3.28-13.97,6.58-20.95,9.88c-0.37,0.18-0.74,0.39-1.66-0.03c7.95-4.81,16.06-8.58,24.06-12.56
		C143.53,70.43,143.74,70.39,143.95,70.34z"/>
	<path class="st29" d="M37.8,111.85c-9.89-0.01-16.98-5.09-22.74-12.58c3.31,2.77,6.93,5.03,10.87,6.78c2.83,2.02,6,3.26,9.33,4.15
		c1.15,0.3,1.24-0.54,1.49-1.25C38.56,109.39,37.15,110.99,37.8,111.85z"/>
	<path class="st30" d="M206.25,19.63c-5.53-3.53-11.07-7.05-16.59-10.59c-0.6-0.38-1.17-0.82-1.75-1.23
		c-0.03-0.05-0.06-0.1-0.09-0.16c-0.31-0.6-1.25-1.28-0.68-1.8c0.65-0.6,1.19,0.43,1.72,0.84c4.95,3.78,10.3,6.94,15.56,10.26
		c0.61,0.38,1.15,0.89,1.78,1.19C207.25,18.66,206.65,19.13,206.25,19.63z"/>
	<path class="st31" d="M157.68,208.66c0.61,0.09,0.69,0.51,0.73,1.04c0.36,5.27,1.1,10.53,0.7,15.84c-0.05,0.64,0.19,1.33-0.32,1.89
		c-0.01-2.44-0.01-4.88-0.02-7.32c0-0.36,0.01-0.72-0.03-1.07c-0.07-0.65-0.43-1.17-1.07-1.26c-0.87-0.12-0.58,0.67-0.73,1.12
		c-0.07,0.21-0.24,0.39-0.36,0.58C156.61,215.84,156.53,212.18,157.68,208.66z"/>
	<path class="st32" d="M18.69,99.62c-1.03-1.33-2.06-2.67-3.1-4c-0.37-0.47-0.68-0.92,0.25-1.09c0.93-0.16,1.48,0.28,1.79,1.12
		c2.21,2.99,4.77,5.62,7.84,7.74c0.33,0.23,0.54,0.62,0.8,0.93C23.45,103.24,20.82,101.84,18.69,99.62z"/>
	<path class="st33" d="M36.75,108.95c0.57,1.19,0.51,2.09-1.12,1.78c-3.38-0.64-6.42-2.16-9.38-3.86c-0.25-0.14-0.7-0.36-0.32-0.82
		C29.36,107.66,33.1,108.12,36.75,108.95z"/>
	<path class="st34" d="M209.27,43.89c-0.05,1.36,0.03,2.75-0.19,4.08c-0.38,2.35-1.67,2.94-3.95,1.98c2.36-0.8,3.04-1.73,2.71-4.11
		c-0.3-2.14-0.01-4.52-2.46-6.07C208.19,39.81,208.87,40.61,209.27,43.89z"/>
	<path class="st35" d="M205.2,33c-2.26-0.33-4.13,0.98-6.19,1.49c-0.41,0.1-0.79,0.8-1.22,0.19c-0.4-0.57,0.07-1.04,0.48-1.37
		c1.49-1.18,2.87-2.55,4.85-2.88c0.43-0.07,0.63-0.29,0.7-0.69C204.55,30.72,204.81,31.89,205.2,33z"/>
	<path class="st36" d="M79.92,210.13c-1.63,2.14-4.1,3.13-6.26,4.55c-0.94,0.61-1.93,1.16-2.81,1.85c-0.55,0.43-0.95,0.33-1.43,0.01
		C72.6,213.88,75.92,211.44,79.92,210.13z"/>
	<path class="st11" d="M219.94,71.84c1.62-3.95,1.09-8.1,1.15-12.19c0.59,0.64,0.19,1.43,0.34,2.14c0,1.59,0,3.17,0,4.87
		c0.3-0.1,0.51-0.1,0.58-0.2c0.23-0.35,0.04-1.11,0.77-0.93c0.62,0.15,0.42,0.78,0.39,1.21c-0.02,0.4-0.22,0.78-0.34,1.18
		c-0.98,0.07-0.96,0.78-1.12,1.52c-0.21,0.95-0.2,2.03-1.12,2.72C220.1,72.52,220.01,72.25,219.94,71.84z"/>
	<path class="st37" d="M132.07,304.84c-1.14-0.92-2.76-0.57-3.9-1.47c0.83-0.26,0.83-0.26-0.21-1.47
		C130,302.1,131.29,303.12,132.07,304.84z"/>
	<path class="st38" d="M203.27,41.2c0.65-0.02,1.05,0.31,1.08,0.93c0.03,0.54-0.33,0.91-0.87,0.95c-0.64,0.05-1.03-0.34-1.07-0.95
		C202.37,41.6,202.71,41.27,203.27,41.2z"/>
	<path class="st39" d="M238.28,307.67c0.84,1.54,1.73-0.24,2.58,0.04c-0.37,0.47-0.74,0.94-1.11,1.41
		C238.79,309.11,237.64,309.3,238.28,307.67z"/>
	<path class="st12" d="M126.71,308.03c0.81,0.18,1.61,0.39,2.11,1.14c-0.3-0.03-0.58-0.01-0.74,0.31
		C127.29,309.31,126.8,308.87,126.71,308.03z"/>
	<path class="st15" d="M214.57,158.28c0.73,0.11,1.08-0.32,1.35-0.91c2.95-6.36,7.27-11.89,10.84-17.88c0.57-0.96,0.96-1.97,1.05-3
		c0.45-4.85,0.78-9.71,1.15-14.57c2.64,3.01,4.26,6.64,4.57,10.5c0.51,6.44-0.11,12.87-2.37,19.03c-0.16,0.45-0.32,0.9-0.54,1.33
		c-0.26,0.52-0.45,1.3-1.11,1.28c-0.72-0.01-0.42-0.86-0.64-1.3c-0.88-1.71-2.01-3.24-3.38-4.6c-0.38-0.38-0.77-0.87-1.38-0.54
		c-0.58,0.31-0.71,0.84-0.66,1.52c0.4,5.27-0.92,10.05-4.24,14.22c-0.92,1.16-1.86,2.87-3.2,2.86c-0.88-0.01-0.16-2.09-0.5-3.23
		C215.05,161.46,215.2,159.79,214.57,158.28z"/>
	<path class="st40" d="M200.16,183.48c-1.15-2.63-3.25-4.54-5.08-6.64c-1.6-1.85-3.45-3.49-5.17-5.26c-0.29-0.3-1-0.57-0.57-1.11
		c0.45-0.57,0.81,0.06,1.18,0.32c4.87,3.43,8.56,7.94,11.88,12.82c1.64,2.41,2.66,5.06,3.35,7.86c0.12,0.47,0.29,0.93-0.17,1.32
		c-0.29-0.86-0.41-1.8-1.09-2.49c-0.39-0.25-0.59-0.57-0.43-1.05C202.96,187.19,201.73,185.22,200.16,183.48z"/>
	<path class="st1" d="M213.82,208.99c-0.02-0.1-0.01-0.2,0.01-0.3c0.55-0.15,1.45-1.47,1.41,0.34c-0.02,0.92,0.57,2.61-0.62,2.61
		C213.15,211.63,214.15,209.9,213.82,208.99z"/>
	<path class="st41" d="M236.14,164.73c-0.52-3.22-0.58-6.45,0.01-9.67C236.14,158.28,236.14,161.51,236.14,164.73z"/>
	<path class="st1" d="M205.2,195.51c0.78,0.32,1.7,0.21,1.59,1.23c-0.05,0.49-0.41,1.23-1.01,1.03
		C204.67,197.38,205.4,196.4,205.2,195.51z"/>
	<path class="st42" d="M217.44,210.12c0.46,1.85-1.14,2.35-2.13,3.25C215.43,211.9,216.22,210.87,217.44,210.12z"/>
	<path class="st43" d="M219.27,287.2c-0.35,0.2-0.69,0.52-1.07,0.58c-0.66,0.1-1.66,0.69-1.93-0.08c-0.35-0.98,0.85-0.99,1.48-1.3
		C218.04,287.08,218.64,287.17,219.27,287.2z"/>
	<path class="st1" d="M200.16,186c0.12-0.44-0.52-0.85,0.05-1.39c0.74,0.67,1.31,1.44,2.07,2.79
		C201.25,186.78,200.96,185.92,200.16,186C200.16,186,200.16,186,200.16,186z"/>
	<path class="st15" d="M223.51,202.91c-0.58,0.59-1.17,1.19-1.75,1.78C221.82,203.58,221.9,202.49,223.51,202.91z"/>
	<path class="st15" d="M220.98,205.81c-0.31,1.15-1.18,1.84-2.1,2.47C219.17,207.1,220.17,206.54,220.98,205.81z"/>
	<path class="st1" d="M204.07,189.24c0.14,0.35,0.29,0.7,0.43,1.05c-0.36,0.49-0.7,0.32-0.93-0.09
		C203.27,189.69,203.45,189.33,204.07,189.24z"/>
	<path class="st44" d="M230.04,102.84c-1.07-2.09-2.13-4.17-3.21-6.25c-0.16-0.3-0.5-0.56-0.07-0.89c3.2,4.46,6.41,8.91,8.26,14.17
		c0.51,1.47,0.88,2.97,1.16,4.49c-0.02,0.18,0.02,0.46-0.07,0.51c-0.58,0.32-0.37-0.31-0.41-0.45
		C234.37,110.29,232.45,106.44,230.04,102.84z"/>
	<path class="st45" d="M244.77,294.4c-0.78-0.61-2.02-1.5-1.49-2.24c0.55-0.76,1.53,0.55,2.36,0.87c0.26,0.1,0.51,0.3,0.53,0.64
		C245.46,293.44,244.82,293.35,244.77,294.4z"/>
	<path class="st46" d="M206.33,95.66c2.45,0.76,4.74,0.53,6.79-1.12c0.2-0.47,0.72-0.45,1.05-0.71c1.11-0.65,0.25-2.04,1.06-2.81
		c0.88,1.57,1.03,3.14,0.19,4.8c-0.5,0.98-0.51,2.05-0.33,3.16c0.25,1.54,0.3,3.07-0.28,4.6c-1.26,3.31-4.07,4.12-7.08,4.19
		c-5.36,0.14-10.61-0.83-15.77-2.26c-2.07-0.57-4.27-0.57-6.23-1.56c-0.75-5.26-1.43-10.56-0.97-15.86c0.36-4.17,0.1-8.35,0.5-12.51
		c0.57-5.9,4.15-9.89,8.19-13.62c1.76-1.63,3.71-3,6.01-3.79c3.79,1.4,7.43,3.17,11.31,4.34c0.49,0.15,0.92,0.2,0.96,0.82
		c0.24,3.7,0.54,7.4,0.02,11.11c-0.15,1.1-0.75,1.59-1.79,1.92c-5.41,1.74-10.92,1.99-16.51,1.21c-1.02-0.14-2.03-0.32-1.79-1.86
		c0.13-0.86-0.62-1.33-1.42-1.2c-0.93,0.15-1.85,0.49-2.74,0.82c-0.55,0.21-0.87,0.67-0.63,1.3c0.21,0.53,0.69,0.7,1.19,0.54
		c1.95-0.65,2.05,0.39,2.17,1.98c0.36,4.79,1.66,9.29,4.74,13.15c1.57,1.97,3.47,3.45,5.82,4.36c0.76,0.29,1.37,0.3,1.93-0.33
		C203.92,96.09,205.16,96.06,206.33,95.66z"/>
	<path class="st47" d="M136.41,40.17c-0.31,1.31-0.79,2.16-2.46,1.59c-1.04-0.36-2.24-0.3-3.37-0.39c-3.59-0.26-6.93,2.96-6.79,6.53
		c0.04,1.07,0.38,1.95,1.32,2.57c0.31-0.57-0.08-0.99-0.13-1.45c-0.32-2.83,1.2-5.07,3.96-5.78c0.23-0.06,0.47-0.12,0.7-0.12
		c1.6,0,3.65-0.53,4.62,0.63c0.7,0.84-0.91,2.36-1.4,3.62c-1.14,2.95-2.53,5.82-2.57,9.08c-0.02,1.75-1.38,0.76-2.13,1.03
		c-4.37,0.52-7.72-3.57-8.37-7c-0.97-5.19,1.24-9.01,5.13-12.14c0.45-0.36,0.96-0.8,1.57-0.21c0.24,1.02,0.98,1.19,1.89,1.2
		c1.84,0.02,3.68-0.13,5.51,0.11C134.75,39.56,135.67,39.56,136.41,40.17z"/>
	<path class="st48" d="M126.35,38.06c-6.21,3.47-8.19,10.67-4.48,15.99c1.54,2.22,3.9,2.82,6.29,3.43c0.23,0.36,0.59,0.35,0.95,0.38
		c0.41,0.03,1,0.02,0.95,0.55c-0.06,0.58-0.6,0.83-1.2,0.85c-6.67,0.21-11.34-4.51-11.55-11.22c-0.19-6.07,2.8-10.04,7.93-12.43
		c4.12-1.92,8.35-0.94,12.18,1.2c1.84,1.03-0.16,1.6-0.63,2.32c-0.27,0.17-0.58,0.23-0.85,0.08c-2.81-1.65-5.81-1.67-8.89-1.04
		C126.81,38.22,126.57,38.17,126.35,38.06z"/>
	<path class="st49" d="M143.94,72.28c0.14-0.13,0.28-0.27,0.42-0.4c0.87-0.32,1.74-0.65,2.7-1.01c-0.47,2.89-0.9,5.63-1.38,8.36
		c-0.1,0.59-0.51,1.32-0.05,1.7c0.64,0.54,0.97-0.4,1.43-0.68c2.86-1.73,5.69-3.5,8.71-5.38c-0.09,0.83-0.58,1.07-1.05,1.37
		c-2.78,1.74-5.53,3.54-8.35,5.22c-1.44,0.86-1.64,1.77-0.56,3.01c-2.56,1.01-4.4,3.04-6.53,4.64c-2.39,1.79-4.79,3.58-6.91,5.71
		c-0.38,0.39-0.86,1.19-1.42,0.59c-0.46-0.49,0.22-1.08,0.62-1.49c3.61-3.78,7.77-6.92,11.93-10.03c1.03-0.76,1.31-1.39,0.97-2.68
		C143.69,78.29,142.7,75.34,143.94,72.28z"/>
	<path class="st50" d="M174.07,121.42c1.5,0.67,1.59,1.69,1.98,2.52c2.03,4.34,3.98,8.73,7.5,12.15c1.29,1.26,2.84,2.18,4.3,3.22
		c0.3,0.21,0.89,0.34,0.56,0.92c-0.25,0.43-0.66,0.38-1.11,0.29c-7.14-1.52-13.79-4.05-18.89-9.55c-1.26-1.35-2.66-2.67-3.48-4.58
		c0.95,0,1.28,0.65,1.7,1.08c2.83,2.84,5.62,5.7,9.15,7.74c2.25,1.3,4.66,2.17,7.11,2.95c0.41,0.13,0.96,0.63,1.25,0.03
		c0.24-0.52-0.4-0.77-0.75-1.07C178.58,133.03,176.64,127.33,174.07,121.42z"/>
	<path class="st51" d="M208.63,139.79c2.36,1.85,3.12,4.78,5.02,7.6c1.01-4.04,0.37-7.66,0.54-11.22c0.17-3.58-1.15-6.96-1.65-10.49
		c0.88,0.03,1,0.65,1.17,1.11c2.39,6.82,2.49,13.78,1.25,20.82c-0.11,0.63-0.23,1.2-0.98,1.29c-0.7,0.09-1.16-0.32-1.45-0.87
		C211.12,145.35,210.15,142.46,208.63,139.79z"/>
	<path class="st52" d="M197.28,162.96c-2.12-0.51-3.46-2.18-5.02-3.47c-1.58-1.32-2.9-2.95-4.33-4.45
		c-0.82-1.39-1.66-2.77-2.44-4.18c-0.24-0.43-0.78-1.05-0.15-1.42c0.69-0.41,0.84,0.42,1.1,0.84c1.85,2.95,3.86,5.77,6.46,8.1
		c0.93,0.83,1.98,1.53,2.97,2.3c0.76,0.6,0.99,0.34,1.06-0.53c0.13-1.65-0.18-3.21-0.76-4.74c-0.1-0.27-0.25-0.56,0.04-0.82
		C198.28,156.16,198.83,160.48,197.28,162.96z"/>
	<path class="st53" d="M126.35,38.06c3.66-1.35,7.14-0.99,10.44,1.08c-0.13,0.34-0.26,0.69-0.38,1.03
		c-3.07-0.46-6.15-0.34-9.23-0.34C125.57,39.83,125.99,38.94,126.35,38.06z"/>
	<path class="st54" d="M217.43,77.01c-0.75-1.22-1.21-2.37,0.75-2.9c0.67,0.16,2.04-0.89,1.7,1c0.23,1.35-0.11,2.53-1.07,3.51
		C217.96,78.42,218.11,77.36,217.43,77.01z"/>
	<path class="st11" d="M218.81,78.62c0.36-1.17,0.71-2.34,1.07-3.51c0.3-0.14,0.41-0.4,0.43-0.72c0.03-0.46-0.07-1.18,0.54-1.14
		c0.71,0.04,0.62,0.82,0.51,1.3c-0.3,1.27-0.66,2.54-1.1,3.77C220,79.07,219.48,79.39,218.81,78.62z"/>
	<path class="st55" d="M173.78,53.92c-0.9,0.28-1.8,0.26-2.7,0.01c-1.96,0.03-2.44-1.54-2.92-2.91c-0.66-1.86-0.68-3.86-0.79-5.85
		c-0.66,0.35-0.75,1.23-1.47,1.49c-1.52,0.66-1.16-0.57-1-1.15c0.46-1.69,1.65-2.89,3.15-3.7c2.74-1.47,7.31-0.58,9.43,1.67
		c0.79,0.85,0.76,1.39-0.3,1.86c-0.58,0.32-0.99-0.07-1.46-0.37c1.09,2.55,1.13,5.07-0.15,7.54
		C175.2,53.24,174.86,54.08,173.78,53.92z"/>
	<path class="st56" d="M180.06,34.48c-3.27,0.34-6.48,0.08-9.56,1.37c-2.77,1.16-5.52,2.33-7.95,4.12
		c-0.47,0.34-0.97,0.89-1.58,0.35c-0.61-0.53-0.43-1.25-0.06-1.81c2.08-3.1,4.25-5.91,8.67-5.54c2.8,0.23,5.62,0.12,8.38,0.78
		C178.67,33.92,179.35,34.23,180.06,34.48z"/>
	<path class="st57" d="M187.3,60.75c-10.87-0.21-21.22,2.95-31.78,4.75C165.87,62.35,176.31,59.76,187.3,60.75z"/>
	<path class="st58" d="M165.9,46.67c0.35-1.17,1-2.12,2.23-3c-0.33,2.46-0.22,4.67,0.33,6.85c0.39,1.52,1.14,2.74,2.63,3.41
		c-3.82,1.12-4.87,0.29-5.4-3.37C165.5,49.28,165.65,47.96,165.9,46.67z"/>
	<path class="st59" d="M173.78,53.92c2.66-2.1,2.97-5.75,0.78-10.05c1.27-0.11,1.51,1.49,2.62,1.48c0.8,2.11,2.23,4.06,1.25,6.54
		C177.38,54.57,176.67,54.94,173.78,53.92z"/>
	<path class="st57" d="M161.07,72.61c6.48-3.8,13.47-6.06,20.78-7.4C174.77,67.3,167.9,69.94,161.07,72.61z"/>
	<path class="st15" d="M158.72,141.72c0.8-0.02,1.61,0.16,2.21-0.54c0.18-0.21,0.46-0.49,0.7-0.09c0.14,0.23,0.3,0.7,0.2,0.8
		c-1.85,1.78,0.21,1.69,1,1.91c0.97,0.26,2.3-0.07,1.18,1.66c-0.29,0.44,0.25,0.54,0.6,0.58c0.41,0.05,0.91-0.01,0.9,0.6
		c0,0.58-0.5,0.76-0.93,0.97c-0.86,0.41-1.75,0.16-2.62,0.22c-0.09-0.69,0.48-0.7,0.77-0.94c0.84-0.69,0.67-1.47-0.28-1.42
		C159.7,145.59,159.38,143.56,158.72,141.72z"/>
	<path class="st15" d="M172.91,145.75c-0.62,0.78-0.97,1.25-1.35,1.69c-0.3,0.34-0.69,0.5-1.12,0.26c-0.44-0.25-0.3-0.56-0.06-0.89
		c0.3-0.4,0.13-0.66-0.31-0.77c-0.94-0.25-0.74-0.84-0.33-1.34c0.91-1.12,0.19-1.42-0.75-1.65c-0.46-0.11-0.93-0.18-1.39-0.28
		c-0.84-0.18-1.06-0.77-0.8-1.48c0.27-0.72,0.82-0.76,1.45-0.35c0.24,0.16,0.52,0.31,0.8,0.36c0.49,0.08,1.31-0.62,1.4,0.02
		c0.13,0.96,1.22,1.64,0.83,2.61C170.7,145.33,171.25,145.8,172.91,145.75z"/>
	<path class="st15" d="M156.86,141.94c-0.03,0.47-0.29,0.86-0.65,0.72c-0.72-0.29-1.84-0.23-2.01-1.16
		c-0.12-0.64,0.79-0.91,1.32-0.95C156.45,140.46,156.54,141.38,156.86,141.94z"/>
	<path class="st15" d="M163.87,141.99c-0.1-1.45-0.31-2.58,1.13-3c0.43-0.12,0.79,0.09,0.84,0.45
		C166.02,140.83,164.69,141.04,163.87,141.99z"/>
	<path class="st15" d="M141.43,131.23c0.01,0.69-0.28,1.1-0.83,1.06c-1.23-0.09-0.78-1.29-1.16-1.95c-0.19-0.32-0.04-0.87,0.4-0.76
		C140.69,129.8,140.96,130.69,141.43,131.23z"/>
	<path class="st15" d="M165.6,151.28c0.02,0.65-0.33,1.06-0.94,1.01c-0.59-0.05-1.25-0.34-1.13-1.08c0.1-0.62,0.76-0.98,1.29-1.05
		C165.51,150.07,165.57,150.73,165.6,151.28z"/>
	<path class="st15" d="M160.19,147.12c-0.46-0.03-1.12,0.07-1.15-0.51c-0.03-0.62,0.63-0.57,1.09-0.55
		c0.43,0.01,1.07-0.14,1.04,0.58C161.14,147.2,160.58,147.07,160.19,147.12z"/>
	<path class="st15" d="M185.71,156.57c-0.02,0.24-0.05,0.5-0.37,0.48c-0.33-0.02-0.52-0.26-0.58-0.57
		c-0.07-0.34,0.05-0.62,0.44-0.56C185.49,155.97,185.67,156.24,185.71,156.57z"/>
	<path class="st1" d="M17.64,95.64c-0.6-0.37-1.19-0.74-1.79-1.12c-0.45-0.86-1.54-0.85-2.11-1.54c-0.24-0.29-0.79-0.5-0.45-1
		c0.24-0.36,0.62-0.15,0.97-0.06c0.39,0.1,0.82,0.08,1.23,0.12c2.41,2.01,5.36,2.76,8.26,3.67c0.81,0.25,2.4,0.28,2.13,1.3
		c-0.24,0.92-1.64,0.2-2.56,0.14C21.31,97.01,19.58,95.95,17.64,95.64z"/>
	<path class="st60" d="M214.17,93.83c-0.22,0.42-0.61,0.61-1.05,0.71c-0.22-1.22-1-0.15-1.47-0.36c-2.61-1.82-4.89-4-7.07-6.29
		c-1.13-1.18-2.48-2.02-3.86-2.87c-1.17-0.72-2.11-0.9-3.07,0.2c-0.68-1.69,0.19-3.26,0.34-4.89c0.05-0.58,0.3-0.95,0.89-0.87
		c5.2,0.73,9.82-1.59,14.67-2.74c1.94-0.46,2.04-0.3,1.55,1.65c-0.94,3.71-1.32,7.5-1.61,11.3c-0.08,1.1-0.75,2.19-0.12,3.34
		C213.58,93.39,213.64,93.82,214.17,93.83z"/>
	<path class="st61" d="M197.66,85.22c0.27-1.73,0.91-1.93,2.49-1.01c2.04,1.18,3.96,2.43,5.55,4.18c1.57,1.73,3.31,3.27,5.18,4.68
		c0.4,0.3,0.78,0.55,0.77,1.11c-2.21,0.96-4.27,1.2-5.92-1.06c-0.39-0.54-1.02-0.87-1.67-1.01c-1.24-0.27-2.08-0.04-2.12,1.54
		c-0.06,2.19-0.24,2.27-2.13,1.05c-4.04-2.6-6.29-6.42-7.55-11.23c1.27,0.9,2.15,1.96,3.38,2.52
		C196.57,86.4,197.41,86.58,197.66,85.22z"/>
	<path class="st62" d="M212.79,53.19c0.54,0,1.12-0.13,1.6,0.03c0.92,0.29,1.59,0.65,1.32,2.02c-0.38,1.91-1.35,3.39-2.52,4.82
		c-0.35,0.43-0.76,0.8-1.38,0.53c-3.01-1.28-6.29-1.9-9.11-3.64c-0.33-0.21-0.91-0.25-0.86-0.77c0.05-0.48,0.6-0.53,0.95-0.73
		C205.91,53.75,209.34,53.39,212.79,53.19z"/>
	<path class="st63" d="M192.81,79.03c0.23,0.04,0.41,0.05,0.58,0.1c1.13,0.29,2.9-0.19,3.28,0.78c0.43,1.12-0.52,2.59-0.35,3.99
		c0.06,0.52-0.38,0.52-0.73,0.3c-1.66-1.05-2.89-2.49-3.64-4.3C191.61,79.07,192.06,78.8,192.81,79.03z"/>
	<path class="st64" d="M206.33,95.66c-1.02,1.21-2.27,1.18-3.61,0.67c-0.14-1.12-0.2-2.62,0.67-3.04c1.02-0.49,1.63,1,2.38,1.69
		C205.98,95.18,206.14,95.43,206.33,95.66z"/>
	<path class="st15" d="M217.26,163.28c-0.36-1.87-1.13-3.61-0.15-5.08c0.92-1.38,0.83-3.15,2.04-4.34c0.61-0.6,1.25-1.33,2.15-0.86
		c0.87,0.45,0.62,1.49,0.34,2.09C220.36,157.8,219.67,160.84,217.26,163.28z"/>
	<path class="st65" d="M174.24,51.66c0.07,0.9-0.25,1.62-1.37,1.47c-1.23-0.17-2.09-0.96-2.17-2.19c-0.06-0.98,0.73-1.38,1.69-1.39
		C173.78,49.54,174.29,50.3,174.24,51.66z"/>
	<path class="st66" d="M170.41,43.9c0.52,0.13,0.9,0.42,0.88,0.97c-0.02,0.63-0.42,1.02-1.04,0.98c-0.63-0.04-0.94-0.51-0.85-1.13
		C169.47,44.19,169.87,43.92,170.41,43.9z"/>
	<path class="st67" d="M206.87,57.15c-0.73-0.01-1.55,0.01-1.58-0.86c-0.03-0.99,0.88-1.2,1.66-1.27c0.75-0.07,1.35,0.37,1.39,1.1
		C208.4,57.16,207.53,57.1,206.87,57.15z"/>
</g>
</svg>
