<?xml version="1.0" encoding="utf-8"?>
<!-- Generator: Adobe Illustrator 23.0.2, SVG Export Plug-In . SVG Version: 6.00 Build 0)  -->
<svg version="1.1" id="Camada_1" xmlns="http://www.w3.org/2000/svg" xmlns:xlink="http://www.w3.org/1999/xlink" x="0px" y="0px"
	 viewBox="0 0 61.18 58.42" style="enable-background:new 0 0 61.18 58.42;" xml:space="preserve">
<style type="text/css">
	.st0{fill:#DDDCDB;}
	.st1{fill:#FDFDFD;}
	.st2{fill:#F2F2F1;}
	.st3{fill:#E6E5E5;}
	.st4{fill:#F8F8F8;}
	.st5{fill:#020000;}
	.st6{fill:#9E4502;}
	.st7{fill:#691E0F;}
	.st8{fill:#983422;}
	.st9{fill:#5A1106;}
	.st10{fill:#7C3417;}
	.st11{fill:#7C2B1C;}
	.st12{fill:#BE812C;}
	.st13{fill:#9E4602;}
	.st14{fill:#C1862F;}
	.st15{fill:#B45D19;}
	.st16{fill:#B35B17;}
	.st17{fill:#BE802C;}
	.st18{fill:#D17E38;}
	.st19{fill:#D27C38;}
	.st20{fill:#DA9243;}
	.st21{fill:#C46D29;}
	.st22{fill:#BD7F2B;}
	.st23{fill:#DDA14E;}
	.st24{fill:#B05814;}
	.st25{fill:#D27B38;}
	.st26{fill:#E0A34A;}
	.st27{fill:#CA782A;}
	.st28{fill:#E9C068;}
	.st29{fill:#E8BE67;}
	.st30{fill:#CB7B2B;}
	.st31{fill:#DDA24F;}
	.st32{fill:#B55E1A;}
	.st33{fill:#B55D1A;}
	.st34{fill:#C56E2B;}
	.st35{fill:#A14804;}
	.st36{fill:#C36E27;}
	.st37{fill:#AF5714;}
	.st38{fill:#D09540;}
	.st39{fill:#D19540;}
	.st40{fill:#C98B37;}
	.st41{fill:#C1852D;}
	.st42{fill:#D88D40;}
	.st43{fill:#873A1B;}
	.st44{fill:#C16A25;}
	.st45{fill:#C26C26;}
	.st46{fill:#8B381C;}
	.st47{fill:#DAAD6B;}
	.st48{fill:#E0A44A;}
	.st49{fill:#7C2C19;}
	.st50{fill:#903E1C;}
	.st51{fill:#C06825;}
	.st52{fill:#984223;}
	.st53{fill:#EBC891;}
	.st54{fill:#ECC993;}
	.st55{fill:#FDFCFC;}
	.st56{fill:#AE7742;}
	.st57{fill:#421D0E;}
	.st58{fill:#401C0D;}
	.st59{fill:#4D0F10;}
	.st60{fill:#AD7642;}
	.st61{fill:#3D1B0D;}
	.st62{fill:#FCFCFB;}
	.st63{fill:#FCFBFA;}
	.st64{fill:#AD7742;}
	.st65{fill:#EBC791;}
	.st66{fill:#BE864F;}
	.st67{fill:#AB7541;}
	.st68{fill:#F2CE90;}
	.st69{fill:#A15F32;}
	.st70{fill:#8D451F;}
	.st71{fill:#883C19;}
	.st72{fill:#E6893E;}
	.st73{fill:#992D36;}
	.st74{fill:#D79D9F;}
</style>
<g>
	<path class="st0" d="M34.25,57.71c-1.83,1.36-3.95,0.69-4.61-1.47c-0.08-0.26-0.04-0.64-0.35-0.71c-1.2-0.28-1.75-1.34-2.57-2.08
		c-0.75-0.67-1.54-1.27-2.44-1.71c-1.93-0.93-3.95-1.67-5.89-2.61c-1.04-0.51-2.29-0.74-3.39-1.27c-2.15-1.05-4-2.47-5.47-4.36
		c-0.31-0.39-0.56-0.54-1.08-0.48c-1.18,0.14-2.04-0.36-2.67-1.41c-1.15-1.94-2.03-3.97-2.43-6.19c-0.05-0.28,0.02-0.6-0.32-0.84
		c-2.11-1.51-2.91-3.71-3.02-6.18c-0.13-2.79,0.72-5.36,2.09-7.75c0.33-0.58,0.55-1.08,0.24-1.76c-0.27-0.59-0.15-1.25,0.01-1.88
		c0.81-3.07,2.29-5.77,4.52-8.04c0.43-0.44,0.72-0.7,0.28-1.45C6.19,5.87,7.16,4.26,9.45,3.4c0.41,0.16,0.68,0.45,0.8,0.87
		c-0.2,0.55-0.78,0.65-1.18,0.95C8.14,5.93,8.16,6.7,9.16,7.27c1.17,0.67,1.18,0.8,0.14,1.61c-2.56,2.01-4.31,4.57-5.27,7.68
		c-0.26,0.86-0.4,1.72,0.06,2.56c0.31,0.56,0.05,1-0.23,1.44c-1.27,2.03-2.07,4.2-2.36,6.6C1.24,29.26,2.01,31,3.02,32.7
		c0.04,0.07,0.09,0.16,0.16,0.18c1.59,0.43,1.52,1.79,1.79,3.02c0.36,1.64,1.02,3.19,1.89,4.64c0.48,0.81,1.08,1.17,1.98,0.82
		c0.66-0.26,1.04-0.02,1.39,0.53c1.65,2.62,4.11,4.35,6.94,5.26c2.48,0.8,4.67,2.2,7.13,3c1.44,0.47,2.68,1.41,3.77,2.5
		c0.65,0.65,1.24,1.37,2.24,1.5c0.37,0.05,0.47,0.38,0.57,0.7c0.67,2.16,0.7,2.18,2.8,1.78C34.08,56.88,34.18,57.28,34.25,57.71z"/>
	<path class="st1" d="M30.83,0.59c1.32-0.29,2.56-0.23,3.81,0.47c0.64,0.36,1.54,0.5,2.3,0.27c2.09-0.62,4.21-0.27,6.32-0.3
		c0.04,0,0.09,0,0.12,0.02c2.5,1.39,5.54,1.33,7.92,3.04c1.43,1.03,2.81,2.04,2.54,4.11c-0.05,0.38,0.28,0.55,0.5,0.77
		c2.29,2.4,3.78,5.22,4.46,8.46c0.06,0.27,0.17,0.62,0.05,0.81c-0.62,1.03-0.05,1.81,0.4,2.69c1.29,2.55,2.32,5.22,1.81,8.13
		c-0.36,2.08-1.06,4.11-3.02,5.34c-0.37,0.23-0.26,0.53-0.32,0.82c-0.52,2.39-1.29,4.68-2.84,6.63c-0.65,0.26-0.85-0.13-0.96-0.66
		c0.15-1.02,0.87-1.78,1.23-2.71c0.52-1.35,0.98-2.7,1.06-4.15c0.03-0.5,0.12-0.98,0.68-1.14c1.08-0.31,1.56-1.2,1.99-2.1
		c0.78-1.64,0.96-3.35,0.54-5.14c-0.46-1.92-1.02-3.78-2.19-5.4c-0.42-0.59-0.59-1.22-0.19-1.9c0.36-0.61,0.19-1.23,0.02-1.86
		c-0.71-2.6-1.96-4.89-3.9-6.77c-0.64-0.62-1.05-1.25-0.89-2.21c0.13-0.8-0.43-1.35-0.99-1.81c-1.49-1.21-3.18-1.98-5.09-2.23
		c-0.39-0.05-0.84,0.02-1.17-0.22c-2.44-1.73-5.12-0.95-7.74-0.77c-1.24,0.08-2.47,0.19-3.6-0.47c-0.57-0.33-1.2-0.41-1.84-0.47
		C31.06,1.77,30.33,1.66,30.83,0.59z"/>
	<path class="st2" d="M30.83,0.59c-0.18,1.09,0.65,0.87,1.25,0.96C32,2.02,31.59,2.04,31.25,2.06c-1.27,0.07-2.42,0.5-3.5,1.14
		c-0.63,0.37-1.19,0.36-1.76-0.1c-0.7-0.56-1.54-0.81-2.36-1.15c-1.14-0.47-2.17-0.51-3.02,0.55c-0.3,0.37-0.71,0.51-1.18,0.43
		c-2.77-0.46-5.4,0.09-7.97,1.1c-0.39,0.15-0.8,0.43-1.25,0.14C9.74,4.14,9.62,3.74,9.45,3.4c2.96-1.51,6.03-2.49,9.41-2.05
		c0.41,0.05,0.73,0.05,1.05-0.33c0.95-1.13,2.22-1.21,3.5-0.78c0.97,0.32,1.99,0.61,2.83,1.22c0.53,0.39,0.97,0.34,1.52,0.04
		C28.72,0.99,29.75,0.67,30.83,0.59z"/>
	<path class="st3" d="M54.1,41.1c0.04,0.47,0.29,0.73,0.76,0.75c-0.54,0.92-1.44,1.06-2.37,0.97c-0.48-0.04-0.72,0.1-0.98,0.45
		c-1.88,2.51-4.46,4.16-7.32,5.19c-1.32,0.48-2.3,1.04-3.24,2.06c-0.87,0.94-2.1,1.55-3.17,2.3c-0.48-0.14-0.69-0.46-0.64-0.96
		c0.13-0.47,0.53-0.68,0.88-0.93c1.08-0.76,2.14-1.53,2.92-2.63c0.35-0.5,0.87-0.82,1.49-0.94c3.48-0.66,6.05-2.72,8.19-5.41
		c0.49-0.61,0.88-1.14,1.75-0.68C52.97,41.59,53.5,40.97,54.1,41.1z"/>
	<path class="st4" d="M37.3,51.89c-0.03,0.41,0.3,0.63,0.48,0.94c-1.09,1.69-1.86,3.61-3.53,4.88c-0.36-0.23-0.48-0.6-0.54-0.99
		c-0.15-0.37,0.11-0.6,0.31-0.83c0.84-0.96,1.49-2.04,2.1-3.16C36.36,52.28,36.51,51.6,37.3,51.89z"/>
	<path class="st5" d="M37.3,51.89c-0.51-0.04-0.65,0.32-0.83,0.7c-0.72,1.51-1.63,2.9-2.76,4.13c-1.55,1.01-2.84,0.46-3.08-1.35
		c-0.08-0.61-0.01-1.16-0.9-1.01c-0.36,0.06-0.7-0.15-0.93-0.45c-1.74-2.22-4.13-3.43-6.7-4.37c-1.16-0.42-2.23-0.99-3.29-1.63
		c-0.73-0.44-1.66-0.25-2.5-0.67c-2.65-1.33-5.02-2.93-6.56-5.53C9.51,41.3,9.39,41.4,9.06,41.6c-0.93,0.55-1.7,0.39-2.29-0.62
		c-1.22-2.08-2.19-4.23-2.35-6.67c-0.02-0.23,0.14-0.56-0.29-0.67c-2.12-0.56-2.48-2.48-2.8-4.15c-0.63-3.29,0.5-6.27,2.26-9.02
		c0.34-0.53,0.59-0.88,0.04-1.5c-0.5-0.56-0.27-1.36-0.05-2.06c1.12-3.59,2.97-6.67,6.21-8.76c0.05-0.04,0.07-0.14,0.1-0.21
		C9.86,7.88,9.82,7.81,9.76,7.79c-0.69-0.29-1.65-0.2-1.75-1.3C7.91,5.35,8.76,5.01,9.53,4.6c0.24-0.13,0.46-0.28,0.69-0.43
		c2.35-0.83,4.64-1.89,7.22-1.7c0.44,0.03,0.88,0.01,1.31,0.1c0.86,0.18,1.54,0.15,2.07-0.77c0.51-0.88,1.53-0.69,2.28-0.41
		c1.18,0.44,2.41,0.82,3.4,1.67c0.21,0.18,0.38,0.37,0.69,0.13c1.44-1.1,3.16-1.39,4.89-1.65c1.39,0.09,2.53,1.15,4.01,1.05
		c0.35-0.03,0.72,0.04,1.1-0.08c2.07-0.64,4.42-0.82,6.23-0.08c1.86,0.76,3.88,0.86,5.64,1.79c1.02,0.54,2.04,1.09,2.87,1.92
		c0.6,0.6,1.01,1.3,0.6,2.15c-0.33,0.68,0.26,0.85,0.55,1.14c2.26,2.25,3.77,4.91,4.49,8.02c0.08,0.36,0.25,0.76-0.04,1.02
		c-0.88,0.78-0.33,1.38,0.11,2.12c1.53,2.53,2.55,5.21,2.24,8.24c-0.16,1.55-0.95,2.85-1.77,4.12c-0.1,0.16-0.3,0.38-0.45,0.37
		c-1.42-0.08-1.04,0.96-1.16,1.74c-0.33,2.2-1.31,4.15-2.4,6.05c-1.09,0.84-1.39,0.84-2.55-0.01c-1.72,2.96-4.37,4.83-7.42,6.19
		c-0.07,0.03-0.14,0.1-0.21,0.1C40.78,47.51,39.74,50.73,37.3,51.89z"/>
	<path class="st6" d="M6.1,32.02c0.01-0.39,0.07-0.78,0.03-1.17c-0.03-0.37,0.34-0.87-0.11-1.07c-0.37-0.16-0.66,0.31-0.96,0.55
		c-0.12,0.1-0.25,0.18-0.38,0.27c-0.43-0.18-0.53-0.57-0.59-0.96c-0.41-2.7-0.62-5.37,0.83-7.87c0.08-0.14,0.15-0.28,0.19-0.44
		c0.4-1.25,1.39-2.06,2.18-3.02c0.24-0.55,0.76-0.6,1.25-0.71c0.3,0.03,0.66-0.02,0.68,0.44c-1.2,1.06-1.68,2.45-1.91,3.98
		c-0.16,1.06-0.28,2.14-0.55,3.17c-0.35,1.36-0.3,2.56,0.9,3.49c-0.19,0.67,0.21,1.3,0.17,1.96c0.01,0.18,0.02,0.35,0.02,0.53
		c0.01,1.4-0.01,2.79,0.02,4.19c0.01,0.39-0.05,0.87,0.42,1.03c0.43,0.15,0.62-0.28,0.82-0.56c0.53-0.74,1.01-0.59,1.53,0.02
		c0.45,0.52,0.89,1.03,0.83,1.79c-0.07,0.95,0.18,1.93-0.18,2.86c-0.74,0.36-0.64-0.33-0.72-0.65c-0.16-0.69-0.18-1.41-0.35-2.1
		c-0.74-0.46-1.89,0.34-1.83,1.37c0.03,0.47-0.16,0.84-0.25,1.55C7.4,39.38,7.02,38.18,6.6,37c0.26-0.74-0.3-1.36-0.27-2.09
		c0.06-1.27-0.03-2.54,0.33-3.79C6.48,31.44,6.73,31.99,6.1,32.02z"/>
	<path class="st7" d="M4.91,17.6c0.36-4.34,4.33-8.58,8.95-9.6c-1.54-0.48-3-1.12-4.56-1.85c4.12-2.26,8.26-3.54,12.88-1.48
		c0.15-0.5-0.01-0.86-0.3-1.2c-0.17-0.2-0.47-0.38-0.25-0.71c0.21-0.32,0.56-0.32,0.87-0.25c1.42,0.32,2.86,0.76,3.78,1.92
		c0.63,0.79,0.82,0.33,1.33-0.01c1.62-1.12,3.33-2.01,5.42-1.47c-0.49,0.55-1.29,0.16-1.8,0.61c-0.1,0.06-0.21,0.1-0.32,0.14
		c-1.62,0.23-2.65,1.47-3.94,2.28c-0.55,0.1-0.87-0.28-1.22-0.59c-0.26-0.24-0.52-0.49-0.81-0.69c-0.46-0.31-0.99-0.77-1.48-0.62
		c-0.62,0.18-0.13,0.88-0.26,1.34c-0.07,0.26-0.06,0.55-0.29,0.75c-0.34,0.15-0.63,0.02-0.89-0.17c-2.53-1.78-5.26-1.45-8.01-0.73
		c-0.65,0.17-1.3,0.38-1.89,0.72c-0.24,0.14-0.25,0.28,0.04,0.38c1.24,0.4,2.57,0.64,3.38,1.83c0.06,0.29-0.08,0.49-0.29,0.65
		c-0.17,0.09-0.35,0.14-0.54,0.17c-0.42,0.04-0.85,0.02-1.27,0.03c-1.49,0.18-2.66,0.99-3.74,1.93c-1.69,1.49-3.07,3.2-3.84,5.35
		c-0.16,0.44-0.33,0.9-0.63,1.28C5.12,17.67,5.01,17.67,4.91,17.6z"/>
	<path class="st8" d="M48.41,5.31c1.13,0.54,2.31,1,3.05,2.15c-0.86,0.52-1.86,0.04-2.8,0.57c4,1.63,6.18,4.72,7.47,8.55
		c0.51,1.52,0.44,1.65-1.09,2.16c0.54,0.8,1.06,1.59,1.6,2.37c1.36,1.96,2,4.21,2.18,6.5c0.13,1.64-0.57,3.25-1.83,4.62
		c-0.59-0.89-1.13-1.77-2.17-2.34c0.1,0.62,0.19,1.12,0.27,1.62c0.19,0.37,0.09,0.76,0.08,1.15c-0.09,0.11-0.2,0.15-0.33,0.11
		c-0.26-0.23-0.28-0.54-0.3-0.85c0.03-0.53-0.2-0.99-0.38-1.46c-0.09-0.26-0.17-0.52-0.26-0.77c-0.1-0.42-0.5-0.7-0.56-1.14
		c0.44-0.65,0.88-0.23,1.3,0.02c0.67,0.4,1.17,1.03,1.83,1.46c0.24,0.16,0.42,0.51,0.8,0.33c0.74-1.93,0.46-3.85-0.06-5.75
		c-0.61-2.24-1.85-4.13-3.39-5.84c-0.15-0.2-0.27-0.41-0.23-0.67c0.32-0.55,0.83-0.3,1.28-0.33c0.77,0.04,0.89-0.35,0.64-0.97
		c-1.2-3.06-2.89-5.73-5.86-7.38c-0.84-0.39-1.8-0.37-2.62-0.83c-0.31-0.6,0.22-0.75,0.55-0.97c0.53-0.35,1.16-0.5,1.74-0.81
		c-0.3-0.58-1.26-0.48-1.28-1.3C48.08,5.32,48.2,5.22,48.41,5.31z"/>
	<path class="st9" d="M55.06,32.72c0.01-0.41,0.01-0.81,0.02-1.22c0.83,2.94-0.12,6.78-2.26,8.98c-0.2-0.56-0.36-1.11-0.59-1.63
		c-0.22-0.51-0.57-0.94-1.19-1.24c-0.08,2.22-0.97,3.96-2.56,5.46c-1.54,1.46-3.43,2.25-5.32,3.32c0.06-0.73,0.31-1.34,0.09-1.93
		c-1.68,2.13-3.5,4.13-5.77,5.67c-0.31,0.21-0.65,1.01-1.18,0.15c-0.16-0.25-0.18,0.11-0.22,0.2c-0.16,0.31-0.3,0.64-0.45,0.96
		c-0.28-0.09-0.41-0.3-0.47-0.57c0.08-1.46,0.77-2.79,0.89-4.24c0.09-0.46,0.29-0.84,0.75-1.02c0.72,0.22,0.5,0.78,0.45,1.27
		c-0.09,0.74-0.27,1.48,0.04,2.2c0.29,0,0.46-0.22,0.67-0.35c1.14-0.84,1.91-1.91,1.98-3.38c0.77-1.35,0.81,0.22,1.26,0.31
		c0.65-0.37,0.85-1.09,1.19-1.7c0.16-0.29,0.21-0.75,0.69-0.69c0.39,0.06,0.58,0.39,0.7,0.74c0.1,0.3,0.16,0.61,0.26,0.91
		c0.07,0.11,0.19,0.18,0.29,0.12c2.36-1.34,4.71-2.69,5.71-5.45c0.04-0.44,0.35-0.94-0.41-1.15c-0.18-0.05-0.15-0.51-0.16-0.79
		c0.01-0.49,0-0.99,0.4-1.37c0.15-0.11,0.33-0.15,0.51-0.13c0.89,0.33,1.5,1.03,2.15,1.68c0.15,0.17,0.27,0.35,0.38,0.54
		c0.19,0.32,0.34,0.22,0.47-0.05c0.38-0.77,0.79-1.53,0.9-2.4c0.05-0.36,0.18-0.7,0.32-1.03C54.93,34.21,54.5,33.36,55.06,32.72z"/>
	<path class="st10" d="M35.37,50.94c0.09,0.17,0.18,0.34,0.27,0.5c-0.46,1.43-1.29,2.65-2.24,3.78c-0.26,0.31-0.52,0.83-1.03,0.66
		c-0.54-0.18-0.55-0.73-0.54-1.22c0.02-1.52-0.41-2.89-1.44-4.26c-0.13,0.96-0.24,1.78-0.37,2.7c-0.95-0.51-1.5-1.36-2.25-1.97
		c-1.56-1.29-3.41-2.05-5.26-2.77c-1.77-0.69-3.45-1.48-4.32-3.26c-0.39,0.03-0.34,0.27-0.33,0.44c0.06,0.76-0.16,0.86-0.87,0.56
		c-2.22-0.93-4.09-2.28-5.57-4.17c-0.96-1.23-1.26-2.64-1.18-4.16c0.74,0.82,0.07,2.09,0.9,2.88c0.61,0.55,0.99,1.3,1.65,1.81
		c1.15,1.26,2.53,2.16,4.08,2.85c0.42-0.3,0.2-0.77,0.39-1.11c0.18-0.32,0.32-0.69,0.73-0.7c0.38-0.01,0.52,0.32,0.62,0.63
		c0.51,1.51,1.69,2.35,3,3.06c2.8,1.12,5.68,2.11,7.88,4.57c0.12-0.7,0.03-1.21,0.09-1.71c0.05-0.43,0.06-0.92,0.71-0.88
		c1.33,1.12,1.75,2.06,2.38,5.39c0.91-0.86,1.47-1.88,2.02-2.91C34.88,51.37,34.9,50.94,35.37,50.94z"/>
	<path class="st11" d="M48.41,5.31c-0.1,0.11-0.2,0.22-0.3,0.33c-0.16,0.15-0.35,0.2-0.56,0.21c-0.82-0.08-1.62-0.32-2.44-0.38
		c-0.83-0.06-1.65-0.03-2.41,0.4c-0.38,0.22-0.81,0.31-1.24,0.1c-0.55-0.58-0.08-1.09,0.19-1.69c-1.61-0.08-3.1-0.23-4.4,0.97
		c-0.46,0.42-1.18,1.1-1.98,0.35c-0.22-0.35-0.13-0.77-0.22-1.23c-1.14,0.27-2.43,1.14-3.23-0.53c-0.27-0.12-0.58-0.16-0.76-0.43
		c0.51-0.76,1.31-0.31,1.97-0.47c0.19,0.74,0.51,1.03,1.38,0.79c0.72-0.19,1.89-0.5,1.39,1.49c2.23-2.74,4.91-1.5,7.3-1.77
		c0.25-0.03,0.53,0.1,0.59,0.33c0.16,0.53-0.65,0.37-0.68,0.82C44.85,4.77,46.74,4.21,48.41,5.31z"/>
	<path class="st12" d="M5.12,21.34c-0.71,2.03-1.15,4.09-0.92,6.25c0.11,1.01,0.12,2.04,0.49,3.02c-0.55,0.86-0.99,0.95-1.38-0.14
		c-0.76-2.11-0.44-4.18,0.25-6.21C3.91,23.22,4.34,22.17,5.12,21.34z"/>
	<path class="st13" d="M4.91,17.6c0.07,0,0.13,0,0.19-0.02c0.49-0.27,0.42-0.86,0.68-1.26c0.26-0.4,0.46-0.81,0.97-0.93
		C7.37,15.16,8,15.2,8.62,15.32c0.48,0.1,1.12,0,1.24,0.67c0.11,0.63-0.21,1.14-0.68,1.55c-0.18,0.16-0.45,0.13-0.64,0.28
		c-0.41,0.16-0.82,0.33-1.23,0.49c-0.43-0.25-0.84-0.2-1.32-0.05C5.46,18.44,4.85,18.48,4.91,17.6z"/>
	<path class="st14" d="M6.1,32.02c0.46-0.38,0.06-1.12,0.72-1.56c0.05,1.56-0.31,3.02-0.25,4.5C6.61,35.63,7.2,36.32,6.6,37
		C5.87,35.4,6.03,33.7,6.1,32.02z"/>
	<path class="st15" d="M8.53,17.83c0.6-0.51,1.36-1.19,1.01-1.9c-0.28-0.57-1.35-0.26-2.05-0.42c-0.28-0.06-0.6,0.1-0.91,0.16
		c-0.33-0.52,0.13-0.81,0.35-1.15c1.02-1.52,2.55-2.51,3.88-3.71c0.79-0.71,1.47-1.6,2.47-2.06c0.49,0,0.99,0,1.48-0.01
		c0.09,0.37-0.2,0.6-0.32,0.9c-0.3,1.72-1.24,3.05-2.43,4.27c-0.56,0.57-1.41,1.1-0.25,2.04c0.63,0.51,0.04,1.12-0.56,1.33
		c-0.64,0.23-1.25,0.48-1.83,0.83c-0.05-0.02-0.11-0.03-0.16-0.05C9.07,17.77,8.78,17.84,8.53,17.83z"/>
	<path class="st15" d="M7.55,28.88c-1.14-0.73-1.58-1.68-1.21-3.06c0.58-2.14,0.52-4.41,1.45-6.49c0.31-0.68,0.68-1.15,1.44-1.26
		c0,0,0.03,0.02,0.03,0.02c0.67,0.79,0.53,1.7,0.35,2.61c-0.36,1.83-1.3,3.42-2.1,5.18c0.66-0.47,1.06-1.08,1.65-1.48
		c0.24-0.16,0.51-0.31,0.76-0.08c0.25,0.22,0.14,0.51,0.03,0.78c-0.07,0.19-0.17,0.37-0.32,0.5c-0.81,0.73-1.22,1.65-1.37,2.71
		c-0.04,0.24-0.17,0.44-0.38,0.58C7.76,28.95,7.65,28.94,7.55,28.88z"/>
	<path class="st16" d="M11.19,37.53c0.11-0.93-0.76-1.28-1.17-1.9C9.74,35.2,9.55,35.76,9.4,36c-0.29,0.46-0.46,1.15-1.17,0.96
		c-0.72-0.2-0.68-0.88-0.68-1.49c0.01-1.47,0.01-2.95,0.01-4.42C8.4,31,8.52,31.72,8.81,32.24c0.21,0.38,0.29,0.82,0.38,1.25
		c0.13,0.62,0.28,1.16,1.12,1.03c0.27-0.04,0.5,0.21,0.71,0.4c0.43,0.52,0.94,0.99,1.01,1.72c-0.02,0.17-0.1,0.31-0.2,0.45
		C11.64,37.29,11.53,37.57,11.19,37.53z"/>
	<path class="st15" d="M10.91,35.12c-0.23-0.14-0.56-0.45-0.68-0.39c-1.4,0.76-1.06-0.51-1.27-1.08c-0.34-0.94-0.41-2.02-1.4-2.61
		c0-0.16,0-0.32,0-0.48c0.23-0.22,0.01-0.58,0.25-0.79c1.18-0.02,1.36,1.04,1.82,1.75c0.34,0.53,0.31,1.22,0.67,1.84
		c0.57-0.21,0.69-0.85,1.12-1.15c0.26-0.18,0.52-0.43,0.85-0.23c0.38,0.23,0.36,0.63,0.2,0.95C12.07,33.73,11.65,34.54,10.91,35.12z
		"/>
	<path class="st17" d="M11.19,37.53c0.14-0.16,0.29-0.33,0.43-0.49c0.27,0.23,0.33,0.55,0.33,0.87c-0.02,1.26,0.3,2.44,0.68,3.62
		c0.12,0.38,0.25,0.77-0.01,1.15c-0.67-0.55-1.26-1.15-1.49-2.02C11.15,39.61,11.17,38.57,11.19,37.53z"/>
	<path class="st16" d="M7.8,29.82c-0.02,0.26,0.04,0.55-0.24,0.73c0.39-0.56-0.85-1.11-0.01-1.68c0.08,0,0.16,0,0.24,0
		C8.08,29.19,8.03,29.51,7.8,29.82z"/>
	<path class="st18" d="M12.09,6.6c-0.33-0.08-0.73,0.04-1.04-0.35C13.92,4.5,16.97,4,20.23,4.67c1.04,0.22,1.67,1.2,2.69,1.46
		c0.3,0.89,0.9,1.22,1.83,1.09c0.43-0.06,0.88-0.05,1.29,0.14c0.22,0.11,0.41,0.27,0.14,0.54c-0.14,0.08-0.29,0.15-0.44,0.15
		C24,8.02,22.29,8.09,20.69,8.88c-1.5-0.08-3-0.08-4.51,0.01c-0.36,0.02-0.71,0.11-0.99-0.19c0.07-0.14,0.15-0.28,0.22-0.42
		c-0.21-1.79-0.8-2.19-2.51-1.74C12.64,6.61,12.37,6.76,12.09,6.6z"/>
	<path class="st19" d="M31.06,3.4c0.33,0.02,0.66,0.05,0.99,0.07c0.59,0.6,0.38,1.35,0.37,2.05c0,0.42-0.16,0.88,0.42,1.05
		c0.77-0.01,1.51-0.61,2.29-0.09c0.19,0.52-0.28,0.68-0.54,0.93c-1.55,1.49-2.56,3.28-3.08,5.36c-0.07,0.17-0.18,0.29-0.37,0.34
		c-1.4-0.98-2.38-2.29-3.11-3.82c-0.19-0.52-0.69-0.68-1.09-0.96c-0.23-0.16-0.6-0.24-0.45-0.66c0.49-0.6,1.07-0.34,1.65-0.2
		c1.17,0.3,1.92,1.22,2.89,1.98c0.52-1.15,0.04-2.09-0.3-3.04c0.27-0.69,0.13-1.36-0.06-2.04c-0.09-0.31-0.33-0.67,0.16-0.88
		C30.91,3.46,30.99,3.43,31.06,3.4z"/>
	<path class="st20" d="M30.83,6.32c0.71,0.77,0.8,1.69,0.73,2.67c-0.02,0.35-0.1,0.61-0.44,0.77c-0.45,0.22-0.54-0.18-0.73-0.4
		c-0.69-0.8-1.5-1.39-2.54-1.7c-0.5-0.15-0.92-0.16-1.36,0.1c-0.08,0.06-0.15,0.05-0.21-0.03c-0.65-0.47-1.4-0.25-2.08-0.21
		c-1.12,0.07-1.38-0.47-1.28-1.41c-0.04-0.83-0.08-1.66-0.13-2.59c1.17,0.08,2.11,0.64,2.98,1.42c0.37,0.32,0.58,0.9,1.22,0.85
		c0.22,0.3,0.14,0.72,0.76,0.83c1.13,0.21,2.09,0.89,2.97,1.72c-0.04-0.7-0.38-1.23-0.72-1.77c-0.18-0.29-0.5-0.57-0.33-0.96
		c0.09-0.2,0.34-0.22,0.53-0.15C30.6,5.61,30.95,5.8,30.83,6.32z"/>
	<path class="st21" d="M30.83,6.32c-0.22-0.38-0.47-0.71-1.12-0.69c0.74,1.08,1.59,2.01,1.27,3.44c-1.05-1.17-2.23-2.01-3.76-2.3
		c-0.64-0.12-0.05-0.67-0.23-0.97c1.06-1.14,2.23-2.1,3.84-2.32c-0.1,0.67,0.29,1.24,0.39,1.87C31.29,5.81,31.25,6.11,30.83,6.32z"
		/>
	<path class="st22" d="M13.29,8.75c-1.24,1.56-2.85,2.72-4.32,4.04c-0.94,0.85-1.87,1.68-2.39,2.88c-0.63,0.47-0.83,1.16-0.99,1.89
		c-0.08,0.36-0.3,0.66-0.49,0.02c1.17-3.82,3.39-6.77,7.06-8.52C12.51,8.89,12.86,8.67,13.29,8.75z"/>
	<path class="st23" d="M15.19,8.69c1.47-0.3,2.96-0.22,4.44-0.21c0.38,0,0.79-0.13,1.11,0.22C20.67,9,20.45,9.17,20.2,9.31
		c-0.6,0.27-1.24,0.24-1.87,0.23c-0.95-0.01-1.89,0.08-2.82,0.28c-0.44,0.1-1.04,0.4-1.24-0.39c0.17-0.23,0.33-0.46,0.5-0.69
		C14.91,8.73,15.05,8.71,15.19,8.69z"/>
	<path class="st24" d="M12.09,6.6c0.37-0.15,0.76-0.26,1.09-0.47c0.78-0.49,1.34-0.12,1.91,0.39c0.57,0.52,0.86,1.05,0.33,1.76
		C14.46,7.4,13.27,7,12.09,6.6z"/>
	<path class="st25" d="M14.27,9.44c0.06,0.05,0.13,0.16,0.17,0.15c1.91-0.47,3.9-0.21,5.82-0.63c1.95,0.18,3.86,0.48,5.64,1.35
		c0.14,0.07,0.3,0.1,0.44,0.18c0.31,0.17,0.73,0.35,0.62,0.77c-0.1,0.39-0.53,0.24-0.83,0.22c-1.96-0.14-3.81,0.23-5.53,1.18
		c-0.6,0.33-1.09,0.35-1.63-0.11c-1.76-1.51-3.65-0.86-5.01,0.5c-1.18,1.17-1.1,3.18,0.11,4.7c0.39,0.5,0.9,0.91,1.08,1.55
		c-0.28,1.89-0.59,3.78-0.92,5.66c-0.54,3.04,0.51,5.24,3.12,6.71c2.4,1.35,4.89,2.56,7.1,4.23c1.01,0.76,2.18,1,3.39,1.04
		c2.28,0.08,4.55,0.1,6.82-0.26c0.77-0.12,1.45-0.41,2.08-0.86c3-2.14,5.58-4.79,8.48-7.03c0.6-0.46,0.93-1.09,1-1.85
		c0.24-2.32,0.38-4.63-0.82-6.78c-0.37-0.67-0.58-1.34,0.17-1.92c1.46-0.26,2.29-1.3,2.45-3.06c0.06-0.63-0.11-1.28,0.23-1.88
		c1.01-0.4,1.44,0.39,1.9,0.99c0.87,1.12,1.4,2.48,2.36,3.56c-0.93,2.45-0.07,4.6,1.09,6.73c0.42,0.78,1.06,1.56,0.64,2.57
		c-0.8,0.53-1.52-0.17-2.34-0.12c0.38,0.67,1.23,0.89,1.53,1.61c0.36,0.23,0.7,0.47,0.69,0.96c-1.01,0.72-0.21,1.31,0.15,1.94
		c-0.03,1.51-0.74,2.74-1.63,3.88c-0.45,0.58-0.97,0.63-1.48-0.01c-0.49-0.62-1.01-1.23-1.99-1.64c0.26,0.78,0.75,1.11,1.11,1.55
		c0.24,0.29,0.63,0.52,0.44,1c-0.01,0.02-0.06,0.04-0.09,0.04c-0.04,0-0.08-0.02-0.12-0.03c-0.14,0.01-0.27,0.01-0.41,0.02
		c-0.85,0.17-1.59,0.48-2.08,1.26c-0.15,0.24-0.34,0.61-0.74,0.27c-0.65,0.19-0.72,0.92-1.2,1.28c-0.43,0.33-0.8,0.91-1.41,0.6
		c-0.53-0.28-0.16-0.88-0.25-1.28c-0.09,0.74-0.12,1.49,0.96,1.6c0.28,0.36-0.03,0.51-0.26,0.62c-0.71,0.34-1.47,0.6-2.23,0.81
		c-0.64,0.18-0.96-0.16-1.05-0.78c-0.07-0.55,0.01-1.1-0.08-1.72c-0.07,0.88,0.05,1.7-0.09,2.51c-0.03,0.12-0.08,0.23-0.15,0.33
		c-0.53,0.45-1.19,0.58-1.85,0.68c-1.16,0.09-1.24,1.18-1.7,1.89c-0.32,0.49-0.5,1.07-1.12,1.28c-0.17,0.31-0.49,0.55-0.48,0.95
		c-0.19,0.34-0.49,0.49-0.86,0.57c-0.79,0.16-1.05-0.07-0.89-0.87c0.15-0.73,0.44-1.44,0.35-2.25c-0.54,0.45-0.72,1.11-0.96,1.73
		c-0.28,0.74-0.49,1.52-0.82,2.24c-0.5,1.08-1.09,1.17-1.87,0.24c-0.72-0.85-1.47-1.68-2.14-2.64c-0.21,0.83-0.72,0.74-1.32,0.49
		c-1.02-0.43-1.97-1.05-3.1-1.21c-0.11-0.04-0.21-0.09-0.31-0.15c-1.28-1.12-2.92-1.48-4.44-2.1c-0.36-0.15-0.78-0.18-1.12-0.38
		c-0.16-0.09-0.43-0.33-0.25-0.42c0.8-0.41-0.14-0.72-0.02-1.08c-0.14-0.63-0.34-1.25-0.35-1.9c-0.06-0.15-0.12-0.54-0.29-0.32
		c-0.7,0.95-1.13,0.27-1.62-0.18c-0.4-0.37-0.58-0.96-1.12-1.18c-0.24,0.12-0.22,0.33-0.27,0.52c-0.1,0.4,0.22,1.01-0.31,1.17
		c-0.39,0.13-0.63-0.41-0.89-0.68c-0.4-0.43-0.89-0.66-1.46-0.77c-0.28-0.14-0.53-0.3-0.43-0.67c-0.1-0.69-0.66-1.11-0.96-1.69
		c0.21-0.83,0.84-1.41,1.26-2.12c0.17-0.29,0.31-0.64,0.02-0.85c-0.28-0.2-0.48,0.16-0.67,0.34c-0.48,0.45-0.65,1.16-1.32,1.63
		c-0.7-1.53-0.61-3.47-2.39-4.29c0-0.32,0-0.63-0.01-0.95c0.24-1.67,0.92-3.12,2.15-4.36C8.72,24.87,8.17,26,6.98,26.71
		c0.87-3,3.11-5.42,2.28-8.61c0.33-0.63,0.92-0.86,1.55-0.96c0.47-0.08,0.92-0.23,0.95-0.73c0.03-0.45-0.38-0.66-0.81-0.73
		c-0.64-0.1-0.46-0.38-0.17-0.71c0.5-0.57,0.96-1.17,1.48-1.71C13.31,12.18,13.88,10.86,14.27,9.44z"/>
	<path class="st26" d="M52.47,17.85c-1.31-0.55-1.47-1.97-2.21-2.95c-0.53-0.69-0.98-1.42-1.89-1.64c-0.56-0.71-0.8-1.56-1.12-2.39
		c0.04-0.41,0.28-0.68,0.63-0.86c1.77,0.06,3.13,1.04,4.16,2.27c1.19,1.43,2,3.17,2.78,4.88c0.13,0.29,0.27,0.59,0.02,0.9
		c-0.39,0.1-0.8-0.29-1.18,0.03c-0.13,0.14-0.3,0.19-0.48,0.2C52.85,18.29,52.58,18.19,52.47,17.85z"/>
	<path class="st27" d="M53.12,18.07c0.18,0.01,0.36,0.02,0.53,0.03c0.08,0.13,0.16,0.26,0.24,0.39c2.24,3.36,3.3,7.09,3.51,11.09
		c0.02,0.44,0.09,0.87-0.17,1.27c-0.86-0.28-1.36-1.05-2.08-1.51c-0.52-0.33-0.85-1.23-1.73-0.71c-0.94-0.45-1.62-1.21-2.47-2.03
		c1.21,0.03,2.18,0.38,3.17,0.59c0.42-0.2,0.76,0.15,1.3,0.17c-0.1-2.45-0.08-4.88-1.73-6.94C53.15,19.75,52.54,19.04,53.12,18.07z"
		/>
	<path class="st28" d="M54.84,18.07c-0.72-2.09-1.81-4.01-3.12-5.73c-0.88-1.15-2.31-1.9-3.85-2.18c-0.42,0.11-0.7-0.03-0.83-0.45
		c0.48-0.94,1.22-0.47,1.83-0.25c0.45,0.16,0.72,0.21,0.92-0.26c3.22,1.78,5.01,4.67,6.13,8.04C56.31,18.39,55.44,18.1,54.84,18.07z
		"/>
	<path class="st29" d="M57.23,30.85c-0.29-4.23-1.04-8.32-3.4-11.96c-0.1-0.16-0.09-0.29,0.06-0.4c2.85,2.94,4.32,6.42,4.07,10.55
		C57.92,29.71,57.8,30.38,57.23,30.85z"/>
	<path class="st30" d="M47.62,5.62c0.16,0.01,0.33,0.02,0.49,0.03c0.57,0.35,1.14,0.7,1.7,1.07c0.05,0.03,0.06,0.14,0.09,0.23
		c-1.02,0.47-2.23,0.56-2.98,1.54c-0.05,0.04-0.1,0.09-0.15,0.13c-0.56,0.2-0.93-0.03-1.16-0.53c-0.23-0.5-0.21-1.01,0.1-1.48
		C46.15,5.9,46.82,5.65,47.62,5.62z"/>
	<path class="st31" d="M52.7,38.46c-0.1-0.15-0.2-0.29-0.3-0.44c-0.25-0.48,0.04-0.85,0.28-1.19c0.86-1.23,1.38-2.57,1.46-4.08
		c0.22-0.32,0.06-0.91,0.66-0.98c0.02,0.3,0.05,0.6,0.07,0.9c0.12,0.83,0.13,1.66-0.01,2.49c-0.1,0.3-0.2,0.6-0.29,0.9
		c-0.35,0.53-0.54,1.15-0.92,1.66C53.4,38.06,53.28,38.56,52.7,38.46z"/>
	<path class="st26" d="M49.78,9.2c-0.28,0.49,0.51,0.54,0.38,1.01c-1.02-0.05-1.87-1.26-3.02-0.53C47,9.83,46.83,9.92,46.63,9.93
		c-0.39,0.02-0.87,0.06-0.97-0.43c-0.1-0.47,0.37-0.53,0.69-0.63c0.23-0.07,0.45-0.14,0.58-0.37c0,0-0.02-0.03-0.02-0.03
		C47.91,8.57,48.88,8.73,49.78,9.2z"/>
	<path class="st27" d="M54.11,31.52c-0.55-0.31-0.93-0.77-0.9-1.4c0.02-0.51,0.5-0.52,0.9-0.52c0.08,0.24,0.16,0.48,0.24,0.73
		c-0.24,0.42,0.36,0.8,0.05,1.22C54.3,31.61,54.2,31.6,54.11,31.52z"/>
	<path class="st25" d="M54.34,31.52c0.08-0.4-0.51-0.81,0.01-1.2c0.26,0.45,0.51,0.9,0.45,1.46c-0.37,0.22-0.08,0.73-0.44,0.96
		C54.07,32.34,54.21,31.93,54.34,31.52z"/>
	<path class="st25" d="M54.86,35.17c0-0.83,0.01-1.66,0.01-2.49c0.06,0.03,0.12,0.04,0.19,0.04C55,33.54,55.31,34.39,54.86,35.17z"
		/>
	<path class="st32" d="M24.6,44.71c1.17-0.17,2.03,0.62,3.02,0.99c1.26,0.47,1.24,0.52,1.16-0.95c0.96,1.19,1.85,2.29,2.74,3.39
		c0.67,0.82,1,0.78,1.39-0.21c0.5-1.25,0.95-2.53,1.45-3.78c0.14-0.35,0.35-0.88,0.8-0.72c0.44,0.15,0.26,0.72,0.19,1.07
		c-0.15,0.81-0.4,1.61-0.63,2.51c0.61-0.04,1.13-0.15,1.63-0.38c-0.06,1.49-0.71,2.86-0.98,4.3c-0.14,0.25-0.27,0.5-0.41,0.76
		c-0.56,0.33-0.87,0.92-1.36,1.32c-0.56,0.46-0.97,0.56-1.19-0.29c-0.16-0.66-0.48-1.27-0.53-1.96c-0.04-1.37-0.96-2.12-1.96-2.81
		c-0.31-0.22-0.51-0.05-0.71,0.18c-0.28,0.34-0.71,0.55-1.07,0.34C26.61,47.57,25.21,46.5,24.6,44.71z"/>
	<path class="st33" d="M41.39,41.83c0-0.08,0-0.16,0.01-0.24c0.82-0.28,0.81,0.6,1.22,0.88c0.1,0.51-0.29,0.6-0.62,0.7
		c-0.75,0.24-1.22,0.87-1.85,1.28c-0.48,0.32-0.29,0.66,0.01,0.99c0.02,1.64-0.81,2.75-2.17,3.54c-0.81-0.52-0.24-1.35-0.44-1.91
		c-0.09,0.75,0.2,1.63-0.23,2.44c-0.42,0.33-0.46,0-0.46-0.29c0.01-0.78-0.09-1.56,0.08-2.34c0.08-0.4,0.29-0.83-0.1-1.2
		c0.55-0.94,1.07-1.89,1.65-2.8c0.21-0.33,0.3-1.02,0.98-0.57C40.35,43.13,40.79,42.18,41.39,41.83z"/>
	<path class="st34" d="M42.59,42.56c-0.76,0.13-0.55-0.95-1.2-0.96c0-0.99,0-1.98,0-2.97c0-0.24,0-0.52,0.31-0.55
		c0.41-0.04,0.39,0.3,0.4,0.57c0.01,0.67,0.01,1.35,0.01,2.02c0,0.49,0.15,0.78,0.71,0.56c0.81-0.31,1.62-0.6,2.43-0.9
		c0.02-0.01,0.03-0.07,0.02-0.11c-0.01-0.03-0.05-0.06-0.07-0.09c0.64-0.88,1.31-1.73,2.16-2.42c0.5,0.2,0.39-0.31,0.54-0.49
		c0.57-0.72,1.22-1.18,2.19-0.87c-0.33,0.42-0.22,0.93-0.31,1.4c-1.32,1.95-3.03,3.44-5.25,4.3C43.88,42.21,43.38,42.95,42.59,42.56
		z"/>
	<path class="st35" d="M42.59,42.56c0.64-0.24,1.28-0.48,1.92-0.72c1.08,0.04,1.37,1.04,2,1.64c-0.66,0.95-1.5,1.62-2.69,1.76
		c-0.28-0.58-0.08-1.37-0.83-1.82c-0.5,0.84-0.7,1.86-1.48,2.5c-0.18,0.15-0.39,0.39-0.57,0.37c-0.38-0.04-0.23-0.43-0.27-0.68
		c-0.03-0.21,0.08-0.52-0.28-0.53c-0.08,0-0.16,0.24-0.23,0.37c-0.33-0.09-0.77-0.11-0.81-0.53c-0.04-0.33,0.34-0.47,0.58-0.68
		C40.73,43.55,41.65,43.04,42.59,42.56z"/>
	<path class="st36" d="M54.34,31.52c0.01,0.4,0.02,0.81,0.03,1.21c0.13,1.54-0.5,2.82-1.31,4.07c-0.25,0.39-0.63,0.72-0.66,1.23
		c-0.63-0.57-1.27-1.13-1.9-1.7c-0.04-0.89-1.01-1.09-1.31-1.77c-0.13-0.31-0.75-0.57-0.28-0.99c0.37-0.33,0.78,0,1.07,0.23
		c0.49,0.4,1.03,0.81,1.33,1.34c0.47,0.82,0.81,0.51,1.2,0.02c0.84-1.08,1.33-2.32,1.61-3.65C54.19,31.52,54.26,31.52,54.34,31.52z"
		/>
	<path class="st37" d="M46.42,43.48c-0.88-0.27-1.13-1.26-1.91-1.65c2.15-0.85,3.59-2.63,5.27-4.09c0.02,0.23,0.04,0.46,0.07,0.85
		c0.13-0.29,0.21-0.46,0.28-0.63c0.02,0.59,0.57,1.13,0.16,1.73c-0.62-0.13-0.82,0.33-1.04,0.74c-0.48,0.92-1.15,1.7-1.81,2.48
		C47.2,43.22,46.98,43.71,46.42,43.48z"/>
	<path class="st38" d="M46.42,43.48c1.22-0.94,2.01-2.21,2.77-3.51c0.26-0.45,0.57-0.88,1.11-0.27c-1.09,2.97-3.57,4.44-6.2,5.76
		c-0.2,0.1-0.27-0.05-0.28-0.23C44.87,44.93,45.62,44.17,46.42,43.48z"/>
	<path class="st25" d="M52.7,38.46c0.83-0.64,1.06-1.74,1.87-2.39c-0.15,1.21-0.9,2.17-1.3,3.3C52.79,39.17,52.91,38.72,52.7,38.46z
		"/>
	<path class="st39" d="M37.31,49.52c0-1.23,0-2.47,0-3.7c0.81,0.98,0.17,2.17,0.67,3.17C37.76,49.17,37.54,49.34,37.31,49.52z"/>
	<path class="st6" d="M24.6,44.71c0.92,1.19,1.86,2.36,3.1,3.25c0.63,0.45,1.14,0.63,1.46-0.29c0.08-0.23,0.16-0.45,0.49-0.37
		c0.79,0.21,2.5,2.26,2.58,3.13c0.01,0.09-0.12,0.19-0.19,0.28c-0.5-0.13-0.59-0.62-0.84-0.96c-0.21-0.27-0.33-0.69-0.82-0.47
		c-0.61,0.03-0.52,0.49-0.52,0.88c-0.01,0.67,0,1.34,0,2.23c-0.72-0.63-1.3-1.13-1.87-1.65c-1.88-1.69-4.33-2.27-6.52-3.37
		c-1.18-0.87-2.19-1.91-3.08-3.07c-0.05-0.27-0.07-0.62-0.42-0.62c-0.25,0-0.32,0.31-0.43,0.52c-0.27,0.48-0.07,1.02-0.23,1.64
		c-1.79-0.78-3.42-1.68-4.68-3.16c-0.6-1.83-1.19-3.66-1-5.63c0.08-0.08,0.16-0.16,0.24-0.24c0.16,0.16,0.32,0.32,0.48,0.49
		c0.54,0.26,0.81,0.76,1.07,1.25c0.94,1.78,2.44,2.96,4.19,3.81c2.27,1.11,4.48,2.3,6.69,3.67c-0.16-0.48-0.72-0.83-0.35-1.34
		C24.11,44.47,24.38,44.56,24.6,44.71L24.6,44.71z"/>
	<path class="st40" d="M30.38,49.28c0.03-0.19-0.01-0.46,0.1-0.55c0.26-0.22,0.42,0.06,0.54,0.25c0.35,0.57,0.68,1.16,1.02,1.74
		c0.28,0.81,0.56,1.63,0.97,2.84c0.49-0.63,0.89-1.15,1.32-1.65c0.14-0.17,0.29-0.56,0.63-0.2c-0.53,1.36-1.47,2.43-2.6,3.8
		C32.29,53.04,31.7,51.03,30.38,49.28z"/>
	<path class="st41" d="M18.39,44.29c1.2,0.85,2.08,2.02,3.08,3.07C20.06,46.73,18.89,45.85,18.39,44.29z"/>
	<path class="st19" d="M35.39,5.6c0.78,0.31,1.48-0.26,1.8-0.64c1.07-1.23,2.4-1.04,3.74-1.05c0.4,0,0.8,0,1.29,0
		c-0.17,0.73-1.04,1.11-0.8,1.91c-0.04,0.25-0.29,0.38-0.31,0.63c0.42,0.41,1.03,0.42,1.48,0.76c0.25,0.19,0.59,0.37,0.45,0.75
		c-0.11,0.28-0.45,0.3-0.73,0.32c-0.3,0.02-0.6-0.09-0.64-0.08C41.61,8.22,41.81,8.26,42,8.3c1.58,0.19,3.14,0.43,4.24,1.78
		c-0.06,0.11-0.13,0.24-0.24,0.24c-1.45,0.12-2.83,0.39-4.03,1.31c-0.32,0.25-0.69,0.06-0.99-0.18c-0.35-0.27-0.65-0.59-0.97-0.89
		c-1.06-1.2-2.49-1.05-3.88-1.04c-0.44,0-0.96,0.29-1.31-0.24c-0.06-0.65,0.48-0.82,0.89-1.1c0.81-0.55,1.72-0.77,2.85-0.78
		C38,6.63,37.37,6.42,36.64,6.4c-0.75-0.03-1.51,0.08-2.22-0.28C34.47,5.44,34.96,5.58,35.39,5.6z"/>
	<path class="st42" d="M40.67,6.31c0.25-0.16,0.5-0.33,0.74-0.49c1.13,0.13,1.95-0.96,3.17-0.73c1.01,0.18,2.04,0.22,3.03,0.53
		c-0.44,0.24-0.91,0.45-1.32,0.73c-0.5,0.34-0.7,0.83-0.55,1.44c0.15,0.64,0.63,0.73,1.18,0.72c0.5,1.3-1.03,0.24-1.02,1.05
		c0.33,0.25,0.81,0.06,1.24,0.12c0.24,0.16,0.48,0.32,0.72,0.48c-0.16,0.24-0.32,0.48-0.47,0.71c-0.61,0.09-0.97-0.22-1.2-0.75
		c-0.47-0.31-1.12-0.21-1.46-0.98c-0.16-0.36-1.3-0.3-2-0.41c-0.31-0.05-0.65,0.06-0.87-0.26c0.17-0.21,0.41-0.2,0.64-0.23
		c0.28-0.04,0.72,0.14,0.77-0.31c0.04-0.36-0.37-0.45-0.63-0.63C42.04,6.87,41.21,6.88,40.67,6.31z"/>
	<path class="st20" d="M35.39,5.6c-0.21,0.38-0.74,0.1-0.97,0.45c-0.48,0.41-1.02,0.68-1.66,0.75C31.74,6.79,32,6.03,32.11,5.51
		c0.16-0.7,0.26-1.37-0.07-2.04c0.6,0.48,2.09,0.75,3.34,0.59C35.39,4.58,35.39,5.09,35.39,5.6z"/>
	<path class="st43" d="M46.2,10.12c0.4,0.25,0.8,0.5,1.2,0.75c0.5,0.73,0.87,1.51,0.98,2.39c0,1.43,0.14,2.91-0.81,4.13
		c-0.44,0.56-0.83,1.46-1.86,0.93c0.03-0.34,0.27-0.56,0.47-0.8c1.36-1.68,1.49-3.49,0.59-5.41c-0.27-0.29-0.53-0.59-0.89-0.78
		c-1.23-0.37-2.27,0-3.22,0.77c-1.08,0.87-1.22,0.85-2.19-0.08c-1.17-1.14-3.78-1.44-5.4-0.58c-1.13,0.6-2.18,1.31-3.11,2.21
		c-0.89,0.87-1.43,0.91-2.44,0.2c-2.72-1.94-5.59-1.77-8.54-0.68c-0.65,0.24-1.26,0.55-1.93,0.09c-0.81-0.71-1.71-1.05-2.78-0.69
		c-2.51,0.95-3.04,2.62-1.53,4.81c0.2,0.29,0.47,0.54,0.63,0.86c0.24,0.46,0.35,0.9-0.37,1.03c-1.05-1.18-2.21-2.26-2.2-4.08
		c0.01-1.87,1.12-2.83,2.57-3.54c1.29-0.63,2.6-0.46,3.67,0.51c0.53,0.48,0.86,0.54,1.51,0.16c1.81-1.08,4.09-1.42,6.22-1.09
		c-0.82-0.81-3.61-1.74-5.33-1.83c-0.41-0.02-1.02,0.29-1.17-0.46c0.16-0.08,0.32-0.17,0.48-0.25c1.67-1.31,3.64-0.91,5.53-0.95
		c0.07,0.02,0.14,0.03,0.21,0.03c0.66,0.43,1.48,0.64,1.92,1.39c-0.42,0.42-0.82,0.14-1.18-0.08c-1.63-1.01-3.31-0.94-5.08-0.28
		c-0.11,0.01,0.07,0.27,0.04,0.11c-0.01-0.03,0.04-0.12,0.11-0.11c1.73,0.13,3.33,0.71,4.84,1.52c1.09,0.58,2.13,1.25,2.92,2.22
		c0.26,0.32,0.57,0.56,1.01,0.53c0.08-0.09,0.16-0.17,0.24-0.26c0.99-1.3,1.72-2.79,2.92-3.93c0.43-0.41,0.85-0.88,1.55-0.74
		c0.08,0.04,0.12,0.1,0.12,0.17c0,0.07-0.01,0.11-0.03,0.11c-0.33,0.25-0.76,0.38-0.98,0.76c-0.1,0.45-0.4,0.77-0.74,1.11
		c1.35-0.25,2.67-0.48,4.02-0.45c0.74,0.02,1.42,0.11,2.03,0.55c0.88,1.02,1.75,1.27,2.89,0.25C43.94,9.88,45.14,10.2,46.2,10.12z"
		/>
	<path class="st44" d="M31.08,13.07c-0.25,0.49-0.59,0.53-0.92,0.1c-2-2.6-4.88-3.52-7.89-4.2c-0.11-0.03-0.23-0.05-0.34-0.09
		c-0.02-0.01-0.03-0.06-0.11-0.2c1.78-0.87,3.52-0.98,5.3-0.01c0.4,0.22,0.74,0.64,1.29,0.49c-0.21,0.41,0.05,0.64,0.29,0.92
		C29.51,11.06,30.29,12.07,31.08,13.07z"/>
	<path class="st45" d="M35.87,8.23c-1.42,0.38-2.18,1.51-2.85,2.65c-0.45,0.77-1,1.4-1.7,1.93c0.36-2.65,1.85-4.6,3.83-6.26
		c1.02-0.46,1.99-0.28,2.95,0.19c0.17,0.08,0.39,0.17,0.39,0.39c0,0.31-0.28,0.35-0.51,0.39C37.24,7.67,36.49,7.74,35.87,8.23z"/>
	<path class="st46" d="M35.87,8.23c0.56-0.94,1.69-0.55,2.5-1.08c-1-0.72-2.12-0.59-3.21-0.6c-0.84-0.29-1.56,0.48-2.39,0.25
		c0.54-0.27,1.04-0.65,1.66-0.75c0.83,0.01,1.66,0,2.49,0.02c0.62,0.01,1.13,0.33,1.62,0.66c0.26,0.17,0.54,0.39,0.41,0.77
		c-0.12,0.33-0.46,0.28-0.72,0.26c-0.86-0.05-1.63,0.23-2.35,0.66C35.87,8.36,35.87,8.29,35.87,8.23z"/>
	<path class="st47" d="M19.06,13.06c0.59,0.34,1.1,0.11,1.69-0.12c3.08-1.21,6.11-1.46,8.93,0.69c0.76,0.58,1.45,0.61,2.08-0.18
		c0.85-1.06,2.03-1.67,3.17-2.3c1.99-1.11,4.62-0.61,6.13,1.13c0.54,0.63,0.86,0.12,1.15-0.19c0.95-1.04,2.14-1.32,3.48-1.23
		c0.21,0.01,0.39,0.07,0.49,0.27c-0.3,0.37-0.83,0.17-1.27,0.57c0.72,0.13,1.34,0.32,1.99,0.14c1.4,1.76,0.84,4.83-1.19,6.49
		c-0.39,0.52-0.44,0.96-0.07,1.59c1.45,2.5,1.19,5.21,0.76,7.91c-0.09,0.58-0.63,0.92-1.05,1.27c-2.58,2.18-5.24,4.27-7.77,6.51
		c-1.5,1.34-3.29,1.55-5.09,1.62c-2.02,0.08-4.05,0.2-6.08-0.16c-0.8-0.14-1.45-0.46-2.05-0.89c-2.44-1.74-5.15-3.01-7.68-4.57
		c-2.27-1.4-3.26-3.43-2.86-6.04c0.32-2.11,0.47-4.26,1.17-6.31c0.42-0.34,0.47-0.68,0.05-1.08c-0.23-0.21-0.42-0.47-0.61-0.73
		c-1.61-2.24-0.89-4.33,1.76-5.14c0.17,0.37,0.03,0.69-0.15,1c-1.35,1-1.63,2.42-0.71,3.54c0.33,0.41,0.62,0.47,0.95,0.04
		c0.41-0.54,0.89-1.02,1.34-1.52c0.71-0.77,0.58-1.17-0.43-1.53c-0.29-0.1-0.65-0.07-0.81-0.41c0.26-0.59,0.79-0.46,1.24-0.43
		C18.1,13.04,18.58,13.06,19.06,13.06z"/>
	<path class="st32" d="M24.6,44.71c-0.43-0.01-0.73,0.05-0.44,0.59c0.23,0.41,0.76,0.61,0.85,1.28c-1.15-0.3-1.96-1.07-2.91-1.56
		c-1.9-0.99-3.77-2.04-5.67-3.03c-1.98-1.04-3.07-2.84-4.09-4.7c1.19-0.19,1.58,0.88,2.28,1.46c0.03-0.06,0.1-0.13,0.08-0.18
		C14.51,37.9,14.52,37,15,36.75c0.45-0.23,0.87,0.61,1.23,1.07c0.24,0.31,0.52,0.6,0.81,0.88c0.25,0.23,0.5,0.28,0.59-0.16
		c0.05-0.26,0.03-0.66,0.39-0.61c0.39,0.05,0.57,0.4,0.55,0.8c-0.44,0.8-0.02,1.46,0.33,2.14c0.03,0.03,0.08,0.06,0.08,0.09
		c-0.26,1.4,0.84,1.41,1.69,1.59c1.11,0.23,1.9,1.28,3.17,1.16C24.05,43.69,24.34,44.36,24.6,44.71z"/>
	<path class="st48" d="M53.12,18.07c-0.04,0.79,0.24,1.43,0.73,2.07c1.08,1.41,1.85,2.97,1.71,4.84c-0.07,0.98,0.47,1.94,0.12,3.01
		c-0.52-0.27-1.05-0.54-1.57-0.81c0.05-0.66-0.15-1.24-0.44-1.83c-0.71-1.43-1.55-2.79-1.86-4.39c-0.22-1.15,0.11-2.15,0.65-3.11
		C52.69,17.92,52.91,18,53.12,18.07z"/>
	<path class="st49" d="M47.36,37.71c-0.56,0.95-1.28,1.76-2.16,2.42c-0.66,0.13-0.98-0.1-0.92-0.82c0.04-0.43,0.01-0.87,0.01-1.39
		c0.12,0.14,0.19,0.17,0.2,0.23c0.14,0.48-0.24,1.23,0.29,1.41c0.63,0.21,1.01-0.52,1.37-0.95c0.43-0.5,0.72-1.11,1.08-1.69
		C47.51,37.17,47.35,37.45,47.36,37.71z"/>
	<path class="st34" d="M41.39,41.83c-0.04,0.95-0.92,1.04-1.5,1.26c-0.62,0.23-0.32-0.47-0.42-0.77
		C40.11,42.16,40.75,42,41.39,41.83z"/>
	<path class="st50" d="M18.89,40.88c-0.81-0.79-0.93-1.55-0.33-2.14C18.67,39.45,18.78,40.16,18.89,40.88z"/>
	<path class="st51" d="M40.19,10.4c-2.29-0.4-4.55-0.42-6.68,0.59c0.31-0.89,0.31-0.89,1.37-1.81c0.91,0.26,1.83-0.1,2.75,0.01
		C38.63,9.31,39.59,9.45,40.19,10.4z"/>
	<path class="st52" d="M40.67,6.31c0.86,0.18,1.65,0.55,2.41,0.99c0.34,0.2,0.76,0.44,0.66,0.89c-0.11,0.49-0.6,0.22-0.92,0.26
		c-0.31,0.04-0.63,0.01-0.95,0.02c-0.43-0.08-0.92,0.13-1.61-0.43c1.09,0,1.86,0,2.89,0c-0.78-0.82-1.56-0.96-2.28-1.2
		C40.55,6.73,40.31,6.65,40.67,6.31z"/>
	<path class="st53" d="M19.06,13.06c-0.21,0.42-0.52,0.49-0.97,0.35c-0.55-0.18-1.13-0.29-1.67,0.08c-0.26,0.18-0.45,0.19-0.47-0.2
		c-0.04-0.35,0.08-0.67,0.25-0.97C17.3,11.98,18.31,12.02,19.06,13.06z"/>
	<path class="st54" d="M46.9,11.84c-0.37,0.31-2.09,0.38-2.36,0.08c-0.3-0.34,0.02-0.51,0.23-0.65c0.43-0.29,0.93-0.12,1.4-0.14
		C46.41,11.37,46.65,11.61,46.9,11.84z"/>
	<path class="st55" d="M40.22,21.11c-0.01,2.32-1.98,3.9-4.29,3.43c-1.65-0.34-2.51-2.91-1.85-4.45c0.1-0.22,0.29-0.39,0.57-0.31
		c0.31,0.09,0.24,0.36,0.26,0.59c0.09,0.74-0.21,1.51,0.2,2.22c0.5,0.03,0.7,0.87,1.34,0.49c0.63-0.37,0.53-1,0.55-1.59
		c0.01-0.48,0-0.95-0.13-1.41c-0.25-0.83,0.16-1.08,0.9-1.08C38.92,18.99,39.94,19.87,40.22,21.11z"/>
	<path class="st56" d="M46.42,14.72c0.12,0.68-0.2,1.25-0.54,1.79c-0.79,1.24-1.41,1.24-2.23,0.06c-0.55-0.78-1.12-1.55-1.68-2.32
		c-0.19-0.26-0.42-0.47-0.1-0.82c0.88-0.95,3.12-1.01,4.03-0.11C46.3,13.72,46.51,14.16,46.42,14.72z"/>
	<path class="st57" d="M20.28,20.69c-0.3-0.08-0.22-0.23-0.1-0.42c1.13-1.69,4.27-2.29,5.96-1.14c0.33,0.23,0.53,0.46,0.32,0.87
		c-0.37,0.31-0.74-0.05-1.17-0.07c0.35,0.85,0.38,1.68,0.3,2.5c-0.11,1.31-0.61,1.76-1.97,1.84c-0.92-0.22-1.31-0.81-1.25-1.73
		c0-0.08,0-0.16,0-0.24c-0.07-0.78,0.38-1.84-0.12-2.28C21.69,19.53,21.05,20.7,20.28,20.69z"/>
	<path class="st58" d="M40.22,21.11c-0.74-1.23-1.65-2.14-3.31-1.76c0.57,0.94,0.62,1.96,0.45,2.98c-0.1,0.62-0.43,1.14-1.11,1.23
		c-0.7,0.1-0.95-0.43-1.14-0.98c0-0.79,0.01-1.59,0-2.38c0-0.28,0.2-0.59-0.34-0.69c-0.76-0.15-0.3-0.51,0.01-0.65
		c2.1-0.94,5.38-0.59,6.08,2.65C40.51,21.6,40.48,21.17,40.22,21.11z"/>
	<path class="st59" d="M30.37,28.4c-1.07-0.66-2.32-1.01-3.24-1.96c-0.96-1-0.75-2.07,0.59-2.41c1.56-0.4,3.15-0.58,4.75-0.42
		c0.66,0.07,1.35,0.18,1.61,1c0.24,0.77-0.19,1.23-0.69,1.64c-0.51,0.42-0.88,1.04-1.59,1.19c-0.19-0.66,0.4-0.98,0.64-1.45
		c0.2-0.39,0.73-0.7,0.32-1.25c-0.55-0.48-1.16-0.34-1.77-0.18c-0.71,0.03-1.41,0.22-2.12,0.28c-0.61,0.05-0.66,0.35-0.36,0.78
		c0.54,0.77,1.2,1.36,2.19,1.48c0.39,0.05,0.8-0.01,1.1,0.33c-0.1,0.62-0.96,0.36-1.09,0.95C30.6,28.52,30.48,28.54,30.37,28.4z"/>
	<path class="st60" d="M15.94,13.29c0.12,0.16,0.28,0.22,0.47,0.2c0.39,0.05,0.81,0.02,1.17,0.15c0.95,0.34,1.1,1.05,0.41,1.77
		c-0.55,0.58-1.13,1.12-1.57,1.8c-0.45,0.69-0.83,0.62-1.3-0.08C13.95,15.39,14.25,13.86,15.94,13.29z"/>
	<path class="st61" d="M30.37,28.4c0.12,0,0.23,0,0.35,0c0.14,0.75,0.05,1.59,1.05,1.92c1.29,0.42,2.55,1.03,3.92,0.45
		c0.38-0.16,1.03-0.3,0.81-1.08c-0.13-0.47,0.37-0.24,0.57-0.34c0.43-0.11,0.76,0.06,0.95,0.44c0.13,0.26,0,0.43-0.28,0.48
		c-0.31,0.04-0.65-0.04-0.89,0.25c-1.07,1.28-2.46,1.2-3.83,0.76c-1.32-0.43-2.42-0.36-3.75,0.22c-1.41,0.61-3.12,0.81-4.53-0.3
		c-0.5-0.39-1.01-0.38-1.55-0.4c-0.33-0.61,0.19-0.76,0.56-0.87c0.42-0.13,0.94-0.26,1.09,0.42c0.16,0.74,0.52,0.93,1.91,0.97
		c0.99-0.23,1.92-0.65,2.86-1.02C30.6,29.94,30.09,29.01,30.37,28.4z"/>
	<path class="st62" d="M20.28,20.69c0.75-0.7,1.54-1.29,2.75-1.44c-0.6,1.27-0.3,2.5-0.39,3.71c-0.05,0.73,0.51,0.91,0.99,1.17
		c0.02,0.2-0.01,0.35-0.26,0.2C20.99,24.24,20.18,23.29,20.28,20.69z"/>
	<path class="st63" d="M23.36,24.33c0.09-0.07,0.17-0.14,0.26-0.2c1.16,0,1.61-0.7,1.69-1.75c0.09-1.23-0.03-1.76-0.63-3
		c0.67,0.02,1.18,0.45,1.77,0.62c0.86,1.16,1.05,2.59,0.26,3.62C25.86,24.73,24.56,24.44,23.36,24.33z"/>
	<path class="st64" d="M24.83,30.32c-0.73-0.51-1.31-0.45-1.65,0.45c-0.51-0.1-1.17,0-1.15-0.81c0.02-0.76,0.72-0.63,1.15-0.79
		c0.88-0.31,1.55,0.45,2.35,0.61c0.06,0.01,0.16,0.22,0.13,0.29C25.5,30.47,25.12,30.27,24.83,30.32z"/>
	<path class="st65" d="M42.09,23.83c0.43,0.05,1.06-0.12,1.08,0.44c0.03,0.68-0.64,0.52-1.08,0.52c-0.41,0-1.04,0.13-1.06-0.43
		C41.01,23.67,41.69,23.9,42.09,23.83z"/>
	<path class="st66" d="M37.72,27.22c1.09-0.28,2.18-0.31,3.27-0.04C39.91,27.55,38.81,27.41,37.72,27.22z"/>
	<path class="st67" d="M37.73,30.25c0.37-0.74-0.41-0.63-0.67-0.91c0.62-0.43,1.91,0.06,2.01,0.77c0.05,0.33-0.19,0.44-0.43,0.41
		C38.33,30.48,38.04,30.34,37.73,30.25z"/>
	<path class="st68" d="M29.6,30.26c-0.81,0.75-1.71,1.23-2.86,1.02C27.59,30.64,28.53,30.25,29.6,30.26z"/>
	<path class="st69" d="M37.51,26.63c0.69-0.89,1.67-1.03,2.73-0.91C39.33,26.02,38.42,26.32,37.51,26.63z"/>
	<path class="st70" d="M22.96,26.57c-0.82-0.13-1.65-0.02-2.44-0.2C21.36,26.2,22.19,26.05,22.96,26.57z"/>
	<path class="st71" d="M20.99,27.46c0.73,0,1.46,0,2.18,0c0,0.05,0,0.1,0,0.15c-0.72,0-1.43,0-2.15,0
		C21.01,27.56,21,27.51,20.99,27.46z"/>
	<path class="st50" d="M18.19,41.17c-0.71,0.07-1.18-0.24-1.53-0.77C17.18,40.66,17.68,40.92,18.19,41.17z"/>
	<path class="st19" d="M24.37,22.61c-0.01,0.29-0.12,0.52-0.46,0.53c-0.28,0-0.43-0.19-0.44-0.44c-0.02-0.3,0.13-0.52,0.46-0.53
		C24.21,22.16,24.33,22.35,24.37,22.61z"/>
	<path class="st72" d="M36.69,22.27c-0.06,0.25-0.19,0.46-0.46,0.45c-0.28,0-0.41-0.22-0.4-0.48c0.01-0.25,0.15-0.46,0.43-0.45
		C36.53,21.8,36.65,22.01,36.69,22.27z"/>
	<path class="st73" d="M31.81,27.45c-1.83,0.26-3.05-0.58-3.87-2.15c-0.2-0.39-0.28-0.73,0.31-0.71c0.96,0.03,1.88-0.4,2.85-0.25
		c0.59,0.23,1.22,0.16,1.83,0.26c0.79-0.03,0.47,0.42,0.28,0.73C32.76,26.05,32.27,26.74,31.81,27.45
		C31.8,27.45,31.81,27.45,31.81,27.45z"/>
	<path class="st74" d="M32.92,24.6c-0.65,0.19-1.33,0.65-1.83-0.26C31.77,24,32.39,24.01,32.92,24.6z"/>
</g>
</svg>
