<?xml version="1.0" encoding="utf-8"?>
<!-- Generator: Adobe Illustrator 23.0.2, SVG Export Plug-In . SVG Version: 6.00 Build 0)  -->
<svg version="1.1" id="Camada_1" xmlns="http://www.w3.org/2000/svg" xmlns:xlink="http://www.w3.org/1999/xlink" x="0px" y="0px"
	 viewBox="0 0 125.39 84.47" style="enable-background:new 0 0 125.39 84.47;" xml:space="preserve">
<style type="text/css">
	.st0{fill:#FEFEFE;}
	.st1{fill:#7F3D4B;}
	.st2{fill:#DDA8BD;}
	.st3{fill:#DFACC4;}
	.st4{fill:#E1B4CF;}
	.st5{fill:#E9CADF;}
	.st6{fill:#703137;}
	.st7{fill:#933B44;}
	.st8{fill:#A8434D;}
	.st9{fill:#DCA7BD;}
	.st10{fill:#AA434E;}
	.st11{fill:#703138;}
	.st12{fill:#703037;}
	.st13{fill:#373030;}
	.st14{fill:#CD798E;}
	.st15{fill:#383030;}
	.st16{fill:#9F3F4A;}
	.st17{fill:#D07F9A;}
	.st18{fill:#3D3535;}
	.st19{fill:#A1404A;}
	.st20{fill:#DA9CAA;}
	.st21{fill:#763339;}
	.st22{fill:#C97589;}
	.st23{fill:#E2B6D2;}
	.st24{fill:#E4BDD7;}
	.st25{fill:#DDA6BB;}
	.st26{fill:#E8C7DD;}
	.st27{fill:#732620;}
	.st28{fill:#E3B9D4;}
	.st29{fill:#FDFBFC;}
	.st30{fill:#C27083;}
	.st31{fill:#C27183;}
	.st32{fill:#D1809B;}
	.st33{fill:#ECD1E3;}
	.st34{fill:#803F4E;}
	.st35{fill:#676161;}
	.st36{fill:#514949;}
	.st37{fill:#666362;}
	.st38{fill:#514948;}
	.st39{fill:#564D4E;}
	.st40{fill:#716D6E;}
	.st41{fill:#C1697D;}
	.st42{fill:#DEACC3;}
	.st43{fill:#63231D;}
	.st44{fill:#FDFDFD;}
	.st45{fill:#FDFCFC;}
	.st46{fill:#9C4A42;}
	.st47{fill:#F3ECEA;}
	.st48{fill:#FEFDFE;}
	.st49{fill:#FDFCFD;}
	.st50{fill:#953D50;}
	.st51{fill:#943D50;}
	.st52{fill:#92473F;}
	.st53{fill:#F0EAE8;}
</style>
<g>
	<path class="st0" d="M61.25,77.37c-1.44,3.35-3.4,5.92-7.15,6.68c-6.24,1.26-11.75-0.4-16.7-4.15c-1.39-1.06-2.32-2.67-2.93-4.31
		c-0.84-2.26-2.25-4.19-3.36-6.28c-1.58-2.99-3.18-5.98-5.26-8.67c-0.37-0.48-0.81-0.83-1.35-1.12c-5.01-2.7-8.09-6.93-9.78-12.29
		c-1.44-4.57-2.23-9.21-1.91-14.02c0.07-1,0.31-1.96,0.44-3.02c-2.19,0.22-4.35,0.15-6.48-0.43c-3.38-0.91-5.44-3.03-6.39-6.4
		c-0.98-3.45,0.04-6.48,1.85-9.28C6.29,7.76,12.3,4.27,19.5,2.71c3.48-0.76,6.91-0.24,10.26,0.78c0.54,0.16,0.97,0.11,1.49-0.04
		c4.55-1.33,9.14-2.6,13.85-3.12c6.84-0.75,13.62-0.26,20.13,2.15c1.63,0.6,3.07,0.11,4.53-0.11c3.22-0.48,6.27,0.07,9.32,0.92
		c4.56,1.27,7.86,4.09,9.96,8.31c0.28,0.56,0.62,0.84,1.22,1c2.84,0.78,5.57,1.86,8.15,3.29c0.43,0.24,0.7,0.14,1.09,0.02
		c1.7-0.56,3.42-1.15,5.22-1.22c4.93-0.18,9.1,1.67,12.66,4.98c0.33,0.31,0.65,0.56,1.06,0.73c4.11,1.66,6.41,4.74,6.92,9.11
		c0.42,3.64-3.04,8.54-6.6,9.45c-0.51,0.13-0.94,0.36-1.34,0.73c-1.52,1.36-3.13,2.6-5.23,2.97c-0.53,0.09-0.78,0.32-0.69,0.87
		c0.02,0.12-0.01,0.24,0,0.36c0.5,5.39-1.14,10.41-2.77,15.41c-0.97,2.99-2.45,5.76-3.91,8.54c-1.26,2.4-2.71,4.59-5,6.11
		c-3.63,2.4-7.6,3.13-11.86,2.4c-0.47-0.08-0.95-0.17-1.4-0.33c-0.69-0.24-1.1-0.16-1.53,0.56c-1.84,3.02-4.72,4.57-8.01,5.61
		c-3.74,1.18-7.34,0.65-10.91-0.54C63.95,80.92,62.43,79.32,61.25,77.37z"/>
	<path d="M82.96,70.01c-0.24,4.85-2.37,7.15-7.38,8.64c-2.73,0.81-5.46,0.37-8.11-0.54c-0.61-0.21-1.22-0.54-1.59-1.04
		c-1.34-1.86-3.12-3.41-4.01-5.58c-0.15-0.38-0.27-0.52-0.66-0.43c-0.15,0.04-0.32,0.01-0.48,0.01C58,71.11,58,71.11,57.93,73.81
		c-0.12,4.35-2.7,6.82-7.04,6.88c-3.2,0.04-6.13-0.84-8.95-2.24c-2.01-1-3.32-2.65-4.07-4.67c-0.81-2.19-2.17-4.07-3.26-6.1
		c-1.82-3.41-3.66-6.82-6.1-9.86c-0.56-0.7-1.19-1.22-2.01-1.62c-3.71-1.8-6.07-4.84-7.61-8.57c-2-4.86-2.58-9.94-2.19-15.14
		c0.09-1.26,0.46-2.51,0.79-3.74c0.14-0.51,0.12-0.83-0.37-1.07c-1.48-0.74-2.81-1.66-4.7-1.32c-1.66,0.3-3.41,0.2-5.09-0.36
		c-2.4-0.8-4.06-3.63-3.45-6.1c1.03-4.13,3.5-7.17,7.09-9.38c1.8-1.11,3.5-2.36,5.52-3.1c4.42-1.63,8.82-1.66,13.2,0.08
		c0.57,0.23,1.02,0.21,1.58,0c4.13-1.53,8.4-2.48,12.74-3.16c2.29-0.36,4.59-0.55,6.9-0.47c5.04,0.18,10.03,0.57,14.67,2.83
		c0.53,0.26,1.01,0.06,1.5-0.05c3.72-0.81,7.39-0.93,11.08,0.3c3.5,1.16,6.1,3.27,7.58,6.65c0.6,1.36,1.48,2.15,2.97,2.52
		c3.26,0.82,6.38,2.07,9.18,3.97c0.66,0.45,1.1,0.44,1.84,0.01c4.35-2.49,8.63-2.08,12.77,0.56c0.91,0.58,1.8,1.21,2.47,2.07
		c0.44,0.58,1.03,0.8,1.67,1.06c2.33,0.91,4.15,2.31,4.69,4.97c0.55,2.69-1.43,6.08-4.09,6.7c-0.93,0.22-1.66,0.57-2.33,1.27
		c-1.74,1.82-3.91,2.73-6.45,2.64c-0.47-0.02-0.6,0.11-0.61,0.58c-0.05,1.63-0.32,3.28-0.19,4.9c0.31,3.89-0.75,7.51-1.86,11.14
		c-1.14,3.72-2.93,7.13-4.71,10.58c-1.65,3.22-4.03,5.23-7.48,5.9C89.82,73.23,86.17,72.82,82.96,70.01z"/>
	<path class="st1" d="M113.74,31.07c-0.22,2.16-1.58,3.49-3.44,4.21c-2.72,1.06-4.22-0.65-4.06-3.05c0.1-1.49,0.69-2.87,2.03-3.76
		c0.69-0.45,0.57-0.75-0.09-1.19c-1.99-1.33-3.84-1.2-5.52,0.41c-0.48,0.46-0.56,0.83-0.28,1.45c1.98,4.29,1.86,8.82,1.48,13.38
		c-0.07,0.84-0.12,1.68-0.06,2.52c0.37,4.86-1.37,9.24-3.04,13.65c-0.95,2.51-2.4,4.76-3.62,7.14c-0.7,1.37-1.99,2.27-3.48,2.73
		c-2.07,0.64-4.19,0.63-6.22-0.13c-1.96-0.74-2.31-1.9-1.49-4.15c0.12-0.33,0.27-0.66,0.45-1.1c-1.57,0.19-3.08,0.27-4.53,0.59
		c-0.76,0.17-1.69-0.26-2.26,0.41c-0.5,0.6-0.25,1.47-0.38,2.21c-0.23,1.33-0.24,2.67-0.19,4.01c0.04,1.38-0.46,2.46-1.71,3.31
		c-2.29,1.56-4.72,1.73-7.31,1.21c-1.03-0.21-1.81-0.65-2.3-1.68c-0.4-0.84-0.96-1.64-1.75-2.22c-0.41-0.3-0.53-0.75-0.6-1.25
		c-0.13-1.01-0.78-1.82-1.2-2.71c-0.2-0.43-0.62-0.32-0.96-0.24c-2.63,0.67-5.31,0.47-7.97,0.33c-0.64-0.03-0.68,0.17-0.64,0.62
		c0.19,2.25-0.48,4.43-0.52,6.66c-0.02,1.39-1.23,2.36-2.62,2.43c-2.48,0.12-4.79-0.41-7.06-1.45c-1.63-0.74-2.69-1.92-3.18-3.5
		c-0.71-2.25-2.17-4.06-3.24-6.09c-2.19-4.12-4.48-8.18-7.57-11.73c-0.26-0.3-0.47-0.63-0.89-0.76c-4.36-1.44-6.35-4.93-7.78-8.93
		c-1.36-3.81-1.39-7.75-1.19-11.7c0.1-1.92,0.73-3.75,1.62-5.46c0.3-0.59,0.23-0.89-0.36-1.22c-1.67-0.93-3.25-2.02-4.99-2.82
		c-1.36-0.63-2.76-0.89-4.29-0.64c-1.09,0.18-2.24,0.13-3.35,0.03c-1.26-0.11-1.93-1.27-1.44-2.46c1.1-2.68,2.76-4.87,5.35-6.35
		c1.76-1,3.33-2.35,5.31-2.93c3.93-1.17,7.78-1.33,11.31,1.19c0.4,0.29,0.65,0.14,0.96-0.02c4.28-2.18,8.94-3.02,13.61-3.8
		c2.37-0.4,4.75-0.58,7.14-0.45c4.74,0.24,9.49,0.5,13.71,3.08c0.59,0.36,1.06,0,1.59-0.13c4.02-0.99,8-1.39,11.87,0.61
		c1.67,0.86,2.88,2.12,3.62,3.82c0.44,1.02,1.15,1.91,1.39,3.02c0.14,0.67,0.72,0.76,1.28,0.88c5.02,1.08,9.63,3.06,13.72,6.19
		c0.73,0.56,1.01-0.02,1.37-0.38c1.68-1.7,3.65-2.66,6.11-2.47c2.67,0.2,4.76,1.44,6.41,3.47c0.48,0.59,0.83,1.15,1.74,1.22
		c0.82,0.06,1.61,0.45,2.29,0.96c1.37,1.01,1.51,2.22,0.36,3.45c-0.52,0.56-1.17,0.64-1.85,0.27
		C114.61,31.48,114.3,31.07,113.74,31.07z"/>
	<path class="st2" d="M95.1,62.66c-0.16,0.39-0.31,0.77-0.47,1.16c-0.18,0.27-0.45,0.28-0.74,0.26c-0.98-0.29-2.04,0.12-3-0.31
		c-0.49-0.62-0.11-1.23,0.06-1.81c0.37-1.32,0.68-2.63,0.1-3.97c-0.05-0.46,0.09-0.88,0.26-1.3c1.17-1.82,1.63-3.81,1.65-5.98
		c0.02-2.79-1.22-4.89-3.2-6.69c-1.98-1.81-4.22-3.3-6.25-5.04c-1.88-1.61-3.63-3.36-5.35-5.14c-0.83-0.86-1.65-1.85-2.73-2.31
		c-1.58-0.68-2.39-1.74-2.59-3.37c-0.15-0.41-0.33-0.82-0.09-1.26c0.71-0.66,1.52-0.53,2.37-0.35c2.5,0.55,4.2,2.21,5.71,4.12
		c1.83,2.32,3.58,4.7,5.96,6.53c1.49,1.15,3,2.25,4.55,3.31c1.91,1.32,3.75,2.73,5.21,4.56c1.21,1.51,1.86,3.23,1.82,5.2
		c-0.09,3.73-0.9,7.28-2.55,10.63C95.52,61.46,95.2,62.01,95.1,62.66z"/>
	<path class="st3" d="M95.1,62.66c-0.09-1.37,0.76-2.46,1.22-3.64c1.23-3.13,1.8-6.35,1.69-9.68c-0.07-2.18-1.3-3.9-2.83-5.35
		c-2.4-2.28-5.23-3.99-7.89-5.93c-2.68-1.97-4.75-4.56-6.73-7.21c-1.46-1.96-3.23-3.5-5.69-4.09c-0.69-0.17-1.34-0.03-1.99,0.17
		c-0.47-0.26-0.55-0.73-0.62-1.19c-0.07-0.52,0.21-0.84,0.65-1.02c2.1-0.87,4.21-1.73,6.54-1.71c0.47,0,0.97-0.06,1.33,0.36
		c-0.67,0.96-1.73,0.88-2.71,0.98c-0.22,0.02-0.47-0.05-0.86-0.06c2.17,0.13,3.39,1.32,4.31,3c1.17,2.13,2.29,4.29,3.87,6.18
		c1.9,2.27,4.24,3.99,6.74,5.5c2.53,1.53,5.08,3.01,7.77,4.24c0.98,0.45,1.08,1.41,1.36,2.27c0.01,0.3,0.06,0.6-0.06,0.88
		c-0.39,1.67-0.7,3.36-1.21,5.02C98.79,55.32,97.18,59.09,95.1,62.66z"/>
	<path class="st4" d="M12.36,17.55c0.23-0.24,0.47-0.49,0.7-0.73c0.41-0.59,0.71-1.33,1.63-1.28c0.46,0.13,0.93,0.24,1.36,0.45
		c3.9,1.94,7.76,1.58,11.6-0.2c0.22-0.1,0.43-0.21,0.66-0.27c0.74-0.01,1.36-0.3,2-0.68c2.08-1.27,4.23-2.41,6.7-2.75
		c1.87-0.01,3.11,0.93,4.32,2.33c1.78,2.05,3.99,3.66,6.56,4.68c0.19,0.07,0.37,0.14,0.56,0.22c1.67,0.69,1.74,0.87,0.79,2.39
		c-0.17,0.31-0.37,0.59-0.66,0.81c-0.18,0.11-0.36,0.14-0.56,0.03c-2.74-1.53-5.66-2.72-8.23-4.57c-2.27-1.63-4.67-1.55-7.1-0.31
		c-1.81,0.93-3.66,1.76-5.57,2.46c-0.41,0.15-0.81,0.34-1.27,0.28c-3.89-1.53-7.91-2.39-12.12-2.31
		C13.24,18.13,12.56,18.36,12.36,17.55z"/>
	<path class="st5" d="M99.28,27.42c1.12-0.96,1.97-2.22,3.34-2.89c0.87-0.18,1,0.2,0.69,0.91c-1.08,0.77-2.09,1.61-2.87,2.69
		c-0.59,1.09-0.57,2.16-0.07,3.3c0.46,1.06,0.65,2.22,0.63,3.4c0.02,0.75-0.34,1.1-1.07,1.34c-5.07,1.63-10.69-1.44-12.03-6.62
		c-0.12-0.47-0.35-0.89-0.5-1.34c-0.26-0.75-0.04-1.42,0.73-1.64c1.5-0.43,2.73-1.46,4.22-1.89c0.5-0.21,0.93,0.01,1.35,0.24
		c1.23,0.71,2.5,1.38,3.56,2.36C97.92,27.91,98.55,28.07,99.28,27.42z"/>
	<path class="st6" d="M41.65,69.17c-2.1-3.06-3.64-6.44-5.51-9.63c-1.48-2.52-3.42-4.68-5.07-7.06c-0.17-0.24-0.44-0.32-0.71-0.4
		c-3.47-1.04-5.42-3.56-6.73-6.78c-1.6-3.93-1.9-8.03-1.65-12.2c0.13-2.08,0.8-4.06,1.78-5.89c0.53-0.99,0.25-1.55-0.58-2.07
		c-1.02-0.63-2-1.31-3.04-1.89c-0.79-0.43-1.28-1.03-1.53-1.87c1.35-0.04,2.18,0.99,3.22,1.57c0.7,0.39,1.34,0.81,2.19,0.78
		c0.69-0.03,1.31-0.11,1.91-0.51c0.47-0.31,0.99-0.72,1.62-0.31c0.05,0.12,0.07,0.24,0.05,0.37c-0.05,0.19-0.13,0.35-0.24,0.51
		c-0.65,1.19-1.49,2.26-2.13,3.47c-2.17,4.13-2.4,8.48-1.57,12.95c0.37,2,0.95,3.96,1.84,5.82c0.68,1.42,1.69,2.52,2.97,3.38
		c3.27,2.22,6.91,3.46,10.81,4.01c0.71,0.1,1.41,0.31,2.13,0.31c0.41,0.22,1.23-0.03,1.04,0.89c-1.75,0.47-3.48,0.08-5.21-0.19
		c-1.38-0.22-2.73-0.56-4.04-1.03c2.08,2.4,3.76,5.05,5.29,7.81c1.18,2.13,2.41,4.23,3.46,6.42c0.34,0.71,0.84,0.98,1.61,0.97
		c0.52,0,1.14-0.19,1.52,0.41c-0.03,0.14-0.11,0.24-0.24,0.31C43.75,69.57,42.68,69.7,41.65,69.17z"/>
	<path class="st7" d="M80.78,23.55c-2.91-0.65-5.46,0.52-8.04,1.56c-0.29,0.12-0.2,0.39-0.2,0.62c-0.27,0.32-0.57,0.62-0.97,0.77
		c-0.3-0.38-0.72-0.47-1.18-0.44c-0.26-0.16-0.47-0.36-0.5-0.69c0.13-0.42,0.47-0.65,0.82-0.82c1.69-0.8,3.37-1.62,5.04-2.03
		c-2.36-0.31-4.7,0.29-6.9,1.52c-0.41,0.23-0.92,0.39-1.17-0.28c0.13-0.78,0.77-1.07,1.35-1.41c2.71-1.63,5.68-1.37,8.64-1.15
		c0.79,0.06,1.59,0.22,2.35,0.48c0.62,0.21,0.85,0.01,0.91-0.65c0.31-3.5-2.24-7.09-5.67-7.91c-0.43-0.1-0.86-0.19-1.27-0.35
		c-0.37-0.17-0.77-0.16-1.17-0.18c-0.43-0.02-1,0.09-1.15-0.4c-0.14-0.44,0.44-0.59,0.7-0.87c2.84-0.07,5.52,0.45,7.41,2.77
		c1.2,1.47,2.08,3.2,2.58,5.05c0.19,0.7,0.51,0.94,1.19,1.07c3.29,0.61,6.48,1.53,9.46,3.1c0.17,0.28-0.36,0.42-0.09,0.81
		c0.37,0.55-0.23,0.46-0.52,0.55c-2.02-0.48-3.84-1.49-5.83-2.05c-0.85-0.35-1.75-0.55-2.65-0.75c-0.45-0.1-0.75-0.01-0.83,0.55
		C82.87,23.97,82.29,24.23,80.78,23.55z"/>
	<path class="st8" d="M14.54,15.7c-0.63,0.19-0.92,0.83-1.48,1.12c-0.09-0.48-0.9-0.93,0.03-1.45c2.27-1.28,4.27-3.19,6.94-3.57
		c3.34-0.47,6.78-0.96,9.49,1.91c0.17,0.18,0.33,0.5,0.69,0.25c2.9-2.08,6.33-2.64,9.68-3.48c2.55-0.65,5.1-1.17,7.74-1.09
		c0.91,0.41,1.87-0.01,2.79,0.13c0.45,0.07,1.21-0.07,1.2,0.44c-0.01,0.63-0.77,0.44-1.24,0.48c-0.94,0.08-1.89-0.12-2.82,0.16
		c-0.9,0.34-1.87,0.35-2.8,0.54c-1.73,0.18-3.41,0.61-5.11,0.96c-0.85,0.18-1.7,0.29-2.56,0.21c-2.55,0.54-4.89,1.57-7.03,3.04
		c-0.48,0.33-0.96,0.79-1.57,0.22c-0.03-1.52-1.1-2.07-2.33-2.38c-3.06-0.78-5.98-0.43-8.74,1.13
		C16.49,14.84,15.65,15.56,14.54,15.7z"/>
	<path class="st9" d="M103.31,25.44c0.04-0.51-0.1-0.88-0.69-0.91c1.63-1.14,3.44-1.05,5.15-0.44c1.86,0.66,3.52,1.75,4.27,3.75
		c0.23,0.62,0.7,0.56,1.17,0.53c1.01-0.06,1.86,0.31,2.66,0.9c0.37,0.28,0.36,0.54,0.15,0.91c-0.28,0.47-0.52,0.14-0.77-0.01
		c-0.24-0.14-0.47-0.3-0.72-0.42c-1.35-0.61-2.02-0.25-2.23,1.18c-0.23,1.64-1.57,3.03-3.04,3.23c-1,0.13-1.51-0.26-1.59-1.27
		c-0.14-1.71,0.6-3.11,2.4-3.89c1.07-0.47,0.84-0.97,0.31-1.57C108.82,25.64,106.43,24.17,103.31,25.44z"/>
	<path class="st10" d="M47.4,10.31c1.32-0.48,2.73,0.01,4.07-0.44c-0.9,0-1.81,0-2.71,0c-0.45,0-0.89,0.02-1.11-0.48
		c5.49-0.29,10.98-0.4,16.03,2.2c1.33,0.69,2.43,0.81,3.77,0.38c1.59-0.51,3.25-0.68,4.92-0.66c0.02,0.39-0.26,0.61-0.58,0.85
		c0.82,0.29,1.6-0.16,2.27,0.32c-0.92,0.68-1.98,0.3-2.98,0.37c-1.24,0.07-2.45,0.28-3.67,0.52c-1.1,0.22-1.53,0.87-1.52,1.94
		c0.01,0.44,0.08,0.88,0.03,1.31c-0.03,0.27-0.06,0.61-0.38,0.67c-0.3,0.06-0.53-0.15-0.68-0.4c-0.42-0.71-0.55-1.51-0.48-2.31
		c0.08-0.86-0.31-1.3-1.03-1.67c-2.9-1.48-6-2.14-9.23-2.22c-1.75-0.05-3.51,0-5.27-0.02C48.34,10.68,47.79,10.79,47.4,10.31z"/>
	<path class="st11" d="M66.84,69.4c-0.44-1.38-1.24-2.58-1.83-3.89c-0.19-0.41-0.46-0.41-0.88-0.31c-3.37,0.77-6.78,0.84-10.18,0.3
		c-0.74-0.12-0.8,0.11-0.8,0.69c0.01,1.71,0.1,3.42-0.24,5.12c-0.39-0.09-0.94,0.35-1.16-0.35c0.08-1.13,0.12-2.27,0.11-3.4
		c0.06-2.1,0.06-2.09-1.91-2.8c-1.13-0.41-2.26-0.79-3.36-1.28c-0.46-0.21-1.08-0.46-0.84-1.09c0.24-0.64,0.87-0.44,1.36-0.26
		c1.99,0.72,3.97,1.49,6.03,1.98c2.1,0.5,4.22,0.79,6.4,0.45c1.14-0.18,2.31,0.01,3.46-0.22c0.5-0.1,0.78-0.18,0.66-0.82
		c-0.17-0.88,0.38-0.81,0.93-0.53c0.6,0.3,0.92,0.86,1.21,1.44c0.78,1.53,1.44,3.12,2.53,4.47C68.03,69.66,67.44,69.52,66.84,69.4z"
		/>
	<path class="st12" d="M91.61,56.66c-0.11,0.39-0.21,0.79-0.32,1.18c-0.14,1.76-1.37,3.08-1.87,4.7c-0.13,0.41-0.34,0.8-0.53,1.19
		c-0.07,0.11-0.16,0.2-0.27,0.27c-0.33,0.13-0.63,0.12-0.9-0.14c0.41-1.02,0.82-2.05,1.27-3.2c-3.14,1.3-6.3,1.69-9.5,1.74
		c-0.98,0.02-1.33,0.35-1.39,1.31c-0.09,1.5-0.31,3-0.48,4.49c-0.46,0.24-0.8,0.04-1.08-0.32c-0.11-0.22-0.16-0.46-0.13-0.7
		c0.55-3.91,0.93-7.85,2.17-11.63c0.14-0.42,0.26-0.84,0.53-1.2c0.19-0.26,0.42-0.52,0.79-0.39c0.39,0.13,0.37,0.49,0.34,0.81
		c-0.1,1-0.4,1.95-0.63,2.92c-0.08,0.35-0.15,0.7-0.22,1.05c-0.14,0.58-0.22,1.18-0.33,1.76c-0.12,0.66,0.19,0.9,0.79,0.84
		c2.78-0.29,5.56-0.58,8.24-1.43c1.19-0.37,1.75-1.31,2.22-2.35c0.18-0.43,0.36-0.86,0.64-1.24c0.14-0.2,0.29-0.54,0.62-0.32
		C91.77,56.16,91.67,56.44,91.61,56.66z"/>
	<path class="st13" d="M51.98,71.31c0.31-0.54,0.62-0.18,0.93,0.01c0.13,1.16-0.39,2.24-0.42,3.38c-0.01,0.47-0.43,0.66-0.95,0.71
		c-2.66,0.22-5.12-0.42-7.38-1.77c-1.17-0.69-1.57-1.97-2.01-3.15c-0.16-0.44-0.32-0.89-0.51-1.32c1.13-0.01,2.27-0.02,3.4-0.04
		c0.22-0.22,0.51-0.27,0.77-0.18C47.9,69.68,50.06,70.18,51.98,71.31z"/>
	<path class="st14" d="M27.5,23.08c-0.44-0.21-0.87,0-1.17,0.22c-1.66,1.2-3.2,0.93-4.78-0.18c-0.93-0.65-1.96-1.16-2.95-1.73
		c-0.52-0.56-1.34-0.6-2.1-1.14c3.31-0.2,6.39-0.04,9.36,1.07c0.27,0.1,0.53,0.42,0.86,0.13c0.05-0.03,0.1-0.07,0.15-0.1
		C27.79,22.03,27.93,22.42,27.5,23.08z"/>
	<path class="st15" d="M76.66,67.95c0.32,0.09,0.64,0.18,0.96,0.26c0.01,0.93-0.41,1.85-0.02,2.81c0.16,0.39-0.16,0.85-0.51,1.14
		c-1.85,1.51-3.98,1.83-6.28,1.47c-0.94-0.15-1.6-0.47-2.09-1.43c-0.43-0.83-0.91-1.78-1.86-2.27c-0.22-0.11-0.06-0.35,0-0.54
		c0.4-0.39,1.05-0.05,1.44-0.48c1.02-0.83,2.31-0.69,3.48-0.99C73.4,67.83,75.03,67.71,76.66,67.95z"/>
	<path class="st16" d="M100.7,34.77c0.02-1.29-0.25-2.57-0.8-3.7c-0.6-1.22-0.35-2.09,0.53-2.95c0.57,1.64,1.39,3.18,1.78,4.9
		c0.57,2.53,0.32,5.08,0.36,7.62c0,0.22-0.08,0.52-0.23,0.66c-1.25,1.17-0.89,2.69-0.94,4.12c-0.01,0.31,0.07,0.65-0.2,0.91
		c-0.02-0.32-0.04-0.64-0.05-0.95c-0.49-1.39-0.36-2.83-0.35-4.25c0-1.19,0.15-2.38-0.12-3.56
		C100.29,36.64,101.03,35.71,100.7,34.77z"/>
	<path class="st17" d="M12.36,17.55c0.19,0.28,0.48,0.25,0.76,0.24c4.49-0.16,8.78,0.68,12.91,2.41c0.39,0.29,1.04,0.42,0.76,1.15
		c0,0-0.07,0.09-0.07,0.09c-1.88-1.33-3.98-1.88-6.27-2.01c-3.41-0.19-6.81-0.27-10.31,0.87C10.69,18.99,11.48,18.24,12.36,17.55z"
		/>
	<path class="st18" d="M87.72,63.87c0.32-0.01,0.65-0.02,0.97-0.03c0.33-0.28,0.75-0.37,1.13-0.28c1.37,0.35,2.78,0.06,4.15,0.29
		c0.22-0.01,0.44-0.02,0.67-0.03c0.16,0.32,0.43,0.22,0.71,0.24c0.66,0.05,0.91,0.52,0.55,1.05c-1.56,2.3-5.68,3.2-8.22,1.88
		c-0.54-0.28-0.77-0.57-0.57-1.22C87.31,65.14,87.33,64.45,87.72,63.87z"/>
	<path class="st19" d="M92.54,24.51c0.21-0.02,0.47-0.12,0.21-0.33c-0.68-0.55,0.04-0.62,0.25-0.86c2.25,1.13,4.29,2.58,6.28,4.1
		c-0.48,1.18-1.06,1.06-1.94,0.3c-1.44-1.24-3.05-2.25-4.78-3.06c-0.09-0.02-0.12-0.05-0.1-0.09
		C92.49,24.53,92.51,24.51,92.54,24.51z"/>
	<path class="st20" d="M76.66,67.95c-1.64,0.41-3.32,0.1-4.98,0.28c-0.75,0.25-1.21-0.02-1.5-0.74c-0.48-1.2-1.3-2.19-1.96-3.28
		c-1.06-1.76-2.66-2.26-4.54-2.41c-6.24-0.51-12.33-1.77-18.16-4.09c-1.31-0.52-2.47-1.3-3.68-2.01c-0.33-0.2-0.82-0.42-0.67-0.87
		c0.13-0.39,0.65-0.12,0.98-0.2c0.07-0.02,0.14-0.06,0.2-0.12c-0.17-0.44-0.65-0.3-0.95-0.49c-3.1-1.37-6.27-2.59-9.21-4.29
		c-2.22-1.28-4.17-2.95-5.6-5.14c-0.04-0.07-0.11-0.12-0.14-0.2c-1.58-3.57-3.02-7.08-2.61-11.22c0.29-2.97,1.64-5.38,2.72-7.97
		c0.23-0.54,0.46-1.09,0.68-1.64c0.07-0.1,0.14-0.2,0.21-0.29c0.64,0.31,0.95-0.53,1.53-0.44c0.37,0.52,0.5,1.15,0.77,1.71
		c-0.06,2.52,1.09,3.56,3.47,3.13c1.63-0.33,2.58-2.18,1.93-3.98c-0.12-0.34-0.3-0.65-0.41-0.99c-0.32-1.25-0.08-1.6,1.2-1.6
		c1.76,0,3.32,0.74,4.87,1.47c1.8,0.85,3.6,1.69,5.49,2.31c0.81,0.27,1.61,0.39,2.45,0.17c0.68,0.16,0.96,0.8,1.42,1.22
		c1.03,0.93,2.14,1.36,3.48,0.7c0.89,0.03,1.47-0.68,2.24-0.94c2.01-0.21,3.93,0.43,5.89,0.67c2.24,0.27,4.46,0.71,6.7,1.02
		c0.47,0.07,0.95,0.09,1.42,0.05c0.9,0.38,0.85,1.29,0.79,1.94c-0.39,3.98-0.23,8.09-2.47,11.68c-1.43,2.3-2.92,4.56-4.95,6.43
		c2.86-0.17,6.14-2.73,7.69-5.4c2.52-3.8,2.01-8.06,1.91-12.26c-0.02-0.7-0.33-1.42,0.23-2.05c0.24,1.67,1.37,2.43,2.75,3.29
		c1.82,1.14,3.21,2.91,4.74,4.45c1.98,2,4.17,3.77,6.42,5.49c2.01,1.53,4.11,3.01,5.34,5.35c1.07,2.05,1.07,4.18,0.72,6.39
		c-0.21,1.32-0.62,2.52-1.44,3.57c-0.02-0.15-0.05-0.3-0.1-0.67c-0.36,0.65-0.63,1.14-0.9,1.64c-3.45,0.6-6.84,1.57-10.4,1.45
		c-0.4-0.01-0.8,0.07-1.12-0.25c0.31-1.57,0.62-3.14,0.97-4.95c-0.77,0.41-0.87,0.93-1.03,1.39c-1.01,2.88-1.44,5.88-1.86,8.89
		C76.99,65.42,76.83,66.69,76.66,67.95z"/>
	<path class="st21" d="M73.09,28.11c0.14,2.75,0.22,5.49,0.12,8.25c-0.08,2.39-0.86,4.43-2.05,6.39c-0.67-0.17-0.43-0.71-0.35-1.07
		c0.85-3.77,0.7-7.59,0.7-11.4c0-0.84,0-1.67-0.13-2.5c-0.07-0.47-0.14-0.96,0.25-1.35c0.06-0.54,0.48-0.64,0.91-0.72
		c0.11,0.4,0.23,0.79,0.34,1.19C72.95,27.31,73.02,27.71,73.09,28.11z"/>
	<path class="st22" d="M88.72,63.57c0.64-2,1.71-3.82,2.57-5.73c1.11,2.03-0.1,3.87-0.45,5.78C90.12,63.8,89.41,63.88,88.72,63.57z"
		/>
	<path class="st1" d="M88.72,63.57c0.71,0.02,1.41,0.03,2.12,0.05c1.04,0.16,2.11-0.11,3.14,0.23c-1.76,0-3.52-0.01-5.28-0.01
		C88.7,63.75,88.71,63.66,88.72,63.57z"/>
	<path class="st23" d="M100.95,37.4c0.28,2.66,0.25,5.32,0.2,7.99c-0.65-2.3-2.91-2.62-4.58-3.55c-3.48-1.94-6.96-3.87-9.92-6.55
		c-1.75-1.58-3.04-3.56-4.16-5.63c-0.49-0.91-0.96-1.84-1.49-2.72c-0.89-1.48-2.14-2.44-3.96-2.42c-0.23,0-0.49,0.02-0.71-0.45
		c1.59,0.21,3.01-0.21,4.45-0.51c0.24,0.01,0.47,0.01,0.71,0.03c0.98,0.09,1.63-0.09,1.24-1.32c-0.24-0.75,0.12-1.02,0.86-0.81
		c1.05,0.31,2.17,0.41,3.17,0.91c0.54,0.73,0.33,1.28-0.44,1.63c-1.85,0.84-2.12,2.51-1.74,4.24c0.54,2.44,1.93,4.4,3.68,6.06
		c2.1,1.99,4.55,3.51,7.24,4.6c1.11,0.45,2.28,0.74,3.5,0.69c0.52-0.02,1.04,0.01,1.49,0.4C100.83,39.09,100.28,38.14,100.95,37.4z"
		/>
	<path class="st24" d="M70.91,12.54c1.04-0.02,2.08-0.04,3.12-0.05c0.61,0.14,1.23,0.27,1.84,0.43c3.29,0.89,4.99,3.98,5.34,7.23
		c0.23,2.15,0.15,2.09-1.87,1.69c-3.44-0.68-6.88-0.99-10.15,0.75c-0.56,0.3-1.15,0.57-1.44,1.2c-0.05,0.23-0.18,0.35-0.41,0.38
		c-3.08-0.37-6.17-0.63-9.24-1.08c-0.65-0.09-1.26-0.1-1.88,0.11c-0.63,0.05-0.86-0.49-1.21-0.84c-1.87-1.87-3.06-2.06-5.34-0.81
		c-0.2,0.11-0.41,0.27-0.65,0.08c0.76-1.48,0.76-1.47-0.93-2.13c-3.03-1.18-5.6-3.02-7.58-5.59c-0.91-1.19-2.17-1.31-3.43-1.59
		c2.55-0.5,5.07-1.19,7.67-1.44c0.3,0.23,0.47,0.54,0.57,0.89c0.79,2.72,2.8,4.16,5.29,5.12c3.02,1.17,6.22,1.43,9.39,1.74
		c2.01,0.2,4.04,0.37,6.08,0.06c1.07-0.16,2.13-0.31,3.11-0.79c1.56-0.76,2.06-1.8,1.77-3.52C70.88,13.78,70.47,13.17,70.91,12.54z"
		/>
	<path class="st25" d="M48.86,25.23c-1.33,0.75-2.53,0.03-3.69-0.42c-2.1-0.82-4.14-1.81-6.22-2.71c-0.99-0.42-2.01-0.69-3.11-0.72
		c-0.98-0.03-1.25,0.32-0.89,1.21c-0.14,0.1-0.3,0.1-0.44,0.01c-1.94-1.36-3.81-1.2-5.62,0.24c-0.54,0.85-0.83,0.94-1.44,0.44
		c-0.01-0.07,0.01-0.13,0.05-0.19c0.21-0.76-0.33-1.21-0.72-1.73c-0.04-0.52-0.57-0.72-0.76-1.15c2.74-0.85,5.24-2.26,7.88-3.34
		c1.58-0.64,3.16-0.6,4.7,0.15c2.35,1.15,4.38,2.87,6.82,3.89c1.05,0.44,2.07,0.96,3.1,1.45c0.33,0.15,0.39,0.46,0.45,0.77
		C48.83,23.81,49.34,24.55,48.86,25.23z"/>
	<path class="st26" d="M14.54,15.7c3.35-2.37,6.92-3.92,11.15-2.98c0.74,0.16,1.46,0.41,2.1,0.81c0.78,0.48,1.38,1.05,0.69,2.04
		c-1.43,1.18-3.2,1.67-4.93,1.9c-2.48,0.34-5.02,0.27-7.3-1.02C15.7,16.13,15,16.22,14.54,15.7z"/>
	<path class="st27" d="M48.85,23.13c-0.41-0.14-0.29-0.49-0.32-0.78c0.02-0.35,0.34-0.48,0.5-0.73c2.48-2.29,5.24-1.27,7.01,1.45
		c0.96,1.12,0.04,2.06-0.29,3.06c-0.43,0.92-1.18,1.18-2.12,1.04c-0.99,0.35-1.42-0.31-1.66-1.05c-0.51-1.53-0.57-3.03,0.71-4.41
		c-0.9-0.28-1.5,0.07-2.11,0.44C50,22.5,49.6,23.12,48.85,23.13z"/>
	<path class="st28" d="M100.95,37.4c0,1.07,0,2.14,0,3.21c-0.63-0.74-1.38-0.76-2.19-0.75c-2.45,0.03-4.51-1.09-6.55-2.29
		c-3.1-1.83-5.79-4.05-7.32-7.42c-0.48-1.06-0.79-2.15-0.78-3.34c0.01-1.37,0.55-2.42,1.83-2.94c0.77-0.31,1.05-0.74,0.82-1.52
		c1.93,0.72,3.85,1.44,5.78,2.16c0.01,0.05,0.02,0.1,0.02,0.15c-0.2,0.5-0.64,0.7-1.12,0.79c-0.77,0.14-1.43,0.48-1.97,1.03
		c-0.3,0.3-0.58,0.4-1.05,0.34c-0.85-0.11-1.1,0.71-0.81,1.15c0.78,1.19,0.72,2.64,1.55,3.83c1.9,2.72,4.46,4.2,7.68,4.71
		c1.31,0.21,2.36-0.63,3.57-0.81c0.44-0.07,0.21-0.62,0.31-0.94C101.05,35.62,100.91,36.52,100.95,37.4z"/>
	<path class="st29" d="M94.28,32.43c-1.92,0-3.73-1.82-3.67-3.59c0.01-0.41,0.22-0.69,0.55-0.86c1.46-0.77,3.46,0.15,3.79,1.72
		c0.1,0.5,0.43,0.92,0.46,1.47C95.45,32.08,95.18,32.57,94.28,32.43z"/>
	<path class="st30" d="M42.35,54.51c-0.23,0.4-0.75,0.1-1.1,0.41c3.11,2.19,6.52,3.51,10.13,4.4c4.2,1.03,8.41,2.03,12.75,2.16
		c3.05,0.09,4.29,2.36,5.66,4.5c0.3,0.47,0.58,0.97,0.73,1.5c0.18,0.65,0.61,0.75,1.15,0.76c-1.13,0.23-2.26,0.46-3.4,0.69
		c-0.75-0.06-0.91-0.73-1.18-1.22c-0.63-1.16-1.22-2.34-1.79-3.52c-0.3-0.62-0.8-0.94-1.41-1.22c-0.25,0.64,0.44,0.98,0.35,1.5
		c-5.67,1.08-11.16,0.58-16.48-1.72c-0.57-0.25-1.58-0.91-1.79-0.29c-0.28,0.84,0.96,0.79,1.53,1.05c1.19,0.54,2.45,0.98,3.71,1.34
		c0.95,0.27,1.37,0.67,1.02,1.68c-0.1,0.29-0.04,0.63-0.06,0.95c-0.34,0.28-0.69,0.11-1.02-0.02c-2.91-1.12-5.83-2.23-8.39-4.07
		c-0.49-0.35-0.97-0.7-1.31-1.21c1.21,1.86,2.36,3.76,3.35,5.75c0.15,0.31,0.39,0.63,0.16,1.01c-2.1,0.44-3.12-0.56-4.03-2.42
		c-2.05-4.18-4.26-8.3-7.2-11.96c-0.42-0.52-0.87-1.03-1.48-1.74C35.69,53.95,38.96,54.66,42.35,54.51z"/>
	<path class="st30" d="M27.25,23.56c0.09,1.45-0.71,2.65-1.36,3.76c-1.86,3.18-1.75,6.62-1.76,10.08c0,0.04-0.01,0.08,0.01,0.12
		c1.26,2.84,1.56,6.17,3.89,8.47c2.27,2.24,4.79,4.16,7.9,5.22c1.95,0.66,3.74,1.69,5.48,2.8c-4.92-0.43-9.55-1.76-13.62-4.66
		c-1.89-1.34-2.76-3.34-3.48-5.46c-1.53-4.49-1.89-9.04-0.65-13.64C24.32,27.77,25.68,25.6,27.25,23.56z"/>
	<path class="st20" d="M44.98,68.95c-1.17-2.62-2.73-5.02-4.2-7.52c3.25,3.08,7.3,4.62,11.41,6.05c0.07,1.28-0.01,2.56-0.2,3.83
		c-1.57-0.32-3.02-0.98-4.52-1.5c-0.79-0.27-1.56-0.62-2.41-0.68C45.03,69.07,45.01,69.01,44.98,68.95z"/>
	<path class="st31" d="M71.63,26.45c0.34,2.54,0.25,5.09,0.27,7.64c0.02,2.72-0.22,5.4-0.83,8.06c-0.05,0.23-0.2,0.45,0.09,0.62
		c-1.73,2.94-6.19,5.92-8.74,5.38c2.61-2.2,4.5-4.93,6.03-7.9c0.99-1.93,1.55-3.98,1.53-6.19c-0.01-0.98,0.12-1.99,0.33-2.95
		c0.24-1.14,0.09-2.18-0.35-3.22c-0.43-0.29-0.52-0.75-0.58-1.22c0.17-0.55,0.58-0.69,1.1-0.66C70.99,25.8,71.43,25.83,71.63,26.45z
		"/>
	<path class="st32" d="M67.53,24.01c0.07-0.08,0.15-0.15,0.22-0.23c0.55,0.61,0.93,0.01,1.33-0.21c2.25-1.18,4.58-1.84,7.35-1.11
		c-2.31,1.04-4.62,1.57-6.5,2.99c-0.22,0.59-0.7,0.81-1.27,0.93C67.3,25.79,66.9,24.93,67.53,24.01z"/>
	<path class="st21" d="M68.8,26.21c0.38-0.25,0.75-0.5,1.13-0.75c0.26,0.1,0.43,0.29,0.54,0.54c-0.34,0.22-0.67,0.44-1.01,0.66
		c-0.31,0.28-0.65,0.32-0.91-0.02C68.4,26.44,68.61,26.3,68.8,26.21z"/>
	<path class="st33" d="M70.91,12.54c0.16,0.86,0.36,1.71,0.48,2.57c0.17,1.26-0.45,2.16-1.47,2.79c-1.14,0.7-2.41,0.96-3.74,1.11
		c-4.08,0.48-8.09-0.16-12.06-0.81c-2.72-0.44-5.43-1.27-7.48-3.42c-1.07-1.12-1.54-2.47-1.88-3.91c0.88-0.19,1.76-0.38,2.63-0.56
		c3.19-0.01,6.39-0.1,9.57,0.27c2.65,0.31,5.09,1.27,7.46,2.47c0.49,0.25,0.35,0.6,0.35,1c-0.01,1.07-0.26,2.21,0.79,3.28
		c0-1.16,0.01-2.1,0-3.04c-0.01-0.49,0.14-0.71,0.67-0.9C67.75,12.84,69.31,12.62,70.91,12.54z"/>
	<path class="st34" d="M110.92,29.83c0.36,1.34-0.08,2.22-1.12,2.84c-0.23,0.14-0.48,0.37-0.76,0.21c-0.34-0.19-0.22-0.58-0.18-0.86
		C109.04,30.86,109.86,30.3,110.92,29.83z"/>
	<path class="st30" d="M79.08,58.83c3.19-0.33,6.46-0.09,9.54-1.29c0.65-0.25,1.33-0.24,1.98,0.09c-0.4,1.34-1.19,2.25-2.59,2.67
		c-2.8,0.84-5.69,1.08-8.56,1.44c-0.69,0.09-0.99-0.13-0.83-0.83C78.77,60.22,78.93,59.53,79.08,58.83z"/>
	<path class="st35" d="M46.2,70.58c1.61,0.56,3.23,1.12,4.84,1.67c0.4,0.13,0.98,0.07,0.76,0.76c-0.18,0.59-0.02,1.42-1.06,1.44
		c-1.41,0.03-2.77-0.12-4.06-0.73c-0.44-0.8-0.48-1.74-0.83-2.57C45.76,70.9,45.76,70.55,46.2,70.58z"/>
	<path class="st36" d="M46.2,70.58c-0.26,0.18-0.2,0.41-0.06,0.62c0.5,0.77,0.6,1.62,0.54,2.51c-1.74-0.67-3.34-1.48-3.73-3.63
		C44.04,70.15,45.17,69.97,46.2,70.58z"/>
	<path class="st37" d="M71.64,69.4c1.48-0.49,3-0.14,4.5-0.23c0.43-0.03,0.33,0.29,0.34,0.58c0.04,1.87-0.31,2.33-2.43,3.03
		c-2.11,0.3-2.11,0.3-2.41-1.72C71.56,70.5,71.39,69.94,71.64,69.4z"/>
	<path class="st38" d="M71.64,69.4c0.16,0.72,0.53,1.48,0.42,2.16c-0.21,1.35,0.53,1.27,1.39,1.2c0.2-0.02,0.39,0,0.59,0.01
		c-1.44,0.59-2.88,0.2-4.13-0.39c-0.66-0.31-0.99-1.36-1.42-2.11c-0.25-0.44,0.23-0.42,0.44-0.48
		C69.83,69.57,70.71,69.32,71.64,69.4z"/>
	<path class="st39" d="M90.61,66.51c-0.6,0-1.2,0.03-1.79-0.02c-0.39-0.04-0.85-0.16-0.83-0.68c0.02-0.53,0.19-1.16,0.79-1.16
		c1.81,0.01,3.63-0.31,5.42,0.18c-0.13,0.17-0.31,0.24-0.51,0.28C92.63,65.32,91.37,65.89,90.61,66.51z"/>
	<path class="st40" d="M90.61,66.51c0.38-2.31,2.19-1.56,3.6-1.68c0.95,0.32,0.2,0.65-0.05,0.83C93.11,66.46,91.9,66.66,90.61,66.51
		z"/>
	<path class="st41" d="M41.99,29.28c2.9,0.15,5.78,0.38,8.24,2.18c2.15,1.57,3.01,3.81,3.17,6.39c0.04,0.69-0.27,1.26-0.63,1.77
		c-1.7,2.34-3.66,4.21-6.76,4.65c-3.51,0.5-6.96,0.62-10.35-0.58c-2.74-0.97-4.32-3.17-4.33-5.91c-0.02-4.6,2.39-7.41,6.97-8.24
		C39.53,29.32,40.75,29.33,41.99,29.28z"/>
	<path class="st42" d="M68.8,26.21c-0.28,0.89,0.45,0.3,0.67,0.45c0.35,0.33,0.39,0.78,0.49,1.22c-0.06,0.51-0.36,0.35-0.69,0.3
		c-3.96-0.61-7.92-1.16-11.86-1.85c-0.56-0.1-1.19,0.5-1.65-0.18c-0.26-1.05,0.77-1.99,0.29-3.06c0.42-0.59,1.03-0.54,1.62-0.44
		c2.66,0.42,5.33,0.77,8.03,0.94c0.62,0.04,1.23,0.29,1.85,0.44C67.11,25.23,67.93,25.73,68.8,26.21z"/>
	<path class="st43" d="M28.89,22.83c0.66-1.76,3.91-1.89,5.41-0.76c0.22,0.17,0.43,0.34,0.65,0.51c1.01,1.73,0.95,3.08-0.09,4.48
		c-0.43,0.58-1.02,0.7-1.64,0.83c-1,0.17-1.35-0.44-1.46-1.26c-0.12-0.95-0.05-1.9,0.15-2.84c0.08-0.37,0.26-0.84-0.27-1.02
		c-0.54-0.18-1.01-0.02-1.32,0.51c-0.23,0.4-0.26,0.93-0.73,1.19C28.82,24.15,29.03,23.42,28.89,22.83z"/>
	<path class="st44" d="M48.85,23.13c0.78-0.67,1.55-1.37,2.55-1.74c0.66-0.24,1.23-0.22,1.78,0.24c-1.2,1.21-1.56,3.01-0.92,4.56
		c0.25,0.6,0.7,0.95,1.37,0.98c-1.06,0.64-2.23,0.56-3.25-0.31c-0.56-0.48-1.02-1.09-1.52-1.64C48.95,24.53,48.25,23.83,48.85,23.13
		z"/>
	<path class="st45" d="M29.59,24.47c0.56-2.1,0.78-2.29,2.29-2.21c0.58,0.03,0.78,0.14,0.57,0.77c-0.36,1.09-0.6,2.21-0.47,3.38
		c0.09,0.78,0.34,1.39,1.24,1.48c-1.17,0.63-2.19,0.03-3.04-0.6C29.27,26.61,29.27,25.52,29.59,24.47z"/>
	<path class="st46" d="M54.61,25.83c0.01,0.2-0.22,0.39-0.67,0.37c-0.49-0.02-0.91-0.24-0.92-0.74c-0.01-0.43,0.2-0.94,0.75-0.9
		C54.31,24.6,54.58,25.02,54.61,25.83z"/>
	<path class="st47" d="M54.56,22.57c0.36,0.06,0.55,0.23,0.52,0.56c-0.03,0.32-0.24,0.49-0.56,0.46c-0.32-0.03-0.5-0.23-0.48-0.55
		C54.07,22.71,54.3,22.58,54.56,22.57z"/>
	<path class="st48" d="M59.39,14.9c-0.99,0.14-1.82-0.11-2.47-0.89c-0.51-0.62-0.28-1.37,0.52-1.47c1.23-0.15,2.35,0.29,3.41,0.87
		c0.27,0.15,0.51,0.41,0.34,0.79c-0.15,0.34-0.31,0.67-0.73,0.7C60.1,14.92,59.74,14.9,59.39,14.9z"/>
	<path class="st49" d="M55.08,12.31c-0.15,0.54-0.55,0.74-1,0.61c-0.44-0.12-1.15-0.08-1.11-0.81c0.03-0.46,0.4-0.85,0.89-0.73
		C54.36,11.5,54.97,11.62,55.08,12.31z"/>
	<path class="st50" d="M46.67,36.77c0,0.56,0.06,1.12-0.02,1.67c-0.08,0.59-0.24,1.18-1.06,1.2c-0.75,0.02-1.19-0.26-1.34-1.03
		c-0.3-1.5-0.35-2.99-0.01-4.48c0.13-0.58,0.49-1.08,1.07-1.15c0.69-0.08,0.85,0.59,1.08,1.09C46.78,34.94,46.66,35.87,46.67,36.77z
		"/>
	<path class="st51" d="M35.87,36.36c0.15-0.88-0.32-2,0.48-2.95c0.63-0.74,1.43-0.73,1.75,0.16c0.57,1.61,0.68,3.27,0.04,4.89
		c-0.25,0.63-0.64,1.29-1.47,1.13c-0.8-0.16-0.81-0.87-0.8-1.52C35.87,37.54,35.87,37.02,35.87,36.36z"/>
	<path class="st52" d="M32.55,26.07c0.11-0.53,0.48-0.6,0.91-0.59c0.56,0.02,0.76,0.33,0.75,0.85c0,0.48-0.28,0.61-0.7,0.58
		C32.96,26.88,32.64,26.59,32.55,26.07z"/>
	<path class="st53" d="M35.22,24.05c0.01,0.34-0.08,0.65-0.48,0.64c-0.37-0.01-0.53-0.29-0.55-0.63c-0.02-0.31,0.13-0.54,0.45-0.57
		C35.01,23.45,35.19,23.69,35.22,24.05z"/>
</g>
</svg>
