<?xml version="1.0" encoding="utf-8"?>
<!-- Generator: Adobe Illustrator 23.0.2, SVG Export Plug-In . SVG Version: 6.00 Build 0)  -->
<svg version="1.1" id="Camada_1" xmlns="http://www.w3.org/2000/svg" xmlns:xlink="http://www.w3.org/1999/xlink" x="0px" y="0px"
	 viewBox="0 0 111.02 69.98" style="enable-background:new 0 0 111.02 69.98;" xml:space="preserve">
<style type="text/css">
	.st0{fill:#7F3D4B;}
	.st1{fill:#DDA8BD;}
	.st2{fill:#DFAEC7;}
	.st3{fill:#703137;}
	.st4{fill:#923B44;}
	.st5{fill:#EACCE0;}
	.st6{fill:#DCA6BB;}
	.st7{fill:#AC444F;}
	.st8{fill:#703037;}
	.st9{fill:#893940;}
	.st10{fill:#373030;}
	.st11{fill:#9D3E49;}
	.st12{fill:#983E47;}
	.st13{fill:#3E3536;}
	.st14{fill:#A9434E;}
	.st15{fill:#9D3F49;}
	.st16{fill:#E1B7D0;}
	.st17{fill:#9B3F49;}
	.st18{fill:#DBA2B4;}
	.st19{fill:#733238;}
	.st20{fill:#C97589;}
	.st21{fill:#C27385;}
	.st22{fill:#E2B8D3;}
	.st23{fill:#D99CAA;}
	.st24{fill:#C27083;}
	.st25{fill:#DDA7BC;}
	.st26{fill:#CD788E;}
	.st27{fill:#E5C0D8;}
	.st28{fill:#E7C5DC;}
	.st29{fill:#DDA9BF;}
	.st30{fill:#C27183;}
	.st31{fill:#E2B7D3;}
	.st32{fill:#D1809C;}
	.st33{fill:#FDFCFD;}
	.st34{fill:#803F4E;}
	.st35{fill:#E9CBDF;}
	.st36{fill:#ECD2E4;}
	.st37{fill:#E4BDD7;}
	.st38{fill:#D07F9A;}
	.st39{fill:#676162;}
	.st40{fill:#514949;}
	.st41{fill:#666362;}
	.st42{fill:#514948;}
	.st43{fill:#E1B3CE;}
	.st44{fill:#564D4E;}
	.st45{fill:#716D6E;}
	.st46{fill:#E9CBE0;}
	.st47{fill:#F5E9F1;}
	.st48{fill:#C1697D;}
	.st49{fill:#732620;}
	.st50{fill:#63221D;}
	.st51{fill:#FDFDFD;}
	.st52{fill:#FDFCFC;}
	.st53{fill:#FEFDFE;}
	.st54{fill:#953D50;}
	.st55{fill:#9C4A42;}
	.st56{fill:#F3ECEA;}
	.st57{fill:#924740;}
	.st58{fill:#D7C5C2;}
</style>
<g>
	<path class="st0" d="M106.78,23.83c-0.21,2.33-1.59,3.68-3.52,4.37c-2.92,1.04-4.16-0.93-3.97-3.16c0.12-1.48,0.71-2.86,2.07-3.73
		c0.61-0.39,0.59-0.65-0.06-1.09c-2.11-1.41-3.95-1.28-5.68,0.46c-0.4,0.41-0.46,0.7-0.22,1.23c1.98,4.32,1.89,8.89,1.53,13.49
		c-0.07,0.84-0.13,1.68-0.07,2.52c0.37,4.86-1.36,9.24-3.02,13.64c-0.96,2.54-2.43,4.83-3.67,7.22c-0.66,1.27-1.86,2.13-3.26,2.59
		c-2.11,0.69-4.25,0.68-6.33-0.05c-2.01-0.71-2.37-1.77-1.58-4.1c0.13-0.37,0.3-0.73,0.49-1.19c-1.59,0.2-3.13,0.32-4.63,0.63
		c-0.73,0.15-1.63-0.27-2.16,0.36c-0.5,0.59-0.25,1.47-0.39,2.21c-0.23,1.33-0.29,2.66-0.18,4c0.12,1.31-0.7,2.58-1.8,3.37
		c-2.27,1.64-4.73,1.68-7.3,1.19c-0.98-0.19-1.74-0.63-2.22-1.6c-0.44-0.87-0.98-1.72-1.82-2.31c-0.37-0.26-0.51-0.68-0.56-1.14
		c-0.12-1.06-0.79-1.89-1.21-2.82c-0.22-0.49-0.69-0.3-1.06-0.21c-2.79,0.69-5.6,0.37-8.53,0.34c0.26,2.34-0.4,4.67-0.48,7.05
		c-0.05,1.51-1.15,2.55-2.66,2.63c-2.66,0.15-5.1-0.52-7.48-1.66c-1.51-0.72-2.32-2-2.77-3.41c-0.74-2.32-2.3-4.15-3.39-6.26
		c-2.08-4.04-4.39-7.94-7.36-11.41c-0.29-0.33-0.53-0.67-0.99-0.82c-3.3-1.09-5.38-3.46-6.75-6.53c-2.35-5.29-2.82-10.8-1.7-16.46
		c0.22-1.1,0.67-2.13,1.17-3.12c0.26-0.51,0.3-0.81-0.29-1.13c-1.7-0.94-3.31-2.05-5.08-2.88c-1.36-0.63-2.75-0.88-4.28-0.64
		c-1.09,0.18-2.24,0.13-3.35,0.03C0.95,15.34,0.3,14.21,0.78,13c1.08-2.69,2.73-4.89,5.32-6.36c1.65-0.94,3.13-2.2,4.97-2.8
		c4.07-1.33,8.04-1.55,11.73,1.08c0.36,0.25,0.56,0.12,0.84-0.02c4.31-2.19,8.99-3.06,13.7-3.83c2.36-0.39,4.74-0.57,7.13-0.45
		c4.74,0.23,9.48,0.52,13.69,3.07c0.54,0.33,0.99,0.04,1.47-0.09c3.47-0.92,6.95-1.31,10.45-0.12c2.46,0.84,4.31,2.35,5.32,4.79
		c0.38,0.91,1.02,1.7,1.21,2.7c0.13,0.68,0.68,0.79,1.24,0.91c5.05,1.06,9.69,3.06,13.8,6.2c0.42,0.32,0.67,0.28,1.01-0.06
		c0.45-0.46,0.89-0.93,1.4-1.3c2.89-2.13,6.66-2.03,9.66,0.23c0.16,0.12,0.33,0.23,0.46,0.39c1.31,1.66,3,2.69,5,3.38
		c0.9,0.31,1.78,1.05,1.4,2.29c-0.61,1.97-1.84,2.35-3.17,1.17C107.28,24.05,107.09,23.99,106.78,23.83z"/>
	<path class="st1" d="M89.33,53.37c-0.38,1.2-1.16,2.19-1.66,3.33c-1.2,0.83-2.41,0.23-3.62,0.02c-0.12-0.06-0.2-0.15-0.25-0.28
		c1.71-0.95,2.02-2.69,2.5-4.36c0.76-2.65,1.39-5.3,1.63-8.07c0.25-2.81-0.89-4.94-2.67-6.9c-1.19-1.31-2.66-2.29-4.08-3.32
		c-2.81-2.06-5.49-4.25-7.7-6.97c-0.88-1.08-1.98-1.97-2.96-2.96c-1.15-1.16-2.59-1.84-4.18-2.22c-0.17-0.1-0.3-0.23-0.4-0.39
		c-0.25-0.53-0.44-1.06-0.23-1.66c0.43-0.64,1.06-0.83,1.78-0.69c2.05,0.39,3.84,1.22,5.27,2.83c1.06,1.2,2.01,2.48,2.97,3.75
		c2.35,3.1,5.4,5.4,8.59,7.55c2.11,1.43,4.18,2.9,5.84,4.91c1.58,1.92,2.13,4.08,1.87,6.47c-0.28,2.56-0.97,5-2.16,7.3
		C89.62,52.23,89.26,52.73,89.33,53.37z"/>
	<path class="st2" d="M89.33,53.37c-0.25-1.29,0.66-2.22,1.05-3.3c0.72-2.04,1.24-4.1,1.41-6.25c0.26-3.29-1.41-5.66-3.78-7.69
		c-2.48-2.12-5.33-3.74-7.88-5.78c-2.36-1.88-4.25-4.16-6.03-6.58c-1.6-2.17-3.42-4.06-6.3-4.54c-0.75-0.13-1.31-0.01-1.91,0.32
		c-0.29-0.1-0.43-0.33-0.49-0.61c-0.1-0.68,0.21-1.18,0.8-1.44c2.07-0.91,4.19-1.7,6.51-1.63c0.39,0.01,0.8,0.01,1.1,0.34
		c-0.32,0.61-0.49,1.14,0.23,1.66c0.55,0.4,0.78,1.1,1.01,1.74c1.97,5.49,5.72,9.39,10.74,12.2c2.23,1.25,4.47,2.46,6.92,3.23
		c0.91,0.29,1.35,0.94,1.46,1.85c0.04,0.36,0.03,0.72,0.14,1.06c-0.02,0.43,0.07,0.86-0.07,1.28c-0.41,1.46-0.52,2.98-1.02,4.42
		C92.09,46.96,91.08,50.32,89.33,53.37z"/>
	<path class="st3" d="M34.69,62.06c-2.1-3.06-3.64-6.44-5.51-9.63c-1.48-2.52-3.42-4.69-5.07-7.06c-0.17-0.24-0.44-0.32-0.72-0.4
		c-3.43-1.02-5.41-3.5-6.68-6.68c-1.81-4.51-2.13-9.2-1.44-13.96c0.22-1.53,0.86-2.98,1.58-4.36c0.42-0.81,0.28-1.35-0.47-1.8
		c-1.19-0.73-2.36-1.47-3.54-2.21c-0.2-0.28-0.28-0.57-0.1-0.9c0.85-0.35,1.45,0.23,2.02,0.64c1.48,1.05,2.92,1.32,4.5,0.24
		c0.37-0.25,0.84-0.49,1.32-0.14c0.06,0.12,0.08,0.24,0.06,0.37c-0.04,0.19-0.13,0.36-0.23,0.52c-0.65,1.19-1.49,2.26-2.13,3.47
		c-2.18,4.13-2.41,8.48-1.57,12.95c0.37,2,0.95,3.96,1.84,5.82c0.68,1.42,1.69,2.52,2.97,3.38c3.27,2.22,6.91,3.47,10.81,4.01
		c0.71,0.1,1.41,0.31,2.13,0.31c0.41,0.22,1.23-0.03,1.04,0.89c-1.75,0.47-3.48,0.07-5.21-0.19c-1.38-0.21-2.73-0.58-4.03-1.01
		c2.07,2.38,3.74,5.04,5.27,7.79c1.18,2.13,2.41,4.23,3.46,6.42c0.34,0.71,0.84,0.98,1.61,0.97c0.52,0,1.14-0.19,1.52,0.41
		c-0.03,0.14-0.11,0.24-0.24,0.31C36.8,62.46,35.73,62.59,34.69,62.06z"/>
	<path class="st4" d="M73.82,16.43c-2.84-0.63-5.35,0.46-7.86,1.5c-0.58,0.24-0.22,0.76-0.31,1.15c-0.27,0.28-0.62,0.34-0.98,0.34
		c-0.28-0.51-0.59-0.58-1.05-0.16c-0.28,0.26-0.7,0.36-1.05,0.54c-0.37,0.14-0.73,0.23-0.91-0.27c-0.07-0.4,0.11-0.73,0.39-0.95
		c2.04-1.61,4.41-2.46,6.59-3.12c-1.9-0.36-3.88,0.02-6.36,1.26c-0.52,0.26-1.22,0.93-1.53-0.27c0.78-1.3,2.17-1.63,3.44-2.12
		c0.55-0.21,1.14-0.34,1.73-0.38c2.43-0.01,4.88-0.16,7.24,0.62c0.72,0.24,0.79-0.2,0.83-0.75c0.19-2.92-1.72-6.18-4.35-7.4
		c-0.36-0.17-0.74-0.3-1.09-0.5c-0.81-0.38-1.04-0.85-0.24-1.49C71.06,4.9,72.94,6.52,74.14,9c0.52,1.07,1.1,2.12,1.32,3.3
		c0.11,0.61,0.55,0.7,1.03,0.79c2.67,0.45,5.24,1.26,7.76,2.25c0.21,0.08,0.39,0.26,0.58,0.39c-0.31,0.36-0.25,0.99-0.84,1.15
		c-0.18,0.02-0.36,0-0.53-0.06c-1.97-0.86-4.03-1.44-6.11-1.97c-0.79-0.2-1.27-0.22-1.21,0.87C76.2,16.79,75.21,17.06,73.82,16.43z"
		/>
	<path class="st5" d="M93.74,20.55c-0.09,0.15-0.17,0.3-0.26,0.46c-0.62,1.11-0.6,2.21-0.05,3.36c0.29,0.59,0.48,1.26,0.21,1.95
		c-1.14-0.24-1.98,0.54-2.96,0.84c-1.48,0.44-3,0.19-4.25-0.84c-0.37-0.3-0.89-0.6-0.68-1.25c0.4-0.31,0.84-0.08,1.27-0.08
		c0.94-0.01,1.24-0.33,1.03-1.25c-0.25-1.11-0.5-2.24-1.6-2.9c-0.17-0.47,0.06-0.78,0.45-0.96c0.45-0.2,0.75-0.58,1.13-0.85
		c0.9,0.09,1.63,0.58,2.27,1.15c0.68,0.61,1.3,0.82,2.02,0.12c0.31-0.26,0.61-0.53,0.92-0.79C93.71,19.7,94,19.99,93.74,20.55z"/>
	<path class="st6" d="M99,16.67c2.68,0.07,4.6,1.43,5.89,3.66c0.41,0.71,0.76,1,1.53,0.93c0.92-0.08,1.7,0.32,2.43,0.84
		c0.32,0.23,0.48,0.46,0.25,0.89c-0.3,0.53-0.57,0.23-0.86,0.06c-0.24-0.14-0.46-0.32-0.71-0.43c-1.25-0.56-2-0.19-2.12,1.13
		c-0.16,1.71-1.24,2.64-2.68,3.19c-1.31,0.5-1.97-0.04-2.02-1.45c-0.06-1.79,0.89-2.98,2.42-3.63c0.99-0.42,0.85-0.88,0.35-1.48
		c-1.35-1.6-3.01-2.59-5.17-2.54C98.39,17.36,98.95,17.18,99,16.67z"/>
	<path class="st7" d="M37.32,2.52c2.4-0.21,4.77-0.66,7.21-0.31c1.13,0.16,2.31,0.03,3.46,0.07c3.46,0.13,6.75,0.93,9.73,2.74
		c0.53,0.32,0.99,0.32,1.57,0.15C60.49,4.81,61.7,4.36,63,4.44c0.49,0.9-0.32,0.78-0.61,0.84c0.08-0.07,0.27-0.04,0.43,0.19
		c-0.34,0.68-1.03,0.47-1.57,0.58c-2.23,0.48-2.41,0.69-2.35,3c0.01,0.55,0.08,1.16-0.75,1.18c-0.76-0.7-0.78-1.67-0.72-2.55
		c0.07-1.07-0.4-1.56-1.28-2c-2.93-1.45-6.04-2.01-9.26-2.1c-1.95-0.05-3.91,0.03-5.86-0.03c-0.2,0-0.4-0.04-0.6-0.08
		c-0.67-0.22-1.33-0.09-2.01-0.05C37.85,3.46,37.12,3.49,37.32,2.52z"/>
	<path class="st8" d="M80.76,56.76c0.41-1.02,0.82-2.05,1.28-3.2c-3.14,1.3-6.3,1.69-9.51,1.74c-0.98,0.02-1.33,0.35-1.39,1.31
		c-0.09,1.5-0.31,3-0.48,4.49c-0.46,0.24-0.8,0.03-1.08-0.32c-0.11-0.22-0.16-0.46-0.13-0.7c0.55-3.91,0.93-7.85,2.17-11.63
		c0.14-0.42,0.26-0.84,0.53-1.2c0.19-0.26,0.43-0.52,0.79-0.39c0.38,0.13,0.37,0.49,0.34,0.81c-0.1,1-0.4,1.95-0.63,2.92
		c-0.08,0.35-0.15,0.7-0.22,1.05c-0.14,0.58-0.22,1.17-0.33,1.76c-0.12,0.66,0.19,0.9,0.79,0.83c2.77-0.29,5.55-0.57,8.22-1.42
		c1.28-0.41,1.88-1.39,2.26-2.58c0.28-0.56,0.43-1.59,1.16-1.32c0.69,0.25,0.22,1.16,0.07,1.79c-0.97,2.07-1.76,4.22-2.93,6.19
		C81.34,57.03,81.03,57.01,80.76,56.76z"/>
	<path class="st3" d="M59.89,62.29c-0.44-1.38-1.24-2.58-1.83-3.89c-0.19-0.41-0.46-0.41-0.88-0.31c-3.37,0.77-6.78,0.84-10.18,0.3
		c-0.74-0.12-0.8,0.11-0.8,0.69c0.01,1.71,0.1,3.42-0.24,5.12c-0.39-0.09-0.94,0.35-1.16-0.35c0.09-1.13,0.12-2.27,0.11-3.4
		c0.11-2.09,0.1-2.08-1.89-2.79c-1.02-0.36-2.04-0.72-3.03-1.14c-0.56-0.24-1.47-0.44-1.18-1.21c0.33-0.87,1.18-0.35,1.77-0.13
		c1.35,0.5,2.71,0.96,4.08,1.39c2.61,0.83,5.27,1.24,8.02,0.87c1.11-0.15,2.23,0.02,3.34-0.21c0.49-0.1,0.8-0.16,0.66-0.82
		c-0.18-0.88,0.36-0.82,0.93-0.54c0.61,0.3,0.92,0.86,1.22,1.44c0.78,1.53,1.44,3.12,2.53,4.47C61.08,62.56,60.48,62.41,59.89,62.29
		z"/>
	<path class="st9" d="M12.85,14.93c0,0.34,0,0.69-0.01,1.03c-1.54-0.79-3-1.73-4.77-2.06c-1.46-0.27-2.84,0.14-4.25,0.14
		c-1.67,0-1.95-0.45-1.05-1.89c1.06-1.72,2.12-3.46,4.08-4.34C7.07,8.05,7.38,8.23,7.4,8.61c-0.52,0.84-1.38,1.37-1.98,2.13
		c-0.52,0.58-1.16,1.06-1.74,2.01c1.67-0.53,3.11-0.71,4.57-0.8c2.91-0.18,5.82-0.12,8.65,0.64c1.09,0.29,2.24,0.63,2.96,1.67
		c-0.21,0.68-0.69,0.36-1.05,0.23c-2.68-0.94-5.44-1.25-8.18-1.07C11.31,13.92,12.39,13.95,12.85,14.93z"/>
	<path class="st10" d="M45.03,64.19c0.31-0.54,0.62-0.18,0.93,0.01c0.13,1.16-0.39,2.24-0.42,3.38c-0.01,0.47-0.43,0.66-0.95,0.71
		c-2.66,0.22-5.12-0.42-7.38-1.77c-1.17-0.69-1.57-1.97-2.01-3.15c-0.16-0.44-0.32-0.89-0.51-1.32c1.12,0,2.23-0.01,3.35-0.01
		c0.26-0.24,0.58-0.31,0.89-0.2C40.98,62.6,43.13,63.05,45.03,64.19z"/>
	<path class="st11" d="M93.52,26.22c0.01-0.81-0.19-1.62-0.57-2.28c-0.68-1.19-0.33-2.08,0.53-2.93c0.57,1.64,1.39,3.18,1.78,4.9
		c0.6,2.69,0.31,5.4,0.36,8.1c0,0.22-0.08,0.52-0.23,0.66c-1.2,1.09-0.92,2.52-0.94,3.88c0,0.24,0,0.48-0.2,0.67
		c-0.01-0.47-0.02-0.95-0.03-1.42c-0.5-2.03-0.38-4.1-0.39-6.16c0-0.4,0.07-0.8-0.09-1.18C93.49,29.06,93.2,27.65,93.52,26.22z"/>
	<path class="st10" d="M59.89,62.29c0.4-0.39,1.05-0.05,1.44-0.48c0.99-0.93,2.32-0.64,3.48-0.99c1.63-0.11,3.27-0.22,4.9,0.02
		c0.32,0.09,0.64,0.18,0.96,0.26c0.01,0.93-0.41,1.85-0.02,2.81c0.16,0.39-0.16,0.85-0.51,1.14c-1.85,1.51-3.98,1.83-6.28,1.47
		c-0.94-0.15-1.6-0.47-2.09-1.43c-0.43-0.83-0.91-1.78-1.86-2.27C59.67,62.71,59.83,62.47,59.89,62.29z"/>
	<path class="st12" d="M37.32,2.52c0.16,0.65,0.61,0.75,1.18,0.61c0.65-0.16,1.3-0.28,1.94,0.06c-0.81,0.73-1.88,0.63-2.84,0.86
		c-2.14,0.24-4.21,0.92-6.34,1.2c-1.32,0.25-2.62,0.58-3.88,1.06c-1.46,0.53-2.79,1.31-4.09,2.16c-1.33,0.87-1.74,0.66-1.88-0.89
		c-0.02-0.24-0.15-0.45-0.24-0.67c-0.07-0.97,0.56-0.61,1.04-0.55c0.54,0.58,0.94,0.49,1.66,0.07c2.37-1.39,4.93-2.29,7.67-2.74
		c1.51-0.25,2.98-0.75,4.5-1.03C36.47,2.57,36.89,2.53,37.32,2.52z"/>
	<path class="st13" d="M80.76,56.76c0.36-0.04,0.72-0.09,1.08-0.13c0.65-0.59,1.33-0.56,2.03-0.09c1.27,0.05,2.54,0.11,3.81,0.16
		c0.16,0.31,0.43,0.22,0.71,0.24c0.66,0.05,0.91,0.52,0.55,1.05c-1.56,2.3-5.68,3.21-8.22,1.89c-0.54-0.28-0.77-0.57-0.57-1.22
		C80.35,58.02,80.37,57.33,80.76,56.76z"/>
	<path class="st14" d="M22.2,6.36c-0.23,0.36-0.81-0.11-0.98,0.41c-0.05,0.03-0.11,0.07-0.16,0.1c-4.03-2.02-7.85-1.36-11.56,0.87
		C8.8,7.96,8.32,8.79,7.42,8.56C7.06,8.44,6.85,8.2,6.84,7.8C7.72,7.5,8.36,6.83,9.12,6.35c3.32-2.13,6.91-2.36,10.63-1.55
		C20.73,5.01,21.6,5.5,22.2,6.36z"/>
	<path class="st15" d="M92.31,20.29c-0.42,1.08-0.96,1.19-1.85,0.38c-0.68-0.62-1.55-1.05-2.33-1.56c-1.31-0.45-2.44-1.27-3.68-1.87
		c-0.2-0.1-0.41-0.26-0.33-0.56c0.13-0.41,0.02-1,0.73-0.97C87.64,16.74,89.94,18.56,92.31,20.29z"/>
	<path class="st16" d="M99,16.67c0.34,0.74-0.22,0.93-0.71,1.15c-1.5,0.03-2.58,0.88-3.59,1.85c-0.31,0.3-0.64,0.58-0.96,0.87
		c0.02-0.44-0.38-0.68-0.51-1.05C94.73,17.7,96.46,16.37,99,16.67z"/>
	<path class="st17" d="M62.82,5.43c-0.23-0.02-0.46-0.04-0.7-0.07c0.41-0.21,1.01-0.22,0.88-0.92c1.76-0.46,3.52-0.29,5.28,0
		c-0.07,0.42-0.57,0.93,0.24,1.16c-0.07,0.11-0.17,0.18-0.3,0.22c-0.46,0.11-0.87-0.09-1.3-0.22c-1.12-0.22-2.25-0.17-3.37-0.02
		C63.29,5.63,63.03,5.63,62.82,5.43z"/>
	<path class="st18" d="M84.33,50.73c0.02-0.56,0.47-1.08,0.09-1.8c-0.28,0.52-0.51,0.96-0.74,1.39c-0.35,0.24-0.73,0.3-1.13,0.12
		c-0.42-0.31-0.18-0.62-0.01-0.94c1.2-2.35,1.49-4.87,1.19-7.44c-0.26-2.24-1.66-3.84-3.38-5.18c-3.77-2.94-7.55-5.88-10.88-9.33
		c-0.62-0.64-1.24-1.25-2.2-1.33c-0.57-0.05-0.69-0.47-0.72-0.94c-0.03-0.52-0.02-1.04-0.2-1.54c0-0.75-0.6-1.51,0.01-2.26
		c2.11,0.09,3.61,1.34,5,2.74c1.29,1.29,2.58,2.59,3.78,3.98c2.47,2.86,5.68,4.86,8.64,7.14c1.91,1.48,3.37,3.29,4.24,5.53
		c0.55,1.4,0.29,2.92,0.14,4.36c-0.34,3.33-1.34,6.53-2.42,9.69c-0.28,0.84-0.81,1.49-1.85,1.37c-0.16-0.26-0.14-0.54-0.06-0.8
		C84.33,53.93,84.53,52.35,84.33,50.73z"/>
	<path class="st19" d="M64.67,19.33c0.25-0.36,0.63-0.22,0.97-0.25c0.08,0.16,0.16,0.32,0.24,0.48c0.08,0.56,0.16,1.12,0.23,1.68
		c0.48,3.01,0.31,6.05,0.34,9.08c0.11,1.92-0.81,3.48-1.8,5c-0.14,0.22-0.33,0.46-0.67,0.33c-0.37-0.48-0.16-1-0.07-1.49
		c0.9-4.46,0.71-8.96,0.5-13.46C64.39,20.21,64.28,19.72,64.67,19.33z"/>
	<path class="st20" d="M84.33,50.73c1.01,1.94,0.04,3.73-0.44,5.56c-0.01,0.08-0.01,0.17-0.02,0.25c-0.68,0.03-1.35,0.06-2.03,0.09
		c0.29-1.54,1.01-2.91,1.75-4.27C83.87,51.83,84.08,51.27,84.33,50.73z"/>
	<path class="st21" d="M66.14,30.6c-0.01-3.12-0.01-6.25-0.02-9.37c0.08,0.08,0.16,0.16,0.24,0.24c0.08,0.8,0.16,1.6,0.25,2.4
		c0.1,1.64,0.5,3.27,0.33,4.92C66.87,29.47,67,30.27,66.14,30.6z"/>
	<path class="st22" d="M93.99,30.31c0.32,2.49,0.2,5,0.23,7.5c-0.41-0.28-0.22-0.74-0.32-1.11c-0.21-0.76-0.61-1.2-1.4-1.45
		c-4.17-1.37-7.89-3.57-11.33-6.28c-3.11-2.45-5.01-5.72-6.41-9.33c-0.31-0.8-0.71-1.51-1.39-2.06c-0.24-0.19-0.62-0.31-0.46-0.73
		c0.16-0.42,0.55-0.4,0.91-0.42c0.24,0.01,0.48,0,0.72,0.03c1.03,0.1,1.63-0.14,1.23-1.36c-0.17-0.53-0.07-0.99,0.68-0.8
		c2.46,0.6,4.94,1.16,7.2,2.37c0.53,0.87-0.09,1.17-0.72,1.49c-0.93,0.47-1.99,0.82-2.15,2.09c-0.02,0.12-0.06,0.23-0.11,0.34
		c-0.66,1.38-0.12,2.65,0.62,3.7c2.14,3.02,4.91,5.19,8.72,5.71c0.73,0.1,1.42-0.06,2.11-0.25c0.68-0.19,1.36-0.29,1.66,0.6
		c0.01,0.02,0.08,0.04,0.11,0.03C93.93,30.38,93.96,30.33,93.99,30.31z"/>
	<path class="st23" d="M66.14,30.6c0.74-1.42,0.39-2.96,0.46-4.45c0.04-0.76,0.01-1.51,0.01-2.27c0.36,1.02,1.02,1.64,2.05,2.51
		c1.51,1.28,2.93,2.66,4.32,4.07c0.98,0.99,2.08,1.81,3.17,2.67c1.93,1.52,3.85,3.06,5.69,4.69c2.45,2.18,2.62,5.1,2.16,8.05
		c-0.24,1.53-0.47,3.14-1.55,4.42c-1.54,0.98-3.32,1.23-5.06,1.49c-1.48,0.22-3-0.01-4.5,0.22c-0.27,0.04-0.55-0.04-0.75-0.27
		c0.31-1.57,0.62-3.14,0.97-4.95c-0.77,0.41-0.87,0.93-1.03,1.39c-1.01,2.88-1.44,5.88-1.86,8.89c-0.17,1.26-0.34,2.53-0.51,3.79
		c-1.64,0.41-3.32,0.1-4.98,0.28c-0.75,0.25-1.21-0.02-1.5-0.74c-0.51-1.27-1.38-2.33-2.12-3.47c-1.06-1.63-2.61-2.08-4.39-2.23
		c-6.24-0.52-12.32-1.77-18.16-4.09c-1.31-0.52-2.47-1.3-3.67-2.01c-0.33-0.2-0.82-0.42-0.67-0.87c0.13-0.39,0.65-0.11,0.98-0.2
		c0.07-0.02,0.14-0.06,0.2-0.12c-0.17-0.44-0.65-0.3-0.95-0.49c-3.1-1.37-6.27-2.59-9.21-4.29c-2.22-1.28-4.17-2.95-5.6-5.14
		c-0.04-0.07-0.11-0.12-0.14-0.2c-1.58-3.57-3.02-7.08-2.61-11.22c0.29-2.97,1.64-5.38,2.72-7.97c0.23-0.54,0.46-1.09,0.68-1.64
		c0.07-0.1,0.14-0.19,0.21-0.29c0.58,0.1,1-0.39,1.55-0.43c0.35,0.52,0.5,1.14,0.75,1.7c-0.07,2.51,1.1,3.55,3.47,3.11
		c1.7-0.64,2.39-1.85,2.04-3.59c-0.08-0.38-0.21-0.76-0.32-1.14c-0.08-0.27-0.27-0.49-0.36-0.75c-0.29-0.81-0.05-1.22,0.82-1.31
		c1.27-0.13,2.45,0.2,3.61,0.68c2.17,0.9,4.26,2.02,6.47,2.82c1.05,0.38,2.1,0.79,3.25,0.49c0.62,0.26,0.88,0.88,1.34,1.32
		c1.07,1.03,2.23,1.48,3.66,0.77c0.55-0.13,1.12-0.17,1.67-0.33c1.13-0.39,2.21,0.03,3.3,0.19c3.31,0.48,6.61,1.08,9.93,1.55
		c0.51,0.07,1.02,0.21,1.49,0.43c0.67,0.34,0.67,0.97,0.6,1.56c-0.24,1.82-0.35,3.65-0.55,5.48c-0.23,2.17-1.07,4.18-2.22,6.03
		c-1.33,2.14-2.73,4.23-4.65,5.94c1.38,0.03,3.76-1.11,5.13-2.36c0.94-0.86,1.69-1.92,2.74-2.66C65,34.02,66.19,32.55,66.14,30.6z"
		/>
	<path class="st24" d="M35.39,47.39c-0.23,0.4-0.75,0.1-1.1,0.41c3.11,2.19,6.52,3.51,10.13,4.4c4.2,1.03,8.41,2.02,12.75,2.16
		c3.02,0.1,4.28,2.37,5.66,4.5c0.3,0.47,0.58,0.97,0.73,1.5c0.18,0.65,0.61,0.75,1.15,0.76c-1.13,0.23-2.26,0.46-3.4,0.69
		c-0.75-0.06-0.91-0.73-1.18-1.22c-0.63-1.16-1.22-2.34-1.79-3.52c-0.3-0.62-0.8-0.94-1.41-1.22c-0.26,0.64,0.45,0.98,0.34,1.5
		c-5.67,1.08-11.16,0.58-16.47-1.72c-0.57-0.25-1.57-0.91-1.78-0.28c-0.28,0.84,0.96,0.79,1.54,1.05c1.19,0.54,2.45,0.96,3.71,1.34
		c0.9,0.27,1.44,0.63,1.04,1.67c-0.11,0.29-0.06,0.63-0.08,0.95c-0.34,0.28-0.69,0.11-1.02-0.02c-2.8-1.08-5.6-2.13-8.09-3.87
		c-0.62-0.43-1.22-0.87-1.67-1.47c1.31,2,2.59,4,3.58,6.19c0.09,0.21,0.19,0.45-0.03,0.66c-2.19,0.44-3.15-0.73-4.07-2.58
		c-2.05-4.13-4.23-8.22-7.15-11.84c-0.42-0.52-0.87-1.03-1.47-1.74C28.73,46.83,32,47.55,35.39,47.39z"/>
	<path class="st25" d="M21.93,15.72c-0.34,0.6-0.74,1-1.44,0.44c0-0.07,0.01-0.14,0.05-0.2c0.15-0.7-0.71-1-0.65-1.66
		c-0.19-0.49-1.13-0.56-0.77-1.36c2.29-1.21,4.8-1.94,7.09-3.16c0.83-0.44,1.72-0.55,2.65-0.64c1.81-0.17,3.28,0.64,4.7,1.51
		c2.25,1.37,4.46,2.79,6.95,3.72c0.45,0.17,0.8,0.52,1.19,0.8c0.2,0.25,0.28,0.53,0.33,0.84c-0.14,0.61,0.32,1.29-0.17,1.87
		c-0.73,0.45-1.45,0.33-2.24,0.08c-2.55-0.8-4.91-2.05-7.36-3.11c-1.1-0.48-2.22-0.87-3.45-0.82c-0.34,0.01-0.76-0.16-0.99,0.22
		c-0.25,0.43,0.04,0.75,0.33,1.04c0.11,0.11,0.23,0.23,0.08,0.4c-0.2,0.13-0.4,0.06-0.55-0.06C25.74,14.06,23.83,14.25,21.93,15.72z
		"/>
	<path class="st24" d="M20.29,16.45c0.09,1.45-0.71,2.65-1.36,3.76c-1.86,3.18-1.75,6.62-1.76,10.08c0,0.04-0.01,0.08,0.01,0.12
		c1.26,2.84,1.56,6.17,3.89,8.47c2.27,2.24,4.79,4.16,7.9,5.22c1.95,0.66,3.74,1.69,5.48,2.8c-4.92-0.43-9.55-1.76-13.62-4.66
		c-1.89-1.34-2.76-3.34-3.48-5.46c-1.53-4.49-1.89-9.04-0.65-13.64C17.36,20.65,18.72,18.48,20.29,16.45z"/>
	<path class="st23" d="M37.99,61.86c-1.07-2.68-2.76-5.01-4.16-7.55c3.24,3.08,7.29,4.63,11.4,6.05c0.07,1.28-0.01,2.56-0.2,3.83
		c-1.51-0.3-2.91-0.95-4.37-1.44c-0.86-0.29-1.68-0.71-2.62-0.71C38.03,61.98,38.01,61.92,37.99,61.86z"/>
	<path class="st26" d="M20.02,14.29c-0.1,0.65,1.42,0.78,0.53,1.68c-0.48-0.15-0.92,0-1.29,0.27c-1.49,1.11-2.93,0.87-4.38-0.1
		c-0.66-0.44-1.36-0.81-2.04-1.21c-1.05-0.55-2.09-1.1-3.17-1.67c2.21-0.52,6.55-0.06,9.22,0.94c0.26,0.1,0.52,0.45,0.85,0.11
		C19.83,14.2,19.92,14.19,20.02,14.29z"/>
	<path class="st27" d="M67.07,5.38c0.4,0.1,0.8,0.19,1.21,0.29c0.54,1.36,1.04,2.73,1.06,4.23c0.01,0.99-0.16,1.9-0.85,2.65
		c-0.3,0.32-0.52,0.6,0.02,0.9c0.17,0.09,0.31,0.29,0.24,0.5c-0.1,0.3-0.39,0.19-0.61,0.21c-0.75,0.06-1.51-0.1-2.25,0.09
		c-1.84,0.37-3.61,0.89-5.05,2.19c-0.19,0.18-0.08,0.55-0.4,0.64c-2.89-0.11-5.74-0.54-8.6-0.92c-0.87-0.12-1.73-0.22-2.6-0.04
		c-0.61-0.01-0.87-0.51-1.2-0.88c-1.29-1.45-2.81-1.99-4.69-1.32c-0.15,0.05-0.31,0.04-0.47-0.01c-0.58-0.9-1.56-1.2-2.46-1.57
		c-2.8-1.14-4.99-3.08-6.98-5.27c-0.57-0.62-1.07-1.27-1.94-1.49c-0.27-0.07-0.49-0.27-0.41-0.62c2.15-0.4,4.31-0.8,6.46-1.19
		c0.44,2.51,1.88,4.26,4.07,5.46c3.17,1.73,6.66,2.17,10.17,2.55c2.26,0.25,4.54,0.28,6.82,0.27c1.3,0,2.54-0.22,3.76-0.66
		c2.07-0.74,2.78-2.08,2.28-4.21c-0.15-0.63-0.54-1.3,0.13-1.88C65.54,5.32,66.31,5.18,67.07,5.38z"/>
	<path class="st28" d="M93.99,30.31c-0.02,0.16-0.04,0.31-0.11,0.84c-0.33-1.48-1.09-1.35-1.97-1.03c-1.76,0.65-3.39-0.03-4.97-0.65
		c-2.48-0.98-4.29-2.84-5.89-4.92c-0.66-0.86-0.79-1.9-1-2.91c-0.09-0.43-0.04-0.89,0.46-1.12c0.15,0.05,0.27,0.15,0.41,0.22
		c0.18,0.09,0.43,0.16,0.5-0.06c0.1-0.35-0.21-0.34-0.44-0.34c-0.15,0-0.31,0.04-0.45-0.04c-0.1-1.56,1.2-1.89,2.21-2.36
		c0.62-0.29,1.01-0.54,0.91-1.26c0.15,0,0.31,0.01,0.46,0.01c1.31,0.85,2.87,1.3,4.02,2.42c-0.22,0.48-0.39,0.99-1.09,0.98
		c-0.35,0-0.49,0.32-0.52,0.66c-0.38,0.46-0.89,0.41-1.41,0.4c-0.97-0.02-1.16,0.25-1,1.23c0.1,0.66,0.44,1.16,0.9,1.62
		c0.31,0.32,0.84,0.5,0.8,1.08c1.44,2.21,4.3,2.7,6.12,0.9c0.84-0.83,1.07,0.2,1.6,0.24C93.93,27.55,93.73,28.95,93.99,30.31z"/>
	<path class="st29" d="M49.08,15.96c0.83-0.67,1.77-0.31,2.61-0.17c2.49,0.4,4.99,0.6,7.49,0.9c0.47,0.06,0.93,0.15,1.39,0.22
		c0.15,1,1.03,1.67,1.22,2.65c0.24,0.29,0.49,0.04,0.73,0c0.84,0.5,1.06,1.23,0.72,2.41c-3.22-0.79-6.54-1.04-9.79-1.67
		c-0.93-0.18-1.87-0.3-2.8-0.47c-0.78-0.14-1.55-0.23-2.32-0.02C48.28,18.46,48.77,17.23,49.08,15.96z"/>
	<path class="st30" d="M63.24,21.96c-0.24-0.8-0.05-1.73-0.72-2.41c0.37-0.21,0.75-0.42,1.12-0.65c0.54-0.33,0.84-0.07,1.04,0.42
		c0.34,2.58,0.25,5.17,0.27,7.76c0.02,2.68-0.23,5.32-0.83,7.94c-0.05,0.23-0.21,0.45,0.09,0.62c-1.7,2.95-6.35,6-8.67,5.37
		c3.08-2.9,5.54-6.21,6.93-10.27c0.67-1.97,0.47-4.02,0.76-6.02C63.35,23.83,63.87,22.88,63.24,21.96z"/>
	<path class="st31" d="M65.89,14.25c0.84-0.47,1.79-0.04,2.72-0.29c-0.16-0.48-0.69-0.44-0.94-0.85c1.84-1.83,1.59-3.94,0.71-6.14
		c-0.15-0.39-0.07-0.86-0.1-1.3c0.08-0.02,0.16-0.04,0.24-0.06c3.15,0.98,4.89,3.22,5.6,6.35c0.04,0.16,0.1,0.31,0.11,0.46
		c0.03,0.83,0.37,1.88,0,2.45c-0.54,0.83-1.43-0.15-2.15-0.29C70.02,14.21,67.95,14.26,65.89,14.25z"/>
	<path class="st32" d="M61.79,19.56c-0.35-0.47-0.65-0.97-1.06-1.39c-0.41-0.42-0.39-0.81-0.16-1.27c0.03-0.19,0.06-0.38,0.27-0.46
		c0.29,0.95,0.79,0.32,1.14,0.11c1.41-0.9,2.99-1.28,4.61-1.5c0.9-0.12,1.81-0.1,2.79,0.35c-1.54,0.62-3.04,1.13-4.44,1.83
		C63.77,17.8,62.34,18.11,61.79,19.56z"/>
	<path class="st33" d="M85.8,25.08c-0.98-0.8-1.98-1.56-2.1-2.99c-0.07-0.9,0.31-1.46,1.19-1.29c0.58,0.12,1.09-0.03,1.63-0.05
		c1.1,0.57,2.09,2.58,1.92,3.81c-0.07,0.55-0.36,0.73-0.88,0.77C86.96,25.36,86.38,25.23,85.8,25.08z"/>
	<path class="st34" d="M103.92,22.72c0.3,1.58-0.05,2.32-1.21,2.91c-0.66,0.34-0.86,0.13-0.82-0.54
		C101.96,23.84,102.83,23.26,103.92,22.72z"/>
	<path class="st35" d="M64.68,5.43c-0.07,0.66,0.16,1.25,0.34,1.86c0.53,1.8-0.26,3.5-1.99,4.19c-1.37,0.55-2.77,0.88-4.29,0.9
		c-4.03,0.04-8.02-0.23-11.97-1c-2.51-0.49-4.93-1.31-6.96-2.96c-1.35-1.09-2.08-2.58-2.56-4.2c-0.03-0.11,0.19-0.3,0.3-0.46
		c0.96-0.19,1.93-0.38,2.89-0.57c0.16,0.02,0.32,0.03,0.48,0.05c0.3,0.17,0.49,0.42,0.48,0.77c-0.11,2.72,1.89,3.71,3.91,4.5
		c1.93,0.76,4.03,0.93,6.1,1.12c1.75,0.16,3.49,0.4,5.24,0.09c0.58-0.1,1.09,0.19,1.58,0.47c0.57-0.3,0.37-0.79,0.33-1.25
		c-0.21-2.28,0.03-2.61,2.29-3.12c0.65-0.15,1.31-0.26,1.96-0.39c0.22-0.02,0.45-0.04,0.67-0.06C63.89,5.28,64.29,5.16,64.68,5.43z"
		/>
	<path class="st36" d="M58.23,10.19c-3.52-0.01-7.03-0.02-10.51-0.71c-1.76-0.35-3.51-0.74-4.93-1.94
		c-1.08-0.92-2.12-1.84-1.67-3.51C41.19,3.8,41,3.5,40.92,3.24c4.1-0.03,8.21-0.29,12.22,0.91c1.42,0.43,2.75,1.05,4.08,1.68
		c0.49,0.23,0.69,0.47,0.61,1.08C57.67,8.02,57.76,9.14,58.23,10.19z"/>
	<path class="st24" d="M72.13,51.72c3.48-0.21,6.96-0.33,10.32-1.44c0.41,0.01,0.83,0.02,1.24,0.03c-0.34,1.46-1.15,2.43-2.65,2.88
		c-2.8,0.84-5.68,1.08-8.55,1.44c-0.7,0.09-0.98-0.14-0.83-0.83C71.81,53.1,71.97,52.41,72.13,51.72z"/>
	<path class="st37" d="M7.42,8.56c0.61-0.32,1.22-0.64,1.83-0.96c1.18,0.2,2.25,0.76,3.42,1.03c2.24,0.52,4.34,0.08,6.39-0.8
		c0.73-0.31,1.39-0.78,2.18-0.95c0,0-0.01-0.1-0.01-0.1c0.4,0.33,1.06,0.56,0.46,1.26c-0.15,0.17-0.13,0.36,0.03,0.53
		c0.24,0.25,0.49,0.2,0.75,0.04c0.84-0.52,1.67-1.03,2.51-1.55c0.7-0.44,1.46-0.73,2.27-0.93c0.64,0.45-0.03,0.63-0.22,0.75
		c-3.07,1.96-5.98,4.23-9.7,4.89c-0.47,0.08-0.88,0.36-1.37,0.4c-0.69,0-1.34-0.19-2-0.35c-2.34-0.56-4.7-0.89-7.11-0.79
		c-0.53,0.02-1.23,0.21-1.48-0.59C5.98,9.71,6.58,9,7.42,8.56z"/>
	<path class="st38" d="M5.37,10.42c0.22,0.31,0.56,0.26,0.87,0.25c3.19-0.16,6.29,0.31,9.35,1.19c0.19,0.05,0.39,0.03,0.59,0.04
		c1.09,0.08,2.1,0.36,2.89,1.19c0.32,0.4,0.63,0.8,0.95,1.2c-0.09,0.01-0.18,0.01-0.28,0.02c-1.92-1.33-4.06-1.88-6.39-1.99
		c-3.22-0.15-6.43-0.29-9.56,0.72c-0.18,0.06-0.39,0.01-0.65,0.01C3.64,11.91,4.53,11.19,5.37,10.42z"/>
	<path class="st39" d="M39.25,63.46c1.61,0.56,3.23,1.12,4.84,1.67c0.4,0.13,0.98,0.07,0.76,0.76c-0.18,0.59-0.02,1.42-1.06,1.44
		c-1.41,0.03-2.77-0.12-4.06-0.73c-0.44-0.8-0.48-1.74-0.83-2.57C38.8,63.79,38.8,63.44,39.25,63.46z"/>
	<path class="st40" d="M39.25,63.46c-0.26,0.18-0.2,0.41-0.06,0.62c0.5,0.77,0.6,1.62,0.54,2.51c-2.6-1.02-2.82-1.22-3.78-3.63
		C37.08,63.04,38.22,62.85,39.25,63.46z"/>
	<path class="st41" d="M64.68,62.28c1.48-0.49,3-0.14,4.5-0.23c0.43-0.03,0.33,0.29,0.34,0.58c0.04,1.87-0.31,2.33-2.43,3.03
		c-2.11,0.3-2.11,0.3-2.41-1.72C64.6,63.38,64.43,62.83,64.68,62.28z"/>
	<path class="st42" d="M64.68,62.28c0.16,0.72,0.53,1.48,0.42,2.16c-0.21,1.35,0.53,1.27,1.39,1.2c0.2-0.02,0.39,0,0.59,0.01
		c-1.44,0.59-2.88,0.2-4.13-0.39c-0.66-0.31-0.99-1.36-1.42-2.11c-0.25-0.44,0.23-0.42,0.44-0.48
		C62.87,62.46,63.75,62.21,64.68,62.28z"/>
	<path class="st43" d="M19.07,13.09c-0.96-0.4-1.93-0.79-2.89-1.19c2.03-0.87,4.24-1.22,6.2-2.35c1.68-0.97,3.08-2.37,4.89-3.13
		c0.12-0.05,0.08-0.2-0.02-0.29c1.21-0.61,2.52-0.92,3.85-1.16c2.43,0.91,3.59,3.31,5.56,4.78c1.62,1.2,3.34,2.09,5.17,2.86
		c0.59,0.25,1.11,0.48,1.03,1.24c-0.12,0.74-0.76,1.01-1.28,1.39c-2.15-1-4.36-1.87-6.36-3.17c-1-0.65-2.01-1.27-3.07-1.83
		c-2.11-1.13-4.16-1.02-6.26,0.03C23.68,11.36,21.42,12.32,19.07,13.09z"/>
	<path class="st44" d="M83.65,59.39c-0.6,0-1.2,0.03-1.79-0.02c-0.39-0.04-0.85-0.16-0.83-0.68c0.02-0.53,0.19-1.16,0.79-1.16
		c1.73,0,3.47-0.3,5.19,0.16c-0.1,0.13-0.23,0.27-0.38,0.25C85.35,57.84,84.4,58.39,83.65,59.39z"/>
	<path class="st45" d="M83.65,59.39c0.27-2.26,2.03-1.55,3.36-1.7c0.22,0.05,0.53-0.05,0.61,0.24c0.08,0.27-0.17,0.43-0.36,0.57
		C86.19,59.31,84.97,59.55,83.65,59.39z"/>
	<path class="st46" d="M21.24,6.87c-2.69,1.96-5.64,2.82-8.94,1.98c-1.07-0.27-2.17-0.5-3.05-1.25c3.04-2.1,6.36-2.71,9.95-1.87
		C19.99,5.91,20.67,6.29,21.24,6.87z"/>
	<path class="st7" d="M64.68,5.43c-0.4-0.02-0.79-0.04-1.19-0.06c1.19-0.35,2.39-0.36,3.58,0.01C66.27,5.4,65.48,5.41,64.68,5.43z"
		/>
	<path class="st47" d="M80.53,20.29c0.41-0.28,0.81-0.73,1.26-0.05c0.24,0.36,0.22,0.71-0.18,0.89c-0.57,0.25-1,0.07-1.09-0.61
		C80.52,20.44,80.52,20.37,80.53,20.29z"/>
	<path class="st48" d="M35.01,22.17c2.9,0.12,5.77,0.4,8.25,2.15c2.03,1.44,2.84,3.55,3.18,5.9c0.12,0.83-0.13,1.6-0.61,2.26
		c-1.73,2.37-3.73,4.24-6.87,4.69c-3.48,0.49-6.88,0.57-10.23-0.6c-2.81-0.98-4.35-3.15-4.36-6.01c-0.01-4.5,2.42-7.32,6.95-8.14
		C32.54,22.21,33.77,22.18,35.01,22.17z"/>
	<path class="st49" d="M41.57,15.23c0.12-0.75,0.88-0.9,1.28-1.39c2.44-1.21,4.35-0.55,6.23,2.12c0.26,1.38-0.32,2.59-0.75,3.83
		c-0.5,0.42-1.1,0.2-1.66,0.27c-0.99,0.35-1.38-0.32-1.67-1.04c-0.56-1.39-0.37-2.71,0.6-4.45c-0.79-0.24-1.39,0.11-2,0.48
		c-0.56,0.34-0.97,0.96-1.72,0.97C41.48,15.88,41.6,15.53,41.57,15.23z"/>
	<path class="st50" d="M21.93,15.72c0.68-1.81,4.05-1.88,5.49-0.7c0.27,0.22,0.53,0.46,0.8,0.7c0.45,1.41,0.94,2.78-0.23,4.14
		c-0.5,0.57-1.05,0.81-1.72,0.92c-1,0.17-1.35-0.44-1.46-1.26c-0.12-0.95-0.05-1.9,0.15-2.84c0.08-0.37,0.26-0.84-0.27-1.02
		c-0.54-0.18-1.01-0.02-1.32,0.51c-0.23,0.4-0.26,0.93-0.73,1.19C21.87,17.04,22.07,16.3,21.93,15.72z"/>
	<path class="st51" d="M41.89,16.01c0.78-0.67,1.55-1.36,2.55-1.74c0.67-0.26,1.23-0.17,1.8,0.23c-1.22,1.22-1.58,3.03-0.93,4.58
		c0.25,0.6,0.7,0.95,1.37,0.98c-1.05,0.64-2.2,0.55-3.24-0.29c-0.65-0.52-1.22-1.12-1.58-1.88C41.94,17.26,41.31,16.63,41.89,16.01z
		"/>
	<path class="st52" d="M22.64,17.35c0.56-2.1,0.78-2.29,2.29-2.21c0.58,0.03,0.78,0.14,0.57,0.77c-0.36,1.09-0.6,2.21-0.47,3.38
		c0.09,0.78,0.34,1.39,1.24,1.48c-1.17,0.63-2.19,0.03-3.04-0.6C22.32,19.49,22.32,18.41,22.64,17.35z"/>
	<path class="st53" d="M52.26,7.8c-0.8,0.11-1.61-0.1-2.23-0.85c-0.23-0.27-0.53-0.49-0.31-0.92c0.2-0.39,0.45-0.6,0.91-0.64
		c0.95-0.09,1.79,0.29,2.65,0.56c0.59,0.19,0.96,0.56,0.82,1.24c-0.13,0.64-0.64,0.6-1.12,0.61C52.78,7.81,52.58,7.8,52.26,7.8z"/>
	<path class="st33" d="M46.91,4.22c0.42,0.28,1.16,0.24,1.17,0.96c0.01,0.56-0.5,0.73-0.93,0.63c-0.45-0.11-1.15-0.08-1.14-0.79
		C46.01,4.54,46.39,4.27,46.91,4.22z"/>
	<path class="st54" d="M39.69,29.71c0,0.6,0.07,1.2-0.02,1.78c-0.09,0.55-0.34,1.05-1.08,1.03c-0.69-0.01-1.13-0.26-1.28-0.97
		c-0.32-1.53-0.39-3.06-0.01-4.59c0.14-0.57,0.51-1.07,1.1-1.11c0.61-0.04,0.79,0.57,1,1.04C39.83,27.8,39.71,28.76,39.69,29.71z"/>
	<path class="st54" d="M28.91,29.18c0.11-0.91-0.29-2.03,0.52-2.96c0.58-0.66,1.39-0.62,1.69,0.2c0.59,1.65,0.7,3.34,0.02,5
		c-0.24,0.59-0.63,1.2-1.4,1.06c-0.81-0.14-0.84-0.83-0.83-1.5C28.92,30.42,28.91,29.86,28.91,29.18z"/>
	<path class="st55" d="M47.17,19.09c-0.62,0-1.05-0.2-1.1-0.69c-0.04-0.43,0.17-0.94,0.7-0.94c0.55-0.01,0.83,0.4,0.87,0.95
		C47.66,18.83,47.52,19.1,47.17,19.09z"/>
	<path class="st56" d="M48.14,16.01c-0.06,0.32-0.25,0.49-0.57,0.46c-0.31-0.03-0.5-0.23-0.48-0.55c0.03-0.32,0.24-0.48,0.56-0.45
		C47.97,15.5,48.14,15.69,48.14,16.01z"/>
	<path class="st57" d="M26.17,18.37c0.73-0.02,1.05,0.18,1.08,0.73c0.02,0.42-0.11,0.69-0.58,0.7c-0.54,0-0.96-0.23-1.04-0.77
		C25.54,18.52,25.94,18.38,26.17,18.37z"/>
	<path class="st58" d="M27.75,16.33c0.42,0.06,0.54,0.34,0.54,0.68c0,0.36-0.15,0.64-0.55,0.59c-0.36-0.04-0.53-0.32-0.53-0.68
		C27.2,16.55,27.4,16.35,27.75,16.33z"/>
</g>
</svg>
