<?xml version="1.0" encoding="utf-8"?>
<!-- Generator: Adobe Illustrator 23.0.2, SVG Export Plug-In . SVG Version: 6.00 Build 0)  -->
<svg version="1.1" id="Camada_1" xmlns="http://www.w3.org/2000/svg" xmlns:xlink="http://www.w3.org/1999/xlink" x="0px" y="0px"
	 viewBox="0 0 47.74 56.3" style="enable-background:new 0 0 47.74 56.3;" xml:space="preserve">
<style type="text/css">
	.st0{fill:#FEFEFE;}
	.st1{fill:#375E32;}
	.st2{fill:#2F552F;}
	.st3{fill:#375C31;}
	.st4{fill:#355D30;}
	.st5{fill:#396534;}
	.st6{fill:#365D31;}
	.st7{fill:#3B6C32;}
	.st8{fill:#59993B;}
	.st9{fill:#559838;}
	.st10{fill:#3A6832;}
	.st11{fill:#477C37;}
	.st12{fill:#3D6A33;}
	.st13{fill:#599237;}
	.st14{fill:#365C31;}
	.st15{fill:#376033;}
	.st16{fill:#437436;}
	.st17{fill:#3C6933;}
	.st18{fill:#396531;}
	.st19{fill:#396232;}
	.st20{fill:#467436;}
	.st21{fill:#335931;}
	.st22{fill:#488234;}
	.st23{fill:#365D2F;}
	.st24{fill:#355C2F;}
	.st25{fill:#3D6930;}
	.st26{fill:#4A8637;}
	.st27{fill:#386231;}
	.st28{fill:#519039;}
	.st29{fill:#3C7031;}
	.st30{fill:#426C32;}
	.st31{fill:#325B2E;}
	.st32{fill:#4A8536;}
	.st33{fill:#2C532C;}
	.st34{fill:#3A5E2F;}
	.st35{fill:#396630;}
	.st36{fill:#62A13D;}
	.st37{fill:#32532B;}
	.st38{fill:#569134;}
	.st39{fill:#416B33;}
	.st40{fill:#71A73B;}
	.st41{fill:#74A83A;}
	.st42{fill:#375E33;}
	.st43{fill:#ABC669;}
	.st44{fill:#99BA61;}
	.st45{fill:#EBEC6F;}
	.st46{fill:#68A237;}
	.st47{fill:#CDDC5D;}
	.st48{fill:#97B85D;}
	.st49{fill:#254C2B;}
	.st50{fill:#ACC464;}
	.st51{fill:#72A83A;}
	.st52{fill:#78AA3A;}
	.st53{fill:#B2C865;}
	.st54{fill:#B3CA66;}
	.st55{fill:#B9D069;}
	.st56{fill:#81B441;}
	.st57{fill:#30552F;}
	.st58{fill:#DBE26A;}
	.st59{fill:#B8D069;}
	.st60{fill:#D2DD5F;}
	.st61{fill:#325930;}
	.st62{fill:#204B2A;}
	.st63{fill:#C2C95D;}
	.st64{fill:#A4BD5F;}
	.st65{fill:#B3C866;}
	.st66{fill:#B8CA68;}
	.st67{fill:#A3BD5A;}
	.st68{fill:#2A532D;}
	.st69{fill:#325B30;}
	.st70{fill:#83B038;}
	.st71{fill:#81B039;}
	.st72{fill:#83B039;}
	.st73{fill:#73A539;}
	.st74{fill:#A1C065;}
	.st75{fill:#2D552D;}
	.st76{fill:#9ABB62;}
	.st77{fill:#C6D36E;}
	.st78{fill:#BCCF6D;}
	.st79{fill:#A7BF30;}
	.st80{fill:#F5F48B;}
	.st81{fill:#F8F185;}
	.st82{fill:#FAF48E;}
	.st83{fill:#B4C424;}
	.st84{fill:#409030;}
	.st85{fill:#EFF290;}
	.st86{fill:#80AD38;}
	.st87{fill:#BED06E;}
	.st88{fill:#C5D370;}
	.st89{fill:#D7DD75;}
	.st90{fill:#C8D56F;}
	.st91{fill:#DADE71;}
	.st92{fill:#B9CC6D;}
	.st93{fill:#F9F286;}
	.st94{fill:#A0C063;}
	.st95{fill:#9FBF65;}
	.st96{fill:#9BBC63;}
	.st97{fill:#496D39;}
	.st98{fill:#7EAD3A;}
	.st99{fill:#325A31;}
	.st100{fill:#C1D466;}
	.st101{fill:#85AD36;}
	.st102{fill:#AFC76A;}
	.st103{fill:#B9CD6C;}
	.st104{fill:#B6CB66;}
	.st105{fill:#ACC563;}
	.st106{fill:#5D883F;}
	.st107{fill:#355F31;}
	.st108{fill:#A7C466;}
	.st109{fill:#73A83A;}
	.st110{fill:#A0BE64;}
	.st111{fill:#ECEA7C;}
	.st112{fill:#F1EC80;}
	.st113{fill:#DBDF78;}
	.st114{fill:#30592E;}
	.st115{fill:#B0CC6B;}
	.st116{fill:#A2C15E;}
	.st117{fill:#8BB236;}
	.st118{fill:#E7E67C;}
	.st119{fill:#3C6E37;}
	.st120{fill:#D0D972;}
	.st121{fill:#8AB638;}
	.st122{fill:#A5C166;}
	.st123{fill:#74AB3B;}
	.st124{fill:#7CA844;}
	.st125{fill:#79B13C;}
	.st126{fill:#9DBC66;}
	.st127{fill:#87B14E;}
	.st128{fill:#93B959;}
	.st129{fill:#77AA3A;}
	.st130{fill:#86AE51;}
	.st131{fill:#7CAB39;}
	.st132{fill:#A7AA4A;}
	.st133{fill:#B0C765;}
	.st134{fill:#AAAE4A;}
	.st135{fill:#ADB24C;}
	.st136{fill:#B3B94D;}
	.st137{fill:#AEC664;}
	.st138{fill:#F7ED6E;}
	.st139{fill:#B3CB67;}
	.st140{fill:#ECE76C;}
	.st141{fill:#F5EC6E;}
	.st142{fill:#FAEE6E;}
	.st143{fill:#7DAC39;}
	.st144{fill:#AFC768;}
	.st145{fill:#A0BF64;}
	.st146{fill:#A5C366;}
	.st147{fill:#91B45A;}
	.st148{fill:#83AF38;}
	.st149{fill:#C2C452;}
	.st150{fill:#C0CF69;}
	.st151{fill:#7BAB39;}
	.st152{fill:#2F5B2E;}
	.st153{fill:#29542E;}
	.st154{fill:#27522C;}
	.st155{fill:#315F30;}
	.st156{fill:#83B139;}
	.st157{fill:#76A93A;}
	.st158{fill:#FCFDFC;}
	.st159{fill:#FDFDFC;}
	.st160{fill:#75A93A;}
	.st161{fill:#79A839;}
	.st162{fill:#1F4321;}
	.st163{fill:#99BB61;}
	.st164{fill:#1F4620;}
	.st165{fill:#234723;}
	.st166{fill:#6BA433;}
	.st167{fill:#6BA332;}
	.st168{fill:#68A02F;}
	.st169{fill:#7CB53E;}
	.st170{fill:#2B4326;}
	.st171{fill:#2A4B26;}
	.st172{fill:#639F27;}
	.st173{fill:#072A18;}
	.st174{fill:#244925;}
	.st175{fill:#9EBE5A;}
	.st176{fill:#173C1F;}
	.st177{fill:#0E2818;}
	.st178{fill:#0B2B18;}
	.st179{fill:#7BB43E;}
	.st180{fill:#9CB932;}
	.st181{fill:#89B137;}
	.st182{fill:#9BB932;}
	.st183{fill:#D1DB75;}
	.st184{fill:#F9F9DE;}
	.st185{fill:#4A8639;}
	.st186{fill:#F3EC82;}
	.st187{fill:#ACC12E;}
	.st188{fill:#255027;}
	.st189{fill:#7DAB37;}
	.st190{fill:#85B43A;}
	.st191{fill:#2B562D;}
	.st192{fill:#B2C867;}
	.st193{fill:#8AB236;}
	.st194{fill:#7DAB31;}
	.st195{fill:#8EB229;}
	.st196{fill:#79AA39;}
	.st197{fill:#386133;}
	.st198{fill:#AFC664;}
	.st199{fill:#AAAD4A;}
	.st200{fill:#ECE86E;}
	.st201{fill:#93B534;}
	.st202{fill:#7CAE3A;}
	.st203{fill:#376832;}
	.st204{fill:#396E37;}
	.st205{fill:#8CB338;}
	.st206{fill:#F9F8C3;}
	.st207{fill:#84AF39;}
	.st208{fill:#B4C966;}
	.st209{fill:#B8BE4F;}
	.st210{fill:#8CB236;}
	.st211{fill:#CCD56F;}
	.st212{fill:#CBD56D;}
	.st213{fill:#F3F37A;}
	.st214{fill:#BCCE67;}
	.st215{fill:#B7D468;}
	.st216{fill:#2D5B2F;}
	.st217{fill:#7EB43C;}
	.st218{fill:#224824;}
	.st219{fill:#21421E;}
	.st220{fill:#1F451F;}
	.st221{fill:#A6A5A7;}
	.st222{fill:#9C9D9D;}
	.st223{fill:#062F07;}
	.st224{fill:#274F28;}
	.st225{fill:#BBBEC3;}
	.st226{fill:#1A4019;}
	.st227{fill:#A7A7A7;}
	.st228{fill:#183C11;}
	.st229{fill:#0D3A10;}
	.st230{fill:#093209;}
	.st231{fill:#B0C767;}
	.st232{fill:#A7C265;}
	.st233{fill:#89B136;}
	.st234{fill:#86B53A;}
	.st235{fill:#466B33;}
	.st236{fill:#1F401E;}
	.st237{fill:#314A29;}
	.st238{fill:#C3496B;}
	.st239{fill:#C34565;}
	.st240{fill:#A3233C;}
	.st241{fill:#AA253D;}
	.st242{fill:#B6BF54;}
	.st243{fill:#B4B1B6;}
	.st244{fill:#5F7054;}
	.st245{fill:#91958B;}
	.st246{fill:#727E6B;}
	.st247{fill:#7C8671;}
	.st248{fill:#C9D267;}
	.st249{fill:#92B534;}
	.st250{fill:#C1D16F;}
	.st251{fill:#F4F5D8;}
	.st252{fill:#97B625;}
	.st253{fill:#E7EDAB;}
	.st254{fill:#97B734;}
	.st255{fill:#A3BD32;}
	.st256{fill:#90988A;}
	.st257{fill:#ADAF4D;}
	.st258{fill:#81AC2E;}
	.st259{fill:#B42140;}
	.st260{fill:#C8D46A;}
	.st261{fill:#AF1739;}
	.st262{fill:#A8C05F;}
	.st263{fill:#C5CCC2;}
	.st264{fill:#D7E873;}
	.st265{fill:#174217;}
	.st266{fill:#C8D0C6;}
	.st267{fill:#E3E6E1;}
	.st268{fill:#E0A9B3;}
</style>
<g>
	<path class="st0" d="M42.92,22.91c0.1,1.51-0.45,2.85-1.3,4.1c-0.22,0.32-0.5,0.59-0.14,1.04c0.92,1.16,1.24,2.58,1.59,3.96
		c0.1,0.39,0.2,0.65,0.62,0.72c2.71,0.43,3.9,3.36,4.04,5.82c0.17,3.02-1.14,5.49-3,7.71c-0.42,0.5-0.56,0.78-0.16,1.37
		c0.83,1.23,0.88,2.61,0.06,3.83c-0.83,1.23-2.15,1.6-3.59,1.27c-1.84-0.42-3.31,0.43-4.53,1.52c-1.77,1.6-3.7,1.74-5.79,1.11
		c-0.52-0.16-0.96-0.24-1.48-0.16c-2.08,0.32-3.78-0.28-4.96-2.1c-0.54-0.83-1.29-0.88-1.75-0.04c-0.91,1.65-2.31,2.36-4.14,2.33
		c-0.29,0-0.52,0.04-0.78,0.21c-1.17,0.76-2.46,0.75-3.8,0.59c-1.28-0.15-2.13-0.8-2.78-1.83c-0.87-1.36-1.77-1.73-3.4-1.43
		c-2.43,0.45-4.72-0.73-5.2-2.69c-0.24-1,0.03-1.92,0.56-2.73c0.34-0.52,0.35-0.76-0.1-1.23C0.16,43.43-0.51,40,0.36,36.2
		c0.4-1.76,1.5-2.9,3.21-3.37c0.72-0.2,1.03-0.54,1.11-1.27c0.13-1.21,0.53-2.34,1.27-3.32c0.36-0.48,0.25-0.82-0.03-1.26
		c-1.98-3.17-1.78-6.33,0.59-9.28c0.18-0.23,0.31-0.42,0.28-0.73c-0.17-1.83,0.29-3.57,0.8-5.3c0.76-2.59,1.72-5.13,2.65-7.66
		c1.26-3.46,4.58-4.85,8.14-3.49c1.58,0.6,3.07,0.63,4.67,0.47c1.22-0.12,2.47-0.23,3.69,0.13c0.5,0.15,0.92-0.01,1.38-0.21
		c1.25-0.56,2.54-0.98,3.93-0.87c2.61,0.21,4.55,1.56,5.31,4c0.86,2.74,2.03,5.36,2.69,8.16c0.09,0.39,0.18,0.78,0.25,1.17
		c0.36,2.14,0.32,4.35,2,6.15C43.02,20.33,43,21.69,42.92,22.91z"/>
	<path d="M42.27,47.19c0.4,0.21,0.84,0.4,1.14,0.8c0.64,0.84,0.8,1.8,0.3,2.69c-0.49,0.87-1.39,1.14-2.38,0.91
		c-1.55-0.37-2.9-0.04-4.25,0.84c-0.67,0.43-1.34,0.81-1.94,1.36c-1.03,0.94-3.16,1.04-4.34,0.23c-0.42-0.29-0.71-0.17-1.09-0.07
		c-1.24,0.3-2.46,0.32-3.55-0.48c-0.28-0.21-0.68-0.49-0.72-0.77c-0.27-1.92-1.83-1.18-2.88-1.46c-0.41-0.11-0.56,0.15-0.68,0.47
		c-0.72,1.79-1.93,2.8-3.97,2.46c-0.26-0.04-0.45,0.04-0.67,0.18c-2.36,1.49-4.27,1-5.55-1.39c-0.4-0.75-2.66-1.53-3.81-1.27
		c-0.93,0.21-1.82,0.12-2.72-0.11c-0.88-0.23-1.55-0.73-1.62-1.69c-0.07-0.9,0.16-1.75,1.01-2.28c0.26-0.16,0.52-0.31,0.8-0.48
		c-0.59-0.58-1.17-1.13-1.72-1.71c-2.35-2.48-2.81-5.47-2.23-8.69c0.29-1.61,1.34-2.61,2.95-2.9c0.84-0.15,1.36-0.31,1.37-1.42
		c0-1.53,0.62-2.97,1.63-4.15c0.42-0.5,0.41-0.79-0.02-1.28c-1.66-1.92-1.89-4.14-1.23-6.51c0.16-0.55,0.36-1.12,0.81-1.43
		c1.07-0.76,1.12-1.78,1.04-2.93c-0.11-1.5,0.38-2.92,0.81-4.32c0.76-2.46,1.66-4.87,2.51-7.3c0.98-2.79,3.65-4,6.42-2.92
		c1.87,0.73,3.66,0.86,5.59,0.62c1.13-0.14,2.31-0.2,3.45,0.16c0.56,0.18,1.09,0.04,1.61-0.24c0.85-0.45,1.75-0.77,2.71-0.85
		c2.41-0.21,4.55,0.98,5.21,3.34c0.74,2.65,1.89,5.14,2.57,7.8c0.4,1.6,0.62,3.21,0.53,4.86c-0.02,0.38,0.01,0.63,0.33,0.93
		c2.58,2.39,2.83,5.66,0.63,8.58c-0.49,0.65-0.66,1.03-0.04,1.74c1.04,1.2,1.5,2.71,1.63,4.28c0.05,0.63,0.24,0.9,0.87,1
		c2.69,0.41,3.36,1.96,3.68,4.43c0.39,2.97-0.97,5.41-2.89,7.56C43.17,46.23,42.73,46.69,42.27,47.19z"/>
	<path class="st1" d="M12.89,51.81c-1.37-0.27-2.41-1.4-3.93-1.4c-0.8,0-1.54,0.31-2.35,0.2c-0.75-0.1-1.63-0.04-1.85-0.93
		c-0.23-0.97,0.63-1.26,1.33-1.54c0.48-0.19,0.98-0.31,1.49-0.4c0.38-0.06,0.35-0.22,0.21-0.47c-0.01-0.27-0.07-0.57,0.32-0.63
		c0.42,0.01,0.73,0.24,1.06,0.45c0.31,0.25,0.73,0.42,0.63,0.95c-0.09,0.16-0.22,0.27-0.4,0.33c-1.15,0.15-2.37,0.08-3.34,0.97
		c2.1,0.1,4.21,0.52,6.23-0.46c0.47-0.08,0.95,0.11,1.4-0.07c-0.37-0.61-0.97-1.09-0.95-1.89c0.13-0.31,0.31-0.52,0.69-0.4
		c0.56,0.48,0.84,1.14,1.14,1.78c0.52,1.12,0.42,1.26-0.9,1.42c-0.44,0.01-0.88-0.05-1.31,0.09c-0.2,0.09-0.44,0.15-0.41,0.45
		c0.04,0.13,0.11,0.25,0.2,0.35c0.21,0.2,0.47,0.18,0.73,0.17c0.34,0,0.73-0.25,1.01,0.17c0.04,0.33-0.2,0.58-0.24,0.88
		c-0.04,0.2-0.07,0.41-0.16,0.6c-0.06,0.09-0.14,0.15-0.25,0.16C12.8,52.48,13.13,52.02,12.89,51.81z"/>
	<path class="st2" d="M23.69,50.11c-0.87-0.06-1.74-0.12-2.61-0.18c-0.43-0.07-0.9-0.2-0.99-0.64c-0.06-0.32,0.37-0.41,0.66-0.5
		c0.12-0.02,0.24-0.01,0.36,0.02c0.48,0.28,1.03,0.28,1.55,0.4c1.43,0.18,2.85,0.12,4.28,0.03c0.16-0.07,0.31-0.15,0.46-0.23
		c0.48-0.21,0.72-0.67,1.01-1.07c1.37-2.2,2.18-4.6,2.63-7.13c0.25-1.52,0.64-3.02,0.91-4.53c0.07-0.37,0.12-0.81,0.63-0.9
		c0.64,0.24,0.53,0.8,0.55,1.29c0.03,1.03-0.29,2-0.49,2.99c-0.11,0.43-0.25,0.85-0.33,1.29c-0.66,2.54-1.38,5.06-2.77,7.33
		c-0.1,0.17-0.25,0.38-0.12,0.55c0.87,1.11-0.1,1.05-0.73,1.1c-0.69,0.05-1.23,0.27-1.58,0.89c-0.48,0.21-0.41-0.28-0.59-0.45
		l0.01,0.01C25.65,49.67,24.65,50.05,23.69,50.11z"/>
	<path class="st3" d="M20.8,49.01c-1.2,0.69,0.64,0.49,0.27,0.93c-0.29,2.38-1.15,3.16-3.41,2.93c-0.55-0.06-0.79,0.3-1.14,0.51
		c-1.45,0.89-2.14,0.84-3.44-0.33c-0.14-0.27,0.06-0.38,0.23-0.5l0.06-0.04c0.38-0.15,0.75,0,1.12,0.07
		c0.44,0.14,0.87,0.21,1.29-0.06c0.38-0.25,0.57-0.76,1.11-0.79c0.36,0.07,0.58,0.42,0.95,0.48c0.34,0.07,0.7,0.03,1.04,0.12
		c0.04,0.01,0.07,0.03,0.11,0.04c0-0.04,0-0.08,0-0.12c0-0.09,0.01-0.18,0.04-0.27c0.16-0.31,0.46-0.51,0.59-0.84
		c0.2-0.86-0.96-1.12-0.85-1.95c0.1-0.3,0.3-0.5,0.58-0.63c0.17-0.06,0.35-0.06,0.53-0.03C20.23,48.64,20.63,48.61,20.8,49.01z"/>
	<path class="st4" d="M26.53,50.38c0.17,0.16,0.35,0.32,0.52,0.47c0.2,0.11,0.32,0.29,0.45,0.47c0.65,0.79,1.5,0.32,2.27,0.35
		c0.32,0.03,0.63,0.04,0.95-0.03c0.43-0.03,0.72,0.24,1.02,0.48c0.66,0.52,1.31,0.45,1.95-0.01c0.34-0.28,0.12-0.7,0.25-1.03
		c0.08-0.09,0.17-0.15,0.28-0.2c0.47-0.13,0.95-0.11,1.42-0.04c0.35,0.09,0.71,0.17,0.96,0.48c-0.83,0.34-1.76,0.4-2.19,1.5
		c-0.25,0.64-2.28,0.7-2.97,0.15c-0.64-0.5-1.21-0.61-1.93-0.23c-0.31,0.16-0.69,0.21-1.04,0.23C26.83,53.07,26.04,52,26.53,50.38z"
		/>
	<path class="st5" d="M18.62,3.14c1.13,0.58,2.32,0.48,3.51,0.33c1.51-0.18,3.01-0.29,4.51,0.05c0.93,0.21,1.72-0.11,2.51-0.51
		c0.38-0.19,0.83-0.27,1.24-0.4c0.21,0.14,0.64,0.08,0.49,0.55c-0.25,0.29-0.6,0.38-0.95,0.45c-0.51,0.03-0.91,0.29-1.3,0.59
		c-0.59,0.45-1.26,0.45-1.95,0.34c-1.99-0.29-3.98-0.2-5.97-0.06c-0.9,0.13-1.73,0-2.38-0.72C18.24,3.48,18.31,3.26,18.62,3.14z"/>
	<path class="st6" d="M9.26,27.1c-2.82-1.84-3.05-6.47-0.54-8.17c0.16-0.11,0.35-0.18,0.52-0.26c0.27-0.13,0.41,0.04,0.54,0.24
		c0.04,0.65-0.56,0.87-0.85,1.3c-0.34,0.23-0.51,0.6-0.76,0.91C8.09,21.17,8,21.21,7.91,21.25c-0.38,1.06-0.36,1.76,0.08,2.9
		c0.72,0.83,1.48,1.63,1.84,2.7C9.69,27.07,9.53,27.21,9.26,27.1z"/>
	<path class="st7" d="M35.89,7.64c0.9,2.19,1.94,4.34,2.16,6.74c-0.3,0.26,0.22,0.92-0.48,0.98c-0.25-0.22-0.32-0.52-0.42-0.81
		c-0.23-1.33-0.63-2.62-1.08-3.89c-0.3-1.13-1.25-2.1-0.76-3.41C35.84,6.87,35.72,7.47,35.89,7.64z"/>
	<path class="st8" d="M38.61,18.9c2.14,1.26,2.67,4.21,1.15,6.51c-0.54-0.02-0.38-0.41-0.31-0.68c0.12-0.43,0.27-0.84,0.09-1.28
		c-0.08-0.35-0.1-0.7-0.09-1.06c0.01-1.36-0.57-2.34-1.83-2.9c-0.08-0.11-0.1-0.22-0.04-0.35C37.86,18.81,38.21,18.74,38.61,18.9z"
		/>
	<path class="st9" d="M40.68,34.76c0.09,0.23,0.29,0.23,0.48,0.24c0.51-0.17,1.02-0.15,1.54-0.01c0.3,0.1,0.59,0.19,0.89,0.29
		c0.29,0.48-0.09,0.61-0.41,0.78c-0.24,0.05-0.45-0.03-0.66-0.12c-0.53-0.2-1.06-0.24-1.59-0.01c-0.18,0.12-0.32,0.3-0.54,0.37
		c-0.12-0.01-0.22-0.06-0.3-0.15c-0.17-0.26-0.27-0.55-0.35-0.85c-0.14-1.56-0.03-3.14-0.39-4.68c0.1-0.29,0.28-0.46,0.61-0.39
		c0.36,0.76,0.7,1.54,0.71,2.4C40.54,33.33,40.54,34.04,40.68,34.76z"/>
	<path class="st10" d="M35.89,7.64c-0.15-0.16-0.29-0.31-0.44-0.47c-0.21-0.1-0.33-0.28-0.44-0.47c-0.44-0.9-0.59-1.97-1.59-2.52
		c-0.14-0.1-0.26-0.21-0.38-0.33c-0.55-0.74-1.58-0.15-2.17-0.77c-0.16-0.15-0.32-0.31-0.48-0.46c1.87-0.6,3.52,0.01,4.45,1.67
		C35.44,5.32,35.78,6.45,35.89,7.64z"/>
	<path class="st11" d="M44.53,42.2c-0.82,2.01-2.3,3.43-4.04,4.64c-0.42-0.62,0.21-0.92,0.41-1.36c0.29-0.39,0.6-0.77,0.89-1.16
		c0.32-0.28,0.52-0.63,0.71-1c0.39-0.57,0.79-1.13,1.12-1.74c0.13-0.19,0.27-0.36,0.52-0.4C44.71,41.35,44.42,41.85,44.53,42.2z"/>
	<path class="st12" d="M5.44,45.57c-1.43-1.39-2.7-2.89-2.9-5c-0.21-0.76-0.05-1.53-0.09-2.29c0.04-0.15,0.14-0.22,0.29-0.22
		c0.65,0.62,0.22,1.47,0.46,2.17c0.08,0.16,0.16,0.31,0.24,0.47c0.42,0.97,0.99,1.86,1.41,2.83c0.07,0.51,0.43,0.83,0.71,1.22
		C5.83,45.12,5.81,45.13,5.44,45.57z"/>
	<path class="st13" d="M43.12,35.88c0.2-0.17,0.51-0.25,0.48-0.61c1.05,0.22,1.24,1.1,1.42,1.94c0.23,1.02,0.5,2.06,0.05,3.1
		c-0.83-0.68-0.16-1.51-0.38-2.13c-0.09,0.3,0.04,0.79-0.02,1.25c-0.04,0.32,0.2,0.75-0.31,0.9c-0.55-0.51-0.31-1.19-0.36-1.8
		c-0.04-0.43,0.04-0.87-0.09-1.3C43.82,36.68,43.28,36.39,43.12,35.88z"/>
	<path class="st14" d="M9.3,18.2c-0.27-2.47,0.06-4.86,0.96-7.18c0.51-0.01,0.48,0.43,0.61,0.73c0.06,0.3-0.03,0.58-0.07,0.87
		c-0.06,0.58-0.23,1.14-0.35,1.71c-0.14,0.37-0.13,0.78-0.31,1.14c-0.06,0.09-0.15,0.15-0.25,0.17c-0.23,0.51,0.04,1.05-0.07,1.56
		C9.74,17.59,9.93,18.11,9.3,18.2z"/>
	<path class="st15" d="M36.6,51.32c-0.36,0.05-0.67-0.11-0.98-0.26c-0.04-0.1-0.05-0.2-0.02-0.3c0.19-0.36,0.17-0.67-0.25-0.85
		c-0.56-0.25-1.16-0.14-1.73-0.2c-1.03-0.12-1.15-0.43-0.51-1.32c0.19-0.05,0.37,0,0.55,0.07c0.3,0.15,0.62,0.18,0.94,0.14
		c1.14-0.14,2.01,0.32,2.73,1.16c0.37,0.53-0.66,0.43-0.42,0.91C36.9,50.93,36.89,51.19,36.6,51.32z"/>
	<path class="st16" d="M41.19,45.56c-0.16,0.46-0.79,0.67-0.7,1.28c-0.22,0.26-0.44,0.52-0.7,0.83c0.35,0.12,0.63,0.22,0.92,0.32
		c0.08,0.12,0.06,0.22-0.04,0.31c-0.74,0.45-1.51-0.09-2.25,0.08c-0.12,0.02-0.23,0.03-0.35,0.03c-0.25-0.02-0.46-0.09-0.57-0.34
		c-0.03-0.11-0.02-0.23,0.01-0.34c0.23-0.33,0.63-0.43,0.92-0.68c0.33-0.27,0.69-0.52,1.04-0.77
		C40.06,46.08,40.37,45.23,41.19,45.56z"/>
	<path class="st17" d="M18.62,3.14c-0.08,0.15-0.15,0.29-0.23,0.44c-0.2,0.18-0.45,0.18-0.68,0.1c-1.18-0.41-2.36-0.27-3.54-0.02
		c-0.28-0.1-0.43-0.28-0.34-0.59C15.45,1.82,17.03,2.42,18.62,3.14z"/>
	<path class="st18" d="M7.1,31.62c0.02-0.15,0.04-0.29,0.05-0.44c0.45-0.01,0.55,0.33,0.68,0.65c0.13,1.21,0.17,2.42-0.01,3.64
		c-0.14,0.38-0.46,0.39-0.79,0.4c-0.86-0.14-1.72-0.01-2.58,0.08c-0.43-0.06-0.59-0.3-0.47-0.71C4.16,35,4.42,35,4.68,34.99
		c0.11-0.05,0.22-0.09,0.34-0.1c2.13-0.1,2.12-0.1,2.1-2.2C7.12,32.34,7.04,31.98,7.1,31.62z"/>
	<path class="st19" d="M5.44,45.57c0.45-0.44-0.09-0.59-0.25-0.84c-0.22-0.33-0.72-0.53-0.47-1.07c0.35-0.15,0.52,0.12,0.71,0.33
		c0.53,0.8,1.39,1.24,2.06,1.89c0.26,0.26,0.71,0.39,0.62,0.89C8,46.93,7.9,47.1,7.79,47.28C6.84,46.93,6.18,46.2,5.44,45.57z"/>
	<path class="st20" d="M3.98,35.24c0.26,0.08,0,0.47,0.31,0.52c-0.57,1.33-0.78,2.72-0.71,4.17c0.02,0.31-0.05,0.64-0.35,0.84
		c-0.07-0.08-0.14-0.16-0.2-0.25c-0.32-0.77,0.11-1.62-0.24-2.4c-0.07,0-0.15-0.01-0.22-0.01c-0.08-0.05-0.11-0.1-0.09-0.17
		c0.02-0.06,0.04-0.1,0.06-0.1C2.54,36.72,2.71,35.68,3.98,35.24z"/>
	<path class="st21" d="M9.26,27.1c0.15-0.08,0.29-0.17,0.44-0.25c0.47,0.03,0.76,0.41,1.17,0.56c0.77,0.95,1.96,1.27,2.92,1.94
		c0.17,0.19,0.24,0.4,0.1,0.65c-1.33,0.31-2.21-0.64-3.24-1.15c-0.24-0.15-0.5-0.28-0.7-0.49c-0.22-0.22-0.02-0.55-0.18-0.79
		C9.59,27.41,9.42,27.26,9.26,27.1z"/>
	<path class="st22" d="M38.61,18.9c-0.31,0.09-0.62,0.17-0.93,0.26c-0.06-0.04-0.12-0.08-0.18-0.12c-0.43-0.81-0.17-1.68-0.23-2.52
		c0.03-0.43-0.03-0.88,0.36-1.2c0.14-0.31,0.28-0.63,0.43-0.94c0.2,1.17,0.38,2.35,0.1,3.54C38.04,18.39,38.24,18.67,38.61,18.9z"/>
	<path class="st23" d="M9.75,27.57c0.27,0.14,0.24,0.4,0.24,0.64c0.01,0.18-0.06,0.33-0.17,0.47c-0.72,0.65-1.32,1.38-1.67,2.29
		c-0.11,0.29-0.22,0.61-0.6,0.67c-0.13-0.15-0.27-0.31-0.4-0.46C7.51,29.61,8.57,28.55,9.75,27.57z"/>
	<path class="st24" d="M10.7,11.73c-0.15-0.24-0.3-0.47-0.44-0.71c0.47-1.13,0.94-2.25,1.4-3.38c0.61,0.02,0.48,0.51,0.54,0.87
		C11.87,9.66,11.56,10.82,10.7,11.73z"/>
	<path class="st25" d="M40.72,48.21c0-0.08,0-0.15,0-0.23c0.45,0.14,0.93,0.23,1.35,0.44c0.6,0.29,0.92,0.8,0.68,1.47
		c-0.22,0.59-0.73,0.68-1.29,0.5c-0.42-0.13-0.89,0.06-1.27-0.24c0.27-0.37,0.72-0.28,1.07-0.45c0.38-0.18,0.61-0.4,0.2-0.78
		C41.2,48.7,40.82,48.6,40.72,48.21z"/>
	<path class="st26" d="M39.77,23.49c0.75,0.64-0.53,1.28-0.01,1.92c-0.25,0.61-0.62,1.12-1.21,1.43c-0.26,0.11-0.41-0.03-0.54-0.23
		c-0.06-0.36,0.18-0.61,0.34-0.89c0.39-0.56,0.71-1.16,1-1.77C39.45,23.76,39.56,23.58,39.77,23.49z"/>
	<path class="st27" d="M13.83,3.08c0.08,0.15,0.16,0.3,0.24,0.46c-0.04,0.48-0.37,0.82-0.55,1.24c-0.2,0.28-0.37,0.57-0.42,0.92
		c-0.03,0.1-0.07,0.19-0.13,0.27c-0.07,0.07-0.16,0.13-0.26,0.15c-0.1,0.01-0.21,0-0.31-0.04C12.26,6,12.17,5.89,12.14,5.72
		C12.3,4.58,12.86,3.7,13.83,3.08z"/>
	<path class="st28" d="M44.34,40.29c0.5-0.73,0.01-1.62,0.33-2.45c0.38,0.83-0.21,1.75,0.41,2.47c-0.03,0.67-0.2,1.3-0.54,1.88
		c-0.14-0.31-0.28-0.63-0.43-0.94c-0.09-0.07-0.14-0.17-0.16-0.28C43.96,40.68,44.06,40.43,44.34,40.29z"/>
	<path class="st29" d="M38.02,26.58c0.18,0.09,0.35,0.18,0.53,0.26c-0.31,0.48-1.19,0.96-0.02,1.46c-0.07,0.23-0.23,0.34-0.46,0.37
		c-0.1,0-0.2-0.01-0.3-0.05c-0.32-0.22-0.66-0.06-0.99-0.03c-0.24-0.08-0.31-0.27-0.33-0.5c0-0.11,0.03-0.22,0.07-0.33
		C36.94,27.28,37.26,26.65,38.02,26.58z"/>
	<path class="st30" d="M41.44,49.91c-0.36,0.37-0.84,0.14-1.25,0.24c-0.49-0.06-0.98-0.21-1.41,0.22c-0.54,0.54-1.3-0.07-1.88,0.3
		c-0.39-0.57,0.32-0.5,0.45-0.76c0.08-0.09,0.18-0.14,0.29-0.16c0.59,0.15,1.1-0.12,1.63-0.3C40.01,49.51,40.79,49.4,41.44,49.91z"
		/>
	<path class="st31" d="M7.1,31.62c0.48,0.91,0.19,1.88,0.24,2.83c0.02,0.5-0.35,0.56-0.74,0.56C5.96,35,5.32,35,4.68,34.99
		c0.4-0.35,0.89-0.19,1.34-0.22c0.37-0.02,0.82,0.1,0.87-0.5c0.18-0.47,0.16-0.94,0.01-1.41C6.9,32.44,6.77,32,7.1,31.62z"/>
	<path class="st32" d="M38.07,28.53c0.15-0.08,0.31-0.15,0.46-0.23c0.72,0.46,1.12,1.16,1.44,1.92c-0.15,0.08-0.3,0.15-0.45,0.23
		c-0.61,0.07-0.58-0.55-0.89-0.8C38.43,29.28,37.92,29.07,38.07,28.53z"/>
	<path class="st33" d="M9.3,18.2c0.47-0.89,0.1-1.85,0.22-2.77c0-0.03,0.04-0.05,0.07-0.08c0.06,0.07,0.11,0.15,0.17,0.22
		c0.54,1.04,0.37,2.12,0.15,3.2c-0.05,0.05-0.1,0.11-0.15,0.16c-0.17-0.09-0.34-0.18-0.51-0.26C9.26,18.51,9.28,18.35,9.3,18.2z"/>
	<path class="st34" d="M23.69,50.11c0.9-0.46,1.85-0.17,2.77-0.19c0.29-0.01,0.11,0.29,0.07,0.46
		C25.61,50.01,24.63,50.21,23.69,50.11z"/>
	<path class="st35" d="M2.54,37.86c0.01,0.09,0.02,0.17,0.03,0.26c-0.01,0.82-0.02,1.63-0.03,2.45C2.23,39.66,2.19,38.76,2.54,37.86
		z"/>
	<path class="st24" d="M12.14,5.72c0.09,0.1,0.19,0.2,0.28,0.3c0.09,0.19,0.03,0.38-0.01,0.57c-0.03,0.15-0.08,0.29-0.14,0.43
		c-0.14,0.19-0.22,0.49-0.56,0.38C11.72,6.81,11.85,6.25,12.14,5.72z"/>
	<path class="st36" d="M40.68,34.76c-0.33-0.71-0.32-1.42,0-2.13C40.8,33.33,40.82,34.04,40.68,34.76z"/>
	<path class="st27" d="M11.7,7.4c0.15-0.16,0.29-0.32,0.44-0.48c0.42,0.63,0.61,1.24-0.2,1.72c-0.06-0.34,0.1-0.75-0.27-1.01
		C11.68,7.56,11.69,7.48,11.7,7.4z"/>
	<path class="st37" d="M13.33,52.54c-0.08,0.17-0.16,0.33-0.23,0.5c-0.41-0.36-0.34-0.79-0.2-1.23
		C13.04,52.06,13.18,52.3,13.33,52.54z"/>
	<path class="st38" d="M42.7,34.99c-0.51,0-1.03,0.01-1.54,0.01C41.68,34.64,42.19,34.74,42.7,34.99z"/>
	<path class="st39" d="M6.9,32.87c0.33,0.47,0.34,0.95-0.01,1.41C6.9,33.81,6.9,33.34,6.9,32.87z"/>
	<path class="st40" d="M18.91,49.16c0.09,0.42,0.43,0.64,0.7,0.94c0.3,0.33,0.72,0.71,0.25,1.23c-0.63,0.21-1.04,1.11-1.89,0.61
		c-0.08-0.06-0.15-0.14-0.18-0.24c-0.07-0.14-0.01-0.36-0.22-0.42c-0.12,0.08-0.18,0.2-0.25,0.31c-0.1,0.12-0.21,0.2-0.37,0.2
		c-0.32,0.32-0.63,0.65-0.95,0.97c-0.33-0.11-0.67,0.08-1,0c-0.29-0.05-0.54-0.16-0.72-0.41c0.09-0.5,0.6-1.15-0.44-1.27
		c-0.3-0.49-0.65,0.15-0.97-0.04c-0.05-0.14-0.02-0.29-0.01-0.42c-0.39-0.13-0.8-0.11-1.18-0.25c-0.3-0.55,0.03-0.68,0.49-0.73
		c0.27-0.19,0.57-0.08,0.85-0.1c0.43,0.21,0.9,0.24,1.5,0.27c-0.39-0.08-0.67,0-0.92-0.11c-0.08-0.1-0.06-0.2,0.03-0.28
		c0.34,0,0.69,0,1.2,0c-0.56-1.07-1.03-1.98-1.5-2.88c-0.69-0.31-1.03-0.9-1.28-1.57c0.01-0.42-0.14-0.8-0.35-1.15
		c-0.15-0.3-0.27-0.61-0.23-0.95c0.14-0.51,0.39-0.57,0.71-0.15c0.29,0.38,0.36,0.88,0.65,1.28c0.27-1.54,0.59-3.05,0.83-4.58
		c0.07-0.44,0.18-0.99,0.88-0.89c0.1,0.06,0.19,0.14,0.26,0.23c0.47,0.97,0.56,2.06,0.89,3.07c0.08,0.34,0.18,0.68,0.2,1.04
		c0.02,0.38,0.2-0.18,0.28,0.02C17.08,44.98,18.11,47.02,18.91,49.16z"/>
	<path class="st41" d="M12.86,47.04c0.39,0.62,0.78,1.24,1.17,1.86c-0.51,0.36-1.15-0.04-1.67,0.26c-0.83-0.16-1.27,0.76-2.07,0.74
		c-1.33-0.02-2.66-0.26-3.99,0c-0.32,0.06-0.76,0.09-0.84-0.42c-0.08-0.47,0.29-0.62,0.61-0.76c1.1-0.47,2.24-0.78,3.45-0.53
		c0.19-0.11,0.38,0,0.56,0.01c0.09,0.02,0.12-0.01,0.07-0.1c-0.02-0.03-0.05-0.04-0.09-0.04c-0.08-0.04-0.14-0.1-0.18-0.18
		c-0.12-0.42-0.49-0.58-0.81-0.8c-0.53-0.52-1.41-0.69-1.59-1.57c0.01-0.04,0.02-0.1,0.05-0.11c0.68-0.26,1.35-0.95,1.75-1.83
		c0.13-0.28,0.22-0.65,0.61-0.65c0.32,0,0.43,0.32,0.58,0.55c0.28,0.43,0.37,0.98,0.89,1.23C12.13,45.31,12.53,46.15,12.86,47.04z"
		/>
	<path class="st42" d="M12.86,47.04c-0.77-0.58-0.93-1.6-1.64-2.22c-0.58-0.43-0.71-1.1-0.87-1.74c0.15-0.34,0.46-0.21,0.72-0.24
		c0.51,0.14,0.52,0.64,0.73,0.99c0.12,0.34,0.46,0.6,0.38,1.02c0.38,0.57,0.77,1.13,1.15,1.7C13.17,46.7,13.02,46.87,12.86,47.04z"
		/>
	<path class="st43" d="M7.59,45.59c0.42,0.65,1.14,0.93,1.68,1.43c0.05,0.22,0.01,0.35-0.26,0.25c-0.3-0.17-0.61-0.34-0.91-0.51
		c-0.91-0.93-2.13-1.53-2.87-2.65c0.17-0.47-0.74-0.7-0.27-1.23c0.38-0.08,0.61,0.18,0.85,0.41C6.28,44.14,7.21,44.65,7.59,45.59z"
		/>
	<path class="st44" d="M13.83,51.08c0.39-0.17,0.82-0.43,1.1,0.11c0.32,0.61-0.34,0.75-0.6,1.08c-0.54,0.37-0.71-0.07-0.93-0.42
		C13.39,51.5,13.53,51.24,13.83,51.08z"/>
	<path class="st45" d="M13.41,51.85c0.32,0.12,0.52,0.51,0.93,0.42c0.23,0.1,0.45,0.2,0.68,0.3c0.01,0.47-0.29,0.29-0.52,0.24
		c-0.41,0.05-0.75-0.14-1.11-0.3C13.32,52.28,13.27,52.06,13.41,51.85z"/>
	<path class="st46" d="M11.67,50.37c0.49-0.37,0.97,0.04,1.45,0.04c0.01,0,0.04,0.07,0.04,0.1c0,0.03-0.04,0.07-0.06,0.1
		c-0.41,0.25-0.83,0.3-1.24-0.01C11.8,50.53,11.74,50.45,11.67,50.37z"/>
	<path class="st47" d="M11.87,50.61c0.41,0,0.83,0,1.24,0.01c-0.08,0.14-0.16,0.29-0.24,0.43C12.48,51.03,12,51.2,11.87,50.61z"/>
	<path class="st1" d="M12.36,49.16c0.51-0.4,1.12-0.14,1.67-0.26C13.55,49.46,12.92,49.05,12.36,49.16z"/>
	<path class="st48" d="M9.01,47.27c0.09-0.08,0.17-0.17,0.26-0.25c0.37,0.19,0.7,0.42,0.72,0.9c-0.05,0.09-0.11,0.1-0.17,0
		C9.55,47.7,9.28,47.49,9.01,47.27z"/>
	<path class="st1" d="M13.12,49.66c-0.32-0.01-0.64-0.01-0.96-0.02c0.44-0.42,0.97-0.16,1.47-0.22c-0.03,0.07-0.05,0.14-0.06,0.21
		C13.43,49.79,13.28,49.78,13.12,49.66z"/>
	<path class="st49" d="M9.82,47.92c0.06,0,0.11,0,0.17,0c0.05,0.05,0.12,0.09,0.2,0.1c0.19,0.12,0.16,0.25,0.02,0.39
		c-0.23-0.07-0.45-0.14-0.68-0.21C9.62,48.11,9.72,48.01,9.82,47.92z"/>
	<path class="st50" d="M20.8,49.01c-0.35-0.05-0.73,0-1.03-0.27c-0.28-0.41-0.78-0.5-1.17-0.75c-0.89-1.35-1.65-2.74-1.83-4.38
		c0.14-1.07-0.45-2-0.61-3.01c-0.08-0.51-0.25-1-0.32-1.52c-0.53-1.84-0.65-3.73-0.87-5.61c-0.15-1.34,0.26-1.68,1.53-1.38
		c0.39,0.09,0.77,0.17,1.17,0.09c0.54-0.03,1.02,0.18,1.48,0.4c2.72,1.32,5.62,1.69,8.6,1.63c0.75-0.01,1.49-0.04,2.23,0.06
		c0.14,0.03,0.26,0.1,0.37,0.18c0.1,0.11,0.11,0.24,0.04,0.37c-0.27,0.24-0.6,0.25-0.94,0.27c-0.9,0.03-1.76-0.34-2.36-0.25
		c1.06-0.35,1.5,0.52,1.92,1.59c0.47,1.19,1.26,2.21,2.18,3.11c0.22,0.47-0.18,1,0.13,1.47c-0.58,2.56-1.27,5.07-2.86,7.23
		c-0.48,0.45-0.94,0.95-1.63,1.09c-1.97,0.24-3.91,0.02-5.84-0.37l-0.12,0L20.8,49.01z"/>
	<path class="st51" d="M33.27,48.43c-0.51,0.6-0.66,0.96,0.41,1c0.67,0.02,1.51-0.44,2,0.45c0.3,0.43,0.15,0.72-0.29,0.92
		c-0.45,0.14-1-0.12-1.39,0.31l0.01-0.02c-0.04,0.2-0.74,0-0.31,0.51c0.2,0.24,0.15,0.51-0.12,0.71c-0.67,0.34-1.34,0.31-2-0.02
		c-0.31-0.17-0.61-0.35-0.92-0.52c-0.1-0.03-0.2-0.06-0.3-0.1c-0.36-0.17-0.68,0-1.02,0.07c-0.74,0.16-1.48,0.14-2.11-0.38
		c-0.06-0.17-0.12-0.34-0.18-0.5c-0.15-0.8,0.35-1.03,1-1.16c0.49-0.1,1.03,0.12,1.54-0.22c-0.11-0.36-1.28,0.15-0.64-0.79
		c1.59-2.34,2.29-5.04,3.1-7.71c0.28-0.34,0.25-0.79,0.42-1.17c0.1-0.55,0.32-1.06,0.36-1.63c0.02-0.27,0.09-0.57,0.42-0.66
		c0.36-0.09,0.62,0.1,0.8,0.39c0.38,0.61,0.79,1.2,1.12,1.83c0.48,0.91,1.04,1.17,1.89,0.49c0.11,0.05,0.18,0.14,0.23,0.25
		c0.05,0.17,0.05,0.34,0,0.52c-0.31,0.79-0.76,1.51-1.18,2.24c-0.45,0.89-0.97,1.73-1.45,2.6c-0.29,0.4-0.54,0.81-0.67,1.29
		C33.76,47.57,33.68,48.09,33.27,48.43z"/>
	<path class="st52" d="M37.12,40.29c-0.47,0.17-0.5,0.69-0.86,1.08c-1.08-0.78-1.62-1.95-2.28-3.04c-0.15-0.26-0.21-0.68-0.62-0.62
		c-0.44,0.07-0.23,0.52-0.35,0.78c-0.18,0.43-0.09,0.95-0.45,1.32c-0.08,0.11-0.16,0.12-0.24,0c0.08-1.1,0.55-2.15,0.5-3.27
		c-0.02-0.38,0.12-0.81-0.26-1.1c-0.12-0.25-0.07-0.52-0.05-0.78c0.42-1.43,0.04-2.91,0.29-4.35c0.07-0.2,0.18-0.36,0.38-0.44
		c0.13-0.03,0.26-0.01,0.38,0.06c0.26,0.29,0.28,0.66,0.27,1.02c-0.07,2.04,0.55,3.95,1.15,5.85c0.3,0.94,0.92,1.67,1.54,2.4
		C36.79,39.52,37.26,39.74,37.12,40.29z"/>
	<path class="st53" d="M32.79,35.01c-0.08,0.14-0.16,0.28-0.24,0.43c-0.4,1.86-0.8,3.71-1.2,5.57c-0.42-0.42-0.16-0.96-0.23-1.44
		c0.39-1.93-0.49-3.42-1.68-4.8c0.32,0,0.64,0,0.96,0c0.69-0.52,1.38-0.14,2.07,0.01C32.58,34.85,32.69,34.92,32.79,35.01z"/>
	<path class="st54" d="M21.02,48.96c0.81-0.4,1.59,0.02,2.37,0.09c1.23,0.11,2.44,0.3,3.64-0.12c0.13,0.18,0.42,0.05,0.53,0.27
		c-0.1,0.07-0.2,0.14-0.3,0.21c-1.6,0.2-3.2,0.17-4.8,0.02C22.01,49.23,21.33,49.66,21.02,48.96z"/>
	<path class="st3" d="M22.48,49.42c1.6-0.01,3.2-0.01,4.8-0.02C25.68,49.82,24.08,49.79,22.48,49.42z"/>
	<path class="st55" d="M27.57,49.2c-0.21-0.03-0.42-0.05-0.53-0.27c0.76,0.34,0.78-0.86,1.45-0.69
		C28.25,48.62,28.22,49.2,27.57,49.2z"/>
	<path class="st56" d="M32.32,39.81c0.08,0,0.16,0,0.24,0c-0.08,0.44-0.07,0.93-0.27,1.31c-0.19,0.37-0.15-0.09-0.24-0.15
		C32.05,40.56,32.09,40.16,32.32,39.81z"/>
	<path class="st57" d="M16.96,43.65c0.41,1.54,0.98,3.02,1.91,4.33c0.25,0.19,0.47,0.41,0.48,0.75c-0.15,0.14-0.29,0.28-0.44,0.42
		c-1.36-1.9-2.13-4.08-2.89-6.26c-0.35-0.51-0.38-1.14-0.61-1.69c-0.41-0.96-0.3-2.05-0.8-2.99c-0.18-0.53-0.31-1.07-0.16-1.63
		c0.05-0.37,0.03-0.76,0.28-1.08c0.11-0.08,0.23-0.09,0.36-0.02c0.24,0.26,0.16,0.6,0.23,0.9c0.33,0.94,0.24,1.98,0.66,2.9
		C16.15,40.77,16.86,42.14,16.96,43.65z"/>
	<path class="st58" d="M17.92,51.77c0.5,0.07,0.99,0.16,1.3-0.42c0.14-0.27,0.41-0.35,0.63-0.03c-0.17,0.31-0.36,0.6-0.72,0.74
		c-0.33,0.27-0.71,0.22-1.09,0.21c-0.13-0.02-0.24-0.06-0.35-0.15C17.59,51.89,17.68,51.78,17.92,51.77z"/>
	<path class="st59" d="M19.35,48.74c-0.28-0.17-0.48-0.4-0.48-0.75c0.53-0.02,0.84,0.22,0.91,0.75
		C19.64,48.74,19.49,48.74,19.35,48.74z"/>
	<path class="st60" d="M14.49,52.81c0.17-0.08,0.35-0.16,0.52-0.24c0.33,0.03,0.71-0.18,0.98,0.19C15.5,52.98,15,53.06,14.49,52.81z
		"/>
	<path class="st61" d="M17.68,52.04c0.05,0.04,0.1,0.06,0.16,0.05c0.11,0.01,0.16,0.07,0.15,0.17c-0.07,0.13-0.22,0.17-0.31,0.27
		c-0.34-0.16-0.58-0.41-0.74-0.75c0.09-0.08,0.18-0.16,0.27-0.23C17.63,51.46,17.53,51.87,17.68,52.04z"/>
	<path class="st62" d="M17.68,52.53c0.09-0.09,0.18-0.17,0.27-0.26c0.36-0.16,0.73-0.13,1.09-0.03
		C18.69,52.83,18.12,52.37,17.68,52.53z"/>
	<path class="st63" d="M19.05,52.24c-0.36,0.01-0.73,0.02-1.09,0.03c-0.03-0.06-0.07-0.12-0.11-0.18c0.43-0.01,0.87-0.02,1.3-0.03
		C19.1,52.12,19.07,52.18,19.05,52.24z"/>
	<path class="st64" d="M27.23,51.36c0.96,0.17,1.91,0.38,2.86-0.1c0.27-0.14,0.43,0.08,0.55,0.29c-0.18,0.22-0.41,0.35-0.71,0.32
		C28.98,51.98,27.92,52.68,27.23,51.36z"/>
	<path class="st65" d="M33.74,52.04c-0.13-0.48-0.8-0.61-0.79-1.2c0.45-0.25,0.66,0.39,1.06,0.25c0.12,0.37,0.6,0.76-0.04,1.11
		C33.86,52.2,33.78,52.14,33.74,52.04z"/>
	<path class="st66" d="M33.74,52.04c0.08,0.05,0.16,0.11,0.24,0.16c-0.77,0.74-1.56,0.98-2.39,0.09
		C32.31,52.24,33.06,52.5,33.74,52.04z"/>
	<path class="st67" d="M34,51.11c0.16-0.8,0.78-0.42,1.22-0.47c0.13,0.16,0.39,0.03,0.49,0.24c-0.03,0.07-0.05,0.13-0.09,0.2
		C35.08,51.08,34.54,51.09,34,51.11z"/>
	<path class="st68" d="M29.25,52.4c-0.36,0.2-0.68,0.17-1.06,0.03C28.55,52.23,28.87,52.25,29.25,52.4z"/>
	<path class="st69" d="M29.93,51.86c0.24-0.11,0.47-0.21,0.71-0.32c0.01,0.08,0.02,0.15,0.03,0.23
		C30.46,52.08,30.22,52.14,29.93,51.86z"/>
	<path class="st70" d="M13.35,4.72c0.08-0.5,0.33-0.88,0.72-1.19c1.45-0.79,2.89-0.44,4.32,0.05c0.61,0.54,1.35,0.68,2.13,0.69
		c0.35-0.13,0.7-0.22,1.02,0.07c-0.39,0.77-1.13,0.52-1.75,0.6c-0.34,0.05-0.78-0.38-0.88,0.4c-0.04,0.35-0.44,0.06-0.66-0.09
		c-0.21-0.18-0.37-0.41-0.59-0.58c-1-0.53-2-0.43-3,0.02c-0.48,0.13-0.76,0.77-1.38,0.52C13.21,5.04,13.24,4.88,13.35,4.72z"/>
	<path class="st71" d="M21.52,4.53c-0.26-0.36-0.65-0.2-0.99-0.25c2.02-0.46,4.06-0.34,6.08-0.07c0.78,0.1,1.48,0.15,2.1-0.41
		c0.23-0.13,0.29,0.03,0.33,0.21c-0.07,0.31-0.29,0.51-0.49,0.73c-0.23,0.22-0.48,0.41-0.83,0.4c-1.8-0.24-3.59-0.68-5.43-0.37
		C22,4.81,21.73,4.76,21.52,4.53z"/>
	<path class="st72" d="M30.88,3.07c0.82,0.22,1.91-0.45,2.45,0.73c-0.26,0.1-0.45,0.25-0.41,0.57c-0.04,0.11-0.11,0.18-0.21,0.22
		c-0.93-0.33-1.81-0.82-2.84-0.78c-0.09-0.17-0.09-0.33,0.05-0.47C30.24,3.25,30.56,3.16,30.88,3.07z"/>
	<path class="st73" d="M29.92,3.34c0,0.12,0,0.24,0,0.36c-0.07,0.37-0.39,0.36-0.66,0.44c-0.12,0-0.22-0.04-0.31-0.12
		c-0.08-0.08-0.17-0.15-0.25-0.23C29.04,3.45,29.44,3.3,29.92,3.34z"/>
	<path class="st40" d="M13.62,29.44c-1.04-0.49-2.22-0.75-2.87-1.84c-1.14-1.39-2.58-2.63-2.52-4.67c0.01-0.52-0.02-1.04,0.03-1.55
		c0.06-0.47,0.21-0.9,0.53-1.26c0.15-0.54,0.71-0.74,0.96-1.19c0,0,0.01,0.01,0.01,0.01c0.07-0.08,0.14-0.15,0.21-0.23
		c0.28-0.39,0.17-0.83,0.19-1.26c0.15-1.8,0.5-3.56,0.78-5.33c0.23-1.09,0.54-2.14,1.26-3.02c0.76-0.17,0.7,0.41,0.72,0.85
		c0.02,0.31-0.27,0.55-0.35,0.85c-0.02,0.11-0.05,0.21-0.08,0.31c-0.17,0.36-0.07,0.74-0.06,1.11c-0.19,1.13-0.37,2.27,0.25,3.34
		c0.44,0.68,1.17,0.9,1.87,1.2c0.6,0.26,1.36,0.23,1.74,0.89c-0.02,0.08-0.07,0.17-0.14,0.16c-0.15-0.04-0.25,0.04-0.11,0
		c0.59-0.19,1.31,0.11,1.78-0.48c0.74-0.76,1.11-1.8,1.88-2.52c0.52-1.01,0.49-1.97-0.22-2.88c-0.28-0.14-0.61-0.22-0.69-0.59
		c0.02-0.16,0.11-0.29,0.18-0.43c0.1-0.58-0.48-0.78-0.68-1.19C18.12,9.34,18,8.89,18.59,9c2.22,0.43,4.18-0.63,6.26-0.99
		c0.55-0.09,1.09-0.23,1.64-0.07c1.29,0.38,1.66,1.1,1.27,2.48c0.02,0.22,0.07,0.44,0.06,0.66c-0.09,0.36-0.42,0.5-0.67,0.71
		c-0.85,1.21-0.72,2.59,0.34,3.6c0.79,1.46,2.31,1.46,3.65,1.8c-0.26,1.11,0.06,2.28-0.35,3.36c-0.28,0.73,0.46,1.47-0.08,2.17
		c-1.09,0.51-2.24,0.34-3.38,0.38c-0.82,0.03-1.66-0.11-2.47,0.16c-1.69,0.22-3.4-0.08-5.09,0.19c-0.27,0.07-0.54,0.1-0.82,0.1
		c-0.26,0-0.53-0.02-0.78-0.08c-0.84-0.2-1.7-0.28-2.54-0.47c-0.33-0.1-0.68-0.18-1.02-0.26c-0.32-0.11-0.65-0.17-0.97-0.26
		c-0.26-0.08-0.52-0.17-0.78-0.25c-0.51-0.19-1.04-0.34-1.27-0.91c-0.18-0.15-0.34-0.52-0.59-0.05c-0.44,0.39-0.59,0.75,0.12,1.01
		c1.15,2.06,1.71,4.35,2.62,6.5C13.84,28.99,13.81,29.25,13.62,29.44z"/>
	<path class="st74" d="M8.55,23.01c-0.18,1.52,0.94,2.45,1.61,3.59c0.2,0.33,0.58,0.55,0.59,1c-0.53,0-0.71-0.49-1.06-0.74
		c-0.62-0.89-1.23-1.77-1.85-2.66C7.54,23.62,7.6,23,7.62,22.39c0.11-0.46,0.12-0.95,0.44-1.33c0.09-0.44,0.15-0.89,0.73-0.94
		c-0.08,0.41-0.16,0.81-0.24,1.22C8.36,21.89,8.36,22.45,8.55,23.01z"/>
	<path class="st75" d="M7.85,22.28c0,0.64,0,1.28-0.01,1.91c-0.61-0.82-0.7-2.39-0.17-3.14c0.01-0.02,0.08-0.01,0.11,0.01
		c0.03,0.02,0.06,0.05,0.09,0.08C7.99,21.53,8.02,21.91,7.85,22.28z"/>
	<path class="st76" d="M7.85,22.28c0.01-0.38,0.01-0.76,0.02-1.14c0.07-0.03,0.13-0.06,0.19-0.1C8.03,21.47,8.23,21.93,7.85,22.28z"
		/>
	<path class="st77" d="M36.34,10.55c0.48,1.31,1,2.62,1.02,4.05c0,0.07,0,0.13-0.01,0.2c-0.01,0.58,0.02,1.17-0.02,1.75
		c-0.02,0.32,0.06,0.76-0.51,0.7c-0.52-0.71-0.11-1.57-0.41-2.32c-0.11-0.44-0.1-0.9-0.26-1.33c-0.13-0.83-0.41-1.65-0.29-2.51
		C35.95,10.84,35.98,10.55,36.34,10.55z"/>
	<path class="st78" d="M36.34,10.55c-0.07,0.16-0.14,0.32-0.2,0.49c-0.86-0.62-1.19-1.52-1.36-2.51c0.2-0.6-0.1-1.31,0.41-1.84
		c0.09,0.16,0.17,0.32,0.26,0.47C35.18,8.45,36.06,9.42,36.34,10.55z"/>
	<path class="st77" d="M37.62,15.32c-0.02,0.4-0.04,0.8-0.06,1.2c-0.64-0.54-0.22-1.22-0.26-1.84c0,0,0.06-0.09,0.06-0.09
		C37.61,14.79,37.55,15.08,37.62,15.32z"/>
	<path class="st79" d="M37.68,19.16c-0.03,0.05-0.05,0.1-0.08,0.15c1.09,1.05,1.99,2.17,1.59,3.84c-0.07,0.12-0.17,0.18-0.3,0.19
		c-1.53-0.46-1.88-1.8-2.25-3.09c-0.12-0.42,0.02-0.87,0.44-1.15c0.19-0.07,0.36-0.06,0.51,0.08L37.68,19.16z"/>
	<path class="st80" d="M39.02,23.21c0.29-1.58-0.84-2.64-1.42-3.9c1.44,0.42,2.03,1.12,2.14,2.63c0.04,0.52,0.03,1.04,0.04,1.56
		c-0.08,0.16-0.16,0.32-0.24,0.48C38.95,23.99,38.82,23.71,39.02,23.21z"/>
	<path class="st81" d="M38.79,29.53c0.24,0.31,0.49,0.61,0.73,0.92c0.74,1.62,0.42,3.33,0.43,5.02c0.04,0.37,0.07,0.73-0.03,1.1
		c-0.29,0.52-0.14,1.37-1.06,1.42c-0.64-0.29-0.61-0.87-0.63-1.42c-0.04-1.07,0.06-2.15-0.07-3.22c-0.1-0.3-0.17-0.6-0.2-0.92
		c0.02-0.4,0.36-0.58,0.59-0.83C39.03,30.95,38.29,30.17,38.79,29.53z"/>
	<path class="st82" d="M43.12,35.88c0.54,0.13,0.92,0.41,0.97,1.01c0.2,0.77,0.08,1.55,0.07,2.32c-0.06,0.1-0.16,0.16-0.28,0.17
		c-0.19-0.32-0.37-0.38-0.55,0.01c-0.12,0.01-0.22-0.02-0.31-0.1c-0.28-0.42-0.17-0.94-0.35-1.38c-0.11-0.88-0.59-1.36-1.49-1.41
		c-0.28-0.02-0.56-0.06-0.74-0.31c0.06-0.16,0.12-0.33,0.18-0.49c0.7-0.13,1.4-0.14,2.1,0C42.85,35.76,42.99,35.82,43.12,35.88z"/>
	<path class="st83" d="M40.44,36.19c2.06,0.03,2.23,0.15,2.47,1.72c-0.05,0.02-0.1,0.04-0.15,0.05c-0.84-0.54-1.94-0.61-2.6-1.45
		c-0.02-0.11,0.01-0.22,0.07-0.31C40.3,36.19,40.37,36.19,40.44,36.19z"/>
	<path class="st84" d="M40.23,36.2c0.01,0.08,0.01,0.16,0.02,0.25c0.18,0.32,0.08,0.5-0.27,0.58c-0.36-0.09-0.4-0.31-0.24-0.6
		c0.09-0.31-0.1-0.69,0.21-0.96C40.26,35.63,40.23,35.92,40.23,36.2z"/>
	<path class="st85" d="M42.72,35.7c-0.7,0-1.4,0-2.1,0C41.32,35.38,42.02,35.4,42.72,35.7z"/>
	<path class="st86" d="M34.93,8.63c0.4,0.8,0.81,1.61,1.21,2.41c0.09,0.86,0.18,1.72,0.27,2.58c0.18,0.37,0.1,0.65-0.2,0.95
		c-0.43,0.43-0.79,1.03-0.77,1.58c0.07,1.3-0.57,1.27-1.47,0.99c-0.28-0.18-0.42-0.44-0.44-0.77c0-0.25,0.08-0.47,0.27-0.65
		c0.8-1.15,0.68-2.41,0.44-3.69c-0.1-0.42,0.01-0.88-0.25-1.27c-0.47-0.84-1.52-1.1-1.98-1.94c0.5-0.43,0.95-0.84,0.27-1.51
		c-0.25-0.25-0.25-0.65-0.11-1c0.32-0.47,0.72-0.05,1.08-0.1c0.24-0.19,0.11-0.44,0.12-0.67c0.02-0.51-0.24-0.9-0.57-1.25
		c-0.11-0.2-0.35-0.52-0.29-0.58c0.27-0.32,0.54,0.06,0.82,0.09c0.07,0.07,0.13,0.15,0.2,0.22c0.61,0.41,0.86,1.03,1,1.71
		c0.08,0.7-0.05,1.41,0.11,2.11C34.75,8.09,34.92,8.33,34.93,8.63z"/>
	<path class="st87" d="M34.25,5.73c-0.12-0.62-0.38-1.18-0.73-1.71c1.27,0.44,1.31,1.66,1.67,2.67c-0.11,0.64,0.26,1.35-0.27,1.93
		c-0.15-0.16-0.3-0.33-0.46-0.49C34.16,7.36,34.56,6.51,34.25,5.73z"/>
	<path class="st88" d="M41.19,45.56c-0.7,0.07-1.02,0.81-1.68,0.94c-0.18-0.03-0.29-0.13-0.32-0.31c0.15-0.68,0.77-0.99,1.16-1.48
		c0.57-0.48,0.82-1.25,1.51-1.61c0.1-0.03,0.21-0.02,0.31,0.01c0.69,0.54-0.22,0.87-0.17,1.33C41.74,44.8,41.47,45.18,41.19,45.56z"
		/>
	<path class="st89" d="M43.78,41.71c-0.21,0.69-0.57,1.28-1.13,1.74c-0.31-0.31-0.15-0.74-0.26-1.1c-0.06-0.47,0.08-0.91,0.16-1.36
		c0.04-0.23,0.09-0.45,0.21-0.65c0.08-0.09,0.17-0.13,0.29-0.13c0.27,0.12,0.34,0.4,0.52,0.61C43.81,41.08,43.75,41.41,43.78,41.71z
		"/>
	<path class="st90" d="M42.61,42.41c0.26,0.34,0.02,0.69,0.04,1.04c-0.09,0.41-0.13,0.84-0.64,0.97c-0.53-0.49,0.73-0.8,0.13-1.29
		C41.92,42.65,42.14,42.45,42.61,42.41z"/>
	<path class="st91" d="M43.78,41.71c-0.14-0.24-0.29-0.47-0.43-0.71c-0.22-0.4-0.06-0.57,0.35-0.59c0.32,0.07,0.25,0.38,0.35,0.58
		c0.01,0.08,0.03,0.17,0.04,0.25C44,41.41,43.89,41.56,43.78,41.71z"/>
	<path class="st92" d="M4.97,42.9c-0.2,0.46,0.7,0.7,0.26,1.21c-0.17-0.16-0.34-0.31-0.52-0.46c-0.58-0.91-1.15-1.83-1.48-2.88
		c0-0.83,0-1.67,0-2.5c0-0.99,0.24-1.87,1.06-2.51c0.93-0.21,1.87-0.51,2.8,0c0.08,0.11,0.09,0.22,0.02,0.33
		c-0.05,0.06-0.09,0.13-0.16,0.17c-2.31,1.25-2.79,2.34-2.16,4.96c0.04,0.15,0.09,0.3,0.13,0.46C4.99,42.08,5.26,42.48,4.97,42.9z"
		/>
	<path class="st35" d="M2.8,38.13c0.02-0.15,0.03-0.3,0.05-0.45c0.06,0,0.13,0,0.19,0c0,0.95,0,1.9,0,2.86
		C2.55,39.77,2.9,38.93,2.8,38.13z"/>
	<path class="st93" d="M44.06,41c-0.19-0.1-0.23-0.27-0.23-0.46c-0.29-0.4-0.36-0.81,0-1.21c0.49-0.77,0.12-1.63,0.25-2.44
		c0.49,1.1,0.11,2.27,0.25,3.4C44.25,40.53,44.15,40.76,44.06,41z"/>
	<path class="st94" d="M12.4,9.09c-0.61,0.87-0.93,1.87-1.22,2.88c-0.12,0.13-0.1,0.28-0.12,0.44c-0.02,0.2,0.1,0.53-0.27,0.51
		c-0.24-0.01-0.17-0.31-0.28-0.46c0.06-0.24,0.12-0.49,0.18-0.73c0.41-1.03,0.82-2.05,1.23-3.08c0.41-0.53,0.14-1.15,0.2-1.72
		c0.03-0.15,0.05-0.31,0.08-0.46c0.53,0.08,0.19,0.53,0.33,0.93c0,0,0.18-0.28,0.05-0.18C12.48,6.81,12.42,6.4,12.63,6
		c0.09-0.04,0.18-0.07,0.26-0.11c0.28,0.27,0.29,0.63,0.31,0.98C13.17,7.7,13.33,8.59,12.4,9.09z"/>
	<path class="st95" d="M10.52,12.46c0.89,0.75,0.16-0.72,0.67-0.49c-0.24,1.92-0.47,3.84-0.71,5.76c-0.59-0.08-0.46-0.56-0.47-0.92
		c-0.02-0.83,0.08-1.66,0.21-2.48C10.32,13.71,10.42,13.09,10.52,12.46z"/>
	<path class="st96" d="M10.22,14.33c0.15,1.13-0.26,2.3,0.26,3.4c-0.1,0.42,0.31,1.05-0.48,1.19c-0.22-1.12-0.15-2.24-0.03-3.36
		C10.07,15.16,9.93,14.7,10.22,14.33z"/>
	<path class="st97" d="M9.97,15.56c0.01,1.12,0.02,2.24,0.03,3.36c-0.08,0-0.16,0.01-0.24,0.01c0-1.12,0-2.24-0.01-3.36
		C9.83,15.57,9.9,15.57,9.97,15.56z"/>
	<path class="st98" d="M37.6,49.89c-0.08,0.01-0.16,0.01-0.25,0.02c-1.1-0.92-2.48-0.99-3.81-1.2c0-0.5,0.12-0.93,0.67-1.08
		c0.57,0.61,1.28,0.65,2.04,0.51c0.29,0.05,0.56,0.18,0.87,0.16c0.1,0.02,0.19,0.05,0.28,0.11c0.37,0.3,0.82-0.07,1.21,0.15
		c0.51,0.49,0,0.8-0.22,1.16C38.17,49.93,37.85,49.74,37.6,49.89z"/>
	<path class="st99" d="M34.24,47.73c-0.23,0.32-0.46,0.65-0.7,0.97c-0.09-0.09-0.19-0.18-0.28-0.27c0.02-0.51,0.25-0.95,0.5-1.38
		c0.27-0.47,0.61-0.89,0.86-1.37c0.09-0.17,0.22-0.24,0.41-0.21c0.69,0.55-0.1,1.02-0.08,1.53C34.83,47.36,34.6,47.6,34.24,47.73z"
		/>
	<path class="st100" d="M35.71,50.87c-0.16-0.08-0.33-0.16-0.49-0.24c0.47-0.06,0.48-0.4,0.46-0.75
		C36.56,50.18,36.24,50.52,35.71,50.87z"/>
	<path class="st101" d="M38.32,49.65c-0.17-0.37,0.56-0.56,0.2-0.97c-0.14-0.1-0.26-0.2-0.19-0.4c0.78-0.66,1.6,0.19,2.39-0.06
		c0.28,0.14,0.56,0.28,0.84,0.41c0.29,0.14,0.59,0.3,0.6,0.66c0.01,0.46-0.37,0.54-0.72,0.63c-0.8-0.08-1.59-0.16-2.39-0.24
		C38.81,49.69,38.55,49.9,38.32,49.65z"/>
	<path class="st102" d="M37.15,48.45c-0.29,0.06-0.67,0.44-0.72-0.23c0.16-0.46,0.53-0.6,0.97-0.63c0.12,0.02,0.22,0.08,0.29,0.18
		c-0.02,0.07-0.04,0.15-0.07,0.22C37.51,48.19,37.33,48.32,37.15,48.45z"/>
	<path class="st103" d="M38.33,48.28c0.06,0.13,0.13,0.27,0.19,0.4c-0.29,0.08-0.58,0.17-0.88,0.23c-0.46,0.1-0.44-0.13-0.27-0.43
		c0.18-0.28,0.53-0.03,0.73-0.24C38.18,48.23,38.26,48.24,38.33,48.28z"/>
	<path class="st104" d="M39.32,46.29c0.06,0.07,0.13,0.14,0.19,0.21c-0.24,0.35-0.57,0.57-0.96,0.72c-0.07-0.08-0.12-0.18-0.13-0.29
		c0.01-0.11,0.04-0.21,0.1-0.31C38.75,46.41,38.91,46.06,39.32,46.29z"/>
	<path class="st105" d="M38.55,47c0,0.07,0,0.14,0,0.21c-0.2,0.32-0.53,0.46-0.87,0.55c-0.1-0.01-0.21-0.02-0.31-0.03
		c-0.08-0.54,0.39-0.63,0.7-0.84C38.25,46.85,38.41,46.87,38.55,47z"/>
	<path class="st106" d="M38.1,48.23c-0.2,0.22-0.47,0.22-0.73,0.24c-0.08-0.02-0.15-0.02-0.23-0.02c0.07-0.24,0.18-0.44,0.46-0.47
		C37.77,48.06,37.94,48.14,38.1,48.23z"/>
	<path class="st107" d="M7.07,35.96c0.01-0.07,0.02-0.13,0.03-0.2c0.13-0.29,0.3-0.09,0.46-0.03c0.27,0.04,0.41,0.23,0.52,0.45
		c0.64,1.88,1.47,3.68,2.55,5.36c0.25,0.39,0.61,0.76,0.37,1.3c-0.13,0.33-0.36,0.13-0.56,0.1C9.68,42.78,9.7,42,9.33,41.53
		c-0.47-1.11-1.17-2.1-1.71-3.17C7.35,37.58,6.82,36.86,7.07,35.96z"/>
	<path class="st108" d="M7.84,36.21c-0.1-0.16-0.19-0.32-0.29-0.47c0-1.36,0-2.72,0-4.09c0.52-1.19,0.92-2.46,2.16-3.14
		c0.3,0.41,0.33,0.44,0,0.81c-0.56,0.64-1.02,1.33-1.21,2.17c-0.18,1.15-0.02,2.31-0.09,3.46C8.39,35.42,8.56,36.03,7.84,36.21z"/>
	<path class="st50" d="M13.62,29.44c-0.88-2.37-1.76-4.74-2.64-7.1c0.04-0.27,0.21-0.38,0.47-0.35c0.22,0.11,0.31,0.31,0.41,0.51
		c2.32,0.99,4.7,1.66,7.26,1.46c2.72,0.31,5.45,0.1,8.17,0.16c0.64,0.47,0.93,1.13,1.02,1.89c-0.57,1.22-1.17,2.41-1.07,3.83
		c0.06,0.81-0.59,0.9-1.23,0.94c-1.5,0.08-3.01-0.16-4.5,0.15c-2.5,0.24-4.92-0.31-7.34-0.8c-0.14-0.01-0.26-0.07-0.36-0.16
		C13.76,29.79,13.69,29.62,13.62,29.44z"/>
	<path class="st109" d="M13.82,29.96c0.08,0,0.16,0,0.25-0.01c0.69,0.31,0.74,0.99,0.91,1.6c0.02,0.45,0.05,0.9,0.06,1.35
		c0.02,0.4-0.06,0.81,0.14,1.18c0.07,0.17,0.09,0.35,0.1,0.53c-0.01,0.31,0.05,0.63-0.23,0.87c-0.08,0-0.16,0.01-0.24,0.01
		c-0.07,0.06-0.14,0.13-0.21,0.2c-0.28,0.97,0.13,1.94-0.04,2.9c-1.08,0.65-0.7,1.81-0.86,2.73c-0.18,1.03-0.82,2.02-0.38,3.13
		c0.02,0.05-0.11,0.22-0.19,0.25c-0.24,0.07-0.37-0.12-0.45-0.29c-0.29-0.59-0.57-1.19-0.85-1.78c-0.03,0.02-0.08,0.02-0.09,0.05
		c-0.03,0.07-0.04,0.15-0.06,0.23c-0.17,0.05-0.31-0.01-0.39-0.17c-0.64-1.39-1.35-2.76-1.55-4.31c0.14-0.57,0.34-0.85,0.78-0.18
		c0.14,0.22,0.1,0.54,0.48,0.72c0.45-2.85,0.22-5.58-0.64-8.13c-0.56-0.31-0.94,1.59-1.33-0.1c0.23-0.99,0.77-1.73,1.68-2.2
		C11.7,29.12,12.67,29.75,13.82,29.96z"/>
	<path class="st110" d="M10.7,28.56c-0.43,0.74-1.19,1.26-1.42,2.13c-0.06,0.07-0.13,0.12-0.22,0.15c-0.25,0.1-0.38,0.48-0.74,0.33
		c0.16-0.76,0.54-1.39,1.09-1.95c0.17-0.18,0.64-0.3,0.31-0.72c0.09-0.1,0.19-0.19,0.28-0.29C10.3,28.19,10.47,28.43,10.7,28.56z"/>
	<path class="st111" d="M37.58,19.17c-0.15,0-0.3-0.01-0.46-0.01c-0.52-0.58-0.76-1.2-0.22-1.9c0.52-0.8-0.11-1.78,0.4-2.57
		c0.15,0.6-0.15,1.27,0.26,1.84C37.57,17.41,37.57,18.29,37.58,19.17z"/>
	<path class="st112" d="M39.02,23.21c0.03,0.36,0.17,0.63,0.52,0.77c-0.12,0.75-0.52,1.35-1.02,1.9c-0.39,0.08-0.52-0.17-0.62-0.47
		c-0.05-0.6,0.34-1.09,0.44-1.66c0.09-0.22,0.21-0.42,0.47-0.47C38.88,23.26,38.95,23.23,39.02,23.21z"/>
	<path class="st113" d="M38.06,25.38c0.15,0.16,0.31,0.33,0.46,0.49c-0.17,0.24-0.33,0.47-0.5,0.71c-0.49,0.39-0.77,1.02-1.39,1.26
		c-0.27-0.93,0.39-1.54,0.77-2.24C37.59,25.44,37.79,25.3,38.06,25.38z"/>
	<path class="st114" d="M12.91,6.9c0-0.34-0.01-0.67-0.01-1.01c-0.01-0.04-0.02-0.09-0.03-0.13c0.17-0.16,0.25-0.42,0.5-0.49
		c0.41-0.22,0.6-0.76,1.15-0.77c0.43-0.15,0.42,0.23,0.56,0.44c0.07,0.21,0.21,0.38,0.26,0.6c-0.3,0.67-1.08,0.65-1.54,1.09
		C13.52,6.77,13.28,7.07,12.91,6.9z"/>
	<path class="st115" d="M12.63,6c0,0.47,0,0.93,0,1.48c-0.4-0.31-0.08-0.78-0.41-1.02c0.07-0.15,0.13-0.3,0.2-0.45
		C12.49,5.99,12.56,5.98,12.63,6z"/>
	<path class="st116" d="M13.37,5.27c-0.04,0.3-0.24,0.43-0.5,0.49c0-0.42-0.02-0.85,0.48-1.04C13.36,4.91,13.36,5.09,13.37,5.27z"/>
	<path class="st117" d="M37.62,25.69c-0.33,0.72-0.66,1.44-0.99,2.16c0.01,0.07,0.01,0.14,0,0.2c-0.23,0.38-0.52,0.67-1.01,0.58
		c-0.37-0.61-0.03-1.29-0.08-1.93c-0.13-1.51-0.51-2.95-0.75-4.43c0.08-0.26,0.27-0.38,0.52-0.42c0.12-0.01,0.23,0,0.35,0.03
		c1.02,0.44,0.85,1.55,1.24,2.34C37.14,24.71,37.26,25.26,37.62,25.69z"/>
	<path class="st118" d="M38.79,29.53c-0.01,0.78,0.67,1.58-0.05,2.35c-0.46-0.25-0.69-0.72-1.01-1.11c-0.05-0.1-0.09-0.21-0.11-0.32
		c-0.03-0.17-0.02-0.34,0.01-0.5c0.12-0.34,0.18-0.66,0-1.01c-0.09-0.18-0.21-0.47,0.23-0.42c0.07,0.01,0.14,0.01,0.2,0.02
		C38.26,28.9,38.7,29.08,38.79,29.53z"/>
	<path class="st119" d="M35.7,28.55c0.31-0.17,0.62-0.33,0.94-0.5c0.06,0.16,0.13,0.32,0.19,0.48c0.07,0.06,0.09,0.12,0.09,0.19
		c-0.01,0.07-0.02,0.11-0.03,0.11c-0.51,0.37-1.07,0.65-1.63,0.95c-0.39,0.17-0.79,0.27-1.22,0.17c-0.12-0.03-0.22-0.1-0.31-0.18
		C34.01,28.75,34.94,28.79,35.7,28.55z"/>
	<path class="st120" d="M36.82,28.73c0.03-0.07,0.03-0.13,0.01-0.2c0.34-0.45,0.68-0.53,1.04-0.02c-0.2,0.49,0.72,1.03-0.06,1.5
		C37.09,29.88,36.82,29.41,36.82,28.73z"/>
	<path class="st121" d="M38.32,49.65c0.24,0.08,0.5-0.29,0.73,0.02c-0.4,0.65-0.92,0.48-1.45,0.21
		C37.77,49.6,38.06,49.66,38.32,49.65z"/>
	<path class="st122" d="M8.32,31.17c0.38,0.07,0.27-0.67,0.73-0.45c0.19,0.53,0.16,1.08,0.11,1.63c-0.11,1.24,0.07,2.45,0.45,3.62
		c0.26,0.8,0.25,1.62,0.38,2.42c0.35,1.59,0.96,3.09,1.69,4.55c0.09,0.32,0.17,0.64,0.26,0.96c-0.08,0.1-0.17,0.09-0.25,0
		c-0.23-0.35-0.46-0.7-0.69-1.05c-0.96-1.78-2.07-3.49-2.79-5.39c-0.15-0.4-0.25-0.83-0.37-1.24c0.5-1.13,0.1-2.31,0.24-3.46
		C8.14,32.22,7.87,31.64,8.32,31.17z"/>
	<path class="st109" d="M14.8,38.13c0.6,0.93,0.36,2.07,0.74,3.06c0.12,0.26,0.16,0.52-0.02,0.78c-0.55-0.97-0.5-2.12-0.96-3.12
		C14.79,38.66,14.57,38.32,14.8,38.13z"/>
	<path class="st123" d="M14.8,38.13c-0.01,0.26,0.04,0.54-0.24,0.71c0-0.08,0-0.16,0-0.24c-0.2-1.03-0.36-2.06-0.18-3.1
		c0-0.02,0.06-0.04,0.09-0.04c0.04,0,0.07,0.03,0.1,0.05c0.26,0.36-0.06,0.82,0.22,1.18C14.39,37.18,14.89,37.65,14.8,38.13z"/>
	<path class="st124" d="M15.52,41.97c0.01-0.26,0.01-0.52,0.02-0.78c0.33,0.52,0.45,1.1,0.48,1.7c-0.08,0.07-0.01,0.52-0.24,0.15
		C15.59,42.75,15.6,42.33,15.52,41.97z"/>
	<path class="st125" d="M13.12,49.66c0.15-0.01,0.29-0.02,0.44-0.03c0.33,0.08,0.69-0.1,1.09,0.22
		C14.07,49.86,13.57,50.06,13.12,49.66z"/>
	<path class="st126" d="M17.44,50.85c0.57-0.05,0.85,0.1,0.45,0.69C17.39,51.55,17.22,51.33,17.44,50.85z"/>
	<path class="st127" d="M17.44,50.85c-0.01,0.34,0.14,0.57,0.45,0.69c0.01,0.08,0.02,0.15,0.03,0.23c-0.08,0.09-0.16,0.18-0.24,0.27
		c-0.16-0.16-0.32-0.33-0.47-0.49C17.2,51.29,17.16,51.01,17.44,50.85z"/>
	<path class="st128" d="M11.69,43.89c0.08,0,0.16,0,0.25,0c0.22,0.28,0.61,0.52,0.24,0.95C12.01,44.52,11.85,44.2,11.69,43.89z"/>
	<path class="st129" d="M9.52,41.47c0.31,0.49,0.61,0.98,0.92,1.46c0.26,0.62,0.52,1.25,0.78,1.87c-1.02-0.09-0.67-1.26-1.39-1.68
		c-0.46,0.57-0.49,1.34-0.69,2.02c-0.17,0.62-0.26,1.18-0.97,0.4c-0.19-0.21-0.4-0.24-0.59,0.02c-0.75-0.62-1.5-1.25-1.92-2.16
		c-0.06-0.13,0.03-0.3,0.09-0.26c1.17,0.68,1.27-0.25,1.51-0.99c0.19-0.57,0.32-1.16,0.61-1.69c0.32-0.58,0.66-0.65,1.02,0.01
		C9.08,40.83,9.12,41.27,9.52,41.47z"/>
	<path class="st130" d="M10.2,48.41c-0.01-0.13-0.01-0.26-0.02-0.39c0.17-0.21,0.32-0.16,0.44,0.04c0.1,0.17,0.13,0.38-0.06,0.51
		C10.42,48.67,10.29,48.54,10.2,48.41z"/>
	<path class="st131" d="M9.52,41.47c-0.05,0.14-0.03,0.52-0.28,0.14c-0.3-0.45-0.52-0.96-0.9-1.68c-0.42,1.22-0.78,2.21-1.09,3.21
		C7,44.01,6.71,44.44,6.05,43.43c-0.09-0.14-0.25-0.18-0.39,0c-0.23-0.18-0.46-0.35-0.69-0.53c-0.09-0.38-0.18-0.76-0.27-1.15
		c-0.13-0.29-0.05-0.73,0.26-0.43c0.9,0.86,0.86-0.08,1-0.47c0.26-0.74,0.13-1.57,0.48-2.32c0.53-1.11,0.66-1.15,1.42-0.2
		C8.49,39.34,9.18,40.32,9.52,41.47z"/>
	<path class="st132" d="M14.79,31.64c-0.24-0.56-0.48-1.13-0.73-1.69c0.93-0.44,1.72,0.28,2.6,0.34c1.61,0.1,3.21,0.43,4.85,0.39
		c2.09-0.06,4.19-0.01,6.28,0.05c0.26,0.15,0.28,0.31,0.06,0.55c-0.97,1.03-0.99,1.4-0.18,2.61c0.14,0.2,0.27,0.39,0.08,0.63
		c-3.57,0.24-6.87-0.74-10.08-2.15C16.63,32.45,15.71,32.07,14.79,31.64z"/>
	<path class="st133" d="M29.44,34.77c1.62,0.63,2.51,3.17,1.68,4.8c-1.38-0.52-1.81-1.84-2.35-2.98c-0.47-0.99-0.76-1.94-2.14-1.82
		C27.56,34.77,28.5,34.77,29.44,34.77z"/>
	<path class="st134" d="M27.76,34.53c-0.23-0.61-1.12-0.72-1.01-1.68c0.1-0.95,0.07-1.76,1.25-1.92c0.24-0.27,0.56-0.29,0.89-0.3
		c0.58,0.07,0.99,0.15,0.58,0.93c-0.39,0.74-0.25,1.51,0.33,2.17c0.2,0.22,0.49,0.42,0.36,0.8C29.36,34.53,28.56,34.53,27.76,34.53z
		"/>
	<path class="st135" d="M30.16,34.53c-0.86-0.66-1.4-1.46-1.21-2.61c0.05-0.31,0.14-0.52,0.37-0.78c0.25-0.29-0.24-0.1-0.37-0.2
		c-0.07-0.13-0.06-0.24,0.05-0.34c0.22-0.15,0.48-0.19,0.74-0.2c0.39,0,0.78-0.02,1.11,0.23c0.05,1.03,0.12,2.05,0.47,3.04
		c0.31,0.89-0.03,1.21-0.93,0.88C30.31,34.53,30.24,34.53,30.16,34.53z"/>
	<path class="st136" d="M30.39,34.53c0.71,0.1,0.9-0.14,0.67-0.85c-0.31-0.97-0.97-1.95-0.19-3c0.08-0.1,0.19-0.16,0.31-0.19
		c0.76-0.09,0.84,0.47,0.87,0.98c0.05,0.92,0.31,1.78,0.66,2.62c-0.07,0.3,0.05,0.63-0.16,0.91c-0.72-0.08-1.44-0.16-2.15-0.24
		C30.4,34.69,30.4,34.61,30.39,34.53z"/>
	<path class="st137" d="M14.79,31.64c0.96,0.24,1.92,0.49,2.88,0.73c-0.49,0.52-0.99,0.11-1.42-0.05c-0.77-0.29-1.07-0.06-0.97,0.71
		c0.26,2.03,0.28,4.1,0.95,6.06c-0.13,0.12-0.19,0.36-0.44,0.24c-0.53-0.9-0.47-1.93-0.67-2.91c0.03-0.63,0.14-1.26-0.07-1.88
		c-0.01-0.16-0.01-0.31-0.02-0.47c-0.27-0.37,0.05-0.85-0.23-1.21C14.85,32.45,14.51,32.05,14.79,31.64z"/>
	<path class="st138" d="M29.18,43.74c-0.35,0.03-0.64-0.23-0.62-0.53c0.05-0.63,0.39-1.13,1.07-1.24c0.41-0.07,0.51,0.25,0.54,0.6
		C30.25,43.3,29.78,43.55,29.18,43.74z"/>
	<path class="st139" d="M15.79,39.32c0.15-0.08,0.3-0.16,0.44-0.24c0.04,1.17,0.47,2.25,0.75,3.36c0.1,0.41,0.42,0.81-0.03,1.2
		C16.39,42.26,15.99,40.82,15.79,39.32z"/>
	<path class="st140" d="M26.9,43.68c0.25,0.03,0.49,0.1,0.46,0.41c-0.02,0.24-0.14,0.47-0.42,0.48c-0.31,0.02-0.55-0.13-0.53-0.47
		C26.42,43.83,26.65,43.72,26.9,43.68z"/>
	<path class="st141" d="M20.99,39.06c-0.27,0.01-0.5-0.07-0.56-0.33c-0.07-0.34,0.2-0.36,0.43-0.37c0.22-0.01,0.51-0.04,0.55,0.27
		C21.45,38.91,21.22,39.01,20.99,39.06z"/>
	<path class="st142" d="M18.79,40.62c-0.16-0.01-0.3-0.08-0.32-0.25c-0.03-0.17,0.07-0.29,0.25-0.3c0.16-0.01,0.32,0.02,0.33,0.22
		C19.05,40.46,18.96,40.57,18.79,40.62z"/>
	<path class="st143" d="M33.75,29.74c0.08,0.02,0.17,0.04,0.25,0.07c0.65,0.18,0.85,0.63,1.03,1.27c0.41,1.5,0.1,3.06,0.62,4.57
		c0.46,1.36,0.85,2.66,2.12,3.48c0.05,0.03,0.05,0.15,0.06,0.23c-0.08,0.49-0.02,1.06-0.7,1.18c0-0.08,0-0.16,0-0.24
		c-3.02-2.81-3.62-6.45-3.6-10.32C33.54,29.84,33.62,29.76,33.75,29.74z"/>
	<path class="st144" d="M37.12,40.53c0.31-0.34,0.38-0.77,0.48-1.19c0.23-0.22-0.02-0.57,0.22-0.78c0.12-0.03,0.22-0.01,0.33,0.05
		c0.22,0.3,0.26,0.65,0.29,1.01c-0.18,0.7-0.31,1.43-1.11,1.73c-0.19-0.05-0.34-0.14-0.24-0.38C37.1,40.83,37.11,40.68,37.12,40.53z
		"/>
	<path class="st145" d="M34.95,45.56c-0.09,0.08-0.19,0.16-0.28,0.24c-0.06,0.1-0.13,0.1-0.2,0.01c0.33-0.97,0.88-1.82,1.5-2.63
		c0.12-0.06,0.21-0.04,0.29,0.07C36.23,44.25,35.86,45.06,34.95,45.56z"/>
	<path class="st146" d="M36.15,43.17c-0.07,0-0.13,0-0.19,0.01c0.21-0.82,0.7-1.49,1.14-2.19c0.09,0.09,0.19,0.18,0.28,0.27
		C37.37,42.15,37.09,42.87,36.15,43.17z"/>
	<path class="st147" d="M34.46,45.81c0.07,0,0.14-0.01,0.2-0.01c-0.2,0.48-0.38,0.99-0.9,1.25C33.81,46.53,33.99,46.09,34.46,45.81z
		"/>
	<path class="st148" d="M33.75,29.74c-0.08,0.08-0.16,0.16-0.24,0.24c-0.08,0-0.16,0-0.23,0c-0.26-0.25-0.31-0.57-0.29-0.91
		c0.33-1.01,0.71-2.01,0.98-3.05c0.32-0.69,0.13-1.43,0.19-2.15c0-0.23,0.02-0.47,0.06-0.7c0.08-0.26,0.16-0.52,0.2-0.8
		c0.16-0.2,0.34-0.29,0.54-0.06c0.46,1.32,0.96,2.63,0.72,4.07c-0.02,0.11-0.01,0.24,0.01,0.35c0.1,0.5,0.1,1.58,0,1.81
		C35.16,29.12,34.26,29.11,33.75,29.74z"/>
	<path class="st149" d="M32.55,35.01c0-0.32,0-0.64,0-0.96c-0.52-1.08-0.17-2.3-0.55-3.4c-0.02-0.23,0.13-0.34,0.31-0.42
		c0.24-0.09,0.48-0.17,0.72-0.02c-0.03,1.6,0.11,3.21-0.25,4.8C32.71,35.01,32.63,35.01,32.55,35.01z"/>
	<path class="st150" d="M33.04,30.21c-0.16,0.08-0.32,0.16-0.48,0.23c-0.34-0.52-0.03-1.04-0.01-1.56c0.03-0.12,0.09-0.22,0.16-0.32
		c0.5-0.26,0.38,0.28,0.55,0.43c0.01,0.32,0.01,0.65,0.02,0.97C33.2,30.05,33.12,30.13,33.04,30.21z"/>
	<path class="st50" d="M15.05,34.54c0.38,0.61,0.29,1.24,0.07,1.88c-0.03-0.31-0.05-0.62-0.08-0.93
		C15.04,35.17,15.05,34.85,15.05,34.54z"/>
	<path class="st6" d="M14.79,36.7c-0.35-0.34-0.16-0.78-0.22-1.18c0.08-0.02,0.15-0.03,0.23-0.02C14.8,35.9,14.8,36.3,14.79,36.7z"
		/>
	<path class="st151" d="M32.32,6.21c-0.27,1.01,1.02,1.49,0.85,2.48c-0.35,0.23-0.79-0.33-1.09,0.14c-0.85,0.28-1.75,0.13-2.61,0.28
		c-0.7-0.19-0.64-0.52-0.12-0.85c0.65-0.41,0.41-0.77-0.03-1.11c-0.61-0.47-1.35-0.87-2.06-0.88c-1.26-0.03-2.53-0.28-3.8,0.03
		c-1.74,0.42-3.52,0.68-5.28,1.07c-0.79,0.17-1.59,0.18-2.38,0.07c-0.64-0.09-1.28-0.24-1.34-1.08c1.01-1.02,2.34-0.64,3.56-0.78
		c0.15-0.05-0.02-0.29,0.02-0.13c0.02,0.05,0,0.08-0.04,0.09c-0.73,0.15-1.47,0.11-2.21,0.02c-0.06-0.64,0.45-0.5,0.8-0.6
		c0.38-0.01,0.76-0.01,1.14,0.02c0.23,0,0.44,0.21,0.68,0.05c0.17-0.07,0.23,0.56,0.45,0.09c0.12-0.25-0.36-0.41-0.19-0.79
		c0.91,0.64,1.9,0.2,2.86,0.22c2.21-0.41,4.38-0.24,6.5,0.47c0.63-0.37,1.3-0.39,1.99-0.2c0.46,0.28,0.98,0.44,1.48,0.63
		C31.86,5.57,32.35,5.62,32.32,6.21z"/>
	<path class="st152" d="M14.8,5.25c0-0.28,0.03-0.58-0.28-0.74c1.14-0.69,2.27-0.78,3.4,0.03C17.75,5,17.34,5.04,16.95,5
		C16.21,4.92,15.55,5.49,14.8,5.25z"/>
	<path class="st153" d="M14.8,5.25c1.04-0.24,2.08-0.48,3.12-0.72c0.16,0.16,0.32,0.32,0.48,0.48c-0.09,0.24-0.28,0.25-0.49,0.22
		c-0.39-0.16-0.79-0.16-1.19,0c-0.32,0.09-0.71-0.05-0.97,0.26c-0.15,0.13-0.3,0.14-0.45,0.01C15.1,5.49,14.91,5.45,14.8,5.25z"/>
	<path class="st154" d="M28.95,4.03c0.07,0,0.14,0,0.21-0.01c0.43,0.21,0.97,0.19,1.3,0.62c-0.02,0.14-0.1,0.22-0.24,0.25
		c-0.57-0.19-1.29,0.36-1.75-0.36C28.64,4.36,28.8,4.2,28.95,4.03z"/>
	<path class="st155" d="M28.48,4.53c0.59,0.48,1.28,0.13,1.92,0.24c0.06,0.09,0.07,0.18,0.03,0.27c-0.09,0.06-0.18,0.06-0.26,0
		C29.45,5.03,28.74,5.01,28.02,5C28.08,4.75,28.28,4.64,28.48,4.53z"/>
	<path class="st155" d="M30.4,4.53c-0.47-0.02-1.03,0.18-1.23-0.51c0.25-0.1,0.51-0.21,0.76-0.31c1.15-0.37,2.02,0.21,2.86,0.87
		c0.52,0.08,0.65,0.48,0.74,0.91c0.05,0.34,0.67,0.83-0.23,0.94c-0.43-0.28-0.95-0.4-1.29-0.82C31.7,4.89,30.75,5.17,30.4,4.53z"/>
	<path class="st156" d="M33.53,5.48c-0.25-0.3-0.5-0.61-0.74-0.91c0.01-0.1,0.01-0.19,0.02-0.29C33.46,4.44,33.8,4.77,33.53,5.48z"
		/>
	<path class="st157" d="M14.56,6.45c0.91,1.2,2.22,0.79,3.32,0.64c2.03-0.27,4.01-0.97,6.04-1.19c1.79-0.2,3.66-0.3,5.32,0.74
		c0.34,0.21,0.63,0.47,0.86,0.81c0.37,0.53,0.41,0.84-0.35,0.96c-0.39,0.06-0.38,0.13-0.28,0.46c0.05,0.1,0.05,0.21-0.01,0.31
		c-0.73,0.32-1.12,1.14-1.92,1.36c-0.06-0.09-0.17-0.18-0.18-0.28c-0.02-0.44,0.91-0.68,0.2-1.3c-0.67-0.58-1.39-1.1-2.26-0.74
		c-1.42,0.58-2.97,0.5-4.39,1.08c-0.81,0.33-1.7,0.52-2.55-0.17c0.23,0.69,0.9,1.01,1.11,1.63c0.15,0.45-0.06,0.37-0.32,0.25
		c-0.31-0.04-0.46-0.29-0.65-0.49C17.22,9.18,15.67,9,14.06,9.94c-0.53,0.31-0.93,0.91-1.65,0.83c-0.07-0.56,0.76-1.12,0-1.68
		c0.44-0.67,0.51-1.42,0.5-2.19c0.23-0.14,0.47-0.29,0.7-0.43C13.93,6.66,14.23,6.04,14.56,6.45z"/>
	<path class="st158" d="M19.8,14.78c-0.48,1.01-0.98,2.01-1.92,2.69c-0.49,0.34-1,0.55-1.58,0.23c-0.9-0.32-1.78-0.7-2.71-0.93
		c-0.6-0.15-0.66-0.78-1.14-0.97c-0.25-1.09-0.49-2.18-0.05-3.27c0.33-0.53,0.68-1.02,1.42-0.87c0.52,0.57,0.26,1.28,0.34,1.93
		c0.21,1.53,0.91,2.06,2.26,1.68c0.22-0.16,0.42-0.33,0.58-0.55c0.13-0.18,0.21-0.39,0.28-0.6c0.14-0.77,0.03-1.55,0.07-2.32
		c0.01-0.25,0.06-0.5,0.2-0.72c0.35-0.3,0.72-0.12,1.08-0.02c0.12,0.06,0.2,0.15,0.25,0.27c0.22,0.16,0.44,0.31,0.67,0.47
		C20.33,12.73,20.23,13.74,19.8,14.78z"/>
	<path class="st159" d="M33.94,15.72c-0.18,0.1-0.22,0.26-0.23,0.45c-0.64,0.93-1.67,0.87-2.61,1.05c-1.63,0.28-3-0.02-3.78-1.66
		c-0.99-1.34-1.05-2.67-0.21-4.05c0.2-0.16,0.4-0.32,0.59-0.49c0.04-0.05,0.08-0.1,0.12-0.15c0.41-0.21,0.82-0.45,1.25-0.04
		c0.21,0.35,0.19,0.75,0.2,1.13c0,0.55-0.01,1.1,0,1.65c0,0.5,0.16,0.94,0.55,1.28c0.55,0.45,1.1,0.46,1.67,0.05
		c0.41-0.2,0.55-0.6,0.71-0.98c0.43-0.71,0.14-1.55,0.4-2.3c0.6-0.56,0.88,0.18,1.31,0.32c0.1,0.07,0.19,0.15,0.27,0.24
		c0.16,0.19,0.25,0.41,0.26,0.67c0.01,0.49,0.04,0.98-0.02,1.47C34.14,14.76,34.42,15.38,33.94,15.72z"/>
	<path class="st160" d="M31.11,17.22c0.78-0.58,1.77-0.62,2.61-1.05c0.09,0.28,0.18,0.56,0.28,0.84c-0.1,0.2-0.28,0.3-0.46,0.41
		c-0.23,0.13-0.48,0.22-0.72,0.33c-0.79,0.34-0.31,0.89-0.24,1.38c0.04,0.75-0.03,1.49-0.04,2.23c-0.02,1.17-0.38,1.4-1.66,1.17
		c-0.5-0.55-0.65-1.24-0.42-1.89c0.27-0.78,0.45-1.55,0.09-2.3C30.22,17.64,31.28,17.76,31.11,17.22z"/>
	<path class="st161" d="M30.88,22.53c1.2-0.09,1.59-0.71,1.37-1.88c-0.11-0.55,0.04-1.15,0.08-1.72c0.08-0.08,0.18-0.11,0.28-0.1
		c0.26,0.04,0.51,0.12,0.76,0.19c1.3,0.11,0.68,1.15,0.88,1.8c0.09,0.25,0.2,0.5,0.07,0.76c-0.15,0.5-0.95,0.25-0.99,0.87
		c-0.15,0.28-0.42,0.33-0.68,0.4c-0.27,0.07-0.53,0.15-0.81,0.18c-0.33,0.03-0.66,0.05-0.97,0.17c-0.38,0.11-0.74,0.25-1.15,0.21
		c-0.48-0.12-0.96-0.14-1.45-0.03c-0.11,0.01-0.22,0.01-0.33,0c-0.49-0.11-0.98-0.1-1.46,0.07c-0.35,0.08-0.7,0.08-1.05-0.02
		c-0.24-0.08-0.44-0.2-0.56-0.43c0.48-0.44,1.07-0.21,1.6-0.23C27.95,22.74,29.42,22.84,30.88,22.53z"/>
	<path class="st162" d="M29.65,23.17c0.41-0.06,0.82-0.12,1.22-0.17c0.3-0.13,0.6-0.24,0.78,0.17c-0.15,0.32-0.46,0.39-0.75,0.5
		c-0.4,0.12-0.83,0.12-1.23,0.26c-0.24,0.06-0.48,0.09-0.72,0.1c-0.25,0.01-0.5,0.01-0.75,0.02c-0.33,0.02-0.66,0.02-0.98,0.09
		c-2.34,0.13-4.68,0.05-7.02,0.05c-0.43-0.14-0.87-0.25-1.33-0.26c-0.12-0.04-0.22-0.12-0.3-0.22c-0.02-0.22,0.11-0.34,0.28-0.43
		c0.25-0.02,0.49-0.03,0.74-0.05c1.91-0.16,3.83-0.16,5.74,0c0.4,0,0.81,0,1.21,0c0.47-0.16,0.95-0.15,1.42-0.01
		c0.09,0,0.17,0,0.26,0C28.71,23.05,29.18,23.14,29.65,23.17z"/>
	<path class="st163" d="M13.83,19.4c-0.98,0.05-1.75-0.19-2.32-0.88c-0.13-0.16-0.08-0.42,0.09-0.54c0.73-0.49,1.54-0.62,2.38-0.39
		c0.56,0.15,1.33,0.28,1.24,1.03C15.13,19.41,14.4,19.46,13.83,19.4z"/>
	<path class="st164" d="M18.9,11.32c-0.07-0.03-0.15-0.07-0.22-0.1c-0.39-0.29-0.8-0.53-1.26-0.7c-0.29-0.11-0.53-0.32-0.78-0.49
		c-0.2-0.13-0.43-0.18-0.67-0.18c-0.29-0.01-0.57,0.02-0.83,0.12c-0.18,0.08-0.35,0.18-0.51,0.3c-0.36,0.31-0.77,0.56-1.12,0.88
		c-0.21,0.18-0.41,0.39-0.71,0.42c-0.31-0.09-0.54-0.22-0.41-0.6c0.01-0.07,0.02-0.13,0.03-0.2c0.87-0.62,1.65-1.43,2.74-1.66
		c1.7-0.36,3.01,0.28,4.01,1.9C19.07,11.11,18.98,11.22,18.9,11.32z"/>
	<path class="st165" d="M11.45,22.08c-0.15,0.09-0.31,0.17-0.46,0.26c-0.3-0.11-0.81,0.16-0.88-0.32c-0.1-0.61,0.53-0.66,0.89-0.91
		c0.22-0.18,0.43-0.22,0.64,0.02c0.28,0.5,0.82,0.63,1.26,0.9c-0.04,0.19-0.15,0.32-0.32,0.4C12.1,22.63,11.8,22.26,11.45,22.08z"/>
	<path class="st166" d="M27.11,11.51c-0.48,1.38-0.42,2.73,0.21,4.05C26.04,14.79,25.92,12.48,27.11,11.51z"/>
	<path class="st167" d="M19.8,14.78c0.06-1.01,0.19-2.02-0.24-2.99c0.11-0.15,0.29-0.2,0.37-0.03c0.51,1.04,0.58,2.14,0.12,3.2
		C19.89,15.33,19.89,14.85,19.8,14.78z"/>
	<path class="st168" d="M12.62,12.45c-0.45,1.1-0.11,2.23-0.17,3.35c-0.81-1.24-0.47-2.56-0.27-3.87c0.25-0.07,0.4,0.06,0.54,0.24
		C12.74,12.29,12.71,12.38,12.62,12.45z"/>
	<path class="st169" d="M25.35,23.23c-1.91,0.08-3.83,0.11-5.74,0c1.3-0.48,2.64-0.11,3.96-0.22c0.43-0.03,0.87-0.01,1.3-0.01
		C25.07,23.01,25.24,23.05,25.35,23.23z"/>
	<path class="st170" d="M27.53,10.53c0.46-0.69,0.98-1.3,1.85-1.47c0.22-0.12,0.43-0.13,0.59,0.1c0.03,0.26-0.16,0.4-0.31,0.57
		c-0.08,0.08-0.16,0.15-0.26,0.21c-0.59,0.28-1.09,0.71-1.63,1.07c0,0-0.07,0-0.07,0C27.53,10.9,27.51,10.72,27.53,10.53z"/>
	<path class="st171" d="M15.45,22.87c0.97-0.24,1.85,0.13,2.76,0.34c-0.17,0.28-0.46,0.35-0.74,0.45c-0.11,0.04-0.23,0.06-0.35,0.08
		c-0.61,0.07-1.19-0.03-1.73-0.32C15.14,23.22,15.19,23.04,15.45,22.87z"/>
	<path class="st172" d="M16.3,17.69c0.53-0.08,1.05-0.15,1.58-0.23c0.28,0.45-0.12,0.47-0.36,0.48c-0.58,0.03-1.16,0.01-1.79,0.01
		C15.89,17.65,16.13,17.78,16.3,17.69z"/>
	<path class="st173" d="M15.45,22.87c-0.06,0.1-0.12,0.2-0.18,0.3c-0.41,0.29-0.73,0.11-1.03-0.19c-0.03-0.26-0.1-0.56,0.35-0.47
		C14.9,22.57,15.31,22.39,15.45,22.87z"/>
	<path class="st174" d="M12.59,12.23c-0.14-0.1-0.27-0.2-0.41-0.3c-0.04-0.34-0.31-0.73,0.2-0.96c0.15,0.17,0.3,0.34,0.45,0.52
		C13.06,11.83,12.84,12.04,12.59,12.23z"/>
	<path class="st175" d="M26.43,20.76c0-0.72-0.58-0.66-0.52-1.11c0.01-0.06,0.2-0.16,0.26-0.13C26.57,19.68,26.61,20,26.43,20.76z"
		/>
	<path class="st176" d="M17.44,23.46c0.2-0.27,0.5-0.19,0.77-0.24c0.22,0.02,0.44,0.04,0.66,0.06c-0.07,0.14-0.15,0.28-0.22,0.42
		c-0.07,0.1-0.17,0.17-0.29,0.2C17.96,23.94,17.64,23.82,17.44,23.46z"/>
	<path class="st177" d="M12.63,22.31c0.09-0.09,0.18-0.18,0.27-0.28c0.26,0.02,0.52,0.02,0.71,0.22c0.13,0.17,0.14,0.34,0.03,0.52
		C13.17,22.91,12.76,22.9,12.63,22.31z"/>
	<path class="st178" d="M13.6,22.72c0-0.15,0.01-0.31,0.01-0.46c0.34,0.02,0.69,0,0.98,0.25c-0.18,0.07-0.25,0.22-0.27,0.4
		C13.98,23.22,13.79,22.98,13.6,22.72z"/>
	<path class="st76" d="M8.55,23.01c-0.37-0.56-0.37-1.12,0-1.68C8.55,21.89,8.55,22.45,8.55,23.01z"/>
	<path class="st179" d="M11.63,21.13c-0.21-0.01-0.42-0.02-0.64-0.02c-0.08-0.02-0.15-0.04-0.23-0.06c0.27-0.37,0.61-0.18,0.93-0.12
		c0.01,0,0.02,0.08,0.01,0.11C11.69,21.07,11.65,21.1,11.63,21.13z"/>
	<path class="st180" d="M38.81,23.28c-0.09,0.16-0.19,0.31-0.28,0.47c-0.18,0.33-0.14,0.91-0.59,0.94c-0.5,0.04-0.69-0.49-0.85-0.88
		c-0.28-0.71-0.55-1.41-1.14-1.92c-0.14-0.28-0.22-0.58-0.22-0.89c0.2-1.01-0.44-2.12,0.18-3.03c0.46-0.67,0.38-1.32,0.4-2.01
		c0.01-0.41,0-0.82,0.34-1.12c0.44,0.77,0.09,1.63,0.25,2.43c-0.15,0.66,0.21,1.26,0.22,1.9c-0.44,1.29,0.19,3.07,1.37,3.72
		C38.7,22.99,38.79,23.07,38.81,23.28z"/>
	<path class="st181" d="M36.65,14.83c-0.01,0.41-0.01,0.81-0.02,1.22c-0.48,0.4-0.62,1.08-1.19,1.39c-0.11,0.04-0.23,0.07-0.35,0.09
		c-0.37,0.03-0.74,0.04-1.11-0.02c-0.19-0.04-0.36-0.12-0.48-0.29c0.11-0.18,0.29-0.22,0.48-0.22c0.39,0,0.79,0,1.21,0
		c-0.27-0.8,0.28-2.36,0.98-2.78c0.29-0.17,0.17-0.4,0.23-0.61C36.76,13.97,36.61,14.42,36.65,14.83z"/>
	<path class="st182" d="M38.07,32.34c0.32,0.17,0.23,0.5,0.29,0.77c-0.01,0.07-0.02,0.13-0.03,0.2c-0.11,1.34,0.14,2.7-0.14,4.04
		c-0.62,0.43-0.79-0.13-1.04-0.49c-0.62-0.87-0.5-1.94-0.75-2.91c-0.15-0.19-0.34-0.35-0.29-0.63c0.48-0.32,0.74-0.89,1.28-1.15
		C37.64,32.13,37.88,32.14,38.07,32.34z"/>
	<path class="st183" d="M38.3,39.56c-0.34-0.26-0.18-0.64-0.23-0.97c-0.44-0.51-0.02-0.93,0.13-1.38c0.05-1.37-0.1-2.75,0.08-4.11
		c0,0,0.09,0.01,0.09,0.01c0.41,1.18,0.1,2.39,0.19,3.58c0.03,0.46-0.07,0.96,0.49,1.2c0.27,0.34,0.06,0.65-0.06,0.96
		C38.81,39.15,38.68,39.48,38.3,39.56z"/>
	<path class="st184" d="M38.07,32.34c-0.24,0-0.47,0-0.71,0c-0.19-0.05-0.37-0.13-0.5-0.29c-0.33-1.19-0.15-1.43,0.97-1.36
		c0.56,0.2,0.72,0.7,0.91,1.19C38.52,32.03,38.3,32.18,38.07,32.34z"/>
	<path class="st185" d="M38.78,38.84c0.09-0.32,0.18-0.63,0.27-0.95c0.23-0.49,0.46-0.98,0.69-1.47c0.02,0.2,0.05,0.39,0.25,0.51
		c0.36,0.37,0.15,0.76,0.05,1.15c-0.15,0.37-0.3,0.74-0.61,1.01c-0.1,0.06-0.2,0.09-0.32,0.09C38.94,39.14,38.83,39.02,38.78,38.84z
		"/>
	<path class="st186" d="M43.84,39.33c0,0.4,0,0.8,0,1.21c-0.31,0-0.47,0.16-0.48,0.47c-0.28-0.18-0.21-0.46-0.23-0.72
		c-0.25-0.33-0.31-0.65,0.02-0.97c0.07,0,0.14,0.01,0.21,0.01C43.52,39.19,43.68,39.19,43.84,39.33L43.84,39.33z"/>
	<path class="st93" d="M43.84,39.33c-0.16,0-0.32,0-0.48,0c0.06-0.43-0.13-0.91,0.24-1.4C43.97,38.42,43.78,38.9,43.84,39.33z"/>
	<path class="st91" d="M43.14,39.32c-0.01,0.32-0.01,0.65-0.02,0.97c-0.05,0-0.1,0-0.15,0c-0.54-0.3-0.37-0.82-0.42-1.28
		c0-0.2,0-0.4,0.03-0.61c0.03-0.2,0.09-0.4,0.25-0.54c0,0,0.08,0.04,0.08,0.04C43.29,38.33,43.04,38.85,43.14,39.32z"/>
	<path class="st187" d="M42.84,37.87c0.01,0.17,0.02,0.34,0.03,0.51c-0.33,0.58-0.78,0.35-1.22,0.17c-0.46-0.2-0.89-0.53-1.44-0.28
		c-0.17,0.03-0.33,0.01-0.45-0.13c0.08-0.4,0.15-0.8,0.23-1.2c0.09-0.16,0.17-0.32,0.26-0.48C41.06,37.02,42.11,37.14,42.84,37.87z"
		/>
	<path class="st188" d="M29.92,9.31c-0.12-0.21-0.33-0.22-0.54-0.25c0.03-0.07,0.06-0.13,0.09-0.2c0.87-0.15,1.74-0.39,2.61-0.04
		c0.78,0.5,1.63,0.92,2.14,1.75c0.06,0.38-0.16,0.52-0.49,0.55c-0.68-0.34-1.1-1.08-1.91-1.22c-0.32-0.25-0.71-0.28-1.1-0.28
		C30.42,9.61,30.12,9.58,29.92,9.31z"/>
	<path class="st189" d="M34.27,12.7c-0.08-0.16-0.17-0.33-0.25-0.49c0.08-0.21,0.19-0.36,0.45-0.25c0.55,1.26,0.14,2.49-0.1,3.73
		c-0.05,0.24-0.27,0.25-0.43,0.03c0.07-0.46,0.06-0.93,0.3-1.35C34.45,13.81,34.39,13.26,34.27,12.7z"/>
	<path class="st190" d="M32.06,5.5c0.35,0.39,0.98,0.4,1.23,0.93c-0.42,0.34-0.6-0.38-0.98-0.21c-0.51-0.77-1.71-0.28-2.15-1.17
		c0.08-0.01,0.15-0.01,0.22,0C31.02,4.91,31.57,5.09,32.06,5.5z"/>
	<path class="st191" d="M34.47,11.96c-0.15,0.08-0.3,0.16-0.45,0.25c0,0-0.04,0.01-0.04,0.01c-0.26-0.36-0.53-0.72-0.27-1.19
		c0.23-0.08,0.4-0.23,0.51-0.45C34.71,10.96,34.43,11.49,34.47,11.96z"/>
	<path class="st192" d="M34.25,5.73c0.46,0.76,0.13,1.6,0.22,2.4C34.02,7.37,34.34,6.53,34.25,5.73z"/>
	<path class="st192" d="M34.89,8.1c-0.23-0.52-0.19-0.82-0.11-1.17C35.09,7.24,34.92,7.55,34.89,8.1z"/>
	<path class="st86" d="M38.55,47c-0.15,0.01-0.3,0.01-0.44,0.02c-0.25,0.09-0.48,0.4-0.75,0.18c-0.25-0.2-0.15-0.53-0.04-0.78
		c0.33-0.77,0.75-1.49,1.29-2.14c1.17-1.4,1.14-1.79-0.28-3c-0.09-0.08-0.15-0.19-0.19-0.3c-0.06-0.3-0.04-0.57,0.26-0.74
		c2.19-0.32,2.75,0.14,3.53,2.94c-0.48,0.57-0.8,1.26-1.43,1.7c-0.77,0.5-1.39,1.16-1.93,1.9C38.55,46.85,38.55,46.92,38.55,47z"/>
	<path class="st193" d="M41.92,43.18c-0.37-0.13-0.48-0.37-0.51-0.78c-0.08-1.03-1.1-2.01-2.05-2.19c-0.39-0.07-0.45,0.23-0.65,0.38
		c-0.01,0.01-0.09-0.03-0.1-0.05c-0.03-0.07-0.03-0.15-0.05-0.23c-0.15-0.54,0.09-0.9,0.52-1.17c0.07-0.01,0.13-0.02,0.2-0.04
		c0.89-0.41,1.51,0.24,2.19,0.6c0.42,0.22,0.75,0.59,1.12,0.89c0.11,0.12,0.18,0.28,0.26,0.42c-0.08,0.47-0.16,0.94-0.24,1.41
		c-0.27,0.16-0.46,0.39-0.47,0.72C42.07,43.15,42,43.17,41.92,43.18z"/>
	<path class="st194" d="M38.56,46.77c0.35-0.93,0.96-1.6,1.93-1.9c-0.39,0.47-0.78,0.95-1.17,1.42
		C39.07,46.45,38.81,46.61,38.56,46.77z"/>
	<path class="st195" d="M42.85,41c-0.07-0.08-0.14-0.16-0.22-0.23c-0.3-0.34-0.34-0.75-0.31-1.18c0.08-0.32,0.03-0.74,0.55-0.73
		c0.03,0.48,0.07,0.96,0.1,1.44C42.93,40.53,42.89,40.76,42.85,41z"/>
	<path class="st86" d="M7.86,38.33c-0.61,0.35-0.36-0.42-0.73-0.52c-0.35,0.7-0.79,1.37-0.73,2.23c0.04,0.49-0.06,0.95-0.32,1.36
		c-0.2,0.31-0.08,0.91-0.6,0.92c-0.43,0.01-0.42-0.49-0.56-0.8c-0.01-0.02-0.05-0.03-0.07-0.05c-0.05,0.1-0.1,0.19-0.15,0.29
		c-0.76-1.49-0.52-2.98,0.02-4.45c0.39-1.06,1.55-0.93,2.35-1.35C7.33,36.75,7.6,37.54,7.86,38.33z"/>
	<path class="st196" d="M38.29,40.96c1.69,0.77,1.93,2.05,0.63,3.4c-0.61,0.63-0.96,1.43-1.35,2.19c-0.43,0.83,0.27,0.42,0.54,0.47
		c-0.25,0.24-0.49,0.47-0.74,0.71c-0.32,0.16-0.63,0.32-0.95,0.48c-0.97,0.51-1.86,0.32-2.18-0.48c0.16-0.25,0.31-0.49,0.47-0.74
		c0.91-1.8,1.97-3.52,2.85-5.34C37.71,41.36,37.84,40.97,38.29,40.96z"/>
	<path class="st197" d="M38.29,40.96c-1,1.62-1.68,3.43-2.8,4.99c-0.25,0.35-0.52,0.69-0.78,1.04c-0.26-0.53,0.72-0.86,0.24-1.43
		c0.48-0.76,1-1.5,1.2-2.4c0.55-0.55,0.9-1.22,1.22-1.91c0.41-0.51,0.7-1.08,0.93-1.69c0.16-0.24,0.32-0.48,0.49-0.72
		c0.1,0.09,0.2,0.19,0.3,0.28c-0.17,0.39-0.35,0.78-0.52,1.17C38.32,40.46,38.32,40.72,38.29,40.96z"/>
	<path class="st198" d="M28.96,30.69c0,0.08-0.01,0.16-0.01,0.24c-0.32,0-0.64,0-0.95,0c-2.16-0.02-4.33,0.09-6.48-0.24
		c1.34-0.52,2.73-0.15,4.1-0.22c0.9-0.05,1.52,0.12,1.3-1.31c-0.17-1.09,0.33-2.39,1.31-3.27c0.47,0.08,0.7,0.5,1.05,0.75
		c0.2,0.15,0.45,0.22,0.68,0.35c0.18,0.13,0.28,0.3,0.32,0.52c0.01,0.27,0.06,0.53,0.01,0.8c-0.03,0.16-0.08,0.31-0.1,0.46
		c-0.18,1.58-0.31,1.7-1.88,1.8c-0.14,0.01-0.32-0.08-0.4,0.08C28.25,30.54,28.6,30.5,28.96,30.69z"/>
	<path class="st139" d="M18.39,23.77c0.09-0.03,0.17-0.05,0.26-0.08c0,0-0.01,0.08-0.01,0.08c0.41,0.18,0.87-0.03,1.27,0.17
		c2.53,0,5.07-0.01,7.6-0.01c0.08,0.04,0.11,0.11,0.08,0.19c0,0-0.08,0.08-0.08,0.08c-0.43,0.28-0.91,0.25-1.38,0.24
		c-2.42-0.06-4.84,0.18-7.25-0.24c-0.28,0.17-0.54,0.19-0.78-0.07C18.06,23.91,18.22,23.84,18.39,23.77z"/>
	<path class="st199" d="M29.2,26.85c-0.41-0.23-0.73-0.56-0.97-0.96c-0.33-0.52-0.88-0.95-0.72-1.68c0,0,0.01,0,0.01,0
		c0.47-0.45,0.76,0.12,1.14,0.19c0.63,0.6,1.01,1.32,1.1,2.19C29.63,26.8,29.48,26.96,29.2,26.85z"/>
	<path class="st50" d="M18.15,23.98c0.18,0.27,0.46,0.23,0.72,0.24c-1.13,0.33-2.21-0.1-3.31-0.23c-1.39-0.16-2.65-0.75-3.92-1.27
		c-0.02-0.01-0.02-0.08-0.01-0.11c0.01-0.03,0.05-0.06,0.08-0.09c1.66,0.06,3.13,0.92,4.76,1.13
		C17.02,23.84,17.65,23.57,18.15,23.98z"/>
	<path class="st200" d="M16.47,23.75c-1.65-0.19-3.17-0.84-4.77-1.24c-0.09-0.14-0.17-0.29-0.26-0.43c0.44-0.18,0.74,0.37,1.18,0.23
		c0.24,0.34,0.7,0.16,0.97,0.41c0.24,0.06,0.48,0.13,0.72,0.19c0.36-0.08,0.63,0.17,0.95,0.26c0.64,0.12,1.28,0.24,1.91,0.35
		C17.09,24.05,16.75,23.82,16.47,23.75z"/>
	<path class="st157" d="M9.99,38.39c-0.96-2.48-1.55-5-0.94-7.67c0.07-0.01,0.15-0.02,0.23-0.03c0.01,0.12-0.02,0.26,0.02,0.35
		c0.16,0.31,0.18,0.06,0.23-0.07c0.16-0.35,0.22-0.92,0.67-0.87c0.52,0.06,0.43,0.66,0.56,1.06c0.8,2.43,0.91,4.93,0.67,7.45
		c-0.04,0.4-0.17,0.77-0.54,1.04c-0.46-0.4-0.45-1-0.67-1.48c-0.01-0.03-0.05-0.04-0.07-0.07C10.09,38.2,10.04,38.29,9.99,38.39z"/>
	<path class="st50" d="M14.8,32.85c0.39,0.35,0.18,0.8,0.23,1.21C14.68,33.71,14.84,33.26,14.8,32.85z"/>
	<path class="st201" d="M36.15,21.79c1.11,0.57,0.94,1.95,1.69,2.75c0.43-0.12,0.37-0.62,0.69-0.79c0.2,0.65-0.42,1.06-0.47,1.64
		c-0.15,0.1-0.29,0.21-0.44,0.31c-0.48-0.01-0.77-0.14-0.87-0.73c-0.16-1.02-0.49-2.02-1.08-2.89
		C35.76,21.84,35.89,21.71,36.15,21.79z"/>
	<path class="st202" d="M14.56,6.45c-0.32-0.09-0.62,0.42-0.95,0.02c0.56-0.32,1.13-0.65,1.69-0.97c0.15,0,0.3-0.01,0.45-0.01
		c0.78,0,1.56,0,2.34,0C16.89,5.78,15.59,5.58,14.56,6.45z"/>
	<path class="st203" d="M34.25,21.56c-0.08-0.24-0.16-0.47-0.24-0.71c0.08-0.1,0.18-0.16,0.3-0.2c0.25-0.06,0.48-0.02,0.69,0.12
		c0.23,0.39,0.51,0.77,0.44,1.26c-0.16,0.09-0.31,0.18-0.47,0.27c-0.16,0.06-0.33,0.12-0.49,0.18c-0.11,0.17-0.27,0.18-0.45,0.15
		c-0.16-0.07-0.27-0.19-0.34-0.36C33.64,21.86,34.16,21.88,34.25,21.56z"/>
	<path class="st204" d="M35.43,22.04c-0.39-0.3-0.56-0.69-0.48-1.18c0.12-0.15,0.28-0.19,0.46-0.18c0.26,0.04,0.4,0.2,0.5,0.42
		c0.08,0.23,0.16,0.46,0.24,0.69c-0.16,0.09-0.31,0.18-0.47,0.28C35.6,22.06,35.51,22.05,35.43,22.04z"/>
	<path class="st205" d="M36.82,28.73c0.33,0.42,0.66,0.85,0.99,1.28c0.01,0.16,0.02,0.32,0.03,0.48c-0.33,0.1-0.66,0.19-1.01,0.18
		c-0.32-0.07-0.64-0.05-0.97,0c-0.37-0.09-1.02,0.02-0.47-0.7c0.15-0.2-0.36-0.21-0.18-0.46C35.76,29.28,36.16,28.74,36.82,28.73z"
		/>
	<path class="st206" d="M36.63,30.43c0.4,0.02,0.81,0.04,1.21,0.06c-0.01,0.07-0.01,0.13,0,0.2c-0.93,0.14-1.2,0.6-0.72,1.44
		c-0.16,0.16-0.35,0.19-0.56,0.14C35.7,31.41,35.71,31.07,36.63,30.43z"/>
	<path class="st207" d="M35.21,29.51c-0.1,0.27,0.97,0.08,0.24,0.62c-0.13,0.1-0.07,0.18,0.46,0.31c0.18,0.62-0.11,1.36,0.52,1.85
		c0.09,0.39-0.17,0.69-0.28,1.03c0.1,0.19,0.28,0.23,0.47,0.24c-0.57,1.73-0.16,3.23,1.06,4.54c0.13,0.14,0.27,0.29,0.16,0.52
		c-0.01,0.26,0,0.53-0.25,0.71c-1.36-0.84-1.75-2.18-2.25-3.63c-0.57-1.65-0.2-3.34-0.63-4.97c-0.14-0.53-0.76-0.45-0.72-0.95
		C34.41,29.7,34.81,29.61,35.21,29.51z"/>
	<path class="st208" d="M28.96,30.69c-0.38,0-0.77,0-1.21,0c0.25-0.38,0.57-0.19,0.83-0.25c0.83-0.19,1.54-0.49,1.26-1.55
		c-0.1-0.39,0.23-0.55,0.32-0.83c0.72,0,1.25,0.43,1.82,0.78c0.23,0.6,0.26,1.16-0.27,1.63c-0.17,0.11-0.37,0.1-0.56,0.1
		c-0.49,0.06-0.99-0.13-1.47,0.12C29.44,30.69,29.2,30.69,28.96,30.69z"/>
	<path class="st198" d="M29.68,30.69c0.42-0.43,0.96-0.16,1.44-0.23c0.08,0.05,0.1,0.11,0.07,0.16c-0.03,0.05-0.05,0.08-0.08,0.08
		c-0.08,0-0.16,0-0.24,0C30.48,30.69,30.08,30.69,29.68,30.69z"/>
	<path class="st209" d="M31.11,30.69c0-0.08,0-0.16,0.01-0.24c0.16,0,0.32,0,0.48,0c0.16-0.13,0.32-0.15,0.48,0
		c0.76,0.55,0.42,1.36,0.47,2.06c0.04,0.51,0.01,1.02,0.01,1.53c-0.89-0.77-0.67-1.9-0.86-2.88C31.61,30.7,31.45,30.68,31.11,30.69z
		"/>
	<path class="st210" d="M37.85,38.63c-1.27-0.88-1.65-2.23-1.87-3.63c-0.09-0.56,0.22-1.05,0.66-1.43c0.47,1.1,0.11,2.42,0.93,3.43
		c0.15,0.19,0.24,0.38,0.51,0.4c0.07-0.11,0.15-0.12,0.22,0c-0.22,0.37-0.21,0.78-0.23,1.19C37.99,38.61,37.92,38.62,37.85,38.63z"
		/>
	<path class="st211" d="M33.26,29c-0.15-0.16-0.31-0.31-0.46-0.47c-0.08-0.09-0.12-0.19-0.13-0.31c0.05-0.41,0.34-0.74,0.45-1.13
		c0.3-1.02-0.17-2.05,0.08-3.07c0.77-0.31,0.41,0.63,0.72,0.71c-0.14-0.58-0.4-1.19,0.22-1.74c0.12-0.07,0.24-0.06,0.35,0.02
		c-0.01,0.24-0.01,0.49-0.02,0.73c-0.31,0.78,0.09,1.63-0.22,2.41C34.02,27.13,33.75,28.1,33.26,29z"/>
	<path class="st212" d="M34.24,26.15c0.09-0.8-0.24-1.64,0.22-2.41C34.4,24.54,34.68,25.38,34.24,26.15z"/>
	<path class="st213" d="M34.48,23.01c-0.08,0-0.16,0.01-0.25,0.01c-0.36,0.22-0.73,0.34-1.13,0.08c-0.16-0.81,0.59-0.44,0.87-0.67
		c0.16,0.02,0.33,0.04,0.49,0.06C34.68,22.66,34.55,22.84,34.48,23.01z"/>
	<path class="st214" d="M32.08,30.45c-0.16,0-0.32,0-0.48,0c0.33-0.52,0.22-1.11,0.25-1.67c0.31-0.3,0.63-0.25,0.95-0.01
		c0.08,0.58-0.1,1.13-0.24,1.68C32.4,30.45,32.24,30.45,32.08,30.45z"/>
	<path class="st215" d="M32.8,28.77c-0.32,0-0.63,0.01-0.95,0.01c-0.74,0.16-1.17-0.38-1.69-0.73c-0.04-0.18-0.25-0.37,0.06-0.51
		c0.78,0.1,1.33,1.02,2.25,0.62c0.11-0.01,0.22,0.02,0.32,0.07c0.01,0.1,0.01,0.19,0.02,0.29C32.8,28.61,32.8,28.69,32.8,28.77z"/>
	<path class="st152" d="M16.72,5.23c0.4-0.32,0.79-0.32,1.19,0C17.51,5.23,17.12,5.23,16.72,5.23z"/>
	<path class="st216" d="M32.06,5.5c-0.57-0.11-1.15-0.16-1.67-0.45c0-0.09,0.01-0.18,0.01-0.27c0-0.08,0-0.16,0-0.24
		c0.65,0.13,1.28,0.32,1.82,0.69C32.58,5.47,32.18,5.44,32.06,5.5z"/>
	<path class="st217" d="M15.3,8.66c0.45,0,0.9,0,1.35,0c0,0.03,0.01,0.07,0.01,0.1c-0.44,0-0.88,0-1.32,0
		C15.33,8.73,15.31,8.69,15.3,8.66z"/>
	<path class="st218" d="M17.26,14.87c-0.16,0.16-0.33,0.32-0.49,0.47c-0.34,0.19-0.55,0.08-0.69-0.26
		c-0.01-0.68-0.43-0.94-1.03-1.01c-0.72,0.17-1-0.1-0.98-0.84c0.02-0.63,0.13-1.27-0.13-1.88c-0.03-0.11-0.03-0.22-0.03-0.34
		c0.11-0.42,0.43-0.64,0.77-0.85c0.11-0.04,0.21-0.05,0.33-0.06c0.46,0.08,1.01-0.15,1.31,0.41c0.1,0.26-0.14,0.76,0.48,0.67
		c0.67-0.03,0.63,0.46,0.63,0.88C17.44,13.02,17.49,13.95,17.26,14.87z"/>
	<path class="st219" d="M16.24,14.84c0.01,0.34,0.21,0.48,0.53,0.5c-0.98,0.92-2.29,0.55-2.71-0.77c-0.3-0.93-0.08-1.9-0.24-2.84
		c-0.11-0.28,0.04-0.41,0.28-0.49c0.49,0.83,0.05,1.76,0.28,2.62c0.21,0.24,0.5-0.86,0.67,0.04C15.22,14.49,15.69,14.72,16.24,14.84
		z"/>
	<path class="st220" d="M16.27,10.55c-0.33-0.46-0.96,0.2-1.26-0.34c0.03-0.29,0.25-0.33,0.47-0.39c0.11-0.01,0.22-0.01,0.33-0.01
		c0.33,0,0.66,0,0.98,0c0.2,0.16,0.41,0.31,0.61,0.47c0.25,0.19,0.32,0.44,0.27,0.73c-0.01,0.24-0.01,0.48-0.02,0.72
		c-0.28,0.88,0.08,1.8-0.21,2.67c0,0.18,0.07,0.39-0.19,0.46c-0.02-0.95-0.08-1.9-0.05-2.85c0.02-0.56-0.18-0.69-0.67-0.53
		C16.22,11.24,16.44,10.84,16.27,10.55z"/>
	<path class="st221" d="M14.1,11.25c-0.09,0.16-0.19,0.33-0.28,0.49c-0.56-0.04-0.75,0.56-1.2,0.7c-0.01-0.07-0.02-0.15-0.03-0.22
		c0.08-0.25,0.16-0.49,0.24-0.74c0.18-0.16,0.35-0.32,0.53-0.48c0.23,0.01,0.47-0.18,0.7,0C14.07,11.09,14.08,11.17,14.1,11.25z"/>
	<path class="st222" d="M17.68,11.01c-0.3-0.17-0.24-0.46-0.27-0.73c0.67-0.02,1.04,0.36,1.26,0.94
		C18.3,11.35,17.99,11.19,17.68,11.01z"/>
	<path class="st223" d="M17.45,14.41c0.09-0.89-0.26-1.81,0.21-2.67C17.69,12.64,18.09,13.56,17.45,14.41z"/>
	<path class="st224" d="M29.45,9.75c0-0.07-0.01-0.13,0-0.2c0.46-0.07,0.92-0.12,1.38-0.1c0.16,0.01,0.3,0.07,0.35,0.24
		c-0.1,0.15-0.12,0.29,0.04,0.42c0.03,0.33,0.18,0.54,0.54,0.54c0.28,0.11,0.46-0.24,0.73-0.17c0.35,0.26,0.49,0.59,0.33,1.02
		c-0.28,0.86,0.32,1.87-0.46,2.65c-0.26,0.18-0.49,0.03-0.72-0.06c-0.18-0.08-0.36-0.16-0.54-0.23c-0.12,0.15-0.21-0.52-0.35-0.01
		c-0.1,0.33-0.07,0.68-0.18,1.01c-0.21,0.42-0.58,0.29-0.92,0.24c-0.52-0.24-0.65-0.7-0.69-1.21c0.24-0.58,0.05-1.2,0.11-1.79
		c0.06-0.52,0.23-1.04,0-1.57C29.04,10.19,29.26,9.98,29.45,9.75z"/>
	<path class="st225" d="M32.82,11.5c-0.23-0.28-0.1-0.75-0.51-0.93c-0.45,0.03-0.48-0.3-0.53-0.61c0.02-0.05,0.04-0.09,0.06-0.14
		c1.04-0.25,1.37,0.62,1.87,1.2c0.08,0.4,0.38,0.75,0.27,1.19C33.47,12.18,33.22,11.71,32.82,11.5z"/>
	<path class="st226" d="M29.66,15.1c0.21-0.21,0.6,0.02,0.76-0.31c0.35-0.26,0.72-0.41,1.16-0.33c0.46,0.21,0.26,0.44,0.02,0.67
		C30.95,15.82,30.3,15.68,29.66,15.1z"/>
	<path class="st227" d="M29.45,9.75c0.11,0.33-0.24,0.49-0.28,0.76c-0.01,0.16-0.09,0.25-0.25,0.28c-0.38,0.08-0.76,0.16-1.14,0.24
		C28.22,10.46,28.6,9.79,29.45,9.75z"/>
	<path class="st228" d="M31.61,15.12c0.02-0.18,0.24-0.38-0.05-0.53c-0.17-0.25-0.17-0.48,0.05-0.7c0.25,0.08,0.5,0.17,0.75,0.25
		C32.34,14.65,32.33,15.16,31.61,15.12z"/>
	<path class="st229" d="M28.92,10.79c0.08-0.09,0.17-0.19,0.25-0.28c0.51,0.48,0.24,0.97,0.03,1.46c-0.08,0.11-0.16,0.11-0.24,0
		C28.95,11.58,28.93,11.18,28.92,10.79z"/>
	<path class="st230" d="M28.96,11.97c0.08,0,0.16,0,0.24,0c-0.1,0.64,0.24,1.32-0.23,1.92C28.83,13.25,28.84,12.61,28.96,11.97z"/>
	<path class="st86" d="M34.27,12.7c0.3,0.56,0.33,1.12-0.03,1.67C34.26,13.81,34.27,13.25,34.27,12.7z"/>
	<path class="st231" d="M33.51,17.23c0.16,0.01,0.33,0.02,0.49,0.02c0.3,0.16,0.8,0.28,0.58,0.72c-0.3,0.59,0.22,0.79,0.4,1.15
		c-0.55,0.47-1.13,0.11-1.7,0.07c-0.26-0.03-0.56,0.03-0.74-0.24c0.09-0.48,0.36-0.93,0.26-1.45
		C33.04,17.41,33.28,17.32,33.51,17.23z"/>
	<path class="st232" d="M32.8,17.49c0.81,0.64,0.45,1.08-0.26,1.45c-0.07-0.01-0.15-0.02-0.22-0.02
		C31.72,18.19,31.82,17.69,32.8,17.49z"/>
	<path class="st233" d="M33.28,19.19c0.56-0.11,1.18,0.19,1.69-0.25c0.09-0.08,0.19-0.11,0.3-0.1c0.44,1.45,0.38,1.58-0.77,1.8
		c-0.1,0.04-0.19,0.1-0.27,0.16c-0.07,0.02-0.15,0.03-0.22,0.05C33.77,20.3,34.38,19.37,33.28,19.19z"/>
	<path class="st234" d="M34.25,21.56c0.57,0.57-0.49,0.38-0.35,0.76c-0.21,0.41-0.4,0.27-0.6-0.01
		C33.38,21.76,33.81,21.66,34.25,21.56z"/>
	<path class="st235" d="M33.3,22.31c0.2,0.09,0.39,0.23,0.6,0.01c0.04,0.03,0.06,0.07,0.07,0.12c-0.12,0.5-0.75,0.18-0.94,0.57
		c-0.09,0.08-0.2,0.11-0.32,0.1c-0.26-0.12-0.34-0.29-0.18-0.54C32.8,22.51,33.1,22.55,33.3,22.31z"/>
	<path class="st236" d="M32.54,22.56c0.03,0.19,0.09,0.37,0.3,0.45c0.06,0.09,0.07,0.18,0.03,0.28c-0.12,0.18-0.29,0.28-0.51,0.28
		c-0.15-0.04-0.27-0.12-0.38-0.23c-0.12-0.16-0.24-0.32-0.13-0.53C32.08,22.73,32.31,22.64,32.54,22.56z"/>
	<path class="st237" d="M31.85,22.81c0.08,0.13,0.16,0.26,0.23,0.39c-0.05,0.1-0.13,0.15-0.23,0.17c-0.11-0.01-0.19-0.06-0.26-0.14
		c-0.18-0.27-0.46-0.2-0.72-0.23C31.15,22.7,31.51,22.8,31.85,22.81z"/>
	<path class="st40" d="M29.65,23.17c-0.47,0.02-0.94,0.04-1.4,0.06C28.7,22.88,29.17,22.93,29.65,23.17z"/>
	<path class="st169" d="M27.99,23.23c-0.47,0-0.95,0-1.42,0.01C27.04,22.89,27.51,22.9,27.99,23.23z"/>
	<path class="st238" d="M31.59,23.23c0.06,0.01,0.13,0.03,0.19,0.04c0.28,0.22,0.55,0.46,0.85,0.65c0.71,0.86,0.67,1.88,0.63,2.9
		c-0.12,0.59-0.33,1.12-0.92,1.4c-1.01,0.22-1.57-0.27-1.88-1.17c0.03-0.33,0.15-0.49,0.54-0.44c0.79,0.11,0.74-0.38,0.59-0.91
		c-0.26-0.73-0.78-1.38-0.7-2.21C31.06,23.23,31.37,23.35,31.59,23.23z"/>
	<path class="st239" d="M31.83,25.65c0.61,0.55-0.03,0.9-0.23,1.3c-0.36,0.7-0.6-0.6-0.98-0.08c-1.18-0.7-1.59-1.8-1.67-3.1
		c0.25-0.02,0.49-0.04,0.74-0.06c0.71-0.29,1.06,0.12,1.39,0.67C31.34,24.8,31.32,25.39,31.83,25.65z"/>
	<path class="st240" d="M28.96,23.78c0.39,1.12,0.9,2.18,1.67,3.1c0.24,0.86,0.81,1.25,1.69,1.19c0.09,0.07,0.23,0.09,0.25,0.23
		c-1.13,0.84-1.64-0.25-2.35-0.75c-0.11-0.15-0.21-0.3-0.32-0.44c-0.13-0.14-0.23-0.29-0.23-0.49c-0.39-0.73-0.78-1.46-1.17-2.19
		c-0.18-0.17-0.34-0.34-0.19-0.61C28.53,23.8,28.74,23.79,28.96,23.78z"/>
	<path class="st241" d="M31.83,25.65c-0.7,0.1-0.56-0.57-0.77-0.89c-0.35-0.52-0.59-1.11-1.36-1.05c0.35-0.33,0.79-0.17,1.19-0.23
		C31.2,24.21,31.52,24.93,31.83,25.65z"/>
	<path class="st242" d="M28.32,23.81c0.06,0.2,0.12,0.41,0.19,0.61c-0.38,0.16-0.6-0.39-0.99-0.22c0-0.09,0-0.18,0-0.27
		C27.76,23.75,28.04,23.79,28.32,23.81z"/>
	<path class="st50" d="M19.91,23.94c-0.43-0.01-0.88,0.16-1.27-0.17C19.07,23.76,19.5,23.74,19.91,23.94z"/>
	<path class="st243" d="M14.06,11.01c-0.23,0.07-0.47,0.38-0.7,0c0.31-0.42,0.73-0.71,1.18-0.98c0.25-0.12,0.28,0.01,0.24,0.22
		C14.54,10.5,14.3,10.76,14.06,11.01z"/>
	<path class="st244" d="M16.8,9.81c-0.3,0.33-0.68,0.2-1.04,0.18c-0.05-0.2,0.07-0.31,0.23-0.39C16.28,9.56,16.57,9.55,16.8,9.81z"
		/>
	<path class="st245" d="M14.78,10.25c-0.08-0.07-0.16-0.15-0.24-0.22c0.15-0.09,0.3-0.18,0.46-0.26c0.21-0.03,0.5-0.24,0.48,0.22
		c-0.16,0.07-0.31,0.15-0.47,0.22C14.94,10.24,14.86,10.25,14.78,10.25z"/>
	<path class="st246" d="M15.48,9.99c-0.16-0.07-0.32-0.15-0.48-0.22c0.3-0.25,0.64-0.2,0.99-0.17c-0.08,0.13-0.15,0.26-0.23,0.39
		C15.66,9.99,15.57,9.99,15.48,9.99z"/>
	<path class="st247" d="M30.88,9.56c-0.48-0.14-0.96,0.38-1.43-0.01c0.16-0.08,0.31-0.16,0.47-0.24c0.32,0.01,0.64,0.02,0.97,0.03
		c0.08,0.05,0.1,0.1,0.08,0.14C30.93,9.54,30.91,9.56,30.88,9.56z"/>
	<path class="st248" d="M16.47,23.75c0.25-0.04,0.53,0.03,0.71-0.22c0.09-0.02,0.17-0.04,0.26-0.07c0.32,0.1,0.63,0.21,0.95,0.31
		c-0.08,0.07-0.16,0.13-0.23,0.2C17.6,23.89,16.99,24.16,16.47,23.75z"/>
	<path class="st249" d="M34.24,20.61c0.75-0.28,0.77-0.32,0.95-1.68c-0.17-0.36,0.19-0.62,0.17-0.96c0.02-0.23-0.07-0.47,0.04-0.7
		c0.41-0.41,0.44-1.21,1.24-1.22c-0.04,0.63,0.09,1.23-0.42,1.85c-0.33,0.41-0.48,1.17-0.16,1.83c0.22,0.46,0.1,0.94-0.14,1.38
		c-0.16-0.08-0.32-0.17-0.47-0.25C35.08,20.55,34.6,20.9,34.24,20.61z"/>
	<path class="st250" d="M35.64,17.93c0.13,0.46-0.29,0.67-0.45,1c-0.07,0-0.15,0.01-0.22,0.01c-0.63,0.07-1.03-0.1-0.67-0.81
		c0.23-0.45-0.09-0.63-0.3-0.88c0.41,0.01,0.82,0.02,1.22,0.03C35.25,17.57,35.4,17.78,35.64,17.93z"/>
	<path class="st251" d="M35.64,17.93c-0.29,0.04-0.65,0.23-0.83-0.09c-0.19-0.34,0.28-0.37,0.41-0.56c0.06,0,0.12,0,0.17-0.01
		C35.54,17.46,35.69,17.66,35.64,17.93z"/>
	<path class="st252" d="M38.3,37.41c-0.07,0-0.15,0-0.22,0c0.12-1.43-0.25-2.89,0.2-4.31C38.28,34.54,38.29,35.97,38.3,37.41z"/>
	<path class="st253" d="M36.16,33.33c-0.3-0.43,0.01-0.68,0.28-0.94c-0.03-0.17,0.12-0.2,0.22-0.27c0.15,0,0.31,0,0.46,0
		c0.08,0.07,0.16,0.14,0.24,0.21C37.1,32.84,37.02,33.55,36.16,33.33z"/>
	<path class="st254" d="M42.64,39.57c0,0.4,0,0.8,0,1.2c-0.83-0.12-1.17-1-1.96-1.24c-0.47-0.14-0.89-0.42-1.4-0.44
		c0.16-0.32,0.32-0.64,0.48-0.97c0.16,0,0.32,0,0.48,0C41.16,38.41,41.93,38.93,42.64,39.57z"/>
	<path class="st255" d="M42.64,39.57c-0.92-0.29-1.73-0.75-2.4-1.44c0.16-0.8,0.58-0.24,0.88-0.15c0.58,0.16,1.03,0.84,1.75,0.4
		c0,0.16,0,0.32,0.01,0.48C42.59,39.02,42.65,39.31,42.64,39.57z"/>
	<path class="st256" d="M30.88,9.56c0-0.07,0-0.14,0-0.21c0.39,0,0.9-0.22,0.95,0.48c0,0,0.02-0.02,0.02-0.02
		c-0.24,0.19-0.47,0.22-0.67-0.06C31.08,9.69,30.98,9.63,30.88,9.56z"/>
	<path class="st257" d="M29.67,26.61c0.17,0.12,0.26,0.28,0.23,0.49c-0.26-0.02-0.54,0.03-0.7-0.25
		C29.36,26.77,29.51,26.69,29.67,26.61z"/>
	<path class="st161" d="M34.24,20.61c0.4,0.06,0.86-0.15,1.2,0.24c-0.16,0.01-0.32,0.01-0.48,0.02c-0.24-0.02-0.48-0.04-0.73-0.05
		C34.23,20.74,34.24,20.67,34.24,20.61z"/>
	<path class="st258" d="M36.66,32.12c-0.07,0.09-0.15,0.18-0.22,0.27c-0.85-0.47-0.78-1.18-0.52-1.94c0.24-0.06,0.46-0.38,0.71-0.02
		C36.03,31,35.94,31.57,36.66,32.12z"/>
	<path class="st259" d="M33.05,26.86c-0.01-1.03,0.05-2.07-0.76-2.9c-0.1-0.19-0.12-0.37,0.05-0.53c0.14-0.04,0.28-0.09,0.42-0.13
		c0.38,0.08,0.49,0.32,0.42,0.67c0.35,1.13,0.66,2.26,0.14,3.43C33.07,27.3,33.23,27,33.05,26.86z"/>
	<path class="st260" d="M33.18,23.98c-0.14-0.22-0.28-0.45-0.42-0.67c0.02-0.1,0.05-0.19,0.07-0.29c0.06,0,0.13,0,0.19-0.01
		c0.4,0,0.8,0.01,1.2,0.01c-0.39,0.59-0.13,1.28-0.3,1.94C33.59,24.68,33.67,24.1,33.18,23.98z"/>
	<path class="st261" d="M33.05,26.86c0.21,0.12,0.23,0.34,0.27,0.55c-0.18,0.28-0.36,0.56-0.53,0.83c-0.07,0.03-0.14,0.04-0.22,0.05
		c-0.08-0.08-0.16-0.16-0.25-0.23C32.77,27.78,32.96,27.35,33.05,26.86z"/>
	<path class="st262" d="M16.24,14.84c-1.06,0.3-1.28,0.13-1.19-0.94C15.7,13.89,16.42,13.8,16.24,14.84z"/>
	<path class="st263" d="M16.27,10.55c0.51,0.19,0.53,0.53,0.27,0.94c-0.13,0.16-0.29,0.31-0.44,0.06
		C15.9,11.19,15.82,10.81,16.27,10.55z"/>
	<path class="st264" d="M31.61,13.89c-0.02,0.23-0.04,0.47-0.05,0.7c-0.39-0.03-0.71,0.4-1.14,0.19c0.05-0.37-0.21-0.77,0.14-1.1
		c0.19,0.05,0.38,0.14,0.56-0.02C31.29,13.74,31.45,13.82,31.61,13.89z"/>
	<path class="st265" d="M31.19,9.75c0.22,0.02,0.44,0.04,0.67,0.06c0.15,0.26,0.3,0.51,0.45,0.77c-0.14,0.16-0.22,0.53-0.51,0.14
		c-0.31-0.08-0.52-0.27-0.59-0.59C31,10,30.99,9.88,31.19,9.75z"/>
	<path class="st266" d="M31.2,10.12c0.23,0.17,0.56,0.23,0.59,0.59c-0.22,0.19-0.42,0.52-0.76,0.17
		C30.71,10.55,30.99,10.34,31.2,10.12z"/>
	<path class="st267" d="M31.12,13.67c-0.07,0.13-0.11,0.34-0.21,0.36c-0.26,0.07-0.28-0.18-0.35-0.35
		C30.75,13.4,30.94,13.54,31.12,13.67z"/>
	<path class="st268" d="M32.34,23.43c-0.02,0.18-0.03,0.35-0.05,0.53c-0.33-0.12-0.56-0.3-0.51-0.69c0.1-0.02,0.2-0.05,0.3-0.07
		C32.17,23.28,32.25,23.36,32.34,23.43z"/>
</g>
</svg>
