<?xml version="1.0" encoding="utf-8"?>
<!-- Generator: Adobe Illustrator 23.0.2, SVG Export Plug-In . SVG Version: 6.00 Build 0)  -->
<svg version="1.1" id="Camada_1" xmlns="http://www.w3.org/2000/svg" xmlns:xlink="http://www.w3.org/1999/xlink" x="0px" y="0px"
	 viewBox="0 0 28.12 41.33" style="enable-background:new 0 0 28.12 41.33;" xml:space="preserve">
<style type="text/css">
	.st0{fill:#010000;}
	.st1{fill:#B7B7B7;}
	.st2{fill:#5F2818;}
	.st3{fill:#572214;}
	.st4{fill:#E2D7CC;}
	.st5{fill:#AE6321;}
	.st6{fill:#DCA555;}
	.st7{fill:#592215;}
	.st8{fill:#AF6321;}
	.st9{fill:#DDA657;}
	.st10{fill:#DCA454;}
	.st11{fill:#904B1D;}
	.st12{fill:#582115;}
	.st13{fill:#DA8E3C;}
	.st14{fill:#C37931;}
	.st15{fill:#B06421;}
	.st16{fill:#F3ECE5;}
	.st17{fill:#EFE4D9;}
	.st18{fill:#F4EBE0;}
	.st19{fill:#BB344D;}
	.st20{fill:#CA7F34;}
	.st21{fill:#E7D5BC;}
	.st22{fill:#DA8C3A;}
	.st23{fill:#D6BB9E;}
	.st24{fill:#B9354B;}
	.st25{fill:#5F2717;}
	.st26{fill:#642B19;}
	.st27{fill:#622916;}
	.st28{fill:#5C2619;}
	.st29{fill:#DBA354;}
	.st30{fill:#F5EFE7;}
	.st31{fill:#F8F4F0;}
</style>
<g>
	<path class="st0" d="M11.77,33.1c-1.81,0.71-3.53,1.64-5.45,2.06c-1.24,0.27-2.43-0.23-2.95-1.39c-0.61-1.35-0.69-2.79-0.44-4.22
		c0.21-1.17,1.15-1.75,2.35-2.34c-1.97-0.47-3.03-1.69-3.63-3.37c-0.35-0.97-0.36-1.94,0.03-2.91c0.26-0.64,0.73-1.11,1.39-1.18
		c1.44-0.17,2.55-1.04,3.8-1.64c0.39-0.19,0.54-0.33,0.18-0.77c-1.95-2.42-2.35-5.08-0.99-7.91c0.22-0.45,0.06-0.71-0.13-1.07
		c-0.69-1.28-1.2-2.59-0.66-4.1c0.77-2.12,3.09-3.15,5.11-2.23c0.98,0.45,1.96,0.89,2.71,1.7c0.25,0.27,0.53,0.28,0.86,0.31
		c2,0.17,3.88,0.15,5.77-0.91c1.87-1.05,3.14-0.57,4.76,1.12c1.18,1.23,1.57,3.26,0.84,4.77c-0.23,0.47-0.17,0.77-0.03,1.27
		c0.58,1.98,0.85,4.01-0.18,5.93c-0.3,0.56-0.25,0.96,0,1.51c1.09,2.38,1.93,4.83,1.26,7.49c-0.56,2.26-1.68,4.27-3,6.18
		c-1.34,1.94-2.67,3.88-4.27,5.62c-0.66,0.72-1.36,1.36-2.3,1.64c-1.9,0.55-3.55-0.42-4.58-2.66c-0.1-0.22-0.17-0.45-0.25-0.67
		C11.71,34.6,12.12,33.81,11.77,33.1z"/>
	<path class="st1" d="M11.77,33.1c0.4,0.71,0.09,1.48,0.22,2.22C11.51,34.62,11.8,33.84,11.77,33.1z"/>
	<path class="st2" d="M4.58,29.02c1.31-1.14,3.07-0.97,4.57-1.57c0.66-0.27,1.04-0.47,0.69-1.25c-0.42-0.94-0.14-1.97-0.31-3
		c-0.65-0.02-0.86,0.54-1.23,0.85c-0.28,0.23-0.48,0.55-0.78,0.75c-0.86,0.59-1.63,1.6-2.86,0.94c-1.33-0.71-2.05-1.92-2.13-3.39
		c-0.04-0.69,0.28-1.27,1.22-1.49c1.92-0.45,3.55-1.6,5.21-2.62c0.68-0.42,0.02-0.66-0.2-0.87c-1.46-1.37-2.39-2.96-2.29-5.05
		c0.04-1,0.4-1.87,0.86-2.71c0.3-0.54,0.43-0.9-0.13-1.43C6.64,7.64,6.41,6.8,6.28,6.02C5.92,3.95,7.84,2.55,9.63,3.08
		c0.95,0.28,1.81,0.68,2.5,1.33c0.7,0.67,1.48,0.87,2.38,0.88c0.87,0.01,1.75-0.07,2.61,0.22c0.39,0.13,0.79,0.06,1.1-0.28
		c0.39-0.42,0.91-0.64,1.42-0.87c1.86-0.84,2.72-0.69,3.95,0.67c1.08,1.19,1.21,2.54,0.3,4.06c-0.23,0.39-0.33,0.66-0.1,1.07
		c1.12,2.01,1.01,4.04,0,6.04c-0.27,0.54-0.33,0.92-0.01,1.5c0.89,1.57,1.42,3.33,1.57,5.07c0.19,2.11-0.59,4.15-1.71,5.96
		c-1.76,2.85-3.63,5.62-5.91,8.1c-0.27,0.29-0.55,0.44-0.93,0.44c-0.22-0.13-0.31-0.33-0.35-0.57c0.21-0.63,0.52-1.21,0.74-1.84
		c0.39-0.3,0.39,0.32,0.67,0.27c0.94-1.53,2.12-2.86,3.19-4.28c0.84-1.11,1.57-2.28,2.07-3.58c0.44-0.85,0.63-1.78,0.83-2.7
		c0.49-1.88-0.13-3.61-0.68-5.35c-0.25-0.79-0.77-1.5-0.71-2.38c0.3-1.06,0.92-2.01,0.9-3.19c-0.02-1.25-0.08-2.46-0.62-3.6
		c-0.04-0.18-0.05-0.36-0.03-0.54c0.66-1.05,0.71-2.09-0.1-3.1c-0.01-0.16,0.03-0.32,0.06-0.48c-0.27-1-1.04-1.09-1.86-0.95
		c-0.83,0.14-1.57,0.52-2.19,1.1c-0.43,0.41-0.89,0.65-1.49,0.41c-1.17-0.44-2.39-0.39-3.6-0.36c-3.08,0.5-5.19,2.65-5.86,5.99
		c-0.01,0.34-0.02,0.69-0.02,1.03c0.11,1.88,1.24,3.13,2.64,4.2c0.27,0.21,0.75,0.25,0.71,0.71c-0.04,0.46-0.52,0.41-0.82,0.58
		c-1.32,0.76-2.57,1.6-3.89,2.36c-0.48,0.28-0.47,0.56-0.09,0.93c0.38,0.37,0.6,0.84,0.8,1.32c0.08,0.18,0.05,0.39,0.25,0.62
		c0.51-0.94,1.88-1.08,2.02-2.34c0.14-0.53,0.33-1.04,0.61-1.51c0.16-0.26,0.33-0.61,0.69-0.53c0.41,0.09,0.31,0.48,0.29,0.78
		c-0.01,0.19-0.04,0.39-0.01,0.58c-0.01,0.35,0,0.71-0.05,1.06c-0.51,1.6-0.31,3.18,0.18,4.74c0.27,0.79,0.53,1.59,1.11,2.23
		c0.57,0.6,1.53,0.6,2.03,1.3c-0.04,0.33-0.38,0.37-0.54,0.58c-2.27,1.15-4.52,2.35-7,3.04c-1.66,0.46-2.34,0.13-2.52-1.59
		c-0.1-0.93-0.55-1.94,0.11-2.87c0.71,0.71,0.17,1.66,0.49,2.44C4.85,31.99,4.9,32.23,5,32.45c0.21,0.45,0.57,0.66,1.06,0.57
		c0.5-0.1,0.57-0.5,0.59-0.91c0.02-0.52,0.01-1.03-0.14-1.54c-0.1-0.33-0.3-0.67-0.01-1.01c1.2,0.17,1.1,1.16,1.25,1.99
		c-0.1,0.83,0.17,1.06,0.99,0.71c1.02-0.44,2-0.96,3-1.44c0.44-0.21,0.7-0.45,0.14-0.82c-0.33-0.23-0.75-0.41-0.92-0.75
		c-0.65-1.24-1.57-1.11-2.58-0.59c-0.64,0.33-1.58,0.04-1.92,0.95c-0.29,0.19-0.55,0.04-0.81-0.06C5.31,29.32,4.83,29.43,4.58,29.02
		z"/>
	<path class="st3" d="M16.59,36.75c0.2,0.12,0.23,0.31,0.23,0.51c-0.68,0.4-1.27,0.58-2.06,0.01c-1.23-0.89-1.79-2.03-1.73-3.47
		c0.03-0.72,0.16-1.48,1.01-1.88c0.39-0.19,0.76-0.56,0.94-1.05c-0.43-0.23-0.87-0.09-1.29-0.13c0.01-0.33,0.2-0.47,0.51-0.49
		c0.96-0.31,1.91-0.64,2.51-1.55c0.15-0.22,0.45-0.31,0.75-0.22c0.55,0.81-0.25,1.2-0.57,1.71c-0.29,0.47-0.99,0.73-1.03,1.26
		c-0.05,0.61,0.78,0.66,1.13,1.09c0.43,0.53,0.8,1.08,1.02,1.73c0.09,0.44,0.03,0.86-0.21,1.25c-0.55,0.03-0.03-0.65-0.47-0.7
		c-0.49-0.27-0.61-0.83-0.96-1.2c-0.6-0.63-1.21-1.2-2.16-0.65c-0.28,0.74-0.37,1.48,0.09,2.18C14.78,36.09,15.44,36.76,16.59,36.75
		z"/>
	<path class="st4" d="M4.53,32.01c-0.41-0.86-0.04-1.8-0.25-2.68c0.1-0.1,0.2-0.2,0.3-0.3c0.41,0.08,0.87-0.09,1.22,0.26
		c-0.33,0.72-0.76,1.39-0.75,2.24C5.06,31.77,4.9,32.05,4.53,32.01z"/>
	<path class="st5" d="M17.76,34.12c-0.58-0.91-1.15-1.8-2.26-2.19c-0.71-0.25-0.11-0.55,0.07-0.76c0.71-0.84,1.69-1.47,2.01-2.61
		c0.2-0.32,0.42-0.63,0.78-0.79c1.32,0.25,2.12-0.51,2.72-1.5c0.62-1.02,1.18-2.08,1.5-3.5c-0.51,0.96-0.64,1.81-1.06,2.54
		c-0.16,0.28-0.32,0.61-0.67,0.63c-0.43,0.03-0.44-0.39-0.54-0.67c-0.38-1.11-0.96-1.93-2.3-1.83c-0.2,0.01-0.43-0.01-0.48-0.24
		c-0.07-0.31,0.14-0.54,0.33-0.73c0.91-0.89,1.68-1.89,2.31-2.69c-0.27,0.56-1,1.08-1.5,1.8c-0.38,0.55-0.84,0.52-1.28,0.01
		c-0.53-0.61-1.22-1.01-1.95-1.35c-1.51-0.71-2.92-0.71-4.21,0.48c-0.12,0.11-0.27,0.16-0.44,0.17c-0.57-0.37,0.2-0.86-0.13-1.3
		c-0.6,0.58-0.73,1.37-1.08,2.04c-0.36,0.86-1.24,1.18-1.87,1.76c-0.21,0.2-0.52,0.14-0.76-0.07c-0.47-0.68-0.88-1.41-1.76-1.93
		c1.95-1.18,3.78-2.29,5.61-3.4c-1.7-1.05-3.19-2.44-3.35-4.75c0.23-0.29,0.67-0.21,0.9-0.5c-0.12-0.5-0.71-0.35-0.91-0.71
		c0.72-3.31,2.62-5.48,6.01-6.18c1.36,0.08,2.69,0.31,4.04,0.45c0.49,0.27,0.72-0.13,0.98-0.4c0.66-0.69,1.5-1.02,2.39-1.23
		c1.14-0.27,2.04,0.32,2.19,1.33c-0.45,0-0.78-0.35-1.23-0.38c-1.21-0.09-2.28,0.47-2.37,1.3c-0.08,0.83,1.02,2.07,1.97,2.26
		c0.37,0.07,0.7-0.03,1.05-0.1c0.26-0.02,0.44,0.08,0.55,0.32c0,0.17,0,0.33,0,0.5c0.19,1.62,0.64,3.21,0.34,4.89
		c-0.16,0.9-0.89,1.59-0.79,2.55c1.21,2.33,1.79,4.8,1.65,7.43c-0.27,0.9-0.3,1.88-0.94,2.65c-1.27,2.02-2.76,3.87-4.19,5.77
		C18.79,33.61,18.51,34.23,17.76,34.12z"/>
	<path class="st6" d="M18.27,27.86c-0.03,0.43-0.24,0.69-0.69,0.7c-0.49-0.07-0.72,0.32-0.91,0.63c-0.58,0.96-1.39,1.3-2.47,1.06
		c-0.7-0.44-1.58-0.52-2.16-1.18c-0.39-0.9-0.91-1.74-1.16-2.7c-0.45-1.74-0.52-3.46,0.14-5.16c0.4-1.03,1.29-1.46,2.26-1.47
		c1.61-0.02,3.02,0.62,4.14,1.82c0.35,0.37,0.48,0.74,0.11,1.26c-1.34,1.9-1.26,2.6,0.35,4.34C18.08,27.36,18.34,27.52,18.27,27.86z
		"/>
	<path class="st7" d="M18.27,27.86c-0.95-0.89-2.09-1.65-1.94-3.23c0.07-0.7,0.13-1.32,0.82-1.73c0.6-0.36,0.61-0.76,0.07-1.31
		c-1.81-1.84-4.35-2.08-5.93-0.5c-0.12,0.24-0.22,0.5-0.53,0.54c-0.31-0.27,0.01-0.5,0.05-0.74c1.56-2.37,4.8-1.47,6.56,0.29
		c0.62,0.62,0.8,0.63,1.36-0.04c0.68-0.81,1.2-1.84,2.47-2.47c-0.48,1.08-1.16,1.69-1.7,2.39c-0.56,0.72-1.19,1.37-2.05,2.25
		c1.07-0.26,1.78-0.16,2.39,0.44c0.58,0.57,0.74,1.3,0.91,2.14c1.08-1.08,0.94-2.74,2.13-3.65c-0.34,2.21-1.11,4.21-2.9,5.67
		C19.46,28.31,18.83,28.13,18.27,27.86z"/>
	<path class="st8" d="M6.49,29.56c0.03-0.26-0.76-0.69,0.16-0.76c0.04,0,0.08-0.01,0.12-0.03c1.02-0.31,2.03-0.82,3.06-0.87
		c1.13-0.05,1.22,1.51,2.19,1.89c0.11,0.33-0.1,0.53-0.33,0.68c-1.03,0.65-2.03,1.34-3.15,1.85c-0.75,0.34-0.98,0.07-1.05-0.61
		C7.4,30.87,7.38,30.01,6.49,29.56L6.49,29.56z"/>
	<path class="st6" d="M16.59,36.75c-1.33,0.54-1.93-0.28-2.42-1.3c-0.61-0.9-0.27-1.86-0.18-2.8c1.16-0.67,1.96-0.02,2.63,0.81
		c0.32,0.39,0.48,0.91,0.71,1.37C17.49,35.62,17.17,36.24,16.59,36.75z"/>
	<path class="st6" d="M23.05,9.37c-0.16-0.08-0.31-0.15-0.47-0.23c-1.55,0.26-2.45-0.29-3.01-1.83c0.17-0.82,0.71-1.33,1.41-1.72
		c0.71-0.05,1.48-0.26,1.85,0.65C24.04,7.77,24.05,7.97,23.05,9.37z"/>
	<path class="st9" d="M4.53,32.01c0.36-0.26,0.28-0.65,0.25-0.99c-0.07-0.84,0.06-1.52,1.02-1.74c0.23,0.1,0.46,0.19,0.69,0.29
		c0,0-0.01-0.01-0.01-0.01C6.85,30.4,7.1,31.27,7,32.21c-0.07,0.57-0.09,1.12-0.85,1.24c-0.75,0.12-1.24-0.12-1.46-0.87
		C4.64,32.39,4.59,32.2,4.53,32.01z"/>
	<path class="st10" d="M3.58,21.67c1.12-0.07,2.52,0.88,2.81,1.92c0.31,1.1-0.34,1.72-1.79,1.72C3.87,24.21,2.91,23.17,3.58,21.67z"
		/>
	<path class="st11" d="M17.76,34.12c1.7-1.41,2.68-3.4,4.1-5.04c0.49-0.56,0.74-1.33,1.45-1.68c-0.25,1.19-0.94,2.17-1.64,3.12
		c-1.25,1.71-2.59,3.34-3.89,5.01C17.78,35.06,17.77,34.59,17.76,34.12z"/>
	<path class="st6" d="M7.9,4.87c0.93-0.19,1.59,0.4,2.32,0.79c0.47,0.25,0.25,0.45-0.06,0.68C9.56,6.8,8.98,7.29,8.4,7.76
		C7.27,6.97,7.09,5.88,7.9,4.87z"/>
	<path class="st12" d="M22.84,6.26c-0.56-0.49-1.2-0.64-1.92-0.47c-0.52,0.37-1.1,0.7-1.21,1.43c0.44,1.41,1.54,1.85,2.87,1.94
		c-1.04,0.64-1.95,0.37-2.88-0.84c-0.79-1.03-0.77-1.76,0.07-2.5c0.93-0.82,2.36-0.75,3.31,0.16C23,6.07,22.92,6.16,22.84,6.26z"/>
	<path class="st11" d="M7.49,31.7c0.26,0.13,0.11,0.8,0.72,0.48c1.33-0.7,2.67-1.39,3.81-2.39c0.29,0.18,0.69,0.23,0.87,0.71
		c-1.54,0.86-3.09,1.75-4.79,2.27C7.07,33.09,7.6,32.12,7.49,31.7z"/>
	<path class="st13" d="M22.35,17.29c-0.45-0.63,0.34-0.82,0.44-1.25c0.29-1.18,0.45-2.36,0.4-3.59c-0.03-0.86-0.77-1.69-0.14-2.58
		c1.16,2.38,1.16,4.7-0.3,6.96C22.62,16.99,22.82,17.44,22.35,17.29z"/>
	<path class="st14" d="M22.35,17.29c0.13-0.15,0.27-0.31,0.4-0.46c0.53,1.81,1.47,3.5,1.62,5.44c0.07,0.84,0.13,1.66-0.12,2.47
		c-0.52-0.92-0.1-1.94-0.28-2.9C23.68,20.24,23.11,18.73,22.35,17.29z"/>
	<path class="st15" d="M9.59,3.89c0.69,0.08,1.25,0.45,1.82,0.79c0.25,0.14,0.7,0.4,0.47,0.68c-0.22,0.27-0.7,0.53-1.15,0.19
		c-0.53-0.4-1.07-0.79-1.61-1.18C8.97,3.89,9.47,4.08,9.59,3.89z"/>
	<path class="st16" d="M10.76,21.63c0.18-0.18,0.35-0.36,0.53-0.54c-0.77,1.83-0.51,3.68-0.18,5.54c0.09,0.23-0.02,0.29-0.23,0.27
		C10.36,25.15,9.87,23.4,10.76,21.63z"/>
	<path class="st11" d="M6.97,23.31c1.17-0.1,1.7-1.2,2.63-1.69c0.03,0.45,0.04,0.88-0.48,1.09c-0.83,0.34-1.24,1.2-2,1.64
		C6.86,24.01,7.04,23.64,6.97,23.31z"/>
	<path class="st17" d="M7.9,4.87C7.48,5.94,7.49,6.92,8.4,7.76C8.37,7.92,8.3,8.14,8.14,8.07C7.69,7.89,6.85,5.95,7,5.48
		C7.14,5.06,7.47,4.88,7.9,4.87z"/>
	<path class="st18" d="M3.58,21.67c-0.01,1.25,0.09,2.47,1.14,3.37c0.02,0.02-0.08,0.18-0.12,0.27c-1.03-0.63-1.4-1.64-1.52-2.76
		C3.03,22.17,2.99,21.72,3.58,21.67z"/>
	<path class="st19" d="M7.47,12.01c0.2,0.01,0.39,0.02,0.59,0.02c0.44,0.01,0.79,0.15,0.82,0.65c0.03,0.59-0.42,0.55-0.81,0.56
		c-0.2,0-0.39-0.01-0.59-0.01C7.48,12.82,7.48,12.41,7.47,12.01z"/>
	<path class="st20" d="M17.53,6.27c-0.28,0.36-0.62,0.19-0.97,0.12c-1.02-0.21-2.05-0.38-3.08-0.57
		C14.87,5.68,16.23,5.73,17.53,6.27z"/>
	<path class="st21" d="M10.88,26.9c0.08-0.09,0.15-0.18,0.23-0.27c0.29,0.83,0.85,1.55,0.94,2.45C11.4,28.49,11.15,27.68,10.88,26.9
		z"/>
	<path class="st22" d="M9.59,3.89C9.44,4.05,9.28,4.21,9.13,4.36c-0.51,0-1.01,0-1.65,0C8.14,3.65,8.89,3.85,9.59,3.89z"/>
	<path class="st23" d="M13.98,32.65c0.21,0.92-0.24,1.89,0.18,2.8C13.31,34.57,13.66,33.61,13.98,32.65z"/>
	<path class="st24" d="M16.5,14.18c-0.72,0.02-1.32-0.16-1.31-0.85c0.01-0.69,0.62-0.83,1.23-0.83c0.61,0,1.25,0.11,1.28,0.78
		C17.74,14.08,16.98,14.08,16.5,14.18z"/>
	<path class="st25" d="M11.2,14.17c-0.99,0.1-1.27-0.32-1.33-0.88c-0.07-0.74,0.46-0.83,1.01-0.79c0.57,0.03,1.36-0.05,1.32,0.79
		C12.17,13.94,11.46,14.09,11.2,14.17z"/>
	<path class="st26" d="M15.86,11.3c-0.01,0.58-0.2,1.08-0.74,1.08c-0.53,0-0.46-0.55-0.44-0.92c0.03-0.54,0.06-1.28,0.72-1.27
		C16,10.2,15.63,10.98,15.86,11.3z"/>
	<path class="st27" d="M10.34,10.36c-0.05,0.5-0.09,1.14-0.69,1.31c-0.46,0.13-0.54-0.4-0.48-0.73c0.09-0.54-0.03-1.3,0.71-1.43
		C10.31,9.43,10.31,9.96,10.34,10.36z"/>
	<path class="st28" d="M13.46,14.98c-0.04,0.8-0.48,1.03-0.95,0.89c-0.8-0.25-1.88,0.49-2.52-0.65
		C11.19,14.96,12.31,16.32,13.46,14.98z"/>
	<path class="st29" d="M17.11,24.05c1.15-0.87,2.66-0.48,2.95,0.86c0.19,0.86,0.36,1.83-0.55,2.5
		C17.9,26.87,17.39,25.55,17.11,24.05z"/>
	<path class="st30" d="M17.11,24.05c0.62,1.25,1.12,2.58,2.4,3.36C17.84,27.15,16.86,25.78,17.11,24.05z"/>
	<path class="st31" d="M19.72,7.21c-0.23-1.01,0.51-1.2,1.21-1.43C20.52,6.26,20.12,6.74,19.72,7.21z"/>
</g>
</svg>
