<?xml version="1.0" encoding="utf-8"?>
<!-- Generator: Adobe Illustrator 23.0.2, SVG Export Plug-In . SVG Version: 6.00 Build 0)  -->
<svg version="1.1" id="Camada_1" xmlns="http://www.w3.org/2000/svg" xmlns:xlink="http://www.w3.org/1999/xlink" x="0px" y="0px"
	 viewBox="0 0 212.89 241.66" style="enable-background:new 0 0 212.89 241.66;" xml:space="preserve">
<style type="text/css">
	.st0{fill:#FEFEFE;}
	.st1{fill:#040404;}
	.st2{fill:#4B2917;}
	.st3{fill:#9A5830;}
	.st4{fill:#B66E41;}
	.st5{fill:#8D3F1E;}
	.st6{fill:#B66D41;}
	.st7{fill:#8D3F1F;}
	.st8{fill:#995327;}
	.st9{fill:#D39C5C;}
	.st10{fill:#D49D5D;}
	.st11{fill:#D29A5B;}
	.st12{fill:#8C3F1F;}
	.st13{fill:#D49E5E;}
	.st14{fill:#D49D5E;}
	.st15{fill:#D0985A;}
	.st16{fill:#D2995B;}
	.st17{fill:#CF9558;}
	.st18{fill:#D19A5B;}
	.st19{fill:#CD9256;}
	.st20{fill:#CC9156;}
	.st21{fill:#8A3E1F;}
	.st22{fill:#663B22;}
	.st23{fill:#BC814A;}
	.st24{fill:#B87E48;}
	.st25{fill:#BB814A;}
	.st26{fill:#BD8048;}
	.st27{fill:#4C2A18;}
	.st28{fill:#281514;}
	.st29{fill:#4D2B18;}
	.st30{fill:#281413;}
	.st31{fill:#FBFAF9;}
	.st32{fill:#FCFCFB;}
	.st33{fill:#2A1615;}
	.st34{fill:#C1864D;}
	.st35{fill:#2D1817;}
	.st36{fill:#BC824B;}
	.st37{fill:#B69680;}
	.st38{fill:#D4C1B1;}
	.st39{fill:#D59F5E;}
	.st40{fill:#B56D41;}
	.st41{fill:#B46D40;}
	.st42{fill:#D69F5E;}
	.st43{fill:#D59E5E;}
	.st44{fill:#B46C40;}
	.st45{fill:#271313;}
	.st46{fill:#3A201D;}
	.st47{fill:#422C20;}
	.st48{fill:#412C20;}
	.st49{fill:#4E2E2D;}
	.st50{fill:#ECE8E8;}
	.st51{fill:#271413;}
	.st52{fill:#4E2F2E;}
	.st53{fill:#D1CBCB;}
	.st54{fill:#B09F9C;}
</style>
<g>
	<path class="st0" d="M0.04,196.08c0.08-8.16,1.18-15.19,4.75-21.65c3.22-5.81,8.19-9.59,14.27-11.97c2.17-0.85,4.38-1.64,6.7-1.97
		c1.07-0.15,1.42-0.78,1.65-1.74c1.32-5.64,2.36-11.36,4.27-16.86c3.06-8.77,6.97-17.14,11.76-25.1c3.36-5.58,7.35-10.62,12-15.15
		c0.04-0.04,0.06-0.1,0.11-0.14c0.91-0.78,1.82-1.55,2.73-2.33c-0.9-0.96-1.78-1.94-2.7-2.87c-6.86-6.88-10.19-15.34-11.28-24.84
		c-0.68-5.87-0.09-11.65,1.23-17.37c0.18-0.78,0.14-1.27-0.42-1.91c-1.74-1.98-3.37-4.04-5.02-6.1c-3.69-4.62-5.28-9.99-5.51-15.82
		c-0.37-9.58,3.99-14.79,12.29-18.17c4.05-1.65,8.36-2.46,12.8-2.43c3.77,0.02,7.34,0.92,10.8,2.33c0.99,0.4,1.68,0.18,2.64-0.18
		c2.31-0.88,3.68-2.56,5.09-4.46c2.11-2.85,5.49-3.41,8.72-4.11c0.47-0.1,0.93-0.21,1.4-0.28c3.4-0.51,6.76-0.38,10.1-2.1
		c4.11-2.12,8.08-0.06,11.23,2.89c1.65,1.54,3.35,2.56,5.53,2.99c4.2,0.83,8.14,2.41,11.87,4.49c1.01,0.56,1.82,0.55,2.98,0.13
		c3.41-1.25,6.89-2.34,10.61-2.4c3.57-0.06,7.11-0.13,10.63,0.74c8.83,2.19,14.07,7.94,16.56,16.45c1.92,6.58,1.3,12.95-1.45,19.25
		c-1.49,3.42-3.6,6.3-6.2,8.86c-0.65,0.64-0.59,1.24-0.59,1.92c0.02,6.68-0.9,13.24-2.95,19.58c-1.62,5.01-3.85,9.78-6.87,14.15
		c-2.33,3.37-2.16,3.31,0.64,6.3c9.29,9.92,16.88,20.81,19.44,34.55c0.75,4.02,0.72,8.1,1.27,12.12c0.71,5.14,1.5,10.27,2.24,15.41
		c0.15,1,0.42,1.29,1.6,0.96c2.52-0.7,5.13-1.37,7.72-1.5c6.64-0.34,12.62,1.71,17.81,5.9c3.97,3.21,6.3,7.48,8.28,12.14
		c1.65,3.89,3,7.77,3.75,11.92c0.78,4.34,0.21,8.58-0.73,12.79c-1.08,4.84-1.73,9.77-3.33,14.49c-3.24,9.58-9.48,16.34-18.93,20.05
		c-3.24,1.27-6.58,2.36-10.06,2.42c-5.25,0.09-10.1-1.7-14.75-3.94c-1.02-0.49-1.96-0.82-3.05-0.6c-3.09,0.63-6.21,0.22-9.32,0.41
		c-1.91,0.11-3.82,0.21-5.72,0.31c-0.56,0.03-1.02,0.21-1.44,0.63c-2.3,2.34-4.97,3.92-8.14,4.98c-4.83,1.62-9.65,2.66-14.77,2.36
		c-8.39-0.49-15.18-3.87-20.16-10.74c-0.44-0.61-0.23-1.92-1.37-1.78c-0.88,0.11-1.09,1.18-1.61,1.81
		c-4.22,5.08-9.72,7.76-16.14,8.87c-6.7,1.16-13.09-0.08-19.38-2.29c-0.45-0.16-0.98-0.3-1.29-0.62c-3.1-3.22-6.53-1.58-9.51-0.22
		c-5.74,2.62-11.46,3.79-17.75,2.42c-8.28-1.81-15.6-5.39-21.73-11.19c-6.69-6.34-10.57-14.23-12.17-23.27
		C0.6,201.48-0.19,198.4,0.04,196.08z"/>
	<path class="st1" d="M138.5,94.2c3.3,2.47,6.27,5.34,9.02,8.4c6.53,7.27,12.04,15.19,14.9,24.7c1.1,3.63,1.66,7.34,1.82,11.11
		c0.22,5.09,1.21,10.08,1.94,15.1c0.62,4.26,1.13,8.52,1.68,12.79c0.11,0.89,0.24,1.77,0.39,2.87c2.7-1.7,5.49-2.84,8.38-3.77
		c6.33-2.05,12.43-1.7,18.08,1.98c2.93,1.91,5.39,4.43,6.67,7.76c1.39,3.62,3.44,6.95,4.33,10.8c1.05,4.55,0.89,9.08-0.17,13.5
		c-0.98,4.12-1.51,8.33-2.77,12.39c-3.41,10.99-11.07,17.02-22.07,19.12c-3.58,0.68-6.98-0.58-10.28-1.94
		c-1.44-0.59-2.91-1.11-4.18-2.04c-1.69-1.23-3.55-0.72-5.32-0.43c-1.02,0.17-2.01,0.29-3.03,0.25c-5.09-0.18-10.14,0.47-15.21,0.71
		c-0.56,0.03-0.83,0.22-1.1,0.68c-1.54,2.57-3.77,3.97-6.66,4.98c-4.04,1.41-8.04,2.07-12.29,2c-5.79-0.1-10.36-2.51-14.2-6.62
		c-1.28-1.37-1.72-3.02-1.37-4.82c0.21-1.08-0.1-1.23-1.12-1.27c-3.42-0.15-6.76,0.08-10,1.32c-0.64,0.25-1.07,0.56-1.12,1.22
		c-0.13,1.59-1.16,2.64-2.26,3.54c-3.54,2.9-7.53,4.74-12.2,5.11c-4.87,0.39-9.52-0.37-14.08-2.03c-1.73-0.63-2.84-1.98-3.95-3.3
		c-0.55-0.65-0.97-0.93-1.78-0.66c-2.84,0.93-5.61,2.13-8.68,2.08c-0.26,0-0.55,0.22-0.79,0.38c-5.69,3.86-11.84,3.93-18.06,1.88
		c-5.72-1.89-11.05-4.61-15.4-8.92c-5.62-5.57-8.93-12.34-10.3-20.09c-1.35-7.67-1.13-15.22,1.75-22.58
		c2.23-5.7,6.41-9.43,11.87-11.77c3.42-1.47,7-2.57,10.83-1.84c1.17,0.22,0.96-0.76,1.02-1.23c0.4-3.32,1.18-6.57,1.82-9.84
		c1.42-7.21,3.78-14.09,6.74-20.79c2.56-5.8,5.37-11.5,8.83-16.82c3.49-5.37,7.57-10.3,12.67-14.27c1.62-1.26,2.88-2.88,4.46-4.17
		c0.81-0.66,0.03-0.9-0.26-1.19c-2.34-2.32-4.75-4.57-7.05-6.93c-5.48-5.61-8.38-12.42-9.21-20.18c-0.72-6.67-0.01-13.2,1.9-19.6
		c0.24-0.8-0.06-1.17-0.55-1.67c-2.61-2.63-5.06-5.41-7.29-8.38c-3.53-4.71-4.49-10.09-3.57-15.69c0.78-4.7,4.69-6.76,8.72-8.23
		c6.96-2.54,13.85-2.48,20.42,1.33c0.93,0.54,1.62,0.55,2.58,0.03c2.74-1.47,5.55-2.82,8.36-4.15c0.56-0.27,0.8-0.5,0.8-1.16
		c0-1.97,1.23-3,2.96-3.61c3.95-1.38,7.99-1.4,12.05-0.7c0.77,0.13,1.08,0.15,1.38-0.72c0.77-2.21,2.41-2.76,4.56-1.84
		c2.12,0.91,3.35,2.86,5.13,4.16c0.55,0.4,1.04,0.73,1.71,0.84c6.31,0.98,11.94,3.83,17.59,6.57c1.02,0.5,1.71,0.49,2.75-0.11
		c3.35-1.95,6.96-3.19,10.93-3c2.42,0.12,4.8-0.18,7.27,0.17c7.58,1.06,12.59,7.8,13.67,14.48c0.97,6.03-0.45,11.36-3.7,16.34
		c-1.21,1.86-2.94,3.27-4.56,4.76c-0.55,0.51-0.88,1.03-0.83,1.85c0.37,5.89-0.25,11.73-1.53,17.44c-0.95,4.25-2.68,8.35-4.92,12.11
		c-1.86,3.12-3.57,6.35-5.78,9.26C140.17,92.76,139.17,93.24,138.5,94.2z"/>
	<path class="st2" d="M101.33,9.57c2,0.47,3.09,1.95,4.17,3.33c0.85,1.08,1.69,1.73,3.17,1.97c6.45,1.03,12.43,3.4,17.87,7.05
		c1.35,0.91,2.35,1.02,3.8,0.02c3.07-2.12,6.48-3.89,10.32-3.48c2.74,0.29,5.45-0.53,8.18,0.22c4.52,1.24,7.59,3.92,9.38,8.28
		c2.31,5.64,1.68,10.97-1.22,16.16c-1.64,2.92-4.2,5.02-6.68,7.17c-0.51,0.44-0.71,0.71-0.59,1.45c1.04,6.52,0.16,12.8-2.12,18.99
		c-1.97,5.35-4.43,10.46-6.74,15.66c-1.19,2.67-3.29,4.53-5.28,6.52c-1.54,1.54-1.53,1.52,0.28,2.89c2.24,1.69,4.13,3.79,6.23,5.61
		c5.45,4.72,9.53,10.49,13.17,16.6c3.09,5.18,5.19,10.79,5.7,16.84c0.77,9.15,2.28,18.19,3.54,27.27c0.45,3.24,0.86,6.51,0.81,9.81
		c-0.02,1.06,0.22,2.16-0.65,3.16c1.96-0.64,3.27-2.14,5-2.96c1.78-0.84,3.34-2.15,5.13-2.94c5-2.21,10.03-2.99,15.38-0.77
		c5.61,2.33,8.44,6.8,10.32,12.13c0.44,1.25,1.07,2.4,1.55,3.62c2.02,5.13,1.61,10.35,0.48,15.52c-0.7,3.2-1.18,6.45-2.03,9.61
		c-1.85,6.89-5.47,12.57-12,15.98c-2.93,1.53-6,2.83-9.32,2.9c-4.18,0.09-7.97-1.58-11.45-3.69c-1.78-1.08-3.34-1.68-5.46-1.34
		c-6.47,1.05-13.01,0.77-19.53,0.72c-0.9-0.01-1.61,0.26-2.32,0.76c-0.62,0.44-1.03,0.98-1.31,1.66c-0.7,1.69-1.96,2.72-3.65,3.45
		c-4.25,1.81-8.6,2.68-13.26,2.52c-4.94-0.17-8.59-2.56-11.86-5.9c-0.84-0.86-0.45-1.94-0.45-2.92c0.02-4.17,0.04-4.23-4.07-4.16
		c-3.94,0.07-7.87,0.32-11.65,1.65c-0.92,0.32-1.79,0.76-1.89,1.71c-0.42,3.82-3.42,5-6.27,6.4c-4.52,2.23-9.33,2.3-14.02,1.22
		c-3.01-0.69-6.26-1.52-8.07-4.77c-0.92-1.65-2.87-1-4.29-0.66c-2.54,0.62-4.96,1.68-7.67,1.7c-1.33,0.01-2.34,1.11-3.46,1.78
		c-4.81,2.86-9.86,2.53-14.88,0.84c-4.95-1.67-9.65-3.93-13.45-7.65c-4.29-4.2-7.48-9.03-9.05-14.97
		c-1.31-4.97-2.03-9.97-1.64-15.05c0.48-6.15,1.74-12.11,6.82-16.39c3.9-3.28,8.3-5.4,13.5-5.55c1.54-0.04,2.9,0.66,4.37,0.93
		c0.96,0.17,1.1-0.11,1.2-0.95c1.42-11.98,4.11-23.61,9.3-34.6c3.21-6.79,6.59-13.43,11.19-19.39c3.31-4.28,7.24-7.95,11.26-11.54
		c1.47-1.32,2.73-2.85,4.39-3.97c1-0.67,0.18-1.19-0.31-1.69c-3.46-3.57-7.51-6.56-10.67-10.41c-3.97-4.85-6.49-10.41-6.85-16.78
		c-0.3-5.25-0.22-10.49,1.03-15.64c1.37-5.64,1.38-5.63-2.74-9.88c-2.84-2.93-5.43-6.04-7.04-9.87c-1.24-2.93-1.3-6.04-0.83-9.02
		c0.55-3.49,3.6-4.95,6.55-6.07c6.56-2.49,12.99-2.41,19.06,1.54c1.18,0.77,2.21,0.79,3.47,0.12c2.68-1.45,5.31-3,8.16-4.15
		c1.55-0.63,3.06-1.35,4.71-1.69c0.45-0.09,1.01-0.25,1.06-0.82c0.06-0.59-0.42-0.78-0.91-0.93c-0.44-0.14-1.08-0.21-1.03-0.8
		c0.05-0.58,0.62-0.8,1.15-0.99c3.98-1.44,7.98-1.42,11.92,0c2.9,1.04,2.96,1.08,2.99-2.04C101.28,10.49,101.31,10.08,101.33,9.57z"
		/>
	<path class="st3" d="M64.52,122.4c0.46,0.77,0.93,1.53,1.36,2.32c0.31,0.57,0.67,1.01,1.38,0.91c0.68-0.1,0.73-0.63,0.87-1.18
		c0.31-1.19,0.47-1.34,1.98-2.4c-0.17,2.63-0.36,5.09,0.46,7.58c1.65,5.01,5.05,8.6,8.96,11.84c0.17,0.14,0.51,0.35,0.62,0.28
		c1.52-0.98,2.06,0.44,2.86,1.15c2.38,2.09,5.25,3.34,8.1,4.57c2.83,1.22,5.24,2.83,6.96,5.41c0.72,1.08,1.33,1.2,1.77-0.19
		c0.39-1.26,1.09-2.11,2.42-2.61c1.1-0.42,1.83-1.51,2.57-2.45c1.65-2.07,3.65-3.8,5.5-5.67c0.59-0.6,1.05-0.49,1.7-0.01
		c2.51,1.85,2.76,1.94,4.7-0.39c1.7-2.04,4.05-2.85,6.19-4.07c2.48-1.42,4.75-3.01,6.17-5.58c0.16-0.3,0.21-0.9,0.86-0.45
		c1.09,0.76,1.85,0.07,2.67-0.62c3.58-3.01,3-6.99,2.66-11.03c0.36-0.34,1.27,0.53,1.41-0.31c0.14-0.8-0.96-0.52-1.26-1.03
		c0.5-0.55,1.11-0.64,1.79-0.42c0.02,0.83,0.22,1.18,0.93,0.39c1.48-1.65,0.88-3.57,0.75-5.45c0.59-0.11,1,0.3,1.43,0.56
		c0.51,0.31,0.97,0.82,1.61,0.44c0.64-0.38,0.33-1.08,0.38-1.64c0.18-1.99-0.27-3.91-0.68-5.83c0.98-0.18,1.53,0.53,2.11,1.09
		c2.73,2.64,5.27,5.45,7.38,8.62c0.22,0.34,0.5,0.68,0.96,0.73c2.51,3.76,4.34,7.85,5.65,12.15c1.41,4.61,2.05,9.35,1.83,14.16
		c-0.22,5.01,1.19,9.82,1.56,14.76c0.32,4.34,0.88,8.67,1.34,13c0.07,0.65,0.1,1.33,0.32,1.94c1.28,3.64-0.75,5.96-3.18,8.13
		c-2.8,2.8-4.08,6.43-5.37,10.04c-2.71,7.61-1.75,14.83,2.38,21.71c1.15,1.92,0.76,2.57-1.49,2.58c-3.13,0.02-6.19-0.69-9.28-0.97
		c-1.27-0.12-1.91-0.86-1.89-2.16c0.13-7.13-0.21-14.25,0.24-21.39c0.37-5.85,1.29-11.61,2.06-17.39c0.78-4.41,1.38-8.85,1.81-13.3
		c0.46-1.39,0.1-2.82,0.12-4.21c0.04-4.15,0.95-8.28,0.17-11.85c-0.37,1.72,0.84,4.02,0.07,6.32c-0.41,0.06-0.54,0.27-0.6,0.71
		c-0.91,7.32-2.48,14.49-4.46,21.61c-2.25,8.1-3.47,16.4-3.8,24.82c-0.1,2.57-0.49,5.12-0.79,7.67c-0.24,2.04-0.3,4.06-0.25,6.09
		c0.12,5.04-0.28,10.04-0.93,15.04c-1.2,0.2-0.66-0.77-0.64-1.14c0.1-2.21-0.68-4-2.4-5.65c-0.03,1.34,0.77,2.18,0.92,3.22
		c0.2,0.25,0.21,0.56,0.13,0.83c-0.43,1.45-3.59,3.12-5.14,2.75c-0.62-1.64-1.34-3.22-2.92-4.31c0.61,1.56,1.22,3.12,1.82,4.68
		c0.07,0.42-0.16,0.71-0.49,0.84c-2.13,0.85-4.28,1.34-6.38-0.11c-1.26-2.42-1.69-5.17-3.04-8.13c-0.45,2.85,0.99,4.84,1.28,7.02
		c0.22,1.53-0.91,1.09-1.6,1c-5.51-0.74-7.35-2.79-7.6-8.41c-0.02-0.41,0.11-0.84-0.17-1.21c-0.48-5.95,1.54-11.45,3.22-16.98
		c2.6-8.57,5.37-17.1,7.69-25.76c0.39-1.47,0.67-2.97,0.82-4.51c-2.76,3.68-3.09,8.29-4.88,12.33c-3.41,7.6-6.38,15.38-9.33,23.17
		c-0.8,2.12-2,4.1-2.2,6.44c-0.09,0.99-0.86,1.39-1.79,1.43c-1.56,0.07-3.12,0.05-4.67,0.01c-1.44-0.04-1.88-1.04-2.21-2.21
		c-2-7.17-4.61-14.13-7.36-21.04c-1.86-4.69-3.98-9.25-6.6-13.56c-1.12-1.85-1.72-3.96-2.92-5.76c-0.36-0.51-0.72-1.03-1.14-1.62
		c-0.46,0.38-0.19,0.88-0.3,1.26c-0.5,0.08-0.58-0.29-0.76-0.86c0.75,4.11,0.57,8.06,1.07,11.96c0.84,6.54,3,12.69,5.46,18.75
		c1.06,2.61,2.16,5.2,3.06,7.87c0.25,0.73,0.58,1.46,0.37,2.27c-0.26,0.49-0.29,0.98-0.21,1.55c0.42,2.99,0.06,5.96-0.29,8.93
		c-0.1,0.87-0.5,1.6-1.17,2.16c-1.34,1.11-2.83,2-4.38,2.78c-0.44,0.22-1.13,0.72-1.35-0.32c0.13-0.65,0.28-1.28,0.69-1.82
		c0.94-0.42,1.13-1.32,1.36-2.17c0.42-1.53,0.59-3.1,0.73-4.75c-0.49,0.88,0.41,2.15-0.96,2.63c-0.02-0.47-0.04-0.95-0.08-1.87
		c-1.55,3.18-1.97,6.35-3.52,9.07c-0.34,0.56-0.86,0.85-1.49,0.77c-1.75-0.23-3.55-0.3-5.02-1.49c0.79-2.01,1.95-3.85,2.77-5.86
		c-0.6,0.39-0.27,1.56-1.33,1.52c-0.02-0.23,0.05-0.58-0.07-0.68c-0.45-0.36-0.63,0.16-0.76,0.4c-0.69,1.17-1.33,2.37-1.99,3.57
		c-2.3-0.26-3.56-1.86-4.7-3.63c0.34-1.06,0.68-2.12,1.15-3.56c-1.21,0.68-1.4,1.7-1.9,2.47c-1.46,0.03-3.32-1.32-3.35-2.65
		c-0.04-1.99-0.23-4,0.12-5.99c0.98-6.19-0.56-12.23-1.07-18.33c-1.65-10.02-2.98-20.1-4.84-30.09c-0.74-3.97-0.26-7.91,0.1-11.82
		c0.7-7.59,1.94-15.1,3.85-22.49c0.51-1.97,1.13-3.92,1.96-5.79C63.31,122.93,63.46,122,64.52,122.4z"/>
	<path class="st3" d="M129.69,93.95c-3.77,2.92-7.87,5.28-12.24,7.19c-0.22-2,0.41-3.9,0.75-5.83c0.75-4.33,0.15-8.47-1.47-12.5
		c-1.17-2.93-2.97-5.37-5.92-6.72c-3.57-1.64-6.99-3.56-11.02-4.16c-4.76-0.71-8.63,0.96-12.14,3.77c-2.97,2.38-5.23,5.44-7.19,8.7
		c-1.78,2.98-2.21,6.32-2.46,9.67c-0.13,1.73,0.76,3.08,2.19,4.1c2.41,1.71,4.97,3.13,7.62,4.42c0.7,0.34,1.87,0.44,1.57,1.75
		c-3.36-1.06-6.73-2.1-10.08-3.21c-0.65-0.22-1.22-0.69-1.82-1.05c-0.11-0.14-0.28-0.29-0.28-0.45c0.02-2.3-1.51-3.42-3.33-4.2
		c-4.26-1.82-7.06-5.28-9.71-8.81c-4-5.32-5.87-11.37-5.94-18.08c-0.06-5.79,1.11-11.42,1.71-17.12c0.18-1.75-0.12-3.06-1.67-3.98
		c-1.18-0.7-1.69-1.66-1.15-3.02c0.45-0.55,1-0.27,1.49-0.14c1,0.26,1.46-0.19,1.66-1.1c0.9-4.26,3.72-7.45,6.09-10.9
		c0.1-0.15,0.24-0.27,0.36-0.4c2.43-2.83,2.35-3.31-1.3-4.32c-5.8-1.6-11.13,0.26-12.59,6.84c-0.11,0.51-0.11,1.1-0.69,1.39
		c-1.02,0.01-1.26-0.82-1.55-1.51c-1.68-4.1-1.14-7.97,1.35-11.6c0.15-0.28,0.4-0.39,0.71-0.37c2.41-0.09,4.81-0.24,7.22,0.26
		c1.88,0.39,3.8,0.7,5.44,1.67c1.75,1.04,3.2,0.98,4.62-0.45c1.55,1.72,3.01,1.31,4.79,0.15c3.97-2.59,8.25-4.59,12.8-5.96
		c0.5-0.15,0.98-0.5,1.6-0.21c-0.77,0.84-2.24,0.6-2.87,2.19c2.13-0.95,4-1.77,5.86-2.63c0.73-0.33,0.28-0.7,0.01-1.12
		c-0.83-1.24-2.31-1.32-3.8-2.02c4.08-0.89,7.75-0.49,11.41,0.47c0.63,0.16,1.27,0.3,1.91,0.45c1.06,1.24,2.41,1.96,3.98,2.28
		c6.04,1.25,11.72,3.46,17.15,6.35c2.01,1.07,4.21,1.76,6.03,3.19c0.84,0.66,1.6,0.18,2.32-0.25c2.59-1.53,5.32-2.83,8.21-3.62
		c3.25-0.88,6.62-1.34,9.83,0.25c1.56,0.77,3.15,1.46,4.7,2.26c0.58,0.3,1.14,0.69,1.83,0.69c1.23,1.99,1.64,4.2,1.74,6.49
		c-0.96,2.76-3.01,4.81-4.7,7.08c-0.36,0.48-0.9,0.94-1.35,0c-0.23-0.89-0.17-1.78,0-2.66c0.51-2.6,0.06-5.13-0.67-7.59
		c-1.02-3.47-3.25-4.74-6.81-4.16c-2.72,0.44-5.03,1.78-7.24,3.34c-0.61,0.43-0.66,0.93-0.36,1.54c0.13,0.3-0.48,0.54-0.18,0.74
		c1.91,1.24,3.06,3.35,5.09,4.45c2.21,2.4,4.01,5.12,5.97,7.72c0.18,0.24,0.15,0.57,0.11,0.87c-0.06,0.35-0.29,0.71-0.2,1.03
		c0.54,1.97,0.62,3.98,0.65,6c0.33,1.1,0.67,2.2,1,3.3c-0.66,2.9-0.91,5.87-1.77,8.75c-1.12,3.74-2.65,7.31-4.25,10.85
		c-1.06,2.34-2.35,4.57-3.3,6.97c-1.31,3.31-3.75,5.8-6.07,8.38c-0.6,0.67-1.27,1.27-1.79,2C130.97,92.27,130.07,92.93,129.69,93.95
		z"/>
	<path class="st4" d="M131.86,116.57c-0.62,0.05-1.25,0.09-1.87,0.14c-0.03,0.12-0.06,0.24-0.08,0.36c1.03,0.34,2.05,0.69,3.08,1.03
		c0.85,0.28,1.53,0.7,1.36,1.76c-1.25,0.33-0.97,1.35-0.93,2.19c0.13,2.87-0.82,5.35-2.64,7.52c-0.74-0.82-1.51-1.42-2.48-0.3
		c-0.67-0.73,0.15-1.61-0.32-2.5c-0.57,0.59-0.73,1.33-0.95,2.01c-0.57,1.8-1.65,3.28-2.91,4.63c-0.42,0.45-0.82,1.07-1.62,0.84
		c-0.32-0.42,1.19-1.28-0.34-1.41c-0.55-0.66,0.02-1.23,0.05-1.6c-1.86,2.16-3.49,4.76-5.23,7.3c-1.02,1.48-1.79,1.51-3.47,0.62
		c-0.99-0.53-1.91-0.79-2.52,0.52c-0.91,0.99-1.75,2.06-2.92,2.79c-0.42-0.83,0.28-1.32,0.61-1.91c0.34-0.62,0.76-1.19,0.9-2.19
		c-1.1,0.92-1.77,1.89-2.48,2.78c-2.05,2.59-4.51,4.75-6.99,6.9c-0.75,0.65-1.05,1.26-0.29,2.07c-0.27,0.53-0.53,1.06-0.97,1.95
		c-3.2-4.41-8.47-5.34-12.5-8.27c-1.85-1.35-3.69-2.62-4.76-4.75c-0.41-0.82-1.07-1.63-2.04-0.49c-0.4,0.47-0.73,0.24-1.07-0.02
		c-4.44-3.36-8.01-11.19-6.82-15.76c0.31-1.19,1.18-2.04,1.46-3.19c-0.39-1.03,0.49-1.23,1.07-1.54c1.53-0.82,3.17-1.41,4.77-2.09
		c0.57-0.24,1.3-0.29,1.65-1.17c-1.98-0.41-3.67,0.44-5.42,0.94c-0.88,0.25-1.96,1.34-2.61,0.5c-0.72-0.94,0.6-1.75,1.12-2.57
		c0.88-1.36,2.01-2.54,2.9-3.89c1.07-1.62,2.46-2.13,4.32-1.7c3.35,0.78,6.75,1.08,10.17,0.87c4.1-0.26,8.2-0.61,12.31-0.92
		c4.56-0.25,8.8-1.74,12.8-3.77c4.8-2.44,9.61-4.9,14.17-7.8c1.82,3.22,4.1,6.15,5.63,9.54c0.83,1.84,0.73,2.19-0.99,3.04
		c0.56,0.84,2.24,0.35,2.23,1.87c-0.34,0.12-0.68,0.25-1.02,0.37c-0.76,0.25-0.84,0.74-0.49,1.39c0.44,0.81,0.51,1.71,0.57,2.6
		c0.04,0.52,0.3,1.11-0.27,1.48c-0.59,0.39-1.15,0.08-1.68-0.2c-0.84-0.45-1.63-0.99-2.64-1.08
		C131.48,115.86,132.09,116.17,131.86,116.57z"/>
	<path class="st5" d="M64.52,122.4c-1.12,0.45-1.1,1.6-1.44,2.48c-2.01,5.13-2.94,10.55-3.85,15.94c-1.05,6.21-1.83,12.48-1.9,18.8
		c-0.04,3.67,1.09,7.16,1.57,10.76c0.64,4.83,1.55,9.61,2.06,14.46c0.31,2.95,0.9,5.87,1.04,8.85c-1.07-3.48-1.33-7.12-2.14-10.65
		c-1.78-7.73-3.19-15.53-4.52-23.35c-0.64-3.76-0.9-7.59-0.91-11.41c-0.01-2.03,0-4.05,0-6.12c-0.54,0.17-0.65,0.56-0.65,0.89
		c0.02,3.23-0.2,6.46,0.14,9.7c0.3,2.9,0.55,5.82,0.83,8.72c0.4,4.17,1.35,8.23,2.04,12.35c1.32,7.82,2.93,15.59,4.03,23.43
		c0.61,4.36,1.16,8.78,0.83,13.23c-0.22,2.92-0.46,5.83-0.62,8.75c-0.06,1.07,0.17,2.13,0.57,3.14c0.2,0.49,0.36,1.03-0.33,1.12
		c-3.01,0.38-5.88,1.61-9.3,1.53c1.69-1.93,2.06-4.32,3.77-6c0.74-0.72,1.17-1.88,1.17-2.96c0-4.82,0.46-9.62-0.43-14.45
		c-1.99-10.79-7.17-19.77-15.28-26.94c-2.27-2-2.44-4.02-2.19-6.44c0.72-6.95,1.94-13.81,3.7-20.57c1.18-4.52,2.35-9.04,4.16-13.33
		c1.99-4.69,4.83-8.9,7.9-12.97c5.13-6.8,10.57-13.31,16.81-19.12c0.25-0.23,0.53-0.44,0.98-0.49c-1.63,2.07-3.31,4.1-4.89,6.2
		c-2.23,2.96-3.78,6.25-4.15,9.98C63.36,119.48,63.8,120.99,64.52,122.4z"/>
	<path class="st3" d="M171.08,173.13c1.35-1.27,2.92-2.1,4.73-2.46c0.47,0.31,0.95,0.05,1.38-0.05c5.94-1.29,11.03,0.94,15.84,3.99
		c2.12,1.34,3.33,3.53,3.9,6.01c0.03,0.83-0.53,0.96-1.18,1.01c-0.88,0.07-1.5,0.54-1.66,1.39c-0.26,1.37-0.85,2.62-1.35,3.9
		c-0.29,0.76-0.33,1.49,0.03,2.26c0.42,0.89,0.99,1.51,2.05,1.42c1.01-0.09,1.67-0.68,1.93-1.62c0.31-1.1,0.49-2.22,0.51-3.37
		c0.01-0.63-0.1-1.36,0.63-1.74c1.88,1.23,1.68,3.39,2.33,5.17c0.13,0.34-0.15,0.85,0.41,1.01c0.64,2.1,0.35,4.25,0.15,6.36
		c-0.42,4.58-1.55,9.03-2.9,13.41c-0.23,0.74,0.08,1.58-0.53,2.22c-0.35,0.97-0.91,1.79-1.66,2.5c-2.48,2.33-4.62,5.05-7.64,6.77
		c-0.57,0.33-1.14,0.66-1.73,0.94c-2.61,1.25-5.1,1.14-7.74-0.15c-4.5-2.18-8.92-4.42-12.28-8.25c-4.92-5.59-6.93-12.15-5.78-19.46
		C161.82,186.26,165.61,179.25,171.08,173.13z"/>
	<path class="st3" d="M12.31,190.78c1.25-8.86,4.37-14.86,13.29-18.01c2.45-0.35,4.61,0.56,6.7,1.62
		c6.99,3.55,13.19,8.02,17.16,15.04c0.8,1.41,1.37,2.92,2.11,4.36c0.19,0.37,0.23,0.82,0.7,0.98c1.72,3.82,2.41,7.9,2.87,12.01
		c0.22,1.98,0.82,3.99,0.03,5.98c-1,0.58-1.75,1.4-2.41,2.36c-2.21,3.22-5.13,5.67-8.46,7.66c-2.98,1.78-6.18,1.66-9.4,0.94
		c-5.14-1.15-9.15-4.14-12.41-8.11c-3.29-4.01-5.7-8.57-7.64-13.38c-0.23-0.56-0.49-1.11-0.11-1.71c0.85-0.33,1.3,0.41,1.88,0.74
		c1.12,0.63,2.26,0.93,3.33,0.02c1.09-0.93,1.17-2.24,0.69-3.46c-0.63-1.62-1.8-2.81-3.47-3.41c-1.62-0.57-2.76,0.05-3.29,1.71
		c-0.14,0.45,0.01,1.15-0.79,1.16C12,195.22,12.27,192.99,12.31,190.78z"/>
	<path class="st6" d="M89.38,104.35c-1.04-1.65-3-1.79-4.5-2.67c-1.7-1.01-3.36-2.06-5.01-3.13c-1.64-1.05-2.49-2.59-2.37-4.52
		c0.59-9.43,5.41-16.27,13.35-20.92c5.2-3.05,10.5-2.14,15.67,0.56c1.67,0.87,3.49,1.47,5.18,2.38c2.98,1.59,4.5,4.22,5.69,7.13
		c2.43,5.97,1.76,11.98,0.06,17.97c-3.28,1.74-6.76,3-10.28,4.18c-4.35,1.46-8.71,0.96-13.06-0.02
		C92.54,104.95,91.01,104.39,89.38,104.35z"/>
	<path class="st5" d="M171.08,173.13c-1.04,2.24-2.8,4-4.08,6.08c-3.15,5.1-5.48,10.51-6.27,16.45c-0.57,4.3,0.56,8.44,2.26,12.37
		c2.16,4.99,6.06,8.37,10.66,11.01c1.71,0.98,3.56,1.7,5.26,2.68c3.04,1.76,5.84,0.99,8.6-0.63c3.94-2.32,6.74-5.86,9.87-9.07
		c-0.67,3.87-3.02,6.71-5.86,9.16c-3.55,3.06-7.89,4.39-12.41,5.2c-1.02,0.18-2.02-0.03-3.01-0.31c-4.29-1.23-8.46-2.73-11.59-6.09
		c-4.49-4.81-6.9-10.62-8.23-17.02c-1.68-8.07,0.65-15.06,5.57-21.21C164.46,178.5,167.25,175.2,171.08,173.13z"/>
	<path class="st7" d="M81.09,171.35c0.57,0.27,0.88,0.76,1.19,1.3c5.8,10.1,10.34,20.75,13.96,31.8c0.8,2.43,1.53,4.89,2.21,7.36
		c0.34,1.24,0.94,1.87,2.27,1.67c0.41-0.06,0.84,0,1.26-0.01c1.2-0.02,2.49,0.22,3.57-0.14c1.44-0.48,0.57-2.11,1.04-3.18
		c3.35-7.6,5.86-15.54,9.33-23.09c0.66-1.44,0.9-3.12,2.27-4.18c-0.67,3.71-2.05,7.22-3.11,10.83c-1.72,5.83-3.78,11.57-4.96,17.55
		c-0.31,1.57-0.46,3.18-0.54,4.79c-0.05,0.94-0.25,1.33-1.3,1.44c-4.74,0.49-9.5,0.87-14.07,2.35c-1,0.32-1.32-0.19-1.25-1.1
		c0.6-7.84-2-15.08-4.22-22.38C86.2,188.02,83.64,179.69,81.09,171.35z"/>
	<path class="st5" d="M146.24,173.51c-0.44,4.5-0.88,9-1.31,13.5c-0.21,2.2-0.36,4.41-0.42,6.6c-0.17,6.11-0.02,12.23-0.09,18.35
		c-0.01,1.32,0.29,1.97,1.71,2.03c3.21,0.14,6.36,0.97,9.59,0.94c1.42-0.01,1.36-0.53,0.74-1.47c-2.43-3.65-3.78-7.71-4.39-12
		c-0.37-2.64,0.35-5.24,1.04-7.76c1.1-3.97,2.32-7.92,4.84-11.31c0.46-0.62,0.95-1.05,1.64-1.31c-1.35,2.38-2.82,4.69-3.96,7.2
		c-2.86,6.3-2.27,12.63-0.45,19.02c1.54,5.39,4.17,10.14,8.29,14.23c-1.74,1.02-3.62,0.77-5.27,0.83c-4.9,0.17-9.79,0.67-14.7,0.5
		c-1.47-0.05-1.94-0.49-1.99-1.98c-0.1-3.51-0.59-7.02-0.62-10.53c-0.06-7,1.08-13.89,2.23-20.77c0.86-5.17,1.86-10.31,2.8-15.47
		C145.96,173.9,146.13,173.71,146.24,173.51z"/>
	<path class="st7" d="M14.84,200.52c0.95,3.56,2.78,6.71,4.59,9.87c2.48,4.31,5.61,8,9.93,10.6c3.7,2.23,7.68,3.27,11.95,2.5
		c2.97-0.54,5.21-2.59,7.43-4.49c1.73-1.49,3.22-3.22,4.4-5.17c0.51-0.84,1.11-1.19,2.05-1.06c-1.61,4.27-2.2,9-5.5,12.5
		c-2.84,3.01-6.34,4.01-10.42,3.41c-7.54-1.11-14.01-4.31-19.23-9.86c-4.11-4.36-6.9-9.43-7.68-15.48
		c-0.5-3.85-0.98-7.69-0.37-11.58c0.06-0.36,0.04-0.72,0.34-0.98c0.2,2.2,0.53,4.37,1.08,6.51
		C14.05,198.29,14.85,199.22,14.84,200.52z"/>
	<path class="st7" d="M51.93,22.68c-0.07,1.29-0.78,2.36-1.22,3.52c-1.18,3.13-0.59,6.09,0.83,8.97c0.15,0.3,0.4,0.42,0.72,0.45
		c0.2,0.15,0.39,0.34,0.37,0.58c-0.24,3,1.84,4.69,3.64,6.55c0.43,0.44,1.15,0.7,1.07,1.51c-0.13,1.33,0.05,2.37,1.55,3.02
		c1.29,0.55,1.87,1.82,1.68,3.29c-0.54,4.06-1.21,8.11-1.62,12.18c-0.92,8.97,0.41,17.39,6.37,24.6c0.65,0.78,1.3,1.55,1.96,2.32
		c2.15,2.53,4.68,4.6,7.76,5.87c2.14,0.89,2.82,2.39,2.46,4.55c-3.66-2.42-7.54-4.49-10.44-8c-2.13-2.57-4.67-4.77-6.47-7.65
		c-4.32-6.93-6-14.32-4.43-22.42c0.74-3.79,1.26-7.63,1.88-11.44c0.21-1.32-0.32-2.35-1.34-3.13c-3.98-3.02-6.98-6.9-9.38-11.19
		c-1.68-2.99-2.05-6.43-0.96-9.71C47.15,24.06,49.4,23.01,51.93,22.68z"/>
	<path class="st8" d="M103.41,108.01c-2.33,0.35-4.66,0.84-7.01,1.03c-2.56,0.21-5.11,0.47-7.69,0.45c-2.65-0.03-5.25-0.35-7.8-0.91
		c-1.65-0.37-2.79-0.24-3.8,1.34c-1.18,1.86-2.69,3.5-4.03,5.25c-0.2,0.26-0.48,0.54-0.27,1.03c2.3-0.97,4.57-2.05,7.13-2.06
		c0.62,0,1.51-0.26,1.69,0.59c0.18,0.85-0.77,0.96-1.32,1.2c-2.13,0.93-4.34,1.69-6.4,2.8c-0.4,0.21-0.73,0.38-0.79,0.86
		c-1.86,0.53-3.76,1.12-5.14,2.48c-1.17,1.15-1.66,0.82-2.01-0.46c-0.74-2.73-0.62-5.45,0.49-8.07c1.52-3.57,3.9-6.58,6.48-9.43
		c2.37-2.63,2.39-2.51,5.73-1.13c5.04,2.08,10.27,3.44,15.65,4.42C97.37,107.95,100.37,107.9,103.41,108.01z"/>
	<path class="st9" d="M155.64,26.26c-0.07,0.7-0.45,0.52-0.86,0.32c-1.81-0.91-3.61-1.85-5.45-2.7c-3.83-1.77-7.66-1.23-11.45,0.13
		c-2.59,0.93-5.09,2.08-7.41,3.57c-0.79,0.51-1.28,0.26-1.92-0.13c-7.04-4.22-14.41-7.69-22.48-9.45c-1.54-0.34-2.96-0.85-4.21-1.83
		c-0.44-0.34-0.45-0.63-0.25-1.05c0.64-0.57,0.72-1.36,0.78-2.13c0.09-1.17,0.64-1.13,1.38-0.53c0.41,0.34,0.92,0.68,1.13,1.14
		c1.02,2.23,3,2.7,5.14,3.31c5.63,1.61,11.3,3.21,16.23,6.57c0.2,0.13,0.48,0.22,0.58,0.41c1.45,2.55,3.03,1.02,4.65,0.21
		c4.42-2.2,8.98-4.01,14.03-3.87C149.96,20.35,153.44,22.28,155.64,26.26z"/>
	<path class="st10" d="M88.62,210.97c-1.21-4.58-3.32-8.82-4.98-13.24c-2.25-6-4.14-12.07-4.4-18.55c-0.14-3.44-0.5-6.87-0.77-10.45
		c1.13,0.56,0.43,1.74,1.17,2.26c1.34,5.21,2.49,10.48,4.07,15.61c2.04,6.62,4.46,13.13,6.27,19.82c1.11,4.09,1.45,8.23,1.18,12.44
		c-1.49,0.38-0.93-1.17-1.54-1.62C88.61,215.26,88.67,213.11,88.62,210.97z"/>
	<path class="st11" d="M137.58,226.4c-0.88-2.12-0.01-4.25,0.15-6.34c0.18-2.39,0.29-4.78,0.24-7.16
		c-0.11-4.68,0.52-9.29,0.96-13.93c0.29-3.14,0.4-6.3,0.76-9.46c0.91-7.92,2.61-15.66,4.86-23.29c1.42-4.83,1.88-9.84,2.81-14.76
		c0.09-0.47,0.19-0.93,0.32-1.39c0.03-0.12,0.01-0.64,0.32-0.14c0.09,0.14,0.06,0.35,0.09,0.53c0.48,2.65,0.5,5.28-0.48,7.84
		c-1.09,6.89-2.32,13.76-3.77,20.58c-1.92,9.01-3.7,18.03-4.6,27.21c-0.24,2.49,0.15,4.89,0.37,7.32c0.3,3.36,0.3,6.69-0.5,9.99
		C138.81,224.53,138.51,225.62,137.58,226.4z"/>
	<path class="st10" d="M131.11,91.42c0.92-2.01,2.79-3.22,4.12-4.9c1.24-1.55,2.48-3.06,3.31-4.88c3.14-6.91,6.9-13.56,8.56-21.07
		c0.39-1.75,0.64-3.52,0.94-5.28c0.07-0.42,0.05-0.87,0.65-0.88c0.84,3.43,0.17,6.81-0.66,10.08c-1.95,7.77-4.24,15.44-9.17,22
		c-0.68,0.91-1.45,1.75-2.4,2.39c-1.67,0.31-2.52,1.8-3.83,2.63C132.15,91.83,131.54,92.68,131.11,91.42z"/>
	<path class="st10" d="M52.27,194.77c-0.01,0.06-0.01,0.13-0.04,0.17c-0.06,0.08-0.14,0.15-0.21,0.23c-0.39-0.74-0.8-1.46-1.15-2.21
		c-2.49-5.22-5.85-9.81-10.57-13.17c-3.35-2.38-6.83-4.63-10.72-6.14c-1.31-0.51-2.73-0.21-3.97-0.88c5.35-2.51,9.77-0.15,13.67,3.1
		C45.33,180.91,49.48,187.4,52.27,194.77z"/>
	<path class="st12" d="M151.64,39.95c1.09-0.01,1.2-1.08,1.68-1.67c1.44-1.77,2.71-3.68,4.05-5.53c0.34,7.38-2.89,12.82-9.07,16.63
		c-0.73,0.45-0.58,1.1-0.62,1.73c-0.59-1.97-0.47-4.09-1.3-6.01c-0.21-0.49,0.48-0.77,0.62-1.22c2.29,0.28,2.7-0.01,3.58-2.32
		C150.82,40.97,150.65,40.06,151.64,39.95z"/>
	<path class="st10" d="M137.24,110.88c-0.56-1.05-1.78-0.81-2.61-1.32c-0.3-0.18-0.76-0.26-0.73-0.68c0.03-0.43,0.45-0.53,0.81-0.51
		c1.89,0.1,1.54-0.88,1-2.01c-1.26-2.63-2.77-5.11-4.45-7.49c-0.51-0.73-1.04-1.46-0.89-2.44c1.71-0.84,2.77,0.62,3.69,1.41
		c3.11,2.67,5.23,6.05,6.08,10.14c0.02,0.05,0.06,0.11,0.07,0.16C140.53,111.1,140.25,111.36,137.24,110.88L137.24,110.88z"/>
	<path class="st13" d="M196.66,180.71c-2.33-6.62-7.92-8.54-14.03-9.73c-1.66-0.32-3.28-0.41-4.95-0.05
		c-0.58,0.12-1.31,0.29-1.87-0.26c2.81-0.84,5.64-1.54,8.61-1.57c4.17-0.04,7.47,1.64,9.89,4.93c3.5,4.77,5.66,10.11,6.34,16.02
		c-0.02,0.06-0.02,0.12-0.06,0.17c-0.06,0.08-0.14,0.15-0.21,0.23c-0.25-0.77-0.47-1.56-0.75-2.32c-0.51-1.39-1.05-2.76-1.58-4.14
		C197.04,183.13,196.99,181.86,196.66,180.71z"/>
	<path class="st7" d="M88.62,210.97c1.01,1.91,0.29,4.24,1.49,6.11c0.73,2.6,0.41,5.25,0.3,7.88c-2.39,1.65-4.64,3.65-7.67,3.98
		c-2.57,0.28-2.62,0.12-1.66-2.26c0.09-0.21,0.24-0.4,0.36-0.6c0.21,0.29,0.48,0.34,0.77,0.15c1.57-0.98,3.15-1.93,4.69-2.96
		c0.62-0.41,0.97-1.09,1-1.83c0.11-3.14,0.88-6.28,0.09-9.43C87.86,211.49,87.96,211.03,88.62,210.97z"/>
	<path class="st12" d="M111.34,217.79c0.37,1.55,0.65,3.12,1.13,4.63c0.62,1.93,1.54,3.63,3.93,3.87c1,0.1,1.97,0.47,2.95,0.73
		c0.63,0.17,1.21,0.27,1.37-0.61c0.53,1.25,1.06,2.49,1.63,3.86c-2.71,0.44-4.8-0.66-7.04-1.71c-3.29-1.54-4.11-4.11-3.98-7.35
		C111.37,220.07,111.34,218.93,111.34,217.79z"/>
	<path class="st14" d="M69.9,23.78c-0.82,1.93-1.89,2.34-3.64,1.41c-3.23-1.71-6.72-2.36-10.33-2.55c-1.1-0.06-2.26,0.39-3.3-0.33
		C58.61,20.2,64.33,21.19,69.9,23.78z"/>
	<path class="st15" d="M110.97,139.69c-0.18-0.43-0.53-0.91,0.08-1.25c0.67-0.37,1.36-0.19,2.08-0.03c0.82,0.18,1.13,1.46,2.11,1.04
		c1.14-0.49,1.82-1.52,2.37-2.59c1.36-2.67,3.55-4.7,5.46-6.99c-0.31,1-0.63,1.99-0.94,2.99c-0.99,1.69-1.96,3.39-2.96,5.08
		c-0.83,1.41-1.95,2.49-3.36,3.37c-1.05,0.66-1.78,0.6-2.69-0.18C112.49,140.57,112.02,139.67,110.97,139.69z"/>
	<path class="st16" d="M99.82,150.12c-1.28-0.35-1.87-0.77-0.49-1.91c3.43-2.87,6.62-5.98,9.31-9.58c0.32-0.43,0.66-1.03,1.48-0.92
		c0.15,1.97-1.44,3.17-2.06,4.77c-1.34,1.42-2.69,2.83-4,4.27C102.82,148.1,101.56,149.41,99.82,150.12z"/>
	<path class="st17" d="M122.48,134.27c1.98-1.51,3.4-3.42,4.19-5.8c0.33-0.98,0.69-2.78,1.47-2.51c1.09,0.37,0.39,1.92,0.16,2.98
		c-0.02,0.11-0.01,0.24-0.01,0.35c-0.19,2.11-1.47,3.58-2.94,4.91c-1.06,0.95-2.16,1.85-3.28,2.73c-0.38,0.3-0.9,0.5-1.27,0.02
		c-0.3-0.38-0.06-0.78,0.25-1.11C121.53,135.33,122,134.8,122.48,134.27z"/>
	<path class="st18" d="M152.08,116.96c-0.88,0.34-1.06-0.5-1.41-0.92c-2.41-2.86-4.66-5.86-7.46-8.37
		c-0.48-0.43-1.05-0.77-1.58-1.15c-0.35-0.98-1.02-1.87-1.1-2.99c0.94-0.12,1.28,0.54,1.7,0.97c3.54,3.64,6.88,7.45,9.37,11.92
		C151.73,116.62,151.92,116.78,152.08,116.96z"/>
	<path class="st19" d="M131.86,116.57c-0.43-0.46-0.87-0.92-1.43-1.52c1.6-0.47,2.73,0.24,3.87,0.93c0.45,0.27,0.91,0.77,1.44,0.53
		c0.74-0.33,0-0.92,0.07-1.41c0.15-0.98-0.19-1.86-0.65-2.72c-0.21-0.39-0.63-0.85-0.21-1.3c0.44-0.47,0.86,0.04,1.29,0.16
		c0.04,1.44,1.16,2.53,1.19,4.02c0.02,0.95,0.13,1.87-0.2,2.78c-0.52,0.44-1.16,0.4-1.79,0.42
		C134.23,117.84,133.04,117.21,131.86,116.57z"/>
	<path class="st20" d="M130.77,129.59c0.08-0.28,0.11-0.6,0.26-0.84c1.56-2.51,2.23-5.21,1.9-8.16c-0.16-1.46,0.39-1.55,1.41-0.72
		c1.05,3.69,0.11,6.94-2.21,9.86C131.71,130.27,131.1,130.79,130.77,129.59z"/>
	<path class="st12" d="M122.48,227.52c2.36,0.42,4.72,0.8,6.87-0.74c0.15,0.31,0.28,0.64,0.47,0.93c0.82,1.28,0.53,1.96-1.02,2.08
		c-0.59,0.04-1.16,0.21-1.75,0.33C123.75,230.81,123.52,230.68,122.48,227.52z"/>
	<path class="st12" d="M67.06,221.75c1.55,1.24,2.81,2.83,4.7,3.63c0.03,2.07-1.4,2.23-2.86,2c-1.37-0.22-2.49-0.88-2.23-2.64
		C66.81,223.75,66.48,222.69,67.06,221.75z"/>
	<path class="st12" d="M130.45,226.42c2.11-0.58,4.15-1.26,5.01-3.58c0.79,1.37,0.39,2.93,0.46,4.36c0.04,0.85-1.44,1.4-2.5,1.61
		C131.52,229.17,130.93,227.85,130.45,226.42z"/>
	<path class="st21" d="M63.07,212.02c0.01,1.3,0.17,2.62-0.02,3.9c-0.38,2.65,1.37,3.71,3.25,4.75c-0.47,1.11-0.79,2.24-0.72,3.47
		c0.02,0.37,0.19,0.96-0.38,1.03c-0.49,0.06-0.51-0.54-0.75-0.86c-1.12-1.51-1.42-3.31-1.59-5.04
		C62.64,216.86,62.39,214.41,63.07,212.02z"/>
	<path class="st22" d="M147.59,158.32c0.16-2.61,0.32-5.23,0.48-7.84c0.69-0.91,0.08-1.82,0.04-2.74c-0.08-1.72-0.02-3.46,0.13-5.2
		c0.78,1.99,0.91,4.15,0.76,6.17c-0.16,2.21-0.13,4.41-0.23,6.61c-0.08,1.65-0.18,3.3-0.71,4.88
		C147.95,159.56,148.3,158.81,147.59,158.32z"/>
	<path class="st12" d="M73.17,226.07c2.06,0.94,4.13,1.89,6.48,1.1c-0.19,1.36-0.93,1.98-2.34,1.82c-0.89-0.1-1.77-0.07-2.66-0.28
		c-2.8-0.65-2.81-0.61-1.51-3.34C73.35,225.58,73.39,225.82,73.17,226.07z"/>
	<path class="st23" d="M83.26,219.95c0.67-0.85,0.24-1.84,0.36-2.76c0.05-0.43,0.08-0.95,0.56-1c0.63-0.06,0.52,0.55,0.49,0.92
		c-0.14,2.19-0.39,4.38-1.14,6.45c-0.18,0.5-0.49,1.38-1.4,0.68C82.51,222.81,82.88,221.38,83.26,219.95z"/>
	<path class="st24" d="M131.11,91.42c1.16,0.9,1.46-0.42,2.09-0.83c1.04-0.67,1.51-2.4,3.26-1.72c-1.98,2.06-4.53,3.36-6.78,5.07
		C129.31,92.63,130.56,92.23,131.11,91.42z"/>
	<path class="st25" d="M73.17,226.07c-0.01-0.24-0.02-0.48-0.03-0.71c0.48-1.08,0.96-2.17,1.45-3.25c0.88-0.72,0.36-2.44,2.29-2.81
		C75.71,221.79,75.19,224.3,73.17,226.07z"/>
	<path class="st26" d="M90.41,224.95c-0.67-2.6-0.14-5.26-0.3-7.88c0.72,0.39-0.14,1.69,1.05,1.8
		C91.17,220.93,91.22,222.99,90.41,224.95z"/>
	<path class="st4" d="M137.24,110.88c0.06,0,0.12-0.01,0.18-0.01c2.69-0.03,2.69-0.03,2.73-2.89c0.56,1.13,0.77,2.55,0.03,3.35
		C139.73,111.81,138.21,111.33,137.24,110.88z"/>
	<path class="st27" d="M151.64,39.95c-0.66,1.04-0.65,2.35-1.39,3.39c-1.14,1.61-1.6,1.73-3.25,0.54c-2.04-2.76-4.08-5.52-6.12-8.28
		c-1.63-1.62-3.13-3.37-4.67-5.06c-0.78-0.39-1.74-0.89-0.54-1.72c3-2.08,6.04-4.03,9.96-4.04c2.24,0,3.68,0.96,4.64,2.76
		c1.59,2.99,1.97,6.21,1.54,9.56C151.69,38.04,151.7,39,151.64,39.95z"/>
	<path class="st28" d="M83.58,45.39c-3.54-0.35-6.68,0.3-9.86,0.32c-3.19,0.02-5.56,2-7.88,3.9c-0.79,0.64-1.45,1.44-2.24,2.08
		c-0.78,0.63-1.21,0.51-1.29-0.64c-0.16-2.23,0.61-4.21,1.81-5.91c3-4.23,7.31-6.87,12.62-5.55C79.79,40.36,81.59,42.69,83.58,45.39
		z"/>
	<path class="st29" d="M57.33,44.26c-1.8-1.37-3.26-3.07-4.63-4.85c-0.89-1.15-0.21-2.54-0.45-3.79c0.61-8.42,8.32-10.71,14.45-8.03
		c2.94,1.28,2.97,1.51,0.83,4.03c-1.95,2.3-3.54,4.81-5.11,7.36c-0.79,1.28-1.42,2.59-1.67,4.11c-0.36,2.13-0.68,2.23-2.76,1.46
		C57.76,44.47,57.55,44.36,57.33,44.26z"/>
	<path class="st30" d="M107.81,44.46c4.69-6.98,11.33-7.51,18.09-3.98c2.53,1.32,3.31,4.58,2.34,7.48
		c-0.22,0.65-0.55,0.71-1.07,0.45c-1.07-0.54-2.24-0.81-3.26-1.49c-4.48-3.02-9.34-3.85-14.56-2.4
		C108.89,44.64,108.41,44.73,107.81,44.46z"/>
	<path class="st31" d="M84.35,57.86c3.88,2.18,4.51,6.77,2.13,9.81c-0.32,0.51-0.72,0.94-1.18,1.32c-0.52,0.42-0.96,0.43-1.23-0.28
		c-0.1-0.56,0.11-1.06,0.32-1.55c1.09-2.46,0.29-4.69-0.92-6.8c-0.82-1.43-2.43-1.92-4.25-1.46c-1.58,0.4-2.16,1.61-2.29,3.06
		c-0.19,2.13,0.22,4.15,1.43,5.97c0.32,0.48,0.81,0.91,0.7,1.58c-1.65,0.7-3.49,0.02-4.59-1.74c-1.17-1.88-1.59-3.93-1.23-6.13
		c0.52-3.9,4.84-6.33,8.66-4.84C82.72,57.12,83.53,57.49,84.35,57.86z"/>
	<path class="st28" d="M79.05,69.51c-2.26-2.1-2.8-4.79-2.61-7.71c0.1-1.56,0.87-2.87,2.34-3.33c1.56-0.48,3.2-0.43,4.51,0.9
		c1.84,1.87,2.57,5.42,1.56,7.87c-0.2,0.49-0.38,0.98-0.57,1.47c-0.25,0.65-0.59,1.19-1.41,1.15
		C81.59,69.96,80.26,70.34,79.05,69.51z"/>
	<path class="st32" d="M121.46,59.04c1.2,2.71,1.01,5.5,0.09,8.16c-0.61,1.76-2.17,2.77-4.11,2.99c-0.12-0.15-0.17-0.32-0.16-0.52
		c2.27-2.67,2.25-5.65,1.16-8.76c-0.61-1.75-1.69-2.53-3.31-2.47c-1.59,0.05-2.61,0.94-3.04,2.77c-0.49,2.04,0.09,4.03,0.39,6.02
		c0.1,0.64,0.45,1.24,0.43,1.92c-0.16,0.45-0.43,0.61-0.87,0.33c-2.61-2.68-3.47-5.77-2.25-9.39c0.24-0.7,0.56-1.29,1.09-1.78
		C113.34,54.47,119.12,54.87,121.46,59.04z"/>
	<path class="st33" d="M84.35,57.86c-0.5,0.44-0.97,0.21-1.47-0.02c-4.46-2.02-6.94-1.15-9.25,3.22c-0.11,0.21-0.26,0.39-0.39,0.58
		c-0.75,0.18-1.09,0.05-0.97-0.87c0.36-2.73,3.29-5.59,6.04-5.68c1.58-0.05,3.21-0.38,4.69,0.64
		C83.77,56.26,84.37,56.85,84.35,57.86z"/>
	<path class="st34" d="M87.8,29.07c1.23-1.74,2.59-3.05,4.46-3.83c0.18,0.6-0.15,0.94-0.47,1.27c-1.64,1.72-3.51,3.25-4.49,5.52
		c-0.1,0.22-0.48,0.48-0.69,0.45c-0.4-0.06-0.47-0.48-0.49-0.85c-0.32-4.15,1.29-7.71,3.47-11.07c0.21-0.32,0.6-0.51,0.93-0.28
		c0.45,0.32,0.19,0.74,0.01,1.12c-0.93,2-2.16,3.87-2.69,6.05C87.73,27.92,87.46,28.35,87.8,29.07z"/>
	<path class="st35" d="M121.46,59.04c-0.28-0.2-0.59-0.38-0.85-0.62c-3.17-2.97-5.54-3.1-9.12-0.47c-0.19,0.14-0.4,0.24-0.6,0.37
		c-0.48-0.17-1.2,0.38-1.43-0.25c-0.19-0.52,0.41-0.93,0.78-1.31c3.42-3.6,9.01-3.13,11.83,0.95
		C122.7,58.62,122.17,58.83,121.46,59.04z"/>
	<path class="st36" d="M136.22,30.54c2.1,1.18,3.5,3.02,4.67,5.06c-0.62,0.46-0.79-0.23-1.07-0.48c-1.37-1.2-2.49-2.65-4-3.71
		C134.78,30.7,135.6,30.62,136.22,30.54z"/>
	<path class="st34" d="M125.5,68.44c0.74-0.01,1.25,0.19,1.26,0.85c0,0.66-0.47,0.9-1.1,0.81c-0.12-0.02-0.24-0.04-0.34-0.11
		c-0.69-0.48-2.22,0.38-2.16-0.7C123.21,68.33,124.84,68.96,125.5,68.44z"/>
	<path class="st37" d="M112.05,69.49c0.24-0.09,0.59,0.03,0.7-0.33c1.54,0.29,3.08,0.57,4.65,0.64c0.02,0.13,0.03,0.27,0.05,0.4
		C115.55,70.72,113.69,70.92,112.05,69.49z"/>
	<path class="st38" d="M82.88,69.86c0.47-0.38,0.94-0.76,1.41-1.15c1.26,0.77,1.33-0.96,2.19-1.04
		C85.83,69.3,84.67,70.09,82.88,69.86z"/>
	<path class="st4" d="M181.96,216.39c-3.74,0.36-5.2-2.84-6.41-5.75c-2.48-5.95-1.45-11.71,2.24-16.9c1.81-2.55,4.46-3.79,7.67-3.25
		c3.61,0.6,5.46,3.27,6.36,6.37c1.41,4.89,1.2,9.9-1.66,14.25C188.4,213.79,186.27,216.53,181.96,216.39z"/>
	<path class="st39" d="M189.09,180.75c0.23,1.54-0.25,2.93-1.07,4.23c-0.67,1.07-1.71,1.36-2.81,1.05c-1.07-0.3-1.5-1.16-1.58-2.33
		c-0.14-2.08,0.51-3.89,1.55-5.61c0.51-0.84,1.17-1.62,2.31-1.32c1.15,0.3,1.5,1.27,1.59,2.34
		C189.13,179.65,189.09,180.19,189.09,180.75z"/>
	<path class="st40" d="M170.01,191.51c-1.87-0.16-2.77-1.98-3.63-3.95c-0.64-1.47-0.17-2.52,0.85-3.52c1.54-1.51,3.31-1.5,4.62,0.22
		c0.91,1.18,1.55,2.57,1.74,4.07C173.81,190.16,172.5,191.54,170.01,191.51z"/>
	<path class="st4" d="M181.17,182.68c0,0.58,0.05,1.06-0.01,1.53c-0.21,1.76-2.19,2.68-3.59,1.68c-1.72-1.22-3.44-6.01-2.82-7.97
		c0.24-0.77,0.79-1.4,1.64-1.49c1.19-0.12,2.45-0.24,3.27,0.93C180.78,178.98,181.32,180.79,181.17,182.68z"/>
	<path class="st41" d="M196.66,180.71c0.77,0.96,1.1,2.11,1.4,3.28c-0.66,1.44-0.28,3.02-0.64,4.52c-0.41,1.72-1.43,2.82-2.96,2.63
		c-1.46-0.18-2.78-1.88-2.44-3.42c0.43-1.9,1.43-3.63,1.83-5.57c0.17-0.82,1.07-1.06,1.89-1.05
		C196.13,181.11,196.61,181.42,196.66,180.71z"/>
	<path class="st42" d="M34.65,215.99c-1.43-0.19-2.84-0.44-3.99-1.42c-3.76-3.07-5.12-7.12-4.55-11.81
		c0.31-2.55,2.05-4.43,4.13-5.63c2.74-1.58,5.83-2.16,8.99-1.23c1.87,0.55,3.38,1.78,4.03,3.6c1.25,3.52,2.1,7.14,1.17,10.91
		C43.27,215.09,38.59,217.58,34.65,215.99z"/>
	<path class="st6" d="M34.65,215.99c2.35,0.08,4.72,0.15,6.67-1.47c2.53-2.1,3.2-4.95,2.98-8.07c-0.09-1.3-0.42-2.58-0.64-3.87
		c-0.87-5.1-3.41-6.82-8.61-6.44c-6.04,0.44-9.37,5.27-8.67,10.09c0.41,2.8,1.87,5.13,3.52,7.35c0.25,0.33,0.51,0.66,0.76,0.98
		c-1.62-0.26-2.43-1.5-3.11-2.75c-2.82-5.2-2.78-10.43,0.41-15.43c1.11-1.74,2.81-2.94,5.12-2.71c3.84,0.38,7.62,0.95,10.54,3.79
		c1.65,1.6,2.5,3.43,1.95,5.96c-0.55,2.54,0.09,5.23-0.47,7.84C43.98,216.44,39.98,219.32,34.65,215.99z"/>
	<path class="st39" d="M31.05,177.81c1.8,0.92,2.52,2.59,2.04,4.8c-0.15,0.7-0.4,1.38-0.61,2.07c-0.32,0.63-0.4,1.37-0.87,1.94
		c-0.63,0.75-1.36,1.42-2.42,1.21c-1.11-0.22-2.14-0.9-2.32-1.99c-0.4-2.56-0.37-5.12,1.52-7.25
		C29.12,177.77,29.94,177.27,31.05,177.81z"/>
	<path class="st43" d="M18.07,187.63c0.19-0.83,0.21-2.04,1.37-2.5c1.14-0.45,2.03,0.25,2.86,0.99c1,0.91,1.64,2.01,2,3.3
		c0.51,1.81-0.58,3.1-2.39,2.8C20.22,191.95,17.99,189.41,18.07,187.63z"/>
	<path class="st43" d="M40.42,185.1c0.02,2.24-0.65,3.21-2.19,3.19c-1.71-0.02-2.87-1.39-2.87-3.41c0-0.42-0.03-0.85,0.07-1.25
		c0.35-1.37,0.87-2.7,2.49-2.9c1.09-0.13,2.4,1.69,2.49,3.29C40.44,184.38,40.42,184.74,40.42,185.1z"/>
	<path class="st44" d="M14.84,200.52c-0.62-1.02-1.42-1.95-1.45-3.23c-0.11-1.38,0.09-2.6,1.53-3.29c1.39-0.67,2.52-0.11,3.65,0.62
		c1.52,0.98,2.55,2.29,2.75,4.14c0.16,1.43-0.27,2.72-1.56,3.34c-1.16,0.56-2.43,0.37-3.51-0.5
		C15.8,201.22,15.32,200.87,14.84,200.52z"/>
	<path class="st4" d="M31.05,177.81c-1.96,0.2-3.12,1.43-3.81,4.08c-0.32,1.23-0.26,2.51-0.08,3.73c0.13,0.9,0.89,1.59,1.77,1.85
		c0.89,0.26,1.62-0.28,2.18-0.94c0.5-0.59,0.92-1.23,1.37-1.86c-0.03,2.33-1.05,3.64-2.77,3.59c-1.94-0.06-3.36-1.55-3.34-3.65
		c0.02-1.83-0.24-3.67,0.42-5.48C27.69,176.69,28.78,176.31,31.05,177.81z"/>
	<path class="st45" d="M99.05,85.69c-2.34-1.43-4.92-2.52-6.84-4.58c-0.2-0.22-0.42-0.43-0.61-0.66c-2.73-3.24-2.23-5.13,1.72-6.73
		c4.3-1.74,8.52-1.51,12.68,0.44c1.64,0.76,2.05,1.86,1.44,3.65c-1.27,3.73-3.71,6.27-7.22,7.89
		C99.83,85.97,99.44,85.98,99.05,85.69z"/>
	<path class="st46" d="M99.05,85.69c0.39,0,0.78,0.01,1.17,0.01c0.11,1.43,0.22,2.85,0.33,4.28c0.07,0.91,0.73,0.88,1.31,0.74
		c2.74-0.68,5.31-1.83,7.91-2.9c0.51-0.21,0.44-0.6,0.43-1.04c-0.05-1.46,0.41-1.77,1.77-1.15c0.53,0.24,1.04,0.6,1.47,1
		c0.43,0.4,0.37,0.93-0.2,1.16c-4.78,1.96-9.55,3.9-14.61,5.13c-3.86,0.94-6.92-0.34-9.82-2.58c-0.81-0.62-1.57-1.29-2.52-1.7
		c-0.58-0.25-1.08-0.64-0.79-1.38c0.24-0.61,0.79-0.91,1.44-0.89c0.67,0.02,0.97,0.39,0.83,1.08c-0.02,0.11-0.03,0.24,0.01,0.34
		c0.75,1.78,6.76,4.76,8.7,4.32c3.17-0.71,3.18-0.71,2.94-3.94C99.35,87.34,99.18,86.52,99.05,85.69z"/>
	<path class="st6" d="M149.85,37.23c-0.08,0.83,0.33,2.41-0.26,3.91c-0.57,1.45-1.06,1.52-2.01,0.33c-1.97-2.48-4.01-4.92-5.67-7.64
		c-0.76-1.24-1.64-2.37-2.76-3.29c-0.95-0.78-1.04-1.31,0.18-1.92c1.62-0.8,3.21-1.56,5.04-1.81c2.5-0.34,3.83,0.37,4.71,2.78
		C149.89,31.83,149.96,34.17,149.85,37.23z"/>
	<path class="st47" d="M79.2,43.78c-2.88,0.44-5.63-0.41-8.2,0.56c-2.51,0.95-4.79,2.33-6.64,4.34c2.47-3.85,5-7.56,10.4-7.32
		C76.61,41.45,77.95,42.19,79.2,43.78z"/>
	<path class="st6" d="M62.26,28.49c0.12,0,0.24-0.01,0.36,0c1.41,0.17,3.31-0.04,3.96,1.12c0.46,0.82-1.24,1.91-1.92,2.92
		c-2.07,3.07-4.4,6-5.36,9.67c-0.42,1.6-1.25,0.95-1.93,0.38c-3.08-2.56-4.25-4.58-2.98-8.39C55.71,30.21,58.08,28.47,62.26,28.49z"
		/>
	<path class="st48" d="M126.38,47.25c-3.6-3.81-7.94-5.15-13.02-4.75c0.29-1.04,1.01-1.61,1.78-1.68c3.09-0.31,6.2-0.44,9.08,1.1
		C126.34,43.06,126.66,44.97,126.38,47.25z"/>
	<path class="st49" d="M82.88,66.37c-0.31,0.93-0.58,2.16-1.99,1.95c-1.13-0.16-2.31-0.79-2.25-2.15c0.06-1.23,1.03-1.83,2.28-1.73
		C82.02,64.54,82.94,64.88,82.88,66.37z"/>
	<path class="st50" d="M82.13,60.52c0.5,0.13,1.09,0.26,1.11,0.92c0.02,0.65-0.48,0.92-1.07,0.92c-0.56,0-0.85-0.39-0.88-0.92
		C81.27,60.91,81.49,60.53,82.13,60.52z"/>
	<path class="st51" d="M117.4,69.8c-1.68,0.72-3.23,0.53-4.65-0.64c-1.28-2.55-1.47-5.27-1.11-8.02c0.2-1.56,0.89-2.88,2.71-3.11
		c2.28-0.29,3.59,0.35,4.4,2.23c0.91,2.1,0.98,4.33,0.7,6.53C119.3,68.05,118.47,69.05,117.4,69.8z"/>
	<path class="st42" d="M177.21,205.39c-0.11-2.93,0.6-5.4,1.92-7.75c1.23-2.19,3.24-3.1,5.53-3.56c1.84-0.36,3.88,0.57,4.45,2.26
		c1.44,4.3,2.16,8.69,0.36,13.09c-1.49,3.65-3.59,5.17-6.31,4.74c-3.46-0.55-5.75-3.32-5.95-7.22
		C177.18,206.35,177.21,205.75,177.21,205.39z"/>
	<path class="st43" d="M172.52,189.28c-0.01,0.73-0.41,1.39-1.42,1.48c-1.18,0.1-3.21-1.83-3.26-3.07
		c-0.06-1.22,0.48-1.92,1.76-1.94C170.95,185.73,172.45,187.42,172.52,189.28z"/>
	<path class="st43" d="M180.1,182.67c0.02,0.87,0.15,2.15-1.32,2.3c-1.31,0.14-1.79-0.97-2.09-2.05c-0.3-1.09-0.64-2.16-0.57-3.33
		c0.05-0.88,0.37-1.51,1.25-1.71c0.87-0.2,1.56,0.17,1.93,0.95C179.84,179.96,180.12,181.17,180.1,182.67z"/>
	<path class="st43" d="M196.65,185.8c0.04,1.37-0.57,2.3-1.05,3.24c-0.31,0.61-0.91,1.26-1.74,0.93c-0.68-0.27-1.1-0.92-1.15-1.68
		c-0.09-1.44,0.48-2.69,1.23-3.86c0.42-0.66,1.16-0.62,1.78-0.34C196.53,184.45,196.78,185.18,196.65,185.8z"/>
	<path class="st43" d="M20.6,198.86c0.01,1.34-1.08,2.13-2.39,1.74c-1.73-0.52-2.78-1.75-3.51-3.31c-0.32-0.68-0.35-1.39,0.18-2.01
		c0.56-0.66,1.21-0.53,1.95-0.29C18.83,195.64,20.59,197.4,20.6,198.86z"/>
	<path class="st52" d="M100.25,78.47c-0.89,0.12-1.78-0.24-2.66-0.59c-0.68-0.27-1.05-0.71-1.02-1.49c0.03-0.72,0.44-1.11,1.04-1.29
		c1.84-0.56,3.67-0.23,5.4,0.39c1.07,0.38,0.88,1.84-0.24,2.58C102.24,78.41,101.8,78.49,100.25,78.47z"/>
	<path class="st49" d="M115.49,68.4c-1.56,0.12-1.92-0.87-2-2.15c-0.07-1.25,0.65-1.51,1.71-1.47c1.34,0.05,2.18,0.69,2.22,2.05
		C117.45,68.06,116.59,68.43,115.49,68.4z"/>
	<path class="st53" d="M117.29,61.42c-0.09,0.55-0.45,0.8-0.97,0.8c-0.57,0-0.87-0.37-0.83-0.9c0.04-0.5,0.32-0.91,0.9-0.85
		C116.91,60.54,117.18,60.92,117.29,61.42z"/>
	<path class="st54" d="M103.2,76.53c-0.12,0.42-0.44,0.51-0.82,0.44c-0.37-0.06-0.7-0.25-0.66-0.67c0.05-0.47,0.47-0.44,0.81-0.42
		C102.91,75.91,103.2,76.08,103.2,76.53z"/>
</g>
</svg>
