<?xml version="1.0" encoding="utf-8"?>
<!-- Generator: Adobe Illustrator 23.0.2, SVG Export Plug-In . SVG Version: 6.00 Build 0)  -->
<svg version="1.1" id="Camada_1" xmlns="http://www.w3.org/2000/svg" xmlns:xlink="http://www.w3.org/1999/xlink" x="0px" y="0px"
	 viewBox="0 0 67.98 68.61" style="enable-background:new 0 0 67.98 68.61;" xml:space="preserve">
<style type="text/css">
	.st0{fill:#FEFEFE;}
	.st1{fill:#010002;}
	.st2{fill:#454545;}
	.st3{fill:#454544;}
	.st4{fill:#93B8B8;}
	.st5{fill:#FDFDFD;}
	.st6{fill:#444444;}
	.st7{fill:#94B8B8;}
	.st8{fill:#FCFCFC;}
	.st9{fill:#FCFCFD;}
	.st10{fill:#94B9B8;}
	.st11{fill:#414141;}
	.st12{fill:#93B9B8;}
	.st13{fill:#93B8B7;}
	.st14{fill:#F9F9F9;}
	.st15{fill:#403F3F;}
	.st16{fill:#94BAB9;}
	.st17{fill:#FBFBFB;}
	.st18{fill:#98BEBE;}
	.st19{fill:#93B7B6;}
	.st20{fill:#98BCBC;}
	.st21{fill:#EFEEEE;}
	.st22{fill:#90B4B3;}
	.st23{fill:#97BBBB;}
	.st24{fill:#F6F6F6;}
	.st25{fill:#DFDEDE;}
	.st26{fill:#C8C4C6;}
	.st27{fill:#B7B5B5;}
	.st28{fill:#8BABAA;}
	.st29{fill:#262E2E;}
	.st30{fill:#9675AB;}
	.st31{fill:#050405;}
	.st32{fill:#424141;}
	.st33{fill:#121013;}
	.st34{fill:#0D0C0E;}
	.st35{fill:#99BDBD;}
</style>
<g>
	<path class="st0" d="M67.13,29.82c-0.11,1.67,0.2,3.35-0.16,5.02c-0.09,0.42,0.14,0.93,0.29,1.38c0.94,2.93,0.91,5.83,0.17,8.83
		c-0.78,3.17-1,6.49-2.56,9.43c-2.7,5.09-6.2,9.48-11.27,12.44c-1.89,1.1-3.94,1.7-6.15,1.7c-3.4,0-6.77-0.23-10.09-1.03
		c-1.48-0.36-1.95-0.92-2.19-2.44c-0.35-2.23-0.1-4.54-1.08-6.7c-1.55-3.44-3.62-6.55-5.83-9.58c-0.41-0.56-0.78-0.45-1.29-0.17
		c-2.77,1.52-5.36,3.31-7.93,5.14c-2.82,2-5.84,1.76-8.86,0.48c-0.4-0.17-0.73-0.21-1.12-0.2c-3.25,0.1-6.04-0.9-8.2-3.43
		c-0.56-0.65-0.73-1.38-0.73-2.21c-0.01-2.08,0.13-4.15-0.11-6.23c-0.15-1.33,0.64-2.4,1.66-3c4.22-2.48,6.36-6.61,8.67-10.6
		c1.86-3.21,3.96-6.27,5.93-9.41c0.33-0.52,0.43-0.87,0.06-1.45c-1.21-1.93-2.06-4.04-3.03-6.09c-0.59-1.24-1.33-2.34-2.36-3.27
		c-1.57-1.41-1.21-3.63,0.7-4.52c1.81-0.84,3.68-1.01,5.59-0.36c1.14,0.39,3.46-0.59,3.94-1.67c0.64-1.45,2.39-2.34,4.03-1.59
		c1.68,0.77,3.38,0.94,5.14,1.18c3.99,0.54,7.7,2,11.35,3.65c5.93,2.69,11.31,6.18,16.21,10.5c2.18,1.92,4.38,3.83,6.6,5.71
		c1.73,1.48,2.8,3.34,2.63,5.75C67.07,27.98,67.13,28.9,67.13,29.82z"/>
	<path class="st1" d="M65.94,30.22c-0.13,1.32,0.12,2.99-0.16,4.67c-0.13,0.79,0.28,1.7,0.53,2.53c0.72,2.32,0.6,4.6,0.02,6.93
		c-0.5,2.01-0.69,4.1-1.25,6.09c-1.51,5.35-4.75,9.59-8.89,13.19c-2.2,1.91-4.61,3.52-7.6,3.71c-3.67,0.23-7.33-0.08-10.93-0.89
		c-0.9-0.2-1.22-0.68-1.31-1.56c-0.26-2.36-0.17-4.78-1.19-7.03c-1.62-3.57-3.73-6.83-6.13-9.9c-0.66-0.85-1.35-1.09-2.5-0.42
		c-2.89,1.7-5.7,3.51-8.41,5.49c-1.88,1.38-5.92,1.33-7.67-0.05c-0.22-0.18-0.38-0.3-0.72-0.24c-3.11,0.53-5.74-0.33-7.84-2.74
		c-0.37-0.42-0.58-0.81-0.58-1.37c0-2.16,0.16-4.31-0.12-6.47c-0.12-0.9,0.51-1.59,1.16-1.97c4.31-2.48,6.52-6.67,8.87-10.74
		c2.02-3.49,4.26-6.83,6.45-10.21c0.36-0.55,0.43-0.94,0.01-1.54c-1.34-1.94-2.18-4.15-3.19-6.26c-0.71-1.48-1.52-2.87-2.8-3.97
		C10.78,6.7,11,5.48,12.13,4.97c1.62-0.73,3.31-0.94,4.98-0.18c0.64,0.3,1.14,0.34,1.76-0.04c0.5-0.31,1.08-0.52,1.64-0.7
		c0.91-0.27,1.72-0.42,1.83-1.72c0.07-0.91,1.6-1.55,2.58-0.93c1.73,1.1,3.61,0.98,5.47,1.25c3.7,0.52,7.14,1.88,10.52,3.4
		c5.9,2.65,11.28,6.06,16.12,10.38c1.84,1.64,3.65,3.33,5.63,4.81c2.39,1.8,3.68,4.02,3.29,7.08
		C65.88,28.82,65.94,29.35,65.94,30.22z"/>
	<path class="st0" d="M25.1,12.83c-0.36-2.31-0.73-4.62-1.08-6.94c-0.09-0.63-0.08-1.27-0.14-1.9c-0.07-0.74,0.25-0.82,0.84-0.56
		c3.96,1.74,6.74,4.52,7.37,8.94c0.25,1.78,0.92,3.05,2.54,3.84c0.85,0.41,1.65,0.96,2.47,1.44c0.32,0.38,0.27,0.82,0.15,1.25
		c-0.61,2.11-0.25,4.08,0.82,5.96c0.35,0.62,0.71,1.25,0.79,1.98c0.41,2.11,0.62,4.23,0.53,6.38c-0.04,1-0.18,1.97-0.4,2.94
		c-0.12,0.51-0.33,0.98-0.86,1.21c-0.14,0.05-0.27,0.02-0.38-0.08c-0.46-0.79-0.07-1.71-0.37-2.53c-0.29-2.2-1.15-4.22-1.97-6.21
		c-0.57,3.92-1.94,7.68-3.2,11.47c-1.49,0.83-2.96,1.73-4.77,1.62c-0.24-0.99,0.24-1.87,0.47-2.78c0.73-2.86,0.65-5.66-0.44-8.43
		c0.07,3.2-1.01,6.19-1.62,9.26c-0.25,0.66-0.15,1.35-0.17,2.02c-0.02,0.65-0.2,1.21-0.83,1.48c-1.47,0.63-2.88,1.4-4.33,2.07
		c-0.29,0.14-0.6,0.23-0.92,0.05c-0.09-0.11-0.13-0.24-0.13-0.37c0.04-1.54,0.15-3.08-0.08-4.61c-0.37-2.76-0.37-2.76-3.09-2.11
		c-0.54,0.13-1.06,0.33-1.88,0.48c0.59,0.16,0.95,0.24,1.3,0.33c2.15,0.55,2.56,0.97,2.71,3.17c0.09,1.38,0.2,2.78-0.1,4.16
		c-0.9,0.7-1.58,1.77-2.91,1.74c-0.57-0.77-0.44-1.67-0.46-2.54c-0.04-2.15-0.22-2.39-2.15-3.18c-0.84-0.34-1.73-0.62-2.37-1.34
		c-0.18-0.43-0.03-0.85,0.04-1.27c0.33-0.97,1.31-1.35,1.92-2.09c1.77-2.14,3.14-4.52,4.33-7.01c1.08-2.28,2.19-4.53,4.48-5.91
		c0.75-0.45,0.44-1.19,0.17-1.83c-0.06-0.18-0.07-0.36-0.04-0.54c0.24-0.41,0.39-1.01,1.04-0.45c0.5,1.13,0.75,2.36,1.51,3.38
		c0.27,0.36,0.53,0.71,1,0.82c0.57,0.13,0.97-0.03,0.93-0.71c-0.05-1.02-0.29-1.98-0.93-2.8c-0.46-0.59-0.23-0.86,0.41-0.93
		c0.63-0.07,1.27-0.07,1.78,0.02c-0.7-0.5-0.7-0.5-0.79-2.74c0.07,1.79-0.09,1.98-1.82,2.11c-0.28,0.02-0.55,0.08-0.83,0.09
		c-0.67-0.07-0.61-0.51-0.48-0.96c0.24-0.84,0.33-1.69,0.28-2.4c0.12,0.67-0.16,1.38-0.63,2.06c-1.21,1.73-2.36,3.52-4.5,4.28
		c-0.31,0.11-0.65,0.54-0.94-0.04c1.61-2.8,3.66-5.33,5.1-8.24c0.44-0.9,1.38-1.16,2.16-1.62C25.37,13.97,24.7,13.22,25.1,12.83z"/>
	<path class="st0" d="M62.6,45.29c-0.47,3.11-1.71,5.96-3.04,8.77c-0.71,1.51-1.61,2.94-2.36,4.43c-2.19,4.36-5.94,6.12-10.59,6.38
		c-1.23,0.07-2.47,0.02-3.71,0.07c-0.86,0.04-1.66-0.11-2.41-0.55c-0.29-0.43-0.07-0.73,0.24-1.01c0.99-0.14,1.98,0.06,2.97,0.02
		c1.83-0.07,3.45-0.5,4.62-2.06c0.6-0.81,1.5-1.29,2.62-1.93c-2.3,0.4-4.34,0.55-6.3,1.2c-1.13,0.38-2.33,0.65-3.34-0.38
		c-0.03-2.14,0.31-4.25,0.38-6.38c0.21-0.59,0.74-0.81,1.24-1.05c2.98-1.47,5.8-3.16,7.95-5.78c0.18-0.21,0.39-0.4,0.61-0.57
		c3.87-2.78,4.87-6.89,5.24-11.29c0.06-0.75-0.03-1.52,0.03-2.27c0.03-0.35-0.09-0.86,0.53-0.88c1.18,0.74,2.36,1.48,3.54,2.22
		c0.41,0.52,0.33,1.1,0.25,1.7c-0.58,4.17-2.58,7.77-4.47,11.44c-1.88,3.65-4.7,6.28-8.24,8.35c2.06-0.2,4.04-0.5,5.92-1.15
		c3.58-1.24,5.76-3.88,7.09-7.33c0.33-0.85,0.37-1.8,1-2.53C62.74,44.79,62.69,45.03,62.6,45.29z"/>
	<path class="st0" d="M49.14,26.47c1.1,0.75,2.2,1.5,3.3,2.24c0.68,0.91,0.42,2.02,0.52,3.01c0.17,1.7,0.45,3.41,0.33,5.14
		c-0.31,4.8-2.11,8.88-5.87,12c-1.23,1.02-2.29,2.25-3.81,2.87c-0.44,0.18-0.85,0.47-1.36,0.41c-0.6-0.19-0.44-0.69-0.44-1.1
		c-0.01-1.8,0.05-3.59-0.07-5.39c0.02-0.57,0.4-0.94,0.76-1.31c3.43-3.42,4.6-7.82,5.33-12.39c0.24-1.49,0.52-2.98,0.68-4.48
		C48.55,27.08,48.51,26.53,49.14,26.47z"/>
	<path class="st2" d="M62.38,44.8C60.73,52.56,55.9,55.78,47.55,56c0.07-0.39,0.44-0.41,0.69-0.56c3.53-2.05,6.39-4.71,8.24-8.44
		c1.79-3.61,3.81-7.12,4.3-11.22c0.06-0.51,0.18-1.02,0.05-1.54c0.78,0.61,1.81,0.85,2.43,1.68c-0.01,2.07,0.07,4.15-0.21,6.21
		c-0.01,0.24-0.02,0.49-0.03,0.73C62.54,43.42,62.84,44.24,62.38,44.8z"/>
	<path class="st2" d="M49.14,26.47c-0.18,0.01-0.32,0.11-0.31,0.29c0.02,1.85-0.43,3.64-0.7,5.45c-0.76,5.02-2.3,9.7-6.22,13.25
		c-1.77,2.14-3.89,3.81-6.55,4.72c-0.79,0.27-1.58,0.31-2.05-0.6c-0.31-0.15-0.36-0.46-0.49-0.73c2.71-0.73,4.81-2.46,6.91-4.21
		c0.91-0.76,1.55-1.69,2.1-2.7c1.13-1.95,1.67-4.06,1.65-6.3c-0.03-3.87,0.42-7.73,0.26-11.6c-0.02-0.48-0.01-0.97,0.36-1.35
		C45.78,23.94,47.46,25.2,49.14,26.47z"/>
	<path class="st2" d="M42.39,51.97c4.98-2.47,8.51-6.21,10.07-11.61c0.85-2.93,0.35-5.93,0.17-8.91c-0.06-0.91-0.13-1.83-0.2-2.74
		c1.62,1.1,3.24,2.2,4.85,3.31c-0.38,0.57-0.21,1.22-0.19,1.82c0.12,3.24-0.81,6.23-2.01,9.18c-0.32,0.77-0.91,1.3-1.47,1.86
		c-0.68,0.68-1.43,1.29-2.07,2c-2.68,3.01-6.03,5.05-9.58,6.82c-0.58,0.83-1.48,1.2-2.37,1.5c-0.87,0.3-1.69,0.68-2.5,1.1
		c-0.38-0.92-0.85-1.79-1.44-2.6c0.13-0.23,0.35-0.32,0.59-0.36C38.31,52.97,40.3,52.25,42.39,51.97z"/>
	<path class="st0" d="M44.1,22.67c0.03,5.02-0.14,10.03-0.45,15.04c-0.11,1.71-0.83,3.22-1.74,4.64c-0.3,0.02-0.43-0.19-0.47-0.42
		c-0.22-1.38-0.73-2.75-0.3-4.17c0.47-2.86,0.74-5.69-0.94-8.3c-0.5-0.98-0.89-2-1.01-3.11c0.27-1.79,0.18-3.58,0.21-5.38
		c0.01-0.55-0.09-1.13,0.38-1.57C41.6,19.99,42.64,21.6,44.1,22.67z"/>
	<path class="st2" d="M48.65,24.6c-1.86-0.76-3.04-2.4-4.58-3.56c-0.18-0.78,0.23-1.51,0.16-2.28c0.15-1.78,0.53-3.52,0.91-5.26
		c0.09-0.42,0.2-0.86,0.61-1.12c1.5,0.69,3.06,1.29,4.34,2.39c0.35,0.59,0.01,1.15-0.09,1.71c-0.32,1.85-1.06,3.64-0.82,5.57
		C49.13,22.92,49.59,23.9,48.65,24.6z"/>
	<path class="st2" d="M32.05,39.94c0.61-2.97,1.92-5.73,2.52-8.71c0.23-1.15,0.45-2.31,0.71-3.67c1.14,2.38,2.11,4.62,2.37,7.11
		c0.22,0.87-0.12,1.78,0.19,2.65l0,0c0.46,0.87-0.27,1.5-0.45,2.23c-1.69,0.87-3.36,1.82-5.29,2.1
		C31.56,41.1,31.79,40.52,32.05,39.94z"/>
	<path class="st3" d="M21.53,22.94c0.62,0.62,0.62,1.66-0.02,2.03c-1.65,0.94-2.75,2.36-3.6,4.03c-1.24,2.45-2.38,4.95-3.98,7.2
		c-0.93,1.31-2.05,2.43-3.22,3.51c-0.22,0.45-0.63,0.71-1,1.01c-0.09,0.06-0.19,0.11-0.3,0.15c-0.28,0.06-0.55,0.07-0.79-0.13
		c-0.25-1.37,0.05-2.67,0.61-3.92c1-0.47,1.59-1.39,2.37-2.11c2.15-2.1,3.67-4.64,4.94-7.32c0.85-1.78,2.27-2.96,3.75-4.12
		C20.64,22.99,21.06,22.84,21.53,22.94z"/>
	<path class="st4" d="M42.39,51.97c-2.15,0.93-4.42,1.41-6.73,1.73c-0.7-1.42-1.79-2.63-2.36-4.13c1.02,0.9,2.04,0.38,3.01-0.06
		c1.55-0.69,2.87-1.72,4.11-2.87c0.47-0.43,0.86-0.95,1.49-1.19c0.54,1.91,0.12,3.85,0.23,5.77C42.15,51.49,41.85,51.88,42.39,51.97
		z"/>
	<path class="st4" d="M41.14,37.76c0.18,1.54,0.34,3.09,0.77,4.6c-1.77,3.02-4.64,4.72-7.58,6.33c-0.47,0.26-1.01,0.18-1.53,0.15
		c-0.33-0.47-0.67-0.95-1-1.42c-0.24-0.76,0.46-0.94,0.84-1.27c2.3-1.98,4.68-3.86,6.86-5.98c0.28-0.27,0.64-0.5,0.71-0.94
		C40.69,38.84,40.84,38.25,41.14,37.76z"/>
	<path class="st3" d="M41.47,60.33c1.27,0.33,2.49,0.21,3.76-0.19c2.09-0.66,4.26-0.91,6.46-1.08c0.06,0.61-0.38,0.55-0.62,0.67
		c-0.76,0.38-1.54,0.76-2.05,1.43c-2.06,2.73-4.91,2.8-7.91,2.41c-0.12-0.02-0.24-0.03-0.36-0.05c-0.83,0.25-1.43-0.57-2.22-0.51
		c-0.14-1.13-0.29-2.26-0.43-3.39C39.31,59.44,40.4,59.84,41.47,60.33z"/>
	<path class="st0" d="M45.75,12.37c-0.56,2.13-0.95,4.29-1.22,6.47c-0.11,0.44-0.14,1.15-0.83,0.65c-1.4-1.04-2.83-2.06-4.03-3.34
		c-0.14-0.14-0.15-0.36-0.17-0.56c0.35-1.89,0.53-3.82,1.49-5.54C42.61,10.74,44.23,11.46,45.75,12.37z"/>
	<path class="st0" d="M48.87,21.97c-0.17-0.33-0.23-0.67-0.14-1.04c0.46-2.05,0.91-4.11,1.36-6.17c1.63,1.06,3.25,2.13,4.73,3.4
		c0.19,0.32,0.07,0.63-0.04,0.92c-0.68,1.74-0.99,3.62-1.94,5.26C51.16,24.13,50.02,23.03,48.87,21.97z"/>
	<path class="st2" d="M52.68,24.32c0.71-2.05,1.42-4.1,2.13-6.15c0.91,0.03,1.25,0.81,1.75,1.36c0.27,0.4,0.16,0.84,0.14,1.27
		c-0.06,2.06-0.1,4.11,0.39,6.13c0.01,0.9,0.64,1.81-0.04,2.71c-1.83-0.79-3.39-2.02-5.05-3.08C51.75,25.66,52.11,24.96,52.68,24.32
		z"/>
	<path class="st2" d="M25.55,39.72c0.57-3.4,1.83-6.7,1.5-10.41c0.69,0.36,0.79,0.88,0.94,1.32c0.97,2.8,0.93,5.64,0.2,8.49
		c-0.22,0.85-0.46,1.69-0.68,2.54c0.2,0.92-0.25,1.8-0.21,2.71c-0.47,0.34-0.94,0.68-1.51,0.84c-0.46-0.52-0.64-1.19-0.5-1.79
		C25.58,42.18,25.38,40.94,25.55,39.72z"/>
	<path class="st5" d="M56.81,27c-0.61-2.47-0.7-4.96-0.25-7.47c1.28,1.13,2.55,2.26,3.83,3.4c0.68,1.95,0.38,3.94,0.27,5.92
		c-0.12,0.35-0.4,0.58-0.72,0.38C58.86,28.55,57.55,28.16,56.81,27z"/>
	<path class="st3" d="M40.22,39.23c0.31,0.6-0.18,0.87-0.51,1.18c-2.33,2.23-4.86,4.24-7.32,6.32c-0.23,0.2-0.6,0.28-0.58,0.69
		c-0.6-0.86-1.47-1.43-2.26-2.08c-0.48-0.4-0.53-0.52,0.04-0.89c2.53-1.68,5.28-2.85,8.13-3.86C38.6,40.27,39.38,39.69,40.22,39.23z
		"/>
	<path class="st3" d="M18.15,46.41c0.24-1.87,0.06-3.72-0.21-5.57c-0.12-0.79-0.7-1.08-1.39-1.29c-0.98-0.29-2.03-0.34-3.05-0.97
		c1.52-0.37,2.89-0.73,4.29-1.02c1.45-0.3,1.56-0.2,1.75,1.21c0.06,0.47,0.08,0.95,0.11,1.43c0.14,1.6,0.11,3.2,0.01,4.81
		c-0.02,0.07-0.01,0.14,0,0.21c0.39,0.56,0.21,1.16,0.1,1.74c-0.12,0.61-0.16,1.19,0.34,1.67c-0.58,0.51-1.37,0.03-1.98,0.42
		C17.64,48.15,17.67,47.28,18.15,46.41z"/>
	<path class="st4" d="M41.47,60.33c-1.17-0.02-2.27-0.34-3.37-0.71c-0.34-1.11-0.48-2.27-1-3.33c0.11-0.84,0.9-0.86,1.42-1.02
		c1.22-0.38,2.33-0.98,3.44-1.57C41.94,55.92,41.87,58.14,41.47,60.33z"/>
	<path class="st2" d="M40.98,10.04c-0.42,1.89-0.83,3.78-1.25,5.68c-0.24,0.53,0.38,1.18-0.21,1.67c-0.06,0.14-0.05,0.53-0.28,0.29
		c-0.67-0.7-1.61-1.09-2.13-1.94c-0.1-0.51-0.09-1.03-0.09-1.55c-0.09-1.62,0.38-3.17,0.71-4.73c0.08-0.35,0.2-0.69,0.53-0.91
		C39.21,9,40.22,9.29,40.98,10.04z"/>
	<path class="st6" d="M39.78,19.39c0.12,2.38,0.18,4.77-0.29,7.13c-0.02,0.03-0.03,0.07-0.05,0.1c-0.17,0.27,0.2,0.79-0.3,0.85
		c-0.46,0.05-0.39-0.47-0.55-0.75c-0.32-0.68-0.59-1.39-0.97-2.04c-1.1-1.91-1.26-3.9-0.64-5.99c0.1-0.34,0.23-0.68,0.13-1.05
		C38.01,18.21,39.05,18.58,39.78,19.39z"/>
	<path class="st7" d="M20.09,48.62c-0.69,0.12-1.01,0-0.79-0.84c0.22-0.83,0.24-1.71,0.35-2.56c1.76-0.8,3.51-1.62,5.27-2.41
		c0.47-0.21,0.41-0.6,0.44-1c0.05-0.7-0.2-1.42,0.19-2.09c0.03,1.83-0.02,3.66,0.25,5.48C23.83,46.22,21.93,47.36,20.09,48.62z"/>
	<path class="st8" d="M17.71,14.02c-0.57-1.14-1.16-2.26-1.7-3.42c-0.6-1.27-1.24-2.5-2.24-3.5c-0.65-0.65-0.31-0.83,0.35-0.91
		c0.93-0.12,1.83,0.03,2.68,0.43c0.13,0.06,0.34,0.19,0.33,0.27c-0.25,2.16,0.78,3.96,1.63,5.81c0.56,1.23,1.07,2.48,1.6,3.72
		c-0.4,0.6-0.69,0.1-0.9-0.15C18.86,15.54,18.18,14.86,17.71,14.02z"/>
	<path class="st9" d="M11.69,48.6c-0.4-0.25-0.79-0.49-1.19-0.74c-0.41-1.88-0.61-3.77-0.15-5.67c0.49-0.43,0.89-0.07,1.28,0.16
		c1.37,0.84,2.36,1.96,2.6,3.63c0.17,1.2,0.47,2.41-0.16,3.58c-0.68-0.04-1.26-0.38-1.86-0.67C11.92,49.01,11.82,48.78,11.69,48.6z"
		/>
	<path class="st5" d="M38.28,8.55c-0.36,1.91-0.99,3.77-0.91,5.75c-1.26,0.27-2.12-0.56-3.08-1.13c0.03-2.03-0.23-4.08,0.46-6.07
		C35.93,7.58,37.1,8.07,38.28,8.55z"/>
	<path class="st2" d="M34.75,7.1c-0.09,2.07-0.17,4.14-0.26,6.21c0.19,0.44,0.05,0.82-0.22,1.18c-0.72-0.11-1-0.53-1.17-1.24
		c-0.39-1.61-0.8-3.23-1.49-4.75c0.06-0.83-1.03-1.4-0.55-2.33C32.41,6.01,33.66,6.25,34.75,7.1z"/>
	<path class="st10" d="M38.59,26.72c0.19,0.24,0.38,0.47,0.59,0.74c0.12-0.36,0.21-0.65,0.31-0.94c0.11,1.01,0.88,1.86,0.71,2.94
		c-0.37,0.69,0,1.39,0.11,2.03c0.19,1.11,0.12,2.21,0.23,3.31c0.21,2.05-0.68,3.42-2.45,4.31c-0.25,0.12-0.47,0.29-0.7,0.44
		c-0.17-0.81,0.41-1.47,0.45-2.23c1.26-0.81,1.04-2.19,1.13-3.36c0.17-2.1,0.3-4.23-0.38-6.3C38.5,27.39,38.59,27.04,38.59,26.72z"
		/>
	<path class="st8" d="M21.53,22.94c-2.04,1.07-3.72,2.5-4.75,4.63c-1.32,2.72-2.83,5.32-5.09,7.4c-0.4-0.62,0.03-1.13,0.22-1.66
		c0.25-0.71,0.68-1.33,0.96-2.03c1.7-2.06,2.75-4.54,4.35-6.66c1.09-0.61,2.3-1.01,3.26-1.87c0.28-0.25,0.62-0.52,1.06-0.29
		C21.53,22.62,21.53,22.78,21.53,22.94z"/>
	<path class="st11" d="M60.38,29.15c0-2.07,0.01-4.15,0.01-6.22c0.61,0.93,1.89,1.25,2.19,2.46c0.23,0.34,0.33,0.72,0.26,1.13
		c-0.24,1.33-0.11,2.68-0.17,4.02c-0.09,0.69,0.24,1.51-0.58,1.98c-0.72-0.15-1.28-0.63-1.93-0.93
		C60.33,30.79,60.26,29.96,60.38,29.15z"/>
	<path class="st2" d="M25.1,12.83c-0.18,0.47,0.53,1.22-0.46,1.43c0.14-0.23,0.37-0.49,0.16-0.75c-0.23-0.29-0.51-0.01-0.75,0.07
		c-0.37,0.13-0.71,0.32-1.06,0.48c-1.1-0.5-1.27-1.71-1.91-2.55c-0.58-1.15-1.35-2.2-1.69-3.47c0.65-1.16,1.86-0.94,2.89-1.16
		c-0.01,1.71,0.9,3.1,1.57,4.58c0.16,0.36,0.45,0.66,0.58,1.04c0.02,0.05-0.01,0.15,0.1,0.16c0-0.13,0.04-0.23,0.15-0.3
		C24.82,12.51,24.96,12.67,25.1,12.83z"/>
	<path class="st3" d="M14.07,49.55c0.24-1.74-0.04-3.41-0.59-5.06c-0.32-0.97-1.39-1.14-1.98-1.83c-0.24-0.29-0.67-0.42-1.01-0.62
		c-0.64-0.23-1.23-0.5-0.95-1.37l-0.02,0.02c0.41-0.29,0.71-0.1,0.99,0.21c1.11,0.73,2.35,1.18,3.59,1.62
		c0.6,0.21,0.86,0.57,1.01,1.19c0.34,1.45,0.09,2.96,0.44,4.4c0.36,0.43,0.34,0.97,0.47,1.47C15.36,49.97,14.72,49.42,14.07,49.55z"
		/>
	<path class="st4" d="M27.31,44.35c-0.68-0.96,0-1.81,0.21-2.71c1.51-0.57,3.02-1.13,4.53-1.7c0.04,0.57-0.15,1.15,0.06,1.71
		c-0.3,0.54-0.91,0.62-1.39,0.82C29.51,42.99,28.4,43.65,27.31,44.35z"/>
	<path class="st12" d="M52.68,24.32c-0.22,0.74-0.45,1.49-0.67,2.23c-1.18-0.54-2.3-1.2-3.35-1.95c0.39-0.85,0.07-1.76,0.22-2.63
		C50.14,22.75,51.41,23.54,52.68,24.32z"/>
	<path class="st13" d="M9.53,40.67c-0.05,0.72,0.66,0.9,0.95,1.37c0.03,1.64-0.18,3.3,0.22,4.92c0.08,0.32,0,0.62-0.19,0.89
		c-1.34-1.4-1.6-3.21-1.89-4.99c-0.11-0.69-0.01-1.42,0-2.13C8.92,40.71,9.23,40.69,9.53,40.67z"/>
	<path class="st13" d="M60.38,29.15c0.27,0.85,0.59,1.7-0.23,2.44c-1.01-0.69-2.2-1.09-3.09-1.96c0.16-0.9-0.28-1.74-0.25-2.63
		C58,27.72,59.19,28.43,60.38,29.15z"/>
	<path class="st14" d="M24.68,12.35c-0.02,0.19-0.05,0.38-0.08,0.63c-1.52-1.62-1.98-3.68-2.78-5.58c-0.18-0.43,0.31-0.35,0.46-0.54
		c1.2-0.4,1.51,0.22,1.64,1.29C24.09,9.56,24.42,10.95,24.68,12.35z"/>
	<path class="st13" d="M39.53,17.38c-0.03-0.57-0.02-1.13,0.21-1.67c1.15,1.47,2.77,2.42,4.17,3.6c0.58,0.49,0.33-0.41,0.62-0.48
		c0.14,0.79-0.25,1.47-0.46,2.19C42.55,19.82,41.04,18.6,39.53,17.38z"/>
	<path class="st15" d="M21.53,22.46c-1.45,0.69-2.66,1.87-4.32,2.16c-0.02-0.19-0.1-0.4,0.16-0.5c1.09-0.08,2.03-0.66,2.71-1.37
		c1.51-1.59,3.2-3.16,3.22-5.64c0-0.14,0.03-0.32,0.23-0.36c0.3,1.11,0.27,2.57-0.15,3.76c-0.13,0.37-0.15,0.5,0.28,0.44
		c-0.1,0.84-0.72,0.97-1.4,1.02C21.91,21.9,21.91,21.9,21.53,22.46z"/>
	<path class="st16" d="M16.02,49.58c-0.88-0.26-0.28-0.99-0.47-1.47c0.94-0.46,1.56-1.4,2.6-1.7c0.13,0.87,0.15,1.75-0.03,2.62
		C17.42,49.22,16.72,49.4,16.02,49.58z"/>
	<path class="st16" d="M21.32,11.39c0.55,0.89,1.11,1.78,1.66,2.67c-0.44,0.38-0.89,0.76-1.35,1.16c-0.68-1.39-1.33-2.73-1.98-4.07
		C20.29,10.68,20.76,11.37,21.32,11.39z"/>
	<path class="st17" d="M21.32,11.39c-0.65,0.54-1.08-0.39-1.67-0.25c-0.39-0.6-0.81-1.18-1.15-1.8c-0.42-0.76-0.1-1.21,0.88-1.3
		C20.37,8.96,20.66,10.28,21.32,11.39z"/>
	<path class="st18" d="M12.86,31.28c-0.06,1.33-1.02,2.39-1.18,3.69c-0.53,0.78-1.29,1.32-1.99,1.93c-0.18,0.15-0.38,0.34-0.47-0.08
		C10.43,34.96,11.46,33,12.86,31.28z"/>
	<path class="st14" d="M62.31,30.61c-0.18-1.76,0.15-3.49,0.27-5.23c0.6,0.24,0.79,0.69,0.78,1.31c-0.01,1.47-0.1,2.93-0.33,4.37
		C62.57,31.26,62.54,30.78,62.31,30.61z"/>
	<path class="st19" d="M34.28,14.49c-0.11-0.43,0-0.81,0.22-1.18c1.12-0.15,1.82,0.94,2.88,0.99c-0.07,0.48,0.27,1.03-0.25,1.43
		C36.24,15.17,35.25,14.84,34.28,14.49z"/>
	<path class="st20" d="M17.71,14.02c0.71,0.52,1.21,1.23,1.8,1.87c0.21,0.23,0.28,0.83,0.85,0.54c0.64,0.65-0.05,1.09-0.38,1.35
		c-0.36,0.29-0.54-0.31-0.7-0.57C18.65,16.2,18.02,15.18,17.71,14.02z"/>
	<path class="st21" d="M63.05,42.14c-0.48-0.7-0.04-1.43-0.01-2.14c0.05-1.36-0.21-2.74,0.22-4.07c0.21,1.78,0.28,3.56,0.04,5.34
		C63.26,41.56,63.36,41.91,63.05,42.14z"/>
	<path class="st22" d="M38.53,63.02c0.05-0.29,0.15-0.41,0.47-0.26c0.57,0.28,1.16,0.51,1.75,0.77c-0.08,0.29-0.17,0.58-0.25,0.87
		C39.83,63.95,38.65,64.24,38.53,63.02z"/>
	<path class="st23" d="M62.31,30.61c0.24,0.15,0.48,0.3,0.72,0.46c-0.01,0.35-0.03,0.71-0.02,1.06c0.04,0.96-0.28,1.04-0.92,0.39
		C62.42,31.92,62.19,31.24,62.31,30.61z"/>
	<path class="st24" d="M5.44,44.02c-0.22,0.97-0.26,1.85-0.12,2.74c0.03,0.21-0.03,0.41-0.29,0.42c-0.08,0-0.2-0.1-0.25-0.19
		C4.43,46.4,4.78,44.59,5.44,44.02z"/>
	<path class="st25" d="M31.07,6.17c0.03,0.81,0.8,1.45,0.55,2.33c-0.49-0.75-0.98-1.51-1.5-2.3C30.41,5.97,30.75,6.15,31.07,6.17z"
		/>
	<path class="st26" d="M11.69,48.6c0.17,0.1,0.35,0.19,0.52,0.29c-0.57,0.86-0.97,1.86-2,2.78C10.5,50.3,11.49,49.64,11.69,48.6z"/>
	<path class="st27" d="M62.38,44.8c0.29-0.62-0.25-1.51,0.64-1.93c-0.25,0.79-0.05,1.65-0.41,2.42
		C62.53,45.13,62.46,44.96,62.38,44.8z"/>
	<path class="st28" d="M40.33,64.85c-0.58,0.07-1.2,0.35-1.62-0.26c-0.04-0.06,0.02-0.3,0.06-0.31
		C39.39,64.18,39.82,64.63,40.33,64.85z"/>
	<path class="st29" d="M36.8,58.92c-0.53-0.59-0.59-1.39-0.83-2.12C36.57,57.36,36.61,58.15,36.8,58.92z"/>
	<path class="st30" d="M29.96,14.01C28.98,14,28,14,27.02,14c-0.36-2.34-0.62-4.7-1.12-7.02c-0.12-0.57-0.19-1.21,0.45-1.6
		c0.69,0.42,1.22,1,1.66,1.67c1.17,1.61,1.86,3.4,2.14,5.36C30.23,12.96,30.35,13.51,29.96,14.01z"/>
	<path class="st31" d="M22.26,21.97c0.44-0.38,1.04-0.53,1.4-1.02c0.07-0.04,0.13-0.09,0.2-0.13c0.65-0.31,1.58,0.38,2.05-0.46
		c0.37-0.66,0.25-1.45,0.27-2.57c0.77,1.64-0.24,3.67,1.94,4.33c-1.16-0.17-2.2-0.43-3.36-0.12c0.92,0.94,1.25,2.06,1.41,3.24
		c0.07,0.48,0.19,1.01-0.37,1.26c-0.59,0.26-1.2,0.19-1.65-0.32c-0.56-0.63-0.94-1.37-1.3-2.13c-0.25-0.54-0.11-1.27-0.82-1.61
		C21.87,22.36,22.16,22.12,22.26,21.97z"/>
	<path class="st32" d="M16.43,34.39c2.16-2.14,3.46-5.36,7.08-5.73c-1.66,0.85-2.49,2.44-3.58,3.8
		C19.06,33.53,17.82,34.1,16.43,34.39z"/>
	<path class="st33" d="M26.35,5.38c-0.59,1.54,0.29,2.97,0.33,4.47c0.04,1.39,0.6,2.74,0.34,4.15c-0.74-1.77-0.71-3.7-1.14-5.53
		c-0.21-0.88-0.24-1.81-0.32-2.72c-0.02-0.25-0.2-0.61,0.12-0.74C25.93,4.91,26.18,5.14,26.35,5.38z"/>
	<path class="st34" d="M29.96,14.01c-0.09-2.02-0.56-3.94-1.46-5.76c-0.19-0.39-0.5-0.73-0.5-1.2c1.98,1.76,2.41,4.16,2.73,6.6
		C30.83,14.43,30.3,14.06,29.96,14.01z"/>
	<path class="st7" d="M19.65,45c0-1.6-0.01-3.2-0.01-4.81C19.91,41.8,19.94,43.4,19.65,45z"/>
	<path class="st35" d="M10.5,40.9c-0.33-0.07-0.66-0.14-0.99-0.21c0.23-0.53,0.76-0.71,1.2-0.99C10.72,40.12,10.7,40.53,10.5,40.9z"
		/>
	<path class="st10" d="M37.84,37.33c-0.32-0.87-0.19-1.76-0.19-2.65C38,35.54,37.84,36.44,37.84,37.33z"/>
</g>
</svg>
