<?xml version="1.0" encoding="utf-8"?>
<!-- Generator: Adobe Illustrator 23.0.2, SVG Export Plug-In . SVG Version: 6.00 Build 0)  -->
<svg version="1.1" id="Camada_1" xmlns="http://www.w3.org/2000/svg" xmlns:xlink="http://www.w3.org/1999/xlink" x="0px" y="0px"
	 viewBox="0 0 47.33 48.77" style="enable-background:new 0 0 47.33 48.77;" xml:space="preserve">
<style type="text/css">
	.st0{fill:#511117;}
	.st1{fill:#682F1B;}
	.st2{fill:#0394D7;}
	.st3{fill:#004B87;}
	.st4{fill:#963F1B;}
	.st5{fill:#A94416;}
	.st6{fill:#672E1A;}
	.st7{fill:#6A2F1B;}
	.st8{fill:#76321C;}
	.st9{fill:#82381C;}
	.st10{fill:#0262A8;}
	.st11{fill:#77331B;}
	.st12{fill:#034E94;}
	.st13{fill:#622C19;}
	.st14{fill:#933F1A;}
	.st15{fill:#056EB2;}
	.st16{fill:#82371B;}
	.st17{fill:#0587C8;}
	.st18{fill:#005096;}
	.st19{fill:#301306;}
	.st20{fill:#010000;}
	.st21{fill:#B26916;}
	.st22{fill:#DE9D37;}
	.st23{fill:#007BBE;}
	.st24{fill:#692F1B;}
	.st25{fill:#8D4F1E;}
	.st26{fill:#77261D;}
	.st27{fill:#973C1C;}
	.st28{fill:#0176BB;}
	.st29{fill:#014A89;}
	.st30{fill:#7D291D;}
	.st31{fill:#7F291E;}
	.st32{fill:#115296;}
	.st33{fill:#0588CB;}
	.st34{fill:#723219;}
	.st35{fill:#973D1C;}
	.st36{fill:#E4AA35;}
	.st37{fill:#C9E1DD;}
	.st38{fill:#C3D5CC;}
	.st39{fill:#993E1D;}
	.st40{fill:#CDE0D8;}
	.st41{fill:#F9FCFD;}
	.st42{fill:#F3F9FC;}
	.st43{fill:#F8FBFD;}
	.st44{fill:#EDF6FB;}
	.st45{fill:#F2F8FC;}
	.st46{fill:#0462A9;}
	.st47{fill:#067EC2;}
	.st48{fill:#C8E2F5;}
	.st49{fill:#087BC1;}
	.st50{fill:#63AEBF;}
	.st51{fill:#007CC0;}
	.st52{fill:#02519A;}
	.st53{fill:#0575BB;}
	.st54{fill:#62ACBD;}
	.st55{fill:#D58400;}
	.st56{fill:#D78C00;}
	.st57{fill:#AA5D18;}
	.st58{fill:#8D4E1E;}
	.st59{fill:#B16917;}
	.st60{fill:#C3740E;}
	.st61{fill:#E4A336;}
	.st62{fill:#94C7ED;}
	.st63{fill:#008DCE;}
	.st64{fill:#E3B23D;}
	.st65{fill:#C1DBEE;}
	.st66{fill:#A8D4EE;}
	.st67{fill:#D38101;}
	.st68{fill:#FEFEFE;}
	.st69{fill:#6C301B;}
	.st70{fill:#B14614;}
	.st71{fill:#9E4019;}
	.st72{fill:#833519;}
	.st73{fill:#7C351C;}
	.st74{fill:#86381C;}
	.st75{fill:#9D4019;}
	.st76{fill:#BE6F10;}
	.st77{fill:#9D551C;}
	.st78{fill:#0295D5;}
	.st79{fill:#63AFC9;}
	.st80{fill:#E4F1F9;}
	.st81{fill:#C7DFD5;}
	.st82{fill:#77B9E3;}
	.st83{fill:#C5DDD6;}
	.st84{fill:#6BB3D5;}
	.st85{fill:#0578BE;}
	.st86{fill:#D3E6E8;}
	.st87{fill:#8CC3EA;}
	.st88{fill:#0A63AC;}
	.st89{fill:#C9E4F3;}
	.st90{fill:#0297D9;}
	.st91{fill:#A0571B;}
	.st92{fill:#92C6EC;}
	.st93{fill:#7EBDE8;}
	.st94{fill:#1594D8;}
	.st95{fill:#B1D8EF;}
	.st96{fill:#BDDCF3;}
	.st97{fill:#BA6413;}
	.st98{fill:#973F1C;}
	.st99{fill:#C5740D;}
	.st100{fill:#F3D755;}
	.st101{fill:#F6E38B;}
	.st102{fill:#FAF1D0;}
	.st103{fill:#E9BE47;}
	.st104{fill:#FEFDF8;}
	.st105{fill:#F5EBE6;}
	.st106{fill:#A55A1B;}
</style>
<g>
	<path d="M20.64,47.1c-5.15-0.82-10.4-1.58-14.35-5.43c-2.88-2.81-5.03-6.14-4.62-10.44c0.13-1.36,0.53-2.75,1.1-3.99
		c3.13-6.88,8.13-11.43,15.99-11.77c2.01-0.09,3.33-0.76,4.51-2.16c0.1-0.12,0.19-0.32,0.32-0.35c1.69-0.36,1.25-1.63,1.1-2.69
		c-0.18-1.29-0.07-2.61-0.59-3.87c-0.36-0.86,0.48-2.07,1.54-2.53c2.05-0.89,4.25-1.3,6.37-1.97c2.15-0.68,4.24-0.31,6.36-0.24
		c0.89,0.03,1.36,0.8,2.09,1.07c2.12,0.8,3.22,2.45,3.92,4.5c0.3,0.9,0.63,1.81,1.3,2.52c0.27,0.29,0.31,0.67,0.2,1.01
		c-0.62,1.91-0.35,3.87-0.45,5.82c-0.05,0.91-0.12,1.82-0.18,2.73c-0.05,0.69-0.45,1.14-1.08,1.28c-1.43,0.32-2.78,1.01-4.3,0.86
		c-0.82-0.08-1.34,0.19-1.3,1.17c0.04,0.94-0.39,1.71-1.21,2.2c-0.57,0.34-0.64,0.67-0.48,1.35c0.67,2.7,1.4,5.46,0.72,8.25
		c-0.98,4.04-3.62,6.92-6.91,9.29c-2.29,1.65-4.82,2.58-7.61,2.89C22.26,46.68,21.55,47.33,20.64,47.1z"/>
	<path class="st0" d="M36.94,20.86c0.95,1.42,0.68,2.54-0.84,3.38c-0.41,0.23-0.91,0.35-0.8,0.99c-0.88-0.09-1.04-1.31-2-1.26
		c-0.37-0.06-0.73-0.13-1.11-0.12c-0.58-0.03-1.14,0.06-1.63,0.39c-0.18,0.12-0.29,0.3-0.42,0.47c-0.25,0.27-0.57,0.38-0.92,0.41
		c-0.15-0.05,0.01,0.07-0.12-0.01c-1.83-1.22-3.64-2.48-5.76-3.19c-0.1-0.03-0.1-0.2-0.09-0.32c0.61-0.81,0.44-1.75,0.46-2.66
		c0.05-0.4-0.19-0.72-0.28-1.08c-0.01-0.23,0.33-0.43-0.04-0.7c-0.35-0.25-0.73-0.47-1.03-0.79c0.53-1.7,2.1-2.79,3.87-2.71
		c0.35-0.2,0.66-0.01,0.99,0.06c0.53,0.17,1.09,0.27,1.62,0.46c0.26,0.1,0.52,0.21,0.76,0.35c1.33,0.98,2.87,1.65,4.09,2.8
		c0.25,0.21,0.53,0.38,0.78,0.59c0.63,0.61,1.25,1.22,1.85,1.85C36.65,20.06,36.75,20.48,36.94,20.86z"/>
	<path class="st1" d="M33.37,23.79c1.13-0.18,1.29,0.95,1.92,1.43c1.01,2.87,1.65,5.8,1.17,8.84c-0.36,2.31-1.74,4.14-3.26,5.84
		c-0.61,0.68-1.2,1.38-1.97,1.89c-0.31-0.15-0.6-0.07-0.92,0.04c-0.38,0.13-0.64,0.04-0.51-0.45c0.48-0.8,1.2-1.38,1.86-2.01
		c3.76-3.65,4.4-7.91,2.61-12.71C33.92,25.72,33.08,24.92,33.37,23.79z"/>
	<path class="st2" d="M27.86,4.35c1.9-0.86,3.97-1.09,5.98-1.53c1.73-0.39,3.38,0.02,5.05,0.37c0.14,0.14,0.16,0.29,0.06,0.46
		c-1.41,0.22-2.65,0.9-3.98,1.44c0.39,0.01,0.75,0.11,1.08,0.28c0.59,0.33,1.15,0.71,1.75,1.03c0.52,0.5,1,1.01,0.9,1.82
		c-0.84,0.31-1.24-0.44-1.81-0.76c-0.71-0.73-1.63-0.83-2.57-0.81C33.72,6.57,33.1,5.5,32.56,6.7c-0.13,0.13-0.28,0.21-0.46,0.25
		c-0.25,0.03-0.48,0-0.67-0.18c-0.14-0.32,0.14-0.59,0.14-0.89c-0.96-0.21-1.85,0.41-2.76,0.03C28.29,5.51,27.59,5.23,27.86,4.35z"
		/>
	<path class="st3" d="M36.94,20.86c-0.34-0.22-0.52-0.55-0.68-0.9c0.25-0.6,0.81-0.54,1.31-0.58c0.43-0.03,0.87,0.03,1.28-0.12
		c0.32-0.08,0.64-0.1,0.97-0.11c0.49-0.02,0.99,0.05,1.47-0.12c1.44-0.24,1.47-0.27,0.92-1.64c-0.59-1.47-1.17-2.94-1.72-4.42
		c-0.17-0.47-0.45-0.94-0.19-1.48c0.3-0.28,0.63-0.42,1.03-0.26c1.08,1.24,1.05,2.96,1.84,4.11c0.14-1.51-0.39-3.29,0.4-4.97
		c0.16-0.22,0.41-0.27,0.66-0.32c0.61,0.4,0.18,0.96,0.17,1.43c-0.08,2.39-0.29,4.77-0.32,7.16c-0.01,0.76-0.4,0.81-0.88,0.99
		c-1.67,0.61-3.42,0.66-5.16,0.8C37.64,20.45,37.1,20.22,36.94,20.86z"/>
	<path class="st4" d="M10.34,19.46c2.08-1.71,4.6-2.26,7.17-2.66c0.46-0.19,0.93-0.07,1.4-0.09c0.27-0.01,0.58-0.04,0.61,0.36
		c0.03,0.39-0.36,0.26-0.57,0.42c-0.11,0.04,0.18,0.17,0.05,0.07c-0.05-0.04-0.02-0.07,0.07-0.1c1.03-0.36,2.09-0.32,3.14-0.24
		c0.36,0.03,0.83,0.02,0.87,0.58c-1.31,0.62-2.7,0.18-4.05,0.31c-2.15-0.02-4.12,0.58-5.98,1.64c-0.51,0.29-0.98,0.68-1.58,0.8
		C10.67,20.64,10.07,20.5,10.34,19.46z"/>
	<path class="st5" d="M25.45,44.84c-1.27,0.28-2.55,0.56-3.82,0.83c-0.57,0.23-1.13,0.24-1.7-0.01c-2.14-0.11-4.21-0.57-6.23-1.29
		c-0.55-0.36-0.25-0.61,0.11-0.85c0.59-0.2,1.15,0.11,1.73,0.13c2.88,0.92,5.78,0.58,8.67,0.09C24.71,44.02,25.83,43.6,25.45,44.84z
		"/>
	<path class="st6" d="M3.36,30.02c0.4-3.28,2.29-5.77,4.32-8.19c0.38,0.24,0.7,0.52,0.86,0.95c0,0.51-0.39,0.78-0.68,1.12
		c-0.2,0.2-0.4,0.4-0.59,0.6c-1.33,1.36-2.14,3.01-2.74,4.79c-0.13,0.39-0.12,0.89-0.62,1.08C3.65,30.39,3.46,30.28,3.36,30.02z"/>
	<path class="st7" d="M10.11,42.96c-2.09-1.16-3.94-2.58-5.05-4.77c0.07-0.29,0.07-0.29,0.64-0.33c1.04,0.83,1.81,1.96,2.95,2.69
		c0.26,0.17,0.49,0.4,0.79,0.51c0.44,0.21,0.79,0.58,1.24,0.77c0.25,0.15,0.41,0.36,0.47,0.65C11.04,43.17,10.41,42.7,10.11,42.96z"
		/>
	<path class="st8" d="M23.07,17.75c-1.41-0.48-2.87-0.03-4.3-0.27c0.02-0.34,0.58-0.05,0.53-0.59c-0.57-0.03-1.18-0.06-1.79-0.09
		c1.15-0.41,2.34-0.14,3.5-0.24c0.45-0.04,0.95,0.19,1.35-0.21c1.22,0.24,1.6,0.74,1.15,1.49C23.34,17.93,23.19,17.91,23.07,17.75z"
		/>
	<path class="st9" d="M8.42,22.82c-0.26-0.32-0.77-0.45-0.74-0.99c0.7-0.99,1.7-1.66,2.66-2.37c0.04,0.6,0.34,0.95,0.97,0.97
		c0.05,0.74-0.67,0.8-1.03,1.18C9.59,21.9,9.34,22.87,8.42,22.82z"/>
	<path class="st10" d="M38.9,3.64c0-0.15-0.01-0.3-0.01-0.46c0.55,0.32,1.07,0.69,1.65,0.94c1.17,0.52,1.92,1.36,2.21,2.61
		c0.11,0.36-0.18,0.39-0.4,0.48c-0.18,0.03-0.37,0.03-0.55,0c-0.3-0.07-0.57-0.18-0.77-0.42c0.27-1.55-1.18-1.78-1.95-2.54
		C38.92,4.08,38.79,3.89,38.9,3.64z"/>
	<path class="st11" d="M29.77,41.61c0.36,0.3,0.54-0.04,0.76-0.22c0.56-0.45,0.62-0.01,0.69,0.4c-0.96,0.97-2.21,1.48-3.37,2.12
		c-0.18-0.32-0.72-0.22-0.78-0.68c0.75-0.73,1.56-1.38,2.57-1.73C29.69,41.53,29.73,41.57,29.77,41.61z"/>
	<path class="st12" d="M27.12,13.94c-0.3-0.1-0.59-0.2-0.89-0.29c-0.17-1.82-0.33-3.64-0.5-5.46c0.18-0.01,0.32,0.06,0.35,0.23
		c0.05,0.33,0.02,0.7,0.54,0.54c0.59,1.05,0.36,2.25,0.6,3.37c-0.01,0.43-0.01,0.86,0.04,1.29C27.27,13.74,27.22,13.85,27.12,13.94z
		"/>
	<path class="st13" d="M5.55,37.94c-0.16,0.08-0.32,0.17-0.49,0.25c-0.94-1.22-1.81-2.48-1.89-4.1c-0.02-1.12-0.16-2.23-0.04-3.35
		c0.01-0.26-0.01-0.53,0.23-0.72c0.17,0.08,0.33,0.16,0.5,0.25c0.09,0.1,0.13,0.22,0.13,0.36c-0.04,1.33-0.14,2.66,0.06,3.98
		C4.33,35.81,5.31,36.71,5.55,37.94z"/>
	<path class="st14" d="M27.15,43.24c0.15,0.31,0.95-0.07,0.71,0.66c-0.75,0.43-1.44,1.04-2.4,0.94c0.12-0.99-0.89-0.44-1.19-0.86
		c0.25-0.39,0.68-0.43,1.06-0.55c0.28-0.06,0.56-0.14,0.83-0.23C26.49,43.13,26.83,42.94,27.15,43.24z"/>
	<path class="st15" d="M26.42,8.9c-0.18,0.07-0.48,0.63-0.47-0.11c0-0.23-0.01-0.45-0.21-0.61c-0.15-0.63-0.05-1.29-0.35-1.92
		c-0.2-0.42-0.03-0.97,0.57-1.17c0.51,0.23,1.15,0.29,1.29,1c-0.88,0.54-0.67,1.36-0.54,2.16C26.69,8.51,26.63,8.74,26.42,8.9z"/>
	<path class="st16" d="M10.11,42.96c0.02-0.8,0.76,0.01,0.94-0.42c1.07-0.03,2.03,0.18,2.66,1.16c-0.13,0.23-0.17,0.45,0,0.68
		C12.43,44.11,11.25,43.58,10.11,42.96z"/>
	<path class="st17" d="M27.14,6.04c-0.35-0.37-1-0.37-1.19-0.95c0.58-0.4,1.23-0.61,1.91-0.75c0.08,0.63,0.71,0.88,0.96,1.39
		C28.34,6.27,27.8,6.46,27.14,6.04z"/>
	<path class="st18" d="M42.26,6.98c0.2,0,0.38-0.06,0.49-0.25c0.65,1.03,0.95,2.22,1.47,3.31c-0.1,0.22-0.29,0.29-0.51,0.3
		c-0.33-0.16-0.5-0.47-0.69-0.75C42.69,8.74,41.97,8.01,42.26,6.98z"/>
	<path class="st6" d="M3.13,30.74c0.42,1.11,0.36,2.23,0.04,3.35C2.75,32.98,2.41,31.86,3.13,30.74z"/>
	<path class="st19" d="M19.94,45.67c0.57,0,1.13,0,1.7,0.01C21.06,46.29,20.5,46.29,19.94,45.67z"/>
	<path class="st20" d="M23.29,21.64c2.26,0.66,4.21,1.87,6.01,3.35c0.8,0.19,1.14,0.82,1.36,1.52c0.56,1.75,0.65,3.51-0.04,5.25
		c-0.61,1.55-1.29,3.07-2.47,4.31c-0.69,0.66-1.36,1.36-2.22,1.82c-0.68,0.28-1.37,0.56-2.06,0.82c-2.95,0.41-5.89,0.59-8.8-0.24
		c-0.93-0.38-1.88-0.72-2.74-1.26c-0.98-0.7-1.73-1.63-2.43-2.59c-1.17-1.6-1.07-5.16,0.18-6.72c0.47-0.59,0.93-1.18,1.4-1.78
		c0.57-0.79,1.32-1.4,1.96-2.12c2.11-2.07,4.67-2.97,7.6-2.94C21.78,21.19,22.61,21.11,23.29,21.64z"/>
	<path class="st21" d="M30.27,24.03c0.58-0.4,1.2-0.61,1.91-0.49c0.47,0.25,0.79,0.63,1.03,1.11c2.47,4.94,2.02,10.08-1.73,14.43
		c-0.26,0.31-0.55,0.58-0.97,0.64c-1.03-0.51-0.89-1.5-0.97-2.4c0.05-0.26,0.17-0.49,0.33-0.69c0.37-0.41,0.69-0.87,1.08-1.27
		c3.04-3.15,2.03-7.13-0.03-9.87C30.57,25.04,30.14,24.66,30.27,24.03z"/>
	<path class="st22" d="M30.48,39.61c4.37-4.17,5.38-10.4,1.7-16.07c0.44-0.14,0.85-0.09,1.19,0.26c0.53,1.62,1.39,3.09,1.79,4.78
		c0.94,3.97,0.08,7.39-2.67,10.36c-0.87,0.93-1.81,1.79-2.72,2.68c0-0.04,0-0.08,0.01-0.12c-0.35-0.09-0.43-0.35-0.42-0.66
		C29.52,40.22,29.94,39.86,30.48,39.61z"/>
	<path class="st23" d="M33.64,17.53c-1.38-0.94-2.76-1.88-4.14-2.82c-0.24-0.46,0.14-0.78,0.27-1.15c0.22-0.42,0.28-0.94,0.77-1.19
		c1.33,0.14,2.59-0.17,3.82-0.65c0.28,0.19,0.4,0.48,0.48,0.8c0,1.01,0.35,1.97,0.44,2.97C34.96,16.36,34.64,17.23,33.64,17.53z"/>
	<path class="st24" d="M27.87,36.02c1.56-2.14,2.95-4.33,2.87-7.14c-0.04-1.48-0.33-2.83-1.45-3.89c0.25-0.17,0.49-0.33,0.74-0.5
		c1.22,0.82,1.76,2.01,1.98,3.43c0.45,3.04-0.22,5.75-2.25,8.1c-0.33,0.28-0.67,0.53-1.11,0.6C28.26,36.61,28.02,36.37,27.87,36.02z
		"/>
	<path class="st25" d="M29.54,36.02c0.16-0.32,0.27-0.68,0.49-0.95c2.07-2.46,1.94-5.28,1.45-8.2c-0.17-1.02-0.91-1.63-1.46-2.38
		c-0.02-0.21,0.02-0.39,0.24-0.47c0.81,1.35,1.9,2.5,2.42,4.06c0.86,2.62,0.64,4.99-1.23,7.09c-0.47,0.53-0.74,1.24-1.43,1.57
		C29.47,36.77,29.55,36.37,29.54,36.02z"/>
	<path class="st26" d="M31,22.61c-1.11,0.79-2.18,1.13-3.35,0.02c-0.57-0.54-1.3-0.96-2.1-1.06c-1.04-0.13-1.27-0.67-1.06-1.58
		c0.08-0.34-0.08-0.72,0.23-1.01c1.47,0.65,3.03,1.05,4.43,1.88C29.92,21.3,30.62,21.77,31,22.61z"/>
	<path class="st27" d="M31,22.61c-1.75-1.52-3.71-2.63-6.03-3.06c-0.35-0.06-0.18-0.38-0.25-0.58c0.05-0.48-0.01-0.99,0.79-0.81
		c2.76,0.63,5.03,2.01,6.78,4.28C31.86,22.71,31.41,22.51,31,22.61z"/>
	<path class="st28" d="M38.93,19.5c-0.83,0.5-1.85-0.1-2.67,0.46c-0.65-0.64-1.29-1.27-1.94-1.91c0.24-1.1,1.04-1.75,1.93-2.31
		c0.68,0.17,0.76,0.84,1.05,1.32c0.48,0.79,0.67,1.77,1.55,2.29C38.87,19.4,38.9,19.45,38.93,19.5z"/>
	<path class="st29" d="M36.34,15.83c-0.67,0.74-1.35,1.48-2.02,2.22c-0.23-0.17-0.45-0.34-0.68-0.51c0.48-0.65,0.97-1.3,1.45-1.95
		c0.22-0.34,0.29-0.78,0.6-1.07c0.25-0.26,0.48-0.54,0.67-0.85c0.24-0.34,0.56-0.6,0.83-0.92c0.06-0.08,0.13-0.16,0.2-0.24
		c0.3-0.36,0.5-0.84,1.08-0.83c0.14,0.36,0.62,0.25,0.79,0.56c-0.04,0.74-0.72,1.02-1.09,1.54c-0.13,0.16-0.24,0.34-0.36,0.51
		c-0.25,0.33-0.57,0.6-0.8,0.94C36.83,15.47,36.64,15.72,36.34,15.83z"/>
	<path class="st30" d="M30.01,16.57c0.18,0.24,0.71-0.05,0.7,0.43c-0.01,0.31-0.38,0.37-0.53,0.56c-1.11,1.35-2.15,0.13-3.21-0.06
		c-0.35-0.06-0.25-0.36-0.07-0.54c0.31-0.31,0.64-0.58,0.96-0.87C28.62,16.08,29.34,16.24,30.01,16.57z"/>
	<path class="st31" d="M27.38,15.88c-0.77,0.96-1.76,1.23-2.92,0.92c-0.34-0.09-1,0.07-0.75-0.7c0.62-0.25,0.71-1.07,1.37-1.28
		C25.95,14.96,26.78,15.16,27.38,15.88z"/>
	<path class="st26" d="M35.31,22.11c-0.8,0.82-1.45,1-1.98-0.3c-0.19-0.47-0.67-0.83-1.08-1.31c0.52-0.21,0.95-0.38,1.38-0.56
		C34.26,20.61,35.14,21.09,35.31,22.11z"/>
	<path class="st32" d="M30.03,13.76c-0.06,0.38-0.55,0.53-0.53,0.96c-0.22-0.1-0.44-0.19-0.67-0.29c-0.34-0.39-0.15-0.81-0.08-1.23
		c0.31-1.13,0.3-2.39,1.34-3.21c0.39-0.05,0.57,0.17,0.64,0.52c0.05,0.44-0.15,0.84-0.17,1.27C30.46,12.46,29.83,13,30.03,13.76z"/>
	<path class="st33" d="M29.05,13.18c-0.07,0.42-0.15,0.83-0.22,1.25c-0.57-0.16-1.13-0.33-1.7-0.49c-0.01-0.07-0.01-0.15-0.01-0.22
		c0.1-0.69-0.09-1.4,0.14-2.09c0.53-0.38,0.94,0.1,1.4,0.2C29.29,12.14,28.82,12.76,29.05,13.18z"/>
	<path class="st26" d="M33.15,19.47c-1.49,1.22-2.41-0.02-3.52-0.81c0.4-0.31,0.76-0.58,1.13-0.86
		C31.66,18.2,32.41,18.83,33.15,19.47z"/>
	<path class="st34" d="M23.29,21.64c-0.79-0.09-1.59-0.17-2.38-0.26c-0.3-0.18-0.48-0.41-0.27-0.77c0.61-0.41,1.3-0.23,1.96-0.23
		c0.39,0,0.83,0.12,0.86-0.5c0.03-0.36,0.02-0.74,0.2-1.07c0.08-0.11,0.19-0.16,0.32-0.14c0.01,0.67,0.05,1.34,0.02,2.01
		C23.98,21.14,23.83,21.56,23.29,21.64z"/>
	<path class="st27" d="M33.15,19.47c-1-0.27-1.74-0.91-2.39-1.67c0.42-0.38,0.81-0.58,1.32-0.08c0.39,0.39,0.86,0.7,1.31,1.02
		C34.14,19.26,33.37,19.27,33.15,19.47z"/>
	<path class="st35" d="M35.31,22.11c-0.46-0.8-1.44-1.19-1.68-2.17c1.27-0.87,1.44,0.59,2.05,1.02
		C36.39,21.48,35.68,21.8,35.31,22.11z"/>
	<path class="st36" d="M23.98,18.68c-0.06,0.02-0.12,0.05-0.18,0.07c-0.99,0.13-1.94-0.24-2.92-0.26c-0.41-0.14-0.84-0.11-1.26-0.16
		c-0.35-0.04-0.82,0.03-0.86-0.53c1.44-0.01,2.87-0.03,4.31-0.04c0.15,0.03,0.3,0.06,0.44,0.09C23.86,18.01,24.1,18.25,23.98,18.68z
		"/>
	<path class="st37" d="M27.38,15.88c-0.83-0.18-1.56-0.6-2.31-0.95c-0.16,0.09-0.31,0.06-0.43-0.07c1.13-0.64,2.15,0.01,3.12,0.41
		C28.18,15.45,27.45,15.62,27.38,15.88z"/>
	<path class="st38" d="M30.01,16.57c-0.76,0.04-1.5,0.01-2.14-0.48C28.72,15.64,29.44,15.77,30.01,16.57z"/>
	<path class="st39" d="M36.07,22.21c-0.12,0.69-0.58,1.01-0.98,1.38c-0.15,0.14-0.36,0.22-0.52,0.01c-0.21-0.26,0.07-0.31,0.21-0.42
		C35.22,22.87,35.64,22.54,36.07,22.21z"/>
	<path class="st40" d="M24.63,14.86c0.14,0.02,0.29,0.05,0.43,0.07c-0.41,0.27-0.64,0.65-0.82,1.1c-0.09,0.23-0.29,0.57-0.54,0.07
		C23.98,15.66,24.21,15.19,24.63,14.86z"/>
	<path class="st41" d="M38.9,3.64c0.1,0.15,0.21,0.31,0.31,0.46c-0.71,0.41-0.66,0.84-0.27,1.53c0.61,1.08,1.7,1.95,1.63,3.36
		c-0.65,1.12-1.2,0.27-1.77-0.09c-0.15-0.21-0.25-0.43-0.17-0.7c-0.17-0.63-0.59-1.12-0.95-1.65c-0.18-0.24-0.48-0.41-0.59-0.7
		c-0.25-0.66-0.68-0.46-1.11-0.28c-0.52-0.42-1.27,0.16-1.91-0.56C35.79,4.69,37.07,3.33,38.9,3.64z"/>
	<path class="st42" d="M32.45,6.5c0.57-1.86,1.27-0.05,1.9-0.06c0.72,0.16,1.26,0.62,1.83,1.03c0.27,0.2,0.55,0.4,0.63,0.76
		c-0.22,0.52-0.56,0.26-0.87,0.13c-0.4-0.16-0.69-0.52-1.16-0.66c-0.09-0.06-0.12,0.2-0.05,0.05c0.02-0.05,0.06-0.05,0.12-0.02
		c0.69,0.31,0.73,1.09,1.17,1.58c0.44,0.71,0.82,1.46,1.25,2.19c0.22,0.37,0.47,0.76,0.2,1.22l-0.01,0.02
		c-0.51,0.3-0.69-0.15-0.93-0.43c-0.27-0.33-0.44-0.73-0.68-1.09c-0.55-0.83-1.01-1.72-1.65-2.49c-0.45-0.71-0.6-1.65-1.52-2.01
		C32.6,6.67,32.52,6.59,32.45,6.5z"/>
	<path class="st43" d="M32.45,6.5c0.06,0,0.12,0,0.18-0.01c0.95,0.67,1.14,1.81,1.71,2.72c0.34,0.77,0.77,1.5,1.1,2.27
		c0.04,0.11,0.06,0.23,0.07,0.34c-0.02,0.4-0.19,0.68-0.59,0.8c-0.12,0-0.23-0.04-0.31-0.13c-0.1-0.23-0.2-0.46-0.3-0.69
		c-1.05-1.13-1.52-2.6-2.32-3.88c-0.08-0.15-0.14-0.31-0.18-0.48c-0.06-0.34,0.13-0.53,0.38-0.69C32.27,6.67,32.36,6.58,32.45,6.5z"
		/>
	<path class="st44" d="M27.14,6.04c0.56-0.1,1.12-0.2,1.68-0.3c1.05-0.07,2.11-0.14,3.17-0.21c0.05,0.56-0.41,0.81-0.54,1.21
		c-0.05,0.18-0.15,0.29-0.35,0.3c-0.88-0.81-1.8-0.12-2.7-0.08C28.3,7,28.2,7.01,28.09,7.02c-0.16,0.02-0.32,0.02-0.48,0.03
		c-0.42-0.02-0.61,0.2-0.68,0.6c-0.05,0.23-0.06,0.57-0.46,0.52c-0.03-0.19-0.03-0.4-0.11-0.57C25.96,6.73,26.2,6.21,27.14,6.04z"/>
	<path class="st45" d="M29.44,4.71c2.12-0.47,4.14-1.41,6.39-1.28C33.83,4.48,31.76,5.16,29.44,4.71z"/>
	<path class="st46" d="M36.73,8.2c-0.23-0.19-0.46-0.37-0.69-0.56c0.13-0.55,0.54-0.47,0.94-0.41c0.56,0.3,1.01,0.81,1.65,0.97
		c0.12,0.14,0.31,0.24,0.25,0.47C38.76,9,38.5,9.15,38.18,9.24c-0.22,0.02-0.42-0.05-0.61-0.14C37.18,8.9,36.9,8.6,36.73,8.2z"/>
	<path class="st47" d="M36.98,7.23c-0.31,0.14-0.63,0.28-0.94,0.41c-0.56-0.4-1.12-0.8-1.68-1.2C35.38,6.2,36.27,6.43,36.98,7.23z"
		/>
	<path class="st48" d="M35.97,5.58c0.42-0.85,0.84-0.81,1.26,0c0.16,0.32,0.3,0.65,0.45,0.98C37.11,6.23,36.54,5.91,35.97,5.58z"/>
	<path class="st49" d="M31.21,6.98c0.08-0.08,0.16-0.16,0.25-0.23c0.24,0,0.49,0,0.73,0c-0.07,0.24-0.14,0.48-0.22,0.72
		c-0.04,0.38-0.19,0.68-0.55,0.86c-0.24,0.08-0.47,0.07-0.69-0.09C30.55,7.69,30.84,7.32,31.21,6.98z"/>
	<path class="st50" d="M40.35,11.55c0.73,1.97,1.44,3.94,2.2,5.89c0.68,1.76,0.7,1.75-1.18,1.85c-0.06-0.02-0.11-0.04-0.17-0.06
		c-1-1.06-1.65-2.32-2.03-3.72c-0.09-1.1-0.24-2.2,0.1-3.29C39.31,11.49,39.63,11.19,40.35,11.55z"/>
	<path class="st51" d="M43.26,9.62c0.3,0.15,0.44,0.4,0.45,0.73c-0.47,1.98-0.12,4.01-0.51,6.07c-0.64-1.7-1.28-3.4-1.92-5.1
		c-0.29-0.2-0.45-0.45-0.3-0.81C41.59,9.84,42.21,9.17,43.26,9.62z"/>
	<path class="st52" d="M41.05,10.59c0.07,0.24,0.15,0.48,0.22,0.72c-0.31,0.08-0.62,0.16-0.93,0.24c-0.54-0.07-0.85,0.18-0.98,0.69
		c-0.06,0.14-0.14,0.14-0.22,0.02c-0.75,0.14-0.75,0.14-0.75-0.49c-0.01-0.04-0.04-0.1-0.02-0.11c0.8-0.9,0.61-1.72-0.19-2.5
		c0.23-0.16,0.47-0.33,0.7-0.49c0.33,0.2,0.66,0.39,0.98,0.59c0.44,0.27,0.42-0.12,0.5-0.35c0.24-0.73-0.14-1.67,0.77-2.16
		c0.22,0.08,0.43,0.15,0.65,0.23c0.39,0.82-0.15,1.51-0.31,2.26C41.37,9.7,41.14,10.12,41.05,10.59z"/>
	<path class="st53" d="M36.76,15.08c0.27-0.38,0.58-0.72,1-0.95c0.75,0.07,0.88,0.75,1.14,1.24c0.35,0.66,0.78,1.28,0.98,2.02
		c0.04,0.69,0.21,1.37-0.01,2.06c-0.31,0.02-0.63,0.03-0.94,0.05c0,0-0.05-0.05-0.05-0.05C37.96,18.09,37.43,16.56,36.76,15.08z"/>
	<path class="st54" d="M39.87,19.45c-0.45-0.67-0.22-1.42-0.24-2.15c0.61,0.01,0.59,0.6,0.86,0.92c0.27,0.32,0.37,0.77,0.78,0.97
		c0.03,0.03,0.07,0.06,0.1,0.1C40.89,19.57,40.37,19.38,39.87,19.45z"/>
	<path class="st55" d="M18.76,17.8c0.64,0.54,1.52-0.09,2.16,0.45c-0.68,0.31-0.38,1.1-0.75,1.56c-0.21,0.14-0.44,0.18-0.68,0.2
		c-1.98,0.13-3.72,1.08-5.59,1.58c-1.19,0.16-1.87,1.38-3.08,1.52c-0.33-0.52-0.6-1.07-0.69-1.69c0.39-0.33,0.78-0.66,1.17-0.99
		c1.28-0.69,2.48-1.51,3.88-2.01C16.36,18.01,17.55,17.88,18.76,17.8z"/>
	<path class="st56" d="M25.45,43.67c-0.39,0.1-0.79,0.21-1.18,0.31c-2.96,0.75-5.92,0.9-8.88-0.05c-1.1-0.47-2.27-0.85-3-1.91
		c-0.1-0.48,0.2-0.75,0.52-1.01c0.15-0.06,0.3-0.04,0.46,0c0.31,0.08,0.69,0.2,0.78-0.22c0.11-0.48-0.34-0.53-0.68-0.62
		c-0.31-0.03-0.62-0.05-0.89-0.22c-0.12-0.1-0.14-0.22-0.07-0.36c0.65-0.49,1.38-0.54,2.14-0.38c3.05,0.67,6.12,0.7,9.21,0.34
		c0.32-0.04,0.63-0.03,0.94,0.1c0.55,0.37,0.54,0.86,0.28,1.39c-1.23,0.85-2.63,0.51-3.97,0.57c-1.27-0.05-2.52-0.48-3.8-0.22
		c0.86,0.67,1.9,0.68,2.89,0.74c1.29,0.08,2.6,0.08,3.89-0.15c0.12,0.01,0.25,0.03,0.36,0.07C25.12,42.4,25.6,42.84,25.45,43.67z"/>
	<path class="st57" d="M12.52,42.01c0.96,0.64,1.92,1.29,2.87,1.93c-0.56-0.08-1.12-0.16-1.69-0.24c-0.89-0.39-1.77-0.77-2.66-1.16
		c-0.15-0.17-0.31-0.35-0.46-0.52c-0.49-0.46-0.4-0.94-0.07-1.43C11.53,40.57,12.01,41.31,12.52,42.01z"/>
	<path class="st58" d="M10.59,40.58c0,0.48-0.21,0.96,0,1.44c-0.55,0.04-0.74-0.51-1.15-0.7c-3.46-2.63-5.76-5.88-5.61-10.45
		c-0.05-0.12-0.05-0.23,0-0.35c0.01-0.09,0.03-0.17,0.04-0.26c0.68-1.72,1.18-3.52,2.37-5c0.3-0.37,0.56-0.76,0.99-1.01
		c0.26,0.27,0.18,0.58,0.14,0.9C6.9,28.7,6.8,32.22,7.81,35.71c0.4,1.38,1.04,2.58,2.06,3.58C10.17,39.69,10.69,39.96,10.59,40.58z"
		/>
	<path class="st59" d="M9.85,39.64c-1.97-1.39-2.37-3.6-2.83-5.71c-0.58-2.62-0.18-5.31-0.26-7.96c-0.02-0.6,0.56-1.07,0.46-1.7
		c0.16-0.16,0.31-0.32,0.47-0.48c1.23,0.03,1.38,0.21,1.62,2.02c-0.44,1.85-0.23,3.77-0.53,5.64c-0.13,0.8,0.2,1.55,0.35,2.32
		c-0.17,1.15,0.59,1.89,1.22,2.69c0.41,0.52,1.02,0.86,1.28,1.51C11.22,38.72,10.82,39.47,9.85,39.64z"/>
	<path class="st60" d="M9.1,25.69c-0.27-0.78-0.24-1.79-1.41-1.92c0.24-0.32,0.49-0.64,0.73-0.96c0.57-0.47,1.14-0.93,1.71-1.39
		c0.56,0.43,0.76,1,0.7,1.69c0.13,0.14,0.14,0.3,0.09,0.47C10.31,24.28,9.85,25.11,9.1,25.69z"/>
	<path class="st61" d="M3.86,30.74c0.44,0.51,0.23,1.14,0.29,1.71c0.28,2.92,1.74,5.21,3.72,7.25c0.52,0.54,1.04,1.08,1.56,1.62
		c-1.65-0.72-2.63-2.21-3.89-3.38C4.78,37,4.19,35.96,3.82,34.81C3.72,33.45,3.65,32.1,3.86,30.74z"/>
	<path class="st62" d="M41.13,6.75c-0.26,0.72-0.51,1.44-0.77,2.16c-0.18-1.36-1.2-2.28-1.83-3.41c-0.64-1.16-0.68-1.15,0.68-1.4
		c0.36,0.23,0.68,0.53,1.07,0.66C41.34,5.12,41.53,5.8,41.13,6.75z"/>
	<path class="st63" d="M41.05,10.59c-0.51-0.71,0.18-1.25,0.28-1.88c0.09-0.58,0.29-1.15,0.45-1.73c0.16,0,0.32,0,0.48,0
		c0.33,0.88,0.67,1.75,1,2.63C42.37,9.61,41.74,10.16,41.05,10.59z"/>
	<path class="st64" d="M29.54,40.79c0.08,0.23,0.16,0.47,0.24,0.7c-0.84,0.64-1.68,1.29-2.64,1.76c-0.32,0.08-0.65,0.16-0.97,0.24
		c-0.12-0.65,0.41-0.88,0.79-1.19c0.4-0.32,0.86-0.57,1.24-0.93C28.62,41.1,28.88,40.49,29.54,40.79z"/>
	<path class="st65" d="M26.46,8.17c0.4-0.46-0.16-1.77,1.21-1.39c-0.48,1-0.51,2.03-0.3,3.1c0.1,0.54,0.19,1.09-0.07,1.62
		c-0.19,0.3,0.25,0.83-0.35,0.99c-0.18-1.2-0.35-2.39-0.53-3.59C26.43,8.66,26.44,8.41,26.46,8.17z"/>
	<path class="st66" d="M26.95,12.49c0.32-0.29,0.15-0.7,0.26-1.04c0.09-0.02,0.14,0.01,0.16,0.1c-0.07,0.73,0.25,1.5-0.25,2.17
		C26.87,13.34,26.97,12.9,26.95,12.49z"/>
	<path class="st6" d="M3.86,30.74c-0.01,1.36-0.03,2.71-0.04,4.07c-0.33-1.43-0.33-2.86,0-4.29C3.83,30.6,3.85,30.67,3.86,30.74z"/>
	<path class="st67" d="M28.35,41.55c-0.58,0.81-1.73,0.97-2.18,1.93c-0.24,0.06-0.48,0.13-0.73,0.19c-0.24-0.54-0.51-1.05-0.97-1.45
		c0.11-0.89,0.99-0.71,1.48-1.09c-0.31-0.12-0.71,0.22-0.98-0.15c-0.05-0.38,0.15-0.81-0.24-1.12c-0.07-0.11-0.07-0.21,0-0.32
		c0.43-0.33,0.98-0.39,1.45-0.63c0.34-0.15,0.69-0.28,1.07-0.23c0.77,0.2,0.84,0.85,0.91,1.47C28.23,40.62,28.38,41.07,28.35,41.55z
		"/>
	<path class="st68" d="M19.12,37.58c-1.94-0.07-3.81-0.39-5.52-1.34c-2.33-1.3-3.6-3.97-2.92-6.47c0.3-1.12,1.32-1.87,2.01-2.79
		c2.57-3.41,5.88-5.12,10.19-4.13c2.41,0.55,4.52,1.79,6.11,3.71c0.81,0.99,0.6,2.31,0.5,3.47c-0.31,3.55-3.18,6.68-6.69,7.31
		C21.6,37.56,20.35,37.51,19.12,37.58z"/>
	<path class="st69" d="M9.1,25.69c0.36-0.9,0.96-1.61,1.71-2.2c0.26,0.18,0.32,0.46,0.4,0.73c0.09,0.56-0.28,0.98-0.47,1.45
		c-0.06,0.15-0.05-0.04-0.05,0.1c0,0.18,0.13,0,0.21,0.02c0.36-0.04,0.64,0.07,0.84,0.37c-0.27,0.39-0.49,0.84-0.83,1.16
		c-1.23,1.18-1.65,2.57-1.54,4.29c0.12,1.93,0.96,3.39,2.3,4.66c0.26,0.24,0.51,0.49,0.77,0.73c-0.08,0.34,0.03,0.82-0.56,0.82
		c-1.53-0.82-2.42-2.15-2.99-3.74C8.03,31.27,8.59,28.48,9.1,25.69z"/>
	<path class="st70" d="M14.92,38.17c2.58,0.72,5.21,0.54,7.83,0.45c0.42-0.01,0.84-0.16,1.26-0.25c0.39,0.2,0.47,0.5,0.27,0.88
		c-0.4,0.48-1.01,0.53-1.53,0.55c-2.71,0.1-5.43,0.21-8.09-0.45c-0.19-0.05-0.38-0.11-0.52-0.27
		C14.01,38.46,14.29,38.16,14.92,38.17z"/>
	<path class="st71" d="M20.67,20.67c0.08,0.24,0.15,0.47,0.23,0.71c-2.86-0.03-5.34,0.91-7.41,2.9c-0.43,0.08-0.58-0.18-0.64-0.54
		c0.35-1.14,1.37-1.62,2.26-2.17c1.41-0.88,2.98-1.3,4.66-1.22C20.1,20.36,20.43,20.39,20.67,20.67z"/>
	<path class="st72" d="M14.92,38.17c-0.32,0.17-0.59,0.4-0.73,0.75c-0.59,0.4-1.02,0-1.48-0.28c-0.26-0.29-0.73-0.42-0.71-0.93
		c0.28-0.15,0.01-0.64,0.44-0.7C13.26,37.4,14.09,37.79,14.92,38.17z"/>
	<path class="st73" d="M27.87,36.02c0.37-0.03,0.47,0.34,0.73,0.49c-0.24,1.16-1.05,1.64-2.14,1.78c-0.27-0.14-0.47-0.34-0.57-0.63
		C26.54,37.12,27.21,36.57,27.87,36.02z"/>
	<path class="st74" d="M12.98,23.77c0.09,0.25,0.27,0.41,0.51,0.52c-0.58,0.63-1.17,1.26-1.75,1.89c-0.3-0.07-0.6-0.15-0.91-0.22
		c0.14-1.13,1.13-1.56,1.83-2.23C12.78,23.68,12.88,23.7,12.98,23.77z"/>
	<path class="st75" d="M25.88,37.66c0.31,0.05,0.53,0.17,0.54,0.52c0.1,0.38-0.22,0.47-0.43,0.64c-0.51,0.22-1,0.54-1.6,0.42
		c-0.04-0.04-0.09-0.07-0.13-0.11c-0.09-0.25-0.17-0.51-0.26-0.76C24.63,38.14,25.26,37.9,25.88,37.66z"/>
	<path class="st76" d="M28.35,41.55c-0.44-0.36-0.49-0.85-0.49-1.37c-0.01-0.55-0.01-1.12-0.72-1.28c0.7-0.85,1.63-1.32,2.64-1.68
		c0.07,0.84,0.12,1.69,0.7,2.39c-0.31,0.39-0.63,0.79-0.94,1.18C29,40.82,28.79,41.36,28.35,41.55z"/>
	<path class="st77" d="M29.78,37.22c-0.76,0.75-1.69,1.23-2.64,1.68c-0.32,0.08-0.64,0.16-0.95,0.24c-0.18-0.11-0.25-0.28-0.24-0.48
		c0.16-0.16,0.32-0.32,0.48-0.47c0.93-0.29,1.61-0.9,2.17-1.67c0.33-0.14,0.53-0.52,0.95-0.49c0.16,0.24,0.32,0.48,0.48,0.72
		C29.94,36.9,29.86,37.06,29.78,37.22z"/>
	<path class="st78" d="M32.16,7.75c0.71,1.35,1.43,2.7,2.14,4.05c-1.11,1.05-2.41,1.07-3.79,0.71c-0.21-0.2-0.11-0.44-0.11-0.67
		c0.11-0.52,0.36-1,0.39-1.54C31.18,9.41,31.24,8.35,32.16,7.75z"/>
	<path class="st79" d="M34.6,12.49c0.06,0.02,0.12,0.03,0.18,0.05c0.59,0.6,1.22,1.17,1.01,2.15c-0.14,0.37-0.33,0.71-0.7,0.9
		C34.77,14.57,34.46,13.57,34.6,12.49z"/>
	<path class="st80" d="M30.57,11.79c-0.02,0.24-0.04,0.47-0.06,0.71c-0.16,0.42-0.32,0.83-0.48,1.25c-0.42-0.73,0.11-1.32,0.26-1.97
		C30.39,11.71,30.48,11.71,30.57,11.79z"/>
	<path class="st81" d="M36.76,15.08c1.13,1.25,1.61,2.81,2.12,4.36c-0.57,0.23-0.76-0.15-0.97-0.57c-0.51-1.02-1.05-2.03-1.57-3.05
		C36.48,15.58,36.62,15.33,36.76,15.08z"/>
	<path class="st82" d="M38.18,9.16c1.52,0.97,1.52,0.97,0.22,2.61c-0.31,0.32-0.62,0.64-0.93,0.96c-0.34-1.23-1.23-2.17-1.69-3.34
		c0.53-0.6,1.27-0.31,1.91-0.46C37.85,9,38.01,9.08,38.18,9.16z"/>
	<path class="st83" d="M41.27,19.19c-0.99-0.25-0.94-1.4-1.64-1.89c-0.51-1.13-1.11-2.19-1.87-3.17c0.07-0.17,0.14-0.35,0.21-0.52
		c1.1,0.26,1.16,1.23,1.39,2.07C39.99,16.86,40.63,18.02,41.27,19.19z"/>
	<path class="st84" d="M35.31,11.78c-0.01-0.08-0.01-0.15-0.01-0.23c-0.23-0.86,0.33-0.54,0.72-0.48c0.59,0.47,0.58,1.45,1.44,1.69
		c-0.23,0.4-0.53,0.73-0.93,0.96C35.48,13.47,35.64,12.48,35.31,11.78z"/>
	<path class="st85" d="M39.35,15.69c-0.52-0.65-0.62-1.59-1.39-2.07c0.39-0.45,0.78-0.9,1.18-1.35c0.07,0,0.15-0.01,0.22-0.02
		C39.32,13.39,39.61,14.54,39.35,15.69z"/>
	<path class="st86" d="M35.31,11.78c0.57,0.54,0.57,1.44,1.22,1.93c-0.1,0.43-0.36,0.75-0.74,0.97c-0.33-0.72-0.67-1.43-1.01-2.15
		C35.11,12.39,35.29,12.15,35.31,11.78z"/>
	<path class="st87" d="M28.06,6.8c0.09,0,0.17-0.01,0.26-0.01c0.64,0.66,0.21,1.39,0.11,2.1C28.81,8,29.5,8.06,30.38,9.05
		c0.15,0.43-0.04,0.77-0.32,1.07c-0.48,0.97-0.83,1.99-1.01,3.06c-0.41-0.29-0.06-0.86-0.43-1.16C27.62,10.36,27.48,8.62,28.06,6.8z
		"/>
	<path class="st88" d="M30.06,10.12c0.07-0.32,0.15-0.65,0.22-0.97c-0.12-0.47,0.03-0.8,0.51-0.95c0.22,0,0.44-0.01,0.66-0.01
		c0.11,0.73-0.34,1.31-0.5,1.98c-0.11,0.18-0.07,0.49-0.41,0.47C30.5,10.34,30.4,10.12,30.06,10.12z"/>
	<path class="st89" d="M30.53,10.63c0.09-0.17,0.18-0.34,0.27-0.51c0.23-0.02,0.33,0.06,0.23,0.29c-0.06,0.49-0.19,0.96-0.45,1.38
		c-0.1,0-0.19-0.01-0.29-0.01C30.37,11.4,30.45,11.02,30.53,10.63z"/>
	<path class="st90" d="M28.06,6.8c0.01,1.76,0.13,3.5,0.56,5.22c-0.52,0.13-0.85-0.26-1.25-0.46c-0.06-0.02-0.11-0.05-0.16-0.1
		c-0.12-1.14-0.22-2.28-0.37-3.41c-0.09-0.69,0.09-1.14,0.83-1.26C27.8,6.78,27.93,6.79,28.06,6.8z"/>
	<path class="st60" d="M20.18,19.7c0.07-0.57-0.74-1.6,0.74-1.44c0.99-0.02,1.98,0,2.88,0.5c-0.01,0.39-0.02,0.78-0.03,1.18
		C22.55,20.17,21.34,20.28,20.18,19.7z"/>
	<path class="st91" d="M20.18,19.7c1.2,0.07,2.42-0.16,3.59,0.24c0.03,0.62,0.06,1.08-0.87,0.83c-0.7-0.19-1.48-0.07-2.22-0.09
		c-0.33-0.01-0.65-0.01-0.98-0.02c-0.23-0.28-0.42-0.57-0.22-0.94C19.71,19.71,19.94,19.7,20.18,19.7z"/>
	<path class="st92" d="M37.69,8.93c-0.59,0.34-1.22,0.54-1.91,0.46c-0.36-0.59-0.72-1.17-1.09-1.78c0.85-0.16,1.23,0.92,2.04,0.6
		C37.05,8.44,37.37,8.68,37.69,8.93z"/>
	<path class="st93" d="M36.02,11.07c-0.2,0.22-0.74-0.07-0.72,0.48c-0.4-0.73-0.79-1.45-1.19-2.18c0.14-0.23-0.05-0.58,0.27-0.74
		C35.16,9.29,35.53,10.22,36.02,11.07z"/>
	<path class="st94" d="M34.38,8.63c-0.11,0.24,0.07,0.59-0.27,0.74c-0.49-0.96-0.99-1.92-1.48-2.88C33.9,6.65,33.99,7.76,34.38,8.63
		z"/>
	<path class="st95" d="M31.03,10.41c-0.08-0.1-0.15-0.19-0.23-0.29c0.22-0.64,0.43-1.29,0.65-1.93c0.18-0.24,0.35-0.48,0.53-0.72
		c0.06,0.09,0.13,0.19,0.19,0.28C31.59,8.55,31.51,9.57,31.03,10.41z"/>
	<path class="st96" d="M30.79,8.2c-0.17,0.32-0.34,0.63-0.51,0.95c-0.62-0.45-1.23-1.14-1.96,0.12c0-0.93,0-1.71,0-2.48
		c0.7-0.42,1.52-0.26,2.26-0.5c0.67-0.22,0.32,0.56,0.64,0.69C31.07,7.38,30.93,7.79,30.79,8.2z"/>
	<path class="st97" d="M19.47,19.71c0.15,0.3,0.27,0.6,0.22,0.94c-2.72-0.01-4.95,1.04-6.71,3.11c-0.08,0.01-0.16,0.02-0.23,0.02
		c-0.3,0.12-0.54,0.02-0.76-0.2c-0.11-0.67,0.5-0.91,0.81-1.33c0.26-0.34,0.76-0.43,0.9-0.89C15.61,20.78,17.42,19.82,19.47,19.71z"
		/>
	<path class="st98" d="M13.69,21.37c-0.15,1.04-1.28,1.33-1.68,2.18c-0.15,0.45-0.38,0.8-0.94,0.72c-0.31-0.18-0.24-0.49-0.26-0.77
		c0.01-0.13,0.01-0.25,0.02-0.38C11.72,22.42,12.56,21.65,13.69,21.37z"/>
	<path class="st99" d="M12.74,38.41c0.46,0.22,0.9,0.52,1.44,0.51c0.7,0.55,1.58,0.44,2.35,0.52c2.58,0.28,5.18,0.48,7.73-0.31
		c0,0,0,0.02,0,0.02c0.17,0.15,0.44,0.19,0.48,0.47c0,0.08,0,0.16,0,0.24c-1.93,0.32-3.89,0.22-5.83,0.24
		c-1.32,0.02-2.62-0.16-3.89-0.48c-0.88-0.22-1.7-0.17-2.52,0.19c0,0.48,0.42,0.81,0.48,1.27c-0.15,0.31-0.31,0.61-0.46,0.92
		c-0.64-0.48-1.28-0.95-1.93-1.43c-0.25-0.31-0.49-0.63-0.74-0.94c0.56-0.55,1.13-1.1,1.69-1.66
		C12.05,37.83,12.35,38.24,12.74,38.41z"/>
	<path class="st100" d="M24.98,40.98c0.49-0.11,0.98-0.2,1.56-0.1c-0.4,0.96-1.59,0.6-2.05,1.34c-0.09,0-0.17-0.01-0.26-0.01
		c-1.43,0.05-2.85,0.08-4.28,0.04c-0.5-0.01-1.03,0.01-1.47-0.31c0.21-0.6,0.73-0.46,1.17-0.47c0.42,0,0.85,0.16,1.23-0.14
		C22.25,41.29,23.64,41.38,24.98,40.98z"/>
	<path class="st101" d="M18.5,41.78c0.89,0.5,1.86,0.13,2.79,0.24c0.97,0.11,1.98-0.21,2.93,0.19c-2.34,0.53-4.67,0.38-6.96-0.27
		c-0.22-0.06-0.88-0.03-0.45-0.64C17.43,41.24,18.11,41.03,18.5,41.78z"/>
	<path class="st102" d="M18.5,41.78c-0.49-0.43-1.21-0.05-1.69-0.48c0-0.36,0.17-0.48,0.53-0.43c1.18,0.17,2.35,0.32,3.53,0.48
		C20.21,42.21,19.28,41.58,18.5,41.78z"/>
	<path class="st103" d="M12.98,41.09c-0.31-0.37-1.08-0.56-0.48-1.27c0.08,0.02,0.17,0.03,0.25,0.05c0.29,0.34,0.59,0.37,0.91,0.03
		c0.48,0.22,1.22,0.33,0.88,1.08C14.16,41.84,13.53,41.44,12.98,41.09z"/>
	<path class="st104" d="M13.66,39.9c0.13,0.36-0.05,0.55-0.38,0.56c-0.39,0.02-0.6-0.18-0.52-0.59
		C13.05,39.88,13.36,39.89,13.66,39.9z"/>
	<path class="st105" d="M12.74,38.41c-0.49,0.09-0.78-0.35-1.21-0.43c-1.18-0.87-2.07-1.96-2.69-3.29c-0.11-0.24-0.22-0.41,0.04-0.6
		c0.87,1.35,1.55,2.86,3.11,3.62C12.17,38.03,12.66,38,12.74,38.41z"/>
	<path class="st76" d="M24.74,39.62c-0.16-0.16-0.32-0.31-0.48-0.47c0.56-0.17,1.12-0.33,1.68-0.5c0.19,0.11,0.24,0.28,0.24,0.48
		C25.77,39.5,25.27,39.6,24.74,39.62z"/>
	<path class="st106" d="M11.08,24.26c0.31-0.24,0.63-0.48,0.94-0.72c0.24,0.08,0.49,0.16,0.73,0.25c-0.64,0.72-1.28,1.44-1.92,2.16
		c-0.15,0.23-0.28,0.48-0.73,0.59C10.45,25.72,10.76,24.99,11.08,24.26z"/>
</g>
</svg>
