<?xml version="1.0" encoding="utf-8"?>
<!-- Generator: Adobe Illustrator 23.0.2, SVG Export Plug-In . SVG Version: 6.00 Build 0)  -->
<svg version="1.1" id="Camada_1" xmlns="http://www.w3.org/2000/svg" xmlns:xlink="http://www.w3.org/1999/xlink" x="0px" y="0px"
	 viewBox="0 0 43.88 40.01" style="enable-background:new 0 0 43.88 40.01;" xml:space="preserve">
<style type="text/css">
	.st0{fill:#FEFEFE;}
	.st1{fill:#010000;}
	.st2{fill:#3C1F08;}
	.st3{fill:#C37919;}
	.st4{fill:#F6E9D1;}
	.st5{fill:#5F2C25;}
	.st6{fill:#CE801B;}
	.st7{fill:#C87C1B;}
	.st8{fill:#E5AB78;}
	.st9{fill:#5A2C1C;}
	.st10{fill:#E8AA74;}
	.st11{fill:#E4AC7A;}
	.st12{fill:#020100;}
	.st13{fill:#E6AC79;}
	.st14{fill:#3E1F08;}
	.st15{fill:#E4D6B9;}
	.st16{fill:#3C1E08;}
	.st17{fill:#5C2C24;}
	.st18{fill:#602C25;}
	.st19{fill:#5F2C24;}
	.st20{fill:#914131;}
	.st21{fill:#8C3F2E;}
	.st22{fill:#F0E4D1;}
</style>
<g>
	<path class="st0" d="M30.16,30.79c-1.24,0.01-2.48-0.12-3.69-0.4c-0.66-0.15-1,0.05-1.37,0.56c-1.71,2.41-3.44,4.81-5.21,7.17
		c-1.49,1.99-3.22,2.27-5.57,1.47c-1.8-0.61-3.72-0.87-5.6-1.2c-2.66-0.47-4.69-1.94-6.4-3.91c-2.98-3.44-3.02-3.51-0.46-7.27
		c3.94-5.77,7.37-11.84,10.96-17.83c0.94-1.57,1.91-3.13,3.15-4.51c0.8-0.88,1.79-1.3,2.96-1.36c0.48-0.02,0.96-0.07,1.44-0.09
		C21.4,3.38,22.19,3,23.04,2.27c4.01-3.43,8.63-2.94,10.95,1.29c0.58,1.06,1.26,1.59,2.25,2.22c5.89,3.77,9.55,9.71,6.6,17.19
		C40.83,28.08,34.87,31.22,30.16,30.79z"/>
	<path class="st1" d="M30.28,29.63c-1.43-0.02-2.83-0.17-4.18-0.53c-0.71-0.19-1.07-0.07-1.49,0.51c-1.83,2.57-3.68,5.12-5.57,7.65
		c-1.27,1.69-2.28,1.81-4.3,1.17c-1.62-0.51-3.34-0.77-5.03-1.02c-2.8-0.41-4.93-1.86-6.72-3.96c-2.26-2.65-2.26-2.44-0.33-5.37
		c2.19-3.33,4.5-6.59,6.48-10.05c2.04-3.56,4.06-7.12,6.3-10.56c0.46-0.7,0.96-1.37,1.56-1.97c0.51-0.51,1.1-0.76,1.81-0.8
		c1.16-0.06,2.31-0.2,3.46-0.22c0.46-0.01,0.6-0.27,0.81-0.55c1.35-1.84,3.29-2.62,5.47-2.75c2.05-0.12,4.37,1.83,4.77,3.97
		c0.14,0.75,0.47,1.11,1.17,1.21c0.98,0.15,1.78,0.64,2.52,1.27c1.22,1.04,2.34,2.18,3.33,3.44c2.76,3.52,2.98,7.33,1.35,11.36
		C39.62,27.61,35.49,29.49,30.28,29.63z"/>
	<path class="st2" d="M41.53,17.32c-0.36,6.42-3.08,9.22-7.83,10.8c-2.38,0.79-4.9,0.45-7.31-0.17c-1.14-0.29-1.88-0.27-2.62,0.82
		c-1.75,2.56-3.64,5.03-5.47,7.53c-0.89,1.22-1.64,1.39-3.05,1.04c-1.92-0.47-3.87-0.85-5.83-1.18c-2.58-0.43-4.39-1.99-5.95-3.91
		c-1.19-1.46-1.17-1.51-0.1-3.07c4.13-6.01,7.78-12.32,11.47-18.6c0.8-1.37,1.61-2.75,2.74-3.9c0.51-0.52,1.02-0.84,1.78-0.76
		c0.39,0.04,0.8-0.03,1.19-0.09c0.54-0.08,3.84-1.75,4.33-2.07c2.69-1.75,4.44-1.99,6.6,0.17c0.62,0.63,0.88,1.42,0.91,2.28
		c0.02,0.54,0.12,0.81,0.73,0.99c4.44,1.25,6.87,4.5,8.28,8.65C41.57,16.39,41.5,17.03,41.53,17.32z"/>
	<path class="st3" d="M29.28,11.78c-2.14,3.39-4.31,6.76-6.64,10.03c-2.61,3.67-5.8,6.87-8.4,10.54c-1.96-0.29-3.91-0.67-5.84-1.11
		c-0.87-0.11-1.69-0.46-2.54-0.65c-0.91-0.21-1.04-0.68-0.5-1.47c2.57-3.79,5.16-7.57,7.57-11.47c0.58-0.95,1.34-1.12,2.34-0.93
		c1.74,0.34,3.49,0.24,5.23,0.1c1.52,0.22,2.27-0.85,3.07-1.82c0.28-0.31,0.58-0.6,0.9-0.88c0.03-0.03,0.21-0.1,0.04-0.16
		c-0.09-0.03-0.22,0.01-0.34-0.01c-2.09-0.42-4.22-0.55-6.33-0.86c-0.54-0.08-0.95,0.38-1.48,0.35c-0.4-0.46-0.04-0.83,0.18-1.17
		c0.97-1.51,2-2.98,2.93-4.51C19.91,7,20.48,6.6,21.44,6.86c0.68,0.18,1.43-0.05,2.14,0.12c1.72,0.31,3.47,0.3,5.19,0.62
		c0.35,0.06,0.7,0.11,1.05,0.2c1.82,0.46,1.86,0.55,0.67,2.07C30.02,10.46,29.58,11.07,29.28,11.78z"/>
	<path class="st3" d="M17.28,35.7c-0.73-0.8-1.17-1.8-1.75-2.7c-0.45-0.69,0.05-1.15,0.4-1.59c1.72-2.15,3.55-4.22,5.19-6.43
		c3.78-5.1,7.57-10.2,10.8-15.68c0.67-1.13,1.55-1.34,2.86-0.49c5.61,3.64,7.28,8.23,4.13,14.49c-1.94,3.85-6.06,5.04-10.05,1.58
		c-1.65-1.44-1.69-1.43-3.17,0.23c-0.98,1.1-1.93,2.23-2.9,3.34c-1.75,1.65-2.95,3.73-4.3,5.69C18.12,34.68,17.97,35.4,17.28,35.7z"
		/>
	<path class="st4" d="M23.48,7.19c-0.79-0.06-1.58-0.09-2.36-0.18c-0.49-0.06-0.89,0.1-1.14,0.48c-1.28,1.99-2.53,4-3.79,6.01
		c0.06,0.62-0.39,1.03-0.67,1.49c-0.63,1.04-0.64,1.03,0.5,1.25c1.18,0.23,2.39,0.18,3.57,0.41c0.38,0.07,0.82-0.05,1.07,0.39
		c-1.94,0.4-3.89,0.27-5.8-0.1c-0.82-0.16-1.21,0.09-1.6,0.75c-2.26,3.86-4.91,7.47-7.36,11.2c-0.22,0.33-0.48,0.63-0.79,1.03
		c1.01,0.59,2.16,0.67,3.24,0.99C8.2,31.59,7.68,31.25,7.4,31.2c-0.42-0.07-0.84-0.18-1.26-0.29c-0.73-0.18-1.47-0.36-2.33-0.57
		c0.29-0.46,0.55-0.88,0.81-1.3c4.58-7.19,9.16-14.38,13.71-21.59c0.43-0.68,0.89-1.05,1.71-0.97c1.39,0.13,2.79,0.05,4.16,0.39
		C24.19,7.53,23.75,7.14,23.48,7.19z"/>
	<path class="st5" d="M31.56,27.66c-2.18,0.3-3.95-0.16-5.73-0.44c-0.42-0.07-0.68-0.31-0.22-0.71c0.06-0.05,0.12-0.11,0.17-0.17
		c1.33-1.44,1.33-1.44,2.89-0.32c0.42,0.3,0.85,0.6,1.3,0.86C30.37,27.11,30.81,27.29,31.56,27.66z"/>
	<path class="st5" d="M4.76,31.62c1.72,0.09,3.3,0.83,5,1.05c0.82,0.1,1.68,0.47,2.46,0.34c1.9-0.32,2.7,0.96,3.59,2.18
		c0.21,0.29,0.36,0.62,0.55,0.92c0.16,0.25,0.3,0.53-0.04,0.71c-0.26,0.14-0.55,0.09-0.72-0.2c-0.02-0.03-0.05-0.07-0.06-0.1
		c-0.93-2.48-2.9-3.11-5.35-3.3c-1.67-0.12-3.26-0.96-4.98-1.11C4.88,32.11,4.7,31.98,4.76,31.62z"/>
	<path class="st6" d="M4.76,31.62c0.15,0.16,0.3,0.32,0.44,0.48c0.5,0.8,1.12,1.47,1.93,1.96c1.92,0.21,3.84,0.45,5.59,1.35
		c0.59,0.27,1.31,0.21,1.78,0.93c-1.79-0.3-3.56-0.71-5.36-0.88c-2.27-0.22-3.62-1.61-4.8-3.31c-0.13-0.18-0.37-0.4-0.14-0.61
		C4.29,31.46,4.57,31.59,4.76,31.62z"/>
	<path class="st7" d="M27.6,3.46c2.07-0.41,3.8,0.79,3.9,2.68c0.02,0.3,0.17,0.73-0.36,0.65c-0.28-0.04-0.64,0.03-0.75-0.54
		C30,4.19,28.43,3.64,26.67,4.84c-0.51,0.34-0.71,1.1-1.47,1.09c-0.11-1.11,0.77-1.5,1.46-2.03C26.94,3.68,27.36,3.76,27.6,3.46z"/>
	<path class="st8" d="M23.48,7.19c0.25-0.08,0.57,0.01,0.72-0.31c2.43,0.02,4.8,0.48,7.18,0.94c0.56,0.11,0.56,0.32,0.28,0.7
		c-0.79,1.09-1.59,2.17-2.38,3.26c0.09-0.98,0.76-1.64,1.33-2.33c0.65-0.78,0.54-1.12-0.46-1.35c-1.9-0.44-3.84-0.48-5.76-0.72
		C24.08,7.34,23.75,7.4,23.48,7.19z"/>
	<path class="st9" d="M12.72,35.42c-1.89-0.36-3.79-0.66-5.59-1.35c0.25-0.13,0.14-0.65,0.64-0.53c1.91,0.48,3.86,0.82,5.74,1.46
		c0.1,0.03,0.17,0.15,0.27,0.25C13.45,35.57,13,34.96,12.72,35.42z"/>
	<path class="st10" d="M17.28,35.7c1.36-2.16,2.67-4.35,4.34-6.29c0.32-0.38,0.48-1.02,1.17-0.96c-1.66,2.32-3.43,4.57-4.88,7.05
		C17.79,35.71,17.67,36.22,17.28,35.7z"/>
	<path class="st11" d="M6.14,30.92c0.73-0.26,1.46,0.55,2.2,0.01c1.96,0.51,4,0.67,5.9,1.42c-0.48,0.47-0.99,0.06-1.46-0.01
		C10.55,31.99,8.28,31.76,6.14,30.92z"/>
	<path class="st12" d="M26.46,6.13c1.14-1.37,2.39-1.53,3.07-0.53c0.14,0.21,0.25,0.41,0.14,0.66c-0.13,0.28-0.35,0.24-0.6,0.2
		C28.25,6.34,27.42,6.25,26.46,6.13z"/>
	<path class="st13" d="M27.6,3.46c-0.87,0.76-1.99,1.26-2.4,2.46c-0.3-0.03-0.6-0.05-1.01-0.09C24.96,4.39,26.07,3.63,27.6,3.46z"/>
	<path class="st14" d="M20.65,17.04c-2.06-0.21-4.11-0.42-6.33-0.64c0.52-1.17,1.29-1.98,1.86-2.9c0.68-0.68,1.38-0.92,2.43-0.67
		c1.5,0.36,3.08,0.39,4.62,0.57c0.43,0.05,0.87,0.11,1.22,0.43c0.16,0.62-0.58,0.76-0.68,1.24c-0.31,0.8-1.1,1.19-1.56,1.89
		C21.85,17.48,21.17,16.81,20.65,17.04z"/>
	<path class="st15" d="M23.77,15.05c-0.03-0.55,0.58-0.75,0.68-1.24c0.23-0.09,0.64-0.3,0.35,0.21
		C24.58,14.43,24.25,14.84,23.77,15.05z"/>
	<path class="st16" d="M39.84,17.96c0.14,2.35-0.67,4.13-2.45,5.54c-2.22,1.75-4.47,1.25-5.96-0.76c-2.4-3.23-2.14-6.8,0.19-10.11
		c1.49-2.11,6.05-1.21,7.07,0.87C39.41,14.94,39.98,16.4,39.84,17.96z"/>
	<path class="st5" d="M17.32,16.21c1.66-2.43,3.56-0.42,5.3-0.7c-0.21,0.87-0.6,1.05-1.39,1.03C19.96,16.49,18.74,16.2,17.32,16.21z
		"/>
	<path class="st17" d="M17.88,13.48c1.67,0.2,3.34,0.41,5,0.61c0.22,0.03,0.53-0.04,0.5,0.32c-0.02,0.25-0.23,0.49-0.46,0.47
		c-1.61-0.1-3.18-0.42-4.75-0.77C17.98,14.07,17.8,13.83,17.88,13.48z"/>
	<path class="st18" d="M17.87,14.53c-0.02,0.66-1.48,1.63-1.94,1.45c-0.04-0.01-0.08-0.02-0.11-0.04c-0.24-0.15-0.16-0.36-0.01-0.48
		c0.54-0.43,0.76-1.2,1.45-1.41C17.42,14,17.72,14.41,17.87,14.53z"/>
	<path class="st19" d="M32.86,13.12c1.16-0.48,2.38-0.71,3.58-0.33c1.57,0.51,2.25,1.86,2.49,3.36c0.55,3.47,0.16,5.29-2.69,7.11
		c-0.7,0.45-1.51,0.89-2.43,0.45c-0.61-0.61-1.43-0.97-1.99-1.66c-0.45-0.54-0.8-1.12-0.87-1.8c-0.25-2.44-0.17-4.8,1.66-6.73
		C32.72,13.41,32.81,13.27,32.86,13.12z"/>
	<path class="st20" d="M32.86,13.12c0.18,0.13,0.1,0.26,0,0.39c-1.44,1.76-1.86,3.79-1.69,6.01c0.12,1.59,0.68,2.82,2.21,3.49
		c0.25,0.11,0.52,0.26,0.68,0.47c0.17,0.22-0.13,0.17-0.23,0.23c-2.07-0.78-3.28-2.54-3.37-4.73
		C30.35,16.64,30.79,14.55,32.86,13.12z"/>
	<path class="st21" d="M36.7,16.61c0.03-0.62-0.07-1.11,0.5-1.28c0.61-0.17,0.83,0.27,1.09,0.7c0.48,0.79,0.33,1.71,0.5,2.55
		c0.09,0.42-0.4,0.83-0.82,0.91c-0.45,0.09-0.68-0.33-0.78-0.74C37.02,17.99,36.84,17.21,36.7,16.61z"/>
	<path class="st22" d="M38.45,17.73c0.01,0.2,0.03,0.43-0.24,0.44c-0.53,0.01-0.55-0.47-0.69-0.8c-0.09-0.22,0.09-0.4,0.3-0.38
		C38.24,17.03,38.35,17.39,38.45,17.73z"/>
</g>
</svg>
