<?xml version="1.0" encoding="utf-8"?>
<!-- Generator: Adobe Illustrator 23.0.2, SVG Export Plug-In . SVG Version: 6.00 Build 0)  -->
<svg version="1.1" id="Camada_1" xmlns="http://www.w3.org/2000/svg" xmlns:xlink="http://www.w3.org/1999/xlink" x="0px" y="0px"
	 viewBox="0 0 43.21 22.26" style="enable-background:new 0 0 43.21 22.26;" xml:space="preserve">
<style type="text/css">
	.st0{fill:#100C0E;}
	.st1{fill:#0B0A0C;}
	.st2{fill:#020202;}
	.st3{fill:#2164C8;}
	.st4{fill:#3976A8;}
	.st5{fill:#2772DA;}
	.st6{fill:#4284B9;}
	.st7{fill:#E0F1F9;}
	.st8{fill:#3890D2;}
	.st9{fill:#8EC3EB;}
	.st10{fill:#DFF0F9;}
	.st11{fill:#59A7E1;}
	.st12{fill:#59A7E2;}
	.st13{fill:#90C4EB;}
	.st14{fill:#5693C4;}
	.st15{fill:#FAFCFD;}
	.st16{fill:#61AEE6;}
	.st17{fill:#5AA8E1;}
	.st18{fill:#2568C8;}
	.st19{fill:#E1EFF7;}
	.st20{fill:#348ED2;}
	.st21{fill:#F0F8FC;}
	.st22{fill:#5AA8E2;}
	.st23{fill:#1D795A;}
	.st24{fill:#C2941C;}
	.st25{fill:#3F8556;}
	.st26{fill:#5D3523;}
	.st27{fill:#51A1E0;}
	.st28{fill:#0662E4;}
	.st29{fill:#165AC6;}
	.st30{fill:#D6CE35;}
	.st31{fill:#EEF6F8;}
	.st32{fill:#DCEDF7;}
	.st33{fill:#5AA7E5;}
	.st34{fill:#90CDF7;}
	.st35{fill:#4A72A3;}
	.st36{fill:#025BFC;}
	.st37{fill:#206A28;}
	.st38{fill:#4B83B1;}
	.st39{fill:#115288;}
	.st40{fill:#0142BC;}
	.st41{fill:#0042BB;}
	.st42{fill:#D7ECF7;}
	.st43{fill:#8EC2EA;}
	.st44{fill:#5491C3;}
	.st45{fill:#6997BB;}
	.st46{fill:#256396;}
	.st47{fill:#E1F0F7;}
	.st48{fill:#EBF4F9;}
	.st49{fill:#8DC2EB;}
	.st50{fill:#336E9E;}
	.st51{fill:#EDF7FC;}
	.st52{fill:#58A7E1;}
	.st53{fill:#89BE6B;}
	.st54{fill:#568792;}
	.st55{fill:#D4CE37;}
	.st56{fill:#492A0E;}
	.st57{fill:#D5D03A;}
	.st58{fill:#D3CD38;}
	.st59{fill:#BC9C22;}
	.st60{fill:#D6D035;}
	.st61{fill:#0D6F39;}
	.st62{fill:#593C14;}
	.st63{fill:#BF8009;}
	.st64{fill:#167949;}
	.st65{fill:#BD7907;}
	.st66{fill:#D4CF3A;}
	.st67{fill:#C0810A;}
	.st68{fill:#44240C;}
	.st69{fill:#0C6A35;}
	.st70{fill:#513C24;}
	.st71{fill:#0E5D1F;}
	.st72{fill:#9BCAEE;}
	.st73{fill:#D9ECF9;}
	.st74{fill:#54340F;}
	.st75{fill:#D0E8F8;}
	.st76{fill:#609AA4;}
	.st77{fill:#89BE6E;}
	.st78{fill:#2D8856;}
	.st79{fill:#82B965;}
	.st80{fill:#076F3A;}
	.st81{fill:#2C8576;}
	.st82{fill:#10744A;}
	.st83{fill:#C19419;}
	.st84{fill:#B84031;}
	.st85{fill:#574128;}
	.st86{fill:#107141;}
	.st87{fill:#72ACC0;}
	.st88{fill:#D8D337;}
	.st89{fill:#E6F2F4;}
	.st90{fill:#C7E9FC;}
	.st91{fill:#4C4016;}
	.st92{fill:#92C193;}
	.st93{fill:#8FC3EB;}
	.st94{fill:#67AA61;}
	.st95{fill:#65A24F;}
	.st96{fill:#2E7924;}
	.st97{fill:#D5C632;}
	.st98{fill:#B63D4E;}
	.st99{fill:#C48106;}
	.st100{fill:#B34444;}
</style>
<g>
	<g>
		<path class="st0" d="M6.6,21.9c-1.8-1.02-3.68-1.88-5.27-3.24c-0.87-0.74-1.26-1.48-1.26-2.74c0-4.7,0.39-9.4-0.06-14.1
			c-0.05-0.5,0.05-1.04,0.58-1.35C1.15,0.5,1.67,0.17,2.23,0.3c0.19,0.04,0.41,0.06,0.49,0.27C2.81,0.81,2.63,1,2.47,1.04
			C1.13,1.36,1.42,2.41,1.42,3.33c0,2.59,0.06,5.18-0.02,7.76c-0.05,1.62-0.26,3.24-0.19,4.69c0.17-0.97-0.3-2.17,0.23-3.3
			c0.49,0.19,0.41,0.63,0.44,1.01c0.04,0.44,0.06,0.89,0,1.32c-0.19,1.36,0.23,2.43,1.42,3.16c1.06,0.83,2.29,1.35,3.45,2
			c0.51,0.26,1.03,0.38,1.61,0.38c10.29-0.03,20.57,0,30.86-0.03c0.72,0,1.55,0.2,2.07-0.58c0.3-0.42,0.26-0.91,0.26-1.39
			c0-3.79-0.01-7.59,0-11.38c0-0.84-0.32-1.29-0.98-1.73c-1.3-0.85-2.65-1.62-3.94-2.49c-0.37-0.08,0.41-0.38-0.1-0.47
			c-0.87-0.16-1.63-0.59-2.43-0.95c-0.29-0.13-0.65-0.28-0.62-0.63c0.05-0.5,0.52-0.36,0.85-0.4c0.12-0.02,0.24-0.01,0.36-0.02
			c2.84,0.83,5.29,2.39,7.72,4.02c0.64,0.43,0.78,1.07,0.78,1.78c0.01,4.35,0.05,8.71-0.01,13.06c-0.01,0.98,0.03,2.12-1.07,2.74
			C30.29,21.92,18.44,21.86,6.6,21.9z"/>
		<path class="st1" d="M34.7,0.28c-0.22,0.43-0.76,0.08-1.1,0.5c1.04,0.46,2.04,0.89,3.04,1.34c0.32,0.15,0.38,0.28-0.05,0.35
			c-0.89,0.37-1.54-0.34-2.31-0.52c-0.19-0.08-0.36-0.2-0.55-0.27c-0.4-0.1-0.8-0.07-1.2-0.07c-9.7,0-19.41,0-29.11,0
			c-0.47,0-0.96-0.08-1.41,0.17c-0.42,0.51-0.09,1.07-0.1,1.6c-0.04,1.79,0,3.59-0.02,5.38c-0.4,1.24,0.05,2.55-0.36,3.79
			c-0.44,0.95-0.12,1.95-0.2,2.93c-0.04,0.48-0.01,0.97-0.25,1.43c0-4.16,0-8.31,0-12.47c0-0.4,0.04-0.8-0.01-1.19
			C0.91,2.03,0.74,0.82,2.7,0.84C1.9,0.19,1.17,1.01,0.57,0.5c0.05-0.21,0.2-0.23,0.38-0.22C1.26,0.16,1.58,0.2,1.9,0.2
			c10.62,0,21.24,0,31.86,0C34.08,0.18,34.41,0.11,34.7,0.28L34.7,0.28z"/>
		<path class="st2" d="M6.6,21.9c0.34-0.41,0.82-0.25,1.23-0.25c11.01-0.01,22.02-0.01,33.04,0c0.42,0,0.89-0.15,1.25,0.22
			c-0.4,0.38-0.9,0.26-1.37,0.26c-10.63-0.01-21.25-0.02-31.88-0.04C8.12,22.09,7.31,22.58,6.6,21.9z"/>
		<path class="st0" d="M34.71,0.28C23.46,0.27,12.21,0.27,0.96,0.26c0.41-0.34,0.91-0.25,1.38-0.25c10.29,0,20.59,0,30.88,0
			C33.73,0.01,34.26-0.09,34.71,0.28z"/>
		<path class="st3" d="M1.54,12.53c-0.23-1.21-0.26-2.41,0.12-3.59c0.4-0.18,0.47,0.09,0.52,0.38c0.45,1.87,0.1,3.78,0.23,5.67
			c0.03,0.43-0.24,0.98,0.39,1.24c0.74,0.08,1.49,0.05,2.23,0.05c1.7,0,1.72-0.02,1.68-1.7c0.02-0.21,0.1-0.37,0.3-0.45
			c0.06,0,0.13,0,0.19-0.01c0.13,0.04,0.21,0.13,0.23,0.26c0.02,0.58,0.01,1.15,0.02,1.73c-0.02-0.65,0.05-1.3-0.04-1.96
			c-0.36-1.12-0.07-2.27-0.14-3.4c-0.11-0.04-0.21-0.09-0.31-0.16C6.48,10.07,5.84,10.02,5.21,10C4.37,9.97,3.56,9.84,2.74,9.69
			C2.47,9.62,2.26,9.49,2.18,9.2c-0.04-0.28,0-0.53,0.31-0.64C3.94,8.53,5.37,8.7,6.78,9C6.95,9.05,7.13,9.04,7.3,9.02
			c0.12-0.01,0.23,0,0.35,0.01C7.83,9.06,8,9.08,8.18,9.08c0.8,0.03,1.55-0.25,2.33-0.37c0.85-0.13,1.74-0.27,2.38,0.55
			c-0.01,0.31-0.25,0.41-0.48,0.52c-0.8,0.13-1.62,0.08-2.41,0.3c-0.56,0.31-1.43-0.3-1.8,0.59c-0.04,0.23-0.06,0.45-0.07,0.68
			c-0.02,0.81,0.03,1.62,0,2.43c0,0.12,0,0.23,0,0.35c-0.01,0.42-0.02,0.85-0.12,1.37c0.23-0.35,0.45-0.57,0.81-0.36
			c0.28,0.35,0.25,0.8,0.38,1.2c0.05,0.25,0.04,0.5-0.06,0.74c-0.16,0.28-0.42,0.43-0.69,0.58c-0.54,0.48-0.43,1.13-0.2,1.63
			c0.26,0.56,0.9,0.33,1.4,0.28c0.35-0.03,0.7-0.13,1.06-0.1c0.28,0.02,0.54,0.14,0.82,0.13c4-0.08,8,0.1,12,0.02
			c0.24,0,0.48-0.02,0.7-0.11c0.21-0.05,0.41-0.06,0.62-0.04c0.86,0.2,1.74,0.15,2.62,0.15c3.74,0.01,7.49,0,11.47,0
			c-2.2-0.82-4.1-1.76-6.14-2.35c-0.19-0.24-0.11-0.47,0.05-0.68c1.07-0.35,0.71-1.24,0.74-1.99c0.17-0.38,0.47-0.54,0.87-0.52
			c0.58,0.25,0.35,0.75,0.3,1.15c-0.11,0.89,0.28,1.48,1.06,1.8c1.55,0.63,3.04,1.42,4.68,1.82c0.52-0.22,0.3-0.69,0.3-1.04
			c0.03-1.99-0.01-3.97,0.02-5.96c0.01-0.73-0.12-1.21-0.99-1.28c-0.59-0.04-1.14-0.32-1.73-0.44c-0.18-0.07-0.33-0.18-0.49-0.29
			c-0.74-0.25-1.51-0.03-2.26-0.13C35,9.67,34.5,9.7,34.48,9.29c-0.02-0.44,0.49-0.43,0.83-0.44c0.84-0.04,1.68-0.03,2.51-0.01
			c0.59,0.04,1.13,0.27,1.69,0.43c0.55,0.09,1.1,0.05,1.64-0.13c1.06-0.02,0.46,0.7,0.51,1.13c-0.07,3.03-0.08,6.05,0,9.08
			c0.06,0.14,0.06,0.28-0.01,0.42c0.01,0.7-0.3,0.95-1.03,0.95c-10.63-0.03-21.26-0.05-31.89-0.04c-0.9,0-1.82,0.24-2.45-0.68
			c-0.91-0.77-1.98-1.27-3.06-1.73c-1.31-0.64-1.93-1.62-1.73-3.14C1.64,14.28,1.54,13.4,1.54,12.53z"/>
		<path class="st4" d="M41.68,19.78c-0.02-0.1-0.03-0.21-0.05-0.31c-0.16-3.11-0.17-6.21,0-9.32c-0.16-0.24,0.48-0.95-0.44-0.74
			c-0.58-0.6-0.29-1.35-0.37-2.04c-0.04-0.35,0.04-0.76-0.51-0.75c-1.67,0.03-3.34-0.04-5.01,0.04c-0.22,0.01-0.37,0.13-0.43,0.35
			c0.2,0.72,0.02,1.37-0.4,1.97c-0.28,0.09-0.46-0.06-0.62-0.26c-0.15-0.27-0.17-0.57-0.18-0.87c0-0.39-0.04-0.77-0.08-1.16
			c-0.02-0.21-0.03-0.43-0.29-0.5c-1.6-0.08-3.2-0.01-4.8-0.03c-0.47-0.01-0.96,0.06-1.4-0.21c-0.12-0.1-0.16-0.22-0.12-0.37
			c0.15-0.17,0.34-0.24,0.55-0.29c1.44-0.11,2.88-0.05,4.31-0.06c1.74-0.01,1.75-0.03,1.78-1.72c0-0.2,0-0.4,0.02-0.6
			c0.02-0.27,0.04-0.53,0.15-0.78c0.12-0.29,0.4-0.3,0.66-0.35c0.72,0.23,1.44,0.46,2.15,0.69c1.61,0.8,3.11,1.78,4.6,2.78
			c0.35,0.23,0.64,0.43,0.64,0.91c-0.02,4.48-0.02,8.95-0.04,13.43C41.8,19.64,41.72,19.71,41.68,19.78z"/>
		<path class="st5" d="M3.26,18.27C4.1,18.23,6.12,19.38,6.32,20C5.2,19.6,4.18,19.02,3.26,18.27z"/>
		<path class="st6" d="M34.44,1.77C34.31,1.96,34.1,1.98,33.89,2c-0.79,0.58-1.7,0.34-2.55,0.34C22.08,2.31,12.83,2.35,3.58,2.33
			C3.15,2.48,2.43,2.14,2.41,3.01c0.07,1.75-0.25,3.52,0.2,5.26c0.04,0.13,0.04,0.26,0,0.38C2.36,8.77,2.28,8.99,2.25,9.24
			c-0.05,0-0.1-0.01-0.15-0.01c-0.08-0.19-0.23-0.29-0.44-0.3c-0.01-1.9-0.08-3.81,0-5.7c0.03-0.62-0.58-1.19-0.08-1.8
			c0.35-0.11,0.71-0.06,1.07-0.06c10.13,0,20.26,0,30.39,0.01c0.38,0,0.8-0.15,1.15,0.15C34.28,1.61,34.36,1.69,34.44,1.77z"/>
		<path class="st0" d="M34.2,1.54c-0.52-0.03-1.03-0.09-1.55-0.09C22.3,1.44,11.94,1.44,1.59,1.44c0.38-0.32,0.84-0.18,1.27-0.18
			c10.01-0.01,20.01-0.01,30.02,0C33.32,1.26,33.84,1.04,34.2,1.54z"/>
		<path class="st7" d="M33.74,6.53C33.93,6.91,34,7.3,33.91,7.72c-0.36,0.8-1.26,0.87-1.85,1.37c-0.78,0.28-1.52,0.67-2.25,1.06
			c-0.7,0.45-1.43,0.82-2.21,1.12c-0.1,0.06-0.19,0.1-0.29,0.15c-1.22,0.79-2.6,1.27-3.85,1.99c-0.67,0.23-1.24,0.66-1.87,0.95
			c-0.37,0.19-0.78,0.3-1.14,0.51c-0.34,0.23-0.66,0.49-1.03,0.68c-0.09,0.05-0.19,0.1-0.28,0.15c-0.34,0.15-0.67,0.34-1,0.51
			c-1.76,0.95-3.59,1.74-5.42,2.53c-0.67,0.54-1.43,0.87-2.28,1c-0.27,0.06-0.54,0.13-0.82,0.16c-1.7,0.18-2.43-0.87-1.71-2.47
			c0.03-0.06,0.22-0.05,0.33-0.07c0.14,0.08,0.26,0.21,0.25,0.37c-0.02,0.9,0.4,0.83,1,0.5c0.27-0.15,0.58-0.23,0.86-0.35
			c0.58-0.26,1.18-0.48,1.69-0.86c0.14-0.08,0.28-0.13,0.44-0.17c0.2-0.05,0.39-0.11,0.57-0.22c0.44-0.28,0.92-0.51,1.37-0.77
			c1.02-0.62,2.08-1.17,3.08-1.81c0.41-0.25,0.79-0.54,1.22-0.74c0.33-0.12,0.66-0.24,0.97-0.41c0.17-0.09,0.35-0.17,0.52-0.25
			c0.17-0.09,0.34-0.18,0.49-0.29c0.16-0.12,0.32-0.22,0.49-0.32c0.41-0.21,0.81-0.41,1.21-0.63c0.23-0.12,0.47-0.24,0.71-0.35
			c1.11-0.17,1.77-1.28,2.91-1.39c0.26-0.08,0.51-0.19,0.77-0.29c2.21-1.07,4.56-1.82,6.66-3.12C33.66,6.23,33.81,6.27,33.74,6.53z"
			/>
		<path class="st8" d="M40.51,19.22c-1.51-0.58-3.03-1.14-4.53-1.74c-1.45-0.59-1.71-1.09-1.46-2.64c0.04-0.23,0.19-0.45-0.08-0.63
			c0-0.04-0.03-0.1-0.01-0.12c1.72-1.54,3.61-2.73,5.95-3.06c0.35,0.28,0.41,0.68,0.41,1.08c0.02,2.07,0.02,4.15,0,6.22
			C40.79,18.65,40.74,18.96,40.51,19.22z"/>
		<path class="st9" d="M12.9,9.39c-0.77-0.53-1.61-0.57-2.48-0.33C9.58,9.29,8.73,9.42,7.86,9.38C7.75,9.32,7.72,9.23,7.75,9.11
			c0.38-0.75,0.31-1.48-0.1-2.2C7.6,6.64,7.64,6.4,7.86,6.21c0.26-0.15,0.53-0.14,0.81-0.05c0.47,0.29,0.99,0.28,1.51,0.27
			c3.84-0.05,7.68,0.12,11.51-0.09c0.32-0.02,0.69-0.05,0.8,0.34c0.11,0.4-0.25,0.55-0.51,0.72c-0.3,0.19-0.65,0.3-0.93,0.54
			c-1.29,0.58-2.78,0.5-4.05,1.21c-0.49,0.27-0.74,0.52-0.69,1.06C15.33,10.59,13.67,10.19,12.9,9.39z"/>
		<path class="st10" d="M39.97,11.11c-1.88,0.96-3.81,1.84-5.53,3.1c-0.28,0.1-0.55,0.2-0.72,0.47c-0.12,0.17-0.26,0.33-0.45,0.42
			c-0.32,0.16-0.65,0.32-0.94,0.54c-0.79,0.47-1.56,0.97-2.38,1.39c-0.72,0.38-1.34,0.93-2.13,1.18c-0.35,0.14-0.68,0.3-0.99,0.52
			c-0.47,0.29-0.94,0.6-1.5,0.67c-0.61-0.06-1.14,0.35-1.74,0.31c-0.31-0.02-0.69,0.08-0.87-0.25c-0.2-0.37,0.19-0.55,0.36-0.8
			c0.07-0.1,0.13-0.2,0.19-0.3c0.58-0.9,1.69-1.01,2.45-1.66c0.34-0.19,0.69-0.35,1.02-0.53c0.79-0.38,1.57-0.77,2.34-1.18
			c0.56-0.31,1.1-0.67,1.68-0.94c0.47-0.23,0.95-0.43,1.38-0.72c0.17-0.12,0.35-0.23,0.52-0.35c0.47-0.34,0.99-0.59,1.52-0.82
			c0.09-0.06,0.18-0.12,0.26-0.18c0.64-0.42,1.2-0.98,2.02-1.08c0.49-0.05,0.9-0.31,1.32-0.55c0.78-0.45,1.47-0.02,2.16,0.24
			C40.15,10.67,40.12,10.92,39.97,11.11z"/>
		<path class="st11" d="M25.32,19.23c0.45-0.23,0.91-0.47,1.36-0.7c1.05-0.25,2.08-0.63,3.19-0.57c1.09,0.14,1.97-0.49,2.93-0.82
			c2.59,0.2,4.65,1.82,7.11,2.45c-0.24,0.48-0.56,0.35-0.81,0.35c-4.35,0.01-8.7,0.01-13.05,0.01c-0.45,0-0.88-0.02-1.27-0.27
			C24.81,19.35,24.97,19.18,25.32,19.23z"/>
		<path class="st12" d="M6.88,14.39c0.43,0.53,0.2,1.15,0.2,1.73c0.01,0.52-0.43,0.48-0.78,0.48c-1.19-0.01-2.39-0.03-3.58-0.04
			c-0.29-0.32-0.3-0.72-0.3-1.12c-0.01-1.63-0.01-3.26,0-4.89c0-0.4,0.03-0.8,0.33-1.11c1.21,0.14,2.42,0.27,3.64,0.41
			c0.42,0.05,0.82,0.1,0.69,0.69c-0.01,0.05-0.03,0.1-0.04,0.15c-0.18,0.39-1.12,0.11-0.81,0.93c0.03,0.11,0.03,0.21,0.01,0.32
			c-0.1,0.23-0.29,0.32-0.52,0.37c-0.25,0.09-0.73-0.04-0.55,0.5c0.09,0.27,0.08,0.68,0.58,0.53C6.7,13.05,6.7,13.82,6.88,14.39z"/>
		<path class="st13" d="M2.61,8.65c-0.02-0.07-0.05-0.13-0.07-0.2c-0.12-1.7-0.27-3.41,0.04-5.11c0.34-0.48,0.74-0.23,1.03,0
			C4.66,4.19,5.72,5.02,6.89,5.7c0.28,0.16,0.42,0.47,0.48,0.8C7.34,7.46,7.7,8.47,7.03,9.35C5.86,9.15,4.69,8.89,3.49,8.9
			C3.16,8.92,2.85,8.93,2.61,8.65z"/>
		<path class="st14" d="M34.46,8.92c-0.21-0.58,0.56-1.14,0.03-1.72c0.55-0.59,1.26-0.78,2.04-0.78c0.87,0,1.74-0.01,2.61,0
			c0.63,0.01,1.35-0.06,1.55,0.75s0.12,1.58-0.64,2.13c-0.16,0.12-0.36,0.17-0.51,0.3c-0.49-0.14-0.99-0.29-1.48-0.43
			C36.88,8.83,35.64,9.27,34.46,8.92z"/>
		<path class="st15" d="M39.97,11.11c-0.59-0.7-1.25-0.92-2.12-0.45c-0.45,0.24-0.83,0.79-1.47,0.48c0.28-0.85,1.03-1.02,1.76-1.2
			c0.92-0.1,1.73,0.55,2.68,0.34c0.43-0.09,0.34,0.31,0.34,0.58c-0.01,2.66-0.02,5.33-0.01,7.99c0,0.58-0.12,0.77-0.64,0.37
			c-0.01-2.39-0.01-4.78-0.05-7.17C40.46,11.69,40.76,11.09,39.97,11.11z"/>
		<path class="st16" d="M10.44,19.73c0.72-0.37,1.44-0.75,2.16-1.12c0.13-0.02,0.26-0.02,0.39,0c1.53,0.05,3.01,0.41,4.51,0.66
			c1.19,0.26,2.39,0.07,3.59,0.12c1.11,0.03,2.21,0.15,3.3,0.4c-1,0.39-2.04,0.17-3.05,0.18c-3.05,0.03-6.1-0.02-9.14-0.02
			C11.6,19.95,11.02,19.89,10.44,19.73z"/>
		<path class="st17" d="M9.97,9.88c0.77-0.4,1.58-0.41,2.4-0.24c0.83,0.14,1.68,0.21,2.3,0.89c0.05,0.18,0.04,0.36-0.04,0.53
			c-0.23,0.29-0.61,0.29-0.91,0.46c-0.55,0.25-1.02,0.63-1.59,0.84c-0.69-0.15-0.91-0.93-1.55-1.13c-0.3-0.18-0.61-0.35-0.76-0.69
			C9.75,10.3,9.79,10.08,9.97,9.88z"/>
		<path class="st18" d="M34.46,8.92c1.2,0.15,2.43-0.24,3.61,0.24c-1.1,0-2.21,0-3.31,0c0,0.08-0.01,0.17-0.01,0.25
			c0.78,0,1.56-0.02,2.34,0.01c0.24,0.01,0.62-0.26,0.74,0.23c-0.53,0.48-1.19,0.36-1.81,0.35c-0.84-0.02-1.27,0.28-1.22,1.16
			c0.02,0.4-0.1,0.78-0.35,1.11v0.03c-0.78,0.23-0.79-0.42-0.77-0.82c0.08-1.64-0.61-1.48-1.78-1.47c-0.48,0-0.94,0.14-1.41,0.21
			c-0.31,0.05-0.73,0.25-0.83-0.31c0.73-0.49,1.52-0.83,2.38-1.01c0.63-0.25,1.28-0.39,1.96-0.2C34.15,8.77,34.3,8.84,34.46,8.92z"
			/>
		<path class="st19" d="M39.54,9.6c0.17-0.71,1.15-0.93,0.97-1.95C40.38,6.9,40.19,6.6,39.46,6.6c-1.68,0-3.39-0.19-4.97,0.61
			c-0.01-0.56,0.05-0.98,0.82-0.97c1.79,0.04,3.58,0.01,5.36-0.04c0.51-0.01,0.49,0.27,0.49,0.59c0.01,0.87,0.02,1.75,0.03,2.62
			C40.69,9.86,40.1,9.55,39.54,9.6z"/>
		<path class="st20" d="M34.44,12.26c0.06-2.62,0.06-2.62,2.66-2.62c0.24,0,0.48,0,0.72,0c0.11,0.1,0.21,0.19,0.32,0.29
			c-0.59,0.4-1.17,0.8-1.76,1.2C35.73,11.51,35.09,11.89,34.44,12.26z"/>
		<path class="st21" d="M2.75,9.43c-0.01,2.37-0.02,4.75-0.03,7.12c-0.73,0.13-0.6-0.38-0.6-0.8C2.11,13.58,2.11,11.4,2.1,9.23
			c0.05,0,0.1,0.01,0.15,0.01C2.36,9.44,2.57,9.41,2.75,9.43z"/>
		<path class="st22" d="M3.37,17.31c0.74,0,1.39,0,2.04,0c1.92,0,1.96,0.06,1.54,2.13C5.75,18.73,4.58,18.03,3.37,17.31z"/>
		<path class="st23" d="M32.81,17.14c-0.7,0.86-1.65,1.11-2.7,1.11c-0.78-0.35-1.64,0.27-2.41-0.22c0.72-0.41,1.44-0.81,2.15-1.22
			c0.68-0.17,1.32,0.64,2.01,0.09c0.43-0.25,0.51-0.79,0.91-1.07c0.2-0.02,0.31,0.09,0.38,0.25c0.04,0.18,0.02,0.34-0.09,0.48
			C32.98,16.76,32.89,16.95,32.81,17.14z"/>
		<path class="st24" d="M7.86,13.93c0-0.95,0-1.9-0.01-2.84c1.01,0.12,0.51,1.08,0.86,1.43c-0.01-0.45-0.38-1.13,0.43-1.5
			c0.6,0.2,0.49,0.83,0.75,1.24C9.62,13.87,9.16,14.24,7.86,13.93z"/>
		<path class="st25" d="M7.86,13.93c1.28,0.02,1.8-0.69,1.79-1.89c0.59-0.32,0.76-0.15,0.74,0.8c-0.5,0.68-0.66,1.44-0.45,2.26
			c0.12,0.46,0.21,0.87-0.38,1.06c-0.19,0.07-0.36,0.2-0.55,0.26c-0.35-0.4-0.14-0.9-0.23-1.34c-0.06-0.56-0.51-0.68-0.93-0.84
			C7.84,14.14,7.85,14.03,7.86,13.93z"/>
		<path class="st26" d="M6.88,14.39c-0.23-0.05-0.57-0.09-0.51-0.37c0.21-0.98-0.35-0.54-0.67-0.36c-0.54,0.32-0.84,0.33-0.66-0.41
			c0.13-0.55-0.59-0.6-0.56-1.17c0.41,0,0.82,0,1.23,0c0.26,0.55,0.72,0.66,1.27,0.61c0.5,0.47,0.31,1,0.14,1.53
			C7.04,14.28,6.96,14.33,6.88,14.39z"/>
		<path class="st27" d="M10.45,18.14c-0.22,0.08-0.44,0.15-0.66,0.24c-1.57,0.67-1.57,0.67-1.55-1.03c0.29-0.09,0.58-0.18,0.87-0.27
			c0.43-0.01,0.63,0.4,0.99,0.54C10.29,17.75,10.47,17.88,10.45,18.14z"/>
		<path class="st28" d="M41.64,10.15c0,3.11,0,6.21,0,9.32c-0.27-0.2-0.22-0.49-0.22-0.77c0-2.6,0-5.19,0-7.79
			C41.41,10.64,41.37,10.35,41.64,10.15z"/>
		<path class="st29" d="M14.54,10.61c-0.72-0.32-1.45-0.64-2.17-0.96c0.11-0.21,0.32-0.23,0.52-0.26c1.09,0.37,2.18,0.76,3.35,0.73
			c0.31-0.06,0.59,0.02,0.67,0.33c0.05,0.21-0.19,0.32-0.38,0.4C15.85,10.94,15.16,11.09,14.54,10.61z"/>
		<path class="st30" d="M9.25,11.07c-0.77,0.65-0.15,1.59-0.44,2.51c-0.54-0.87-0.18-1.91-0.96-2.49c-0.06-0.24-0.04-0.44,0.22-0.54
			c0.42-0.55,0.84-0.45,1.25,0C9.4,10.74,9.39,10.91,9.25,11.07z"/>
		<path class="st31" d="M24.4,19.79c-1.13-0.02-2.27-0.05-3.4-0.07c-0.07-0.1-0.08-0.2-0.03-0.31c0.4-0.53,1.12-0.41,1.59-0.8
			c0.25-0.13,0.49-0.29,0.78-0.11c0.5,0.64-0.61,0.36-0.33,0.94c0.7,0.5,1.49-0.5,2.31-0.21c-0.18,0.15-0.35,0.31-0.53,0.46
			C24.66,19.72,24.53,19.75,24.4,19.79z"/>
		<path class="st32" d="M7.84,14.24c0.42-0.05,0.85-0.11,1.31-0.17c-0.04,0.42-0.47,0.62-0.37,1.01c-0.84,0.16-0.13,1.13-0.93,1.53
			C7.84,15.75,7.84,14.99,7.84,14.24z"/>
		<path class="st33" d="M33.07,16.57c-0.01-0.14-0.02-0.28-0.03-0.42c0.09-0.41-0.19-0.88,0.2-1.23c0.16-0.08,0.32-0.16,0.48-0.25
			C33.85,15.43,34.62,16.4,33.07,16.57z"/>
		<path class="st34" d="M9.25,10.69c-0.35-0.42-0.75-0.38-1.18-0.15C7.84,10.22,7.58,9.89,8.3,9.9c0.56,0.01,1.11-0.01,1.67-0.02
			c-0.01,0.23-0.03,0.45-0.04,0.68C9.74,10.81,9.51,10.83,9.25,10.69z"/>
		<path class="st35" d="M7.12,14.22c-0.25-0.46,0.14-1-0.18-1.44c-0.3-0.12-0.29-0.38-0.29-0.63c0.1-0.41,0.11-0.84,0.23-1.25
			c0.06-0.11,0.13-0.21,0.21-0.3l-0.01-0.07c0.08,0.03,0.17,0.06,0.25,0.09c0.19,1.2,0.2,2.4-0.01,3.59
			C7.25,14.21,7.19,14.21,7.12,14.22z"/>
		<path class="st36" d="M7.32,14.21c0-1.2,0.01-2.4,0.01-3.59c0.52,1.18,0.11,2.41,0.22,3.61c-0.08,0.1-0.14,0.09-0.19-0.02H7.32z"
			/>
		<path class="st37" d="M9.97,17.78c-0.57,0.12-0.55-0.49-0.86-0.69c-0.04-0.22-0.08-0.44-0.12-0.66c0.07-0.18,0.14-0.35,0.21-0.53
			C9.87,16.36,10.15,16.98,9.97,17.78z"/>
		<path class="st38" d="M7.85,9.16C7.84,9.23,7.84,9.31,7.87,9.38c-0.1-0.06-0.2-0.13-0.31-0.19C7.15,8.32,7.37,7.42,7.39,6.52
			c0.05-0.14,0.15-0.23,0.28-0.29C7.73,6.26,7.8,6.28,7.86,6.31C7.85,6.55,7.84,6.79,7.84,7.03C8.16,7.73,8.15,8.44,7.85,9.16z"/>
		<path class="st38" d="M7.03,9.36C7.07,8.33,7.1,7.3,7.14,6.27C7.3,6.23,7.4,6.29,7.43,6.46c-0.03,0.9,0.11,1.81-0.08,2.7
			C7.25,9.23,7.14,9.3,7.03,9.36z"/>
		<path class="st39" d="M7.36,9.17c0-0.96,0-1.92,0-2.87c0.07-0.06,0.14-0.06,0.21,0c0,0.96,0,1.93-0.01,2.89
			C7.49,9.18,7.42,9.17,7.36,9.17z"/>
		<path class="st40" d="M7.36,14.2c0.06,0.01,0.13,0.02,0.19,0.02c0,0.7,0,1.41,0,2.11c-0.06,0-0.13,0-0.19,0
			C7.36,15.63,7.36,14.92,7.36,14.2z"/>
		<path class="st41" d="M7.52,17.63c0,0.61,0,1.21,0,1.82c-0.04,0-0.07,0-0.11,0c0-0.61,0-1.22,0-1.83
			C7.45,17.62,7.49,17.62,7.52,17.63z"/>
		<path class="st42" d="M3.03,2.2c0.24-0.32,0.58-0.21,0.89-0.21c9.99,0,19.98,0,29.97,0.01c0.01,0.22,0.01,0.44,0.02,0.66
			c-1.25,0.38-2.49,0.82-3.77,1.07C29.96,3.64,29.85,3.5,29.8,3.3c-0.33-0.47-0.81-0.23-1.22-0.23C21.02,3.06,13.46,3.06,5.91,3.06
			c-0.64,0-1.28,0.02-1.92-0.07C3.52,2.9,3.15,2.7,3.03,2.2z"/>
		<path class="st43" d="M30.13,3.64c1.2-0.58,2.39-1.17,3.78-0.98c0.19,2.96,0.19,2.96-2.72,2.95c-1.24,0-2.48-0.04-3.71-0.06
			C27.97,4.38,29.02,3.97,30.13,3.64z"/>
		<path class="st44" d="M38.7,5.35c-0.47,0.75-1.22,0.44-1.86,0.44c-2.41-0.01-2.41-0.03-2.38-2.42c0-0.24,0.02-0.48,0.03-0.72
			c1.53,0.36,2.77,1.26,4.03,2.13C38.69,4.9,38.93,5.07,38.7,5.35z"/>
		<path class="st45" d="M8.57,6.32C8.33,6.31,8.1,6.31,7.86,6.3L7.78,6.28C7.74,6.11,7.8,5.97,7.96,5.88
			c0.49-0.23,1.02-0.17,1.53-0.17C14.8,5.7,20.11,5.56,25.41,5.77c2.85,0.11,5.72-0.05,8.56,0.29c-0.08,0.16-0.15,0.31-0.23,0.47
			c-0.07-0.07-0.14-0.13-0.21-0.2c-0.49,0.32-1.03,0.35-1.59,0.31c-2.63-0.01-5.27,0.1-7.9-0.01c-4.85-0.2-9.71-0.01-14.56-0.1
			C9.17,6.52,8.86,6.48,8.57,6.32z"/>
		<path class="st46" d="M33.97,6.06c-8.72,0-17.44-0.01-26.16-0.01C7.78,5.74,8,5.65,8.23,5.56c1.71-0.19,3.43-0.07,5.15-0.08
			c4-0.02,8-0.01,11.99,0c0.55,0,1.13-0.11,1.6,0.31c1.92,0.01,3.84,0.01,5.75,0.04C33.15,5.84,33.62,5.66,33.97,6.06z"/>
		<path class="st43" d="M26.98,5.79c-6.29,0-12.59,0-18.88-0.01C8.01,5.61,8.05,5.49,8.22,5.4c0.44-0.23,0.93-0.21,1.4-0.21
			c5.14,0,10.28-0.02,15.42,0c0.67,0.16,1.44-0.2,2.01,0.43C27.03,5.68,27,5.73,26.98,5.79z"/>
		<path class="st47" d="M27.05,5.62c-0.64-0.02-1.27-0.05-1.91-0.07c-0.07-0.17-0.01-0.31,0.14-0.39c1.29-0.67,2.56-1.37,3.95-1.84
			c0.23-0.08,0.46-0.11,0.66,0.09c0.08,0.08,0.16,0.16,0.24,0.23c-0.82,0.72-1.91,1.08-2.66,1.91C27.33,5.57,27.19,5.6,27.05,5.62z"
			/>
		<path class="st48" d="M38.7,5.35c-1.17-1.27-2.81-1.79-4.21-2.7c0.09-0.07,0.2-0.21,0.26-0.19c1.92,0.65,3.61,1.7,5.29,3.01
			C39.44,5.72,39.05,5.64,38.7,5.35z"/>
		<path class="st49" d="M33.99,8.69c-0.61,0.5-1.3,0.18-1.96,0.2c0.49-0.61,1.31-0.7,1.88-1.17C33.94,8.04,33.97,8.37,33.99,8.69z"
			/>
		<path class="st50" d="M8.01,5.59c0.03,0.06,0.06,0.13,0.09,0.2C8.01,5.88,7.91,5.97,7.82,6.06c0,0.08-0.01,0.16-0.03,0.23
			C7.72,6.3,7.65,6.3,7.58,6.3s-0.14,0-0.21,0S7.23,6.29,7.16,6.28C5.71,5.24,4.25,4.2,2.79,3.16C2.53,3.17,2.31,3.1,2.27,2.8
			C1.85,1.7,2.64,2.2,3.05,2.21c0.23,0.17,0.46,0.33,0.69,0.5C5.19,3.6,6.66,4.51,8.01,5.59z"/>
		<path class="st51" d="M2.25,2.79C2.43,2.91,2.6,3.03,2.78,3.15C2.8,4.78,2.8,6.41,2.84,8.05c0.01,0.26-0.07,0.36-0.29,0.4
			c-0.22-0.1-0.44-0.22-0.43-0.5C2.18,6.23,1.93,4.5,2.25,2.79z"/>
		<path class="st12" d="M29.66,9.9c0.94,0.26,1.78-0.36,2.73-0.29c1.56,0.11,1.54,0.02,1.59,1.55c0.01,0.4-0.32,1.02,0.47,1.14
			c-0.56,0.3-1.11,0.59-1.67,0.89c-0.55-0.31-0.44-0.92-0.64-1.38c-0.11-0.22-0.28-0.38-0.52-0.46c-0.64-0.11-0.75,0.59-1.19,0.78
			c-0.48,0.5-0.63,1.14-0.72,1.8c-0.06,0.47-0.18,0.91-0.51,1.27c-0.76,0.48-1.54,0.93-2.39,1.22c-0.8,0.27-1.56-0.03-2.32-0.2
			c-1.35-0.3-2.69-0.58-4.08-0.49c-0.39,0.03-0.8,0.01-1.08-0.34c0.31-0.21,0.62-0.43,0.92-0.64c1.94-0.5,3.96-0.63,5.83-1.4
			c0.18-0.08,0.37-0.14,0.55-0.23c1.27-0.66,1.36-0.86,0.96-2.11C28.27,10.64,28.96,10.27,29.66,9.9z"/>
		<path class="st13" d="M32,6.33c0.51,0,1.02,0.01,1.53,0.01c-0.05,0.24-0.13,0.47-0.37,0.57c-2.14,0.93-4.28,1.85-6.42,2.77
			c-0.52-0.21-0.97-0.55-1.48-0.8c-0.56-0.31-1.19-0.41-1.79-0.58c-0.32-0.09-0.74-0.02-0.82-0.5c0.88-0.97,2-1.37,3.29-1.39
			C27.96,6.37,29.98,6.52,32,6.33z"/>
		<path class="st52" d="M13.04,16.89c-0.15,0.07-0.31,0.13-0.46,0.2c-0.16-0.2-0.26-0.44-0.18-0.67c0.37-1.08,0.12-2.12-0.2-3.15
			c0.38-0.94,1.29-1.07,2.09-1.37c1.28,0.06,0.88,1.16,1.12,1.86c0.54,0.05,0.89-0.35,1.34-0.44c0.36-0.07,0.72-0.15,1.02,0.09
			c0.45,0.36-0.25,0.58-0.14,0.91c-1.02,0.6-2.05,1.19-3.07,1.79C13.89,16.07,13.39,16.34,13.04,16.89z"/>
		<path class="st53" d="M9.97,17.78c-0.25-0.63-0.51-1.25-0.77-1.88c0.46,0.01,0.81-0.04,0.46-0.64c-0.44-0.77,0.12-1.52,0.12-2.28
			c0.15,0.01,0.3,0.02,0.45,0.03c0.16-0.15,0.26-0.35,0.41-0.51c0.38-0.41,0.69-0.22,0.98,0.12c0.32,0.37,0.49,0.81,0.68,1.25
			c0.08,1.1,0.4,2.21-0.17,3.27c-0.37,0.66-1.12,0.68-1.69,1.01C10.29,18.02,10.13,17.9,9.97,17.78z"/>
		<path class="st54" d="M12.91,18.77c-0.1-0.06-0.2-0.11-0.3-0.17c1.84-0.9,3.69-1.79,5.53-2.69c0.18,0.06,0.31,0.15,0.29,0.37
			c-0.36,0.58-1.2,0.78-1.27,1.66c0.71,0.11,1.47-0.06,2.18,0.11c0.59,0.14,1.26,0.37,0.52,1.16c-1.59,0.34-3.15,0-4.7-0.27
			C14.4,18.82,13.66,18.77,12.91,18.77z"/>
		<path class="st55" d="M26.2,9.88c-1.14,0.21-1.88,1.26-3.03,1.44c-0.12-0.1-0.01,0.08-0.11-0.05c-0.74-0.93-0.74-2.1-1.03-3.17
			c1.16-0.1,2.26,0.1,3.28,0.68C25.64,9.11,26.27,9.21,26.2,9.88z"/>
		<path class="st56" d="M17.62,14.32c0.22-0.86-0.09-1.09-0.88-0.73c-0.11,0.05-0.22,0.1-0.33,0.15c-1.34,0.65-1.36,0.65-1.38-0.85
			c0-0.51-0.29-0.69-0.66-0.88c-0.47-0.01-0.71-0.27-0.77-0.73c0.19-0.36,0.56-0.25,0.86-0.32c0.42-0.16,0.85-0.11,1.28-0.11
			c0.18,0.01,0.34,0.07,0.46,0.19c0.14,0.28,0.24,0.58,0.37,0.87c0.08,0.42-0.39,0.54-0.49,0.88c0.34-0.01,0.59-0.26,0.9-0.28
			c0.24-0.05,0.48-0.06,0.72-0.06c0.26,0,0.52,0.03,0.77,0.12c0.34,0.24,0.73,0.46,0.33,0.95C18.41,13.8,18.01,14.06,17.62,14.32z"
			/>
		<path class="st57" d="M22.49,11.6c-0.34,0.35-0.8,0.49-1.24,0.66c-0.36-0.48-0.55-1-0.51-1.63c0.04-0.68-0.25-1.14-1.03-1.07
			c-0.46-0.2-1.15-0.14-1.07-0.95c0.51-0.24,1.03-0.44,1.62-0.4c0.69-0.07,1.26,0.05,1.8,0.6c0.57,0.58,0.63,1.08,0.38,1.79
			C22.33,10.89,22.75,11.25,22.49,11.6z"/>
		<path class="st58" d="M18.8,13.54c0.18-0.44-0.05-0.64-0.43-0.76c-0.71-0.35-0.81-1-0.85-1.68c0.09-0.58,0.5-0.8,1.02-0.89
			c0.12,0,0.23,0.03,0.34,0.08c0.9,0.71,0.83,1.75,0.93,2.73C19.52,13.29,19.22,13.52,18.8,13.54z"/>
		<path class="st59" d="M21.4,14.17c0.62-0.35,1.18-0.81,1.9-0.95c0.74-0.23,1.47-0.5,2.21-0.72c0.45-0.14,0.92-0.28,1.28,0.2
			c0.09,0.6-0.49,0.53-0.76,0.77c-1.13,0.5-2.34,0.7-3.55,0.93C22.11,14.47,21.7,14.55,21.4,14.17z"/>
		<path class="st60" d="M26.76,12.76c-0.9-0.37-1.66,0.39-2.52,0.34c-0.31-0.02-0.62,0.08-0.93,0.12c1.28-0.68,2.57-1.35,3.85-2.03
			c0.41,0.14,0.73,0.42,0.6,0.85C27.63,12.48,27.36,12.9,26.76,12.76z"/>
		<path class="st61" d="M19.31,15.39c2.58-0.29,5.02,0.46,7.48,1.03c-0.25,0.31-0.59,0.42-0.97,0.45c-0.89,0.02-1.72-0.26-2.57-0.49
			c-0.89-0.24-1.78-0.42-2.71-0.33c-0.49-0.19-1.2,0.15-1.46-0.6C19.17,15.42,19.24,15.4,19.31,15.39z"/>
		<path class="st62" d="M21.4,14.17c1.63,0.09,3.15-0.38,4.67-0.87c0.11,0.05,0.24,0.07,0.26,0.22c-1.92,0.94-3.99,1.19-6.09,1.22
			C20.53,14.37,20.99,14.32,21.4,14.17z"/>
		<path class="st63" d="M22.49,11.6c-0.1-0.55-0.59-0.94-0.16-1.71c0.35-0.63-0.55-1.18-1.22-1.45c-0.24-0.1-0.55-0.03-0.83-0.04
			c0.54-0.5,1.09-0.7,1.7-0.11c0.53,0.69,1.28,1.29,0.79,2.35c-0.06,0.14,0.25,0.45,0.4,0.68C22.98,11.51,22.75,11.59,22.49,11.6z"
			/>
		<path class="st64" d="M12.14,17.13c-0.01-1.12-0.03-2.23-0.04-3.35c-0.07-0.16-0.09-0.32-0.06-0.49c0.08-0.09,0.18-0.11,0.3-0.08
			c0.98,1.24,0.45,2.56,0.24,3.87C12.43,17.1,12.29,17.12,12.14,17.13z"/>
		<path class="st65" d="M19.81,13.03c-0.21-0.11-0.51-0.32-0.43-0.5c0.38-0.88-0.31-1.44-0.57-2.12c0.12-0.4,0.34-0.63,0.79-0.55
			c0.42,0.92,1.21,1.75,0.68,2.9C20.13,12.85,19.97,12.94,19.81,13.03z"/>
		<path class="st66" d="M20.29,12.76c0.07-1.03-0.74-1.83-0.72-2.84c-0.1-0.21,0.02-0.31,0.2-0.37c0.68,0.2,1.36,0.32,0.94,1.38
			c-0.18,0.45,0.51,1.05,0.04,1.62C20.59,12.62,20.44,12.69,20.29,12.76z"/>
		<path class="st67" d="M20.75,12.54c0.24-0.73-0.8-1.42-0.08-2.17c-0.29-0.24-0.58-0.49-0.86-0.73c-0.07-0.05-0.09-0.09-0.06-0.14
			c0.02-0.04,0.05-0.07,0.07-0.07c0.22-0.06,0.33-0.53,0.52-0.35c0.34,0.34,0.87,0.94,0.76,1.2c-0.3,0.74,0.31,1.32,0.15,1.98
			C21.08,12.36,20.91,12.45,20.75,12.54z"/>
		<path class="st68" d="M26.33,13.52c-0.09-0.07-0.17-0.15-0.26-0.22c0.23-0.18,0.46-0.36,0.69-0.54c0.78-0.36,1.13-0.83,0.4-1.57
			c0.14-0.06,0.28-0.12,0.42-0.18c1.05,1.12,1.06,1.13-0.21,1.98C27.05,13.2,26.68,13.35,26.33,13.52z"/>
		<path class="st69" d="M19.1,15.45c0.39,0.44,1.05-0.04,1.43,0.42c-0.67,0.48-1.4,0.53-2.17,0.31c-0.08-0.09-0.15-0.17-0.23-0.26
			C18.45,15.76,18.78,15.6,19.1,15.45z"/>
		<path class="st70" d="M26.2,9.88c-0.3-0.31-0.6-0.62-0.91-0.92c0.02-0.16,0.17-0.18,0.27-0.24c0.43,0.27,0.96,0.43,1.17,0.97
			C26.56,9.75,26.38,9.81,26.2,9.88z"/>
		<path class="st71" d="M13.04,16.89c0.21-0.85,0.39-0.95,1.5-0.79C14.04,16.37,13.54,16.63,13.04,16.89z"/>
		<path class="st72" d="M37.66,14.52c0.01,0.23-0.13,0.36-0.32,0.4s-0.4,0.01-0.45-0.23c-0.06-0.27,0.06-0.45,0.34-0.47
			C37.44,14.2,37.59,14.31,37.66,14.52z"/>
		<path class="st73" d="M32,6.33c-1.4,0.41-2.85,0.27-4.25,0.18c-1.89-0.13-3.51,0.41-5.05,1.38c-0.65,0.32-1.3,0.31-1.95,0
			c0.24-0.77,1.15-0.58,1.64-1.19c-0.59-0.25-1.1,0.07-1.61,0.06C17.09,6.73,13.39,6.75,9.7,6.74c-0.42,0-0.9,0.11-1.13-0.42
			C16.38,6.32,24.19,6.32,32,6.33z"/>
		<path class="st74" d="M20.75,7.89c0.65,0.11,1.3,0.13,1.95,0c1.03,0.02,1.99,0.26,2.86,0.83c-0.09,0.08-0.18,0.16-0.27,0.24
			c-1.03-0.56-2.13-0.8-3.31-0.66c-0.57-0.01-1.15-0.21-1.7,0.11c-0.55,0.12-1.1,0.24-1.65,0.37c-0.33,0.37-0.82,0.46-1.25,0.72
			c0.44,0.26,1.26-0.01,1.23,0.88c-0.37,0.17-0.75,0.32-1,0.67c-0.06,0.11-0.14,0.19-0.24,0.25c-0.38,0.12-0.77,0.35-1.16,0.03
			c-0.1-0.09-0.2-0.18-0.31-0.27c0.09-0.52,0.54-0.22,0.8-0.36c0.33-0.57-0.32-0.36-0.46-0.57c-0.46-0.44-0.89-0.76,0.16-1.11
			C17.84,8.53,19.23,7.98,20.75,7.89z"/>
		<path class="st75" d="M7.85,9.16c0-0.71-0.01-1.42-0.01-2.13C8.53,7.73,8.53,8.44,7.85,9.16z"/>
		<path class="st76" d="M18.36,16.18c0.68-0.41,1.45-0.2,2.17-0.31c1.89-0.32,3.59,0.37,5.3,1c-0.66,0.81-1.76,0.93-2.49,1.63
			c-0.21,0.1-0.42,0.19-0.63,0.29c-0.89,0.03-1.72,0.71-2.66,0.23c-0.07-0.73-0.6-0.69-1.13-0.73c-0.84-0.06-1.72,0.2-2.57-0.21
			C17.11,17.48,17.38,16.45,18.36,16.18z"/>
		<path class="st77" d="M30.38,11.85c0.54-0.1,0.43-1.46,1.41-0.73c0.39,0.66-0.42,0.89-0.47,1.38c-0.19,0.04,0.13,0.18,0.02,0.07
			c0.58-0.42,0.82-0.1,0.96,0.44c0.02,0.17-0.01,0.33-0.02,0.5c-0.4,0.37-0.9,0.58-1.41,0.76C29.93,13.61,30.2,12.72,30.38,11.85z"
			/>
		<path class="st78" d="M30.38,11.85c0.41,0.76-0.07,1.69,0.48,2.41c-0.56,0.31-1.12,0.62-1.68,0.93c0.19-1.02,0.23-2.06,0.68-3.03
			C29.98,11.9,30.12,11.8,30.38,11.85z"/>
		<path class="st79" d="M32.02,17.08c-0.83,0.81-1.47,0-2.17-0.26c0.82-0.47,1.64-0.95,2.46-1.42c0.21-0.06,0.29,0.07,0.34,0.23
			C32.57,16.17,32.34,16.65,32.02,17.08z"/>
		<path class="st80" d="M27.7,18.03c0.8,0.15,1.64-0.2,2.41,0.22c-1.14,0.09-2.28,0.18-3.42,0.28C26.97,18.26,27.3,18.08,27.7,18.03
			z"/>
		<path class="st81" d="M32.54,15.65c-0.08-0.08-0.15-0.17-0.23-0.25c0.25-0.28,0.55-0.46,0.93-0.47c-0.04,0.42,0.11,0.86-0.2,1.23
			c-0.08-0.08-0.17-0.17-0.25-0.25C32.63,15.89,32.61,15.75,32.54,15.65z"/>
		<path class="st82" d="M32.28,13.51c-0.08-0.09-0.15-0.18-0.23-0.27c0.4-0.52-0.37-1.23,0.27-1.7c0.35,0.49,0.22,1.12,0.45,1.64
			C32.61,13.29,32.44,13.4,32.28,13.51z"/>
		<path class="st83" d="M6.85,12.08c0.03,0.23,0.06,0.46,0.08,0.7C6.1,13.3,5.65,13.14,5.7,12.09c0.14-0.08,0.29-0.16,0.43-0.23
			C6.5,11.54,6.7,11.74,6.85,12.08z"/>
		<path class="st84" d="M6.85,12.08C6.61,12,6.38,11.93,6.14,11.85C6.1,11.8,6.1,11.74,6.12,11.68c-0.23-0.92,0.37-0.87,0.96-0.83
			C7.04,11.26,7.26,11.73,6.85,12.08z"/>
		<path class="st85" d="M7.09,10.85c-0.51,0.06-0.94,0.2-0.96,0.83c-0.22-0.13-0.61-0.03-0.63-0.38c-0.02-0.29,0.33-0.26,0.52-0.35
			c0.34-0.16,0.67-0.39,1.08-0.35C7.09,10.68,7.09,10.76,7.09,10.85z"/>
		<path class="st86" d="M20.05,19.01c0.9,0.04,1.73-0.63,2.66-0.23c-0.47,0.42-1.11,0.48-1.66,0.72c-1.22,0.17-2.43,0.18-3.65-0.01
			c-1.5-0.24-2.99-0.48-4.49-0.72c0.55-0.37,1.13-0.22,1.72-0.11C16.42,19.01,18.23,19.01,20.05,19.01z"/>
		<path class="st87" d="M17.4,19.49c1.22,0,2.43,0.01,3.65,0.01c-0.01,0.07-0.03,0.15-0.05,0.22C19.8,19.62,18.57,20,17.4,19.49z"/>
		<path class="st88" d="M10.71,12.76c-0.16,0.08-0.32,0.17-0.48,0.25c-0.15-0.35,0.29-1.06-0.59-0.97c-0.7-0.09-0.01-0.75-0.39-0.97
			c0-0.13,0-0.26,0-0.38c0.23-0.04,0.45-0.08,0.68-0.12c0.27,0.17,0.54,0.34,0.81,0.52c0.06,0.09,0.1,0.19,0.12,0.29
			C10.84,11.84,10.92,12.31,10.71,12.76z"/>
		<path class="st89" d="M12.34,13.22c-0.06-0.01-0.12-0.02-0.17-0.03c-0.15-0.07-0.17-0.21-0.19-0.35c0.02-0.23-0.14-0.46,0.01-0.68
			c0.54-0.29,1.08-0.58,1.62-0.86c0.26,0.24,0.51,0.48,0.77,0.73C13.75,12.51,12.91,12.63,12.34,13.22z"/>
		<path class="st90" d="M16.7,10.69c-0.27,0.12-0.53,0.24-0.8,0.36c-0.48-0.03-0.96-0.05-1.44-0.08c0.02-0.12,0.05-0.24,0.08-0.36
			C15.26,10.64,15.98,10.66,16.7,10.69z"/>
		<path class="st91" d="M11.99,12.15c0.06,0.22,0.57,0.34,0.15,0.67c-0.8-0.18-1.12-0.79-1.37-1.48c-0.01-0.09-0.02-0.17-0.03-0.26
			C11.49,11.04,11.56,11.81,11.99,12.15z"/>
		<path class="st92" d="M32.54,15.65c0.08,0.08,0.16,0.17,0.25,0.25c-0.16,0.45-0.28,0.94-0.77,1.18
			C32.03,16.54,32.38,16.13,32.54,15.65z"/>
		<path class="st93" d="M8.01,5.59C6.38,4.93,4.95,3.97,3.72,2.71c8.97,0,17.95,0,26.94,0c-0.04,0.58-0.63,0.37-0.78,0.71
			c-1.67,0.53-3.2,1.34-4.75,2.14C19.43,5.56,13.72,5.57,8.01,5.59z"/>
		<path class="st94" d="M32.32,11.54c-0.11,0.57,0.17,1.19-0.27,1.7c-0.03-0.19,0-0.47-0.11-0.54c-0.77-0.54-0.78-0.53-0.16-1.46
			c0.02-0.03,0.01-0.08,0.02-0.11C32.06,11.14,32.21,11.31,32.32,11.54z"/>
		<path class="st95" d="M10.97,13.64c1.44,1.17-0.43,1.4-0.25,2.13C10.22,15.01,10.99,14.49,10.97,13.64z"/>
		<path class="st96" d="M10.76,11.34c0.62,0.34,0.73,1.16,1.37,1.48c0.01,0.12,0.02,0.24,0.03,0.36c-0.02,0.2-0.04,0.4-0.07,0.6
			c-0.25-0.38-0.5-0.76-0.74-1.15c-0.33-0.54-0.45,0-0.65,0.12C10.81,12.29,10.23,11.79,10.76,11.34z"/>
		<path class="st97" d="M16.21,11.32c0.39-0.07,0.78-0.14,1.17-0.2c0.18,0.53,0.16,1.09,0.26,1.64c-0.24,0.01-0.47,0.01-0.71,0.02
			c-0.52-0.11-0.21-0.67-0.5-0.9C16.16,11.76,15.82,11.68,16.21,11.32z"/>
		<path class="st98" d="M16.42,11.87c0.39,0.18,0.31,0.61,0.5,0.9c-0.41,0.23-0.82,0.45-1.27,0.7
			C15.17,12.52,16.28,12.43,16.42,11.87z"/>
		<path class="st99" d="M17.63,12.75c-0.61-0.47-0.54-1.04-0.26-1.64c0.08-0.02,0.16-0.05,0.24-0.07c0.46,0.49,0.19,1.3,0.76,1.75
			C18.13,12.78,17.88,12.76,17.63,12.75z"/>
		<path class="st100" d="M18.61,10.37c-0.35-0.78-1.29-0.27-1.79-0.87c0.57-0.33,1.11-0.73,1.81-0.74c0.39,0.22,0.79,0.44,1.18,0.67
			C19.8,9.5,19.8,9.57,19.8,9.63c-0.08,0.09-0.16,0.18-0.24,0.28c-0.25,0.16-0.5,0.33-0.76,0.49C18.74,10.4,18.68,10.39,18.61,10.37
			z"/>
	</g>
</g>
</svg>
