<?xml version="1.0" encoding="utf-8"?>
<!-- Generator: Adobe Illustrator 23.0.2, SVG Export Plug-In . SVG Version: 6.00 Build 0)  -->
<svg version="1.1" id="Camada_1" xmlns="http://www.w3.org/2000/svg" xmlns:xlink="http://www.w3.org/1999/xlink" x="0px" y="0px"
	 viewBox="0 0 46.65 25.69" style="enable-background:new 0 0 46.65 25.69;" xml:space="preserve">
<style type="text/css">
	.st0{fill:#FDFDFD;}
	.st1{fill:#0D0A0C;}
	.st2{fill:#2164C8;}
	.st3{fill:#4E8DBF;}
	.st4{fill:#3976A8;}
	.st5{fill:#E0F1F9;}
	.st6{fill:#3890D2;}
	.st7{fill:#E0F0F9;}
	.st8{fill:#8EC3EB;}
	.st9{fill:#3D77A5;}
	.st10{fill:#59A7E2;}
	.st11{fill:#90C4EB;}
	.st12{fill:#4A2C0E;}
	.st13{fill:#256AC8;}
	.st14{fill:#FAFCFD;}
	.st15{fill:#5BA9E2;}
	.st16{fill:#70B1E4;}
	.st17{fill:#167653;}
	.st18{fill:#F1F8FC;}
	.st19{fill:#D8D138;}
	.st20{fill:#5DACE3;}
	.st21{fill:#EDF7FC;}
	.st22{fill:#CD9D16;}
	.st23{fill:#9FC8D6;}
	.st24{fill:#5F3422;}
	.st25{fill:#53A2DF;}
	.st26{fill:#1E6F36;}
	.st27{fill:#5AA7E5;}
	.st28{fill:#4A72A3;}
	.st29{fill:#025BFC;}
	.st30{fill:#C7E9FC;}
	.st31{fill:#E8F5FB;}
	.st32{fill:#90C4EC;}
	.st33{fill:#5591C3;}
	.st34{fill:#E1EFF7;}
	.st35{fill:#EBF4F9;}
	.st36{fill:#609AA4;}
	.st37{fill:#58A7E2;}
	.st38{fill:#89BE6C;}
	.st39{fill:#CFC030;}
	.st40{fill:#568692;}
	.st41{fill:#D5D13A;}
	.st42{fill:#0E7141;}
	.st43{fill:#4D3013;}
	.st44{fill:#0D6E3B;}
	.st45{fill:#D6D13A;}
	.st46{fill:#BC9C24;}
	.st47{fill:#D6D034;}
	.st48{fill:#18764E;}
	.st49{fill:#BD800B;}
	.st50{fill:#D4CF3A;}
	.st51{fill:#BF7F09;}
	.st52{fill:#8DC2EB;}
	.st53{fill:#9BCAEE;}
	.st54{fill:#378FD2;}
	.st55{fill:#81B96A;}
	.st56{fill:#84BA69;}
	.st57{fill:#308A5D;}
	.st58{fill:#10744A;}
	.st59{fill:#D9EDF9;}
	.st60{fill:#D0E8F8;}
	.st61{fill:#804329;}
	.st62{fill:#C1941A;}
	.st63{fill:#B34444;}
	.st64{fill:#E7F3F6;}
	.st65{fill:#A63A43;}
	.st66{fill:#D5C632;}
	.st67{fill:#C48106;}
	.st68{fill:#5693C4;}
	.st69{fill:#3B661E;}
	.st70{fill:#387A20;}
	.st71{fill:#EFFCFE;}
	.st72{fill:#308B65;}
	.st73{fill:#65A350;}
</style>
<g>
	<path class="st0" d="M26.58,25.62c-5.36,0-10.72-0.17-16.07,0.06c-3.27,0.14-5.39-1.86-7.84-3.31c-1.93-1.14-2.77-2.8-2.67-5.18
		C0.2,12.81,0.03,8.41,0.1,4.01c0.04-2.69,0.56-3.97,4.1-3.99c8.75-0.06,17.51,0.02,26.26,0.04c1.08,0,2.16-0.01,3.24-0.05
		c3.32-0.13,6.08,1.4,8.82,2.99c0.55,0.32,1.04,0.77,1.61,1.04c2,0.98,2.56,2.63,2.52,4.73c-0.07,3.75-0.02,7.5,0,11.26
		c0.01,0.85-0.09,1.67-0.29,2.49c-0.55,2.31-1.57,3.14-3.95,3.14c-5.28,0.01-10.55,0-15.83,0C26.58,25.65,26.58,25.64,26.58,25.62z"
		/>
	<path class="st1" d="M26.49,23.89c-5.32,0-10.64-0.17-15.94,0.07c-2.76,0.12-4.41-1.7-6.53-2.74c-0.49-0.24-0.89-0.67-1.32-1.03
		c-0.72-0.59-0.96-1.27-0.97-2.28c-0.02-4.75,0.37-9.5-0.06-14.25C1.58,2.72,2.05,2.05,3.03,1.85C3.37,1.78,3.74,1.79,4.1,1.79
		c9.67,0,19.35,0.08,29.02-0.05c2.75-0.04,5.07,0.9,7.37,2.08c1.2,0.62,2.3,1.44,3.45,2.16c0.69,0.43,0.91,1.07,0.92,1.83
		c0.01,4.36,0.02,8.71,0.01,13.07c0,0.47-0.13,0.95-0.2,1.42c-0.2,1.19-0.9,1.65-2.1,1.64c-5.36-0.03-10.71-0.01-16.07-0.01
		C26.49,23.91,26.49,23.9,26.49,23.89z"/>
	<path class="st2" d="M43.34,21.56c0.03,0.71-0.29,0.95-1.01,0.95c-10.63-0.04-21.27-0.09-31.9-0.03c-2.46,0.01-4-1.62-5.89-2.66
		c-1.09-0.6-1.4-1.46-1.36-2.72C3.31,12.76,3.29,8.4,3.33,4.05c0.59,0.24,0.45,0.78,0.46,1.22C3.81,6.57,3.79,7.89,3.8,9.2
		c0,0.29-0.15,0.65,0.24,0.84c0.12,0.02,0.23,0.06,0.33,0.1c1.44,0.39,2.96,0.3,4.4,0.7c0.26-0.01,0.51,0.02,0.77,0.02
		c2.51-0.55,4.97-0.47,7.34,0.62c0.36,0.16,0.79,0.1,1.19,0.11c0.43,0.06,0.97,0.1,0.98,0.65c0.01,0.49-0.47,0.55-0.88,0.59
		c-0.63-0.15-1.28-0.08-1.92-0.17c-1.77-0.78-3.57-1.26-5.52-0.67c-0.26,0.08-0.56,0.02-0.72,0.32c-0.15,0.26-0.2,0.54-0.22,0.83
		c-0.02,0.81,0.03,1.61,0,2.42c-0.02,0.51-0.01,1.03-0.03,1.55c-0.03,0.6,0.28,0.77,0.8,0.75c0.39,0.25,0.37,0.61,0.26,0.99
		c-0.15,0.29-0.41,0.45-0.68,0.61c-0.58,0.47-0.45,1.13-0.24,1.63c0.25,0.58,0.9,0.34,1.4,0.29c0.36-0.03,0.7-0.13,1.07-0.1
		c1.12,0.32,2.2-0.22,3.31-0.1c2.89,0.33,5.78,0.26,8.68,0.26c0.52,0,1.03,0.04,1.54-0.11c0.21-0.05,0.41-0.06,0.62-0.04
		c0.86,0.2,1.74,0.14,2.62,0.15c3.74,0.01,7.49,0,11.47,0c-2.2-0.82-4.1-1.76-6.14-2.35c-0.19-0.24-0.11-0.47,0.05-0.68
		c0.97-0.39,0.76-1.22,0.75-1.99c0.17-0.38,0.47-0.54,0.88-0.52c0.57,0.25,0.35,0.74,0.3,1.14c-0.09,0.81,0.18,1.43,0.93,1.74
		c1.6,0.67,3.13,1.52,4.86,1.86c0.43-0.29,0.24-0.73,0.24-1.09c0.02-2.02,0.01-4.04,0.01-6.06c0-0.44,0-0.87,0.16-1.29
		c0.2-0.24,0.28-0.76,0.77-0.34C43.39,15.07,43.52,18.32,43.34,21.56z"/>
	<path class="st3" d="M3.99,10.21c-0.37,0.36-0.54,0.38-0.52-0.24c0.03-1.55,0.02-3.1,0.01-4.65c0-0.43,0.1-0.88-0.14-1.28
		c-0.29-0.45-0.4-0.83,0.36-0.83c0.48,0,0.96,0.01,1.44,0.01c9.79,0,19.58,0,29.37,0c0.55,0,1.13-0.13,1.61,0.28
		c0,0.44-0.35,0.46-0.64,0.54c-7.61,0.08-15.22,0.01-22.84,0.04C10.16,4.09,7.68,4.07,5.22,4.1C4.56,4.05,4.14,4.26,4.2,5.01
		c-0.31,1.29-0.08,2.6-0.15,3.9C4.03,9.35,4.14,9.79,3.99,10.21z"/>
	<path class="st4" d="M35.52,3.78c0.22-0.03,0.45-0.06,0.58-0.27c2.58,0.72,4.78,2.16,6.97,3.63c0.3,0.2,0.42,0.45,0.41,0.8
		c-0.01,4.43,0,8.87-0.01,13.3c0,0.11-0.09,0.22-0.13,0.32c-0.01-3.3-0.03-6.6-0.04-9.9c-0.22-0.27-0.57-0.42-0.7-0.78
		c-0.15-0.59-0.07-1.19-0.1-1.78c-0.02-0.4,0.02-0.83-0.53-0.92c-1.43-0.06-2.85,0-4.28-0.03c-0.47-0.01-0.96,0.06-1.34-0.33
		C36.52,7,37.18,7.17,37.72,7.2c0.83,0.05,1.65,0.13,2.45-0.17c0.24-0.06,0.47,0,0.79,0.02c-1.12-0.85-2.28-1.52-3.5-2.08
		c-0.28-0.13-0.67-0.61-0.99,0c-0.13,0.79,0.17,1.63-0.3,2.37c-0.32,0.15-0.51-0.03-0.69-0.26c-0.33-0.88-0.17-1.8-0.16-2.7
		C35.33,4.16,35.41,3.96,35.52,3.78z"/>
	<path class="st5" d="M12.1,21.5c-0.27,0.06-0.54,0.14-0.82,0.17c-1.7,0.18-2.43-0.87-1.71-2.47c0.03-0.06,0.22-0.05,0.33-0.07
		c0.54,1.14,0.54,1.14,2.04,0.55c0.09-0.05,0.19-0.09,0.29-0.12c0.47-0.21,0.95-0.39,1.42-0.62c0.18-0.1,0.35-0.2,0.54-0.28
		c0.19-0.08,0.37-0.16,0.54-0.27c0.5-0.38,1.15-0.49,1.62-0.92c0.93-0.57,1.89-1.08,2.81-1.66c0.52-0.28,0.93-0.73,1.47-0.97
		c0.24-0.08,0.49-0.11,0.72-0.2c0.18-0.07,0.35-0.15,0.52-0.23c0.17-0.09,0.34-0.18,0.49-0.29c0.16-0.12,0.33-0.23,0.5-0.33
		c0.42-0.22,0.84-0.44,1.27-0.64c1.3-0.45,2.31-1.49,3.68-1.78c0.21-0.07,0.42-0.15,0.63-0.23c2.22-1.07,4.58-1.83,6.69-3.14
		c0.47,0.02,0.58,0.39,0.7,0.74c0.05,0.25,0.03,0.49-0.07,0.73c-0.5,0.71-1.37,0.87-2.02,1.37c-0.79,0.29-1.54,0.67-2.28,1.07
		c-0.7,0.45-1.44,0.83-2.22,1.12c-0.1,0.06-0.19,0.1-0.29,0.15c-1.22,0.79-2.6,1.27-3.86,1.99c-0.67,0.23-1.24,0.66-1.88,0.96
		c-0.37,0.19-0.79,0.3-1.15,0.52c-0.34,0.24-0.68,0.5-1.06,0.69c-0.38,0.19-0.76,0.38-1.14,0.57c-0.44,0.21-0.88,0.43-1.3,0.67
		c-1.34,0.7-2.74,1.26-4.12,1.86c-0.09,0.06-0.19,0.11-0.28,0.16C13.6,21.18,12.84,21.33,12.1,21.5z"/>
	<path class="st6" d="M42.17,20.99c-1.51-0.58-3.03-1.14-4.53-1.74c-1.45-0.59-1.71-1.09-1.46-2.64c0.04-0.23,0.19-0.45-0.08-0.63
		c0-0.04-0.03-0.1-0.01-0.12c1.72-1.54,3.61-2.73,5.95-3.06c0.32,0.24,0.4,0.6,0.4,0.96c0.03,2.15,0.03,4.31,0,6.46
		C42.44,20.51,42.37,20.77,42.17,20.99z"/>
	<path class="st7" d="M41.63,12.88c-1.88,0.96-3.81,1.84-5.53,3.1c-0.28,0.1-0.55,0.2-0.72,0.47c-0.12,0.17-0.26,0.33-0.45,0.42
		c-0.32,0.16-0.65,0.32-0.95,0.54c-0.79,0.47-1.57,0.97-2.39,1.4c-0.95,0.67-2.02,1.11-3.03,1.67c-0.67,0.38-1.32,0.83-2.1,0.98
		c-0.14,0.03-0.27,0.07-0.41,0.1c-1.11,0.1-2.21,0.1-3.32,0c-0.04-0.98,0.99-0.73,1.38-1.21c1.07-0.64,2.2-1.18,3.25-1.85
		c0.34-0.19,0.69-0.35,1.03-0.54c0.79-0.38,1.57-0.77,2.34-1.18c0.56-0.31,1.1-0.67,1.68-0.94c0.47-0.23,0.95-0.43,1.39-0.72
		c0.17-0.12,0.35-0.24,0.53-0.36c0.48-0.37,1.05-0.57,1.55-0.9c0.13-0.11,0.26-0.2,0.4-0.29c0.74-0.4,1.39-0.99,2.27-1.12
		c0.84-0.19,1.62-0.84,2.56-0.36C41.46,12.25,41.93,12.32,41.63,12.88z"/>
	<path class="st8" d="M18.1,11.9c-1.01,0.04-1.98-0.16-2.89-0.58c-1.28-0.59-2.55-0.76-3.93-0.32c-0.55,0.18-1.18,0.12-1.77,0.17
		c-0.1-0.08-0.13-0.17-0.1-0.29c0.42-0.79,0.21-1.54-0.12-2.29c0.03-0.67,0.44-0.76,0.98-0.65c0.47,0.27,0.98,0.3,1.5,0.29
		c3.85-0.05,7.7,0.11,11.55-0.09c0.32-0.02,0.68-0.06,0.81,0.31c0.14,0.4-0.21,0.54-0.48,0.7c-0.24,0.14-0.52,0.2-0.74,0.37
		c-0.3,0.44-0.76,0.51-1.24,0.55c-1.07,0.1-2.04,0.49-3.04,0.87C18.09,11.14,18.08,11.47,18.1,11.9z"/>
	<path class="st9" d="M10.2,8.07C9.59,7.95,9.4,8.24,9.49,8.79c0.33,0.71,0.32,1.43,0.01,2.14c-0.02,0.08-0.01,0.15,0.02,0.22
		c-0.27-0.01-0.54-0.01-0.81-0.02c-0.43-0.61-0.25-1.31-0.25-1.97c0-0.75-0.23-1.27-0.93-1.64C6.36,6.93,5.39,6.03,4.4,5.18
		c-0.12-0.15-0.2-0.31-0.2-0.5C4.11,4.39,3.61,4.22,3.84,3.89C4.08,3.56,4.4,3.92,4.68,3.99C5.11,4,5.45,4.21,5.76,4.47
		c0.36,0.25,0.72,0.5,1.06,0.78c1.48,1.18,3.1,1.82,5.06,1.77c4.31-0.1,8.62,0,12.94-0.05c1.27-0.01,2.52,0.57,3.79,0.13
		c0.21-0.05,0.43-0.08,0.65-0.09c2.13,0,4.26-0.18,6.38,0.09c0.16,0.08,0.31,0.16,0.47,0.24c0.2-0.05,0.27,0.03,0.24,0.22
		c0.58,0.52,1.29,0.22,1.93,0.24c1.38,0.06,2.77,0.05,4.15,0.06c-0.26,0.62-0.83,0.5-1.32,0.52c-1.49,0.05-2.99-0.04-4.48,0.06
		c-0.38-0.06-0.6,0.4-0.98,0.33c-0.16-0.23-0.33-0.47-0.49-0.7c-0.47,0.36-1.02,0.37-1.57,0.33c-2.68,0-5.36,0.11-8.02,0
		c-4.78-0.21-9.56-0.01-14.33-0.11C10.87,8.3,10.51,8.28,10.2,8.07z"/>
	<path class="st10" d="M26.47,21.47c0.52-0.56,1.28-0.74,1.87-1.18c1.2-0.28,2.4-0.58,3.65-0.56c0.92,0.02,1.63-0.6,2.47-0.81
		c2.59,0.19,4.65,1.83,7.11,2.45c-0.23,0.48-0.55,0.35-0.8,0.35c-4.35,0.01-8.69,0.01-13.04,0.01
		C27.29,21.73,26.85,21.72,26.47,21.47z"/>
	<path class="st10" d="M4.41,11.21c1.21,0.14,2.42,0.27,3.64,0.41c0.42,0.05,0.82,0.1,0.69,0.69c-0.02,0.05-0.04,0.11-0.05,0.16
		C8,12.7,7.74,13.19,7.82,13.88c-0.13,0.11-0.29,0.17-0.46,0.2c-0.22,0.09-0.64-0.07-0.56,0.4c0.05,0.25,0.12,0.66,0.45,0.59
		c0.97-0.22,1.09,0.45,1.27,1.1c0.43,0.53,0.2,1.15,0.21,1.73c0.01,0.52-0.43,0.49-0.78,0.48c-1.19-0.01-2.39-0.03-3.58-0.04
		c-0.28-0.33-0.3-0.72-0.3-1.13c0-1.63-0.01-3.26,0-4.89C4.08,11.92,4.11,11.52,4.41,11.21z"/>
	<path class="st11" d="M4.43,4.94C5.77,5.78,6.85,7,8.32,7.65c0.38,0.17,0.47,0.5,0.46,0.88C8.75,9.4,8.73,10.27,8.7,11.14
		c-1.17-0.21-2.33-0.47-3.52-0.45c-0.42,0.01-0.8-0.01-1.01-0.44C4.03,8.88,4.08,7.51,4.09,6.14C4.09,5.71,4.07,5.27,4.43,4.94z"/>
	<path class="st12" d="M18.1,11.9c-0.18-0.3-0.78-0.24-0.71-0.7c0.06-0.37,0.52-0.28,0.79-0.41c1.4-0.71,2.94-0.95,4.46-1.22
		c0.53-0.43,1.14-0.41,1.77-0.32c1.17,0.23,2.39,0.35,3.34,1.19c0.3,0.27,0.83,0.41,0.64,1c-0.15,0.07-0.3,0.13-0.46,0.2
		c-0.65-0.2-1.14-0.69-1.76-0.95c-1.01-0.42-2.05-0.5-3.11-0.19c-0.86,0.07-1.73,0.06-2.57,0.28c-0.64,0.06-1.18,0.42-1.85,0.59
		c-0.1,0.01,0.09,0.24,0.03,0.09c0.7-0.23,1.31-0.17,1.67,0.58c-0.12,0.52-0.6,0.69-0.97,0.95c-0.1,0.05-0.21,0.09-0.32,0.12
		c-0.44,0.09-0.87,0.22-1.31,0.31c-0.08,0.02-0.16,0.02-0.23,0.05c-0.45,0.18,0.06,0.05,0.03,0.09c0.88,0.14,0.51,0.56,0.17,1
		c0.37,0.06,0.62-0.17,0.91-0.22c0.23-0.06,0.46-0.09,0.69-0.1c0.24-0.01,0.48,0.01,0.72,0.06c0.32,0.15,0.75,0.17,0.7,0.7
		c-0.44,0.47-0.97,0.82-1.52,1.13c-0.3-0.28-0.19-0.47,0.15-0.63c-0.6,0.05-1.12,0.3-1.65,0.56c-1.01,0.5-1.21,0.39-1.33-0.78
		c-0.05-0.49-0.09-0.96-0.52-1.28c-0.29-0.31-0.71-0.55-0.68-1.06c0.26-0.41,0.67-0.34,1.06-0.32c0.65,0.08,1.29-0.13,1.95-0.05
		c0.24-0.07,0.49-0.15,0.79-0.24C18.76,11.92,18.41,11.94,18.1,11.9z"/>
	<path class="st13" d="M36.33,13.76c-0.09,0.1-0.17,0.2-0.26,0.3c-0.69,0.23-0.67-0.33-0.74-0.71c-0.32-1.66-0.31-1.65-2.03-1.56
		c-0.4,0.02-0.77,0.16-1.16,0.21c-0.31,0.04-0.73,0.25-0.83-0.32c0.73-0.49,1.52-0.83,2.38-1.01c0.6-0.27,1.24-0.3,1.87-0.36
		c0.26-0.03,0.52,0.05,0.78,0.04c1.64,0.05,3.31-0.15,4.83,0.67c0.55,0.14,1.13,0,1.68,0.15c0.61-0.27,0.42,0.21,0.44,0.48
		c-0.17,0.17-0.35,0.33-0.52,0.5c-0.38,0.34-0.79,0.28-1.21,0.11c-0.86-0.34-1.71-0.45-2.56,0.02c-0.14-0.07-0.32-0.12-0.26-0.33
		c0.08-0.31,0.09-0.32-0.01-0.29c-0.2,0.05-0.39,0.06-0.59,0.07c-1.57,0.09-1.57,0.09-1.66,1.71
		C36.48,13.57,36.42,13.67,36.33,13.76z"/>
	<path class="st14" d="M39.05,12.18c0.68-0.49,1.39-0.61,2.14-0.19c0.52,0.3,1.06,0.13,1.6,0.18c0.01,2.78,0.01,5.56,0.02,8.34
		c0,0.42,0.13,1.03-0.63,0.49c-0.01-2.39-0.01-4.78-0.05-7.17c-0.01-0.36,0.29-0.96-0.49-0.94c-0.51-0.77-1.21-0.84-2-0.52
		c-0.36,0.14-0.62,0.68-1.12,0.28C38.4,12.14,38.85,12.31,39.05,12.18z"/>
	<path class="st15" d="M16.13,12.74c-0.3,0.07-0.67-0.04-0.86,0.32c-0.28,0.64-0.92,0.79-1.45,1.08c-0.59-0.05-0.77-0.62-1.15-0.93
		c-0.39-0.31-0.69-0.79-1.31-0.59c-0.6,0.03-1.25,0.26-1.61-0.5c0.02-0.11,0.05-0.33,0.07-0.33c1.5,0,2.97-0.92,4.51-0.17
		c0.6,0.29,1.25,0.51,1.87,0.76C16.32,12.54,16.33,12.67,16.13,12.74z"/>
	<path class="st16" d="M22.69,21.27c1.08,0.59,2.25,0.09,3.36,0.29c-1.12,0.37-2.27,0.12-3.41,0.18c-3.09,0.17-6.17-0.51-9.26-0.05
		c-0.41,0.06-0.85-0.12-1.28-0.19c0.55-0.53,1.41-0.52,1.91-1.13c2.46,0.05,4.86,0.79,7.34,0.58
		C21.81,20.91,22.32,20.86,22.69,21.27z"/>
	<path class="st17" d="M34.46,18.91c-0.42,0.5-0.91,0.83-1.58,0.94c-1.5,0.26-3.01,0.48-4.54,0.43c1.06-0.56,2.12-1.13,3.17-1.69
		c0.2-0.1,0.39-0.02,0.57,0.03c1.53,0.41,1.95,0.08,1.84-1.45c0.3-0.2,0.57-0.45,0.96-0.46c0.49,0.6,0.22,1.12-0.16,1.64
		C34.63,18.54,34.55,18.73,34.46,18.91z"/>
	<path class="st18" d="M4.41,11.21c-0.01,2.37-0.02,4.75-0.03,7.12c-0.59,0.04-0.6-0.34-0.6-0.77c0-1.9,0-3.8-0.02-5.69
		C3.75,11.38,3.85,11.1,4.41,11.21z"/>
	<path class="st19" d="M9.75,12.13c0.56,0.37,1.18,0.3,1.8,0.24c1.16,0.3,1.23,1.13,1.03,2.1c-0.15,0.32-0.34,0.54-0.73,0.33
		c-0.31-0.11-0.02-0.8-0.61-0.65c-0.21-0.05-0.34-0.19-0.44-0.36c-0.06,0.16,0.07,0.29,0.05,0.45c-0.03,0.19-0.02,0.39-0.02,0.59
		c-0.01,0.24-0.06,0.49-0.36,0.53c-0.29,0.04-0.4-0.19-0.49-0.41c-0.26-0.66-0.16-1.41-0.46-2.06C9.36,12.54,9.65,12.37,9.75,12.13z
		"/>
	<path class="st20" d="M5.1,19.09c0.87,0,1.43,0,1.98,0c1.91,0,1.96,0.07,1.5,2.14C7.49,20.55,6.41,19.89,5.1,19.09z"/>
	<path class="st21" d="M4.43,4.94c0.01,1.61,0.01,3.22,0.05,4.82c0.01,0.29-0.02,0.45-0.31,0.49c-0.06-0.03-0.12-0.05-0.19-0.04
		C3.56,8.47,3.8,6.71,3.86,4.95c0-0.1,0.22-0.18,0.34-0.28C4.28,4.76,4.35,4.85,4.43,4.94z"/>
	<path class="st22" d="M9.51,12.86c0.78,0.58,0.42,1.61,0.93,2.46c0.26-0.84-0.12-1.66,0.33-2.4c0.44,0.34,0,0.95,0.5,1.16
		c0.41,0.73-0.12,1.15-0.51,1.62c-0.42,0.19-0.83,0.41-1.26,0.03C9.5,14.77,9.51,13.82,9.51,12.86z"/>
	<path class="st23" d="M9.5,15.72c0.41,0.15,0.77-0.16,1.17-0.15c0.8,0.39,0.12,0.89,0.11,1.34c-0.06,0.34-0.01,0.71-0.26,1
		c-0.76,0.63-1.18,0.58-1.08-0.54C9.47,16.83,9.47,16.28,9.5,15.72z"/>
	<path class="st24" d="M8.54,16.16c-0.08-0.01-0.21,0.01-0.23-0.03c-0.26-0.66-0.54-1.21-1.33-0.5c-0.1,0.09-0.36-0.1-0.3-0.24
		c0.24-0.64-0.3-0.97-0.7-1.53c0.57,0,0.98,0,1.39,0c0.26,0.55,0.73,0.66,1.27,0.61c0.5,0.47,0.31,1,0.14,1.52
		C8.7,16.05,8.62,16.11,8.54,16.16z"/>
	<path class="st25" d="M12.09,19.88c-0.21,0.09-0.42,0.19-0.64,0.28c-1.57,0.69-1.57,0.69-1.55-1.03c0.29-0.09,0.57-0.18,0.86-0.27
		C11.38,18.97,11.66,19.52,12.09,19.88z"/>
	<path class="st26" d="M12.09,19.88c-0.72,0.02-0.97-0.56-1.32-1.01c-0.09-0.32-0.17-0.63-0.26-0.95c-0.07-0.4-0.09-0.79,0.06-1.18
		c0.45,0.1,0.59,0.46,0.71,0.84c-0.06,0.94,0.78,1.45,1.08,2.21C12.27,19.82,12.18,19.85,12.09,19.88z"/>
	<path class="st27" d="M34.72,18.35c0.05-0.55,0.11-1.09,0.16-1.64c0.17-0.09,0.33-0.18,0.5-0.27
		C35.51,17.21,36.28,18.19,34.72,18.35z"/>
	<path class="st28" d="M8.78,16C8.52,15.54,8.92,15,8.6,14.55c-0.3-0.14-0.3-0.41-0.29-0.69c0.1-0.51,0.08-1.06,0.43-1.49
		c0,0,0-0.07,0-0.07c0.08,0.03,0.17,0.06,0.25,0.08c0.19,1.2,0.2,2.4-0.01,3.59C8.91,15.99,8.84,15.99,8.78,16z"/>
	<path class="st29" d="M8.98,15.98c0-1.2,0.01-2.4,0.01-3.59C9.41,13.59,9.36,14.79,8.98,15.98z"/>
	<path class="st30" d="M16.13,12.74c0.03-0.12,0.05-0.23,0.08-0.35c0.66,0.01,1.34-0.12,1.98,0.18
		C17.52,12.84,16.83,12.86,16.13,12.74z"/>
	<path class="st31" d="M29.12,7.32c-0.14,0.02-0.28,0.05-0.43,0.07c-0.63,0.12-1.26,0.11-2.21-0.06c1.62-1.35,3.42-1.78,4.85-2.52
		c-4.79,0.04-9.77,0.01-14.75,0.01c-3.07,0-6.14,0-9.22,0C6.68,4.83,6,4.82,5.39,4.47c-0.23-0.16-0.47-0.32-0.7-0.48
		C5.1,3.62,5.6,3.79,6.06,3.79c9.82-0.01,19.64-0.01,29.46-0.01c0.02,0.15,0.05,0.29,0.07,0.44c-0.15,0.07-0.29,0.06-0.43-0.04
		c-0.43-0.15-0.87-0.07-1.31-0.07C24.79,4.09,15.72,4.13,6.65,4.08c-0.08,0-0.15,0.01-0.16,0.03c9.47,0.01,18.97-0.01,28.47,0.02
		c0.29,0.17,0.28,0.45-0.01,0.48C32.68,4.81,31.13,6.55,29.12,7.32z"/>
	<path class="st32" d="M29.12,7.32c1.84-1.3,3.51-2.96,6.02-2.87c0.06-0.1,0.16-0.16,0.28-0.17c0.06-0.01,0.12-0.03,0.18-0.05
		c0.02,0.96,0.03,1.92,0.05,2.89c-0.17,0.29-0.45,0.29-0.73,0.28C32.99,7.37,31.05,7.34,29.12,7.32z"/>
	<path class="st33" d="M36.36,7.57c-0.08-0.07-0.16-0.15-0.24-0.22c0.01-0.97,0.02-1.95,0.03-2.92c1.53,0.36,2.77,1.26,4.03,2.13
		c0.17,0.12,0.41,0.29,0.18,0.57c-0.58,0.82-1.44,0.42-2.16,0.42C37.58,7.54,36.97,7.48,36.36,7.57z"/>
	<path class="st34" d="M42.86,11.18c-0.5,0.45-1.09,0.14-1.64,0.19c-0.46-0.48,0.12-0.69,0.28-0.98c0.56-1.05,0.24-1.71-0.97-1.74
		c-1.18-0.02-2.4-0.21-3.51,0.42C36.69,9.26,36.33,9.31,36.02,9c-0.01-0.32-0.17-0.66,0.18-0.91c1.65-0.02,3.31-0.03,4.96-0.06
		c0.42-0.01,0.87,0.11,1.27-0.15c0.7,0.27,0.33,0.87,0.38,1.32C42.88,9.85,42.85,10.52,42.86,11.18z"/>
	<path class="st35" d="M40.36,7.12c-1.17-1.27-2.81-1.79-4.21-2.7c0.13-0.06,0.3-0.2,0.4-0.16c1.86,0.68,3.52,1.68,5.15,2.98
		C41.1,7.49,40.71,7.42,40.36,7.12z"/>
	<path class="st10" d="M31.31,11.67c1.09,0.2,2.09-0.39,3.2-0.31c0.9,0.06,1.15,0.31,1.15,1.18c0,0.49-0.48,1.23,0.42,1.5
		c-0.55,0.3-1.09,0.6-1.64,0.9c-0.65-0.38-0.43-1.11-0.66-1.66c-0.18-0.34-0.42-0.57-0.83-0.53c-0.08,0.06-0.15,0.12-0.22,0.19
		c-0.3,0.29-0.63,0.56-0.8,0.95c-0.62,0.93-0.35,2.17-1.08,3.06c-0.76,0.48-1.53,0.92-2.38,1.22c-0.8,0.27-1.56-0.03-2.32-0.2
		c-1.35-0.3-2.69-0.58-4.08-0.49c-0.39,0.03-0.8,0.01-1.08-0.34c0.31-0.21,0.62-0.42,0.93-0.63c1.3-0.4,2.66-0.5,3.97-0.82
		c0.81-0.2,1.62-0.43,2.37-0.82c1.25-0.64,1.35-0.89,0.99-2.12C29.93,12.41,30.62,12.04,31.31,11.67z"/>
	<path class="st36" d="M27.49,18.65c-0.9,0.87-2.1,1.23-3.12,1.91c-0.88,0.06-1.69,0.61-2.61,0.37c-0.41-0.4-0.9-0.59-1.49-0.56
		c-0.47,0.02-0.95,0.03-1.42-0.02c-1-0.11-1.13-0.4-0.57-1.23c0.15-0.22,0.38-0.42,0.29-0.74c0.41-0.23,0.82-0.46,1.23-0.69
		c2.28-0.58,4.52-0.35,6.74,0.3C26.88,18.08,27.47,18,27.49,18.65z"/>
	<path class="st11" d="M28.39,11.44c-0.98-1.21-2.34-1.66-3.82-1.88c0.7-1.09,1.79-1.33,2.97-1.37c2.05-0.07,4.11,0.15,6.15-0.12
		c0.49,0,0.97,0.01,1.46,0.01c-0.01,0.25-0.08,0.48-0.33,0.59C32.69,9.6,30.54,10.52,28.39,11.44z"/>
	<path class="st37" d="M16.03,13.79c0.87,0.27,0.6,0.96,0.58,1.56c-0.01,0.26-0.1,0.6,0.17,0.76c0.3,0.18,0.49-0.15,0.71-0.27
		c0.27-0.15,0.55-0.3,0.83-0.44c0.32-0.16,0.71-0.32,1-0.09c0.11,0.09-0.07,0.54-0.13,0.83c-0.92,0.52-1.85,1.04-2.77,1.57
		c-0.58,0.32-1.43,0.18-1.74,0.98c-0.15,0.06-0.3,0.12-0.46,0.18c-0.18-0.18-0.26-0.42-0.19-0.64c0.36-1.1,0.13-2.14-0.2-3.19
		C14.25,14.04,15.11,13.85,16.03,13.79z"/>
	<path class="st38" d="M12.36,19.79c-0.84-0.5-1.47-1.11-1.24-2.21c-0.21-0.88-0.2-1.76,0.08-2.63c0.1-0.31,0.17-0.79,0.68-0.35
		c0.2,0.19,0.35,0.15,0.49-0.07c0.14-0.46,0.36-0.69,0.8-0.27c0.37,0.36,0.58,0.82,0.76,1.29c0.17,1.2,0.37,2.41-0.15,3.59
		C13.3,19.36,12.83,19.57,12.36,19.79z"/>
	<path class="st39" d="M23.14,10.22c1.9-0.53,3.48-0.01,4.8,1.42c-1.12,0.11-1.81,1.1-2.84,1.39c-0.33,0.09-0.64,0.26-0.97,0.4
		c-0.53-0.39-0.86-0.91-0.6-1.54C23.81,11.19,22.96,10.84,23.14,10.22z"/>
	<path class="st40" d="M18.56,18.37c0.51,0.71,0.15,1.13-0.72,1.4c1.02,0.48,1.9,0.23,2.74,0.29c0.53,0.03,1.06,0,1.13,0.73
		c-0.86,0.48-1.8,0.27-2.69,0.21c-1.6-0.11-3.21-0.29-4.77-0.73C15.69,19.64,17.12,19,18.56,18.37z"/>
	<path class="st41" d="M23.14,10.22c0.41,0.62,1.29,1.08,0.55,2.07c-0.13,0.17,0.28,0.75,0.44,1.14c-0.41,0.2-0.82,0.41-1.22,0.61
		c-0.35-0.41-0.57-0.91-0.55-1.42c0.02-0.71-0.34-1.01-0.93-1.18c-0.42-0.24-1.01-0.28-1.13-0.9C21.21,10.2,22.17,10.15,23.14,10.22
		z"/>
	<path class="st42" d="M14.26,20.27c2.49,0.14,4.95,0.67,7.45,0.52c0.9,0.04,1.73-0.62,2.66-0.24c-0.49,0.39-1.1,0.51-1.68,0.72
		c-2.81,0.25-5.56-0.42-8.35-0.49c-0.25-0.01-0.3-0.21-0.33-0.41C14.09,20.33,14.17,20.3,14.26,20.27z"/>
	<path class="st43" d="M29.23,12.78c1.07,1.12,1.09,1.16-0.2,1.98c-2.17,1.39-4.63,1.68-7.13,1.77c0.29-0.37,0.75-0.42,1.15-0.57
		c1.7-0.46,3.49-0.59,5.05-1.5c0.61-0.3,0.82-0.8,0.67-1.45C28.93,12.93,29.08,12.85,29.23,12.78z"/>
	<path class="st44" d="M27.49,18.65c-2.23-1.04-4.56-1.33-6.98-0.87c-0.25,0.05-0.52,0.28-0.72-0.09c0.39-0.17,0.79-0.35,1.18-0.52
		c2.58-0.29,5.02,0.46,7.48,1.03C28.21,18.5,27.87,18.61,27.49,18.65z"/>
	<path class="st45" d="M19.27,12.81c0.25-0.35,0.63-0.5,1-0.67c0.09-0.07,0.2-0.09,0.3-0.04c0.9,0.7,0.79,1.74,0.9,2.7
		c-0.2,0.26-0.46,0.26-0.74,0.21c-0.11-0.34-0.49-0.26-0.69-0.45C19.28,14.19,19.18,13.55,19.27,12.81z"/>
	<path class="st46" d="M28.41,14.53c-1.61,1.15-3.45,1.43-5.36,1.43c0.62-0.36,1.18-0.82,1.91-0.96c0.72-0.19,1.38-0.53,2.1-0.72
		C27.53,14.16,28.06,13.91,28.41,14.53z"/>
	<path class="st47" d="M28.41,14.53c-0.78-0.35-1.44,0.2-2.17,0.27c-0.43,0.04-0.83,0.3-1.28,0.2c1.27-0.66,2.54-1.33,3.82-1.99
		C29.65,13.75,29.1,14.16,28.41,14.53z"/>
	<path class="st48" d="M13.77,19.14c-0.01-1.2-0.01-2.39-0.02-3.59c-0.07-0.16-0.09-0.32-0.05-0.49c0.08-0.08,0.18-0.11,0.3-0.07
		c0.97,1.24,0.45,2.57,0.24,3.88C14.09,18.96,13.93,19.05,13.77,19.14z"/>
	<path class="st49" d="M21.47,14.81c-0.15-0.17-0.47-0.41-0.43-0.49c0.39-0.88-0.31-1.44-0.58-2.12c0.12-0.39,0.34-0.64,0.79-0.56
		c0.43,0.92,1.21,1.76,0.69,2.9C21.79,14.63,21.63,14.72,21.47,14.81z"/>
	<path class="st50" d="M21.95,14.54c0.07-1.03-0.74-1.83-0.72-2.85c-0.1-0.21,0.02-0.3,0.19-0.37c0.67,0.25,1.35,0.4,0.93,1.47
		c-0.14,0.37,0.45,0.98,0.05,1.53C22.25,14.39,22.1,14.46,21.95,14.54z"/>
	<path class="st51" d="M22.41,14.32c0.25-0.73-0.8-1.42-0.07-2.17c-0.29-0.25-0.58-0.49-0.86-0.74c-0.07-0.05-0.09-0.09-0.06-0.14
		c0.02-0.04,0.05-0.06,0.07-0.06c0.8,0.11,1.37,0.37,1.14,1.38c-0.11,0.49,0.48,0.9,0.29,1.45C22.74,14.13,22.57,14.23,22.41,14.32z
		"/>
	<path class="st52" d="M35.65,10.47c-0.61,0.49-1.3,0.18-1.96,0.19c0.49-0.62,1.31-0.7,1.89-1.18
		C35.93,9.79,35.92,10.12,35.65,10.47z"/>
	<path class="st4" d="M35.65,10.47c-0.02-0.33-0.05-0.66-0.07-0.99c0.03-0.23,0.05-0.47,0.08-0.7c0.28-0.15,0.15-0.64,0.55-0.69
		c-0.02,0.29-0.04,0.58-0.06,0.87c0.94,0.59,0.28,1.16-0.03,1.73C35.96,10.62,35.81,10.55,35.65,10.47z"/>
	<path class="st48" d="M14.7,18.68c0.07-1.23,1.03-0.88,1.74-0.98C15.98,18.25,15.25,18.32,14.7,18.68z"/>
	<path class="st53" d="M38.88,15.99c0.28,0.02,0.45,0.16,0.44,0.35c-0.02,0.27-0.24,0.39-0.5,0.36c-0.22-0.02-0.33-0.17-0.29-0.4
		C38.57,16.07,38.73,15.99,38.88,15.99z"/>
	<path class="st54" d="M39.05,12.18c-0.18,0.15-0.36,0.31-0.53,0.46c-0.73,0.37-1.45,0.75-2.18,1.12c-0.02-0.12-0.04-0.23-0.07-0.35
		c-0.44-1.79-0.29-1.98,1.52-1.99c0.47,0,0.94,0,1.4,0C39.42,11.75,38.56,11.83,39.05,12.18z"/>
	<path class="st55" d="M33.94,15.28c-0.41,0.38-0.91,0.58-1.42,0.77c-0.6-0.39-0.75-0.95-0.58-1.62c0.07-0.69,0.62-1.17,0.82-1.8
		l0,0.01c0.63-0.07,0.68,0.84,1.3,0.78C34.05,14.04,34.18,14.67,33.94,15.28z"/>
	<path class="st56" d="M33.92,17.17c0.56,0.32,0.58,0.74,0.24,1.24c-0.39,0.56-0.87,0.95-1.59,0.72c-0.37-0.12-0.71-0.35-1.06-0.53
		C32.32,18.12,33.12,17.65,33.92,17.17z"/>
	<path class="st57" d="M32.21,14.53c-0.39,0.6,0.42,0.97,0.31,1.51c-0.56,0.31-1.12,0.62-1.68,0.93c0.26-1.11,0.07-2.36,0.98-3.28
		C32.32,13.79,32.05,14.27,32.21,14.53z"/>
	<path class="st58" d="M33.94,15.28c-0.28-0.64,0.19-1.28-0.01-1.91c-0.09-0.13-0.08-0.24,0.04-0.35c0.38,0.59,0.18,1.32,0.47,1.94
		C34.27,15.06,34.1,15.17,33.94,15.28z"/>
	<path class="st59" d="M33.7,8.07c-1.22,0.48-2.49,0.24-3.73,0.21c-1.93-0.04-3.78,0.07-5.4,1.28c-0.64,0-1.28,0-1.92,0
		c0.1-0.78,1.04-0.48,1.37-1.04c-1.05,0-2.04,0-3.04,0c-3.18,0-6.36,0-9.54-0.01c-0.46,0-0.98,0.12-1.25-0.45
		C18.03,8.07,25.87,8.07,33.7,8.07z"/>
	<path class="st60" d="M9.5,10.94c0-0.71-0.01-1.43-0.01-2.14C10.13,9.42,10.14,10.31,9.5,10.94z"/>
	<path class="st11" d="M5.39,4.47c9.03,0,18.07,0,27.1,0c0.02,0.06,0.05,0.11,0.07,0.17c-1.85,0.84-3.71,1.69-5.81,2.65
		c0.82,0.05,1.38,0.08,1.94,0.11c-1.14,0.43-2.28-0.02-3.42-0.01c-4.54,0.02-9.09-0.06-13.63,0.05c-1.76,0.04-3.19-0.51-4.52-1.5
		C6.51,5.48,5.96,4.96,5.39,4.47z"/>
	<path class="st61" d="M8.74,12.37c-0.01,0.5,0.19,1.02-0.19,1.47c-0.29,0.18-0.57,0.22-0.84-0.03c0.18-0.53-0.51-0.37-0.58-0.83
		C7.63,12.76,8.11,12.41,8.74,12.37z"/>
	<path class="st62" d="M7.7,13.81c0.28,0.01,0.56,0.02,0.84,0.03c0.02,0.24,0.03,0.47,0.05,0.71c-0.83,0.51-1.28,0.36-1.23-0.69
		C7.48,13.84,7.59,13.83,7.7,13.81z"/>
	<path class="st63" d="M21.48,11.21c-0.01,0.07-0.01,0.13-0.01,0.2c-0.08,0.09-0.16,0.18-0.24,0.28c-0.26,0.17-0.51,0.33-0.77,0.5
		c-0.07-0.01-0.13-0.02-0.2-0.04c-0.36-0.77-1.3-0.26-1.8-0.87c0.58-0.33,1.11-0.73,1.82-0.74C20.68,10.76,21.08,10.99,21.48,11.21z
		"/>
	<path class="st64" d="M14,14.99c-0.06-0.01-0.12-0.02-0.18-0.03c-0.29-0.31-0.31-0.66-0.17-1.03c0.54-0.29,1.08-0.57,1.62-0.86
		c0.26,0.24,0.51,0.48,0.77,0.73C15.41,14.28,14.55,14.38,14,14.99z"/>
	<path class="st65" d="M18.59,14.55c-0.41,0.23-0.82,0.45-1.31,0.72c-0.25-0.72,0.14-1.06,0.67-1.36c-0.53-0.18-1.14,0.02-1.45-0.65
		c0.42-0.02,0.8-0.04,1.17-0.06C18.35,13.41,18.83,13.74,18.59,14.55z"/>
	<path class="st66" d="M18.59,14.55c-0.15-0.56-0.46-1-0.91-1.35c0.45-0.11,0.91-0.21,1.36-0.32c0.18,0.53,0.16,1.1,0.25,1.64
		C19.06,14.54,18.82,14.55,18.59,14.55z"/>
	<path class="st67" d="M19.29,14.53c-0.61-0.47-0.53-1.04-0.25-1.64c0.08-0.02,0.15-0.05,0.23-0.07c0.48,0.49,0.19,1.3,0.77,1.75
		C19.79,14.55,19.54,14.54,19.29,14.53z"/>
	<path class="st68" d="M36.12,10.69c-0.22-0.58,0.57-1.15,0.03-1.73c1.49-0.6,3.04-0.72,4.62-0.59c0.47,0.04,1.21-0.21,1.3,0.47
		c0.1,0.68,0.41,1.55-0.54,2c-0.23,0.11-0.44,0.22-0.31,0.53C39.61,10.47,37.84,10.78,36.12,10.69z"/>
	<path class="st69" d="M13.65,13.92c0.42,0.28,0.19,0.68,0.17,1.03c-0.02,0.2-0.04,0.4-0.07,0.6c-0.25-0.38-0.49-0.77-0.74-1.15
		c-0.34-0.54-0.45,0.01-0.65,0.13c-0.05-0.8,0.3-1.76-0.81-2.16C12.73,12.25,13.03,13.3,13.65,13.92z"/>
	<path class="st70" d="M11.88,14.6c-0.88,0.64-0.77,1.51-0.59,2.41c0.04,0.2,0.35,0.37,0.05,0.59c-0.05,0.03-0.15-0.01-0.22-0.02
		c-0.19-0.28-0.37-0.56-0.56-0.84c-0.14-0.4,0.66-0.73,0.1-1.17c0.38-0.43,0.46-0.98,0.61-1.5c0.08-0.13,0.21-0.37,0.24-0.36
		C11.93,13.87,11.84,14.27,11.88,14.6z"/>
	<path class="st71" d="M35.42,4.27c-0.09,0.06-0.19,0.12-0.28,0.18c-0.41-0.39-0.92-0.21-1.38-0.21c-8.8-0.01-17.6-0.01-26.4-0.01
		c-0.39,0-0.79,0-1.31,0C6.44,3.85,6.78,4,7.08,4c9.04-0.01,18.08-0.01,27.12,0C34.61,4,35.09,3.84,35.42,4.27z"/>
	<path class="st72" d="M33.96,13.02c-0.01,0.12-0.02,0.23-0.04,0.35c-0.69-0.43-0.27,0.59-0.74,0.53c-0.17-0.4,0.27-1.06-0.44-1.27
		C33.06,12.32,33.45,12.44,33.96,13.02z"/>
	<path class="st72" d="M32.21,14.53c-0.13-0.28-0.27-0.56-0.4-0.84c0.09-0.55,0.64-0.7,0.94-1.06
		C32.8,13.32,32.24,13.85,32.21,14.53z"/>
	<path class="st73" d="M12.35,17.54c-0.42-0.79,0.21-1.3,0.37-2C14.12,16.58,12.28,16.85,12.35,17.54z"/>
</g>
</svg>
