<?xml version="1.0" encoding="utf-8"?>
<!-- Generator: Adobe Illustrator 23.0.2, SVG Export Plug-In . SVG Version: 6.00 Build 0)  -->
<svg version="1.1" id="Camada_1" xmlns="http://www.w3.org/2000/svg" xmlns:xlink="http://www.w3.org/1999/xlink" x="0px" y="0px"
	 viewBox="0 0 52.61 32.72" style="enable-background:new 0 0 52.61 32.72;" xml:space="preserve">
<style type="text/css">
	.st0{fill:#FEFEFE;}
	.st1{fill:#FCFCFC;}
	.st2{fill:#DFEBEF;}
	.st3{fill:#D3E1E7;}
	.st4{fill:#535656;}
	.st5{fill:#A9C3C2;}
	.st6{fill:#F2D72A;}
	.st7{fill:#BE381B;}
	.st8{fill:#D58630;}
	.st9{fill:#649D9A;}
	.st10{fill:#7D2C84;}
	.st11{fill:#BD277D;}
	.st12{fill:#639E9A;}
	.st13{fill:#C2DCDC;}
	.st14{fill:#BF381C;}
	.st15{fill:#C6DEE0;}
	.st16{fill:#C3DCDD;}
	.st17{fill:#78B4B3;}
	.st18{fill:#71B0AD;}
	.st19{fill:#B9D5D4;}
	.st20{fill:#FBFCFC;}
	.st21{fill:#E1A82F;}
	.st22{fill:#C44534;}
</style>
<g>
	<path class="st0" d="M33.21,16.13c-2.19-2.98-7.82-3.15-10.58-0.3c2.74,1.14,3.23,3.77,3.99,6.15c0.58,1.83-0.55,4.01-2.24,5
		c-0.24,0.14-0.56,0.24-0.69,0.45c-1.99,3.13-5.15,3.09-8.29,3.09c-0.35,0-0.71-0.11-1.06-0.21c-1.45-0.42-2.86-0.5-4.41-0.27
		c-3.54,0.51-7.28-2.16-8.22-5.57c-0.28-1.02-1.2-1.65-1.48-2.7c-0.56-2.05-0.13-3.73,1.51-5.09c0.27-0.22,0.59-0.36,0.72-0.76
		c0.69-2.16,2.38-2.92,4.45-2.91c1.18,0,1.81-0.35,2.35-1.49C13.17,3.15,22.33-1.41,31.4,0.39c2.9,0.58,5.78,1.21,8.32,2.86
		c3.64,2.37,5.93,5.74,7.32,9.77c0.22,0.63,0.44,0.91,1.18,0.99c2.84,0.33,4.99,3.79,4.24,6.7c-0.17,0.67-0.24,1.3-0.06,1.99
		c0.64,2.54-0.78,5.36-3.2,6.4c-0.66,0.28-1.26,0.56-1.76,1.14c-0.54,0.64-1.35,1.01-2.15,1.26c-1.37,0.44-2.74,0.93-4.14,1.14
		c-1.99,0.3-3.78-0.44-5.32-1.66c-0.55-0.43-1.08-0.74-1.73-0.97c-2.4-0.83-4.43-2.07-4.92-4.85c-0.03-0.16-0.12-0.34-0.07-0.47
		c0.65-1.76,0.28-3.7,0.97-5.45C30.65,17.79,31.82,16.84,33.21,16.13z"/>
	<path d="M34.8,16.76c-0.88-2.83-3.15-3.76-5.76-4.06c-3.39-0.4-6.37,0.35-8.28,3.62c0.78,0.38,1.67,0.6,2.35,1.22
		c0.76,0.69,1.39,1.44,1.53,2.48c0.06,0.45,0.27,0.81,0.47,1.2c0.95,1.76,0.21,3.98-1.6,4.88c-0.26,0.13-0.61,0.07-0.78,0.47
		c-0.96,2.33-3.15,2.47-5.18,2.76c-1.76,0.26-3.5-0.15-5.16-0.76c-0.44-0.16-0.77-0.18-1.23,0c-3.13,1.23-7.41-1.01-8.29-4.29
		c-0.15-0.58-0.39-1.08-0.79-1.57c-1.58-1.94-1.3-3.86,0.72-5.31c0.38-0.27,0.63-0.55,0.74-0.99C3.9,15,4.92,14.4,6.24,14.21
		c0.39-0.06,0.8-0.01,1.2-0.04c1.17-0.08,2.09-0.33,2.66-1.63C13.78,4.2,22.42-0.19,31.4,1.59c3.39,0.67,6.67,1.55,9.35,3.91
		c2.68,2.36,4.44,5.28,5.4,8.71c0.16,0.59,0.27,1,1.12,0.99c2.7-0.04,4.74,2.7,4.03,5.34c-0.19,0.71-0.3,1.38-0.14,2.1
		c0.62,2.73-0.61,4.87-3.3,5.71c-0.27,0.08-0.55,0.08-0.71,0.36c-0.73,1.25-2.01,1.63-3.25,2.05c-0.9,0.3-1.82,0.59-2.76,0.72
		c-1.85,0.27-3.45-0.4-4.8-1.61c-0.43-0.38-0.81-0.64-1.37-0.81c-2.06-0.62-4.15-1.43-4.54-3.86c-0.27-1.68,0.43-3.37,0.63-5.06
		C31.24,18.61,32.63,17.6,34.8,16.76z"/>
	<path class="st1" d="M32.39,22.4c-0.72-1.15-0.34-2.69,0.89-3.59c0.95-0.69,2.01-1.05,3.2-1.01c-1.3-4.28-3.64-6.14-7.98-6.37
		c-4.79-0.26-7.89,1.71-9.88,6.35c1.49-0.29,2.87-0.28,3.96,0.9c0.5,0.54,0.97,1.08,0.9,1.88c-0.03,0.4,0.19,0.66,0.39,0.96
		c0.98,1.47,0.32,3.16-1.39,3.66c-0.28,0.08-0.66-0.03-0.73,0.44c-0.29,1.84-1.78,2.04-3.2,2.31c-0.44,0.08-0.9,0.29-1.28-0.15
		c0.6-0.69,1.53-0.53,2.26-0.88c0.9-0.17,1.31-0.82,1.52-1.62c0.13-0.49,0.28-0.91,0.86-0.99c1.07-0.14,1.45-0.83,1.45-1.82
		c-0.17-0.52-0.45-1-0.61-1.54c-0.64-2.22-1.54-2.78-3.82-2.42c-0.74,0.1-1.17-0.4-1.62-0.85c-0.48-0.47-1-0.78-1.7-0.65
		c-0.47,0.09-0.88-0.04-1.21-0.36c-0.59-0.59-1.28-0.76-2.08-0.55c-0.72,0.19-1.42-0.14-2.13-0.11c-0.57-0.04-1.09,0.15-1.61,0.37
		c-0.23,0.1-0.36,0.21-0.38,0.52c-0.11,1.46-0.89,1.86-2.16,1.13c-0.1-0.06-0.17-0.16-0.38-0.17c-0.22,0.64-0.77,0.99-1.36,1.34
		c-0.93,0.54-1.06,1.15-0.49,2.08c0.31,0.5,0.72,0.95,0.8,1.57c-0.03,0.95,0.39,1.72,0.99,2.42c0.27,0.32,0.64,0.58,0.74,1.03
		c-0.05,0.19-0.14,0.33-0.37,0.23c-1.21-0.71-1.95-1.76-2.06-3.16c-0.04-0.48-0.32-0.7-0.58-0.98c-1.51-1.65-1.27-3.19,0.68-4.28
		c0.37-0.21,0.63-0.36,0.62-0.87c0-1.17,0.74-1.79,1.82-1.78c1.09,0.01,2.1-0.23,3.15-0.42c0.63-0.12,0.86-0.36,1.07-0.88
		c0.72-1.78,1.59-3.47,2.82-4.97c5.12-6.21,11.65-7.71,19.29-6.06c6.75,1.46,10.69,5.64,12.4,12.17c0.2,0.78,0.61,1.2,1.52,1.15
		c2.48-0.14,3.84,1.44,3.3,3.93c-0.22,1.01-0.13,1.96,0.01,2.94c0.29,2.12-0.65,3.48-2.71,3.94c-0.31,0.07-0.71,0-0.87,0.32
		c-1.08,2.14-3.22,2.1-5.12,2.55c-0.45,0.15-0.9,0.31-1.37,0.1c-0.17-0.19-0.58-0.22-0.55-0.51c0.03-0.29,0.37-0.34,0.64-0.39
		c1.12-0.07,2.2-0.3,3.26-0.66c0.99-0.25,1.85-0.67,2.37-1.61c0.28-0.5,0.82-0.58,1.31-0.73c0.89-0.27,1.74-0.6,2.03-1.62
		c0.17-0.74,0.33-1.48-0.19-2.17c-0.24-0.32,0.01-0.6,0.1-0.89c0.35-1.19,0.77-2.38,0.08-3.59c-0.44-0.71-1.05-0.95-1.85-0.65
		c-0.7,0.26-1.3,0.09-1.91-0.33c-1.09-0.75-1.53-0.75-2.43,0.12c-0.63,0.61-1.29,0.88-2.15,0.76c-0.48-0.07-1.08-0.04-1.37,0.31
		c-0.88,1.07-1.97,0.76-3.06,0.65c-2.21,0.07-3.13,1.07-2.99,3.24c0.02,0.32,0.12,0.63-0.02,0.95c-0.08,0.11-0.18,0.16-0.31,0.17
		C32.38,23.2,32.71,22.58,32.39,22.4z"/>
	<path class="st2" d="M40.14,29.57c-0.18,0.04-0.35,0.08-0.53,0.12c0.09,0.12,0.18,0.23,0.27,0.35c-0.06,0.12-0.15,0.15-0.27,0.08
		c-1.18-0.24-2.36-0.49-2.88-1.79c-0.15-0.38-0.45-0.36-0.78-0.36c-1.3,0.02-2.38-0.58-3.35-1.35c-1.34-1.06-1.46-2.25-0.43-3.61
		c0.15-0.2,0.32-0.34,0.2-0.61c0.38,0.08,0.23,0.58,0.55,0.72c0.06,0.1,0.08,0.22,0.05,0.33c-0.68,1.41-0.56,1.89,0.76,2.76
		c0.74,0.49,1.56,0.81,2.47,0.78c0.46-0.01,0.92,0.01,1.15,0.45c0.5,0.97,1.29,1.48,2.34,1.66C39.93,29.14,40.17,29.25,40.14,29.57z
		"/>
	<path class="st3" d="M5.98,26.49c0.09-0.08,0.19-0.15,0.28-0.23c0.56-0.29,0.98,0.13,1.46,0.28c1.09,0.33,2.16,0.61,3.16-0.26
		c0.29-0.26,0.66-0.33,1.01-0.17c1.6,0.76,3.29,1.16,5.05,1.31c0.16,0.01,0.29,0.12,0.39,0.26c0.35,0.39,0.83,0.08,1.23,0.24
		c-2.18,0.57-4.23,0.12-6.26-0.69c-0.3-0.12-0.55-0.49-0.97-0.19C9.39,28.4,7.67,27.59,5.98,26.49z"/>
	<path class="st4" d="M39.62,30.12c0.09-0.03,0.18-0.06,0.27-0.08c0.48,0.02,0.96,0.03,1.44,0.05
		C40.76,30.52,40.2,30.82,39.62,30.12z"/>
	<path class="st5" d="M32.91,23.39c0.01-0.09,0.02-0.18,0.02-0.27c0.07-0.01,0.13-0.02,0.2-0.03c0.61-0.48,1.27-0.93,1.47-1.76
		c0.25-0.2,0.55-0.29,0.83-0.41c0.73-0.31,1.01-0.8,0.64-1.56c-0.06-0.31-0.02-0.59,0.21-0.82c0.16,0,0.33-0.05,0.48-0.01
		c0.86,0.28,1.44-0.15,2.22-0.47c1.59-0.66,3.44-0.64,4.83-1.89c1.53,0.55,3.03,1.19,4.73,0.88c0.24-0.04,0.55,0.42,0.69,0.76
		c0.01,0.04,0.04,0.1,0.03,0.11c-1.95,2.08-2.28,4.94-3.55,7.36c-0.53,1.02-1.41,1.43-2.18,2.07c-0.04,0.12-0.12,0.21-0.23,0.28
		c-1.46,0.66-2.85,0.34-4.09-0.5c-0.79-0.54-1.54-0.71-2.46-0.62c-1.21,0.11-2.4-0.01-3.42-0.8C32.37,24.96,32.29,24.5,32.91,23.39z
		"/>
	<path class="st5" d="M10.13,15.68c1.01,0.02,2.3-0.25,2.98,0.08c1.47,0.73,3.3,0.49,4.52,1.77c0.37,0.39,0.69,0.92,1.37,0.76
		c0.5,0.76,0.93,1.57,1.38,2.36c0.85,1.51,0.8,2.96-0.4,4.29c-0.08,0.11-0.17,0.19-0.28,0.27c-2.19,0.9-4.41,0.95-6.57-0.03
		c-1.05-0.48-2.03-0.83-3.19-0.42c-0.66,0.23-1.34,0-1.95-0.33c-1.04-0.56-1.95-1.32-2.96-1.92c0.22-0.12,0.47-0.7,0.52-1.05
		c0.12-1.01,0.61-1.82,1.47-2.33C8.42,18.29,9.53,17.23,10.13,15.68z"/>
	<path class="st6" d="M39.67,16.89c-0.54,0.05-0.99,0.29-1.32,0.73c-0.55,0.72-0.85,0.49-1.08-0.25c-0.55-1.77-1.4-3.35-2.78-4.67
		c-1.46-1.4-3.23-1.87-5.11-2.06c-1.59-0.16-3.19-0.04-4.76,0.31c-3.13,0.71-4.93,2.9-6.27,5.61c-0.07,0.13-0.12,0.27-0.22,0.49
		c-0.51-0.4-0.96-0.8-1.52-1.01c0.25-1.95,1.65-3.21,2.77-4.63c0.32-0.4,0.72-0.75,1.15-1.04c0.86-0.73,1.89-1.16,2.87-1.69
		c6.64-2.69,13.74,0.4,16.26,7.07C39.8,16.13,39.93,16.51,39.67,16.89z"/>
	<path class="st7" d="M43.04,15.63c-0.43,0.33-0.86,0.66-1.29,0.99c-0.82-0.21-1.02-0.98-1.29-1.6c-2.91-6.72-8.96-9.25-15.4-8.18
		c-0.78,0.13-1.54,0.44-2.36,0.3c-0.32-0.65-0.73-1.31-0.07-1.99c3.57-1.25,7.12-0.99,10.67,0.15c4.61,1.49,7.46,4.85,9.59,8.99
		C43.11,14.7,43.36,15.14,43.04,15.63z"/>
	<path class="st8" d="M22.6,7.03c3.65-0.94,7.27-1.13,10.86,0.35c3.32,1.37,5.51,3.83,7.03,6.96c0.38,0.79,0.78,1.55,1.26,2.28
		c-0.57,1.1-1.42-0.02-2.08,0.27c-1-4.44-5.27-8.15-9.69-8.72c-2.34-0.3-4.49,0.14-6.66,0.78c-0.85-0.23-0.49-1.08-0.81-1.58
		C22.49,7.24,22.52,7.13,22.6,7.03z"/>
	<path class="st9" d="M5.07,22.39c1.3,0.15,1.99,1.35,3.11,1.82c0.74,0.31,1.45,0.45,2.19,0.11c0.69-0.32,1.34-0.21,1.94,0.14
		c2.38,1.42,4.86,1.28,7.4,0.55c0.26,0.44,0.32,0.48,0.12,0.76c-0.33,0.46-0.24,0.92-0.12,1.39c-0.77,0.3-1.56,0.47-2.38,0.52
		c-1.92-0.02-3.79-0.3-5.48-1.29c-0.21-0.12-0.45-0.27-0.63-0.03c-1.16,1.5-2.52,0.8-3.85,0.35c-0.37-0.12-0.73-0.3-1.1-0.45
		c-0.99-0.92-2.02-1.82-1.87-3.37C4.54,22.62,4.48,22.07,5.07,22.39z"/>
	<path class="st10" d="M11.79,15c-0.23-0.07-0.74,0.2-0.47-0.45c2.66-6.42,8.3-11.28,15.62-11.35c2.79-0.03,5.49,0.39,8.11,1.35
		c4.75,1.75,7.49,5.39,9.31,9.9c0.34,0.85,0.01,1.17-0.86,1.03c-0.57,0.02-0.42-0.52-0.54-0.78c-1.39-3.07-3.28-5.72-6.08-7.69
		c-6.27-4.4-14.95-3.74-20.36,1.58c-1.62,1.6-2.87,3.41-3.81,5.47C12.52,14.47,12.43,15.01,11.79,15z"/>
	<path class="st11" d="M11.79,15c0.9-1.08,1.22-2.48,2.01-3.63c2.99-4.35,6.99-6.95,12.32-7.49C34.06,3.07,41,8.25,43.25,15.08
		c0.05,0.14,0.17,0.26,0.25,0.4c-0.15,0.05-0.3,0.11-0.45,0.16c-1.57-3.98-3.94-7.32-7.88-9.23c-4.02-1.95-8.24-2.28-12.56-1.03
		c-1.2,0.91-2.7,1.25-3.94,2.08c-2.64,1.41-3.95,3.92-5.27,6.41c-0.22,0.42-0.46,0.83-0.87,1.11C12.28,15.15,12.04,15.24,11.79,15z"
		/>
	<path class="st8" d="M20.66,10.61c-1.79,1.48-3.05,3.36-4.05,5.43c-1.22,0.5-1.94-0.29-2.66-1.05c0.98-2.29,2.66-4.03,4.43-5.71
		c0.23-0.22,0.48-0.43,0.82-0.44C20.04,9.14,20.6,9.67,20.66,10.61z"/>
	<path class="st12" d="M32.91,23.39c-0.43,1.46,0.53,2.76,2.39,2.78c1.85,0.02,3.56,0.09,5.15,1.22c0.88,0.62,2,0.24,3.01,0.02
		c0.3-0.06,0.34,0.14,0.25,0.33c-0.17,0.36-0.19,0.73-0.25,1.11c-1.04,0.56-2.19,0.62-3.33,0.73c-1.29-0.29-2.59-0.56-3.06-2.08
		c-0.07-0.24-0.31-0.36-0.58-0.29c-1.5,0.37-2.62-0.44-3.66-1.3C31.92,25.13,31.99,24.3,32.91,23.39z"/>
	<path class="st13" d="M5.07,22.39c-0.42-0.1-0.48,0.3-0.68,0.5c-0.1-0.48-0.35-0.87-0.65-1.26c-1.01-1.31-0.84-2.09,0.6-2.85
		c0.5-0.26,1.04-0.46,0.99-1.18c-0.01-0.2,0.06-0.41,0.3-0.44c0.24-0.03,0.32,0.16,0.4,0.35c0.37,0.81,1.04,0.62,1.63,0.4
		c0.37-0.14,0.7-0.49,0.28-0.93c-0.57-0.59-0.3-0.75,0.36-0.86c0.61-0.1,1.13-0.61,1.82-0.44c-0.01,1.28-0.67,2.19-1.69,2.85
		c-1.34,0.86-2.81,1.57-2.6,3.59C5.88,22.54,5.33,22.29,5.07,22.39z"/>
	<path class="st14" d="M19.22,8.92c-1.77,1.62-3.54,3.23-4.62,5.44c-0.14,0.29-0.28,0.59-0.65,0.63c-0.48-0.01-0.95-0.01-1.43-0.02
		c1.39-2.61,2.47-5.43,5.09-7.16c0.3-0.2,0.6-0.37,0.9-0.56c0.63,0.24,0.65,0.94,1.04,1.36C19.51,8.8,19.4,8.9,19.22,8.92z"/>
	<path class="st15" d="M43.48,27.18c2.36-1.57,2.94-4.19,3.81-6.61c0.41-1.14,0.98-2.06,1.95-2.75c0.36,0.41,0.51,0.92,0.46,1.42
		c-0.1,0.92-0.31,1.83-0.51,2.73c-0.15,0.65,0.4,1.56,0.29,2.41c-0.02,0.14-0.14,0.27-0.21,0.41c-0.45-0.35-0.2-0.9-0.45-1.45
		c-0.89,1.53-2.6,2.03-3.66,3.32C44.79,27.1,44.19,27.53,43.48,27.18z"/>
	<path class="st16" d="M19.72,24.8c1.25-1.69,1.27-2.74,0.06-4.61c-0.38-0.59-0.92-1.1-0.78-1.9c1.77-0.59,3.24,0.06,3.81,1.74
		c0.27,0.82,0.45,1.67,0.94,2.41c-0.1,0.17-0.2,0.39-0.36,0.45c-1.19,0.48-2.25,1.17-3.23,1.99C20.03,24.98,19.86,24.89,19.72,24.8z
		"/>
	<path class="st17" d="M43.48,27.18c0.29-0.11,0.68-0.14,0.87-0.35c1.28-1.39,3.3-1.95,4.19-3.76c0.09-0.18,0.2-0.39,0.42-0.37
		c0.34,0.02,0.27,0.33,0.28,0.55c0.02,0.51,0.02,1.03,0.03,1.55c-0.24,1.26-1.25,1.58-2.29,1.78c-0.6,0.11-1,0.3-1.27,0.9
		c-0.42,0.93-1.31,1.21-2.24,1.37c-1-0.48,0.32-0.95,0-1.43C43.47,27.33,43.47,27.26,43.48,27.18z"/>
	<path class="st18" d="M19.72,24.8c0.08-0.02,0.18-0.01,0.23-0.06c1.05-1.13,2.42-1.72,3.8-2.3c-0.15,1.18-0.44,2.22-1.97,2.17
		c-0.4-0.01-0.28,0.41-0.37,0.65c-0.33,0.85-0.55,1.8-1.71,1.91c-0.63-0.28-0.78-0.67-0.3-1.24c0.21-0.25,0.55-0.5,0.3-0.91
		C19.72,24.94,19.72,24.87,19.72,24.8z"/>
	<path class="st19" d="M36.28,18.55c0,0.31,0,0.62,0,0.94c-0.82,0.4-1.73,0.72-1.68,1.89c0.23,1.18-0.56,1.5-1.47,1.71
		c-0.56-2.31-0.03-3.69,1.63-4.39C35.27,18.48,35.77,18.55,36.28,18.55z"/>
	<path class="st20" d="M34.6,21.38c-0.47-1.28,0.01-1.82,1.68-1.89C36.83,20.58,36.3,21.18,34.6,21.38z"/>
	<path class="st13" d="M9.6,18.13c0.23-0.01,0.39,0.13,0.43,0.33c0.05,0.27-0.11,0.45-0.38,0.48c-0.23,0.03-0.39-0.13-0.43-0.32
		C9.16,18.35,9.34,18.19,9.6,18.13z"/>
	<path class="st21" d="M19.22,8.92c0.08-0.08,0.16-0.16,0.24-0.24c0.84-0.91,1.76-1.66,3.12-1.43c0.67,0.38,0.28,1.23,0.74,1.7
		c-0.89,0.55-1.77,1.11-2.66,1.66C20.22,10.01,19.81,9.38,19.22,8.92z"/>
	<path class="st22" d="M22.58,7.25c-1.17,0.19-2.09,0.94-3.12,1.43c-0.57-0.31-0.79-0.84-0.95-1.42c1.25-0.88,2.64-1.46,4.09-1.89
		c-0.4,0.55,0.56,1.11,0,1.66C22.6,7.1,22.59,7.18,22.58,7.25z"/>
</g>
</svg>
