<?xml version="1.0" encoding="utf-8"?>
<!-- Generator: Adobe Illustrator 23.0.2, SVG Export Plug-In . SVG Version: 6.00 Build 0)  -->
<svg version="1.1" id="Camada_1" xmlns="http://www.w3.org/2000/svg" xmlns:xlink="http://www.w3.org/1999/xlink" x="0px" y="0px"
	 viewBox="0 0 91.33 50.84" style="enable-background:new 0 0 91.33 50.84;" xml:space="preserve">
<style type="text/css">
	.st0{fill:#FEFEFE;}
	.st1{fill:#353E43;}
	.st2{fill:#424B50;}
	.st3{fill:#40494E;}
	.st4{fill:#374045;}
	.st5{fill:#414A4F;}
	.st6{fill:#757D81;}
	.st7{fill:#92999D;}
	.st8{fill:#92999C;}
	.st9{fill:#91989C;}
	.st10{fill:#FDFDFD;}
	.st11{fill:#93999D;}
	.st12{fill:#FCFCFC;}
	.st13{fill:#727A7E;}
	.st14{fill:#FAFBFB;}
	.st15{fill:#576064;}
	.st16{fill:#C5CACC;}
	.st17{fill:#50585D;}
	.st18{fill:#363F44;}
	.st19{fill:#80878C;}
	.st20{fill:#6C7479;}
	.st21{fill:#6A7277;}
	.st22{fill:#535C60;}
	.st23{fill:#F5F5F6;}
	.st24{fill:#ADB2B6;}
	.st25{fill:#8E9599;}
	.st26{fill:#697176;}
	.st27{fill:#40999D;}
	.st28{fill:#AD203C;}
	.st29{fill:#3D965C;}
	.st30{fill:#AEFD66;}
	.st31{fill:#CF494E;}
	.st32{fill:#333B42;}
	.st33{fill:#2F3C40;}
	.st34{fill:#3B504A;}
	.st35{fill:#EDF1EE;}
	.st36{fill:#F5F4F4;}
	.st37{fill:#303841;}
	.st38{fill:#E5ECE7;}
	.st39{fill:#D9D1D1;}
	.st40{fill:#5A4F54;}
	.st41{fill:#82898D;}
	.st42{fill:#9FA5A8;}
	.st43{fill:#A9AEB2;}
	.st44{fill:#BABFC1;}
	.st45{fill:#ABB0B3;}
	.st46{fill:#81888C;}
	.st47{fill:#676F73;}
	.st48{fill:#515A5E;}
	.st49{fill:#535B60;}
	.st50{fill:#404F54;}
	.st51{fill:#B5F568;}
	.st52{fill:#9FCCCE;}
	.st53{fill:#9ECBCD;}
	.st54{fill:#F8F9F9;}
	.st55{fill:#30393F;}
	.st56{fill:#31393E;}
	.st57{fill:#30363B;}
	.st58{fill:#323A3F;}
	.st59{fill:#2C363B;}
	.st60{fill:#F6F6F6;}
	.st61{fill:#9DC8CA;}
	.st62{fill:#EBECED;}
	.st63{fill:#9DC8CB;}
	.st64{fill:#F2F4F4;}
</style>
<g>
	<path class="st0" d="M80.22,14.39c-0.11,1.89,0.46,3.57,1.53,5.13c3.02,4.36,6,8.76,9,13.13c0.53,0.78,0.79,1.67,0.35,2.49
		c-1.29,2.4-2.74,4.71-5.69,5.34c-1.7,0.36-3.45,0.45-5.06-0.33c-1.63-0.8-3.23-0.77-4.96-0.44c-11.48,2.17-22.97,4.29-34.47,6.36
		c-1.05,0.19-1.76,0.49-2.38,1.43c-1.1,1.66-2.75,2.59-4.73,2.99c-2.6,0.52-5.11,0.63-7.55-0.69c-1.79-0.97-2.94-2.33-3.06-4.39
		c-0.04-0.65-0.3-0.95-0.85-1.24c-3.64-1.98-7.27-4-10.88-6.04c-0.46-0.26-0.86-0.31-1.35-0.27c-5.11,0.49-9.3-3.07-10.1-8.14
		c-0.09-0.6-0.03-1.18,0.15-1.77c1.23-3.92,2.67-7.77,3.56-11.8c0.16-0.73,0.56-1.43,1.1-1.81c1.26-0.89,0.99-2.01,0.77-3.17
		C5.2,8.89,6.07,6.83,7.87,6.12c0.73-0.29,1.54-0.47,2.32-0.54c8.52-0.73,16.96-2.09,25.45-3.07c5.27-0.61,10.54-1.27,15.81-1.93
		c0.48-0.06,0.93-0.19,1.37-0.37c0.74-0.3,1.49-0.27,2.21,0.09c3.17,1.61,6.52,2.76,9.87,3.93c4.51,1.58,8.94,3.39,13.26,5.43
		C80.14,10.59,80.33,12.46,80.22,14.39z"/>
	<path d="M78.97,14.53c-0.1,2.06,0.56,3.85,1.73,5.53c3.04,4.4,6.04,8.83,9.07,13.23c0.36,0.52,0.54,1.17,0.19,1.55
		c-0.96,1.04-1.33,2.45-2.52,3.36c-1.84,1.39-4.08,1.91-5.86,1c-3.01-1.54-5.79-0.73-8.66-0.21c-8.6,1.55-17.18,3.16-25.77,4.74
		c-2.67,0.49-5.34,0.98-8.01,1.41c-0.51,0.08-0.73,0.3-0.95,0.73c-1.01,1.99-2.64,3.11-4.84,3.48c-2.18,0.37-4.3,0.51-6.38-0.57
		c-1.69-0.88-2.67-2.14-2.57-4.08c0.03-0.67-0.21-0.96-0.77-1.26c-3.94-2.16-7.87-4.35-11.79-6.55c-0.48-0.27-0.93-0.35-1.47-0.3
		c-4.49,0.43-6.98-1.6-8.71-5.26c-0.51-1.07-0.57-2.32-0.16-3.6c1.2-3.7,2.55-7.36,3.38-11.18c0.2-0.91,0.82-1.65,1.67-2.09
		c0.5-0.26,0.64-0.5,0.54-1.1c-0.19-1.21-0.26-2.45-0.29-3.67C6.75,8.23,7.63,7.25,9.1,6.99c3.19-0.56,6.43-0.68,9.64-1.09
		c5.55-0.71,11.08-1.55,16.63-2.16c5.48-0.6,10.94-1.31,16.41-2.01c0.48-0.06,0.92-0.11,1.36-0.38c0.41-0.25,0.93-0.24,1.38,0.01
		c2.68,1.49,5.58,2.5,8.46,3.47c4.9,1.65,9.63,3.67,14.36,5.73c0.87,0.38,1.47,1.01,1.61,1.94C79.05,13.16,78.97,13.85,78.97,14.53z
		"/>
	<path class="st1" d="M37.51,44.22c-0.59,2.64-3.13,4.2-5.6,4.08c-1.58-0.08-3.18,0.2-4.66-0.68c-1.47-0.88-2.04-2.07-1.52-3.7
		c0.15-0.47,0.03-0.63-0.33-0.82c-0.63-0.33-1.24-0.69-1.86-1.03c-0.02-0.43-0.44-1,0.4-1.12c1.01,0.2,1.78,0.88,2.65,1.34
		c0.63,0.33,0.9,0.31,0.99-0.48c0.32-2.93,0.59-5.87,0.92-8.79c0.16-1.38,0.18-2.79,0.51-4.15c0.25-1.03-0.16-1.56-1-1.98
		c-1.39-0.69-2.76-1.44-4.19-2.04c-1.04-0.45-2.01-1.05-3.07-1.45c-0.93-0.49-1.88-0.95-2.85-1.37c-0.43-0.18-0.86-0.39-1.05-0.88
		c-0.13-0.56-0.36-1.1-0.18-1.69c0.32-0.51,0.77-0.26,1.17-0.18c0.58,0.13,1.17,0.1,1.76,0.18c3.28,1.25,6.37,2.95,9.64,4.24
		c0.26,0.1,0.49,0.27,0.78,0.24c0.21-0.09,0.22-0.32,0.35-0.47c0.47-0.58,0.9-0.71,1.15,0.17c0.06,0.22,0.19,0.34,0.41,0.36
		c5.15-0.95,10.3-1.89,15.45-2.79c8.65-1.52,17.26-3.34,26-4.32c1.85-0.21,1.84-0.26,2.18-2.14c0.03-0.16,0.08-0.31,0.14-0.45
		c0.07-0.12,0.17-0.2,0.31-0.24c0.37-0.05,0.7,0.08,0.65,0.48c-0.21,1.57,0.41,2.95,0.96,4.35c0.02,0.06-0.03,0.15-0.06,0.23
		c-0.32,0.44-0.82,0.44-1.29,0.52c-11.65,2.02-23.29,4.15-34.94,6.2c-3.46,0.61-6.9,1.32-10.35,1.94c-0.16,0.03-0.29,0.12-0.41,0.23
		c-0.37,1.72-0.38,3.48-0.55,5.22c-0.36,3.54-0.75,7.07-1.02,10.61c-0.19,1.08,0.47,1.22,1.29,1.13c1.75-0.19,3.48-0.44,5.22-0.72
		C36.17,44.15,36.84,43.93,37.51,44.22z"/>
	<path class="st2" d="M77.55,19.01c-0.89-1.25-1.41-2.61-1.18-4.17c0.05-0.34,0.12-0.63-0.35-0.68c0.06-0.37,0.25-0.73,0.02-1.1
		c-1.72-0.84-3.52-1.49-5.25-2.32c-0.7-0.48-1.56-0.57-2.33-0.88c-1.11-0.39-2.14-0.96-3.26-1.32c-1.42-0.78-2.98-1.08-4.53-1.46
		c-1.81-0.95-3.75-1.6-5.65-2.33c-0.82-0.4-1.65-0.47-2.56-0.35c-4.39,0.61-8.78,1.18-13.18,1.72c-0.6,0.07-1.17,0.25-1.76,0.36
		c-6.22,0.58-12.4,1.5-18.6,2.22c-1.57,0.18-3.19,0.09-4.7,0.69c-1.01,0.07-2-0.43-3.04,0.03c-0.51,0.22-0.91,0.44-1.14,0.95
		c-0.06,0.1-0.12,0.2-0.19,0.3c-0.7,1.59-0.56,3.25-0.35,4.89c0.15,1.22-0.09,1.61-1.28,1.28c-0.76-0.21-0.98,0.3-1.34,0.69
		c-0.22,0.23-0.44,0.52-0.8,0.31c-0.2-0.12-0.19-0.32-0.05-0.51c0.08-1.08,0.54-1.83,1.7-1.93c0.79-0.07,0.8-0.63,0.66-1.13
		C8.03,13.06,8.24,11.82,8,10.6C7.66,8.92,8.27,8.37,9.99,8.19c3.22-0.35,6.42-0.87,9.64-1.14c3.31-0.28,6.61-0.7,9.87-1.28
		c6.01-1.07,12.11-1.25,18.12-2.29c1.92-0.33,3.87-0.51,5.8-0.77c0.45-0.06,0.87,0.03,1.28,0.21c4.86,2.15,9.95,3.67,14.87,5.66
		c2.37,0.95,4.64,2.12,7.04,2.99c0.93,0.34,1.3,0.96,1.22,1.94c-0.17,1.88,0.14,3.72,0.67,5.52c-0.11,0.19-0.28,0.28-0.49,0.33
		C77.78,19.33,77.62,19.24,77.55,19.01z"/>
	<path class="st3" d="M37.51,44.22c-2.03,0.32-4.05,0.68-6.09,0.92c-0.75,0.09-1.49,0.49-2.33,0.07c-0.73-0.37-0.74-0.69-0.26-1.22
		c0.46-0.55,1.08-0.56,1.72-0.5c2.01,0.08,3.94-0.49,5.9-0.81c5.31-0.86,10.63-1.67,15.93-2.59c9.56-1.65,19.13-3.27,28.69-4.94
		c1.46-0.25,2.91-0.54,4.38-0.72c1.04-0.13,1.98-0.49,2.88-1c0.33,0.45,0.68,0.9-0.17,1.19c-0.45,0.68-1.1,0.96-1.89,1.09
		c-1.96,0.33-3.92,0.7-5.88,1.06c-0.47,0.09-0.94,0.17-1.42,0.02c-2.51,0.18-4.94,0.81-7.41,1.25c-9.05,1.62-18.07,3.32-27.11,4.98
		C42.14,43.44,39.82,43.82,37.51,44.22z"/>
	<path class="st4" d="M88.32,33.43c-0.52,1.51-1.96,1.17-3.02,1.37c-6.39,1.17-12.8,2.26-19.2,3.35c-5.94,1-11.88,1.96-17.82,2.95
		c-4.14,0.69-8.28,1.4-12.42,2.09c-1.56,0.26-3.13,0.5-4.69,0.75c-0.25,0.04-0.48,0.02-0.64-0.21c0.45-0.65,1.19-0.6,1.83-0.72
		c9.49-1.8,19.01-3.46,28.53-5.12c8.1-1.41,16.19-2.92,24.3-4.31c1.46-0.25,1.42-0.26,0.59-1.48c-2.48-3.63-4.94-7.27-7.39-10.91
		c-0.22-0.33-0.44-0.67-0.5-1.08c-0.02-0.32,0.21-0.59,0.16-0.92c0.15-0.06,0.3-0.13,0.46-0.19c2.25,3.29,4.51,6.57,6.76,9.86
		C86.28,30.38,87.3,31.91,88.32,33.43z"/>
	<path class="st5" d="M6.03,17.32c0.11,0.54,0.33,0.51,0.56,0.09c0.48-0.89,1.01-1.22,2.1-0.75c0.83,0.36,0.61-0.4,0.53-0.94
		C8.96,13.92,8.74,12.1,9.7,10.4c0.19,0.23,0.3,0.51,0.36,0.8c0.03,0.18,0.02,0.37-0.01,0.55c-0.12,1.24-0.16,2.48,0.02,3.72
		c0.04,0.12,0.07,0.23,0.1,0.35c0.05,0.69,0.64,1.35,0.11,2.07C9.54,18.18,9,17.66,8.42,17.38c-0.58-0.27-0.97-0.21-1.23,0.4
		c-0.84,1.51-1.34,3.12-1.55,4.83c-0.9,2.15-1.02,4.5-1.68,6.71c-0.18,0.6,0.22,0.95,0.67,1.27c1.46,1.05,3.09,1.82,4.67,2.66
		c1.9,1.01,3.84,1.94,5.62,3.15c0.36,0.24,0.73,0.51,1.21,0.29c0.12-0.01,0.23,0.03,0.32,0.11c0.22,0.43,0.43,0.87,0.16,1.36
		c-1.77-0.96-3.54-1.91-5.31-2.87c-2.56-0.75-4.66-2.4-7-3.58c-0.59-0.3-1.26-0.55-1.61-1.19c-0.45-1.68,0.21-3.18,0.7-4.72
		C4.29,22.98,5.15,20.15,6.03,17.32z"/>
	<path class="st4" d="M78.97,36.79c2.4-0.7,4.89-0.95,7.34-1.42c0.7-0.14,1.26-0.44,1.85-0.75c-0.94,3.07-3.31,4.38-6.44,3.48
		C80.74,37.82,79.68,37.65,78.97,36.79z"/>
	<path class="st4" d="M2.69,30.53c2.87,1.59,5.74,3.18,8.61,4.77c-2,0.37-3.89,0.26-5.72-0.86C4.05,33.5,3.35,32.06,2.69,30.53z"/>
	<path class="st6" d="M16.62,38.17c-0.1-0.45-0.2-0.9-0.3-1.35c0.41-0.4,0.75-0.06,1.06,0.13c1.91,1.15,3.86,2.23,5.74,3.41
		c0.24,0.21,0.67,0.24,0.67,0.69c-0.53,0.23,0.27,0.79-0.25,1.01C21.23,40.77,18.93,39.47,16.62,38.17z"/>
	<path class="st7" d="M78.06,19.76c0.69,1.77,1.94,3.18,2.97,4.74c1.98,2.99,4.01,5.95,6.12,9.06c-3.34,0.59-6.53,1.16-9.73,1.73
		c-4.44,0.8-8.87,1.62-13.31,2.4c-4.63,0.82-9.27,1.57-13.9,2.39c-6.22,1.11-12.43,2.25-18.65,3.39c-0.35,0.06-0.69,0.17-1.04,0.26
		c-0.56,0.09-1.12,0.17-1.68,0.26c-0.23-0.22-0.22-0.49-0.19-0.78c0.54-5.04,1.12-10.07,1.45-15.13c0.01-0.14,0.14-0.27,0.22-0.4
		c1.74,0.15,3.39-0.42,5.06-0.7c10.71-1.8,21.4-3.75,32.09-5.65c2.95-0.52,5.9-1.07,8.84-1.59C76.88,19.65,77.48,19.43,78.06,19.76z
		"/>
	<path class="st8" d="M75.84,14.18c-0.06,2.8-0.06,2.86-2.6,3.12c-7.2,0.73-14.27,2.21-21.38,3.46c-6.44,1.13-12.87,2.35-19.31,3.53
		c-0.35,0.06-0.7,0.15-1.05,0.23c-0.22-1.24-0.49-2.47-0.4-3.75c0.07-0.9,0.39-1.46,1.42-1.25c0.69,0.43,1.44,0.38,2.2,0.27
		c13.15-1.78,26.26-3.83,39.39-5.76C74.7,13.94,75.3,13.73,75.84,14.18z"/>
	<path class="st9" d="M23.8,41.05c-0.24-0.15-0.49-0.29-0.73-0.44c-1-2.65-1.87-5.34-2.71-8.04c-0.69-2.21-1.47-4.38-2.06-6.62
		c-0.07-0.31-0.08-0.62,0.09-0.9c0.55-0.45,1.07-0.07,1.56,0.12c2.3,0.89,4.51,2,6.81,2.9c0.46,0.18,0.91,0.51,1.53,0.25
		c-0.19-0.49-0.64-0.58-1.02-0.72c-1.23-0.46-2.35-1.16-3.58-1.64c-0.3-0.12-0.59-0.26-0.7-0.6c-0.01-0.54,0.37-0.71,0.8-0.83
		c1.78,0.71,3.45,1.64,5.13,2.56c0.39,0.22,0.66,0.41,0.54,1.02c-0.59,3.1-0.75,6.25-1.11,9.38c-0.2,1.7-0.36,3.41-0.5,5.12
		c-0.05,0.65-0.28,0.63-0.74,0.36C26.02,42.33,24.9,41.69,23.8,41.05z"/>
	<path class="st10" d="M75.84,14.18c-4.7,0.68-9.4,1.37-14.1,2.05c-8.02,1.17-16.03,2.34-24.05,3.5c-1.34,0.19-2.69,0.33-4.04,0.46
		c-0.34,0.03-0.85,0.24-0.93-0.41c0.24-0.38,0.69-0.4,1.05-0.58c3.19-0.76,6.45-1.11,9.68-1.66c9.89-1.67,19.84-2.89,29.73-4.51
		c0.96-0.16,1.95-0.5,2.94-0.07c0.96,0.48,0.62,0.85-0.09,1.2c0,0-0.1-0.01-0.1-0.01L75.84,14.18z"/>
	<path class="st11" d="M30.24,24.51c-3.52-1.59-7.03-3.18-10.55-4.77c-0.59-0.31-1.3-0.35-1.81-0.83c-0.18-0.2-0.53-0.34-0.28-0.71
		c1.26-0.34,2.22,0.42,3.2,0.96c1.03,0.58,2.06,1.03,3.24,1.09c0.24,0.01,0.47,0.09,0.71,0.02c0.5-0.13,0.91-0.41,0.96-0.94
		c0.05-0.49-0.4-0.64-0.78-0.78c-1.01-0.38-2.03-0.69-3.03-1.1c-2.35-0.96-4.7-1.91-6.78-3.39c-0.36-0.38-0.33-0.66,0.22-0.8
		c0.58-0.04,1.09,0.21,1.59,0.45c1.19,0.38,2.25,1.24,3.62,1.02c0.92,0.19,1.96,0.17,2.22,1.4c0.07,0.32,0.35,0.28,0.56,0.34
		c1.27,0.34,2.51,0.8,3.8,1.09c3.58,1.1,3.83,1.63,3.33,5.68C30.39,23.67,30.56,24.14,30.24,24.51z"/>
	<path class="st12" d="M78.06,19.76c-7.01,1.27-14.03,2.54-21.04,3.8c-6.12,1.09-12.23,2.17-18.35,3.24
		c-2.55,0.44-5.11,0.84-7.66,1.26c-0.33,0.05-0.66,0.12-0.69-0.37c3.65-0.89,7.35-1.52,11.04-2.18c11.88-2.13,23.76-4.21,35.64-6.31
		c0.19-0.03,0.38-0.12,0.57-0.17c0.16,0.06,0.32,0.13,0.48,0.19c0.13,0.13,0.27,0.26,0.4,0.39C78.31,19.64,78.18,19.7,78.06,19.76z"
		/>
	<path class="st13" d="M17.56,18.29c0.16,0.16,0.31,0.33,0.47,0.49c-0.21,0.23-0.49,0.19-0.75,0.18c-0.38-0.01-0.58,0.14-0.48,0.55
		c0.03,0.57,0.38,1.09,0.26,1.69c-0.36,0.26-0.7,0.07-1.01-0.09c-1.71-0.87-3.45-1.66-5.18-2.47c-0.35-0.16-0.76-0.3-0.8-0.79
		c0.5-0.7-0.21-1.3-0.18-1.96c1.2-0.12,2.16,0.63,3.24,0.94c1.12,0.32,2.14,1.06,3.39,0.77C16.97,17.68,17.38,17.81,17.56,18.29z"/>
	<path class="st14" d="M10.07,17.84c2.31,1.15,4.59,2.38,6.99,3.35c1.28,0.64,2.55,1.29,3.83,1.93c-0.14,0.65-0.73,0.5-1.15,0.65
		c-0.76,0.01-1.33-0.48-2-0.72c-1.88-0.76-3.62-1.82-5.5-2.59c-0.42-0.17-0.84-0.37-1.24-0.59c-0.95-0.73-2.13-0.97-3.15-1.56
		c-0.35-0.19-0.73-0.35-0.84-0.79c0.28-0.78,0.72-0.93,1.44-0.46C8.96,17.39,9.54,17.59,10.07,17.84z"/>
	<path class="st15" d="M30.24,24.51c0.01-1.28-0.04-2.56,0.06-3.84c0.08-1.11-0.42-1.73-1.37-2.11c-0.67-0.26-1.34-0.52-2.01-0.78
		c-0.51-0.49-1.01-0.99-1.64-1.35c-0.3-0.18-0.77-0.36-0.47-0.89c0.26-0.15,0.54-0.12,0.81-0.02c2.07,0.81,4.22,1.42,6.18,2.47
		c0.69,0.42,0.92,1.41,1.88,1.51c-0.32,0.09-0.63,0.18-0.95,0.27c-1.02-0.28-1.36,0.13-1.29,1.15c0.08,1.19,0.05,2.39,0.07,3.59
		c-0.61-0.22,0.08-1.18-0.56-1.2C30.24,23.29,30.8,24.28,30.24,24.51z"/>
	<path class="st16" d="M19.69,23.59c0.4-0.16,0.8-0.31,1.2-0.47c0.97,0.47,1.93,0.94,2.9,1.41c-0.24,0.24-0.48,0.48-0.72,0.71
		C21.77,25.05,20.5,24.79,19.69,23.59z"/>
	<path class="st17" d="M16.79,19.5c-0.25-0.98-0.25-0.98,1.23-0.73c0.55,0.33,1.2,0.48,1.67,0.97C18.7,19.92,17.77,19.43,16.79,19.5
		z"/>
	<path class="st18" d="M33.67,19.51c-1.16,0.4-1.32-0.79-1.96-1.22c-0.22-1.03,0-1.49,0.98-1.7c0.78-0.17,1.5-0.45,2.17-0.86
		c2.61-1.4,5.17-2.91,7.76-4.35c1.89-1.18,3.92-2.12,5.78-3.34c1.78-0.99,3.56-1.97,5.32-2.98c0.45-0.26,0.9-0.52,1.45-0.46
		c1.91,0.47,3.65,1.35,5.46,2.09c0.07,0.03,0.08,0.21,0.11,0.32c-0.13,0.59-0.67,0.74-1.1,1c-1.05,0.65-2.18,1.15-3.2,1.84
		c-2.27,1.23-4.5,2.56-6.88,3.9c2.21-0.02,4.25-0.42,6.31-0.33c0.49,0.02,0.93-0.17,1.35-0.43c1.65-1.04,3.36-2,5.01-3.04
		c1-0.55,1.83-1.45,3.08-1.49c1.17,0.05,2.1,0.73,3.12,1.2c0.12,0.58-0.39,0.72-0.7,0.97c-1.02,0.81-2.16,1.46-3.3,2.38
		c0.72,0.28,1.25,0.09,1.77-0.15c1.23-0.57,2.36-1.31,3.55-1.95c0.34-0.18,0.64-0.5,1.09-0.3c1.02,0.08,1.85,0.69,2.76,1.04
		c0.85,0.32,1.62,0.8,2.56,0.91c0.53,0.06-0.06,0.26-0.04,0.41c-8.68,1.3-17.36,2.56-26.03,3.89C44.61,17.7,39.14,18.62,33.67,19.51
		z"/>
	<path class="st18" d="M13.94,9.42c0.08-0.55,0.51-0.68,0.96-0.72c3.23-0.33,6.48-0.51,9.67-1.01c3.48-0.55,6.99-0.79,10.46-1.34
		c0.8-0.13,1.62-0.07,2.43-0.1c-0.08,0.56-0.57,0.73-0.96,0.97c-1.56,0.94-3.13,1.89-4.69,2.83c-0.88,0.48-1.72,1.04-2.59,1.54
		c-1.23,0.67-2.35,1.53-3.6,2.16c-0.77,0.4-1.44,0.97-2.22,1.36c-0.41,0.08-0.78-0.08-1.15-0.22c-2.29-0.9-4.61-1.73-6.89-2.64
		C14.12,11.75,13.62,10.76,13.94,9.42z"/>
	<path class="st19" d="M31.7,9.88c1.92-1.21,3.84-2.42,5.76-3.62c1.66-0.79,3.5-0.62,5.25-0.9c3.41-0.54,6.85-0.93,10.27-1.4
		c0.84-0.12,1.56,0.07,2.2,0.63c-2.21,1.22-4.43,2.44-6.64,3.66c-3.11,0.06-6.21,0.28-9.28,0.78c-1.74,0.28-3.42,0.8-5.15,1.08
		C33.32,10.23,32.44,10.62,31.7,9.88z"/>
	<path class="st20" d="M13.94,9.42c0.15,1.37,0.6,2.34,2.16,2.81c2.52,0.76,4.92,1.94,7.45,2.72c0.5,0.06,1.08-0.02,1.21,0.69
		c0.24,0.58,0.88,0.62,1.31,0.95c0.41,0.33,0.81,0.63,0.85,1.2c-1.32-0.37-2.64-0.75-3.96-1.13c-0.15-0.04-0.41-0.12-0.41-0.19
		c-0.01-1.47-1.34-1.13-2.11-1.56c-1.09-0.03-1.93-0.79-2.97-0.97c-2.15-0.95-4.31-1.89-6.49-2.77c-0.43-0.18-0.94-0.28-1.11-0.82
		c0.2-0.96,1.16-1.64,2.4-1.51C12.83,8.91,13.56,8.72,13.94,9.42z"/>
	<path class="st21" d="M56.41,9.65C57.72,8.54,59.37,8,60.75,7c1.67,0.02,3.22,0.42,4.57,1.45c-0.96,0.56-1.92,1.11-2.88,1.67
		c-1.44-0.47-2.9-0.08-4.34-0.13C57.51,9.97,56.89,10.12,56.41,9.65z"/>
	<path class="st22" d="M70.83,10.61c-1.56,0.86-3.12,1.72-4.68,2.58c-0.7,0.38-1.41,0.48-2.25-0.12c1.54-1.17,3.04-2.29,4.53-3.42
		C69.27,9.87,70.23,9.8,70.83,10.61z"/>
	<path class="st23" d="M9.87,10.37c2.57,1.12,5.14,2.23,7.71,3.35c-0.09,0.56-0.42,0.39-0.75,0.25c-0.48-0.16-0.96-0.32-1.44-0.47
		c-1.67-0.16-3.08-1.04-4.6-1.61c-0.39-0.14-0.67-0.45-0.96-0.72c-0.31-0.2-0.16-0.49-0.14-0.75C9.76,10.41,9.82,10.4,9.87,10.37z"
		/>
	<path class="st24" d="M18.52,25.97c0.8,2.44,1.59,4.88,2.4,7.32c0.64,1.96,1.3,3.92,1.94,5.87c0.16,0.47,0.39,0.94,0.21,1.46
		c-2.03-1.2-4.07-2.39-6.1-3.6c-0.21-0.12-0.39-0.27-0.65-0.2c-0.07-0.02-0.14-0.04-0.2-0.06c-0.28-0.08-0.41-0.29-0.51-0.54
		c-1.07-3.36-2.04-6.76-3.11-10.13c-0.13-0.42-0.28-0.83-0.26-1.28c0.54-2.27,1.01-2.53,3.14-1.68
		C16.77,23.69,18.11,24.31,18.52,25.97z"/>
	<path class="st4" d="M15.87,36.29c0.08,0.15,0.16,0.31,0.25,0.46c-0.03,0.35,0.09,0.79-0.55,0.37c-2.39-1.59-4.97-2.83-7.48-4.19
		c-1.29-0.7-2.65-1.29-3.81-2.2C3.89,30.42,3.43,30.2,3.6,29.5c0.53-2.15,1-4.32,1.48-6.48c0.06-0.28,0.24-0.39,0.49-0.43
		c0.29-0.06,0.46,0.08,0.56,0.34c-0.19,1.83-0.72,3.59-1.12,5.37c-0.23,1.02-0.04,1.53,0.97,2.03c3.18,1.57,6.19,3.45,9.23,5.27
		C15.5,35.78,15.7,36.02,15.87,36.29z"/>
	<path class="st25" d="M9.83,11.15c0.33,0.14,0.66,0.29,0.99,0.43c0.51,0.67,0.33,1.45,0.32,2.19c-0.02,0.92,0.36,1.5,1.2,1.84
		c1.18,0.47,2.34,0.98,3.51,1.47c0.29,0.2,0.75,0.22,0.75,0.72c-0.7,0.3-1.33,0.19-2.04-0.12c-1.52-0.67-3.1-1.2-4.66-1.79
		c-0.02-0.07-0.04-0.15-0.04-0.22c-0.17-1.37-0.17-2.73,0-4.1C9.85,11.42,9.84,11.29,9.83,11.15z"/>
	<path class="st26" d="M6.03,22.85c-0.15-0.09-0.3-0.17-0.45-0.26c-0.43-0.49-0.12-0.98,0.02-1.45c0.36-1.25,0.66-2.53,1.43-3.62
		c0.3,0.18,0.61,0.36,0.91,0.55c-0.07,0.69-0.57,1.21-0.7,1.87C6.78,20.89,6.94,22.1,6.03,22.85z"/>
	<path class="st20" d="M9.86,11.56c0,1.37,0,2.73,0,4.1C9.5,14.29,9.51,12.93,9.86,11.56z"/>
	<path class="st27" d="M31.46,39.65c0.27-3.53,0.51-6.75,0.77-9.96c0.07-0.84,0.45-1.21,1.42-1.37c6.7-1.1,13.39-2.31,20.08-3.48
		c1.88-0.33,3.76-0.64,5.63-0.99c0.76-0.14,1.31,0.08,1.74,0.72c2.15,3.17,4.29,6.34,6.47,9.48c0.43,0.62,0.31,0.72-0.39,0.84
		c-5.99,1.01-11.98,2.06-17.97,3.11c-5.52,0.96-11.04,1.91-16.55,2.93c-0.98,0.18-1.59,0.31-1.21-1
		C31.51,39.74,31.46,39.52,31.46,39.65z"/>
	<path class="st28" d="M74.18,28.61c0.27-0.38,0.84-0.08,1.11-0.48c0.98-0.2,1.96-0.37,2.93-0.59c0.97,0.03,2.17,1.09,2.3,2.02
		c0.08,0.55-0.27,0.65-0.7,0.75c-2.4,0.53-4.83,0.93-7.26,1.32c-0.75-0.3-0.18-0.69-0.03-1C72.94,29.84,73.82,29.44,74.18,28.61z"/>
	<path class="st29" d="M72.52,22.65c0.17-0.04,0.34-0.07,0.51-0.11c1.49-0.88,1.81-0.79,3.06,0.8c-0.01,0.05,0,0.09,0.02,0.14
		c0.09,0.09,0.12,0.2,0.1,0.33c-0.38,0.71-1,1.2-1.62,1.68c-1.13,0.4-2.29,0.61-3.48,0.73c-1.16,0.23-2.27,0.72-3.48,0.63
		c-0.38-0.23-0.2-0.49,0.02-0.66C69.25,24.98,70.72,23.59,72.52,22.65z"/>
	<path class="st30" d="M72.52,22.65c-1.55,1.51-3.41,2.63-5.05,4.02c-0.56,0.59-1.13,0.55-1.62-0.05c-0.59-0.73-1.71-1.41-1.5-2.3
		c0.19-0.8,1.49-0.59,2.3-0.75c1.83-0.36,3.65-0.79,5.51-0.97C72.28,22.61,72.4,22.63,72.52,22.65z"/>
	<path class="st31" d="M74.18,28.61c0.5,0.02,0.39,0.24,0.14,0.48c-0.76,0.73-1.48,1.48-2.08,2.35c-0.04,0.29-0.22,0.38-0.49,0.35
		c-0.28-0.02-0.53,0.13-0.8,0.16c-1.49,0.2-1.52,0.19-2.22-1.23c-0.1-0.68,0.17-1.11,0.86-1.26c0.16-0.02,0.32-0.05,0.48-0.07
		c1.07-0.52,2.23-0.65,3.39-0.79C73.71,28.61,73.94,28.61,74.18,28.61z"/>
	<path class="st32" d="M72.16,22.59c-2.51,0.78-5.14,0.94-7.97,1.63c1.33,0.71,1.17,2.93,3.27,2.45c1.23-0.22,2.46-0.44,3.69-0.66
		c0.07,0.17,0.06,0.32-0.12,0.42c-1.58,0.68-3.29,0.84-4.94,1.23c-0.37,0.09-0.61-0.11-0.79-0.4c-0.67-1.03-1.47-1.97-2.06-3.23
		c2.93-0.56,5.8-1.11,8.67-1.65C71.98,22.37,72.07,22.52,72.16,22.59z"/>
	<path class="st33" d="M71.87,31.68c0.13-0.08,0.25-0.16,0.38-0.24c2.72-0.33,5.39-0.93,8.35-1.49c-0.92-0.83-0.91-2.21-2.32-2.33
		c-0.08-0.04-0.1-0.09-0.08-0.13c0.03-0.04,0.06-0.06,0.08-0.06c0.66-0.31,1.16-0.2,1.6,0.45c0.53,0.78,1.16,1.48,1.88,2.38
		c-3.44,0.59-6.7,1.15-9.96,1.7C71.69,31.84,71.71,31.75,71.87,31.68z"/>
	<path class="st34" d="M69.59,29.47c-0.41,0.35-0.9,0.67-0.6,1.34c0.02,0.43,0.08,0.88-0.55,0.93c-0.1-0.11-0.23-0.21-0.3-0.34
		c-0.27-0.51-1.08-1.17-0.8-1.43C67.87,29.44,68.75,29.23,69.59,29.47z"/>
	<path class="st35" d="M71.04,26.42c0.04-0.14,0.08-0.28,0.12-0.42c1.14-0.29,2.34-0.35,3.45-0.79c0.17-0.08,0.34-0.12,0.52-0.04
		c0.09,0.11,0.07,0.2-0.06,0.27C73.83,26.22,72.46,26.42,71.04,26.42z"/>
	<path class="st36" d="M68.44,31.74c0.18-0.31,0.37-0.62,0.55-0.93c0.53,1.7,1.89,0.68,2.88,0.87c-0.02,0.1-0.04,0.19-0.06,0.29
		c-0.73,0.15-1.47,0.3-2.2,0.45C69,32.55,68.6,32.35,68.44,31.74z"/>
	<path class="st37" d="M75.07,25.45c0.03-0.07,0.05-0.13,0.06-0.21c0.21-0.56,1.46-0.42,0.98-1.45c0-0.11,0-0.21,0.01-0.32
		c0.76,0.22,0.87,1.03,1.54,1.55C76.71,25.31,75.96,25.71,75.07,25.45z"/>
	<path class="st38" d="M76.09,23.34c-0.07-0.01-0.2,0-0.22-0.04c-0.68-1.28-1.73-1.14-2.85-0.76
		C74.31,21.19,75.56,21.72,76.09,23.34z"/>
	<path class="st39" d="M73.47,28.61c-1.09,0.43-2.26,0.53-3.39,0.79c0-0.59,0.55-0.46,0.81-0.5C71.74,28.76,72.56,28.23,73.47,28.61
		z"/>
	<path class="st40" d="M78.28,27.43c-0.01,0.06-0.01,0.12-0.01,0.18c-0.98,0.26-1.95,0.57-2.98,0.51
		C76.24,27.69,77.26,27.57,78.28,27.43z"/>
	<path class="st41" d="M19.69,23.59c1.01,0.78,2.3,1.01,3.38,1.65c1.58,0.91,3.25,1.63,4.92,2.33c0.46,0.19,1.02,0.35,0.77,0.95
		c-0.24,0.59-0.8,0.34-1.23,0.16c-2.05-0.85-4.09-1.72-6.13-2.59c-0.95-0.4-1.87-0.85-2.89-1.08c-0.81-0.59-1.12-1.54-0.7-2.18
		C18.44,23.08,19.07,23.34,19.69,23.59z"/>
	<path class="st42" d="M17.81,22.83c0.07,0.78,0.29,1.51,0.7,2.18c0,0.32,0,0.64,0,0.96c-0.92-1.56-2.39-2.31-4.04-2.84
		c-0.89-0.29-1.52-0.19-1.71,0.86c-0.05,0.27-0.17,0.52-0.26,0.78c-0.82-0.65-1.52-3.18-1.12-3.99c0.18-0.37,0.49-0.5,0.87-0.54
		C14.18,20.94,15.96,21.96,17.81,22.83z"/>
	<path class="st43" d="M16.6,17.79c-0.25-0.15-0.49-0.3-0.74-0.45c-0.37-1.1-0.96-2.15-0.71-3.38c0.69-0.05,1.14,0.25,1.65,0.74
		c1.11,1.08,2.67,1.36,4.05,1.96c1.34,0.59,2.74,1.06,4.12,1.58c0.58,0.22,1.33,0.29,1.19,1.2c-0.12,0.71-1.18,1.23-1.95,1.21
		c-2.06-0.06-3.57-1.46-5.38-2.11c-0.42-0.15-0.82-0.29-1.27-0.26C17.24,18.12,16.92,17.96,16.6,17.79z"/>
	<path class="st44" d="M15.15,13.97c0.19,1.13,0.84,2.17,0.71,3.38c-1.33-0.52-2.68-1.01-4-1.58c-0.68-0.3-1.16-0.77-1.06-1.67
		c0.09-0.83,0.01-1.68,0.01-2.51c1.53,0.63,3.05,1.27,4.58,1.9C14.99,13.48,15,13.69,15.15,13.97z"/>
	<path class="st45" d="M16.83,13.96c0.27-0.03,0.57,0.05,0.75-0.25c1.04,0.2,1.96,0.68,2.86,1.21c-0.44,0.5-0.91,0.16-1.31-0.01
		C18.37,14.58,17.52,14.46,16.83,13.96z"/>
	<path class="st9" d="M12.26,20.24c-0.64,0.36-0.86,0.92-0.66,1.61c0.28,0.98,0.61,1.95,0.92,2.92c0.68,2.32,1.36,4.64,2.04,6.95
		c0.44,1.52,0.88,3.04,1.32,4.56c-2.89-1.66-5.79-3.33-8.68-4.99c-0.21-0.12-0.41-0.24-0.63-0.34c-0.71-0.35-1.73-0.52-2.04-1.09
		c-0.29-0.54,0.15-1.48,0.33-2.24c0.37-1.6,0.78-3.18,1.17-4.78c0.33-1.04,0.65-2.07,0.98-3.11c0.79-0.19,1.34,0.37,1.96,0.66
		c1.6,0.75,1.59,0.77,2.12-0.7C11.47,19.89,11.87,20.07,12.26,20.24z"/>
	<path class="st46" d="M11.08,19.71c0.1,2,0,2.05-1.95,1.09C8.42,20.45,7.71,20.1,7,19.74c0.25-0.59,0.34-1.27,0.94-1.67
		C9.02,18.55,10.16,18.92,11.08,19.71z"/>
	<path class="st2" d="M24.76,15.64c-0.33-0.35-0.92-0.26-1.21-0.69c0.39-0.83,1.32-0.93,1.93-1.46c0.9,0.33,1.75,0.77,2.6,1.19
		c1.38,0.68,2.75,1.11,4.35,0.74c0.83-0.19,1.91-0.5,2.64,0.47c-0.58,0.48-1.23,0.92-1.97,0.93c-1.06,0.01-1.35,0.58-1.39,1.47
		C29.46,17.23,27.15,16.34,24.76,15.64z"/>
	<path class="st47" d="M31.7,9.88c2.3,0.29,4.41-0.71,6.61-1.04c3.02-0.46,6.02-0.94,9.09-0.87c0.41,0.01,0.79,0.05,1.14,0.28
		c-1.82,1.29-3.86,2.21-5.79,3.32c-2.59-0.07-5.05,0.72-7.57,1.12c-1.76,0.28-3.5,0.33-5.18-0.4c-0.41-0.18-0.97-0.27-0.91-0.93
		C29.98,10.89,30.74,10.21,31.7,9.88z"/>
	<path class="st48" d="M29.1,11.35c1.64,1.37,3.6,1.35,5.51,1.1c2.3-0.3,4.57-0.85,6.86-1.3c0.52-0.1,0.94,0.04,1.29,0.42
		c-2.5,1.55-5.07,2.97-7.68,4.33c-0.91-0.44-1.97-0.45-2.8-0.16c-1.46,0.51-2.67,0.04-3.84-0.57c-1-0.51-2.24-0.65-2.95-1.67
		C26.69,12.78,27.89,12.07,29.1,11.35z"/>
	<path class="st49" d="M56.41,9.65c1.82,0.21,3.63-0.37,5.45-0.01c0.31,0.06,0.54,0.13,0.57,0.48c-1.85,1.15-3.7,2.31-5.55,3.46
		c-0.16,0.1-0.38,0.15-0.57,0.14c-2.3-0.03-4.59,0.16-6.87,0.47c-0.2,0.03-0.4-0.04-0.56-0.36C51.39,12.44,53.76,10.81,56.41,9.65z"
		/>
	<path class="st50" d="M64.18,33.81c-2.97,0.52-5.77,1.03-8.58,1.52c-5.33,0.93-10.66,1.85-15.99,2.78c-2,0.35-4,0.67-5.99,1.07
		c-0.85,0.17-1.02-0.12-0.94-0.9c0.27-2.73,0.51-5.47,0.72-8.21c0.05-0.61,0.23-0.92,0.89-1.02c2.99-0.44,5.98-0.93,8.96-1.39
		c4.4-0.69,8.81-1.32,13.21-2.08c1.22-0.21,1.99-0.12,2.73,1.05C60.71,29.03,62.44,31.32,64.18,33.81z"/>
	<path class="st51" d="M76.11,23.8c0.24,0.3,0.48,0.61,0.79,1c-0.66,0.17-1.22,0.31-1.77,0.45c-0.17-0.01-0.34-0.02-0.51-0.03
		C75.06,24.7,75.47,24.13,76.11,23.8z"/>
	<path class="st52" d="M52.57,27.37c1.68-0.26,3.37-0.52,5.05-0.8c0.35-0.06,0.51,0.12,0.68,0.36c1.04,1.46,2.08,2.91,3.12,4.37
		c0.04,0.87-0.42,1.45-1.14,1.86c-3.63,0.64-7.25,1.29-10.88,1.93c-1.09,0.19-2.19,0.32-3.29,0.48c-0.07-0.84,0.77-1.1,1.08-1.7
		c0.34-0.22,0.69-0.42,0.8-0.85c0.36-0.43,0.67-0.93,1.33-0.92c0.92,0.96,1.98,0.44,2.98,0.23c0.62-0.13,0.41-0.67,0.28-1.07
		c-0.25-0.75-0.58-1.47-0.61-2.27C51.87,28.33,52.93,28.11,52.57,27.37z"/>
	<path class="st53" d="M38.94,36.81c-1.24,0.23-2.49,0.45-3.73,0.69c-0.51,0.1-0.61-0.13-0.56-0.58c0.23-2.17,0.46-4.35,0.65-6.52
		c0.04-0.45,0.25-0.63,0.65-0.68c2.68-0.35,5.33-0.88,8.02-1.07c-0.13,1.13-0.74,1.88-1.78,2.3c-0.12,0-0.24-0.01-0.36-0.02
		c-2.61-0.17-2.82,0.06-2.42,2.59c0.07,0.47,0.18,0.94,0.15,1.42c-0.13,0.51-0.41,1-0.8,1.3C38.13,36.71,39.04,36.58,38.94,36.81z"
		/>
	<path class="st12" d="M42.25,30.78c0.77-0.56,1.26-1.34,1.72-2.14c2.87-0.42,5.73-0.85,8.6-1.27c0.12,0.19,0.96-0.21,0.41,0.5
		c-0.26,0.34-0.56,0.64-0.84,0.96c-0.67,0.31-1.4-0.01-2.1,0.22c-0.81,0.27-1.22,0.63-0.89,1.55c0.17,0.49,0.5,1.03,0.12,1.58
		c-0.39,0.32-0.78,0.64-1.17,0.96c-0.92-0.59-0.87-1.75-1.47-2.54c-0.42-0.55-0.77-0.95-1.57-0.61c-1.23,0.51-1.33,0.62-0.92,1.95
		c0.16,0.53,0.4,1.05,0.26,1.63c-0.05,0.16-0.14,0.29-0.3,0.36c-0.36-0.07-0.72-0.12-1.07-0.24c-0.39-0.32-0.29-0.84-0.5-1.23
		C42.38,31.92,41.92,31.41,42.25,30.78z"/>
	<path class="st12" d="M44.03,33.89c0.06-0.09,0.12-0.18,0.18-0.27c0.64,0.17,1.26,0.27,1.92,0.05c0.39-0.13,0.85-0.15,1.19,0.23
		c-0.13,0.75-0.91,1.03-1.2,1.66c-2.39,0.41-4.78,0.83-7.17,1.24c-0.31-0.08-0.92,0.02-0.45-0.61c0.29-0.39,0.44-0.91,0.93-1.14
		c0.54-0.21,1.1-0.04,1.65-0.11c0.87-0.11,1.41-0.46,1.37-1.43c-0.02-0.38-0.03-0.81,0.36-1.08c0.38,0.31,0,0.89,0.41,1.19
		C43.41,33.95,43.74,33.85,44.03,33.89z"/>
	<path class="st54" d="M60.28,33.16c0.38-0.62,0.76-1.24,1.14-1.86c0.35,0.46,0.71,0.91,1.19,1.54C61.71,32.96,61,33.06,60.28,33.16
		z"/>
	<path class="st55" d="M47.31,33.91c-0.58-0.03-1.18-0.13-1.71,0.2c-0.68,0.43-1.08,0.09-1.4-0.49c0.03-0.78-0.33-1.46-0.54-2.17
		c-0.23-0.77-0.15-1.14,0.71-1.48c2.03-0.81,1.88-0.69,2.81,1.12c0.34,0.67,0.61,1.37,0.91,2.06C48.3,33.88,47.74,33.83,47.31,33.91
		z"/>
	<path class="st56" d="M49.27,32.19c-0.06-0.23-0.13-0.46-0.18-0.69c-0.16-0.78-0.87-1.79-0.19-2.28c0.87-0.63,2.07-1.06,3.24-0.39
		c0.3,0.91,0.61,1.81,0.88,2.73c0.22,0.73,0.12,1.28-0.86,1.22c-0.31-0.02-0.66-0.01-0.94,0.12C50.32,33.29,49.72,32.99,49.27,32.19
		z"/>
	<path class="st57" d="M55.89,32.04c-0.73,0.29-1.05-0.1-1.15-0.89c-0.06-0.47-0.29-0.92-0.35-1.39c-0.08-0.55-0.86-1.26,0.36-1.58
		c1.47-0.39,1.73-0.31,2.16,0.94c0.12,0.34,0.25,0.67,0.36,1.01C57.84,31.94,57.84,31.94,55.89,32.04z"/>
	<path class="st58" d="M42.8,32.45c-0.01,0.24-0.02,0.48-0.02,0.71c0.02,1.94-1.54,2.82-3.37,1.9c-0.22-1.17-0.44-2.34-0.65-3.51
		c-0.04-0.24-0.1-0.61,0.17-0.61c1.11-0.01,2.18-0.86,3.32-0.17C42.43,31.34,42.62,31.89,42.8,32.45z"/>
	<path class="st59" d="M44.03,33.89c-0.09,0.36-0.34,0.37-0.64,0.3c-0.35-0.09-0.27-0.31-0.18-0.54
		C43.52,33.59,43.94,33.18,44.03,33.89z"/>
	<path class="st60" d="M46.06,32.99c-1.42,0.17-1.11-1.09-1.31-1.73c-0.25-0.79,0.65-0.65,1.03-0.67c1.36-0.09,1,1.16,1.2,1.85
		C47.25,33.38,46.31,32.66,46.06,32.99z"/>
	<path class="st61" d="M51.2,29.75c0.51,0.25,0.43,0.82,0.6,1.24c0.12,0.31,0.66,0.84,0,1.08c-0.56,0.21-1.29,0.35-1.49-0.59
		c-0.03-0.15-0.11-0.3-0.17-0.44C50.25,30.4,50.57,29.95,51.2,29.75z"/>
	<path class="st62" d="M51.2,29.75c-0.35,0.43-0.7,0.86-1.05,1.29c-0.09-0.45-0.93-0.71-0.47-1.23
		C50.06,29.4,50.68,29.51,51.2,29.75z"/>
	<path class="st52" d="M56.63,30.88c-0.03,0.51-0.5,0.45-0.78,0.61c-0.41,0.24-0.44-0.13-0.51-0.38c-0.15-0.49-0.27-0.99-0.43-1.48
		c-0.11-0.34-0.16-0.62,0.29-0.72c0.35-0.08,0.7-0.21,0.86,0.3C56.23,29.78,56.44,30.33,56.63,30.88z"/>
	<path class="st63" d="M40.34,33.89c-0.28-0.31-0.42-0.7-0.42-1.08c-0.01-0.49-0.37-1.1,0.44-1.4c0.87-0.32,0.85,0.41,1.12,0.82
		C41.12,32.8,40.89,33.45,40.34,33.89z"/>
	<path class="st64" d="M40.34,33.89c0.17-0.7,0.49-1.3,1.14-1.66c0.63,1.54,0.44,2.06-0.73,2.01
		C40.53,34.23,40.38,34.11,40.34,33.89z"/>
</g>
</svg>
