<?xml version="1.0" encoding="utf-8"?>
<!-- Generator: Adobe Illustrator 23.0.2, SVG Export Plug-In . SVG Version: 6.00 Build 0)  -->
<svg version="1.1" id="Camada_1" xmlns="http://www.w3.org/2000/svg" xmlns:xlink="http://www.w3.org/1999/xlink" x="0px" y="0px"
	 viewBox="0 0 108.72 80.16" style="enable-background:new 0 0 108.72 80.16;" xml:space="preserve">
<style type="text/css">
	.st0{fill:#5E2F0E;}
	.st1{fill:#5C2E0C;}
	.st2{fill:#010000;}
	.st3{fill:#D88503;}
	.st4{fill:#F1ECE1;}
	.st5{fill:#D88603;}
	.st6{fill:#FCFAEF;}
	.st7{fill:#D88604;}
	.st8{fill:#B56006;}
	.st9{fill:#FCF9EE;}
	.st10{fill:#B66106;}
	.st11{fill:#B56106;}
	.st12{fill:#562B0D;}
	.st13{fill:#FEB901;}
	.st14{fill:#B56107;}
	.st15{fill:#FDB901;}
	.st16{fill:#FAF7EC;}
	.st17{fill:#4D1A00;}
	.st18{fill:#FCB700;}
	.st19{fill:#FCBA00;}
	.st20{fill:#F8F6ED;}
	.st21{fill:#FBF6E9;}
	.st22{fill:#FBB600;}
	.st23{fill:#FDBA00;}
	.st24{fill:#FBF7EC;}
	.st25{fill:#B66208;}
	.st26{fill:#B76106;}
	.st27{fill:#FAF6EA;}
	.st28{fill:#B76207;}
	.st29{fill:#F8F5EB;}
	.st30{fill:#D88403;}
	.st31{fill:#FAB700;}
	.st32{fill:#F3EFE8;}
	.st33{fill:#B76206;}
	.st34{fill:#F3EDE1;}
	.st35{fill:#F1E9D8;}
	.st36{fill:#B05E07;}
	.st37{fill:#EBE7DE;}
	.st38{fill:#E1D3B7;}
	.st39{fill:#FAB600;}
	.st40{fill:#DA8702;}
	.st41{fill:#FEFEFE;}
	.st42{fill:#D98604;}
	.st43{fill:#F8B100;}
</style>
<g>
	<path d="M56.95,78.86c-3.83,0.17-7.64,0.14-11.43-0.52c-2.4-0.42-4.78-0.92-6.83-2.34c-2.76-1.91-3.05-5.46-0.24-7.29
		c2.53-1.65,4.88-3.65,7.8-4.67c1.08-0.38,2.27-0.41,3.27-1.06c0.46-0.31,0.81-0.56,0.46-1.19c-0.14-0.25-0.09-0.62-0.09-0.94
		c0-14.32,0.01-28.64,0.03-42.96c0-0.62-0.11-0.91-0.77-1.18c-1.62-0.67-1.98-2.02-1.09-3.53c0.73-1.24,0.52-1.66-0.88-2.08
		c-3.9-1.19-7.85-1.54-11.79-0.36c-4.39,1.33-7.78,4.01-10.38,7.84c-1.48,2.18-1.6,4.1-0.32,6.42c3.08,5.57,5.96,11.24,8.97,16.85
		c1.58,2.95,3.24,5.85,4.88,8.76c0.27,0.48,0.53,0.83,1.24,0.87c1.3,0.07,1.82,1.45,1.13,2.74c-0.72,1.34-1.76,2.41-3.05,3.16
		c-5.36,3.1-10.85,5.75-17.36,4.91c-4.38-0.56-8.45-1.89-12.18-4.25c-2.05-1.3-4.26-2.35-5.93-4.21c-0.88-0.98-0.95-1.8,0.08-2.56
		c0.28-0.21,0.44-0.45,0.58-0.72c4.74-8.98,9.81-17.76,14.79-26.6c0.22-0.38,0.26-0.6-0.06-0.9c-0.14-0.13-0.34-0.34-0.33-0.48
		c0.2-1.73-0.96-2.41-2.19-3.2c-0.81-0.52-1.39-1.44-1.68-2.42c-0.2-0.65-0.27-1.37,0.27-1.92c0.51-0.52,1.16-0.5,1.78-0.26
		c1.16,0.45,1.78,0.14,2.41-1.02c3.41-6.34,8.49-10.6,15.72-11.91c2.51-0.46,5,0.04,7.49,0.48c2.52,0.45,4.95,1.15,7.24,2.31
		c0.22,0.11,0.44,0.32,0.77,0.16c2.57-1.25,5.33-0.51,8-0.74c0.49-0.04,1.11,0.09,1.47,0.39c0.87,0.7,1.61,0.45,2.45,0.01
		c3.24-1.68,6.78-2.39,10.34-2.65c7.23-0.51,12.86,2.65,17.27,8.22c0.97,1.22,1.93,2.47,2.51,3.92c0.44,1.1,1.18,1.2,2.06,0.93
		c0.77-0.24,1.46-0.43,2.07,0.25c0.64,0.72,0.44,1.55,0.07,2.25c-0.66,1.24-1.47,2.39-2.91,2.86c-0.08,0.02-0.16,0.02-0.23,0.05
		c-0.08,0.03-0.99,3.56-0.95,3.64c4.95,8.81,10,17.57,14.72,26.51c0.19,0.36,0.42,0.64,0.74,0.91c0.96,0.81,1,1.53,0.04,2.41
		c-4.29,3.9-9.24,6.6-14.87,8c-5.7,1.41-11.12,0.59-16.36-2.02c-1.42-0.71-3.06-1.27-4.33-2.06c-1.42-0.88-2.89-2.38-3.3-4.33
		c-0.21-1,0.4-1.75,1.3-1.81c0.88-0.06,1.14-0.55,1.49-1.13c3.71-6.27,6.97-12.78,10.35-19.23c1.27-2.43,2.6-4.83,3.97-7.21
		c0.33-0.57,0.49-1.07,0.22-1.67c-0.03-0.07-0.08-0.17-0.06-0.23c0.72-2.15-1-3.38-2.02-4.68c-4.5-5.75-10.42-8.16-17.71-7.05
		c-1.66,0.25-3.27,0.68-4.86,1.21c-0.79,0.26-0.77,0.65-0.46,1.26c1.07,2.06,0.85,2.86-1.15,3.9c-0.46,0.24-0.49,0.53-0.49,0.94
		c0.02,1.44,0.01,2.88,0.01,4.32c0,12.88,0,25.76,0,38.64c0,0.24,0.08,0.51-0.01,0.71c-0.65,1.57,0.59,1.81,1.54,2.05
		c1.64,0.4,3.31,0.83,4.63,1.83c1.56,1.18,3.3,2.02,4.91,3.08c2.39,1.57,3.65,5.67-0.18,7.87c-2.66,1.53-5.59,2.02-8.56,2.42
		C59.67,78.73,58.31,78.76,56.95,78.86z"/>
	<path class="st0" d="M16.87,60.32c-2.88-0.5-5.46-1.76-7.9-3.3c-1.55-0.98-3.27-1.7-4.62-2.98c-0.41-0.38-0.78-0.8-1.18-1.19
		c-0.16-0.16-0.27-0.35-0.11-0.52c1.74-1.82,2.55-4.18,3.75-6.31c3.96-6.98,7.84-14.01,11.76-21.02c0.1-0.17,0.21-0.35,0.34-0.5
		c0.66-0.75,1.03-1.31-0.1-2.14c-0.95-0.69-0.22-1.73,0.2-2.71c-0.53-0.14-1.04-0.28-1.56-0.41c-1.33-0.33-2.03-1.33-2.63-2.44
		c-0.15-0.28-0.22-0.64,0-0.91c0.25-0.29,0.51,0.03,0.75,0.1c1.66,0.42,2.58,0.08,3.39-1.45C22.24,8.3,27.15,4.07,34.32,3.01
		c2.34-0.35,4.68,0.11,7.01,0.52c2.58,0.45,4.99,1.33,7.33,2.47c0.3,0.15,0.63,0.44,0.97,0.06c0.66-0.75,1.55-0.76,2.44-0.71
		c1.48,0.08,2.94-0.18,4.42-0.19c0.97-0.01,1.95,0.09,2.54,1.02c0.25,0.39,0.48,0.28,0.8,0.15c1.1-0.48,2.18-1,3.3-1.41
		c10.1-3.71,19.46-2.65,26.3,8.07c0.3,0.47,0.6,0.95,0.85,1.45c0.9,1.78,1.64,2.11,3.51,1.55c0.24-0.07,0.51-0.39,0.74-0.06
		c0.17,0.24,0.05,0.53-0.06,0.8c-0.8,1.84-2.29,2.68-4.31,2.86c0.87,1.27,0.99,2.41-0.29,3.4c-0.34,0.26-0.2,0.49-0.01,0.81
		c5.33,9.05,10.45,18.22,15.38,27.5c0.08,0.14,0.11,0.34,0.23,0.42c1.36,0.83,0.42,1.46-0.23,1.97c-4.37,3.45-9.15,6.02-14.69,7.16
		c-6.99,1.44-12.93-1.1-18.67-4.58c-1-0.6-1.77-1.48-2.41-2.47c-0.41-0.63-0.37-1.14,0.49-1.1c0.85,0.04,1.18-0.44,1.55-1.06
		c3.15-5.29,6.01-10.74,8.81-16.21c2-3.91,4.08-7.78,6.29-11.58c0.28-0.47,0.48-0.82,0.07-1.46c-0.6-0.94-0.13-1.92,0.69-2.74
		c-2.36-0.81-3.02-3.16-4.53-4.71c-2.38-2.45-5.14-4.2-8.33-5.2c-4.99-1.57-9.93-0.9-14.75,0.91c-0.93,0.35-1.22,1.64-0.62,2.62
		c0.96,1.58,0.79,2.03-1.01,2.44c-0.55,0.13-0.74,0.39-0.71,0.91c0.01,0.24,0,0.48,0,0.72c0,14.2,0,28.4,0.02,42.6
		c0,0.86,0.01,1.68-0.65,2.33c-0.53,0.52-0.11,0.68,0.3,0.93c1.47,0.92,3.11,1.39,4.73,1.94c1.47,0.5,2.92,1.03,3.94,2.36
		c0.33,0.42,1.04,0.54,1.58,0.8c0.86,0.42,1.72,0.83,2.38,1.57c1.73,1.92,1.41,3.99-0.83,5.28c-2.48,1.43-5.23,1.91-8,2.23
		c-3.89,0.45-7.81,0.42-11.7,0.21c-3.46-0.18-6.93-0.64-9.93-2.63c-1.83-1.21-2.03-3.26-0.54-4.89c0.19-0.21,0.36-0.46,0.6-0.58
		c3.22-1.56,5.8-4.36,9.55-4.89c1.09-0.16,1.83-1.1,2.87-1.45c0.61-0.21,0.18-0.74-0.06-0.95c-0.6-0.51-0.57-1.06-0.56-1.79
		c0.04-3.56,0.16-7.11-0.05-10.67c-0.04-0.71,0.09-1.43,0.09-2.14c0.01-10.12,0-20.24,0.02-30.36c0-0.8-0.07-1.25-1.06-1.43
		c-1.41-0.26-1.66-1.27-0.77-2.37c0.73-0.91,0.28-2.75-0.78-3.11c-4.56-1.54-9.21-2.06-13.85-0.56c-4.29,1.39-7.85,3.9-10.33,7.77
		c-0.04,0.07-0.08,0.14-0.12,0.21c-0.47,0.82-1.37,1.21-1.94,1.84c-0.46,0.51,0.74,1.58,0.31,2.43c-0.61,1.2,0.11,1.99,0.62,2.89
		c3.43,5.91,6.37,12.09,9.64,18.08c1.63,2.98,3.31,5.93,4.96,8.89c0.28,0.5,0.6,0.9,1.3,0.84c1.03-0.08,0.9,0.57,0.58,1.16
		c-0.48,0.89-1.18,1.61-2.02,2.18c-1.42,0.95-2.84,1.91-4.51,2.4c-0.91-0.15,0.08-0.68-0.19-1.07c-0.19-0.28,0.39-0.39,0.68-0.42
		c0.86-0.07,1.65-0.25,2.17-1.03c0.48-0.67,1.39-0.92,1.82-1.88c-4.3-0.2-8.5,0.03-12.7-0.13c-0.14-0.01-0.28-0.04-0.42-0.08
		c-1.22-0.26-2.46-0.06-3.68-0.07c-2.82-0.02-5.64,0.02-8.46-0.03c-1.54,0.08-3.06-0.34-4.6-0.26c-0.55,0-1.1-0.04-1.85-0.05
		C6.9,54.39,7.89,54.93,9,55.35c0.58,0.22,1.28,0.18,1.7,0.76c0.16,0.15-0.38,0.17-0.07,0.32c0.33,0.17,0.36,0.61,0.71,0.74
		c0.65,0.31,1.37,0.49,1.85,1.09c0.92,0.76,2.11,0.9,3.17,1.32c0.33,0.13,0.78,0.15,0.93,0.48C17.46,60.46,17.2,60.5,16.87,60.32z"
		/>
	<path class="st1" d="M16.87,60.32c0.04-0.01,0.08,0,0.12-0.02c0.11-0.04,0.24-0.15,0.08-0.2c-1.19-0.42-2.39-0.8-3.58-1.21
		c-0.21-0.07-0.79,0.01-0.35-0.53c0.58-0.13,1.1,0.11,1.63,0.26c2.68,0.78,5.39,1.41,8.2,1.43c1.64,0.02,3.25-0.21,4.82-0.69
		c0.77-0.14,1.5-0.43,2.21-0.75c0.58-0.19,1.11-0.51,1.63-0.66c-0.85,0.06-1.79,0.01-2.72,0.06c-0.75,0-1.49,0.04-2.23-0.08
		c-3.78-0.17-7.57-0.12-11.35-0.17c-1.36-0.18-2.73-0.28-4.11-0.38c-0.86,0.14-0.2-1.23-1.08-1.13c0.19-0.02,0.37-0.04,0.56-0.06
		c0.67-0.39,1.38,0.1,2.06-0.1c2.09-0.05,4.18,0.08,6.26,0c1.81-0.02,3.61-0.04,5.42,0.02c0.45-0.01,0.9-0.01,1.34,0.09
		c2.95,0.26,5.89,0.2,8.83-0.02c0.39-0.03,0.78-0.23,1.16,0c-0.24,0.8-0.94,0.89-1.6,0.98c-0.78,0.1-0.88,0.19-0.96,1.22
		C28.03,61.33,22.59,62.06,16.87,60.32z"/>
	<path d="M76.39,52.64c-1.2,0-2.4-0.02-3.6,0.01c-0.67,0.01-0.78-0.23-0.45-0.77c5.45-8.99,9.77-18.59,14.94-27.74
		c0.58-1.03,1.01-1.1,1.81-0.2c1.04,1.18,1.65,2.64,2.4,4c4.28,7.76,8.51,15.55,12.81,23.3c0.52,0.93,0.19,0.93-0.59,0.94
		c-6.91,0.07-13.82,0.17-20.73,0.24C80.78,52.44,78.59,52.78,76.39,52.64z"/>
	<path class="st2" d="M32.78,52.64c-5.43-0.31-10.87-0.1-16.29-0.31c-3.63-0.14-7.27-0.11-10.9-0.15c-0.94-0.01-0.99-0.25-0.57-1.01
		c3.64-6.56,7.25-13.14,10.87-19.72c1.15-2.1,2.3-4.2,3.45-6.3c0.11-0.21,0.23-0.42,0.37-0.61c1.13-1.57,1.68-1.58,2.57,0.1
		c2.94,5.54,5.84,11.1,8.75,16.65c1.85,3.54,3.76,7.05,5.83,10.46c0.43,0.7,0.43,0.95-0.48,0.92
		C35.18,52.61,33.98,52.64,32.78,52.64z"/>
	<path class="st3" d="M87.45,12.45c0.89,0.66,1.4,1.63,1.86,2.59c0.7,1.46,1.8,2.18,3.43,2.1c-0.67,1.39-2.75,2.02-4.43,1.5
		c-1.38-0.43-2.32-1.32-3.11-2.46c-2.64-3.88-6.34-6.27-10.77-7.63c-0.53-0.88-1.28-1.59-1.87-2.43c-0.24-0.34-0.63-0.68-0.16-1.13
		c1.93-0.09,3.85,0.08,5.63,0.78c2.15,0.85,4.17,2.01,6.15,3.22c0.62,0.38,1.08,0.94,1.59,1.44C86.36,11.08,87.04,11.66,87.45,12.45
		z"/>
	<path class="st3" d="M32.26,9.46c-3.36,1.6-6.28,3.73-8.35,6.9c-0.38,0.58-0.77,1.23-1.46,1.53c-1.13-0.03-2.11-0.43-2.95-1.19
		c0.35-1.62,1.31-2.96,2.25-4.24c1.87-2.56,4.49-4.23,7.27-5.68c0.25-0.13,0.52-0.21,0.8-0.17C30.92,7.32,31.37,8.57,32.26,9.46z"/>
	<path class="st4" d="M52.87,61.25c-0.38,0.07-0.73,0.13-0.71-0.45c0.02-0.48,0-0.96,0-1.44c-0.01-13.92-0.02-27.85-0.03-41.77
		c-0.12-0.16-0.12-0.32-0.01-0.49c0.15-0.44-0.35-1.3,0.73-1.12c0.64,0.23,0.6,0.79,0.62,1.3c0.04,1.08,0.04,2.15,0,3.23
		c0.05,1.98,0.03,3.97,0.01,5.95c-0.01,2.22,0.06,4.43-0.02,6.65c-0.03,0.9-0.01,1.8-0.01,2.7c-0.01,0.76,0.08,1.51,0.02,2.27
		c0.07,6.62,0.02,13.24,0.03,19.86c0,0.4-0.01,0.8-0.08,1.19C53.19,59.84,53.39,60.64,52.87,61.25z"/>
	<path class="st3" d="M62.73,71.88c1.34-0.63,2.9-0.96,3.42-2.66c0.1-0.35,0.4-0.14,0.59-0.03c0.73,0.4,1.5,0.73,2,1.44
		c0.25,1.56-0.58,2.7-1.46,3.82c-1.45,0.71-3.01,1.01-4.59,1.23c-1.77,0.25-3.54,0.46-5.32,0.65c-0.38,0.04-0.8,0.13-1.15-0.16
		c0.51-0.48,1.1-0.31,1.67-0.23c-0.15-0.73-1.06-1.13-0.94-2.01c1.56-0.56,3.2-0.87,4.72-1.56C62.02,72.22,62.37,72.05,62.73,71.88z
		"/>
	<path class="st5" d="M42.86,70.23c0.71,0.77,1.63,1.22,2.58,1.63c1.8,0.98,3.75,1.55,5.77,1.77c1.1,0.12,2.2,0.39,3.32,0.24
		c0.77,0.52,1.67,0.95,1.32,2.15c-4.51,0.38-8.9-0.11-13.18-1.6c-1.1-0.38-2.03-0.94-2.37-2.15C40.59,70.95,41.51,70.22,42.86,70.23
		z"/>
	<path class="st3" d="M35.78,56.21c-1.12,0.49-2.3,0.57-3.5,0.49c-2.18-0.14-4.38,0.19-6.56-0.18c0.3-0.45,0.8-0.24,1.22-0.38
		c-0.47-0.98-1.82-1.3-1.9-2.55c4.45,0,8.9,0,13.56,0C37.84,54.96,36.72,55.49,35.78,56.21z"/>
	<path class="st3" d="M49.24,7.55c0.07,2.22,0.06,2.26-1.97,1.58c-3.18-1.06-6.44-1.32-9.76-1.14c-0.84-0.42-1.2-1.25-1.67-1.99
		c-0.22-0.35-0.17-0.69,0.27-0.88c2.37-0.23,4.73-0.23,7.09,0.06C45.25,5.87,47.26,6.69,49.24,7.55z"/>
	<path class="st5" d="M91.28,53.39c4.18,0,8.37,0,12.51,0c-0.88,1.09-2.28,1.71-3.67,2.35c-2.22,1.32-4.64,1.21-7.07,0.99
		c-0.37-0.53-0.37-0.53,0.6-0.9C92.87,54.98,91.72,54.52,91.28,53.39z"/>
	<path class="st5" d="M24.57,56.46c-1.84,0-3.69,0-5.53,0c-0.22-0.14-0.47-0.12-0.69-0.09c-2.46,0.35-4.06-1.3-5.85-2.5
		c-0.16-0.11-0.27-0.29-0.2-0.52c3.88,0.01,7.75,0.02,11.63,0.03c0.32,0,0.65-0.04,0.91,0.19c-0.77,0.64-1.66,0.24-2.33,0.27
		C23.27,54.56,24.57,54.95,24.57,56.46z"/>
	<path class="st3" d="M50.96,66.84c1.96-0.02,3.91-0.03,5.87-0.06c1-0.01,2.02,0.01,2.69-0.95c0.23-0.33,0.49-0.13,0.75-0.06
		c0.92,0.27,1.84,0.55,2.67,1.04c0.03,0.61-0.49,0.77-0.86,1.01c-2.33,1.53-4.85,2.49-7.69,2.45c-0.31-0.01-0.52-0.2-0.69-0.42
		C52.86,68.78,52.16,67.59,50.96,66.84z"/>
	<path class="st6" d="M43.51,5.42c-2.56,0.01-5.12,0.03-7.68,0.04c-0.66,0.39-1.41,0.26-2.1,0.29c-1.39,0.06-2.57,0.79-3.89,1.04
		c-3.63,1.73-6.96,3.81-9.03,7.43c-0.45,0.79-0.82,1.62-1.23,2.44c-0.87,1.17-1.81,1.41-2.97,0.78c-0.35-0.42,0.06-0.32,0.24-0.33
		c1.41-0.05,2.32-0.74,3.02-1.97c2.52-4.45,5.81-8.1,10.75-9.94c4.29-1.6,8.6-1.28,12.91-0.04c0.06,0.06,0.07,0.12,0.05,0.19
		C43.55,5.39,43.53,5.42,43.51,5.42z"/>
	<path class="st7" d="M57.9,7.02c0.25,1.37,0.44,2.74,0.04,4.12c-0.8,0.54-1.71,0.27-2.57,0.32c-0.44,0.02-0.88-0.04-1.31-0.14
		c-1.09-0.25-2.01-0.15-2.47,1.05c-0.49-0.23-0.48-0.7-0.5-1.13c-0.02-0.56-0.04-1.12,0.01-1.68c0.22-2.33,0.55-2.69,2.88-2.61
		C55.29,6.99,56.61,6.49,57.9,7.02z"/>
	<path class="st8" d="M53.19,20.47c-0.02-1.12-0.06-2.23-0.06-3.35c0-0.41-0.01-0.79-0.28-1.13c0.92-0.02,1.84-0.03,2.75-0.06
		c0.61-0.02,0.83,0.26,0.83,0.87c-0.01,14.25,0,28.5,0,42.75c0,0.5,0.18,1.04-0.2,1.5c-0.45-0.44-0.34-1.01-0.36-1.56
		c-0.08-6.01-0.03-12.02-0.03-18.03c0.09-0.83-0.05-1.66,0.04-2.49c0.01-0.83-0.06-1.65-0.01-2.48c-0.03-2.21-0.04-4.42-0.01-6.62
		c0.02-3.11-0.04-6.22,0.02-9.32C54.99,20.93,54.08,21.07,53.19,20.47z"/>
	<path class="st8" d="M72.49,53.84c1.58-0.48,3.2-0.15,4.8-0.24c0.67-0.04,1.34,0.01,2.01,0.01c1.57,0.35,2.83,1.36,4.24,2.06
		c0.36,0.18,0.98,0.47,0.3,1.04c-1.56,0.62-3.2,0.26-4.8,0.35c-0.43,0.02-0.87,0.01-1.3,0c-0.53-0.04-1.07,0.02-1.6-0.11
		C74.71,56.18,73.16,55.53,72.49,53.84z"/>
	<path class="st9" d="M85.78,10.64c-3.99-3.06-8.25-5.44-13.47-5.46c-0.46,0.35-0.98,0.24-1.49,0.17c-1.11-0.15-2.22-0.18-3.33-0.03
		c-2.29,0.67-4.35,1.86-6.5,2.85c-0.52,0.24-1,0.69-1.64,0.31c-0.12-0.46-0.09-0.86,0.42-1.1c5.99-2.77,12.12-4.5,18.7-2.25
		c3,1.03,5.52,2.81,7.54,5.27C86.08,10.62,85.98,10.68,85.78,10.64z"/>
	<path class="st5" d="M84.08,56.47c-1.02-0.99-2.44-1.31-3.57-2.12c-0.38-0.28-0.81-0.49-1.22-0.73c3.35-0.08,6.7-0.15,10.06-0.23
		c-0.33,0.45-0.51,0.84,0.12,1.25c0.56,0.36,1.08,0.8,1.56,1.28c0.39,0.39,0.38,0.67-0.19,0.84c-1.93,0.19-3.86,0.08-5.79,0.07
		C84.7,56.83,84.34,56.77,84.08,56.47z"/>
	<path class="st10" d="M91.57,59.65c-2.27,0.61-4.6,0.78-6.94,0.74c-1.65-0.61-3.44-0.81-5.05-1.57c-0.43-0.2-0.9-0.32-1.26-0.64
		c-0.27-0.24-0.44-0.49,0.02-0.72c1.14-0.23,2.29-0.07,3.44-0.11c0.48-0.02,0.95-0.03,1.41-0.18c2.05-0.13,4.1-0.22,6.15,0.05
		c0.45,0.24,0.36,0.48-0.04,0.65c-0.54,0.22-1.08,0.12-1.34,0.05C89.01,58.33,90.32,58.92,91.57,59.65z"/>
	<path class="st11" d="M54.29,70.18c0.72-0.57,1.6-0.24,2.39-0.4c2.35-0.48,4.38-1.52,6.26-2.96c0.39,0.2,0.81,0.34,1.16,0.6
		c0.92,0.67,1,1.82,0.06,2.33c-2.88,1.54-5.96,2-9.18,1.33C54.57,70.91,54.23,70.7,54.29,70.18z"/>
	<path class="st12" d="M89.6,57.47c-2.15-0.01-4.3-0.01-6.45-0.02c-0.89,0.21-1.8,0.1-2.7,0.09c-1.22-0.02-2.43,0.09-3.63,0.19
		c-0.14,0.02-0.27,0.07-0.37,0.17c-0.48-0.81-1.41-0.58-2.09-0.91c-0.39-0.19,0.01-0.22,0.15-0.28c0.11-0.08,0.22-0.11,0.35-0.1
		c0.9,0.15,1.8,0.41,2.73,0.14c2.16-0.15,4.34,0.14,6.49-0.27c2.4-0.01,4.8-0.03,7.2-0.04c0.48-0.34,0.97-0.35,1.44,0.01
		c2.5,0.11,4.99,0.1,7.4-0.71c0.61,0.16,0.22,0.29-0.02,0.4c-0.59,0.27-1.55,0-1.61,1.1c-0.01,0.16-0.31,0.14-0.52,0.08
		c-0.73-0.23-1.48-0.11-2.22-0.07c-1,0.87-2.22,0.41-3.34,0.55C91.47,57.71,90.48,58.06,89.6,57.47z"/>
	<path class="st3" d="M59.35,8.48c1.91-0.56,3.54-1.73,5.38-2.44c0.85-0.32,1.64-0.8,2.54-0.96c0.36-0.06,0.62,0.12,0.81,0.37
		c0.64,0.87,1.38,1.66,2.07,2.49c-3.48-0.18-6.76,0.67-10.01,1.78C58.61,10.24,59.62,8.9,59.35,8.48z"/>
	<path class="st13" d="M29.84,6.78c1.79-1.4,3.87-1.43,5.99-1.33c0.56,0.84,1.12,1.69,1.69,2.53c-1.8,0.33-3.58,0.74-5.26,1.47
		C30.97,9,30.71,7.62,29.84,6.78z"/>
	<path class="st11" d="M52.67,71.3c-2.94,0.18-5.83,0.06-8.42-1.59c0.47-1.09,1.36-1.61,2.47-1.87c1.47,0.81,3.1,1.18,4.71,1.59
		C52.15,69.85,52.67,70.41,52.67,71.3z"/>
	<path class="st14" d="M12.3,53.34c1.25,1.09,2.74,1.83,4.12,2.73c0.78,0.51,1.8-0.14,2.62,0.38c-2.16-0.01-4.32-0.02-6.49-0.03
		c-1.65-0.52-3.08-1.45-4.47-2.43c-0.28-0.2-0.63-0.38-0.57-0.82C9.12,52.96,10.7,53.39,12.3,53.34z"/>
	<path class="st15" d="M70.16,7.94c-0.94-0.23-1.31-1.08-1.83-1.75c-0.33-0.4-0.61-0.82-1.05-1.11c1.69-0.51,3.36-0.08,5.03,0.1
		c0.37,0.82,1.06,1.41,1.57,2.13c0.26,0.36,0.84,0.61,0.56,1.23C73.03,8.2,71.61,7.94,70.16,7.94z"/>
	<path class="st10" d="M40.48,72.07c0.36,1.06,1.11,1.63,2.16,2.01c4.32,1.54,8.8,1.9,13.34,1.86c0.06,0.04,0.09,0.08,0.08,0.13
		c-0.01,0.05-0.03,0.08-0.04,0.08c-4.71,0.54-9.35,0.27-13.88-1.2c-0.91-0.29-1.77-0.69-2.46-1.38
		C39.54,72.85,39.78,72.34,40.48,72.07z"/>
	<path class="st16" d="M11.22,57.4c1.32-0.4,2.63-0.07,3.95,0.07c2.47,0.49,4.77,1.52,7.19,2.18c0.36,0.1,0.81,0.17,0.82,0.71
		c-3.48,0.04-6.8-0.78-10.04-1.99C12.5,58.04,11.86,57.72,11.22,57.4z"/>
	<path class="st10" d="M51.66,12.32c0.01-0.32,0.04-0.63,0.02-0.95c-0.03-0.46,0.12-0.56,0.61-0.53c1.89,0.11,3.76,0.39,5.66,0.3
		c-0.01,1.7-0.01,1.69-1.65,1.67c-1.55-0.03-3.09-0.03-4.64-0.04C51.53,12.61,51.53,12.47,51.66,12.32z"/>
	<path class="st17" d="M52.12,17.12c0.1,0.16,0.11,0.32,0.01,0.49c-0.38,0.41-0.2,0.92-0.21,1.38c-0.01,13.59-0.01,27.17-0.01,40.76
		c0,0.43,0,0.86,0,1.29c-0.06,0-0.12,0-0.17,0c0-14.94,0-29.89,0-44.88C52.07,16.43,51.76,16.9,52.12,17.12z"/>
	<path class="st18" d="M92.72,56.45c-0.48,0-0.96-0.01-1.44-0.01c-1.03-0.83-2.14-1.58-2.99-2.64c0.29-0.38,0.81-0.02,1.06-0.4
		c0.64,0,1.28,0,1.92,0c1,0.86,2.01,1.73,3.06,2.64C93.79,56.47,93.14,56.02,92.72,56.45z"/>
	<path class="st19" d="M52.67,71.3c-0.39-0.56-0.67-1.2-1.21-1.66c-0.87-0.74-1.54-1.61-1.79-2.75c0.07-0.19,0.21-0.25,0.4-0.24
		c0.3,0.06,0.59,0.12,0.89,0.19c1.4,0.18,1.86,1.36,2.53,2.33c0.24,0.35,0.53,0.67,0.8,1.01c0.23,0.3,0.46,0.59,0.69,0.89
		C54.26,71.61,53.45,71.3,52.67,71.3z"/>
	<path class="st20" d="M51.66,12.32c0,0.15-0.01,0.29-0.01,0.44c-0.61,0.14-0.95,0.02-0.96-0.74c-0.03-1.46-0.14-2.93-0.24-4.39
		c-0.04-0.57,0.15-0.99,0.74-1c2.1-0.02,4.2,0,6.3,0.02c0.18,0,0.38,0.12,0.42,0.36c-1.75,0.08-3.5,0.2-5.26,0.24
		c-0.54,0.01-0.82,0.18-0.91,0.69C51.5,9.41,51.33,10.86,51.66,12.32z"/>
	<path class="st11" d="M54.58,73.98c-1.08,0.7-2.16,0.01-3.23-0.02c-1.84-0.05-3.58-0.65-5.24-1.45c-0.27-0.13-0.46-0.43-0.68-0.65
		c2.77,0.69,5.58,0.96,8.42,0.72C54.25,72.98,54.73,73.32,54.58,73.98z"/>
	<path class="st5" d="M89.6,57.47c0.96-0.01,1.92-0.02,2.88-0.03c0.69,0.42,1.36,0.88,1.93,1.45c-0.93,0.31-1.86,0.63-2.85,0.75
		c-1.66-0.14-2.88-1.31-4.54-1.84C87.99,57.49,88.85,57.94,89.6,57.47z"/>
	<path class="st21" d="M50.07,66.65c-0.11,0.07-0.21,0.14-0.32,0.21c-1.08,0.27-2.07,0.76-3.1,1.14c-0.89,0.45-1.66,1.06-2.4,1.71
		c-0.75-0.74-0.71-1.6,0.21-2.22c1.22-0.82,2.58-1.36,4.01-1.73C49.26,65.57,49.33,66.73,50.07,66.65z"/>
	<path class="st22" d="M24.57,56.46c-0.41-1.17-1.64-1.65-2.36-2.89c0.96,0,1.8,0,2.63,0c0.07,0,0.14,0.01,0.2,0.03
		c0.82,0.89,1.64,1.78,2.59,2.81c-0.71,0.04-1.31,0.08-1.91,0.12C25.34,56.5,24.95,56.48,24.57,56.46z"/>
	<path class="st23" d="M54.58,73.98c-0.17-0.5-0.7-0.82-0.73-1.4c0.71,0,1.41,0.01,2.12,0.01c0.6,0.27,1.02,0.67,1,1.39
		c0.38,0.7,1.09,1.22,1.29,2.19c-0.74,0-1.4,0-2.06,0c-0.07-0.01-0.13-0.02-0.2-0.03c0-0.07-0.02-0.14-0.04-0.21
		C55.52,75.29,55.05,74.63,54.58,73.98z"/>
	<path class="st24" d="M7.51,53.17c1.22,1.09,2.64,1.86,4.07,2.61c0.34,0.18,0.76,0.25,0.97,0.64c-0.65,0.21-1.24-0.15-1.86-0.21
		c-1.49-0.5-3.05-0.84-4.28-1.92c-0.37-0.32-0.85-0.56-1.02-1.18C6.14,52.95,6.83,53.16,7.51,53.17z"/>
	<path class="st25" d="M16.61,17.43c1.12,0.25,2.1-0.08,2.97-0.78c0.95,0.42,1.91,0.83,2.86,1.25c-1.74,1.21-3.51,1.21-5.32,0.15
		C16.86,17.89,16.68,17.71,16.61,17.43z"/>
	<path class="st10" d="M88.48,22.65c-0.88,0.12-1.22-0.44-1.27-1.26c-0.06-0.95,0.67-1.68,1.67-1.6c0.85,0.07,1.21,0.65,1.21,1.49
		C90.08,22.25,89.65,22.64,88.48,22.65z"/>
	<path class="st26" d="M21.91,21.59c0.14,0.86-0.34,1.11-1.19,1.07c-1.01-0.04-1.71-0.6-1.63-1.48c0.06-0.71,0.35-1.35,1.2-1.4
		C21.37,19.73,21.93,20.36,21.91,21.59z"/>
	<path class="st7" d="M52.68,63.98c1.21,0.04,2.42-0.02,3.63,0.09c0.59,0.05,0.91,0.26,1.48,0.69c-2.22,0.56-4.23,0.92-6.32,0.35
		C51.41,64.24,52.21,64.29,52.68,63.98z"/>
	<path class="st27" d="M40.48,72.07c-0.27,0.5-0.54,1-0.81,1.5c-1.1-0.66-0.72-1.55-0.29-2.37c0.57-1.08,1.69-1.52,2.67-2.11
		c0.31-0.19,0.4,0,0.47,0.27c0.09,0.3,0.22,0.58,0.34,0.88C41.87,70.6,40.9,70.97,40.48,72.07z"/>
	<path class="st28" d="M56.22,59.56c0.01,0.5,0.02,1,0.03,1.5c-1.1,0.53-2.25,0.09-3.38,0.19c0.13-0.63-0.07-1.29,0.2-1.91
		C54.16,58.78,55.2,58.93,56.22,59.56z"/>
	<path class="st11" d="M56.98,73.99c-0.33-0.46-0.67-0.93-1-1.39c2.28,0.03,4.53-0.16,6.75-0.71
		C61.04,73.21,59.09,73.83,56.98,73.99z"/>
	<path class="st29" d="M74.73,56.77c-0.07-0.02-0.15-0.04-0.22-0.06c-1.47-0.72-2.88-1.52-3.97-2.94c0.77-0.22,1.36-0.06,1.95,0.08
		c0.92,1.24,2.3,1.92,3.46,2.87C75.55,56.92,75.14,56.85,74.73,56.77z"/>
	<path class="st30" d="M51.62,13.83c2.04-0.01,4.08-0.01,6.11-0.02c0.34,0,0.74,0.06,0.73,0.43c-0.01,0.46-0.48,0.29-0.75,0.29
		c-2.12-0.01-4.24-0.04-6.36-0.07C51.3,14.18,51.45,14,51.62,13.83z"/>
	<path class="st31" d="M94.41,58.89c-0.89-0.15-1.44-0.76-1.93-1.45c1.09-0.07,2.19-0.13,3.28-0.2c0.5,0.32,1.09,0.01,1.67,0.25
		C96.49,58.18,95.47,58.58,94.41,58.89z"/>
	<path class="st32" d="M76.45,57.9c-0.01-0.06-0.02-0.13-0.02-0.19c0.55-0.25,1.1-0.19,1.66-0.03c2.01,1.3,4.28,1.9,6.58,2.41
		c0.09,0.02,0.46-0.18,0.3,0.21c-0.03,0.07-0.22,0.06-0.33,0.09C81.72,60.15,79.12,58.89,76.45,57.9z"/>
	<path class="st33" d="M67.27,74.46c0.43-1.3,1.31-2.42,1.46-3.82c1.12,1.24,1.03,2.36-0.3,3.25
		C68.07,74.12,67.66,74.27,67.27,74.46z"/>
	<path class="st34" d="M43.51,5.42c0-0.09,0.01-0.18,0.01-0.27c1.82,0.39,3.51,1.16,5.21,1.87c0.25,0.1,0.55,0.16,0.51,0.54
		C47.18,7.24,45.4,6.18,43.51,5.42z"/>
	<path class="st35" d="M51.62,13.83c-0.08,0.21-0.17,0.42-0.25,0.62c-0.48,0.07-0.94,0.52-1.46,0.12c-0.15-0.12-0.13-0.27-0.04-0.42
		c0.39-0.59,0.98-0.38,1.51-0.38C51.47,13.78,51.55,13.81,51.62,13.83z"/>
	<path class="st36" d="M52.69,62.57c1.07-0.12,2-0.16,3.06,0.09C54.68,63.12,53.65,63.09,52.69,62.57z"/>
	<path class="st37" d="M52.68,63.98c-0.4,0.38-0.8,0.75-1.2,1.13c-0.24,0.02-0.52,0-0.63-0.22c-0.16-0.31,0.19-0.38,0.36-0.47
		C51.66,64.18,52.05,63.66,52.68,63.98z"/>
	<path class="st38" d="M85.78,10.64c0.08-0.08,0.16-0.16,0.24-0.24c0.61,0.6,1.33,1.11,1.43,2.06
		C86.89,11.85,86.33,11.24,85.78,10.64z"/>
	<path class="st5" d="M23.17,60.35c-2.09-0.71-4.19-1.42-6.28-2.14c-0.59-0.21-1.22-0.34-1.73-0.75c3.87,0.01,7.73-0.05,11.6,0.17
		c-0.01,0.45,0.39,0.62,0.62,0.92c0.24,0.32,0.7,0.52,0.54,1.05C26.4,60.25,24.79,60.33,23.17,60.35z"/>
	<path class="st39" d="M27.92,59.6c-0.45-0.49-0.88-0.99-1.34-1.46c-0.34-0.34-0.14-0.43,0.18-0.51c0.78,0.03,1.57,0.05,2.35,0.08
		c0.46,0.27,1.06,0.43,0.96,1.17C29.4,59.25,28.7,59.55,27.92,59.6z"/>
	<path class="st40" d="M30.08,58.88c-0.32-0.39-0.64-0.78-0.96-1.17c1.13,0,2.26,0,3.39,0c0.02,0.06,0.03,0.12,0.05,0.19
		C31.73,58.22,30.91,58.55,30.08,58.88z"/>
	<path class="st41" d="M102.81,50.93c-9.66,0.17-19.12,0.33-28.79,0.5c5.12-8.73,9.3-17.82,14.3-26.7
		C93.17,33.48,97.96,42.14,102.81,50.93z"/>
	<path class="st41" d="M35.27,51.43c-9.68-0.17-19.14-0.33-28.81-0.5c4.82-8.72,9.58-17.34,14.47-26.18
		C25.97,33.55,30.06,42.65,35.27,51.43z"/>
	<path class="st5" d="M56.22,59.56c-1.05-0.07-2.1-0.14-3.15-0.22c0.04-7.11,0.08-14.22,0.12-21.33c1.39,0.43,1.84,1.79,2.71,2.74
		c0.15,0.17,0.18,0.43,0.34,0.61C56.23,47.43,56.22,53.5,56.22,59.56z"/>
	<path class="st42" d="M53.19,20.47c0.98,0,2.34-0.39,2.85,0.11c0.62,0.6,0.18,1.95,0.19,2.97c0.01,2.1-0.02,4.21-0.04,6.31
		c-1.52-0.66-2.33-1.94-3-3.36C53.19,24.49,53.19,22.48,53.19,20.47z"/>
	<path class="st15" d="M53.19,26.5c0.96,1.15,1.83,2.39,3,3.36c0.02,2.24,0.04,4.47,0.05,6.71c-0.5,0.14-0.69-0.26-0.93-0.55
		c-0.62-0.75-1.24-1.51-1.83-2.29c-0.11-0.18-0.17-0.38-0.3-0.55C53.19,30.96,53.19,28.73,53.19,26.5z"/>
	<path class="st43" d="M56.24,41.36c-1.19-0.96-1.84-2.41-3.05-3.35c0-0.73,0-1.45,0-2.18c0.11-0.05,0.21-0.05,0.32,0
		c0.9,1.05,2,1.92,2.69,3.15C56.21,39.78,56.23,40.57,56.24,41.36z"/>
	<path class="st5" d="M53.35,35.84c-0.05,0-0.11-0.01-0.16-0.01c0-0.88,0-1.77,0-2.65c0.13,0.09,0.26,0.18,0.39,0.27
		C53.58,34.26,53.98,35.1,53.35,35.84z"/>
	<path class="st3" d="M53.35,35.84c0.11-0.79-0.22-1.63,0.22-2.39c0.94,1,1.62,2.22,2.66,3.12c-0.01,0.81-0.03,1.61-0.04,2.42
		C55.13,38.05,54.11,37.06,53.35,35.84z"/>
	<path class="st0" d="M74.73,56.77c0.41-0.02,0.81-0.03,1.22-0.05c0.55,0.01,1.1,0.02,1.64,0.03
		C76.64,57.11,75.69,57.06,74.73,56.77z"/>
	<path class="st0" d="M78.08,57.68c-0.55,0.01-1.11,0.02-1.66,0.03c0.29-0.42,0.72-0.26,1.1-0.26c1.88-0.01,3.75,0,5.63,0.01
		C81.48,57.91,79.77,57.53,78.08,57.68z"/>
	<path class="st7" d="M46.65,68.01c0.9-0.74,1.82-1.44,3.11-1.14c0.57,0.93,1.14,1.86,1.71,2.78
		C49.76,69.39,48.08,69.06,46.65,68.01z"/>
</g>
</svg>
