<?xml version="1.0" encoding="utf-8"?>
<!-- Generator: Adobe Illustrator 23.0.2, SVG Export Plug-In . SVG Version: 6.00 Build 0)  -->
<svg version="1.1" id="Camada_1" xmlns="http://www.w3.org/2000/svg" xmlns:xlink="http://www.w3.org/1999/xlink" x="0px" y="0px"
	 viewBox="0 0 24.29 29.58" style="enable-background:new 0 0 24.29 29.58;" xml:space="preserve">
<style type="text/css">
	.st0{fill:#FEFEFE;}
	.st1{fill:#0C0B0E;}
	.st2{fill:#6D162C;}
	.st3{fill:#9F8402;}
	.st4{fill:#61544C;}
	.st5{fill:#C6404A;}
	.st6{fill:#E1BF27;}
	.st7{fill:#039BDA;}
	.st8{fill:#A52932;}
	.st9{fill:#A42932;}
	.st10{fill:#0B6C95;}
	.st11{fill:#26BCEE;}
	.st12{fill:#0C6F9B;}
	.st13{fill:#A92A33;}
	.st14{fill:#0D9FDD;}
	.st15{fill:#CEB3A5;}
	.st16{fill:#C7AC9F;}
	.st17{fill:#9C7E07;}
	.st18{fill:#272216;}
	.st19{fill:#63D4F2;}
	.st20{fill:#EEEBE4;}
</style>
<g>
	<path class="st0" d="M12.46,29.55c-3.22-0.21-6.22-0.9-8.33-3.7c-0.39-0.52-1.03-0.87-1.59-1.24c-1.43-0.94-2.08-2.37-2.49-3.95
		C-0.12,20,0.18,19.38,0.39,18.8c0.36-1.03,0.26-1.99-0.01-3.01c-0.95-3.6,0.37-6.48,3.02-8.85c1.36-1.22,3.01-1.95,4.83-2.25
		c0.61-0.1,0.89-0.34,1.01-1.04c0.42-2.54,2.91-4,5.52-3.57c2.13,0.34,4.27,0.6,6.31,1.34c2.19,0.8,3.44,2.59,3.21,4.63
		c-0.03,0.24-0.01,0.56-0.15,0.69C22.8,7.98,23.64,9.25,24,10.55c0.56,2.05,0.05,4.05-0.46,6.02c-0.63,2.43-1.34,4.85-1.99,7.28
		c-0.76,2.83-2.34,4.75-5.41,5.19C14.92,29.21,13.74,29.71,12.46,29.55z"/>
	<path class="st1" d="M11.39,5.85c-1.02-2.94,0.26-4.42,3.38-4.01c1.82,0.24,3.65,0.43,5.38,1.1c0.56,0.22,1.12,0.44,1.57,0.85
		c1.29,1.17,1.24,2.5-0.2,3.49c-0.78,0.54-1.12,0.87-0.21,1.69c1.27,1.15,1.36,2.79,1.1,4.36c-0.63,3.83-1.74,7.54-2.95,11.22
		c-0.5,1.53-1.62,2.42-3.22,2.71c-3.15,0.57-6.36,1.03-9.12-1.01c-1.57-1.16-3.02-2.53-4.43-3.91c-1.18-1.16-0.94-2.66-0.37-4.04
		c0.23-0.56,0.3-1.01,0.1-1.57c-1.88-5.28,1.36-9.2,5.7-10.27C9.19,6.18,10.27,5.93,11.39,5.85z"/>
	<path class="st2" d="M4.34,18.11c-0.44-1.32-0.99-2.59-0.97-4.04c0.05-3.15,1.79-5.37,4.86-6.26c1.81-0.52,3.62-0.5,5.46-0.49
		c0.42-0.05,0.41,0.23,0.38,0.51c-0.42,0.66-1.11,0.58-1.72,0.55c-1.81-0.1-3.46,0.4-5.03,1.24c-1.09,0.62-2.01,1.41-2.51,2.6
		c-0.49,1.17-0.48,2.25,0.65,3.08C5.7,15.57,6,15.73,6.32,15.86c1.75,0.56,3.56,0.72,5.38,0.77c0.24,0,0.49,0,0.73,0.01
		c0.35,0.01,0.7-0.03,1.04-0.12c0.23-0.06,0.45-0.08,0.69-0.1c1.24-0.16,2.36-0.64,3.4-1.32c0.33-0.2,0.61-0.46,0.87-0.74
		c0.05-0.06,0.11-0.11,0.16-0.17c1.85-2.02,1.62-3.43-0.77-4.71c-0.38-0.2-0.83-0.3-1.06-0.73c0.18-0.64,0.56-0.94,1.23-0.68
		c0.33,0.22,0.66,0.42,0.98,0.66c1.68,1.24,2.48,2.73,2.01,4.95c-0.66,3.16-1.66,6.23-2.43,9.35c-0.47,1.88-1.68,2.94-3.73,3.12
		c-2.2,0.19-4.38,0.44-6.41-0.67c-0.84-0.46-1.61-1.04-1.92-2.03c0.41-0.36,0.81-0.23,1.21,0c0.57,0.49,1.09,1.07,1.88,1.22
		c1.96,0.59,3.91,0.56,5.88-0.01c1.02-0.3,1.58-0.93,1.84-1.97c0.64-2.46,1.24-4.94,2.04-7.47c0.02-0.05-0.29-0.03-0.13,0.02
		c0.04,0.01,0.05,0.04,0.04,0.08c-0.52,1.15-1.63,1.54-2.63,2.09c-0.37,0.13-0.73,0.27-1.1,0.38c-2.34,0.63-4.7,0.63-7.07,0.18
		c-0.94-0.28-1.98-0.24-2.97-0.86c0.13,1.24,0.71,2.23,1,3.3c0.12,0.45,0.44,0.86,0.3,1.37c-1.08,0.26-1.4-0.64-1.87-1.27
		c-0.31-0.41-0.34-0.96-0.43-1.47c-0.04-0.1-0.08-0.2-0.12-0.3C4.31,18.53,4.2,18.33,4.34,18.11z"/>
	<path class="st3" d="M12.55,16.92c-0.26-0.01-0.53-0.02-0.79-0.02c-0.58-0.61-0.18-1.27-0.06-1.9c0.08-0.47,0.22-0.92,0.38-1.37
		c0.09-0.28,0.16-0.58,0.23-0.87c0.61-1.6,0.89-3.31,1.63-4.87c0.05-0.24-0.05-0.42-0.24-0.56c-0.35-0.8-0.7-1.61-1.06-2.41
		c-0.49-1.07-0.03-1.88,1.14-1.75c2.09,0.23,4.23,0.32,6.2,1.2c1.37,0.61,1.46,1.02,0.35,1.98c-0.72,0.62-1.53,1.14-2.3,1.71
		c-0.42,0.14-0.87,0.23-1.09,0.69c0.35,0.83-0.09,1.56-0.3,2.31c-0.2,0.73-0.46,1.45-0.71,2.16c-0.1,0.27-0.2,0.55-0.31,0.82
		c-0.16,0.36-0.33,0.71-0.44,1.08c-0.22,0.57-0.31,1.22-0.89,1.58c-0.24,0.02-0.48,0.04-0.73,0.06c-0.45-0.38-0.21-0.81-0.06-1.2
		c0.87-2.24,1.72-4.48,2.43-6.77c0.29-0.95,1.02-1.36,1.77-1.84c0.62-0.39,1.66-0.68,1.53-1.49c-0.14-0.87-1.24-0.66-1.94-0.81
		c-0.74-0.16-1.5-0.27-2.25-0.32c-1.25-0.08-1.38,0.11-0.88,1.22c0.08,0.18,0.14,0.39,0.26,0.54c1.02,1.31,0.75,2.7,0.29,4.1
		C13.94,12.42,13.41,14.72,12.55,16.92z"/>
	<path class="st4" d="M4.34,18.11c0.09,0.16,0.19,0.32,0.28,0.48c-0.93,1.9-0.29,2.96,2.23,3.82c2.93,1,5.76,0.66,7.74-1.4
		c-1.99,1.7-4.65,2.23-7.6,1.46c-0.88-0.23-1.6-0.72-2.24-1.33c-0.81-0.78-0.55-1.65-0.1-2.51c0.38,1.26,0.54,2.68,2.13,3.12
		c0.54-0.23,1.09-0.02,1.64-0.08c2.23,0.16,4.07-0.84,5.88-1.95c0.4-0.25,0.63-0.59,0.61-1.08c-0.03-0.6,0.3-0.96,0.8-1.21
		c0.26-0.17,0.55-0.27,0.87-0.26c0.87-0.26,1.26,0.36,1.57,0.95c0.39,0.73,0.17,1.53-0.44,1.95c-1.31,0.92-2.39,2.11-3.79,2.92
		c-1.52,0.88-3.15,1.1-4.86,1.02c-0.49,0.04-0.95-0.08-1.38-0.33c-0.35-0.26-0.76-0.26-1.17-0.24c-0.81-0.62-1.82-0.96-2.53-1.74
		C2.99,20.6,3.14,18.93,4.34,18.11z"/>
	<path class="st5" d="M13.92,7.89c-0.14,1.75-0.81,3.35-1.39,4.98c-0.31,0.3-0.71,0.35-1.11,0.34c-1.06-0.01-2.06,0.24-3.04,0.58
		c-0.4,0.14-0.82,0.37-1.24,0C6.67,12.38,6.33,10.96,7,9.51c1.42-0.93,2.96-1.46,4.68-1.47C12.43,8.04,13.19,8.15,13.92,7.89z"/>
	<path class="st5" d="M9.18,23.73c2.87,0.14,5.21-0.91,7.07-3.08c0.12-0.14,0.31-0.27,0.49-0.31c0.89-0.19,1.28-0.83,1.27-1.63
		c-0.02-0.85-0.63-1.32-1.44-1.53c1.06-0.67,2.17-1.29,3.13-2.16c-0.75,2.8-1.49,5.59-2.25,8.39c-0.25,0.92-0.99,1.27-1.83,1.53
		c-2.08,0.63-4.14,0.72-6.2-0.07C9.14,24.53,8.84,24.19,9.18,23.73z"/>
	<path class="st5" d="M15.7,17.43c-0.16,0.23-0.48,0.49-0.44,0.68c0.33,1.81-1.16,2.15-2.23,2.72c-1.4,0.74-2.88,1.37-4.55,1.15
		c-0.89-1.14-0.82-2.52-0.94-3.84c-0.03-0.36,0.19-0.71,0.69-0.48C10.72,17.94,13.22,18.09,15.7,17.43z"/>
	<path class="st6" d="M12.55,16.92c0.04-1.87,0.91-3.52,1.35-5.29c0.18-0.73,0.4-1.46,0.7-2.16c0.68-1.59-0.31-2.79-0.89-4.09
		c-0.63-1.4-0.65-1.42,0.9-1.37c1.51,0.04,3.01,0.24,4.45,0.71c1.08,0.35,1.14,0.7,0.31,1.44C19.01,6.48,18.64,6.85,18.21,7
		c-1.57,0.53-2.02,1.82-2.47,3.22c-0.58,1.82-1.29,3.6-1.95,5.39c-0.14,0.37-0.35,0.72-0.25,1.15
		C13.24,17.01,12.89,16.93,12.55,16.92z"/>
	<path class="st5" d="M15.62,13.35c0.43-1.53,0.87-3.07,1.3-4.6c0.33,0.15,0.66,0.28,0.97,0.44c2.82,1.44,3.03,3.33,0.6,5.42
		C17.42,14.46,16.47,14.01,15.62,13.35z"/>
	<path class="st7" d="M12.29,13.6c0,1.13-0.81,2.12-0.54,3.29c-1.95,0.01-3.9-0.05-5.72-0.88c-0.09-0.2,0.04-0.31,0.18-0.42
		c0.7-0.24,1.3-0.72,2.02-0.91c0.39-0.11,0.37-0.45,0.52-0.71C9.89,13.47,11.04,13,12.29,13.6z"/>
	<path class="st8" d="M7,9.51c-0.11,1.47,0.19,2.93,0.26,4.39c-0.45,0.76-0.99,1.42-1.88,1.67c-1.77-0.99-1.4-2.73-0.33-4.4
		C5.51,10.46,6.16,9.84,7,9.51z"/>
	<path class="st9" d="M8.21,17.66c-0.57,0.1-0.49,0.48-0.4,0.89c0.23,1.14,0.44,2.29,0.65,3.43C7.89,22,7.3,22.08,6.77,21.75
		c-0.81-1.62-1.2-3.39-1.79-5.21C5.96,17.27,7.13,17.34,8.21,17.66z"/>
	<path class="st10" d="M5.38,15.57C6,15.02,6.63,14.46,7.26,13.9c1.66-0.83,3.42-1.14,5.27-1.03c0.01,0.28-0.02,0.54-0.24,0.74
		c-1.24,0.09-2.51,0.05-3.64,0.71c-0.65,0.71-1.67,0.82-2.37,1.44c-0.08,0.09-0.16,0.17-0.25,0.26C5.75,15.96,5.45,15.93,5.38,15.57
		z"/>
	<path class="st11" d="M14.27,16.7c0.23-0.55,0.46-1.11,0.7-1.66c0.69-0.27,1.43-0.16,2.14-0.29c0.29,0.07,0.68,0.01,0.67,0.49
		C16.73,16.03,15.57,16.53,14.27,16.7z"/>
	<path class="st12" d="M17.77,15.25c-0.14-0.31-0.42-0.21-0.65-0.23c-0.53-0.41-1.41-0.18-1.75-0.95c0.08-0.24,0.17-0.47,0.25-0.71
		c1.02,0.28,2.01,0.63,2.87,1.27C18.25,14.83,18.01,15.04,17.77,15.25z"/>
	<path class="st13" d="M9.18,23.73c0.08,0.38,0.16,0.76,0.23,1.14c-0.79-0.09-1.3-0.59-1.73-1.2C8.18,23.69,8.68,23.71,9.18,23.73z"
		/>
	<path class="st14" d="M15.37,14.07c0.54,0.4,1.41,0.18,1.75,0.95c-0.72,0.1-1.43,0.41-2.15,0.03
		C15.01,14.68,15.12,14.34,15.37,14.07z"/>
	<path class="st15" d="M4.65,18.63c0.01,0.16,0.03,0.32,0.02,0.48c-0.1,1.82,0.5,2.62,2.34,3.13c2.64,0.73,5.05,0.16,7.29-1.33
		c0.49-0.32,0.97-0.65,1.52-1.03c-1.16,2.18-4.19,3.6-6.84,3.24c-1.47-0.2-2.92-0.49-4.11-1.49c-1.11-0.93-1.21-2.02-0.26-3.04
		C4.61,18.59,4.65,18.63,4.65,18.63z"/>
	<path class="st16" d="M16.84,19.63c0.01-0.93-0.05-1.66-1.07-0.73c-0.03-0.67,0.29-0.94,0.69-1.11c0.32-0.13,0.52,0.09,0.68,0.32
		C17.45,18.58,17.38,19.01,16.84,19.63z"/>
	<path class="st17" d="M17.76,5.46c0.31-0.05,0.59,0.04,0.68,0.34c0.11,0.35-0.22,0.46-0.45,0.61c-0.31,0.18-0.61,0.38-0.93,0.54
		c-1.34,0.67-2.54-0.12-2.53-1.64c0-0.37,0.24-0.37,0.47-0.36c0.39,0.01,0.81-0.07,1.15,0.21c-0.09,0.25-0.55,0.22-0.44,0.61
		c0.42,0.85,0.92,0.35,1.4,0.09C17.32,5.7,17.59,5.67,17.76,5.46z"/>
	<path class="st18" d="M15.39,5.63c-0.23-0.96,0.57-0.23,0.77-0.47c0.53,0.1,1.07,0.2,1.6,0.3c0.08,0.33-0.09,0.47-0.39,0.51
		C16.68,6.03,15.97,6.19,15.39,5.63z"/>
	<path class="st19" d="M6.28,15.75c0.54-0.9,1.53-1.04,2.37-1.44c0.13,0.07,0.54,0.15,0.26,0.28C8.06,15.01,7.29,15.68,6.28,15.75z"
		/>
	<path class="st20" d="M15.39,5.63c0.67,0.04,1.36-0.02,1.98,0.34C15.95,6.95,15.8,6.92,15.39,5.63z"/>
</g>
</svg>
