<?xml version="1.0" encoding="utf-8"?>
<!-- Generator: Adobe Illustrator 23.0.2, SVG Export Plug-In . SVG Version: 6.00 Build 0)  -->
<svg version="1.1" id="Camada_1" xmlns="http://www.w3.org/2000/svg" xmlns:xlink="http://www.w3.org/1999/xlink" x="0px" y="0px"
	 viewBox="0 0 35.8 27.4" style="enable-background:new 0 0 35.8 27.4;" xml:space="preserve">
<style type="text/css">
	.st0{fill:#FEFEFE;}
	.st1{fill:#010100;}
	.st2{fill:#8C561A;}
	.st3{fill:#034223;}
	.st4{fill:#99641E;}
	.st5{fill:#013D1E;}
	.st6{fill:#DE9724;}
	.st7{fill:#A26C1C;}
	.st8{fill:#CEA642;}
	.st9{fill:#0D5B31;}
	.st10{fill:#C88016;}
	.st11{fill:#E09F29;}
	.st12{fill:#A86C16;}
	.st13{fill:#3B340B;}
	.st14{fill:#219343;}
	.st15{fill:#F3DE6F;}
	.st16{fill:#591913;}
	.st17{fill:#116A39;}
	.st18{fill:#F4DC6E;}
	.st19{fill:#F7E271;}
	.st20{fill:#F6E472;}
	.st21{fill:#804E17;}
	.st22{fill:#3E9D6A;}
	.st23{fill:#D7BA4F;}
	.st24{fill:#824C14;}
	.st25{fill:#146A39;}
	.st26{fill:#F7F186;}
	.st27{fill:#F6E473;}
	.st28{fill:#419E70;}
	.st29{fill:#FDFD90;}
	.st30{fill:#E4D276;}
	.st31{fill:#196A38;}
	.st32{fill:#B37217;}
	.st33{fill:#4EA48D;}
	.st34{fill:#F9F8DD;}
	.st35{fill:#FEFEA9;}
	.st36{fill:#8C5819;}
	.st37{fill:#FEFEF9;}
	.st38{fill:#359747;}
	.st39{fill:#279343;}
	.st40{fill:#8C5418;}
	.st41{fill:#F5F28A;}
	.st42{fill:#A8640C;}
	.st43{fill:#986824;}
	.st44{fill:#379748;}
	.st45{fill:#C86923;}
	.st46{fill:#460F08;}
	.st47{fill:#A68663;}
	.st48{fill:#219243;}
	.st49{fill:#FCF788;}
	.st50{fill:#176E3A;}
	.st51{fill:#1A783D;}
	.st52{fill:#31A16D;}
	.st53{fill:#F6F7C6;}
	.st54{fill:#196E39;}
	.st55{fill:#410C0A;}
	.st56{fill:#D99243;}
	.st57{fill:#FEE9A7;}
</style>
<g>
	<path class="st0" d="M17.94,27.38c-5.71,0-11.43-0.01-17.14,0.02c-0.67,0-0.8-0.15-0.79-0.8C0.03,18.01,0.03,9.41,0,0.82
		C0,0.2,0.06,0,0.78,0C12.2,0.03,23.63,0.03,35.06,0.01c0.61,0,0.73,0.15,0.73,0.74c-0.02,8.63-0.03,17.26,0.01,25.9
		c0,0.75-0.25,0.76-0.84,0.75C29.29,27.37,23.61,27.38,17.94,27.38z"/>
	<path class="st1" d="M1.67,14.41c0-1.48,0.01-2.96,0-4.43C1.64,6.37,4.03,3.73,7.59,3.29C14.04,2.5,20.5,1.82,27,1.46
		c0.55-0.03,0.97,0.19,1.45,0.42c3.9,1.89,5.68,5.03,5.67,9.31c-0.01,2.87-0.03,5.74,0.22,8.61c0.02,0.24,0.01,0.48,0,0.72
		c-0.11,2.3-0.62,2.8-2.91,3.07c-5.39,0.63-10.77,1.3-16.15,1.97c-0.47,0.06-0.91,0.3-1.37,0.36c-1.12,0.15-2.13-0.04-3.19-0.6
		c-2.45-1.3-4.99-2.44-7.52-3.57c-1.1-0.49-1.55-1.23-1.51-2.42c0.06-1.64,0.01-3.28,0.01-4.91C1.68,14.41,1.68,14.41,1.67,14.41z"
		/>
	<path class="st2" d="M5.26,5.28c1.46-1.07,3.18-0.83,4.83-0.94c0.35,0.01,0.63,0.17,0.89,0.39c0.22,0.19,0.43,0.39,0.64,0.59
		c1.84,1.94,2.37,4.35,2.45,6.92c0.19,0.55,0.61,0.38,0.99,0.31c1.13-0.22,2.29-0.08,3.42-0.34c0.42-0.09,0.87-0.06,1.25,0.23
		c0.18,0.24,0.19,0.5,0.05,0.76c-1.06,0.6-2.26,0.35-3.39,0.52c-1.18,0.17-2.38,0.23-3.57,0.31c-0.13,0-0.25,0-0.38,0
		c-0.25,0-0.49,0.04-0.74,0.04c-2.76-0.91-5.42-2.02-7.9-3.56c-0.22-0.25-0.3-0.52-0.15-0.84c0.52-1.62,1.05-3.25,2.92-3.85
		c1.97-0.07,3.28,0.85,3.81,2.71c0.27,0.96,0.49,1.93,0.52,2.93c0.01,0.6,0.16,1.11,0.81,1.3c0.21,0.04,0.42,0.09,0.64,0.08
		c0.24-0.06,0.3-0.25,0.3-0.45c0.06-2.55-0.52-4.87-2.46-6.7c-0.35-0.33-0.69-0.53-1.14-0.2C8.74,5.66,8.46,5.85,8.11,5.9
		C7.45,5.81,6.79,5.62,6.14,5.95C5.54,6.08,5.28,6.8,4.61,6.8C4.04,5.96,5.22,5.86,5.26,5.28z"/>
	<path class="st3" d="M31.23,22.35c-1.17,0.47-2.42,0.25-3.62,0.44c-4.15,0.63-8.33,1.13-12.5,1.67c-0.47,0.06-0.96,0.02-1.43,0.03
		c-0.13-0.21-0.12-0.41,0.02-0.61c0.28-0.33,0.68-0.38,1.07-0.45c4.83-0.77,9.7-1.23,14.55-1.88c0.62-0.08,1.27-0.12,1.86,0.22
		C31.35,21.95,31.37,22.14,31.23,22.35z"/>
	<path class="st4" d="M32.44,7.92c0.4,0.64,0.4,1.39,0.42,2.07c0.06,3.39,0.04,6.79,0.04,10.19c-0.21,0.15-0.4,0.13-0.58-0.05
		c-0.36-0.63-0.2-1.31-0.23-1.98c-0.08-1.85,0.15-3.72-0.13-5.56c-0.09-0.09-0.2-0.16-0.32-0.2c-1.14,0.01-2.26,0.27-3.4,0.27
		c-0.39,0-0.78,0.13-1.14-0.12c-0.17-0.25-0.18-0.51-0.04-0.78c0.9-0.47,1.9-0.44,2.87-0.57c0.57-0.07,0.36-0.46,0.35-0.8
		c-0.03-0.74-0.55-1.4-0.33-2.17c0.35,0.08,0.51-0.36,0.85-0.3c0.88,0.77,0.59,1.98,1.09,3.04c0.32-0.58,0.17-1.08,0.2-1.56
		C32.13,8.89,31.98,8.33,32.44,7.92z"/>
	<path class="st5" d="M10.76,4.81c-0.22-0.16-0.45-0.32-0.67-0.47c1.35-0.45,2.78-0.52,4.17-0.67c3.85-0.42,7.72-0.68,11.58-0.99
		c0.43-0.03,0.87,0.02,1.31,0.04c-0.36,0.79-1.32,0.3-1.79,0.85c-0.94,0.19-1.9,0.18-2.84,0.38C19.3,4.1,16.09,4.43,12.9,4.83
		C12.18,4.92,11.47,5.02,10.76,4.81z"/>
	<path class="st6" d="M25.8,3.22c-0.2-0.18-0.21-0.31,0.09-0.36c0.42-0.07,0.86,0.1,1.25-0.15c2.6,0.88,4.49,2.49,5.29,5.2
		c-0.01,0.58-0.02,1.15-0.03,1.73c-0.63-0.13-0.49-0.71-0.63-1.12c-0.15-0.44-0.22-0.91-0.46-1.33c-0.55-0.95-1.16-1.85-2.21-2.69
		c0.6,0.61,1.02,1.06,0.99,1.75c-0.16,0.29-0.4,0.42-0.73,0.37c-0.17-0.05-0.32-0.15-0.44-0.27c-0.68-0.93-1.45-1.76-2.44-2.37
		C26.18,3.81,25.87,3.61,25.8,3.22z"/>
	<path class="st7" d="M5.26,5.28c0.24,0.71-0.9,0.85-0.65,1.57C4.87,7.38,4.37,7.7,4.24,8.12C4.06,8.68,3.77,9.2,3.91,9.82
		c-0.3,0.14-0.12,0.34-0.05,0.52c0.09,0.5,0.09,1.01,0.08,1.52c0,0.46,0.01,0.92-0.09,1.37c-0.21,0.72-0.14,1.5-0.39,2.21
		c-0.1,0.29-0.1,0.65-0.54,0.67c-0.01-2.34-0.1-4.68,0.01-7.01C3.01,7.47,3.92,6.2,5.26,5.28z"/>
	<path class="st8" d="M2.92,16.1c0.49-0.91,0.29-1.97,0.66-2.9c0.32,0.87,0.07,1.76,0.15,2.64c0,1.34,0,2.69-0.1,4.03
		c-0.15,0.15-0.09-0.16,0.01-0.04c0.22-1.31,0.04-2.64,0.1-3.96c0.02-1.34-0.04-2.68,0.03-4.02c0.12-0.13,0.25-0.14,0.39-0.04
		c0.53,1.24,0.14,2.54,0.27,3.8c-0.01,1.26,0.01,2.52-0.01,3.78c-0.01,0.58-0.07,1.13-0.8,1.25c-0.57-0.08-0.75-0.43-0.74-0.98
		C2.92,18.48,2.92,17.29,2.92,16.1z"/>
	<path class="st9" d="M10.1,23.74c-1.92-0.93-3.85-1.86-5.77-2.8c-0.11-0.23,0.03-0.33,0.2-0.43c0.12-0.04,0.24-0.05,0.36-0.04
		c1.88,0.63,3.66,1.48,5.31,2.58C10.31,23.3,10.29,23.54,10.1,23.74z"/>
	<path class="st10" d="M10.1,23.74c0-0.22-0.01-0.44-0.01-0.66c-0.17-0.21-0.22-0.44-0.15-0.7c0.12-0.29,0.25-0.56,0.62-0.57
		c0.4,0.3,0.25,0.79,0.4,1.18c0.09,0.16,0.21,0.29,0.38,0.38c0.17,0.07,0.35,0.06,0.53,0.07c0.2,0.02,0.37,0.11,0.55,0.19
		c0.27,0.12,0.51,0.02,0.74-0.12c0.23-0.08,0.41,0.01,0.57,0.17c0.06,0.1,0.07,0.2,0.03,0.3c-0.02,0.17-0.05,0.34-0.07,0.51
		c0,0-0.01-0.01-0.01-0.01c-0.54,0.39-1.1,0.3-1.66,0.06C11.37,24.27,10.73,24.01,10.1,23.74z"/>
	<path class="st11" d="M4.53,20.66c-0.07,0.09-0.14,0.19-0.21,0.28c-0.23-0.1-0.46-0.2-0.7-0.3c0.43-0.32,0.49-0.76,0.48-1.26
		c-0.02-1.27,0-2.55,0.01-3.82c0.25-0.09,0.45-0.01,0.6,0.2C4.99,17.4,5.23,19.05,4.53,20.66z"/>
	<path class="st12" d="M32.42,20.18c0.16,0,0.32,0,0.47,0c0.11,2.1,0.09,2.12-1.67,2.17c-0.03-0.17-0.05-0.34-0.08-0.51
		c-0.07-0.1-0.13-0.21-0.16-0.33c-0.03-0.44-0.05-0.87,0.53-0.97c0.29,0,0.32,0.35,0.56,0.41C32.21,20.69,32.15,20.36,32.42,20.18z"
		/>
	<path class="st13" d="M12.01,24.53c0.55-0.02,1.1-0.04,1.66-0.06C13.14,25.27,12.58,25.15,12.01,24.53z"/>
	<path class="st14" d="M13.76,12.27c-0.03-2.6-0.7-4.97-2.47-6.95c0.35-0.94,1.26-0.53,1.84-0.6c2.85-0.38,5.72-0.68,8.6-0.84
		c0.24-0.01,0.48,0,0.71,0.06c1.16,2.05,3.16,2.06,5.14,2.09c1.66,1.04,2.87,3.43,2.5,4.93c-0.91,0.5-1.88,0.6-2.9,0.48
		c-0.48-1.06-1.34-1.19-2.35-0.95c-1.2,0.28-2.45,0.2-3.66,0.43c-0.48,0.09-0.94,0.16-1.25,0.57c-0.27,0.41-0.53,0.76-1.11,0.78
		c-1.31,0.05-2.61,0.27-3.93,0.32C14.47,12.6,14.07,12.59,13.76,12.27z"/>
	<path class="st15" d="M10.8,23.34c-0.36-0.46-0.06-1-0.2-1.48c-0.38-0.33-0.34-0.78-0.34-1.22c0-1.67-0.07-3.34,0.04-5.01
		c0.04-0.65-0.07-1.03-0.73-1.26c-1.55-0.52-2.93-1.41-4.46-1.98c-0.38-0.14-0.72-0.34-1.01-0.61c-0.08,0-0.15,0-0.23,0.01
		c-0.07,0.11-0.14,0.12-0.22,0.01c0.02-0.5-0.29-1.04,0.22-1.46c2.51,1.48,5.28,2.4,7.91,3.63c0.44,0.41,0.34,0.96,0.34,1.46
		c0.02,2.11,0.01,4.23,0.01,6.34c-0.06,0.6,0.14,1.25-0.32,1.78c-0.16,0.26-0.35,0.28-0.55,0.05c-0.32-1.99,0.34-3.95,0.17-5.94
		c-0.03-0.39,0.1-0.79,0-1.01c-0.06,1.07,0.11,2.3-0.28,3.52c-0.23-1.4-0.18-2.81-0.19-3.73c0.09,1.02-0.13,2.51,0.12,4.03
		C11.22,21.42,11.44,22.43,10.8,23.34z"/>
	<path class="st16" d="M19.68,11.08c0.55-0.52,1.25-0.45,1.91-0.52c1.35-0.15,2.7-0.24,4.03-0.49c1.09-0.2,1.5,0.22,1.5,1.23
		c0.16,0.16,0.16,0.32,0.01,0.49c-0.01,0.22-0.02,0.44-0.02,0.66c0.27,0.27,0.34,0.61,0.33,0.97c0,0.21-0.02,0.43-0.08,0.63
		c-0.24,0.84-0.89,1.18-1.68,1.3c-1.68,0.26-3.38,0.37-5.07,0.5c-0.71,0.06-1.1-0.34-1.21-1.03c-0.03-0.28-0.03-0.55-0.02-0.83
		c0.02-0.28,0.07-0.54,0.28-0.75c0-0.27,0-0.53,0-0.8C19.46,11.99,19.57,11.54,19.68,11.08z"/>
	<path class="st17" d="M9.87,10.84c0.02,1.6,0.01,1.6-1.36,0.99c-1.02-0.45-2.02-0.94-3.05-1.38c-0.6-0.26-0.76-0.66-0.53-1.24
		c0.16-0.41,0.3-0.83,0.51-1.21c0.9-1.6,2.33-1.7,3.41-0.22C9.52,8.69,9.96,9.72,9.87,10.84z"/>
	<path class="st18" d="M19.67,13.25c0,0.22,0,0.44,0,0.66c-0.25,0.61-0.8,0.53-1.31,0.6c-1.57,0.23-3.16,0.18-4.73,0.34
		c-0.46,0.35-0.28,0.85-0.32,1.31c-0.05,0.57,0.13,1.19-0.33,1.68c-0.22,0.08-0.43,0.06-0.6-0.12c-0.29-1.34-0.47-2.68,0.13-3.99
		C14.9,13.58,17.26,13.11,19.67,13.25z"/>
	<path class="st19" d="M8.89,5.3c0.31-0.53,0.7-0.51,1.17-0.19c1.78,1.18,3.44,5.54,2.93,7.67c-0.09,0.38-0.35,0.38-0.62,0.42
		c-0.31-0.12-0.38-0.41-0.39-0.68C11.87,9.72,11.02,7.24,8.89,5.3z"/>
	<path class="st20" d="M11.79,12.98c-0.84,0.04-1.33-0.21-1.24-1.21c0.09-1-0.14-1.99-0.4-2.95C9.61,6.9,8.51,6.06,6.51,6.04
		C6.29,6.02,6.08,5.99,5.97,5.76C6.7,5.3,7.45,5.54,8.2,5.72c1.06,0.03,1.65,0.8,2.16,1.54c0.98,1.44,1.42,3.11,1.65,4.82
		C12.05,12.39,12.04,12.73,11.79,12.98z"/>
	<path class="st21" d="M11.79,12.98c-0.06-1.78-0.61-3.43-1.36-5.03C9.96,6.94,9.17,6.24,8.2,5.72c0.23-0.14,0.46-0.28,0.7-0.42
		c1.5,0.62,2.14,1.94,2.67,3.33c0.55,1.47,0.7,3.01,0.82,4.56C12.18,13.13,11.99,13.05,11.79,12.98z"/>
	<path class="st22" d="M22.57,4.1c-3.7,0.01-7.34,0.62-11,1.01c-0.1,0.01-0.19,0.13-0.29,0.2c-0.17-0.17-0.35-0.34-0.53-0.51
		c2.57-0.5,5.19-0.65,7.79-0.92c1.34-0.14,2.69-0.18,4.04-0.26c0.1,0.1,0.26,0.15,0.3,0.31C22.83,4.09,22.76,4.21,22.57,4.1z"/>
	<path class="st23" d="M12.98,17.78c0.19-1.09-0.34-2.26,0.31-3.31c0.44,3.01,0.48,6.03-0.03,9.04c-0.2,0.68-0.58,0.63-1.03,0.24
		c-0.33-0.64-0.16-1.33-0.2-2c0-2.23-0.01-4.45,0-6.68c0-0.47-0.11-0.96,0.26-1.37c0.08,0,0.15,0,0.23,0.02
		c0.01,1.36,0.01,2.71,0.02,4.07c0.47,1.42,0.04,2.89,0.21,4.04C12.92,20.68,12.43,19.21,12.98,17.78z"/>
	<path class="st24" d="M12.28,13.71c-0.02,2.72-0.04,5.43-0.06,8.15C12.08,22,11.93,22,11.78,21.86c-0.01-2.63-0.01-5.27-0.02-7.9
		C11.88,13.75,12.07,13.71,12.28,13.71z"/>
	<path class="st25" d="M19.68,11.08c0,0.46,0,0.92-0.01,1.38c-1.65,0.16-3.3,0.34-4.95,0.48c-0.46,0.04-1.15,0.27-0.96-0.67
		c1.66,0.11,3.31-0.25,4.96-0.22C19.52,12.06,19.35,11.39,19.68,11.08z"/>
	<path class="st26" d="M5.97,5.76C6.18,5.79,6.4,5.82,6.51,6.04C4.87,6.77,4.45,8.33,3.91,9.82C3.3,9.16,3.89,8.58,4.07,8
		c0.12-0.4,0.36-0.77,0.55-1.16C5.08,6.49,5.34,5.89,5.97,5.76z"/>
	<path class="st14" d="M19.66,14.69c-0.03,0.57,0.17,0.97,0.81,0.9c1.81-0.2,3.62-0.45,5.44-0.62c0.71-0.07,1.07-0.42,1.28-1.03
		c1.17-0.5,2.35-0.83,3.6-0.3c0.53,1.47,0.28,2.97,0.18,4.46c-0.04,0.51-0.54,0.59-0.96,0.74c-0.55,0.2-1.21-0.15-1.67,0.38
		c-1.69,0.13-3.39,0.07-5.07,0.23c-0.67,0.06-1.34-0.04-1.77,0.08c1.78,0.09,3.78-0.42,5.81-0.2c0.39,0.04,0.78,0,1.18-0.08
		c1.6-0.33,1.97-0.04,2.13,1.59c0.05,0.24,0.2,0.41,0.37,0.56c0.08,0.08,0.15,0.16,0.21,0.25c-0.01,0.06-0.03,0.13-0.05,0.19
		c-5.84,0.4-11.62,1.26-17.4,2.13c-0.03-0.06-0.05-0.12-0.07-0.18c-0.23-0.4-0.22-0.84-0.22-1.28c0-2.19,0.01-4.38,0-6.57
		c-0.01-0.91,0.38-1.37,1.29-1.28c1.24,0.12,2.44-0.26,3.67-0.25C18.84,14.43,19.3,14.33,19.66,14.69z"/>
	<path class="st27" d="M27.16,13.43c-0.02-0.32-0.03-0.65-0.05-0.97c1.61-0.13,3.21-0.26,4.82-0.38c0.22,0.16-0.34,0.13-0.07,0.39
		c0.43,0.41,0.25,0.76-0.28,0.95C30.11,13.36,28.64,13.7,27.16,13.43z"/>
	<path class="st28" d="M30.02,10.83c0.01-1.94-1.25-3.23-2.39-4.57c-0.06-0.06-0.09-0.12-0.09-0.19c0-0.07,0.01-0.11,0.03-0.11
		c0.66-0.8,1.02,0.13,1.51,0.27c0.09,0.09,0.18,0.18,0.26,0.27c0.53,0.44,0.97,0.91,0.73,1.69c0.2,0.85,0.41,1.7,0.59,2.56
		c0.06,0.32,0.25,0.76-0.38,0.77C30.05,11.34,29.88,11.14,30.02,10.83z"/>
	<path class="st29" d="M31.6,13.24c0.82-0.69-0.11-0.64-0.39-0.86c0.26-0.11,0.49-0.21,0.73-0.31c0.08-0.04,0.15-0.04,0.23-0.01
		c0.28,1.46,0.12,2.93,0.11,4.39c-0.01,1.7,0.18,3.41-0.11,5.11c-0.76,0-0.29-0.62-0.47-0.91c-0.07-0.1-0.19-0.18-0.2-0.3
		C31.29,17.98,31.13,15.61,31.6,13.24z"/>
	<path class="st30" d="M31.47,6.97c0.7,0.76,0.49,1.83,0.93,2.68c-0.14,0.6,0.46,1.64-0.46,1.71c-0.88,0.07-0.56-1.02-0.66-1.6
		c-0.11-0.64-0.39-1.21-0.55-1.82c-0.14-0.12-0.15-0.27-0.11-0.44C30.78,7.13,31.22,7.2,31.47,6.97z"/>
	<path class="st27" d="M32.17,21.57c0-3.17,0-6.34,0-9.51c0.47,0.27,0.22,0.72,0.22,1.07c0.03,2.35,0.03,4.7,0.03,7.05
		C32.26,20.63,32.63,21.18,32.17,21.57z"/>
	<path class="st31" d="M30.02,10.83c0.09,0.23,0.17,0.46,0.26,0.68c-1.05,0.1-2.09,0.19-3.14,0.29c0-0.16-0.01-0.33-0.01-0.49
		C28.09,11.16,29.08,11.15,30.02,10.83z"/>
	<path class="st32" d="M30.75,7.45c-0.01,0.16-0.01,0.33-0.02,0.49c-0.22,0.1-0.31,0.54-0.66,0.24c-0.24-0.56-0.49-1.12-0.73-1.69
		c0.22-0.07,0.44-0.15,0.65-0.22C30.59,6.45,30.85,6.83,30.75,7.45z"/>
	<path class="st33" d="M29.07,6.23c-0.54,0.29-0.86-0.83-1.45-0.21c-0.51-0.1-0.74-0.51-0.99-0.9c-0.33-0.77-1.23-0.26-1.68-0.74
		c-0.07-0.1,0.12-0.35-0.26-0.29c-0.63,0.11-1.3,0.23-1.87-0.23c-0.08-0.08-0.16-0.16-0.24-0.24c1.07-0.14,2.14-0.27,3.21-0.41
		C27.12,3.97,28.32,4.86,29.07,6.23z"/>
	<path class="st34" d="M30.75,7.45c-0.25-0.39-0.5-0.78-0.76-1.17c-0.21-0.84-0.91-1.34-1.38-2.02c0.98,0.11,1.82,0.92,2.86,2.71
		C31.48,7.5,30.97,7.27,30.75,7.45z"/>
	<path class="st35" d="M3.64,11.8c0.07-0.01,0.15-0.01,0.22-0.01c-0.01,1.37-0.02,2.73-0.03,4.1c-0.07,0.09-0.13,0.09-0.19,0
		c-0.02-0.89-0.04-1.79-0.05-2.68C3.6,12.73,3.62,12.26,3.64,11.8z"/>
	<path class="st36" d="M4.09,11.78c2.19,0.49,4.05,1.8,6.15,2.52c0.39,0.13,0.47,0.47,0.46,0.87c-0.05,2.23-0.07,4.45-0.1,6.68
		c-0.15,0.16-0.29,0.32-0.44,0.48c-0.71-0.77-0.36-1.71-0.41-2.59c-0.01-1.28-0.03-2.55-0.01-3.83c0.16-0.74-0.24-1.06-0.87-1.33
		c-1.35-0.57-2.74-1.08-3.99-1.91c-0.06,0.89,0.12,1.8-0.11,2.69c-0.05,0.12-0.13,0.2-0.24,0.26c-0.14-0.02-0.28-0.05-0.42-0.07
		C4.11,14.3,4.1,13.04,4.09,11.78z"/>
	<path class="st37" d="M3.64,15.88c0.06-0.01,0.13-0.01,0.19,0c0,1.38,0,2.77,0,4.15c-0.06,0-0.13,0-0.19,0.01
		C3.64,18.65,3.64,17.26,3.64,15.88z"/>
	<path class="st38" d="M10.09,19.7c0.02,0.88,0.05,1.76,0.07,2.64c-0.03,0.25-0.05,0.5-0.08,0.75c-1.75-0.81-3.51-1.62-5.26-2.42
		c-0.1-1.08,0.17-2.14,0.18-3.22c0.01-0.92,0.48-1.05,1.26-0.77C7.88,17.25,9.32,18.05,10.09,19.7z"/>
	<path class="st39" d="M10.09,19.7c-1.07-0.64-1.56-2-2.91-2.31C6.57,17.25,6,16.94,5.34,16.68c-0.04,1.42-0.1,2.73-0.52,3.98
		c-0.1,0-0.19,0-0.29,0c0-1.68,0-3.35,0-5.03c0,0,0.09-0.01,0.09-0.01c0.35-0.17,0.36-0.5,0.37-0.82c0.03-0.94,0.52-1.24,1.34-0.86
		c1.24,0.59,2.72,0.65,3.77,1.67C10.1,16.98,10.1,18.34,10.09,19.7z"/>
	<path class="st40" d="M19.66,14.69c-1.75-0.16-3.48,0.3-5.23,0.27c-0.76-0.02-0.74,0.55-0.74,1.09c0,2.58-0.01,5.17-0.02,7.75
		c-0.14-0.09-0.28-0.19-0.42-0.28c0.01-3.01,0.02-6.02,0.03-9.04c2.14-0.04,4.29-0.04,6.39-0.56
		C19.67,14.17,19.66,14.43,19.66,14.69z"/>
	<path class="st41" d="M10.8,23.34c0-2.55,0-5.1,0-7.65c0.08,0,0.16-0.01,0.24-0.01c0,1.42,0,2.84,0,4.26c0.08,0,0.16,0,0.24,0
		c0-1.18,0-2.36,0-3.54c0.08,0,0.16,0,0.23,0c0,2.27,0,4.55-0.01,6.82c0,0.13-0.16,0.25-0.25,0.38
		C11.1,23.51,10.95,23.42,10.8,23.34z"/>
	<path class="st42" d="M11.78,21.86c0.15,0,0.29-0.01,0.44-0.01c0,0.63,0,1.27,0,1.9c-0.14-0.07-0.28-0.14-0.42-0.21
		C11.8,22.98,11.79,22.42,11.78,21.86z"/>
	<path class="st43" d="M31.6,13.24c0.28,2.47,0.15,4.94,0.1,7.41c-0.66,0.09-0.41,0.63-0.5,1c-0.06-0.02-0.12-0.04-0.19-0.04
		c-0.63-0.87-0.41-1.85-0.29-2.77c0.21-1.71,0.2-3.41,0.03-5.11c-1.2-0.22-2.37,0.27-3.57,0.2c-0.01-0.17-0.01-0.34-0.02-0.5
		C28.63,13.23,30.11,13.1,31.6,13.24z"/>
	<path class="st44" d="M22.82,3.87c0.89,0,1.77,0,2.87,0c-0.37,0.22-0.53,0.31-0.7,0.41c-0.02,0.46,0.33,0.45,0.63,0.48
		c0.42,0.05,0.86-0.05,1.23,0.22c0.26,0.34,0.51,0.69,0.77,1.03c0,0.08,0,0.16,0,0.24c-1.44-0.04-2.93,0.26-4.24-0.71
		c-0.51-0.38-0.9-0.76-0.81-1.44C22.66,4.03,22.74,3.95,22.82,3.87z"/>
	<path class="st45" d="M26.32,14.41c-1.77,0.19-3.55,0.34-5.32,0.59c-0.56,0.08-0.85,0.19-0.68-0.55c0.1-0.46,0.08-0.95,0.08-1.42
		c0.02-1.83,0.04-1.82,1.93-1.96c1.2-0.09,2.4-0.29,3.6-0.44c0.09,0.09,0.16,0.19,0.22,0.3c0.24,0.96,0,1.94,0.17,2.9
		c0.05,0.11,0.09,0.22,0.14,0.33C26.49,14.28,26.45,14.36,26.32,14.41z"/>
	<path class="st46" d="M26.32,14.41c0.03-0.07,0.03-0.14,0.03-0.21c-0.27-1.2-0.26-2.4-0.01-3.59
		C26.82,11.88,27.25,13.15,26.32,14.41z"/>
	<path class="st47" d="M26.34,10.61c0.11,1.2,0.11,2.4,0.01,3.59c-0.07-0.01-0.13-0.02-0.2-0.03c-0.27-1.11,0.12-2.26-0.21-3.37
		c-0.01-0.06-0.01-0.12-0.01-0.18C26.07,10.62,26.2,10.61,26.34,10.61z"/>
	<path class="st48" d="M9.38,11.77c-1.24-0.62-2.38-1.08-3.4-1.73c-0.9-0.57-0.22-1.29,0.16-1.81c0.41-0.57,1.07-1.27,1.73-0.42
		C8.69,8.89,9.36,10.12,9.38,11.77z"/>
	<path class="st49" d="M12.98,17.78c0,1.96,0,3.93,0,5.89c-0.15,0-0.3,0.01-0.44,0.01c0-1.96,0-3.92,0-5.88
		C12.68,17.8,12.83,17.79,12.98,17.78z"/>
	<path class="st50" d="M30.48,21.37c-0.03-0.03-0.06-0.06-0.08-0.09c-0.44-0.52,0.33-1.49-0.55-1.76c-0.59-0.18-1.27-0.04-1.91-0.06
		c-2.35-0.08-4.68,0.5-7.04,0.09c1.93-0.3,3.86-0.66,5.84-0.42c0.55,0.07,1.1,0.25,1.61-0.14c0.2-0.18,0.45-0.14,0.68-0.13
		c0.6,0.01,1.5-0.56,1.72,0.03C31.01,19.62,31.16,20.61,30.48,21.37z"/>
	<path class="st51" d="M24.53,21.17c-3.25,0.57-6.53,0.84-9.8,1.23c-0.01-0.11-0.03-0.22-0.04-0.33c3.27-0.41,6.53-0.81,9.8-1.22
		C24.5,20.96,24.51,21.07,24.53,21.17z"/>
	<path class="st52" d="M30.48,21.37c0.02-0.08,0.02-0.16,0.05-0.23c0.28-0.64,0.39-1.4,0.14-1.96c-0.34-0.75-1.16,0-1.75-0.19
		c-0.18-0.06-0.39,0-0.59,0c-0.04-0.01-0.09-0.01-0.11-0.03c-0.05-0.04-0.08-0.1-0.12-0.15c0.45-0.08,0.91-0.27,1.36-0.24
		c1.3,0.09,1.35-0.67,1.29-1.64c-0.06-1.07-0.01-2.14-0.01-3.21c0.47,0.26,0.26,0.71,0.26,1.07c0.02,2.27,0.01,4.54,0,6.81
		C30.79,21.63,30.6,21.59,30.48,21.37z"/>
	<path class="st53" d="M26.86,4.98c-0.53,0.19-1.09,0.23-1.64,0.12C24.67,5,24.39,4.74,24.99,4.28C25.62,4.51,26.61,3.76,26.86,4.98
		z"/>
	<path class="st54" d="M10.11,15.63c-1.19-0.43-2.39-0.82-3.55-1.31c-0.91-0.38-1.42-0.38-1.27,0.82c0.03,0.28,0.17,0.67-0.22,0.82
		C4.97,16,4.77,15.75,4.62,15.63c0-1.03,0-2.07,0-3.25c1.77,0.78,3.5,1.52,5.22,2.29C10.26,14.86,10.11,15.28,10.11,15.63z"/>
	<path class="st55" d="M22.57,12.03c0.3-0.49,0.75-0.62,1.21-0.36c0.44,0.25,0.32,0.66,0.09,1.03c-0.04,0.07-0.06,0.15-0.09,0.22
		c-0.17,0.39,0.31,1.12-0.39,1.16c-0.69,0.04-0.07-0.86-0.55-1.11C22.42,12.75,22.27,12.46,22.57,12.03z"/>
	<path class="st56" d="M22.57,12.03c0.09,0.32,0.18,0.64,0.27,0.95c-0.67,0.06-0.62,0.77-1,1.09c-0.24,0.2-0.49,0.52-0.81,0.21
		c-0.25-0.25-0.07-0.56,0.16-0.72C21.76,13.15,21.92,12.36,22.57,12.03z"/>
	<path class="st57" d="M25.94,10.8c0.5,1.1,0.14,2.25,0.21,3.37C25.72,13.07,26.05,11.92,25.94,10.8z"/>
</g>
</svg>
