<?xml version="1.0" encoding="utf-8"?>
<!-- Generator: Adobe Illustrator 23.0.2, SVG Export Plug-In . SVG Version: 6.00 Build 0)  -->
<svg version="1.1" id="Camada_1" xmlns="http://www.w3.org/2000/svg" xmlns:xlink="http://www.w3.org/1999/xlink" x="0px" y="0px"
	 viewBox="0 0 24.75 33.39" style="enable-background:new 0 0 24.75 33.39;" xml:space="preserve">
<style type="text/css">
	.st0{fill:#010101;}
	.st1{fill:#2C527A;}
	.st2{fill:#29425D;}
	.st3{fill:#2D4662;}
	.st4{fill:#395F88;}
	.st5{fill:#2B4562;}
	.st6{fill:#F3F7F7;}
	.st7{fill:#1A2A3C;}
	.st8{fill:#D7DDE5;}
	.st9{fill:#B74143;}
	.st10{fill:#CFD8E1;}
	.st11{fill:#A83D3F;}
	.st12{fill:#AF4145;}
	.st13{fill:#D6D9E0;}
	.st14{fill:#B73F41;}
	.st15{fill:#E3E9EF;}
	.st16{fill:#F8F5F6;}
	.st17{fill:#C04447;}
	.st18{fill:#D0D5DC;}
	.st19{fill:#B8474A;}
	.st20{fill:#99363B;}
	.st21{fill:#5E191D;}
	.st22{fill:#581415;}
	.st23{fill:#C0DDF1;}
	.st24{fill:#EAEEF2;}
	.st25{fill:#D0E1EB;}
	.st26{fill:#C8DEE6;}
	.st27{fill:#284769;}
	.st28{fill:#243E5C;}
	.st29{fill:#B9D5E8;}
	.st30{fill:#869FB6;}
	.st31{fill:#CEE5E8;}
	.st32{fill:#2A4B70;}
	.st33{fill:#B6D4D7;}
	.st34{fill:#9FBACF;}
	.st35{fill:#F1F7FA;}
	.st36{fill:#A9CBCF;}
	.st37{fill:#95ADC1;}
	.st38{fill:#AECAE0;}
	.st39{fill:#9FBAD0;}
	.st40{fill:#CDEAEB;}
	.st41{fill:#F6FCFD;}
</style>
<g>
	<path class="st0" d="M1.68,20.28c0-2.24,0.05-4.48-0.02-6.71c-0.03-1.05,0.35-1.63,1.31-1.98C4.5,11.02,6,10.39,7.51,9.78
		c1.28-0.52,2.6-0.25,3.9-0.2c0.59,0.02,0.83-0.09,1-0.64c0.62-1.95,1.69-3.74,2.1-5.79c0.2-0.97,1.1-1.48,2.09-1.49
		c2.21-0.02,4.22,0.72,6.09,1.84c0.84,0.5,0.79,1.39,0.55,2.14C22.96,6.5,22.2,6.89,21.3,6.97c-0.08,0.01-0.16-0.02-0.24-0.02
		c-0.8-0.05-1.66-0.9-2.29-0.35c-0.56,0.49-0.7,1.48-1.02,2.24c-0.09,0.22-0.17,0.45-0.29,0.65c-0.46,0.74-0.4,1.05,0.6,1.08
		c2.04,0.06,2.56,0.62,2.47,2.65c-0.23,4.95-0.37,9.9-0.41,14.85c-0.02,1.93-0.49,2.47-2.4,2.73c-2.01,0.28-4.04,0.45-6.07,0.66
		c-0.59,0.06-1.18,0.1-1.74,0.35c-0.48,0.21-0.99,0.13-1.5-0.09c-1.61-0.68-3.23-1.32-4.86-1.97c-1.45-0.58-1.91-1.21-1.92-2.79
		c-0.01-2.24,0-4.48,0-6.71C1.64,20.28,1.66,20.28,1.68,20.28z"/>
	<path class="st1" d="M5.08,12.05c2.48-1.32,5.06-1.89,7.83-0.99c0.89-0.17,1.73-0.07,2.48,0.48c1.28-0.02,2.55,0.08,3.77,0.48
		c-0.43,0.52-1.05,0.51-1.64,0.56c-2.15,0.07-4.23-0.46-6.33-0.78c-0.55-0.08-1.11-0.49-1.68-0.03c-0.11,0.32-0.15,0.67-0.41,0.92
		c-0.08,0.07-0.18,0.12-0.29,0.14c-0.3-0.26-0.42,0.39-0.72,0.14c-0.16-0.16-0.26-0.36-0.27-0.59c-0.01-0.15,0.13-0.41,0.06-0.43
		c-0.53-0.12-1.71,0.68-1.78,1.23c-0.12,0.97-0.4,1.94-0.19,2.94c-0.14,0.5-0.24,1.08-0.93,0.47c-0.05-0.12-0.07-0.24-0.06-0.36
		c0.1-1.06,0.08-2.13,0.02-3.2C4.89,12.69,4.92,12.36,5.08,12.05z"/>
	<path class="st2" d="M8.68,12.74c0.08,0,0.17,0,0.25-0.01c0.37,0.39,0.3,0.89,0.3,1.36c-0.03,4.93,0.09,9.87-0.07,14.8
		c-0.02,0.57,0.12,0.74,0.65,0.62c1.13-0.07,2.24-0.33,3.38-0.31c0.79,0.02,1.58,0.04,2.23,0.59c-2.48,0.17-4.92,1.07-7.45,0.42
		c-0.11-0.28-0.03-0.54,0.06-0.81c0.12-2.36,0.02-4.72,0.05-7.08c0.04-1.18-0.06-2.35,0.07-3.53c0.33-1.14,0.11-2.31,0.17-3.46
		C8.41,14.47,8.07,13.54,8.68,12.74z"/>
	<path class="st3" d="M5.08,12.05c0.13,0.21,0.16,0.42-0.02,0.62c-0.21,0.57-0.99,0.54-1.18,1.12c-0.13,0.53,0.36,1.09-0.04,1.61
		c-0.28,2.93,0.01,5.87-0.12,8.8c-0.05,1.1,0.19,2.22-0.19,3.31c-0.09,0.14-0.22,0.18-0.37,0.11c-0.03-4.65-0.34-9.29-0.23-13.94
		c0.01-0.58,0.23-0.88,0.73-1.07C4.12,12.43,4.59,12.24,5.08,12.05z"/>
	<path class="st4" d="M17.46,12.3c0.57-0.09,1.13-0.18,1.7-0.28c0.6,1.58-0.06,3.17,0.02,4.76c-0.64-0.27-0.25-0.81-0.3-1.22
		c-0.08-0.57-0.02-1.16-0.05-1.74c-0.04-0.16-0.18,0.08-0.03,0.01c0.04-0.02,0.07,0,0.07,0.08c0.01,4.82-0.02,9.64-0.01,14.46
		c0,0.24,0.04,0.48-0.11,0.7c0,0.07-0.02,0.13-0.06,0.19c-0.29,0.05-0.35-0.17-0.44-0.37c-0.04-0.14-0.06-0.28-0.07-0.43
		c-0.03-4.67,0-9.34-0.02-14.01c0-0.51,0.11-1.04-0.21-1.51C17.73,12.77,17.5,12.6,17.46,12.3z"/>
	<path class="st5" d="M18.74,29.07c0-5.35,0-10.7,0-16.05c0.47,1.23-0.08,2.55,0.43,3.77c-0.3,3.91-0.17,7.83-0.24,11.75
		C18.94,28.71,18.81,28.89,18.74,29.07z"/>
	<path class="st6" d="M3.14,27.62c0.06-0.01,0.12-0.03,0.17-0.05c0.17-0.09,0.33-0.19,0.53-0.22c1.29,0.03,2.43,0.58,3.61,1
		c0.29,0.12,0.61,0.21,0.81,0.5c0.07,0.41,0.08,0.79-0.47,0.88c-1.56-0.59-3.25-0.88-4.66-1.87C3.12,27.78,3.13,27.7,3.14,27.62z"/>
	<path class="st7" d="M3.13,27.85c1.51,0.61,3.15,0.87,4.56,1.74c0.13,0.11,0.38-0.02,0.44,0.22c-0.06,0.13-0.12,0.27-0.17,0.4
		c-1.29-0.48-2.59-0.93-3.86-1.46C3.71,28.6,3.18,28.44,3.13,27.85z"/>
	<path class="st8" d="M15.5,5.34c-0.32-0.46,0.05-0.73,0.27-1.05c0.73-0.39,1.25,0.08,1.81,0.42c0.26,0.29,0.37,0.61,0.26,1
		c-0.26,0.08-0.2,0.58-0.6,0.47C16.52,6.19,15.99,5.8,15.5,5.34z"/>
	<path class="st5" d="M18.49,29.02c0.06,0.08,0.13,0.16,0.19,0.23c-1.01,0.68-2.16,0.48-3.27,0.54c-0.75-0.1-1.5-0.19-2.26-0.29
		c-0.02-0.15,0.03-0.27,0.16-0.35c0.85-0.39,1.8-0.01,2.65-0.36C16.82,28.74,17.69,28.5,18.49,29.02z"/>
	<path class="st9" d="M17.54,4.85c-0.58-0.23-1.13-0.52-1.76-0.56c-0.14-0.96,0.58-1.1,1.24-1.3c0.6,0.36,0.99,0.87,1.07,1.58
		C17.96,4.79,17.8,4.93,17.54,4.85z"/>
	<path class="st10" d="M14.64,6.57c0.18-0.18,0.12-0.65,0.58-0.51c0.64,0.11,1.24,0.3,1.62,0.89c0.33,0.55,0.21,0.89-0.46,0.98
		c-0.58-0.05-1.1-0.32-1.61-0.56C14.5,7.13,14.48,6.87,14.64,6.57z"/>
	<path class="st11" d="M19.96,5.15c-0.43-0.03-0.86-0.07-1.29-0.1c-0.06-0.1-0.12-0.2-0.16-0.31c-0.05-0.5-0.38-0.99-0.03-1.5
		c0.54,0.05,1.08,0.07,1.59,0.31C20,4.08,20.36,4.64,19.96,5.15z"/>
	<path class="st12" d="M16.03,9.49c0.14,0.46-0.54,0.45-0.49,0.86c-0.76,0.36-1.28-0.05-1.78-0.54c-0.17-0.4,0.34-0.54,0.33-0.87
		C14.91,8.49,15.43,9.13,16.03,9.49z"/>
	<path class="st13" d="M18.48,3.25c0.12,0.57,0.49,1.11,0.25,1.73c-0.25-0.11-0.56-0.13-0.67-0.44C17.7,4.03,17.22,3.61,17.02,3
		C17.53,2.89,18.04,2.87,18.48,3.25z"/>
	<path class="st14" d="M16.84,6.94c-0.54-0.3-1.08-0.59-1.62-0.89c0.23-0.19,0.31-0.43,0.28-0.72c0.65,0.13,1.23,0.42,1.74,0.84
		C17.16,6.46,17.09,6.75,16.84,6.94z"/>
	<path class="st15" d="M13.76,9.8c0.59,0.18,1.19,0.36,1.78,0.54c0.21,0.38-0.09,0.62-0.23,0.91c-0.76-0.04-1.52-0.08-1.93-0.89
		C13.49,10.17,13.38,9.83,13.76,9.8z"/>
	<path class="st16" d="M16.03,9.49c-0.74,0.13-1.2-0.7-1.94-0.56c-0.28-0.35-0.25-0.63,0.17-0.84c0.92-0.36,1.45,0.11,1.84,0.86
		C16.08,9.13,16.05,9.31,16.03,9.49z"/>
	<path class="st17" d="M16.11,8.95c-0.5-0.53-1.12-0.8-1.84-0.86C14.21,8.05,14.2,8,14.22,7.94c0.18-0.28,0.4-0.53,0.7-0.69
		C15.5,7.27,16,7.46,16.38,7.92C16.29,8.27,16.2,8.61,16.11,8.95z"/>
	<path class="st18" d="M19.96,5.15c0.32-0.51-0.83-1.12,0.11-1.6c0.31,0.11,0.64,0.2,0.8,0.55c0.39,0.49,0.12,0.94-0.07,1.4
		C20.45,5.52,20.04,5.73,19.96,5.15z"/>
	<path class="st19" d="M20.79,5.5c-0.29-0.48,0.02-0.94,0.07-1.4c0.61,0.15,1.22,0.34,0.99,1.16C21.67,5.92,21.2,5.65,20.79,5.5z"/>
	<path class="st20" d="M13.37,10.37c0.55,0.5,1.33,0.5,1.93,0.89c0.03,0.1,0.06,0.19,0.08,0.28c-0.84-0.1-1.69-0.12-2.48-0.48
		C13.05,10.82,13.04,10.48,13.37,10.37z"/>
	<path class="st21" d="M18.06,4.54c0.22,0.15,0.45,0.3,0.67,0.44l-0.06,0.07C18.18,5,18.14,5.52,17.84,5.71
		c0.04-0.34-0.44-0.49-0.31-0.86C17.71,4.74,17.88,4.64,18.06,4.54z"/>
	<path class="st22" d="M14.92,7.25c-0.08,0.38-0.19,0.74-0.7,0.69c-0.16-0.55,0.12-0.96,0.42-1.37C14.67,6.82,14.55,7.13,14.92,7.25
		z"/>
	<path class="st23" d="M17.46,12.3c0.18,0.07,0.37,0.14,0.55,0.21c0.49,1.72,0.15,3.48,0.2,5.21c-0.47,0.79-0.8,0.13-1.07-0.16
		c-0.57-0.61-0.93-1.38-1.43-2.05c-0.76-1-1.75-1.47-2.97-1.49c-0.91-0.02-1.82-0.07-2.68-0.38c-0.23,0.39-0.07,0.75-0.12,1.09
		c-0.02,0.4,0.03,0.8,0.01,1.21c-0.02,0.51,0,1.01,0,1.52c-0.03,3.44,0.02,6.87,0.04,10.3c0,0.59,0.08,1.21-0.31,1.73
		c-0.84,0-0.52-0.66-0.53-1.03c-0.03-2.67-0.06-5.35-0.01-8.02c0.05-2.71-0.23-5.42,0.18-8.12c0.03-0.21-0.07-0.39-0.2-0.55
		C9,10.89,9.6,11.15,10.04,11.22c1.88,0.32,3.75,0.68,5.64,0.98C16.26,12.3,16.87,12.27,17.46,12.3z"/>
	<path class="st24" d="M9.13,11.78c0.44,0.03,0.5,0.34,0.46,0.68c-0.48,4.08-0.14,8.17-0.19,12.25c-0.02,1.61-0.26,3.24,0.17,4.84
		c0.11,0.04,0.17,0.12,0.19,0.23c-1.04,0.29-1.01,0.3-0.99-0.7c0.1-5.44,0.24-10.88,0.15-16.33C9,12.42,9.07,12.1,9.13,11.78z"/>
	<path class="st25" d="M5.75,16.04c-0.35-1.09,0.02-2.19-0.05-3.28c-0.02-0.26,0.18-0.41,0.43-0.51c0.77-0.29,1.53-0.58,2.41-0.92
		c-0.25,0.48-0.43,0.82-0.6,1.16C7.59,13.91,6.67,14.97,5.75,16.04z"/>
	<path class="st26" d="M3.57,13.71c0.14-0.85,1.02-0.64,1.48-1.04c0.36,1.21,0.25,2.42,0.02,3.63C4.1,15.71,4,14.61,3.57,13.71z"/>
	<path class="st27" d="M5.75,16.04c0.52-1.31,1.39-2.4,2.17-3.54c0.2,0.1,0.23,0.28,0.25,0.47c0.18,0.3,0.01,0.55-0.09,0.82
		c-0.9,1.16-1.27,2.69-2.52,3.62c-0.42,0.1-0.69-0.04-0.83-0.46c0.01-0.21,0.13-0.32,0.32-0.38C5.65,16.85,5.62,16.35,5.75,16.04z"
		/>
	<path class="st28" d="M5.06,16.57c-0.08,0.08-0.16,0.16-0.24,0.24c-0.35,0.12-0.45-0.19-0.63-0.36c-0.22-0.31-0.44-0.62-0.47-1.02
		c0.01-0.11,0.06-0.21,0.14-0.28c0.12-0.52-0.67-0.87-0.27-1.45c0.5,0.86,1,1.73,1.5,2.59C5.07,16.39,5.06,16.48,5.06,16.57z"/>
	<path class="st29" d="M7.9,13.65c0.09-0.23,0.18-0.45,0.27-0.68c0.2-0.01,0.18-0.49,0.5-0.22c-0.02,0.84-0.04,1.68-0.06,2.51
		c0,0.14-0.06,0.2-0.2,0.17c-0.34-0.3-0.25-0.76-0.44-1.12C7.93,14.09,7.8,13.88,7.9,13.65z"/>
	<path class="st30" d="M9.77,29.77c-0.06-0.08-0.13-0.15-0.19-0.23c0.02-4.08,0.03-8.16,0.05-12.23c0.66,0.14,0.53,0.7,0.54,1.13
		c0.04,1.35,0.08,2.7,0,4.04c-0.09,1.34,0.39,2.38,1.32,3.3c0.54,0.53,1.11,1.02,1.64,1.55c0.61,0.61,0.76,1.28,0.14,2
		c-0.03,0.06-0.07,0.12-0.11,0.18C12.03,29.59,10.9,29.68,9.77,29.77z"/>
	<path class="st31" d="M8.44,18.73c-0.07,1.16-0.18,2.32-0.04,3.48c-0.25,1.45-0.01,2.92-0.13,4.38c-0.81,0.04-0.64-0.62-0.66-1.03
		c-0.06-1.66-0.08-3.32-0.01-4.98c0.05-1.18-0.16-2.11-1.41-2.53c-0.18-0.06-0.31-0.24-0.42-0.41c0.55-1.08,0.93-2.3,2.25-2.75
		c0.51,0.52,0.3,1.24,0.5,1.84C8.49,17.4,8.63,18.07,8.44,18.73z"/>
	<path class="st5" d="M8.16,26.65c0.19-1.47-0.08-2.97,0.24-4.44c0.01,2.21,0.01,4.42,0.01,6.63c0,0.35,0.07,0.72-0.27,0.98
		C7.97,29.8,7.78,29.79,7.7,29.6c0.7,0.06,0.47-0.41,0.44-0.76C7.74,28.1,7.65,27.37,8.16,26.65z"/>
	<path class="st32" d="M8.44,18.73c-0.02-0.72-0.03-1.44-0.05-2.17c-0.1-0.39-0.22-0.78,0.06-1.14c0.06-0.05,0.12-0.1,0.16-0.16
		C8.59,16.42,8.88,17.59,8.44,18.73z"/>
	<path class="st33" d="M8.16,26.65c-0.01,0.73-0.01,1.45-0.02,2.18c-0.25-0.02-0.53,0.02-0.71-0.23c-0.88-1.89-2.2-3.51-3.14-5.45
		c-0.61,1.51-0.22,3-0.43,4.44c-0.18-0.01-0.36-0.02-0.55-0.03c0.05-3.95,0.09-7.9,0.16-11.85c0-0.18-0.37-0.82,0.38-0.57
		c0,0.08,0,0.15-0.01,0.23c-0.17,1.49-0.08,2.99-0.11,4.49c0.01-0.96,0.02-1.91,0.01-2.87c0-0.43-0.01-0.83,0.61-0.69
		c0.16,0.17,0.31,0.34,0.47,0.51c0.16,0.31,0.33,0.6,0.76,0.5c0.08-0.11,0.16-0.1,0.22,0.02c0.07,0.09,0.13,0.26,0.21,0.27
		c1.89,0.37,2.08,1.67,1.95,3.3c-0.12,1.53-0.03,3.08-0.02,4.63C7.95,25.91,7.81,26.33,8.16,26.65z"/>
	<path class="st34" d="M9.62,15.86c0-0.4,0-0.8,0-1.2c1.19,0.06,2.38,0.23,3.54,0.48c2.37,0.52,3.41,2.34,4.01,4.47
		c0.28,0.99,0.42,2.03,1.05,2.9c0.09,1.67,0.01,3.35,0.04,5.02c0.01,0.43-0.09,0.88,0.21,1.27c0.02,0.07,0.03,0.15,0.02,0.22
		c-0.86,0.02-1.73,0.04-2.59,0.05c-0.42,0.13-0.84,0.19-1.24-0.04c0.01-0.34,0.25-0.43,0.48-0.46c1.06-0.13,1.16-0.74,0.91-1.62
		c-0.51-1.76-0.76-3.58-1-5.39c-0.35-2.71-1.17-3.66-3.82-4.07C10.18,17.32,9.67,16.89,9.62,15.86z"/>
	<path class="st35" d="M18.47,28.8c-0.63-0.1-0.41-0.6-0.41-0.95c-0.03-1.84-0.04-3.67-0.05-5.51c-0.55-1.44-0.6-2.88,0-4.32
		c0-1.84,0.01-3.67,0.01-5.51c0.61-0.07,0.49,0.38,0.49,0.71C18.5,18.41,18.48,23.61,18.47,28.8z"/>
	<path class="st36" d="M3.86,27.6c-0.59-1.72-0.08-3.41,0.32-5.19c1.11,1.93,2.22,3.85,3.33,5.78c0.08,0.15,0.08,0.3-0.08,0.42
		C6.22,28.32,5.11,27.71,3.86,27.6z"/>
	<path class="st37" d="M9.62,15.86c0.15,1.31,1.25,1.19,2.11,1.38c2.25,0.5,3.25,1.41,3.58,3.67c0.32,2.2,0.59,4.39,1.21,6.54
		c0.3,1.05-0.01,1.28-1.64,1.46c0.31,0.28,0.69,0.07,1.01,0.17c-0.85,0.34-1.75,0.17-2.63,0.25c-0.12-0.01-0.24-0.01-0.36-0.05
		c-0.28-0.08-0.22-0.17,0.01-0.22c0.9-0.2,0.47-0.73,0.3-1.19c-0.11-0.28-0.37-0.39-0.59-0.57c-1.8-1.44-3.14-3.04-2.82-5.64
		c0.17-1.41,0.34-2.93-0.17-4.36C9.63,16.83,9.63,16.34,9.62,15.86z"/>
	<path class="st38" d="M18,18.02c0,1.44,0,2.88,0,4.32c-0.88-0.35-0.79-1.19-0.95-1.89c-0.48-2.07-1.19-3.98-3.38-4.84
		c-0.93-0.36-1.93-0.4-2.91-0.46c-0.47-0.03-0.84-0.14-1.14-0.49c0-1.42,0.01-1.47,1.31-1.12c0.68,0.18,1.34,0.13,2.01,0.14
		c1.82,0.02,2.84,1.18,3.71,2.56C17.05,16.88,17.32,17.61,18,18.02z"/>
	<path class="st39" d="M5.8,17.33c-0.07-0.01-0.15-0.02-0.22-0.02c0.77-1.22,1.55-2.44,2.32-3.67c0.1,0.18,0.19,0.37,0.29,0.55
		c0.2,0.34,0.06,0.55-0.28,0.68C7.17,15.67,6.67,16.66,5.8,17.33z"/>
	<path class="st40" d="M4.35,16.31c-0.38,0.18-0.53,0.44-0.51,0.9c0.05,0.98,0.02,1.97-0.11,2.95c0.04-1.59-0.37-3.2,0.11-4.78
		C4.01,15.69,4.18,16,4.35,16.31z"/>
	<path class="st41" d="M7.91,14.88C8,14.65,8.09,14.42,8.19,14.2c0.39,0.34,0.08,0.84,0.27,1.23c-0.02,0.38-0.04,0.76-0.06,1.14
		C7.96,16.08,8.35,15.36,7.91,14.88z"/>
</g>
</svg>
