<?xml version="1.0" encoding="utf-8"?>
<!-- Generator: Adobe Illustrator 23.0.2, SVG Export Plug-In . SVG Version: 6.00 Build 0)  -->
<svg version="1.1" id="Camada_1" xmlns="http://www.w3.org/2000/svg" xmlns:xlink="http://www.w3.org/1999/xlink" x="0px" y="0px"
	 viewBox="0 0 26.84 26.98" style="enable-background:new 0 0 26.84 26.98;" xml:space="preserve">
<style type="text/css">
	.st0{fill:#FEFEFE;}
	.st1{fill:#0E0B0E;}
	.st2{fill:#2C2D33;}
	.st3{fill:#FBFBFB;}
	.st4{fill:#FDFDFD;}
	.st5{fill:#2C2D34;}
	.st6{fill:#AFAFAF;}
	.st7{fill:#B0AFAF;}
	.st8{fill:#202127;}
	.st9{fill:#1B1C20;}
	.st10{fill:#F9F9F9;}
	.st11{fill:#B2B2B2;}
	.st12{fill:#BABAB9;}
	.st13{fill:#E0E0DD;}
	.st14{fill:#BABABA;}
	.st15{fill:#1D1D22;}
	.st16{fill:#F2F2F2;}
	.st17{fill:#E5E6E6;}
</style>
<g>
	<path class="st0" d="M26.84,13.67c-0.25,7.75-5.69,13.15-13,13.31C5.55,27.16-0.11,20.53,0,13.56C0.14,5.39,5.82,0.1,12.47,0
		C20.93-0.12,26.91,5.79,26.84,13.67z"/>
	<path class="st1" d="M13.55,25.28c-6.35,0-11.9-5.48-11.87-11.72C1.72,6.91,6.93,1.57,13.36,1.6c6.51,0.03,11.79,5.5,11.77,12.17
		C25.11,20.06,19.86,25.28,13.55,25.28z"/>
	<path class="st2" d="M22.34,13.12c0.88,0.08,0.69-0.83,1.1-1.19c0.89,1.69,0.16,5.31-1.3,6.5c-0.38-0.19-0.74-0.18-1.1,0.09
		c-1.2,0.88-2.5,1.62-3.56,2.68c-0.42,0.46-1.06,0.87-0.39,1.6c-0.56,0.54-1.09,1.16-1.99,0.63c0.09-0.47-1.01-0.06-0.58-0.78
		c0.12-0.01,0.24-0.02,0.36-0.01c-0.11-0.04-0.22-0.03-0.33-0.03c-0.55-0.02-1.11-0.08-1.66-0.01c-0.74,0.09-1.04-0.21-1.22-0.93
		c-0.36-1.39-0.41-1.38,0.94-2.05c0.14-0.07,0.28-0.14,0.31-0.32c0.23-0.5,0.66-0.66,1.16-0.72c0.34,0.25,0.44-0.29,0.73-0.23
		c0.12,0.02,0.23,0.05,0.34,0.11c2.46,1.45,3.68,1.21,5.53-1.12c0.06-0.15,0.14-0.28,0.19-0.43c0.73-2.01-0.23-3.64-2.34-4
		c-0.44-0.07-0.76,0.17-1.09,0.37c-0.58,0.34-1.1,0.77-1.66,1.13c-0.1,0.05-0.21,0.07-0.33,0.07c-0.86-0.1-1.18-1.14-2.08-1.18
		c-0.47-0.14-0.99-0.22-1.16-0.8c-0.18-1.09,0.5-2.06,0.46-3.13c0.02-0.37,0.02-0.75,0.26-1.07c0.9-0.49,1.88-0.24,2.82-0.24
		c0.62,0,1.17-0.1,1.66-0.48c0.57,0.25,0.39,0.81,0.48,1.24c0.34,1.63,0.77,3.16,2.5,3.97C21.06,13.09,21.67,13.12,22.34,13.12z"/>
	<path class="st3" d="M22.34,13.12c-0.39,0.47-0.74,0.53-1.4,0.27c-2.68-1.06-3.38-3.2-3.42-5.77c-0.12-0.42,0.18-0.56,0.45-0.73
		c1.11-1.47,1.44-1.5,2.77-0.15c1.21,1.23,1.87,2.74,2.23,4.39C23.15,11.91,22.64,12.48,22.34,13.12z"/>
	<path class="st4" d="M12.29,3.79c1.44-0.77,4.55-0.21,5.7,0.96c0.76,0.77-0.04,1.29-0.19,1.92c-0.37,1.1-1.14,1.39-2.28,1.47
		c-1.82,0.12-3.19-0.37-4.11-1.98c-0.3-0.52-0.46-1.01-0.15-1.57C11.51,4.2,11.85,3.93,12.29,3.79z"/>
	<path class="st5" d="M5.78,19.87c-0.18-0.26-0.36-0.52-0.54-0.77c-0.43-1.26-1.08-2.43-1.38-3.74c-0.04-0.16-0.18-0.08-0.28-0.04
		c-0.62-1.21-0.3-2.41,0.02-3.62c0.46,0.35,0.2,0.91,0.45,1.45c0.5-0.42,0.9-0.87,1.23-1.39c0.36-0.49,0.24-1.27,0.92-1.57
		c0.18,0.03,0.32,0.13,0.42,0.28c0.3,1.41,1.22,2.28,2.51,2.81c0.08,0.08,0.13,0.18,0.14,0.3c-0.01,0.18-0.11,0.31-0.26,0.41
		c-1.02,0.46-1.1,1.46-1.14,2.33c-0.04,0.94-0.3,1.5-1.26,1.66c-0.21,0.04-0.48,0.12-0.47,0.44C6.09,18.92,6.2,19.46,5.78,19.87z"/>
	<path class="st6" d="M5.78,19.87c0.06-0.56-0.29-1.19,0.31-1.65c0.31-0.29,0.67-0.43,1.09-0.42c1.5,0.77,2.75,1.91,4.17,2.81
		c0.33,0.72,0.89,1.45-0.08,2.12C8.77,23.08,7.26,21.5,5.78,19.87z"/>
	<path class="st5" d="M12.29,3.79c-0.24,0.24-0.49,0.48-0.73,0.72C10.59,5.98,8.8,6.21,7.54,7.23C7.05,7.23,6.68,6.6,6.13,6.98
		C6.02,7.01,5.92,6.99,5.82,6.95c-0.28-0.4-0.03-0.64,0.23-0.92c1.56-1.59,3.46-2.49,5.61-2.97C12.44,2.9,12.25,3.42,12.29,3.79z"/>
	<path class="st7" d="M5.82,6.95c0.07-0.01,0.14-0.02,0.22-0.04c0.69,1.03,0.09,2.07-0.05,3.08c-0.09,0.64-0.33,1.28-0.49,1.93
		c-0.08,0.13-0.14,0.3-0.26,0.39c-0.51,0.41-0.78,1.49-1.34,1.3c-0.79-0.27-0.14-1.26-0.3-1.91C4.01,9.96,4.72,8.36,5.82,6.95z"/>
	<path class="st8" d="M11.28,22.72c0.57-0.78,0.3-1.47-0.2-2.15c-1.31-0.82-2.39-1.98-3.83-2.6c-0.39,0.08-0.77,0.17-1.16,0.25
		c-0.1-0.08-0.17-0.24-0.04-0.27c1.55-0.27,1.5-1.5,1.69-2.65c0.1-0.63,0.23-1.42,1.19-1.4c-0.07,0.82-0.51,1.55-0.45,2.43
		c0.1,1.55,1.92,3.2,3.48,3.03c0.34-0.04,0.69-0.26,1.02,0.03c0.48,0.59-0.25,0.39-0.39,0.54c-0.25,0.27-0.92,0.12-0.93,0.6
		c-0.01,0.57,0.41,1.09,0.45,1.7c0.01,0.21,0.34,0.07,0.52,0.06c0.95-0.09,1.87,0.07,2.97,0.39c-0.54,0.05-0.89,0.08-1.24,0.11
		c-0.92,0.39-1.85,0.59-2.81,0.18C11.46,22.88,11.37,22.8,11.28,22.72z"/>
	<path class="st9" d="M7.42,7.22c0.89-0.76,1.68-1.7,2.96-1.76c0.67-0.03,0.32-1.22,1.18-0.94c-0.38,0.58-0.18,1.01,0.16,1.59
		c1.14,1.99,2.89,1.98,4.79,1.7c0.69-0.1,0.83-0.79,1.29-1.14c0.06,0.07,0.12,0.14,0.18,0.22c-0.15,0.24-0.3,0.49-0.45,0.73
		c-0.31,0.59-0.74,0.81-1.46,0.75c-1.05-0.09-2.11,0-3.17,0.01c-0.71-0.35-0.99-1.12-1.52-1.64c-0.63-0.62-1.19-0.65-1.92-0.24
		C8.29,7.14,7.62,8.12,7.19,9.33c-0.15,0.43-0.12,0.99-0.7,1.17c-0.09-0.11-0.18-0.21-0.27-0.32C6.01,8.95,6.54,8.01,7.42,7.22z"/>
	<path class="st10" d="M17.28,21.03c1.21-1.28,2.77-2.09,4.17-3.11c0.54-0.4,0.67,0.05,0.68,0.51c-0.66,1.01-1.31,2.02-2.35,2.7
		C18.95,21.26,18.08,21.9,17.28,21.03z"/>
	<path class="st11" d="M17.28,21.03c0.84,0.03,1.67,0.06,2.51,0.1c-0.11,0.13-0.22,0.26-0.33,0.39c-0.35,0.67-1.04,0.77-1.66,0.99
		c-0.24,0.1-0.48,0.19-0.71,0.29c-0.78-0.02-1.2-0.21-0.5-0.98C16.82,21.55,17.05,21.29,17.28,21.03z"/>
	<path class="st12" d="M3.59,15.31c0.06-0.31-0.1-0.64,0.33-1.16c0.06,1.89,1.24,3.24,1.32,4.95C4.28,18.01,4.01,16.63,3.59,15.31z"
		/>
	<path class="st13" d="M11.55,22.96c0.94-0.06,1.88-0.12,2.81-0.18c0.27,0.06,0.53,0.12,0.8,0.18c0.14,0.03,0.37,0,0.31,0.22
		c-0.03,0.11-0.25,0.16-0.39,0.24c-0.91,0.01-1.81,0.06-2.72,0.02C12.07,23.43,11.55,23.58,11.55,22.96z"/>
	<path class="st2" d="M17.8,22.5c0.55-0.33,1.11-0.66,1.66-0.99C19.29,22.49,18.67,22.71,17.8,22.5z"/>
	<path class="st4" d="M12.98,19.38c-1.67,0.48-3.39-0.08-4.48-1.48c-0.66-0.84-0.46-2.73,0.43-4c0.08-0.07,0.17-0.13,0.25-0.2
		c0.89-0.71,1.76-1.46,3.02-1.24c0.42,0.24,0.84,0.48,1.25,0.72c1.39,0.55,1.76,1.13,1.56,2.56c-0.14,0.99,0,2.08-0.86,2.86
		C13.77,18.86,13.37,19.12,12.98,19.38z"/>
	<path class="st4" d="M6.49,10.5C7.1,8.98,7.4,7.29,9.06,6.4c1.55-0.82,1.62-0.84,2.78,0.44c0.42,0.47,0.82,0.95,1.05,1.54
		c0.03,0.37,0.05,0.74,0.08,1.1c-0.09,0.18-0.2,0.35-0.22,0.54c-0.29,2.1-1.82,2.85-3.6,3.34C7.81,13.33,6.52,11.94,6.49,10.5z"/>
	<path class="st4" d="M15.62,14.33c0.14-0.14,0.27-0.29,0.42-0.41c2-1.66,3.25-1.61,5.13,0.22c0.5,0.48,0.35,2.26-0.28,3.32
		c-0.81,0.58-1.58,1.21-2.41,1.74c-1,0.64-2.8,0.11-3.02-1.01C15.2,16.92,15.06,15.59,15.62,14.33z"/>
	<path class="st14" d="M15.62,14.33c0.01,1.03,0.06,2.06,0.01,3.09c-0.03,0.68,0.23,1.03,0.78,1.43c0.91,0.66,1.6,0.53,2.42-0.14
		c0.62-0.5,1.14-1.25,2.07-1.26c-1.54,2.65-3.81,2.98-6.19,0.92c0.03-1.37,0.08-2.73,0.71-4C15.48,14.35,15.55,14.33,15.62,14.33z"
		/>
	<path class="st8" d="M9.15,13.37c0.22-0.16,0.42-0.38,0.67-0.47c1.47-0.52,2.55-1.37,2.75-3.04c0.03-0.21,0.19-0.34,0.4-0.38
		c-0.09,1.04-0.38,2.02-0.77,2.98c-1.01,0.41-2.02,0.82-3.02,1.24C9.17,13.59,9.16,13.48,9.15,13.37z"/>
	<path class="st15" d="M15.41,14.38c-0.24,1.33-0.47,2.66-0.71,4c-0.14,0.18-0.18,0.6-0.55,0.23c0.47-1.19,0.53-2.46,0.67-3.7
		c0.11-0.97-0.94-1.13-1.38-1.72c0.23-0.37,0.45-0.19,0.66,0.01C14.55,13.58,14.98,13.98,15.41,14.38z"/>
	<path class="st16" d="M7.42,7.22c-0.51,0.94-0.99,1.89-1.2,2.96c-0.41,0.51-0.16,1.29-0.72,1.74c-0.03-1.69,0.66-3.3,0.53-5.01
		C6.75,5.88,7.06,6.68,7.42,7.22z"/>
	<path class="st17" d="M7.25,17.97c0.44-0.17,0.76,0.06,1.05,0.33c0.87,0.82,2.05,1.28,2.78,2.28C9.63,19.95,8.48,18.91,7.25,17.97z
		"/>
</g>
</svg>
