<?xml version="1.0" encoding="utf-8"?>
<!-- Generator: Adobe Illustrator 23.0.2, SVG Export Plug-In . SVG Version: 6.00 Build 0)  -->
<svg version="1.1" id="Camada_1" xmlns="http://www.w3.org/2000/svg" xmlns:xlink="http://www.w3.org/1999/xlink" x="0px" y="0px"
	 viewBox="0 0 27.87 27.87" style="enable-background:new 0 0 27.87 27.87;" xml:space="preserve">
<style type="text/css">
	.st0{fill:#0F0D10;}
	.st1{fill:#FBFBFB;}
	.st2{fill:#2B2C33;}
	.st3{fill:#FDFDFD;}
	.st4{fill:#2C2D34;}
	.st5{fill:#AFAFAF;}
	.st6{fill:#2D2E34;}
	.st7{fill:#1B1C21;}
	.st8{fill:#F9F9F9;}
	.st9{fill:#1C1D24;}
	.st10{fill:#F2F2F2;}
	.st11{fill:#B3B3B2;}
	.st12{fill:#25262B;}
	.st13{fill:#BDBDBC;}
	.st14{fill:#BABAB9;}
	.st15{fill:#1F1F25;}
	.st16{fill:#28292F;}
	.st17{fill:#C4C4C2;}
	.st18{fill:#333335;}
	.st19{fill:#FCFCFC;}
	.st20{fill:#333338;}
	.st21{fill:#E6E6E6;}
	.st22{fill:#BABABA;}
	.st23{fill:#1E1F23;}
	.st24{fill:#232329;}
	.st25{fill:#E4E4E4;}
	.st26{fill:#2F2F31;}
	.st27{fill:#24252A;}
	.st28{fill:#15151A;}
</style>
<g>
	<path class="st0" d="M25.59,14.05c-0.01,6.34-5.28,11.56-11.66,11.54C7.65,25.57,2.13,20.1,2.14,13.91
		c0.01-6.65,5.21-12.01,11.64-12C20.29,1.93,25.6,7.38,25.59,14.05z"/>
	<path class="st1" d="M18.44,7.2c1.11-1.48,1.44-1.5,2.77-0.16c1.21,1.22,1.87,2.73,2.23,4.39c0.17,0.78-0.31,1.36-0.65,1.98
		c-0.19,0.53-0.52,0.82-1.12,0.7c-0.88-0.45-1.77-0.9-2.58-1.48c-0.25-0.26-0.43-0.58-0.6-0.9c-0.42-0.83-0.57-1.74-0.83-2.62
		C17.42,8.29,17.65,7.62,18.44,7.2z"/>
	<path class="st2" d="M4.05,15.63c-0.61-1.21-0.3-2.41,0.02-3.62c0.46,0.35,0.21,0.9,0.44,1.46c0.5-0.42,0.91-0.87,1.24-1.39
		c0.36-0.49,0.25-1.26,0.91-1.57c0.18,0.02,0.32,0.12,0.42,0.27c0.19,1.25,1.12,1.97,1.97,2.76c0.22,0.19,0.44,0.38,0.46,0.71
		c-0.02,0.32-0.2,0.6-0.31,0.89c-0.59,1.54-0.22,2.84,0.96,3.94c0.01,0.2-0.1,0.32-0.26,0.41c-0.88,0.09-1.29-0.96-2.16-0.9
		c-0.4,0.04-0.79,0.1-1.06,0.44c-0.21,0.36-0.05,0.86-0.42,1.15c-0.18-0.25-0.36-0.51-0.54-0.76c-0.41-1.3-1.14-2.49-1.46-3.83
		C4.25,15.54,4.12,15.57,4.05,15.63z"/>
	<path class="st3" d="M12.76,4.11c1.29-0.82,2.59-0.31,3.88-0.01c0.45,0.11,0.88,0.34,1.32,0.51c0.74,0.2,1.06,0.64,0.81,1.41
		c-0.17,0.32-0.34,0.65-0.51,0.97c-0.36,1.16-1.18,1.46-2.35,1.55c-1.85,0.15-3.13-0.52-4.05-2.07c-0.3-0.51-0.45-1.01-0.14-1.56
		C11.97,4.51,12.31,4.24,12.76,4.11z"/>
	<path class="st4" d="M17.05,23.77c-0.42,0.07-0.84,0.33-1.25-0.03c-0.18-0.29-0.74-0.18-0.7-0.69c-0.59-0.22-1.21-0.23-1.8-0.11
		c-1.16,0.22-1.01-0.73-1.27-1.33c-0.28-0.65-0.16-1.14,0.52-1.48c0.29-0.14,0.75-0.04,0.84-0.52c0.21-0.51,0.65-0.65,1.14-0.72
		c0.36,0.32,0.39-0.29,0.66-0.23c0.58,0.08,0.94,0.49,1.28,0.92c0.12,0.11-0.05-0.01,0.07,0.1c1.27,1.12,1.27,1.12,0.45,2.6
		c-0.06,0.24-0.08,0.49-0.04,0.73C16.94,23.26,17.2,23.49,17.05,23.77z"/>
	<path class="st5" d="M6.43,18.7c0.4-0.22,0.81-0.43,1.29-0.41c0.81,0.29,1.37,1,2.17,1.3c0.68,0.42,1.24,1,1.96,1.36
		c0.3,0.71,0.88,1.44-0.1,2.09c-1.94,0.38-3.27-0.69-4.55-1.89c-0.36-0.67-1.18-1.25-0.42-2.14C6.64,18.92,6.5,18.85,6.43,18.7z"/>
	<path class="st6" d="M12.76,4.11c-0.24,0.24-0.49,0.48-0.73,0.72C11,6.26,9.26,6.6,7.92,7.55C7.49,7.45,7.35,7.17,7.4,6.77
		C7.04,5.8,7.03,5.78,8.18,4.97c1.15-0.82,2.49-1.19,3.83-1.56C12.71,3.22,12.78,3.59,12.76,4.11z"/>
	<path class="st7" d="M7.88,7.54c0.89-0.76,1.68-1.7,2.96-1.76c0.67-0.03,0.32-1.22,1.18-0.94c-0.38,0.58-0.17,1.01,0.16,1.59
		c1.14,1.99,2.89,1.98,4.79,1.7c0.69-0.1,0.83-0.79,1.29-1.14c0.06,0.07,0.12,0.15,0.18,0.22c-0.91,1.02-0.41,2.1-0.11,3.16
		c0.13,0.46,0.28,0.91,0.42,1.37c0.19,0.63-0.06,0.72-0.48,0.32c-0.48-0.45-0.65-1.09-0.77-1.71c-0.19-1.07-0.81-1.44-1.84-1.36
		C15,9.03,14.32,9.03,13.65,8.92c-0.89-0.27-1.14-1.19-1.72-1.77c-0.69-0.69-1.3-0.76-2.12-0.28c-1.1,0.65-1.72,1.62-2.15,2.78
		c-0.16,0.42-0.13,0.99-0.71,1.17c-0.09-0.11-0.18-0.22-0.26-0.32C6.48,9.26,7,8.33,7.88,7.54z"/>
	<path class="st5" d="M5.97,12.23c-0.08,0.13-0.14,0.3-0.26,0.39c-0.51,0.41-0.78,1.5-1.34,1.31c-0.79-0.27-0.14-1.26-0.3-1.91
		c0.46-1.78,1.08-3.47,2.42-4.81c0.73,1.08,0.05,2.14-0.08,3.19C6.33,11.01,6.11,11.61,5.97,12.23z"/>
	<path class="st4" d="M22.82,13.75c0.56-0.36,0.84-0.91,1.05-1.64c0.56,0.72,0.34,1.44,0.39,2.1c0.08,1.17-0.31,2.25-0.65,3.34
		c-0.09,0.31-0.08,0.99-0.79,0.72C21.65,17.29,21.65,14.91,22.82,13.75z"/>
	<path class="st8" d="M22.62,18.5c-0.49,1.22-1.31,2.18-2.37,2.94c-0.81,0.36-1.64,0.4-2.49,0.15c-0.17-0.68,0.33-0.99,0.74-1.36
		c0.97-0.59,1.83-1.34,2.79-1.94C21.77,18.13,22.33,17.42,22.62,18.5z"/>
	<path class="st9" d="M11.74,23.04c0.57-0.78,0.3-1.48-0.2-2.15c-0.55-0.43-1.21-0.72-1.63-1.32c-0.01-0.05-0.03-0.1-0.04-0.16
		c0.08-0.07,0.17-0.14,0.25-0.21c1.08,0.34,2.18,0.54,3.32,0.49c0.09,0.34,0.07,0.31-0.27,0.52c-0.36,0.22-1.03,0.11-1.04,0.64
		c-0.01,0.57,0.4,1.1,0.45,1.71c0.02,0.22,0.31,0.14,0.51,0.09c0.96-0.25,1.86,0.06,3.01,0.29c-0.5,0.07-0.76,0.11-1.03,0.15
		c-1,0.4-2.01,0.51-3.05,0.15C11.92,23.18,11.83,23.11,11.74,23.04z"/>
	<path class="st10" d="M5.97,12.23c-0.05-1.27,0.39-2.47,0.49-3.71C6.49,8.08,6.48,7.64,6.49,7.2C6.67,6.79,6.97,6.64,7.4,6.77
		c0.16,0.26,0.32,0.51,0.48,0.77C7.37,8.48,6.89,9.43,6.69,10.5C6.28,11,6.53,11.78,5.97,12.23z"/>
	<path class="st11" d="M17.74,21.33c0.84,0.03,1.67,0.07,2.51,0.1c0,0.07-0.02,0.14-0.07,0.19c-0.94,0.9-1.82,1.96-3.37,1.43
		c-0.25-0.23-0.07-0.49-0.03-0.73C16.86,21.77,17.2,21.45,17.74,21.33z"/>
	<path class="st12" d="M22.62,18.5c-0.41-0.94-0.82-0.03-1.22,0.01c-0.23,0.13-0.3-0.03-0.35-0.2c-0.01-0.24,0.06-0.46,0.13-0.68
		c0.52-1.17,0.56-2.36,0.12-3.56c0.1-0.18,0.23-0.26,0.43-0.17c0.51,0.19,0.73-0.29,1.07-0.48c0.01,0.11,0.02,0.23,0.02,0.34
		c-0.67,1.5-0.8,3.01,0,4.51C22.75,18.34,22.68,18.42,22.62,18.5z"/>
	<path class="st13" d="M12.01,23.25c1.01-0.16,2.03-0.21,3.05-0.15c0.13,0.35,1.07-0.25,0.73,0.63c-1.02,0.02-2.03,0.23-3.05,0.05
		C12.46,23.73,11.9,23.92,12.01,23.25z"/>
	<path class="st14" d="M4.05,15.63c0.06-0.31-0.11-0.64,0.33-1.17c0.07,1.89,1.23,3.25,1.34,4.95C4.8,18.31,4.44,16.96,4.05,15.63z"
		/>
	<path class="st15" d="M16.81,23.06c1.38,0.14,2.28-0.88,3.37-1.43c0.2,0.37,0.02,0.54-0.29,0.74c-0.89,0.58-1.74,1.25-2.84,1.39
		C17.06,23.5,16.53,23.42,16.81,23.06z"/>
	<path class="st16" d="M18.77,6.02c0.17-0.72-0.5-0.96-0.81-1.41c0.96-0.55,1.25,0.45,1.89,0.76C19.37,5.46,18.92,5.49,18.77,6.02z"
		/>
	<path class="st17" d="M6.43,18.7c0.11,0.04,0.31,0.1,0.31,0.12c-0.17,0.84,0.23,1.57,0.45,2.33c-0.31-0.32-0.62-0.65-0.93-0.97
		C6.3,19.68,6.05,19.16,6.43,18.7z"/>
	<path class="st4" d="M13.36,8.7c0.96-0.01,1.92,0.04,2.88-0.06c0.92-0.09,1.34,0.33,1.48,1.15c0.13,0.75,0.32,1.5,0.76,2.12
		c0.26,0.37,0.19-0.11,0.28-0.19c0.16,0.24,0.32,0.49,0.48,0.73c0.1,0.19,0.01,0.32-0.12,0.44c-1.08,0.45-1.94,1.25-2.93,1.83
		c-0.11,0.03-0.21,0.04-0.33,0.03c-0.82-0.14-1.15-1.14-2.03-1.18c-0.47-0.14-0.98-0.22-1.15-0.8c-0.17-1.07,0.47-2.02,0.46-3.07
		C13.16,9.37,13.13,9.01,13.36,8.7z"/>
	<path class="st18" d="M18.88,12.8c0.12-0.11,0.24-0.23,0.35-0.34c0.83,0.48,1.66,0.95,2.49,1.43c-0.12,0.1-0.23,0.19-0.35,0.29
		C20.28,14.2,19.54,13.57,18.88,12.8z"/>
	<path class="st19" d="M12.66,12.78c0.42,0.24,0.84,0.47,1.26,0.71c1.23,0.49,1.67,1.08,1.66,2.19c-0.32,1.08,0.03,2.35-0.95,3.23
		c-0.39,0.26-0.79,0.52-1.18,0.78c-1.23,0.67-2.3,0.25-3.32-0.49c-1.83-1.62-2.04-3.09-0.73-4.99c0.51-0.86,1.54-0.87,2.27-1.38
		C11.99,12.73,12.32,12.6,12.66,12.78z"/>
	<path class="st3" d="M13.36,8.7c0.02,0.37,0.05,0.73,0.07,1.1c-0.19,0.4-0.35,0.81-0.44,1.23c-0.21,0.91-0.68,1.6-1.59,1.93
		c-0.81,0.32-1.51,1.03-2.5,0.79c-0.81-0.87-2.1-1.43-1.96-2.94c0.61-1.52,0.91-3.21,2.58-4.1c1.55-0.82,1.62-0.84,2.78,0.44
		C12.73,7.62,13.13,8.1,13.36,8.7z"/>
	<path class="st20" d="M8.91,13.75c0.91-0.06,1.53-0.82,2.39-1c0.15,0.12,0.4,0.02,0.51,0.24c-0.8,0.41-1.61,0.82-2.41,1.23
		C9.23,14.06,9.07,13.91,8.91,13.75z"/>
	<path class="st21" d="M9.85,19.71c-0.82-0.31-1.52-0.8-2.14-1.42c1.01-0.19,1.38,0.86,2.16,1.12l-0.03,0.08
		c0.08,0.04,0.1,0.09,0.08,0.14C9.9,19.68,9.88,19.71,9.85,19.71z"/>
	<path class="st22" d="M15.88,14.69c0.07-0.02,0.14-0.04,0.21-0.05c0.54,0.62,0.29,1.37,0.32,2.06c0.04,0.91-0.11,1.83,0.97,2.36
		c1.01,0.49,1.53-0.3,2.22-0.7c0.54-0.31,0.95-1.07,1.77-0.59c0.09,0.24-0.13,0.36-0.21,0.53c-0.77,0.9-1.79,1.47-2.79,2.06
		c-0.79,0.16-1.47,0.01-1.96-0.69c-0.41-0.33-0.82-0.65-1.22-0.98c-0.22-0.82,0.23-1.59,0.21-2.4
		C15.48,15.73,15.53,15.16,15.88,14.69z"/>
	<path class="st23" d="M16.4,19.66c0.6,0.54,1.34,0.52,2.07,0.5c0.26-0.12,0.29,0.02,0.26,0.23c-0.33,0.32-0.66,0.63-0.99,0.95
		c-0.32,0.33-0.64,0.66-0.96,0.99c-0.38-0.86,0.96-0.93,0.77-1.58C17.4,20.25,16.36,20.5,16.4,19.66z"/>
	<path class="st24" d="M15.58,16.32c-0.13,0.79-0.27,1.57-0.4,2.36c-0.14,0.19-0.18,0.61-0.55,0.23c0.47-1.08,0.38-2.27,0.71-3.38
		C15.64,15.73,15.39,16.09,15.58,16.32z"/>
	<path class="st25" d="M9.85,19.71c0-0.07-0.01-0.14-0.01-0.21c0.58,0.45,1.34,0.68,1.7,1.39C10.81,20.74,10.28,20.29,9.85,19.71z"
		/>
	<path class="st26" d="M18.73,20.39c-0.09-0.08-0.17-0.15-0.26-0.23c0.89-0.62,1.78-1.24,2.68-1.87c0.08,0.07,0.16,0.14,0.25,0.21
		C20.5,19.13,19.62,19.76,18.73,20.39z"/>
	<path class="st3" d="M21.36,17.77c-1.08,0.08-1.64,1.02-2.48,1.52c-0.46,0.27-0.85,0.64-1.38,0.22c-0.58-0.45-1.52-0.53-1.42-1.65
		c0.1-1.06,0.01-2.14,0-3.21c0.79-0.82,1.68-1.5,2.79-1.84c0.83,0.46,1.66,0.92,2.5,1.38C22.13,14.94,22.13,16.5,21.36,17.77z"/>
	<path class="st27" d="M11.81,12.99c-0.17-0.08-0.34-0.16-0.51-0.24c0.83-0.38,1.35-0.98,1.53-1.91c0.07-0.37,0.06-0.9,0.6-1.05
		c-0.09,1.04-0.37,2.02-0.78,2.98C12.38,12.85,12.09,12.92,11.81,12.99z"/>
	<path class="st28" d="M15.58,16.32c-0.25-0.21-0.16-0.53-0.24-0.79c0.19-1.14-0.86-1.42-1.41-2.04c0.4-0.5,0.6,0,0.83,0.18
		c0.39,0.32,0.75,0.67,1.13,1.01C15.78,15.23,15.68,15.78,15.58,16.32z"/>
</g>
</svg>
