<?xml version="1.0" encoding="utf-8"?>
<!-- Generator: Adobe Illustrator 23.0.2, SVG Export Plug-In . SVG Version: 6.00 Build 0)  -->
<svg version="1.1" id="Camada_1" xmlns="http://www.w3.org/2000/svg" xmlns:xlink="http://www.w3.org/1999/xlink" x="0px" y="0px"
	 viewBox="0 0 30.72 30.48" style="enable-background:new 0 0 30.72 30.48;" xml:space="preserve">
<style type="text/css">
	.st0{fill:#FEFEFE;}
	.st1{fill:#100D10;}
	.st2{fill:#F56307;}
	.st3{fill:#FC6903;}
	.st4{fill:#EB5C10;}
	.st5{fill:#A24C00;}
	.st6{fill:#4C180C;}
	.st7{fill:#6A351A;}
	.st8{fill:#644334;}
	.st9{fill:#4F342E;}
	.st10{fill:#0D0508;}
	.st11{fill:#A14C02;}
	.st12{fill:#604036;}
	.st13{fill:#3D1E16;}
	.st14{fill:#FE7712;}
	.st15{fill:#694029;}
	.st16{fill:#411F17;}
	.st17{fill:#FE7B18;}
	.st18{fill:#9B4803;}
	.st19{fill:#FA6804;}
	.st20{fill:#A34D00;}
	.st21{fill:#57281D;}
	.st22{fill:#FE8322;}
	.st23{fill:#FD7713;}
	.st24{fill:#FE9032;}
</style>
<g>
	<path class="st0" d="M15.65,30.76c-4.8,0-9.6-0.03-14.4,0.03c-0.97,0.01-1.07-0.29-1.07-1.14c0.03-9.52,0.04-19.04-0.01-28.56
		c0-0.96,0.29-1.07,1.14-1.07c9.6,0.03,19.2,0.04,28.8-0.01c0.96,0,1.07,0.29,1.07,1.14c-0.03,9.52-0.04,19.04,0.01,28.56
		c0,0.96-0.29,1.08-1.14,1.07C25.25,30.74,20.45,30.76,15.65,30.76z"/>
	<path class="st1" d="M28.74,15.6c0,7.2-5.83,13.08-13,13.11c-7.21,0.03-13.13-5.89-13.1-13.13C2.65,8.45,8.49,2.56,15.57,2.52
		C22.8,2.49,28.74,8.39,28.74,15.6z"/>
	<path class="st2" d="M24.21,10.6c0.21-0.38,0.43-0.75,0.74-1.31c0.9,1.31,1.5,2.62,1.66,4.13c0.18,0.66,0.08,1.31,0.06,2.22
		c-0.81-0.72-0.53-1.54-0.91-2.26c-0.24,1.6-0.6,3.05-1.23,4.45c-0.67,1.49-2.01,2.35-3.14,3.53c0.56,0.17,1.32-0.65,1.63,0.33
		c-1.32,1.08-3,1.17-4.54,1.64c-0.55,0.05-1.08,0.24-1.63,0.29c-1.06,0.07-2.07-0.16-3.03-0.55c-0.85-0.34-0.89-0.65-0.22-1.27
		c1.43-1.33,3.06-2.42,4.4-3.86c0.33-0.35,0.71-0.65,0.89-1.11c0.63-1.1,1.71-1.8,2.49-2.77C22.3,12.89,23.2,11.7,24.21,10.6z"/>
	<path class="st3" d="M6.91,8.7c2.37-3.04,5.53-4.38,9.34-4.32c0.17,0.71-0.53,0.9-0.79,1.35c-0.49,0.44-0.65,1.2-1.36,1.43
		c-4.2,0.94-5.95,5.7-3.35,9.13c0.12,0.16,0.25,0.31,0.33,0.5c0.1,0.67-0.33,1.15-0.62,1.67c-0.15,0.23-0.3,0.46-0.5,0.65
		c-0.69,0.7-0.98,0.68-1.53-0.14c-0.22-0.32-0.46-0.63-0.7-0.94C6.26,15.01,6.3,11.88,6.91,8.7z"/>
	<path class="st3" d="M16.74,4.53c3.16,0.11,5.57,1.67,7.62,3.95c0.33,0.36,0.19,0.62-0.02,0.94c-0.24,0.37-0.44,0.75-0.66,1.13
		c-0.37,0.99-0.76,1.96-1.92,2.28c-0.54-0.24-0.65-0.75-0.8-1.25C20.3,9.4,18.86,8,16.66,7.41c-0.7-0.19-1.3-0.41-1.26-1.29
		c0-0.12,0.01-0.23,0.04-0.34C15.77,5.25,16.08,4.71,16.74,4.53z"/>
	<path class="st4" d="M23,21.62c-0.62-0.47-1.1,0.18-1.66,0.22c-0.23,0.02-0.5,0.12-0.61-0.18c-0.08-0.23,0.13-0.35,0.29-0.46
		c2.83-1.93,4.26-4.62,4.39-8.02c0.01-0.23-0.02-0.53,0.31-0.53c0.21,0,0.32,0.21,0.37,0.41c0.17,0.69,0.32,1.38,0.53,2.08
		c0-0.57,0-1.14,0-1.72c0.73,3.41,0.03,6.47-2.2,9.16c-1.4,0.88-2.99,1.18-4.58,1.49c-0.42,0.08-0.88,0.07-1.19-0.33
		c-0.06-0.21,0.03-0.36,0.17-0.5c1.86-0.47,3.71-0.97,5.44-1.91C23.82,21.44,23.51,22.01,23,21.62z"/>
	<path class="st5" d="M5.06,19.24c-1.14-3.26-0.72-6.38,0.89-9.38c0.73,0.17,0.56,0.78,0.57,1.25c0.04,1.47,0.04,2.93,0.35,4.39
		c0.19,0.92,0.67,1.7,0.94,2.57c0.21,0.34,0.43,0.68,0.61,1.03c0.5,1.01,0.26,1.46-0.87,1.6C6.57,20.81,5.57,20.23,5.06,19.24z"/>
	<path class="st5" d="M18.67,23.55c0.93,0.59,1.81,0.04,2.7-0.13c1.04-0.19,1.97-0.78,3.05-0.83c-0.01,0.08-0.03,0.17-0.04,0.25
		c-1.4,2.15-3.52,3.22-5.91,3.83c-0.63,0.16-1.3,0.43-1.96,0.01c-0.39-0.18-0.81-0.31-1.2-0.49c-0.07-0.03-0.15-0.06-0.21-0.11
		c-0.44-0.31-1.13-0.47-1.04-1.15c0.08-0.6,0.73-0.7,1.21-0.81C16.38,23.84,17.42,23.03,18.67,23.55z"/>
	<path class="st6" d="M18.67,23.55c-1.6,0.05-3,0.79-4.59,1.29c0.43,0.6,0.93,0.87,1.45,1.13c-0.45,0.44-0.45,0.45-1.07,0.16
		c-0.42-0.2-0.81-0.53-1.34-0.21c0.76,0.62,2.26,0.84,3.4,0.52c1.26,0.46,2.42-0.02,3.55-0.47c1.69-0.69,3.04-1.86,4.31-3.13
		c0.39,0.42-0.03,0.66-0.24,0.87c-2.05,2.04-4.51,3.19-7.4,3.46c-3.8,0.36-6.94-1.02-9.61-3.59c-0.88-0.85-1.59-1.89-1.87-3.14
		c0.1-0.08,0.2-0.09,0.31-0.05c0.78,0.5,0.96,1.45,1.56,2.09c0.35,0.37,0.64,0.88,1.22,0.88c0.61,0,1.26-0.19,1.61-0.65
		c0.33-0.43-0.37-0.69-0.52-1.08C9.36,21.4,9.2,21.21,9.2,20.96c0.66-0.74,0.91,0.07,1.18,0.38c0.44,0.5,0.84,0.81,1.48,0.35
		c0.2-0.11,0.41-0.21,0.65-0.17c0.26,0.1,0.33,0.3,0.29,0.56c-0.04,0.47-1.01,0.65-0.45,1.28c0.49,0.55,1.1,0.97,1.9,0.59
		c0.81-0.38,1.67-0.48,2.53-0.59c0.55-0.1,1.1-0.2,1.65-0.31c0.15,0.16,0.45,0.04,0.56,0.29C18.88,23.42,18.78,23.49,18.67,23.55z"
		/>
	<path class="st7" d="M11.96,21.88c-0.66,0.72-1.18,0.52-1.69-0.21c-0.23-0.32-0.34-0.89-0.96-0.74c-1.32,0.25-2.66,0.57-3.81-0.5
		c-0.08,0-0.16,0-0.25,0.01c-0.13-0.39-0.82-0.69-0.2-1.21c0.77,0.63,1.5,1.36,2.62,1.14c0.55-0.11,1.17-0.25,0.51-1.04
		c-0.25-0.3-0.35-0.71-0.52-1.07c0.1-0.17,0.32-0.09,0.43-0.23c0.09,0.08,0.19,0.14,0.26,0.24c0.9,1.3,0.9,1.3,1.9,0
		c0.3-0.15,0.58-0.39,0.96-0.29c0.39,0.65-0.05,1.16-0.39,1.57c-0.59,0.69-0.49,1.14,0.25,1.57C11.42,21.32,11.78,21.51,11.96,21.88
		z"/>
	<path class="st8" d="M8.11,18.04c-0.08,0.19-0.25,0.23-0.43,0.23c-1.16-2.38-1.68-4.88-1.49-7.53c0.02-0.31,0.1-0.65-0.23-0.88
		C6.27,9.47,6.59,9.08,6.91,8.7c0.07,2.27-0.22,4.54,0.25,6.81C7.35,16.42,7.82,17.18,8.11,18.04z"/>
	<path class="st9" d="M21.81,12.79c0.62-0.74,1.24-1.49,1.87-2.23c0.15,0.28,0.35,0.09,0.53,0.05c-0.63,1.39-1.68,2.47-2.68,3.59
		c-0.2,0.18-0.42,0.22-0.66,0.08C20.71,13.48,21.16,13.07,21.81,12.79z"/>
	<path class="st10" d="M16.74,4.53c-0.39,0.43-0.78,0.85-1.16,1.28c-0.24,0.04-0.36-0.05-0.31-0.31c0.33-0.38,0.65-0.76,0.98-1.13
		C16.41,4.43,16.58,4.48,16.74,4.53z"/>
	<path class="st11" d="M16.78,23.37c-0.85,0.3-1.72,0.56-2.55,0.92c-0.59,0.26-1.01,0.16-1.51-0.22c-1.35-1.03-1.37-1-0.05-1.98
		c0.95-1.34,2.41-2.11,3.55-3.25c0.67-0.42,1.16-1.05,1.74-1.56c0.33-0.29,0.61-0.78,1.19-0.47c-0.52,1.26-1.65,1.99-2.59,2.86
		c-1.04,0.96-2.17,1.82-3.33,2.79C14.39,23.09,15.56,23.32,16.78,23.37z"/>
	<path class="st12" d="M19.15,16.82c-0.82,0.22-1.2,1-1.81,1.48c-0.34,0.27-0.58,0.67-1.05,0.74c-0.13-0.21-0.02-0.46-0.09-0.68
		c0.21-0.7,0.89-0.95,1.36-1.39c0.28-0.24,0.53-0.51,0.79-0.77c0.82-0.65,1.31-1.7,2.42-2.02c0.26,0,0.52,0.01,0.77,0.01
		C20.74,15.07,19.95,15.94,19.15,16.82z"/>
	<path class="st13" d="M18.99,23.36c-0.21-0.04-0.44-0.06-0.56-0.29c1.53-0.45,3.1-0.77,4.56-1.45c0.55-0.2,1.09-0.41,1.64-0.61
		C23,22.39,21.1,23.12,18.99,23.36z"/>
	<path class="st14" d="M10.92,16.84c-1.81-1.56-1.85-3.64-1.46-5.7c0.42-2.27,2.01-3.61,4.19-4.27c0.23-0.07,0.38-0.01,0.5,0.18
		c0.29,0.51-0.07,0.93-0.22,1.35c-0.42,1.16-0.98,2.27-1.28,3.48c-0.37,1.26-0.71,2.52-1.03,3.79
		C11.5,16.12,11.45,16.63,10.92,16.84z"/>
	<path class="st15" d="M10.92,16.84c0.65-1.65,0.77-3.45,1.5-5.08c0,0.47,0.44,0.22,0.62,0.39c0.19,0.54-0.07,1.04-0.15,1.56
		c-0.19,0.63-0.32,1.27-0.48,1.91c-0.19,0.55-0.15,1.17-0.51,1.67c-0.22,0.25-0.38,0.55-0.66,0.75c-0.31,0.17-0.63,0.29-0.99,0.24
		C10.48,17.8,10.7,17.32,10.92,16.84z"/>
	<path class="st16" d="M12.91,12.04c-0.14,0.08-0.28,0.17-0.42,0.25c-0.02-0.18-0.04-0.36-0.06-0.54c0.26-1.68,1.23-3.11,1.72-4.71
		c0.44-0.47,0.59-1.15,1.13-1.55c0.1,0.1,0.2,0.21,0.31,0.31c0.01,0.08,0.01,0.16,0.01,0.24c-0.2,1.06-0.92,1.9-1.22,2.92
		C14.2,9.39,14,9.8,13.87,10.23C13.56,10.84,13.41,11.53,12.91,12.04z"/>
	<path class="st17" d="M14.14,8.92c0.33-1.03,0.81-1.99,1.45-2.86c0.06,0.66,0.4,0.9,1.07,1.06c2.41,0.56,3.96,2.12,4.61,4.5
		c0.12,0.44,0.34,0.79,0.54,1.17c-0.35,0.46-0.7,0.93-1.06,1.39c-0.77,0.73-1.55,1.45-2.32,2.18c-0.32-0.46,0.05-0.83,0.18-1.23
		c0.43-1.27,0.74-2.55,0.13-3.84c-0.71-1.47-2-2.09-3.56-2.27C14.84,8.98,14.47,9.11,14.14,8.92z"/>
	<path class="st18" d="M16.52,26.44c-0.11,0.41-0.39,0.53-0.79,0.47c-0.83-0.11-1.66-0.17-2.47-0.34c-0.24-0.05-0.93,0.04-0.66-0.53
		c0.18-0.39,0.48-0.92,1.21-0.63c0.55,0.22,0.94,1.05,1.72,0.56C15.84,26.16,16.27,26.11,16.52,26.44z"/>
	<path class="st19" d="M11.25,18.03c0.03-0.32,0.03-0.67,0.47-0.73c0.55,0.58,1.21,0.96,1.98,1.16c0.54,0.14,1.04,0.34,1.23,0.95
		c-0.42,1.22-1.44,1.76-2.55,2.18c-0.14,0.09-0.28,0.19-0.42,0.28c-0.49,0.01-0.75-0.4-1.13-0.6c-0.89-0.46-1.27-0.95-0.28-1.78
		C10.94,19.18,11.19,18.61,11.25,18.03z"/>
	<path class="st5" d="M5.5,20.44c1.2,0.69,2.56,0.19,3.81,0.49c0.43,0.57,0.85,1.14,1.34,1.79c-0.62,0.46-1.36,0.7-2.07,0.98
		c-0.48,0.19-0.73-0.08-1.04-0.36C6.64,22.53,6.13,21.44,5.5,20.44z"/>
	<path class="st20" d="M8.88,24.44c1.63-1.22,2.16-1.25,3.38-0.15c0.22,0.19,0.83,0.41,0.41,0.79c-0.4,0.35-0.62,1.18-1.38,0.88
		C10.41,25.6,9.57,25.15,8.88,24.44z"/>
	<path class="st21" d="M12.38,21.6c0.83-0.7,1.66-1.41,2.48-2.11c0.22-0.66,0.71-0.95,1.38-0.99c0.3,0.15,0.06,0.35,0.05,0.53
		c-1.06,1.19-2.34,2.13-3.61,3.06C12.67,21.88,12.6,21.7,12.38,21.6z"/>
	<path class="st22" d="M14.14,8.92c1.48-0.55,2.73,0.01,3.86,0.9c1.3,1.02,1.58,2.42,1.34,3.98c-0.14,0.91-0.55,1.73-0.9,2.57
		c-0.18,0.31-0.42,0.55-0.75,0.71c-1.71,0.6-3.36,0.37-4.98-0.36c-0.5-0.23-0.82-0.5-0.52-1.09c0.01-0.68,0.15-1.34,0.46-1.95
		c0.23,0.07-0.02,0.71,0.59,0.43c0.32-0.15,0.7,0.29,1.05,0.47c0.95,0.47,2,0.36,2.65-0.3c0.61-0.62,0.82-1.34,0.47-2.18
		c-0.36-0.86-1.25-1.4-2.31-1.34c-0.62,0.04-1.21,0.12-1.47-0.63C13.7,9.67,13.9,9.29,14.14,8.92z"/>
	<path class="st23" d="M12.2,15.62c0,0.38,0.09,0.6,0.54,0.76c1.35,0.49,2.68,0.98,4.15,0.55c0.24-0.07,0.53,0.08,0.8,0.13
		c-0.48,0.48-0.97,0.96-1.45,1.43c-0.46,0.33-0.92,0.66-1.38,0.99c-0.56-0.84-1.61-0.7-2.36-1.17c-0.4-0.26-0.87-0.4-0.78-1.01
		C11.9,16.75,11.86,16.14,12.2,15.62z"/>
	<path class="st24" d="M13.65,10.12c0.42,0.31,0.79,0.51,1.41,0.32c0.85-0.28,2.21,0.49,2.61,1.31c0.5,1.02,0.32,1.99-0.44,2.75
		c-0.8,0.81-1.93,1-2.85,0.44c-0.58-0.36-1.6-0.26-1.72-1.26c0.08-0.54,0.17-1.09,0.25-1.63C12.99,11.34,13.34,10.74,13.65,10.12z"
		/>
</g>
</svg>
