<?xml version="1.0" encoding="utf-8"?>
<!-- Generator: Adobe Illustrator 23.0.2, SVG Export Plug-In . SVG Version: 6.00 Build 0)  -->
<svg version="1.1" id="Camada_1" xmlns="http://www.w3.org/2000/svg" xmlns:xlink="http://www.w3.org/1999/xlink" x="0px" y="0px"
	 viewBox="0 0 29.54 29.53" style="enable-background:new 0 0 29.54 29.53;" xml:space="preserve">
<style type="text/css">
	.st0{fill:#FEFEFE;}
	.st1{fill:#100D0F;}
	.st2{fill:#F46307;}
	.st3{fill:#FD6A03;}
	.st4{fill:#FC6903;}
	.st5{fill:#EB5C10;}
	.st6{fill:#A24C01;}
	.st7{fill:#A24C00;}
	.st8{fill:#44170E;}
	.st9{fill:#592818;}
	.st10{fill:#5A3C33;}
	.st11{fill:#45241C;}
	.st12{fill:#614438;}
	.st13{fill:#A14C02;}
	.st14{fill:#FD7813;}
	.st15{fill:#664434;}
	.st16{fill:#FE7E1C;}
	.st17{fill:#9B4803;}
	.st18{fill:#A34D00;}
	.st19{fill:#F36505;}
	.st20{fill:#FE9032;}
</style>
<g>
	<path class="st0" d="M15.05,29.53C7.47,29.6,0.26,24.42,0.01,15.02C-0.21,6.93,5.59,0.17,14.66,0c7.88-0.14,14.55,5.5,14.88,14.15
		C29.86,23.03,23.31,29.33,15.05,29.53z"/>
	<path class="st1" d="M27.85,14.79c0,7.18-5.87,13.06-13.04,13.07C7.65,27.87,1.76,21.99,1.74,14.82C1.73,7.63,7.64,1.64,14.72,1.67
		C22,1.7,27.85,7.55,27.85,14.79z"/>
	<path class="st2" d="M23.33,9.75c0.21-0.38,0.42-0.76,0.75-1.34c1.3,2.02,2,4.06,1.88,6.37c-0.65,0.09-0.66-0.42-0.75-0.83
		c-0.09-0.38-0.04-0.79-0.33-1.26c-0.22,1.57-0.62,2.96-1.23,4.33c-0.65,1.45-1.91,2.28-2.98,3.35c0.51,0.26,1.27-0.48,1.42,0.52
		c-1.39,1.04-3.09,1.18-4.69,1.61c-0.38,0.1-0.77,0.18-1.17,0.24c-1.13,0.12-2.22-0.09-3.26-0.5c-0.9-0.35-0.94-0.67-0.22-1.33
		c1.45-1.34,3.09-2.47,4.46-3.92c0.38-0.41,0.75-0.81,1.01-1.31C19.98,13.75,21.67,11.76,23.33,9.75z"/>
	<path class="st3" d="M6.26,7.57c2.29-2.83,5.32-4.01,8.91-4.09c-0.02,0.61-0.66,0.71-0.79,1.17c-0.13,0.71-0.45,1.29-1.11,1.63
		c-4.39,1-5.97,5.99-3.08,9.63c0.08,0.32-0.03,0.6-0.15,0.88c-0.3,0.56-0.63,1.11-1.05,1.59c-0.47,0.55-0.93,0.56-1.33-0.1
		c-0.31-0.51-0.59-1.04-0.97-1.51c-0.64-1.12-0.82-2.37-0.98-3.63C5.72,11.28,5.52,9.38,6.26,7.57z"/>
	<path class="st4" d="M14.69,4.97c0.81-1.37,1.93-1.5,3.34-0.98c1.85,0.68,3.5,1.62,4.9,3.04c0.71,0.71,0.9,1.29,0.21,2.07
		C22.99,9.27,22.9,9.5,22.79,9.7c-0.45,1.1-0.9,2.2-2.21,2.55c-0.47-0.2-0.58-0.63-0.67-1.06c-0.48-2.3-1.9-3.71-4.12-4.37
		c-0.71-0.21-1.42-0.4-1.37-1.37C14.46,5.25,14.54,5.09,14.69,4.97z"/>
	<path class="st5" d="M22.11,20.76c-0.7-0.49-1.33,0.32-2.09,0.09c0.2-0.7,0.77-1.12,1.27-1.49c2.23-1.62,2.91-3.97,3.22-6.52
		c0.04-0.29-0.17-0.74,0.27-0.8c0.4-0.05,0.35,0.44,0.52,0.69c0.42,0.63-0.24,1.59,0.65,2.05c0.09,2.63-0.7,4.95-2.43,6.95
		c-1.42,0.88-3.03,1.2-4.63,1.5c-0.39,0.07-0.8,0.04-1.11-0.29c-0.08-0.66,0.43-0.64,0.84-0.73c1.56-0.33,3.02-0.95,4.49-1.56
		c0.13-0.09-0.08-0.25,0.01-0.12c0.03,0.04,0.01,0.08-0.05,0.1C22.76,20.76,22.48,21.1,22.11,20.76z"/>
	<path class="st6" d="M3.87,17.66C3.22,14.63,3.52,11.73,5.06,9c0.81,0.25,0.57,0.96,0.56,1.48c-0.07,2.01,0.18,3.95,0.91,5.83
		c0.07,0.18,0.13,0.38,0.28,0.52c0.32,0.46,0.59,0.95,0.82,1.45c0.44,0.98,0.1,1.51-0.98,1.58C5.34,19.96,4.16,19.02,3.87,17.66z"/>
	<path class="st7" d="M17.78,22.69c0.93,0.6,1.81,0.04,2.7-0.13c1.04-0.2,1.97-0.78,3.05-0.83c-0.01,0.08-0.02,0.16-0.03,0.24
		c-0.98,1.69-2.61,2.56-4.29,3.34c-0.56,0.26-1.13,0.58-1.8,0.51c-1,0.18-1.94,0.01-2.86-0.39c-0.6-0.29-1.38-0.57-1.38-1.3
		c0.01-0.75,0.88-0.85,1.45-1C15.64,22.86,16.64,22.2,17.78,22.69z"/>
	<path class="st8" d="M17.78,22.69c-1.6,0.08-3.03,0.71-4.62,1.34c0.52,0.48,0.89,0.92,1.48,1.09c-0.46,0.44-0.45,0.43-1.07,0.17
		c-0.41-0.18-0.79-0.59-1.48-0.02c1.91,0.6,3.69,0.6,5.49,0.33c1.98-0.34,3.54-1.43,4.99-2.73c0.32-0.29,0.63-0.59,0.94-0.88
		c0.57,0.49-0.06,0.69-0.27,0.9c-1.79,1.77-3.92,2.94-6.41,3.39c-3.17,0.57-6.04-0.19-8.69-1.93c-0.16-0.1-0.26-0.29-0.39-0.43
		c0.12-0.14,0.28-0.19,0.46-0.19c0.66,0.09,1.13,0.56,1.69,0.84c0.51,0.26,0.96,0.38,1.36-0.17c0.41-0.55-0.08-0.76-0.39-1.05
		c-0.21-0.19-0.4-0.39-0.37-0.71c0.06-0.18,0.19-0.28,0.38-0.3c0.3,0.01,0.54,0.16,0.74,0.35c0.63,0.57,1.32,0.68,2.09,0.31
		c0.76-0.36,1.62-0.3,2.42-0.53c2.03-0.47,4.08-0.83,6-1.71c0.55-0.21,1.1-0.41,1.64-0.62C22.07,21.73,19.9,22.17,17.78,22.69z"/>
	<path class="st9" d="M10.87,22.44c-0.09,0.08-0.18,0.17-0.27,0.25c-0.82,0.35-1.76,0.48-2.38,1.21c-0.16,0-0.32,0.01-0.48,0.01
		c-0.52-0.39-1.12-0.71-1.21-1.45c0.36-0.16,0.7,0.15,1.05,0.05c0.6-0.16,1.33-0.2,1.62-0.81c0.19-0.41-1.3-1.53-1.91-1.44
		c-0.69,0.1-1.35,0.12-1.99-0.27c-0.07,0.28,0.26,0.57-0.01,0.83c-0.99-0.62-1.63-2.04-1.41-3.15c0.56,1.13,1.38,1.92,2.72,1.9
		c0.81-0.01,1.34-0.25,0.75-1.2c-0.27-0.43-0.42-0.93-0.62-1.4c0.03-0.14,0.17-0.17,0.26-0.26c0.32,0.5,0.7,0.97,0.95,1.5
		c0.29,0.61,0.53,0.47,0.83,0.05c0.37-0.52,0.72-1.05,1.08-1.58c0.59-0.05,0.49,0.42,0.57,0.76c-0.01,0.63-0.25,1.18-0.7,1.6
		c-0.53,0.49-0.48,0.91-0.06,1.44c0.47,0.58,0.93,0.49,1.45,0.14c0.96-0.64,1.85-1.38,2.72-2.14c0.4-0.34,0.78-0.71,1.36-0.7
		c0.18,0.05,0.3,0.16,0.35,0.35c-0.39,1.3-1.69,1.72-2.54,2.56C12.33,21.32,11.57,21.85,10.87,22.44z"/>
	<path class="st7" d="M5.28,20.82c-0.2-0.41-0.4-0.83-0.73-1.52c1.11,0.71,2.06,0.94,3.1,0.56c0.45-0.16,0.72,0.24,0.97,0.54
		c0.38,0.45,0.73,0.93,1.21,1.54c-1.13,0.32-1.99,1.53-3.31,0.53C6.1,21.91,5.69,21.36,5.28,20.82z"/>
	<path class="st10" d="M15.4,18.19c-0.11-0.1-0.21-0.21-0.32-0.31c-0.03-0.36,0.19-0.6,0.44-0.81c1.64-1.35,3.14-2.84,4.49-4.48
		c0.19-0.23,0.44-0.34,0.71-0.41c0.85-0.69,1.3-1.72,2.07-2.47c0.16,0.29,0.36,0.1,0.54,0.05c-0.95,1.91-2.44,3.39-3.87,4.92
		c-0.32,0.35-0.64,0.7-0.96,1.04c-0.65,0.62-1.23,1.31-1.89,1.92C16.27,17.95,15.95,18.32,15.4,18.19z"/>
	<path class="st11" d="M14.69,4.97c-0.02,0.12-0.04,0.24-0.05,0.36c-0.41,1.4-1.21,2.64-1.64,4.04c-0.44,0.85-0.47,1.86-1.03,2.67
		c-0.37,0.43-0.71,0.6-0.9-0.14c0.29-2.07,0.9-4.02,2.2-5.7c0.37-0.51,0.75-1.03,1.12-1.54C14.48,4.76,14.59,4.86,14.69,4.97z"/>
	<path class="st12" d="M6.97,16.71c-0.09,0.09-0.17,0.17-0.26,0.26c-0.91-1.65-1.35-3.42-1.44-5.31C5.24,10.77,5.58,9.85,5.06,9
		C5.2,8.68,5.46,8.47,5.74,8.27c0.28,0.18,0.31,0.47,0.24,0.74c-0.4,1.46-0.09,2.9,0.04,4.35C6.27,14.5,6.43,15.66,6.97,16.71z"/>
	<path class="st6" d="M6.02,13.36c-0.59-1.67-0.5-3.37-0.28-5.09c0.07-0.31,0.22-0.56,0.52-0.7C6.18,9.5,6.1,11.43,6.02,13.36z"/>
	<path class="st13" d="M15.4,18.19c1.25-0.55,1.84-1.93,3.1-2.46c-0.95,1.78-2.63,2.84-4.05,4.16c-0.64,0.59-1.35,1.1-2.12,1.72
		c1.24,0.67,2.47,0.94,3.78,0.88c-1.06,0.37-2.11,0.82-3.2,1.1c-0.96,0.25-1.36-0.76-2.05-1.13c-0.06-0.65,0.5-0.84,0.88-1.14
		C13.01,20.31,14.33,19.39,15.4,18.19z"/>
	<path class="st14" d="M13.26,6.19c-0.68,1.87-1.62,3.65-1.98,5.64c-0.01,1.07-0.3,2.09-0.58,3.11c-0.11,0.41-0.18,0.86-0.66,1.04
		c-1.59-1.54-1.9-3.48-1.45-5.5c0.5-2.28,1.99-3.75,4.26-4.39C13.01,6.04,13.15,6.04,13.26,6.19z"/>
	<path class="st15" d="M10.03,15.98c0.58-1.33,0.6-2.84,1.25-4.15c0.07,0.66,0.29,0.21,0.47,0.06c0.57,0.6,0.12,1.23,0.04,1.85
		c-0.29,0.88-0.42,1.81-0.74,2.69c-0.27,0.44-0.18,1.15-0.93,1.23c-0.05-0.34,0.09-0.75-0.3-0.98C9.9,16.45,9.97,16.22,10.03,15.98z
		"/>
	<path class="st16" d="M10.83,16.44c0.23-0.89,0.47-1.78,0.7-2.67c0.79-0.38,1.36,0.16,2,0.45c1.19,0.52,2.64,0.05,3.22-1.02
		c0.57-1.05,0.22-2.48-0.77-3.21c-0.44-0.33-0.94-0.4-1.47-0.42c-0.59-0.03-1.2-0.01-1.75-0.3c0.44-1.4,1.01-2.74,1.87-3.94
		c-0.01,0.65,0.25,0.94,0.94,1.12c2.51,0.65,4.21,2.14,4.63,4.83c0.06,0.36,0.19,0.69,0.51,0.91c-1.64,2.13-3.66,3.89-5.64,5.7
		c-0.37,0.26-0.75,0.52-1.12,0.78c-0.66-0.63-1.58-0.73-2.33-1.16C11.23,17.28,10.55,17.2,10.83,16.44z"/>
	<path class="st17" d="M17.56,25.59c-1.77,0.64-3.56,0.5-5.35,0.15c-0.25-0.05-0.79-0.12-0.51-0.56c0.24-0.38,0.49-0.92,1.21-0.62
		c0.55,0.23,0.94,1.03,1.72,0.57C15.56,25.55,16.55,25.64,17.56,25.59z"/>
	<path class="st18" d="M8.21,23.9c-0.05-0.14-0.1-0.28-0.15-0.43c0.84-0.28,1.5-1.13,2.53-0.78c0.16,0.17,0.34,0.32,0.48,0.5
		c0.26,0.35,1.15,0.45,0.66,1.08c-0.39,0.49-0.85,1.34-1.8,0.64C9.41,24.52,8.79,24.23,8.21,23.9z"/>
	<path class="st19" d="M10.83,16.44c0.45,0.91,1.41,0.95,2.2,1.27c0.45,0.18,1.04,0.22,0.93,0.95c-0.74,0.84-1.7,1.42-2.56,2.1
		c-0.86,0.68-1.55,0.61-2.18-0.37c-0.36-0.57-0.57-0.97,0.14-1.43c0.43-0.28,0.66-0.78,0.77-1.3C10.36,17.26,10.6,16.85,10.83,16.44
		z"/>
	<path class="st20" d="M12.77,9.26c1.28-0.03,2.61-0.33,3.69,0.71c0.97,0.93,1.2,2.59,0.48,3.6c-0.81,1.15-2.35,1.54-3.62,0.9
		c-0.58-0.29-1.11-0.68-1.79-0.7c0.07-0.63,0.15-1.25,0.23-1.87C12.09,11.02,12.43,10.14,12.77,9.26z"/>
</g>
</svg>
