<?xml version="1.0" encoding="utf-8"?>
<!-- Generator: Adobe Illustrator 23.0.2, SVG Export Plug-In . SVG Version: 6.00 Build 0)  -->
<svg version="1.1" id="Camada_1" xmlns="http://www.w3.org/2000/svg" xmlns:xlink="http://www.w3.org/1999/xlink" x="0px" y="0px"
	 viewBox="0 0 45.52 63.38" style="enable-background:new 0 0 45.52 63.38;" xml:space="preserve">
<style type="text/css">
	.st0{fill:#FEFEFE;}
	.st1{fill:#010100;}
	.st2{fill:#70191C;}
	.st3{fill:#2A3957;}
	.st4{fill:#5D79AD;}
	.st5{fill:#A3282F;}
	.st6{fill:#72191C;}
	.st7{fill:#38487C;}
	.st8{fill:#6A89C1;}
	.st9{fill:#273553;}
	.st10{fill:#71191C;}
	.st11{fill:#2C3D5E;}
	.st12{fill:#9C7A27;}
	.st13{fill:#435094;}
	.st14{fill:#623217;}
	.st15{fill:#364477;}
	.st16{fill:#663417;}
	.st17{fill:#354674;}
	.st18{fill:#C3905B;}
	.st19{fill:#8D4618;}
	.st20{fill:#AA5115;}
	.st21{fill:#401A1B;}
	.st22{fill:#673517;}
	.st23{fill:#96C3E7;}
	.st24{fill:#571F20;}
	.st25{fill:#A4282F;}
	.st26{fill:#AB2A2E;}
	.st27{fill:#BF2A34;}
	.st28{fill:#9D131A;}
	.st29{fill:#0B1931;}
	.st30{fill:#2D1413;}
	.st31{fill:#D492B9;}
	.st32{fill:#CA6D81;}
	.st33{fill:#C86D8B;}
	.st34{fill:#EECF93;}
	.st35{fill:#334471;}
	.st36{fill:#F9EFBB;}
	.st37{fill:#4C7935;}
	.st38{fill:#2D3C5E;}
	.st39{fill:#2F1413;}
	.st40{fill:#A9282F;}
	.st41{fill:#93161C;}
	.st42{fill:#3B1719;}
	.st43{fill:#80AAD9;}
	.st44{fill:#435397;}
	.st45{fill:#68953F;}
	.st46{fill:#2F1414;}
	.st47{fill:#CAA224;}
	.st48{fill:#B58E24;}
	.st49{fill:#DCBE5E;}
	.st50{fill:#FBEE7D;}
	.st51{fill:#907126;}
	.st52{fill:#B7964D;}
	.st53{fill:#D8B022;}
	.st54{fill:#E4CA6B;}
	.st55{fill:#BA9224;}
	.st56{fill:#A07D26;}
	.st57{fill:#BC9423;}
	.st58{fill:#BA2831;}
	.st59{fill:#C62C38;}
	.st60{fill:#CA6879;}
	.st61{fill:#AD753D;}
	.st62{fill:#8DB443;}
	.st63{fill:#E6EEDD;}
	.st64{fill:#7BAC3B;}
	.st65{fill:#8EBDE4;}
	.st66{fill:#F6EB7F;}
</style>
<g>
	<path class="st0" d="M11.73,49.76c-1.11,0.43-2.06,1.04-3.15,1.3c-2.16,0.52-3.76-0.68-3.8-2.88c-0.02-1.6-0.13-3.24,0.34-4.76
		C5.49,42.25,5,41.59,4.17,41.2c-1.11-0.52-1.93-1.5-3.18-1.8c-0.7-0.17-1.04-0.78-0.98-1.58c0.1-1.35-0.37-2.82,0.97-3.86
		c0.12-0.09,0.14-0.36,0.14-0.54c-0.03-1.68,0.83-2.99,2.27-3.49c2.23-0.77,3.02-2.58,3.82-4.42c1.03-2.39,2.66-4.44,3.64-6.85
		c0.39-0.97,1.47-1.42,2.42-1.86c0.5-0.23,0.74-0.37,0.34-0.99c-2.34-3.64-2.95-7.71-2.78-11.93c0.1-2.48,2.63-3.69,5.11-2.39
		c1.13,0.59,2.16,0.89,3.38,0.5c0.34-0.11,0.69-0.13,0.93-0.46c1.19-1.63,2.92-1.56,4.66-1.45c0.61,0.04,0.99,0.49,1.35,0.91
		c1.22,1.43,1.6,3.11,1.31,4.93c-0.07,0.46-0.04,0.85,0.1,1.27c0.78,2.33,1.29,4.7,0.65,7.16c-0.1,0.37-0.16,0.67,0.34,0.84
		c3.57,1.21,4.97,4.54,6.98,7.26c1.18,1.6,2.21,3.32,3.3,4.99c0.25,0.39,0.6,0.58,1.04,0.73c1.02,0.35,1.99,0.81,2.87,1.45
		c0.44,0.32,0.92,0.69,1,1.16c0.28,1.74,1.27,3.23,1.61,4.93c0.3,1.52-0.52,2.64-1.95,3.28c-0.92,0.41-1.71,1.09-2.55,1.66
		c-0.26,0.18-0.51,0.48-0.79,0.52c-1.46,0.2-1.56,1.08-1.25,2.25c0.13,0.5,0.13,1.02,0.01,1.54c-0.38,1.7-0.05,3.44-0.43,5.16
		c-0.32,1.43-0.56,2.78-2.22,3.18c-0.57,0.14-0.48,0.52-0.51,0.92c-0.04,0.52,0.06,0.85,0.63,1.1c1.43,0.61,2.43,1.64,2.74,3.23
		c0.34,1.76-0.32,3.16-2.03,3.66c-2.87,0.84-5.55,0.22-7.87-1.64c-1.01-0.81-1.2-2.11-1.45-3.33c-0.47-2.27-0.5-2.27-2.87-1.43
		c0.82,0.73,1.63,1.41,2.22,2.29c1.41,2.08,0.9,3.86-1.42,4.73c-2.77,1.05-5.4,0.69-7.87-0.92c-1.67-1.08-2.2-2.65-1.93-4.56
		c0.02-0.12,0.07-0.23,0.09-0.35c0.38-2.09,0.3-2.22-1.67-2.87C12.45,53.47,11.79,52.41,11.73,49.76z"/>
	<path class="st1" d="M26.35,15.67c4.43,0.7,6.12,4.3,8.29,7.36c1.22,1.72,2.35,3.51,3.5,5.28c0.28,0.43,0.65,0.65,1.11,0.82
		c0.86,0.31,1.71,0.64,2.49,1.13c0.93,0.59,1.49,1.33,1.28,2.46c-0.09,0.48,0.16,0.74,0.4,1.06c0.46,0.61,0.82,1.29,0.87,2.06
		c0.06,0.75-0.05,1.56-0.84,1.81c-0.78,0.25-1.33,0.75-1.98,1.17c-1.32,0.86-2.61,1.86-4.28,2.08c0.54,1.77,0.57,3.45,0.38,5.25
		c-0.13,1.24-0.23,2.53-0.31,3.8c-0.07,1.11-0.29,2.02-1.64,2.27c-0.63,0.12-1.02,0.67-1.07,1.41c-0.07,1.31-0.14,2.53,1.6,2.86
		c0.61,0.12,1.07,0.68,1.42,1.23c1.09,1.7,0.33,3.33-1.67,3.55c-1.54,0.17-3.02-0.07-4.44-0.68c-1.3-0.55-2.13-1.49-2.4-2.9
		c-0.17-0.86-0.42-1.71-0.5-2.58c-0.07-0.73-0.77-0.75-1.06-1.19c-0.54-0.82-0.88-0.11-1.26,0.13c-0.46,0.29-1,0.43-1.48,0.37
		c-0.87-0.1-1.03,0.38-1.25,1.04c-0.23,0.69,0.06,0.97,0.6,1.29c0.94,0.56,1.67,1.36,2.24,2.29c0.7,1.14,0.39,2.03-0.85,2.54
		c-2.48,1.03-4.82,0.75-7.05-0.71c-1.22-0.8-1.63-1.95-1.37-3.32c0.22-1.11,0.09-2.23,0.29-3.33c0.12-0.67-0.18-0.88-0.76-0.85
		c-0.65,0.02-1.27-0.17-1.87-0.36c-1.28-0.4-1.78-1.12-1.8-2.48c-0.01-0.76-0.01-1.52-0.02-2.28c0-0.04-0.02-0.07-0.04-0.14
		c-0.94,0.06-1.7,0.61-2.53,0.95c-0.66,0.27-1.29,0.65-1.97,0.84c-1.51,0.42-2.35-0.29-2.4-1.86c-0.07-2.05,0.16-4.07,0.58-6.06
		c0.1-0.49,0.05-0.65-0.47-0.95c-0.96-0.56-2.05-1.01-2.78-1.9c-0.27-0.33-0.56-0.36-0.9-0.44c-1.62-0.37-2.21-2.05-1.09-3.27
		c0.67-0.73,1.12-1.42,1.06-2.49c-0.06-1.05,0.78-1.78,1.63-2.01c2.3-0.64,3.19-2.5,4-4.38c0.69-1.58,1.59-3.02,2.43-4.51
		c1.81-3.21,1.83-3.19,5.65-5.25c-2.47-2.24-3.42-5.19-3.85-8.36C12.07,7.11,11.97,5.8,12,4.48c0.04-1.99,1.31-2.85,3.19-2.09
		c0.07,0.03,0.17,0.04,0.22,0.09c1.22,1.1,2.61,1.06,4.09,0.67c0.66-0.17,1.23-0.32,1.73-0.89c0.73-0.83,1.61-1.65,2.88-1.31
		c1.31,0.35,1.81,1.45,2.21,2.61c0.01,0.04,0.04,0.08,0.04,0.11c-0.51,2.79,0.96,5.32,1.03,8.03C27.43,13.07,27.35,14.4,26.35,15.67
		z"/>
	<path class="st2" d="M18.49,52.36c-1.06-0.16-2.11-0.3-3.16-0.48c-0.84-0.14-1.21-0.62-1.14-1.51c0.06-0.79-0.02-1.59,0.02-2.39
		c0.06-0.99-0.43-1.27-1.32-1.16c-1.13,0.15-2.08,0.76-3.09,1.22c-2.54,1.15-2.67,1.22-2.58-1.54c0.07-2.18,0.57-4.28,1.02-6.39
		c0.14-0.37,0.36-0.69,0.61-1c0.77-1.47,0.96-3.11,1.38-4.68c0.21-0.79,0.43-1.51,0.94-2.15c1.71-2.16,3.51-4.25,4.72-6.76
		c0.24-0.5,0.71-1.01,1.17-0.34c0.98,1.43,2.49,2.38,3.38,3.87c0.46,1.4,0.74,2.85,1.07,4.29c-0.06,0.36-0.13,0.71-0.53,0.84
		c-0.64,0.58-0.5,1.42-0.64,2.14c-0.46,2.34-0.89,4.69-1.08,7.08c-0.1,1.27-1.04,2.22-1.37,3.42c-0.72,0.53-1.16-0.12-1.7-0.39
		c-0.31-0.15-0.6-0.52-0.97-0.3c-0.36,0.21-0.28,0.65-0.23,0.99c0.17,0.96-0.1,1.91-0.02,2.86c-0.07,0.73,0.31,1,1,1.17
		c0.86,0.21,1.82,0.07,2.57,0.7C18.63,52.03,18.63,52.2,18.49,52.36z"/>
	<path class="st3" d="M25.95,13.73c-0.14,1.24-1.14,1.82-2.08,2.52c0.65,0.27,1.3-0.03,1.8,0.38c0.28,0.33,0.07,0.55-0.18,0.76
		c-0.72,0-1.3,0.04-1.06,1.09c0.15,0.65-0.43,0.96-1.02,1.1c-0.78,0.18-1.55,0.37-2.13,0.97c-0.44,0.25-0.51,0.59-0.19,0.96
		c0.77,0.9,1.65,1.7,2.49,2.53c0.32,0.32,0.52,0.22,0.7-0.16c0.27-0.56,0.45-1.2,1.09-1.5c1.82-0.51,2.18-0.44,2.88,0.61
		c0.02-0.44-0.03-0.86,0.01-1.28c0.04-0.41-0.04-0.9,0.5-1.08c0.44,0.16,0.53,0.54,0.59,0.93c0.1,1.1,0.27,2.19,0.95,3.12
		c0.18,0.24,0.38,0.53,0.15,0.86c-0.12-0.02-0.27,0-0.34-0.07c-1.1-1.12-1.32-0.48-1.41,0.65c-0.05,0.62-0.26,1.22-0.4,1.83
		c0.15,0.63-0.24,0.99-0.71,1.22c-2.37,1.16-4.78,1.23-7.2,0.16c-0.11-0.57-0.45-1.01-0.88-1.39c-1.14-1.01-2.08-2.21-2.97-3.44
		c-0.44-0.6-0.95-1.21-0.8-2.06c0.21-0.33,0.7-0.36,0.87-1.01c0.05-0.27-1.13,0.14-0.67-0.64c0.29-0.17,0.61-0.15,0.92-0.2
		c1.11-0.17,1.84-0.9,2.03-2.02c0.09-0.53-0.02-1.17,0.76-1.28c0.31-0.14,0.79,0.36,0.98-0.25c0.3-0.73,1.07-0.54,1.59-0.84
		c0.54-0.11,1.04-0.31,1.45-0.68c0.85-0.44,1.31-1.34,2.11-1.85C25.84,13.7,25.9,13.71,25.95,13.73z"/>
	<path class="st4" d="M8.96,39.46c-0.24,0.22-0.49,0.44-0.73,0.67c-0.01-0.04-0.02-0.07-0.03-0.11c-0.11-0.39,0-0.97-0.46-1.08
		c-0.41-0.1-0.41,0.55-0.75,0.72c-0.53,0.23-0.91-0.12-0.79-0.5c0.27-0.82-0.02-1.81,0.61-2.37c-0.29,0.51-0.66,1.15-1.29,1.59
		c-0.25,0.18-0.5,0.27-0.77,0.08c-0.26-0.18-0.33-0.44-0.23-0.74c0.22-0.64,0.3-1.33,0.81-1.96c-0.7,0.5-1.25,1.02-1.95,1.34
		c-0.23,0.1-0.47,0.13-0.68-0.04c-0.22-0.18-0.19-0.41-0.12-0.65c0.39-1.4,2.85-3.29,4.3-3.3C6.52,32.81,6.23,33,5.91,33.23
		c-0.29,0.21-0.62,0.37-0.99,0.4c-0.36,0.02-0.76,0.04-0.9-0.39c-0.12-0.36,0.12-0.63,0.38-0.81c0.6-0.4,1.23-0.74,1.92-0.95
		c0.61-0.18,1.01-0.56,1.31-1.14c0.62-1.2,1.4-2.33,1.85-3.61c0.35-1.01,1.2-0.43,1.81-0.6c0.81,0.72,1.4,1.65,2.28,2.31
		c0,1.14-0.7,1.95-1.43,2.65c-1.69,1.63-1.91,3.82-2.4,5.9C9.55,37.83,9.24,38.64,8.96,39.46z"/>
	<path class="st5" d="M30.49,29.56c1.63,3.73,3.29,7.45,4.86,11.2c0.66,1.56,1.04,3.22,0.72,4.95c-0.49-0.59-0.14-1.34-0.55-2.28
		c0.01,1.83-0.02,3.35,0.18,4.87c0.24,1.81,0.11,2.02-1.33,2.67c-0.52,0-0.56-0.41-0.58-0.75c-0.18-3.06-1.11-5.95-1.97-8.85
		c-1.03-3.45-1.58-6.99-2.07-10.55c-0.05-0.4-0.1-0.8,0.06-1.18C29.98,29.26,30.21,29.16,30.49,29.56z"/>
	<path class="st6" d="M29.08,53.29c-0.67-0.01-0.9-0.55-1.24-0.99c-0.64-0.82-1.28-0.84-1.86,0c-0.66,0.95-1.61,0.38-2.42,0.57
		c-0.02-0.06-0.05-0.12-0.07-0.18c0.36-1.94,0.23-3.88,0.08-5.83c-0.1-0.58,0.12-1.1,0.29-1.63c0.47-1.52,0.9-3.05,1.22-4.61
		c0.08-0.4,0.02-1,0.58-1.06c0.56-0.06,0.61,0.54,0.78,0.92c0.63,1.42,1.14,2.89,1.71,4.33c0.31,0.78,0.66,1.54,1.06,2.27
		c0.1,0.8-0.06,1.57-0.23,2.35c-0.31,0.51-0.82,0.61-1.36,0.63c-0.5-0.13-0.46-0.6-0.59-0.95c-0.63-1.66-1.04-3.39-1.24-4.54
		c0.5,1.73,0.62,4.22,2.18,6.21c0.6,0.62,0.86,1.43,1.22,2.18C29.19,53.1,29.15,53.2,29.08,53.29z"/>
	<path class="st7" d="M11.21,26.21c-1.61-0.16-1.67,1.24-2.2,2.17c-0.35,0.62-0.74,1.23-1.04,1.88c-0.36,0.78-0.88,1.29-1.73,1.5
		c-0.42,0.11-0.81,0.33-1.19,0.55c-0.38,0.22-1.09,0.42-0.78,0.95c0.24,0.41,0.93,0.14,1.29-0.15c0.81-0.65,1.51-0.41,2.27,0.19
		c-1.84-0.33-3.04,0.67-4.16,1.85c-0.05,0.06-0.12,0.11-0.17,0.17c-0.32,0.48-1.03,1.12-0.63,1.5c0.48,0.47,1.01-0.29,1.44-0.66
		c0.47-0.42,0.93-0.83,1.72-0.98c-0.37,0.59-0.72,1.06-0.95,1.57c-0.21,0.47-0.77,1.16-0.21,1.49c0.64,0.39,0.94-0.5,1.3-0.9
		c0.41-0.46,0.69-1.02,1.16-1.48c-0.35,0.92-0.62,1.83-0.85,2.76c-0.14,0.55-0.2,0.96,0.53,1.01c-0.95,0.28-1.03,0.17-0.88-1.38
		c-0.49,0.19-0.81,0.96-1.44,0.5c-0.73-0.52-0.21-1.23-0.18-1.95C4,36.8,3.75,37.24,3.38,37.38c-0.46,0.18-0.91,0.14-1.23-0.18
		c-0.4-0.41,0-0.7,0.26-1c0.33-0.4,0.6-0.85,0.95-1.23c0.4-0.43,0.91-0.73,0.31-1.43c-0.24-0.28-0.07-0.78,0.27-1.08
		c0.21-0.18,0.42-0.43,0.67-0.49c2.6-0.55,3.49-2.76,4.43-4.77c1.21-2.56,2.83-4.9,3.96-7.5c1.16-0.06,1.96,0.7,2.85,1.26
		c0.35,0.36,0.84,0.08,1.31,0.31c-0.4,0.44-0.31,1.35-1.31,1.09c-0.28,0.3,0.09,0.68-0.12,0.99c-1.01,0.96-2.14,1.78-3.17,2.72
		C12.19,26.42,11.72,26.75,11.21,26.21z"/>
	<path class="st8" d="M31.6,27.14c0.04-0.06,0.05-0.13,0.04-0.21c0.16-0.33,0.41-0.54,0.75-0.65c0.17-0.03,0.34-0.01,0.49,0.09
		c0.74,1.61,1.88,2.9,3.2,4.04c0.59,0.51,1.31,0.9,1.69,1.63c2-0.19,3.14,1.16,4.33,2.43c0.25,0.27,0.45,0.57,0.53,0.92
		c0.13,0.61-0.23,0.92-0.83,0.68c-0.6-0.24-1.05-0.72-1.62-1.05c0.24,0.6,0.53,1.17,0.65,1.8c0.05,0.27,0.2,0.56-0.14,0.75
		c-0.27,0.15-0.54,0.08-0.79-0.09c-0.61-0.41-1.08-0.94-1.26-1.48c0.34,0.48,0.35,1.22,0.45,1.94c0.05,0.33,0.03,0.67-0.35,0.8
		c-0.33,0.12-0.51-0.14-0.69-0.36c-0.34-0.4-0.58-0.86-0.77-1.4c-0.12,0.54,0.19,1.34-0.51,1.4c-0.58,0.05-0.65-0.7-0.78-1.19
		c-0.09-0.35-0.23-0.68-0.34-1.02c-0.08-1.37-0.47-2.72-0.79-4.01c-0.29-1.19-1.52-2.15-2.34-3.22
		C32.13,28.41,31.5,27.96,31.6,27.14z"/>
	<path class="st9" d="M17.91,16.32c-1.79-0.83-3.04-2.06-3.17-4.17c-0.03-0.5-0.21-1.03-0.46-1.47c-1.16-2.07-1.01-4.34-1.07-6.59
		c-0.01-0.52,0.21-0.74,0.72-0.68c0.14,0.21,0.09,0.44,0.08,0.67C14,4.37,14,4.66,14.01,4.95c0.05,2.95,0.06,2.96,2.72,3.98
		c0.21,0.13,0.38,0.29,0.49,0.51c0.46,0.89,0.86,0.8,1.23-0.06c0.21-0.01,5.16,0.94,5.33,1.04c0.76,0.5,1.26,0.32,1.48-0.57
		c0.14-0.31,0.13-0.69,0.43-0.92c0.59,1.57,0.71,3.17,0.25,4.8c0,0-0.06-0.03-0.06-0.03c-0.49-0.65-0.07-1.48-0.45-2.15
		c-0.99,0.92-1.77-0.12-2.64-0.29c-0.63-0.38-1.26-0.38-1.71,0.22c-1.26,1.68-2.91,2.07-4.85,1.58c-0.2,0.01-0.39-0.07-0.63,0.01
		c0.33,0.99,1.06,1.66,1.78,2.35C17.63,15.66,18.16,15.77,17.91,16.32z"/>
	<path class="st10" d="M30.49,29.56c-0.98-0.17-0.47,0.62-0.44,0.84c0.3,2.2,0.65,4.4,1.04,6.58c0.71,3.92,2.26,7.62,2.92,11.56
		c0.13,0.81-0.21,1.69,0.36,2.43c-0.17,0.22-0.35,0.44-0.52,0.66c-0.78,0.59-0.75-0.17-0.76-0.53c-0.03-1.02-0.21-2.03-0.25-3.05
		c-0.02-0.57-0.22-0.98-0.65-1.31c-0.38-0.45-0.34-1-0.38-1.53c-0.94-3.64-1.5-7.37-2.56-10.99c-0.14-0.5-0.29-0.99-0.35-1.51
		c-0.28-1.27-0.25-2.58-0.57-3.85c-0.09-0.35,0.04-0.7,0.22-1.02c0.15-0.51,0.3-1.01,0.51-1.74C29.61,27.43,30.05,28.5,30.49,29.56z
		"/>
	<path class="st11" d="M35.8,36.24c0.42,0.64,0.42,1.51,1.19,2.33c0-0.99,0-1.67,0-2.36c0.75,0.74,0.76,1.88,1.84,2.56
		c0.18-1.44-0.34-2.56-0.77-3.75c0.7,0.49,0.91,1.39,1.56,1.9c0.29,0.23,0.5,0.81,0.94,0.5c0.4-0.28,0.04-0.75-0.09-1.09
		c-0.25-0.65-0.53-1.3-1.2-1.96c1.41,0.22,1.98,1.44,3.3,1.7c-0.29-1.53-1.36-2.32-2.38-3.06c-0.59-0.43-1.27-1.03-2.15-0.42
		c-0.26,0.18-0.54,0.03-0.57-0.36c1.03-1.16,2.07-0.43,3.16-0.05c-1.06-1.17-2.89-1.12-3.8-2.47c-0.75-0.91-1.41-1.88-2.05-2.87
		c-0.28-0.42-0.58-0.96,0.3-1.13c0.65,1,1.34,1.97,1.95,2.99c0.48,0.8,1.12,1.29,2.01,1.57c0.79,0.25,1.6,0.52,2.26,1.06
		c0.58,0.47,1.02,1.01,0.34,1.69c-0.42,0.42,0,0.55,0.18,0.73c0.49,0.48,0.93,0.98,1.19,1.63c0.15,0.38,0.31,0.77,0,1.12
		c-0.36,0.4-0.73,0.14-1.08-0.04c-0.32-0.16-0.62-0.35-0.98-0.56c-0.05,0.67,0.52,1.43-0.22,1.95c-0.5,0.35-0.88-0.12-1.28-0.33
		c-0.29,0.25-0.03,0.53-0.06,0.78c-0.03,0.34-0.08,0.65-0.43,0.78c-0.3,0.11-0.57-0.03-0.74-0.26c-0.33-0.44-0.61-0.63-1.1-0.13
		c-0.41,0.42-0.74,0.05-0.93-0.31c-0.26-0.49-0.43-1.03-0.41-1.6C35.64,36.6,35.63,36.41,35.8,36.24z"/>
	<path class="st12" d="M29.08,53.29c-0.01-0.08-0.02-0.16-0.03-0.24c0.23-0.47-0.11-0.98,0.11-1.45c0.12-0.76-0.03-1.5-0.08-2.24
		c-0.03-0.42-0.1-0.88,0.24-1.24c0.29-0.24,0.62-0.34,0.99-0.39c1.8-0.23,2.23,0.15,2.2,1.97c-0.01,0.76-0.12,1.51-0.11,2.27
		c-0.06,0.23-0.11,0.48-0.44,0.39c-0.15-0.04-0.26-0.18-0.38-0.27c-0.42-0.32-0.74-1.11-1.3-0.77c-0.5,0.3-0.06,1.02,0,1.55
		c0.2,1.38,0.43,2.76,0.76,4.11c0.39,1.57,3,2.82,4.48,2.23c0.41-0.17,0.32-0.39,0.1-0.62c-0.45-0.49-1.09-0.62-1.67-0.87
		c-0.63-0.27-1.45-0.2-1.83-0.96c0.04-0.25,0.2-0.46,0.2-0.72c0.02-1.53,0.01-3.05,0.11-4.58c0.01-0.29-0.01-0.58,0.24-0.8
		c0.82,0.46,0.48,1.25,0.5,1.9c0.03,1.39-0.16,2.78,0.19,4.16c0.8,0.57,1.83,0.57,2.64,1.16c0.59,0.44,0.87,0.95,0.71,1.6
		c-0.16,0.61-0.77,0.58-1.29,0.6c-0.44,0.01-0.88,0.01-1.31-0.02c-2.43-0.18-3.52-1.18-4.07-3.54
		C29.78,55.42,29.92,54.21,29.08,53.29z"/>
	<path class="st13" d="M29.07,21.64c-0.09-0.32-0.17-0.63-0.26-0.95c-0.3-0.3-0.27-0.63-0.07-0.97c-0.22,0.31-0.39,0.8-0.9,0.5
		c-0.45-0.26-0.85-0.67-0.94-1.19c-0.1-0.56,0.49-0.5,0.81-0.68c0.42-0.16,0.83-0.37,1.3-0.37c0.65,0.2,1.01,0.74,1.39,1.24
		c1.5,1.94,3.03,3.86,4.18,6.04c0.01,0.63-0.42,0.65-0.88,0.64c-0.39-0.09-0.81-0.18-1.06-0.49C31.56,24.05,30.19,22.97,29.07,21.64
		z"/>
	<path class="st14" d="M28.56,27.86c0.24,1.61,0.49,3.22,0.73,4.83c-0.18,0.25-0.28,0.58-0.57,0.75c-2.31,1.52-4.68,1.26-7.08,0.23
		c-0.12-0.07-0.21-0.16-0.28-0.28c-0.68-1.35-0.71-2.88-1.2-4.29c0.09-0.16,0.18-0.15,0.24,0.02c2.22,0.78,4.44,0.87,6.66-0.02
		c0.58-0.23,1.04-0.55,1.24-1.17C28.4,27.92,28.48,27.89,28.56,27.86z"/>
	<path class="st15" d="M25.7,8.93c-0.05,0.33,0.11,0.71-0.23,0.97c-0.05-0.04-0.09-0.07-0.14-0.11c-0.54-0.98-0.75-2.09-1.17-3.12
		c-0.14-0.35-0.07-0.7,0.08-1.04c0.15-0.33,0.22-0.69,0.17-1.05c-0.08-0.55-0.08-1.24-0.71-1.39c-0.66-0.16-0.98,0.41-1.13,0.98
		c-0.14,0.52-0.49,0.72-0.96,0.72c-1.37,0.01-2.68,0.38-4,0.62c-0.45,0.08-0.89,0.09-1.27-0.18c-0.82-0.58-1.74-0.96-2.61-1.43
		c0.08-0.16,0.15-0.32,0.23-0.49C14.76,3.3,15.45,3.7,16,4.19c0.68,0.62,1.35,0.68,2.17,0.41c0.49-0.16,1.01-0.24,1.52-0.28
		c1.02-0.09,1.87-0.36,2.49-1.3c0.35-0.54,0.96-1.14,1.67-0.93c0.76,0.23,1.08,1.01,1.31,1.75c0.07,0.22,0.12,0.49,0.07,0.71
		C24.88,6.07,25.16,7.51,25.7,8.93z"/>
	<path class="st16" d="M33.35,56.7c-0.61-0.89-0.38-1.9-0.45-2.88c-0.08-1.06,0.19-2.13-0.2-3.17c-0.54-0.58-0.24-1.29-0.26-1.94
		c-0.03-0.65-0.23-0.97-0.91-0.92c-0.75,0.05-1.53-0.14-2.17,0.44c-0.2,0.83,0.2,1.62,0.16,2.43c-0.02,0.41,0.18,0.87-0.21,1.21
		c-0.9-0.65-0.81-1.49-0.49-2.39c-0.07-0.8,0.11-1.58,0.24-2.36c0.04-0.04,0.08-0.08,0.13-0.12c1.06-0.3,2.13-0.53,3.24-0.39
		c0.54,0.21,0.85,0.43,0.77,1.18c-0.13,1.19,0.31,2.39,0.2,3.61c-0.04,0.4,0.24,0.3,0.47,0.23C33.08,53.27,33.52,55.02,33.35,56.7z"
		/>
	<path class="st17" d="M29.07,21.64c1.31,0.67,2.2,1.84,3.15,2.9c0.43,0.48,0.87,0.88,1.4,1.21c-0.25,0.56-0.97,0.24-1.28,0.7
		c-0.2,0.21-0.36,0.48-0.7,0.49c-0.78-0.14-0.92-0.81-1.18-1.39C29.71,24.34,29,23.13,29.07,21.64z"/>
	<path class="st18" d="M17.91,16.32c-1.13-1.02-2.45-1.89-2.74-3.56c0.33-0.17,0.63-0.01,0.94,0.01c0.59,0.32,1.16,0.68,1.66,1.13
		c1.35,1.19,2.94,1.93,4.63,2.49c-0.59,0.22-1.17,0.44-1.76,0.65C19.73,16.8,18.82,16.56,17.91,16.32z"/>
	<path class="st19" d="M22.59,54.06c-0.15,0.73-0.28,1.47-0.47,2.19c-0.14,0.57,0.19,0.78,0.6,1c1,0.52,1.83,1.25,2.48,2.18
		c0.36,0.52,0.32,0.88-0.29,1.1c-1.17,0.41-2.34,0.73-3.57,0.25c0.11-0.23,0.31-0.34,0.52-0.43c0.41-0.15,0.86-0.08,1.28-0.17
		c0.34-0.07,0.78-0.04,0.92-0.4c0.17-0.41-0.27-0.6-0.5-0.85c-0.46-0.49-1.03-0.83-1.63-1.13c-0.38-0.2-0.82-0.27-1.18-0.5
		c-0.51-0.33-0.48-0.66,0.08-0.92c0.81-0.52,0.4-1.46,0.73-2.14c0.27-0.56-0.09-1.42,0.8-1.67C22.7,53.04,22.72,53.54,22.59,54.06z"
		/>
	<path class="st20" d="M21.86,60.52c-0.11,0.21-0.32,0.23-0.52,0.26c-0.41-0.13-0.84-0.22-1.23-0.4c-1.81-0.82-2.02-1.38-1.77-3.35
		c0.2-1.54,0.5-3.11,0.15-4.68c0.01-0.15,0.01-0.3,0.02-0.44c-0.02-0.16-0.06-0.33-0.06-0.49c0.03-0.37-0.02-0.78,0.36-1.03
		c0.08-0.07,0.29,0.26,0.3-0.13c0.01-0.31,0.21-0.52,0.52-0.16c0.14,0.29,0.16,0.59,0.17,0.91c0.04,1.12-0.35,2.22-0.24,3.34
		c0.03,1-0.18,1.99-0.3,2.97c-0.16,1.21,0.24,1.92,1.33,2.33c0.26,0.1,0.51,0.24,0.75,0.38C21.54,60.16,21.74,60.29,21.86,60.52z"/>
	<path class="st21" d="M15.85,20.97c-1.11-0.07-1.86-0.94-2.85-1.26c2.01-1.38,4.22-2.22,6.66-2.41c-0.23,0.17-0.39,0.37-0.44,0.67
		C18.8,20.45,18.34,20.85,15.85,20.97z"/>
	<path class="st22" d="M19.45,49.97c-0.22,0.14-0.21,0.37-0.24,0.59c-0.01,0.11-0.06,0.21-0.19,0.1c-0.05-0.04-0.04-0.14-0.06-0.21
		c-0.41-0.48-0.31-1.02-0.17-1.56c0.12-0.27,0.32-0.42,0.59-0.5c1.08-0.14,2.16-0.38,3.2,0.18c0.38,0.25,0.7,0.56,0.9,0.97
		c0.4,1.08-0.18,2.17,0.04,3.25c0,0,0.05,0.09,0.05,0.09c-0.4,0.33-0.77,0.69-0.97,1.18c-0.09-0.5-0.18-0.99-0.28-1.49
		c-0.47-0.55-0.15-1.14-0.04-1.69c0.13-0.69-0.02-1.16-0.71-1.4C20.78,49.32,19.94,48.89,19.45,49.97z"/>
	<path class="st3" d="M35.8,36.24c-0.01,0.19-0.02,0.37-0.04,0.56c-0.26-1.38-1.14-2.63-0.94-4.12c0.07-0.5-0.28-0.79-0.56-1.13
		c-0.84-1.01-1.68-2.03-2.48-3.07c-0.3-0.38-0.75-0.81-0.18-1.34c0.66,1.32,1.69,2.39,2.6,3.52C35.55,32.33,35.41,34.34,35.8,36.24z
		"/>
	<path class="st23" d="M32.34,26.44c0.11-0.82,0.75-0.65,1.28-0.7c0.41,0.04,0.73-0.13,0.96-0.47c0.25,0.05,0.38,0.24,0.49,0.45
		c-0.44,0.29-0.31,0.6-0.07,0.94c0.67,0.94,1.34,1.9,2,2.85c-0.15,0.63-0.52,0.24-0.74,0.11c-0.84-0.49-1.49-1.2-2.08-1.96
		c-0.37-0.48-0.79-0.89-1.3-1.22C32.71,26.44,32.53,26.44,32.34,26.44z"/>
	<path class="st24" d="M29.01,17.99c-0.33,0.3-0.73,0.46-1.16,0.58c-0.54,0.07-1.09,0.29-1.61,0.09c-0.55-0.21-1.06-0.56-0.8-1.32
		c0.08-0.23,0.16-0.47,0.24-0.7C26.86,16.9,28,17.28,29.01,17.99z"/>
	<path class="st25" d="M7.98,43.99c0.09-1.24,0.37-2.42,1.08-3.48c1.89-2.81,3.47-5.8,5.21-8.7c0.14-0.23,0.31-0.43,0.52-0.7
		c0.56,4.6-0.41,8.95-1.09,13.32c-0.34,0.31-0.74,0.27-1.11,0.1c-1-0.46-2-0.92-2.84-1.65c-0.09-0.23-0.02-0.45,0.02-0.68
		c-0.17,0.79-0.46,1.54-0.67,2.32c-0.18,0.38-0.08,1.09-0.54,1.07c-0.58-0.03-0.46-0.7-0.48-1.16C8.05,44.29,8.05,44.14,7.98,43.99z
		"/>
	<path class="st26" d="M18.98,48.76c-0.01,0.56-0.02,1.13-0.02,1.69c-0.37,0.35-0.14,0.83-0.25,1.24c-0.59-0.06-1.23-0.02-1.6-0.64
		c-0.23-1.47-0.24-2.91,0.67-4.2c0.01-0.73,0.17-1.4,0.67-1.98c0.79-0.93,0.6-2.14,0.71-3.2c0.28-2.8,1.08-5.49,1.34-8.31
		c0.51,0.11,0.35,0.51,0.43,0.78c0.61,0.8,0.12,1.64-0.02,2.41c-0.68,3.71-1.43,7.42-1.59,11.2C19.28,48.12,19.18,48.45,18.98,48.76
		z"/>
	<path class="st27" d="M9.86,42.76c1.29,0.54,2.31,1.68,3.84,1.69c0.15,0.48-0.34,1.12,0.6,1.49c-0.98,0.23-1.76,0.41-2.54,0.59
		c-1.13,0.02-1.96,0.93-3.06,1.05c-0.49-1.02,0.13-1.94,0.27-2.91C9.36,44.08,9.07,43.17,9.86,42.76z"/>
	<path class="st28" d="M17.77,46.84c-0.31,1.42-0.56,2.84-0.48,4.31c-1.11,0.31-1.89-0.04-2.57-1.14c-0.01-1.18-0.06-2.36-0.03-3.54
		c0.02-0.74,0.16-1.23,1.14-0.65C16.44,46.18,16.9,46.93,17.77,46.84z"/>
	<path class="st29" d="M20.42,29.13c-0.08-0.01-0.16-0.01-0.24-0.02c-1.02-1.48-2.63-2.44-3.6-4.26c-0.41,0.78-0.71,1.37-1.03,1.94
		c-0.9,1.61-1.91,3.16-3.22,4.44c-1.65,1.62-1.9,3.77-2.45,5.8c-0.23,0.84-0.33,1.72-0.91,2.42c0.49-2.11,1.02-4.21,1.55-6.31
		c0.25-0.99,1.24-1.81,1.93-2.68c0.5-0.63,0.99-1.23,0.93-2.1c0.64-0.74,1.2-1.54,1.71-2.38c0.52-0.85,0.79-1.69,0.55-2.66
		c0.03-0.33-0.16-0.71,0.22-0.96c0.56,2.04,2.03,3.45,3.39,4.94C19.73,27.84,20.51,28.21,20.42,29.13z"/>
	<path class="st30" d="M18.98,48.76c-0.11-3.57,0.72-7.03,1.24-10.53c0.2-1.37,0.64-2.7,0.69-4.09c0.15-0.24,0.31-0.49,0.46-0.73
		c0.09,0.01,0.18,0.03,0.26,0.05c0.39,0.45,0.3,0.97,0.19,1.48c-0.86,4.26-1.53,8.56-2.06,12.88c-0.03,0.28-0.09,0.55-0.34,0.74
		C19.28,48.61,19.13,48.68,18.98,48.76z"/>
	<path class="st31" d="M9.15,44.69c-0.24,0.93-0.43,1.86-0.25,2.82c0.06,0.06,0.09,0.12,0.06,0.18c-0.02,0.06-0.05,0.09-0.07,0.09
		c-1.17,0.57-1.2,0.57-1.15-0.72c0.04-1.03,0.15-2.05,0.23-3.07c0.47,0.38,0.06,1.09,0.56,1.49c0.11-0.37,0.22-0.72,0.33-1.07
		C9.09,44.36,9.21,44.44,9.15,44.69z"/>
	<path class="st32" d="M14.72,50.01c0.77,0.57,1.55,1.12,2.57,1.14c0.47,0.18,0.94,0.36,1.41,0.54c-0.07,0.08-0.13,0.16-0.19,0.24
		c-0.89-0.16-1.77-0.36-2.66-0.48C14.97,51.32,14.59,50.88,14.72,50.01z"/>
	<path class="st33" d="M8.89,47.78c0-0.09,0-0.18,0.01-0.27c0.89-0.51,1.73-1.14,2.85-0.98C10.8,46.95,9.85,47.37,8.89,47.78z"/>
	<path class="st34" d="M22.4,16.39c-1.25,0.04-2.33-0.4-3.3-1.16c-1.02-0.8-2.24-1.35-3-2.46c0.2,0.01,0.41-0.01,0.59,0.03
		c1.58,0.4,2.83,0.02,3.87-1.31c0.56-0.71,1.33-1.56,2.33-0.41c0.54,0.74,0.39,1.46-0.08,2.17c-0.49,0.25-1,0.03-1.47,0.13
		c0.52-0.04,1.07,0.04,1.61-0.07c1.02,0.51,0.87,1.47,0.9,2.36C23.47,16.11,23.09,16.56,22.4,16.39z"/>
	<path class="st35" d="M25.44,17.33c0.33,1.33,1.41,1.2,2.41,1.23c-0.18,0.26-0.5,0.16-0.89,0.31c0.6,0.39,0.61,1.67,1.75,0.81
		c0.2,0.31,0.07,0.67,0.1,1.01c-0.51,0.75-0.05,1.62-0.4,2.66c-0.82-1.56-2.05-0.8-3.17-0.74c-0.25-0.74,0.38-1.16,0.64-1.71
		c0.32-0.7,0.06-0.91-0.58-0.8c-0.9,0.16-1.82,0.21-2.7,0.46c-0.49,0.14-1.01,0.33-1.45-0.12c0.5-0.95,1.5-0.96,2.35-1.16
		c0.59-0.14,0.81-0.41,0.73-0.99c-0.05-0.37-0.6-0.75-0.23-1.06C24.4,16.89,24.97,17.05,25.44,17.33z"/>
	<path class="st36" d="M23.86,15.67c-0.55-0.64-0.12-1.69-0.93-2.22c0.03-0.17,0.24-0.39-0.13-0.45c0.24-0.63,0.05-1.28,0.1-1.92
		c0.38-0.1,0.69,0.13,0.96,0.3c0.65,0.42,1.2,0.5,1.68-0.37c0.53,0.94,0.31,1.83,0.34,2.69C25.32,14.47,24.79,15.27,23.86,15.67z"/>
	<path class="st37" d="M21.14,20.43c1.33,0.05,2.55-0.53,3.86-0.61c0.53-0.03,1.07-0.21,1.4,0.31c0.31,0.47-0.25,0.76-0.41,1.13
		c-0.2,0.47-0.5,0.9-0.75,1.35c-0.15,0.28-0.3,0.55-0.44,0.84c-0.72,1.48-0.72,1.48-1.94,0.27c-0.7-0.69-1.41-1.38-2.06-2.12
		C20.36,21.1,20.24,20.59,21.14,20.43z"/>
	<path class="st38" d="M15.63,23.32c0.4,0.38,0.64,0.91,0.42,1.39c-0.59,1.28-1.23,2.54-2.23,3.56c-0.09,0.09-0.3,0.06-0.45,0.09
		c-1.05-0.38-1.62-1.25-2.16-2.15c0.81,0.25,1.24-0.36,1.7-0.8C13.74,24.61,14.59,23.84,15.63,23.32z"/>
	<path class="st39" d="M23.29,49.48c-0.31-0.15-0.54-0.4-0.71-0.69c-0.11-1.19,0.28-2.3,0.62-3.39c0.66-2.14,1.19-4.31,1.75-6.48
		c0.06-0.23,0.11-0.47,0.2-0.69c0.1-0.26,0.2-0.56,0.53-0.58c0.35-0.02,0.46,0.28,0.54,0.55c0.58,1.92,1.5,3.71,2.13,5.6
		c0.25,0.76,0.55,1.5,0.84,2.24c0.14,0.36,0.38,0.75-0.11,1.05c0,0-0.02,0.04-0.02,0.04c-0.85-0.71-1-1.79-1.4-2.72
		c-0.66-1.53-1.22-3.09-1.96-4.66c-0.5,2.42-1.37,4.72-1.91,7.11C23.79,47.76,23.92,48.69,23.29,49.48z"/>
	<path class="st40" d="M23.29,49.48c-0.02-0.91,0.33-1.75,0.49-2.62c0.52,1.72,0.02,3.5,0.29,5.22c0.09,0.58-0.36,0.49-0.56,0.71
		c-0.66-0.05-0.5-0.55-0.4-0.87C23.37,51.11,23.28,50.29,23.29,49.48z"/>
	<path class="st41" d="M28.81,49.49c0.1,0.81,0.13,1.63,0.49,2.39c-0.25,0.36,0.66,0.96-0.25,1.18c-0.54-0.63-0.76-1.43-1.16-2.14
		c-0.2-0.28-0.56-0.51-0.29-0.93C27.91,49.58,28.46,49.79,28.81,49.49z"/>
	<path class="st42" d="M27.6,49.98c0.1,0.31,0.19,0.62,0.29,0.93c-0.19,0.18-0.27,0.02-0.34-0.12c-1.17-2.3-1.7-4.78-2-7.32
		C26.31,45.62,26.55,47.93,27.6,49.98z"/>
	<path class="st43" d="M32.9,26.44c0.82-0.34,1.03,0.44,1.34,0.84c0.67,0.84,1.38,1.62,2.29,2.22c0.17,0.11,0.31,0.26,0.48,0.01
		c0.78,1.08,2.08,1.23,3.15,1.8c0.45,0.24,1.33,0.5,1.05,1.06c-0.35,0.69-1.12,0.15-1.51-0.19c-0.82-0.7-1.5,0.03-2.24,0.04
		c0-0.41-0.28-0.6-0.59-0.82c-1.5-1.05-2.69-2.41-3.75-3.9C32.9,27.19,32.65,26.87,32.9,26.44z"/>
	<path class="st15" d="M25.47,9.89c-0.3,1.39-0.46,1.46-1.61,0.88c-0.88-0.43-1.76-1.01-2.79-0.39c-0.19,0.11-0.4,0.12-0.54-0.05
		c-0.51-0.66-1.36-0.58-2.01-0.95c-0.52-0.39-1.04-0.8-1.69-0.24c-3.06-0.71-3.16-0.85-3.12-4.31c0.65-0.84,1.3-0.46,1.77,0.13
		c0.57,0.72,1.27,1.05,2.12,1.17c1.62,0.24,3.21,0.59,4.64,1.45c0.35,0.21,0.68,0.17,1.03,0.08c0.26,0.16,0.27,0.45,0.35,0.71
		C23.69,8.62,23.67,9,24.01,9c0.31,0,0.24-0.45,0.48-0.6c0.81,0.17,0.35,1.17,0.96,1.47L25.47,9.89z"/>
	<path class="st44" d="M23.26,7.72c-0.29,0.04-0.05,0.81-0.58,0.45c-1.86-1.27-4.04-1.51-6.16-1.95c-0.46-0.1-0.79-0.33-1.04-0.83
		c-0.33-0.7-0.97-1.06-1.77-0.56c0-0.31,0-0.63,0-0.94c0.59-0.08,1.19,0.06,1.57,0.45c1.42,1.46,2.97,0.64,4.5,0.37
		c0.31-0.05,0.62-0.09,0.94-0.11c0.69-0.05,1.55,0.34,1.61-0.97c0.02-0.5,0.81-1.01,1.36-1c0.56,0.01,0.82,0.69,0.94,1.25
		c0.14,0.65,0.35,1.33-0.15,1.93c-0.31,0.37-0.07,0.66,0.05,0.99c0.37,1.01,0.79,1.99,0.93,3.07c-1.02-0.03-0.48-1.03-0.9-1.43
		C24.16,8.11,23.82,7.72,23.26,7.72z"/>
	<path class="st45" d="M16.83,9.14c0.04-0.47,0.28-0.75,0.77-0.71c0.56,0.05,0.79,0.46,0.92,0.95c-0.08,0.44,0.11,1.12-0.57,1.13
		C17.15,10.52,17.15,9.66,16.83,9.14z"/>
	<path class="st3" d="M29.07,47.09c-0.18-1.51-0.98-2.8-1.43-4.22c-0.54-1.7-1.43-3.27-1.92-5.34c-1.1,3.94-2.12,7.6-3.14,11.25
		c-1.01-0.52-2.1-0.1-3.15-0.25c0.3-4.58,1.2-9.07,2.04-13.56c0.1-0.51,0.13-1.02,0.16-1.53c1.14,0.32,2.24,0.69,3.46,0.73
		c1.38,0.05,2.55-0.41,3.71-1.03c0.96,1.79,1.12,3.8,1.61,5.72c0.55,2.12,0.85,4.3,1.74,6.33c0.08,0.47-0.17,1.01,0.26,1.42
		C31.33,46.96,30.21,47.13,29.07,47.09z"/>
	<path class="st46" d="M32.16,45.2c-0.59-0.36-0.58-1.01-0.76-1.56c-1.08-3.44-1.78-6.98-2.6-10.49c0.16-0.15,0.32-0.31,0.48-0.46
		c0.52,2.24,1.05,4.48,1.56,6.72C31.3,41.34,31.73,43.27,32.16,45.2z"/>
	<path class="st47" d="M32.19,56.67c0.79,0.56,1.76,0.66,2.63,1.02c0.7,0.29,1.64,0.7,1.51,1.45c-0.14,0.8-1.16,0.41-1.77,0.4
		c-2.61-0.02-3.73-1.07-4.06-3.65c-0.13-1.02-0.51-2-0.48-3.04c1-0.01,2.01,0.76,2.19,1.71c0.08,0.39,0.05,0.8,0.17,1.18
		C32.42,56.07,32.43,56.39,32.19,56.67z"/>
	<path class="st48" d="M32.16,55.71c-0.16-1.37-0.76-2.41-2.14-2.86c-0.3-0.68-0.57-1.63-0.02-1.98c0.67-0.43,1.21,0.45,1.71,0.93
		c0.17,0.16,0.29,0.37,0.44,0.56C32.58,53.47,32.57,54.59,32.16,55.71z"/>
	<path class="st49" d="M32.16,55.71c0-1.12-0.01-2.24-0.01-3.36c0-1.07-0.06-2.15,0.01-3.21c0.06-0.91-0.29-1.24-1.16-1.11
		c-0.55,0.08-1.09,0.13-1.64,0.2c0.73-1.03,1.78-0.68,2.73-0.57c0.83,0.1,0.45,0.87,0.52,1.35c0.08,0.54,0.07,1.1,0.1,1.65
		c-0.03,0.26-0.06,0.53-0.09,0.79c-0.12,1.65-0.14,3.31,0.01,4.96c-0.02,0.28-0.23,0.26-0.43,0.26
		C32.18,56.35,32.17,56.03,32.16,55.71z"/>
	<path class="st50" d="M32.62,56.41c-0.34-1.65-0.33-3.31-0.01-4.96C32.61,53.1,32.62,54.76,32.62,56.41z"/>
	<path class="st51" d="M23.05,30.29c1.49,0.07,2.94-0.07,4.31-0.72c0.7-0.33,0.95-0.03,0.99,0.64c0.03,0.63-0.07,1.27,0.15,1.9
		c0.12,0.35-0.08,0.58-0.37,0.79c-1.41,1.02-5.04,1.06-6.39-0.1c-0.71-0.61-0.57-1.67-0.78-2.54
		C21.66,30.03,22.35,30.47,23.05,30.29z"/>
	<path class="st52" d="M23.05,30.29c-0.71,0.58-1.4,0.03-2.1-0.04C21.67,29.64,22.36,30.14,23.05,30.29z"/>
	<path class="st53" d="M21.37,60.29c-0.48-0.2-0.96-0.39-1.42-0.61c-0.82-0.39-1.22-0.88-1.05-1.96c0.17-1.04,0.27-2.13,0.34-3.2
		c0.23-0.36-0.02-0.79,0.23-1.23c1.04,0.3,1.23,1.34,1.79,2.05c0.1,0.5-0.03,0.94-0.33,1.34c-0.18,0.07-0.58,0.13-0.15,0.36
		c0.42,0.22,0.98,0.19,1.34,0.58c0.13,0.21,0.08,0.43,0.08,0.66c0.02,0.36,0.14,0.7,0.18,1.06C22.36,59.99,22.32,60.63,21.37,60.29z
		"/>
	<path class="st54" d="M20.93,56.69c0.05-0.49,0.1-0.97,0.15-1.46c-0.34-0.63,0.03-1.23,0.06-1.84c0.12-0.78,0.27-1.56,0.52-2.31
		c0.27-0.8-0.04-1.2-0.87-1.27c-0.48-0.04-1.02,0.05-1.45-0.56c0.85-0.19,1.57-0.16,2.29-0.04c0.96,0.23,1.24,0.79,0.95,1.73
		c-0.16,0.52-0.17,1.08-0.25,1.63c-0.4,1.11-0.52,2.28-0.72,3.44C21.53,56.41,21.54,56.84,20.93,56.69z"/>
	<path class="st55" d="M21.87,58.17c0.08-0.18,0.16-0.36,0.24-0.54c0.95,0.28,1.59,0.99,2.24,1.67c0.44,0.46,0.45,0.81-0.27,0.98
		c-0.73,0.18-1.47,0.27-2.22,0.24c-0.16-0.08-0.33-0.16-0.49-0.23c1,0.02,0.65-0.74,0.74-1.26C22.81,58.53,22.09,58.42,21.87,58.17z
		"/>
	<path class="st56" d="M21.62,49.21c-0.67,0-1.34,0-2.15,0c0.18,0.17,0.23,0.25,0.28,0.26c2.52,0.17,2.52,0.17,1.9,2.64
		c-0.1,0.41-0.15,0.83-0.23,1.25c-1.02-0.51-1.28-1.63-1.96-2.42c-0.01-0.32-0.01-0.65-0.02-0.97c-0.27-0.54-0.35-1.01,0.49-0.96
		C20.5,49.04,21.1,48.81,21.62,49.21z"/>
	<path class="st57" d="M19.46,50.94c0.98,0.54,1.37,1.56,1.96,2.42c-0.11,0.63-0.23,1.25-0.34,1.88c-0.67-0.39-0.78-1.26-1.55-1.68
		c-0.18,0.26,0.07,0.74-0.29,0.96C19.06,53.31,19.5,52.14,19.46,50.94z"/>
	<path class="st58" d="M13.8,19.72c1.5-0.93,2.94-1.28,4.33-1.75c0.61-0.21,0.59,0.14,0.55,0.54c-0.15,1.46-1.62,2.32-3.28,1.88
		C14.92,20.27,14.47,20.01,13.8,19.72z"/>
	<path class="st59" d="M27.64,17.93c-0.64,0.16-1.24,0.21-1.64-0.58C26.68,17.35,27.16,17.64,27.64,17.93z"/>
	<path class="st60" d="M9.15,44.69c-0.1-0.09-0.19-0.19-0.29-0.28c0.13-0.79,0.41-1.53,0.92-2.35c0.03,0.33,0.05,0.51,0.07,0.7
		C9.62,43.4,9.39,44.05,9.15,44.69z"/>
	<path class="st61" d="M22.81,13c0.35-0.03,0.46-0.54,1-0.41c-0.32,0.32-0.59,0.59-0.87,0.87c-0.62,0-1.24,0-1.98,0
		C21.6,13.01,22.32,13.54,22.81,13z"/>
	<path class="st62" d="M25.48,20.42c0.39,0.05,0.31,0.22,0.15,0.47c-0.32,0.5-0.63,1.01-0.92,1.53c-0.27,0.48-0.51,0.98-0.95,1.85
		c-0.83-0.96-1.55-1.8-2.28-2.62c-0.38-0.43-0.39-0.66,0.26-0.73c0.74-0.08,1.49-0.17,2.18-0.49
		C24.44,20.63,24.96,20.59,25.48,20.42z"/>
	<path class="st63" d="M25.48,20.42c-0.51,0.73-1.03,0.91-1.55,0.01C24.44,19.93,24.96,19.98,25.48,20.42z"/>
	<path class="st64" d="M23.26,7.72c0.93-0.66,1.12,0.01,1.29,0.71c-0.17,0.39,0.26,1.12-0.44,1.15c-0.59,0.02-0.7-0.65-0.8-1.15
		C23.26,8.2,23.27,7.96,23.26,7.72z"/>
	<path class="st65" d="M15.16,5.58C15.13,5.87,14.91,5.99,14.68,6c-0.41,0.02-0.33-0.37-0.41-0.6C14.2,5.2,14.23,4.94,14.5,4.97
		C14.82,5,15.03,5.26,15.16,5.58z"/>
	<path class="st66" d="M21.87,58.17c0.47-0.06,1.01,0.02,1.05,0.52c0.05,0.5-0.48,0.37-0.82,0.35
		C21.92,58.77,21.76,58.5,21.87,58.17z"/>
</g>
</svg>
