<?xml version="1.0" encoding="utf-8"?>
<!-- Generator: Adobe Illustrator 23.0.2, SVG Export Plug-In . SVG Version: 6.00 Build 0)  -->
<svg version="1.1" id="Camada_1" xmlns="http://www.w3.org/2000/svg" xmlns:xlink="http://www.w3.org/1999/xlink" x="0px" y="0px"
	 viewBox="0 0 26.88 27.36" style="enable-background:new 0 0 26.88 27.36;" xml:space="preserve">
<style type="text/css">
	.st0{fill:#010000;}
	.st1{fill:#FCA14D;}
	.st2{fill:#541DF8;}
	.st3{fill:#9F3B02;}
	.st4{fill:#A3183A;}
	.st5{fill:#E9AA9A;}
	.st6{fill:#E19487;}
	.st7{fill:#AF1B40;}
	.st8{fill:#F7F37E;}
	.st9{fill:#FDF7E9;}
	.st10{fill:#AE1D43;}
	.st11{fill:#E6CEF9;}
	.st12{fill:#A01633;}
	.st13{fill:#4916F0;}
	.st14{fill:#971451;}
	.st15{fill:#BC2C57;}
	.st16{fill:#EF9681;}
	.st17{fill:#EF4673;}
	.st18{fill:#F24B78;}
	.st19{fill:#E56310;}
	.st20{fill:#843D34;}
	.st21{fill:#F7AD99;}
	.st22{fill:#D87F74;}
	.st23{fill:#A23A06;}
	.st24{fill:#D22533;}
	.st25{fill:#CB756A;}
	.st26{fill:#D6471A;}
	.st27{fill:#FCE572;}
	.st28{fill:#FB811D;}
	.st29{fill:#8366D2;}
	.st30{fill:#A485F1;}
	.st31{fill:#C7A8FC;}
	.st32{fill:#C19DEB;}
	.st33{fill:#B28FE4;}
	.st34{fill:#B06CFE;}
	.st35{fill:#6A3CF1;}
	.st36{fill:#A48BDF;}
	.st37{fill:#FEFD73;}
	.st38{fill:#FC983F;}
	.st39{fill:#DA3D6E;}
	.st40{fill:#4D18F0;}
	.st41{fill:#F54E85;}
	.st42{fill:#E9C7FB;}
	.st43{fill:#E68B31;}
	.st44{fill:#3D0BF6;}
	.st45{fill:#F79442;}
	.st46{fill:#A83A09;}
	.st47{fill:#822C12;}
	.st48{fill:#FEFC95;}
	.st49{fill:#8769E8;}
	.st50{fill:#EBC4FB;}
	.st51{fill:#C09BFA;}
	.st52{fill:#9977F7;}
	.st53{fill:#A74F44;}
	.st54{fill:#FC8729;}
	.st55{fill:#886AE6;}
	.st56{fill:#EBA38B;}
	.st57{fill:#291913;}
	.st58{fill:#D25308;}
	.st59{fill:#F9AFA1;}
	.st60{fill:#9B4614;}
	.st61{fill:#276B72;}
	.st62{fill:#D07D71;}
</style>
<g>
	<path class="st0" d="M19.8,11.45c1.4-1.42,2.64-0.37,3.89-0.11c0.63,0.13,0.8,0.77,0.7,1.36c-0.15,0.89-0.22,1.88-1.35,2.17
		c-0.34,0.09-0.69,0.1-1.14,0.16c0.49,0.63,1.35,0.83,1.5,1.66c0.14,0.74-0.07,1.42-0.34,2.06c0.1,0.09,0.17,0.18,0.21,0.18
		c1.03-0.22,1.96-0.02,2.44,0.97c0.49,1-0.13,1.81-0.87,2.38c-0.97,0.74-1.68,1.66-2.47,2.56c-1.47,1.66-3.11,2.08-4.46-0.12
		c-0.06-0.1-0.14-0.19-0.21-0.29c-0.64-0.84-1.24-1.63-2.42-0.63c-0.36,0.31-0.96,0.34-1.46,0.46c-1.22,0.31-1.98-0.17-2.24-1.43
		c-0.19-0.93-0.32-1.87-0.5-2.88c-0.28,0.56-0.48,1.08-0.78,1.53c-0.56,0.83-1.4,1.02-2.32,0.81c-0.86-0.2-1.23-0.86-1.26-1.68
		c-0.03-0.95-0.34-1.63-1.11-2.31c-1.84-1.63-2.96-3.64-2.47-6.25c0.15-0.79,0.05-1.45-0.64-2.13C1.2,8.6,1.67,7.01,3.4,6.29
		c0.27-0.11,0.63,0.06,0.79-0.38C5.32,2.8,7.9,2.25,10.76,2.3c0.66,0.01,1.21-0.04,1.78-0.41c0.67-0.43,1.37-0.39,1.89,0.32
		c0.55,0.76,1.28,1.34,1.37,2.44c0.07,0.83,1.07,0.96,1.73,1.27c1.79,0.83,2.62,2.01,2.56,3.89C20.08,10.27,19.93,10.72,19.8,11.45z
		"/>
	<path class="st1" d="M15.49,6.56c0.93,0.11,1.76,0.49,2.47,1.05c1.16,0.92,1.15,2.28,0.08,4.17c-0.55,0.13-1.03-0.02-1.46-0.37
		c-0.37-0.44-0.59-0.95-0.73-1.5c0.12-0.63-0.42-1.35,0.27-1.9c0.06-0.31,0.62-0.72-0.21-0.84C15.65,7.14,15.44,6.89,15.49,6.56z"/>
	<path class="st2" d="M17.19,21.62c-1.19,0.16-2.08,1-3.19,1.38c-0.93,0.32-1.2,0.1-1.32-0.8c-0.15-1.18-0.41-2.35-0.63-3.52
		c0.17-0.11,0.35-0.12,0.54-0.05c0.85,0.93,0.53,2.19,0.91,3.25c0.35,0.43,0.72,0.15,1.08,0.03c0.13-0.09,0.25-0.18,0.38-0.27
		c0.56-0.29,1.08-0.67,1.65-0.95c0.46-0.12,0.92-0.25,1.28-0.58c0.12-0.1,0.23-0.21,0.35-0.31c0.11-0.1,0.23-0.2,0.37-0.28
		c0.34-0.2,0.74-0.29,1.08-0.49c0.34-0.2,0.67-0.41,0.95-0.69c0.18-0.18,0.36-0.35,0.5-0.56c0.45-0.58-0.19-1.08-0.13-1.63
		c1.56,0.73,1.63,1.36,0.33,2.91c-0.15,0.59-0.54,0.85-1.13,0.86c-0.63,0.36-1.25,0.72-1.88,1.08
		C18.17,21.6,17.72,21.68,17.19,21.62z"/>
	<path class="st3" d="M8.72,18.54c-2.33-0.32-4.67-3.12-4.47-5.51c0.1-1.23,0.08-2.45,0.19-3.67c0.03-0.42,0.14-0.71,0.62-0.36
		c0.39,1.08,0.14,2.2,0.2,3.29c0.03,0.59,0.01,1.19,0.13,1.77c0.29,1.57,1.39,2.53,2.61,3.39c0.29,0.2,0.67,0.26,0.86,0.6
		C8.91,18.24,8.89,18.41,8.72,18.54z"/>
	<path class="st4" d="M12.6,18.77c-0.18-0.03-0.36-0.06-0.55-0.1c-0.55-1.15-0.86-1.23-1.85-0.44c-0.45-0.78,0.06-1.4,0.32-2.07
		c0.07-0.09,0.17-0.15,0.28-0.16c0.46,0.13,0.28,0.76,0.73,0.91c0.27,0.15,0.56,0.19,0.87,0.22c0.11,0.03,0.2,0.07,0.29,0.14
		c0.54,0.55,1.11,0.17,1.65,0.01c0.85-0.26,1.49-0.89,2.24-1.33c0.65-0.33,1.11-0.87,1.56-1.42c0.08-0.08,0.17-0.13,0.28-0.17
		c0.31,0.14,0.66,0.22,0.86,0.54c-0.05,0.21-0.12,0.41-0.27,0.56c-0.18,0.19-0.36,0.37-0.56,0.55c-0.33,0.26-0.68,0.48-1.02,0.72
		c-0.33,0.18-0.66,0.34-0.96,0.57c-1.08,0.77-2.25,1.33-3.54,1.62C12.8,18.88,12.7,18.84,12.6,18.77z"/>
	<path class="st5" d="M18,12.23c1.04,0.26,2.04,0.51,3.12-0.01c0.58-0.28,1.22,0.28,1.87,0.3c-0.02,0.22-0.02,0.45-0.05,0.67
		c-0.06,0.43-0.39,0.44-0.71,0.47c-1.53,0.12-3.01-0.24-4.51-0.42C17.31,12.75,17.55,12.46,18,12.23z"/>
	<path class="st6" d="M10.74,16.1c-0.18,0.71-0.36,1.42-0.54,2.13c-0.16,0.32-0.32,0.63-0.48,0.95c-0.25,0.3-0.05,0.69-0.21,1.03
		c-0.21,0.44-0.46,0.75-1,0.61c-0.5-0.13-0.58-0.48-0.4-0.92c0.12-0.29-0.1-0.65,0.21-0.89c0.18-0.05,0.37-0.09,0.45-0.3
		c0.38-0.96,0.52-2.01,1.11-2.88c0.15-0.12,0.32-0.15,0.51-0.11C10.57,15.79,10.69,15.91,10.74,16.1z"/>
	<path class="st7" d="M22.43,20.12c0.46,0.37,0.9,0.12,1.34-0.04c0.32-0.12,0.53,0.03,0.72,0.26c0.21,0.25,0.04,0.43-0.07,0.64
		c-0.78,1.46-2.02,1.54-2.95,0.18C21.7,20.74,22.06,20.43,22.43,20.12z"/>
	<path class="st8" d="M15.49,6.56c0.3,0.46,0.83,0.51,1.29,0.76c-0.18,0.28-0.37,0.56-0.55,0.84c-0.65,0.22-1.32,0.39-1.65,1.11
		c-0.08,0.17-0.26,0.1-0.39-0.01c-0.24-0.34-0.21-0.77-0.37-1.13c-0.07-0.27-0.19-0.59,0.04-0.78c0.66-0.51,0.39-1.11,0.26-1.72
		c0-0.11,0.03-0.22,0.08-0.32c0.09-0.09,0.18-0.1,0.29-0.06C14.83,5.69,15.16,6.12,15.49,6.56z"/>
	<path class="st9" d="M8.4,3.82c0.32-0.08,0.65-0.15,0.97-0.23c0.92-0.02,1.83,0.05,2.71,0.3c0.11,0.05,0.23,0.08,0.35,0.1
		c0.39,0.26,0.96,0.41,0.65,1.09c-0.37,0.13-0.72,0-1.08-0.05c-1.66-0.56-3.26-0.46-4.8,0.43C6.97,5.61,6.71,5.71,6.42,5.6
		C6.11,4.87,6.77,4.68,7.14,4.37C7.49,4.08,7.98,3.99,8.4,3.82z"/>
	<path class="st10" d="M20.26,23.1c0.19-0.04,0.39-0.07,0.58-0.11c0.35-0.08,0.74-0.56,1.05-0.1c0.32,0.48-0.03,0.94-0.4,1.23
		c-0.54,0.43-1.05,1.15-1.92,0.6C19.09,23.56,19.14,23.45,20.26,23.1z"/>
	<path class="st11" d="M18.86,15.4c0.14-0.17,0.27-0.34,0.41-0.52c0.59,0.42,1.17,0.84,1.76,1.26c0.59,0.57,1.18,1.13,0.24,1.9
		c-0.76,0.1-1.16-0.37-1.52-0.93c-0.16-0.21,0.56-0.42-0.05-0.7C19.33,16.25,18.86,15.96,18.86,15.4z"/>
	<path class="st12" d="M4.9,8.89C4.75,9.04,4.6,9.2,4.44,9.35c-0.59,0.1-1.11,0.07-1.27-0.66C3.89,8.55,4.48,8.3,4.4,7.41
		c0.24-0.17,0.48-0.33,0.72-0.5c0.33,0.08,0.33,0.55,0.7,0.61C6.36,7.08,5.61,6.33,6.2,5.9c0.98,0.4,1.18,0.9,0.85,2.06
		C6.5,8.67,5.69,8.75,4.9,8.89z"/>
	<path class="st13" d="M18,12.23c-0.1,0.33-0.19,0.67-0.29,1c-0.01,0.2-0.03,0.39-0.04,0.59c-0.03,0.05-0.06,0.1-0.08,0.15
		c-1-0.54-1.7-1.51-2.76-1.98c-0.2-0.3-0.31-0.59,0.04-0.86c0.64-0.28,1.25-0.22,1.83,0.16c0.45,0.16,0.89,0.33,1.34,0.49
		C18.02,11.93,18.01,12.08,18,12.23z"/>
	<path class="st14" d="M12.61,17.29c-0.1-0.02-0.2-0.03-0.3-0.05c-0.03-0.11,0-0.22,0.07-0.31c0.96-0.61,2.02-1.07,2.95-1.74
		c0.59-0.35,1.13-0.77,1.71-1.13c0.15-0.13,0.42,0.02,0.52-0.21c0,0,0.1-0.04,0.1-0.04c0.25,0.17,0.49,0.35,0.74,0.52
		c-0.03,0.03-0.06,0.07-0.09,0.1c-0.64,0.33-1.23,0.75-1.78,1.21c-0.91,0.52-1.71,1.23-2.72,1.6C13.42,17.4,13.03,17.64,12.61,17.29
		z"/>
	<path class="st15" d="M14.5,5.26l-0.09,0l-0.09,0.02c-0.33,0.21-0.48-0.13-0.7-0.24C13.2,4.7,13.03,4.06,12.35,4.1l-0.01,0
		c-0.07-0.07-0.09-0.13-0.05-0.18c0.03-0.05,0.06-0.08,0.09-0.08c0.05-0.55,0.44-0.77,0.89-0.69c0.62,0.11,0.97,0.63,1.19,1.18
		C14.56,4.6,14.49,4.94,14.5,5.26z"/>
	<path class="st16" d="M18.57,23.49c-0.24-0.31-0.49-0.62-0.73-0.93c0.18-0.75,0.45-0.86,1.27-0.55c0.15,0.15,0.3,0.3,0.45,0.44
		C19.72,23.52,19.58,23.67,18.57,23.49z"/>
	<path class="st17" d="M4.4,7.41c0.2,0.37,0.46,0.74,0.14,1.17c-0.41,0.54-0.9,0.2-1.37,0.11C3.04,7.83,3.23,7.63,4.4,7.41z"/>
	<path class="st18" d="M6.12,6.04c0.05,0.15,0.11,0.3,0.15,0.45c0.13,0.57,0.43,1.32-0.4,1.49C5.22,8.11,5.31,7.32,5.12,6.91
		c0.1-0.13,0.2-0.26,0.3-0.39C5.54,6.31,5.6,6.05,5.86,5.93C5.96,5.92,6.05,5.95,6.12,6.04z"/>
	<path class="st19" d="M5.88,6.12C5.72,6.25,5.57,6.39,5.42,6.53C5.6,4.95,6.66,3.99,8.4,3.82C7.6,4.27,6.81,4.74,6.24,5.49
		C6.34,5.82,5.94,5.88,5.88,6.12z"/>
	<path class="st20" d="M8.32,19c0.08,0.55-0.57,1.39,0.26,1.61c0.92,0.25,0.75-0.76,0.97-1.28c0.03-0.06,0.11-0.1,0.17-0.16
		c-0.01,0.28,0.02,0.56-0.04,0.83c-0.12,0.51-0.27,1.02-0.89,1.12c-0.37,0.06-0.86-0.01-0.85-0.42C7.95,20.14,7.48,19.4,8.32,19z"/>
	<path class="st21" d="M22.43,20.12c-0.1,0.56-0.4,0.93-0.97,1.04c-0.23-0.26-0.45-0.51-0.68-0.77c0.14-0.65,0.45-0.99,1.16-0.67
		C22.1,19.85,22.26,19.99,22.43,20.12z"/>
	<path class="st22" d="M19.11,22.02c-0.52-0.05-1,0-1.27,0.55c-0.35-0.22-0.44-0.63-0.66-0.94c0.39-0.21,0.77-0.42,1.16-0.63
		C18.71,21.25,18.97,21.59,19.11,22.02z"/>
	<path class="st23" d="M9.94,15.88c-0.29,0.98-0.39,2.05-1.17,2.83c-0.04-0.05-0.06-0.11-0.05-0.17c0.01-0.18,0.03-0.35,0.04-0.53
		c-0.61-1.1,0.38-1.54,0.89-2.18C9.76,15.78,9.85,15.79,9.94,15.88z"/>
	<path class="st24" d="M18.57,23.49c0.84,0.14,1.05-0.31,0.98-1.03c0.23,0.21,0.47,0.42,0.7,0.63c-0.78,0.31-0.81,0.94-0.69,1.63
		C19.03,24.48,18.93,23.88,18.57,23.49z"/>
	<path class="st25" d="M21.93,19.72c-0.54-0.03-0.81,0.39-1.16,0.67c-0.18-0.16-0.37-0.32-0.55-0.48c0.38-0.29,0.75-0.58,1.13-0.86
		C21.54,19.27,21.74,19.5,21.93,19.72z"/>
	<path class="st26" d="M12.37,3.84c-0.01,0.09-0.02,0.17-0.03,0.26c-0.93-0.5-2-0.22-2.96-0.52C10.4,3.27,11.4,3.44,12.37,3.84z"/>
	<path class="st27" d="M14.24,9.04c0.38-0.92,1.15-0.98,1.99-0.89c0.18,0.13,0.41,0.23,0.35,0.52c-0.2-0.07-0.4-0.14-0.66-0.23
		c-0.04,0.49,0.66,0.98,0.02,1.44c-0.54,1.17-1.37,0.38-2.1,0.32c-0.16-0.13-0.21-0.31-0.2-0.51C13.73,9.37,13.86,9.1,14.24,9.04z"
		/>
	<path class="st28" d="M13.86,10.01c0.69-0.09,1.43,0.54,2.08-0.13c0.42,0.38,0.5,0.94,0.75,1.4c-0.65,0.01-1.31,0.02-1.96,0.02
		c-0.2,0.17-0.44,0.22-0.7,0.19c-0.13-0.02-0.25-0.05-0.36-0.11C12.91,10.82,13.05,10.37,13.86,10.01z"/>
	<path class="st29" d="M12.84,18.74c1.24-0.49,2.49-0.95,3.58-1.76c1.48,0.18,1.96,0.79,1.43,1.81c-0.14,0.05-0.41,0.02-0.09,0.28
		c0.27,0.22,0.71,0.36,0.64,0.85c-0.08,0.09-0.16,0.17-0.25,0.26c-0.56,0.1-1,0.46-1.49,0.7c-0.48,0.44-1.06,0.7-1.63,0.97
		c-0.39-0.26-0.47-0.72-0.66-1.1c-0.18-0.35-0.33-0.72-0.48-1.09c0.25,0.84,0.84,1.54,0.9,2.45c-0.48,0.14-0.93,0.51-1.48,0.21
		C13.47,21.1,12.95,19.95,12.84,18.74z"/>
	<path class="st30" d="M17.67,18.72c0.68-0.78-0.13-1.04-0.53-1.39c-0.18-0.15-0.56-0.03-0.71-0.34c0.32-0.17,0.64-0.35,0.95-0.52
		c0.89-0.22,1.41,0.19,1.76,0.98c0.26,0.58,0.51,1.17,0.7,1.77c-0.36,0.29-0.78,0.38-1.23,0.43C18.4,19.23,17.53,19.48,17.67,18.72z
		"/>
	<path class="st31" d="M19.83,19.23c-0.61-0.03-0.37-0.61-0.57-0.91c-0.5-0.76-0.65-1.85-1.89-1.85c0.33-0.23,0.66-0.45,0.99-0.68
		c0.54,0.08,0.89,0.4,1.09,0.89c0.12,0.62,0.69,0.82,1.1,1.16c0.24,0.2,0.43,0.33,0.21,0.65C20.52,18.82,20.22,19.08,19.83,19.23z"
		/>
	<path class="st32" d="M12.84,18.74c0.35,1.17,1.05,2.3,0.47,3.59c-0.46-1.14-0.34-2.4-0.71-3.56
		C12.68,18.76,12.76,18.75,12.84,18.74z"/>
	<path class="st33" d="M14.79,22.12c-0.4-0.88-0.81-1.77-1.21-2.65c0.09-0.05,0.18-0.1,0.27-0.14c0.4,0.84,0.94,1.6,1.17,2.53
		C14.95,21.95,14.87,22.04,14.79,22.12z"/>
	<path class="st34" d="M20.77,18.49c-0.08-0.56-0.64-0.65-0.96-0.97c-0.21-0.21-0.74-0.24-0.48-0.76c0.25-0.08,0.37,0.07,0.48,0.26
		c0.46,0.37,0.88,0.8,1.45,1.02C21.1,18.19,20.93,18.34,20.77,18.49z"/>
	<path class="st35" d="M17.67,18.72c0.1,0.53,1.08,0.18,0.94,0.94c-0.07,0.09-0.14,0.18-0.21,0.27c-0.38-0.34-0.88-0.62-1.09-1.05
		C17.07,18.42,17.51,18.73,17.67,18.72z"/>
	<path class="st36" d="M16.66,20.89c0.43-0.37,0.72-1.07,1.49-0.7C17.77,20.66,17.28,20.91,16.66,20.89z"/>
	<path class="st37" d="M4.9,8.89c0.42-0.78,1.46-0.29,1.95-0.94C6.94,8.03,7,8.12,7.04,8.22c0.32,1.16,0.71,2.26,2,2.69
		c0.62,0.5,1.53,0.67,1.77,1.6c-0.05,0.34-0.27,0.54-0.55,0.69c-0.58,0.2-1.03,0.58-1.47,0.99c-1.33,1.22-2.1,1.26-3.58,0.21
		c-0.49-0.5-0.31-1.12-0.31-1.7C4.89,11.43,4.9,10.16,4.9,8.89z"/>
	<path class="st38" d="M5.21,14.4c0.23,0.05,0.49,0.05,0.68,0.16c1.05,0.64,1.88,0.28,2.64-0.52c0.46-0.48,0.9-1.03,1.65-1.07
		c0.19,0.39-0.09,0.68-0.27,0.95c-0.43,0.63-0.47,1.26-0.13,1.93c-0.18,0.36-0.13,0.84-0.7,0.96c-0.85,0.17,0.31,0.93-0.32,1.2
		C6.89,17.48,5.74,16.24,5.21,14.4z"/>
	<path class="st39" d="M12.61,17.29c1.52-0.16,2.57-1.26,3.84-1.92c0.33,0.17,0.47,0.39,0.23,0.74c-1.04,0.89-2.16,1.6-3.57,1.77
		C12.57,17.95,12.31,17.9,12.61,17.29z"/>
	<path class="st40" d="M12.36,17.09c-0.02,0.05-0.04,0.1-0.05,0.15c-0.36,0.25-0.68,0.34-0.86-0.2c-0.42-0.19-0.19-0.73-0.52-0.98
		c-0.07-0.01-0.13,0-0.19,0.03c-0.12-0.08-0.24-0.15-0.36-0.23c0.07-0.2,0.23-0.34,0.33-0.52c0.37-0.71-0.13-1.37-0.1-2.05
		c0.15-0.25,0.38-0.29,0.64-0.23C12.26,14.24,12.14,15.71,12.36,17.09z"/>
	<path class="st41" d="M16.69,16.11c-0.08-0.25-0.16-0.49-0.23-0.74c0.61-0.33,0.94-1.22,1.86-0.93
		C18.15,15.37,17.41,15.73,16.69,16.11z"/>
	<path class="st42" d="M19.81,17.02c-0.16-0.09-0.32-0.17-0.48-0.26c-0.32-0.32-0.64-0.65-0.96-0.97c0.16-0.13,0.32-0.26,0.48-0.39
		c0.35,0.3,0.69,0.62,1.05,0.9C20.32,16.62,19.99,16.8,19.81,17.02z"/>
	<path class="st43" d="M10.93,16.07c0.76,0.01,0.34,0.65,0.52,0.98C10.89,17.14,10.89,17.14,10.93,16.07z"/>
	<path class="st44" d="M10.91,15.68c-0.17,0.07-0.35,0.13-0.52,0.2c-0.15,0-0.3,0-0.45,0.01c-0.05-0.02-0.11-0.03-0.16-0.03
		c-0.75-0.43-0.7-1-0.31-1.65c0.25-0.4,0.47-0.82,0.71-1.23c0.18-0.18,0.36-0.36,0.53-0.54c0.08-0.08,0.18-0.13,0.28-0.17
		c0.69-0.12,1.41-0.14,1.94-0.7c0.25-0.24,0.49-0.51,0.88-0.31c0.09,0.02,0.17,0.05,0.26,0.07c0.13,1.01-0.45,1.74-1.49,1.93
		c-0.47,0.09-0.93-0.09-1.4-0.04c-0.17,0.06-0.34,0.13-0.51,0.19C10.35,14.19,9.93,15.01,10.91,15.68z"/>
	<path class="st45" d="M13.85,4.88c0.15,0.13,0.31,0.26,0.46,0.39c-0.02,0.08-0.05,0.16-0.07,0.24c0.27,1.41,0.24,1.45-1.21,1.48
		c-0.4-0.09-0.81-0.1-1.21-0.19c-0.47-0.29-0.79-0.67-0.73-1.27c0.27-0.36,0.97-0.09,1.07-0.71c0.32,0.07,0.63,0.13,0.95,0.2
		C13.34,4.88,13.62,5.01,13.85,4.88z"/>
	<path class="st46" d="M12.81,6.7c0.95,0.17,1.58-0.04,1.44-1.19c0.37,0.75,0.86,1.53-0.37,2c-0.01,0,0.08,0.27,0.12,0.42
		c-0.08,0.07-0.18,0.1-0.29,0.09C13.29,7.77,13.07,7.34,12.76,7C12.73,6.89,12.74,6.79,12.81,6.7z"/>
	<path class="st47" d="M13.8,7.91c0.06,0.01,0.13,0.02,0.19,0.02c0.26,0.33,0.24,0.72,0.24,1.11c-0.14,0.2-0.28,0.39-0.43,0.59
		c-0.11-0.09-0.19-0.2-0.24-0.34C13.46,8.8,13.42,8.32,13.8,7.91z"/>
	<path class="st48" d="M12.16,4.82c0.04,0.28,0.53,0.5,0.33,0.69c-0.37,0.35-0.89-0.06-1.34,0.02c-0.07,0.08-0.16,0.14-0.26,0.18
		c-0.88,1.01-2.07,1.57-3.2,2.22c-0.26,0.15-0.51,0.42-0.86,0.2c0.01-0.06,0.02-0.12,0.02-0.18c0.1-0.77,0.31-1.59-0.73-1.92
		C6.04,6.06,5.96,6.09,5.88,6.12c-0.04-0.3,0.14-0.48,0.37-0.63C7.23,5.4,7.93,4.63,8.95,4.47C10.11,4.3,11.12,4.42,12.16,4.82z"/>
	<path class="st26" d="M13.85,4.88c-0.16,0.51-0.46,0.28-0.74,0.14c0.04-0.55-0.65-0.5-0.77-0.92C13.18,3.73,13.32,4.69,13.85,4.88z
		"/>
	<path class="st49" d="M11.18,13.2c0.21-0.35,0.56-0.22,0.85-0.21c1.17,0.03,1.8-0.58,2.04-1.68c0.22,0,0.45,0,0.67,0
		c0.09,0.22,0.17,0.44,0.26,0.66c0.28,0.24,0.79,0.2,0.84,0.71c-0.82,0.8-0.32,1.77-0.33,2.67c-0.96,0.74-1.99,1.35-3.15,1.73
		c-0.5-0.83-0.61-1.77-0.74-2.7C11.56,13.97,11.52,13.53,11.18,13.2z"/>
	<path class="st50" d="M15.71,12.73c-0.24-0.25-0.48-0.5-0.71-0.75c1.24,0.1,1.76,1.19,2.57,1.88c-0.02,0.26-0.23,0.29-0.42,0.33
		C16.48,13.89,16.04,13.37,15.71,12.73z"/>
	<path class="st51" d="M17.32,12.93c-0.52-0.44-0.9-0.77-1.3-1.1C16.96,11.48,17.33,11.75,17.32,12.93z"/>
	<path class="st52" d="M15.71,12.73c0.61,0.36,1.04,0.89,1.44,1.46c-0.47,0.5-1.03,0.87-1.64,1.17
		C15.18,14.45,14.39,13.51,15.71,12.73z"/>
	<path class="st53" d="M13.79,9.35c0.01,0.1,0.02,0.19,0.02,0.29c0.02,0.13,0.03,0.25,0.05,0.38c-0.22,0.4-0.83,0.79-0.05,1.23
		c-0.4-0.02-0.39,0.42-0.64,0.58c-0.79-0.13-1.47,0.2-2.16,0.51c-0.1,0.03-0.2,0.07-0.31,0.1c-0.45-0.62-1.34-0.7-1.73-1.38
		c0.04-0.04,0.09-0.08,0.13-0.13c0.46-0.23,0.92,0.02,1.38,0.01c1.08-0.03,2.13-0.15,2.75-1.22C13.36,9.51,13.5,9.3,13.79,9.35z"/>
	<path class="st54" d="M6.83,8.14c1.19-0.97,2.94-1.19,3.72-2.74c0.06-0.12,0.29-0.05,0.42,0.07c-0.06,0.31,0.17,0.56,0.16,0.86
		c0,0.16-0.03,0.31-0.11,0.45c-0.4,0.57-1.23,0.6-1.58,1.25C9.35,8.17,9.23,8.28,9.1,8.38C7.92,9.02,7.93,9.02,8.64,10.1
		c0.19,0.28,0.52,0.52,0.38,0.94c0,0-0.04,0-0.04,0C7.8,10.85,6.89,9.62,6.83,8.14z"/>
	<path class="st55" d="M10.91,15.68c-1.45-0.61-1.49-1-0.24-2.29C11.27,14.1,11.39,14.85,10.91,15.68z"/>
	<path class="st56" d="M11.02,12.32c0.26-0.7,1.63-1.02,2.16-0.51C12.56,12.41,11.84,12.59,11.02,12.32z"/>
	<path class="st57" d="M12.81,6.7c0.01,0.1,0.02,0.2,0.03,0.3c-0.56,0.8-0.79,0.8-1.31-0.03c0.05-0.21,0.14-0.35,0.4-0.27
		C12.22,6.59,12.51,6.35,12.81,6.7z"/>
	<path class="st58" d="M11.93,6.7c-0.12,0.09-0.24,0.18-0.37,0.27c-0.43,0-0.39-0.46-0.62-0.65c-0.07-0.28-0.4-0.57,0.03-0.84
		c0.07,0,0.13,0.02,0.19,0.06C11.41,5.92,11.67,6.31,11.93,6.7z"/>
	<path class="st59" d="M10.94,6.31c0.44,0,0.42,0.43,0.62,0.65c0.4,0.78,0.84,0.4,1.28,0.04c0.56,0.05,0.72,0.53,0.96,0.91
		c-0.01,0.48-0.01,0.96-0.02,1.43c-0.98,1.72-2,2.16-3.95,1.74c-0.26-0.06-0.55-0.03-0.82-0.04c-0.23-0.31-0.47-0.61-0.69-0.92
		c-0.86-1.21-0.8-1.37,0.59-1.87C9.46,8.63,9.33,8.1,9.43,7.87c0.44-0.47,1.17-0.57,1.5-1.18C10.93,6.57,10.94,6.44,10.94,6.31z"/>
	<path class="st60" d="M10.93,6.69c-0.19,0.76-0.81,1.01-1.45,1.24C9.4,8.03,9.31,8.04,9.21,7.96C9.44,7.07,10.41,7.19,10.93,6.69z"
		/>
	<path class="st61" d="M9.21,7.96C9.3,7.95,9.39,7.94,9.48,7.93C9.5,8.05,9.49,8.22,9.56,8.27c0.27,0.17,0.65,0.33,0.31,0.69
		C9.5,9.32,9.34,8.87,9.16,8.65C9.07,8.52,9,8.38,8.92,8.25C9.01,8.15,9.11,8.06,9.21,7.96z"/>
	<path class="st62" d="M12.22,9.76c-0.36,0.42-0.76,0.35-1.25,0.17C11.38,9.4,11.83,9.72,12.22,9.76z"/>
</g>
</svg>
