<?xml version="1.0" encoding="utf-8"?>
<!-- Generator: Adobe Illustrator 23.0.2, SVG Export Plug-In . SVG Version: 6.00 Build 0)  -->
<svg version="1.1" id="Camada_1" xmlns="http://www.w3.org/2000/svg" xmlns:xlink="http://www.w3.org/1999/xlink" x="0px" y="0px"
	 viewBox="0 0 65.08 67.96" style="enable-background:new 0 0 65.08 67.96;" xml:space="preserve">
<style type="text/css">
	.st0{fill:#012430;}
	.st1{fill:#0D3240;}
	.st2{fill:#012633;}
	.st3{fill:#444757;}
	.st4{fill:#1D2323;}
	.st5{fill:#511518;}
	.st6{fill:#631620;}
	.st7{fill:#343433;}
	.st8{fill:#3B3C3B;}
	.st9{fill:#07282F;}
	.st10{fill:#A84A39;}
	.st11{fill:#515264;}
	.st12{fill:#424654;}
	.st13{fill:#30383F;}
	.st14{fill:#1D2E34;}
	.st15{fill:#4A1214;}
	.st16{fill:#1D2F3D;}
	.st17{fill:#5C1B1C;}
	.st18{fill:#772924;}
	.st19{fill:#501116;}
	.st20{fill:#943B2E;}
	.st21{fill:#712B25;}
	.st22{fill:#923C2F;}
	.st23{fill:#FDFDFD;}
	.st24{fill:#38648D;}
	.st25{fill:#306085;}
	.st26{fill:#012329;}
	.st27{fill:#5080AE;}
	.st28{fill:#FAFAFB;}
	.st29{fill:#0A2D35;}
	.st30{fill:#1B5A85;}
	.st31{fill:#D2D9E7;}
	.st32{fill:#A0AEC2;}
	.st33{fill:#5F799F;}
	.st34{fill:#BCD3ED;}
	.st35{fill:#5D89B7;}
	.st36{fill:#98BAE2;}
	.st37{fill:#7FA0C9;}
	.st38{fill:#2C363F;}
	.st39{fill:#4E6D94;}
	.st40{fill:#F0F2F5;}
	.st41{fill:#8BB0DC;}
	.st42{fill:#A4A5A6;}
	.st43{fill:#5E5F5F;}
	.st44{fill:#F2F2F2;}
	.st45{fill:#EEEEEE;}
	.st46{fill:#9A9B9D;}
	.st47{fill:#6F1A1B;}
	.st48{fill:#DD9A9A;}
	.st49{fill:#87251E;}
	.st50{fill:#C07874;}
	.st51{fill:#921923;}
	.st52{fill:#696868;}
	.st53{fill:#A8A9AB;}
	.st54{fill:#8D1A22;}
	.st55{fill:#D07F80;}
	.st56{fill:#C7C7C7;}
	.st57{fill:#C44851;}
	.st58{fill:#EACEE1;}
	.st59{fill:#9F202A;}
	.st60{fill:#AD2A33;}
	.st61{fill:#B9343D;}
	.st62{fill:#C13D47;}
	.st63{fill:#2A5F8A;}
	.st64{fill:#9CBCE4;}
	.st65{fill:#89AFDD;}
	.st66{fill:#467BAA;}
	.st67{fill:#6D9AC9;}
	.st68{fill:#22587B;}
	.st69{fill:#325F84;}
	.st70{fill:#1B5577;}
	.st71{fill:#4379A8;}
	.st72{fill:#132930;}
	.st73{fill:#97B9E3;}
	.st74{fill:#83ABDA;}
	.st75{fill:#769BC7;}
	.st76{fill:#4A6B92;}
	.st77{fill:#355F84;}
	.st78{fill:#7BA6D7;}
	.st79{fill:#13537E;}
	.st80{fill:#34618C;}
	.st81{fill:#E5C2D5;}
	.st82{fill:#5986B5;}
	.st83{fill:#306289;}
</style>
<g>
	<path d="M63.48,17.45c-0.43,4.71-1.99,8.92-6.26,11.65c-2.15,1.38-4.44,2.52-7.15,2.14C48.38,31,47.03,32,45.56,32.53
		c-0.39,0.14-0.5,0.61-0.66,0.97c-0.82,1.89-1.5,3.86-2.32,5.72c-0.82,1.87-1.68,3.73-2.39,5.64c-2.24,6.03-4.42,12.08-6.58,18.14
		c-0.86,2.41-2.46,3.6-5.01,3.63c-3.91,0.04-7.4-1.37-10.81-3.05c-5.88-2.9-11.15-6.56-14.62-12.32c-1.03-1.71-1.84-3.49-1.77-5.59
		c0.05-1.42,0.63-2.32,1.91-2.85c5.31-2.19,10.36-4.9,15.19-7.99c5.22-3.34,10.17-7.06,15.07-10.85c0.38-0.3,0.69-0.55,0.35-1.07
		c-0.08-0.12-0.12-0.32-0.09-0.46c0.47-3-0.64-5.97-0.15-8.97c0.69-4.3,3.22-7.32,6.8-9.52c3.7-2.27,7.71-3.15,11.88-1.51
		c3.24,1.27,5.95,3.38,8.13,6.13C62.53,11.16,63.4,14.1,63.48,17.45z"/>
	<path class="st0" d="M15.12,38.4c2.8-1.83,5.62-3.61,8.38-5.5c3.94-2.7,7.75-5.57,11.51-8.5c0.31-0.24,0.37-0.56,0.51-0.87
		c0.51-0.4,1.15-0.43,1.74-0.58c0.35-0.09,0.71-0.08,0.79,0.41c-1.42,1.49-3.03,2.79-4.66,4.04c-5.21,4.01-10.51,7.89-16.16,11.26
		c-0.44,0.27-0.88,0.55-1.41,0.62C15.23,39.28,15.23,38.8,15.12,38.4z"/>
	<path class="st1" d="M37.7,48.02c-1.78,5-3.54,10.02-5.38,15c-0.41,1.12-1.21,2.06-2.54,2.27c-0.54,0.22-1.08,0.1-1.67,0.07
		c-0.01-0.94,0.84-0.86,1.28-1.21c0.31-0.36,0.8-0.52,1.04-0.95c0.22-0.38,0.41-0.79-0.05-1.16c-0.23-0.15-0.46-0.3-0.53-0.59
		c0.35-0.97,0.04-1.77-0.62-2.51c-0.26-0.29-0.51-0.63-0.5-1.06c0.26-0.55,0.73-0.43,1.18-0.38c0.96,0.43,1.2,1.42,1.72,2.19
		c0.44-0.26,0.45-0.26,0.56-0.62c0.99-3.11,2.17-6.15,3.25-9.22c0.15-0.43,0.18-0.96,0.69-1.18c0.1-0.12,0.18,0.36,0.3,0.01
		c0.21-0.6,0.55-0.99,1.26-0.87c0.02,0,0.03,0.06,0.03,0.09C37.74,47.95,37.72,47.99,37.7,48.02z"/>
	<path class="st2" d="M37.7,48.02c-0.68-0.1-0.86,0.44-1.17,0.86c-0.29,0.38-0.2-0.08-0.28-0.17c-0.39-0.51-0.05-0.97,0.12-1.42
		c0.25-0.7,0.38-1.43,0.63-2.13c0.83-2.46,2.09-4.74,2.89-7.21c0.5-1.14,0.94-2.31,1.48-3.43c0.75-0.98,1.06-2.18,1.62-3.25
		c0.23-0.44,0.35-0.98,0.93-1.14c0.76,0.12,0.8,0.79,0.98,1.34c-1.38,1.87-2.23,3.98-2.99,6.16c-0.71,2.04-1.79,3.93-2.51,5.97
		C38.88,45.1,38.45,46.62,37.7,48.02z"/>
	<path class="st3" d="M6.24,42.97c1.61-0.8,3.21-1.59,4.82-2.39c0.59,0.35,0.39,0.68-0.02,1c-0.37,0.28-0.89,0.38-1.1,0.87
		c-0.48,0.62-1.29,0.73-1.88,1.18c-0.02,0.02-0.03,0.08-0.02,0.11c0.01,0.03,0.05,0.06,0.09,0.08c0.86,0.18,1.88-0.24,2.54,0.69
		c0.14,0.54,0.33,1.09-0.03,1.62c-0.43,0.2-0.84,0.02-1.26-0.06c-1.32-0.23-1.54-0.06-1.59,1.24c-0.01,0.2,0,0.39,0.01,0.59
		c0.3,2.33,1.45,4.19,3.13,5.76c0.48,0.45,1.15,0.76,1.15,1.57c-0.14,0.14-0.31,0.18-0.5,0.18c-0.44-0.05-0.81-0.27-1.2-0.47
		c-2.72-1.85-4.06-4.45-4.18-7.71c-0.02-0.55,0.11-1.11-0.04-1.65c-0.25-0.22-0.6-0.14-0.87-0.28C4.84,45,5.1,44.69,5.4,44.62
		C6.35,44.39,6.25,43.67,6.24,42.97z"/>
	<path class="st4" d="M44.9,31.47c-0.76-0.07-0.29-1.16-1.04-1.25c-0.1-0.14-0.11-0.3-0.1-0.47c0.03-0.55-0.13-1.07-0.3-1.59
		c-0.19-0.57-0.58-1.02-0.91-1.5c-1.1-1.45-2.34-2.69-4.34-2.7c-0.17-0.08-0.3-0.19-0.27-0.39c-0.01-0.46-0.24-0.48-0.61-0.34
		c-0.58,0.22-1.17,0.39-1.8,0.3c-0.48-1.09-1.08-2.17-0.22-3.35c0.38-0.03,0.71,0.04,0.89,0.42c0.32,0.49-0.24,1.37,0.7,1.6
		c2.01-0.14,3.86,0.28,5.42,1.63c1.47,1.33,2.56,2.9,2.89,4.9c0.23,1.02,0.56,1.17,1.41,0.64c0.42-0.26,0.72-0.75,1.3-0.73
		c0.6,0.18,0.38,0.49,0.11,0.77c-0.31,0.31-0.63,0.6-0.72,1.06C46.5,30.81,45.7,31.14,44.9,31.47z"/>
	<path class="st5" d="M57.85,7.49c4.09,3.26,5.23,9.27,3.63,13.67c-0.57,0.17-0.62,0.78-0.96,1.16c-0.35,0.4-0.59,0.36-0.69-0.18
		c0.1-0.8,0.39-1.56,0.47-2.36c0.23-1.53,0.05-3.08,0.11-4.61c0.06-1.46-0.75-2.63-1.27-3.9c-0.58-0.99-1.26-1.93-1.66-3.02
		C57.46,7.93,57.57,7.67,57.85,7.49z"/>
	<path class="st6" d="M59.99,22.29c0.59,0.06,0.44-0.53,0.68-0.78c0.23-0.24,0.28-0.83,0.81-0.34c-0.69,3.11-2.43,5.5-5.14,7.12
		c-1.31,0.79-2.7,1.46-4.24,1.73c0.24-0.89,1.3-1.08,1.64-1.89c0.71-0.72,1.65-1.09,2.47-1.67c1.2-0.85,2.09-1.94,2.85-3.18
		C59.3,22.9,59.41,22.36,59.99,22.29z"/>
	<path class="st7" d="M47.31,30.48c-0.34-0.47-0.1-0.77,0.27-1.07c0.19-0.15,0.68-0.12,0.44-0.6c-0.15-0.59,0.39-0.91,0.52-1.39
		c0.53-2.7-0.32-4.88-2.47-6.57c-0.28-0.24-0.54-0.49-0.58-0.88c0.17-0.63,0.68-0.77,1.23-0.86c0.18,0.02,0.34,0.1,0.49,0.2
		c0.62,0.45,1.04,1.1,1.62,1.6c1.47,1.75,1.62,3.8,1.41,5.95c-0.07,0.51-0.34,0.95-0.49,1.43c-0.03,0.1-0.06,0.2-0.1,0.29
		c-0.05,0.2-0.04,0.39-0.02,0.59c0.02,0.45-0.3,0.63-0.63,0.8C48.36,29.94,47.83,30.21,47.31,30.48z"/>
	<path class="st8" d="M46.78,19.22c-0.38,0.27-0.89,0.33-1.18,0.75c-0.49,0.27-0.87-0.04-1.19-0.3c-1.61-1.34-3.42-1.53-5.37-1
		c-0.76,0.09-1.49,0.22-1.86,1.03c-0.11,0.18-0.22,0.36-0.35,0.53c-0.23,0.21-0.43,0.47-0.77,0.51c-0.12-0.38-0.6-0.25-0.77-0.56
		c0.09-0.16,0.18-0.32,0.27-0.47c0.23-0.49,0.31-1.05,0.68-1.47c0.34-0.41,0.76-0.7,1.23-0.93c2.37-1.15,7.02-0.51,8.97,1.23
		C46.65,18.71,46.92,18.87,46.78,19.22z"/>
	<path class="st9" d="M29.52,64.32c-0.26,0.49-1.03,0.24-1.29,0.98c0.57,0,1.06,0,1.56,0c-1.4,0.55-2.82,0.24-4.18-0.09
		c-2.73-0.67-5.37-1.63-7.82-3.03c-0.23-0.39-0.33-0.77,0.15-1.06c0.68-0.1,1.23,0.26,1.81,0.5c2.9,1.23,5.79,2.43,9.02,2.42
		C29.04,64.03,29.32,64.09,29.52,64.32z"/>
	<path class="st10" d="M42.27,4.37c2.84-1.43,5.78-1.97,8.89-1.02c0.22,0.32,0.28,0.65,0.07,1c-0.64,0.45-1.31,0.06-1.97,0.09
		c-0.67,0.03-1.35-0.08-2.02,0.1c-0.12,0.04-0.25,0.06-0.38,0.08c-1.14-0.03-2.2,0.28-3.23,0.72c-0.36,0.15-0.71,0.37-1.14,0.26
		C42.17,5.23,41.97,4.85,42.27,4.37z"/>
	<path class="st11" d="M6.24,42.97c0.87,1.2,0.24,1.69-0.91,1.92c-0.03,0.01-0.07,0.06-0.07,0.07c0.02,0.07,0.05,0.13,0.08,0.2
		c-0.07,0.55-0.63,0.55-0.93,0.85c-0.09,0.07-0.18,0.13-0.27,0.2c-0.46,0.83-0.11,1.58,0.18,2.35c0.21,0.55,0.57,1.25-0.49,1.39
		c-0.75-0.93-1.01-2.07-1.17-3.2c-0.27-1.89,0.05-2.35,1.81-3.09C5.06,43.41,5.65,43.2,6.24,42.97z"/>
	<path class="st12" d="M3.84,49.95c0.67-0.32,0.52-0.81,0.22-1.28c-0.43-0.67-0.48-1.4-0.45-2.16c0.02-0.35,0.08-0.63,0.5-0.65
		c0.09,0.13,0.22,0.25,0.22,0.41c-0.05,2.88,1.85,4.77,3.47,6.8c0.29,0.36,0.72,0.64,0.7,1.19c-0.23,0.45-0.53,0.74-1.08,0.5
		C6.03,53.31,4.75,51.77,3.84,49.95z"/>
	<path class="st13" d="M7.42,54.77c0.4,0,0.64-0.31,0.93-0.5c0.91,0,1.28,0.81,1.87,1.27c0.6,0.76,1.55,1.13,2.13,1.92
		c0.12,0.3,0.44,0.46,0.57,0.73c0.18,0.41,0.23,0.83-0.42,0.87C10.6,57.88,8.79,56.59,7.42,54.77z"/>
	<path class="st14" d="M12.5,59.06c0.45-0.39,0.51-0.74-0.11-1.02c-0.16-0.07-0.36-0.2-0.12-0.42c0.46-0.17,0.77,0.14,1.11,0.35
		c1.21,0.89,2.51,1.64,3.8,2.4c0.35,0.21,0.86,0.27,0.87,0.84c-0.38,0.24-0.23,0.63-0.26,0.97C15.93,61.29,14.11,60.36,12.5,59.06z"
		/>
	<path class="st15" d="M36.28,18.5c-0.11,0.48-0.27,0.93-0.72,1.21c-0.92-2.19-1-4.44-0.51-6.73c0.42-0.08,0.81-0.06,1.11,0.31
		c0.18,0.32,0.23,0.68,0.17,1.03c-0.21,1.14-0.12,2.26,0.08,3.38C36.46,17.98,36.42,18.25,36.28,18.5z"/>
	<path class="st16" d="M9.9,42.28c-0.21-0.68,0.45-0.55,0.73-0.74c0.37-0.25,0.81-0.39,0.44-0.95c1.31-0.81,2.62-1.61,4.06-2.18
		c0.48,0.04,0.24,0.62,0.57,0.77c-0.01,0.17-0.06,0.33-0.19,0.42c-1.63,1.08-3.37,1.97-5.15,2.79C10.19,42.45,10.03,42.38,9.9,42.28
		z"/>
	<path class="st17" d="M36.02,13.22c-0.33-0.03-0.71,0.11-0.96-0.24c0.22-1.43,0.72-2.73,1.68-3.84C37.22,9,37.53,9.22,37.77,9.6
		c0.08,0.45-0.18,0.78-0.38,1.13c-0.56,0.74-0.65,1.68-1.06,2.49C36.23,13.29,36.13,13.29,36.02,13.22z"/>
	<path class="st18" d="M37.71,9.62c-0.32-0.16-0.65-0.32-0.97-0.48c0.67-1.15,1.58-2.09,2.63-2.89c0.42,0.1,0.67,0.38,0.82,0.76
		c-0.14,0.84-0.92,1.18-1.38,1.78C38.42,9.04,38.3,9.64,37.71,9.62z"/>
	<path class="st19" d="M48.99,29.99c0.15-0.32,0.5-0.53,0.47-0.94c0.59-0.55,1.39-0.16,2.04-0.44c0.73-0.12,1.42-0.58,2.21-0.31
		c-0.15,0.94-1.01,1.2-1.61,1.72C51.06,30.01,50.03,30,48.99,29.99z"/>
	<path class="st20" d="M40.11,6.98c-0.33-0.16-0.57-0.41-0.73-0.73c0.88-0.75,1.79-1.47,2.9-1.88c0.08,0.39,0.15,0.77,0.23,1.16
		C42.42,5.88,42.1,6,41.86,6.2c-0.49,0.3-0.92,0.69-1.47,0.88C40.28,7.09,40.18,7.06,40.11,6.98z"/>
	<path class="st21" d="M57.85,7.49c-0.08,0.23-0.15,0.46-0.23,0.69c-0.39,0.15-0.59-0.16-0.85-0.35c-0.43-0.47-0.92-0.87-1.47-1.19
		c-0.49-0.37-1.1-0.6-1.42-1.17c-0.11-0.3-0.1-0.59,0.13-0.84C55.49,5.32,56.7,6.36,57.85,7.49z"/>
	<path class="st22" d="M54,4.64c0.01,0.29,0.01,0.59,0.02,0.88c-0.05,0.03-0.09,0.05-0.14,0.08c-0.56,0.01-0.94-0.49-1.49-0.5
		c-0.5-0.11-1.04-0.18-1.24-0.77c0-0.33,0.01-0.66,0.01-0.98C52.28,3.38,53.06,4.19,54,4.64z"/>
	<path class="st23" d="M9.9,42.28c1.99-0.92,3.93-1.94,5.79-3.11c7.46-4.18,14.23-9.34,20.85-14.71c0.42-0.34,0.59-1.12,1.39-0.89
		c0.08,0.08,0.15,0.16,0.23,0.24c0.06,0.45-0.32,0.61-0.56,0.85c-1.22,1.26-2.55,2.41-3.62,3.81c-0.17,0.22-0.37,0.43-0.6,0.58
		c-3.98,2.51-7.4,5.81-11.55,8.08c-3.43,1.87-6.8,3.84-10.21,5.75C10.8,43.35,9.91,43.51,9,43.65c-0.42,0.15-0.82,0.36-1.28,0.34
		c-0.39-0.12-0.82-0.21-0.1-0.55C8.39,43.07,9.24,42.86,9.9,42.28z"/>
	<path class="st24" d="M31.39,59.78c-0.51-0.74-0.81-1.64-1.59-2.18c-0.71-0.33-1.1-0.93-1.34-1.64c0.05-0.43,0.45-0.61,0.67-0.92
		c0.54-0.82,0.95-1.71,1.32-2.61c0.21-0.47,0.43-0.94,0.93-1.18c0.52-0.08,0.81-0.45,1.09-0.83c0.31-0.41,0.68-0.76,1.12-1.04
		c0.67-0.42,1.19-0.43,1.4,0.48c-0.38,2.43-1.39,4.65-2.37,6.87C32.17,57.74,32.26,58.95,31.39,59.78z"/>
	<path class="st25" d="M18.04,61.21c-1.28-0.76-2.58-1.5-3.84-2.3c-0.35-0.22-0.79-0.38-0.99-0.81c0.47-0.34,0.92-0.07,1.33,0.11
		c1.07,0.48,2.18,0.88,3.26,1.34c1.23,0.56,2.48,1.02,3.85,1.05c0.12,0.01,0.24,0.06,0.34,0.13c2.2,1.96,4.79,2.05,7.49,1.53
		c0.35-0.07,0.65-0.29,1.02-0.32c0.21-0.07,0.42-0.25,0.48,0.19c0.17,1.19-0.63,1.69-1.47,2.18c-3.37,0.27-6.4-0.93-9.41-2.2
		C19.41,61.84,18.73,61.52,18.04,61.21z"/>
	<path class="st26" d="M28.57,55.95c0.41,0.55,0.82,1.1,1.23,1.65c-0.34,0.09-0.67,0.19-1.01,0.28c-0.59,0.06-0.8-0.46-1.15-0.76
		c-0.36-0.31-0.83-0.48-1.15-0.84c-2.11-2.53-4.54-4.69-7.42-6.32c-0.56-0.38-1.25-0.59-1.59-1.25c0.12-0.51,0.24-1.01,0.73-1.32
		c0.74-0.13,1.28,0.32,1.84,0.67c2.18,1.37,4.2,2.95,6,4.8C26.96,53.83,27.94,54.75,28.57,55.95z"/>
	<path class="st27" d="M27.81,56.93c0.33,0.32,0.65,0.64,0.98,0.95c0.4,0.55,0.79,1.11,1.21,1.64c0.5,0.63,0.63,1.24,0,1.86
		c-0.28,0.56-0.79,0.79-1.35,0.84c-1.51,0.14-3.01,0.1-4.44-0.51c-0.21-0.17-0.32-0.36-0.05-0.58c0.16-0.13,0.36-0.18,0.56-0.19
		c1.44-0.08,1.6-1.06,1.53-2.19c0.09-0.06,0.19-0.1,0.29-0.13c0.54-0.19,0.74-0.64,0.88-1.14C27.47,57.26,27.36,56.89,27.81,56.93z"
		/>
	<path class="st28" d="M31.39,59.78c0.54-2.8,2.02-5.26,2.8-7.97c0.2-0.7,0.42-1.4,0.63-2.11c0.2-1.94,0.8-3.71,2.24-5.1
		c0.34,0.12,0.28,0.37,0.2,0.62c-0.34,1.16-0.67,2.33-1.01,3.49c-1.44,3.96-2.88,7.91-4.37,12.01
		C31.67,60.33,31.53,60.05,31.39,59.78z"/>
	<path class="st29" d="M24.03,61.43c1.99,0.47,3.98,0.89,5.95-0.05c0.17,0.19,0.35,0.38,0.52,0.57c-0.36,0.56-0.95,0.68-1.54,0.77
		c-2.2,0.32-4.33,0.15-6.3-0.97c-0.38-0.21-0.78-0.42-0.76-0.96C22.81,60.36,23.41,60.94,24.03,61.43z"/>
	<path class="st30" d="M43.66,28.06c0.23,0.55,0.53,1.09,0.33,1.72c-1.12,1.45-1.48,3.28-2.44,4.81c-0.26,1.2-0.89,2.24-1.38,3.34
		c-0.88,1.65-1.38,3.47-2.35,5.08c-1.17,0.25-1.75,1.24-2.51,2c-0.34,0.34-0.73,0.81-0.93-0.12c0.03-0.24,0.15-0.45,0.15-0.47
		c-0.95,2-2.34,4-3.56,6.1c-0.16,0.28-0.4,0.5-0.73,0.59c-0.25,0.05-0.48,0.02-0.69-0.13c-0.18-0.23-0.09-0.46-0.01-0.69
		c3.59-7.05,7.96-13.65,11.75-20.58c0.56-0.71,0.7-1.71,1.56-2.2C43.3,27.45,43.47,27.77,43.66,28.06z"/>
	<path class="st31" d="M37.68,42.97c0.62-1.37,1.23-2.75,1.87-4.11c0.16-0.33,0.15-0.8,0.62-0.93c-0.29,1.46-1.06,2.73-1.61,4.09
		c-0.43,1.07-0.86,2.13-1.3,3.2c-0.08-0.18-0.16-0.37-0.24-0.55C36.84,43.95,37.13,43.41,37.68,42.97z"/>
	<path class="st32" d="M41.55,34.59c0.64-1.69,1.22-3.41,2.44-4.81c-0.04,0.15-0.09,0.3-0.13,0.45
		C43.02,31.64,42.68,33.33,41.55,34.59z"/>
	<path class="st33" d="M7.45,48.01c-0.05-2.57,0.14-2.72,2.58-2.13c0.19,0.05,0.37,0.13,0.56,0.2c0.14-0.06,0.26-0.04,0.37,0.06
		c0.47,2.19,1.14,4.37,0.32,6.62c-0.76,0.38-1.07-0.28-1.43-0.68C8.79,50.87,8.01,49.5,7.45,48.01z"/>
	<path class="st34" d="M10.05,55.73c-0.57-0.49-1.13-0.97-1.7-1.46c-1.05-1.38-2.2-2.68-3.18-4.13c-0.9-1.32-1.12-2.75-1.06-4.27
		c0.06-0.03,0.12-0.04,0.18-0.05c0.83,0.16,1.43-0.47,2.17-0.63c0.08,0.07,0.23,0.16,0.22,0.21c-0.9,4.03,0.84,6.97,3.86,9.39
		c-0.03,0.26-0.68,0.35-0.21,0.78C10.42,55.64,10.23,55.81,10.05,55.73z"/>
	<path class="st35" d="M11.53,55.25c0.15-0.01,0.3-0.02,0.46-0.03c0.2-0.34,0.43-0.64,0.81-0.79c0.89,0.23,1.39,1,2.11,1.49
		c0.69,0.47,1.42,0.87,2.11,1.34c0.6,0.9,0.57,0.98-0.63,1.49C14.37,58.13,12.48,57.34,11.53,55.25z"/>
	<path class="st36" d="M11.53,55.25c1.26,1.6,2.95,2.58,4.78,3.36c0.72,0.09,1.34,0.36,1.77,0.97c-0.03,0.2-0.11,0.33-0.34,0.25
		c-1.51-0.57-3.02-1.15-4.53-1.72c-0.31-0.16-0.63-0.33-0.94-0.49c-0.74-0.63-1.48-1.26-2.22-1.89c0.34-0.59-0.56-0.62-0.49-1.1
		c0.38-0.24,0.58,0.63,0.99,0.17C10.88,54.94,11.21,55.09,11.53,55.25z"/>
	<path class="st37" d="M12.72,54.52c-0.01,0.48-0.42,0.54-0.73,0.69c-0.33-0.62-0.91-0.99-1.4-1.45C8.91,52.19,7.84,50.28,7.45,48
		c0.91,1.1,1.4,2.47,2.35,3.55c0.4,0.45,0.74,0.94,1.24,1.28C11.83,53.17,12.39,53.73,12.72,54.52z"/>
	<path class="st38" d="M10.82,46.12c-0.08-0.01-0.15-0.03-0.23-0.05c0-0.48,0-0.95,0-1.43c0.86-0.56,1.58,0.13,2.37,0.26
		c0.57,0.26,1.26,0.3,1.66,0.88c0.23,0.48,0.42,0.97,0.13,1.5c-0.15,0.15-0.33,0.19-0.53,0.19C13.01,47.22,11.95,46.6,10.82,46.12z"
		/>
	<path class="st39" d="M12.97,45.16c-0.83-0.01-1.53-0.58-2.37-0.51c-0.81-0.88-1.98-0.14-2.87-0.66c0.41-0.15,0.69-0.57,1.18-0.57
		c1.31,0.05,2.6-0.65,3.92-0.12c0.3,0.58,0.35,1.22,0.36,1.86c0,0.01-0.06,0.03-0.09,0.03C13.04,45.19,13,45.17,12.97,45.16z"/>
	<path class="st40" d="M6.47,45.19c-0.41,0.58-1.09,0.71-1.66,1.02c-0.37,0.2-0.45-0.11-0.51-0.39c0.35-0.22,0.7-0.44,1.05-0.66
		C5.72,45.17,6.1,45.18,6.47,45.19z"/>
	<path class="st41" d="M12.99,43.69c-1.33-0.56-2.74-0.08-4.1-0.27c3.25-0.53,5.68-2.75,8.51-4.13c5.67-2.75,10.53-6.73,15.6-10.37
		c1.4-1,2.42-2.52,3.65-3.77c0.47-0.48,1-0.89,1.5-1.33c2.29-0.27,3.53,1.2,4.68,2.83c-0.05,0.15-0.08,0.31-0.16,0.45
		c-0.3,0.51-0.65,0.98-0.96,1.49c-3.99,6.15-8.1,12.22-11.75,18.59c-0.5,0.86-0.86,1.8-1.49,2.59c-0.12,0.14-0.27,0.23-0.45,0.27
		c-0.81-0.17-1.25-0.84-1.73-1.4c-1.95-2.28-4.47-3.54-7.31-4.31c-0.88-0.24-1.54,0.19-2.25,0.54
		C15.45,44.58,14.12,44.48,12.99,43.69z"/>
	<path class="st42" d="M36.73,20.06c0.07-0.13,0.14-0.27,0.21-0.4c0.44-0.13,0.48-1.07,1.22-0.59c1.1,1.13,2.59,1.04,3.97,1.26
		c0.46,0.07,0.95,0.01,1.42,0.11c0.71,0.15,1.16,0.5,1.04,1.3c0,0.12-0.03,0.23-0.07,0.34c-0.74,0.66-1.55,1.24-2.27,1.92
		c-1.34-0.73-2.63-1.54-4.28-1.5c-0.41,0.01-0.83,0.11-1.25,0.05C36.39,21.71,36.27,20.88,36.73,20.06z"/>
	<path class="st43" d="M42.26,23.99c0.37-1.03,1.22-1.53,2.16-1.92c0.16,0.79,0.52,1.43,1.19,1.94c0.6,0.46,0.97,1.16,1.15,1.91
		c0.2,0.87,0.74,1.63,0.74,2.56c-0.79,0.59-1.62,0.92-2.57,0.38c-0.1-1.59-1.08-2.74-1.94-3.95C42.76,24.59,42.37,24.4,42.26,23.99z
		"/>
	<path class="st44" d="M44.93,28.86c0.92,0.05,1.8-0.06,2.6-0.54c0.16-0.41,0.41-0.73,0.81-0.91c0.2-0.09,0.46-0.18,0.44,0.22
		c-0.26,0.4-0.51,0.79-0.77,1.19c-0.53,0.34-1.04,0.74-1.6,1C45.42,30.29,44.98,29.97,44.93,28.86z"/>
	<path class="st45" d="M36.73,20.06c-0.15,0.83,0.32,1.66-0.01,2.48c-1.37-0.18-0.47-1.19-0.65-1.8
		C36.28,20.51,36.4,20.18,36.73,20.06z"/>
	<path class="st46" d="M42.52,26.95c0.1-0.1,0.21-0.2,0.31-0.3c0.44,0.38,0.71,0.85,0.83,1.41c-0.23-0.17-0.46-0.34-0.69-0.5
		c-0.15-0.02-0.27-0.07-0.35-0.21C42.57,27.22,42.6,27.07,42.52,26.95z"/>
	<path class="st47" d="M49.94,27.16c0-0.55-0.05-1.11,0.02-1.66c0.23-1.77-0.54-3.2-1.47-4.59c0.17-0.52,0.68-0.63,1.08-0.86
		c1.55-0.89,3.03-1.86,4.3-3.14c1.28-1,1.8-2.53,2.65-3.82c0.51-0.54,1.02-1.07,1.57-1.56c0.34-0.31,0.68-0.67,1.23-0.48
		c0.66,1.23,1.42,2.42,1.41,3.89c-0.22,1.21,0.01,2.45-0.22,3.67c-0.46,3.87-2.49,6.63-5.97,8.34c-0.36,0.18-0.75,0.25-1.16,0.26
		C52.23,27.15,51.08,27.4,49.94,27.16z"/>
	<path class="st48" d="M53.54,26.95c2.93-0.97,4.96-2.88,6.02-5.79c0.28-0.78,0.5-1.59,0.75-2.38c0.61,0.3,0.24,0.79,0.23,1.22
		c0.05,0.82-0.36,1.53-0.54,2.3c-1.35,2.78-3.52,4.71-6.28,6.01c-0.67,0.19-1.35,0.37-2.02,0.56c-0.77-0.03-1.59,0.43-2.27-0.29
		l0.01-0.01c0.79-0.57,1.82-0.05,2.63-0.58c0.18-0.43-0.49-0.37-0.38-0.83C52.21,26.8,52.93,27.2,53.54,26.95z"/>
	<path class="st49" d="M59.31,11.06c-1.13,0.41-1.67,1.56-2.65,2.16c-0.18-0.15-0.26-0.35-0.3-0.57c-0.09-1.43-0.08-2.87,0.03-4.3
		c0.07-0.3,0.21-0.54,0.52-0.65c0.24,0.16,0.48,0.32,0.71,0.48C58.18,9.14,58.74,10.1,59.31,11.06z"/>
	<path class="st50" d="M60.54,19.99c-0.13-0.4,0.1-0.86-0.23-1.22c0.23-1.26,0.02-2.58,0.41-3.82
		C60.8,16.63,60.87,18.32,60.54,19.99z"/>
	<path class="st51" d="M56.65,12.74c0,0.16,0,0.32,0.01,0.48c-0.73,1.38-1.25,2.91-2.64,3.84c-2.11,0.15-4.06,1.1-6.17,1.24
		c-0.76,0.05-0.42,0.86-0.79,1.17c-0.09-0.09-0.18-0.17-0.27-0.26c-2.39-2.16-5.22-2.43-8.23-1.95c-0.91,0.15-1.58,0.68-2.27,1.23
		c-0.65-1.73-0.33-3.51-0.26-5.28c0.08,0,0.15-0.01,0.23-0.01c0.61-0.15,1.11,0.1,1.54,0.47c3.56,3.02,7.66,3.07,11.9,2.06
		c2.1-0.5,4.09-1.35,5.89-2.6C55.9,12.93,56.2,12.61,56.65,12.74z"/>
	<path class="st52" d="M48.79,27.63c-0.67-0.22-0.69,0.73-1.25,0.69c-0.39-0.35-0.62-0.75-0.75-1.28c-0.32-1.35-0.76-2.66-2.11-3.39
		c-0.73-0.4-0.36-1.01-0.27-1.57c0.01-0.07,0.01-0.14,0.02-0.21c0.39-0.65,0.93-1.1,1.7-1.23c1.82,0.92,2.46,2.64,2.81,4.44
		C49.09,25.88,49.29,26.81,48.79,27.63z"/>
	<path class="st53" d="M46.14,20.64c-0.54,0.45-1.04,0.94-1.7,1.23c-0.06-1.04-0.76-1.26-1.62-1.2c-1.28,0.09-2.49-0.29-3.72-0.54
		c-0.6-0.12-1.13-0.39-1.16-1.13c-0.07-0.8,0.81-0.02,0.91-0.54c2.35-0.88,4.37-0.19,6.25,1.28c0.15,0.11,0.34,0.16,0.51,0.24
		C45.78,20.2,45.96,20.42,46.14,20.64z"/>
	<path class="st54" d="M47.06,19.48c-0.34-1.02-0.11-1.52,1.1-1.57c1.66-0.06,3.23-0.63,4.82-1.1c0.42-0.12,0.77-0.14,1.05,0.25
		c-1.52,1.75-3.5,2.84-5.54,3.85C48.01,20.44,47.53,19.96,47.06,19.48z"/>
	<path class="st55" d="M53.54,26.95c-0.48,0.42-1.09,0.07-1.7,0.3c0.32,0.26,0.95-0.01,0.95,0.59c0,0.69-0.63,0.51-0.98,0.63
		c-0.77,0.25-1.58,0.11-2.38,0.09c-0.12-0.57,0.39-0.91,0.51-1.39C51.11,26.72,52.34,27.06,53.54,26.95z"/>
	<path class="st55" d="M49.42,28.57c0.7,0.5,1.53,0.1,2.27,0.29c-0.71,0.41-1.49,0.06-2.23,0.2C49.26,28.91,49.11,28.76,49.42,28.57
		z"/>
	<path class="st56" d="M38.85,18.45c-0.02,0.66-0.82,0.01-0.91,0.54c-0.45,0.04-0.44,0.78-1,0.66
		C37.33,18.87,37.88,18.33,38.85,18.45z"/>
	<path class="st57" d="M51.15,4.33c0.46,0.23,0.89,0.53,1.43,0.5c0.24,1.57-0.6,2.69-1.68,3.57c-1.29,1.05-2.75,1.42-4.55,1.23
		c-1.97-0.2-3.27-1.05-4.33-2.55c-0.22-0.31-0.54-0.63-0.24-1.07c0.24-0.16,0.48-0.32,0.72-0.48c1.39-0.66,2.76-1.39,4.38-1.16
		c-0.1,0.58-0.7,0.57-1.04,0.88s-0.63,0.63-0.45,1.12c0.16,0.44,0.56,0.52,0.97,0.54c0.68,0.04,1.35-0.03,1.93-0.44
		c0.42-0.3,0.66-0.7,0.56-1.22c-0.09-0.49-0.51-0.54-0.92-0.6c-0.31-0.04-0.64-0.03-0.87-0.3C48.42,3.81,49.78,4.16,51.15,4.33z"/>
	<path class="st58" d="M47.06,4.35c0.28,0.01,0.56,0.02,0.84,0.03c0.51,0.01,1.12-0.09,1.31,0.56c0.17,0.61-0.01,1.21-0.51,1.63
		c-0.86,0.72-1.9,0.85-2.94,0.67c-0.82-0.15-1.06-1.22-0.51-1.94c0.42-0.55,1.08-0.64,1.64-0.93C46.94,4.39,47,4.38,47.06,4.35z"/>
	<path class="st59" d="M56.65,12.74c-4.03,3.15-8.67,4.24-13.67,3.8c-1.62-0.14-3.12-0.93-4.45-1.91c-0.73-0.54-1.45-1.07-2.28-1.41
		c0.03-0.98,0.34-1.86,0.97-2.63c0.71-0.44,1.12,0.1,1.53,0.51c0.88,0.88,1.84,1.66,2.97,2.18c4.64,2.13,11.55,0.48,14.38-4.59
		c0.13-0.23,0.17-0.56,0.56-0.5C56.66,9.7,56.66,11.22,56.65,12.74z"/>
	<path class="st60" d="M56.66,8.18c-1.36,3.59-6.11,6.08-9.53,6.27c-3.53,0.2-6.49-0.76-8.86-3.43c-0.28-0.32-0.62-0.49-1.05-0.45
		c0.16-0.32,0.33-0.64,0.49-0.96c0.35-0.29,0.48-0.79,0.94-0.96c0.66-0.33,0.95,0.2,1.24,0.59c3.43,4.57,9.29,3.6,12.37,1.17
		c0.86-0.67,1.48-1.55,2.02-2.48c0.31-0.54,0.52-1.18,1.18-1.44c0.59,0.28,1.1,0.63,1.44,1.21C56.82,7.86,56.74,8.02,56.66,8.18z"/>
	<path class="st61" d="M55.47,6.49c-1.49,3.14-3.66,5.38-7.26,6.09c-3.21,0.63-6.56-0.45-8.5-3.07c-0.29-0.39-0.49-0.83-1.06-0.86
		c0.49-0.56,0.97-1.12,1.46-1.68c0.08,0,0.16,0,0.23,0c0.87,1.29,1.82,2.51,3.21,3.28c0.73,0.4,1.46,0.66,2.19,0.02
		c0.45,0.27,0.93,0.37,1.45,0.21c1.98,0.58,3.37-0.49,4.65-1.72c0.63-0.6,1.11-1.36,1.4-2.2c0.14-0.41,0.28-0.84,0.76-1.01
		l0.01-0.04C54.5,5.84,54.98,6.17,55.47,6.49z"/>
	<path class="st62" d="M45.8,10.34c-0.22,0.35-0.31,0.77-0.92,0.72c-1.62-0.13-4.19-2.41-4.54-4.09c0.48-0.32,0.96-0.64,1.44-0.96
		c1.03,1.86,2.18,3.37,4.71,3.25c0.8-0.04,1.63,0.16,2.46-0.1c2.14-0.67,3.15-2.27,3.63-4.33c0.58,0.04,0.92,0.56,1.44,0.73
		c-0.53,1.1-0.93,2.26-1.73,3.23c-1.07,1.29-2.49,1.9-4.06,2.26c-0.47,0.11-0.85-0.07-1.13-0.47C46.73,10.16,46.32,9.97,45.8,10.34z
		"/>
	<path class="st63" d="M37.68,42.97c-0.22,0.57-0.44,1.13-0.66,1.7c-0.93,1.59-1.54,3.32-2.19,5.03c-0.57-0.85-1.03-0.1-1.42,0.17
		c-0.4,0.28-0.63,0.79-1,1.13c-0.25,0.23-0.45,0.9-0.98,0.31c-0.2-0.32-0.05-0.62,0.08-0.91c0.86-1.8,1.78-3.57,2.69-5.34
		c0.08-0.16,0.21-0.22,0.39-0.15c0.04,0.36,0.21,0.44,0.4,0.12c0.43-0.74,1.13-1.22,1.67-1.85C36.95,42.84,37.26,42.68,37.68,42.97z
		"/>
	<path class="st64" d="M34.58,44.91c-1.05,2.13-2.11,4.27-3.16,6.4c-0.24,0.41-0.49,0.83-0.73,1.24c-0.44-0.22-0.85-0.46-0.88-1.03
		c0.04-0.33,0.23-0.51,0.54-0.59c1.51-2.46,3.02-4.92,4.53-7.38c0.04,0.02,0.08,0.04,0.12,0.06C34.86,44.04,34.72,44.48,34.58,44.91
		z"/>
	<path class="st65" d="M30,51.59c0.23,0.32,0.46,0.64,0.69,0.96c-0.42,0.92-0.72,1.9-1.4,2.68c-0.66-0.26-0.88-0.8-0.91-1.46
		C28.76,52.93,28.94,51.93,30,51.59z"/>
	<path class="st30" d="M28.53,53.79c0.08,0.57,0.53,0.95,0.76,1.44c-0.24,0.24-0.48,0.48-0.72,0.71c-1.06-0.8-1.74-1.96-2.67-2.88
		c0.43-0.34,0.75-0.01,1.07,0.18C27.46,53.54,27.96,53.76,28.53,53.79z"/>
	<path class="st66" d="M18,59.56c-0.59-0.26-1.21-0.48-1.68-0.95c0.18-0.4,1.56-0.31,0.49-1.21c0.01-0.16,0.09-0.29,0.16-0.42
		c0.25-0.5-0.44-0.9-0.16-1.4c0.59-0.56,1.14-0.38,1.66,0.1c0.58,0.54,1.24,0.96,1.93,1.34c1.46,0.79,2.9,1.62,4.49,2.12
		c-1.53-0.52-2.95-1.27-4.35-2.07c-0.53-0.23-1.01-0.56-1.46-0.92c-0.3-0.24-0.66-0.53-0.08-0.87c0.53-0.17,1.03-0.06,1.49,0.22
		c1.7,0.98,3.46,1.84,5.26,2.61c0.31,0.13,0.71,0.23,0.67,0.72c-0.03,0.02-0.09,0.05-0.09,0.07c0.01,0.52,0.94,0.98,0.01,1.6
		c-0.57,0.38-1.07,0.78-1.8,0.75c-0.17-0.01-0.35,0.13-0.53,0.2c-0.71-0.21-1.42-0.43-2.13-0.64c-0.09-0.02-0.17-0.03-0.26-0.05
		C20.34,60.62,19.07,60.39,18,59.56z"/>
	<path class="st67" d="M18,59.56c1.22,0.4,2.43,0.79,3.65,1.19c-1.45,0.33-2.65-0.39-3.9-0.92C17.83,59.74,17.91,59.65,18,59.56z"/>
	<path class="st68" d="M26.43,58.81c-2.11-1.14-4.37-1.97-6.4-3.25c-0.27-0.17-0.69-0.08-1.04-0.12c-0.52-1.71-1.2-3.36-1.81-5.04
		c-0.15-0.41-0.27-0.91,0.16-1.21c0.4-0.28,0.74,0.11,1.08,0.28c0.25,0.12,0.48,0.3,0.78,0.26c2.93,1.64,5.43,3.77,7.46,6.44
		c-0.8,0.54-1.3-0.33-2.03-0.45c0.7,0.46,1.41,0.75,2.1,1.09c0.28,0.14,0.64,0.3,0.44,0.71c-0.17,0.36-0.54,0.3-0.85,0.19
		c-0.83-0.31-1.59-0.74-2.34-1.21c-0.44-0.27-0.88-0.55-1.55-0.8c1.19,0.84,2.29,1.45,3.46,1.94c0.37,0.16,0.77,0.29,1,0.63
		c0.16,0.23,0.26,0.54-0.23,0.53C26.59,58.82,26.51,58.82,26.43,58.81z"/>
	<path class="st69" d="M19.2,49.74c-0.27,0.32-0.5,0.01-0.74-0.05c-0.36-0.09-0.69-0.62-1.05-0.24c-0.32,0.33,0.04,0.76,0.15,1.12
		c0.46,1.63,1.63,3.05,1.43,4.88c0.24,0.67,0.24,0.67,1.67,1.46c0.05,0.21,0.01,0.33-0.24,0.23c-0.81-0.25-1.46-0.78-2.09-1.29
		c-0.52-0.42-0.96-0.48-1.5-0.14c-0.81,0-1.51-0.28-2.09-0.84c-0.3-2-0.75-3.98-1.03-5.98c-0.08-0.6-0.1-1.2,0.49-1.61
		c0.16,0,0.32,0,0.48,0c1.16,0.09,2.09,0.62,2.88,1.44C18.1,49.06,18.65,49.4,19.2,49.74z"/>
	<path class="st70" d="M28.53,53.79c-0.24,0.27-0.4,0.52-0.86,0.21c-0.54-0.37-1.07-0.82-1.77-0.93c-1.94-1.8-3.94-3.53-6.23-4.9
		c-0.44-0.26-0.92-0.44-1.39-0.66c-0.42-0.11-0.93-0.08-1.09-0.64c0-0.55-0.13-1.05-0.48-1.5c-0.16-0.21-0.35-0.48,0.11-0.59
		c0.35-0.08,0.7-0.16,1.05,0.03c2.31,1.25,4.77,2.27,6.58,4.3c0.5,0.57,1.15,1,1.65,1.56c0.62,0.68,1.01,0.65,1.39-0.16
		c0.12-0.26,0.3-0.47,0.57-0.59c0.09-0.08,0.17-0.16,0.26-0.23c0.28-0.12,0.43,0.04,0.56,0.25c0.05,1.01-0.88,1.65-1.03,2.67
		c0.58,0.03,0.65-0.42,0.85-0.71c0.27-0.37,0.32-0.93,0.91-1.01c0.24,0.01,0.48,0.01,0.73,0.02c-0.16,0.2-0.38,0.36-0.34,0.66
		C29.51,52.32,29.02,53.06,28.53,53.79z"/>
	<path class="st71" d="M26.66,58.83c0.32-0.78-0.45-0.7-0.75-0.82c-1.48-0.59-2.77-1.49-4.08-2.42c1.98-0.15,3.26,1.78,5.17,1.86
		c-0.96-0.74-2.17-1.03-3.11-1.93c1.18-0.64,1.77,0.87,2.76,0.65c0.38,0.25,0.77,0.5,1.15,0.75c0.02,0.72-0.42,1.26-0.7,1.87
		C27,59.04,26.83,59.03,26.66,58.83z"/>
	<path class="st72" d="M17.3,46.82c0.33,0.23,0.66,0.47,0.98,0.7c-0.39,0.31-0.21,0.97-0.73,1.2c-0.96-0.48-1.92-0.96-2.88-1.44
		c-0.08-0.47-0.17-0.94-0.25-1.41C15.51,45.78,16.5,46.03,17.3,46.82z"/>
	<path class="st73" d="M41.54,29.79c-2.88,5.51-6.3,10.7-9.31,16.13c-0.83,1.49-1.64,3-2.46,4.5c-0.42,0.1-0.72-0.01-0.83-0.46
		c-0.17-0.61,0.2-1.09,0.46-1.56c3.54-6.29,7.52-12.32,11.39-18.41c0.13-0.21,0.25-0.41,0.48-0.51
		C41.47,29.49,41.63,29.52,41.54,29.79z"/>
	<path class="st74" d="M29.01,49.86c0.16,0.32,0.48,0.41,0.76,0.56c-0.05,0.16-0.1,0.33-0.15,0.49c-0.34,0.58-0.63,1.18-1.03,1.71
		c-0.16,0.21-0.18,0.86-0.7,0.52c-0.37-0.25-0.52-0.64-0.21-1.13c0.41-0.67,0.76-1.38,1.13-2.07
		C28.85,49.85,28.92,49.82,29.01,49.86z"/>
	<path class="st75" d="M41.54,29.79c-0.07-0.08-0.15-0.16-0.22-0.24c-0.21-0.47,0.19-0.72,0.37-1.05c0.38-0.36,0.38-1.08,1.09-1.12
		c0.06,0.06,0.13,0.12,0.19,0.18C42.49,28.3,42.02,29.04,41.54,29.79z"/>
	<path class="st76" d="M14.19,47.27c-0.56,1.56,0.15,3.03,0.37,4.52c0.16,1.05,0.38,2.09,0.35,3.16c-0.19,0.13-0.35,0.2-0.04,0.45
		c0.72,0.59,1.68,0.88,2.18,1.73c-0.08,0.08-0.16,0.17-0.25,0.25c-1.55-0.69-2.77-1.85-4.09-2.87c-0.62-0.5-1.2-1.05-1.68-1.68
		c0.59-1.71,0.23-3.43-0.09-5.11c-0.1-0.55,0.11-1.09-0.14-1.6C12.11,46.04,13.08,46.87,14.19,47.27z"/>
	<path class="st77" d="M17.3,46.82c-0.96-0.32-1.92-0.63-2.88-0.95c-0.48-0.24-0.97-0.47-1.45-0.71c0.29-0.44-0.24-0.59-0.33-0.91
		c-0.11-0.4,0.02-0.51,0.35-0.56c1.31,0.17,2.56,0.62,3.83,0.97c0.08,0.03,0.11,0.07,0.1,0.12c-0.01,0.06-0.02,0.09-0.04,0.09
		C16.88,45.55,17.92,46,17.3,46.82z"/>
	<path class="st78" d="M16.87,44.87c-0.02-0.07-0.04-0.14-0.06-0.21c0.62-0.97,1.53-0.83,2.42-0.58c2.91,0.81,5.51,2.13,7.45,4.55
		c0.39,0.49,0.92,0.87,1.38,1.3c-0.97,2.03-1.05,2.11-2.54,0.56c-2.24-2.34-4.88-4.03-7.75-5.44C17.48,44.9,17.17,44.94,16.87,44.87
		z"/>
	<path class="st79" d="M41.79,28.59c-0.16,0.32-0.31,0.64-0.47,0.96C37.6,35.72,33.53,41.67,30,47.96c-0.35,0.62-0.66,1.27-0.99,1.9
		c-0.07,0.02-0.13,0.05-0.2,0.08c-0.16-0.08-0.32-0.16-0.48-0.24c1.57-3.19,3.42-6.22,5.33-9.21c2.6-4.07,5.27-8.09,7.9-12.14
		C41.78,28.31,41.9,28.34,41.79,28.59z"/>
	<path class="st80" d="M41.79,28.59c-0.08-0.08-0.15-0.16-0.23-0.24c0.32-0.47,0.64-0.94,0.95-1.41c0.09,0.14,0.17,0.29,0.26,0.43
		C42.45,27.78,42.12,28.19,41.79,28.59z"/>
	<path class="st81" d="M45.8,10.34c0.02-0.45,0.21-0.77,0.7-0.73c0.59,0.05,0.57,0.53,0.59,0.96C46.55,11.1,46.1,11.13,45.8,10.34z"
		/>
	<path class="st82" d="M17.06,57.14c-1.08-0.6-2.13-1.23-3.02-2.18c0.34-0.31,0.61,0.12,0.87,0c0.71,0.05,1.34,0.31,1.91,0.75
		C17.53,56.73,17.53,56.73,17.06,57.14z"/>
	<path class="st83" d="M20.42,57.14c0.08-0.08,0.16-0.16,0.24-0.23c1.36,0.93,2.95,1.42,4.34,2.3
		C23.33,58.81,21.84,58.05,20.42,57.14z"/>
</g>
</svg>
