<?xml version="1.0" encoding="utf-8"?>
<!-- Generator: Adobe Illustrator 23.0.2, SVG Export Plug-In . SVG Version: 6.00 Build 0)  -->
<svg version="1.1" id="Camada_1" xmlns="http://www.w3.org/2000/svg" xmlns:xlink="http://www.w3.org/1999/xlink" x="0px" y="0px"
	 viewBox="0 0 64.23 67.16" style="enable-background:new 0 0 64.23 67.16;" xml:space="preserve">
<style type="text/css">
	.st0{fill:#FEFEFE;}
	.st1{fill:#0E303B;}
	.st2{fill:#57151A;}
	.st3{fill:#494B5C;}
	.st4{fill:#012430;}
	.st5{fill:#363735;}
	.st6{fill:#012633;}
	.st7{fill:#1B2222;}
	.st8{fill:#A64838;}
	.st9{fill:#511517;}
	.st10{fill:#353C46;}
	.st11{fill:#762923;}
	.st12{fill:#1B2E3D;}
	.st13{fill:#393F4D;}
	.st14{fill:#82342A;}
	.st15{fill:#6F1A1B;}
	.st16{fill:#477CAA;}
	.st17{fill:#37648C;}
	.st18{fill:#305F85;}
	.st19{fill:#01232A;}
	.st20{fill:#FAFAFB;}
	.st21{fill:#9ABCE3;}
	.st22{fill:#9F212A;}
	.st23{fill:#DE9C9D;}
	.st24{fill:#D18283;}
	.st25{fill:#A8625F;}
	.st26{fill:#FDFDFD;}
	.st27{fill:#BCD3ED;}
	.st28{fill:#607AA0;}
	.st29{fill:#5D89B7;}
	.st30{fill:#80A1C9;}
	.st31{fill:#343B46;}
	.st32{fill:#4E6D94;}
	.st33{fill:#F0F2F5;}
	.st34{fill:#A5A5A7;}
	.st35{fill:#686768;}
	.st36{fill:#8D1A22;}
	.st37{fill:#F2F2F2;}
	.st38{fill:#EEEEEE;}
	.st39{fill:#1B5A85;}
	.st40{fill:#C9D2E1;}
	.st41{fill:#A0AEC2;}
	.st42{fill:#8BB0DC;}
	.st43{fill:#839BB8;}
	.st44{fill:#C3454E;}
	.st45{fill:#B22E37;}
	.st46{fill:#23597B;}
	.st47{fill:#315E83;}
	.st48{fill:#4F6F96;}
	.st49{fill:#6E9AC9;}
	.st50{fill:#185479;}
	.st51{fill:#95B8E1;}
	.st52{fill:#325E83;}
	.st53{fill:#1A2D34;}
	.st54{fill:#95B8E2;}
	.st55{fill:#EBCEE1;}
	.st56{fill:#E5C2D5;}
</style>
<g>
	<path class="st0" d="M47.14,0.03c6.3-0.19,10.22,3.01,13.65,6.95c2.82,3.24,3.89,7.21,3.28,11.39c-0.7,4.79-2.8,8.94-7.22,11.43
		c-2.22,1.25-4.53,2.29-7.25,1.99c-2.21-0.24-3.76,0.83-4.67,2.81c-0.71,1.52-1,3.26-1.77,4.67c-1.3,2.37-2.12,4.88-3.05,7.37
		c-2.03,5.42-3.97,10.87-5.92,16.32c-0.93,2.61-3.02,4.14-5.8,4.2c-4.16,0.08-7.9-1.38-11.53-3.18c-4.21-2.08-8.17-4.53-11.44-7.96
		c-1.52-1.59-2.77-3.39-3.99-5.23c-1.49-2.26-1.53-4.75-1.35-7.27c0.09-1.22,1.05-1.93,2.14-2.37c4.63-1.88,9.03-4.24,13.3-6.8
		c5.66-3.4,10.89-7.41,16.14-11.4c0.21-0.16,0.57-0.43,0.54-0.58c-0.31-1.37,0.41-2.75,0.11-4.02c-1.78-7.45,2.24-13.06,6.84-15.92
		C41.79,0.78,44.6-0.2,47.14,0.03z"/>
	<path d="M63.04,16.47c-0.43,4.93-1.96,9.16-6.22,11.91c-2.11,1.36-4.35,2.56-7.01,2.19c-1.75-0.25-3.13,0.73-4.65,1.25
		c-0.2,0.07-0.38,0.31-0.47,0.52c-0.89,1.94-1.84,3.86-2.46,5.93c-0.4,1.32-1.21,2.52-1.72,3.85c-2.57,6.71-4.99,13.48-7.36,20.26
		c-0.82,2.34-2.46,3.55-4.92,3.59c-3.95,0.06-7.48-1.36-10.92-3.07C11.43,59.99,6.17,56.32,2.7,50.55
		c-1.08-1.79-1.91-3.65-1.73-5.84c0.1-1.14,0.53-1.97,1.62-2.42c11.16-4.62,20.93-11.48,30.38-18.87c0.49-0.38,0.87-0.7,0.46-1.35
		c-0.04-0.06-0.05-0.16-0.04-0.23c0.44-3.04-0.65-6.05-0.15-9.09c0.7-4.3,3.25-7.32,6.83-9.5c3.66-2.23,7.64-3.12,11.77-1.51
		c3.29,1.27,6.02,3.4,8.23,6.19C62.09,10.48,62.88,13.41,63.04,16.47z"/>
	<path class="st1" d="M37.25,47.35c-1.74,4.9-3.38,9.84-5.26,14.69c-0.92,2.38-1.96,2.73-4.48,2.61c-5.71-0.27-10.4-3.01-14.99-6.02
		c-0.08-0.49-0.44-0.8-0.76-1.14c-0.22-0.23-0.43-0.52,0.1-0.68c0.44,0.01,0.78,0.26,1.12,0.5c3.67,2.56,7.63,4.51,11.97,5.62
		c1,0.26,2.05,0.38,3.08,0.39c0.94,0.01,1.83-0.22,2.19-1.58c-1.91,1.03-3.75,0.85-5.61,0.54c-0.97-0.16-1.84-0.53-2.66-1.04
		c-0.4-0.25-0.82-0.55-0.62-1.15c0.57-0.32,1.08-0.01,1.59,0.16c1.45,0.47,2.93,0.72,4.45,0.7c0.36,0,0.72-0.02,1.06-0.14
		c1.08-0.36,1.31-1.03,0.69-2c-0.38-0.59-0.99-1.05-1.09-1.81c0.31-0.63,0.8-0.45,1.29-0.3c0.99,0.47,1.32,1.47,1.84,2.31
		c0.58,0.32,0.45-0.26,0.52-0.45c1.04-3.09,2.17-6.14,3.26-9.21c0.17-0.47,0.2-1.03,0.71-1.32c0.24,0.14,0.29,0.09,0.4-0.2
		c0.18-0.5,0.55-0.88,1.19-0.66c0.02,0.01,0.04,0.06,0.04,0.09C37.29,47.28,37.26,47.31,37.25,47.35z"/>
	<path class="st2" d="M57.38,6.84c2.15,1.74,3.47,3.99,4,6.69c0.75,3.83,0.27,7.54-1.96,10.72c-2.58,3.68-6.21,5.6-10.87,5.05
		c-0.09-0.51,0.18-0.83,0.57-1.09c1.2-0.21,2.44-0.23,3.58-0.73c3.72-1.55,6.3-4.1,7.17-8.16c0.08-1.7,0.34-3.4,0.1-5.11
		c-0.28-2.07-1.29-3.81-2.4-5.51c-0.27-0.42-0.62-0.8-0.72-1.31C56.87,7.06,57.09,6.92,57.38,6.84z"/>
	<path class="st3" d="M5.54,52.4C3.74,50.23,2.11,48,2.19,44.97c0.02-0.82,0.29-1.34,1.06-1.66c1.51-0.62,2.99-1.3,4.48-1.95
		c0.63,0.14,0.42,0.49,0.19,0.82c-0.21,0.29-0.65,0.3-0.82,0.64c0.09,0.23,0.3,0.25,0.48,0.33c0.7,0.2,1.56-0.27,2.11,0.52
		c-0.27,0.44-0.49,0.91-0.74,1.37c-1.83,0.6-1.56,0.27-1.63,2.17c0.21,1.92,1.06,3.53,2.35,4.93c0.66,0.72,1.52,1.28,1.96,2.19
		c-0.03,0.31-0.25,0.39-0.51,0.41c-0.75-0.09-1.32-0.55-1.94-0.93c-2.3-2.2-3.82-4.74-3.45-8.08c0.03-0.27,0.08-0.55-0.05-0.82
		c-0.67-0.23-1.18,0.02-1.6,0.53c-0.45,1.39,0.15,2.55,0.81,3.7c0.33,0.58,0.79,1.1,0.99,1.75c0.06,0.32,0.32,0.54,0.41,0.84
		C6.53,52.46,6.25,52.69,5.54,52.4z"/>
	<path class="st4" d="M14.92,37.51c5.94-3.52,11.49-7.6,16.99-11.74c0.92-0.69,1.81-1.44,2.74-2.11c0.31-0.22,0.22-0.57,0.41-0.8
		c0.82-0.23,1.62-1.09,2.48-0.09c-3.65,3.52-7.8,6.42-11.89,9.38c-2.94,2.12-5.95,4.15-9.08,5.99c-0.41,0.24-0.79,0.56-1.31,0.52
		C14.61,38.42,14.83,37.95,14.92,37.51z"/>
	<path class="st5" d="M49,28.37c0.03,0.4-0.3,0.62-0.46,0.93c-0.5-0.31-0.84,0.08-1.21,0.29c-0.8,0.31-0.93-0.12-0.86-0.77
		c0.26-0.91,1.41-1.13,1.62-2.09c0.52-2.66-0.39-4.79-2.36-6.56c-0.75-0.67-1.61-1.18-2.46-1.71c-1.79-1.13-3.68-0.8-5.56-0.28
		c-0.63,0.17-0.89,0.77-1.22,1.26c-0.21,0.25-0.45,0.47-0.75,0.61c-0.41,0.04-0.56,0.82-1.13,0.41c-0.05-0.56,0.24-0.99,0.51-1.44
		c0.23-0.49,0.32-1.05,0.69-1.48c0.91-1.03,2.13-1.38,3.43-1.47c1.48-0.1,2.95,0.08,4.38,0.5c1.94,0.7,3.43,1.99,4.68,3.58
		c1.49,1.83,1.76,3.93,1.38,6.17C49.57,27.04,49.23,27.69,49,28.37z"/>
	<path class="st6" d="M37.25,47.35c-0.68-0.22-0.87,0.31-1.1,0.75c-0.19,0.35-0.29,0.32-0.35-0.06c-0.39-0.51-0.05-0.97,0.11-1.42
		c0.25-0.7,0.38-1.43,0.63-2.13c1.04-2.88,2.38-5.65,3.53-8.49c0.31-0.57,0.53-1.18,0.77-1.77c0.65-1.21,1.15-2.49,1.75-3.73
		c0.2-0.41,0.34-0.9,0.88-1.04c0.77,0.12,0.8,0.79,0.98,1.34c-1.38,1.87-2.24,3.98-2.99,6.16c-0.69,2.01-1.79,3.84-2.46,5.87
		C38.49,44.36,37.84,45.85,37.25,47.35z"/>
	<path class="st7" d="M44.44,30.8c-0.76-0.07-0.29-1.16-1.04-1.24c-0.1-0.14-0.11-0.3-0.1-0.47c0.03-0.55-0.13-1.07-0.29-1.59
		c-0.19-0.57-0.57-1.01-0.9-1.49c-1.1-1.52-2.45-2.65-4.37-2.95c-0.1-0.05-0.19-0.12-0.25-0.22c-0.22-0.49-0.59-0.31-0.91-0.18
		c-0.49,0.19-1,0.25-1.52,0.2c-0.08-0.81-1.11-1.44-0.46-2.39c0.46,0.18,0.52-0.66,1.01-0.4c0.38,0.43-0.37,1.5,0.82,1.48
		c1.81-0.11,3.53,0.11,4.99,1.31c1.75,1.32,2.93,3.01,3.32,5.21c-0.02,0.75,0.29,1.08,1.06,0.86c0.25-0.07,0.51-0.19,0.78-0.06
		c0.18,0.32,0.07,0.92,0.75,0.74C46.44,30.18,45.38,30.34,44.44,30.8z"/>
	<path class="st8" d="M40.14,4.66c3.64-2.41,7.51-3.22,11.72-1.64c0.28,0.37,0.55,0.75,0.2,1.22c-0.35,0.18-0.69,0.09-1.02-0.04
		c-1.43-0.55-2.92-0.53-4.41-0.39c-0.12,0.04-0.24,0.07-0.36,0.09c-1.72,0.04-3.22,0.73-4.68,1.55c-0.4,0.23-0.78,0.58-1.31,0.41
		C39.85,5.51,39.8,5.1,40.14,4.66z"/>
	<path class="st9" d="M35.83,17.8c-0.11,0.48-0.26,0.94-0.72,1.22c-1.12-3.17-1.21-6.3,0.35-9.36c0.09-0.17,0.23-0.31,0.35-0.47
		c0.62,0.12,0.95,0.47,0.9,1.13c-0.87,2.08-0.93,4.25-0.73,6.44C36.01,17.13,36.03,17.48,35.83,17.8z"/>
	<path class="st10" d="M5.54,52.4c0.51-0.03,0.97-0.09,0.39-0.72c-0.23-0.24-0.39-0.5-0.33-0.85c0.46,0.01,0.71,0.33,0.96,0.65
		c0.97,1.22,2.07,2.33,3.22,3.38c0.63,0.74,1.7,1.05,2.04,2.08c-0.27,0.47,0.25,0.42,0.41,0.59c0.3,0.32,0.81,0.58,0.28,1.11
		C9.72,57.08,7.41,54.99,5.54,52.4z"/>
	<path class="st11" d="M36.52,10.14c0.02-0.51-0.6-0.53-0.71-0.95c1.03-1.91,2.5-3.39,4.33-4.53c-0.05,0.41,0,0.8,0.21,1.16
		c-0.03,0.3-0.23,0.49-0.41,0.69c-0.85,0.93-1.87,1.7-2.52,2.8C37.13,9.6,37.11,10.19,36.52,10.14z"/>
	<path class="st12" d="M14.92,37.51c0.1,0.33,0.2,0.66,0.31,0.99c0,0.32-0.22,0.52-0.46,0.65c-1.57,0.83-3.05,1.85-4.79,2.34
		c-0.84-0.43-0.11-0.69,0.15-0.88c0.51-0.37,1.18-0.53,1.43-1.19C12.68,38.77,13.8,38.14,14.92,37.51z"/>
	<path class="st13" d="M11.56,39.4c0.35,0.52,0.01,0.7-0.39,0.96c-0.44,0.29-1.2,0.21-1.26,0.99c-0.77,1.03-1.75,1.6-3.07,1.47
		c-0.3-0.27,0.02-0.3,0.15-0.39c0.13-0.09,0.29-0.14,0.42-0.22c0.33-0.2,0.82-0.35,0.32-0.86C9.01,40.7,10.28,40.05,11.56,39.4z"/>
	<path class="st14" d="M52.13,4.13c-0.23-0.34-0.27-0.72-0.27-1.12c1.21,0.57,2.37,1.21,3.4,2.07c0.17,0.21,0.21,0.43,0.09,0.67
		c-0.83,0.4-1.24-0.44-1.87-0.63C53.03,4.8,52.47,4.61,52.13,4.13z"/>
	<path class="st15" d="M55.23,5.84c0.01-0.25,0.01-0.5,0.02-0.75c0.86,0.4,1.42,1.16,2.12,1.75c-0.16,0.14-0.31,0.29-0.47,0.43
		c-0.39,0.13-0.59-0.17-0.85-0.35C55.78,6.56,55.15,6.47,55.23,5.84z"/>
	<path class="st16" d="M28.13,56.94c0.4,0.54,0.81,1.07,1.2,1.62c1.01,1.4,0.49,2.52-1.28,2.65c-1.43,0.11-2.85,0.01-4.24-0.37
		c-0.8-0.22-1.58-0.49-2.37-0.73c-0.11,0.06-0.22,0.1-0.34,0.13c-1.27-0.14-2.45-0.58-3.62-1.07c-0.61-0.31-1.34-0.44-1.7-1.12
		c-0.1-0.59,0.58-0.66,0.72-1.08c-0.78-0.81-1.89-1.18-2.63-2.02c-0.29-0.33-0.94-0.81,0.12-1.03c1.86,0.36,3.69,0.67,5.26,1.95
		c1.41,1.16,3.17,1.79,4.84,2.51c-1.78-0.79-3.57-1.58-5.17-2.7c-0.3-0.21-1.05-0.38-0.46-1.04c0.97-0.31,1.7,0.28,2.45,0.71
		c1.47,0.85,3.01,1.51,4.09,2.01c-0.87-0.35-2.14-1.01-3.35-1.78c-0.26-0.17-0.61-0.36-0.45-0.74c0.14-0.34,0.53-0.31,0.85-0.29
		c0.41,0.01,0.75,0.21,1.08,0.46c0.76,0.55,1.57,1.02,2.44,1.4c-0.58-0.34-1.25-0.53-1.76-0.99c-0.2-0.18-0.71-0.25-0.39-0.69
		c0.23-0.33,0.6-0.39,0.97-0.25c0.64,0.23,1.16,0.72,1.85,0.82C26.99,55.69,28,55.82,28.13,56.94z"/>
	<path class="st17" d="M30.93,59.1c-0.52-0.73-0.8-1.63-1.59-2.17c-0.76-0.56-1.44-1.2-1.83-2.09c0.09-0.68,0.69-0.58,1.12-0.75
		c0.59-0.36,0.69-1.03,1.01-1.56c0.94-1.58,1.43-3.41,2.66-4.83c0.66-0.33,0.92-1.07,1.47-1.5c0.34-0.27,0.68-0.63,1.14-0.4
		c0.56,0.28,0.23,0.75,0.11,1.14c-0.08,0.28-0.01,0.54,0,0.82c-0.59,2.86-1.66,5.55-2.83,8.2C31.74,56.99,31.82,58.24,30.93,59.1z"
		/>
	<path class="st18" d="M21.19,60.07c0.09,0.01,0.18,0.03,0.26,0.04c0.22,1.13,1.26,1.28,2.06,1.56c1.47,0.52,3.03,0.68,4.58,0.49
		c0.81-0.1,1.66-0.27,2.2-1.06c0.8,1.57-0.55,2.51-1.95,2.54c-2.21,0.04-4.34-0.49-6.39-1.26c-3.06-1.15-5.97-2.62-8.69-4.46
		c-0.19-0.13-0.34-0.32-0.51-0.48c0.52-0.36,0.98-0.02,1.44,0.16c1.06,0.41,2.05,0.98,3.12,1.39C18.56,59.52,19.8,60.05,21.19,60.07
		z"/>
	<path class="st19" d="M27.63,54.8c0.57,0.71,1.15,1.43,1.72,2.14c-0.4-0.02-0.81-0.34-1.21,0c-0.46-0.72-1.31-0.92-1.93-1.43
		c-0.4-0.26-0.82-0.49-1.12-0.88c-1.77-2.26-4.06-3.89-6.49-5.35c-0.65-0.46-1.47-0.67-1.91-1.41c-0.03-0.52-0.02-1.03,0.15-1.53
		c0.36-0.21,0.68-0.04,1.01,0.09c3.35,1.7,6.2,4.05,8.73,6.79C26.99,53.68,27.43,54.17,27.63,54.8z"/>
	<path class="st20" d="M30.93,59.1c0.8-3.51,2.62-6.67,3.52-10.15c0.12-0.46,0.26-0.91,0.4-1.37c0.36-1.33,0.5-2.77,1.77-3.66
		c0.33,0.13,0.26,0.37,0.19,0.62c-0.34,1.16-0.68,2.33-1.02,3.49c-1.44,3.96-2.88,7.92-4.38,12.02
		C31.21,59.65,31.07,59.38,30.93,59.1z"/>
	<path class="st21" d="M17.29,59.15c-1.51-0.57-3.02-1.14-4.53-1.72c-0.31-0.16-0.63-0.33-0.94-0.49c-0.74-0.63-1.48-1.26-2.22-1.89
		c-0.04-0.34-0.34-0.5-0.53-0.74c-0.38-0.46-0.07-0.59,0.32-0.69c0.56,0.32,1.12,0.64,1.69,0.95c1.51,1.23,3.23,2.18,4.78,3.36
		c0.47,0.47,1.09,0.69,1.68,0.95C17.61,59.11,17.54,59.22,17.29,59.15z"/>
	<path class="st15" d="M49.49,26.48c-0.35-0.53-0.01-1.08,0.03-1.59c0.14-1.78-0.55-3.25-1.49-4.65c0.17-0.52,0.68-0.63,1.08-0.86
		c1.92-1.08,3.67-2.37,5.16-4c0.74-0.81,1.23-1.75,1.46-2.83c0.22-1.11,0.08-2.31,0.72-3.32c0.27-0.43,0.44-1.1,1.21-0.76
		c1.34,1.64,2.2,3.49,2.6,5.57c-0.07,1.3-0.07,2.6-0.22,3.89c-0.22,3.95-3.64,8.1-7.12,8.63C51.78,26.47,50.63,26.73,49.49,26.48z"
		/>
	<path class="st22" d="M57.66,8.46c-1.26,0.49-1.25,1.67-1.43,2.72c-0.09,0.53,0.06,1.11-0.26,1.6c-0.39,0.58-0.97,0.93-1.57,1.26
		c-2.84,1.6-5.91,2.39-9.14,2.63c-0.51,0.04-1.02,0.15-1.53,0.18c-1.59-0.35-3.19-0.6-4.82-0.45c-1.17,0.11-2.21,0.57-3.08,1.39
		c-0.45-2.62-0.58-5.2,0.69-7.66C36.76,9.82,37,9.5,37.25,9.18c0.64-0.01,1.02,0.44,1.38,0.84c4.94,5.58,13.78,3.09,16.75-2.28
		c0.21-0.37,0.35-0.82,0.83-0.96c0.23,0.16,0.47,0.32,0.7,0.48C57.16,7.67,57.41,8.06,57.66,8.46z"/>
	<path class="st23" d="M53.08,26.27c3.03-1,5.07-3.01,6.11-6.01c0.25-0.71,0.43-1.44,0.64-2.16c0.67,0.38,0.22,0.94,0.25,1.43
		c-0.88,4.07-3.41,6.68-7.23,8.14c-0.09,0.08-0.2,0.12-0.32,0.08c-0.37-0.11,0-0.62-0.41-0.74c-0.27-0.08-0.65-0.07-0.71-0.51
		C51.92,26.15,52.54,26.5,53.08,26.27z"/>
	<path class="st24" d="M53.08,26.27c-0.41,0.42-0.99,0.03-1.45,0.32c0.78,0.12,0.97,0.29,1.22,1.08c-1.19,0.75-2.52,0.7-3.84,0.7
		c-0.43-0.78,0.32-1.26,0.48-1.89C50.66,26.06,51.88,26.38,53.08,26.27z"/>
	<path class="st25" d="M60.08,19.53c-0.16-0.46,0.17-1.01-0.25-1.43c0.21-1.35,0.02-2.74,0.43-4.07
		C60.46,15.87,60.4,17.7,60.08,19.53z"/>
	<path class="st26" d="M6.84,42.82c1.1-0.33,2.13-0.81,3.07-1.47c1.81-0.89,3.63-1.74,5.32-2.86c2.97-1.48,5.66-3.4,8.37-5.28
		c4.16-2.88,8.23-5.89,12.14-9.11c0.55-0.45,0.8-1.35,1.74-1.27c0.09,0.03,0.18,0.06,0.26,0.09c0.21,0.17,0.64-0.09,0.69,0.3
		c0.03,0.27-0.3,0.3-0.51,0.41c-1.68,0.86-2.76,2.38-4,3.71c-0.49,0.53-0.95,1.07-1.57,1.46c-2.06,1.3-3.96,2.82-5.89,4.31
		c-3.1,2.4-6.58,4.21-10,6.1c-1.33,0.73-2.62,1.53-3.94,2.27c-1.26,0.71-2.52,1.37-3.99,1.49c-0.42,0.15-0.82,0.36-1.29,0.34
		C7.03,43.23,6.67,43.25,6.84,42.82z"/>
	<path class="st27" d="M9.39,53.62c-0.22,0.22-0.46,0.4-0.09,0.73c0.17,0.15,0.64,0.29,0.3,0.7c-1.61-1.14-2.69-2.79-4-4.21
		c-0.5-0.85-1.01-1.68-1.48-2.54c-0.56-1.01-0.54-2.08-0.28-3.16c0.83,0.17,1.44-0.46,2.18-0.62c0.38,0.11,0.17,0.35,0.13,0.56
		C5.42,48.61,7.02,51.26,9.39,53.62z"/>
	<path class="st28" d="M7,47.34C7,47.18,6.98,47.02,6.99,46.86c0.01-1.91,0.02-1.91,1.92-1.89c0.56-0.12,1.11-0.17,1.4,0.49
		c0.13,1.55,0.51,3.08,0.39,4.65c-0.04,0.51,0.03,1.05-0.35,1.48c-0.59,0.39-0.86-0.11-1.17-0.44C8.18,50.03,7.58,48.7,7,47.34z"/>
	<path class="st29" d="M15.86,57.93c-1.83-0.78-3.52-1.76-4.78-3.36c0.18-0.03,0.36-0.05,0.45-0.24c0.17-0.33,0.46-0.5,0.81-0.6
		c0.44,0.03,0.71,0.32,0.97,0.62c0.99,1.12,2.37,1.71,3.53,2.6C16.82,57.59,16.07,57.5,15.86,57.93z"/>
	<path class="st30" d="M12.26,53.85c-0.13,0.34-0.41,0.46-0.74,0.48C9.29,52.47,7.45,50.36,7,47.34c0.92,1.11,1.39,2.52,2.38,3.59
		c0.24,0.26,0.41,0.57,0.73,0.75C11.06,52.17,11.79,52.88,12.26,53.85z"/>
	<path class="st31" d="M10.14,45.39c-0.32-0.4-0.92,0-1.24-0.41c0.1-0.49-0.27-1.27,0.73-1.23c1.04-0.28,1.93,0.22,2.86,0.54
		c0.17,0.1,0.31,0.23,0.42,0.38c0.32,0.56,0.38,1.1-0.17,1.57C11.8,46.19,10.95,45.85,10.14,45.39z"/>
	<path class="st32" d="M12.51,44.47c-0.96-0.24-1.91-0.49-2.87-0.73c-0.71-0.59-1.65,0.08-2.38-0.43c0.41-0.15,0.69-0.57,1.17-0.56
		c1.32,0.06,2.62-0.67,3.95-0.09c0.24,0.4,0.19,0.89,0.43,1.3C12.94,44.16,13.01,44.53,12.51,44.47z"/>
	<path class="st33" d="M6.01,44.52c-0.38,0.55-1.03,0.66-1.56,0.98c-0.4,0.24-0.56,0.02-0.62-0.36C4.46,44.58,5.18,44.35,6.01,44.52
		z"/>
	<path class="st34" d="M41.31,23.12c-1.49-1.19-3.22-1.39-5.04-1.25c-0.34-0.83-0.46-1.66,0.01-2.49c0.32-1.07,1.06-1.52,2.14-1.77
		c3-0.71,5.36,0.43,7.49,2.37c0.09,0.29-0.11,0.45-0.3,0.59c-1.18,0.88-2.52,1.54-3.63,2.53C41.81,23.26,41.54,23.27,41.31,23.12z"
		/>
	<path class="st35" d="M41.31,23.12c1.53-1.05,3.06-2.1,4.6-3.15c2.04,1.41,3.22,4.83,2.42,6.98c-0.69,0.5-1.24,1.23-2.14,1.39
		c-0.58,0.11-1.18,0.22-1.71-0.17C44.13,26.05,42.96,24.44,41.31,23.12z"/>
	<path class="st36" d="M43.73,16.86c0.63-0.86,1.67-0.58,2.43-0.62c3.63-0.19,6.76-1.68,9.8-3.45c-0.38,2.14-1.97,3.43-3.48,4.7
		c-1.34,1.11-2.82,2.08-4.45,2.76C46.84,18.8,45.43,17.64,43.73,16.86z"/>
	<path class="st37" d="M44.48,28.18c1.41,0.08,2.69-0.18,3.62-1.38c0.01-0.02,0.08-0.03,0.1-0.01c0.05,0.05,0.09,0.11,0.14,0.16
		c-0.28,0.91-1.21,1.22-1.75,1.9C45.01,29.63,44.52,29.48,44.48,28.18z"/>
	<path class="st38" d="M36.28,19.38c-0.15,0.83,0.32,1.66-0.01,2.49c-1.66-0.08-0.63-1.13-0.66-1.8
		C35.82,19.83,35.94,19.5,36.28,19.38z"/>
	<path class="st39" d="M36.55,44c-0.57,1.2-1.13,2.39-1.7,3.59c-0.47-0.36-0.08-0.7,0.03-1.05c0.06-0.18,0.24-0.37,0.03-0.53
		c-0.23-0.18-0.46-0.05-0.63,0.12c-0.42,0.41-0.88,0.79-1.18,1.31c-0.12,0.21-0.24,0.65-0.67,0.34c-0.3-0.52,0.07-0.91,0.27-1.32
		c0.56-1.16,1.21-2.28,1.73-3.45c-1.15,2.52-2.69,4.8-4.1,7.17c-0.16,0.27-0.34,0.54-0.71,0.59c-0.29-0.11-0.49-0.31-0.61-0.59
		c0.52-1.64,1.42-3.11,2.24-4.6c2.37-4.26,4.94-8.4,7.39-12.61c0.76-1.31,1.46-2.66,2.24-3.96c0.36-0.51,0.58-1.1,0.94-1.62
		c0.48-0.68,0.94-0.81,1.39,0.02c0.24,0.54,0.54,1.08,0.34,1.71c-1.09,1.63-1.8,3.44-2.47,5.27c-0.25,0.58-0.5,1.15-0.75,1.73
		c-1.05,1.69-1.62,3.6-2.49,5.37C37.42,42.33,37.18,43.26,36.55,44z"/>
	<path class="st40" d="M36.55,44c1.09-2.48,2.18-4.96,3.27-7.44c0.1-0.23,0.21-0.43,0.5-0.45c-1.17,2.81-2.34,5.63-3.51,8.44
		C36.72,44.36,36.63,44.18,36.55,44z"/>
	<path class="st41" d="M41.07,34.38c-0.32-0.18-0.12-0.4-0.03-0.6c0.68-1.44,1.35-2.88,2.05-4.3c0.07-0.15,0.07-0.54,0.45-0.37
		c-0.04,0.15-0.09,0.3-0.13,0.45C42.62,31.16,41.85,32.77,41.07,34.38z"/>
	<path class="st42" d="M12.53,43.02c-1.33-0.57-2.74-0.08-4.09-0.27c3.33-0.56,5.82-2.86,8.74-4.27
		c5.58-2.69,10.34-6.63,15.33-10.21c1.56-1.12,2.74-2.78,4.08-4.2c0.44-0.46,0.88-0.91,1.8-0.7c-0.34-0.24-0.49-0.35-0.64-0.45
		c2.14,0.11,3.53,1.34,4.62,3.04c-0.08,0.27-0.22,0.51-0.36,0.76c-2.08,3.26-4.17,6.52-6.3,9.75c-2.89,4.41-5.63,8.9-8.12,13.55
		c-0.15,0.28-0.31,0.56-0.5,0.82c-0.39,0.54-0.8,0.63-1.26,0.08c-0.39-0.46-0.93-0.77-1.33-1.2c-2.12-2.32-4.73-3.89-7.61-5.05
		c-0.99-0.5-2.04-0.81-3.11-1.07C13.34,43.48,12.85,43.44,12.53,43.02z"/>
	<path class="st43" d="M41.85,26.52c0.05-0.3,0.24-0.47,0.52-0.56c0.45,0.38,0.73,0.86,0.84,1.44c-0.49-0.45-0.88-0.53-1.21,0.21
		c-0.23,0.53-0.59,1-0.9,1.5c-0.18-0.04-0.29-0.14-0.34-0.32C40.86,27.91,41.84,27.45,41.85,26.52z"/>
	<path class="st44" d="M52.13,4.13c0.57,0.05,0.97,0.45,1.42,0.74c-0.12,1.77-1.06,3.1-2.33,4.21c-0.78,0.67-1.73,1.11-2.72,1.42
		c-0.73,0.23-1.41,0.22-1.94-0.43c-0.25-0.45-0.48-0.93-1.08-0.38c-0.43,1.01-1.15,1-2.02,0.61c-1.46-0.66-2.69-1.56-3.43-3.03
		c-0.16-0.31-0.41-0.62-0.14-0.99c0.16-0.16,0.32-0.32,0.48-0.48c1.19-0.61,2.3-1.38,3.59-1.8c0.8-0.26,1.6-0.43,2.44-0.33
		c-0.07,0.61-0.69,0.58-1.02,0.89c-0.3,0.29-0.58,0.58-0.46,1.03c0.12,0.46,0.49,0.59,0.92,0.62c0.77,0.05,1.52-0.02,2.14-0.54
		c0.36-0.31,0.54-0.7,0.4-1.17c-0.12-0.42-0.49-0.47-0.86-0.52c-0.39-0.05-0.81,0.04-1.13-0.29c1.56-0.57,3.09-0.32,4.62,0.14
		C51.37,3.95,51.71,4.2,52.13,4.13z"/>
	<path class="st45" d="M39.87,6.29c0.73,1.98,2.15,3.24,4.13,3.89c0.56,0.19,1.16,0.46,0.95-0.6c-0.02-0.12,0.01-0.13,0.4,0.09
		c0.4,0.23,0.84,0.28,1.29,0.24c0.56,0.51,1.16,0.54,1.87,0.28c2.08-0.76,3.73-1.93,4.47-4.13c0.14-0.41,0.38-0.79,0.57-1.19
		c0.56,0.32,1.12,0.64,1.69,0.96c0.32,0.31,0.65,0.63,0.97,0.94c-2.17,4.62-5.98,6.64-10.91,6.69c-2.39,0.03-4.48-0.94-6.23-2.58
		c-0.61-0.57-1.22-1.14-1.83-1.71C37.86,7.98,38.88,7.15,39.87,6.29z"/>
	<path class="st46" d="M18.75,49.06c2.93,1.64,5.42,3.77,7.45,6.45c-0.55,0.03-0.99-0.25-1.42-0.55c-0.39-0.27-0.81-0.56-1.29-0.06
		c0.89,0.86,2.12,1.14,3.08,1.87c-1.94-0.05-3.21-1.98-5.2-1.9c1.5,1.29,3.34,2,4.97,3.08c-1.85-0.56-3.63-1.24-5.3-2.21
		c-0.79-0.45-1.53-1.04-2.52-0.98c-0.52-1.71-1.2-3.36-1.81-5.04c-0.15-0.41-0.27-0.91,0.17-1.21c0.4-0.28,0.74,0.11,1.08,0.28
		C18.21,48.92,18.44,49.1,18.75,49.06z"/>
	<path class="st47" d="M18.75,49.06c-0.27,0.32-0.5,0.01-0.74-0.05c-0.36-0.09-0.69-0.62-1.05-0.24c-0.32,0.33,0.04,0.76,0.15,1.12
		c0.46,1.63,1.63,3.05,1.43,4.88c-0.26,0.53,0.26,0.58,0.5,0.74c1.4,0.92,2.84,1.77,4.42,2.36c0.4,0.15,0.76,0.39,1.09,0.69
		c-2.07-0.6-4.02-1.49-5.74-2.75c-1.29-0.94-2.78-1.04-4.18-1.5c-0.22-0.07-0.48-0.01-0.64-0.24c-0.34-2.02-0.8-4.02-1.03-6.06
		c-0.06-0.55,0-1.11,0.38-1.58c1.5-0.34,2.46,0.66,3.51,1.43C17.46,48.26,18.1,48.66,18.75,49.06z"/>
	<path class="st48" d="M13.48,46.41c-0.61,1.72,0.15,3.34,0.37,5c0.12,0.88,0.53,1.75,0.12,2.65c-0.56,0.06-0.3,0.29-0.1,0.5
		c0.61,0.62,1.31,1.11,2.05,1.56c0.36,0.22,0.83,0.32,0.92,0.83c-1.74-0.72-3.15-1.92-4.57-3.11c-0.78-0.66-1.52-1.36-2.15-2.17
		c0.5-1.64,0.3-3.29-0.03-4.91c-0.1-0.5-0.04-0.92,0.06-1.38c0.97-0.11,1.75,0.48,2.63,0.74C13.13,45.92,13.35,46.06,13.48,46.41z"
		/>
	<path class="st49" d="M17.29,59.15c0.08-0.09,0.16-0.18,0.24-0.26c1.22,0.39,2.43,0.79,3.65,1.18
		C19.74,60.4,18.54,59.67,17.29,59.15z"/>
	<path class="st50" d="M41.85,26.52c0.47-0.05,0.3,0.2,0.18,0.4c-0.38,0.65-0.77,1.3-1.16,1.95c-0.42,1.39-1.32,2.52-2.04,3.74
		c-2.96,5.02-6.29,9.81-9.1,14.91c-0.78,1.41-1.63,2.79-2.38,4.51c1.01-0.49,0.95-1.59,1.81-1.81c0.31,0.03,0.41,0.23,0.42,0.51
		c0.1,0.48-0.15,0.89-0.4,1.22c-0.54,0.71-0.67,1.49-0.57,2.34c-0.29,0.24-0.79,0.09-0.99,0.51c-1.39-1.36-2.62-2.86-4.1-4.14
		c-1.78-1.54-3.74-2.79-5.73-4.03c-0.46-0.67-1.05-1.28-0.9-2.2c0-0.01,0.06-0.03,0.09-0.03c0.04,0.01,0.07,0.03,0.11,0.05
		c3.57,1.22,6.35,3.59,8.88,6.27c0.61,0.65,0.73,0.2,0.97-0.22c1.59-2.77,3.08-5.59,4.78-8.29C35.05,36.94,38.47,31.75,41.85,26.52z
		"/>
	<path class="st51" d="M28.61,54.29c-0.59-0.71-0.5-1.36,0.09-2.06c0.37-0.44,0.59-0.99,0.87-1.49c1.71-2.78,3.42-5.55,5.13-8.33
		c0.06,0.02,0.11,0.05,0.17,0.07c-0.82,1.77-1.63,3.53-2.45,5.3c-1.17,1.9-2.01,3.97-3.07,5.94C29.21,53.99,29.27,54.65,28.61,54.29
		z"/>
	<path class="st52" d="M17.1,44.45c-0.11,0.84,0.7,1.38,0.7,2.18c-0.32-0.1-0.64-0.21-0.96-0.31c-1.43-0.33-2.87-0.65-4.06-1.6
		c-0.09-0.08-0.18-0.17-0.26-0.25c0.42-0.33,0-0.53-0.12-0.78c-0.11-0.24-0.49-0.57,0.13-0.67C14.11,43.32,15.68,43.63,17.1,44.45z"
		/>
	<path class="st53" d="M12.78,44.72c1.35,0.54,2.82,0.78,4.06,1.6c0.36,0.52,0.11,1.03-0.02,1.54c-1.17-0.36-2.12-1.22-3.35-1.45
		c-0.24-0.1-0.47-0.19-0.71-0.29C12.93,45.66,12.92,45.19,12.78,44.72z"/>
	<path class="st54" d="M29.15,50.23c-0.34,0.58-0.67,1.17-1.04,1.73c-0.15,0.22-0.19,0.76-0.6,0.51c-0.34-0.21-0.59-0.56-0.27-1.1
		c1.13-1.92,2.13-3.92,3.3-5.83c3.41-5.58,6.88-11.12,10.33-16.67c0.07,0.08,0.15,0.16,0.22,0.23c-2.88,5.52-6.31,10.72-9.32,16.16
		C30.86,46.9,30.02,48.57,29.15,50.23z"/>
	<path class="st55" d="M46.38,3.7c0.36,0,0.72,0,1.07,0.01c0.51,0.01,1.12-0.09,1.29,0.57c0.16,0.61-0.01,1.21-0.51,1.62
		c-0.85,0.72-1.89,0.85-2.93,0.67c-0.83-0.14-1.07-1.2-0.54-1.93C45.17,4.09,45.84,4,46.38,3.7C46.38,3.69,46.38,3.7,46.38,3.7z"/>
	<path class="st56" d="M46.64,9.91c-0.51,0.38-1.02,0.71-1.29-0.24c0.03-0.44,0.2-0.77,0.7-0.72C46.63,9.01,46.61,9.49,46.64,9.91z"
		/>
</g>
</svg>
