<?xml version="1.0" encoding="utf-8"?>
<!-- Generator: Adobe Illustrator 23.0.2, SVG Export Plug-In . SVG Version: 6.00 Build 0)  -->
<svg version="1.1" id="Camada_1" xmlns="http://www.w3.org/2000/svg" xmlns:xlink="http://www.w3.org/1999/xlink" x="0px" y="0px"
	 viewBox="0 0 39.08 43.34" style="enable-background:new 0 0 39.08 43.34;" xml:space="preserve">
<style type="text/css">
	.st0{fill:#FEFEFE;}
	.st1{fill:#020202;}
	.st2{fill:#4C2E24;}
	.st3{fill:#FDE407;}
	.st4{fill:#5F401E;}
	.st5{fill:#352F0F;}
	.st6{fill:#341B23;}
	.st7{fill:#432622;}
	.st8{fill:#1D1909;}
	.st9{fill:#412016;}
	.st10{fill:#FEE106;}
	.st11{fill:#D8A600;}
	.st12{fill:#010101;}
	.st13{fill:#FCFCF3;}
	.st14{fill:#DCAC00;}
	.st15{fill:#D8A601;}
	.st16{fill:#FEFDF4;}
	.st17{fill:#F6F3D7;}
	.st18{fill:#5D3D21;}
	.st19{fill:#E0B001;}
	.st20{fill:#F9F8F2;}
	.st21{fill:#DEDCC8;}
</style>
<g>
	<path class="st0" d="M14.91,43.34c-4.15-0.04-7.29-1.67-9.32-5.25c-2.23-3.93-3.77-8.14-5.18-12.43c-1.32-4.02,0.89-6.74,2.94-9.58
		c0.36-0.49,0.57-0.82,0.47-1.43c-0.59-3.4-0.57-6.74,0.93-9.96c0.63-1.36,1.44-2.45,2.94-2.93c0.87-0.28,1.72-0.64,2.55-1.01
		c3.15-1.39,6.12-0.74,8.86,0.99c3,1.9,5.55,4.3,6.91,7.71c0.2,0.49,0.51,0.55,0.93,0.5c0.89-0.09,1.75,0.12,2.61,0.28
		c1.06,0.19,1.84,0.78,2.57,1.6c3.04,3.44,4.16,7.7,5.34,11.97c0.75,2.7,1.24,5.44,1.6,8.19c0.25,1.93-1.04,3.3-2.3,4.63
		c-1.65,1.75-3.84,2.12-5.99,2.7c-4.69,1.27-9.37,2.57-14.04,3.88C16.08,43.39,15.44,43.28,14.91,43.34z"/>
	<path class="st1" d="M14.85,42.14c-1.58,0.13-3.09-0.38-4.51-0.88c-1.08-0.38-2-1.38-2.75-2.37c-2.45-3.25-3.72-7.07-5.22-10.79
		c-0.59-1.48-0.69-3.09-1.37-4.54c-0.11-0.23-0.09-0.58,0.01-0.82c0.75-1.79,1.38-3.64,2.56-5.22c0.19-0.25,0.38-0.6,0.65-0.69
		c1.18-0.39,1.01-1.13,0.82-2.12c-0.61-3.21-0.68-6.41,0.74-9.49C6.3,4.11,6.97,3.2,8.23,2.8c1.09-0.35,2.13-0.87,3.23-1.2
		c4.06-1.22,7.07,0.79,9.82,3.36c1.63,1.52,3.15,3.17,3.84,5.38c0.2,0.63,0.7,0.8,1.3,0.82c0.72,0.02,1.43,0.05,2.15,0.09
		c2.43,0.14,3.25,2.2,4.34,3.81c2.55,3.77,2.98,8.3,4.26,12.52c0.46,1.52,0.39,3.13,0.69,4.69c0.2,1.03-0.5,2.03-1.21,2.73
		c-1.2,1.18-2.42,2.25-4.23,2.69c-4.46,1.07-8.84,2.46-13.28,3.65C17.74,41.71,16.36,42.27,14.85,42.14z"/>
	<path class="st2" d="M34.8,31.81c-0.52,1.64-1.87,2.62-3.28,3.05C26.38,36.4,21.16,37.65,16,39.09c-2.26,0.63-4.41,0.33-6.56-0.33
		c-0.71-0.22-1.14-0.89-1.55-1.5c-1.59-2.37-2.58-5.02-3.63-7.65c-0.73-1.85-1.39-3.72-1.76-5.68c-0.39-2.07,1.64-5.99,3.63-6.68
		c0.72-0.25,0.87-0.55,0.56-1.2c-0.12-0.25-0.17-0.53-0.25-0.79c-0.1-0.13-0.14-0.3-0.03-0.42c0.18-0.18,0.34-0.04,0.48,0.1
		c0.35,0.35,0.39,0.94,0.94,1.13c0.82,0.25,1.53-0.08,2.26-0.38c0.42-0.47,0.07-0.91-0.07-1.34c-0.4-1.21-0.69-2.44-0.77-3.72
		c-0.12-2.18,0.74-3.85,2.44-5.14c1.62-0.72,3.12-0.41,4.49,0.6c1.61,1.19,2.85,2.64,3.22,4.69c-0.01,0.24-0.03,0.52-0.29,0.59
		c-0.29,0.07-0.39-0.21-0.49-0.42c-0.22-0.47-0.36-0.96-0.6-1.42c-0.21-0.4-0.42-0.77-0.96-0.71C16.25,8.24,15.64,7.39,14.61,7
		c-1.66-0.63-3.2-0.1-3.55,1.65c-0.37,1.86-0.47,3.78,0.3,5.63c0.31,0.73,0.76,0.94,1.5,0.71c1.45-0.44,2.92-0.78,4.44-0.85
		c0.61,0.2,1.54-0.17,1.67,0.92c-0.39,0.4-0.92,0.44-1.43,0.55c-3.43,0.78-6.88,1.46-10.23,2.56c-2.29,0.78-3.87,4.23-2.93,6.37
		c1.44,3.26,2.72,6.57,3.95,9.91c0.69,1.86,1.73,2.98,3.86,3.17c1.83,0.16,3.59,0.04,5.34-0.38c4.12-1,8.22-2.06,12.3-3.19
		c0.73-0.2,1.44-0.44,2.15-0.7c1.09-0.39,1.74-1.2,2.2-2.21c0.09-0.08,0.2-0.11,0.32-0.09C34.81,31.22,34.77,31.53,34.8,31.81z"/>
	<path class="st3" d="M11.79,5.73c-2.84,2.32-2.65,5.59-1.15,9.29c0.32,0.78,0.21,0.97-0.53,1c-0.83,0.21-0.9-0.5-1.09-0.96
		c-0.9-2.26-1.63-4.55-1.46-7.04C7.61,7.3,7.6,6.58,7.48,5.87c0.03-1.39,1.15-1.69,2.14-2.14c0.39-0.15,0.78-0.31,1.16-0.46
		c0.64-0.3,1.3-0.39,1.99-0.24c0.74,0.67,1.6,0.74,2.53,0.51c1.1-0.1,1.86,0.63,2.68,1.15c1.43,0.91,2.59,2.11,3.38,3.63
		c0.75,1.38,1.27,2.85,1.49,4.4c0.16,1.09-0.09,1.3-1.25,1.21c-0.39-0.29-0.5-0.71-0.54-1.15c-0.2-2.1-1.27-3.83-2.4-5.52
		c-1.74-2.62-5.1-2.73-6.75-1.73C11.86,5.58,11.82,5.65,11.79,5.73z"/>
	<path class="st4" d="M21.59,13.81c0.89,0.13,1.2-0.13,0.96-1.1c-0.37-1.51-0.75-3.01-1.49-4.39c-0.05-0.92-0.77-1.4-1.32-1.99
		c-0.32-0.35-0.74-0.62-0.96-1.03c-0.23-0.42-0.04-0.58,0.41-0.38l0,0C19.85,5.4,20.37,6,20.91,6.59c0.95,0.63,1.24,1.67,1.66,2.63
		c0.77,0.81,0.83,1.89,1.06,2.89c0.19,0.83,0.55,1.2,1.41,0.96c0.23-0.06,0.49,0,0.71-0.07c1.81-0.54,3.28,0.12,4.63,1.25
		c1.05,0.7,1.55,1.78,1.97,2.9c0.66,1.78,1,3.65,1.24,5.53c0.09,0.48,0.18,0.96,0.27,1.44c-0.15,0.14-0.32,0.16-0.51,0.11
		c-0.91-1.06-0.96-2.42-1.28-3.69c-0.02-0.07,0.06-0.16-0.05-0.2c-0.02,0.13-0.09,0.2-0.21,0.24c-0.54-0.28-0.51-0.86-0.68-1.33
		c-0.29-0.78-0.5-1.59-0.82-2.36c-0.74-1.8-2.23-2.71-4.16-2.45c-1.14,0.15-2.3,0.15-3.42,0.43c-0.85,0.12-1.7,0.25-2.55,0.36
		c-0.43,0.06-0.86,0.14-1.21-0.22c-0.32-0.81-1.21-0.21-1.68-0.67c1.24-0.85,1.45-1.97,0.77-3.57c-0.28-0.66-1.02-1.16-0.77-2.03
		c0.17-0.3,0.29-0.42,0.57-0.05c0.51,0.68,0.8,1.44,1.07,2.22c0.18,0.52,0.23,0.2,0.3-0.04c0.56,0.12,0.63,0.63,0.63,1.02
		C19.85,13.1,20.3,13.82,21.59,13.81z"/>
	<path class="st5" d="M30.24,14.53c-1.59-1.62-3.53-1.5-5.51-1.07c-0.75,0.16-1.15,0.17-1.28-0.78c-0.16-1.17-0.57-2.3-0.87-3.45
		c0.99-0.13,1.2,0.68,1.42,1.32c0.48,1.41,1.5,1.85,2.86,1.81c0.32-0.01,0.64,0.03,0.96,0c1.55-0.17,2.42,0.76,3.14,1.93
		C30.89,14.48,30.89,14.48,30.24,14.53z"/>
	<path class="st6" d="M9.62,3.74c-0.7,0.58-1.57,0.99-1.97,1.89c-0.87,2.55-1.07,5.14-0.6,7.8c0.17,0.94,0.76,1.77,0.63,2.77
		c-0.87,0.04-0.54-0.97-1.07-1.22C6.59,14.96,6.53,15,6.52,15.03c-0.03,0.07-0.04,0.15-0.06,0.23C5.22,11.6,5.49,8.08,7.43,4.72
		C7.89,3.92,8.78,3.84,9.62,3.74z"/>
	<path class="st7" d="M19.2,4.92c-0.57,0.08-0.27,0.32-0.08,0.52c0.55,0.57,1.15,1.1,1.66,1.71c0.26,0.31,0.84,0.63,0.29,1.17
		c-1.4-2.11-3.23-3.7-5.6-4.63c-0.83,0.01-1.65,0.02-2.4-0.4c-0.76,0-1.53,0-2.29,0c0.99-0.9,2.22-0.85,3.39-0.73
		C16.1,2.75,17.93,3.29,19.2,4.92z"/>
	<path class="st8" d="M30.24,14.53c0.13-0.42,0.56,0.08,0.72-0.24c1.43,1.64,2.48,3.52,2.97,5.61c0.2,0.86-0.2,1.85-0.33,2.78
		c-0.82-1.77-0.82-3.78-1.59-5.57C31.59,16.13,31.23,15.12,30.24,14.53z"/>
	<path class="st9" d="M31.9,20.56c0.02-0.15,0.04-0.31,0.11-0.84c0.52,1.68,0.94,3.04,1.36,4.4c0.88,1.12,0.85,2.51,1.18,3.8
		c0.1,0.41-0.01,0.86,0.28,1.22c0.32,0.89,0.37,1.78-0.02,2.67c-0.31-0.18-0.21-0.51-0.29-0.78c-0.31-0.29-0.42-0.67-0.5-1.06
		c-0.53-2.57-1.24-5.09-2.01-7.6C31.83,21.79,31.48,21.19,31.9,20.56z"/>
	<path class="st2" d="M34.82,29.15c-0.45-0.29-0.4-0.8-0.51-1.22c-0.33-1.26-0.64-2.53-0.95-3.8c0.17,0,0.33,0,0.5,0
		C34.46,25.75,34.88,27.4,34.82,29.15z"/>
	<path class="st7" d="M20.91,6.59c-0.72-0.4-1.26-1-1.71-1.67C20.05,5.19,20.57,5.8,20.91,6.59z"/>
	<path class="st10" d="M18.95,15.01c1.27-0.15,2.54-0.3,3.81-0.45c0.11,0.05,0.22,0.11,0.34,0.09c3.64-0.56,5.83,1.47,7.4,4.33
		c2.09,3.81,3.1,8,3.83,12.25c-0.1,1.3-1.1,1.83-2.08,2.31c-0.69,0.34-1.49,0.46-2.24,0.68c-5.21,0.66-10.43,0.33-15.65,0.28
		c-1.9-0.02-3.22-1.52-3.97-3.11c-1.72-3.62-2.86-7.45-3.49-11.42c-0.11-0.69-0.2-1.44,0.3-2.08C11.02,16.56,15,15.86,18.95,15.01z"
		/>
	<path class="st11" d="M7.19,17.89c-0.06,4.2,1.54,8,2.81,11.89c0.59,1.83,1.84,3.02,3.26,4.14c0.31,0.25,0.64,0.29,1,0.29
		c4.35,0,8.7,0.03,13.06-0.04c0.9-0.01,1.8-0.22,2.7,0.04c-3.97,1.34-8.06,2.21-12.11,3.25c-1.9,0.49-3.82,0.63-5.8,0.44
		c-1.92-0.18-3.17-0.98-3.84-2.83c-0.85-2.36-1.81-4.69-2.74-7.02c-0.49-1.22-0.99-2.44-1.52-3.64C3.07,22.31,4.92,18.49,7.19,17.89
		z"/>
	<path class="st12" d="M17.28,8.74c0.64,1.3,1.56,2.45,1.49,4.06c-0.05,1.11-0.4,1.6-1.5,1.54c-1.63,0.36-3.29,0.55-4.88,1.11
		c-0.44,0.15-0.84,0.05-1.1-0.45c-1.04-2.03-0.94-4.21-0.64-6.33c0.18-1.25,1.24-2.32,2.5-2.47c1.06-0.12,2.09,0.64,2.97,1.33
		C16.57,7.88,16.9,8.34,17.28,8.74z"/>
	<path class="st13" d="M34.33,31.23c-0.94-3.33-1.57-6.74-3.02-9.93c-0.96-2.13-2.01-4.13-4.03-5.48c-0.96-0.64-1.96-1.02-3.12-1.03
		c-0.47-0.01-0.96,0.03-1.4-0.23c1.65-0.12,3.27-0.72,4.95-0.38c1.4,0.28,2.36,1.08,2.83,2.44c0.46,1.31,0.9,2.63,1.35,3.94
		c0.28,1.89,1.1,3.63,1.5,5.48c0.36,1.67,0.74,3.33,1.11,4.99C34.45,31.1,34.39,31.17,34.33,31.23z"/>
	<path class="st14" d="M21.59,13.81c-1.73,0.4-1.72,0.4-1.94-1.33c-0.07-0.55-0.12-1.11-0.43-1.6c-0.47-1.97-1.61-3.47-3.27-4.6
		c-1.29-0.88-2.66-1.22-4.17-0.56c0.73-1.06,2.36-1.43,4.08-0.9c1.31,0.4,2.32,1.2,3.1,2.3C20.39,9.14,21.33,11.34,21.59,13.81z"/>
	<path class="st15" d="M7.68,16.19c-1.49-3.02-1.52-6.15-0.71-9.34C7.08,6.4,7.22,5.92,7.65,5.62c0.42,0.7,0.29,1.49,0.24,2.23
		c-0.17,2.67,0.61,5.11,1.62,7.52c0.13,0.3,0.21,0.61,0.6,0.65C9.3,16.1,8.55,16.94,7.68,16.19z"/>
	<path class="st16" d="M9.32,6.03c0.11-0.71,0.4-1.36,1.1-1.69c0.4-0.18,0.69,0.15,0.81,0.5c0.27,0.8-0.4,1.12-0.88,1.5
		c-0.23,0.18-0.39,0.58-0.77,0.45C9.25,6.68,9.36,6.33,9.32,6.03z"/>
	<path class="st17" d="M13.07,3.28c0.85-0.14,1.65-0.02,2.4,0.4C14.21,4.24,13.46,4.11,13.07,3.28z"/>
	<path class="st2" d="M23.22,30.58c-0.88,0.33-1.83,1.04-2.63,0.89c-0.74-0.14-0.81-1.49-1.39-2.17c-0.24-0.97-0.71-1.86-1.06-2.79
		c-0.27-1.05-0.9-1.77-1.86-2.33c-1.63-0.95-1.98-2.75-0.98-4.4c0.41-0.41,0.77-0.88,1.4-0.98c0.32,0.32,0.37,0.38,0.1,0.64
		c-0.59,0.56-0.28,0.83,0.24,1.16c0.9,0.58,1.82,1.12,2.77,1.61c0.83,0.43,1.11,0.29,1.23-0.61c0.05-0.36-0.04-0.71-0.05-1.06
		c-0.01-0.29,0.01-0.58,0.43-0.53c0.86,0.98,0.97,1.85,0.09,3c-0.7,0.91-0.7,1.66-0.12,2.6c0.76,1.23,1.19,2.61,1.71,3.95
		C23.22,29.88,23.43,30.21,23.22,30.58z"/>
	<path class="st18" d="M21.33,20.06c-0.23,0.74,0.27,1.53-0.16,2.27c-0.31,0.53-0.48,0.91-1.22,0.35c-1-0.76-2.14-1.36-3.27-1.94
		c-0.94-0.48-1.06-0.89-0.09-1.44c0.21-0.12,0.44-0.26,0.1-0.51c0.02-0.07,0.05-0.13,0.09-0.2c1.53-0.91,3.14-0.72,4.19,0.51
		C21.2,19.38,21.48,19.64,21.33,20.06z"/>
	<path class="st19" d="M21.33,20.06c-1.06-1.89-2.7-1.98-4.54-1.45c0.84-1.24,2-1.08,3.19-0.72c1.52,0.47,2.58,1.4,2.8,3.05
		c0.1,0.75,0.03,1.47-0.6,2.08c-0.93,0.9-0.83,1.91-0.27,3.02c0.61,1.2,1.09,2.47,1.58,3.72c0.11,0.29,0.52,0.8-0.28,0.83
		c-0.76-2-1.43-4.03-2.6-5.84c-0.42-0.65-0.01-1.02,0.35-1.44C21.83,22.3,22.11,21.24,21.33,20.06z"/>
	<path class="st20" d="M15.3,19.78c-0.62,2.69-0.43,3.1,1.89,4.52c0.78,0.48,0.82,1.4,1.08,2.18c0.08,0.19,0.02,0.28-0.19,0.28
		c-0.33-0.87-0.8-1.46-1.79-1.84c-1.82-0.68-2.51-3-1.63-4.73C14.8,19.92,14.97,19.73,15.3,19.78z"/>
	<path class="st21" d="M18.08,26.76c0.06-0.09,0.13-0.19,0.19-0.28c0.4,0.91,0.97,1.77,0.92,2.82
		C18.71,28.51,18.39,27.63,18.08,26.76z"/>
	<path class="st0" d="M13.78,8.07c1.26-0.31,2,0.57,2.6,1.62c1.95,3.42,1.68,3.45-1.67,4.06c-0.39,0.07-0.77,0.18-1.17,0.24
		c-1.03,0.17-1.69-0.34-1.77-1.38c-0.06-0.79-0.09-1.59-0.13-2.39C11.55,8.51,11.95,8.07,13.78,8.07z"/>
</g>
</svg>
