<?xml version="1.0" encoding="utf-8"?>
<!-- Generator: Adobe Illustrator 23.0.2, SVG Export Plug-In . SVG Version: 6.00 Build 0)  -->
<svg version="1.1" id="Camada_1" xmlns="http://www.w3.org/2000/svg" xmlns:xlink="http://www.w3.org/1999/xlink" x="0px" y="0px"
	 viewBox="0 0 53.82 38.15" style="enable-background:new 0 0 53.82 38.15;" xml:space="preserve">
<style type="text/css">
	.st0{fill:#FEFEFE;}
	.st1{fill:#114170;}
	.st2{fill:#573D17;}
	.st3{fill:#304D86;}
	.st4{fill:#5A3E19;}
	.st5{fill:#54A6C8;}
	.st6{fill:#A18256;}
	.st7{fill:#3687AA;}
	.st8{fill:#55A6C8;}
	.st9{fill:#7AB8C4;}
	.st10{fill:#715227;}
	.st11{fill:#79B7C4;}
	.st12{fill:#7EBBC7;}
	.st13{fill:#3588A9;}
	.st14{fill:#7BB9C6;}
	.st15{fill:#7DBAC6;}
	.st16{fill:#76B5C5;}
	.st17{fill:#78B7C6;}
	.st18{fill:#78B6C4;}
	.st19{fill:#775626;}
	.st20{fill:#417395;}
	.st21{fill:#55A7C8;}
	.st22{fill:#77B6C6;}
	.st23{fill:#346B93;}
	.st24{fill:#A6875A;}
	.st25{fill:#FDFDFE;}
	.st26{fill:#97ADD6;}
</style>
<g>
	<path class="st0" d="M53.34,14.95c0,2.96,0,5.92,0,8.88c0,0.23-0.02,0.5,0.08,0.7c0.88,1.66,0.2,2.9-1.03,4.02
		c-0.56,0.51-1.15,1.01-1.6,1.61c-0.83,1.1-1.86,1.73-3.24,1.72c-0.37,0-0.55,0.22-0.79,0.45c-0.97,0.94-2.11,1.4-3.48,1.07
		c-0.58-0.14-1.07,0.01-1.58,0.32c-1.71,1.05-3.43,2.11-5.59,1.41c-0.45-0.14-0.64,0.23-0.87,0.49c-2.42,2.7-5.63,2.62-8.84,2.47
		c-0.52-0.02-1.05-0.29-1.37-0.68c-0.74-0.94-1.71-0.92-2.77-1c-2.58-0.2-5.1-0.68-6.7-3.07c-0.33-0.49-0.83-0.64-1.34-0.65
		c-0.95-0.01-1.92-0.12-2.86,0.14c-0.23,0.06-0.53,0.15-0.7,0.05c-1.62-0.96-3.5-0.48-5.19-0.99c-0.41-0.12-0.93-0.3-1.13-0.62
		c-0.63-1.01-1.64-1.33-2.62-1.81c-1.47-0.71-2.04-2.85-1.54-4.89c0.61-2.52,1.25-5.03,1.74-7.57c0.27-1.39,1.02-2.18,2.26-2.68
		c5.29-2.16,10.69-4,16.29-5.17c2.46-0.51,4.92-0.99,7.4-1.41c1.1-0.19,1.64-0.67,1.43-1.82c-0.04-0.19,0.01-0.4-0.03-0.6
		c-0.73-3.67,2.47-5.24,5.22-5.32c3.62-0.11,7.11,0.97,10.68,1.32c1.51,0.15,3.01,0.38,4.51,0.58c2.5,0.33,3.56,1.49,3.59,4.05
		c0.03,3,0.01,6,0.01,9C53.3,14.95,53.32,14.95,53.34,14.95z"/>
	<path d="M52.11,14.99c0,3.04,0,6.08,0,9.12c0,0.23,0,0.51,0.12,0.68c0.86,1.28,0.21,2.2-0.76,2.97c-0.51,0.4-0.95,0.87-1.34,1.36
		c-0.81,1.02-1.71,1.75-3.12,1.57c-0.44-0.06-0.7,0.3-0.96,0.62c-0.68,0.86-1.56,1.19-2.64,0.9c-0.78-0.21-1.46,0-2.16,0.39
		c-1.2,0.66-2.29,1.66-3.81,1.53c-0.2-0.02-0.46,0.07-0.59-0.03c-1.39-1.06-1.94,0.21-2.68,0.94c-2.2,2.16-4.96,2-7.71,1.87
		c-0.18-0.01-0.39-0.15-0.51-0.29c-1.06-1.37-2.54-1.3-4.08-1.42c-2.19-0.17-4.32-0.69-5.59-2.89c-0.39-0.68-1.37-0.77-2.16-0.8
		c-0.95-0.03-1.92-0.12-2.86,0.16c-0.35,0.1-0.79,0.16-1.04-0.11c-0.71-0.75-1.57-0.58-2.45-0.58c-1.34,0-2.8,0.16-3.24-1.68
		c-0.09-0.37-0.55-0.27-0.83-0.35c-2.2-0.64-2.97-1.89-2.38-4.12c0.62-2.39,1.24-4.78,1.65-7.21c0.2-1.2,0.8-1.87,1.92-2.32
		c5.11-2.03,10.28-3.83,15.67-4.95c2.5-0.52,5-1,7.51-1.41c0.77-0.13,1.37-0.63,2.12-0.77c0.36-0.07,0.3-0.43,0.3-0.7
		c0-0.72,0.13-1.47-0.04-2.15c-0.71-2.84,1.88-4.03,4.12-4.11c2.94-0.1,5.77,0.75,8.67,1.06c2.1,0.23,4.19,0.66,6.29,0.8
		c1.89,0.12,2.54,1.22,2.54,2.93c0.01,3,0,6,0,9C52.08,14.99,52.1,14.99,52.11,14.99z"/>
	<path class="st1" d="M50.67,24.07c0.11,0.34,0.18,0.69,0.33,1.01c0.35,0.76,0.22,1.36-0.45,1.89c-0.5,0.4-0.97,0.85-1.34,1.36
		c-0.61,0.84-1.31,1.33-2.41,1.21c-0.69-0.08-1.2,0.37-1.59,0.91c-0.45,0.62-0.97,0.87-1.75,0.54c-0.83-0.34-1.64-0.03-2.39,0.35
		c-0.78,0.4-1.51,0.91-2.3,1.27c-0.75,0.34-1.51,0.62-2.26-0.21c-0.46-0.51-1.02,0.03-1.5,0.23c-1.05,0.43-1.48,1.53-2.36,2.17
		c-1.82,1.32-5.52,1.29-7.19-0.18c-0.45-0.39-0.9-0.61-1.51-0.56c-1.41,0.11-2.78-0.06-4.14-0.47c-0.95-0.29-1.79-0.76-2.29-1.62
		c-0.71-1.23-1.92-1.52-3.13-1.68c-0.97-0.13-1.99-0.13-2.98,0.12c-0.22,0.06-0.56,0.11-0.69,0c-1.11-0.96-2.42-0.58-3.67-0.63
		c-0.7-0.03-1.28-0.14-1.37-0.98c-0.09-0.83-0.79-0.8-1.34-0.92c-1.91-0.41-2.01-0.69-1.77-2.6c0.33-2.58,1.21-5.03,1.57-7.6
		c0.09-0.67,0.5-1.03,1.1-1.28c7.04-2.87,14.29-4.99,21.83-6.08c0.51-0.07,0.99-0.33,1.53-0.21c0.06,0.65-0.4,0.91-0.87,1.17
		c-3.16,0.77-6.4,1.22-9.57,1.98c-1.97,0.47-3.94,0.96-5.9,1.44c-0.69,0.18-1.33,0.51-2.04,0.63c-1.15,0.41-2.31,0.82-3.43,1.31
		c-0.31,0.14-0.81,0.16-0.85,0.55c-0.06,0.5,0.5,0.52,0.81,0.71C6.91,18,7.07,18.04,7.21,18.1c1,0.38,2.03,0.66,3.05,0.98
		c0.43,0.13,1.13,0.25,1.01,0.78c-0.14,0.56-0.8,0.31-1.24,0.21c-1.31-0.31-2.56-0.8-3.84-1.23c-0.87-0.6-1.17-0.25-1.31,0.69
		c-0.28,1.91-0.91,3.76-1.27,5.66c-0.09,0.47-0.21,0.92-0.01,1.39c0.2,0.23,0.47,0.27,0.74,0.33c1.28,0.31,1.3,0.3,1.55-0.98
		c0.09-0.46,0.07-0.96,0.36-1.36c0.41-0.55,0.63-0.27,0.77,0.21c0.14,0.78-0.14,1.51-0.28,2.24c-0.11,0.54-0.07,1.02,0.18,1.5
		c0.91,0.44,1.88,0.18,2.82,0.21c0.59,0.02,0.48-0.5,0.53-0.89c0.08-0.59-0.12-1.35,0.83-1.44c0.47,0.63,0.25,1.36,0.3,2.05
		c0.04,0.51,0.01,1.05,0.68,1.2c1.91-0.33,3.77-0.31,5.46,0.83c0.39,0.33,0.59,0.81,0.99,1.14c1.29,1.18,2.91,1.37,4.55,1.45
		c0.79,0.04,1.6-0.08,2.33,0.33c0.31,0.19,0.6,0.41,0.91,0.6c0.92,0.97,2.05,0.86,3.21,0.63c1.66-0.23,3.16-0.73,4.25-2.13
		c0.53-0.68,1.42-0.85,2.18-1.18c0.17-0.06,0.34-0.09,0.51-0.08c1.4,1.13,2.58,0.3,3.77-0.43c0.56-0.36,1.16-0.65,1.76-0.93
		c0.35-0.12,0.51-0.33,0.35-0.71c-0.16-0.36-0.32-0.71-0.35-1.11c0.06-0.55-0.29-1.42,0.41-1.53c0.54-0.08,0.53,0.83,0.73,1.32
		c0.06,0.15,0.09,0.3,0.14,0.45c0.57,1.72,0.58,1.72,1.99,0.64c0.29-0.22,0.6-0.38,0.94-0.49c0.25-0.12,0.6-0.04,0.74-0.38
		c-0.6-1.65-1.29-3.26-1.37-5.04c0.01-0.48-0.04-0.96,0.08-1.42c0.05-0.18,0.1-0.41,0.34-0.42c0.25-0.01,0.32,0.22,0.36,0.4
		c0.14,0.66,0.2,1.33,0.31,2c0.15,0.99,0.39,1.95,0.76,2.87c0.17,0.43,0.21,1.04,0.75,1.12c0.5,0.08,0.62-0.54,0.93-0.82
		c1.14-0.7,1.24-1.62,0.64-2.76c-0.58-1.1-0.14-2.36-0.43-3.51c-0.18-0.77-0.01-1.58-0.28-2.34c-0.15-0.41-0.18-1-0.88-0.85
		c-0.59,0.17-1.1,0.49-1.64,0.75c-0.65,0.33-1.32,0.63-2,0.9c-0.72,0.33-1.43,0.68-2.17,0.97c-0.64,0.26-1.29,0.51-1.93,0.79
		c-1.16,0.48-2.36,0.87-3.56,1.27c-0.67,0.22-0.78,0.72-0.68,1.33c0.17,1.06,0.29,2.12,0.49,3.17c0.09,0.47,0.4,1.19-0.24,1.33
		c-0.51,0.12-0.57-0.62-0.7-1.06c-0.26-0.88-0.41-1.77-0.51-2.68c-0.05-0.48,0.11-1.15-0.63-1.35c-1.24,0.32-2.45,0.75-3.71,1
		c-0.85,0.17-1.16,0.69-1.19,1.53c-0.07,1.66,0.36,3.25,0.51,4.88c0.04,0.45,0.3,1.14-0.26,1.25c-0.61,0.12-0.74-0.62-0.86-1.1
		c-0.35-1.32-0.56-2.65-0.56-4.03c0.01-2.27-0.01-2.23-2.22-2.4c-1.87-0.14-3.74-0.41-5.55-0.93c-0.47-0.13-1.27-0.19-1.15-0.77
		c0.11-0.56,0.87-0.37,1.37-0.28c2.01,0.34,4,0.8,6.05,0.83c1.17,0.11,2.3-0.05,3.42-0.37c2.79-0.78,5.58-1.57,8.38-2.61
		c-0.93-0.84-2.2-0.46-3.02-1.22c-0.04-0.34,0.21-0.42,0.45-0.5c1.24-0.08,2.35,0.37,3.44,0.87c0.36,0.19,0.73,0.31,1.13,0.13
		c2.11-0.91,4.25-1.75,6.31-2.76c0.54-0.26,0.37-0.49,0.05-0.76c-0.92-0.85-2.17-0.91-3.26-1.35c-0.54-0.26-1.2-0.24-1.67-0.67
		c0.14-0.65,0.71-0.62,1.18-0.75c1.44,0.06,2.66,0.83,4,1.22c0.71,0.22,1.12,0.91,1.81,1.16c0.61,0.43,0.47,1.17,0.72,1.75
		c0.11,0.36,0.24,0.72,0.33,1.09C50.73,19.97,50.73,22.01,50.67,24.07z"/>
	<path class="st2" d="M49.72,16.84c-0.37-0.51-0.13-1.24-0.62-1.71c-0.57-0.39-0.42-1-0.43-1.53c-0.03-1.96-0.03-3.92,0-5.88
		c0.01-0.84-0.31-1.23-1.16-1.32c-4.18-0.43-8.3-1.26-12.43-2.01c-0.16-0.03,0.04,0.01-0.12-0.02c-2.25-0.4-2.37-0.29-2.39,2.01
		c-0.01,0.59,0.08,1.21-0.24,1.76c-0.17,0.18-0.36,0.21-0.58,0.11c-0.1-1.27,0.06-2.54-0.18-3.81c-0.19-1.01,1.21-1.99,2.74-2.03
		c1.76-0.04,3.48,0.22,5.21,0.49c3.33,0.52,6.67,0.99,10.02,1.38c1.13,0.13,1.39,0.72,1.38,1.66c0,5.3,0,10.61-0.01,15.91
		c-0.66-0.54-0.27-1.32-0.45-1.96c-0.26-4.46-0.06-8.92-0.23-13.38c-0.19,2.6-0.08,5.2-0.14,7.8
		C50.08,15.16,50.35,16.08,49.72,16.84z"/>
	<path class="st3" d="M31.74,8.25c0.16-0.02,0.31-0.04,0.47-0.06c1.25-0.63,2.59-0.43,3.85-0.23c2.11,0.35,4.2,0.89,6.21,1.68
		c0.86,0.34,1.67,0.78,2.02,1.72c0.16,0.72-0.56,1.03-0.75,1.59c-0.42,0.13-0.88,0.18-1.22,0.49c-0.58,1.13-1.6,1.5-2.76,1.55
		c-1.51,0.06-3.03,0.09-4.52-0.23c-2.49-0.43-4.79-1.28-6.69-3c-0.19-0.23-0.38-0.45-0.45-0.75c0.24-0.29,0.49-0.59,0.73-0.88
		C29.63,9.47,31.1,9.55,31.74,8.25z"/>
	<path class="st4" d="M50.69,19.93c0.11,0.64-0.22,1.32,0.22,1.92c-0.06,0.74,0.27,1.52-0.24,2.21c-0.42-1.33-0.1-2.73-0.43-4.07
		c-0.18-0.72-0.19-1.47-0.27-2.21c0.63,0.02,0.53,0.53,0.6,0.91C50.64,19.11,50.45,19.54,50.69,19.93z"/>
	<path class="st5" d="M28.42,11.51c1.85,1.62,4.07,2.44,6.42,2.95c1.44,0.51,2.93,0.64,4.46,0.64c1.29,0,2.44,0.56,3.57,1.11
		c-0.48-0.24-0.96-0.47-1.45-0.69c-0.19-0.08-0.33-0.26-0.32-0.47c0.01-0.22,0.21-0.36,0.41-0.37c0.9-0.04,1.6-0.68,2.49-0.75
		c1.16,0.4,2.51,0.34,3.36,1.45c-0.87,1.09-2.08,1.73-3.29,2.31c-1.39,0.66-2.88,1.15-4.39,1.48c-1.08-0.46-2.17-0.84-3.35-0.95
		c-0.92-0.05-1.84-0.18-2.81-0.41c0.73,0.28,1.54,0.08,2.13,0.6c0.39,0.39,0.93,0.43,1.42,0.55c0.39,0.09,0.88,0.08,0.9,0.59
		c0.02,0.47-0.46,0.62-0.82,0.75c-1.04,0.38-2.08,0.77-3.15,1.08c-2.24,0.66-4.48,1.32-6.81,1.62c-2.52,0.11-4.95-0.68-7.44-0.84
		c2.14,0.84,4.39,1.15,6.65,1.36c0.32,0.03,0.64,0.02,0.96,0.02c1.03,0.02,1.53,0.39,1.47,1.58c-0.11,2.1,0.18,4.18,1.18,6.12
		c-0.16-1.1-0.33-2.19-0.46-3.29c-0.1-0.83-0.19-1.66-0.22-2.5c-0.07-1.76-0.06-1.75,1.6-2.15c1.31-0.32,2.62-0.67,3.93-1
		c0.43,0.91,0.42,1.87,0.34,2.84c-0.27,0.2-0.42,0.07-0.61-0.45c0.44,2.16,0.64,4.12,1.46,5.92c0.14,0.3,0.26,0.58,0.03,0.89
		c-1.28,0.49-2.34,1.27-3.25,2.32c-0.83,0.96-2.12,0.76-3.22,1.03c-0.87,0.19-0.74-0.5-0.82-0.97c-0.3-1.93-0.58-3.86-1.15-5.75
		c-0.46-1.52-1.3-2.42-2.91-2.55c-0.5-0.04-0.98-0.24-1.6-0.33c1.11,2.04,2.22,3.93,2.85,6.04c0.27,0.92,0.48,1.85,0.24,2.81
		c-0.33-0.03-0.58-0.19-0.74-0.49c-0.86-2.58-2.07-4.97-3.46-7.31c-0.79-1.33-1.85-2-3.31-2.25c-0.65-0.11-0.93,0.04-0.8,0.71
		c0.35,1.76,0.42,3.55,0.61,5.33c0.06,0.55,0.22,1.11-0.23,1.59c-0.42-0.19-0.48-0.65-0.73-0.97c-0.59-1.43-0.54-2.97-0.8-4.45
		c-0.05-0.31-0.04-0.64-0.09-0.95c-0.28-1.92-1.19-2.81-3.08-3.03c-0.8-0.1-0.71,0.47-0.72,0.92c-0.03,1.68,0.02,3.35-0.02,5.03
		c-0.02,0.68-0.04,1.39-0.82,1.72c-0.66,0.1-0.93-0.2-0.93-0.85c0.01-0.9-0.02-1.79-0.03-2.69c-0.03-1.26,0.24-2.49,0.19-3.76
		c-0.03-0.86-0.27-1.42-1.12-1.72c-1.38-0.48-2.65-1.24-4-1.81C5.88,18.9,6,18.72,6.27,18.57c1.52,0.46,3.03,0.91,4.56,1.36
		c0.1,0.03,0.23-0.03,0.48-0.06c-1.43-0.77-2.99-0.87-4.29-1.61c-0.06-0.48,0.33-0.63,0.63-0.76c2.24-0.94,4.37-2.19,6.83-2.54
		c1.36,0.01,2.66,0.52,4.01,0.42c-0.63-0.2-1.28-0.1-1.9-0.23c-0.23-0.05-0.47-0.15-0.51-0.43c-0.04-0.29,0.17-0.42,0.39-0.53
		c0.32-0.16,0.67-0.27,1.01-0.35c3.44-0.83,6.87-1.71,10.35-2.32C28.03,11.49,28.23,11.5,28.42,11.51z"/>
	<path class="st6" d="M44.17,11.77c-0.3-1.17-1.27-1.58-2.26-1.92c-3.15-1.06-6.31-1.99-9.7-1.66c0.01-1.12,0.05-2.24,0.01-3.35
		c-0.03-0.79,0.24-1.06,1.03-1.02c2.28,0.13,4.48,0.72,6.71,1.1c2.74,0.47,5.49,0.97,8.26,1.2c0.92,0.08,0.81,0.44,0.81,0.99
		c0.03,2.67,0.06,5.34,0.09,8.02c-0.79,0.17-0.9-0.8-1.53-0.91c-0.82-0.75-1.67-1.44-2.71-1.88C44.58,12.23,44.27,12.12,44.17,11.77
		z"/>
	<path class="st7" d="M6.06,18.98c1.09,0.01,1.87,0.91,2.82,1.09c2.64,0.51,3.02,2.18,2.72,4.42c-0.09,0.68-0.24,1.32-0.51,1.94
		c-0.82,0.54-0.35,1.37-0.44,2.06c-0.05,0.45-0.04,0.72-0.65,0.6c-1.14-0.24-2.34,0.24-3.46-0.27c0.44-0.45,0.12-0.99,0.16-1.49
		c0.12-1.52,0.48-2.98,0.84-4.44c0.11-0.44,0.32-0.89,0.2-1.23c-0.23,0.97-0.12,2.15-0.95,3.08c-0.09-0.36-0.26-0.41-0.35-0.03
		c-0.17,0.73-0.31,1.47-0.38,2.21c-0.05,0.53-0.2,0.71-0.74,0.5c-0.68-0.28-1.48-0.11-2.13-0.54c0.34-2.08,0.82-4.13,1.48-6.14
		C4.91,20.03,5.1,19.18,6.06,18.98z"/>
	<path class="st7" d="M18.3,31.72c-0.13-2.46-0.32-4.91-0.76-7.33c-0.17-0.94,0.12-0.82,0.84-0.73c1.97,0.26,3.31,1.17,4.21,3.01
		c1.11,2.27,2.73,4.31,2.9,6.97c-1.43-0.57-2.98-0.04-4.44-0.49C20.03,32.85,18.95,32.71,18.3,31.72z"/>
	<path class="st7" d="M12.05,29.98c0.38-0.54,0.5-1.14,0.49-1.81c-0.03-1.88,0.01-3.76-0.02-5.64c-0.01-0.7,0.15-0.97,0.88-0.67
		c0.85,0.35,1.7,0.68,2.58,0.94c0.6,0.17,0.7,0.66,0.77,1.1c0.36,2.27,0.77,4.54,0.81,6.85C15.84,29.73,13.97,29.64,12.05,29.98z"/>
	<path class="st7" d="M26.22,34.13c-0.28-2.53-1.19-4.84-2.43-7.04c-0.42-0.74-0.85-1.48-1.33-2.31c1.3,0.27,2.46,0.48,3.6,0.77
		c0.79,0.2,1.27,0.8,1.55,1.55c0.83,2.21,1.24,4.51,1.48,6.84c0.04,0.4-0.03,0.82,0.52,0.93C28.38,35.07,27.08,35.61,26.22,34.13z"
		/>
	<path class="st7" d="M35.08,25.23c-0.21-0.96-0.22-1.93-0.24-2.9c0.56-0.3,0.45,0.16,0.49,0.44c0.23,1.41,0.29,2.85,0.72,4.22
		c0.08,0.26,0.09,0.54,0.45,0.71c-0.24-1.56-0.4-3.1-0.72-4.59c-0.21-0.96,0.18-1.3,1.01-1.42c0.38,0.25,0.6,0.61,0.75,1.04
		c0.86,2.44,1.75,4.87,2.77,7.24c0.14,0.32,0.32,0.66,0.05,1.01c-0.67,0.4-1.34,0.8-2.01,1.19c-0.88,0.52-1.12-0.66-1.8-0.68
		c-1.02-1.81-1.24-3.85-1.66-5.83C34.87,25.5,34.97,25.35,35.08,25.23z"/>
	<path class="st7" d="M40.36,20.46c0.61-0.35,1.24-0.62,1.93-0.76c0.16,0.05,0.3,0.13,0.38,0.27c1.45,2.8,2.8,5.64,3.74,8.66
		c-0.84,0.24-1.35,0.94-1.98,1.46c-0.45,0.37-0.77,0.46-0.96-0.33c-0.25-1.06-0.67-2.09-1.17-3.12c0,0.49,0,0.97,0,1.46
		c-0.57-0.03-0.49-0.51-0.6-0.85c-0.35-1.12-0.44-2.3-0.89-3.39C40.66,22.73,39.96,21.67,40.36,20.46z"/>
	<path class="st8" d="M40.36,20.46c0.24,1.12,0.48,2.24,0.72,3.35c0.07,1.64,0.47,3.22,0.89,4.79c0.13,0.49,0.43,0.96,0.11,1.49
		c-0.57,0.3-1.13,0.59-1.7,0.89c-1.19-3.1-2.38-6.2-3.57-9.29C37.99,21.27,39.17,20.87,40.36,20.46z"/>
	<path class="st8" d="M46.39,17.82c0.55-0.26,1.1-0.52,1.65-0.79c0.78,0.58,0.93,1.49,1.22,2.33c0.12,0.34-0.08,0.75,0.27,1.02
		c0.22,1.69,0.32,3.38,0.93,5.01c0.33,0.9-0.89,0.94-1.17,1.55c-0.49,0.04-0.57-0.37-0.68-0.69c-0.92-2.54-1.55-5.18-2.33-7.77
		C46.2,18.26,46.21,18.02,46.39,17.82z"/>
	<path class="st7" d="M46.39,17.82c0.8,2.69,1.59,5.38,2.41,8.07c0.11,0.37,0.14,0.79,0.49,1.06c-0.37,0.49-0.55,1.37-1.24,1.27
		c-0.54-0.08-0.66-0.92-0.87-1.46c-0.67-1.71-0.97-3.5-1.29-5.33c0,0.55,0,1.11,0,1.66c-0.64-0.13-0.51-0.72-0.64-1.13
		c-0.16-0.57-0.23-1.16-0.38-1.74c-0.08-0.51-0.29-0.99-0.43-1.48C45.08,18.42,45.73,18.12,46.39,17.82z"/>
	<path class="st9" d="M28.42,11.51c-1.52,0.87-3.29,0.76-4.93,1.21c-2.4,0.66-4.83,1.18-7.59,1.85c1.38,0.61,2.73,0.01,3.59,1.05
		c-0.97,0.37-1.85-0.2-2.77-0.29c-1.21-0.12-2.42-0.3-3.64-0.35c-0.39-0.02-0.92,0.11-1-0.54c5.21-1.43,10.5-2.46,15.81-3.44
		C28.19,11.04,28.39,11.19,28.42,11.51z"/>
	<path class="st8" d="M44.43,18.72c0.75,0.11,0.39,0.88,0.73,1.24c0.05,2.98,0.61,5.82,2.19,8.4c-0.24,0.34-0.63,0.16-0.94,0.27
		c-0.83-0.96-1.02-2.22-1.54-3.32c-0.88-1.86-1.72-3.74-2.58-5.61C43.01,19.38,43.72,19.05,44.43,18.72z"/>
	<path class="st10" d="M50.69,19.93c-0.53-0.62,0.08-1.62-0.72-2.15c-0.08-0.31-0.17-0.63-0.25-0.94c0-3.23,0.01-6.45,0.01-9.68
		c0-0.28,0-0.56,0-0.84c0.01-0.44,0.23-0.89,0.64-0.88c0.53,0.01,0.3,0.56,0.3,0.86C50.7,10.85,50.69,15.39,50.69,19.93z"/>
	<path class="st11" d="M14.44,15.21c-2.61,0.69-5.08,1.73-7.43,3.06c-0.66-0.14-1.54-0.31-1.63-0.95c-0.11-0.76,0.88-0.74,1.41-0.97
		c1.08-0.47,2.21-0.83,3.33-1.24C11.57,15,13.02,14.56,14.44,15.21z"/>
	<path class="st12" d="M27.19,23.01c0.67-0.73,1.62-0.44,2.43-0.66c2.78-0.75,5.58-1.44,8.31-2.73c-0.74-0.66-1.78-0.41-2.36-1.11
		c0.08-0.09,0.17-0.1,0.28-0.06c1.26,0.28,2.53,0.52,3.91,1.22c-2.56,1.06-4.98,1.78-7.43,2.45C30.65,22.59,29,23.26,27.19,23.01z"
		/>
	<path class="st13" d="M43.99,13.93c-0.75,0.71-1.65,1.05-2.89,1c0.77,0.7,1.77,0.71,2.43,1.73c-0.66-0.25-1.08-0.39-1.49-0.56
		c-1.04-0.41-2.08-0.8-3.22-0.7c-1.44,0.13-2.74-0.25-3.97-0.94c1.18,0.08,2.36,0.09,3.53,0.24c1.53,0.2,2.77-0.36,3.93-1.25
		C42.9,13.49,43.49,13.55,43.99,13.93z"/>
	<path class="st14" d="M39.67,19.17c0.44-0.62,1.18-0.66,1.8-0.81c2.02-0.49,3.75-1.48,5.34-2.77c0.14-0.12,0.36-0.14,0.54-0.2
		c0.68,0.41,0.87,0.74-0.05,1.12c-2.16,0.9-4.3,1.84-6.43,2.8C40.41,19.52,40.04,19.48,39.67,19.17z"/>
	<path class="st15" d="M6.06,18.98c-1.37,1.51-1.6,3.48-2.14,5.32c-0.25,0.86-0.31,1.77-0.72,2.58c-0.07-2.35,0.88-4.51,1.27-6.78
		c0.12-0.73,0.31-1.45,0.49-2.24c0.49,0.26,0.91,0.48,1.32,0.71C6.2,18.71,6.13,18.85,6.06,18.98z"/>
	<path class="st16" d="M35.08,25.23c0.49,2.08,0.99,4.17,1.48,6.25c-0.16,0.01-0.33,0.03-0.49,0.04c-0.93-1.82-1.27-3.8-1.64-5.78
		c-0.05-0.26-0.18-0.6,0.05-0.78C34.7,24.8,34.86,25.17,35.08,25.23z"/>
	<path class="st17" d="M47.35,28.37c-0.55,0-0.76-0.43-0.89-0.83c-0.72-2.18-1.6-4.32-1.52-6.68c0.01-0.31-0.08-0.65,0.22-0.89
		c0.27,1.03,0.29,2.12,0.72,3.11C45.99,24.95,46.79,26.62,47.35,28.37z"/>
	<path class="st18" d="M42.08,30.09c-0.48-1.46-0.86-2.94-1.12-4.46c-0.1-0.61-0.28-1.24,0.12-1.82c0.7,1.35,0.6,2.93,1.22,4.3
		c0.12,0.33,0.19,0.69,0.37,0.99C43.1,29.84,42.81,30.09,42.08,30.09z"/>
	<path class="st19" d="M44.17,11.77c1.02,0.33,1.95,0.82,2.78,1.51c0.31,0.26,0.64,0.48,0.62,0.94c-1.35-0.42-2.7-0.85-4.04-1.27
		C43.06,12.19,43.95,12.16,44.17,11.77z"/>
	<path class="st20" d="M14.44,15.21c-1.44-0.03-2.88-0.07-4.32-0.1c0.65-0.22,1.31-0.44,1.96-0.66c1.47,0.45,3.02,0.34,4.51,0.68
		c0.96,0.22,1.94,0.33,2.9,0.5c-0.96,0.61-1.9-0.1-2.85-0.07C15.91,15.58,15.18,15.33,14.44,15.21z"/>
	<path class="st21" d="M6.8,24.75c0.54-1.05,0.52-2.28,0.97-3.41c0.36,0.34,0.18,0.67,0.1,0.97c-0.49,1.88-0.99,3.75-0.85,5.72
		c0.03,0.36,0.04,0.75-0.48,0.79C6.08,27.43,6.77,26.11,6.8,24.75z"/>
	<path class="st22" d="M49.53,20.38c-0.07,0.09-0.21,0.36-0.21,0.23c-0.1-1.32-0.89-2.37-1.28-3.58c0.86-0.63,1.04,0.13,1.2,0.65
		C49.5,18.56,49.57,19.47,49.53,20.38z"/>
	<path class="st23" d="M35.85,18.46c-0.09,0.02-0.18,0.04-0.28,0.06c-0.71-0.19-1.43-0.38-2.43-0.64c1.29-0.17,2.24,0.01,3.18,0.35
		C36.17,18.3,36.01,18.38,35.85,18.46z"/>
	<path class="st24" d="M49.59,4.87c-0.76,1.04-1.67,0.54-2.49,0.44C43,4.82,38.94,4.02,34.87,3.27c-0.19-0.04-0.37-0.12-0.59-0.19
		c0.41-0.44,0.9-0.45,1.36-0.37c4.39,0.73,8.79,1.41,13.21,1.95C49.09,4.69,49.31,4.79,49.59,4.87z"/>
	<path class="st25" d="M30.02,10.33c2.06-1.26,4.26-1.93,6.67-1.37c2.07,0.48,4.23,0.69,6.09,1.88c0.26,0.5-0.12,0.63-0.46,0.75
		c-1.85,0.68-3.74,0.99-5.72,0.71c-1.85-0.26-3.71-0.45-5.48-1.08C30.66,11.05,30.07,11.01,30.02,10.33z"/>
	<path class="st26" d="M30.02,10.33c1.59,0.99,3.42,1.12,5.2,1.41c1.05,0.17,2.13,0.16,3.19,0.32c1.54,0.23,2.8-0.74,4.25-0.91
		c0.05-0.01,0.08-0.21,0.13-0.32c0.41,0.39,0.34,0.78-0.04,1.12c-0.3,0.26-0.63,0.48-0.93,0.74c-1.42,1.21-2.87,1.82-4.88,1.33
		c-2.36-0.58-4.7-1.12-6.87-2.25C28.94,11.19,28.94,11.13,30.02,10.33z"/>
</g>
</svg>
