<?xml version="1.0" encoding="utf-8"?>
<!-- Generator: Adobe Illustrator 23.0.2, SVG Export Plug-In . SVG Version: 6.00 Build 0)  -->
<svg version="1.1" id="Camada_1" xmlns="http://www.w3.org/2000/svg" xmlns:xlink="http://www.w3.org/1999/xlink" x="0px" y="0px"
	 viewBox="0 0 48.12 21.07" style="enable-background:new 0 0 48.12 21.07;" xml:space="preserve">
<style type="text/css">
	.st0{fill:#0C090D;}
	.st1{fill:#100D11;}
	.st2{fill:#090809;}
	.st3{fill:#33898D;}
	.st4{fill:#766909;}
	.st5{fill:#3B393A;}
	.st6{fill:#3E3E3F;}
	.st7{fill:#156568;}
	.st8{fill:#186669;}
	.st9{fill:#1B7A7E;}
	.st10{fill:#115C5F;}
	.st11{fill:#0F5A5C;}
	.st12{fill:#C6B034;}
	.st13{fill:#AC990D;}
	.st14{fill:#EACE56;}
	.st15{fill:#32898E;}
	.st16{fill:#AE9B0E;}
	.st17{fill:#6F6F6F;}
	.st18{fill:#1A7A7E;}
	.st19{fill:#6D6D6D;}
	.st20{fill:#2F313D;}
	.st21{fill:#8FF4E9;}
	.st22{fill:#91FDEF;}
	.st23{fill:#F8FEFD;}
	.st24{fill:#8DEEEA;}
	.st25{fill:#393939;}
	.st26{fill:#323232;}
	.st27{fill:#E2FEFB;}
	.st28{fill:#989898;}
</style>
<g>
	<path class="st0" d="M46.59,17.31c-1.84,0.01-3.27,0.57-4.72,1.94c-1.64,1.55-5.58,1.74-7.41-1.12c-0.34-0.54-0.76-0.68-1.39-0.68
		c-4.36,0.03-8.72,0.02-13.08,0.01c-0.49,0-0.84,0.01-1.13,0.58c-2,3.87-6.99,4.06-9.3,0.33c-0.46-0.73-0.93-0.92-1.72-0.89
		c-1.64,0.06-3.28,0.03-4.92,0.05C1.02,17.56,0,16.56,0,14.61c0-0.92,0-1.84,0-2.76c0-0.54,0.06-1.1,0.46-1.45
		c0.86-0.75,1.01-1.72,0.83-2.71C0.97,5.92,1.85,4.64,2.83,3.36C3.28,3.83,3.37,3.92,3,4.32C1.9,5.55,1.88,6.98,2.01,8.47
		c0.06,0.66-0.06,1.27-0.58,1.74c0.95-0.88,0.58-2.04,0.54-3.09c-0.02-0.64,0.05-1.2,0.41-1.69c0.22-0.3,0.54-0.71,0.89-0.07
		c0.04,0.2,0.02,0.39-0.05,0.58c-0.44,0.87-0.23,1.8-0.23,2.7c0,0.87-0.21,1.64-0.72,2.34c-0.96,1.33-0.45,2.84-0.41,4.27
		c0.02,0.53,0.64,0.48,1.07,0.49c1.79,0.01,3.58,0,5.37,0.01c0.52,0,1.04-0.03,1.54,0.12c0.51,0.18,0.66,0.64,0.86,1.08
		c0.54,1.21,1.48,1.95,2.74,2.29c1.76,0.48,3.12-0.21,3.97-1.98c0.22-0.45,0.21-1.03,0.71-1.35c0.38-0.17,0.78-0.15,1.18-0.15
		c4.71,0,9.43,0.01,14.14-0.01c0.9,0,1.57,0.26,2.15,1.01c2.02,2.61,4.6,2.49,6.55-0.25c0.07-0.1,0.16-0.18,0.24-0.26
		c0.73-0.41,1.53-0.2,2.3-0.25c0.43-0.03,0.86,0.04,1.27-0.14c0.18-0.08,0.37-0.13,0.57-0.13c0.63,0.36,0.53,0.78,0.12,1.24
		c-0.25,0.11-0.51,0.2-0.8,0.19c-0.66-0.01-1.31,0-1.76,0C44.77,17.36,45.71,16.96,46.59,17.31z"/>
	<path class="st1" d="M46.78,16.81c-0.3-0.26,0.16-0.73-0.26-0.96c-0.44-0.56-0.08-1.16-0.09-1.74c-0.03-3.64-0.01-7.27-0.02-10.91
		c0-1.3-0.08-1.38-1.35-1.39c-9.99-0.01-19.98,0-29.97-0.01c-0.87,0-1.41,0.19-1.33,1.18c0.02,0.28-0.06,0.55-0.21,0.8
		c-0.42,0.48-1,0.41-1.55,0.41C9.95,4.22,7.89,4.25,5.83,4.19C4.84,4.16,4.04,4.33,3.54,5.27c-0.12,0.09-0.26,0.12-0.41,0.1
		C2.5,5.55,2.17,5.96,2.14,6.7c-0.03,0.84-0.03,1.68,0,2.52c0.04,0.94-0.52,1.39-1.26,1.77c-0.24-0.42,0.08-0.61,0.24-0.78
		c0.88-0.95,0.88-2.05,0.66-3.23c-0.16-0.9,0.13-1.7,0.71-2.43c0.26-0.33,0.82-0.63,0.33-1.19c0.49-0.75,1.26-0.94,2.06-0.94
		c1.99-0.01,3.97,0.01,5.96,0.06c0.75,0.02,1.31-0.03,1.38-0.98c0.03-0.41,0.25-0.84,0.71-1.03c0.62-0.17,1.24-0.24,1.89-0.24
		c10.16,0.01,20.31,0.01,30.47,0.01c1.99,0,2.45,0.46,2.45,2.48c0,3.52,0.01,7.04-0.01,10.56c0,0.83,0.27,1.65-0.01,2.48
		C47.56,16.27,47.48,16.82,46.78,16.81z"/>
	<path class="st2" d="M46.78,16.81c0.78-0.45,0.89-1.3,0.84-1.99c-0.29-4.07-0.04-8.14-0.12-12.21c-0.03-1.83-0.3-2.12-2.18-2.12
		c-10.19,0-20.37,0.01-30.56-0.02c-0.61,0-1.22,0.35-1.83,0.01c0.42-0.48,0.98-0.47,1.54-0.47C24.83,0.01,35.19,0,45.55,0
		c1.76,0,2.49,0.79,2.51,2.6c0.05,4.04-0.06,8.07,0.06,12.11c0.03,1.03-0.07,2.3-1.53,2.6c-0.98,0-1.95,0-2.93,0
		C44.69,16.94,45.78,17.23,46.78,16.81z"/>
	<path class="st3" d="M3.13,5.36c0.07-0.02,0.14-0.05,0.2-0.08c1-1.05,2.27-1.12,3.62-1.08c1.67,0.05,3.34,0.01,5.01,0.02
		c0.51,0,1.04-0.04,1.5,0.28c0.34,0.47,0.33,0.96,0.1,1.46c-0.5,0.52-1.15,0.32-1.75,0.38c-0.52,0.05-1.11-0.15-1.48,0.42
		c-0.35,1.7-0.08,3.42-0.16,5.13c-0.02,0.44,0.01,0.88-0.01,1.32c-0.05,1.36-0.41,1.69-1.75,1.64c-1.28-0.04-2.55,0.01-3.83-0.08
		c-1.59-0.11-2.1-0.84-1.66-2.39c0.22-0.76,0.72-1.32,1.26-1.86c0.71-0.51,1.61-0.06,2.34-0.47c1.02-1,0.54-2.24,0.48-3.39
		c-0.02-0.38-0.5-0.29-0.81-0.32C5.23,6.27,4.26,6.47,3.32,6.21c-0.19-0.1-0.33-0.23-0.28-0.47C3.07,5.61,3.1,5.49,3.13,5.36z"/>
	<path class="st4" d="M13.43,6.04c0-0.49-0.01-0.99-0.01-1.48c-0.19-0.22-0.2-0.45-0.03-0.68c0.12-2.72-0.19-2.43,2.64-2.43
		c9.64-0.01,19.27-0.01,28.91-0.01c1.74,0,1.79,0.06,1.79,1.85c0,3.32-0.01,6.64,0.01,9.96c0,0.88-0.01,1.75-0.22,2.61
		c-0.08,0.07-0.16,0.14-0.23,0.21c-1.17,0.31-2.36,0.1-3.54,0.12c-0.27-0.21-0.27-0.48-0.16-0.77c0.59-0.56,1.34-0.35,2.02-0.37
		c0.71-0.02,1.14-0.26,1.1-1.03c0.01-3.3,0-6.59,0-9.89c0-0.51,0.08-1.05-0.38-1.44c-0.3-0.16-0.62-0.14-0.94-0.14
		c-9.62,0.01-19.25,0.03-28.87,0.04c-0.24,0-0.48-0.02-0.71,0.08c-0.45,0.37-0.3,0.89-0.3,1.34c-0.03,2.11,0,4.23-0.02,6.35
		c0,0.55,0.06,1.12-0.26,1.63c-0.4,0.34-0.7,0.13-0.97-0.2c-0.43-1.7-0.2-3.42-0.16-5.13C13.16,6.4,13.27,6.21,13.43,6.04z"/>
	<path class="st5" d="M13.51,11.78c0.18,0.17,0.38,0.27,0.63,0.23c1.06-0.64,1.95-0.17,2.69,0.56c0.77,0.76,1.36,1.67,1.44,2.82
		c0,0.28-0.11,0.52-0.29,0.74c-0.18,1.83-1.49,3.41-2.98,3.57c-2.06,0.22-4.15-1.06-4.72-2.88c-0.07-0.23-0.16-0.45-0.23-0.67
		c-0.01-0.06-0.01-0.11-0.02-0.17c-0.07-0.76-0.06-1.5,0.51-2.11c0.21-0.26,0.39-0.56,0.63-0.8C11.88,12.49,12.62,12,13.51,11.78z"
		/>
	<path class="st6" d="M17.99,16.12c0-0.25,0-0.5-0.01-0.75c5,0.24,10.01,0.05,15.02,0.12c0.86,0.01,1.58-0.12,1.93-1.01
		c0.03-0.02,0.06-0.05,0.09-0.06c0.49-0.16,0.18,0.39,0.41,0.47c-0.09-0.3-0.07-0.53,0.33-0.5c0.3,0.33,0.26,0.74,0.29,1.13
		c0.11,1.52,1.1,2.41,2.69,2.41c1.6,0,2.56-0.86,2.68-2.42c0.02-0.32,0.01-0.64,0.15-0.94c0.28-0.38,0.45-0.16,0.59,0.12
		c0.1,0.21,0.09,0.48,0.37,0.56c0.1,0.03,0.16,0.09,0.18,0.19c0.01,0.2,0.02,0.4,0.03,0.6c-0.01,0.16-0.17,0.18-0.25,0.28
		c-0.52,1.83-1.99,2.39-3.64,2.6c-1.38,0.18-2.49-0.42-3.23-1.61c-0.57-0.91-1.27-1.28-2.43-1.26
		C28.12,16.17,23.05,16.12,17.99,16.12z"/>
	<path class="st7" d="M3.04,5.74c0.1,0.1,0.2,0.19,0.3,0.29c0.24,0.13,0.39,0.32,0.37,0.61c-0.1,0.93,0.03,1.87-0.13,2.8
		c-0.07,1.04-1.17,1.51-1.36,2.48c-0.58,2.74-0.3,3.1,2.4,3.1c1.39,0,2.77-0.01,4.16,0.01c0.43,0,0.88-0.01,1.26,0.25
		c0.19,0.26,0.19,0.51,0.01,0.77c0,0,0,0.07,0,0.07c-2.35-0.01-4.69-0.01-7.04-0.02c-1.34-0.01-1.6-0.27-1.6-1.6
		c0-0.8,0-1.59,0-2.39c0-0.32-0.07-0.69,0.2-0.9c1.35-1.06,1.02-2.55,1.05-3.95C2.67,6.74,2.48,6.14,3.04,5.74z"/>
	<path class="st1" d="M42.48,16.34c0.08-0.09,0.17-0.19,0.25-0.28c1.19,0,2.37,0.01,3.56,0.01C45.05,16.65,43.74,16.18,42.48,16.34z
		"/>
	<path class="st8" d="M13.39,3.88c0.01,0.23,0.02,0.45,0.03,0.68c-2.47,0-4.94,0.01-7.41,0c-0.76,0-1.53-0.07-2.03,0.69
		C3.8,5.52,3.55,5.38,3.33,5.29c0.29-1.16,1-1.49,2.19-1.45C8.14,3.95,10.77,3.88,13.39,3.88z"/>
	<path class="st9" d="M10.05,15.37c-2.31,0-4.61-0.02-6.91,0.02c-1.07,0.02-1.56-0.4-1.48-1.48c0.05-0.81-0.19-1.68,0.49-2.37
		c0.34-0.5,0.72-0.96,1.3-1.2c0.32-0.04,0.63-0.03,0.86,0.24c-0.19,0.83-1.05,1.26-1.19,2.15c-0.2,1.3,0.05,1.6,1.36,1.7
		c1.45,0.11,2.9-0.11,4.34,0.15c0.77,0.14,1.01-0.38,1-1.1c-0.03-1.91-0.02-3.83,0-5.74c0-0.42-0.15-0.89,0.22-1.25
		c0.23,0.19,0.33,0.46,0.32,0.74C10.31,9.94,10.69,12.68,10.05,15.37z"/>
	<path class="st10" d="M10.05,15.37c0-2.96-0.01-5.92-0.01-8.88c0.55-0.81,1.38-0.36,2.08-0.45c0.43-0.05,0.87,0,1.31,0.01
		c0,0.15-0.01,0.3-0.01,0.45c-0.61,0.49-1.35,0.31-2.03,0.38c-0.71,0.15-0.47,0.73-0.49,1.16C10.83,10,11,11.98,10.77,13.94
		c-0.74,0.54-0.22,1.5-0.73,2.12C10.05,15.83,10.05,15.6,10.05,15.37z"/>
	<path class="st11" d="M3.34,10.56c-0.4,0.32-0.8,0.65-1.2,0.97c0.09-0.84,1.01-1.15,1.21-1.92C3.5,9.6,3.65,9.64,3.79,9.68
		C4.03,9.76,4.28,9.8,4.54,9.8c1.83-0.01,1.83-0.01,2.07-1.21C6.54,8.02,6.88,7.33,6.18,6.92c-0.84-0.29-1.83,0.24-2.6-0.46
		C3.5,6.32,3.42,6.17,3.34,6.03c1.03,0,2.06,0.02,3.1-0.01c0.72-0.02,1.05,0.31,0.99,1c-0.11,1.14,0.45,2.42-0.72,3.33
		C5.6,10.65,4.45,10.25,3.34,10.56z"/>
	<path class="st7" d="M3.34,10.56c1.1-0.47,2.25-0.12,3.38-0.22c-0.77,0.46-1.61,0.12-2.41,0.24C3.98,10.58,3.66,10.57,3.34,10.56z"
		/>
	<path class="st12" d="M45.83,2.16c0.23,0.16,0.22,0.41,0.22,0.64c-0.02,3.78-0.03,7.56-0.05,11.34c-1.05,0.66-2.18,0.35-3.29,0.27
		c-0.41-0.12-0.64-0.45-0.88-0.77c-1.58-2.09-4.32-2.15-5.99-0.13c-0.2,0.25-0.37,0.52-0.68,0.65c-0.66,0.27-1.34,0.1-2.01,0.1
		c-4.18,0.01-8.37-0.04-12.55,0.03c-1.5,0.02-2.39-0.57-2.93-1.92c-1.07-2.67-1.92-5.4-2.58-8.2c-0.09-0.4-0.28-0.86,0.15-1.22
		C15.79,2.7,16.4,2.75,17,2.75c2.88-0.01,5.76-0.05,8.63,0.01c5.87,0.12,11.74-0.31,17.61-0.23c2.06,0.03,2.31,0.25,2.33,2.36
		c0.02,2.48,0,4.96,0.01,7.43c0,0.47-0.09,0.96,0.13,1.34c-0.16-0.24-0.12-0.59-0.13-0.93c-0.06-3.11,0.13-6.23-0.11-9.34
		C45.43,2.95,45.51,2.52,45.83,2.16z"/>
	<path class="st13" d="M15.11,3.12c0.77,2.76,1.43,5.54,2.52,8.2c0.21,0.52,0.44,1.02,0.65,1.54c0.32,0.81,0.87,1.1,1.76,1.1
		c4.43-0.04,8.86-0.02,13.3-0.02c0.63,0,1.25,0.01,1.88,0.01c0.16,0.13,0.17,0.27,0.01,0.41c-0.09,1.37-0.86,1.57-2.12,1.55
		c-4.59-0.09-9.18-0.04-13.76-0.03c-0.53,0-1.04,0.02-1.37-0.5c-0.38-2.22-1.57-3.27-3.83-3.37c0-2.87-0.02-5.73,0-8.6
		c0-0.41-0.18-0.89,0.24-1.23C14.76,2.39,15.31,2.47,15.11,3.12z"/>
	<path class="st14" d="M15.11,3.12c-0.24-0.32-0.48-0.63-0.73-0.95c3.35-0.01,6.69-0.04,10.04-0.04c7.13,0,14.27,0.02,21.4,0.03
		c0,3.85,0,7.7,0,11.68c-0.68-0.41-0.48-0.89-0.48-1.29c-0.02-2.36-0.01-4.72-0.02-7.08c0-0.2,0-0.4-0.01-0.6
		c-0.09-1.97-0.09-2-2.04-1.97C33.89,3.07,24.5,3.22,15.11,3.12z"/>
	<path class="st15" d="M11.26,6.5c0.72,0,1.44,0,2.16,0c0.03,1.76,0.06,3.52,0.09,5.28c-0.57,0.77-1.59,0.88-2.24,1.52
		c-0.15-0.13-0.28-0.3-0.3-0.5c-0.13-1.93-0.13-3.86,0-5.79C10.99,6.81,11.13,6.65,11.26,6.5z"/>
	<path class="st16" d="M42.48,14.18c1.17-0.01,2.34-0.02,3.51-0.03c0.27,1.03-0.2,1.33-1.17,1.25c-0.7-0.05-1.41,0.03-2.12,0.05
		c-0.07-0.04-0.15-0.07-0.22-0.11C42.14,14.95,42.14,14.57,42.48,14.18z"/>
	<path class="st17" d="M14.4,12.95c1.6,0,2.85,1.19,2.87,2.73c0.03,1.74-1.33,3.3-2.83,3.27c-1.76-0.04-3.4-1.43-3.42-2.89
		C11,14.27,12.43,12.95,14.4,12.95z"/>
	<path class="st18" d="M11.26,6.5c0.01,2.27,0.01,4.53,0.02,6.8c-0.17,0.22-0.33,0.43-0.5,0.65c-0.48-0.65-0.2-1.39-0.22-2.08
		c-0.05-1.48-0.01-2.96-0.02-4.44C10.53,6.9,10.52,6.42,11.26,6.5z"/>
	<path class="st19" d="M41.76,14.42c-0.01,1.23,0.18,2.53-1.12,3.31c-1.14,0.68-2.31,0.75-3.52,0.15c-1.16-0.58-1.57-1.5-1.4-2.74
		c0.03-0.23,0-0.48,0-0.72c-0.46-1.11,0.48-1.5,1.11-1.92c1.45-0.97,3.78-0.57,4.61,0.71C41.68,13.57,41.92,13.94,41.76,14.42z"/>
	<path class="st20" d="M41.76,14.42c-1.26-2.47-3.13-2.95-5.28-1.37c-0.49,0.36-0.76,0.77-0.76,1.37c-0.27,0.15-0.17,0.48-0.3,0.7
		c-0.29-0.2-0.1-0.52-0.19-0.76c0-0.14-0.01-0.27-0.01-0.41c0.68-1.65,1.98-2.24,3.69-2.18c1.71,0.06,2.93,0.81,3.58,2.42
		c0,0.39,0,0.77,0,1.16c-0.15,0.1-0.25,0.7-0.48,0.08C41.88,15.11,42.09,14.7,41.76,14.42z"/>
	<path class="st21" d="M3.61,9.79C3.52,9.73,3.44,9.67,3.35,9.62c0.17-1.04-0.29-2.13,0.23-3.15C4.54,6.65,5.55,6.33,6.5,6.69
		C6.47,6.74,6.44,6.78,6.41,6.83C5.47,7.14,5.07,8,4.5,8.69C4.2,9.06,4.03,9.52,3.61,9.79z"/>
	<path class="st22" d="M6.5,6.69c0.98,0.48,0.31,1.3,0.41,1.97C6.84,8.73,6.75,8.77,6.65,8.77c-0.65,0.2-0.77,1.07-1.49,1.2
		C4.88,9.97,4.6,10,4.32,9.93C4.45,8.51,5.51,7.71,6.4,6.79C6.44,6.76,6.47,6.73,6.5,6.69z"/>
	<path class="st23" d="M6.4,6.79C5.89,7.94,4.9,8.76,4.31,9.85c0.08,0.05,0.1,0.09,0.07,0.13C4.35,10,4.32,10.02,4.28,10.02
		C3.97,10.2,3.82,9.91,3.61,9.79C3.9,8.6,4.89,7.86,5.52,6.9C5.7,6.62,6.09,6.74,6.4,6.79z"/>
	<path class="st24" d="M4.28,10.02C4.27,9.96,4.28,9.9,4.31,9.85C4.64,9.84,4.97,9.82,5.3,9.81c0.64-0.17,0.75-1,1.41-1.16
		c0.07,0,0.14,0,0.2,0c0.08,1.06-0.44,1.48-1.47,1.38C5.06,10,4.67,10.02,4.28,10.02z"/>
	<path class="st25" d="M14.14,18.26c-1.44,0-2.41-0.95-2.41-2.37c0-1.41,0.97-2.42,2.37-2.45c1.55-0.03,2.48,0.81,2.45,2.23
		C16.53,17.06,15.4,18.26,14.14,18.26z"/>
	<path class="st26" d="M36.44,15.09c0.02-1.63,0.76-2.4,2.29-2.37c1.37,0.03,2.32,1.11,2.31,2.62c-0.01,1.36-0.81,2.22-2.05,2.22
		C37.36,17.55,36.43,16.64,36.44,15.09z"/>
	<path class="st27" d="M6.71,8.66C6.25,9.06,6.18,9.93,5.3,9.81c0.31-0.43,0.61-0.87,0.93-1.29C6.46,8.23,6.66,8.21,6.71,8.66z"/>
	<path class="st28" d="M15.85,15.68c0.01,1.12-0.68,1.9-1.68,1.91c-1.09,0.01-1.71-0.61-1.71-1.69c0.01-0.94,0.99-1.97,1.88-1.96
		C15.05,13.95,15.84,14.87,15.85,15.68z"/>
	<path class="st28" d="M36.99,15.02c0.03-1.05,0.77-1.81,1.7-1.76c1,0.06,1.88,1.08,1.78,2.18c-0.08,0.89-0.4,1.66-1.49,1.65
		C37.82,17.1,36.96,16.19,36.99,15.02z"/>
</g>
</svg>
