<?xml version="1.0" encoding="utf-8"?>
<!-- Generator: Adobe Illustrator 23.0.2, SVG Export Plug-In . SVG Version: 6.00 Build 0)  -->
<svg version="1.1" id="Camada_1" xmlns="http://www.w3.org/2000/svg" xmlns:xlink="http://www.w3.org/1999/xlink" x="0px" y="0px"
	 viewBox="0 0 76.55 71.05" style="enable-background:new 0 0 76.55 71.05;" xml:space="preserve">
<style type="text/css">
	.st0{fill:#FEFEFE;}
	.st1{fill:#615469;}
	.st2{fill:#C0B7BF;}
	.st3{fill:#A29BAE;}
	.st4{fill:#DCDEE6;}
	.st5{fill:#EAEAEC;}
	.st6{fill:#FDFDFD;}
	.st7{fill:#D5CCD9;}
	.st8{fill:#D0C7D6;}
	.st9{fill:#A19AAD;}
	.st10{fill:#EAE9EE;}
	.st11{fill:#FCFDFD;}
	.st12{fill:#DBD6DA;}
	.st13{fill:#A29CAF;}
	.st14{fill:#A49FB1;}
	.st15{fill:#DFE0E7;}
	.st16{fill:#6FA9AC;}
	.st17{fill:#C8CCDC;}
	.st18{fill:#7EB9B6;}
	.st19{fill:#495F89;}
	.st20{fill:#DDDFE6;}
	.st21{fill:#80F4EF;}
	.st22{fill:#D9DBE4;}
	.st23{fill:#E5E6EA;}
	.st24{fill:#737799;}
	.st25{fill:#DFE1E7;}
	.st26{fill:#8785A2;}
	.st27{fill:#010101;}
	.st28{fill:#6AA2A7;}
	.st29{fill:#B4CFD1;}
	.st30{fill:#659DA5;}
	.st31{fill:#72D1DF;}
	.st32{fill:#7FB9B6;}
	.st33{fill:#7FBAB6;}
	.st34{fill:#72D2E0;}
	.st35{fill:#71CCDC;}
	.st36{fill:#71CDDD;}
	.st37{fill:#6FAAAC;}
	.st38{fill:#71CDDE;}
	.st39{fill:#CCCEDD;}
	.st40{fill:#7EB8B6;}
</style>
<g>
	<path class="st0" d="M12.93,31.09c0-3.28-0.01-6.55,0.01-9.83c0.01-0.61-0.16-1.04-0.61-1.46C8.68,16.34,5.39,12.51,1.43,9.36
		C0.22,8.4-0.22,7.01,0.1,5.48C0.47,3.79,1.5,2.57,3.17,2.13c2.45-0.65,4.99-0.51,7.5-0.59c2.88-0.1,5.76-0.2,8.63-0.1
		c2.59,0.09,5.06-0.64,7.6-0.85c4.32-0.36,8.61-0.76,12.98-0.51c5.84,0.34,11.6,1.02,17.26,2.5c1.31,0.34,2.61,0.74,3.88,1.23
		c1.25,0.48,2.16,1.38,2.39,2.77c0.1,0.57,0.27,0.8,0.9,0.82c2.49,0.05,4.74,0.86,6.86,2.19c3.63,2.27,5.13,5.59,5.27,9.77
		c0.14,4.32,0.11,8.63,0.1,12.94c-0.01,3.72-0.47,7.4-1.21,11.04c-0.28,1.35-0.32,2.75-1.03,4.02c-0.46,0.83-0.98,1.57-1.72,2.1
		c-2.88,2.07-5.6,4.38-8.65,6.21c-0.56,0.34-0.73,0.71-0.72,1.34c0.02,1.47,0,2.95-0.11,4.41c-0.22,2.87-2.07,4.52-4.45,5.76
		c-3.49,1.82-7.29,2.55-11.12,3.06c-2.88,0.38-5.78,0.61-8.69,0.77c-1.85,0.1-3.71,0.04-5.57-0.33c-1.78-0.35-3.64-0.29-5.44-0.65
		c-4.25-0.85-8.33-2.17-11.98-4.59c-1.21-0.8-1.76-2.04-1.85-3.47c-0.4-6.09-0.71-12.19-0.78-18.3c-0.05-4.19-0.01-8.39-0.01-12.58
		C13.11,31.09,13.02,31.09,12.93,31.09z"/>
	<path d="M13.59,2.6c2.06,0,3.63-0.09,5.18,0.02c2.91,0.2,5.69-0.66,8.55-0.89c1.11-0.09,2.22-0.29,3.33-0.32
		c2.39-0.05,4.76-0.44,7.16-0.3c7.6,0.45,15.18,1.08,22.44,3.65c1.31,0.46,2.1,1.34,2.13,2.72c0.02,0.98,0.45,1.14,1.3,1.1
		c2.87-0.12,5.35,0.89,7.65,2.58c2.77,2.03,3.75,4.78,3.89,8.08c0.18,4.28,0.11,8.55,0.11,12.83c0,3.84-0.45,7.64-1.25,11.4
		c-0.07,0.31-0.14,0.63-0.16,0.94c-0.14,1.96-1.08,3.41-2.67,4.56c-2.91,2.09-5.68,4.4-8.78,6.23c-0.35,0.21-0.46,0.45-0.46,0.85
		c-0.01,1.63-0.1,3.26-0.09,4.89c0.01,1.8-0.79,3.16-2.18,4.16c-2.82,2.01-6.07,2.89-9.42,3.5c-3.92,0.71-7.91,0.91-11.87,1.27
		c-2.46,0.23-4.89-0.43-7.33-0.61c-4.8-0.36-9.24-1.84-13.49-4.06c-1.74-0.91-2.42-2.28-2.54-4.24c-0.77-13.44-0.97-26.9-0.95-40.36
		c0-0.54-0.19-0.89-0.56-1.24C9.79,15.76,6.38,11.76,2.24,8.5c-1-0.79-1.33-2.11-0.86-3.25C1.99,3.77,3.18,3.07,4.75,3
		C7.86,2.85,10.98,2.72,13.59,2.6z"/>
	<path class="st1" d="M15.38,29.98c0-2.74-0.02-6.14,0.01-9.54c0.01-0.7-0.2-1.2-0.7-1.68c-3.88-3.69-7.37-7.78-11.6-11.1
		C2.39,7.11,2.26,6.37,2.54,5.61c0.34-0.92,1.08-1.34,2.05-1.39c3.39-0.14,6.79-0.5,10.17-0.38c5.23,0.19,10.33-0.74,15.49-1.19
		c4.32-0.38,8.66-0.25,12.99,0.05c4.6,0.32,9.11,1.08,13.56,2.23c0.62,0.16,1.21,0.42,1.84,0.53c2,0.36,2.92,1.49,2.64,3.53
		c-0.11,0.8,0.41,0.8,0.97,0.79c2.09-0.06,4.14,0.03,6.1,0.92c2.93,1.34,4.9,3.52,5.55,6.66c0.33,1.58,0.26,3.25,0.28,4.88
		c0.04,3.6,0.1,7.2-0.01,10.8c-0.11,3.47-0.7,6.89-1.19,10.33c-0.34,2.43-1.47,4.01-3.44,5.4c-2.64,1.87-5.16,3.89-7.94,5.56
		c-0.6,0.36-0.8,0.79-0.8,1.46c0.01,1.79,0,3.58-0.07,5.37c-0.05,1.28-0.7,2.28-1.73,3c-3.01,2.07-6.46,2.89-9.98,3.44
		c-2.92,0.46-5.88,0.49-8.81,0.8c-4.25,0.45-8.4-0.21-12.54-0.86c-3.55-0.56-6.93-1.86-10.03-3.76c-0.81-0.5-1.21-1.18-1.26-2.16
		c-0.33-6.26-0.62-12.51-0.78-18.78C15.48,38.78,15.5,34.71,15.38,29.98z"/>
	<path class="st2" d="M15.95,18.39C12.04,14.55,8.34,10.5,4.15,6.95c-0.31-0.27-0.63-0.52-0.44-1C3.92,5.44,4.4,5.47,4.83,5.43
		c4.02-0.4,8.06-0.58,12.09-0.45c3.46,0.11,6.85-0.23,10.25-0.76c3.24-0.51,6.51-0.55,9.79-0.56c4.12-0.02,8.21,0.23,12.28,0.85
		c3.31,0.5,6.6,1.14,9.76,2.35c0.79,0.3,1.12,0.7,1.1,1.57c-0.02,0.87-0.37,2.02,0.19,2.53c0.44,0.4,1.58,0.03,2.41,0.01
		c1.56-0.03,3.1,0.03,4.6,0.59c3.8,1.41,5.23,4.5,5.44,8.15c0.31,5.43,0.24,10.88,0.01,16.31c-0.13,3.03-0.8,6.01-1.36,8.98
		c-0.12,0.63-0.59,1.03-1.01,1.46c-2.3,2.38-5.01,4.26-7.89,5.82c-2.18,1.18-3.34,2.55-2.94,5.14c0.18,1.2-0.12,2.46-0.19,3.7
		c-0.08,1.29-0.95,1.95-1.94,2.55c-2.55,1.53-5.38,2.24-8.27,2.68c-3.95,0.61-7.94,1.01-11.93,0.91c-5.77-0.14-11.43-0.91-16.81-3.3
		c-2.14-0.95-2.98-2.32-3.05-4.52c-0.12-4.03-0.31-8.06-0.48-12.09c-0.23-5.39-0.3-10.79-0.27-16.19
		c-0.13-3.94-0.15-7.89,0.01-11.83c-0.01-0.06-0.02-0.12-0.02-0.17c0.59-0.42,0.57,0.2,0.57,0.41c0,0.96,0.34,1.87,0.32,2.83
		c-0.03,1.03-0.02,2.07,0,2.81c0.21-2.51-0.39-5.28-0.24-8.07c0.03-0.58-0.12-1.21,0.43-1.66c0.7,0.36,0.5,1.03,0.5,1.59
		c0.06,6.9-0.11,13.81,0.08,20.7c0.11,3.86,0.09,7.73,0.2,11.59c0.03,1.15,0.26,2.29,0.22,3.45c0.07,1.58-0.11,3.17,0.2,4.73
		c0.05,0.87,0.04,1.74,0.01,2.6c-0.03,0.91,0.37,1.47,1.17,1.86c1.03,0.5,2.15,0.79,3.18,1.29c3.52,1.35,7.22,1.84,10.93,2.27
		c2.57,0.23,5.14,0.27,7.72,0.24c4.36-0.2,8.69-0.58,12.78-2.26c1.29-0.53,2.49-1.25,3.48-2.28c0.31-1.3,0.07-2.61,0.14-3.92
		c0.04-0.75-0.08-1.51,0.12-2.26c0.55-0.63,0.56-1.5,0.93-2.21c1-0.85,2.14-1.51,3.24-2.21c2.25-1.42,4.46-2.9,6.38-4.77
		c0.81-0.68,1.17-1.58,1.34-2.6c0.55-3.31,0.95-6.63,1.18-9.98c0.06-0.91,0.09-1.84-0.15-2.74c-0.14-0.52-0.1-1.03,0.05-1.54
		c0.26-1.34,0.12-2.69,0.09-4.03c-0.05-1.9,0.19-3.8-0.06-5.7c-0.06-0.19-0.08-0.39-0.1-0.59c-0.41-3.91-3.14-6.41-7.08-6.47
		c-0.92-0.01-1.84-0.01-2.76,0c-0.68,0.01-1.04,0.32-1.04,1.02c0,0.2-0.01,0.4-0.01,0.6c-0.01,1.67-0.01,1.67,1.65,1.9
		c1.4,0.21,2.83,0.17,4.14,0.95c1.42,0.85,2.37,1.96,2.86,3.52c0.59,1.89,0.77,3.82,0.73,5.79c-0.02,1.39-0.02,2.79,0.01,4.19
		c0.1,2.63-0.2,5.23-0.53,7.83c-0.12,0.63-0.31,1.25-0.33,1.88c-0.08,2.25-1.39,3.74-3.04,5.02c-1.29,1.01-2.68,1.87-4.04,2.78
		c-0.37,0.25-0.77,0.43-1.23,0.36c-1.03,0.01-1.37-0.59-1.38-1.52c-0.01-1.66-0.01-3.33,0.01-4.99c0.01-1.17-0.17-2.28-0.62-3.36
		c-0.16-0.59-0.11-1.19-0.11-1.79c0.03-8.87-0.11-17.74,0.05-26.61c0.01-0.58-0.14-0.84-0.74-0.67C57.56,9.25,57.28,9.3,57,9.27
		c-0.49-0.11-0.93-0.33-1.28-0.7c0.2-0.81,1.04-0.41,1.46-0.77c-0.12-0.38-0.12-0.39-0.51-0.49c-2.48-0.65-5-1.09-7.52-1.51
		c-3.87-0.64-7.8-0.88-11.7-0.89c-4.02-0.01-8.06,0.19-12.05,0.96c-3.32,0.64-6.69,0.45-10.05,0.34c-0.81-0.03-1.64,0.07-2.23-0.09
		c1.17,0.2,2.64-0.16,3.97,0.5c0.15,0.58-0.4,0.73-0.66,1.06c-0.99,0.12-1.98-0.01-2.96-0.13c-2.33-0.3-4.66-0.49-7.2-0.64
		C6.72,7.53,7.24,7.8,7.64,8.18c2.61,2.52,5.15,5.11,7.7,7.68c0.17,0.17,0.31,0.36,0.4,0.59c0.06,0.45,0.14,0.89,0.4,1.3
		C16.27,17.96,16.49,18.32,15.95,18.39z"/>
	<path class="st3" d="M15.95,18.39c0.36-0.28,0.06-0.47-0.11-0.65c-0.29-0.31-0.4-0.62-0.16-1c0.17-0.12,0.4-0.02,0.57-0.13
		c0.17-1.15,0.01-2.3,0.07-3.45c0.03-0.5-0.07-1.04,0.43-1.49c0.5,0.24,0.42,0.79,0.61,1.18c0.14,0.88,0.75,1.7,0.3,2.65
		c0,3.53,0,7.06,0,10.58c-0.1,0-0.2,0-0.3,0c0-1.01-0.05-2.03,0.01-3.04c0.09-1.35-0.7-2.55-0.57-3.9c0-0.01-0.07-0.03-0.1-0.02
		c-0.04,0.01-0.07,0.04-0.1,0.06C16.38,18.91,16.16,18.65,15.95,18.39z"/>
	<path class="st3" d="M16.61,19.34c0,3.94,0,7.89-0.01,11.83c-0.37-2.48-0.13-4.98-0.18-7.47C16.4,22.25,16.17,20.78,16.61,19.34z"
		/>
	<path class="st0" d="M16.18,17.19c-0.17-0.15-0.34-0.3-0.51-0.45c-2.81-2.99-5.68-5.92-8.71-8.7c-0.43-0.39-0.85-0.78-1.53-1.4
		c3.92,0.03,7.44,0.54,10.97,0.95c0.55-0.4,1.07-0.12,1.57,0.12c0.72,0.34,1.42,0.72,2.2,0.9c2.05,0.31,4.11,0.53,6.18,0.62
		c1.48,0.39,3.01,0.28,4.5,0.39c2.73,0.19,5.48,0.45,8.22,0.3c2.27-0.13,4.52,0.24,6.79,0.25c2.44,0,4.82-0.43,7.24-0.63
		c1.21-0.03,2.34-0.69,3.58-0.51c0.83,0.1,1.48-0.52,2.27-0.59c0.3,0.63-0.07,1.2-0.07,1.78c0,9.37-0.01,18.74-0.01,28.12
		c0.42,1.44,0.45,2.93,0.33,4.39c-0.3,3.59-0.11,7.18-0.21,10.77c-0.01,0.49-0.04,0.96-0.33,1.37c-0.02,1.78-0.04,3.56-0.05,5.33
		c0,0.47,0.05,0.95-0.23,1.38c-0.49,0.28-0.6-0.09-0.74-0.42c-0.1-3.32-0.2-6.65,0.12-9.96c-0.42-0.33-0.81,0.46-1.19-0.03
		c-0.4-0.87-0.22-1.8-0.23-2.7c-0.01-1.62-0.07-3.25,0.05-4.87c0.01-0.14,0.03-0.28,0.08-0.41c1.51-1.57,1.4-3.53,1.36-5.49
		c-0.05-2.36-0.06-4.72,0-7.08c0.05-1.85-0.26-3.67-0.28-5.5c0-0.3,0.05-0.7-0.34-0.82c-0.31-0.09-0.49,0.22-0.68,0.41
		c-0.71,0.7-1.43,1.39-2.06,2.18c-0.55,0.69-1.11,1.37-1.92,1.79c-0.99,0.32-1.98,0-2.95-0.11c-1.92-0.23-3.89,0.04-5.78-0.52
		c-0.48-0.2-0.4-0.51-0.15-0.85c0.33-0.46,0.73-0.85,1.12-1.25c3.24-3.26,6.53-6.48,9.74-9.78c0.25-0.25,0.46-0.58,0.76-0.76
		c1.6-0.92,1.3-2.48,1.37-3.92c0.02-0.52-0.3-0.57-0.71-0.53c-2.92,0.31-5.85,0.58-8.78,0.69c-1.61,1.03-2.6,2.65-3.86,4.01
		c-2.13,2.3-4.18,4.67-6.23,7.05c-0.28,0.33-0.59,0.66-1.08,0.67c-0.7-0.11-0.72-0.67-0.73-1.18c-0.02-0.83-0.07-1.66-0.17-2.49
		c0.31-1.42,1.44-2.27,2.35-3.22c1.43-1.5,2.82-3.03,4.27-4.61c-5.84,0.47-11.51-0.48-17.21-1.16c-0.98-0.17-1.97-0.35-2.96-0.34
		c-1.83,0.01-3.53-0.53-5.25-1.03C13.9,8.58,11.43,8.31,8.9,8.41c2.34,1.91,4.3,4.22,6.51,6.27c0.79,0.57,1.33,1.25,1.09,2.31
		C16.46,17.17,16.37,17.25,16.18,17.19z"/>
	<path class="st4" d="M57.22,8.11c-0.4,0.44-1.07-0.01-1.46,0.46c-1.13,0.82-2.54,0.61-3.79,1.01c-6.28,0.99-12.57,0.4-18.86,0.18
		c-0.92-0.21-1.85-0.09-2.78-0.15c-1.18-0.22-2.41,0.13-3.58-0.3c-1.32-0.2-2.65-0.28-3.97-0.4c-0.51-0.05-1.01-0.15-1.5-0.3
		c-0.9-0.26-1.84-0.42-2.62-0.97c-0.32-0.22-0.86-0.38-0.5-0.97c0.35-0.33,0.79-0.38,1.23-0.37c4.31,0.09,8.59-0.41,12.89-0.65
		c5.49-0.31,11-0.26,16.48,0.49c1.42,0.19,2.85,0.32,4.28,0.42C54.56,6.67,56,7.13,57.22,8.11z"/>
	<path class="st1" d="M60.09,20.12c0.36-0.84,0.07-1.71,0.16-2.57c0.04-0.34-0.03-0.63,0.45-0.61c1.19,0.03,2.4-0.14,3.57,0.19
		c2.91,0.83,4.07,2.33,4.15,5.97c0.13,6.06,0.29,12.12-0.9,18.12c-0.09,0.45-0.22,0.84-0.53,1.17c-1.99,2.05-4.41,3.48-6.96,5.07
		c0-1.43,0-2.65,0-3.88c-0.17-3.18-0.04-6.37-0.07-9.56c-0.02-1.55-0.01-3.11,0-4.66c0.24-2.94,0.07-5.88,0.09-8.83
		C60.01,20.39,60.02,20.25,60.09,20.12z"/>
	<path class="st5" d="M68.96,46.27c-1.71,1.79-3.82,3.06-5.85,4.44c-1.15,0.78-2.33,1.51-3.5,2.26c-0.66-1.37-0.45-2.8-0.17-4.2
		c0.12-0.59,0.74-0.78,1.32-0.87c2.71-1.37,5.21-3.04,7.16-5.37c0.7-0.83,0.55-2.11,0.78-3.18c0.07-0.35,0.08-0.71,0.26-1.03
		c0.33-0.53,0.6-1.38,1.31-1.15c0.7,0.23,0.47,1.1,0.39,1.71c-0.23,1.74-0.31,3.5-0.75,5.21C69.72,44.88,69.44,45.62,68.96,46.27z"
		/>
	<path class="st6" d="M57.22,8.11c-0.16-0.02-0.34,0.01-0.47-0.06C54.47,6.77,51.91,7,49.45,6.62c-5.35-0.81-10.72-0.85-16.08-0.63
		c-4.84,0.19-9.66,0.85-14.53,0.68c-0.26-0.01-0.53,0.16-0.79,0.24c-0.32,0.25-0.62,0.25-0.92-0.04c-1.7-0.57-3.54-0.3-5.25-0.97
		c2.2,0,4.41-0.09,6.61,0.02c3.33,0.16,6.59-0.33,9.84-0.89c0.94-0.16,1.91-0.19,2.85-0.25c9.23-0.56,18.34,0.11,27.38,2.69
		C58.13,7.93,57.65,7.97,57.22,8.11z"/>
	<path class="st5" d="M71.61,19.12c0.23,0.21,0.21,0.5,0.21,0.77c0.01,2.86,0.01,5.72,0.01,8.57c0,0.28,0.02,0.56-0.22,0.77
		c-0.36-0.94,0.03-1.94-0.21-2.96c0.17,2.91-0.16,3.56-1.95,3.89c-0.15-2.54,0.13-5.08-0.23-7.61c-0.45-3.19-1.6-6.13-6.59-6.34
		c-0.22-0.01-0.44-0.12-0.67-0.19c0.15-0.21,0.39-0.31,0.62-0.29c1.05,0.06,1.83-0.42,2.46-1.2c0.7-0.86,1.46-0.87,2.41-0.35
		c2.64,1.46,4.11,4.12,3.95,7.31C71.75,20.73,71.01,19.87,71.61,19.12z"/>
	<path class="st7" d="M57.9,61.14c0.02,0.3,0.16,0.48,0.49,0.46c-2.64,2.34-5.87,3.27-9.24,3.84c-2.34,0.4-4.72,0.64-7.1,0.71
		c0.59-1.06,1.5-1.81,2.47-2.46c0.21-0.14,0.11-0.27,0.18-0.39c0.22-0.25,0.52-0.28,0.82-0.31c3.38-0.35,6.66-1.15,9.93-2.01
		c0.44-0.12,0.77-0.4,1.06-0.73C57.41,59.89,57.57,60.64,57.9,61.14z"/>
	<path class="st0" d="M71.61,19.12c0,0.87,0,1.74,0,2.61c-0.34-1.82-0.76-3.56-1.84-5.11c-0.81-1.16-1.91-1.86-3.12-2.49
		c-0.55-0.29-0.83,0.04-1.09,0.38c-0.91,1.21-2.07,1.78-3.59,1.53c-0.28,0-0.56-0.03-0.83,0.01c-0.85,0.12-1.09-0.26-1.06-1.08
		c0.1-3.5-0.62-2.96,3-3.06c1.7-0.05,3.29,0.22,4.84,0.99C70.52,14.19,71.72,16.25,71.61,19.12z"/>
	<path class="st6" d="M17.65,15.49c-0.18-0.86-0.36-1.72-0.54-2.58c-0.19-0.33-0.05-0.54,0.28-0.61c0.36-0.08,0.62,0.11,0.82,0.38
		c0.46,0.66,0.43,1.43,0.48,2.19c0.47,7.51,0.14,15.03,0.22,22.54c0.01,0.55-0.1,1.14,0.49,1.5c0.35,1.56,0.26,3.13,0.07,4.7
		c-0.48,0.58-0.59,1.25-0.57,2c0.03,1.99,0.03,3.98,0,5.97c-0.01,0.5,0.21,1.16-0.56,1.38c-0.29-3.75-0.16-7.5-0.31-11.25
		c-0.34-8.39-0.13-16.78-0.21-25.17C17.82,16.18,17.88,15.81,17.65,15.49z"/>
	<path class="st6" d="M69.46,30.18c1.75-0.81,2.23-2.23,1.83-4.1c0.1,0.02,0.21,0.05,0.31,0.07c0,0.51,0,1.03,0,1.54
		c0,0.52,0.01,1.04,0.02,1.56c-0.38,0.85,0.23,1.6,0.22,2.43c-0.04,4.11-0.63,8.15-1.27,12.19c-0.16,1.02-0.71,1.85-1.61,2.41
		c0.94-2.89,1.29-5.86,1.47-8.99c-0.72,0.15-0.93,0.83-1.47,1.04C69.13,35.61,69.54,32.91,69.46,30.18z"/>
	<path class="st8" d="M33.96,65.9c-2.11-0.31-4.24-0.53-6.32-0.96c-1.54-0.32-3.02-0.91-4.53-1.38c0.17-0.58,0.58-0.98,1.05-1.32
		c0.37-0.04,0.74,0.02,1.11,0.04c2.93,0.57,5.87,1.1,8.86,1.18c0.36,0.01,0.71,0.09,1.01,0.31c0.43,0.35,0.2,0.68-0.05,0.99
		C34.76,65.18,34.37,65.55,33.96,65.9z"/>
	<path class="st0" d="M33.96,65.9c0.11-0.89,1.1-1.14,1.38-1.91c0.05-0.05,0.11-0.09,0.16-0.14c0.96-0.33,1.95-0.12,2.93-0.16
		c0.59-0.03,1.18,0.03,1.76-0.17c1.13-0.15,2.27-0.09,3.4-0.29c0.38-0.07,0.79-0.03,1.11,0.26c-0.67,1.1-1.69,1.84-2.65,2.66
		C39.35,66.23,36.65,66.19,33.96,65.9z"/>
	<path class="st9" d="M60.77,47.9c-1.11,0.52-1.33,1.42-1.2,2.55c0.09,0.83,0.03,1.68,0.04,2.51c-0.6,0.5,0.14,1.66-0.95,1.91
		c-0.16-5.52,0.17-11.02,0.22-16.54c0.65,0.79,0.67,1.77,0.69,2.71c0.05,1.76,0.08,3.52-0.01,5.28
		C59.52,47.29,59.74,47.85,60.77,47.9z"/>
	<path class="st10" d="M18.34,52.95c0.39-0.41,0.2-0.91,0.21-1.37c0.02-2.15,0.02-4.31,0-6.46c-0.01-0.64,0.09-1.19,0.71-1.52
		c0.35,0.29,0.35,0.7,0.35,1.1c-0.01,3.94,0.08,7.88-0.04,11.82c-0.2,0.53-0.18,1.23-1.01,1.25C18.21,56.18,18.32,54.56,18.34,52.95
		z"/>
	<path class="st11" d="M18.56,57.77c0.49-0.12,0.38-0.7,0.7-0.95c0.55,0.57,0.29,1.28,0.34,1.94c0.05,0.59-0.08,1.2,0.12,1.78
		c0.84,0.69,1.9,0.79,2.88,1.11c0.52,0.17,1.13,0.15,1.46,0.71c-0.04,0.62-0.52,0.9-0.96,1.21c-1.17-0.48-2.32-0.98-3.5-1.42
		c-0.8-0.3-1.06-0.85-1.04-1.65C18.6,59.59,18.57,58.68,18.56,57.77z"/>
	<path class="st12" d="M60.12,29.27c-0.03,4.77-0.05,9.54-0.08,14.31c-0.24-0.22-0.19-0.51-0.19-0.78c0-7.8,0-15.59,0-23.42
		c0.38,0.19,0.14,0.52,0.25,0.74c0.01,0.06,0.01,0.13,0,0.19C60.28,23.29,60.23,26.28,60.12,29.27z"/>
	<path class="st13" d="M17.14,6.88c0.31,0.01,0.61,0.02,0.92,0.04c0.93,0.75,2.06,1.04,3.15,1.41c-0.32,0.41-0.81,0.44-1.26,0.55
		c-1.27-0.19-2.2-1.3-3.54-1.29C16.41,7.1,16.72,6.93,17.14,6.88z"/>
	<path class="st14" d="M52.13,9.27c1.18-0.37,2.4-0.52,3.62-0.7c0.39,0,0.77,0.02,0.95,0.46c-1.08,0.38-2.17,0.74-3.34,0.75
		C52.96,9.6,52.42,9.74,52.13,9.27z"/>
	<path class="st15" d="M19.27,38.82c-0.26,0.09-0.24,0.51-0.61,0.52c-0.21-0.38-0.1-0.78-0.1-1.15c-0.01-5.46-0.06-10.92,0.01-16.38
		c0.03-2.59-0.34-5.16-0.28-7.75c0.01-0.42-0.11-0.89-0.31-1.25c-0.27-0.47-0.65-0.63-0.87,0.09c-0.29-0.25-0.13-0.67-0.48-1.24
		c0,1.83,0.02,3.37-0.03,4.92c-0.01,0.17,0.45,0.94-0.42,0.61c0.41-0.73,0.35-1.32-0.44-1.77c-0.22-0.13-0.37-0.4-0.55-0.6
		c-0.87-1.49-1.05-3.05-0.39-4.65c0.24-0.58,0.55-1.17,1.35-1.12c2.65,0.77,5.37,1.05,8.11,1.25c0.1,0.01,0.19,0.13,0.28,0.2
		c-0.45,0.79-1.23,1.08-2.02,1.38c-2.33,0.88-2.92,2.05-2.27,4.47c0.02,0.08,0.04,0.16,0.07,0.23c1.44,3.22,1.84,6.65,2.11,10.11
		c0.05,0.68,0.4,1.3,0.29,1.99c-0.44,0.54-1.11,0.58-1.7,0.77c-0.54,0.17-1.06,0.34-1.33,0.9c-0.2,2.3-0.03,4.6-0.1,6.89
		C19.59,37.79,19.73,38.37,19.27,38.82z"/>
	<path class="st16" d="M56.76,43.13c-0.02,0.08-0.05,0.16-0.07,0.24c-0.79,1.3-1.89,2.35-2.92,3.45
		c-3.34,3.59-7.05,6.79-10.61,10.14c-0.29,0.28-0.6,0.53-1.01,0.61c-1.84,0.19-3.67,0.07-5.49-0.2c-0.88-0.13-1.38-0.59-1.41-1.49
		c-0.05-1.52-0.04-3.03-0.01-4.55c0.02-0.96,0.52-1.24,1.41-1.09c2.18,0.36,4.37,0.14,6.55,0.09c-1.18-0.17-2.36-0.11-3.54-0.12
		c-0.72-0.01-1.44,0.02-2.15-0.03c-2.13-0.16-2.48-0.59-2.18-2.72c1.49-1.96,3.27-3.67,4.91-5.7c-1.16-0.03-2.2,0.03-3.24-0.03
		c-0.7-0.04-0.7-0.06-0.84-0.67c1.2-0.4,2.45-0.14,3.67-0.2c1.15-0.05,2.3,0.05,3.56-0.06c-0.29-0.31-0.63-0.22-0.87-0.35
		c-0.71-0.47-0.24-0.9,0.09-1.27c1.6-1.77,3.12-3.62,4.81-5.31c0.73-0.73,1.19-1.72,2.14-2.23c0.12-0.05,0.25-0.09,0.38-0.11
		c1.97-0.28,3.96-0.4,5.89-0.96c0.38-0.11,0.79-0.24,1.06,0.22c0.23,0.53,0.19,1.09,0.19,1.64c0.01,2.7-0.01,5.4,0.01,8.09
		C57.12,41.44,57.06,42.3,56.76,43.13z"/>
	<path class="st17" d="M22.63,28.72c-0.6-1.2-0.61-2.51-0.7-3.79c-0.18-2.42-0.55-4.79-1.48-7.06c-0.41-0.99-0.69-2-0.73-3.1
		c-0.05-1.35,0.52-2.25,1.64-2.76c1.07-0.49,2.17-0.91,3.19-1.51c2.76,0.29,5.53,0.62,8.3,0.87c2.77,0.25,5.55,0.62,8.34,0.13
		c0.37-0.07,0.77-0.01,1.4-0.01c-1.61,1.72-3.08,3.27-4.54,4.83c-0.97,1.04-2.04,2-2.7,3.29c-0.38,0.14-0.74,0.3-0.81,0.77
		c-1.09,1.72-2.62,3.07-3.87,4.67c-0.59,0.75-1.21,1.48-1.83,2.2c-0.26,0.3-0.49,0.6-0.46,1.03c-0.31,0.29-0.69,0.29-1.07,0.31
		c-1.12-0.01-2.22,0.23-3.33,0.36C23.51,29,23.03,29.13,22.63,28.72z"/>
	<path class="st17" d="M54.56,16.5c-2.69,2.72-5.38,5.44-8.06,8.17c-1,1.02-1.98,2.07-2.97,3.11c-0.11,0.12-0.23,0.2-0.38,0.25
		c-2.5,0.13-5,0.34-7.5-0.12c-0.72-1.1-0.51-2.31-0.22-3.44c0.2-0.78,1.02-0.66,1.64-0.56c1.75,0.28,3.47,0.1,5.2-0.23
		c-0.76-0.18-1.52-0.03-2.29,0.03c-1.26,0.11-2.54,0.29-3.68-0.53c3.22-3.65,6.45-7.31,9.68-10.96c0.26-0.29,0.58-0.53,0.88-0.79
		c3.75-0.54,5.6,0.39,7.54,3.74C54.64,15.59,54.9,16.01,54.56,16.5z"/>
	<path class="st18" d="M42.56,57.3c1.4-1.82,3.26-3.16,4.91-4.71c2.48-2.31,4.92-4.67,7.18-7.2c0.64-0.71,1.36-1.35,2.04-2.02
		c0.03,2.63,0.06,5.25,0.08,7.88c0.18,0.21,0.17,0.44,0.09,0.68c-3.21,3.77-6.92,7.06-10.37,10.6c-0.31,0.32-0.7,0.53-1.06,0.77
		c-0.25,0.03-0.53-0.04-0.73,0.19c-1.51,0.11-3.03,0.22-4.54,0.33c-1.34,0.17-2.68,0.03-4.02,0.08c-0.75-0.2-0.43-0.68-0.17-0.96
		c1.46-1.56,2.87-3.17,4.62-4.42c0.59-0.42,1.31-0.25,1.94-0.46c0.38-0.11,0.79-0.05,1.26-0.27C43.4,57.46,42.84,57.69,42.56,57.3z"
		/>
	<path class="st19" d="M42.56,57.3c0.4,0,0.79,0,1.19,0c0.27,0,0.61-0.06,0.65,0.33c0.04,0.35-0.27,0.48-0.54,0.53
		c-0.43,0.07-0.87,0.08-1.3,0.12c-2.13,0.31-4.25,0.51-6.4,0.16c-1.63-0.27-1.85-0.43-1.86-2.14c-0.01-5.46,0-10.93-0.01-16.39
		c0-0.6,0.06-1.2-0.16-1.78c-0.23-1.92-0.1-3.84-0.09-5.76c-0.03-1.51-0.04-3.03,0-4.54c-0.06-0.75,0.03-1.51-0.02-2.27
		c0.11-1.75-0.33-3.54,0.38-5.24c0.03-0.61,0.09-1.2,0.95-0.71c0.35,0.92,0.23,1.89,0.23,2.84c0,0.52,0.09,0.88,0.72,0.74
		c1.98,0.39,3.97,0.1,5.95,0.02c0.38-0.02,0.98-0.29,1.01,0.43c0.02,0.69-0.6,0.49-0.98,0.53c-1.9,0.18-3.81,0.37-5.71,0.04
		c-0.67-0.12-1.06,0-0.99,0.82c0.08,0.91,0.05,1.83,0.06,2.74c0.38,0.48,0.29,1.06,0.32,1.61c0.03,0.5,0.2,0.88,0.76,0.87
		c1.87-0.02,3.75,0.2,5.61-0.11c0.27-0.06,0.55-0.09,0.82-0.1c0.49-0.01,1-0.05,1.06,0.63c0.06,0.65-0.35,0.91-0.91,1.02
		c-1.09,0.21-2.19,0.32-3.3,0.26c-1.07,0-2.14,0-3.22,0.01c-0.41,0-0.83-0.01-0.83,0.58c0.01,1.37-0.02,2.73-0.01,4.1
		c0.01,0.08,0.02,0.16,0.02,0.24c0.02,3.42-0.42,2.94,3.08,3.02c1.09,0.03,2.23-0.3,3.26,0.34c0.44,0.01,0.88,0.02,1.32,0.03
		c0.32,0,0.55,0.1,0.55,0.47c0,0.37-0.23,0.48-0.55,0.48c-1,0-2,0-3,0c-1.52,0.01-3.04,0.02-4.56,0.03
		c-0.24,1.45-0.07,2.92-0.12,4.37c-0.02,0.55,0.05,1.12-0.34,1.59c-0.09,2.62-0.09,2.63,2.55,2.65c1.72,0.01,3.44,0,5.16,0.01
		c0.37,0,0.89-0.14,0.86,0.51c-0.02,0.54-0.48,0.45-0.82,0.44c-2.31-0.06-4.64,0.24-6.93-0.23c-0.7-0.14-0.88,0.06-0.86,0.76
		c0.05,1.48,0.05,2.96-0.02,4.44c-0.05,0.98,0.42,1.18,1.26,1.3C38.73,57.33,40.64,57.27,42.56,57.3z"/>
	<path class="st20" d="M56.76,43.13c-0.02-4.16-0.04-8.32-0.06-12.47c0.05-0.9-0.63-1.07-1.28-1.28c-0.89-0.28-1.89-0.18-2.71-0.76
		c-0.03-0.05-0.06-0.1-0.08-0.14c1.35-1.52,2.68-3.06,4.12-4.5c0.75-0.75,1.01-0.35,1.09,0.37c0.15,1.42,0.28,2.85,0.3,4.28
		c0.04,3.4-0.04,6.8,0.03,10.19C58.2,40.47,58.18,42.01,56.76,43.13z"/>
	<path class="st21" d="M39.92,31.67c1.06-0.09,2.11-0.18,3.17-0.29c0.44-0.05,1.05,0.06,0.97-0.68c-0.09-0.82-0.67-0.21-1.01-0.29
		c-0.22-0.05-0.47,0.01-0.7,0.03c-0.18,0.11-0.38,0.1-0.58,0.09c-0.23-0.01-0.52,0.09-0.65-0.16c-0.14-0.29,0.08-0.54,0.26-0.74
		c0.6-0.64,1.16-1.31,1.89-1.8c0.09-0.02,0.17-0.04,0.26-0.06c3.03,0.23,6.06,0.47,9.09,0.7c0,0-0.04,0.09-0.04,0.09
		c-0.68,1.32-1.62,2.41-2.85,3.26c-0.08,0.02-0.16,0.04-0.24,0.06c-0.79,0.44-1.63,0.57-2.53,0.58c-1.87,0.01-3.73,0.35-5.61,0.23
		c-0.52-0.03-1.04,0.03-1.53-0.18C39.42,32.19,39.48,31.91,39.92,31.67z"/>
	<path class="st22" d="M54.56,16.5c-0.55-2.41-3.55-5.46-6.15-5.06c-0.51,0.08-1.04,0-1.55,0c0.14-0.07,0.28-0.21,0.41-0.2
		c2.59,0.11,5.15-0.33,7.72-0.47c0.69-0.04,1.55-0.7,2.01-0.05c0.3,0.42-0.14,1.31-0.02,1.94C57.36,14.72,55.66,15.41,54.56,16.5z"
		/>
	<path class="st23" d="M16.16,9.05c-1.29,0.92-1.64,2.15-1.31,3.66c0.15,0.69,0.23,1.4,0.34,2.1c-1.23-1.2-2.47-2.39-3.69-3.59
		c-1.05-1.03-2.02-2.15-3.32-2.97C10.91,7.99,13.57,8.1,16.16,9.05z"/>
	<path class="st24" d="M52.13,9.27c0.46,0.05,0.92,0.09,1.23,0.51c-2.03,0.39-4.08,0.65-6.15,0.65c-5.54,0.01-11.08-0.1-16.61-0.46
		c-1.45-0.09-2.95,0.05-4.36-0.44c-0.2-0.54,0.02-0.66,0.51-0.49c1.16,0.45,2.39,0.15,3.58,0.27c0.88,0.3,1.8-0.06,2.68,0.2
		c3.07,0.08,6.15,0.13,9.22,0.26C45.55,9.91,48.84,9.66,52.13,9.27z"/>
	<path class="st25" d="M56.7,52.02c0.02-0.25,0.05-0.51,0.07-0.76c0.37-0.35,0.75-0.69,1.41-1.31c-0.38,3.91-0.22,7.55-0.29,11.19
		c-0.38-0.32-0.77-0.65-1.15-0.97c-0.12-0.09-0.21-0.21-0.27-0.35c-0.22-1.1-0.1-2.21-0.11-3.32c-0.04-1.08-0.03-2.16-0.02-3.24
		C56.36,52.82,56.39,52.38,56.7,52.02z"/>
	<path class="st26" d="M26.74,9.04c-0.3,0.03-0.5,0.16-0.51,0.49c-2.11-0.04-4.21-0.25-6.29-0.66c0.31-0.44,0.76-0.54,1.26-0.55
		C23.05,8.56,24.9,8.8,26.74,9.04z"/>
	<path class="st26" d="M33,9.51c-0.9-0.06-1.82,0.26-2.68-0.2C31.22,9.34,32.13,9.17,33,9.51z"/>
	<path class="st27" d="M61.29,45.31c0-4.88,0-9.66,0-14.43c0-3.92,0.06-7.83,0.01-11.75c-0.01-1.02,0.39-1.28,1.27-1.13
		c0.55,0.09,1.11,0.15,1.64,0.32c2.03,0.63,3.04,2,3.05,4.16c0.03,6.03,0.33,12.06-0.74,18.04c-0.09,0.51-0.17,1.02-0.6,1.4
		C64.49,43.17,62.98,44.32,61.29,45.31z"/>
	<path class="st2" d="M60.12,29.27c-0.01-2.99-0.02-5.98-0.02-8.97c0.37,1.32,0.16,2.67,0.16,4C60.25,25.96,60.49,27.63,60.12,29.27
		z"/>
	<path class="st28" d="M56.69,59.94c0.02,0.08,0.03,0.15,0.06,0.23c-0.04,0.44-0.06,0.83-0.64,0.98c-3.52,0.9-7.03,1.85-10.67,2.15
		c1.75-1.89,3.67-3.63,5.46-5.46c1.62-1.66,3.41-3.18,4.83-5.04c0.27-0.35,0.47-0.75,0.98-0.77c0,1.51,0,3.03-0.01,4.54
		c-0.25,0.17-0.56,0.05-0.81,0.17c-0.61,0.3-1.01,0.82-1.13,1.45c-0.11,0.56,0.46,0.77,0.84,1.05C55.94,59.5,56.4,59.59,56.69,59.94
		z"/>
	<path class="st29" d="M19.27,38.82c0-2.54,0-5.09,0.02-7.63c0-0.42-0.14-0.88,0.2-1.25c0.2,0.15,0.29,0.37,0.33,0.61
		c0.07,0.43,0.09,0.87,0.08,1.31c-0.08,9.17,0.07,18.33-0.05,27.5c-0.01,0.4,0.02,0.8-0.1,1.19c-0.06,0.15-0.16,0.27-0.29,0.37
		c-0.39-1.34-0.06-2.73-0.21-4.08c0-4.41,0-8.81,0-13.22C19.26,42.01,19.27,40.41,19.27,38.82z"/>
	<path class="st18" d="M24.07,62.35c-1.54-0.46-3.15-0.7-4.6-1.45c0,0,0.1-0.03,0.1-0.03c0.17-1.39,0.05-2.79,0.07-4.18
		c0.01-0.58,0.12-1.07,0.51-1.54c4.34-5.27,8.51-10.68,12.9-15.91c0.28-0.34,0.55-0.69,0.96-0.88c0.35-0.16,0.53-0.05,0.52,0.35
		c0,3.4,0,6.8,0,10.2c0.03,0.38-0.13,0.69-0.36,0.98c-1.78,2.26-3.34,4.68-5.1,6.95c-1.28,1.47-2.36,3.11-3.62,4.6
		c-0.28,0.33-0.34,0.7-0.4,1.1C24.68,62.64,24.38,62.44,24.07,62.35z"/>
	<path class="st30" d="M34.38,49.36c0-3.67,0-7.34,0-11.01c-0.06-0.1-0.05-0.2,0.03-0.28c0.35,0.42,0.2,0.92,0.2,1.38
		c0.02,5.7,0.04,11.41,0,17.11c-0.01,1.06,0.27,1.39,1.39,1.5c2.19,0.23,4.37,0.14,6.56,0.21c-3.23,0.62-4.81,3.27-6.74,5.48
		c-0.1,0.2-0.35,0.1-0.48,0.24c0,0,0,0,0,0c-2.57-0.4-5.2-0.34-7.75-0.94c-0.84-0.2-1.7-0.34-2.55-0.51
		c-0.14-0.23-0.66-0.35-0.28-0.74c1.51-1.55,2.48-3.54,4.11-4.99c1.06-0.67,2.24-0.32,3.37-0.36c1.77-0.06,1.78-0.02,1.78-1.8
		c0-1.27,0-2.54,0-3.8C34.02,50.32,34.12,49.82,34.38,49.36z"/>
	<path class="st8" d="M35.34,64c0.16-0.08,0.32-0.16,0.48-0.24c1.45,0.02,2.89,0.04,4.34,0.06C38.57,64.25,36.95,63.92,35.34,64z"/>
	<path class="st31" d="M19.53,30.43c-0.01-0.17-0.03-0.33-0.04-0.49c0.85-0.93,2.07-0.87,3.15-1.21c1.62-0.02,3.19-0.58,4.82-0.46
		c0.29,0.45-0.05,0.74-0.3,1.03c-0.36,0.42-0.69,0.86-1.04,1.28c-0.33,0.41-0.84,0.76-0.44,1.4c-0.29,0.17-0.6,0.15-0.92,0.1
		c-1.2-0.2-2.42-0.29-3.59-0.61C20.53,31.28,19.88,31.09,19.53,30.43z"/>
	<path class="st32" d="M39.68,32.33c3.29,0.1,6.56-0.18,9.84-0.43c-2.25,2.51-4.49,5.03-6.74,7.54c-0.21,0.24-0.46,0.45-0.46,0.8
		c-1.95,0.01-3.89,0-5.84,0.05c-0.67,0.02-0.92-0.22-0.89-0.89c0.05-0.91,0.03-1.83,0.03-2.74c0.34-1.27,1.48-1.94,2.19-2.93
		c0.39-0.54,0.89-1.02,1.39-1.48C39.38,32.18,39.54,32.19,39.68,32.33z"/>
	<path class="st33" d="M35.62,47.2c-0.01-1.7-0.02-3.39-0.02-5.09c0-0.35-0.17-0.85,0.48-0.87c1.07,0.46,2.19,0.1,3.29,0.2
		c0.42,0.04,0.85,0.01,1.45,0.01c-1.05,1.64-2.34,2.86-3.54,4.15C36.76,46.15,36.56,47.08,35.62,47.2z"/>
	<path class="st34" d="M49.75,31.83c0.95-1.09,1.9-2.17,2.85-3.26c1.3,0.16,2.6,0.32,3.81,0.85c0.54,0.24,1.23,0.58,0.3,1.23
		C54.45,31.47,52.11,31.7,49.75,31.83z"/>
	<path class="st0" d="M34.41,20.32c0.09,1.76,0.1,3.53-0.03,5.29c-0.48,0.93-1.29,1.59-1.92,2.4c-0.22,0.16-0.46,0.26-0.72,0.3
		c-1.13,0-2.28,0.32-3.36-0.24c-0.68-0.21-0.14-0.46,0.01-0.64c1.66-1.99,3.33-3.97,5-5.95C33.71,21.08,34.07,20.71,34.41,20.32z"/>
	<path class="st21" d="M28.38,28.06c1.21-0.02,2.42-0.05,3.63-0.07c0.17,0.36-0.05,0.63-0.24,0.86c-0.97,1.15-1.82,2.4-2.96,3.41
		c-0.12,0.05-0.24,0.07-0.37,0.09c-0.88-0.2-1.86,0.07-2.67-0.52c-0.65-0.25-0.65-0.58-0.23-1.09c0.66-0.81,1.5-1.49,1.91-2.48
		C27.76,28.2,28.11,28.33,28.38,28.06z"/>
	<path class="st35" d="M43.28,27.83c-0.36,1.04-1.45,1.48-2.04,2.49c0.4,0.04,0.76,0.08,1.11,0.11c-2.05,0.42-4.12,0.12-6.19,0.2
		c-0.51,0.02-0.57-0.32-0.56-0.72c0.02-0.72,0.03-1.44,0.04-2.15C38.19,27.79,40.74,27.81,43.28,27.83z"/>
	<path class="st16" d="M28.64,32.1c0.08-0.01,0.15-0.03,0.23-0.04c0.5-0.27,1.05-0.43,1.6-0.32c1.3,0.26,2.69-0.06,3.94,0.59
		c0,1.91,0.01,3.82,0.01,5.73c-0.01,0.09-0.02,0.19-0.03,0.28c-1.74,1.54-3.05,3.45-4.51,5.23c-3.23,3.93-6.39,7.92-9.61,11.87
		c-0.36,0.44-0.49,0.86-0.52,1.4c-0.06,1.34,0.23,2.7-0.18,4.03c-0.01-10.15-0.02-20.3-0.04-30.45c1.35,0.84,2.89,0.96,4.4,1.18
		c0.3,0.04,0.64-0.05,0.88,0.24c0.03,0.45-0.27,0.73-0.51,1.04c-1.04,1.31-2,2.69-3.15,3.91c-0.84,0.9-1.27,1.9-1.11,3.14
		c0.08,0.63-0.07,1.27,0.12,2.09c1.68-1.91,3.22-3.75,4.7-5.65c0.9-1.17,1.84-2.31,2.77-3.45C27.92,32.57,28.26,32.32,28.64,32.1z"
		/>
	<path class="st36" d="M34.4,32.33c-1.85-0.09-3.69-0.18-5.54-0.27c1.05-1.36,2.09-2.71,3.14-4.07c0.15-0.07,0.31-0.15,0.46-0.22
		c0.65-0.37,1.3-0.5,1.94,0.02C34.4,29.31,34.4,30.82,34.4,32.33z"/>
	<path class="st37" d="M39.19,32.34c-0.55,1.2-1.65,1.95-2.41,2.99c-0.34,0.47-0.77,0.88-1.16,1.32c0-1.45,0.01-2.89,0.01-4.34
		C36.82,31.8,38.01,31.76,39.19,32.34z"/>
	<path class="st38" d="M39.19,32.34c-1.19-0.01-2.37-0.02-3.56-0.03c-0.08-0.48,0.06-0.74,0.62-0.71c1.22,0.05,2.45,0.05,3.67,0.07
		c-0.08,0.22-0.16,0.44-0.24,0.65C39.52,32.33,39.36,32.34,39.19,32.34z"/>
	<path class="st39" d="M34.4,27.79c-0.65-0.01-1.3-0.02-1.94-0.02c0.43-0.9,1.14-1.56,1.92-2.16C34.39,26.34,34.4,27.06,34.4,27.79z
		"/>
	<path class="st18" d="M56.69,59.94c-0.83,0.02-1.38-0.55-1.98-0.97c-0.44-0.31-0.58-0.82-0.18-1.24c0.59-0.61,0.83-1.92,2.17-1.17
		C56.69,57.69,56.69,58.81,56.69,59.94z"/>
	<path class="st6" d="M62.57,19.27c2.04,0.12,3.47,0.88,3.49,3.31c0.06,5.91,0.31,11.82-0.71,17.69c-0.07,0.41-0.17,0.76-0.51,1.03
		c-0.72,0.56-1.42,1.13-2.26,1.8C62.57,35.04,62.57,27.15,62.57,19.27z"/>
	<path class="st37" d="M34.38,49.36c0.01,2.14-0.01,4.29,0.03,6.43c0.02,0.77-0.22,1.06-1.01,1.03c-1.51-0.05-3.02-0.02-4.52-0.02
		c0.81-1.58,2.02-2.88,3.03-4.32C32.67,51.41,33.21,50.13,34.38,49.36z"/>
	<path class="st40" d="M28.64,32.1c-2.72,3.36-5.44,6.71-8.16,10.07c-0.15,0.18-0.24,0.45-0.54,0.33c-0.23-0.09-0.18-0.33-0.18-0.52
		c0-1.2-0.01-2.39,0-3.59c0.01-0.81,0.75-1.2,1.16-1.75c1.23-1.65,2.59-3.21,3.89-4.8c0.32,0,0.64-0.01,0.95-0.01
		C26.73,31.83,27.69,31.87,28.64,32.1z"/>
</g>
</svg>
