<?xml version="1.0" encoding="utf-8"?>
<!-- Generator: Adobe Illustrator 23.0.2, SVG Export Plug-In . SVG Version: 6.00 Build 0)  -->
<svg version="1.1" id="Camada_1" xmlns="http://www.w3.org/2000/svg" xmlns:xlink="http://www.w3.org/1999/xlink" x="0px" y="0px"
	 viewBox="0 0 69.29 70.66" style="enable-background:new 0 0 69.29 70.66;" xml:space="preserve">
<style type="text/css">
	.st0{fill:#FEFEFE;}
	.st1{fill:#63192B;}
	.st2{fill:#9D4E1B;}
	.st3{fill:#9C4C1A;}
	.st4{fill:#9C593A;}
	.st5{fill:#9A5838;}
	.st6{fill:#C17906;}
	.st7{fill:#377F52;}
	.st8{fill:#9C5A3A;}
	.st9{fill:#833E39;}
	.st10{fill:#8E5D3E;}
	.st11{fill:#966940;}
	.st12{fill:#CD7D54;}
	.st13{fill:#B73F43;}
	.st14{fill:#B74044;}
	.st15{fill:#EDC067;}
	.st16{fill:#B84044;}
	.st17{fill:#983033;}
	.st18{fill:#CE7D54;}
	.st19{fill:#B74043;}
	.st20{fill:#B73F44;}
	.st21{fill:#973033;}
	.st22{fill:#0E6388;}
	.st23{fill:#972F32;}
	.st24{fill:#AC3B3D;}
	.st25{fill:#B94145;}
	.st26{fill:#E7B764;}
	.st27{fill:#B84045;}
	.st28{fill:#DD9C7C;}
	.st29{fill:#DF9D7C;}
	.st30{fill:#983032;}
	.st31{fill:#962C32;}
	.st32{fill:#D08957;}
	.st33{fill:#4CEFE7;}
	.st34{fill:#BA4545;}
	.st35{fill:#B7723A;}
	.st36{fill:#D89259;}
	.st37{fill:#E4B362;}
	.st38{fill:#B8723A;}
	.st39{fill:#D99259;}
	.st40{fill:#DB9B7C;}
	.st41{fill:#A86E51;}
	.st42{fill:#9A6245;}
	.st43{fill:#925231;}
	.st44{fill:#986144;}
	.st45{fill:#99BC72;}
	.st46{fill:#9A6243;}
	.st47{fill:#B67138;}
	.st48{fill:#769C4E;}
	.st49{fill:#AFFC58;}
	.st50{fill:#0C6287;}
	.st51{fill:#0D6185;}
	.st52{fill:#D1FCF8;}
	.st53{fill:#A8511B;}
	.st54{fill:#986044;}
	.st55{fill:#E2E2E2;}
	.st56{fill:#D17E54;}
	.st57{fill:#49EEE7;}
	.st58{fill:#49EFE7;}
	.st59{fill:#FBFDFD;}
	.st60{fill:#FCFDFD;}
	.st61{fill:#47EFE7;}
	.st62{fill:#47EEE6;}
	.st63{fill:#48EEE7;}
	.st64{fill:#F9FCFD;}
	.st65{fill:#F9FDFD;}
	.st66{fill:#44F0E7;}
	.st67{fill:#49F4EB;}
	.st68{fill:#47F2E9;}
	.st69{fill:#E3FCFB;}
	.st70{fill:#D5FBFA;}
	.st71{fill:#47F0E8;}
	.st72{fill:#47F5EB;}
	.st73{fill:#E0F9FA;}
	.st74{fill:#DAEDF1;}
	.st75{fill:#4AEFE7;}
	.st76{fill:#48EDE6;}
	.st77{fill:#F5F9F9;}
	.st78{fill:#4AF0E8;}
</style>
<g>
	<path class="st0" d="M4.94,46.26c0-3.47-0.03-6.94,0.02-10.41c0.01-0.8-0.23-1.04-0.99-0.98c-0.55,0.05-1.12,0.03-1.68-0.05
		c-1.14-0.16-1.9-0.8-2.12-1.96c-0.39-2.04-0.24-3.75,1.56-5.36c3.51-3.14,6.67-6.67,10.1-9.9c4.25-4,8.31-8.18,12.3-12.41
		c1.23-1.3,2.47-1.78,4.05-1.79c3.24-0.04,6.48,0,9.71-0.02c0.82,0,1.67,0.05,2.32,0.46c0.95,0.61,1.57,0.26,2.3-0.32
		c1.09-0.88,2.23-1.68,3.36-2.51c2.08-1.52,3.3-1.29,5.17,0.45c2.45,2.28,5.12,4.32,7.58,6.59c1.41,1.3,3.06,2.31,4.31,3.78
		c1.08,1.27,1.25,2.76,0.69,4.26c-0.55,1.49-1.94,1.69-3.29,1.63c-0.98-0.05-1.2,0.23-1.31,1.21c-0.22,1.94,0.41,3.31,1.88,4.56
		c1.85,1.58,3.58,3.31,5.27,5.07c1.05,1.09,0.92,2.5,0.51,3.84c-0.42,1.39-1.6,2-2.86,1.93c-1.57-0.09-2.12,0.33-2.07,1.95
		c0.03,1.02-0.06,2.07-0.07,3.1c-0.03,4.56,0.02,9.12-0.06,13.68c-0.02,1.04,0.3,1.31,1.26,1.2c0.75-0.09,1.52,0.01,2.28-0.05
		c2.47-0.19,3.59,1.64,3.88,3.67c0.26,1.8,0.31,3.67,0.16,5.49c-0.13,1.56-0.57,3.1-0.83,4.67c-0.22,1.31-1.89,2.27-3.43,2.26
		c-9.25-0.03-18.52-0.45-27.75,0.03c-9.67,0.5-19.32,0.06-28.98,0.33c-1.37,0.04-2.7-0.37-4.13-0.09c-1.32,0.25-2.63-1.24-2.7-2.8
		c-0.13-2.87-0.13-5.75,0-8.63c0.02-0.43,0.06-0.87,0.02-1.31c-0.19-1.93,0.82-3.31,2.73-3.51c0.75-0.07,0.9-0.3,0.89-0.99
		c-0.04-2.36-0.02-4.71-0.02-7.07C5,46.26,4.97,46.26,4.94,46.26z"/>
	<path d="M33,4.59c1.48,0,2.96,0.03,4.44-0.01c1.15-0.04,2.25,0.12,3.2,0.78c0.56,0.39,0.98,0.27,1.45-0.09
		c1.63-1.22,3.27-2.42,4.91-3.63c0.97-0.72,2.05-0.5,2.91,0.37c1.01,1.01,2.17,1.88,3.25,2.82c2.61,2.29,5.14,4.66,7.89,6.78
		c0.87,0.68,1.61,1.48,1.65,2.76c0.04,1.39-0.37,2.02-1.74,2.17c-0.2,0.02-0.4,0.01-0.6,0.01c-2.42,0.01-2.25,0.03-2.52,2.38
		c-0.28,2.36,0.52,3.99,2.28,5.47c1.8,1.51,3.4,3.26,5.11,4.89c0.84,0.81,0.57,1.79,0.37,2.69c-0.18,0.83-0.96,1.14-1.76,1.19
		c-0.8,0.05-1.6,0.07-2.4,0.01c-0.66-0.04-0.76,0.22-0.79,0.82c-0.32,6.83-0.1,13.67-0.21,20.5c-0.01,0.85,0.3,0.98,1.02,0.95
		c1.24-0.06,2.48-0.05,3.72-0.03c1.6,0.03,2.59,1.01,2.73,2.61c0.16,1.71,0.25,3.43,0.12,5.14c-0.12,1.52-0.62,2.99-0.78,4.54
		c-0.11,1.06-1.32,1.38-2.38,1.37c-9.37-0.01-18.77-0.43-28.12,0.05c-9.5,0.49-18.99,0.05-28.47,0.34c-1.36,0.04-2.65-0.54-4.1-0.11
		c-0.89,0.26-1.55-0.71-1.59-1.68c-0.11-2.84-0.12-5.67,0-8.51c0.02-0.47,0.1-0.94,0.03-1.43c-0.2-1.43,0.54-2.22,2.04-2.27
		c1.57-0.05,1.54-0.05,1.57-1.59C6.31,49,5.99,44.13,6.25,39.25c0.09-1.65-0.15-3.34-0.05-5.02c0.03-0.6-0.31-0.52-0.66-0.53
		c-0.88-0.01-1.76-0.05-2.64-0.02c-1.13,0.05-1.6-0.59-1.69-1.58c-0.13-1.47,0.13-2.63,1.4-3.78c3.52-3.19,6.75-6.71,10.2-9.98
		c4.24-4.01,8.26-8.23,12.32-12.42c0.98-1.01,1.89-1.31,3.08-1.33C29.8,4.56,31.4,4.58,33,4.59C33,4.58,33,4.59,33,4.59z"/>
	<path class="st1" d="M7.39,34.36c-0.01-1.88-0.01-1.88-1.96-1.87c-0.48,0-0.96,0.05-1.44-0.02c-0.54-0.07-1.4,0.37-1.56-0.4
		c-0.16-0.81-0.48-1.85,0.59-2.45c0.17-0.09,0.3-0.27,0.43-0.41c5.09-5.29,10.58-10.19,15.69-15.45c2.36-2.43,4.66-4.92,7.13-7.24
		c0.62-0.95,1.67-0.36,2.46-0.7c0.24,0,0.48,0.01,0.72,0.01c3.03,0.19,6.07,0.18,9.1,0c0.47,0,0.91,0.09,1.22,0.49
		c0.63,0.17,0.96,0.9,1.67,0.93c0.47-0.89,1.46-1.06,2.18-1.61c1.08-0.82,2.14-1.66,3.24-2.46c0.85-0.62,1.62-0.68,2.57,0.06
		c3.44,2.64,6.49,5.72,9.81,8.5c0.83,0.69,1.88,1.17,2.18,2.41c0.22,0.92,0.02,1.27-0.93,1.24c-1.08-0.04-2.16-0.02-3.23-0.02
		c-0.66-0.41-1.07-1.18-1.94-1.28c-1.87-1.61-3.68-3.28-5.65-4.76c-1.43-1.08-1.76-1.02-2.91,0.42c-1.06,1.32-1.06,1.32,0.31,2.93
		c0.05,0.1,0.1,0.2,0.13,0.31c0.56,1.87,2.15,2.7,3.65,3.62c0.57,0.27,0.98,0.72,1.34,1.23c0.45,0.65,1.01,1.2,1.65,1.67
		c0.62,0.41,1.07,1.01,1.64,1.48c0.45,0.29,0.84,0.64,1.07,1.13c0.91,1.69,2.42,2.83,3.83,4.03c1.36,1.17,2.36,2.69,3.81,3.77
		c0.52,0.39,0.38,1.04,0.25,1.57c-0.16,0.64-0.76,0.43-1.21,0.47c-1.26,0.11-2.55-0.21-3.79,0.24c-0.28,0.75-0.78,0.91-1.48,0.57
		c-1.17-0.95-2.57-0.59-3.8-0.4c-1.54,0.24-2.57-0.19-3.6-1.27c-3.28-3.44-6.38-7.04-9.61-10.53c-1.85-1.99-3.6-4.07-5.47-6.04
		c-1.2-1.26-2.88-1.34-4.05-0.04c-1.58,1.75-3.15,3.5-4.73,5.26c-3.12,3.48-6.29,6.92-9.4,10.4c-0.71,0.8-1.6,1.44-2.28,2.29
		c-0.48,0.61-1.2,0.63-1.88,0.51c-1.51-0.28-3.03-0.18-4.54-0.17c-0.5,0-0.59,0.37-0.7,0.75C7.83,33.86,7.99,34.36,7.39,34.36z"/>
	<path class="st2" d="M37.15,67.73c-7.41,0.65-14.84,0.17-22.25,0.29c-3.43,0.06-6.87-0.05-10.3-0.03c-0.7,0-0.84-0.32-0.84-0.85
		c0.02-2.83-0.03-5.67,0.1-8.5c0.08-1.78,0.22-1.73,2.05-2.04c0.51-0.09,1.15,0.14,1.55-0.41c0.45-0.74,0.97-0.29,1.48-0.09
		c0.65,0.28,1.34,0.21,2.01,0.21c7.59,0.05,15.18,0.07,22.77,0c0.44,0,0.88-0.01,1.32,0.01c1.48,0.05,1.64,0.2,1.9,1.71
		c0.04,0.42,0.2,0.82,0.17,1.25c-0.05,0.4-0.09,0.8-0.1,1.21c0.1,2.08-0.11,4.16,0.14,6.24C37.21,67.06,37.31,67.4,37.15,67.73z"/>
	<path class="st3" d="M59.19,55.73c-0.04,0.69,0.22,0.98,0.97,0.94c1.51-0.07,3.04,0.06,4.54-0.07c1.22-0.11,1.66,0.58,1.88,1.49
		c0.42,1.75,0.55,3.6,0.22,5.32c-0.24,1.21-0.56,2.4-0.66,3.65c-0.06,0.75-0.7,0.88-1.34,0.87c-3.62-0.06-7.24,0.14-10.85-0.21
		c-0.25-0.88,0.3-1.13,1-1.26c0.13,0.03,0.26,0.07,0.38,0.12c2.94,0.19,5.88,0.04,8.82,0.07c0.64,0.01,0.93-0.33,0.94-0.96
		c0.01-1.23,0.04-2.47-0.02-3.7c-0.04-0.87-0.2-1.73,0.02-2.61c0.09-0.35,0.03-0.72-0.32-0.95c-0.26-0.12-0.54-0.17-0.82-0.15
		c-2.47,0.12-4.93-0.32-7.41-0.04c-1,0.11-1.32,0.47-1.29,1.4c0.04,1.2,0.02,2.4,0.01,3.59c0,0.52,0.04,1.04-0.22,1.53
		c-0.96,0.35-1.12-0.4-1.39-1.01c-0.19-2.01-0.08-4.03-0.07-6.05c0-0.94,0.51-1.35,1.43-1.33c0.67,0.01,1.34,0,2.02-0.01
		c0.41,0.01,0.77-0.03,1.04-0.44C58.35,55.48,58.75,55.4,59.19,55.73z"/>
	<path class="st4" d="M59.19,55.73c-0.36,0.04-0.84-0.13-0.92,0.44c-0.1,0.65-0.57,0.5-0.98,0.5c0.37-1.03,0.35-2.11,0.35-3.18
		c-0.01-6.27,0-12.53,0.01-18.8c0-0.69-0.18-1.45,0.42-2.04c0.57,0.17,1-0.09,1.4-0.45C59.12,40.05,59.34,47.89,59.19,55.73z"/>
	<path class="st5" d="M8.57,56.22C8.2,55.98,7.83,55.9,7.46,56.2c-0.18-7.28-0.1-14.56-0.07-21.84c0.33-0.26,0.22-0.63,0.22-0.96
		c-0.01-0.69,0.3-1,0.99-0.92c0.49,0.58,0.36,1.29,0.36,1.95c0.05,6.55-0.06,13.09-0.04,19.64c0.03,0.3,0.03,0.6,0,0.9
		C8.91,55.42,8.94,55.87,8.57,56.22z"/>
	<path class="st6" d="M37.15,67.73c-0.07-0.24-0.15-0.48-0.22-0.73c0.22-0.49,0.63-0.48,1.06-0.41c1.59,0.17,3.19,0.05,4.79,0.08
		c0.3,0.01,0.55-0.08,0.74-0.32c0.46-1.16,0.15-2.36,0.22-3.53c0.05-0.75-0.01-1.51,0.01-2.26c-0.04-0.77-0.59-0.85-1.17-0.86
		c-1.38-0.02-2.77,0.01-4.15-0.02c-0.54-0.01-1.12,0.1-1.54-0.4c-0.07-0.31-0.14-0.61-0.2-0.92c0.77-0.6,1.73-0.19,2.56-0.47
		c0.4-0.07,0.8-0.08,1.2,0c0.44,0.1,0.89,0.16,1.35,0.15c0.67-0.01,1.33-0.02,2,0.01c0.27,0.01,0.54,0.04,0.8,0.16
		c0.92,0.5,1.08,1.34,1.04,2.28c0,0.27,0,0.54,0.01,0.81c0.01,0.27,0.02,0.55,0,0.82c-0.03,1.11,0.04,2.22,0.02,3.33
		c-0.04,0.41-0.01,0.82-0.11,1.22c-0.12,0.37-0.17,0.79-0.55,1.02C42.38,67.9,39.76,67.76,37.15,67.73z"/>
	<path class="st7" d="M45.37,61.98c-0.01-0.24-0.03-0.48-0.04-0.72c0.3-0.63,0.89-0.57,1.43-0.6c1.38-0.06,2.76,0.07,4.13-0.1
		c0.49-0.06,0.94-0.01,1.24,0.45c0.34,1.13,1.36,1.85,1.8,2.92c0.31,0.31,0.61,0.62,0.92,0.93c0.5,0.54,0.49,1.09,0.01,1.63
		c-0.33,0.39-0.88,0.62-0.9,1.24c-2.99-0.01-5.97-0.02-8.96-0.03c0.11-0.32-0.03-0.71,0.27-0.97c2.35-0.13,4.7,0.01,7.05-0.06
		c0.49-0.01,1.26,0.17,1.01-0.81c-0.3-0.75-0.92-1.27-1.38-1.9c-0.77-1.11-1.8-1.53-3.16-1.42c-1.01,0.08-2.05,0.14-3.07-0.1
		C45.53,62.33,45.42,62.19,45.37,61.98z"/>
	<path class="st8" d="M56.58,22.13c-0.4-0.32-0.8-0.64-1.2-0.96c-0.52-0.78-0.36-1.67-0.37-2.52c-0.01-1.06-0.03-2.12,0.01-3.18
		c0.07-0.52-0.09-1.11,0.4-1.53c1.03-0.06,1.5,0.62,1.86,1.43c-0.54,0.3-0.52,0.8-0.53,1.33C56.7,18.51,56.63,20.32,56.58,22.13z"/>
	<path class="st9" d="M38.57,5.83C38.33,6.12,38,6.05,37.69,6.05c-2.45,0.01-4.9,0.01-7.35,0c-0.31,0-0.64,0.08-0.88-0.23
		C32.5,5.83,35.53,5.83,38.57,5.83z"/>
	<path class="st10" d="M28.75,5.82c-0.76,0.45-1.77,0.03-2.46,0.7C26.82,5.29,27.89,5.94,28.75,5.82z"/>
	<path class="st11" d="M41.46,7.25c-0.86,0.24-1.15-0.57-1.67-0.93C40.52,6.32,40.91,6.93,41.46,7.25z"/>
	<path class="st12" d="M53.93,63.93c-0.7-0.83-1.8-1.39-1.86-2.67c-0.4-0.85-0.44-1.74-0.44-2.66c0.02-3.97,0-7.94,0.01-11.92
		c0-0.59-0.05-1.19,0.17-1.76c0.22-0.35,0.44-0.3,0.6,0.03c0.22,0.45,0.18,0.94,0.18,1.41c0.01,2.76-0.01,5.52,0.01,8.27
		c0.01,1.39,0.1,1.49,1.52,1.48c0.75,0,1.69,0.31,2.21-0.12c0.5-0.4,0.06-1.35,0.16-2.05c0.43-2.98,0.15-5.99,0.23-8.98
		c0.07-2.68-0.14-5.36,0.13-8.03c0.07-0.65-0.19-0.94-0.81-0.79c-2.82,0.69-4.64-0.78-6.24-2.8c-1.35-1.69-2.97-3.13-4.46-4.68
		c-2.52-2.61-4.68-5.58-7.75-7.63c-0.74-0.59-1.07-1.48-1.6-2.22c-1.48-2.08-3.07-2.24-4.85-0.43c-1.75,1.78-2.4,4.09-3.07,6.39
		c-0.17,0.59-0.05,1.3-0.64,1.73c-0.22,0.17-0.02-0.72-0.53-0.14c-3.28,3.68-6.52,7.4-9.71,11.16c-0.46,0.55-0.96,1.06-1.53,1.5
		c-0.7,0.19-0.96,0.71-1.04,1.38c-1.07,1.64-2.42,3.06-3.76,4.46c-1.23,1.29-1.93,2.63-1.74,4.46c0.13,1.26,0.05,2.54,0.01,3.81
		c-0.01,0.44,0.13,0.99-0.52,1.16c0-7.27,0-14.54-0.01-21.81c1.43-0.09,2.88-0.15,4.28,0.16c1.33,0.29,1.93-0.51,2.77-1.32
		c2.33-2.24,4.4-4.71,6.58-7.09c2.91-3.18,5.83-6.35,8.65-9.62c0.99-1.15,2.14-1.37,3.5-1.34c0.47,0.01,0.7,0.29,0.97,0.59
		c5.27,5.89,10.52,11.79,15.94,17.55c0.64,0.68,1.32,0.9,2.12,0.72c1.31-0.3,2.63-0.07,3.93-0.17c0.52-0.04,0.74,0.18,0.72,0.68
		c-0.01,7.54-0.03,15.08-0.02,22.62c0,0.64-0.03,1.18-0.75,1.4c-1.06,0.09-2.44-0.45-3.11,0.22c-0.73,0.72-0.2,2.11-0.24,3.21
		C53.89,61.38,53.93,62.65,53.93,63.93z"/>
	<path class="st13" d="M35.92,12.55c-1.67-0.8-3.35-0.68-5.03-0.02c-0.34,0.22-0.71,0.35-1.11,0.36c-1.73,0.03-3.47,0.04-5.2-0.01
		c-0.36-0.01-0.71-0.08-1-0.31c-0.42-0.46-0.09-0.81,0.19-1.13c0.59-0.65,1.25-1.21,2.15-1.38C31.1,9.9,36.26,10.02,41.42,10
		c0.45,0,0.86,0.14,1.24,0.37c0.64,0.48,1.19,1.06,1.69,1.67c-0.09,0.62-0.61,0.6-1.01,0.59c-1.91-0.06-3.79,0.31-5.7,0.28
		C37.04,12.91,36.46,12.86,35.92,12.55z"/>
	<path class="st14" d="M48.42,26.21c-0.8-0.88-1.6-1.76-2.4-2.64c0.08-0.62,0.61-0.56,1-0.58c2.41-0.1,4.83,0.04,7.24-0.01
		c0.41-0.01,0.77,0.15,1.12,0.35c0.73,1.13,2.03,1.63,2.86,2.65c-0.07,0.63-0.61,0.57-1,0.58c-2.57,0.07-5.14,0.05-7.71,0.02
		C49.13,26.58,48.77,26.42,48.42,26.21z"/>
	<path class="st15" d="M25.57,10.36c-0.79,0.56-1.53,1.16-2.13,1.93c-0.23,0.79-0.93,1.14-1.51,1.61c-0.53,0.43-0.98,0.94-1.46,1.42
		c-0.42,0.4-0.83,0.82-1.23,1.24c-0.8,0.68-1.31,1.63-2.09,2.33c-0.5,0.48-0.99,0.97-1.47,1.46c-0.49,0.47-0.98,0.96-1.45,1.45
		c-0.57,0.56-1.14,1.12-1.69,1.7c-0.95,0.93-1.89,1.88-2.83,2.83c-0.42,0.41-0.87,0.81-1.23,1.28c-0.47,0.81-1.34,1.31-1.69,2.21
		c0.13,0.56,0.56,0.32,0.86,0.28c1.98-0.27,3.96-0.11,5.95-0.11c0.37,0,0.92-0.11,0.99,0.55c-0.24,0.37-0.63,0.29-0.98,0.29
		c-3.15,0-6.3,0-9.63,0c7.85-7.92,15.6-15.74,23.35-23.56c0.26-0.22,0.44-0.1,0.59,0.14c0.16,0.68-0.26,1.14-0.65,1.6
		C26.74,9.5,26.28,10.1,25.57,10.36z"/>
	<path class="st16" d="M9.54,26.21c0.84-1.07,1.82-2,2.84-2.89c0.47-0.24,0.96-0.37,1.49-0.37c1.87,0,3.74-0.03,5.61,0.02
		c0.51,0.01,1.17-0.15,1.37,0.62c-0.83,0.86-1.44,1.91-2.41,2.64c-0.49,0.29-1.03,0.36-1.6,0.36c-2.1,0.02-4.19-0.05-6.29,0.05
		C10.15,26.66,9.75,26.66,9.54,26.21z"/>
	<path class="st17" d="M25.57,10.36c0.49-0.48,0.98-0.96,1.47-1.44c0.43-0.23,0.88-0.37,1.37-0.37c3.88-0.01,7.76,0,11.64-0.01
		c0.32,0,0.63,0.11,0.95,0.13c0.62,0.5,1.2,1.04,1.66,1.7C36.96,10.37,31.27,10.36,25.57,10.36z"/>
	<path class="st18" d="M55.41,13.95c-0.02,0.49-0.03,0.99-0.05,1.48c-0.76,0.13-1.24-0.41-1.8-0.75c-0.38-0.39-0.89-0.63-1.27-1.02
		c-0.7-0.8-1.45-1.54-2.29-2.21c-0.78-0.62-1.35-0.64-1.9,0.27c-0.28,0.46-0.55,0.97-1.16,1.1c-1.8-1.61-1.8-1.61-0.27-3.38
		c0.18-0.21,0.39-0.4,0.58-0.6c0.62-0.66,1.17-0.85,2.01-0.18C51.39,10.33,53.52,12,55.41,13.95z"/>
	<path class="st19" d="M41.7,18.78c-0.57-0.63-1.15-1.27-1.72-1.9c0.06-0.54,0.52-0.58,0.89-0.6c2.3-0.08,4.61-0.08,6.91,0
		c0.32,0.01,0.6,0.19,0.89,0.32c0.81,0.64,1.55,1.35,2.17,2.18c-0.37,0.38-0.86,0.37-1.34,0.38c-2.11,0.02-4.22,0.01-6.33,0.01
		C42.65,19.16,42.15,19.06,41.7,18.78z"/>
	<path class="st20" d="M41,8.68c-0.3,0.38-0.73,0.25-1.11,0.25c-4.28,0-8.57,0-12.85-0.01c0.29-0.46,0.66-0.87,0.74-1.43
		c0.26-0.24,0.58-0.23,0.9-0.23c3.39-0.01,6.77-0.01,10.16,0c0.32,0,0.64,0.04,0.91,0.23C40.28,7.77,40.64,8.23,41,8.68z"/>
	<path class="st14" d="M16.92,18.74c0.73-0.8,1.45-1.6,2.18-2.4c2.33-0.21,4.67-0.08,7-0.08c0.36,0,0.71,0.06,0.98,0.35
		c-0.37,0.97-1.21,1.51-1.92,2.18c-0.46,0.25-0.95,0.37-1.48,0.37c-1.82,0-3.63,0.02-5.45-0.01C17.76,19.15,17.27,19.15,16.92,18.74
		z"/>
	<path class="st14" d="M51.53,29.58c-0.64-0.32-0.87-1.05-1.43-1.45c0.08-0.63,0.61-0.57,1-0.58c2.57-0.07,5.15-0.05,7.72-0.02
		c0.41,0,0.77,0.18,1.13,0.34c0.63,0.5,1.22,1.04,1.68,1.71c-0.37,0.39-0.87,0.35-1.34,0.35c-2.43,0.01-4.85,0-7.28,0.01
		C52.49,29.94,51.99,29.86,51.53,29.58z"/>
	<path class="st17" d="M59.96,27.87c-2.87,0.01-5.74,0.01-8.62,0.03c-0.42,0-0.89-0.17-1.24,0.23c-0.56-0.64-1.12-1.28-1.68-1.92
		c2.9,0,5.8,0.01,8.7,0c0.38,0,0.81,0.15,1.12-0.22C58.82,26.61,59.39,27.24,59.96,27.87z"/>
	<path class="st21" d="M55.38,23.33c-2.71,0-5.41,0-8.12,0.01c-0.42,0-0.89-0.16-1.24,0.23c-0.56-0.64-1.13-1.27-1.69-1.91
		c0.26-0.3,0.62-0.36,0.98-0.36c2.79,0.02,5.59-0.18,8.37,0.13C54.25,22.06,54.82,22.7,55.38,23.33z"/>
	<path class="st16" d="M6.59,29.53c0.43-0.83,1.18-1.39,1.76-2.1c0.67-0.2,1.35-0.21,2.02-0.1c1.67,0.27,3.35,0.15,5.02,0.21
		c0.5,0.02,1.17-0.18,1.37,0.6c-0.48,0.49-0.96,0.97-1.44,1.46c-0.47,0.24-0.96,0.34-1.49,0.34c-1.98-0.01-3.96-0.01-5.94,0
		C7.42,29.94,6.93,29.95,6.59,29.53z"/>
	<path class="st17" d="M41.7,18.78c3.05,0,6.1,0,9.15,0c0.56,0.39,1.03,0.86,1.42,1.42c-0.05,0.56-0.51,0.59-0.88,0.59
		c-2.67,0.02-5.35,0.19-8.01-0.09C42.81,20.06,42.26,19.42,41.7,18.78z"/>
	<path class="st22" d="M52.5,13.51c0.39,0.31,0.89,0.49,1.15,0.96c0.7,1.74,0.6,3.49,0.09,5.25c-0.69-0.44-1.23-1.02-1.69-1.68
		c-0.01-0.53-0.17-1.05-0.11-1.58c0-0.66,0.18-1.41-0.81-1.54c-0.62-0.28-1.24,0.03-1.79-0.03c0.5,0.66,1.49,0.98,1.54,2.05
		c-1.43-0.56-2.47-1.63-3.49-2.7c-0.3-0.31-0.45-0.74-0.37-1.2c1.46,0.11,2.91,0.11,4.37,0.12C51.8,13.16,52.17,13.27,52.5,13.51z"
		/>
	<path class="st21" d="M20.85,23.59c-0.35-0.4-0.81-0.24-1.23-0.25c-2.41-0.02-4.83-0.01-7.24-0.02c0.49-0.63,1.06-1.2,1.69-1.69
		c0.5-0.27,1.04-0.37,1.61-0.37c1.8,0.01,3.59-0.01,5.39,0.01c0.51,0.01,1.05-0.04,1.45,0.41C22.02,22.36,21.58,23.1,20.85,23.59z"
		/>
	<path class="st17" d="M16.76,28.14c-0.35-0.4-0.82-0.26-1.23-0.24c-2.23,0.08-4.44-0.13-6.66-0.25c-0.18-0.01-0.35-0.14-0.52-0.22
		c0.4-0.41,0.79-0.81,1.19-1.22c1.02,0,2.03,0,3.05,0.01c1.95,0,3.9,0.01,5.85,0.01C17.87,26.87,17.32,27.51,16.76,28.14z"/>
	<path class="st17" d="M35.92,12.55c2.52-0.08,5.04-0.17,7.56-0.25c0.31-0.01,0.64,0.06,0.87-0.25c0.71,0.57,1.37,1.19,1.9,1.93
		c-0.26,0.3-0.63,0.35-0.99,0.35c-2.63-0.01-5.25,0.16-7.87-0.12C36.9,13.66,36.41,13.1,35.92,12.55z"/>
	<path class="st23" d="M48.68,16.59c-2.49,0.01-4.98,0.01-7.47,0.03c-0.42,0-0.88-0.14-1.23,0.25c-0.59-0.52-1.19-1.04-1.63-1.7
		c0.3-0.32,0.71-0.36,1.11-0.36c2.59,0.02,5.18-0.15,7.76,0.13C47.7,15.49,48.19,16.04,48.68,16.59z"/>
	<path class="st24" d="M51.6,7.24c2.59,2.23,5.18,4.45,7.91,6.8c-1.27,0.36-1.94,0-2.75-0.79c-1.84-1.75-3.7-3.5-5.81-4.95
		c-0.33-0.23-0.68-0.43-0.86-0.81C50.5,6.89,51.05,7.07,51.6,7.24z"/>
	<path class="st21" d="M16.92,18.74c2.74,0.02,5.49,0.03,8.23,0.05c-0.52,0.52-0.78,1.27-1.45,1.67c-2.57,0.25-5.15,0.08-7.73,0.1
		c-0.22,0-0.49-0.04-0.48-0.38C15.98,19.7,16.45,19.22,16.92,18.74z"/>
	<path class="st16" d="M15.51,20.18c2.32,0.01,4.65,0.02,6.97,0.05c0.42,0,0.88-0.16,1.23,0.24c-0.32,0.48-0.72,0.88-1.18,1.22
		c-2.82-0.01-5.64-0.03-8.45-0.04C14.55,21.15,15.03,20.66,15.51,20.18z"/>
	<path class="st21" d="M27.08,16.61c-2.25,0-4.51,0.01-6.76-0.01c-0.41,0-0.88,0.16-1.21-0.27c0.4-0.4,0.8-0.79,1.2-1.19
		c0.51-0.25,1.04-0.37,1.62-0.36c1.71,0.01,3.43-0.01,5.14,0.01c0.51,0.01,1.05-0.03,1.45,0.39C28.11,15.74,27.65,16.23,27.08,16.61
		z"/>
	<path class="st17" d="M21.79,13.75c0.55-0.49,1.1-0.98,1.65-1.46c0.9,0.46,1.87,0.21,2.81,0.23c1.55,0.04,3.09,0.01,4.64,0.01
		c-0.47,0.56-0.95,1.13-1.42,1.69c-2.29,0.19-4.58,0.17-6.87-0.01C22.3,14.19,21.85,14.28,21.79,13.75z"/>
	<path class="st16" d="M43.37,20.7c0.34-0.41,0.81-0.24,1.23-0.24c2.14-0.02,4.29,0,6.44-0.01c0.42,0,0.89,0.16,1.23-0.25
		c0.47,0.41,0.95,0.82,1.42,1.23c-0.36,0.39-0.82,0.22-1.24,0.22c-2.7,0.02-5.41,0.01-8.11,0.02C44.01,21.34,43.69,21.02,43.37,20.7
		z"/>
	<path class="st25" d="M47.21,14.94c-0.31,0.37-0.74,0.23-1.12,0.23c-2.58,0.01-5.17,0-7.75,0c-0.32-0.32-0.64-0.64-0.96-0.97
		c0.31-0.37,0.74-0.22,1.12-0.23c2.58-0.01,5.16,0,7.74,0C46.57,14.3,46.89,14.62,47.21,14.94z"/>
	<path class="st26" d="M51.6,7.24c-0.51,0.09-1.01,0.17-1.52,0.26c-0.16-0.12-0.33-0.22-0.48-0.35c-1.73-1.61-2.15-1.62-3.97-0.08
		c-0.18,0.15-0.38,0.28-0.57,0.43c-1.29,0.21-1.29,0.21-1.69-0.23c1.29-0.99,2.6-1.94,3.85-2.98c0.46-0.38,0.68-0.3,1.07,0.05
		C49.38,5.32,50.5,6.27,51.6,7.24z"/>
	<path class="st27" d="M21.79,13.75c2.14,0.4,4.3,0.15,6.45,0.23c0.42,0.02,0.89-0.16,1.23,0.24c-0.32,0.32-0.64,0.64-0.96,0.96
		c-2.74-0.01-5.47-0.02-8.21-0.04C20.74,14.61,21.21,14.12,21.79,13.75z"/>
	<path class="st28" d="M52.5,13.51c-1.33,0.01-2.67-0.01-4,0.04c-0.59,0.02-1.07-0.12-1.49-0.52c-0.03-0.07-0.06-0.14-0.08-0.22
		c0.22-0.28,0.45-0.55,0.66-0.83c1.37-1.84,1.39-1.86,3.12-0.35C51.37,12.2,52.05,12.76,52.5,13.51z"/>
	<path class="st29" d="M53.74,19.71c-0.03-1.75-0.06-3.5-0.09-5.25c0.57,0.32,1.14,0.64,1.71,0.96c0.01,1.92,0.01,3.83,0.02,5.75
		C54.83,20.68,54.29,20.2,53.74,19.71z"/>
	<path class="st30" d="M51.53,29.58c3.37,0,6.74,0,10.11,0c0.24,0.14,0.49,0.27,0.53,0.72c-3.22,0-6.42,0-9.62,0
		C52.05,30.29,51.76,29.97,51.53,29.58z"/>
	<path class="st31" d="M6.59,29.53c2.91,0.02,5.82,0.05,8.73,0.07c-0.25,0.31-0.49,0.62-0.74,0.93c-2.21-0.38-4.44-0.11-6.66-0.13
		c-0.63,0-1.25,0-1.89,0C5.97,29.91,6.34,29.76,6.59,29.53z"/>
	<path class="st32" d="M39.75,7.49c-3.99,0-7.98,0-11.97,0.01c-0.09-0.2-0.27-0.22-0.46-0.23c0.26-0.37,0.65-0.24,0.99-0.24
		c3.44,0,6.88,0.01,10.32,0.03C39.05,7.05,39.54,6.92,39.75,7.49z"/>
	<path class="st33" d="M50.88,16.93c-0.64-0.71-1.27-1.42-2-2.22c0.77-0.06,1.44-0.37,2.17-0.06c0.05,0.17-0.56,0.15-0.13,0.45
		c0.5,0.35,1.05,0.67,1.32,1.27c-0.04,0.56,0.27,1.16-0.19,1.67C51.66,17.67,51.27,17.3,50.88,16.93z"/>
	<path class="st34" d="M43.38,7.25c0.52,0.39,1.19-0.27,1.69,0.23c-0.32,0.35-0.63,0.7-0.95,1.05c-0.38,0.41-0.71,0.84-1.34,0.22
		c-0.68-0.68-0.05-0.93,0.31-1.3C43.17,7.37,43.28,7.32,43.38,7.25z"/>
	<path class="st35" d="M35.19,59.55c0.01,1.99-0.03,3.99,0.05,5.98c0.04,1.01-0.3,1.27-1.28,1.27c-8.26-0.04-16.52-0.02-24.78-0.02
		c-0.91,0-1.82-0.02-2.73,0.19c-0.45,0.11-1.03,0.25-1.47-0.2c1.16-0.38,1.37-1.26,1.3-2.35c-0.06-0.99-0.02-1.99-0.01-2.99
		c0.02-1.99,0.24-2.22,2.19-2.23c2.51-0.02,5.03,0,7.54,0c5.74,0,11.49,0,17.23,0.01C33.9,59.19,34.61,59.07,35.19,59.55z"/>
	<path class="st12" d="M39.31,58.13c-0.84,0.5-1.76,0.11-2.64,0.24c-0.02-0.04-0.06-0.07-0.05-0.11c0.22-1.84-1.06-1.57-2.18-1.57
		c-8.19,0-16.38,0-24.57-0.03c-0.45,0-1.09,0.32-1.3-0.45c0.02-0.41,0.03-0.82,0.05-1.22c1.95-0.87,3.98-0.91,6.05-0.65
		c0.57,0.33,0.43,1.27,1.22,1.42c0.95,0.23,1.91,0.1,2.86,0.11c3.23,0.02,6.45,0.01,9.68,0.01c0.51,0,1.04,0.07,1.49-0.29
		c0.8-0.6,0.86-1.46,0.86-2.36c0-3.78-0.01-7.55,0-11.33c0-0.59-0.09-1.2,0.3-1.73c1.31,0.62,1.85,1.71,1.87,3.11
		c0.02,2.95,0,5.9,0.01,8.86c0,1.78,0.01,1.75,1.8,1.8c1.54,0.05,3.1-0.22,4.63,0.14C39.81,55.44,39.9,56.79,39.31,58.13z"/>
	<path class="st36" d="M35.19,59.55c-9.05,0.01-18.1,0.03-27.16-0.01c-1.1,0-1.47,0.28-1.4,1.39c0.1,1.39,0.03,2.79,0.03,4.19
		c0,1.66,0,1.66-1.68,1.65c-0.01-2.6,0.03-5.2-0.04-7.79c-0.03-0.95,0.34-1.12,1.18-1.12c7.19,0.03,14.39,0.02,21.58,0.03
		c2.08,0,4.15,0,6.22-0.2c0.85-0.08,1.59-0.06,1.15,1.17C35.01,59.05,35.15,59.32,35.19,59.55z"/>
	<path class="st37" d="M36.88,59.29c2.03,0.02,4.06,0.09,6.09,0.03c0.98-0.03,1.31,0.31,1.12,1.24c-0.48,0.39-1.05,0.3-1.6,0.32
		c-0.34-0.03-0.68,0.01-1.02-0.01c-0.47,0.01-0.93,0.01-1.4,0c-0.33,0-0.66,0.02-0.99,0c-0.4,0.01-0.8,0.01-1.19-0.01
		c-0.49,0-0.95-0.08-1.24-0.54C36.65,59.96,36.5,59.56,36.88,59.29z"/>
	<path class="st38" d="M36.64,60.32c0.41,0.08,0.82,0.16,1.23,0.24c0.33,0.35,0.37,0.79,0.35,1.22c-0.07,1.61,0.24,3.24-0.21,4.84
		c-0.05,0.06-0.11,0.11-0.16,0.17c-0.34-0.03-0.64,0.05-0.93,0.22c-0.48-0.72-0.24-1.54-0.26-2.31
		C36.62,63.24,36.65,61.78,36.64,60.32z"/>
	<path class="st35" d="M65.21,57.9c0.28,0.19,0.27,0.48,0.24,0.75c-0.24,2.5,0.11,5,0.01,7.49c-0.02,0.59-0.17,0.87-0.82,0.87
		c-3.03-0.02-6.07-0.01-9.1,0c-0.24,0-0.48-0.01-0.63-0.25c0.9-0.38,1.09-1.08,1.09-2.01c0-1.44-0.2-2.86-0.25-4.29
		c-0.04-1.45,0.3-1.61,1.75-1.77c1.93-0.2,3.78,0.42,5.7,0.33C64.13,58.97,64.84,58.81,65.21,57.9z"/>
	<path class="st39" d="M65.21,57.9c0.22,1.15-0.24,1.6-1.41,1.44c-1.39-0.18-2.78,0.13-4.22-0.36c-0.8-0.27-1.92,0.07-2.91,0.07
		c-0.62,0-0.6,0.51-0.58,0.96c0.07,1.78,0.27,3.55,0.27,5.34c0,1.13-0.26,1.66-1.45,1.41c-0.02-0.09-0.04-0.18-0.07-0.28
		c0.14-0.54,0.05-1.09-0.01-1.63c0.01-1.95,0.05-3.91,0.02-5.86c-0.01-0.79,0.2-1.07,1.06-1.13C59.03,57.66,62.12,57.97,65.21,57.9z
		"/>
	<path class="st40" d="M14.73,54.53c-2.06-0.11-4.07,0.28-6.11,0.46c0-0.23-0.01-0.46-0.01-0.69c0.44-1.35,0.28-2.76,0.16-4.11
		c-0.21-2.42,0.4-4.34,2.28-5.99c1.35-1.19,2.41-2.71,3.59-4.09c0.58,0.23,0.53,0.75,0.53,1.21c0.02,4.02,0.02,8.03,0,12.05
		C15.17,53.8,15.18,54.26,14.73,54.53z"/>
	<path class="st41" d="M41.7,58.34c-0.42-0.03-0.88,0.17-1.23-0.23c-0.41-0.47-0.35-1.04-0.35-1.6c-0.01-3.79-0.02-7.59,0-11.38
		c0.01-1.76,0.26-2.01,2.02-2.02c2.6-0.01,5.19-0.05,7.79,0.02c1.34,0.04,1.58,0.48,1.09,1.76c-0.88,0.48-1.09,1.24-1.05,2.2
		c0.06,1.31,0.05,2.63-0.01,3.95c-0.02,0.41,0.05,1.02-0.52,1.05c-0.56,0.03-0.78-0.51-0.83-1c-0.14-1.51-0.03-3.03-0.07-4.54
		c0-0.19,0.02-0.39-0.06-0.62c0.09,1.64,0.04,3.23,0.05,4.83c0,0.32,0,0.64-0.08,0.95c-0.11,0.45-0.32,0.92-0.82,0.88
		c-0.51-0.03-0.48-0.57-0.49-0.95c-0.02-1.71-0.03-3.43-0.03-5.14c0-0.45,0.17-1.01-0.52-1.16c-1.01-0.06-1.16,0.58-1.16,1.38
		c0,2.22,0,4.43,0,6.65c0,0.63,0.02,1.27-0.11,1.9c-0.23,0.62-0.15,1.26-0.17,1.89c-0.02,0.93-0.39,1.35-1.35,0.99
		c-0.4-0.52-0.31-1.14-0.31-1.73c-0.01-3.08,0-6.15-0.01-9.23c0-0.4,0.01-0.8-0.06-1.19c-0.06-0.36-0.25-0.58-0.64-0.58
		c-0.38,0-0.58,0.2-0.65,0.57c-0.07,0.4-0.06,0.8-0.06,1.19c0,3.16,0.01,6.31-0.01,9.47C42.07,57.23,42.15,57.85,41.7,58.34z"/>
	<path class="st42" d="M46.74,44.94c0.84-0.06,0.72,0.54,0.72,1.05c0,2.14,0,4.28,0,6.46c0.67-0.17,0.73-0.6,0.72-1.05
		c-0.08-1.87,0.19-3.74-0.16-5.6c-0.08-0.41-0.01-0.76,0.45-0.8c0.49-0.04,0.43,0.38,0.43,0.68c0.01,1.68,0,3.35,0.01,5.03
		c0,0.47-0.05,0.97,0.72,1.32c0-1.41,0-2.72,0-4.03c0-0.64,0.04-1.28-0.01-1.91c-0.07-0.91,0.36-1.24,1.21-1.14
		c0.47,0.49,0.38,1.12,0.38,1.7c0.01,3.27,0.01,6.55,0.01,9.82c0,0.96,0,1.91,0.15,2.87c0.08,0.52,0.07,1.04-0.29,1.48
		c-1.4,0.42-2.84,0.08-4.25,0.18c-0.51,0.04-1.05-0.1-1.49,0.27c0-0.24,0-0.49-0.01-0.73c1.58-0.7,1.4-2.02,1.19-3.35
		c-0.08-0.51-0.21-1.05-0.06-1.54c0.76-2.56,0.09-5.1-0.01-7.65C46.4,46.96,46.42,45.93,46.74,44.94z"/>
	<path class="st43" d="M51.07,60.81c-0.49-5.28-0.16-10.58-0.25-15.87c0.36-1.44,0.36-1.44-1.15-1.44c-2.59,0-5.19,0.06-7.78-0.03
		c-1.19-0.04-1.44,0.37-1.43,1.49c0.06,4.39,0.01,8.77,0,13.16c-0.39,0.01-0.77,0.01-1.16,0.02c-0.02-1.36-0.04-2.72-0.05-4.09
		c-0.35-0.39-0.34-0.89-0.34-1.36c-0.02-2.88-0.03-5.75,0-8.63c0.02-1.61,0.29-1.89,1.9-1.9c3.24-0.02,6.47-0.05,9.71,0.01
		c1.72,0.03,2.23,0.92,1.53,2.53c-0.01,5.1,0,10.2-0.04,15.3c0,0.42,0.35,0.83,0.05,1.26C51.84,60.87,51.49,60.76,51.07,60.81z"/>
	<path class="st44" d="M41.7,58.34c0-4.08,0.02-8.16-0.02-12.23c-0.01-0.84,0.16-1.2,1.11-1.21c0.99-0.01,1.08,0.43,1.08,1.24
		c-0.03,4-0.01,8-0.01,11.99c0.08,0.05,0.11,0.11,0.08,0.16c-0.03,0.05-0.06,0.08-0.08,0.08C43.14,58.36,42.42,58.35,41.7,58.34z"/>
	<path class="st44" d="M46.74,44.94c0.22,0.62,0,1.27,0.07,1.84c0.25,2.07-0.2,4.21,0.58,6.22c0.12,0.32,0.02,0.6-0.13,0.91
		c-0.54,1.06-0.67,2.18-0.37,3.35c0.09,0.34,0.04,0.71,0.1,1.06c0.23,1.33-0.21,2.15-1.66,2.21c0.08-0.84-0.12-1.57-0.77-2.15
		c0.68-0.42,0.46-1.11,0.51-1.72c0.03-0.47-0.06-0.94,0-1.42c0-2.9,0-5.8,0-8.7C45.06,44.94,45.06,44.94,46.74,44.94z"/>
	<path class="st45" d="M45.37,61.98c0.06,0.05,0.12,0.11,0.18,0.16c0.29,0.36,0.3,0.8,0.29,1.23c0.1,0.01,0.14-0.11,0.19-0.1
		c2.08,0.14,4.26-0.71,6.22,0.62c0.44,0.53,1.01,0.97,1.21,1.68c-0.47,0.66-1.2,0.71-1.9,0.81c-1.96,0.26-3.84-0.52-5.79-0.41
		c-0.2,0.01-0.33-0.2-0.39-0.4C45.37,64.38,45.37,63.18,45.37,61.98z"/>
	<path class="st46" d="M42.42,60.55c0.56,0,1.11,0,1.67,0.01c0,1.7,0.01,3.4-0.01,5.1c0,0.38,0.13,0.8-0.22,1.12
		c-1.89,0.29-2.01,0.19-2.02-1.65c-0.01-1.04-0.01-2.08-0.02-3.11C41.82,61.45,41.82,60.88,42.42,60.55z"/>
	<path class="st47" d="M42.42,60.55c-0.49,1.91-0.26,3.86-0.16,5.78c0.04,0.85,1.06,0.28,1.61,0.45c-2,0.38-4.01,0.37-6.01,0
		c0,0,0.01-0.02,0.01-0.02c0.67-0.34,0.96-0.82,0.88-1.63c-0.11-1.11-0.04-2.23-0.03-3.34c0-0.44,0-0.88,0.33-1.24
		c0.33,0,0.65,0,0.98,0c0.51,0.62,0.32,1.37,0.34,2.07c0.03,0.95-0.02,1.91,0.03,2.86c0.02,0.3,0.01,0.72,0.42,0.75
		c0.52,0.03,0.49-0.45,0.5-0.78c0.04-0.95,0.03-1.9-0.11-2.85c-0.1-0.7-0.26-1.43,0.25-2.06C41.78,60.55,42.1,60.55,42.42,60.55z"/>
	<path class="st48" d="M45.37,65.57c2.69-0.07,5.39,1.14,8.08,0c0.49,0.23,0.56,0.67,0.43,1.11C53.75,67.15,53.3,67,52.97,67
		c-2.19,0.01-4.38,0-6.57,0.01c-0.41,0-0.79-0.05-1.13-0.29C45.3,66.34,45.34,65.95,45.37,65.57z"/>
	<path class="st42" d="M45.06,55.25c0.52,1.53,0.35,2.54-0.5,3.13c-0.23,0-0.46-0.01-0.69-0.01c0-0.08,0-0.16,0-0.24
		c0.71,0.09,0.99-0.18,0.98-0.93C44.84,56.56,44.58,55.86,45.06,55.25z"/>
	<path class="st49" d="M52.25,63.89c-1.81-0.78-3.73-0.2-5.59-0.38c-1.22-0.11-1.22-0.52-1.1-1.37c1.14,0.19,2.31,0.16,3.42,0.02
		C50.55,61.97,51.51,62.66,52.25,63.89z"/>
	<path class="st40" d="M52.06,44.69c-0.08-2.19-0.08-2.19-2.24-2.19c-3.12,0-6.23,0.03-9.35-0.02c-0.89-0.01-1.17,0.23-1.16,1.14
		c0.03,3.48-0.02,6.95-0.04,10.43c-1.52,0.54-3.08,0.2-4.62,0.23c-2.37,0.04-2.03,0.34-2.05-1.99c-0.02-2.96-0.02-5.92,0-8.87
		c0.01-0.92-0.05-1.78-0.94-2.3c-0.39-0.23-0.18-0.68-0.41-0.96c-0.81-0.51-1.69-0.65-2.63-0.6c-3.91,0.18-7.81-0.3-11.73-0.25
		c-0.47,0.01-0.97,0.02-1.34-0.38c3.2-3.54,6.15-7.31,9.44-10.77c0.6-0.63,1.15-1.32,1.75-1.96c0.64-0.68,0.51,0,0.57,0.34
		c0.15,0.15,0.25,0.34,0.22,0.53c-0.28,1.82,0.03,3.65-0.08,5.47c0.5,1.47,0.49,1.4,2.08,1.32c2.55-0.12,5.1-0.02,7.65-0.05
		c0.92-0.01,1.79-0.12,1.86-1.33c-0.22-1.95,0.06-3.92-0.17-5.87c-0.18-1.51-0.48-3-1.11-4.4c-0.21-0.46-0.46-0.95-0.24-1.49
		c1.78,0.97,3.18,2.35,4.46,3.9c1.37,1.66,3.02,3.06,4.42,4.71c1.31,1.55,2.93,2.82,4.17,4.45c1.51,1.99,3.5,2.67,5.9,1.96
		c0.73-0.22,0.87,0.1,0.81,0.69c-0.51,5.14-0.09,10.29-0.24,15.43c-0.04,1.39-0.37,2.77-0.18,4.17c0.04,0.31-0.07,0.45-0.37,0.45
		c-0.16,0-0.32,0.01-0.48,0c-1.19-0.07-2.7,0.48-3.48-0.22c-0.81-0.73-0.24-2.26-0.27-3.44c-0.05-2.24,0-4.47-0.01-6.71
		C52.25,45.62,52.4,45.12,52.06,44.69z"/>
	<path class="st50" d="M15.55,38.92c4.76,0.07,9.52,0.18,14.28,0.19c0.84,0,1.22,0.3,1.42,1.03c-0.04,4.42-0.11,8.84-0.11,13.27
		c0,1-0.16,1.87-0.92,2.56c-0.38,0.21-0.78,0.11-1.17,0.11c-4.11,0.01-8.22,0.01-12.33,0c-0.39,0-0.8,0.1-1.17-0.11
		c-0.98-0.08-0.66-0.89-0.82-1.44c0.02-4.66,0.04-9.32,0.05-13.98c0-0.15-0.09-0.29-0.14-0.44C14.05,39.02,14.88,39.04,15.55,38.92z
		"/>
	<path class="st51" d="M27.07,32.71c0.04-2.06-0.23-4.14,0.24-6.19c0.54-2.2,1.12-4.38,2.17-6.41c0.49-0.93,1.09-1.76,1.87-2.45
		c1.29-1.14,2.94-1.1,4.18,0.08c0.89,0.84,1.31,1.99,2,2.96c1.89,3.8,2.07,7.85,1.69,11.98c-0.34,0.57-0.91,0.61-1.47,0.62
		c-2.79,0.03-5.59,0.04-8.38-0.01C28.57,33.27,27.78,33.14,27.07,32.71z"/>
	<path class="st52" d="M52.24,16.37c-0.68-0.48-1.35-0.96-2.22-1.58c0.47-0.07,0.75-0.1,1.02-0.14
		C52.39,14.56,52.4,15.41,52.24,16.37z"/>
	<path class="st53" d="M15.54,55.97c4.89,0,9.78,0,14.68,0.01c-0.2,0.25-0.49,0.24-0.77,0.24c-4.42-0.01-8.84-0.01-13.26-0.02
		C15.95,56.2,15.71,56.18,15.54,55.97z"/>
	<path class="st54" d="M41.46,60.54c-0.08,1.71,0.38,3.38,0.25,5.1c-0.05,0.62,0.05,1.18-0.89,1.16c-0.88-0.02-0.81-0.54-0.8-1.11
		c0.01-1.71,0.01-3.42,0.01-5.12C40.51,60.55,40.98,60.55,41.46,60.54z"/>
	<path class="st54" d="M39.05,60.56c0.12,1.88-0.09,3.76,0.14,5.65c0.12,1.02-0.87,0.36-1.33,0.55c0-2.07,0-4.14,0.01-6.21
		C38.26,60.56,38.66,60.56,39.05,60.56z"/>
	<path class="st55" d="M48.56,54.1c-0.55-0.04-0.97-0.23-0.91-0.78c0.07-0.65,0.52-1.1,1.17-1.15c0.52-0.05,0.77,0.38,0.73,0.87
		C49.51,53.68,49.16,54.06,48.56,54.1z"/>
	<path class="st56" d="M27.07,32.71c3.66,0.27,7.32,0.17,10.98,0.15c0.39,0,0.78-0.12,1.17-0.19c0.02,1-0.44,1.45-1.56,1.45
		c-2.6,0.01-5.2,0.02-7.8-0.01c-0.59-0.01-1.08,0.06-1.33,0.7C27.88,34.15,27.28,33.56,27.07,32.71z"/>
	<path class="st57" d="M21.44,51.44c0.23,3.52,0.23,3.52-3.24,3.57c-2.64,0.04-2.64,0.04-2.63-2.57c0-1.2,0.04-2.4-0.01-3.6
		c-0.04-0.77,0.19-1.12,1.01-1.01c0.51,0.07,1.04,0.05,1.56,0.06C19.45,48.87,20.34,50.25,21.44,51.44z"/>
	<path class="st58" d="M22.81,41.3c-0.18-0.85,0.05-1.25,1.02-1.17c1.59,0.13,3.19-0.12,4.78,0.14c0.62,0.1,0.87,0.36,0.86,1.01
		c-0.04,1.56-0.01,3.11-0.02,4.67c0,0.34,0.1,0.83-0.43,0.82c-2.02-0.04-4.04,0.29-6.05-0.16c0.49-0.46,1.1-0.3,1.67-0.33
		c0.43-0.01,0.86,0.05,1.42,0.06C25.07,44.55,23.61,43.13,22.81,41.3z"/>
	<path class="st59" d="M22.82,48.43c-0.03-0.55,0.28-0.52,0.66-0.4c1.19,0.72,1.81,1.96,2.69,2.95c0.97,1.09,1.97,2.15,2.94,3.25
		c-0.1,0.25,0.42,0.77-0.28,0.74c-0.8-0.04-1.63,0.2-2.4-0.2c-1.3-1.04-2.29-2.38-3.29-3.69C22.54,50.3,23.02,49.3,22.82,48.43z"/>
	<path class="st60" d="M21.46,45.58c0.3,1.29-0.47,1.33-1.39,1.18c-0.37-0.09-0.62-0.32-0.85-0.61c-1.12-1.34-2.07-2.82-3.24-4.13
		c-0.22-0.25-0.29-0.56-0.36-0.87c-0.3-1.65,0.89-0.9,1.57-0.97c0.82,0.21,1.17,0.94,1.61,1.52C19.73,42.95,21.01,43.98,21.46,45.58
		z"/>
	<path class="st61" d="M29.11,54.22c-0.46,0.16-0.63-0.24-0.85-0.48c-1.68-1.84-3.3-3.72-4.78-5.72c0.81,0,1.61,0.01,2.42,0.01
		c1.52,1.28,2.52,2.97,3.53,4.64C29.36,53.2,29.71,53.81,29.11,54.22z"/>
	<path class="st62" d="M15.61,41.16c1.49,1.87,2.97,3.73,4.46,5.6c-0.86,0.01-1.72,0.03-2.58,0.04c-0.53-0.41-0.99-0.88-1.38-1.36
		c0.14,0.49,0.98,0.63,0.82,1.37c-1.08,0.26-1.46-0.14-1.38-1.26C15.65,44.09,15.6,42.62,15.61,41.16z"/>
	<path class="st63" d="M21.46,45.58c-1.42-1.8-2.85-3.6-4.27-5.39c1.12-0.01,2.23-0.02,3.35-0.03c0.5,0.27,0.71,0.75,0.95,1.22
		C21.47,42.78,21.46,44.18,21.46,45.58z"/>
	<path class="st64" d="M22.81,41.3c1.45,1.57,2.44,3.45,3.83,5.26c-0.69,0.16-1.21,0.12-1.74,0.04c-1.06-0.76-1.71-1.81-2.07-3.05
		C22.83,42.8,22.82,42.05,22.81,41.3z"/>
	<path class="st65" d="M29.43,52.67c-1.41-1.37-2.33-3.11-3.53-4.64c0.61-0.12,1.23-0.12,1.84,0.01c0.84,0.6,1.39,1.41,1.67,2.4
		C29.41,51.18,29.42,51.93,29.43,52.67z"/>
	<path class="st66" d="M22.82,48.43c-0.29,2.44,1.66,3.67,2.87,5.3c0.25,0.34,0.69,0.55,0.73,1.03c-0.32,0.05-0.64,0.11-0.96,0.16
		c-1.04-0.68-1.86-1.57-2.6-2.56C22.79,51.05,22.69,49.74,22.82,48.43z"/>
	<path class="st67" d="M22.83,43.55c0.69,1.02,1.38,2.03,2.07,3.05c-0.65,0.01-1.29,0.01-1.94,0.02
		C22.59,45.61,22.84,44.57,22.83,43.55z"/>
	<path class="st68" d="M21.24,48.06c0.08,0.17,0.32,0.26,0.24,0.5c-0.15,0.61,0.01,1.24-0.1,1.85c-1.11-0.09-2.53-1.59-2.31-2.46
		C19.79,48,20.53,47.8,21.24,48.06z"/>
	<path class="st69" d="M18.87,48.08c0.79,0.82,1.59,1.65,2.38,2.47c0.2,0.03,0.15,0.21,0.19,0.33c0,0.18,0,0.37,0.01,0.56
		c-1.32-0.98-2.42-2.17-3.32-3.55c0.13,0.01,0.26,0.01,0.39,0.02C18.64,47.96,18.8,47.92,18.87,48.08z"/>
	<path class="st70" d="M22.86,52.36c1.01,0.71,1.84,1.6,2.6,2.56c-0.38,0.13-0.73-0.01-1.07-0.15c-0.69-0.45-1.43-0.87-1.53-1.82
		C22.86,52.75,22.86,52.56,22.86,52.36z"/>
	<path class="st71" d="M29.4,50.44c-0.56-0.8-1.11-1.6-1.67-2.4C29.56,47.91,29.56,47.91,29.4,50.44z"/>
	<path class="st72" d="M22.86,52.95c0.39,0.71,1.23,1.04,1.53,1.82C22.74,55.13,22.7,55.08,22.86,52.95z"/>
	<path class="st73" d="M16.93,46.81c-1.05-1.19-1.05-1.19-1.11-2.08c0.57,0.78,1.32,1.25,1.67,2.07
		C17.3,46.8,17.12,46.81,16.93,46.81z"/>
	<path class="st74" d="M21.48,41.38c-0.5-0.26-0.75-0.72-0.95-1.22C21.72,39.88,21.56,40.66,21.48,41.38z"/>
	<path class="st57" d="M18.87,48.08c-0.12-0.06-0.24-0.12-0.35-0.17c0.91,0.02,1.83-0.21,2.72,0.15
		C20.45,48.07,19.66,48.07,18.87,48.08z"/>
	<path class="st57" d="M21.44,50.88c-0.06-0.11-0.13-0.22-0.19-0.33c0.17-0.65-0.16-1.36,0.23-1.99
		C21.47,49.33,21.45,50.11,21.44,50.88z"/>
	<path class="st58" d="M33.83,25.42c0-2.33,0-4.67,0-7.14c0.9,0.34,1.34,0.98,1.74,1.65c1.87,3.21,2.74,6.66,2.54,10.38
		c-0.16,0.07-0.33,0.04-0.44-0.08C36.31,28.7,34.92,27.18,33.83,25.42z"/>
	<path class="st63" d="M32.72,26.52c-0.55,0.66,0.18,1.26,0.07,1.92c-0.1,0.57-0.03,1.17-0.04,1.75c-0.93-0.54-1.33-1.56-2.04-2.3
		c-0.61-0.64-1.33-1.27-1.62-2.17c0.23-0.89,0.38-1.8,0.82-2.63C31.2,23.94,32,25.2,32.72,26.52z"/>
	<path class="st60" d="M33.83,25.42c1.39,1.19,2.34,2.77,3.56,4.1c0.24,0.26,0.48,0.52,0.71,0.79c0.38,1.47-0.56,1.32-1.47,1.2
		c-1.18-0.92-2.17-1.99-2.77-3.39C33.85,27.22,33.84,26.32,33.83,25.42z"/>
	<path class="st75" d="M32.39,31.5c-1.03,0.02-2.05,0.01-3.08,0.06c-0.63,0.03-0.79-0.22-0.81-0.82c-0.05-1.42,0.05-2.82,0.4-4.21
		c0.99,1.38,2.05,2.71,3.17,3.99C32.31,30.79,32.51,31.1,32.39,31.5z"/>
	<path class="st76" d="M30.62,21.35c0.4-1.14,0.96-2.16,2.13-3.1c0,2.76,0,5.31,0,7.86c-0.57,0.03-0.47-0.49-0.45-0.72
		c0.11-1.29-0.43-2.29-1.27-3.2C30.82,21.96,30.67,21.67,30.62,21.35z"/>
	<path class="st65" d="M32.39,31.5c-0.99-1.23-1.96-2.48-2.97-3.69c-0.32-0.39-0.53-0.77-0.51-1.27c0.06-0.27,0.13-0.54,0.19-0.81
		c1.34,1.4,2.72,2.76,3.66,4.47C32.59,30.61,33.15,31.24,32.39,31.5z"/>
	<path class="st77" d="M30.62,21.35c1.49,1.24,2.28,2.79,2.13,4.76c-0.01,0.13-0.02,0.27-0.03,0.41c-1.09-1.02-1.84-2.32-2.81-3.43
		C30.03,22.46,30.26,21.88,30.62,21.35z"/>
	<path class="st78" d="M33.86,28.12c0.92,1.13,1.85,2.26,2.77,3.39c-2.9,0.13-2.9,0.13-2.82-2.79
		C33.82,28.52,33.85,28.32,33.86,28.12z"/>
</g>
</svg>
