<?xml version="1.0" encoding="utf-8"?>
<!-- Generator: Adobe Illustrator 23.0.2, SVG Export Plug-In . SVG Version: 6.00 Build 0)  -->
<svg version="1.1" id="Camada_1" xmlns="http://www.w3.org/2000/svg" xmlns:xlink="http://www.w3.org/1999/xlink" x="0px" y="0px"
	 viewBox="0 0 69.12 71.04" style="enable-background:new 0 0 69.12 71.04;" xml:space="preserve">
<style type="text/css">
	.st0{fill:#3E403B;}
	.st1{fill:#5F3179;}
	.st2{fill:#5E3078;}
	.st3{fill:#63587E;}
	.st4{fill:#6D3F89;}
	.st5{fill:#61577B;}
	.st6{fill:#397F51;}
	.st7{fill:#575161;}
	.st8{fill:#5A4F69;}
	.st9{fill:#895DAB;}
	.st10{fill:#794895;}
	.st11{fill:#8A5DAC;}
	.st12{fill:#4E4480;}
	.st13{fill:#B388D4;}
	.st14{fill:#784794;}
	.st15{fill:#4E447F;}
	.st16{fill:#31614C;}
	.st17{fill:#4F4481;}
	.st18{fill:#4D4380;}
	.st19{fill:#4D447F;}
	.st20{fill:#7A4895;}
	.st21{fill:#AB83CA;}
	.st22{fill:#9997C0;}
	.st23{fill:#9896BE;}
	.st24{fill:#534785;}
	.st25{fill:#986BC2;}
	.st26{fill:#4AE9E3;}
	.st27{fill:#524484;}
	.st28{fill:#794897;}
	.st29{fill:#794A98;}
	.st30{fill:#7A4B9A;}
	.st31{fill:#774C98;}
	.st32{fill:#9568B8;}
	.st33{fill:#895DAD;}
	.st34{fill:#774D98;}
	.st35{fill:#AA82C9;}
	.st36{fill:#784D98;}
	.st37{fill:#9896BF;}
	.st38{fill:#8B5EAE;}
	.st39{fill:#716D75;}
	.st40{fill:#797587;}
	.st41{fill:#605570;}
	.st42{fill:#716D74;}
	.st43{fill:#A0918C;}
	.st44{fill:#706D73;}
	.st45{fill:#7D7165;}
	.st46{fill:#AFFB58;}
	.st47{fill:#774A9A;}
	.st48{fill:#734C9A;}
	.st49{fill:#8162A3;}
	.st50{fill:#326049;}
	.st51{fill:#335E48;}
	.st52{fill:#31624E;}
	.st53{fill:#ECF8EC;}
	.st54{fill:#56F8F1;}
	.st55{fill:#E3E3E3;}
	.st56{fill:#885EB1;}
	.st57{fill:#49EFE8;}
	.st58{fill:#FCFEFD;}
	.st59{fill:#48EFE7;}
	.st60{fill:#49F0E8;}
	.st61{fill:#FBFDFC;}
	.st62{fill:#48F1EA;}
	.st63{fill:#48F2EB;}
	.st64{fill:#49EFE7;}
	.st65{fill:#FDFEFD;}
	.st66{fill:#48EEE8;}
	.st67{fill:#EBF8E3;}
	.st68{fill:#E7F9E6;}
	.st69{fill:#FDFDFD;}
	.st70{fill:#48F0E8;}
	.st71{fill:#FAFDFC;}
	.st72{fill:#46EFE8;}
	.st73{fill:#48EDE7;}
	.st74{fill:#48F5EF;}
	.st75{fill:#51E5DE;}
	.st76{fill:#E9F7E3;}
	.st77{fill:#45F2EF;}
	.st78{fill:#F2F9F5;}
</style>
<g>
	<path d="M6.48,34.02c-1.17,0-2.25-0.02-3.32,0.01c-0.93,0.02-1.47-0.45-1.56-1.31c-0.14-1.42-0.14-2.66,1.12-3.89
		c7.5-7.31,14.93-14.7,22.25-22.2c1.31-1.34,2.56-1.74,4.28-1.69c2.96,0.09,5.92,0.01,8.88-0.02c0.82-0.01,1.63,0.09,2.29,0.56
		c0.82,0.57,1.51,0.44,2.24-0.11c1.47-1.1,2.95-2.19,4.45-3.25c1.29-0.91,1.93-0.75,3.09,0.29c2.64,2.37,5.35,4.66,8.03,6.99
		c1.32,1.15,2.64,2.31,3.93,3.49c0.86,0.79,0.85,1.85,0.74,2.9c-0.06,0.54-0.45,0.79-0.96,0.94c-0.99,0.28-1.99,0.15-2.98,0.15
		c-0.57,0-0.86,0.08-0.83,0.77c0.06,1.44,0.04,2.88-0.01,4.32c-0.01,0.46,0.18,0.73,0.48,1.02c2.1,2.02,4.13,4.11,6.29,6.07
		c1.09,0.99,1.25,2.05,0.91,3.34c-0.23,0.88-1,0.93-1.68,1.12c-1.07,0.3-2.58-0.67-3.19,0.54c-0.47,0.94-0.19,2.27-0.2,3.43
		C60.7,41.32,60.7,45.16,60.69,49c0,1.92,0.04,3.84-0.04,5.76c-0.04,0.88,0.26,1.08,1.07,1.04c1.2-0.07,2.4-0.06,3.6-0.04
		c1.84,0.03,2.51,0.7,2.67,2.57c0.16,1.71,0.27,3.43,0.13,5.14c-0.13,1.57-0.46,3.13-0.71,4.68c-0.18,1.1-1.36,1.27-2.3,1.27
		c-9.42,0-18.85-0.43-28.24,0.06c-9.46,0.49-18.9,0.04-28.35,0.33c-1.4,0.04-2.73-0.45-4.21-0.12c-1.26,0.27-1.56-1.21-1.57-2.12
		c-0.03-2.75-0.2-5.51,0.09-8.26c0.04-0.4,0.08-0.8,0.06-1.2c-0.1-1.68,0.42-2.36,2.07-2.27c1.28,0.07,1.57-0.36,1.53-1.58
		c-0.12-3.87-0.27-7.76-0.11-11.62C6.51,39.81,6.06,36.98,6.48,34.02z"/>
	<path class="st0" d="M29.06,6.18c0.17,0,0.34,0,0.51,0c3.1,0.19,6.2,0.14,9.3,0.02c0.7,0.14,1.38,0.27,1.86,0.9
		c0.32,0.43,0.7,0.35,1.15,0.09c1.67-0.95,3.17-2.13,4.69-3.29c1.62-1.23,2.05-1.09,3.63,0.17c3.48,2.77,6.58,5.98,10.15,8.64
		c0.44,0.32,0.75,0.81,1.11,1.24c0.35,0.41,0.32,0.92,0.19,1.37c-0.17,0.54-0.71,0.41-1.13,0.42c-1.04,0.02-2.08,0.02-3.11,0.03
		c-0.52-0.47-0.83-1.24-1.71-1.23c-1.43-0.82-2.37-2.22-3.68-3.19c-0.9-0.66-1.78-1.35-2.65-2.03c-0.6-0.47-1.16-0.45-1.68,0.13
		c-0.13,0.15-0.28,0.28-0.42,0.42c-1.89,1.87-1.55,1.5-0.07,3.1c0.15,0.17,0.26,0.36,0.35,0.57c0.53,1.15,1.28,2.09,2.5,2.57
		c1.04,0.45,1.61,1.44,2.44,2.13c0.48,0.51,0.98,1,1.48,1.48c0.45,0.46,0.91,0.92,1.38,1.37c0.12,0.11,0.24,0.21,0.37,0.31
		c0.33,0.23,0.61,0.32,0.75-0.19c0.06-0.21,0.13-0.44,0.43-0.42c-0.47,2.44,1.31,3.66,2.81,4.95c1.7,1.45,3.14,3.16,4.79,4.65
		c0.45,0.41,0.4,0.92,0.23,1.43c-0.18,0.56-0.65,0.5-1.08,0.5c-0.96,0-1.91,0.05-2.86,0c-0.81-0.04-1,0.29-1.01,1.05
		c-0.01,1.02,0.24,2.06-0.17,3.05c-0.56-0.56-0.32-1.28-0.34-1.92c-0.02-0.66-0.13-1.19-0.86-1.36c-1.26-0.97-2.74-0.63-4.04-0.41
		c-1.78,0.31-2.78-0.37-3.89-1.63c-2.22-2.51-4.56-4.92-6.81-7.42c-2.65-2.94-5.33-5.84-7.93-8.82c-1.07-1.22-2.68-1.32-3.87-0.15
		c-2.25,2.22-4.25,4.67-6.39,6.99c-1.97,2.14-3.97,4.27-5.87,6.48c-1.3,1.51-2.72,2.91-4.11,4.34c-0.58,0.59-1.22,0.93-2.03,0.77
		c-1.51-0.3-3.03-0.17-4.54-0.17c-0.41-0.01-0.83,0.23-1.22-0.08c-1.18-0.24-2.38-0.19-3.57-0.23c-0.47-0.02-1.22,0.31-1.34-0.36
		c-0.14-0.74-0.36-1.59,0.23-2.29c0.15-0.18,0.34-0.34,0.51-0.51c4.59-4.57,9.11-9.2,13.87-13.59c2.5-2.3,4.52-5.07,7.13-7.26
		c0.75-0.44,1.2-1.22,1.92-1.7l-0.01,0.01C27,5.93,28.17,6.45,29.06,6.18z"/>
	<path class="st1" d="M37.24,68.09c-10.12,0.6-20.26,0.2-30.38,0.22c-0.28,0-0.56,0-0.84,0c-2.14,0-2.15,0-2.13-2.22
		c0.03-2.78,0.1-5.57,0.12-8.35c0-0.75,0.49-0.69,0.97-0.71c0.94-0.04,1.89,0.02,2.75-0.47c0.5-0.41,0.99-0.14,1.49,0.03
		c0.55,0.17,1.11,0.12,1.67,0.12c7.67-0.02,15.34,0.06,23.02-0.04c0.52-0.01,1.04-0.01,1.56,0.01c1.33,0.06,1.5,0.23,1.68,1.63
		c-0.02,0.49,0.13,0.99-0.02,1.48c0,0.34-0.01,0.68-0.02,1.03c0.04,1.46,0.03,2.92,0.02,4.38c0,0.72,0.07,1.42,0.33,2.09
		C37.5,67.57,37.43,67.85,37.24,68.09z"/>
	<path class="st2" d="M59.51,36.66c0,6.4,0.04,12.8-0.04,19.2c-0.01,1.07,0.32,1.19,1.19,1.16c1.44-0.05,2.89,0.07,4.32-0.06
		c1.18-0.11,1.59,0.59,1.76,1.45c0.34,1.73,0.45,3.52,0.19,5.24c-0.2,1.27-0.51,2.52-0.64,3.81c-0.07,0.67-0.68,0.82-1.27,0.82
		c-3.59-0.04-7.19,0.14-10.77-0.22c-0.17-0.79,0.29-1.02,0.96-1.07c2.91,0.02,5.81-0.03,8.72,0c0.91,0.01,1.28-0.34,1.27-1.26
		c-0.02-1.99-0.04-3.98,0.01-5.97c0.05-0.89-0.44-1.2-1.26-1.16c-2.42,0.14-4.83-0.35-7.26-0.02c-1.22,0.17-1.31,0.15-1.33,1.43
		c-0.02,1.15,0,2.31-0.01,3.46c0,0.47,0.03,0.96-0.23,1.4c-0.76,0.33-1.06-0.19-1.34-0.73c-0.23-2.02-0.09-4.04-0.1-6.06
		c0-0.93,0.47-1.38,1.41-1.36c0.52,0.01,1.03-0.03,1.55,0c0.7,0.05,1.24-0.2,1.65-0.75c0.81-0.43,0.64-1.22,0.64-1.9
		c0.02-5.05,0.01-10.1,0.01-15.15c0-0.44-0.03-0.88,0.03-1.31C59.03,37.23,58.99,36.78,59.51,36.66z"/>
	<path class="st3" d="M8.87,56.8c-0.34-0.26-0.75-0.25-1.15-0.24c0.05-5.42-0.55-10.84-0.03-16.26c0.09-0.98-0.17-1.89-0.22-2.84
		c-0.07-1.48,0.25-2.93,0.21-4.41c0.41-0.08,0.82-0.17,1.22-0.25c0.46,0.53,0.39,1.19,0.39,1.82c-0.01,4.17,0.04,8.35-0.03,12.52
		c0.03,2.67,0.04,5.33-0.01,8c-0.03,0.51,0.05,1.04-0.23,1.52C8.99,56.7,8.93,56.75,8.87,56.8z"/>
	<path class="st4" d="M36.78,59.72c0.17-0.34,0.2-0.68-0.01-1.02c0.28-0.25,0.64-0.34,0.99-0.31c1.1,0.09,1.33-0.51,1.3-1.45
		c-0.02-0.74-0.16-1.51,0.25-2.2c0.65-0.19,0.56,0.36,0.62,0.68c0.1,0.54,0.02,1.1,0.06,1.65c0.03,0.46-0.01,0.97,0.59,1.15
		c0.42,0.17,0.87,0.17,1.32,0.18c0.68-0.01,1.35-0.02,2.02,0.01c1.52,0.19,2.17,1.02,2,2.56c-0.06,0.54-0.27,1.07-0.04,1.62
		c0.12,0.54,0.08,1.09,0.1,1.63c0,0.53,0,1.06-0.03,1.59c-0.05,0.45-0.18,0.88-0.23,1.32c-0.05,0.39-0.14,0.76-0.56,0.94
		c-2.64,0.01-5.28,0.02-7.92,0.03c0-0.24,0-0.49,0-0.73c0.25-0.3,0.6-0.4,0.96-0.48c0.36-0.06,0.71-0.05,1.06,0.02
		c0.33,0.09,0.66,0.09,1-0.01c0.47-0.09,0.94-0.09,1.41-0.01c0.36,0.07,0.71,0.04,1.07,0.03c0.91,0,0.84-0.67,0.87-1.27
		c0.08-1.59-0.16-3.19,0.16-4.77c0.26-0.87-0.41-0.8-0.89-0.82c-1.54-0.05-3.08-0.01-4.63-0.02C37.75,60.02,37.22,60.08,36.78,59.72
		z"/>
	<path class="st5" d="M59.51,36.66c-0.33,0.38-0.18,0.84-0.18,1.26c-0.01,5.66-0.01,11.31,0,16.97c0,0.68,0.05,1.34-0.95,1.19
		c-0.46-0.44-0.4-1.02-0.4-1.57c-0.01-6.63-0.01-13.26,0-19.89c0-0.55-0.06-1.13,0.39-1.58c0.8-0.33,1.2-0.08,1.19,0.8
		c0,0.86,0.02,1.73,0.03,2.59C59.56,36.5,59.54,36.58,59.51,36.66z"/>
	<path class="st6" d="M45.16,68.05c0.09-0.31,0.17-0.61,0.26-0.92c2.05-0.28,4.11-0.04,6.16-0.12c0.4-0.01,0.79,0.01,1.19-0.02
		c0.68-0.04,0.94-0.35,0.65-1.01c-0.4-0.64-0.87-1.22-1.34-1.81c-0.62-0.96-1.49-1.37-2.64-1.3c-0.83,0.05-1.67,0.02-2.51,0
		c-0.57-0.02-1.13-0.08-1.4-0.7c-0.05-0.85,0.48-1.12,1.2-1.16c1.08-0.06,2.16-0.02,3.23-0.02c0.4,0.06,0.79-0.05,1.18-0.13
		c0.92-0.16,1.22,0.42,1.4,1.15c0.44,0.78,1.23,1.32,1.51,2.21c0.31,0.26,0.62,0.53,0.93,0.79c0.38,0.36,0.42,0.83,0.42,1.31
		c-0.07,0.29-0.15,0.58-0.44,0.74c-0.34,0.25-0.69,0.51-0.72,0.99C51.22,68.06,48.19,68.06,45.16,68.05z"/>
	<path class="st5" d="M56.88,20.8c-0.37,0.38-0.01,0.93-0.34,1.35c-0.45-0.04-0.75-0.35-1.06-0.63c-0.21-2.1-0.05-4.21-0.1-6.32
		c-0.01-0.32,0.07-0.64,0.33-0.87c1.08-0.13,1.49,0.53,1.7,1.43c-0.45,0.3-0.52,0.73-0.51,1.24C56.92,18.26,56.89,19.53,56.88,20.8z
		"/>
	<path class="st7" d="M38.88,6.2c-0.54,0.39-1.16,0.17-1.73,0.18C35,6.42,32.85,6.41,30.7,6.39c-0.38,0-0.8,0.14-1.12-0.21
		C32.68,6.1,35.78,6.08,38.88,6.2z"/>
	<path class="st8" d="M26.43,7.1c-0.55,0.67-0.98,1.47-1.92,1.7C25.13,8.21,25.56,7.4,26.43,7.1z"/>
	<path class="st8" d="M29.06,6.18c-0.87,0.35-1.93,0.15-2.64,0.94C26.85,5.52,28.11,6.29,29.06,6.18z"/>
	<path class="st9" d="M54.06,64.23c-0.57-0.64-1.14-1.28-1.71-1.92c-0.34-1.84-0.57-3.68-0.19-5.55c0.23-0.46,0.66-0.38,1.05-0.34
		c0.8,0.07,1.6,0.01,2.4,0.06c0.95,0.06,1.25-0.35,1.25-1.27c-0.03-3.92,0.01-7.84-0.02-11.75c-0.02-1.96,0.35-3.9,0.27-5.86
		c-0.04-0.9-0.29-1.25-1.21-1.05c-2.16,0.48-3.85-0.39-5.18-2.01c-1.73-2.1-3.61-4.06-5.56-5.96c-1.55-1.51-2.94-3.16-4.38-4.76
		c-0.89-0.99-2.04-1.66-3.03-2.53c-0.88-0.68-1.17-1.79-1.89-2.6c-1.3-1.46-2.84-1.62-4.27-0.28c-1.69,1.59-2.34,3.76-3.1,5.86
		c-0.2,0.56-0.22,1.18-0.59,1.68c-3.81,4.13-7.51,8.37-11.11,12.68c-0.23,0.28-0.48,0.54-0.78,0.74c-0.26,0.16-0.58,0.15-0.83,0.33
		c-0.2,0.19-0.13,0.43-0.13,0.66c-0.01,0.11-0.04,0.21-0.09,0.3c-1.64,2.08-3.4,4.06-5.2,6.01c-0.22,0.24-0.36,0.65-0.83,0.54
		c0-4.8,0-9.6,0-14.4c1.47,0.01,2.94-0.08,4.41,0.19c0.65,0.12,1.3,0.11,1.86-0.51c2.1-2.33,4.27-4.61,6.39-6.92
		c3.39-3.71,6.76-7.45,10.15-11.16c0.95-1.04,3.12-1.02,4.02,0c2.57,2.89,5.14,5.79,7.73,8.66c2.6,2.87,5.27,5.68,7.84,8.57
		c0.74,0.83,1.5,1.05,2.53,0.83c1.3-0.28,2.63-0.06,3.94-0.12c0.53-0.03,0.55,0.34,0.59,0.71c0,7.68,0.01,15.37,0.01,23.05
		c0.07,0.71-0.22,1.05-0.95,0.95c-0.08-0.01-0.16,0-0.24,0c-0.98,0.07-2.26-0.42-2.88,0.19c-0.72,0.71-0.21,2.03-0.25,3.08
		C54.01,61.61,54.05,62.92,54.06,64.23z"/>
	<path class="st10" d="M36.02,12.89c-1.55-0.9-3.16-0.45-4.76-0.22c-0.54,0.3-1.12,0.33-1.72,0.34c-1.58,0.02-3.15-0.09-4.72,0.16
		c-0.39,0.06-0.79,0.01-1.12-0.25c-0.14-0.15-0.3-0.36-0.16-0.52c0.79-0.84,1.4-1.94,2.74-2.06c4.96-0.02,9.92-0.01,14.88-0.01
		c0.57,0,1.11,0.09,1.62,0.36c0.72,0.56,1.35,1.21,1.92,1.92C44.65,13.1,44.25,13,43.97,13C41.32,12.95,38.67,13.14,36.02,12.89z"/>
	<path class="st10" d="M55.69,23.7c0.03,0.35,0.07,0.78,0.47,0.85c1.08,0.18,1.53,1.11,2.22,1.76c-0.09,0.61-0.6,0.59-1.01,0.6
		c-2.5,0.07-5,0.05-7.5,0.02c-0.41,0-0.77-0.18-1.13-0.34c-1.02-0.83-1.82-1.86-2.62-2.9c0.37-0.39,0.86-0.36,1.33-0.37
		c2.3-0.07,4.6,0.1,6.89,0C54.83,23.3,55.29,23.39,55.69,23.7z"/>
	<path class="st10" d="M21.18,23.69c-0.54,1.19-1.72,1.83-2.44,2.87c-0.3,0.2-0.63,0.36-1,0.36c-2.58,0-5.16,0.15-7.74-0.08
		c-0.36-0.12-0.59-0.38-0.31-0.7c0.88-1.01,1.75-2.04,2.89-2.78c0.13-0.08,0.31-0.05,0.47-0.04c2.19-0.01,4.37-0.01,6.56,0
		C20.16,23.32,20.74,23.24,21.18,23.69z"/>
	<path class="st11" d="M55.71,14.33c0,2.02,0.01,4.05,0,6.07c0,0.38,0.15,0.81-0.23,1.11c-0.07-0.08-0.14-0.16-0.21-0.23
		c-0.24-1.17-0.15-2.37-0.1-3.54c0.06-1.19-0.29-2.08-1.31-2.69c-0.34-0.39-0.76-0.69-1.17-1.01c-0.81-1-1.9-1.68-2.88-2.48
		c-0.46-0.37-0.79-0.39-1.17,0.15c-0.4,0.57-0.83,1.17-1.56,1.4c-1.84-1.55-1.84-1.55-0.25-3.23c1.57-1.66,1.56-1.64,3.36-0.31
		C52.15,11.01,53.94,12.66,55.71,14.33z"/>
	<path class="st12" d="M42.78,10.7c-5.32,0.01-10.63,0.01-15.95,0.02c-0.31,0-0.65,0.07-0.88-0.24C26,9.49,26.76,9.27,27.49,9
		C32.1,8.88,36.7,8.78,41.3,9.06C41.8,9.6,42.29,10.15,42.78,10.7z"/>
	<path class="st13" d="M27.18,9.28c-0.41,0.4-0.82,0.79-1.23,1.19c-0.79,0.72-1.58,1.45-2.38,2.17c-0.32,0.78-1.04,1.2-1.57,1.79
		c-0.5,0.37-1.01,0.73-1.43,1.2c-0.41,0.4-0.83,0.79-1.19,1.23c-0.6,0.89-1.42,1.58-2.15,2.35c-0.42,0.4-0.83,0.81-1.23,1.23
		c-0.57,0.55-1.12,1.11-1.68,1.68c-0.54,0.42-0.87,1.09-1.58,1.3c-1.09,0.98-2.18,1.96-3.07,3.14c-0.01,0.79-0.75,1.06-1.12,1.59
		c-0.65,0.6-1.21,1.27-1.66,2.03c0.17,0.6,0.66,0.33,0.99,0.33c1.91,0.02,3.82,0.01,5.73,0.02c0.39,0,0.89-0.25,1.13,0.33
		c-0.17,0.09-0.34,0.26-0.51,0.26c-3.26,0.02-6.52,0.01-9.76,0.01c-0.09-0.39,0.17-0.5,0.32-0.65c7.47-7.55,14.95-15.09,22.43-22.63
		c0.11-0.11,0.25-0.2,0.37-0.3c0.23-0.09,0.34,0.04,0.42,0.22C28.16,8.53,27.73,8.94,27.18,9.28z"/>
	<path class="st10" d="M49,16.96c0.72,0.55,1.35,1.21,1.93,1.91c-0.06,0.55-0.51,0.58-0.89,0.59c-2.42,0.08-4.85,0.09-7.28,0
		c-0.29-0.01-0.53-0.15-0.77-0.31c-0.7-0.58-1.33-1.23-1.89-1.95c0.06-0.55,0.51-0.57,0.88-0.58c2.33-0.08,4.67-0.07,7.01-0.01
		C48.37,16.62,48.69,16.78,49,16.96z"/>
	<path class="st14" d="M27.18,9.28c0.26-0.46,0.68-0.85,0.72-1.43c0.32-0.32,0.74-0.25,1.13-0.25c3.21-0.01,6.43,0,9.64,0
		c0.44,0,0.87,0,1.27,0.23c0.46,0.41,0.91,0.82,1.37,1.23c-0.36,0.38-0.82,0.21-1.24,0.22C35.77,9.29,31.47,9.28,27.18,9.28z"/>
	<path class="st10" d="M17.08,19.11c0.72-0.79,1.44-1.59,2.17-2.38c2.35-0.3,4.7-0.12,7.05-0.1c0.37,0,0.83,0.04,0.89,0.59
		c-0.57,0.63-1.14,1.27-1.71,1.9c-0.34,0.21-0.71,0.37-1.12,0.37c-2.1,0.03-4.21,0.04-6.31-0.01
		C17.69,19.47,17.34,19.41,17.08,19.11z"/>
	<path class="st10" d="M51.66,29.91c-0.49-0.55-0.97-1.11-1.46-1.66c0.41-0.42,0.94-0.38,1.45-0.38c2.34-0.02,4.69-0.01,7.03-0.01
		c0.57,0,1.11,0.08,1.6,0.38c0.48,0.48,0.97,0.96,1.45,1.43c-0.13,0.66-0.67,0.59-1.12,0.59c-2.57,0.03-5.15,0.01-7.72,0.01
		C52.44,30.28,52.03,30.16,51.66,29.91z"/>
	<path class="st12" d="M60.28,28.24c-3.36,0-6.72,0.01-10.08,0.01c-0.66-0.4-0.94-1.13-1.46-1.66c2.81-0.01,5.61-0.01,8.42-0.03
		c0.41,0,0.88,0.16,1.22-0.24C59.08,26.88,59.73,27.51,60.28,28.24z"/>
	<path class="st12" d="M55.69,23.7c-3.19-0.01-6.38-0.01-9.57-0.02c-0.65-0.47-1.21-1.03-1.66-1.7c0.23-0.26,0.55-0.34,0.87-0.34
		c2.83,0,5.66-0.17,8.49,0.09C54.5,22.34,55.21,22.91,55.69,23.7z"/>
	<path class="st15" d="M42,19.15c2.57-0.01,5.14-0.02,7.71-0.04c0.42,0,0.88,0.16,1.23-0.24c0.71,0.57,1.35,1.21,1.92,1.92
		c-0.37,0.4-0.86,0.39-1.33,0.39c-2.19,0.02-4.39,0.01-6.58,0.01c-0.53,0-1.03-0.12-1.49-0.38C42.89,20.32,42.27,19.89,42,19.15z"/>
	<path class="st10" d="M6.73,29.9c0.48-0.71,1-1.39,1.67-1.93c0.38-0.1,0.74-0.34,1.15-0.29c2.19,0.31,4.38,0.14,6.58,0.21
		c0.36,0.01,0.72,0.05,0.99,0.35c-0.5,0.55-0.84,1.25-1.48,1.67C14.34,30.49,7.84,30.48,6.73,29.9z"/>
	<path class="st12" d="M36.02,12.89c0.46-0.3,0.98-0.25,1.5-0.25c2.4-0.01,4.79-0.02,7.19-0.02c0.56,0.56,1.11,1.12,1.67,1.68
		c-0.36,0.4-0.86,0.39-1.33,0.39c-2.03,0.02-4.06,0.01-6.09,0.01c-0.53,0-1.03-0.1-1.48-0.38C37.05,13.78,36.59,13.29,36.02,12.89z"
		/>
	<path class="st12" d="M17.12,28.24c-2.91-0.04-5.82,0.11-8.71-0.28c0.43-0.46,0.85-0.93,1.28-1.39c3.02-0.01,6.04-0.02,9.06-0.02
		C18.3,27.22,17.72,27.74,17.12,28.24z"/>
	<path class="st12" d="M12.75,23.44c0.49-0.48,0.98-0.95,1.47-1.43c0.17-0.11,0.34-0.24,0.53-0.26c2.56-0.22,5.13-0.22,7.7,0
		c0.16,0.01,0.28,0.14,0.39,0.25c-0.46,0.65-1.02,1.21-1.65,1.69c-2.4,0-4.8,0-7.19-0.01C13.57,23.67,13.1,23.84,12.75,23.44z"/>
	<path class="st16" d="M52.84,13.89c0.35,0.29,0.95,0.29,1,0.9c0.52,1.69,0.61,3.37-0.04,5.05c-0.57-0.38-1.05-0.86-1.44-1.43
		c-0.11-0.54-0.08-1.09-0.08-1.64c0-0.23,0-0.46,0-0.69c0.09-0.75-0.41-0.75-0.93-0.73c-0.33,0-0.66,0-0.99-0.01
		c-0.25,0.04-0.5-0.11-0.77,0c0.14,0.27,0.43,0.45,0.38,0.79c-0.06,0.16-0.23,0.34-0.33,0.25c-0.9-0.83-2.11-1.43-2.29-2.85
		c1.5-0.16,3-0.04,4.5-0.03C52.22,13.51,52.56,13.63,52.84,13.89z"/>
	<path class="st17" d="M21.83,14.31c0.49-0.65,1.08-1.2,1.74-1.67c0.81,0.52,1.63,0,2.44,0c1.75,0,3.5,0.01,5.25,0.02
		c-0.35,0.67-0.82,1.23-1.44,1.66c-0.43,0.24-0.88,0.38-1.37,0.38c-1.8,0.01-3.6,0.02-5.4-0.01C22.62,14.69,22.17,14.67,21.83,14.31
		z"/>
	<path class="st18" d="M49,16.96c-2.55,0-5.1,0-7.65,0.01c-0.42,0-0.89-0.16-1.24,0.23c-0.49-0.55-0.98-1.11-1.46-1.66
		c0.36-0.41,0.85-0.4,1.33-0.4c2.03-0.02,4.07-0.01,6.1-0.01c0.53,0,1.03,0.1,1.48,0.38C48.13,15.91,48.61,16.39,49,16.96z"/>
	<path class="st10" d="M22.84,22c-2.87,0-5.75,0-8.62,0.01c0.46-0.65,1.04-1.19,1.65-1.69c2.44-0.27,4.89-0.1,7.33-0.09
		c0.32,0,0.63,0.09,0.85,0.35C23.64,21.04,23.24,21.52,22.84,22z"/>
	<path class="st12" d="M27.18,17.21c-0.31-0.37-0.73-0.24-1.11-0.24c-1.9-0.01-3.81,0-5.71-0.01c-0.38,0-0.8,0.14-1.12-0.23
		c0.41-0.4,0.81-0.8,1.22-1.2c0.27-0.17,0.55-0.33,0.87-0.34c2.25-0.07,4.5-0.08,6.75,0c0.28,0.01,0.54,0.1,0.74,0.32
		C28.38,16.18,27.79,16.71,27.18,17.21z"/>
	<path class="st19" d="M24.05,20.57c-2.32,0-4.63,0.01-6.95-0.01c-0.42,0-0.89,0.17-1.23-0.24c0.4-0.4,0.81-0.8,1.21-1.2
		c2.8,0,5.6,0,8.4,0C25.09,19.69,24.61,20.17,24.05,20.57z"/>
	<path class="st10" d="M43.45,20.81c3.14-0.01,6.27-0.01,9.41-0.02c0.32,0.32,0.65,0.64,0.97,0.96C53.53,22.13,53.1,22,52.72,22
		c-2.75,0.01-5.5,0-8.25,0C44.12,21.6,43.78,21.2,43.45,20.81z"/>
	<path class="st20" d="M47.56,15.52c-2.97,0.01-5.94,0.02-8.91,0.03c-0.46-0.34-0.87-0.74-1.18-1.22c2.97-0.01,5.93-0.01,8.9-0.02
		C46.84,14.65,47.25,15.03,47.56,15.52z"/>
	<path class="st21" d="M50.2,7.83c-0.15-0.13-0.31-0.24-0.44-0.38c-1.6-1.61-1.92-1.62-3.72-0.2c-0.27,0.22-0.57,0.41-0.86,0.61
		c-0.5-0.12-1.13,0.43-1.5-0.3c1.28-1,2.57-1.98,3.83-3c0.33-0.27,0.53-0.37,0.89-0.03c1.12,1.06,2.28,2.08,3.42,3.12
		C51.34,8.33,50.74,7.84,50.2,7.83z"/>
	<path class="st22" d="M52.84,13.89c-1.38,0-2.76-0.02-4.14-0.01c-0.48,0-0.95,0.01-1.33-0.34c-0.09-0.14-0.19-0.29-0.28-0.43
		c0.47-0.73,1.28-1.18,1.63-2.02c0.18-0.45,0.51-0.33,0.76-0.12C50.62,11.9,51.98,12.61,52.84,13.89z"/>
	<path class="st20" d="M28.82,15.51c-2.79,0.01-5.57,0.01-8.36,0.02c0.33-0.55,0.81-0.93,1.38-1.21c2.66,0,5.33,0.01,7.99,0.01
		C29.49,14.72,29.15,15.11,28.82,15.51z"/>
	<path class="st23" d="M53.8,19.84c0.01-1.68,0.02-3.36,0.04-5.05c1.21,0.45,1.87,1.21,1.67,2.6c-0.19,1.28,0.25,2.61-0.23,3.88
		C54.78,20.8,54.29,20.32,53.8,19.84z"/>
	<path class="st24" d="M6.73,29.9c2.97,0,5.93,0.01,8.9,0.01c-0.29,0.32-0.58,0.65-0.88,0.97c-2.86,0-5.72,0-8.58,0
		C6.12,30.27,6.48,30.13,6.73,29.9z"/>
	<path class="st12" d="M51.66,29.91c2.99,0,5.97,0.01,8.96,0c0.38,0,0.81,0.13,1.12-0.24c0.34,0.2,0.6,0.47,0.9,0.97
		c-3.43,0-6.7,0-9.97,0C52.16,30.64,51.87,30.32,51.66,29.91z"/>
	<path class="st25" d="M39.94,7.83c-4.01,0.01-8.03,0.02-12.04,0.03c-0.1-0.1-0.19-0.19-0.29-0.29c0.29-0.32,0.67-0.19,1.01-0.19
		c3.35,0,6.7,0.01,10.05,0.03C39.13,7.41,39.66,7.26,39.94,7.83z"/>
	<path class="st26" d="M52.46,16.72c0.05,0.57,0.24,1.15-0.1,1.69c-0.79-0.76-1.58-1.52-2.38-2.27c-0.3-0.34-0.6-0.68-0.96-1.09
		c0.43-0.18,0.79-0.06,1.14-0.02C51.1,15.36,51.96,15.79,52.46,16.72z"/>
	<path class="st27" d="M57.41,12.39c0.73,0.65,1.47,1.31,2.29,2.04c-0.94,0.22-1.71,0.28-2.37-0.51c-0.4-0.48-0.92-0.86-1.38-1.28
		C56.37,12.18,56.92,12.43,57.41,12.39z"/>
	<path class="st28" d="M57.41,12.39c-0.42,0.46-0.97,0.16-1.46,0.26c-0.64-0.56-1.27-1.12-1.91-1.69c0.25-0.82,0.77-0.38,1.23-0.27
		C56.16,11.03,56.65,11.88,57.41,12.39z"/>
	<path class="st29" d="M50.2,7.83c0.5-0.44,1.09,0.03,1.62-0.18c0.74,0.26,1.09,1.01,1.74,1.39c-0.35,0.83-0.91,0.47-1.44,0.25
		C51.4,8.91,50.74,8.44,50.2,7.83z"/>
	<path class="st30" d="M43.68,7.58c0.45,0.34,1.1-0.29,1.5,0.3c-0.32,0.35-0.65,0.68-0.95,1.04c-0.46,0.55-0.88,0.71-1.42,0.06
		c-0.62-0.75,0.22-0.8,0.49-1.11C43.41,7.75,43.55,7.67,43.68,7.58z"/>
	<path class="st17" d="M52.11,9.29c0.48-0.11,1.02,0.19,1.44-0.25c0.67,0.45,1.21,1.03,1.71,1.65c-0.4,0.11-0.89-0.14-1.23,0.27
		C53.41,10.39,52.64,9.98,52.11,9.29z"/>
	<path class="st31" d="M35.32,59.92c0,1.99-0.05,3.99,0.03,5.98c0.04,1.04-0.35,1.24-1.31,1.24C25.03,67.11,16.02,67.12,7,67.12
		c-0.38-0.42-0.38-0.95-0.39-1.47c-0.01-1.44-0.03-2.87,0-4.31c0.03-1.5,0.32-1.8,1.87-1.81c4.67-0.03,9.33-0.01,14-0.01
		c3.67,0,7.34-0.01,11.01,0C34.12,59.53,34.78,59.45,35.32,59.92z"/>
	<path class="st32" d="M35.32,59.92c-9.02,0-18.03,0.02-27.05-0.03c-1.11-0.01-1.34,0.36-1.3,1.37C7.05,63.21,7,65.17,7,67.12
		c-0.28,0.01-0.56-0.01-0.84,0.03c-0.84,0.12-1.1-0.24-1.08-1.08c0.05-2.19,0.07-4.39,0-6.59C5.05,58.5,5.34,58.2,6.34,58.2
		c8.3,0.04,16.61,0.03,24.91,0.01c1.07,0,2.14-0.12,3.22-0.19c0.7-0.05,1.22,0.01,0.88,0.95C35.24,59.25,35.32,59.6,35.32,59.92z"/>
	<path class="st33" d="M39.44,54.66c-0.01,1-0.07,2-0.02,2.99c0.05,0.85-0.26,1.16-1.09,1.07c-0.51-0.05-1.04-0.02-1.55-0.02
		c-0.06-1.64-0.06-1.65-1.7-1.65c-8.27-0.01-16.55-0.01-24.82-0.03c-0.46,0-0.97,0.16-1.37-0.23h0.05c0.5-0.44,1.12-0.37,1.71-0.38
		c3.11-0.03,6.22,0.07,9.33,0.04c0.52-0.01,1.04,0.05,1.54-0.12c0.51-0.12,1.03-0.11,1.54-0.03c1.37,0.26,2.75,0.25,4.12,0.01
		c0.81-0.12,1.62-0.11,2.43-0.02c0.67,0.24,1.37,0.16,2.14,0.27c-0.61-0.3-0.79-0.76-0.81-1.33c-0.01-0.34-0.02-0.67-0.05-1.01
		c0.3-3.89,0.22-7.78,0.24-11.68c0-0.36,0.03-0.72,0.2-1.04c0.87-0.47,1.5-0.16,1.65,0.97c0.16,1.22,0.34,2.45,0.33,3.69
		c-0.02,2.24-0.02,4.47,0,6.71c0.01,1.25,0.15,1.36,1.38,1.4c1.47,0.06,2.95-0.13,4.42,0.12C39.23,54.45,39.35,54.54,39.44,54.66z"
		/>
	<path class="st34" d="M38.19,67.12c-0.3,0.17-0.61,0.27-0.95,0.24c-0.36-0.3-0.5-0.65-0.49-1.14c0.04-1.87,0.03-3.74,0.04-5.61
		c0.88-0.13,1.76-0.2,2.6,0.2c0.08,0.12,0.09,0.25,0.01,0.37c-0.67,0.35-0.86,0.9-0.87,1.64C38.5,64.26,38.76,65.73,38.19,67.12z"/>
	<path class="st35" d="M39.4,60.89c-0.86-0.15-1.79,0.23-2.61-0.28c0-0.3,0-0.6-0.01-0.9c2.23-0.01,4.46-0.02,6.69-0.02
		c0.36,0,0.76-0.03,0.89,0.41c0.11,0.37,0.1,0.73-0.41,0.81c-0.41,0.32-0.89,0.29-1.37,0.29c-0.27,0.01-0.54,0.01-0.81,0
		c-0.47,0.01-0.94,0.01-1.42,0C40.01,61.2,39.67,61.14,39.4,60.89z"/>
	<path class="st36" d="M54.97,67.07c0.04-0.24,0.03-0.51,0.25-0.69c0.81,0.27,0.85-0.27,0.86-0.83c0.01-1.51-0.01-3.03,0.01-4.54
		c0.02-1.83,0.38-2.31,2.17-2.14c2.21,0.21,4.41,0.52,6.64,0.5c0.24,0,0.46,0.12,0.64,0.29c0.01,2.23,0.01,4.46,0.03,6.69
		c0,0.56,0,1.02-0.78,1.01c-3.07-0.02-6.13-0.01-9.2-0.01C55.33,67.36,55.11,67.29,54.97,67.07z"/>
	<path class="st32" d="M65.54,59.66c-2.59,0.25-5.14-0.19-7.69-0.46c-1.11-0.11-1.48,0.31-1.43,1.42c0.08,1.87,0.03,3.75,0.03,5.62
		c0,0.39,0.06,0.82-0.54,0.87c-0.56,0.04-0.68-0.29-0.69-0.73c-0.07-0.46-0.15-0.91-0.22-1.37c0-1.9,0.03-3.81,0-5.72
		c-0.01-0.72,0.14-1.02,0.97-1.08c2.89-0.23,5.77,0.14,8.66,0.01C65.89,58.16,65.5,59.01,65.54,59.66z"/>
	<path class="st37" d="M8.92,47.2c1.99-2.24,3.98-4.49,5.97-6.73c0.43,0.36,0.39,0.85,0.39,1.33c0.01,3.95,0.01,7.9,0,11.85
		c0,0.4,0,0.8-0.21,1.16c-0.14,0.08,0.07,0.05-0.08,0.08c-2,0.45-4.01,0.77-6.07,0.48C8.92,52.64,8.92,49.92,8.92,47.2z"/>
	<path class="st38" d="M8.92,55.36c1.98-0.33,3.98-0.59,6-0.48c0.37,0.48,0.46,1.25,1.29,1.25c1.33,0.19,2.67,0.03,4.01,0.09
		c0.5,0.02,1.04-0.1,1.43,0.35c-0.37,0.36-0.83,0.21-1.25,0.21c-3.82,0.01-7.64,0.01-11.46,0.01C8.92,56.32,8.92,55.84,8.92,55.36z"
		/>
	<path class="st39" d="M50.22,61.32c-1.19,0.01-2.38,0.04-3.56,0.02c-0.76-0.01-1.13,0.27-0.98,1.07c-0.02,0.05-0.05,0.1-0.07,0.14
		c-0.41-0.48-0.11-0.96-0.02-1.46c0.27-1.44-0.31-2.27-1.64-2.4c-0.53-0.29-0.64-0.78-0.64-1.32c0.03-3.86,0.08-7.72-0.03-11.58
		c-0.01-0.2,0.04-0.39,0.16-0.56c0.88-0.18,1,0.45,1.07,1.05c0.1,0.79,0.04,1.6,0.05,2.39c0.01,2.91-0.02,5.83,0.08,8.75
		c0.2-0.39,0.13-0.82,0.14-1.23c0.01-3.2-0.02-6.39,0.01-9.59c0.01-1.33,0.33-1.66,1.47-1.69c1.19-0.03,1.6,0.32,1.64,1.52
		c0.05,1.67-0.02,3.35,0.03,5.02c-0.02-1.75-0.04-3.51,0.01-5.26c0.01-0.47,0.07-1.04,0.73-1.05c0.6-0.01,0.85,0.47,0.86,0.97
		c0.03,2.03,0.26,4.06-0.13,6.08c-0.2,0.45-0.68,0.66-0.96,1.05c-0.15,0.2-0.25,0.45-0.03,0.64c0.26,0.22,0.54,0.1,0.74-0.12
		c0.37-0.42,0.22-1,0.39-1.48c0.13-2-0.01-4,0.07-5.99c0.05-1.18,0.45-1.41,1.62-1.05c0.23,0.3,0.29,0.66,0.28,1.02
		c-0.01,4.49,0.12,8.99-0.06,13.48C51.3,60.47,50.83,60.95,50.22,61.32z"/>
	<path class="st40" d="M49,52.45c0.52-1.32,0.14-2.68,0.23-4.03c0.05-0.76,0.01-1.52,0.01-2.28c0-0.38-0.06-0.78-0.53-0.8
		c-0.57-0.02-0.42,0.48-0.42,0.8c-0.01,1.68-0.01,3.35-0.01,5.03c0,0.28,0.01,0.56-0.02,0.84s-0.09,0.61-0.47,0.55
		c-0.31-0.05-0.23-0.38-0.23-0.6c-0.01-1.8,0-3.59-0.01-5.39c0-1.19-0.91-1.74-2.04-1.26c-0.52,0.22-0.35,0.67-0.35,1.03
		c-0.01,3.55-0.01,7.11-0.01,10.66c0,0.28,0,0.56-0.01,0.84c0,0.3-0.07,0.57-0.44,0.59c-0.45,0.02-0.51-0.29-0.51-0.64
		c0-0.28,0-0.56,0-0.84c0-3.47,0-6.95,0-10.42c0-0.55,0.12-1.18-0.72-1.26c-0.96,0.36-1.15,1.04-1.12,2.05
		c0.1,3.26,0.05,6.52,0.03,9.78c0,0.58,0.07,1.22-0.59,1.58c-0.41-0.04-0.88,0.18-1.22-0.24c-0.4-0.42-0.38-0.95-0.38-1.47
		c-0.01-3.87-0.02-7.74,0-11.6c0.01-1.62,0.3-1.92,1.87-1.93c2.63-0.02,5.26-0.06,7.9,0.02c1.39,0.04,1.7,0.56,1.17,1.8
		c-0.9-0.13-1.26,0.19-1.22,1.17c0.08,1.66,0.01,3.32,0.03,4.98c0,0.48-0.03,0.95-0.28,1.37C49.38,52.83,49.14,52.73,49,52.45z"/>
	<path class="st41" d="M51.15,45.28c0.22-1.15-0.25-1.5-1.41-1.46c-2.63,0.08-5.26,0.07-7.88,0c-0.98-0.02-1.3,0.25-1.28,1.26
		c0.05,4.46,0.02,8.92,0.02,13.38c-0.72,0.13-0.96-0.16-0.98-0.89c-0.02-0.97,0.24-1.96-0.18-2.9l-0.05-0.02
		c-0.29-0.32-0.34-0.72-0.3-1.12c0.31-2.91,0.09-5.82,0.15-8.73c0.04-2.09,0.2-2.29,2.24-2.29c2.95-0.01,5.9-0.01,8.86,0
		c1.89,0.01,2.21,0.29,2.36,2.2c0.13,1.55,0.04,3.11,0.05,4.67c0.01,1.88,0.01,3.75,0,5.63c0,0.56,0.02,1.13-0.39,1.59
		c0,1.91-0.01,3.83-0.01,5.74c-0.32-0.49-0.16-1.45-1.2-1.21c-0.28-0.31-0.17-0.62,0.01-0.93C51.15,55.2,51.15,50.24,51.15,45.28z"
		/>
	<path class="st42" d="M41.81,58.69c0.25-0.39,0.23-0.83,0.23-1.27c0-3.35,0-6.71,0-10.06c0-0.16,0.01-0.32,0-0.48
		c-0.11-1.6-0.11-1.6,1.44-1.6c0.18,0.61,0.26,1.24,0.25,1.88c-0.08,3.47,0.12,6.94-0.1,10.41c-0.02,0.37,0.21,0.76,0.33,1.13
		C43.24,58.7,42.53,58.7,41.81,58.69z"/>
	<path class="st43" d="M52.42,64.21c0.52,0.39,0.79,0.96,1.16,1.46c-0.05,0.81-0.71,0.88-1.27,0.98c-0.9,0.16-1.82,0.14-2.72,0.02
		c-1.06-0.13-2.09-0.47-3.18-0.32c-0.35,0.05-0.6-0.15-0.77-0.45c0-0.56,0.01-1.13,0.01-1.69c0.3-0.63,0.83-0.85,1.47-0.74
		c1.03,0.18,2.04,0.14,3.08,0.02C51.02,63.4,51.75,63.76,52.42,64.21z"/>
	<path class="st44" d="M40.36,60.89c0.48,0,0.96,0,1.43,0c0.26,0.27,0.35,0.61,0.35,0.98c0.02,1.42,0.02,2.85,0,4.27
		c0,0.36-0.06,0.71-0.35,0.98c-0.56,0-1.11-0.01-1.67-0.01c-0.26-0.22-0.34-0.53-0.35-0.85c-0.03-1.42-0.03-2.85,0-4.27
		C39.79,61.53,39.91,61.12,40.36,60.89z"/>
	<path class="st45" d="M45.64,65.91c2.22-0.03,4.4,0.71,6.63,0.44c0.48-0.06,1.05-0.12,1.31-0.68c0.39,0.4,0.63,0.88,0.39,1.4
		c-0.24,0.5-0.78,0.26-1.19,0.27c-2.03,0.02-4.06,0.01-6.08,0.01c-0.44,0-0.88,0.02-1.27-0.22C45.5,66.73,45.57,66.32,45.64,65.91z"
		/>
	<path class="st44" d="M42.53,60.9c0.47,0.01,0.95,0.01,1.42,0.02c0,1.75,0.02,3.49,0,5.24c-0.01,1.21-0.22,1.34-1.45,0.97
		c-0.26-0.23-0.33-0.54-0.33-0.86c-0.03-1.46-0.02-2.93,0-4.39C42.18,61.51,42.27,61.17,42.53,60.9z"/>
	<path class="st46" d="M52.42,64.21c-1.74-0.69-3.59,0.05-5.35-0.41c-0.53-0.14-1.01,0.09-1.43,0.42c-0.01-0.55-0.02-1.11-0.03-1.66
		c0.04-0.04,0.07-0.09,0.07-0.14c1.26,0.34,2.55,0.2,3.8,0.09C50.96,62.38,51.77,63.09,52.42,64.21z"/>
	<path class="st44" d="M38.19,67.12c0-1.73,0.03-3.47,0-5.2c-0.02-0.99,0.64-0.79,1.21-0.79c0.26,0.23,0.34,0.54,0.35,0.86
		c0.03,1.43,0.03,2.85,0,4.28c-0.01,0.32-0.09,0.63-0.35,0.86C39,67.12,38.59,67.12,38.19,67.12z"/>
	<path class="st47" d="M39.4,67.12c0-2,0-3.99,0-5.99c0-0.08,0-0.16,0-0.23c0.32,0,0.64,0,0.96,0c-0.48,1.38-0.14,2.81-0.23,4.21
		c-0.04,0.67-0.01,1.34,0,2.01C39.89,67.42,39.64,67.43,39.4,67.12z"/>
	<path class="st48" d="M42.53,60.9c-0.01,2.07-0.02,4.15-0.02,6.22c-0.24,0.07-0.47,0.37-0.71,0c0-2.08,0-4.15-0.01-6.23
		C42.04,60.9,42.29,60.9,42.53,60.9z"/>
	<path class="st49" d="M51.15,60.16c0,0.31-0.01,0.62-0.01,0.93c-0.28,0.2-0.57,0.31-0.92,0.23C50.37,60.8,50.75,60.47,51.15,60.16z
		"/>
	<path class="st37" d="M52.36,56.57c-0.01-3.75,0.01-7.5-0.02-11.25c-0.02-2.46-0.06-2.46-2.51-2.46c-2.95,0-5.91,0.06-8.86-0.03
		c-1.16-0.03-1.4,0.37-1.37,1.42c0.07,2.35-0.01,4.71,0.04,7.06c0.03,1.13-0.23,2.22-0.24,3.33c-1.63,0-3.27,0-4.9,0
		c-1.58,0-1.58,0-1.58-1.52c0-2.19,0.02-4.38-0.01-6.57c-0.02-1.35-0.11-2.7-0.23-4.04c-0.06-0.65-0.27-1.29-1.18-1.07
		c-0.36-1.38-1.28-1.83-2.63-1.58c-2.24-0.01-4.47,0.11-6.7-0.08c-1.56-0.34-3.14-0.08-4.71-0.17c-0.54-0.03-1.12,0.12-1.56-0.34
		c3.51-4.17,6.98-8.37,10.76-12.29c0.36-0.37,0.51-0.92,1.03-1.13c0.37,0.42,0.21,0.91,0.13,1.36c-0.36,1.89-0.33,3.78-0.12,5.68
		c0.5,1.52,0.51,1.44,2.04,1.33c2.26-0.17,4.54-0.04,6.8-0.06c0.44,0,0.88,0,1.31-0.01c0.8-0.01,1.3-0.32,1.24-1.21
		c0.55-2.22,0.1-4.43-0.1-6.64c-0.12-1.32-0.48-2.57-1.01-3.79c-0.2-0.46-0.48-0.94-0.23-1.48c2.12,1.06,3.6,2.86,5.11,4.58
		c1.37,1.57,2.86,3.01,4.32,4.49c1.31,1.34,2.57,2.72,3.75,4.19c1.46,1.83,3.37,2.48,5.64,1.84c0.74-0.21,0.92,0.02,0.88,0.71
		c-0.33,6.39-0.23,12.78-0.24,19.17c0,0.54-0.17,0.83-0.75,0.8C55.06,56.73,53.69,56.97,52.36,56.57z"/>
	<path class="st50" d="M37.72,21.02c1.73,3.4,1.92,7.07,1.89,10.78c0,0.48,0.02,0.97-0.44,1.29c-0.35,0.57-0.93,0.55-1.48,0.56
		c-2.74,0.02-5.48,0.01-8.22,0.01c-0.74,0-1.41-0.21-2.05-0.53c-0.38-2.12-0.27-4.23,0.11-6.33c0.06-0.31,0.09-0.63,0.14-0.95
		c0.6-1.94,1.18-3.88,2.19-5.66c0.27-0.48,0.55-0.98,0.91-1.4c2.07-2.36,4.25-2.17,5.93,0.48C37.05,19.84,37.38,20.44,37.72,21.02z"
		/>
	<path class="st51" d="M15.88,56.34c-1.09,0.03-0.91-0.79-0.97-1.45c-0.01-4.81-0.02-9.61-0.02-14.42c0.01-0.07,0.01-0.14,0-0.21
		c0.06-0.03,0.12-0.05,0.19-0.08c0.81,0.1,0.87,0.71,0.88,1.33c0.03,1.51,0.01,3.03,0.01,4.54c0,0.73,0.22,1.19,1.07,0.93
		c0.27-0.07,0.54-0.09,0.81-0.12c0.75-0.03,1.51,0,2.26,0c0.45-0.01,0.9-0.01,1.33,0.15c0.37,0.91,0.34,1.17-0.2,1.56
		c-0.81-0.05-1.63-0.09-2.45-0.07c-0.19,0-0.39,0-0.58,0c-0.58,0.02-1.16-0.02-1.73-0.02c-0.49,0.05-0.52,0.4-0.52,0.78
		c0,1.7,0.01,3.41-0.01,5.11c-0.01,0.66,0.28,0.93,0.93,0.91c0.91-0.02,1.82-0.06,2.67,0.39c0.39,0.21,0.66-0.12,0.89-0.41
		c0.31-0.18,0.62-0.17,0.94-0.01c0.41,0.47,0.96,0.48,1.52,0.48c1.86,0,3.72-0.02,5.58,0.01c0.88,0.01,1.66-0.05,2.08-0.99
		c0.11-0.25,0.34-0.44,0.67-0.35c0,0.32,0,0.64,0,0.96c-0.3,0.45-0.33,1.15-1.1,1.16c-1.03-0.14-2.06-0.06-3.09-0.04
		C23.32,56.58,19.6,56.45,15.88,56.34z"/>
	<path class="st51" d="M22.16,39.5c2.31,0,4.62,0.01,6.93,0.01c-0.33,0.93-1.14,1.01-1.93,1.04c-1.76,0.07-3.51,0.09-5.2-0.52
		c-0.27-0.1-0.48-0.19-0.4,0.25c0.01,0.04-0.12,0.12-0.19,0.13c-1.84,0.26-3.66,0.23-5.47-0.17c0.57-0.55,1.22-0.25,1.66-0.36
		c-0.79-0.08-1.72-0.02-2.62,0.34l-0.04,0.03c-0.31-0.26-0.32-0.51,0.02-0.75C17.33,39.33,19.74,39.34,22.16,39.5z"/>
	<path class="st52" d="M22.16,39.5c-2.41,0-4.83,0-7.24,0.01c0.26-0.33,0.64-0.16,0.96-0.24c1.67,0.01,3.35,0.01,5.02,0.02
		C21.32,39.3,21.78,39.18,22.16,39.5z"/>
	<path class="st53" d="M52.46,16.72c-0.77-0.57-1.53-1.13-2.3-1.7c0.41-0.11,0.81-0.09,1.22,0.01c0.41,0.23,1,0.26,1.08,0.89
		C52.47,16.19,52.47,16.45,52.46,16.72z"/>
	<path class="st54" d="M52.47,15.92c-0.36-0.3-0.72-0.6-1.08-0.89C52.06,14.95,52.77,14.82,52.47,15.92z"/>
	<path class="st52" d="M14.93,40.23c0.04-0.43,0.34-0.47,0.69-0.47c0.95,0,1.9,0,2.86,0.22c-0.78,0-1.56,0-2.34,0
		c0,0.07,0,0.13,0,0.2c1.73,0,3.47,0,5.22,0c-0.04-0.4-0.61,0.03-0.65-0.38c1.94-0.33,3.76,0.73,5.72,0.48
		c0.95-0.12,1.88-0.12,2.66-0.76c2.28-0.09,2.28-0.09,2.4,1.92c-0.09,4.32,0.07,8.64-0.24,12.96c-0.07,0.04-0.18,0.07-0.2,0.12
		c-0.41,1.74-1.73,1.61-3.08,1.57c-2-0.05-4-0.02-5.99-0.01c-0.49,0-0.96,0-0.58-0.7c-0.23-1.17-0.05-2.35-0.11-3.52
		c0.02-0.27,0.02-0.55,0.01-0.82c0.07-0.87-0.16-1.75,0.07-2.62c0.06-0.09,0.12-0.18,0.17-0.27c-0.77-0.39-0.26-0.69,0.07-1.01
		c-0.37-0.42-0.31-0.94-0.32-1.44c0-1.25-0.03-2.51-0.01-3.76c0.03-0.59,0.16-1.25-0.82-1.1c-0.99,0-1.97,0.02-2.96-0.01
		c-0.74-0.04-1.42-0.01-1.3,1.04c0.01,1,0.03,2,0.02,3c0,0.25-0.03,0.49-0.03,0.74c-0.06,0.66-0.11,1.32,0.78,1.49
		c0.03,0.04,0.07,0.08,0.1,0.13c-1.26,0.43-1.44,0.33-1.45-0.86c-0.01-1.63-0.03-3.27,0.01-4.9C15.66,40.85,15.51,40.44,14.93,40.23
		z"/>
	<path class="st1" d="M15.88,56.34c4.87-0.01,9.73-0.02,14.6-0.03c0.01,0.66-0.4,0.29-0.67,0.27c-0.89,0-1.77,0-2.66,0
		c-1.35,0.17-2.7,0.15-4.06,0.01c-0.49,0-0.97,0-1.46,0c-1.54-0.01-3.09-0.02-4.63-0.05C16.63,56.53,16.21,56.66,15.88,56.34z"/>
	<path class="st38" d="M29.81,56.57c0.24-0.04,0.53,0.04,0.67-0.27c0.27-0.3,0.3-0.79,0.76-0.94c-0.14,0.95,0.71,0.93,1.29,1.23
		C31.58,56.78,30.69,57,29.81,56.57z"/>
	<path class="st38" d="M23.1,56.59c1.35,0,2.7-0.01,4.06-0.01C25.8,56.95,24.45,56.93,23.1,56.59z"/>
	<path class="st55" d="M49,52.45c0.23,0.11,0.46,0.22,0.68,0.34c0.01,0.28,0.07,0.56,0.03,0.83c-0.08,0.48-0.4,0.77-0.89,0.82
		c-0.38,0.04-0.74-0.04-0.92-0.41c-0.24-0.49,0.07-0.84,0.39-1.14C48.49,52.7,48.76,52.59,49,52.45z"/>
	<path class="st56" d="M27.42,33.13c3.37,0.21,6.74,0.08,10.1,0.12c0.55,0.01,1.11,0.04,1.65-0.16c0.48,0.69,0.14,1.33-0.84,1.38
		c-1.07,0.06-2.15,0.02-3.23,0.02c-1.59,0-3.19-0.01-4.78,0.01c-0.48,0.01-1.06-0.22-1.32,0.48c-0.08,0.21-0.41,0.27-0.48,0.08
		C28.27,34.34,27.23,34.08,27.42,33.13z"/>
	<path class="st57" d="M34.11,25.71c-0.05-2.15-0.1-4.29-0.14-6.44c0-0.19-0.08-0.42,0.14-0.53s0.37,0.07,0.53,0.18
		c0.47,0.32,0.79,0.79,1.07,1.27c1.95,3.27,2.78,6.82,2.65,10.61c-0.12,0.05-0.25,0.05-0.33-0.04
		C36.65,29.12,35.13,27.61,34.11,25.71z"/>
	<path class="st58" d="M34.11,25.71c1.42,1.69,2.83,3.39,4.25,5.08c0.3,1.57-0.8,1.06-1.57,1.05c-1.15-0.87-2.05-1.94-2.68-3.24
		C34,27.64,34.01,26.67,34.11,25.71z"/>
	<path class="st59" d="M32.7,26.83c0.05,1.07,0.43,2.11,0.19,3.2c-1.66-0.9-2.58-2.46-3.54-3.98c0.11-0.92,0.38-1.78,0.75-2.62
		C31.36,24.26,32.28,25.36,32.7,26.83z"/>
	<path class="st60" d="M32.66,31.85c-0.55,0.02-1.1,0.04-1.65,0.05c-2.39,0.01-2.68-0.31-2.31-2.72c0.08-0.53,0.04-1.11,0.38-1.59
		c1.29,0.46,1.77,1.74,2.61,2.64C32.09,30.68,32.79,31.04,32.66,31.85z"/>
	<path class="st61" d="M32.66,31.85c-1.2-1.42-2.39-2.84-3.59-4.27c-0.06-0.54,0.06-1.05,0.27-1.54c1.18,1.32,2.36,2.65,3.54,3.98
		C32.83,30.64,33.27,31.31,32.66,31.85z"/>
	<path class="st61" d="M32.7,26.83c-0.87-1.13-1.73-2.27-2.6-3.4c0.24-0.57,0.47-1.15,0.71-1.72c1.17,0.33,1.58,1.36,2.08,2.3
		C32.87,24.95,33.18,25.91,32.7,26.83z"/>
	<path class="st62" d="M32.88,24c-0.69-0.77-1.38-1.53-2.08-2.3c0.43-1.12,0.93-2.18,2.08-3.02C32.88,20.55,32.88,22.28,32.88,24z"
		/>
	<path class="st63" d="M34.12,28.6c0.99,1,1.86,2.1,2.67,3.24c-2.81,0.2-2.81,0.2-2.74-2.53C34.06,29.07,34.1,28.84,34.12,28.6z"/>
	<path class="st64" d="M21.62,51.83c-0.05,1.18,0.33,2.39-0.22,3.54c-0.32,0-0.64,0-0.96,0c-0.66,0.61-1.37,0.09-2.06,0.08
		c-0.82-0.01-1.88,0.38-2.41-0.17c-0.57-0.58-0.17-1.66-0.2-2.52c-0.04-1.31-0.02-2.63-0.01-3.94c0-0.38-0.1-0.88,0.59-0.7
		c0.62,0.04,1.24,0.09,1.86,0.13C19.52,49.29,20.78,50.36,21.62,51.83z"/>
	<path class="st65" d="M15.88,41.69c-0.15-1.3-0.15-1.3,1.49-1.16c0.93,0.41,1.45,1.23,2.02,1.99c0.78,1.05,1.77,1.95,2.23,3.22
		c0,0.46,0,0.93-0.01,1.39c-0.47-0.02-0.94-0.03-1.41-0.05c-0.2-0.01-0.4-0.08-0.52-0.24C18.41,45.12,16.96,43.54,15.88,41.69z"/>
	<path class="st59" d="M15.88,41.69c1.66,1.63,2.88,3.6,4.33,5.4c-0.81,0.14-1.62,0.11-2.43,0.04c-1.01-0.36-1.35-1.33-1.91-2.09
		C15.87,43.92,15.87,42.8,15.88,41.69z"/>
	<path class="st66" d="M21.37,48.41c0.56,0.84,0.21,1.77,0.24,2.66c-1.26-0.59-2.21-1.5-2.78-2.79
		C19.69,48.22,20.54,48.12,21.37,48.41z"/>
	<path class="st52" d="M16.35,48.13c-0.59,0.04-0.53,0.47-0.53,0.88c0,1.84,0.03,3.68-0.01,5.52c-0.02,0.71,0.26,0.88,0.91,0.86
		c1.24-0.04,2.48-0.01,3.71-0.01c0.28,0.81-0.34,0.86-0.74,0.66c-1.09-0.56-2.23-0.43-3.36-0.44c-0.62,0-0.71-0.35-0.71-0.85
		c0.01-2.03,0-4.06,0.01-6.08C15.64,48.2,15.66,47.72,16.35,48.13z"/>
	<path class="st67" d="M18.84,48.28c0.93,0.93,1.85,1.86,2.78,2.79c0,0.25,0,0.51,0,0.76c-1.2-1.12-2.4-2.25-3.4-3.57
		C18.43,48.27,18.63,48.27,18.84,48.28z"/>
	<path class="st68" d="M15.86,45.03c0.82,0.53,1.28,1.4,1.91,2.09c-0.23,0.03-0.46,0.06-0.69,0.08l-0.02-0.08
		c-0.74-0.17-0.97-0.78-1.2-1.39C15.87,45.51,15.86,45.27,15.86,45.03z"/>
	<path class="st64" d="M23.08,41.6c-0.18-0.77-0.01-1.2,0.92-1.13c1.55,0.11,3.11-0.09,4.66,0.12c0.71,0.1,1.01,0.42,0.99,1.17
		c-0.05,1.43-0.06,2.87,0,4.31c0.04,0.84-0.24,1.17-1.08,1.07c-0.55-0.06-1.11-0.06-1.67-0.09C25.26,45.49,24.07,43.61,23.08,41.6z"
		/>
	<path class="st69" d="M29.15,54.63c0.07,0.27,0.52,0.7-0.23,0.67c-0.77-0.04-1.56,0.18-2.3-0.19c-1.36-1.28-2.7-2.59-3.51-4.32
		c-0.02-0.62-0.03-1.23-0.06-1.85c-0.03-0.51,0.16-0.73,0.68-0.56c0.91,0.5,1.38,1.41,2.01,2.16C26.87,51.9,28.13,53.17,29.15,54.63
		z"/>
	<path class="st59" d="M29.15,54.63c-1.3-0.88-2.12-2.21-3.13-3.37c-0.81-0.93-1.53-1.92-2.29-2.89c0.81,0,1.61-0.01,2.42-0.01
		c1.44,1.35,2.56,2.94,3.42,4.72C29.52,53.63,29.98,54.31,29.15,54.63z"/>
	<path class="st70" d="M21.62,45.74c-1.42-1.74-2.83-3.48-4.25-5.22c1.11,0,2.22,0,3.32,0c0.62,0.17,0.71,0.75,0.94,1.23
		C21.63,43.09,21.62,44.41,21.62,45.74z"/>
	<path class="st71" d="M23.08,41.6c1.28,1.82,2.55,3.63,3.83,5.45c-0.24,0.01-0.48,0.03-0.72,0.04c-1.55,0.26-1.99-1-2.66-1.94
		c-0.24-0.33-0.25-0.75-0.44-1.1C23.08,43.24,23.08,42.42,23.08,41.6z"/>
	<path class="st58" d="M29.57,53.09c-1.14-1.57-2.28-3.14-3.42-4.72c0.58-0.11,1.16-0.09,1.75,0.01c0.84,0.56,1.35,1.36,1.67,2.3
		C29.67,51.48,29.68,52.28,29.57,53.09z"/>
	<path class="st72" d="M23.1,50.79c1.16,1.45,2.52,2.73,3.51,4.32c-0.27,0-0.54,0.01-0.81,0.02c-1.39-0.26-2-1.4-2.71-2.42
		C23.1,52.06,23.1,51.43,23.1,50.79z"/>
	<path class="st73" d="M23.09,44.06c0.5,0.7,1.06,1.37,1.49,2.12c0.38,0.66,0.9,0.92,1.61,0.92c-0.04,0.01-0.08,0.04-0.12,0.04
		C22.43,47.04,23.06,47.93,23.09,44.06z"/>
	<path class="st74" d="M29.56,50.68c-0.56-0.77-1.11-1.53-1.67-2.3C29.77,48.25,29.77,48.25,29.56,50.68z"/>
	<path class="st75" d="M24.7,55.17c-1.73,0.27-1.73,0.27-1.61-1.74C23.98,53.68,24.67,54.12,24.7,55.17z"/>
	<path class="st76" d="M24.7,55.17c-0.34-0.76-1.04-1.19-1.61-1.74c0-0.24,0-0.49,0.01-0.73c0.99,0.71,1.63,1.82,2.71,2.42
		C25.45,55.41,25.08,55.37,24.7,55.17z"/>
	<path class="st77" d="M15.87,45.74c0.4,0.46,0.8,0.93,1.2,1.39C15.68,47.52,15.73,46.67,15.87,45.74z"/>
	<path class="st78" d="M21.63,41.76c-0.31-0.41-0.63-0.82-0.94-1.23C21.95,40.22,21.7,41.06,21.63,41.76z"/>
</g>
</svg>
