<?xml version="1.0" encoding="utf-8"?>
<!-- Generator: Adobe Illustrator 23.0.2, SVG Export Plug-In . SVG Version: 6.00 Build 0)  -->
<svg version="1.1" id="Camada_1" xmlns="http://www.w3.org/2000/svg" xmlns:xlink="http://www.w3.org/1999/xlink" x="0px" y="0px"
	 viewBox="0 0 69.15 70.42" style="enable-background:new 0 0 69.15 70.42;" xml:space="preserve">
<style type="text/css">
	.st0{fill:#FEFEFE;}
	.st1{fill:#324D34;}
	.st2{fill:#886E5D;}
	.st3{fill:#896F5E;}
	.st4{fill:#5C8658;}
	.st5{fill:#5D8759;}
	.st6{fill:#869D2A;}
	.st7{fill:#5E885A;}
	.st8{fill:#988970;}
	.st9{fill:#3B7950;}
	.st10{fill:#4A372B;}
	.st11{fill:#79C465;}
	.st12{fill:#6FA955;}
	.st13{fill:#6FA855;}
	.st14{fill:#9DB99A;}
	.st15{fill:#587B60;}
	.st16{fill:#79C565;}
	.st17{fill:#6EA854;}
	.st18{fill:#6FA954;}
	.st19{fill:#587A60;}
	.st20{fill:#70AA54;}
	.st21{fill:#2D4F87;}
	.st22{fill:#597B60;}
	.st23{fill:#6EA755;}
	.st24{fill:#587B61;}
	.st25{fill:#95D789;}
	.st26{fill:#99B596;}
	.st27{fill:#597C60;}
	.st28{fill:#96D989;}
	.st29{fill:#577B5E;}
	.st30{fill:#81B576;}
	.st31{fill:#4DEDE6;}
	.st32{fill:#5B7F61;}
	.st33{fill:#70AA56;}
	.st34{fill:#70A957;}
	.st35{fill:#597C62;}
	.st36{fill:#AB866D;}
	.st37{fill:#D0A381;}
	.st38{fill:#9E8973;}
	.st39{fill:#78C464;}
	.st40{fill:#BCAFA5;}
	.st41{fill:#B6B276;}
	.st42{fill:#94D788;}
	.st43{fill:#AC876E;}
	.st44{fill:#398354;}
	.st45{fill:#78C765;}
	.st46{fill:#6F9A65;}
	.st47{fill:#648C65;}
	.st48{fill:#6D9C6A;}
	.st49{fill:#567A58;}
	.st50{fill:#618664;}
	.st51{fill:#D4A595;}
	.st52{fill:#2B4C85;}
	.st53{fill:#2C4983;}
	.st54{fill:#EAF5F5;}
	.st55{fill:#7AC467;}
	.st56{fill:#8CB58D;}
	.st57{fill:#B0FC58;}
	.st58{fill:#E3E2E2;}
	.st59{fill:#49EEE7;}
	.st60{fill:#49EFE7;}
	.st61{fill:#FDFEFE;}
	.st62{fill:#47EFE7;}
	.st63{fill:#48F0E7;}
	.st64{fill:#48EFE7;}
	.st65{fill:#FBFEFE;}
	.st66{fill:#FAFCFC;}
	.st67{fill:#46F0E7;}
	.st68{fill:#48F4EA;}
	.st69{fill:#47EFE8;}
	.st70{fill:#E8F8F5;}
	.st71{fill:#4DF5EA;}
	.st72{fill:#E4FBF8;}
	.st73{fill:#F1F8F9;}
	.st74{fill:#FBFDFD;}
	.st75{fill:#48EEE6;}
	.st76{fill:#49F0E8;}
	.st77{fill:#49EDE6;}
	.st78{fill:#EAFCF8;}
</style>
<g>
	<path class="st0" d="M50.7,70.15c-4.72,0-9.45-0.19-14.16,0.04c-9.47,0.45-18.94,0.06-28.41,0.22c-1.39,0.02-2.75-0.24-4.17-0.08
		c-1.49,0.17-2.68-1.17-2.76-3.15c-0.12-2.79-0.18-5.59,0.06-8.39c0.03-0.31,0.07-0.64,0.03-0.95c-0.27-1.95,0.65-3.3,2.59-3.57
		c0.79-0.11,1.03-0.35,1.01-1.17c-0.09-3.68-0.19-7.35-0.1-11.03c0.05-2.15-0.07-4.3-0.02-6.44c0.01-0.61-0.14-0.88-0.78-0.81
		c-0.39,0.04-0.8,0.03-1.2,0c-1.47-0.12-2.36-0.86-2.64-2.31c-0.36-1.88-0.14-3.54,1.39-5.01C6.79,22.47,12,17.39,17.09,12.19
		c2.51-2.56,5.17-4.99,7.47-7.76c0.87-1.05,2.18-1.1,3.42-1.11c3.27-0.03,6.55-0.01,9.82,0c0.88,0,1.79,0.04,2.54,0.55
		c0.68,0.46,1.14,0.22,1.7-0.19c1.39-1.01,2.67-2.16,4.17-3.02c1.8-1.03,2.96-0.85,4.5,0.53C53.32,3.53,56,5.8,58.65,8.1
		c1.23,1.07,2.46,2.14,3.69,3.22c0.75,0.66,1.15,1.48,1.33,2.47c0.43,2.34-0.61,3.74-2.97,3.86c-1.74,0.09-1.58,0.11-1.81,1.76
		c-0.27,1.93,0.68,3.09,2,4.12c1.84,1.43,3.3,3.24,4.99,4.83c1.23,1.16,1.07,2.71,0.57,4.15c-0.52,1.49-1.91,1.79-3.24,1.76
		c-1.22-0.03-1.53,0.28-1.58,1.54c-0.23,5.84-0.04,11.67-0.15,17.51c-0.01,0.62,0.15,0.86,0.8,0.82c0.88-0.06,1.76-0.03,2.64-0.04
		c2.55-0.01,3.48,1.17,3.89,3.66c0.42,2.57,0.61,5.23-0.28,7.81c-0.13,0.37-0.12,0.79-0.13,1.18c-0.04,2.13-1.41,3.45-3.58,3.45
		c-4.71,0-9.41,0-14.12,0C50.7,70.18,50.7,70.17,50.7,70.15z"/>
	<path d="M6.08,33.65c-1.11,0-2.1,0.01-3.1,0c-1.12-0.01-1.67-0.63-1.76-1.7c-0.11-1.44,0.15-2.63,1.32-3.75
		c4.97-4.75,9.89-9.56,14.71-14.47c2.76-2.82,5.68-5.48,8.22-8.52c0.66-0.79,1.68-0.68,2.58-0.69c2.87-0.03,5.75,0.01,8.63-0.02
		c1.41-0.01,2.8-0.01,4.01,0.86c0.42,0.3,0.69,0.14,1.06-0.08c1.86-1.1,3.37-2.69,5.28-3.71c1.01-0.54,1.81-0.52,2.76,0.36
		c2.6,2.41,5.34,4.67,8.02,7c1.32,1.15,2.62,2.33,3.94,3.48c0.78,0.68,0.85,1.61,0.86,2.52c0.01,0.88-0.56,1.4-1.43,1.46
		c-0.84,0.06-1.68,0.07-2.52,0.03c-0.64-0.03-0.97,0.12-0.9,0.85c0.05,0.59,0.1,1.22-0.02,1.8c-0.49,2.39,0.58,4.03,2.4,5.39
		c1.8,1.35,3.13,3.19,4.83,4.65c0.91,0.78,0.68,1.83,0.48,2.8c-0.2,0.95-1.07,1.12-1.87,1.2c-0.79,0.08-1.6,0.05-2.4,0.03
		c-0.51-0.02-0.67,0.15-0.69,0.68c-0.26,6.91-0.11,13.83-0.2,20.75c-0.01,0.65,0.21,0.82,0.82,0.8c1.28-0.05,2.56-0.05,3.84-0.03
		c1.62,0.02,2.57,0.88,2.74,2.5c0.2,1.83,0.33,3.68,0.13,5.49c-0.16,1.44-0.53,2.86-0.72,4.32c-0.14,1.1-1.29,1.38-2.36,1.37
		c-9.47-0.01-18.94-0.26-28.39,0.03c-9.39,0.29-18.77,0.03-28.16,0.2C6.78,69.24,5.41,68.84,4,69.16c-0.71,0.16-1.15-0.45-1.4-1.08
		C2.39,67.56,2.32,67,2.35,66.43c0.1-2.71-0.19-5.44,0.18-8.15c0.05-0.38-0.16-0.78-0.15-1.17c0.02-1.05,0.92-1.74,2.43-1.71
		c1.01,0.02,1.33-0.22,1.3-1.33C5.98,50.05,5.86,46,6.01,41.97C6.11,39.23,5.71,36.49,6.08,33.65z"/>
	<path class="st1" d="M7.19,34.38c0-0.24-0.03-0.48,0-0.72c0.12-0.92-0.24-1.3-1.2-1.22c-0.91,0.08-1.84,0.02-2.76,0.02
		c-0.35,0-0.82,0.06-0.82-0.45c-0.01-1-0.22-1.97,0.71-2.86c3.04-2.9,5.87-6.02,8.96-8.85c2.3-2.1,4.68-4.13,6.75-6.45
		c2.37-2.65,5.05-5,7.35-7.71c0.49-0.58,1.23-0.55,1.87-0.56c3.02-0.04,6.04-0.01,9.06-0.01c1.1,0,2.13,0.15,2.97,0.96
		c0.55,0.53,1.02,0.49,1.77,0.04c1.65-0.99,3.11-2.22,4.68-3.31c1.44-1.01,1.74-0.81,3.08,0.17c2.58,1.89,4.79,4.2,7.23,6.24
		c1.36,1.14,2.86,2.15,4,3.56c0.4,0.49,0.73,1.05,0.48,1.64c-0.26,0.6-0.92,0.27-1.4,0.31c-0.95,0.08-1.92-0.14-2.86,0.18
		c-0.56-0.59-1-1.36-1.94-1.43c-1.69-1.21-3.02-2.84-4.74-4.01c-0.1-0.07-0.18-0.16-0.28-0.23c-1.92-1.54-3.26-1.21-4.33,1.03
		c-0.16,0.35-0.12,0.61,0.12,0.87c0.32,0.36,0.68,0.67,1,1.03c0.15,0.18,0.26,0.37,0.34,0.59c0.73,1.66,2.19,2.54,3.63,3.46
		c0.41,0.28,0.73,0.66,1.09,0.99c0.57,0.56,1.08,1.19,1.77,1.64c0.62,0.42,1.09,1,1.61,1.53c0.59,0.48,0.74,0.19,0.73-0.41
		c0-1.23-0.04-2.47,0.02-3.7c0.02-0.4-0.16-1,0.57-1.05c-0.01,2.04,0.01,4.08-0.05,6.11c-0.02,0.67,0.21,1.13,0.67,1.57
		c2.17,2.06,4.31,4.15,6.47,6.22c0.5,0.48,0.98,0.92,0.65,1.75c-0.33,0.85-1.02,0.61-1.62,0.63c-0.84,0.03-1.68,0.02-2.52,0.01
		c-0.42-0.01-0.8,0.03-1,0.48c-0.6,0.55-1.16,0.34-1.72-0.08c-1.51-0.21-3.03-0.09-4.54-0.08c-1.04,0.01-1.78-0.33-2.47-1.16
		c-1.42-1.72-3.07-3.24-4.56-4.91c-3.45-3.87-6.99-7.66-10.43-11.54c-1.27-1.43-3-1.61-4.33-0.17c-1.68,1.81-3.28,3.7-4.97,5.5
		C22.77,23.7,19.51,27.58,16,31.23c-1.21,1.26-2.39,1.64-3.99,1.54c-1.19-0.08-2.39-0.04-3.59,0.01c-0.53,0-0.62,0.39-0.71,0.8
		C7.63,33.9,7.71,34.34,7.19,34.38z"/>
	<path class="st2" d="M38.36,67.68c-6.25,0.55-12.52,0.3-18.77,0.32c-5.03,0.02-10.06-0.08-15.09-0.06c-0.76,0-0.92-0.32-0.92-0.89
		c-0.01-2.76-0.24-5.53,0.15-8.25c0.09-0.66-0.92-1.99,0.75-2.17c0.91-0.09,1.83-0.13,2.74-0.19c0.26-0.55,0.74-0.49,1.22-0.44
		c0.14,0.03,0.28,0.06,0.42,0.09c6.62,0.06,13.25,0.01,19.87,0.02c2.43,0,4.84,0.34,7.27,0.3c0.57,0.15,0.72,0.57,0.71,1.09
		c-0.06,0.35-0.02,0.68,0.16,0.99c0.09,0.29,0.08,0.59,0.02,0.88c-0.08,0.37-0.1,0.74-0.11,1.12c0.04,1.58,0.01,3.16,0.02,4.74
		c0,0.44,0.04,0.87,0.22,1.27C37.06,67.37,38.2,66.97,38.36,67.68z"/>
	<path class="st3" d="M66.64,59.36c0.01,1.19,0.18,2.41,0,3.58c-0.22,1.41-0.66,2.79-0.7,4.25c-0.02,0.47-0.62,0.67-1.12,0.65
		c-3.76-0.18-7.53,0.13-11.28-0.16c-0.29-0.24-0.34-0.58-0.35-0.92c-0.03-0.41-0.01-0.82-0.01-1.23c0.01-0.56-0.02-1.12,0.04-1.67
		c-0.1-1.96-0.08-3.92-0.07-5.87c0-0.52-0.04-1.05,0.26-1.51c0.66-0.53,1.44-0.31,2.18-0.36c0.67-0.05,1.35,0.11,2.02-0.08
		c0.14-0.04,0.28-0.06,0.42-0.08c0.36-0.03,0.7,0.01,0.97,0.29c0.41,0.47,0.96,0.27,1.45,0.27c1.3,0.02,2.6,0.05,3.9-0.03
		c0.96-0.06,1.68,0.12,1.96,1.15C66.53,58.17,66.35,58.81,66.64,59.36z"/>
	<path class="st4" d="M8.38,56.21c-0.4,0.01-0.81-0.01-1.17,0.23c0-5.3-0.09-10.59,0.03-15.89c0.04-2.06-0.29-4.11-0.05-6.17
		c0.32-0.27,0.24-0.64,0.23-0.98c-0.02-0.7,0.26-1.03,0.98-0.91c0.4,0.41,0.44,0.92,0.43,1.44C8.7,40.87,8.72,47.8,8.71,54.74
		C8.7,55.25,8.8,55.79,8.38,56.21z"/>
	<path class="st5" d="M58.97,56.23c-0.31-0.01-0.63-0.02-0.94-0.02c-0.49-0.58-0.36-1.28-0.37-1.95c-0.01-5.26,0-10.53-0.01-15.79
		c0-1.47,0.03-2.95-0.18-4.42c-0.1-0.7-0.18-1.44,0.32-2.07c0.29,0.75,0.93,0.45,1.45,0.47C59.16,40.37,59.06,48.3,58.97,56.23z"/>
	<path class="st6" d="M38.36,67.68c-0.35-0.5-1.53,0.33-1.42-0.89c0.4-0.44,0.95-0.36,1.45-0.37c1.35-0.03,2.71,0,4.06-0.02
		c0.66-0.01,1.06-0.25,1.06-0.98c0-1.59-0.03-3.18,0.25-4.76c0.06-0.34-0.07-0.62-0.37-0.82c-1.69-0.31-3.38-0.05-5.07-0.14
		c-0.57-0.03-1.2,0.12-1.63-0.45c-0.01-0.29-0.02-0.59-0.02-0.88c1.01-0.57,2.17-0.5,3.23-0.47c1.14,0.03,2.29,0.09,3.44,0.14
		c1.42,0.06,2.04,0.65,2.07,2.06c0.04,1.99,0.02,3.97,0,5.96c-0.01,0.65-0.06,1.29-0.79,1.59C42.54,67.79,40.45,67.76,38.36,67.68z"
		/>
	<path class="st7" d="M56.64,15.67c-0.54,0.63-0.21,1.37-0.25,2.05c-0.06,1.31-0.02,2.62-0.02,3.99c-0.67-0.04-1.05-0.44-1.45-0.8
		c-0.22-1.82-0.1-3.66-0.12-5.49c0.08-0.58-0.13-1.22,0.36-1.71c1.05,0.06,1.7,0.58,1.89,1.63C56.92,15.46,56.78,15.57,56.64,15.67z
		"/>
	<path class="st8" d="M44.62,67.65c0.36-0.51,0.48-1.07,0.48-1.69c-0.02-1.99,0-3.98-0.01-5.96c-0.01-1.19-0.46-1.62-1.68-1.63
		c-2.24,0-4.49-0.27-6.73-0.01c-0.3-0.05-0.58-0.11-0.25-0.48c0.79-0.56,1.69-0.31,2.56-0.34c0.43,0,0.85-0.03,1.28,0
		c0.42-0.02,0.84-0.01,1.26,0c0.7-0.02,1.41-0.02,2.11,0c0.44-0.02,0.87-0.02,1.3,0.04c0.69,0.08,0.92,0.54,0.96,1.16
		c0.04,0.64,0.05,1.27,0.01,1.91c0,0.43,0,0.86-0.09,1.28c-0.27,1.2-0.23,2.4-0.04,3.6c0.1,0.4,0.12,0.81,0.1,1.22
		c-0.01,0.35-0.06,0.69-0.35,0.93C45.23,67.66,44.93,67.65,44.62,67.65z"/>
	<path class="st9" d="M45.53,67.66c0.02-0.29,0.03-0.58,0.05-0.88c1.16-0.59,6.79-0.58,7.89,0.02c0.02,0.29,0.03,0.57,0.05,0.86
		C50.86,67.66,48.2,67.66,45.53,67.66z"/>
	<path class="st10" d="M66.64,59.36c-0.65-0.47-0.36-1.14-0.36-1.75C66.9,58.09,66.61,58.76,66.64,59.36z"/>
	<path class="st11" d="M57.8,31.97c0.46,8.07,0.15,16.15,0.23,24.23c0,0-0.11,0.01-0.11,0.01l-0.11,0
		c-1.13,0.13-1.26,0.04-1.28-1.18c-0.03-3.35-0.03-6.71,0-10.06c0.02-2.47-0.13-4.94,0.2-7.41c0.19-1.41,0.01-1.57-1.35-1.43
		c-2.29,0.23-4.04-0.62-5.39-2.43c-0.81-1.09-1.73-2.09-2.71-3.04c-2.41-2.33-4.71-4.76-6.89-7.31c-0.86-1.01-2.05-1.64-3.05-2.48
		c-0.82-0.58-1.02-1.59-1.61-2.34c-1.42-1.79-3.49-1.89-4.96-0.13c-1.33,1.59-2.04,3.5-2.65,5.44c-0.18,0.57-0.22,1.18-0.58,1.69
		c-4.15,4.33-7.91,9-11.91,13.47c-0.79,0.1-1.01,0.66-1.06,1.35c-1.44,1.66-2.79,3.39-4.33,4.97c-0.92,0.94-1.39,1.96-1.32,3.32
		c0.09,2.03,0.02,4.07,0.02,6.03c1.85-0.54,3.74-0.51,5.64-0.45c0.41,0.58,0.51,1.29,0.82,1.91c-0.06,0.14-0.17,0.21-0.33,0.2
		c-2.21-0.05-4.41,0.11-6.61-0.08c0,0-0.07-0.03-0.07-0.03c0-7.08,0-14.16,0-21.24c0-0.83,0.01-1.66,0.02-2.48
		c1.36-0.01,2.72-0.09,4.07-0.02c1.2,0.07,2.04-0.16,2.99-1.13c2.32-2.36,4.47-4.88,6.71-7.31c3.01-3.25,5.94-6.58,8.93-9.85
		c1.29-1.41,3.36-1.22,4.61,0.21c2.54,2.92,5.16,5.78,7.77,8.64c2.53,2.78,5.09,5.52,7.61,8.31c0.44,0.49,0.9,0.7,1.56,0.68
		C54.37,31.97,56.08,31.98,57.8,31.97z"/>
	<path class="st12" d="M42.48,10.34c0.7,0.58,1.37,1.21,1.91,1.94c-0.19,0.23-0.46,0.33-0.74,0.34c-2.42,0.08-4.84,0.12-7.26-0.03
		c-0.38-0.02-0.79-0.1-1.13-0.32c-1.45-0.49-2.89-0.24-4.33,0.01c-0.31,0.19-0.63,0.35-0.99,0.35c-2.13-0.01-4.26,0.18-6.38-0.1
		c-0.39-0.14-0.47-0.43-0.23-0.74c0.68-0.87,1.36-1.77,2.62-1.8c4.93-0.02,9.87,0,14.8-0.01C41.35,9.98,41.93,10.06,42.48,10.34z"/>
	<path class="st13" d="M48.42,26.23c-1.01-0.84-1.85-1.83-2.63-2.89c0.45-0.45,1.03-0.36,1.57-0.37c2.15-0.07,4.29,0.09,6.44,0.01
		c0.59-0.02,1.22-0.04,1.57,0.61c0.92,0.76,1.99,1.36,2.68,2.38c-0.09,0.61-0.6,0.59-1,0.6c-2.5,0.07-5.01,0.05-7.51,0.02
		C49.15,26.57,48.79,26.39,48.42,26.23z"/>
	<path class="st14" d="M25.63,10.09c-0.9,0.63-1.74,1.31-2.41,2.19c-0.14,0.72-0.86,0.89-1.28,1.35c-0.58,0.54-1.12,1.1-1.67,1.66
		c-0.42,0.41-0.83,0.82-1.24,1.24c-0.8,0.68-1.37,1.58-2.09,2.33c-0.5,0.48-0.99,0.97-1.47,1.46c-0.49,0.47-0.97,0.96-1.45,1.45
		c-0.5,0.48-0.99,0.97-1.46,1.47c-1.02,1.01-2.03,2.03-3.05,3.05c-0.42,0.41-0.86,0.81-1.23,1.27c-0.43,0.84-1.4,1.26-1.69,2.2
		c1.7,0.35,3.41,0.08,5.11,0.16c0.6,0.03,1.2-0.04,1.8,0.04c0.35,0.05,0.86-0.05,0.88,0.55c-0.21,0.24-0.49,0.24-0.77,0.24
		c-3.2,0-6.39,0-9.59,0C3.93,30.34,4.29,30.2,4.5,30c7.38-7.43,14.86-14.77,22.12-22.33c0.4-0.41,0.77-0.83,1.43-0.65
		c0.05,0.06,0.08,0.12,0.08,0.18c0,0.07-0.01,0.1-0.02,0.1c-0.37,0.57-0.58,1.25-1.1,1.73C26.55,9.4,26.27,9.98,25.63,10.09z"/>
	<path class="st12" d="M9.31,26.21c0.93-1.15,2.02-2.16,3.1-3.15c2.41-0.21,4.82-0.09,7.23-0.06c0.4,0,0.91-0.01,1,0.6
		c-0.81,0.88-1.61,1.75-2.42,2.63c-0.35,0.19-0.72,0.35-1.13,0.36c-2.27,0.03-4.54,0.04-6.81-0.01C9.93,26.56,9.57,26.5,9.31,26.21z
		"/>
	<path class="st15" d="M25.63,10.09c0.4-0.39,0.8-0.78,1.2-1.18c0.57-0.34,1.2-0.38,1.85-0.38c3.51,0,7.01,0,10.52,0
		c0.65,0,1.27,0.04,1.85,0.38c0.56,0.39,1.02,0.89,1.44,1.42c-5.33,0.01-10.66,0.01-15.99,0.02C26.18,10.36,25.85,10.41,25.63,10.09
		z"/>
	<path class="st16" d="M55.17,13.73c0,0.56,0.01,1.12,0.01,1.68c-0.84,0.11-1.23-0.62-1.83-0.97c-0.31-0.3-0.71-0.49-1.02-0.79
		c-0.83-1.03-1.95-1.72-2.92-2.58c-0.47-0.42-0.73-0.39-1.12,0.12c-0.44,0.58-0.71,1.35-1.52,1.57c-1.91-1.63-1.91-1.63-0.2-3.45
		c0.25-0.26,0.51-0.5,0.77-0.75c0.53-0.53,1.02-0.55,1.65-0.07C51.15,10.1,53.21,11.85,55.17,13.73z"/>
	<path class="st17" d="M41.03,8.92c-4.74,0-9.47,0-14.21,0c0.6-0.42,0.43-1.39,1.22-1.67c3.57,0.01,7.13,0,10.7,0.01
		c0.32,0,0.63,0.03,0.91,0.22C40.17,7.9,40.67,8.34,41.03,8.92z"/>
	<path class="st12" d="M16.73,18.74c0.7-0.82,1.29-1.74,2.17-2.4c2.31-0.23,4.62-0.09,6.94-0.08c0.39,0,0.93-0.06,1.01,0.58
		c-0.57,0.7-1.18,1.37-1.89,1.93c-0.5,0.29-1.04,0.38-1.61,0.38c-1.72-0.01-3.44,0.01-5.16-0.01
		C17.66,19.14,17.12,19.18,16.73,18.74z"/>
	<path class="st18" d="M48.7,16.6c0.71,0.57,1.35,1.2,1.92,1.92c0,0.41-0.32,0.42-0.58,0.42c-2.66-0.08-5.33,0-7.99-0.04
		c-0.12,0-0.23-0.06-0.34-0.1c-0.72-0.56-1.32-1.24-1.9-1.93c0.05-0.55,0.51-0.58,0.88-0.59c2.34-0.08,4.68-0.07,7.02-0.01
		C48.06,16.26,48.38,16.43,48.7,16.6z"/>
	<path class="st13" d="M6.23,29.58c0.63-0.72,1.27-1.44,1.9-2.17c2.62-0.29,5.25-0.13,7.87-0.08c0.32,0.01,0.76,0.03,0.76,0.56
		c-0.47,0.64-1.03,1.2-1.64,1.7c-0.4,0.18-0.8,0.34-1.25,0.34c-2.18,0-4.36,0-6.54-0.01C6.93,29.92,6.53,29.9,6.23,29.58z"/>
	<path class="st19" d="M48.42,26.23c2.81-0.01,5.61-0.01,8.42-0.03c0.41,0,0.88,0.16,1.22-0.25c0.6,0.52,1.25,1,1.62,1.73
		c-0.26,0.52-0.76,0.54-1.24,0.55c-2.39,0.04-4.79,0.03-7.18,0.01c-0.5,0-0.93-0.22-1.38-0.34C49.22,27.5,48.88,26.81,48.42,26.23z"
		/>
	<path class="st19" d="M55.38,23.58c-1.42-0.59-2.89-0.12-4.34-0.22c-1.74-0.12-3.5-0.02-5.25-0.02c-0.63-0.49-1.21-1.03-1.64-1.71
		c0.2-0.22,0.47-0.31,0.75-0.31c2.87-0.03,5.73-0.17,8.6,0.08C54.18,22.08,55.11,22.54,55.38,23.58z"/>
	<path class="st19" d="M41.7,18.79c0.46-0.3,0.99-0.25,1.5-0.25c2.47,0,4.94-0.01,7.42-0.02c0.64,0.48,1.2,1.05,1.68,1.69
		c-0.23,0.26-0.54,0.35-0.86,0.35c-2.77,0.01-5.54,0.16-8.3-0.08C42.61,19.96,41.94,19.55,41.7,18.79z"/>
	<path class="st20" d="M49.88,27.9c2.76-0.01,5.52-0.01,8.28-0.02c0.52,0,1.04,0.06,1.52-0.19c0.58,0.38,1.08,0.84,1.5,1.38
		c-0.09,0.61-0.6,0.59-1.01,0.6c-2.58,0.08-5.17,0.05-7.76,0.02c-0.41,0-0.77-0.19-1.14-0.33C50.82,28.88,50.35,28.39,49.88,27.9z"
		/>
	<path class="st15" d="M20.64,23.59c-0.34-0.4-0.8-0.25-1.22-0.25c-1.93-0.02-3.87,0-5.8-0.02c-0.41,0-0.88,0.15-1.21-0.26
		c0.48-0.47,0.96-0.95,1.44-1.42c0.51-0.27,1.04-0.37,1.62-0.37c1.8,0.01,3.6-0.01,5.4,0.01c0.51,0.01,1.05-0.04,1.45,0.4
		C21.81,22.35,21.35,23.08,20.64,23.59z"/>
	<path class="st21" d="M52.52,13.49c0.32,0.24,0.64,0.49,0.96,0.73c0.6,1.76,0.62,3.52,0,5.28c-0.65-0.46-1.19-1.04-1.68-1.66
		c-0.2-0.73,0.19-1.45,0.03-2.18c-0.29-0.99-1.18-0.76-1.88-0.91c-0.22,0.06-0.82-0.18-0.28,0.43c0.45,0.51,1.27,0.81,1.15,1.71
		c-1.5-0.57-2.54-1.73-3.61-2.85c-0.24-0.25-0.23-0.58-0.18-0.9C48.87,13.22,50.73,12.79,52.52,13.49z"/>
	<path class="st22" d="M35.26,12.27c3.04,0,6.09,0.01,9.13,0.01c0.56,0.55,1.12,1.11,1.69,1.66c-0.32,0.38-0.77,0.37-1.2,0.39
		c-2.58,0.08-5.15-0.23-7.72-0.34C36.7,13.22,35.94,12.79,35.26,12.27z"/>
	<path class="st23" d="M43.14,20.48c0.34-0.41,0.8-0.26,1.22-0.26c2.65-0.01,5.29-0.01,7.94-0.01c0.4,0.4,0.8,0.79,1.21,1.19
		c-0.27,0.34-0.65,0.25-0.99,0.25c-2.78,0-5.57-0.01-8.35-0.01C43.81,21.24,43.48,20.86,43.14,20.48z"/>
	<path class="st24" d="M48.7,16.6c-2.56,0-5.11,0-7.67,0.01c-0.42,0-0.89-0.17-1.24,0.24c-0.49-0.56-0.97-1.11-1.46-1.67
		c0.36-0.41,0.86-0.39,1.33-0.4c2.03-0.02,4.06-0.01,6.09-0.01c0.53,0,1.03,0.1,1.49,0.38C47.82,15.55,48.29,16.05,48.7,16.6z"/>
	<path class="st19" d="M16.76,27.89c-0.31-0.37-0.73-0.22-1.11-0.23c-2.14-0.01-4.27,0-6.41-0.02c-0.38,0-0.8,0.14-1.11-0.23
		c0.32-0.47,0.72-0.87,1.18-1.21c2.97,0,5.94,0.01,8.91,0.01C17.73,26.77,17.25,27.33,16.76,27.89z"/>
	<path class="st12" d="M22.32,21.67c-2.82-0.01-5.64-0.03-8.47-0.04c0.42-0.55,0.89-1.04,1.45-1.44c0.47-0.24,0.96-0.37,1.49-0.36
		c1.79,0,3.57-0.03,5.36,0.02c0.5,0.01,1.17-0.15,1.36,0.62C23.11,20.87,22.72,21.27,22.32,21.67z"/>
	<path class="st19" d="M23.51,20.46c-0.34-0.41-0.81-0.24-1.22-0.25c-2.33-0.02-4.66-0.02-6.99-0.03c0.39-0.56,0.89-1.02,1.42-1.45
		c2.74,0.01,5.48,0.03,8.22,0.04C24.46,19.33,24.13,20.02,23.51,20.46z"/>
	<path class="st13" d="M20.1,15.15c0.5-0.62,1.05-1.2,1.71-1.66c2.28-0.27,4.57-0.1,6.86-0.1c0.32,0,0.63,0.09,0.85,0.35
		c-0.18,0.67-0.73,1.02-1.21,1.44c-0.46,0.27-0.96,0.38-1.49,0.38c-1.79,0-3.59,0.01-5.38-0.01C20.96,15.54,20.46,15.55,20.1,15.15z
		"/>
	<path class="st15" d="M20.1,15.15c2.73,0.01,5.47,0.02,8.2,0.03c-0.49,0.56-0.97,1.11-1.46,1.67c-0.31-0.38-0.74-0.23-1.11-0.23
		c-1.87-0.01-3.74,0-5.6-0.01c-0.42,0-0.89,0.15-1.23-0.26C19.3,15.94,19.7,15.55,20.1,15.15z"/>
	<path class="st12" d="M47.25,15.16c-2.97,0.01-5.94,0.02-8.91,0.03c-0.39-0.4-0.79-0.8-1.18-1.2c1.17-0.55,2.43-0.33,3.6-0.19
		c1.78,0.22,3.55,0.1,5.33,0.15C46.52,14.3,46.95,14.66,47.25,15.16z"/>
	<path class="st15" d="M29.51,13.74c-2.16,0-4.31,0-6.47-0.02c-0.42,0-0.89,0.17-1.24-0.24c0.47-0.4,0.94-0.8,1.41-1.2
		c2.57,0,5.14,0,7.71,0C30.56,12.87,30.07,13.34,29.51,13.74z"/>
	<path class="st25" d="M52.52,13.49c-1.38,0-2.77-0.01-4.15,0c-0.48,0-0.95,0.02-1.33-0.34c-0.09-0.13-0.18-0.26-0.27-0.4
		c0.52-0.7,1.03-1.41,1.56-2.1c0.18-0.24,0.38-0.59,0.75-0.24C50.19,11.48,51.63,12.18,52.52,13.49z"/>
	<path class="st26" d="M49.66,7.26c-2.09-1.87-2.28-1.87-4.54,0.03c-0.61,0.2-1.26,0.64-1.7-0.26c1.2-0.92,2.42-1.82,3.58-2.79
		c0.47-0.39,0.75-0.4,1.19,0.01c1.02,0.95,2.09,1.85,3.13,2.77C50.89,7.95,50.25,7.44,49.66,7.26z"/>
	<path class="st27" d="M51.29,29.37c2.89-0.01,5.79-0.02,8.68-0.04c0.41,0,0.88,0.16,1.22-0.25c0.35,0.32,0.69,0.64,1.03,0.96
		c-0.25,0.43-0.6,0.24-0.88,0.25c-2.78,0.02-5.56-0.02-8.34,0.03C52.21,30.32,51.6,30.16,51.29,29.37z"/>
	<path class="st28" d="M53.48,19.5c0-1.76,0-3.52,0-5.28c0.56,0.39,1.13,0.79,1.69,1.18c0.01,1.52,0.02,3.03,0.01,4.55
		c0,0.34,0.14,0.73-0.26,0.97C54.45,20.45,53.97,19.97,53.48,19.5z"/>
	<path class="st29" d="M6.23,29.58c2.96,0,5.92,0.01,8.89,0.01c-0.25,0.31-0.49,0.63-0.74,0.94c-0.35-0.41-0.82-0.22-1.23-0.23
		c-2.23-0.02-4.46-0.02-6.7,0C5.44,30.32,6.03,29.9,6.23,29.58z"/>
	<path class="st30" d="M39.65,7.47c-3.36,0-6.72,0-10.08,0.02c-0.53,0-1.02-0.14-1.53-0.25c0-0.07,0-0.15,0-0.22
		c3.54,0,7.08-0.01,10.62-0.01C39.07,7.01,39.49,6.97,39.65,7.47z"/>
	<path class="st31" d="M50.83,16.89c-0.68-0.72-1.35-1.45-2.09-2.24c0.36-0.28,0.74-0.14,1.11-0.11c0.84,0.24,1.4,1.04,2.29,1.18
		c-0.06,0.72,0.23,1.49-0.34,2.13C51.48,17.53,51.15,17.21,50.83,16.89z"/>
	<path class="st32" d="M57.1,12.03c0.75,0.64,1.49,1.27,2.39,2.03c-1.03,0.23-1.8,0.29-2.47-0.49c-0.4-0.48-0.91-0.86-1.37-1.29
		C56.07,11.86,56.6,11.99,57.1,12.03z"/>
	<path class="st33" d="M57.1,12.03c-0.42,0.46-0.97,0.17-1.45,0.25c-0.64-0.56-1.27-1.12-1.91-1.68c0.35-0.85,0.93-0.34,1.43-0.24
		C55.81,10.92,56.46,11.48,57.1,12.03z"/>
	<path class="st34" d="M49.66,7.26c0.55-0.1,1.16,0.21,1.67-0.23c0.64,0.55,1.28,1.11,1.92,1.66c-0.35,0.85-0.91,0.43-1.43,0.24
		C51.05,8.43,50.27,7.95,49.66,7.26z"/>
	<path class="st34" d="M43.42,7.03c0.51,0.46,1.14,0.1,1.7,0.26c-0.41,0.42-0.83,0.84-1.24,1.27c-0.47,0.5-0.93,0.54-1.41,0.01
		c-0.56-0.61,0.13-0.79,0.39-1.1C43.01,7.29,43.23,7.17,43.42,7.03z"/>
	<path class="st35" d="M51.81,8.93c0.48-0.09,1.02,0.2,1.43-0.24c0.64,0.56,1.29,1.12,1.93,1.68c-0.48,0.09-1.02-0.21-1.43,0.24
		C53.09,10.04,52.45,9.49,51.81,8.93z"/>
	<path class="st36" d="M35.01,59.33c0,2.11-0.03,4.23,0.01,6.34c0.02,0.81-0.2,1.11-1.07,1.11c-9.1-0.04-18.19-0.03-27.29-0.04
		c-0.69-1.29-0.41-2.73-0.55-4.09c-0.36-3.63-0.22-3.71,3.38-3.71c7.82,0,15.63,0,23.45,0.01C33.65,58.94,34.4,58.81,35.01,59.33z"
		/>
	<path class="st37" d="M35.01,59.33c-8.97,0-17.95,0-26.92,0c-1.64,0-1.61,0-1.65,1.7c-0.04,1.91,0.41,3.8,0.22,5.72
		c-0.28,0.01-0.56,0-0.84,0.04c-0.85,0.12-1.1-0.24-1.08-1.08c0.05-2.2,0.08-4.4,0-6.59c-0.04-1.14,0.4-1.49,1.45-1.46
		c3.71,0.12,7.42,0.28,11.13,0.21c2.12-0.04,4.24,0.02,6.35-0.01c3.19-0.05,6.38-0.14,9.57-0.2C35,57.63,35,57.64,35.01,59.33z"/>
	<path class="st38" d="M43.88,59.35c0.46,0.48,0.28,1.09,0.2,1.59c-0.24,1.63-0.19,3.26-0.17,4.9c0.01,0.75-0.26,0.97-0.98,0.95
		c-2-0.03-3.99-0.01-5.99-0.01c-0.65-0.11-0.49-0.62-0.49-1.03c-0.01-1.82,0-3.65,0-5.47c1.86-0.26,3.72-0.06,5.58-0.09
		C42.81,60.17,43.45,60.03,43.88,59.35z"/>
	<path class="st39" d="M15.33,56.2c0-0.08,0-0.16,0-0.25c0.54-0.48,1.2-0.36,1.83-0.36c3.71-0.01,7.43,0,11.14-0.01
		c1.88-0.01,2.23-0.34,2.24-2.25c0.02-3.87,0-7.75,0.01-11.62c0-0.59-0.08-1.21,0.28-1.74c0.97,0.31,1.85,1.61,1.89,2.9
		c0.05,1.83,0.01,3.67,0.02,5.5c0,1.24,0,2.47,0,3.71c0.01,1.77,0.07,1.84,1.79,1.84c1.16,0,2.31,0.01,3.47-0.01
		c0.39-0.01,0.8-0.09,1.16,0.15c0.43,1.27,0.51,2.54-0.05,3.8c-0.9,0.01-1.79,0.01-2.69,0.02c-0.03-0.41,0.13-0.85-0.19-1.22
		c-0.43-0.3-0.92-0.2-1.4-0.22c-6.19-0.18-12.39-0.12-18.58-0.13C15.95,56.32,15.62,56.4,15.33,56.2z"/>
	<path class="st40" d="M43.88,59.35c0.12,0.82-0.09,1.23-1.06,1.19c-1.74-0.08-3.48-0.03-5.23-0.02c-0.4,0-0.79-0.03-1.14-0.24
		c-0.01-0.36-0.13-0.75,0.24-1.03C39.09,59.29,41.49,59.32,43.88,59.35z"/>
	<path class="st41" d="M15.33,56.2c6.53,0,13.07,0,19.6,0.02c0.45,0,1.08-0.32,1.31,0.44c-9.05-0.28-18.1-0.2-27.15-0.2
		c-0.23,0-0.49,0.03-0.63-0.22C10.75,56.23,13.04,56.21,15.33,56.2z"/>
	<path class="st42" d="M39.06,54.04c-2.04,0.53-4.1,0.19-6.15,0.19c-0.63,0-0.53-0.69-0.53-1.15c-0.01-3.38-0.01-6.76-0.01-10.15
		c0-0.77,0.01-1.52-0.9-1.88c-0.53-0.21-0.14-0.82-0.43-1.16c-0.89-0.54-1.88-0.6-2.89-0.6c-3.64,0.01-7.28,0.01-10.92,0
		c-0.58,0-1.22,0.13-1.67-0.42c0.8-1.43,2.02-2.53,3.06-3.76c2.59-3.06,5.3-6.01,7.97-9c0.21-0.23,0.48-0.41,0.72-0.61
		c0.39,0.42,0.2,0.9,0.11,1.35c-0.39,1.92-0.23,3.84-0.08,5.76c0.28,1,0.86,1.32,1.95,1.25c2.59-0.17,5.18-0.03,7.78-0.07
		c1.23-0.02,1.54-0.31,1.77-1.46c0.02-3.57,0.18-7.16-1.37-10.53c-0.16-0.36-0.36-0.73-0.08-1.13c1.05,0.43,2.02,1.12,2.7,1.94
		c3.29,3.96,7.28,7.25,10.46,11.3c1.36,1.74,3.26,2.29,5.35,1.81c1.12-0.26,1.26,0.13,1.18,1.02c-0.48,6.09-0.13,12.2-0.25,18.29
		c-0.01,0.7-0.01,1.32,0.97,1.17c-1.41,0.53-2.88,0.07-4.31,0.28c-0.58,0.07-1.17,0.14-1.61-0.38c-0.29-0.6-0.2-1.25-0.21-1.89
		c-0.09-3.35,0.16-6.7-0.19-10.05c-0.11-1.08-0.58-1.48-1.58-1.49c-3.07-0.03-6.15,0-9.22-0.02c-0.87,0-1.23,0.39-1.21,1.23
		c0.06,2.39-0.14,4.79,0.16,7.18C39.75,52.1,39.79,53.15,39.06,54.04z"/>
	<path class="st43" d="M59.72,57.67c1.51-0.01,3.03,0.01,4.54-0.03c0.68-0.02,1.02,0.15,1,0.93c-0.04,2.43-0.04,4.86,0,7.29
		c0.01,0.78-0.33,0.93-1.01,0.92c-2.71-0.03-5.42-0.02-8.13-0.02c-0.19-0.22-0.31-0.47-0.32-0.76c-0.05-2.03-0.06-4.07-0.24-6.1
		c-0.09-0.92,0.44-1.4,1.38-1.41c1.15-0.01,2.29-0.03,3.44,0.28c1.3,0.36,2.65,0.23,4.1,0.04c-0.25-0.61-0.64-0.55-0.96-0.56
		c-0.88-0.03-1.76,0.03-2.63-0.03C60.44,58.2,59.88,58.31,59.72,57.67z"/>
	<path class="st37" d="M59.72,57.67c1.35,0.48,2.75,0.1,4.12,0.22c0.51,0.05,1.18-0.22,1.18,0.72c-0.01,0.94-0.69,0.64-1.19,0.72
		c-2.3,0.34-4.51-0.61-6.81-0.51c-0.88,0.04-1.26,0.26-1.13,1.16c0.32,2.25,0.24,4.52,0.23,6.79c-1.04,0.19-1.45-0.1-1.4-1.28
		c0.1-2.23-0.01-4.47-0.04-6.7c0-0.45-0.04-0.89,0.63-0.91C56.79,57.82,58.25,57.73,59.72,57.67z"/>
	<path class="st44" d="M45.53,62.02c0.02-0.42,0.03-0.84,0.05-1.25c0.86-0.6,1.83-0.35,2.75-0.29c0.71,0.05,1.41,0.17,2.12,0.17
		c0.75,0.03,1.5,0.05,1.75,0.98c0.4,0.76,1.28,1.24,1.3,2.22c-0.01,0.57-0.01,1.13-0.02,1.7c-0.09,0.09-0.19,0.11-0.31,0.05
		c-0.52-0.56-0.9-1.23-1.41-1.79c-0.62-0.96-1.51-1.31-2.65-1.29c-1.15,0.02-2.31,0.2-3.44-0.16C45.55,62.27,45.5,62.16,45.53,62.02
		z"/>
	<path class="st45" d="M53.5,63.85c-0.3-0.78-1.01-1.24-1.47-1.89c-0.42-1.45-0.38-2.94-0.35-4.42c0.01-0.47-0.01-0.95,0.36-1.33
		c0.49,0.08,1.05-0.22,1.47,0.28C53.5,58.95,53.5,61.4,53.5,63.85z"/>
	<path class="st46" d="M53.26,65.56c0.07,0,0.15-0.01,0.22-0.02c0,0.42-0.01,0.84-0.01,1.26c-2.63-0.01-5.26-0.01-7.89-0.02
		c-0.01-0.4-0.02-0.81-0.03-1.21c0.04-0.05,0.09-0.11,0.13-0.16c0.33-0.25,0.73-0.39,1.12-0.29c1.99,0.51,4.01,0.33,6.02,0.28
		C52.99,65.39,53.13,65.47,53.26,65.56z"/>
	<path class="st47" d="M50.61,61c-1.69,0.05-3.35-0.39-5.04-0.23c0-0.7-0.03-1.4,0-2.1c0.02-0.53-0.16-0.82-0.72-0.79
		c-0.26-0.28-0.35-0.63-0.35-0.99c-0.03-3.63-0.06-7.26,0.01-10.89c0.02-1.09,0.41-1.4,1.49-1.41c1.19-0.02,1.57,0.32,1.59,1.56
		c0.03,1.63,0.01,3.26,0.01,4.88c0.02-1.47,0-2.94,0.01-4.41c0-0.32-0.02-0.64,0.04-0.96c0.08-0.4,0.17-0.82,0.68-0.85
		c0.47-0.02,0.81,0.3,0.82,0.72c0.09,2.17,0.47,4.36-0.26,6.5c-0.21,0.28-0.52,0.46-0.74,0.74c-0.2,0.25-0.41,0.56-0.02,0.79
		c0.38,0.22,0.67,0.01,0.84-0.35c0.18-0.4,0.09-0.85,0.19-1.27c0.25-1.98,0.03-3.96,0.13-5.93c0.05-1.12,0.29-1.3,1.35-1.12
		c0.4,0.52,0.33,1.14,0.32,1.73c-0.03,3.19,0.1,6.39,0.01,9.58c-0.03,1,0,1.99,0.15,2.99C51.24,59.84,51.34,60.55,50.61,61z"/>
	<path class="st48" d="M48.45,52.08c0.3-0.18,0.4-0.46,0.41-0.79c0.02-1.87,0.05-3.74,0.06-5.61c0-0.34-0.13-0.66-0.52-0.68
		c-0.49-0.02-0.42,0.39-0.42,0.69c-0.01,1.79,0,3.59-0.01,5.38c0,0.51,0.09,1.05-0.72,1.46c0-1.56,0-2.99,0-4.43
		c0-0.6-0.06-1.2,0.01-1.79c0.13-1.09-0.26-1.47-1.38-1.42c-0.87,0.04-1.06,0.35-1.05,1.14c0.03,3.95,0.01,7.9,0.02,11.84
		c-0.4,0-0.8,0-1.2,0c-0.44-0.5-0.37-1.12-0.37-1.71c-0.01-3,0-5.99-0.01-8.99c0-0.4,0.01-0.8-0.06-1.2
		c-0.06-0.36-0.25-0.58-0.64-0.58c-0.38,0-0.58,0.2-0.65,0.57c-0.07,0.4-0.06,0.8-0.06,1.2c0,3,0.01,5.99-0.01,8.99
		c0,0.59,0.08,1.21-0.36,1.71c-0.41,0-0.82-0.01-1.24-0.01c-0.42-0.47-0.35-1.04-0.36-1.6c-0.01-3.72-0.02-7.43,0-11.15
		c0.01-1.91,0.27-2.1,2.17-2.04c2.32,0.08,4.64,0.01,6.95,0.03c0.48,0,0.97-0.03,1.42,0.14c0.83,0.31,0.89,1,0.16,1.69
		c-0.7-0.09-1,0.17-0.98,0.92c0.05,1.5,0,3,0.02,4.51c0.01,0.72-0.04,1.42-0.29,2.09C48.99,52.5,48.66,52.43,48.45,52.08z"/>
	<path class="st49" d="M50.61,44.93c0.44-1.26,0.34-1.41-0.86-1.45c-2.9-0.09-5.8,0.19-8.7-0.16c-0.9-0.11-0.76,0.62-0.76,1.15
		c-0.01,3.98,0,7.97-0.01,11.95c0,0.48-0.02,0.96-0.03,1.43c-0.38,0-0.77,0-1.15,0c-0.02-1.28-0.03-2.55-0.05-3.83
		c0.39-3.46-0.07-6.92,0.03-10.38c0.03-1.03,0.28-1.39,1.35-1.37c3.15,0.07,6.3,0.01,9.45,0.03c1.8,0.01,1.79,0.08,1.95,1.83
		c0.37,4.02,0.04,8.05,0.18,12.07c0,1.92-0.01,3.83-0.01,5.75c-0.21-0.7-0.59-1.16-1.41-0.96c0.24-0.39,0.29-0.84,0.23-1.27
		c-0.31-2.14-0.09-4.29-0.14-6.42C50.63,50.51,50.7,47.72,50.61,44.93z"/>
	<path class="st50" d="M41.5,57.87c0-3.92,0.01-7.84-0.02-11.76c-0.01-0.83,0.14-1.22,1.1-1.22c0.98,0,1.1,0.41,1.09,1.23
		c-0.03,3.92-0.02,7.84-0.02,11.76C42.93,57.87,42.22,57.87,41.5,57.87z"/>
	<path class="st51" d="M45.53,62.02c0.03,0.05,0.06,0.11,0.07,0.17c0.3,0.37,0.32,0.81,0.31,1.26c-0.01,0.72,0.17,1.48-0.34,2.12
		c0,0-0.01,0.01-0.01,0.01C45.17,64.39,45.19,63.21,45.53,62.02z"/>
	<path class="st52" d="M15.56,38.87c4.74,0.06,9.47,0.16,14.21,0.14c0.8,0,1.05,0.29,1.27,0.88c-0.03,4.59-0.06,9.19-0.1,13.78
		c-0.01,1.92-0.39,2.3-2.31,2.3c-4.44-0.01-8.87-0.01-13.31-0.02c-1.06-0.17-0.6-1.05-0.76-1.64c-0.38-0.43-0.34-0.96-0.34-1.47
		c-0.01-3.7-0.01-7.4-0.01-11.1c0-0.56,0.05-1.11,0.33-1.62C14.04,39.05,14.07,39,15.56,38.87z"/>
	<path class="st53" d="M37.39,20.67c1.62,3.05,1.76,6.39,1.87,9.74c0.03,0.72,0.01,1.43-0.19,2.13c-0.3,0.47-0.8,0.51-1.28,0.51
		c-3.2,0.04-6.39,0.03-9.59,0.01c-0.4,0-0.8-0.06-1.13-0.32c-0.38-2.15-0.33-4.28,0.09-6.42c0.05-0.27,0.09-0.55,0.14-0.82
		c0.54-2.01,1.17-3.98,2.19-5.81c0.61-1.1,1.33-2.1,2.51-2.66c1.29-0.61,2.65-0.23,3.66,0.91C36.39,18.77,36.75,19.81,37.39,20.67z"
		/>
	<path class="st42" d="M14.55,40.12c0.01,4.73,0.01,9.46,0.02,14.19c-1.85,0.17-3.7,0.33-5.55,0.51c-0.47,0.05-0.41-0.26-0.41-0.52
		c0-2.35,0.01-4.7-0.01-7.05c-0.01-0.56,0.35-0.88,0.66-1.22C11.03,44.07,12.58,41.9,14.55,40.12z"/>
	<path class="st54" d="M52.14,15.72c-0.09,0.21-0.14,0.5-0.47,0.25c-0.62-0.46-1.35-0.78-1.83-1.43
		C50.77,14.63,51.97,14.16,52.14,15.72z"/>
	<path class="st55" d="M27.09,32.74c3.49,0,6.98-0.01,10.48-0.01c0.52,0,1.03-0.02,1.52-0.19c-0.03,1.12-0.49,1.58-1.66,1.59
		c-2.51,0.01-5.02,0-7.53,0.01c-0.46,0-0.96,0.16-1.37,0.16C27.67,34.31,27.19,33.61,27.09,32.74z"/>
	<path class="st56" d="M45.56,65.57c0.01-0.71,0.02-1.42,0.03-2.12c1.01-0.52,5.19-0.44,6.11,0.13c0.13,0.08,0.25,0.2,0.38,0.29
		c0.56,0.45,0.98,1,1.18,1.7c-2.03,0.37-4.08,0.48-6.08-0.08C46.58,65.31,46.1,65.65,45.56,65.57z"/>
	<path class="st57" d="M52.08,63.86c-2.12-0.72-4.33-0.19-6.49-0.42c0-0.42,0-0.83,0-1.25c1.19-0.01,2.4,0.08,3.58-0.05
		C50.64,61.98,51.47,62.68,52.08,63.86z"/>
	<path class="st58" d="M48.45,52.08c0.36-0.02,0.66,0.12,0.92,0.37c0,0.28,0.05,0.56-0.02,0.82c-0.12,0.46-0.45,0.74-0.94,0.76
		c-0.38,0.02-0.72-0.11-0.88-0.47c-0.19-0.43,0.08-0.76,0.36-1.05C48.05,52.34,48.26,52.22,48.45,52.08z"/>
	<path class="st59" d="M21.26,51.42c0.21,3.5,0.21,3.5-3.27,3.54c-2.6,0.03-2.6,0.03-2.6-2.53c0-1.16,0.06-2.32-0.02-3.48
		c-0.07-0.96,0.25-1.32,1.2-1.18c0.43,0.07,0.88,0.05,1.31,0.07C19.12,48.94,20.45,49.94,21.26,51.42z"/>
	<path class="st60" d="M22.69,43.45c-0.43-3.36-0.43-3.37,2.83-3.35c0.99,0.01,1.99-0.09,2.98,0.11c0.64,0.13,0.8,0.48,0.79,1.09
		c-0.03,1.47-0.05,2.95,0.01,4.42c0.03,0.74-0.22,1.01-0.95,0.94c-0.59-0.06-1.19-0.04-1.79-0.06c-1.62-1.31-2.48-3.18-3.6-4.68
		C22.96,42.32,23.34,42.97,22.69,43.45z"/>
	<path class="st61" d="M22.76,50.42c-0.02-0.67-0.05-1.34-0.07-2.02c-0.01-0.39,0.12-0.62,0.56-0.5c0.98,0.41,1.39,1.37,2.01,2.11
		c1.19,1.42,2.5,2.74,3.56,4.27c0.07,0.25,0.45,0.62-0.2,0.58c-0.77-0.04-1.55,0.14-2.3-0.15C24.9,53.47,23.67,52.08,22.76,50.42z"
		/>
	<path class="st61" d="M21.27,45.37c0.07,1.39,0.07,1.39-1.52,1.24c-0.35-0.13-0.62-0.36-0.82-0.66c-1.1-1.69-2.67-3.05-3.49-4.94
		c-0.2-1.6,0.95-0.79,1.59-0.89C18.88,41.52,20.2,43.34,21.27,45.37z"/>
	<path class="st62" d="M28.82,54.28c-1.99-1.65-3.41-3.79-5.07-5.72c-0.18-0.21-0.33-0.44-0.5-0.66c0.86-0.01,1.72-0.01,2.58-0.02
		c1.35,1.43,2.51,3.01,3.41,4.77C29.17,53.21,29.61,53.9,28.82,54.28z"/>
	<path class="st63" d="M15.43,41.02c1.51,1.81,2.97,3.66,4.31,5.6c-1.14,0.21-2.3,0.14-3.46,0.2c-0.69,0.04-0.92-0.23-0.9-0.89
		C15.43,44.29,15.42,42.65,15.43,41.02z"/>
	<path class="st64" d="M21.27,45.37c-1.41-1.75-2.83-3.5-4.24-5.25c1.11,0,2.21,0,3.32,0c0.55,0.22,0.77,0.7,0.94,1.21
		C21.28,42.68,21.27,44.03,21.27,45.37z"/>
	<path class="st65" d="M22.69,43.45c0-0.64,0-1.27,0-1.91c0.08-0.04,0.15-0.07,0.23-0.11c1.21,1.72,2.43,3.45,3.64,5.17
		c-0.59,0-1.19,0-1.78,0c-1.06-0.71-1.59-1.78-2.02-2.92C22.73,43.61,22.71,43.53,22.69,43.45z"/>
	<path class="st66" d="M29.23,52.65c-1.27-1.5-2.43-3.06-3.41-4.77c0.53,0,1.06,0.01,1.6,0.01c0.95,0.54,1.45,1.42,1.8,2.41
		C29.23,51.08,29.23,51.86,29.23,52.65z"/>
	<path class="st67" d="M22.76,50.42c1.19,1.43,2.52,2.74,3.56,4.3c-0.34,0.02-0.68,0.04-1.02,0.05c-1.16-0.5-1.94-1.39-2.54-2.47
		C22.76,51.67,22.76,51.04,22.76,50.42z"/>
	<path class="st59" d="M18.51,47.86c3.27-0.07,2.85-0.21,2.75,2.84C20.05,50.04,19,49.21,18.51,47.86z"/>
	<path class="st68" d="M22.75,43.69c0.67,0.97,1.35,1.94,2.02,2.92c-2.08,0.15-2.08,0.15-2.07-1.86
		C22.7,44.39,22.73,44.04,22.75,43.69z"/>
	<path class="st69" d="M29.22,50.3c-0.6-0.8-1.2-1.61-1.81-2.41C29.41,47.85,29.37,47.29,29.22,50.3z"/>
	<path class="st70" d="M18.51,47.86c0.92,0.95,1.83,1.89,2.75,2.84c0,0.24,0,0.48,0.01,0.73c-1.18-1.13-2.42-2.22-3.37-3.58
		C18.1,47.85,18.3,47.85,18.51,47.86z"/>
	<path class="st71" d="M24.41,54.74c-1.76,0.13-1.76,0.13-1.64-1.67C23.67,53.28,24.25,53.8,24.41,54.74z"/>
	<path class="st72" d="M24.41,54.74c-0.42-0.68-1.04-1.17-1.64-1.67c0-0.26-0.01-0.52-0.01-0.77c0.85,0.82,1.7,1.65,2.54,2.47
		C25,54.9,24.7,54.84,24.41,54.74z"/>
	<path class="st73" d="M21.29,41.34c-0.31-0.4-0.63-0.81-0.94-1.21C21.58,39.82,21.37,40.62,21.29,41.34z"/>
	<path class="st59" d="M33.68,25.24c-0.02-2.04-0.05-4.07-0.07-6.11c0-0.26-0.16-0.62,0.15-0.76c0.35-0.16,0.59,0.17,0.8,0.38
		c0.86,0.87,1.38,1.96,1.85,3.06c1.3,3.06,1.83,6.26,1.58,9.58c-0.97-2.11-2.69-3.66-4.04-5.5C33.82,25.7,33.7,25.49,33.68,25.24z"
		/>
	<path class="st74" d="M33.68,25.24c1.32,1.57,2.62,3.14,3.95,4.7c0.38,0.45,0.25,0.97,0.36,1.46c-0.49,0.2-1,0.1-1.51,0.06
		c-1.21-0.94-2.24-2.03-2.79-3.5C33.69,27.05,33.68,26.14,33.68,25.24z"/>
	<path class="st75" d="M28.99,25.62c0.08-0.91,0.37-1.76,0.75-2.59c1.37,0.81,2.15,2.08,2.79,3.47c0.01,1.07,0.02,2.14,0.03,3.21
		c-0.08,0.04-0.17,0.08-0.22,0.03C31.09,28.49,29.76,27.28,28.99,25.62z"/>
	<path class="st60" d="M32.34,31.45c-1.07,0.02-2.14,0.01-3.21,0.06c-0.64,0.03-0.79-0.24-0.81-0.84c-0.04-1.31,0.05-2.61,0.37-3.88
		c1.32,1.25,2.41,2.7,3.55,4.11C32.36,31.05,32.43,31.25,32.34,31.45z"/>
	<path class="st66" d="M32.34,31.45c-1.13-1.62-2.7-2.9-3.65-4.66c0.1-0.39,0.05-0.82,0.31-1.17c1.19,1.37,2.38,2.74,3.56,4.1
		C32.49,30.3,32.88,30.94,32.34,31.45z"/>
	<path class="st66" d="M32.53,26.51c-0.93-1.16-1.86-2.32-2.79-3.47c0.12-0.63,0.36-1.21,0.71-1.75c1.18,0.35,1.62,1.35,2.09,2.33
		C32.53,24.59,32.53,25.55,32.53,26.51z"/>
	<path class="st76" d="M32.53,23.63c-0.7-0.78-1.39-1.55-2.09-2.33c0.4-1.13,0.94-2.17,2.09-3.03
		C32.53,20.14,32.53,21.88,32.53,23.63z"/>
	<path class="st77" d="M33.69,27.95c0.93,1.17,1.86,2.33,2.79,3.5c-2.91,0.19-2.91,0.19-2.86-2.68
		C33.63,28.5,33.67,28.23,33.69,27.95z"/>
	<path class="st78" d="M15.69,44.7c0.54,0.62,1.02,1.18,1.54,1.78C16.21,46.52,15.63,45.85,15.69,44.7z"/>
</g>
</svg>
