<?xml version="1.0" encoding="utf-8"?>
<!-- Generator: Adobe Illustrator 23.0.2, SVG Export Plug-In . SVG Version: 6.00 Build 0)  -->
<svg version="1.1" id="Camada_1" xmlns="http://www.w3.org/2000/svg" xmlns:xlink="http://www.w3.org/1999/xlink" x="0px" y="0px"
	 viewBox="0 0 69.36 70.8" style="enable-background:new 0 0 69.36 70.8;" xml:space="preserve">
<style type="text/css">
	.st0{fill:#44314C;}
	.st1{fill:#474F80;}
	.st2{fill:#484F80;}
	.st3{fill:#4E6D8F;}
	.st4{fill:#6D70A1;}
	.st5{fill:#4F6D8F;}
	.st6{fill:#397D50;}
	.st7{fill:#4B526F;}
	.st8{fill:#4B4F6C;}
	.st9{fill:#5E9FC9;}
	.st10{fill:#4B92B2;}
	.st11{fill:#4B92B1;}
	.st12{fill:#A484B9;}
	.st13{fill:#46718C;}
	.st14{fill:#4A92B1;}
	.st15{fill:#5DA0CA;}
	.st16{fill:#4B93B3;}
	.st17{fill:#46728C;}
	.st18{fill:#0F6588;}
	.st19{fill:#4A91B0;}
	.st20{fill:#46718B;}
	.st21{fill:#4A91B1;}
	.st22{fill:#9E82B4;}
	.st23{fill:#7CBDDA;}
	.st24{fill:#46738E;}
	.st25{fill:#7DBFDD;}
	.st26{fill:#43728C;}
	.st27{fill:#8F88BB;}
	.st28{fill:#4DEEE6;}
	.st29{fill:#46758F;}
	.st30{fill:#4B93B2;}
	.st31{fill:#4B94B4;}
	.st32{fill:#4C92B2;}
	.st33{fill:#5970A5;}
	.st34{fill:#6E95CD;}
	.st35{fill:#5D9FC9;}
	.st36{fill:#5F9FC9;}
	.st37{fill:#A181B2;}
	.st38{fill:#5EAED9;}
	.st39{fill:#7CBDDB;}
	.st40{fill:#5EA1CA;}
	.st41{fill:#567090;}
	.st42{fill:#5D85A4;}
	.st43{fill:#4D5E83;}
	.st44{fill:#557093;}
	.st45{fill:#99BB73;}
	.st46{fill:#7A9E4F;}
	.st47{fill:#B0FC58;}
	.st48{fill:#556E8E;}
	.st49{fill:#5A80A0;}
	.st50{fill:#0E6387;}
	.st51{fill:#0E6185;}
	.st52{fill:#7BBDDB;}
	.st53{fill:#E8F7F5;}
	.st54{fill:#404D63;}
	.st55{fill:#516C9E;}
	.st56{fill:#5EA1C9;}
	.st57{fill:#E3E2E2;}
	.st58{fill:#567292;}
	.st59{fill:#48EEE7;}
	.st60{fill:#49EFE7;}
	.st61{fill:#FDFEFE;}
	.st62{fill:#48EFE7;}
	.st63{fill:#48F0E7;}
	.st64{fill:#49F0E7;}
	.st65{fill:#FBFEFE;}
	.st66{fill:#FAFDFC;}
	.st67{fill:#47F0E8;}
	.st68{fill:#4AEEE7;}
	.st69{fill:#4BF5EB;}
	.st70{fill:#49EFE8;}
	.st71{fill:#E5FAF5;}
	.st72{fill:#4FF5EB;}
	.st73{fill:#E4FCF8;}
	.st74{fill:#E7FDF8;}
	.st75{fill:#F0FAFA;}
	.st76{fill:#FAFCFD;}
	.st77{fill:#F9FDFC;}
	.st78{fill:#F9FCFC;}
	.st79{fill:#47EEE6;}
</style>
<g>
	<path d="M6.6,34.2c-1.04,0-2.08,0.03-3.11-0.01c-1.43-0.06-1.88-0.58-1.96-2c-0.07-1.3,0.3-2.2,1.3-3.21
		c5.81-5.89,11.99-11.4,17.65-17.45c1.82-1.95,3.88-3.66,5.54-5.77c0.63-0.81,1.68-0.68,2.57-0.69c3.19-0.03,6.39,0,9.58-0.01
		c0.97,0,1.91,0.1,2.73,0.69c0.53,0.38,0.99,0.43,1.58-0.03c1.51-1.17,3.1-2.25,4.65-3.36c1.29-0.93,2.11-0.81,3.33,0.27
		c2.62,2.33,5.33,4.55,7.91,6.92c1.29,1.19,2.77,2.16,3.97,3.45c0.71,0.76,0.81,1.65,0.76,2.55c-0.05,0.81-0.56,1.4-1.49,1.42
		c-0.76,0.02-1.52,0.09-2.28,0.01c-0.88-0.09-1.12,0.27-1.03,1.08c0.06,0.51,0.09,1.06-0.02,1.56c-0.5,2.39,0.57,4.03,2.39,5.39
		c1.8,1.35,3.13,3.19,4.83,4.65c0.91,0.78,0.68,1.83,0.48,2.79c-0.2,0.95-1.06,1.12-1.87,1.2c-0.75,0.07-1.52,0.06-2.28,0.03
		c-0.6-0.03-0.81,0.13-0.83,0.78c-0.24,6.87-0.1,13.75-0.18,20.62c-0.01,0.62,0.17,0.84,0.8,0.82c1.32-0.05,2.64-0.06,3.96-0.03
		c1.51,0.03,2.56,0.95,2.65,2.45c0.12,1.87,0.29,3.76,0.11,5.62c-0.14,1.44-0.49,2.87-0.72,4.32c-0.16,1.01-1.29,1.3-2.31,1.29
		c-9.18-0.01-18.37-0.25-27.55,0.03c-9.63,0.29-19.25,0.05-28.87,0.21c-1.43,0.02-2.84-0.42-4.29-0.07
		c-0.72,0.17-1.17-0.42-1.44-1.03c-0.24-0.55-0.29-1.16-0.27-1.76c0.1-2.71-0.22-5.44,0.21-8.14c0.09-0.56-0.37-1.06-0.08-1.64
		c0.51-1.01,1.38-1.29,2.4-1.19c0.98,0.09,1.22-0.24,1.23-1.25c0.03-4.99-0.31-9.98-0.02-14.98C6.74,37.94,6.49,36.1,6.6,34.2z"/>
	<path class="st0" d="M54.54,7.8c2.07,1.73,4.15,3.45,6.2,5.2c0.36,0.3,0.62,0.72,0.92,1.09c0.34,0.41,0.38,0.9,0.21,1.35
		c-0.18,0.49-0.68,0.28-1.05,0.31c-1.07,0.08-2.15-0.15-3.21,0.17c-0.55-0.62-1.06-1.32-1.95-1.5c-2.02-1.42-3.67-3.29-5.7-4.7
		c-1.24-0.86-1.64-0.89-2.58,0.28c-1.61,2.01-1.61,1.41,0.06,3.18c0.15,0.18,0.26,0.37,0.34,0.59c0.73,1.66,2.19,2.54,3.63,3.46
		c0.41,0.28,0.73,0.66,1.09,0.99c0.57,0.56,1.08,1.19,1.76,1.63c0.61,0.42,1.08,0.99,1.59,1.52c0.49,0.4,0.76,0.36,0.76-0.34
		c0-1.14-0.03-2.28,0.01-3.42c0.02-0.43-0.12-0.98,0.5-1.16c0.01,1.96,0.06,3.91,0.02,5.87c-0.01,0.66,0.18,1.13,0.65,1.57
		c2.17,2.06,4.31,4.15,6.47,6.22c0.5,0.48,0.99,0.91,0.7,1.74c-0.31,0.86-0.99,0.61-1.6,0.67c-1.18,0.11-2.39-0.26-3.54,0.25
		c-0.55,0.71-1.15,0.65-1.78,0.11c-1.48-0.12-2.96-0.07-4.44-0.04c-1.04,0.02-1.74-0.35-2.47-1.13c-2.37-2.54-4.74-5.08-7.07-7.66
		c-2.63-2.9-5.26-5.8-7.88-8.71c-1.41-1.56-3.08-1.75-4.49-0.21c-1.62,1.77-3.23,3.54-4.81,5.34c-1.9,2.16-3.86,4.26-5.79,6.4
		c-1.76,1.95-3.46,3.97-5.39,5.77c-0.4,0.38-0.8,0.66-1.35,0.65c-1.28-0.02-2.56,0.13-3.83-0.12c-0.53-0.1-1.03-0.07-1.54,0.09
		c-0.5,0.09-0.65,0.45-0.73,0.9c-0.06,0.3,0.02,0.74-0.5,0.75c0-0.28-0.03-0.56,0-0.84c0.09-0.83-0.26-1.14-1.09-1.08
		C5.79,33.05,4.91,33.02,4.03,33c-0.45-0.01-1.13,0.19-1.23-0.41c-0.12-0.73-0.45-1.58,0.22-2.24c3.25-3.24,6.42-6.57,9.8-9.66
		c2.21-2.02,4.43-4.01,6.49-6.17c2-2.11,3.95-4.27,6.1-6.24c0.35-0.13,0.67-0.35,0.84-0.65c0.7-1.24,1.87-1.27,3.07-1.25
		c0.8-0.32,1.64-0.24,2.48-0.24c1.6,0,3.19,0.03,4.79-0.01c1.52-0.04,3,0,4.23,1.08c0.54,0.48,0.95,0.31,1.57-0.05
		c1.76-1.03,3.31-2.35,4.96-3.51c0.91-0.64,1.84-0.83,2.69,0.23c0.9,1.13,2.38,1.59,3.3,2.73C53.61,7.12,54.05,7.48,54.54,7.8z"/>
	<path class="st1" d="M39.4,68.25c-10.41,0.6-20.83,0.19-31.25,0.31c-1.04,0.01-2.08-0.1-3.11-0.05c-0.65,0.03-0.91-0.22-0.91-0.8
		c0-2.83-0.21-5.68,0.14-8.5c0.08-0.64-0.57-1.54,0.32-1.93c0.59-0.26,1.34-0.29,2-0.24c1.11,0.1,1.2-0.47,1.19-1.35
		c-0.04-2.2,0-4.39,0.01-6.59c0.65,0.25,0.51,0.84,0.52,1.32c0.04,1.52,0,3.03,0.03,4.55c0.01,0.55-0.03,1.15,0.69,1.36
		c0.89,0.46,1.86,0.28,2.8,0.3c1.22,0.03,2.45-0.03,3.68,0.03c5.14,0.03,10.27-0.04,15.41,0.03c1.62,0.31,3.25,0.16,4.88,0.18
		c1.01,0.01,1.59,0.4,1.59,1.47c0.04,0.55,0.18,1.1-0.01,1.65c0.01,0.34-0.03,0.67-0.03,1.01c0.05,1.61,0,3.22,0.03,4.84
		c0.01,0.43,0,0.87,0.22,1.26c0.21,0.43,0.56,0.6,1.03,0.65C38.93,67.78,39.36,67.74,39.4,68.25z"/>
	<path class="st2" d="M59.57,56.04c-0.07,0.76,0.23,1.05,1.03,1.02c1.55-0.06,3.11-0.04,4.67-0.04c0.92,0,1.87,0.87,1.9,1.8
		c0.05,1.59,0.23,3.21,0.01,4.77c-0.19,1.38-0.58,2.73-0.71,4.14c-0.04,0.47-0.65,0.66-1.24,0.64c-2.66-0.08-5.31-0.08-7.97,0.04
		c-0.98,0.04-1.98-0.14-2.97-0.21c-0.24-0.9,0.39-1.08,1.04-1.26c0.53,0.02,1.06,0.07,1.6,0.03c2.39-0.04,4.78-0.04,7.16-0.01
		c0.95,0.01,1.39-0.31,1.34-1.31c-0.09-2.14,0.12-4.29-0.11-6.42c-0.22-0.35-0.58-0.42-0.94-0.41c-2.44,0.08-4.86-0.38-7.3-0.26
		c-1.39,0.06-1.46,0.09-1.48,1.52c-0.01,1.2,0,2.4-0.01,3.6c0,0.48,0.02,0.96-0.24,1.4c-0.79,0.36-1.09-0.15-1.35-0.75
		c-0.22-2.13-0.09-4.27-0.09-6.4c0-0.32,0.06-0.63,0.24-0.91c0.92-0.66,1.97-0.3,2.96-0.38c0.7,0.16,1.14-0.23,1.53-0.73
		C58.98,55.76,59.29,55.81,59.57,56.04z"/>
	<path class="st3" d="M8.92,56.52c-0.71,0.09-0.99-0.18-0.97-0.93c0.04-1.78,0.02-3.57,0-5.35c0-0.38,0.12-0.8-0.17-1.14
		c-0.1-2.95-0.14-5.89,0.06-8.84c0.12-1.78-0.31-3.56-0.1-5.35c0.32-0.27,0.23-0.64,0.22-0.97c-0.03-0.7,0.28-1,0.97-0.93
		c0.53,0.37,0.62,0.93,0.57,1.49c-0.43,4.3-0.05,8.61-0.24,12.91c-0.01,2.55,0.01,5.09-0.01,7.63C9.25,55.56,9.35,56.1,8.92,56.52z"
		/>
	<path class="st4" d="M37.02,59.89c0.24-0.41,0.23-0.82-0.02-1.22c0.79-0.55,1.68-0.29,2.53-0.33c0.42,0,0.85-0.03,1.27,0.01
		c0.42-0.01,0.84,0.01,1.26,0.09c0.55,0.12,1.11,0.12,1.67,0.15c1.64,0.07,2.21,0.66,2.24,2.3c0,0.24-0.01,0.48,0,0.72
		c0.02,0.33,0.06,0.66,0.13,0.98c0.09,0.46,0.09,0.91,0,1.37c-0.19,0.62-0.13,1.26-0.14,1.89c-0.02,0.44,0.01,0.89-0.06,1.33
		c-0.09,0.45-0.25,0.85-0.71,1.05c-1.93,0.01-3.87,0.02-5.8,0.03c-0.37-0.34-0.83-0.2-1.25-0.2c-0.54,0.01-0.7-0.27-0.68-0.74
		c0.06-0.52,0.46-0.42,0.8-0.45c1.5-0.04,3,0.1,4.5,0.12c0.98,0.01,1.34-0.41,1.33-1.36c-0.01-1.5-0.05-3.01,0.03-4.51
		c0.09-0.86-0.53-0.85-1.09-0.86c-1.51-0.03-3.03,0-4.54-0.02C37.98,60.22,37.45,60.27,37.02,59.89z"/>
	<path class="st5" d="M59.57,56.04c-0.32,0-0.64,0-0.96,0c-0.53-0.56-0.39-1.28-0.39-1.94c-0.01-5.03-0.01-10.06-0.01-15.09
		c0-1.48,0.03-2.95-0.18-4.42c-0.1-0.7-0.18-1.44,0.33-2.07c0.36,0.85,0.93,0.44,1.46,0.24C59.74,40.52,59.65,48.28,59.57,56.04z"/>
	<path class="st6" d="M45.2,68.22c0.15-0.3,0.3-0.61,0.45-0.91c0.47-0.39,1.04-0.32,1.59-0.33c1.82-0.01,3.64,0.02,5.46-0.02
		c0.47-0.01,1.15,0.13,0.96-0.76c-0.37-0.65-0.85-1.21-1.31-1.79c-0.6-0.95-1.45-1.39-2.59-1.33c-0.87,0.05-1.74,0.02-2.61,0
		c-0.48-0.01-0.96-0.02-1.24-0.52c-0.28-0.19-0.26-0.48-0.25-0.76c0.14-0.61,0.58-0.8,1.14-0.81c0.83-0.03,1.66-0.03,2.5,0
		c0.26,0.01,0.53,0.03,0.78,0.09c0.47,0.15,0.94,0.16,1.41,0.03c0.92-0.18,1.12,0.46,1.3,1.12c0.42,0.76,1.2,1.27,1.49,2.13
		c0.15,0.47,0.6,0.59,0.96,0.83c0.47,0.62,0.7,1.24,0.01,1.86c-0.4,0.32-0.86,0.57-0.94,1.15C51.27,68.21,48.23,68.21,45.2,68.22z"
		/>
	<path class="st5" d="M55.73,14.27c1.04,0.07,1.69,0.6,1.89,1.64c-0.17,0.18-0.33,0.35-0.5,0.53c-0.39,1.44-0.09,2.91-0.18,4.37
		c-0.03,0.47,0,0.95,0,1.49c-0.65-0.08-1.06-0.44-1.45-0.82c-0.22-1.9-0.12-3.81-0.11-5.72C55.39,15.24,55.3,14.7,55.73,14.27z"/>
	<path class="st7" d="M29.31,6.37c-0.1,0.07-0.2,0.2-0.29,0.19c-1.24-0.21-2.07,0.43-2.8,1.32c-0.21,0.25-0.46,0.44-0.82,0.4
		c0.88-0.75,1.32-2.08,2.78-2.09C28.58,6.18,28.97,6.1,29.31,6.37z"/>
	<path class="st8" d="M54.54,7.8c-0.64-0.16-1.13-0.47-1.22-1.2C53.78,6.94,54.22,7.31,54.54,7.8z"/>
	<path class="st9" d="M58.36,32.52c0.45,7.84,0.12,15.68,0.25,23.52c0.11,0.97-0.46,1.07-1.21,0.96c-0.38-0.43-0.32-0.97-0.32-1.48
		c-0.01-4.96,0-9.91-0.01-14.87c0-1.04,0.28-2.06,0.25-3.1c-0.02-0.7-0.24-1.04-1.01-0.91c-2.51,0.41-4.41-0.54-5.9-2.56
		c-1.35-1.84-3.08-3.35-4.69-4.96c-1.61-1.61-3.11-3.32-4.61-5.04c-0.93-1.06-2.12-1.81-3.22-2.66c-0.84-0.62-1.03-1.67-1.65-2.45
		c-1.08-1.36-2.77-1.74-3.98-0.76c-0.84,0.67-1.56,1.46-2.07,2.44c-0.99,1.92-1.65,3.96-2.18,6.04c-0.29,0.07-0.55,0-0.84,0.31
		c-3.76,4.1-7.25,8.44-10.98,12.56c-0.52,0.21-1.17,0.31-0.96,1.14c-1.95,2.26-3.79,4.63-5.93,6.73c-0.11,0.04-0.22,0.04-0.32-0.03
		C9,43.19,8.72,38.98,9.14,34.78c0.06-0.6-0.05-1.19-0.21-1.76c1.42-0.47,2.84,0.05,4.26,0.04c1.07-0.01,1.83-0.12,2.69-1.02
		c5.41-5.65,10.52-11.57,15.82-17.32c1.25-1.35,3.34-1.2,4.53,0.15c3.25,3.68,6.55,7.32,9.85,10.95c1.9,2.1,3.86,4.15,5.76,6.26
		c0.41,0.45,0.86,0.5,1.39,0.49C54.93,32.54,56.64,32.54,58.36,32.52z"/>
	<path class="st10" d="M35.82,12.83c-1.45-0.48-2.89-0.29-4.34,0.01c-0.27,0.17-0.56,0.33-0.88,0.33c-2.17,0.02-4.34,0.19-6.51-0.1
		c-0.23-0.11-0.4-0.23-0.31-0.54c0.24-0.83,1.74-1.95,2.71-2.01c4.82,0.04,9.64,0.01,14.45,0.01c0.72,0,1.43,0.01,2.1,0.35
		c0.7,0.59,1.38,1.22,1.93,1.96c-0.17,0.19-0.39,0.31-0.62,0.31C41.5,13.14,38.63,13.6,35.82,12.83z"/>
	<path class="st11" d="M55.94,24.13c0.96,0.72,1.96,1.4,2.69,2.37c-0.08,0.61-0.6,0.6-1,0.61c-2.5,0.08-5.01,0.05-7.52,0.02
		c-0.41,0-0.77-0.18-1.13-0.34c-1-0.86-1.87-1.84-2.64-2.91c0.45-0.44,1.03-0.35,1.58-0.37c2.15-0.07,4.3,0.1,6.45,0.01
		C54.95,23.5,55.58,23.49,55.94,24.13z"/>
	<path class="st10" d="M21.4,23.88c-0.84,0.99-1.64,2.03-2.63,2.89c-0.32,0.16-0.65,0.33-1.01,0.33c-2.5,0-5.01,0.15-7.51-0.08
		c-0.29-0.1-0.59-0.31-0.36-0.59c0.96-1.17,1.74-2.57,3.4-2.93c2.18,0,4.36-0.01,6.54,0.01C20.38,23.52,20.96,23.44,21.4,23.88z"/>
	<path class="st12" d="M12.97,23.6c-1.11,0.99-2.18,2.01-3.12,3.16c-0.13,0.61-0.72,0.88-1.02,1.36c-0.51,0.83-1.32,1.4-1.87,2.2
		c-0.17,0.24-0.37,0.45-0.61,0.63c-0.91,0.37-1.09,0.36-1.51-0.12c1.4-1.42,2.79-2.85,4.19-4.27c5.98-6.05,11.98-12.09,17.94-18.16
		c0.61-0.62,1.21-0.88,2.09-0.86c3.59,0.07,7.19,0.07,10.78,0.09c-0.27,0.72-0.92,0.51-1.43,0.52c-2.71,0.04-5.41,0.06-8.12,0
		c-1.1-0.02-1.96,0.2-2.48,1.23c-0.52,0.46-0.89,1.11-1.64,1.27c-1.01,0.51-1.67,1.41-2.43,2.2c-0.12,0.73-0.86,0.89-1.26,1.35
		c-0.57,0.54-1.12,1.1-1.67,1.66c-0.42,0.4-0.83,0.82-1.24,1.24c-0.74,0.74-1.51,1.43-2.1,2.31c-0.48,0.5-0.98,0.98-1.46,1.48
		c-0.49,0.47-0.97,0.96-1.45,1.45C14.03,22.75,13.72,23.45,12.97,23.6z"/>
	<path class="st13" d="M26.18,10.64c0.39-0.39,0.79-0.78,1.18-1.17c0.57-0.33,1.2-0.38,1.85-0.38c3.51,0,7.03,0,10.54,0
		c0.65,0,1.28,0.05,1.85,0.39c0.48,0.47,0.96,0.94,1.43,1.4c-5.33,0.01-10.66,0.02-16,0.03C26.73,10.91,26.39,10.96,26.18,10.64z"/>
	<path class="st14" d="M41.6,9.47c-4.75,0-9.49,0-14.24,0c0.52-1.74,1.84-1.76,3.35-1.7c2.66,0.1,5.32,0.03,7.99,0.02
		c0.38,0,0.8,0.12,1.15-0.16C40.63,8.05,41.07,8.81,41.6,9.47z"/>
	<path class="st15" d="M55.73,14.27c0,0.48-0.01,0.97-0.01,1.45c-0.9,0.49-1.22-0.39-1.76-0.75c-0.31-0.33-0.76-0.47-1.07-0.79
		c-0.83-1.04-1.97-1.74-2.96-2.6c-0.51-0.44-0.78-0.27-1.13,0.21c-0.42,0.56-0.68,1.29-1.47,1.5c-1.86-1.59-1.86-1.59-0.29-3.36
		c0.13-0.15,0.29-0.28,0.41-0.43c0.75-0.93,1.45-1.05,2.47-0.22C51.91,10.89,53.87,12.52,55.73,14.27z"/>
	<path class="st10" d="M17.27,19.3c0.57-0.95,1.38-1.68,2.19-2.41c2.31-0.22,4.62-0.09,6.93-0.07c0.39,0,0.93-0.06,1.01,0.58
		c-0.63,0.65-1.26,1.3-1.89,1.95c-0.54,0.29-1.11,0.37-1.72,0.37c-1.66-0.01-3.31,0.01-4.97-0.01C18.27,19.7,17.7,19.76,17.27,19.3z
		"/>
	<path class="st10" d="M42.25,19.36c-0.64-0.65-1.27-1.3-1.91-1.94c0.05-0.55,0.51-0.58,0.88-0.59c2.34-0.08,4.68-0.07,7.02-0.01
		c0.37,0.01,0.69,0.18,1.01,0.34c0.64,0.64,1.28,1.28,1.92,1.92c0,0.39-0.3,0.47-0.57,0.45C47.82,19.32,45.03,19.61,42.25,19.36z"/>
	<path class="st11" d="M6.78,30.13c0.63-0.72,1.27-1.45,1.9-2.17c2.62-0.29,5.25-0.13,7.87-0.08c0.32,0.01,0.75,0.04,0.77,0.56
		c-0.55,0.57-1.1,1.14-1.64,1.71c-0.44,0.19-0.88,0.33-1.37,0.33c-2.1-0.01-4.2,0-6.3-0.01C7.56,30.47,7.12,30.49,6.78,30.13z"/>
	<path class="st13" d="M48.97,26.79c2.81-0.01,5.62-0.01,8.43-0.03c0.41,0,0.88,0.16,1.22-0.25c0.6,0.51,1.19,1.05,1.65,1.7
		c-0.24,0.53-0.73,0.58-1.21,0.58c-2.46,0.04-4.92,0.04-7.38,0c-0.45-0.01-0.83-0.24-1.26-0.34C49.8,28.02,49.48,27.32,48.97,26.79z
		"/>
	<path class="st13" d="M55.94,24.13c-1.46-0.59-2.98-0.11-4.47-0.22c-1.7-0.13-3.42-0.03-5.14-0.03c-0.62-0.49-1.19-1.03-1.62-1.7
		c0.24-0.25,0.55-0.33,0.87-0.33c2.83,0,5.66-0.16,8.48,0.08C54.72,22.64,55.67,23.1,55.94,24.13z"/>
	<path class="st13" d="M42.25,19.36c0.46-0.32,0.98-0.29,1.5-0.27c2.38,0.09,4.77-0.21,7.14,0.17c0.08,0.01,0.19-0.13,0.28-0.2
		c0.63,0.49,1.19,1.05,1.67,1.68c-0.26,0.3-0.62,0.36-0.97,0.36c-2.73,0-5.47,0.14-8.2-0.08C43.11,20.55,42.6,20.03,42.25,19.36z"/>
	<path class="st16" d="M50.43,28.45c2.78-0.01,5.56-0.01,8.34-0.02c0.51,0,1.03,0.05,1.5-0.23c0.64,0.48,1.2,1.04,1.69,1.67
		c-0.03,0.43-0.38,0.36-0.63,0.36c-3.08-0.03-6.15,0.11-9.23-0.07C51.46,29.69,50.92,29.09,50.43,28.45z"/>
	<path class="st17" d="M12.97,23.6c0.47-0.47,0.95-0.94,1.42-1.41c0.54-0.29,1.11-0.38,1.72-0.38c1.74,0.01,3.48-0.01,5.22,0.01
		c0.54,0.01,1.12-0.06,1.55,0.42c-0.38,0.64-0.84,1.23-1.47,1.65c-2.41,0-4.82,0-7.22-0.01C13.77,23.87,13.3,24.03,12.97,23.6z"/>
	<path class="st18" d="M53.07,14.04c0.28,0.31,0.82,0.26,0.98,0.73c0.56,1.75,0.63,3.51-0.03,5.25c-0.66-0.42-1.16-1.01-1.65-1.6
		c-0.26-0.79,0.26-1.57,0.02-2.36c-0.42-0.77-1.2-0.63-1.88-0.75c-0.26,0.04-0.78-0.14-0.27,0.43c0.45,0.51,1.27,0.8,1.14,1.71
		c-1.44-0.56-2.47-1.67-3.51-2.74c-0.27-0.28-0.37-0.6-0.23-0.98C49.45,13.75,51.29,13.36,53.07,14.04z"/>
	<path class="st13" d="M35.82,12.83c3.05,0,6.1,0.01,9.15,0.01c0.53,0.41,1.02,0.87,1.4,1.43c-0.26,0.58-0.81,0.62-1.32,0.6
		c-2.45-0.1-4.9-0.21-7.35-0.33C37.21,13.82,36.57,13.26,35.82,12.83z"/>
	<path class="st19" d="M43.68,21.03c0.33-0.41,0.8-0.26,1.22-0.26c2.65-0.02,5.3-0.01,7.95-0.02c0.4,0.4,0.81,0.79,1.21,1.19
		c-0.26,0.35-0.64,0.26-0.99,0.26c-2.79,0-5.57-0.01-8.36-0.01C44.37,21.8,44.03,21.42,43.68,21.03z"/>
	<path class="st13" d="M49.25,17.15c-2.56,0-5.12,0-7.67,0.02c-0.42,0-0.89-0.17-1.24,0.24c-0.48-0.55-0.97-1.11-1.45-1.66
		c0.36-0.41,0.85-0.4,1.33-0.4c2.04-0.02,4.07-0.01,6.11-0.01c0.53,0,1.03,0.11,1.49,0.39C48.38,16.11,48.84,16.61,49.25,17.15z"/>
	<path class="st13" d="M17.32,28.44c-0.31-0.37-0.73-0.22-1.11-0.23c-2.14-0.01-4.27,0-6.41-0.02c-0.38,0-0.8,0.14-1.11-0.23
		c0.32-0.47,0.71-0.87,1.17-1.2c2.97,0,5.95,0.01,8.92,0.01C18.29,27.33,17.8,27.88,17.32,28.44z"/>
	<path class="st10" d="M22.88,22.23c-2.83-0.02-5.65-0.03-8.48-0.05c0.42-0.55,0.9-1.05,1.46-1.46c0.51-0.26,1.04-0.36,1.61-0.36
		c1.75,0.01,3.49-0.03,5.24,0.02c0.5,0.02,1.17-0.15,1.36,0.62C23.67,21.42,23.27,21.83,22.88,22.23z"/>
	<path class="st20" d="M24.07,21.02c-0.34-0.41-0.8-0.25-1.22-0.25c-2.33-0.02-4.66-0.03-6.99-0.04c0.47-0.48,0.94-0.95,1.41-1.43
		c2.75,0.02,5.49,0.03,8.24,0.05C25.03,19.9,24.55,20.46,24.07,21.02z"/>
	<path class="st14" d="M47.81,15.72c-2.98,0.01-5.95,0.02-8.93,0.03c-0.39-0.4-0.79-0.81-1.18-1.21c1.66-0.48,3.35-0.25,5.03-0.13
		c1.22,0.09,2.44,0.3,3.63-0.13C46.93,14.67,47.42,15.14,47.81,15.72z"/>
	<path class="st17" d="M27.39,17.4c-0.31-0.38-0.74-0.23-1.11-0.23c-1.87-0.01-3.74,0-5.61-0.01c-0.42,0-0.89,0.16-1.22-0.26
		c0.4-0.39,0.79-0.79,1.19-1.18c0.47-0.24,0.96-0.37,1.49-0.37c1.8,0,3.59-0.01,5.39,0.01c0.47,0.01,0.97-0.01,1.34,0.39
		C28.37,16.29,27.88,16.84,27.39,17.4z"/>
	<path class="st21" d="M28.86,15.73c-2.74-0.01-5.48-0.02-8.22-0.03c0.5-0.63,1.05-1.21,1.72-1.67c2.26-0.27,4.52-0.11,6.78-0.09
		c0.36,0,0.83,0,0.89,0.56C29.72,14.99,29.31,15.38,28.86,15.73z"/>
	<path class="st17" d="M30.03,14.51c-0.48-0.43-1.06-0.2-1.59-0.21c-1.66-0.03-3.32-0.01-4.97-0.02c-0.38,0-0.8,0.14-1.1-0.24
		c0.46-0.4,0.93-0.8,1.39-1.2c2.57,0,5.15,0,7.73,0C30.99,13.39,30.51,13.95,30.03,14.51z"/>
	<path class="st22" d="M50.21,7.8c-2.14-1.86-2.3-1.86-4.51,0.02c-0.62,0.2-1.26,0.64-1.73-0.24c1.25-0.98,2.53-1.92,3.74-2.95
		c0.44-0.37,0.64-0.21,0.97,0.09c1.06,0.96,2.14,1.89,3.21,2.84C51.44,8.49,50.81,8.06,50.21,7.8z"/>
	<path class="st23" d="M53.07,14.04c-1.4,0-2.8-0.01-4.2,0c-0.44,0-0.88,0.02-1.24-0.31c-0.1-0.14-0.2-0.29-0.31-0.43
		c0.22-0.28,0.45-0.55,0.65-0.84c1.35-1.84,1.34-1.83,3.12-0.29C51.79,12.77,52.6,13.22,53.07,14.04z"/>
	<path class="st24" d="M52.11,30.17c0.32-0.45,0.8-0.27,1.21-0.28c2.88-0.02,5.76-0.01,8.65-0.02c0.33,0.21,0.65,0.43,0.8,0.96
		c-3.29,0-6.54-0.01-9.78,0.01C52.49,30.84,52.3,30.53,52.11,30.17z"/>
	<path class="st25" d="M54.02,20.01c0.01-1.75,0.02-3.5,0.03-5.25c0.58,0.28,0.86,1.08,1.66,0.97c0.01,1.68,0.03,3.35,0.04,5.03
		c0,0.27,0.06,0.57-0.27,0.72C55,20.99,54.51,20.5,54.02,20.01z"/>
	<path class="st26" d="M6.78,30.13c2.97,0.01,5.93,0.01,8.9,0.02c-0.24,0.31-0.49,0.63-0.73,0.94c-2.5-0.03-5.01,0.01-7.51-0.03
		c-0.41-0.01-1,0.26-1.15-0.47C6.44,30.44,6.61,30.29,6.78,30.13z"/>
	<path class="st27" d="M6.28,30.6c0.3,0.39,0.73,0.24,1.11,0.24c2.15,0.01,4.3,0,6.45,0.01c0.38,0,0.81-0.15,1.1,0.25
		c-0.2,0.24-0.49,0.24-0.77,0.24c-3.02,0-6.05,0.01-9.07,0.01c-0.41,0-1.01,0.07-0.26-0.52C5.41,31.36,5.85,31.04,6.28,30.6z"/>
	<path class="st28" d="M52.62,15.91c0.21,0.86,0.21,1.71-0.26,2.5c-0.33-0.32-0.66-0.65-0.99-0.97c-0.68-0.74-1.36-1.47-2.17-2.36
		c0.51,0,0.86,0,1.22,0c0.5,0.21,0.96,0.49,1.39,0.81C52.09,16.11,52.35,16.19,52.62,15.91z"/>
	<path class="st29" d="M57.66,12.58c0.74,0.64,1.49,1.28,2.37,2.04c-1.01,0.21-1.79,0.31-2.45-0.49c-0.4-0.48-0.91-0.87-1.37-1.3
		C56.63,12.41,57.15,12.55,57.66,12.58z"/>
	<path class="st30" d="M50.21,7.8c0.56-0.1,1.17,0.22,1.67-0.23c0.64,0.56,1.28,1.11,1.92,1.67c-0.35,0.85-0.93,0.34-1.44,0.24
		C51.61,8.96,50.77,8.56,50.21,7.8z"/>
	<path class="st31" d="M57.66,12.58c-0.42,0.47-0.97,0.17-1.46,0.26c-0.64-0.56-1.27-1.12-1.91-1.69c0.35-0.84,0.93-0.33,1.43-0.24
		C56.37,11.47,57.02,12.03,57.66,12.58z"/>
	<path class="st32" d="M43.96,7.59c0.53,0.43,1.16,0.1,1.73,0.24c-0.39,0.39-0.79,0.79-1.17,1.18c-0.42,0.43-0.77,0.92-1.43,0.2
		c-0.69-0.75,0.08-0.92,0.4-1.27C43.62,7.8,43.8,7.71,43.96,7.59z"/>
	<path class="st24" d="M55.72,10.92c-0.48,0.09-1.01-0.2-1.43,0.24c-0.65-0.56-1.29-1.11-1.94-1.67c0.48-0.09,1.02,0.2,1.44-0.24
		C54.44,9.8,55.08,10.36,55.72,10.92z"/>
	<path class="st33" d="M35.56,59.64c0,2.33-0.01,4.65,0,6.98c0,0.51-0.22,0.73-0.72,0.7c-0.08,0-0.16,0-0.24,0
		c-9.13-0.01-18.26-0.02-27.39-0.02C6.53,66,6.8,64.56,6.67,63.2c-0.36-3.63-0.22-3.7,3.4-3.7c8.02,0,16.05,0,24.07,0
		C34.62,59.49,35.1,59.46,35.56,59.64z"/>
	<path class="st34" d="M35.56,59.64c-0.39,0.43-0.9,0.24-1.36,0.24c-8.63,0.01-17.27,0.03-25.9-0.02c-1.07-0.01-1.33,0.3-1.33,1.35
		c0,2.04,0.43,4.05,0.24,6.09c-0.28,0.01-0.56,0.01-0.84,0.04c-0.84,0.12-1.09-0.24-1.08-1.07c0.05-2.32,0.05-4.63,0-6.95
		c-0.02-0.82,0.2-1.14,1.06-1.11c2.55,0.11,5.11,0.09,7.66,0.12c6.69,0.07,13.37-0.04,20.06-0.16
		C35.3,58.15,35.89,58.32,35.56,59.64z"/>
	<path class="st35" d="M39.66,58.68c-0.88,0-1.77-0.01-2.65-0.01c0.15-1.1-0.27-1.47-1.42-1.46c-1.52,0.02-3.07,0.23-4.57-0.2
		c-0.15-0.19-0.46-0.08-0.57-0.32c-0.02-0.12-0.01-0.24,0.04-0.36c0.07-0.18,0.17-0.35,0.26-0.53c0.35-0.61,0.37-1.29,0.38-1.97
		c0.07-3.33-0.18-6.68,0.22-10c0.08-0.63-0.05-1.27-0.13-1.9c-0.08-0.59-0.18-1.19,0.22-1.72c0.95,0.96,1.86,1.93,1.86,3.44
		c-0.01,3-0.01,6,0,9c0.01,1.76,0.07,1.78,1.82,1.84c1.54,0.06,3.1-0.24,4.64,0.15C40.14,56,40.23,57.34,39.66,58.68z"/>
	<path class="st36" d="M8.98,47.4c0.06,0,0.12,0,0.18,0c0.42,0.42,0.35,0.96,0.35,1.46c0.02,1.63,0,3.27,0.01,4.9
		c0.01,1.2,0.11,1.31,1.33,1.13c1.39-0.2,2.78-0.2,4.17-0.16c0.39,0.15,0.38,0.51,0.45,0.83c0.02,0.31,0.09,0.62,0.13,0.93
		c0,0.19-0.07,0.36-0.2,0.5c-1.86,0.01-3.72,0.02-5.58,0.03c-0.39,0-0.83,0.07-0.9-0.5C8.94,53.48,8.96,50.44,8.98,47.4z"/>
	<path class="st37" d="M37.02,59.89c2.19,0,4.37,0,6.56-0.02c0.87,0,1.36,0.24,0.86,1.2c-0.73,0.55-1.55,0.34-2.36,0.27
		c-1.55-0.41-3.15,0.03-4.71-0.27c-0.13-0.07-0.25-0.15-0.36-0.25C37.02,60.51,37.02,60.2,37.02,59.89z"/>
	<path class="st33" d="M37.01,60.82c0.08,0.01,0.15,0.02,0.23,0.03c0.41,0.29,1.01-0.14,1.36,0.36c-0.03,1.96,0.25,3.94-0.41,5.86
		c-0.27,0-0.55-0.04-0.73,0.23C36.79,67.19,37,66.65,37,66.27C36.99,64.46,37.01,62.64,37.01,60.82z"/>
	<path class="st38" d="M15.4,57c0-0.17,0.01-0.34,0.01-0.52c0.2-0.15,0.43-0.17,0.66-0.13c4.24,0.16,8.49,0.02,12.73,0.07
		c0.58,0.01,1.2-0.11,1.71,0.33c0.2,0.01,0.39,0.06,0.49,0.25C25.81,57.01,20.6,57,15.4,57z"/>
	<path class="st39" d="M39.61,54.59c-2.04,0.54-4.11,0.2-6.17,0.18c-0.63-0.01-0.51-0.71-0.51-1.17c-0.01-3.35,0.01-6.71-0.02-10.06
		c-0.01-0.75,0.17-1.58-0.97-1.88c-0.56-0.15,0.07-1.07-0.44-1.46c-1.08-0.33-2.19-0.36-3.31-0.35c-3.46,0.01-6.93,0.01-10.39,0
		c-0.58,0-1.21,0.12-1.67-0.41c0.25-1,1.16-1.49,1.76-2.2c2.94-3.49,5.98-6.89,9-10.31c0.24-0.27,0.51-0.84,0.95-0.16
		c0.22,0.28,0.18,0.61,0.12,0.92c-0.37,1.78-0.15,3.58-0.12,5.37c0.35,1.03,0.94,1.44,2.15,1.34c2.41-0.19,4.85-0.05,7.28-0.06
		c1.8-0.01,2.31-0.48,2.29-2.24c-0.02-1.59,0.16-3.18-0.13-4.76c-0.34-1.8-0.63-3.61-1.45-5.29c-0.12-0.25-0.16-0.54-0.02-0.81
		c1.27,0.6,2.41,1.43,3.3,2.49c2.03,2.41,4.2,4.68,6.45,6.88c1.31,1.28,2.51,2.65,3.66,4.09c1.27,1.59,3.09,2.02,4.96,1.59
		c1.36-0.32,1.4,0.25,1.33,1.23C57.15,44,57.51,50.5,57.4,57c-1.02,0.01-2.05,0.02-3.07,0.03c-0.68,0.26-1.3,0.16-1.86-0.32
		c-0.32-0.6-0.22-1.25-0.24-1.88c-0.09-3.36,0.21-6.72-0.2-10.07c-0.16-1.29-0.35-1.5-1.66-1.52c-3.04-0.06-6.08-0.01-9.12-0.02
		c-0.86,0-1.25,0.36-1.23,1.22c0.04,1.96-0.07,3.91,0.13,5.87C40.3,51.75,40.55,53.26,39.61,54.59z"/>
	<path class="st33" d="M65.78,58.91c0.01,2.47-0.01,4.93,0.04,7.4c0.01,0.78-0.23,1.04-1.02,1.03c-2.71-0.04-5.41-0.02-8.12-0.02
		c-0.19-0.22-0.31-0.47-0.32-0.76c-0.06-2.03-0.06-4.07-0.25-6.1c-0.09-0.93,0.44-1.4,1.37-1.41c1.16-0.02,2.29,0.03,3.44,0.26
		C62.54,59.65,64.23,59.83,65.78,58.91z"/>
	<path class="st34" d="M65.78,58.91c-0.2,0.72-0.61,0.94-1.42,1.01c-2.31,0.22-4.5-0.66-6.8-0.55c-0.9,0.04-1.24,0.29-1.12,1.17
		c0.32,2.25,0.24,4.51,0.23,6.78c-0.49-0.05-1.04,0.24-1.44-0.27c0.29-0.62,0.02-1.24-0.01-1.86c0-1.96,0.04-3.91-0.01-5.87
		c-0.02-0.81,0.21-1.08,1.06-1.12c2.92-0.13,5.81,0.32,8.72,0.2C65.37,58.39,65.75,58.39,65.78,58.91z"/>
	<path class="st40" d="M52.58,56.77c0.61-0.08,1.18,0.09,1.74,0.26c-0.02,2.44-0.04,4.88-0.07,7.33c-0.56-0.62-1.13-1.24-1.69-1.86
		c-0.26-1.45-0.44-2.91-0.35-4.38C52.25,57.64,52.21,57.15,52.58,56.77z"/>
	<path class="st41" d="M49.48,61.33c-0.9,0-1.8,0.03-2.7-0.01c-0.48-0.02-0.83,0.13-1.12,0.49c0-0.36-0.01-0.72-0.01-1.08
		c-0.02-1.37-0.43-1.76-1.76-1.82c-0.61-0.03-1.28,0.24-1.84-0.23c-0.29-0.32-0.36-0.71-0.37-1.11c-0.02-3.67-0.04-7.34,0.01-11.02
		c0.01-0.91,0.44-1.41,1.39-1.41c1.08-0.01,1.47,0.37,1.49,1.68c0.04,3.19,0.01,6.39,0.02,9.58c0,0.46-0.11,0.95,0.22,1.46
		c0.29-0.48,0.2-0.95,0.2-1.39c0.01-3.19-0.01-6.39,0.02-9.58c0.01-0.83,0.08-1.62,1.18-1.75c1.39-0.17,1.91,0.26,1.95,1.67
		c0.05,2.07-0.1,4.15,0.09,6.22c-0.01,0.9,0.67,1.22,1.32,1.58C50.04,56.85,49.75,59.09,49.48,61.33z"/>
	<path class="st42" d="M48.06,53.44c-0.47-0.87-0.22-1.8-0.25-2.71c-0.04-1.44-0.06-2.88,0.01-4.31c0.05-1.01-0.56-0.94-1.23-0.95
		c-0.69-0.01-1.23-0.03-1.21,0.96c0.05,3.51,0.02,7.03,0.02,10.54c0,0.28,0,0.56,0,0.84c-0.01,0.4,0.05,0.83-0.56,0.85
		c-0.68,0.02-0.64-0.45-0.64-0.9c0-3.08,0-6.15,0-9.23c0-0.56-0.02-1.12,0-1.68c0.03-0.8,0.09-1.45-1.12-1.43
		c-1.16,0.01-1.05,0.64-1.05,1.38c0.01,3.95,0,7.91,0,11.86c-0.41,0-0.82-0.01-1.23-0.01c-0.38-0.43-0.35-0.96-0.36-1.48
		c-0.01-3.95-0.02-7.9,0-11.85c0.01-1.7,0.28-1.88,2.01-1.76c2.55,0.18,5.11,0.01,7.66,0.09c1.3,0.04,1.48,0.24,1.48,1.43
		c-1.09,0.81-1.1,1.98-1.05,3.18c0.04,1.07,0.02,2.13,0,3.2c-0.01,0.51-0.01,1.04-0.43,1.43c-0.44,0.25-0.81,0.1-1.16-0.2
		c0.28-2.07,0.15-4.15,0.05-6.23c-0.24,2.02-0.07,4.04-0.19,6.06C48.88,53.09,48.66,53.42,48.06,53.44z"/>
	<path class="st43" d="M51.39,45.23c0.14-0.92-0.21-1.21-1.17-1.23c-2.86-0.04-5.73,0.27-8.59-0.18c-0.91-0.14-0.8,0.53-0.8,1.08
		c0,4.11,0,8.22,0,12.32c0,0.48-0.02,0.96-0.03,1.44c-0.39,0-0.77,0-1.16,0.01c-0.02-1.36-0.03-2.73-0.05-4.09
		c0.51-3.46-0.08-6.92,0.04-10.38c0.04-1.03,0.28-1.39,1.35-1.36c3.19,0.07,6.38,0.01,9.57,0.03c1.7,0.01,1.67,0.06,1.82,1.7
		c0.38,4.06,0.02,8.13,0.18,12.19c0,1.91-0.01,3.82-0.01,5.74c-0.31-0.47-0.1-1.46-1.17-1.18c-0.41-0.41-0.38-0.95-0.38-1.46
		c-0.02-4.34-0.01-8.69-0.01-13.03C51.01,46.27,51.08,45.72,51.39,45.23z"/>
	<path class="st44" d="M38.2,67.08c0.03-2-0.08-4.01,0.25-5.99c1.2-0.21,2.41-0.18,3.61-0.02c0.8,0,1.59,0.01,2.39,0.01
		c0,1.71-0.03,3.43,0.01,5.14c0.02,0.83-0.32,1.14-1.13,1.12C41.61,67.29,39.89,67.35,38.2,67.08z"/>
	<path class="st45" d="M52.66,64.42c0.52,0.38,0.8,0.95,1.15,1.46c-0.1,0.78-0.73,0.75-1.26,0.8c-2.11,0.19-4.2-0.11-6.3-0.35
		c-0.25-0.03-0.43-0.19-0.53-0.43c0-0.66-0.24-1.33,0.13-1.97C47.53,63.32,51.49,63.6,52.66,64.42z"/>
	<path class="st46" d="M45.72,65.91c2.41,0.32,4.83,0.61,7.28,0.43c0.31-0.02,0.61-0.18,0.81-0.46c0.33,0.32,0.59,0.71,0.4,1.16
		c-0.2,0.49-0.69,0.28-1.06,0.28c-2.5,0.01-5.01-0.01-7.51-0.02C45.67,66.84,45.7,66.37,45.72,65.91z"/>
	<path class="st47" d="M52.66,64.42c-2.23-0.78-4.55-0.14-6.81-0.48c0.02-0.46,0.03-0.92,0.05-1.38c1.24,0.37,2.52,0.22,3.75,0.11
		C51.15,62.56,52.01,63.23,52.66,64.42z"/>
	<path class="st48" d="M51.39,45.23c0,5.36,0,10.73,0.01,16.09c-0.4,0.36-0.8,0.31-1.21,0.02c-0.44-0.55-0.34-1.2-0.36-1.83
		c-0.05-1.75,0.16-3.5-0.12-5.24c-0.08-0.45-0.11-0.9,0.21-1.29c0.47-0.77,0.25-1.63,0.27-2.45c0.03-1.19,0.07-2.39-0.01-3.58
		C50.11,45.99,50.35,45.36,51.39,45.23z"/>
	<path class="st49" d="M49.91,54.04c0.44,0.69,0.28,1.46,0.28,2.2c0.02,1.7,0,3.4-0.01,5.1c-0.24-0.01-0.47-0.01-0.71-0.02
		c-0.28-2.27,0.15-4.55-0.02-6.83C49.48,54.22,49.63,54.07,49.91,54.04z"/>
	<path class="st50" d="M16.13,39.43c4.8,0.05,9.61,0.13,14.41,0.13c0.59,0,0.76,0.24,0.96,0.64c0.3,4.79-0.16,9.58,0.01,14.37
		c0.02,0.72-0.31,1.2-0.7,1.71c-0.39,0.24-0.83,0.24-1.28,0.24c-4.23,0-8.47,0-12.7,0c-0.65,0-1.29-0.03-1.64-0.73
		c-0.02-0.32-0.04-0.63-0.06-0.95c-0.33-0.35-0.34-0.79-0.34-1.23c-0.02-3.85-0.01-7.7-0.01-11.55c0-0.48,0.08-0.95,0.34-1.37
		C14.58,39.6,14.62,39.55,16.13,39.43z"/>
	<path class="st51" d="M27.44,33.18c0.07-2.14-0.31-4.31,0.39-6.41c0.51-3.12,1.46-6.06,3.71-8.39c1.49-1.55,3.56-1.41,4.85,0.32
		c0.59,0.79,1.04,1.69,1.55,2.55c0.91,1.91,1.5,3.9,1.73,6.01c0.19,1.75,0.04,3.51,0.08,5.26c0.02,0.79-0.5,1.03-1.15,1.08
		c-1.04,0.09-2.07,0.04-3.11,0.04c-2.04,0.01-4.07,0-6.11,0C28.7,33.63,28.02,33.61,27.44,33.18z"/>
	<path class="st52" d="M15.12,40.69c0,4.72,0.01,9.43,0.01,14.15c-0.58,0.37-1.24,0.27-1.86,0.22c-1.12-0.09-2.2,0.21-3.3,0.29
		c-0.75,0.05-0.83-0.18-0.82-0.82c0.03-2.38,0.01-4.76,0.01-7.14c1.87-2.2,3.75-4.4,5.63-6.59C14.86,40.74,15.01,40.73,15.12,40.69z
		"/>
	<path class="st53" d="M52.62,15.91c-0.07,0.29,0.22,1.03-0.54,0.5c-0.58-0.4-1.26-0.7-1.66-1.33
		C51.21,15.21,52.22,14.75,52.62,15.91z"/>
	<path class="st54" d="M15.19,55.79c0.46,0.46,1.03,0.5,1.65,0.5c4.66-0.02,9.31-0.01,13.97-0.01c-0.09,0.09-0.17,0.18-0.26,0.28
		c-3.18,0.19-6.36,0.07-9.55,0.07c-1.7,0-3.41,0.17-5.11-0.1c-0.16-0.01-0.32-0.03-0.48-0.04C15.29,56.26,15.12,56.06,15.19,55.79z"
		/>
	<path class="st55" d="M15.88,56.52c4.89,0.01,9.77,0.02,14.66,0.03c-0.01,0.07-0.02,0.14-0.03,0.21c-4.5,0-9,0-13.51-0.02
		C16.63,56.74,16.2,56.88,15.88,56.52z"/>
	<path class="st4" d="M42.05,61.07c-1.2,0.01-2.41,0.01-3.61,0.02c-0.4-0.07-0.86,0.15-1.2-0.23
		C38.85,60.97,40.47,60.58,42.05,61.07z"/>
	<path class="st56" d="M27.44,33.18c3.74,0.03,7.48,0.05,11.22,0.09c0.8,0.01,1.03-0.42,1.02-1.13c-0.02-1.63-0.01-3.26-0.01-4.89
		c0.41,2.04,0.3,4.1,0.07,6.14c-0.09,0.79-0.76,1.33-1.73,1.31c-2.39-0.04-4.77-0.01-7.16-0.01c-0.28,0-0.59-0.09-0.83,0.01
		C28.47,35.34,27.96,34.26,27.44,33.18z"/>
	<path class="st57" d="M49.91,54.04c-0.15,0.15-0.31,0.31-0.46,0.46c-0.87,0.18-1.55,0.11-1.39-1.06c0.24-0.24,0.49-0.49,0.73-0.73
		c0.05-0.09,0.12-0.12,0.22-0.08c0.36-0.02,0.65,0.13,0.91,0.35C49.92,53.34,49.91,53.69,49.91,54.04z"/>
	<path class="st58" d="M49.01,52.63c-0.07,0.04-0.14,0.07-0.22,0.08c-0.53-0.58-0.24-1.3-0.26-1.94c-0.05-1.51-0.02-3.03-0.01-4.54
		c0-0.3-0.05-0.7,0.44-0.68c0.33,0.02,0.5,0.27,0.5,0.57c0.01,1.99,0.02,3.99-0.02,5.98C49.44,52.28,49.16,52.45,49.01,52.63z"/>
	<path class="st59" d="M21.82,51.96c0.18,3.52,0.18,3.52-3.36,3.56c-2.58,0.03-2.61,0.03-2.5-2.6c0.05-1.11,0.13-2.23-0.01-3.33
		c-0.12-1,0.19-1.41,1.21-1.26c0.43,0.07,0.87,0.04,1.31,0.06C19.67,49.51,20.99,50.5,21.82,51.96z"/>
	<path class="st60" d="M23.25,44.02c-0.02-0.04-0.05-0.07-0.05-0.11c-0.38-3.27-0.38-3.28,2.86-3.26c1.03,0.01,2.06-0.12,3.09,0.13
		c0.43,0.1,0.71,0.16,0.7,0.71c-0.03,1.67-0.02,3.34,0,5.02c0.01,0.51-0.19,0.72-0.7,0.7c-0.68-0.03-1.35-0.03-2.03-0.05
		c-0.99-0.7-3.28-3.96-3.55-5.12C23.42,42.76,23.94,43.49,23.25,44.02z"/>
	<path class="st61" d="M23.31,50.98c-0.02-0.68-0.05-1.35-0.07-2.03c-0.01-0.38,0.1-0.63,0.55-0.51c0.98,0.41,1.36,1.4,2.01,2.11
		c1.18,1.28,2.22,2.68,3.43,3.93c0.2,0.2,0.35,0.43,0.39,0.72c-0.91,0.38-1.84,0.22-2.77,0.06C25.47,54.02,24.2,52.65,23.31,50.98z"
		/>
	<path class="st61" d="M16.1,41.87c-0.27-1.35-0.27-1.35,1.48-1.19c1.79,1.45,3.2,3.21,4.24,5.26c0.07,1.39,0.07,1.39-1.54,1.23
		C18.59,45.63,17.34,43.76,16.1,41.87z"/>
	<path class="st62" d="M29.63,55.21c-2.15-2.07-3.99-4.43-5.83-6.77c0.87-0.01,1.74-0.01,2.61-0.02c1.36,1.43,2.46,3.03,3.39,4.77
		C29.83,53.87,29.89,54.56,29.63,55.21z"/>
	<path class="st63" d="M16.1,41.87c1.62,1.59,2.87,3.46,4.18,5.29c-1.1,0.15-2.21,0.17-3.31,0.21c-1.02,0.04-1.17-0.4-0.87-1.23
		c0.43-0.12,0.62,0.25,0.76,0.35c-0.2-0.06-0.07-0.92-0.78-0.5C15.85,44.62,15.86,43.24,16.1,41.87z"/>
	<path class="st64" d="M21.83,45.94c-1.41-1.75-2.83-3.51-4.24-5.26c1.11,0,2.22,0,3.32,0c0.55,0.22,0.75,0.7,0.94,1.2
		C21.84,43.23,21.83,44.58,21.83,45.94z"/>
	<path class="st65" d="M23.25,44.02c0-0.66,0-1.31,0-1.97c0.08-0.02,0.16-0.05,0.23-0.07c1.21,1.73,2.42,3.45,3.63,5.18
		c-0.6,0.1-1.2,0.1-1.8-0.01c-0.96-0.76-1.59-1.76-2-2.9C23.29,44.17,23.27,44.1,23.25,44.02z"/>
	<path class="st66" d="M29.79,53.19c-1.26-1.49-2.45-3.04-3.39-4.77c0.51,0,1.03,0.01,1.54,0.01c1.01,0.5,1.38,1.48,1.83,2.4
		C29.78,51.62,29.79,52.41,29.79,53.19z"/>
	<path class="st67" d="M23.31,50.98c1.21,1.41,2.52,2.73,3.55,4.29c-0.34,0.02-0.68,0.04-1.01,0.05c-1.16-0.5-1.93-1.4-2.55-2.46
		C23.31,52.23,23.31,51.61,23.31,50.98z"/>
	<path class="st68" d="M19.05,48.41c3.32-0.05,2.85-0.21,2.76,2.85C20.59,50.59,19.55,49.76,19.05,48.41z"/>
	<path class="st69" d="M23.31,44.25c0.76,0.9,1.44,1.86,2,2.9c-2.06,0.15-2.06,0.15-2.05-1.85C23.26,44.95,23.29,44.6,23.31,44.25z"
		/>
	<path class="st70" d="M29.77,50.83c-0.61-0.8-1.22-1.6-1.83-2.4C29.93,48.43,29.93,47.78,29.77,50.83z"/>
	<path class="st71" d="M19.05,48.41c0.92,0.95,1.84,1.9,2.76,2.85c0,0.24,0.01,0.47,0.01,0.71c-1.19-1.12-2.44-2.18-3.35-3.56
		C18.67,48.4,18.86,48.4,19.05,48.41z"/>
	<path class="st72" d="M24.96,55.29c-1.74,0.13-1.74,0.13-1.64-1.67C24.23,53.83,24.8,54.36,24.96,55.29z"/>
	<path class="st73" d="M24.96,55.29c-0.42-0.68-1.02-1.18-1.64-1.67c-0.01-0.26-0.01-0.51-0.02-0.77c0.85,0.82,1.7,1.64,2.55,2.46
		C25.55,55.46,25.25,55.39,24.96,55.29z"/>
	<path class="st74" d="M16.08,45.99c0.03-0.19-0.01-0.45,0.1-0.56c0.21-0.21,0.32,0.08,0.42,0.2c0.38,0.44,0.75,0.9,1.21,1.46
		c-1,0.25-1.12-0.78-1.71-0.95C16.08,46.1,16.08,46.05,16.08,45.99z"/>
	<path class="st75" d="M21.84,41.88c-0.43-0.31-0.65-0.78-0.94-1.2C22.12,40.37,21.93,41.17,21.84,41.88z"/>
	<path class="st60" d="M34.21,28.45c-0.02-2.99-0.04-5.97-0.05-8.96c0-0.22-0.08-0.54,0.23-0.6c0.15-0.03,0.37,0.12,0.52,0.23
		c0.22,0.17,0.43,0.36,0.58,0.59c2.46,3.72,3.32,7.84,3.02,12.25c-0.85-1.97-2.38-3.45-3.77-5.21c-0.18,0.58-0.01,1.12-0.25,1.57
		C34.43,28.44,34.34,28.47,34.21,28.45z"/>
	<path class="st62" d="M29.54,26.19c0.09-0.91,0.39-1.76,0.75-2.6c1.32,0.79,2.18,1.94,2.64,3.4c0.08,1.1,0.34,2.19,0.18,3.3
		c-1.23-0.45-1.68-1.7-2.53-2.54C30.16,27.32,29.66,26.86,29.54,26.19z"/>
	<path class="st76" d="M34.27,28.44c0-0.75,0-1.5,0-2.25c0.09-0.04,0.18-0.09,0.27-0.13c1.28,1.58,2.59,3.13,3.82,4.75
		c0.21,0.27,0.11,0.77,0.16,1.16c-0.49,0.15-0.98,0.09-1.48,0.04C35.82,31.04,34.73,29.98,34.27,28.44z"/>
	<path class="st60" d="M32.9,32.01c-1.04,0.02-2.07,0.01-3.11,0.06c-0.64,0.03-0.92-0.13-0.92-0.85c-0.01-1.32,0.07-2.62,0.37-3.9
		C30.58,28.78,32.11,30.11,32.9,32.01z"/>
	<path class="st77" d="M32.9,32.01c-1.15-1.62-2.71-2.92-3.66-4.7c0.1-0.37,0.2-0.74,0.3-1.11c1.19,1.37,2.38,2.74,3.57,4.1
		C33.05,30.87,33.42,31.49,32.9,32.01z"/>
	<path class="st78" d="M32.93,27c-0.88-1.13-1.76-2.27-2.64-3.4c0.12-0.62,0.36-1.2,0.69-1.74c1.23,0.35,1.67,1.39,2.12,2.43
		C33.06,25.19,33.35,26.12,32.93,27z"/>
	<path class="st60" d="M33.11,24.29c-0.71-0.8-1.27-1.74-2.12-2.43c0.44-1.13,0.93-2.22,2.12-3.01
		C33.11,20.77,33.11,22.53,33.11,24.29z"/>
	<path class="st79" d="M34.27,28.44c0.92,1.19,1.85,2.38,2.77,3.56c-2.9,0.18-2.9,0.18-2.86-2.74c0-0.27,0.03-0.55,0.04-0.82
		C34.21,28.45,34.27,28.44,34.27,28.44z"/>
</g>
</svg>
