<?xml version="1.0" encoding="utf-8"?>
<!-- Generator: Adobe Illustrator 23.0.2, SVG Export Plug-In . SVG Version: 6.00 Build 0)  -->
<svg version="1.1" id="Camada_1" xmlns="http://www.w3.org/2000/svg" xmlns:xlink="http://www.w3.org/1999/xlink" x="0px" y="0px"
	 viewBox="0 0 69.17 70.66" style="enable-background:new 0 0 69.17 70.66;" xml:space="preserve">
<style type="text/css">
	.st0{fill:#FEFEFE;}
	.st1{fill:#63193B;}
	.st2{fill:#9C263A;}
	.st3{fill:#9A3E58;}
	.st4{fill:#953C55;}
	.st5{fill:#C1590B;}
	.st6{fill:#378051;}
	.st7{fill:#9B3E58;}
	.st8{fill:#CD577F;}
	.st9{fill:#B74074;}
	.st10{fill:#B84074;}
	.st11{fill:#EE7C6F;}
	.st12{fill:#983064;}
	.st13{fill:#CE577F;}
	.st14{fill:#B73F74;}
	.st15{fill:#973064;}
	.st16{fill:#973063;}
	.st17{fill:#0F6789;}
	.st18{fill:#AA396E;}
	.st19{fill:#972F64;}
	.st20{fill:#B94174;}
	.st21{fill:#E7776D;}
	.st22{fill:#DB7B9E;}
	.st23{fill:#B84174;}
	.st24{fill:#DD7CA0;}
	.st25{fill:#9C3466;}
	.st26{fill:#CC5E6F;}
	.st27{fill:#4BEEE6;}
	.st28{fill:#BB4375;}
	.st29{fill:#B74356;}
	.st30{fill:#CD577E;}
	.st31{fill:#D96178;}
	.st32{fill:#B04556;}
	.st33{fill:#E4746B;}
	.st34{fill:#B84356;}
	.st35{fill:#D96077;}
	.st36{fill:#DB7C9F;}
	.st37{fill:#98495E;}
	.st38{fill:#A9546F;}
	.st39{fill:#92394C;}
	.st40{fill:#99BC73;}
	.st41{fill:#779C4E;}
	.st42{fill:#AFFB59;}
	.st43{fill:#9D4C63;}
	.st44{fill:#0D6387;}
	.st45{fill:#0E6184;}
	.st46{fill:#EEFDFA;}
	.st47{fill:#325866;}
	.st48{fill:#A82B3A;}
	.st49{fill:#9C485D;}
	.st50{fill:#E2E2E2;}
	.st51{fill:#D15780;}
	.st52{fill:#49EFE7;}
	.st53{fill:#FCFDFD;}
	.st54{fill:#FDFEFE;}
	.st55{fill:#47EFE7;}
	.st56{fill:#48EFE7;}
	.st57{fill:#F9FDFD;}
	.st58{fill:#FCFEFE;}
	.st59{fill:#45F0E7;}
	.st60{fill:#4BF4EB;}
	.st61{fill:#E7FBF6;}
	.st62{fill:#4AF5EC;}
	.st63{fill:#50F5EB;}
	.st64{fill:#E5FCF8;}
	.st65{fill:#E1FAF6;}
	.st66{fill:#4AF1E9;}
	.st67{fill:#EFF7F7;}
	.st68{fill:#49EEE6;}
	.st69{fill:#4AF0E8;}
	.st70{fill:#FAFDFD;}
	.st71{fill:#FAFCFC;}
	.st72{fill:#4AF2E9;}
</style>
<g>
	<path class="st0" d="M33.28,3.39c1.85,0.17,4.16-0.53,6.2,0.32c1.71,0.71,2.7,0.11,3.86-0.87c0.97-0.82,2.04-1.54,3.1-2.26
		c1.45-0.97,2.93-0.67,4.19,0.51c2.22,2.07,4.53,4.02,6.81,6.01c1.77,1.55,3.57,3.07,5.31,4.65c1.03,0.94,1.19,2.26,1.04,3.55
		c-0.19,1.65-1.43,2.47-3.55,2.43c-0.83-0.01-1.11,0.11-1.26,1.1c-0.32,2.17,0.43,3.69,2.12,4.91c1.76,1.27,2.99,3.09,4.64,4.49
		c1.24,1.05,1.48,2.85,0.75,4.53c-0.59,1.34-1.86,1.49-3.11,1.62c-0.28,0.03-0.56,0.03-0.84,0c-0.6-0.07-0.83,0.12-0.83,0.78
		c0,2.08-0.1,4.15-0.11,6.23c-0.03,3.96,0,7.92-0.05,11.88c-0.01,0.8,0.22,1.05,1,0.98c0.83-0.07,1.68-0.05,2.52-0.04
		c2.69,0.03,3.33,0.83,3.79,3.64c0.44,2.65,0.51,5.4-0.3,8.05c-0.08,0.26-0.12,0.55-0.1,0.82c0.12,2.31-1.05,3.5-3.79,3.51
		c-9.25,0.05-18.52-0.39-27.75,0.09c-9.71,0.51-19.4,0.07-29.09,0.33c-1.25,0.03-2.45-0.33-3.76-0.1c-1.5,0.26-2.78-1.34-2.82-3.48
		c-0.05-2.79-0.24-5.59,0.14-8.38c0.02-0.16,0.04-0.32,0.05-0.48c0.07-3.02,0.24-3.26,3.1-3.94c0.67-0.16,0.43-0.59,0.42-0.91
		c-0.02-2.68-0.06-5.35-0.11-8.03C4.77,42.24,5,39.14,4.86,36.02c-0.04-0.98-0.32-1.24-1.22-1.15c-0.59,0.06-1.19,0.02-1.78-0.16
		c-0.62-0.18-1.05-0.56-1.36-1.09c-0.91-1.55-0.54-4.37,0.76-5.66C6.38,22.91,11.53,17.9,16.6,12.79c2.73-2.75,5.59-5.37,8.1-8.33
		c0.88-1.04,2.2-1.04,3.44-1.07C29.74,3.36,31.34,3.39,33.28,3.39z"/>
	<path d="M6.17,33.68c-1.11,0-2.19-0.02-3.27,0.01c-0.99,0.03-1.51-0.5-1.61-1.4c-0.17-1.45-0.02-2.71,1.19-3.9
		c7.37-7.21,14.72-14.45,21.91-21.84c1.45-1.48,2.8-2.05,4.77-1.96c2.87,0.13,5.76,0.02,8.63-0.01c0.82-0.01,1.62,0.08,2.29,0.55
		c0.86,0.61,1.57,0.43,2.35-0.14c1.51-1.11,2.93-2.34,4.54-3.32c1.15-0.71,1.84-0.58,2.81,0.3c2.27,2.07,4.61,4.05,6.93,6.07
		c1.63,1.41,3.25,2.83,4.89,4.22c0.66,0.56,0.91,1.28,1.01,2.09c0.17,1.33-0.39,2.08-1.72,2.19c-0.75,0.06-1.52,0.06-2.28,0
		c-0.66-0.05-0.83,0.21-0.78,0.82c0.04,0.48,0.09,0.98-0.01,1.44c-0.58,2.6,0.59,4.35,2.53,5.93c1.66,1.35,3.11,2.98,4.67,4.47
		c0.96,0.91,0.7,2.02,0.4,3.02c-0.26,0.9-1.21,0.93-2.01,0.98c-0.91,0.06-2.09-0.28-2.67,0.17c-0.62,0.48-0.17,1.72-0.21,2.62
		c-0.31,6.27-0.05,12.55-0.19,18.83c-0.01,0.58,0.23,0.65,0.71,0.64c1.32-0.03,2.64-0.05,3.96-0.03c1.85,0.03,2.59,0.69,2.71,2.53
		c0.11,1.79,0.26,3.6,0.12,5.38c-0.12,1.52-0.47,3.04-0.74,4.56c-0.18,1.04-1.38,1.2-2.35,1.19c-9.37-0.01-18.77-0.42-28.11,0.06
		c-9.46,0.49-18.9,0.05-28.34,0.34c-1.4,0.04-2.77-0.69-4.21-0.07c-0.5,0.22-0.95-0.26-1.21-0.77c-0.35-0.69-0.5-1.41-0.49-2.19
		c0.05-3.07,0.07-6.13,0.12-9.2c0.01-1.07,0.75-1.72,1.99-1.77c1.66-0.08,1.67-0.08,1.65-1.74c-0.03-3.84-0.23-7.68-0.07-11.5
		C6.2,39.4,5.75,36.59,6.17,33.68z"/>
	<path class="st1" d="M56.6,18.29c0.02,0.48,0.13,0.98,0.03,1.43c-0.57,2.65,0.94,4.25,2.78,5.7c1.76,1.39,3.17,3.14,4.82,4.65
		c0.45,0.42,0.37,0.92,0.19,1.44c-0.19,0.57-0.68,0.46-1.1,0.47C62.35,31.99,61.4,32,60.44,32c-0.45,0-0.89-0.03-1.15,0.44
		c-0.33,0.59-0.87,0.38-1.37,0.36c-1.27-0.92-2.73-0.62-4.05-0.4c-1.51,0.25-2.48-0.24-3.46-1.3c-3.32-3.62-6.63-7.25-9.91-10.89
		c-1.71-1.9-3.51-3.72-5.11-5.71c-0.95-1.18-2.74-1.29-3.79-0.19c-2.21,2.31-4.32,4.71-6.46,7.08c-2.03,2.25-4.08,4.5-6.12,6.74
		c-1.23,1.36-2.52,2.67-3.77,4c-0.6,0.64-1.26,1.01-2.12,0.83c-1.47-0.31-2.95-0.15-4.42-0.19C8.2,32.69,7.81,33,7.39,33.21
		c-0.22-0.51-0.68-0.65-1.16-0.69c-0.71-0.05-1.43,0.02-2.13-0.05c-0.55-0.06-1.41,0.37-1.59-0.35c-0.2-0.82-0.39-1.78,0.44-2.56
		c3.79-3.61,7.36-7.44,11.22-11c4.23-3.9,8.08-8.18,12.04-12.36c0.28-0.3,0.55-0.41,0.93-0.41c3.76,0,7.51,0,11.27,0
		c0.5,0,1,0.16,1.34,0.46c1.43,1.27,2.51,0.26,3.61-0.5c1.08-0.75,2.09-1.6,3.15-2.38c1.34-0.99,1.9-0.83,3.19,0.15
		c3.61,2.76,6.71,6.12,10.36,8.84c0.44,0.32,0.76,0.81,1.11,1.24c0.34,0.41,0.34,0.92,0.2,1.37c-0.17,0.54-0.71,0.41-1.13,0.42
		c-1.04,0.02-2.08,0.02-3.12,0.03c-0.51-0.72-1.17-1.23-2.04-1.44c-1.86-1.56-3.57-3.28-5.56-4.69c-1.29-0.91-1.38-0.93-2.49,0.17
		c-1.57,1.55-1.57,1.55-0.13,3.21c0.06,0.1,0.11,0.2,0.15,0.3c0.6,1.82,2.16,2.69,3.64,3.64c0.61,0.3,1.02,0.83,1.51,1.28
		c0.48,0.51,0.98,1,1.48,1.49c0.58,0.57,1.11,1.18,1.76,1.67c0.35,0.21,0.61,0.21,0.64-0.28c0.03-0.47-0.03-0.95,0.03-1.42
		C56.15,18.95,55.98,18.43,56.6,18.29z"/>
	<path class="st2" d="M36.99,67.74c-6.17,0.62-12.36,0.21-18.54,0.29c-4.63,0.06-9.26-0.05-13.89-0.03c-0.73,0-0.95-0.31-0.94-0.9
		c0.04-2.83,0.03-5.67,0.05-8.5c0.02-1.81,0.72-2.05,2.18-2.02c0.49,0.01,1.14,0.17,1.57-0.36c0.62-0.7,1.19,0,1.78,0.07
		c8.05,0.08,16.1,0.1,24.15,0.02c0.52-0.01,1.04-0.01,1.55,0c1.62,0.03,1.76,0.16,2.04,1.83c0.07,0.36,0.08,0.73,0.02,1.09
		c-0.08,0.41-0.13,0.82-0.15,1.23c0.04,1.5,0.02,3,0.02,4.5c0,0.6,0.04,1.18,0.29,1.74C37.23,67.07,37.24,67.42,36.99,67.74z"/>
	<path class="st2" d="M59.06,55.74c-0.04,0.73,0.32,0.96,1.02,0.93c1.56-0.05,3.12,0.06,4.67-0.06c1.21-0.1,1.55,0.71,1.72,1.51
		c0.36,1.72,0.44,3.53,0.16,5.23c-0.21,1.26-0.49,2.52-0.65,3.8c-0.08,0.66-0.72,0.78-1.3,0.77c-3.63-0.06-7.26,0.14-10.88-0.21
		c-0.29-1.01,0.29-1.22,1.11-1.21c0.61,0.27,1.26,0.14,1.89,0.14c2.27,0,4.55-0.02,6.82,0.01c0.91,0.01,1.29-0.34,1.28-1.27
		c-0.02-1.99-0.04-3.99,0.01-5.99c0.03-0.8-0.36-1.18-1.16-1.14c-2.51,0.11-5.01-0.33-7.53-0.03c-0.89,0.11-1.17,0.45-1.16,1.28
		c0.02,1.24,0.01,2.48,0,3.72c0,0.52,0.05,1.04-0.22,1.53c-0.96,0.37-1.09-0.41-1.38-0.98c-0.19-1.95-0.09-3.9-0.07-5.85
		c0.01-1.27,0.3-1.48,1.58-1.56c1.04-0.06,2.19,0.34,3.01-0.68C58.36,55.46,58.72,55.49,59.06,55.74z"/>
	<path class="st3" d="M8.66,56.66c-0.27-0.55-0.74-0.56-1.25-0.44C7.22,50.61,7,44.99,7.38,39.37c0.05-0.7-0.15-1.41-0.19-2.12
		c-0.06-1.35,0.02-2.7,0.19-4.04c0.12-0.73,0.64-0.79,1.23-0.77c0.31,0.35,0.39,0.78,0.38,1.22C9,37.92,9.09,42.18,8.96,46.43
		c0,0.15-0.02,0.31-0.05,0.46c-0.35,1.37-0.15,2.76-0.16,4.15c0,1.58-0.16,3.17,0.16,4.74C8.96,56.09,8.9,56.41,8.66,56.66z"/>
	<path class="st4" d="M59.06,55.74c-0.32,0-0.65,0-0.97,0c-0.4-0.37-0.39-0.86-0.39-1.33c-0.02-6.78-0.02-13.55,0-20.33
		c0-0.47-0.01-0.97,0.35-1.35c0.35-0.35,0.87-0.03,1.24-0.29c0,0,0,0.01,0,0.01c0.17,1.21,0.16,2.41,0,3.62
		c-0.03,5.8-0.05,11.61-0.09,17.41C59.2,54.24,59.11,54.99,59.06,55.74z"/>
	<path class="st5" d="M36.71,59.31c0-0.31-0.01-0.62-0.01-0.93c0.7-0.58,1.59-0.21,2.35-0.47c0.4-0.07,0.81-0.08,1.21,0
		c0.46,0.11,0.93,0.14,1.4,0.14c0.47-0.02,0.94-0.03,1.41-0.02c1.79,0.05,2.37,0.63,2.39,2.45c0,0.2-0.01,0.39-0.01,0.59
		c0.03,0.34,0.07,0.67,0.14,1c0.12,0.6,0.08,1.2,0.1,1.8c0,0.52,0,1.05-0.02,1.57c-0.02,0.45-0.13,0.88-0.24,1.31
		c-0.09,0.37-0.24,0.7-0.56,0.94c-2.63,0.21-5.26,0.07-7.9,0.05c-0.01-0.31-0.01-0.62-0.02-0.93c0.95-0.49,1.96-0.09,2.94-0.23
		c0.12,0.03,0.23,0.06,0.35,0.07c3.24,0.28,3.24,0.28,3.33-2.91c0.03-1.06,0.36-2.11,0.21-3.19c-0.09-0.84-0.74-0.83-1.34-0.85
		c-1.43-0.03-2.87,0.01-4.3-0.02C37.65,59.68,37.1,59.76,36.71,59.31z"/>
	<path class="st6" d="M44.88,67.69c0.1-0.3,0.19-0.61,0.29-0.91c2.32-0.24,4.65-0.03,6.97-0.11c0.64-0.02,1.4,0.04,1-1.02
		c-0.39-0.63-0.85-1.21-1.32-1.79c-0.64-1.02-1.56-1.41-2.75-1.33c-0.8,0.06-1.6,0.02-2.4,0c-0.48-0.01-0.97-0.03-1.3-0.47
		c-0.23-0.23-0.22-0.5-0.17-0.79c0.15-0.68,0.66-0.71,1.21-0.65c1.03,0.11,2.07,0.05,3.11,0.06c0.44,0,0.88-0.01,1.32-0.11
		c0.55-0.08,0.98,0.1,1.31,0.55c0.26,1.08,1.24,1.74,1.62,2.75c0.21,0.43,0.59,0.69,0.95,0.97c0.35,0.3,0.43,0.69,0.39,1.12
		c-0.06,0.24-0.18,0.44-0.41,0.55c-0.35,0.36-0.88,0.58-0.89,1.19C50.83,67.76,47.86,67.84,44.88,67.69z"/>
	<path class="st7" d="M56.6,18.29c-0.38,0.75-0.1,1.55-0.2,2.32c-0.04,0.38,0.2,0.93-0.15,1.1c-0.42,0.21-0.73-0.27-1.04-0.56
		c-0.31-1.9,0.07-3.84-0.35-5.73c0.04-0.58-0.14-1.19,0.33-1.68c0.92,0.24,1.82,0.5,1.93,1.67C56.13,16.23,56.84,17.35,56.6,18.29z"
		/>
	<path class="st1" d="M59.29,36.07c0-1.21,0-2.41,0-3.62C59.61,33.66,59.61,34.87,59.29,36.07z"/>
	<path class="st8" d="M53.77,63.88c-0.64-0.83-1.76-1.33-1.74-2.6c-0.53-1.53-0.38-3.08-0.16-4.63c0.51-0.74,1.29-0.5,1.97-0.51
		c3.05-0.06,2.69,0.34,2.7-2.68c0.02-3.83,0.03-7.67-0.01-11.5c-0.01-1.56,0.35-3.09,0.26-4.66c-0.07-1.14-0.15-1.31-1.27-1.1
		c-2.19,0.42-3.82-0.46-5.16-2.07c-1.48-1.78-3.03-3.5-4.7-5.11c-1.85-1.77-3.54-3.69-5.23-5.6c-0.77-0.87-1.69-1.57-2.74-2.08
		c-0.51-0.18-0.68-0.64-0.9-1.07c-0.39-0.75-0.83-1.46-1.42-2.07c-1.34-1.39-2.76-1.44-4.17-0.08c-1.49,1.43-2.13,3.34-2.84,5.21
		c-0.28,0.74-0.3,1.58-0.75,2.26c-3.91,4.17-7.64,8.51-11.32,12.89c-0.18,0.21-0.37,0.41-0.62,0.56c-0.6,0.14-0.95,0.48-0.94,1.13
		c-1.53,2.02-3.27,3.86-4.92,5.77c-0.29,0.34-0.58,0.79-1.16,0.67c-0.01-4.73-0.01-9.45-0.02-14.18c1.47,0.02,2.95-0.08,4.41,0.19
		c0.65,0.12,1.3,0.1,1.85-0.51c2.83-3.14,5.72-6.22,8.57-9.34c2.64-2.89,5.27-5.79,7.89-8.69c0.96-1.06,3.18-1.07,4.11-0.03
		c3.24,3.64,6.48,7.27,9.75,10.89c1.98,2.19,4.04,4.31,6,6.52c0.56,0.63,1.18,0.85,1.9,0.69c1.23-0.29,2.47-0.08,3.7-0.19
		c0.67-0.06,1.03,0.19,1.24,0.76c0.01,7.67,0.03,15.34,0.04,23.01c0.07,0.71-0.22,1.05-0.96,0.94c-0.08-0.01-0.16-0.01-0.24,0
		c-1.01,0.12-2.33-0.46-2.95,0.27c-0.59,0.69-0.16,1.98-0.17,3C53.74,61.26,53.76,62.57,53.77,63.88z"/>
	<path class="st9" d="M42.49,10.36c0.72,0.57,1.36,1.21,1.92,1.93c0,0.18-0.09,0.31-0.27,0.32c-2.5,0.16-5,0.44-7.51,0.26
		c-0.32-0.02-0.61-0.17-0.9-0.32c-1.67-0.79-3.34-0.68-5.01-0.01c-0.25,0.2-0.55,0.33-0.87,0.33c-2.17,0-4.34,0.17-6.5-0.09
		c-0.38-0.13-0.53-0.45-0.25-0.71c0.86-0.82,1.52-1.93,2.88-2.07C30.95,9.99,35.92,10,40.89,10C41.45,10,41.99,10.08,42.49,10.36z"
		/>
	<path class="st9" d="M48.44,26.25c-0.98-0.87-1.93-1.78-2.62-2.91c0.37-0.39,0.87-0.35,1.34-0.36c2.27-0.08,4.53,0.1,6.8,0.01
		c0.56-0.02,1.13,0.01,1.46,0.6c0.06,0.39,0.27,0.59,0.67,0.69c0.94,0.23,1.38,1.07,2,1.7c-0.09,0.61-0.61,0.59-1.01,0.6
		c-2.5,0.07-5,0.05-7.51,0.02C49.17,26.59,48.81,26.4,48.44,26.25z"/>
	<path class="st10" d="M20.9,23.34c-0.66,1.17-1.69,2.01-2.64,2.92c-0.47,0.23-0.96,0.32-1.49,0.33c-2.13,0.03-4.27-0.09-6.4,0.1
		c-0.28,0.03-0.55-0.04-0.8-0.18c-0.28-0.17-0.42-0.45-0.2-0.7c0.9-1.01,1.76-2.06,2.92-2.81c0.13-0.08,0.31-0.05,0.47-0.03
		c2.18-0.01,4.37-0.01,6.55,0C19.88,22.98,20.46,22.9,20.9,23.34z"/>
	<path class="st11" d="M12.46,23.09c-1.1,0.98-2.19,1.97-3.08,3.15c0.01,0.79-0.74,1.06-1.11,1.59c-0.64,0.6-1.22,1.27-1.65,2.04
		c0.18,0.58,0.66,0.3,1,0.33c1.83,0.16,3.63-0.26,5.46-0.21c0.49,0.01,1.16-0.22,1.36,0.57c-0.19,0.27-0.47,0.27-0.75,0.27
		c-3.16,0-6.31,0-9.45,0c-0.16-0.41,0.16-0.54,0.33-0.72c7.45-7.53,14.91-15.06,22.37-22.58c0.11-0.11,0.24-0.2,0.37-0.3
		c0.22-0.09,0.34,0.03,0.44,0.2C27.97,8.13,27.52,8.56,27.1,9c-0.48,0.37-0.79,0.97-1.44,1.13c-0.88,0.8-1.76,1.6-2.64,2.4
		c-0.16,0.64-0.7,0.95-1.14,1.36c-0.61,0.37-1.06,0.91-1.56,1.4c-0.41,0.41-0.85,0.79-1.21,1.25c-0.6,0.9-1.42,1.58-2.15,2.36
		c-0.42,0.4-0.83,0.81-1.23,1.23c-0.57,0.55-1.12,1.11-1.67,1.68C13.51,22.22,13.18,22.89,12.46,23.09z"/>
	<path class="st12" d="M25.66,10.13c0.41-0.4,0.81-0.79,1.22-1.19c0.52-0.36,1.11-0.4,1.72-0.4c3.58,0,7.17,0,10.75,0
		c0.61,0,1.19,0.08,1.72,0.39c0.55,0.4,1.01,0.89,1.42,1.43c-5.28,0.01-10.55,0.01-15.83,0.01C26.32,10.38,25.93,10.48,25.66,10.13z
		"/>
	<path class="st13" d="M55.18,13.75c0.01,0.55,0.02,1.11,0.03,1.66c-0.81,0.23-1.16-0.52-1.74-0.79c-0.38-0.32-0.78-0.62-1.13-0.98
		c-0.83-0.9-1.83-1.6-2.77-2.38c-0.55-0.46-0.95-0.4-1.37,0.18c-0.38,0.53-0.7,1.16-1.42,1.35c-1.85-1.58-1.85-1.58-0.2-3.31
		c0.11-0.11,0.22-0.23,0.33-0.34c1.2-1.21,1.24-1.21,2.65-0.17C51.55,10.43,53.38,12.08,55.18,13.75z"/>
	<path class="st9" d="M41.53,18.77c-0.57-0.63-1.14-1.27-1.71-1.9c0.06-0.54,0.51-0.58,0.88-0.59c2.34-0.09,4.68-0.07,7.01-0.01
		c0.37,0.01,0.69,0.17,1,0.35c0.72,0.56,1.35,1.22,1.93,1.91c-0.08,0.61-0.6,0.58-1,0.6c-2.34,0.07-4.67,0.05-7.01,0.02
		C42.23,19.14,41.87,18.99,41.53,18.77z"/>
	<path class="st14" d="M41.07,8.93c-4.73,0-9.46,0.01-14.19,0.01c0.24-0.48,0.81-0.79,0.73-1.43c0.33-0.31,0.74-0.24,1.13-0.25
		c3.21-0.01,6.43,0,9.64,0c0.44,0,0.87,0.01,1.28,0.22C40.19,7.91,40.68,8.37,41.07,8.93z"/>
	<path class="st9" d="M16.78,18.77c0.72-0.8,1.45-1.59,2.17-2.39c2.35-0.28,4.7-0.11,7.05-0.09c0.37,0,0.83,0.04,0.89,0.58
		c-0.57,0.63-1.14,1.27-1.71,1.9c-0.34,0.22-0.71,0.37-1.11,0.38c-2.1,0.03-4.21,0.04-6.31-0.01C17.4,19.13,17.04,19.07,16.78,18.77
		z"/>
	<path class="st15" d="M48.44,26.25c2.81-0.01,5.61-0.01,8.42-0.04c0.41,0,0.88,0.16,1.22-0.24c0.71,0.57,1.36,1.2,1.9,1.93
		c-0.41,0.41-0.95,0.38-1.46,0.38c-2.35,0.02-4.69,0.01-7.04,0.01c-0.57,0-1.11-0.08-1.6-0.39C49.27,27.48,48.81,26.91,48.44,26.25z
		"/>
	<path class="st9" d="M49.9,27.9c3.36,0,6.73,0,10.09,0c0.56,0.4,1.03,0.89,1.45,1.43c-0.13,0.66-0.68,0.59-1.12,0.59
		c-2.57,0.03-5.15,0.01-7.72,0.01c-0.45,0-0.86-0.12-1.23-0.37C50.88,29.01,50.39,28.46,49.9,27.9z"/>
	<path class="st16" d="M55.42,23.58c-1.5-0.6-3.05-0.06-4.58-0.21c-1.66-0.16-3.35-0.04-5.02-0.04c-0.64-0.47-1.2-1.03-1.65-1.69
		c0.2-0.23,0.47-0.32,0.75-0.32c2.87-0.03,5.74-0.18,8.61,0.08C54.21,22.09,55.13,22.57,55.42,23.58z"/>
	<path class="st15" d="M41.53,18.77c2.67,0,5.34,0.01,8,0c0.38,0,0.81,0.13,1.11-0.24c0.62,0.5,1.21,1.03,1.66,1.7
		c-0.25,0.52-0.74,0.58-1.22,0.59c-2.23,0.05-4.46,0.03-6.69,0.01c-0.45,0-0.86-0.16-1.25-0.36C42.55,19.96,41.96,19.44,41.53,18.77
		z"/>
	<path class="st10" d="M6.45,29.57c0.48-0.71,0.97-1.42,1.67-1.93c0.75-0.36,1.55-0.42,2.34-0.3c1.79,0.26,3.58,0.19,5.37,0.21
		c0.34,0,0.83-0.21,0.98,0.36c-0.49,0.55-0.98,1.11-1.47,1.66c-0.34,0.21-0.7,0.37-1.12,0.36c-2.19-0.02-4.38,0.07-6.56,0.02
		C7.23,29.94,6.78,29.93,6.45,29.57z"/>
	<path class="st15" d="M12.46,23.09c0.43-0.53,0.89-1.03,1.46-1.43c0.13-0.09,0.27-0.19,0.42-0.21c2.64-0.3,5.28-0.29,7.92,0
		c0.12,0.01,0.19,0.13,0.28,0.21c-0.45,0.66-1.02,1.2-1.64,1.68c-2.41,0-4.81,0.01-7.22-0.01C13.27,23.33,12.8,23.49,12.46,23.09z"
		/>
	<path class="st12" d="M16.81,27.91c-2.9,0.08-5.79-0.18-8.69-0.28c0.42-0.47,0.84-0.93,1.26-1.4c0.86,0.4,1.71-0.06,2.57-0.03
		c2.1,0.07,4.21,0.04,6.32,0.05C17.9,26.91,17.43,27.48,16.81,27.91z"/>
	<path class="st17" d="M52.54,13.56c0.34,0.3,0.78,0.48,1,0.91c0.58,1.71,0.55,3.42,0.03,5.14c-0.6-0.41-1.1-0.93-1.52-1.52
		c-0.19-0.74-0.05-1.49-0.03-2.23c0.02-0.59-0.21-0.89-0.8-0.88c-0.11-0.01-0.22-0.04-0.32-0.07c-0.47-0.15-0.93-0.19-1.41,0.1
		c0.23,0.76,1.26,1,1.26,1.89c-1.66-0.92-3.4-1.76-3.86-3.88c1.44,0.16,2.89,0.14,4.34,0.15C51.7,13.15,52.17,13.19,52.54,13.56z"/>
	<path class="st15" d="M35.74,12.56c2.9,0.06,5.79-0.14,8.68-0.27c0.63,0.49,1.19,1.05,1.67,1.68c-0.33,0.37-0.78,0.37-1.21,0.37
		c-2.11,0.02-4.21,0.02-6.32,0c-0.49,0-0.93-0.16-1.37-0.35C36.7,13.51,36.22,13.03,35.74,12.56z"/>
	<path class="st15" d="M48.71,16.62c-2.55,0-5.11-0.01-7.66,0.01c-0.42,0-0.89-0.16-1.24,0.24c-0.66-0.4-0.99-1.09-1.46-1.66
		c0.21-0.28,0.53-0.37,0.84-0.37c2.62-0.02,5.24-0.17,7.85,0.08C47.67,15.43,48.25,15.97,48.71,16.62z"/>
	<path class="st10" d="M22.55,21.65c-2.88,0-5.75,0.01-8.63,0.01c0.46-0.66,1.04-1.2,1.66-1.7c2.44-0.26,4.88-0.1,7.32-0.09
		c0.32,0,0.63,0.08,0.85,0.34C23.35,20.7,22.95,21.18,22.55,21.65z"/>
	<path class="st18" d="M51.54,7.31c2.03,1.72,4.06,3.43,6.08,5.16c0.59,0.51,1.14,1.06,1.78,1.66c-1.04,0.22-1.75,0.01-2.52-0.68
		c-2.01-1.8-3.92-3.73-6.2-5.2c-0.31-0.2-0.59-0.41-0.77-0.73C50.39,7,50.98,7.28,51.54,7.31z"/>
	<path class="st19" d="M23.76,20.22c-2.31,0-4.63,0.01-6.94-0.01c-0.42,0-0.89,0.16-1.23-0.25c0.4-0.4,0.8-0.8,1.2-1.19
		c2.8,0,5.6,0,8.4,0C24.8,19.35,24.33,19.83,23.76,20.22z"/>
	<path class="st15" d="M26.89,16.87c-0.35-0.4-0.81-0.24-1.23-0.24c-1.86-0.02-3.73,0-5.59-0.01c-0.38,0-0.8,0.14-1.11-0.23
		c0.34-0.46,0.72-0.88,1.21-1.2c0.38-0.24,0.79-0.38,1.24-0.38c1.96-0.02,3.91-0.03,5.87,0.01c0.4,0.01,0.8,0.05,1.08,0.4
		C27.88,15.78,27.55,16.47,26.89,16.87z"/>
	<path class="st10" d="M43.15,20.47c2.59,0,5.18-0.01,7.76-0.01c0.48,0,0.96,0.03,1.39-0.23c0.49,0.31,0.87,0.73,1.22,1.18
		c-0.3,0.38-0.73,0.24-1.11,0.25c-2.75,0.01-5.5,0-8.25,0C43.83,21.26,43.49,20.86,43.15,20.47z"/>
	<path class="st15" d="M21.78,13.73c0.35-0.47,0.76-0.87,1.24-1.2c2.57,0.01,5.14,0.01,7.71,0.02c-0.14,0.7-0.72,1.03-1.2,1.44
		C26.93,14.49,24.33,14.75,21.78,13.73z"/>
	<path class="st20" d="M47.06,14.92c-0.34,0.41-0.81,0.25-1.22,0.25c-2.49,0.02-4.98,0.03-7.48,0.04c-0.39-0.41-0.79-0.81-1.18-1.22
		c2.97-0.01,5.94-0.02,8.91-0.02C46.41,14.29,46.73,14.6,47.06,14.92z"/>
	<path class="st21" d="M51.54,7.31c-0.51,0.38-1.1,0.08-1.64,0.2c-2.25-2.03-2.25-2.03-5,0.03c-0.5-0.12-1.14,0.45-1.51-0.31
		c1.26-0.98,2.53-1.94,3.76-2.96c0.39-0.32,0.62-0.32,0.99,0.02C49.26,5.31,50.4,6.3,51.54,7.31z"/>
	<path class="st22" d="M53.56,19.61c-0.01-1.71-0.02-3.43-0.03-5.14c0.69,0.08,1.01,0.83,1.68,0.94c0.23,1.92,0.38,3.84,0,5.75
		C54.66,20.64,54.11,20.12,53.56,19.61z"/>
	<path class="st23" d="M21.78,13.73c2.57,0.41,5.17,0.18,7.75,0.26c-0.39,0.41-0.79,0.81-1.18,1.22c-2.73-0.01-5.46-0.02-8.19-0.03
		C20.61,14.6,21.05,14,21.78,13.73z"/>
	<path class="st24" d="M52.54,13.56c-1.39-0.01-2.77-0.05-4.16,0c-0.6,0.02-1.08-0.14-1.49-0.55c-0.03-0.08-0.06-0.15-0.1-0.23
		c0.26-0.3,0.52-0.59,0.77-0.9c1.3-1.61,1.35-1.68,2.86-0.34C51.13,12.19,52.11,12.6,52.54,13.56z"/>
	<path class="st25" d="M6.45,29.57c2.96,0,5.93,0,8.89,0.01c-0.21,0.41-0.55,0.7-0.9,0.98c-0.94-0.45-1.96-0.27-2.9-0.17
		c-1.58,0.17-3.16,0.08-4.74,0.12c-0.3,0.01-0.73,0.17-0.88-0.14C5.73,29.94,6.2,29.79,6.45,29.57z"/>
	<path class="st12" d="M51.37,29.57c2.99,0,5.97,0.01,8.96,0c0.38,0,0.81,0.13,1.12-0.24c0.35,0.19,0.6,0.48,0.9,0.97
		c-3.43,0-6.71,0-9.98,0C51.87,30.3,51.58,29.98,51.37,29.57z"/>
	<path class="st26" d="M39.66,7.48c-4.01,0.01-8.03,0.02-12.04,0.03c-0.1-0.1-0.2-0.19-0.3-0.29c0.34-0.32,0.76-0.19,1.14-0.19
		c3.27,0,6.54,0,9.82,0.02C38.76,7.05,39.33,6.89,39.66,7.48z"/>
	<path class="st27" d="M50.74,16.89c-0.63-0.7-1.27-1.39-2-2.2c0.79-0.01,1.42-0.36,2.1-0.06c0.54,0.33-0.93-0.04-0.14,0.4
		c0.31,0.17,0.58,0.41,0.91,0.65c-0.15-0.39-0.69-0.51-0.53-0.99c0.83-0.19,1.29,0.06,1.18,0.99c-0.09,0.8,0.1,1.62-0.23,2.4
		C51.61,17.68,51.18,17.29,50.74,16.89z"/>
	<path class="st28" d="M43.39,7.22c0.45,0.36,1.11-0.29,1.51,0.31c-0.32,0.35-0.66,0.68-0.96,1.04c-0.47,0.56-0.9,0.7-1.42,0.05
		c-0.59-0.72,0.16-0.84,0.48-1.14C43.11,7.38,43.26,7.31,43.39,7.22z"/>
	<path class="st29" d="M35.03,59.57c0,1.99-0.05,3.99,0.03,5.98c0.04,1.04-0.35,1.25-1.3,1.24c-9.02-0.03-18.03-0.02-27.05-0.02
		c-0.41-0.46-0.37-1.03-0.39-1.59c-0.03-1.27,0.03-2.55-0.14-3.82c-0.24-1.76,0.12-2.17,1.89-2.17c4.91-0.02,9.81-0.01,14.72-0.01
		c3.47,0,6.94-0.01,10.41,0C33.83,59.19,34.49,59.11,35.03,59.57z"/>
	<path class="st30" d="M39.15,58.15c-0.79,0.41-1.64,0.1-2.45,0.22c-0.07-1.74-1.22-1.7-2.54-1.69c-8.5,0.03-17-0.01-25.5-0.02
		c-0.48-2.92-0.18-5.87-0.25-8.81c-0.01-0.35-0.09-0.72,0.21-1.02c0.44,0.4,0.37,0.94,0.37,1.45c0.02,1.51,0,3.02,0.01,4.53
		c0.01,1.69,0.05,1.74,1.77,1.56c1.22-0.13,2.44-0.37,3.67-0.06c0.48,0.21,0.44,0.75,0.69,1.1c0.2,0.27,0.52,0.3,0.81,0.41
		c4.4,0.11,8.79,0.03,13.19,0.04c0.24,0,0.48-0.03,0.69-0.17c0.09-0.11,0.18-0.22,0.27-0.33c0.44-0.53,0.51-1.17,0.48-1.82
		c-0.15-3.68,0.37-7.35,0.25-11.03c-0.02-0.51-0.04-1.05,0.32-1.49c0.82-0.34,1.18,0.18,1.44,0.81c0.2,0.49,0.19,1.02,0.18,1.54
		c-0.08,3.07,0.14,6.14,0.23,9.21c0.03,0.97,0.37,1.37,1.35,1.33c1.12-0.04,2.23-0.02,3.35,0c0.51,0.01,1.05-0.03,1.49,0.33
		C39.64,55.56,39.69,56.86,39.15,58.15z"/>
	<path class="st31" d="M35.03,59.57c-9.1,0-18.19,0.02-27.29-0.03C6.6,59.54,6.3,59.98,6.5,60.94c0.39,1.94,0.12,3.9,0.22,5.84
		c-1.9,0.08-1.9,0.08-1.9-1.81c0-1.8-0.01-3.59,0-5.39c0.01-1.87-0.26-1.7,1.76-1.7c7.94-0.01,15.89,0.01,23.83-0.01
		c1.19,0,2.38-0.1,3.57-0.2c0.92-0.08,1.53,0.03,1.07,1.19C34.96,59.07,35.03,59.34,35.03,59.57z"/>
	<path class="st32" d="M39.82,66.79c-0.95,0.32-1.9,0.07-2.86,0.01c-0.64-0.12-0.49-0.63-0.49-1.04c0-1.83,0.01-3.65,0.01-5.48
		c1.16-0.13,2.34-0.34,3.45,0.26c0.46,2.02,0.38,4.05,0.05,6.08C39.93,66.68,39.88,66.74,39.82,66.79z"/>
	<path class="st33" d="M39.84,60.56c-1.11-0.17-2.27,0.25-3.35-0.28c0.01-0.34-0.14-0.71,0.22-0.98c2.1,0.01,4.2,0.06,6.3,0.03
		c0.9-0.01,1.26,0.3,1.08,1.19c-0.14,0.15-0.3,0.24-0.5,0.29c-0.45,0.07-0.91,0.05-1.37,0.06c-0.27,0.02-0.53,0-0.8,0.01
		C40.87,60.87,40.31,60.94,39.84,60.56z"/>
	<path class="st34" d="M54.7,66.53c0.07-0.17,0.14-0.34,0.21-0.51c0.65,0.25,0.88-0.04,0.87-0.66c-0.02-1.47,0.08-2.95-0.12-4.42
		c-0.27-1.95,0.2-2.58,2.16-2.4c2.26,0.2,4.5,0.53,6.78,0.49c0.24,0,0.46,0.11,0.64,0.28c0.01,2.23-0.01,4.47,0.05,6.7
		c0.02,0.8-0.28,1.02-1.04,1.01c-2.87-0.03-5.75-0.01-8.62-0.01C55.24,67.02,54.79,67.11,54.7,66.53z"/>
	<path class="st35" d="M65.24,59.31c-2.63,0.24-5.23-0.23-7.84-0.42c-1.44-0.1-1.73,0.23-1.45,1.68c0.35,1.79,0.11,3.58,0.2,5.37
		c0.02,0.41,0.03,0.81-0.57,0.84c-0.58,0.03-0.64-0.34-0.68-0.76c-0.07-0.39-0.13-0.78-0.2-1.16c0-1.84,0.1-3.68-0.03-5.51
		c-0.09-1.29,0.41-1.42,1.54-1.51c2.55-0.2,5.08,0.22,7.61,0.03C64.99,57.78,65.5,58.13,65.24,59.31z"/>
	<path class="st36" d="M14.61,54.54c-1.72-0.11-3.42,0.11-5.1,0.35c-0.79,0.11-0.89-0.1-0.89-0.75c0.01-2.43-0.01-4.86-0.01-7.29
		c0.01-0.07,0.01-0.14,0.02-0.22c1.8-1.52,3.13-3.48,4.71-5.2c0.4-0.44,0.76-0.92,1.22-1.3c0.45,0.34,0.43,0.84,0.44,1.31
		c0.01,3.92,0.03,7.84,0,11.76C15.01,53.68,15.02,54.17,14.61,54.54z"/>
	<path class="st37" d="M49.63,60.94c-1.13,0-2.27,0.07-3.39-0.03c-0.47-0.04-0.73,0.1-1.03,0.37c-0.29-2.8-0.29-2.8-3.21-2.9
		c-0.16-0.01-0.31-0.03-0.47-0.04c-0.21-0.37-0.14-0.78-0.15-1.17c-0.07-3.51,0.18-7.02-0.2-10.53c-0.08-0.72-0.2-1.58,0.75-1.94
		c1.17-0.45,2.06,0.13,2.1,1.42c0.07,2.07,0.01,4.15,0.02,6.23c0.01,1.55,0.18,3.1,0.31,4.66c0.16-0.37,0.14-0.77,0.14-1.16
		c0.01-3.19-0.03-6.39,0.02-9.58c0.02-1.31,0.36-1.65,1.49-1.68c1.19-0.03,1.6,0.32,1.61,1.53c0.03,2.04,0.02,4.07,0,6.11
		c0,0.22,0.05,0.43,0.07,0.64c0.01,0.14,0.01,0.28-0.01,0.41c-0.15,2.07,0.01,4.15-0.07,6.22c0.05-1.17,0.02-2.33,0.03-3.5
		c0-0.36-0.01-0.72,0.06-1.08c0.07-0.36,0.17-0.73,0.64-0.74c0.47-0.01,0.58,0.35,0.66,0.71c0.07,0.31,0.06,0.64,0.06,0.96
		c0,1,0.05,2-0.01,3C49,59.63,49.15,60.32,49.63,60.94z"/>
	<path class="st38" d="M47.27,52.62c0-2.2-0.05-4.4,0.02-6.59c0.03-0.97-0.38-1.12-1.21-1.11c-0.78,0.01-1.25,0.07-1.24,1.08
		c0.06,3.52,0.02,7.03,0.02,10.55c0,0.28,0.01,0.56,0,0.84c-0.01,0.32,0.03,0.69-0.43,0.72c-0.54,0.04-0.52-0.37-0.53-0.73
		c-0.08-1.85-0.19-3.7-0.23-5.55c-0.04-2-0.04-4,0.01-5.99c0.02-0.94-0.52-0.88-1.16-0.9c-0.66-0.02-1.1,0.1-1.02,0.9
		c0.38,3.66,0.21,7.33,0.24,11c0,0.51,0.08,1.04-0.23,1.51c-0.42-0.01-0.87,0.17-1.23-0.2c-0.37-0.43-0.36-0.96-0.37-1.47
		c-0.01-3.87-0.02-7.73,0-11.6c0.01-1.68,0.28-1.95,1.95-1.96c2.59-0.02,5.18-0.04,7.77,0.01c1.35,0.03,1.59,0.37,1.39,1.69
		c-0.88,0.54-1.06,1.36-1.02,2.34c0.06,1.23,0.05,2.47-0.01,3.7c-0.02,0.55-0.01,1.15-0.75,1.32c-0.72-0.29-0.64-0.95-0.66-1.53
		c-0.05-1.55,0.02-3.1-0.13-4.65c-0.18,1.69-0.07,3.38-0.15,5.06C48.29,51.76,48.33,52.58,47.27,52.62z"/>
	<path class="st39" d="M50.86,44.93c0.23-1.16-0.26-1.49-1.41-1.46c-2.67,0.08-5.34,0.06-8.01,0c-0.9-0.02-1.15,0.26-1.15,1.15
		c0.03,4.5,0.01,9.01,0,13.51c-0.38,0-0.76,0.01-1.14,0.01c-0.02-1.29-0.04-2.58-0.06-3.87c-0.26-0.29-0.33-0.64-0.29-1.01
		c0.32-2.99,0.09-5.99,0.16-8.98c0.04-1.91,0.24-2.14,2.15-2.14c3.08-0.01,6.15-0.02,9.23,0c1.53,0.01,1.72,0.21,1.9,1.68
		c0.45,3.82,0.14,7.66,0.21,11.49c0.01,0.4-0.06,0.8-0.36,1.11c-0.02,1.61-0.04,3.22-0.06,4.83c-0.31-0.32-0.66-0.55-1.14-0.45
		c-0.46-0.44-0.4-1.02-0.4-1.57c-0.01-4.25-0.01-8.5,0-12.75C50.49,45.96,50.46,45.4,50.86,44.93z"/>
	<path class="st40" d="M52.14,63.88c0.51,0.38,0.78,0.96,1.14,1.46c-0.07,0.87-0.79,0.91-1.38,1c-0.98,0.14-1.98,0.13-2.96-0.01
		c-0.94-0.13-1.86-0.41-2.82-0.3c-0.35,0.04-0.6-0.15-0.77-0.45c0-0.56,0-1.13,0-1.69c0.37-0.73,1.01-0.87,1.72-0.75
		c0.91,0.15,1.81,0.18,2.73,0.02C50.69,62.99,51.44,63.39,52.14,63.88z"/>
	<path class="st41" d="M45.34,65.58c2.22,0.02,4.4,0.71,6.63,0.43c0.47-0.06,1.05-0.11,1.31-0.67c0.4,0.39,0.63,0.87,0.4,1.39
		C53.45,67.24,52.9,67,52.5,67c-2.02,0.02-4.04,0.01-6.07,0.01c-0.43,0-0.88,0.05-1.26-0.23C45.23,66.38,45.29,65.98,45.34,65.58z"
		/>
	<path class="st42" d="M52.14,63.88c-1.69-0.78-3.52,0.05-5.24-0.44c-0.57-0.16-1.09,0.09-1.55,0.44c0.01-0.61,0.02-1.21,0.03-1.82
		c1.22,0.37,2.47,0.2,3.69,0.1C50.55,62.05,51.47,62.67,52.14,63.88z"/>
	<path class="st32" d="M41.51,60.56c0.24,0,0.49,0,0.73,0c0.66,1.2,0.3,2.48,0.25,3.72c-0.02,0.47-0.16,0.94-0.09,1.42
		c0.03,0.24,0.08,0.5,0.37,0.54c0.38,0.05,0.47-0.25,0.5-0.53c0.11-1.11,0.02-2.22,0.05-3.33c0.02-0.62-0.11-1.28,0.35-1.82
		c0.14-0.01,0.28-0.02,0.42-0.04c-0.06,1.95-0.11,3.9-0.16,5.85c-0.01,0.37-0.16,0.64-0.56,0.61c-1.18-0.07-2.38,0.25-3.54-0.2
		c0,0,0.02-0.02,0.02-0.02c1.17-0.34,1.34-1.17,1.34-2.27C41.19,63.19,40.82,61.82,41.51,60.56z"/>
	<path class="st43" d="M50.86,44.93c0.01,5.3,0.02,10.6,0.02,15.9c-0.39,0.34-0.83,0.14-1.26,0.11c-0.74-0.11-1.03-0.4-0.95-1.27
		c0.14-1.54,0.04-3.11,0.03-4.66c0-0.27,0.02-0.63-0.36-0.63c-0.38,0-0.35,0.37-0.35,0.64c-0.01,1.63,0,3.27-0.01,4.9
		c0,0.29,0.12,0.74-0.33,0.77c-0.48,0.03-0.39-0.43-0.38-0.72c0.11-2.29-0.27-4.6,0.2-6.88c0.37,0.22,0.58,0.8,1.16,0.53
		c0.59-0.28,0.43-0.84,0.47-1.32c0.02-0.05,0.05-0.1,0.07-0.15c0.56-0.26,0.49-0.76,0.49-1.24c0-1.6,0.06-3.2-0.02-4.79
		C49.6,45.17,49.93,44.8,50.86,44.93z"/>
	<path class="st36" d="M52.09,56.45c-0.01-3.11-0.07-6.22-0.02-9.33c0.02-1.28-0.22-2.54-0.2-3.81c0.01-0.56-0.25-0.79-0.8-0.79
		c-3.67,0-7.34,0-11.01-0.02c-0.58,0-0.76,0.26-0.75,0.8c0.02,1.2,0.01,2.39,0,3.59c-0.02,2.47,0.13,4.94-0.22,7.4
		c-1.79,0-3.59-0.02-5.38,0.03c-0.81,0.02-1.09-0.21-1.11-1.06c-0.08-3.5-0.28-6.99-0.22-10.49c0.01-0.82-0.05-1.66-1.21-1.66
		c-0.46-1.37-1.47-1.64-2.8-1.57c-3.82,0.22-7.63-0.29-11.45-0.23c-0.47,0.01-0.97,0.03-1.34-0.37c2.53-3.17,5.25-6.18,7.9-9.24
		c1.25-1.44,2.6-2.77,3.91-4.15c0.24,0.26,0.28,0.59,0.21,0.9c-0.49,2.01-0.33,4.05-0.33,6.08c0.62,1.42,0.65,1.37,2.17,1.32
		c2.58-0.09,5.16-0.01,7.73-0.04c0.9-0.01,1.68-0.19,1.78-1.31c0.24-2.68-0.17-5.31-0.49-7.95c-0.09-0.72-0.44-1.36-0.67-2.03
		c-0.15-0.44-0.45-0.87-0.15-1.36c1.3,0.05,2.12,1.03,2.81,1.83c2.09,2.41,4.3,4.7,6.57,6.95c1.27,1.27,2.46,2.6,3.57,4.02
		c1.46,1.87,3.4,2.4,5.63,1.83c0.87-0.22,0.93,0.16,0.89,0.82c-0.35,6.3-0.23,12.6-0.23,18.9c0,0.73-0.23,0.99-0.96,0.97
		C54.64,56.42,53.37,56.45,52.09,56.45z"/>
	<path class="st44" d="M15.59,38.93c4.5,0.07,9,0.13,13.5,0.2c1.96,0.03,1.96,0.02,2.09,1.97c-0.06,4.21-0.15,8.42-0.18,12.64
		c-0.01,0.79-0.12,1.48-0.71,2.03c-0.43,0.28-0.92,0.21-1.39,0.21c-4.01,0-8.03,0-12.04,0c-0.67,0-1.34-0.03-1.99-0.24
		c-0.37-0.34-0.12-0.81-0.26-1.2c0.02-4.8,0.13-9.6-0.04-14.4C13.93,38.9,14.89,39.03,15.59,38.93z"/>
	<path class="st45" d="M37.65,21.15c1.55,3.26,1.66,6.76,1.66,10.28c0,0.44,0.04,0.88-0.26,1.26c-0.35,0.55-0.92,0.61-1.48,0.61
		c-2.8,0.03-5.6,0.05-8.4-0.01c-0.79-0.02-1.61-0.07-2.26-0.64c-0.02-2.38-0.06-4.76,0.49-7.11c0.5-1.75,1.03-3.5,1.84-5.14
		c0.52-1.05,1.13-2.01,2.03-2.77c1.33-1.13,2.92-1.04,4.17,0.15C36.44,18.74,36.89,20.05,37.65,21.15z"/>
	<path class="st46" d="M51.09,14.69c0.26,0.52,1.23,0.55,0.93,1.58c-0.68-0.49-1.31-0.94-1.95-1.4c0.24-0.32,0.55-0.12,0.78-0.23
		C50.93,14.66,51.01,14.67,51.09,14.69z"/>
	<path class="st47" d="M14.87,55.74c5.14,0.01,10.28,0.02,15.42,0.03c-0.01,0.08-0.04,0.15-0.09,0.22c-0.58,0.23-1.18,0.1-1.77,0.1
		c-3.89,0.01-7.78,0.01-11.67,0c-0.39,0-0.79,0.07-1.18-0.08C15.35,55.93,15.03,56.03,14.87,55.74z"/>
	<path class="st48" d="M15.59,56.01C20.46,56,25.34,56,30.21,55.99c-0.2,0.27-0.49,0.23-0.77,0.23c-4.39,0-8.79-0.01-13.18-0.02
		C16.02,56.2,15.78,56.2,15.59,56.01z"/>
	<path class="st49" d="M41.51,60.56c0,1.52,0,3.04,0,4.55c0,1.68,0,1.68-1.67,1.66c0-2.07,0-4.14,0-6.21
		C40.4,60.56,40.95,60.56,41.51,60.56z"/>
	<path class="st49" d="M43.67,60.56c0,1.75-0.01,3.49,0.01,5.24c0.01,0.57-0.04,0.99-0.8,1c-0.8,0.01-0.95-0.38-0.88-1.03
		c0.18-1.73,0.31-3.47,0.24-5.21C42.72,60.56,43.19,60.56,43.67,60.56z"/>
	<path class="st43" d="M47.27,52.62c0.58-0.28,0.73-0.76,0.73-1.37c-0.02-1.79-0.02-3.58,0-5.37c0-0.32-0.16-0.83,0.36-0.86
		c0.53-0.03,0.59,0.43,0.59,0.85c0,1.63,0.01,3.26,0,4.9c0,0.48-0.01,0.96,0.23,1.39c0,0-0.04,0.04-0.04,0.04
		c-0.48,0.29-0.95,0.62-1.53,0.69C47.5,52.8,47.39,52.71,47.27,52.62z"/>
	<path class="st50" d="M47.61,52.89c0.43-0.41,0.83-0.88,1.53-0.69c0.47,0.75,0.51,1.48-0.42,1.83c-0.72,0.27-1.23-0.08-1.24-0.93
		C47.53,53.03,47.57,52.96,47.61,52.89z"/>
	<path class="st51" d="M26.91,32.65c4.05,0.34,8.09,0.41,12.14,0.04c0.06,1.11-0.25,1.44-1.52,1.45c-2.52,0.02-5.03-0.01-7.55,0.02
		c-0.52,0-1.14-0.24-1.52,0.39c-0.1,0.16-0.28,0.21-0.35,0C27.87,33.8,27.01,33.47,26.91,32.65z"/>
	<path class="st52" d="M21.32,51.45c0.01,0.88-0.01,1.75,0.04,2.63c0.04,0.64-0.14,0.94-0.85,0.93c-1.35-0.03-2.71-0.01-4.06,0.04
		c-0.63,0.02-0.94-0.13-0.93-0.85c0.04-1.83,0.03-3.66,0.01-5.49c-0.01-0.57,0.11-0.89,0.78-0.87c1.47,0.05,2.95,0.06,4.42,0.05
		c0.54,0,0.69,0.21,0.65,0.72c-0.06,0.71-0.06,1.43-0.08,2.15c-1.15-0.32-1.59-1.46-2.35-1.97C19.61,49.63,20.76,50.28,21.32,51.45z
		"/>
	<path class="st52" d="M22.73,43.44c-0.02-0.04-0.05-0.07-0.05-0.11c-0.32-3.16-0.3-3.2,2.8-3.18c0.99,0.01,1.99-0.1,2.99,0.09
		c0.59,0.11,0.88,0.36,0.86,1.03c-0.05,1.56-0.01,3.12-0.02,4.67c0,0.34,0.09,0.83-0.43,0.82c-2.01-0.03-4.04,0.3-6.04-0.16
		c0.5-0.44,1.11-0.3,1.68-0.32c0.53,0.03,1.07-0.06,1.65,0.19c-1.21-1.53-2.25-3.12-3.31-4.76C23.13,42.36,23.27,42.93,22.73,43.44z
		"/>
	<path class="st53" d="M28.89,54.24c-0.07,0.24,0.69,0.71-0.14,0.72c-0.81,0-1.66,0.22-2.45-0.2c-1.35-1.28-2.64-2.6-3.5-4.28
		c-0.02-0.63-0.03-1.27-0.06-1.9c-0.03-0.53,0.14-0.77,0.69-0.52c1.52,1.12,2.46,2.75,3.68,4.14
		C27.71,52.87,28.41,53.46,28.89,54.24z"/>
	<path class="st54" d="M21.31,45.43c0.05,0.44,0.13,0.88-0.05,1.3c-1.32,0.26-2.17-0.33-2.84-1.43c-0.85-1.39-2.15-2.45-2.84-3.96
		c-0.22-1.31-0.22-1.31,1.47-1.17C18.89,41.59,20.24,43.4,21.31,45.43z"/>
	<path class="st55" d="M28.89,54.24c-0.23,0.08-0.38-0.07-0.51-0.21c-1.72-1.93-3.46-3.85-4.95-5.97c1.39,0.05,2.79-0.42,4.18-0.01
		c-0.45,0.4-0.92,0.37-1.33,0.14c0.89,1.49,2.3,2.78,3,4.53C29.25,53.25,29.57,53.88,28.89,54.24z"/>
	<path class="st55" d="M15.58,41.35c1.26,1.22,2.27,2.64,3.27,4.07c0.62,0.88,1.28,1.47,2.41,1.32c-1.26,0.23-2.53,0.07-3.8,0.05
		c-0.92-0.21-1.11-1.29-1.93-1.62C15.55,43.89,15.57,42.62,15.58,41.35z"/>
	<path class="st56" d="M21.31,45.43c-1.42-1.75-2.84-3.5-4.26-5.25c1.12,0,2.23,0,3.35,0c0.61,0.17,0.71,0.74,0.94,1.21
		C21.33,42.73,21.32,44.08,21.31,45.43z"/>
	<path class="st57" d="M22.73,43.44c0-0.63,0-1.26,0-1.89c0.08-0.03,0.15-0.06,0.23-0.09c1.18,1.69,2.36,3.37,3.57,5.11
		c-0.67,0.15-1.21,0.12-1.76,0.01c-1.08-0.66-1.51-1.77-1.98-2.85C22.77,43.64,22.75,43.54,22.73,43.44z"/>
	<path class="st58" d="M29.29,52.73c-1.23-1.4-2.25-2.95-3.42-4.68c0.7,0,1.23,0,1.75,0c0,0-0.02-0.01-0.02-0.01
		c0.85,0.54,1.28,1.38,1.65,2.27C29.26,51.12,29.28,51.92,29.29,52.73z"/>
	<path class="st59" d="M22.8,50.47c1.18,1.42,2.51,2.71,3.5,4.28c-0.26,0-0.52,0.01-0.78,0.01c-1.4-0.24-1.99-1.4-2.72-2.39
		C22.8,51.74,22.8,51.11,22.8,50.47z"/>
	<path class="st60" d="M22.79,43.74c0.66,0.95,1.32,1.9,1.98,2.85c-0.64,0.01-1.29,0.02-1.93,0.03
		C22.67,45.66,22.75,44.7,22.79,43.74z"/>
	<path class="st61" d="M21.32,51.45c-1.2-0.97-2.18-2.16-3.16-3.36c1.37,0.5,2.05,1.82,3.14,2.65
		C21.31,50.98,21.31,51.22,21.32,51.45z"/>
	<path class="st62" d="M29.25,50.31c-0.7-0.65-1.15-1.48-1.65-2.27C29.43,47.94,29.43,47.94,29.25,50.31z"/>
	<path class="st63" d="M24.39,54.78c-1.67,0.23-1.67,0.23-1.58-1.66C23.72,53.3,24.31,53.79,24.39,54.78z"/>
	<path class="st64" d="M24.39,54.78c-0.35-0.72-1-1.16-1.58-1.66c0-0.25,0-0.49,0-0.74c1.01,0.69,1.6,1.84,2.72,2.39
		C25.15,55.13,24.77,54.95,24.39,54.78z"/>
	<path class="st65" d="M15.53,45.16c0.1-0.4,0.26-0.41,0.51-0.1c0.47,0.58,0.94,1.15,1.42,1.72c-0.23,0-0.46,0.01-0.69,0.01
		c-0.72-0.18-0.95-0.79-1.21-1.37C15.56,45.34,15.55,45.25,15.53,45.16z"/>
	<path class="st66" d="M15.57,45.43c0.4,0.46,0.8,0.91,1.21,1.37C15.46,47.15,15.43,46.36,15.57,45.43z"/>
	<path class="st67" d="M21.34,41.39c-0.43-0.31-0.66-0.78-0.94-1.21C21.6,39.89,21.43,40.67,21.34,41.39z"/>
	<path class="st68" d="M33.79,28.17c-0.24-0.32-0.15-0.69-0.15-1.04c0-2.63,0-5.26,0.02-7.88c0-0.29-0.19-0.72,0.2-0.84
		c0.31-0.1,0.58,0.21,0.79,0.45c1.06,1.18,1.71,2.6,2.22,4.07c0.97,2.77,1.46,5.61,1.16,8.55c-1.03-2.12-2.72-3.73-4.01-5.45
		C34.17,26.69,34.36,27.44,33.79,28.17z"/>
	<path class="st56" d="M29.03,25.72c0.13-0.91,0.4-1.78,0.76-2.63c1.29,0.81,2.19,1.92,2.62,3.39c0.34,1.08,0.23,2.19,0.19,3.29
		c-0.17,0.08-0.31,0.01-0.42-0.11C31.09,28.38,29.79,27.27,29.03,25.72z"/>
	<path class="st54" d="M33.79,28.17c0-0.83,0-1.66,0-2.88c1.5,1.84,2.81,3.4,4.05,5.02c0.21,0.27,0.13,0.77,0.18,1.16
		c-0.51,0.17-1.02,0.11-1.53,0.04c-1.2-0.81-1.99-1.96-2.67-3.21C33.82,28.25,33.81,28.21,33.79,28.17z"/>
	<path class="st69" d="M32.37,31.51c-0.6,0.01-1.19,0.03-1.79,0.03c-2.4,0.01-2.42,0-2.22-2.41c0.06-0.66,0.26-1.32,0.39-1.97
		c1.29,0.56,1.83,1.84,2.7,2.8C31.84,30.4,32.53,30.73,32.37,31.51z"/>
	<path class="st70" d="M32.37,31.51c-1.21-1.45-2.41-2.9-3.61-4.35c-0.01-0.5,0.05-0.99,0.28-1.45c1.19,1.35,2.38,2.71,3.57,4.06
		C32.54,30.36,32.95,31,32.37,31.51z"/>
	<path class="st71" d="M32.41,26.48c-0.87-1.13-1.75-2.26-2.62-3.39c0.13-0.61,0.38-1.17,0.7-1.71c1.23,0.33,1.62,1.41,2.11,2.39
		C32.56,24.67,32.86,25.6,32.41,26.48z"/>
	<path class="st52" d="M32.6,23.77c-0.75-0.75-1.26-1.72-2.11-2.39c0.42-1.12,0.94-2.18,2.11-3.05C32.6,20.25,32.6,22.01,32.6,23.77
		z"/>
	<path class="st72" d="M33.83,28.29c1.01,0.97,1.83,2.1,2.66,3.21c-0.91-0.01-1.82-0.01-2.73-0.02c-0.06-0.97-0.13-1.95,0.04-2.92
		C33.82,28.47,33.82,28.38,33.83,28.29z"/>
	<path class="st68" d="M33.81,28.56c-0.01,0.97-0.03,1.95-0.04,2.92C33.58,30.5,33.58,29.53,33.81,28.56z"/>
</g>
</svg>
