<?xml version="1.0" encoding="utf-8"?>
<!-- Generator: Adobe Illustrator 23.0.2, SVG Export Plug-In . SVG Version: 6.00 Build 0)  -->
<svg version="1.1" id="Camada_1" xmlns="http://www.w3.org/2000/svg" xmlns:xlink="http://www.w3.org/1999/xlink" x="0px" y="0px"
	 viewBox="0 0 69.4 71.08" style="enable-background:new 0 0 69.4 71.08;" xml:space="preserve">
<style type="text/css">
	.st0{fill:#634922;}
	.st1{fill:#218795;}
	.st2{fill:#948937;}
	.st3{fill:#948A37;}
	.st4{fill:#0EC2A1;}
	.st5{fill:#968C38;}
	.st6{fill:#50765D;}
	.st7{fill:#BF8E19;}
	.st8{fill:#3A7A4E;}
	.st9{fill:#53557E;}
	.st10{fill:#736B31;}
	.st11{fill:#173B4A;}
	.st12{fill:#D2BD42;}
	.st13{fill:#BE9832;}
	.st14{fill:#D0B062;}
	.st15{fill:#BD9732;}
	.st16{fill:#927831;}
	.st17{fill:#D3BE42;}
	.st18{fill:#BD9731;}
	.st19{fill:#937931;}
	.st20{fill:#BF9932;}
	.st21{fill:#0E6489;}
	.st22{fill:#BE9732;}
	.st23{fill:#917831;}
	.st24{fill:#917731;}
	.st25{fill:#BD9832;}
	.st26{fill:#CBAA5F;}
	.st27{fill:#D8CE64;}
	.st28{fill:#927931;}
	.st29{fill:#DCD064;}
	.st30{fill:#91782F;}
	.st31{fill:#C5AF4C;}
	.st32{fill:#4CECE5;}
	.st33{fill:#957B31;}
	.st34{fill:#BF9933;}
	.st35{fill:#BE9933;}
	.st36{fill:#BD9833;}
	.st37{fill:#937A31;}
	.st38{fill:#388DAE;}
	.st39{fill:#8C8C3E;}
	.st40{fill:#4EA4D2;}
	.st41{fill:#3A90B1;}
	.st42{fill:#0D8AA9;}
	.st43{fill:#61C1CC;}
	.st44{fill:#C87721;}
	.st45{fill:#D9CE64;}
	.st46{fill:#398254;}
	.st47{fill:#6E2F79;}
	.st48{fill:#3E6A8B;}
	.st49{fill:#3E6B8C;}
	.st50{fill:#6B5CDF;}
	.st51{fill:#D3BF43;}
	.st52{fill:#E0CD45;}
	.st53{fill:#99BB73;}
	.st54{fill:#7A9F4F;}
	.st55{fill:#0D6186;}
	.st56{fill:#0D6085;}
	.st57{fill:#D9CE63;}
	.st58{fill:#E8F7F5;}
	.st59{fill:#A19D46;}
	.st60{fill:#9A9843;}
	.st61{fill:#E3E2E3;}
	.st62{fill:#847E32;}
	.st63{fill:#D2BE44;}
	.st64{fill:#AC790F;}
	.st65{fill:#8B8B3D;}
	.st66{fill:#B0FC58;}
	.st67{fill:#48EEE6;}
	.st68{fill:#49EFE7;}
	.st69{fill:#FDFEFE;}
	.st70{fill:#48EFE7;}
	.st71{fill:#48F0E7;}
	.st72{fill:#F8FCFC;}
	.st73{fill:#F9FDFC;}
	.st74{fill:#49EEE7;}
	.st75{fill:#46EBE4;}
	.st76{fill:#48EEE7;}
	.st77{fill:#E4FAF5;}
	.st78{fill:#51F4EA;}
	.st79{fill:#E4FCF7;}
	.st80{fill:#EDF6F7;}
	.st81{fill:#FBFDFD;}
	.st82{fill:#49EEE6;}
	.st83{fill:#F9FCFC;}
	.st84{fill:#EAFDF8;}
</style>
<g>
	<path d="M50.8,69.4c-4.72,0-9.45-0.19-14.15,0.04c-9.39,0.45-18.77,0.05-28.15,0.23c-1.39,0.03-2.76-0.4-4.17-0.06
		c-0.71,0.17-1.16-0.42-1.43-1.04c-0.22-0.52-0.29-1.08-0.27-1.64c0.1-2.71-0.2-5.44,0.19-8.14c0.02-0.15,0-0.32-0.02-0.47
		c-0.23-1.64,0.38-2.5,2.02-2.42c1.36,0.06,1.61-0.4,1.57-1.67C6.26,50.36,6.2,46.48,6.28,42.6c0.06-2.63-0.14-5.25,0-7.88
		c0.03-0.51-0.12-0.61-0.57-0.59c-0.84,0.02-1.68,0-2.52-0.01c-0.65-0.01-1.17-0.26-1.47-0.85C1.17,32.19,1.53,30,2.4,29.14
		c5.23-5.17,10.54-10.27,15.69-15.52c2.57-2.62,5.29-5.09,7.63-7.93c0.66-0.8,1.67-0.71,2.56-0.72c3.15-0.04,6.31,0,9.46-0.01
		c1.05,0,2.07,0.09,2.96,0.74c0.5,0.37,0.92,0.29,1.48-0.06c1.77-1.08,3.22-2.62,5.07-3.59c1.19-0.62,1.8-0.51,2.83,0.4
		c2.35,2.09,4.76,4.12,7.14,6.19c1.54,1.33,3.06,2.67,4.6,4.01c0.64,0.56,0.9,1.27,0.98,2.1c0.14,1.44-0.39,2.09-1.85,2.16
		c-0.12,0.01-0.24,0-0.36,0c-2.54,0.02-2.34,0.05-2.64,2.5c-0.3,2.5,0.64,4.18,2.53,5.59c1.77,1.32,3.06,3.14,4.73,4.56
		c0.92,0.78,0.68,1.83,0.48,2.79c-0.19,0.95-1.07,1.12-1.87,1.2c-0.75,0.08-1.52,0.07-2.28,0.02c-0.61-0.03-0.8,0.15-0.82,0.79
		c-0.27,6.83-0.1,13.67-0.2,20.5c-0.01,0.75,0.19,0.97,0.93,0.93c1.24-0.07,2.48-0.06,3.72-0.04c1.62,0.02,2.58,0.88,2.77,2.47
		c0.22,1.87,0.35,3.76,0.13,5.61c-0.17,1.4-0.52,2.78-0.7,4.2c-0.15,1.12-1.28,1.4-2.35,1.4c-4.75,0-9.49,0-14.24,0
		C50.8,69.43,50.8,69.42,50.8,69.4z"/>
	<path class="st0" d="M7.47,34.82c0-0.24-0.02-0.48,0.01-0.72c0.12-0.93-0.25-1.29-1.2-1.22c-0.91,0.07-1.84,0.02-2.75,0.01
		c-0.35,0-0.82,0.07-0.82-0.44c-0.02-1-0.21-1.97,0.72-2.85c2.98-2.84,5.78-5.86,8.77-8.68c2.44-2.3,4.99-4.48,7.26-6.95
		c1.84-2,3.72-3.94,5.68-5.81c0.36-0.12,0.67-0.34,0.84-0.64c0.71-1.24,1.85-1.32,3.07-1.25c0.61-0.19,1.23-0.25,1.88-0.25
		c1.84,0.02,3.67,0.07,5.51-0.01c1.56-0.07,3.01,0.12,4.21,1.18c0.5,0.44,0.82,0.27,1.34-0.05c1.75-1.05,3.3-2.36,4.96-3.52
		c1.28-0.9,1.67-0.72,2.88,0.2c3.66,2.81,6.83,6.19,10.52,8.97c0.34,0.26,0.59,0.64,0.86,0.98c0.36,0.46,0.6,1.04,0.4,1.55
		c-0.24,0.61-0.91,0.28-1.39,0.32c-0.95,0.08-1.92-0.12-2.85,0.16c-0.57-0.58-1-1.35-1.95-1.42c-1.68-1.2-3.05-2.76-4.71-3.99
		c-0.29-0.21-0.56-0.45-0.84-0.66c-1.39-1.05-1.7-1.02-2.86,0.25c-0.21,0.24-0.37,0.52-0.6,0.74c-0.64,0.63-0.52,1.16,0.13,1.69
		c0.24,0.2,0.46,0.44,0.64,0.7c0.06,0.1,0.11,0.2,0.15,0.3c0.53,1.74,2.06,2.49,3.38,3.45c0.59,0.31,1.07,0.76,1.53,1.23
		c0.57,0.57,1.09,1.2,1.77,1.65c0.62,0.43,1.09,1,1.61,1.53c0.58,0.48,0.74,0.2,0.74-0.4c0-1.23-0.04-2.47,0.02-3.7
		c0.02-0.4-0.16-1,0.57-1.05c-0.01,1.87,0.04,3.75-0.07,5.62c-0.06,1.02,0.28,1.71,1.01,2.39c2.07,1.93,4.08,3.92,6.13,5.86
		c0.56,0.53,0.94,1.04,0.61,1.86c-0.32,0.79-0.98,0.49-1.53,0.55c-1.17,0.13-2.39-0.26-3.54,0.25c-0.55,0.73-1.14,0.63-1.76,0.11
		c-1.6-0.13-3.2-0.03-4.79-0.05c-0.76-0.01-1.39-0.2-1.9-0.82c-1.58-1.96-3.46-3.65-5.13-5.52c-3.37-3.78-6.8-7.51-10.17-11.3
		c-1.26-1.41-3-1.55-4.33-0.09c-1.64,1.79-3.25,3.62-4.89,5.42c-2,2.22-4.03,4.42-6.02,6.65c-1.57,1.75-3.14,3.49-4.81,5.16
		c-0.87,0.86-1.74,1.14-2.87,1.09c-1.39-0.06-2.76-0.4-4.16-0.15c-0.52,0.08-0.63,0.48-0.72,0.91C7.92,34.38,8,34.82,7.47,34.82z"/>
	<path class="st1" d="M38.89,68.13c-6.16,0.5-12.34,0.31-18.51,0.32c-5.22,0.01-10.45-0.06-15.67-0.05c-0.71,0-0.83-0.35-0.84-0.86
		c-0.03-2.83-0.19-5.67,0.12-8.49c0.06-0.58-0.27-1.17,0.09-1.72c0.08,0.01,0.15,0.02,0.23,0.03c10.01-0.15,20.02-0.05,30.03-0.08
		c0.84,0,1.72-0.09,2.11,0.93c0.1,0.09,0.22,0.17,0.36,0.22c1.71,0.14,3.42-0.02,5.12,0.08c0.21,0.03,0.4,0.1,0.56,0.24
		c-0.04,0.73-0.63,0.59-1.05,0.62c-1.07,0.07-2.15,0.01-3.22,0.03c-0.37,0.01-0.83-0.13-1.01,0.39c-0.12,0.37-0.15,0.74-0.14,1.12
		c0.03,1.59,0,3.18,0.02,4.77c0,0.44,0.04,0.87,0.23,1.28c0.14,0.41,0.4,0.64,0.86,0.68C38.48,67.68,38.85,67.68,38.89,68.13z"/>
	<path class="st1" d="M66.93,59.81c0.01,1.24,0.22,2.51-0.02,3.7c-0.26,1.34-0.61,2.65-0.67,4.03c-0.03,0.59-0.63,0.69-1.1,0.68
		c-3.62-0.08-7.25,0.16-10.87-0.11c-0.15-0.12-0.16-0.27-0.13-0.44c0.07-0.22,0.17-0.42,0.33-0.59c0.19-0.17,0.42-0.24,0.67-0.23
		c0.51,0.03,1.03,0.06,1.54,0.02c2.39-0.04,4.78-0.04,7.16-0.01c0.97,0.01,1.35-0.34,1.33-1.32c-0.03-1.99-0.06-3.98,0.02-5.97
		c0.03-0.82-0.33-1.15-1.14-1.14c-1.31,0.03-2.63,0-3.94,0.02c-1.23,0.04-2.46,0.08-3.69,0.17c-0.78,0.06-1.12,0.42-1.1,1.22
		c0.03,1.23,0.02,2.47,0,3.7c-0.01,0.51,0.05,1.04-0.29,1.49c-0.37,0.18-0.55-0.06-0.72-0.32c-0.19-2.61-0.36-5.21,0.09-7.82
		c1.14-0.7,2.39-0.21,3.59-0.33c0.45,0.01,0.92-0.03,1.3,0.3c1.77,0.21,3.55,0.11,5.32,0.05c0.97-0.03,1.67,0.14,1.96,1.15
		C66.82,58.62,66.65,59.27,66.93,59.81z"/>
	<path class="st2" d="M7.47,34.82c0.33-0.26,0.25-0.63,0.23-0.97c-0.03-0.69,0.26-1.02,0.97-0.94c0.44,0.45,0.37,1.03,0.37,1.58
		c0.05,7.05-0.06,14.1-0.05,21.16c0,0.4,0.01,0.8-0.19,1.17c-0.4,0.43-0.84,0.44-1.3,0.09c0-5.34-0.08-10.69,0.02-16.03
		C7.57,38.86,7.22,36.84,7.47,34.82z"/>
	<path class="st3" d="M59.29,56.87c-0.39-0.01-0.77-0.02-1.16-0.03c-0.09-0.13-0.14-0.27-0.15-0.43
		c-0.05-5.71-0.01-11.42-0.02-17.13c0-1.44,0-2.87-0.18-4.3c-0.11-0.85-0.27-1.76,0.31-2.55c0.36,0.85,0.93,0.43,1.46,0.23
		C59.23,40.73,59.46,48.8,59.29,56.87z"/>
	<path class="st4" d="M36.97,59.72c-0.22-0.68,0.18-0.66,0.68-0.68c1.62-0.07,3.25,0.2,4.85-0.14c0.62-0.66,1.38-0.38,2.11-0.3
		c0.83,0.29,1.11,0.93,1.11,1.74c0.01,0.7,0,1.41,0.16,2.1c0.11,1.12,0.11,2.24,0.01,3.36c-0.3,0.77-0.07,1.77-0.95,2.31
		c-2.01,0.12-4.03,0.11-6.05,0.02c-0.3-0.29-0.67-0.19-1.01-0.18c-0.53,0.02-0.7-0.24-0.66-0.73c0.19-0.23,0.45-0.28,0.73-0.31
		c0.46-0.04,0.93-0.03,1.4-0.02c0.26-0.01,0.53-0.01,0.79,0c0.52-0.01,1.04-0.01,1.57,0c0.19,0,0.38,0,0.57,0
		c0.47-0.04,0.98,0.11,1.38-0.27c0.42-1.28,0.11-2.58,0.19-3.87c0.04-0.59,0.01-1.18-0.01-1.77c0.03-0.85-0.61-0.81-1.15-0.82
		c-1.43-0.04-2.86,0.01-4.29-0.02C37.89,60.12,37.34,60.21,36.97,59.72z"/>
	<path class="st5" d="M55.45,14.18c1.05,0.04,1.69,0.58,1.9,1.62c-0.14,0.11-0.28,0.21-0.42,0.32c-0.51,0.54-0.23,1.21-0.25,1.81
		c-0.05,1.39-0.01,2.78-0.01,4.23c-0.67-0.03-1.04-0.44-1.44-0.79c-0.22-1.82-0.11-3.65-0.12-5.48
		C55.17,15.31,54.97,14.68,55.45,14.18z"/>
	<path class="st6" d="M36.52,58.81c-0.09,0-0.18,0.01-0.28,0.01c0.06-1.14-0.5-1.36-1.59-1.35c-9.74,0.05-19.48,0.03-29.22,0.03
		c-0.44,0-0.88,0.07-1.31-0.07l-0.05-0.1c0.55-0.45,1.2-0.23,1.79-0.22c0.47,0.01,0.92,0.01,1.37-0.15
		c1.16,0.28,2.28-0.18,3.43-0.17c7.62,0.04,15.24,0.04,22.85,0.01c1,0.02,2.02-0.21,2.98,0.27C36.92,57.63,36.92,58.22,36.52,58.81z
		"/>
	<path class="st7" d="M33.61,57.12c-8.53,0-17.05,0-25.58,0c-0.27,0-0.56,0.06-0.79-0.17c0.09-0.02,0.18-0.03,0.27-0.05
		c0.4-0.01,0.8-0.02,1.2-0.03c0.11-0.11,0.24-0.19,0.38-0.24c2.02-0.21,4.05-0.09,6.08-0.08c2.43,0.02,4.86,0,7.3,0.01
		c0.23,0,0.46,0,0.69,0c2.51,0.01,5.02,0.01,7.53,0c0.64-0.05,1.27-0.06,1.91,0C32.99,56.6,33.51,56.51,33.61,57.12z"/>
	<path class="st8" d="M54.26,67.7c0,0.14,0,0.27,0,0.41c-2.73,0-5.46,0.01-8.18,0.01c-0.14-0.23-0.11-0.44,0.06-0.64
		c0.34-0.35,0.79-0.36,1.23-0.36c1.92-0.02,3.84-0.03,5.76,0.01C53.57,67.15,54.14,67.01,54.26,67.7z"/>
	<path class="st9" d="M46.11,67.7c-0.01,0.14-0.01,0.29-0.02,0.43c-0.38-0.01-0.76-0.01-1.15-0.02c0.22-0.7,0.43-1.41,0.64-2.11
		c0.1-0.08,0.22-0.11,0.35-0.11c0.13,0.03,0.23,0.09,0.3,0.2c0.17,0.35,0.18,0.72,0.11,1.1C46.28,67.37,46.21,67.54,46.11,67.7z"/>
	<path class="st10" d="M29.05,6.27c-1.68-0.15-2.6,1.28-3.91,1.9C26,7.45,26.4,6.15,27.8,6.09C28.24,6.07,28.67,6,29.05,6.27z"/>
	<path class="st11" d="M66.93,59.81c-0.65-0.47-0.36-1.14-0.36-1.75C67.2,58.54,66.91,59.21,66.93,59.81z"/>
	<path class="st12" d="M8.9,56.88H8.8l-0.1-0.01c0-7.98-0.02-15.97-0.03-23.96c1.3-0.46,2.62-0.05,3.9,0.04
		c1.29,0.08,2.13-0.09,3.11-1.09c4.05-4.14,7.77-8.57,11.72-12.79c1.42-1.52,2.77-3.09,4.18-4.62c0.96-1.04,3.17-1.04,4.05-0.05
		c3.46,3.87,6.92,7.74,10.4,11.59c1.79,1.98,3.65,3.91,5.43,5.91c0.43,0.48,0.88,0.61,1.47,0.58c1.71-0.1,3.43-0.14,5.15-0.04
		c0.42,7.62,0.17,15.24,0.23,22.86c0,0.46,0.17,0.96-0.21,1.38c-1.32,0.19-1.32,0.19-1.31-1c0.02-3.92-0.01-7.83,0.02-11.75
		c0.02-2.07-0.15-4.15,0.2-6.22c0.13-0.79-0.03-1.33-1.07-1.16c-2.46,0.4-4.34-0.56-5.81-2.53c-0.91-1.22-1.96-2.32-3.05-3.37
		c-2.24-2.16-4.38-4.43-6.39-6.81c-0.75-0.89-1.71-1.55-2.77-2.04c-0.79-0.4-0.9-1.27-1.33-1.92c-0.73-1.1-1.37-2.26-2.96-2.27
		c-1.2-0.01-2.06,0.55-2.72,1.45c-1.39,1.89-2.23,4.02-2.78,6.28c-0.14,0.56-0.04,1.22-0.61,1.62c-0.23,0.18-0.01-0.73-0.53-0.15
		c-3.76,4.15-7.34,8.46-11.05,12.65c-0.78,0.11-1.03,0.63-1.06,1.34c-1.42,1.68-2.83,3.36-4.33,4.96c-0.89,0.95-1.4,1.96-1.34,3.32
		c0.09,2.15,0.01,4.31,0.04,6.47C9.23,56.01,9.25,56.49,8.9,56.88z"/>
	<path class="st13" d="M35.55,12.73c-1.44-0.48-2.88-0.31-4.32,0.01c-0.31,0.18-0.63,0.34-1,0.34c-2.13-0.01-4.26,0.17-6.38-0.1
		c-0.49-0.18-0.45-0.55-0.18-0.83c0.72-0.75,1.38-1.63,2.56-1.71c4.93-0.02,9.86,0,14.79-0.01c0.61,0,1.19,0.08,1.73,0.35
		c0.7,0.59,1.38,1.21,1.92,1.96c-0.37,0.38-0.86,0.37-1.34,0.38c-2.03,0.02-4.05,0.01-6.08,0.01C36.66,13.13,36.1,12.97,35.55,12.73
		z"/>
	<path class="st14" d="M25.91,10.56c-0.77,0.75-1.77,1.25-2.38,2.17c-0.21,0.68-0.79,1.03-1.29,1.44c-0.63,0.44-1.11,1.03-1.66,1.56
		c-0.43,0.41-0.85,0.83-1.26,1.26c-0.76,0.72-1.29,1.65-2.09,2.33c-0.5,0.48-0.99,0.97-1.47,1.46c-0.49,0.47-0.97,0.96-1.45,1.45
		c-0.5,0.48-0.99,0.97-1.46,1.47c-1.02,1.01-2.03,2.03-3.05,3.05c-0.42,0.41-0.86,0.81-1.23,1.27c-0.43,0.84-1.4,1.26-1.69,2.2
		c1.7,0.35,3.41,0.08,5.12,0.16c0.6,0.03,1.2-0.04,1.8,0.04c0.36,0.05,0.85-0.05,0.88,0.56c-0.1,0.07-0.2,0.19-0.29,0.19
		c-3.37,0.01-6.74,0.01-10.14,0.01c0.11-0.5,0.49-0.69,0.75-0.96c6.44-6.48,12.9-12.95,19.34-19.43c0.7-0.71,1.43-1.4,2.04-2.18
		c0.77-0.98,1.69-1.4,2.91-1.13c-0.05,0.7-0.8,0.35-1.07,0.72c-0.33,0.41-0.51,0.93-0.91,1.29C26.85,9.85,26.55,10.43,25.91,10.56z"
		/>
	<path class="st15" d="M48.72,26.69c-1.01-0.85-1.87-1.84-2.64-2.91c0.45-0.44,1.03-0.35,1.58-0.36c2.15-0.07,4.3,0.1,6.45,0.01
		c0.59-0.02,1.22-0.04,1.57,0.61c0.91,0.77,2,1.34,2.68,2.38c-0.09,0.61-0.61,0.59-1.01,0.6c-2.5,0.07-5,0.04-7.5,0.02
		C49.44,27.03,49.08,26.85,48.72,26.69z"/>
	<path class="st13" d="M9.62,26.66c0.93-1.15,2.01-2.14,3.09-3.14c2.41-0.25,4.82-0.1,7.23-0.08c0.4,0,0.91-0.01,1,0.6
		c-0.81,0.88-1.62,1.76-2.43,2.63c-0.35,0.18-0.72,0.35-1.13,0.36c-2.26,0.03-4.53,0.04-6.79-0.01
		C10.23,27.01,9.88,26.95,9.62,26.66z"/>
	<path class="st16" d="M25.91,10.56c0.41-0.4,0.81-0.8,1.22-1.19c0.57-0.35,1.2-0.38,1.84-0.38c3.5,0,7.01,0,10.51,0
		c0.64,0,1.27,0.04,1.84,0.39c0.57,0.38,1.02,0.88,1.44,1.41c-5.32,0.01-10.65,0.02-15.97,0.03C26.48,10.81,26.15,10.86,25.91,10.56
		z"/>
	<path class="st17" d="M55.45,14.18c0,0.56,0,1.11,0.01,1.67c-0.88,0.21-1.21-0.64-1.83-0.95c-0.36-0.26-0.74-0.49-1.03-0.83
		c-0.76-0.93-1.79-1.57-2.67-2.36c-0.6-0.55-1.07-0.51-1.55,0.19c-0.35,0.5-0.61,1.14-1.32,1.3c-1.9-1.59-1.9-1.59-0.28-3.35
		C46.89,9.73,47,9.62,47.11,9.5c1.23-1.24,1.22-1.23,2.63-0.19C51.75,10.8,53.62,12.47,55.45,14.18z"/>
	<path class="st18" d="M41.32,9.38c-4.73,0-9.46,0-14.19-0.01c0.28-0.46,0.7-0.84,0.73-1.43c2.8-0.45,5.61-0.2,8.42-0.22
		c1.21-0.01,2.46-0.25,3.65,0.2C40.46,8.35,40.97,8.78,41.32,9.38z"/>
	<path class="st15" d="M17.04,19.19c0.72-0.8,1.43-1.59,2.15-2.39c2.35-0.24,4.71-0.11,7.06-0.08c0.36,0,0.84,0,0.89,0.57
		c-0.58,0.7-1.18,1.38-1.9,1.94c-0.46,0.26-0.96,0.37-1.49,0.37c-1.79,0-3.59,0.02-5.38-0.01C17.89,19.59,17.39,19.6,17.04,19.19z"
		/>
	<path class="st13" d="M48.99,17.05c0.7,0.58,1.35,1.21,1.91,1.93c0,0.41-0.32,0.42-0.58,0.41c-2.65-0.08-5.29,0-7.94-0.05
		c-0.2,0-0.39-0.07-0.57-0.15c-0.58-0.63-1.15-1.25-1.73-1.88c0.07-0.54,0.52-0.57,0.89-0.59c2.34-0.09,4.68-0.07,7.02-0.01
		C48.35,16.71,48.67,16.89,48.99,17.05z"/>
	<path class="st15" d="M6.52,30.03c0.63-0.72,1.26-1.45,1.89-2.17c2.58-0.29,5.16-0.11,7.74-0.1c0.36,0,0.83,0.01,0.89,0.57
		c-0.47,0.64-1.03,1.21-1.65,1.71c-0.4,0.18-0.79,0.34-1.25,0.33c-2.18,0-4.35,0-6.53-0.01C7.22,30.37,6.82,30.35,6.52,30.03z"/>
	<path class="st16" d="M48.72,26.69c2.8-0.01,5.6-0.01,8.4-0.04c0.42,0,0.89,0.16,1.24-0.24c0.61,0.51,1.26,0.99,1.62,1.73
		c-0.23,0.48-0.68,0.53-1.12,0.54c-2.52,0.05-5.03,0.04-7.55,0c-0.41-0.01-0.77-0.19-1.14-0.34C49.54,27.92,49.07,27.36,48.72,26.69
		z"/>
	<path class="st16" d="M55.67,24.03c-1.46-0.6-2.98-0.11-4.46-0.22c-1.7-0.13-3.42-0.03-5.13-0.03c-0.63-0.48-1.21-1.02-1.64-1.69
		c0.2-0.23,0.47-0.32,0.75-0.32c2.87-0.03,5.74-0.18,8.61,0.08C54.48,22.52,55.41,22.99,55.67,24.03z"/>
	<path class="st16" d="M41.81,19.18c0.92-0.38,1.89-0.17,2.84-0.19c2.09-0.04,4.17-0.02,6.26-0.02c0.65,0.47,1.2,1.04,1.68,1.68
		c-0.26,0.3-0.62,0.36-0.97,0.36c-2.73,0-5.47,0.15-8.2-0.09C42.84,20.38,42.19,19.9,41.81,19.18z"/>
	<path class="st19" d="M35.55,12.73c3.04,0,6.09,0.01,9.13,0.01c0.65,0.46,1.18,1.05,1.69,1.65c-0.25,0.31-0.61,0.37-0.97,0.37
		c-2.66,0.01-5.32,0.21-7.95-0.34C36.81,13.86,36.18,13.3,35.55,12.73z"/>
	<path class="st20" d="M50.17,28.35c2.8-0.01,5.61-0.01,8.41-0.02c0.48,0,0.96,0.04,1.4-0.19c0.58,0.38,1.08,0.84,1.51,1.39
		c-0.09,0.61-0.6,0.59-1.01,0.6c-2.66,0.07-5.32,0.05-7.97,0.02c-0.41,0-0.78-0.15-1.11-0.38C50.99,29.29,50.58,28.82,50.17,28.35z"
		/>
	<path class="st16" d="M20.94,24.04c-0.35-0.4-0.82-0.25-1.24-0.25c-1.92-0.02-3.84,0-5.76-0.02c-0.42,0-0.89,0.15-1.24-0.25
		c0.43-0.54,0.9-1.04,1.46-1.43c0.46-0.26,0.96-0.38,1.49-0.38c1.87,0,3.75-0.01,5.62,0.01c0.47,0.01,0.97-0.01,1.33,0.41
		C22.21,22.9,21.6,23.49,20.94,24.04z"/>
	<path class="st21" d="M52.81,13.94c0.32,0.25,0.63,0.51,0.95,0.76c0.66,1.75,0.6,3.51,0.05,5.28c-0.7-0.43-1.22-1.05-1.73-1.69
		c-0.22-0.79,0.28-1.56,0.04-2.34c-0.43-0.76-1.21-0.63-1.88-0.74c-0.31,0.04-0.88-0.12-0.38,0.52c0.34,0.44,1,0.69,0.83,1.43
		c-1.25-0.61-2.26-1.53-3.17-2.57c-0.28-0.31-0.47-0.73-0.38-1.2c1.34,0.24,2.7,0.2,4.06,0.19C51.76,13.58,52.32,13.6,52.81,13.94z"
		/>
	<path class="st22" d="M43.41,20.93c0.34-0.4,0.81-0.25,1.22-0.26c2.65-0.02,5.3-0.01,7.95-0.02c0.4,0.4,0.8,0.8,1.2,1.2
		c-0.31,0.37-0.74,0.24-1.12,0.24c-2.75,0.01-5.49,0-8.24,0C44.09,21.7,43.75,21.31,43.41,20.93z"/>
	<path class="st23" d="M48.99,17.05c-2.56,0-5.11,0-7.67,0.02c-0.42,0-0.89-0.16-1.24,0.24c-0.66-0.4-0.98-1.09-1.45-1.66
		c0.25-0.32,0.61-0.38,0.96-0.38c2.58,0,5.16-0.15,7.74,0.09C47.89,15.92,48.44,16.48,48.99,17.05z"/>
	<path class="st23" d="M17.05,28.33c-0.31-0.36-0.74-0.22-1.11-0.22c-2.14-0.01-4.27,0-6.41-0.02c-0.38,0-0.8,0.14-1.11-0.23
		c0.34-0.46,0.73-0.88,1.2-1.2c2.96,0,5.93,0.01,8.89,0.01C18.02,27.23,17.54,27.78,17.05,28.33z"/>
	<path class="st22" d="M22.61,22.13c-2.81-0.01-5.63-0.03-8.44-0.04c0.41-0.55,0.87-1.05,1.45-1.43c0.45-0.27,0.95-0.38,1.48-0.38
		c1.78,0,3.57-0.03,5.35,0.02c0.5,0.01,1.16-0.15,1.36,0.62C23.4,21.32,23.01,21.72,22.61,22.13z"/>
	<path class="st24" d="M23.8,20.91c-0.35-0.41-0.82-0.24-1.24-0.24c-2.32-0.02-4.63-0.01-6.95-0.01c0.37-0.58,0.89-1.03,1.42-1.46
		c2.73,0.01,5.46,0.03,8.19,0.04C24.81,19.83,24.45,20.5,23.8,20.91z"/>
	<path class="st16" d="M27.13,17.3c-0.31-0.38-0.74-0.23-1.11-0.23c-1.87-0.01-3.73,0-5.6-0.01c-0.42,0-0.89,0.15-1.23-0.25
		c0.35-0.46,0.73-0.88,1.22-1.2c0.5-0.28,1.04-0.37,1.61-0.37c1.71,0.01,3.42-0.01,5.13,0.01c0.51,0.01,1.05-0.03,1.45,0.39
		C28.1,16.18,27.62,16.74,27.13,17.3z"/>
	<path class="st25" d="M28.59,15.63c-2.73-0.01-5.46-0.02-8.18-0.03c0.49-0.63,1.04-1.2,1.69-1.66c2.18-0.25,4.36-0.12,6.54-0.11
		c0.43,0,1-0.09,1.12,0.58C29.45,14.9,29.04,15.28,28.59,15.63z"/>
	<path class="st16" d="M29.76,14.41c-0.48-0.43-1.06-0.2-1.59-0.21c-1.66-0.03-3.32-0.01-4.97-0.02c-0.38,0-0.8,0.14-1.11-0.24
		c0.48-0.4,0.96-0.8,1.43-1.2c2.56,0,5.13,0,7.69,0.01C30.74,13.3,30.25,13.86,29.76,14.41z"/>
	<path class="st13" d="M47.34,15.36c-0.34,0.41-0.81,0.25-1.22,0.26c-2.49,0.02-4.99,0.03-7.48,0.04c-0.39-0.41-0.79-0.81-1.18-1.22
		c0.31-0.37,0.74-0.28,1.11-0.22c2.6,0.42,5.21,0.13,7.81,0.19C46.69,14.71,47.01,15.04,47.34,15.36z"/>
	<path class="st26" d="M43.7,7.48c1.25-0.98,2.53-1.92,3.74-2.95c0.45-0.38,0.65-0.19,0.96,0.1c1.06,0.96,2.13,1.9,3.2,2.85
		c-0.44,0.92-1.08,0.4-1.68,0.23c-2.1-1.84-2.3-1.84-4.52,0.02C44.8,7.93,44.15,8.38,43.7,7.48z"/>
	<path class="st27" d="M52.81,13.94c-1.39,0-2.79-0.04-4.18,0c-0.61,0.02-1.08-0.13-1.49-0.56c-0.02-0.07-0.05-0.13-0.08-0.2
		c0.24-0.31,0.47-0.63,0.72-0.94c1.49-1.85,0.83-1.9,2.87-0.31C51.41,12.53,52.33,13.02,52.81,13.94z"/>
	<path class="st28" d="M51.4,29.76c3.07,0.01,6.14,0.02,9.22,0.02c0.31,0,0.65,0.06,0.87-0.26c0.35,0.32,0.69,0.64,1.04,0.96
		c-0.26,0.43-0.61,0.24-0.89,0.24c-2.79,0.02-5.59-0.02-8.38,0.02C52.4,30.77,51.78,30.54,51.4,29.76z"/>
	<path class="st29" d="M53.81,19.98c-0.02-1.76-0.04-3.52-0.05-5.28c0.64,0.28,1,0.97,1.7,1.16c0.01,1.51,0.02,3.03,0.01,4.54
		c0,0.34,0.14,0.73-0.25,0.98C54.75,20.91,54.28,20.44,53.81,19.98z"/>
	<path class="st30" d="M6.52,30.03c2.96,0,5.92,0.01,8.88,0.01c-0.24,0.31-0.48,0.63-0.72,0.94c-0.34-0.41-0.81-0.23-1.23-0.23
		c-2.23-0.02-4.45-0.02-6.68,0C5.82,30.77,6.27,30.39,6.52,30.03z"/>
	<path class="st31" d="M39.93,7.92c-4.02,0.01-8.05,0.02-12.07,0.02c0.36-0.52,1.06,0.01,1.43-0.47c3.26,0,6.52,0,9.78-0.01
		C39.45,7.46,39.8,7.48,39.93,7.92z"/>
	<path class="st32" d="M52.35,15.83c0.19,0.85,0.23,1.69-0.27,2.47c-0.43-0.42-0.82-0.89-1.39-1.14c-0.24-0.91-1.25-1.22-1.66-2.09
		c0.38-0.21,0.76-0.12,1.12-0.08c0.55,0.23,1.05,0.55,1.52,0.91C51.96,16.1,52.16,16.12,52.35,15.83z"/>
	<path class="st33" d="M57.39,12.49c0.75,0.63,1.5,1.27,2.39,2.03c-1.04,0.22-1.81,0.3-2.48-0.49c-0.4-0.48-0.91-0.86-1.38-1.28
		C56.36,12.31,56.88,12.45,57.39,12.49z"/>
	<path class="st34" d="M57.39,12.49c-0.42,0.46-0.97,0.16-1.46,0.26c-0.64-0.56-1.28-1.12-1.92-1.68c0.35-0.85,0.93-0.35,1.44-0.24
		C56.1,11.38,56.75,11.93,57.39,12.49z"/>
	<path class="st35" d="M49.94,7.71c0.55-0.11,1.17,0.21,1.68-0.23c0.64,0.55,1.28,1.11,1.92,1.66c-0.35,0.84-0.92,0.42-1.44,0.24
		C51.33,8.88,50.56,8.4,49.94,7.71z"/>
	<path class="st36" d="M43.7,7.48c0.52,0.45,1.15,0.11,1.71,0.25c-0.39,0.4-0.78,0.79-1.17,1.19c-0.43,0.45-0.79,0.9-1.43,0.19
		c-0.68-0.75,0.11-0.92,0.41-1.29C43.35,7.68,43.54,7.59,43.7,7.48z"/>
	<path class="st37" d="M52.09,9.39c0.48-0.1,1.02,0.19,1.44-0.24c0.64,0.56,1.29,1.12,1.93,1.68c-0.48,0.08-1.02-0.21-1.44,0.24
		C53.38,10.5,52.73,9.95,52.09,9.39z"/>
	<path class="st38" d="M35.3,59.78c0,1.95,0,3.91,0,5.86c0,1.58,0,1.58-1.64,1.58c-8.97,0-17.94,0-26.92,0
		c-0.38-0.42-0.38-0.95-0.39-1.47c-0.01-1.52-0.03-3.03,0-4.55c0.03-1.5,0.32-1.8,1.87-1.81c4.63-0.03,9.25-0.01,13.88-0.01
		c3.79,0,7.58-0.01,11.37,0C34.1,59.39,34.76,59.31,35.3,59.78z"/>
	<path class="st39" d="M44.65,58.86c-0.71,0.01-1.43,0.02-2.14,0.03c-0.17-0.03-0.34-0.07-0.51-0.1c-0.21-0.11-0.38-0.26-0.46-0.5
		c-0.27-1.59-0.11-3.19-0.13-4.78c-0.03-2.24-0.03-4.47,0-6.71c0.02-1.35,0.36-1.74,1.41-1.76c1.11-0.02,1.48,0.38,1.49,1.8
		c0.03,3.15,0,6.31,0.02,9.46c0,0.47-0.1,0.96,0.19,1.42c0.36-0.43,0.23-0.93,0.23-1.38c0.02-3.19-0.02-6.39,0.02-9.58
		c0.02-1.35,0.34-1.69,1.44-1.74c1.25-0.06,1.64,0.31,1.68,1.59c0.06,2.11-0.11,4.23,0.1,6.34c0,0.83,0.56,1.23,1.22,1.54
		c0.15,2.25,0.37,4.51-0.14,6.74c-0.75,0.52-1.59,0.36-2.4,0.26c-0.76-0.09-0.94-0.69-0.9-1.31C45.83,59.33,45.42,58.96,44.65,58.86
		z"/>
	<path class="st40" d="M35.3,59.78c-9.01,0-18.02,0-27.03,0c-1.52,0-1.52,0-1.52,1.58c0,1.95,0,3.91,0,5.86
		c-1.68,0.01-1.68,0.01-1.68-1.65c0-2.04,0.06-4.08-0.02-6.11c-0.04-0.98,0.4-1.31,1.22-1.33c1.12-0.03,2.24-0.08,3.35,0
		c5.7,0.42,11.41,0.18,17.12,0.13c2.26-0.02,4.54-0.11,6.81-0.16C35.29,58.07,35.29,58.09,35.3,59.78z"/>
	<path class="st41" d="M37.95,67.2c-0.24,0.01-0.49,0.01-0.73,0.02c-0.59-0.09-0.47-0.54-0.47-0.92c0-1.86,0.01-3.73,0.02-5.59
		c1.69-0.46,3.38-0.74,5.03,0.16c-1.46,0.49-1.32,1.68-1.35,2.87c-0.03,1.16,0.32,2.37-0.34,3.47c-0.25,0-0.49-0.01-0.74-0.01
		c-0.48-0.59-0.32-1.29-0.33-1.95c-0.03-1.19,0.06-2.38-0.45-3.69c-0.41,0.65-0.23,1.24-0.29,1.79
		C38.16,64.63,38.63,65.97,37.95,67.2z"/>
	<path class="st42" d="M4.13,57.42c6.78-0.01,13.55-0.03,20.33-0.04c3.47-0.01,6.94,0.06,10.4-0.03c1.21-0.03,1.58,0.37,1.39,1.47
		c-0.14-1.1-0.83-1.23-1.82-1.22c-9.64,0.04-19.28,0.03-28.92,0.01C5.05,57.61,4.55,57.79,4.13,57.42z"/>
	<path class="st43" d="M41.79,60.97c-1.14-0.48-2.33-0.11-3.49-0.21c-0.51-0.05-1.03-0.03-1.54-0.05c-0.01-0.35-0.12-0.72,0.21-1
		c2.02,0.02,4.05,0.09,6.07,0.03c0.96-0.03,1.32,0.29,1.15,1.22c-0.04,0.04-0.08,0.07-0.13,0.11c-0.06,0.01-0.11,0.01-0.17,0.02
		c-0.66-0.17-1.32,0.06-1.98-0.02C41.87,61.04,41.83,61.01,41.79,60.97z"/>
	<path class="st44" d="M41.78,58.58c0.07,0.07,0.14,0.14,0.21,0.21c-1.82,0.01-3.65,0.01-5.47,0.02c-0.02-0.54-0.05-1.08-0.07-1.63
		c0.1-0.08,0.28-0.1,0.3-0.01c0.4,1.41,1.5,1.08,2.49,1.02c0.46-0.01,0.92,0.07,1.39,0.01C41.05,58.22,41.46,58.27,41.78,58.58z"/>
	<path class="st45" d="M37.93,21.6c1.06,0,1.84,0.73,2.39,1.39c3.29,3.96,7.29,7.26,10.47,11.31c1.37,1.74,3.24,2.34,5.33,1.88
		c1.14-0.25,1.35,0.07,1.26,1.06c-0.52,6.14-0.08,12.29-0.27,18.43c-0.03,0.89,0.21,1.13,1,0.99c0,0.06,0,0.12,0.02,0.18
		c-1.22,0.05-2.44,0.09-3.66,0.14c-0.12,0.09-0.26,0.14-0.41,0.17c-0.15,0.02-0.3,0.02-0.45,0c-1.52-0.34-1.6-0.43-1.61-1.96
		c-0.02-2.69,0.02-5.39-0.02-8.08c-0.01-0.88-0.25-1.74-0.24-2.62c0.01-0.92-0.46-1.29-1.31-1.34c-1.16-0.07-2.31-0.03-3.47-0.04
		c-1.95-0.01-3.91,0.02-5.86-0.01c-0.96-0.01-1.39,0.37-1.36,1.34c0.07,2.51-0.11,5.02,0.12,7.53c0.08,0.88-0.03,1.75-0.36,2.58
		c-0.2,0.28-0.48,0.45-0.8,0.47c-1.75,0.15-3.51,0.17-5.26,0c-0.97-0.1-1.12-0.9-1.13-1.7c-0.03-2.24-0.03-4.48-0.01-6.71
		c0.02-2.15,0.23-4.33-1.37-6.12c-0.45-0.85-1.28-0.72-2.01-0.72c-3.76-0.04-7.51,0-11.27-0.03c-0.61,0-1.3,0.16-1.79-0.43
		c0.78-1.35,1.93-2.4,2.93-3.56c2.61-3.04,5.29-6.02,7.94-9.03c0.41-0.47,0.69-0.55,0.67,0.23c0.22,0.21,0.26,0.49,0.22,0.77
		c-0.27,1.74-0.02,3.48-0.08,5.22c0.31,1.08,0.95,1.43,2.13,1.36c2.54-0.16,5.09-0.02,7.64-0.07c0.82-0.02,1.76,0,1.74-1.25
		c0.22-3.44,0.21-6.84-1.01-10.13C37.88,22.45,37.63,22.04,37.93,21.6z"/>
	<path class="st38" d="M60.01,58.11c1.51,0,3.03,0.02,4.54-0.02c0.69-0.02,1.01,0.16,1,0.93c-0.04,2.43-0.04,4.86,0,7.29
		c0.01,0.78-0.33,0.93-1.01,0.92c-2.71-0.03-5.42-0.01-8.13-0.02c-0.19-0.22-0.31-0.47-0.32-0.76c-0.02-2.04-0.12-4.07-0.25-6.1
		c-0.06-0.93,0.45-1.4,1.39-1.4c1.15-0.01,2.29-0.03,3.44,0.29c1.3,0.36,2.65,0.23,4.1,0.04c-0.26-0.61-0.65-0.55-0.98-0.56
		c-0.88-0.03-1.76,0.03-2.64-0.03C60.72,58.65,60.16,58.76,60.01,58.11z"/>
	<path class="st40" d="M60.01,58.11c1.35,0.49,2.75,0.1,4.12,0.23c0.51,0.05,1.18-0.21,1.18,0.73c-0.01,0.94-0.69,0.64-1.19,0.72
		c-2.3,0.34-4.51-0.61-6.81-0.51c-0.88,0.04-1.25,0.26-1.14,1.16c0.29,2.25,0.27,4.52,0.24,6.78c-0.48-0.07-1.04,0.24-1.44-0.29
		c-0.27-0.6-0.33-1.21-0.02-1.81c0.01-1.94,0.03-3.89,0-5.83c-0.01-0.71,0.21-0.95,0.94-0.98C57.27,58.23,58.64,58.05,60.01,58.11z"
		/>
	<path class="st46" d="M54.32,56.99c0.05-0.02,0.1-0.02,0.16-0.01c0.01,2.62,0.03,5.23,0.04,7.85c0.34,0.81,0.34,1.62,0,2.43
		c-0.01,0.19-0.06,0.36-0.25,0.44c-0.2-0.26-0.48-0.24-0.76-0.24c-2.12,0-4.24,0-6.36-0.01c-0.37,0-0.71,0.07-1.04,0.24
		c0-0.15,0-0.3-0.01-0.45c0.41-0.42,0.95-0.36,1.47-0.36c1.6-0.01,3.2,0.02,4.8-0.02c0.4-0.01,1.06,0.23,1.01-0.6
		c-0.27-0.75-0.81-1.33-1.28-1.94c-0.62-1.02-1.53-1.41-2.72-1.35c-1.03,0.05-2.07,0.07-3.1-0.03c-0.13-0.02-0.24-0.07-0.35-0.13
		c-0.14-0.12-0.22-0.31-0.42-0.37c-0.25-0.69-0.09-1.41-0.07-2.11c0.02-0.68-0.21-1.14-0.78-1.46c1.01-0.2,1.65,0.01,1.44,1.24
		c-0.15,0.87,0.2,1.25,1.11,1.15c0.59-0.06,1.19-0.02,1.78-0.02c0.55-0.52,1.17-0.02,1.74-0.12c0.18-0.02,0.35-0.08,0.53-0.11
		c0.93-0.17,1.09,0.5,1.28,1.15c0.41,0.57,0.78,1.19,1.43,1.51c-0.06-1.8-0.03-3.58-0.02-5.37C53.94,57.83,53.85,57.32,54.32,56.99z
		"/>
	<path class="st47" d="M54.51,67.26c0-0.81,0-1.62,0-2.43c0.15,0.1,0.3,0.19,0.45,0.29c0.05,0.6,0.18,1.21,0.02,1.81
		C54.82,67.04,54.67,67.15,54.51,67.26z"/>
	<path class="st48" d="M40.1,67.21c0-1.5-0.01-3,0-4.5c0-2.01-0.14-1.68,1.69-1.74l0,0c0.28,0.32,0.34,0.7,0.35,1.1
		c0.01,1.38-0.02,2.77-0.03,4.15c0,0.36-0.07,0.71-0.33,0.99C41.22,67.21,40.66,67.21,40.1,67.21z"/>
	<path class="st48" d="M43.94,67.21c-0.56,0-1.11,0-1.67,0c-0.39-0.49-0.22-1.07-0.24-1.61c-0.04-1.07,0.14-2.14,0.13-3.22
		c-0.02-1.53,0.17-1.65,1.79-1.41l0,0C44.12,63.05,44.14,65.13,43.94,67.21z"/>
	<path class="st49" d="M37.95,67.2c0-1.75-0.01-3.49,0.01-5.24c0-0.41-0.14-0.93,0.55-0.97c0.67-0.04,0.58,0.43,0.66,0.87
		c0.33,1.77,0.18,3.56,0.21,5.34C38.89,67.2,38.42,67.2,37.95,67.2z"/>
	<path class="st41" d="M43.94,60.97c-1.25-0.23-1.56,0.36-1.47,1.52c0.12,1.57-0.37,3.14-0.21,4.72c-0.16,0-0.33,0-0.49,0
		c0-2.08,0.01-4.16,0.01-6.24C42.51,60.84,43.23,60.49,43.94,60.97z"/>
	<path class="st41" d="M43.94,67.21c0-2.08,0.01-4.16,0.01-6.24c0.08,0,0.16,0,0.24,0c0,1.75,0,3.5-0.01,5.25
		C44.18,66.56,44.3,66.95,43.94,67.21z"/>
	<path class="st50" d="M45.5,62.43c0.16,0.08,0.33,0.15,0.49,0.22c0.25,1.13,0.48,2.26-0.09,3.36C45.79,66,45.69,66,45.58,65.99
		C45.56,64.81,45.53,63.62,45.5,62.43z"/>
	<path class="st12" d="M31.34,40.34c0.13,0.53,0.23,1.02,0.79,1.37c0.55,0.33,0.53,1.01,0.53,1.63c-0.01,3.35,0.03,6.7-0.02,10.04
		c-0.02,1.04,0.32,1.46,1.37,1.36c1.77-0.17,3.57,0.28,5.33-0.25c0.67,1.28,0.57,2.56,0.07,3.86c-0.61,0.45-1.31,0.15-1.96,0.23
		c-1.18,0.14-0.37-1.14-1-1.4c-0.95-0.02-1.89-0.04-2.84-0.06c-0.93-0.45-1.92-0.09-2.88-0.24c-0.15-0.16-0.3-0.31-0.35-0.53
		c-0.01-0.15,0-0.29,0.04-0.44c0.34-0.79,0.42-1.61,0.42-2.46c-0.01-3.8-0.02-7.59,0.01-11.39C30.86,41.47,30.67,40.78,31.34,40.34z
		"/>
	<path class="st51" d="M8.9,56.88c0-0.48,0-0.95,0-1.43c0.26-0.5,0.75-0.51,1.22-0.59c1.49-0.26,2.99-0.24,4.49-0.26
		c0.78,0.19,0.44,1.11,0.97,1.46c0.06,0.09,0.09,0.19,0.1,0.29c-0.08,0.27-0.38,0.33-0.54,0.52C13.06,56.88,10.98,56.88,8.9,56.88z"
		/>
	<path class="st12" d="M23.07,56.88c-0.17,0-0.34,0-0.51,0c-1.98-0.23-3.97-0.03-5.96-0.12c-0.34-0.01-0.82,0.27-1.01-0.31
		l0.04-0.06c0.43-0.39,0.96-0.35,1.47-0.35c3.95-0.01,7.9-0.01,11.86,0c0.51,0,1.05-0.04,1.49,0.33l0.06,0.09
		c-0.18,0.58-0.66,0.29-1,0.31C27.37,56.85,25.22,56.65,23.07,56.88z"/>
	<path class="st52" d="M15.6,56.45c1.56,0.46,3.17,0.08,4.75,0.22c0.74,0.06,1.51-0.23,2.22,0.21c-2.47,0-4.94,0-7.42,0
		C15.15,56.58,15.3,56.44,15.6,56.45z"/>
	<path class="st52" d="M23.07,56.88c0.74-0.44,1.56-0.14,2.34-0.21c1.7-0.14,3.42,0.25,5.1-0.22c0.2,0.08,0.22,0.25,0.22,0.43
		C28.18,56.89,25.63,56.88,23.07,56.88z"/>
	<path class="st53" d="M45.9,66.02c0.03-1.12,0.06-2.24,0.09-3.36c0.05,0,0.1,0.01,0.14,0.02c0.79,1.26,2.06,1.04,3.22,0.95
		c1.11-0.09,2.15-0.11,3.03,0.69c0.55,0.45,0.97,1,1.19,1.69c-0.26,0.42-0.68,0.54-1.13,0.56c-2.14,0.11-4.28,0.12-6.36-0.51
		C46.02,66.05,45.96,66.03,45.9,66.02z"/>
	<path class="st54" d="M46.08,66.06c0.45-0.1,0.85-0.28,1.37-0.13c2.02,0.56,4.07,0.45,6.11,0.08c0.37,0.19,0.53,0.51,0.41,0.89
		c-0.15,0.47-0.59,0.31-0.93,0.31c-2.32,0.02-4.63,0.01-6.95,0.02C46.09,66.85,46.09,66.46,46.08,66.06z"/>
	<path class="st55" d="M30.45,56.36c-4.94,0.01-9.88,0.02-14.82,0.03c-1.05-0.16-0.63-1.04-0.81-1.63
		c-0.36-0.44-0.31-0.97-0.31-1.48c-0.01-3.7,0-7.39-0.01-11.09c0-0.56,0.06-1.11,0.31-1.62c-0.49-1.06-0.43-1.12,1.04-1.26
		c4.73,0.06,9.47,0.17,14.2,0.15c0.8,0,1.04,0.31,1.29,0.88c-0.03,4.42-0.08,8.85-0.09,13.27C31.25,54.63,31.2,55.59,30.45,56.36z"
		/>
	<path class="st56" d="M37.93,21.6c1.51,3.17,1.55,6.58,1.62,9.99c0.01,0.55,0.08,1.12-0.41,1.54c-0.88,0.58-1.92,0.64-2.88,0.54
		c-2.51-0.25-5.02-0.1-7.53-0.17c-0.56-0.01-1.13,0-1.57-0.43c0.04-2.05-0.2-4.1,0.23-6.14c0.55-2.21,1.11-4.41,2.18-6.44
		c0.49-0.93,1.06-1.79,1.86-2.48c1.42-1.22,3.09-1.12,4.38,0.24C36.74,19.24,37.19,20.51,37.93,21.6z"/>
	<path class="st57" d="M14.81,40.57c0.01,4.73,0.01,9.46,0.02,14.19c-1.57,0.44-3.21,0.08-4.79,0.44c-0.38,0.09-0.78,0.05-1.14,0.25
		c0-2.31,0.02-4.61-0.02-6.92C8.87,47.7,9.01,47,9.59,46.37C11.37,44.47,12.9,42.35,14.81,40.57z"/>
	<path class="st58" d="M52.35,15.83c-0.05,0.31,0.17,1.01-0.55,0.49c-0.57-0.41-1.25-0.7-1.64-1.33
		C50.95,15.12,51.97,14.65,52.35,15.83z"/>
	<path class="st59" d="M41.78,58.58c-0.43,0.04-0.84-0.02-1.21-0.24c-0.4-0.42-0.36-0.96-0.37-1.47c-0.01-3.87-0.02-7.74,0-11.61
		c0.01-1.71,0.28-1.9,1.99-1.78c2.59,0.19,5.19,0,7.78,0.1c1.35,0.05,1.6,0.45,1.2,1.73c-0.14,0.18-0.31,0.31-0.51,0.43
		c-0.5,0.31-0.38,0.83-0.38,1.28c-0.02,1.46,0,2.91-0.01,4.37c0,0.51,0.03,1.04-0.41,1.43c-0.43,0.25-0.8,0.09-1.14-0.17
		c-0.15-2.01-0.04-4.03-0.1-6.05c-0.05,1.95,0.04,3.91-0.05,5.86c0.05,0.56-0.18,0.88-0.77,0.89c-0.51-1.11-0.19-2.28-0.24-3.43
		c-0.06-1.2-0.06-2.4,0-3.59c0.06-1.02-0.57-0.93-1.23-0.94c-0.7-0.01-1.22-0.01-1.21,0.97c0.05,3.71,0.02,7.43,0.01,11.14
		c0,0.34,0.14,0.77-0.22,0.99c-0.17,0.11-0.48,0.1-0.68,0.03c-0.39-0.14-0.28-0.53-0.28-0.83c-0.01-3.35-0.01-6.71-0.01-10.06
		c0-0.32-0.02-0.64,0-0.96c0.07-0.82-0.05-1.31-1.12-1.31c-1.16,0-1.05,0.64-1.05,1.38C41.79,50.67,41.78,54.62,41.78,58.58z"/>
	<path class="st60" d="M50.89,61.4c-0.64-0.06-1.27-0.11-1.91-0.17c0-2.24,0-4.49,0-6.73c0.06-0.57,0.27-0.91,0.92-0.61
		c0.36,0.43,0.37,0.94,0.37,1.46c0.01,0.87,0.04,1.74,0,2.61C50.2,59.16,50.37,60.31,50.89,61.4z"/>
	<path class="st61" d="M49.69,53.76c-0.24,0.24-0.48,0.49-0.71,0.73c-0.8,0.02-1.39-0.17-1.18-1.17c0.24-0.24,0.49-0.49,0.73-0.73
		c0.05-0.09,0.13-0.11,0.22-0.07c0.35-0.02,0.64,0.13,0.89,0.37C49.98,53.17,49.95,53.46,49.69,53.76z"/>
	<path class="st62" d="M50.9,45.38c0.43-1.3,0.35-1.4-0.89-1.45c-2.91-0.1-5.82,0.23-8.73-0.2c-0.85-0.13-0.7,0.56-0.7,1.06
		c-0.01,3.96,0,7.91,0,11.87c0,0.56-0.01,1.12-0.01,1.68c-0.38,0.43-0.77,0.18-1.16,0.02c-0.02-1.29-0.05-2.57-0.07-3.86
		c0.28-3.47,0.01-6.93,0.04-10.4c0.01-1.07,0.34-1.37,1.38-1.35c3.12,0.06,6.23,0.01,9.35,0.03c1.95,0.01,1.94,0.02,2.01,1.88
		c0.03,0.79,0.12,1.59,0.18,2.38c-0.09,3.38-0.26,6.75,0.1,10.13c0.15,1.38,0.15,2.78,0.28,4.17c0.03,0.39-0.03,0.8-0.38,1.08
		c-0.31-0.47-0.07-1.48-1.16-1.2c-0.41-0.59-0.37-1.26-0.36-1.93c-0.05-4.29,0.04-8.58,0-12.86C50.78,46.08,50.73,45.72,50.9,45.38z
		"/>
	<path class="st63" d="M27.16,33.09c3.99,0.12,7.98,0.27,11.97,0.05c0.37,0.64-0.12,1.35-1.03,1.43c-0.71,0.06-1.44,0.01-2.15,0.01
		c-2.12,0-4.26-0.21-6.34,0.07C28.1,34.86,27.63,34.16,27.16,33.09z"/>
	<path class="st17" d="M52.3,62.42c-0.28-4.66-0.16-9.33-0.17-13.99c0-0.47-0.14-0.96,0.18-1.39c0.01,2.53,0.02,5.06,0.03,7.6
		c0,1.81,0,1.81,1.71,2.29c0.11,2.45,0.19,4.9-0.05,7.35C53.44,63.65,52.87,63.04,52.3,62.42z"/>
	<path class="st64" d="M54.01,64.27c0.02-2.45,0.03-4.9,0.05-7.35c0.09,0.02,0.18,0.04,0.27,0.06c-0.01,2.39-0.01,4.79-0.03,7.18
		c0,0.06-0.05,0.15-0.11,0.18C54.15,64.36,54.07,64.3,54.01,64.27z"/>
	<path class="st65" d="M51.14,59.3c0,0.64,0,1.28,0,1.92c-0.08,0.06-0.17,0.12-0.25,0.18c-1.21-0.52-0.91-1.59-0.95-2.55
		c-0.08-1.69,0.24-3.41-0.24-5.08c-0.02-0.29-0.04-0.58-0.05-0.87c0.37-0.53,0.3-1.13,0.3-1.72c0-1.59-0.01-3.17,0.01-4.76
		c0-0.39-0.2-0.93,0.47-1.03c0.32,0.35,0.36,0.79,0.35,1.23c-0.07,3.62,0.14,7.24-0.08,10.85C50.65,58.12,50.88,58.72,51.14,59.3z"
		/>
	<path class="st66" d="M52.38,64.32c-1.68-0.84-3.49-0.13-5.23-0.4c-0.94-0.15-1.14-0.44-1.02-1.24c1.39-0.02,2.78-0.07,4.17-0.06
		C51.44,62.62,51.85,63.55,52.38,64.32z"/>
	<path class="st67" d="M21.55,51.86c0.19,3.52,0.19,3.52-3.25,3.56c-2.63,0.03-2.63,0.03-2.63-2.58c0-1.16,0.05-2.32-0.01-3.47
		c-0.05-0.86,0.17-1.29,1.11-1.14c0.47,0.07,0.95,0.05,1.43,0.06C19.41,49.4,20.73,50.4,21.55,51.86z"/>
	<path class="st68" d="M23.06,40.62c1.71-0.02,3.43-0.09,5.14-0.04c0.89,0.02,1.46,0.43,1.38,1.51c-0.09,1.31-0.07,2.64,0,3.95
		c0.04,0.83-0.2,1.18-1.06,1.08c-0.55-0.07-1.11-0.04-1.67-0.06c-0.82-0.42-1.2-1.23-1.68-1.94c-0.77-1.13-1.74-2.14-2.21-3.46
		C22.98,41.31,22.84,40.95,23.06,40.62z"/>
	<path class="st69" d="M23.05,50.88c-0.03-0.65-0.05-1.31-0.08-1.96c-0.02-0.4,0.03-0.72,0.56-0.57c1.19,0.59,1.72,1.81,2.56,2.73
		c1.09,1.19,2.07,2.48,3.22,3.62c0.03,0.35-0.03,0.65-0.48,0.62c-0.75-0.05-1.51,0.14-2.24-0.15
		C25.21,53.88,23.93,52.55,23.05,50.88z"/>
	<path class="st69" d="M21.55,45.84c0.06,1.38,0.06,1.38-1.54,1.22c-0.77-0.36-1.16-1.1-1.59-1.75c-0.88-1.32-2.18-2.35-2.72-3.9
		c-0.12-1.55,0.99-0.72,1.61-0.84C19.1,42.03,20.51,43.78,21.55,45.84z"/>
	<path class="st70" d="M29.3,54.7c-0.56,0.11-0.77-0.36-1.03-0.67c-1.59-1.88-3.17-3.78-4.75-5.68c0.87-0.01,1.74-0.01,2.61-0.02
		c1.31,1.45,2.49,3,3.39,4.75C29.49,53.62,29.77,54.21,29.3,54.7z"/>
	<path class="st71" d="M15.7,41.42c1.47,1.85,3,3.67,4.31,5.65c-1.03,0.19-2.07,0.14-3.1,0.21c-0.91,0.06-1.3-0.18-1.25-1.18
		C15.74,44.54,15.69,42.98,15.7,41.42z"/>
	<path class="st70" d="M21.55,45.84c-1.41-1.75-2.83-3.51-4.24-5.26c1.1,0,2.21,0,3.31-0.01c0.55,0.22,0.78,0.69,0.95,1.21
		C21.57,43.13,21.56,44.49,21.55,45.84z"/>
	<path class="st72" d="M23.06,41.7c1.26,1.78,2.52,3.57,3.79,5.35c-0.6,0.1-1.2,0.09-1.8,0c-1.04-0.7-1.57-1.75-2-2.88l0.01,0.02
		C22.88,43.37,22.87,42.53,23.06,41.7z"/>
	<path class="st73" d="M29.52,53.08c-1.28-1.48-2.46-3.02-3.39-4.75c0.51,0,1.03,0.01,1.54,0.01c1.01,0.49,1.39,1.47,1.83,2.4
		C29.51,51.52,29.52,52.3,29.52,53.08z"/>
	<path class="st71" d="M23.05,50.88c1.19,1.42,2.53,2.71,3.53,4.28c-0.33,0.02-0.66,0.04-0.99,0.06c-1.14-0.29-1.55-1.56-2.6-1.96
		C23,52.46,23.03,51.67,23.05,50.88z"/>
	<path class="st74" d="M18.78,48.31c3.27-0.05,2.87-0.25,2.76,2.85C20.33,50.49,19.3,49.65,18.78,48.31z"/>
	<path class="st75" d="M23.04,44.18c0.77,0.89,1.39,1.88,2,2.88c-2.25,0.16-2.26,0.16-2.15-2.06C22.9,44.72,22.99,44.45,23.04,44.18
		z"/>
	<path class="st76" d="M29.5,50.73c-0.61-0.8-1.22-1.6-1.83-2.4C29.66,48.32,29.67,47.69,29.5,50.73z"/>
	<path class="st77" d="M18.78,48.31c0.92,0.95,1.84,1.9,2.76,2.85c0,0.23,0.01,0.47,0.01,0.7c-1.19-1.12-2.44-2.18-3.34-3.57
		C18.4,48.3,18.59,48.3,18.78,48.31z"/>
	<path class="st78" d="M24.66,55.19c-1.71,0.14-1.71,0.14-1.61-1.66C23.95,53.73,24.55,54.22,24.66,55.19z"/>
	<path class="st79" d="M24.66,55.19c-0.39-0.7-1.01-1.17-1.61-1.66c-0.02-0.09-0.04-0.18-0.07-0.27c0.11-0.42,0.29-0.35,0.54-0.1
		c0.68,0.69,1.38,1.37,2.07,2.06C25.27,55.36,24.97,55.29,24.66,55.19z"/>
	<path class="st75" d="M23.06,41.7c0,0.83,0,1.66-0.01,2.49c-0.32-1.19-0.34-2.38,0.01-3.57C23.06,40.98,23.06,41.34,23.06,41.7z"/>
	<path class="st80" d="M21.58,41.78c-0.43-0.31-0.66-0.79-0.95-1.21C21.84,40.27,21.66,41.06,21.58,41.78z"/>
	<path class="st68" d="M33.95,25.71c-0.02-2.11-0.05-4.22-0.06-6.33c0-0.18,0.02-0.44,0.14-0.53c0.24-0.19,0.43,0.07,0.62,0.19
		c0.13,0.08,0.26,0.19,0.35,0.32c2.39,3.37,3.42,7.13,3.19,11.24c-0.21,0.04-0.41-0.02-0.54-0.17
		C36.35,28.91,34.93,27.48,33.95,25.71z"/>
	<path class="st70" d="M29.19,26.14c0.21-0.9,0.42-1.8,0.83-2.63c1.33,0.78,2.18,1.93,2.65,3.38c0.18,1.1,0.29,2.2,0.17,3.31
		c-1.35-0.62-1.88-2.05-2.92-2.99C29.61,26.93,29.35,26.56,29.19,26.14z"/>
	<path class="st81" d="M33.95,25.71c1.41,1.63,2.82,3.26,4.24,4.89c0.19,1.41,0.19,1.41-1.43,1.31c-1.89-1.39-3.15-3.1-2.82-5.6
		C33.94,26.1,33.95,25.91,33.95,25.71z"/>
	<path class="st82" d="M32.63,31.91c-1.04,0.02-2.08,0.01-3.11,0.06c-0.65,0.03-0.91-0.14-0.92-0.86c-0.01-1.32,0.07-2.62,0.37-3.91
		c1.27,1.25,2.36,2.67,3.49,4.05C32.61,31.43,32.73,31.65,32.63,31.91z"/>
	<path class="st73" d="M32.63,31.91c-0.99-1.2-1.99-2.4-2.99-3.6c-0.28-0.34-0.59-0.65-0.67-1.11c0.07-0.35,0.15-0.7,0.22-1.06
		c1.42,1.17,2.41,2.73,3.65,4.06C32.77,30.77,33.14,31.39,32.63,31.91z"/>
	<path class="st83" d="M32.67,26.89c-0.88-1.13-1.77-2.26-2.65-3.38c0.1-0.64,0.36-1.21,0.7-1.76c1.2,0.39,1.67,1.4,2.12,2.44
		C32.79,25.09,33.08,26.01,32.67,26.89z"/>
	<path class="st68" d="M32.84,24.19c-0.71-0.81-1.41-1.63-2.12-2.44c0.43-1.11,0.94-2.17,2.12-3.11
		C32.84,20.62,32.84,22.41,32.84,24.19z"/>
	<path class="st67" d="M33.94,26.3c-0.38,2.53,1.66,3.85,2.82,5.6c-2.86,0.17-2.86,0.17-2.86-2.65
		C33.91,28.27,33.93,27.29,33.94,26.3z"/>
	<path class="st65" d="M51.14,59.3c-0.71-0.51-0.71-1.27-0.71-2.03c-0.01-3.96,0-7.92,0-11.89c0.16,0,0.32,0,0.48-0.01
		c0.24,0.39,0.25,0.82,0.24,1.26c-0.01,3.21,0.04,6.41-0.03,9.62C51.09,57.28,51.09,58.29,51.14,59.3z"/>
	<path class="st39" d="M48.75,52.53c-0.07,0.04-0.14,0.07-0.22,0.07c-0.31-0.22-0.27-0.55-0.27-0.87c0-1.88,0-3.75,0-5.63
		c0-0.27-0.04-0.62,0.35-0.65c0.31-0.02,0.36,0.26,0.36,0.51c0.01,2.1,0.02,4.21,0.02,6.31C48.99,52.36,48.83,52.44,48.75,52.53z"/>
	<path class="st84" d="M17.49,46.94c-1.04-0.12-1.6-0.63-1.66-1.95C16.5,45.78,17,46.36,17.49,46.94z"/>
</g>
</svg>
