<?xml version="1.0" encoding="utf-8"?>
<!-- Generator: Adobe Illustrator 23.0.2, SVG Export Plug-In . SVG Version: 6.00 Build 0)  -->
<svg version="1.1" id="Camada_1" xmlns="http://www.w3.org/2000/svg" xmlns:xlink="http://www.w3.org/1999/xlink" x="0px" y="0px"
	 viewBox="0 0 58.14 30.04" style="enable-background:new 0 0 58.14 30.04;" xml:space="preserve">
<style type="text/css">
	.st0{fill:#FEFEFE;}
	.st1{fill:#4F301D;}
	.st2{fill:#68171A;}
	.st3{fill:#4E2F1C;}
	.st4{fill:#A27529;}
	.st5{fill:#B58B44;}
	.st6{fill:#A07327;}
	.st7{fill:#A17427;}
	.st8{fill:#F5E1B9;}
	.st9{fill:#A37527;}
	.st10{fill:#A27527;}
	.st11{fill:#A47727;}
	.st12{fill:#F1E7C2;}
	.st13{fill:#A32E2C;}
	.st14{fill:#881D1D;}
	.st15{fill:#F4E0BA;}
	.st16{fill:#9F7226;}
	.st17{fill:#D47D7C;}
	.st18{fill:#A27428;}
	.st19{fill:#482816;}
	.st20{fill:#A47627;}
</style>
<g>
	<path class="st0" d="M18.39,1.2c2.7-0.25,5.4-0.52,8.11-0.73c1.52-0.12,3.03,0.06,4.54,0.21c2.49,0.23,4.94-0.23,7.37-0.6
		c3.08-0.48,5,1.54,4.95,4.16c-0.02,1.03,0.07,1.91,1.13,2.53c0.7,0.41,1.21,1.2,1.34,2.06c0.12,0.76,0.55,0.78,1.16,0.78
		c2.12,0.01,4.23-0.24,6.34-0.36c0.36-0.02,0.72-0.07,1.08-0.08c3.5-0.03,4.5,1.87,3.16,5.08c-1.54,3.69-4.34,6.54-7.82,8.49
		c-5.66,3.17-11.69,5.74-18.11,6.56c-5.81,0.74-11.79,1.33-17.62-0.31c-4.74-1.33-8.47-4.21-11.6-7.92c-0.84-1-1.79-1.93-2.21-3.24
		c-0.61-1.89,0.11-3.24,2.09-3.61C3.52,14,4.75,13.86,6,13.9c1.65,0.06,3.26-0.13,4.88-0.45c0.62-0.13,0.95-0.3,0.85-0.98
		c-0.15-1.02,0.16-1.87,1.01-2.52c0.42-0.32,0.58-0.8,0.61-1.37c0.07-1.6,0.29-3.18,0.66-4.74c0.48-2.07,1.3-2.72,3.43-2.67
		c0.32,0.01,0.64,0,0.96,0C18.39,1.18,18.39,1.19,18.39,1.2z"/>
	<path d="M18.32,2.43c2.62-0.26,5.24-0.54,7.87-0.75c1.64-0.13,3.27,0.05,4.9,0.2c2.49,0.23,4.94-0.26,7.37-0.62
		c2.36-0.35,3.8,0.91,3.71,3.09c-0.02,0.4-0.02,0.81,0.06,1.19c0.15,0.77,0.13,1.52,1.19,1.91c1.04,0.39,1.39,1.59,1.55,2.68
		c0.09,0.58,0.14,0.77,0.91,0.74c2.92-0.12,5.82-0.4,8.74-0.49c2.16-0.06,2.94,1.33,1.94,3.33c-1.68,3.37-4.1,6.15-7.36,7.98
		c-5.47,3.07-11.29,5.58-17.49,6.39c-5.73,0.75-11.62,1.37-17.38-0.25c-5.44-1.53-9.41-5.12-12.61-9.6
		c-1.19-1.66-0.7-2.68,1.44-2.93c2.93-0.34,5.91-0.04,8.8-0.87c0.66-0.19,1.01-0.37,0.92-1.06c-0.18-1.31,0.14-2.41,1.29-3.19
		c0.4-0.27,0.29-0.72,0.31-1.11c0.09-1.56,0.27-3.1,0.56-4.64c0.35-1.81,0.71-2.11,2.54-2.08c0.24,0,0.48,0,0.72,0
		C18.32,2.38,18.32,2.41,18.32,2.43z"/>
	<path class="st1" d="M44.09,12.45c0.7-0.15,1.4-0.43,2.09-0.42c2.72,0.04,5.4-0.34,8.1-0.52c0.77-0.05,1.35-0.09,1.14,1.11
		c-0.18,1.03-0.52,1.88-1.1,2.71c-2.46,3.52-5.79,5.85-9.76,7.37c-4.16,1.6-8.23,3.53-12.67,4.22c-2.78,0.43-5.63,0.48-8.46,0.45
		c-2.55-0.03-5.11,0.22-7.63-0.37c-4.99-1.17-8.88-4-12.01-7.97c-0.1-0.12-0.17-0.27-0.27-0.39c-0.45-0.54-1.26-1.1-0.86-1.81
		c0.33-0.58,1.29-0.51,1.97-0.49c3.22,0.12,6.35-0.35,9.44-1.22c0.36,0.46,0.15,0.85-0.14,1.23c-0.72,0.46-1.63,0.33-2.47,0.74
		c0.86,1.08,1.77,1.87,3.21,1.8c0.8-0.04,1.6-0.04,2.39,0.01c0.38,0.03,0.92,0,0.9,0.55c-0.02,0.52-0.56,0.47-0.94,0.51
		c-0.56,0.06-1.12-0.01-1.84,0.06c1.22,0.99,2.55,1.56,3.77,2.31c0.64,0.39,1.35,0.65,1.97,1.06c0.19,0.13,0.44,0.29,0.32,0.55
		c-0.11,0.24-0.39,0.25-0.62,0.19c-0.8-0.21-1.55-0.56-2.3-0.89c-0.99-0.49-2.02-0.74-3.26-0.59c0.2,0.21,0.42,0.33,0.55,0.53
		c0.11,0.17,0.23,0.37,0.09,0.55c-0.13,0.17-0.36,0.14-0.56,0.1c-0.2-0.04-0.4-0.1-0.56-0.21c-1.92-1.46-4.3-1.51-6.45-2.15
		c2.79,2.51,6.06,4.08,9.82,4.5c2.46,0.27,4.95,0.07,7.42,0.09c4.58,0.16,8.95-0.78,13.21-2.39c2.2-0.83,4.4-1.68,6.63-2.44
		c2.53-0.86,4.54-2.45,6.43-4.25c0.92-1.38,1.93-2.72,2.54-4.32c-0.24,0.04-0.43,0.11-0.64,0.12c-2.91,0.3-5.83,0.47-8.75,0.54
		c-0.24,0.01-0.47,0.04-0.69-0.1C43.87,12.97,43.86,12.71,44.09,12.45z"/>
	<path class="st2" d="M44.09,12.45c-0.01,0.22-0.02,0.45-0.03,0.67c0,0.06-0.01,0.12-0.01,0.18c-0.51,1.08-1.62,1.34-2.54,1.86
		c-0.52,0.3-1.1,0.47-1.63,0.74c-3.87,1.7-7.89,2.83-12.08,3.34c-0.52,0.06-1.04,0.06-1.56,0.02c-1.1-0.29-2.22-0.15-3.33-0.2
		c-2.65-0.11-5.22-0.64-7.68-1.64c-0.57-0.23-1.22-0.44-1.4-1.18c0.08-0.37,0.16-0.75,0.23-1.12c0-0.4,0.06-0.81,0-1.19
		c-0.23-1.35,0.3-2.27,1.48-2.89c0.47-0.33,0.74,0.12,1.09,0.28c0.21,0.12,0.44,0.21,0.67,0.3c2.87,0.6,5.76,0.86,8.69,0.75
		c0.4-0.02,0.8,0.04,1.19-0.11c2.21-0.22,4.34-0.79,6.44-1.46c1.73-0.36,3.41-0.85,5.02-1.58c0.11-0.05,0.22-0.08,0.34-0.11
		c0.61-0.07,1.21-0.22,1.78-0.47c0.31-0.12,0.6-0.3,0.94-0.28c1.43,0.08,1.97,0.62,2.14,2.11C43.91,11.13,43.7,11.83,44.09,12.45z"
		/>
	<path class="st3" d="M16.42,11.52c-0.29-0.17-0.48-0.51-0.87-0.48c0.19-2.22,0.27-4.44,0.69-6.64c0.1-0.5,0.26-0.84,0.82-0.82
		c3.92,0.14,7.75-1.04,11.67-0.7c2.75,0.24,5.48,0.4,8.19-0.22c0.32-0.07,0.63,0.05,0.92,0.21c-0.04,0.61-0.58,0.54-0.95,0.66
		c-0.7,0.23-1.46,0.3-2.12,0.67c-0.17,0.08-0.36,0.13-0.55,0.15c-0.63-0.01-1.26,0.14-1.9,0.13C32,4.42,31.68,4.31,31.38,4.15
		c-0.39-0.28-0.84-0.21-1.27-0.2c-3.44,0.04-6.84,0.44-10.25,0.85c-0.4,0.05-0.79,0.1-1.19,0.11c-1.36,0.04-1.56,0.19-1.58,1.6
		c-0.02,1.28-0.13,2.55-0.26,3.82C16.78,10.75,16.84,11.22,16.42,11.52z"/>
	<path class="st3" d="M39.07,9.34c-0.1,0.01-0.2,0.01-0.3,0.02c-0.69-0.15-1.37-0.3-2.05,0.09c-0.24,0.14-0.59,0.16-0.76-0.1
		c-0.21-0.32,0.11-0.48,0.32-0.66c0.24-0.21,0.83-0.23,0.6-0.69c-0.19-0.38-0.64-0.13-0.98-0.04c-0.54,0.14-1.06,0.36-1.61,0.07
		c-0.09-0.08-0.13-0.18-0.12-0.29c0.03-0.07,0.08-0.13,0.13-0.19c0.41-0.46,1.4-0.26,1.44-1c0.03-0.56-0.77-0.83-1.04-1.36
		c-0.05-0.11-0.05-0.22-0.02-0.33c0.63-0.48,1.02,0.07,1.45,0.37c0.29,0.2,0.5,0.52,0.83,0.67c0.19,0.09,0.4,0.11,0.56-0.03
		c0.23-0.19,0.03-0.34-0.07-0.5c-0.17-0.25-0.53-0.5-0.25-0.82c0.25-0.28,0.59-0.06,0.88,0.08c0.51,0.23,1.12,0.85,1.5-0.02
		c0.36-0.83-0.31-1.2-1.01-1.44c-0.19-0.06-0.38-0.13-0.5-0.31c0.58-0.75,1.39-0.55,2.06-0.34c0.61,0.2,0.87,0.82,0.85,1.55
		c-0.04,1.47,0.31,2.89,0.73,4.29c-0.19,0.3-0.5,0.4-0.81,0.49c-0.47-0.12-0.39-1.07-1.15-0.76c-0.48,0.2-0.65,0.54-0.57,1.03
		C39.17,9.2,39.12,9.27,39.07,9.34z"/>
	<path class="st4" d="M38.06,2.86c0.55,0.05,1.12,0.06,1.57,0.46c0.53,0.47,0.57,1.12,0.25,1.62c-0.34,0.53-0.93,0.71-1.53,0.2
		c-0.29-0.24-0.6-0.52-1.11-0.53c0.16,0.56,0.75,0.69,1.01,1.17c-0.74,0.73-1.39,0.81-2.1-0.1c-0.31-0.4-0.68-1.01-1.41-0.64
		C34.24,4.71,34.24,4.71,34.7,4c0.39-0.7,1.16-0.4,1.72-0.66c0.45-0.21,1-0.14,1.42-0.46C37.91,2.87,37.98,2.87,38.06,2.86z"/>
	<path class="st5" d="M26.31,18.94c4.47-0.11,8.65-1.43,12.77-3.03c0.3-0.11,0.59-0.22,0.89-0.33c0.89-0.26,1.77-0.29,2.68,0.02
		c0.94,0.32,1.89,0.02,2.82-0.19c2.37-0.54,4.8-0.56,7.18-0.97c0.64,0.21,0.32,0.57,0.15,0.93c-0.27,0.56-0.77,1-0.85,1.67
		c-1.72,1.87-3.67,3.41-6.1,4.28c-4.68,1.69-9.25,3.75-14.18,4.66c-2.07,0.38-4.2,0.46-6.31,0.42c-2.23-0.63-4.55-0.78-6.79-1.37
		c-0.54-0.14-1.1-0.21-1.61-0.45c-0.74-0.35-0.78-0.75-0.12-1.21c0.47-0.32,0.98-0.52,1.56-0.35c0.87,0.33,1.74,0.66,2.61,0.98
		c0.02-0.06,0.05-0.11,0.07-0.17c-0.74-0.42-1.48-0.84-2.22-1.26c-0.09-0.31,0.14-0.43,0.34-0.53
		C21.51,20.86,23.74,19.5,26.31,18.94z"/>
	<path class="st6" d="M26.31,18.94c-0.27,0.38-0.71,0.55-1.11,0.66c-2.31,0.59-4.23,1.98-6.35,2.98c-1.56-0.75-3.03-1.63-4.44-2.62
		c0.02-0.11,0.04-0.22,0.07-0.32c1.1,0,2.19,0,3.29,0c0.01-0.13,0.03-0.25,0.04-0.38c-2.5-0.23-5.41,0.67-6.89-2.4
		c0.91-0.35,1.91-0.48,2.91-0.62c2.63,1.76,5.66,2.13,8.69,2.46C23.78,18.84,25.07,18.59,26.31,18.94z"/>
	<path class="st7" d="M18.4,23.02c-0.69,0.17-1.3,0.48-2.03,1.06c2.1,0.67,4.09,0.94,6.03,1.39c1,0.23,2.19-0.06,2.96,0.93
		c-3.94-0.04-7.91,0.4-11.71-1.14c-2.44-0.98-4.55-2.41-6.41-4.26c2.82,0.8,5.88,0.79,8.32,2.78c-0.18-0.79-0.93-0.79-1.38-1.38
		C15.7,22.23,17.11,22.14,18.4,23.02z"/>
	<path class="st8" d="M44.06,13.11c3.28-0.21,6.57-0.42,9.85-0.63c0.07,0.15,0.04,0.28-0.08,0.38c-2.89,1.51-5.95,1.34-9.04,0.91
		c-0.33-0.05-0.74-0.1-0.76-0.59L44.06,13.11z"/>
	<path class="st9" d="M5.18,18.8c2.01,0.67,4.48,0.07,6.09,2.5C8.99,20.48,6.71,20.58,5.18,18.8z"/>
	<path class="st7" d="M10.79,19.79c2.18-0.67,3.28,1.1,4.92,1.84C13.87,22.05,12.4,21.49,10.79,19.79z"/>
	<path class="st10" d="M7.75,17.4c1.79-0.83,2.89,0.01,3.78,1.47C9.85,19.33,8.79,18.41,7.75,17.4z"/>
	<path class="st11" d="M3.86,17.35c1.59-0.07,3.24-0.36,4.39,1.35C6.7,18.24,5.08,18.47,3.86,17.35z"/>
	<path class="st12" d="M53.86,12.81c0.02-0.11,0.04-0.22,0.05-0.33c0.63-0.27,0.66-0.06,0.44,0.49c-0.59,1.48-1.51,2.76-2.4,4.06
		c-0.21-1.02,0.82-1.54,0.98-2.41C52.94,13.87,53.4,13.34,53.86,12.81z"/>
	<path class="st5" d="M34.7,4c0.15,0.34-0.44,0.69,0.02,1.03c0,0,0,0,0,0c0.21,0.96,0.1,1.87-0.45,2.71c0,0.05-0.01,0.1-0.02,0.15
		c0.3,1.13,0.01,2.17-0.5,3.17c-2.09,0.76-4.21,1.36-6.45,1.46c-2.81-0.51-5.65-0.89-8.49-1.19c-0.56-0.06-1.08-0.28-1.48-0.71
		c-0.42-1.57-0.34-3.15-0.02-4.72c0.14-0.66,0.53-1.14,1.29-0.75c2.89,1.49,5.88,1.16,8.88,0.51c2.25-0.49,4.5-0.98,6.74-1.55
		C34.38,4.06,34.54,4.03,34.7,4z"/>
	<path class="st13" d="M31.11,17.26c-0.76,0.41-1.65,0.4-2.44,0.44c-4.46,0.19-8.91,0.15-13.16-1.54c0.23-1.21-0.11-2.49,0.46-3.66
		c3.41,1.21,6.91,1.56,10.52,1.28c2.07-0.16,4.05-0.68,6.07-1.08c0.18-0.04,0.37,0.04,0.34,0.21C32.6,14.48,32.49,16.13,31.11,17.26
		z"/>
	<path class="st14" d="M31.11,17.26c0.77-1.43,1.45-2.89,1.44-4.57c3.09-0.98,6.19-1.96,9.28-2.94c0.2-0.06,0.37-0.13,0.56,0
		c0.73,0.49,0.64,3.26-0.17,3.63C38.63,15.01,34.98,16.46,31.11,17.26z"/>
	<path class="st15" d="M34.22,4.09c-1.23,0.8-2.68,0.91-4.05,1.27c-3.13,0.82-6.28,1.51-9.56,0.91c-0.73-0.13-1.43-0.33-1.97-0.79
		C17.9,4.87,17.78,5.2,17.62,5.9c-0.35,1.54-0.15,3.1-0.18,4.65c0.28,0.57,0.59,1.16-0.45,1.25c-0.19-0.09-0.38-0.19-0.56-0.28
		c0.14-2.03,0.28-4.06,0.43-6.08c0.04-0.47,0.04-0.97,0.75-0.97c3.95,0.01,7.84-0.86,11.79-0.86c0.7,0,1.55-0.32,2.13,0.43
		c-1.32,0.83-2.87,0.85-4.31,1.22C26,5.57,24.75,5.53,23.74,5.51c2.19,0.21,4.49-0.43,6.8-0.98c0.59-0.14,1.16-0.25,1.76-0.23
		C32.95,4.28,33.54,3.83,34.22,4.09z"/>
	<path class="st16" d="M53.86,12.81c-0.15,0.69-0.49,1.28-0.93,1.82c-2.87,0.76-5.89,0.56-8.76,1.4c-0.84,0.25-1.7-0.03-2.54-0.37
		c-0.48-0.19-1.1-0.06-1.66-0.08c1.37-0.76,2.97-1.15,4.05-2.39c0.29,0.47,0.79,0.29,1.19,0.32c2.73,0.21,5.46,0.43,8.07-0.68
		C53.45,12.75,53.67,12.81,53.86,12.81z"/>
	<path class="st6" d="M16.98,11.8c0.65-0.24,0.27-0.85,0.45-1.25c1.92,0.74,3.98,0.63,5.97,0.95c1.33,0.21,2.69,0.32,3.9,1
		c-1.76,0.44-3.55,0.25-5.32,0.16C20.3,12.57,18.61,12.33,16.98,11.8z"/>
	<path class="st7" d="M33.75,11.04c0-1.08,0.26-2.12,0.5-3.17c0.66,0.16,1.27-0.09,1.86-0.32c0.57-0.22,1.09-0.18,1.32,0.38
		c0.3,0.71-0.48,0.65-0.82,0.89c-0.18,0.12-0.44,0.12-0.55,0.48c0.93-0.02,1.87-1.13,2.7,0.05C37.25,10.37,35.49,10.68,33.75,11.04z
		"/>
	<path class="st17" d="M15.96,12.5c-0.12,1.22,0.41,2.53-0.46,3.66c-0.49-0.14-0.52-0.51-0.51-0.93c0.02-0.75,0.05-1.5,0.02-2.25
		C14.99,12.11,15.39,12.16,15.96,12.5z"/>
	<path class="st18" d="M39.07,9.34c-0.81-1.03,0.09-1.37,0.76-1.61c1.01-0.36,0.75,0.69,1.05,1.12C40.32,9.15,39.74,9.41,39.07,9.34
		z"/>
	<path class="st19" d="M32.31,4.29C28.95,5.31,25.58,6.15,22,5.51c3.27,0.07,6.38-0.79,9.52-1.47C31.79,4.09,32.11,4.01,32.31,4.29z
		"/>
	<path class="st7" d="M34.27,7.73c0.14-0.9,0.09-1.84,0.45-2.71C37,7.1,36.78,6.71,34.27,7.73z"/>
	<path class="st20" d="M38.49,7.91c-0.46-0.04-0.84-0.34-0.8-0.65c0.08-0.58,0.74-0.66,1.18-0.84c0.34-0.14,0.77,0.34,0.73,0.6
		C39.5,7.59,38.84,7.63,38.49,7.91z"/>
</g>
</svg>
