<?xml version="1.0" encoding="utf-8"?>
<!-- Generator: Adobe Illustrator 23.0.2, SVG Export Plug-In . SVG Version: 6.00 Build 0)  -->
<svg version="1.1" id="Camada_1" xmlns="http://www.w3.org/2000/svg" xmlns:xlink="http://www.w3.org/1999/xlink" x="0px" y="0px"
	 viewBox="0 0 24.08 25.93" style="enable-background:new 0 0 24.08 25.93;" xml:space="preserve">
<style type="text/css">
	.st0{fill:#FDFDFD;}
	.st1{fill:#0B0A0E;}
	.st2{fill:#972804;}
	.st3{fill:#D96303;}
	.st4{fill:#FEFDFC;}
	.st5{fill:#FDFCFB;}
	.st6{fill:#D86205;}
	.st7{fill:#D24F04;}
	.st8{fill:#761400;}
	.st9{fill:#CE4C04;}
	.st10{fill:#CC4C09;}
	.st11{fill:#CC4A06;}
	.st12{fill:#F49642;}
	.st13{fill:#F69C41;}
	.st14{fill:#EB8735;}
	.st15{fill:#EE8D3D;}
	.st16{fill:#D05303;}
	.st17{fill:#D86203;}
</style>
<g>
	<path class="st0" d="M10.57,25.93c-2.31,0-4.63-0.02-6.94,0.01c-2.34,0.03-3.99-2.38-3.56-4.91c0.4-2.4,2.03-3.63,3.92-4.64
		c0.8-0.42,1.15-0.94,1.29-1.8c0.59-3.62,1.2-7.24,2.01-10.83c0.42-1.86,1.47-2.94,3.32-3.3c1.39-0.27,2.7-0.74,4.2-0.23
		c1.61,0.55,2.57,1.56,2.97,3.13c0.94,3.75,2.05,7.46,2.73,11.28c0.1,0.58,0.37,0.78,0.89,0.92c1.76,0.47,2.66,1.54,2.62,3.34
		c-0.02,1.35,0.42,2.87-0.82,3.95c-1.75,1.51-3.46,3.1-6.04,3.02c-2.2-0.06-4.39-0.01-6.59-0.01
		C10.57,25.89,10.57,25.91,10.57,25.93z"/>
	<path class="st1" d="M10.65,24.15c-2.32,0-4.65,0-6.97,0c-0.69,0-1.37-0.36-1.66-0.99c-0.59-1.28-0.12-3.21,1.02-4.07
		c0.7-0.53,1.41-1.14,2.22-1.4c1.14-0.36,1.38-1.16,1.56-2.13c0.67-3.64,1.34-7.28,2.06-10.91c0.27-1.34,1.31-2.44,2.66-2.66
		c0.37-0.06,0.75-0.09,1.13-0.12c2.36-0.18,3.06,0.29,3.65,2.62c0.98,3.87,2.06,7.71,2.75,11.65c0.12,0.68,0.33,1.07,1.14,0.97
		c0.97-0.12,1.86,0.3,2.07,1.25c0.24,1.07,0.76,2.3-0.31,3.25c-1.62,1.44-3.24,2.78-5.7,2.51c-1.86-0.2-3.75-0.04-5.63-0.04
		C10.65,24.11,10.65,24.13,10.65,24.15z"/>
	<path class="st2" d="M13.11,3.32c1-0.26,1.54,0.29,1.83,1.42c1.07,4.13,2.19,8.25,2.9,12.46c0.17,1.02,0.56,1.46,1.63,1.34
		c0.52-0.06,1.32-0.33,1.49,0.53c0.15,0.75,0.29,1.48-0.56,2.1c-1.24,0.91-2.37,1.6-4.09,1.51c-3.91-0.2-7.83-0.05-11.75-0.09
		c-0.42,0-1.07,0.42-1.27-0.21c-0.21-0.68-0.24-1.48,0.39-2.01c0.95-0.81,1.99-1.54,3.2-1.82c0.65-0.15,0.8-0.35,0.91-0.95
		c0.73-4,1.48-7.99,2.29-11.98C10.52,3.46,10.71,3.36,13.11,3.32z"/>
	<path class="st3" d="M8.02,20.15c1.05,0.06,2.1,0.55,3.46-0.13c-0.81-0.06-1.31-0.09-1.8-0.12c-0.77-0.52-0.65-1.82,0.22-2.32
		c0.27-0.15,0.58-0.21,0.88-0.3c1.8-0.1,3.6-0.14,5.38-0.47c0.83,0.52,1.06,1.25,0.74,2.36c-0.42,0.36-1.09,0.15-1.54,0.69
		c0.92,0.12,1.7-0.16,2.48-0.39c0.38,0.1,0.86-0.01,1.03,0.51c-0.34,0.74-0.79,1.31-1.73,1.13c-0.39-0.31-0.84-0.19-1.27-0.19
		c-3.03-0.01-6.06-0.01-9.09-0.02C6.91,20.15,7.43,20.1,8.02,20.15z"/>
	<path class="st4" d="M16.15,17.03c-1.8,0.6-3.67,0.42-5.51,0.52c-0.8,0.21-1.42-0.08-1.92-0.7c-0.06-0.92,0.51-1.72,0.55-2.62
		c0.19-0.24,0.46-0.28,0.74-0.24c1.87,0.16,3.74,0.17,5.6-0.13c0.27-0.01,0.54-0.04,0.77,0.13c0.31,0.9,0.53,1.82,0.49,2.79
		C16.72,17.09,16.34,16.81,16.15,17.03z"/>
	<path class="st5" d="M14.94,7.36c0.2,0.79,0.39,1.58,0.59,2.37c0.02,0.63-0.52,0.65-0.91,0.83c-1.21,0.27-2.42,0.55-3.64,0.08
		c-0.4-0.12-0.67-0.41-0.84-0.82c0.63-0.99,0.9-1.43,1.53-2.42C12.76,7.28,13.84,7.12,14.94,7.36z"/>
	<path class="st6" d="M14.94,7.36c-1.35,0.13-2.69,0.61-4.05,0.1c0.08-0.75,0.17-1.5,0.24-2.25c0.03-0.36,0.13-0.62,0.55-0.62
		c0.72,0,1.44-0.01,2.16-0.01c0.46,0,0.54,0.35,0.7,0.69C14.85,5.94,14.55,6.72,14.94,7.36z"/>
	<path class="st7" d="M17.61,22.09c-4.59,0-9.18,0-13.78,0c0-0.16,0-0.32,0-0.47c4.59,0,9.18,0,13.77,0
		C17.74,21.77,17.74,21.93,17.61,22.09z"/>
	<path class="st8" d="M17.61,22.09c0-0.16-0.01-0.32-0.01-0.47c-0.34-0.42-0.82-0.24-1.23-0.24c-3.67-0.01-7.34-0.01-11.01-0.01
		c-0.39,0-0.78,0-1.17,0c0-0.09,0-0.17,0-0.26c4.32,0,8.64,0,12.96,0c0.74-0.12,1.15-0.72,1.68-1.15c0.09-0.34,0.3-0.46,0.63-0.31
		c0.1,0.1,0.2,0.2,0.31,0.3c-0.26,0.84-0.95,1.18-1.71,1.42C17.91,21.6,17.76,21.84,17.61,22.09z"/>
	<path class="st9" d="M8.02,20.15c-0.4,0.26-0.91,0.34-1.22,0.75c-0.82,0-1.63,0-2.71,0c0.89-0.71,1.51-1.31,2.24-1.74
		C7.39,18.53,7.46,19.8,8.02,20.15z"/>
	<path class="st10" d="M10.24,10.04c0.22,0.11,0.44,0.22,0.66,0.34c0.67,0.55,0.2,1.25,0.25,1.88c0.03,0.39-0.24,0.77-0.2,1.17
		c0.1,0.91-0.35,1-1.06,0.77c-0.21,0.01-0.41,0.02-0.62,0.03C9.6,12.82,9.92,11.43,10.24,10.04z"/>
	<path class="st11" d="M9,16.92c0.55,0.2,1.02,0.61,1.64,0.63c-1.13,0.5-1.5,1.4-0.96,2.35c-1.99-0.26-1.77-0.33-1.05-2.77
		C8.77,17.05,8.86,17,9,16.92z"/>
	<path class="st12" d="M14.7,10.3c0.26-0.22,0.65-0.23,0.83-0.57c0.29,1.42,0.57,2.83,0.86,4.24c-0.16,0.05-0.32,0.1-0.47,0.14
		c-0.55-0.4-0.55-1.04-0.66-1.62C15.11,11.75,14.9,11.03,14.7,10.3z"/>
	<path class="st13" d="M18.06,21.36c0.57-0.47,1.14-0.94,1.71-1.42c0.22-0.03,0.41-0.35,0.62-0.14c0.19,0.19,0.08,0.47-0.11,0.62
		c-0.61,0.5-1.18,1.07-1.86,1.44C17.83,22.2,18.18,21.55,18.06,21.36z"/>
	<path class="st14" d="M19.47,19.64c-0.21,0.1-0.42,0.21-0.63,0.31c-0.33-0.16-0.66-0.33-0.98-0.49c0.42-0.44,0.95-0.51,1.53-0.46
		C20.4,19.08,19.54,19.41,19.47,19.64z"/>
	<path class="st15" d="M16.15,17.03c0.2-0.21,0.46-0.24,0.72-0.27c0.17,0.59,0.33,1.18,0.52,1.76c0.15,0.46-0.01,0.66-0.48,0.64
		C16.78,18.41,16.99,17.53,16.15,17.03z"/>
	<path class="st16" d="M11.89,3.9c0.74-0.06,1.47-0.12,2.21-0.19C13.39,4.24,12.64,4.03,11.89,3.9z"/>
	<path class="st17" d="M14.7,10.3c0.98,0.56,0.59,1.65,0.93,2.46c0.18,0.42,0.19,0.9,0.28,1.36c-2,0.46-4.01,0.55-6.02,0.07
		c0.39-0.06,0.74,0.17,0.74-0.69c-0.01-1.01,0.35-2.06,0.28-3.13C12.17,10.61,13.44,10.48,14.7,10.3z"/>
</g>
</svg>
