<?xml version="1.0" encoding="utf-8"?>
<!-- Generator: Adobe Illustrator 23.0.2, SVG Export Plug-In . SVG Version: 6.00 Build 0)  -->
<svg version="1.1" id="Camada_1" xmlns="http://www.w3.org/2000/svg" xmlns:xlink="http://www.w3.org/1999/xlink" x="0px" y="0px"
	 viewBox="0 0 37.81 35.06" style="enable-background:new 0 0 37.81 35.06;" xml:space="preserve">
<style type="text/css">
	.st0{fill:#FEFEFE;}
	.st1{fill:#010000;}
	.st2{fill:#3A0E1C;}
	.st3{fill:#662137;}
	.st4{fill:#4E1828;}
	.st5{fill:#84325F;}
	.st6{fill:#561A33;}
	.st7{fill:#963B77;}
	.st8{fill:#F0C3E3;}
	.st9{fill:#C493AF;}
	.st10{fill:#55132E;}
	.st11{fill:#E7C2DD;}
	.st12{fill:#A9498B;}
	.st13{fill:#F4EBF2;}
	.st14{fill:#DBAECF;}
	.st15{fill:#C173A7;}
</style>
<g>
	<path class="st0" d="M0.2,14.18C0.2,11.4,0.02,9.26,0.96,7.2c1.86-4.07,5.3-5.68,9.44-6.09c2.28-0.23,4.53,0.33,6.69,1.11
		c0.6,0.22,0.98,0.23,1.48-0.2c1.66-1.45,3.57-2.21,5.83-1.98c0.91,0.09,1.85,0.09,2.76,0c2.96-0.3,5.15,1.11,7.03,3.15
		c2.24,2.44,3.53,5.38,3.63,8.65c0.06,2-0.64,4-1.36,5.9c-0.29,0.77-0.75,1.47-0.91,2.3c-0.24,1.2-1.43,1.71-2.04,2.7
		c-1.73,2.78-3.9,5.25-5.99,7.78c-0.72,0.87-1.3,1.81-1.78,2.82c-0.68,1.41-2.19,2.23-3.42,1.38c-3.41-2.36-7.59-2.86-11.09-4.93
		c-2.98-1.77-5.65-3.92-7.88-6.56C0.98,20.45-0.57,17.36,0.2,14.18z"/>
	<path class="st1" d="M0.96,14c-0.01-1.39,0.1-2.76,0.37-4.14c1.25-6.31,7.59-8.41,12.42-7.31c1.32,0.3,2.67,0.52,3.85,1.22
		c0.46,0.27,0.74,0.15,1.02-0.2c2.63-3.29,9.77-3.54,13.14-0.97c2.2,1.68,3.65,3.9,4.4,6.52c0.93,3.23,0.06,6.25-1.35,9.17
		c-1.86,3.87-4.71,7.03-7.33,10.36c-1.06,1.35-2.17,2.65-2.85,4.25c-0.39,0.92-1.31,1.22-1.96,0.72c-3.06-2.31-6.94-2.69-10.2-4.51
		c-3.79-2.11-7.15-4.72-9.49-8.4C1.19,17.87,0.8,16.85,0.96,14z"/>
	<path class="st2" d="M34.97,14.21c-0.69,3.79-3.1,6.65-5.21,9.67c-1.95,2.81-4.57,5.11-6.11,8.22c-0.15,0.29-0.25,0.57-0.69,0.26
		c-2.58-1.83-5.72-2.34-8.53-3.63c-4.62-2.12-8.45-5.23-11.08-9.66c-1.48-2.48-1.58-5.19-0.98-7.95c0.12-0.54,0.17-1.1,0.31-1.63
		C3.76,5.5,8.2,2.82,12.32,3.56c1.96,0.35,3.95,0.49,5.59,1.82c0.48,0.39,0.72-0.13,0.97-0.38c1.11-1.17,2.29-2.23,3.9-2.66
		c0.23-0.06,0.47-0.07,0.7-0.1c0.16,0.42,0.25,0.84,0.02,1.26c-1.05,0.66-2.38,0.94-2.99,2.21c-0.48,0.66-0.34,1.66-1.18,2.11
		c-0.75-0.1-1.29-0.59-1.89-0.97C14.84,5.23,12,4.83,9.04,5.39c-2.25,0.43-3.7,1.93-4.67,3.93c-0.39,1.01-0.65,2.06-0.73,3.14
		c-0.6,5.66,2.65,9.21,6.82,12.14c3.61,2.54,7.79,3.97,11.81,5.71c0.51,0.22,0.8,0.12,1.06-0.36c0.41-0.78,1.02-1.43,1.52-2.14
		c0.06-0.1,0.12-0.18,0.19-0.27c0.37-0.44,0.88-0.78,1.07-1.37c0.04-0.1,0.09-0.2,0.14-0.29c0.33-0.43,0.73-0.8,0.98-1.28
		c0.49-0.78,1.04-1.49,1.8-2.04c0.8-0.59,1.15-1.51,1.6-2.34c0.96-1.77,2.02-3.5,2.62-5.45c0.19-0.77,0.31-1.55,0.74-2.24
		c0.53-0.08,0.5,0.36,0.58,0.66C34.66,13.54,34.62,13.95,34.97,14.21z"/>
	<path class="st3" d="M23.46,3.39C23.44,3,23.12,2.61,23.48,2.24c0.16-0.01,0.31-0.02,0.47-0.03c1.04-0.19,2.09-0.16,3.13-0.02
		c3.67,0.2,7.25,3.58,7.92,7.45c0.14,0.3,0.25,0.63-0.15,0.79c-0.32,0.13-0.5-0.15-0.65-0.38c-0.36-0.52-0.31-1.23-0.78-1.69
		c-1.13-1.06-1.93-2.43-3.18-3.38c-0.7-0.64-1.48-1.1-2.47-1.11c-1.26-0.23-2.53-0.01-3.79-0.17C23.77,3.66,23.58,3.57,23.46,3.39z"
		/>
	<path class="st4" d="M33.52,8.26c0.84,0.24,0.5,1.12,0.88,1.61c0.11,0.15,0.14,0.43,0.39,0.36c0.29-0.08,0.18-0.38,0.22-0.6
		c0.46,1.52,0.29,3.04-0.03,4.56c-0.5,0.05-0.72-0.18-0.71-0.68c0.01-0.34,0.11-0.72-0.23-0.99c-0.66-0.83-0.13-1.86-0.45-2.74
		C33.5,9.29,33.17,8.79,33.52,8.26z"/>
	<path class="st2" d="M27.09,2.19C26.04,2.2,25,2.21,23.95,2.21C24.99,1.82,26.04,1.86,27.09,2.19z"/>
	<path class="st5" d="M26.33,25.98c0.02,0.07,0.04,0.14,0.04,0.21c-0.31,0.57-0.91,0.9-1.2,1.48l0.01-0.01
		c-0.16,0.18-0.32,0.38-0.6,0.37c-0.94-0.08-1.75-0.53-2.58-0.91c-3.69-1.68-7.06-3.88-10.15-6.51c-1.94-1.65-3.45-3.66-4.51-5.98
		c-1-2.2-0.44-5.42,1.18-7.15c0.79-0.84,1.71-1.23,2.86-1.27c2.56-0.11,5,0.29,7.33,1.37c0.21,0.1,0.41,0.26,0.67,0.13
		c0.44-0.67,0.39-1.56,0.93-2.18c0.6-0.05,0.94,0.33,1.29,0.72c0.92,1.03,2.04,1.8,3.39,2.11c0.55,0.13,0.79,0.65,1.31,0.74
		c0.21-0.03,0.42-0.09,0.63-0.05c1.76,1.2,3.38,2.58,4.98,3.99c0.62,0.55,1.21,1.13,1.61,1.88c-0.93,2.55-2.18,4.95-3.7,7.18
		c-0.71,1.03-1.86,1.77-2.5,2.92C26.79,25.13,26.51,25.51,26.33,25.98z"/>
	<path class="st6" d="M19.37,7.71c-0.78,0.47-1.44-0.03-2.08-0.32c-2.19-0.99-4.5-0.98-6.8-0.77C9.05,6.75,7.64,8.86,7.35,10.3
		c-0.94,4.62,1.89,7.48,4.79,10.13c3.4,3.11,7.39,5.4,11.66,7.16c0.28,0.12,0.58,0.21,0.87,0.31c-0.18,0.95-0.98,1.5-1.44,2.27
		c-0.26,0.42-0.69,0.29-1.08,0.11c-3.54-1.64-7.32-2.83-10.57-5.04c-3.1-2.11-6.14-4.35-7.43-8.16c-0.36-1.07-0.71-2.12-0.61-3.26
		c-0.22-1.58,0.43-3.08,0.49-4.63C6,5.4,8.93,4.51,12.89,4.94C15.36,5.21,17.4,6.35,19.37,7.71z"/>
	<path class="st7" d="M26.36,9.44c-0.1,0.05-0.25,0.17-0.3,0.14c-1.89-1.38-4.23-2.13-5.76-4.04c0.63-1.33,1.9-1.72,3.15-2.14
		c0.17,0.02,0.35,0.05,0.52,0.07c0.9,0.84,2.02,1.46,2.63,2.59c0.7,1.08,1.84,0.47,2.76,0.72c1.24,0.65,2.27,1.57,3.33,2.47
		c0.32,0.27,0.59,0.7,1.12,0.39c0.49,0.94,0.11,1.94,0.22,2.91c0.05,0.84-0.44,1.57-0.52,2.39c-1.58-1.39-3.17-2.79-4.75-4.18
		c-0.61-0.54-1.51-0.73-1.88-1.56C26.55,8.95,26.32,8.91,26.36,9.44z"/>
	<path class="st8" d="M3.75,13.98c0.34,2.81,1.4,5.23,3.43,7.3c3.41,3.49,7.59,5.63,12.04,7.38c0.96,0.38,1.92,0.79,2.84,1.27
		c0.6,0.31,0.99,0.34,1.37-0.29c0.37-0.61,0.83-1.16,1.25-1.74c0.18-0.04,0.24-0.35,0.5-0.24c-0.66,1.03-1.33,2.05-1.97,3.09
		c-0.23,0.38-0.41,0.16-0.67,0.05c-2.48-1.08-5.03-2.01-7.44-3.22c-3.34-1.69-6.6-3.53-9.05-6.52c-2.05-2.5-3.14-5.24-2.69-8.5
		C4.08,12.87,3.41,13.57,3.75,13.98z"/>
	<path class="st9" d="M3.75,13.98c-0.42-0.4,0.02-1.03-0.39-1.42c0.02-1.17,0.34-2.27,0.69-3.37c0.36,0.08,0.26,0.36,0.2,0.56
		C3.82,11.13,3.75,12.55,3.75,13.98z"/>
	<path class="st10" d="M26.33,25.98c-0.32-0.71,0.37-0.9,0.69-1.22c0.26-0.25,0.25,0.11,0.3,0.26
		C27.08,25.43,26.76,25.77,26.33,25.98z"/>
	<path class="st11" d="M25.17,27.67c0.12-0.72,0.64-1.12,1.2-1.48C26.18,26.86,25.75,27.33,25.17,27.67z"/>
	<path class="st12" d="M33.81,9.63c-0.1,1.25-0.68,0.41-0.93,0.16c-1.03-1.05-2.3-1.8-3.4-2.77c-0.03-0.56,0.54-0.92,0.5-1.49
		c0.09-0.28,0.2-0.55,0.49-0.69c1.29,0.9,2.13,2.2,3.05,3.43C33.61,8.72,33.71,9.17,33.81,9.63z"/>
	<path class="st12" d="M26.33,6.07c-0.58-1.05-1.93-1.42-2.35-2.61c1.35,0.02,2.72-0.26,4.05,0.2c0.13,0.57-0.4,0.73-0.64,1.07
		C26.83,5.01,26.73,5.65,26.33,6.07z"/>
	<path class="st13" d="M27.33,4.62c-0.01-0.5,0.5-0.62,0.7-0.97c1.07-0.13,1.75,0.51,2.43,1.19c-0.1,0.24-0.19,0.47-0.29,0.71
		c-0.46,0.82-1.2,0.63-1.87,0.43C27.69,5.8,27.15,5.43,27.33,4.62z"/>
	<path class="st14" d="M26.36,9.44c-0.26-0.12-0.52-0.26-0.41-0.6c0.06-0.18,0.22-0.35,0.45-0.32c0.39,0.05,0.49,0.33,0.48,0.68
		C26.71,9.27,26.53,9.36,26.36,9.44z"/>
	<path class="st15" d="M27.33,4.62c0.7,1.22,1.36,1.44,2.84,0.93c0.17,0.68-0.21,1.1-0.7,1.47c-0.59,0.01-1.17,0-1.76,0.02
		c-0.71,0.02-1.22-0.22-1.39-0.97C26.32,5.35,26.45,4.73,27.33,4.62z"/>
</g>
</svg>
