<?xml version="1.0" encoding="utf-8"?>
<!-- Generator: Adobe Illustrator 23.0.2, SVG Export Plug-In . SVG Version: 6.00 Build 0)  -->
<svg version="1.1" id="Camada_1" xmlns="http://www.w3.org/2000/svg" xmlns:xlink="http://www.w3.org/1999/xlink" x="0px" y="0px"
	 viewBox="0 0 38.4 35.52" style="enable-background:new 0 0 38.4 35.52;" xml:space="preserve">
<style type="text/css">
	.st0{fill:#010000;}
	.st1{fill:#3A0E1C;}
	.st2{fill:#672138;}
	.st3{fill:#581C2F;}
	.st4{fill:#4E1929;}
	.st5{fill:#84325F;}
	.st6{fill:#561A33;}
	.st7{fill:#963B77;}
	.st8{fill:#F0C3E3;}
	.st9{fill:#55132E;}
	.st10{fill:#D09FBC;}
	.st11{fill:#D6AFCA;}
	.st12{fill:#AA4A8B;}
	.st13{fill:#A8498A;}
	.st14{fill:#F4EAF2;}
	.st15{fill:#65223F;}
	.st16{fill:#E6CAE2;}
	.st17{fill:#C173A7;}
</style>
<g>
	<path class="st0" d="M1.61,14.59c-0.01-1.39,0.1-2.76,0.37-4.15C3.23,4.12,9.57,2.03,14.4,3.12c1.32,0.3,2.67,0.52,3.85,1.22
		c0.46,0.27,0.74,0.15,1.02-0.2c2.59-3.25,9.65-3.55,13.04-1.05c2.26,1.67,3.73,3.93,4.5,6.59c0.94,3.23,0.06,6.25-1.34,9.17
		c-1.86,3.87-4.71,7.03-7.33,10.36c-1.06,1.35-2.17,2.65-2.85,4.25c-0.39,0.92-1.31,1.22-1.96,0.73c-3.06-2.32-6.94-2.69-10.2-4.51
		c-3.79-2.11-7.15-4.72-9.49-8.4C1.84,18.46,1.44,17.43,1.61,14.59z"/>
	<path class="st1" d="M35.85,13.82c-0.57,4.12-3.03,7.28-5.33,10.51c-2.11,2.98-4.85,5.49-6.57,8.93c-2.51-2.06-5.62-2.64-8.48-3.79
		c-2.62-1.06-4.88-2.65-6.99-4.5c-1.69-1.48-3.15-3.12-4.32-5.05c-1.58-2.6-1.74-5.38-1.12-8.26c0.12-0.58,0.2-1.18,0.37-1.74
		c1.19-3.98,5.46-6.48,9.6-5.77c1.97,0.34,3.95,0.5,5.58,1.83c0.42,0.34,0.62-0.13,0.88-0.33c0.68-0.53,1.07-1.41,1.99-1.65
		c0.47,0.03,1-0.11,1.29,0.46c-0.33,0.79-1.33,1.01-1.6,1.85c-0.47,0.66-0.33,1.65-1.17,2.1c-0.74-0.11-1.28-0.6-1.89-0.97
		c-2.55-1.6-5.35-2-8.26-1.49c-2.24,0.39-3.76,1.8-4.66,3.87c-0.45,0.64-0.71,1.33-0.69,2.12c-0.86,3.87,0.28,7.15,2.89,10.03
		c2.52,2.78,5.69,4.57,9.05,6.11c1.92,0.88,3.89,1.66,5.83,2.5c1.27,0.55,1.26,0.59,2.02-0.55c0.09-0.13,0.19-0.26,0.29-0.38
		c0.39-0.59,0.96-1.05,1.25-1.71c0.26-0.54,0.75-0.92,1.05-1.44c0.39-0.51,0.95-0.9,1.16-1.55c0.25-0.46,0.58-0.86,0.96-1.22
		c2.45-2.31,3.63-5.37,4.94-8.35c0.24-0.8,0.34-1.63,0.63-2.41C35.4,12.62,35.43,13.51,35.85,13.82z"/>
	<path class="st2" d="M27.26,2.79c3.71-0.28,6.39,2.73,7.61,5.28c0.22,0.46,0.38,0.95,0.56,1.42c-0.46,0.47-0.59,0.46-1.01-0.15
		c-0.49-0.71-0.7-1.62-1.54-2.07c-0.82-0.39-1.31-1.17-1.99-1.71c-0.68-0.59-1.4-1.11-2.37-1.1c-0.49-0.12-1.01-0.15-1.47-0.38
		c-0.38-0.28-0.84-0.19-1.26-0.3c-0.33-0.09-0.6-0.24-0.6-0.63c0-0.45,0.33-0.49,0.66-0.47C26.32,2.72,26.8,2.58,27.26,2.79z"/>
	<path class="st3" d="M32.99,7.14c1.04,0.14,1,1.19,1.52,1.78c0.24,0.27,0.15,1.14,0.92,0.57c0.67,1.39,0.44,2.87,0.42,4.34
		c-0.68,0.06-0.64-0.77-1.14-0.93c-0.66-0.72-0.18-1.65-0.45-2.44c-0.17-0.77-0.45-1.48-0.89-2.14C33.13,7.97,32.83,7.62,32.99,7.14
		z"/>
	<path class="st4" d="M27.26,2.79c-0.04,0-0.08,0-0.12,0.01c-0.58,0.14-1.6-0.3-1.66,0.31c-0.07,0.77,0.92,0.24,1.4,0.43
		c0.21,0.08,0.31,0.22,0.34,0.43c-0.87,0.71-1.9,0.26-2.85,0.38c-0.57-0.04-1.11,0.51-1.7,0.12c-0.35-0.3-0.98,0.12-1.21-0.47
		C23.21,2.69,25.16,2.38,27.26,2.79z"/>
	<path class="st5" d="M27.1,26.54c-0.11,0.71-0.87,0.95-1.14,1.54c-0.22,0.22-0.36,0.55-0.75,0.53c-0.66,0-1.23-0.33-1.81-0.59
		c-4.49-1.98-8.57-4.58-12.11-8c-0.34-0.33-0.67-0.68-0.94-1.08c-0.44-0.56-0.81-1.19-1.26-1.73c-1.7-2.07-1.56-4.48-1.29-6.89
		c0.1-0.9,0.75-1.56,1.31-2.23c1.54-1.81,3.62-1.28,5.56-1.24c1.66,0.04,3.16,0.7,4.67,1.31c0.22,0.09,0.42,0.24,0.67,0.13
		c0.44-0.67,0.39-1.56,0.93-2.18c0.62,0.02,0.98,0.47,1.38,0.85c0.99,0.94,2.03,1.79,3.42,2.03c0.52,0.09,0.7,0.65,1.19,0.7
		c0.21-0.03,0.42-0.09,0.63-0.05c1.96,1.39,3.77,2.98,5.57,4.56c0.42,0.37,0.73,0.82,1.01,1.3c-1.19,2.72-2.22,5.53-4.34,7.73
		c-0.57,0.6-1.09,1.24-1.64,1.86C27.86,25.61,27.17,25.84,27.1,26.54z"/>
	<path class="st6" d="M10.67,18.88c2.25,2.65,5.08,4.59,8,6.38c2.1,1.29,4.31,2.38,6.64,3.21c0.11,0.48-0.38,0.69-0.49,1.07
		c-1.36,1.57-1.33,1.5-3.32,0.69c-3.07-1.24-6.17-2.42-8.95-4.23c-3.25-2.12-6.31-4.44-7.75-8.32c-0.71-1.92-0.64-3.82-0.47-5.77
		c0.08-0.74,0.31-1.44,0.58-2.12c1.31-3.8,5.05-4.71,8.61-4.28c2.47,0.3,4.53,1.4,6.5,2.78c-0.73,0.45-1.37,0.02-1.97-0.26
		c-2.21-1.06-4.56-0.95-6.9-0.86c-0.82,0.03-1.31,0.7-1.91,1.14c-1.58,0.82-2.57,2.98-2.26,4.99C7.35,15.73,8.62,17.57,10.67,18.88z
		"/>
	<path class="st7" d="M27,10c-0.1,0.05-0.25,0.18-0.29,0.15c-1.89-1.4-4.26-2.1-5.76-4.04c0.24-0.9,1.12-1.13,1.72-1.65
		c0.49-0.14,0.98-0.28,1.47-0.42c1.26,0.56,2.32,1.35,3.06,2.54c0.33,0.66,0.92,0.82,1.59,0.81c0.43-0.01,0.86-0.11,1.3-0.01
		c1.2,0.57,2.11,1.53,3.14,2.34c0.36,0.28,0.65,0.75,1.23,0.48c0.47,0.86,0.07,1.8,0.23,2.69c-0.04,0.9-0.24,1.77-0.54,2.62
		c-2.23-1.92-4.46-3.83-6.69-5.75C27.13,9.48,26.97,9.55,27,10z"/>
	<path class="st8" d="M4.42,11.93c-0.01,1.83-0.1,3.63,0.55,5.43c1.42,3.94,4.51,6.3,7.78,8.46c3.14,2.08,6.79,3.15,10.15,4.8
		c0.5,0.24,0.79,0.18,1.08-0.28c0.23-0.37,0.55-0.68,0.83-1.02c0.13,0.11,0.14,0.23,0.04,0.36c-0.37,0.61-0.61,1.49-1.16,1.76
		c-0.56,0.27-1.21-0.52-1.87-0.76c-3.64-1.35-7.17-2.9-10.46-4.98c-2.91-1.83-5.23-4.2-6.7-7.32c-0.98-2.07-0.9-4.26-0.41-6.45
		C4.3,11.81,4.36,11.81,4.42,11.93z"/>
	<path class="st9" d="M27.1,26.54c-0.22-0.63,0.04-0.97,1.09-1.44C28.17,25.84,27.49,26.08,27.1,26.54z"/>
	<path class="st10" d="M4.42,11.93l-0.09,0.01l-0.09,0C4.22,11.14,4.2,10.36,4.91,9.8C4.88,10.54,4.73,11.25,4.42,11.93z"/>
	<path class="st11" d="M24.84,29.68c-0.01-0.12-0.03-0.24-0.04-0.36c0.17-0.28,0.34-0.56,0.51-0.84c0.22-0.13,0.34-0.41,0.65-0.4
		C25.79,28.75,25.25,29.18,24.84,29.68z"/>
	<path class="st12" d="M34.47,10.2c0.03,0.82-0.36,0.59-0.74,0.29c-1.21-0.95-2.4-1.92-3.61-2.88c-0.03-0.56,0.54-0.92,0.5-1.49
		c0.09-0.28,0.2-0.55,0.49-0.69c0.63,0.57,1.25,1.14,1.88,1.72C33.53,8.14,34.38,8.98,34.47,10.2z"/>
	<path class="st13" d="M26.98,6.65c-0.73-1.1-1.94-1.68-2.83-2.61c1.03-0.03,2.05-0.05,3.08-0.08c0.48,0.08,1-0.01,1.45,0.27
		c0.15,0.58-0.34,0.78-0.64,1.1C27.46,5.58,27.37,6.24,26.98,6.65z"/>
	<path class="st14" d="M27.98,5.21c0.08-0.44,0.47-0.64,0.7-0.97c1.07-0.13,1.75,0.51,2.43,1.19c-0.1,0.24-0.19,0.47-0.29,0.71
		c-0.46,0.82-1.21,0.63-1.87,0.43C28.33,6.38,27.8,6.02,27.98,5.21z"/>
	<path class="st15" d="M10.67,18.88c-1.22-0.18-1.87-1.09-2.55-1.96c-1.7-2.2-1.96-5.15-0.61-7.51c0.37-0.64,0.75-1.36,1.73-1.09
		c-0.59,0.93-1.09,1.81-1.27,3C7.53,14.4,8.93,16.67,10.67,18.88z"/>
	<path class="st16" d="M27,10c-0.24-0.14-0.53-0.26-0.36-0.62c0.09-0.18,0.27-0.33,0.48-0.27c0.3,0.09,0.44,0.32,0.36,0.64
		C27.32,9.84,27.16,9.92,27,10z"/>
	<path class="st17" d="M27.98,5.21c0.7,1.23,1.36,1.44,2.84,0.93c0.17,0.68-0.21,1.1-0.7,1.47c-0.66-0.11-1.3,0.24-1.99,0.05
		c-0.59-0.16-1.03-0.37-1.16-1.01C26.97,5.93,27.1,5.31,27.98,5.21z"/>
</g>
</svg>
