<?xml version="1.0" encoding="utf-8"?>
<!-- Generator: Adobe Illustrator 23.0.2, SVG Export Plug-In . SVG Version: 6.00 Build 0)  -->
<svg version="1.1" id="Camada_1" xmlns="http://www.w3.org/2000/svg" xmlns:xlink="http://www.w3.org/1999/xlink" x="0px" y="0px"
	 viewBox="0 0 24.48 25.2" style="enable-background:new 0 0 24.48 25.2;" xml:space="preserve">
<style type="text/css">
	.st0{fill:#0E0B0E;}
	.st1{fill:#373A3E;}
	.st2{fill:#404040;}
	.st3{fill:#3D2F3A;}
	.st4{fill:#F8EA34;}
	.st5{fill:#C6404A;}
	.st6{fill:#C8404A;}
	.st7{fill:#E9822B;}
	.st8{fill:#F7EB34;}
	.st9{fill:#2BDD53;}
	.st10{fill:#F7EC33;}
	.st11{fill:#70B0DA;}
	.st12{fill:#E8812C;}
	.st13{fill:#2ADE55;}
	.st14{fill:#2ADC53;}
	.st15{fill:#74B8E2;}
	.st16{fill:#F0EB33;}
	.st17{fill:#2C3240;}
	.st18{fill:#303040;}
	.st19{fill:#313140;}
	.st20{fill:#2ADE54;}
	.st21{fill:#D57D2D;}
	.st22{fill:#28283E;}
	.st23{fill:#D17C2C;}
	.st24{fill:#2BDE55;}
	.st25{fill:#C14C55;}
	.st26{fill:#372D28;}
	.st27{fill:#D48031;}
	.st28{fill:#292C46;}
	.st29{fill:#21213B;}
	.st30{fill:#1C1E41;}
	.st31{fill:#28E154;}
	.st32{fill:#74BBE3;}
	.st33{fill:#27E754;}
	.st34{fill:#2F304D;}
	.st35{fill:#342820;}
	.st36{fill:#1B1D41;}
	.st37{fill:#EFEB3D;}
</style>
<g>
	<path class="st0" d="M22.55,16.38c0.02,2.87-0.02,2.94-1.93,3.65c-2.59,0.95-5.19,1.87-7.77,2.84c-0.74,0.28-1.39,0.25-2.06-0.14
		c-2-1.18-3.99-2.34-5.99-3.52c-0.67-0.4-1.06-1.03-1.11-1.76c-0.17-2.68-0.87-5.27-1.3-7.9C2.02,7.22,2.28,6.68,4.51,5.89
		c3.2-1.13,6.39-2.29,9.61-3.35c1.31-0.43,2.33,0.44,3.17,1.24c1.3,1.23,2.43,2.64,3.67,3.94c0.57,0.59,0.81,1.33,0.84,2.07
		C21.89,12.27,22.37,14.7,22.55,16.38z"/>
	<path class="st1" d="M20.26,9.54c0.47,1.07,0.18,2.23,0.41,3.35c0.16,0.78,0.16,1.63,0.28,2.44c-0.14,0.13-0.31,0.15-0.49,0.09
		c-0.23-0.11-0.34-0.33-0.45-0.53c-0.04,0.76,0.2,1.44,0.67,2.04c0.17,0.4,0.35,0.81-0.31,0.93c-0.72-0.21-1.09-0.96-1.81-1.18
		c-0.15-0.09-0.26-0.21-0.35-0.35c-0.31-0.98-1.1-0.18-1.61-0.43c-0.15-0.09-0.26-0.22-0.29-0.39c0.02-0.42,0.52-0.43,0.71-0.83
		c-1.29-0.67-2.28,0.18-3.34,0.54c-0.14,0.09-0.29,0.16-0.45,0.21c-0.95,0.13-1.82,0.46-2.62,0.99c-0.25,0.22-0.6,0.08-0.87,0.23
		c-0.94,0.08-1.81,0.54-2.76,0.57c-0.24-0.04-0.44-0.12-0.53-0.37c-0.07-0.75,0.9-0.46,1.02-1.02c1.31-0.91,1.35-1.21,0.46-3.12
		c-0.12-0.28,0.61-0.45,0.09-0.78c-0.12-0.58-0.15-1.19-0.44-1.72C7.46,9.92,7.14,9.79,6.98,9.52c0.44-0.6,0.2-1.31,0.28-1.96
		C7.48,6.91,7.8,6.6,8.38,7.24C9,8.48,9.23,8.57,10.16,8.1c0.86-0.44,0-1.16,0.31-1.68c0.11-0.28,0.15-0.67,0.52-0.69
		c0.32-0.02,0.39,0.33,0.52,0.56c0.2,0.51,0.42,1.01,0.64,1.51c0.03,0.3,0.03,0.61,0.16,0.9c0.11,0.62,0.31,1.22,0.39,1.84
		c0.64,0.4,1.4-0.42,2.01,0.21c-0.02,0.63-0.57,0.57-0.93,0.66c-0.84,0.21-0.62,0.74-0.5,1.3c0.13,0.63,0.43,0.86,1.09,0.7
		c1.47-0.35,1.61-1.19,0.38-2.59c0.46-0.5-0.21-0.33-0.3-0.5c0.35-0.68,0.23-1.41,0.28-2.13c0.03-0.11,0.09-0.2,0.16-0.29
		c0.66-0.11,0.71,0.6,1.13,0.83c0.5,0.48,0.31,1.33,0.97,1.77c0.08-0.63-0.51-0.9-0.65-1.39c-0.04-0.11-0.04-0.22-0.01-0.32
		c0.09-0.2,0.22-0.37,0.34-0.55c0.31-0.49,0.02-1.03,0.13-1.54c0.08-0.16,0.19-0.27,0.36-0.32c0.96,0.59,1.61,1.47,2.06,2.47
		C19.45,9.35,19.72,9.58,20.26,9.54z"/>
	<path class="st2" d="M11.32,6.44c-0.22-0.53-0.44-0.47-0.66,0C9.8,6.64,8.96,6.89,8.22,7.4C7.67,6.77,7.57,7.23,7.48,7.71
		c-0.23,0.11-0.4,0.01-0.55-0.16C6.28,7.25,5.77,7.41,5.41,8.04C4.8,8.68,5.28,9.42,5.23,10.11c-0.24,0.47,0.44,0.37,0.43,0.7
		c-0.02,0.24-0.2,0.35-0.37,0.48c-0.14,0.09-0.22,0.22-0.27,0.37c-0.05,0.15,0,0.31-0.05,0.46c0.09-0.14,0-0.32,0.11-0.45
		c0.6,0.01,0.6,0.67,0.99,0.9c0.17,0.36-0.26,0.65-0.11,1.01c0.02,0.9-0.29,1.81,0.2,2.67c0.14,0.16,0.26,0.34,0.39,0.5
		c0.11,0.19,0.3,0.23,0.51,0.24c0.2,0.2-0.56,0.34,0,0.65c0.67,0.38,1.35,0.4,2.05,0.43c0.22,0.14,0.18,0.37,0.21,0.57
		c0.26,0.57,0.84,0.64,1.32,0.86c0.15,0.08,0.27,0.18,0.39,0.3c0.85,1,1.62,0.23,2.4-0.13c0.92-0.19,2.01,0.32,2.74-0.66
		c0.07-0.09,0.16-0.15,0.26-0.2c0.19-0.05,0.7,0.43,0.51-0.29c1.07-0.32,2.06-0.93,3.23-0.85c0.63,0,0.48-0.33,0.3-0.68
		c0.07-0.57-0.55-1.13-0.01-1.7c0.16,0,0.32,0,0.48,0c0,0,0,0,0,0c0.19,1.03,0.19,2.05,0,3.08c-2.7,0.98-5.4,1.94-8.09,2.94
		c-0.69,0.26-1.25,0.23-1.9-0.18c-1.65-1.03-3.37-1.97-5.07-2.94c-0.44-0.25-0.75-0.54-0.8-1.1c-0.22-2.54-0.82-5.01-1.29-7.5
		C3.47,7.85,3.51,7.69,5.21,7.1c2.71-0.94,5.44-1.83,8.13-2.83c1.27-0.47,2.33-0.19,3.14,0.74c1.11,1.26,2.28,2.45,3.45,3.65
		c0.24,0.25,0.34,0.53,0.32,0.87c-0.44,0.47-1.01,0.6-1.16-0.1c-0.28-1.29-1.25-2.05-1.97-3C16.6,6.37,16.39,5.8,15.9,5.67
		c-0.09-0.01-0.19-0.01-0.28,0.02C15.32,6.43,15.54,7.06,16,7.66c0.25,0.33,0.68,0.61,0.44,1.13L16.4,8.84c-0.16,0.17-0.33,0-0.49,0
		c-0.62-0.02-0.54-0.73-0.95-0.96c-0.41-0.16-0.88-0.14-1.23-0.45c-0.07-0.3,0.2-0.39,0.34-0.57c0.36-0.44,0.21-0.95-0.01-1.34
		c-0.23-0.42-0.64-0.08-0.97-0.01C12.42,5.66,11.83,5.98,11.32,6.44z"/>
	<path class="st1" d="M20.96,18.41c0-1.03,0-2.05,0-3.08C21.34,16.35,21.36,17.38,20.96,18.41z"/>
	<path class="st3" d="M10.95,19.92c-0.1-0.09-0.2-0.18-0.31-0.26c0.09-0.58,0.87-0.53,1.02-1.12c-0.94-0.46-1.79,0.78-2.7,0.14
		c0.08-0.14,0.16-0.28,0.25-0.42c0.04-0.11,0.1-0.24,0.2-0.27c0.89-0.23,0.78-0.79,0.5-1.43c0.05-0.31,0.44-0.01,0.5-0.29
		c0.54-0.28,0.89,0.16,1.29,0.36c0.54,0.28,1,0.03,1.46-0.2c0.56-0.28-0.02-0.71,0.1-1.05c0.09-0.1,0.19-0.2,0.28-0.3
		c0.87,0.5,1.82,0.45,2.78,0.43c0.11,0.09,0.22,0.19,0.33,0.28c-0.08,0.35-0.39,0.47-0.66,0.63c-0.68,0.4-0.06,0.49,0.17,0.68
		c0.15,0.09,0.26,0.21,0.32,0.38c0.03,0.25-0.08,0.42-0.28,0.55c-0.2,0.05-0.46-0.19-0.59,0.15c-0.39,0.34-0.86,0.52-1.35,0.71
		c0.68,0.8,1.47-0.23,2.13,0.25c-0.28,0.81-1,0.78-1.65,0.89c-0.4,0.06-0.75-0.34-1.17-0.12c-0.5-0.31-1-0.33-1.53-0.03
		C11.7,20.03,11.33,20.21,10.95,19.92z"/>
	<path class="st4" d="M6.08,16.52c-0.19-0.03-0.47-0.01-0.43-0.27c0.13-0.94-0.49-1.94,0.25-2.82c0.58-0.58,1.31-0.75,2.1-0.74
		c1.15,0.46,0.62,1.61,0.92,2.41c0.18,0.5-0.61,0.43-0.95,0.64c-0.16,0.1-0.35,0.17-0.52,0.25C7.06,16.34,6.6,16.5,6.08,16.52z"/>
	<path class="st5" d="M9.46,15.27c0.3-0.79,0.05-1.41-0.05-2.01c-0.12-0.68,0.03-0.98,0.73-1.18c1.61-0.45,2.37,0.06,2.49,1.76
		c0.03,0.4-0.2,0.45-0.48,0.54C11.32,14.65,10.49,14.93,9.46,15.27z"/>
	<path class="st6" d="M14.73,10.78c1.33,0,0.94,1.12,1.16,1.83c0.25,0.81-0.46,0.75-0.91,0.91c-0.34,0.12-0.69,0.21-1.03,0.32
		c-0.48,0.15-0.78,0-0.85-0.52c-0.01-0.04-0.01-0.08-0.01-0.12c-0.4-1.62-0.4-1.62,1.66-2.42L14.73,10.78z"/>
	<path class="st7" d="M11.32,6.44c-0.05-0.48,0.19-0.73,0.63-0.86c0.34-0.1,0.67-0.28,1.01-0.34c0.48-0.09,1.05-0.73,1.37-0.27
		c0.32,0.46,0.3,1.22,0.3,1.85c0,0.56-0.7,0.22-0.92,0.56c-0.45,0.47-0.98,0.68-1.63,0.51C11.42,7.62,11.62,6.9,11.32,6.44z"/>
	<path class="st8" d="M12.59,10.69c-0.35-0.64-0.55-1.32-0.5-2.06c1.1-0.9,2.14-1.07,2.85-0.45c0.02,0.35-0.08,0.77,0.08,1.03
		c0.5,0.82-0.12,0.87-0.62,1.03C13.85,10.6,13.27,10.86,12.59,10.69z"/>
	<path class="st9" d="M9.91,16.55c1.17,1.02,1.17,1.02-0.7,1.7c-0.8,0.26-1.5,0.07-2.23-0.33c-0.84-0.46-0.42-0.66,0.09-0.91
		C8.03,16.99,8.86,16.07,9.91,16.55z"/>
	<path class="st8" d="M7.06,7.4C7.2,7.5,7.34,7.61,7.48,7.71c-0.1,0.63,0.69,1.47-0.44,1.85c-0.51,0.52-1.11,0.8-1.86,0.68
		C5,9.43,4.07,8.56,5.39,7.89C5.87,7.45,6.39,7.18,7.06,7.4z"/>
	<path class="st10" d="M6.08,12.67C5.03,13,5.5,11.96,5.17,11.65c-0.24-0.22-0.27-0.43,0.02-0.63c0.17-0.07,0.33-0.14,0.5-0.21
		c0.57-0.57,1.26-0.85,2.07-0.76c0.44,0.55,0.48,1.21,0.47,1.88C7.64,12.54,6.91,12.76,6.08,12.67z"/>
	<path class="st11" d="M16.1,17.95c0.12-0.15,0.24-0.29,0.36-0.44c0.52-0.71,1.26-0.96,2.1-1c0.86-0.04,1.13,0.73,1.63,1.19
		c-1.09,0.38-2.14,0.9-3.3,1.03C16.37,18.73,16.07,18.5,16.1,17.95z"/>
	<path class="st6" d="M8.22,7.4c0.37-0.77,1.55-1.23,2.44-0.96c0.02,0.24-0.02,0.51,0.08,0.7c0.38,0.74,0.2,0.97-0.6,1.34
		C8.81,9.08,8.4,8.58,8.22,7.4z"/>
	<path class="st12" d="M8.71,10.17c0.56-0.86,1.46-0.95,2.17-1.04c0.76-0.09,0.73,0.86,0.67,1.24c-0.15,1.07-1.27,0.88-1.96,1.03
		C8.66,11.61,9.27,10.54,8.71,10.17z"/>
	<path class="st13" d="M16.31,15.51c-1.01,0.4-2.02,0.81-2.78-0.43c0.79-0.64,1.78-0.77,2.71-1.04c0.71-0.21,0.84,0.52,1.36,0.82
		C17.07,15.13,16.69,15.32,16.31,15.51z"/>
	<path class="st14" d="M13.25,15.38c0.05,0.43,1.08,0.66,0.52,1.04c-0.56,0.38-1.28,1.05-2.15,0.56c-0.41-0.23-0.69-0.67-1.21-0.71
		C11.29,15.74,12.09,14.99,13.25,15.38z"/>
	<path class="st15" d="M16.15,17.21c-0.53,0.22-0.89-0.11-1-0.51c-0.1-0.38,0.41-0.35,0.66-0.5c0.26-0.16,0.56-0.28,0.84-0.41
		c0.32-0.13,0.63-0.33,0.96-0.37c0.61-0.09,0.94,0.14,0.64,0.81C17.7,16.89,16.94,17.09,16.15,17.21z"/>
	<path class="st16" d="M15.7,5.51c0.07-0.02,0.14-0.02,0.21-0.01c0.44,0.3,0.94,0.55,1.01,1.17c0.13,0.58,0.56,1.16-0.04,1.72
		C15.49,7.61,15.11,6.69,15.7,5.51z"/>
	<path class="st17" d="M14.94,8.17c-1.05-0.5-1.88,0.44-2.85,0.45c-0.14-0.25-0.17-0.49-0.01-0.74c0.51-0.27,1.06-0.43,1.63-0.51
		c0.42,0.15,1.09-0.29,1.25,0.51C14.95,7.98,14.95,8.07,14.94,8.17z"/>
	<path class="st18" d="M6.08,12.67c0.72-0.25,1.43-0.49,2.15-0.74C8.5,12.28,8.16,12.46,8,12.69c-0.7,0.25-1.4,0.49-2.1,0.74
		C4.77,12.89,6.26,12.98,6.08,12.67z"/>
	<path class="st19" d="M7.76,10.05c-0.66,0.33-1.34,0.62-2.07,0.76c-0.22-0.14-0.84,0.06-0.51-0.58c0.58-0.32,1.2-0.55,1.86-0.68
		C7.39,9.56,7.75,9.55,7.76,10.05z"/>
	<path class="st20" d="M15.91,8.84c0.16-0.28,0.33-0.03,0.49,0c0.49,0.64,1.29,1.14,0.91,2.18C16.06,10.81,16.31,9.61,15.91,8.84z"
		/>
	<path class="st21" d="M20.47,15.32c-0.19,0.57,0.56,1.13,0.01,1.7c-0.89-0.86-0.9-1.91-0.68-3.12
		C20.44,14.28,20.17,14.93,20.47,15.32z"/>
	<path class="st22" d="M15.7,5.51c-0.36,1.27,0.3,2.12,1.17,2.88c-0.08,0.2-0.21,0.34-0.43,0.4c-0.56-0.96-1.46-1.72-1.31-3.05
		C15.21,5.02,15.33,5.17,15.7,5.51z"/>
	<path class="st23" d="M19.12,15.29c-0.97-0.74-1.04-1.54-1.03-2.45C19.42,13.23,19,14.24,19.12,15.29z"/>
	<path class="st24" d="M18.93,12.33c-0.92-0.29-0.97-0.98-0.96-1.83C18.77,10.93,19.18,11.45,18.93,12.33z"/>
	<path class="st25" d="M17.59,7.77c0.87,0.65,1.15,1.29,1.16,2.14C17.78,9.58,17.82,8.76,17.59,7.77z"/>
	<path class="st26" d="M16.15,17.21c0.7-0.33,1.4-0.65,2.1-0.98c0.11,0.09,0.21,0.19,0.32,0.28c-0.64,0.46-1.37,0.73-2.1,1
		C16.35,17.41,16.25,17.31,16.15,17.21z"/>
	<path class="st27" d="M16.67,11.72c0.88,0.31,1.07,0.93,0.86,1.79C16.77,13.11,16.91,12.34,16.67,11.72z"/>
	<path class="st28" d="M12.59,10.69c0.61-0.15,1.21-0.3,1.82-0.45c0.29,0.07,0.9-0.05,0.33,0.54c0,0,0.01,0,0.01,0
		c-0.5-0.05-0.98,0.02-1.47,0.16C13.08,11,12.63,11.28,12.59,10.69z"/>
	<path class="st29" d="M16.92,6.67c-0.34-0.39-0.67-0.78-1.01-1.17c0.73-0.11,0.83,0.6,1.22,0.94C17.06,6.52,16.99,6.59,16.92,6.67z
		"/>
	<path class="st30" d="M6.08,16.52c0.42-0.27,0.87-0.46,1.37-0.52c0.09,0.7-0.74,0.35-0.89,0.78C6.36,16.76,6.17,16.73,6.08,16.52z"
		/>
	<path class="st31" d="M8.96,18.67c0.72-0.01,1.39-0.26,2.01-0.55c0.63-0.29,1.09-0.01,1.26,0.44c0.2,0.52-0.49,0.44-0.77,0.64
		c-0.25,0.18-0.55,0.3-0.82,0.45C9.81,19.79,9.32,19.34,8.96,18.67z"/>
	<path class="st32" d="M16.38,19.11c-0.87,0.14-1.83,1.09-2.59-0.4c0.61-0.22,1.24-0.45,1.86-0.67c0.39,0.18,0.75,0.38,0.76,0.88
		C16.38,18.98,16.37,19.05,16.38,19.11z"/>
	<path class="st33" d="M10.95,19.92c0.47-0.17,0.97-0.29,1.41-0.53c0.65-0.35,1.02-0.21,1.2,0.49
		C12.02,20.98,11.55,20.98,10.95,19.92z"/>
	<path class="st34" d="M7.06,7.4c-0.56,0.17-1.11,0.33-1.67,0.5C5.32,7.88,5.24,7.86,5.17,7.85C5.33,7.3,6.81,6.83,7.18,7.22
		C7.19,7.23,7.11,7.33,7.06,7.4z"/>
	<path class="st35" d="M16.41,18.92c-0.25-0.29-0.51-0.59-0.76-0.88c-0.01-0.14-0.07-0.39-0.03-0.41c0.31-0.14,0.28,0.27,0.47,0.33
		c0.26,0.26,0.52,0.52,0.78,0.78c0.17,0.12,0.34,0.23,0.53,0.36C17.02,19.26,16.72,19.07,16.41,18.92z"/>
	<path class="st36" d="M5.19,11.02c-0.01,0.21-0.01,0.42-0.02,0.63c-0.03,0.34-0.07,0.68-0.07,0.7C5.22,12.13,4.14,11.47,5.19,11.02
		z"/>
	<path class="st37" d="M15.11,17.61c-0.57,0.26-1.12,0.59-1.71,0.72c-0.26,0.06-0.66-0.25-0.82-0.59c-0.08-0.17,1.52-0.98,1.83-0.91
		C14.75,16.92,14.91,17.2,15.11,17.61z"/>
</g>
</svg>
