<?xml version="1.0" encoding="utf-8"?>
<!-- Generator: Adobe Illustrator 23.0.2, SVG Export Plug-In . SVG Version: 6.00 Build 0)  -->
<svg version="1.1" id="Camada_1" xmlns="http://www.w3.org/2000/svg" xmlns:xlink="http://www.w3.org/1999/xlink" x="0px" y="0px"
	 viewBox="0 0 26.68 22.36" style="enable-background:new 0 0 26.68 22.36;" xml:space="preserve">
<style type="text/css">
	.st0{fill:#000001;}
	.st1{fill:#FEFEFE;}
	.st2{fill:#BCBBBB;}
	.st3{fill:#FAFAFA;}
	.st4{fill:#BEBDBD;}
	.st5{fill:#BDBCBC;}
	.st6{fill:#ECEBEB;}
	.st7{fill:#CAC9C9;}
	.st8{fill:#BFBEBE;}
	.st9{fill:#C8C7C7;}
	.st10{fill:#080808;}
	.st11{fill:#080708;}
	.st12{fill:#161616;}
	.st13{fill:#0B0B0B;}
	.st14{fill:#0F0E0F;}
	.st15{fill:#121212;}
	.st16{fill:#141314;}
</style>
<g>
	<path class="st0" d="M25.35,15.68c-0.02,0.75-0.35,1.28-1,1.54c-3.09,1.24-6.16,2.53-9.47,3.11c-0.47,0.08-0.95,0.16-1.39,0.35
		c-1.88,0.8-3.44-0.37-5.12-0.79c-1.7-0.42-2.71-1.49-3.38-3.03c-0.94-2.15-2-4.24-2.9-6.41C1.16,8.22,1.56,7.41,3.7,6.26
		C7.06,4.45,10.58,3,14.18,1.76c0.61-0.21,1.24-0.24,1.85,0.1c1.46,0.81,2.94,1.59,4.39,2.4c0.61,0.34,1.05,0.85,1.29,1.52
		c1.17,3.17,2.35,6.33,3.52,9.5C25.29,15.42,25.32,15.58,25.35,15.68z"/>
	<path class="st1" d="M4.56,8.39c2.83-1.71,5.94-2.83,8.93-4.18c0.65-0.3,1.23-0.25,1.66,0.56c1.48,2.76,2.74,5.63,4.08,8.45
		c-0.89,0.7-1.92,1.14-2.99,1.47c-1.99,0.61-3.96,1.26-5.91,2c-0.98,0.37-1.62,0.16-2.07-0.75c-1.06-2.15-2.29-4.21-3.48-6.3
		C4.58,9.26,4.45,8.84,4.56,8.39z"/>
	<path class="st2" d="M4.56,8.39c1.36,2.52,2.74,5.04,4.08,7.57c0.38,0.73,0.8,0.78,1.51,0.48c2.81-1.21,5.89-1.73,8.62-3.17
		c0.13-0.07,0.31-0.04,0.47-0.05c0.4,0.31,0.56,0.55-0.08,0.8c-3.39,1.3-6.77,2.62-10.14,3.95c-0.63,0.25-0.92-0.03-1.25-0.52
		c-1.68-2.57-2.45-5.53-3.64-8.31C3.98,8.77,4.01,8.41,4.56,8.39z"/>
	<path class="st3" d="M19.96,12.97c-1.35-2.9-2.44-5.92-4.1-8.83c2.07,0.71,3.73,1.54,4.32,3.75c0.34,1.28,1,2.48,1.54,3.77
		c-1.19-0.22-1.37-0.01-1.08,1.1c0.09,0.11,0.09,0.21-0.03,0.3C20.38,13.19,20.16,13.17,19.96,12.97z"/>
	<path class="st4" d="M17.1,17.8c-1.12,0.41-2.22,0.85-3.35,1.23c-1.25,0.41-2.35-0.54-3.59-0.26c-0.01-0.12-0.03-0.23-0.04-0.35
		c1.84-0.68,3.67-1.35,5.51-2.03c0.16,0.06,0.31,0.13,0.28,0.34c-0.1,0.3-0.5,0.37-0.54,0.8c0.47,0.26,0.94-0.2,1.4-0.08
		C16.94,17.51,17.06,17.63,17.1,17.8z"/>
	<path class="st5" d="M21.7,16.15c-0.77,0.46-1.62,0.68-2.48,0.89c-0.61,0-1.23,0.26-1.83-0.07c-0.37-0.07-0.75-0.08-1.06-0.33
		c-0.16-0.61,0.7-0.32,0.7-0.79c0.73-0.31,1.47-0.61,2.2-0.92C20.23,14.97,21.2,15.09,21.7,16.15z"/>
	<path class="st5" d="M19.96,12.97c0.23-0.04,0.46-0.07,0.69-0.11c0.31,0.39,0.86,0.31,1.21,0.61c0.35,0.3,0.7,0.61,0.48,1.15
		C21.44,14.24,20.29,14.2,19.96,12.97z"/>
	<path class="st6" d="M22.35,14.64c-0.08-1.05-1.39-0.93-1.7-1.77v-0.1C20.87,12.85,21.09,13,21.3,13c0.89-0.01,1.6,0.8,1.37,1.65
		C22.67,14.67,22.46,14.64,22.35,14.64z"/>
	<path class="st7" d="M21.7,16.15c-0.62-0.81-1.61-0.9-2.47-1.23c0.49-0.2,2.93,0.43,3.04,0.84C22.37,16.19,21.93,16.07,21.7,16.15z
		"/>
	<path class="st8" d="M17.52,16.86c0.56,0.1,1.15-0.09,1.69,0.18c-0.7,0.25-1.41,0.51-2.11,0.76c-0.09-0.07-0.19-0.13-0.28-0.2
		C16.86,17.17,17.15,16.98,17.52,16.86z"/>
	<path class="st9" d="M17.02,15.85c0.23,0.06,0.55,0.1,0.18,0.4c-0.24,0.19-0.65,0.01-0.87,0.31c-0.12,0.14-0.25,0.15-0.41,0.07
		c-0.1-0.08-0.2-0.15-0.3-0.23C16.09,16.21,16.56,16.03,17.02,15.85z"/>
	<path class="st10" d="M8.4,13.95c0.02-0.73,0.59-0.88,1.14-0.93c0.68-0.06,1.02,0.34,1.06,1.01c0.05,0.7-0.42,0.88-0.98,0.95
		C8.88,15.07,8.56,14.62,8.4,13.95z"/>
	<path class="st11" d="M7.41,8.82c0.7-0.02,0.87,0.43,0.85,1.01c-0.02,0.72-0.5,1.11-1.15,1.11c-0.61,0-0.87-0.5-0.87-1.07
		C6.24,9.11,6.71,8.83,7.41,8.82z"/>
	<path class="st12" d="M13.95,12.7c-0.61,0-1.13-0.25-1.1-0.84c0.04-0.67,0.63-0.98,1.27-0.99c0.59-0.01,0.97,0.38,0.97,0.97
		C15.1,12.61,14.47,12.62,13.95,12.7z"/>
	<path class="st13" d="M12.04,8.39c-0.65-0.01-0.85-0.4-0.85-0.86c0-0.68,0.22-1.26,1.05-1.3c0.61-0.02,0.87,0.42,0.91,0.9
		C13.21,7.93,12.54,8.14,12.04,8.39z"/>
	<path class="st14" d="M20.27,9.43c0,0.36-0.13,0.73-0.56,0.73c-0.63,0-0.7-0.58-0.78-1.03c-0.06-0.37,0.1-0.79,0.53-0.77
		C20.06,8.38,20.15,8.92,20.27,9.43z"/>
	<path class="st15" d="M18.77,6.4c-0.04,0.41-0.2,0.65-0.53,0.6c-0.45-0.07-0.65-0.42-0.7-0.84c-0.03-0.28,0.19-0.44,0.45-0.44
		C18.48,5.72,18.58,6.15,18.77,6.4z"/>
	<path class="st16" d="M15.93,16.62c0.14-0.02,0.27-0.04,0.41-0.07c0.44-0.09,0.85-0.02,1.18,0.3c-0.06,0.41-0.47,0.49-0.7,0.74
		c-0.3,0.1-0.59,0.22-0.89,0.29c-0.4,0.1-0.91,0.33-1.06-0.29c-0.14-0.54,0.29-0.73,0.75-0.83C15.73,16.75,15.83,16.67,15.93,16.62z
		"/>
</g>
</svg>
