<?xml version="1.0" encoding="utf-8"?>
<!-- Generator: Adobe Illustrator 23.0.2, SVG Export Plug-In . SVG Version: 6.00 Build 0)  -->
<svg version="1.1" id="Camada_1" xmlns="http://www.w3.org/2000/svg" xmlns:xlink="http://www.w3.org/1999/xlink" x="0px" y="0px"
	 viewBox="0 0 22.39 99.64" style="enable-background:new 0 0 22.39 99.64;" xml:space="preserve">
<style type="text/css">
	.st0{fill:#FDFDFD;}
	.st1{fill:#010101;}
	.st2{fill:#9A2425;}
	.st3{fill:#A4BFBE;}
	.st4{fill:#ABC2C1;}
	.st5{fill:#A5BEBD;}
	.st6{fill:#D0DDDD;}
	.st7{fill:#A5BFBE;}
	.st8{fill:#5B8988;}
	.st9{fill:#CB4545;}
	.st10{fill:#A43A3A;}
	.st11{fill:#CC4445;}
	.st12{fill:#E69177;}
	.st13{fill:#E58F76;}
	.st14{fill:#E38E75;}
	.st15{fill:#E49076;}
	.st16{fill:#CB4444;}
	.st17{fill:#CC4545;}
	.st18{fill:#D87161;}
	.st19{fill:#C24140;}
	.st20{fill:#EC9A7E;}
	.st21{fill:#CF4747;}
	.st22{fill:#A92F2F;}
	.st23{fill:#FBFBFB;}
	.st24{fill:#E69278;}
	.st25{fill:#CD4646;}
	.st26{fill:#F9FAFA;}
	.st27{fill:#AAC1C0;}
	.st28{fill:#F8F9F9;}
	.st29{fill:#A63939;}
	.st30{fill:#A93B3B;}
	.st31{fill:#ADC4C3;}
	.st32{fill:#F7F9F9;}
	.st33{fill:#F0F4F4;}
	.st34{fill:#E48C74;}
	.st35{fill:#CD4E4A;}
	.st36{fill:#FBFCFC;}
	.st37{fill:#CB4445;}
	.st38{fill:#CC4646;}
</style>
<g>
	<path class="st0" d="M7.51,65.08c0-10.16-0.01-20.31,0.01-30.47c0-0.79-0.24-1.03-0.99-1.47c-1.96-1.15-4.18-2.11-5.07-4.58
		c-0.43-1.18-1.19-2.25-1.23-3.57c-0.02-0.98,0.18-1.94,0.18-2.93c0.01-2.29-0.15-4.56-0.4-6.81c-0.12-1.06,0.37-1.92,0.51-2.87
		c0.28-1.83-0.27-3.86,1.04-5.51C1.69,6.73,1.7,6.5,1.74,6.31C2.28,3.2,4.2,1.55,7.32,1.62c0.75,0.02,1.31-0.16,1.95-0.59
		C11-0.14,12.71-0.5,14.65,0.93c1.39,1.03,3.1,1.62,4.67,2.41c0.82,0.42,1.6,0.9,2.25,1.57c0.53,0.54,0.84,1.22,0.82,1.94
		c-0.23,6.99,0.01,13.99-0.08,20.98c-0.04,3.04-0.48,3.72-3.3,4.78c-0.83,0.31-1.19,0.75-1.19,1.72c0.06,15.95,0.08,31.9,0.11,47.85
		c0,3.04,0.04,6.08-0.03,9.11c-0.08,3.17-0.98,5.97-3.88,7.77c-2.61,1.62-6.44-0.37-6.41-3.52c0.08-10.15,0.03-20.31,0.03-30.46
		C7.59,65.08,7.55,65.08,7.51,65.08z"/>
	<path class="st1" d="M8.71,64.35c0-10.36-0.01-20.71,0.02-31.07c0-0.95-0.27-1.29-1.17-1.16c-0.59,0.09-1.1-0.04-1.5-0.52
		C5.6,31.04,5,30.68,4.36,30.34c-0.87-0.46-1.43-1.2-1.76-2.17c-0.37-1.11-1.27-2.04-1.18-3.3c0.06-0.85,0.25-1.66,0.24-2.56
		c-0.02-2.5-0.28-4.96-0.47-7.43C1.18,14.68,1.18,14.4,1.3,14.3c0.6-0.52,0.27-1.21,0.41-1.77c0.44-1.72-0.26-3.65,0.95-5.22
		C2.83,7.1,2.95,6.82,2.98,6.55c0.3-2.48,1.65-3.76,4.14-3.73c1.13,0.01,2.06-0.03,3.02-0.87c1.03-0.92,2.25-1.14,3.66-0.11
		c1.42,1.04,3.16,1.65,4.76,2.46c0.5,0.25,0.98,0.53,1.45,0.83c1.04,0.65,1.16,1.59,1.14,2.78c-0.08,6.64-0.04,13.27-0.05,19.91
		c0,0.48,0,0.96-0.06,1.44c-0.12,0.94-0.57,1.7-1.54,1.91c-0.93,0.2-1.64,0.91-2.61,0.97c-0.48,0.03-0.27,0.4-0.27,0.64
		c0.05,17.15,0.1,34.3,0.15,51.45c0.01,2.44,0,4.88-0.08,7.31c-0.08,2.67-0.88,4.98-3.3,6.51c-1.85,1.18-4.63-0.48-4.61-2.51
		c0.12-10.39,0.05-20.79,0.05-31.19C8.79,64.35,8.75,64.35,8.71,64.35z"/>
	<path class="st2" d="M9.91,4.28c1.12-2.01,1.66-2.18,3.74-1.14c1.54,0.77,3.06,1.56,4.61,2.3c1.16,0.56,1.73,1.24,1.7,2.72
		c-0.13,6.68-0.06,13.35-0.08,20.03c0,1.68-0.2,1.78-1.89,2.09c-1.63,0.3-2.69,0.53-2.54,3.16c0.27,4.7,0.1,9.43,0.1,14.15
		c0,14.48-0.01,28.95,0,43.43c0,1.51-0.27,2.95-1.03,4.26c-0.47,0.81-1.05,1.52-2.06,1.69c-1.66,0.28-2.39-0.3-2.4-1.97
		c-0.02-3.84-0.02-7.68-0.05-11.52c-0.02-2.16-0.16-4.31-0.11-6.47c0.25-11.15,0.1-22.31,0.11-33.46C10,39.8,9.9,36.04,9.86,32.29
		c0-0.37-0.03-0.72-0.24-1.03c-0.12-0.43-0.18-0.86-0.13-1.3C9.6,29.07,9.31,28.4,8.49,28c-0.41-0.36-0.64-0.8-0.66-1.34
		c-0.02-0.32-0.02-0.64-0.02-0.95c0-0.25,0-0.5,0-0.75c0-0.37,0.01-0.75,0-1.12c-0.01-0.19,0-0.38,0-0.56c0-0.19,0-0.38,0-0.57
		c-0.01-0.51-0.01-1.02,0-1.52c0-0.32-0.01-0.64,0-0.96c0-0.19,0-0.39,0-0.58c-0.02-0.27,0-0.53-0.01-0.8
		c-0.03-0.55-0.01-1.1-0.01-1.65c-0.03-1.29,0.03-2.58,0-3.87c0-0.21,0-0.43,0-0.64c-0.03-0.78,0.03-1.56,0.01-2.33
		c-0.04-0.89,0.02-1.78,0-2.67C7.8,7.34,7.77,7.02,7.68,6.71c-0.09-0.49-0.11-0.98,0.23-1.4C8.49,4.8,9.34,4.82,9.91,4.28z"/>
	<path class="st3" d="M8.07,22.79c0.01,0.17,0.02,0.34,0.03,0.5c-0.78,0.63-1.8,0.61-2.68,0.99c-0.58,0.25-1.23,0.38-1.6,0.97
		c-0.26,0.79,0.11,0.98,0.78,0.77c0.8-0.25,1.59-0.51,2.37-0.83c0.36-0.14,0.69-0.43,1.13-0.24c0,0.25,0,0.5,0,0.74
		c-0.81,0.59-1.77,0.84-2.66,1.26c-0.39,0.18-1.11,0.26-0.72,1.04c0.42,0.56,0.97,0.6,1.6,0.47c0.78-0.16,1.51-0.47,2.28-0.64
		c1.43,0.62,1.58,1.14,1.01,3.44c-0.45-0.27-1.07-0.33-1.42-0.51c-1.41-0.72-3.1-1.11-4.09-2.42c-0.49-0.65-0.5-1.65-1.17-2.33
		c-0.25-0.25-0.21-0.85,0.15-1.09c0.96-0.63,0.65-1.15,0.07-1.85c-0.34-0.4-0.53-1-0.1-1.54c0.1,0.06,0.18,0.15,0.23,0.25
		c0.07,0.16,0.12,0.32,0.16,0.49c0.69,1.19,0.83,1.22,2.16,0.86C6.41,22.91,7.18,22.33,8.07,22.79z"/>
	<path class="st4" d="M8.09,13.18c0,1.37,0,2.75-0.01,4.12c-1.43,0.65-2.99,0.73-4.49,1.08c-0.13-0.02-0.23-0.09-0.31-0.2
		c0.14-0.26,0.33-0.45,0.06-0.82c-1.1-1.5-1.05-1.93,0.21-3.22c0.1-0.08,0.2-0.07,0.3,0.01c0.02,0.08,0.04,0.16,0.01,0.23
		c-0.57,1.68-0.57,1.68,1.26,1.39c0.35-0.05,0.7-0.13,1.06-0.18c1.54-0.24,1.63-0.38,1.24-1.92c-0.03-0.12-0.07-0.23-0.07-0.35
		C7.53,12.97,7.79,12.97,8.09,13.18z"/>
	<path class="st3" d="M9.91,4.28C9.6,5.05,8.97,5.26,8.21,5.27c-0.65,0.4-1.37,0.3-2.08,0.36c-0.38,0.03-0.9,0.01-0.87,0.57
		c0.02,0.5,0.51,0.39,0.84,0.42c0.59,0.05,1.19-0.08,1.77,0.09c0.23,0.21,0.16,0.49,0.16,0.75c-0.08,0.1-0.17,0.17-0.29,0.22
		C7.12,7.86,6.47,8.02,5.8,7.97c-0.75-0.05-1.37,0.19-1.9,0.7C3.78,8.72,3.66,8.7,3.56,8.62C3.6,8.47,3.59,8.27,3.69,8.18
		c0.66-0.61,0.77-1.29,0.64-2.2C4.19,5.01,5.46,4.15,6.94,4.12C7.93,4.09,8.92,4.22,9.91,4.28z"/>
	<path class="st5" d="M7.78,7.5c0.08-0.02,0.17-0.04,0.25-0.06c0.21,0.95-0.01,1.91,0.04,2.87c-0.09,0.08-0.2,0.13-0.32,0.16
		c-1.02,0.29-2.06,0.5-3.1,0.68c-0.38,0.06-0.77,0.21-1.11-0.13c0.11-0.39,0.02-0.72-0.22-1.07C2.99,9.47,3.18,9.02,3.56,8.62
		c0.09,0,0.17,0,0.26,0.01C5.02,9.11,7.24,8.48,7.78,7.5z"/>
	<path class="st6" d="M3.54,11.02c1.49-0.1,2.88-0.75,4.39-0.72c0.15,1.65,0.07,1.83-1.46,2.12c-1.01,0.19-1.95,0.73-3.02,0.62
		c-0.55-0.56-0.38-1.17-0.11-1.78C3.41,11.19,3.48,11.11,3.54,11.02z"/>
	<path class="st7" d="M3.15,21.93c-0.03-0.13-0.06-0.26-0.09-0.39c0.43-0.45,0.61-0.79,0.05-1.4c-0.5-0.54-0.67-1.37,0.18-1.95
		c0.04,0.04,0.08,0.08,0.12,0.12c0.11,0.5-0.18,1.06,0.22,1.52c0.48,0.57,1.04,0.32,1.63,0.22c0.93-0.17,1.8-0.83,2.82-0.38
		c0.01,0.18,0.01,0.36,0.02,0.53c-0.67,0.57-1.55,0.6-2.34,0.84C4.87,21.3,4.01,21.62,3.15,21.93z"/>
	<path class="st8" d="M3.35,11.27c0.08,0.56-0.33,1.18,0.22,1.68c0.95,0.28,1.86,0.1,2.79-0.12c0.56-0.13,1.11-0.46,1.71-0.15
		c0.01,0.17,0.01,0.33,0.02,0.49c-0.26,0-0.51,0-0.7,0.22c-1.08,0.75-2.26,1.09-3.57,0.76c-0.09-0.01-0.18-0.01-0.27-0.02
		c0.05-0.38-0.1-0.65-0.33-0.96C2.73,12.55,2.7,11.87,3.35,11.27z"/>
	<path class="st9" d="M18.89,24.49c-0.35,0.92-0.23,1.84-0.03,2.77c0.08,0.38,0.23,0.86-0.1,1.12c-0.28,0.22-0.69-0.05-0.99-0.2
		c-1.7-0.82-3.39-1.67-5.08-2.52c0.01-2.87,0-5.74,0-8.61c0-0.28-0.01-0.56,0.01-0.84c0.02-0.31-0.08-0.71,0.29-0.84
		c0.38-0.13,0.54,0.26,0.7,0.52c0.98,1.55,1.95,3.1,2.91,4.65c0.67,1.08,1.5,2.06,2.11,3.18C18.84,23.98,19.08,24.18,18.89,24.49z"
		/>
	<path class="st10" d="M12.93,63.59c-0.04-0.34,0.06-0.64,0.22-0.93c0.05-0.03,0.09-0.06,0.14-0.09c0.69-0.07,0.97,0.71,1.59,0.78
		c0.36,0.74-0.07,1.46-0.07,2.2c0.04,8.99,0.02,17.99,0.04,26.98c0,1.18-0.36,2.17-1.21,2.99c-0.36-0.34-0.36-0.78-0.36-1.22
		c0.03-4.67-0.32-9.35-0.1-14.02c0.25-5.43-0.19-10.86-0.06-16.29C13.1,63.84,13.03,63.71,12.93,63.59z"/>
	<path class="st11" d="M12.68,95.75c-0.01,1.15-0.9,0.59-1.42,0.73c-0.36-0.38-0.37-0.86-0.37-1.35c0-10.68,0-21.36,0-32.03
		c0-0.28,0-0.56,0.09-0.83c0.76-0.96,1.04-0.05,1.45,0.37c0.01,0.16,0.02,0.31,0.02,0.47c0.2,0.42,0.1,0.87,0.1,1.3
		c0.01,10.02,0,20.04,0.01,30.05C12.57,94.89,12.46,95.34,12.68,95.75z"/>
	<path class="st12" d="M12.48,5.99c-0.1-2.88-0.1-2.88,2.42-1.58c1.17,0.6,2.35,1.2,3.53,1.78c0.41,0.2,0.8,0.4,0.72,0.96
		c-0.1,0.18-0.27,0.19-0.45,0.17c-1.84-0.92-3.59-2.03-5.57-2.83c1.7,3.53,3.77,6.84,5.69,10.23c0.18,0.29,0.25,0.61,0.31,0.94
		c0.38,1.44,0.19,2.92,0.25,4.38c0.02,0.54-0.15,0.59-0.48,0.17c-0.86-0.64-1.23-1.64-1.75-2.52c-1.4-2.35-2.78-4.72-4.07-7.13
		c-0.21-0.38-0.44-0.76-0.5-1.2C12.52,8.22,12.69,7.1,12.48,5.99z"/>
	<path class="st13" d="M8.82,16.11c0-3.08,0-6.15,0-9.23c0-0.28-0.04-0.57,0.02-0.84c0.12-0.5,0.6-0.68,1-0.72
		c0.59-0.06,0.39,0.5,0.39,0.79c0.03,6.23,0.05,12.47,0.07,18.7c0,0.37-0.07,0.7-0.22,1.04c-0.17,0.41-0.48,0.74-0.88,0.7
		c-0.6-0.07-0.34-0.63-0.35-0.97c-0.02-3.16-0.01-6.31-0.01-9.47C8.84,16.11,8.83,16.11,8.82,16.11z"/>
	<path class="st14" d="M10.73,60.53c-0.09-0.1-0.17-0.21-0.26-0.31c-0.12-0.43-0.06-0.87-0.06-1.31c0-9.47,0-18.93-0.01-28.4
		c0-0.43,0.08-0.88-0.08-1.3c0.09-0.26-0.09-0.73,0.37-0.71c0.31,0.02,0.29,0.4,0.3,0.67c0.01,0.27,0.02,0.54,0.03,0.81
		c0.43,0.46,0.34,1.04,0.34,1.58c0.02,2.11,0.07,4.22-0.02,6.32c-0.06,1.44,0.14,2.75,1.06,3.9c0.02,0.07,0.04,0.14,0.07,0.21
		c0.18,1.23,0.04,2.46,0.08,3.69c-0.6,0.51-0.83-0.24-1.23-0.41c0.04,2.23,0.07,4.42,0,6.62c-0.05,1.49,0.12,2.85,1.18,3.98
		c0.11,0.44,0.04,0.89,0.06,1.33c-0.57,0.54-0.76-0.24-1.17-0.26c-0.43,1.38,0.13,2.5,1.17,3.45c-0.05,0.5,0.14,1.03-0.14,1.51
		l0-0.03C11.5,61.89,11.2,61.1,10.73,60.53z"/>
	<path class="st15" d="M11.24,61.91c0.01,11.52,0.01,23.05,0.02,34.57c-0.37,0.01-0.57-0.25-0.77-0.5
		c-0.15-0.39-0.08-0.79-0.08-1.19c0-10.86,0-21.72,0-32.58c0-0.12-0.02-0.24,0-0.36c0.07-0.31-0.2-0.86,0.3-0.86
		C11.12,61,11.34,61.44,11.24,61.91z"/>
	<path class="st16" d="M12.69,9.62c1.06,1.11,1.55,2.57,2.32,3.85c1.33,2.22,2.59,4.48,3.87,6.73c-0.4,0.92-0.08,1.89-0.19,2.83
		c-0.71,0.01-0.88-0.62-1.17-1.05c-1.58-2.3-3.06-4.67-4.48-7.08c-0.21-0.35-0.36-0.71-0.36-1.13C12.7,12.39,12.68,11,12.69,9.62z"
		/>
	<path class="st10" d="M12.94,29.76c0-0.12-0.03-0.25,0-0.36c0.12-0.41-0.32-1.04,0.34-1.21c0.6-0.16,1.57,0.75,1.57,1.41
		c-0.01,4.87-0.02,9.74-0.04,14.61c-0.96-0.24-1.49-0.86-1.63-1.83c-0.01-3.66,0-7.32-0.01-10.98
		C13.17,30.84,13.21,30.28,12.94,29.76z"/>
	<path class="st17" d="M12.41,41.79c-1.14-0.67-1.49-1.63-1.44-2.97c0.11-2.94,0.05-5.89,0.05-8.84c1.42-0.55,1.43-0.55,1.42,0.92
		C12.44,34.53,12.42,38.16,12.41,41.79z"/>
	<path class="st18" d="M12.69,9.62c0.24,0.69,0.32,1.41,0.22,2.12c-0.28,1.91,0.49,3.49,1.51,4.98c1.44,2.09,2.59,4.38,4.27,6.3
		c0.23,0.45,0.47,0.9,0.68,1.37c0.05,0.11,0.09,0.36-0.13,0.37c-0.11,0.01-0.23-0.17-0.35-0.27c-2.05-2.89-3.95-5.87-5.79-8.96
		c-0.31,0.26-0.17,0.59-0.17,0.86c-0.01,2.68,0,5.35-0.01,8.03c0,0.42,0.16,0.89-0.23,1.24c-0.24-0.15-0.24-0.4-0.24-0.64
		c0.01-6.35,0.02-12.7,0.03-19.04C12.92,7.18,12.57,8.41,12.69,9.62z"/>
	<path class="st10" d="M14.86,47.99c-0.02,3.37-0.03,6.75-0.05,10.12c-0.98-0.22-1.49-0.85-1.64-1.81c0.01-2.98-0.05-5.97,0.03-8.95
		c0.11-0.45,0.38-0.42,0.72-0.25C14.32,47.31,14.56,47.68,14.86,47.99z"/>
	<path class="st19" d="M13.42,46.98c-0.01,3.23-0.02,6.47-0.03,9.7c-0.07,0.71,0.36,1.31,0.4,2c-0.08,0.74,0,1.5-0.15,2.24
		c-0.23,0.53-0.01,1.18-0.44,1.65c0,0-0.04,0.08-0.04,0.08c-0.32-0.28-0.22-0.66-0.22-1.01c0-10.63,0-21.26,0-31.88
		c0.45,0.37,0.47,0.88,0.47,1.41c-0.01,3.86-0.01,7.72-0.02,11.58C13.52,44.16,13.61,45.57,13.42,46.98z"/>
	<path class="st20" d="M11.16,26.04c-0.54-0.36-0.32-0.85-0.32-1.25c-0.02-6.47-0.01-12.94-0.02-19.41c0-0.52,0.23-1.01,0.07-1.54
		c-0.14-0.44,0.22-0.59,0.52-0.63c0.48-0.06,0.32,0.36,0.32,0.59c0.02,0.96,0.16,1.95-0.01,2.87c-1.01,5.49-0.13,11.02-0.41,16.52
		C11.26,24.12,11.83,25.1,11.16,26.04z"/>
	<path class="st21" d="M13.16,63.59c0.22,0.16,0.25,0.39,0.25,0.64c0,0.36-0.01,0.72,0,1.08c0.1,2.98-0.12,5.97,0.19,8.96
		c0.31,3.02-0.19,6.04-0.21,9.07c-0.02,4.07,0.4,8.12,0.25,12.18c-0.14,0.24-0.27,0.49-0.71,0.56c0-2.6,0-5.17,0-7.75
		c0.21-0.42,0.1-0.86,0.1-1.3c0.01-7.38,0-14.76,0.01-22.14C13.06,64.45,12.95,64.01,13.16,63.59z"/>
	<path class="st22" d="M11.24,61.91c-0.17-0.27-0.34-0.53-0.51-0.8c-0.08,0.01-0.16,0.02-0.24,0.03c0,11.61,0,23.22,0,34.84
		c-0.35-0.37-0.2-0.84-0.2-1.26c-0.01-10.94-0.01-21.87-0.01-32.81c0-0.51-0.09-1.05,0.45-1.39c0.71,0.27,1.07,0.98,1.69,1.35
		c0,0.25,0.01,0.51,0.01,0.77C12.04,62.4,11.64,62.15,11.24,61.91z"/>
	<path class="st23" d="M3.32,19.88c-0.34-0.54-0.29-1.07,0.08-1.58c1.5-0.6,3.07-0.9,4.68-1.01c0,0.54,0,1.08,0.01,1.62
		C6.62,19.83,4.99,19.96,3.32,19.88z"/>
	<path class="st7" d="M8.07,22.79c-0.86,0.12-1.68,0.38-2.5,0.66c-1.48,0.51-1.89,0.28-2.42-1.25c1.57-0.71,3.16-1.32,4.94-1.12
		C8.16,21.65,8.21,22.22,8.07,22.79z"/>
	<path class="st22" d="M12.68,95.75c-0.32-0.28-0.23-0.66-0.23-1.01c0-10.54,0-21.09,0-31.63c0.35,0.32,0.22,0.75,0.22,1.13
		C12.69,74.75,12.68,85.25,12.68,95.75z"/>
	<path class="st22" d="M10.32,29.2c0.25,0.49,0.14,1.02,0.14,1.53c0.01,9.83,0.01,19.66,0.01,29.48c-0.19-0.19-0.19-0.43-0.19-0.67
		C10.3,49.43,10.31,39.32,10.32,29.2z"/>
	<path class="st24" d="M13.42,46.98c-0.45-1.41-0.43-2.82-0.03-4.23c0.38,0.57,0.89,1.02,1.41,1.45c0.02,1.26,0.04,2.53,0.06,3.79
		C14.17,47.96,13.97,47.22,13.42,46.98z"/>
	<path class="st25" d="M11.79,27.13c0.32-0.66,0.66-0.83,1.23-0.58c1.71,0.76,3.44,1.48,5.16,2.24c0.33,0.15,0.9,0.25,0.67,0.8
		c-0.3,0.7-0.71,0.13-1.07-0.02C15.79,28.73,13.93,27.63,11.79,27.13z"/>
	<path class="st7" d="M8.11,24.95c-1.1,0.67-2.37,0.92-3.53,1.42c-0.35,0.15-0.66,0.31-0.96-0.06c-0.31-0.38-0.47-0.75-0.02-1.13
		c1.41-0.78,2.88-1.35,4.52-1.43C8.12,24.15,8.11,24.55,8.11,24.95z"/>
	<path class="st22" d="M13.16,63.59c0,7.79,0,15.57-0.01,23.36c0,0.46,0.16,0.97-0.21,1.38c0-8.25-0.01-16.49-0.01-24.74
		C13.01,63.59,13.09,63.59,13.16,63.59z"/>
	<path class="st3" d="M8.61,27.82c-0.86,0.89-2.04,0.9-3.13,1.02C5.1,28.88,4.54,28.61,4.51,28c0.94-1.15,2.22-1.44,3.62-1.38
		C8.15,27.07,8.33,27.47,8.61,27.82z"/>
	<path class="st26" d="M7.88,6.69C7.13,7.07,6.32,6.82,5.55,6.94C5.09,7,4.76,6.86,4.76,6.32c0-0.51,0.05-1,0.71-1.02
		C6.38,5.27,7.3,5.28,8.21,5.27C7.87,5.69,7.88,6.19,7.88,6.69z"/>
	<path class="st22" d="M12.42,45.79c0.02-1.26,0.04-2.53,0.06-3.79c0.3,0.29,0.2,0.67,0.2,1.02c0.01,5.93,0.01,11.86,0,17.79
		c0,0.38,0.15,0.81-0.26,1.1c-0.01-0.54-0.01-1.08-0.02-1.62c-0.45-0.99-0.54-1.98,0.02-2.97c0-0.46,0.01-0.93,0.01-1.39
		c-0.25-0.46-0.37-0.96-0.37-1.49c0-2.43-0.01-4.86,0.01-7.3C12.07,46.66,12.05,46.17,12.42,45.79z"/>
	<path class="st27" d="M8.07,12.69c-0.85,0.23-1.68,0.51-2.54,0.67c-0.68,0.13-1.44,0.36-1.96-0.41c0.94-0.44,1.93-0.72,2.95-0.84
		c1.15-0.14,1.6-0.69,1.42-1.8c0.05,0,0.09,0,0.14,0C8.07,11.1,8.07,11.89,8.07,12.69z"/>
	<path class="st28" d="M8.1,21.08c-1.66,0.3-3.25,0.94-4.94,1.12c0-0.09,0-0.18,0-0.27c0.24-0.64,0.85-0.67,1.37-0.81
		c1.18-0.32,2.33-0.78,3.56-0.92C8.09,20.49,8.09,20.79,8.1,21.08z"/>
	<path class="st29" d="M18.69,7.16c0.15,0,0.3-0.01,0.45-0.01c0.12,2.29-0.2,4.6,0.23,6.89c0.1,0.55,0.09,1.12-0.26,1.61
		c-0.25-0.19-0.41-0.44-0.44-0.76c-0.69-2.39-0.33-4.81-0.27-7.23C18.41,7.46,18.54,7.29,18.69,7.16z"/>
	<path class="st30" d="M13.4,60.98c0.14-0.81-0.24-1.67,0.26-2.44c0.72-0.11,0.86,0.52,1.18,0.93c-0.01,0.91-0.02,1.82-0.03,2.73
		C14.02,62.15,13.49,61.82,13.4,60.98z"/>
	<path class="st31" d="M3.32,19.88c1.59-0.32,3.18-0.64,4.76-0.97c-0.01,0.25-0.01,0.5-0.02,0.74c-1.03,0.25-2.08,0.44-3.08,0.78
		C4.23,20.7,3.69,20.64,3.32,19.88z"/>
	<path class="st32" d="M8.13,26.62c-1.24,0.38-2.5,0.69-3.62,1.38c-0.66-0.39-0.34-0.66,0.12-0.9C5.74,26.5,6.88,26,8.11,25.7
		C8.12,26,8.13,26.31,8.13,26.62z"/>
	<path class="st33" d="M8.12,23.75c-1.47,0.6-2.97,1.08-4.52,1.43c0.15-0.64,0.7-0.78,1.21-0.96c1.08-0.38,2.16-0.76,3.3-0.92
		C8.11,23.44,8.12,23.6,8.12,23.75z"/>
	<path class="st34" d="M13.4,60.98c0.34,0.55,0.88,0.87,1.4,1.23c0.03,0.38,0.06,0.75,0.09,1.13c-0.07,0.2-0.09,0.51-0.43,0.23
		c-0.42-0.34-0.84-0.67-1.26-1C13.22,62.04,12.93,61.46,13.4,60.98z"/>
	<path class="st14" d="M14.83,59.48c-0.39-0.31-0.78-0.62-1.18-0.93c-0.45-0.57-0.82-1.15-0.26-1.86c0.38,0.57,0.9,1.01,1.42,1.44
		C14.82,58.57,14.82,59.02,14.83,59.48z"/>
	<path class="st35" d="M11.31,27.42c-0.82,0.68-1.6,0.87-2.34-0.14C10.44,26.59,10.44,26.59,11.31,27.42z"/>
	<path class="st0" d="M3.82,14.16c1.19-0.25,2.38-0.51,3.57-0.76c1.07,0.42,0.44,1.3,0.48,1.96c0.04,0.65-0.63,0.42-1.02,0.48
		C5.91,16,4.97,16.17,4.02,16.27c-0.3,0.03-0.71,0.38-0.94-0.11c-0.18-0.38-0.17-0.76,0.13-1.11C3.43,14.77,3.61,14.46,3.82,14.16z"
		/>
	<path class="st36" d="M7.78,7.5c0.3,0.72,0.1,1.06-0.72,1.17C6.13,8.79,5.22,9.07,4.31,9.29C3.65,9.44,3.5,9.21,3.81,8.63
		c0.25-0.74,0.75-1.07,1.53-0.94C6.17,7.83,6.97,7.49,7.78,7.5z"/>
	<path class="st37" d="M18.69,7.16c-0.01,2.58-0.01,5.15-0.02,7.73c-1.93-3.25-3.86-6.5-5.79-9.75c-0.21-0.36-0.36-0.82-0.07-1.11
		c0.31-0.3,0.67,0.09,0.94,0.26C15.39,5.28,17.17,5.99,18.69,7.16z"/>
	<path class="st17" d="M12.42,45.79c0,3.38,0.01,6.76,0.01,10.14c-1.11-0.71-1.49-1.67-1.44-3.02c0.11-2.76,0.03-5.53,0.03-8.41
		C11.66,44.91,11.85,45.56,12.42,45.79z"/>
	<path class="st38" d="M12.42,57.32c-0.01,0.99-0.01,1.98-0.02,2.97c-2.19-0.72-1.09-2.53-1.43-3.97
		C11.72,56.46,11.9,57.13,12.42,57.32z"/>
</g>
</svg>
