<?xml version="1.0" encoding="utf-8"?>
<!-- Generator: Adobe Illustrator 23.0.2, SVG Export Plug-In . SVG Version: 6.00 Build 0)  -->
<svg version="1.1" id="Camada_1" xmlns="http://www.w3.org/2000/svg" xmlns:xlink="http://www.w3.org/1999/xlink" x="0px" y="0px"
	 viewBox="0 0 23.08 100.12" style="enable-background:new 0 0 23.08 100.12;" xml:space="preserve">
<style type="text/css">
	.st0{fill:#010101;}
	.st1{fill:#9A2525;}
	.st2{fill:#A4BFBE;}
	.st3{fill:#9C2625;}
	.st4{fill:#A4BEBC;}
	.st5{fill:#A5BFBE;}
	.st6{fill:#5B8988;}
	.st7{fill:#A7C0BF;}
	.st8{fill:#F8F9F9;}
	.st9{fill:#618E8E;}
	.st10{fill:#5F8D8D;}
	.st11{fill:#A43A3A;}
	.st12{fill:#CB4545;}
	.st13{fill:#C94243;}
	.st14{fill:#E59177;}
	.st15{fill:#E69077;}
	.st16{fill:#E49076;}
	.st17{fill:#AB3B3B;}
	.st18{fill:#CC4847;}
	.st19{fill:#C84343;}
	.st20{fill:#CC4545;}
	.st21{fill:#EC9A7E;}
	.st22{fill:#E18C73;}
	.st23{fill:#F3A988;}
	.st24{fill:#FBFBFB;}
	.st25{fill:#BF3F3F;}
	.st26{fill:#E59076;}
	.st27{fill:#CD4646;}
	.st28{fill:#911E1E;}
	.st29{fill:#DD7C69;}
	.st30{fill:#AAC1C0;}
	.st31{fill:#CC4646;}
	.st32{fill:#A63939;}
	.st33{fill:#ACC4C3;}
	.st34{fill:#F7F9F9;}
	.st35{fill:#EA9A7D;}
	.st36{fill:#A4393A;}
	.st37{fill:#F0F4F4;}
	.st38{fill:#A63A3A;}
	.st39{fill:#E48C74;}
	.st40{fill:#E38E75;}
	.st41{fill:#A53838;}
	.st42{fill:#CA4343;}
	.st43{fill:#D66F60;}
	.st44{fill:#F9FBFB;}
	.st45{fill:#A4BFBD;}
	.st46{fill:#FCFCFC;}
	.st47{fill:#FAFBFB;}
	.st48{fill:#CB4444;}
</style>
<g>
	<path class="st0" d="M9.24,64.71c0-10.36-0.01-20.71,0.02-31.07c0-0.95-0.17-1.43-1.2-1.24c-0.66,0.12-1.17-0.13-1.58-0.63
		c-0.41-0.5-0.95-0.81-1.52-1.11c-0.9-0.48-1.52-1.23-1.84-2.25c-0.34-1.08-1.16-1.95-1.2-3.18c-0.03-0.77,0.42-1.36,0.35-2.21
		c-0.11-1.4-0.26-2.83-0.22-4.27c0.03-1.13-0.18-2.26-0.31-3.39c-0.04-0.33-0.1-0.7,0.16-0.9c0.6-0.46,0.2-1.08,0.33-1.56
		c0.47-1.72-0.26-3.64,0.91-5.23C3.34,7.42,3.48,7.1,3.51,6.8C3.77,4.44,5.06,3.13,7.45,3.1c1.24-0.01,2.31-0.02,3.36-0.96
		c1.02-0.91,2.21-0.97,3.56-0.02c1.51,1.06,3.3,1.72,4.98,2.54c1.58,0.77,2.42,1.77,2.37,3.78c-0.17,6.55-0.06,13.11-0.07,19.67
		c0,2.59-0.22,2.89-2.65,3.66c-0.55,0.17-0.88,0.78-1.6,0.66c-0.42-0.07-0.23,0.41-0.23,0.64c0.03,16.59,0.07,33.18,0.1,49.78
		c0.01,2.96,0.03,5.92-0.03,8.87c-0.06,2.61-0.78,4.93-3.13,6.49c-0.98,0.65-2.01,0.7-2.95,0.26c-1.1-0.51-1.82-1.35-1.81-2.81
		c0.06-10.32,0.03-20.63,0.03-30.95C9.32,64.71,9.28,64.71,9.24,64.71z"/>
	<path class="st1" d="M10.6,4.62c0.17-0.94,0.44-1.79,1.66-1.7c0.08,0.33-0.08,0.56-0.29,0.78c-0.56,1.26-0.3,2.6-0.31,3.9
		c-0.03,6.07-0.06,12.13,0.01,18.19c0.5,0.76,1.14-0.03,1.69,0.15c1.58,0.22,2.74,1.38,4.21,1.86c0.56,0.19,1.07,0.5,1.66,0.64
		c0.51-0.04,0.37-0.45,0.38-0.73c0.04-0.84,0.02-1.67-0.01-2.51c0.01-0.44-0.19-0.87-0.13-1.31c0.22-1.01,0.07-2.04,0.13-3.06
		c0.02-1.64-0.05-3.28-0.19-4.91c0.38-0.91-0.03-1.81-0.04-2.71c-0.03-1.83,0.05-3.67-0.06-5.5c0.17-0.69-0.34-0.89-0.81-1.13
		c-1.77-0.9-3.6-1.69-5.27-2.78C13,3.54,12.67,3.27,13.21,2.97c1.93,0.95,3.86,1.91,5.8,2.85c1.05,0.51,1.49,1.19,1.47,2.5
		c-0.11,6.8-0.09,13.59-0.05,20.39c0.01,1.25-0.58,1.69-1.69,1.84c-2.1,0.28-2.9,0.77-2.77,3.18c0.25,4.79,0.1,9.59,0.1,14.39
		c0,14.39,0,28.79,0,43.18c0,1.51-0.28,2.95-1.04,4.26c-0.47,0.81-1.05,1.52-2.06,1.68c-1.66,0.27-2.38-0.31-2.39-1.97
		c-0.02-3.84-0.02-7.68-0.05-11.52c-0.02-2.08-0.16-4.15-0.11-6.23c0.24-11.23,0.1-22.46,0.11-33.7c0-3.76-0.09-7.51-0.13-11.27
		c0-0.37-0.03-0.72-0.24-1.03c-0.12-0.43-0.18-0.86-0.13-1.3c0.1-0.89-0.19-1.56-1.01-1.96c-0.41-0.36-0.64-0.8-0.66-1.34
		c-0.02-0.32-0.02-0.64-0.02-0.95c0-0.25,0-0.5,0-0.75c0-0.37,0.01-0.75,0-1.12c-0.01-0.19,0-0.38,0-0.56c0-0.19,0-0.38,0-0.57
		c-0.01-0.51-0.01-1.01,0-1.52c0-0.32-0.01-0.64,0-0.95c0-0.19,0-0.38,0-0.58c-0.02-0.26,0-0.52,0-0.78
		c-0.01-0.53-0.02-1.06-0.01-1.59c0-0.27,0-0.55,0-0.82c0-1.05,0.01-2.11,0-3.16c0-0.21,0-0.42,0-0.63c-0.02-0.84,0.03-1.67,0-2.51
		C8.3,10.16,8.34,9.88,8.32,9.61C8.3,8.6,8.43,7.59,8.22,6.58C8.18,6.22,8.2,5.88,8.55,5.66c0.37-0.13,0.7-0.12,0.93,0.26
		C9.51,6.06,9.52,6.21,9.5,6.35c-0.04,6.59-0.01,13.19-0.01,19.78c0,0.39-0.07,0.81,0.22,1.15c0.52,0.18,0.97,0.65,1.68,0.46
		c-0.41-0.6-1.11-0.2-1.51-0.58c-0.12-0.19-0.07-0.37,0-0.56c0.5-0.78,0.58-1.63,0.58-2.53c-0.01-5.99-0.01-11.99-0.01-17.98
		c0.03-0.33-0.14-0.61-0.22-0.91C10.19,4.88,10.34,4.72,10.6,4.62z"/>
	<path class="st2" d="M8.61,23.06c0.01,0.17,0.02,0.34,0.03,0.5c-0.78,0.62-1.8,0.61-2.68,0.99c-0.58,0.25-1.23,0.38-1.6,0.97
		c-0.26,0.79,0.11,0.98,0.78,0.77c0.8-0.25,1.59-0.51,2.37-0.83c0.36-0.14,0.69-0.43,1.13-0.24c0,0.25,0,0.5,0,0.74
		c-0.81,0.58-1.78,0.84-2.67,1.26c-0.39,0.18-1.11,0.26-0.72,1.04c0.42,0.56,0.97,0.6,1.6,0.47c0.78-0.16,1.51-0.47,2.28-0.64
		c1.42,0.62,1.58,1.14,1.01,3.44c-0.45-0.28-1.08-0.32-1.42-0.51c-1.4-0.74-3.13-1.09-4.09-2.42c-0.48-0.67-0.52-1.65-1.17-2.33
		c-0.25-0.26-0.2-0.85,0.16-1.08c1-0.63,0.65-1.2,0.03-1.83C3.54,23.22,3.5,23,3.42,22.82c0.3-0.23,0.54-0.05,0.71,0.16
		c0.6,0.78,1.32,0.62,2.12,0.37C7.01,23.13,7.76,22.6,8.61,23.06z"/>
	<path class="st3" d="M12.02,3.35c0.08-0.14,0.16-0.28,0.23-0.42c0.32-0.08,0.64-0.09,0.95,0.04c-0.17,0.21-0.14,0.41,0.02,0.61
		c-0.05,0.13-0.12,0.25-0.21,0.35c-0.21,0.32-0.17,0.69-0.17,1.05c0,6.35,0,12.69,0,19.04c0,0.36-0.02,0.72,0.12,1.06
		c0.15,0.22,0.27,0.46,0.34,0.72c0.03,0.13,0.01,0.26-0.06,0.37c-0.58-0.02-1.09,0.52-1.7,0.21c0.26-1.03-0.01-2.06-0.01-3.1
		c0.01-4.83-0.11-9.66,0.07-14.49C11.67,6.99,11.82,5.16,12.02,3.35z"/>
	<path class="st4" d="M10.6,4.62C10.5,4.75,10.4,4.87,10.3,5c-0.1,0.2-0.28,0.23-0.47,0.23C8.53,5.15,7.2,4.87,6.01,5.71
		C5.68,5.96,5.4,6.27,5.61,6.7c0.2,0.41,0.62,0.21,0.95,0.22c0.67,0.03,1.33,0.03,1.9-0.41C8.75,7.55,8.66,8.6,8.61,9.64
		c-1.09,1.02-2.5,1.02-3.83,1.07c-0.57,0.02-1.24-0.52-0.83-1.4c1.32-0.18,2.64-0.39,4.1-0.92C6.93,8.07,5.92,8.52,5.05,8
		c-0.07-0.11-0.07-0.21,0-0.32C4.58,5.31,5.45,4.33,8,4.38C8.87,4.4,9.73,4.54,10.6,4.62z"/>
	<path class="st5" d="M8.61,23.06c-0.86,0.12-1.7,0.33-2.5,0.67c-0.92,0.4-1.68,0.35-2.21-0.6c-0.11-0.19-0.26-0.28-0.47-0.31
		c0-0.09-0.01-0.17-0.01-0.26c1.65-0.78,3.34-1.4,5.22-1.21C8.7,21.93,8.75,22.5,8.61,23.06z"/>
	<path class="st6" d="M5.05,7.68c0.01,0.08,0.01,0.16-0.01,0.24C4.87,8.5,4.55,8.99,4.07,9.37c-0.21,0.85,0.34,1.23,1,1.13
		c1.2-0.18,2.37-0.56,3.55-0.85c0,0.23,0,0.46,0,0.68c-0.05,0.18-0.13,0.34-0.3,0.43c-0.98,0.3-2,0.43-3,0.65
		c-0.7,0.15-1.17,0.47-1.08,1.28c0.28,1.05,1.1,0.65,1.75,0.63c0.88-0.03,1.69-0.68,2.63-0.35c0.01,0.16,0.01,0.33,0.02,0.49
		c-0.21,0.24-0.48,0.38-0.77,0.49c-1.13,0.33-2.26,0.72-3.47,0.69c-0.13-0.04-0.23-0.11-0.31-0.21c-0.02-0.27,0.08-0.55-0.17-0.78
		c-0.14-0.13-0.24-0.31-0.34-0.48c-0.18-0.29-0.28-0.68-0.1-0.91c1.05-1.31-0.52-3.24,1.05-4.4C4.66,7.75,4.87,7.74,5.05,7.68z"/>
	<path class="st7" d="M7.92,13.67c0.19-0.22,0.45-0.22,0.7-0.22c0,1.12,0,2.23,0,3.35c-1.52,0.74-3.03,1.54-4.8,0.76
		c-1.05-1.15-0.99-1.88,0.26-3.15c0.09,0.01,0.18,0.01,0.27,0.02c0.03,0.08,0.06,0.16,0.03,0.23c-0.61,1.65-0.61,1.65,1.2,1.4
		c0.24-0.03,0.47-0.04,0.71-0.08C8.28,15.7,8.34,15.63,7.92,13.67z"/>
	<path class="st8" d="M8.63,21.36c-1.74,0.4-3.48,0.81-5.22,1.21C3.24,22.19,3.73,22,3.67,21.65c1.2-0.71,2.56-0.95,3.87-1.32
		c0.37-0.11,0.77-0.23,1.11,0.1C8.64,20.74,8.64,21.05,8.63,21.36z"/>
	<path class="st9" d="M3.83,17.56c1.37,0.34,2.59-0.36,3.89-0.55c0.31-0.05,0.61-0.14,0.91-0.22c0.01,0.24,0.01,0.48,0.02,0.71
		c-0.86,0.45-1.82,0.58-2.75,0.69c-1.17,0.14-1.92,0.61-2.21,1.76c-0.11,0.08-0.22,0.08-0.33-0.01c-0.32-0.56-0.16-1.06,0.24-1.49
		C3.86,18.19,4.06,17.95,3.83,17.56z"/>
	<path class="st10" d="M3.35,19.96c0.08,0,0.17-0.01,0.25-0.01c0.19,0,0.34,0.08,0.49,0.18c0.54,0.5,1.14,0.39,1.79,0.24
		c0.91-0.21,1.77-0.77,2.76-0.43c0,0.17,0,0.33,0,0.5c-1.66,0.4-3.32,0.81-4.98,1.21C4.48,20.92,3.27,20.56,3.35,19.96z"/>
	<path class="st11" d="M15.42,63.62c0.36,0.74-0.07,1.46-0.07,2.2c0.04,8.99,0.02,17.99,0.04,26.98c0,1.18-0.36,2.17-1.2,2.99
		c-0.5-0.49-0.37-1.12-0.36-1.7c0.14-7.47,0.15-14.95,0.09-22.42c-0.02-2.45-0.08-4.9-0.14-7.35c-0.09-0.15-0.29,0.05-0.15-0.03
		c0.05-0.03,0.06,0.01,0.1,0.06c0.16,0.17,0.08,0.38,0.08,0.56c0.16,7.39,0.13,14.79,0.11,22.18c0,0.45,0.3,1.1-0.48,1.28
		c-0.15-0.3-0.09-0.63-0.09-0.94c0-7.62,0-15.24,0-22.86c0-0.31-0.07-0.64,0.11-0.94c0.08-0.25,0.17-0.49,0.25-0.74
		C14.5,62.62,14.76,63.6,15.42,63.62z"/>
	<path class="st12" d="M13.25,26.17c-0.01-0.08-0.02-0.15-0.03-0.23c-0.19-3.08-0.06-6.15-0.09-9.23c0-0.32,0.01-0.64,0.18-0.93
		c0.25-0.32,0.49-0.2,0.66,0.07c1.81,2.91,3.71,5.76,5.55,8.65c0.09,0.14,0.08,0.31,0.06,0.47c-0.03,0.87,0,1.75-0.02,2.62
		c-0.01,0.43,0,0.88-0.35,1.22c-1.58-0.65-3.15-1.33-4.64-2.18C14.17,26.41,13.76,26.14,13.25,26.17z"/>
	<path class="st13" d="M11.79,62.17c1.01,0.25,1.21,0.97,1.21,1.9c-0.02,9.06-0.02,18.13,0,27.19c0,1.35,0.09,2.7,0.23,4.05
		c0.12,1.14-0.26,1.65-1.43,1.44c-0.4-0.42-0.38-0.95-0.38-1.47c0-10.55,0-21.1,0-31.65C11.43,63.12,11.36,62.58,11.79,62.17z"/>
	<path class="st14" d="M19.65,15.92c0.4,1.62,0.17,3.27,0.25,4.91c-0.38,0.2-0.52-0.12-0.71-0.33c-2.04-3.34-3.98-6.74-5.87-10.17
		c-0.55-0.73-0.4-1.58-0.43-2.4c-0.01-0.47,0.02-0.95-0.12-1.41C12.75,6,12.7,5.49,12.81,4.99c0.6-0.48,0.73,0.15,0.92,0.44
		c1.02,1.56,1.94,3.18,2.86,4.8c0.9,1.59,1.85,3.14,2.74,4.73C19.52,15.25,19.59,15.59,19.65,15.92z"/>
	<path class="st15" d="M10.81,5.61c0.01,6.39,0.01,12.77,0.03,19.16c0,0.89-0.13,1.67-0.98,2.14c-0.26,0.13-0.48,0.09-0.57-0.2
		C9.23,26.49,9.27,26.24,9.27,26c0-6.39,0-12.77,0-19.16c0-0.27-0.06-0.56,0.11-0.82l0,0C9.72,5.42,10.17,5.18,10.81,5.61z"/>
	<path class="st16" d="M11.79,62.17c0,9.81,0,19.62,0,29.44c0,1.72,0.01,3.43,0.01,5.15c-0.94-0.15-0.77-0.87-0.77-1.49
		c-0.01-9.86-0.01-19.72-0.01-29.57c0-1.4,0-2.79,0-4.31C11.43,61.57,11.71,61.77,11.79,62.17z"/>
	<path class="st11" d="M13.47,30.03c0-0.12-0.03-0.25,0-0.36c0.12-0.41-0.32-1.04,0.34-1.21c0.61-0.16,1.57,0.75,1.57,1.41
		c-0.01,4.87-0.02,9.74-0.04,14.61c-0.97-0.23-1.49-0.86-1.63-1.83c-0.01-3.66,0-7.32-0.01-10.98
		C13.7,31.11,13.75,30.55,13.47,30.03z"/>
	<path class="st17" d="M13.64,62.68c-0.26-0.31-0.17-0.68-0.17-1.03c0-4.94,0-9.88,0.01-14.83c0.09-0.08,0.18-0.1,0.29-0.07
		c0.63,0.41,1.11,0.98,1.63,1.53c-0.02,3.37-0.03,6.74-0.05,10.11c-0.6,0.07-0.8-0.56-1.28-0.73c-0.18,0.48,0.21,0.8,0.28,1.2
		c0.15,0.82,0.26,1.64,0,2.47C13.86,61.64,14.13,62.36,13.64,62.68z"/>
	<path class="st18" d="M12.98,30.03c-0.01,4.01-0.03,8.02-0.04,12.03c-1.34-0.36-1.66-0.78-1.65-2.05c0.03-2.95-0.01-5.9-0.02-8.84
		c0-0.28-0.03-0.56,0.1-0.82C11.83,29.79,12.34,29.61,12.98,30.03z"/>
	<path class="st19" d="M13.48,88.35c0.37-0.41,0.21-0.92,0.21-1.38c0.01-7.19,0-14.39,0.01-21.58c0-0.43-0.11-0.87,0.15-1.4
		c0.53,10.67,0.25,21.24,0.34,31.8c-0.13,0.25-0.29,0.46-0.74,0.63c0-2.43,0-4.78,0-7.13C13.31,88.97,13.26,88.66,13.48,88.35z"/>
	<path class="st20" d="M12.96,46.08c0,3.37,0.01,6.74,0.01,10.11c-0.93-0.06-1.33-0.72-1.65-1.47c-0.05-1.11-0.01-2.23-0.02-3.34
		c0.06-1.82-0.14-3.64-0.05-5.47c0.02-0.46-0.16-1.09,0.41-1.22c0.51-0.12,0.77,0.44,1.01,0.85C12.78,45.72,12.86,45.91,12.96,46.08
		z"/>
	<path class="st21" d="M12.02,3.35c0.25,1.41,0.7,2.82-0.19,4.19c-0.11,0.17-0.02,0.47-0.02,0.71c0.01,5.11,0.04,10.21,0.01,15.32
		c-0.01,0.93,0.68,1.97-0.28,2.81c-0.25-0.26-0.18-0.59-0.18-0.91c-0.01-6.94-0.03-13.88-0.04-20.83
		C11.33,4.11,11.21,3.47,12.02,3.35z"/>
	<path class="st22" d="M12.96,46.08c-0.57-0.24-0.77-0.88-1.43-1.35c0,2.32,0,4.49,0,6.66c-0.54-0.05-0.33-0.47-0.33-0.74
		c-0.04-2.15-0.12-4.29-0.14-6.44c-0.02-3.23,0.2-6.45,0.12-9.68c-0.04-1.62-0.12-3.24,0.01-4.87c0.11-0.16,0.26-0.21,0.38-0.06
		c0.16,0.21,0.13,0.44-0.02,0.66c0,2.94,0.07,5.89-0.03,8.83c-0.05,1.33,0.29,2.29,1.43,2.96C12.95,43.4,12.96,44.74,12.96,46.08z"
		/>
	<path class="st23" d="M11.31,29.53c0,6.95,0,13.89,0,20.84c0,0.35-0.1,0.73,0.22,1.01c0.01,1.2,0.03,2.39,0.04,3.59
		c0.07,0.62,0.03,1.26,0.23,1.87c0.07,0.9,0.25,1.8-0.17,2.66c-0.18,0.17-0.37,0.19-0.57,0.03c-0.01-3.29-0.04-6.59-0.04-9.88
		c0-1.17-0.46-2.35,0.02-3.52c-0.16-2.03-0.15-4.05,0-6.08c-0.02-2.93-0.19-5.87,0-8.8c-0.17-0.8-0.1-1.6-0.04-2.4
		C11.67,28.82,11.46,29.19,11.31,29.53z"/>
	<path class="st24" d="M3.86,20.2c-0.08-0.08-0.17-0.17-0.25-0.25c-0.14-1.19,0.43-1.75,1.57-1.88c1.16-0.14,2.26-0.67,3.46-0.55
		c-0.01,0.56-0.01,1.12-0.02,1.68C7.17,20.15,5.51,20.18,3.86,20.2z"/>
	<path class="st25" d="M13.65,46.83c-0.06,0-0.12-0.01-0.18-0.01c0-5.6,0-11.19,0-16.79c0.45,0.37,0.48,0.88,0.48,1.41
		c-0.01,3.86-0.01,7.72-0.01,11.58C13.95,44.3,14.45,45.61,13.65,46.83z"/>
	<path class="st26" d="M13.65,46.83c0.19-1.26-0.3-2.58,0.28-3.81c0.38,0.57,0.89,1.02,1.41,1.46c0.02,1.27,0.03,2.53,0.05,3.8
		C14.59,48.06,14.21,47.34,13.65,46.83z"/>
	<path class="st5" d="M8.65,25.23c-1.1,0.67-2.37,0.92-3.53,1.42c-0.35,0.15-0.66,0.31-0.96-0.06c-0.31-0.38-0.47-0.75-0.02-1.14
		c1.41-0.78,2.88-1.35,4.52-1.43C8.65,24.42,8.65,24.82,8.65,25.23z"/>
	<path class="st27" d="M12.33,27.41c0.3-0.66,0.64-0.84,1.2-0.59c1.7,0.75,3.43,1.47,5.13,2.23c0.37,0.17,0.94,0.4,0.63,0.93
		c-0.31,0.54-0.68-0.02-1-0.15C16.32,29,14.47,27.91,12.33,27.41z"/>
	<path class="st28" d="M13.48,88.35c-0.01,0.31-0.02,0.63-0.03,0.94c-0.35-0.32-0.22-0.75-0.22-1.13c-0.01-7.81-0.01-15.61,0-23.42
		c0-0.38-0.13-0.81,0.23-1.12C13.47,71.87,13.47,80.11,13.48,88.35z"/>
	<path class="st29" d="M19.45,24.75c-1.96-2.69-3.7-5.53-5.46-8.35c-0.14-0.23-0.19-0.51-0.29-0.77c-0.05-0.24,0.07-0.3,0.28-0.29
		c1.02,0.75,1.46,1.95,2.12,2.96c1.06,1.62,2.14,3.23,3.2,4.85c0.2,0.27,0.27,0.6,0.39,0.9c0.07,0.37,0.14,0.75,0.22,1.12
		C19.52,25.29,19.4,25.11,19.45,24.75z"/>
	<path class="st3" d="M9.38,6.02c0,6.66,0,13.31,0.01,19.97c0,0.38-0.13,0.84,0.47,0.92c0.08,0.08,0.17,0.16,0.25,0.24
		c0.11,0.27-0.1,0.38-0.26,0.51c-1.02,0.05-0.69-0.75-0.7-1.22c-0.03-3.47-0.02-6.95-0.02-10.43c0-2.92-0.01-5.83,0.01-8.75
		C9.15,6.85,8.99,6.38,9.38,6.02z"/>
	<path class="st5" d="M9.15,28.09c-0.86,0.89-2.04,0.9-3.13,1.02c-0.38,0.04-0.94-0.23-0.97-0.85c0.95-1.15,2.22-1.43,3.62-1.38
		C8.68,27.35,8.87,27.74,9.15,28.09z"/>
	<path class="st8" d="M8.46,6.52C8.46,6.93,8.3,7.17,7.83,7.16C7.33,7.14,6.82,7.22,6.31,7.19C5.94,7.18,5.45,7.54,5.26,6.86
		C5.1,6.26,5.2,5.82,5.78,5.55C6.69,5.22,7.6,5.01,8.55,5.41C8.7,5.5,8.72,5.62,8.63,5.77C8.26,5.95,8.45,6.25,8.46,6.52z"/>
	<path class="st30" d="M8.61,12.96c-1.04,0.25-2.07,0.56-3.12,0.74c-0.75,0.13-1.44-0.04-1.61-0.97c0.81-0.21,1.61-0.47,2.44-0.57
		c1.04-0.13,1.8-0.54,2.1-1.61c0.07-0.08,0.13-0.15,0.2-0.23C8.61,11.2,8.61,12.08,8.61,12.96z"/>
	<path class="st31" d="M11.55,59.55c0-0.96-0.01-1.92-0.01-2.88c-0.04-0.46,0.26-0.28,0.44-0.2c0.49,0.23,0.75,0.69,1,1.14
		c-0.01,0.98-0.01,1.96-0.02,2.94C12.17,60.65,11.67,60.36,11.55,59.55z"/>
	<path class="st32" d="M19.65,15.92c-0.25-0.19-0.41-0.44-0.44-0.76c-0.62-2.52-0.45-5.05-0.15-7.58c0.15-0.24,0.36-0.27,0.61-0.17
		c0.16,2.37-0.2,4.77,0.25,7.13C20.01,15.03,19.94,15.5,19.65,15.92z"/>
	<path class="st33" d="M3.86,20.2c1.54-0.55,3.21-0.54,4.77-1.01c0.01,0.25,0.01,0.5,0.02,0.75c-1.07,0.29-2.15,0.55-3.21,0.87
		C4.71,21.03,4.2,20.88,3.86,20.2z"/>
	<path class="st34" d="M8.67,26.89c-1.24,0.38-2.5,0.69-3.62,1.38c-0.66-0.39-0.34-0.66,0.12-0.9c1.11-0.59,2.26-1.09,3.48-1.4
		C8.65,26.28,8.66,26.58,8.67,26.89z"/>
	<path class="st35" d="M19.67,7.41c-0.15,0-0.29,0-0.44,0C17.88,7.1,16.8,6.25,15.62,5.6c-0.81-0.44-1.6-0.87-2.48-1.17
		C12.92,4.2,12.72,3.96,13,3.63c0.08-0.01,0.15-0.03,0.22-0.05c1.95,0.98,3.89,1.97,5.84,2.94C19.45,6.71,19.74,6.93,19.67,7.41z"/>
	<path class="st36" d="M14.17,61.5c0-0.89,0.01-1.79,0.01-2.68c0.57-0.25,0.73,0.58,1.24,0.47c-0.03,1.06-0.06,2.13-0.09,3.19
		C14.69,62.46,14.22,62.24,14.17,61.5z"/>
	<path class="st11" d="M11.31,29.53c-0.06-0.23,0.13-0.55-0.23-0.68L11,28.93l-0.11-0.03c0.35-0.59,1.02-0.51,1.55-0.72
		c0.42-0.16,0.54,0.18,0.54,0.54c0,0.44,0,0.87,0,1.31c-0.51-0.1-0.96,0.16-1.44,0.24C11.5,30.01,11.57,29.72,11.31,29.53z"/>
	<path class="st37" d="M8.65,24.02c-1.47,0.6-2.97,1.08-4.52,1.43c0.15-0.64,0.7-0.78,1.21-0.96c1.08-0.38,2.16-0.76,3.29-0.92
		C8.65,23.72,8.65,23.87,8.65,24.02z"/>
	<path class="st38" d="M19.45,24.75c0.15,0.14,0.31,0.27,0.46,0.41c0.01,1,0.03,2,0.03,2.99c0,0.45,0.01,0.97-0.72,0.67
		C19.36,27.47,18.96,26.08,19.45,24.75z"/>
	<path class="st22" d="M11.55,59.55c0.36,0.48,0.85,0.78,1.4,1c0.01,0.45,0.13,0.91-0.17,1.44c-0.74-0.74-2.09-0.95-1.72-2.44
		C11.22,59.54,11.39,59.55,11.55,59.55z"/>
	<path class="st39" d="M14.17,61.5c0.29,0.45,0.75,0.68,1.17,0.98c0.03,0.38,0.06,0.75,0.09,1.13c-0.07,0.2-0.1,0.52-0.42,0.23
		c-0.4-0.36-0.77-0.76-1.29-0.96c-0.02-0.07-0.04-0.14-0.08-0.21c0.01-0.35,0.01-0.69,0.04-1.04C13.72,61.22,13.97,61.43,14.17,61.5
		z"/>
	<path class="st22" d="M12.97,57.6c-0.58-0.16-0.69-1.04-1.43-0.94c-0.36-0.57-0.4-1.13,0.04-1.69c0.47,0.4,0.94,0.81,1.4,1.21
		C12.97,56.66,12.97,57.13,12.97,57.6z"/>
	<path class="st40" d="M15.42,59.3c-0.07,0.24-0.13,0.48-0.44,0.21c-0.27-0.23-0.53-0.45-0.8-0.68c-0.62-0.44-0.54-1.07-0.47-1.77
		c0.73,0.28,1.05,0.98,1.64,1.33C15.37,58.69,15.4,58.99,15.42,59.3z"/>
	<path class="st41" d="M19.69,24.04c-0.3-0.15-0.45-0.4-0.48-0.72c-0.27-0.98-0.86-1.99,0.22-2.87c0.16,0.13,0.31,0.26,0.47,0.38
		C19.88,21.9,20.17,22.99,19.69,24.04z"/>
	<path class="st42" d="M9.86,27.66c0.09-0.17,0.17-0.34,0.26-0.51c0.69-0.19,1.3-0.12,1.77,0.49C11.19,28.64,10.52,27.95,9.86,27.66
		z"/>
	<path class="st22" d="M11.04,40.06c0,2.03,0,4.05,0,6.08C10.79,44.12,10.78,42.09,11.04,40.06z"/>
	<path class="st3" d="M8.63,5.77C8.66,5.7,8.7,5.62,8.74,5.55c0.3-0.36,0.7-0.47,1.15-0.45c0.14-0.03,0.28-0.07,0.42-0.1
		c0.17,0.2,0.34,0.41,0.51,0.61C10.23,5.37,9.86,5.9,9.38,6.02C9.2,5.73,8.9,5.8,8.63,5.77z"/>
	<path class="st22" d="M10.89,28.9c0.06-0.03,0.12-0.05,0.18-0.05c-0.01,0.8-0.02,1.6-0.04,2.4C10.72,30.49,10.95,29.69,10.89,28.9z
		"/>
	<path class="st1" d="M13,3.63c0.06,0.24,0.12,0.48,0.19,0.72c0.05,0.21-0.05,0.36-0.19,0.5c0,0.55,0.01,1.1,0.01,1.66
		c0.1,3.16,0.44,6.31,0.25,9.5c-0.16,2.69-0.03,5.41-0.04,8.11c0,0.46,0.14,0.97-0.26,1.36c-0.58-0.11-0.44-0.58-0.44-0.95
		c-0.01-6.73-0.01-13.45,0.01-20.18C12.52,4.07,12.16,3.39,13,3.63z"/>
	<path class="st43" d="M12.95,25.46c0.01-5.88,0.02-11.77,0.03-17.65c0-0.44,0.02-0.87,0.04-1.31c0.41,0.7,0.17,1.47,0.18,2.2
		c0.01,0.62,0.11,1.16,0.5,1.64c0.06,1.68,0.21,3.36,0.23,5.04c-0.08,0.08-0.15,0.16-0.23,0.24c-0.41,0.34-0.24,0.81-0.24,1.23
		c-0.01,2.62,0,5.24-0.01,7.86c0,0.42,0.16,0.88-0.23,1.24C13.01,25.85,12.99,25.65,12.95,25.46z"/>
	<path class="st44" d="M4.07,9.37C4.2,8.75,4.53,8.27,5.04,7.92c0.95-0.01,1.89-0.01,2.84-0.03c0.23,0,0.49-0.11,0.54,0.24
		c0.03,0.23,0.06,0.59-0.18,0.63C6.86,8.97,5.54,9.75,4.07,9.37z"/>
	<path class="st45" d="M9.89,5.1C9.56,5.39,9.24,5.71,8.74,5.55c-0.99,0-1.97,0-2.96,0C7.05,4.49,8.45,4.65,9.89,5.1z"/>
	<path class="st46" d="M7.92,13.67c1.08,0.41,0.44,1.3,0.49,1.96c0.04,0.65-0.63,0.42-1.02,0.49c-0.94,0.16-1.88,0.33-2.83,0.43
		c-0.3,0.03-0.71,0.38-0.94-0.11c-0.18-0.38-0.17-0.77,0.1-1.13c0.22-0.29,0.43-0.58,0.64-0.86C5.54,14.18,6.73,13.93,7.92,13.67z"
		/>
	<path class="st47" d="M8.42,10.55c0.29,1.17-0.29,1.68-1.38,1.74c-1.07,0.05-2.02,0.92-3.16,0.45c-0.13-0.87,0.2-1.44,1.1-1.6
		C6.12,10.93,7.27,10.75,8.42,10.55z"/>
	<path class="st12" d="M13,4.85c-0.02-0.2-0.01-0.38,0.19-0.5c0.54-0.07,1.02,0.08,1.47,0.37c1.49,0.95,3.16,1.61,4.58,2.7
		c-0.01,2.58-0.02,5.16-0.02,7.75c-1.99-3.35-3.98-6.7-5.98-10.05C13.17,5.01,13.08,4.93,13,4.85z"/>
	<path class="st48" d="M13.94,15.39c-0.69-1.65-0.65-3.34-0.23-5.04c1.91,3.37,3.82,6.73,5.73,10.1c-0.45,0.93-0.09,1.92-0.22,2.87
		c-1.78-2.15-3.09-4.61-4.64-6.92C14.35,16.07,14.15,15.72,13.94,15.39z"/>
</g>
</svg>
