<?xml version="1.0" encoding="utf-8"?>
<!-- Generator: Adobe Illustrator 23.0.2, SVG Export Plug-In . SVG Version: 6.00 Build 0)  -->
<svg version="1.1" id="Camada_1" xmlns="http://www.w3.org/2000/svg" xmlns:xlink="http://www.w3.org/1999/xlink" x="0px" y="0px"
	 viewBox="0 0 47.32 25.72" style="enable-background:new 0 0 47.32 25.72;" xml:space="preserve">
<style type="text/css">
	.st0{fill:#030609;}
	.st1{fill:#5679B6;}
	.st2{fill:#275F85;}
	.st3{fill:#FCFDFD;}
	.st4{fill:#1184BE;}
	.st5{fill:#255F87;}
	.st6{fill:#9A7647;}
	.st7{fill:#2B648D;}
	.st8{fill:#96703F;}
	.st9{fill:#79BCEB;}
	.st10{fill:#79BDEB;}
	.st11{fill:#76B9E8;}
	.st12{fill:#77B8E1;}
	.st13{fill:#577BB7;}
	.st14{fill:#D4BB90;}
	.st15{fill:#B79052;}
	.st16{fill:#DBC297;}
	.st17{fill:#E1CA9F;}
	.st18{fill:#7EB7D2;}
	.st19{fill:#6BA3CA;}
	.st20{fill:#386A8B;}
	.st21{fill:#D4C097;}
	.st22{fill:#75B9E9;}
	.st23{fill:#A8C0C3;}
	.st24{fill:#808A89;}
	.st25{fill:#82B9DB;}
	.st26{fill:#79BCE5;}
	.st27{fill:#276390;}
	.st28{fill:#B89760;}
	.st29{fill:#DCC499;}
</style>
<g>
	<path class="st0" d="M10.35,8.05c1.64,0.35,2.58,1.08,3.11,2.62c0.28,0.83,1.31,1.56,2.37,1.77c9.33,1.86,18.67,3.7,28,5.55
		c0.99,0.2,2.06,0.28,2.08,1.66c0.04,2.71-0.01,2.7-1.59,3.65c-1.83,1.1-3.54,0.58-5.35,0.21c-8.35-1.71-16.69-3.46-25.06-5.02
		c-2.28-0.43-4.67-0.26-6.99-0.68c-0.31-0.06-0.63-0.09-0.94-0.16C3.07,17,2.02,16.03,2.3,13.09c0.12-1.28-0.21-2.89,0.87-4.02
		c0.32-0.34,0.06-0.41-0.11-0.61C2.73,8.07,2.45,7.63,2.13,7.22c-0.45-0.58-0.71-1.25-0.3-1.88s1.06-1.07,1.9-1.04
		c0.32,0.01,0.64,0.01,0.96,0.06c0.98,0.16,1.68-0.11,2.36-0.95c2.3-2.82,5.43-2.48,7.82-0.34c0.9,0.81,1.03,2.45,0.32,3.4
		c-0.46,0.61-1.18,1.13-1.85,0.68C11.99,6.27,11.35,7.24,10.35,8.05z"/>
	<path class="st1" d="M12.5,17.07c-0.24-0.01-0.48-0.01-0.71-0.02c-2.09-0.32-4.2-0.48-6.26-0.99c-0.38-0.1-0.91-0.08-0.99-0.67
		c0.99-0.57,2,0.03,3.01-0.04c0.39-0.03,0.78,0.11,1.18,0.15c0.91,0.1,1.37-0.25,1.24-1.21c0.13-0.76,0.85-0.7,1.33-0.97
		c0.36-0.13,0.58-0.38,0.66-0.76c0.1-0.14,0.24-0.2,0.41-0.17c0.66,0.28,1.27,0.63,1.63,1.28c-0.17,0.26-0.43,0.35-0.72,0.39
		c-0.34,0-0.72-0.08-0.93,0.34c0.29,0.4,0.85,0.41,1.14,0.79C14,15.77,14.7,16,15.4,16.14c6.35,1.26,12.68,2.68,19.05,3.81
		c1.84,0.32,3.71,0.57,5.55,0.92c0.49,0.09,0.84-0.01,1.18-0.3c0.83,0.13,0.62,0.77,0.63,1.29c-0.11,0.58-0.48,0.6-0.98,0.51
		c-2.3-0.41-4.59-0.91-6.89-1.33c-0.74-0.14-1.47-0.34-2.22-0.42c-4.66-1-9.34-1.89-14-2.84c-1.33-0.27-2.66-0.52-3.98-0.8
		C13.3,16.88,12.89,16.7,12.5,17.07z"/>
	<path class="st2" d="M13.96,13.66c-0.59-0.39-1.18-0.78-1.76-1.17c-0.03-0.11,0.01-0.2,0.09-0.27c0.65,0.07,1.36-0.04,1.58,0.89
		c0.08,0.34,0.61,0.3,0.96,0.37c9.59,1.9,19.17,3.81,28.76,5.7c0.51,0.1,1.14,0.07,1.09,0.82c-0.05,0.77,0.37,1.72-0.78,2.15
		c-1.09,0.41-2.04,0.86-3.35,0.49c-2.99-0.83-6.11-1.13-9.11-1.95c0.02-0.15,0.16-0.17,0.26-0.24c2.75,0.53,5.49,1.09,8.26,1.55
		c0.49,0.08,1.15,0.75,1.61-0.12c0.09-0.14,0.14-0.31,0.35-0.3c0.56,0.35,1.08,0.23,1.5-0.23c0.3-0.33,0.35-0.71-0.07-1.03
		c-0.2-0.11-0.4-0.23-0.59-0.36c-0.43-0.25-0.91-0.28-1.38-0.38c-8.57-1.72-17.15-3.41-25.7-5.2
		C15.07,14.24,14.38,14.26,13.96,13.66z"/>
	<path class="st3" d="M13.65,5.74c-0.04-0.05-0.08-0.1-0.11-0.15C12,4.77,10.87,5.66,9.81,6.57C8.7,7.54,7.58,8.39,5.99,8.18
		c-0.86-0.11-1.63-0.39-2.2-1.07C3.35,6.59,3.42,5.97,4.14,6.03c2.07,0.19,3.39-0.85,4.7-2.25c0.93-0.99,3.7-0.8,4.72,0.06
		C14.32,4.48,14.35,5.29,13.65,5.74z"/>
	<path class="st4" d="M13.65,5.74c0.49-0.89,0.34-1.59-0.64-1.91C11.05,3.2,9.44,3.04,8.17,4.82c-0.88,1.23-2,1.6-3.42,1.46
		C4.39,6.24,3.83,6.04,3.69,6.46C3.54,6.92,4.09,7.18,4.45,7.4c1.38,0.87,3,0.72,4.33-0.33c0.81-0.64,1.52-1.45,2.51-1.82
		c0.77-0.28,1.66-0.82,2.26,0.32C12,5.25,10.82,5.93,9.78,6.94C8.37,8.3,6.8,8.92,4.87,8.18c-0.78-0.3-1.32-0.85-1.71-1.59
		c-0.4-0.75-0.09-1.03,0.63-1.07C4.15,5.5,4.51,5.54,4.87,5.58c1.25,0.14,2.18-0.24,3-1.29c1.52-1.95,4.38-2.11,6.06-0.52
		c0.69,0.65,0.58,1.34,0.21,2.05C14.01,6.06,13.76,6.12,13.65,5.74z"/>
	<path class="st5" d="M31.7,20.43c-0.09,0.08-0.17,0.16-0.26,0.24c-3.53-0.55-7.02-1.34-10.52-2.02c-2.8-0.55-5.56-1.32-8.42-1.58
		c0.02-0.44,0.3-0.53,0.66-0.45c6.14,1.25,12.29,2.5,18.43,3.76C31.63,20.38,31.66,20.41,31.7,20.43z"/>
	<path class="st6" d="M4.08,12.3C3.6,9.84,3.95,9.39,6.54,9.38c0.71,0,1.44-0.1,2.12,0.24C8.86,9.83,9.1,10,9.27,10.24
		c0.09,0.12,0.16,0.25,0.2,0.4c0.01,0.1-0.02,0.2-0.07,0.29c-0.06,0.08-0.14,0.14-0.23,0.19c-0.19,0.05-0.38,0.01-0.57,0.01
		c-0.18,0.01-0.34,0.08-0.46,0.23c-0.06,0.52,0,0.99,0.47,1.31c0.1,0.06,0.19,0.13,0.27,0.21C8.95,13,8.96,13.11,8.9,13.22
		c-0.49,0.43-1.05,0.31-1.6,0.2c-0.24-0.08-0.46-0.2-0.63-0.39c-0.13-0.22-0.15-0.45-0.05-0.68C7.38,12,7.35,11.7,6.51,11.07
		c-0.15,0-0.31-0.01-0.46-0.03c-0.2-0.03-0.38-0.1-0.58-0.13c-0.19-0.03-0.38-0.02-0.56,0.05c-0.45,0.51,0.07,1,0.02,1.51
		c0,0.11-0.03,0.22-0.09,0.32c-0.15,0.11-0.31,0.12-0.48,0.07C4.16,12.73,4.02,12.57,4.08,12.3z"/>
	<path class="st7" d="M4.08,12.3c0.08,0.12,0.17,0.24,0.25,0.36c0.8,0.56,1.81,0.2,2.65,0.6c1.14,0.35,2.29,0.15,3.44,0.03
		c0.4-0.04,0.79-0.15,1.11,0.2c-0.48,0.24-0.95,0.47-1.43,0.71c-0.68,0.53-1.44,0.29-2.17,0.2c-0.83-0.1-1.66-0.2-2.47-0.37
		c-0.78-0.16-1.31-0.1-0.91,0.91c0.06,0.15,0.04,0.31,0.02,0.47c1.08,0.81,2.42,0.64,3.63,0.94c1.18,0.29,2.43,0.26,3.58,0.71
		c-2.34-0.02-4.64-0.34-6.91-0.92c-1.49-0.37-0.93-1.75-1.39-2.62C3.19,12.97,3.53,12.53,4.08,12.3z"/>
	<path class="st8" d="M9.15,10.34c-0.33-0.13-0.48-0.38-0.48-0.72c0.12-0.01,0.24,0,0.35-0.03c2.46-0.56,3.25,0.07,3.27,2.63
		c-0.03,0.09-0.06,0.18-0.09,0.27c-0.07,0.06-0.14,0.12-0.22,0.18c-0.79,0.82-1.74,0.93-2.78,0.61c-0.07-0.1-0.1-0.21-0.06-0.33
		c0.58-0.65,0.01-1.44,0.25-2.14v0.01c0.24-0.24,0.51-0.26,0.81-0.13c0.35,0.25,0.2,0.62,0.24,0.95c0.05,0.35,0.09,0.72,0.6,0.6
		c0.7-0.61,0.62-1.03-0.3-1.25c-0.17-0.01-0.32-0.06-0.42-0.21c-0.07-0.37,0.26-0.5,0.48-0.7C10.14,9.78,9.68,10.29,9.15,10.34z"/>
	<path class="st9" d="M13.96,13.66c9.53,1.93,19.05,3.85,28.58,5.78c0.26,0.05,0.78-0.09,0.42,0.49c-0.81,1.06-1.93,0.6-2.87,0.43
		c-5.98-1.13-11.94-2.38-17.91-3.54c-2.42-0.47-4.83-1.02-7.26-1.42c-0.93-0.15-1.85-0.42-2.7-1.01c0.21-0.48,0.61-0.46,0.99-0.47
		C13.46,13.84,13.71,13.75,13.96,13.66z"/>
	<path class="st10" d="M41.03,20.7c0.53,0.72,0.04,0.73-0.47,0.62c-4.5-0.96-9.09-1.43-13.57-2.48c-3.78-0.89-7.63-1.49-11.43-2.31
		c-0.87-0.19-1.95-0.23-2.32-1.36c1.45-0.22,2.8,0.32,4.18,0.59c7.39,1.48,14.78,2.96,22.17,4.43C40.1,20.29,40.63,20.32,41.03,20.7
		z"/>
	<path class="st5" d="M41.03,20.7c-7.82-1.56-15.63-3.13-23.45-4.69c-1.44-0.29-2.89-0.56-4.34-0.84c-0.19-0.06-0.38-0.1-0.56-0.18
		c-0.33-0.15-0.98-0.14-0.79-0.64c0.17-0.47,0.68-0.88,1.31-0.43c-0.25,0.11-0.5,0.23-0.88,0.4c2.21,0.87,4.46,1.06,6.64,1.51
		c7.02,1.44,14.07,2.8,21.09,4.22c1,0.2,1.95,0.28,2.9-0.12c0.17,0.07,0.33,0.14,0.5,0.21c-0.43,0.63-1.33,0.73-1.67,1.46
		c-0.07,0.08-0.15,0.16-0.22,0.24C41.42,21.45,41.88,20.77,41.03,20.7z"/>
	<path class="st11" d="M4.57,15.39c-0.13-0.2-0.33-0.38-0.39-0.6c-0.11-0.4-0.51-0.86-0.18-1.22c0.29-0.33,0.74,0.04,1.13,0.07
		c1.66,0.16,3.29,0.68,4.98,0.54c0.5,1.5,0.37,1.75-1.07,1.66C7.55,15.75,6.06,15.55,4.57,15.39z"/>
	<path class="st12" d="M9.19,12.97c1.03,0.79,1.87-0.1,2.79-0.31c0.27,0.5-0.01,0.7-0.45,0.81c-1.59,0.35-3.18,0.3-4.77-0.06
		c0-0.46,0.28-0.29,0.51-0.23c0.52-0.1,1.09,0.25,1.57-0.18c0.06-0.08,0.13-0.11,0.23-0.11C9.11,12.92,9.15,12.95,9.19,12.97z"/>
	<path class="st13" d="M41.79,21.61c-0.13-1.27,1.03-1.08,1.67-1.46c0.94-0.17,0.45,0.56,0.46,0.84c0.05,0.88-0.8,0.82-1.31,1.12
		C42.03,22.44,42.04,21.8,41.79,21.61z"/>
	<path class="st14" d="M10.34,10.81c-0.32,0-0.64,0.01-0.96,0.01c-0.08-0.16-0.16-0.32-0.24-0.48c0.67-0.85,1.41-0.91,2.33-0.16
		c-0.37,0.3-1.02,0.07-1.15,0.64C10.33,10.82,10.34,10.81,10.34,10.81z"/>
	<path class="st15" d="M4.86,10.58c0.23,0,0.46,0,0.69,0c0.31,0.8,0.82,1.57,0.38,2.49c-0.37-0.13-0.98,0.39-1.11-0.41v-0.07
		C4.94,11.93,4.57,11.25,4.86,10.58z"/>
	<path class="st16" d="M6.51,10.84c1.27-0.36,0.57,0.86,0.95,1.22c0.11,0.1,0.44,0.49-0.02,0.66c-0.35,0.13-0.47-0.17-0.6-0.42
		c-0.51-0.22-0.41-0.71-0.5-1.12C6.36,11.04,6.42,10.93,6.51,10.84z"/>
	<path class="st17" d="M5.5,9.83c0.86,0,1.52,0,2.18,0c0.25,0,0.51,0.04,0.47,0.37c-0.04,0.36-0.35,0.35-0.52,0.19
		C7.05,9.83,6.23,10.78,5.5,9.83z"/>
	<path class="st18" d="M4.86,10.58c0.07,0.67,0.55,1.35-0.04,2.01C4.7,11.92,3.85,11.24,4.86,10.58z"/>
	<path class="st19" d="M4.83,12.67c0.32,0.43,0.8,0.25,1.22,0.31c0.06-0.08,0.13-0.13,0.22-0.16c0.09-0.02,0.19-0.02,0.28,0
		c0.09,0.04,0.16,0.09,0.23,0.16c0.17,0.07,0.34,0.14,0.51,0.22c-0.17,0.08-0.34,0.15-0.51,0.23c-0.65-0.09-1.3-0.14-1.94-0.28
		c-0.19-0.04-0.74,0.08-0.49-0.49C4.5,12.66,4.66,12.66,4.83,12.67z"/>
	<path class="st20" d="M6.19,12.98c-0.05,0-0.1,0-0.15-0.01c-0.35-0.76-0.55-1.55-0.49-2.39c0.16,0.08,0.31,0.16,0.47,0.25
		C6.32,11.53,6.73,12.22,6.19,12.98z"/>
	<path class="st21" d="M9.42,12.94c-0.07,0.03-0.15,0.04-0.23,0.04H9.1c-0.31-0.57-0.58-1.16-0.63-1.82
		c0.03-0.12,0.08-0.22,0.15-0.32c0.16,0.06,0.33,0.13,0.49,0.19C9.73,11.58,9.58,12.26,9.42,12.94z"/>
	<path class="st22" d="M8.63,11.1c0.18,0.62,0.67,1.16,0.47,1.87C9.02,12.98,8.93,13,8.84,13.01c-0.07,0-0.13-0.01-0.18-0.05
		C8.4,12.34,7.81,11.73,8.63,11.1z"/>
	<path class="st23" d="M8.63,11.1c-0.43,0.63,0.27,1.23,0.03,1.86l-0.12,0.01H8.42c-0.35-0.58-0.46-1.22-0.5-1.88
		c0.22-0.12,0.4-0.35,0.7-0.25C8.63,10.92,8.63,11.01,8.63,11.1z"/>
	<path class="st24" d="M6.19,12.98c-0.06-0.72-0.11-1.43-0.17-2.15c0.16,0,0.32,0,0.48,0.01c0,0.08-0.01,0.16-0.02,0.24
		c-0.03,0.64,0.32,1.26,0.06,1.91C6.42,12.99,6.31,12.98,6.19,12.98z"/>
	<path class="st25" d="M9.42,12.94c-0.11-0.64,0.08-1.32-0.3-1.92c0.09-0.07,0.18-0.14,0.27-0.2C9.6,11.52,10.14,12.22,9.42,12.94z"
		/>
	<path class="st26" d="M7.92,11.07c0.31,0.59,0.42,1.23,0.5,1.88C7.82,12.45,7.67,11.81,7.92,11.07z"/>
	<path class="st27" d="M6.54,12.99c0.12-0.64-0.44-1.26-0.06-1.91c0.12,0.4,0.24,0.8,0.36,1.21c-0.02,0.23-0.05,0.46-0.07,0.68
		C6.69,12.98,6.62,12.99,6.54,12.99z"/>
	<path class="st28" d="M10.33,10.82c0.17,0,0.33,0,0.5,0.01c0.66,0.45,0.66,1,0.24,1.61c-0.39,0.54-0.64,0.25-0.83-0.16
		c-0.23-0.5-0.15-0.99,0.11-1.46C10.34,10.81,10.33,10.82,10.33,10.82z"/>
	<path class="st29" d="M11.07,12.43c-0.01-0.55,0.07-1.11-0.24-1.61c0.47-0.07,0.94-0.14,0.94,0.57
		C11.77,11.9,11.88,12.47,11.07,12.43z"/>
</g>
</svg>
