<?xml version="1.0" encoding="utf-8"?>
<!-- Generator: Adobe Illustrator 23.0.2, SVG Export Plug-In . SVG Version: 6.00 Build 0)  -->
<svg version="1.1" id="Camada_1" xmlns="http://www.w3.org/2000/svg" xmlns:xlink="http://www.w3.org/1999/xlink" x="0px" y="0px"
	 viewBox="0 0 23.32 100.12" style="enable-background:new 0 0 23.32 100.12;" xml:space="preserve">
<style type="text/css">
	.st0{fill:#010102;}
	.st1{fill:#323D8E;}
	.st2{fill:#28368C;}
	.st3{fill:#303C8E;}
	.st4{fill:#648E8E;}
	.st5{fill:#598786;}
	.st6{fill:#5A8888;}
	.st7{fill:#A7C0BF;}
	.st8{fill:#A1BCBB;}
	.st9{fill:#4464CB;}
	.st10{fill:#42509C;}
	.st11{fill:#4364CD;}
	.st12{fill:#AA83B2;}
	.st13{fill:#4463CB;}
	.st14{fill:#B286B3;}
	.st15{fill:#4664CB;}
	.st16{fill:#AC84B3;}
	.st17{fill:#4565CD;}
	.st18{fill:#4464CC;}
	.st19{fill:#42519C;}
	.st20{fill:#987DBB;}
	.st21{fill:#3F62CC;}
	.st22{fill:#B587B1;}
	.st23{fill:#A982B3;}
	.st24{fill:#4565CE;}
	.st25{fill:#B086B8;}
	.st26{fill:#8173C6;}
	.st27{fill:#425FC1;}
	.st28{fill:#2A3483;}
	.st29{fill:#A4BEBD;}
	.st30{fill:#41519D;}
	.st31{fill:#A581B8;}
	.st32{fill:#B185B4;}
	.st33{fill:#42519D;}
	.st34{fill:#414F9A;}
	.st35{fill:#A07EB8;}
	.st36{fill:#A580B4;}
	.st37{fill:#4363CB;}
	.st38{fill:#8070BB;}
	.st39{fill:#A6BFBE;}
	.st40{fill:#A5BFBE;}
	.st41{fill:#F4F6F6;}
	.st42{fill:#F4F7F7;}
	.st43{fill:#F7F9F9;}
	.st44{fill:#407676;}
	.st45{fill:#A3BCBB;}
	.st46{fill:#5E8C8B;}
	.st47{fill:#8576C3;}
	.st48{fill:#F5F7F7;}
	.st49{fill:#FCFDFD;}
	.st50{fill:#F9FAFA;}
	.st51{fill:#F8FAF9;}
	.st52{fill:#A9C2C0;}
	.st53{fill:#FBFCFC;}
	.st54{fill:#ABC3C2;}
	.st55{fill:#4668D2;}
	.st56{fill:#4765CC;}
	.st57{fill:#4869D4;}
</style>
<g>
	<path class="st0" d="M21.9,18.27c0,3.6-0.02,7.2,0.01,10.79c0.01,1.16-0.53,1.95-1.55,2.28c-0.93,0.3-1.69,0.99-2.71,1.05
		c-0.57,0.03-0.31,0.47-0.3,0.72c0.04,8.87,0.12,17.75,0.16,26.62c0.04,10.91,0.1,21.82,0.04,32.73c-0.01,2.42-0.93,4.59-3.29,5.81
		c-2.32,1.2-4.63-0.2-4.64-2.81c-0.01-11.63,0-23.26-0.04-34.89c-0.03-9.03-0.14-18.07-0.15-27.1c0-1-0.41-1.15-1.15-1.05
		c-0.85,0.11-1.47-0.19-1.98-0.84c-0.28-0.35-0.63-0.59-1.04-0.78c-0.25-0.12-0.53-0.24-0.71-0.44c-1.3-1.52-2.21-3.26-2.57-5.23
		c-0.15-0.82,0.3-1.66,0.36-2.54c0.09-1.36-0.41-2.65-0.15-3.99c0.09-0.47-0.07-1.01-0.13-1.52c-0.13-1.07-0.62-2.07,0.21-3.28
		c0.44-0.64,0.29-2.05,0.41-3.11c0.02-0.15-0.14-0.32-0.11-0.46C2.88,8.27,3.3,6.26,4.33,4.61c0.81-1.3,2.49-1.6,4.09-1.49
		c0.74,0.05,1.3,0.01,1.93-0.66c1.18-1.26,2.36-1.18,4.04-0.28c1.72,0.92,3.49,1.73,5.22,2.63c0.6,0.31,1.13,0.73,1.7,1.1
		c0.49,0.32,0.64,0.78,0.64,1.33c0,3.68,0,7.35,0,11.03C21.93,18.27,21.91,18.27,21.9,18.27z"/>
	<path class="st1" d="M20.46,7.47c0.07,6.84,0.15,13.67,0.2,20.51c0.01,2.15-0.06,2.17-2.21,2.6c-1.96,0.38-2.33,0.85-2.31,2.81
		c0.23,19.43,0.23,38.87,0.26,58.3c0,1.61-0.35,3.08-1.28,4.4c-0.43,0.6-0.98,1.02-1.73,1.21c-1.46,0.38-2.53-0.41-2.53-1.91
		c-0.02-14.96-0.03-29.92-0.07-44.87c-0.02-5.92-0.13-11.83-0.14-17.75c0-0.72-0.4-1.06-0.76-1.5c-0.01-0.3-0.24-0.6,0-0.9
		c0.48-0.51,0.5-1.05,0.1-1.62c-0.13-0.18-0.24-0.37-0.25-0.6c0.01-0.11,0.04-0.21,0.1-0.3c0.42-0.2,0.79,0.23,1.21,0.1
		c0.53-0.3,0.53-0.3-0.31-0.9c-0.13-0.12-0.23-0.26-0.29-0.43c-0.05-0.18-0.05-0.36,0.02-0.53c0.11-0.23,0.34-0.37,0.47-0.58
		c0.1-6.06,0-12.11,0.05-18.16c0.01-1.22-0.23-2.47,0.26-3.66c0.13-0.13,0.26-0.13,0.4,0c0.36,0.5,0.27,1.07,0.26,1.62
		c-0.03,5.55-0.01,11.1-0.01,16.65c-0.01,1.25,0,2.51-0.01,3.76c0,0.28-0.01,0.56,0.24,0.77c0.16,0.14,0.34,0.26,0.49,0.41
		c0.4,0.43,0.94,0.6,1.47,0.75c1.64,0.45,3.09,1.38,4.71,1.91c-0.56-0.57-1.33-0.74-2-1.08c-0.38-0.19-0.86-0.25-0.99-0.76
		c0.04-0.18,0.15-0.3,0.32-0.38c1.21,0.11,2.17,0.92,3.33,1.18c0.32,0.01,0.44-0.2,0.4-0.45c-0.18-1.17-0.05-2.34-0.16-3.51
		c-0.15-0.4-0.45-0.75-0.51-1.19c-0.03-0.95-0.24-1.91,0.17-2.83c0.07-0.37,0.44,0.24,0.38-0.07c-0.32-1.71,0.16-3.51-0.59-5.17
		c-0.05-2.5-0.16-5,0.05-7.5c0.06-0.21,0.16-0.4,0.35-0.53C19.92,7.04,20.21,7.16,20.46,7.47z"/>
	<path class="st2" d="M10.55,26.65c0.09,0.08,0.18,0.17,0.27,0.25c-0.07,0.33-0.37,0.44-0.6,0.61c-0.14,0.1-0.33,0.17-0.36,0.38
		c0,0.09-0.01,0.17-0.01,0.26c-0.17,0.13-0.36,0.15-0.56,0.1c-0.55-0.28-0.64-0.8-0.7-1.33c-0.02-0.32-0.02-0.65-0.02-0.98
		c0-0.26,0-0.52-0.02-0.78c-0.01-0.53,0.02-1.06,0.01-1.59c-0.02-0.8,0.08-1.6-0.11-2.39c-0.03-0.21-0.03-0.41,0.01-0.62
		c0.22-1.26,0.06-2.52,0.1-3.78c0-1.09,0-2.18,0-3.27C8.54,11.42,8.64,9.34,8.5,7.27c-0.12-0.5-0.34-1,0.01-1.5
		c0.36-0.31,0.81-0.44,1.21-0.67c0.45-0.25,1.09-0.28,1.15-0.99c-0.03-0.19,0-0.37,0.15-0.51c0.1-0.09,0.18-0.09,0.27,0.02
		c0,7.12,0,14.25,0,21.37c0,0.31-0.04,0.62-0.06,0.93c0,0.02-0.06,0.04-0.09,0.04c-0.04,0-0.07-0.04-0.1-0.06
		c-0.46-0.5-0.32-1.12-0.33-1.71c-0.1-5.73-0.33-11.45-0.25-17.18c0-0.2-0.01-0.4-0.08-0.58c-0.32-0.21-0.53-0.1-0.61,0.25
		C9.7,7,9.75,7.33,9.74,7.64c-0.17,5.94,0.33,11.86,0.23,17.8C9.96,25.97,10.1,26.37,10.55,26.65z"/>
	<path class="st3" d="M11.3,3.63c-0.09-0.01-0.18-0.01-0.27-0.02c0.57-0.82,1.46-0.97,2.22-0.63c2.21,1,4.37,2.13,6.5,3.29
		c0.32,0.18,1.23,0.37,0.71,1.2c-0.24-0.08-0.48-0.17-0.71-0.25c-1.75-1.17-3.73-1.88-5.56-2.9c-0.25-0.14-0.56-0.38-0.82,0.04
		c-0.11,3.35-0.02,6.7-0.05,10.05c0,3.64-0.02,7.27,0.01,10.9c0.02,0.12,0.05,0.24,0.11,0.35c0.7,0.86,1.97,0.86,2.65,1.75
		c-0.09,0.07-0.17,0.15-0.26,0.22c-0.42,0.36-0.83,0.14-1.2-0.07c-0.66-0.38-1.39-0.52-2.12-0.65c-0.22-0.01-0.42-0.06-0.52-0.29
		c0.44-0.87,0.14-1.78,0.15-2.68c0.03-6.11-0.04-12.22,0-18.33c0-0.48,0.02-0.96-0.03-1.43c-0.1-0.28-0.38-0.37-0.57-0.56
		C11.47,3.63,11.38,3.63,11.3,3.63z"/>
	<path class="st4" d="M8.71,21.13c0.4,0.78,0.14,1.61,0.17,2.42c-0.08,0.08-0.17,0.15-0.26,0.22c-0.89,0.46-1.89,0.56-2.81,0.91
		c-0.44,0.17-0.91,0.3-1.23,0.68c-0.21,0.26-0.38,0.55-0.16,0.86c0.26,0.36,0.64,0.23,0.98,0.13c1.18-0.32,2.23-1.01,3.47-1.15
		c0,0.25,0.01,0.5,0.01,0.75c-0.82,0.62-1.83,0.87-2.73,1.32c-0.41,0.2-1.07,0.27-0.83,1.02c0.43,0.74,1.07,0.74,1.77,0.53
		c0.76-0.23,1.5-0.53,2.28-0.72c0.16,0.01,0.32,0.02,0.48,0.03c0.1,0.13,0.19,0.26,0.29,0.4c-0.28,0.49-0.8,0.64-1.27,0.82
		c-0.89,0.33-0.84,0.7-0.12,1.16c0.17,0.14,0.35,0.27,0.43,0.48c-0.05,0.06-0.1,0.16-0.15,0.16c-1.3,0.02-4.33-2.27-4.62-3.49
		c-0.05-0.2-0.05-0.39-0.22-0.53c-1.06-0.81-1.04-1.62,0.02-2.42c0.29-0.21,0.33-0.39,0.03-0.64c-0.38-0.31-0.61-0.74-0.68-1.23
		c0.05-0.03,0.09-0.06,0.14-0.09c0.95,1,1.95,1.12,3.27,0.6c0.96-0.38,1.52-0.75,1.45-1.81C8.46,21.38,8.54,21.22,8.71,21.13z"/>
	<path class="st5" d="M10.88,4.12c0.2,0.86-0.45,0.98-1.01,1.18c-1.3-0.23-2.6-0.4-3.8,0.37c-0.79,0.9-0.78,0.99,0.21,1.62
		C6.88,7.52,7.6,7.21,8.18,7.65C7.94,8.62,7.13,8.22,6.57,8.24C5.52,8.28,4.72,8.53,4.52,9.7c0.33,0.71,0.91,0.39,1.43,0.37
		c0.92-0.05,1.77-0.71,2.74-0.26c0.1,0.16,0.1,0.33,0.06,0.51c-0.81,0.98-2.03,0.76-3.08,1.05c-0.86,0.24-1.5,0.57-1.39,1.6
		c0.09,0.24,0.26,0.45,0.36,0.68c-0.01,0.29,0.03,0.58-0.04,0.87c-0.11,0.13-0.24,0.2-0.41,0.2c-0.04-0.04-0.07-0.08-0.11-0.12
		c0-0.24,0.11-0.57-0.01-0.69c-0.84-0.86-0.63-1.72-0.09-2.6c0.19-0.31,0.18-0.58-0.07-0.87C3.54,10,3.71,9.52,3.91,9.08
		c0.43-0.97,1.19-1.75,0.98-3.02C4.75,5.24,6.26,4.38,7.57,4.34c0.75-0.02,1.52,0.01,2.27,0.1C10.27,4.49,10.63,4.55,10.88,4.12z"/>
	<path class="st6" d="M8.85,16.82c0.02,1.29,0.28,2.58-0.15,3.85c-1.48,0.6-3.14,0.67-4.53,1.52c-0.2,0.17-0.28,0.42-0.46,0.6
		c-0.05,0.03-0.09,0.05-0.14,0.07c-0.5-0.79,0.57-1.22,0.46-1.75c-0.12-0.56-0.74-0.99-0.69-1.7c0.03-0.38,0.14-0.71,0.44-0.94
		c0.4-0.3,0.25-0.6,0.06-0.92c1.61-0.08,3.1-0.72,4.68-0.91C8.64,16.67,8.75,16.73,8.85,16.82z"/>
	<path class="st7" d="M8.66,16.82c-0.95,0.25-1.92,0.47-2.86,0.78c-0.68,0.23-1.31,0.16-1.96-0.04c-0.91-1.15-0.86-1.73,0.25-2.96
		c0,0.06,0.01,0.13,0.04,0.19c0.03,1.55,0.03,1.49,1.73,1.33c0.94-0.09,1.91-0.65,2.87-0.01C8.79,16.35,8.84,16.59,8.66,16.82z"/>
	<path class="st8" d="M9.18,31c-0.17-0.09-0.35-0.17-0.52-0.26c0.37-0.36,0.77-0.57,1.26-0.21c0.06,0.25,0.33,0.51-0.04,0.73
		C9.69,31.06,9.49,30.9,9.18,31z"/>
	<path class="st9" d="M16.1,27.41c-1.01-0.39-2-0.81-2.87-1.48c-0.01-4.86,0-9.71,0-14.57c0-0.36-0.03-0.72,0.08-1.06
		c0.45-0.54,0.72-0.08,0.9,0.23c1.69,3.03,3.47,6,5.23,9c0.16,0.27,0.29,0.58,0.04,0.89c-0.01,1.04-0.01,2.07-0.02,3.11
		c-0.57,0.05-0.68-0.46-0.91-0.79c-1.54-2.17-2.93-4.43-4.37-6.66c1.67,2.64,3.32,5.29,5.16,7.82c0.27,0.37,0.42,0.76,0.44,1.21
		c-0.11,0.75-0.07,1.5,0.02,2.25c0.06,0.5,0.07,1.04-0.34,1.45C18.34,28.35,17.22,27.88,16.1,27.41z"/>
	<path class="st10" d="M15.64,62.66c0.32,0.28,0.25,0.67,0.21,1.01c-0.37,3.57-0.14,7.14-0.04,10.72c0.18,6.26,0.07,12.53,0.04,18.8
		c-0.01,1.12-0.75,1.98-1.39,2.84c-0.38-0.35-0.26-0.82-0.26-1.24c-0.01-5.91-0.2-11.83-0.1-17.74c0.06-3.79,0.11-7.59,0.09-10.59
		c0,1.57,0,3.94,0,6.31c0,0.39,0.08,0.81-0.19,1.16c-0.53,0.06-0.58-0.36-0.58-0.69c-0.03-3.28-0.16-6.57,0.06-9.85
		c0.01-0.08,0.06-0.15,0.09-0.22c0.3-0.46,0.75-0.56,1.11-0.19C15.28,63.59,15.39,62.98,15.64,62.66z"/>
	<path class="st11" d="M13.49,93.37c-0.01,0.8-0.01,1.59-0.02,2.39c-0.02,1.21-0.19,1.33-1.43,1.02c-0.04-0.32-0.15-0.62-0.16-0.94
		c-0.29-10.92-0.22-21.84-0.2-32.76c0-0.2,0.04-0.4,0.11-0.59c0.81-0.9,1.1,0.13,1.58,0.44c0.07,0.14,0.1,0.28,0.09,0.44
		c0.02,2.57,0,5.15,0.01,7.72c0,0.44-0.02,0.87,0.11,1.3c0.43,4.85,0.23,9.71,0.19,14.56C13.75,89.09,13.62,91.23,13.49,93.37z"/>
	<path class="st12" d="M19.48,20.42c-0.99-2.18-2.39-4.13-3.52-6.23c-0.74-1.37-1.5-2.72-2.25-4.08c-0.48-0.19-0.61-0.57-0.59-1.05
		c0.04-1.23-0.06-2.45,0.05-3.67c0.39-0.33,0.61,0.01,0.75,0.25c1.91,3.21,3.98,6.33,5.54,9.75c0.88,1.63,0.36,3.4,0.51,5.1
		c0.01,0.12-0.05,0.24-0.2,0.15C19.64,20.59,19.56,20.5,19.48,20.42z"/>
	<path class="st13" d="M19.44,15.4c-2.17-3.25-3.97-6.73-6-10.06c-0.25-0.38-0.27-0.74,0.08-1.07c0.23-0.12,0.46-0.12,0.68,0
		c1.65,0.88,3.35,1.65,4.95,2.62c0.2,0.12,0.4,0.28,0.33,0.57C19.47,10.1,19.45,12.75,19.44,15.4z"/>
	<path class="st14" d="M12,62.16c0.02,8.85-0.02,17.71,0.11,26.56c0.03,2.31,0.09,4.62,0.13,6.93c0.01,0.38,0.12,0.8-0.2,1.14
		c-0.76-0.32-0.69-0.98-0.69-1.63c-0.01-7.03-0.03-14.07-0.05-21.1c0-0.44-0.02-0.88-0.03-1.32c-0.19-3.65-0.03-7.29-0.08-10.94
		c0-0.21-0.06-0.59,0.26-0.54C11.9,61.33,12.08,61.7,12,62.16z"/>
	<path class="st10" d="M13.7,30.03c0.18-0.48-0.45-1.39,0.57-1.39c0.87-0.01,1.39,0.44,1.37,1.51c-0.06,4.32-0.03,8.64-0.03,12.95
		c0,0.44,0.03,0.88-0.23,1.28c-1.1-0.02-1.38-0.74-1.45-1.66c-0.02-3.96,0.07-7.93-0.12-11.89C13.81,30.56,13.89,30.27,13.7,30.03z"
		/>
	<path class="st15" d="M13.21,30.04c0,4.08-0.01,8.16-0.01,12.23c-0.82-0.02-1.14-0.69-1.58-1.21c-0.06-0.12-0.1-0.25-0.12-0.39
		c-0.16-1.97,0.12-3.96-0.17-5.92c0.01-1.47-0.13-2.95,0.08-4.41C11.94,29.79,12.52,29.58,13.21,30.04z"/>
	<path class="st16" d="M10.55,26.65c-0.64,0.3-0.98,0.3-0.99-0.6c-0.03-6.37-0.1-12.74-0.17-19.11c-0.01-1,0.46-1.34,1.4-1.15
		c-0.36,0.53-0.33,1.13-0.33,1.73c0.02,5.35,0.25,10.7,0.24,16.06c0,0.88-0.01,1.75-0.12,2.62C10.57,26.35,10.56,26.5,10.55,26.65z"
		/>
	<path class="st17" d="M13.93,73.94c0-3.29,0-6.58,0-9.87c0.17,0,0.35,0,0.52,0c0,10.65,0,21.31,0,31.96
		c-0.7,0.76-0.51-0.01-0.51-0.32c-0.01-1.82-0.01-3.64-0.01-5.46c0-0.47-0.01-0.95-0.01-1.42c-0.27-0.35-0.21-0.76-0.21-1.15
		c0-4.2-0.01-8.39,0-12.59C13.71,74.7,13.65,74.29,13.93,73.94z"/>
	<path class="st18" d="M13.2,46.07c0.01,2.65,0.03,5.3,0.04,7.95c0.44,0.65,0.36,1.34,0.14,2.03c-1.14,0.37-1.36-0.59-1.81-1.24
		c-0.07-1.06-0.02-2.13-0.04-3.19c0.07-1.72-0.14-3.44-0.08-5.15c0.02-0.55-0.27-1.38,0.5-1.53C12.64,44.8,12.91,45.55,13.2,46.07z"
		/>
	<path class="st19" d="M15.62,48.26c-0.01,3.38-0.02,6.76-0.03,10.14c-0.88-0.17-1.43-0.71-1.7-1.55c-0.04-3.07-0.13-6.14,0.05-9.21
		c0.17-0.5,0.49-0.41,0.84-0.21C15.13,47.63,15.35,47.97,15.62,48.26z"/>
	<path class="st20" d="M10.58,26.2c-0.38-0.36-0.23-0.82-0.23-1.25c-0.01-3.47-0.03-6.95,0-10.42c0.02-2.51-0.39-5-0.26-7.52
		c0.03-0.58,0.12-1.01,0.7-1.23c0.02,1.08,0.04,2.16,0.05,3.23c0.07,5.63,0.14,11.26,0.2,16.89C10.89,26,10.73,26.1,10.58,26.2z"/>
	<path class="st21" d="M12.27,3.41c0.38,0.36,0.21,0.83,0.21,1.25c0.02,6.4,0.02,12.79,0.03,19.19c0,0.52-0.06,1.07,0.11,1.54
		c0.26,0.71-0.23,0.92-0.61,1.24c-0.31,0.02-0.46-0.14-0.46-0.44c0.12-0.16,0.21-0.34,0.21-0.55c-0.01-3.82,0.12-7.64-0.07-11.47
		c-0.07-2.11-0.26-4.27,0.05-6.33C11.97,6.37,11.45,4.8,12.27,3.41z"/>
	<path class="st1" d="M13.93,73.94c0,4.96,0,9.93-0.01,14.89c-0.46,0.9-0.1,1.87-0.22,2.8c-0.07,0.58,0.2,1.2-0.21,1.73
		c-0.02-7.03-0.03-14.06-0.05-21.09c-0.22-2.57-0.03-5.15-0.1-7.73c-0.01-0.47,0.11-0.95-0.11-1.41c-0.01-0.07-0.02-0.15-0.03-0.22
		c-0.11-0.17,0-0.27,0.12-0.37c0.09-0.04,0.19-0.06,0.3-0.07c0.1,0.01,0.2,0.04,0.29,0.09c0.08,0.08,0.1,0.17,0.07,0.27
		c-0.17,0.32-0.28,0.65-0.28,1.02c0.01,3.14,0.01,6.28,0.01,9.42C13.71,73.53,13.72,73.77,13.93,73.94z"/>
	<path class="st22" d="M11.77,51.62c0.01,1.11,0.02,2.23,0.03,3.34c0.16,0.54,0.06,1.12,0.24,1.66c0.08,1.01,0.22,2.03-0.1,3.03
		c-0.28,0.36-0.46,0.14-0.64-0.11c-0.01-3.58-0.02-7.16-0.03-10.74c-0.07-0.15-0.09-0.3-0.09-0.46c0.02-6.47-0.04-12.95,0.03-19.43
		c0.95,0.2,0.63,0.79,0.41,1.35c-0.02,1.51-0.04,3.02-0.06,4.52c0.21,1.66,0.03,3.33,0.1,5c0.02,0.43-0.13,0.88,0.13,1.28l0-0.01
		c0.19,1.35,0.03,2.67-0.07,4.02C11.57,47.24,11.53,49.44,11.77,51.62z"/>
	<path class="st23" d="M11.77,51.62c-0.35-3.52-0.41-7.05,0.03-10.57c0.47,0.41,0.93,0.81,1.4,1.22c0,1.26,0,2.53,0,3.79
		c-0.41-0.35-0.82-0.7-1.43-1.22C11.77,47.25,11.77,49.43,11.77,51.62z"/>
	<path class="st23" d="M15.62,48.26c-0.7-0.01-0.88-0.76-1.42-1c-0.21,0-0.36-0.1-0.48-0.26c-0.1-0.17-0.14-0.36-0.13-0.56
		c0.06-1.07-0.13-2.15,0.11-3.21c0.03-0.06,0.04-0.12,0.04-0.19c0.14-0.19,0.28-0.21,0.41,0.01c0.25,0.6,0.72,0.99,1.24,1.33
		C15.83,45.65,15.5,46.97,15.62,48.26z"/>
	<path class="st10" d="M13.46,62.66c-0.09,0.09-0.17,0.17-0.26,0.26c-0.55-0.03-0.75-0.59-1.21-0.77c-0.15-0.27-0.28-0.56-0.73-0.77
		c0,3.83,0,7.59,0,11.35c-0.03-0.03-0.07-0.06-0.07-0.09c-0.15-4.05-0.35-8.09,0.1-12.14c0.76-0.15,0.97,0.65,1.56,0.89
		c0.15-0.31,0.01-0.65,0.04-0.97c-0.04-0.93-0.02-1.85-0.03-2.78c0.06-0.48-0.07-1.01,0.33-1.41c0.01-0.74,0.03-1.47,0.04-2.21
		c0.07,0.01,0.15,0.01,0.22,0.01c0.33,0.3,0.33,0.71,0.33,1.1c0.02,2.14,0.01,4.28,0,6.42C13.79,61.95,13.76,62.35,13.46,62.66z"/>
	<path class="st24" d="M12.53,26.91c0.49-0.37,0.95-0.23,1.45,0.01c0.6,0.29,1.14,0.74,1.87,0.71c0.93,0.63,2.02,0.93,3.02,1.39
		c0.33,0.15,0.72,0.35,0.51,0.79c-0.17,0.37-0.56,0.24-0.84,0.09c-1.9-1.02-3.9-1.81-5.94-2.52C12.3,27.28,12.47,27.09,12.53,26.91z
		"/>
	<path class="st25" d="M12.27,3.41c0.01,1.11,0.31,2.32-0.04,3.3c-0.88,2.47-0.12,4.97-0.43,7.43c0.21,2.56,0.05,5.12,0.08,7.68
		c0,0.18-0.12,0.27-0.31,0.26c-0.01-6.15-0.01-12.31-0.02-18.46C11.8,3.56,12.03,3.48,12.27,3.41z"/>
	<path class="st26" d="M19.46,24.74c-1.1-1.7-2.21-3.39-3.3-5.1c-0.73-1.14-1.45-2.29-2.15-3.45c-0.15-0.25-0.42-0.52-0.16-0.95
		c1.94,2.75,3.55,5.67,5.61,8.29c0.17,0.32,0.34,0.65,0.51,0.97c0.12,0.18,0.12,0.39-0.07,0.48C19.7,25.09,19.57,24.9,19.46,24.74z"
		/>
	<path class="st27" d="M14.15,43.05c-0.14,0-0.27-0.01-0.41-0.01c-0.01-4.34-0.03-8.67-0.04-13.01c0.49,1.11,0.37,2.33,0.42,3.48
		C14.27,36.68,14.16,39.87,14.15,43.05z"/>
	<path class="st23" d="M11.31,28.85c-0.01,6.65-0.02,13.3-0.03,19.95c-0.27-0.44-0.15-0.93-0.16-1.4
		c-0.02-6.17-0.03-12.35-0.04-18.53C11.15,28.75,11.22,28.74,11.31,28.85z"/>
	<path class="st28" d="M13.46,62.66c0-2.88,0-5.76,0-8.64c0-3.19,0-6.37,0.01-9.56c0-0.42-0.16-0.89,0.23-1.24
		c0.01,1.18,0.03,2.36,0.04,3.54c0.15,0.42,0.2,0.85,0.2,1.29c-0.02,4.3,0.01,8.6,0.09,12.9c0.01,0.59,0.11,1.21-0.34,1.71l-0.11,0
		L13.46,62.66z"/>
	<path class="st29" d="M9.92,30.53c-0.42,0.07-0.84,0.14-1.26,0.21c-0.23-0.15-0.44-0.34-0.69-0.46c-0.75-0.38-0.3-0.7,0.09-0.89
		c0.67-0.33,1.38-0.57,2.08-0.85C10.85,29.45,10.79,30.02,9.92,30.53z"/>
	<path class="st30" d="M15.64,58.58c0.47,1.31-0.25,2.6-0.06,3.9c-0.92-0.03-1.4-0.56-1.62-1.4c0.05-0.75-0.18-1.51,0.17-2.24
		c0.25-0.21,0.53-0.18,0.74,0.01C15.33,59.28,15.41,58.75,15.64,58.58z"/>
	<path class="st31" d="M11.57,22.09c0.42-0.75,0.17-1.55,0.19-2.33c0.05-1.87,0.03-3.74,0.03-5.61c0.28,0.35,0.18,0.76,0.19,1.15
		c0.02,3.25,0.04,6.5,0.02,9.75c0,0.4,0.31,1.01-0.46,1.14C11.56,24.82,11.57,23.45,11.57,22.09z"/>
	<path class="st32" d="M19.48,7.45c-1.84-1.2-3.79-2.21-5.77-3.17c-0.36-0.07-0.78-0.09-0.48-0.64c2.02,0.98,4.04,1.95,6.06,2.93
		c0.27,0.13,0.41,0.36,0.45,0.65C19.66,7.3,19.57,7.38,19.48,7.45z"/>
	<path class="st33" d="M11.31,28.85l-0.12-0.01c0,0-0.11,0.03-0.11,0.03c0.02-0.03,0.03-0.09,0.06-0.1
		c1.97-1.04,2.11-0.95,2.07,1.27c-0.56-0.15-1.04,0.24-1.58,0.22C11.42,29.81,11.82,29.23,11.31,28.85z"/>
	<path class="st34" d="M19.46,24.74c0.28,0.16,0.49,0.17,0.5-0.23c0.06,1.34,0.16,2.68,0.18,4.02c0.01,0.43-0.34,0.47-0.69,0.29
		C19.46,27.46,19.46,26.1,19.46,24.74z"/>
	<path class="st35" d="M14.17,61.28c0.37,0.52,0.89,0.86,1.41,1.2c0.01,0.06,0.03,0.12,0.05,0.18c0,0.42,0,0.84,0,1.33
		c-0.75-0.27-1.01-0.98-1.65-1.15c-0.01-0.06-0.04-0.12-0.07-0.17c-0.17-0.46-0.08-0.92-0.06-1.39
		C13.96,61.15,14.06,61.15,14.17,61.28z"/>
	<path class="st36" d="M15.64,58.58c-0.02,0.34-0.04,0.68-0.06,1.04c-0.56-0.1-0.73-0.65-1.16-0.81c-0.29-0.1-0.52-0.27-0.58-0.6
		c0.01-0.35-0.05-0.71,0.05-1.06c0.1-0.09,0.2-0.1,0.32-0.04c0.46,0.42,0.93,0.85,1.39,1.27C15.6,58.46,15.62,58.52,15.64,58.58z"/>
	<path class="st23" d="M13.22,60.75c0,0.35,0,0.69,0,1.09c-0.91-0.19-1.25-0.99-1.92-1.33c0-0.32,0.01-0.64,0.01-0.97
		c0.17,0.08,0.34,0.15,0.51,0.23C12.62,59.64,12.9,60.22,13.22,60.75z"/>
	<path class="st37" d="M10.09,27.39c0.24-0.16,0.49-0.33,0.73-0.49c0.41,0.28,0.95,0.36,1.31,0.82c-0.39,0.21-0.75,0.4-1.11,0.59
		C10.75,27.97,10.04,28.07,10.09,27.39z"/>
	<path class="st38" d="M10.09,27.39c0.31,0.31,0.62,0.61,0.93,0.92c-0.39-0.14-0.78-0.28-1.17-0.42
		C9.55,27.54,9.71,27.42,10.09,27.39z"/>
	<path class="st39" d="M8.87,25.21c-1.19,0.8-2.6,1.1-3.91,1.62C4.54,27,4.28,26.75,4.05,26.46c-0.39-0.49-0.01-0.87,0.22-1.27
		c1.5-0.44,3.08-0.64,4.37-1.63c0.08-0.02,0.15-0.02,0.23-0.01C8.87,24.11,8.87,24.66,8.87,25.21z"/>
	<path class="st40" d="M9.37,28.11c-0.88,0.82-2.01,1.01-3.12,1.16c-0.52,0.07-1.11-0.2-1.2-0.9c1.04-1.07,2.33-1.52,3.8-1.49
		C8.89,27.34,8.96,27.8,9.37,28.11z"/>
	<path class="st41" d="M6.03,7.47c-1.15-0.5-1.2-0.94-0.24-1.92C6.4,5.3,7.04,5.14,7.71,5.21c0.4,0.04,0.9-0.02,0.97,0.59
		C8.44,6.2,8.68,6.6,8.7,7C8.68,7.37,8.41,7.46,8.13,7.45C7.42,7.42,6.73,7.58,6.03,7.47z"/>
	<path class="st42" d="M3.83,22.09c1.47-0.99,3.13-1.32,4.86-1.42c0.01,0.15,0.01,0.31,0.02,0.46c-0.03,0.15-0.05,0.31-0.08,0.46
		c-1.29,0.75-2.76,0.88-4.18,1.17C4.04,22.85,3.63,22.69,3.83,22.09z"/>
	<path class="st43" d="M8.85,26.87c-1.29,0.44-2.59,0.84-3.8,1.49c-0.51-0.48-0.14-0.89,0.24-1.03c1.2-0.45,2.29-1.19,3.59-1.37
		C8.87,26.27,8.86,26.57,8.85,26.87z"/>
	<path class="st44" d="M6.03,7.47C6.87,7.05,7.88,7.56,8.7,7c0.4,2.15,0.14,4.31,0.16,6.47c-0.08,0.08-0.17,0.14-0.28,0.18
		c-0.11,0.02-0.22,0.02-0.34,0c-0.23-0.08-0.41-0.19-0.32-0.48c0.33-0.39,0.5-0.83,0.43-1.34c-0.01-0.49-0.01-0.98,0.27-1.41
		c0.01-0.19,0.01-0.39,0.02-0.58C8.38,9.55,8.37,9.2,8.36,8.84C8.33,8.47,8.39,8.09,8.22,7.73C7.5,7.53,6.71,7.96,6.03,7.47z"/>
	<path class="st45" d="M8.68,5.8C7.76,5.25,6.74,5.73,5.79,5.55c1.14-1.12,2.54-0.7,3.88-0.63c0.07,0,0.13,0.25,0.2,0.38
		C9.49,5.51,9.14,5.79,8.68,5.8z"/>
	<path class="st46" d="M8.6,13.51c0.09-0.01,0.17-0.02,0.26-0.04c0,1.12-0.01,2.23-0.01,3.35c-0.06,0-0.13,0-0.19,0
		c-0.01-0.24-0.01-0.49-0.02-0.73C8.15,15.23,8.17,14.37,8.6,13.51z"/>
	<path class="st47" d="M13.23,3.64c-0.05,0.37,0.3,0.44,0.48,0.64c-0.37,0.28-0.22,0.69-0.27,1.05c-0.27,1.61-0.57,3.23,0.26,4.78
		c-0.42,0.34-0.23,0.81-0.23,1.22c-0.01,4.45,0,8.9-0.01,13.36c0,0.42,0.17,0.88-0.23,1.24c0,0-0.04,0.01-0.04,0.01
		C13,22.52,13.16,19.1,13.1,15.68c-0.01-0.43,0.1-0.88-0.1-1.29c0-3.13,0-6.26,0.02-9.39C13.02,4.54,12.84,4.04,13.23,3.64z"/>
	<path class="st1" d="M13,14.39c0.28,0.35,0.19,0.76,0.19,1.15c0.01,3.47,0,6.93,0,10.4c-0.3-0.29-0.2-0.67-0.2-1.02
		C12.99,21.41,12.99,17.9,13,14.39z"/>
	<path class="st8" d="M3.83,22.09c0.11,0.6,0.47,0.44,0.89,0.36c1.31-0.27,2.56-0.83,3.92-0.85c0.32,1.18-0.17,1.79-1.34,1.94
		c-0.31,0.04-0.61,0.15-0.91,0.25c-1.67,0.56-1.76,0.52-2.68-1C3.66,22.54,3.58,22.28,3.83,22.09z"/>
	<path class="st48" d="M8.65,23.56c0,0.12,0.05,0.27,0,0.35c-0.4,0.6-3.62,1.53-4.37,1.28C5.53,24.12,7.19,24.11,8.65,23.56z"/>
	<path class="st49" d="M8.6,13.51c0.01,0.86,0.03,1.72,0.04,2.58c-1.33,0.17-2.65,0.36-3.98,0.49C4.35,16.61,3.95,17,3.71,16.55
		c-0.19-0.35-0.1-0.76,0.13-1.13c0.12-0.2,0.2-0.43,0.29-0.64c0.15-0.13,0.3-0.26,0.45-0.4c1.23-0.61,2.55-0.8,3.9-0.89
		C8.51,13.51,8.56,13.52,8.6,13.51z"/>
	<path class="st50" d="M8.62,10.41c0,0.53,0.01,1.06,0.01,1.6c-1.4,0.83-2.93,1.14-4.53,1.21c-0.37-1.27-0.11-1.79,1.04-2.05
		C6.3,10.91,7.46,10.66,8.62,10.41z"/>
	<path class="st51" d="M8.22,7.73C8.87,7.81,8.62,8.3,8.64,8.66C8.47,9.08,8.09,9.23,7.7,9.29c-1.18,0.17-2.28,0.88-3.54,0.52
		c0.29-1.53,0.6-1.8,2.05-1.89C6.88,7.87,7.57,7.98,8.22,7.73z"/>
	<path class="st52" d="M4.1,13.22c1.46-0.59,3.01-0.85,4.53-1.21c0.11,0.59,0.07,1.1-0.65,1.26c-0.84,0.67-1.89,0.64-2.87,0.84
		c-0.24,0.05-0.42-0.17-0.53-0.39C4.42,13.55,4.26,13.39,4.1,13.22z"/>
	<path class="st29" d="M4.16,9.81c1.49-0.38,2.99-0.77,4.48-1.15c0,0.39,0,0.78,0,1.18c-1.04,0.22-2.09,0.4-3.12,0.66
		C4.84,10.66,4.36,10.55,4.16,9.81z"/>
	<path class="st46" d="M4.58,13.71c1.2,0.39,2.27-0.31,3.4-0.45c0.16,0.08,0.33,0.15,0.49,0.22c-1.25,0.5-2.55,0.81-3.9,0.89
		C4.42,14.16,4.45,13.94,4.58,13.71z"/>
	<path class="st53" d="M3.87,20.18c-0.31-1.23-0.05-1.67,1.14-1.96c0.74-0.18,1.47-0.36,2.21-0.52c1.54-0.34,1.54-0.33,1.48,1.27
		c-0.01,0.16-0.05,0.31-0.07,0.47C7.1,20.07,5.53,20.43,3.87,20.18z"/>
	<path class="st54" d="M3.87,20.18c1.58-0.27,3.15-0.66,4.76-0.74c0.16,0.56-0.17,0.66-0.62,0.75c-0.78,0.16-1.56,0.35-2.3,0.64
		C4.85,21.18,4.26,21.02,3.87,20.18z"/>
	<path class="st10" d="M13.23,63.14c0.29,0.24,0.23,0.58,0.23,0.89c0,2.75-0.01,5.5-0.01,8.25c-0.32-0.33-0.21-0.75-0.21-1.14
		C13.23,68.48,13.23,65.81,13.23,63.14z"/>
	<path class="st23" d="M11.8,41.06c-0.51-0.58-0.22-1.28-0.24-1.92c-0.04-1.45,0-2.91,0.01-4.36c0.41,1.56,0.1,3.15,0.2,4.73
		C11.79,40.03,11.79,40.54,11.8,41.06z"/>
	<path class="st23" d="M13.2,56.23c0,0.45,0,0.89,0,1.34c-0.85,0.11-1.05-0.59-1.38-1.12c-0.53-0.48-0.25-0.98-0.03-1.48
		C12.27,55.39,12.73,55.81,13.2,56.23z"/>
	<path class="st55" d="M14.2,57.12c-0.09-0.01-0.18-0.02-0.27-0.03c-0.15-3.36-0.2-6.72,0.02-10.08c0.08,0.08,0.16,0.17,0.25,0.25
		C14.2,50.54,14.2,53.83,14.2,57.12z"/>
	<path class="st10" d="M13.95,47.01c-0.01,3.36-0.02,6.72-0.02,10.08c0.01,0.42,0.01,0.83,0.02,1.25c0.2,0.97,0.17,1.95,0.01,2.92
		c-0.01,0.47-0.03,0.94-0.04,1.41c-0.07,0-0.15-0.01-0.22-0.01c0.02-5.3,0.03-10.6,0.05-15.9C13.81,46.85,13.88,46.93,13.95,47.01z"
		/>
	<path class="st56" d="M11.83,56.45c0.46,0.38,0.92,0.75,1.38,1.13c0,1.06,0.01,2.12,0.01,3.18c-0.46-0.33-0.93-0.65-1.39-0.98
		C11.82,58.67,11.83,57.56,11.83,56.45z"/>
	<path class="st57" d="M13.95,61.26c0-0.97-0.01-1.95-0.01-2.92c0.16,0.16,0.31,0.31,0.47,0.47c-0.48,0.78-0.09,1.66-0.24,2.47
		c0,0-0.11-0.02-0.11-0.02L13.95,61.26z"/>
</g>
</svg>
