<?xml version="1.0" encoding="utf-8"?>
<!-- Generator: Adobe Illustrator 23.0.2, SVG Export Plug-In . SVG Version: 6.00 Build 0)  -->
<svg version="1.1" id="Camada_1" xmlns="http://www.w3.org/2000/svg" xmlns:xlink="http://www.w3.org/1999/xlink" x="0px" y="0px"
	 viewBox="0 0 58.17 52.68" style="enable-background:new 0 0 58.17 52.68;" xml:space="preserve">
<style type="text/css">
	.st0{fill:#FEFEFE;}
	.st1{fill:#010000;}
	.st2{fill:#452206;}
	.st3{fill:#FEB900;}
	.st4{fill:#BB7C16;}
	.st5{fill:#C08015;}
	.st6{fill:#FDB900;}
	.st7{fill:#FDFBF4;}
	.st8{fill:#FEFDFB;}
	.st9{fill:#FDBA01;}
	.st10{fill:#FDFAF2;}
	.st11{fill:#BC7C16;}
	.st12{fill:#FAF8F4;}
	.st13{fill:#F2ECE2;}
	.st14{fill:#BE7E16;}
	.st15{fill:#F1B90B;}
	.st16{fill:#F1BC03;}
	.st17{fill:#754904;}
	.st18{fill:#BF7E15;}
	.st19{fill:#B87817;}
	.st20{fill:#FEFBF1;}
	.st21{fill:#442105;}
</style>
<g>
	<path class="st0" d="M17.29,38.29c1,0.31,1.43,1.06,1.73,1.98c0.66,2.05,1.43,4.06,2.48,5.95c0.81,1.48,0.43,2.74-0.96,3.75
		c-1.34,0.97-2.91,1.26-4.47,1.6c-1.44,0.31-2.87,0.67-4.31,0.96c-2.81,0.55-5.44-0.32-7.91-1.6c-0.95-0.49-1.02-1.75-1.64-2.58
		c-2.09-2.83-2.45-6.23-2.09-9.49c0.33-2.93,1.87-5.59,4.32-7.5c5.05-3.93,10.63-6.69,17.05-7.53c0.87-0.11,1.72-0.38,2.58-0.47
		c0.94-0.1,0.96-0.47,0.61-1.22c-1.79-3.8-1.87-7.62-0.04-11.43c0.97-2.01,2.3-3.72,4.25-4.89c2.16-1.29,4.23-2.71,6.47-3.86
		c4.57-2.36,9.27-2.49,14.03-0.82c2.31,0.81,3.73,2.65,4.56,4.94c0.83,2.29,1.64,4.58,2.48,6.86c0.29,0.78,0.64,1.53,1.15,2.22
		c0.84,1.14,0.59,2.4,0.22,3.67c-1.47,5-4.96,8.23-9.24,10.84c-4.35,2.65-9.19,3.76-14.08,4.75c-1.37,0.27-2.76,0.98-4.07,0.84
		c-1.68-0.18-3.15,0.28-4.68,0.63c-2.83,0.64-5.63,1.4-8.44,2.12C17.3,38.08,17.3,38.19,17.29,38.29z"/>
	<path class="st1" d="M9.99,40.84c2.11,0.1,3.99,0.06,5.65-1.21c0.79-0.6,1.81-0.23,2.13,0.68c0.78,2.25,1.56,4.5,2.75,6.59
		c0.44,0.76,0.2,1.46-0.51,1.99c-1.02,0.74-2.19,1.08-3.41,1.37c-1.66,0.39-3.35,0.7-5.01,1.09C9.13,51.91,6.82,50.97,4.58,50
		c-0.1-0.04-0.19-0.15-0.25-0.25c-2.15-3.14-3.42-6.61-3.09-10.4c0.22-2.48,1.35-4.84,3.31-6.45c3.17-2.59,6.5-4.91,10.49-6.25
		c3.57-1.2,7.28-1.62,10.9-2.5c0.84-0.2,0.82-0.42,0.5-1.05c-1.11-2.18-2.06-4.46-1.92-6.94c0.22-3.98,1.75-7.32,5.28-9.51
		c2.13-1.32,4.21-2.75,6.47-3.84c4.21-2.03,8.56-2.11,12.88-0.51c1.87,0.69,3,2.28,3.69,4.17c1.03,2.83,1.86,5.75,3.2,8.46
		c0.47,0.96,1.19,1.77,0.84,2.95c-0.79,2.63-1.97,5.05-3.98,6.97c-3.4,3.26-7.4,5.46-11.91,6.82c-3.4,1.02-6.89,1.97-10.35,2.28
		c-4.28,0.39-8.3,1.58-12.37,2.64C15.32,37.36,12.28,38.24,9.99,40.84z"/>
	<path class="st2" d="M44.19,2.47c1.34,0.08,3.65,0.1,5.64,1.58c1.09,0.81,1.59,1.96,2.06,3.15c1.24,3.14,2.07,6.45,3.7,9.44
		c0.2,0.36,0.05,0.68-0.02,1.03c-0.74,3.73-3.05,6.35-6,8.48c-4.59,3.31-9.8,5.07-15.37,5.83c-4.53,0.62-8.98,1.61-13.43,2.68
		c-2.69,0.64-5.25,1.6-7.82,2.55c-2.01,0.74-3.48,2.35-5.01,3.81c-0.51,0.49-0.35,0.79,0.35,0.87c2.56,0.31,5.12,0.47,7.44-0.89
		c0.83-0.49,1.05-0.17,1.27,0.48c0.63,1.94,1.27,3.87,2.26,5.66c0.39,0.7-0.11,0.95-0.57,1.18c-1.74,0.86-3.66,1.04-5.53,1.39
		c-1.42,0.27-2.83,0.49-4.34,0.35c-2.04-0.19-3.36-1.13-4.45-2.7c-1.16-1.65-1.46-3.51-1.78-5.47c-0.52-3.22,0.61-5.71,2.61-7.96
		c1.23-1.38,2.91-2.2,4.41-3.26c3.98-2.81,8.57-3.81,13.22-4.68c1.68-0.31,3.35-0.67,5.03-0.96c0.82-0.14,0.59-0.5,0.34-0.99
		c-1.05-2.01-2.06-4.04-2.39-6.33c-0.49-3.34,1.15-8,4.4-9.96c2.18-1.32,4.32-2.71,6.57-3.92C38.78,2.72,40.97,2.41,44.19,2.47z"/>
	<path class="st3" d="M47.13,3.75c0.72,0.19,1.44,0.35,2.01,0.88c0.61,0.58,0.95,1.29,1.09,2.11c0.02,0.12,0.03,0.24,0.02,0.36
		c-0.04,0.58,0.17,1.41-0.55,1.54c-0.69,0.13-0.63-0.77-0.88-1.22c-0.25-0.45-0.42-0.95-0.95-1.33c0.9,1.16,1.27,2.42,1.39,3.75
		c0.09,1.08-0.3,2.05-1.06,2.83c-3.33,3.46-7.09,6.29-11.55,8.18c-2.44,1.04-4.78,0.39-7.15-0.11c-2.57-1.53-3.39-3.21-2.92-6.01
		c0.57-1.64,1.74-2.82,2.99-3.94c0.25-0.23,0.58-0.61,0.91-0.33c0.35,0.3,0,0.66-0.21,0.93c-0.59,0.76-1.14,1.54-1.42,2.48
		c-0.26,0.89-0.3,1.77,0.19,2.69c-0.65-1.87,0.06-3.35,1.05-4.76c2.18-3.13,5.05-5.35,8.6-6.78c2.16-0.87,4.29-1.7,6.69-1.49
		C45.96,3.58,46.52,3.92,47.13,3.75z"/>
	<path class="st3" d="M26.41,25.98c2.48-0.61,5.04-0.78,7.49-1.54c5.3-1.64,10.08-4.18,14.15-7.98c0.55-0.51,0.97-1.15,1.45-1.73
		c0.57,0.12,0.37,0.56,0.26,0.83c-1.07,2.73-1.74,5.6-2.78,8.34c-0.03,0.07-0.1,0.12-0.16,0.17c-0.1,0.07-0.19,0.15-0.29,0.22
		c-0.22,0.59,0.31,1.48-0.71,1.74c-0.32-0.5-0.64-0.99-0.97-1.48c-0.11-0.17-0.27-0.31-0.49-0.2c-0.29,0.14-0.24,0.36-0.11,0.59
		c0.14,0.24,0.27,0.48,0.41,0.72c0.88,1.51,0.88,1.51-0.72,2.32c-0.54-0.03-0.65-0.47-0.85-0.85c0.01,0.35,0.49,0.56,0.28,0.96
		c-0.61,0.62-1.11,0.71-1.45-0.27c-0.11-0.31-0.21-0.67-0.55-0.83c-0.32,0.27-0.09,0.47-0.04,0.69c0.09,0.41,0.69,0.85,0.35,1.15
		c-0.45,0.4-1.13,0.55-1.73,0.75c-0.33,0.11-0.33-0.25-0.41-0.46c-0.19-0.53-0.36-1.06-0.57-1.58c-0.09-0.24-0.17-0.59-0.57-0.41
		c-0.36,0.16-0.24,0.44-0.14,0.71c0.15,0.41,0.3,0.82,0.42,1.25c0.11,0.37,0.52,0.77-0.24,1.01c-0.59,0.18-0.96,0.2-1.2-0.45
		c-0.11-0.29-0.18-0.69-0.68-0.79c-0.06,0.62,0.43,0.98,0.51,1.47c-1.29,1.11-1.85,0.09-2.35-1.08c-0.37,0.8,0.31,1.15,0.22,1.66
		c-1.1,0.24-1.1,0.24-3.34-1.71c-0.26,0.21-0.05,0.42-0.03,0.64c0.06,0.5,0.84,1.08,0.25,1.42c-0.69,0.39-1.66,0.76-2.26-0.35
		c-0.06-0.11-0.25-0.15-0.4-0.23c-0.3,0.51,0.38,0.67,0.34,1.05c-1.08,0.71-1.64,0.26-1.76-0.91c-0.5,0.28-0.28,0.52-0.22,0.71
		c0.15,0.49,0,0.78-0.51,0.85c-0.43,0.06-0.89,0.39-1.18-0.34c-0.27-0.66-0.25-1.54-1.12-1.85c-0.22-0.35-0.1-0.72,0.06-1.01
		C25.38,28.15,25.5,26.86,26.41,25.98z"/>
	<path class="st4" d="M3.44,39.68c1.48-5.35,5.26-8.39,10.19-10.41c2.05-0.84,4.11-1.5,6.26-1.92c0.35,0.47-0.01,0.83-0.21,1.19
		c-1.03,1.9-2.12,3.78-3.22,5.65c-0.14,0.25-0.34,0.43-0.65,0.47c-0.17-0.15-0.34-0.31-0.52-0.47c-0.27,0.3,0.02,0.46,0.09,0.65
		c0.11,0.28,0.43,0.55-0.12,0.73c-0.36,0.12-0.65,0.2-0.93-0.19c-0.25-0.34-0.3-1.2-0.85-0.89c-0.5,0.27,0.23,0.78,0.29,1.21
		c0.13,0.84-0.7,0.87-1.08,0.93c-0.87,0.15-1.7,0.8-2.03,1.2c-0.83,0.99-1.08,0.5-1.54-0.13c-0.06-0.08-0.2-0.11-0.34-0.17
		c-0.05,0.12-0.12,0.22-0.12,0.32c-0.02,0.48,0.68,0.87,0.37,1.31C8.44,40,7.74,40.77,7,41.49c-0.23,0.22-0.69,0.15-0.99-0.13
		C5.2,40.73,4.17,40.44,3.44,39.68z"/>
	<path class="st4" d="M46.82,24.07c0.52-2.69,1.49-5.24,2.36-7.83c0.16-0.49,0.58-0.93,0.32-1.52c0.74-1.25,1.66-2.39,2.08-3.81
		c0.88,1.29,0.91,2.85,1.38,4.27c0.19,0.58,0.52,1.18,0.26,1.85c-0.8,0.81,0.23,1.35,0.3,2.03c0.03,0.29,0.42,0.57,0.07,0.86
		c-0.28,0.23-0.37-0.39-0.69-0.22c0.46,1.02,0.11,1.65-1.65,2.98c-0.31-0.46-0.62-0.92-0.94-1.37c-0.03-0.05-0.14-0.04-0.27-0.08
		c-0.24,0.57,0.17,0.98,0.38,1.39c0.25,0.51,0.13,0.78-0.23,1.23c-0.99,1.21-1.43,0.15-2.08-0.57c-0.04,0.64,0.32,0.89,0.51,1.2
		c0.33,0.55-0.15,0.69-0.41,0.95c-0.38,0.38-0.52,0.03-0.69-0.25C47.29,24.8,47.06,24.44,46.82,24.07z"/>
	<path class="st5" d="M29.5,20.75c0.97-0.21,1.94,0.01,2.83,0.24c2.35,0.6,4.32-0.38,6.25-1.36c3.62-1.83,6.75-4.34,9.52-7.3
		c1.33-1.43,1.09-4.24-0.46-6.05c-0.22-0.26-0.46-0.51-0.78-0.87c1.94,0.28,2.21,1.85,2.78,3.26c0.46-0.69,0.2-1.36,0.32-1.96
		c1.03,0.44,0.63,1.49,0.94,2.24c-0.73,3.54-2.32,6.49-5.57,8.37c-2.87,1.66-5.71,3.38-8.97,4.17c-1.68,0.41-3.37,0.6-5.09,0.19
		C30.59,21.52,29.98,21.26,29.5,20.75z"/>
	<path class="st6" d="M10.47,47.11c-0.59-0.12-0.92-0.11-0.66,0.7c0.13,0.41,0.99,0.94,0.15,1.35c-0.83,0.4-1.33-0.11-1.49-0.97
		c-0.03-0.16-0.12-0.29-0.35-0.25c-0.27,0.37,0.22,0.74-0.03,1.25c-0.54-0.49-0.67-1.15-0.98-1.69c-0.15-0.26-0.25-0.72-0.64-0.57
		c-0.47,0.18-0.07,0.53,0,0.8c0.07,0.3,0.2,0.59,0.32,0.9c-1.89-0.99-3.88-5.01-3.56-7.39c2.22,1.79,4.84,1.69,7.41,1.83
		C11.08,44.43,11.34,45.8,10.47,47.11z"/>
	<path class="st7" d="M47.13,3.75c-1.02,0.28-2.04-0.06-3.08,0.04c-3.92,0.38-7.27,2.23-10.34,4.4c-1.61,1.13-2.95,2.89-3.96,4.73
		c-0.78,1.41-1.07,2.82-0.03,4.31c-2.06-0.88-1.83-2.82,0.88-6.96c-1.46,1.23-2.63,2.25-3.4,3.66c-0.17,0.3-0.2,0.71-0.62,0.81
		c0.13-1.18,0.53-2.29,1.27-3.19c2.99-3.64,6.6-6.49,11.13-7.93C41.66,2.76,44.42,3.11,47.13,3.75z"/>
	<path class="st6" d="M12.76,42.78c0.72-0.24,1.52-0.36,2.13-0.76c1.05-0.7,1.28-0.18,1.56,0.72c0.43,1.42,1.22,2.68,1.91,3.99
		c0.14,0.27,0.71,0.59,0.05,0.95c-0.49,0.27-0.86,0.3-1.14-0.3c-0.13-0.28-0.17-0.72-0.66-0.74c-0.17,0.33,0.17,0.5,0.22,0.75
		c0.06,0.28,0.55,0.56,0.13,0.81c-0.34,0.21-0.8,0.35-1.19-0.09c-0.35-0.39-0.65-0.8-0.88-1.27c-0.09-0.19-0.25-0.33-0.47-0.19
		c-0.17,0.11-0.09,0.28-0.04,0.43c0.05,0.15,0.16,0.31,0.15,0.45c-0.03,0.41,0.92,0.9-0.01,1.22c-0.62,0.21-1.45,0.55-1.6-0.65
		c-0.03-0.26-0.16-0.54-0.48-0.64C11.91,45.85,12.25,44.31,12.76,42.78z"/>
	<path class="st8" d="M26.41,25.98c-0.56,1.41-1.12,2.82-1.69,4.22c-0.33,0.15-0.22,0.44-0.22,0.7c-0.04,0.59-0.01,1.21-0.73,1.46
		c-0.26-0.14-0.2-0.64-0.64-0.59c-0.53,0.47,1.11,1.02-0.09,1.54c-1.32,0.57-1.02-0.77-1.75-1.44c0.35,1.49,0.16,2.42-1.42,2.05
		c0.32-2.63,1.35-4.99,2.79-7.19C23.89,26.35,25.13,26.1,26.41,25.98z"/>
	<path class="st9" d="M22.67,26.73c-0.97,2.38-1.99,4.74-2.79,7.19c-0.22-0.55-0.43-1.1-0.66-1.64c-0.1-0.25-0.28-0.4-0.56-0.27
		c-0.29,0.14-0.22,0.38-0.13,0.61c0.08,0.18,0.22,0.36,0.23,0.55c0.02,0.41,0.88,0.81,0.05,1.24c-0.75,0.39-1.29,0.24-1.47-0.66
		c-0.03-0.17-0.13-0.28-0.34-0.26c-0.53,0.44,0.95,1.26-0.29,1.57c-0.42,0.11-0.8,0.21-0.89-0.39c1.5-2.36,2.85-4.79,4.07-7.31
		C20.79,27.04,21.72,26.84,22.67,26.73z"/>
	<path class="st10" d="M12.76,42.78c-0.11,1.56-0.23,3.12-0.34,4.68c-0.27,0.53,0.77,1.26-0.15,1.61c-1.02,0.38-1-0.75-1.42-1.23
		c-0.18-0.2-0.26-0.48-0.39-0.73c0.06-1.35,0.12-2.7,0.17-4.05C11.35,42.97,12.05,42.88,12.76,42.78z"/>
	<path class="st11" d="M36.54,22.5c-1.44,0.93-3.09,1.25-4.73,1.49c-0.85,0.12-1.83,0.79-2.49,0.33c-0.63-0.45-0.85-1.49-1.24-2.27
		c-0.19-0.38-0.37-0.77-0.5-1.25C30.27,23.01,33.34,23,36.54,22.5z"/>
	<path class="st12" d="M53.22,17.03c-0.65-2.01-1.27-4.03-1.64-6.12c0.07-0.25,0.14-0.49,0.21-0.74c1,2.8,2.74,5.34,2.69,8.38
		c-0.13,0.04-0.26,0.09-0.39,0.13C53.8,18.14,53.51,17.58,53.22,17.03z"/>
	<path class="st13" d="M50.9,8.95c-0.31-0.75-0.63-1.49-0.94-2.24c-0.27-0.69-0.54-1.39-0.81-2.08C50.67,5.68,51.29,7.11,50.9,8.95z
		"/>
	<path class="st14" d="M45.82,26.03c0.47-0.49,0.31-1.23,0.71-1.74c0.18,0.35,0.31,0.74,0.55,1.05c0.44,0.58,0.07,0.82-0.36,1.12
		C46.14,26.87,45.96,26.51,45.82,26.03z"/>
	<path class="st15" d="M23.78,32.36c0.24-0.49,0.48-0.97,0.73-1.46c0.14,0.33,0.34,0.65,0.38,0.99c0.04,0.32,0.63,0.72-0.03,0.99
		C24.35,33.09,23.91,33,23.78,32.36z"/>
	<path class="st16" d="M3.44,39.68c0.92,0.46,1.88,0.86,2.57,1.69C5.02,41,3.96,40.76,3.44,39.68z"/>
	<path class="st17" d="M43.38,28.09c-0.3-0.57-0.7-1.1-0.82-1.93c0.86,0.47,0.7,1.47,1.39,1.82C43.79,28.16,43.59,28.12,43.38,28.09
		z"/>
	<path class="st18" d="M40.77,7.52c0.36,0,0.74-0.08,1.07,0.01c0.89,0.24,1.97,0.17,2.35,1.33c0.47,1.47,0.22,2.84-1.02,3.75
		c-1.54,1.13-3.07,2.28-4.78,3.17c-1.36,0.71-3.62,0.36-4.7-0.66c-0.7-0.66-0.79-1.44-0.37-2.17c1.28-2.21,2.54-4.45,5.33-5.15
		C39.37,7.63,40.05,7.48,40.77,7.52z"/>
	<path class="st19" d="M45.04,5.71c2.42,2.05,2.73,5.26,1.04,7.51c-2.42,3.22-5.93,4.48-9.51,5.64c-0.05-0.09-0.1-0.19-0.16-0.28
		c1.44-0.71,2.84-1.5,4.32-2.11c2.13-0.87,3.69-2.36,4.81-4.3c0.82-1.42,0.81-2.97,0.28-4.51C45.61,7.12,45.38,6.58,45.04,5.71z"/>
	<path class="st20" d="M31.79,13.05c0.51-3.18,4.12-6.13,7.99-6.62c-1.53,0.86-3.14,1.59-4.52,2.69
		C33.88,10.22,32.79,11.59,31.79,13.05z"/>
	<path class="st21" d="M35.91,14.69c-0.61-0.2-1.4,0.01-1.72-0.66c-0.35-0.74-0.14-1.51,0.42-2.1c1.63-1.76,3.54-3.07,5.93-3.57
		c0.86-0.18,1.75-0.12,2.22,0.7c0.47,0.8,0.22,1.68-0.41,2.31C40.56,13.15,38.43,14.31,35.91,14.69z"/>
	<path class="st11" d="M35.87,13.74c-0.59-0.05-1.03,0.08-1.18-0.35c-0.11-0.32,0.11-0.62,0.32-0.86c1.42-1.56,3.11-2.73,5.15-3.33
		c0.65-0.19,1.48-0.23,1.83,0.44c0.36,0.68-0.28,1.13-0.8,1.54C39.55,12.51,37.74,13.45,35.87,13.74z"/>
</g>
</svg>
