<?xml version="1.0" encoding="utf-8"?>
<!-- Generator: Adobe Illustrator 23.0.2, SVG Export Plug-In . SVG Version: 6.00 Build 0)  -->
<svg version="1.1" id="Camada_1" xmlns="http://www.w3.org/2000/svg" xmlns:xlink="http://www.w3.org/1999/xlink" x="0px" y="0px"
	 viewBox="0 0 28.31 36.23" style="enable-background:new 0 0 28.31 36.23;" xml:space="preserve">
<style type="text/css">
	.st0{fill:#FEFEFE;}
	.st1{fill:#000100;}
	.st2{fill:#3C6531;}
	.st3{fill:#4E8639;}
	.st4{fill:#58963B;}
	.st5{fill:#4F8738;}
	.st6{fill:#70A73B;}
	.st7{fill:#71A83B;}
	.st8{fill:#71A73B;}
	.st9{fill:#74A93B;}
	.st10{fill:#76A93A;}
	.st11{fill:#7FAD38;}
	.st12{fill:#B6CB6D;}
	.st13{fill:#B6CB6E;}
	.st14{fill:#78AB3A;}
	.st15{fill:#7AAB39;}
	.st16{fill:#EBEA81;}
	.st17{fill:#C7D472;}
	.st18{fill:#D0DA75;}
	.st19{fill:#B7CC6E;}
	.st20{fill:#ADC763;}
	.st21{fill:#ECEA81;}
	.st22{fill:#DEE27B;}
	.st23{fill:#84AF36;}
	.st24{fill:#EDEE84;}
	.st25{fill:#CFD975;}
	.st26{fill:#D5DC76;}
</style>
<g>
	<path class="st0" d="M0.73,9.8C0.57,7.98,0.89,6.02,0.15,4.12c-0.5-1.28,0.33-3.04,1.49-3.73C2.78-0.3,3.73-0.04,5.11,0.9
		c1.8,1.23,3.63,2.4,5.74,3.14c3.69,1.28,7,3.28,9.87,5.95c1.33,1.24,2.24,2.8,2.92,4.48c1.21,3.01,2.27,6.13,2.52,9.33
		c0.24,2.95,0.51,5.74,1.9,8.43c0.77,1.5-0.36,3.21-2,3.78c-1.84,0.64-4.04-0.18-4.64-1.83c-0.29-0.81-0.66-1.12-1.57-1.25
		c-5.96-0.85-11.22-3.13-15.03-8c-2.64-3.37-3.94-7.26-4.02-11.55C0.78,12.22,0.56,11.07,0.73,9.8z"/>
	<path class="st1" d="M25.07,26.83c-0.64,1.71,0.84,3.13,1.53,4.78c0.72,1.71,0.48,2.71-0.9,3.27c-1.34,0.54-2.79-0.13-3.33-1.56
		c-0.36-0.94-0.95-1.42-2.02-1.55C12.2,30.73,6.01,26.96,2.9,19.01c-0.74-1.89-0.74-3.92-0.89-5.89c-0.15-2.15-0.09-4.31-0.16-6.46
		c-0.03-0.86-0.08-1.71-0.5-2.54C0.83,3.07,1.42,2.13,2.19,1.49c0.77-0.64,1.42-0.13,2.19,0.38c1.82,1.2,3.59,2.49,5.72,3.17
		c3.42,1.09,6.43,2.96,9.18,5.23c2.17,1.79,3.29,4.27,4.05,6.91c0.59,2.06,1.1,4.15,1.65,6.22C25.27,24.42,25.16,25.46,25.07,26.83z
		"/>
	<path class="st2" d="M23.86,29.36c0.9,0.85,1.36,1.92,1.74,3.07c0.18,0.57,0.27,1.08-0.33,1.3c-0.55,0.2-1.18,0.11-1.63-0.39
		c-0.13-0.14-0.2-0.35-0.25-0.53c-0.45-1.55-1.53-2.1-3.1-2.27c-5.47-0.62-10.21-2.75-13.67-7.2c-2.11-2.71-3.25-5.82-3.38-9.27
		c-0.11-2.9-0.16-5.8-0.23-8.7C3.56,5.47,3.48,5.94,3.52,6.3c0.25,2.1,0.49,2.32,2.65,2.34c0.2,0,0.4,0,0.59,0.02
		c0.21,0.03,0.4,0.09,0.57,0.21c0.49,1.18-0.53,0.74-0.98,0.9c-0.57,0.04-1.14-0.04-1.7,0.01c-0.58,0.88-0.35,1.32,0.82,1.45
		c1.81,0.21,3.6,0.56,5.41,0.79c0.2,0.02,0.39,0.05,0.59,0.1c0.43,0.21,1.3,0.01,1.24,0.58c-0.07,0.64-0.9,0.36-1.41,0.44
		c-0.16,0.03,0.04,0-0.12,0.01c-1.88,0.03-3.71-0.42-5.56-0.63c-0.46-0.05-0.95-0.27-1.29,0.26c-0.08,0.76-0.17,1.51-0.12,2.27
		c0.04,0.48,0.21,0.86,0.8,0.83c3.15-0.14,6.3,0.39,9.45,0.18c0.16-0.01,0.32-0.02,0.44-0.13c-0.16-0.7-0.7-1.13-1.13-1.63
		c-0.28-0.33-0.66-0.59-0.61-1.1c0.17-0.39,0.47-0.53,0.87-0.48c1.1,0.62,1.68,1.73,2.55,2.69c0.03,0.07,0.14-0.17,0.02-0.07
		c-0.05,0.04-0.08,0.02-0.11-0.05c-0.43-1.02,0.11-2.01,0.11-3.02c0.04-0.19,0.11-0.37,0.26-0.5c0.19-0.08,0.37-0.07,0.55,0.05
		c0.5,1.23,0.23,2.51,0.22,3.77c-0.01,0.83,0.13,1.57,0.59,2.26c0.67,1,1.04,2.14,1.51,3.19c0.07-0.64,0.11-1.34,0.37-1.99
		c0.52-0.54,0.74-0.22,0.88,0.31c0.06,0.59,0.07,1.21-0.13,1.76c-0.47,1.27-0.22,2.4,0.54,3.52c0.48-0.35,0.37-1.24,1.13-1.35
		c0.27,0.11,0.34,0.34,0.38,0.59c-0.09,1.49-0.46,2.98,0.1,4.45c0.21,0.41,0.72,0.7,0.58,1.27c-0.15,0.12-0.32,0.16-0.51,0.14
		c-1.1-0.23-1.64-1.06-2.1-1.98c-0.19-0.39-0.27-0.84-0.55-1.19c-0.74-0.5-1.45,0.04-2.17,0.08c-0.98,0.06-1.94,0.39-2.94,0.38
		c-0.75-0.01-1.5-0.03-2.36-0.01c2.51,1.46,5.14,2.38,7.91,2.64c1.64,0.15,2.51,0.98,3.2,2.27c0.08,0.14,0.13,0.29,0.23,0.41
		c0.02,0.03,0.06,0.04,0.19,0.11c-0.09-0.65-0.37-1.15-0.6-1.67c-0.17-0.34-0.52-0.62-0.4-1.07C23.62,29.6,23.68,29.42,23.86,29.36z
		"/>
	<path class="st3" d="M6.29,9.47c0.27-0.29,1.07,0.46,0.99-0.5c0.32-0.37,0.8-0.22,1.26-0.32C8.02,8,7.45,7.51,6.92,6.99
		C5.95,6.25,5.11,5.35,4.1,4.63C4.01,4.91,4.24,5.14,4.22,5.41c0.04,0.32,0.04,0.63,0.05,0.95c0.05,1.78,0.05,1.77,1.77,2.07
		c0.33,0.06,0.75,0.02,0.77,0.53c-0.36,0-0.71,0.01-1.07,0.01c-2.03,0-2.5-0.47-2.54-2.48C3.21,6.12,3.33,5.7,3.01,5.37
		C2.92,4.94,2.95,4.44,2.73,4.1C2.3,3.42,2.54,2.95,3.02,2.48c2.05,1.22,4,2.64,6.22,3.58C9.22,6.38,10.2,6.53,9.4,6.97
		C9.11,7.01,8.86,6.94,8.65,6.74c0.32,0.33,0.68,0.63,1.01,0.96c0.37,0.37,0.24-0.17,0.38-0.25c0.43-0.44,0.58,0.04,0.81,0.24
		c0.29,0.39,0.31,0.86,0.39,1.31c0.18,0.63,0.68,1.04,1.08,1.51c0.39,0.47,0.47,0,0.57-0.29c0.21-0.35-0.05-1.07,0.75-0.94
		c0.35,1.16,0.22,2.36,0.35,3.54c-0.24,0.16-0.47,0.32-0.71,0.47c-0.78,0.08-1.61,0.41-2.18-0.47c0.47,0,0.94,0,1.57,0
		c-0.46-0.44-1.02-0.08-1.31-0.48c0.18-0.2,0.38-0.39,0.06-0.66c-0.44-0.38-0.73-0.88-1.15-1.29c-0.79-0.57-1.7-0.3-2.56-0.39
		C7.21,9.95,6.55,10.22,6.29,9.47z"/>
	<path class="st4" d="M9.42,6.82c0.39-0.36-0.73-0.37-0.17-0.76c3.56,0.98,6.59,2.91,9.39,5.24c1.18,0.98,2.01,2.24,2.58,3.66
		c-0.35,0.25-0.35,0.26-0.51,0.14c-0.32-0.23-0.48-0.64-0.89-0.78c-0.72-0.67-1.41-1.38-2.06-2.13c-0.12-0.13-0.19-0.32-0.42-0.32
		c-0.15-0.01-0.3-0.01-0.46-0.02c-0.71-1.08-1.86-1.62-2.86-2.35c-0.16-0.11-0.3-0.26-0.51-0.29c-0.44,0.29-0.02,0.91-0.46,1.2
		c-0.09-0.07-0.16-0.15-0.2-0.26c0.09-1.56-1.28-1.77-2.21-2.39c-0.2,0.03-0.19-0.55-0.51-0.18C9.71,7.51,9.43,7.29,9.42,6.82z"/>
	<path class="st5" d="M19.99,14.29c0.3-0.32,0.35,0.03,0.49,0.17c0.21,0.21,0.21,0.74,0.73,0.5c1.57,4.09,3.11,8.19,2.62,12.71
		c-0.12,0.18-0.33-0.1-0.31-0.03c0.16,0.41-0.05,0.9,0.3,1.25c0.01,0.15,0.02,0.31,0.04,0.46c-0.09,0.09-0.18,0.18-0.27,0.27
		l0.01,0.01c-0.24-0.31-0.48-0.62-0.71-0.93c-0.11-1.54-0.2-3.09,0.05-4.62c0.06-0.36-0.11-0.22-0.26-0.2
		c-0.08-0.17-0.17-0.34-0.25-0.51c-0.09-0.07-0.16-0.16-0.21-0.27c0.23-1.9-0.51-3.64-0.94-5.28c-0.07,0.44,0.15,1.1-0.22,1.68
		c-0.1,0.08-0.2,0.1-0.31,0.03c-0.06-0.25,0.15-0.78-0.47-0.48c-0.61-0.82-0.33-1.7-0.19-2.57C20.36,15.75,19.88,15.03,19.99,14.29z
		"/>
	<path class="st2" d="M23.82,28.89c-0.89-0.36-0.22-1.12-0.49-1.65c0.39-0.04,0.25,0.39,0.5,0.43
		C23.83,28.08,23.82,28.49,23.82,28.89z"/>
	<path class="st6" d="M18.36,21.87c-3.36,0.5-6.74,0.62-10.13,0.56c-0.92-0.02-1.48-0.31-1.91-1.09c-0.66-1.19-1.17-2.44-1.69-3.69
		c-0.15-0.36-0.27-0.76,0.33-0.74c1.74,0.05,3.5-0.21,5.23,0.19c-1.01,0.56-2.1,0.21-3.15,0.24c-0.38,0.01-0.78-0.12-1.17-0.05
		c0.8-0.07,1.59,0.09,2.39,0.11c2.23,0.07,4.47,0.04,6.7-0.03c0.76-0.02,1.35,0.21,1.7,0.88C17.27,19.42,18.32,20.41,18.36,21.87z"
		/>
	<path class="st6" d="M20.03,25.5c-2.39,0.34-4.77,0.72-7.2,0.79c-1.59,0.05-2.76-0.51-3.8-1.56c-0.5-0.5-1.08-0.92-1.47-1.67
		c2.7,0.05,5.33,0.21,7.94-0.14c0.63,0.24,1.24-0.02,1.86-0.04C19.27,22.83,19.93,23.47,20.03,25.5z"/>
	<path class="st7" d="M15.5,15.91c0.32,0.4,0.03,0.48-0.29,0.48c-2.18-0.01-4.37,0.05-6.54-0.09c-1.27-0.08-2.53-0.22-3.78,0
		c-0.63,0.11-0.85-0.1-0.97-0.69C3.7,14.59,4,13.57,3.95,12.55c0.38-0.27,0.78-0.11,1.15-0.02c2.29,0.56,4.62,0.86,6.95,1.1
		c0.91,0.09,1.58,0.4,2.11,1.13C14.51,15.24,14.91,15.69,15.5,15.91z"/>
	<path class="st8" d="M24.09,30.57c0.41,0.59,0.62,1.27,0.85,1.94c0.09,0.27,0,0.48-0.24,0.59c-0.28,0.13-0.45-0.07-0.56-0.29
		c-0.13-0.25-0.17-0.54-0.33-0.77c-0.68-0.99-1.21-1.91-2.76-2.04c-3.14-0.27-6.1-1.34-8.99-3.14c1.19-0.24,2.19-0.11,3.19-0.11
		c1.31,0.21,2.59-0.08,3.88-0.24c0.55-0.07,1.09-0.21,1.65-0.04c0.54,1.22,0.87,2.6,2.38,3.08C23.34,30,23.66,30.34,24.09,30.57z"/>
	<path class="st9" d="M20.44,16.36c-0.29,0.89-0.17,1.8-0.17,2.7c-0.09,0.82-0.18,1.64-0.27,2.46c-0.51,0-0.49-0.42-0.64-0.66
		c-0.2-0.34-0.28-0.77-0.52-1.07c-1.96-2.37-1.4-5.2-1.5-7.91c0.16-0.23,0.32-0.29,0.5-0.02c-0.08,0.71,0.18,1.29,0.65,1.81
		C19.23,14.49,19.88,15.39,20.44,16.36z"/>
	<path class="st10" d="M10.68,10.4c0.51,0.59,1.01,1.18,1.6,1.87c-0.39,0.03-0.66,0.06-0.92,0.08c-2.24-0.31-4.48-0.64-6.72-0.92
		c-0.68-0.08-0.83-0.5-0.66-0.98c0.12-0.34-0.59-1.11,0.45-1.04c0.96,0.51,2.03,0.59,3.07,0.64C8.57,10.11,9.63,10.21,10.68,10.4z"
		/>
	<path class="st11" d="M6.82,8.96c-0.4-0.38-0.92-0.28-1.35-0.2C4.41,8.93,4.03,8.4,3.98,7.48C3.93,6.7,3.95,5.91,3.93,5.13
		C4.81,5.08,5.3,5.79,5.97,6.16c0.38,0.2,0.72,0.47,1.11,0.64c0.68,0.64,1.35,1.29,2.27,2.17c-0.91,0-1.49,0-2.06,0
		C7.13,8.96,6.97,8.96,6.82,8.96z"/>
	<path class="st12" d="M15.5,15.91c-0.6,0.3-0.95-0.27-1.12-0.54c-0.9-1.43-2.35-1.45-3.75-1.59c-2.26-0.23-4.49-0.62-6.68-1.23
		c0.13-0.92,0.82-0.44,1.22-0.41c1.99,0.16,3.93,0.66,5.94,0.69c0.67,0.44,1.53-0.03,2.18,0.47C14.02,14.17,14.76,15.04,15.5,15.91z
		"/>
	<path class="st13" d="M18.36,21.87c-0.67-1.17-1.36-2.33-2.01-3.52c-0.31-0.56-0.72-0.75-1.35-0.74c-2.02,0.02-4.03,0.3-6.06,0.05
		c-1.17-0.14-2.35-0.22-3.52-0.57c1.59,0,3.19,0,4.78,0c1.72,0.01,3.44,0.06,5.16,0c0.79-0.03,1.28,0.21,1.64,0.89
		c0.52,0.99,1.11,1.94,1.63,2.93C18.8,21.26,19.14,21.73,18.36,21.87z"/>
	<path class="st14" d="M13.52,9.21c0.16-0.23,0.32-0.26,0.49-0.02c-0.1,1.06,0.41,1.69,1.35,2.11c0.53,0.24,1.09,0.5,1.48,0.98
		c-0.08,1.07-0.16,2.13-0.26,3.47c-0.95-1.08-1.78-2-2.6-2.93C13.17,11.7,13.66,10.42,13.52,9.21z"/>
	<path class="st15" d="M20.74,19.54c0.07-0.01,0.15-0.01,0.22-0.01c0.8-0.29,0.78,0.4,0.95,0.82c0.34,0.87,0.14,1.85,0.46,2.73
		c0.02,0.1,0.03,0.19,0.05,0.29c-0.29,0.68-0.58,1.36-0.95,2.23c-0.46-0.98-0.86-1.81-1.25-2.65c-0.3-0.66,0.32-1.15,0.36-1.79
		C20.61,20.64,20.72,20.09,20.74,19.54z"/>
	<path class="st16" d="M16.85,12.28c-1.1-0.15-1.89-0.94-2.8-1.45c-0.58-0.33-0.48-1.07-0.04-1.64c0.75,0.5,1.49,1.01,2.25,1.49
		c0.45,0.28,0.65,0.65,0.62,1.17C16.87,11.99,16.86,12.14,16.85,12.28z"/>
	<path class="st17" d="M10.68,10.4c-1.39,0.4-2.76-0.06-4.13-0.14c-0.76-0.05-1.57-0.15-2.22-0.66C4.32,9.59,4.33,9.52,4.34,9.49
		c0.02-0.03,0.05-0.06,0.08-0.09c0.62,0.02,1.25,0.04,1.87,0.06c0.9,0.37,1.85,0.2,2.77,0.21C9.74,9.69,10.28,9.85,10.68,10.4z"/>
	<path class="st18" d="M22.67,23.88c0.1-0.17,0.2-0.34,0.49-0.83c-0.12,2.11,0.31,3.89-0.28,5.66
		C21.95,27.14,22.42,25.5,22.67,23.88z"/>
	<path class="st19" d="M20.03,25.5c-0.93-2.32-0.93-2.31-3.42-2.36c-0.38-0.01-0.8,0.12-1.12-0.21c0.47-0.07,0.95-0.13,1.42-0.21
		c2.34-0.35,3.1,0.19,3.49,2.49C20.46,25.54,20.23,25.5,20.03,25.5z"/>
	<path class="st19" d="M20.78,26.47c-1.82,0.5-3.65,0.8-5.53,0.29c1.47-0.03,2.89-0.46,4.34-0.63
		C20.01,26.08,20.56,25.76,20.78,26.47z"/>
	<path class="st20" d="M24.09,30.57c-0.58-0.1-1.03-0.31-0.94-1.02c0.15,0.03,0.29,0.06,0.44,0.08c0,0-0.01-0.01-0.01-0.01
		C23.76,29.94,23.92,30.25,24.09,30.57z"/>
	<path class="st21" d="M10.64,7.77c1.74,0.15,2.43,0.84,2.38,2.37c-1.05,0.43-1.41-0.65-2.12-0.96C10.81,8.71,10.73,8.24,10.64,7.77
		z"/>
	<path class="st22" d="M7.08,6.8C5.83,6.62,4.97,5.7,3.93,5.13c-0.09-0.33-0.18-0.67-0.27-1c0.06-0.05,0.12-0.09,0.19-0.14
		C4.92,4.92,6,5.86,7.08,6.8z"/>
	<path class="st23" d="M10.9,9.18c0.8,0.1,1.29,0.92,2.12,0.96c0.01,0.09,0.02,0.18,0.04,0.28c-0.08,0.28,0.15,0.69-0.23,0.83
		c-0.3,0.11-0.48-0.22-0.64-0.41C11.74,10.29,11.32,9.73,10.9,9.18z"/>
	<path class="st24" d="M9.42,6.82C9.68,7.06,10,7.23,10.13,7.59c0,0.27,0,0.54,0,0.91C9.32,7.66,8.6,6.91,7.8,6.09
		C8.38,6.35,8.9,6.59,9.42,6.82z"/>
	<path class="st25" d="M20.44,16.36c-1.19-0.91-1.82-2.28-2.79-3.37c-0.19-0.22-0.29-0.83,0.2-1.14c0.71,0.81,1.43,1.63,2.14,2.44
		C20.44,14.91,20.52,15.62,20.44,16.36z"/>
	<path class="st26" d="M22.37,23.08c-0.78-0.58-0.31-1.52-0.67-2.23c-0.23-0.45,0.01-1.16-0.74-1.32c0-0.89,0-1.78,0-2.67
		c0.13-0.01,0.25-0.02,0.38-0.03C21.72,18.91,22.96,20.82,22.37,23.08z"/>
</g>
</svg>
