<?xml version="1.0" encoding="utf-8"?>
<!-- Generator: Adobe Illustrator 23.0.2, SVG Export Plug-In . SVG Version: 6.00 Build 0)  -->
<svg version="1.1" id="Camada_1" xmlns="http://www.w3.org/2000/svg" xmlns:xlink="http://www.w3.org/1999/xlink" x="0px" y="0px"
	 viewBox="0 0 39.02 46.24" style="enable-background:new 0 0 39.02 46.24;" xml:space="preserve">
<style type="text/css">
	.st0{fill:#FDFDFD;}
	.st1{fill:#512F22;}
	.st2{fill:#613731;}
	.st3{fill:#683E32;}
	.st4{fill:#DFAF8C;}
	.st5{fill:#AA7257;}
	.st6{fill:#E0B08D;}
	.st7{fill:#855939;}
	.st8{fill:#845838;}
	.st9{fill:#C59061;}
	.st10{fill:#825737;}
	.st11{fill:#8D603E;}
	.st12{fill:#855938;}
	.st13{fill:#A66F55;}
	.st14{fill:#E3B28F;}
	.st15{fill:#DDA670;}
	.st16{fill:#854F49;}
	.st17{fill:#653A34;}
	.st18{fill:#502F23;}
	.st19{fill:#835839;}
	.st20{fill:#C39061;}
	.st21{fill:#C69266;}
	.st22{fill:#BE8873;}
	.st23{fill:#805537;}
	.st24{fill:#815637;}
	.st25{fill:#835737;}
	.st26{fill:#C18C5F;}
	.st27{fill:#86504A;}
	.st28{fill:#C79162;}
	.st29{fill:#D5A585;}
	.st30{fill:#C89363;}
	.st31{fill:#C99364;}
	.st32{fill:#834E48;}
	.st33{fill:#865A39;}
	.st34{fill:#C38F60;}
	.st35{fill:#DBA56B;}
	.st36{fill:#DEAD8C;}
	.st37{fill:#D29C69;}
	.st38{fill:#DCA989;}
	.st39{fill:#603531;}
	.st40{fill:#C3976C;}
	.st41{fill:#E2B28E;}
	.st42{fill:#673B35;}
	.st43{fill:#643934;}
	.st44{fill:#643833;}
	.st45{fill:#E2B28F;}
	.st46{fill:#E5B491;}
	.st47{fill:#E8B893;}
	.st48{fill:#613631;}
	.st49{fill:#824C47;}
	.st50{fill:#6F403B;}
	.st51{fill:#844F49;}
	.st52{fill:#87514B;}
	.st53{fill:#86514A;}
	.st54{fill:#F6C79D;}
	.st55{fill:#834D48;}
	.st56{fill:#DFAD8C;}
	.st57{fill:#89534C;}
	.st58{fill:#E0AD8C;}
	.st59{fill:#AB7666;}
	.st60{fill:#B5806C;}
</style>
<g>
	<path class="st0" d="M1.94,37.55c0-1.2-0.03-2.4,0.01-3.6c0.04-1.32,0.02-2.46-1.22-3.45c-1.13-0.9-0.88-2.77,0.3-3.55
		c1.46-0.96,2.6-2.25,3.73-3.52c1.13-1.27,2.44-1.86,4.08-1.86c2.64,0,5.28-0.04,7.91,0.01c0.75,0.01,0.98-0.2,0.93-0.94
		c-0.08-1.08,0.11-2.13-0.74-3.12c-0.6-0.69-0.48-1.78,0.01-2.62c2.28-3.89,4.19-7.97,6.12-12.04c0.46-0.98,1.03-1.89,2.03-2.44
		c1.42-0.79,2.86-0.48,3.75,0.88c2.05,3.15,3.45,6.64,5.07,10.01c0.47,0.97,0.91,1.95,1.44,2.88c0.56,0.98,0.81,2.1,0.13,2.93
		c-0.79,0.97-0.66,1.96-0.74,3.01c-0.11,1.3,0.17,2.36,1.14,3.33c1.25,1.25,1.93,2.92,2.79,4.44c0.63,1.1,0.38,2.33-0.6,3.13
		c-0.47,0.38-0.44,0.79-0.44,1.26c-0.03,3.6-0.06,7.19-0.1,10.79c-0.01,0.9-0.23,1.75-0.87,2.42c-0.64,0.67-1.46,0.9-2.3,0.6
		c-0.98-0.34-1.96-0.31-2.96-0.31c-7.71,0-15.43,0-23.14,0c-1.36,0-2.66,0.56-4.08-0.07c-1.35-0.6-2.14-1.28-2.17-2.78
		C1.97,41.15,2,39.35,2,37.55C1.98,37.55,1.96,37.55,1.94,37.55z"/>
	<path d="M3.14,37.07c0-1.92-0.01-3.84,0.01-5.76c0-0.43-0.03-0.67-0.56-0.82c-0.69-0.2-1.22-0.73-1.32-1.53
		c-0.1-0.79,0.55-1.02,1.03-1.44c1.17-1.02,2.35-2.07,3.34-3.26c0.91-1.09,1.96-1.51,3.33-1.5c2.96,0.03,5.92-0.03,8.87,0.02
		c0.84,0.01,1.12-0.23,1.05-1.06c-0.07-0.83,0-1.68-0.02-2.52c-0.01-0.76,0.18-1.5-0.75-2.05c-0.54-0.32-0.43-1.15-0.08-1.75
		c2.21-3.82,4.11-7.8,5.99-11.79c0.25-0.54,0.53-1.08,0.89-1.55c0.96-1.24,2.3-1.19,3.11,0.12c1.91,3.08,3.29,6.44,4.85,9.69
		c0.46,0.96,0.92,1.93,1.43,2.87c0.47,0.87,0.56,1.65-0.31,2.33c-0.22,0.17-0.43,0.33-0.43,0.67c0,1.52-0.02,3.04-0.02,4.56
		c0,0.4,0.3,0.65,0.55,0.89c1.49,1.44,2.39,3.27,3.39,5.03c0.48,0.85,0.55,1.72-0.65,2.08c-0.67,0.2-0.4,0.71-0.41,1.09
		c-0.05,3.8-0.04,7.59-0.11,11.39c-0.04,2.14-0.47,2.4-2.53,1.85c-0.3-0.08-0.63-0.05-0.95-0.05c-8.35,0-16.71,0-25.06,0
		c-1.1,0-2.15,0.53-3.32-0.03c-0.78-0.38-1.28-0.74-1.28-1.62c0-1.96,0-3.92,0-5.87C3.18,37.07,3.16,37.07,3.14,37.07z"/>
	<path class="st1" d="M34.92,26.23c0.44,0.7,0.93,1.38,1.31,2.11c0.12,0.23,0.45,0.75-0.14,0.86c-0.94,0.18-0.76,0.85-0.76,1.47
		c-0.01,3.55,0,7.1-0.02,10.66c0,0.43,0.12,0.88-0.19,1.27c-0.48-0.44-0.37-1.02-0.38-1.56c-0.01-3.61-0.01-7.23,0-10.84
		c0-0.67-0.1-1.26-0.55-1.76c-0.72-1.94-2.12-2.57-4.14-2.36c-1.58,0.16-3.19,0.05-4.79,0.03c-0.82-0.01-1.39,0.32-1.98,0.9
		c-1.54,1.55-2.15,3.31-2.04,5.51c0.12,2.43,0.16,4.87-0.06,7.31c-0.25,0.44,0.01,1.16-0.72,1.34c-0.61-0.69-0.14-1.59-0.46-2.34
		c-0.04-0.13-0.07-0.27-0.08-0.41c0.29-2.44,0.19-4.88,0.2-7.33c0-0.47,0.1-0.95-0.18-1.38c-0.42-0.35-0.92-0.23-1.38-0.23
		c-4.54,0.02-9.08-0.08-13.62,0.05c-0.21,0.01-0.39-0.03-0.56-0.16c-0.25-0.11-0.49-0.26-0.8-0.17c-0.24,0.07-0.49,0.56-0.74-0.03
		c-0.17-0.4,0.06-0.59,0.29-0.81c1.27-1.26,2.52-2.54,3.8-3.79c0.49-0.48,1.14-0.51,1.79-0.51c3.27,0.01,6.54-0.06,9.81,0.04
		c1.28,0.04,1.57-0.39,1.49-1.56c-0.1-1.47,0.02-2.96-0.04-4.44c-0.03-0.65,0.45-1.54-0.74-1.83c-0.36-0.09,0.03-0.56,0.16-0.8
		c1.39-2.74,2.79-5.48,4.21-8.2c0.7-1.34,1.18-2.8,2-4.08c0.67-1.04,0.98-1.07,1.65-0.01c1.69,2.67,2.8,5.64,4.22,8.46
		c0.59,1.18,1.15,2.37,1.71,3.56c0.14,0.3,0.48,0.79-0.03,0.9c-0.93,0.2-0.68,0.83-0.69,1.39c-0.02,1.88-0.02,3.76-0.03,5.64
		c-0.64-0.16-0.52-0.71-0.54-1.15c-0.05-1.22-0.02-2.44-0.02-3.67c0-0.49,0.01-0.97-0.58-1.15c-1.82-0.68-3.71-0.13-5.56-0.37
		c-0.61-0.08-0.83,0.36-0.84,0.91c-0.02,1.71-0.01,3.43-0.01,5.14c0,0.83,0.44,1.12,1.2,1.12c1.28,0,2.55-0.01,3.83,0.01
		c0.51,0.01,1.04-0.06,1.51,0.24c0.11,0.74-0.46,0.56-0.82,0.57c-1.47,0.03-2.95,0.01-4.42,0.01c1.56,0,3.12-0.02,4.68,0.01
		c0.58,0.01,1.01-0.14,1.27-0.67c0.6-0.29,0.73,0.28,1,0.56c0.79,0.86,1.05,2.07,1.9,2.86c-0.28-0.42-0.79-0.74-0.78-1.35
		C34.49,25.72,34.7,26.11,34.92,26.23z"/>
	<path class="st2" d="M4.37,29.37c0.61-0.18,1.23-0.25,1.87-0.25c4.33,0.02,8.66,0,12.99,0.02c0.41,0,0.89-0.2,1.2,0.28
		c-0.48,0.39-1.06,0.28-1.61,0.29c-3.83,0.01-7.66,0-11.49,0.04c-1.81,0.02-1.82,0.05-1.86,1.9c-0.06,3.23,0.18,6.46-0.16,9.69
		c-0.08,0.78,0.28,1.09,1.02,1.09c4.15,0.01,8.3-0.03,12.45,0.02c1.05,0.01,1.01-1.03,1.68-1.32c0.45-0.28,0.03-0.91,0.46-1.2
		c0.58,0.67,0.31,1.48,0.38,2.23c0.03,0.24,0.08,0.49,0.38,0.52c0.59,0.05,1.18,0.12,1.77,0.18c0.75,0.08,1.42-0.61,1.44-1.41
		c0.04-2.19,0.03-4.38,0-6.56c0-0.33,0.13-0.87-0.54-0.74c-0.35,0.52-0.16,1.09-0.19,1.63c-0.12,2.25,0.22,4.51-0.19,6.76
		c-0.49,0.54-0.76,0.32-0.93-0.27c-0.17-2.67-0.09-5.35-0.05-8.03c0.02-1.17,0.45-1.58,1.64-1.6c2.32-0.05,4.63-0.12,6.94,0.19
		c1.03,0.14,1.49,0.6,1.49,1.62c0.01,2.16-0.02,4.32,0.02,6.48c0.01,0.5-0.23,1.37,0.56,1.32c0.65-0.04,0.33-0.86,0.33-1.32
		c0.02-3.64,0-7.28,0.02-10.91c0-0.62-0.13-1.29,0.38-1.82c0.61,0.55,0.72,1.24,0.72,2.04c-0.02,4.13,0,8.26,0.01,12.4
		c0.15,0.85-0.16,0.96-1.01,0.94c-4.58-0.14-9.16-0.19-13.75-0.14c-4.22,0.05-8.46,0.02-12.68-0.11c-0.85-0.03-1.6,0.47-2.55,0.12
		c-0.77-0.29-0.74-0.68-0.74-1.22C4.38,37.91,4.38,33.64,4.37,29.37z"/>
	<path class="st3" d="M32.45,24.09c-0.06,0.75-0.38,1.03-1.21,0.98c-1.82-0.09-3.65-0.02-5.48-0.03c-0.36,0-0.77,0.11-1.23-0.28
		c0.73-0.32,1.35-0.18,1.95-0.19c1.31-0.02,2.62,0,3.93-0.01c0.37-0.01,0.82,0.17,1.06-0.31c-0.25-0.24-0.32-0.56-0.33-0.88
		c-0.05-1.84-0.05-3.67,0-5.51c0.01-0.36,0.07-0.72,0.37-0.98c0.53,0.1,0.75,0.35,0.72,0.95c-0.06,1.39-0.03,2.78-0.02,4.17
		c0,0.38-0.13,0.8,0.21,1.13c0.1,0.15,0.19,0.3,0.29,0.44c0.05,0.08,0.08,0.18,0.07,0.28C32.71,23.98,32.61,24.07,32.45,24.09z"/>
	<path class="st2" d="M32.68,23.87c0.01-0.1,0.02-0.2,0.03-0.31c0.84,0.8,1.76,1.54,2.21,2.67c-0.18,0.01-0.37-0.25-0.55,0.01
		C33.49,25.68,33.04,24.81,32.68,23.87z"/>
	<path class="st4" d="M34.39,28.16c0.01,4.55,0.02,9.1,0.02,13.64c0,0.46,0.21,1.01-0.69,0.99c-0.8-0.01-1.05-0.29-1.05-1.03
		c0.02-2.51-0.02-5.03,0.02-7.54c0.02-0.81-0.21-1.05-1.05-1.11c-2.39-0.18-4.78-0.08-7.17-0.1c-0.97-0.01-1.2,0.32-1.18,1.24
		c0.05,2.67,0,5.35,0,8.02c-0.77,0.57-1.54,0.6-2.31-0.02c-0.02-0.78-0.04-1.56-0.07-2.33c0.02-2.95,0.09-5.9,0.04-8.86
		c-0.02-1.29,0.49-2.22,1.18-3.25c1.14-1.69,2.55-2.26,4.53-2.04c1.58,0.17,3.2,0.15,4.78,0.01c1.25-0.11,1.95,0.38,2.43,1.43
		C34.03,27.54,34.22,27.85,34.39,28.16z"/>
	<path class="st5" d="M20.46,41.12c-0.52,1.71-0.52,1.71-2.4,1.71c-4.04,0-8.07-0.02-12.11,0.02c-0.84,0.01-1.16-0.25-1.07-1.09
		c0.41-3.78,0.11-7.58,0.19-11.37c0.01-0.62,0.02-1.07,0.86-1.06c4.83,0.05,9.67,0.06,14.5,0.08c-0.03,3.1,0.12,6.21-0.2,9.3
		c-1.05,0.15-0.89-0.9-1.35-1.35c-0.22-0.45-0.21-0.88,0.08-1.29c0.41-0.2,0.62,0.21,0.94,0.33c-0.02-1.68-0.03-3.35,0-5.01
		c0.02-0.84-0.25-1.26-1.16-1.23c-1.66,0.06-3.32-0.05-5.11,0.06c0.57,0.82,1.49,1.13,1.86,1.94c0.08,0.52,0.05,1.02-0.24,1.49
		c-0.11,0.2-0.72-0.3-0.52,0.41c0.12,0.43,0.09,0.95-0.31,1.31c-0.5-0.06-0.47-0.48-0.51-0.81c-0.05-0.4-0.02-0.8-0.02-1.2
		c-0.02-1.59-0.14-1.74-1.67-2.1c-1.74-1.13-1.74-1.13-2.77-1.03c0.56,0.78,1.48,1.28,1.63,2.32c-0.23,1.71-0.09,3.43-0.14,5.15
		c-0.02,0.66,0.23,0.98,0.91,0.93c0.16-0.01-0.04,0,0.12,0c2.56,0.01,2.12,0.08,2.15-1.97c0.01-0.4-0.03-0.81,0.21-1.16
		c0.48-0.41,0.7,0.02,0.96,0.3c0.27,0.56,0.22,1.17,0.18,1.76c-0.05,0.82,0.26,1.18,1.09,1.09c0.43-0.04,0.87,0.01,1.3-0.05
		c0.1-0.04,0.2-0.09,0.29-0.14c0.47-0.11,0.15-1.02,0.88-0.88c0.21,0.48,0.17,0.97,0.11,1.49c-0.06,0.5,0.42,0.79,0.69,1.26
		c0.19-0.59-0.09-1.19,0.38-1.61C20.64,39.49,20.32,40.33,20.46,41.12z"/>
	<path class="st6" d="M31.51,16.88c-0.01,2.46-0.02,4.91-0.04,7.37c-2,0.01-4,0-5.99,0.05c-0.76,0.02-0.98-0.31-0.97-0.99
		c0.02-2.04,0-4.08,0-6.11c0-0.37-0.03-0.74,0.53-0.72c1.99,0.04,3.99,0.06,5.98,0.12C31.18,16.59,31.34,16.78,31.51,16.88z"/>
	<path class="st7" d="M6.27,27.43c-0.14,0.05-0.3,0.08-0.43,0.15c-0.28,0.15-0.61,0.58-0.86,0.16c-0.2-0.34,0.27-0.56,0.53-0.77
		c0.54-0.38,1.19-0.65,1.28-1.43c0.12-0.24,0.35-0.24,0.57-0.25c0.21-0.07,0.42-0.12,0.63,0.01c0.26,0.38,0.57,0.2,0.84,0.04
		c0.46-0.29,0.79-0.24,1.05,0.27c0.08,0.16,0.33,0.37,0.45,0.34c1.04-0.23,2.24,0.41,2.97,0.16c1.22-0.41,2.43,0.78,3.47-0.24
		c0.86,1.27,2.32-0.22,3.32,0.73c0.43,0.41,1.07-0.3,1.65-0.27c-0.32,1.28-1.6,0.93-2.37,1.43c-0.54,0.35-0.09-0.72-0.55-0.87
		c-1.14,0.92-1.73,0.94-3,0c-0.43-0.32-0.65,0.03-0.91,0.24c-0.95,0.8-0.95,0.8-1.4-0.39c-0.51,0.38-1.08,0.66-1.46,1.19
		c-0.77,0.42-0.55-0.73-0.92-0.63c-0.42,0.11-0.7,0.64-1.26,0.55c-0.41-0.06-0.51-0.46-0.76-0.68c-0.58,0.28-0.96,1.15-1.75,0.69
		c-0.49-0.29-0.2-0.77-0.02-1.19C7.07,27.04,6.68,27.26,6.27,27.43z"/>
	<path class="st8" d="M12.29,28.14c0.46-0.17,0.87-1.04,1.41-0.07c0.05,0.09,0.45,0.14,0.55,0.05c1.04-0.96,2.07,0.04,3.07-0.05
		c0.9-0.08,1.68,0.1,2.5,0.49c-5.34,0-10.69,0-16.05,0c0.13-0.3,0.35-0.71,0.87-0.5c0.83,0.33,1.36-0.1,1.89-0.61
		c0.18-0.23,0.42-0.49,0.59-0.04c0.35,0.95,0.85,0.6,1.32,0.17c0.41-0.37,0.73-0.61,1.07,0.04c0.07,0.14,0.31,0.29,0.38,0.24
		C10.79,27.06,11.49,28.04,12.29,28.14z"/>
	<path class="st9" d="M30.07,13.74c-0.08-0.14-0.15-0.29-0.23-0.43c0.8-0.93,0.74-1.12-0.51-1.71c-0.08-0.16-0.16-0.32-0.23-0.47
		c0.32-0.39,0.49-0.77,0.22-1.29c-0.3-0.59-0.77-0.4-1.23-0.42c-0.54-0.02-0.98,0.24-1.47,0.38c-0.5,0.14-1.28,0.48-1.16-0.63
		c0.88-0.56,1.86-0.88,2.91-1.06c-0.54-0.19-1.05-0.1-1.55-0.18c-0.3-0.04-0.57-0.16-0.61-0.48c-0.03-0.28,0.24-0.44,0.47-0.46
		c1.29-0.13,0.97-0.79,0.57-1.56c-0.32-0.61-0.77-1.21-0.54-1.98c0.01-0.02,0.06-0.03,0.09-0.02c0.04,0.01,0.07,0.03,0.11,0.05
		c2.01,3.75,3.63,7.69,5.49,11.51c0.43,0.89-0.12,0.73-0.64,0.66c-0.4-0.45-1.17-0.32-1.48-0.92l0,0c-0.14-0.42,0.37-0.37,0.49-0.6
		C30.56,13.91,30.22,14.01,30.07,13.74z"/>
	<path class="st10" d="M26.92,3.48c-0.28,0.82,0.38,1.35,0.67,1.98c0.67,1.46,0.7,1.43-0.73,1.76c-0.16,0.04-0.4-0.01-0.5,0.34
		c0.6,0.01,1.2,0.36,1.75,0.03c0.47-0.28,0.54,0.02,0.67,0.3c0.16,0.37-0.04,0.8-0.33,0.72c-1.1-0.3-1.92,0.71-2.96,0.55
		c-0.06-0.05-0.07-0.1-0.06-0.15c0.02-0.05,0.04-0.07,0.06-0.07c0.1-1.84,0.75-3.58,0.99-5.4C26.52,3.22,26.72,3.17,26.92,3.48z"/>
	<path class="st11" d="M23.36,24.85c-0.69,1.04-1.96,0.82-2.89,1.35c-0.69-1.18-1.6-0.22-2.41-0.26c-0.15-0.01-0.38-0.21-0.42-0.36
		c-0.2-0.69-0.53-0.51-0.97-0.24c-0.56,0.34-1.11,0.83-1.66-0.13c-0.23-0.39-0.62,0.1-0.91,0.26c-0.77,0.45-1.32,0.48-1.34-0.64
		c0.09-0.07,0.16-0.19,0.29-0.19C16.49,24.54,19.93,24.44,23.36,24.85z"/>
	<path class="st12" d="M24.02,15.54c-1.65-3.37-0.69-6.24,1.21-9.14C24.93,9.53,24,12.42,24.02,15.54z"/>
	<path class="st13" d="M23.59,24.07c-0.89,0.01-1.78,0.01-2.67,0.02c-0.19-0.35-0.35-0.72-0.34-1.13c0.07-1.94-0.16-3.89,0.1-5.83
		c0.57-0.47,1.24-0.54,1.94-0.44c0.04,0.54-0.92,0.28-0.74,0.94c-0.73,1.23-0.29,2.56-0.34,3.85c-0.01,0.31,0.28,0.33,0.53,0.36
		c0.36,0.03,0.72,0.03,1.03,0.25C23.49,22.69,24.01,23.27,23.59,24.07z"/>
	<path class="st10" d="M25.49,8.94c0.01,0.07,0.01,0.15,0,0.22c0.04,0.62,0.6,0.65,0.85,0.46c0.67-0.51,1.48-0.33,2.15-0.57
		c1.28-0.46,0.96,0.69,1.26,1.12c0.44,0.63-0.04,0.89-0.64,0.95c-0.45-0.37-0.3-1.37-0.97-1.32c-0.8,0.06-0.46,1.14-0.93,1.6
		c-0.05-0.01-0.1-0.02-0.15-0.03c-0.69-0.07-1.5,0.43-2.01-0.45C25.44,10.32,25.02,9.53,25.49,8.94z"/>
	<path class="st14" d="M21.94,17.3c-0.37-0.89,0.66-0.18,0.69-0.61c1.18-0.33,1.49,0.14,1.43,1.3c-0.1,1.74-0.01,3.49-0.02,5.24
		c0,0.33,0.26,0.87-0.45,0.85c-0.18-0.65-0.36-1.29-0.54-1.94c-0.18-0.91-0.08-1.83-0.02-2.73C23.07,18.44,22.81,17.74,21.94,17.3z"
		/>
	<path class="st15" d="M23.36,24.85c-3.53-0.01-7.07-0.01-10.6-0.02c-0.74,0.15-1.49,0.26-2.25,0.17c-0.21-0.03-0.39-0.12-0.36-0.37
		c0.02-0.18,0.19-0.23,0.36-0.25c0.12-0.01,0.24-0.01,0.36-0.01c4.07,0,8.15-0.06,12.22,0.18c0.11,0.01,0.22,0.06,0.32,0.11
		C23.41,24.67,23.37,24.78,23.36,24.85z"/>
	<path class="st16" d="M28.36,11.13c1.08,1.35,1.13,3.05,1.61,4.6c-0.87-0.64-0.57-1.73-1.03-2.53c-0.15-0.25-0.06-0.75-0.48-0.7
		c-0.38,0.04-0.49,0.44-0.57,0.82c-0.14,0.66-0.32,1.31-0.54,1.94c-0.14,0.42-0.57,0.69-0.94,0.54c-0.41-0.17-0.04-0.55,0.05-0.82
		c0.14-0.41,0.3-0.81,0.45-1.21c0.53-0.49,0.57-1.2,0.85-1.81C27.91,11.63,27.82,11.15,28.36,11.13z"/>
	<path class="st17" d="M20.69,17.12c0.47,2.31,0.12,4.65,0.23,6.97c-0.41-0.19-0.72-0.41-0.71-0.96c0.03-1.77,0.01-3.55,0.01-5.32
		C20.22,17.47,20.27,17.18,20.69,17.12z"/>
	<path class="st18" d="M12.29,28.14c-0.98-0.37-2.11,0.08-3.01-0.55c-0.25-0.17-0.36-0.26-0.56-0.03C8,28.35,7.37,28.47,6.85,27.36
		c-0.01-0.02-0.21,0.05-0.33,0.08c-0.08,0-0.17-0.01-0.25-0.01c0.45-0.61,0.97-1.12,1.71-1.42c0.02,0.13,0.07,0.22,0.04,0.26
		c-0.28,0.44-1.03,0.92-0.54,1.37c0.49,0.45,0.9-0.34,1.31-0.66c0.18-0.14,0.35-0.31,0.59-0.52c0.2,0.42-0.13,1.02,0.44,1.15
		c0.79,0.18,0.97-0.73,1.6-0.96c0.41,0.3-0.22,1.19,0.63,1.27C12.13,28,12.21,28.07,12.29,28.14z"/>
	<path class="st10" d="M27.21,11.4c-0.16,0.55-0.33,1.1-0.49,1.65c-0.64-0.02-1.31,0.5-1.91-0.11c-0.02-0.05-0.03-0.11-0.05-0.16
		c-0.03-0.58,0.12-1.13,0.28-1.68c0.59,0.23,1.16,0.55,1.76-0.01c0.09-0.09,0.27,0.1,0.35,0.23L27.21,11.4z"/>
	<path class="st8" d="M26.67,13.26c-0.21,0.59-0.42,1.18-0.63,1.76c-0.05,0-0.11,0-0.16,0c-0.49-0.03-1.02,0.04-1.31-0.5
		c0.03-0.58-0.21-1.2,0.19-1.74c0,0,0.06,0.08,0.06,0.08c0.18,0.4,0.48,0.5,0.87,0.33C26.03,13.05,26.36,12.99,26.67,13.26z"/>
	<path class="st19" d="M32.68,23.87c0.56,0.79,1.13,1.58,1.69,2.37c0.15,0.81,1.27,1.2,1.03,2.38c-1.05-1.61-2-3.07-2.95-4.54
		C32.52,24.02,32.6,23.95,32.68,23.87z"/>
	<path class="st16" d="M28.38,13.32c0.43,0.59,0.45,1.14,0.53,1.67c0.03,0.25,0.29,0.56-0.15,0.66c-0.26,0.06-0.57,0.08-0.81-0.01
		c-0.4-0.15-0.13-0.46-0.06-0.69C28.02,14.43,28.19,13.92,28.38,13.32z"/>
	<path class="st7" d="M29.34,11.6c0.95-0.44,1.19,0.19,1.39,0.91c0.24,0.88-0.42,0.72-0.88,0.8C29.75,12.72,29.28,12.24,29.34,11.6z
		"/>
	<path class="st20" d="M7.99,25.3c-0.21,0.06-0.42,0.16-0.63-0.01c0.26-1.36,1.27-0.86,2.19-0.93C9.15,25.07,8.4,24.89,7.99,25.3z"
		/>
	<path class="st21" d="M21.45,13.44c-0.25,0.73-0.5,1.47-0.76,2.2c-0.09,0.25-0.32,0.38-0.56,0.23c-0.24-0.15-0.05-0.35,0.03-0.51
		c0.36-0.67,0.73-1.34,1.1-2C21.32,13.38,21.39,13.41,21.45,13.44z"/>
	<path class="st22" d="M28.36,11.13c-0.64,0.84-0.73,1.91-1.21,2.82c-0.01,0.03-0.04,0.05-0.07,0.07c-0.06-0.09-0.12-0.18-0.18-0.26
		c0.33-0.92,0.63-1.85,1.01-2.75C28.17,10.42,28.32,10.69,28.36,11.13z"/>
	<path class="st23" d="M26.04,15.03c-0.08,0.56-0.31,0.93-0.97,0.88c-0.67-0.05-0.51-0.54-0.54-0.94c0.48-0.04,0.97-0.03,1.45,0
		L26.04,15.03z"/>
	<path class="st24" d="M30.07,13.74c0.19-0.02,0.4,0,0.58-0.05c0.43-0.13,0.58,0.14,0.65,0.46c0.11,0.51-0.31,0.3-0.53,0.34
		c-0.2,0.03-0.38,0.05-0.49,0.25C29.96,14.46,30.09,14.08,30.07,13.74z"/>
	<path class="st25" d="M30.29,14.73c0.39,0.48,1.48-0.18,1.48,0.92C31.05,15.72,30.27,15.87,30.29,14.73z"/>
	<path class="st26" d="M26.67,13.26c-0.39,0.08-0.77,0.16-1.16,0.22c-0.49,0.09-0.8-0.04-0.69-0.62c0.59,0.54,1.33-0.5,1.9,0.19
		C26.71,13.13,26.7,13.2,26.67,13.26z"/>
	<path class="st27" d="M21.73,15.83c0.04-0.54,0.28-0.87,0.55-1.32C22.81,15.28,22.94,15.78,21.73,15.83z"/>
	<path class="st28" d="M27.15,11.34c-0.71-0.07-1.5,0.69-2.11-0.23c0-0.06,0-0.13,0.01-0.19c0.53,0.06,1.02,0.65,1.61,0.01
		C26.84,10.74,27.19,10.94,27.15,11.34z"/>
	<path class="st29" d="M21.9,13.58c0.23-0.54,0.46-1.09,0.69-1.63C22.84,12.7,22.61,13.24,21.9,13.58z"/>
	<path class="st30" d="M6.79,25.54c0.19,0.01,0.51,0.06,0.28,0.28c-0.46,0.45-0.8,1.11-1.57,1.15C5.93,26.49,6.36,26.01,6.79,25.54z
		"/>
	<path class="st31" d="M25.98,14.97c-0.48,0.32-0.97,0.31-1.45,0c0.01-0.15,0.02-0.3,0.03-0.44C24.97,14.88,25.62,14.48,25.98,14.97
		z"/>
	<path class="st32" d="M27.4,42.81c-0.27,0.05-0.55,0.08-0.81,0.15c-0.64,0.18-0.86-0.08-0.86-0.71c0.01-2.66-0.01-5.31,0.01-7.97
		c0.01-0.95,0.76-1.14,2.13-0.58c-0.36,0.37-0.19,0.83-0.21,1.26c0.01,0.35-0.11,0.58-0.48,0.69c-0.28,0.09-0.34,0.43-0.1,0.53
		c0.93,0.41,0.43,1.21,0.55,1.83c0.02,1.18,0.01,2.36,0.01,3.54C27.65,42,27.73,42.45,27.4,42.81z"/>
	<path class="st16" d="M30.29,42.8c-1.79,0.23-1.92,0.13-1.92-1.53c0-1.23-0.01-2.46,0-3.69c0-0.5-0.15-1.05,0.44-1.38
		c0.17-0.09,0.32-0.37,0.1-0.48c-0.96-0.49-0.63-1.39-0.42-1.97c0.23-0.61,1.05-0.22,1.62-0.26c0.29,0.48,0.18,1,0.18,1.51
		c-0.04,2.29,0.13,4.59-0.11,6.88C30.15,42.19,30.1,42.52,30.29,42.8z"/>
	<path class="st33" d="M20.99,42.26c0.77,0.12,1.54,0.1,2.31,0.02c0.04,0.28,0.11,0.53,0.47,0.28c0.34-0.33,0.15-0.74,0.16-1.11
		c0.06-2.65-0.08-5.3,0.08-7.95c0.89-0.18,1.31,0.05,1.27,1.09c-0.07,2.36-0.07,4.72,0.01,7.07c0.03,0.9-0.33,1.25-1.11,1.3
		c-0.91,0.06-1.83,0.07-2.75,0.07C20.91,43.02,20.91,42.64,20.99,42.26z"/>
	<path class="st34" d="M30.82,38.25c0-1.31,0-2.63,0-3.94c0-0.38-0.1-0.84,0.54-0.84c0.56-0.01,0.64,0.33,0.64,0.78
		c-0.02,2.63-0.03,5.26-0.03,7.88c0,0.5-0.11,0.88-0.71,0.85c-0.66-0.04-0.43-0.55-0.44-0.9c-0.02-1.27-0.01-2.55-0.01-3.82
		C30.81,38.25,30.81,38.25,30.82,38.25z"/>
	<path class="st35" d="M30.29,42.8c-0.27-0.12-0.27-0.37-0.27-0.6c0.03-2.9,0.06-5.8,0.09-8.71c0.52,0.03,0.38,0.42,0.37,0.71
		C30.42,37.07,30.61,39.94,30.29,42.8z"/>
	<path class="st36" d="M27.4,42.81c0.01-1.22,0-2.45,0.03-3.67c0.01-0.38-0.15-0.8,0.21-1.11c0.52,1.54,0.2,3.12,0.17,4.68
		C27.81,42.75,27.55,42.78,27.4,42.81z"/>
	<path class="st37" d="M24.01,33.49c0.02,2.97,0.04,5.94,0.05,8.92c0,0.06-0.05,0.16-0.1,0.19c-0.04,0.02-0.13-0.03-0.19-0.04
		c0.01-2.61,0.02-5.22,0.04-7.82C23.82,34.32,23.63,33.86,24.01,33.49z"/>
	<path class="st38" d="M27.67,34.97c-0.25-0.47-0.6-0.97,0.21-1.26C27.87,34.14,28.06,34.61,27.67,34.97z"/>
	<path class="st39" d="M25.26,30.31c-0.34-1.98,1.23-3.4,2.72-3.73c2.49-0.55,4.29,1.54,3.75,3.75
		C29.58,30.9,27.42,30.63,25.26,30.31z"/>
	<path class="st40" d="M25.26,30.31c2.16,0.01,4.31,0.01,6.47,0.02c-0.46,0.48-0.99,0.85-1.68,0.7c-1.3-0.28-2.62-0.21-3.93-0.22
		C25.73,30.81,25.41,30.71,25.26,30.31z"/>
	<path class="st41" d="M15.41,32.24c-0.87-0.68-1.77-1.33-2.69-2.4c1.93,0,3.65,0,5.38,0c2.1,0,2.1,0,2.1,2.04c0,1.64,0,3.27,0,4.99
		c-0.56-0.08-0.72-0.65-1.15-0.81c-0.11-0.08-0.19-0.18-0.24-0.3c-0.25-0.93,0.03-1.9-0.21-2.84
		C18.04,31.05,17.23,30.87,15.41,32.24z"/>
	<path class="st42" d="M12.05,31.04c1.71,0,2.15,0.47,2.18,2.15c0.01,0.73-0.22,1.49,0.2,2.19l0,0c0,0.92,0.02,1.83,0,2.75
		c-0.03,1.47-1.2,0.8-1.78,0.76c-0.67-0.05-1.96,0.8-2-0.77c-0.05-1.98-0.15-3.97,0.14-5.95C10.88,31.43,11.18,30.93,12.05,31.04z"
		/>
	<path class="st43" d="M6.3,35.5c0.09-0.94-0.16-2.05,0.22-3.15c0.35-0.99,0.98-1.44,1.99-1.29c0.99,0.15,1.38,0.8,1.4,1.77
		c0.03,1.71-0.12,3.43,0.18,5.13c0.12,0.67-0.11,0.99-0.89,1.01c-2.91,0.09-2.91,0.12-2.91-2.83C6.3,35.99,6.3,35.83,6.3,35.5z"/>
	<path class="st44" d="M18.99,35.86c0.02,0.07,0.04,0.13,0.06,0.2c-0.01,0.49-0.02,0.97-0.03,1.46l0,0
		c-0.53,0.23,0.19,1.2-0.71,1.22c-0.25-1.65-0.03-3.31-0.1-4.96c-0.04-0.77-0.09-1.52-0.94-1.87c-0.24-0.05-0.45,0.05-0.65,0.17
		c-0.37,0.24-0.5,0.63-0.54,1.02c-0.16,1.46-0.09,2.92-0.05,4.39c0.01,0.33,0.19,0.6,0.47,0.78c0.23,0.34,0.46,0.03,0.69,0
		c0.47-0.06,0.89-0.01,1.13,0.48c-0.86,0.47-1.78,0.14-2.68,0.2c-0.45,0.03-0.44-0.37-0.45-0.69c-0.01-0.8-0.01-1.6-0.02-2.39
		c-0.38-0.71-0.54-1.43-0.01-2.15c-0.01-0.5,0.02-0.99,0.25-1.46c0.36-0.93,1.02-1.41,2.02-1.2c0.86,0.18,1.35,0.75,1.39,1.66
		C19.03,33.75,18.74,34.82,18.99,35.86z"/>
	<path class="st45" d="M12.05,31.04c-0.62,0.16-0.92,0.67-1.25,1.14c-0.67-0.71-1.33-1.42-2.11-2.26
		C10.12,29.75,11.33,29.63,12.05,31.04z"/>
	<path class="st46" d="M19.01,37.52c0.43,0.38,0.68,0.93,1.21,1.2c0,0,0,0,0,0c0,0.73,0,1.46,0,2.26
		C18.69,40.12,18.79,38.84,19.01,37.52C19.01,37.52,19.01,37.52,19.01,37.52z"/>
	<path class="st47" d="M15.16,33.7c0,0.72,0.01,1.43,0.01,2.15c-0.25-0.15-0.49-0.3-0.74-0.45c0,0,0,0,0,0
		c0-0.47,0.04-0.93,0.01-1.39C14.37,33.08,14.73,33.34,15.16,33.7z"/>
	<path class="st48" d="M29.6,21.93c-0.78,0.67-1.67,0.18-2.5,0.23c-0.35,0.02-0.36-0.36-0.36-0.64c-0.01-1.16,0-2.32-0.01-3.48
		c-0.01-0.66,0.29-0.96,0.95-0.9c0.2,0.02,0.4,0,0.6,0c1.59-0.01,1.6-0.01,1.58,1.54c-0.01,1-0.04,1.99-0.07,2.99
		c-0.72-0.16-0.43-0.78-0.55-1.21c-0.22-0.77,0.14-1.75-0.81-2.26c-0.17-0.01-0.33-0.01-0.5,0c-0.69,0.18-0.4,0.75-0.44,1.16
		c-0.05,0.54-0.01,1.09,0,1.63c0.01,0.46,0.23,0.62,0.66,0.6c0.12,0,0.24,0,0.36,0.01C28.92,21.61,29.3,21.63,29.6,21.93z"/>
	<path class="st49" d="M28.35,17.87c0.66-0.1,0.93,0.09,1.03,0.84c0.13,0.98,0,2.01,0.41,2.96c-0.06,0.09-0.13,0.17-0.19,0.26
		c-0.42-0.01-0.84-0.02-1.26-0.04C27.87,20.55,27.87,19.21,28.35,17.87z"/>
	<path class="st50" d="M21.94,17.3c1.38-0.18,1.63,0.58,1.45,1.73c-0.16,1.03,0.33,2.13-0.34,3.11c-0.4,0.01-0.8,0.04-1.2,0.04
		c-0.29,0-0.63-0.04-0.63-0.4c-0.01-1.27-0.01-2.55,0.07-3.81C21.3,17.73,21.71,17.52,21.94,17.3z"/>
	<path class="st51" d="M28.41,29.85c-0.64,0-1.28-0.06-1.91,0.01c-1.01,0.12-0.94-0.44-0.69-1.05c0.47-1.13,1.38-1.76,2.58-1.81
		c1.62-0.07,2.42,0.49,2.94,1.8c0.27,0.69,0.18,1.07-0.66,1.05C29.92,29.84,29.17,29.85,28.41,29.85z"/>
	<path class="st5" d="M18.99,35.86c-0.4-1.03-0.15-2.1-0.16-3.16C19.18,33.74,18.95,34.81,18.99,35.86z"/>
	<path class="st52" d="M12.53,31.53c1.11,0.02,1.4,0.78,1.43,1.68c0.04,1.35-0.04,2.71,0.03,4.06c0.06,1.02-0.28,1.42-1.29,1.16
		c-0.26-0.31-0.44-0.66-0.46-1.07c-0.07-1.69-0.05-3.39-0.01-5.08C12.23,32,12.35,31.75,12.53,31.53z"/>
	<path class="st53" d="M12.29,38.49c-0.92,0.14-1.28-0.2-1.22-1.17c0.08-1.27,0-2.55,0.03-3.82c0.02-0.87,0.21-1.67,1.19-1.97
		C12.47,33.85,12.51,36.17,12.29,38.49z"/>
	<path class="st54" d="M12.29,38.49c0-2.32,0-4.64,0-6.96c0.08-0.02,0.15-0.02,0.23,0c0.06,2.3,0.11,4.6,0.17,6.9
		C12.56,38.45,12.43,38.47,12.29,38.49z"/>
	<path class="st53" d="M8.5,38.53c-1.66,0.1-1.72,0.05-1.72-1.45c0-1.19-0.04-2.39,0.01-3.58c0.04-0.92,0.18-1.85,1.39-1.98
		c0.35,0.34,0.36,0.77,0.36,1.21c-0.01,1.86,0.04,3.72-0.02,5.58C8.52,38.38,8.51,38.45,8.5,38.53z"/>
	<path class="st55" d="M8.45,31.53c0.99,0.2,1.19,0.95,1.2,1.8c0.02,1.32-0.05,2.64,0.02,3.95c0.05,0.92-0.22,1.36-1.17,1.25
		c0,0-0.06-0.06-0.06-0.06C8.28,36.16,8.27,33.84,8.45,31.53z"/>
	<path class="st56" d="M8.45,31.53c0,2.31,0,4.62-0.01,6.94C8,38.19,8.2,37.74,8.19,37.38c-0.02-1.96-0.01-3.91-0.01-5.87
		C8.27,31.52,8.36,31.52,8.45,31.53z"/>
	<path class="st32" d="M17.08,31.54c0.86-0.08,1.35,0.51,1.37,1.18c0.06,2,0.33,4.03-0.15,6.02c0,0,0.01,0,0.01,0
		c-0.37-0.23-0.78-0.28-1.2-0.24c-0.21-0.21-0.31-0.46-0.32-0.74c-0.05-1.82-0.05-3.63,0-5.45C16.79,32.02,16.9,31.76,17.08,31.54z"
		/>
	<path class="st57" d="M16.67,38.45c-0.66,0.11-1.06-0.03-1.03-0.84c0.05-1.39-0.04-2.79,0.04-4.17c0.04-0.65-0.06-1.51,0.95-1.67
		c0.25,0.23,0.34,0.53,0.34,0.85c0.01,1.69,0.01,3.38,0,5.08C16.96,37.98,16.84,38.23,16.67,38.45z"/>
	<path class="st58" d="M16.67,38.45c0.19-2.23,0.27-4.46-0.04-6.68c0.09-0.2,0.25-0.25,0.45-0.24c0.01,2.32,0.02,4.64,0.03,6.96
		C16.96,38.56,16.81,38.58,16.67,38.45z"/>
	<path class="st55" d="M28.15,21.91c-0.71,0.11-1.03-0.13-0.99-0.9c0.05-0.79,0.03-1.59,0.01-2.39c-0.02-0.55,0.16-0.85,0.76-0.74
		C28.36,19.2,28.02,20.57,28.15,21.91z"/>
	<path class="st59" d="M28.15,21.91c-0.51-1.32-0.15-2.68-0.22-4.02c0.14,0,0.28-0.01,0.42-0.02c0,1.34-0.01,2.68-0.01,4.02
		c0,0-0.1,0.01-0.1,0.01L28.15,21.91z"/>
	<path class="st60" d="M21.99,21.55c0-1.26,0-2.51,0-3.77c0.08,0,0.16-0.01,0.24-0.01c0,1.26,0,2.52,0,3.78
		C22.15,21.55,22.07,21.55,21.99,21.55z"/>
</g>
</svg>
