<?xml version="1.0" encoding="utf-8"?>
<!-- Generator: Adobe Illustrator 23.0.2, SVG Export Plug-In . SVG Version: 6.00 Build 0)  -->
<svg version="1.1" id="Camada_1" xmlns="http://www.w3.org/2000/svg" xmlns:xlink="http://www.w3.org/1999/xlink" x="0px" y="0px"
	 viewBox="0 0 39.63 46.85" style="enable-background:new 0 0 39.63 46.85;" xml:space="preserve">
<style type="text/css">
	.st0{fill:#020101;}
	.st1{fill:#523023;}
	.st2{fill:#623832;}
	.st3{fill:#4E2E21;}
	.st4{fill:#482B1D;}
	.st5{fill:#5D3530;}
	.st6{fill:#E0AF8C;}
	.st7{fill:#AA7157;}
	.st8{fill:#E1B08D;}
	.st9{fill:#855939;}
	.st10{fill:#845838;}
	.st11{fill:#825737;}
	.st12{fill:#855938;}
	.st13{fill:#AC7358;}
	.st14{fill:#E3B28F;}
	.st15{fill:#DDA670;}
	.st16{fill:#CC9666;}
	.st17{fill:#844F49;}
	.st18{fill:#A66E56;}
	.st19{fill:#815636;}
	.st20{fill:#754C32;}
	.st21{fill:#ECBB96;}
	.st22{fill:#835737;}
	.st23{fill:#A4744D;}
	.st24{fill:#845839;}
	.st25{fill:#815637;}
	.st26{fill:#86504A;}
	.st27{fill:#CE9866;}
	.st28{fill:#805535;}
	.st29{fill:#6E4833;}
	.st30{fill:#7F5435;}
	.st31{fill:#BE8873;}
	.st32{fill:#CF9A6C;}
	.st33{fill:#7E5336;}
	.st34{fill:#C28D5F;}
	.st35{fill:#BD885C;}
	.st36{fill:#C79162;}
	.st37{fill:#D5A585;}
	.st38{fill:#FAC9A1;}
	.st39{fill:#845A3F;}
	.st40{fill:#844E48;}
	.st41{fill:#854F4A;}
	.st42{fill:#5C332C;}
	.st43{fill:#C38F60;}
	.st44{fill:#663A34;}
	.st45{fill:#DBA56B;}
	.st46{fill:#DEAD8C;}
	.st47{fill:#A16A52;}
	.st48{fill:#C89363;}
	.st49{fill:#BE8A5D;}
	.st50{fill:#643933;}
	.st51{fill:#C79A70;}
	.st52{fill:#582F2B;}
	.st53{fill:#E1B18E;}
	.st54{fill:#5D3330;}
	.st55{fill:#623833;}
	.st56{fill:#693D37;}
	.st57{fill:#E2B28F;}
	.st58{fill:#E4B490;}
	.st59{fill:#582E2B;}
	.st60{fill:#E8B893;}
	.st61{fill:#613631;}
	.st62{fill:#814C47;}
	.st63{fill:#6F403B;}
	.st64{fill:#5B312D;}
	.st65{fill:#7F4A45;}
	.st66{fill:#DBA989;}
	.st67{fill:#865A39;}
	.st68{fill:#D29C69;}
	.st69{fill:#854F49;}
	.st70{fill:#683C36;}
	.st71{fill:#87514B;}
	.st72{fill:#F6C79D;}
	.st73{fill:#87524B;}
	.st74{fill:#834D48;}
	.st75{fill:#DFAD8C;}
	.st76{fill:#834E48;}
	.st77{fill:#89534C;}
	.st78{fill:#E0AD8C;}
	.st79{fill:#AA7665;}
	.st80{fill:#B5806C;}
</style>
<g>
	<path class="st0" d="M3.41,37.86c0-1.92-0.01-3.84,0.01-5.76c0-0.47-0.02-0.74-0.62-0.9c-0.63-0.17-1.15-0.7-1.26-1.45
		c-0.11-0.78,0.47-1.04,0.97-1.47c1.21-1.04,2.4-2.13,3.43-3.34c0.89-1.05,1.91-1.47,3.23-1.46c3,0.02,6-0.02,8.99,0.02
		c0.79,0.01,1.05-0.21,0.99-1c-0.07-0.99-0.02-2-0.01-3c0.01-0.59,0.04-1.08-0.63-1.49c-0.66-0.4-0.6-1.21-0.23-1.84
		c2.25-3.89,4.19-7.94,6.08-12.01c0.22-0.47,0.48-0.92,0.79-1.33c0.99-1.3,2.33-1.26,3.18,0.13c1.9,3.09,3.29,6.43,4.84,9.7
		c0.46,0.97,0.93,1.92,1.44,2.87c0.44,0.83,0.51,1.58-0.28,2.24c-0.12,0.1-0.28,0.18-0.36,0.31c-0.51,0.79-0.06,5.37,0.61,6.05
		c1.43,1.44,2.29,3.25,3.27,4.97c0.42,0.74,0.4,1.62-0.67,1.91c-0.68,0.18-0.46,0.66-0.47,1.04c-0.05,3.88-0.04,7.75-0.12,11.63
		c-0.04,1.94-0.58,2.25-2.47,1.69c-0.33-0.1-0.71-0.07-1.07-0.07c-8.31,0-16.63,0-24.94,0c-1.1,0-2.15,0.49-3.32-0.02
		c-0.85-0.37-1.34-0.75-1.34-1.69c0.01-1.92,0-3.84,0-5.75C3.45,37.86,3.43,37.86,3.41,37.86z"/>
	<path class="st1" d="M33.67,16.41c-1.31,0.74-0.93,2.01-0.95,3.14c-0.03,1.43-0.01,2.86-0.01,4.29c-0.65-0.16-0.52-0.71-0.54-1.14
		c-0.05-1.22-0.01-2.45-0.02-3.68c0-0.44,0.03-0.89-0.46-1.12c-0.41-0.21-0.86-0.19-1.3-0.2c-0.83-0.01-1.66,0.01-2.48-0.01
		c-2.93-0.36-2.74-0.45-2.73,2.46c0,1.08,0.02,2.16,0,3.24c-0.02,0.91,0.37,1.31,1.28,1.3c1.24-0.02,2.48-0.01,3.72,0
		c0.52,0.01,1.04-0.04,1.52,0.23c0.12,0.08,0.16,0.19,0.14,0.33c-0.42,0.45-0.97,0.2-1.46,0.27c-0.08,0.01-0.16,0-0.24,0
		c-1.23,0-2.46,0-3.68,0c1.54,0,3.09,0.01,4.63,0c0.38,0,0.81,0.13,1.08-0.3c0.07-0.15,0.16-0.3,0.27-0.43
		c0.84-0.06,0.93,0.77,1.28,1.21c0.6,0.75,1.1,1.6,1.65,2.4c-0.85-1.28-1.74-2.52-2.56-3.82c-0.02-0.18,0.02-0.34,0.16-0.47
		c1.44,1.34,2.48,2.96,3.4,4.68c0.3,0.56,0.58,1.08-0.37,1.3c-0.63,0.15-0.38,0.71-0.39,1.1c-0.02,3.62-0.01,7.24-0.03,10.86
		c0,0.43,0.12,0.88-0.19,1.27c-0.48-0.44-0.35-1.04-0.36-1.58c-0.04-3.6-0.01-7.19-0.02-10.79c0-0.57,0.01-1.12-0.38-1.58
		c-0.46-0.73-0.8-1.54-1.38-2.2c-0.14-0.12-0.29-0.23-0.47-0.3c-2.55-0.12-5.11-0.03-7.66-0.04c-0.24,0-0.53-0.05-0.69,0.13
		c-1.28,1.39-2.9,2.55-2.88,4.75c0.03,2.51,0.01,5.03,0,7.54c0,0.6,0.03,1.2-0.1,1.79c-0.25,0.35-0.01,1.09-0.8,1.02
		c-0.52-0.85-0.07-1.85-0.44-2.73c0.2-2.74,0.21-5.48,0.14-8.23c-0.09-0.56-0.48-0.67-0.96-0.67c-4.27-0.01-8.54,0.01-12.81,0.03
		c-0.96,0-1.1,0.55-1.09,1.31c0.01,3.11,0.01,6.23,0,9.34c0,0.56,0.03,1.12-0.1,1.67c-0.13,0.35-0.24,0.72-0.72,0.74
		c-0.02-4.47-0.03-8.95-0.05-13.42c0.24-0.82,0.94-0.58,1.48-0.58c3.99-0.03,7.97-0.01,11.96-0.02c0.52,0,1.04,0.03,1.54-0.04
		c-0.64-0.83-1.54-0.26-2.29-0.43c-0.9-0.21-1.89-0.04-2.74-0.11c-1.11-0.09-2.27,0.85-3.32-0.07c-0.92,0.58-1.88-0.63-2.87,0.14
		c-0.65,0.51-1.17-0.48-1.84-0.51c-0.16-0.08-0.27-0.21-0.3-0.39c0.22-0.61,0.76-0.9,1.23-1.25c0.25-0.19,0.6-0.38,0.88-0.15
		c0.35,0.29-0.02,0.57-0.13,0.84c-0.04,0.11-0.12,0.21-0.09,0.41c0.43-0.04,0.62-0.43,0.93-0.62c0.31-0.18,0.7-0.46,0.89,0.04
		c0.31,0.8,0.66,0.45,1.06,0.13c0.42-0.34,0.81-0.57,1.08,0.17c0.18,0.5,0.5,0.24,0.76,0.06c0.47-0.32,0.93-0.71,1.41,0.01
		c0.13,0.2,0.37,0.18,0.52,0.02c0.62-0.67,1.21-0.42,1.92-0.1c0.61,0.28,1.37,0.55,1.97-0.2c0.12-0.16,0.42-0.23,0.54-0.05
		c0.61,0.97,1.32,0.18,1.98,0.19c0.16-0.06,0.03-0.27,0.09-0.12c0.01,0.02-0.03,0.02-0.1,0.04c-0.4,0.15-0.78,0.13-1.16-0.07
		c-0.44-0.24-0.88-0.15-1.37-0.13c-1.12,0.06-2.24-0.29-3.37-0.19c-1.36,0.11-2.7-0.33-4.06-0.18c-0.12,0.01-0.27,0.06-0.35,0
		c-0.87-0.61-1.9-0.55-2.88-0.66c0.09-0.93,0.93-0.73,1.39-1c-0.17-0.06-0.46,0.03-0.68-0.19C8.65,25,8.65,24.9,8.73,24.8
		c3.36,0,6.71-0.08,10.07,0.02c1.28,0.04,1.57-0.38,1.49-1.55c-0.1-1.47,0.02-2.96-0.04-4.43c-0.03-0.65,0.46-1.54-0.73-1.83
		c-0.37-0.09,0.02-0.56,0.15-0.8c1.37-2.7,2.77-5.39,4.15-8.09c0.72-1.42,1.37-2.87,2.14-4.27c0.55-1.01,0.9-0.96,1.5,0.09
		c-0.05,0.11-0.11,0.21-0.19,0.3c-0.69,1.74-0.83,3.62-1.27,5.42c-0.23,0.63-0.1,1.33-0.34,1.96c-0.02,0.12-0.04,0.24-0.07,0.36
		c-0.15,0.52-0.23,1.05-0.34,1.57c-0.17,0.51-0.11,1.04-0.13,1.57c0,0.17,0,0.34,0,0.51c0.04,0.24-0.08,0.56,0.27,0.65
		c0.31,0.08,0.48-0.13,0.59-0.39c0.11-0.24,0.2-0.49,0.28-0.74c0.14-0.4,0.27-0.81,0.43-1.21c0.03-0.1,0.08-0.21,0.12-0.31
		c0.18-0.54,0.29-1.09,0.48-1.63c0.03-0.08,0.05-0.15,0.08-0.23c0.25-0.56,0.23-1.4,1.02-1.45c0.8-0.05,0.86,0.8,1.17,1.32
		c0.11,0.21,0.21,0.42,0.28,0.64c0.1,0.54,0.37,1.03,0.51,1.56c0.05,0.2,0.09,0.41,0.15,0.61c0.08,0.29,0.11,0.6,0.22,0.88
		c0.04,0.09,0.08,0.19,0.12,0.28c0.2,0.59,0.69,0.48,1.14,0.5c0.34,0.01,0.51-0.26,0.73-0.45C33.29,15.55,33.13,16.44,33.67,16.41z"
		/>
	<path class="st2" d="M20.71,42.08c0.41-0.2,0.11-0.74,0.48-0.96c0.58,0.6,0.18,1.43,0.5,2.08c1.03,0.47,2.1,0.22,3.15,0.16
		c0.61-0.03,0.59-0.64,0.59-1.12c0-1.94-0.01-3.89,0.01-5.83c0-0.51-0.08-1.04,0.25-1.5c0.12-0.1,0.24-0.11,0.37-0.03
		c0.37,0.48,0.29,1.06,0.29,1.6c0.02,1.9,0.01,3.81,0,5.71c0,0.75,0.25,1.15,1.07,0.9c0.56-0.23,0.38-0.73,0.4-1.13
		c0.05-1.07-0.07-2.14,0.09-3.21c0.34-0.54-0.17-1.44,0.72-1.75c0.42,0.41,0.33,0.95,0.34,1.46c0.02,1.23-0.01,2.46,0.02,3.69
		c0.01,0.69,0.23,1.19,1.08,0.93c0.36-0.27,0.08-0.99,0.74-1.03c0.35,0.25,0.21,0.79,0.59,1.01c0.72-0.14,0.47-0.74,0.47-1.13
		c0.04-2.1,0-4.2,0.03-6.31c0.01-0.52-0.15-1.14,0.46-1.5c0.43,0.29,0.23,0.73,0.23,1.09c0.02,2.44,0.01,4.88,0.04,7.32
		c0.05,0.16,0.25-0.06,0.11,0.01c-0.06,0.03-0.1,0.01-0.1-0.06c-0.01-2.85-0.11-5.7,0.05-8.55c0.84,0.19,0.63,0.9,0.64,1.42
		c0.04,2.43,0.03,4.86,0.01,7.29c-0.09,0.56,0.11,0.81,0.71,0.77c0.55-0.04,0.48-0.42,0.5-0.77c0.02-0.41-0.16-0.78-0.22-1.18
		c-0.16-3.83-0.06-7.66-0.06-11.49c0-0.4,0.04-0.8,0.37-1.1c0.61,0.55,0.72,1.24,0.72,2.04c-0.02,4.13,0,8.26,0.01,12.4
		c0.15,0.84-0.14,1.03-1.01,0.93c-3.73-0.43-7.48-0.11-11.23-0.23c-0.91,0.21-1.83,0.05-2.74,0.1c-4.19,0-8.39,0-12.58,0
		c-0.44,0-0.88,0.08-1.31-0.08c-0.6-0.22-1.46,0.49-1.84-0.52c0.15-0.16,0.29-0.32,0.44-0.48c4.59,0.24,9.19,0.02,13.78,0.14
		C19.86,43.21,20.05,42.34,20.71,42.08z"/>
	<path class="st3" d="M8.73,24.8c0,0.08,0,0.15,0,0.23c-0.29,0.42-0.84,0.61-1.01,1.13c-0.05,0.09-0.12,0.17-0.2,0.25
		C6.95,26.82,6.47,27.32,6,27.82c-0.46,0.67,0.42,0.05,0.34,0.35c0.08,0.07,0.16,0.14,0.23,0.22c-0.07,0.36-0.3,0.59-0.54,0.65
		c1.88,0.18,3.85-0.13,5.83,0.14c0.85,0.11,1.74-0.05,2.6-0.09c1.67-0.08,3.33-0.05,4.99,0.15c0.29,0.03,0.53-0.2,0.82-0.1
		c0.09,0.7,0.09,0.71-0.75,0.72c-2.59,0.01-5.18,0-7.78,0c-1.95,0-3.91-0.01-5.86,0.01c-0.42,0-0.89-0.16-1.23,0.25
		c-0.45-0.43-1.36,0.34-1.54-0.43c-0.14-0.61,0.67-0.91,1.06-1.33c0.98-1.04,2-2.05,3.02-3.05C7.6,24.89,8.14,24.73,8.73,24.8z"/>
	<path class="st4" d="M27.2,3.93c0.08,0,0.16,0,0.24,0c0.99,1.13,1.49,2.53,2.14,3.85c1.4,2.86,2.73,5.76,4.09,8.64
		c-0.93,0.55-0.54-0.6-0.94-0.73c-0.6,0.05-0.68-0.47-0.84-0.83c-0.81-1.85-1.69-3.68-2.52-5.53c-0.48-1.35-1.24-2.57-1.84-3.87
		c-0.18-0.39-0.44-0.76-0.47-1.21C27.08,4.13,27.13,4.02,27.2,3.93z"/>
	<path class="st5" d="M32.49,24.79c0,0.17,0,0.33,0,0.5c-0.24,0.21-0.48,0.21-0.72,0c-0.01-0.1-0.01-0.2-0.02-0.3
		c-0.25-0.24-0.32-0.55-0.33-0.86c-0.06-1.85-0.05-3.7,0-5.55c0.01-0.36,0.07-0.71,0.37-0.96c0.54,0.09,0.74,0.35,0.72,0.95
		c-0.06,1.39-0.03,2.78-0.02,4.17c0,0.38-0.13,0.8,0.22,1.13c0.08,0.09,0.17,0.18,0.25,0.27c0,0.16,0,0.31,0,0.46
		C32.82,24.69,32.62,24.66,32.49,24.79z"/>
	<path class="st3" d="M6.52,44.04c4.66-0.01,9.31-0.03,13.97-0.04c0,0.06,0,0.11,0,0.17c-4.47,0.02-8.94,0.04-13.41,0.05
		C6.89,44.22,6.71,44.1,6.52,44.04z"/>
	<path class="st1" d="M20.49,44.17c0-0.06,0-0.11,0-0.17c0.89,0.01,1.77,0.01,2.66,0.02C22.28,44.42,21.38,44.18,20.49,44.17z"/>
	<path class="st6" d="M33,43.01c-0.01-2.66-0.02-5.33-0.06-7.99c0-0.36,0.2-0.8-0.22-1.09c-0.71,0.31-1.43,0.27-2.2,0.18
		c-1.9-0.21-3.81-0.07-5.72-0.08c-0.79,0-0.86,0.53-0.86,1.14c0,2.11,0,4.22,0,6.32c0,0.64,0.01,1.28-0.23,1.88
		c-0.83,0.38-1.66,0.54-2.45-0.08c-0.02-0.72-0.05-1.45-0.07-2.17c0.02-3.07,0.1-6.15,0.04-9.22c-0.03-1.37,0.48-2.38,1.27-3.46
		c1.13-1.56,2.44-2.15,4.33-1.94c2.12,0.24,4.28-0.17,6.41,0.21c-2.53,0.32-5.07,0.46-7.67,0.05c0.66,0.37,1.48-0.37,1.96,0.48
		c-0.01,0.96-1.11,1.18-1.35,1.98c-0.31,0.54-0.48,1.1-0.24,1.72c1.88,0.62,3.75,0.92,5.64,0.04c0.44-0.6,0.13-1.17-0.05-1.75
		c-0.26-0.67-1.01-1.05-1.11-1.82c0-0.38,0.17-0.58,0.57-0.55c0.81,0.05,1.63-0.11,2.44,0.12c0.57,0.53,0.82,1.27,1.21,1.92
		c0.01,4.32,0.02,8.63,0.03,12.95c0.06,0.49,0.31,1.05-0.27,1.38C33.93,43.48,33.43,43.42,33,43.01z"/>
	<path class="st7" d="M20.71,42.08c-0.05,1.43-0.93,1.52-2.12,1.5c-4.11-0.07-8.21-0.02-12.32-0.03c-0.43,0-1.01,0.22-1.15-0.5
		c0.01-3.95,0.04-7.9,0.01-11.85c-0.01-0.87,0.22-1.17,1.14-1.16c4.47,0.05,8.94,0.04,13.41,0.02c0.73,0,1.19,0.14,1,0.99
		c-0.11,0.07-0.22,0.09-0.35,0.05c-2.15-0.46-4.33-0.06-6.61-0.25c0.64,0.85,1.62,1.18,2.04,2.06c0.08,0.49,0.02,0.96-0.19,1.42
		c-0.82,0.3-0.57,0.94-0.43,1.51c0.08,0.33,0.41,0.56,0.52,0.9c0.06,0.19,0.08,0.38,0.09,0.58c0.12,2.3,0.23,2.38,2.66,1.91
		c0.4-0.2,0.3-0.69,0.56-0.97c0.1-0.06,0.21-0.08,0.32-0.04c0.28,0.29,0.33,0.67,0.21,1c-0.31,0.84,0.13,1.35,0.67,1.85
		c0.04-0.48-0.05-0.96,0.12-1.42c0.05-0.11,0.13-0.18,0.24-0.24C20.87,40.28,20.62,41.19,20.71,42.08z"/>
	<path class="st8" d="M31.79,17.6c-0.01,2.46-0.03,4.92-0.04,7.38c-1.96,0.01-3.91-0.01-5.87,0.04c-0.75,0.02-1.11-0.18-1.1-0.99
		c0.03-2.04,0.02-4.07,0-6.11c-0.01-0.59,0.2-0.78,0.77-0.73c0.79,0.08,1.59,0.11,2.39,0.16c0.44,0.27,0.92,0.07,1.37,0.13
		c0.25,0.03,0.59-0.08,0.59,0.36c-0.45,0.44-1.04,0.36-1.58,0.33c-0.82-0.05-1.04,0.32-1.01,1.06c0.03,0.67,0,1.35,0.01,2.02
		c0.01,1.27,0.07,1.33,1.36,1.3c0.28,0,0.56,0.02,0.8-0.14c0.14-0.12,0.23-0.26,0.28-0.43c0.12-1.32-0.14-2.66,0.15-3.97
		c0.06-0.4,0.41-0.49,0.69-0.66C31.02,17.23,31.45,17.21,31.79,17.6z"/>
	<path class="st9" d="M6.33,28.17c-0.07,0.04-0.14,0.07-0.21,0.11c-0.28,0.18-0.62,0.6-0.88,0.19c-0.22-0.34,0.26-0.57,0.53-0.79
		c0.72-0.32,1.11-1.05,1.76-1.45l-0.02,0.02c0.14-0.14,0.28-0.14,0.43-0.01C8.3,26.26,8.67,26.29,9,26.11
		c0.45-0.25,0.86-0.4,1.16,0.23c0.09,0.18,0.4,0.39,0.57,0.36c0.92-0.15,1.84-0.45,2.66,0.28c1.12-0.79,2.45,0.53,3.57-0.35
		c0.2-0.15,0.36,0.05,0.48,0.22c0.18,0.24,0.49,0.48,0.71,0.34c1.29-0.82,2.61,0.9,3.93-0.37c-0.38,1.51-1.66,1.16-2.43,1.67
		c-0.51,0.34-0.1-0.72-0.54-0.88c-1.13,0.94-1.67,0.94-3.02,0.01c-0.48-0.33-0.7,0.11-0.99,0.34c-0.41,0.32-0.89,1.2-1.1-0.14
		c-0.05-0.34-0.27-0.34-0.51-0.16c-0.13,0.1-0.23,0.22-0.36,0.31c-1.16,0.86-1.16,0.85-1.37-0.58c-0.67,0.11-0.82,1.18-1.66,0.93
		c-0.52-0.16-0.26-0.66-0.34-1.04c-0.54,0.1-0.74,0.61-1.12,0.87c-0.28,0.19-0.55,0.59-0.92,0.24c-0.3-0.29,0.03-0.6,0.17-0.86
		c0.12-0.23,0.33-0.42,0.64-0.81C7.44,26.96,6.98,27.7,6.33,28.17z"/>
	<path class="st10" d="M20.25,29.13c-0.32,0.17-0.66,0.24-1.03,0.24c-4.66-0.01-9.32,0-13.97-0.01c-0.26,0-0.54,0.04-0.81-0.28
		c0.74-0.33,1.61-0.02,2.13-0.7c0.25,0.06,0.46-0.66,0.72-0.08c0.42,0.92,0.97,0.69,1.47,0.16c0.43-0.46,0.67-0.38,0.98,0.09
		c0.13,0.19,0.38,0.38,0.61,0.21c0.59-0.42,1.09-0.44,1.51,0.21c0.03,0.05,0.18,0.1,0.21,0.08c0.79-0.67,1.92-0.04,2.45-0.33
		c1.12-0.62,1.95,0.07,2.9,0.03C18.41,28.71,19.33,28.85,20.25,29.13z"/>
	<path class="st11" d="M27.2,3.93c0,0.09-0.01,0.17-0.01,0.26c0.04,0.92,0.68,1.59,1.04,2.37c0.58,1.27,0.48,1.46-0.93,1.53
		C27.15,8.09,27,8.2,26.92,8.16c0.44-0.16,0.98,0.2,1.49-0.1c0.4-0.23,0.57,0.04,0.73,0.35c0.18,0.35,0.26,0.85-0.12,0.94
		c-1.05,0.25-2.05,0.95-3.21,0.49c-0.02-0.05-0.04-0.11-0.06-0.17c0.12-1.86,0.76-3.61,1.01-5.45C26.79,3.98,27,3.94,27.2,3.93z"/>
	<path class="st12" d="M25.53,7.06c-0.4,3.18-1.24,6.08-1.24,9.14C22.57,12.92,23.63,10.04,25.53,7.06z"/>
	<path class="st13" d="M20.96,17.85c0.58-0.47,1.24-0.53,1.94-0.43c0.01,0.08,0,0.17-0.06,0.2c-0.28,0.15-0.63,0.23-0.53,0.68
		c-1.01,1.23-0.42,2.64-0.46,3.98c-0.01,0.28,0.34,0.27,0.57,0.29c0.35,0.03,0.71,0.04,1.01,0.28c0.33,0.66,0.98,1.27,0.33,2.09
		c-0.87,0.29-1.73,0.4-2.56-0.12l-0.02,0c-0.19-0.35-0.35-0.72-0.34-1.13C20.92,21.73,20.7,19.79,20.96,17.85z"/>
	<path class="st11" d="M29.39,11.85c-0.46-0.36-0.3-1.37-0.97-1.32c-0.8,0.06-0.46,1.14-0.93,1.59c-0.05-0.01-0.1-0.02-0.15-0.03
		c-0.69-0.06-1.5,0.43-2.01-0.45c0.39-0.6-0.02-1.38,0.43-1.97c0,0,0.06,0.08,0.06,0.08c0.18,0.4,0.57,0.58,0.87,0.34
		c0.83-0.69,1.89-0.29,2.77-0.67c0.36,0.47,0.62,1,0.81,1.55C30.52,11.77,30.22,12.1,29.39,11.85z"/>
	<path class="st14" d="M23.86,24.79c-0.18-0.65-0.36-1.29-0.54-1.94c-0.06-0.11-0.09-0.23-0.08-0.35c0-1.33,0.25-2.68-0.14-4
		c-0.19-0.12-0.4-0.17-0.58-0.3c-0.04-0.04-0.07-0.08-0.11-0.13c-0.85-0.97,0.63-0.23,0.5-0.68c1.18-0.34,1.48,0.14,1.43,1.3
		c-0.09,2.02-0.02,4.05-0.01,6.07C24.17,24.95,24.02,24.95,23.86,24.79z"/>
	<path class="st15" d="M23.82,25.32c-0.06,0.08-0.13,0.15-0.19,0.23c-1.7,0.64-3.45,0.24-5.18,0.26c-1.35,0.01-2.71-0.08-4.06,0.02
		c-0.48,0.04-0.95,0.05-1.35-0.29c-0.15,0.02-0.31,0.05-0.46,0.07c-0.46,0.05-0.91,0.26-1.37,0.22c-0.41-0.04-0.97-0.03-0.73-0.74
		c3.41,0,6.81-0.01,10.22-0.01C21.73,25.27,22.82,24.7,23.82,25.32z"/>
	<path class="st16" d="M29.39,11.85c0.71-0.04,0.97-0.36,0.64-1.04c-0.22-0.45-0.44-0.9-0.66-1.36c-0.07-0.23,0.02-0.3,0.24-0.24
		c0.83,1.79,1.66,3.58,2.49,5.36c0.18,0.39,0.29,0.82,0.64,1.11c0.12,0.58-0.06,0.85-0.68,0.68c-0.41-0.44-1.18-0.31-1.49-0.92l0,0
		c-0.17-0.45,0.42-0.34,0.47-0.63c-0.2-0.19-0.53-0.1-0.71-0.33c-0.19-0.09-0.2-0.27-0.2-0.45c0.87-0.81,0.79-1.1-0.51-1.72
		C29.54,12.16,29.46,12,29.39,11.85z"/>
	<path class="st17" d="M28.64,11.85c0.73,1,1.47,3.19,1.57,4.71c-0.83-0.75-0.53-1.84-0.99-2.64c-0.15-0.25-0.06-0.75-0.48-0.7
		c-0.38,0.04-0.49,0.44-0.57,0.82c-0.14,0.66-0.32,1.31-0.54,1.94c-0.14,0.42-0.57,0.69-0.94,0.54c-0.41-0.17-0.04-0.55,0.05-0.82
		c0.14-0.41,0.3-0.81,0.45-1.21c0.53-0.49,0.57-1.2,0.85-1.81C28.18,12.35,28.09,11.87,28.64,11.85z"/>
	<path class="st5" d="M20.96,17.85c0.48,2.31,0.11,4.64,0.23,6.97c-0.41-0.19-0.72-0.41-0.71-0.96c0.03-1.77,0.01-3.55,0.01-5.32
		C20.49,18.19,20.54,17.9,20.96,17.85z"/>
	<path class="st18" d="M20.52,31.05c0.06,0,0.11,0,0.17,0c0.02,2.79,0.07,5.57-0.14,8.35c-0.03,0.03-0.06,0.05-0.09,0.08
		c-0.8,0-0.93-0.62-1.12-1.2c-0.08-0.01-0.15-0.02-0.23-0.03c-0.56-0.45-0.39-1.1-0.39-1.67c0.01-0.99-0.16-1.99,0.15-2.96
		c0.54-0.51,0.58,0.09,0.66,0.35c0.16,0.5,0.07,1.03,0.11,1.54c0.03,0.43-0.01,0.88,0.49,1.34c0.02-1.5-0.01-2.87,0.02-4.24
		C20.16,32.07,20.03,31.49,20.52,31.05z"/>
	<path class="st19" d="M23.39,25.79c-0.69,0.78-1.76,0.69-2.58,1.16c-0.03,0.02-0.11,0.02-0.11,0c-0.64-1.2-1.51-0.28-2.29-0.27
		c-0.53,0-0.55-0.47-0.58-0.88C19.68,25.55,21.53,25.57,23.39,25.79z"/>
	<path class="st20" d="M31.76,25.28c0.24,0,0.48,0,0.72,0c0.16,0.18,0.21,0.43-0.07,0.43c-2.48,0.02-4.97,0.01-7.45,0.01
		c0-0.15,0-0.3,0-0.45C27.23,25.28,29.5,25.28,31.76,25.28z"/>
	<path class="st21" d="M27.48,27.46c-0.19-0.38-0.44-0.55-0.91-0.51c-0.66,0.06-1.33,0.02-1.99-0.24c2.89,0,5.78,0,8.67,0
		c0.07,0.09,0.13,0.17,0.2,0.26c-0.7,0-1.41,0.04-2.11-0.02c-0.44-0.03-0.63,0.17-0.79,0.5C29.53,27.69,28.5,27.66,27.48,27.46z"/>
	<path class="st22" d="M25.03,13.51c-0.02-0.58,0.12-1.13,0.28-1.68c0.59,0.23,1.16,0.55,1.76,0c0.1-0.09,0.27,0.1,0.35,0.23
		c0,0,0.06,0.06,0.06,0.06c-0.16,0.55-0.33,1.1-0.49,1.66c-0.64-0.02-1.31,0.5-1.91-0.11C25.06,13.62,25.05,13.56,25.03,13.51z"/>
	<path class="st23" d="M23.39,25.79c-1.86,0-3.71,0.01-5.57,0.01c-0.15-0.01-0.3-0.01-0.45-0.02c-0.65,0.3-1.3,0.49-1.96,0.02
		c-0.15-0.01-0.3-0.02-0.45-0.02c-0.63,0.28-1.26,0.53-1.87-0.04c-0.02-0.06-0.05-0.13-0.07-0.19c3.53,0,7.06,0.01,10.59,0.01
		C23.55,25.63,23.47,25.71,23.39,25.79z"/>
	<path class="st24" d="M32.49,24.79c-0.01-0.43,0.22-0.35,0.47-0.21c0.99,1.51,2.23,2.87,2.8,4.62
		C34.58,27.79,33.77,26.12,32.49,24.79z"/>
	<path class="st25" d="M26.95,13.98c-0.17,0.42-0.34,0.84-0.51,1.27c-0.54,0.48-1.08,0.71-1.61-0.02c0.05-0.58-0.2-1.19,0.2-1.73
		c0,0,0.06,0.07,0.06,0.07c0.18,0.4,0.48,0.5,0.86,0.34C26.3,13.77,26.63,13.71,26.95,13.98z"/>
	<path class="st9" d="M29.62,12.32c0.8-0.18,1.65,0.51,1.54,1.33c-0.08,0.66-0.71,0.2-1.04,0.4C30.03,13.44,29.55,12.96,29.62,12.32
		z"/>
	<path class="st26" d="M28.64,14.07c0.56,0.64,0.47,1.34,0.61,1.96c0.12,0.51-0.39,0.36-0.66,0.37c-0.31,0.02-0.69,0.03-0.53-0.49
		C28.25,15.32,28.43,14.74,28.64,14.07z"/>
	<path class="st27" d="M7.94,26.24c-0.14,0-0.29,0.01-0.43,0.01c0.09-0.72,0.41-1.21,1.21-1.22c0.32,0.13,0.7-0.1,1.04,0.18
		C9.3,25.83,8.38,25.63,7.94,26.24z"/>
	<path class="st28" d="M10.47,25.08c-0.07,0.61,0.38,0.45,0.7,0.47c0.47,0.03,0.94,0.03,1.4,0.05c-0.42,0.22-0.84,0.44-1.25,0.66
		c-0.3,0.17-0.63,0.26-0.82-0.11C10.34,25.83,9.87,25.46,10.47,25.08z"/>
	<path class="st29" d="M23.82,25.32c-1.04-0.16-2.12,0.21-3.13-0.25c0.19-0.04,0.41-0.05,0.52-0.26c0.88,0,1.77-0.01,2.65-0.01
		c0.15,0,0.3-0.01,0.46-0.01C24.15,24.96,23.99,25.14,23.82,25.32z"/>
	<path class="st30" d="M13.1,25.73c0.62,0.01,1.25,0.03,1.87,0.04c-0.22,0.42-0.65,0.54-1.05,0.71
		C13.09,26.83,12.95,26.44,13.1,25.73z"/>
	<path class="st19" d="M15.42,25.8c0.65-0.01,1.31-0.01,1.96-0.02c-0.23,0.41-0.64,0.54-1.04,0.7C15.67,26.74,15.4,26.47,15.42,25.8
		z"/>
	<path class="st31" d="M28.64,11.85c-0.64,0.84-0.73,1.91-1.21,2.82c-0.01,0.03-0.04,0.05-0.07,0.07c-0.06-0.09-0.12-0.18-0.18-0.26
		c0.33-0.92,0.63-1.85,1.01-2.75C28.44,11.15,28.59,11.41,28.64,11.85z"/>
	<path class="st22" d="M30.57,15.45c0.39,0.47,1.48-0.18,1.49,0.92C31.32,16.44,30.54,16.6,30.57,15.45z"/>
	<path class="st32" d="M21.51,14.72c-0.19,0.56-0.37,1.12-0.58,1.67c-0.08,0.22-0.3,0.31-0.49,0.23c-0.27-0.11-0.14-0.32-0.04-0.49
		c0.29-0.52,0.59-1.03,0.89-1.54C21.37,14.63,21.44,14.68,21.51,14.72z"/>
	<path class="st25" d="M30.33,14.49c0.23-0.03,0.47-0.06,0.7-0.11c0.38-0.07,0.49,0.21,0.55,0.47c0.13,0.51-0.29,0.33-0.52,0.36
		c-0.2,0.03-0.39,0.03-0.49,0.24C30.23,15.19,30.37,14.82,30.33,14.49z"/>
	<path class="st33" d="M26.21,15.88c0.04,0.6-0.31,0.75-0.82,0.75c-0.7,0-0.56-0.51-0.59-0.93C25.28,15.67,25.77,15.58,26.21,15.88z
		"/>
	<path class="st34" d="M26.95,13.98c-0.37,0.06-0.74,0.07-1.12,0.2c-0.47,0.17-0.85,0.04-0.74-0.6c0.58,0.54,1.33-0.5,1.9,0.2
		C26.98,13.85,26.97,13.92,26.95,13.98z"/>
	<path class="st35" d="M26.21,15.88c-0.49,0.09-0.97,0.1-1.41-0.18c0.01-0.16,0.02-0.31,0.03-0.47c0.53,0.36,1.07,0.1,1.61,0.02
		C26.48,15.51,26.34,15.69,26.21,15.88z"/>
	<path class="st26" d="M22.5,15.29c0.58,0.74,0.7,1.22-0.43,1.27C21.95,16.08,22.28,15.76,22.5,15.29z"/>
	<path class="st36" d="M27.42,12.06c-0.7-0.07-1.5,0.69-2.11-0.23c0-0.06,0-0.12,0.01-0.19c0.53,0.06,1.02,0.65,1.61,0.01
		C27.11,11.46,27.46,11.66,27.42,12.06z"/>
	<path class="st37" d="M22.99,12.76c0.03,0.66-0.06,1.25-0.78,1.73C22.35,13.75,22.58,13.22,22.99,12.76z"/>
	<path class="st38" d="M29.85,17.83c-0.55-0.55-1.39,0.12-1.93-0.47c0.88-0.14,1.77-0.07,2.65-0.01c-0.17,0.2-0.34,0.39-0.52,0.59
		C29.97,17.95,29.9,17.92,29.85,17.83z"/>
	<path class="st39" d="M22.6,12.35c-0.2,0.45-0.4,0.9-0.6,1.35C21.79,13.06,22.18,12.68,22.6,12.35z"/>
	<path class="st40" d="M27.67,43.53c-1.66,0.11-1.66,0.11-1.67-1.63c0-2.34-0.01-4.68-0.01-7.02c-0.31-0.61-0.03-0.89,0.56-0.93
		c0.5-0.03,1.01-0.11,1.5,0.1c0.36,0.5-0.29,1.12,0.21,1.6c-0.2,0.64-0.45,1.25-0.13,1.96c0.18,0.41,0.02,0.91-0.17,1.35
		c-0.06,1.11-0.01,2.21-0.03,3.32C27.91,42.72,28.01,43.17,27.67,43.53z"/>
	<path class="st41" d="M30.57,43.52c-1.78,0.23-1.92,0.12-1.92-1.43c0-1.68,0.01-3.36,0.01-5.04c-0.16-0.59-0.43-1.14-0.33-1.79
		c0.07-0.47-0.02-1.05,0.51-1.22c0.57-0.18,1.24-0.37,1.7,0.32c0.18,2.59,0.26,5.17-0.05,7.75C30.44,42.59,30.35,43.06,30.57,43.52z
		"/>
	<path class="st42" d="M30.38,34.21c-1.7-0.1-1.68-0.09-1.81,1.49c-0.02,0.3-0.07,0.46,0.27,0.63c0.53,0.28,0.5,0.33-0.18,0.71
		c-0.58,0.45,0.11,1.32-0.59,1.73c-0.05-0.01-0.1-0.02-0.15-0.03c-0.11-0.64,0.37-1.44-0.58-1.86c-0.23-0.1-0.12-0.45,0.17-0.53
		c0.42-0.12,0.5-0.47,0.63-0.79c-0.27-0.38-0.26-0.77,0.01-1.14c-0.8-0.21-1.69-0.91-2.16,0.46c0,0-0.11,0-0.11,0l-0.11,0
		c-0.2-0.11-0.29-0.34-0.53-0.39c-0.29-0.06-0.57-0.03-0.85,0.09c-0.08,0.09-0.14,0.18-0.18,0.3c-0.08,2.38,0.01,4.75-0.05,7.12
		c-0.01,0.48,0.24,1.17-0.6,1.31c0.01-2.82,0.05-5.63,0.02-8.45c-0.01-0.8,0.19-1.1,1.05-1.11c2.7-0.03,5.4-0.11,8.09,0.18
		c0,2.94,0,5.88,0,8.81c-0.08,0-0.16,0-0.24,0c0-2.18,0.03-4.35-0.02-6.53c-0.02-0.67,0.35-1.43-0.29-2.01
		c-0.62,0.43-0.77,1.05-0.77,1.77c0.02,1.91,0.02,3.83,0,5.74c-0.01,0.54,0.09,1.13-0.39,1.57c-0.36-0.37-0.13-0.85-0.25-1.27
		c-0.35-0.55-0.16-1.16-0.2-1.75C30.46,38.25,30.79,36.22,30.38,34.21z"/>
	<path class="st43" d="M31.02,43.28c0.02-2.7,0.08-5.41,0.05-8.11c-0.01-0.89,0.31-1.14,1.11-0.97c0.02,2.93,0.03,5.86,0.05,8.79
		c0,0.3-0.05,0.58-0.38,0.66C31.5,43.75,31.12,43.8,31.02,43.28z"/>
	<path class="st44" d="M25.51,34.18c0.3,0.16,0.24,0.45,0.26,0.71c0,2.59-0.03,5.19,0.01,7.78c0.01,0.81-0.19,1.17-1.07,1.11
		c-1.03-0.07-2.07,0-3.11-0.03c-0.21-0.01-0.83,0.14-0.35-0.46c0.77,0.31,1.54,0.28,2.31,0.01c0.43-0.33,0.27-0.8,0.27-1.22
		c0.01-2.23,0-4.46,0.02-6.7c0-0.41-0.21-0.9,0.29-1.19c0.36,0.45,0.27,0.98,0.27,1.48c0.01,1.98,0,3.96,0.01,5.94
		c0,0.42-0.13,0.88,0.26,1.22c0.72-0.15,0.45-0.74,0.46-1.13c0.04-1.98,0.01-3.96,0.02-5.95C25.17,35.22,25.11,34.64,25.51,34.18z"
		/>
	<path class="st45" d="M30.38,34.21c0.67,0.09,0.36,0.61,0.37,0.93c0.03,2.29,0.02,4.58,0.02,6.88c-0.07,0.5-0.14,1-0.2,1.51
		c-0.33-0.15-0.27-0.46-0.26-0.72C30.32,39.94,30.35,37.07,30.38,34.21z"/>
	<path class="st46" d="M27.92,38.75c0.05,0.03,0.1,0.04,0.15,0.03c0.22,1.43,0.05,2.87,0.1,4.3c0.01,0.34-0.11,0.54-0.5,0.45
		c0.01-1.22,0-2.45,0.03-3.67C27.71,39.49,27.56,39.06,27.92,38.75z"/>
	<path class="st47" d="M33,43.01c0.87,0.05,1.86,0.26,1.69-1.18c0.45,1.77,0.1,2.27-1.3,1.9C32.95,43.62,32.96,43.34,33,43.01z"/>
	<path class="st48" d="M7.53,26.23c-0.46,0.64-0.9,1.3-1.76,1.45C6.34,27.18,6.64,26.35,7.53,26.23z"/>
	<path class="st49" d="M29.6,9.21c-0.08,0.08-0.16,0.16-0.24,0.24c-0.83,0.71-2.01,0.29-2.9,0.92c-0.31,0.22-0.8-0.02-0.65-0.62
		c0.26,0.09,0.57,0.31,0.79,0.1c0.5-0.48,1.02-0.58,1.7-0.45c0.33,0.06,0.86-0.11,0.77-0.67c-0.1-0.63-0.42-0.49-0.92-0.32
		c-0.43,0.15-0.96-0.14-1.49-0.08c0.23-0.39,0.55-0.56,0.9-0.48c1.03,0.22,0.87-0.35,0.62-0.93c-0.24-0.54-0.6-1.04-0.82-1.58
		c-0.14-0.35-0.59-0.7-0.17-1.15C28.03,5.84,28.95,7.46,29.6,9.21z"/>
	<path class="st50" d="M31.81,29.05c0.3,0.64,0.44,1.31,0.2,2c-2.16,0.62-4.32,0.46-6.48-0.02c-0.05-0.7-0.13-1.41,0.42-1.99
		c0.19,0.05,0.31,0.17,0.39,0.34c-0.02,0.54,0.1,0.9,0.79,0.87c1.15-0.05,2.31-0.04,3.47-0.01c0.65,0.02,0.84-0.3,0.83-0.86
		C31.5,29.22,31.63,29.11,31.81,29.05z"/>
	<path class="st51" d="M25.53,31.03c2.16,0.01,4.32,0.01,6.48,0.02c-0.41,0.55-0.93,0.75-1.63,0.72c-1.34-0.05-2.67,0.03-4-0.23
		C26.01,31.47,25.68,31.43,25.53,31.03z"/>
	<path class="st52" d="M31.81,29.05c-0.09,0.1-0.18,0.21-0.27,0.31c-0.61-0.23-0.8-0.97-1.42-1.19c-0.29-0.14-0.6-0.06-0.9-0.08
		c-1.33-0.35-2.11,0.57-2.99,1.27c-0.09-0.1-0.18-0.21-0.28-0.31c0.16-0.86,1-1.07,1.53-1.58c1.02-0.25,2.05-0.36,3.07-0.01
		C31.07,27.91,31.49,28.44,31.81,29.05z"/>
	<path class="st53" d="M20.52,31.05c0,2.17,0,4.34,0,6.65c-0.94-0.54-1.28-1.15-1.26-2.05c0.01-0.74,0.2-1.51-0.17-2.23
		c-1.18-1.52-1.34-1.58-2.68-1.04c-0.25,0.18-0.39,0.51-0.73,0.57c-0.88-0.67-1.76-1.33-2.58-2.25c0.7-0.28,1.36-0.13,1.99-0.14
		c1.51-0.03,3.01-0.01,4.52-0.01C19.99,30.57,20.44,30.46,20.52,31.05z"/>
	<path class="st54" d="M12.33,31.77c1.72,0.01,2.13,0.47,2.16,2.2c0.02,1.59,0.12,3.17,0.22,4.76c0.05,0.73-0.21,0.95-0.94,0.97
		c-2.85,0.07-2.85,0.1-2.86-2.75c0-1.35-0.06-2.69,0.16-4.03C11.15,32.15,11.45,31.64,12.33,31.77z"/>
	<path class="st55" d="M6.57,36.27c0.08-0.99-0.17-2.15,0.25-3.28c0.37-0.99,1.06-1.38,2.05-1.2c0.92,0.17,1.3,0.8,1.32,1.72
		c0.04,1.79-0.13,3.58,0.18,5.37c0.1,0.54-0.15,0.84-0.73,0.79c-0.04,0-0.08,0-0.12,0C6.58,39.84,6.58,39.84,6.57,36.27z"/>
	<path class="st56" d="M15.68,32.96c0.16-0.24,0.32-0.48,0.49-0.71c0.2,0.07,0.33,0.2,0.36,0.42c-0.36,1.63-0.26,3.29-0.26,4.94
		c0,0.51-0.02,1.04,0.5,1.37c0.23,0.34,0.47,0.03,0.7-0.01c0.46-0.08,0.91-0.1,1.33,0.16c0.12,0.11,0.12,0.23,0.01,0.34
		c-0.91,0.45-1.87,0.15-2.81,0.21c-0.51,0.03-0.54-0.35-0.54-0.73c0-0.79-0.01-1.59-0.01-2.38c-0.38-0.71-0.53-1.42-0.01-2.14
		C15.42,33.92,15.45,33.42,15.68,32.96z"/>
	<path class="st57" d="M12.33,31.77c-0.62,0.16-0.92,0.67-1.25,1.14c-0.67-0.71-1.33-1.43-2.11-2.26
		C10.39,30.47,11.61,30.36,12.33,31.77z"/>
	<path class="st58" d="M19.34,38.28c0.37,0.4,0.75,0.8,1.12,1.2c0,0.71,0,1.42,0,2.15C18.93,40.88,19.02,39.61,19.34,38.28z"/>
	<path class="st59" d="M16.41,32.49c-0.08-0.08-0.16-0.16-0.24-0.24c1.36-0.98,2.54-0.5,2.92,1.17c0.01,1.61,0.02,3.22,0.02,4.83
		c-0.19,0.38,0.18,0.91-0.31,1.21c-0.01-0.09-0.01-0.18-0.02-0.28c-0.53-0.76-0.26-1.63-0.31-2.45c-0.04-0.84,0.01-1.68-0.02-2.52
		c-0.03-0.67-0.22-1.26-0.87-1.59c-0.17-0.04-0.34-0.05-0.51-0.07C16.85,32.56,16.63,32.53,16.41,32.49z"/>
	<path class="st60" d="M15.43,34.42c0,0.71,0.01,1.43,0.01,2.14c-1.11-0.49-0.64-1.48-0.7-2.29C14.72,34.07,14.81,34.06,15.43,34.42
		z"/>
	<path class="st61" d="M29.85,17.83c0.06,0.05,0.13,0.09,0.21,0.11c0.14,1.48,0.06,2.97,0,4.45c-0.72-0.16-0.43-0.78-0.55-1.21
		c-0.22-0.77,0.14-1.75-0.81-2.26c-0.17-0.01-0.33-0.01-0.5,0c-0.69,0.18-0.4,0.75-0.44,1.16c-0.05,0.54-0.01,1.09,0,1.63
		c0.01,0.46,0.23,0.62,0.66,0.6c0.12,0,0.24,0,0.36,0.01c0.39,0.01,0.78,0.03,1.07,0.33c-0.77,0.67-1.67,0.19-2.5,0.23
		c-0.42,0.02-0.36-0.45-0.37-0.75c-0.01-1.04,0.03-2.08-0.02-3.11c-0.04-0.89,0.3-1.24,1.19-1.16
		C28.73,17.9,29.29,17.84,29.85,17.83z"/>
	<path class="st62" d="M29.87,22.65c-0.42-0.01-0.84-0.02-1.26-0.04c-0.47-1.34-0.48-2.68,0.01-4.03c0.66-0.1,0.93,0.09,1.03,0.85
		c0.13,0.98,0,2.01,0.41,2.96C30,22.48,29.94,22.56,29.87,22.65z"/>
	<path class="st63" d="M23.41,22.67c-0.02,0.07-0.05,0.13-0.09,0.19c-0.28,0.01-0.55,0.01-0.83,0.04c-0.74,0.1-1.11-0.14-1.06-0.96
		c0.06-0.87,0.02-1.74,0.01-2.61c-0.01-0.68,0.21-1.16,0.96-1.24c0,0-0.02,0.03-0.02,0.03c0.14,0.21,0.11,0.45,0.1,0.68
		c0.03,1.07-0.12,2.15,0.1,3.21c0.07,0.07,0.14,0.15,0.22,0.21C23,22.38,23.27,22.43,23.41,22.67z"/>
	<path class="st64" d="M23.41,22.67c-0.26-0.04-0.56,0.04-0.75-0.23c0.22-0.94,0.11-1.9,0.14-2.85c0.02-0.51-0.08-1.05,0.34-1.46
		c0.2-0.05,0.47-0.06,0.46,0.2C23.56,19.77,23.88,21.24,23.41,22.67z"/>
	<path class="st65" d="M23.14,18.13c0,1.12-0.01,2.24-0.02,3.35c0,0.39,0.09,0.83-0.47,0.95c0,0-0.03-0.06-0.03-0.06
		c-0.42-0.7-0.14-1.47-0.22-2.21c-0.06-0.54,0.15-1.12-0.24-1.6c0.07-0.15,0.15-0.3,0.22-0.45C22.64,18.12,22.89,18.12,23.14,18.13z
		"/>
	<path class="st66" d="M28.15,34.43c0,0.38-0.01,0.76-0.01,1.14C27.5,35.21,27.51,34.82,28.15,34.43z"/>
	<path class="st67" d="M25.51,34.18c0.01,2.72-0.03,5.44,0.04,8.15c0.02,0.94-0.25,1.35-1.2,1.21c-0.31-1.08-0.12-2.19-0.13-3.29
		c0-2.01-0.1-4.03,0.06-6.04C24.69,34.2,25.1,34.19,25.51,34.18z"/>
	<path class="st68" d="M24.28,34.21c0.02,3.11,0.05,6.22,0.07,9.33c-0.23-0.08-0.27-0.27-0.27-0.48c0.02-2.96,0.04-5.91,0.06-8.87
		C24.19,34.2,24.24,34.21,24.28,34.21z"/>
	<path class="st69" d="M26.23,29.36c0.7-1.4,1.76-1.88,3.14-1.44c0.42,0.14,0.7,0.47,0.99,0.78c0.14,0.27,0.4,0.45,0.51,0.73
		c0.1,0.13,0.17-0.15,0.08-0.02c-0.26-0.22-0.43-0.52-0.64-0.78c-0.19-0.21-0.4-0.41-0.24-0.73c0.8,0.17,1.12,0.82,1.46,1.46
		c0.41,0.83,0.26,1.25-0.78,1.22c-1.59-0.05-3.18-0.01-4.76-0.01C25.88,30.08,26.09,29.73,26.23,29.36z"/>
	<path class="st70" d="M30.32,28.66c-0.48-0.04-0.74-0.35-0.95-0.74c0.23-0.06,0.46-0.38,0.71-0.02c0.09,0.24,0.17,0.49,0.26,0.73
		L30.32,28.66z"/>
	<path class="st71" d="M13.03,32.27c1.01,0.16,1.19,0.92,1.21,1.74c0.02,1.34-0.05,2.69,0.03,4.03c0.06,0.97-0.31,1.3-1.21,1.16
		c-0.26-0.28-0.33-0.62-0.33-0.98c-0.02-1.69-0.02-3.39,0-5.08C12.73,32.82,12.79,32.52,13.03,32.27z"/>
	<path class="st26" d="M12.59,39.43c-1.05-0.09-1.31-0.69-1.24-1.68c0.09-1.18-0.03-2.38,0.04-3.57c0.04-0.82,0.1-1.71,1.18-1.94
		c0.29,0.34,0.26,0.75,0.24,1.14C12.7,35.4,13.06,37.43,12.59,39.43z"/>
	<path class="st72" d="M12.59,39.43c-0.01-2.4-0.01-4.79-0.02-7.19c0.08-0.02,0.15-0.01,0.23,0.02c0.27,2.32,0.12,4.65,0.08,6.98
		C12.77,39.31,12.68,39.37,12.59,39.43z"/>
	<path class="st7" d="M12.87,39.24c-0.03-2.33-0.05-4.65-0.08-6.98c0.08-0.01,0.16-0.01,0.23,0.01c0.01,2.31,0.02,4.63,0.02,6.94
		C12.99,39.23,12.93,39.24,12.87,39.24z"/>
	<path class="st73" d="M8.77,39.25c-1.66,0.1-1.72,0.05-1.72-1.45c0-1.19-0.06-2.39,0.02-3.58c0.06-0.89,0.09-1.91,1.39-1.99
		c0.35,0.34,0.36,0.77,0.36,1.21c-0.01,1.86,0.03,3.72-0.02,5.58C8.79,39.1,8.78,39.18,8.77,39.25z"/>
	<path class="st74" d="M8.72,32.25c0.99,0.21,1.19,0.95,1.2,1.8c0.02,1.32-0.05,2.63,0.02,3.95c0.05,0.91-0.21,1.36-1.17,1.26
		c0,0-0.06-0.06-0.06-0.06C8.55,36.88,8.54,34.56,8.72,32.25z"/>
	<path class="st75" d="M8.72,32.25c0,2.31,0,4.62-0.01,6.94c-0.44-0.28-0.24-0.72-0.25-1.09c-0.02-1.95-0.01-3.91-0.01-5.87
		C8.54,32.24,8.63,32.24,8.72,32.25z"/>
	<path class="st76" d="M17.36,32.25c1.19,0.02,1.42,0.85,1.44,1.79c0.02,1.71-0.01,3.43-0.01,5.14c-0.47,0.01-0.94,0.02-1.4,0.03
		c-0.21-0.21-0.31-0.46-0.32-0.75c-0.05-1.82-0.05-3.64,0-5.46C17.06,32.72,17.17,32.47,17.36,32.25z"/>
	<path class="st77" d="M16.41,32.49c0.13-0.2,0.33-0.22,0.54-0.19c0.47,2.29,0.49,4.58,0,6.87c-0.4-0.02-1.03,0.2-0.99-0.47
		C16.06,36.63,15.51,34.5,16.41,32.49z"/>
	<path class="st78" d="M16.95,39.17c0.22-2.29,0.19-4.58,0-6.87c0.14-0.02,0.27-0.03,0.41-0.05c0.01,2.32,0.01,4.64,0.02,6.96
		C17.24,39.2,17.09,39.19,16.95,39.17z"/>
	<path class="st74" d="M28.42,22.63c-0.71,0.11-1.03-0.14-0.99-0.9c0.05-0.79,0.03-1.59,0.01-2.39c-0.02-0.55,0.16-0.85,0.76-0.74
		C28.64,19.92,28.29,21.29,28.42,22.63z"/>
	<path class="st79" d="M28.42,22.63c-0.51-1.32-0.15-2.68-0.22-4.02c0.14,0,0.28-0.01,0.42-0.02c0,1.34-0.01,2.68-0.01,4.03
		c0,0-0.1,0.01-0.1,0.01L28.42,22.63z"/>
	<path class="st80" d="M22.17,18.56c0.61,0.05,0.47,0.52,0.47,0.88c0.01,0.98-0.01,1.95-0.01,2.93c-0.65-0.02-0.45-0.53-0.46-0.87
		C22.15,20.52,22.16,19.54,22.17,18.56z"/>
	<path class="st70" d="M30.34,28.64c0.57,0.35,0.9,0.82,0.71,1.57c-0.25-0.52-0.49-1.04-0.74-1.56
		C30.32,28.66,30.34,28.64,30.34,28.64z"/>
</g>
</svg>
