<?xml version="1.0" encoding="utf-8"?>
<!-- Generator: Adobe Illustrator 23.0.2, SVG Export Plug-In . SVG Version: 6.00 Build 0)  -->
<svg version="1.1" id="Camada_1" xmlns="http://www.w3.org/2000/svg" xmlns:xlink="http://www.w3.org/1999/xlink" x="0px" y="0px"
	 viewBox="0 0 43.61 43.69" style="enable-background:new 0 0 43.61 43.69;" xml:space="preserve">
<style type="text/css">
	.st0{fill:#FDFDFD;}
	.st1{fill:#010101;}
	.st2{fill:#62A1D1;}
	.st3{fill:#76B9E7;}
	.st4{fill:#07642F;}
	.st5{fill:#79B6C9;}
	.st6{fill:#10497B;}
	.st7{fill:#76B8E6;}
	.st8{fill:#185079;}
	.st9{fill:#764B14;}
	.st10{fill:#EEE52D;}
	.st11{fill:#86B15A;}
	.st12{fill:#D89140;}
	.st13{fill:#CBE3EC;}
	.st14{fill:#D7E4E4;}
	.st15{fill:#235A81;}
	.st16{fill:#D4EDF9;}
	.st17{fill:#C9E1EB;}
	.st18{fill:#C4DFEB;}
	.st19{fill:#A3611D;}
	.st20{fill:#BFDDEB;}
	.st21{fill:#79B7C9;}
	.st22{fill:#20753B;}
	.st23{fill:#7EAD44;}
	.st24{fill:#7CAC43;}
	.st25{fill:#9BBC5F;}
	.st26{fill:#7EAD43;}
	.st27{fill:#80AF45;}
	.st28{fill:#A1BF62;}
	.st29{fill:#728828;}
	.st30{fill:#A3C063;}
	.st31{fill:#99BB5B;}
	.st32{fill:#247837;}
	.st33{fill:#9EBD5F;}
	.st34{fill:#A28730;}
	.st35{fill:#798C2D;}
	.st36{fill:#A5C165;}
	.st37{fill:#738829;}
	.st38{fill:#62A2D1;}
	.st39{fill:#7AB7C8;}
	.st40{fill:#AC6820;}
	.st41{fill:#E1AC69;}
	.st42{fill:#AB6117;}
	.st43{fill:#9A7E21;}
	.st44{fill:#9D8124;}
	.st45{fill:#AD7625;}
	.st46{fill:#947C28;}
	.st47{fill:#D28E40;}
	.st48{fill:#CDB45C;}
	.st49{fill:#CFB75E;}
	.st50{fill:#9C8122;}
	.st51{fill:#9C8023;}
	.st52{fill:#CEB55E;}
	.st53{fill:#9F8326;}
	.st54{fill:#CEB55D;}
	.st55{fill:#D3BB63;}
	.st56{fill:#C5AC58;}
	.st57{fill:#C9B15B;}
	.st58{fill:#FDF5A0;}
	.st59{fill:#B36F24;}
	.st60{fill:#B8752A;}
</style>
<g>
	<path class="st0" d="M21.84,43.69c-6.12,0-12.23,0-18.35,0c-2.59,0-3.48-0.85-3.48-3.45C0,27.97,0,15.7,0.01,3.42
		c0-2.49,0.94-3.42,3.41-3.42C15.69,0,27.97,0,40.24,0c2.39,0,3.36,0.94,3.36,3.34c0.01,12.31,0.01,24.63,0,36.94
		c0,2.5-0.93,3.4-3.41,3.4C34.08,43.69,27.96,43.69,21.84,43.69z"/>
	<path class="st1" d="M21.81,42.49c-6.12,0-12.23,0-18.35,0c-1.89,0-2.25-0.33-2.25-2.22C1.2,27.96,1.2,15.65,1.21,3.34
		c0-1.72,0.42-2.13,2.12-2.13c12.31-0.01,24.62,0,36.93,0c1.7,0,2.14,0.41,2.14,2.12c0.01,12.35,0.01,24.7,0,37.05
		c0,1.74-0.41,2.11-2.12,2.11C34.12,42.49,27.97,42.49,21.81,42.49z"/>
	<path class="st0" d="M21.92,2.41c6.04,0,12.07,0.02,18.11-0.02c0.95-0.01,1.2,0.23,1.2,1.19c-0.03,12.15-0.03,24.3,0,36.46
		c0,1.04-0.33,1.24-1.29,1.23c-12.11-0.03-24.22-0.03-36.34,0c-0.95,0-1.22-0.24-1.22-1.2c0.03-12.15,0.03-24.3,0-36.46
		c0-0.92,0.19-1.23,1.18-1.22C9.68,2.43,15.8,2.41,21.92,2.41z"/>
	<path class="st2" d="M22.76,3.57c4.83,0.34,9.73,0.01,14.47,1.38c0.96,0.28,1.56,0.77,1.67,1.76c0.11,0.91,0.26,1.82,0.26,2.73
		c0.02,3.47,0.66,6.92,0.34,10.39c-0.15,0.38-0.48,0.51-0.84,0.58c-5.63,1.16-11.28,2.19-16.98,2.91c-0.16,0.02-0.32,0-0.48-0.02
		c-0.55-0.28-0.52-0.86-0.63-1.33c-0.69-3.19-1.88-6.13-4.24-8.48c-0.28-0.28-0.53-0.6-0.51-1.03c0.58-1.13,1.68-1.45,2.83-0.98
		c1.01,0.42,2.07,0.91,3.19,0.26c0.27-0.16,0.54-0.07,0.79,0.06c0.18,0.09,0.34,0.22,0.54,0.24c0.76,0.08,1.69,0.2,2.06-0.53
		c0.28-0.55-0.56-0.96-0.98-1.33c-0.86-0.77-1.86-1.37-2.91-1.86c-0.25-0.12-0.53-0.19-0.75-0.37c-0.56-0.47-0.45-1.13-0.27-1.66
		c0.19-0.54,0.75-0.32,1.15-0.18c1.17,0.41,2.28,0.53,3.41-0.15c0.46-0.28,0.99,0.27,1.5,0.04c0.09-0.03,0.18-0.06,0.27-0.1
		c-0.66-1.17-1.91-1.34-2.98-1.79C23.36,3.97,22.85,4.14,22.76,3.57z"/>
	<path class="st3" d="M11.19,40.17c-1.63,0.13-3.24,0.16-4.86-0.18c-1.15-0.24-1.91-0.88-2-2.05c-0.12-1.69-0.09-3.39-0.13-5.09
		c0.05-0.04,0.1-0.08,0.15-0.12c0.71-0.01,1.4-0.09,2.09-0.33c0.93-0.33,1.88-0.13,2.78,0.26c0.16,0.12,0.23,0.28,0.23,0.47
		c-0.07,0.59-0.48,0.98-0.84,1.38c-0.34,0.38-0.35,0.86-0.43,1.32c0.03,1.02,0.81,1.41,1.55,1.75c2.68,1.21,5.36,1.36,8.26,0.46
		c2.48-0.77,5.1-1.34,7.78-0.83c1.37,0.26,2.7-0.15,4.03-0.37c0.14-0.02,0.37,0.03,0.4-0.16c0.18-1.26,1.22-1.17,2.07-1.3
		c0.71-0.11,1.42-0.26,2.14-0.27c0.6-0.01,0.87-0.31,0.82-0.91c-0.04-0.11-0.08-0.23-0.11-0.34c-0.05-0.11-0.11-0.21-0.15-0.32
		c-0.22-0.52-0.92-0.94-0.55-1.57c0.41-0.7,1.2-0.38,1.84-0.43c0.51-0.04,1,0.2,1.52,0.14c0.69,0.25,1.35-0.25,2.04-0.09
		c0.53,1.74-0.08,3.46-0.14,5.19c-0.07,2.08-0.2,2.1-2.33,2.34c-5.91,0.66-11.84,1.08-17.79,0.86c-1.57,0.03-3.14,0.08-4.68-0.41
		c-0.58-0.18-1.27-0.15-1.88,0.12c-1.09,0.48-2.06,0.17-3.06-0.32c-1.17-0.58-2.39-1.03-3.7-0.47c0.78,0.15,1.55,0.08,2.32-0.02
		C9.53,39.14,10.47,39.43,11.19,40.17z"/>
	<path class="st2" d="M4,24.6c-0.34-1.45-0.06-2.87,0.25-4.28c-0.11-1.03,0.73-1.39,1.33-1.93c0.47-0.43,1.06-0.67,0.67-1.61
		c-0.34-0.83,0.78-0.76,1.21-1.14c0.1-0.06,0.2-0.11,0.3-0.16c0.43-0.21,0.85-0.43,1.03-0.94c0.07-0.22,0.17-0.49,0.47-0.45
		c0.32,0.04,0.45,0.3,0.52,0.58c0.08,0.31,0.07,0.63,0.08,0.95c0.01,1.48,0.75,2.67,1.57,3.81c0.38,0.54,0.73,0.44,0.85-0.2
		c0.2-1.13,0.72-2.17,0.62-3.39c-0.06-0.75,0.77-1.23,1.12-1.88c0.16-0.3,0.5-0.12,0.74,0.05c2.18,2.45,3.72,5.2,4.07,8.53
		c0.04,0.4,0.13,0.79-0.21,1.11c-0.73,0.54-1.61,0.36-2.43,0.5c-3.11,0.5-6.23,0.95-9.34,1.45c-0.71,0.11-1.43,0.15-2.15,0.1
		C4.05,25.58,3.76,25.26,4,24.6z"/>
	<path class="st2" d="M4.52,16.07c0.04-3.43-0.29-6.85-0.26-10.29c0.01-1.33,0.6-1.9,1.69-1.94c4.49-0.14,8.98-1,13.49-0.31
		c-0.03,0.43-0.38,0.48-0.68,0.52c-2.33,0.32-4.18,1.55-5.86,3.11c-0.17,0.16-0.37,0.29-0.61,0.35c-2.77-0.17-4.91,0.98-6.57,3.13
		c-0.13,0.17-0.4,0.38-0.23,0.61c0.17,0.23,0.43,0.04,0.65-0.06c0.49-0.2,0.8-1.17,1.45-0.55c0.63,0.61-0.06,1.15-0.41,1.63
		c-0.68,0.92-1.27,1.9-1.82,2.9C5.16,15.53,5.07,16.02,4.52,16.07z"/>
	<path class="st4" d="M4.52,16.07c0.93-1.51,1.66-3.15,2.82-4.51c0.2-0.24,0.48-0.51,0.1-0.8c-0.42-0.32-0.54,0.12-0.7,0.35
		c-0.15,0.21-0.3,0.36-0.56,0.37c-0.07-0.09-0.11-0.2-0.1-0.31c0.26-0.75,0.68-1.25,1.57-1.06c0.3,0.06,0.56-0.02,0.75-0.24
		c0.67-0.76,1.63-1.09,2.43-1.66c0.32-0.19,0.62-0.41,0.9-0.65c0.13-0.1,0.3-0.11,0.43-0.19c2.06-1.95,4.4-3.39,7.25-3.85
		c1.11,0.01,2.21,0.03,3.32,0.04c1.76,0.42,3.45,0.99,4.73,2.42c-0.24,0.29-0.53,0.15-0.77,0.21c-0.43-0.76-1.27-0.9-1.95-1.16
		c-1.51-0.57-3.1-0.96-4.75-0.53c-2.9,0.09-5.1,1.69-7.25,3.41c-0.05,0.04-0.04,0.15-0.02,0.23c1.2-0.01,2.39-0.19,3.59,0.18
		c0.49,0.15,1.12,0.01,1.09-0.86c-0.03-0.81,0.61-0.71,1.12-0.62c0.65,0.11,1.26,0.35,1.17-0.76c-0.05-0.6,0.5-0.62,0.97-0.54
		c0.63,0.1,1.23,0.36,1.85,0.48c0.62,0.11,1.31,0.34,1.36-0.71c0.01-0.21,0.27-0.26,0.48-0.29c0.84,0.3,1.7,0.54,2.36,1.18
		c-2.06,0.12-4.11,1.29-6.17-0.21c0.02,1.64,0.03,1.62,1.3,2.27c1.39,0.7,2.69,1.55,3.72,2.76c0.41,0.48,0.32,0.76-0.21,0.98
		c-0.95,0.4-1.91,0.8-2.87,0.01c-0.16-0.13-0.28-0.21-0.5-0.03c-1.15,0.92-2.34,0.25-3.38-0.15c-1.13-0.43-1.91-0.22-2.66,0.58
		c-0.21,0-0.28-0.15-0.31-0.32c0-0.43,0.15-0.83,0.21-1.31c-0.21,0.42-0.34,0.83-0.78,1c-0.26,0.03-0.43-0.09-0.57-0.29
		c0.18-1.58,0.08-1.76-1.13-1.98c0.03,0.67,0.77,1.12,0.57,1.84c-0.1,0.17-0.25,0.23-0.44,0.21c-0.68-0.41-0.85-1.24-1.65-1.89
		c-0.13,1.3-0.09,2.44,0.01,3.6c0.11,1.25,0.44,2.5,0.05,3.76c-0.46,0.01-0.64-0.3-0.71-0.66c-0.36-2.03-0.53-4.08-0.39-5.58
		c-0.88,3.62-0.76,5.21,0.75,8.04c0.23,0.3,0.39,0.18,0.47-0.11c0.26-0.92,0.63-1.83,0.35-2.81c-0.12-0.4-0.19-0.8,0.27-1.04
		c0.87-0.46,0.61-1.05,0.25-1.71c-0.54-0.99-0.43-1.17,0.66-1.4c0.17,0.06,0.3,0.16,0.34,0.34c0.35,0.18-0.73,0.11-0.06,0.4
		c0.43,0.19,0.75,0.56,0.9,1.03c0.01,0.25,0.04,0.5-0.28,0.59c-0.43-0.35-0.42,0.07-0.49,0.3c-0.13,0.43-0.04,0.99-0.74,1.02
		c-0.14,0.01-0.28,0.13-0.19,0.34c0.6,1.49-0.48,2.72-0.68,4.08c-0.13,0.93-0.73,0.35-0.98,0.04c-1.05-1.32-1.86-2.76-1.94-4.52
		c-0.02-0.37,0.18-0.79-0.29-1.19c-0.06,1.03-0.71,1.41-1.54,1.6c-0.08-0.09-0.1-0.19-0.07-0.3c0.81-0.49,0.6-1.72,1.54-2.11
		c0.12-0.67,0.44-1.32-0.04-2.01c-0.33-0.46,0.25-0.75,0.35-1.03c-2,2.18-3.66,4.69-4.65,7.6c-0.07,0.27-0.16,0.53-0.26,0.8
		c1.24-0.89,1.24-0.89,1.04-1.54c-0.03-1.24,0.85-1.83,2.11-1.41c-0.25,0.55-0.96,0.3-1.36,0.84c0.07,0.31,0.72,0.34,0.64,0.76
		c-0.08,0.46-0.53,0.67-0.84,0.96c-0.65,0.62-1.46,1.1-1.82,1.99c-0.54,0.21-0.97,0.27-0.74-0.56C3.86,18.53,4.19,17.3,4.52,16.07z"
		/>
	<path class="st5" d="M21.15,23.2c1.9-0.32,3.8-0.64,5.7-0.96c4.24-0.7,8.49-1.37,12.67-2.4c-0.01,1.14,0.21,2.28-0.16,3.4
		c-0.8,0.41-1.67,0.54-2.54,0.68c-4.18,0.68-8.37,1.37-12.59,1.72c-0.98,0.08-1.99,0.26-2.95-0.22
		C20.95,24.71,20.71,23.97,21.15,23.2z"/>
	<path class="st2" d="M21.43,25.36c4.65,0,9.2-0.86,13.78-1.53c1.38-0.2,2.72-0.71,4.15-0.59c-0.03,0.55-0.06,1.1-0.09,1.65
		c-0.22,0.76,0.06,1.57-0.17,2.36c-0.52-0.01-0.5-0.42-0.56-0.74c-0.37-2.01-0.62-2.12-2.23-0.95c-3.18,0.69-6.31,1.65-9.57,1.95
		c-1.73,0.16-3.48,0.36-5.19-0.14C21.13,26.73,21.04,26.06,21.43,25.36z"/>
	<path class="st6" d="M39.83,31.58c-0.63,0.32-1.24,0.73-1.98,0.32c-0.93-0.4-1.91-0.29-2.89-0.3c-0.81-0.01-0.89,0.46-0.5,0.97
		c0.35,0.47,0.7,0.94,1,1.44L35.45,34c0.12,0.96-0.68,1.23-1.23,1.13c-1.88-0.34-3.41,0.53-5.04,1.16c-1.4,0.54-2.73,0.62-4.26-0.03
		c-1.63-0.7-3.37,0.07-4.92,0.87c-1.39,0.71-2.8,1.43-4.37,1.56c-2.34,0.19-4.5-0.47-6.49-1.7c-0.43-0.27-0.83-0.65-0.86-1.23
		c0.07-0.12,0.17-0.19,0.3-0.2c0.47,0.01,0.81,0.31,1.19,0.53c2.11,1.25,4.4,1.65,6.81,1.39c0.9-0.1,1.66-0.58,2.4-1.05
		c1.57-1.01,3.34-1.29,5.13-1.51c0.53-0.06,1.03,0.07,1.51,0.32c1,0.51,2.02,0.46,3.02,0.08c1.73-0.65,3.33-1.77,5.46-1.24
		c-0.35-1.01-0.95-1.67-1.01-2.53c0.02-0.38,0.18-0.66,0.52-0.83c1.09-0.3,2.21-0.16,3.31-0.12c0.89,0.42,1.86,0.58,2.81,0.79
		C39.8,31.44,39.82,31.51,39.83,31.58z"/>
	<path class="st3" d="M39.75,31.37c-0.96,0.3-1.84,0.2-2.59-0.51c-0.62-1.79-1.09-3.59-0.73-5.51c0.26-0.63,0.61-1.12,1.42-0.92
		c0.72,0.17,0.83,0.42,1.09,2.63c0.35-0.71-0.13-1.51,0.33-2.16C39.17,27.08,39.49,29.22,39.75,31.37z"/>
	<path class="st7" d="M4,24.6c0.01,0.49,0.16,0.84,0.75,0.77c0.5,0.26,0.61,0.75,0.73,1.23c0.04,0.19,0.06,0.38,0.07,0.57
		c0.12,1.75,0.63,3.43,0.78,5.17C5.8,33.12,5,32.68,4.32,32.77c-0.04,0.02-0.07,0.05-0.1,0.07C4.75,30.08,3.17,27.37,4,24.6z"/>
	<path class="st8" d="M11.19,40.17c-0.87-0.35-1.66-0.91-2.6-1.1c-0.97-0.03-1.94-0.02-2.91-0.05c-0.79-0.08-0.37-0.35-0.04-0.45
		c1.32-0.39,2.64-0.28,3.85,0.33c1.27,0.64,2.5,1.05,3.87,0.39c0.1-0.05,0.24-0.06,0.35-0.05c1.95,0.24,3.9,0.48,5.85,0.73
		c-1.04,0.4-2.12,0.39-3.19,0.16c-1.34-0.28-2.66-0.48-4.01-0.02C12.02,40.24,11.59,40.16,11.19,40.17z"/>
	<path class="st9" d="M21.43,25.36c0.08,0.64,0.16,1.27,0.23,1.91c0.1,0.18,0.14,0.37,0.16,0.58c0.02,0.25,0.07,0.5,0.09,0.75
		c0,0.11-0.01,0.21-0.02,0.31c-0.1,0.46,0.15,0.99-0.27,1.38c-0.22,0.2-0.47,0.31-0.77,0.19c-0.09-0.07-0.16-0.15-0.21-0.24
		c-0.14-0.5-0.5-0.4-0.85-0.3c-0.49,0-0.9,0.56-1.44,0.21c-0.27-0.48-0.02-0.96-0.01-1.44c0-0.19,0.01-0.38,0.01-0.57
		c-0.01-0.39,0-0.79-0.01-1.18c-0.03-0.48,0-0.96-0.01-1.44c0-0.71-0.13-1.43,0.26-2.09c-0.17-3.14-1.37-5.87-3.29-8.31
		c-0.27-0.34-0.54-0.69-0.81-1.04c0.02-0.23,0.04-0.46,0.07-0.69c0.4-0.78-0.14-1.03-0.72-1.26c-0.07-0.1-0.13-0.19-0.2-0.29
		c-0.15-0.12-0.14-0.24-0.02-0.37c0.11-0.1,0.22-0.2,0.33-0.29c0.33-0.22,0.52,0,0.72,0.21c0.12,0.08,0.25,0.16,0.37,0.24
		c0.32,0.05,0.55,0.24,0.72,0.5c0.07,0.08,0.14,0.17,0.21,0.25c0.27,0.89,1.1,1.34,1.63,2.02c2.04,2.59,2.97,5.61,3.55,8.79
		C21.24,23.92,21.34,24.64,21.43,25.36z"/>
	<path class="st10" d="M27.75,13.53c0.05-1.28,0.99-2.37,2.04-2.35c1.36,0.03,2.26,0.93,2.24,2.25c-0.02,1.17-0.99,2.07-2.19,2.03
		C28.56,15.41,27.71,14.62,27.75,13.53z"/>
	<path class="st11" d="M26.74,6.19c-0.87-0.11-1.56-0.61-2.3-1c-1.18-0.38-2.4-0.47-3.62-0.48c-0.25,0.02-0.49,0.02-0.73-0.07
		c-0.17-0.1-0.31-0.21-0.22-0.44c2.31-0.44,4.45,0,6.43,1.26c0.26,0.16,0.6,0.3,0.43,0.72C26.72,6.2,26.74,6.19,26.74,6.19z"/>
	<path class="st12" d="M33.2,31.52c0.46,0.69,0.63,1.56,1.33,2.09c0.16,0.12,0.31,0.38,0.17,0.51c-0.19,0.17-0.55,0.37-0.74,0.3
		c-1.72-0.65-3.09,0.3-4.53,0.93c-1.41,0.62-2.7,0.96-4.28,0.05c-1.16-0.67-2.64,0.05-3.96,0.35c-0.5,0.11-1,0.33-1.42,0.61
		c-3.89,2.55-7.56,1.72-11.14-0.68c-0.65-0.36-0.51-0.82-0.1-1.24c0.36-0.37,0.69-0.75,0.77-1.28c0-0.08-0.01-0.17-0.01-0.25
		c0.03-0.14,0.11-0.22,0.24-0.26c0.12-0.03,0.25-0.03,0.37-0.01c0.52,0.12,1.08,0.27,1.03,0.95c-0.05,0.62,0.29,0.74,0.77,0.81
		c3.43,0.48,6.84,1.23,10.27-0.12c1.23-0.49,2.59-0.48,3.91-0.24c0.58,0.11,1.11,0.1,1.58-0.3c0.87-0.76,2-1.03,3.03-1.36
		c0.85-0.26,1.52-0.61,2.1-1.24C33.02,30.93,33.17,31.14,33.2,31.52z"/>
	<path class="st13" d="M8.17,35.68c1.21,1.57,3.02,1.96,4.79,2.47c2.36,0.68,4.5,0.21,6.49-1.11c1.42-0.94,3.02-1.2,4.66-1.34
		c0.39-0.03,0.8-0.1,1.14,0.21c0.97,0.91,2.09,0.61,3.15,0.3c0.91-0.26,1.78-0.71,2.65-1.1c0.78-0.35,1.53-0.58,2.42-0.29
		c0.83,0.27,1.56,0,1.98-0.84c0.4,0.95-0.06,1.32-0.95,1.46c-1.39,0.21-2.89-0.02-4.14,0.91c0.14,0.41,0.41-0.09,0.64,0.31
		c0.04,0.14-0.26,0.19-0.45,0.24c-1.57,0.49-3.19,0.91-4.82,0.61c-2.69-0.49-5.29,0.04-7.75,0.85c-3.12,1.03-5.97,0.59-8.81-0.68
		c-0.55-0.24-0.97-0.83-1.37-1.31c-0.3-0.36-0.21-0.68,0.35-0.69L8.17,35.68z"/>
	<path class="st14" d="M35.46,34.02c-0.65-0.79-1.67-1.39-1.54-2.59c0.04-0.34,3.41,0.06,3.93,0.47c-0.89,0.2-1.76-0.14-2.65-0.07
		c-0.75,0.05-0.84,0.31-0.41,0.86C35.11,33.08,35.48,33.45,35.46,34.02z"/>
	<path class="st15" d="M9.51,32.82c-0.07,0.04-0.14,0.07-0.22,0.09c-1.14-0.34-2.25-0.61-3.41,0c-0.48,0.25-1.07,0.23-1.56-0.14
		c0.54-0.5,1.34,0.08,1.87-0.45c0.34-0.48,0.85-0.6,1.36-0.5c0.73,0.14,1.47,0.17,2.18,0.41C10,32.55,9.7,32.67,9.51,32.82z"/>
	<path class="st16" d="M5.68,39.02c0.98-0.3,1.95-0.2,2.91,0.05C7.62,39.4,6.64,39.43,5.68,39.02z"/>
	<path class="st17" d="M36.22,36.17c0.14-0.42,0.44-0.48,0.76-0.45c0.28,0.02,0.59,0.11,0.56,0.45c-0.04,0.47-0.42,0.48-0.79,0.46
		C36.46,36.6,36.29,36.42,36.22,36.17z"/>
	<path class="st18" d="M21.5,38.1c0.27,0.04,0.68-0.08,0.69,0.3c0.02,0.57-0.49,0.38-0.8,0.41c-0.25,0.02-0.67,0.13-0.68-0.25
		C20.69,38.03,21.18,38.15,21.5,38.1z"/>
	<path class="st19" d="M8.17,35.68c0,0-0.02,0.02-0.02,0.02c-0.38-0.41-0.26-0.76,0.07-1.15c0.38-0.45,0.72-0.93,1.08-1.4
		c0.11,0.56-0.15,0.98-0.56,1.31c-0.45,0.37-0.46,0.77-0.11,1.21C8.48,35.68,8.33,35.68,8.17,35.68z"/>
	<path class="st20" d="M34.24,36.87c-0.2-0.02-0.43-0.06-0.34-0.33c0.04-0.12,0.21-0.24,0.34-0.27c0.22-0.05,0.41,0.11,0.42,0.31
		C34.68,36.82,34.45,36.87,34.24,36.87z"/>
	<path class="st21" d="M18.59,23.44c0.15,0.72,0.13,1.44,0.07,2.16c-0.33,0.4-0.76,0.57-1.26,0.58c-2.66,0.04-5.31,0.42-7.97,0.46
		c-0.96,0.01-1.88,0.34-2.85,0.25c-0.47-0.04-0.96,0.02-1.35-0.34c-0.16-0.4-0.32-0.8-0.48-1.19c2.75-0.02,5.4-0.76,8.11-1.08
		C14.78,24.06,16.68,23.73,18.59,23.44z"/>
	<path class="st22" d="M6.2,11.23c0,0.08-0.01,0.17-0.01,0.25c-0.41,0.25-0.92,0.32-1.18-0.05c-0.28-0.39,0.28-0.66,0.48-0.96
		c1.21-1.83,3.02-2.73,5.08-3.23c0.55-0.13,1.1-0.17,1.61,0.13c-0.07,0.07-0.15,0.15-0.22,0.22C11.34,8,10.59,7.96,9.92,8.18
		C8.81,8.52,7.74,8.94,6.92,9.82c-0.45,0.36-0.76,0.86-1.21,1.21C5.88,11.04,6.09,11.03,6.2,11.23z"/>
	<path class="st23" d="M20.83,4.43c1.23,0.1,2.56-0.22,3.6,0.76c-1.11,0.19,0.11,0.7-0.17,1.04c-1.19,0.46-2.3-0.09-3.44-0.37
		c-0.66-0.16-1.13-0.38-0.79,0.67c0.25,0.79-0.02,1.18-0.91,0.71c-0.3-0.16-0.69-0.15-1.05-0.2c-0.27-0.04-0.51,0-0.41,0.36
		c0.09,0.36,0.48,0.81-0.04,1.04c-0.49,0.21-1.11,0.37-1.62,0.28c-1.89-0.3-1.89-0.34-3.61,0.04c-0.19-0.35,0.31-0.41,0.3-0.69
		c0.03-0.05,0.06-0.1,0.09-0.15c2.38-1.44,4.95-2.44,7.61-3.23C20.55,4.65,20.79,4.69,20.83,4.43z"/>
	<path class="st24" d="M22.74,11.68c-0.28-0.08-0.44-0.56-0.82-0.27c-1.3,1-2.44,0.45-3.46-0.44c-0.44-0.38-0.58-0.12-0.86,0.11
		c-0.61,0.49-0.85,0.35-1.11-0.45c-0.37-1.14-0.21-1.7,1.06-1.74c0.18-0.01,0.47-0.13,0.51-0.25c0.39-1.34,1.29-0.8,2.09-0.6
		c0.52,0.49,1.27,0.6,1.81,1.05c0.31,0.25,0.77,0.44,0.5,0.99c-0.28,0.09-0.54,0.04-0.61,0.01c0.46,0.16,1.18,0.12,1.81,0.42
		c0.37,0.17,0.89,0.21,0.86,0.81C24.03,11.95,23.34,11.57,22.74,11.68z"/>
	<path class="st25" d="M13.62,11.49c0.01,0.12,0.01,0.25,0.02,0.37c-0.84,0.01-1.09,0.27-0.54,1.05c0.86,1.21,0.82,1.29-0.45,2.14
		c-0.37,0.25-0.12,0.46-0.02,0.69c0.61,1.39-0.33,2.58-0.53,3.86c-0.04,0.23-0.16,0.21-0.65-0.47c-0.08-0.8-0.1-1.59,0.46-2.26
		c-0.29-2.64-0.57-5.29-0.22-8.1C12.6,9.63,13.08,10.58,13.62,11.49z"/>
	<path class="st26" d="M7.67,15.54c-0.03,0.07-0.04,0.15-0.04,0.23c0,0,0.01-0.01,0.01-0.01c-0.9,0.09-1.91,0.04-1.88,1.39
		c-0.23,0.57-0.5,1.06-1.26,0.77c1.03-3.32,2.9-6.09,5.64-8.28c-0.35,0.53-0.71,1.06-1.06,1.59C9.4,11.45,9.49,11,9.8,11.14
		c-0.15,0.81-0.31,1.65-0.46,2.49c-0.48,0.2-1.5-0.15-0.98,1.05C8.56,15.17,7.6,15.01,7.67,15.54z"/>
	<path class="st24" d="M11.91,16.89c-0.03,0.78-0.16,1.54-0.46,2.26c-2.24-3.21-1.55-6.52-0.37-9.86c0,2.2,0.01,4.4,0.38,6.58
		C11.53,16.25,11.43,16.69,11.91,16.89z"/>
	<path class="st23" d="M19.86,4.21c0.1,0.1,0.2,0.2,0.31,0.3c-0.5,0.7-1.35,0.7-2.04,1c-1.84,0.81-3.74,1.51-5.46,2.58
		c0,0,0.01-0.01,0.01-0.01c-0.18-0.05-0.48-0.1-0.19-0.33C14.68,6.01,16.89,4.31,19.86,4.21z"/>
	<path class="st27" d="M6.2,11.23c-0.27-0.08-0.9,0.13-0.45-0.52c0.24-0.35,0.58-0.64,0.87-0.96c0.97-0.64,2.05-1.04,3.12-1.49
		c0.44-0.18,0.91-0.36,1.31,0.1c-0.91,0.74-2.09,1.11-2.82,2.1c-0.09,0.12-0.26,0.23-0.41,0.1C6.85,9.75,6.68,10.86,6.2,11.23z"/>
	<path class="st28" d="M11.05,8.36c-1.07-0.21-1.83,0.6-2.76,0.85C7.73,9.37,7.22,9.69,6.62,9.75c1.43-1.6,3.29-2.11,5.35-2.15
		C11.77,7.98,11.45,8.22,11.05,8.36z"/>
	<path class="st29" d="M14.66,11.41c-0.24-0.07-0.48-0.14-0.72-0.21c-0.27-0.44-0.53-0.88-0.8-1.32c-0.12-0.19-0.43-0.31-0.29-0.58
		c0.15-0.3,0.48-0.24,0.74-0.23C14.75,9.14,15.2,10.13,14.66,11.41z"/>
	<path class="st30" d="M22.53,9.96C21.88,9.17,21,8.74,20.09,8.35c-0.56-0.24-0.08-0.23,0.06-0.31c1.72,0.53,3.27,1.36,4.53,2.68
		C23.84,10.81,23.14,10.51,22.53,9.96z"/>
	<path class="st31" d="M4.5,17.92c0.58,0.01,0.79-0.59,1.26-0.77c0.72,0.02,0.79,0.29,0.26,0.74c-0.63,0.54-1.27,1.08-1.93,1.64
		C4.04,18.92,4.31,18.43,4.5,17.92z"/>
	<path class="st32" d="M22.53,9.96c0.72,0.25,1.43,0.51,2.15,0.76c0.3,0.14,0.03,0.29,0,0.43c-0.08,0.1-0.16,0.11-0.24,0.01
		c-1.06-0.59-2.29-0.72-3.52-1.22C21.56,9.58,22.04,10.12,22.53,9.96z"/>
	<path class="st33" d="M7.67,15.54c-0.04-0.01-0.1,0-0.11-0.02c-0.29-0.47,0.98-0.51,0.27-1.37c-0.34-0.41,0.89-0.55,1.51-0.52
		C9.16,14,8.06,13.77,8.7,14.73C8.84,14.94,8.06,15.3,7.67,15.54z"/>
	<path class="st34" d="M13.84,12.14c0.59-0.36,0.99-0.02,1.25,0.42c0.32,0.52-0.31,0.58-0.53,0.83c-0.32-0.29-0.66-0.57-0.94-0.89
		C13.39,12.26,13.66,12.2,13.84,12.14z"/>
	<path class="st35" d="M15.76,12.15c-0.37,0.02-0.57-0.2-0.72-0.5c0.43-0.4,0.58-0.91,0.65-1.5C16.53,10.77,16.06,11.46,15.76,12.15
		z"/>
	<path class="st36" d="M24.44,11.16c0.08,0.02,0.16,0.01,0.24-0.01c0.17,0.11,0.43,0.18,0.48,0.33c0.09,0.26-0.21,0.31-0.38,0.33
		c-0.69,0.1-1.39,0.38-2.04-0.14C23.19,11.12,24.01,11.77,24.44,11.16z"/>
	<path class="st37" d="M13.99,8.65c0.22-0.05,0.29-0.08,0.37-0.09c0.53-0.02,1.04,0.1,1.31,0.59c0.21,0.38-0.2,0.45-0.77,0.07
		c-0.16-0.11-0.31-0.24-0.47-0.35C14.34,8.81,14.23,8.77,13.99,8.65z"/>
	<path class="st38" d="M22.05,24.12c1.66-0.62,3.41-0.57,5.11-0.91c3.53-0.7,7.08-1.35,10.62-2.02c0.31-0.06,0.62-0.12,0.93-0.17
		c0.25-0.04,0.58-0.21,0.6,0.27c0.01,0.34-0.04,0.64-0.47,0.69c-3.19,0.33-6.3,1.16-9.5,1.46c-1.81,0.17-3.61,0.46-5.42,0.66
		C23.3,24.18,22.67,24.12,22.05,24.12z"/>
	<path class="st39" d="M21.6,27.97c0.02-0.23,0.04-0.46,0.06-0.7c4.45,0.31,8.74-0.6,13-1.71c0.59-0.15,1.16-0.22,1.76-0.21
		c0.24,1.84,0.49,3.67,0.73,5.51c-1.23,0.04-2.46,0.08-3.7,0.11c-0.38,0.05-0.76-0.03-0.99-0.29c-1.34-1.47-3.24-1.46-4.97-1.9
		c-1.67-0.43-3.34-0.6-5.05-0.31C22.07,28.53,21.73,28.39,21.6,27.97z"/>
	<path class="st40" d="M21.6,27.97c1.01,0.55,2.05-0.05,3.1,0.05c1.62,0.16,3.15,0.63,4.74,0.85c1.61,0.22,2.83,1.1,4.01,2.1
		c-0.08,0.18-0.17,0.36-0.25,0.54c-0.12-0.14-0.25-0.27-0.37-0.4c-1.06-0.12-1.71-1.02-2.77-1.29c-1.93-0.5-3.89-0.8-5.84-1.15
		c-0.84-0.15-1.63,0.5-2.45,0.03C21.66,28.48,21.51,28.25,21.6,27.97z"/>
	<path class="st39" d="M9.74,32.4c-1.19,0.18-2.35-0.69-3.54-0.07c-0.6-1.71-0.8-3.49-0.96-5.28c1.07-0.56,2.28-0.3,3.39-0.39
		c2.65-0.21,5.33-0.37,8-0.16c0.7,0.06,1.45,0.06,2.05,0.54c0.01,0.41,0.01,0.82,0.02,1.23c-0.3,0.29-0.63,0.46-1.06,0.45
		c-1.65-0.04-3.04,0.53-4.36,1.54c-0.87,0.67-1.88,1.16-2.66,1.97C10.38,32.46,10.07,32.59,9.74,32.4z"/>
	<path class="st38" d="M18.67,27.04c-4.48-0.49-8.96-0.17-13.43,0c0-0.16,0-0.32,0-0.48c4.17-0.24,8.34-0.48,12.51-0.74
		c0.31-0.02,0.62-0.14,0.93-0.22C18.67,26.08,18.67,26.56,18.67,27.04z"/>
	<path class="st41" d="M21.78,28.71c1.75-0.48,3.43-0.26,5.2,0.1c1.3,0.26,2.56,0.73,3.88,0.89c0.95,0.12,1.25,1.04,1.98,1.42
		c-0.49,0.84-1.05,1.32-2.16,1.56c-1,0.21-2.25,0.46-3.04,1.37c-0.43,0.5-0.98,0.51-1.54,0.38c-1.68-0.39-3.28-0.12-4.9,0.43
		c-1.92,0.66-3.94,0.75-5.94,0.36c-1.59-0.3-3.21-0.25-4.83-0.76c0.37-0.65,0.45-1.36-0.63-1.64c1.15-1.41,2.71-2.35,4.21-3.24
		c1.33-0.78,2.91-1.48,4.6-0.81c-0.05,0.46-0.11,0.91-0.16,1.37c0.03,0.55,0.42,0.43,0.76,0.41c0.54-0.03,1.06-0.3,1.62-0.14
		c0.24-0.09,0.47-0.18,0.71-0.27c0.38-0.25,0.81-0.32,1.34-0.27c-0.53-0.29-1.55-0.06-1.08-1.14L21.78,28.71z"/>
	<path class="st42" d="M18.63,28.78c-2.02-0.14-3.75,0.47-5.47,1.59c-1.17,0.77-2.11,1.8-3.35,2.45c-0.1,0-0.2,0-0.3,0
		c0.07-0.14,0.15-0.28,0.22-0.42c0.35-0.09,0.67-0.22,0.93-0.5c1.47-1.6,3.28-2.65,5.31-3.39c0.89-0.32,1.83,0.06,2.72-0.24
		C18.67,28.44,18.65,28.61,18.63,28.78z"/>
	<path class="st43" d="M20.39,26.76c-0.39,0.09-0.89,0.73-1.1,0.27c-0.29-0.64-0.28-1.48,0.06-2.18c0.15-0.3,0.42-0.58,0.8-0.67
		C20.85,24.99,20.71,25.87,20.39,26.76z"/>
	<path class="st44" d="M19.16,28.43c-0.03-0.76,0.47-1.02,1.04-1.1c0.52-0.08,0.73,0.34,0.63,0.77c-0.11,0.51-0.16,1.13-0.97,1.11
		C19.27,29.2,19.08,28.94,19.16,28.43z"/>
	<path class="st45" d="M20.84,30.42c-0.7,0.38-1.45,0.51-2.24,0.46c-0.25-0.02-0.64,0.14-0.73-0.17c-0.13-0.43,0.5-0.25,0.59-0.56
		c0.49-0.09,0.82-0.7,1.41-0.46c0.27,0.19,0.65,0.15,0.88,0.42C20.78,30.21,20.81,30.32,20.84,30.42z"/>
	<path class="st46" d="M20.59,23.68c-0.36,0.42-0.99,0.11-1.35,0.59c0.12-0.9-0.99-1.9,0.36-2.53
		C20.28,22.21,19.95,23.19,20.59,23.68z"/>
	<path class="st47" d="M21.8,28.73c-0.06,0.5,0.15,0.73,0.67,0.71c0.51-0.02,0.96,0.14,1.34,0.71c-0.76,0-1.51,0-2.27,0
		C21.92,29.73,21.2,29.11,21.8,28.73z"/>
	<path class="st48" d="M20.59,23.68c-1.24-0.18-0.59-1.33-0.99-1.94c0.37-0.32,0.64-0.27,0.74,0.23
		C20.45,22.53,20.67,23.09,20.59,23.68z"/>
	<path class="st49" d="M20.39,26.76c-0.07-0.86,0.05-1.73-0.24-2.57c0.79-0.18,0.68,0.43,0.72,0.86
		C20.91,25.67,21.35,26.41,20.39,26.76z"/>
	<path class="st50" d="M16.53,14.61c-0.65,0.84-0.95,0.03-1.33-0.3c-0.43-0.37-0.43-0.71,0.14-0.95
		C16.03,13.5,16.38,13.96,16.53,14.61z"/>
	<path class="st51" d="M19.16,18.92c-0.33,0.18-0.74,0.75-1,0.06c-0.23-0.61-1.2-1.24-0.2-2C18.56,17.5,18.75,18.28,19.16,18.92z"/>
	<path class="st52" d="M19.16,18.92c-0.88-0.35-0.93-1.21-1.2-1.94C18.71,17.01,19.18,17.76,19.16,18.92z"/>
	<path class="st53" d="M19.4,21.23c-0.07,0.19-0.22,0.46-0.39,0.32c-0.52-0.41-0.41-1.79,0.13-2.2
		C19.42,19.95,19.86,20.52,19.4,21.23z"/>
	<path class="st50" d="M17.73,16.69c-0.6,0.48-0.8-0.08-1.04-0.43c-0.27-0.4-0.69-0.84,0.02-1.24
		C17.29,15.43,17.8,15.89,17.73,16.69z"/>
	<path class="st54" d="M17.73,16.69c-0.34-0.56-0.68-1.11-1.02-1.67c0.96-0.36,0.85,0.64,1.25,1C18.28,16.31,18.1,16.57,17.73,16.69
		z"/>
	<path class="st55" d="M19.4,21.23c-0.09-0.63-0.18-1.25-0.27-1.88C20.04,19.99,20.16,20.84,19.4,21.23z"/>
	<path class="st56" d="M16.53,14.61c-0.4-0.42-0.8-0.83-1.19-1.25C16.11,13.35,16.54,13.8,16.53,14.61z"/>
	<path class="st57" d="M20.76,30.11c-0.38,0.05-0.81,0.2-0.88-0.42C20.34,29.48,20.89,29.08,20.76,30.11z"/>
	<path class="st58" d="M29.78,15.03c-0.71-0.05-1.5-0.34-1.67-1.32c-0.16-0.94,0.86-2.18,1.66-2.18c1.05,0.01,1.83,0.77,1.84,1.81
		C31.62,14.26,30.9,15,29.78,15.03z"/>
	<path class="st4" d="M12.66,8.09c1.5-1.36,3.45-1.82,5.21-2.65c0.74-0.35,1.53-0.62,2.29-0.93c0.22-0.03,0.44-0.05,0.66-0.08
		c0.11,0.09,0.14,0.23,0.01,0.27C18.05,5.66,15.38,6.94,12.66,8.09z"/>
	<path class="st59" d="M16.06,33.18c-1.4,0.4-2.74-0.14-4.35-0.16C13.18,32.62,15.32,32.73,16.06,33.18z"/>
	<path class="st60" d="M27.44,30.08c-0.7,0.18-1.39,0.35-2.09,0.53c0.52-0.8,1.24-0.91,2.03-0.83
		C27.4,29.88,27.42,29.98,27.44,30.08z"/>
</g>
</svg>
