<?xml version="1.0" encoding="utf-8"?>
<!-- Generator: Adobe Illustrator 23.0.2, SVG Export Plug-In . SVG Version: 6.00 Build 0)  -->
<svg version="1.1" id="Camada_1" xmlns="http://www.w3.org/2000/svg" xmlns:xlink="http://www.w3.org/1999/xlink" x="0px" y="0px"
	 viewBox="0 0 30.48 26.88" style="enable-background:new 0 0 30.48 26.88;" xml:space="preserve">
<style type="text/css">
	.st0{fill:#0C0B0F;}
	.st1{fill:#040304;}
	.st2{fill:#6C2F07;}
	.st3{fill:#672B06;}
	.st4{fill:#743609;}
	.st5{fill:#6A2A0B;}
	.st6{fill:#9B5D0C;}
	.st7{fill:#C68531;}
	.st8{fill:#9B5E0C;}
	.st9{fill:#622007;}
	.st10{fill:#C4842F;}
	.st11{fill:#D5943B;}
	.st12{fill:#58170D;}
	.st13{fill:#C88630;}
	.st14{fill:#78B9E7;}
	.st15{fill:#9D600C;}
	.st16{fill:#F8F7F7;}
	.st17{fill:#CC8B34;}
	.st18{fill:#570B00;}
	.st19{fill:#3BA8E2;}
	.st20{fill:#2FA1DF;}
	.st21{fill:#1099DA;}
	.st22{fill:#753210;}
	.st23{fill:#500400;}
	.st24{fill:#77BCE1;}
	.st25{fill:#450300;}
	.st26{fill:#985B0B;}
	.st27{fill:#7BC6EF;}
	.st28{fill:#79C7F0;}
	.st29{fill:#D08F36;}
	.st30{fill:#CB8A32;}
	.st31{fill:#560A00;}
	.st32{fill:#A16310;}
	.st33{fill:#834A0F;}
	.st34{fill:#510100;}
	.st35{fill:#77B9E6;}
	.st36{fill:#76B9E6;}
	.st37{fill:#F7FBFD;}
	.st38{fill:#77BAE8;}
	.st39{fill:#229FDD;}
	.st40{fill:#3AA9DF;}
	.st41{fill:#77B9E7;}
	.st42{fill:#FCFDFD;}
</style>
<g>
	<path class="st0" d="M3.05,24.76c-0.67-0.41-0.76-1.1-0.76-1.78c-0.03-6.23-0.05-12.47-0.06-18.7c0-0.67,0.04-1.38,0.86-1.66
		c7.51-0.04,15.02-0.01,22.53-0.02c0.24,0,0.48-0.01,0.72,0.02c1.35,0.19,1.7,0.58,1.7,1.95c0.01,5.24,0,10.47,0.01,15.71
		c0,0.79-0.02,1.58,0.12,2.38c0.22,1.25-0.58,1.92-2.03,2.02c-6.58,0.48-13.17,0.11-19.76,0.23C5.27,24.93,4.15,24.97,3.05,24.76z"
		/>
	<path class="st1" d="M3.05,24.76c0.5-0.51,1.05-0.05,1.56-0.05c6.32-0.04,12.63-0.02,18.95-0.03c1.07,0,2.12-0.27,3.21-0.27
		c1.06,0,1.3-0.94,1.17-1.72c-0.16-0.92-0.12-1.83-0.13-2.74C27.79,14.87,27.8,9.79,27.8,4.72c0-1.59-0.24-1.85-1.87-1.87
		c-2.2-0.02-4.4-0.01-6.6-0.01c-5,0-9.99,0-14.99-0.01c-0.42,0-0.89,0.15-1.25-0.21c0.04-0.08,0.09-0.09,0.16-0.05
		c0.26-0.13,0.55-0.09,0.82-0.09c7.34,0,14.68,0,22.02,0c0.28,0,0.56-0.04,0.82,0.09c1.29,0.16,1.47,1.04,1.47,2.12
		c-0.02,5.43-0.01,10.86-0.01,16.3c0,0.28-0.05,0.57,0.01,0.84c0.44,2.24-0.58,3.55-3.58,3.12c-0.27,0.12-0.55,0.09-0.83,0.09
		c-6.59,0-13.18,0-19.77,0c-0.24,0-0.48,0.03-0.7-0.09C3.31,24.97,3.14,24.97,3.05,24.76z"/>
	<path class="st0" d="M26.92,2.57c-7.89,0-15.78,0-23.67,0c0.27-0.23,0.6-0.19,0.91-0.19C11.4,2.39,18.64,2.4,25.88,2.42
		C26.22,2.42,26.6,2.32,26.92,2.57z"/>
	<path class="st0" d="M3.5,24.94c7.1,0,14.2,0,21.3,0c-2.74,0.06-5.48,0.14-8.22,0.16c-4.06,0.04-8.12,0.03-12.18,0.04
		C4.09,25.15,3.77,25.17,3.5,24.94z"/>
	<path class="st2" d="M3.8,3.83c7.38-0.01,14.76-0.01,22.14-0.03c0.69,0,1.13,0.13,1.13,0.98c-0.02,5.98-0.01,11.97-0.01,17.95
		c0,0.18-0.11,0.37-0.18,0.55c-0.42,0.08-0.88,0.23-0.93-0.46c-0.05-0.4-0.28-0.77-0.18-1.19c0.04-4.98,0.01-9.96,0.01-14.94
		c0-0.5,0.16-1.04-0.25-1.48c-0.15-0.14-0.31-0.28-0.48-0.41c-0.41-0.2-0.86-0.17-1.3-0.17C17.59,4.65,11.44,4.61,5.28,4.66
		C4.92,4.75,4.57,4.64,4.22,4.63C3.64,4.6,3.58,4.29,3.8,3.83z"/>
	<path class="st3" d="M3.8,3.83C3.73,4.86,4.78,3.98,4.99,4.52c0.59-0.1,0.88,0.34,1.22,0.69c0.11,0.19,0.1,0.4,0.09,0.6
		c-0.03,4.08,0,8.16-0.01,12.23c-0.01,0.83,0,1.67-0.02,2.5c0,0.13-0.02,0.26-0.04,0.39c-0.16,0.84-0.8,1.37-1.27,2
		c-0.2,0.21-0.27,0.63-0.68,0.53c-0.46-0.11-0.31-0.57-0.41-0.89c0.01,0.31,0.16,0.63-0.1,0.9c-0.3-0.29-0.2-0.67-0.2-1.02
		C3.57,16.59,3.57,10.7,3.57,4.82C3.57,4.48,3.43,4.09,3.8,3.83z"/>
	<path class="st4" d="M3.79,23.49c0-0.31,0-0.63,0-1.13c0.33,0.38,0.34,1.66,0.95,0.4c0.43-0.07,0.86-0.14,1.31-0.14
		c6.55,0.02,13.1-0.02,19.65,0.02c0.16-0.01,0.3,0.03,0.43,0.13c-0.06,0.64,0.6,0.21,0.76,0.52c-0.24,0.42-0.64,0.42-1.04,0.42
		c-7.14,0.01-14.27,0.02-21.41,0.03C4.18,23.73,3.94,23.72,3.79,23.49z"/>
	<path class="st5" d="M26.12,22.76c-0.08,0-0.17,0-0.25,0c-0.49,0.11-0.57-0.39-0.86-0.59c-0.35-0.46-0.91-0.66-1.33-1.03
		c-0.06-0.09-0.12-0.17-0.19-0.24c-1.8,0.04-3.59,0.03-5.38,0.02c-0.47,0-0.97,0.06-1.37-0.3c-0.06-0.15-0.03-0.27,0.09-0.38
		c0.95-0.43,1.95-0.18,2.92-0.22c1.22-0.05,2.45,0.02,3.67-0.04c0.49-0.15,0.49-0.59,0.59-0.97c0.09-1.33,0.35-2.67-0.14-3.98
		c-0.12-0.05-0.25-0.08-0.38-0.09c-1.75-0.03-3.5,0-5.24-0.02c-0.5-0.01-1.05,0.09-1.46-0.34c0.11-0.68,0.63-0.32,0.94-0.33
		c1.93-0.04,3.86-0.02,5.79-0.06c0.15-0.09-0.04-0.29,0.03-0.15c0.03,0.06,0.01,0.1-0.06,0.1c-2.18,0.19-4.36,0.03-6.54,0.09
		c-0.54,0.01-0.68-0.33-0.72-0.76c-0.05-0.54,0.03-1.05,0.64-1.27c0.34-0.12,0.71-0.11,1.07-0.11c1.52-0.01,3.03,0,4.55-0.01
		c0.43,0,0.88,0.07,1.27-0.21c0.62-1.14,0.45-2.29,0.04-3.44c-0.2-0.67-0.15-1.33,0.03-2c0.02-0.11,0.04-0.23,0.06-0.34
		c0.01-0.11,0.04-0.22,0.07-0.33c0.03-0.11,0.07-0.21,0.12-0.31c0.08-0.15,0.19-0.27,0.3-0.39c0.29-0.22,0.53-0.6,0.98-0.33
		c0.09,0.08,0.19,0.15,0.28,0.23c0,0.22-0.1,0.39-0.22,0.56c-0.63,0.91-0.39,1.91-0.28,2.89c0.17,1.43,0.19,2.85,0.03,4.28
		c-0.33,2.45-0.09,4.91-0.13,7.37c0.02,0.12,0.04,0.24,0.09,0.35c0.12,0.61,0.77,0.97,0.76,1.64C25.89,22.32,26.41,22.4,26.12,22.76
		z"/>
	<path class="st6" d="M25.36,4.74c-0.4,0-0.58,0.37-0.91,0.51c-3.92,0.2-7.84,0.07-11.75,0.08c-2.24,0.01-4.48,0.15-6.71-0.11
		c-0.33-0.23-0.67-0.46-1-0.69c0.26-0.36,0.65-0.24,0.99-0.24c6.11,0,12.22,0,18.33,0.02C24.68,4.3,25.25,4.03,25.36,4.74z"/>
	<path class="st7" d="M25.38,5.23c0.09-0.09,0.17-0.17,0.26-0.26c0.34-0.07,0.5,0,0.5,0.41c-0.02,5.43-0.02,10.85-0.04,16.28
		c0,0.13-0.14,0.27-0.21,0.4c-0.21-0.55-0.92-0.77-0.93-1.45c0.27-0.46,0.34-0.96,0.34-1.49c-0.03-4.28,0.05-8.56-0.06-12.83
		C25.22,5.92,25.2,5.56,25.38,5.23z"/>
	<path class="st8" d="M25.19,22.02c0.23,0.25,0.45,0.49,0.68,0.74c-0.3,0.39-0.74,0.23-1.11,0.23c-6.3,0.01-12.6,0-18.9,0
		c-0.38,0-0.81,0.13-1.12-0.24c0.4-0.56,0.98-0.99,1.24-1.65c0.31-0.28,0.64-0.3,0.98-0.05c0.19,0.77,0.81,0.62,1.35,0.62
		c4.93,0,9.86,0.01,14.79,0C23.82,21.67,24.53,21.69,25.19,22.02z"/>
	<path class="st9" d="M5.96,18.2c0-3.83-0.01-7.65,0-11.48c0-0.42-0.16-0.89,0.23-1.24c0.07-0.02,0.14-0.03,0.22-0.05
		c3.67-0.05,7.33-0.13,11,0.04c0.14,0.05,0.25,0.12,0.35,0.23c0.05,0.14,0.01,0.26-0.1,0.36c-0.35,0.22-0.76,0.2-1.14,0.32
		c-0.13,0.03-0.26,0.03-0.4,0.03c-0.14,0-0.27-0.02-0.4-0.05c-0.92-0.04-0.75,0.65-0.75,1.17c0.01,3.59,0,7.18,0,10.76
		c0,0.6,0.03,1.2-0.05,1.79c-0.02,0.14-0.07,0.27-0.13,0.4c-0.17,0.28-0.44,0.33-0.73,0.26c-0.14-0.05-0.23-0.14-0.28-0.28
		c-0.03-0.13-0.03-0.27,0-0.4c0.07-1.38,0.02-2.76,0.03-4.14c0-0.35,0.06-0.73-0.35-0.93c-1.72-0.18-3.45,0.05-5.17-0.13
		c-1.65-0.38-1.72-0.31-1.74,1.41c-0.01,0.62,0.12,1.27-0.21,1.86C6.21,18.26,6.1,18.28,5.96,18.2z"/>
	<path class="st6" d="M5.26,21.12C5,21.45,4.75,21.79,4.3,22.38c0-0.72,0-1.13,0-1.55c0-4.95,0-9.9,0.01-14.85
		c0-0.37-0.23-0.92,0.21-1.08c0.35-0.13,0.74,0.2,0.97,0.55c-0.04,4.68-0.01,9.35-0.02,14.03C5.48,20.03,5.5,20.59,5.26,21.12z"/>
	<path class="st10" d="M5.99,5.21C6.27,4.88,6.65,5,6.99,5C12.44,5,17.89,5,23.34,5c0.38,0,0.81-0.15,1.11,0.24
		c-0.08,0.08-0.17,0.17-0.25,0.25c-0.36,0.32-0.8,0.33-1.24,0.32C17.49,5.63,12.01,5.55,6.53,5.59c-0.13,0-0.23-0.07-0.33-0.11
		c0,0,0,0,0,0C6.13,5.39,6.06,5.3,5.99,5.21z"/>
	<path class="st11" d="M5.26,21.12c-0.01-4.94-0.02-9.87-0.03-14.81C5.23,6,5.16,5.65,5.5,5.44c0.29,0.3,0.2,0.67,0.2,1.02
		c0.01,4.47,0.02,8.95,0.04,13.42C5.73,20.37,5.83,20.86,5.26,21.12z"/>
	<path class="st2" d="M6.93,21.09c-0.32,0.01-0.64,0.01-0.95,0.02c0-0.09,0-0.18-0.01-0.27c0.18-0.16,0.4-0.29,0.64-0.29
		c2.41,0,4.82-0.23,7.22,0.13c0.9,0.13,1.78-0.41,2.69-0.07c1.65,0.28,3.32,0.04,4.98,0.13c0.74,0.04,1.5-0.15,2.23,0.12
		c0,0.07,0,0.14,0,0.2c-0.4,0.44-0.94,0.41-1.45,0.41c-4.63,0.02-9.26,0.02-13.89,0C7.88,21.46,7.34,21.5,6.93,21.09z"/>
	<path class="st12" d="M16.53,20.83c-3.52,0-7.04,0-10.56,0c0-0.88,0-1.75,0-2.63c0.07,0,0.14,0,0.21,0
		c0.39,0.3,0.33,0.75,0.36,1.16c0.02,0.34-0.02,0.71,0.41,0.86c1.83,0.11,3.65,0.01,5.47,0.05c0.51,0.01,1.04-0.06,1.47,0.33
		c0.24,0,0.49,0,0.73,0c0.58-0.43,1.2-0.38,1.82-0.13C16.57,20.56,16.6,20.68,16.53,20.83z"/>
	<path class="st13" d="M6.93,21.09c5.6-0.01,11.2-0.02,16.8-0.03c0.61,0.13,1.1,0.45,1.47,0.97c-6.25,0-12.51,0-18.77,0
		C6.36,21.55,6.83,21.42,6.93,21.09z"/>
	<path class="st14" d="M24.21,19.29c-0.04,0.36,0.25,0.81-0.27,1.04c-2.3-0.22-4.6-0.04-6.9-0.1c-0.15,0.01-0.28-0.04-0.39-0.15
		c-0.35-0.67-0.22-1.38-0.15-2.08c0.31-1,0.09-2.03,0.14-3.04c0.06-0.15,0.16-0.23,0.32-0.24c2.31,0.01,4.62-0.04,6.93,0.03
		c0.48,1.07,0.36,1.76-0.42,1.75c-1.88-0.02-3.56,1.07-5.44,0.91c-0.08-0.01-0.15-0.03-0.23-0.05c-0.36-0.93-0.09-1.47,0.96-1.59
		c1.11-0.12,2.2-0.37,3.33-0.35c-0.89,0.02-1.78-0.01-2.67,0c-1.91,0.01-2.01,0.12-1.88,2.06c0.09,0.89,0.83,0.83,1.42,0.99
		c1.45,0.22,2.93,0.08,4.38,0.27C23.74,18.79,24.28,18.55,24.21,19.29z"/>
	<path class="st15" d="M25.38,5.23c0.13,0.5,0.26,0.99,0.26,1.52c-0.02,4.19-0.01,8.38-0.02,12.57c0,0.53,0.17,1.18-0.67,1.29
		c0,0-0.07-0.01-0.07-0.01c-0.11-2.63-0.15-5.27,0.02-7.9c0.16-2.09-0.17-4.17-0.2-6.25C24.68,5.84,24.84,5.45,25.38,5.23z"/>
	<path class="st16" d="M24.18,6.26c-0.29,0.66-0.23,1.35-0.21,2.04c-0.04,0.06-0.09,0.11-0.13,0.17c-0.89,0.38-1.81,0.2-2.73,0.14
		c-0.74-0.46-1.57-0.65-2.42-0.82c-0.55-0.11-1.03-0.47-1.11-1.09c-0.08-0.55,0.33-0.74,0.8-0.82c1.5-0.06,3-0.02,4.49-0.02
		C23.34,5.87,23.83,5.83,24.18,6.26z"/>
	<path class="st17" d="M20.53,12.65c0.96,0,1.91-0.01,2.87,0c0.3,0,0.71-0.07,0.71,0.4c0,0.42-0.17,0.79-0.7,0.79
		c-1.39,0-2.79,0.04-4.18-0.05c-0.63-0.04-1.25-0.24-1.88-0.07c-0.47,0.13-0.56-0.1-0.58-0.48c-0.02-0.39,0.12-0.59,0.54-0.59
		C18.38,12.67,19.45,12.66,20.53,12.65C20.53,12.66,20.53,12.66,20.53,12.65z"/>
	<path class="st18" d="M24.19,11.9c-0.05,0.7-0.59,0.52-0.99,0.53c-1.84,0.01-3.68,0.01-5.52,0c-0.62,0-1.19-0.07-1.18,0.88
		c0.01,0.99,0.65,0.82,1.23,0.82c1.99,0.01,3.98,0,5.97,0.23c-1.9,0-3.8-0.01-5.69,0.01c-0.41,0-0.89-0.19-1.22,0.25
		c-0.03,0.06-0.07,0.12-0.1,0.18c0.23,1.75-0.11,3.5-0.05,5.25c-0.04,0.24-0.11,0.42-0.41,0.29c-0.45-1.33-0.52-2.73-0.46-4.09
		c0.05-1.27,0.25-2.52,0.07-3.79c-0.04-0.24,0.06-0.47,0.22-0.66c0.1-0.11,0.22-0.18,0.37-0.21c0.22-0.04,0.43,0.02,0.65,0
		c2.25,0.07,4.5-0.1,6.74,0.1C23.95,11.72,24.08,11.8,24.19,11.9z"/>
	<path class="st19" d="M24.19,11.9c-0.08-0.02-0.15-0.06-0.21-0.11c-0.47-0.45-0.33-1.03-0.31-1.57c0.02-0.6-0.15-0.94-0.79-0.83
		c-1.74,0.29-3.09-0.81-4.59-1.33c-0.67-0.23-1.3-0.8-1.2-1.72c0.07-0.19,0.24-0.27,0.4-0.37c0.08-0.02,0.15-0.03,0.23-0.05
		c0.15-0.1,0.31-0.11,0.47-0.02c0.08,0.1,0.06,0.18-0.06,0.23c-0.52,0.68-0.18,1.4,0.85,1.44c0.85,0.03,1.5,0.29,2.1,0.83
		c0.95,0.11,1.91,0.21,2.85-0.05c0,0,0.04-0.04,0.04-0.05C24.65,9.46,24.4,10.68,24.19,11.9z"/>
	<path class="st20" d="M18.69,18.66c-0.66-0.02-1.28-0.09-1.43-0.91c0.12-0.2,0.17-0.46,0.47-0.49c1.85-0.12,3.55-1.09,5.44-0.99
		c1.22,0.06,0.69-0.87,0.8-1.44c-0.08-0.04-0.11-0.08-0.09-0.13c0.03-0.05,0.05-0.07,0.08-0.07c0.08-0.02,0.16-0.03,0.23-0.05
		c0.18,0.71,0.23,1.42-0.05,2.12c-0.26,0.3-0.63,0.37-0.97,0.32c-1.43-0.18-2.62,0.83-4.03,0.81c-0.4-0.01,0.13,0.28,0.08,0.47
		C19.18,18.65,18.88,18.57,18.69,18.66z"/>
	<path class="st2" d="M6.2,5.48c6,0.01,12,0.01,18,0.02c0,0.08,0,0.15,0,0.23c-2.15,0.42-4.31,0.31-6.46,0.03
		c-3.43-0.01-6.86-0.02-10.3-0.04C7.02,5.71,6.55,5.88,6.2,5.48z"/>
	<path class="st21" d="M18.69,18.66c0.11-0.2,0.3-0.22,0.49-0.24c0.67-0.51,1.45-0.33,2.18-0.27c1.86,0.17,1.86,0.19,2.57-1.36
		c0.42-0.7,0.22-1.46,0.26-2.2c0.49,1.56,0.26,3.13,0.02,4.69c-1.03-0.48-2.14-0.22-3.21-0.35C20.23,18.84,19.42,19.13,18.69,18.66z
		"/>
	<path class="st22" d="M24.9,12.69c-0.01,2.63-0.01,5.27-0.02,7.9c-0.44-1.76-0.14-3.56-0.18-5.33
		C24.68,14.41,24.44,13.51,24.9,12.69z"/>
	<path class="st23" d="M16.53,20.83c0-0.07,0-0.14,0-0.22c0.07-0.1,0.15-0.11,0.23-0.02c2.33,0,4.66,0,6.98,0.01
		c0.07,0,0.13,0.04,0.2,0.07c-0.07,0.06-0.15,0.12-0.22,0.17C21.32,20.84,18.92,20.84,16.53,20.83z"/>
	<path class="st24" d="M23.96,14.65c0.01,0.06,0.01,0.13,0.01,0.19c-2.39,0-4.78,0-7.17,0c-0.08-0.05-0.11-0.1-0.09-0.16
		c0.03-0.05,0.05-0.08,0.08-0.08c0,0-0.01,0.01-0.01,0.01C19.17,14.63,21.57,14.64,23.96,14.65z"/>
	<path class="st24" d="M16.76,20.13c2.06,0,4.12-0.01,6.18,0c0.34,0,0.72-0.1,1.01,0.21c-2.39,0.01-4.79,0.02-7.18,0.03
		c-0.06-0.05-0.08-0.1-0.06-0.16C16.72,20.16,16.74,20.13,16.76,20.13z"/>
	<path class="st25" d="M17.74,5.76c2.15-0.01,4.31-0.02,6.46-0.03c0,0.07-0.01,0.13-0.01,0.2c-2.02,0.27-4.05,0.19-6.08,0.04
		c-0.13-0.02-0.26-0.04-0.39-0.05C17.72,5.86,17.73,5.81,17.74,5.76z"/>
	<path class="st2" d="M18.11,5.97c2.03-0.01,4.05-0.03,6.08-0.04c0,0.11-0.01,0.22-0.01,0.33c-2.01-0.29-4.04-0.04-6.05-0.13
		C18.14,6.07,18.13,6.02,18.11,5.97z"/>
	<path class="st2" d="M16.76,20.13c0,0.08,0,0.16,0,0.24c0,0.08,0,0.15-0.01,0.23c-0.08,0-0.15,0.01-0.23,0.02
		c-0.64-0.01-1.28-0.01-1.92-0.02c0-0.09,0.01-0.17,0.01-0.26c0.26-0.22,0.57-0.27,0.89-0.27c0.26,0.02,0.51,0.06,0.7,0.27
		c0.1-0.07,0.21-0.15,0.31-0.22c0.05,0,0.09,0.01,0.14,0.01L16.76,20.13z"/>
	<path class="st26" d="M15.57,20.34c-0.32,0-0.64-0.01-0.96-0.01c0-4.42-0.01-8.85-0.01-13.27c0-1.2,0.14-1.29,1.43-0.88
		c-0.37,0.32-0.43,0.72-0.37,1.18c0.4,2.8,0.2,5.61,0.13,8.42c-0.02,0.79,0.01,1.58,0.07,2.38C15.94,18.89,16.1,19.68,15.57,20.34z"
		/>
	<path class="st27" d="M6.56,5.97L6.6,5.98c1.66,0.22,3.34,0.07,5,0.09c2.39,0.03,2.43,0.01,2.38,2.46
		c-0.02,1.13,0.25,2.29-0.17,3.4l0.03-0.04c-0.21,0.28-0.51,0.37-0.83,0.38c-1.9,0.04-3.79,0.03-5.69,0
		c-0.33-0.01-0.62-0.11-0.85-0.36l0.03,0.03c-0.32-0.37-0.15-0.78-0.11-1.18c0.17-0.15,0.37-0.15,0.57-0.08
		c0.29,0.3,0.65,0.46,1.06,0.39c1.34-0.23,2.68-0.18,4.03-0.17c0.69,0,1.03-0.28,1.01-0.99c-0.02-0.63-0.05-1.27,0.01-1.9
		c0.07-0.81-0.28-1.08-1.04-0.98c-1.4-0.02-2.79,0-4.19-0.01C7.36,7.01,6.87,7.07,6.45,6.76C6.33,6.47,6.16,6.18,6.56,5.97z"/>
	<path class="st28" d="M8.11,14.58c1.91,0.01,3.81,0.02,5.72,0.03c0.28,1.91,0.23,3.83,0.03,5.75l0.01-0.01
		c-2.45,0.28-4.9,0.08-7.35,0.1c-0.3-0.23-0.2-0.52-0.14-0.81c1.41-0.33,2.84-0.03,4.26-0.12c0.47-0.03,0.96,0.04,1.43-0.03
		c1.58-0.21,0.84-1.45,0.92-2.26c0.07-0.7,0.35-1.72-0.94-1.77c-1.35-0.05-2.7,0-4.05-0.02c-0.55-0.01-1.12,0.07-1.6-0.32
		c-0.16-0.4-0.01-0.62,0.41-0.62C7.25,14.49,7.69,14.4,8.11,14.58z"/>
	<path class="st29" d="M15.57,20.34c-0.2-4.66,0.31-9.34-0.36-14.14c0.14-0.13,0.5,0.05,0.83-0.01c0.05,0.03,0.1,0.04,0.16,0.03
		c0.22,0.1,0.25,0.3,0.25,0.51c-0.1,1.27-0.19,2.54,0.07,3.8c0.08,0.43,0.07,0.84-0.24,1.19c-0.48,0.56,0.02,1.15-0.05,1.72
		c-0.27,2.3,0.01,4.6-0.02,6.9C15.99,20.34,15.78,20.34,15.57,20.34z"/>
	<path class="st30" d="M13.88,12.68c0,0.24,0,0.48,0,0.72c-0.12,0.1-0.25,0.23-0.4,0.24c-2.32,0.11-4.64,0.29-6.95-0.1
		c-0.31-0.34-0.28-0.69-0.06-1.06l-0.02-0.03c0.12-0.09,0.26-0.13,0.42-0.13c1.85,0.05,3.7,0.01,5.56,0.02
		C12.93,12.35,13.46,12.29,13.88,12.68z"/>
	<path class="st31" d="M6.66,12.48c-0.07-0.01-0.14-0.02-0.21-0.03c0.01-0.18,0.01-0.35,0.02-0.53c2.46-0.01,4.91-0.02,7.37-0.02
		c0.01,0.18,0.03,0.36,0.04,0.55C11.47,12.66,9.07,12.58,6.66,12.48z"/>
	<path class="st32" d="M6.44,13.4c2.48,0,4.96,0,7.43,0c0,0.16,0,0.32,0,0.48c-2.34,0.26-4.69,0.06-7.03,0.11
		C6.47,14,6.22,13.84,6.44,13.4z"/>
	<path class="st3" d="M13.81,11.93c0.26-1.74,0.05-3.49,0.12-5.24c0.03-0.75-0.51-0.55-0.91-0.56C10.88,6.07,8.74,6.26,6.6,5.98
		c2.19-0.01,4.38-0.02,6.58-0.02c0.43,0,0.94-0.07,0.94,0.6c0,1.67,0,3.35-0.03,5.02C14.08,11.7,13.91,11.82,13.81,11.93z"/>
	<path class="st33" d="M6.44,13.4c0.1,0.68,0.63,0.47,1.02,0.47c2.14,0.02,4.27,0.01,6.41,0.01c-0.73,0.48-1.54,0.19-2.3,0.22
		c-1.39,0.05-2.78,0.02-4.16,0.01c-1.36,0-1.52-0.29-0.94-1.64C6.46,12.78,6.45,13.09,6.44,13.4z"/>
	<path class="st3" d="M6.43,19.64c0,0.24,0.01,0.48,0.01,0.71c0.08,0.05,0.11,0.11,0.08,0.16c-0.03,0.05-0.06,0.08-0.08,0.08
		c-0.51-0.75-0.11-1.6-0.27-2.39c0.01-0.79,0.02-1.59,0.03-2.38c0.01-1.6,0.27-1.77,1.92-1.25c-0.51,0.36-1.38-0.49-1.69,0.51
		C7.05,16.6,7.05,18.12,6.43,19.64z"/>
	<path class="st2" d="M6.44,20.59c0-0.08,0-0.16,0-0.24c2.48,0,4.95,0,7.43,0c0,0.08,0,0.16,0,0.24
		C11.4,20.59,8.92,20.59,6.44,20.59z"/>
	<path class="st33" d="M6.66,12.48c2.41-0.01,4.81-0.03,7.22-0.04c0,0.08,0,0.16,0,0.24c-1.99,0-3.97,0-5.96-0.01
		C7.49,12.67,7.04,12.8,6.66,12.48z"/>
	<path class="st5" d="M17.48,5.97c-0.07,0.07-0.15,0.13-0.22,0.2c-0.33,0.34-0.15,0.74-0.16,1.13c-0.06,1.54,0.29,3.1-0.24,4.61
		c-0.11-0.06-0.23-0.12-0.34-0.19c-0.24-1.84-0.44-3.68,0.01-5.51C16.77,5.85,17.14,5.98,17.48,5.97z"/>
	<path class="st3" d="M6.45,10.7c-0.07,0.42-0.09,0.83,0.04,1.24c-0.51-0.34-0.27-0.86-0.28-1.3c-0.03-1.22-0.02-2.44,0-3.66
		c0-0.37-0.16-0.82,0.36-1.01c-0.17,0.21-0.25,0.44-0.13,0.7c0.14,0.16,0.26,0.33,0.3,0.55c0.1,0.97,0.08,1.95,0.01,2.92
		C6.7,10.36,6.61,10.55,6.45,10.7z"/>
	<path class="st2" d="M13.87,20.36c0.03-1.92,0.12-3.83-0.03-5.75c0.51,0.4,0.3,0.96,0.27,1.43C14.01,17.48,14.42,18.95,13.87,20.36
		z"/>
	<path class="st34" d="M16.52,6.21c0,1.84,0,3.68-0.01,5.51c-0.08,0-0.15,0-0.23,0c-0.01-0.39-0.02-0.77-0.03-1.16
		c-0.14-1.31-0.15-2.61,0-3.92c-0.02-0.14-0.04-0.28-0.05-0.42C16.3,6.22,16.41,6.21,16.52,6.21z"/>
	<path class="st35" d="M17.73,17.27c-0.16,0.16-0.31,0.32-0.47,0.49c-0.07-2.68-0.07-2.68,2.57-2.68c1.14,0,2.29,0,3.43,0
		c-1.31,0.84-2.76,0.84-4.17,0.94C18.23,16.08,17.69,16.31,17.73,17.27z"/>
	<path class="st5" d="M16.66,20.13c-0.05,0-0.09-0.01-0.14-0.01c0-1.47-0.01-2.95,0.01-4.42c0-0.38-0.15-0.81,0.27-1.1
		c-0.01,0.08-0.01,0.16,0,0.23c-0.01,0.08-0.01,0.16-0.02,0.24c0.17,0.96,0.16,1.92,0,2.87C16.74,18.68,16.7,19.4,16.66,20.13z"/>
	<path class="st24" d="M16.78,17.96c0-0.96,0-1.92,0-2.87C17.13,16.04,17.13,17,16.78,17.96z"/>
	<path class="st36" d="M23.93,8.35c-0.94,0.43-1.9,0.35-2.85,0.05C22.03,8.38,22.98,8.36,23.93,8.35z"/>
	<path class="st36" d="M16.85,11.91c-0.24-1.76-0.04-3.53-0.1-5.29c-0.01-0.35,0.16-0.5,0.5-0.45c-0.1,0.88,0.52,1.46,1.14,1.65
		c1.65,0.49,3.13,1.74,5.02,1.24C24,8.89,24.07,9.08,24,9.64c-0.09,0.71-0.02,1.43-0.03,2.15C21.6,11.83,19.23,11.87,16.85,11.91z"
		/>
	<path class="st37" d="M23.94,16.8c0.03,1.86-0.16,2-2.02,1.76c-0.9-0.11-1.82-0.1-2.73-0.14c-0.28-0.44-0.85-0.04-1.35-0.66
		C20,17.6,21.82,16.5,23.94,16.8z"/>
	<path class="st38" d="M12.17,6.7c0.9-0.15,1.26,0.14,1.25,1.14c-0.02,3.4,0.02,3.41-3.33,3.39c-0.69,0-1.34,0.13-2.01,0.22
		c-0.51,0.07-1.21,0.24-1.16-0.71c0.34-0.5,0.88-0.52,1.39-0.52c0.62,0,1.13-0.27,1.69-0.46c1.01-0.35,1.74-0.82,1.86-1.95
		C12.37,7.55,12.12,7.08,12.17,6.7z"/>
	<path class="st39" d="M12.2,7.88c-0.65,2.49-2.75,2.48-4.7,2.73c-0.2,0.03-0.39,0.09-0.58,0.13c-0.16-0.01-0.31-0.03-0.47-0.04
		c0-0.18-0.01-0.36-0.01-0.54c0.23-0.23,0.51-0.43,0.83-0.39c1.19,0.17,2.1-0.49,3.09-0.94c0.23-0.1,0.45-0.16,0.41-0.48
		c-0.11-0.97,0.48-1.02,1.19-0.9C12.13,7.55,12.26,7.66,12.2,7.88z"/>
	<path class="st40" d="M12.2,7.88C12.1,7.79,12,7.7,11.89,7.6c-1.2-0.32-2.42,0.03-3.62-0.08C7.65,7.47,7,7.62,6.44,7.21
		c0-0.18,0-0.36-0.01-0.53c1.91,0.01,3.83,0.01,5.74,0.02C12.41,7.09,13.01,7.47,12.2,7.88z"/>
	<path class="st41" d="M6.43,19.64c-0.11-1.52-0.1-3.04-0.01-4.56c1.96,0,3.91,0.03,5.87-0.01c0.79-0.02,1.2,0.16,1.12,1.05
		c-0.11,1.18,0.48,2.7-0.23,3.48c-0.72,0.8-2.26,0.25-3.44,0.26C8.64,19.86,7.51,20.12,6.43,19.64z"/>
	<path class="st5" d="M16.25,6.64c0,1.31,0,2.61,0,3.92C15.99,9.25,15.97,7.95,16.25,6.64z"/>
	<path class="st42" d="M6.44,7.21c1.62-0.2,3.24-0.06,4.86-0.07c0.3,0,0.69-0.07,0.59,0.46c-0.62,0.12-1.62,0.04-0.53,1.05
		c0.16,0.15,0.07,0.39-0.19,0.43C9.56,9.31,8.2,10.6,6.44,10.16C6.44,9.18,6.44,8.19,6.44,7.21z"/>
</g>
</svg>
