<?xml version="1.0" encoding="utf-8"?>
<!-- Generator: Adobe Illustrator 23.0.2, SVG Export Plug-In . SVG Version: 6.00 Build 0)  -->
<svg version="1.1" id="Camada_1" xmlns="http://www.w3.org/2000/svg" xmlns:xlink="http://www.w3.org/1999/xlink" x="0px" y="0px"
	 viewBox="0 0 41.8 51.4" style="enable-background:new 0 0 41.8 51.4;" xml:space="preserve">
<style type="text/css">
	.st0{fill:#48351E;}
	.st1{fill:#56A6C8;}
	.st2{fill:#DBAD6B;}
	.st3{fill:#B1823E;}
	.st4{fill:#FEFEFE;}
	.st5{fill:#44321C;}
	.st6{fill:#B0803D;}
	.st7{fill:#43301B;}
	.st8{fill:#AF803C;}
	.st9{fill:#AE7F3C;}
	.st10{fill:#DAAD6B;}
	.st11{fill:#71B4C6;}
	.st12{fill:#B1823D;}
	.st13{fill:#3C2815;}
	.st14{fill:#AF803D;}
	.st15{fill:#DFB16E;}
	.st16{fill:#EABA74;}
	.st17{fill:#2B2013;}
	.st18{fill:#DABD84;}
	.st19{fill:#3C3022;}
	.st20{fill:#F3F082;}
	.st21{fill:#E3E386;}
	.st22{fill:#F6F67C;}
	.st23{fill:#FDF170;}
	.st24{fill:#EDEB7D;}
	.st25{fill:#E0E487;}
	.st26{fill:#E3E586;}
	.st27{fill:#FDFDFD;}
	.st28{fill:#ECBC75;}
	.st29{fill:#EEBD76;}
	.st30{fill:#DBAD6C;}
</style>
<g>
	<path d="M40.17,20.82c0,4.96,0,9.91,0,14.87c0,3-1.15,4.44-4.06,5.13c-6.61,1.57-13.09,3.6-19.52,5.8c-3.61,1.24-7.25,2.35-11.03,3
		c-1.24,0.22-2.2,0.5-3.23-0.56c-0.67-0.69-1.05-1.34-1.04-2.27c0.05-12.83,0.1-25.67,0.11-38.5c0-1.58,0.55-2.24,2.59-2.47
		c4.45-0.48,8.78-1.6,13.18-2.36c4.29-0.74,8.62-1.2,12.96-1.54c2.64-0.21,5.28-0.4,7.91-0.59c1.01-0.07,1.79,0.62,1.86,1.74
		c0.09,1.39,0.18,2.79,0.19,4.18c0.02,4.52,0.01,9.04,0.01,13.55C40.13,20.82,40.15,20.82,40.17,20.82z"/>
	<path class="st0" d="M2.44,33.53c0-3.48-0.1-6.96,0.03-10.44c0.17-4.87,0.19-9.75,0.16-14.62C2.62,7.43,3.17,7.1,3.96,7.02
		c6.15-0.61,12.1-2.41,18.22-3.11c2.89-0.33,5.77-0.66,8.68-0.81c2.04-0.1,4.07-0.51,6.13-0.22c0.04,0.01,0.08,0.01,0.12,0
		c1.57-0.14,1.53-0.13,1.58,1.57c0.28,10.35,0.21,20.7,0.24,31.05c0,0.73-0.1,1.44-0.31,2.12c-0.29,0.92-0.84,1.55-1.87,1.8
		c-7.17,1.73-14.22,3.86-21.19,6.29c-3.57,1.24-7.19,2.39-10.98,2.78c-1.26,0.13-2.13-0.63-2.13-1.89
		C2.44,42.25,2.44,37.89,2.44,33.53z"/>
	<path class="st1" d="M14.91,6.63c0.77-0.24,1.56-0.4,2.37-0.42c0.19,0.22,0.08,0.45-0.03,0.78c0.33-0.35,0.45-0.75,0.8-0.95
		c0.93-0.36,1.31-0.18,1.26,0.95c-0.11,2.35-0.07,4.7-0.08,7.05c-0.08,0.2-0.83-0.44-0.44,0.34c0.21,0.42,0.22,0.89,0.44,1.3
		c0.01,1.78,0.01,3.56,0.05,5.35c0.01,0.51-0.15,0.83-0.59,1.03c-0.25,0.36-0.66,0.43-1.04,0.53c-3.89,1.06-7.78,2.1-11.68,3.1
		c-0.45,0.11-0.91,0.34-1.39,0.06c-0.68-1.09-0.35-2.32-0.38-3.46c-0.12-4.35-0.06-8.71-0.1-13.07C4.09,8.58,4.26,8.27,4.93,8.24
		c3.13-0.14,6.15-0.95,9.22-1.46C14.48,7.13,14.72,7.01,14.91,6.63z"/>
	<path class="st1" d="M5.05,44.24c-0.63,0.05-0.91-0.18-0.89-0.87c0.03-1.26-0.03-2.51-0.05-3.77c-0.18-1.75-0.2-3.5,0.01-5.25
		c0.67,0.14,0.53,0.7,0.55,1.13c0.05,0.96,0,1.92,0.03,2.88c0.01,0.57,0.18,1.03,0.84,1.12c3.2,0.43,6.38,0.6,9.38-0.96
		c0.87-0.45,1.55-1,1.55-2.08c0-0.46-0.1-0.98-0.57-1.09c-1.44-0.35-2.65-1.4-4.33-1.14c-1.05,0.16-2.2-0.17-3.31-0.22
		c-1.3-0.06-2.53,0.1-3.78,0.4c-0.18-0.14-0.56-0.18-0.32-0.56c0-0.31,0-0.61,0-0.92c-0.08-0.56-0.13-1.12,0.05-1.68
		c0.06-0.06,0.11-0.11,0.17-0.17c0.14-0.29,0.41-0.37,0.68-0.43c4.15-0.85,8.19-2.13,12.32-3.05c0.52-0.12,1.08-0.37,1.6,0.05
		c0.27,0.63,0.29,1.3,0.28,1.98c-0.03,3.54-0.04,7.08-0.06,10.62c-0.3,0.41-0.75,0.55-1.2,0.69c-3.76,1.16-7.5,2.38-11.34,3.25
		C6.13,44.29,5.6,44.59,5.05,44.24z"/>
	<path class="st1" d="M24.97,38.49c-0.43-0.22-0.29-0.62-0.29-0.95c0-3.59,0.04-7.18,0.01-10.77c-0.01-0.67,0.23-1.05,0.81-1.29
		c0.3-0.44,0.79-0.51,1.25-0.62c1.78-0.44,3.54-0.92,5.34-1.29c1.77-0.36,2.04-0.1,1.73,1.74c-0.44,0.63-1.22,0.69-1.82,1.06
		c-0.44,0.27-0.9,0.51-1.33,0.79c-2.18,1.44-2.13,2.53,0.15,3.69c0.18,0.09,0.41,0.15,0.5,0.31c0.55,0.96,1.63,0.98,2.48,1.42
		c0.3,0.9,0.14,1.81,0.05,2.72c-0.05,0.54-0.36,0.89-0.85,1.05C30.37,37.23,27.7,37.95,24.97,38.49z"/>
	<path class="st2" d="M23.62,9.41l0.1-0.02c0.28,0.21,0.19,0.51,0.18,0.77c-0.17,3.63,0.13,7.24,0.17,10.87
		c0.05,5.35,0.05,10.69,0.08,16.04c0,0.55,0.11,1.13-0.32,1.6c-0.01,0.28-0.04,0.56-0.04,0.84c0.01,2.24,0.01,2.24-2.14,2.8
		c-0.9-0.23-0.86-0.97-0.82-1.63c0.65-10.98,0.34-21.97,0.42-32.96c0.01-0.75-0.14-1.53,0.37-2.2c0.54-0.25,1.12-0.24,1.69-0.23
		c0.27,1.96,0.06,3.94,0.12,5.9c0.03,0.99,0.01,1.98,0,2.96c0,3.32,0,6.63,0,9.95c0-3.3,0-6.6,0-9.9c0-1.31-0.01-2.61,0.01-3.92
		C23.44,9.99,23.29,9.64,23.62,9.41z"/>
	<path class="st1" d="M24.99,20.43c-0.28-0.11-0.27-0.36-0.27-0.6c0.02-3.73,0.04-7.45,0.05-11.18c0.79-0.59,1.4-0.61,1.69,0.5
		c1.65,1.16,3.13,2.55,4.89,3.55c0.74,0.42,1.69-0.05,2.41,0.55c0.11,0.17,0.16,0.36,0.19,0.56c0.06,1.16,0.04,2.32,0.02,3.48
		c-0.01,0.6-0.16,1.16-0.81,1.33C30.45,19.31,27.8,20.24,24.99,20.43z"/>
	<path class="st3" d="M21.61,5.52c0,8.94,0.12,17.88-0.07,26.81c-0.06,2.81,0.13,5.65-0.37,8.45c-0.1,0.56,0,1.12,0.48,1.53
		c-0.45,0.24-0.92,0.44-1.45,0.43c-0.75-1.14-0.31-2.42-0.33-3.6c-0.06-4.11,0-8.23,0.01-12.35c0.01-4.95-0.03-9.9-0.06-14.85
		c0-0.55-0.11-1.13,0.32-1.6c0.01-1.1,0.1-2.21,0-3.3C20.04,5.87,20.39,5.32,21.61,5.52z"/>
	<path class="st4" d="M33.56,13.23c-2.16,0.22-3.79-0.7-5.08-2.34c-0.27-0.34-0.67-0.42-1.03-0.53c-0.65-0.2-1.12-0.57-1.33-1.23
		c-0.39-1.64,0.44-2.62,1.78-3.35c0.79-0.43,1.5-1.04,2.43-1.2c0.39-0.07,0.78-0.13,1.16-0.2c1.72-0.69,2.45-0.26,2.47,1.48
		c0.02,2.02,0.02,4.04,0,6.06C33.95,12.39,34.02,12.89,33.56,13.23z"/>
	<path class="st5" d="M24.97,38.49c2.47-0.74,4.93-1.53,7.42-2.21c0.93-0.25,1.35-0.65,1.23-1.65c-0.09-0.71-0.03-1.43-0.04-2.15
		c-0.5-0.67-0.38-1.47-0.35-2.19c0.06-1.61-0.25-3.25,0.34-4.83c0.1-1.92,0.1-1.92-1.68-1.5c-2.13,0.51-4.26,1.01-6.39,1.52
		c-0.51-0.01-0.44-0.58-0.74-0.78c0.22-0.38,0.59-0.5,0.98-0.61c3.26-0.88,6.54-1.67,9.84-2.39c0.47-0.1,0.94-0.24,1.35,0.14
		c0.51,0.04,0.54,0.39,0.51,0.79c-0.25,0.27-0.54,0.5-0.9,0.56c-1.15,0.18-1.46,0.89-1.4,1.97c0.06,0.87,0.08,1.76-0.11,2.63
		c-0.26,1.82-0.05,3.65-0.13,5.47c-0.02,0.54,0.12,1.13-0.35,1.57c-0.81,0.77-0.76,1.18,0.18,1.46c0.03,0.01,0.08,0.05,0.08,0.06
		c-0.02,0.07-0.05,0.13-0.08,0.2c-1.62,1.13-3.52,1.54-5.36,2.12c-0.94,0.3-1.9,0.58-2.86,0.8c-1.01,0.23-1.72,0.72-1.98,1.76
		c-0.13,0.16-0.3,0.35-0.44,0.08c-0.41-0.79-0.03-1.65,0.81-2c1.12-0.46,2.37-0.56,3.39-1.38c-0.98,0.27-1.96,0.53-2.94,0.8
		C25.15,38.78,24.8,39.09,24.97,38.49z"/>
	<path class="st6" d="M34.64,4.11c0.77-0.43,1.64-0.19,2.45-0.37c0.56-0.12,0.36,0.49,0.36,0.78c0.01,2.98,0,5.96,0,8.94
		c-0.27,1.12-0.77,2.17-0.91,3.32c-0.05,0.45-0.25,0.84-0.66,1.08c-1.16,0.14-1.4-0.05-1.42-1.36c-0.04-2.78,0.03-5.56,0.01-8.34
		c-0.01-0.83,0.02-1.66-0.16-2.49C34.18,5.14,34.2,4.56,34.64,4.11z"/>
	<path class="st2" d="M37.44,18.33c0,0.93,0,1.86-0.01,2.79c-0.86,0.58-1.89,0.56-2.85,0.76c-2.57,0.53-5.14,1.02-7.66,1.78
		c-0.7,0.21-1.43,0.57-2.18,0.11c0.05-0.8-0.32-1.64,0.25-2.38c1.49-0.82,3.17-1.06,4.78-1.49c2.01-0.53,4.03-0.99,6.03-1.55
		C36.35,18.2,36.9,18.02,37.44,18.33z"/>
	<path class="st2" d="M18.24,43.44c-4.05,1.54-8.16,2.91-12.41,3.81c-1.69,0.36-1.8,0.24-1.65-1.51c0.02-0.19,0.12-0.37,0.18-0.56
		c0.11-0.12,0.23-0.24,0.39-0.26c3.28-0.42,6.4-1.49,9.57-2.36c0.27-0.07,0.54-0.11,0.82-0.1c0.78,0.12,1.56,0.27,2.33,0.44
		C17.78,42.96,18.22,42.92,18.24,43.44z"/>
	<path class="st7" d="M20.15,10.33c0.02,10.52,0.03,21.04,0.05,31.56c0,0.28,0,0.56,0,0.84c-0.47,0.25-0.75,0.2-0.73-0.42
		c0.17-5.08-0.13-10.17,0.09-15.26c0.07-1.71,0.06-3.45-0.04-5.18c-0.04-0.68-0.04-1.36-0.05-2.03c0-4.23-0.01-8.46,0.01-12.7
		c0-0.4-0.12-0.85,0.46-1.21c0,1.19,0.02,2.39-0.01,3.58C19.9,9.84,19.75,10.15,20.15,10.33z"/>
	<path class="st5" d="M37.44,18.33c-4.15,1.02-8.29,2.04-12.44,3.06c-0.11-0.62,0.6-0.25,0.69-0.65c-0.15-0.19-0.56,0.02-0.71-0.31
		c2.46-0.82,5.01-1.34,7.53-1.93c0.85-0.2,1.18-0.55,1.12-1.45c-0.08-1.11,0-2.23,0.02-3.35c0.27-0.44,0.21-0.92,0.22-1.4
		c0-2.23,0-4.47,0.01-6.7c0-0.43-0.1-0.89,0.24-1.26c0.18-0.08,0.36-0.15,0.54-0.23c0.22,4.3,0.14,8.59,0.15,12.89
		c0,1.24,0.66,0.75,1.25,0.52c0.22-0.15,0.45-0.22,0.67-0.01C37.27,17.49,37.54,17.74,37.44,18.33z"/>
	<path class="st8" d="M4.81,30.07C4.43,30.09,4.13,30,4.1,29.54c-0.17-0.96-0.22-1.92,0.02-2.87l-0.01,0.02
		c0.16-0.16,0.33-0.18,0.51-0.04c0.19,1.88,0.18,1.84,2.09,1.5c1.43-0.25,2.63-1.14,4.08-1.32c1.78-0.22,3.51-0.67,5.24-1.15
		c1.07-0.3,1.86-0.67,1.74-1.96c-0.02-0.16,0.08-0.31,0.16-0.44c0.3-0.3,0.63-0.5,1.07-0.29c0.39,1.14,0.45,2.27-0.05,3.4
		c-0.29,0.38-0.74,0.45-1.16,0.58c-3.76,1.1-7.53,2.15-11.34,3.03C5.91,30.12,5.37,30.37,4.81,30.07z"/>
	<path class="st2" d="M24.55,41.22c-0.16-1.16,0.38-1.66,1.49-1.93c1.89-0.45,3.73-1.09,5.61-1.63c1.06-0.3,1.96-1.07,3.11-1.12
		c0.79,0.45,1.58,0.9,2.51,1.44c-2.08,0.54-4.06,1.05-6.03,1.58c-1.89,0.51-3.77,1.04-5.65,1.56C25.24,41.2,24.92,41.42,24.55,41.22
		z"/>
	<path class="st5" d="M23.82,38.66c-0.03-9.76-0.07-19.52-0.1-29.28c0-1.27,0-2.54,0-3.81c0.1,0,0.2,0,0.3,0c0,3.82,0,7.64,0,11.47
		c0.08,0,0.16,0,0.24,0c0-3.9,0-7.8,0-11.85c0.38,0.44,0.24,0.79,0.24,1.11c0.01,4.28,0.14,8.56-0.05,12.83
		c-0.09,2.05-0.11,4.13-0.05,6.14c0.12,4.15-0.02,8.3,0.09,12.44C24.5,38.13,24.76,38.86,23.82,38.66z"/>
	<path class="st7" d="M15.11,42.7c-2.96,0.73-5.85,1.76-8.86,2.32c-0.63,0.12-1.25,0.21-1.89,0.16c-0.15-0.59,0.32-0.73,0.69-0.93
		c4.8-1.05,9.45-2.61,14.15-4.01c-0.01,0.37-0.54,0.64-0.21,1.07c0.02,0.56-0.47,0.57-0.8,0.69C17.19,42.36,16.18,42.66,15.11,42.7z
		"/>
	<path class="st7" d="M4.59,26.7c-0.16,0-0.31-0.01-0.47-0.01c0.15-0.31,0.3-0.62,0.46-0.94c4.7-1.23,9.41-2.46,14.11-3.69
		c0.18,0.28,0.47,0.53,0.31,0.93c-0.33,0.11-0.66,0.22-0.99,0.34c-0.3,0.36-0.71,0.49-1.14,0.6c-3.38,0.94-6.8,1.75-10.2,2.64
		C6,26.75,5.3,27.1,4.59,26.7z"/>
	<path class="st7" d="M4.81,30.07c4.71-1.23,9.42-2.45,14.13-3.68c0.28,0.41-0.08,0.83,0.03,1.24c-4.17,0.66-8.14,2.13-12.26,2.97
		c-0.78,0.16-1.56,0.31-2.34,0.46C4.25,30.62,4.47,30.32,4.81,30.07z"/>
	<path class="st9" d="M34.82,27.62c0-1.07,0.07-2.15,0-3.21c-0.06-0.9,0.24-1.32,1.15-1.4c0.5-0.04,0.99-0.25,1.49-0.38
		c0.01,1.18,0.02,2.36,0.02,3.54c-0.28,0.4-0.19,0.89-0.35,1.33c-0.41,0.9-0.87,1.77-1.29,2.66c-0.16,0.34-0.34,0.87-0.93,0.45
		C34.63,29.62,34.63,28.62,34.82,27.62z"/>
	<path class="st10" d="M35.05,30.74c0.91-0.98,1.09-2.36,1.89-3.4c0.47,0.22,0.38,0.65,0.39,1.03c0.04,2.34-0.08,4.69,0.06,7.03
		c0.03,0.5-0.19,0.74-0.65,0.82c-0.54-0.34-1.08-0.67-1.62-1.01C34.57,33.73,34.74,32.24,35.05,30.74z"/>
	<path class="st11" d="M30.32,4.58c-0.9,0.54-1.72,1.21-2.67,1.7c-1.09,0.55-1.57,1.61-1.53,2.85c-0.13-1.07-1-0.01-1.35-0.47
		c0-1.11-0.37-2.44,0.11-3.26c0.53-0.91,2.02-0.47,3.08-0.63C28.74,4.65,29.53,4.64,30.32,4.58z"/>
	<path class="st12" d="M24.76,23.77c3.01-0.54,5.89-1.61,8.92-2.05c1.25-0.18,2.5-0.4,3.76-0.6c0.15,0.46-0.3,0.5-0.5,0.72
		c-3.2,0.42-6.28,1.41-9.41,2.12c-0.93,0.21-1.84,0.49-2.77,0.74C24.76,24.39,24.76,24.08,24.76,23.77z"/>
	<path class="st13" d="M34.1,4.34c0,2.7,0,5.4,0,8.1c0,0.47,0.09,0.98-0.45,1.25c-0.03-0.16-0.06-0.31-0.08-0.47
		c0.02-2.43,0.05-4.86,0.07-7.29c0.01-1.65,0-1.65-1.67-1.57c-0.16,0.01-0.32,0.01-0.48,0.02c-0.62-0.03-1.25-0.06-1.87-0.08
		C31.11,4.45,32.63,3.19,34.1,4.34z"/>
	<path class="st14" d="M15.11,42.7c1.23-0.64,2.67-0.68,3.88-1.39c0.55,1.36,0.39,1.81-0.75,2.13C17.2,43.19,16.15,42.94,15.11,42.7
		z"/>
	<path class="st15" d="M36.7,17.52c-0.22,0-0.45,0.01-0.67,0.01c0.34-1.4,0.44-2.88,1.42-4.06c0.01,0.99-0.04,1.98,0.05,2.97
		C37.55,17.1,37.21,17.34,36.7,17.52z"/>
	<path class="st16" d="M36.76,36.23c0.26-0.25,0.48-0.48,0.48-0.9c-0.02-2.4-0.01-4.8-0.03-7.19c0-0.26-0.17-0.52-0.26-0.78
		c0.06-0.44,0.15-0.87,0.52-1.18c0,3.49,0,6.98,0,10.5C37.16,36.73,37.02,36.37,36.76,36.23z"/>
	<path class="st17" d="M35.05,30.74c0.03,1.49,0.05,2.98,0.08,4.48c-0.55,0.39-0.47-0.13-0.56-0.4c0.01-2.03,0-4.05,0.02-6.08
		c0-0.38-0.13-0.81,0.23-1.12C34.9,28.66,34.81,29.71,35.05,30.74z"/>
	<path class="st18" d="M23.31,14.18c0-2.96-0.01-5.93-0.01-8.89c0.61,0.44,0.27,1.08,0.31,1.62c0.06,0.83,0.01,1.67,0.01,2.5
		c-0.04,1.6-0.08,3.2-0.12,4.8C23.42,14.28,23.36,14.27,23.31,14.18z"/>
	<path class="st19" d="M4.34,34.32c-0.46,1.26-0.1,2.57-0.21,3.86c-0.04,0.47-0.02,0.95-0.03,1.42c-0.34-1.92-0.46-3.85,0.05-5.76
		c0.06,0.17,0.12,0.33,0.18,0.5L4.34,34.32z"/>
	<path class="st20" d="M19.23,15.69c-0.22-0.37-0.49-0.73-0.66-1.12c-0.14-0.33-0.76-0.62-0.37-0.99c0.5-0.46,0.69,0.27,1.02,0.47
		C19.23,14.59,19.23,15.14,19.23,15.69z"/>
	<path class="st21" d="M18.05,6.05C18.01,6.2,18,6.38,17.92,6.5c-0.28,0.38-0.32,1.29-0.86,1.04c-0.57-0.27,0.13-0.86,0.23-1.32
		C17.51,6.05,17.77,6.01,18.05,6.05z"/>
	<path class="st22" d="M14.91,6.63c-0.05,0.28,0.44,0.69-0.13,0.84c-0.55,0.15-0.61-0.28-0.63-0.69
		C14.41,6.73,14.66,6.68,14.91,6.63z"/>
	<path class="st19" d="M4.2,31.24c0.01,0.56,0.27,1.13-0.05,1.68C3.74,32.34,3.66,31.78,4.2,31.24z"/>
	<path class="st7" d="M4.13,26.66c-0.01,0.96-0.02,1.92-0.02,2.87C3.73,28.58,3.69,27.62,4.13,26.66z"/>
	<path class="st4" d="M10.7,13.25c0.5,0.37,1.02,0.5,1.67,0.35c0.89-0.2,1.83-0.3,2.57,0.49c0.33,0.36,0.76,0.13,1.14,0.15
		c1.5,0.08,2.3,1.23,1.84,2.65c-0.75,2.29-2,3.21-4.51,3.3c-0.44,0.02-0.88,0.01-1.31-0.04c-0.73-0.09-1.33,0.01-1.71,0.75
		c-0.19,0.37-0.58,0.55-0.97,0.65c-1.46,0.4-2.92,0.34-4.38,0.04c-0.4-0.08-0.76-0.23-0.76-0.76c0.01-2.17,0.01-4.33-0.01-6.5
		c-0.01-0.59,0.22-0.82,0.79-0.95c1.66-0.37,3.34-0.08,5.01-0.2C10.29,13.05,10.51,13.01,10.7,13.25z"/>
	<path class="st23" d="M15.72,12.96c-1.51,0.03-2.17-0.58-2.41-2.21c-0.15-1.06,0.31-1.64,1.71-2.02c0.64-0.17,1.29-0.42,1.98-0.11
		c0.97,0.43,1.66,1.56,1.45,2.5C18.25,12.12,17.04,12.94,15.72,12.96z"/>
	<path class="st24" d="M10.57,8.2c0.49,0.01,0.96-0.02,1.3,0.27c0.21,0.17-0.09,0.41-0.2,0.59c-0.36,0.55-0.85,0.25-1.28,0.14
		c-0.44-0.11-1.2-0.13-1.11-0.63C9.37,8,10.14,8.28,10.57,8.2z"/>
	<path class="st25" d="M7.92,10.98c0.99-0.59,1.9-0.6,2.8-0.65c0.24-0.01,0.5-0.03,0.53,0.3c0.03,0.3-0.17,0.41-0.43,0.46
		C9.93,11.25,9.04,11.37,7.92,10.98z"/>
	<path class="st26" d="M10.7,13.25c-0.21-0.02-0.42-0.04-0.63-0.07c0.05-0.11,0.08-0.24,0.16-0.32c0.35-0.37,0.71-0.78,1.27-0.75
		c0.13,0.01,0.38,0.32,0.35,0.41C11.65,13.03,11.04,12.92,10.7,13.25z"/>
	<path class="st4" d="M4.33,34.34c1.95-1.27,4.1-0.53,6.16-0.54c0.51,0,1.07,0.13,1.62,0.1c0.83-0.04,1.7-0.15,2.32,0.64
		c0.16,0.21,0.39,0.26,0.64,0.24c0.89-0.05,1.63,0.19,1.77,1.19c0.16,1.11-0.18,2.06-1.22,2.61c-2.71,1.45-5.61,1.77-8.61,1.41
		c-2.72-0.33-2.72-0.35-2.72-3.15c0-0.84,0.03-1.68,0.04-2.52C4.34,34.32,4.33,34.34,4.33,34.34z"/>
	<path class="st27" d="M33.56,25.46c0,2.34,0.01,4.68,0.01,7.02c-0.53,0.24-1.18,0.16-1.46-0.18c-0.73-0.9-1.79-1.22-2.68-1.82
		c-0.91-0.62-0.98-1.99-0.11-2.69C30.58,26.76,31.93,25.83,33.56,25.46z"/>
	<path class="st28" d="M23.34,39.54c0-4.51,0-9.01,0-13.52c0.04,0,0.08,0,0.12,0c0,4.52,0,9.05,0,13.57
		C23.42,39.57,23.38,39.55,23.34,39.54z"/>
	<path class="st29" d="M23.31,14.18c0.07,0,0.13,0.01,0.19,0.03c0,3.34,0,6.67,0,10.01c-0.06,0-0.13,0-0.19,0
		C23.31,20.87,23.31,17.53,23.31,14.18z"/>
	<path class="st30" d="M4.59,26.7c4.47-1.12,8.95-2.25,13.42-3.37c0.01,0.36-0.02,0.72,0.02,1.07c0.09,0.77-0.21,1.14-0.99,1.32
		c-1.8,0.43-3.54,1.13-5.42,1.27c-2.04,0.15-3.74,1.44-5.79,1.65c-1.64,0.17-1.71,0.22-1.49-1.41C4.37,27.04,4.5,26.87,4.59,26.7z"
		/>
</g>
</svg>
