<?xml version="1.0" encoding="utf-8"?>
<!-- Generator: Adobe Illustrator 23.0.2, SVG Export Plug-In . SVG Version: 6.00 Build 0)  -->
<svg version="1.1" id="Camada_1" xmlns="http://www.w3.org/2000/svg" xmlns:xlink="http://www.w3.org/1999/xlink" x="0px" y="0px"
	 viewBox="0 0 47.04 47.28" style="enable-background:new 0 0 47.04 47.28;" xml:space="preserve">
<style type="text/css">
	.st0{fill:#855F29;}
	.st1{fill:#ECC768;}
	.st2{fill:#7B5929;}
	.st3{fill:#FDF8BB;}
	.st4{fill:#986D2C;}
	.st5{fill:#AC7B2E;}
	.st6{fill:#89632B;}
	.st7{fill:#A8782E;}
	.st8{fill:#B58431;}
	.st9{fill:#976C2C;}
	.st10{fill:#FDF69D;}
	.st11{fill:#FDF6A7;}
	.st12{fill:#E8BF65;}
	.st13{fill:#D19D35;}
	.st14{fill:#66431D;}
	.st15{fill:#69451C;}
	.st16{fill:#FBF298;}
	.st17{fill:#FBF7A4;}
	.st18{fill:#FAEA80;}
	.st19{fill:#EDE390;}
	.st20{fill:#E7B93E;}
	.st21{fill:#7C5728;}
	.st22{fill:#EDCB6C;}
	.st23{fill:#F2D673;}
	.st24{fill:#A8732F;}
	.st25{fill:#ECC96A;}
	.st26{fill:#865926;}
	.st27{fill:#B79753;}
	.st28{fill:#D19935;}
	.st29{fill:#6C4B23;}
	.st30{fill:#714E24;}
	.st31{fill:#875C29;}
	.st32{fill:#715125;}
	.st33{fill:#6F4C22;}
	.st34{fill:#6D4E25;}
	.st35{fill:#E1AA38;}
</style>
<g>
	<path d="M1.73,23.99C1.8,18.04,3.07,12.67,7.2,8.33c2.13-2.24,4.61-4.06,7.16-5.78c0.3-0.2,0.58-0.41,0.87-0.62
		c0.8-0.57,1.64-0.69,2.37,0.05c0.67,0.69,0.62,1.44,0.08,2.27c-1.78,2.79-3.32,5.73-4.13,8.96c-1.15,4.57,0.32,8.5,3.32,11.94
		c3.46,3.97,7.75,6.35,13.11,6.42c5.04,0.07,9.02-2.18,12.31-5.84c0.21-0.24,0.4-0.5,0.65-0.7c1-0.83,2.13-0.54,2.51,0.7
		c1.04,3.34,0.44,6.57-1.01,9.62c-2.41,5.04-6.15,8.58-11.78,9.76c-1.52,0.32-3.07,0.57-4.62,0.62c-1.59,0.05-3.16,0.27-4.76,0.25
		c-3.32-0.04-6.51-0.69-9.37-2.34c-2.79-1.62-5.37-3.63-7.49-6.1C3.06,33.61,1.87,28.9,1.73,23.99z"/>
	<path class="st0" d="M17.59,27.8c1.95,1.37,3.82,2.85,6.08,3.74c6.8,2.69,13.75,1.02,18.93-4.38c0.45-0.47,0.81-1.46,1.45-1.23
		c0.71,0.26,0.66,1.28,0.68,2.02c0.09,3.32-0.64,6.41-2.66,9.12c-0.21,0.28-0.36,0.63-0.73,0.75c-0.34-0.66,0.14-1.14,0.38-1.65
		c1.04-2.27,1.69-4.62,1.71-7.13c-0.02-0.51,0.09-1.01,0.12-1.6c-2.52,3.07-5.62,5.16-9.39,6.13c-3.99,1.03-7.91,0.64-11.68-1.01
		c-1.68-0.74-3.29-1.62-4.71-2.8c-1.05-0.98-2.26-1.81-2.93-3.14c0.12-0.54,0.43-0.34,0.7-0.17c0.4,0.26,0.69,0.65,1.05,0.96
		C16.87,27.68,17.11,28.09,17.59,27.8z"/>
	<path class="st1" d="M43.77,28.97c0,2.85-0.81,5.48-2.06,8c-0.14,0.28-0.24,0.58-0.36,0.87c-0.23,0.33-0.46,0.66-0.68,0.99
		c-0.3,0.35-0.59,0.71-1.04,0.89c-0.44,0.11-0.88,0.32-1.35,0.14c-0.41-0.5-0.01-0.89,0.2-1.29c0.24-0.45,0.55-0.86,0.68-1.33
		c-0.39,0.14-0.66,0.94-1.22,0.19c0.32-0.89,1.28-1.25,1.68-2.07c0.22-0.47,0.61-0.97-0.24-1.42c-0.03-0.03-0.05,0.11-0.02,0.12
		c0.84,0.35,0.44,0.87,0.18,1.38c-0.28,0.3-0.44,0.72-0.88,0.85c-1.47-0.19-2.13-1.09-1.86-2.53c0.22-0.52,0.69-0.75,1.15-1
		c1.75-0.96,3.52-1.91,4.91-3.39C43.08,29.11,43.34,28.79,43.77,28.97z"/>
	<path class="st2" d="M39.68,39.5c0.33-0.23,0.66-0.46,0.98-0.69c-0.78,1.83-2.48,2.64-4.04,3.54c-2.57,1.49-5.44,1.98-8.36,2.18
		c-2.03,0.14-4.08,0.26-6.08,0.18c-3.36-0.14-6.66-0.97-9.35-3.18c-1.38-1.13-2.97-2.02-4.14-3.42c-0.01-0.57-0.23-1.02-0.64-1.43
		c-0.27-0.28-0.81-0.67-0.08-1.08c1.07,0.54,1.65,1.57,2.43,2.4c2.81,2.75,6.16,4.51,9.96,5.42c0.79,0.19,1.59,0.08,2.39,0.09
		c3.89,0.54,7.69,0.09,11.45-0.94c1.56-0.43,2.94-1.21,4.2-2.2C38.82,40.06,39.25,39.79,39.68,39.5z"/>
	<path class="st3" d="M16.2,4.01c0.01,0.41-0.32,0.61-0.52,0.89c-0.61,0.98-1.33,1.88-2.04,2.78c-1.27,1.63-2.15,3.42-2.49,5.47
		c-0.31,1.86-0.64,3.71-0.27,5.6c-0.12,0.73-0.49,0.9-0.81,0.18c-0.32-0.72-0.9-1.2-1.31-1.83c-0.43-2.81,0.01-5.51,1.08-8.12
		c0.32-0.94,1.08-1.49,1.8-2.09c1.04-0.87,2.08-1.73,3.2-2.49C15.23,4.13,15.61,3.62,16.2,4.01z"/>
	<path class="st4" d="M10.66,18.83c-0.45-2-0.2-3.97,0.25-5.93c0.72,0.23,0.51,0.82,0.43,1.28c-0.15,0.95-0.16,1.91-0.12,2.86
		c0.03,0.66,0.19,1.27,0.87,1.57c0.96,3.58,2.94,6.56,5.49,9.19c-0.11,0.77-0.39,0.55-0.84,0.21c-0.61-0.47-0.86-1.39-1.8-1.44
		c-0.44,0.09-0.63-0.25-0.86-0.51c-1.48-1.74-2.51-3.72-3.3-5.85C10.62,19.74,10.87,19.27,10.66,18.83z"/>
	<path class="st5" d="M12.1,18.61c-0.81,0.47-0.97-0.19-1.08-0.7c-0.25-1.17-0.21-2.37-0.03-3.55c0.08-0.51,0.29-1-0.08-1.47
		c0.59-3.26,2.48-5.74,4.77-7.99c-0.44,1.53-1.33,2.87-1.96,4.32c-0.79,1.8-1.42,3.63-1.66,5.58c-0.18,1.03-0.13,2.07-0.03,3.11
		C12.05,18.14,12.08,18.38,12.1,18.61z"/>
	<path class="st6" d="M7.97,35.68C7.63,36.47,8.43,36.64,8.76,37c0.45,0.48,0.35,0.77-0.06,1.13c-2.41-2.17-3.99-4.83-4.79-7.97
		c-0.21-0.81-0.43-1.62-0.65-2.42c0.53-1.27,0.22-2.6,0.31-3.91c0.04-0.57-0.13-1.21,0.56-1.68c0.71,1.22,0.11,2.56,0.47,3.76
		c0.14,0.5,0.07,1.04,0.24,1.54c0.43,2.62,1.15,5.12,2.81,7.27C7.86,34.99,8.16,35.27,7.97,35.68z"/>
	<path class="st7" d="M11.83,7.08c-0.56,0.56-1.12,1.13-1.68,1.69C9.46,10,8.32,10.89,7.67,12.14c-0.92,1.76-1.84,3.52-2.26,5.48
		c-0.05,0.23-0.13,0.46-0.36,0.58c-0.65,0.08-0.26,0.67-0.46,0.98c-0.23,0.37-0.34,0.92-0.89,0.76c-0.59-0.17-0.37-0.67-0.26-1.09
		c0.38-2.7,1.23-5.21,2.87-7.42c1.07-0.38,1.58-1.39,2.34-2.13c0.74-0.72,1.43-1.48,2.2-2.16C11.11,6.92,11.45,6.43,11.83,7.08z"/>
	<path class="st8" d="M11.83,7.08c-0.23-0.25-0.43-0.12-0.6,0.06c-1.1,1.18-2.4,2.17-3.33,3.51c-0.39,0.56-0.87,0.91-1.59,0.78
		c0.79-1.51,2.06-2.6,3.29-3.73c1.89-1.73,3.94-3.25,6.15-4.55c0.25-0.15,0.57-0.81,0.95-0.24c0.33,0.49,0.05,0.89-0.49,1.1
		C14.49,4.67,13.3,6.08,11.83,7.08z"/>
	<path class="st9" d="M3.43,18.86c0.09,0.31-0.17,0.82,0.32,0.9c0.51,0.08,0.43-0.48,0.56-0.76c0.16-0.35,0.21-0.76,0.31-1.14
		c0.05-0.17,0.12-0.35,0.24-0.04c0.04,0.11,0.02,0.24,0.03,0.35c0.31,0.44,0.18,0.93,0.1,1.38c-0.28,1.76-0.22,3.53-0.24,5.31
		c-0.07,0.43,0.03,0.91-0.4,1.23c-0.48-1.16,0.03-2.41-0.43-3.58c0,1.18-0.01,2.37,0,3.55c0.01,0.66-0.07,1.27-0.67,1.69
		C2.89,24.77,2.75,21.81,3.43,18.86z"/>
	<path class="st4" d="M12.03,17.91c-0.31-1.04-0.34-2.07,0.03-3.11C12.05,15.84,12.04,16.87,12.03,17.91z"/>
	<path class="st10" d="M43.77,28.97c-1.89,2.09-4.46,3.22-6.74,4.77c-1.5,1.56-3.45,1.96-5.5,2.13c-0.89-0.24-1.77-0.52-2.7-0.16
		c-3.69,0.15-7.1-0.84-10.29-2.63c-0.65-0.37-1.3-0.8-1.54-1.59c0.11-0.73-0.17-1.63,0.83-2c3.65,2.69,7.64,4.43,12.26,4.33
		c5.58-0.12,10.02-2.49,13.4-6.91c0.07-0.09,0.14-0.17,0.31-0.36C43.97,27.44,43.85,28.2,43.77,28.97z"/>
	<path class="st11" d="M17.83,29.49c-0.66,0.46-0.25,1.33-0.71,1.87c-0.09-0.07-0.15-0.16-0.2-0.27c-0.11-0.28,0.04-0.6-0.16-1
		c0.14,0.36,0.06,0.57-0.1,0.76c-1.25-0.22-1.97-1.12-2.66-2.06c-0.11-0.19-0.28-0.32-0.45-0.44c-0.92-0.85-1.58-1.89-2.24-2.94
		c-0.39-1.1-1.22-1.92-1.77-2.92c-0.43-0.8-0.7-1.67-0.87-2.57c-0.06-0.53-0.03-1.05-0.06-1.58c0.02-0.42,0-0.85,0.35-1.16
		c0.68,0.29,1.25,0.67,1.27,1.52c0,0.06,0.08,0.87,0.43,0.11c0.91,2.87,2.15,5.56,4.29,7.75C15.74,27.72,16.86,28.53,17.83,29.49z"
		/>
	<path class="st12" d="M17.06,31.1c0.02,0.09,0.04,0.18,0.06,0.26c1.51,2.02,3.83,2.59,6.04,3.3c1.85,0.6,3.78,0.85,5.73,0.79
		c0.51,0.08,1.03-0.06,1.54,0.01c0.82,0.12,1.22,0.54,1.37,1.44c0.39-0.5-0.53-0.75-0.24-1.24c1.98-0.2,3.77-0.94,5.48-1.92
		c-0.23,1.2,0.24,1.9,1.65,2.42c-0.43,1.13-1.08,1.36-2.08,0.71c0.28,0.72,1.02,0.1,1.4,0.51c0.87,0.42,0.9-0.84,1.64-0.78
		c-0.08,1.24-1.2,2.01-1.4,3.18c-0.16,0.72-0.83,0.68-1.32,0.81c-4.65,1.26-9.36,1.29-14.08,0.46c-0.63-0.11-1.24-0.27-1.87-0.37
		c-1.59-0.67-3.35-1-4.61-2.31c-0.18-0.14-0.38-0.24-0.59-0.34c-1.36-0.82-2.62-1.79-3.86-2.79c-0.35-0.28-0.65-0.59-0.72-1.06
		c-0.2-1.76-0.05-1.93,1.73-1.94c0.96-0.01,1.92-0.03,2.87,0.16c0.43,0.09,0.97,0.18,0.77-0.6c-0.06-0.25-0.03-0.47,0.16-0.66
		C16.82,31.07,16.93,31.05,17.06,31.1z"/>
	<path class="st13" d="M20.73,40.46c0.56-0.34,1.08,0.02,1.6,0.12c5.37,1.02,10.69,1.05,15.91-0.8c0.48-0.09,0.96-0.18,1.44-0.27
		c-1.35,1.82-3.26,2.78-5.35,3.38c-3.83,1.1-7.73,1.51-11.7,0.94c-4.13-0.74-7.71-2.64-10.98-5.18c-0.38-0.29-0.81-0.51-1.16-0.84
		c-0.77-0.88-1.68-1.66-2.25-2.71c-0.2-0.36-0.56-0.7-0.22-1.17c0.9-0.2,1.86,0.24,2.73-0.26c0.36,0.03,0.54,0.24,0.61,0.57
		c1.31,1.49,3.03,2.45,4.59,3.62c0.15,0.48-0.04,1.05,0.37,1.47c0.16,0.21,0.37,0.34,0.62,0.42c1.13,0.44,2.18,1.18,3.5,0.8
		C20.53,40.52,20.63,40.48,20.73,40.46z"/>
	<path class="st14" d="M38,37.38c-0.2,0.01-0.4,0.03-0.6,0.02c-0.39-0.01-0.87,0.1-1.02-0.39c-0.13-0.42,0.13-0.75,0.49-1.01
		c0.43,0.31-0.49,0.89,0.18,1.05c0.75,0.18,1.28-0.23,1.63-0.89c0.25-0.24,0.5-0.48,0.75-0.72c0.09-0.08,0.19-0.08,0.27,0.01
		C39.36,36.29,38.71,36.86,38,37.38z"/>
	<path class="st15" d="M39.7,35.45c-0.09,0-0.18-0.01-0.27-0.01c0.52-1.06,0.2-1.48-1.12-1.23c0.55-0.56,1.17-0.73,1.59-0.35
		C40.43,34.33,40.07,34.94,39.7,35.45z"/>
	<path class="st16" d="M10.65,37.6c2.14,1.51,4.22,3.1,6.63,4.21c1.74,0.8,3.59,1.28,5.34,2.01c-5.01-0.05-8.99-2.33-12.44-5.75
		C10.07,37.64,10.03,37.3,10.65,37.6z"/>
	<path class="st17" d="M10.65,37.6c-0.43-0.12-0.29,0.34-0.47,0.47c-0.74-0.8-1.48-1.59-2.21-2.39c-1.92-2.37-3.04-5.06-3.37-8.09
		c-0.06-0.37-0.23-0.75,0.13-1.07c0.53,0.13,0.53,0.64,0.67,1.02c0.42,1.15,0.75,2.32,1.28,3.43c-0.25,1.3,0.77,2.07,1.29,3.05
		C8.5,35.48,9.75,36.41,10.65,37.6z"/>
	<path class="st18" d="M8.97,17.2c-0.01,0.42-0.02,0.84-0.03,1.26c-0.02,0.03-0.05,0.07-0.06,0.1c-0.21,0.53,0.11,1.41-0.88,1.42
		c-0.49,0-0.65-0.42-0.71-1.54c-0.14,0.49,0.23,1,0.08,1.55c-0.22,0.24-0.44,0.26-0.68,0.03c-0.5-2.17-0.32-4.32,0.28-6.43
		c0.16-0.56,0.31-1.14,0.56-1.67c0.67-1.21,1.54-2.27,2.62-3.15c-0.13,1.23-0.78,2.32-0.97,3.54C8.93,13.94,8.96,15.57,8.97,17.2z"
		/>
	<path class="st19" d="M4.84,26.57c-0.32,0.29-0.14,0.69-0.24,1.02c-0.32-0.46-0.13-1.01-0.25-1.51c0.01-0.41,0.02-0.81,0.04-1.22
		c0.47-0.04,0.46,0.35,0.56,0.63C4.97,25.86,5.19,26.24,4.84,26.57z"/>
	<path class="st20" d="M4.67,25.61c-0.05-0.26-0.02-0.56-0.28-0.74c-0.04-2.24-0.03-4.49,0.5-6.69c0.6-2.21,1.34-4.35,2.64-6.26
		c-0.53,2.7-0.92,5.4-0.72,8.16c0.51,0.94,0.44,1.97,0.45,2.99c-0.33,0.68-0.48,1.44-0.97,2.04C5.86,25.62,5.41,26.1,4.67,25.61z"/>
	<path class="st21" d="M31.55,35.66c0.76,1.14,0.71,1.43-0.44,2.17c0.02-0.58,0.93-0.89,0.45-1.55c-0.46-0.63-1.14-0.63-1.83-0.66
		c-0.28-0.02-0.64,0.25-0.84-0.17C29.82,34.93,30.69,35.24,31.55,35.66z"/>
	<path class="st22" d="M11.35,34.25c-0.16-0.17-0.33-0.33-0.49-0.5c-0.2-1.34-0.89-2.41-1.83-3.35c-0.35-1.18-1.04-2.27-0.95-3.57
		c0.39-0.91,1-1.43,2.04-1.16c0.56,0.15,0.94-0.42,1.47-0.31c0.69,1.02,1.35,2.05,2.23,2.91c0.37,0.68,0.12,1.59,0.8,2.15
		c0.5,0.65,1.35,0.7,1.97,1.14c0.29,0.3,0.79,0.64,0.59,1.04c-0.21,0.41-0.83,0.25-1.21,0.16c-1.14-0.28-2.29-0.15-3.43-0.22
		c-1.02-0.06-1.46,0.24-1.04,1.29C11.58,34.02,11.48,34.14,11.35,34.25z"/>
	<path class="st23" d="M11.59,25.37C11.08,26,10.5,26.25,9.67,25.9c-0.82-0.35-0.9,0.7-1.45,0.91c-1.02-1-1.31-2.23-1.19-3.6
		c-0.08-1.04-0.36-2.07-0.23-3.12c0.21,0,0.39-0.06,0.49-0.26c0.53,0.18,1.07,0.3,1.64,0.22C9.29,22.08,10.86,23.51,11.59,25.37z"/>
	<path class="st24" d="M8.93,20.04c-0.63,0.56-1.14,0.22-1.64-0.22c-0.38-1.2-0.35-1.93,0.23-2.93c0,0.74,0.01,1.31,0,1.88
		c-0.01,0.47,0.09,0.96,0.59,1.02c0.59,0.07,0.4-0.55,0.54-0.87c0.08-0.18,0.07-0.39,0.29-0.47C8.93,18.98,8.93,19.51,8.93,20.04z"
		/>
	<path class="st25" d="M14.24,28.49c0.34,1.22,1.63,1.52,2.34,2.38c0.03,0.05,0.07,0.11,0.1,0.16c-1.03,0.73-1.6-0.18-2.3-0.64
		C14.11,29.78,13.35,29.2,14.24,28.49z"/>
	<path class="st26" d="M14.24,28.49c-0.64,0.71,0.05,1.22,0.29,1.8c0.07,0.14,0.06,0.26-0.05,0.38c-0.83-0.62-0.82-1.48-0.66-2.38
		C14.01,28.25,14.27,28.08,14.24,28.49z"/>
	<path class="st27" d="M17.06,31.1c-0.06,0.01-0.11,0.02-0.17,0.03c-0.1-0.04-0.17-0.12-0.2-0.23c0,0-0.11-0.03-0.11-0.03
		c0.24-0.52-0.07-0.93-0.29-1.37C17.1,29.78,17.24,30.36,17.06,31.1z"/>
	<path class="st28" d="M20.73,40.46c-0.01,0.09-0.01,0.19-0.02,0.28c-0.93,0.24-1.75-0.13-2.6-0.4c-0.46-0.15-0.87-0.57-1.42-0.35
		c-0.25-0.05-0.41-0.21-0.53-0.42c0.05-0.51-0.61-1.15,0.28-1.49c0.86,0.79,1.82,1.38,2.96,1.7C19.87,39.91,20.45,39.92,20.73,40.46
		z"/>
	<path class="st29" d="M20.81,39.86c-0.89-1.25-2.33-1.41-3.64-1.81C18.84,37.7,20.08,38.32,20.81,39.86z"/>
	<path class="st30" d="M29.85,38.45c-0.77,0.14-1.7,0.39-2.07-0.52c-0.28-0.69-0.13-1.5,0.81-2.06c-0.19,0.71-0.63,1.28-0.41,1.87
		C28.46,38.48,29.28,38.16,29.85,38.45z"/>
	<path class="st31" d="M16.69,30.9c0.07,0.08,0.13,0.15,0.2,0.23c-0.1,0.15-0.2,0.3-0.3,0.44c-0.85,0.04-1.57-0.24-2.12-0.91
		c0.02-0.13,0.04-0.25,0.05-0.38C15.19,30.7,15.75,31.48,16.69,30.9z"/>
	<path class="st32" d="M16.44,38.07c-0.67,0.39,0.26,1.08-0.28,1.49c-0.47-0.52-0.68-1.06-0.22-1.7
		C16.14,37.86,16.33,37.87,16.44,38.07z"/>
	<path class="st33" d="M9.21,30.4c1.25,0.77,1.95,1.81,1.65,3.35c-0.87,1.04-1.9,0.39-2.88,0.27c-0.97-0.7-1.85-1.45-1.4-2.84
		c0.65-0.14,0.53,0.42,0.66,0.74c0.4,0.95,1.16,1.4,2.12,1.51c0.76,0.08,1.03-0.35,0.68-1.04c-0.28-0.54-0.66-0.98-1.27-1.2
		c-0.27-0.1-0.71-0.19-0.46-0.64C8.52,30.17,8.86,30.11,9.21,30.4z"/>
	<path class="st34" d="M16.69,39.98c0.64-0.43,1.18,0.05,1.74,0.22c0.75,0.23,1.48,0.53,2.28,0.54c-0.9,0.56-1.75,0.17-2.59-0.15
		C17.63,40.41,17.16,40.19,16.69,39.98z"/>
	<path class="st35" d="M9.21,30.4c-0.29,0.04-0.64-0.07-0.9,0.38c1.09,0.03,1.57,0.76,2.08,1.51c0.26,0.39,0.23,0.73,0.07,1.11
		c-0.18,0.42-0.56,0.38-0.91,0.37c-1.4-0.02-2.33-0.84-2.65-2.3c-0.03-0.12-0.21-0.2-0.32-0.29c-0.96-1.39-1.26-3.03-1.73-4.6
		c-0.06-0.32-0.11-0.64-0.17-0.96c1.15,0.14,1.49-0.75,1.85-1.53c0.14-0.32,0.12-0.71,0.52-0.87c0.4,1.2,0.79,2.4,1.19,3.6
		C8.55,28,8.88,29.2,9.21,30.4z"/>
</g>
</svg>
