<?xml version="1.0" encoding="utf-8"?>
<!-- Generator: Adobe Illustrator 23.0.2, SVG Export Plug-In . SVG Version: 6.00 Build 0)  -->
<svg version="1.1" id="Camada_1" xmlns="http://www.w3.org/2000/svg" xmlns:xlink="http://www.w3.org/1999/xlink" x="0px" y="0px"
	 viewBox="0 0 46.57 46.94" style="enable-background:new 0 0 46.57 46.94;" xml:space="preserve">
<style type="text/css">
	.st0{fill:#FEFEFE;}
	.st1{fill:#E9C066;}
	.st2{fill:#7F5C29;}
	.st3{fill:#855F29;}
	.st4{fill:#FDF7BB;}
	.st5{fill:#B07F2E;}
	.st6{fill:#AA792E;}
	.st7{fill:#9C702D;}
	.st8{fill:#956A2C;}
	.st9{fill:#D19D35;}
	.st10{fill:#FDF59D;}
	.st11{fill:#EFCF6F;}
	.st12{fill:#FDF6A8;}
	.st13{fill:#D39A35;}
	.st14{fill:#734F23;}
	.st15{fill:#7C5728;}
	.st16{fill:#735025;}
	.st17{fill:#6C4B23;}
	.st18{fill:#875C29;}
	.st19{fill:#725126;}
	.st20{fill:#B79753;}
	.st21{fill:#FBF49E;}
	.st22{fill:#FAE980;}
	.st23{fill:#E7BA3E;}
	.st24{fill:#6E4A22;}
	.st25{fill:#E1AA39;}
	.st26{fill:#865926;}
	.st27{fill:#A8732F;}
	.st28{fill:#ECCA6A;}
</style>
<g>
	<path class="st0" d="M22.48,46.91c-4.5-0.47-8.88-1.28-12.46-4.45c-1.7-1.5-3.65-2.72-5.11-4.51C1.05,33.2-0.27,27.68,0.04,21.72
		C0.29,16.98,1.5,12.5,4.5,8.67c2.37-3.03,5.47-5.23,8.58-7.4c0.33-0.23,0.65-0.46,0.97-0.69c1.2-0.85,2.92-0.76,3.85,0.2
		c1.01,1.04,1.05,2.55,0.21,3.84c-1.7,2.62-3.14,5.4-3.91,8.42c-1.25,4.91,0.73,8.83,4.14,12.19c3.48,3.43,7.67,5.21,12.57,4.8
		c3.58-0.3,6.6-1.99,9.14-4.52c0.57-0.56,1.03-1.24,1.64-1.74c1.62-1.35,3.81-0.73,4.37,1.28c1.27,4.57,0.1,8.69-2.28,12.66
		c-3.76,6.28-9.6,8.58-16.5,8.9C25.68,46.69,24.1,47.05,22.48,46.91z"/>
	<path d="M22.63,45.7c-4.32-0.35-8.47-1.16-11.88-4.18c-1.64-1.45-3.52-2.62-4.93-4.35c-3.73-4.59-4.89-9.92-4.55-15.66
		c0.28-4.68,1.54-9.03,4.65-12.67c2.25-2.64,5.04-4.65,7.87-6.59c0.33-0.22,0.64-0.47,0.97-0.69c0.78-0.52,1.59-0.61,2.28,0.08
		c0.68,0.68,0.66,1.43,0.13,2.27c-1.84,2.94-3.45,5.99-4.22,9.42c-0.83,3.67,0.06,6.98,2.2,9.96c3.69,5.16,8.65,8.15,15.1,7.98
		c4.65-0.13,8.44-2.34,11.49-5.81c0.24-0.27,0.46-0.57,0.73-0.79c0.96-0.76,2.07-0.45,2.44,0.71c1.07,3.39,0.45,6.65-1.03,9.73
		c-2.42,5.04-6.21,8.53-11.82,9.72c-1.56,0.33-3.14,0.63-4.74,0.6C25.74,45.4,24.22,45.84,22.63,45.7z"/>
	<path class="st1" d="M40.77,37.48c-0.22,0.34-0.44,0.68-0.66,1.02c-0.34,0.39-0.67,0.79-1.18,0.98c-5.6,2.03-11.32,2.26-17.13,1.14
		c-0.47-0.09-0.94-0.19-1.41-0.27c-1.57-0.67-3.33-0.99-4.59-2.3c-0.18-0.14-0.38-0.24-0.59-0.34c-1.43-0.87-2.76-1.89-4.05-2.95
		c-0.37-0.3-0.72-0.64-0.73-1.18c0.05-0.63,0.11-1.25-0.06-1.88c-0.25-0.95-0.03-1.29,0.92-1.42c0.48-0.06,0.94,0.02,1.41,0.12
		c0.42,0.08,0.84,0.26,1.27,0.08c0.8-0.13,1.5,0.79,2.34,0.22c0.12-0.01,0.23,0.01,0.34,0.07c0.1,0.07,0.18,0.16,0.26,0.25
		c0.82,0.97,1.9,1.55,3.04,2.05c2.63,1.15,5.39,1.67,8.23,1.82c0.53,0.18,1.09,0.16,1.64,0.2c0.93,0.08,1.33,0.67,1.48,1.42
		c0.28-0.43-0.52-0.7-0.41-1.2c0.13-0.22,0.33-0.39,0.56-0.4c2.72-0.18,4.77-1.86,7.01-3.1c1.36-0.75,2.66-1.58,3.75-2.72
		c0.27-0.28,0.57-0.73,1.09-0.38c0.43,0.9,0.1,1.8-0.05,2.68C42.9,33.6,42.16,35.68,40.77,37.48z"/>
	<path class="st2" d="M39.12,39.18c0.33-0.23,0.66-0.46,0.99-0.69c-0.84,1.89-2.62,2.72-4.27,3.66c-2.3,1.32-4.86,1.78-7.45,2.02
		c-2.34,0.22-4.72,0.29-7.05,0.22c-2.65-0.08-5.36-0.7-7.62-2.22c-2.81-1.89-5.63-3.81-7.65-6.63c-1.33-1.86-2.48-3.81-2.76-6.15
		c0.24-0.84-0.07-1.65-0.17-2.47c-0.15-1.24-0.12-2.47-0.11-3.7c0.01-0.39,0.02-0.81,0.55-1.16c0.69,1.19,0.15,2.51,0.44,3.69
		c0.34,1.84,0.52,3.73,1.34,5.45c3.16,6.59,8.2,10.76,15.52,11.97c0.43,0.07,0.88,0.02,1.32,0.02c3.85,0.54,7.61,0.09,11.34-0.9
		C35.66,41.73,37.37,40.42,39.12,39.18z"/>
	<path class="st3" d="M40.77,37.48c1.22-2.37,2.12-4.85,2.42-7.53c0.05-0.43,0.02-0.87,0.03-1.31c-0.46-0.41-0.19-0.95-0.25-1.5
		c-2.48,3.04-5.57,5.11-9.3,6.09c-4,1.05-7.93,0.66-11.72-0.99c-1.69-0.74-3.3-1.63-4.73-2.81c-1.05-0.98-2.27-1.8-2.93-3.15
		c0.3-0.65,0.63-0.23,0.9,0c0.66,0.57,1.23,1.26,1.89,1.83c0.46,0.4,0.89,0.96,1.64,0.77c0.53,0,0.84,0.41,1.24,0.66
		c7.25,4.52,14.85,3.77,21.31-1.85c0.57-0.49,1.04-1.1,1.52-1.69c0.67-0.82,0.99-0.56,1.21,0.32c0.46,1.88,0.14,3.73-0.24,5.57
		C43.31,34.05,42.38,35.95,40.77,37.48z"/>
	<path class="st4" d="M15.85,3.64c-0.24,0.31-0.48,0.63-0.72,0.94c-0.59,0.94-1.28,1.81-1.97,2.68c-1.33,1.68-2.24,3.54-2.6,5.66
		c-0.2,0.53-0.13,1.1-0.27,1.64c-0.23,0.95-0.09,1.91-0.11,2.87c-0.01,0.38,0.17,0.74,0.13,1.13c-0.24,0.77-0.59,0.55-0.77,0.02
		c-0.24-0.76-0.71-1.3-1.3-1.78c-0.51-2.81-0.01-5.5,1.04-8.11c0.39-1.12,1.38-1.7,2.21-2.43c1.02-0.9,2.1-1.71,3.22-2.46
		C15.01,3.59,15.39,3,15.85,3.64z"/>
	<path class="st5" d="M15.85,3.64c-0.13-0.19-0.26-0.1-0.39-0.01c-2.1,1.43-4.15,2.92-5.87,4.82c-0.65,1.22-1.75,2.1-2.44,3.28
		c-0.55,0.94-0.87,2.02-1.66,2.82C5.01,14.8,5,15.35,4.69,15.7c-0.36,0.42-0.61,1.05-1.35,0.88c-0.02,0-0.03-0.06-0.03-0.09
		c0-0.04,0.03-0.07,0.05-0.11c0.7-3.22,2.41-5.88,4.73-8.15c2.15-2.1,4.53-3.93,7.13-5.44c0.25-0.14,0.49-0.7,0.88-0.28
		C16.51,2.95,16.16,3.32,15.85,3.64z"/>
	<path class="st6" d="M10.32,12.8c0.53-3.37,2.47-5.91,4.8-8.21c-0.43,1.5-1.26,2.81-1.92,4.2c-1.58,3.35-2.17,6.8-1.42,10.45
		c0.15,0.32,0.1,0.56-0.29,0.58c-0.43,0.02-0.8-0.17-0.94-0.58c-0.26-0.78-0.41-1.59-0.48-2.43C9.97,15.45,10.34,14.14,10.32,12.8z"
		/>
	<path class="st7" d="M3.36,16.38c0.86-0.09,1.11-0.79,1.42-1.43c0.11-0.22,0-0.72,0.53-0.45c0.35,0.78-0.09,1.48-0.29,2.17
		c-0.74,2.67-0.91,5.38-0.84,8.12c-0.03,0.43,0.03,0.89-0.37,1.2c-0.52-1.16,0.02-2.42-0.37-3.85c-0.18,2.3-0.07,4.34,0.26,6.37
		c0.07,0.44,0.19,0.78-0.4,0.87c-1.15-2.78-0.92-5.69-0.78-8.57C2.6,19.31,2.8,17.81,3.36,16.38z"/>
	<path class="st8" d="M10.32,12.8c0.4,0.37,0.2,0.78,0.13,1.21c-0.27,1.65-0.2,3.3,0.3,4.9c0.23,0.74,0.44,0.78,1.04,0.33
		c1.07,3.11,2.91,5.75,5.12,8.14c0.53,0.57,1.2,1.02,1.81,1.52c-0.24,0.48-0.51,0.42-0.93,0.15c-0.97-0.63-1.65-1.56-2.51-2.29
		c-0.25-0.21-0.33-0.79-0.87-0.51c-0.45,0.09-0.64-0.25-0.86-0.52c-1.47-1.72-2.49-3.69-3.28-5.79c-0.18-0.47,0.07-0.95-0.18-1.38
		c0.11-0.36-0.39-0.62-0.15-0.99c0.14-1.05-0.1-2.11,0.13-3.15C10.09,13.87,9.95,13.29,10.32,12.8z"/>
	<path class="st9" d="M39.12,39.18c-1.3,1.81-3.23,2.74-5.25,3.34c-3.85,1.15-7.8,1.55-11.82,0.97c-5.16-0.99-9.5-3.51-13.2-7.18
		c-0.72-0.71-1.63-1.44-1.44-2.69c0.9-0.24,1.88,0.22,2.76-0.27c0.21,0.01,0.32,0.13,0.37,0.33c1.35,1.61,3.18,2.62,4.83,3.85
		c0.15,0.51-0.06,1.15,0.54,1.5c0.13,0.09,0.25,0.19,0.38,0.28c1.11,0.6,2.21,1.27,3.56,0.92c0.1-0.04,0.2-0.08,0.3-0.11
		c0.38-0.29,0.76-0.06,1.13,0.02c5.7,1.25,11.33,1.04,16.9-0.75C38.5,39.31,38.82,39.25,39.12,39.18z"/>
	<path class="st10" d="M17.28,29.16c3.65,2.69,7.64,4.44,12.27,4.33c5.58-0.13,10.02-2.49,13.4-6.91c0.07-0.09,0.14-0.16,0.31-0.36
		c0.16,0.89,0.04,1.66-0.03,2.42c-2.17,2.29-5.01,3.59-7.62,5.23c-1.41,0.88-3,1.17-4.6,1.46c-0.88-0.14-1.76-0.29-2.66-0.21
		c-3.72,0.01-7.2-0.87-10.41-2.79c-0.55-0.33-1.02-0.74-1.36-1.3C16.76,30.39,16.02,29.4,17.28,29.16z"/>
	<path class="st11" d="M10.56,33.69c-0.08-0.09-0.17-0.17-0.25-0.26c-0.23-1.33-0.88-2.44-1.85-3.37c-0.93-2.48-1.66-5.03-2.31-7.6
		c-0.09-0.51-0.27-1.02,0.01-1.53c0.7-0.56,1.49-0.76,2.37-0.61c0.9,0.82,1.22,2.02,1.84,3.01c0.97,1.54,2,3.05,3,4.57
		c0.21,0.74,0.04,1.6,0.65,2.23c0.1,0.15,0.15,0.31,0.15,0.49c-0.25,0.5-0.62,0.3-1.02,0.22c-0.58-0.12-1.15-0.38-1.76-0.27
		c-0.61,0.11-1.23,0.09-0.7,1.08C10.98,32.22,11.02,33.03,10.56,33.69z"/>
	<path class="st12" d="M13.26,27.96c-1.95-2.24-3.46-4.75-4.63-7.47c-0.23-0.24-0.44-0.5-0.49-0.84c-0.08-0.53-0.04-1.07-0.07-1.61
		c0.02-0.42,0-0.84,0.35-1.16c1.34-0.04,1.11,1.13,1.44,1.87c0.01,0.03,0.04,0.05,0.06,0.07c0.05-0.08,0.11-0.16,0.16-0.24
		c0.96,2.83,2.19,5.51,4.32,7.68c0.78,1.14,1.9,1.95,2.88,2.91c-0.82,0.4-0.17,1.37-0.71,1.88c-0.02-0.09-0.04-0.18-0.06-0.26
		c-0.09-0.12-0.14-0.26-0.17-0.41c-0.01-0.09,0.04-0.19-0.04-0.27c0,0.11-0.02,0.22-0.06,0.33c-0.05,0.1-0.13,0.17-0.24,0.2
		c-1.03-0.49-1.93-1.13-2.51-2.15C13.45,28.29,13.41,28.1,13.26,27.96z"/>
	<path class="st13" d="M16.05,39.43c-0.08-0.02-0.14-0.07-0.19-0.13c-0.28-0.52-0.86-1.05,0.03-1.55c0.86,0.79,1.82,1.38,2.96,1.7
		c0.47,0.14,1.05,0.15,1.33,0.68c0,0.09-0.01,0.19-0.01,0.28C18.64,40.73,17.4,39.85,16.05,39.43z"/>
	<path class="st14" d="M37.49,34.8c-0.35,0.43-0.71,0.85-1.06,1.28c-0.13,0.16-0.25,0.38-0.1,0.54c0.12,0.11,0.36,0.14,0.55,0.13
		c0.71-0.04,2.29-1.69,2.28-2.41c-0.01-1.17-0.91-0.23-1.37-0.55c0.5-0.53,1.11-0.59,1.59-0.23c0.44,0.33,0.2,0.91-0.04,1.32
		c-0.6,1.02-1.14,2.16-2.58,2.21c-0.34,0.01-0.76,0.09-0.94-0.34c-0.16-0.39,0.07-0.71,0.32-0.97c0.38-0.39,0.8-0.75,1.2-1.13
		C37.4,34.7,37.45,34.75,37.49,34.8z"/>
	<path class="st15" d="M28.34,35.12c0.93-0.52,1.8-0.2,2.66,0.21c0.76,1.14,0.71,1.43-0.45,2.18c0.02-0.58,0.93-0.89,0.45-1.55
		c-0.46-0.63-1.15-0.63-1.83-0.67C28.89,35.28,28.54,35.55,28.34,35.12z"/>
	<path class="st16" d="M28.12,35.49c-0.89,2.01-0.8,2.17,1.37,2.65c-0.95,0.17-1.84,0.35-2.24-0.47
		C26.91,36.96,27.06,36.12,28.12,35.49z"/>
	<path class="st17" d="M16.66,37.67c1.57-0.13,2.9,0.26,3.66,1.83C19.35,38.37,17.99,38.06,16.66,37.67z"/>
	<path class="st18" d="M14.16,30.61c-0.08-0.09-0.16-0.18-0.24-0.27c-0.06-0.06-0.09-0.12-0.08-0.19c0.01-0.07,0.03-0.1,0.05-0.1
		c0.82-0.23,1.38,0.7,2.19,0.5l0.03,0.03c0.21-0.06,0.33-0.02,0.23,0.23C15.52,31.76,14.87,30.85,14.16,30.61z"/>
	<path class="st19" d="M15.89,37.75c-0.58,0.5,0.04,1.03-0.03,1.55c-0.79-0.42-0.93-1-0.47-1.76
		C15.59,37.53,15.78,37.54,15.89,37.75z"/>
	<path class="st20" d="M16.34,30.81c-0.08-0.08-0.16-0.16-0.23-0.23c0.06-0.46-0.06-0.9-0.4-1.5c0.9,0.49,0.95,1.06,0.8,1.7
		C16.45,30.78,16.39,30.79,16.34,30.81z"/>
	<path class="st21" d="M7.43,33.69c1.48,3.02,4.15,4.8,6.86,6.48c2.11,1.3,4.38,2.31,6.8,2.9c0.34,0.08,0.65,0.28,0.97,0.42
		c-4.03,0.03-7.48-1.58-10.53-4.01C7.19,36.05,4.18,31.75,3.81,26c0.01-0.41,0.02-0.82,0.03-1.23c0.12-0.06,0.23-0.05,0.34,0.05
		c0.64,1.94,1.05,3.97,1.95,5.82C5.88,31.94,6.9,32.71,7.43,33.69z"/>
	<path class="st22" d="M8.42,16.87c-0.01,0.42-0.02,0.84-0.03,1.26c-0.11,0.13-0.07,0.3-0.11,0.45c-0.13,0.46-0.04,1.16-0.8,1.08
		c-0.66-0.07-0.68-0.67-0.74-1.18c-0.02-0.16-0.01-0.32,0-0.47c0,1.63,0.2,1.83,1.65,1.71c0.08,0.26,0.17,0.51,0.25,0.77
		c-0.83-0.06-1.57,0.33-2.37,0.46c-0.38-0.32-0.37-0.77-0.38-1.2c-0.07-2.77-0.12-5.54,1.09-8.14c0.67-1.22,1.55-2.26,2.61-3.15
		c-0.14,1.23-0.78,2.31-0.97,3.54C8.37,13.62,8.41,15.24,8.42,16.87z"/>
	<path class="st6" d="M10.07,14.43c-0.04,1.05,0.21,2.11-0.14,3.15C9.9,16.52,9.73,15.46,10.07,14.43z"/>
	<path class="st23" d="M6.98,11.6c-0.7,3.08-0.88,6.2-0.71,9.35c-0.13,0.51,0.17,0.97,0.2,1.47c-0.33,0.66-0.39,1.44-0.87,2.03
		c-0.41,0.5-0.84,1.01-1.53,0.36c-0.08,0-0.15-0.01-0.23-0.03C3.62,21.25,4.2,17.84,5.31,14.5C5.86,13.53,6.42,12.57,6.98,11.6z"/>
	<path class="st24" d="M7.43,33.69c-0.97-0.7-1.85-1.45-1.4-2.85c0.64-0.13,0.53,0.42,0.66,0.74c0.36,0.9,1.1,1.31,1.99,1.5
		c0.31,0.07,0.65,0.06,0.87-0.23c0.26-0.34,0.11-0.68-0.08-0.99C9.19,31.4,8.8,31.1,8.3,30.89c-0.27-0.11-0.73-0.16-0.59-0.58
		c0.15-0.45,0.53-0.55,0.94-0.24c1.25,0.77,1.93,1.83,1.65,3.35C9.43,34.46,8.4,33.81,7.43,33.69z"/>
	<path class="st19" d="M16.05,39.43c1.44,0.05,2.66,0.99,4.11,0.98C18.54,41.12,17.32,40.19,16.05,39.43z"/>
	<path class="st25" d="M8.66,30.07C8.38,30.14,8,29.96,7.8,30.46c0.98,0.1,1.68,0.61,2.09,1.47c0.44,0.91-0.01,1.57-1.01,1.51
		c-1.39-0.08-2.23-0.86-2.54-2.3c-0.03-0.12-0.21-0.2-0.32-0.3c-1.13-1.86-1.65-3.92-1.95-6.04c0.93,0.3,1.28-0.34,1.58-1
		c0.23-0.49,0.24-1.1,0.81-1.39c0.51,2.13,1.14,4.21,1.85,6.28C8.46,29.14,8.54,29.61,8.66,30.07z"/>
	<path class="st26" d="M13.99,29.97c-0.02,0.12-0.05,0.25-0.07,0.37c-0.83-0.63-0.83-1.48-0.65-2.38c0.19-0.04,0.45-0.2,0.43,0.21
		C13.29,28.85,14.27,29.3,13.99,29.97z"/>
	<path class="st27" d="M8.38,19.72c-1.07,0.63-1.53,0.44-1.83-0.73c-0.17-0.67-0.06-1.54,0.41-2.51c0,0.83,0.01,1.39,0,1.95
		c-0.01,0.47,0.07,0.97,0.58,1.04c0.61,0.08,0.41-0.55,0.55-0.86c0.08-0.18,0.07-0.39,0.29-0.47C8.38,18.66,8.38,19.19,8.38,19.72z"
		/>
	<path class="st28" d="M13.99,29.97c-0.25-0.58-0.95-1.08-0.3-1.8c0.38,1.22,1.62,1.56,2.39,2.38
		C15.15,31.19,14.63,30.34,13.99,29.97z"/>
</g>
</svg>
