<?xml version="1.0" encoding="utf-8"?>
<!-- Generator: Adobe Illustrator 23.0.2, SVG Export Plug-In . SVG Version: 6.00 Build 0)  -->
<svg version="1.1" id="Camada_1" xmlns="http://www.w3.org/2000/svg" xmlns:xlink="http://www.w3.org/1999/xlink" x="0px" y="0px"
	 viewBox="0 0 31.12 31.76" style="enable-background:new 0 0 31.12 31.76;" xml:space="preserve">
<style type="text/css">
	.st0{fill:#FEFEFE;}
	.st1{fill:#010101;}
	.st2{fill:#BE2D3C;}
	.st3{fill:#6D2126;}
	.st4{fill:#882824;}
	.st5{fill:#131213;}
	.st6{fill:#B1482F;}
	.st7{fill:#D49194;}
	.st8{fill:#9B2D1A;}
	.st9{fill:#818181;}
	.st10{fill:#DBCEE3;}
	.st11{fill:#D38C89;}
	.st12{fill:#CE9FB6;}
	.st13{fill:#DED4E9;}
	.st14{fill:#B15F76;}
	.st15{fill:#CC5D58;}
	.st16{fill:#C37792;}
	.st17{fill:#FDFBFB;}
	.st18{fill:#F7EDF0;}
	.st19{fill:#C75755;}
	.st20{fill:#E8C098;}
	.st21{fill:#995E9C;}
	.st22{fill:#EFD6B2;}
	.st23{fill:#962E22;}
	.st24{fill:#B8A5CA;}
	.st25{fill:#A492C0;}
	.st26{fill:#FAF7F9;}
	.st27{fill:#F8F3CE;}
	.st28{fill:#4D4D4D;}
	.st29{fill:#626262;}
	.st30{fill:#DACBE2;}
	.st31{fill:#FBFAF9;}
	.st32{fill:#C04E33;}
	.st33{fill:#D5D1E8;}
</style>
<g>
	<path class="st0" d="M31.08,10.52c0.22,1.44-0.38,2.49-1.57,3.52c-4.54,3.9-8.97,7.92-13.42,11.93c-1.06,0.96-2.31,1.57-3.59,2.11
		c-2.71,1.16-5.47,2.16-8.17,3.35c-2.04,0.9-3.91-0.13-4.3-2.17c-0.08-0.39,0.01-0.72,0.1-1.04c0.68-2.29,1.51-4.52,2.42-6.74
		c2.24-5.44,6.31-9.54,10-13.91c1.62-1.92,3.38-3.72,5.06-5.59c0.59-0.66,1.3-1.07,2.16-1.17c1.42-0.18,2.83-0.29,4.22-0.73
		c0.75-0.24,1.5,0.14,2.01,0.77c1.08,1.35,2.32,2.52,3.66,3.6c0.49,0.4,0.87,0.9,0.9,1.5C30.62,7.46,31.25,8.9,31.08,10.52z"/>
	<path class="st1" d="M29.9,10.59c0.23,1.01-0.31,1.79-1.26,2.61c-4.5,3.9-8.92,7.88-13.35,11.86c-1.31,1.17-2.88,1.85-4.48,2.43
		c-2.24,0.82-4.42,1.76-6.6,2.72c-0.83,0.37-1.66,0.62-2.44-0.09c-0.75-0.67-0.53-1.42-0.3-2.29C3.24,21.16,6.92,15.6,11.5,10.57
		c2.04-2.24,4.08-4.5,6.04-6.81c1.01-1.19,2.1-2.04,3.76-1.9c0.47,0.04,1.03,0.03,1.41-0.2c1.73-1.01,2.59,0.12,3.5,1.28
		C26.43,3.21,26.7,3.48,27,3.67C29.51,5.24,29.85,7.73,29.9,10.59z"/>
	<path class="st2" d="M28.25,7.47c0.31,1.25,0.25,2.52,0.18,3.78c-0.06,1.07-1.12,1.47-1.79,2.09c-0.37,0.34-0.78,0.64-1.14,1.01
		c-1.57,1.1-2.92,2.45-4.38,3.68c-2.37,2-4.69,4.07-6.95,6.2c-0.62,0.58-1,0.46-1.28-0.37c-0.11-0.34-0.21-0.69-0.11-1.06
		c2.83-2.75,5.6-5.57,8.39-8.36c0.93-0.93,2.01-1.7,2.94-2.63c0.31-0.3,0.68-0.56,1.14-0.61c0.29,0.05,0.5,0.25,0.75,0.38
		c0.07,0.04,0.14,0.08,0.21,0.1c0.31,0.09,0.54,0.26,0.66,0.57c0.27-0.56,1.01-0.79,1.03-1.53c0.03-0.75,0-1.5,0-2.25
		C27.92,8.11,27.89,7.72,28.25,7.47z"/>
	<path class="st3" d="M12.89,22.79c0.57,2.32,0.55,1.84,1.99,0.54c3.32-3,6.71-5.93,10.07-8.89c0.18-0.15,0.35-0.16,0.54-0.08
		c-2.26,2.4-4.96,4.31-7.37,6.54c-0.87,0.81-1.83,1.53-2.67,2.37c-0.91,0.91-1.87,1.72-3.08,2.19c-0.18-0.04-0.3-0.15-0.32-0.34
		c0.55-0.78,0.31-1.57,0.01-2.36c-0.55-0.99-1.52-1.6-2.22-2.45c-0.13-0.19-0.25-0.39-0.15-0.64c0.1-0.07,0.2-0.1,0.32-0.1
		c0.68,0.15,1.02,0.75,1.51,1.14c0.57,0.45,0.99,0.48,1.52-0.12c3.43-3.96,7.52-7.27,11.14-11.04c0.24-0.25,0.51-0.53,0.93-0.44
		c0.24,0.2,0.35,0.46,0.36,0.76c-0.09,0.6-0.56,0.95-0.96,1.32c-3.5,3.3-6.93,6.66-10.31,10.08C13.73,21.73,13.26,22.22,12.89,22.79
		z"/>
	<path class="st4" d="M10,19.67c-0.11,0.01-0.22,0.02-0.33,0.03c-0.08,0.06-0.17,0.07-0.27,0.04c-0.13-0.06-0.26-0.13-0.38-0.21
		c-0.24-0.15-0.61-0.2-0.57-0.61c0.07-0.15,0.17-0.27,0.3-0.38c0.81-0.49,1.34-1.27,1.86-2.01c1.81-2.56,4.23-4.56,6.28-6.9
		c1.52-1.74,3.14-3.39,4.65-5.15c0.5-0.57,1.11-1.03,1.59-1.62C23.57,2.66,24,2.4,24.4,2.91c-1.02,1.3-2.28,2.42-3.03,3.92
		c-0.17,0.57-0.62,0.91-1.02,1.3c-3.33,3.25-6.55,6.61-9.62,10.11c-0.29,0.33-0.59,0.66-0.62,1.13C10.11,19.48,10.07,19.58,10,19.67
		z"/>
	<path class="st5" d="M12.13,25.15c0.08,0.1,0.16,0.2,0.24,0.3c-1.22,0.93-2.72,1.17-4.12,1.67c-1.66,0.59-3.23,1.45-4.84,2.2
		c-0.29,0.14-0.58,0.31-0.88,0.05c-0.28-0.24-0.35-0.52-0.04-0.8c0.79,0.25,1.43-0.19,2.11-0.47c0.41-0.15,0.77-0.41,1.18-0.55
		c1.98-0.96,2-1.28,0.24-2.76c-0.34-0.2-0.67-0.45-1.11-0.4C4.3,24.84,4.3,25.63,3.9,26.2c-0.25,0.36-0.28,0.93-0.89,0.97
		c0.18-1.22,0.49-2.39,1.19-3.42c0.38-0.32,0.83-0.29,1.28-0.27c0.37,0.03,0.72,0.14,1.05,0.32c0.15,0.09,0.29,0.2,0.42,0.32
		c0.43,0.44,0.9,0.84,1.26,1.35c0.28,0.75,0.73,0.75,1.41,0.45C10.43,25.58,11.11,24.76,12.13,25.15z"/>
	<path class="st6" d="M8.54,19.01c0.23,0.14,0.46,0.27,0.68,0.41c-0.1,0.17-0.26,0.25-0.45,0.29c-1.5-0.19-2.34,0.56-2.81,1.91
		C5.83,22,5.72,22.47,5.24,22.63c-0.29-0.07-0.4-0.25-0.35-0.54c0.93-2.99,3.04-5.22,4.9-7.61c0.88-1.13,1.73-2.28,2.8-3.25
		c0.22,0.12,0.31,0.32,0.35,0.55c-0.09,0.74-0.79,1.05-1.14,1.6c-1.39,1.73-2.81,3.44-4.28,5.24C7.85,18.82,8.34,18.62,8.54,19.01z"
		/>
	<path class="st7" d="M25.22,4.09c1.09,0.33,1.65,1.32,2.47,1.98c0.1,0.24-0.03,0.43-0.16,0.61C27,7.24,26.47,7.8,25.9,8.32
		c-0.14,0.1-0.29,0.18-0.48,0.15c-0.65-0.88-0.88-1.93-1.21-2.94c0.1-0.17,0.15-0.35,0.06-0.55C24.34,4.43,24.76,4.24,25.22,4.09z"
		/>
	<path class="st8" d="M12.78,11.76c-0.06-0.18-0.13-0.35-0.19-0.53c2.05-2.71,4.48-5.07,6.69-7.64c0.35-0.4,0.77-0.54,1.28-0.44
		c-0.32,0.81-0.95,1.37-1.53,1.98c-0.19,0.18-0.37,0.37-0.53,0.58c-0.52,0.82-1.29,1.43-1.93,2.16c-0.85,1.17-1.96,2.1-2.82,3.25
		C13.51,11.43,13.23,11.75,12.78,11.76z"/>
	<path class="st9" d="M4.66,28.31c-0.72,0.14-1.3,1.38-2.16,0.26c0.17-0.47,0.35-0.94,0.52-1.4c0.49-0.77,0.91-1.56,1.21-2.43
		C4.33,24.41,4.39,24,4.9,24.07c0.06,0.05,0.15,0.13,0.13,0.19C4.64,25.58,4.78,26.96,4.66,28.31z"/>
	<path class="st10" d="M18.83,5.04c0.57-0.64,0.96-1.43,1.72-1.89c0.86-0.1,1.72-0.19,2.58-0.29c-0.11,0.88-0.92,1.21-1.39,1.81
		c-0.66-0.37-1.23-0.02-1.82,0.22c-0.35,0.15-0.63,0.53-1.08,0.35c-0.02-0.01-0.04-0.06-0.04-0.09C18.81,5.12,18.82,5.08,18.83,5.04
		z"/>
	<path class="st11" d="M21.31,6.72c-0.26-0.08-0.29-0.24-0.13-0.43c0.89-1.1,1.79-2.19,2.68-3.28c0.15-0.18,0.34-0.16,0.54-0.11
		c0.09,0.19,0.32,0.33,0.21,0.58c-0.14,0.5-0.48,0.86-0.83,1.22C22.92,5.34,22.47,6.46,21.31,6.72z"/>
	<path class="st12" d="M28.25,7.47c-0.03,0.39-0.07,0.78-0.1,1.17c-0.64,1.09-0.96,1.17-1.98,0.54c-0.02-0.11-0.01-0.23,0.02-0.34
		c0.5-0.6,0.87-1.32,1.56-1.76c0.18-0.04,0.34-0.01,0.47,0.13C28.22,7.3,28.23,7.39,28.25,7.47z"/>
	<path class="st13" d="M23.64,4.55c0.32-0.35,0.64-0.71,0.96-1.06c0.34,0.07,0.51,0.29,0.61,0.6c-0.29,0.31-0.59,0.63-0.88,0.94
		C23.82,5.28,23.61,5.09,23.64,4.55z"/>
	<path class="st4" d="M4.89,22.09c0.09,0.14,0.19,0.27,0.28,0.41c0.24,0.27,0.2,0.68,0.47,0.94c0.06,0.1,0.05,0.19-0.02,0.28
		c-0.47,0.01-0.94,0.02-1.41,0.03C4.22,23.1,4.53,22.58,4.89,22.09z"/>
	<path class="st14" d="M28.21,7.21c-0.16,0-0.32-0.01-0.47-0.01c-0.35-0.14-0.5-0.36-0.26-0.71c0.07-0.14,0.14-0.28,0.21-0.42
		C28.33,6.24,28.32,6.7,28.21,7.21z"/>
	<path class="st15" d="M12.89,22.79c-0.21-0.64,0.3-0.94,0.64-1.29c3.26-3.31,6.6-6.55,9.99-9.73c0.64-0.6,1.21-1.26,1.81-1.89
		c0.08-0.09,0.18-0.12,0.29-0.08c0.15,0.09,0.26,0.21,0.31,0.38c0.04,0.5-0.22,0.84-0.6,1.11c-2.03,1.41-3.76,3.15-5.5,4.88
		c-1.97,1.97-3.93,3.94-5.9,5.9C13.63,22.36,13.41,22.79,12.89,22.79z"/>
	<path class="st16" d="M25.92,10.11c-0.12-0.09-0.24-0.19-0.36-0.28c-0.05-0.52,0.2-0.74,0.7-0.72c0.8,0.52,1.36,0.09,1.89-0.47
		c0.02,0.28-0.01,0.57,0.06,0.83c0.41,1.82-0.74,2.71-2.14,3.55c0.58-0.62,0.47-1.02-0.26-1.25c0.09-0.14,0.23-0.21,0.38-0.27
		c0.46-0.19,0.92-0.45,0.83-1.01C26.9,9.83,26.23,10.41,25.92,10.11z"/>
	<path class="st17" d="M25.92,10.11c0.43-0.1,0.79-0.65,1.29-0.18c0.27,0.25,0.29,0.54,0.14,0.87c-0.3,0.66-0.71,1.16-1.55,0.98
		c-0.16-0.16-0.31-0.33-0.47-0.49C25.39,10.83,25.7,10.49,25.92,10.11z"/>
	<path class="st18" d="M24.74,12.21c0.28-0.01,0.46,0.13,0.47,0.33c0.02,0.32-0.19,0.53-0.52,0.52c-0.2-0.01-0.36-0.16-0.36-0.4
		C24.34,12.37,24.52,12.24,24.74,12.21z"/>
	<path class="st19" d="M24.36,5.28c0.39,1.03,0.78,2.07,1.18,3.1c0.18,0.46-0.09,0.61-0.47,0.71c-3.96,3.97-8.24,7.62-11.94,11.85
		c-0.59,0.67-1.02,0.72-1.63,0.1c-0.47-0.48-1-0.91-1.5-1.36c-0.02-0.07-0.05-0.14-0.06-0.22c0.1-0.41,0.41-0.68,0.69-0.96
		c4.18-4.18,8.36-8.37,12.55-12.54C23.5,5.64,23.78,5.18,24.36,5.28z"/>
	<path class="st20" d="M7.99,25.55c-0.38-0.43-0.76-0.86-1.13-1.29c0.54-1.42,1.53-2.55,2.39-3.77c0.16-0.23,0.44-0.33,0.73-0.32
		c0.79,0.79,1.81,1.37,2.34,2.41C11.02,23.79,9.63,24.85,7.99,25.55z"/>
	<path class="st21" d="M7.99,25.55c1.38-1.08,2.75-2.16,4.32-2.97c0.11,0.41,0.16,0.85,0.35,1.21c0.39,0.71,0,1.05-0.53,1.36
		c-0.88,0.15-1.64,0.62-2.38,1.05C8.8,26.75,8.2,26.78,7.99,25.55z"/>
	<path class="st22" d="M9.97,20.16c-0.99,0.82-1.49,2-2.25,3c-0.28,0.37-0.41,0.87-0.87,1.09c-0.09-0.07-0.19-0.15-0.28-0.22
		c-0.06-0.19-0.22-0.4-0.14-0.56c0.75-1.47,1.41-3.04,3.06-3.79c0.06,0,0.12,0.01,0.19,0.02C9.77,19.86,9.87,20.01,9.97,20.16z"/>
	<path class="st23" d="M25.07,9.09c0.16-0.24,0.31-0.47,0.47-0.71c0.08-0.07,0.17-0.15,0.25-0.22c0.58-0.02,0.59,0.35,0.51,0.77
		c-0.01,0.06-0.03,0.12-0.04,0.18c-0.23,0.24-0.46,0.48-0.7,0.72c-0.07,0.02-0.15,0.03-0.22,0.04C25.25,9.61,25.16,9.35,25.07,9.09z
		"/>
	<path class="st24" d="M18.83,5.04c0.72-0.06,1.22-0.63,1.89-0.82c0.5-0.14,0.93-0.27,1.02,0.46c-2.41,2.83-4.97,5.52-7.55,8.2
		c-1.5,1.56-2.9,3.19-4.23,4.89c-0.29,0.37-0.46,0.98-1.12,0.93c-0.17-0.87,0.53-1.29,0.95-1.86c1.87-1.83,3.02-4.18,4.55-6.26
		c0.68-0.93,1.45-1.79,2.13-2.71c0.5-0.88,1.64-1.26,1.87-2.36C18.51,5.36,18.67,5.2,18.83,5.04z"/>
	<path class="st25" d="M24.36,5.28c-0.62,0.33-1.01,0.89-1.49,1.37c-4.26,4.32-8.49,8.67-12.93,12.81c-0.51-0.64,0.19-0.9,0.45-1.21
		c2.96-3.44,6.08-6.73,9.32-9.91c0.54-0.53,1.07-1.07,1.6-1.61c0.78-0.73,1.55-1.45,2.33-2.18c0.12,0.32,0.34,0.5,0.69,0.49
		C24.48,5.1,24.53,5.18,24.36,5.28z"/>
	<path class="st26" d="M9.95,17.04c-0.44,0.51-0.84,1.04-1.1,1.66c-0.1,0.1-0.2,0.2-0.3,0.3c-0.51,0.03-1.01,0.06-1.83,0.11
		c1.75-2.08,3.35-3.99,4.95-5.89c0.67,0.29,0.22,0.7,0.08,1.02C11.31,15.28,10.47,16.06,9.95,17.04z"/>
	<path class="st27" d="M9.49,19.68c-1.2,0.89-1.72,2.33-2.74,3.36c-0.3,0.3,0.14,0.7-0.17,0.98c-0.32-0.11-0.63-0.21-0.95-0.32
		c0-0.05,0-0.1-0.01-0.14c0.54-1.75,1.55-3.14,3.14-4.08c0.16-0.03,0.31-0.05,0.47-0.08C9.31,19.5,9.4,19.59,9.49,19.68z"/>
	<path class="st28" d="M6.11,24.51c0.82,0.47,1.62,1.18,1.57,2.06c-0.04,0.78-1.17,0.86-1.82,1.24C4.75,26.54,4.85,25.18,6.11,24.51
		z"/>
	<path class="st29" d="M6.11,24.51c-1.1,1.02-0.69,2.16-0.25,3.3c-0.44,0.08-0.72,0.54-1.2,0.5c-0.59-1.45-0.26-2.85,0.23-4.24
		C5.37,24.02,5.73,24.29,6.11,24.51z"/>
	<path class="st30" d="M9.95,17.04c0.18-1.28,1.3-2.05,1.7-3.22c0.08-0.22,0.29-0.39,0.01-0.6c0.37-0.49,0.75-0.98,1.12-1.46
		c1.22-1.36,2.43-2.73,3.65-4.09c0.15,0.02,0.17,0.17,0.25,0.26c-2.26,2.6-3.83,5.69-5.98,8.38C10.48,16.59,10.31,16.91,9.95,17.04z
		"/>
	<path class="st31" d="M8.76,19.49c-1.24,1.21-2.22,2.63-3.15,4.08c-1.29,0.12-0.39-0.67-0.44-1.07c0.22-0.41,0.45-0.82,0.66-1.24
		C6.71,19.41,6.7,19.4,8.76,19.49z"/>
	<path class="st32" d="M26.3,8.93c-0.15-0.27-0.21-0.6-0.51-0.77c0.49-0.63,1.05-1.19,1.7-1.67c0.09,0.24,0.17,0.48,0.26,0.71
		C27.32,7.83,26.93,8.48,26.3,8.93z"/>
	<path class="st33" d="M16.68,7.93c-0.08-0.09-0.17-0.17-0.25-0.26c0.64-0.72,1.27-1.44,1.91-2.16c0.45,0.33,0.06,0.54-0.13,0.75
		C17.72,6.83,17.2,7.38,16.68,7.93z"/>
</g>
</svg>
