<?xml version="1.0" encoding="utf-8"?>
<!-- Generator: Adobe Illustrator 23.0.2, SVG Export Plug-In . SVG Version: 6.00 Build 0)  -->
<svg version="1.1" id="Camada_1" xmlns="http://www.w3.org/2000/svg" xmlns:xlink="http://www.w3.org/1999/xlink" x="0px" y="0px"
	 viewBox="0 0 38.11 40.65" style="enable-background:new 0 0 38.11 40.65;" xml:space="preserve">
<style type="text/css">
	.st0{fill:#FEFEFE;}
	.st1{fill:#D5D5D5;}
	.st2{fill:#134322;}
	.st3{fill:#0F3B1D;}
	.st4{fill:#2F2E2E;}
	.st5{fill:#8EC2D8;}
	.st6{fill:#80B9E0;}
	.st7{fill:#EDEFF0;}
	.st8{fill:#E6ECEF;}
	.st9{fill:#CED8E0;}
	.st10{fill:#9CA5AA;}
	.st11{fill:#74ADD4;}
	.st12{fill:#E4E6E7;}
	.st13{fill:#F2F5F7;}
	.st14{fill:#7BAB42;}
	.st15{fill:#38843E;}
	.st16{fill:#83AF41;}
	.st17{fill:#3A8A3F;}
	.st18{fill:#81AF42;}
	.st19{fill:#3B8C3F;}
	.st20{fill:#38893F;}
	.st21{fill:#398A3E;}
	.st22{fill:#86B042;}
	.st23{fill:#9DBD4F;}
	.st24{fill:#74AD40;}
	.st25{fill:#A5C056;}
	.st26{fill:#3B8D3F;}
	.st27{fill:#98B94D;}
	.st28{fill:#3E9540;}
	.st29{fill:#7BAF3E;}
	.st30{fill:#74AB3D;}
	.st31{fill:#DFE8D7;}
	.st32{fill:#DAE4D1;}
	.st33{fill:#E1EBDB;}
	.st34{fill:#E4EDD5;}
	.st35{fill:#41903F;}
	.st36{fill:#35853C;}
	.st37{fill:#80B142;}
	.st38{fill:#35843E;}
	.st39{fill:#1A502A;}
	.st40{fill:#82B042;}
	.st41{fill:#82B244;}
	.st42{fill:#ADBFA3;}
	.st43{fill:#54675D;}
	.st44{fill:#769593;}
	.st45{fill:#B3BCBB;}
	.st46{fill:#E7EAE9;}
	.st47{fill:#A1AFAD;}
	.st48{fill:#C8D0CF;}
	.st49{fill:#728D8B;}
	.st50{fill:#D6DBDB;}
	.st51{fill:#E8EAE8;}
	.st52{fill:#DFE2E2;}
	.st53{fill:#4888C1;}
	.st54{fill:#508CC5;}
	.st55{fill:#8FC2D8;}
	.st56{fill:#E7F1E4;}
	.st57{fill:#E4EEE2;}
	.st58{fill:#E8F0E2;}
	.st59{fill:#F8FAF3;}
	.st60{fill:#FAFBF5;}
</style>
<g>
	<path class="st0" d="M8.4,20.27c-1-1.15-1.67-2.43-3.19-3C3.71,16.72,3,15.02,3.32,13.41c0.11-0.56,0.04-0.87-0.47-1.25
		c-1.16-0.86-2.11-1.97-2.64-3.34C-0.49,7,0.6,5.08,2.63,4.47c0.44-0.13,0.83-0.13,0.91-0.83C3.82,1.26,4.99,0.07,6.9,0
		c1.68-0.06,2.97,1.15,3.51,3.32c0.09,0.38,0.14,0.77,0.2,1.16c2.99-0.5,4.51,0.8,4.5,3.81c0,1.66-0.36,3.26-1.05,4.75
		c-0.29,0.63-0.16,0.78,0.46,0.96c2,0.58,3.09,1.89,3.18,3.99c0.04,0.94,0.38,1.04,1.17,1.01c3.11-0.12,6.24-0.24,9.33,0.22
		c1.38,0.2,2.76,0.46,4.1,0.82c2.22,0.6,3.38,2.23,3.62,4.43c0.13,1.16,0.37,2.26,0.74,3.34c0.56,1.66,0.73,3.41,1.29,5.08
		c0.64,1.92-0.74,3.25-2.03,4.38c-1.98,1.72-4.53,2.19-6.99,2.57c-2.98,0.47-6,0.98-9.04,0.76c-3.69-0.26-7.41-0.39-11.04-1.25
		c-1.52-0.36-2.97-0.95-4.34-1.68c-1.89-1.01-2.49-3.08-2.33-5.2c0.18-2.43,1.04-4.7,1.22-7.11c0.18-2.48,1.91-3.83,4.03-4.74
		C7.72,20.49,8.01,20.41,8.4,20.27z"/>
	<path d="M9.75,6.99c0.73-1.23,1.63-1.73,2.72-1.41c1.21,0.37,1.47,1.37,1.44,2.47c-0.05,2.12-0.32,4.19-1.89,5.87
		c0.73,0.49,1.44,1.07,2.44,1.29c1.35,0.29,2.18,1.76,2.09,3.37c-0.06,1.19,0.35,1.63,1.56,1.61c3.39-0.05,6.79-0.26,10.17,0.23
		c1.22,0.18,2.43,0.45,3.62,0.74c1.61,0.39,2.58,1.5,2.78,3.08c0.16,1.33,0.36,2.65,0.82,3.9c0.58,1.57,0.47,3.3,1.26,4.8
		c0.28,0.53,0.17,1.03-0.11,1.58c-0.87,1.67-2.29,2.64-4.01,3.18c-2.01,0.63-4.05,1.2-6.18,1.26c-2.18,0.06-4.33,0.69-6.53,0.46
		c-3.84-0.4-7.72-0.37-11.49-1.42c-1.12-0.31-2.17-0.79-3.2-1.29c-1.67-0.81-2.18-2.51-1.77-4.35c0.29-1.26,0.23-2.6,0.58-3.89
		c0.3-1.08,0.51-2.19,0.63-3.33c0.23-2.16,2-3.03,3.83-3.64c1.33-0.44,1.64-1.02,0.74-2.09c-1.02-1.22-1.78-2.7-3.54-3.23
		c-1.2-0.36-1.7-1.97-1.05-3.12c0.46-0.81,0.16-1.06-0.47-1.42c-1.17-0.67-1.99-1.71-2.7-2.84C0.96,7.97,1.1,7.16,1.73,6.4
		C2.32,5.7,3.05,5.31,3.94,5.68c0.83,0.34,0.9-0.04,0.81-0.69C4.66,4.31,4.63,3.62,4.81,2.96C5.07,2.01,5.64,1.35,6.7,1.22
		c1.08-0.13,1.74,0.4,2.17,1.31c0.24,0.5,0.46,1.02,0.5,1.59c0.17,2.28,0.09,4.57-0.11,6.85C9.47,9.64,9.16,8.28,9.75,6.99z"/>
	<path class="st1" d="M9.75,6.99c-0.47,1.53-0.27,3.05,0.06,4.68c-0.57-0.25-0.74-0.85-1.2-0.87c1.23-2.16,0.62-4.47,0.76-6.67
		C9.92,5.02,9.31,6.07,9.75,6.99z"/>
	<path class="st2" d="M24.67,21.4c2.25-0.17,4.44,0.29,6.62,0.74c1.63,0.34,2.67,1.94,2.35,3.6c-0.06,0.32-0.14,0.61,0.03,0.92
		c0.76,1.36,0.97,2.89,1.27,4.39c0.09,0.43,0.15,0.85,0.32,1.26c0.58,1.41,0.26,2.31-1,3.26c-1.53,1.15-3.36,1.53-5.13,1.82
		c-2.7,0.45-5.46,0.8-8.18,0.73c-4.2-0.1-8.45-0.13-12.54-1.37C7.4,36.45,6.41,36,5.45,35.52c-0.89-0.45-1.25-1.64-0.82-2.74
		c0.23-0.59,0.34-1.09,0.15-1.71c-0.12-0.39-0.17-0.92,0.15-1.27c0.39-0.42,0.25-0.92,0.37-1.37c0.31-1.2,0.35-2.45,0.66-3.62
		c0.32-1.24,1.56-1.74,2.68-2.16c0.51-0.19,1.09-0.19,1.64-0.28c0.18,0.05,0.29,0.15,0.3,0.34c-0.31,0.55-0.95,0.45-1.41,0.69
		c-0.45,0.23-0.26,0.36,0.06,0.49c0.38,0.14,0.78,0.3,1.17,0.12c1.35-0.62,2.83-0.81,4.24-1.25c0.49,0.08,0.83,0.29,0.71,0.87
		c-1.12,0.78-2.49,0.52-3.55,0.91c0.56,0.12,1.38-0.03,1.92,0.68c0.03,0.13,0,0.25-0.09,0.35c-0.7,0.36-1.38-0.04-2.06-0.05
		c-1.28-0.34-2.61-0.56-3.8-1.17c-1.1,0.05-1.39,0.63-0.78,1.6c2.43,1.42,5.17,1.49,7.85,1.83c4.58,0.56,9.14,0.18,13.7-0.3
		c1.1-0.31,2.23-0.51,3.25-1.07c1.3-0.71,1.42-1.08,0.7-2.45c-1.32-1.12-2.95-1.27-4.57-1.48c-2.65-0.35-5.31-0.24-7.96-0.27
		c-0.53-0.01-1.13,0.15-1.55-0.39c0.23-0.52,0.69-0.27,1.05-0.28C21.18,21.46,22.93,21.38,24.67,21.4z"/>
	<path class="st3" d="M24.67,21.4c-0.76,0.48-1.61,0.15-2.41,0.23c-1.27,0.14-2.58-0.25-3.83,0.23c-0.25,0.17-0.49,0.34,0,0.52
		c1.79,0.24,3.58,0.03,5.36,0.12c0.8,0.04,1.58,0.11,2.3,0.51c-0.09,0.82-0.75,0.52-1.21,0.63c-1.6-0.02-3.19-0.04-4.82,0
		c0.07,0.35,0.27,0.43,0.41,0.56c0.2,0.13,0.39,0.27,0.58,0.4c0.88,0.76,1.93,0.88,3.02,0.76c0.9-0.1,1.81-0.18,2.7-0.34
		c0.19-0.05,0.38-0.08,0.57-0.1c0.64,0.02,1.31-0.44,1.93,0.09c0.03,0.15-0.02,0.28-0.12,0.38c-0.89,0.63-1.94,0.7-2.96,0.84
		c-3.1,0.43-6.2,0.37-9.29-0.06c-0.6-0.08-1.19-0.09-1.79-0.14c-0.56-0.05-1.13-0.09-1.49-0.61c0-0.06,0-0.13,0-0.19
		c0.11-0.15,0.26-0.22,0.43-0.26c0.65-0.1,1.3,0.01,1.95-0.07c0.16-0.02,0.22-0.12,0.07-0.07c-0.02-0.07-0.06-0.14-0.13-0.19
		c-0.3-0.3-0.71-0.54-0.65-1.06c-0.12-0.37-0.37-0.61-0.72-0.76c-0.11,0.08-0.22,0.09-0.34,0.04c-0.66-0.6-1.4-0.24-2.12-0.18
		c-0.53,0.05-1.07,0.35-1.57-0.1c-0.09-0.08-0.18-0.17-0.28-0.25c0.66-0.42,1.42-0.39,2.14-0.54c0.35-0.08,1.24,0.01,0.72-0.89
		c-0.23-0.26-0.52-0.46-0.68-0.78c-0.43-0.79-0.17-1.42,0.45-1.97c0.98-0.22,1.59,0.22,1.96,1.1c1.43,2.57,3.8,2.3,6.15,2.01
		C22.25,21.14,23.46,21.07,24.67,21.4z"/>
	<path class="st4" d="M12.67,20.2c0.32,0.14,0.48,0.38,0.47,0.73c-1.59,0.4-1.91,0.19-2.45-1.41c-0.18-0.54-0.44-1.08-0.95-1.46
		c-0.28-0.21-0.73-0.45-0.43-0.96c0.23-0.17,0.41-0.02,0.6,0.09c0.37,0.22,0.63,0.91,1.2,0.28c0.23-0.27,0.44-0.59,0.75-0.74
		c0.82-0.4-0.3-0.27-0.12-0.47c-0.89-0.79-1.93-1.38-2.83-2.16c-0.38-0.33-0.72-0.24-1.03,0.09c-0.09,0.12-0.18,0.24-0.22,0.38
		c0.07,0.67,0.7,0.9,1.04,1.36c0.26,0.35,0.8,0.55,0.61,1.14c-0.56-0.02-0.79-0.5-1.12-0.82c-0.46-0.44-0.88-0.82-1.58-0.96
		c-1.07-0.22-1.36-1.26-0.69-2.12c0.29-0.37,0.64-0.72,1.02-1c0.71-0.54,1.33-0.56,1.9,0.29c1.26,1.87,3.02,3.07,5.17,3.73
		c1.33,0.41,1.73,1.9,0.86,3.05c-0.61-0.39-1.07-1.07-1.92-1C12.39,18.85,11.99,19.45,12.67,20.2z"/>
	<path class="st5" d="M7.84,3.66c0.09,0.21,0.39,0.33,0.29,0.62c0.2,0.7,0.08,1.41,0.07,2.11C7.66,6.62,7.15,6.44,6.63,6.28
		C6.11,5.64,6.24,4.86,6.14,4.13C6.06,3.54,6.18,2.99,6.81,2.79C7.52,2.58,7.61,3.24,7.84,3.66z"/>
	<path class="st6" d="M10.8,7.7c0.02-0.07,0.05-0.14,0.07-0.21c0.36-0.17,0.52-0.76,1.06-0.53c0.57,0.24,0.58,0.77,0.61,1.28
		c0.02,0.27,0.01,0.54,0,0.82c-0.29,0.51-0.08,1.19-0.54,1.65c-0.25,0.14-0.51,0.14-0.77,0.01c-0.23-0.18-0.27-0.44-0.35-0.69
		C10.77,9.24,10.96,8.46,10.8,7.7z"/>
	<path class="st7" d="M5.86,10.59C5.97,10.8,6.08,11,6.29,11.42c-1.78-0.7-2.94-1.78-3.77-3.24C2.27,7.72,2.47,7.33,2.8,7
		c0.38-0.38,0.78-0.29,1.18-0.01C4.74,7.53,5.03,8.35,5.3,9.18C5.05,9.52,5.01,9.51,4.61,9C4.3,8.52,4.18,7.87,3.38,7.71
		C3.3,8.43,3.88,8.76,4.16,9.22C4.63,9.8,5.31,10.12,5.86,10.59z"/>
	<path class="st8" d="M7.84,3.66C7.43,3.53,7.4,2.65,6.75,3.03c-0.5,0.3-0.5,0.8-0.37,1.37c0.15,0.64-0.01,1.36,0.48,1.92
		c0.6,0.57,0.83,1.25,0.64,2.06C7.41,8.5,7.3,8.52,7.18,8.43C6.69,7.4,6.24,6.35,6.02,5.22C5.91,4.67,5.84,4.13,5.91,3.57
		c0.08-0.67,0.35-1.2,1.07-1.16C7.68,2.45,7.98,2.95,7.84,3.66z"/>
	<path class="st9" d="M11.94,10.62c0.15-0.49,0.3-0.98,0.45-1.47c0.09-0.11,0.18-0.11,0.26,0.01c-0.15,1.05-0.29,2.1-0.78,3.06
		c-0.1,0.19-0.16,0.52-0.46,0.43c-0.14-0.04-0.29-0.28-0.33-0.45c-0.14-0.61-0.41-1.2-0.29-1.85c0.07-0.1,0.08-0.24,0.24-0.26
		c0.07,0.17,0.13,0.34,0.2,0.5C11.45,11.17,11.69,11.12,11.94,10.62z"/>
	<path class="st10" d="M7.18,8.43c0.09,0.01,0.17,0.02,0.26,0.03C7.93,7.9,7.22,7.04,7.91,6.53c0.42-0.71,0.04-1.5,0.22-2.24
		c0.4,1.81,0.14,3.57-0.14,5.45C7.35,9.37,7.32,8.87,7.18,8.43z"/>
	<path class="st11" d="M5.86,10.59c-0.82-0.07-1.34-0.61-1.84-1.18c-0.01-0.55,0.32-0.6,0.75-0.51C4.99,8.92,4.93,9.46,5.3,9.18
		C5.64,9.59,5.74,10.09,5.86,10.59z"/>
	<path class="st12" d="M12.65,9.16c-0.09,0-0.17-0.01-0.26-0.01c0.01-0.24,0.03-0.47,0.03-0.71c-0.03-1.3-0.39-1.52-1.55-0.96
		c0.22-0.59,0.65-0.93,1.26-0.76c0.6,0.17,0.59,0.76,0.59,1.27C12.72,8.39,12.68,8.78,12.65,9.16z"/>
	<path class="st13" d="M11.03,10.1c-0.08,0.08-0.16,0.17-0.24,0.25C10.57,9.47,10.6,8.58,10.8,7.7C11.21,8.47,10.92,9.3,11.03,10.1z
		"/>
	<path class="st14" d="M29.48,28.12c0.95-0.4,1.96-0.65,2.87-1.15c0.87-0.48,1.44-0.08,1.41,0.91c-0.02,0.66-0.37,1.12-0.93,1.43
		c-1.26,0.72-2.62,1.22-4.04,1.41c-5.6,0.74-11.22,0.51-16.81-0.05c-1.92-0.19-3.94-0.53-5.57-1.83c-0.21-0.55-0.45-1.11,0.21-1.55
		c5.26,2.01,10.8,1.78,16.28,1.86C25.11,29.19,27.34,28.8,29.48,28.12z"/>
	<path class="st15" d="M6.18,32.9c1.4,0.19,2.64,0.88,3.99,1.24c1.47,0.39,2.95,0.63,4.47,0.7c1.75,0.07,3.51,0.23,5.26,0.22
		c3.79-0.03,7.56-0.27,11.3-0.91c1.19-0.2,2.17-0.75,3.1-1.44c0.42,0.23,0.3,0.53,0.1,0.83c-0.21,0.27-0.36,0.57-0.42,0.91
		c-0.66,1.4-2.07,1.52-3.3,1.81c-2.55,0.6-5.16,0.87-7.79,0.87c-0.27,0-0.56-0.06-0.82,0.09c-4.45,0.13-8.88-0.05-13.25-0.96
		C7.59,36,6.34,35.64,5.47,34.61c0.43-0.32,0.86-0.13,1.24,0.05c2.04,0.98,4.25,1.07,6.43,1.26c1.1,0.09,2.16,0.38,3.26,0.42
		c0.16-0.01-0.04-0.22,0.02-0.07c0.02,0.06-0.01,0.1-0.08,0.08c-3.19-0.53-6.39-1.03-9.42-2.21c-0.41-0.16-0.84-0.28-1.16-0.6
		C5.55,33.1,5.77,32.93,6.18,32.9z"/>
	<path class="st16" d="M8.34,32.93c-0.63-0.24-1.27-0.48-1.9-0.72c-0.52-0.5-1-1.01-0.44-1.77c0.32-0.13,0.62-0.02,0.93,0.08
		c3.29,1.13,6.67,1.9,10.15,2.02c3.54,0.11,7.09,0.21,10.6-0.53c1.25-0.27,2.48-0.59,3.66-1.08c0.44-0.18,0.88-0.39,1.38-0.31
		c0.39,0.17,0.8,0.31,0.91,0.8c-0.69,1.38-2.09,1.57-3.33,1.78c-5.29,0.89-10.64,1.12-15.99,0.91
		C12.27,34.02,10.29,33.49,8.34,32.93z"/>
	<path class="st17" d="M32.8,30.72c-8.97,3.43-17.91,2.87-26.82-0.21c-0.39-0.32,0.01-0.66-0.03-0.99c0.27-0.36,0.5-0.05,0.72,0.06
		c2.53,1.27,5.26,1.65,8.05,1.96c2.26,0.25,4.52,0.13,6.78,0.34c1.63,0.15,3.31-0.21,4.97-0.4c2.49-0.28,4.99-0.54,7.08-2.16
		c0.23,0.17,0.48,0.34,0.35,0.69C33.61,30.37,33.29,30.68,32.8,30.72z"/>
	<path class="st18" d="M13.64,25.45c5.21,0.68,10.42,1.3,15.59-0.24c0.59-0.53,1.37-0.68,2.07-1.02c0.11-0.02,0.22-0.01,0.32,0.02
		c0.08,0.07,0.14,0.16,0.18,0.27c-0.06,0.42,0.63,0.71,0.21,1.19c-1.92,1.18-4.11,1.46-6.26,1.79c-5.01,0.78-9.99-0.05-14.97-0.47
		c-0.24-0.02-0.47-0.09-0.66-0.24c0.01-0.42,0.18-0.82,0.24-1.24c0.08-0.5,0.75-0.12,1.12-0.28C12.19,25.31,12.92,25.38,13.64,25.45
		z"/>
	<path class="st19" d="M10,26.47c0.84,0.44,1.81,0.35,2.67,0.38c3.34,0.13,6.64,0.8,10,0.56c2.83-0.2,5.6-0.65,8.3-1.51
		c0.4-0.13,0.76-0.42,1.13-0.63c0.08-0.26,0.26-0.38,0.53-0.37c0.7,0.56,0.24,0.97-0.24,1.25c-0.81,0.48-1.66,0.9-2.59,1.12
		c-0.36,0.09-0.77,0.06-1.05,0.39c-1.65,0.47-3.37,0.54-5.05,0.64c-5.02,0.28-10.04,0.09-14.96-1.15c-0.84-0.21-1.65-0.58-2.3-1.19
		c0.15-0.21,0.35-0.34,0.62-0.35C8.06,25.85,9.12,25.88,10,26.47z"/>
	<path class="st20" d="M8.34,32.93c1.76,0.07,3.41,0.72,5.18,0.82c3.15,0.17,6.29,0.28,9.44-0.05c2.29-0.24,4.59-0.48,6.87-0.78
		c1.39-0.18,2.75-0.5,3.73-1.64c-0.01-0.4,0.14-0.7,0.55-0.82c0.72,0.85,0.06,1.36-0.52,1.78c-0.9,0.66-1.98,0.94-3.04,1.26
		c-0.12,0.04-0.33-0.08-0.33,0.18c-1.93,0.48-3.92,0.57-5.88,0.64c-3.3,0.12-6.62,0.1-9.92,0.01C12.32,34.28,10.25,33.89,8.34,32.93
		z"/>
	<path class="st21" d="M29.48,28.12c-2.2,1.2-4.65,1.41-7.04,1.39c-4.48-0.03-8.95-0.38-13.4-0.93c-0.94-0.12-1.7-0.63-2.41-1.21
		c-0.1-0.13-0.1-0.26-0.02-0.4c1.77,0.42,3.53,0.95,5.32,1.24c4.09,0.65,8.21,0.94,12.35,0.45C26.01,28.44,27.75,28.29,29.48,28.12z
		"/>
	<path class="st22" d="M5.69,33.36c3.56,1.51,7.4,2,11.08,3.08c-3.83-0.24-7.7-0.21-11.3-1.83c-0.06-0.08-0.12-0.17-0.18-0.25
		C5.38,34.01,5.03,33.48,5.69,33.36z"/>
	<path class="st23" d="M31.63,24.5c0-0.08-0.01-0.16-0.01-0.24c-1.79-1.25-3.93-1.22-5.95-1.51c-2.17-0.32-4.36-0.44-6.56-0.16
		c-0.4,0.05-0.8-0.01-1.17-0.18c-0.1-0.11-0.31-0.27-0.29-0.32c0.16-0.37,0.54-0.07,0.79-0.22c3.65,0,7.32-0.16,10.93,0.47
		c1.28,0.22,2.71,0.33,3.52,1.65c0.06,0.12,0.05,0.24-0.02,0.35C32.48,24.6,32.08,24.74,31.63,24.5z"/>
	<path class="st24" d="M34.29,33.37c0.18-0.22,0.14-0.44,0.01-0.67c0.94,0.22,1.11,1.07,0.32,1.89c-0.7,0.72-1.57,1.22-2.54,1.5
		c-3.27,0.97-6.61,1.23-10,1.12c1.24-0.15,2.48-0.35,3.72-0.44c2.1-0.16,4.15-0.46,6.16-1.12c0.87-0.28,1.61-0.65,1.96-1.55
		C34.07,33.88,34.4,33.74,34.29,33.37z"/>
	<path class="st25" d="M10,26.47c-1.08-0.03-2.09-0.34-3.1-0.7c-0.56-0.73-0.33-1.27,0.77-1.8c1.19,0.64,2.53,0.85,3.79,1.27
		c0,0.48-1.63-0.2-0.7,1.01C10.9,26.43,10.26,26.34,10,26.47z"/>
	<path class="st26" d="M14.13,25.22c-0.16,0.01-0.33,0.03-0.49,0.04c-0.77-0.38-1.66-0.34-2.67-0.64c1.49-0.7,2.93-0.75,4.33-1.01
		c0.25,0.3,0.51,0.59,0.76,0.88C15.67,25.41,14.68,24.72,14.13,25.22z"/>
	<path class="st27" d="M10.55,22.62c0.86-0.12,1.72-0.21,2.56-0.38c0.6-0.12,1,0,1.22,0.59c-1.74,0.49-3.5,0.88-5.27,1.25
		c-0.35-0.03-0.7-0.07-0.89-0.46C8.85,22.99,9.81,23.04,10.55,22.62z"/>
	<path class="st28" d="M9.07,24.08c1.63-0.97,3.44-1.13,5.27-1.25c0.08,0,0.16,0.01,0.24,0.02c0,0.29-0.16,0.42-0.44,0.45
		c-1.27,0.13-2.49,0.46-3.63,1.06C9.96,24.65,9.53,24.29,9.07,24.08z"/>
	<path class="st29" d="M30.22,33.68c-0.05-0.08-0.55-0.12-0.09-0.25c1.11-0.3,2.2-0.65,3.18-1.25c0.57-0.35,1.33-0.74,0.74-1.66
		c-0.21-0.08-0.33-0.2-0.25-0.45c-0.09-0.26-0.17-0.51-0.26-0.77c1.26,0.62,1.44,2.18,0.3,3.03C32.78,33.13,31.53,33.5,30.22,33.68z
		"/>
	<path class="st30" d="M32.79,24.36c0.03-0.12,0.06-0.25,0.09-0.37c0.61,1.38,0.44,1.89-0.78,2.6c-1.04,0.6-2.17,0.89-3.34,1.07
		c-0.04-0.01-0.08-0.01-0.12-0.02c-0.11-0.04-0.23-0.15-0.08-0.2c1.25-0.33,2.48-0.71,3.6-1.38c0.41-0.24,0.9-0.44,0.46-1.05
		C32.39,24.71,32.64,24.55,32.79,24.36z"/>
	<path class="st31" d="M5.95,29.52c0.48,0.32-0.19,0.66,0.03,0.99c-0.19,0.66,0.19,1.17,0.47,1.7C5.28,31.65,5.15,30.92,5.95,29.52z
		"/>
	<path class="st32" d="M7.68,23.97c-0.7,0.41-1.06,0.96-0.77,1.8c-0.1,0.2-0.27,0.21-0.45,0.18C6.08,24.69,6.56,23.9,7.68,23.97z"/>
	<path class="st33" d="M5.69,33.36c-0.41,0.22-0.02,0.76-0.4,0.99c-0.32-0.5-0.47-1.01,0.05-1.48c0.28-0.25,0.58-0.46,0.84,0.03
		C5.92,32.95,5.76,33.11,5.69,33.36z"/>
	<path class="st34" d="M6.61,26.96c0.01,0.13,0.01,0.27,0.02,0.4c-0.38,0.45-0.15,0.98-0.21,1.48C5.59,28.12,5.72,27.5,6.61,26.96z"
		/>
	<path class="st26" d="M29.24,24.98c-0.65,0.08-1.29,0.16-1.94,0.24c-1.54-0.37-3.12-0.45-4.69-0.59c-0.74-0.06-1.5-0.11-2.25-0.12
		c-0.42-0.28-0.8-0.59-1.14-1.17c1.91,0,3.68,0,5.44,0c1.57,0.06,3.15,0.01,4.69,0.38c0.5,0.12,1.03,0.15,1.38,0.69
		C30.31,24.84,29.77,24.9,29.24,24.98z"/>
	<path class="st35" d="M17.93,22.41c4.07-0.68,8.07-0.03,12.06,0.7c0.66,0.12,1.44,0.27,1.63,1.15c-0.06,0.02-0.12,0.03-0.19,0.04
		c-1.77-0.43-3.59-0.62-5.33-1.2c-2.33-0.36-4.67-0.28-7.01-0.26C18.64,22.85,18.21,22.86,17.93,22.41z"/>
	<path class="st36" d="M19.6,25.53c-1.15,0.23-1.86-0.48-2.55-1.23c-0.79-0.42-1.21-1.28-2-1.7c-0.65-0.85-1.29-1.69-1.93-2.55
		c-0.26-0.35-0.34-0.71,0.02-1.06c0.79,0.25,1.06,1.03,1.59,1.55c1.4,1.4,2.82,2.77,4.32,4.07C19.31,24.84,19.81,24.99,19.6,25.53z"
		/>
	<path class="st37" d="M19.6,25.53c-2.21-2.13-4.69-3.98-6.46-6.54c0.25-0.3,0.5-0.19,0.71,0.04c2.17,2.31,4.31,4.64,7.13,6.49
		C20.37,25.76,19.99,25.81,19.6,25.53z"/>
	<path class="st38" d="M26.85,25.26c-2.04,0.27-4.14,1.24-6.02-0.49c0.21-0.24,0.49-0.24,0.77-0.24
		C23.39,24.54,25.17,24.56,26.85,25.26z"/>
	<path class="st39" d="M26.1,23.1c1.84,0.11,3.61,0.54,5.33,1.2c-0.65,0.52-1.41,0.76-2.2,0.91c0-0.08,0.01-0.15,0.01-0.23
		c0.39-0.17,0.79-0.35,1.39-0.62c-1.66-0.42-3.18-0.66-4.71-0.8c-0.43-0.04-0.89,0.12-1.26-0.22C25.13,23.23,25.68,23.52,26.1,23.1z
		"/>
	<path class="st40" d="M26.85,25.26c-2-0.29-3.99-0.62-6.02-0.49c-0.16-0.08-0.32-0.17-0.48-0.25c0.72-0.48,1.54-0.24,2.29-0.2
		c1.41,0.07,2.81,0.3,4.21,0.46c0.27,0.03,0.43,0.16,0.44,0.45C27.15,25.23,27,25.25,26.85,25.26z"/>
	<path class="st41" d="M14.13,25.22c0.42-0.83,1.4-0.18,1.93-0.73c0.37,0.06,0.6,0.29,0.82,0.73
		C15.89,25.22,15.01,25.22,14.13,25.22z"/>
	<path class="st42" d="M15.05,22.6c0.99,0.19,1.39,1.08,2,1.7C16.11,24.05,15.7,23.19,15.05,22.6z"/>
	<path class="st43" d="M12.67,20.2c-0.88-0.78-0.57-1.39,0.28-1.92C12.67,18.89,12.27,19.49,12.67,20.2z"/>
	<path class="st44" d="M7.39,14.42c0.07-0.07,0.13-0.15,0.2-0.22c0.3-0.24,0.58-0.11,0.85,0.07c0.74,0.77,1.67,1.34,2.39,2.13
		c0.31,0.34,0.73,0.67,0.42,1.23c-0.65,1.43-0.98,0.01-1.45-0.16c-0.35-0.88-1.2-1.33-1.75-2.03C7.79,15.12,7.26,14.97,7.39,14.42z"
		/>
	<path class="st45" d="M11.25,17.62c-0.19-0.94-0.99-1.38-1.63-1.93c-0.45-0.38-0.95-0.7-1.28-1.2c-0.05-0.84,0.31-0.81,0.8-0.34
		c0.87,0.82,1.9,1.38,2.89,2.02c0.12,0.18,0.57,0.27,0.19,0.61C11.89,17.06,11.57,17.34,11.25,17.62z"/>
	<path class="st46" d="M12.02,16.17c-1.12-0.37-2.08-1-2.92-1.8c-0.37-0.35-0.6-0.43-0.77,0.13c-0.21-0.18-0.44-0.32-0.74-0.3
		c0.15-0.74,0.82-0.95,1.2-0.58C9.77,14.61,11.13,15.09,12.02,16.17z"/>
	<path class="st47" d="M11.69,18.02c0.37-0.54,0.78-1.02,1.46-1.18c0.3,0.45,1.39-0.15,1.22,0.92c-0.92-0.07-1.75,0.12-2.4,0.84
		C11.74,18.48,11.59,18.31,11.69,18.02z"/>
	<path class="st48" d="M6.42,13.48c0.72-1.27,1.04-1.4,2.11-0.81c-0.69,0.37-1.33,0.74-1.82,1.31C6.27,14.02,6.29,13.78,6.42,13.48z
		"/>
	<path class="st49" d="M11.69,18.02c0.1,0.19,0.19,0.38,0.29,0.57c-0.01,0.08,0,0.16-0.03,0.23c-0.16,0.38,0.19,0.86-0.21,1.18
		c-0.06,0.05-0.36-0.05-0.41-0.15c-0.2-0.45-0.16-0.92,0.03-1.36C11.44,18.32,11.58,18.18,11.69,18.02z"/>
	<path class="st50" d="M7.39,14.42c0.63,0.69,1.26,1.37,1.89,2.06c0.26,0.28,0.61,0.51,0.51,0.98c-0.16-0.12-0.32-0.24-0.49-0.36
		L9.3,17.09c-0.43-0.81-1.22-1.31-1.79-1.99C7.36,14.92,6.85,14.74,7.39,14.42z"/>
	<path class="st51" d="M14.38,17.76c-0.1-0.72-1.12-0.2-1.22-0.92c0.71-0.27,1.26-0.06,1.58,0.62
		C14.93,17.87,14.61,17.8,14.38,17.76z"/>
	<path class="st52" d="M6.42,13.48c0,0.23,0.08,0.41,0.3,0.51c-0.06,0.26-0.02,0.59-0.36,0.66c-0.1,0.02-0.31-0.13-0.35-0.24
		C5.86,13.98,5.97,13.64,6.42,13.48z"/>
	<path class="st53" d="M7.91,6.53C7.9,7.08,7.87,7.63,7.87,8.17c0,0.34-0.15,0.4-0.43,0.29C7.25,7.75,7.05,7.03,6.86,6.32
		C7.23,6.29,7.67,5.9,7.91,6.53z"/>
	<path class="st54" d="M11.94,10.62c-0.1,0.44-0.21,0.89-0.38,1.62c-0.37-0.72-0.29-1.19-0.34-1.63
		C11.47,10.61,11.7,10.62,11.94,10.62z"/>
	<path class="st55" d="M4.78,8.91c-0.25,0.17-0.5,0.34-0.75,0.51C3.72,9.06,3.41,8.71,3.11,8.35c-0.25-0.3-0.38-0.63-0.02-0.93
		c0.37-0.31,0.66-0.05,0.93,0.19C4.41,7.96,4.7,8.37,4.78,8.91z"/>
	<path class="st56" d="M32.82,27.53c0.27-0.04,0.41,0.11,0.4,0.32c-0.01,0.26-0.22,0.41-0.45,0.49c-0.21,0.07-0.41,0-0.43-0.25
		C32.3,27.73,32.58,27.63,32.82,27.53z"/>
	<path class="st57" d="M34.29,33.37c0.23,0.02,0.54,0.01,0.46,0.34c-0.1,0.41-0.48,0.44-0.84,0.4
		C33.79,33.73,34.06,33.56,34.29,33.37z"/>
	<path class="st58" d="M33.8,30.08c0.08,0.15,0.17,0.3,0.25,0.45c-0.16,0.25-0.33,0.5-0.49,0.75c-0.41,0.02-0.78,0-0.76-0.55
		C33.1,30.47,33.3,30.04,33.8,30.08z"/>
	<path class="st59" d="M32.79,24.36c0.09,0.25-0.03,0.44-0.16,0.64c-0.17,0.09-0.35,0.18-0.52,0.27c-0.56,0-1.03-0.06-0.48-0.76
		C32,24.29,32.38,24.21,32.79,24.36z"/>
	<path class="st60" d="M7.89,24.48c0.33,0.07,0.74,0.12,0.84,0.5c0.08,0.31-0.28,0.32-0.49,0.3c-0.35-0.03-0.74-0.06-0.78-0.52
		C7.43,24.51,7.68,24.5,7.89,24.48z"/>
</g>
</svg>
