<?xml version="1.0" encoding="utf-8"?>
<!-- Generator: Adobe Illustrator 23.0.2, SVG Export Plug-In . SVG Version: 6.00 Build 0)  -->
<svg version="1.1" id="Camada_1" xmlns="http://www.w3.org/2000/svg" xmlns:xlink="http://www.w3.org/1999/xlink" x="0px" y="0px"
	 viewBox="0 0 40.32 45.36" style="enable-background:new 0 0 40.32 45.36;" xml:space="preserve">
<style type="text/css">
	.st0{fill:#8A1C2B;}
	.st1{fill:#1A4371;}
	.st2{fill:#6D1826;}
	.st3{fill:#741623;}
	.st4{fill:#0E2B4F;}
	.st5{fill:#163052;}
	.st6{fill:#1F4E84;}
	.st7{fill:#9D2333;}
	.st8{fill:#7C1B2A;}
	.st9{fill:#1A4171;}
	.st10{fill:#8C1C2B;}
	.st11{fill:#6A1623;}
	.st12{fill:#C55166;}
	.st13{fill:#C75D78;}
	.st14{fill:#F8EFF2;}
	.st15{fill:#C65064;}
	.st16{fill:#DDA8B8;}
	.st17{fill:#D68EA0;}
	.st18{fill:#D691A5;}
	.st19{fill:#C85166;}
	.st20{fill:#731726;}
	.st21{fill:#DEB3C0;}
	.st22{fill:#193A5D;}
	.st23{fill:#68B2D7;}
	.st24{fill:#8FC4D5;}
	.st25{fill:#B9D8DA;}
	.st26{fill:#5DAFDE;}
	.st27{fill:#3773B4;}
	.st28{fill:#9EC8D4;}
	.st29{fill:#5E131D;}
	.st30{fill:#B94757;}
	.st31{fill:#9C303F;}
	.st32{fill:#AF4453;}
	.st33{fill:#C55165;}
	.st34{fill:#498AAE;}
	.st35{fill:#9B2F3E;}
	.st36{fill:#AC3444;}
	.st37{fill:#2B5A95;}
	.st38{fill:#010203;}
	.st39{fill:#183657;}
	.st40{fill:#4C96BF;}
	.st41{fill:#9FD0DA;}
	.st42{fill:#4C9ACC;}
	.st43{fill:#52A0CC;}
	.st44{fill:#81B5C9;}
	.st45{fill:#468FC0;}
	.st46{fill:#5CAEDE;}
	.st47{fill:#3C77B7;}
	.st48{fill:#1E4775;}
	.st49{fill:#C95A73;}
	.st50{fill:#AF4454;}
	.st51{fill:#C85F7A;}
	.st52{fill:#5C131F;}
	.st53{fill:#621621;}
	.st54{fill:#F2DAE1;}
	.st55{fill:#801624;}
	.st56{fill:#164270;}
	.st57{fill:#761725;}
	.st58{fill:#6F1725;}
	.st59{fill:#A94251;}
	.st60{fill:#2C5B92;}
	.st61{fill:#8A2B38;}
	.st62{fill:#5D1420;}
	.st63{fill:#8D2C39;}
	.st64{fill:#040101;}
	.st65{fill:#4E9BC8;}
	.st66{fill:#2F66A4;}
	.st67{fill:#3570B0;}
	.st68{fill:#4F283F;}
	.st69{fill:#99303F;}
	.st70{fill:#C14B5D;}
	.st71{fill:#8B2B38;}
	.st72{fill:#123559;}
	.st73{fill:#D48598;}
	.st74{fill:#5099C1;}
	.st75{fill:#AA4251;}
	.st76{fill:#4A8CAF;}
</style>
<g>
	<path d="M12.72,9.38c-0.46-1.54-1.28-2.96-0.9-4.64c0.47-2.08,1.71-3.19,3.8-2.95c2.43,0.28,4.88,0.7,6.02,3.37
		c0.14,0.33,0.38,0.69,0.33,1.01c-0.23,1.45,0.74,1.65,1.79,1.88c1.07,0.24,2.1,0.64,2.51,1.78c0.27,0.73,0.58,0.13,0.77,0.06
		c1.37-0.56,2.7-1.13,4.26-0.7c0.99,0.27,1.7,0.76,2.26,1.61c2.99,4.59,4.69,9.59,5.11,15.09c0.16,2.02,0.4,4.02,0.42,6.05
		c0.03,3.24-1.49,5.69-3.74,7.79c-1.13,1.05-2.68,1.09-4.07,1.03c-0.87-0.04-1.47,0.18-2.02,0.67c-2.01,1.77-4.45,2.49-7.01,2.69
		c-5.87,0.45-11.57-0.01-16.94-2.87c-3.5-1.87-4.01-4.95-3.55-8.43c0.27-2.09,0.81-4.14,1.21-6.22c0.06-0.29,0.2-0.63-0.12-0.89
		c-1.09-0.9-0.77-2.06-0.42-3.09c1.62-4.79,3.91-9.15,8.14-12.2c0.32-0.23,0.67-0.43,1.03-0.6C11.96,9.64,12.34,9.52,12.72,9.38z"/>
	<path class="st0" d="M3.54,30.12c0.26-1.53,0.51-3.06,0.78-4.58c0.06-0.32,0.21-0.65-0.3-0.72c-0.94-0.12-0.8-0.79-0.61-1.35
		c1.59-4.75,3.65-9.2,7.95-12.19c0.61-0.42,1.29-0.65,1.98-0.79c0.98-0.19,1.38-0.53,0.7-1.46c-0.1-0.28,0.05-0.44,0.26-0.57
		c0.82,0.22,1.01,0.99,1.38,1.6c-0.06,0.42,0.89,0.4,0.45,1c-1.42,0.33-2.96,0.23-4.24,1.12c-0.81,0.52-1.59,1.07-2.24,1.78
		c-1.82,1.6-2.84,3.71-3.78,5.88C5.41,20.8,5.04,21.8,4.7,22.81c-0.17,0.51-0.19,0.93,0.4,1.15c0.09,0.06,0.16,0.15,0.2,0.25
		c0.01,0.43,0.31,0.81,0.27,1.25c-0.05,0.41-0.05,0.82-0.07,1.24c-0.38,2.06-0.8,4.12-1.15,6.19C4.27,34,4.44,35.13,4.23,36.24
		c-0.1,0.28-0.24,0.52-0.52,0.65c-0.41-0.1-0.38-0.44-0.42-0.75c-0.19-1.39-0.14-2.77,0.15-4.14C3.56,31.38,3.79,30.76,3.54,30.12z"
		/>
	<path class="st1" d="M20.37,8.52c1.28,0.08,2.48,0.51,3.7,0.84c0.85,0.24,1.22,0.83,1.06,1.73c-0.07,0.38-0.12,0.76-0.2,1.27
		c1.12-0.58,2.12-1.15,3.16-1.63c1.14-0.53,2.32-0.89,3.52-0.14c0.1,0.23,0.51,0.45,0.02,0.69c-1.72-0.23-3.33,0.04-4.76,1.08
		c-0.27,0.2-0.85,0.28-0.47,0.86c0.25,0.54,0.6,1.02,1.03,1.43c0.12,0.13,0.21,0.28,0.26,0.45c0.08,0.44-0.04,0.8-0.49,0.95
		c-0.45,0.15-0.74-0.17-0.99-0.48c-0.4-0.48-0.72-1.05-1.39-1.22c-0.39-0.12-0.78-0.22-1.16-0.39c-1.01-0.85-1.92-1.79-2.43-3.04
		c0.13-0.13,0.3-0.17,0.48-0.17c0.38,0.09,0.68-0.08,1.01-0.23c1.02-0.45,1.13-0.38,1.27,0.71c0.25-0.89,0.25-0.89-1.14-1.22
		c-0.55-0.14-1.08-0.36-1.65-0.45c-0.42-0.08-0.83-0.15-1.14-0.49C19.96,8.77,20.09,8.61,20.37,8.52z"/>
	<path class="st2" d="M24.88,42.33c-4.59,1.21-9.17,0.82-13.75-0.06c-0.07-0.01-0.12-0.1-0.18-0.15c-0.05-0.15-0.14-0.26-0.27-0.35
		c-0.82-0.6-0.39-0.79,0.3-0.9c1.17,0.1,2.29,0.51,3.47,0.55c1.77,0.24,3.55,0,5.32,0.11c1.36-0.07,2.74,0.12,4.09-0.15
		c0.72-0.09,0.95-0.62,1.11-1.22c0.11-0.41,0.05-0.88,0.38-1.23c0.19-0.09,0.37-0.08,0.55,0.04C26.23,40.29,25.95,41.43,24.88,42.33
		z"/>
	<path class="st3" d="M21.24,10.89c0.81,0.93,1.62,1.86,2.42,2.79c0.27,0.37,0.48,0.78,0.62,1.22c0.05,0.16,0.05,0.33-0.01,0.49
		c-0.27,0.29-0.64,0.33-1.01,0.39c-0.99-0.96-1.3-2.38-2.25-3.37c-0.63-0.6-1.48-0.48-2.23-0.69c-0.86-0.25-1.85-0.08-2.54-0.82
		c-0.09-0.39-1.08,0.09-0.72-0.74c0.09-0.05,0.2-0.07,0.3-0.06c0.4,0.07,0.77,0.29,1.2,0.25c1.21-0.75,2.12-1.79,2.85-2.99
		c0.26-0.42,0.21-0.83,0-1.25c-0.18-0.35-0.4-0.7-0.37-1.12c0.06-0.18,0.17-0.29,0.36-0.34C21.1,5.8,21,7.12,20.37,8.52
		c-0.1,0.15-0.2,0.3-0.3,0.44c0.06,0.56-0.77,0.78-0.52,1.4C20.14,10.45,20.84,10.18,21.24,10.89z"/>
	<path class="st4" d="M24.88,42.33c0.52-1.05,0.98-2.12,0.98-3.33c-0.02-0.27,0.09-0.33,0.31-0.19c0.23,0.32,0.21,0.7,0.23,1.07
		c0.01,0.28-0.04,0.56-0.01,0.84c0.26,0.5,0.55,0.13,0.76-0.01c1.27-0.84,2.36-1.89,3.06-3.25c0.65-1.26,0.42-2.7,0.59-4.06
		c0.03-1.65-0.08-3.31,0.05-4.96c0.17-0.34,0.34-0.92,0.61-0.07c0.11,0.34,0.38-0.13,0.46,0.14c0.45,2.3,0.39,4.6,0,6.89
		c-0.05,0.38-0.21,0.74-0.28,1.12c-0.15,0.5-0.4,0.96-0.56,1.46c-0.11,0.25-0.26,0.47-0.43,0.68c-0.16,0.2-0.28,0.42-0.49,0.58
		c-1.06,0.79-2.12,1.59-3.19,2.37C26.35,42.06,25.66,42.35,24.88,42.33z"/>
	<path class="st5" d="M30.16,39.23c0.01-0.26-0.04-0.55,0.25-0.71c1.78,0.37,3.36,0.09,4.6-1.36c0.85-1.01,1.61-2.07,1.69-3.46
		c0.12-1.97,0.19-3.93-0.04-5.89c-0.1-0.38-0.1-0.76-0.1-1.15c0.03-0.56-0.07-1.16,0.39-1.64c0.43,0.28,0.23,0.63,0.28,0.91
		c0.03,0.16,0.05,0.25,0.03,0.1c0,0,0.07-0.01,0.11-0.02c0.38,0.5,0.21,1.08,0.22,1.62c0.03,1.63-0.06,3.27,0.04,4.9
		c0.16,2.76-1.2,4.79-3.21,6.32C33.26,39.74,31.66,40.01,30.16,39.23z"/>
	<path class="st6" d="M27.54,15.03c-0.09-0.08-0.18-0.15-0.26-0.23c0.51-1.06,1.53-1.17,2.51-1.29c0.9-0.11,1.83,0.03,2.81-0.06
		c0.01-0.59-0.41-0.94-0.66-1.36c-0.17-0.29-0.48-0.53-0.35-0.94c0.27-0.18,0.01-0.38,0.03-0.57c0.37,0.1,0.66,0.33,0.82,0.65
		c1.31,2.58,3.16,4.9,3.73,7.82c-0.04,0.61-0.38,0.21-0.61,0.18c-0.15-0.1-0.27-0.24-0.35-0.4c-0.14-0.28-0.25-0.58-0.33-0.88
		c-0.39-1.42-1.17-2.48-2.64-2.91c-0.23-0.07-0.42-0.21-0.59-0.39c-1.11-0.78-2.09,0.02-3.1,0.28
		C28.21,15.07,27.89,15.27,27.54,15.03z"/>
	<path class="st7" d="M3.54,30.12c0.73,0.19,0.45,0.72,0.36,1.15c-0.4,1.85-0.62,3.7-0.14,5.58c0.85,0.98,1.71,1.93,2.86,2.58
		c0.43,0.24,0.83,0.69,0,1.04c-2.93-1.14-4.26-3.49-3.76-6.86C3.03,32.44,3.05,31.23,3.54,30.12z"/>
	<path class="st8" d="M6.61,40.47c0.58-0.57,0-0.71-0.34-0.93c-1.06-0.69-2.2-1.3-2.52-2.69c0.07-0.16,0.13-0.33,0.2-0.49
		c0.36,0.14,0.44,0.49,0.59,0.78c0.62,1.1,1.65,1.68,2.74,2.2c0.8,0.45,1.7,0.67,2.53,1.05c0.36,0.17,0.9,0.17,0.93,0.76
		c-0.09,0.06-0.54,0-0.11,0.25c0.3,0.18,0.76,0.24,0.32,0.73C9.42,41.8,7.93,41.34,6.61,40.47z"/>
	<path class="st9" d="M35.59,19.1c0.19-0.01,0.4,0.22,0.58-0.03c0.81,2.24,1.09,4.58,1.21,6.95c-0.02,0.15-0.04,0.3-0.06,0.51
		c-0.41-0.36,0.01-0.88-0.37-1.26c-0.03,0.46-0.05,0.87-0.08,1.28c-0.48-0.07-0.51-0.46-0.52-0.8c-0.09-1.9-0.44-3.77-0.86-5.62
		C35.4,19.78,35.37,19.42,35.59,19.1z"/>
	<path class="st10" d="M19.87,4.64c-0.09,0.09-0.19,0.19-0.28,0.28c-0.09,0.09-0.21,0.13-0.34,0.12c-1.73-0.81-3.49-1.41-5.41-0.66
		c-0.25-0.04-0.54-0.03-0.47-0.42c0.41-0.74,1.09-1.04,1.88-0.98C16.93,3.1,18.63,3.24,19.87,4.64z"/>
	<path class="st11" d="M13.36,3.96c0.11,0.2,0.3,0.24,0.51,0.24c0.13,0.15,0.16,0.34,0.14,0.53c-0.17,0.83-0.05,1.62,0.22,2.42
		c0.14,0.43,0.41,0.87,0.11,1.34c-0.1,0.18-0.2,0.36-0.3,0.54C13.23,7.42,12.31,5.82,13.36,3.96z"/>
	<path class="st12" d="M5.24,24.33c-0.01-0.07-0.03-0.14-0.04-0.21c-0.38-0.45-0.11-0.9,0.01-1.34c0.36-1.3,0.94-2.5,1.45-3.74
		c0.05-0.1,0.13-0.19,0.22-0.27c1.89-0.38,3.49-1.31,4.87-2.64c0.32-0.3,0.7-0.53,1.02-0.83c1.43,0.09,2.37-0.82,3.33-1.68
		c0.34-0.31,0.46-0.71,0.34-1.18c-0.08-0.32-0.29-0.7,0.2-0.91c1.53,0.05,3.03,0.28,4.41,0.99c-0.12,1.78-0.44,3.5-1.51,5
		c-2.34,0.68-4.38,1.99-6.49,3.16c-0.51,0.28-0.61,0.92-1.13,1.18c-0.76,0.01-1.46-0.44-2.24-0.3c-0.4,0.07-0.85,0.11-0.96,0.57
		c-0.11,0.47,0.3,0.7,0.62,0.93c0.42,0.3,0.99,0.33,1.37,0.73c-0.08,0.14-1.56,1.45-1.78,1.56c-0.3,0.03-0.6,0-0.9-0.07
		C7.12,24.93,6.04,25.03,5.24,24.33z"/>
	<path class="st13" d="M7.09,39.51C5.9,39.11,4.94,38.4,4.3,37.3c-0.31-1.49-0.06-3-0.26-4.5c0.39-2.09,0.78-4.18,1.18-6.27
		c0.69,0.15,0.45,0.77,0.61,1.19c0.02,0.26-0.05,0.5-0.06,0.76c-0.53,2.23-0.47,4.5-0.51,6.77c-0.02,0.98,0.22,1.71,1.12,2.15
		c0.41,0.25,0.85,0.44,1.21,0.77C7.6,38.69,7.78,39.26,7.09,39.51z"/>
	<path class="st14" d="M9.45,13.79c0.66-0.75,1.51-1.27,2.31-1.84c0.08,0.08,0.15,0.16,0.22,0.24c0.5,0.35,1.08,0.71,0.8,1.43
		c-0.35,0.88-0.99,1.56-1.92,1.82c-0.62,0.17-1.08-0.13-1.28-0.77C9.54,14.38,9.72,14.05,9.45,13.79z"/>
	<path class="st15" d="M14.34,8.49c-0.29-1.27-1.17-2.46-0.53-3.85c0.67-0.55,1.08-0.28,1.38,0.42c0.09,1.56,0.54,3.07,0.74,4.62
		c0.01,0.19-0.03,0.37-0.17,0.51c-0.07,0-0.15-0.01-0.22-0.03C15.13,9.6,14.74,9.04,14.34,8.49z"/>
	<path class="st16" d="M9.45,13.79c0.72-0.01,0.25,0.47,0.3,0.74c-0.53,1.72-1.7,3.01-2.86,4.32l-0.04-0.02
		c-0.41,0.38-0.44,1.12-1.15,1.22c-0.02,0-0.06-0.05-0.08-0.08c-0.04-0.06-0.03-0.13,0.02-0.21C6.55,17.53,7.54,15.37,9.45,13.79z"
		/>
	<path class="st17" d="M21.04,12.59c-1.52-0.31-3.04-0.62-4.55-0.93c-1.63-0.08-3.2,0.51-4.83,0.47c-0.02-0.09,0.02-0.15,0.11-0.17
		c1.34-0.99,2.92-0.99,4.48-1.07c1.32,0.25,2.65,0.48,3.97,0.76c0.43,0.09,1.01,0.02,1.07,0.7C21.26,12.49,21.17,12.57,21.04,12.59z
		"/>
	<path class="st18" d="M5.65,19.75c0.65,0.01,0.48-1.04,1.21-0.93c0.13,0.95-0.58,1.61-0.82,2.44c-0.27,0.95-0.75,1.84-0.84,2.85
		c-1.03,0.12-1.24-0.27-0.83-1.2C4.82,21.87,5.04,20.74,5.65,19.75z"/>
	<path class="st19" d="M5.67,27.72c-0.44-0.28-0.02-0.9-0.45-1.19c-0.01-0.45-0.08-0.9,0.21-1.3c0.71-0.38,1.41,0.06,2.12,0.03
		c1.18,0.33,2.41,0.54,3.45,1.26c-0.01,0.46-0.37,0.47-0.68,0.54c-0.36,0.03-0.72,0-1.06-0.1C7.93,26.58,6.63,26.33,5.67,27.72z"/>
	<path class="st20" d="M7.6,25.56c-0.76,0.11-1.44-0.24-2.17-0.33c-0.1-0.29-0.53-0.52-0.19-0.9c0.98,0.15,1.96,0.34,2.88,0.73
		C8.04,25.32,7.74,25.36,7.6,25.56z"/>
	<path class="st21" d="M4.04,32.8c0.34,1.48,0.25,2.99,0.26,4.5c-0.12-0.31-0.23-0.63-0.35-0.94C3.94,35.17,3.83,33.98,4.04,32.8z"
		/>
	<path class="st22" d="M27.54,15.03c0.31-0.09,0.63-0.18,0.94-0.27c0.27-0.07,0.32,0.1,0.34,0.31c-0.3,0.49-0.48,0.94-0.04,1.51
		c2.01,2.6,2.37,5.76,2.88,8.85c0.16,0.98,0.63,2.01-0.05,3c-0.02,0.07-0.01,0.17-0.05,0.22c-0.14,0.14-0.14-0.01-0.19-0.1
		c-0.07-0.12,0.12-0.42-0.23-0.36c-0.03,0-0.05,0.06-0.07,0.09c-0.21-0.03-0.34-0.16-0.44-0.33c-0.88-2.77-1.43-5.64-2.34-8.4
		c-0.65-1.7-1.83-3.05-2.92-4.47c-0.24-0.31-0.59-0.54-0.61-0.99c0.87-0.03,1.17,0.68,1.6,1.22c0.19,0.25,0.35,0.6,0.71,0.55
		C27.54,15.81,27.5,15.38,27.54,15.03z"/>
	<path class="st23" d="M32.08,11.88c0.53,0.59,0.87,1.28,1.24,2.05c-2.19-0.19-4.25-0.49-6.05,0.88c-0.5-0.36-0.9-0.79-1.01-1.43
		c-0.1-0.38,0.12-0.63,0.4-0.78C28.38,11.71,30.14,11.11,32.08,11.88z"/>
	<path class="st24" d="M24.76,14.09c1.56,1.52,2.86,3.23,3.73,5.24c-0.14,0.35-0.14,0.35-0.59,0.08c-1.25-1.49-2.6-2.9-3.84-4.4
		c-0.21-0.42-0.49-0.82-0.4-1.33C24.03,13.82,24.4,13.95,24.76,14.09z"/>
	<path class="st25" d="M32.08,11.88c-1.48-0.02-2.96-0.06-4.36,0.53c-0.54,0.23-1.16,0.36-1.46,0.97c-0.69-0.32-0.89-0.61-0.03-1.02
		c1.04-0.49,1.99-1.17,3.13-1.44c0.76-0.18,1.5-0.09,2.21,0.25C31.75,11.4,31.92,11.64,32.08,11.88z"/>
	<path class="st26" d="M21.24,10.89c-0.66-0.34-1.41-0.13-2.09-0.33c0.34-1.03,1.23-1.15,2.11-1.27c0.57,0.15,1.13,0.29,1.7,0.44
		c-0.07,0.74-0.36,1.26-1.21,1.22C21.58,10.93,21.41,10.91,21.24,10.89z"/>
	<path class="st27" d="M21.75,10.95c0.61-0.2,0.83-0.79,1.21-1.22c0.5,0.11,1,0.21,1.4,0.57c0.48,0.43,0.18,0.91-0.01,1.3
		c-0.25,0.5-0.51,0.01-0.75-0.11c-0.85-0.43,0.33-0.59,0.13-0.95C22.97,10.14,22.57,11.59,21.75,10.95z"/>
	<path class="st28" d="M21.26,9.28c-0.72,0.4-1.58,0.56-2.11,1.27c-0.17,0.01-0.62,0.23-0.35-0.21c0.32-0.53,0.84-0.93,1.27-1.38
		C20.47,9.07,20.86,9.18,21.26,9.28z"/>
	<path class="st29" d="M26.07,38.71C26,38.81,25.93,38.9,25.85,39c-0.16,0-0.31,0-0.47,0c-0.38-0.33-0.4-0.78-0.33-1.21
		c0.64-3.74,0.42-7.52,0.45-11.28c-0.17-3.07-0.8-6.04-1.78-8.95c-0.12-0.61-0.66-1.15-0.28-1.84c0.07-0.65,0.45-0.34,0.76-0.25
		c0.6,0.14,0.75,0.67,0.93,1.14c1.23,3.23,1.88,6.59,2,10.04c0.06,1.87,0.01,3.75,0.01,5.62c0.02,1.74-0.23,3.46-0.52,5.17
		C26.54,37.89,26.46,38.38,26.07,38.71z"/>
	<path class="st30" d="M19.84,41.88c-1.86-0.05-3.72,0.24-5.56-0.22c0.03-0.03,0.06-0.09,0.07-0.09c0.12,0.05,0.13-0.07,0.06-0.06
		c-0.57,0.04-1.12,0-1.65-0.2c-0.85-0.33-1.06-0.87-0.7-1.72c1.14-0.01,2.25,0.33,3.41,0.3c2.74-0.07,3.1-0.31,3.67-2.93
		c0.21-0.43,0.03-1.3,0.58-1.24c0.64,0.07,0.38,0.89,0.45,1.4c0.02,0.15,0.01,0.31,0.03,0.47c0.02,0.94-0.01,1.88-0.01,2.82
		C20.21,40.93,20.21,41.45,19.84,41.88z"/>
	<path class="st31" d="M19.84,41.88c0-0.48,0-0.97,0-1.45c0.98-1.68,2.73-2.06,4.39-2.57c0.18-0.06,0.38,0.07,0.49,0.27
		c-0.15,1.17-0.05,2.38-0.56,3.49C22.75,42.16,21.28,41.76,19.84,41.88z"/>
	<path class="st32" d="M24.17,41.63c-0.05-1.23-0.03-2.44,0.46-3.6c-0.37-0.46-0.23-0.98-0.15-1.48c0.47-2.94,0.79-5.89,0.78-8.87
		c0-0.49-0.22-1.16,0.56-1.37c0.06,3.84,0.22,7.68-0.44,11.5c-0.07,0.38,0,0.79,0.01,1.19C25.23,39.99,25.6,41.22,24.17,41.63z"/>
	<path class="st33" d="M11.91,39.76c0.36,1.8,1.85,1.57,3.16,1.67c-0.24,0.32-0.55,0.14-0.79,0.22c-1.23,0.15-2.35-0.45-3.54-0.51
		c-1.14-0.71-2.55-0.84-3.65-1.64c0.12-0.42,0.15-0.88,0.5-1.19c0.51-0.27,0.93,0.06,1.38,0.19C9.9,39.05,11.14,38.87,11.91,39.76z"
		/>
	<path class="st34" d="M26.85,32.27c0.02-3.74,0.06-7.48-0.79-11.16c-0.45-1.94-0.9-3.87-1.87-5.63c-0.04-0.16-0.08-0.31-0.13-0.47
		c1.63,1.13,2.78,2.71,3.94,4.29c0.71,0.92,0.86,2.05,1.02,3.13c0.52,3.58,0.83,7.18,0.78,10.8c-0.01,0.51,0.05,1.05-0.36,1.46
		c-0.49,0.13-0.72,0.61-1.12,0.86c-0.35,0.22-0.72,0.39-1.12,0.2c-0.44-0.21-0.4-0.65-0.36-1.05c0.3-2.4,0.42-4.81,0.33-6.85
		c-0.01,0.97,0.02,2.32-0.01,3.67C27.14,31.77,27.36,32.18,26.85,32.27z"/>
	<path class="st35" d="M23.44,15.72c0.16,0.56,0.32,1.12,0.49,1.68c-0.92,0.41-1.88-0.27-2.8,0.11c-0.16,0.05-0.33,0.06-0.49,0
		c-0.13-0.09-0.25-0.19-0.09-0.35c-0.1,0.05-0.13,0.14-0.14,0.24c-0.03,0.27-0.08,0.53-0.28,0.73c-0.42,0.14-0.63-0.13-0.83-0.42
		c-0.04-0.12-0.02-0.22,0.06-0.31c0.76-1.03,0.88-2.28,1.21-3.46c0.13-0.46,0.31-0.9,0.47-1.35c0.08-0.08,0.16-0.16,0.24-0.24
		C22.31,13.28,22.61,14.67,23.44,15.72z"/>
	<path class="st36" d="M19.35,4.92c0.08,0,0.15,0,0.23,0c0.26,0.72,1.16,1.39,0.77,2.13c-0.77,1.49-1.78,2.85-3.38,3.61
		c-0.21-0.12-0.39-0.25-0.39-0.53c0.7-1.2,0.84-2.67,1.74-3.8c-0.38-0.38-0.93-0.61-1.45-0.9c-0.24-0.13-0.67-0.25-0.27-0.67
		C17.55,4.32,18.44,4.87,19.35,4.92z"/>
	<path class="st0" d="M16.7,10.18c0.09,0.16,0.18,0.32,0.27,0.49c-0.44-0.09-0.9-0.13-1.23-0.49c0-0.15,0-0.29,0-0.44
		c0.03-0.17,0.13-0.29,0.28-0.36c0.1-0.03,0.21-0.03,0.32,0C16.74,9.52,16.6,9.9,16.7,10.18z"/>
	<path class="st37" d="M30.86,38.02c0.01-0.53,0.29-0.96,0.5-1.43c0.94-1.1,1.82-1.93,1.52-3.85c-0.54-3.48-0.65-7.05-0.99-10.57
		c0.25-0.61-0.14-1.69,1.14-1.54c0.39,0.21,0.51,0.58,0.56,0.98c0.16,1.29,0.57,2.53,0.76,3.82c0.32,1.76,0.54,3.52,0.47,5.32
		c-0.02,0.57-0.15,1.15,0.42,1.63c0.33,0.28,0.11,0.75-0.06,1.11c-0.52,1.16-1.13,2.27-2.09,3.15
		C32.34,37.09,31.88,38.01,30.86,38.02z"/>
	<path class="st38" d="M31.61,28.43c-0.35-4.34-0.72-8.68-3.54-12.31c-0.73-0.94,0.45-0.72,0.66-1.08c1-0.51,1.21-0.44,1.53,0.55
		c0.1,0.3,0.19,0.6,0.23,0.92c1.62,5.47,1.99,11.12,2.34,16.77c0.08,1.28-0.31,1.99-1.24,2.39c0.4-1.99,0.24-4,0.24-6
		C31.83,29.25,31.95,28.79,31.61,28.43z"/>
	<path class="st39" d="M31.59,35.67c1.14-1,1.06-2.33,0.94-3.64c-0.28-2.96-0.53-5.92-0.95-8.86c-0.33-2.27-0.91-4.5-1.38-6.74
		c0.23-0.19,0.47-0.2,0.73-0.05c0.24,0.24,0.33,0.56,0.43,0.87c0.33,1.63,0.98,3.22,0.75,4.93c0.39,2.11,0.59,4.23,0.71,6.37
		c0.08,1.5,0.16,3.01,0.32,4.51c0.06,0.55,0.62,1.27,0.42,1.57c-0.52,0.81-1.22,1.58-2.19,1.96C31.33,36.26,31.43,35.96,31.59,35.67
		z"/>
	<path class="st40" d="M26.85,32.27c0.4-1.32,0.11-2.68,0.19-4.01c0.03-0.47,0-0.95,0.17-1.42c0,1.84,0.07,3.69-0.04,5.53
		c-0.04,0.66-0.13,1.34-0.12,2.01c0.01,0.4-0.26,1.01,0.27,1.17c0.53,0.16,0.93-0.29,1.3-0.68c0.13-0.13,0.15-0.93,0.58-0.18
		c0.65,1.21,0.17,2.37-0.17,3.53c-0.3,0.26-0.67,0.07-1.01,0.14c-0.77,0.16-1.56,0.22-1.53,1.31c0,0.18-0.16,0.36-0.41,0.29
		c-0.01-0.41-0.01-0.83-0.02-1.24C26.46,36.58,26.72,34.43,26.85,32.27z"/>
	<path class="st41" d="M31.08,33.72c0.26,3.16-1.13,5.46-3.68,7.18c-0.36,0.24-0.71,0.53-1.18,0.49c-0.39-0.03-0.51-0.2-0.2-0.52
		c0.28-0.16,0.42-0.49,0.74-0.61c0.59-0.31,1-0.83,1.46-1.3c1.32-1.16,2.36-2.46,2.14-4.38c-0.04-0.35-0.01-0.72,0.18-1.05
		C30.81,33.28,30.95,33.48,31.08,33.72z"/>
	<path class="st42" d="M30.86,38.02c0.65-0.48,1.29-0.97,1.94-1.45c0.13,0.1,0.22,0.22,0.26,0.38c0.23,0.88,0.63,1.1,1.37,0.43
		c0.35-0.32,0.4-0.27,0.8-0.02c-1.03,1.63-2.74,1.55-4.35,1.7c-0.34,0.03-0.5-0.18-0.46-0.53C30.56,38.35,30.71,38.19,30.86,38.02z"
		/>
	<path class="st43" d="M26.8,40.51c-0.21,0.24-0.5,0.3-0.79,0.36c0.03-0.31,0.05-0.61,0.08-0.92c0.05-0.06,0.11-0.11,0.15-0.18
		c0.33-0.49-0.33-1.52,0.47-1.55c0.65-0.03,1.19-0.25,1.79-0.32c0.06-0.01,0.14,0.24,0.21,0.37c0.17,0.43-0.27,0.53-0.42,0.78
		C27.8,39.55,27.32,40.04,26.8,40.51z"/>
	<path class="st44" d="M31.08,33.72c-0.13-0.08-0.26-0.15-0.39-0.23c-0.39-0.31-0.4-0.76-0.41-1.19c-0.03-1.07-0.05-2.15,0.01-3.22
		c0.02-0.44-0.06-1,0.6-1.13c0.06,0.11,0.13,0.22,0.19,0.33C31.07,30.09,31.07,31.91,31.08,33.72z"/>
	<path class="st45" d="M35.22,37.35c-0.41-0.31-0.5,0.16-0.71,0.31c-0.33,0.24-0.56,0.76-1.06,0.54c-0.47-0.2-0.59-0.69-0.64-1.17
		c-0.02-0.15-0.01-0.31-0.01-0.47c0.71-0.81,1.45-1.62,1.81-2.64c0.19-0.54,1.22-1.2-0.07-1.75c-0.11-0.05-0.05-0.53-0.04-0.8
		c0.06-1.95-0.07-3.89-0.48-5.81c1.02-0.12,1.38,0.63,1.65,1.37c0.38,1.04,0.77,2.07,1.18,3.1c0.09,1.05-0.06,2.1,0.09,3.15
		c0.06,0.26,0.09,0.52-0.02,0.78C36.96,35.39,36.05,36.35,35.22,37.35z"/>
	<path class="st46" d="M36.85,33.23c-0.43-1.09-0.11-2.23-0.22-3.35c-0.31-0.99-0.57-1.99-0.56-3.04c0.01-1.13-0.54-2.08-0.98-3.05
		c-0.63-1.37-1.02-2.87-2.17-3.95c-0.29-0.53-0.48-1.08-0.32-1.69c0.2-0.49,0.59-0.48,0.98-0.31c0.64,0.28,1.33,0.48,1.83,1.03
		c0.06,0.08,0.13,0.15,0.19,0.23c0.71,2.43,0.88,4.96,1.27,7.45c0.02,0.39,0.04,0.78,0.06,1.17C37.01,29.56,37.13,31.4,36.85,33.23z
		"/>
	<path class="st9" d="M36.85,33.23c0.02-1.84,0.05-3.67,0.07-5.51c0.35,2.08,0.34,4.16,0,6.23C36.9,33.71,36.87,33.47,36.85,33.23z"
		/>
	<path class="st47" d="M35.4,18.87c-0.64-0.04-1.14-0.45-1.71-0.66c-0.29-0.1-0.57-0.5-0.92-0.1c-0.59-0.25-0.95-0.92-1.66-0.95
		c-0.26-0.18-0.2-0.47-0.25-0.72c-0.13-0.15-0.3-0.28-0.37-0.46c-0.19-0.48-0.46-1.03-0.07-1.46c0.39-0.42,0.94-0.31,1.42-0.01
		c0.06,0.05,0.1,0.15,0.17,0.16C34.27,15.17,35.03,16.86,35.4,18.87z"/>
	<path class="st48" d="M31.84,14.52c-1.42,0.01-1.42,0.01-0.98,1.93c-0.22-0.01-0.44-0.01-0.66-0.02c-0.06-0.19-0.16-0.38-0.17-0.57
		c-0.02-0.93-0.49-1.13-1.3-0.83c-0.08-0.09-0.17-0.18-0.25-0.27c0.82-0.5,1.71-0.76,2.68-0.72C31.51,14.05,31.8,14.1,31.84,14.52z"
		/>
	<path class="st49" d="M19.35,4.92c-0.96,0.49-1.92-0.29-2.88,0c-0.5,0.33-0.99,0.02-1.48-0.01c-0.32-0.41-0.76-0.31-1.19-0.27
		c0.02-0.14,0.04-0.29,0.06-0.43C15.22,3.31,17.75,3.65,19.35,4.92z"/>
	<path class="st50" d="M19.36,17.4c0,0.08,0.01,0.17,0.01,0.25c0.15,0.22,0.16,0.46,0.07,0.69c-0.9,2.26-1.32,4.69-2.39,6.89
		c-0.34,0.71-0.71,1.36-1.63,1.38c-1.86-0.16-3.69-0.52-5.52-0.85c-0.37-0.07-0.81-0.13-0.89-0.65c0.16-0.19,1.53-1.16,1.7-1.21
		c0.09-0.13,0.23-0.23,0.38-0.25c0.95-0.12,1.18-0.62,0.81-1.46c-0.06-0.14-0.08-0.3,0-0.45c0.16-0.92,0.91-1.31,1.61-1.7
		c1.54-0.86,3.12-1.67,4.68-2.5C18.57,17.33,18.97,17.43,19.36,17.4z"/>
	<path class="st51" d="M11.66,12.13c1.58-0.49,3.14-1.12,4.83-0.47c0.25,0.77,0.73,1.58-0.21,2.21c-1.06,0.71-1.84,2.02-3.43,1.65
		c-0.43,0.03-0.74,0.24-0.92,0.63c-0.76,1.29-3.84,2.94-5.04,2.7c0.75-1.57,1.97-2.83,2.86-4.32c0.28,0.61,0.66,1.04,1.35,0.57
		c0.74-0.5,1.6-0.97,1.49-2.07c-0.04-0.36-0.36-0.49-0.72-0.46C11.41,12.62,11.63,12.32,11.66,12.13z"/>
	<path class="st52" d="M9.01,25.1c2.11,0.71,4.32,0.88,6.5,1.19c0.96,0.24,1.65-0.1,1.98-1.03c0.66-1.88,1.52-3.69,1.86-5.68
		c0.09-0.55,0.21-1.11,0.7-1.48c0.08-0.29,0.09-0.64,0.25-0.87c0.25-0.33,0.21,0.06,0.29,0.17c0.53,0.91,0.05,1.8-0.1,2.66
		c-0.32,1.81-0.85,3.56-1.54,5.27c-0.8,2.02-1.64,2.5-3.78,2.09c-0.27-0.05-0.55-0.11-0.82-0.19c-0.88-0.24-1.77-0.45-2.69-0.42
		c-0.28-0.02-0.53-0.08-0.74-0.28c-1.11-0.33-2.22-0.66-3.33-0.99c0-0.34,0.22-0.47,0.52-0.5C8.42,25.07,8.72,25.09,9.01,25.1z"/>
	<path class="st53" d="M11.91,21.73c0.39,0.46,0.71,0.98,0.45,1.59c-0.32,0.75-1.05,0.5-1.64,0.57c-0.68-0.2-1.38-0.32-1.91-0.84
		c-0.28-0.28-0.61-0.54-0.49-1c0.13-0.48,0.53-0.7,0.96-0.77C10.19,21.14,11.08,21.28,11.91,21.73z"/>
	<path class="st54" d="M11.93,16.15c-0.04-0.71,0.07-1.22,0.92-0.63C12.67,15.91,12.34,16.08,11.93,16.15z"/>
	<path class="st55" d="M6.4,37.76c-1.12-0.41-1.46-1.21-1.47-2.39c-0.03-2.42,0.05-4.82,0.56-7.19c0.51-0.33,0.95-0.11,1.38,0.17
		c0.08,0.11,0.1,0.22,0.07,0.35C6.88,28.82,6.8,28.92,6.71,29c-0.99,1.52-0.68,3.29-0.91,4.94c-0.1,0.75-0.24,1.57,0.2,2.31
		c0.27,0.22,0.61,0.36,0.73,0.73C6.74,37.29,6.64,37.55,6.4,37.76z"/>
	<path class="st56" d="M6.84,28.46c-0.45-0.09-0.9-0.18-1.35-0.27c0.06-0.16,0.12-0.31,0.18-0.47c0.8-1.62,0.8-1.62,2.65-1.26
		c0.62,0.12,1.24,0.22,1.86,0.33c0.12,0.09,0.13,0.19,0.02,0.3c-0.86,0.48-1.77-0.29-2.64,0.1c-1.19,0.23-0.04,0.92-0.25,1.34
		C7.14,28.59,6.98,28.57,6.84,28.46z"/>
	<path class="st57" d="M6.4,37.76c0-0.27-0.02-0.54,0.27-0.69c0.97-0.4,1.61,0.34,2.35,0.7c-0.04,0.33,0.3,0.74-0.22,0.97
		C8.41,38.59,8,38.45,7.59,38.31C7.2,38.13,6.8,37.94,6.4,37.76z"/>
	<path class="st58" d="M15,4.91c0.5-0.47,0.99-0.04,1.48,0.01c0.65,0.45,1.5,0.55,2.04,1.19c0.12,0.14,0.2,0.33,0.29,0.49
		c-1.5,0.72-0.91,2.67-2.1,3.57c-0.16-0.24-0.32-0.48-0.49-0.72c-0.05-0.5,0.18-0.92,0.35-1.36c0.18-0.44,0.3-0.9,0.35-1.37
		c0.06-0.48-0.14-0.82-0.62-0.81c-0.57,0.01-0.39,0.48-0.35,0.81c0.07,0.51,0.2,1.01,0.28,1.51C16.3,8.68,16.27,9.11,16,9.49
		c-0.08,0.08-0.17,0.16-0.25,0.24C15.36,8.15,14.83,6.59,15,4.91z"/>
	<path class="st59" d="M10.3,26.97c-0.03-0.06-0.08-0.12-0.12-0.18c0.26-0.06,0.56,0.04,0.75-0.24c0.24,0,0.48-0.01,0.72-0.01
		c0.89,0.15,1.79,0.29,2.68,0.45c0.67,0.08,1.35,0.13,2.02,0.24c1.07,0.17,1.67-0.4,2.03-1.28c1.11-2.75,1.9-5.58,2.22-8.54
		c0.15,0,0.29-0.01,0.44-0.01c0.29,0.27,0.33,0.63,0.31,0.99c-0.2,3.02-0.27,6.05-0.47,9.07c-0.19,2.87-0.04,5.74-0.42,8.6
		c-0.07,0.55,0.16,1.23-0.61,1.5c0-0.54,0-1.09,0-1.8c-0.4,0.48-0.06,1.03-0.46,1.32c-0.45-0.4-0.33-0.94-0.36-1.44
		c-0.09-1.45,0.16-2.92-0.33-4.34c-0.07-0.98-0.66-1.52-1.5-1.95c-1.75-0.89-3.6-1.41-5.49-1.86C11.23,27.39,10.67,27.41,10.3,26.97
		z"/>
	<path class="st60" d="M30.88,27.95c-0.43,1.83-0.12,3.69-0.2,5.54c0.31,2.4-0.5,4.33-2.43,5.79c-0.12-0.09-0.13-0.19-0.02-0.3
		c0.16-0.24,0.33-0.47,0.49-0.71c0.42-1.16,0.5-2.37,0.49-3.59c0.51-1.59,0.29-3.24,0.18-4.83c-0.2-2.83-0.29-5.69-0.9-8.49
		c-0.15-0.69-0.32-1.39-0.48-2.08c0.16,0.01,0.31,0.34,0.49,0.03C29.51,22.14,30.11,25.07,30.88,27.95z"/>
	<path class="st61" d="M19.84,37.57c0.49-1.45,0.39-2.99,0.41-4.45c0.07-4.53,0.52-9.05,0.56-13.58c0.01-0.71,0.31-1.4,0.22-2.13
		c0.04-0.26,0.14-0.49,0.44-0.44c0.82,0.13,1.63,0.29,2.44,0.44c1.19,2.85,1.68,5.85,1.89,8.91c-0.07,0.14-0.2,0.27-0.2,0.41
		c0.11,3.81-0.37,7.57-0.99,11.32c-1.79,0.41-3.4,1.18-4.78,2.4C19.85,39.48,19.85,38.52,19.84,37.57z"/>
	<path class="st62" d="M18.95,31.09c0.75,1.96,0.29,4,0.43,6c-0.29,2.53-0.92,3.06-3.49,3.15c-1.36,0.05-2.67-0.17-3.98-0.47
		c-1.03-0.34-2.07-0.69-3.1-1.03c0.08-0.23,0.16-0.47,0.24-0.7c1.07-0.32,1.96,0.37,2.96,0.51c1.39,0.3,2.76,0.73,4.22,0.58
		c0.41,0.03,0.78-0.15,1.17-0.2c0.63-0.08,0.85-0.46,0.9-1.06c0.15-1.99,0.13-3.97-0.16-5.94c-0.05-0.31-0.16-0.62,0.06-0.92
		C18.46,30.85,18.71,30.9,18.95,31.09z"/>
	<path class="st63" d="M20.06,18.11c-0.5,2.48-1.31,4.87-2.25,7.21c-0.55,1.38-0.8,1.48-2.29,0.97c0.78,0.04,0.94-0.58,1.21-1.11
		c0.89-1.71,1.23-3.61,1.89-5.4c0.26-0.71,0.51-1.42,0.76-2.13C19.6,17.8,19.83,17.96,20.06,18.11z"/>
	<path class="st64" d="M16,9.49c0.04-0.96-0.22-1.89-0.4-2.82c-0.08-0.38-0.26-0.9,0.08-1.13c0.42-0.28,0.89,0.12,1.33,0.27
		c0.53,0.17,0.26,0.55,0.23,0.88c-0.1,1.01-0.47,1.92-1.01,2.77C16.14,9.47,16.07,9.48,16,9.49z"/>
	<path class="st65" d="M33.06,19.79c0.8,0.15,0.99,0.88,1.28,1.45c0.62,1.25,1.18,2.53,1.68,3.82c0.6,1.54,0.47,3.2,0.62,4.81
		c-0.69-0.72-0.84-1.7-1.13-2.59c-0.26-0.82-0.69-1.41-1.49-1.73c-0.33-1.6-0.65-3.2-0.98-4.8C32.8,20.43,32.74,20.11,33.06,19.79z"
		/>
	<path class="st66" d="M33.06,19.79c0,0.32-0.01,0.64-0.01,0.97c-1.18-0.1-0.41,1.1-0.95,1.43c-0.33-1.67-0.66-3.34-0.99-5.01
		c1.04-0.53,1.29,0.31,1.66,0.95C32.87,18.68,32.96,19.23,33.06,19.79z"/>
	<path class="st67" d="M28.23,38.98c0.01,0.1,0.02,0.2,0.02,0.3c-0.39,0.52-0.84,0.97-1.45,1.23
		C27.12,39.85,27.69,39.43,28.23,38.98z"/>
	<path class="st68" d="M14.33,26.99c-0.93,0.06-1.82-0.11-2.68-0.45C12.58,26.47,13.48,26.6,14.33,26.99z"/>
	<path class="st69" d="M10.26,21.71c0.74-0.09,1.35,0.1,1.76,0.75c0.16,0.25,0.04,0.46-0.14,0.63c-0.54,0.5-1.19,0.37-1.79,0.2
		c-0.54-0.15-1.32-0.26-1.2-1.05C8.99,21.47,9.76,21.81,10.26,21.71z"/>
	<path class="st70" d="M11.92,38.76c-0.95-0.24-1.91-0.49-2.86-0.73c-0.76-0.4-1.52-0.82-2.38-0.97c-0.25-0.15-0.5-0.31-0.76-0.46
		c-0.52-1.11-0.22-2.26-0.04-3.36c0.24-1.44,0.55-2.86,0.92-4.28c1.2-0.35,1.9,0.48,2.67,1.14c0.12,0.91-0.21,1.81-0.09,2.72
		c0.27,2.12,0.67,4.17,2.69,5.42c0.18,0.11,0.46,0.24,0.27,0.53C12.22,38.93,12.05,38.86,11.92,38.76z"/>
	<path class="st71" d="M9.29,30.11c-0.85-0.31-1.51-1.03-2.44-1.17c-0.18,0.03-0.25-0.05-0.25-0.22c0.11-0.02,0.23-0.04,0.34-0.06
		c0.81-0.3,1.56,0.04,2.31,0.27c2.65,0.8,5.32,1.51,8.08,1.84c0.32,0.04,0.64,0.06,0.83,0.37c0.78,1.6,0.43,3.33,0.59,5
		c0.03,0.27-0.09,0.55-0.1,0.82c-0.1,2.22-0.09,2.22-2.42,2.5c-0.18-1.51-0.13-3.02,0.02-4.53c0.04-0.4,0.09-0.79,0.13-1.19
		c0.1-0.99-0.27-1.56-1.31-1.78c-1.56-0.33-3.11-0.75-4.61-1.28C10.05,30.53,9.61,30.44,9.29,30.11z"/>
	<path class="st72" d="M18.16,31.13c-3.67-0.21-7.13-1.39-10.64-2.36c-0.19-0.05-0.39-0.08-0.58-0.11c-0.04-0.06-0.08-0.13-0.1-0.2
		c0.19-0.01,0.38-0.03,0.56-0.05c0.92-0.49,1.73,0.13,2.58,0.27c2.4,0.73,4.88,1.03,7.36,1.38c-2.15-1.05-4.51-1.42-6.8-2.03
		c-0.76-0.21-1.54-0.31-2.32-0.46C7.89,27.5,7.4,27.58,7.36,27c0.97-0.71,1.97,0.24,2.95-0.04c2.71,0.35,5.26,1.17,7.66,2.47
		c0.68,0.37,0.94,0.94,0.99,1.65C18.69,31.1,18.42,31.12,18.16,31.13z"/>
	<path class="st73" d="M6.6,28.71c0.08,0.07,0.17,0.15,0.25,0.22c0.41,1.01-0.19,1.91-0.36,2.84c-0.3,1.6-0.65,3.18-0.57,4.82
		c-0.26,0.01-0.49-0.03-0.49-0.36c0-2.4,0.03-4.8,0.69-7.13C6.19,28.84,6.29,28.66,6.6,28.71z"/>
	<path class="st74" d="M9.97,28.94c-0.86-0.17-1.71-0.35-2.57-0.52c-0.21-0.39-1.02,0.03-0.96-0.64c0.04-0.46,0.38-0.78,0.91-0.77
		c1.11,0.25,2.23,0.5,3.34,0.76c0.04,0.35-0.22,0.64-0.21,1.01C10.5,29.1,10.21,29.05,9.97,28.94z"/>
	<path class="st75" d="M9.29,30.11c2.3,0.6,4.59,1.19,6.89,1.8c0.27,0.07,0.54,0.24,0.52,0.57c-0.09,2.33-0.1,4.66-0.47,6.97
		c-1.49,0.11-2.92-0.16-4.31-0.69c0.04-0.01,0.08-0.01,0.12-0.02c0.04-0.01,0.07-0.03,0.11-0.04C8.94,36.59,8.76,33.47,9.29,30.11z"
		/>
	<path class="st76" d="M9.97,28.94c0.34-0.33-0.07-1.13,0.72-1.18c2.07,0.42,4.11,0.92,6.12,1.58c0.3,0.1,0.61,0.21,0.88,0.37
		c0.24,0.15,0.44,0.4,0.34,0.7c-0.1,0.29-0.41,0.21-0.63,0.16C14.92,30.05,12.38,29.8,9.97,28.94z"/>
</g>
</svg>
