<?xml version="1.0" encoding="utf-8"?>
<!-- Generator: Adobe Illustrator 23.0.2, SVG Export Plug-In . SVG Version: 6.00 Build 0)  -->
<svg version="1.1" id="Camada_1" xmlns="http://www.w3.org/2000/svg" xmlns:xlink="http://www.w3.org/1999/xlink" x="0px" y="0px"
	 viewBox="0 0 44.44 73.48" style="enable-background:new 0 0 44.44 73.48;" xml:space="preserve">
<style type="text/css">
	.st0{fill:#CF734F;}
	.st1{fill:#B15534;}
	.st2{fill:#53241D;}
	.st3{fill:#712D21;}
	.st4{fill:#51231C;}
	.st5{fill:#54241D;}
	.st6{fill:#752C1F;}
	.st7{fill:#53231C;}
	.st8{fill:#B45633;}
	.st9{fill:#7B2D1E;}
	.st10{fill:#57261E;}
	.st11{fill:#722C1F;}
	.st12{fill:#6B2A20;}
	.st13{fill:#62281E;}
	.st14{fill:#8C402C;}
	.st15{fill:#D27D5A;}
	.st16{fill:#B15533;}
	.st17{fill:#D3825F;}
	.st18{fill:#D58766;}
	.st19{fill:#BF5B35;}
	.st20{fill:#D17C59;}
	.st21{fill:#D3815E;}
	.st22{fill:#B25534;}
	.st23{fill:#B35634;}
	.st24{fill:#4E211B;}
	.st25{fill:#BA5934;}
	.st26{fill:#BE5B35;}
	.st27{fill:#D07043;}
	.st28{fill:#CA6439;}
	.st29{fill:#CB6339;}
	.st30{fill:#D89272;}
	.st31{fill:#D68C6B;}
	.st32{fill:#D27E5C;}
</style>
<g>
	<path d="M25.29,17.59c0.17-3.62-0.47-7.22-0.62-10.84c-0.03-0.68-0.14-1.36-0.09-2.03c0.15-2.46,1.81-4.18,4.57-2.65
		c2.07,1.15,3.3,3,3.74,5.3c0.48,2.57,0.82,5.17,1.25,7.93c0.27-0.33,0.43-0.55,0.6-0.75c1.99-2.3,5.29-1.69,6.3,1.17
		c0.51,1.45,0.67,2.97,0.49,4.49c-0.47,4.06-0.53,8.13-0.36,12.2c0.09,1.96,0.77,3.89,1.21,5.83c1.58,7.01,0.41,13.62-3.01,19.85
		c-0.85,1.54-0.7,2.91-0.24,4.43c0.7,2.29-0.02,4.31-1.94,5.82c-1.92,1.51-4.19,2.24-6.47,2.96c-0.94,0.3-1.86,0.62-2.87,0.71
		c-2.52,0.23-4.62-0.97-6.84-1.79c-0.73-0.27-1.09-0.9-1.08-1.71c0.04-1.94-0.41-3.79-0.97-5.63c-0.33-1.09-0.88-1.96-1.81-2.7
		c-1.49-1.19-2.92-2.5-4.18-3.94c-1.32-1.5-2.02-3.41-2.69-5.27C8.5,46.04,6.16,41.4,3.79,36.78c-0.76-1.48-1.39-3.02-2.22-4.47
		c-0.93-1.61,0-3.63,1.77-4.28c1.64-0.6,1.73-0.6,5.13,0.26c-0.84-2.55-1.7-5.05-2.47-7.58c-0.89-2.92-1.84-5.84-2.29-8.88
		C3.5,10.49,3.43,9.1,4.82,8.33C6.21,7.56,7.65,7.66,9,8.58c1.7,1.15,2.99,2.65,3.73,4.56c1.22,3.18,2.76,6.25,3.67,9.55
		c0.06,0.21,0.2,0.4,0.51,0.53c-0.46-2.21-0.98-4.42-1.36-6.64c-0.53-3.07-1.77-5.94-2.46-8.96c-0.31-1.36-0.52-2.75-0.08-4.14
		c0.23-0.73,0.65-1.19,1.44-1.42c2.65-0.77,5.73,0.75,6.91,3.56c1.28,3.04,2.07,6.25,3.13,9.37C24.78,15.85,25.03,16.72,25.29,17.59
		z"/>
	<path class="st0" d="M36.52,67.25c-2.14,1.81-4.74,2.54-7.39,3.14c-0.37,0.12-0.71,0.33-1.13,0.33c-0.54,0-0.84-0.18-0.88-0.73
		c-0.19-2.35-0.73-4.67-0.72-7.02c0.01-1.89-0.66-3.23-2.27-4.15c-2.05-1.17-3.85-2.71-5.86-3.94c-1.49-0.91-2.68-2.13-3.71-3.53
		c-1.82-2.47-3.47-5.02-4.5-7.97c-1.03-2.95-2.81-5.56-4.15-8.36c-0.73-1.52-1.6-2.91-2.6-4.24c0.28-1.18,1.4-1.72,2.92-1.36
		c2.16,0.52,3.72,1.84,4.71,3.78c0.95,1.85,1.98,3.65,3.03,5.45c1.19,2.46,3.54,2.56,5.79,2.79c2.7,0.28,5.37,0.63,7.87,1.76
		c0.15,0.05,0.28,0.15,0.44,0.17c-0.41-0.74-0.54-0.89-1.58-1.32c-3.13-1.3-6.28-2.55-9.49-3.65c-0.88-0.3-1.41-0.78-1.8-1.59
		c-1.43-2.92-2.29-6.04-3.16-9.14c-0.49-1.76-0.85-3.56-1.51-5.28c-0.14-0.83-0.87-1.55-0.48-2.48c1.19-0.7,2.32,0.01,3.48,0.16
		c0.13,0.01,0.23,0.06,0.32,0.15c1.13,2.53,1.77,5.24,2.85,7.79c0.32,0.76,0.68,1.44,1.61,1.56c1.91,0.35,3.08-0.95,2.66-3.04
		c-0.54-2.71-1.48-5.31-2.48-7.88c-0.09-0.22-0.18-0.44-0.25-0.67c-0.08-0.3-0.17-0.59-0.05-0.9c0.58-0.66,1.24-1.24,1.87-1.85
		c0.79-0.76,1.61-1.01,2.57-0.34c0.99,1.59,1.13,3.46,1.7,5.19c0.73,2.19,1.49,4.37,2.04,6.61c0.15,0.6,0.33,1.28,1.18,1.29
		c0.96-0.19,0.97-0.95,0.95-1.67c-0.09-3.69-0.28-7.38-1.04-11.01c-0.1-0.39-0.14-0.79-0.28-1.17c-0.04-0.13-0.06-0.27-0.07-0.41
		c-0.77-2.53-0.33-5.2-0.88-7.76c-0.14-0.64-0.42-1.43,0.44-1.89c0.6,0.73,0.48,1.65,0.66,2.49c0.2,0.97,0.34,1.96,0.42,2.95
		c-0.04,1,0.25,1.97,0.26,2.97c0.01,0.55,0.31,0.78,0.85,0.72c0.52-0.05,1.03,0.01,1.53,0.16c1.22,0.37,1.52,0.77,1.52,2.06
		c0,0.15-0.08,0.3-0.06,0.45c0.17-0.02,0.03-0.4,0.32-0.26c0.64,0.61,0.41,1.44,0.49,2.16c0.34,3.24,0.74,6.49,0.87,9.75
		c0.02,0.38-0.15,0.88,0.36,1.01c0.56,0.15,0.7-0.39,0.91-0.75c0.31-0.51,0.42-1.1,0.63-1.65c0.14-0.36,0.22-0.95,0.88-0.58
		c0.67,0.67,0.77,1.53,0.82,2.42c0.12,2.37-0.28,4.69-0.55,7.02c-0.4,3.44-0.24,6.85,0.77,10.17c0.42,1.4,0.46,2.91,1.21,4.21
		c0.35,1.1-0.31,2.12-0.25,3.19c-0.03,0.67-0.38,1.21-0.72,1.75c-0.52,0.82-0.76,1.74-1.1,2.63c-1.02,2.69-0.88,5.37-0.19,8.09
		C36.45,65.74,36.75,66.47,36.52,67.25z"/>
	<path class="st1" d="M3.42,30.73c1.69,1.23,2.19,3.22,3.13,4.92c2.01,3.67,3.54,7.58,5.4,11.29c1.41,2.84,3.33,5.7,6.24,7.54
		c2.31,1.47,4.54,3.07,6.82,4.58c1.17,0.78,1.68,1.84,1.66,3.22c-0.03,2.59,0.65,5.12,0.71,7.7c0.01,0.49,0.29,0.62,0.7,0.58
		c0.35-0.04,0.7-0.12,1.05-0.18c-1.02,0.85-2.31,0.58-3.28,0.29c-1.41-0.41-2.92-0.73-4.2-1.55c-0.3-1.04-0.11-2.11-0.26-3.17
		c-0.21-1.43-0.53-2.82-0.92-4.2c-0.42-1.48-1.6-2.39-2.7-3.28c-3.29-2.66-5.34-6.1-6.59-10.06c-0.99-3.14-2.53-6.03-3.98-8.96
		c-1.25-2.54-2.58-5.04-3.72-7.64C3.32,31.48,3.05,31.11,3.42,30.73z"/>
	<path class="st2" d="M3.42,30.73c0.69,2.18,1.81,4.16,2.83,6.18c1.69,3.35,3.45,6.66,4.79,10.17c0.67,1.75,1.2,3.55,2.05,5.22
		c1.14,2.23,2.65,4.2,4.66,5.69c2.42,1.79,3.56,4.23,3.84,7.11c0.13,1.33,0.52,2.68,0.05,4.03c-0.56-0.18-0.49-0.66-0.5-1.09
		c-0.03-2.43-0.77-4.7-1.54-6.96c-0.16-0.47-0.48-0.81-0.85-1.14c-1.6-1.44-3.31-2.78-4.75-4.37c-1.45-1.61-2.17-3.71-2.91-5.72
		c-1.61-4.35-3.55-8.54-5.75-12.62c-0.77-1.44-1.42-2.95-2.11-4.43c-0.5-1.06-1.1-2.25-0.12-3.23c0.97-0.97,2.31-0.96,3.6-0.56
		c1.73,0.54,3.09,1.59,4.34,2.96c-0.55-1.59-1.1-3.17-1.64-4.77c-1.13-3.36-2.45-6.66-3.16-10.14c0.21-0.22,0.46-0.22,0.72-0.11
		c0.77,1.05,0.86,2.35,1.29,3.53c0.39,1.22,0.69,2.48,1.21,3.65c1.21,3.58,2.39,7.17,3.55,10.77c0.25,0.77,0.6,1.47,1.02,2.15
		c0.27,0.44,0.58,0.87,0.52,1.43c-0.2,0.48-0.57,0.26-0.89,0.22c-1.06-1.69-2.05-3.41-2.93-5.2c-0.94-1.91-2.4-3.26-4.53-3.79
		C4.94,29.39,3.91,29.76,3.42,30.73z"/>
	<path class="st3" d="M41.28,39.37c0.58,3.04,0.87,6.09,0.13,9.15c-0.06,0.23-0.08,0.46-0.11,0.7c-0.34,0.46-0.46,1.38-1.35,0.61
		c-0.14-0.3-0.13-0.62-0.07-0.94c0.72-3.75,0.24-7.47-0.21-11.2c-0.19-1.55-0.52-3.06-0.98-4.56c-0.24-0.77-0.08-1.59-0.15-2.38
		c0.08-3.34,0.2-6.67,0.43-10c0.12-1.76,0.06-3.5-0.69-5.14c-0.79-0.78-1.35-0.25-1.83,0.37c-0.4,0.51-0.45,1.16-0.6,1.77
		c-0.08,0.32,0.03,0.88-0.63,0.73c-0.16-0.55-0.39-1.08-0.17-1.67c0.33-1.62,1.19-2.41,2.62-2.42c1.21,0,2.08,0.89,2.43,2.36
		c0.65,2.79-0.06,5.56-0.13,8.33c-0.04,1.79,0.04,3.59-0.08,5.38c-0.17,2.44,0.74,4.67,1.12,7.01
		C40.63,38.17,41.08,38.75,41.28,39.37z"/>
	<path class="st4" d="M27.32,28.29c-0.79,0.18-0.94-0.41-1.1-0.95c-1.06-3.49-2.1-6.99-3.16-10.48c-0.21-0.68-0.45-1.35-0.67-2.02
		c-0.62-0.49-0.58-1.24-0.75-1.91c0.02-0.49,0.1-0.91,0.72-0.45c1.25,2.9,1.82,6.01,2.83,8.98c0.45,1.31,0.84,2.64,1.47,3.95
		c0-3.43,0-6.85,0-10.28c0.38-0.31,0.09-0.63,0.05-0.97c-0.06-0.49-0.21-1.02,0.28-1.48c0.5,0.32,0.1,0.89,0.36,1.25
		c0.03,0.07,0.04,0.15,0.03,0.22c0.25,0.91,0.14,1.89,0.45,2.79c0.28,3.21,0.12,6.43,0.15,9.65C27.99,27.25,27.96,27.9,27.32,28.29z
		"/>
	<path class="st5" d="M18.26,29.82c-0.91,0.06-1.4-0.5-1.69-1.25c-1.08-2.74-2.05-5.52-2.91-8.33c0.1-0.7,0.36-0.17,0.56-0.07
		c1.08,2.48,1.6,5.17,2.85,7.59c0.26,0.5,0.35,1.35,1.1,1.15c0.71-0.19,0.97-0.93,0.82-1.67c-0.44-2.14-0.9-4.28-1.35-6.42
		c-0.18-0.86-0.35-1.71-0.53-2.57c0.33-0.15,0.13-1.01,0.85-0.65c0.08,0.09,0.15,0.2,0.21,0.31c1.01,3.3,2.24,6.55,2.1,10.08
		C20.21,29.45,19.74,29.86,18.26,29.82z"/>
	<path class="st6" d="M27.35,13.94c-0.36-0.22-0.08-0.68-0.37-0.98c-0.16,0.61-0.06,1.16,0.12,1.72c0.1,0.32,0.11,0.69-0.44,0.46
		c-0.31-3.4-0.69-6.8-0.91-10.21c-0.13-1.92,1.19-2.66,2.93-1.75c1.58,0.83,2.54,2.26,2.95,3.9c0.46,1.84,0.77,3.74,0.81,5.66
		c0.07,0.43-0.24,0.72-0.4,1.06c-0.13,0.28-0.37,0.24-0.53-0.04c-0.31-1.45-0.33-2.94-0.47-4.41c-0.29-1.37-0.55-2.73-1.37-3.93
		c-0.75-1.09-1.63-1.74-3.02-1.33c-0.6,1.01-0.04,2.02,0.07,3.01c0.09,0.87,0.29,1.76,0.17,2.61C26.68,11.18,27.52,12.5,27.35,13.94
		z"/>
	<path class="st7" d="M31.77,13.95c0.38-0.32-0.12-1.12,0.67-1.23c0.38,0.76,0.41,1.62,0.43,2.42c0.1,4.01,0.74,7.97,1.08,11.97
		c0.22-0.67,0.39-1.34,0.39-2.06c-0.03-2.59,0.24-5.15,0.5-7.72c0.02-0.18,0.14-0.36,0.21-0.54c0.09,0.57,0.18,1.14,0.27,1.72
		c0.41,0.42,0.4,0.96,0.33,1.46c-0.31,2.2-0.08,4.44-0.48,6.64c-0.06,0.31-0.12,0.62-0.25,0.91c-0.44,1-0.87,1.08-1.78,0.33
		c-0.18-4.12-0.5-8.23-1.17-12.3C31.79,15.04,31.35,14.55,31.77,13.95z"/>
	<path class="st8" d="M36.52,67.25c-1.37-3.94-1.58-7.88,0.02-11.82c0.4-0.99,1.3-1.71,1.42-2.84c0.78,0.03,0.73,0.59,0.67,1.1
		c-0.07,0.55-0.25,1.08-0.28,1.64c-0.08,0.52-0.31,0.99-0.58,1.42c-1.48,2.33-0.98,4.71-0.18,7.09c0.16,0.48,0.48,0.92,0.38,1.47
		C37.57,66.02,37.3,66.83,36.52,67.25z"/>
	<path class="st9" d="M22.35,12.49c-0.06,0.28-0.59-0.33-0.49,0.25c-0.69-0.08-0.63-0.71-0.81-1.14c-0.23-0.54-0.38-1.12-0.58-1.67
		C20.14,8.69,19.7,7.5,19.2,6.32c-0.48-1.14-1.42-1.71-2.5-2.06c-0.55-0.18-1.22-0.3-1.46,0.55c-0.24,2.12,0.6,4.05,1.02,6.05
		c0.09,0.42,0.3,0.82,0.2,1.27c-0.33,0.4-0.56,0.08-0.81-0.12c-0.73-2.1-1.6-4.18-1.68-6.44c-0.1-2.7,0.5-2.75,3.06-2.33
		c1.44,0.24,2.63,1.27,3.25,2.76C21.15,8.12,21.71,10.32,22.35,12.49z"/>
	<path class="st10" d="M37.96,65.31c-1.94-3.41-2.04-6.77,0.21-10.09c0.3-1.51,1.19-2.84,1.38-4.39c0.07-0.38,0.12-0.77,0.59-0.87
		c0.62,0.13,0.71-0.58,1.15-0.73c-0.53,3.12-1.68,6.03-3.22,8.76c-0.73,1.3-0.76,2.53-0.37,3.87c0.17,0.57,0.28,1.16,0.51,1.71
		C38.5,64.22,38.45,64.78,37.96,65.31z"/>
	<path class="st11" d="M6.93,17.07c-0.23,0-0.46,0-0.69,0c-0.62-1.84-1.15-3.7-1.38-5.63c-0.09-0.77-0.25-1.7,0.66-2.11
		c0.85-0.39,1.79-0.41,2.62,0.11c1.93,1.22,3.14,3,3.88,5.12c0.23,0.67,0.47,1.35,0.7,2.02c-0.13,0.15-0.31,0.19-0.5,0.18
		c-0.12-0.02-0.23-0.06-0.33-0.13c-0.42-0.37-0.49-0.9-0.65-1.39c-0.52-1.63-1.38-3.05-2.67-4.19c-0.65-0.57-1.34-1.02-2.27-0.81
		c-0.47,0.34-0.37,0.82-0.33,1.3c0.11,1.35,0.52,2.63,0.85,3.93C6.97,15.99,7.28,16.52,6.93,17.07z"/>
	<path class="st12" d="M15.65,12.02c0.22,0.08,0.43,0.17,0.65,0.25c0.93,0.98,0.95,2.3,1.33,3.48c0.18,0.57,0.62,1.16,0.14,1.79
		c-0.47,0.01,0.13,1.02-0.67,0.72C16.62,16.18,16.14,14.1,15.65,12.02z"/>
	<path class="st13" d="M12.23,16.59c0.17,0,0.33,0,0.5-0.01c0.64,1.14,1.19,2.31,1.49,3.59c-0.19-0.03-0.4-0.24-0.55,0.07
		c-0.07-0.02-0.13-0.04-0.2-0.07C12.47,19.18,12.26,17.92,12.23,16.59z"/>
	<path class="st14" d="M41.28,39.37c-0.68-0.63-0.82-1.64-0.27-1.91C41.1,38.1,41.19,38.74,41.28,39.37z"/>
	<path class="st15" d="M38.42,15.13c1.14,1.7,0.95,3.64,0.9,5.52c-0.09,3.37-0.3,6.74-0.46,10.1c-0.19,1.07-0.02,2.15-0.07,3.22
		c-0.72,2.66-0.68,5.34-0.11,8.02c0.09,0.42,0.38,0.68,0.61,1c0.45,1.55,0.09,3.05-0.24,4.56c-0.15,0.66-0.12,1.38-0.64,1.91
		c-0.46-0.03-0.63-0.39-0.67-0.73c-0.24-2.49-1.33-4.78-1.56-7.3c-0.24-2.75-0.21-5.45,0.23-8.16c0.33-2.01,0.37-4.03,0.31-6.05
		c-0.02-0.66-0.48-1.17-0.72-1.75c-0.36-0.37-0.26-0.82-0.16-1.24c0.53-2.22,0.77-4.46,0.79-6.74c0-0.52,0.11-1.03,0.27-1.52
		C37.15,15.19,37.58,14.79,38.42,15.13z"/>
	<path class="st16" d="M14.39,38.66c-2.37-4.58-3.47-9.62-5.22-14.42c0.18-1.55,0.45-1.86,1.63-1.89c1.35,3.99,2.17,8.13,3.63,12.08
		c0.38,1.04,0.94,2.02,1.42,3.03c0.13,0.27,0.35,0.39,0.64,0.48c3.39,1.04,6.63,2.47,9.94,3.74c1.08,0.41,1.95,1.05,2.48,2.18
		c-0.52,0.12-0.9-0.14-1.31-0.36c-1.67-1.36-3.74-1.46-5.72-1.84c-1.87-0.36-3.86-0.11-5.65-0.94
		C15.35,40.31,14.34,39.94,14.39,38.66z"/>
	<path class="st17" d="M20.71,9.8c0.38,0.98,0.77,1.96,1.15,2.93c0.17,0.7,0.35,1.4,0.52,2.1c-1.58-0.55-2.24,0.81-3.17,1.57
		c-0.3,0.25-0.48,0.64-0.95,0.64c-0.8-0.74-0.83-1.81-1.16-2.75c-0.22-0.63-0.44-1.26-0.43-1.94c0.61-0.79,1.22-1.57,2.03-2.19
		C19.32,9.71,19.96,9.48,20.71,9.8z"/>
	<path class="st18" d="M26.65,4.08c0.85-0.94,1.68-0.48,2.38,0.15c1.43,1.29,2.02,3,2.2,4.88c0.2,0.49,0.09,0.98,0.03,1.78
		c-1.19-1.26-2.63-0.91-3.88-1.28C27.14,7.77,26.89,5.93,26.65,4.08z"/>
	<path class="st19" d="M38.42,15.13c-0.73-0.09-1.02,0.28-1.23,0.96c-0.41,1.36-0.16,2.75-0.31,4.13c-0.19,1.77-0.63,3.48-0.87,5.24
		c-0.56,0.82-0.52,1.88-1.09,2.7c-0.27,0.38-0.44,0.94-1.01,0.85c-0.58-0.09-0.82-0.55-0.78-1.14c1.26,0.46,1.56,0.31,1.66-1.04
		c0.21-2.77,0.35-5.54,0.52-8.31c0.16-0.68,0.28-1.38,0.48-2.05C36.2,15.14,37.1,14.69,38.42,15.13z"/>
	<path class="st20" d="M27.38,9.62c1.33-0.25,2.62-0.29,3.84,0.84c0-0.52,0-0.93,0-1.34c0.34,1.59,0.38,3.22,0.54,4.83
		c-0.2,0.57,0.37,1.04,0.2,1.61c-0.02,0.16-0.04,0.32-0.06,0.48c-0.37-0.03-0.18-0.32-0.21-0.48c-0.33-1.68-1.29-2.36-2.99-2
		c-0.65,0.14-1.1,0.08-1.06-0.63C27.72,11.8,27.3,10.73,27.38,9.62z"/>
	<path class="st21" d="M12.23,16.59c0.41,1.2,0.82,2.39,1.23,3.59c-0.03,0.15-0.08,0.4-0.24,0.3c-0.97-0.65-2.06-0.53-3.13-0.53
		c-0.65-0.08-0.57-0.69-0.79-1.08c-0.29-0.78-0.75-1.49-1.05-2.26c-0.15-0.4-0.36-0.81-0.13-1.25c1.32-0.59,2.29,0.33,3.35,0.81
		c0.2,0.09,0.32,0.34,0.57,0.39C12.1,16.56,12.17,16.58,12.23,16.59z"/>
	<path class="st22" d="M18.26,29.82c1.2-0.12,1.69-0.74,1.7-1.98c0.04-3.53-1.26-6.76-2.14-10.08c0.23-0.19,0.46-0.16,0.68,0.03
		c1.03,2.84,2.1,5.65,2.78,8.61c0.27,1.18-0.16,2.13-0.68,3.01C20.07,30.3,19.13,30.15,18.26,29.82z"/>
	<path class="st23" d="M27.32,28.29c0.2-0.44,0.31-0.88,0.31-1.37c-0.02-3.37-0.02-6.73-0.03-10.1c-0.11-0.57-0.19-1.13,0.04-1.69
		c0.68,1.75,0.77,3.62,0.89,5.44c0.14,2.05,0.39,4.09,0.33,6.16C28.81,27.85,28.45,28.38,27.32,28.29z"/>
	<path class="st24" d="M14.39,38.66c1,1.95,2.86,2.2,4.74,2.4c2.68,0.28,5.4,0.38,7.84,1.71c0.27,0.15,0.84,0.13,0.64,0.73
		c-3.08-1.32-6.37-1.56-9.64-1.96c-1.84-0.23-3.57-0.82-4.3-2.82C13.89,38.36,14.16,38.73,14.39,38.66z"/>
	<path class="st25" d="M9.61,18.75c0.12,0.42,0.17,0.86,0.48,1.2c-0.01,0.87,0.58,1.57,0.72,2.4c-1.08,0.17-1.22,1.15-1.63,1.89
		c-0.4-1.2-0.79-2.41-1.19-3.61c0.17-0.42-0.08-0.78-0.17-1.15c-0.28-1.1-0.05-1.35,1.04-1.08C9.13,18.46,9.38,18.58,9.61,18.75z"/>
	<path class="st26" d="M38.41,49.46c0.08-0.64,0.17-1.28,0.25-1.91c0.78-0.29,0.8,0.39,1.01,0.81c0.41,0.82-0.06,1.71,0.18,2.55
		c-0.27,1.55-0.9,2.97-1.68,4.32c-0.34-0.51,0.04-0.96,0.15-1.42c0.11-0.51,0.18-0.93-0.37-1.21
		C37.86,51.51,38.35,50.51,38.41,49.46z"/>
	<path class="st27" d="M18.5,17.79c-0.23-0.01-0.45-0.02-0.68-0.03c-0.01-0.07-0.03-0.15-0.05-0.22c-0.28-1.82-1.05-3.5-1.47-5.28
		c-0.48-2.33-1.48-4.55-1.44-6.98c0-0.24,0.02-0.48,0.03-0.72c0.42-0.03,0.55,0.31,0.63,0.6c0.62,2.18,1.11,4.39,1.41,6.63
		c0.02,0.16-0.04,0.31-0.11,0.46c0.23,1.67,0.76,3.26,1.44,4.8C18.34,17.3,18.42,17.55,18.5,17.79z"/>
	<path class="st6" d="M27.63,15.13c-0.01,0.56-0.03,1.13-0.04,1.69c-0.44-0.86-0.12-1.77-0.21-2.65
		C27.68,14.43,27.58,14.8,27.63,15.13z"/>
	<path class="st28" d="M9.61,18.75c-0.58-0.04-1.35-0.32-1.69-0.06C7.53,19,8.21,19.66,8.17,20.21c-0.01,0.14-0.12,0.28-0.18,0.42
		c-0.35-1.19-0.71-2.37-1.06-3.56c-0.44-1.89-1.12-3.72-1.31-5.67c-0.06-0.61-0.22-1.3,0.66-1.53c0.17,0.11,0.36,0.21,0.41,0.41
		c0.35,1.51,0.95,2.93,1.45,4.39c0.08,0.23,0.09,0.47,0.03,0.7C8.41,16.61,9.13,17.63,9.61,18.75z"/>
	<path class="st29" d="M39.85,50.9c-0.48-0.73-0.09-1.63-0.46-2.4c-0.18-0.39-0.17-0.87-0.73-0.95c0.5-1.49,0.51-3.02,0.47-4.56
		c-0.51-0.76-0.52-1.66-0.57-2.51c-0.12-2.05,0.04-4.11-0.07-6.17c-0.01-0.16,0.08-0.3,0.16-0.44c-0.16-1.05-0.08-2.09,0.2-3.11
		c-0.1,1.41,0.37,2.73,0.63,4.09c0.92,4.76,1.68,9.54,0.65,14.4c-0.05,0.23,0.01,0.47,0.01,0.71C39.89,50.22,39.88,50.56,39.85,50.9
		z"/>
	<path class="st30" d="M16.83,12.26c-0.48-2.16-0.96-4.33-1.45-6.49c-0.1-0.42-0.15-0.86-0.48-1.2c0.01-0.59,0.39-0.69,0.88-0.73
		c1.38-0.1,3.05,0.9,3.64,2.25c0.53,1.2,1.02,2.42,1.28,3.71c-1.39,0-2.3,0.83-3.08,1.84C17.41,11.93,17.26,12.26,16.83,12.26z"/>
	<path class="st31" d="M8.17,15.38c-0.85-1.76-1.44-3.61-1.9-5.51c1.83-0.18,2.78,1.11,3.75,2.29c1.04,1.27,1.47,2.86,2.01,4.38
		c-0.85-0.06-1.49-0.64-2.28-0.89C9.23,15.49,8.73,15.35,8.17,15.38z"/>
	<path class="st32" d="M38.65,33.86c0.35,1.32,0.3,2.68,0.23,4.02c-0.08,1.71,0.21,3.4,0.24,5.1c-0.73-0.02-0.77-0.65-0.87-1.11
		c-0.52-2.48-0.38-4.98-0.05-7.47C38.24,34.14,38.43,33.97,38.65,33.86z"/>
</g>
</svg>
