<?xml version="1.0" encoding="utf-8"?>
<!-- Generator: Adobe Illustrator 23.0.2, SVG Export Plug-In . SVG Version: 6.00 Build 0)  -->
<svg version="1.1" id="Camada_1" xmlns="http://www.w3.org/2000/svg" xmlns:xlink="http://www.w3.org/1999/xlink" x="0px" y="0px"
	 viewBox="0 0 38.64 49.44" style="enable-background:new 0 0 38.64 49.44;" xml:space="preserve">
<style type="text/css">
	.st0{fill:#204003;}
	.st1{fill:#224105;}
	.st2{fill:#085288;}
	.st3{fill:#323232;}
	.st4{fill:#343434;}
	.st5{fill:#075289;}
	.st6{fill:#1C3C05;}
	.st7{fill:#254405;}
	.st8{fill:#343435;}
	.st9{fill:#213F06;}
	.st10{fill:#323034;}
	.st11{fill:#70A83B;}
	.st12{fill:#508222;}
	.st13{fill:#898989;}
	.st14{fill:#626261;}
	.st15{fill:#54811E;}
	.st16{fill:#44B1D3;}
	.st17{fill:#528423;}
	.st18{fill:#8C8B8D;}
	.st19{fill:#2BF0E8;}
	.st20{fill:#F8FA02;}
	.st21{fill:#70A83C;}
	.st22{fill:#08518B;}
	.st23{fill:#6DA63D;}
	.st24{fill:#E7EC02;}
	.st25{fill:#F9FB02;}
	.st26{fill:#D5DF07;}
	.st27{fill:#636363;}
	.st28{fill:#538622;}
	.st29{fill:#47CB97;}
	.st30{fill:#234023;}
	.st31{fill:#8C8C8D;}
	.st32{fill:#2FE3D1;}
	.st33{fill:#538321;}
	.st34{fill:#F4F804;}
	.st35{fill:#26F1ED;}
	.st36{fill:#30CDB4;}
	.st37{fill:#ECF205;}
	.st38{fill:#2CF7F2;}
	.st39{fill:#DEE507;}
	.st40{fill:#78B33E;}
	.st41{fill:#4E9035;}
	.st42{fill:#2DF3ED;}
	.st43{fill:#42AED1;}
	.st44{fill:#2DFBF8;}
	.st45{fill:#274B14;}
	.st46{fill:#E2F3F3;}
	.st47{fill:#2FF0F5;}
	.st48{fill:#D6E9F2;}
	.st49{fill:#508323;}
	.st50{fill:#4F8426;}
	.st51{fill:#C2D513;}
	.st52{fill:#2BDED4;}
	.st53{fill:#33E4D0;}
	.st54{fill:#E1E805;}
	.st55{fill:#30D8C1;}
	.st56{fill:#616161;}
	.st57{fill:#8B8B8B;}
	.st58{fill:#70A93B;}
	.st59{fill:#938C87;}
	.st60{fill:#05528C;}
	.st61{fill:#D6ECF3;}
	.st62{fill:#25F7EA;}
	.st63{fill:#888887;}
</style>
<g>
	<path d="M22.36,11.04c-1.44,0-2.87-0.22-4.29-0.41c-0.47-0.06-0.82-0.14-0.89,0.55c-0.38,3.61-0.81,7.22-1.25,10.83
		c-0.06,0.49,0.01,0.84,0.38,1.17c0.6,0.52,0.71,1.2,0.59,1.96c-0.15,0.91-0.17,1.84-0.41,2.72c-0.36,1.32,0.41,2.18,1.06,3.12
		c0.22,0.33,0.48,0.25,0.73,0.14c2.85-1.33,5.71-2.61,8.78-3.35c0.4-0.1,0.37-0.47,0.49-0.76c0.52-1.22,1.19-2.35,2.24-3.2
		c1.82-1.48,3.73-1.19,5.49,0.38c1.59,1.42,2.58,2.96,2.27,5.07c-0.26,1.78-0.92,3.46-2.23,4.79c-1.31,1.33-2.91,1.58-4.64,1.07
		c-0.63-0.18-1.1-0.05-1.68,0.25c-2.95,1.56-5.81,3.38-8.98,4.41c-1.66,0.54-1.98,1.38-2.21,2.87c-0.42,2.66-2.35,4.34-4.59,5.47
		c-1.64,0.83-3.19-0.27-4.53-1.14c-1.87-1.2-2.69-3.01-3.06-5.27c-0.3-1.83-0.34-3.5,0.23-5.22c0.13-0.39,0.24-0.85,0.55-1.04
		c1.13-0.69,0.86-1.7,0.92-2.77c0.13-2.39,0.49-4.76,0.8-7.14c0.16-1.22,0.11-2.4,1.21-3.46c0.63-0.61,0.42-2.12,0.56-3.23
		c0.32-2.62,0.59-5.24,0.95-7.85c0.12-0.89-0.09-1.12-1-1.22C7.84,9.55,5.83,9.19,3.84,8.79C2.11,8.44,1.09,6.56,1.87,5
		c1.45-2.92,2.57-3.94,6.16-3.32c1.25,0.22,2.52,0.4,3.77,0.62c0.08,0.01,0.16,0.01,0.24,0.04c3.73,1.31,7.69,0.41,11.5,1.22
		c2.92,0.61,4.44,2.35,3.7,5.07c-0.33,1.2-1.05,2-2.37,2.21C24.03,10.98,23.2,11.02,22.36,11.04z"/>
	<path class="st0" d="M29.63,33.58c-3.24,1.93-6.58,3.67-10.02,5.22c-1.03,0.47-1.93-0.03-2.88-0.18c-0.35-0.11-0.47-0.35-0.39-0.7
		c0.31-0.45,0.84-0.08,1.35-0.42c-0.81-1.48-2.1-2.67-2.73-4.24c-0.47,0.8-0.24,1.29,0.54,1.8c1.21,0.8,1.35,1.41,0.99,2.61
		c-0.59,0.24-0.82-0.16-1.06-0.57c-0.16-1.06-0.96-1.41-1.86-1.64c-0.38-0.13-0.74-0.4-1.18-0.24c-0.58,0.11-1.13,0.02-1.68-0.18
		c-0.27-0.09-0.52-0.21-0.77-0.34c-0.34-0.17-0.68-0.36-0.93-0.66c-0.76-0.76-0.56-1.72-0.47-2.6c0.26-2.48,0.62-4.95,0.92-7.42
		c0.06-0.46,0.25-0.74,0.72-0.8c0.4-0.2,0.77-0.47,1.19-0.65c0.33-0.12,0.65-0.23,1-0.29c0.43-0.05,0.81,0.07,1.18,0.27
		c0.34,0.21,0.68,0.4,0.99,0.66c1.11,0.68,1.4,1.59,1.01,2.86c-0.24,0.78-0.21,1.65-0.32,2.48c-0.21,1.69,1.17,2.6,1.89,3.83
		c0.26,0.44,0.79,0.16,1.2-0.02c2.75-1.17,5.39-2.64,8.35-3.18c1.18-0.21,1.74-0.68,2.06-1.83c0.37-1.33,1.22-2.41,2.48-3.1
		c0.9-0.5,1.78-0.32,2.64,0.05c0.29,0.13,0.4,0.4,0.07,0.65c-0.16,0.44-0.43,0.83-0.61,1.26c-0.56,0.72-0.96,1.53-1.34,2.35
		c-0.2,0.41-0.25,0.78,0.39,0.78c0.44,0.12,0.72,0.38,0.77,0.85c-0.01,0.12-0.05,0.23-0.11,0.33c-0.22,0.24-0.51,0.39-0.81,0.5
		c-3.76,1.4-7.15,3.57-10.76,5.27c-0.33,0.15-0.66,0.29-0.99,0.43c-0.91,0.36-1.61,0.15-2.17-0.69c-0.96-1.46-1.87-2.96-2.97-4.33
		c0.67,1.72,1.9,3.1,2.92,4.6c0.38,0.41,0.37,1.07,0.92,1.36c0.15-0.04,0.29-0.08,0.44-0.11c1.34-0.44,2.51-1.24,3.8-1.79
		c1.85-0.63,3.4-1.85,5.19-2.61c0.46-0.2,0.87-0.59,1.44-0.38C30.36,33.27,29.83,33.35,29.63,33.58z"/>
	<path class="st1" d="M11.9,8.8C9.29,8.61,6.71,8.12,4.15,7.62C2.99,7.39,2.64,6.47,3.12,5.41c0.33-0.72,0.49-1.55,1.21-2.01
		C5.2,2.82,6.07,2.48,7.22,2.77c1.64,0.41,3.36,0.55,5.05,0.79c0.53,0.08,1.01,0.22,1.31,0.71c-0.6,0.56-1.35,0.07-2,0.3
		c-0.94,0.26-1,1.04-1.08,1.8c0,0.42,0.08,0.8,0.4,1.09c0.42,0.39,0.97,0.34,1.48,0.39c0.17,0.03,0.33,0.09,0.46,0.2
		C12.9,8.78,12.32,8.7,11.9,8.8z"/>
	<path class="st2" d="M15.47,36.92c0.29,0.25,0.58,0.51,0.87,0.76c0.1,0.01,0.15,0.04,0.14,0.1c-0.01,0.07-0.03,0.1-0.06,0.1
		c0.1,0.25,0.2,0.49,0.3,0.74c0.74,3.89-0.54,6.57-4.03,8.37c-0.17,0.09-0.36,0.18-0.55,0.18c-2.94,0.07-5.74-3.48-5.03-6.37
		c0.29-0.13,0.46,0.04,0.6,0.26c0.25,1.26,0.54,2.48,1.5,3.45c1.09,1.1,2.32,1.49,3.8,1.04c2.55-1.42,3.68-4.87,2.35-7.19
		c-0.16-0.34-0.36-0.65-0.73-0.81c-0.24-0.14-0.56-0.18-0.64-0.52c0.36-0.54,0.84-0.44,1.34-0.25
		C15.38,36.83,15.42,36.88,15.47,36.92z"/>
	<path class="st3" d="M11.9,8.8c0.31-0.23,0.63-0.45,0.94-0.68c0.29-0.03,0.35,0.18,0.4,0.4c-0.16,3.61-0.62,7.2-1.15,10.77
		c-0.17,1.17,0,2.4-0.68,3.47c-0.31,0.39-0.73,0.5-1.21,0.47c0.7-0.64,0.56-1.56,0.67-2.34c0.48-3.41,0.86-6.83,1.22-10.25
		C12.15,10.04,12.35,9.37,11.9,8.8z"/>
	<path class="st4" d="M14.55,23.22c-0.42,0.06-0.78-0.02-1.01-0.42c0.61-4.6,1.12-9.21,1.67-13.82c0.03-0.13,0.09-0.25,0.17-0.36
		c0.7-0.32,1.09-0.02,1.28,0.66c-0.42,0.06-0.43,0.38-0.46,0.71c-0.47,4.06-0.95,8.12-1.44,12.18
		C14.7,22.52,14.62,22.87,14.55,23.22z"/>
	<path class="st5" d="M33.25,26.07c-0.1-0.57,0.21-0.88,0.68-1.11c1.66,0.61,2.47,1.89,2.4,3.57c-0.09,2.08-0.72,4.01-2.59,5.24
		c-1.07,0.71-2.21,0.34-3.33,0.06c-0.26-0.07-0.52-0.16-0.78-0.25c0.16-0.26,0.33-0.52,0.49-0.78c0.04-0.03,0.09-0.07,0.13-0.1
		c0.22-0.08,0.43-0.06,0.63,0.07c0.63,0.51,1.31,0.61,2.05,0.24c2.21-1.34,3.02-4.39,1.7-6.4c-0.32-0.43-0.8-0.41-1.26-0.45
		C33.33,26.14,33.29,26.1,33.25,26.07z"/>
	<path class="st6" d="M15.72,4.55c0.57-0.58,1.29-0.57,2.01-0.49c2.01,0.23,4.02,0.46,6.02,0.73c1.97,0.27,2.93,1.8,2.29,3.57
		c-0.57-0.34-0.42-1-0.68-1.48c-0.38-0.5-0.71-1.09-1.5-0.91c-0.94,0.52-1.2,1.33-1.03,2.33c0.01,0.12,0.01,0.23-0.02,0.35
		c-0.07,0.18-0.21,0.28-0.4,0.31c-0.26-0.02-0.45-0.15-0.59-0.37c-0.08-0.16-0.12-0.33-0.14-0.5c-0.03-0.43-0.05-0.88,0.14-1.26
		c0.41-0.8,0.04-1.11-0.69-1.25c-1.24-0.63-2.63-0.39-3.92-0.68c-0.65,0.15-0.7,1.03-1.38,1.15c-0.13-0.03-0.22-0.1-0.28-0.22
		C15.38,5.37,15.38,4.93,15.72,4.55z"/>
	<path class="st7" d="M15.73,5.96c0.06,0,0.13,0,0.19,0c0.41,0.33,0.34,0.81,0.36,1.25c0.02,0.34-0.03,0.7,0.27,0.96
		c1.22,0.12,2.42,0.36,3.65,0.35c0.77-0.12,1.45,0.34,2.21,0.33c0.1-0.1,0.2-0.21,0.3-0.31c0.58-0.01,1.15,0.49,1.75,0.08
		c0.68-0.37,0.79-1.04,0.92-1.71c0.05-0.1,0.12-0.18,0.23-0.22c0.14,0.56,0.29,1.12,0.43,1.69c-0.39,1.53-1.72,1.31-2.79,1.42
		c-2.22,0.23-4.4-0.3-6.6-0.5C16.3,9,15.97,8.67,15.5,8.57C14.86,7.85,14.92,7.17,15.73,5.96z"/>
	<path class="st8" d="M15.73,5.96c0.06,0.88-0.8,1.69-0.23,2.61c0,0-0.02,0.02-0.02,0.02c-0.26,0.24-0.58,0.31-0.92,0.29
		c-0.51-0.08-1.04-0.13-1.46-0.48c-0.09-0.1-0.17-0.19-0.26-0.29c-0.16,0-0.32-0.01-0.48-0.01c-0.52-0.25-1.21-0.07-1.6-0.64
		c-0.14-0.33-0.34-0.65-0.32-1.04c-0.12-0.89,0.33-1.53,0.91-2.12c0.73-0.37,1.48,0.08,2.22-0.04c0.71,0.09,1.43,0.18,2.14,0.28
		C15.72,5.02,15.73,5.49,15.73,5.96z"/>
	<path class="st9" d="M7.6,41.05c-0.16-0.08-0.32-0.16-0.48-0.23c-0.2-0.18-0.47-0.33-0.6-0.56c-0.58-1.02,0.64-4.28,1.77-4.77
		c0.13,0.14,0.18,0.3,0.17,0.49c-0.38,0.91-0.82,1.8-0.99,2.79c-0.09,0.55-0.08,1.03,0.57,1.25c0.64,0.21,0.93-0.12,1.22-0.63
		c0.79-1.39,1.8-2.51,3.57-2.53c0.08,0.1,0.11,0.21,0.08,0.33c-0.23,0.46-0.72,0.59-1.08,0.89c-0.75,0.62-1.33,1.35-1.55,2.32
		c-0.16,0.7-0.52,1.14-1.29,1.11C8.5,41.43,8,41.37,7.6,41.05z"/>
	<path class="st10" d="M8.31,35.98c0-0.16-0.01-0.33-0.01-0.49c0.62-0.29,0.77-0.81,0.73-1.44c0.36,0.02,0.66,0.18,0.93,0.39
		c-0.04,0.61-0.04,1.2,0.76,1.33c0.84,0.22,1.56,0.2,1.88-0.79c0.47-0.44,0.62,0.21,0.94,0.27c0.2,0.39,0.05,0.74-0.15,1.07
		C11.61,37.43,9.93,37.09,8.31,35.98z"/>
	<path class="st11" d="M10.89,34.08c-0.5-0.15-0.96-0.37-1.36-0.7c-0.03-0.2-0.09-0.4-0.11-0.61c-0.02-2.13,0.32-4.24,0.39-6.37
		c0.36-0.88-0.32-2.11,0.91-2.7c0.78-0.12,1.56-0.39,2.35-0.07c0.48,0.88-0.07,1.71-0.13,2.56c-0.19,2.35-0.66,4.66-1.14,6.96
		C11.7,33.6,11.72,34.28,10.89,34.08z"/>
	<path class="st12" d="M10.89,34.08c1-0.82,0.7-2.06,0.96-3.11c0.61-2.36,0.56-4.85,1.24-7.2c1.43,0.15,1.65,0.45,1.66,2.14
		c-0.38,2.62-0.41,5.3-1.18,7.87C12.75,34.5,11.83,34.42,10.89,34.08z"/>
	<path class="st13" d="M13.1,8.41c0.5-0.14,0.95,0.11,1.42,0.19c0.43,0.52,0.38,1.12,0.26,1.71c-0.75,3.5-1.16,7.05-1.8,10.57
		c-0.11,0.58-0.18,1.19-0.61,1.65c-0.28,0.24-0.61,0.27-0.96,0.23c0.17-1.65,0.28-3.32,0.52-4.96c0.43-2.98,0.75-5.97,0.97-8.97
		C12.9,8.68,13.03,8.55,13.1,8.41z"/>
	<path class="st14" d="M12.36,22.53c0.67-3.97,1.32-7.95,2.03-11.92c0.12-0.68,0.11-1.34,0.13-2.01c0.32,0,0.64,0,0.96,0
		c-0.02,2.71-0.58,5.37-0.82,8.07c-0.16,1.74-0.42,3.47-0.62,5.21c-0.04,0.39,0.06,0.83-0.51,0.93
		C13.14,22.71,12.75,22.62,12.36,22.53z"/>
	<path class="st15" d="M19.53,37.87c-0.12,0.01-0.24,0.01-0.36,0.02c-0.49-0.41-0.57-1.15-1.19-1.45c-0.98-1.39-1.95-2.78-2.94-4.16
		c-0.29-0.4-0.47-0.88-0.02-1.14c0.37-0.22,0.72,0.24,0.89,0.56c0.77,1.49,1.81,2.81,2.66,4.24c0.43,0.71,0.93,0.86,1.7,0.54
		c1.99-0.83,3.9-1.81,5.78-2.87c2.23-1.25,4.55-2.27,6.94-3.17c0.13,0.15,0.14,0.33,0.07,0.51c-0.48,0.56-1.12,0.91-1.79,1.14
		c-2.48,0.86-4.73,2.18-7.02,3.43c-0.24,0.13-0.5,0.23-0.77,0.31C22.19,36.53,20.82,37.12,19.53,37.87z"/>
	<path class="st16" d="M34.74,26.33c1.13,0.96,0.87,2.22,0.67,3.41c-0.26,1.54-0.87,2.88-2.42,3.57c-0.55-0.09-1.24,0.14-1.5-0.63
		c0.33-0.87,1.49-0.8,1.86-1.63c0.45-0.54,1.03-1.01,1.02-1.81c-0.01-0.44,0-0.92-0.54-1.06c-0.45-0.11-0.74,0.18-0.96,0.54
		c-0.16,0.27-0.27,0.57-0.51,0.79c-0.93,0.14-1.1,0.03-0.81-0.67c0.42-1.01,0.8-2.07,1.71-2.78c0.01,0.05,0.01,0.1,0.01,0.15
		C33.74,26.46,34.23,26.47,34.74,26.33z"/>
	<path class="st11" d="M22.71,34.49c-0.76,0.68-1.75,0.88-2.62,1.33c-0.45,0.23-0.69-0.08-0.9-0.34c-0.54-0.67-1.02-1.38-1.61-2.2
		c1.2-0.25,2.18-0.72,3.18-1.14C21.75,32.64,22.35,33.46,22.71,34.49z"/>
	<path class="st17" d="M32.05,26.12c-0.35,1.01-1,1.87-1.33,2.92c-0.2,0.65-0.99,0.18-1.48,0.14c-0.48-0.04-0.25-0.47-0.16-0.76
		c0.38-1.19,0.9-2.3,1.95-3.07c0.05,0.02,0.1,0.04,0.15,0.05C31.5,25.61,31.92,25.7,32.05,26.12z"/>
	<path class="st11" d="M27.7,31.94c-0.71,0.39-1.41,0.78-2.12,1.18c-0.05-0.02-0.11-0.03-0.17-0.05c-0.7-0.62-1.63-1.06-1.79-2.14
		c0.7-0.42,1.42-0.78,2.23-0.95C26.78,30.34,27.25,31.13,27.7,31.94z"/>
	<path class="st18" d="M16.43,37.89c-0.02-0.07-0.05-0.14-0.09-0.21c0.29-1.55-0.3-2.35-2.33-3.08c0.54-0.5,0.59-1.19,0.8-2.08
		c0.89,1.66,1.85,3.01,2.86,4.33c0.24,0.32,0.68,0.75,0.35,1.15c-0.26,0.33-0.74-0.03-1.12-0.08
		C16.74,37.92,16.58,37.91,16.43,37.89z"/>
	<path class="st19" d="M23.41,35.76c3.05-1.9,6.37-3.28,9.6-4.82c0.28,0.5-0.09,0.7-0.44,0.9c-0.78,0.45-1.61,0.76-2.47,1
		c0,0,0.01-0.03,0.01-0.03c-2.23,1.09-4.47,2.18-6.7,3.27C23.31,35.98,23.31,35.87,23.41,35.76z"/>
	<path class="st20" d="M22.71,34.49c-0.65-0.78-1.31-1.57-1.96-2.35c0.4-0.18,0.8-0.36,1.2-0.54c1.1,0.37,1.85,1.07,2.17,2.2
		C23.68,34.08,23.26,34.41,22.71,34.49z"/>
	<path class="st21" d="M26.53,29.62c1.66-0.16,3.22,0.59,4.93,0.63c-1.01,0.45-2.02,0.89-3.03,1.34
		C27.76,30.98,27.02,30.42,26.53,29.62z"/>
	<path class="st22" d="M32.35,29.52c0.03-0.82,0.32-1.48,1.19-1.71c0.43-0.11,0.85,0.05,0.99,0.46c0.28,0.82,0.26,1.64-0.37,2.33
		c-0.19,0.21-0.4,0.38-0.6,0.57c-0.48-0.16-0.31-0.69-0.55-0.99C32.89,29.87,32.62,29.69,32.35,29.52z"/>
	<path class="st23" d="M24.13,33.8c-0.72-0.73-1.45-1.47-2.17-2.2c0.35-0.26,0.73-0.46,1.18-0.46c1.08,0.29,1.49,1.42,2.4,1.92
		c0,0,0.05,0.05,0.05,0.05C25.1,33.34,24.61,33.57,24.13,33.8z"/>
	<path class="st24" d="M13.58,33.79c-0.33-0.96,0.12-1.86,0.32-2.74c0.4-1.7,0.22-3.46,0.65-5.15c0.6,0.21,0.27,0.64,0.23,1
		c-0.2,1.99-0.41,3.99-0.6,5.98C14.14,33.3,14.03,33.65,13.58,33.79z"/>
	<path class="st25" d="M26.53,29.62c0.86,0.44,1.61,0.98,1.9,1.97c-0.24,0.12-0.49,0.23-0.74,0.35c-0.82-0.46-1.17-1.37-1.85-1.96
		C26.08,29.86,26.31,29.74,26.53,29.62z"/>
	<path class="st26" d="M14.79,26.9c-0.09-0.33,0.1-0.73-0.23-1c0.24-1.21-0.34-1.85-1.46-2.12c-0.79-0.02-1.59-0.05-2.38-0.07
		c0.73-0.44,1.55-0.5,2.35-0.38C14.85,23.6,15.36,24.69,14.79,26.9z"/>
	<path class="st27" d="M12.6,34.98c0.57,0.68-0.01,0.89-0.48,1.08c-0.48,0.2-0.99,0.25-1.47-0.04c0-0.41-0.15-0.83,0.03-1.24
		C11.3,34.97,11.94,35.09,12.6,34.98z"/>
	<path class="st28" d="M13.31,36.16c0.08-0.31,0.15-0.61,0.23-0.92c1.07-0.09,1.64,0.64,2.2,1.36c0.2,0.26-0.08,0.29-0.27,0.32
		c0,0,0.02,0.01,0.02,0.01c-0.64-0.56-1.52,0.05-2.19-0.43C13.2,36.38,13.2,36.27,13.31,36.16z"/>
	<path class="st29" d="M9.8,26.4c0.42,0.86-0.04,1.7-0.07,2.55c-0.04,1.38-0.04,2.76-0.06,4.14c-0.55-0.14-0.41-0.55-0.37-0.92
		c0.06-0.5,0.11-0.99-0.03-1.49C9.46,29.26,9.63,27.83,9.8,26.4z"/>
	<path class="st30" d="M33.01,30.19c0.18,0.33,0.37,0.66,0.55,0.99c-0.34,0.94-1.39,0.9-2.01,1.45c-0.16,0.21-0.36,0.27-0.62,0.21
		c-0.27,0-0.55,0-0.82,0c0.61-0.51,1.4-0.67,2.08-1.04c0.35-0.19,0.89-0.24,0.82-0.85c0-0.17-0.01-0.33-0.01-0.5
		C33,30.36,33.01,30.27,33.01,30.19z"/>
	<path class="st31" d="M10.68,34.78c0.23,0.42,0.43,0.84-0.03,1.24c-0.98-0.2-1.47-0.61-0.69-1.58
		C10.2,34.56,10.44,34.67,10.68,34.78z"/>
	<path class="st32" d="M23.41,35.76c0,0.11,0.01,0.21,0.01,0.32c-1.3,0.59-2.47,1.46-3.89,1.79C20.72,36.97,22.06,36.36,23.41,35.76
		z"/>
	<path class="st33" d="M31.04,25.35c0.15-0.13,0.28-0.28,0.44-0.37c0.44-0.26,1.03-0.55,1.37-0.11c0.26,0.34-0.31,0.69-0.55,1.02
		c-0.42-0.07-0.81-0.23-1.18-0.44C31.09,25.41,31.06,25.38,31.04,25.35z"/>
	<path class="st34" d="M25.53,33.06c-1.1-0.27-1.48-1.43-2.4-1.92c0.1-0.21,0.29-0.22,0.49-0.21
		C24.16,31.73,25.08,32.19,25.53,33.06z"/>
	<path class="st35" d="M9.29,30.68c0.53,0.74-0.11,1.67,0.39,2.41c-0.05,0.1-0.1,0.19-0.15,0.29c-0.69-0.33-0.44-0.89-0.37-1.42
		C9.21,31.54,9.24,31.11,9.29,30.68z"/>
	<path class="st36" d="M17.99,36.43c0.69,0.24,1.05,0.76,1.19,1.45c-0.13,0.25-0.38,0.77-0.5,0.15
		C18.55,37.41,18.22,36.96,17.99,36.43z"/>
	<path class="st37" d="M31.12,25.44c0.51-0.18,0.88,0.03,1.18,0.44c-0.08,0.08-0.17,0.16-0.25,0.24
		C31.82,25.8,31.03,26.22,31.12,25.44z"/>
	<path class="st11" d="M10.35,4.27c-0.31,0.47-0.79,0.84-0.89,1.44C9.39,6.39,9.05,6.62,8.35,6.54C7.04,6.39,5.81,5.86,4.48,5.8
		C3.95,5.77,4.05,5.34,4.18,4.98C4.33,4.3,4.69,3.8,5.41,3.61C7.08,3.62,8.71,3.96,10.35,4.27z"/>
	<path class="st12" d="M4.18,4.98c0.05,0.18,0.12,0.53,0.15,0.52c1.54-0.17,2.9,0.68,4.41,0.76C9.29,6.3,9.21,5.88,9.46,5.71
		c0.01,0.56,0.01,1.12,0.02,1.67C7.65,7.25,5.82,7.07,4.02,6.71C4.01,6.13,3.77,5.53,4.18,4.98z"/>
	<path class="st38" d="M4.02,6.71c1.89-0.35,3.66,0.28,5.47,0.68c0.01,0.23,0.03,0.58-0.31,0.46C7.7,7.3,6.14,7.48,4.64,7.17
		C4.34,7.11,4.13,7,4.02,6.71z"/>
	<path class="st39" d="M10.35,4.27C8.68,4.2,7.05,3.89,5.41,3.61C7.11,3.43,8.76,3.59,10.35,4.27z"/>
	<path class="st40" d="M11.35,4.31c-0.16,0.73-0.94,1.25-0.71,2.11c-0.13,0.16-0.27,0.16-0.41,0.01C10.18,5.5,10.32,4.67,11.35,4.31
		z"/>
	<path class="st41" d="M10.23,6.43c0.14,0,0.27,0,0.41-0.01c0.1,0.37,0.19,0.75,0.29,1.12c-0.08,0.04-0.16,0.07-0.25,0.08
		C10.31,7.31,10.15,6.91,10.23,6.43z"/>
	<path class="st42" d="M10.68,7.62c0.08-0.03,0.16-0.05,0.25-0.08c0.44,0.28,1.1,0.03,1.44,0.57C11.69,8.35,11.14,8.14,10.68,7.62z"
		/>
	<path class="st43" d="M8.99,41.24c0.33-0.03,0.79,0.14,0.86-0.39c0.25-1.86,1.46-2.92,2.99-3.74c0.4-0.34,0.8-0.55,1.22-0.03
		c0.24,0.1,0.49,0.2,0.73,0.3c-0.08,0.34-0.12,0.71-0.49,0.89c-1.88,0.14-3.11,1.72-2.75,3.54c0.12,0.59,0.36,1.14,0.5,1.73
		c0.06,1.09,0.52,0.37,0.86,0.18c2.05-0.73,2.81-2.59,1.9-4.6c-0.15-0.34-0.52-0.65-0.21-1.09c0.31-0.19,0.6-0.15,0.87,0.09
		c0.32,0.25,0.57,0.53,0.68,0.94c0.68,2.46-0.72,5.62-3,6.76C10.31,45.72,8.66,43.9,8.99,41.24z"/>
	<path class="st44" d="M8.99,41.24c0.5,0.89,0.1,2,0.98,2.87c0.93,0.92,1.94,1.47,3.17,1.72c-2.41,0.94-5.32-1.07-5.52-3.82
		C7.6,41.68,7.6,41.36,7.6,41.05C8.09,40.89,8.53,41.13,8.99,41.24z"/>
	<path class="st45" d="M14.05,37.08c-0.41,0.01-0.81,0.02-1.22,0.03c0-0.09-0.01-0.18-0.01-0.28c0.01-0.33,0.31-0.29,0.5-0.38
		c0.73,0.11,1.59-0.39,2.15,0.48C15,36.97,14.5,36.78,14.05,37.08z"/>
	<path class="st46" d="M14.53,38.12c-0.19-0.35-0.06-0.58,0.26-0.74c0.41,0.08,0.81,0.18,0.67,0.75
		C15.15,38.12,14.83,38.12,14.53,38.12C14.52,38.11,14.53,38.12,14.53,38.12z"/>
	<path class="st47" d="M30.93,32.84c0.17-0.17,0.37-0.26,0.62-0.21c0.35,0.52,1.05,0.28,1.45,0.69c-0.73,0.55-1.47,0.11-2.18-0.04
		C30.53,33.22,30.86,32.98,30.93,32.84z"/>
	<path class="st48" d="M34.74,26.33c-0.55,0.69-1.05,0.66-1.48-0.11C33.79,25.78,34.29,25.76,34.74,26.33z"/>
	<path class="st11" d="M15.97,7.39c-0.02-0.48-0.03-0.96-0.05-1.44c0.31-0.47,0.53-1.01,0.99-1.37c1.04,0.45,2.18,0.31,3.27,0.52
		c0.4,0.07,0.78,0.1,1.1,0.37c0.43,0,0.85,0,1.39,0c-0.39,0.91-0.82,1.71-0.74,2.63c-0.23,0.22-0.5,0.18-0.77,0.14
		C19.43,7.97,17.69,7.71,15.97,7.39z"/>
	<path class="st49" d="M25.56,6.92c0.14,0.89-0.17,1.55-1,1.94c-0.7,0.21-1.27-0.07-1.81-0.47c-0.54-1.19-0.19-2.04,1.12-2.68
		C24.72,5.7,25.11,6.36,25.56,6.92z"/>
	<path class="st50" d="M15.97,7.39c0.81-0.42,1.62-0.07,2.41,0.04c1.2,0.15,2.38,0.44,3.56,0.68c0.02,0.15,0.05,0.3,0.07,0.45
		c-0.35,0.4-0.79,0.09-1.18,0.15c-1.56-0.08-3.11-0.36-4.68-0.35C15.87,8.07,16,7.72,15.97,7.39z"/>
	<path class="st51" d="M21.28,5.48C20.16,5.32,19.03,5.17,17.91,5c-0.36-0.05-0.83,0.13-0.99-0.41c1.22,0.14,2.44,0.27,3.66,0.4
		C20.9,5.03,21.22,5.06,21.28,5.48z"/>
	<path class="st52" d="M22.75,8.4c0.6,0.16,1.21,0.31,1.81,0.47c-0.72,0.48-1.31,0.21-1.85-0.33C22.74,8.49,22.75,8.44,22.75,8.4z"
		/>
	<path class="st53" d="M20.84,8.56c0.39,0,0.78-0.01,1.17-0.01c0.14,0.1,0.27,0.19,0.41,0.29C21.7,9.27,21,8.78,20.29,8.81
		C20.3,8.34,20.6,8.52,20.84,8.56z"/>
	<path class="st54" d="M25.56,6.92c-0.59-0.36-0.97-1.03-1.69-1.21c0.99-0.42,1.29,0.42,1.74,0.96C25.59,6.76,25.58,6.84,25.56,6.92
		z"/>
	<path class="st55" d="M20.84,8.56c-0.18,0.08-0.36,0.16-0.55,0.24c-1.39-0.05-2.79-0.03-4.14-0.46C17.73,7.95,19.28,8.4,20.84,8.56
		z"/>
	<path class="st56" d="M15.19,6.17c0.24,1.03-0.21,1.3-1.19,1.26c-0.66-0.03-1.3-0.19-1.98-0.18c-0.73,0.01-0.6-0.75-0.62-1.29
		c0.11-0.17,0.27-0.4,0.44-0.35C12.94,5.92,14.14,5.64,15.19,6.17z"/>
	<path class="st57" d="M15.19,6.17c-1.05,0-2.13,0.22-3.12-0.34c-0.24-0.13-0.45,0.06-0.67,0.13c0.26-0.95,0.94-1.15,1.81-1.01
		c0.47,0.08,0.93,0.27,1.39,0.24C15.53,5.13,15.44,5.57,15.19,6.17z"/>
	<path class="st58" d="M13.33,36.45c-0.17,0.13-0.34,0.26-0.5,0.38c-1.58,0.65-3,1.49-3.54,3.25c-0.21,0.7-0.66,0.39-1.04,0.29
		c-0.55-0.13-1.28-0.09-1.15-1c0.18-1.21,0.32-2.44,1.21-3.4c0.26-0.01,0.49-0.29,0.78-0.04c1.35,1.17,2.78,0.87,4.23,0.22
		C13.32,36.26,13.32,36.35,13.33,36.45z"/>
	<path class="st59" d="M32.95,29.54c0.02-0.65,0.22-1.08,0.75-1.17c0.29-0.05,0.32,0.3,0.3,0.53C33.96,29.66,33.4,29.41,32.95,29.54
		z"/>
	<path class="st60" d="M14.52,38.11c0.89,1.08,1.14,2.27,0.77,3.64c-0.41,1.49-0.93,2-2.51,2.18c-0.37,0.17-0.64,0.02-0.87-0.27
		c-1.14-2.37-1-3.55,0.51-5.03C13.04,38.02,13.69,37.75,14.52,38.11C14.53,38.12,14.52,38.11,14.52,38.11z"/>
	<path class="st61" d="M11.9,43.67c0.29,0.09,0.58,0.18,0.87,0.27c0.02,0.54-0.28,0.72-0.74,0.57
		C11.54,44.34,11.69,43.99,11.9,43.67z"/>
	<path class="st62" d="M8.63,37.65C8.22,37.66,8.02,37.5,8,37.17c-0.02-0.36,0.21-0.47,0.52-0.47c0.28,0,0.62,0.06,0.64,0.36
		C9.18,37.41,8.86,37.57,8.63,37.65z"/>
	<path class="st63" d="M14.73,40.54c-0.01,1.53-0.64,2.61-1.53,2.62c-0.77,0.01-1.31-0.85-1.3-2.09c0.01-1.14,0.78-2.02,1.76-2.02
		C14.48,39.05,14.74,39.42,14.73,40.54z"/>
</g>
</svg>
