<?xml version="1.0" encoding="utf-8"?>
<!-- Generator: Adobe Illustrator 23.0.2, SVG Export Plug-In . SVG Version: 6.00 Build 0)  -->
<svg version="1.1" id="Camada_1" xmlns="http://www.w3.org/2000/svg" xmlns:xlink="http://www.w3.org/1999/xlink" x="0px" y="0px"
	 viewBox="0 0 38.31 49.22" style="enable-background:new 0 0 38.31 49.22;" xml:space="preserve">
<style type="text/css">
	.st0{fill:#FEFEFE;}
	.st1{fill:#203F04;}
	.st2{fill:#214005;}
	.st3{fill:#224005;}
	.st4{fill:#085187;}
	.st5{fill:#323232;}
	.st6{fill:#343434;}
	.st7{fill:#075289;}
	.st8{fill:#343435;}
	.st9{fill:#203F06;}
	.st10{fill:#323034;}
	.st11{fill:#6FA83C;}
	.st12{fill:#508222;}
	.st13{fill:#898989;}
	.st14{fill:#626262;}
	.st15{fill:#54801D;}
	.st16{fill:#44B1D3;}
	.st17{fill:#70A83B;}
	.st18{fill:#528423;}
	.st19{fill:#8D8B8E;}
	.st20{fill:#2CECE1;}
	.st21{fill:#F8FA02;}
	.st22{fill:#71A83B;}
	.st23{fill:#09518B;}
	.st24{fill:#6CA63D;}
	.st25{fill:#E2E803;}
	.st26{fill:#FBFC01;}
	.st27{fill:#26F1ED;}
	.st28{fill:#636363;}
	.st29{fill:#568720;}
	.st30{fill:#D7E10A;}
	.st31{fill:#8C8C8D;}
	.st32{fill:#568722;}
	.st33{fill:#2FF1F6;}
	.st34{fill:#F4F804;}
	.st35{fill:#ECF205;}
	.st36{fill:#518222;}
	.st37{fill:#517E1A;}
	.st38{fill:#31D6BE;}
	.st39{fill:#C9DA11;}
	.st40{fill:#36CBA9;}
	.st41{fill:#E1E805;}
	.st42{fill:#2CF5F0;}
	.st43{fill:#6AA232;}
	.st44{fill:#DFE506;}
	.st45{fill:#30E7D7;}
	.st46{fill:#43AED1;}
	.st47{fill:#2DFBF8;}
	.st48{fill:#244206;}
	.st49{fill:#E2F3F3;}
	.st50{fill:#D6E9F2;}
	.st51{fill:#616161;}
	.st52{fill:#8B8A8B;}
	.st53{fill:#71A93C;}
	.st54{fill:#938C87;}
	.st55{fill:#05528C;}
	.st56{fill:#D6ECF3;}
	.st57{fill:#25F7EA;}
	.st58{fill:#888887;}
</style>
<g>
	<path class="st0" d="M22.18,11.89c-1.34,0.08-2.41-0.09-3.47-0.24c-0.62-0.08-0.93,0.05-1,0.75c-0.31,2.9-0.68,5.79-1.01,8.69
		c-0.04,0.31-0.12,0.75,0.04,0.92c1.47,1.55,0.67,3.32,0.57,5.03c-0.02,0.36-0.13,0.71-0.14,1.07c-0.05,1.16,0.46,1.53,1.47,1.02
		c1.93-0.97,3.93-1.78,6.01-2.33c0.89-0.24,1.39-0.68,1.79-1.5c0.97-1.97,2.38-3.54,4.68-3.9c1.64-0.26,3.14,0.09,4.36,1.39
		c0.98,1.05,1.92,2.07,2.51,3.43c1.22,2.83-1.2,9.58-5.52,9.94c-0.35,0.03-0.75,0.13-1.06,0.02c-1.46-0.49-2.64,0.03-3.91,0.72
		c-2.7,1.45-5.36,3-8.28,3.98c-0.66,0.22-0.55,0.7-0.62,1.13c-0.47,3.28-2.59,5.3-5.28,6.83c-2.08,1.19-5.79-0.77-7.27-2.45
		c-1.22-1.39-1.73-3.04-2.13-4.85c-0.42-1.92-0.33-3.69,0.23-5.51c0.05-0.15,0.06-0.33,0.15-0.45c2.11-2.85,1.26-6.32,1.98-9.46
		c0.2-0.89,0.18-1.82,0.28-2.73c0.04-0.44,0.1-0.95,0.43-1.22c1.13-0.94,1.01-2.28,1.18-3.51c0.32-2.38,0.51-4.77,0.85-7.14
		c0.11-0.79-0.19-0.97-0.82-1.07c-1.54-0.24-3.07-0.48-4.6-0.76c-3.3-0.59-4.48-3.34-2.94-6.28c1.7-3.25,4.38-3.9,7.54-3.16
		c1.24,0.29,2.57,0.23,3.78,0.6c1.51,0.46,2.97,0.52,4.55,0.52c2.49,0,5,0.46,7.47,0.89c3.36,0.59,5.01,3.93,3.64,7.04
		c-0.83,1.87-2.46,2.37-4.28,2.54C22.89,11.92,22.41,11.89,22.18,11.89z"/>
	<path d="M21.37,10.74c-1-0.11-2.43-0.25-3.86-0.44c-0.54-0.07-0.77,0-0.84,0.62c-0.38,3.57-0.81,7.14-1.22,10.71
		c-0.04,0.35-0.2,0.72,0.16,1c1.01,0.81,0.9,1.85,0.66,2.95c-0.15,0.7-0.1,1.45-0.29,2.13c-0.36,1.3,0.53,2.08,1.12,2.98
		c0.25,0.39,0.57,0.15,0.84,0.02c2.78-1.29,5.57-2.53,8.56-3.25c0.4-0.1,0.41-0.42,0.53-0.71c0.57-1.39,1.34-2.63,2.59-3.51
		c1.7-1.2,3.65-0.89,5.12,0.59c0.82,0.83,1.55,1.63,2.08,2.7c1.07,2.15-0.88,7.47-3.74,8.32c-1,0.3-1.98,0.2-2.95-0.07
		c-0.58-0.16-1.03-0.05-1.57,0.23c-2.95,1.57-5.81,3.38-8.97,4.42c-1.69,0.55-2.05,1.38-2.29,2.95c-0.4,2.65-2.31,4.48-4.64,5.39
		c-2.23,0.88-4.13-0.63-5.68-2.16c-1.16-1.14-1.51-2.66-1.84-4.28c-0.37-1.8-0.35-3.43,0.23-5.1c0.1-0.3,0.15-0.71,0.37-0.86
		c1.32-0.87,1.03-2.14,1.12-3.43c0.19-2.86,0.6-5.71,0.92-8.57c0.04-0.34,0.18-0.67,0.42-0.83c0.92-0.58,0.9-1.51,1.01-2.41
		c0.36-3.09,0.71-6.19,1.13-9.28c0.12-0.89,0.09-1.31-1.02-1.42c-1.98-0.18-3.94-0.57-5.9-0.96C1.45,8.09,0.64,6.08,1.55,4.31
		c1.51-2.95,3.23-3.6,6.61-2.79c1.12,0.27,2.34,0.18,3.43,0.53c3.76,1.21,7.7,0.4,11.5,1.2c2.86,0.6,4.34,2.32,3.66,5
		c-0.31,1.21-1.01,2.03-2.32,2.26C23.55,10.67,22.68,10.71,21.37,10.74z"/>
	<path class="st1" d="M8.53,33.73c-0.7-0.68-0.56-1.55-0.48-2.36c0.28-2.56,0.62-5.11,0.93-7.66c0.06-0.47,0.25-0.74,0.72-0.8
		c0.4-0.2,0.77-0.47,1.19-0.65c0.33-0.12,0.65-0.23,1-0.29c0.43-0.05,0.81,0.07,1.18,0.27c0.34,0.21,0.68,0.4,0.99,0.66
		c1.11,0.68,1.4,1.59,1.01,2.86c-0.24,0.78-0.21,1.65-0.32,2.48c-0.21,1.69,1.17,2.6,1.89,3.83c0.26,0.44,0.79,0.16,1.2-0.01
		c2.75-1.17,5.39-2.64,8.35-3.18c1.18-0.21,1.74-0.68,2.06-1.83c0.37-1.33,1.22-2.41,2.48-3.1c0.9-0.5,1.78-0.32,2.64,0.05
		c0.29,0.13,0.4,0.4,0.07,0.65c-0.16,0.45-0.43,0.84-0.61,1.27c-0.57,0.73-0.96,1.55-1.36,2.38c-0.23,0.49-0.11,0.76,0.47,0.76
		c0.81,0.33,1.21,0.96,1.29,1.81c-0.2,1.13-1.25,1.22-2.02,1.65c-0.28,0.1-0.57,0.19-0.87,0.24c-0.24,0.02-0.47,0.01-0.66-0.16
		c-0.15-0.61,0.4-0.63,0.72-0.81c0.56-0.31,1.26-0.38,1.61-1c-2.12,0.5-4.01,1.52-5.88,2.56c-1.82,1.01-3.68,1.92-5.54,2.82
		c-1.61,0.78-2.09,0.62-3.07-0.86c-0.66-1-1.32-1.99-1.94-3.02c-0.19-0.32-0.32-0.71-0.94-0.97c0.9,1.84,2.1,3.21,3.12,4.7
		c0.11,0.16,0.21,0.33,0.3,0.5c0.59,1.12,0.59,1.12,1.75,0.42c0.23-0.22,0.62-0.02,0.82-0.32c2.64-1.26,5.24-2.6,7.84-3.95
		c0.34-0.18,0.7-0.41,1.12-0.21c0.31,0.52-0.25,0.56-0.44,0.81c-3.24,1.93-6.58,3.68-10.02,5.22c-1.03,0.47-1.93-0.03-2.88-0.18
		c-0.35-0.11-0.47-0.35-0.39-0.7c0.31-0.43,0.83-0.11,1.37-0.38c-0.84-1.52-2.13-2.71-2.75-4.29c-0.47,0.8-0.24,1.29,0.54,1.8
		c1.21,0.8,1.35,1.41,0.99,2.61c-0.59,0.24-0.82-0.16-1.06-0.57c-0.16-1.06-0.96-1.41-1.86-1.64c-0.38-0.13-0.74-0.4-1.18-0.24
		c-0.58,0.11-1.13,0.02-1.68-0.18c-0.27-0.09-0.52-0.21-0.77-0.34C9.11,34.22,8.78,34.03,8.53,33.73z"/>
	<path class="st2" d="M15.23,4.23c0.6-0.62,1.38-0.57,2.13-0.48c1.93,0.22,3.86,0.45,5.79,0.71c1.18,0.16,2.11,0.67,2.52,1.9
		c0.47,1.41-0.23,2.6-1.68,2.93c-2.2,0.5-4.36,0.04-6.53-0.14c-0.44-0.04-0.87-0.12-1.3-0.18c-0.54-0.13-1.05-0.31-1.42-0.77
		C14.42,6.81,14.88,5.53,15.23,4.23z"/>
	<path class="st3" d="M11.4,8.48C8.79,8.28,6.22,7.8,3.65,7.3C2.49,7.07,2.14,6.15,2.62,5.09c0.33-0.72,0.49-1.55,1.21-2.01
		C4.7,2.5,5.57,2.16,6.72,2.45C8.37,2.86,10.08,3,11.77,3.24c0.53,0.08,1.01,0.22,1.31,0.71c-0.6,0.56-1.36,0.06-2.01,0.31
		c-1.08,0.62-1.3,1.39-0.76,2.67c0.38,0.59,0.93,0.78,1.6,0.67c0.17,0.01,0.33,0.05,0.46,0.17C12.38,8.45,11.82,8.37,11.4,8.48z"/>
	<path class="st4" d="M15.93,37.57c0.1,0.25,0.2,0.49,0.3,0.74c0.75,3.88-0.55,6.58-4.04,8.38c-0.17,0.09-0.36,0.17-0.55,0.18
		c-2.96,0.06-5.84-3.61-5.03-6.37c0.29-0.13,0.46,0.04,0.6,0.26c0.25,1.26,0.53,2.48,1.5,3.45c1.09,1.1,2.32,1.49,3.8,1.04
		c2.53-1.41,3.65-4.77,2.39-7.22c-0.18-0.34-0.41-0.63-0.78-0.78c-0.24-0.14-0.57-0.18-0.64-0.52c0.36-0.54,0.85-0.44,1.34-0.25
		c0.04,0.05,0.09,0.09,0.13,0.14c0.29,0.25,0.58,0.51,0.87,0.76c0.1,0.01,0.15,0.04,0.14,0.1C15.97,37.54,15.95,37.57,15.93,37.57z"
		/>
	<path class="st5" d="M11.4,8.48c0.31-0.23,0.63-0.45,0.94-0.68c0.29-0.03,0.35,0.18,0.4,0.4c-0.16,3.61-0.62,7.2-1.15,10.77
		c-0.17,1.17,0,2.4-0.68,3.47c-0.31,0.39-0.73,0.51-1.21,0.47c0.7-0.64,0.56-1.56,0.67-2.34c0.48-3.41,0.86-6.83,1.22-10.25
		C11.65,9.72,11.86,9.05,11.4,8.48z"/>
	<path class="st6" d="M15.01,8.25c0.47,0.1,0.8,0.42,1.15,0.71c-0.42,0.06-0.43,0.38-0.46,0.71c-0.47,4.06-0.95,8.12-1.44,12.18
		c-0.04,0.35-0.13,0.7-0.2,1.05c-0.42,0.06-0.78-0.02-1.01-0.42c0.58-4.42,1.08-8.85,1.6-13.28c0.03-0.28,0.06-0.56,0.21-0.8
		C14.9,8.34,14.95,8.3,15.01,8.25z"/>
	<path class="st7" d="M29.13,33.26c0.16-0.26,0.33-0.51,0.49-0.77l-0.01,0.01c0.28,0,0.56-0.01,0.84-0.01
		c0.6,0.54,1.26,0.51,1.95,0.21c2.22-1.32,3.05-4.38,1.72-6.4c-0.32-0.43-0.8-0.41-1.26-0.45c-0.04-0.04-0.08-0.07-0.12-0.11
		c-0.1-0.57,0.21-0.88,0.68-1.11c1.66,0.61,2.47,1.89,2.4,3.57c-0.09,2.08-0.72,4.01-2.59,5.24c-1.07,0.71-2.21,0.34-3.33,0.06
		C29.65,33.44,29.39,33.35,29.13,33.26z"/>
	<path class="st8" d="M12.6,8.09c-0.09-0.1-0.17-0.19-0.26-0.29c-0.16,0-0.31,0-0.47-0.01c-0.57-0.17-1.22-0.17-1.58-0.77
		c-0.77-1.19-0.29-2.15,0.57-3.04c0.73-0.36,1.47,0.09,2.21-0.03c0.72,0.09,1.43,0.19,2.15,0.28c0.05,0.99,0,1.97-0.31,2.92
		c-0.14,0.41-0.19,0.76,0.09,1.1c0,0-0.02,0.03-0.02,0.03c-0.26,0.24-0.58,0.31-0.92,0.29C13.55,8.48,13.02,8.44,12.6,8.09z"/>
	<path class="st9" d="M7.1,40.72c-0.16-0.08-0.32-0.16-0.48-0.23c-0.2-0.18-0.47-0.33-0.6-0.56c-0.58-1.03,0.64-4.28,1.77-4.77
		c0.13,0.14,0.18,0.3,0.17,0.49c-0.38,0.91-0.82,1.8-0.99,2.79C6.88,39,6.89,39.47,7.54,39.69c0.64,0.21,0.93-0.12,1.22-0.63
		c0.79-1.39,1.8-2.51,3.57-2.53c0.08,0.1,0.1,0.21,0.08,0.33c-0.23,0.46-0.72,0.59-1.08,0.89c-0.75,0.62-1.33,1.36-1.55,2.32
		c-0.16,0.7-0.52,1.14-1.29,1.11C8,41.11,7.51,41.05,7.1,40.72z"/>
	<path class="st10" d="M7.81,35.66c0-0.16-0.01-0.33-0.01-0.49c0.62-0.29,0.77-0.81,0.73-1.43c0.36,0.02,0.66,0.18,0.93,0.39
		c-0.04,0.61-0.04,1.2,0.76,1.33c0.84,0.22,1.56,0.2,1.89-0.79c0.47-0.44,0.62,0.22,0.94,0.27c0.2,0.39,0.04,0.73-0.15,1.07
		C11.11,37.22,9.45,36.51,7.81,35.66z"/>
	<path class="st11" d="M9.04,28.22c0.19-1.55,0.13-3.14,0.83-4.59c0.87-0.4,1.76-0.63,2.72-0.31c0.46,0.88-0.08,1.71-0.15,2.56
		c-0.19,2.34-0.66,4.65-1.14,6.95c-0.09,0.45-0.08,1.13-0.91,0.93c-0.5-0.15-0.96-0.37-1.37-0.7c-0.24-1.18-0.01-2.36,0.02-3.54
		C9.06,29.08,9.15,28.65,9.04,28.22z"/>
	<path class="st12" d="M10.39,33.76c1-0.82,0.7-2.06,0.96-3.11c0.6-2.36,0.57-4.84,1.24-7.2c0.57-0.21,0.94,0.26,1.41,0.41
		c0.09,0.16,0.18,0.32,0.27,0.48c-0.02,0.45-0.01,0.89-0.01,1.34c-0.4,2.6-0.4,5.25-1.18,7.79C12.25,34.18,11.33,34.1,10.39,33.76z"
		/>
	<path class="st13" d="M12.6,8.09c0.5-0.14,0.95,0.11,1.42,0.19c0.43,0.52,0.38,1.12,0.26,1.71c-0.75,3.5-1.16,7.05-1.8,10.57
		c-0.11,0.58-0.18,1.19-0.61,1.65c-0.28,0.24-0.61,0.28-0.96,0.23c0.17-1.65,0.28-3.32,0.52-4.96c0.43-2.98,0.75-5.97,0.97-8.97
		C12.41,8.36,12.53,8.23,12.6,8.09z"/>
	<path class="st14" d="M11.87,22.2c0.67-3.97,1.32-7.95,2.03-11.92c0.12-0.68,0.11-1.34,0.13-2.01c0.32,0,0.64,0,0.96,0
		c-0.02,2.71-0.58,5.37-0.82,8.07c-0.16,1.74-0.42,3.47-0.62,5.21c-0.04,0.39,0.06,0.83-0.51,0.93
		C12.65,22.39,12.26,22.3,11.87,22.2z"/>
	<path class="st15" d="M17.51,36.11c-0.98-1.38-1.96-2.76-2.94-4.14c-0.25-0.34-0.51-0.76-0.06-1.02c0.37-0.22,0.73,0.1,0.96,0.47
		c0.86,1.38,1.76,2.73,2.59,4.13c0.45,0.77,0.97,0.93,1.78,0.58c1.98-0.85,3.9-1.81,5.77-2.88c2.05-1.17,4.22-2.05,6.37-2.99
		c0.36-0.16,0.52-0.06,0.54,0.32c-1.17,1.09-2.72,1.44-4.1,2.12c-2.52,1.24-4.93,2.7-7.5,3.85c-0.17,0.08-0.35,0.19-0.42,0.4
		c-0.16,0.18-0.31-0.06-0.46-0.03c-0.76,0.68-1.4,0.64-1.97-0.25C17.92,36.48,17.76,36.24,17.51,36.11z"/>
	<path class="st16" d="M34.24,26.01c1.13,0.96,0.87,2.22,0.67,3.41c-0.26,1.54-0.87,2.88-2.42,3.57c-0.54-0.12-1.29,0.2-1.46-0.69
		c0.62-0.55,1.67-0.51,2.01-1.44c0.13-0.63,0.73-1.04,0.79-1.7c0.04-0.47,0.14-1.01-0.41-1.24c-0.56-0.24-0.87,0.16-1.12,0.6
		c-0.14,0.24-0.25,0.49-0.45,0.69c-0.93,0.14-1.1,0.03-0.81-0.67c0.42-1.01,0.8-2.06,1.71-2.78c0.01,0.05,0.01,0.1,0.01,0.15
		C33.24,26.13,33.73,26.15,34.24,26.01z"/>
	<path class="st17" d="M22.22,34.17c-0.76,0.68-1.75,0.88-2.62,1.33c-0.45,0.23-0.69-0.08-0.9-0.34c-0.54-0.67-1.02-1.38-1.61-2.2
		c1.2-0.25,2.18-0.72,3.18-1.14C21.25,32.31,21.85,33.14,22.22,34.17z"/>
	<path class="st17" d="M23.13,30.61c0.7-0.42,1.42-0.79,2.23-0.95c0.93,0.36,1.39,1.15,1.84,1.96c-0.71,0.39-1.41,0.78-2.12,1.18
		c-0.05-0.02-0.11-0.03-0.17-0.05C24.22,32.12,23.29,31.68,23.13,30.61z"/>
	<path class="st18" d="M31.55,25.8c-0.35,1.01-1,1.87-1.32,2.91c-0.2,0.65-0.99,0.18-1.48,0.14c-0.48-0.04-0.26-0.47-0.16-0.76
		c0.39-1.19,0.9-2.3,1.95-3.07c0.05,0.02,0.1,0.04,0.16,0.05C31.01,25.29,31.42,25.38,31.55,25.8z"/>
	<path class="st19" d="M15.93,37.57c-0.02-0.07-0.05-0.14-0.09-0.2c0.3-1.55-0.3-2.36-2.32-3.07c0.53-0.5,0.61-1.18,0.77-2.12
		c0.92,1.71,1.87,3.06,2.88,4.38c0.24,0.31,0.68,0.75,0.35,1.15c-0.26,0.33-0.74-0.03-1.12-0.08C16.25,37.6,16.09,37.59,15.93,37.57
		z"/>
	<path class="st20" d="M20.5,36.97c0-0.61,0.57-0.62,0.91-0.81c3.64-1.97,7.31-3.9,11.11-5.57c0.11,0.63-0.44,0.68-0.79,0.87
		c-0.69,0.37-1.41,0.69-2.11,1.04c0,0,0.01-0.01,0.01-0.01C26.58,33.98,23.54,35.48,20.5,36.97z"/>
	<path class="st21" d="M22.22,34.17c-0.65-0.78-1.31-1.57-1.96-2.35c0.4-0.18,0.8-0.36,1.2-0.54c1.1,0.37,1.85,1.07,2.17,2.2
		C23.18,33.76,22.76,34.08,22.22,34.17z"/>
	<path class="st22" d="M26.03,29.3c1.66-0.17,3.22,0.59,4.93,0.63c-1.01,0.44-2.02,0.89-3.03,1.33
		C27.26,30.66,26.52,30.1,26.03,29.3z"/>
	<path class="st23" d="M31.86,29.2c0.03-0.82,0.32-1.48,1.19-1.71c0.43-0.11,0.85,0.05,0.99,0.46c0.28,0.82,0.26,1.64-0.37,2.33
		c-0.19,0.2-0.41,0.38-0.61,0.56C32.78,30.21,32.51,29.57,31.86,29.2z"/>
	<path class="st24" d="M23.63,33.48c-0.72-0.73-1.45-1.47-2.17-2.2c0.35-0.26,0.72-0.46,1.18-0.46c1.08,0.29,1.49,1.42,2.4,1.92
		c0,0,0.05,0.05,0.05,0.05C24.6,33.02,24.11,33.25,23.63,33.48z"/>
	<path class="st25" d="M13.08,33.47c-0.33-0.96,0.12-1.86,0.32-2.74c0.4-1.7,0.22-3.47,0.65-5.15c0.6,0.22,0.27,0.65,0.23,1.01
		c-0.2,1.99-0.41,3.99-0.6,5.98C13.65,32.99,13.53,33.34,13.08,33.47z"/>
	<path class="st26" d="M26.03,29.3c0.86,0.43,1.6,0.98,1.9,1.96c-0.24,0.12-0.49,0.23-0.74,0.35c-0.82-0.46-1.16-1.37-1.84-1.95
		C25.58,29.54,25.81,29.42,26.03,29.3z"/>
	<path class="st27" d="M9.04,28.22c0.22,1.61,0.15,3.23-0.01,4.84c-0.47-0.24-0.5-0.61-0.43-1.09C8.77,30.72,8.9,29.47,9.04,28.22z"
		/>
	<path class="st28" d="M12.1,34.66c0.56,0.68-0.01,0.89-0.48,1.08c-0.48,0.2-0.99,0.25-1.47-0.04c0-0.41-0.15-0.83,0.03-1.24
		C10.81,34.65,11.44,34.77,12.1,34.66z"/>
	<path class="st29" d="M12.82,35.84c0.08-0.31,0.15-0.61,0.23-0.92c1.06-0.09,1.64,0.64,2.19,1.36c0.2,0.26-0.08,0.3-0.27,0.32
		c0,0,0.02,0.01,0.02,0.01c-0.65-0.56-1.52,0.05-2.18-0.43C12.7,36.06,12.71,35.95,12.82,35.84z"/>
	<path class="st30" d="M14,23.86c-0.55,0.13-0.92-0.32-1.41-0.41c-0.92-0.17-1.83-0.02-2.73,0.17C11.3,22.65,12.79,22.74,14,23.86z"
		/>
	<path class="st31" d="M10.18,34.46c0.23,0.42,0.43,0.84-0.03,1.24c-0.98-0.2-1.47-0.61-0.69-1.58C9.7,34.23,9.94,34.35,10.18,34.46
		z"/>
	<path class="st20" d="M17.51,36.11c0.8,0.42,1.3,1.7,2.52,0.84c-0.25,0.69-0.98,0.65-1.49,0.95c-0.3,0.18-0.44-0.06-0.4-0.32
		C18.23,36.95,17.7,36.61,17.51,36.11z"/>
	<path class="st32" d="M30.54,25.03c0.15-0.13,0.28-0.28,0.44-0.37c0.44-0.27,1.03-0.55,1.37-0.11c0.26,0.34-0.31,0.69-0.55,1.02
		c-0.42-0.07-0.81-0.23-1.17-0.44C30.6,25.09,30.57,25.06,30.54,25.03z"/>
	<path class="st33" d="M31.04,32.3c0.35,0.52,1.05,0.29,1.46,0.69c-0.7,0.55-1.43,0.12-2.11-0.01c-0.4-0.08-0.01-0.32,0.07-0.49
		C30.6,32.3,30.81,32.26,31.04,32.3z"/>
	<path class="st34" d="M25.04,32.74c-1.1-0.27-1.48-1.43-2.4-1.92c0.1-0.21,0.29-0.22,0.49-0.21
		C23.66,31.41,24.58,31.87,25.04,32.74z"/>
	<path class="st30" d="M14.29,26.58c-0.08-0.34,0.1-0.73-0.23-1.01c0.05-0.42-0.1-0.87,0.22-1.23
		C14.69,25.08,14.5,25.83,14.29,26.58z"/>
	<path class="st35" d="M30.63,25.12c0.51-0.17,0.88,0.04,1.17,0.44c-0.08,0.08-0.17,0.16-0.25,0.24
		C31.32,25.47,30.53,25.9,30.63,25.12z"/>
	<path class="st17" d="M22.19,5.4c-0.57,0.69-0.75,1.51-0.74,2.39c-0.15,0.15-0.34,0.19-0.54,0.17c-1.82-0.23-3.64-0.52-5.44-0.87
		c-0.07-0.75-0.09-1.47,0.37-2.15c0.4-0.59,0.82-0.94,1.55-0.56c1.35,0.47,2.8,0.38,4.16,0.79C21.77,5.22,22.02,5.18,22.19,5.4z"/>
	<path class="st36" d="M25.06,6.6c0.14,0.88-0.16,1.53-0.96,1.93c-0.7,0.17-1.31-0.06-1.88-0.45c-0.46-1.31-0.19-1.94,1.15-2.69
		C24.24,5.37,24.61,6.05,25.06,6.6z"/>
	<path class="st37" d="M15.46,7.08c0.85-0.38,1.7-0.03,2.53,0.05c1.16,0.11,2.3,0.42,3.45,0.65c0.02,0.15,0.04,0.29,0.06,0.44
		c-1.08,0.49-2.17,0-3.24-0.03c-0.86-0.03-1.74-0.14-2.62-0.16C15.37,7.75,15.49,7.4,15.46,7.08z"/>
	<path class="st38" d="M15.64,8.03c1.53-0.51,3.03,0.16,4.55,0.12c0.43-0.01,0.87,0.05,1.3,0.08c0.24,0.14,0.52,0.53,0.1,0.47
		C19.62,8.43,17.59,8.6,15.64,8.03z"/>
	<path class="st39" d="M22.19,5.4c-1.66-0.25-3.32-0.49-4.98-0.75c-0.02,0-0.06-0.07-0.05-0.07c0.07-0.07,0.15-0.14,0.23-0.21
		c1.53,0.19,3.06,0.38,4.59,0.57C22.27,4.97,22.6,5.02,22.19,5.4z"/>
	<path class="st40" d="M22.22,8.08c0.63,0.15,1.25,0.3,1.88,0.45C23.32,9.01,22.69,8.88,22.22,8.08z"/>
	<path class="st41" d="M25.06,6.6c-0.59-0.36-0.97-1.03-1.69-1.21C24.42,5.12,24.84,5.72,25.06,6.6z"/>
	<path class="st17" d="M9.85,3.95C9.54,4.42,9.07,4.79,8.96,5.39C8.89,6.07,8.55,6.3,7.86,6.22C6.55,6.06,5.32,5.54,3.99,5.47
		C3.46,5.45,3.55,5.02,3.68,4.66c0.16-0.68,0.52-1.18,1.23-1.37C6.58,3.3,8.22,3.64,9.85,3.95z"/>
	<path class="st12" d="M3.68,4.66c0.05,0.18,0.12,0.53,0.15,0.52c1.54-0.17,2.9,0.68,4.41,0.76C8.8,5.98,8.71,5.55,8.96,5.39
		C8.98,5.93,8.99,6.47,9,7.01C7.15,7,5.33,6.72,3.52,6.39C3.51,5.81,3.27,5.2,3.68,4.66z"/>
	<path class="st42" d="M3.52,6.39C5.41,6,7.18,6.75,9,7.01c0.15,0.17,0.31,0.33,0.71,0.76C7.76,7.11,6.05,7.14,4.38,6.88
		C4.02,6.83,3.66,6.82,3.52,6.39z"/>
	<path class="st43" d="M10.87,3.98c-0.56,1-1.05,2.01-0.35,3.15c-0.11,0.05-0.22,0.05-0.32-0.01C9.3,6.01,9.6,4.57,10.87,3.98z"/>
	<path class="st44" d="M9.85,3.95c-1.67-0.07-3.3-0.38-4.95-0.66C6.61,3.1,8.27,3.27,9.85,3.95z"/>
	<path class="st45" d="M10.2,7.11c0.11,0,0.21,0.01,0.32,0.01c0.37,0.39,1.08,0.1,1.36,0.67C11.13,8.02,10.51,7.95,10.2,7.11z"/>
	<path class="st46" d="M8.49,40.92c0.33-0.03,0.79,0.14,0.86-0.39c0.24-1.86,1.47-2.92,2.99-3.75c0.4-0.27,0.8-0.3,1.21-0.03
		c0.25,0.1,0.49,0.2,0.74,0.3c-0.08,0.34-0.12,0.71-0.49,0.89c-1.88,0.14-3.11,1.72-2.75,3.54c0.12,0.59,0.36,1.14,0.5,1.73
		c0.06,1.09,0.52,0.37,0.86,0.18c2.05-0.73,2.81-2.59,1.9-4.6c-0.15-0.34-0.52-0.65-0.21-1.09c0.31-0.19,0.6-0.15,0.87,0.09
		c0.34,0.17,0.52,0.47,0.64,0.82c0.8,2.37-0.63,5.71-2.96,6.87C9.81,45.4,8.16,43.57,8.49,40.92z"/>
	<path class="st47" d="M8.49,40.92c0.5,0.89,0.1,2,0.98,2.87c0.93,0.92,1.94,1.47,3.17,1.72c-2.41,0.94-5.32-1.07-5.52-3.82
		c-0.02-0.32-0.01-0.64-0.02-0.96C7.59,40.57,8.03,40.81,8.49,40.92z"/>
	<path class="st48" d="M13.55,36.75c-0.4,0.01-0.81,0.02-1.21,0.03c-0.01-0.08-0.01-0.17-0.02-0.25c0-0.36,0.31-0.3,0.51-0.39
		c0.73,0.11,1.59-0.39,2.15,0.48C14.51,36.63,14.01,36.45,13.55,36.75z"/>
	<path class="st49" d="M14.96,37.81c-0.31,0-0.63-0.01-0.94-0.01l0.01,0c-0.19-0.35-0.06-0.58,0.26-0.74
		C14.71,37.14,15.1,37.23,14.96,37.81z"/>
	<path class="st50" d="M34.24,26.01c-0.55,0.69-1.05,0.66-1.48-0.11C33.29,25.46,33.79,25.44,34.24,26.01z"/>
	<path class="st51" d="M14.7,5.85c0.24,1.03-0.21,1.3-1.19,1.26c-0.66-0.03-1.3-0.19-1.98-0.18c-0.73,0.01-0.6-0.75-0.62-1.29
		c0.11-0.17,0.27-0.4,0.44-0.35C12.44,5.6,13.64,5.32,14.7,5.85z"/>
	<path class="st52" d="M14.7,5.85c-1.05,0-2.13,0.22-3.12-0.34c-0.24-0.13-0.45,0.06-0.67,0.13c0.26-0.95,0.94-1.15,1.81-1.01
		c0.47,0.08,0.93,0.27,1.39,0.24C15.03,4.8,14.95,5.25,14.7,5.85z"/>
	<path class="st53" d="M12.83,36.13c-0.17,0.13-0.34,0.26-0.51,0.39c-1.52,0.61-2.9,1.4-3.46,3.07c-0.18,0.55-0.44,0.73-0.95,0.51
		c-0.52-0.22-1.44,0-1.31-1.02c0.16-1.23,0.31-2.46,1.21-3.43c0.34-0.11,0.61-0.14,0.97,0.08c1.3,0.8,2.67,0.87,4.03,0.11
		C12.82,35.94,12.83,36.04,12.83,36.13z"/>
	<path class="st54" d="M32.43,29.16c0.07-0.58,0.23-1.04,0.79-1.1c0.29-0.03,0.31,0.32,0.28,0.54
		C33.43,29.34,32.9,29.12,32.43,29.16z"/>
	<path class="st55" d="M14.02,37.79c0.89,1.08,1.14,2.27,0.77,3.64c-0.41,1.49-0.93,2-2.51,2.19c-0.37,0.17-0.64,0.02-0.87-0.27
		c-1.14-2.37-1-3.55,0.51-5.03C12.54,37.7,13.19,37.43,14.02,37.79C14.03,37.8,14.02,37.79,14.02,37.79z"/>
	<path class="st56" d="M11.41,43.35c0.29,0.09,0.58,0.18,0.87,0.27c0.02,0.54-0.28,0.72-0.74,0.57
		C11.04,44.02,11.19,43.67,11.41,43.35z"/>
	<path class="st57" d="M7.5,36.79c-0.01-0.26,0.19-0.39,0.51-0.4c0.29-0.01,0.64,0.06,0.66,0.35c0.03,0.32-0.26,0.55-0.6,0.6
		C7.75,37.36,7.54,37.21,7.5,36.79z"/>
	<path class="st58" d="M14.23,40.19c0,1.53-0.62,2.62-1.51,2.65c-0.78,0.03-1.33-0.83-1.32-2.07c0-1.18,0.74-2.05,1.73-2.04
		C13.98,38.73,14.24,39.08,14.23,40.19z"/>
</g>
</svg>
