<?xml version="1.0" encoding="utf-8"?>
<!-- Generator: Adobe Illustrator 23.0.2, SVG Export Plug-In . SVG Version: 6.00 Build 0)  -->
<svg version="1.1" id="Camada_1" xmlns="http://www.w3.org/2000/svg" xmlns:xlink="http://www.w3.org/1999/xlink" x="0px" y="0px"
	 viewBox="0 0 34.84 42.76" style="enable-background:new 0 0 34.84 42.76;" xml:space="preserve">
<style type="text/css">
	.st0{fill:#6A0431;}
	.st1{fill:#9F5D0B;}
	.st2{fill:#61032C;}
	.st3{fill:#911F2B;}
	.st4{fill:#63042D;}
	.st5{fill:#9D5D0A;}
	.st6{fill:#91202C;}
	.st7{fill:#66052F;}
	.st8{fill:#8F202C;}
	.st9{fill:#871C26;}
	.st10{fill:#E29620;}
	.st11{fill:#6D0431;}
	.st12{fill:#BF0052;}
	.st13{fill:#CA0157;}
	.st14{fill:#C00053;}
	.st15{fill:#C40054;}
	.st16{fill:#F23ADE;}
	.st17{fill:#BE0352;}
	.st18{fill:#BF0053;}
	.st19{fill:#F137DD;}
	.st20{fill:#BC0052;}
	.st21{fill:#C10253;}
	.st22{fill:#F235DA;}
	.st23{fill:#C30354;}
	.st24{fill:#C20054;}
	.st25{fill:#F2C3D5;}
	.st26{fill:#DFD3D7;}
	.st27{fill:#CC3363;}
	.st28{fill:#AC244E;}
	.st29{fill:#F9F202;}
	.st30{fill:#AD244E;}
	.st31{fill:#92202B;}
	.st32{fill:#BD0052;}
	.st33{fill:#E59C1E;}
	.st34{fill:#8D1A2B;}
	.st35{fill:#CD3363;}
	.st36{fill:#F27CBA;}
	.st37{fill:#AF254F;}
	.st38{fill:#ECD8E0;}
	.st39{fill:#EF7AB7;}
	.st40{fill:#F37CBA;}
	.st41{fill:#AC234E;}
	.st42{fill:#BD2D52;}
	.st43{fill:#CD3362;}
	.st44{fill:#AE2251;}
	.st45{fill:#E79B21;}
	.st46{fill:#EE77B6;}
	.st47{fill:#F1DDE5;}
	.st48{fill:#BC0552;}
	.st49{fill:#E2971F;}
	.st50{fill:#FDFB01;}
	.st51{fill:#CD3364;}
	.st52{fill:#F584C6;}
	.st53{fill:#E3951A;}
	.st54{fill:#F2E505;}
	.st55{fill:#CE3464;}
	.st56{fill:#D13568;}
	.st57{fill:#5C3F3B;}
	.st58{fill:#C70056;}
	.st59{fill:#690430;}
	.st60{fill:#68042E;}
	.st61{fill:#F8EE04;}
	.st62{fill:#F8E8BE;}
</style>
<g>
	<path d="M14.21,16.01c-0.39-2.46-0.45-5.19-1.5-7.74c-0.83-2.01-0.3-3.38,1.57-4.46c2.05-1.18,4.34-1.52,6.62-1.88
		c1.34-0.21,2.66-0.43,4.01,0.01c0.35,0.11,0.83-0.17,1.25-0.26c1.98-0.38,3.79,0.23,5.54,1.04c1.02,0.48,1.65,2.11,1.38,3.32
		c-0.2,0.88-0.48,1.75-0.67,2.64c-0.56,2.59-0.56,5.23-0.61,7.87c-0.06,2.96-0.01,5.91,0.29,8.85c0.02,0.16,0.06,0.36-0.01,0.47
		c-0.83,1.27-0.2,2.14,0.59,3.19c1.33,1.75,0.85,4.47-0.91,5.83c-1.3,1.01-2.77,1.6-4.45,1.02c-0.66-0.23-0.99-0.15-1.39,0.52
		c-1.3,2.2-3.46,2.83-5.88,2.29c-1-0.22-1.58-0.14-2.25,0.74c-1.44,1.89-3.27,2.25-5.5,1.43c-1.49-0.54-2.99-1.08-4.54-1.41
		c-2.27-0.49-3.01-2.82-2.71-4.65c0.11-0.66,0.01-1.03-0.56-1.45c-2.57-1.88-3.16-4.6-2.81-7.54c0.19-1.66,3.04-5.21,5.39-5.43
		c0.55-0.05,0.95-0.26,1.34-0.66c1.21-1.24,2.77-1.82,4.45-1.66c1.18,0.11,1.34-0.38,1.31-1.29C14.16,16.63,14.18,16.43,14.21,16.01
		z"/>
	<path class="st0" d="M29.84,27.62c-0.16,0.3-0.49,0.63,0.2,0.74c1.5,0.24,1.76,1.62,2.3,2.67c0.31,0.61-1.05,2.81-1.8,3.3
		c-1.3,0.86-2.66,0.61-3.99,0.2c-0.83-0.26-1.16-0.13-1.4,0.79c-0.38,1.48-2.09,2.47-3.64,2.31c-0.19-0.02-0.39-0.06-0.58-0.03
		c-1.02,0.15-2.06-0.82-2.85-0.37c-0.73,0.42-1.06,1.54-1.84,2.13c-1.16,0.87-2.41,1.1-3.74,0.37c-1.21-0.66-2.56-0.85-3.85-1.24
		c-2.1-0.64-2.95-1.84-2.35-3.86c0.29-0.97,0.34-1.6-0.77-1.92c-0.2-0.06-0.34-0.32-0.51-0.49c0.44-0.4,0.91-0.14,1.36-0.05
		c3.8,0.75,7.58,0.5,11.36-0.19c0.83-0.15,1.21-0.67,1.43-1.4c0.05-0.1,0.11-0.2,0.18-0.29c0.49-0.01,0.74-0.53,1.21-0.6
		c0.31-0.01,0.62-0.09,0.93-0.03c0.32,0.07,0.64,0.13,0.95,0.23c0.58,0.24,1.09,0.04,1.6-0.21c1.46-0.72,3-1.27,4.48-1.97
		C28.93,27.49,29.37,27.22,29.84,27.62z"/>
	<path class="st1" d="M19.51,30.32c-0.06,1.19-0.53,1.86-1.85,2.05c-4.23,0.62-8.44,1.01-12.64-0.16c-1.82-1.32-2.33-3.16-2.1-5.29
		c0.17-0.22,0.4-0.23,0.64-0.15c0.38,0.89,0.98,0.05,1.45,0.18c0.41,0.02,0.82,0,1.22,0.12c0.89,0.36,1.7,0.87,2.36,1.57
		c0.5,0.53,1.05,0.73,1.81,0.63c2.59-0.34,5.23-0.35,7.77-1.03c0.82-0.11,1.6-0.55,2.46-0.23c0.25,0.55-0.07,0.88-0.46,1.18
		c-0.68,0.24-1.41,0.29-2.11,0.42c-2.6,0.34-5.17,0.91-7.77,1.3c-1.22,0.18-2.17,0.09-2.96-0.94c-0.59-0.77-1.38-1.31-2.39-1.47
		c-0.32-0.05-0.63-0.12-0.88,0.18c-0.13,1.06,0.61,1.52,1.39,1.84c2.52,1.04,5.16,1.31,7.85,0.92c1.66-0.24,3.23-0.87,4.87-1.2
		C18.61,30.16,19.08,29.88,19.51,30.32z"/>
	<path class="st2" d="M31.68,6.26c-0.3,1.61-0.6,3.22-0.89,4.83c-0.36-0.07-0.69-0.22-1.04-0.32c-0.21-0.01-0.42,0.03-0.62,0.06
		c-1.52,0.12-2.75,0.98-4.06,1.61c-1.82,1.07-3.62,2.15-5.31,3.43c-0.46,0.35-0.92,0.81-1.6,0.5c-0.58-0.61-0.48-1.39-0.55-2.13
		c0.07-0.65,0.35-1.18,0.93-1.51c1.99-2.36,4.35-4.21,7.16-5.52c1.61-0.75,3.33-0.75,5.03-0.9c0.16-0.07,0.32-0.14,0.49-0.19
		C31.38,6.1,31.55,6.12,31.68,6.26z"/>
	<path class="st3" d="M29.78,10.36c0.2,0.43,0.95,0.11,1,0.74c-0.1,2.94-0.19,5.89-0.29,8.83c-0.35,0.14-0.11,0.82-0.7,0.75
		c-0.6-1.43-0.43-2.97-0.54-4.46c-0.16-2.17-0.08-2.25-2.24-1.69c-3.49,0.9-6.6,2.59-9.46,4.75c-0.49,0.72-1.02,1.39-1.95,1.54
		c-0.73-0.04-1.36-0.22-1.44-1.1c1.06-0.54,1.03-1.61,1.17-2.56c0.1-0.66,0.04-1.34,0.05-2.01c0.28-0.11,0.45,0.05,0.61,0.25
		c0.26,0.68,0.17,1.38,0.11,2.08c-0.03,0.34-0.18,0.69,0.08,1.01c0.16,0.44-0.07,0.74-0.36,1.03c0.62-0.66,1.03-1.5,1.66-2.15
		c1.23-0.66,2.45-1.34,3.69-1.99c2.46-1.3,4.98-2.43,7.83-2.52c0.11,0,0.21-0.1,0.3-0.19C29.66,11.93,29.22,11.04,29.78,10.36z"/>
	<path class="st4" d="M30,20.67c0.17-0.24-0.33-0.93,0.49-0.74c0.04,1.29,0.37,2.57,0.24,3.87c-0.14,0.12-0.3,0.13-0.46,0.06
		c-0.33-0.21-0.19-0.98-0.89-0.75c-0.9,0.25-1.65,0.76-2.39,1.3c-1.45,0.71-2.28,2.01-3.15,3.27c-0.11,0.18-0.24,0.35-0.36,0.52
		c-0.18,0.25-0.34,0.52-0.51,0.78c-0.26,0.32-0.28,0.79-0.64,1.04c-0.32-0.03-0.68,0.1-0.94-0.21c0.93-2.45,2.44-4.48,4.44-6.16
		c0.52-0.44,1.16-0.7,1.72-1.07c0.69-0.3,1.38-0.6,2.16-0.59c-0.88,0-1.67,0.32-2.44,0.72c-0.64,0.32-1.24,0.68-1.75,1.19
		c-1.46,1.2-2.47,2.77-3.49,4.33c-0.39,0.59-0.71,1.25-1.41,1.56c-0.36,0.04-0.38,0.78-0.92,0.46c-0.31-0.56,0.05-0.86,0.45-1.15
		c0.16-0.32,0.33-0.63,0.49-0.95c1.57-3.05,3.42-5.81,6.82-7.09c0.73-0.27,1.49-0.15,2.24-0.23C29.8,20.78,29.9,20.73,30,20.67z"/>
	<path class="st5" d="M14.17,19.72c0.33,0.55,0.82,0.85,1.44,0.95c0.38-0.02,0.67,0.17,0.95,0.4c1.08,1.03,2.03,2.15,2.5,3.6
		c0.34,1.04,0.15,1.43-0.85,1.89c-0.22,0.1-0.44,0.19-0.66,0.28c-1.85,0.75-1.83,0.73-3.12-0.76c-0.97-1.11-1.98-2.2-3.31-2.9
		c-0.1-0.05-0.2-0.11-0.29-0.18c-0.22-0.16-0.42-0.35-0.62-0.54c-0.23-0.22-0.51-0.38-0.77-0.57c-0.33-0.28-0.5-0.6-0.36-1.04
		C10.51,19.26,12.59,18.79,14.17,19.72z"/>
	<path class="st1" d="M23.28,28.09c0.09-0.16,0.18-0.31,0.27-0.47c1.79-1.02,3.79-1.66,5.47-2.9c0.09-0.07,0.18-0.12,0.28-0.18
		c0.41-0.15,0.64-0.54,1-0.77c0.15,0.01,0.29,0.02,0.44,0.03c0.2,1.39,0.38,2.77-0.89,3.82c-2.04,0.53-3.84,1.65-5.8,2.37
		c-0.52,0.19-1.14,0.99-1.72,0.03c0.03-0.44,0.1-0.87,0.5-1.15c1.32-0.52,2.68-0.95,4.01-1.44c0.71-0.4,1.46-0.74,2.11-1.18
		c-0.39,0.18-0.76,0.47-1.19,0.64c-1.08,0.38-2.13,0.86-3.23,1.18C24.11,28.17,23.7,28.43,23.28,28.09z"/>
	<path class="st6" d="M14.7,10.57c-0.24-1.45-1.16-2.72-1.05-4.26c0.04-0.51,0.14-0.83,0.64-1.13c3-1.82,6.3-2.16,9.69-2.08
		c0.72,0.02,1.43,0.01,2.15,0.02c0.25-0.11,0.51-0.17,0.77-0.1c0.21,0.06,0.25,0.18,0.14,0.42c-0.08,0.18-0.6-0.16-0.33,0.31
		c-0.96,0.77-2.14,0.82-3.28,1c-0.37-0.06-0.67-0.27-1-0.42c-2.59-0.19-5.04,0.21-7.23,1.73c-0.08,0.08-0.17,0.15-0.27,0.22
		c-0.75,0.59-0.34,1.27-0.16,1.95c0.2,0.78,0.81,1.49,0.42,2.37C15.02,10.71,14.85,10.72,14.7,10.57z"/>
	<path class="st7" d="M14.7,10.57c0.16,0,0.31,0,0.47,0c0.58-0.08,0.65,0.82,1.27,0.66c0.21,0.01,0.3,0.15,0.39,0.31
		c0.44,1.19,0.41,2.41,0.23,3.64c-0.09,0.24-0.24,0.42-0.49,0.5c-0.31,0.09-0.4-0.35-0.69-0.3c-0.16-0.08-0.31-0.16-0.47-0.24
		C14.93,13.66,14.95,12.09,14.7,10.57z"/>
	<path class="st8" d="M9.08,20.86c0.04,0.42,0.38,0.66,0.58,0.98c-0.84,0.54-1.88,0.46-2.75,0.94c-0.48,0.26-1,0.45-1.37,0.89
		c-0.93,0.92-1.3,2.17-1.95,3.26c-0.23,0-0.45,0-0.68,0c-0.64-1.33,0.53-2.09,1.1-2.89c0.96-1.33,2.15-2.56,4.05-2.53
		C8.52,21.52,8.89,21.32,9.08,20.86z"/>
	<path class="st9" d="M26.73,3.66c-0.14-0.15-0.08-0.3,0.25-0.47c-0.33-0.03-0.59-0.05-0.85-0.07c1.7-0.92,5.31,0.21,5.71,1.78
		c0.12,0.48,0.17,0.94-0.16,1.36c-0.13,0-0.27,0-0.4,0c-0.74-2.18-0.86-2.26-3.3-2.33C27.54,3.92,27.09,3.99,26.73,3.66z"/>
	<path class="st10" d="M20.14,29.08c-0.15,0.38-0.3,0.77-0.45,1.15c-0.06,0.02-0.12,0.05-0.18,0.08c-2.08,0.5-4.15,1.1-6.25,1.46
		c-2.75,0.46-5.46,0.12-8.06-0.95c-1.14-0.47-1.72-1.25-1.53-2.51c1.67,0.14,3.08,0.8,4.16,2.1c0.29,0.35,0.6,0.47,1.03,0.46
		c1.19-0.04,2.39-0.05,3.55-0.37c1.84-0.51,3.79-0.51,5.6-1.17C18.71,29.24,19.4,28.94,20.14,29.08z"/>
	<path class="st11" d="M30.97,31.44c0.03,0.48-0.1,0.89-0.45,1.22c-1.28,0.54-1.8,0.43-2.6-0.56c-0.28-0.95-0.04-1.74,0.88-2.18
		C29.53,29.58,30.27,30.13,30.97,31.44z"/>
	<path class="st12" d="M12.04,37.21c-0.05-2.7,1.05-3.75,3.34-3.17c-0.08,0.39,0.02,0.83-0.35,1.14c-1.44-0.22-1.69,0.85-1.99,1.85
		C12.74,37.27,12.41,37.35,12.04,37.21z"/>
	<path class="st13" d="M25.92,23.83c-1.65,1.35-2.95,2.97-3.79,4.94c-0.17,0.4-0.32,0.82-0.75,1.04c-0.25-0.11-0.53,0.29-0.77-0.03
		c1.56-2.06,2.79-4.39,4.84-6.06C25.63,23.66,25.8,23.63,25.92,23.83z"/>
	<path class="st14" d="M19.6,32.25c-0.35,0.94-0.77,1.74-0.55,2.66c0.06,0.26,0.24,0.57-0.23,0.62c-0.32,0.04-0.5-0.14-0.64-0.42
		C17.58,33.91,18.16,32.64,19.6,32.25z"/>
	<path class="st15" d="M30.97,31.44c-0.12-0.09-0.3-0.16-0.36-0.28c-0.34-0.69-0.85-1.25-1.63-1.04c-0.86,0.23-0.95,1.05-0.92,1.83
		c-0.21,0.19-0.42,0.18-0.64,0.02c-0.07-1.94,0.32-2.39,2.14-2.46l-0.01-0.01C30.37,29.9,31,30.43,30.97,31.44z"/>
	<path class="st16" d="M12.04,37.21c0.28-0.2,0.61-0.2,0.93-0.2c0.78,0.27,1.61,0.33,2.4,0.6c0.09,0.09,0.12,0.2,0.09,0.33
		C13.78,39.01,12.77,38.8,12.04,37.21z"/>
	<path class="st17" d="M20.62,35.52c-0.37-1.44,0.19-2.7,1.41-3.01c0.44-0.11,1.03-0.38,1.27,0.37c-0.05,0.1-0.12,0.19-0.2,0.26
		c-1.02,0.23-1.49,0.93-1.62,1.92C21.25,35.32,20.95,35.44,20.62,35.52z"/>
	<path class="st18" d="M27.1,29.36c-0.77,1.03-0.67,2.08-0.72,3.11c-0.57,0.01-1.07-0.24-1.06-0.75
		C25.32,30.65,25.68,29.71,27.1,29.36z"/>
	<path class="st19" d="M27.42,31.98c0.21-0.01,0.43-0.01,0.64-0.02c0.57,1.11,1.59,0.67,2.46,0.7c-0.41,0.87-1.21,0.99-1.98,0.86
		C27.77,33.4,27.35,32.82,27.42,31.98z"/>
	<path class="st20" d="M9.64,33.9c0.21,0.26,0.94-0.08,0.74,0.6c-0.15,0.54,0.1,1.39-0.79,1.48C8.97,36.04,8.86,35.52,8.9,35
		C8.94,34.5,8.86,33.93,9.64,33.9z"/>
	<path class="st21" d="M15.46,37.94c-0.03-0.1-0.06-0.2-0.1-0.3c-0.05-0.85,0.33-1.71-0.07-2.55c0.11-0.33,0.25-0.64,0.6-0.79
		C16.93,35.36,16.77,36.69,15.46,37.94z"/>
	<path class="st22" d="M20.62,35.52c0.05-0.53,0.47-0.42,0.8-0.46c0.3-0.13,0.57,0,0.86,0.07c0.42,0.24,1.13-0.1,1.3,0.64
		C22.25,36.55,21.56,36.49,20.62,35.52z"/>
	<path class="st23" d="M23.58,35.77c-0.39-0.56-1.07-0.07-1.53-0.41c1.32-0.4,1.01-1.47,0.99-2.42c0.09-0.02,0.17-0.04,0.26-0.06
		C24.48,33.51,24.58,34.49,23.58,35.77z"/>
	<path class="st24" d="M7.77,35.5c-0.02-0.26-0.09-0.47-0.03-0.62c0.14-0.34,0.05-0.81,0.5-0.98c0.06-0.02,0.18,0,0.21,0.05
		c0.29,0.42-0.15,0.7-0.23,1.06C8.19,35.17,8.18,35.39,7.77,35.5z"/>
	<path class="st25" d="M15.9,34.3c0.09,0.43-0.14,0.66-0.52,0.77c-0.09,0.06-0.15,0.04-0.18-0.06c-0.27-0.39-0.43-0.75,0.18-0.97
		C15.55,34.13,15.73,34.22,15.9,34.3z"/>
	<path class="st26" d="M29.55,29.52c-0.11-0.24-0.51-0.51,0.03-0.71c0.24-0.09,0.52-0.04,0.57,0.23c0.07,0.46-0.3,0.45-0.61,0.47
		C29.54,29.51,29.55,29.52,29.55,29.52z"/>
	<path class="st27" d="M11.1,22.82c1.63,0.84,2.84,2.15,3.93,3.58c0.48,0.63,0.96,0.92,1.69,0.45c0.13-0.09,0.29-0.12,0.44-0.18
		c2.13-0.83,2.32-1.4,0.97-3.32c-0.54-0.78-1.21-1.46-1.82-2.19c0.72-0.8,1.6-1.47,2.01-2.52c2.81-2.16,6.06-3.14,9.5-3.62
		c0.92-0.13,1.23,0.19,1.13,1.11c-0.12,1.15-0.07,2.31,0.13,3.46c0.1,0.6,0.34,1.05,0.89,1.31c-0.73,0.53-1.59,0.07-2.38,0.37
		c-1.76,0.67-3.18,1.75-4.3,3.24c-0.9,1.2-1.78,2.42-2.67,3.62c-0.79,0.14-1.58,0.28-2.37,0.42c-2.63,0-5.17-0.47-7.61-1.49
		c-1.01-0.43-1.89-0.99-2.5-1.92c0.06-1.06,1.07-1.21,1.68-1.75C10.19,23.07,10.68,23.02,11.1,22.82z"/>
	<path class="st28" d="M8.18,24.98c2.22,2.19,5.07,2.78,8.02,3.14c0.69,0.08,1.37,0.29,2.06,0.44c-2.25,0.69-4.61,0.61-6.9,1.01
		c-1.48,0.26-2.63,0.03-3.61-1.21C7.33,27.82,6.59,27.57,6,27.19c-0.07-0.1-0.1-0.2-0.07-0.32C6.58,26.12,7.05,25.16,8.18,24.98z"/>
	<path class="st29" d="M18,29.32c-0.81,0.69-1.84,0.62-2.8,0.79c-2.13,0.38-4.21,1.13-6.43,0.87c-0.45-0.05-0.84-0.08-1.18-0.43
		c-0.89-0.93-1.9-1.67-3.25-1.8c-0.24-0.02-0.45-0.29-0.68-0.45c1.6-0.44,2.93,0.09,3.83,1.38c0.72,1.04,1.55,1.13,2.65,0.94
		C12.75,30.16,15.38,29.76,18,29.32z"/>
	<path class="st30" d="M3.59,26.93c0.04-1.39,0.87-2.39,1.69-3.4c0.62-0.07,1.24-0.16,1.84,0.11c0.37,0.39,0.05,0.69-0.18,0.91
		c-0.8,0.75-1.35,1.66-1.89,2.59C4.56,27.15,3.91,28.11,3.59,26.93z"/>
	<path class="st31" d="M5.05,27.15c-0.07-1.02,0.6-1.65,1.23-2.31c0.32-0.34,0.64-0.7,0.95-1.04c0.92-1.28,1.95-1.77,3.07-1.47
		c0.18,0.15,0.36,0.29,0.53,0.44c-0.2,0.6-0.85,0.5-1.26,0.77c-1.4,0.92-2.63,2-3.57,3.4C6,27.03,6,27.11,6,27.19
		C5.67,27.34,5.36,27.35,5.05,27.15z"/>
	<path class="st27" d="M30.99,6.56c-1.68,0.25-3.42,0.13-5.03,0.86c-2.85,1.3-5.28,3.13-7.23,5.58c-0.68-0.1-0.66-0.66-0.8-1.15
		c-0.33-1.23-0.2-2.51-0.4-3.76c-0.19-1.18,0.77-1.62,1.61-2.08c2.76-0.92,5.56-1.57,8.51-1.57C29.31,4.45,30.41,5.01,30.99,6.56z"
		/>
	<path class="st32" d="M29.52,7.5c0.43-0.03,0.86-0.07,1.3-0.1c-0.33,2.08-0.47,2.21-2.4,2.69c-3.66,0.9-6.55,3.17-9.5,5.32
		c-0.36-1.17-0.34-1.15,0.49-2.01c1.8-1.87,3.65-3.67,6.06-4.76C26.79,8.17,28.13,7.75,29.52,7.5z"/>
	<path class="st33" d="M16.8,15.39c0.11-1.37,0.03-2.73-0.23-4.08c-0.49-1.29-0.59-2.64-0.59-4c0.36-0.46,0.73-0.89,1.4-0.54
		c0.38,2.45,0.92,4.89,0.45,7.4c0.19,0.72,0.02,1.5,0.36,2.19c0.04,0.52-0.43,0.79-0.61,1.19c-0.57,0.98-1.25,1.88-2.28,2.74
		c0.1-0.81,0.81-1.14,0.78-1.78c-0.14-0.3,0-0.59,0.06-0.88C16.35,16.88,16.41,16.08,16.8,15.39z"/>
	<path class="st34" d="M16.14,7.19c0.17,1.37,0.54,2.71,0.42,4.11c-0.09,0.08-0.18,0.17-0.26,0.25c-0.44-0.04-0.47-0.44-0.47-0.7
		c-0.02-1.67-0.46-3.25-0.98-4.82c0.1-0.01,0.21-0.02,0.31-0.03c2.16-1.24,4.51-1.81,6.97-1.99c0.16-0.01,0.31-0.04,0.44,0.08
		c0.24,0.15,0.48,0.3,0.72,0.45c-0.08,0.31-0.3,0.43-0.59,0.49c-1.23,0.22-2.37,0.71-3.51,1.22c-2.31,1.03-1.03,2.98-1.07,4.54
		c-0.02,0.7-0.1,1.62,0.6,2.22c-0.58,0.16-0.69,0.7-0.92,1.14c-0.04-2.25-0.09-4.5-0.57-6.71c-0.05-0.25-0.04-0.47,0.07-0.69
		c0.06-0.48,0.42-0.73,0.77-0.98C17.44,6.24,16.55,6.38,16.14,7.19z"/>
	<path class="st35" d="M29.56,13.05c-3.02,0.14-5.74,1.31-8.42,2.57c-0.12-0.52,0.33-0.67,0.62-0.9c1.07-0.82,2.15-1.62,3.22-2.46
		c1.33-0.86,2.68-1.66,4.33-1.69c0.37,0.4,0.25,0.89,0.18,1.34C29.43,12.31,29.35,12.68,29.56,13.05z"/>
	<path class="st36" d="M19.2,6.26c1.14-1.1,2.73-1.15,4.1-1.7c1.14-0.3,2.29-0.6,3.43-0.9c0.87,0,1.74-0.06,2.59,0.02
		c1.66,0.15,2.26,0.99,1.95,2.59c-0.1,0.1-0.19,0.2-0.29,0.3c-0.29-0.08-0.63-0.02-0.7-0.48c-0.15-0.98-0.89-1.22-1.74-1.25
		C25.75,4.74,23,5,20.35,5.99C19.98,6.13,19.58,6.17,19.2,6.26z"/>
	<path class="st37" d="M24.98,12.26c-0.74,1.09-1.87,1.74-2.86,2.54c-0.33,0.27-0.8,0.37-0.97,0.81c-1.14,0.74-2.31,1.43-3.58,1.93
		c0.08-0.46,0.14-0.94,0.61-1.19c0.51-0.01,0.88-0.31,1.27-0.6C21.2,14.44,23,13.2,24.98,12.26z"/>
	<path class="st38" d="M29.52,7.5c-1.29,0.59-2.63,1.03-4.06,1.14C26.68,7.81,28.02,7.38,29.52,7.5z"/>
	<path class="st39" d="M29.56,13.05c-0.6,0.04-0.64-0.3-0.47-0.74c0.22-0.57,0.21-1.15,0.21-1.74c0.16-0.07,0.32-0.14,0.48-0.21
		C29.75,11.26,29.88,12.17,29.56,13.05z"/>
	<path class="st40" d="M29.98,20.9c-0.8,0.12-1.15-0.07-1.22-1.04c-0.1-1.35-0.26-2.69-0.08-4.03c0.1-0.7-0.17-0.58-0.63-0.51
		c-3.53,0.51-6.92,1.38-9.79,3.66c-0.22,0.38-0.48,0.58-0.89,0.22c0.05-0.72,0.76-0.74,1.18-1.02c2.82-1.83,5.74-3.45,9.08-4.14
		c1.95-0.4,1.92-0.4,1.95,1.54c0.03,1.7,0.08,3.41,0.42,5.09C30,20.75,29.99,20.82,29.98,20.9z"/>
	<path class="st41" d="M17.37,19.19c0.33,0.07,0.6-0.11,0.89-0.22c-0.21,1.12-0.94,1.77-1.95,2.18c-0.23-0.16-0.46-0.32-0.7-0.47
		C16.33,20.34,16.87,19.79,17.37,19.19z"/>
	<path class="st42" d="M16.29,17.77c0.03,0.28-0.07,0.51-0.22,0.73c-0.59,0.24-0.49-0.21-0.4-0.46c0.32-0.87,0.16-1.77,0.19-2.65
		c0.03-0.14,0-0.37,0.19-0.33c0.25,0.05,0.3,0.32,0.35,0.55C16.79,16.35,16.34,17.05,16.29,17.77z"/>
	<path class="st43" d="M26.88,24.22c0.7-0.68,1.52-1.13,2.46-1.36c0.42,0.62,0.37,1.24,0.02,1.87l-0.04,0.04
		c-1.09,0.39-2.03,1.09-3.09,1.55c-0.31,0.14-0.7,0.44-0.97,0.06c-0.24-0.34,0.09-0.68,0.3-0.96
		C25.92,24.95,26.47,24.66,26.88,24.22z"/>
	<path class="st44" d="M26.88,24.22c-0.37,0.77-1.25,1.19-1.5,2.11c1.45-0.27,2.43-1.59,3.94-1.57c-1.73,1.34-3.65,2.28-5.76,2.84
		C24.45,26.28,25.27,24.87,26.88,24.22z"/>
	<path class="st45" d="M26.91,27.59c-1.18,0.75-2.61,0.86-3.81,1.55c-0.18,0.1-0.24-0.11-0.28-0.27c0.15-0.26,0.31-0.52,0.46-0.78
		c1.52-0.49,3.04-0.99,4.56-1.48C27.88,27.26,27.21,27.25,26.91,27.59z"/>
	<path class="st46" d="M29.36,24.73c-0.01-0.62-0.01-1.25-0.02-1.87c1.37-0.78,0.74,0.5,0.95,0.92
		C30.29,24.4,29.98,24.71,29.36,24.73z"/>
	<path class="st47" d="M25.92,23.83c-0.16-0.04-0.31-0.07-0.47-0.11c0.4-0.62,0.99-0.96,1.68-1.16c0.29-0.16,0.49-0.1,0.56,0.24
		C27.1,23.15,26.51,23.49,25.92,23.83z"/>
	<path class="st48" d="M27.69,22.81c-0.1-0.28-0.37-0.17-0.56-0.24c0.77-0.59,1.66-0.66,2.92-0.74
		C29.05,22.24,28.37,22.52,27.69,22.81z"/>
	<path class="st49" d="M17.08,25.53c-0.75,0.57-1.33,0.51-1.86-0.34c-0.95-1.57-2.51-2.5-3.91-3.6c-0.11-0.44,0.17-0.63,0.51-0.78
		c0.52-0.01,0.98,0.3,1.49,0.32C15.4,21.89,16.28,23.67,17.08,25.53z"/>
	<path class="st50" d="M17.08,25.53c-1.02-0.51-0.86-1.79-1.66-2.49c-0.71-0.62-1.29-1.38-2.22-1.72c-0.36-0.32-0.77-0.56-1.17-0.82
		c-0.06-0.06-0.08-0.12-0.05-0.18c0.02-0.06,0.04-0.09,0.07-0.09c0.83-0.16,1.53,0.09,2.19,0.6c1.29,1,2.51,2.05,3.24,3.55
		C17.68,24.83,17.92,25.39,17.08,25.53z"/>
	<path class="st51" d="M10.31,22.33c-1.3-0.1-2.05,0.97-3.07,1.47c-0.64-0.14-1.36,0.24-1.95-0.26c1.2-1.24,2.73-1.61,4.38-1.69
		C9.96,21.89,10.18,22.04,10.31,22.33z"/>
	<path class="st52" d="M6.01,26.94c-0.04-0.79,0.63-1.15,1.04-1.63c1.02-1.19,2.27-2.07,3.79-2.55c0.09,0.02,0.17,0.04,0.26,0.05
		c-0.97,0.72-1.95,1.44-2.92,2.16C7.3,25.46,6.81,26.37,6.01,26.94z"/>
	<path class="st53" d="M12.04,20.24c-0.03,0.12-0.06,0.24-0.09,0.37c0,0.11-0.04,0.19-0.14,0.25c-0.16,0.25-0.33,0.49-0.49,0.74
		c-0.37-0.1-0.75-0.19-1.25-0.32C10.65,20.6,11.3,20.34,12.04,20.24z"/>
	<path class="st54" d="M26.91,27.59c0.31-0.33,0.62-0.65,0.93-0.98c0.57-0.32,1.15-0.64,1.72-0.96c0.06,0.1,0.12,0.19,0.17,0.29
		C28.83,26.53,27.99,27.24,26.91,27.59z"/>
	<path class="st55" d="M14.86,6.04c1.13,1.07,1.01,2.55,1.24,3.91c0.09,0.53-0.12,1.1,0.2,1.6c-0.82,0.19-0.74-0.68-1.15-0.98
		c-0.12-0.95-0.62-1.79-0.82-2.69C14.21,7.28,13.52,6.31,14.86,6.04z"/>
	<path class="st56" d="M22.58,4.1c-1.17,0.22-2.34,0.43-3.5,0.65c-0.99,0.18-1.91,0.54-2.74,1.13c-0.36,0.26-0.74,0.51-1.18,0.14
		c-0.13-0.22-0.21-0.4,0.12-0.56c2.22-1.07,4.57-1.57,7.02-1.56C22.4,3.89,22.49,4.03,22.58,4.1z"/>
	<path class="st57" d="M16.29,17.77c0.04-0.72,0.07-1.44,0.11-2.16c0.13-0.07,0.26-0.15,0.4-0.22
		C16.85,16.23,16.67,17.02,16.29,17.77z"/>
	<path class="st58" d="M15.68,12.35c0.66,0.35,0.75,0.83,0.61,1.48C15.85,13.43,15.53,13.06,15.68,12.35z"/>
	<path class="st59" d="M15.2,35.02c0.07,0,0.13,0.02,0.18,0.06c0.85,0.86,0.4,1.72-0.02,2.57c-0.9,0.19-1.75,0.16-2.39-0.63
		C13.03,35.13,13.46,34.74,15.2,35.02z"/>
	<path class="st60" d="M23.05,32.94c0.08,0.18,0.15,0.36,0.24,0.53c0.6,1.15,0.21,1.74-1.23,1.89c-0.21-0.1-0.42-0.2-0.63-0.3
		C21.32,33.4,21.32,33.4,23.05,32.94z"/>
	<path class="st61" d="M16.14,7.19c-0.19-0.9,0.62-0.99,1.11-1.29c0.48-0.29,1.05-0.45,1.67-0.49c-0.53,0.45-1.07,0.9-1.6,1.34
		C16.93,6.9,16.54,7.05,16.14,7.19z"/>
	<path class="st62" d="M11.81,20.85c0.05-0.08,0.09-0.17,0.14-0.25c0.67-0.2,1.21-0.17,1.25,0.73
		C12.61,21.52,12.2,21.21,11.81,20.85z"/>
</g>
</svg>
