<?xml version="1.0" encoding="utf-8"?>
<!-- Generator: Adobe Illustrator 23.0.2, SVG Export Plug-In . SVG Version: 6.00 Build 0)  -->
<svg version="1.1" id="Camada_1" xmlns="http://www.w3.org/2000/svg" xmlns:xlink="http://www.w3.org/1999/xlink" x="0px" y="0px"
	 viewBox="0 0 26.55 35.82" style="enable-background:new 0 0 26.55 35.82;" xml:space="preserve">
<style type="text/css">
	.st0{fill:#DCDBDB;}
	.st1{fill:#FDFDFD;}
	.st2{fill:#FAFAFA;}
	.st3{fill:#F7F7F7;}
	.st4{fill:#F8F8F8;}
	.st5{fill:#DCDBDA;}
	.st6{fill:#E1E0E0;}
	.st7{fill:#D98506;}
	.st8{fill:#9F4710;}
	.st9{fill:#328817;}
	.st10{fill:#CD813D;}
	.st11{fill:#70249B;}
	.st12{fill:#562F14;}
	.st13{fill:#7E1206;}
	.st14{fill:#94230E;}
	.st15{fill:#208CAE;}
	.st16{fill:#702701;}
	.st17{fill:#C97902;}
	.st18{fill:#2B0A02;}
	.st19{fill:#1B7D9E;}
	.st20{fill:#9D12A1;}
	.st21{fill:#762C01;}
	.st22{fill:#2086A9;}
	.st23{fill:#095A79;}
	.st24{fill:#3FA71D;}
	.st25{fill:#1E87A9;}
	.st26{fill:#E3B187;}
	.st27{fill:#B35B24;}
	.st28{fill:#8E49AD;}
	.st29{fill:#B5C6CA;}
	.st30{fill:#F3BB25;}
	.st31{fill:#F7BF26;}
	.st32{fill:#CA4648;}
	.st33{fill:#EFB21F;}
	.st34{fill:#EAA71B;}
	.st35{fill:#F9C329;}
	.st36{fill:#6CA334;}
	.st37{fill:#FAC42A;}
	.st38{fill:#F3B926;}
	.st39{fill:#961998;}
	.st40{fill:#F2B625;}
	.st41{fill:#B625B9;}
	.st42{fill:#F7E3BE;}
	.st43{fill:#EBB01A;}
	.st44{fill:#F8EBD1;}
	.st45{fill:#F8EBD5;}
	.st46{fill:#FCF3DB;}
	.st47{fill:#F6ECD1;}
	.st48{fill:#F6E2BA;}
	.st49{fill:#E6D0A6;}
	.st50{fill:#A04912;}
	.st51{fill:#B8642E;}
	.st52{fill:#2B0A00;}
	.st53{fill:#3D1704;}
	.st54{fill:#D1C3BA;}
	.st55{fill:#D2C5BC;}
	.st56{fill:#79B03E;}
	.st57{fill:#83BB48;}
	.st58{fill:#78AF3B;}
	.st59{fill:#60A033;}
	.st60{fill:#6DA335;}
	.st61{fill:#C3DBB4;}
	.st62{fill:#70A637;}
	.st63{fill:#ACCF98;}
	.st64{fill:#A7C88E;}
	.st65{fill:#B0CE8F;}
	.st66{fill:#EEDDD3;}
	.st67{fill:#9A4FB6;}
	.st68{fill:#964CB3;}
	.st69{fill:#8F2111;}
	.st70{fill:#C06C32;}
	.st71{fill:#762B01;}
	.st72{fill:#A7571F;}
	.st73{fill:#CE7F3D;}
	.st74{fill:#F2D087;}
	.st75{fill:#EDD497;}
	.st76{fill:#CA4647;}
	.st77{fill:#C94545;}
	.st78{fill:#AC2728;}
	.st79{fill:#C9B2AC;}
	.st80{fill:#D6AEA5;}
	.st81{fill:#228CAE;}
	.st82{fill:#C03C3D;}
	.st83{fill:#C43F3F;}
	.st84{fill:#C14442;}
	.st85{fill:#EBD0CC;}
	.st86{fill:#E9C7C5;}
	.st87{fill:#024160;}
	.st88{fill:#BFCED2;}
	.st89{fill:#B9C9CD;}
	.st90{fill:#D9D7D5;}
	.st91{fill:#A34A12;}
	.st92{fill:#033C5E;}
	.st93{fill:#CD55CE;}
	.st94{fill:#DBBCDD;}
	.st95{fill:#DCB0DD;}
	.st96{fill:#D5A7D6;}
	.st97{fill:#248DAF;}
	.st98{fill:#C8D3D7;}
	.st99{fill:#B5CED5;}
	.st100{fill:#9CB8C2;}
	.st101{fill:#1F88AA;}
	.st102{fill:#F0D9D7;}
	.st103{fill:#C08661;}
</style>
<g>
	<path class="st0" d="M23.12,33.42c-0.49,0.58-1.2,0.78-1.87,0.98c-2.33,0.68-4.73,1.15-7.14,1.37c-2.72,0.25-5.37-0.53-7.96-1.33
		c-1.07-0.33-1.96-1-2.66-1.94c-2.28-3.05-1.41-6.08,2.14-7.4c-0.43-1.66-1.58-2.85-2.61-4.15C0.25,17.46-0.39,13.42,0.2,9.11
		c0.12-0.87,0.19-1.74,0.36-2.6c0.17-0.84,0.57-1.56,1.42-1.92c0.48,0.2,0.65,0.59,0.61,1.08c-2.06,4.52-1.3,12.18,2.59,15.45
		c0.65,0.55,1.11,1.22,1.3,2.09c0.18,0.78,0.84,1.24,1.38,1.76c0.55,0.53,0.41,0.89-0.24,1.14c-0.49,0.18-1.01,0.24-1.5,0.41
		c-2.43,0.84-3.07,2.82-1.57,4.91c0.73,1.02,1.77,1.58,2.96,1.9c3.4,0.9,6.79,1.26,10.28,0.34c1.61-0.42,3.26-0.7,4.8-1.35
		C23.08,32.55,23.38,32.85,23.12,33.42z"/>
	<path class="st1" d="M23.12,33.42c0.03-0.42-0.31-0.67-0.49-0.99c-0.22-0.54,0.25-0.79,0.49-1.11c1.15-1.52,0.86-3.13-0.72-4.23
		c-1.01-0.7-2.18-0.97-3.33-1.31c-1-0.29-0.86-0.3-0.37-1.15c2.01-3.49,5.16-6.31,6-10.49c0.23-1.16,0.21-2.3,0.2-3.45
		c0-0.43-0.18-0.83-0.61-0.94c-0.96-0.25-1.07-0.95-1.04-1.76c0.01-0.12,0-0.24,0-0.36c0.04-2.17-0.32-2.4-2.2-1.39
		c-0.27,0.15-0.55,0.41-0.87,0.17c-0.25-0.18-0.2-0.49-0.2-0.78c0.06-1.84,0.05-1.84-1.56-2.48c-0.27-0.32-0.42-0.67-0.19-1.08
		c1.69-0.42,2.59-0.03,3.23,1.48c0.17,0.41,0.35,0.46,0.78,0.47c1.82,0.04,2.71,1.09,2.57,2.96c-0.05,0.65-0.12,1.2,0.68,1.55
		c0.75,0.33,0.97,1.15,1.01,1.93c0.12,2.43-0.33,4.75-1.34,6.97c-0.82,1.79-1.96,3.38-3.2,4.9c-0.23,0.28-0.51,0.54-0.64,0.86
		c-0.33,0.78-0.73,1.52,0.6,1.94c1.51,0.48,2.82,1.37,3.24,3.07C25.75,30.46,24.83,32.1,23.12,33.42z"/>
	<path class="st2" d="M11.31,0.17c1.88-0.63,3.36,0.56,3.39,2.16c0.01,0.76,0.37,1.37,0.73,1.99c0.56,0.12,0.88,0.44,0.88,1.03
		c-0.04,0.37-0.21,0.68-0.46,0.95c-0.56,0.62-0.99,0.61-1.36-0.14c-0.44-0.88-0.99-1.77-1.11-2.74c-0.15-1.24-0.71-1.94-1.91-2.17
		C11.12,0.94,11.07,0.58,11.31,0.17z"/>
	<path class="st3" d="M2.46,5.52C2.3,5.21,2.15,4.9,1.99,4.59c0.93-0.55,1.8-0.39,2.64,0.2c1.03,0.18,1.56,0.78,1.51,1.85
		c0,0.59,0.07,1.19-0.07,1.77C5.94,8.94,5.67,9.07,5.28,8.6C5.13,8.42,5,8.21,4.91,7.99C4.43,6.83,3.79,5.83,2.46,5.52z"/>
	<path class="st4" d="M6.74,1.84c1.06-0.42,2-0.22,2.85,0.53c0.8,0,0.73,0.65,0.86,1.15c0.01,0.12,0.02,0.24,0.01,0.36
		c-0.05,0.59,0.01,1.43-0.6,1.57c-0.64,0.14-0.73-0.72-0.91-1.2c-0.37-0.98-1.3-0.94-2.03-1.28C6.56,2.63,6.51,2.25,6.74,1.84z"/>
	<path class="st5" d="M6.74,1.84c0.09,0.35,0.19,0.7,0.28,1.05C6.78,3.98,6.4,5.05,6.26,6.18c-0.02,0.2-0.18,0.34-0.41,0.36
		c0.16-0.98-0.68-1.26-1.22-1.75c0.6,0.03,0.41-0.46,0.49-0.76C5.36,3.07,5.71,2.2,6.74,1.84z"/>
	<path class="st6" d="M16.18,5.35c-0.13-0.43-0.46-0.72-0.75-1.03c0.96-0.73,1.57-1.91,2.85-2.23c0.09,0.34,0.18,0.68,0.27,1.02
		C17.97,4.08,17.28,4.94,16.18,5.35z"/>
	<path class="st6" d="M10.18,3.67c-0.06-0.5-0.11-1-0.59-1.31c0.27-0.97,0.5-1.97,1.72-2.19c0.09,0.34,0.18,0.68,0.27,1.02
		C11.11,2.02,11.2,3.16,10.18,3.67z"/>
	<path d="M10.18,3.67c0.64-0.73,0.47-1.92,1.4-2.48c1.67,0.04,1.59,0.07,1.96,1.7c0.26,1.15,0.8,2.23,1.23,3.34
		c0.17,0.42,0.42,0.43,0.68,0.07c0.24-0.32,0.48-0.63,0.72-0.95c0.74-0.8,1.45-1.63,2.37-2.24c1.94,0.04,1.95,0.07,1.77,3.34
		c0.43-0.34,0.81-0.63,1.17-0.92c0.49-0.39,1.05-0.39,1.58-0.15c0.49,0.23,0.59,0.73,0.6,1.22C23.67,7,23.6,7.4,23.6,7.8
		c0,0.75-0.36,1.62,1.03,1.65c0.68,0.01,0.65,0.84,0.68,1.46c0.18,3.74-1.3,6.87-3.48,9.78c-0.74,0.99-1.78,1.78-1.97,3.19
		c-0.07,0.52-0.79,0.95-1.25,1.46c1.25,0.32,2.5,0.72,3.69,1.29c2.18,1.04,2.39,3.57,0.88,5.18c-0.19,0.2-0.36,0.42-0.54,0.63
		c-1.47,1.08-3.23,1.31-4.95,1.55c-1.8,0.25-3.56,0.97-5.43,0.61c-1.75-0.34-3.53-0.59-5.24-1.06c-1.6-0.44-2.8-1.48-3.35-3.13
		c-0.61-1.85,0.08-3.31,1.92-4c0.81-0.3,1.65-0.51,2.56-0.78C7.07,24.78,6.07,24,5.97,22.55c-0.02-0.28-0.42-0.56-0.68-0.8
		c-3.66-3.55-4.63-7.9-3.86-12.79c0.19-1.2-0.02-2.51,1.03-3.44c1.15-0.18,1.85,0.26,2.22,1.39C4.9,7.55,5.31,8.13,5.85,8.7
		c0-0.72,0-1.45,0-2.17c0.4-1.21,0.1-2.65,1.17-3.65c2.07-0.4,2.15,1.35,2.75,2.63C10.04,4.87,10.16,4.28,10.18,3.67z"/>
	<path class="st7" d="M14.49,9.67c0.37-0.52,0.74-1.03,1.11-1.55c0.49,0.5,0.61-0.44,1.02-0.26c0.42,0.3,0.48,0.85,0.82,1.21
		c0.16,0.29,0.2,0.61,0.26,0.92c0.01,0.31,0.12,0.6,0.19,0.9c-0.32,0.59-0.7,1.16-0.5,1.88c-0.95,0.9-1.13,2.17-1.58,3.3
		c0.98-0.35,1.88-0.79,2.26-1.85c-0.08-0.66-0.09-1.33-0.1-1.99c-0.12-0.57,0.28-1.1,0.12-1.67c0.14-0.57-0.16-1.21,0.25-1.75
		c0.64,0.06,0.52,0.74,0.86,1.04c0.05,0.12,0.08,0.24,0.09,0.37c0.04,0.46,0.05,0.91,0.05,1.37c0.06,1.14-0.09,2.27-0.24,3.4
		c-0.12,0.83-0.24,1.66-0.54,2.45c-0.17,0.31-0.26,0.69-0.63,0.86c-1.31-0.21-2.17,0.94-3.35,1.14c-0.02,0,0.28,0.04,0.36,0.19
		c0.12,0.25,0,0.43-0.16,0.6c-0.7,0.27-1.24,0.69-1.44,1.47c-0.08,0.3-0.27,0.58-0.61,0.7c-0.12,0-0.22-0.04-0.3-0.13
		c-0.27-1.02,0.58-1.73,0.74-2.63c0.03-0.11,0.07-0.21,0.1-0.32c0.17-0.71-0.31-1.27-0.47-1.9c-0.14-0.57-0.36-1.12-0.24-1.79
		c-0.18,0.39-0.35,0.73-0.82,0.45c-0.18-1.15,0.53-2.08,0.76-3.13C13.29,11.93,13.48,10.55,14.49,9.67z"/>
	<path class="st8" d="M21.01,31.25c-1.29,0.68-2.69,0.99-4.12,1.18c-2.26,0.28-4.51,0.37-6.73-0.21c-0.8-0.21-1.62-0.43-2.2-1.11
		c-0.14-0.28-0.14-0.52,0.15-0.7c1.35-0.28,2.63-0.23,3.89,0.46c1.1,0.6,2.24,0.06,3.35-0.15c0.47,0.08,0.77-0.11,0.89-0.58
		c0.09-0.15,0.23-0.24,0.4-0.28c0.24-0.03,0.46,0.03,0.69,0.05c0.83,0,1.62,0.26,2.44,0.33C20.32,30.4,21.12,30.27,21.01,31.25z"/>
	<path class="st9" d="M18.27,17.49c0.17-0.75,0.34-1.49,0.51-2.24c0.15-0.6,0.64-0.9,1.1-1.23c0.15-0.1,0.31-0.16,0.48-0.16
		c0.05,0.02,0.1,0.05,0.16,0.07c0.07,0.09,0.13,0.19,0.16,0.3c0.2,0.49-0.15,1.06,0.24,1.51c0.32-0.46,0.41-1.06,0.92-1.38
		c0.11-0.03,0.22-0.02,0.32,0.02c0.07,0.09,0.11,0.19,0.12,0.3c-0.18,0.72-0.51,1.41-0.56,2.17c-0.1,0.16-0.33,0.21-0.37,0.47
		c0.62-0.03,0.77-0.45,0.84-0.94c0.12-0.51,0.5-0.8,0.91-1.05c0.11-0.03,0.2,0,0.28,0.08c-0.57,2.04-1.85,3.65-3.12,5.27
		c-0.56,0.71-1.12,1.43-1.68,2.14c-0.36,0.26-0.67,0.1-0.97-0.13c-0.24-0.42-0.24-0.86-0.09-1.31c0.1-0.14,0.23-0.24,0.36-0.34
		c0.65-0.7,0.9-1.46,0.48-2.39C18.21,18.3,18.11,17.89,18.27,17.49z"/>
	<path class="st10" d="M16.88,26.13c0.08,0.09,0.16,0.18,0.25,0.27c0.76,0.61,1.74,0.64,2.6,0.98c0.63,0.26,1.37,0.3,1.83,0.92
		c0.01,0.37-0.29,0.59-0.4,0.9c-0.05,0.1-0.12,0.19-0.19,0.28c-0.25,0.26-0.52,0.47-0.92,0.34c-0.51-0.27-1.08-0.21-1.63-0.24
		c-1.56-0.06-2.94-0.56-4.11-1.59c-0.27-0.24-0.72-0.42-0.55-0.93C14.79,26.72,15.74,26.11,16.88,26.13z"/>
	<path class="st11" d="M14.49,9.67c-0.46,1.17-1.01,2.3-1.7,3.36c-0.12,0.04-0.22,0.02-0.32-0.05c-0.46-1.22-1.38-2.2-1.73-3.47
		c0.03-0.11,0.1-0.2,0.21-0.25c0.5-0.09,0.9,0.3,1.48,0.31c-0.12-1.01-0.44-1.99-0.49-3c0.18-0.61,0.02-1.23,0.06-1.84
		c0.02-0.42-0.05-0.86,0.34-1.18C13.41,5.46,14.03,7.54,14.49,9.67z"/>
	<path class="st12" d="M16.88,26.13c-0.99,0.5-1.97,1.02-3.12,1.01c-0.27,0.26-0.57,0.24-0.89,0.13c-0.11-0.06-0.2-0.15-0.25-0.27
		c-0.06-0.17-0.08-0.35-0.06-0.53c0.05-0.23,0.15-0.43,0.39-0.61c-0.37,0.13-0.69,0.29-1.05,0.14c-0.38-0.38-0.16-0.66,0.15-0.93
		c0.11-0.06,0.24-0.11,0.36-0.14c0.7-0.09,1.41-0.05,2.11-0.05c0.29,0,0.58,0.01,0.87-0.02c0.76-0.16,1.09-0.88,1.65-1.3
		c0.01-0.01-0.01-0.09-0.03-0.1c-0.08-0.02-0.16-0.02-0.24-0.04c-0.56-0.07-0.87-0.61-1.39-0.75c-0.81-0.16-1.53,0.68-2.36,0.21
		c-0.08-0.1-0.11-0.21-0.07-0.34c0.9-0.68,1.86-1.11,3.01-0.7c0.48,0.29,0.94,0.65,1.53,0.7c0.36,0.09,0.72,0.18,1.08,0.28
		c0.49,1.09-0.53,1.23-1.07,1.6C16.86,24.87,16.38,25.29,16.88,26.13z"/>
	<path class="st13" d="M7.02,11.52c0-2.17-0.05-4.35,0.48-6.48c0.46,1.14,0.22,2.34,0.31,3.5C7.63,9.01,7.94,9.32,8.17,9.65
		c0.09,0.13,0.22,0.09,0.09-0.01C8.22,9.61,8.25,9.5,8.25,9.42C7.89,7.98,7.91,6.47,7.5,5.04c0-0.3-0.1-0.63,0.28-0.97
		c0.99,1.7,1.21,3.82,2.85,5.1c0.05-0.12,0.13-0.15,0.24-0.09c0.07,0.09,0.08,0.19,0.03,0.3l-0.12-0.02c-0.04,0.23-0.2,0.34-0.4,0.4
		c-0.41,0.15-0.54,0.55-0.76,0.87c-0.1,0.18-0.16,0.38-0.23,0.58c-0.08,0.21-0.2,0.39-0.44,0.44c-0.52-0.01-0.83-0.42-1.21-0.67
		C7.29,10.87,7.56,11.75,7.02,11.52z"/>
	<path class="st14" d="M7.02,11.52c0.31-0.23,0.22-0.57,0.25-0.87c0.02-0.18-0.02-0.48,0.25-0.43c0.3,0.05,0.21,0.37,0.24,0.59
		c0.13,1.16,0.02,2.41,1.26,3.2c-0.03-0.84-0.27-1.65-0.1-2.46c0.22-0.1,0.26-0.31,0.28-0.52c0.82,0.35,0.5,1.21,0.82,1.79
		c0.06,0.33-0.05,0.65-0.02,0.98c-0.01,0.35,0.25,0.49,0.48,0.67c0.19,0.43-0.26,0.77-0.19,1.18c0.11,0.41,0.12,0.84,0.18,1.33
		c0.45,0.02,0.67-0.69,1.17-0.41c0.1,0.16,0.11,0.32,0.06,0.5c-1,1.04-0.91,2.24-0.58,3.52c0.12,0.45,0.33,0.89,0.3,1.37
		c-0.34,0.49-0.8,0.56-1.33,0.38c-0.59-1.5-0.58-3.11-0.84-4.68c0.47-1.22,0.2-2.1-0.86-2.78c-0.66-0.63-1.46-1.16-1.54-2.19
		C6.9,12.3,6.96,11.91,7.02,11.52z"/>
	<path class="st15" d="M7.98,22.57c-1.35-1.69-3.16-3.01-4.09-5.04c-0.07-0.06-0.09-0.12-0.07-0.18c0.02-0.06,0.04-0.1,0.06-0.1
		c0.63-0.03,1.06,0.54,1.65,0.56c-0.43-0.13-0.89-0.24-1.22-0.61c0.01-0.3-0.16-0.61,0.04-0.91c0.68-0.16,1.19,0.46,1.85,0.41
		c0.83,0.26,0.6,1.13,0.95,1.68c0.64,1.01,0.91,2.19,1.27,3.32c0.1,0.31,0.3,0.69-0.13,0.96C8.18,22.67,8.07,22.64,7.98,22.57z"/>
	<path class="st16" d="M7.91,30.91c2.31,1.34,4.85,1.52,7.43,1.49c0.51,0,1.03,0.01,1.54,0.02c-3.3,0.8-6.55,0.64-9.75-0.46
		c-1.17-0.4-1.85-1.29-2.24-2.52c0.57,0.1,0.88,0.58,1.38,0.54c0.04,0.02,0.09,0.03,0.13,0.05c0.4,0.14,0.56-0.31,0.88-0.36
		c0.32,0.01,0.49,0.19,0.59,0.47C7.94,30.4,7.69,30.67,7.91,30.91z"/>
	<path class="st17" d="M17.56,10.08c-0.33-0.26-0.17-0.64-0.22-0.96c-0.42-0.29-0.25-0.96-0.76-1.2c-0.31,0.13-0.48,0.91-0.98,0.21
		c1.02-1.39,2.07-2.74,3.65-4.05c-0.1,2-0.18,3.68-0.26,5.35c0.15,0.15,0.15,0.29-0.04,0.42c-0.25-0.3-0.16-0.81-0.63-0.97
		C18,9.23,18.08,9.84,17.56,10.08z"/>
	<path class="st18" d="M7.98,22.57c0.07-0.01,0.14,0,0.2,0.02c0.21,0.13,0.4-0.03,0.6-0.05c0.47,0.02,0.87-0.36,1.36-0.25
		c0.41-0.14,0.82-0.27,1.24-0.41c0.06-0.08,0.15-0.12,0.25-0.11c0.15,0.03,0.29,0.09,0.42,0.16c0.19,0.08,0.33,0.24,0.48,0.37
		c0.06,0.06,0.13,0.08,0.21,0.07c0.16-0.02,0.24,0.06,0.27,0.21c0,0.07,0.01,0.14,0.01,0.21c-0.18,0.2-0.42,0.22-0.67,0.2
		c-0.67-0.14-1.34-0.22-2.01,0c-0.32,0.15-0.64,0.33-0.96,0.47c0.59,1.07,1.74,1.24,2.69,1.74c-0.06,0.25-0.49,0.52,0.05,0.72
		c0.16,0.22,0.47,0.22,0.65,0.41c0,0.18,0.01,0.36,0.01,0.54c-0.63,0.47-1.32,0.33-2.02,0.24c-0.33-0.1-0.67-0.2-0.87-0.51
		c0.55-0.81,0.1-1.34-0.54-1.79c-0.64-0.46-1.39-0.78-1.82-1.5C7.21,22.8,7.3,22.51,7.98,22.57z"/>
	<path class="st19" d="M4.38,16.35c-0.07,0.24,0.29,0.46,0.02,0.71c-0.13,0.1-0.3,0.1-0.45,0.16c-0.02,0.1-0.04,0.21-0.06,0.31
		c-1.13-1.59-1.01-3.47-1.24-5.26c0.89-0.19,1.23,0.98,2.1,0.85c0.11,0.05,0.19,0.12,0.27,0.21c0.36,0.69,0.7,1.38,1.02,2.09
		c0.19,0.43,0.38,0.92-0.34,1.09c-0.49,0.01-0.86-0.32-1.3-0.47c-0.03-0.01-0.16-0.24-0.17,0C4.23,16.13,4.36,16.23,4.38,16.35z"/>
	<path class="st20" d="M18.95,9.85c0.01-0.14,0.03-0.28,0.04-0.42c1.15-0.93,2.05-2.17,3.38-3.02c0.22,1.94-0.32,3.73-0.16,5.54
		c-0.05,0.03-0.1,0.07-0.14,0.1c-0.42-0.11-0.52-0.44-0.57-0.81c0.05-0.39,0.23-0.74,0.21-1.02c-0.1,0.44-0.23,1.01-0.78,1.34
		c-0.28,0-0.38-0.19-0.45-0.42c-0.17-0.5,0.12-1.14-0.49-1.5c-0.19,0.01-0.33,0.12-0.45,0.26c-0.06,0.08-0.13,0.14-0.21,0.2
		c-0.1,0.04-0.19,0.03-0.27-0.04C19.02,10.01,18.99,9.93,18.95,9.85z"/>
	<path class="st21" d="M9.89,26.61c0.27,0.03,0.57-0.01,0.73,0.3c0.03,0.68-0.56,0.76-0.97,1c-0.8,0.48-1.75,0.7-2.35,1.48
		c-0.28,0.27-0.45,0.68-0.93,0.64c0,0-0.08-0.05-0.08-0.05c-0.24-0.58-1.35-0.57-1.13-1.34c0.24-0.85,1.17-0.99,1.92-1.17
		C8.03,27.24,9.01,27.09,9.89,26.61z"/>
	<path class="st22" d="M6.84,12.69c0.5,0.65,1.01,1.31,1.51,1.96c0.21,0.06,0.25,0.21,0.22,0.39c-0.05,0.11-0.13,0.18-0.24,0.21
		c-0.11,0.02-0.21,0-0.31-0.03c-0.17-0.1-0.27-0.27-0.38-0.41c-0.35,0.3-0.22,0.9-0.69,1.11c-0.33,0.14-0.65,0.33-0.85-0.19
		c-0.34-0.84-0.92-1.57-1.1-2.49c0.01-0.62,0.36-1.16,0.43-1.77c0.05-0.1,0.13-0.19,0.23-0.24C6.01,11.73,6.22,12.38,6.84,12.69z"/>
	<path class="st23" d="M4.14,8.88c0.39,0.48,0.77,0.96,0.77,1.62c-0.02,0.44-0.05,0.95-0.56,1.05c-0.64,0.12-1.11-0.26-1.45-0.78
		C2.42,9.44,2.74,8.14,3.02,6.66C3.72,7.35,4.03,8.06,4.14,8.88C3.96,8.96,3.86,8.89,3.8,8.72c-0.07,0.07,0,0.14,0.03,0.19
		C3.89,9.03,3.86,9.2,3.99,9.29C3.96,9.13,4.02,8.99,4.14,8.88z"/>
	<path class="st24" d="M22.15,14.66c-0.02-0.12-0.03-0.24-0.05-0.36c-0.36-0.15,0.06-0.75-0.47-0.79c-0.36,0.23-0.6,0.75-1.15,0.42
		l-0.06-0.07c0.24-0.9,0.94-1.4,1.69-1.85c0,0,0.1-0.06,0.1-0.06c0.51-0.47,1.03-0.93,1.61-1.46c0,0.97,0,1.84,0,2.7
		c-0.15,0.14-0.26,0.31-0.41,0.44C22.94,13.92,22.81,14.62,22.15,14.66z"/>
	<path class="st25" d="M2.89,10.77c0.15,0.04,0.34,0.03,0.44,0.12c0.75,0.72,1.24,0.52,1.57-0.39c0.24,0.24,0.48,0.49,0.71,0.73
		c0,0-0.07,0.1-0.07,0.1c-0.2,0.49,0.02,1.15-0.6,1.47c-0.45-0.4-1.12,0.15-1.55-0.34c-0.32-0.2-0.62-0.42-0.89-0.69
		C2.69,11.46,2.55,11.02,2.89,10.77z"/>
	<path class="st26" d="M21.41,28.77c0.16-0.58-0.31-0.65-0.66-0.78c-0.93-0.33-1.87-0.59-2.79-0.94c-0.31-0.12-0.87-0.04-0.83-0.65
		c1.32,0.31,2.62,0.69,3.88,1.2c0.84,0.34,1.39,0.91,1.34,1.89c-0.1,0.21-0.21,0.4-0.49,0.3C21.63,29.48,21.3,29.22,21.41,28.77z"/>
	<path class="st11" d="M10.84,9.2c-0.07-0.02-0.14-0.02-0.2-0.02c0.13-1.93,0.37-3.83,1.16-5.62c0.65,0.92-0.16,1.84-0.01,2.76
		C11.54,7.29,11.82,8.45,10.84,9.2z"/>
	<path class="st27" d="M21.92,29.79c0.14-0.1,0.28-0.2,0.42-0.3c0.03,0.95-0.6,1.39-1.34,1.76c-0.08-0.61-0.64-0.55-1.02-0.74
		c0.09-0.58,0.76-0.71,0.95-1.21l0.03-0.09C21.45,29.15,21.6,29.61,21.92,29.79z"/>
	<path class="st28" d="M11.61,6.26c-0.5-0.94,0.54-1.78,0.2-2.71c0.17-0.29,0.35-0.25,0.52,0c0.01,0.74-0.02,1.49,0.04,2.23
		c0.03,0.38,0.05,0.69-0.31,0.91C11.8,6.65,11.68,6.47,11.61,6.26z"/>
	<path class="st29" d="M2.51,11.78c0.36-0.01,0.52,0.33,0.8,0.46c0.47,0.29,1,0.5,1.32,0.99c-0.43,0.48-0.66-0.08-0.96-0.2
		c-0.39-0.17-0.55-0.68-1.02-0.76C2.45,12.15,2.42,11.98,2.51,11.78z"/>
	<path class="st9" d="M23.35,13.42c0.15-0.07,0.31-0.14,0.46-0.21c0.06,0.77-0.03,1.52-0.42,2.2c0,0-0.09-0.07-0.09-0.07
		C22.91,14.69,23.08,14.05,23.35,13.42z"/>
	<path class="st30" d="M13.01,22.59c-0.09-0.07-0.18-0.14-0.27-0.21c0.16-0.32,0.4-0.62,0.45-0.96c0.15-0.9,0.69-1.23,1.52-1.27
		c0.51-0.47,1.19-0.7,1.69-1.17c0.32-0.32,0.64-0.65,1.16-0.55c0.09,0.08,0.15,0.17,0.18,0.28c0.07,0.36-0.08,0.66-0.22,0.97
		c-0.09,0.2-0.19,0.4-0.27,0.6c-0.28,0.65-0.45,1.38-1.12,1.79C15,21.64,14.04,22.32,13.01,22.59z"/>
	<path class="st31" d="M13.5,12.86c0.72-0.63,0.79-1.65,1.44-2.32c0.74,0.41,0.51,1.23,0.75,1.84c0.16,0.41,0.15,0.86,0.21,1.29
		c-0.32,0.89-0.64,1.78-0.98,2.66c-0.09,0.23-0.23,0.59-0.48,0.08C14.21,15.2,13.76,14.06,13.5,12.86z"/>
	<path class="st32" d="M11.56,16.56c-0.39,0.37-0.79,0.74-1.28,1.2c-0.25-0.79,0-1.55-0.33-2.19c0.43-0.42,0.62-0.98,0.81-1.53
		c0.49-0.52,0.51-1.41,1.33-1.67c0.38,0.02,0.26,0.49,0.54,0.61c0.06,0,0.12,0.02,0.17,0.06c-0.31,1.02-0.62,2.04-0.93,3.06
		C11.93,16.36,11.8,16.49,11.56,16.56z"/>
	<path class="st31" d="M18.27,12.02c0.11,0.8-0.12,1.63,0.22,2.41c-0.97,0.72-1.78,1.7-3.04,1.98c0.55-1.27,0.39-2.9,1.89-3.68
		C17.48,12.25,17.65,11.84,18.27,12.02z"/>
	<path class="st33" d="M12.53,22.3c-0.24-0.1-0.47-0.19-0.71-0.29c-0.61-1.56-0.75-3.12,0.03-4.67c0.57-0.32,0.67,0.17,0.81,0.5
		c0.26,0.61,0.48,1.23,0.8,1.81C13.32,20.59,12.59,21.33,12.53,22.3z"/>
	<path class="st34" d="M12.07,17.25c-0.71,1.56-0.23,3.17-0.25,4.76c-0.15,0.05-0.23-0.04-0.29-0.16c-0.66-1.58-0.81-3.17-0.06-4.77
		c0.03-0.17,0.06-0.35,0.08-0.52c0.1-0.16,0.2-0.31,0.3-0.47c0.65-0.04,0.29-0.76,0.9-1.12c-0.28,1.67,1.05,2.89,0.76,4.47
		c-0.89-0.7-0.97-1.76-1.26-2.59c0.06-0.31-0.23-0.14-0.07-0.13c0.03,0,0.02,0.04,0.03,0.11C12.24,17,12.19,17.13,12.07,17.25z"/>
	<path class="st35" d="M14.61,18.6c0.54-1.62,2.32-1.76,3.4-3.13C17.98,18.02,15.84,17.79,14.61,18.6z"/>
	<path class="st36" d="M17.65,18.85c-0.04-0.11-0.08-0.22-0.12-0.34c-0.04-0.2,0.06-0.3,0.25-0.33c0.36-0.09,0.25-0.53,0.5-0.7
		c0.49,1.32,1.15,2.66-0.22,3.87C17.18,20.64,17.68,19.71,17.65,18.85z"/>
	<path class="st37" d="M13.98,18.28c-0.65-1.32-1.15-2.65-0.82-4.13C13.53,15.52,14.64,16.73,13.98,18.28z"/>
	<path class="st38" d="M17.77,18.19c-0.08,0.11-0.17,0.22-0.25,0.33c-0.39,0.18-0.8,0.34-0.98,0.78c-0.56-0.06-0.92,0.64-1.53,0.39
		c-0.33,0.08-0.67,0.15-0.99,0.23c-0.22-0.24-0.08-0.48,0.05-0.54c1.06-0.48,2.17-0.87,3.17-1.51
		C17.48,17.71,17.66,17.97,17.77,18.19z"/>
	<path class="st39" d="M19.97,14.17c-0.4,0.36-0.79,0.72-1.19,1.08c0.09-1.24,0.19-2.47,0.28-3.71c0.63-0.08,0.32,0.91,0.95,0.84
		c0.1-0.02,0.2-0.02,0.3,0C21.06,13.13,20.19,13.59,19.97,14.17z"/>
	<path class="st40" d="M18.27,12.02c-0.31,0.23-0.62,0.47-0.93,0.7c-0.93-0.95,0.1-1.36,0.54-1.93c0.07-0.17,0.18-0.27,0.38-0.21
		C18.67,11.06,18,11.54,18.27,12.02z"/>
	<path class="st41" d="M19.99,12.42c-0.04,0.22-0.02,0.47-0.32,0.61c-0.2-0.5-0.41-1-0.61-1.5c0-0.48-0.01-0.97-0.01-1.45
		c0.06,0,0.11-0.01,0.17-0.02C20.02,10.67,20.31,11.45,19.99,12.42z"/>
	<path class="st42" d="M15.9,13.67c-0.59-0.96-0.37-2.17-0.96-3.13c0.02-0.31,0.23-0.68,0.4-0.22
		C15.73,11.38,16.15,12.48,15.9,13.67z"/>
	<path class="st43" d="M18.27,10.58c-0.13,0.07-0.26,0.14-0.38,0.21c-0.64,0-0.46-0.37-0.32-0.72c0.13-0.48,0.24-0.97,0.76-1.2
		C18.37,9.45,18.5,10.02,18.27,10.58z"/>
	<path class="st44" d="M12.07,17.25c0-0.27,0-0.54,0-0.81c0.56,0.98,0.8,2.08,1.44,2.99c-0.02,0.07-0.04,0.14-0.05,0.21
		C12.47,19.15,12.59,18.02,12.07,17.25z"/>
	<path class="st45" d="M13.5,12.86c0.56,1.12,0.96,2.28,0.95,3.55C13.92,15.28,13.38,14.16,13.5,12.86z"/>
	<path class="st46" d="M15.46,16.4c1.15-0.45,1.9-1.51,3.04-1.98c-0.69,1.08-1.81,1.64-2.84,2.29
		C15.34,16.92,15.45,16.57,15.46,16.4z"/>
	<path class="st47" d="M15.97,9.01c0.36,0.8,0.51,1.58,0.37,2.58C15.83,10.65,15.87,9.82,15.97,9.01z"/>
	<path class="st48" d="M15.01,19.69c0.53-0.07,0.9-0.72,1.53-0.39c-0.58,0.35-1.16,0.68-1.82,0.85C14.82,20,14.92,19.84,15.01,19.69
		z"/>
	<path class="st49" d="M16.58,7.91c0.98-0.06,0.47,0.82,0.76,1.2C16.57,9.04,16.86,8.29,16.58,7.91z"/>
	<path class="st50" d="M7.02,29.31c0.38-0.81,1.25-0.92,1.91-1.34c0.56-0.35,1.29-0.43,1.69-1.05c0.72-0.01,1.44-0.02,2.16-0.03
		c0,0.07,0.01,0.14,0.03,0.2c-0.57,0.14-0.6,1.04-1.38,0.96c-0.12-0.01,0.1,0.42,0.17,0.64c0.55,0.27,1.07-0.32,1.62-0.06
		c0.81,0.14,1.67,0.02,2.44,0.37c0.43,0.2,1.03,0.28,0.9,1c-0.06,0.09-0.12,0.18-0.19,0.28c-0.41,0-0.78,0.11-1.06,0.45
		c-1.46,0.68-2.92,0.71-4.29-0.18c-0.78-0.5-1.53-0.11-2.29-0.1c-0.25-0.33-0.59-0.35-0.96-0.23c-0.14-0.15-0.28-0.31-0.42-0.46
		C7.12,29.69,7.18,29.41,7.02,29.31z"/>
	<path class="st51" d="M11.62,28.8c-1.08,0.23-0.16-1.01-0.59-1.01c0.77,0.76,0.97-0.96,1.78-0.69c0.32,0.02,0.63,0.03,0.95,0.05
		c1.53,1.54,3.35,2.31,5.54,2.14c0.43-0.03,0.78,0.1,0.93,0.56c-0.46,0.72-1.12,0.36-1.7,0.28c-0.47-0.06-0.93-0.27-1.36,0.09
		c-0.2-0.07-0.41-0.15-0.61-0.22c-0.52-0.84-1.39-0.84-2.22-0.95c-0.44-0.06-0.94,0.18-1.31-0.26c-0.17-0.41-0.44-0.29-0.71-0.13
		C12.09,28.77,11.92,29.06,11.62,28.8z"/>
	<path class="st52" d="M8.45,30.19c1.31-0.22,2.5,0.06,3.72,0.62c1.07,0.49,2.25,0.21,3.3-0.38c0.29,0.05,0.34,0.21,0.22,0.46
		c-1.75,0.74-3.43,0.73-5.09-0.3c-0.76-0.47-1.62,0.4-2.4-0.09C8.12,30.28,8.24,30.2,8.45,30.19z"/>
	<path class="st53" d="M17.17,30.22c0.07-0.78,0.63-0.41,0.97-0.36c0.7,0.1,1.39,0.33,2.09-0.01c0.24-0.18,0.48-0.36,0.71-0.55
		c0.06,0.7-0.55,0.87-0.95,1.2C19.05,30.41,18.11,30.32,17.17,30.22z"/>
	<path class="st54" d="M15.69,30.89c-0.02-0.18-0.02-0.37-0.22-0.46c-0.03-0.22-0.16-0.51,0.08-0.61c0.4-0.17,0.46,0.44,0.82,0.45
		C16.31,30.67,16.6,31.43,15.69,30.89z"/>
	<path class="st55" d="M8.45,30.19C8.36,30.3,8.28,30.4,8.2,30.51c-0.1,0.13-0.19,0.27-0.29,0.4c-1-0.05-0.06-0.48-0.14-0.71
		c0.11-0.11,0.2-0.24,0.32-0.34c0.19-0.17,0.32-0.52,0.65-0.26C8.77,29.64,8.55,29.99,8.45,30.19z"/>
	<path class="st41" d="M19.97,14.17c-0.18-0.61,0.8-1.07,0.21-1.73c-0.23-0.89-0.43-1.78-0.91-2.58c0.11-0.31,0.34-0.47,0.66-0.51
		c0.71,0.35,0.48,1.12,0.76,1.66c0.02,0.21,0.04,0.42,0.26,0.52c0.22-0.12,0.39-0.39,0.7-0.26c0.15,0.25,0.3,0.5,0.45,0.74
		c-0.56,0.62-1.12,1.23-1.69,1.85C20.27,13.96,20.12,14.06,19.97,14.17z"/>
	<path class="st56" d="M23.35,13.42c0.19,0.65-0.05,1.28-0.05,1.92c-0.32,0.33-0.64,0.66-0.95,0.98c-0.13,0.31-0.25,0.62-0.7,0.48
		c-0.44-0.86,0.23-1.45,0.49-2.15C22.52,14.21,22.85,13.73,23.35,13.42z"/>
	<path class="st57" d="M16.14,22.07c0.3-0.62,0.6-1.24,0.9-1.86c0.45,0.18,0.51,0.57,0.57,0.98c0,0.06-0.01,0.11-0.02,0.17
		c-0.04,0.4,0.37,0.82-0.08,1.19C16.78,23.17,16.45,22.65,16.14,22.07z"/>
	<path class="st58" d="M20.48,13.93c0.55,0.02,0.75-0.53,1.18-0.72c0.37,0.34,0.19,0.8,0.24,1.2c-0.3,0.56-0.61,1.13-0.91,1.69
		c-0.62-0.53,0.01-1.4-0.52-1.95C20.47,14.08,20.47,14,20.48,13.93z"/>
	<path class="st59" d="M21.66,16.8c0.23-0.16,0.46-0.32,0.7-0.48c0.34,0.56,0.01,0.9-0.41,1.17c-0.3,0.19-0.64,0.36-1.01,0.19
		c-0.17-0.07-0.16-0.24-0.11-0.4C20.95,16.85,21.27,16.77,21.66,16.8z"/>
	<path class="st60" d="M18.95,21.38c-0.09-0.23-0.12-0.27-0.11-0.3c0.19-0.59,0.35-1.22,1.08-1.37c0.18-0.04,0.51,0.03,0.43,0.24
		C20.09,20.59,19.56,20.99,18.95,21.38z"/>
	<path class="st61" d="M20.47,14.15c0.86,0.47,0.26,1.32,0.52,1.95c-0.28,0.7-0.46,0.2-0.49-0.08
		C20.44,15.41,20.48,14.78,20.47,14.15z"/>
	<path class="st62" d="M21.55,18.38c-0.22,0.34-0.57,0.52-0.98,0.54c-0.23,0.01-0.35-0.18-0.31-0.41c0.1-0.55,0.53-0.51,0.93-0.5
		C21.4,18.02,21.61,18.05,21.55,18.38z"/>
	<path class="st63" d="M17.65,18.85c0.38,0.8,0.05,1.71,0.4,2.51c-0.15,0-0.31-0.01-0.46-0.01c0,0,0.01,0.01,0.01,0.01
		c-0.23-0.58-0.25-1.19-0.25-1.81C17.45,19.32,17.55,19.09,17.65,18.85z"/>
	<path class="st64" d="M19.43,18.35c-0.59-0.89-0.47-1.63-0.3-2.37C19.38,16.66,19.63,17.34,19.43,18.35z"/>
	<path class="st65" d="M21.9,14.41c-0.4-0.34-0.15-0.81-0.24-1.21c0.15-0.21,0.3-0.78,0.51-0.08c0.11,0.35-0.04,0.78-0.07,1.17
		C22.03,14.33,21.97,14.37,21.9,14.41z"/>
	<path class="st66" d="M21.92,29.79c-0.5,0.11-0.61-0.43-0.95-0.58c0.09-0.2-0.17-0.74,0.43-0.44
		C21.74,29.03,22.01,29.32,21.92,29.79z"/>
	<path class="st67" d="M11.61,6.26c0.15,0.14,0.29,0.29,0.44,0.43c0.55,1.08,0.52,2.27,0.83,3.52c-0.77-0.33-1.37-0.58-1.96-0.84
		c-0.04-0.05-0.06-0.11-0.07-0.18C11.32,8.27,11.18,7.19,11.61,6.26z"/>
	<path class="st68" d="M13.42,10.01c-0.71-0.9-0.24-1.74-0.03-2.58C13.78,8.26,14.12,9.09,13.42,10.01z"/>
	<path class="st69" d="M12.62,12.97c-0.2-0.17-0.41-0.35-0.61-0.52c-0.21-0.13-0.43-0.26-0.57-0.48c-0.17-0.31-0.25-0.67-0.45-0.96
		c-0.09-0.12-0.17-0.25-0.25-0.37c-0.14-0.26-0.33-0.49-0.44-0.77c-0.01-0.1,0.02-0.19,0.09-0.26c0.13-0.08,0.26-0.16,0.39-0.24
		C11.36,10.59,12.4,11.57,12.62,12.97z"/>
	<path class="st70" d="M12.31,22.77c0.24,0.01,0.47,0.02,0.71,0.03c0.94,0.26,1.66-0.79,2.62-0.42c0.36,1.16-0.44,1.94-0.94,2.81
		c-0.77,0-1.54-0.01-2.32-0.01c-0.42-0.55-0.54-1.21-0.62-1.86C11.71,22.94,11.73,22.55,12.31,22.77z"/>
	<path class="st71" d="M12.31,22.77c-0.42,0.04-0.31,0.28-0.28,0.58c0.07,0.62,0.52,1.16,0.35,1.82c-0.1,0.01-0.21,0.02-0.31,0.04
		c-1.45,0.23-2.21-1.01-3.29-1.57c-0.26-0.14-0.22-0.21,0.41-0.36c0.39,0.13,0.8,0.2,1.13,0.53c0.05-0.38-0.23-0.67-0.17-1.02
		C10.86,22.37,11.58,22.44,12.31,22.77z"/>
	<path class="st72" d="M14.69,25.19c0.06-1.02,0.86-1.8,0.94-2.81c0.41,0.3,0.83,0.59,1.24,0.89c-0.31,0.69-0.72,1.31-1.19,1.89
		C15.36,25.17,15.03,25.18,14.69,25.19z"/>
	<path class="st73" d="M15.69,25.16c0.38-0.64,0.33-1.56,1.19-1.89c0.25-0.04,0.51-0.09,0.93-0.16
		C17.03,23.89,16.48,24.64,15.69,25.16z"/>
	<path class="st74" d="M15.86,25.87c-0.81-0.29-0.95,0.94-1.72,0.72C14.83,25.52,14.83,25.52,15.86,25.87z"/>
	<path class="st75" d="M12.77,26.35c-0.26,0.02-0.56,0.14-0.76,0.04c-0.22-0.11,0.1-0.29,0.11-0.45c0.3-0.19,0.71-0.42,0.96-0.19
		C13.35,25.98,12.8,26.1,12.77,26.35z"/>
	<path class="st76" d="M8.91,11.54C9.43,12.45,9,13.51,9.59,14.5c-1.66-0.42-2.54-2.16-1.84-3.69C8.35,10.72,8.48,11.38,8.91,11.54z
		"/>
	<path class="st77" d="M10.31,9.81c0.37,0.14,0.54,0.41,0.56,0.79c0.13,0.97,0.02,1.83-0.94,2.37c-0.65-0.5-0.29-1.38-0.74-1.95
		c0.06-0.17,0.12-0.33,0.17-0.5C9.87,10.54,9.77,9.75,10.31,9.81z"/>
	<path class="st78" d="M7.49,8.67c0-1.21,0.01-2.42,0.01-3.63c0,0,0,0,0,0C8.42,5.36,8,6.23,8.05,6.77
		c0.09,0.94,0.83,1.85,0.27,2.84C7.89,9.44,7.53,9.2,7.49,8.67z"/>
	<path class="st79" d="M7.49,8.67C7.77,8.98,8.05,9.3,8.32,9.61c0.06,0.18,0.17,0.6,0.05,0.51C7.93,9.78,7.23,9.47,7.49,8.67z"/>
	<path class="st80" d="M10.31,9.81c-0.18,0.26-0.36,0.51-0.55,0.77c-0.16,0.22-0.3,0.24-0.39-0.05C9.79,10.3,9.58,9.39,10.4,9.6
		C10.36,9.67,10.33,9.74,10.31,9.81z"/>
	<path class="st81" d="M8.18,15.15c0.1-0.01,0.19-0.02,0.29-0.03c0.95,0.52,0.94,1.39,0.85,2.3c0.47,1.59,0.77,3.21,0.82,4.87
		c-0.43,0.27-0.79,0.73-1.39,0.5c-0.61-1.6-1.12-3.23-1.67-4.85C7.5,17.03,7.97,16.14,8.18,15.15z"/>
	<path class="st82" d="M11.48,17.08c-0.16,1.59-0.2,3.19,0.06,4.77c-0.05,0.01-0.1,0.02-0.16,0.02
		C10.32,20.34,10.36,18.25,11.48,17.08z"/>
	<path class="st83" d="M11.14,10.81c0.31,0.34,0.5,0.72,0.45,1.2c0.37,0.78-0.34,1.24-0.56,1.85c-0.24,0.13-0.22,0.52-0.56,0.55
		c-0.54,0.29-0.67-0.08-0.78-0.48C10.34,12.96,10.6,11.82,11.14,10.81z"/>
	<path class="st84" d="M9.32,17.42c-0.36-0.74-0.35-1.61-0.85-2.3c-0.04-0.16-0.08-0.32-0.13-0.48c1.06,0.36,1.78,1.62,1.48,2.66
		C9.76,17.53,9.52,17.48,9.32,17.42z"/>
	<path class="st85" d="M11.14,10.81c-0.35,1.1-0.43,2.32-1.46,3.11c-0.02-0.34,0.06-0.66,0.25-0.94c0.52-0.71,0.7-1.55,0.94-2.37
		C10.96,10.67,11.05,10.74,11.14,10.81z"/>
	<path class="st86" d="M10.47,14.4c0.13-0.16,0.26-0.32,0.39-0.47c0.09,0.12,0.1,0.24,0.02,0.37c-0.21,0.5-0.32,1.06-0.93,1.27
		C10.12,15.18,10.3,14.79,10.47,14.4z"/>
	<path class="st87" d="M7.29,17.74c0.06,1.16,0.74,2.13,1.01,3.23c0.15,0.61,0.44,1.17,0.44,1.82c-0.21,0.01-0.42,0-0.56-0.19
		c-0.04-1.58-0.58-3.05-1.47-4.28c-0.36-0.5,0.35-1.39-0.66-1.49c-0.37,0.05-0.52-0.15-0.56-0.48c0.71-0.01,0.47-0.38,0.31-0.76
		c-0.32-0.79-0.95-1.46-0.92-2.39c0.03-0.02,0.07-0.04,0.1-0.07c0.04,0.02,0.07,0.04,0.11,0.06c0.35,0.79,0.77,1.56,1.02,2.38
		c0.17,0.54,0.52,0.17,0.75,0.31c0.09,0.14,0.1,0.29,0.09,0.45c-0.08,0.45,0.21,0.77,0.38,1.13C7.36,17.55,7.35,17.65,7.29,17.74z"
		/>
	<path class="st88" d="M5.49,16.34c0.19,0.16,0.37,0.32,0.56,0.48c-0.67,0.24-1.1-0.37-1.67-0.47C4.13,16,3.25,16.21,3.57,15.31
		C4.22,15.66,4.86,16,5.49,16.34z"/>
	<path class="st89" d="M3.95,17.22c-0.01-0.48,0.28-0.17,0.45-0.16c0.5,0.28,1,0.55,1.63,0.9C5.11,18.06,4.54,17.61,3.95,17.22z"/>
	<path class="st90" d="M7.02,29.31c0.47-0.11,0.53,0.06,0.32,0.44c-0.16,0.22-0.33,0.43-0.47,0.67c-0.12,0.21-0.23,0.47-0.51,0.27
		c-0.25-0.18-0.02-0.43,0-0.64C6.58,29.8,6.8,29.55,7.02,29.31z"/>
	<path class="st91" d="M10.14,22.8c0.46,0.37,0.47,0.95,0.72,1.59c-0.7-0.32-1.21-0.67-1.68-1.11C9.5,23.12,9.82,22.96,10.14,22.8z"
		/>
	<path class="st92" d="M4.63,13.23c-0.49-0.26-0.96-0.55-1.32-0.99c0.21-0.48,1.31,1.4,0.95-0.46c0.47,0.24,0.41,0.71,0.68,0.96
		c0.07,0.15,0.04,0.29-0.05,0.43c0,0-0.01,0.01-0.01,0.01C4.8,13.2,4.71,13.21,4.63,13.23z"/>
	<path class="st93" d="M21.65,11.27c-0.26,0.01-0.34,0.51-0.7,0.26c0.27-0.64,0.54-1.29,0.86-2.08
		C21.91,10.18,22.04,10.75,21.65,11.27z"/>
	<path class="st94" d="M19.27,9.85c0.72,0.71,0.93,1.61,0.91,2.58c-0.06,0-0.13,0-0.19-0.02c-0.13-0.82-0.44-1.59-0.77-2.35
		C19.24,10,19.26,9.93,19.27,9.85z"/>
	<path class="st95" d="M20.69,11.01c-0.48-0.45-0.35-1.18-0.76-1.66c0.49-0.49,0.44,0.08,0.55,0.29
		C20.7,10.07,20.77,10.53,20.69,11.01z"/>
	<path class="st96" d="M20.78,8.39c0.51,0.25,0.45,0.67,0.67,1.3C20.78,9.23,20.8,8.79,20.78,8.39z"/>
	<path class="st97" d="M7.23,17.54c-0.38-0.32-0.74-0.65-0.51-1.22c0.69-0.36,0.32-1.31,0.95-1.7c0.25,0.11,0.3,0.33,0.33,0.57
		C8.26,16.14,7.85,16.88,7.23,17.54z"/>
	<path class="st98" d="M7.23,17.54c0.39-0.74,0.72-1.5,0.78-2.35c0.06-0.02,0.11-0.03,0.17-0.04c0.32,1.08-0.24,1.85-0.89,2.6
		C7.27,17.68,7.25,17.61,7.23,17.54z"/>
	<path class="st99" d="M7.67,14.62c-0.36,0.54-0.09,1.44-0.95,1.7c0.05-0.15,0.1-0.31,0.14-0.46c0.32-0.53,0.35-1.14,0.43-1.76
		C7.61,14.18,7.54,14.47,7.67,14.62z"/>
	<path class="st100" d="M4.89,13.17c0.02-0.14,0.03-0.28,0.05-0.43c0.44-0.37,0.24-1.02,0.61-1.42c0.14,0.69-0.07,1.28-0.46,1.84
		c0,0-0.1,0-0.1,0L4.89,13.17z"/>
	<path class="st101" d="M4.14,8.88C4,9.32,4.51,9.68,4.24,10.23c-0.5-0.64-0.57-1.37-0.71-2.08C3.74,8.39,3.94,8.64,4.14,8.88
		C4.14,8.88,4.14,8.88,4.14,8.88z"/>
	<path class="st9" d="M17.35,19.56c0.25,0.58,0.22,1.2,0.25,1.81c-0.4-0.28-0.32-0.8-0.56-1.16C17.08,19.96,17.11,19.71,17.35,19.56
		z"/>
	<path class="st102" d="M10.88,14.3c-0.01-0.12-0.01-0.25-0.02-0.37c0.22-0.65,0.67-1.21,0.73-1.92c0.35-0.06,0.49,0.1,0.42,0.44
		C11.63,13.07,11.25,13.68,10.88,14.3z"/>
	<path class="st103" d="M11.62,28.8c0.49-0.27,0.98-0.55,1.58-0.88c-0.07,0.36-0.13,0.61-0.18,0.86c-0.46-0.05-0.82,0.24-1.22,0.37
		C11.28,29.32,11.59,28.97,11.62,28.8z"/>
</g>
</svg>
