<?xml version="1.0" encoding="utf-8"?>
<!-- Generator: Adobe Illustrator 23.0.2, SVG Export Plug-In . SVG Version: 6.00 Build 0)  -->
<svg version="1.1" id="Camada_1" xmlns="http://www.w3.org/2000/svg" xmlns:xlink="http://www.w3.org/1999/xlink" x="0px" y="0px"
	 viewBox="0 0 51.65 51.65" style="enable-background:new 0 0 51.65 51.65;" xml:space="preserve">
<style type="text/css">
	.st0{fill:#0A070B;}
	.st1{fill:#F3F3F3;}
	.st2{fill:#1E1218;}
	.st3{fill:#621A35;}
	.st4{fill:#9C294E;}
	.st5{fill:#2D3B28;}
	.st6{fill:#122520;}
	.st7{fill:#203024;}
	.st8{fill:#FAFAFA;}
	.st9{fill:#FCF380;}
	.st10{fill:#1A2A22;}
	.st11{fill:#73213F;}
	.st12{fill:#021C2D;}
	.st13{fill:#8C661E;}
	.st14{fill:#BD5126;}
	.st15{fill:#741C3C;}
	.st16{fill:#822F1D;}
	.st17{fill:#5C1831;}
	.st18{fill:#94361D;}
	.st19{fill:#93691B;}
	.st20{fill:#022135;}
	.st21{fill:#882548;}
	.st22{fill:#78243F;}
	.st23{fill:#E3D151;}
	.st24{fill:#C85982;}
	.st25{fill:#74B2AC;}
	.st26{fill:#FBF059;}
	.st27{fill:#5F1435;}
	.st28{fill:#852744;}
	.st29{fill:#CB684C;}
	.st30{fill:#4F897C;}
	.st31{fill:#CE7155;}
	.st32{fill:#FBF6F4;}
	.st33{fill:#984638;}
	.st34{fill:#984435;}
	.st35{fill:#F9F0ED;}
	.st36{fill:#9A4638;}
	.st37{fill:#994C3E;}
	.st38{fill:#B8B3B2;}
	.st39{fill:#B9B4B2;}
	.st40{fill:#BFCBCD;}
	.st41{fill:#B1AFB0;}
	.st42{fill:#DADDDC;}
	.st43{fill:#B8BBBB;}
	.st44{fill:#FDF16A;}
	.st45{fill:#D692BB;}
	.st46{fill:#86BCC9;}
	.st47{fill:#9C2047;}
	.st48{fill:#6AAFA5;}
	.st49{fill:#730335;}
	.st50{fill:#9B2D52;}
	.st51{fill:#FBF7F9;}
	.st52{fill:#FAF5F8;}
	.st53{fill:#FCF9FB;}
	.st54{fill:#D797BF;}
	.st55{fill:#7EBEC9;}
	.st56{fill:#5CA8A7;}
	.st57{fill:#368781;}
	.st58{fill:#70B1B6;}
	.st59{fill:#378982;}
	.st60{fill:#FAF245;}
	.st61{fill:#D68F79;}
	.st62{fill:#CA6695;}
	.st63{fill:#C9573E;}
	.st64{fill:#CB644A;}
	.st65{fill:#F8ED46;}
	.st66{fill:#3A8D88;}
	.st67{fill:#5F988C;}
	.st68{fill:#7DB7B9;}
	.st69{fill:#CB684B;}
	.st70{fill:#CA684C;}
	.st71{fill:#CA6347;}
	.st72{fill:#CA654A;}
	.st73{fill:#FAF3F1;}
	.st74{fill:#FAF2F0;}
	.st75{fill:#FCF9F8;}
	.st76{fill:#C8644C;}
	.st77{fill:#D287B1;}
	.st78{fill:#F8EEEA;}
	.st79{fill:#F8EEEB;}
	.st80{fill:#FBF6F9;}
	.st81{fill:#FCF8FB;}
	.st82{fill:#FAF4F8;}
	.st83{fill:#FCFAFB;}
</style>
<g>
	<path class="st0" d="M27.56,41.77c1.36-0.66,2.47,0.1,3.55,0.72c0.56,0.32,0.49,0.96,0.24,1.51c-0.16,0.35-0.38,0.68-0.61,1.1
		c1.6,0.11,2.99-0.19,4.3-1.32c-0.67-0.21-1.24-0.4-1.81-0.56c-0.7-0.2-0.88-0.62-0.55-1.27c0.34-0.68,0.65-1.37,1.01-2.04
		c0.57-1.02,1.62-1.08,2.27-0.1c0.37,0.56,0.59,1.21,0.91,1.9c0.21-0.5,0.44-0.91,0.58-1.36c0.22-0.68,0.62-1.44,0.49-2.07
		c-0.12-0.62-1.08-0.55-1.66-0.8c-0.85-0.37-1.08-0.99-0.98-1.82c0.03-0.23,0.11-0.47,0.2-0.69c0.33-0.75,0.46-1.75,1.45-1.89
		c1.05-0.14,0.92,1.01,1.39,1.53c0.07,0.08,0.14,0.18,0.3,0.39c0.24-1.28,0.46-2.44,0.68-3.6c0.11-0.57-0.3-0.43-0.59-0.42
		c-0.67,0.02-1.36,0.01-1.49-0.83c-0.14-0.93-0.42-1.91,0.36-2.73c0.41-0.43,0.86-0.34,1.31-0.08c0.38,0.22,0.74,0.47,1.18,0.75
		c0.34-0.76,0.65-1.53,1.02-2.27c0.22-0.43-0.06-0.58-0.32-0.75c-0.99-0.67-1.21-1.49-0.6-2.55c0.28-0.48,0.41-1.04,0.64-1.55
		c0.15-0.34,0.39-0.62,0.82-0.57c0.43,0.05,0.59,0.35,0.67,0.73c0.14,0.62,0.3,1.24,0.48,1.95c0.81-0.58,1.37-1.37,2.2-1.85
		c1.71-0.98,3.2-0.74,4.2,0.73c1.33,1.94,1.24,3.79-0.22,5.03c-0.92,0.78-1.94,0.85-3.02,0.4c-0.29-0.12-0.47-0.27-0.83-0.04
		c-1.53,0.98-1.55,0.95-2.79-0.36c-0.22,0.58-0.37,1.14-0.62,1.65c-0.49,0.97-0.19,1.35,0.85,1.42c0.67,0.04,1.59-0.21,1.84,0.72
		c0.25,0.92-0.48,1.65-0.84,2.43c-0.16,0.35-0.72,0.24-1.07-0.02c-0.51-0.37-1.01-0.76-1.6-1.2c-0.24,1.28-0.45,2.51-0.7,3.74
		c-0.09,0.44,0.04,0.58,0.46,0.57c0.16,0,0.32,0.02,0.47,0.07c0.81,0.22,1.85,0.36,2,1.28c0.17,1.06,0.14,2.24-0.73,3.15
		c-0.54,0.56-1.03,0.56-1.48-0.07c-0.42-0.6-0.82-1.22-1.32-1.98c-0.49,1.63-0.85,3.1-1.76,4.33c-0.32,0.44,0.06,0.54,0.26,0.75
		c0.68,0.67,1.36,1.34,1.95,2.11c0.44,0.58,0.32,1-0.14,1.46c-0.75,0.75-1.69,1.04-2.69,1.16c-0.61,0.07-0.94-0.28-1.03-0.9
		c-0.11-0.74-0.05-1.85-0.49-2.12c-0.52-0.32-1.23,0.61-1.94,0.85c-1.11,0.38-2.26,0.44-3.38,0.51c-0.11,1.14,0.64,2.38-0.52,3.27
		c-0.42,0.32-3.08-0.47-3.33-0.98c-0.63-1.27,0.74-1.78,1.09-2.8c-1.61-0.66-3.16-1.52-4.46-2.77c-0.35-0.34-0.51-0.2-0.71,0.14
		c-0.19,0.35-0.42,0.68-0.64,1.01c-0.73,1.08-1.5,1.18-2.39,0.26c-0.82-0.85-1.33-1.9-1.65-3.02c-0.2-0.71,0.12-1.18,0.91-1.15
		c0.71,0.03,1.43,0.1,2.16,0.16c-0.98-2.64-1.94-5.17-3.85-7.35c-2.03-2.32-3.47-5.15-5.41-7.56c-1.21-1.5-2.16-3.27-3.87-4.44
		c-0.3,0.94-0.61,1.8-0.84,2.67c-0.24,0.9-0.76,0.89-1.44,0.53c-0.14-0.07-0.27-0.17-0.4-0.27c-2.67-1.9-2.68-2.17-0.14-4.12
		c0.15-0.12,0.3-0.25,0.53-0.44c-0.96-0.46-1.92-0.45-2.83-0.65c-1.25-0.28-1.43-0.63-0.82-1.7c1.59-2.79,1.6-3.21,4.11-0.58
		c0.41,0.43,0.78,0.88,1.33,1.5c1.09-2.48,2.09-4.74,3.07-6.99c1.34-3.07,2.66-6.15,4.03-9.21c0.6-1.34,1.18-1.4,2.26-0.36
		c0.31,0.3,0.63,0.6,0.95,0.9c0.04,0.23-0.1,0.31-0.29,0.34c-0.78-0.24-1.34-0.77-1.91-1.28c-1.05,2.27-2.03,4.66-3.11,7
		c-0.77,1.66-1.35,3.39-2.15,5.03c-0.64,1.46-1.24,2.94-1.95,4.37c-0.19,0.39-0.3,0.84-0.83,0.93c-1.08-0.51-1.69-1.56-2.58-2.28
		c-0.36-0.3-0.66-1.04-1.25-0.58c-0.56,0.44-0.88,1.14-0.97,1.87c-0.04,0.36,0.38,0.32,0.64,0.37c1.2,0.27,2.44,0.35,3.62,0.72
		c0.27,0.51-0.11,0.72-0.44,0.95c-0.59,0.4-1.16,0.83-1.72,1.27c-0.93,0.73-0.93,0.75-0.06,1.59c0.11,0.11,0.23,0.22,0.35,0.32
		c0.99,0.81,1.2,0.71,1.62-0.46c0.34-0.94,0.29-1.95,0.64-2.88c0.46-0.2,0.63,0.19,0.87,0.43c3.02,3.05,5.48,6.54,7.78,10.14
		c1.02,1.59,2.18,3.06,3.41,4.48c0.32,0.36,0.66,0.7,0.77,1.19c0.58,1.44,0.9,2.97,1.74,4.31c0.43,0.68,0.09,1.02-0.65,1.08
		c-0.61,0.04-1.17-0.21-1.78-0.2c-0.58,0.01-0.83,0.22-0.6,0.81c0.1,0.26,0.23,0.51,0.36,0.76c1.02,1.91,1.55,1.95,2.72,0.17
		c0.74-1.12,0.9-1.12,1.92-0.3c1.58,1.28,3.18,2.53,5.34,2.69c0.28,0.02,0.51,0.21,0.57,0.53c-0.08,0.17-0.24,0.25-0.41,0.31
		c-0.11,0.04-0.22,0.06-0.33,0.08c-0.8,0.17-1.05,0.91-1.47,1.46c-0.27,0.36-0.12,0.66,0.3,0.83c0.3,0.12,0.59,0.22,0.9,0.31
		c0.7,0.22,1-0.02,1.1-0.76c0.09-0.71-0.35-1.4,0-2.1c0.23-0.35,0.61-0.38,0.96-0.38c1.78,0.04,3.38-0.46,4.8-1.55
		c0.19-0.15,0.42-0.24,0.67-0.19c0.7,0.59,0.42,1.47,0.66,2.2c0.14,0.43,0.01,1.09,0.63,1.14c0.68,0.06,1.37-0.2,1.79-0.78
		c0.43-0.58-0.17-0.94-0.47-1.31c-0.49-0.62-1.13-1.12-1.65-1.73c-0.14-0.2-0.24-0.42-0.18-0.67c0.98-1.45,1.61-3.04,1.92-4.77
		c0.05-0.31,0.11-0.63,0.45-0.78c0.85,0.09,1.03,0.88,1.46,1.41c0.33,0.4,0.4,1.22,1.05,1.1c0.52-0.1,0.55-0.8,0.63-1.3
		c0.11-0.7-0.09-1.21-0.8-1.53c-0.66-0.3-1.43-0.09-2.06-0.49c-0.07-0.09-0.13-0.2-0.17-0.31c0.04-1.6,0.42-3.15,0.76-4.7
		c0.21-0.95,0.58-1.03,1.32-0.43c0.25,0.2,0.46,0.45,0.7,0.65c0.27,0.23,0.57,0.54,0.93,0.23c0.28-0.23,0.46-0.59,0.42-0.95
		c-0.06-0.5-0.5-0.43-0.84-0.46c-0.36-0.03-0.71-0.07-1.06-0.18c-0.77-0.24-1.17-0.72-0.85-1.53c0.41-1.05,0.43-2.31,1.54-3
		c0.55-0.01,0.79,0.46,1.13,0.76c0.26,0.23,0.55,0.41,0.78,0.03c0.2-0.33-0.11-0.48-0.35-0.61c-0.48-0.25-1.07-0.33-1.27-0.95
		c0.69-1.68,1.85-2.92,3.52-3.62c0.82-0.34,1.64-0.2,2.29,0.49c0.81,1,0.76,2.16,0.54,3.3c-0.22,1.14-1.29,1.69-2.4,1.35
		c-0.55-0.17-0.87-0.59-0.88-1.15c-0.01-0.7,0.29-1.22,1.01-1.4c-0.61,0.15-0.98,0.53-1.03,1.21c-0.04,0.53,0.16,1,0.6,1.22
		c0.67,0.33,1.39,0.33,2.04-0.11c0.89-0.61,1.25-1.81,0.88-2.85c-0.21-0.6-0.35-1.23-0.85-1.68c-0.75-0.79-1.6-0.74-2.52-0.32
		c-1.09,0.5-1.86,1.36-2.6,2.26c-0.21,0.25-0.45,0.56-0.78,0.49c-0.43-0.1-0.4-0.55-0.43-0.9c-0.06-0.7,0.04-1.43-0.43-2.07
		c-0.39,0.37-0.47,0.86-0.68,1.28c-0.35,0.72-0.29,1.31,0.46,1.73c0.81,0.45,0.84,1.04,0.39,1.79c-0.37,0.62-0.57,1.32-0.81,2
		c-0.25,0.7-0.6,1.06-1.28,0.4c-0.11-0.11-0.26-0.19-0.39-0.27c-0.37-0.21-0.72-0.63-1.18-0.26c-0.39,0.32-0.29,0.81-0.22,1.24
		c0.08,0.49,0.39,0.7,0.91,0.77c1.41,0.18,1.52,0.35,1.24,1.78c-0.25,1.25-0.32,2.54-0.66,3.78c-0.28,0.58-0.61,0.69-1.06,0.15
		c-0.36-0.44-0.59-0.94-0.84-1.44c-0.36-0.73-0.71-0.51-0.96,0.04c-0.72,1.62-0.49,2.25,1.13,2.6c1.3,0.28,1.38,0.37,1.08,1.66
		c-0.33,1.46-0.62,2.97-1.85,4.02c-0.11,0.03-0.23,0.03-0.34,0c-0.54-0.63-0.53-1.48-0.93-2.17c-0.47-0.82-0.88-0.84-1.36-0.06
		c-0.06,0.1-0.11,0.21-0.17,0.32c-0.62,1.29-1.09,1.59,0.75,1.99c0.44,0.1,0.95,0.21,1.13,0.76c0.01,0.21-0.06,0.39-0.19,0.54
		c-1.23,1.44-4.28,2.18-5.95,1.45c-0.2-0.56,0.23-0.88,0.47-1.27c0.24-0.4,0.64-0.86,0.22-1.29c-0.48-0.5-1.16-0.74-1.86-0.66
		c-0.43,0.05-0.21,0.45-0.17,0.69c0.12,0.79,0.51,1.51,0.52,2.33c-0.12,0.36-0.38,0.34-0.67,0.25c-1.78-0.56-3.29-1.54-4.62-2.82
		c-0.14-0.14-0.2-0.34-0.18-0.55c0.63-0.54,1.47-0.25,2.16-0.56c0.25-0.11,0.62-0.13,0.7-0.4c0.11-0.36-0.27-0.53-0.48-0.75
		c-0.17-0.17-0.38-0.29-0.57-0.43c-1.03-0.77-1.04-0.76-1.57,0.42c-0.18,0.4-0.29,0.84-0.71,1.08c-0.66,0.07-0.87-0.48-1.13-0.89
		c-0.89-1.38-1.37-2.93-1.85-4.49c0.35-1.84,1.3-3.46,2-5.16c1.1-2.43,2.45-4.72,3.7-7.07c0.32-0.6,0.63-1.19,0.87-1.83
		c0.91-2.03,1.9-4.02,2.98-5.98c0.12-0.14,0.26-0.23,0.44-0.25c1.08,0.47,1.25,1.58,1.69,2.47c0.51,1.03,0.9,1.16,1.8,0.49
		c0.79-0.59,0.77-0.86,0.02-1.55c-0.98-0.9-2.16-1.48-3.26-2.19c-0.17-0.53,0.26-0.69,0.58-0.9c0.67-0.43,1.29-0.92,1.92-1.41
		c1.2-0.92,1.18-1.1-0.2-1.82c-0.25-0.13-0.49-0.27-0.74-0.38c-0.48-0.21-0.51,0.18-0.61,0.47c-0.48,1.06-0.7,2.25-1.59,3.1
		c-0.54,0.21-0.93-0.13-1.29-0.42c-2.42-1.89-4.58-4.06-6.83-6.14c-0.15-0.14-0.22-0.33-0.2-0.54c0.07-0.18,0.17-0.31,0.4-0.21
		c2.48,2.18,4.81,4.53,7.55,6.64c0.43-0.98,0.84-1.91,1.23-2.84c0.08-0.18,0.09-0.4,0.19-0.56c0.46-0.76,1.63-0.45,3.45,0.85
		c0.67,0.48,0.55,0.97,0.11,1.51c-0.77,0.94-1.83,1.52-2.83,2.34c1.13,0.81,2.25,1.54,3.25,2.43c0.56,0.49,0.55,0.93,0.16,1.43
		c-0.47,0.61-1.07,1.09-1.79,1.35c-0.76,0.27-1.4,0.13-1.74-0.74c-0.31-0.78-0.67-1.53-1.05-2.39c-0.62,0.64-0.87,1.38-1.19,2.07
		c-2.22,4.77-4.94,9.3-7.07,14.11c-0.11,0.26-0.18,0.54-0.33,0.77c-1.57,2.55,0.01,4.54,1.07,6.69c0.72-0.63,0.51-2.2,1.63-1.9
		c1.36,0.36,2.55,1.29,3.06,2.77c-0.11,1.09-1.09,1.08-1.97,1.42c0.71,0.6,1.45,0.87,2.14,1.26C27.69,43.37,26.74,42.56,27.56,41.77
		z"/>
	<path class="st1" d="M27.56,41.77c-0.34,0.98,0.43,1.82,0.37,2.86c-1.2-0.38-2.21-0.99-3.2-1.86c0.95-0.39,2.1-0.22,2.63-1.27
		C27.43,41.6,27.5,41.68,27.56,41.77z"/>
	<path class="st2" d="M21.67,6.96c-0.09,0.08-0.19,0.16-0.28,0.24c-0.03,0.02-0.08,0.07-0.1,0.06c-1.66-1.05-3.07-2.34-4.03-4.09
		c0.09-0.08,0.18-0.16,0.27-0.25C19.02,4.16,20.34,5.56,21.67,6.96z"/>
	<path class="st3" d="M7.23,19.21c1.08-1.4,1.5-3.12,2.31-4.65c0.11-0.21,0.22-0.41,0.34-0.61c0.22-0.2,0.42-0.43,0.76-0.24
		c0.31,0.49,0.05,0.92-0.17,1.33c-0.53,1.02-0.91,2.09-1.46,3.21c0.53-0.1,0.95-0.29,1.36-0.47c1.84-0.56,3.55-1.5,5.45-1.9
		c0.51,0.09,0.73,0.32,0.32,0.78c-0.24,0.27-0.57,0.41-0.89,0.57c-0.47,0.24-0.98,0.38-1.46,0.6c-0.79,0.31-1.57,0.64-2.39,0.86
		c-0.31,0.11-0.61,0.24-0.92,0.34c-0.2,0.07-0.4,0.14-0.6,0.21c-0.38,0.13-0.76,0.28-1.11,0.47c-0.16,0.13-0.14,0.29-0.05,0.46
		c0.33,0.46,0.74,0.86,1.05,1.33c0.27,0.33,0.58,0.63,0.81,0.99c0.51,0.7,1.05,1.37,1.54,2.07c0.16,0.21,0.33,0.4,0.51,0.59
		c0.3,0.41,0.6,0.82,0.93,1.21c0.17,0.26,0.34,0.51,0.57,0.73c0.64,0.61,1.04,1.4,1.6,2.08c0.2,0.25,0.36,0.53,0.55,0.79
		c0.47,0.7,0.99,1.36,1.5,2.04c0.39,0.41,0.82,0.55,1.31,0.17c0.64,0.3,0.07,0.86,0.27,1.24c0,0.18,0.19-0.03,0.03-0.02
		c-0.04,0-0.05-0.03-0.06-0.1c0-0.15,0.01-0.3,0.11-0.43c0.87,0.36,0.46,1.14,0.59,1.65c-0.03,0.25,0.27,0.06,0.11,0.09
		c-0.06,0.01-0.09-0.01-0.08-0.07c0.32-1.36,0.72-2.68,1.63-3.79c0.47-0.2,0.47,0.19,0.57,0.45c-0.71,1.69-1.52,3.33-2.05,5.09
		c-0.07,0.35-0.24,0.42-0.52,0.2c-0.21-0.83-0.96-1.25-1.45-1.86c-2.18-2.69-3.89-5.7-5.93-8.49c-1.54-2.1-3.39-3.97-5.11-5.95
		C7.01,20.01,7,19.77,7.03,19.51C7.06,19.39,7.13,19.29,7.23,19.21z"/>
	<path class="st4" d="M17.26,3.17c1.34,1.38,2.65,2.79,4.13,4.03c2.25,2.24,4.59,4.38,7.04,6.39c0.32,0.26,0.62,0.64,1.12,0.59
		c1.23-0.24,2.08-1.1,3.04-1.8c0.51-0.37,0.27-0.58-0.13-0.87c-0.45-0.33-1.02-0.25-1.46-0.54c-0.07-0.79,0.24-0.95,0.91-0.57
		c0.31,0.18,0.62,0.36,0.93,0.53c1.57,0.84,1.59,1.08,0.12,2.22c-0.88,0.67-1.79,1.3-2.69,1.94c0.28,0.42,0.1,0.71-0.25,0.96
		c-0.08,0.1-0.17,0.2-0.25,0.29c-0.3,0.12-0.54-0.15-0.82-0.13c-0.79-0.05-1.59,0.07-2.37-0.11c-0.25-0.07-0.47-0.19-0.64-0.39
		c-0.06-0.12-0.07-0.24-0.01-0.36c0.25-0.22,0.56-0.24,0.87-0.26c0.12-0.01,0.23-0.01,0.35-0.01c0.53,0.01,1.07,0.06,1.75-0.06
		c-1.26-0.98-2.44-1.81-3.5-2.79c-0.27-0.28-0.53-0.55-0.82-0.81c-2.21-1.9-4.25-3.98-6.4-5.94c-0.34-0.36-0.68-0.7-1.04-1.04
		c-0.46-0.26-0.6-1.1-1.39-0.78c-0.16,0.13-0.32,0.25-0.47,0.38C14.99,4.3,14.91,4.66,14.77,5c-0.73,1.32-0.96,2.89-2.05,4.03
		c-0.25,0.09-0.49,0.09-0.69-0.12c0.92-2.14,1.84-4.28,2.75-6.43c0.3-0.71,0.72-0.73,1.27-0.27C16.45,2.54,16.86,2.85,17.26,3.17z"
		/>
	<path class="st5" d="M42.49,26.15c-1.01,0.92-1.07,2.26-1.55,3.42c-0.14,0.35,0.06,0.54,0.34,0.64c0.45,0.16,0.89,0.3,1.39,0.31
		c1.35,0.04,1.5,0.38,0.95,1.59c-0.38,0.83-0.83,0.87-1.44,0.32c-0.47-0.42-0.92-0.87-1.51-1.44c-0.55,1.88-0.74,3.71-1.08,5.5
		c-0.14,0.18-0.05,0.61-0.47,0.46c-0.25-0.09-0.33-0.31-0.21-0.55c0.1-0.21,0.09-0.45,0.23-0.64c0.21-1.37,0.37-2.75,0.64-4.11
		c0.17-0.82,0.06-1.19-0.88-1.17c-1.22,0.03-1.92-1.34-1.27-2.39c0.26-0.42,0.62-0.62,1.11-0.34c0.56,0.31,1.09,0.66,1.57,1.22
		c0.52-1.15,0.78-2.36,1.46-3.38c0.28-0.41-0.15-0.51-0.34-0.6c-1.27-0.61-1.38-1.5-0.73-2.63c0.14-0.24,0.23-0.51,0.33-0.77
		c0.11-0.3,0.17-0.69,0.59-0.63c0.39,0.06,0.33,0.47,0.44,0.76c0.31,0.83,0.19,1.7,0.26,2.73c0.77-0.82,1.37-1.54,2.06-2.18
		c1.48-1.39,2.78-1.5,4.12-0.42c0.14,0.26-0.02,0.38-0.23,0.48c-0.9-0.74-1.81-0.65-2.73-0.04c-1.21,0.8-2.13,1.87-2.81,3.14
		C42.75,25.72,42.75,25.98,42.49,26.15z"/>
	<path class="st6" d="M19.72,36.48c0.21,0.02,0.39-0.03,0.52-0.2c0.62,1.45,1,3.01,1.89,4.34c0.23,0.34,0.36,0.82,0.87,0.91
		c0.35,0.12,0.49,0.39,0.54,0.73c1.33,1.59,3.15,2.46,4.99,3.27c0.06,0.03,0.19-0.1,0.28-0.16c0.32-0.27,0.64-0.15,0.97,0
		c2.05,0.74,5.2-0.27,5.99-1.94c-0.09-0.16-0.04-0.3,0.05-0.44c0.06-0.09,0.14-0.16,0.22-0.23c0.14-0.08,0.29-0.13,0.45-0.04
		c0.08,0,0.17,0.01,0.25,0.01c0.22,0.09,0.36,0.22,0.24,0.48c0.08,0.14,0.16,0.29,0.24,0.43c-0.22,0.42-0.54,0.7-1.02,0.77
		c-1.26,0.7-2.44,1.55-3.9,1.86c-0.84,0.17-1.74-0.22-2.53,0.29c-0.21,0.05-0.31-0.01-0.22-0.24c-0.59-0.74-1.52-0.28-2.23-0.63
		c-1.44-0.7-2.87-1.41-3.97-2.59c-0.53-0.56-0.78-0.58-1.18,0.15c-0.4,0.73-0.72,1.88-1.69,1.77c-0.89-0.11-1.4-1.08-1.79-1.94
		c-0.23-0.5-0.69-1.06-0.31-1.55c0.4-0.51,1.11-0.27,1.67-0.16c0.55,0.12,1.07,0.23,1.76,0.01C20.69,39.9,20.34,38.14,19.72,36.48z"
		/>
	<path class="st7" d="M36.98,43.22c-0.08-0.16-0.16-0.32-0.24-0.48c0.97-1.35,1.47-2.87,1.73-4.5c0.09-0.58,0.04-0.74-0.57-0.79
		c-2.73-0.25-2.48-1.76-1.45-3.51c0.39-0.66,0.73-0.65,1.08,0.03c0.33,0.63,0.7,1.24,1.03,1.87c0.28,0.54,0.39-0.03,0.57-0.07
		c-0.01,0.19-0.01,0.38-0.04,0.56c-0.04,0.18-0.15,0.41,0.09,0.47c0.11,0.03,0.27-0.19,0.41-0.29c0.02,0.11,0.03,0.23,0.05,0.34
		c0.21,0.37,0.01,0.61-0.24,0.84c-0.32,1.05-0.62,2.1-0.95,3.14C38.15,41.74,37.74,42.59,36.98,43.22z"/>
	<path class="st8" d="M44.81,25.77c-0.5-0.21-0.89-0.37-1.37-0.57c0.63-1.01,1.36-1.83,2.29-2.44c1.37-0.9,2.42-0.4,2.61,1.22
		c0.07,0.56-0.03,1.11-0.22,1.64c-0.28,0.76-0.89,0.72-1.49,0.55c-0.42-0.12-0.31-0.51-0.2-0.81c0.16-0.46,0.29-0.17,0.53-0.02
		c0.47,0.31,0.9,0.07,1.02-0.42c0.14-0.61-0.15-1.08-0.8-1.27C46.02,23.32,45.1,24.11,44.81,25.77z"/>
	<path class="st9" d="M31,10.96c0.44-0.24,2.36,0.43,2.45,0.87c0.02,0.1-0.02,0.25-0.09,0.31c-1.03,0.86-2.03,1.76-3.3,2.26
		c-0.12,0.05-0.34-0.14-0.51-0.22C30.04,13.1,30.52,12.03,31,10.96z"/>
	<path class="st10" d="M48.26,22.35c0.08-0.16,0.15-0.32,0.23-0.48c1.57,2.15,1.61,3.58,0.11,4.79c-0.76,0.61-1.65,0.67-2.47,0.29
		c-0.66-0.31-0.82-1.04-0.74-1.76c0.08-0.72,0.64-0.98,1.22-1.13c0.48-0.12,0.87,0.04,0.9,0.8c-0.71-0.47-1.27-0.46-1.56,0.4
		c-0.2,0.6-0.05,1.1,0.5,1.29c0.68,0.23,1.51,0.35,1.91-0.44C49.02,24.87,48.94,23.59,48.26,22.35z"/>
	<path class="st11" d="M22.29,31.2c-0.14-0.15-0.28-0.3-0.41-0.45c-0.09-0.09-0.14-0.19-0.15-0.31c1.03-2.35,2.25-4.61,3.47-6.86
		c0.33-0.61,0.49-1.35,1.09-1.8c0.43-0.08,0.47,0.25,0.55,0.53C25.32,25.27,23.81,28.23,22.29,31.2z"/>
	<path class="st12" d="M7.21,19.5c0.01,0.23,0.02,0.46,0.02,0.69c0.15,1.18-0.25,2.28-0.55,3.39c-0.24,0.89-0.67,1.13-1.55,0.51
		c-2.03-1.43-2.04-1.73-0.09-3.2c0.58-0.44,1.38-0.63,1.69-1.4C6.89,19.34,7.05,19.32,7.21,19.5z"/>
	<path class="st13" d="M36.2,44.43c0.24-0.38,0.47-0.79,1.02-0.77c0.78,0.73,1.56,1.47,2.25,2.3c0.51,0.6,0.33,0.99-0.21,1.35
		c-0.29,0.19-0.62,0.36-0.95,0.48c-1.43,0.51-1.6,0.4-1.81-1.12C36.41,45.92,36.31,45.17,36.2,44.43z"/>
	<path class="st14" d="M30.02,16.04c0.08-0.32,0.17-0.64,0.25-0.96c1.56,0.5,2.76,1.54,3.98,2.56c0.42,0.35,0.34,0.7,0.03,1.01
		c-0.34,0.33-0.72,0.64-1.12,0.88c-0.72,0.42-1.26,0.29-1.58-0.57C31.19,17.92,30.78,16.88,30.02,16.04z"/>
	<path class="st15" d="M36.49,42.74c-0.16,0.08-0.33,0.16-0.49,0.23c-0.49-0.29-0.57-0.82-0.76-1.29c-0.11-0.26-0.07-0.7-0.52-0.65
		c-0.2,0.02-0.25,0.28-0.31,0.46c-0.11,0.38,0.06,0.62,0.4,0.73c0.47,0.15,0.81,0.48,1.2,0.74c-0.08,0.16-0.15,0.32-0.23,0.48
		c-0.38-0.11-0.78-0.16-1.13-0.33c-0.54-0.25-1.65-0.09-1.56-0.7c0.15-0.96,0.58-2.01,1.39-2.68c0.5-0.42,0.99,0.05,1.23,0.53
		C36.1,41.04,36.44,41.85,36.49,42.74z"/>
	<path class="st16" d="M7.21,19.5c-0.16-0.01-0.32-0.01-0.48-0.02c-1.42,0.08-2.74-0.48-4.14-0.58c-0.15-0.01-0.4-0.1-0.42-0.2
		c-0.22-1.06,0.58-1.72,1.04-2.5c0.34-0.59,0.79-0.3,1.18,0.08c0.96,0.96,2,1.84,2.84,2.92C7.22,19.31,7.22,19.4,7.21,19.5z"/>
	<path class="st17" d="M29.55,46.33c0.07,0.08,0.15,0.16,0.22,0.24c0.06,0.74,0.23,1.44,0.19,2.21c-0.05,0.91-0.44,1.06-1.09,0.85
		c-0.68-0.22-1.64-0.12-1.92-0.94c-0.27-0.79,0.63-1.19,0.97-1.78c0.18-0.31,0.45-0.68,0.95-0.53c0.23,0.65-0.33,1-0.56,1.47
		c-0.09,0.18-0.19,0.36-0.04,0.55c0.11,0.13,0.27,0.17,0.43,0.11c0.22-0.07,0.28-0.28,0.28-0.47c0.02-0.55,0.02-1.1,0.02-1.65
		C29.19,46.38,29.37,46.35,29.55,46.33z"/>
	<path class="st18" d="M39.4,37.69c0.08-0.28,0.16-0.56,0.24-0.84c0.4-0.02,0.8-0.11,1.18-0.06c0.72,0.1,1.59,0.25,1.81,0.96
		c0.25,0.81,0.14,1.75-0.41,2.52c-0.36,0.5-0.69,0.59-1.08-0.01C40.59,39.38,40.13,38.44,39.4,37.69z"/>
	<path class="st19" d="M23.54,42.27c-0.32-0.14-0.5-0.39-0.54-0.73c0.12-0.29,0.22-0.61,0.38-0.88c0.31-0.51,0.11-1.36,0.97-1.47
		c0.38-0.05,2.4,1.68,2.45,2.03c0.07,0.5-0.35,0.58-0.67,0.7C25.3,42.21,24.42,42.22,23.54,42.27z"/>
	<path class="st20" d="M29.78,45.38c-0.32,0.23-0.64,0.01-0.97,0c-0.36-0.84-0.51-1.74-0.76-2.61c-0.18-0.62,0-0.8,0.58-0.75
		c0.73,0.06,1.39,0.32,2,0.69c0.53,0.32,0.43,0.83,0.19,1.25C30.54,44.47,30.14,44.91,29.78,45.38z"/>
	<path class="st21" d="M26.84,22.31c-0.16-0.16-0.31-0.31-0.47-0.47c-0.06-0.1-0.14-0.23-0.09-0.33c0.84-1.94,1.6-3.92,2.93-5.61
		c0.19,0.14,0.37,0.28,0.56,0.43C28.79,18.32,27.81,20.32,26.84,22.31z"/>
	<path class="st22" d="M12.03,8.9c0.23,0,0.45,0,0.68,0c0.09,0.09,0.13,0.19,0.13,0.31c-0.54,1.52-1.06,3.05-1.88,4.46
		c-0.1,0.08-0.21,0.1-0.32,0.05c-0.25,0.08-0.51,0.15-0.76,0.23C10.54,12.24,11.15,10.51,12.03,8.9z"/>
	<path class="st23" d="M42.49,26.15c-0.01-0.26-0.05-0.53,0.24-0.69c0.44,0.42,1.05,0.49,1.57,0.73c0.33,0.15,0.71,0.36,0.4,0.74
		c-0.28,0.35-0.63,0.98-1.23,0.4C43.1,26.98,42.81,26.55,42.49,26.15z"/>
	<path class="st24" d="M29.01,46.4c0.34,0.45,0.33,0.98,0.31,1.49c-0.01,0.36,0.25,0.87-0.25,1.05c-0.47,0.17-1.02-0.04-1.33-0.36
		c-0.39-0.4,0.19-0.67,0.37-0.98c0.24-0.41,0.5-0.81,0.76-1.21C28.92,46.39,28.97,46.39,29.01,46.4z"/>
	<path class="st25" d="M15.83,16.09c-1.83,0.65-3.66,1.3-5.49,1.95c-0.38-0.61,0.04-1.15,0.2-1.69c0.23-0.8,0.5-1.59,0.78-2.37
		c0.26-0.47,0.34-1.06,0.84-1.38c0.47-0.17,0.87-0.02,1.21,0.29c0.67,0.62,1.38,1.21,2.17,1.67c0.49,0.29,0.56,0.74,0.47,1.24
		C15.99,15.92,15.93,16.01,15.83,16.09z"/>
	<path class="st26" d="M21.85,30.5c0.01,0.08,0.02,0.16,0.02,0.25c-0.78,1.3-1.15,2.78-1.82,4.18c-0.5-0.67-0.22-1.46-0.55-2.1
		c-0.63-1.62-0.76-3.33-0.91-5.04c0.2-0.81,0.78-1.16,1.34-0.54C20.78,28.17,21.8,29.07,21.85,30.5z"/>
	<path class="st27" d="M18.86,27.59c0.21,1.74,0.43,3.49,0.64,5.23c-0.03,0.26-0.06,0.52-0.1,0.86c-0.39-0.49,0.07-1.12-0.42-1.49
		c-0.05-0.04-0.1-0.08-0.15-0.12c-0.52-0.71-0.29-1.59-0.56-2.35c-0.22-0.91-0.29-1.84-0.45-2.76c-0.14-0.53-0.08-1.09-0.22-1.62
		c-0.03-0.11-0.06-0.23-0.07-0.35c-0.06-0.46-0.01-0.93-0.16-1.37c-0.03-0.11-0.06-0.22-0.08-0.34c-0.05-0.4-0.13-0.79-0.22-1.18
		c-0.04-0.23-0.06-0.46-0.07-0.69c0-0.41-0.15-0.79-0.21-1.19c-0.05-0.36-0.15-0.7-0.22-1.06c-0.06-0.38-0.06-0.76-0.07-1.14
		c-0.01-0.13-0.01-0.27,0-0.4c0.11-0.56-0.26-1.3,0.61-1.55c0.45,0.24,0.5,0.7,0.57,1.12c0.52,3.02,0.86,6.07,1.32,9.1
		C19.07,26.75,18.84,27.15,18.86,27.59z"/>
	<path class="st28" d="M17.14,16.13c-0.64,0.46-0.15,1.15-0.36,1.71c-0.58-0.19-1.28-0.13-1.66-0.76c0.2-0.34,0.61-0.37,0.88-0.59
		c0.35-0.28,0.1-0.35-0.17-0.4c0.03-0.06,0.06-0.13,0.09-0.19c0.01-1.41-0.48-2.75-0.51-4.16c-0.03-0.27,0-0.53,0.18-0.74
		c0.25-0.16,0.5-0.16,0.76-0.02c0.63,0.67,0.45,1.58,0.71,2.37c0.08,0.53,0.12,1.07,0.27,1.59c0.04,0.11,0.07,0.22,0.11,0.33
		c0.08,0.1,0.17,0.17,0.29,0.22c2.19,0.11,4.38,0.01,6.57,0.05c0.5,0.01,1.05-0.1,1.44,0.38c-0.18,0.53-0.66,0.54-1.08,0.55
		c-2.18,0.05-4.35,0.05-6.53,0.01C17.78,16.46,17.45,16.32,17.14,16.13z"/>
	<path class="st29" d="M17.06,20.19c0.07,0.39,0.13,0.79,0.2,1.18c-0.99,0.33-1.95-0.05-2.9-0.2c-1.2-0.18-2.4-0.4-3.57-0.74
		c-0.18-0.07-0.34-0.16-0.48-0.29c-0.28-0.32-0.6-0.63-0.39-1.13c0.14-0.08,0.28-0.16,0.42-0.23c1.97,0.12,3.85,0.75,5.8,0.96
		C16.48,19.78,16.8,19.93,17.06,20.19z"/>
	<path class="st30" d="M11.56,13.95c-0.4,1.36-0.81,2.72-1.21,4.09c-0.56,0.23-1.12,0.46-1.85,0.76c0.77-1.83,1.46-3.45,2.14-5.08
		c0.06-0.01,0.12-0.02,0.19-0.03C11.05,13.83,11.53,13.23,11.56,13.95z"/>
	<path class="st31" d="M16.77,18.03c0.02,0.42,0.04,0.85,0.06,1.27c-1.94,0.43-3.75,0-5.49-0.85c0.79-0.3,1.58-0.59,2.37-0.89
		C14.76,17.53,15.78,17.65,16.77,18.03z"/>
	<path class="st32" d="M11.34,18.45c1.83,0.27,3.63,0.74,5.49,0.84c0.23,0.26,0.24,0.57,0.24,0.89c-2.28-0.32-4.58-0.54-6.74-1.41
		C10.66,18.67,11,18.56,11.34,18.45z"/>
	<path class="st33" d="M11.97,24.73c-0.54-0.73-1.07-1.45-1.61-2.18c0.55-0.38,1.07-0.03,1.59,0.08c0.17,0.07,0.32,0.18,0.45,0.31
		c0.23,0.57,1.32,1.01,0.26,1.77C12.44,24.8,12.2,24.74,11.97,24.73z"/>
	<path class="st34" d="M9.68,21.64c-0.41-0.48-0.83-0.97-1.24-1.45c0.75-0.39,1.37,0.2,2.06,0.28c0.17,0.07,0.32,0.18,0.45,0.31
		c0.26,0.44,0.83,0.76,0.55,1.41C10.74,22.52,10.23,22.01,9.68,21.64z"/>
	<path class="st33" d="M15.61,29.31c-0.55-0.72-1.11-1.43-1.66-2.15c0.24-0.29,0.55-0.29,0.88-0.25c0.26,0.05,0.47,0.18,0.65,0.37
		c0.35,0.46,0.67,0.94,0.98,1.43c0.26,0.41,0.24,0.74-0.35,0.79C15.93,29.47,15.76,29.42,15.61,29.31z"/>
	<path class="st35" d="M16.77,18.03c-1.06,0.13-2.07-0.08-3.06-0.46c0.47-0.16,0.94-0.33,1.42-0.49c0.5,0.36,1.37-0.07,1.66,0.76
		C16.77,17.9,16.76,17.96,16.77,18.03z"/>
	<path class="st36" d="M17.57,32.2c-0.49-0.71-0.98-1.43-1.47-2.14c0.16-0.24,0.41-0.27,0.67-0.25c0.26,0.04,0.47,0.17,0.66,0.34
		c0.37,0.66,1.13,1.17,0.84,2.1C18.03,32.36,17.79,32.33,17.57,32.2z"/>
	<path class="st37" d="M13.46,26.44c-0.51-0.27-0.74-0.75-0.97-1.25c0.26-0.25,0.57-0.25,0.9-0.22c0.13,0.02,0.25,0.06,0.36,0.13
		c0.43,0.44,0.97,0.84,0.71,1.6C14.04,26.96,13.75,26.69,13.46,26.44z"/>
	<path class="st38" d="M10.58,20.69c-0.71-0.17-1.42-0.33-2.14-0.5c-0.12-0.22-0.56-0.42-0.05-0.68c0.67,0.06,1.4-0.15,1.95,0.44
		c0.09,0.06,0.17,0.12,0.26,0.18C10.57,20.32,10.73,20.51,10.58,20.69z"/>
	<path class="st39" d="M9.68,21.64c0.61,0.14,1.23,0.29,1.84,0.43c0.21-0.16,0.39-0.1,0.54,0.09c0,0.24,0.1,0.49-0.07,0.71
		c-0.54-0.1-1.09-0.21-1.63-0.31C10.12,22.26,9.78,22.04,9.68,21.64z"/>
	<path class="st34" d="M10.34,19.95c-0.65-0.15-1.3-0.29-1.95-0.44c0.53-0.07,0.94-0.52,1.51-0.49
		C10.05,19.33,10.19,19.64,10.34,19.95z"/>
	<path class="st40" d="M13.5,25.16c-0.33,0.01-0.67,0.03-1,0.04c-0.18-0.15-0.35-0.31-0.53-0.46c0.1-0.28,0.33-0.17,0.52-0.18
		c0.31,0.18,0.68-0.13,0.99,0.12C13.59,24.83,13.61,24.99,13.5,25.16z"/>
	<path class="st41" d="M13.46,26.44c0.32,0.04,0.64,0.09,0.96,0.13c0.11-0.03,0.21-0.03,0.32,0.03c0.16,0.16,0.33,0.31,0.16,0.56
		c-0.32,0-0.64,0-0.96,0C13.73,26.95,13.47,26.78,13.46,26.44z"/>
	<path class="st42" d="M17.57,32.2c0.23-0.01,0.47-0.02,0.7-0.03c0.24-0.17,0.47-0.19,0.68,0.03c0,0,0.03-0.01,0.03-0.01
		c-0.01,0.19,0.01,0.55-0.02,0.55C18.41,32.81,17.91,32.7,17.57,32.2z"/>
	<path class="st43" d="M16.84,30.03c-0.25,0.01-0.49,0.02-0.74,0.03c-0.16-0.25-0.33-0.5-0.49-0.75c0.16,0.01,0.33,0.02,0.49,0.03
		c0.24,0.18,0.58-0.05,0.8,0.21C16.98,29.72,16.97,29.89,16.84,30.03z"/>
	<path class="st44" d="M17.14,16.13c2.4-0.02,4.8-0.04,7.19-0.07c0.47-0.01,0.96,0.05,1.42-0.16c0.22-0.22,0.45-0.19,0.68-0.01
		c0.93,0.01,1.85,0.02,2.78,0.02c-0.94,1.98-1.89,3.96-2.83,5.94c-1.51,2.89-3.01,5.77-4.52,8.66c-0.39-1.09-1.3-1.85-1.83-2.86
		c-0.26-0.5-0.74-0.78-1.16-0.05C18.29,23.77,17.72,19.95,17.14,16.13z"/>
	<path class="st45" d="M16.82,13.46c-0.17-0.8-0.35-1.6-0.52-2.4c-0.37-0.46-0.54-0.97-0.37-1.56c0.78-0.96,0.78-0.96-0.31-2.06
		c-0.27-1.27-0.64-2.55-0.03-3.82c0.09-0.34-0.06-1.09,0.66-0.42c0.37,0.34,0.71,0.73,1.06,1.09c0.14,0.53,0.31,1.03,1.02,0.96
		c2.14,2.01,4.27,4.03,6.41,6.04c0.03,0.33-0.48,0.66-0.08,0.96c0.3,0.22,0.55-0.19,0.84-0.27c1.3,1.02,2.52,2.13,4.05,3.09
		c-0.89,0.48-1.67,0.23-2.43,0.24c-0.06-0.13,0.16-0.34,0-0.37c-0.14-0.03-0.14,0.24-0.21,0.37c-0.33,0.03-0.65,0.06-0.98,0.09
		c-1.07,0.41-2.18,0.14-3.27,0.18c-0.33-0.06-0.48-0.27-0.36-0.58c0.22-0.59-0.09-0.95-0.5-1.29c-0.08-0.17,0.12-0.25,0.14-0.39
		c-1.57,0.65-2.63-0.46-3.82-1.11c-0.21-0.11-0.4-0.26-0.66-0.28C17.01,12.35,17.78,13.29,16.82,13.46z"/>
	<path class="st46" d="M15.69,11.06c-0.01,0.21-0.02,0.42-0.03,0.63c0.05,0.26,0.23,0.61-0.06,0.76c-0.36,0.18-0.44-0.24-0.54-0.45
		c-0.42-0.91-1.34-1.34-1.92-2.09c-0.05-0.12-0.06-0.24-0.05-0.37c0.37-1.65,1.18-3.17,1.53-4.82c0.01-0.35,0.1-0.66,0.47-0.8
		c0.13,0.1,0.24,0.23,0.24,0.4c-0.01,2.08,0.31,4.13,0.53,6.19C15.89,10.71,15.8,10.9,15.69,11.06z"/>
	<path class="st47" d="M15.69,11.06c-0.43-2.36-0.68-4.74-0.58-7.14c0.1-0.21,0.28-0.29,0.49-0.29c0.06,1.37,0.05,2.75,0.31,4.1
		c0.3,0.51,0.47,1.03,0.25,1.62c0.05,0.57,0.09,1.14,0.14,1.72C16.1,11.06,15.89,11.06,15.69,11.06z"/>
	<path class="st48" d="M14.63,4.72c-0.05,1.76-0.72,3.33-1.4,4.91c-0.18-0.14-0.6-0.05-0.49-0.49c-0.01-0.08-0.02-0.16-0.03-0.24
		C13.35,7.5,13.99,6.11,14.63,4.72z"/>
	<path class="st49" d="M26.43,15.88c-0.23,0-0.45,0.01-0.68,0.01c-2.48-0.01-4.95-0.02-7.43-0.04c-0.42,0-0.89,0.16-1.25-0.21
		c0.27-0.27,0.61-0.33,0.98-0.35c2.64-0.1,5.26,0.21,7.89,0.32C26.14,15.64,26.33,15.68,26.43,15.88z"/>
	<path class="st50" d="M25.94,15.62c-2.96,0.01-5.91,0.01-8.87,0.02c0-0.08-0.01-0.17-0.01-0.25c0.73-0.57,1.59-0.29,2.4-0.33
		c0.75-0.04,1.5-0.03,2.24,0.01c0.23,0.02,0.45,0.1,0.61,0.27c1.21,0.03,2.42,0.05,3.63,0.08C25.94,15.48,25.94,15.55,25.94,15.62z"
		/>
	<path class="st51" d="M25.5,11.99c-0.04,0.46-0.24,0.76-0.74,0.75c-0.31,0-0.57-0.14-0.65-0.43c-0.16-0.54,0.23-0.79,0.63-1
		C24.99,11.53,25.25,11.76,25.5,11.99z"/>
	<path class="st52" d="M18.33,5.26c-0.29,0.33-0.58,0.31-0.91,0.05C17.02,5,17.08,4.67,17.31,4.3C17.76,4.51,18.09,4.84,18.33,5.26z
		"/>
	<path class="st53" d="M26.92,15.33c-0.31-0.33-0.32-0.64,0.12-0.85c0.29-0.14,0.6-0.05,0.71,0.24c0.23,0.61-0.49,0.33-0.63,0.61
		c0,0-0.1,0.01-0.1,0.01L26.92,15.33z"/>
	<path class="st54" d="M39.03,30.21c-1.05,0.23-1.13-0.52-1.12-1.35c0-0.35-0.03-0.76,0.48-0.8c0.48-0.03,1.69,1.17,1.7,1.68
		C40.11,30.18,40,30.24,39.03,30.21z"/>
	<path class="st55" d="M41.39,21.67c0.52,0.65,0.43,1.36,0.55,2c0.06,0.32,0.19,0.76-0.15,0.99c-0.26,0.18-0.51-0.14-0.7-0.31
		c-0.29-0.25-0.66-0.47-0.41-0.98C40.94,22.84,41.14,22.28,41.39,21.67z"/>
	<path class="st56" d="M40.99,30.6c0.74,0.14,1.3,0.26,1.87,0.36c0.24,0.04,0.52,0.06,0.56,0.34c0.05,0.37-0.14,0.7-0.4,0.95
		c-0.24,0.22-0.43-0.05-0.61-0.17C41.9,31.71,41.41,31.33,40.99,30.6z"/>
	<path class="st57" d="M20.08,41.81c0.54,0.06,1.58-0.12,1.83,0.38c0.27,0.55-0.6,1.18-0.95,1.8c-0.28,0.5-0.64,0.57-1.02,0.1
		c-0.27-0.34-0.57-0.67-0.78-1.05C18.56,41.93,18.67,41.78,20.08,41.81z"/>
	<path class="st58" d="M38.62,37.13c-0.89,0.17-1.59-0.23-2.29-0.57c-0.5-0.24-0.31-0.67-0.18-1.04c0.19-0.55,0.26-1.2,0.79-1.53
		c0.24-0.15,0.3,0.27,0.4,0.46C37.75,35.3,38.15,36.15,38.62,37.13z"/>
	<path class="st59" d="M6.63,20.32c0.26,0.9,0,1.55-0.18,2.18c-0.13,0.46-0.11,1.27-0.61,1.28C5.25,23.8,4.8,23.14,4.36,22.7
		c-0.35-0.35-0.01-0.58,0.22-0.76C5.21,21.41,5.86,20.92,6.63,20.32z"/>
	<path class="st60" d="M36.75,44.12c0.86,0.68,1.48,1.34,2.01,2.06c0.15,0.2,0.42,0.44,0.15,0.73c-0.37,0.4-0.89,0.52-1.39,0.59
		c-0.41,0.06-0.35-0.36-0.4-0.6C36.95,46.06,36.71,45.22,36.75,44.12z"/>
	<path class="st61" d="M30.38,15.65c1.56,0.45,2.5,1.36,3.3,2.35c0.45,0.57-0.38,0.71-0.68,0.99c-0.38,0.34-0.7,0.28-0.91-0.23
		C31.67,17.74,31.18,16.76,30.38,15.65z"/>
	<path class="st62" d="M36.01,42.96c-0.56-0.21-1.11-0.42-1.67-0.62c-0.38-0.13-0.52-0.32-0.31-0.7c0.24-0.44,0.21-1.21,0.76-1.23
		c0.6-0.02,0.55,0.76,0.74,1.21C35.71,42.06,35.84,42.52,36.01,42.96C36,42.97,36.01,42.96,36.01,42.96z"/>
	<path class="st63" d="M6.3,19.16c-1.03-0.22-2.06-0.44-3.1-0.65c-0.24-0.05-0.56-0.07-0.49-0.38c0.12-0.59,0.4-1.13,0.83-1.56
		c0.25-0.26,0.43,0.01,0.59,0.17c0.78,0.73,1.55,1.47,2.33,2.21C6.41,19.02,6.35,19.09,6.3,19.16z"/>
	<path class="st64" d="M42.28,38.76c-0.04,0.15-0.1,0.46-0.21,0.75c-0.19,0.49-0.43,0.67-0.78,0.09c-0.33-0.54-0.7-1.06-1.05-1.59
		c-0.12-0.19-0.38-0.36-0.16-0.61c0.17-0.2,0.44-0.22,0.66-0.15C41.45,37.47,42.28,37.56,42.28,38.76z"/>
	<path class="st65" d="M23.63,41.59c-0.16-0.27,0.04-0.46,0.12-0.67c0.52-1.31,0.52-1.31,1.61-0.42c0.27,0.22,0.77,0.39,0.69,0.74
		c-0.11,0.48-0.67,0.29-1.03,0.33C24.56,41.63,24.09,41.59,23.63,41.59z"/>
	<path class="st66" d="M29.1,45.11c-0.16-0.51-0.37-0.94-0.43-1.4c-0.05-0.37-0.52-0.97,0.12-1.1c0.53-0.1,1.16,0.18,1.59,0.62
		c0.17,0.17,0.05,0.37-0.07,0.53C29.96,44.22,29.69,44.76,29.1,45.11z"/>
	<path class="st67" d="M12.74,9.14c0.12,0.21,0.59,0.06,0.49,0.49c0,0.08,0,0.16,0,0.23c0.12,1.11-0.37,2.02-0.98,2.88
		c-0.36,0.33-0.26,0.92-0.69,1.21c-0.07-0.59-0.71,0.46-0.73-0.26C11.37,12.14,11.97,10.6,12.74,9.14z"/>
	<path class="st68" d="M12.25,12.74c0.17-1.01,0.65-1.92,0.98-2.88c1.04,0.54,1.87,1.28,2.34,2.53c0.04-0.33,0.07-0.51,0.09-0.7
		c0.2,1.29,0.4,2.58,0.57,3.87c0.01,0.1-0.2,0.22-0.3,0.34c-0.06-0.65-0.33-1.07-0.97-1.38c-0.59-0.28-1.07-0.8-1.57-1.26
		C13.06,12.95,12.74,12.68,12.25,12.74z"/>
	<path class="st69" d="M12.03,22.28c-0.17-0.07-0.34-0.13-0.51-0.2c-0.23-0.39-0.46-0.78-0.69-1.16c0.12-0.12,0.26-0.22,0.42-0.2
		c1.88,0.22,3.73,0.67,5.6,0.95c0.2,0.03,0.32,0.22,0.44,0.38c0.22,0.4,0.28,0.83,0.23,1.28c-0.63,0.53-1.32,0.18-1.93,0.04
		C14.37,23.11,13.02,23.25,12.03,22.28z"/>
	<path class="st70" d="M13.43,24.74c-0.32-0.05-0.66,0.06-0.94-0.18c0.28-0.09,0.57-0.16,0.32-0.56c-0.19-0.3-0.37-0.61-0.55-0.92
		c0.49-0.36,0.99-0.08,1.48-0.01c1.28,0.18,2.53,0.67,3.85,0.51c0.3,0.44,0.12,0.93,0.17,1.4C16.28,25.67,14.86,25.23,13.43,24.74z"
		/>
	<path class="st71" d="M16.8,29.53c-0.23-0.05-0.5,0.03-0.69-0.19c0.3-0.06,0.42-0.17,0.18-0.46c-0.37-0.46-0.79-0.89-0.91-1.5
		c0.73-0.62,1.66,0,2.42-0.39c0.09-0.06,0.18-0.1,0.28-0.12c0.16,0.96,0.32,1.91,0.48,2.87c-0.05,0.04-0.1,0.08-0.14,0.12
		C17.84,29.9,17.27,29.94,16.8,29.53z"/>
	<path class="st72" d="M14.68,26.67c-0.09-0.03-0.17-0.06-0.26-0.1c-0.24-0.43-0.48-0.86-0.71-1.3c0.19-0.26,0.46-0.29,0.74-0.22
		c1.12,0.29,2.27,0.11,3.4,0.2c0.27,0.51,0.11,1.08,0.23,1.61c0,0-0.07,0.06-0.07,0.06C16.86,27.3,15.76,27.09,14.68,26.67z"/>
	<path class="st73" d="M17.28,22.05c-2.15-0.38-4.3-0.76-6.45-1.14c-0.09-0.07-0.17-0.15-0.26-0.22c-0.01-0.19-0.22-0.38,0.02-0.56
		c2.22,0.41,4.44,0.83,6.66,1.24C17.27,21.6,17.27,21.82,17.28,22.05z"/>
	<path class="st74" d="M17.59,23.57c-0.07,0.67-0.55,0.42-0.9,0.36c-1.48-0.27-2.96-0.57-4.44-0.86c-0.09-0.07-0.18-0.14-0.27-0.21
		c-0.02-0.2-0.27-0.41,0.04-0.59c1.8,0.48,3.63,0.84,5.48,1.05C17.54,23.41,17.57,23.49,17.59,23.57z"/>
	<path class="st75" d="M17.84,25.25c-1.38,0.57-2.76,0.06-4.14,0.02c-0.07-0.04-0.14-0.08-0.21-0.12c-0.02-0.14-0.04-0.28-0.06-0.42
		c1.44,0.08,2.89,0.16,4.33,0.24C17.79,25.06,17.82,25.16,17.84,25.25z"/>
	<path class="st76" d="M18.95,32.2c-0.23-0.01-0.46-0.02-0.68-0.03c-0.32-0.62-0.65-1.25-0.97-1.87c0.29-0.43,0.89-0.12,1.2-0.51
		c0,0,0.05-0.05,0.05-0.05C18.68,30.56,18.82,31.38,18.95,32.2z"/>
	<path class="st77" d="M16.82,13.46c0.42-0.45,0.26-0.96,0.11-1.45c-0.18-0.62,0.03-0.76,0.57-0.48c0.32,0.16,0.63,0.34,0.93,0.54
		c1.18,0.77,2.36,1.49,3.88,1.1c0.03,0.42-0.39,0.26-0.46,0.49c-0.03,0.54-0.11,1.08-0.48,1.51c-1.43,0.14-2.86,0.18-4.29-0.02
		C16.91,14.6,16.77,14.05,16.82,13.46z"/>
	<path class="st45" d="M17.08,15.15c1.43-0.14,2.89,0.29,4.3-0.24c0.4-0.1,0.53,0.09,0.49,0.46c-1.6,0.01-3.21,0.01-4.81,0.02
		C17.07,15.31,17.08,15.23,17.08,15.15z"/>
	<path class="st78" d="M14.68,26.67c1.12-0.09,2.22,0.16,3.32,0.26c0.12,0.44,0.07,0.67-0.5,0.59c-0.71-0.1-1.42-0.1-2.14-0.14
		c-0.16-0.07-0.31-0.14-0.47-0.22C14.83,27,14.75,26.83,14.68,26.67z"/>
	<path class="st79" d="M18.5,29.79c0.04,1.21-0.86,0.2-1.2,0.51c-0.15-0.09-0.3-0.18-0.45-0.27c-0.01-0.17-0.03-0.34-0.04-0.5
		C17.37,29.56,17.96,29.51,18.5,29.79z"/>
	<path class="st80" d="M20.66,10.53c-0.51-0.04-0.85-0.27-0.91-0.7C19.67,9.31,20.02,9,20.5,8.92c0.58-0.1,0.79,0.33,0.82,0.79
		C21.36,10.18,21,10.39,20.66,10.53z"/>
	<path class="st81" d="M21.87,15.37c-0.16-0.15-0.33-0.31-0.49-0.46c-0.03-0.49-0.01-0.96,0.48-1.26c1.19,0.26,1.29,0.62,0.46,1.69
		C22.17,15.35,22.02,15.36,21.87,15.37z"/>
	<path class="st82" d="M16.16,9.35c-0.33-0.5-0.31-1.06-0.25-1.62c0.54-0.13,0.93,0.04,1.06,0.6C17.13,8.98,16.7,9.23,16.16,9.35z"
		/>
	<path class="st83" d="M17.68,13.22c0.79,0.03,1.13,0.24,1.18,0.69c0.04,0.36-0.23,0.63-0.58,0.63c-0.46,0-0.72-0.3-0.73-0.77
		C17.54,13.44,17.64,13.21,17.68,13.22z"/>
</g>
</svg>
