<?xml version="1.0" encoding="utf-8"?>
<!-- Generator: Adobe Illustrator 23.0.2, SVG Export Plug-In . SVG Version: 6.00 Build 0)  -->
<svg version="1.1" id="Camada_1" xmlns="http://www.w3.org/2000/svg" xmlns:xlink="http://www.w3.org/1999/xlink" x="0px" y="0px"
	 viewBox="0 0 45.79 23.97" style="enable-background:new 0 0 45.79 23.97;" xml:space="preserve">
<style type="text/css">
	.st0{fill:#FEFEFE;}
	.st1{fill:#0C0A0E;}
	.st2{fill:#5F4D08;}
	.st3{fill:#6A570D;}
	.st4{fill:#BFAF4F;}
	.st5{fill:#C0B051;}
	.st6{fill:#574505;}
	.st7{fill:#F0F375;}
	.st8{fill:#AC9929;}
	.st9{fill:#C2B254;}
	.st10{fill:#C1B255;}
	.st11{fill:#AA9728;}
	.st12{fill:#AA9729;}
	.st13{fill:#AC9928;}
	.st14{fill:#AE9B29;}
	.st15{fill:#B09D2D;}
	.st16{fill:#C3B355;}
	.st17{fill:#AD9A2A;}
	.st18{fill:#AC992A;}
	.st19{fill:#AE9B2A;}
	.st20{fill:#B3A12C;}
	.st21{fill:#EAEA70;}
	.st22{fill:#DCD965;}
	.st23{fill:#F2F276;}
	.st24{fill:#E9E96D;}
	.st25{fill:#B19E2B;}
	.st26{fill:#DFDA64;}
	.st27{fill:#C0B054;}
	.st28{fill:#6F5E13;}
	.st29{fill:#A89527;}
	.st30{fill:#C6B757;}
	.st31{fill:#F3F378;}
	.st32{fill:#C2B255;}
	.st33{fill:#C2B355;}
	.st34{fill:#C1B154;}
	.st35{fill:#C1B153;}
</style>
<g>
	<path class="st0" d="M21.02,23.97c-5.84,0-11.68,0.01-17.51-0.01c-1.94-0.01-3.04-0.92-3.44-2.81c-0.3-1.43,0.47-2.44,1.45-3.32
		c1.97-1.75,4-3.44,5.95-5.22c3.98-3.64,7.93-7.32,11.88-11c2.11-1.96,3.72-2.02,6.27-0.78c4.37,2.12,8.37,4.82,12.44,7.41
		c2.23,1.42,4.48,2.92,6.5,4.69c1.42,1.25,1.65,3.05,0.58,4.61c-1.02,1.48-2.04,2.96-3.08,4.43c-0.88,1.24-2,1.94-3.62,1.92
		c-5.8-0.05-11.6-0.02-17.39-0.02C21.02,23.91,21.02,23.94,21.02,23.97z"/>
	<path class="st1" d="M21.16,22.54c-5.43,0-10.87,0-16.3,0c-0.56,0-1.11,0-1.66-0.18c-1.6-0.54-1.97-1.85-0.74-2.98
		c2.06-1.89,4.21-3.67,6.27-5.56c4-3.67,7.96-7.39,11.95-11.08c1.4-1.3,2.27-1.24,3.97-0.43c4.34,2.06,8.29,4.78,12.33,7.33
		c1.97,1.24,3.91,2.61,5.76,4.07c1.67,1.32,1.89,2.66,0.39,4.22c-0.9,0.93-1.58,1.99-2.39,2.98c-0.9,1.09-1.95,1.65-3.4,1.64
		c-5.39-0.04-10.79-0.02-16.18-0.02C21.16,22.53,21.16,22.53,21.16,22.54z"/>
	<path class="st2" d="M6.5,17.7c3.15-2.87,6.31-5.73,9.45-8.62c1.91-1.76,3.77-3.56,5.65-5.34c0.71-0.68,1.34-0.76,2.33-0.28
		c4.34,2.07,8.27,4.81,12.31,7.36c1.87,1.18,3.65,2.56,5.49,3.81c0.98,0.66,1.08,1.41,0.39,2.17c-1.07,1.18-1.74,2.67-2.96,3.71
		c-0.15,0.13-0.33,0.2-0.5,0.3c-5.93,0.07-11.86,0.03-17.78,0.02c-0.22-0.01-0.42-0.06-0.59-0.21c-0.1-0.1-0.16-0.22-0.18-0.35
		c0.02-0.22,0.14-0.36,0.32-0.46c0.26-0.07,0.5,0.01,0.75,0.08c0.06,0.01,0.12,0.03,0.18,0.05c0.06,0.02,0.12,0.04,0.18,0.06
		c2.11,0.05,4.22,0.1,6.33-0.04c0.1-0.05,0.2-0.09,0.3-0.14c0.59,0.01,0.23-1.1,1.01-0.86c0.24,0.31,0.2,0.88,0.82,0.82
		c1.73-0.01,3.46-0.04,5.18,0.01c0.44,0,0.87,0.06,1.52,0.03c-0.94-1.14-1.77-2.21-2.74-3.15c-1.87-1.8-3.47-3.84-5.35-5.63
		c-0.26-0.25-0.51-0.51-0.6-0.87c-0.02-0.08-0.01-0.18-0.05-0.23c-1.52-1.92-3.17-3.7-5.18-5.12c-1.42,1.33-3.15,2.33-4.18,4.05
		c0.31,0.36,1.11-0.06,1.15,0.72c-0.29,0.27-0.65,0.26-1.01,0.26c-2.29,0-3.24,1.85-4.49,3.27c1.86,0.27,3.71,0.42,5.54-0.1
		c0.03-0.12,0.05-0.23,0.05-0.36c0.08-0.63-0.11-1.29,0.28-1.87c0.55-0.15,0.52,0.31,0.59,0.6c0.1,0.41-0.02,0.86,0.22,1.24
		c0.11,0.15,0.23,0.31,0.35,0.45c1.19,0.51,2.42,0.1,3.63,0.19c1.65,0.12,3.32,0.01,4.98,0.03c0.54,0.85-0.23,0.82-0.65,0.87
		c-1.14,0.12-2.3,0.02-3.45,0.06c-0.57,0.02-1.31-0.11-1.36,0.76c-0.04,0.74-0.36,1.64,0.77,1.96c0.26,0.07,0.66,0.15,0.43,0.62
		c-1.65,0.49-1.96,0.27-1.96-1.34c0-0.61-0.01-1.22,0-1.83c-0.01,0.8-0.03,1.6,0,2.39c0.03,0.67-0.29,0.97-0.91,0.98
		c-1.64,0.05-3.28,0.05-4.91,0c-0.63-0.02-0.95-0.31-0.9-0.98c0.05-0.77-0.04-1.55,0.02-2.32c-0.03,0.79-0.04,1.59-0.02,2.38
		c0.01,0.46-0.15,0.86-0.62,0.86c-2.38,0.02-4.77,0.37-7.13-0.19c-0.14-0.53,0.28-0.54,0.59-0.61c0.49-0.11,0.99-0.09,1.49-0.07
		c1.43,0.02,2.87-0.02,4.3,0c0.51,0.07,0.68-0.19,0.68-0.67c0-0.54,0.03-1.08-0.03-1.62c-0.9-0.64-3.13-0.59-4.09,0.17
		c-1.12,0.89-2.21,1.81-3.31,2.73c-0.54,0.44-1.46,0.27-1.73,1.13c-0.27,0.68-1.11,0.76-1.45,1.35c1.82,0.15,3.63,0.1,5.44,0.02
		c0.11-0.04,0.23-0.07,0.35-0.09c0.12-0.02,0.25-0.03,0.37-0.03c0.26,0,0.51,0.05,0.72,0.22c0.07,0.12,0.08,0.25,0.03,0.38
		c-0.1,0.18-0.26,0.3-0.46,0.36c-2.46,0.08-4.92,0.02-7.38,0.03c-0.3,0-0.69,0.07-0.81-0.31c-0.11-0.32,0.22-0.48,0.39-0.68
		C4.95,19.05,5.98,18.64,6.5,17.7z"/>
	<path class="st3" d="M6.5,17.7c-0.06,0.9-0.86,1.19-1.41,1.67c-0.38,0.33-0.79,0.62-1.15,1.22c2.88,0,5.61,0,8.34,0
		c0.38-0.23,0.79-0.33,1.24-0.33c1.89,0,3.79,0,5.68,0c0.45,0,0.86,0.11,1.24,0.34c5.66,0,11.31,0,16.97,0.01
		c0.42,0,0.88-0.16,1.25,0.2c-0.4,0.37-0.89,0.29-1.36,0.29c-10.86,0-21.73,0-32.59,0c-0.28,0-0.56,0-0.84-0.02
		c-0.25-0.01-0.5-0.1-0.6-0.33c-0.12-0.29,0.18-0.4,0.35-0.55C4.56,19.35,5.43,18.41,6.5,17.7z"/>
	<path class="st4" d="M25.78,17.45c-1.75-0.37-1.69-0.38-1.76-2.32c-0.04-1.03,0.3-1.29,1.27-1.23c1.35,0.08,2.7,0,4.05-0.02
		c0.3-0.01,0.79,0.1,0.47-0.51c-0.07-0.11-0.05-0.21,0.05-0.29c0.11-0.04,0.23-0.05,0.35-0.03c1.38,1.02,2.36,2.4,3.34,3.77
		c0.17,0.24,0.3,0.58-0.06,0.84c-0.12,0.06-0.24,0.1-0.38,0.13c-1.06,0.07-2.11,0.02-3.17,0.04c-0.99,0.02-1.98,0.01-2.97-0.01
		C26.55,17.8,26.1,17.85,25.78,17.45z"/>
	<path class="st5" d="M22.84,17.23c-1.59,0.02-3.18,0.02-4.77,0.07c-0.58,0.02-0.72-0.21-0.75-0.76c-0.14-2.62-0.16-2.65,2.5-2.59
		c1.16,0.03,2.34-0.27,3.48,0.19c-0.38,0.54-0.16,1.15-0.22,1.73C23.03,16.32,23.19,16.82,22.84,17.23z"/>
	<path class="st6" d="M25.78,17.45c1.42,0.02,2.83,0.04,4.25,0.06c0.15,0.13,0.15,0.29,0.08,0.46c-0.11,0.13-0.25,0.21-0.4,0.29
		c-0.33,0.12-0.37,0.53-0.68,0.67c-0.52,0.11,0.29,1.12-0.64,0.96c-0.31-0.23-0.34-0.57-0.38-0.91c-0.13-0.83-0.8-0.64-1.31-0.66
		c-1.83-0.05-3.65,0.16-5.48-0.06c-0.8-0.16-1.59,0.08-2.38,0.06c-1.66,0.01-3.32,0.05-4.98-0.01c-1.05-0.04-1.79,0.16-1.82,1.4
		c0,0.15-0.13,0.28-0.23,0.41c-0.11,0-0.21-0.01-0.32-0.01c-0.51-0.44,0.06-1.35-0.64-1.65c-0.74-0.32-1.55-0.11-2.33-0.15
		c-0.51-0.03-0.99,0.27-1.51,0.15c0.15-1.04,0.99-0.92,1.7-1c0.14-0.12,0.27-0.11,0.4,0.01c2.23,0.01,4.47-0.01,6.7,0.03
		c0.78,0.02,1.08-0.24,1.03-1.03c-0.05-0.78-0.01-1.56,0.23-2.34c0,0.79,0.03,1.58-0.01,2.36c-0.03,0.69,0.16,1.02,0.93,1
		c1.55-0.05,3.11-0.04,4.66,0c0.67,0.01,0.94-0.22,0.91-0.9c-0.04-0.82-0.01-1.65,0.23-2.47c0,0.67,0.07,1.34-0.02,2
		c-0.15,1.14,0.33,1.53,1.4,1.36C25.38,17.45,25.58,17.46,25.78,17.45z"/>
	<path class="st7" d="M33.66,17.47c-1-1.61-2.24-3.01-3.59-4.33c-1.25-0.61-1.99-1.8-3.01-2.68c-0.32-0.34-0.66-0.68-0.99-1.01
		c-0.19-0.19-0.37-0.38-0.52-0.6c-0.26-0.48-0.75-0.8-0.97-1.31c-0.07-0.32-0.12-0.67,0.22-0.84c0.32-0.16,0.5,0.17,0.67,0.36
		c0.91,0.98,2.02,1.77,2.68,2.97c2.9,3.17,5.8,6.34,8.7,9.5c0.13,0.14,0.24,0.29,0.48,0.57c-0.7,0-1.23,0-1.77,0
		c-0.55-0.27-0.77-0.84-1.13-1.29C34.13,18.39,33.71,18.03,33.66,17.47z"/>
	<path class="st8" d="M38.7,19.62c-0.31-0.34-0.57-0.63-0.84-0.92c-1.67-1.81-1.65-1.8,0.06-3.51c0.59-0.59,0.94-0.83,1.66-0.07
		c1.35,1.43,1.42,1.38,0.32,3.01C39.55,18.65,39.28,19.23,38.7,19.62z"/>
	<path class="st8" d="M29.16,9.3c0.94-1.16,1.82-0.82,2.78-0.11c0.98,0.72,2.04,1.33,3.16,2.04c-0.81,0.51-1.53,0.92-2.2,1.4
		c-0.31,0.22-0.47,0.17-0.69-0.07C31.18,11.45,30.15,10.36,29.16,9.3z"/>
	<path class="st9" d="M15.88,17.24c-1.52,0-3.04,0.01-4.57,0.01c0.42-1.68,2.32-3.36,3.67-3.24c0.43,0.04,0.88,0.07,1.11,0.54
		C16.25,15.46,16.43,16.38,15.88,17.24z"/>
	<path class="st6" d="M28.15,10.03c-1.05-1.12-2.09-2.24-3.16-3.38c-0.38,0.46-0.24,0.73-0.22,0.99c0.18,0.51,0.47,0.92,0.94,1.21
		c0.17,0.15,0.34,0.3,0.51,0.46c-0.12,0.67-0.68,0.57-1.12,0.6c-0.99,0.05-1.99,0.05-2.98,0.01c-0.79-0.03-1.05,0.36-1.1,1.07
		c-0.04,0.66,0.16,1.37-0.35,1.95c-0.61-0.62,0.08-1.52-0.46-2.16c-0.2-0.11-0.24-0.32-0.29-0.52c-0.04-0.24-0.14-0.46-0.21-0.7
		c-0.45-0.53-1.24,0.11-1.67-0.5c0.64-0.48,1.38-0.27,2.08-0.3c0.52-0.02,1.03,0,1.55,0c2.36,0,2.36,0,2.23-2.36
		c-0.19-0.64-0.81-0.97-1.11-1.53c-0.04-0.12-0.03-0.22,0.04-0.32c0.21-0.26,0.35-0.04,0.47,0.09c1.58,1.57,3.15,3.14,4.72,4.72
		C28.2,9.53,28.48,9.73,28.15,10.03z"/>
	<path class="st10" d="M28.32,18.93c0.02,0.31,0.05,0.63,0.07,0.94c-0.02,0.07-0.04,0.14-0.04,0.22c-2.4,0.25-4.8,0.2-7.19,0.02l0,0
		c-0.33-0.44-0.36-0.87,0.01-1.3c1.55-0.56,3.16-0.19,4.73-0.26C26.72,18.52,27.6,18.33,28.32,18.93z"/>
	<path class="st11" d="M11.82,20.11c-0.06-2.12-0.06-2.12,2-2.12c1.71,0,3.43-0.01,5.14-0.01c0.32,0.24,0.77-0.07,1.06,0.28
		c0.04,0.37-0.1,0.65-0.43,0.84c-1.7,0.36-3.42,0.11-5.13,0.16c-0.68,0.02-1.27,0.11-1.59,0.8c-0.1,0.11-0.23,0.14-0.37,0.09
		C12.28,20.14,12.05,20.13,11.82,20.11z"/>
	<path class="st12" d="M7.02,18.45c1.27-0.91,2.7-0.35,4.06-0.41c0.38-0.02,0.44,0.4,0.44,0.74c0,0.44-0.01,0.88-0.02,1.32
		c-0.07,0.01-0.14,0.03-0.2,0.05c-0.04-0.04-0.08-0.08-0.12-0.12c-0.53-0.88-1.01-1-1.94-0.54c-0.46,0.23-0.78,0.7-1.34,0.74
		c-0.75-0.01-1.5,0.01-2.25-0.01c-0.26,0-0.58,0.07-0.64-0.33C5.65,19.37,6.49,19.12,7.02,18.45z"/>
	<path class="st13" d="M15.85,14.34c-1.33-0.52-2.26-0.01-3.03,1.09c-0.45,0.64-1,1.21-1.51,1.82c-0.72,0.13-1.49-0.18-2.18,0.21
		c-0.13,0-0.27-0.01-0.4-0.01c1.94-2.21,3.96-4.25,7.32-3.57c0.3,0.06,0.55,0.1,0.53,0.48C16.32,14.53,16.09,14.38,15.85,14.34z"/>
	<path class="st14" d="M22.83,4.54c0.01,0.07,0.01,0.14,0.01,0.21c0.02,0.29,0.01,0.58-0.14,0.84c-0.77,0.91-1.52,1.84-2.32,2.96
		c1.07-0.02,2.01,0.04,2.95-0.06c0.57-0.22,0.3-0.72,0.37-1.11c0.08-0.48-0.09-1.02,0.35-1.41c0.46,0.86,0.11,1.78,0.17,2.66
		c0.03,0.52-0.46,0.43-0.81,0.43c-1.79,0-3.58,0-5.36,0c0.1-0.75,0.76-1.09,1.24-1.5C20.47,6.55,21.39,5.24,22.83,4.54z"/>
	<path class="st15" d="M20.69,12.92c0.09-3.37,0.09-3.35,3.48-3.36c0.69,0,1.43,0.28,2.06-0.26c0.32,0.32,0.65,0.64,0.97,0.95
		c-0.13,0.62-0.63,0.36-0.97,0.37c-1.12,0.02-2.24,0.02-3.36,0c-0.82-0.02-1.11,0.36-1.16,1.16c-0.05,0.8,0.42,0.81,0.98,0.83
		c0.35,0.02,0.74,0.02,0.91,0.43c-0.87,0.64-1.78,0.43-2.69,0.12C20.84,13.08,20.76,13,20.69,12.92z"/>
	<path class="st16" d="M34.63,18.66c0.31,0.48,0.62,0.96,0.93,1.44c-2,0-4.01,0-6.01,0c-0.17-0.52-0.1-0.99,0.35-1.35
		C31.47,18.4,33.05,18.54,34.63,18.66z"/>
	<path class="st17" d="M36.99,14.84c-0.8,1.66-1.19,1.71-2.32,0.36c-0.53-0.64-1.09-1.24-1.63-1.86c0.72-0.8,1.29-0.64,2.01,0
		C35.66,13.88,36.12,14.65,36.99,14.84L36.99,14.84z"/>
	<path class="st18" d="M19.72,9.55c0.28,0.05,0.53,0.14,0.45,0.51c-0.28,0.14-0.59,0.16-0.89,0.23c-1.79-0.27-2.26,1.43-3.37,2.11
		c0.18,0.5,1.12,0.02,0.84,0.86c-1.02,0.2-2.03,0.32-3.03-0.09C15.33,11.31,16.7,9.05,19.72,9.55z"/>
	<path class="st19" d="M37,14.85c-0.24-0.98-1.22-1.28-1.79-1.97c-0.17-0.21-0.69-0.36-0.35-0.72c0.27-0.29,0.67-0.63,1.15-0.32
		c0.73,0.47,1.44,0.98,2.15,1.47c0.29,0.2,0.34,0.43,0.06,0.67C37.84,14.31,37.57,14.8,37,14.85C36.99,14.84,37,14.85,37,14.85z"/>
	<path class="st6" d="M20.92,13.16c0.89-0.1,1.82,0.22,2.69-0.19c0.11-0.1,0.23-0.15,0.38-0.15c1.53,0.02,3.06,0.02,4.58,0
		c0.43,0,0.87,0.01,1.2,0.36c0.02,0.06,0.04,0.13,0.06,0.19c-0.13,0.08-0.26,0.24-0.39,0.24c-2.65,0.02-5.31,0.02-7.96,0.03
		C21.15,13.64,20.95,13.49,20.92,13.16z"/>
	<path class="st20" d="M29.98,8.01c-0.96,0.77-1.6,0.69-2.29-0.15c-0.65-0.79-1.47-1.43-2.22-2.14c0.06-0.08,0.13-0.17,0.19-0.25
		C27.07,6.31,28.49,7.14,29.98,8.01z"/>
	<path class="st6" d="M13.72,13.16c1.05-0.13,2.13,0.22,3.17-0.19c0.1-0.1,0.21-0.16,0.36-0.16c0.98,0.14,2.01-0.25,2.94,0.32
		c-0.03,0.42-0.3,0.5-0.66,0.5c-1.71,0-3.42,0-5.13,0C14.05,13.64,13.76,13.58,13.72,13.16z"/>
	<path class="st21" d="M19.49,10.06c0.22-0.21,0.45-0.25,0.67,0c0.02,0.23,0.04,0.47,0.06,0.7c-0.03,0.71-0.06,1.41-0.09,2.12
		c-0.37,0.28-0.77,0.16-1.16,0.08C19.11,11.99,18.96,10.96,19.49,10.06z"/>
	<path class="st22" d="M15.85,14.34c0.26-0.34,0.49-0.1,0.73,0.03c0.01,0.75,0,1.51,0.03,2.26c0.02,0.55-0.23,0.71-0.73,0.61
		C15.87,16.27,15.86,15.3,15.85,14.34z"/>
	<path class="st6" d="M20.44,20.6c-2.72,0-5.44,0-8.16,0c0.08-0.08,0.16-0.16,0.24-0.24c0.38-0.23,0.79-0.33,1.24-0.33
		c1.78,0,3.55-0.01,5.33,0c0.4,0,0.79,0.03,1.11,0.33C20.27,20.44,20.35,20.52,20.44,20.6z"/>
	<path class="st3" d="M20.19,20.36c-2.56,0-5.12,0-7.67,0c0-0.07,0-0.14-0.01-0.2c0.09-0.02,0.18-0.05,0.26-0.07
		c0.22-0.19,0.48-0.3,0.76-0.3c2.1-0.01,4.2-0.18,6.3,0.09c0.15,0.06,0.27,0.15,0.37,0.28C20.2,20.22,20.2,20.29,20.19,20.36z"/>
	<path class="st3" d="M21.16,20.12c2.4-0.01,4.8-0.02,7.19-0.02c-0.25,0.37-0.64,0.26-0.98,0.26c-1.74,0.01-3.48,0.01-5.22,0
		C21.81,20.35,21.43,20.45,21.16,20.12z"/>
	<path class="st3" d="M5.01,19.9c1.05,0.43,2.14,0.15,3.21,0.18c1.03-0.47,2.06-0.49,3.1-0.03c0,0-0.02,0.11-0.02,0.11
		c-2.03,0.44-4.09,0.12-6.14,0.17C4.91,20.33,4.87,20.11,5.01,19.9z"/>
	<path class="st23" d="M22.84,17.23c0-0.77-0.01-1.55-0.01-2.32c0-0.34-0.06-0.73,0.46-0.77c0.01,0.83,0.03,1.67,0.04,2.5
		C23.34,16.97,23.33,17.29,22.84,17.23z"/>
	<path class="st24" d="M29.79,18.92c0,0.41,0.02,0.82-0.24,1.18c-0.92-0.07-0.28-0.82-0.52-1.19c0.16-0.31-0.25-0.93,0.5-0.92
		C30.01,18.2,30.09,18.51,29.79,18.92z"/>
	<path class="st3" d="M19.97,18.21c-0.33-0.09-0.71,0.04-1-0.23c0.74,0.12,1.49-0.38,2.23,0.01c0.25,0.32,0.2,0.63-0.05,0.93
		c0,0.4,0,0.8,0.01,1.2c-0.08,0-0.16,0-0.24,0c-0.44-0.42-0.03-1.2-0.66-1.53C20.1,18.5,20.04,18.36,19.97,18.21z"/>
	<path class="st25" d="M41.35,16.02c-0.69-0.56-1.39-1.12-2.08-1.68c0.91,0.27,1.68,0.73,2.3,1.39
		C41.49,15.82,41.42,15.92,41.35,16.02z"/>
	<path class="st26" d="M19.97,18.21c0.09,0.08,0.18,0.16,0.28,0.24c0.53,0.41,0.53,0.9,0.21,1.44c-0.09,0.09-0.17,0.18-0.26,0.27
		c-0.08-0.02-0.16-0.04-0.24-0.06c-0.56-0.29-0.57-0.7-0.26-1.19C19.79,18.68,19.88,18.44,19.97,18.21z"/>
	<path class="st6" d="M20.46,19.88c-0.07-0.48-0.14-0.96-0.21-1.44c0.33-0.05,0.72-0.25,0.67,0.39c-0.03,0.43-0.01,0.86-0.01,1.28
		C20.76,20.04,20.61,19.96,20.46,19.88z"/>
	<path class="st18" d="M19.02,12.91c0.37-0.01,0.74-0.02,1.12-0.03c0.02,0.09,0.03,0.17,0.05,0.26c-1.06-0.03-2.13,0.2-3.16-0.17
		C17.67,12.41,18.34,12.44,19.02,12.91z"/>
	<path class="st27" d="M29.77,13.17c-0.39-0.02-0.79-0.04-1.18-0.05c-1.61-0.23-3.23,0.07-4.83-0.16l-0.08,0c0,0-0.08,0-0.08,0
		c-0.24-0.01-0.48-0.07-0.71-0.02c-1.28,0.24-1.69-0.21-1.54-1.53c0.09-0.84,0.23-1.19,1.15-1.16c1.56,0.06,3.13,0,4.7,0
		c0.96,0.96,1.92,1.93,2.87,2.89C29.97,13.15,29.87,13.16,29.77,13.17z"/>
	<path class="st17" d="M29.79,18.92c-0.01-0.33-0.02-0.66-0.26-0.92c0.16-0.02,0.33-0.05,0.49-0.07c0.63-0.38,1.33-0.13,1.99-0.21
		c0.46-0.05,0.97,0.16,1.37-0.22c0.09-0.01,0.18-0.02,0.28-0.03c0.32,0.4,0.65,0.8,0.97,1.19c-0.98,0.57-2.05,0.14-3.08,0.25
		C30.97,18.97,30.38,18.92,29.79,18.92z"/>
	<path class="st28" d="M33.39,17.5c0.21,0.42-0.04,0.46-0.37,0.46c-1-0.01-1.99-0.02-2.99-0.03c0-0.14,0-0.28,0-0.42
		C31.15,17.5,32.27,17.5,33.39,17.5z"/>
	<path class="st29" d="M21.15,18.92c0.01-0.31,0.03-0.62,0.05-0.93c2.09-0.01,4.18,0.01,6.27-0.03c0.77-0.02,1.01,0.26,0.86,0.98
		C25.93,18.93,23.54,18.92,21.15,18.92z"/>
	<path class="st30" d="M25.72,8.84c-1.17,0.26-1.02-0.5-0.94-1.21C25.18,7.97,25.7,8.21,25.72,8.84z"/>
	<path class="st31" d="M22.65,5.47c-0.03-0.27-0.18-0.56,0.19-0.73c0.4,0.4,0.81,0.81,1.21,1.21c-0.01,0.74-0.03,1.48-0.01,2.22
		c0.01,0.5-0.15,0.74-0.67,0.62c-0.49-0.38-0.39-0.93-0.34-1.41C23.11,6.69,22.95,6.08,22.65,5.47z"/>
	<path class="st32" d="M19.7,18.91c0.02,0.41-0.02,0.83,0.26,1.19c-2.4,0-4.79-0.01-7.19-0.01c-0.16-0.86,0.12-1.21,1.07-1.18
		C15.79,18.96,17.75,18.91,19.7,18.91z"/>
	<path class="st33" d="M11.32,20.05c-1.03,0.01-2.07,0.02-3.1,0.03c0.4-0.75,1.06-1.08,1.88-1.17
		C10.98,18.82,11.49,19.05,11.32,20.05z"/>
	<path class="st34" d="M22.65,5.47c0.58,0.27,0.92,0.58,0.73,1.35c-0.15,0.62-0.02,1.32-0.01,1.98c-1.14,0-2.28,0-3.67,0
		C20.85,7.68,21.36,6.25,22.65,5.47z"/>
	<path class="st35" d="M19.02,12.91c-0.67,0.02-1.33,0.04-2,0.07c-0.05,0-0.09,0-0.14,0c-0.51-0.03-1.01-0.05-1.91-0.1
		c1.7-1.04,2.1-3.4,4.51-2.82C19.4,11.02,19.73,12.05,19.02,12.91z"/>
	<path class="st15" d="M23.75,12.96c1.61,0.05,3.23-0.24,4.83,0.16C26.97,13.12,25.35,13.36,23.75,12.96z"/>
</g>
</svg>
