<?xml version="1.0" encoding="utf-8"?>
<!-- Generator: Adobe Illustrator 23.0.2, SVG Export Plug-In . SVG Version: 6.00 Build 0)  -->
<svg version="1.1" id="Camada_1" xmlns="http://www.w3.org/2000/svg" xmlns:xlink="http://www.w3.org/1999/xlink" x="0px" y="0px"
	 viewBox="0 0 100.68 100.7" style="enable-background:new 0 0 100.68 100.7;" xml:space="preserve">
<style type="text/css">
	.st0{fill:#FEFEFE;}
	.st1{fill:#1D262A;}
	.st2{fill:#666E71;}
	.st3{fill:#515252;}
	.st4{fill:#8F908F;}
	.st5{fill:#666E70;}
	.st6{fill:#90908F;}
	.st7{fill:#8F8F8F;}
	.st8{fill:#8C8D8D;}
	.st9{fill:#8C8C8C;}
	.st10{fill:#646C6E;}
	.st11{fill:#1B2428;}
	.st12{fill:#252B31;}
	.st13{fill:#6E7678;}
	.st14{fill:#505759;}
	.st15{fill:#616869;}
	.st16{fill:#67696A;}
	.st17{fill:#6A6D6E;}
	.st18{fill:#687072;}
	.st19{fill:#110A1C;}
	.st20{fill:#515759;}
	.st21{fill:#10091B;}
	.st22{fill:#525859;}
	.st23{fill:#8F8E8B;}
	.st24{fill:#666F71;}
	.st25{fill:#676F71;}
	.st26{fill:#252C31;}
</style>
<g>
	<path d="M50.49,100.7c-5.6-0.16-10.57-1.53-15.57-2.76c-6.61-1.63-12.15-5.25-17.25-9.53C11.19,82.98,6.31,76.27,3.55,68.25
		c-1.95-5.66-3.37-11.51-3.54-17.54c-0.12-4.3,1.12-8.44,1.97-12.62c1.84-9.06,6.46-16.58,12.84-22.98
		c6.5-6.52,14.19-11.19,23.41-13.03c3.28-0.65,6.54-1.45,9.86-1.93c3.71-0.53,7.31,0.44,10.88,1.23c4.9,1.08,9.85,2.08,14.31,4.56
		c11.51,6.39,19.96,15.45,24.1,28.11c1.49,4.54,2.41,9.26,3.12,13.99c0.61,4.05-0.51,7.93-1.37,11.82c-1,4.52-1.98,9.05-4.2,13.18
		c-6.07,11.29-14.81,19.7-26.95,24.08C62.26,99.2,56.25,100.49,50.49,100.7z"/>
	<path class="st0" d="M50.28,88.43c-21.06-0.5-37.95-16.32-37.91-37.96c0.04-21.99,16.71-37.16,37.92-38.22
		C72.15,13.53,87.2,28.83,88.4,50.43C87.36,71.6,72.07,87.75,50.28,88.43z"/>
	<path d="M50.3,87.23c-20.41-0.4-36.84-15.97-36.75-36.83c0.09-21.07,16.09-35.9,36.66-36.94c20.78,1.1,35.85,15.73,36.99,36.98
		C86.26,70.75,71.45,86.62,50.3,87.23z"/>
	<path class="st1" d="M86.04,50.47c-0.74,9.54-3.74,18.16-10.69,25.05c-6.95,6.89-15.48,10.63-25.16,10.46
		C29.81,85.61,14.97,70.23,14.67,50.4c-0.15-9.8,3.7-18.42,10.88-25.45c6.89-6.74,15.37-9.41,24.62-10.38
		c9.38,0.87,17.95,3.66,24.85,10.45C82.14,32.01,85.3,40.7,86.04,50.47z"/>
	<path class="st2" d="M81.99,62.83c-4.18,10.32-11.65,17.04-22.23,20.4c-2.96,0.94-6.02,1.26-9.08,1.34
		c-2.21,0.06-4.46-0.02-6.63-0.66c-1.07-0.51-1.75-1.5-2.63-2.24c-1.29-1.07-2.53-2.2-3.74-3.35c-0.26-0.25-0.73-0.59,0.04-0.83
		c0.7,0.03,1.29,0.41,1.93,0.62c11.68,3.94,22.14,1.96,31.22-6.5c3.99-3.72,6.54-8.34,8-13.57c0.11-0.41,0.12-0.9,0.63-1.08
		c0.3,0.05,0.53,0.23,0.64,0.49C80.93,59.19,81.9,60.86,81.99,62.83z"/>
	<path class="st2" d="M16.16,51.08c-0.54-1.42,0-2.84,0.14-4.23c0.59-6.22,2.84-11.86,6.61-16.83c4.07-5.37,9.21-9.37,15.65-11.59
		c1.8,0.03,3.95,1.47,4.4,2.95c-0.25,0.5-0.75,0.55-1.2,0.68c-11.21,3.27-19.6,13.25-20.94,24.82c-0.59,5.07,0.07,9.95,1.92,14.69
		c0.17,0.44,0.43,0.87,0.38,1.37c-0.47,0.78-0.71,0.09-0.88-0.19c-0.91-1.44-1.89-2.86-2.67-4.37c-0.93-1.8-1.79-3.64-2.74-5.43
		C16.49,52.34,16.58,51.63,16.16,51.08z"/>
	<path class="st3" d="M16.16,51.08c0.47,0.21,0.44,0.71,0.63,1.09c1.77,3.72,3.65,7.38,5.9,10.84c0.09,0.13,0.18,0.11,0.28,0.01
		c0.56,0.04,0.65,0.54,0.84,0.91c2.94,5.66,7.19,10.01,12.9,12.9c0.36,0.18,0.87,0.27,0.89,0.84c1.1,1.53,2.7,2.53,4.03,3.82
		c0.83,0.8,1.71,1.53,2.43,2.44c-2.55-0.16-4.92-1.05-7.2-2.07C26.58,77.27,20,69.49,17.04,58.65
		C16.37,56.19,16.11,53.64,16.16,51.08z"/>
	<path class="st4" d="M69.04,21.96c4.13,2.69,7.5,6.13,10.09,10.33c-0.28,1.08-1.34,1.2-2.11,1.65c-0.42,0.25-0.94,0.4-1.46,0.45
		c-0.55-0.07-0.75-0.55-1.02-0.93c-1.6-2.21-3.4-4.22-5.52-5.94c-0.4-0.32-0.83-0.65-0.86-1.24c0.16-1.06,0.3-2.13,0.3-3.21
		C68.45,22.64,68.35,22.07,69.04,21.96z"/>
	<path class="st4" d="M82.5,39.48c1.04,2.45,1.49,5.04,1.67,7.68c0.06,0.42,0.28,0.97-0.1,1.21c-0.45,0.28-0.87-0.19-1.27-0.43
		c-0.37-0.23-0.66-0.56-0.84-0.67c0.83,0.88,1.87,1.88,2.34,3.3c0.01,0.32,0.01,0.63,0.02,0.95c-0.22,0.36,0.03,0.79-0.29,1.34
		c-1.6-1.76-2.66-3.84-4.23-5.52c-0.53-2.27-0.85-4.6-1.68-6.79c-0.17-0.44-0.36-0.89-0.12-1.38C79.55,38.77,81.06,38.68,82.5,39.48
		z"/>
	<path class="st2" d="M45.2,16.68c2.66-0.26,5.32-0.73,8.01-0.23c-0.72,0.61-1.55,0.25-2.21,0.3c1.97,1.05,3.93,2.33,5.82,3.7
		c0.29,0.21,0.79,0.54,0.2,1.01c-0.85,0.14-1.65-0.19-2.47-0.29c-3.01-0.36-6.01-0.4-9.01,0.07c-0.31,0.05-0.63,0.1-0.95,0.05
		c-0.24-0.04-0.47-0.13-0.63-0.31c-1.16-1.27-2.55-2.25-4.04-3.09c1.65-0.56,3.34-0.96,5.07-1.18c1.15,0.6,2.05,1.51,2.95,2.42
		c0.38,0.39,0.74,0.82,1.55,0.88C48.04,18.73,47.06,17.15,45.2,16.68z"/>
	<path class="st2" d="M82.5,39.48c-1.47-0.19-2.94-0.3-4.42-0.15c-0.28,0-0.44-0.19-0.53-0.41c-0.57-1.36-1.24-2.66-2.04-3.91
		c-0.15-0.23-0.26-0.5-0.02-0.77c1.26-0.57,2.61-0.96,3.64-1.95C80.57,34.54,81.77,36.9,82.5,39.48z"/>
	<path class="st5" d="M80.08,47.43c1.71,1.36,2.54,3.4,3.95,5.1c0.23-0.29-0.04-0.77,0.3-1.01c-0.13,2.52-0.3,5.04-1.14,7.45
		c-0.56,0.1-0.67-0.38-0.81-0.7c-0.79-1.84-1.74-3.59-2.61-5.39c-0.18-1.46-0.08-2.92-0.08-4.38C79.7,48.11,79.73,47.7,80.08,47.43z
		"/>
	<path class="st6" d="M57.27,21.24c-1.82-1.63-3.97-2.75-6.02-4.04c-0.32-0.2-0.67-0.37-0.96-0.76c0.97,0,1.95,0,2.92,0
		c1.94,0.13,3.86,0.36,5.71,1.02c1.09,1.34,1.21,2.91,1.05,4.54C58.88,22.42,58.03,21.99,57.27,21.24z"/>
	<path class="st7" d="M80.08,53.22c1.01,1.14,1.46,2.58,2.12,3.91c0.31,0.63,0.47,1.34,1,1.84c-0.15,1.36-0.63,2.63-1.2,3.86
		c-0.67-1.58-1.12-3.25-1.88-4.8c-0.17-0.35-0.39-0.68-0.57-1.02C79.12,55.66,79.36,54.41,80.08,53.22z"/>
	<path class="st6" d="M63.25,18.88c0.99,0.42,2.01,0.78,2.89,1.43c0.58,1.51,0.51,3.03,0.05,4.55c-1.62,0.15-2.66-0.83-3.67-1.88
		c-0.21-1.05-0.15-2.12-0.08-3.18C62.47,19.36,62.39,18.65,63.25,18.88z"/>
	<path class="st2" d="M63.25,18.88c-0.6,0.06-0.48,0.52-0.48,0.9c-0.01,1.15-0.01,2.29-0.01,3.44c-1.12-0.02-2.16-0.22-2.87-1.2
		c-0.15-1.55-0.46-3.07-0.97-4.54C60.44,17.71,61.85,18.27,63.25,18.88z"/>
	<path class="st2" d="M65.88,24.89c0.53-1.5,0.09-3.06,0.26-4.58c1.06,0.39,1.98,1.02,2.89,1.66c-0.49,0.54-0.24,1.2-0.25,1.81
		c-0.01,0.96-0.13,1.88-0.49,2.77C67.25,26.35,66.42,25.83,65.88,24.89z"/>
	<path class="st8" d="M39.93,17.89c1.96,0.35,3.16,1.74,4.35,3.14c-0.4,0.5-0.86,0.67-1.44,0.27c-1.03-1.56-2.64-2.26-4.3-2.88
		C38.96,18.12,39.43,17.98,39.93,17.89z"/>
	<path class="st9" d="M45.2,16.68c1.05-0.14,1.78,0.36,2.47,1.11c0.72,0.78,1.57,1.45,2.45,2.26c-1.3,0.39-3.18-0.93-5.12-3.33
		C45.07,16.69,45.13,16.68,45.2,16.68z"/>
	<path class="st10" d="M84.32,50.57c-0.97-1.23-1.94-2.47-3.15-4c1.13,0.7,1.98,1.22,2.9,1.8c0.05-0.51,0.08-0.86,0.11-1.21
		C84.55,48.29,84.31,49.43,84.32,50.57z"/>
	<path class="st11" d="M42.85,21.31c0.5,0.04,0.97-0.11,1.44-0.27c4.34-0.74,8.67-0.64,12.98,0.21c0.87,0.28,1.7,0.66,2.62,0.76
		c0.96,0.4,1.92,0.8,2.87,1.2c1.04,0.56,2.08,1.12,3.12,1.68c0.81,0.55,1.61,1.1,2.42,1.65c2.81,2.18,5.14,4.81,7.19,7.71
		c0.86,1.69,1.73,3.39,2.59,5.08c0.96,2.63,1.61,5.33,2,8.1c0,1.93,0,3.86-0.01,5.79c-0.18,1.27-0.36,2.53-0.54,3.8
		c-1.07,3.73-2.44,7.33-4.73,10.52c-5.11,7.1-11.94,11.37-20.64,12.58c-5.77,0.8-11.28-0.11-16.58-2.44
		c-3.2-1.64-6.19-3.59-8.72-6.17c-2.44-2.49-4.33-5.38-5.91-8.47c-1.86-4.34-2.86-8.85-2.67-13.6c0.27-6.9,2.63-12.98,7.05-18.27
		c3.96-4.73,8.96-7.85,14.87-9.55C42.43,21.53,42.63,21.4,42.85,21.31z"/>
	<path class="st12" d="M68.79,28.54c0.06,0.06,0.11,0.11,0.17,0.17c1.13,0.72,1.82,1.92,2.95,2.65c1.8,1.83,3.09,4.02,4.3,6.27
		c-0.25,0.4,0.07,0.68,0.21,0.98c2.34,5.17,3.07,10.56,2.2,16.17c-0.61,3.95-1.94,7.6-4.14,10.94c-0.57-0.1-0.85-0.48-0.99-1.01
		c1.47-2.77,2.71-5.63,3.54-8.66c0.29-0.45,0.1-0.62-0.37-0.7c-0.98-0.17-1.98-0.22-2.96-0.41c-2.36-0.47-4.62-1.18-6.76-2.31
		c-3.5-1.85-4.91-4.87-5.22-8.67c-0.48-5.69,2.67-9.25,6.9-12.25c0.25-0.18,1.07-0.15,0.5-0.86c-1.83-1.9-3.98-3.34-6.29-4.57
		c-0.82-0.2-0.9,0.52-1.13,0.97c-1.06,2.11-2.35,4.03-3.89,5.85c-3.8,4.48-11.57,3.15-14.57,0.61c-2.48-2.1-4.15-4.71-5.11-7.8
		c-0.12-0.38-0.24-0.77-0.15-1.17c2.28-1.34,4.78-2.02,7.35-2.5c0.47-0.09,0.93-0.19,1.4-0.24c2.99-0.44,5.96-0.27,8.91,0.27
		c3.81,0.7,7.32,2.15,10.55,4.29c0.2,0.15,0.4,0.31,0.61,0.46C67.49,27.5,68.17,27.97,68.79,28.54z"/>
	<path class="st12" d="M71.89,69.55c-0.15,0.15-0.29,0.31-0.44,0.46c-0.8,0.39-1.22,1.23-1.97,1.68l0.01-0.01
		c-3.61,3.19-7.74,5.41-12.42,6.55c-0.9,0.22-1.81,0.67-2.78,0.25c-1.12-1.94-1.24-4.06-1.12-6.22c0.24-4.4,5.8-9.38,10.59-9.51
		c3.76-0.1,7.28,0.69,10.25,3.2c0.1,1.01-0.82,1.45-1.21,2.18C72.61,68.67,71.82,68.83,71.89,69.55z"/>
	<path class="st13" d="M54.41,78.44c4.91-0.54,9.23-2.48,13.18-5.4c0.63-0.46,1.1-1.15,1.91-1.36c-1.24,1.62-2.99,2.61-4.69,3.63
		c-4.34,2.6-9.09,4.03-14.13,3.98c-11.09-0.12-19.77-4.83-25.38-14.47c-5.13-8.81-5.33-18.07-0.86-27.19
		c4.17-8.49,11.2-13.54,20.42-15.55c0.42-0.09,0.87-0.07,1.31-0.1c0.23-0.07,0.51-0.23,0.5,0.23c-2.99,0.51-5.92,1.2-8.61,2.68
		c-0.14,0.43-0.54,0.54-0.88,0.74c-2.73,1.51-5.23,3.32-7.34,5.64c-0.29,0.37-0.55,0.76-0.87,1.1c-4.08,4.89-6.23,10.5-6.46,16.89
		c-0.18,4.9,0.67,9.58,3,13.88c4.95,9.13,12.59,14.25,23,15.26c1.93,0.19,3.82-0.31,5.72,0.02C54.29,78.42,54.35,78.43,54.41,78.44z
		"/>
	<path class="st14" d="M72.64,68.11c0.45-0.66,0.9-1.33,1.34-1.99c-0.03-0.23,0.08-0.37,0.29-0.46c2.21-3.2,3.52-6.74,4.1-10.57
		c0.23-1.53,0.49-3.06,0.48-4.62c-0.04-4.06-0.89-7.96-2.51-11.69c-0.15-0.35-0.65-0.71-0.15-1.16c0.91,2.08,1.82,4.17,2.26,6.41
		c1.74,8.92,0.11,17.08-5.61,24.28C72.75,68.28,72.68,68.21,72.64,68.11z"/>
	<path class="st15" d="M46.67,22.21c-0.17-0.08-0.33-0.15-0.5-0.23c1.56-0.34,3.14-0.51,4.73-0.44c4.6,0.21,8.99,1.28,13.05,3.48
		c0.79,0.43,1.69,0.75,2.24,1.55c-1.58-0.48-2.83-1.59-4.34-2.22c-4.77-1.99-9.69-2.79-14.82-2.13
		C46.91,22.24,46.79,22.21,46.67,22.21z"/>
	<path class="st16" d="M71.9,31.36c-0.68-0.26-1.77-1.24-2.94-2.65C70.25,29.25,70.96,30.43,71.9,31.36z"/>
	<path class="st5" d="M69.49,71.69c0.54-0.69,0.96-1.53,1.97-1.68C70.79,70.56,70.39,71.42,69.49,71.69z"/>
	<path class="st17" d="M68.79,28.54c-0.78-0.35-1.42-0.88-1.99-1.51C67.65,27.28,68.33,27.76,68.79,28.54z"/>
	<path class="st18" d="M72.64,68.11c0.07,0.07,0.13,0.14,0.2,0.21c-0.32,0.41-0.63,0.82-0.95,1.23
		C71.48,68.72,72.49,68.64,72.64,68.11z"/>
	<path class="st19" d="M69.25,30.64c0.17,0.48,0.8-0.23,0.85,0.27c0.04,0.44-0.47,0.58-0.8,0.79c-3.3,2.16-6.29,4.66-7.06,8.75
		C61.6,43.8,61.9,47.18,64.1,50c1.45,1.86,3.61,2.84,5.8,3.63c2.29,0.83,4.68,1.15,7.08,1.49c0.25,0.03,0.64-0.17,0.71,0.21
		c0.06,0.34-0.03,0.74-0.53,0.77c-0.99,0.64-1.99-0.04-2.98,0.04c-3.23-0.63-6.36-1.51-9.11-3.44c-1.94-1.36-3.22-3.12-3.87-5.43
		c-1.14-4.02-0.89-7.8,1.5-11.34c0.5-0.73,1.08-1.38,1.71-1.99c0.97-0.97,2-1.88,3.13-2.66C68.05,30.94,68.54,30.47,69.25,30.64z"/>
	<path class="st19" d="M37.11,25.39c0.32-0.17,0.63-0.33,0.95-0.5c0.77,2.09,1.49,4.19,2.87,5.98c2.25,2.92,5.11,4.55,8.9,4.86
		c5.46,0.44,8.3-2.82,10.72-6.9c0.49-0.82,0.89-1.7,1.28-2.57c0.35-0.76,0.73-0.72,1.21-0.14c0.25,0.41,0.01,0.76-0.16,1.11
		c-0.69,1.41-1.36,2.84-2.3,4.12c-0.72,1.06-1.61,1.97-2.51,2.88c-2.43,2.44-5.36,3.22-8.74,2.84c-2.78-0.31-5.26-1.17-7.38-3.03
		c-1.43-1.26-2.53-2.75-3.35-4.45c-0.52-1.04-0.93-2.13-1.43-3.18C37.06,26.07,36.95,25.74,37.11,25.39z"/>
	<path class="st20" d="M60.38,31.13c1.07-1.57,1.93-3.26,2.66-5.01c2.32,1.17,4.46,2.57,6.21,4.52c-1.77,0.78-3.09,2.17-4.57,3.36
		C63.07,33.3,61.76,32.16,60.38,31.13z"/>
	<path class="st21" d="M74.27,65.66c-0.09,0.15-0.19,0.31-0.28,0.46c-2.2-1.69-4.76-2.56-7.44-2.94c-3.98-0.57-7.46,0.52-10.15,3.67
		c-0.26,0.3-0.55,0.58-0.83,0.86c-1.89,1.95-2.38,4.3-2.03,6.92c0.17,1.3,0.35,2.59,0.87,3.81c0,0-0.02,0-0.02,0
		c-0.75,0.16-1.47,0.22-1.83-0.68c-0.24-1.7-0.51-3.38-0.45-5.11c0.06-1.86,0.58-3.54,1.67-5.03c4.56-6.17,10.76-7.31,17.87-4.32
		c0.29,0.12,0.58,0.27,0.86,0.42c0.41,0.27,0.92,0.45,1.06,1.01C73.8,65.04,74.33,65.13,74.27,65.66z"/>
	<path class="st22" d="M73.57,64.72c-0.33-0.22-0.66-0.45-0.99-0.67c-0.05-0.62,0.26-1.15,0.42-1.72c0.46-1.57,0.74-3.17,0.71-4.81
		c-0.01-0.58-0.12-1.21,0.35-1.7c1.03,0.09,2.06,0.18,3.09,0.27C76.57,59.22,75.44,62.13,73.57,64.72z"/>
	<path class="st12" d="M52.69,77.67c0.41,0.62,0.99,0.82,1.7,0.76c-2.48,0.58-4.98,0.46-7.46,0.13c-6.81-0.92-12.64-3.86-17.29-8.94
		c-4.73-5.16-7.27-11.25-7.49-18.3C21.94,44.5,23.92,38.42,28.01,33c0.26-0.35,0.59-0.64,0.89-0.95c3.56,1.87,6.34,4.55,8.21,8.11
		c0.89,1.7,1.08,3.52,0.71,5.46c-1.01,5.34-4.17,8.63-9.32,10.12c-1.3,0.38-2.63,0.66-3.99,0.79c-0.4,0.04-0.64,0.15-0.26,0.55
		c0.66,1.96,1.3,3.93,2.28,5.75c0.36,0.67,0.79,1.28,1.26,1.88c0.06,0.84,0.52,0.47,0.89,0.28c1.28-0.68,2.57-1.27,4.04-1.42
		c0.72-0.08,1.43-0.12,2.14,0.04c6.54,1.45,10.18,5.48,10.68,12.48c0.04,0.58-0.1,1.31,0.92,0.97c1.7,0.2,3.4,0.33,5.11,0.28
		C51.97,77.33,52.38,77.35,52.69,77.67z"/>
	<path class="st19" d="M24.2,57.09c-0.46,0.11-0.81,0.05-0.77-0.54c0.04-0.55,0.4-0.26,0.69-0.29c4.35-0.47,8.41-1.65,11.21-5.3
		c1.32-1.72,1.91-3.8,2.27-5.96c0.58-3.47-1.24-5.95-3.27-8.33c-1.35-1.58-2.96-2.89-4.77-3.93c-0.26-0.15-0.43-0.45-0.65-0.68
		c0.25-0.31,0.5-0.62,0.75-0.92c0.49-0.12,0.59,0.4,0.9,0.56c0.76,0.57,1.51,1.16,2.29,1.7c1.53,1.34,2.93,2.8,4.15,4.45
		c2.72,3.66,2.48,7.48,0.83,11.45c-1.95,4.69-5.82,6.78-10.49,7.79C26.31,57.3,25.25,57.64,24.2,57.09z"/>
	<path class="st12" d="M30.38,31.84c-0.38-0.09-0.43-0.53-0.73-0.71c2.12-2.39,4.6-4.31,7.46-5.74c0.07,0.31,0.15,0.62,0.22,0.93
		c-0.08,0.44-0.44,0.64-0.77,0.85c-1.83,1.18-3.6,2.44-5.07,4.07C31.2,31.55,30.86,31.85,30.38,31.84z"/>
	<path class="st23" d="M24.2,57.09c2.47,0.02,4.82-0.58,7.06-1.57c5.52-2.43,7.57-7.63,7.49-12.43c-0.03-2.14-1.16-3.94-2.4-5.63
		c-1.09-1.49-2.41-2.76-3.82-3.93c-0.27-0.4-0.04-0.71,0.24-0.93c1.71-1.39,3.54-2.59,5.68-3.23c0.12-0.03,0.24,0.01,0.34,0.06
		c0.89,1.47,1.81,2.92,3.08,4.1c5.4,4.99,13.3,4.35,17.79-1.44c0.24-0.32,0.48-0.64,0.72-0.96c1.64,0.65,2.96,1.77,4.3,2.86
		c-2.49,2.67-4.01,5.73-3.82,9.49c0.24,4.75,2.21,8.31,6.71,10.31c2.1,0.93,4.29,1.48,6.5,2.03c0.05,2.45-0.05,4.89-0.93,7.22
		c-0.14,0.37-0.19,0.77-0.56,1c-3.17-1.47-6.45-2.47-9.98-1.87c-7.1,1.21-11.14,7.16-9.89,14.39c0.06,0.35,0.43,0.75-0.03,1.1
		c-1.86-0.07-3.72,0.1-5.57-0.22c-0.31-0.05-0.63-0.05-0.88-0.28c-0.59-1.01-0.41-2.16-0.56-3.24c-0.85-6.28-6.28-10.96-12.61-10.81
		c-1.4,0.03-2.64,0.56-3.88,1.11c-0.47,0.21-0.89,0.55-1.45,0.49c-0.33,0.07-0.52-0.1-0.67-0.37c-1.27-2.14-2.25-4.4-2.91-6.8
		C24.11,57.42,24.18,57.25,24.2,57.09z"/>
	<path class="st20" d="M38.78,29.43c-1.96,0.82-3.84,1.77-5.5,3.11c-0.34,0.27-0.77,0.45-0.76,0.99c-0.71-0.56-1.43-1.13-2.14-1.69
		c2.09-2.13,4.4-3.98,6.95-5.52C38.03,27.26,38.33,28.38,38.78,29.43z"/>
	<path class="st19" d="M27.73,64.72c6.45-4.79,15.48,0,17.53,6.35c0.65,1.99,0.96,4.02,0.97,6.1c-0.06,0.39-0.28,0.58-0.66,0.46
		c-0.41-0.13-0.3-0.51-0.31-0.81c-0.07-2-0.35-3.94-1.14-5.8c-1.42-3.33-3.94-5.31-7.27-6.57c-3.1-1.18-5.83-0.5-8.51,1.06
		c-0.23,0.14-0.44,0.58-0.8,0.19C27.12,65.29,27.44,65,27.73,64.72z"/>
	<path class="st2" d="M50.69,42.64c3.73-0.41,7.72,3.69,7.6,7.7c-0.13,4.17-3.49,7.55-7.62,7.64c-4.16,0.1-7.85-3.5-7.79-7.61
		C42.94,46.03,46.23,42.4,50.69,42.64z"/>
	<path class="st2" d="M49.75,63.29c1.22,0.02,1.94,0.77,1.9,1.95c-0.04,0.95-0.81,1.64-1.84,1.64c-1.08,0.01-1.94-0.82-1.91-1.85
		C47.93,64.05,48.76,63.27,49.75,63.29z"/>
	<path class="st24" d="M63.39,57.53c-1.49,0.01-1.84-0.26-1.82-1.38c0.02-1.02,0.56-1.5,1.71-1.5c1.15,0,2.07,0.67,2.1,1.53
		C65.4,57.02,64.67,57.52,63.39,57.53z"/>
	<path class="st25" d="M41.12,40.01c-0.71,0.01-1.66-0.76-1.59-1.67c0.07-0.87,0.49-1.48,1.51-1.46c1.15,0.02,2.07,0.73,2.04,1.69
		C43.05,39.6,42.43,40.03,41.12,40.01z"/>
	<path class="st2" d="M41.18,57.19c0.11,0.9-0.45,1.32-1.31,1.4c-1.04,0.09-1.78-0.6-1.83-1.57c-0.05-1.01,0.4-1.44,1.41-1.43
		C40.77,55.6,41.15,55.91,41.18,57.19z"/>
	<path class="st25" d="M57.98,39.77c-0.86,0.05-1.55-0.25-1.63-1.16c-0.08-0.97,0.81-1.99,1.53-1.96c0.67,0.03,1.5,1.07,1.51,1.9
		C59.4,39.33,58.9,39.77,57.98,39.77z"/>
	<path class="st26" d="M50.28,55.14c-2.76-0.01-4.81-2.08-4.81-4.86c0-2.67,2.2-4.95,4.8-4.97c2.66-0.03,5.09,2.42,5.03,5.07
		C55.24,53,52.97,55.15,50.28,55.14z"/>
</g>
</svg>
