<?xml version="1.0" encoding="utf-8"?>
<!-- Generator: Adobe Illustrator 23.0.2, SVG Export Plug-In . SVG Version: 6.00 Build 0)  -->
<svg version="1.1" id="Camada_1" xmlns="http://www.w3.org/2000/svg" xmlns:xlink="http://www.w3.org/1999/xlink" x="0px" y="0px"
	 viewBox="0 0 26.91 35.79" style="enable-background:new 0 0 26.91 35.79;" xml:space="preserve">
<style type="text/css">
	.st0{fill:#0C0B0F;}
	.st1{fill:#5C2C15;}
	.st2{fill:#7A391C;}
	.st3{fill:#8B4A22;}
	.st4{fill:#572A13;}
	.st5{fill:#572913;}
	.st6{fill:#7C3B1C;}
	.st7{fill:#C3AF2D;}
	.st8{fill:#E7E4B4;}
	.st9{fill:#7A3A1C;}
	.st10{fill:#8A4A22;}
</style>
<g>
	<path class="st0" d="M2.91,19.4c-0.15-5.2,0.2-9.76-0.45-14.3c-0.19-1.31,0.6-2.21,2.03-2.28c4.43-0.21,8.83-0.86,13.28-0.73
		c1.44,0.04,2.88,0.01,4.29,0.38c1.44,0.37,2.16,1.19,2.29,2.68c0.24,2.83,0.38,5.66,0.36,8.5c-0.04,5.71,0.22,11.43-0.43,17.13
		c-0.22,1.99-0.81,2.58-2.82,2.59c-5.12,0.04-10.24,0.04-15.36,0.03c-0.59,0-1.19-0.13-1.77-0.26c-1.5-0.34-2.1-1.24-2.01-2.78
		C2.55,26.5,2.74,22.63,2.91,19.4z"/>
	<path class="st1" d="M22.79,31.21c-0.14,0.54-0.47,0.75-1.05,0.75c-5.44-0.02-10.88,0.01-16.32-0.03c-1.5-0.01-1.79-0.49-1.62-2.01
		c0.16-1.46,0.12-2.94,0.23-4.42C4.45,20,4.34,14.49,4.29,8.97C4.28,7.83,4.02,6.69,3.87,5.55c-0.1-0.76-0.01-1.42,0.95-1.42
		c4.23,0,8.41-0.84,12.64-0.75c1.24,0.03,2.47,0.13,3.69,0.27c1.37,0.16,1.8,0.75,1.89,2.14c0.46,6.83,0.22,13.66,0.2,20.49
		c0,1.41-0.04,2.85-0.42,4.23c-0.25,0.04-0.37,0.51-0.68,0.26c-0.44-0.36-0.29-0.87-0.23-1.34c-0.42-4.14-0.13-8.29-0.2-12.44
		c-0.06-3.63,0.1-7.25-0.23-10.88c-0.09-0.99-0.56-1.23-1.38-1.16C16.31,5.32,12.47,5.1,8.66,5.59c-0.48,0.06-0.95,0.1-1.43,0.07
		c-1.67-0.02-1.9,0.21-1.75,1.86c0.42,4.51,0.24,9.03,0.1,13.53c-0.09,2.81-0.13,5.65-0.63,8.45c-0.17,0.96,0.37,1.14,1.19,1.14
		c4.71-0.01,9.43-0.02,14.14-0.04C21.18,30.59,22.03,30.68,22.79,31.21z"/>
	<path class="st2" d="M22.1,29.78c0.03,0.36,0.19,0.52,0.73,0.73c-0.01,0.23-0.03,0.47-0.04,0.7c-1.29-0.32-2.61-0.23-3.92-0.23
		c-4.36,0-8.72-0.03-13.07,0.02c-1.05,0.01-1.34-0.35-1.22-1.31c0.81-6.26,0.75-12.56,0.72-18.86c0-1.03-0.01-2.05-0.19-3.09
		C4.73,5.61,5.06,5.29,7.22,5.3C6.1,6.27,6.5,7.54,6.65,8.69c0.3,2.28,0.29,4.54-0.06,6.8c-0.4,2.53-0.12,5.1-0.43,7.64
		c-0.21,1.74-0.25,3.5-0.39,5.25c-0.11,1.38,0.12,1.74,1.54,1.72c1.39-0.02,2.78-0.26,4.18-0.22c3.04,0.1,6.06-0.1,9.08-0.44
		C21.09,29.39,21.7,29.16,22.1,29.78z"/>
	<path class="st3" d="M22.1,29.78c-1.59-0.18-3.15,0.2-4.72,0.31c-1.51,0.1-3.02,0.14-4.52,0.16c-1.87,0.03-3.73,0.09-5.6,0.21
		c-1.95,0.13-2.18-0.3-1.81-2.24c0.25-1.29,0.18-2.61,0.27-3.91c0.17-2.33,0.41-4.67,0.32-7.03c-0.06-1.55,0.49-3.04,0.48-4.61
		c-0.02-2.03-0.05-4.05-0.5-6.04c-0.24-1.1,0.63-1.04,1.2-1.33c4.4-0.46,8.83-0.42,13.23-0.74c1.07-0.08,1.37,0.23,1.44,1.36
		c0.44,7.19,0.1,14.38,0.18,21.56C22.08,28.25,22.72,29.01,22.1,29.78z"/>
	<path class="st4" d="M20.41,17.54c0.35,0.9,0.52,1.84,0.48,2.8c-0.11,2.46,0.27,4.94-0.24,7.4c-0.14,0.68-0.43,1.21-1.18,1.28
		c-3.69,0.35-7.37,0.21-11.03-0.38c-0.85-0.14-0.97-0.57-0.99-1.31c-0.08-2.83,0.41-5.64,0.27-8.48c-0.03-0.68,0.33-1.22,0.94-1.56
		c0.32-0.27,0.71-0.34,1.12-0.35c3.15-0.02,6.29-0.07,9.44,0.01C19.69,16.96,20.17,17.02,20.41,17.54z"/>
	<path class="st5" d="M13.73,6.45c1.99,0,3.99,0.05,5.98-0.02c0.95-0.03,1.12,0.64,1.14,1.21c0.08,1.87,0.07,3.75,0.01,5.62
		c-0.02,0.68-0.37,1.11-1.21,1.19c-2.78,0.25-5.57,0.2-8.35,0.2c-1.07,0-2.12-0.34-3.21-0.23c-0.36,0.04-0.59-0.13-0.63-0.54
		c-0.23-2.25-0.48-4.49-0.71-6.74C6.68,6.46,7.18,6.49,7.63,6.49c2.03,0,4.07,0,6.1,0C13.73,6.48,13.73,6.46,13.73,6.45z"/>
	<path class="st6" d="M20.41,17.54c-0.43-0.28-0.91-0.24-1.38-0.24c-3.46,0-6.92-0.01-10.38-0.01c0.05-0.56,0.42-0.7,0.92-0.71
		c2.51-0.05,5-0.37,7.52-0.24c0.87,0.04,1.72,0.39,2.6,0.23c0.48-0.12,0.74,0.16,0.96,0.52C20.57,17.23,20.49,17.38,20.41,17.54z"/>
	<path class="st7" d="M20.65,17.08c-0.42,0.01-0.64-0.34-0.96-0.52c-0.07-0.64-0.03-1.23,0.77-1.39c0.23,0.31,0.49,0.54,0.92,0.4
		C21.96,16.47,21.41,16.82,20.65,17.08z"/>
	<path class="st8" d="M21.37,15.57c-0.09,0.27-0.25,0.52-0.56,0.44c-0.42-0.11-0.38-0.5-0.36-0.84
		C20.81,15.19,21.16,15.23,21.37,15.57z"/>
	<path class="st3" d="M9.38,18.26c3.11-0.01,6.22,0.02,9.34-0.03c0.97-0.02,1.26,0.38,1.22,1.28c-0.09,2.7,0.2,5.42-0.24,8.11
		c-0.31,0.35-0.7,0.47-1.17,0.48c-2.82,0.07-5.63-0.26-8.45-0.16c-0.25,0.01-0.42-0.2-0.59-0.36c-0.39-1.06-0.42-2.19-0.47-3.3
		c-0.07-1.59,0.01-3.19,0-4.79C9.02,19.05,9.06,18.61,9.38,18.26z"/>
	<path class="st2" d="M9.38,18.26c-0.04,3.12-0.03,6.24,0.24,9.35c0.07,0.06,0.1,0.11,0.07,0.17c-0.02,0.05-0.05,0.08-0.07,0.08
		c-1.52-0.02-1.63-0.11-1.42-1.64c0.3-2.27,0.5-4.54,0.46-6.84C8.65,18.85,8.64,18.31,9.38,18.26z"/>
	<path class="st9" d="M9.61,27.86c0-0.08,0-0.16,0-0.25c0.61,0.39,1.23,0,1.84-0.03c2.1-0.1,4.17,0.32,6.26,0.28
		c0.68-0.01,1.34-0.05,1.98-0.25c-0.03,0.49-0.31,0.72-0.78,0.71c-3.04-0.06-6.1,0.24-9.13-0.32C9.73,28,9.67,27.91,9.61,27.86z"/>
	<path class="st10" d="M8.66,6.98C12,6.98,15.35,7,18.69,6.96c0.92-0.01,1.3,0.29,1.26,1.24c-0.05,1.59-0.02,3.18-0.02,4.77
		c-0.7,0.52-1.48,0.17-2.2,0.12c-2.26-0.17-4.51-0.17-6.77-0.02c-1.99,0.13-2.16-0.13-2.19-2.14c-0.01-0.8-0.14-1.58-0.29-2.36
		C8.38,8.03,8.24,7.47,8.66,6.98z"/>
	<path class="st2" d="M8.66,6.98c0.12,1.73,0.66,3.43,0.49,5.19c-0.04,0.4,0.24,0.55,0.61,0.56c0.56,0,1.13,0.09,1.67-0.01
		c2.86-0.51,5.68,0.01,8.51,0.25c0.06,0.6-0.28,0.73-0.81,0.73c-3.52-0.01-7.03-0.01-10.55,0c-0.58,0-0.86-0.14-0.89-0.8
		C7.6,11.08,7.87,9.26,7.41,7.43C7.21,6.63,8.22,7.14,8.66,6.98z"/>
</g>
</svg>
