<?xml version="1.0" encoding="utf-8"?>
<!-- Generator: Adobe Illustrator 23.0.2, SVG Export Plug-In . SVG Version: 6.00 Build 0)  -->
<svg version="1.1" id="Camada_1" xmlns="http://www.w3.org/2000/svg" xmlns:xlink="http://www.w3.org/1999/xlink" x="0px" y="0px"
	 viewBox="0 0 38.43 28.59" style="enable-background:new 0 0 38.43 28.59;" xml:space="preserve">
<style type="text/css">
	.st0{fill:#010100;}
	.st1{fill:#592919;}
	.st2{fill:#69331A;}
	.st3{fill:#9E4B1E;}
	.st4{fill:#63311A;}
	.st5{fill:#813419;}
	.st6{fill:#C9841D;}
	.st7{fill:#C67416;}
	.st8{fill:#EFDD29;}
	.st9{fill:#EADE32;}
	.st10{fill:#783218;}
	.st11{fill:#F6F6B2;}
	.st12{fill:#F6F5B9;}
	.st13{fill:#BE6023;}
	.st14{fill:#F2D65D;}
	.st15{fill:#B5511F;}
	.st16{fill:#9A351A;}
	.st17{fill:#94351D;}
	.st18{fill:#E9B237;}
	.st19{fill:#66321B;}
	.st20{fill:#CC8B33;}
	.st21{fill:#441D14;}
	.st22{fill:#F5E36B;}
	.st23{fill:#F2D75A;}
	.st24{fill:#C36223;}
	.st25{fill:#EAC86B;}
	.st26{fill:#E3B33B;}
	.st27{fill:#F1DF5C;}
	.st28{fill:#F2DE85;}
	.st29{fill:#D8912C;}
	.st30{fill:#DFA236;}
	.st31{fill:#CA6D2C;}
	.st32{fill:#E8BD33;}
	.st33{fill:#E3B73D;}
	.st34{fill:#D17F24;}
	.st35{fill:#DD9E32;}
	.st36{fill:#F1EA65;}
	.st37{fill:#F2E72F;}
	.st38{fill:#E2B040;}
	.st39{fill:#EEDB55;}
	.st40{fill:#E8D378;}
	.st41{fill:#E5AF42;}
	.st42{fill:#EAC940;}
	.st43{fill:#FDFDF6;}
	.st44{fill:#873A1A;}
	.st45{fill:#F3E699;}
	.st46{fill:#F0E63E;}
	.st47{fill:#D58235;}
	.st48{fill:#D37B33;}
	.st49{fill:#CF8231;}
	.st50{fill:#EBE335;}
	.st51{fill:#A34817;}
	.st52{fill:#DDAF23;}
	.st53{fill:#CD6C29;}
	.st54{fill:#EBE436;}
	.st55{fill:#F1EB31;}
	.st56{fill:#F5F4B3;}
	.st57{fill:#96401A;}
	.st58{fill:#ECD02A;}
	.st59{fill:#F6F5B6;}
	.st60{fill:#F3EDB2;}
	.st61{fill:#B1501F;}
	.st62{fill:#F5F1BA;}
	.st63{fill:#F1E1AB;}
	.st64{fill:#DA9640;}
	.st65{fill:#7F1F1A;}
	.st66{fill:#C36527;}
	.st67{fill:#B44A1B;}
	.st68{fill:#CA8E4B;}
	.st69{fill:#D8902B;}
	.st70{fill:#652F19;}
	.st71{fill:#E3AE40;}
	.st72{fill:#E1A93B;}
	.st73{fill:#C0671C;}
	.st74{fill:#B04A12;}
	.st75{fill:#D0911C;}
	.st76{fill:#F6F5C5;}
	.st77{fill:#F6F4BC;}
	.st78{fill:#D38841;}
	.st79{fill:#D07F38;}
	.st80{fill:#883A19;}
	.st81{fill:#E6B749;}
	.st82{fill:#EDE835;}
	.st83{fill:#D78A3D;}
	.st84{fill:#BB6418;}
	.st85{fill:#F8F8B6;}
	.st86{fill:#D4A160;}
	.st87{fill:#7F3A1A;}
	.st88{fill:#F0CD50;}
</style>
<g>
	<path class="st0" d="M33.76,8.49c0.85-0.14,1.49-0.05,1.74,0.77c0.09,0.28,0.31,0.32,0.55,0.39c0.96,0.28,1.12,0.96,0.77,1.78
		c-0.22,0.54-0.26,1.05-0.26,1.62c0.02,2.73-0.29,5.48-1.56,7.88c-1.5,2.83-3.85,4.86-7.21,5.34c-3.06,0.44-6.09,1.32-9.22,0.86
		c-2.74-0.41-5.52-0.6-8.17-1.54c-4.7-1.66-7.28-5.11-7.58-10.24c-0.03-0.43-0.04-0.81-0.36-1.2C0.97,12.3,1.64,9.95,3.9,9.19
		c0.65-0.22,0.82-0.33,0.49-1.03C3.27,5.77,4.76,3.14,7.36,2.63c5.19-1.03,10.4-1.48,15.7-1.14c2.83,0.18,5.64,0.29,8.28,1.41
		C34.03,4.04,34.69,5.54,33.76,8.49z"/>
	<path class="st1" d="M18.02,25.7c-3.01-0.25-5.99-0.57-8.77-1.94c-3.37-1.66-4.78-4.51-5.13-8.03c-0.09-0.95-0.05-1.81-0.88-2.58
		c-0.81-0.74-0.29-2.29,0.82-2.76c0.36-0.15,0.78-0.18,1.15-0.31c0.94-0.33,1.2-1,0.63-1.79C4.44,6.38,5.6,4,7.79,3.71
		C8.65,3.59,9.52,3.5,10.38,3.4c0.05,0.12,0.04,0.23-0.03,0.34C9.7,4.32,8.79,4.2,8.07,4.57c-0.65,0.21-1.37,0.3-1.7,1.04
		C5.82,6.61,6.01,7.52,6.73,8.35c0.34,0.39,0.78,0.69,1.01,1.17c0.1,0.4-0.21,0.57-0.45,0.77c-0.34,0.28-0.35,0.6-0.17,0.96
		c0.12,0.4,0.37,0.75,0.43,1.18c-0.01,0.21-0.11,0.4-0.19,0.59c0.09,0.73,0.73,0.99,1.19,1.4c0.33,0.29,0.74,0.47,0.99,0.85
		c0.11,0.27,0.25,0.55-0.15,0.71c-1.1-0.18-1.72-1.04-2.41-1.76c-0.46-0.48-0.83-0.48-1.26-0.04c-0.56,0.33-0.67,0.86-0.6,1.43
		c0.18,1.53,0.47,3.03,1.36,4.34c1.55,2.61,4.05,3.61,6.88,4.05c1.43,0.46,2.94,0.46,4.39,0.85C18.06,25.06,18.27,25.31,18.02,25.7z
		"/>
	<path class="st2" d="M18.02,25.7c-0.08-0.23-0.16-0.46-0.25-0.69c0.78-0.65,1.72-0.24,2.57-0.38c1.25-0.04,2.52,0.14,3.76-0.1
		c0.57-0.12,1.16-0.14,1.73-0.28c1.4-0.03,2.68-0.51,3.93-1.1c0.5-0.26,0.99-0.54,1.28-1.06c0.38-0.31,0.56-1.05,1.29-0.59
		c0.19,0.4,0.04,0.76-0.13,1.11c-1.79,2.01-4.19,2.5-6.7,2.86c-1.8,0.26-3.65,0.06-5.42,0.62C19.37,26.31,18.76,25.56,18.02,25.7z"
		/>
	<path class="st3" d="M25.35,2.89c2.27-0.07,4.39,0.53,6.41,1.5c1.17,0.56,1.52,1.99,0.91,3.31c-0.15,0.32-0.5,0.53-0.47,0.94
		c0.15,0.28,0.26,0.56,0.12,0.87c-0.19,0.32-0.52,0.21-0.8,0.27c-0.64,0.29-1.3,0.49-1.99,0.62c-0.47,0.07-0.93,0.21-1.41,0.28
		c-0.49,0.07-0.97,0.24-1.47,0.21c-0.34-0.04-0.88,0.01-0.9-0.36c-0.03-0.56,0.61-0.58,0.99-0.8c0.85-0.08,1.72-0.1,2.5-0.52
		c0.67-0.18,1.23-0.56,1.79-0.94c0.89-0.6,1.32-1.36,0.93-2.44c-0.05-0.1-0.09-0.21-0.13-0.31c-1.35-1.3-3.11-1.51-4.82-1.81
		c-0.39-0.07-0.8,0-1.19-0.11C25.52,3.48,25.25,3.33,25.14,3C25.13,2.82,25.2,2.78,25.35,2.89z"/>
	<path class="st4" d="M32.2,22.62c-0.01-0.42-0.03-0.84-0.04-1.27c-0.31-0.48,0.04-0.83,0.25-1.19c0.34-0.59,0.67-1.17,0.91-1.83
		c-0.31-0.23-0.52,0.11-0.77,0.07c-0.36-0.01-0.53-0.2-0.54-0.55c0.05-0.45,0.41-0.66,0.73-0.88c0.96-0.66,1.74-1.49,2.23-2.56
		c0.1-0.08,0.21-0.08,0.31-0.01C34.85,17.37,34.77,20.46,32.2,22.62z"/>
	<path class="st5" d="M35.29,14.41c-0.06,0-0.12,0.01-0.18,0.01c-0.25-0.1-0.26-0.38-0.43-0.58c-0.65,1.15-1.03,2.49-2.34,3.14
		c-0.47-0.02-0.61-0.31-0.59-0.73c0.03-0.24,0.14-0.45,0.26-0.66c0.39-0.53,0.9-0.97,1.18-1.59c0.36-0.6,0.31-1.21,0.05-1.84
		c-0.21-0.51-0.52-1-0.42-1.6c0.19-0.51,0.71-0.27,1.04-0.46c1.26,0.13,1.74,0.72,1.6,1.84C35.35,12.77,35.34,13.59,35.29,14.41z"/>
	<path class="st6" d="M19.7,2.68c1.88,0.13,3.78-0.18,5.65,0.2c-0.08,0.01-0.16,0.03-0.24,0.04c-0.48,0.4-1.07,0.2-1.61,0.27
		c-0.58,0.08-1.38,0-0.71,0.99c0.2,0.3,0.09,0.61-0.11,0.89C22.6,5.16,22.5,5.22,22.4,5.26c-0.18,0.08-0.38,0.1-0.57,0.16
		c-0.37,0.13-0.88,0.24-0.79,0.72c0.08,0.47,0.59,0.23,0.92,0.29c0.25,0.01,0.5,0.04,0.73,0.15c0.13,0.07,0.19,0.18,0.16,0.33
		c-1.09,0.69-2.23,0.39-3.36,0.17c-0.47-0.32-1.18-0.14-1.52-0.72c0.05-0.28,0.27-0.39,0.49-0.5c1.19,0.13,1.76-1.05,2.94-1.38
		c-1.08-0.23-1.97,0.1-2.86,0.04c-0.11-0.03-0.21-0.07-0.29-0.14c-0.01-0.78,0.68-0.83,1.13-0.88C20.19,3.43,19.7,2.99,19.7,2.68z"
		/>
	<path class="st7" d="M18.22,4.31c0.11,0.01,0.21,0.02,0.32,0.04c-0.07,0.69-0.54,0.68-1.03,0.56c-0.58-0.13-1.15-0.27-1.75-0.26
		c-0.52-0.03-1.01,0.08-1.47,0.3c-0.25,0.1-0.51,0.16-0.73,0.3c-0.32,0.12-0.39,0.68-0.88,0.52c-0.27-0.53-0.6-0.99-1.31-0.89
		c-0.28,0-0.56,0.09-0.83-0.05c-0.06-0.1-0.08-0.21-0.08-0.33c0.27-0.51,0.75-0.68,1.28-0.74c0.71,0.26,1.42,0.65,2.16,0.1
		c0.24-0.31,0.72-0.56,0.19-1.01c1.45-0.28,2.9-0.51,4.38-0.26c-0.22,0.37-0.61,0.32-0.95,0.38c-0.52,0.05-0.64,0.28-0.28,0.68
		C17.51,3.96,17.97,3.98,18.22,4.31z"/>
	<path class="st8" d="M18.22,4.31c-0.51,0.05-0.97-0.14-1.3-0.49c-0.5-0.52-0.55-0.99,0.35-1.12c0.49,0.37,0.98,0.71,1.43-0.05
		c0.34,0.01,0.67,0.02,1.01,0.02c0.21,0.31,0.72,0.35,0.78,0.87C19.68,3.68,18.86,3.74,18.22,4.31z"/>
	<path class="st9" d="M14.2,4.02c-1.08,0.65-1.94,0.55-2.48-0.29c-0.48,0.13-0.97,0.32-1.41-0.12c0.02-0.07,0.04-0.14,0.07-0.22
		C11.59,3.23,12.8,3.07,14,2.9C13.93,3.3,13.65,3.74,14.2,4.02z"/>
	<path class="st10" d="M33.85,10.12c-0.31,0.15-0.62,0.3-0.93,0.46c-0.47-0.12-0.78-0.38-0.77-0.91c0.02-0.35,0.03-0.69,0.05-1.04
		C32.88,8.97,32.94,10.02,33.85,10.12z"/>
	<path class="st11" d="M14.2,4.02c-0.36,0.08-0.79,0.11-0.9-0.3c-0.14-0.51,0.51-0.5,0.7-0.82c0,0,0.1-0.04,0.1-0.04
		C15.33,3.14,14.55,3.6,14.2,4.02z"/>
	<path class="st12" d="M18.69,2.66c0.14,0.45,0.05,0.82-0.47,0.87c-0.55,0.05-0.87-0.27-0.96-0.82c0.4-0.04,0.81-0.07,1.21-0.11
		C18.55,2.6,18.63,2.62,18.69,2.66z"/>
	<path class="st13" d="M20.42,24.97c-0.88,0.01-1.77,0.03-2.65,0.04c-1.54-0.08-3.07-0.26-4.55-0.76c-0.8-0.39-1.82-0.44-2.21-1.44
		c0.37-0.35,0.7-0.74,0.11-1.14c-0.63-0.42-1.28-1.01-2.12-0.42c-0.15,0.11-0.2,0.34-0.39,0.43C8,20.75,7.12,19.96,7.13,18.73
		c0.88-0.65,1.65-1.55,2.93-1.34c0.87,0.72,1.15,1.76,1.54,2.75c0.1,0.49,0.5,0.66,0.9,0.84c2.11,1.72,4.48,2.89,7.16,3.42
		C19.97,24.47,20.42,24.44,20.42,24.97z"/>
	<path class="st14" d="M6.22,5.52c0.14-1.03,1.04-0.93,1.72-1.17c0.18,0.31,0.33,0.64,0.54,0.93c1.06,1.39,2.69,1.33,4.17,1.6
		c0.5,0.09,1.03,0.01,1.53,0.16c2.66,0.13,5.32,0.15,7.98,0.15c0.89,0,1.76-0.47,2.69-0.23c1.36,0.47,1.36,0.47,0.82,1.37
		c-0.97,0.35-1.98,0.13-2.97,0.18c-0.52,0.03-1.04-0.01-1.54,0.16c-3.84,0.3-7.65-0.05-11.43-0.73C8.79,7.77,7.9,7.39,7.07,6.9
		C6.78,6.73,6.52,6.53,6.36,6.23C6.24,6.01,6.2,5.77,6.22,5.52z"/>
	<path class="st15" d="M6.49,6.04c0.15,0.17,0.31,0.33,0.46,0.5c0.9,1.65,2.02,3.03,3.94,3.57c0.55,0.15,0.99,0.52,0.47,1.13
		c-0.78,0.91-0.99,2.07-1.4,3.13c-1.4,0.13-1.87-0.98-2.49-1.88c-0.22-0.37-0.6-0.67-0.51-1.17c0.02-0.5,0.32-0.85,0.66-1.16
		c0.37-0.34,0.21-0.59-0.09-0.84C6.78,8.64,6.41,7.77,6.2,6.83C6.14,6.55,5.83,6.09,6.49,6.04z"/>
	<path class="st16" d="M7.2,18.74c0.18,1.11,1.39,1.71,1.45,2.88c0.84,0.33,1.66,0.69,2.4,1.22c0.67,0.56,1.57,0.76,2.18,1.41
		c-2.65-0.49-5.18-1.18-6.63-3.79c-0.07-0.13-0.24-0.2-0.36-0.31c-0.15-0.59-0.41-1.16-0.4-1.78c0.1-0.31,0.31-0.53,0.6-0.66
		C7.07,17.78,7.17,18.23,7.2,18.74z"/>
	<path class="st17" d="M5.77,13.91c0.32-0.61,0.65-0.7,1.15-0.14c0.72,0.8,1.49,1.55,2.44,2.09c0.88,0.15,1.59,0.68,2.35,1.08
		c2.23,1.18,4.6,1.88,7.07,2.31c0.37,0.26,1.13-0.08,1.14,0.74c-0.85,0.52-1.67,0.03-2.51-0.05c-2.04-0.47-4.14-0.73-6.01-1.77
		c-0.45-0.25-0.9-0.49-1.28-0.85c-1.45-0.81-2.71-1.89-4.07-2.82c-0.16-0.06-0.28-0.16-0.36-0.31C5.66,14.09,5.69,13.99,5.77,13.91z
		"/>
	<path class="st18" d="M5.77,13.91c0.02,0.1,0.03,0.19,0.05,0.29c0.48,1.35,0.33,2.73,0.14,4.1c0.05,0.63,0.46,1.2,0.28,1.86
		c-0.95-1.53-1.31-3.23-1.46-5.01C4.72,14.34,5.02,13.98,5.77,13.91z"/>
	<path class="st19" d="M18.74,19.46c-3.43-0.39-6.54-1.64-9.37-3.6c0.27-0.16,0.02-0.33,0.01-0.49c0.28-0.25,0.53-0.08,0.79,0.06
		c0.24,0.15,0.46,0.33,0.66,0.54c1.11,0.91,2.44,1.37,3.79,1.78c1.47,0.66,3.12,0.75,4.58,1.46C19.23,19.64,19.02,19.62,18.74,19.46
		z"/>
	<path class="st20" d="M5.78,10.82c0.08,0.07,0.16,0.15,0.24,0.22c0.19,1.47-0.27,1.94-1.75,1.81c-0.23-0.02-0.45-0.11-0.69-0.09
		c-0.28-1.4,0.4-2.27,1.74-2.21C5.26,11.02,5.49,10.97,5.78,10.82z"/>
	<path class="st21" d="M7.46,12.49c0.83,0.61,1.42,1.5,2.37,1.96c0.83,0,1.36,0.7,2.09,0.93c0.48,0.3,1.1,0.4,1.36,0.99
		c-0.02,0.2-0.14,0.31-0.32,0.37c-1.1,0.08-1.85-0.63-2.68-1.17c-1.16-0.71-2.42-1.3-3.07-2.61C7.22,12.76,7.27,12.59,7.46,12.49z"
		/>
	<path class="st22" d="M8.21,5.07C7.83,4.94,7.73,4.71,7.94,4.35c0.7-0.54,1.62-0.38,2.38-0.74c0.47,0.07,0.95-0.11,1.41,0.12
		c-0.2,0.54-0.8,0.53-1.16,0.86C9.89,5.29,9.01,4.96,8.21,5.07z"/>
	<path class="st23" d="M6.49,6.04C6.39,7.33,6.97,8.38,7.7,9.37C7.8,9.5,7.78,9.62,7.65,9.71C6.71,8.8,5.62,7.97,5.74,6.45
		C5.77,6.09,5.62,5.6,6.22,5.52C6.44,5.62,6.49,5.82,6.49,6.04z"/>
	<path class="st24" d="M4.04,12.51c1.42,0.33,1.89-0.02,1.98-1.47c0.54,0.8,0.18,1.49-0.3,2.12c-0.28,0.36-0.66,0.73-1.17,0.27
		C4.33,13.15,3.95,12.96,4.04,12.51z"/>
	<path class="st25" d="M7.22,12.96c0.91,0.97,1.97,1.77,3.1,2.46c0.03,0.22-0.02,0.34-0.27,0.24c-0.22-0.09-0.44-0.19-0.66-0.28
		C8.5,14.79,7.73,14.09,7,13.32C6.53,12.84,7,12.99,7.22,12.96z"/>
	<path class="st26" d="M7.65,9.71C7.67,9.6,7.68,9.49,7.7,9.37c0.45,0.28,0.61,0.56,0.1,0.98c-0.33,0.27-0.57,0.64-0.85,0.96
		C5.92,10.24,7.24,10.17,7.65,9.71z"/>
	<path class="st27" d="M5.78,10.82c-0.01,0.33-0.12,0.61-0.5,0.64c-0.21,0.02-0.37-0.13-0.41-0.33c-0.06-0.33,0.21-0.45,0.45-0.58
		C5.47,10.65,5.62,10.73,5.78,10.82z"/>
	<path class="st28" d="M4.04,12.51c0.16,0.31,0.55,0.5,0.51,0.92c-0.49,0.03-0.78-0.25-0.97-0.66C3.66,12.55,3.83,12.5,4.04,12.51z"
		/>
	<path class="st29" d="M10.1,17.02c1.92,1.4,4.15,2,6.44,2.42c0.27,0.05,0.56,0.02,0.78,0.25c0.21,1.16,0.97,1.95,1.84,2.64
		c0.75,0.59,1.63,1,2.24,1.77c0.31,0.39,0.78,0.31,1.22,0.35c0.57,0.05,1.21-0.18,1.69,0.33c-1.28,0.39-2.59,0.15-3.89,0.2
		c-0.75-0.21-1.5-0.43-2.25-0.62c-2.26-0.59-4.21-1.75-5.97-3.26c-0.1-0.5-0.5-0.58-0.9-0.66c-0.08-1.1-0.82-1.93-1.22-2.89
		C9.93,17.36,9.49,17.17,10.1,17.02z"/>
	<path class="st30" d="M24.31,24.77c-2.77,0.63-4.25-1.54-6.1-2.86c-0.61-0.43-0.79-1.24-1.3-1.82c-0.52-0.59,0.25-0.27,0.41-0.41
		c0.87,0.08,1.74,0.15,2.61,0.23c0.37-0.27,0.71-0.28,1.01,0.11c-0.16,0.44-0.44,0.42-0.78,0.2c0.07,0.28,0.36,0.28,0.54,0.42
		c2.87,2.22,4.59,2.17,7.27-0.22c0.53-0.48,1.01-0.6,1.56-0.11c0.2,0.34,0,0.62-0.17,0.87c-0.93,1.32-1.84,2.67-3.41,3.33
		C25.42,24.74,24.87,24.76,24.31,24.77z"/>
	<path class="st31" d="M25.94,24.51c1.39-1.2,2.68-2.48,3.58-4.1c-0.25-0.39-0.05-0.72,0.16-1.04c0.55-0.42,1.1-0.83,1.86-0.61
		c0.3,1.12,0.73,2.26-0.33,3.24c-0.26,0.56-0.94,0.75-1.17,1.34C28.74,23.97,27.44,24.59,25.94,24.51z"/>
	<path class="st32" d="M30.97,22.08c1.06-0.97,0.32-2.22,0.51-3.33c0.11-0.74,0.92,0.04,1.12-0.52c0.37-0.27,0.73-0.54,1.25-0.92
		c-0.09,1.71-1.25,2.72-1.68,4.03c-0.33,0.32-0.65,0.65-0.98,0.97C31,22.34,30.87,22.31,30.97,22.08z"/>
	<path class="st33" d="M30.97,22.08c0.07,0.08,0.14,0.16,0.21,0.24c-0.27,0.47-0.66,0.79-1.14,1.01
		C29.96,22.63,30.65,22.49,30.97,22.08z"/>
	<path class="st34" d="M11.78,15.6c-0.72-0.27-1.35-0.68-1.95-1.15c0.03-1.45,0.6-2.68,1.65-3.78C9.36,9.88,7.38,9.04,6.95,6.54
		c2.39,1.23,4.99,1.45,7.62,1.67c2.19,0.18,4.37,0.17,6.55,0.19c1.5-0.22,3-0.06,4.5-0.09c0.71-0.01,1.08,0.59,1.52,1.03
		c0.12,0.25,0,0.39-0.22,0.5c-0.28,0.28-0.57,0.54-1.03,0.57c0.24,0.28,0.53,0.11,0.77,0.18c-0.14,0.66-0.71,0.55-1.14,0.61
		c-2.94,0.41-5.9,0.24-8.85,0.16c-1.28-0.43-2.63-0.04-4.12-0.44c0.62,0.98,1.03,1.86,1.16,2.83C13.96,15.54,13.47,16.02,11.78,15.6
		z"/>
	<path class="st35" d="M16.34,11.05c2.39,0,4.79,0.03,7.18-0.01c1.05-0.02,2.12-0.1,3.13-0.45c0.48-0.06,0.96-0.13,1.43-0.19
		c0.37,0.84,0.11,1.54-0.44,2.19c-0.18,0.13-0.41,0.19-0.59,0.32c-0.34,0.87-1.01,1.07-1.89,1.13c-1.61,0.12-3.24,0.21-4.78,0.83
		c-0.81,0.33-1.49,0.75-1.79,1.6c-0.27,0.75-0.78,1.17-1.57,1.25c-1.06-0.14-2.1-0.33-2.94-1.05c0-0.16,0.02-0.38,0.18-0.4
		c1.25-0.15,1.35-1.19,1.6-2.08c0.25-0.87,0.59-1.78-0.31-2.53c-0.17-0.14-0.35-0.43-0.11-0.61C15.7,10.84,16.04,10.88,16.34,11.05z
		"/>
	<path class="st36" d="M25.7,8.16c0.55-0.93-0.56-0.54-0.72-0.9c0.09-0.24,0.29-0.36,0.51-0.45c0.84-0.15,1.71-0.17,2.52-0.44
		c0.44-0.14,1.03-0.16,1.11-0.82c-0.79-0.73-1.83-0.59-2.76-0.79c-0.28-0.25-1.18,0.02-0.71-0.85c2.08-0.39,4.01-0.14,5.59,1.42
		c0.15,0.3,0.18,0.58-0.16,0.8c0.4-0.09,0.72-0.38,1.13-0.39c0.48,0.99,0.2,1.85-0.61,2.48c-0.67,0.52-1.37,1.05-2.26,1.2
		c-0.23,0.1-0.32-0.02-0.35-0.22c0.54-0.75,1.61-0.87,2.11-1.83c-1.38,0.39-2.71,0.68-4.06,0.92C26.59,8.36,26.12,8.54,25.7,8.16z"
		/>
	<path class="st37" d="M22.61,5.06c-0.03-0.33,0.22-0.67-0.18-0.97c-1.15-0.85,0-1.02,0.44-1.1c0.73-0.14,1.5-0.05,2.25-0.06
		c0.21,0.14,0.42,0.29,0.62,0.43c0.07,0.09,0.08,0.19,0.04,0.3c-0.31,0.49-0.87,0.27-1.28,0.47c-0.14,0.06-0.39,0.14-0.36,0.24
		c0.07,0.26,0.31,0.09,0.46,0.06c0.15-0.03,0.28-0.14,0.43-0.18c0.33,0.03,0.53,0.27,0.75,0.46c0.07,0.11,0.11,0.24,0.12,0.37
		c-0.05,0.78-0.59,0.98-1.23,0.98C23.81,6.08,22.97,6.05,22.61,5.06z"/>
	<path class="st38" d="M27.62,12.5c0.16-0.7,0.32-1.4,0.47-2.1c0.5-0.01,0.92-0.43,1.45-0.27c0.69,0.26,1.08,0.83,1.42,1.44
		c0.14,0.33,0.51,0.63,0.15,1.04C29.94,12.89,28.77,13.07,27.62,12.5z"/>
	<path class="st39" d="M32.15,9.66c0.26,0.3,0.51,0.61,0.77,0.91c0.23,1.12,1.32,2.06,0.69,3.35c-0.05,0.1-0.14,0.18-0.21,0.27
		c-0.21,0.08-0.33-0.05-0.43-0.2c-0.15-0.44-0.39-0.84-0.54-1.28c0.17-1.08-0.74-1.5-1.31-2.12c-0.02-0.44,0.08-0.84,0.36-1.19
		C31.77,9.31,31.93,9.57,32.15,9.66z"/>
	<path class="st40" d="M25.67,3.69c0.02-0.11,0.04-0.22,0.06-0.33c1.96-0.08,3.78,0.41,5.53,1.25c0.4,0.19,0.95,0.32,0.92,0.95
		c-0.3,0.21-0.61,0.25-0.9-0.01c-1.6-1.49-3.54-1.68-5.59-1.45C25.55,3.96,25.57,3.83,25.67,3.69z"/>
	<path class="st41" d="M31.48,9.41c-0.08,0.41,0.14,0.88-0.27,1.22c-0.17,0.31-0.08,0.8-0.58,0.9c-0.36-0.47-0.72-0.94-1.08-1.41
		C30.18,9.88,30.91,9.85,31.48,9.41z"/>
	<path class="st42" d="M29.07,9.15c0.09,0.09,0.19,0.18,0.28,0.27c-0.74,0.52-1.56,0.64-2.43,0.42c0.07-0.08,0.14-0.15,0.21-0.23
		C27.58,8.64,28.26,8.64,29.07,9.15z"/>
	<path class="st43" d="M31.27,5.55c0.3,0,0.6,0.01,0.9,0.01c0.01,0.06,0.03,0.12,0.04,0.18c-0.29,0.75-1.03,0.4-1.57,0.77
		C30.76,6.01,31.3,5.98,31.27,5.55z"/>
	<path class="st44" d="M32.59,18.24c0.02,0.27,0.12,0.63-0.18,0.74c-0.34,0.13-0.1-0.36-0.32-0.44c-0.28-0.1-0.43,0.1-0.62,0.22
		c-0.57,0.24-1.14,0.48-1.71,0.72c-0.99,0.79-2.2,0.75-3.36,0.93c-1.46,0.22-2.92,0.12-4.38,0.12c-0.39,0-0.8-0.03-1.08-0.37
		c-0.29-0.26-0.68-0.15-1.01-0.25c-0.3-0.42-0.91,0-1.19-0.45c0.16-0.06,0.32-0.13,0.48-0.19c0.04-0.05,0.08-0.1,0.13-0.15
		c0.72-0.2,1.43,0.09,2.14,0.08c3,0.42,5.91,0.03,8.77-0.87c0.66-0.14,1.17-0.77,1.93-0.56C32.19,18.05,32.29,18.23,32.59,18.24z"/>
	<path class="st45" d="M32.19,17.77c-0.57,0.26-1.13,0.51-1.7,0.77c-0.51-0.29-0.05-0.45,0.09-0.64c0.25-0.19,0.52-0.34,0.77-0.54
		c0.28-0.34,0.72-0.37,1.09-0.54c0.89-1.14,1.92-2.2,2-3.83c0.69,0.34,0.64,0.9,0.67,1.43C34.8,16.12,33.35,16.83,32.19,17.77z"/>
	<path class="st46" d="M32.62,12.64c0.19,0.43,0.64,0.76,0.52,1.31c-0.26,0.11-0.46-0.06-0.7-0.16c0.08,0.64,0.09,1.27-0.2,1.86
		c-0.08,0.16-0.15,0.32-0.23,0.48c-1.34,0.48-0.64-0.66-0.87-1.07c-0.05-0.46,0.15-0.94-0.15-1.45c-0.74,0.24-1.26,0.8-1.87,1.21
		c-0.23,0.15-0.52,0.32-0.74,0.04c-0.16-0.21,0.03-0.44,0.15-0.64c0.24-0.4,0.71-0.61,0.91-1.09c-0.57-0.18-1.13-0.02-1.66-0.11
		c-0.33-0.06-0.86,0.14-0.85-0.51c0.23,0,0.46-0.01,0.69-0.01c1.19-0.11,2.41,0.24,3.58-0.19C31.76,12.04,32.17,12.41,32.62,12.64z"
		/>
	<path class="st47" d="M31.43,14.92c0.27,0.37-0.54,1.24,0.57,1.21c-0.06,0.36-0.06,0.68,0.44,0.69c-0.34,0.24-0.68,0.48-1.02,0.72
		c-0.13-0.59-0.71-0.23-1-0.48c-0.05-0.1-0.08-0.21-0.09-0.33C30.65,16.1,30.39,15.12,31.43,14.92z"/>
	<path class="st48" d="M32.23,15.65c0-0.74,0-1.49,0-2.25c0.44,0,0.59,0.42,0.91,0.55c0.09,0.08,0.18,0.17,0.27,0.25
		C33.09,14.75,32.74,15.27,32.23,15.65z"/>
	<path class="st49" d="M34.18,11.47c-0.07-0.28,0.07-0.41,0.28-0.41c0.33,0,0.48,0.22,0.51,0.52c0.03,0.22-0.07,0.41-0.3,0.41
		C34.35,11.99,34.28,11.69,34.18,11.47z"/>
	<path class="st50" d="M15.63,4.4c0.62-0.09,1.23-0.03,1.82,0.19c0.4,0.15,0.83,0.31,1.09-0.24c1.14-0.28,2.28-0.38,3.48-0.01
		c-1.32,0.33-1.89,2.09-3.54,1.7c-1.32-0.11-2.64,0.15-3.96,0.02c-0.55-0.05-1.25-0.1-1.09-1c0.2-0.23,0.48-0.25,0.75-0.31
		C14.75,4.98,15.3,5.13,15.63,4.4z"/>
	<path class="st51" d="M25.49,7.05c-0.17,0.07-0.34,0.14-0.51,0.21c-3.24,0.09-6.48,0.33-9.72,0.2c-0.47-0.02-0.96,0.07-1.39-0.2
		c0.17-0.28,0.47-0.35,0.75-0.45c0.24-0.07,0.48-0.1,0.72-0.12c0.12-0.01,0.25-0.02,0.37-0.02c0.19-0.01,0.38-0.01,0.57-0.01
		c1.05-0.1,2.08,0.16,3.13,0.09c1.14,0.42,2.28,0.33,3.43,0.04c0.2-0.4,0.56-0.48,0.96-0.45c0.49,0.11,1.01,0.05,1.48,0.26
		C25.46,6.69,25.59,6.82,25.49,7.05z"/>
	<path class="st52" d="M23.77,6.49c-0.31,0.1-0.62,0.19-0.92,0.29c-0.11-0.02-0.21-0.04-0.32-0.06c-0.12-0.33-0.02-0.7-0.17-1.03
		c-0.06-0.2-0.14-0.39-0.05-0.6c0.1-0.01,0.19-0.02,0.29-0.03c0.63,0.53,1.34,0.78,2.19,0.73c0.66-0.04,0.94-0.33,0.9-0.96
		c0.54-0.14,1.05-0.1,1.49,0.29C27,5.61,26.86,6.12,26.62,6.6c-0.54,0.27-0.98-0.11-1.45-0.22C24.69,6.29,24.23,6.34,23.77,6.49z"/>
	<path class="st53" d="M16.12,6.96c-0.17,0-0.34,0-0.51,0.01c-0.14-0.27,0.11-0.43,0.18-0.65c-0.48-0.06-0.92,0.08-1.38,0.17
		c-0.59,0.08-1.15-0.08-1.7-0.26c-0.11-0.05-0.2-0.13-0.27-0.22c0-0.13,0.06-0.21,0.18-0.26c0.43-0.04,0.29-0.74,0.8-0.68
		c0.41,0.97,1.3,0.73,2.02,0.68c1.04-0.08,2.06-0.21,3.03,0.3c-0.17,0.08-0.34,0.16-0.5,0.24C17.34,6.46,16.67,6.55,16.12,6.96z"/>
	<path class="st54" d="M16.12,6.96c0.43-0.74,1.03-1,1.85-0.68c0.48,0.15,0.97,0.31,1.45,0.46C18.35,7.19,17.22,6.9,16.12,6.96z"/>
	<path class="st55" d="M22.31,5.09c0.08,0.17,0.16,0.34,0.25,0.51c-0.47,0.22-0.61,0.64-0.65,1.11C21.39,6.72,20.54,7,20.56,6.26
		C20.58,5.35,21.46,5.09,22.31,5.09z"/>
	<path class="st56" d="M21.91,6.71c-0.55-0.82-0.43-1.25,0.65-1.11c0.38,0.38,0.36,0.76-0.03,1.12C22.32,6.71,22.11,6.71,21.91,6.71
		z"/>
	<path class="st57" d="M14.65,7.01c-0.2,0.26-0.51,0.18-0.78,0.24c-1.65,0.04-3.24-0.24-4.75-0.91c-0.5-0.23-1.21-0.41-0.91-1.26
		c0.69-0.61,1.61-0.11,2.36-0.48c-0.01,0.06-0.02,0.13-0.02,0.19c0.06,0.43-0.49,0.61-0.44,1.04c0.78,0.51,1.73-0.06,2.5,0.41
		C13.18,6.77,14.08,6.46,14.65,7.01z"/>
	<path class="st58" d="M12.51,6.22c-0.7,0.03-1.4,0.27-2.11,0.06C10.1,6.2,9.68,6.32,9.55,5.98c-0.17-0.44,0.32-0.57,0.54-0.82
		c0.13-0.15,0.3-0.26,0.46-0.38c0.26-0.06,0.52-0.12,0.78-0.18c0.28,0.53,0.49,1.11,1.1,1.38c0.04,0.03,0.06,0.06,0.06,0.11
		C12.49,6.13,12.5,6.18,12.51,6.22z"/>
	<path class="st59" d="M12.42,5.97c-1.16,0.17-1.28-0.48-1.1-1.38c0.71,0.07,1.73-0.21,1.31,1.15C12.56,5.82,12.49,5.9,12.42,5.97z"
		/>
	<path class="st60" d="M15.63,4.4c0.23,0.28,0.37,0.6-0.05,0.78c-0.55,0.24-1.1,0.25-1.41-0.42C14.58,4.31,15.11,4.36,15.63,4.4z"/>
	<path class="st61" d="M10.1,17.02c-0.28,0.16-0.03,0.34-0.02,0.51c-1.17-0.11-1.81,1.07-2.88,1.2c-0.23-0.32-0.47-0.64-0.7-0.96
		c-0.95-1.01-0.59-2.19-0.47-3.35c0.19,0,0.23-0.55,0.51-0.16C7.46,15.52,8.91,16.1,10.1,17.02z"/>
	<path class="st62" d="M11.05,22.84c-0.96-0.08-1.78-0.47-2.4-1.22c-0.2-0.8,0.13-1.11,0.92-0.97c0.67,0.12,1.28,0.39,1.82,0.81
		c0.29,0.22,0.55,0.51,0.5,0.89C11.82,22.8,11.38,22.76,11.05,22.84z"/>
	<path class="st63" d="M11.3,20.42c0.29-0.22,0.59-0.38,0.93-0.12c0.34,0.27,0.17,0.53-0.03,0.78
		C11.74,21.09,11.43,20.88,11.3,20.42z"/>
	<path class="st64" d="M29.07,9.15c-0.68,0.02-1.37-0.01-1.94,0.46c-1.7-1.9-3.97-0.97-6.01-1.21c1.51-0.47,3.06-0.07,4.58-0.24
		c2.01-0.19,3.95-0.7,5.88-1.27C31.44,7.93,30.8,8.5,29.07,9.15z"/>
	<path class="st65" d="M6.03,14.42C5.98,15.57,6,16.71,6.5,17.77c-0.1,0.25-0.29,0.42-0.54,0.52c-0.39-1.36-0.24-2.73-0.14-4.1
		C5.89,14.27,5.96,14.35,6.03,14.42z"/>
	<path class="st66" d="M19.22,19.27c-1.66-0.2-3.24-0.71-4.8-1.27c-0.29-0.2-0.65-0.34-0.61-0.79c0.04-0.12,0.11-0.21,0.22-0.26
		c0.77,0.1,1.5,0.33,2.22,0.63c0.9,0.65,2.11,0.44,3,1.11c0.1,0.18,0.11,0.35-0.04,0.51L19.22,19.27z"/>
	<path class="st67" d="M13.94,17.31c0.16,0.23,0.32,0.46,0.48,0.68c-1.36-0.49-2.8-0.82-3.85-1.94
		C11.77,16.27,12.89,16.68,13.94,17.31z"/>
	<path class="st68" d="M13.94,17.31c-1.22-0.16-2.21-0.94-3.37-1.25c-0.17-0.13-0.35-0.27-0.52-0.4c0.09-0.08,0.18-0.16,0.27-0.24
		c0.88,0.37,1.65,0.98,2.59,1.21c0.38,0.06,0.82,0,1.02,0.47C13.93,17.17,13.94,17.24,13.94,17.31z"/>
	<path class="st69" d="M16.34,11.05c-0.26,0.02-0.53,0.04-1.18,0.1c1.93,0.85,1.29,2.07,0.98,3.22c-0.29,1.07-0.43,2.28-1.98,2.26
		c-0.41,0.23-0.68-0.03-0.95-0.27c-0.47-0.25-0.95-0.5-1.42-0.75c1.81-0.1,1.96-0.35,1.49-2.32c-0.19-0.82-0.38-1.62-1.18-2.1
		c-0.11-0.06-0.19-0.26-0.19-0.38c0.01-0.2,0.24-0.25,0.36-0.2C13.6,11.05,15.03,10.51,16.34,11.05z"/>
	<path class="st70" d="M13.21,16.36c0.32,0.09,0.64,0.18,0.95,0.27c0.97,0.29,1.94,0.58,2.91,0.88c0.41-0.14,0.74-0.01,1.01,0.3
		c0.02,0.14-0.03,0.25-0.15,0.32c-0.66,0.09-1.25-0.12-1.83-0.39c-0.72-0.21-1.44-0.43-2.16-0.64c-0.34-0.16-0.68-0.31-1.02-0.47
		C13.01,16.54,13.11,16.45,13.21,16.36z"/>
	<path class="st71" d="M20.94,20.15c2.38,0.14,4.76,0.01,7.12-0.24c0.58-0.06,1.13-0.29,1.7-0.44c-0.08,0.31-0.17,0.62-0.25,0.93
		c-0.6-0.24-1-0.16-1.51,0.4c-2.02,2.23-5.16,2.28-7.33,0.22c-0.25-0.24-0.51-0.48-0.85-0.81C20.26,20.2,20.6,20.18,20.94,20.15z"/>
	<path class="st72" d="M18.01,17.82c-0.31-0.11-0.62-0.21-0.93-0.32c0.66-0.22,1.11-0.57,1.3-1.33c0.19-0.77,0.85-1.19,1.58-1.51
		c1.44-0.63,2.99-0.8,4.51-0.92c1.06-0.08,2.04-0.03,2.46-1.24c1,0.54,2.12,0,3.32,0.39c-0.72,0.56-1.38,1.07-2.04,1.58
		c0.12,0.13,0.23,0.25,0.35,0.38c0.62-0.45,1.22-0.92,1.86-1.34c0.25-0.16,0.5-0.54,0.82-0.4c0.4,0.18,0.18,0.64,0.21,0.97
		c0.03,0.28-0.01,0.56-0.01,0.84c-0.69,0.45-0.44,1.35-0.93,1.89c-0.39,0.49-0.88,0.43-1.41,0.27c-1.14-0.36-2.31-0.61-3.51-0.67
		c-1.24-0.05-2.39,0.19-3.4,0.91c-0.81,0.57-1.75,0.75-2.69,0.91C18.92,18.35,18.41,18.25,18.01,17.82z"/>
	<path class="st73" d="M27.1,5.38c-0.31-0.6-1.02-0.17-1.41-0.56c0,0,0.01-0.01,0.01-0.01c0.07-0.6,0.47-0.29,0.76-0.28
		c1.13,0.02,2.24,0.1,3.1,0.98c-0.46,0.74-1.22,0.84-1.99,0.91C27.18,6.19,27.29,5.71,27.1,5.38z"/>
	<path class="st74" d="M27.34,6.24C28.15,6.22,28.9,6,29.56,5.52c0.16,0.62-0.4,0.68-0.73,0.84C27.79,6.88,26.64,7,25.49,7.05
		c-0.09-0.11-0.19-0.21-0.28-0.32c-0.18-0.24-0.19-0.47,0.01-0.7c0.48,0.18,0.9,0.53,1.46,0.41C26.88,6.28,27.07,6.12,27.34,6.24z"
		/>
	<path class="st75" d="M26.46,4.54C26.2,4.6,25.88,4.51,25.7,4.81c-0.25-0.15-0.49-0.29-0.74-0.44c-0.2,0.09-0.38,0.08-0.5-0.11
		c-0.1-0.15-0.04-0.29,0.09-0.39c0.37-0.06,0.74-0.12,1.11-0.18c0,0.14,0.01,0.27,0.01,0.41C25.72,4.63,26.32,4.18,26.46,4.54z"/>
	<path class="st76" d="M24.56,3.87c-0.1,0.36,0.14,0.44,0.41,0.5c-0.52,0.53-0.52,0.53-1.68,0.23C23.69,4.23,23.97,3.82,24.56,3.87z
		"/>
	<path class="st77" d="M32.62,12.64c-0.54,0.18-0.94-0.25-1.42-0.34c-0.29-0.18-0.47-0.44-0.57-0.77c0.1-0.36,0.07-0.81,0.58-0.9
		C32.35,10.83,32.88,11.46,32.62,12.64z"/>
	<path class="st78" d="M30.73,17.99c0.03,0.23-0.56,0.19-0.24,0.55c-2.96,1.1-5.99,1.42-9.11,0.93c-0.45-0.56-1.38,0.11-1.73-0.69
		c0.13-0.25,0.35-0.36,0.61-0.42c0.91-0.03,1.78,0.38,2.7,0.28c2.2,0.18,4.31-0.37,6.43-0.81C29.86,17.74,30.32,17.64,30.73,17.99z"
		/>
	<path class="st79" d="M19.69,18.75c0.41,0.59,1.44-0.28,1.69,0.71c-0.75,0.09-1.45-0.15-2.16-0.28c0-0.14-0.01-0.28-0.01-0.41
		C19.36,18.61,19.52,18.61,19.69,18.75z"/>
	<path class="st80" d="M30.73,17.99c-2.26,0.18-4.4,1.11-6.71,0.96c-0.4-0.03-0.8-0.03-1.19-0.04c-0.06-0.3,0.1-0.47,0.34-0.59
		c0.18-0.07,0.36-0.11,0.55-0.12c1.97,0.07,3.86-0.31,5.73-0.89c0.38,0.04,0.68-0.24,1.05-0.23c0.41-0.04,1.23-0.88,0.92,0.47
		C31.19,17.69,30.96,17.84,30.73,17.99z"/>
	<path class="st81" d="M23.55,18.46c-0.17,0.02-0.34,0.05-0.5,0.07c-1.27,0.32-2.45,0.08-3.59-0.52c1.32-0.17,2.37-0.96,3.54-1.49
		c2.05-0.92,4.12-0.37,6.13,0.26c0.5,0.16,0.9,0.14,1.36,0.04c0,0.08,0.01,0.17,0.01,0.25c-0.25,0.14-0.5,0.29-0.75,0.43
		C27.71,17.96,25.63,18.19,23.55,18.46z"/>
	<path class="st82" d="M12.51,6.22c0-0.05,0-0.09-0.02-0.14c0.65-0.1,1.26,0.15,1.89,0.21c0.37,0.14,0.97-0.06,0.96,0.64
		c-0.23,0.02-0.45,0.05-0.68,0.07C13.96,6.68,12.87,7.45,12.51,6.22z"/>
	<path class="st83" d="M15.33,6.94c-0.32-0.21-0.64-0.43-0.96-0.64c0.55-0.38,1.15-0.28,1.77-0.25c0,0.47-0.43,0.59-0.53,0.92
		C15.52,6.96,15.43,6.95,15.33,6.94z"/>
	<path class="st84" d="M25.22,6.03c0,0.23-0.01,0.47-0.01,0.7c-0.48-0.08-1.02,0.21-1.43-0.24C24.02,5.6,24.74,6.19,25.22,6.03z"/>
	<path class="st85" d="M27.34,6.24c-0.21,0.09-0.37,0.34-0.65,0.2c-0.05-0.43-0.73-1.1,0.41-1.06C27.33,5.62,28.08,5.72,27.34,6.24z
		"/>
	<path class="st86" d="M19.69,18.75c-0.16,0.01-0.33,0.01-0.49,0.02c-1.04-0.34-2.22-0.25-3.11-1.03c0.64,0.09,1.29,0.19,1.93,0.28
		c0.72,0.19,1.52,0.01,2.16,0.53C20.01,18.62,19.85,18.69,19.69,18.75z"/>
	<path class="st87" d="M20.17,18.56c-0.73-0.14-1.48-0.17-2.16-0.53c-0.01-0.07-0.01-0.13-0.01-0.2c0.48,0.06,0.97,0.12,1.45,0.18
		c1.2,0.17,2.39,0.35,3.59,0.52c-0.07,0.13-0.15,0.25-0.22,0.38C21.9,19.13,21.06,18.64,20.17,18.56z"/>
	<path class="st88" d="M23.55,18.46c0.16-0.32,0.43-0.45,0.78-0.44c1.71,0.03,3.37-0.23,5.01-0.68c0.11-0.03,0.27,0.1,0.41,0.16
		C27.75,18.24,25.7,18.67,23.55,18.46z"/>
</g>
</svg>
