<?xml version="1.0" encoding="utf-8"?>
<!-- Generator: Adobe Illustrator 23.0.2, SVG Export Plug-In . SVG Version: 6.00 Build 0)  -->
<svg version="1.1" id="Camada_1" xmlns="http://www.w3.org/2000/svg" xmlns:xlink="http://www.w3.org/1999/xlink" x="0px" y="0px"
	 viewBox="0 0 27.86 31.6" style="enable-background:new 0 0 27.86 31.6;" xml:space="preserve">
<style type="text/css">
	.st0{fill:#FEFEFE;}
	.st1{fill:#0D090C;}
	.st2{fill:#A35A02;}
	.st3{fill:#1B78BA;}
	.st4{fill:#1C7BBE;}
	.st5{fill:#1D79BB;}
	.st6{fill:#1E8DDB;}
	.st7{fill:#6EAFD8;}
	.st8{fill:#FDBA00;}
	.st9{fill:#6EAED8;}
	.st10{fill:#6EADD7;}
	.st11{fill:#FDBA01;}
	.st12{fill:#6BDEE9;}
	.st13{fill:#FDBB00;}
	.st14{fill:#6DDAF0;}
	.st15{fill:#6DD9EF;}
	.st16{fill:#FCBC00;}
	.st17{fill:#FBBA00;}
	.st18{fill:#F89200;}
	.st19{fill:#FA9200;}
	.st20{fill:#6CD9EF;}
	.st21{fill:#6DD2EA;}
	.st22{fill:#F7F1E9;}
	.st23{fill:#6EB2DC;}
	.st24{fill:#FA9601;}
	.st25{fill:#F29E01;}
	.st26{fill:#F4ECE1;}
	.st27{fill:#6EDAF0;}
	.st28{fill:#70DDF2;}
</style>
<g>
	<path class="st0" d="M14.04,31.22c-2.47,0.1-5.39,0.21-8.3,0.36c-1.14,0.06-2.27,0.01-3.3-0.42c-1.5-0.63-2.25-1.92-2.28-3.51
		C0.07,22.37,0,17.1,0,11.83c0-2.33,1.09-3.58,3.41-4.05c0.75-0.15,0.64-0.4,0.52-0.94C3.3,4.01,4.2,1.73,6.5,0.65
		c2.31-1.08,4.63-0.79,6.71,0.62c0.99,0.67,1.64,0.86,2.85,0.21c3.86-2.1,7.5,0.2,7.54,4.66c0.01,1.1,0.07,1.73,1.39,2.01
		c1.66,0.35,2.94,2.54,2.88,4.4c-0.17,4.94-0.3,9.89-0.56,14.83c-0.13,2.34-0.93,3.97-4.06,3.85C20.32,31.12,17.4,31.22,14.04,31.22
		z"/>
	<path class="st1" d="M7.1,9.43C6.15,8.17,5.54,6.98,5.43,5.59C5.28,3.7,6.38,2.24,8.25,1.88c2.42-0.46,4.9,0.78,6.25,3.2
		c1.09-1.4,2.34-2.51,4.19-2.61c0.66-0.04,1.27,0.07,1.82,0.46c1.51,1.07,1.8,3.78,0.66,6.44c0.86,0.16,1.74-0.03,2.59,0.19
		c1.46,0.37,2.23,1.3,2.24,2.82c0.03,5.03-0.26,10.06-0.46,15.09c-0.06,1.64-1.13,2.51-2.89,2.47c-5.79-0.12-11.57-0.11-17.36-0.01
		c-2.13,0.04-3.48-0.52-3.44-3.29c0.07-4.91-0.1-9.83-0.16-14.74C1.67,10.33,2.5,9.48,4.12,9.43c0.48-0.01,0.96,0,1.44,0
		C6,9.43,6.44,9.43,7.1,9.43z"/>
	<path class="st2" d="M9.93,10.78C9.19,9.74,8.27,8.85,7.62,7.74C6.64,6.08,6.53,4.71,7.37,3.86c0.93-0.94,2.54-0.94,4.12,0
		c1.5,0.89,1.91,1.69,2.23,4.48c0.94-0.82,1.5-1.86,2.2-2.77c0.53-0.69,1.16-1.21,1.98-1.49c1.44-0.51,2.32,0.04,2.55,1.55
		c0.23,1.54-0.24,2.83-1.3,3.95c-0.38,0.41-0.77,0.81-1.16,1.21c0.04,0.44-0.34,0.65-0.52,0.96c-0.25,1.02,0.88,1.02,1.19,1.63
		c0.58,0.53,1.01,1.19,1.55,1.76c0.52,0.51,0.99,1.05,1.25,1.74c0.13,0.34,0.22,0.99,0.04,0.99c-1.21,0.02-1.36,1.64-2.54,1.61
		c-0.25-0.05-0.47-0.17-0.68-0.3c-0.5-0.24-0.8-0.76-1.51-0.99c-0.19,3.04-0.02,6.02-0.09,9c0,0.5-0.09,0.96-0.59,1.22
		c-1.29,0-2.57-0.01-3.86-0.01c-0.58-0.37-0.27-0.93-0.31-1.41c0.01-4.05,0-8.09,0-12.19c-0.29,0.41-0.4,0.84-0.57,1.24
		c-0.71,1.51-0.86,3.21-1.71,4.67c-0.48,0.52-1,0.51-1.44,0.01c-0.5-0.57-0.89-0.28-1.32,0.06c-0.93,0.35-1.15-0.23-1.16-0.95
		c-0.03-1.57,0.29-3.07,0.96-4.49c0.2-0.43,0.41-0.86,0.65-1.27c0.71-1.07,1.64-1.89,2.76-2.51c-0.02-0.11,0.33,0.08,0.13-0.15
		C10.06,11.2,9.87,11.05,9.93,10.78z"/>
	<path class="st3" d="M16.08,28.38c0.11-0.4,0.22-0.8,0.34-1.19c0.54-0.52,1.21-0.32,1.84-0.36c0.5-0.03,0.99-0.01,1.49,0
		c0.84-0.05,1.68,0.01,2.52-0.03c0.57-0.13,0.59-0.54,0.56-1.01c-0.29-4.02-0.04-8.03,0.32-12.04c0.07-0.79,0.33-1.78-1.02-1.83
		c-0.63,0.01-1.26,0.02-1.89-0.01c-0.43,0.01-0.85,0.03-1.28,0c-0.56-0.04-1.17,0.13-1.62-0.38c0.22-0.25,0.43-0.5,0.65-0.76
		c1.51,0.02,3.02,0.05,4.54,0.07c1.73,0.03,2.06,0.41,2.05,2.11c-0.01,4.66-0.19,9.31-0.35,13.97c-0.04,1.06-0.45,1.58-1.46,1.57
		C20.53,28.49,18.31,28.43,16.08,28.38z"/>
	<path class="st4" d="M12.15,27.19c0.02,0.39,0.05,0.79,0.07,1.18c-2.38,0.16-4.77-0.11-7.15,0.15c-0.48,0.05-1.03,0.02-1.43-0.4
		c0.06-0.84-0.3-1.68-0.03-2.52c-0.03-4.1-0.15-8.2-0.08-12.29c0.01-0.55-0.22-1.23,0.54-1.54c0.52,0.51,0.39,1.18,0.39,1.8
		c0.02,3.86-0.01,7.72,0.02,11.58c0,0.63-0.18,1.42,0.77,1.64c0.71,0.01,1.43,0,2.14,0.03c0.49-0.02,0.99-0.02,1.48,0
		c0.77-0.01,1.53-0.02,2.3,0.01C11.54,26.87,11.9,26.87,12.15,27.19z"/>
	<path class="st5" d="M4.08,11.81c-0.35,0.37-0.21,0.83-0.21,1.25c-0.01,3.89,0,7.78-0.01,11.67c0,0.42,0.16,0.88-0.23,1.24
		c-0.3-1.57-0.14-3.16-0.2-4.74c-0.11-3.37-0.09-6.76,0-10.13c0.41-0.47,0.95-0.22,1.43-0.24c1.69-0.05,3.38-0.06,5.07-0.08
		c0.19,0.25,0.71,0.31,0.44,0.8c-0.83,0.34-1.71,0.39-2.59,0.35c-0.84-0.04-1.68,0.02-2.51-0.03C4.87,11.92,4.47,11.91,4.08,11.81z"
		/>
	<path class="st6" d="M3.43,11.1c0.16,0.03,0.29,0.09,0.28,0.29c-0.21,4.86-0.04,9.72-0.09,14.58c-0.1,0.59,0.21,1.11,0.28,1.68
		c0.03,0.26,0.07,0.45-0.26,0.47c-0.38-0.24-0.29-0.62-0.29-0.97c-0.07-5.05-0.12-10.11-0.2-15.16C3.15,11.64,3.26,11.37,3.43,11.1z
		"/>
	<path class="st7" d="M22.35,27.13c-0.89,0-1.78,0-2.66,0c-0.39-0.42-0.33-0.96-0.34-1.47c-0.02-1.23-0.04-2.46,0.01-3.69
		c0.03-0.92-0.12-1.81-0.35-2.69c0.55,0.06,0.98,0.01,0.78-0.74c-0.21-0.82,0.26-0.9,0.87-0.69c0.9,0.31,0.86-0.15,0.65-0.75
		c-0.27-0.76-0.86-1.32-1.33-1.95c-0.14-1.19-0.39-2.4,0.2-3.55c0.65,0,1.3,0,1.95,0c0.33,0.35,0.36,0.79,0.36,1.23
		c0.03,4.58,0.01,9.15,0.01,13.73C22.49,26.76,22.44,26.95,22.35,27.13z"/>
	<path class="st8" d="M13.19,13.22c0.82,1.11,1.41,1.96,2.05,2.78c0.26,0.34,0.37,0.68,0.37,1.1c-0.01,3.08-0.04,6.15,0.01,9.23
		c0.01,0.86-0.44,0.93-1.05,0.84c-0.54-0.08-1.38,0.39-1.38-0.74C13.2,22.12,13.19,17.82,13.19,13.22z"/>
	<path class="st9" d="M5.05,11.59c0.88,0,1.76,0,2.65,0c0.27,0.79-0.02,1.58-0.03,2.37C6.63,15.8,6,17.75,6.03,19.89
		c0.01,0.78,0.22,1.1,0.97,0.58c0.43,0.01,0.7,0.29,0.72,0.66c0.07,2.01,0.41,4.04-0.26,6.02c-0.72-0.01-1.45-0.01-2.17-0.02
		c-0.45-0.5-0.35-1.12-0.35-1.71c-0.01-3.11-0.01-6.23,0-9.34c0-0.96-0.02-1.91-0.15-2.87C4.69,12.65,4.75,12.1,5.05,11.59z"/>
	<path class="st10" d="M11.31,27.15c-0.81,0-1.61,0-2.42,0c-0.47-0.55-0.33-1.21-0.34-1.84c-0.02-0.88,0.03-1.76-0.01-2.64
		c-0.04-0.82,0.2-1.47,0.84-1.97c0.74-1.48,0.85-3.18,1.65-4.63c0.57,0.26,0.62,0.79,0.63,1.31c0.05,2.89,0.03,5.78,0.01,8.67
		C11.67,26.44,11.62,26.84,11.31,27.15z"/>
	<path class="st10" d="M18.26,27.15c-0.62,0.01-1.23,0.03-1.85,0.04c0-3.25,0-6.49,0-9.85c0.86,0.4,1.42,1.11,2.1,1.65
		c0.22,2.38,0.11,4.76,0.06,7.14C18.56,26.49,18.45,26.84,18.26,27.15z"/>
	<path class="st11" d="M9,20.04c-0.55-0.62-0.83-1.36-1.71-1C6.94,19.19,7,18.8,6.98,18.58c-0.12-2.21,2.26-5.83,4.24-6.48
		c0.24-0.08,0.49-0.12,0.67,0.08c0.16,0.18,0.02,0.37-0.09,0.54c-0.74,1.1-1.32,2.27-1.71,3.53C9.73,17.45,9.23,18.6,9,20.04z"/>
	<path class="st12" d="M11.31,27.15c0-3.19-0.01-6.38,0-9.58c0-0.52,0.02-1.04-0.28-1.5c0.16-0.88,0.61-1.64,1.18-2.38
		c0,2.68,0.01,5.35,0,8.03c-0.01,1.82-0.04,3.65-0.06,5.47C11.87,27.17,11.59,27.16,11.31,27.15z"/>
	<path class="st13" d="M15.84,12.53c1.67,1.3,3.01,2.93,4.68,4.48c-1.59-0.3-1.6-0.29-1.78,1.05c-1.27-1.02-2.53-1.97-3.39-3.33
		c-0.13-0.37-0.41-0.67-0.54-1.04C14.52,12.86,14.86,12.48,15.84,12.53z"/>
	<path class="st14" d="M18.26,27.15c0-2.54,0-5.09,0.02-7.63c0-0.17,0.15-0.35,0.23-0.52c0.16,0.1,0.32,0.19,0.48,0.29
		c0.56,0.25,0.74,0.66,0.73,1.29c-0.05,2.18-0.03,4.37-0.04,6.55C19.21,27.14,18.73,27.14,18.26,27.15z"/>
	<path class="st15" d="M9.38,20.7C8.45,22.79,9.1,25,8.89,27.15c-0.48,0-0.95,0.01-1.43,0.01c0-1.81-0.01-3.62,0-5.43
		c0-0.49-0.02-0.94-0.46-1.26c0.35-0.64,0.71-0.9,1.25-0.13C8.5,20.68,8.82,21.15,9.38,20.7z"/>
	<path class="st16" d="M7.76,5.09c0.42-0.96,1.31-1.25,2.54-0.83c1.83,0.61,2.07,2.2,2.38,3.9c-0.61-0.22-0.7-0.79-1.04-1.1
		c-0.51-0.48-0.99-1.13-1.81-0.51C9.65,6.76,9.88,7.16,9.55,7.26c-0.31,0.1-0.5-0.17-0.66-0.39C8.49,6.29,8.01,5.76,7.76,5.09z"/>
	<path class="st17" d="M16.08,6.77c0.49-0.77,1.01-1.51,1.89-1.89c1.02-0.45,1.46-0.24,1.65,0.87c0.11,0.67,0.08,1.34-0.21,1.97
		c-0.13,0.11-0.29,0.18-0.43,0.08c-0.78-0.51-1.6-0.83-2.56-0.67C16.22,7.17,16.03,7.04,16.08,6.77z"/>
	<path class="st18" d="M7.76,5.09c0.79,0.48,1.08,1.39,1.69,2.05C9.59,6.92,9.7,6.73,9.82,6.54c-0.28,1.69,0.93,2.78,1.76,4.11
		C9.72,9.72,7.76,6.82,7.76,5.09z"/>
	<path class="st19" d="M16.08,6.77c1.23-0.11,2.34,0.18,3.32,0.95c-0.31,0.44-0.62,0.89-0.98,1.41c-0.49-2.19-1-2.16-3.8,0.23
		C15.02,8.31,15.47,7.5,16.08,6.77z"/>
	<path class="st20" d="M20.16,11.6c-0.09,1.18,0.27,2.39-0.2,3.55c-0.5-0.53-0.99-1.07-1.49-1.6c-0.05-0.71-0.05-1.4,0.51-1.95
		C19.38,11.6,19.77,11.6,20.16,11.6z"/>
	<path class="st21" d="M7.67,13.96c-0.38-0.8-0.31-1.59,0.03-2.37c0.89,0,1.78,0,2.67-0.01C9.42,12.31,8.39,12.96,7.67,13.96z"/>
	<path class="st22" d="M15.22,10.85c-0.41-0.15-0.36-0.49-0.14-0.73c0.53-0.58,1.09-1.14,1.68-1.66c0.29-0.25,0.69-0.35,0.74,0.25
		C17.54,9.14,15.68,10.89,15.22,10.85z"/>
	<path class="st23" d="M18.98,11.6c-0.12,0.66-0.14,1.35-0.51,1.95c-0.43-0.35-0.84-0.72-1.29-1.04c-0.62-0.45-0.41-0.73,0.15-0.98
		C17.89,11.55,18.43,11.57,18.98,11.6z"/>
	<path class="st24" d="M15.84,12.53c-0.82,0.12-1.16,0.48-0.67,1.28c0.17,0.28,0.23,0.59,0.18,0.92c-0.47-0.32-0.85-0.72-1.03-1.25
		c-0.18-0.51-0.41-1.07,0.21-1.47C15.19,11.6,15.54,12.03,15.84,12.53z"/>
	<path class="st25" d="M13.68,9.12c0.66,1.42,0.57,1.88-0.29,1.96c-0.26,0.02-0.58,0.12-0.76-0.17c-0.16-0.26,0.12-0.42,0.24-0.61
		C13.11,9.94,13.36,9.59,13.68,9.12z"/>
	<path class="st26" d="M12.22,9.73c-0.81-0.63-1.43-1.38-1.61-2.43C11.36,7.96,12.02,8.69,12.22,9.73z"/>
	<path class="st27" d="M22.35,27.13c-0.25-0.35-0.25-0.74-0.25-1.15c0.01-4.8,0.01-9.59,0.02-14.39c1.06-0.2,1.49,0.12,1.41,1.3
		c-0.19,3.26-0.58,6.52-0.48,9.8c0.04,1.16-0.05,2.32,0.2,3.46C23.42,26.89,23.23,27.34,22.35,27.13z"/>
	<path class="st28" d="M5.05,11.59c0.45,5.18,0.17,10.36,0.23,15.54c-0.96,0.16-1.24-0.26-1.23-1.2c0.04-4.71,0.02-9.42,0.02-14.13
		C4.35,11.5,4.7,11.56,5.05,11.59z"/>
</g>
</svg>
