<?xml version="1.0" encoding="utf-8"?>
<!-- Generator: Adobe Illustrator 23.0.2, SVG Export Plug-In . SVG Version: 6.00 Build 0)  -->
<svg version="1.1" id="Camada_1" xmlns="http://www.w3.org/2000/svg" xmlns:xlink="http://www.w3.org/1999/xlink" x="0px" y="0px"
	 viewBox="0 0 40.37 40.12" style="enable-background:new 0 0 40.37 40.12;" xml:space="preserve">
<style type="text/css">
	.st0{fill:#0A0403;}
	.st1{fill:#D27B38;}
	.st2{fill:#C04318;}
	.st3{fill:#592418;}
	.st4{fill:#D27B37;}
	.st5{fill:#8A591C;}
	.st6{fill:#93441D;}
	.st7{fill:#BA4218;}
	.st8{fill:#7F1719;}
	.st9{fill:#C14216;}
	.st10{fill:#BF4418;}
	.st11{fill:#5B2218;}
	.st12{fill:#91411B;}
	.st13{fill:#226494;}
	.st14{fill:#C14417;}
	.st15{fill:#B7441B;}
	.st16{fill:#EBC967;}
	.st17{fill:#BD461A;}
	.st18{fill:#EAC666;}
	.st19{fill:#DB9B7C;}
	.st20{fill:#CA7950;}
	.st21{fill:#DC9E7F;}
	.st22{fill:#EAC665;}
	.st23{fill:#DB9732;}
	.st24{fill:#EAE539;}
	.st25{fill:#EAE63A;}
	.st26{fill:#ECE63A;}
	.st27{fill:#D68E31;}
	.st28{fill:#EFED3B;}
	.st29{fill:#E9E039;}
	.st30{fill:#CE7B51;}
	.st31{fill:#F4F3F5;}
	.st32{fill:#D0835D;}
	.st33{fill:#D67E38;}
	.st34{fill:#EBC966;}
	.st35{fill:#F4F5F6;}
	.st36{fill:#C97952;}
	.st37{fill:#EBE8E9;}
	.st38{fill:#76B9E7;}
	.st39{fill:#F0F7FC;}
	.st40{fill:#E8F4FB;}
	.st41{fill:#7D1523;}
	.st42{fill:#D48660;}
	.st43{fill:#174A89;}
	.st44{fill:#194786;}
	.st45{fill:#CC7B52;}
	.st46{fill:#9B4A22;}
	.st47{fill:#EDE8E7;}
	.st48{fill:#913F17;}
	.st49{fill:#C8764D;}
	.st50{fill:#7B161B;}
	.st51{fill:#7D181C;}
	.st52{fill:#BC0D11;}
	.st53{fill:#BC090F;}
</style>
<g>
	<path class="st0" d="M11.67,38.83c-2.2-0.09-3.93-1.53-4.23-3.52c-0.06-0.37-0.19-0.43-0.5-0.5c-0.69-0.17-1.36-0.41-2.05-0.59
		C2.12,33.51,1,31.5,1.77,28.76c0.53-1.9,1.28-3.68,2.37-5.32c0.3-0.45,0.33-0.78,0.03-1.27c-0.51-0.82-0.47-1.54,0.36-2.31
		c0.87-0.8,1.25-2.01,1.8-3.07c1.11-2.14,1.93-4.51,4.31-5.69c0.44-0.22,0.21-0.53,0.12-0.82c-0.29-0.95-0.53-1.92-0.9-2.84
		C9.36,6.25,9.69,5.07,9.93,3.93c0.17-0.82,0.95-0.95,1.74-0.85c0.95,0.12,1.66,0.75,2.49,1.13c0.56,0.26,0.85,0.36,1.17-0.32
		c0.37-0.8,0.97-1.46,1.66-2.02c1-0.8,1.71-0.79,2.61,0.1c0.48,0.48,0.85,1.28,1.4,1.41c0.57,0.14,1.01-0.75,1.59-1.07
		c0.8-0.44,1.59-1.02,2.53-0.32c0.95,0.71,1.19,1.65,0.8,2.76c-0.08,0.23-0.16,0.45-0.21,0.68c-0.23,1.01-0.77,2.09-0.57,3.02
		c0.21,1.01,1.65,0.87,2.49,1.39c2.82,1.74,4.43,4.29,5.25,7.42c0.32,1.22,0.97,2.13,2.09,2.76c2.69,1.53,3.35,4.1,1.77,6.78
		c-0.23,0.39-0.17,0.53,0.15,0.74c0.86,0.56,1.18,1.38,1.06,2.37c-0.05,0.45,0.13,0.77,0.38,1.08c0.61,0.75,0.58,1.58,0.17,2.35
		c-0.41,0.76-1.19,0.98-1.97,0.68c-0.51-0.19-0.63,0.13-0.85,0.38c-0.84,0.91-1.76,1.65-3.12,1.37c-0.49-0.1-0.7,0.33-1,0.56
		c-1.36,1.02-2.79,1.72-4.54,1.12c-0.88-0.3-1.58-0.78-1.69-1.8c-0.01-0.12,0.06-0.32,0.02-0.34c-0.13-0.06-0.31-0.11-0.44-0.07
		c-1.18,0.34-2.18-1.28-3.4-0.31c-0.85,0.67-1.68,1.23-2.81,0.59c-0.41-0.23-0.75-0.04-1.07,0.26c-0.69,0.65-1.49,1.12-2.46,1.04
		c-0.54-0.04-0.66,0.38-0.92,0.62C13.46,38.12,12.76,38.91,11.67,38.83z"/>
	<path class="st1" d="M6.02,20.66c1.06-1.96,2.1-3.94,3.18-5.89c0.68-1.22,1.63-2.16,3.03-2.54c0.62-0.6,1.35-0.6,2.11-0.34
		c2.89,0.99,5.61,0.69,8.16-1.03c0.23-0.16,0.48-0.27,0.76-0.32c2.18-0.28,4.04,0.24,5.36,2.12c2.09,3.44,2.35,7.25,2.21,11.13
		c0.09,1.34-0.72,2.23-1.6,3.06c-0.49,0.47-1,0.92-1.46,1.41c-1.1,1.17-1.01,1.88,0.32,2.75c0.23,0.15,0.5,0.26,0.55,0.59
		c-0.86,0.8-1.91,0.83-3.11,0.09c-0.94-0.58-1.11-1.11-0.76-2.34c0.08-0.27,0.16-0.53,0.33-0.76c1.57-0.3,1.99-1.48,2.15-2.85
		c0.2-0.31,0.55-0.44,0.85-0.61c1.62-0.94,1.96-2.6,0.75-4.06c-0.32-0.38-0.23-0.92-0.65-1.21c-2.14,0.21-4.27,0.34-6.36-0.27
		c-0.15-0.06-0.29-0.11-0.44-0.17c-0.63-0.24-0.68-0.24-1.09,0.18c-1.52-0.29-2.08-0.81-2-1.84c0.41-0.13,0.79-0.37,1.24-0.34
		c0.37,0.02,0.75,0,1.12,0.01c-0.79-0.02-1.58-0.1-2.31,0.29c-0.84,0.47-1.12-0.27-1.48-0.73c-0.48-0.62-0.62-1.45-1.19-2.19
		c-0.79,0.97-1.14,2.18-2.09,2.92c-0.66,0.92-1.72,0.75-2.63,0.97c0.29,0.94-0.58,1.03-1.03,1.43c-0.36,0.25-0.69,0.54-1.15,0.59
		c-0.63-0.24-1.03,0.34-1.56,0.46C6.77,21.14,6.18,21.4,6.02,20.66z"/>
	<path class="st2" d="M18.74,33.85c-0.93-0.03-1.78,0.05-2.44,0.89c-0.36,0.46-0.94,0.71-1.61,0.47c-0.74-0.25-0.29-0.79-0.34-1.2
		c-0.12-1.12-1.41-2.01-2.83-1.95c1.83,0.5,2.51,1.12,2.49,2.25c-0.01,1.14-0.86,2.32-1.91,2.63c-1.06,0.32-2.29-0.2-2.91-1.22
		c0.27-0.21,0.52,0.04,0.78,0.04c0.66,0.01,1.32,0.08,1.33-0.9c0.01-0.89-0.25-1.5-1.26-1.49c-0.76,0.01-1.51,0.05-2.27,0.03
		c-0.83-0.02-0.87-0.44-0.26-1.25c-1.48,0.79-2.7,0.67-3.67-0.37c-0.75-0.8-0.68-1.81-0.26-2.79c1.54,1.46,3.42,1.77,5.43,1.61
		c0.37-0.03,1.11-0.05,0.5-0.72c-2.28-2.51-1.67-5.2-0.55-7.93c0.93-0.59,1.32-0.47,1.42,0.54c0.12,1.18,0.32,2.33,0.14,3.56
		c-0.19,1.34,0.57,2.5,1.66,3.25c1.63,1.11,3.2,2.36,5.27,2.65C18.4,32.09,18.84,32.87,18.74,33.85z"/>
	<path class="st3" d="M28.36,12.69c-1.26-1.71-3.06-2.04-5.02-1.92c-0.34-0.43-0.1-0.7,0.25-0.94c3.9,0.36,7,3.25,8.08,7.56
		c0.41,1.64,1.3,2.9,2.79,3.7c1.84,0.97,3.07,3.96,0.78,5.53c-0.61,0.42-0.64,0.77,0.07,1.21c0.94,0.57,1.76,1.24,1.31,2.61
		c-0.15,0.45,0.44,0.89,0.73,1.31c0.17,0.24,0.37,0.44,0.15,0.74c-0.2,0.27-0.42,0.47-0.81,0.3c-0.77-0.35-1.28,0.05-1.76,0.6
		c-0.69,0.8-1.39,1.6-2.64,1.06c-0.37-0.16-0.56,0.22-0.79,0.42c-0.9,0.74-1.82,1.47-3.01,1.62c-1.33,0.17-1.86-0.46-1.47-1.66
		c0.13-0.4,0.03-0.72-0.2-1c-0.25-0.29-0.58-0.2-0.88-0.05c-1.37,0.67-2.46,0.27-3.37-0.86c-0.14-0.13-0.22-0.3-0.26-0.48
		c-0.03-0.12-0.04-0.25-0.04-0.37c0-0.49-0.01-0.98,0-1.48c0-0.19,0.03-0.37,0.07-0.56c0.38-0.86,0.69-1.78,1.73-2.09
		c0.36,0.01,0.57,0.2,0.62,0.56c-0.14,0.95-0.74,1.76-0.81,2.74c-0.05,0.68-0.17,1.39,0.5,1.86c0.6,0.41,1.14,0.03,1.68-0.21
		c0.33-0.15,0.64-0.34,1-0.38c0.58-0.06,0.99,0.05,0.69,0.78c-0.16,0.38-0.09,0.79-0.09,1.18c0,1.26,0.42,1.54,1.59,1
		c0.66-0.3,1.26-0.7,1.75-1.24c0.5-0.55,0.66-1.17,0.32-1.87c-0.1-0.21-0.24-0.48-0.01-0.66c0.27-0.2,0.53-0.02,0.75,0.17
		c0.28,0.24,0.43,0.56,0.54,0.91c0.34,1.15,0.54,1.2,1.44,0.37c0.66-0.6,1.18-1.41,2.18-1.49c0.01-0.17-0.12-0.26-0.12-0.37
		c-0.06-1.46-0.73-2.52-1.9-3.43c-0.69-0.53-0.09-1.22,0.39-1.74c1.2-1.31,1.23-2.42,0.14-3.8c-0.66-0.63-1.56-0.95-2.11-1.71
		c-0.25,0.23-0.08,0.49-0.16,0.71c-0.05,0.24-0.11,0.51-0.38,0.54c-0.21,0.02-0.31-0.22-0.37-0.4c-0.11-0.34-0.2-0.69-0.24-1.04
		C31.17,17.54,30.11,14.97,28.36,12.69z"/>
	<path class="st4" d="M9.13,22.13c-0.47,1.67-1.14,3.3-0.73,5.09c0.25,1.09,0.75,1.99,1.64,2.67c0.25,0.19,0.75,0.44,0.15,0.77
		c-1.16,0.65-5.6,0.4-6.51-1.31c-0.06-0.1-0.07-0.23-0.1-0.34c0.32-2.37,1.71-4.27,2.9-6.23c0.36-0.6,1.52-0.23,2.2-0.68
		C8.84,21.96,8.99,21.95,9.13,22.13z"/>
	<path class="st5" d="M23.6,9.82c-0.08,0.31-0.17,0.63-0.25,0.94c-1.94,1.38-4.07,2.11-6.48,2c-0.73-0.03-1.47-0.08-2.1-0.39
		c-0.87-0.42-1.68-0.37-2.54-0.15c0.42-2.54-1.85-4.55-1.35-7.19c0.22-1.16,0.65-0.87,1.2-0.63c0.87,0.38,1.71,0.86,2.52,1.35
		c0.64,0.39,0.99,0.23,1.28-0.42c0.4-0.87,0.93-1.66,1.63-2.34c0.52-0.5,0.92-0.67,1.44,0c0.51,0.66,1.1,1.25,1.63,1.9
		c0.38,0.46,0.67,0.47,1.01-0.03c0.5-0.74,1.19-1.28,1.96-1.72c0.31-0.18,0.62-0.38,0.98-0.08c0.33,0.28,0.57,0.63,0.38,1.04
		c-0.49,1.06-0.5,2.25-0.92,3.33C23.6,7.5,23.52,7.2,23.4,6.94c-0.15-0.99,0.64-1.88,0.29-2.89c-0.74,0.38-1.27,0.95-1.74,1.62
		c-0.24,0.35-0.45,0.79-1,0.71c-0.68-0.3-0.99-0.97-1.47-1.46c-0.44-0.44-0.7-1.15-1.49-1.16c-0.76,0.63-1.1,1.55-1.61,2.35
		c-0.46,0.71-0.99,0.97-1.8,0.56c-0.78-0.39-1.61-0.69-2.4-1.05c-0.72-0.01-0.35,0.5-0.32,0.76c0.12,0.99,0.51,1.91,0.73,2.88
		c0.23,1.2,0.72,2.16,2.1,2.33c0.55,0.15,1.09,0.34,1.66,0.36c0.18,0,0.35,0,0.53,0c0.84,0.06,1.66-0.08,2.49-0.24
		c1.82-0.35,3.17-1.22,3.71-3.09c0.43-0.55,0.44-0.55,0.75-0.2C23.72,8.88,23.42,9.31,23.6,9.82z"/>
	<path class="st6" d="M9.13,22.13c-0.15-0.01-0.3-0.01-0.44-0.02c-0.17-0.08-0.33-0.15-0.5-0.23c-0.01-0.04-0.05-0.09-0.03-0.11
		c0.31-0.42,0.53-0.99,0.52-1.33c0.52,0.14,0.72-0.49,1.18-0.51c0.28-0.11,0.62,0.02,0.86-0.23c0.18-0.19,0.54-0.26,0.49-0.59
		c-0.05-0.35-0.47-0.18-0.66-0.36c0.1-0.44,0.43-0.57,0.81-0.49c0.86,0.17,1.51-0.23,2.14-0.72c0.19,0.13,0.29,0.32,0.32,0.55
		c-0.1,0.41-0.09,0.86-0.35,1.22c-0.57,0.22-1.21,0.37-1.2,1.18c-0.34,0.31-0.99,0.12-1.18,0.7c-0.24,0.55-0.17,1.13-0.17,1.71
		c-0.01,0.31,0.01,0.63,0.01,0.94c-0.02,0.64,0.01,1.28,0,1.92c0.15,1.41,0.79,2.56,1.87,3.47c0.43,0.36,0.92,0.62,1.36,0.97
		c1.8,1.39,3.7,1.37,5.74,0.6c0.86-0.33,1.63-1.03,2.66-0.82c0,0.19,0,0.38,0,0.57c-0.96,1.06-2.37,1.16-3.6,1.66
		c0.06,0.43,0.34,0.73,0.45,1.1c0.46,0.6,0.81,0.08,1.2-0.11c0.64-0.32,1.16-0.95,1.99-0.74c0,0.15-0.01,0.31-0.01,0.46
		c-0.64,0.38-1.35,0.67-1.9,1.15c-0.78,0.67-1.37,0.61-1.94-0.19c-0.25-1.09-0.93-1.43-2.04-1.76c-2.35-0.7-4.56-1.85-5.98-4.01
		c-0.52-0.8-0.75-1.69-0.44-2.72c0.32-1.04-0.18-2.11-0.25-3.18C9.99,21.45,9.46,21.79,9.13,22.13z"/>
	<path class="st7" d="M8.67,20.44c0.49,0.7,0.07,1.09-0.49,1.44c-0.64,0.42-1.37,0.27-2.07,0.3c-0.58,0.02-0.82-0.47-0.91-0.91
		c-0.09-0.42,0.35-0.29,0.59-0.35c0.56,0.17,1.12,0.61,1.67-0.02C7.77,20.49,8.16,20.29,8.67,20.44z"/>
	<path class="st8" d="M23.83,8.42c-0.36-0.26-0.41,0.09-0.54,0.28c-0.61,0.37-1.12,0.19-1.34-0.43c-0.29-0.8,0.03-1.39,0.88-1.63
		c0.31-0.05,0.51,0.14,0.71,0.33c0.15,0.16,0.3,0.31,0.45,0.47C23.99,7.77,24.07,8.12,23.83,8.42z"/>
	<path class="st9" d="M7.46,20.89c-0.54,1.25-1.1,0.53-1.67,0.02c0.08-0.08,0.15-0.17,0.23-0.25C6.45,21.07,6.98,20.82,7.46,20.89z"
		/>
	<path class="st10" d="M34.84,22.07c1.31,1.27,1.34,2.93,0.06,4.16c-1.09,1.05-1.08,1.22,0.22,2.13c0.73,0.51,1.47,0.94,0.97,2.09
		c-0.27,0.63,0.71,0.91,0.74,1.65c-0.96-0.35-1.61,0.13-2.18,0.83c-0.27,0.34-0.61,0.64-0.93,0.93c-0.33,0.31-0.73,0.3-1.12,0.17
		c-0.5-0.17-0.28-0.53-0.26-0.89c0.05-0.65-0.3-1.11-0.98-1.37c0.64,0.84,0.76,1.71,0.03,2.46c-0.95,0.97-1.98,1.92-3.5,1.74
		c-0.45-0.05-0.88-0.24-0.55-0.87c0.38-0.72-0.6-1.65,0.51-2.34c-0.84-0.25-1.32,0.25-1.85,0.49c-1.67,0.77-2.57,0.18-2.48-1.64
		c0.05-1.15,0.52-2.16,0.97-3.18c0.3-0.1,0.57-0.09,0.73,0.24c-0.02,0.16-0.03,0.32-0.07,0.47c-0.24,0.79-0.69,1.65,0.34,2.18
		c0.97,0.5,2.01,1.1,3.07,0.14c0.48-0.45,1.18-0.42,1.71-0.78c0.9-0.62,1.13-1.34,0.58-2.17c-0.35,0.41-0.2,1.28-1.01,1.2
		c-0.44-0.04-0.7-0.33-0.77-0.76c0.02,0.58,0.41,0.76,0.92,0.8c0.25,0.02,0.61-0.25,0.71,0.13c0.11,0.41-0.24,0.63-0.56,0.81
		c-0.21,0.12-0.43,0.2-0.69,0.15c-1.5-0.78-1.6-1.11-0.93-3.18c0.42-0.77,1.3-1.13,1.69-1.92c0.27-0.53,0.79-1.03,0.29-1.69
		c-0.02-2.65,0.02-5.29-0.71-7.88c-0.35-1.23-1.04-2.29-1.45-3.47c2.16,1.85,2.85,4.41,3.34,7.05c0.1,0.54,0.16,1.1,0.26,1.64
		c0.02,0.09-0.04,0.42,0.2,0.12c0.07-0.08,0.05-0.23,0.07-0.35c0.64,0.18,0.46,0.74,0.48,1.16c0.04,0.79,0.04,1.57,0.35,2.43
		c0.53-0.3,0.77-0.91,1.32-1.12c0.38-0.14,0.65-0.33,0.42-0.79C34.71,22.57,34.59,22.31,34.84,22.07z"/>
	<path class="st11" d="M29.55,30.73c0.4-0.17,0.82-0.32,1.13-0.84c-0.72,0.05-1.5,0.2-1.79-0.59c-0.18-0.49-0.11-1.02,0.53-1.41
		c-0.04,0.44-0.12,0.81-0.08,1.16c0.05,0.37,0.38,0.5,0.73,0.42c0.23-0.06,0.54-0.25,0.32-0.49c-0.47-0.52-0.31-0.79,0.28-0.85
		c0.6-0.06,0.98,0.29,1.02,0.91c0.03,0.51-0.27,0.9-0.6,1.26c-0.68,0.74-1.5,1.17-2.52,1.17c-2.2-0.72-2.51-2.01-0.86-3.63
		c0.68-0.67,1.38-1.32,2.08-1.96c0.53-0.49,0.77-1.1,0.73-1.82c0.4-0.23,0.48-0.02,0.46,0.33c-0.07,1.06-0.64,1.84-1.38,2.53
		c-0.26,0.24-0.52,0.47-0.78,0.7c-0.14,0.2-0.27,0.39-0.41,0.59C27.21,29.9,27.46,30.45,29.55,30.73z"/>
	<path class="st12" d="M28.6,19.68c0.23,0.05,0.56,0.1,0.3,0.42c-0.24,0.29-0.18,0.39,0.05,0.66c1.73,2.01,1.04,4.12-1.6,4.96
		c-0.38-0.01-0.58-0.14-0.43-0.56c0.69-0.36,1.48-0.56,1.83-1.41c0.26-0.63,0.34-1.22-0.05-1.81c-0.4-0.62-0.98-0.78-1.66-0.66
		c-0.52,0.09-1.03,0.11-1.51-0.14c-0.83-0.25-1.67-0.19-2.5,0c-0.48,0.07-0.94,0.1-1.3-0.31c-0.2-0.35-0.23-0.66,0.22-0.84
		c1.55-0.01,3.1,0.2,4.66-0.01C27.26,19.87,27.9,19.55,28.6,19.68z"/>
	<path class="st0" d="M13.71,18.03c-0.07-0.16-0.15-0.33-0.22-0.49c0.6-0.6,1.04-1.3,1.41-2.05c0.2-0.41,0.25-1.05,0.82-1.06
		c0.64-0.01,0.49,0.7,0.71,1.08c0.5,0.85,0.58,2.03,1.83,2.28l-0.01-0.02c0.27,1.16,1.17,1.48,2.2,1.62
		c0.21,0.42,0.69,0.66,0.77,1.17c-0.03,0.11-0.1,0.18-0.21,0.22c-0.78-0.03-1.54-0.53-2.35-0.09c-0.22,0.06-0.44,0.12-0.67,0.08
		c-0.4-0.19-0.24-0.44-0.08-0.69c0.46-0.31,0.86-0.61,0.13-1.08c-0.26-0.17-0.46-0.44-0.66-0.68c-0.98-0.89-1.4-2.07-1.67-3.2
		C15.28,16.2,15.03,17.46,13.71,18.03z"/>
	<path class="st13" d="M26.9,25.23c0.15,0.16,0.3,0.32,0.45,0.48c0.07,2.11-0.43,2.8-2.12,2.96c-0.24-0.08-0.49-0.16-0.73-0.23
		c0.03-0.35-0.21-0.38-0.47-0.4c-0.57-0.13-0.76-0.55-0.75-1.07c0.02-0.97,0.44-1.71,1.37-2.04C25.43,24.66,26.26,24.3,26.9,25.23z"
		/>
	<path class="st14" d="M28.6,19.68c-2.2,0.76-4.45,0.96-6.74,0.45c-0.45-0.21-0.53-0.52-0.22-0.92c1.89,0.51,3.8,0.63,5.73,0.35
		C27.8,19.51,28.21,19.33,28.6,19.68z"/>
	<path class="st15" d="M21.64,19.22c-0.04,0.33,0.04,0.64,0.22,0.92c-0.26,0.16-0.07,0.35-0.04,0.53c-0.24,0.2-0.46,0.19-0.68-0.04
		c-0.02-0.53-1.11-0.47-0.7-1.24C20.7,18.33,21.27,19.46,21.64,19.22z"/>
	<path class="st16" d="M25.98,13.19c-0.37-0.17-0.88-0.22-0.95-0.76c-0.05-0.4,0.27-0.46,0.56-0.41c0.47,0.08,0.82,0.39,0.93,0.83
		C26.58,13.11,26.25,13.19,25.98,13.19z"/>
	<path class="st17" d="M10.55,18.75c0.38,0.03,0.85-0.16,1.07,0.28c0.12,0.23-0.19,0.39-0.34,0.56c-0.39,0.46-0.82,0.77-1.42,0.33
		c0.22-0.17,0.41-0.4,0.65-0.49C11.15,19.22,10.51,18.98,10.55,18.75z"/>
	<path class="st18" d="M11.09,15.44c-0.12,0.52-0.46,0.85-0.9,1.04c-0.22,0.1-0.34-0.17-0.28-0.38c0.16-0.48,0.29-1.02,0.9-1.1
		C11.06,14.97,11.04,15.26,11.09,15.44z"/>
	<path class="st0" d="M18.27,17.78c0.77-0.84,1.74-0.45,2.65-0.38c-0.9,0.05-1.79,0.18-2.66,0.37
		C18.25,17.77,18.27,17.78,18.27,17.78z"/>
	<path class="st19" d="M21.15,20.63c0.23,0.01,0.45,0.02,0.68,0.04c0.38,0.31,0.82,0.27,1.26,0.22c0.86-0.18,1.73-0.16,2.59-0.01
		c0.28,0.11,0.49,0.31,0.87,0.22c1.64-0.41,2.47,0,2.71,1.26c0.26,1.36-0.61,2.59-2.01,2.86c-0.11,0.02-0.24,0.01-0.36,0.01
		c-1.06-0.6-2.09-0.37-2.84,0.43c-0.62,0.66-0.78,1.58-0.02,2.38c-0.63,0.54-1.01,1.27-1.47,1.93c-1.07,0.44-2.12,0.91-3.21,1.3
		c-1.65,0.59-3.22,0.59-4.77-0.45c-1.49-1.01-3.08-1.87-3.71-3.72c-0.13-0.38-0.33-0.73-0.25-1.15c0.16-0.55,0.84-0.16,1.14-0.67
		c-0.96-0.07-1.11-0.74-1.13-1.49c0-0.33-0.01-0.66-0.01-0.99c0.57,0.01,0.76,0.76,1.37,0.69c0.3,0.01,0.6-0.03,0.89-0.13
		c0.73-0.59,0.51-1.3,0.26-2.02c-0.04-0.52-0.68-0.51-0.83-0.94c-0.67-0.57-0.02-0.85,0.3-1.08c0.22-0.16,0.61-0.07,0.93-0.09
		c0.11-0.98,0.86-1.56,1.41-2.26c0.35-0.43,0.69-0.27,0.96,0.11c0.35,0.47,0.61,1.01,1.04,1.43c0.56,0.42,1.23,0.77,1.06,1.66
		c-0.05,0.19-0.5,0.42,0.06,0.54c0.24,0.65-0.41,1.59,0.62,1.99c0.26,0.05,0.53,0.06,0.79,0.04c1.46,0.12,1.24-1.17,1.62-1.95
		l-0.03-0.09L21.15,20.63z"/>
	<path class="st4" d="M34.84,22.07c0.08,0.25,0.15,0.5,0.23,0.74c-0.21,0.27-0.36,0.58-0.45,0.92c-0.54,0.3-0.86,0.81-1.2,1.3
		c-0.11,0.15-0.32,0.33-0.47,0.32c-0.32-0.02-0.25-0.34-0.28-0.56c-0.14-1.21-0.29-2.42-0.44-3.62c0-0.35,0-0.69,0-1.27
		C33.01,20.91,34.03,21.35,34.84,22.07z"/>
	<path class="st20" d="M19.2,33.4c-0.29-0.41-0.34-0.96-1.09-1.37c1.76-0.31,3.08-0.95,4.44-1.5c0,0.55,0.01,1.1,0.01,1.64
		c-0.29,0.06-0.57-0.3-0.87-0.02C20.98,32.81,19.98,32.89,19.2,33.4z"/>
	<path class="st21" d="M19.2,33.4c0.04-0.34,0.17-0.69,0.54-0.69c0.79,0,1.35-0.45,1.9-0.89c0.58-0.47,0.7,0.01,0.92,0.35
		c0.01,0.09,0.02,0.18,0.03,0.26c-0.8,0.35-1.55,0.77-2.27,1.26C20.01,33.93,19.28,34.56,19.2,33.4z"/>
	<path class="st22" d="M4.46,29.2c-0.17-0.55-0.21-1,0.07-1.52C4.86,28.44,4.86,28.44,4.46,29.2z"/>
	<path class="st23" d="M23.01,6.79c-0.58,0.2-1.03,0.51-0.92,1.2c0.11,0.69,0.66,0.7,1.2,0.7c-0.27,1.25-0.84,2.24-2.11,2.75
		c-1.41,0.56-2.85,0.93-4.38,0.79c-1.2-0.64-1.95-1.67-2.55-2.86c-0.02-1.12-0.89-1.29-1.71-1.53c-0.44-0.79-0.86-1.59-0.32-2.51
		c0.8,0.34,1.63,0.63,2.39,1.05c0.81,0.45,1.2,0.15,1.6-0.55c0.51-0.88,0.85-1.9,1.8-2.47c1.07,0.88,1.75,2.16,2.96,2.88
		c1.05-0.74,1.5-2.15,2.82-2.6C23.75,4.75,23.86,5.89,23.01,6.79z"/>
	<path class="st24" d="M14.66,11.82c-1.64,0-2.07-1.16-2.35-2.46c0.29-0.36-0.33-1.02,0.4-1.24c0.52,0.37,0.15,1.16,0.71,1.51
		c0.65,0.39,1.14,0.94,1.58,1.54C15.26,11.53,15.38,11.92,14.66,11.82z"/>
	<path class="st25" d="M12.71,8.18c-0.39,0.31-0.02,0.87-0.39,1.18c-0.29-1.2-0.61-2.39-0.87-3.59c-0.21-0.96,0.22-0.85,0.79-0.43
		c-0.06,0.94,0.28,1.79,0.57,2.66C12.82,8.08,12.79,8.14,12.71,8.18z"/>
	<path class="st26" d="M23.01,6.79c0.45-1,0.27-2.16,0.8-3.13c0.52-0.32,0.51-0.01,0.43,0.36C24.01,5,23.77,5.99,23.54,6.97
		C23.34,7,23.14,7,23.01,6.79z"/>
	<path class="st27" d="M14.66,11.82c0.13-0.05,0.4-0.12,0.28-0.25c-0.55-0.58-0.91-1.36-1.73-1.65c0.2-0.33,0.52-0.33,0.84-0.3
		c1,0.67,1.59,1.69,2.29,2.62C15.76,12.21,15.19,12.08,14.66,11.82z"/>
	<path class="st28" d="M20.98,6.26c-1.35-0.59-2.24-1.65-2.96-2.88c0.88,0.04,1.13,0.86,1.64,1.34C20.15,5.18,20.55,5.74,20.98,6.26
		z"/>
	<path class="st29" d="M16.35,12.23c-0.98-0.57-1.32-1.71-2.18-2.38c-0.14-0.27-0.13-0.46,0.24-0.48c0.8,0.96,1.6,1.91,2.4,2.87
		C16.65,12.23,16.5,12.23,16.35,12.23z"/>
	<path class="st30" d="M16.8,18.77c-0.29-0.37-0.65-0.71-0.86-1.13c-0.34-0.67-0.6-1.01-1.14-0.14c-0.37,0.6-0.84,1.15-1.27,1.72
		c-0.28-0.45-0.08-0.82,0.18-1.19c0.86-0.94,1.46-2.05,2.04-3.26c0.27,1.39,1.36,2.34,1.64,3.68C17.3,18.75,17.03,18.72,16.8,18.77z
		"/>
	<path class="st31" d="M12.09,23.76c-0.8,0.14-1.1-0.48-1.48-0.97c-0.13-0.62,0.08-1.19,0.24-1.76c0.44-0.46,0.91-0.7,1.46-0.17
		C12.17,21.82,12.09,22.78,12.09,23.76z"/>
	<path class="st32" d="M10.62,23.78c0.3,0.4,0.09,1.33,1.1,1.01c0.26-0.08,0.51,0.22,0.51,0.53c0,0.37-0.23,0.55-0.59,0.61
		c-0.34,0.05-0.69-0.25-1.02,0.02C10.62,25.22,10.62,24.5,10.62,23.78z"/>
	<path class="st0" d="M12.27,20.97c-0.5-0.52-0.95-0.13-1.42,0.06c0.19-0.87,0.95-0.46,1.45-0.64c0.34,0.15,0.7,0.28,1.01,0.47
		c0.26,0.16,0.13,0.29-0.11,0.32c-0.17,0.17-0.38,0.16-0.59,0.11C12.45,21.23,12.35,21.11,12.27,20.97z"/>
	<path class="st33" d="M29.55,30.73c-0.88,0.36-1.71,0.16-2.16-0.62c-0.46-0.77,0.17-1.39,0.71-1.92c0.22-0.22,0.49-0.39,0.73-0.58
		C28.48,28.78,28.01,29.99,29.55,30.73z"/>
	<path class="st34" d="M34.62,23.73c-0.46-0.6-0.31-0.91,0.45-0.92C35.54,23.42,35.43,23.74,34.62,23.73z"/>
	<path class="st0" d="M25.68,20.88c-0.86,0-1.73,0-2.59,0.01C23.95,20.54,24.81,20.56,25.68,20.88z"/>
	<path class="st35" d="M21.1,20.79c0.19,1.9,0.1,2.03-1.68,2.28c-0.19-0.74,0.05-1.64-0.76-2.16c-0.11-0.13-0.2-0.26-0.15-0.45
		C19.46,19.95,20.3,20.24,21.1,20.79z"/>
	<path class="st36" d="M16.8,18.77c0.1-0.28,0.38-0.24,0.59-0.32c0.91-0.11,1.11,0.91,1.94,1.02c-0.38,0.62-0.96,0.44-1.32,0.7
		C17.72,19.6,17.45,19.02,16.8,18.77z"/>
	<path class="st37" d="M18.51,20.46c0.09,0.07,0.17,0.14,0.26,0.21c-0.15,0.78-0.11,1.57-0.22,2.35c-1.17-0.56-0.86-1.43-0.49-2.32
		C18.22,20.62,18.36,20.54,18.51,20.46z"/>
	<path class="st38" d="M25.74,28.08c-1.41-0.01-1.86-0.53-1.44-1.68c0.39-0.09,0.85-0.15,0.43-0.72c0.63-0.37,1.36-0.48,1.9-0.04
		c0.54,0.44,0.4,1.15,0.06,1.75C26.22,27.42,26.03,27.82,25.74,28.08z"/>
	<path class="st39" d="M24.72,25.68c0.42,0.06,0.89,0.2,0.66,0.71c-0.26,0.59-0.72,0.19-1.09,0.01
		C24.26,26.05,24.46,25.85,24.72,25.68z"/>
	<path class="st40" d="M25.74,28.08c0.16-0.44,0.12-1.15,0.95-0.69C26.51,27.82,26.27,28.15,25.74,28.08z"/>
	<path class="st41" d="M18.46,27.08c-0.61,0.49-1.19,1.02-1.83,1.46c-0.67,0.45-1.94,0.11-2.33-0.56c-0.12-0.19-0.11-0.37,0.01-0.55
		c0.22-0.32,0.57-0.32,0.86-0.25C16.27,27.43,17.35,27.4,18.46,27.08z"/>
	<path class="st42" d="M20.48,25.22c-0.45-0.01-1.06-0.02-0.95-0.6c0.16-0.88,0.91-1.25,1.77-1.31c0.45-0.03,0.93-0.03,1.01,0.58
		C22.4,24.55,21.5,25.2,20.48,25.22z"/>
	<path class="st43" d="M12.27,20.97c0.13-0.03,0.21,0.03,0.23,0.16c0.94,0.78,1.01,1.15,0.45,2.45c-0.25,0.24-0.55,0.25-0.86,0.19
		C11.69,22.8,11.37,21.84,12.27,20.97z"/>
	<path class="st44" d="M18.55,23.02c-0.28-0.82-0.64-1.64,0.22-2.35c1.15,0.54,0.84,1.49,0.66,2.39
		C19.14,23.05,18.84,23.04,18.55,23.02z"/>
	<path class="st45" d="M27.84,22.13c0.6,0.03,1.02,0.35,0.92,0.94c-0.15,0.83-0.78,1.2-1.62,1.19c-0.16-0.27-0.28-0.57-0.39-0.86
		c-0.13-0.36-0.11-0.74,0.29-0.91c0.44-0.18,0.73,0.04,0.9,0.39C28.01,22.67,27.66,22.42,27.84,22.13z"/>
	<path class="st46" d="M27.84,22.13c0.3,0.5,0.47,1,0,1.51c-0.27-0.19-0.04-0.38-0.06-0.55c-0.04-0.32-0.22-0.54-0.55-0.47
		c-0.38,0.07-0.33,0.42-0.28,0.68c0.07,0.32,0.48,0.57,0.18,0.97c-0.83-0.3-0.77-1.02-0.64-1.63C26.65,21.9,27.3,22.07,27.84,22.13z
		"/>
	<path class="st47" d="M12.95,23.57c0.09-0.86,0.25-1.73-0.45-2.45c0.23,0.02,0.46,0.04,0.7,0.06
		C13.91,22.21,13.83,22.98,12.95,23.57z"/>
	<path class="st48" d="M14.92,26.67c-0.2,0.01-0.4,0.06-0.59,0.03c-0.65-0.08-1.27-0.25-1.37-1.04c-0.06-0.5,0.49-0.95,1.33-1.18
		c-0.07,0.58-1.07,0.51-0.88,1.27C13.92,26.06,14.74,25.84,14.92,26.67z"/>
	<path class="st49" d="M14.92,26.67c-0.4-0.46-1.18-0.31-1.5-0.91c0.46-0.01,0.95-0.12,1.37-0.01C15.4,25.9,15.72,26.25,14.92,26.67
		z"/>
	<path class="st50" d="M14.41,9.37c-0.08,0.16-0.16,0.32-0.24,0.48c-0.32,0.02-0.64,0.04-0.95,0.07c-0.75-0.41-0.5-1.11-0.5-1.74
		c0.05-0.05,0.08-0.11,0.09-0.18C13.93,7.57,14.31,7.89,14.41,9.37z"/>
	<path class="st51" d="M19.04,8.19c0,0.55-0.23,0.96-0.83,0.91c-0.57-0.05-1.16-0.23-1.09-0.97c0.04-0.52,0.21-1.06,0.91-1
		C18.65,7.18,19.07,7.48,19.04,8.19z"/>
	<path class="st52" d="M13.94,8.82c-0.02,0.29-0.06,0.52-0.31,0.47c-0.26-0.05-0.57-0.13-0.45-0.52c0.06-0.2,0.03-0.54,0.37-0.49
		C13.86,8.33,13.92,8.62,13.94,8.82z"/>
	<path class="st53" d="M18.29,8.55c-0.23-0.18-0.77-0.03-0.7-0.58c0.03-0.25,0.21-0.46,0.47-0.41c0.37,0.08,0.63,0.33,0.63,0.73
		C18.71,8.51,18.55,8.63,18.29,8.55z"/>
</g>
</svg>
