<?xml version="1.0" encoding="utf-8"?>
<!-- Generator: Adobe Illustrator 23.0.2, SVG Export Plug-In . SVG Version: 6.00 Build 0)  -->
<svg version="1.1" id="Camada_1" xmlns="http://www.w3.org/2000/svg" xmlns:xlink="http://www.w3.org/1999/xlink" x="0px" y="0px"
	 viewBox="0 0 57.36 72.24" style="enable-background:new 0 0 57.36 72.24;" xml:space="preserve">
<style type="text/css">
	.st0{fill:#493112;}
	.st1{fill:#936A1D;}
	.st2{fill:#853C1F;}
	.st3{fill:#A47F3C;}
	.st4{fill:#E3B285;}
	.st5{fill:#7F5E24;}
	.st6{fill:#7F5F24;}
	.st7{fill:#7D5D22;}
	.st8{fill:#422A0F;}
	.st9{fill:#883B1F;}
	.st10{fill:#D0A03A;}
	.st11{fill:#D8B678;}
	.st12{fill:#8A3E21;}
	.st13{fill:#C2775A;}
	.st14{fill:#DBB97A;}
	.st15{fill:#E1BE7E;}
	.st16{fill:#40290A;}
	.st17{fill:#C3785B;}
	.st18{fill:#816025;}
	.st19{fill:#C4785B;}
	.st20{fill:#D9B678;}
	.st21{fill:#A5803C;}
	.st22{fill:#DAB879;}
	.st23{fill:#422B0D;}
	.st24{fill:#A6813D;}
	.st25{fill:#C57A5C;}
	.st26{fill:#A8694B;}
	.st27{fill:#F4DA50;}
	.st28{fill:#F7F2F3;}
	.st29{fill:#D0A13B;}
	.st30{fill:#F7F1EA;}
	.st31{fill:#F7F2F5;}
	.st32{fill:#D1A23B;}
	.st33{fill:#32130E;}
	.st34{fill:#412B0D;}
	.st35{fill:#F6EEF5;}
	.st36{fill:#F7F0F6;}
	.st37{fill:#31130D;}
	.st38{fill:#C3785A;}
	.st39{fill:#84361A;}
	.st40{fill:#E4DDDD;}
	.st41{fill:#C27A5C;}
	.st42{fill:#D7B475;}
	.st43{fill:#5E1015;}
	.st44{fill:#5D0E15;}
	.st45{fill:#661D1D;}
	.st46{fill:#07A2E1;}
	.st47{fill:#A6803D;}
	.st48{fill:#089FDB;}
	.st49{fill:#A22D2B;}
	.st50{fill:#A12C2A;}
	.st51{fill:#F2E3E4;}
	.st52{fill:#BF4A44;}
	.st53{fill:#9F312B;}
</style>
<g>
	<path d="M7.43,36.01c-1.7,0.49-3.3,0.51-4.83-0.3C1.41,35.08,1.32,34,2.45,33.33c1.91-1.12,2.94-2.95,4.21-4.74
		c-0.77-0.2-1.41-0.38-2.05-0.54c-0.68-0.17-1.13-0.55-1.25-1.27c-0.13-0.76,0.14-1.34,0.83-1.68c2.87-1.43,5.04-3.75,7.42-5.81
		c0.47-0.4,0.55-0.76,0.39-1.32c-0.89-3.2-1.32-6.48-1.63-9.78c-0.17-1.8,0.58-2.41,2.36-2.02c0.15,0.03,0.3,0.09,0.46,0.13
		c0.72,0.23,1.47,0.71,2.15,0.62c0.76-0.1,0.68-1.18,1.12-1.76c0.69-0.9,1.44-1.18,2.6-0.44c1.27,0.81,2.07,0.55,2.95-0.53
		c0.65-0.8,1.48-1.45,2.23-2.17c0.7-0.68,1.4-0.64,2.1,0c0.8,0.72,1.61,1.43,2.4,2.17c0.34,0.32,0.56,0.39,0.98,0.02
		c1.31-1.21,2.12-1.3,3.19,0.06c1.09,1.37,2.1,1.36,3.52,0.7c1.59-0.74,3.3-1.15,5.1-0.98c0.81,0.08,1.44,0.46,1.19,1.27
		c-0.66,2.12-0.39,4.28-0.44,6.42c-0.04,1.72-0.06,3.43-0.45,5.11c-0.17,0.72,0.01,1.1,0.73,1.46c3.38,1.67,7.04,2.44,10.61,3.51
		c0.68,0.2,1.37,0.4,2.04,0.65c1.19,0.45,1.44,1.35,0.6,2.32c-1.26,1.46-2.72,2.71-4.56,3.4c-0.66,0.24-0.78,0.38-0.42,1.03
		c1.1,2.03,2.28,4.02,3.51,5.97c0.94,1.49,0.7,2.26-0.91,2.99c-0.29,0.13-0.58,0.26-0.89,0.35c-0.66,0.17-0.94,0.49-0.9,1.26
		c0.12,2.13-0.93,3.91-1.94,5.67c-0.34,0.6-0.47,0.97,0.23,1.42c1.4,0.9,2.6,2.05,4.34,2.42c1.3,0.28,1.6,1.6,0.71,2.64
		c-1.73,2.02-3.81,3.39-6.59,3.39c-0.72,0-1.22,0.04-1.37,1.01c-0.16,0.99-0.93,1.75-1.75,2.35c-0.49,0.36-1.14,0.59-1.68,0.19
		c-0.93-0.7-0.95-0.14-1.11,0.61c-0.29,1.36-0.49,3-1.75,3.68c-2.6,1.41-4.71,3.8-7.75,4.32c-2.1,0.37-3.83,1.71-5.92,2.02
		c-0.3,0.04-0.46,0.26-0.6,0.52c-0.78,1.48-2.32,1.57-3.39,0.27c-0.96-1.17-2.38-1.59-3.78-1.86c-2.42-0.48-4.71-1.17-6.57-2.89
		c-0.17-0.16-0.37-0.25-0.63-0.29c-5.64-0.82-7.04-7.02-4.41-10.35c0.4-0.5,1.02-0.88,0.19-1.72c-0.57-0.58-0.26-1.5,0.5-2.06
		c2.42-1.78,2.63-4.45,1.29-6.88C8.26,41.62,7.54,38.95,7.43,36.01z"/>
	<path class="st0" d="M40.12,18.16c2.9,2.02,6.28,2.86,9.59,3.84c1.53,0.45,3.06,0.89,4.59,1.32c0.62,0.17,0.82,0.38,0.28,0.94
		c-1.27,1.3-2.6,2.46-4.39,3c-1.36,0.41-1.41,0.57-0.73,1.84c1.16,2.18,2.35,4.36,3.77,6.39c0.56,0.81,0.63,1.44-0.44,1.62
		c-2.07,0.35-2.46,1.54-2.43,3.49c0.02,1.83-1.17,3.44-2.15,5c-0.43,0.68-0.44,1.01,0.27,1.53c1.67,1.23,3.19,2.64,5.26,3.21
		c0.81,0.22,0.43,0.63,0.09,1.04c-1.64,1.91-3.74,2.85-6.23,2.75c-1.15-0.05-1.74,0.25-1.7,1.47c0.03,0.85-0.54,1.38-1.1,1.91
		c-0.31,0.29-0.6,0.27-0.96,0.03c-0.34-0.23-0.55-0.99-1.14-0.48c-0.57,0.49-1.44,0.7-1.39,1.77c0.05,1.05-0.36,2.03-0.92,2.93
		c-0.21,0.33-0.48,0.65-0.78,0.89c-0.26,0.21-0.59,0.51-0.97,0.31c-0.34-0.18-0.2-0.57-0.21-0.87c-0.03-0.56-0.19-1.06-0.58-1.77
		c-0.18,1.06,0.33,1.9-0.21,2.72c-0.9,1.37-2.18,2.21-3.6,2.86c-0.72,0.33-1.49,0.6-2.31,0.51c-0.33-0.03-0.61,0.08-0.9,0.26
		c-1.05,0.67-2.2,1.13-3.41,1.43c-0.92,0.23-1.72,0.54-2.13,1.51c-0.23,0.55-0.8,0.53-1.07,0.14c-1.14-1.61-2.9-2.15-4.63-2.5
		c-3.24-0.66-6.12-1.75-7.84-4.85c-0.37,0.56,0.45,1.23-0.17,1.48c-0.49,0.19-1.02-0.34-1.5-0.61c-2.89-1.65-3.13-6.21-1.26-7.94
		c0.32-0.29,0.54-0.69,0.77-1.06c0.32-0.51,0.69-0.98-0.26-1.35c-0.68-0.27-0.42-0.71,0.07-1.05c1.55-1.08,1.83-2.84,2.34-4.46
		c0.08-0.27-0.08-0.61-0.14-0.93c0.21-0.22,0.44-0.38,0.77-0.26c0.16,0.1,0.27,0.23,0.33,0.4c-0.01,2.1-0.79,3.91-2.1,5.51
		c0.93,0.36,1.64,0.1,2.52-0.86c0.35-0.38,0.54-1.22,1.19-0.95c0.63,0.26-0.01,0.92,0.09,1.4c0.06,0.31,0.06,0.63,0.07,1.07
		c1.42-0.31,2.41-1.07,3.02-2.3c0.34-0.68,0.61-1.39,0.8-2.13c0.21-0.72,0.31-1.46,0.45-2.19c0.06-0.32,0.24-0.66,0.58-0.64
		c0.38,0.02,0.41,0.42,0.45,0.73c0.05,0.35,0.04,0.7,0.03,1.05c-0.34,1.98-0.97,3.83-2.34,5.35c-0.88,0.72-1.92,1.1-2.98,1.42
		c-0.51,0.16-1.12,0.29-1.39-0.45c-0.04-0.28,0.12-0.53,0.14-0.96c-0.61,0.82-1.53,0.65-2.23,1.04c-0.57,0.77-1.07,1.59-1.58,2.4
		c-1.29,2.02-0.92,4.44,0.9,6.02c0.42,0.01,0.47-0.39,0.65-0.62c0.53-0.66,1.03-0.7,1.53,0.03c1.28,2.59,3.42,3.94,6.22,4.43
		c2.13,0.38,4.12,1.14,5.83,2.52c0.81-0.71,0.93-1.79,1.45-2.65c0.23-0.37,0.3-1,1-0.63c0.17,0.26,0.19,0.54,0.16,0.83
		c-0.04,0.39-0.25,0.75-0.33,1.15c2.97-0.43,4.73-1.86,5.17-4.16c0.15-0.78,0.01-1.56-0.03-2.34c-0.04-0.69,0.14-1.24,1.02-0.74
		c0.47,1.75,0.31,3.46-0.34,5.15c1.63,0.14,4.08-1.82,4.24-3.35c0.03-0.24,0-0.48,0.02-0.72c0.06-0.6-0.18-1.41,0.73-1.54
		c0.8-0.12,1.36,0.34,1.69,1.07c0.06,0.14,0.07,0.31,0.23,0.56c0.89-1.65,1.18-3.32,0.77-5.08c-0.2-0.9-0.57-1.75-1.06-2.54
		c-0.5-0.81-0.89-1.43-2.16-0.9c-1.34,0.56-2.72-0.26-4.01-0.79c-2.72-1.45-4.67-3.79-6.78-5.93c-0.34-0.35-0.92-0.93-0.55-1.29
		c0.54-0.53,0.95,0.23,1.32,0.58c0.9,0.84,1.75,1.74,2.63,2.59c1.61,1.98,4.03,3.06,6.02,3.65c0.06-0.19-0.1-0.27-0.18-0.39
		c-0.15-0.22-0.44-0.45-0.2-0.73c0.2-0.24,0.52-0.13,0.79-0.05c0.77,0.21,1.52,0.51,2.29,0.71c0.78,0.2,1.56,0.38,2.3-0.13
		c0.08-0.39-0.26-0.47-0.46-0.62c-2.68-1.95-4.74-4.35-5.83-7.55c-0.84-2.47-2.43-4.3-5.06-5.02c-1.38-0.38-2.77-0.31-4.15-0.02
		c-0.44-0.05-0.97,0.32-1.31-0.26c0.01-0.37,0.27-0.54,0.53-0.73c0.6-0.43,1.34-0.24,1.98-0.47c3.77-0.39,6.59,1.1,8.51,4.35
		c1.02,1.97,1.53,4.22,3.09,5.92c0.49,0.53,0.9,1.13,1.66,1.31c0.11,0.04,0.2,0.11,0.27,0.2c0.32,0.68,0.87,1.12,1.51,1.47
		c1.32,0.73,1.31,1.66,0.02,2.47c-0.41,0.26-0.88,0.35-1.56,0.49c0.8,1.25,1.48,2.45,1.7,3.96c0.79-0.4,1.52-0.66,2.24-0.03
		c0.24,0.21,0.53,0.06,0.72-0.19c0.22-0.29,0.34-0.63,0.42-0.98c0.42-2.02,0.43-2.03,2.51-2.01c0.97,0.01,1.9-0.19,2.82-0.45
		c0.89-0.3,1.57-0.91,2.37-1.63c-2.11-0.91-3.72-2.38-5.46-3.68c-0.67-0.5-0.72-0.97-0.32-1.62c0.65-1.05,1.26-2.13,1.79-3.26
		c0.2-0.43,0.41-0.87,0.53-1.33c0.19-0.71,0.19-1.43,0.11-2.14c-0.11-1.02-1.18-0.4-1.62-0.89c-0.24-0.67,0.25-0.77,0.68-0.79
		c1.02-0.04,1.91-0.49,2.85-0.76c0.93-0.27,1.06-0.67,0.48-1.4c-0.15-0.18-0.24-0.41-0.38-0.6c-0.97-1.63-1.97-3.25-2.8-4.97
		c-0.78-1.62-0.89-1.65-2.66-1.42c-0.75,0.1-1.51,0.22-2.04-0.52c0.23-0.5,0.71-0.42,1.13-0.48c1.98-0.31,4.03-0.35,5.88-1.26
		c0.97-0.49,1.8-1.17,2.67-1.98c-0.54-0.25-1.07-0.29-1.59-0.41c-3.11-0.72-6.24-1.4-9.18-2.67C40.86,20,38.96,19,37.17,17.82
		c-0.05-0.32,0.04-0.6,0.24-0.85c0.51-0.24,0.91,0.04,1.33,0.25C39.18,17.55,39.76,17.69,40.12,18.16z"/>
	<path class="st0" d="M9.38,33.54c-0.72,0.4-1.46,0.78-2.16,1.2c-1.13,0.68-2.3,0.5-3.47,0.19c-0.76-0.2-0.63-0.65-0.13-0.99
		c2.01-1.37,3.11-3.48,4.46-5.39c0.52-0.74,0.41-1-0.51-1.08c-0.74-0.06-1.48-0.29-2.22-0.43c-0.32-0.06-0.65-0.11-0.72-0.5
		c-0.07-0.36,0.23-0.5,0.46-0.62c3.06-1.58,5.35-4.11,7.91-6.32c0.25-0.22,0.46-0.43,0.54-0.76c0.24,0.17,0.5-0.07,0.75,0.02
		c0.16,0.16,0.25,0.35,0.25,0.58c-1.01,1.3-2.38,2.21-3.54,3.34c-1.3,1.28-2.7,2.47-4.27,3.41c1.34,0.49,2.6,0.45,3.87-0.28
		c2.67-1.52,5.03-3.46,7.39-5.39c0.7-0.66,1.52-1.17,2.27-1.76c1.03-0.8,2-0.77,3.07-0.06c3.25,2.18,6.81,3.67,10.6,4.63
		c3.36,0.85,6.78,1.3,9.76,1.63c-2.76,0-5.55-1.34-8.26-2.87c-0.63-0.35-1.19-0.8-1.63-1.39c-0.17-0.23-0.35-0.51-0.17-0.77
		c0.2-0.28,0.51-0.11,0.76-0.01c0.19,0.07,0.35,0.2,0.51,0.31c3.2,2.1,6.67,3.41,10.52,3.61c0.08,0,0.16,0.01,0.24,0.02
		c0.5,0.11,1.16,0.12,1.25,0.72c0.1,0.67-0.51,0.91-1.05,1.12c-0.19,0.07-0.37,0.15-0.57,0.2c-2.11,0.52-4.22,0.22-6.32-0.01
		c-0.48-0.02-0.93-0.18-1.4-0.3c0.29,0.77,0.72,1.3,1.58,1.57c1.6,0.49,1.71,1.01,0.68,2.36c-0.47,0.41-0.99,0.77,0.03,1.21
		c1.45,0.62,1.43,0.66,1.33,2.34c-0.01,0.24,0.07,0.47,0.08,0.71c0,0.19-0.05,0.35-0.18,0.49c-0.65,0.21-0.87-0.26-1.11-0.7
		c0.18-1.08-0.19-1.74-1.25-2.24c-1.21-0.57-1.21-1.02-0.29-2.03c0.32-0.36,0.33-0.58-0.05-0.85c-0.32-0.23-0.7-0.38-0.99-0.64
		c-0.2-0.22-0.31-0.48-0.43-0.74c-0.47-1.21-1.38-1.86-2.63-2.1c-0.5-0.1-0.99-0.25-1.47-0.41c-0.86-0.35-1.79-0.48-2.65-0.82
		c-2.73-0.91-5.29-2.19-7.63-3.87c-0.7-0.5-1.17-0.52-1.85,0.09c-1.5,1.36-3.07,2.65-4.72,3.83c-0.29,0.2-0.61,0.39-0.72,0.76
		c-0.02,0.21,0.01,0.44-0.16,0.62c-1.26,0.26-2.39,0.74-3.15,1.85c-0.18,0.24-0.11,0.43,0.11,0.59c-0.09,0.23-0.28,0.29-0.5,0.31
		c-0.42-0.06-0.86,0.04-1.28-0.1c-0.77-0.38-0.97,0.26-1.24,0.72c-1.25,2.13-2.59,4.19-4.39,5.83c0.15-0.24,0.44-0.2,0.71-0.23
		c1.08,0.04,1.92-0.6,2.84-1.01c0.4-0.17,0.74-0.63,1.27-0.31C9.61,33.12,9.6,33.35,9.38,33.54z"/>
	<path class="st1" d="M14.19,18.87c-0.23,0.31-0.45,0.42-0.66-0.01c-1.17-3.46-1.57-7.06-1.95-10.67c-0.09-0.87,0.27-1.08,1.03-0.82
		c0.9,0.32,1.82,0.6,2.68,0.99c0.56,0.25,0.89,0.23,1.11-0.37c0.08-0.22,0.2-0.44,0.31-0.65c1.12-2.13,0.57-2.28,3.06-0.89
		c0.83,0.47,1.23,0.41,1.84-0.26c0.94-1.03,2.04-1.91,3.03-2.89c0.45-0.45,0.72-0.56,1.24-0.04c0.88,0.87,1.9,1.59,2.79,2.44
		c0.56,0.54,0.88,0.39,1.35-0.1c1.32-1.37,1.34-1.35,2.66,0.03c1.4,1.46,1.4,1.48,3.29,0.74c1.38-0.54,2.77-1,4.25-1.19
		c0.86-0.11,1.19,0.23,1.05,1.07c-0.35,2.02-0.27,4.07-0.2,6.09c0.05,1.7-0.35,3.32-0.51,4.99c-0.03,0.34-0.25,0.58-0.44,0.83
		c-0.57-0.06-1.02-0.35-1.46-0.69c0.04-0.12,0.1-0.24,0.17-0.35c0.72-1.15,0.58-2.5,0.62-3.72c0.08-2.3,0.41-4.59,0.22-6.89
		c-0.19-0.17-0.39-0.09-0.6-0.04c-1.98,0.61-3.94,1.3-5.83,2.16C32,9.2,31.01,9,29.93,8.22c-1.56-1.13-2.78-2.63-4.23-3.87
		c-0.76-0.14-1.17,0.45-1.6,0.87c-1.31,1.29-2.7,2.5-3.84,3.96c-0.35,0.45-0.84,0.73-1.29,1.07c-0.33,0.2-0.69,0.18-1.04,0.07
		c-1.47-0.48-2.95-0.93-4.36-1.58c-0.29-0.19-0.6-0.55-0.94-0.29c-0.27,0.2-0.07,0.6-0.03,0.91c0.38,3.09,1.04,6.13,1.7,9.17
		C14.31,18.66,14.27,18.77,14.19,18.87z"/>
	<path class="st2" d="M9.38,33.54c0.01-0.25,0.01-0.49,0.02-0.74c-0.62-0.92-0.27-1.94-0.32-2.93c0.23-0.83,0.26-1.78,1.29-2.12
		c0.42-0.02,0.84-0.35,1.25,0.04c0.01,0.57-0.46,0.85-0.75,1.25c-0.6,0.79-0.47,1.77-0.55,2.65c-0.14,1.58-0.25,3.17-0.35,4.76
		c-0.14,2.17,0.34,4.19,1.32,6.11c0.31,0.6,0.52,1.24,0.56,1.92c0-0.41-0.2-0.92,0.57-0.77c0.25,0.86,0.4,1.71-0.14,2.52
		c-0.22,0.07-0.45,0.15-0.67,0.22c-0.29-1.32-0.74-2.56-1.35-3.78C8.83,39.77,7.97,36.75,9.38,33.54z"/>
	<path class="st3" d="M13.23,53.44c0.13,0.7,0.66,0.48,1.04,0.39c1.09-0.27,2.1-0.74,3.04-1.36c1.46-1.36,2.62-2.85,2.2-5.04
		c-0.07-0.57,0.13-1.16-0.21-1.92c-0.48,1.11-0.24,2.23-0.81,3.12c-0.65,0.87-1.44,1.58-2.33,2.18c-0.48,0.32-0.85,0.46-0.89-0.39
		c-0.07-1.3-0.36-1.41-1.53-0.71c-0.33,0.2-0.63,0.69-1.12,0.24c-0.14-0.31-0.1-0.63-0.03-0.94c0.45-2.27,0.9-4.54,1.33-6.82
		c0.38-2.02,1.69-3.27,3.4-4.22c1.2,0.23,2.42,0.27,3.64,0.27c1.1,0,1.98-0.71,3.03-0.82c0.42-0.01,0.83-0.03,1.25-0.04
		c4.52,0.44,7.83,2.63,9.81,6.75c0.68,1.42,1.57,2.67,2.58,3.85c0.44,0.52,0.89,1.03,1.24,1.61c0.32,0.52,0.17,0.84-0.5,0.77
		c-0.28-0.03-0.54-0.13-0.82-0.17c-1.27-0.18-2.44-0.66-3.83-0.56c-1.47,0.11-3.04-0.49-4.17-1.71c-1.18-1.12-2.35-2.23-3.53-3.35
		c0.78,1.54,2.07,2.64,3.18,3.88c1.13,1.27,2.57,2.13,3.93,3.09c2.52,2.22,3.37,5.03,2.97,8.3c-0.2,1.62-0.91,2.64-2.05,2.94
		c-0.68,0.18-1.06,0.1-1.02-0.75c0.03-0.63,0.12-1.27-0.07-1.9c-0.8-0.47-0.79,0.03-0.68,0.59c0.17,0.86,0.38,1.71-0.06,2.55
		c-1.48,0.52-2.5,1.76-3.86,2.47c-0.44,0.23-0.86,0.6-1.43,0.39c-0.02-0.31-0.03-0.61-0.05-0.92c-0.25-0.27-0.19-0.69-0.53-1.02
		c-0.61,0.31-0.77,0.96-0.97,1.52c-0.34,0.94-0.87,1.26-1.83,0.88c-0.85-0.34-1.76-0.5-2.66-0.69c-2.53-0.53-4.84-1.57-6.91-3.13
		c-0.69-0.52-1.19-1.16-1.59-1.91c-0.22-0.41-0.45-0.72-1.01-0.3c-0.65,0.48-1.12,0.24-1.26-0.62c-0.14-0.91-0.16-1.84,0.03-2.74
		c0.21-1.02,0.61-1.98,1.14-2.88C11.71,53.63,12.28,53.08,13.23,53.44z"/>
	<path class="st4" d="M10.83,28.72c0.26-0.31,0.52-0.61,0.79-0.92c0.16-0.08,0.32-0.16,0.48-0.25c1.34-1.05,2.81-0.87,4.31-0.45
		c0.39,0.11,0.91,0.56,1.19,0.13c0.34-0.53-0.09-1.05-0.48-1.47c-0.27-0.29-0.66-0.46-0.83-0.85c-0.04-0.63,0.45-0.89,0.84-1.22
		c1.38-1.15,2.87-2.16,4.21-3.36c0.56-0.5,1.06-0.53,1.71-0.1c1.47,0.96,3.01,1.81,4.57,2.61c0.35,0.18,0.77,0.33,0.55,0.88
		c-0.45,0.36-1.05,0.31-1.55,0.57c-0.93,0.48-1.42,1.25-1.61,2.24c-0.11,0.54,0.06,0.82,0.63,0.54c2.74-1.39,5.4-0.95,8.03,0.31
		c0.33,0.16,0.69,0.61,1.05,0.25c0.27-0.28-0.11-0.66-0.19-1c-0.03-0.12-0.04-0.23-0.02-0.36c0.8-0.43,1.76-0.15,2.74,0.79
		c0.09,0.23,0.18,0.46,0.26,0.68c0.41,0.51,0.4,1.15,0.28,1.7c-0.28,1.24,0.36,1.97,1.27,2.53c0.62,0.38,0.98,0.86,1.08,1.56
		c0.3,0.27,0.47,0.7,0.94,0.76c0.34-0.09,0.68-0.18,1.02-0.28c0.75-0.1,0.92-0.84,1.39-1.25c0.64-0.32,1.07,0.08,1.46,0.48
		c1.45,1.46,1.84,3.26,1.33,5.18c-0.5,1.87-1.58,3.32-3.69,3.58c-0.61,0.08-0.66,0.42-0.69,0.89c-0.07,1.21-0.41,2.35-0.96,3.42
		c-0.2,0.39-0.38,0.8-0.83,0.97c-0.72,0-0.97-0.6-1.3-1.07c-1.3-1.84-2.74-3.58-3.97-5.47c-1.91-3.12-4.68-4.58-8.35-4.29
		c-1.35,0.08-2.66,0.36-3.98,0.69c-1.73,0.44-3.49,0.46-4.91-0.95c-0.31-0.7,0.11-1.15,0.59-1.52c0.53-0.42,1.12-0.77,1.77-0.99
		c-0.52,0.03-0.98,0.25-1.46,0.44c-0.39,0.16-0.78,0.47-1.22,0.11c-0.15-0.73,0.13-1.5-0.14-2.22c-0.89-1.63-2.17-2.2-3.74-1.65
		c-0.89,0.31-1.09,0.74-0.73,1.55c0.21,0.42,0.13,0.85,0.03,1.28c-0.18,0.8,0.15,1.4,0.78,1.85c0.66,0.47,1.35,0.62,2.11,0.17
		c0.4-0.23,0.75-0.62,1.28-0.52c0.29,0.42,0.02,0.76-0.19,1.07c-0.36,0.51-0.29,1.12-0.48,1.67c-1.58,0.99-2.62,2.38-3.13,4.18
		c-0.11,0.4-0.24,0.87-0.8,0.93c-1.41-0.79-1.8-2.18-1.96-3.6c-0.15-1.34-0.15-2.71,0.16-4.04C10.94,32.85,10.55,30.77,10.83,28.72z
		"/>
	<path class="st3" d="M45.41,25.6c0.43-0.36,1.44-0.23,1.29-0.95c-0.1-0.48-0.98-0.51-1.59-0.53c-3.87-0.14-7.28-1.59-10.48-3.65
		c-0.28-0.18-0.5-0.5-0.91-0.48c1.1,2.11,5.69,4.15,11.52,5.03c-2.62,0.26-4.87-0.09-7.11-0.46c-5.52-0.91-10.75-2.64-15.4-5.86
		c-0.59-0.41-1.19-0.44-1.78-0.01c-0.97,0.7-1.92,1.42-2.88,2.13c-1.06,0.39-1.94,1.03-2.78,1.79c-1.79,1.61-3.93,2.66-6.11,3.63
		c-0.43,0.19-0.9,0.42-1.26-0.14c-0.02-0.17,0.01-0.34,0.15-0.43c2.41-1.59,4.28-3.75,6.23-5.83c1.74-1.85,4.05-2.76,6.46-3.38
		c0.39-0.1,0.77-0.2,1.14-0.35c0.42-0.04,0.83,0.07,1.24,0.14c1.48,0.02,2.88-0.35,4.24-0.88c2.18-0.26,4,0.76,5.85,1.66
		c0.62,0.3,1.14,0.78,1.78,1.06c0.16,0.05-0.01-0.2,0-0.04c0,0.06-0.04,0.08-0.1,0.02c-0.35-0.34-1.16-0.49-0.94-1.05
		c0.25-0.62,0.98-0.31,1.5-0.17c0.64,0.17,1.35,0.21,1.81,0.81c5.22,3.13,10.92,4.93,17.1,5.99c-1.13,0.99-1.96,1.96-3.19,2.41
		c-1.54,0.23-3.08,0.14-4.63,0.11C46.1,26.18,45.53,26.27,45.41,25.6z"/>
	<path class="st3" d="M47.81,38.07c1.99,0.1,1.99,0.1,1.93,2.15c-0.05,1.67-1,3.01-1.76,4.39c-1.13,2.07-1.19,2.07,0.67,3.45
		c1.43,1.07,2.75,2.31,4.67,2.79c-0.93,0.94-1.68,1.81-2.87,2.09c-0.76-0.18-1.44-0.59-1.98-1.08c-2.42-2.19-4.82-4.42-6.62-7.2
		c-0.14-0.45,0.08-0.87,0.08-1.3c0-0.94,0.32-1.47,1.39-1.51c1.16-0.04,1.79-0.92,2.39-1.8c0.48-0.7,0.66-1.54,1.09-2.26
		C47.23,37.53,47.55,37.68,47.81,38.07z"/>
	<path class="st5" d="M42.05,44.79c1.65,1.76,3.21,3.6,4.9,5.33c1.07,1.09,2.41,1.79,3.5,2.82c-1.24,0.53-2.58,0.66-3.87,0.44
		c-1.05-0.17-1.19,0.28-1.16,1.05c0.03,0.71-0.17,1.34-0.53,1.93c-0.34,0.56-0.72,0.91-1.27,0.21c-0.48-0.61-0.96-0.62-1.47-0.02
		c-0.14,0.17-0.41,0.37-0.58,0.34c-0.37-0.06-0.22-0.44-0.26-0.7c-0.19-1.29-0.75-2.44-1.53-3.45c-0.43-0.56-0.34-0.79,0.34-0.73
		c0.61,0.05,1.08-0.22,1.54-0.55c0.9-0.66,0.79-1.14-0.19-1.71c-0.7-0.4-1.72-0.65-1.58-1.83c0.65-0.96,1.3-1.92,1.77-2.99
		C41.72,44.79,41.88,44.73,42.05,44.79z"/>
	<path class="st5" d="M32.95,60.15c0.49,0.77,0,1.65,0.29,2.44c1.7-0.22,2.41-1.08,2.57-2.92c0.23-2.65-0.23-5.06-2.1-7.08
		c-0.26-0.28-0.39-0.68-0.58-1.02c0.79,0.26,1.57,0.58,2.37,0.77c0.72,0.17,1.48,0.54,2.11-0.39c0.28-0.42,0.82,0.02,1.13,0.28
		c2.35,1.99,2.77,7.26,0.79,9.58c-0.04,0.05-0.14,0.06-0.31,0.14c-0.05-0.47-0.01-0.96-0.17-1.36c-0.24-0.59-0.78-0.97-1.42-0.87
		c-0.64,0.1-0.38,0.7-0.39,1.09c-0.04,2.3-2.05,4.56-4.38,4.86c-0.23,0.03-0.47,0-1.01,0C33.26,63.9,32.85,61.99,32.95,60.15z"/>
	<path class="st3" d="M39.64,29.44c0.96-1.42,0.97-1.62-0.62-1.93c-1.32-0.26-1.32-1.41-2.06-2.15c0.69-0.1,1.2,0.1,1.72,0.27
		c1.72,0.81,3.59,1.27,5.29,2.13c1.06,0.35,2.12,0.07,3.17,0c0.65-0.04,1.03,0.17,1.29,0.76c0.91,2.07,2.13,3.98,3.23,5.94
		c-0.35,0.69-0.72,0.1-0.99-0.04c-2.8-1.41-5.68-2.65-8.61-3.79c-0.59-0.23-1.2-0.41-1.8-0.63C39.98,29.92,39.58,29.9,39.64,29.44z"
		/>
	<path class="st5" d="M39.64,29.44c4.1,1.42,8.07,3.15,11.93,5.12c0.01,0.01,0.05-0.05,0.08-0.08c1.16,1.78,1.16,1.77-0.74,2.55
		c-0.78,0.32-1.54,0.64-2.41,0.59c-0.33-0.02-0.66,0-0.69,0.46c-0.3-0.13-0.6-0.29-0.95-0.22c-0.39-0.33-0.31-0.8-0.32-1.23
		c-0.01-1.31-0.52-2.39-1.4-3.34c-1.03-1.12-1.85-1.16-2.95-0.14c-0.31,0.28-0.54,0.72-1.08,0.6c-0.18-0.32-0.46-0.53-0.17-1.03
		c0.42-0.73,0.23-1.37-0.73-1.55c-0.12-0.02-0.23-0.05-0.34-0.09C38.59,30.59,38.55,30.33,39.64,29.44z"/>
	<path class="st6" d="M29.55,47.93c1.1,0.43,2.02,1.27,3.34,1.26c0.53,0,1.02,0.43,1.61-0.02c0.27-0.21,0.68,0.05,1.03,0.15
		c1.08,0.31,2.18,0.59,3.36,0.77c-2.81-2.71-4.01-6.49-6.56-9.34c-1.5-1.68-3.58-2.13-5.53-2.88c-0.51-0.2-1.09-0.16-1.57-0.48
		c3.66-1.03,7.41,0.45,8.88,3.93c1.62,3.83,3.64,7.23,7.4,9.33c-1.1,0.99-1.1,0.99-5.99-0.23c0,0.07-0.03,0.15,0,0.2
		c0.28,0.4,1.15,0.65,0.84,1.14c-0.34,0.54-1-0.02-1.46-0.22C32.91,50.65,30.86,49.83,29.55,47.93z"/>
	<path class="st7" d="M13.23,53.44c-1.52,0.43-2.81,2.28-2.85,4.32c-0.02,0.98-0.37,2.06,0.45,3.02c0.39-0.36,0.42-1.11,1.04-1.01
		c0.51,0.09,0.66,0.65,0.87,1.07c0.9,1.81,2.67,2.57,4.29,3.45c2.23,1.2,4.81,1.33,7.16,2.19c0.55,0.2,0.6-0.21,0.75-0.51
		c0.27-0.57,0.5-1.17,0.78-1.74c0.16-0.32,0.36-0.7,0.78-0.61c0.45,0.09,0.41,0.53,0.4,0.89c0,0.24-0.02,0.48-0.03,0.72
		c-1.02,0.93-1.15,2.33-1.83,3.44c-0.12,0.19,0.02,0.78-0.52,0.35c-0.51-1.43-1.92-1.66-3.06-2.21c-0.93-0.45-1.97-0.65-2.98-0.86
		c-2.55-0.52-4.64-1.66-5.88-4.06c-0.08-0.15-0.2-0.24-0.36-0.29c-0.61-0.79-0.82-0.11-1.21,0.27c-0.23,0.22,0.14,1.1-0.69,0.68
		C8.58,60.04,8.54,57.6,10.21,55c0.31-0.49,0.82-0.92,0.62-1.6c1-0.24,2.06-0.34,2.81-1.51C13.71,52.68,13.53,53.08,13.23,53.44z"/>
	<path class="st8" d="M37.25,17.67c-1.07-0.23-2.08-0.74-3.32-0.71c0.42,0.65,1.21,0.85,1.55,1.78c-2.63-1.63-5.11-3.11-8.1-3.18
		c-1.41,0.42-2.86,0.68-4.31,0.9c-0.42,0.06-0.83,0.02-1.21-0.19c-2.29-0.38-4.01,0.79-5.71,2.07c-0.53,0.4-0.92,1.1-1.74,1
		c-0.07-0.16-0.13-0.32-0.2-0.48c0.01-0.06,0-0.12-0.01-0.18c0.05-0.34,0.25-0.58,0.5-0.8c1.12-0.84,2.18-1.74,3.42-2.4
		c1.13-0.6,2.29-0.71,3.46-0.25c0.68,0.26,1.28,0.29,1.96,0.02c2.4-0.96,4.84-1.11,7.21-0.01c1.69,0.79,3.54,0.48,5.25,1.01
		c0.51,0.24,1.15,0.22,1.49,0.79C37.47,17.27,37.51,17.53,37.25,17.67z"/>
	<path class="st9" d="M41.1,33.75c0.07-0.04,0.15-0.07,0.2-0.12c0.82-0.87,1.67-2.08,2.98-1.41c1.5,0.77,2.38,2.21,2.54,3.96
		c0.05,0.56,0.02,1.12,0.02,1.68c-0.24,2.34-1.76,4.03-3.92,4.32c-0.34,0.05-0.62,0.08-0.66,0.51c-0.06,0.7-0.15,1.41-0.23,2.11
		c-0.65,1.09-0.94,2.44-2.16,3.13c-0.09-0.02-0.19-0.03-0.28-0.05c-0.07-0.28,0.04-0.48,0.28-0.61c1.19-1.35,1.61-2.99,1.68-4.73
		c0.02-0.44-0.08-0.83,0.62-0.89c2.06-0.18,3.18-1.17,3.75-3.23c0.54-1.97,0.1-3.72-1.39-5.15c-0.31-0.29-0.63-0.67-1.13-0.28
		c-0.51,0.37-0.96,0.8-1.42,1.23c-0.3,0.26-0.6,0.44-0.94,0.07C41.08,34.1,41.09,33.92,41.1,33.75z"/>
	<path class="st6" d="M12.71,50.03c0.39-0.25,0.79-0.49,1.17-0.77c0.4-0.29,0.79-0.55,1.28-0.22c0.5,0.34,0.55,0.83,0.41,1.37
		c-0.04,0.14-0.08,0.28-0.14,0.49c1.28-0.51,1.91-1.73,3.06-2.26c-0.55,2.33-1.69,4.1-4.37,4.56c0.18-0.94-0.26-1.84,0.18-2.77
		c-0.73,0.54-1.08,1.36-1.85,1.84c-0.81,0.5-1.53,0.56-2.35,0.18c-0.03-0.01-0.05-0.07-0.05-0.1c0-0.04,0.04-0.07,0.06-0.1
		c0.69-0.38,1.21-0.95,1.72-1.54C12.07,50.42,12.24,50.02,12.71,50.03z"/>
	<path class="st5" d="M43.96,27.76c-1.9-0.37-3.74-0.89-5.29-2.13c1.2-0.18,2.35,0.3,3.55,0.22c1.06-0.07,2.14,0,3.19-0.25
		c1.41,0.51,2.87,0.1,4.29,0.24c0.49,0.05,1.03-0.2,1.46,0.23c-1.26,0.92-2.79,0.94-4.24,1.21C45.94,27.47,44.9,27.33,43.96,27.76z"
		/>
	<path class="st10" d="M37.48,17.03c-0.5-0.16-1-0.33-1.5-0.49c0.42-0.87,0.91-1.71,1.14-2.66c0.2-0.61,0.29-1.25,0.48-1.87
		c0.52-1.5,0.81-3.06,1.15-4.61c0.09-0.42,0.08-0.88,0.4-1.23c0.16-0.08,0.32-0.17,0.48-0.25c0.48,0.78,0.32,1.65,0.21,2.44
		c-0.31,2.17-0.19,4.36-0.42,6.53c-0.09,0.87-0.18,1.73-0.5,2.55c-0.09,0-0.17,0.01-0.26,0.01C38.27,17.32,37.87,17.18,37.48,17.03z
		"/>
	<path class="st11" d="M12.71,50.03c-0.77,0.85-1.27,2.02-2.6,2.21c1.53-1.61,2.22-3.58,2.41-5.76c-0.14-2.01,0.17-3.94,0.94-5.82
		c0.55-1.35,1.31-2.44,2.68-3.02c0.51-0.17,1.01-0.3,1.21,0.43c-0.12,0.34-0.45,0.43-0.71,0.61c-1.63,1.15-2.39,2.77-2.69,4.7
		C13.6,45.61,13.13,47.81,12.71,50.03z"/>
	<path class="st12" d="M17.35,38.07c-0.28-0.29-0.59-0.47-1-0.28c-0.15-0.11-0.23-0.25-0.23-0.44c-0.46-1.07,0.45-1.75,0.74-2.6
		c0.04-0.29,0.2-0.46,0.49-0.48c0.69-0.29,1.38-0.6,2.08-0.86c0.51-0.19,1.04-0.26,1.56,0.35c-1.52,0.3-2.76,0.81-3.44,2.15
		c0.11,0.98,0.69,1.31,1.63,1.36c1.48,0.07,2.93,0.13,4.33-0.48c0.33-0.15,0.69-0.22,1.01,0.07c-0.18,0.18-0.35,0.37-0.53,0.55
		C21.9,38.96,19.66,38.87,17.35,38.07z"/>
	<path class="st5" d="M26.93,66.15c1.17-0.56,2.32-1.11,3.23-2.11c0.5-0.55,1.28-0.73,2.05-0.76c-0.02,1.17-0.58,2.02-1.53,2.68
		c-1.32,0.92-2.79,1.43-4.47,1.82C26.49,67.15,26.71,66.65,26.93,66.15z"/>
	<path class="st13" d="M39.89,47.27c-0.09,0.2-0.19,0.41-0.28,0.61c-0.5,0.35-0.7-0.12-0.97-0.37c-2.01-1.85-2.86-4.35-3.82-6.78
		c1.6,1.34,2.55,3.21,3.85,4.79C39.12,46.07,39.49,46.68,39.89,47.27z"/>
	<path class="st14" d="M10.83,53.4c0.18,0.12,0.8-0.24,0.48,0.43c-0.05,0.11-0.12,0.21-0.19,0.3c-2.09,2.64-2.27,5.45-0.76,8.42
		c-2.26-1.73-2.7-4.45-1.11-6.76C9.8,55.01,10.3,54.2,10.83,53.4z"/>
	<path class="st15" d="M12.26,61.6c0.38-0.36,0.44,0.04,0.54,0.24c1.14,2.29,3.2,3.24,5.51,3.83c1.82,0.46,3.67,0.84,5.26,1.92
		c0.48,0.33,1.24,0.55,0.97,1.42c-1.09-1.42-2.72-1.87-4.3-2.37c-1.06-0.33-2.18-0.46-3.24-0.82C14.83,65.11,13.15,63.78,12.26,61.6
		z"/>
	<path class="st16" d="M16.12,37.35c0.18,0.09,0.23,0.26,0.23,0.44c-2.66,1.39-3.07,4-3.56,6.56c-0.14,0.7,0.02,1.44-0.27,2.13
		c-0.08-0.08-0.16-0.16-0.25-0.25c-0.01-0.88-0.02-1.76-0.02-2.64c-0.37-0.48-0.16-0.86,0.2-1.22c0.28-0.73,0.56-1.47,0.85-2.2
		C13.83,38.83,14.74,37.85,16.12,37.35z"/>
	<path class="st17" d="M24.51,36.87c-1.87,0.57-3.77,0.9-5.74,0.73c-1.3-0.11-1.65-0.56-1.22-1.68c1.69,1.29,3.55,1.42,5.5,0.72
		c1.13-0.41,2.28-0.2,3.42-0.21C25.86,36.8,25.1,36.46,24.51,36.87z"/>
	<path class="st18" d="M19.51,47.43c0.29,0.18,0.42,0.43,0.46,0.78c0.13,1.34-1.32,3.69-2.65,4.26
		C18.49,50.99,19.12,49.26,19.51,47.43z"/>
	<path class="st19" d="M28.11,23.62c-1.48-1.19-3.28-1.87-4.8-2.98c-0.84-0.61-1.37-0.5-2.13,0.2c-1.22,1.13-2.61,2.08-3.92,3.11
		c-0.34,0.27-0.72,0.5-0.9,0.93c-0.54,0.21-1.01,0.08-1.42-0.3c-0.01-0.27,0.15-0.42,0.35-0.57c2-1.44,3.9-3.01,5.76-4.63
		c0.45-0.39,0.71-0.39,1.19-0.04c2.46,1.77,5.13,3.18,8.01,4.15c0.02,0.4-0.31,0.41-0.57,0.5C29.13,23.99,28.54,24.15,28.11,23.62z"
		/>
	<path class="st20" d="M14.4,19.35c1.44-0.93,2.62-2.23,4.19-2.95c1.05-0.48,2.15-0.88,3.26-0.13c-0.12,0.29-0.36,0.38-0.65,0.44
		c-3.16,0.66-5.91,2.01-7.93,4.64c-1.47,1.91-3.33,3.39-5.33,4.69c-0.75,0.56-1.12,0.58-1.8,0.08c1.83-0.78,3.15-2.27,4.65-3.5
		C12.04,21.6,13.2,20.45,14.4,19.35z"/>
	<path class="st5" d="M6.13,26.13c0.62,0.42,1.2,0.04,1.8-0.08c0.95,0.26,1.75-0.21,2.48-0.66c1.95-1.2,4.12-2.08,5.68-3.89
		c0.44-0.52,1.18-0.81,1.97-0.66c-2.54,2.14-5.1,4.27-8.09,5.76c-1.27,0.63-2.71,0.2-4.04-0.16C5.79,26.39,5.97,26.18,6.13,26.13z"
		/>
	<path class="st21" d="M9.38,29.66c0.01,1.05,0.01,2.09,0.02,3.14c-1.31,0.68-2.45,1.8-4.1,1.62c0.29-1.12,1.34-1.69,1.89-2.64
		c0.31-0.54,0.72-1.03,1.14-1.5C8.6,29.97,8.86,29.57,9.38,29.66z"/>
	<path class="st22" d="M9.38,29.66c-1.13,0.8-1.69,2.08-2.58,3.08c-0.5,0.56-1,1.12-1.5,1.68c-0.23-0.01-0.58,0.07-0.67-0.05
		c-0.18-0.24,0.15-0.38,0.3-0.53c1.65-1.8,3.07-3.76,4.16-5.95c0.31-0.63,0.86-0.69,1.29-0.13C9.81,28.27,9.6,28.97,9.38,29.66z"/>
	<path class="st23" d="M14.94,24.58c0.47,0.1,0.95,0.2,1.42,0.3c0.93,0.51,1.79,1.08,1.71,2.32c-0.03,0.48-0.12,0.88-0.79,0.55
		c-1.69-0.83-3.42-0.83-5.17-0.2c-0.29-0.03-0.53-0.09-0.3-0.46c0.32-0.69,0.97-0.77,1.59-0.81c1.1-0.07,2.21-0.12,3.35,0.26
		c-0.25-0.87-1.25-0.81-1.58-1.46C15.09,24.92,15.01,24.75,14.94,24.58z"/>
	<path class="st24" d="M15.16,25.09c1.02,0.28,1.98,0.64,2.32,2c-1.95-0.62-3.84-0.98-5.68,0.01
		C12.14,25.94,13.51,25.12,15.16,25.09z"/>
	<path class="st25" d="M40.13,33.52c-0.19-0.29-0.31-0.74-0.57-0.84c-2.19-0.82-2.23-2.59-2.07-4.47c0.01-0.16,0.01-0.31,0.01-0.47
		c0.22,0.08,0.46,0.13,0.67,0.24c1.33,0.69,1.35,0.84,0.16,1.75c-0.51,0.39-0.45,0.69-0.03,1.04c0.21,0.18,0.42,0.42,0.67,0.49
		C40.24,31.57,40.73,32.26,40.13,33.52z"/>
	<path class="st17" d="M37.23,27.05c-0.89-0.22-1.64-0.95-2.64-0.73c-0.94-0.27-1.36-1.11-1.98-1.74c0.04-0.2,0.12-0.33,0.35-0.22
		c1.55,0.35,3.22,0.48,4.08,2.15C37.13,26.68,37.17,26.87,37.23,27.05z"/>
	<path class="st26" d="M32.96,24.36c-0.09,0.08-0.18,0.17-0.27,0.25c-1.1,0.08-2.1-0.14-2.94-0.89c0.17-0.08,0.34-0.16,0.5-0.24
		C31.16,23.77,32.06,24.07,32.96,24.36z"/>
	<path class="st27" d="M39.14,6.18c-0.13,2.06-0.5,4.07-1.38,5.96c-0.25-0.08-0.37-0.29-0.47-0.5c-0.17-0.37-0.33-0.75-0.84-0.65
		c-0.46,0.08-0.61,0.48-0.73,0.85c-0.35,1.04,0.13,1.74,1.48,2.21c-0.12,0.97-0.26,1.93-1.22,2.49c-2.23-0.35-4.45-0.61-6.61-1.4
		c-1.95-0.71-3.94-0.33-5.84,0.45c-0.69,0.28-1.25,0.37-2-0.01c-1.02-0.53-2.15-0.41-3.21,0.15c-1.31,0.69-2.39,1.72-3.64,2.5
		c-0.43-0.18-0.51-0.58-0.59-0.97c-0.51-2.6-1.11-5.19-1.5-7.82c-0.21-1.39-0.21-1.4,1.11-0.9c1.38,0.48,2.76,0.98,4.14,1.45
		c0.36,0.12,0.74,0.35,1.13,0.06c1.57-1.3,3.2-2.55,4.55-4.09c0.65-0.75,1.36-1.43,2.23-1.93c1.54,1.25,2.78,2.83,4.39,4.03
		c0.92,0.69,1.73,0.85,2.83,0.37C34.99,7.54,37.01,6.69,39.14,6.18z"/>
	<path class="st28" d="M13.72,8.53c-0.32,0.09-0.61-0.08-1.09-0.24c0.71,3.41,1.38,6.67,2.06,9.94c-0.17,0.15-0.33,0.31-0.5,0.46
		c-0.74-1.48-0.79-3.14-1.15-4.71c-0.44-1.97-0.68-3.99-1.02-6.13C12.71,7.96,13.33,7.91,13.72,8.53z"/>
	<path class="st29" d="M20.11,7.72c-0.04,0.39-1.58,2.03-1.79,1.88c-0.51-0.36-1.7-0.31-1.51-0.96c0.24-0.81,0.57-1.81,1.38-2.34
		C18.45,6.13,20.14,7.47,20.11,7.72z"/>
	<path class="st30" d="M38.92,17.45c0.23-3.84,0.47-7.68,0.7-11.52c0.39-0.09,0.49,0.12,0.47,0.45c-0.2,3.37-0.1,6.76-0.64,10.1
		C39.39,16.85,39.43,17.32,38.92,17.45z"/>
	<path class="st31" d="M25.77,4.02c-1.07,1.14-2.02,2.45-3.25,3.38c-1.17,0.89-2.03,2.2-3.53,2.64c1.86-1.95,3.64-3.98,5.71-5.72
		C25,4.08,25.25,3.54,25.77,4.02z"/>
	<path class="st32" d="M33.34,7.49c-0.9,0.45-1.6,0.75-2.5,0.11c-0.91-0.65-0.97-1.06-0.13-1.82c0.51-0.47,0.76-0.56,1.19-0.02
		C32.33,6.31,32.8,6.84,33.34,7.49z"/>
	<path class="st13" d="M12.45,42.37c-0.07,0.41-0.13,0.81-0.2,1.22c-0.35,0.45-0.04,1.02-0.28,1.54c-1.28-3.07-2.8-6.01-2.35-9.47
		c0.26-1.96,0.36-3.94,0.51-5.92c0.04-0.5,0.27-0.81,0.7-1.02c0.52,1.75,0.32,3.52,0.11,5.28c-0.25,2.2-0.83,4.41,0.15,6.56
		C11.4,41.23,11.54,42.11,12.45,42.37z"/>
	<path class="st33" d="M26.17,31.12c-0.38-0.59-0.31-1.06,0.21-1.54c1.19-1.1,4.87-0.65,5.78,0.68c0.22,0.32,0.12,0.39-0.19,0.41
		c-0.73,0.35-1.64-0.58-2.11,0.04c-0.34,0.46,0.04,1.37-0.21,2.07c-0.26,0.72-0.26,1.63-1.29,1.81c-0.74,0.23-0.88-0.38-1.14-0.82
		c-0.52-0.5-0.28-1.18-0.37-1.77C26.79,31.53,26.8,31.09,26.17,31.12z"/>
	<path class="st34" d="M29.75,23.72c0.98,0.3,1.96,0.59,2.94,0.89c0.91,0.26,1.27,1.14,1.9,1.72c0.17,0.27,0.38,0.52,0.51,0.8
		c0.14,0.32,0.28,0.66-0.09,0.97c-0.36,0.31-0.61-0.01-0.85-0.14c-2.09-1.11-4.25-1.87-6.65-1.31c-0.61,0.14-1.2,0.43-1.78,0.68
		c-0.26,0.11-0.42,0.54-0.81,0.21c-0.31-0.26-0.36-0.57-0.29-0.96c0.31-1.86,1.33-2.74,3.48-2.97
		C28.66,23.65,29.2,23.69,29.75,23.72z"/>
	<path class="st35" d="M28.37,34.57c1.3-1.25,1.22-2.78,0.9-4.43c0.94-0.09,1.82,0.22,2.71,0.52c0.89,0.53,0.86,1.38,0.64,2.19
		c-0.29,1.07-1.26,1.52-2.18,1.81C29.81,34.87,29.04,34.93,28.37,34.57z"/>
	<path class="st36" d="M17.35,34.27c-0.16,0.16-0.33,0.32-0.49,0.48c-0.31,0.18-0.64,0.34-0.91,0.56c-0.89,0.71-1.77,0.6-2.64,0.02
		c-0.85-0.57-1.16-1.37-0.89-2.39c0.09-0.34,0.08-0.71,0.11-1.07c0-0.35,0.17-0.62,0.44-0.81c0.52-0.38,0.89-0.28,1.02,0.39
		c0.06,0.31,0.04,0.63,0.01,0.95c-0.03,0.28-0.11,0.55-0.13,0.82c-0.05,0.68-0.14,1.61,0.64,1.68c0.64,0.06,0.76-0.86,0.8-1.5
		c0.05-0.67,0.02-1.35-0.03-2.02c-0.02-0.28-0.07-0.59,0.2-0.77c0.33-0.22,0.59,0.01,0.86,0.2c0.39,0.28,0.74,0.6,1,1.01
		C17.72,32.64,17.65,33.45,17.35,34.27z"/>
	<path class="st37" d="M17.31,31.83c-0.71-0.23-1.03-1.1-1.92-1.19c0.45,1.2,0.36,2.38,0.14,3.55c-0.1,0.53-0.36,1.22-1,1.17
		c-0.65-0.05-0.91-0.69-0.99-1.32c-0.13-0.99,0.34-1.96,0.09-2.98c-0.6-0.04-0.71,0.58-1.1,0.8c-0.69,0.3-0.74-0.05-0.59-0.59
		c0.33-1.2,2.43-1.92,3.73-1.2C16.38,30.46,17.08,30.95,17.31,31.83z"/>
	<path class="st38" d="M44,34.94c0.86,0.18,0.91,0.82,0.95,1.55c0.06,1.21-0.25,2.28-1.03,3.2c-0.38,0.44-0.79,0.82-1.39,0.3
		c0.57-0.74,0.93-1.41,0.36-2.44C42.28,36.41,42.81,35.44,44,34.94z"/>
	<path class="st39" d="M44,34.94c-1.18,0.97-1.28,1.46-0.67,2.92c0.39,0.93,0.18,1.68-0.8,2.13c0.69-1.17,0-2.32-0.07-3.48
		C42.4,35.4,42.86,34.85,44,34.94z"/>
	<path class="st40" d="M26.17,31.12c0.2-0.24,0.41-0.58,0.72-0.5c0.43,0.11,0.14,0.53,0.17,0.8c0.09,0.77,0.12,1.55,0.17,2.33
		C26.25,33.13,26.46,32.03,26.17,31.12z"/>
	<path class="st41" d="M42.01,34.21c0.15-0.78,0.57-1.26,1.42-1.23C43.21,33.68,42.95,34.34,42.01,34.21z"/>
	<path class="st42" d="M23.06,16.47c1.36-0.68,2.83-0.8,4.31-0.9c-0.1,0.67-0.69,0.47-1.05,0.5C25.23,16.14,24.22,16.93,23.06,16.47
		z"/>
	<path class="st43" d="M37.2,14.05c-1.11,0.49-1.5-0.27-1.79-1.09c-0.32-0.92,0.18-2.16,0.91-2.29c1.16-0.21,1.2,0.74,1.45,1.47
		C37.85,12.86,37.65,13.49,37.2,14.05z"/>
	<path class="st44" d="M22.78,11.07c-0.03-1.19,0.76-1.87,1.57-2.53c0.38-0.31,0.67,0.01,0.94,0.22c1.38,1.1,1.17,3.79-0.39,4.69
		c-0.73,0.42-1.23-0.07-1.62-0.57C22.89,12.37,22.77,11.72,22.78,11.07z"/>
	<path class="st45" d="M14.21,13.59c0.08-0.46,0.18-1.06,0.82-1.22c0.47-0.12,1.38,1.21,1.33,1.95c-0.03,0.48-0.14,1.01-0.74,1.07
		C14.96,15.45,14.21,14.5,14.21,13.59z"/>
	<path class="st46" d="M27.65,33.18c0.05-0.28,0.13-0.59,0.45-0.59c0.4,0,0.42,0.4,0.48,0.67c0.06,0.25-0.12,0.51-0.35,0.52
		C27.87,33.8,27.71,33.52,27.65,33.18z"/>
	<path class="st47" d="M25.35,26.84c0.25-1.66,0.78-2.23,2.19-2.47c2.65-0.46,5.51,0.72,6.69,2.76c0.04,0.06,0.03,0.15,0.08,0.41
		C31.41,25.77,28.47,25.18,25.35,26.84z"/>
	<path class="st48" d="M14.15,34.17c0.04-0.27,0.03-0.62,0.39-0.64c0.28-0.02,0.36,0.26,0.37,0.51c0.02,0.31-0.04,0.6-0.39,0.62
		C14.23,34.69,14.14,34.44,14.15,34.17z"/>
	<path class="st49" d="M37.25,12.58c0.14,0.62-0.34,0.92-0.87,0.91c-0.54-0.01-0.57-0.59-0.56-1.01c0.01-0.6,0.38-1.38,0.8-1.36
		C37.14,11.14,37.24,11.93,37.25,12.58z"/>
	<path class="st50" d="M23.81,12.62c-0.52-0.68-0.65-1.4-0.23-2.19c0.54-0.09,1-0.22,0.46-0.88c0.19-0.34,0.37-0.79,0.86-0.62
		c0.37,0.13,0.7,0.45,0.75,0.86c0.1,0.86,0.23,1.75-0.62,2.37C24.64,12.35,24.16,12.31,23.81,12.62z"/>
	<path class="st51" d="M24.05,9.55c0.55,0.03,0.86,0.32,0.61,0.84c-0.27,0.55-0.7,0.35-1.07,0.04C23.54,10.03,23.78,9.79,24.05,9.55
		z"/>
	<path class="st52" d="M23.81,12.62c0.12-0.92,0.66-0.72,1.22-0.45C24.86,12.95,24.55,13.37,23.81,12.62z"/>
	<path class="st53" d="M15.11,12.89c0.46,0.46,0.69,0.9,0.75,1.42c0.03,0.24-0.03,0.52-0.29,0.58c-0.25,0.05-0.49-0.19-0.51-0.4
		C15,14,14.77,13.5,15.11,12.89z"/>
</g>
</svg>
