<?xml version="1.0" encoding="utf-8"?>
<!-- Generator: Adobe Illustrator 23.0.2, SVG Export Plug-In . SVG Version: 6.00 Build 0)  -->
<svg version="1.1" id="Camada_1" xmlns="http://www.w3.org/2000/svg" xmlns:xlink="http://www.w3.org/1999/xlink" x="0px" y="0px"
	 viewBox="0 0 30.16 29.03" style="enable-background:new 0 0 30.16 29.03;" xml:space="preserve">
<style type="text/css">
	.st0{fill:#FEFEFE;}
	.st1{fill:#0C0A0E;}
	.st2{fill:#682904;}
	.st3{fill:#A9E5EE;}
	.st4{fill:#541807;}
	.st5{fill:#CE8D33;}
	.st6{fill:#55160F;}
	.st7{fill:#541B14;}
	.st8{fill:#C43C46;}
	.st9{fill:#6B382E;}
	.st10{fill:#6A392D;}
	.st11{fill:#5E1E17;}
	.st12{fill:#B22F37;}
</style>
<g>
	<path class="st0" d="M14.65,29.03c-4.15-0.31-8.87-1.62-12.03-6.01c-2.07-2.87-3.21-6.12-2.29-9.79c0.31-1.23,0.34-2.54,0.81-3.74
		c1.83-4.73,5.35-7.4,10.13-8.87c4.36-1.34,8.44-0.41,11.94,1.81c5.2,3.3,8.92,10.38,5.84,17.45c-0.96,2.21-2.27,4.12-3.96,5.77
		C22.47,28.2,19.17,28.99,14.65,29.03z"/>
	<path class="st1" d="M1.96,15.34C1.78,6.8,7.98,1.68,15.64,1.84C22.61,1.98,28.1,7.46,28.3,14.35c0.19,6.85-5.2,13.61-13.52,12.96
		C7.31,26.73,1.73,22.28,1.96,15.34z"/>
	<path class="st2" d="M26.95,14.52c0.01,2.38-0.53,4.55-2.24,6.34c-0.63,0.66-0.91,1.58-1.56,2.26c-2.55,2.69-5.85,3.01-9.19,2.69
		c-3.24-0.31-6.17-1.56-8.41-4.11c-1.32-1.5-2.07-3.2-2.14-5.2c-0.1-2.78,0.03-5.55,1.64-7.95c2.05-3.06,5.03-4.59,8.62-5.28
		c2.44-0.47,4.4,0.51,6.54,1.28c3.53,1.27,5.02,4.17,6.4,7.24C27,12.67,26.97,13.6,26.95,14.52z"/>
	<path class="st0" d="M24.77,19.13c-0.96,1.65-2.23,2.97-4.08,3.62c-0.7,0.67-1.64,0.92-2.51,0.97c-2.22,0.14-4.47,0.34-6.66-0.25
		c-2.81-0.75-4.83-2.51-6.09-5.13c-0.43-0.88-1-1.72-1.04-2.75c0.03-0.16,0.03,0.03,0.01-0.12c-0.28-2.04,1.07-2.87,2.56-3.8
		c3.16-1.95,6.18-4.12,9.51-5.81c0.82-0.41,1.57-0.97,2.55-0.9c2.94,1.2,4.62,3.6,6.01,6.28C26.25,13.92,26.49,16.56,24.77,19.13z"
		/>
	<path class="st3" d="M19,4.97c-4.92,2.16-9.22,5.34-13.74,8.16c-1.01,0.63-0.44,1.59-0.66,2.37c-0.09,0.03-0.19,0.1-0.27-0.03
		C4.24,15.32,4.28,15.2,4.4,15.1c0.16-1.18-0.03-2.38,0.32-3.56c1.22-4.12,4.07-6.29,8.2-7.01C14.99,4.17,17.02,4.14,19,4.97z"/>
	<path class="st4" d="M4.4,15.1c0.07,0.13,0.13,0.27,0.2,0.4c-0.21,0.54,0.16,0.95,0.34,1.38c1.67,3.97,4.8,6.72,9.76,6.65
		c2.05-0.03,4.04-0.14,5.99-0.78c0.08,0.07,0.16,0.14,0.25,0.21c-0.08,0.42-0.43,0.55-0.77,0.68c-4.33,1.55-8.48,1.21-12.36-1.3
		c-1.23-0.8-2.19-1.95-2.71-3.38c0.33-0.63-0.25-1.03-0.39-1.54C4.49,16.66,3.75,15.97,4.4,15.1z"/>
	<path class="st5" d="M5.09,18.95c2.89,5.8,11.3,6.28,15.84,4.01c0.5-0.21,1.01-0.43,1.51-0.64c-1.32,1.78-3.18,2.68-5.27,2.81
		c-2.73,0.17-5.36-0.51-7.86-1.64c-1.84-0.84-3.18-2.22-4.2-3.93C5,19.36,4.78,19.16,5.09,18.95z"/>
	<path class="st6" d="M24.77,19.13c1.36-2.59,1.07-5.22,0.24-7.88c0.05-0.11,0.07-0.43,0.23-0.23c1.3,1.68,1.18,6.63-0.18,8.17
		C24.96,19.3,24.84,19.24,24.77,19.13z"/>
	<path class="st7" d="M21.17,14.62c-1.36-0.02-2.71-0.05-4.07-0.06c-0.47-0.01-0.92-0.04-1.35,0.32c-0.44,0.37-0.91,0.13-1.3-0.2
		c-0.41-0.35-0.36-0.81-0.12-1.19c0.8-1.28,0.55-2.71,0.5-4.06c-0.05-1.16-0.24-1.21-0.03-1.44c0.2-0.21,0.32-0.69,0.71-0.38
		C15.84,7.86,16.22,8.54,16,8.7c-1.11,0.81-0.44,1.9-0.57,2.84c-0.06,0.49-0.3,1.01,0.25,1.62c0.65,0.73,1.3,0.81,2.13,0.81
		c1.12-0.01,2.23,0.06,3.35,0.1C21.75,14.24,21.38,14.43,21.17,14.62z"/>
	<path class="st8" d="M21.17,14.62c0.07-0.19,0.21-0.37-0.01-0.56c0.39-0.7,1.61-0.84,2.08-0.24c0.14,0.18,0.18,0.4,0.01,0.53
		c-0.5,0.38-1,0.83-1.57,1.03C21.02,15.61,21.26,14.95,21.17,14.62z"/>
	<path class="st9" d="M15.86,21.18c-0.03,0.35,0.1,0.88-0.37,0.86c-0.55-0.03-0.34-0.6-0.35-0.96c-0.01-0.33-0.12-0.87,0.34-0.85
		C16.02,20.25,15.81,20.83,15.86,21.18z"/>
	<path class="st10" d="M6.48,13.97c-0.05,0.35-0.29,0.44-0.59,0.42c-0.33-0.02-0.8,0.09-0.83-0.41c-0.02-0.33,0.36-0.34,0.64-0.36
		C6.02,13.61,6.34,13.58,6.48,13.97z"/>
	<path class="st11" d="M15.49,5.77c-0.32-0.11-0.41-0.35-0.37-0.65c0.03-0.24,0.14-0.48,0.45-0.38c0.26,0.08,0.33,0.31,0.32,0.57
		C15.89,5.57,15.79,5.76,15.49,5.77z"/>
	<path class="st12" d="M15.15,13.48c0.31,0.05,0.49,0.24,0.49,0.56c0,0.27-0.15,0.47-0.42,0.47c-0.33,0-0.51-0.21-0.49-0.54
		C14.74,13.71,14.86,13.52,15.15,13.48z"/>
</g>
</svg>
