<?xml version="1.0" encoding="utf-8"?>
<!-- Generator: Adobe Illustrator 23.0.2, SVG Export Plug-In . SVG Version: 6.00 Build 0)  -->
<svg version="1.1" id="Camada_1" xmlns="http://www.w3.org/2000/svg" xmlns:xlink="http://www.w3.org/1999/xlink" x="0px" y="0px"
	 viewBox="0 0 31.47 36.51" style="enable-background:new 0 0 31.47 36.51;" xml:space="preserve">
<style type="text/css">
	.st0{fill:#000001;}
	.st1{fill:#010304;}
	.st2{fill:#0C3F4C;}
	.st3{fill:#1C404B;}
	.st4{fill:#59A69B;}
	.st5{fill:#9AC8C4;}
	.st6{fill:#96C3C0;}
	.st7{fill:#95C2BF;}
	.st8{fill:#56A59A;}
	.st9{fill:#56A69B;}
	.st10{fill:#307577;}
	.st11{fill:#99C4C2;}
	.st12{fill:#ACD3CF;}
	.st13{fill:#9CC7C4;}
	.st14{fill:#0B2834;}
	.st15{fill:#97BEBB;}
	.st16{fill:#88BAB6;}
	.st17{fill:#F9FBFB;}
	.st18{fill:#FBFDFD;}
	.st19{fill:#97C3C0;}
	.st20{fill:#91C0BC;}
</style>
<g>
	<path class="st0" d="M28.27,21.07c1.67,1.36,1.94,3.23,1.89,5.26c-0.05,2.28-0.92,4.06-2.75,5.4c-1.48,1.08-2.99,2.09-4.75,2.71
		c-1.15,0.41-2.19,0.44-3.36,0.1c-5.89-1.73-11.17-4.43-15.76-8.65c-2.72-2.51-2.36-5.52-1.23-8.02c1.21-2.69,3.55-4.11,6.2-5.11
		c0.33-0.13,0.67-0.23,1.01-0.35c-1.19-1.36-1.27-2.64-0.23-3.8c0.78-0.88,2.8-0.98,3.87-0.21c1.03,0.75,1.14,1.95,0.26,3.49
		c1.24,0.5,2.55,0.77,3.78,1.27c2.45,0.99,4.76,2.22,6.88,3.8c0.28,0.21,0.52,0.76,0.99,0.03c0.8-1.25,1.78-1.54,3.18-1.17
		c0.97,0.25,1.62,0.84,1.78,1.86c0.25,1.64-0.08,2.29-1.54,3.13C28.42,20.85,28.39,20.93,28.27,21.07z"/>
	<path class="st1" d="M22.13,4.96c2.03-0.53,3.92-0.59,5.37,1.19c0.89,1.09,1,3.21,0.22,4.39c-1.02,1.55-2.58,1.9-4.3,1.72
		c-1.39-0.14-2.7-1.28-2.94-2.75c-0.2-1.17-0.54-1.71-1.89-1.66c-1.71,0.06-2.96-1-3.22-2.31c-0.32-1.56,0.56-3.32,1.99-4.01
		c1.46-0.7,4.5,1.05,4.74,2.72C22.13,4.49,22.12,4.73,22.13,4.96z"/>
	<path class="st2" d="M12.04,13.14c3.18,0.18,5.64,1.45,8.08,2.71c3.13,1.62,5.72,3.93,7.87,6.71c1.36,1.76,1.27,3.8,0.58,5.76
		c-0.92,2.62-3.41,3.5-5.57,4.75c-1.82,1.05-3.5,0.32-5.18-0.22c-5.12-1.65-9.77-4.11-13.55-8.04c-1.76-1.82-2.13-3.74-1.02-6.06
		C5.06,14.89,8.51,13.7,12.04,13.14z"/>
	<path class="st3" d="M11.08,11.33c-0.66,0-1.31,0.06-1.26-0.93c0.06-1.07,0.69-1.26,1.6-1.27c0.82-0.01,1.56,0.18,1.47,1.08
		C12.8,11.18,11.88,11.28,11.08,11.33z"/>
	<path class="st4" d="M28.57,18.25c-0.05,1.11-0.47,1.54-1.35,1.36c-0.23-0.05-0.09-0.24-0.11-0.38c-0.05-0.27-0.07-0.53,0.1-0.77
		c0.09-0.13,0.19-0.26,0.29-0.38C27.96,17.49,28.28,17.75,28.57,18.25z"/>
	<path class="st5" d="M27.39,18.52c-0.09,0.24-0.19,0.48-0.28,0.71c-0.64-0.13-0.89-0.56-0.84-1.18c0.04-0.5,0.36-0.64,0.81-0.6
		c0.04,0.02,0.09,0.05,0.13,0.07C27.29,17.86,27.22,18.21,27.39,18.52z"/>
	<path class="st5" d="M28.57,18.25c-0.31-0.14-0.63-0.59-0.93,0.02c-0.29-0.12-0.37-0.39-0.46-0.66c-0.04-0.05-0.08-0.1-0.11-0.15
		C27.99,16.94,28.51,17.17,28.57,18.25z"/>
	<path class="st6" d="M21.91,8.17c-0.17-0.36-0.09-0.69,0.13-1.01C22.58,6.37,24,6,25.21,6.36c1.06,0.31,1.52,1.04,1.51,2.14
		c0,1.05-0.46,1.76-1.42,2.11c-1.19,0.43-2.21,0.09-3.03-0.93c0.01-0.57,0.41-0.34,0.66-0.3c0.43,0.08,0.85,0.21,1.29,0.07
		c0.66-0.21,1.02-0.67,0.86-1.35c-0.18-0.72-0.75-0.62-1.34-0.54C23.08,7.66,22.66,8.39,21.91,8.17z"/>
	<path class="st7" d="M18.73,3.32c1.3,0.03,1.81,0.45,1.76,1.41c-0.05,0.96-0.72,1.54-1.77,1.53c-1.08-0.01-1.83-0.61-1.83-1.47
		C16.89,3.78,17.5,3.29,18.73,3.32z"/>
	<path class="st8" d="M21.91,8.17c0.51-0.58,1.25-0.74,1.93-0.92c0.52-0.14,1.27-0.28,1.53,0.43c0.23,0.63,0.26,1.35-0.43,1.82
		c-0.56,0.38-1.17,0.45-1.82,0.26c-0.28-0.08-0.53-0.42-0.85-0.08C21.81,9.25,22.15,8.64,21.91,8.17z"/>
	<path class="st9" d="M6.72,22.35c-0.78-0.57-1.63-1.06-2.11-1.96c-0.04-0.76,0.32-1.37,0.74-1.97c1.3-1.84,2.93-3.3,4.98-4.26
		c1.53-0.59,3.01-0.1,4.42,0.36c4.72,1.55,8.78,4.15,12.1,7.88c0.74,0.83,0.92,1.53,0.13,2.47c-1.98,2.36-4.41,3.61-7.52,3.43
		c-1.85,0.49-3.37-0.51-4.92-1.2c-2.26-1-4.48-2.1-6.62-3.35C7.34,23.43,6.9,23.01,6.72,22.35z"/>
	<path class="st10" d="M6.72,22.35c2.28,2.19,5.29,3.09,7.99,4.52c0.52,0.28,1.11,0.44,1.63,0.72c0.98,0.54,2.06,0.57,3.13,0.71
		c-0.15,0.03-0.3,0.06-0.51,0.1c2.68,0.61,6.85-0.22,8.98-3.67c0.87,1.89,0.33,3.95-1.48,5.3c-1.31,0.98-2.69,1.85-4.18,2.55
		c-0.85,0.4-1.27,0.36-1.18-0.72c0.03-0.32,0.16-0.71-0.18-0.98c-0.08,0.05-0.19,0.08-0.19,0.12c-0.24,1.86-0.24,1.87-2.14,1.22
		c-1.09-0.38-2.24-0.57-3.24-1.18c-0.54-0.62-1.37-0.74-2.02-1.17c-2.93-1.39-5.59-3.16-7.83-5.53c-0.49-0.59-0.79-1.28-1.15-1.94
		c-0.23-0.42-0.45-0.87,0.02-1.29c0.52,0.41,1.03,0.82,1.55,1.22C6.18,22.54,6.45,22.72,6.72,22.35z"/>
	<path class="st11" d="M10.34,14.16c0.67,0.45-0.15,0.41-0.19,0.43c-2.19,0.91-3.63,2.65-4.91,4.53c-0.26,0.39-0.42,0.84-0.62,1.27
		c-0.88-0.77-0.31-1.58-0.08-2.38c0.41-0.89,1.07-1.54,1.95-1.96C7.73,15.34,8.89,14.46,10.34,14.16z"/>
	<path class="st12" d="M5.72,24.27c2.2,2.37,4.91,4.03,7.72,5.54c0.1,0.11,0.1,0.22-0.01,0.32c-3.08-1.34-5.78-3.25-8.16-5.6
		C5.24,24.11,5.43,24.1,5.72,24.27z"/>
	<path class="st13" d="M5.72,24.27c-0.2,0-0.36,0.06-0.44,0.25c-1.92-1.68-1.99-1.86-1.5-4.02c0.41,0,0.41,0.4,0.59,0.62
		C4.23,22.42,5.36,23.18,5.72,24.27z"/>
	<path class="st14" d="M6.49,16.05c-0.65,0.65-1.3,1.3-1.95,1.96C4.6,17.14,5.62,16.13,6.49,16.05z"/>
	<path class="st15" d="M13.44,30.13c0-0.11,0.01-0.22,0.01-0.32c1.54,0.71,1.54,0.71,1.91,1.25C14.72,30.74,14.08,30.43,13.44,30.13
		z"/>
	<path class="st16" d="M10.91,11.02c-0.45,0.02-0.86-0.08-0.84-0.69c0.04-0.94,0.87-0.8,1.41-0.9c0.45-0.09,1.06,0.15,0.97,0.77
		C12.33,11.02,11.57,10.95,10.91,11.02z"/>
	<path class="st17" d="M27.19,17.61c0.36,0.07,0.42,0.36,0.46,0.66c-0.08,0.08-0.17,0.17-0.25,0.25
		C26.71,18.36,26.78,18.02,27.19,17.61z"/>
	<path class="st18" d="M18.91,3.95c-0.08,0.25-0.26,0.39-0.52,0.38c-0.23,0-0.37-0.15-0.36-0.36c0.01-0.3,0.24-0.37,0.49-0.36
		C18.72,3.62,18.89,3.7,18.91,3.95z"/>
	<path class="st19" d="M12.05,15.63c-0.33-0.03-0.73,0.03-0.7-0.43c0.03-0.44,0.39-0.54,0.77-0.53c0.36,0.01,0.79,0.04,0.74,0.52
		C12.81,15.63,12.37,15.6,12.05,15.63z"/>
	<path class="st20" d="M11,15.81c-0.08,0.28-0.2,0.44-0.41,0.44c-0.27,0-0.44-0.16-0.42-0.44c0.01-0.21,0.16-0.35,0.38-0.36
		C10.84,15.44,10.91,15.67,11,15.81z"/>
</g>
</svg>
