<?xml version="1.0" encoding="utf-8"?>
<!-- Generator: Adobe Illustrator 23.0.2, SVG Export Plug-In . SVG Version: 6.00 Build 0)  -->
<svg version="1.1" id="Camada_1" xmlns="http://www.w3.org/2000/svg" xmlns:xlink="http://www.w3.org/1999/xlink" x="0px" y="0px"
	 viewBox="0 0 31.18 35.78" style="enable-background:new 0 0 31.18 35.78;" xml:space="preserve">
<style type="text/css">
	.st0{fill:#FEFEFE;}
	.st1{fill:#FDFDFD;}
	.st2{fill:#000101;}
	.st3{fill:#010304;}
	.st4{fill:#0B3E4B;}
	.st5{fill:#87B9B5;}
	.st6{fill:#2B4954;}
	.st7{fill:#59A69B;}
	.st8{fill:#96C3C0;}
	.st9{fill:#95C2BF;}
	.st10{fill:#56A59A;}
	.st11{fill:#56A69B;}
	.st12{fill:#307577;}
	.st13{fill:#A3CCC9;}
	.st14{fill:#99C4C2;}
	.st15{fill:#9AC8C4;}
	.st16{fill:#F9FBFB;}
	.st17{fill:#FBFDFD;}
	.st18{fill:#97C3C0;}
	.st19{fill:#91C0BC;}
</style>
<g>
	<path class="st0" d="M0.02,21.81c0.22-4.97,2.45-7.94,6.3-9.75c0.75-0.35,1.04-0.64,0.9-1.56c-0.33-2.14,1.36-4.02,3.51-4.09
		c2.76-0.08,4.4,1.35,4.24,3.81c-0.04,0.58,0.11,0.74,0.61,0.89c2.9,0.92,5.62,2.24,8.12,3.98c0.34,0.24,0.52,0.27,0.89-0.01
		c1.77-1.31,4-1.17,5.45,0.27c1.3,1.3,1.41,3.48,0.21,5.15c-0.27,0.37-0.34,0.58-0.06,1c1.87,2.82,1.06,8.81-2.18,10.86
		c-1.79,1.13-3.48,2.38-5.53,3.04c-0.89,0.29-1.78,0.52-2.69,0.27c-5.17-1.47-10.15-3.36-14.41-6.78c-1.21-0.98-2.35-2.04-3.48-3.11
		C0.56,24.51-0.14,23.05,0.02,21.81z"/>
	<path class="st1" d="M23.9,13.19c-2.34-0.01-4.08-1.25-4.69-3.49c-0.19-0.71-0.55-0.85-1.19-0.95c-3.04-0.5-4.61-2.57-4.01-5.22
		C14.37,1.9,15.97,0.04,17.38,0c1.94-0.05,3.88,0.36,5,2.16c0.5,0.8,0.98,0.95,1.82,1c3.5,0.19,5.46,2.66,4.9,6.05
		C28.69,11.64,26.66,13.2,23.9,13.19z"/>
	<path class="st2" d="M9.34,12.11c-1.23-1.31-1.31-2.6-0.28-3.77c0.78-0.89,2.77-1.02,3.86-0.25c1.06,0.74,1.16,1.89,0.3,3.56
		c3.98,1.04,7.65,2.7,10.9,5.23c0.32,0.25,0.45,0.22,0.72-0.15c0.9-1.27,1.89-1.6,3.28-1.18c0.95,0.28,1.59,0.89,1.71,1.92
		c0.17,1.4-0.18,2.54-1.62,3.1c-0.03,0.01-0.04,0.07-0.13,0.21c1.44,1.27,1.89,2.93,1.88,4.87c-0.01,2.51-0.85,4.49-2.93,5.92
		c-0.92,0.63-1.82,1.31-2.81,1.83c-1.82,0.96-3.62,1.4-5.8,0.7C12.73,32.25,7.6,29.6,3.2,25.45c-2.17-2.05-2.29-4.26-1.55-6.73
		c0.99-3.3,3.54-5.08,6.62-6.23C8.6,12.35,8.94,12.25,9.34,12.11z"/>
	<path class="st3" d="M21.93,4.66c1.99-0.53,3.84-0.59,5.3,1.09c0.94,1.08,1.07,3.13,0.36,4.39c-0.74,1.32-2.51,2.06-4.37,1.83
		c-1.39-0.18-2.7-1.29-2.94-2.76c-0.19-1.17-0.55-1.71-1.9-1.66c-1.71,0.06-2.95-1-3.22-2.31c-0.32-1.56,0.56-3.32,1.99-4
		c1.46-0.7,4.5,1.05,4.74,2.72C21.92,4.19,21.91,4.43,21.93,4.66z"/>
	<path class="st4" d="M12.16,12.88c3.07,0.18,5.75,1.55,8.36,3c2.89,1.6,5.34,3.81,7.31,6.46c1.28,1.73,1.25,3.72,0.54,5.65
		c-0.95,2.61-3.4,3.52-5.57,4.76c-1.86,1.06-3.58,0.31-5.3-0.24c-5.28-1.71-9.98-4.36-13.89-8.4c-1.4-1.44-1.38-3.01-0.95-4.64
		c0.79-2.99,2.98-4.73,5.77-5.78C9.62,13.24,10.83,12.78,12.16,12.88z"/>
	<path class="st5" d="M10.48,10.8c-0.23,0-0.69-0.07-0.69-0.74c0.01-1.01,0.89-0.88,1.46-0.99c0.49-0.1,1.14,0.09,1.07,0.8
		C12.23,10.77,11.46,10.76,10.48,10.8z"/>
	<path class="st6" d="M28.37,18.67c-0.26,1.17-1.18,0.86-1.78,0.6c-0.75-0.32-1.04-1.11-0.74-1.92c0.31-0.81,1.07-1,1.78-0.75
		c0.83,0.29,1.3,0.91,0.77,1.86c-0.16-0.08-0.24-0.23-0.3-0.39c-0.17-0.6-0.52-0.88-1.16-0.64c-0.82,0.63-0.37,0.92,0.31,1.15
		C27.62,18.65,28.01,18.48,28.37,18.67z"/>
	<path class="st7" d="M28.37,18.67c-0.37,0.29-0.79,0.3-1.22,0.22c-0.38-0.21-0.31-0.48-0.11-0.78c0.09-0.13,0.19-0.25,0.3-0.37
		c0.43-0.51,0.73-0.3,0.97,0.18c0.03,0.18,0.06,0.36,0.09,0.54C28.39,18.53,28.38,18.6,28.37,18.67z"/>
	<path class="st8" d="M21.71,7.86c-0.17-0.36-0.09-0.69,0.13-1.01c0.54-0.79,1.96-1.16,3.17-0.8c1.06,0.31,1.52,1.04,1.51,2.14
		c0,1.05-0.46,1.76-1.42,2.11c-1.19,0.43-2.21,0.09-3.03-0.93c0.01-0.57,0.41-0.34,0.66-0.3c0.43,0.08,0.85,0.21,1.29,0.07
		c0.66-0.21,1.02-0.67,0.86-1.35c-0.18-0.72-0.75-0.62-1.34-0.54C22.87,7.36,22.45,8.09,21.71,7.86z"/>
	<path class="st9" d="M18.69,3.02c0.68,0.04,1.6,0.08,1.6,1.35c-0.01,1.01-0.72,1.62-1.82,1.59c-1.07-0.03-1.8-0.66-1.78-1.53
		C16.72,3.46,17.29,3,18.69,3.02z"/>
	<path class="st10" d="M21.71,7.86c0.51-0.58,1.25-0.74,1.93-0.92c0.52-0.14,1.27-0.28,1.53,0.43C25.39,8,25.42,8.72,24.73,9.2
		c-0.56,0.38-1.17,0.45-1.82,0.26c-0.28-0.08-0.53-0.42-0.85-0.08C21.61,8.95,21.94,8.34,21.71,7.86z"/>
	<path class="st11" d="M10.13,13.86c1.57-0.57,3.08-0.09,4.53,0.4c4.63,1.54,8.63,4.11,11.91,7.76c0.8,0.89,1.05,1.64,0.15,2.66
		c-1.99,2.27-4.39,3.52-7.46,3.33c-1.85,0.48-3.37-0.51-4.92-1.2c-2.26-1-4.48-2.1-6.62-3.35c-0.58-0.34-1.02-0.75-1.2-1.41
		c-0.78-0.57-1.63-1.06-2.11-1.96c-0.04-0.99,0.51-1.75,1.07-2.47C6.73,16.02,8.26,14.72,10.13,13.86z"/>
	<path class="st12" d="M6.51,22.05c2.28,2.19,5.29,3.09,7.99,4.52c0.52,0.28,1.11,0.44,1.63,0.72c0.98,0.54,2.06,0.57,3.13,0.71
		c-0.15,0.03-0.3,0.06-0.51,0.1c2.71,0.61,6.86-0.24,8.98-3.68c0.84,1.81,0.4,3.78-1.29,5.14c-1.37,1.09-2.83,2.04-4.45,2.77
		c-0.9,0.41-1.15,0.15-1.09-0.75c0.02-0.33,0.09-0.7-0.1-0.97c-0.25-0.06-0.3,0.07-0.31,0.18c-0.19,1.78-0.19,1.81-1.97,1.18
		c-0.96-0.34-2-0.49-2.88-1.07c-1.93-1.13-4.06-1.9-5.89-3.2c-2.15-1.52-4.44-2.9-5.54-5.48c-0.2-0.47-0.55-0.92-0.05-1.41
		c0.52,0.41,1.03,0.82,1.55,1.22C5.97,22.23,6.24,22.42,6.51,22.05z"/>
	<path class="st13" d="M4.16,20.82c0.24,1.87,1.31,3.28,2.68,4.45c2.22,1.9,4.69,3.41,7.32,4.69c0.53,0.26,1.12,0.43,1.49,0.95
		c-4.48-1.67-8.35-4.27-11.68-7.7c-0.92-0.94-0.57-1.95-0.45-3C3.99,20.2,3.98,20.6,4.16,20.82z"/>
	<path class="st14" d="M10.13,13.86c0.67,0.45-0.14,0.41-0.19,0.43c-2.14,0.91-3.59,2.57-4.85,4.43c-0.28,0.42-0.46,0.91-0.68,1.37
		c-0.92-0.9-0.44-1.83,0.14-2.56C5.99,15.71,7.88,14.49,10.13,13.86z"/>
	<path class="st15" d="M27.19,18.22c-0.21,0.21-0.2,0.43-0.04,0.67c-0.63-0.01-0.93-0.34-0.97-0.96c-0.03-0.53,0.26-0.7,0.72-0.73
		c0.03,0.04,0.07,0.08,0.1,0.12C27.07,17.61,27.04,17.94,27.19,18.22z"/>
	<path class="st15" d="M28.31,17.92c-0.3-0.19-0.61-0.48-0.88,0.05c-0.29-0.12-0.37-0.39-0.46-0.66c-0.03-0.04-0.05-0.08-0.08-0.12
		C27.71,16.76,28.21,16.95,28.31,17.92z"/>
	<path class="st16" d="M26.98,17.31c0.36,0.07,0.42,0.36,0.46,0.66c-0.08,0.08-0.17,0.17-0.25,0.25
		C26.51,18.06,26.58,17.72,26.98,17.31z"/>
	<path class="st17" d="M18.7,3.47c-0.02,0.39-0.2,0.52-0.46,0.55c-0.22,0.03-0.39-0.06-0.42-0.29c-0.04-0.31,0.16-0.43,0.42-0.41
		C18.41,3.33,18.58,3.43,18.7,3.47z"/>
	<path class="st18" d="M11.86,15.32c-0.3-0.02-0.7,0.06-0.72-0.38c-0.02-0.44,0.33-0.57,0.72-0.58c0.36,0,0.79,0.01,0.79,0.47
		C12.65,15.3,12.21,15.3,11.86,15.32z"/>
	<path class="st19" d="M10.77,15.51c0.01,0.23-0.13,0.39-0.32,0.43c-0.26,0.06-0.45-0.1-0.5-0.36c-0.04-0.22,0.12-0.38,0.31-0.43
		C10.53,15.09,10.69,15.26,10.77,15.51z"/>
</g>
</svg>
