<?xml version="1.0" encoding="utf-8"?>
<!-- Generator: Adobe Illustrator 23.0.2, SVG Export Plug-In . SVG Version: 6.00 Build 0)  -->
<svg version="1.1" id="Camada_1" xmlns="http://www.w3.org/2000/svg" xmlns:xlink="http://www.w3.org/1999/xlink" x="0px" y="0px"
	 viewBox="0 0 80.11 27" style="enable-background:new 0 0 80.11 27;" xml:space="preserve">
<style type="text/css">
	.st0{fill:#FEFEFE;}
	.st1{fill:#010000;}
	.st2{fill:#421B0B;}
	.st3{fill:#3C1509;}
	.st4{fill:#E9DF58;}
	.st5{fill:#7BB6B6;}
	.st6{fill:#6AAC97;}
	.st7{fill:#FCF068;}
	.st8{fill:#FCF169;}
	.st9{fill:#FAEF68;}
	.st10{fill:#FBF069;}
	.st11{fill:#FBF269;}
	.st12{fill:#FAF069;}
	.st13{fill:#F8ED68;}
	.st14{fill:#FBF169;}
	.st15{fill:#F9F069;}
	.st16{fill:#F9EF68;}
	.st17{fill:#FBF26B;}
	.st18{fill:#F8EF6A;}
	.st19{fill:#F3E968;}
	.st20{fill:#F5ED69;}
	.st21{fill:#F5EE5C;}
	.st22{fill:#F3EB5B;}
	.st23{fill:#F0E859;}
	.st24{fill:#E0D756;}
	.st25{fill:#ECE45A;}
	.st26{fill:#F2EE60;}
	.st27{fill:#F1EC5E;}
	.st28{fill:#FBF068;}
	.st29{fill:#F7EC5B;}
	.st30{fill:#F9EF5C;}
	.st31{fill:#FDFDFD;}
</style>
<g>
	<path class="st0" d="M25.95,0c3.33,0.22,6.76,0.46,10.19,0.67c7.18,0.44,14.36,0.9,21.52,1.62c5.24,0.53,10.51,0.88,15.68,1.95
		c1.47,0.3,2.93,0.67,4.4,0.96C79.01,5.46,80,6.63,80.1,7.89c0.1,1.23-0.44,1.87-1.85,2.57c-0.81,0.4-1.48,1.08-2.26,1.55
		c-2.72,1.67-5.32,3.49-7.52,5.82c-0.27,0.29-0.58,0.63-0.93,0.73c-1.43,0.38-2.24,1.47-3.09,2.53c-1.66,2.09-3.78,3.67-5.86,5.28
		c-1.11,0.86-2.55,0.71-3.81,0.29c-3.29-1.1-6.67-1.13-10.06-1.07c-0.74,0.01-1.42-0.14-2.13-0.24c-7.65-1.11-15.26-2.52-22.91-3.66
		c-4.62-0.69-9.29-1.41-13.65-3.37c-1.26-0.56-2.7-0.69-3.92-1.41c-2.05-1.2-2.78-3.42-1.42-4.86c0.91-0.97,1.89-1.94,3.06-2.65
		c4.71-2.85,9.75-4.99,14.91-6.86c1.2-0.43,2.29-1.05,3.38-1.7C23.19,0.15,24.52-0.03,25.95,0z"/>
	<path class="st1" d="M25.83,1.2c3.47,0.23,6.93,0.47,10.4,0.68c7.14,0.43,14.27,0.91,21.39,1.61c4.97,0.48,9.94,0.91,14.86,1.76
		c1.65,0.29,3.26,0.87,4.94,1.13c0.94,0.14,1.51,0.82,1.5,1.85c-0.01,0.44-0.2,0.85-0.61,0.94c-1.51,0.34-2.4,1.65-3.7,2.35
		c-0.57,0.31-1.12,0.73-1.69,1.08c-1.2,0.71-2.19,1.71-3.29,2.54c-3.46,2.61-6.5,5.66-9.63,8.62c-0.61,0.57-1.26,1.1-1.95,1.58
		c-0.99,0.68-2.14,0.5-3.12,0.15c-1.91-0.68-3.9-1.06-5.86-1.03c-6.39,0.07-12.59-1.28-18.82-2.34c-3.5-0.59-7.04-0.93-10.52-1.6
		c-4.54-0.86-9.17-1.42-13.46-3.38c-1.13-0.52-2.46-0.6-3.56-1.27c-1.45-0.88-1.98-2.28-1.06-3.11c0.95-0.84,1.79-1.81,2.91-2.47
		c4.77-2.79,9.81-4.95,14.99-6.83c1.4-0.51,2.71-1.26,4.06-1.92C24.31,1.19,25.07,1.23,25.83,1.2z"/>
	<path class="st2" d="M4.95,15.5c-0.8-0.19-1.59-0.42-2.15-1.09c-0.18-0.22-0.6-0.4-0.3-0.76c0.3-0.35,0.52-0.1,0.73,0.18
		c0.19,0.25,0.39,0.19,0.56-0.05c1.07,0.27,1.89-0.28,2.69-0.83c-0.93-0.19-1.83,0.03-2.7,0.4c-0.41-0.31-0.3-0.52,0-0.92
		c0.89-1.16,2.24-1.76,3.42-2.32c2.47-1.19,4.87-2.55,7.45-3.53c2.63-0.99,5.24-2.04,7.9-2.95c0.78-0.27,1.19-0.98,2.04-1.17
		c1.7-0.38,3.35,0.05,4.99,0.18c1.62,0.12,3.25,0.17,4.87,0.33c3.28,0.33,6.61,0.27,9.89,0.57C49.37,3.99,54.4,4.3,59.42,4.87
		c4.26,0.48,8.56,0.75,12.76,1.57c1.51,0.3,2.96,0.97,4.56,0.92c0.29-0.01,0.57,0.11,0.61,0.45c0.03,0.29-0.25,0.37-0.43,0.51
		c-1.56,1.23-3.11,2.47-4.88,3.4c-1.32,0.7-2.35,1.77-3.42,2.78c-2.16,2.02-4.9,3.34-6.72,5.8c-1.18,1.59-2.85,2.77-4.48,3.94
		c-0.4,0.29-0.78,0.46-1.2,0.32c-3.63-1.2-7.36-1.51-11.15-1.39c-1.17,0.04-2.29-0.19-3.42-0.43c-2.83-0.62-5.76-0.62-8.6-1.27
		c0.01-0.65,0.7-0.38,0.94-0.72c0.61-0.62,1.21-1.25,1.95-1.92c-0.82-0.32-1.57-0.25-2.32-0.13c-0.17-0.01-0.32-0.08-0.47-0.16
		c-0.79-0.61-1.52-0.05-2.27,0.13c-0.22-0.09-0.36-0.26-0.5-0.43c-0.75-0.53-1.66-0.44-2.5-0.63c-0.38-0.14-0.77-0.07-1.16-0.09
		c-0.35-0.14-0.9-0.02-0.89-0.66c0.4-0.3,0.93-0.34,1.34-0.63c0.64-0.22,1.27-0.02,1.9,0.07c7.56,1.03,15.14,1.92,22.71,2.88
		c2.1,0.27,3.88-0.13,5.62-1.36c4.8-3.38,9.42-7.03,14.34-10.25c0.07-0.05,0.12-0.11,0.11-0.26c-3.12-0.38-6.25-0.75-9.38-1.1
		C56.64,5.58,50.8,5.06,44.94,4.62c-3.42-0.25-6.84-0.63-10.28-0.56c-0.72,0.02-1.44,0.05-2.15-0.08c-2.19-0.45-4.25-0.41-6.34,0.72
		c-4.81,2.6-9.89,4.67-14.75,7.18c-1.14,0.59-2.25,1.2-3.25,2.02c-0.3,0.19-0.66,0.22-0.98,0.34c-0.33,0.11-0.67,0.2-0.99,0.36
		c0.13,0.34,0.75,0.06,0.73,0.58C6.33,15.74,5.61,15.41,4.95,15.5z"/>
	<path class="st3" d="M7.12,14.03c0.28-0.33,0.69-0.17,1.04-0.26c0.58-0.41,1.21-0.28,1.84-0.19c1.93,0.27,3.85,0.61,5.78,0.85
		c3.3,0.5,6.6,0.94,9.9,1.43c0.51,0.07,1.04,0.09,1.35,0.61c-0.18,0.78-0.85,0.33-1.27,0.5c-1.26,0.19-2.4,0.61-3.2,1.73
		c1.19,0.53,2.2,0.41,3.07-0.64c0.3-0.37,0.68-0.68,1.22-0.65c0.29-0.17,0.58-0.39,0.9-0.06c-0.17,0.89-1.11,1.2-1.52,1.98
		c1.05,0.54,1.93,0.36,2.8-0.4c0.44-0.39,0.78-1.07,1.57-0.86c0.09,0.18,0.18,0.35,0.26,0.53c0.07,0.75-0.78,0.81-1,1.4
		c0.9,0.47,1.41-0.13,1.95-0.71c0.38-0.42,0.59-1.09,1.36-0.95c0.12,0.11,0.24,0.22,0.36,0.33c0.06,0.78-0.81,1.01-1.02,1.66
		c0.52,0.39,1.32-0.06,1.7,0.61c-0.2,0.59-0.9,0.1-1.16,0.55c-4.1-0.76-8.19-1.52-12.35-1.94c-1.65-0.16-3.25-0.76-4.9-1.02
		c-3.28-0.52-6.47-1.3-9.49-2.7c-0.43-0.2-0.98,0.1-1.36-0.32c0.57-0.46,1.35-0.01,1.93-0.43c0-0.17,0.08-0.34,0.21-0.39
		C7.7,14.48,7.29,14.25,7.12,14.03z"/>
	<path class="st4" d="M3.78,13.34c0.27-0.5,0.65-0.73,1.25-0.67c0.7,0.06,1.42,0.01,2.14,0.01c-1.17,1.29-2.59,1.74-3.38,1.09
		C3.79,13.63,3.79,13.49,3.78,13.34z"/>
	<path class="st5" d="M27.04,16.46c-3.21-0.48-6.42-0.95-9.63-1.44c-0.55-0.08-1.09-0.18-1.64-0.28c0.36-1.37,1.65-1.77,2.62-2.51
		c0.28-0.21,0.64-0.3,0.99-0.37c2.55,0.21,5.06,0.66,7.59,0.98c7.76,0.98,15.49,2.24,23.26,3.2c0.86,0.11,1.68,0.02,2.43-0.41
		c2.94-1.69,6.02-3.14,8.85-5.04c0.54-0.36,1.03-0.75,1.35-1.33c0.38-0.7,0.17-1.07-0.61-1.09c-1.44-0.03-2.87-0.16-4.3-0.23
		c-6.82-0.31-13.61-0.91-20.41-1.44c-2.66-0.21-5.34-0.2-8-0.49c-0.32-0.03-0.64-0.06-0.93-0.22c-0.27-0.19-0.2-0.46,0-0.58
		c1.19-0.68,2.21-1.82,3.79-1.54c13.51,0.24,26.9,1.87,40.32,3.38c-0.04,0.17-0.03,0.29-0.08,0.32c-5.17,3.33-10,7.16-15.02,10.71
		c-1.93,1.37-3.83,1.71-6.1,1.42c-7.88-1.01-15.79-1.89-23.65-3.02C27.6,16.46,27.32,16.47,27.04,16.46z"/>
	<path class="st6" d="M32.4,3.69c-1.52,0.23-2.66,1.23-3.92,1.96c-2.9,1.67-5.92,3.11-8.88,4.66c-1.31,0.68-1.31,0.69-0.48,1.81
		c-1.24,0.73-2.42,1.52-3.35,2.64c-2.06-0.3-4.13-0.61-6.2-0.9c-0.47-0.06-0.94-0.06-1.41-0.09c-0.03-0.71,0.64-0.75,1.03-0.97
		c4.3-2.53,8.91-4.44,13.39-6.62c1.25-0.61,2.59-1.09,3.75-1.84C28.28,3.05,30.31,3.25,32.4,3.69z"/>
	<path class="st7" d="M61.05,20.23c-1.24,0.73-1.94,1.71-2.86,2.46c-0.95,0.77-1.27,0.66-1.46-0.48c-0.07-0.39-0.17-0.78-0.23-1.17
		c-0.05-0.33-0.57-0.82,0.37-0.79c0.51,0.01-0.45-0.48,0.12-0.74c0.6-0.27,1.09-0.73,1.82-0.34C59.46,19.52,60.16,19.81,61.05,20.23
		z"/>
	<path class="st8" d="M35.23,20.95c1.41-2.32,3.37-2.62,5.63-1.73C39.14,21.52,38.7,21.66,35.23,20.95z"/>
	<path class="st9" d="M47.77,19.97c-1.04,1.84-2.39,2.94-4.58,1.88C44.15,19.62,44.67,19.4,47.77,19.97z"/>
	<path class="st9" d="M63.88,17.42c-1.37,1.89-2.92,2.89-4.95,1.02C60.33,16.89,61.18,16.7,63.88,17.42z"/>
	<path class="st10" d="M30.61,18.06c-0.35,0.25-0.78,0.44-1.04,0.77c-1.1,1.43-2.46,1.27-4,0.68c0.75-0.74,1.47-1.45,2.18-2.16
		c0.82,0.1,1.63,0.22,2.45,0.31C30.48,17.69,30.66,17.74,30.61,18.06z"/>
	<path class="st10" d="M26.85,17.41c-0.16,0.12-0.35,0.22-0.46,0.37c-1.18,1.57-2.65,1.99-4.54,1.02c1.19-0.85,2-2.42,3.92-1.84
		C26.06,17.28,26.64,16.91,26.85,17.41z"/>
	<path class="st11" d="M67.14,14.65c-1.39,1.68-2.96,2.75-5.18,1.65C63.36,14.82,64.97,13.9,67.14,14.65z"/>
	<path class="st12" d="M34.21,20.92c-0.74-0.09-1.49-0.19-2.44-0.31c0.65-0.72,1.21-1.34,1.76-1.97c1-0.87,2,0,2.73-0.12
		C35.63,19.27,34.92,20.1,34.21,20.92z"/>
	<path class="st13" d="M46.76,22.39c1.84-2.55,1.84-2.55,3.93-2.05C49.71,22.84,49.71,22.84,46.76,22.39z"/>
	<path class="st14" d="M53.3,23.15c0.32-0.83,0.62-1.6,0.92-2.37c0.18-0.46,0.58-0.5,0.98-0.53c0.47-0.04,0.46,0.36,0.56,0.64
		c0.78,2.28,0.64,2.46-1.72,2.33C53.8,23.21,53.57,23.18,53.3,23.15z"/>
	<path class="st15" d="M39.72,21.42c1.13-1.14,1.93-2.8,3.98-1.92C42.93,21.7,42.04,22.15,39.72,21.42z"/>
	<path class="st16" d="M50.13,22.82c0.39-0.7,0.76-1.39,1.16-2.06c0.52-0.89,1.33-0.26,1.91-0.19c0.62,0.08,0.09,0.72-0.05,1.02
		C52.32,23.35,52.97,23.3,50.13,22.82z"/>
	<path class="st17" d="M70.42,12.06c-1.36,1.44-2.82,2.45-4.89,1.66C66.72,12.03,68.55,12.04,70.42,12.06z"/>
	<path class="st18" d="M33.18,18.33c-0.37,0.35-0.81,0.65-1.1,1.05c-0.74,1.03-1.63,1.42-2.9,0.76c0.57-0.52,1.13-1.03,1.7-1.55
		C31.58,17.97,32.31,17.56,33.18,18.33z"/>
	<path class="st19" d="M71.68,9.25c1.23-1.16,2.54-1.85,4.3-1.16C74.76,9.28,73.48,10.08,71.68,9.25z"/>
	<path class="st20" d="M68.27,11.69c1.42-1.3,2.65-2.24,4.47-1.31C71.65,11.75,70.03,11.5,68.27,11.69z"/>
	<path class="st21" d="M12.6,8.77c1.52-0.99,3.08-1.5,5-1.09C15.97,8.43,14.57,9.52,12.6,8.77z"/>
	<path class="st22" d="M21.12,6.01c-1.37,1.04-2.87,1.24-4.61,1.01C17.96,5.96,19.34,5.21,21.12,6.01z"/>
	<path class="st23" d="M9.39,10.32c1.22-0.86,2.49-1.42,4.08-0.77C12.19,10.33,10.96,11.1,9.39,10.32z"/>
	<path class="st24" d="M20.37,5.21c1.32-0.89,2.64-1.11,4.19-0.82C23.27,5.34,21.96,5.63,20.37,5.21z"/>
	<path class="st25" d="M5.94,12.01c1.19-0.8,2.4-1.46,3.9-0.74C8.72,12.51,7.21,11.75,5.94,12.01z"/>
	<path class="st26" d="M23.86,3.71c1.06-1.08,2.18-0.5,3.46-0.65C26.18,4.01,25.1,3.77,23.86,3.71z"/>
	<path class="st27" d="M7.12,14.03c0.29,0.09,0.59,0.18,1,0.31c-0.47,0.28-0.85,0.5-1.23,0.73c-0.51,0-1.02,0-1.84,0
		C5.84,14.46,6.4,14.09,7.12,14.03z"/>
	<path class="st28" d="M14.11,17.57c1.29-1.97,3.09-2.2,5.13-1.44C18.2,17.99,16.66,18.44,14.11,17.57z"/>
	<path class="st12" d="M18.1,18.28c1.38-1.79,3.02-2.51,5.06-1.48C21.37,18.85,21.07,18.94,18.1,18.28z"/>
	<path class="st29" d="M10.34,16.58c1.36-1.71,3.01-1.82,4.93-0.99c-0.78,0.6-1.46,1.48-2.28,1.66
		C12.2,17.42,11.26,16.85,10.34,16.58z"/>
	<path class="st30" d="M11.6,14.87c-1.25,0.61-1.96,1.9-3.43,1.3c-0.24-0.1-0.47-0.23-0.7-0.35c0.16-0.27,0.17-0.62,0.49-0.79
		C8.6,14.7,9.2,14.3,9.98,14.55C10.42,14.69,10.89,14.73,11.6,14.87z"/>
	<path class="st31" d="M19.12,12.11c-0.39-0.43-1.38-0.32-1.34-0.99c0.04-0.59,0.92-0.62,1.42-0.89c2.42-1.29,4.85-2.54,7.3-3.78
		c0.63-0.32,1.1-1.07,1.97-0.81c6.25,0.41,12.51,0.77,18.75,1.25c5.05,0.39,10.11,0.75,15.17,0.94c1.26,0.05,1.4,0.32,0.9,1.44
		c-0.28,0.61-0.7,1.04-1.24,1.41c-3.02,2.04-6.33,3.57-9.46,5.41c-1.52,0.89-3.15,0.19-4.7,0.01c-8.08-0.97-16.09-2.37-24.18-3.29
		C22.18,12.63,20.66,12.35,19.12,12.11z"/>
	<path class="st5" d="M62.67,8.81c-2.71,2.03-5.52,3.29-7.96,5.05c-2.51,1.81-5.03,1.78-7.88,1.35c-8.24-1.23-16.44-2.69-24.73-3.58
		c-0.81-0.09-1.61-0.25-2.78-0.43c1.9-0.97,3.57-1.64,5.04-2.61c2.95-1.95,6.12-2.07,9.5-1.72c5.12,0.53,10.26,0.79,15.39,1.22
		C53.61,8.44,57.98,8.63,62.67,8.81z"/>
</g>
</svg>
