<?xml version="1.0" encoding="utf-8"?>
<!-- Generator: Adobe Illustrator 23.0.2, SVG Export Plug-In . SVG Version: 6.00 Build 0)  -->
<svg version="1.1" id="Camada_1" xmlns="http://www.w3.org/2000/svg" xmlns:xlink="http://www.w3.org/1999/xlink" x="0px" y="0px"
	 viewBox="0 0 80.4 27.12" style="enable-background:new 0 0 80.4 27.12;" xml:space="preserve">
<style type="text/css">
	.st0{fill:#010000;}
	.st1{fill:#431C0C;}
	.st2{fill:#401709;}
	.st3{fill:#41170A;}
	.st4{fill:#381409;}
	.st5{fill:#452311;}
	.st6{fill:#462311;}
	.st7{fill:#44200F;}
	.st8{fill:#39190C;}
	.st9{fill:#3B1A0C;}
	.st10{fill:#F8EF69;}
	.st11{fill:#E9DF58;}
	.st12{fill:#360F09;}
	.st13{fill:#7BB6B6;}
	.st14{fill:#6AAC97;}
	.st15{fill:#FCF068;}
	.st16{fill:#FBF068;}
	.st17{fill:#FBF269;}
	.st18{fill:#F8EE67;}
	.st19{fill:#F7EF6A;}
	.st20{fill:#F6EE69;}
	.st21{fill:#F2ED60;}
	.st22{fill:#3A160B;}
	.st23{fill:#FCF169;}
	.st24{fill:#FAEF68;}
	.st25{fill:#FBF069;}
	.st26{fill:#FAF069;}
	.st27{fill:#FBF169;}
	.st28{fill:#F7EC5B;}
	.st29{fill:#FBF26A;}
	.st30{fill:#F6EC69;}
	.st31{fill:#2A160A;}
	.st32{fill:#F5EE5C;}
	.st33{fill:#F4ED5B;}
	.st34{fill:#F0E85A;}
	.st35{fill:#E3DA57;}
	.st36{fill:#ECE45A;}
	.st37{fill:#F9EF5C;}
	.st38{fill:#F1EC5E;}
	.st39{fill:#FDFEFD;}
</style>
<g>
	<path class="st0" d="M56.91,26.09c-1.63-0.07-3.05-0.78-4.6-0.96c-1.71-0.21-3.4-0.46-5.13-0.39c-1.84,0.07-3.63-0.19-5.46-0.44
		c-7.23-0.98-14.39-2.4-21.61-3.45c-4.6-0.67-9.25-1.39-13.58-3.37c-1.38-0.63-3.01-0.7-4.21-1.81c-1.09-1.01-0.96-1.93,0.1-3
		c1.22-1.24,2.6-2.34,4.09-3.04c3.05-1.43,5.99-3.09,9.18-4.23c1.89-0.68,3.9-1.18,5.59-2.29c2.51-1.64,5.21-1.64,8.03-1.42
		c6.73,0.52,13.47,0.92,20.2,1.43c6.21,0.47,12.42,1.04,18.6,1.85c1.42,0.19,2.86,0.31,4.27,0.56C74.23,5.85,76,6.54,77.9,6.77
		c0.84,0.1,1.4,0.86,1.33,1.85c-0.03,0.44-0.24,0.82-0.65,0.92c-1.54,0.38-2.46,1.71-3.79,2.42c-0.44,0.24-0.84,0.57-1.29,0.83
		c-1.31,0.75-2.4,1.82-3.59,2.72c-3.42,2.59-6.44,5.61-9.55,8.54c-0.61,0.57-1.29,1.07-1.93,1.59
		C57.96,26.02,57.39,26.03,56.91,26.09z"/>
	<path class="st1" d="M62.88,19.92c-1.52,1.91-3.44,3.38-5.36,4.85c-0.79,0.61-1.37-0.29-2.08-0.3c0-0.65,0.8-0.43,0.97-0.91
		c0.26-0.36,0.1-0.86,0.39-1.21c0.1-0.08,0.28-0.1,0.31-0.02c0.47,1.35,1.07,0.61,1.67,0.12c0.31-0.26,0.65-0.52,0.8-0.88
		c0.19-0.42,1.31-0.49,0.6-1.2c-0.93-0.94-2.18-0.88-2.72,0.04c-0.19,0.33-0.47,0.39-0.75,0.53c-0.28-0.13-0.48-0.06-0.59,0.24
		c-0.39-0.02-0.67-0.26-0.96-0.49c-0.04-0.48,0.43-0.73,0.55-1.14c2.78-1.96,5.58-3.87,8.31-5.9c2.65-1.98,5.33-3.93,8.32-5.88
		c-1.14-0.28-2.08-0.33-3-0.44c-5.12-0.62-10.24-1.2-15.37-1.64C49.32,5.29,44.66,4.92,40,4.6c-2.44-0.16-4.87-0.05-7.3-0.29
		c-1.55-0.19-3.11-0.51-4.67-0.06c-0.25-0.02-0.47-0.13-0.67-0.28c-0.76-0.68-1.81-0.01-2.6-0.54c-0.22-0.3,0.03-0.42,0.21-0.57
		c1.58-0.62,3.17,0.01,4.73,0.1c1.57,0.09,3.17,0.16,4.75,0.32c3.24,0.33,6.52,0.33,9.77,0.56c3.53,0.25,7.05,0.59,10.57,0.9
		c2.69,0.24,5.39,0.47,8.07,0.76c3.35,0.37,6.7,0.8,10.05,1.24c0.34,0.04,0.78,0.18,0.96,0.42c0.49,0.67,1.12,0.49,1.74,0.44
		c0.27-0.02,0.54-0.27,0.8-0.11c0.4,0.24,1.09,0,1.24,0.56c0.16,0.57-0.51,0.63-0.82,0.89c-1.28,1.05-2.56,2.13-4.1,2.81
		c-0.28,0.11-0.43-0.04-0.56-0.25c0.09-0.38,0.39-0.74-0.38-0.85c-1.09-0.16-1.66,0.63-2.44,1.05c-0.03,0.01-0.04,0.08-0.04,0.11
		c0.01,0.03,0.06,0.05,0.1,0.07c0.34,0.1,0.75,0.05,0.97,0.42c-0.15,0.51-0.61,0.5-0.97,0.47c-1.29-0.1-2.27,0.51-3.23,1.31
		c-0.11,0.04,0.01,0.1,0.03,0.09c0.44-0.38,0.82-0.4,1.03,0.24c-0.68,0.6-1.57,0.07-2.3,0.42c-0.35,0.38-0.72,0.75-1.18,0.99
		c-0.59,0.32-0.98,0.64-0.44,1.31c-0.39,0.28-0.89,0.17-1.31,0.34c-1,0.16-1.68,0.99-2.57,1.28c0.82,0.14,1.51,0.72,2.35,0.93
		C62.11,19.97,62.65,19.28,62.88,19.92z"/>
	<path class="st2" d="M55.62,19.89c0.59,0.67-0.41,0.38-0.42,0.69c-0.1,0.29-0.36,0.39-0.6,0.52c-0.3,0.1-0.54,0.39-0.9,0.31
		c-1.52-0.51-1.53-0.51-2.38,0.78c-0.24,0.36-0.47,0.73-0.82,1c-0.27,0.13-0.54,0.28-0.72-0.12c-0.08-0.91,0.54-1.48,1.01-2.12
		c-1.04-0.5-1.86-0.11-2.57,0.75c-0.33,0.4-0.6,0.86-1.08,1.11c-0.34,0.13-0.68,0.28-0.91-0.17c0.03-0.95,1.03-1.28,1.31-2.16
		c-0.38-0.07-0.8,0-1.2-0.13c-0.76-0.25-1.3,0.04-1.74,0.66c-0.39,0.55-0.76,1.13-1.4,1.43c-0.25,0.04-0.46-0.01-0.58-0.26
		c-0.15-0.86,0.76-1.26,0.91-2.08c-0.72-0.27-1.3-0.08-1.83,0.42c-0.49,0.46-0.91,1-1.53,1.33c-0.33,0.12-0.67,0.27-0.9-0.17
		c0.01-0.93,0.95-1.22,1.36-1.97c-1.54-0.38-2.98-0.61-4.08,0.91c-0.23,0.32-0.56,0.57-0.93,0.75c-0.34,0.13-0.68,0.26-0.91-0.17
		c0.05-0.99,1.03-1.32,1.52-2.04c-1.85-0.4-2.2-0.23-3.34,1.51c0.54,0.36,1.42-0.09,1.76,0.72c-0.15,0.6-0.74,0.13-1.02,0.42
		c-3.05-0.52-6.1-1.06-9.16-1.54c-2.23-0.35-4.52-0.39-6.7-1.09c-0.22-0.28-0.82-0.2-0.73-0.77c0.62-0.54,1.36-0.94,1.92-1.66
		c-0.89-0.47-1.82-0.38-2.74-0.3c-0.22-0.02-0.43-0.1-0.63-0.2c-0.23-0.13-0.46-0.26-0.52-0.55c0.29-0.19-0.19-0.67,0.29-0.79
		c0.3-0.1,0.6-0.12,0.91-0.1c9.79,1.42,19.59,2.76,29.41,3.94c3.01,0.36,6.01,0.82,9.04,0.93C55.02,19.7,55.35,19.68,55.62,19.89z"
		/>
	<path class="st3" d="M27.31,3.82c0.21,0.03,0.41,0.05,0.53,0.25c-0.12,0.44-0.51,0.59-0.86,0.77c-2.89,1.52-5.85,2.88-8.81,4.23
		c-1.81,0.83-3.56,1.76-5.36,2.62c-0.46,0.22-0.9,0.53-1.45,0.48c-0.46-0.94-1.45-0.4-2.12-0.75c-0.12-0.07-0.17-0.17-0.16-0.3
		c0.41-0.56,1.02-0.34,1.56-0.41c1.05,0.21,1.8-0.81,2.82-0.68c-0.08-0.17-0.42-0.19-0.27-0.49c0.28-0.25,0.66-0.28,1-0.4
		c1.21-0.07,2.14-0.93,3.07-1.04c0.39-0.14,0.13-0.29,0.23-0.17c0.22,0.28-1.28,0.32-2.1,0.05c0.07-0.88,0.89-0.63,1.36-0.92
		c1.5,0.16,2.97,0.13,4.13-0.61c-0.26,0.07-0.67-0.09-1.07-0.27c-0.24-0.17-0.67-0.24-0.56-0.63c0.08-0.26,0.47-0.2,0.73-0.25
		c0.31-0.06,0.62,0.05,0.92,0.1c1.24,0.1,2.46,0.07,3.53-0.72c0.13-0.06-0.11-0.24-0.02-0.11c0.04,0.06,0.03,0.09-0.02,0.12
		c-0.56,0.31-1.15,0.17-1.73,0.08c-0.37-0.19-0.5-0.4-0.08-0.68c0.08,0,0.17-0.01,0.25-0.01c0.84-0.02,1.68-0.08,2.52-0.17
		C25.99,4.07,26.63,3.42,27.31,3.82z"/>
	<path class="st4" d="M17.04,18.52c0.21,0.26,0.61,0.31,0.72,0.67c-2.77-0.58-5.59-0.93-8.29-1.88c-1.4-0.49-2.73-1.17-4.2-1.46
		c0.35-0.78,1.17-0.4,1.71-0.69c0.32-0.14,0.62-0.32,0.96-0.41c-0.21-0.14-0.63-0.12-0.51-0.57c0.29-0.32,0.69-0.32,1.08-0.34
		c2.05-0.04,4.03,0.46,6.03,0.76c0.27,0.04,0.56,0.12,0.59,0.48c-0.01,0.19,0.65,0.48-0.08,0.56c-0.25,0.25-0.59,0.29-0.89,0.21
		c-1.13-0.33-2,0.09-2.87,0.89c1.19,0.46,2.3,0.87,3.28-0.35c0.23-0.28,0.6-0.38,0.98-0.32c0.21,0.02,0.41,0.05,0.53,0.26
		c-0.11,0.87-0.98,1.05-1.34,1.56C15.46,18.02,16.4,17.68,17.04,18.52z"/>
	<path class="st5" d="M22.55,4.1c-0.04,0.16-0.26,0.34,0.04,0.48c-0.2,0.88-1.17,0.66-1.64,1.14c-0.52,0.07-0.97-0.39-1.52-0.13
		c0,0.28,0.41,0.14,0.48,0.37c-0.6,0.5-1.34,0.67-2.05,0.9c-1.46,0.09-2.71,0.79-3.91,1.51c-1.27,0.77-2.81,1-3.92,2.04
		c0.25,0.22,0.77,0.1,0.8,0.6c-0.57,0.14-1.21-0.21-1.73,0.25c-0.51,0.49-1.23,0.48-1.83,0.77c-0.43,0.21-0.86,0.39-1.14,0.8
		c-0.63,0.27-1.26,0.36-1.84-0.11c0.74-1.24,2.14-1.71,3.26-2.27c2.31-1.15,4.58-2.4,7.01-3.32C17.23,6.11,19.89,5.1,22.55,4.1z"/>
	<path class="st6" d="M33.61,21.82c0.2-0.37,0.81-0.05,0.92-0.55c0.04-0.12,0.13-0.18,0.26-0.18c0.21,0.41,0.45,0.12,0.68,0.02
		c1.3,0.12,2.6,0.13,3.88,0.45c0.22,0.43,0.48,0.11,0.72,0.04c0.86,0.23,1.8-0.04,2.63,0.42c0.13,0.25,0.35,0.29,0.6,0.27
		c1.06-0.4,2.06-0.19,3.03,0.28c0.25,0.37,0.49,0.05,0.73,0c0.96-0.02,1.91,0.02,2.82,0.38c0.13,0.33,0.35,0.14,0.54,0.09
		c1.14-0.11,1.15-0.1,1.36,0.56c-0.55,0.04-1.09,0.13-1.63-0.07C44.54,23.85,39.1,22.64,33.61,21.82z"/>
	<path class="st7" d="M8.48,14.11c-0.35,0.1-0.76-0.07-1.04,0.27c-0.23,0.39-0.72,0.37-1.03,0.67c0.28,0.11,0.64,0.02,0.8,0.37
		c-0.58,0.43-1.36-0.04-1.93,0.43c-0.91-0.2-1.75-0.53-2.35-1.29c-0.15-0.19-0.33-0.38-0.04-0.6c0.22-0.17,0.39-0.16,0.58,0.1
		c0.14,0.19,0.37,0.82,0.66,0.07c1.46,0.36,2.39-0.62,3.41-1.37c0.29-0.28,0.7-0.31,1.04-0.47c0.21-0.1,0.42-0.23,0.63-0.34
		c0.49-0.25,0.49-0.25,0.12-0.64c0.47-0.01,0.95,0.02,1.42-0.03c0.65-0.08,0.52,0.4,0.6,0.75c-0.3,0.83-1.17,0.94-1.76,1.4
		C9.22,13.68,8.82,13.85,8.48,14.11z"/>
	<path class="st8" d="M50.14,23.53c0.59-0.02,1.18-0.03,1.77-0.05c0.56-0.31,1.02-0.71,1.2-1.37c0.09-0.33,0.26-0.67,0.67-0.75
		c0.24-0.19,0.37-0.55,0.78-0.45c0.37,0.79-0.29,1.41-0.4,2.2c0.91,0.24,1.76,0.36,2.38-0.59c0.37,0.38,0.23,0.81,0.11,1.23
		c-0.17,0.63-0.89,0.33-1.2,0.72C53.68,24.18,51.88,24.01,50.14,23.53z"/>
	<path class="st9" d="M61.92,17.28c0.44-0.45,1.02-0.14,1.51-0.28c1.62,0.06,2.59-1.31,3.95-1.83c0.26,0.04,0.44,0.17,0.53,0.42
		c-0.4,0.73-1.08,1.07-1.8,1.43c-1.32,0.66-2.28,1.78-3.22,2.9c-0.33-0.38-0.63,0.57-0.96,0.02c0.33-1.05,1.18-1.52,1.99-1.99
		C63.4,17.61,62.41,18.15,61.92,17.28z"/>
	<path class="st10" d="M67.29,14.35c-0.49-0.07-0.98-0.15-1.65-0.25c1.19-0.85,2.07-1.91,3.63-1.64c0.36,0.06,0.77-0.1,1.16-0.17
		c0.31-0.26,0.44-0.07,0.53,0.21c-0.05,0.06-0.1,0.13-0.15,0.19c-0.53,0.6-1.16,1.09-1.8,1.55C68.49,14.6,67.9,14.93,67.29,14.35z"
		/>
	<path class="st11" d="M7.67,12.99C6.96,13.75,6,14.11,5.1,14.57c-0.42,0.22-0.72-0.15-0.99-0.45c-0.01-0.15-0.01-0.29-0.02-0.44
		c0.07-0.26,0.08-0.68,0.37-0.69C5.53,12.96,6.6,12.33,7.67,12.99z"/>
	<path class="st9" d="M67.29,14.35c0.97,0.15,1.64-0.39,2.32-0.94c0.35-0.29,0.64-0.72,1.18-0.72c-0.23,0.94-1.02,1.38-1.69,1.93
		c-1.21,0.48-2.48,0.35-3.73,0.31c-0.21-0.03-0.4-0.1-0.53-0.27C65.6,14.06,66.49,14.61,67.29,14.35z"/>
	<path class="st12" d="M7.67,12.99C6.89,13,6.1,13.06,5.32,13.01c-0.6-0.04-0.96,0.19-1.23,0.68c-0.6-0.46-0.25-0.73,0.2-0.97
		c0.64-0.11,1.34,0.24,1.94-0.24c0.43-0.34,0.97-0.33,1.47-0.44c0.36-0.08,0.83-0.16,0.93,0.42C8.44,12.87,7.86,12.56,7.67,12.99z"
		/>
	<path class="st9" d="M70.95,12.5c-0.18-0.07-0.35-0.14-0.53-0.21c-0.42-0.13-0.92,0.1-1.3-0.26c0.95-0.64,2-0.71,3.09-0.53
		c0.17,0.09,0.35,0.17,0.52,0.26C72.24,12.26,71.67,12.57,70.95,12.5z"/>
	<path class="st5" d="M25.44,4.12c-0.88,0.3-1.77,0.36-2.64-0.04c0.85-0.17,1.16-1.31,2.16-1.21c-0.07,0.19-0.14,0.38-0.22,0.57
		C24.82,3.83,25.28,3.82,25.44,4.12z"/>
	<path class="st1" d="M65.21,14.67c1.3-0.02,2.6-0.03,3.9-0.05c-0.4,0.32-0.8,0.65-1.2,0.97c-0.19-0.09-0.37-0.19-0.56-0.28
		c-0.33-0.32-0.74-0.07-1.1-0.14C65.86,15.1,65.36,15.24,65.21,14.67z"/>
	<path class="st13" d="M55.62,19.89c-0.75,0.34-1.54,0.14-2.29,0.06c-11.62-1.21-23.2-2.79-34.76-4.46
		c-0.83-0.12-1.65-0.26-2.48-0.4c0.36-1.37,1.65-1.77,2.62-2.51c0.28-0.21,0.64-0.3,0.99-0.37c2.55,0.21,5.06,0.66,7.59,0.98
		c7.76,0.98,15.49,2.24,23.26,3.2c0.86,0.11,1.68,0.02,2.43-0.41c2.94-1.69,6.02-3.14,8.85-5.04c0.54-0.36,1.03-0.75,1.35-1.33
		c0.38-0.7,0.17-1.08-0.61-1.09c-1.44-0.03-2.87-0.16-4.3-0.23C51.45,8,44.66,7.39,37.86,6.86c-2.66-0.21-5.34-0.2-8-0.49
		c-0.32-0.03-0.64-0.06-0.93-0.22c-0.27-0.19-0.2-0.46,0-0.58c1.19-0.68,2.21-1.82,3.79-1.54c13.51,0.24,26.9,1.87,40.7,3.42
		C67.11,11.48,61.67,16.12,55.62,19.89z"/>
	<path class="st14" d="M32.72,4.04C31.2,4.27,30.07,5.26,28.8,6c-2.9,1.67-5.92,3.11-8.88,4.66c-1.31,0.68-1.31,0.69-0.48,1.81
		c-1.24,0.73-2.42,1.52-3.35,2.64c-0.32-0.01-0.64-0.02-0.96-0.02c-2.2-0.42-4.41-0.82-6.65-0.96c0.18-0.89,1.1-0.88,1.64-1.34
		c0.36-0.3,0.8-0.51,1.2-0.76c5.51-2.65,11.01-5.3,16.52-7.95C29.46,3.26,31.09,3.85,32.72,4.04z"/>
	<path class="st15" d="M56.59,20.87c-0.04-0.47,0.96-0.27,0.6-0.94c0.57-0.26,1.02-0.87,1.8-0.45c0.69,0.38,1.44,0.66,2.25,1.02
		c-1.1,1-2.15,1.94-3.17,2.9c-0.59,0.55-0.87,0.37-0.98-0.35c-0.04-0.27-0.11-0.54-0.17-0.8C56.5,21.86,56.47,21.39,56.59,20.87z"/>
	<path class="st16" d="M61.92,17.28c0.76,0.15,1.53,0.3,2.46,0.48c-0.89,0.79-1.68,1.49-2.46,2.18c-1.05-0.08-1.83-0.82-2.98-1.09
		C60.02,18.25,60.69,17.26,61.92,17.28z"/>
	<path class="st17" d="M65.21,14.67c0.6,0.23,1.24,0.15,1.86,0.18c0.38,0.02,0.53,0.1,0.27,0.46c-0.31,0.23-0.68,0.41-0.93,0.7
		c-0.81,0.94-1.77,1.34-2.99,0.99c-0.38-0.09-0.76-0.17-1.34-0.3c0.98-0.73,1.86-1.39,2.75-2.04
		C64.96,14.66,65.09,14.67,65.21,14.67z"/>
	<path class="st18" d="M56.43,22.57c0.14,0.81-0.01,1.3-1.02,1.08c-0.57-0.12-1.17-0.08-1.84-0.12c0.34-0.93,0.83-1.71,0.99-2.62
		c0.21-0.11,0.42-0.22,0.63-0.32c0.51-0.11,0.77,0.17,0.93,0.6C56.52,21.58,56.68,22.03,56.43,22.57z"/>
	<path class="st19" d="M76.31,8.44c-1.24,1.17-2.51,2.02-4.29,1.17C73.21,8.44,74.53,7.79,76.31,8.44z"/>
	<path class="st20" d="M72.21,11.51c-0.97,0.51-2.07,0.3-3.09,0.53c-0.47-0.08-0.39-0.22-0.08-0.47c1.61-1.33,1.67-1.35,4.02-0.95
		C73.02,11.15,72.38,11.11,72.21,11.51z"/>
	<path class="st21" d="M25.44,4.12c-0.19-0.01-0.38,0-0.57-0.04c-0.22-0.04-0.61,0.19-0.6-0.26c0-0.13,0.31-0.26,0.47-0.39
		c0.78-0.01,1.57-0.02,2.35-0.03c0.33,0,0.44,0.11,0.21,0.4C26.66,3.76,26.14,4.5,25.44,4.12z"/>
	<path class="st22" d="M56.43,22.57c-0.1-0.46-0.2-0.92-0.3-1.38c0.02-0.3,0.1-0.52,0.46-0.31c0.25,0.42,0.32,0.89,0.33,1.37
		c-0.15,0.49,0.17,1.06-0.27,1.5C56.58,23.35,56.79,22.91,56.43,22.57z"/>
	<path class="st23" d="M39.34,21.56c-1.34,0.27-2.63,0.11-3.88-0.45c0.03-0.02,0.08-0.03,0.1-0.06c1.51-1.89,3.36-2.5,5.86-1.35
		C40.73,20.32,40.04,20.94,39.34,21.56z"/>
	<path class="st24" d="M46.32,22.57c-1.03,0.08-2.02-0.2-3.03-0.28c0.02-0.04,0.03-0.07,0.05-0.11c1.01-2.01,2.52-2.78,4.75-1.79
		C47.53,21.08,46.93,21.82,46.32,22.57z"/>
	<path class="st16" d="M17.04,18.52c-0.88-0.18-1.75-0.35-2.8-0.57c0.7-0.61,1.27-1.12,1.85-1.63c1.21-0.73,2.35,0.21,3.58,0.14
		C18.83,17.25,18.16,18.17,17.04,18.52z"/>
	<path class="st25" d="M30.94,18.22c-1.41,1.32-2.67,2.97-4.92,1.62C27.18,18.12,28.67,17.14,30.94,18.22z"/>
	<path class="st26" d="M18.49,18.54c1.3-1.73,2.96-2.42,5.05-1.4C22.19,18.58,20.7,19.81,18.49,18.54z"/>
	<path class="st27" d="M22.11,19.25c1.45-1.4,2.78-2.82,4.88-1.59C25.63,19.74,25.13,19.92,22.11,19.25z"/>
	<path class="st26" d="M34.79,21.09c-0.09,0.06-0.17,0.12-0.26,0.18c-0.74-0.09-1.49-0.18-2.24-0.28c1.17-2.25,2.29-2.73,4.47-2.02
		C36.13,19.65,35.46,20.37,34.79,21.09z"/>
	<path class="st28" d="M15.55,16.06c-0.07,0.03-0.17,0.03-0.22,0.09c-1.32,1.66-2.92,1.62-4.63,0.75c1.09-1.53,2.62-1.7,4.34-1.26
		C15.19,15.81,15.58,15.69,15.55,16.06z"/>
	<path class="st24" d="M49.87,22.95c-0.98,0.15-1.92,0.06-2.82-0.38c0.3-0.31,0.65-0.59,0.89-0.95c0.77-1.15,1.75-1.52,3.12-0.87
		C50.68,21.46,50.28,22.21,49.87,22.95z"/>
	<path class="st26" d="M53.78,21.36c-0.2,0.42-0.43,0.83-0.58,1.27c-0.22,0.63-0.6,0.97-1.29,0.85c-0.44-0.34-1.1,0.05-1.5-0.44
		c0.32-0.5,0.65-0.99,0.94-1.5c0.46-0.8,1.64-1.07,2.4-0.53C53.82,21.06,53.78,21.24,53.78,21.36z"/>
	<path class="st29" d="M42.69,22.02c-0.92,0.11-1.85,0.31-2.63-0.42c0.32-0.29,0.7-0.54,0.94-0.89c0.81-1.16,1.87-1.24,3.18-0.84
		C43.66,20.62,43.18,21.32,42.69,22.02z"/>
	<path class="st30" d="M29.38,20.43c1.44-0.63,1.98-2.68,4.23-1.88C32.25,19.43,31.78,21.63,29.38,20.43z"/>
	<path class="st31" d="M9.65,10.58c-0.37-0.54,0.22-0.62,0.44-0.72c2.37-1.1,4.76-2.16,7.14-3.24c0.2-0.09,0.37-0.12,0.53,0.07
		c-0.15,0.5-0.43,0.74-0.97,0.52c-0.39,0.41-0.97,0.42-1.43,0.67c-0.29,0.87-1.26,0.71-1.8,1.21c0.22,0.07,0.47,0.08,0.6,0.32
		c-0.3,0.3-0.7,0.14-1.05,0.25C11.93,9.87,10.89,10.59,9.65,10.58z"/>
	<path class="st32" d="M14.16,9.4c-0.39-0.06-0.78-0.12-1.28-0.19c0.74-0.7,1.73-0.82,2.48-1.34c0.81,0,1.61,0,2.42,0
		C16.58,8.51,15.58,9.5,14.16,9.4z"/>
	<path class="st33" d="M16.79,7.2c0.39-0.04,0.68-0.29,0.97-0.52c0.73-0.22,1.35-0.77,2.17-0.72c0.5,0.11,1,0.23,1.6,0.36
		C20.02,7.29,18.52,7.86,16.79,7.2z"/>
	<path class="st34" d="M9.65,10.58c1.11-0.48,2.13-1.28,3.46-0.93c0.21,0.07,0.43,0.14,0.84,0.27c-1.15,0.42-1.95,1.22-3.1,1.09
		C10.51,10.7,9.94,11.04,9.65,10.58z"/>
	<path class="st35" d="M20.96,5.72c0.19-0.88,1.19-0.62,1.64-1.14c0.72,0.04,1.45,0.07,2.28,0.11C23.66,5.72,22.34,5.84,20.96,5.72z
		"/>
	<path class="st36" d="M8.64,12.47c-0.8-0.35-1.6,0.01-2.4,0.02c0.73-0.96,1.8-1.1,2.88-1.22c0.05,0.05,0.12,0.06,0.19,0.04
		c0.29,0.1,0.59,0.21,0.92,0.32C9.72,12,9.23,12.32,8.64,12.47z"/>
	<path class="st37" d="M11.92,15.22c-1.26,0.61-1.97,1.91-3.44,1.3c-0.24-0.1-0.67-0.08-0.66-0.36c0.01-0.27,0.14-0.63,0.47-0.79
		c0.64-0.31,1.24-0.73,2.02-0.47C10.75,15.05,11.21,15.09,11.92,15.22z"/>
	<path class="st38" d="M7.2,15.42c-0.51,0-1.02,0-1.83,0c0.79-0.61,1.35-0.97,2.07-1.04c0.29,0.09,0.59,0.18,1,0.31
		C7.97,14.97,7.59,15.19,7.2,15.42z"/>
	<path class="st39" d="M19.44,12.46c-0.39-0.43-1.38-0.32-1.34-0.99c0.04-0.59,0.92-0.62,1.42-0.89c2.42-1.29,4.85-2.54,7.3-3.78
		c0.63-0.32,1.1-1.07,1.97-0.81c6.25,0.41,12.51,0.77,18.75,1.25C52.61,7.64,57.66,8,62.73,8.19c1.26,0.05,1.4,0.32,0.9,1.44
		c-0.28,0.61-0.7,1.04-1.24,1.41c-3.02,2.04-6.33,3.57-9.46,5.41c-1.52,0.89-3.15,0.19-4.7,0.01c-8.08-0.97-16.09-2.37-24.18-3.29
		C22.51,12.98,20.98,12.7,19.44,12.46z"/>
	<path class="st13" d="M19.78,11.64c2.84-1.75,5.62-2.97,8.32-4.34c0.51-0.26,1.03-0.38,1.61-0.34c4.85,0.39,9.7,0.78,14.55,1.14
		c3.78,0.28,7.56,0.57,11.35,0.74c2.34,0.11,4.7,0.02,7.08,0.19c-0.36,0.75-0.93,1.08-1.49,1.41c-2.94,1.76-5.92,3.48-8.84,5.28
		c-1.16,0.71-2.29,0.18-3.37,0.03c-7.26-1.01-14.51-2.14-21.76-3.2C24.83,12.2,22.43,11.96,19.78,11.64z"/>
</g>
</svg>
