<?xml version="1.0" encoding="utf-8"?>
<!-- Generator: Adobe Illustrator 23.0.2, SVG Export Plug-In . SVG Version: 6.00 Build 0)  -->
<svg version="1.1" id="Camada_1" xmlns="http://www.w3.org/2000/svg" xmlns:xlink="http://www.w3.org/1999/xlink" x="0px" y="0px"
	 viewBox="0 0 64.56 40.08" style="enable-background:new 0 0 64.56 40.08;" xml:space="preserve">
<style type="text/css">
	.st0{fill:#882582;}
	.st1{fill:#442668;}
	.st2{fill:#CA67C4;}
	.st3{fill:#402164;}
	.st4{fill:#F9F7FA;}
	.st5{fill:#7E35BD;}
	.st6{fill:#3E2062;}
	.st7{fill:#F2E9F7;}
	.st8{fill:#6742AE;}
	.st9{fill:#7A44BB;}
	.st10{fill:#6D44B6;}
	.st11{fill:#7141AD;}
	.st12{fill:#8457E6;}
	.st13{fill:#7E3ECD;}
	.st14{fill:#7F3ECE;}
	.st15{fill:#CA68C5;}
	.st16{fill:#412467;}
	.st17{fill:#CB5FFB;}
	.st18{fill:#412365;}
	.st19{fill:#F5EBF8;}
	.st20{fill:#C55DFA;}
	.st21{fill:#C55AFB;}
	.st22{fill:#FBF7FB;}
	.st23{fill:#C75EFB;}
	.st24{fill:#F8F0F8;}
	.st25{fill:#C965C8;}
	.st26{fill:#EED4F8;}
	.st27{fill:#ECDAEC;}
	.st28{fill:#DDDFE1;}
	.st29{fill:#CD69C7;}
	.st30{fill:#ECD5EC;}
	.st31{fill:#8854E0;}
	.st32{fill:#8556E4;}
	.st33{fill:#EAC9E8;}
	.st34{fill:#542976;}
	.st35{fill:#BA5F22;}
	.st36{fill:#692FB0;}
	.st37{fill:#6B37B9;}
	.st38{fill:#FDFCFD;}
	.st39{fill:#F9F8FA;}
	.st40{fill:#CB65FA;}
	.st41{fill:#803ECF;}
	.st42{fill:#F0EBF8;}
	.st43{fill:#F2DBF1;}
	.st44{fill:#F1D7EF;}
	.st45{fill:#BB6227;}
	.st46{fill:#FAF8FA;}
	.st47{fill:#E1B067;}
	.st48{fill:#B95DA2;}
	.st49{fill:#BA5F23;}
	.st50{fill:#BC662B;}
	.st51{fill:#442667;}
	.st52{fill:#AEF65C;}
	.st53{fill:#BB5F21;}
	.st54{fill:#BB6021;}
	.st55{fill:#3C965B;}
	.st56{fill:#B56345;}
	.st57{fill:#3F935F;}
	.st58{fill:#3F985C;}
	.st59{fill:#3F955F;}
	.st60{fill:#F4F0FC;}
	.st61{fill:#EEE9FB;}
	.st62{fill:#80347F;}
	.st63{fill:#EEE8FB;}
	.st64{fill:#F3DDF1;}
	.st65{fill:#F9F0F8;}
	.st66{fill:#F2DBF0;}
	.st67{fill:#F5E5F4;}
	.st68{fill:#F2DCF0;}
	.st69{fill:#E1BDF4;}
	.st70{fill:#E5B564;}
	.st71{fill:#E2B163;}
	.st72{fill:#E3B365;}
	.st73{fill:#E3B368;}
	.st74{fill:#FBF8F5;}
	.st75{fill:#E7B968;}
	.st76{fill:#F9F2E9;}
	.st77{fill:#683551;}
	.st78{fill:#B755F0;}
	.st79{fill:#A64DE4;}
	.st80{fill:#AD53EA;}
	.st81{fill:#E4B464;}
	.st82{fill:#E0AD65;}
	.st83{fill:#E3B468;}
	.st84{fill:#E2B165;}
	.st85{fill:#FDFBF9;}
	.st86{fill:#6A35B5;}
	.st87{fill:#E2AF60;}
	.st88{fill:#E5B565;}
	.st89{fill:#F8F1EB;}
	.st90{fill:#E3B264;}
	.st91{fill:#8559E5;}
	.st92{fill:#E4B465;}
	.st93{fill:#E2B061;}
	.st94{fill:#DFAC63;}
	.st95{fill:#F5E8DC;}
	.st96{fill:#BADD63;}
	.st97{fill:#BAF561;}
	.st98{fill:#ADF35E;}
</style>
<g>
	<path d="M1.54,18.88c0.61-3.66,1.59-6.89,5.55-8.6c3.67-1.59,7.06-3.81,10.88-5.13c2.74-0.95,5.55-1.65,8.39-2.25
		c1.08-0.23,2.1-0.66,3.14-1.03c1.57-0.57,3.33-0.25,4.73,0.54c3.6,2.03,7.31,3.84,10.8,6.07c4.24,2.7,8.87,3.98,13.92,4.01
		c2.73,0.02,4.57,2.36,4.38,5.08c-0.12,1.69-1.41,2.44-2.93,1.7c-0.28-0.14-0.58-0.27-0.88-0.33c-0.25-0.05-0.65-0.43-0.76,0.13
		c-0.08,0.42-0.49,1,0.19,1.25c1.52,0.56,1.54,2.11,2.2,3.23c0.26,0.44,0.04,0.94-0.26,1.33c-0.78,1-1.59,1.98-2.36,2.99
		c-0.41,0.55-1.12,0.52-1.62,0.96c-1.63,1.41-3.34,2.74-5.05,4.05c-2.5,1.91-4.48,2.22-7.04,0.36c-0.49-0.36-0.9-0.33-1.39-0.03
		c-2.34,1.45-4.75,2.8-6.53,4.99c-0.64,0.78-2.97,0.96-4.06,0.54c-6.29-2.41-11.27-6.5-15.25-11.88c-0.33-0.44-0.58-0.41-0.97-0.2
		c-1.02,0.53-2.09,0.95-3.1,1.52c-1.83,1.03-3.79,0.81-5.68,0.12C4.33,27,1.43,22.63,1.54,18.88z"/>
	<path class="st0" d="M60.39,13.99c1.29,0.79,1.67,2.07,1.67,3.46c0,0.75-0.37,1.26-1.23,0.68c-0.03-0.02-0.07-0.04-0.1-0.06
		c-0.9-0.44-2.14-0.95-2.79-0.49c-0.83,0.58-0.41,2-0.64,3.03c-0.09,0.43,0.33,0.49,0.63,0.56c0.99,0.23,1.44,0.9,1.54,1.86
		c-0.27,0.26-0.56,0.14-0.85,0.04c-0.76-0.34-1.48-0.78-2.28-1.02c-0.52-0.16-1.02-0.11-1.51,0.1c-0.74,0.38-1.23,1.01-1.71,1.64
		c-0.8,1.05-1.75,1.97-2.57,3c-0.84,1.06-1.87,1.83-3.2,2.59c0.92,0.28,1.4,0.72,1.19,1.67c-0.19,0.87,0.36,0.84,0.92,0.52
		c1.01-0.57,1.85-1.38,2.77-2.08c1.81-1.37,3.43-2.98,5.28-4.3c0.42-0.15,0.64-0.51,0.92-0.81c0.46-0.25,0.83-0.62,1.28-0.88
		c0.4,0.34,0.11,0.59-0.07,0.91c-0.78,1.35-1.95,2.3-3.14,3.24c-1.75,1.39-3.54,2.73-5.24,4.18c-1.77,1.52-4.08,1.89-6.07,0.22
		c-0.65-0.55-1.2-0.54-1.91-0.12c-2.51,1.48-5.02,2.93-7.01,5.14c-0.9,1.01-2.16,0.52-3.26,0.32c-0.66-0.12-1.28-0.45-1.91-0.68
		c-0.42-0.21-0.29-0.61-0.32-0.96c0.08-0.31,0.25-0.58,0.43-0.84c0.34-0.48,0.63-1,1-1.46c1.27-1.26,2.47-2.59,3.83-3.76
		c1.12-0.96,2.41-1.68,3.75-2.29c0.15-0.08,0.3-0.15,0.46-0.21c0.42-0.13,0.82-0.33,1.24-0.48c0.71-0.14,1.2,0.27,1.7,0.66
		c0.53,0.36,1.06,0.74,1.69,0.92c1.14,0.6,2.05,0.12,2.91-0.62c0.33-0.28,0.62-0.61,0.93-0.92c1.47-1.24,2.48-2.9,3.8-4.27
		c0.26-0.29,0.55-0.56,0.76-0.9c0-0.3-0.55-0.39-0.3-0.78c0.32-0.24,0.66-0.42,1.05-0.51c0.08-0.01,0.16-0.01,0.24,0
		c1.64,0.23,1.68,0.23,1.73-1.44c0.05-1.56,0.67-2.76,1.98-3.6c-0.39-0.4-0.61-0.41-1.71-0.05c-1.45,1.39-2.58,2.98-3.02,4.98
		c-0.45,0.13-0.64-0.21-0.88-0.47c-0.28-0.84,0.21-1.49,0.52-2.19c0.2-0.34,0.44-0.65,0.64-0.99c0.36-0.54,0.74-1.07,1.16-1.56
		c0.18-0.21,0.41-0.36,0.66-0.49c0.57-0.11,0.82-0.75,1.39-0.86C57.97,13.7,59.19,13.79,60.39,13.99z"/>
	<path class="st1" d="M30.89,35.81c0.07,0.29,0.15,0.58,0.22,0.88c-2.19-0.75-3.94-2.24-5.77-3.56c-2.73-1.97-5-4.45-6.94-7.21
		c-0.53-0.74-0.94-1.11-1.9-0.56c-1.17,0.67-2.45,1.13-3.65,1.75c-2.3,1.19-5.58,0.16-7.67-2.07c-1.56-1.67-2.05-3.77-2.47-5.84
		c-0.18-0.88,0.5-1.93,0.8-2.9c0.61,0.77,0.35,1.68,0.32,2.51c-0.06,2.07,0.58,3.8,2.16,5.15c1.19,1.33,2.5,2.43,4.44,2.37
		c1.94-0.16,3.56-1.52,4.04-3.41c-0.02-1.78-0.54-3.39-1.66-4.79c-1.14-1.81-2.59-3.23-4.68-3.9c-0.39-0.07-0.76-0.22-1.14-0.32
		c-1.22-0.33-1.92-0.07-2.64,0.98c-0.15,0.22-0.24,0.51-0.58,0.52c-0.24-1.37,0.76-2.19,1.63-2.7c4.72-2.79,9.54-5.42,14.8-7.11
		c0.33-0.11,0.71-0.07,1.06-0.1c0.36-0.08,0.33,0.2,0.16,0.27C21.17,5.9,21.3,6,21.34,6.14c-0.42,0.69-1.42,0.44-1.82,1.15
		c-0.2,0.36-0.58,0.39-0.92,0.52c-0.09,0.04-0.19,0.08-0.29,0.12c-0.3,0.12-0.6,0.21-0.93,0.12c-0.38-0.09-0.7,0.11-1.02,0.24
		c-2.57,1.07-5.04,2.35-7.48,3.69c-0.21,0.12-1.1,0.11-0.45,0.81c1.19,0.2,1.99,1.04,2.9,1.7c3.41,2.03,4.93,5.5,6.67,8.8
		c0.37,0.71,0.76,1.4,1.28,2.01c2.8,3.53,5.82,6.82,9.72,9.2C29.65,34.88,30.54,34.98,30.89,35.81z"/>
	<path class="st2" d="M59.72,23.49c-0.12,0.69-0.64,0.9-1.23,1.01c-0.3,0.25-1.12,0.08-0.72,0.89c-1.52,0.88-2.63,2.26-4.05,3.27
		c-1.36,0.97-2.53,2.19-3.95,3.08c-0.41,0.26-0.84,0.61-1.31,0.34c-0.52-0.29-0.33-0.86-0.19-1.29c0.41-1.33-1.05-0.76-1.37-1.48
		c2.8-1.31,4.43-3.89,6.37-6.17c0.41-0.48,0.81-0.99,1.42-1.25c0.95,0.24,1.88,0.57,2.81,0.86c0.4,0.12,0.82,0.33,1.25,0.05
		c0.24,0.07,0.49,0.15,0.73,0.22C59.55,23.18,59.64,23.33,59.72,23.49z"/>
	<path class="st3" d="M56.54,13.75c-0.1,0.68-0.53,0.93-1.17,0.9c-1.03,0.16-2.04-0.01-3.05-0.17c-1.44-0.33-2.84-0.77-4.11-1.56
		c0.1-0.8-0.65-0.7-1.04-0.99c-0.29-0.15-0.58-0.29-0.89-0.39c-1.19-0.5-2.35-1.08-3.47-1.72c-0.34-0.21-0.72-0.32-1.08-0.49
		c-0.85-0.37-1.6-0.89-2.36-1.4c-1.95-1.3-3.88-2.62-6.1-3.47c-0.66-0.25-1.43-0.53-1.72-1.34c1.47-0.32,2.59,0.51,3.76,1.17
		c2.12,1.2,4.25,2.4,6.37,3.6c1.69,1.01,3.23,2.28,5.15,2.88c0.26-0.04,0.47,0,0.61,0.25c0.89,0.85,2.05,1.15,3.15,1.59
		c0.82,0.29,1.64,0.58,2.53,0.53c0.62,0.48,1.34,0.18,2.02,0.28C55.55,13.78,56.15,13.3,56.54,13.75z"/>
	<path class="st4" d="M31.55,3.14c1.28,0.7,2.44,1.57,3.91,1.95c0.81,0.21,1.49,0.9,2.22,1.4c1.42,0.96,2.85,1.92,4.37,2.71
		c0.12,0.37,0.21,0.75-0.04,1.11c-0.2,0.18-0.45,0.21-0.66,0.11c-1.25-0.58-2.58-1.01-3.62-1.97c-0.25-0.68-0.67-1.16-1.46-1.2
		c-0.24-0.01-0.57-0.08-0.62-0.29c-0.31-1.13-1.18-0.82-1.94-0.8c-1.32-0.98-2.77-1.15-4.34-0.76c-0.3,0.07-0.62,0.11-0.92-0.06
		c-0.31-0.37-0.46-0.78-0.29-1.27c1.03-0.47,2.03-1.03,3.22-0.95C31.43,3.16,31.49,3.16,31.55,3.14z"/>
	<path class="st5" d="M5.91,24.29c-1.7-1.34-2.52-3.08-2.39-5.26c0.05-0.9-0.01-1.82-0.02-2.72c0.05-0.26,0.04-0.55,0.28-0.75
		c0.23,0.21,0.23,0.49,0.2,0.83c0.24-0.88,0.39-1.73,1.37-2.02c1.09,0.03,2.24-0.41,3.2,0.46c-0.34,0.94-0.93,1.6-1.99,1.71
		c-0.35-0.27-0.62-0.23-0.81,0.2c-0.18,0.39-0.28,0.8-0.39,1.21c-0.71,1.94-0.76,3.82,0.55,5.57C6.08,23.75,6.14,24.03,5.91,24.29z"
		/>
	<path class="st6" d="M31.38,3.13c-1.04,0.34-2.08,0.67-3.11,1.01c-0.19,0.21-0.39,0.42-0.7,0.48c-0.86,0.23-1.75,0.38-2.53,0.83
		c-0.31,0.19-0.64,0.21-0.99,0.21c-0.89,0.11-1.7,0.76-2.67,0.41c-0.89-0.01,0.27-0.43-0.11-0.54c2.27-1.01,4.75-1.23,7.11-1.87
		c0.63-0.17,1.16-0.51,1.76-0.71C30.54,2.79,31.01,2.8,31.38,3.13z"/>
	<path class="st7" d="M5.21,14.59c-0.74,0.55-0.73,1.53-1.32,2.46c-0.05-0.64-0.08-1.07-0.11-1.49c0.01-0.05,0.01-0.09-0.01-0.13
		c0.93-2.04,1.78-2.38,3.88-1.57c0.21,0.08,0.45,0.08,0.68,0.12c-0.26,0.69-0.9,0.31-1.35,0.46C6.41,14.63,5.79,14.4,5.21,14.59z"/>
	<path class="st8" d="M46.82,10.8c-1.2,0.04-2.03-0.78-2.97-1.32c-0.77-0.44-1.61-0.82-2.18-1.56C43.51,8.67,45.05,9.94,46.82,10.8z
		"/>
	<path class="st9" d="M56.54,13.75c-0.46-0.16-1.03,0.21-1.41-0.3c1.77-0.01,3.56-0.11,5.26,0.54
		C59.11,13.97,57.82,13.99,56.54,13.75z"/>
	<path class="st10" d="M50.54,12.73c-1.02-0.21-1.91-0.73-2.83-1.18c-0.19-0.09-0.48-0.18-0.28-0.51c1.12,0.5,2.24,0.99,3.35,1.49
		C50.81,12.73,50.79,12.87,50.54,12.73z"/>
	<path class="st11" d="M50.54,12.73c0.08-0.07,0.16-0.13,0.25-0.2c0.78,0.21,1.55,0.43,2.33,0.64
		C52.16,13.62,51.36,13.08,50.54,12.73z"/>
	<path class="st12" d="M37.92,8.35c1.19,0.87,2.6,1.3,3.88,1.98c1.09,1.36,2.48,2.11,4.24,2.11c1.65,0.74,3.24,1.67,5.11,1.8
		c0.2,0.12,0.21,0.29,0.16,0.5c-0.37,1.44-0.29,1.54,1.29,1.75c0.32,0.01,0.64-0.14,0.97-0.03c0.04,0.04,0.08,0.07,0.12,0.11
		c0.01,0.41-0.33,0.64-0.49,0.95c-0.71,0.38-1.32-0.07-1.92-0.3c-1.87-0.7-3.68-1.52-5.62-2.02c-0.46-0.12-0.92-0.25-1.4-0.29
		c-1.2-0.32-1.97-1.26-2.88-2.02c-0.32-0.27-0.64-0.54-0.79-0.66c0.86,0.97,2.29,1.67,3.09,3.03c-0.14,0.39-0.52,0.6-0.71,0.95
		c-0.41,0.74-0.96,0.89-1.69,0.49c-0.58-0.32-1.22-0.34-1.86-0.28c-0.2,0.02-0.41,0.06-0.45,0.3c-0.03,0.17,0.12,0.28,0.24,0.38
		c0.18,0.15,0.4,0.27,0.56,0.45c0.39,0.43,0.4,0.77-0.23,0.96c-0.31,0.09-0.63,0.14-0.88,0.35c-0.29,0.24-0.23,0.59-0.17,0.89
		c0.07,0.36,0.34,0.5,0.7,0.54c0.64,0.06,1.28,0.03,1.91,0.05c0.72,0.03,1.15,0.3,1,1.11c-0.04,0.2-0.05,0.4-0.05,0.6
		c0,0.33,0.03,0.67,0.42,0.77c0.34,0.08,0.48-0.21,0.63-0.44c0.17-0.27,0.33-0.55,0.41-0.86c0.24-0.93,0.77-0.88,1.42-0.44
		c0.2,0.13,0.39,0.27,0.6,0.39c0.47,0.27,0.99,0.45,1.48,0.19c0.53-0.28,0.33-0.83,0.26-1.3c-0.04-0.24-0.03-0.48,0.11-0.69
		c0.76-0.38,1.25,0.21,1.82,0.52c0.97,1.09,2.3,1.65,3.51,2.39c-1.22,1.48-2.28,3.1-3.78,4.33c-0.54,0.17-1.02-0.08-1.5-0.25
		c-3.22-1.07-6.25-2.57-9.28-4.06c-1.24-0.69-2.23-1.72-3.42-2.48c-0.14-0.09,0.04-0.07-0.09-0.05c-0.2,0.03,0.05,0.15,0.02,0.24
		c1.21,2.19,2.75,4.12,4.49,5.89c0.38,0.38,0.94,0.67,0.89,1.34c-3.12,1.31-5.34,3.76-7.66,6.08c-0.55,0.16-0.91-0.21-1.3-0.47
		c-2.54-1.65-4.66-3.79-6.48-6.18c-3.51-4.63-7.72-8.5-12.47-11.8c-0.3-0.21-0.63-0.35-0.94-0.53c-0.91-0.59-1.68-1.39-2.79-1.63
		c0.29-0.52,0.8-0.8,1.29-1.04c1.97-0.95,3.98-1.8,6.16-2.16c0.31,0.67,0.51,1.41,1.28,1.79c0.39,0.19,0.39,0.67,0.41,1.07
		c0.03,0.82,0.07,1.7,1.04,1.94c0.97,0.25,1.9-0.13,2.41-0.95c0.5-0.8,1.09-1.05,1.96-1.05c0.73,0,1.5-0.17,1.8-0.94
		c0.29-0.77,0-1.48-0.59-2.06c-0.59-0.59-0.95-1.28-0.78-2.15c0.7-0.71,1.66-0.98,2.52-1.42c0.88-0.19,1.88,0.01,2.59-0.77
		c1.9-0.46,3.81-0.94,5.4,0.77c0.35,0.34,0.54,0.77,0.14,1.13c-0.38,0.34-0.75-0.01-1.03-0.27c-0.54-0.48-1.16-0.66-1.86-0.6
		c-0.41,0.03-0.95-0.14-1.11,0.43c-0.14,0.49,0.35,0.64,0.65,0.88c0.39,0.32,0.92,0.5,1.05,1.07c-0.23,0.58-0.77,0.45-1.21,0.5
		c-0.47,0.05-0.89,0.16-0.89,0.72c0,0.63,0.5,0.69,0.98,0.8c0.54,0.12,1.18-0.39,1.65,0.23c0.11,0.47-0.11,0.94,0.01,1.41
		c0.1,0.38,0.33,0.64,0.72,0.69c0.41,0.06,0.54-0.27,0.68-0.55c0.09-0.18,0.12-0.38,0.18-0.56c0.24-0.66,0.62-0.93,1.23-0.41
		c0.4,0.33,0.86,0.52,1.31,0.28c0.52-0.28,0.55-0.87,0.43-1.38C36.5,9.35,37.16,8.83,37.92,8.35z"/>
	<path class="st13" d="M11.17,14.66c0.26,0.08,0.56,0.11,0.78,0.25c2.82,1.92,5.69,3.81,8.05,6.3c2.1,2.21,4.03,4.59,5.97,6.95
		c1.82,2.2,3.92,4.05,6.38,5.48c-0.34,0.47-0.68,0.95-1.03,1.42c-0.69,0.17-1.24-0.2-1.78-0.52c-3.86-2.24-7.11-5.18-9.89-8.65
		c-0.15-0.19-0.3-0.37-0.55-0.43c-1.01-1-1.59-2.29-2.15-3.54C15.63,18.98,13.82,16.5,11.17,14.66z"/>
	<path class="st2" d="M44.58,30.54c-1.6,0.85-3.21,1.7-4.81,2.55c-0.55,0.43-1.17,0.77-1.69,1.24l0,0c-0.73,0.53-1.38,1.15-1.89,1.9
		c-0.76,1.25-1.4,1.35-3.41,0.5c0.36-0.39,0.85-0.3,1.3-0.32c0.51-0.02,1.01-0.03,1.32-0.53c-0.05-0.12,0.48-0.32-0.05-0.35
		c-0.11-0.01-0.25,0.15-0.4,0.19c-0.87-0.05-1.77-0.03-2.45-0.72c2.16-2.69,4.53-5.16,7.78-6.56c0.46-0.2,0.94-0.38,1.4-0.57
		c0.47,0.8,1.26,1.26,1.96,1.82C43.97,29.95,44.41,30.1,44.58,30.54z"/>
	<path class="st14" d="M38.03,22.35c0.19,0.04,0.41,0.04,0.57,0.13c3.31,1.76,6.78,3.17,10.3,4.44c-0.39,0.4-0.74,0.85-1.17,1.19
		c-0.87,0.68-1.81,1.17-2.91,0.44c-0.5-0.32-0.96-0.7-1.52-0.91c-1.6-1.28-3.17-2.6-4.55-4.12C38.44,23.17,37.99,22.91,38.03,22.35z
		"/>
	<path class="st14" d="M44.07,14.64c2.01,0.11,3.83,0.92,5.67,1.63c1.14,0.44,2.26,0.96,3.46,1.24c-0.29,0.7-0.74,1.36-0.67,2.18
		c-0.21,0.59-0.6,0.23-0.87,0.12c-2.63-1.15-5.02-2.69-7.26-4.47C44.18,15.17,43.97,14.98,44.07,14.64z"/>
	<path class="st15" d="M53.21,20.13c-0.2-1.73,0.98-2.85,1.84-4.1c0.29-0.42,0.68-0.76,1.02-1.14c0.71,0.22,1.53-0.07,2.17,0.48
		c-1.21,0.78-1.86,1.88-1.93,3.34c-0.11,2.35-0.12,2.35-2.44,1.75C53.53,20.59,53.31,20.49,53.21,20.13z"/>
	<path class="st16" d="M53.21,20.13c0.22,0.11,0.44,0.22,0.67,0.33c-0.17,0.43-0.56,0.42-0.92,0.47c-0.29,0.23-0.61,0.18-0.89,0.03
		c-1.44-0.72-2.97-1.26-4.24-2.28c-0.77-0.73-1.62-1.34-2.55-1.88c-0.71-0.41-1.31-0.98-1.74-1.7c-1.28-0.82-2.27-1.93-3.14-3.19
		c1.22,0.91,2.45,1.82,3.67,2.73c2.42,2.1,5.13,3.75,8.03,5.09c0.16,0.07,0.3,0.09,0.43-0.05C52.87,19.66,52.95,20.04,53.21,20.13z"
		/>
	<path class="st17" d="M19.09,25.45c0.38-0.31,0.47,0.12,0.61,0.28c2.82,3.33,6.03,6.21,9.79,8.45c0.58,0.34,1.22,0.58,1.83,0.87
		c-0.11,0.28-0.16,0.58-0.43,0.76C26.01,33.44,22.29,29.74,19.09,25.45z"/>
	<path class="st18" d="M38.03,22.35c1.65,1.9,3.62,3.46,5.39,5.24c-0.09,0.12-0.19,0.13-0.29,0.02c-0.53-0.31-0.98-0.79-1.67-0.72
		c-0.94,0.05-1.2-0.87-1.82-1.28c-0.95-0.98-1.91-1.94-2.89-2.88c-0.86-0.67-1.71-1.35-2.24-2.34c-0.21-0.26-0.42-0.52-0.78-0.97
		C35.56,20.08,36.7,21.35,38.03,22.35z"/>
	<path class="st19" d="M47.8,18.38c1.59,1.1,3.31,1.95,5.15,2.55c0.85,0.38,0.85,0.38,0.68,0.73c-1.71,0.26-3.1-0.6-4.54-1.28
		c-0.63-0.29-1.26-0.59-1.88-0.88C46.66,18.91,46.81,18.63,47.8,18.38z"/>
	<path class="st20" d="M35.66,35.77c0.07,0.64-0.21,0.96-0.87,0.95c-0.67-0.01-1.34,0-2.01,0c-1.37-0.5-1.38-0.56-0.28-1.73
		c0.9,0.17,1.8,0.35,2.7,0.52C35.47,35.39,35.58,35.55,35.66,35.77z"/>
	<path class="st21" d="M34.5,20.37c0.77,0.72,1.55,1.44,2.32,2.16c0.66,1.12,1.45,2.14,2.4,3.04c0.39,0.58,1.3,0.84,1.07,1.79
		c-0.09,0.07-0.19,0.13-0.28,0.2c-1.97-2-3.86-4.06-5.3-6.49C34.59,20.87,34.19,20.71,34.5,20.37z"/>
	<path class="st22" d="M44.58,30.54c-1.17-0.46-2.04-1.35-2.96-2.16c-0.22-0.19-0.03-0.35,0.07-0.51c0.34-0.06,0.66-0.21,1,0.08
		c0.96,0.81,2.05,1.43,3.3,2.1C45.42,30.25,45,30.39,44.58,30.54z"/>
	<path class="st23" d="M49.09,20.39c1.58,0.18,2.96,1.09,4.54,1.28c-0.31,0.3-0.63,0.61-0.94,0.91
		C51.18,22.36,50.06,21.5,49.09,20.39z"/>
	<path class="st24" d="M58.73,22.8c0,0.22-0.07,0.45-0.3,0.41c-1.32-0.23-2.64-0.5-3.76-1.32c1.05-0.66,1.96-0.11,2.89,0.34
		C57.95,22.43,58.34,22.61,58.73,22.8z"/>
	<path class="st25" d="M58.63,16.52c0.38-0.2,0.77-0.37,1.13-0.59c0.82-0.52,1.14-0.01,1.33,0.67c0.1,0.37,0.08,0.77-0.51,0.53
		C59.96,16.89,59.31,16.81,58.63,16.52z"/>
	<path class="st26" d="M40.29,27.35c-0.23-0.71-0.96-1.04-1.29-1.67c0.19-0.28,0.45-0.37,0.78-0.26c0.56,0.48,1.12,0.97,1.68,1.45
		C41.14,27.22,40.75,27.38,40.29,27.35z"/>
	<path class="st27" d="M58.24,15.37c-0.75-0.05-1.56,0.19-2.17-0.48c0.93-0.54,1.87-0.11,2.83-0.13
		C58.86,15.26,58.43,15.17,58.24,15.37z"/>
	<path class="st28" d="M52.24,14.16c1.04,0.16,2.09,0.33,3.13,0.49c-0.18,0.13-0.36,0.27-0.54,0.4c-0.45,0.25-0.92,0.11-1.38,0.07
		c-0.46-0.13-0.94-0.21-1.25-0.63C52.14,14.37,52.15,14.26,52.24,14.16z"/>
	<path class="st29" d="M46.48,30.73c1.43,0.02,0.36,1.24,0.76,1.8c-0.49-0.37-0.99-0.73-1.48-1.1
		C45.95,31.15,46.26,30.99,46.48,30.73z"/>
	<path class="st12" d="M53.44,14.93c0.47-0.04,0.94-0.02,1.39,0.12c-0.28,0.59-0.64,1.1-1.15,1.52c0,0-0.01-0.01-0.01-0.01
		c-0.28-0.3-0.09-0.7-0.21-1.03C53.41,15.33,53.34,15.13,53.44,14.93z"/>
	<path class="st30" d="M57.77,25.39c-0.11-0.29-0.87,0-0.58-0.61c0.29-0.62,0.81-0.45,1.3-0.28C58.41,24.92,58.29,25.32,57.77,25.39
		z"/>
	<path class="st31" d="M36.2,36.22c0.33-0.94,0.97-1.55,1.89-1.9C37.57,35.07,36.87,35.63,36.2,36.22z"/>
	<path class="st32" d="M38.08,34.33c0.37-0.68,0.96-1.05,1.69-1.24C39.39,33.74,38.77,34.08,38.08,34.33z"/>
	<path class="st33" d="M46.48,30.73c0.04,0.52-0.29,0.66-0.72,0.7c-0.12-0.09-0.35-0.23-0.33-0.26
		C45.64,30.72,46.1,30.83,46.48,30.73z"/>
	<path class="st34" d="M43.12,27.6c0.1-0.01,0.2-0.01,0.29-0.02c0.58,0.16,1.09,0.42,1.41,0.95C44.16,28.41,43.64,28,43.12,27.6z"/>
	<path class="st35" d="M23.43,7.47c0.23,0.88,0.53,1.68,1.25,2.33c0.58,0.53,0.73,1.38,0.37,2.11c-0.39,0.79-1.22,1.01-2.03,1.03
		c-0.77,0.02-1.35,0.04-1.76,0.93c-0.41,0.91-2.07,1.4-2.96,1.07c-1.07-0.39-1.12-1.35-1.11-2.28c0.01-0.46,0.04-0.8-0.53-1.01
		c-0.76-0.28-1.03-0.94-0.93-1.75c0.03-0.41,0.32-0.7,0.64-0.75c0.75-0.11,1.08-0.54,1.2-1.22c0.26-0.1,0.52-0.2,0.79-0.29
		c0.44,0.31,0.31,0.98,0.93,1.37c-0.1-0.71-0.65-0.96-0.91-1.38c0.32-0.13,0.64-0.26,0.97-0.4c0.72,0.28,1.37-0.19,2.06-0.2
		c0.58,0.15,1.19,0.01,1.76,0.19C23.27,7.29,23.36,7.37,23.43,7.47z"/>
	<path class="st36" d="M5.91,24.29c-0.25-1.06-1.17-1.75-1.3-2.99c-0.14-1.32,0.17-2.4,0.56-3.55c0.47,0.45,0.36,1.04,0.33,1.57
		c-0.09,1.37,0.35,2.48,1.37,3.39c0.35,0.31,0.72,0.63,0.79,1.15c-0.72,0.66-0.95-0.29-1.32-0.38c0.88,1.06,2.21,1.4,3.58,1.6
		c0.01,0.01-0.36-0.46-0.36-0.47c0.03-0.02,0.07-0.06,0.1-0.06c1.78,0.06,2.73-0.95,3.24-2.51c0.79,0.09,1.09,0.78,1.54,1.29
		c-0.55,1.64-1.99,2.3-3.37,3.01c-0.21,0.11-0.46,0.11-0.63,0.3C8.51,26.68,7.07,25.75,5.91,24.29z"/>
	<path class="st37" d="M14.33,23.3c-0.81-0.01-0.82-0.81-1.21-1.23c-0.46-1.35-0.92-2.7-1.87-3.81c-0.23-0.27-0.44-0.56-0.73-0.78
		c-1.38-1.05-2.54-0.68-3.14,0.94c-0.28,0.76,0.02,1.61-0.46,2.31c-0.23,0.17-0.47,0.3-0.76,0.14c-0.64-1.32-0.36-2.69-0.2-4.05
		c0.04-0.32,0.29-0.56,0.68-0.51c0.91,0.02,1.06-1.19,1.95-1.2c0.27-0.22,0.53-0.09,0.75,0.07c1.43,1.04,2.97,1.96,3.68,3.71
		c0.32,0.58,0.52,1.19,0.73,1.82c-0.21-0.68-0.41-1.35-0.79-1.96c-0.12-0.25-0.34-0.5-0.02-0.77c1.48,1.39,1.83,3.18,1.84,5.09
		C14.65,23.23,14.57,23.42,14.33,23.3z"/>
	<path class="st38" d="M17.57,7.94c0.34,0.8,0.7,1.57-0.81,1.29c-0.35-0.07-0.75,0.35-1.04,0.68c-1.44,0.53-2.87,1.11-4.33,1.58
		c-1.1,0.35-1.98,1.1-3.02,1.53c-0.29-0.11-0.63-0.14-0.88-0.44c1.1-0.95,2.42-1.52,3.68-2.18c1.8-0.95,3.63-1.83,5.53-2.57
		C17.01,7.71,17.35,7.39,17.57,7.94z"/>
	<path class="st39" d="M23.43,7.47c-0.06-0.03-0.12-0.05-0.19-0.05c-0.64-0.37-1.32-0.02-1.97-0.12c-0.15,0.01-0.37-0.05-0.43,0.03
		c-0.56,0.72-1.03,0.39-1.5-0.09c-0.2-0.25-0.16-0.4,0.16-0.5c0.63-0.21,1.26-0.46,1.88-0.69c0.93-0.26,1.85-0.52,2.78-0.77
		c0.32,0.73,1.38,0.33,1.67,1.09C25.03,6.73,24.23,7.1,23.43,7.47z"/>
	<path class="st40" d="M12.92,17.98c-0.12,0.3,0.1,0.49,0.23,0.72c0.06,0.26-0.05,0.33-0.29,0.28c-1.02-1.74-2.57-2.89-4.28-3.87
		c-1.02-0.86-2.25-0.34-3.37-0.52c1.04-0.21,2.08-0.41,3.13-0.62C10.31,14.8,12.01,15.94,12.92,17.98z"/>
	<path class="st41" d="M15.23,24.87c0.47-1.53,0.43-2.89,0.1-4.33c0.52,1.06,1.24,2.07,1.5,3.18
		C16.98,24.38,15.97,24.53,15.23,24.87z"/>
	<path class="st42" d="M14.33,23.3c0.14-0.07,0.29-0.15,0.43-0.22c-0.57,2-2.27,3.41-4.31,3.58c0.03-0.53,0.53-0.51,0.85-0.69
		C12.49,25.28,13.65,24.57,14.33,23.3z"/>
	<path class="st43" d="M53.69,27.85c-0.06,0.28-0.26,0.46-0.58,0.39c-0.17-0.04-0.46-0.22-0.45-0.3c0.05-0.35,0.33-0.53,0.68-0.53
		C53.56,27.42,53.7,27.57,53.69,27.85z"/>
	<path class="st44" d="M54.46,23.13c0.19,0.08,0.35,0.19,0.34,0.42c-0.01,0.28-0.19,0.42-0.46,0.4c-0.2-0.02-0.36-0.17-0.34-0.39
		C54.02,23.28,54.2,23.14,54.46,23.13z"/>
	<path class="st45" d="M46.01,12.74c-1.82-0.07-3.48-0.43-4.21-2.4c0.08-0.38,0.16-0.75,0.24-1.13c0.27,0.14,0.62,0.09,0.82,0.38
		c0.31,1.32,1,1.89,2.3,1.86c0.43-0.01,0.87,0,1.29-0.1c0.27,0.12,0.54,0.25,0.81,0.37c0.08,0.35-0.2,0.47-0.41,0.63
		C46.61,12.54,46.23,12.47,46.01,12.74z"/>
	<path class="st46" d="M46.01,12.74c0.1-0.42,0.5-0.45,0.79-0.64c0.54,0,1.08,0,1.36,0.59c1.33,0.57,2.63,1.2,4.07,1.47
		c0,0.07,0,0.14,0,0.21c-0.31,0.33-0.66,0.35-1.04,0.12C49.26,14.52,47.68,13.52,46.01,12.74z"/>
	<path class="st47" d="M46.47,11.35c-1.35,0.73-2.75,0.5-3.65-0.6c-0.32-0.39-0.32-0.79,0.05-1.16
		C44.07,10.17,45.27,10.76,46.47,11.35z"/>
	<path class="st48" d="M48.16,12.69c-0.45-0.2-0.91-0.39-1.36-0.59c0.16-0.13,0.31-0.25,0.47-0.38
		C47.53,12.08,48.62,11.68,48.16,12.69z"/>
	<path class="st49" d="M31.62,8.63c-0.56-0.38-1.13-0.74-1.68-1.13c-0.3-0.21-0.58-0.49-0.44-0.89c0.14-0.4,0.48-0.59,0.92-0.65
		c1.32-0.17,2.42,0.25,3.32,1.2c0.52-0.38-0.07-0.77,0.1-1.11c0.82-0.43,1.61-0.71,1.89,0.57c0.11,0.51,0.46,0.29,0.74,0.34
		c0.78,0.15,1.47,0.4,1.45,1.39c-0.05,0.15-0.05,0.37-0.16,0.44c-0.76,0.53-0.81,1.23-0.68,2.07c0.09,0.55-0.12,1.14-0.72,1.37
		c-0.57,0.22-1.08,0.01-1.5-0.45c-0.15-0.17-0.34-0.3-0.6-0.52c-0.12,0.47-0.21,0.85-0.32,1.22c-0.15,0.49-0.27,1.09-0.96,0.98
		c-0.63-0.1-1.08-0.48-1.12-1.19c-0.03-0.44-0.01-0.87,0.26-1.25c0.12-0.31-0.29-0.51-0.16-0.82c0.13-0.31,0.33-0.6,0.31-0.96
		c0.01-0.21,0.02-0.42,0.08-0.63C32.39,8.21,33.08,8,32.7,7.46c-0.26-0.36-0.96-0.58-1.71-0.5c0.05,0.78,1.18,0.7,1.19,1.5
		C32.05,8.73,31.88,8.82,31.62,8.63z"/>
	<path class="st50" d="M25.83,6.36c-0.7-0.15-1.48-0.16-1.67-1.09c0.22,0.01,0.44,0.3,0.67,0.02c0.43,0.02,0.85,0.12,1.27,0.17
		c0.84,0.09,1.34-0.23,1.42-1.1c0.25-0.08,0.49-0.16,0.74-0.24c0.06,0.39,0.12,0.77,0.18,1.15C28.03,6.75,26.76,6.15,25.83,6.36z"/>
	<path class="st51" d="M6.63,16.31c-0.4,0.22-0.51,0.58-0.48,1c0.09,1.2-0.27,2.42,0.22,3.59c0.36,0.2,0.57,0.55,0.81,0.85
		c0.58,0.79,1.32,1.38,2.26,1.7c1.19,0.4,2.15-0.17,2.37-1.41c0.21-1.21-1.16-3.62-2.32-4.06c-0.32-0.12-0.64-0.15-0.89,0.11
		c-0.48,0.51-0.52,1.15-0.39,1.8c0.06,0.33,0.24,0.61,0.58,0.7c0.34,0.09,0.48-0.2,0.67-0.4c0.58-0.61,0.83-0.17,0.98,0.35
		c0.27,0.95-0.28,1.6-1.5,1.8c-0.72-0.1-1.35-0.39-1.87-0.91c-0.22-0.22-0.47-0.45-0.2-0.8c0.05-0.83-0.09-1.66,0.25-2.48
		c0.74-1.76,2.21-2.22,3.62-0.87c1.33,1.27,2.44,2.76,2.35,4.78c-0.39,0.35-0.23,0.88-0.42,1.31c-0.66,1.49-1.93,1.39-3.19,1.38
		c-0.84,0.28-1.51,0.1-1.96-0.71c-0.02-0.07-0.02-0.18-0.07-0.22C5.4,22.3,4.9,20.17,5.18,17.75c0.05-0.51,0.15-1.01,0.43-1.43
		C5.9,15.89,6.28,15.61,6.63,16.31z"/>
	<path class="st52" d="M27.52,4.37c0.45,1.08,0.31,1.38-0.78,1.39c-0.66,0.01-1.43,0.31-1.92-0.46C25.58,4.57,26.6,4.61,27.52,4.37z
		"/>
	<path class="st53" d="M47.8,18.38c-0.28,0.33-1.04,0.41-0.59,1.12c0.37,0.8,0.87,1.77,0.06,2.41c-0.76,0.6-1.66,0.01-2.41-0.5
		c-0.26-0.18-0.52-0.36-0.84-0.58c-0.22,0.59-0.41,1.13-0.64,1.65c-0.2,0.46-0.53,0.85-1.1,0.69c-0.58-0.16-0.73-0.69-0.57-1.16
		c0.53-1.55-0.36-1.49-1.41-1.35c-0.35,0.05-0.72,0.04-1.07,0c-0.7-0.08-1.23-0.36-1.21-1.19c0.02-0.79,0.48-1.13,1.21-1.2
		c0.23-0.02,0.46-0.03,0.78-0.05c-0.32-0.61-0.93-0.71-1.34-1.06c-0.21-0.19-0.43-0.39-0.33-0.71c0.1-0.31,0.38-0.4,0.67-0.4
		c0.87-0.01,1.78-0.17,2.53,0.43c0.5,0.4,0.84,0.41,0.99-0.28c0.12-0.57,0.74-0.66,1-1.1C44.84,16.35,46.61,17,47.8,18.38z"/>
	<path class="st54" d="M25.76,21.03c-0.22-0.39-0.44-0.69-0.56-1.02c-0.17-0.47,0.01-0.79,0.53-0.83c0.36-0.03,0.72-0.06,1.07-0.01
		c0.85,0.12,1.72,0.71,2.53-0.15c0.08-0.08,0.41-0.02,0.57,0.07c0.67,0.37,0.82,1.2,1.67,1.57c0.8,0.34,0.77,1.38,0.15,2.17
		c-0.07,0.09,0.01,0.3,0.03,0.45c0.25,1.72,0.16,1.83-1.6,1.75c-0.65-0.03-1.21-0.06-1.87,0.29c-1.37,0.72-2.32,0.07-2.47-1.52
		c-0.03-0.36-0.12-0.58-0.44-0.75c-0.47-0.25-0.92-0.6-0.85-1.19C24.59,21.19,25.31,21.31,25.76,21.03z"/>
	<path class="st55" d="M19.38,19.38c-0.66-0.12-1.49-0.1-1.48-1.13c0.01-1.1,0.83-1.22,1.67-1.23c0.78,0,1.3,0.3,1.3,1.19
		C20.87,19.23,20.19,19.35,19.38,19.38z"/>
	<path class="st56" d="M32.53,8.59c0,0.27,0,0.54,0,0.8c-0.64,0.53-1.54,0.04-2.26,0.51c0.56,0.61,1.31-0.09,1.81,0.41
		c0.06,0.24,0.39,0.46,0.05,0.73c-0.6-0.27-1.21,0.13-1.81-0.03c-0.61-0.15-1.16-0.34-1.1-1.13c0.05-0.74,0.51-0.99,1.18-1.07
		c0.41-0.05,0.87,0.19,1.24-0.18c0.18-0.01,0.36-0.03,0.46-0.22C32.31,8.26,32.43,8.4,32.53,8.59z"/>
	<path class="st57" d="M31.19,28.52c0.63,0.01,1.27,0.07,1.29,0.87c0.02,0.67-0.32,1.12-1.09,1.1c-0.75-0.02-1.36-0.23-1.42-1.09
		C29.9,28.49,30.61,28.58,31.19,28.52z"/>
	<path class="st58" d="M51.2,14.49c0.35-0.04,0.69-0.08,1.04-0.12c0.4,0.18,0.8,0.37,1.2,0.55c0.07,0.14,0.14,0.28,0.22,0.42
		c-0.09,0.24-0.25,0.37-0.52,0.32c-0.39-0.08-0.72-0.56-1.25-0.18c0.25,0.46,0.83,0.23,1.11,0.54c0.16,0.32,0.13,0.56-0.27,0.66
		c-0.74,0.11-1.46,0.07-1.92-0.6C50.38,15.47,50.89,14.98,51.2,14.49z"/>
	<path class="st59" d="M30.16,13.73c-0.06,0.54-0.35,0.86-0.91,0.89c-0.44,0.02-0.83-0.11-0.8-0.63c0.04-0.57,0.43-0.94,0.98-1.01
		C29.91,12.93,30.13,13.27,30.16,13.73z"/>
	<path class="st60" d="M27.39,10.1c0.65-0.04,0.89,0.13,0.84,0.53c-0.06,0.43-0.41,0.57-0.79,0.54c-0.32-0.03-0.65-0.17-0.6-0.58
		C26.9,10.12,27.29,10.1,27.39,10.1z"/>
	<path class="st61" d="M33.77,17.78c-0.06,0.46-0.31,0.68-0.72,0.64c-0.25-0.03-0.61-0.06-0.55-0.44c0.06-0.34,0.19-0.7,0.64-0.72
		C33.53,17.24,33.68,17.49,33.77,17.78z"/>
	<path class="st62" d="M53.13,15.61c0.17-0.09,0.35-0.17,0.52-0.26c0.36,0.4,0.03,0.8,0.02,1.21c-0.32,0.04-0.63,0.09-0.95,0.13
		c0.15-0.19,0.31-0.37,0.19-0.64C52.8,15.81,52.83,15.64,53.13,15.61z"/>
	<path class="st63" d="M37.79,15.79c0.03,0.29-0.15,0.41-0.33,0.46c-0.27,0.06-0.48-0.08-0.51-0.35c-0.02-0.23,0.18-0.33,0.4-0.33
		C37.55,15.55,37.74,15.59,37.79,15.79z"/>
	<path class="st64" d="M43.29,30.35c-0.01,0.3-0.21,0.41-0.44,0.49c-0.27,0.1-0.49,0-0.57-0.26c-0.1-0.35,0.16-0.49,0.45-0.55
		C43,29.98,43.17,30.14,43.29,30.35z"/>
	<path class="st65" d="M38.05,31.36c-0.09,0.35-0.23,0.58-0.57,0.55c-0.27-0.02-0.42-0.21-0.37-0.49c0.05-0.26,0.24-0.4,0.49-0.43
		C37.91,30.97,38.02,31.15,38.05,31.36z"/>
	<path class="st66" d="M37.1,32.48c0.31,0.05,0.48,0.26,0.49,0.57c0.01,0.26-0.14,0.47-0.42,0.47c-0.31,0-0.31-0.3-0.38-0.52
		C36.69,32.71,36.81,32.55,37.1,32.48z"/>
	<path class="st67" d="M40.47,29.78c0.24,0.04,0.45,0.15,0.4,0.44c-0.05,0.29-0.31,0.32-0.55,0.29c-0.23-0.02-0.51-0.06-0.42-0.39
		C39.97,29.87,40.19,29.77,40.47,29.78z"/>
	<path class="st68" d="M35.66,35.77c-0.15-0.08-0.31-0.17-0.46-0.25c0.03-0.34,0.16-0.63,0.55-0.64c0.11,0,0.3,0.16,0.33,0.28
		C36.17,35.49,35.91,35.64,35.66,35.77z"/>
	<path class="st69" d="M39.78,25.42c-0.26,0.09-0.52,0.17-0.78,0.26c-0.92-0.92-2.01-1.71-2.18-3.15
		C37.81,23.5,38.79,24.46,39.78,25.42z"/>
	<path class="st70" d="M19.06,14.19c-0.87,0.12-1.15-0.42-1.13-1.21c0.02-0.68,1.12-1.58,1.69-1.24c0.46,0.27,1.41-0.23,1.4,0.75
		C21.01,13.52,20.22,14.18,19.06,14.19z"/>
	<path class="st71" d="M24.6,11.13c-0.13,0.74-0.57,1.46-1.4,1.45c-0.55,0-1.42-0.86-1.26-1.13c0.34-0.59,0.3-1.67,1.41-1.65
		C24.2,9.81,24.57,10.25,24.6,11.13z"/>
	<path class="st72" d="M18,9.8c0.45,0.07,0.88,0.13,1.06,0.52c0.13,0.27,0.16,0.63-0.13,0.88c-0.35,0.3-0.73,0.24-1.1,0.04
		c-0.03-0.02-0.07-0.03-0.11-0.04c-0.44-0.19-1.28-0.08-1.16-0.74C16.68,9.82,17.53,9.99,18,9.8z"/>
	<path class="st73" d="M22.46,7.72c0.72,0.33,0.55,0.68,0.2,1.26c-0.35,0.57-0.56,0.39-0.94,0.14c-0.29-0.19-0.63-0.29-0.94-0.43
		C21.09,7.94,22.02,8.26,22.46,7.72z"/>
	<path class="st74" d="M20.79,11.09c-0.51,0-0.78-0.16-0.77-0.62c0.01-0.48,0.28-0.74,0.74-0.74c0.43,0,0.79,0.15,0.74,0.69
		C21.46,10.91,21.16,11.1,20.79,11.09z"/>
	<path class="st75" d="M18.37,7.64c0.59,0.03,0.86,0.5,1.21,0.87c0.27,0.29,0.22,0.56-0.06,0.81c-0.37,0.33-0.58,0.02-0.76-0.22
		c-0.33-0.42-0.42-0.93-0.41-1.45C18.35,7.65,18.37,7.64,18.37,7.64z"/>
	<path class="st76" d="M22.46,7.72c-0.31,0.77-1.18,0.55-1.69,0.97C20.88,7.59,21.87,8,22.46,7.72z"/>
	<path class="st77" d="M21.27,7.3c0.67-0.12,1.36-0.61,1.97,0.12C22.58,7.4,21.91,7.56,21.27,7.3z"/>
	<path class="st78" d="M7.55,24.05c0.6,0.39,1.25,0.62,1.96,0.71c0.24,0.11,0.48,0.21,0.72,0.32c-2,0.38-3.83-0.54-4.72-2.49
		C6.32,23.03,6.76,23.8,7.55,24.05z"/>
	<path class="st79" d="M6.89,20.64c0.45,0.89,1.23,1.28,2.16,1.44c-0.18,0.71-0.71,0.48-1.14,0.37c-0.39-0.1-0.7-0.37-1-0.63
		c-0.2-0.29-0.52-0.51-0.54-0.91C6.48,20.7,6.66,20.63,6.89,20.64z"/>
	<path class="st80" d="M12.86,18.98c0.1-0.09,0.19-0.19,0.29-0.28c0.47,0.58,0.64,1.25,0.67,2.23
		C13.27,20.2,13.08,19.58,12.86,18.98z"/>
	<path class="st81" d="M34.24,10.09c0.69,0.02,1.01-0.39,1.14-1c0.12-0.52-0.16-0.85-0.61-1.03c-0.54-0.21-0.52-0.64-0.51-1.08
		c0.01-0.25,0.05-0.55,0.3-0.59c0.26-0.05,0.58,0.09,0.61,0.43c0.07,0.74,0.36,1.09,1.16,0.89c0.39-0.1,0.73,0.14,0.88,0.48
		c0.15,0.33-0.21,0.49-0.42,0.62c-0.53,0.33-0.44,0.84-0.34,1.28c0.13,0.53,0.29,1.08-0.28,1.37c-0.59,0.3-0.93-0.26-1.3-0.6
		c-0.2-0.19-0.41-0.38-0.61-0.57c-0.08-0.04-0.11-0.09-0.08-0.13C34.19,10.11,34.21,10.09,34.24,10.09z"/>
	<path class="st82" d="M32.53,8.59c-0.15-0.06-0.3-0.12-0.45-0.17c-0.39-0.28-0.79-0.53-1.15-0.84c-0.25-0.22-0.68-0.45-0.45-0.87
		c0.21-0.38,0.65-0.22,0.99-0.19C31.73,6.55,32,6.68,32.25,6.8C33.52,7.42,33.56,7.69,32.53,8.59z"/>
	<path class="st83" d="M32.08,10.31c-0.62,0.01-1.21,0.4-1.85,0.14c-0.25-0.1-0.54-0.21-0.5-0.56C29.78,9.57,30,9.4,30.3,9.39
		c0.74-0.02,1.49,0,2.23,0C32.69,9.85,32.38,10.07,32.08,10.31z"/>
	<path class="st84" d="M34.24,10.09c0,0.07,0,0.13,0,0.2c-0.83,0.28-0.42,1.09-0.68,1.63c-0.19,0.4-0.21,0.96-0.81,0.75
		c-0.52-0.18-0.47-0.7-0.29-1.13C32.79,10.75,33,9.78,34.24,10.09z"/>
	<path class="st85" d="M34.68,8.92c-0.06,0.47-0.43,0.38-0.73,0.37c-0.26-0.01-0.65,0.06-0.6-0.35c0.05-0.35,0.29-0.69,0.73-0.66
		C34.42,8.31,34.66,8.54,34.68,8.92z"/>
	<path class="st86" d="M6.91,21.81c0.71,0.09,1.34,0.85,2.14,0.27c1.28-0.27,1.5-0.76,0.87-2.02c-0.45,0.36-0.43,1.62-1.49,0.83
		c-0.74-0.56-0.87-2.26-0.13-3.05c0.64-0.69,1.3-0.37,1.86,0.19c0.96,0.97,1.92,1.97,1.97,3.44c0.08,2.01-1.27,2.95-3.09,2.18
		C8.15,23.26,7.4,22.68,6.91,21.81z"/>
	<path class="st72" d="M46.3,21.43c-1-0.03-1.51-0.91-2.48-1.34c0.79-0.41,1.13-0.93,1-1.69c-0.09-0.54,0.18-0.81,0.71-0.89
		c0.53-0.08,1.02,0.09,1.22,0.54c0.22,0.48-0.15,0.68-0.62,0.68c-0.32,0-0.73,0.02-0.77,0.4c-0.05,0.5,0.42,0.54,0.76,0.52
		c0.65-0.04,0.55,0.59,0.84,0.86C46.98,20.99,46.84,21.35,46.3,21.43z"/>
	<path class="st87" d="M42.07,20.02c-0.99,0.35-1.95-0.08-2.91-0.11c-0.22-0.01-0.34-0.19-0.35-0.41c-0.02-0.22,0.09-0.37,0.28-0.48
		C39.95,18.55,41.6,19.08,42.07,20.02z"/>
	<path class="st88" d="M39.59,16.88c1.14-0.34,1.82,0.19,2.45,0.87c0.13,0.14,0.29,0.3,0.14,0.5c-0.18,0.24-0.42,0.18-0.62,0.03
		C40.93,17.85,40.3,17.39,39.59,16.88z"/>
	<path class="st72" d="M43.36,19.8c0,1.84,0,1.84-0.86,2.73C42.27,21.45,42.29,20.55,43.36,19.8z"/>
	<path class="st89" d="M43.62,18.2c0.48,0.26,0.68,0.61,0.15,0.98c-0.4,0.27-0.93,0.43-1.25-0.1c-0.33-0.56,0.13-0.75,0.58-0.88
		C43.28,18.09,43.45,18.07,43.62,18.2z"/>
	<path class="st90" d="M43.62,18.2c-0.17,0-0.35-0.01-0.52-0.01c0-0.12-0.01-0.24,0-0.36c0.03-0.49-0.21-1.07,0.36-1.41
		c0.21-0.13,0.4,0.03,0.48,0.21C44.22,17.23,44.22,17.78,43.62,18.2z"/>
	<path class="st91" d="M46.3,21.43c0.22-0.31,0.44-0.61,0.66-0.92C47.16,21.12,47.37,21.74,46.3,21.43z"/>
	<path class="st92" d="M27.36,24.75c-0.32-0.03-0.93,0.08-0.86-0.44c0.1-0.72,0.71-1.22,1.42-1.37c0.26-0.06,0.81-0.01,0.79,0.63
		C28.68,24.33,28.28,24.74,27.36,24.75z"/>
	<path class="st92" d="M29.42,23.34c0.11-0.28-0.2-0.98,0.37-0.85c0.53,0.12,1.25,0.44,1.32,1.19c0.06,0.64-0.47,0.77-0.95,0.79
		C29.41,24.48,29.43,23.9,29.42,23.34z"/>
	<path class="st93" d="M28.32,20.74c-0.84,0.67-1.85,0.56-2.23-0.22c-0.11-0.24-0.4-0.45-0.12-0.72c0.18-0.18,0.44-0.11,0.68-0.06
		C27.09,19.83,27.63,20.15,28.32,20.74z"/>
	<path class="st94" d="M26.34,21.59c0.64-0.1,0.74,0.4,0.78,0.8c0.04,0.34-0.31,0.64-0.61,0.53c-0.42-0.15-1.01-0.34-1.06-0.8
		C25.41,21.7,25.96,21.63,26.34,21.59z"/>
	<path class="st70" d="M30.87,21.05c0.44-0.02,0.49,0.26,0.5,0.54c0.01,0.43-0.24,0.69-0.64,0.65c-0.36-0.04-0.95-0.02-0.96-0.46
		C29.75,21.08,30.65,21.51,30.87,21.05z"/>
	<path class="st95" d="M28.36,21.58c0.27,0.06,0.71-0.19,0.72,0.33c0.01,0.32-0.16,0.64-0.57,0.58c-0.37-0.05-0.9-0.09-0.94-0.53
		C27.52,21.4,28.08,21.69,28.36,21.58z"/>
	<path class="st90" d="M29.87,20.14c-0.12,0.27-0.1,0.72-0.59,0.7c-0.32-0.01-0.47-0.33-0.48-0.58c-0.02-0.38,0.35-0.47,0.65-0.54
		C29.74,19.65,29.88,19.82,29.87,20.14z"/>
	<path class="st96" d="M18.72,18.38c0.32-0.52,0.68-0.69,1.15-0.55c0.13,0.04,0.24,0.2,0.1,0.37
		C19.64,18.61,19.23,18.55,18.72,18.38z"/>
	<path class="st97" d="M31.78,29.49c-0.04,0.26-0.23,0.29-0.43,0.28c-0.21-0.01-0.42-0.09-0.41-0.33c0.01-0.22,0.22-0.31,0.43-0.31
		C31.59,29.15,31.74,29.27,31.78,29.49z"/>
	<path class="st98" d="M53.13,15.61c-0.19,0.09-0.2,0.27-0.22,0.44c-0.16,0.02-0.31,0.05-0.47,0.04c-0.39-0.01-0.82,0.05-1.07-0.34
		c-0.15-0.24,0.04-0.43,0.22-0.6c0.4-0.39,0.8-0.21,1.18,0.02C52.93,15.27,53.02,15.46,53.13,15.61z"/>
</g>
</svg>
