<?xml version="1.0" encoding="utf-8"?>
<!-- Generator: Adobe Illustrator 23.0.2, SVG Export Plug-In . SVG Version: 6.00 Build 0)  -->
<svg version="1.1" id="Camada_1" xmlns="http://www.w3.org/2000/svg" xmlns:xlink="http://www.w3.org/1999/xlink" x="0px" y="0px"
	 viewBox="0 0 35.09 49.95" style="enable-background:new 0 0 35.09 49.95;" xml:space="preserve">
<style type="text/css">
	.st0{fill:#010202;}
	.st1{fill:#1B422F;}
	.st2{fill:#65A76C;}
	.st3{fill:#FCFCFC;}
	.st4{fill:#6CAC71;}
	.st5{fill:#7DB27E;}
	.st6{fill:#EEF3EE;}
	.st7{fill:#E3EDE0;}
	.st8{fill:#DBE9D8;}
	.st9{fill:#DCE8E2;}
	.st10{fill:#6BA971;}
	.st11{fill:#F6F7F8;}
	.st12{fill:#949494;}
	.st13{fill:#7BB17D;}
	.st14{fill:#939393;}
	.st15{fill:#FBFBFB;}
	.st16{fill:#A3A6A9;}
	.st17{fill:#87B688;}
	.st18{fill:#9C9D9E;}
	.st19{fill:#9C9EA0;}
	.st20{fill:#A0A3A5;}
	.st21{fill:#2E703A;}
	.st22{fill:#30763B;}
	.st23{fill:#979797;}
	.st24{fill:#979898;}
	.st25{fill:#AFB5BA;}
	.st26{fill:#E4EDE7;}
	.st27{fill:#F7F7F7;}
	.st28{fill:#C4D0D8;}
	.st29{fill:#D8E6EE;}
	.st30{fill:#BABABB;}
	.st31{fill:#D2D2D2;}
	.st32{fill:#DBDBDB;}
	.st33{fill:#010404;}
	.st34{fill:#064C3F;}
	.st35{fill:#D2E2C3;}
	.st36{fill:#ADC6A1;}
	.st37{fill:#043A2D;}
	.st38{fill:#0B5E53;}
	.st39{fill:#010B09;}
	.st40{fill:#91B18B;}
	.st41{fill:#3E3E3F;}
	.st42{fill:#FEFEFE;}
	.st43{fill:#409344;}
	.st44{fill:#66A46D;}
	.st45{fill:#FDFDFD;}
	.st46{fill:#32733D;}
	.st47{fill:#589660;}
	.st48{fill:#959697;}
</style>
<g>
	<path class="st0" d="M15.52,6.71c1.21-3.65,5.49-5.64,8.35-5.32c2.94,0.33,6.15,3.17,6.84,6.24c0.75,3.32-0.65,6.49-3.65,8.1
		c-0.78,0.42-1.34,0.97-1.71,1.75c-0.79,1.69-1.64,3.36-1.83,5.26c-0.04,0.41-0.2,0.81-0.53,1.04c-0.83,0.58-0.7,1.14-0.17,1.88
		c3.13,4.48,6.24,8.98,9.33,13.49c0.61,0.88,1.18,1.8,1.46,2.86c0.24,0.92,0.38,1.83-0.63,2.43c-1.02,0.61-1.71,0-2.4-0.67
		c-1.98-1.94-3.62-4.15-5.4-6.26c-1.7-2.01-3.38-4.03-5.14-6.14c-1.51,4.31-2.97,8.5-4.46,12.68c-0.4,1.12-0.94,2.19-1.39,3.29
		c-0.34,0.83-0.99,1.16-1.8,1.05c-0.86-0.12-1.22-0.75-1.36-1.59c-0.24-1.39,0.05-2.7,0.4-4.01c1.43-5.3,2.77-10.62,4.05-15.95
		c0.16-0.69,0.11-1.09-0.57-1.28c-0.55-0.15-0.88-0.54-1.14-1c-0.97-1.74-2.35-3.11-3.84-4.39c-0.54-0.46-1.16-0.63-1.86-0.71
		c-4.17-0.48-7.11-4.61-6.17-8.62C3.5,4.13,10.45,2.02,15.52,6.71z"/>
	<path class="st1" d="M28.89,11.51c0.37,0.53,0,0.93-0.29,1.28c-0.46,0.54-0.92,1.2-1.54,1.49c-2.84,1.34-3.45,4.12-4.43,6.65
		c-0.33,0.86-0.38,1.76-1.05,2.56c-0.78,0.94-0.38,1.9,0.33,2.9c3.4,4.82,6.72,9.69,10.03,14.56c0.47,0.7,1.24,1.77,0.5,2.35
		c-0.83,0.64-1.4-0.61-1.89-1.17c-2.12-2.43-4.14-4.95-6.22-7.42c-1.5-1.79-3.03-3.57-4.67-5.5c-0.36,0.95-0.68,1.74-0.96,2.55
		c-1.42,4.06-2.82,8.13-4.27,12.18c-0.36,1.01-0.89,1.96-1.36,2.93c-0.1,0.21-0.23,0.45-0.53,0.37c-0.24-0.06-0.24-0.28-0.3-0.47
		c-0.46-1.38,0.03-2.69,0.37-3.97c1.43-5.29,2.71-10.63,4.05-15.94c0.31-1.22-0.18-1.83-1.06-2.32c-0.32-0.18-0.61-0.32-0.79-0.66
		c-0.98-1.73-2.45-3.04-3.86-4.39c-0.73-0.71-1.6-1.17-2.65-1.24c-3.32-0.21-5.81-3.51-5.2-6.82c0.13-0.7,0.2-1.43,0.45-2.09
		c1.56-4.12,7.95-5.32,10.86-1.95c1.49,1.72,2.11,3.82,1.36,6.13c-0.01,0.03-0.07,0.06-0.09,0.05c-0.07-0.02-0.13-0.06-0.19-0.1
		c-0.5-0.92,0.02-1.97-0.39-2.9c-0.06-0.63-0.22-1.23-0.57-1.76c-0.37-0.61-0.71-1.24-1.41-1.54c-1.7-1.15-3.54-1.44-5.51-0.89
		c-3.49,1.36-4.96,5.57-3.04,8.75c1.06,1.75,2.78,2.29,4.68,2.45c2.3,1.08,3.95,2.88,5.43,4.87c0.26,0.35,0.42,1.06,1.15,0.65
		c0.41-0.42,0.8-0.87,1.22-1.28c0.08-0.07,0.17-0.14,0.25-0.21c0.26-0.12,0.61-0.27,0.56,0.21c-0.05,0.39,0.09,0.54,0.39,0.59
		c0.43,0.07,0.62-0.36,0.61-0.6c-0.08-1.7,1.15-3.02,1.27-4.66c0.08-1.14,0.22-2.12-1.13-2.79c-1.22-0.61-2.06-1.73-2.26-3.2
		c-0.04-0.29,0.02-0.45,0.22-0.61c0.28,0.03,0.42,0.25,0.49,0.47c0.5,1.43,1.51,2.42,2.77,3.19c0.54,0.33,0.71,0.8,0.75,1.4
		c0.09,1.35-0.16,2.65-0.69,3.86c-0.45,1.02-0.18,1.58,0.82,1.9c0.65,0.35,0.72-0.16,0.85-0.58c0.37-1.18,0.79-2.33,1.34-3.44
		c0.51-1.05,1.12-2.01,1.94-2.83C26.66,13.76,27.67,12.5,28.89,11.51z"/>
	<path class="st2" d="M21.15,21.64c-1.73-0.67-1.71-0.66-1.11-2.34c0.23-0.63,0.41-1.28,0.53-1.94c0.26-1.45,0.26-2.76-1.37-3.57
		c-1.3-0.64-1.78-1.96-2.23-3.25c-0.69-3.62,1.41-6.61,5.17-7.39c0.76,0.26,1.64-0.34,2.35,0.32c0.06,0.89-0.7,0.56-1.11,0.76
		c-0.09,0.04-0.5-0.23-0.25,0.22C22.8,5.01,22.13,4.9,21.7,5.24c-0.78,0.39-1.6,0.69-2.25,1.33C18.2,7.8,18,9.01,18.85,10.55
		c0.23,0.42,0.56,0.77,0.69,1.25c0.21,0.82,0.93,1.09,1.55,1.49c0.66,0.3,1.35,0.53,2.08,0.62c0.56,0.18,1.21,0.14,1.62,0.69
		c0.11,0.31-0.08,0.52-0.24,0.76c-1.07,1.6-1.86,3.35-2.66,5.09C21.69,20.87,21.58,21.35,21.15,21.64z"/>
	<path class="st3" d="M16.68,14.16c0.31,0.16,0.35,0.17,0.38,0.2c0.51,0.69,1.7,0.84,1.84,1.7c0.2,1.31-0.24,2.59-0.95,3.8
		c-0.98-0.63-1.53-1.59-1.98-2.58C15.41,16.07,16.87,15.42,16.68,14.16z"/>
	<path class="st4" d="M24.76,14.66c-0.57-0.16-1.14-0.33-1.7-0.49c-0.07-0.12-0.06-0.23,0.05-0.33c0.31-0.22,0.67-0.19,1.02-0.24
		c2.35-0.32,3.56-1.54,3.89-3.91c0.04-0.31,0.03-0.63,0.17-0.92c0.48-0.25,0.54-0.85,0.94-1.17c0.53,1.34,0.13,2.62-0.23,3.91
		c-0.8,1.43-2,2.42-3.48,3.07C25.23,14.89,25,14.84,24.76,14.66z"/>
	<path class="st5" d="M29.13,7.6c-0.33,0.29,0.5,1.4-0.74,1.05C28.05,8.47,28,8.1,27.86,7.8c-0.63-1.43-1.67-2.43-3.13-2.98
		c-0.52-0.28-1.19,0-1.66-0.47c-0.09-0.06-0.5-0.01-0.1-0.26c0.47-0.29,1.07-0.08,1.52-0.44c0.86-0.12,1.43,0.51,2.12,0.83
		c0.96,0.63,1.4,1.72,2.23,2.47C29.12,7.09,29.13,7.34,29.13,7.6z"/>
	<path class="st6" d="M15.39,10.33c0.4,1.03,0.28,2.08,0.12,3.14c-0.26,0.57-0.41,1.22-0.79,1.7c-0.71,0.91-0.81,1.81-0.27,2.81
		c0.1,0.28-0.07,0.33-0.28,0.33c-1.11-1.08-1.18-1.59-0.41-3.3c0.64-1.15,1.14-2.33,1.09-3.69C14.83,10.95,14.74,10.4,15.39,10.33z"
		/>
	<path class="st7" d="M26.64,4.67c-0.71-0.34-1.43-0.68-2.14-1.02c-0.71-0.52-1.65,0.01-2.36-0.49c1.75-0.51,3.2,0.11,4.53,1.19
		C26.76,4.46,26.75,4.57,26.64,4.67z"/>
	<path class="st8" d="M14.21,18.25c0.08-0.09,0.15-0.18,0.23-0.27c0.67,1.44,1.7,2.59,2.87,3.63c0,0.08-0.01,0.16-0.03,0.23
		c-0.09,0.09-0.2,0.17-0.31,0.14C15.81,21.64,14.25,19.52,14.21,18.25z"/>
	<path class="st9" d="M26.64,4.67c0.01-0.11,0.02-0.21,0.02-0.32c1.03,0.61,1.73,1.5,2.19,2.6c-0.58,0.25-0.54-0.37-0.76-0.59
		C27.56,5.84,27.11,5.24,26.64,4.67z"/>
	<path class="st10" d="M14.21,18.25c0.62,1.54,1.62,2.75,3.07,3.59c-0.25,0.6-0.83,0.93-1.19,1.45c-0.64,0.31-0.85-0.28-1.12-0.6
		c-1.08-1.29-2.13-2.59-3.45-3.64c-0.66-0.52-1.31-1.05-2.15-1.26c-3.52-0.18-5.41-1.77-5.92-5.01c-0.42-2.69,1.41-5.7,4.07-6.7
		c0.54,0.27,1.19-0.31,1.7,0.19C9.44,7,9.08,7.11,8.6,7.09c0.37,0.28,1.14-0.53,1.55,0.23C9.89,7.89,9.36,7.74,8.91,7.77
		c-3.69,0.24-5.49,3.84-3.46,6.93c0.24,0.36,0.37,0.79,0.67,1.12c0.54,0.56,1.07,1.12,1.97,0.78c1.11-0.06,2.2-0.21,3.23-0.62
		c0.89-0.21,1.78-0.44,2.49-1.08c0.05-0.05,0.15,0.02,0.19,0.1c0.04,0.07,0.03,0.13-0.02,0.21C13.26,16.27,13.46,17.28,14.21,18.25z
		"/>
	<path class="st11" d="M20.63,29.56c-0.32-0.4-0.65-0.79-0.97-1.19c-0.07-0.17,0.02-0.3,0.11-0.44c0.28-0.46,1.13-0.5,1.02-1.19
		c-0.08-0.5-0.54-0.87-0.79-1.33c-0.08-0.14-0.15-0.28-0.21-0.43c-0.06-0.23-0.06-0.46,0.06-0.68c0.09-0.09,0.19-0.11,0.31-0.05
		c1.41,2.59,3.24,4.91,4.87,7.37c2.03,3.05,4.17,6.03,6.29,9.02c0.52,0.73,0.84,1.49,0.71,2.5c-0.43-0.54-0.86-1.07-1.29-1.61
		c-0.15-0.6-0.47-1.1-0.87-1.56c-0.35-0.48-0.66-0.98-1-1.46c-0.54-0.8-1.05-1.63-1.66-2.39c-0.54-0.77-1.12-1.53-1.57-2.36
		c-0.46-0.85-1.01-1.11-1.87-0.63c-0.24-0.24-0.47-0.48-0.71-0.72c-0.09-0.16-0.06-0.34,0.06-0.43c0.9-0.64,0.49-1.21,0.01-1.9
		c-0.55-0.79-1.04-1.31-1.95-0.49C21.04,29.74,20.82,29.67,20.63,29.56z"/>
	<path class="st12" d="M15.87,38.18c-0.82,2.86-1.94,5.61-3.16,8.33c-0.33-2.62,0.78-4.96,1.42-7.38
		C14.67,38.74,15,37.95,15.87,38.18z"/>
	<path class="st13" d="M13.98,15.19c-0.71,0.59-1.51,0.92-2.44,0.91c-0.1-0.28,0.09-0.45,0.26-0.61c1.75-1.62,2.34-3.61,1.95-5.93
		c0-0.19,0.02-0.38,0.02-0.57c-0.01-0.3-0.1-0.65,0.25-0.81c0.37-0.16,0.37,0.43,0.7,0.4c0.46,0.49,0.65,1.09,0.67,1.75
		c-0.32,1.31-0.08,2.74-0.9,3.93C14.29,14.56,14.15,14.88,13.98,15.19z"/>
	<path class="st14" d="M17.05,35.05c-0.23,0.65-0.46,1.3-0.69,1.95c-0.63,0.34-1.06,1.07-1.91,0.97c0.18-1.41,0.61-2.76,0.96-4.13
		c0.54-0.62,1.1-1.21,1.75-1.72c0.32-0.25,0.74-0.47,0.71,0.28C17.65,33.29,17.1,34.09,17.05,35.05z"/>
	<path class="st15" d="M17.81,32.41c-0.07-0.6-0.29-0.23-0.49-0.08c-0.65,0.48-1.08,1.23-1.9,1.5c0.24-0.94,0.47-1.89,0.71-2.83
		c0.8-1.09,1.72-2.04,3.09-2.41c-0.07,1.38-0.95,2.5-1.23,3.81C17.93,32.49,17.87,32.5,17.81,32.41z"/>
	<path class="st16" d="M20.63,29.56c0.04,0,0.08-0.01,0.12-0.01c0.64-0.13,1.15-1.17,1.58-0.84c0.76,0.57,1.23,1.53,1.8,2.34
		c0.24,0.33-0.08,0.49-0.28,0.67c-0.26,0.24-0.66,0.31-0.8,0.69C22.24,31.48,21.32,30.62,20.63,29.56z"/>
	<path class="st17" d="M14.71,8.59c-0.4,0.47-0.33-0.55-0.7-0.17c-0.26,0.27,0.41,0.69-0.1,0.98c-1.18-0.82-2.57-1.21-3.81-1.9
		C9.63,6.93,8.96,7.4,8.39,7.12c0.32-0.2,0.9-0.21,0.74-0.82c1.08-0.7,2.02,0.14,3.01,0.31c0.48,0.08,0.96,0.34,1.36,0.66
		C14.19,7.45,14.41,8.06,14.71,8.59z"/>
	<path class="st18" d="M19.22,28.59c-1.03,0.8-2.06,1.6-3.09,2.41c0.34-1.51,0.67-3.01,1.04-4.68
		C18.07,27.02,18.64,27.81,19.22,28.59z"/>
	<path class="st19" d="M23.78,33.14c1.09-1.02,1.1-1.03,1.91,0.2c0.59,0.88,1.15,1.78,1.72,2.68c-0.4,0.56-0.82,0.2-1.24,0.02
		C25.28,35.15,24.44,34.22,23.78,33.14z"/>
	<path class="st20" d="M19.98,24.95c1.39,1.95,1.39,1.95-0.31,3.42c-0.75-0.63-1.29-1.43-1.88-2.19c-0.09-0.22,0.04-0.3,0.21-0.37
		C18.93,26.18,19.46,25.58,19.98,24.95z"/>
	<path class="st21" d="M24.76,14.66c0.22-0.03,0.44-0.05,0.65-0.08c-1.66,2.08-2.76,4.43-3.34,7.04c-0.19,0.87-0.61,0.21-0.92,0.02
		C21.97,19.12,23.37,16.9,24.76,14.66z"/>
	<path class="st22" d="M9.37,17.8c1.38-0.11,2.1,1,3.01,1.7c1.23,0.96,2.14,2.25,3.15,3.42c0.16,0.18,0.28,0.39,0.56,0.37
		c-0.42,0.49-0.75,0.56-1.17-0.06C13.44,21.05,11.63,19.18,9.37,17.8z"/>
	<path class="st23" d="M18.01,25.94c-0.08,0.08-0.16,0.16-0.23,0.24c-0.26-0.29-0.52-0.58-0.77-0.88c-1.1-1.32-1.09-1.32,0.25-2.52
		c0.51,0.33,1.25,0.29,1.55,0.95C17.95,24.25,17.8,25.03,18.01,25.94z"/>
	<path class="st24" d="M20.16,24.26l-0.08,0.03l-0.08,0c-0.28-0.02-0.45-0.21-0.62-0.4c-0.14-0.2-0.32-0.37-0.41-0.6
		c0.02-0.71,0.22-1.46,1.06-1.22c0.47,0.13,1.75,0,1.18,1.28c-0.52,0.11-0.37,0.82-0.85,0.96C20.29,24.3,20.23,24.28,20.16,24.26z"
		/>
	<path class="st25" d="M26.17,36.04c0.41-0.16,0.83,0.24,1.24-0.02c0.71,0.69,1.16,1.56,1.65,2.4c-0.04,0.31-0.24,0.47-0.52,0.55
		C27.61,38.1,26.96,37.02,26.17,36.04z"/>
	<path class="st26" d="M13.5,7.27C12.04,7,10.69,6.15,9.13,6.3C8.6,6.17,8.02,6.47,7.53,6.08c1.77-0.48,3.48-0.29,5.12,0.49
		C12.97,6.72,13.45,6.76,13.5,7.27z"/>
	<path class="st27" d="M14.45,37.96c0.68-0.23,1.08-1.03,1.91-0.97c-0.16,0.4-0.32,0.79-0.49,1.18c-0.63,0.22-1.05,0.84-1.74,0.95
		C14.24,38.74,14.34,38.35,14.45,37.96z"/>
	<path class="st28" d="M28.54,38.97c0.1-0.25,0.26-0.44,0.52-0.55c0.43,0.41,0.71,0.92,0.97,1.44c0.1,0.28-0.03,0.44-0.28,0.54
		C29.23,40.02,28.88,39.49,28.54,38.97z"/>
	<path class="st29" d="M29.75,40.4c0.09-0.18,0.19-0.36,0.28-0.54c0.42,0.48,1.14,0.84,0.71,1.68C30.3,41.25,30.01,40.84,29.75,40.4
		z"/>
	<path class="st30" d="M17.81,32.41c0.06-0.01,0.12-0.01,0.18-0.01c-0.17,0.93-0.56,1.79-0.94,2.65
		C16.93,34.06,17.32,33.22,17.81,32.41z"/>
	<path class="st31" d="M18.97,23.29c0.16,0.12,0.32,0.24,0.48,0.36c-0.19,0.39-0.43,0.3-0.68,0.06c-0.46-0.38-1.14-0.42-1.52-0.93
		C17.94,22.56,18.37,23.2,18.97,23.29z"/>
	<path class="st32" d="M20.36,24.31c0.2-0.39,0.16-1,0.85-0.96C20.87,23.62,21.27,24.54,20.36,24.31z"/>
	<path class="st33" d="M19.49,11.99c-0.18-0.26-0.35-0.52-0.53-0.78c-1.57-2.19-1.03-4.42,1.36-5.63c0.42-0.21,0.87-0.38,1.3-0.58
		c2.51-0.53,4.07,0.47,5.35,3.43c0.32,1.14,0.49,2.29-0.06,3.39c-0.76,1.53-2.33,2.17-4.3,1.82c-0.35-0.06-0.69-0.19-1.05-0.24
		c-0.12,0.01-0.24,0.01-0.36-0.01C20.48,13.11,19.84,12.72,19.49,11.99z"/>
	<path class="st34" d="M26.68,8.41c-0.92-2.28-2.54-3.51-5.06-3.4c0.38-0.46,1.03-0.31,1.46-0.67c0.64,0,1.31-0.15,1.89,0.26
		c0.05,0.17-0.04,0.27-0.17,0.33c1.6,1.06,1.73,1.23,2.72,3.45c0.04,0.17,0.02,0.34-0.08,0.49C26.96,9.1,26.89,8.64,26.68,8.41z"/>
	<path class="st35" d="M19.49,11.99c0.55,0.42,1.1,0.84,1.64,1.26c0.04,0.19,0.02,0.32-0.23,0.2
		C20.31,13.09,19.55,12.88,19.49,11.99z"/>
	<path class="st36" d="M20.9,13.46c0.08-0.07,0.15-0.14,0.23-0.2c0.08,0,0.17,0.01,0.25,0.01c0.61,0.11,1.23,0.2,1.69,0.68
		c0.01,0.08,0,0.15-0.01,0.23C22.28,14.1,21.55,13.91,20.9,13.46z"/>
	<path class="st37" d="M23.07,13.95c-0.57-0.22-1.21-0.24-1.69-0.68c0.47-0.5,0.87,0.02,1.28,0.12c2.54,0.61,4.75-1.14,4.22-4.17
		c-0.05-0.27-0.13-0.54-0.2-0.8c0.22,0.16,0.44,0.33,0.66,0.49c0.49,0.52,0.27,1.08,0.08,1.86c0.36-1.04,0.11-1.92,0.24-2.75
		c0.08-0.19,0.19-0.34,0.43-0.3c0.1,0.31,0.2,0.63,0.3,0.94c-0.06,0.71-0.05,1.42-0.27,2.11C27.41,13.02,26.06,13.89,23.07,13.95z"
		/>
	<path class="st38" d="M28.08,7.71C28,7.8,27.92,7.88,27.84,7.97C27.56,8,27.46,7.79,27.33,7.61c-0.63-1.15-1.66-1.93-2.61-2.78
		c0.08-0.07,0.16-0.15,0.25-0.22C26.41,5.24,27.57,6.15,28.08,7.71z"/>
	<path class="st39" d="M10.1,7.49c1.44,0.29,2.85,0.64,3.81,1.9c0.76,2.78-0.29,4.93-2.37,6.71c-1.14,0.61-2.35,0.86-3.63,0.76
		c-0.84,0.15-1.32-0.54-1.96-0.85c-0.54-1.13-1.58-1.98-1.67-3.36C4.09,9.6,6.08,7.47,9.15,7.52C9.47,7.52,9.78,7.5,10.1,7.49z"/>
	<path class="st40" d="M5.95,16.01c0.65,0.28,1.31,0.57,1.96,0.85C6.91,17.38,6.51,16.52,5.95,16.01z"/>
	<path class="st41" d="M18.77,23.71c0.23-0.02,0.45-0.04,0.68-0.06c0.22,0.18,0.47,0.34,0.55,0.64c-0.01,0.22-0.01,0.44-0.02,0.66
		c-0.51,1.39-0.78,1.53-1.96,0.99C17.17,24.64,17.3,24.27,18.77,23.71z"/>
	<path class="st42" d="M23.78,12.32c-1.66-0.03-3.55-1.37-4.04-2.85c-0.1-0.29-0.23-0.59-0.11-0.93c0.45-1.27,1.56-1.78,2.68-2.16
		c0.85-0.29,1.62,0.14,2.23,0.8c1.4,1.51,1.61,3.51,0.52,4.59C24.67,12.16,24.23,12.35,23.78,12.32z"/>
	<path class="st43" d="M24.72,4.83c1.12,0.71,2.17,1.48,2.85,2.66c-0.2,0.3,0.17,0.72-0.23,0.97c-1.23-2.12-1.23-2.12-3.4-3.73
		C24.24,4.55,24.46,4.9,24.72,4.83z"/>
	<path class="st44" d="M27.35,8.46c0.1-0.32-0.1-0.71,0.23-0.97c0.09,0.16,0.18,0.32,0.27,0.48c0.02,0.95,0.18,1.91-0.39,3.01
		c-0.05-0.82-0.08-1.45-0.11-2.07C27.34,8.76,27.34,8.61,27.35,8.46z"/>
	<path class="st45" d="M6.92,12.17c0.1-1.15,0.43-2.36,1.67-2.96c1.17-0.56,2.32-0.14,3.4,0.42c0.49,0.25,0.71,0.7,0.71,1.28
		c0,1.22-0.46,2.26-1.27,3.12c-0.75,0.79-1.58,1.5-2.81,1.02C7.53,14.62,6.94,13.67,6.92,12.17z"/>
	<path class="st46" d="M4.8,13.24c-0.52-1.52,0.06-3.3,1.57-4.46c-0.73,1.4-0.84,2.93-1.06,4.44C5.15,13.5,4.94,12.49,4.8,13.24z"/>
	<path class="st47" d="M4.8,13.24c0.04-0.18,0.08-0.36,0.11-0.54c0.13,0.17,0.26,0.35,0.4,0.52c0.3,0.67,0.6,1.34,0.9,2.01
		C5.46,14.76,5.04,14.07,4.8,13.24z"/>
	<path class="st48" d="M18.93,24.99c0.35-0.04,0.51,0.05,0.5,0.29c-0.01,0.3-0.18,0.51-0.46,0.6c-0.21,0.07-0.41-0.01-0.43-0.24
		C18.5,25.29,18.77,25.12,18.93,24.99z"/>
</g>
</svg>
