<?xml version="1.0" encoding="utf-8"?>
<!-- Generator: Adobe Illustrator 23.0.2, SVG Export Plug-In . SVG Version: 6.00 Build 0)  -->
<svg version="1.1" id="Camada_1" xmlns="http://www.w3.org/2000/svg" xmlns:xlink="http://www.w3.org/1999/xlink" x="0px" y="0px"
	 viewBox="0 0 31.47 32.43" style="enable-background:new 0 0 31.47 32.43;" xml:space="preserve">
<style type="text/css">
	.st0{fill:#100C0F;}
	.st1{fill:#040304;}
	.st2{fill:#222227;}
	.st3{fill:#3A4055;}
	.st4{fill:#C9E6E4;}
	.st5{fill:#666B7D;}
	.st6{fill:#72778B;}
	.st7{fill:#606575;}
	.st8{fill:#3A425E;}
	.st9{fill:#1E1F22;}
	.st10{fill:#D7F0EF;}
	.st11{fill:#E1F2F2;}
	.st12{fill:#171719;}
	.st13{fill:#181A32;}
	.st14{fill:#D5EBEB;}
	.st15{fill:#CDE3E5;}
	.st16{fill:#BCCED2;}
	.st17{fill:#171A33;}
	.st18{fill:#CDE7E7;}
	.st19{fill:#20233B;}
	.st20{fill:#252841;}
	.st21{fill:#C8E0E1;}
	.st22{fill:#E5F6F6;}
	.st23{fill:#1E2039;}
	.st24{fill:#181933;}
	.st25{fill:#1F223A;}
	.st26{fill:#B9D4D5;}
	.st27{fill:#1A1B35;}
	.st28{fill:#21233B;}
</style>
<g>
	<path class="st0" d="M26.89,2.93c1.61,0.97,2.34,2.53,2.38,4.27c0.1,4.99,0.05,9.99,0.03,14.98c-0.01,1.66-0.88,2.49-2.54,2.5
		c-2.55,0.02-5.1,0.01-7.66,0.01c-0.06,0.59,0.42,0.57,0.69,0.72c1.78,1.02,1.86,2.7,0.06,3.71c-2.79,1.56-5.67,1.38-8.5,0.08
		c-0.88-0.4-1.44-1.15-1.35-2.2c0.09-1.05,0.86-1.45,1.73-1.74c0.25-0.08,0.57-0.04,0.75-0.56c-1.67,0-3.27,0-4.88,0
		c-0.64,0-1.28,0.03-1.92,0c-1.68-0.07-3.29-1.7-3.29-3.36c0-5.43,0.02-10.87,0.02-16.3c0-0.97,0.33-1.7,1.19-2.16
		c4.42-0.46,8.85-0.12,13.27-0.2c2.59-0.05,5.19,0,7.79-0.02C25.42,2.64,26.16,2.7,26.89,2.93z"/>
	<path class="st1" d="M26.89,2.93c-7.08-0.01-14.17,0-21.25-0.07C4.96,2.85,4.27,3.41,3.6,2.87c0.15-0.25,0.38-0.28,0.63-0.25
		c0.19-0.08,0.39-0.08,0.59-0.08c7.03,0,14.06,0,21.09,0c0.2,0,0.4,0,0.59,0.08C26.63,2.72,26.76,2.83,26.89,2.93z"/>
	<path class="st0" d="M26.5,2.62c-7.42,0-14.84,0-22.26,0c0.6-0.28,1.25-0.19,1.87-0.19c6.3-0.03,12.6-0.04,18.9-0.05
		C25.51,2.37,26.05,2.26,26.5,2.62z"/>
	<path class="st2" d="M3.62,13.04c0-2.48-0.01-4.96,0-7.44c0-1.29,0.44-1.74,1.71-1.75c1.8-0.01,3.6-0.05,5.4,0
		c4.63,0.15,9.25-0.34,13.89-0.25c1.72,0.03,3.2,1.26,3.22,3.01c0.06,5.24,0.02,10.48,0.03,15.71c0,0.85-0.47,0.97-1.16,0.97
		c-2.48-0.02-4.96-0.02-7.44,0c-0.52,0-1.19-0.24-1.44,0.5c-0.27,0.79-0.31,1.57,0.39,2.2c0.2,0.18,0.44,0.34,0.68,0.48
		c1.16,0.68,1.2,1.05,0.01,1.63c-2.25,1.1-4.54,0.96-6.81,0.01c-0.37-0.16-0.75-0.4-0.75-0.85c-0.01-0.56,0.51-0.66,0.91-0.82
		c0.67-0.27,1.51-0.23,1.47-1.36c-0.05-1.38-0.36-1.78-1.77-1.79c-1.92-0.01-3.84,0-5.76,0c-1.58,0-2.55-0.95-2.57-2.58
		C3.6,18.16,3.62,15.6,3.62,13.04z"/>
	<path class="st3" d="M25.69,21.13c-4.72,0-9.45,0-14.23,0c0.2-0.88,1.3-1.08,1.26-2c-0.04-0.43,0.29-0.66,0.49-0.97
		c0.68-0.71,1.38-1.39,2.08-2.08c0.39-0.36,0.7-0.8,1.17-1.07c0.25-0.15,0.62-0.17,0.62-0.57c-0.66,0.54-1.3,1.07-1.86,1.69
		c-0.63,0.64-1.27,1.27-1.91,1.91c-0.25,0.19-0.39,0.52-0.73,0.6c-0.63,0.36-1.18,0.79-1.37,1.54c-0.01,0.31-0.42,0.44-0.37,0.79
		c-0.74,0.32-1.47,0.21-2.2-0.08c-0.08-0.37,0.16-0.5,0.44-0.6c1.51-0.77,2.51-2.07,3.53-3.36c0.74-1.23,1.92-2.05,2.85-3.1
		c0.4-0.36,0.74-0.81,1.27-1c1.57-1.11,2.77-2.6,4.12-3.94c0.9-0.88,1.94-1.65,2.57-2.79c0.47-0.79,1.09-1.39,2.04-1.54
		c0.08,0.08,0.16,0.17,0.24,0.25c0.38,0.52,0.34,1.13,0.34,1.72c0.01,4.34,0.01,8.67,0,13.01C26.03,20.09,26.15,20.67,25.69,21.13z"
		/>
	<path class="st3" d="M9.85,4.54c0.99-0.45,2.05-0.26,3.04-0.17c3.18,0.31,6.34,0.29,9.52,0.01c0.63-0.06,1.27,0,1.91,0
		c-0.06,0.42-0.4,0.49-0.72,0.58c-1.67,0.91-2.83,2.36-4,3.8c-0.25,0.57-0.65,0.99-1.24,1.23c-0.74,0.45-1.43,0.95-1.66,1.86
		c-0.34,0.79-0.94,1.34-1.69,1.74c-0.76,0.33-1.23,1-1.78,1.57c-1.63,1.69-3.44,3.2-4.89,5.05c-0.13,0.43-0.46,0.68-0.83,0.88
		c-0.24,0.01-0.48,0.03-0.72,0.03c-2.41,0.03-2.57-0.16-2.34-2.63c0.05-0.55,0.14-1.11,0.09-1.66c-0.09-1.17,0.06-2.22,1.12-2.94
		c0.15-0.1,0.32-0.28,0.05-0.46c0.16-0.92,0.88-1.33,1.58-1.78c0.6-0.23,1.01-0.64,1.23-1.24C8.76,9.68,9.66,9.4,9.77,8.59
		c0.02-0.28-0.05-0.55-0.02-0.83c0.71-1.21,1.76-2.07,2.74-2.87C11.76,4.64,10.71,5.24,9.85,4.54z"/>
	<path class="st4" d="M4.58,12.02C4.36,10.87,4.36,9.8,5.55,9.13c1.13-0.96,2.08-2.1,3.06-3.18c1.04-1.14,2.18-1.5,3.61-1.17
		c0.16,0.3-0.06,0.46-0.22,0.62c-2.07,2.05-3.95,4.29-6.09,6.26C5.56,11.99,5.22,12.7,4.58,12.02z"/>
	<path class="st3" d="M6.25,8.17C5.48,8.1,5.37,9.04,4.58,9.22c0-1.47,0-2.9,0-4.34c0-0.33,0.19-0.55,0.51-0.51
		c1.35,0.14,2.73,0.02,4.05,0.45C8.88,5.67,7.89,6,7.66,6.88C7.28,7.41,7.06,8.11,6.25,8.17z"/>
	<path class="st5" d="M26.21,5.35c0.84,0.12,0.94,0.79,0.94,1.41c0.02,4.89,0.01,9.78,0.01,14.67c0,0.32,0.06,0.74-0.47,0.37
		c-0.33-0.1-0.48-0.35-0.55-0.66c-0.13-5.12-0.01-10.25-0.06-15.37C26.06,5.61,26.11,5.47,26.21,5.35z"/>
	<path class="st6" d="M5.35,22.53c-0.12-0.15-0.36-0.31-0.35-0.46c0.01-0.38,0.36-0.2,0.55-0.2c6.45,0.03,12.91-0.13,19.49,0.32
		c-1.12,0.3-2.2-0.13-3.17,0.36c-0.41,0.25-0.85,0.12-1.28,0.08c-4.94,0.01-9.87-0.1-14.81-0.05C5.63,22.62,5.48,22.6,5.35,22.53z"
		/>
	<path class="st7" d="M16.55,28.06c-1.54,0.02-3.12,0.19-4.65-0.99c1.14-0.21,2.06-0.43,2.54-1.37c0.08-0.14,0.1-0.3,0.1-0.46
		c-0.01-0.45-0.04-0.91,0.58-0.98c0.57-0.07,0.98,0.21,1.03,0.74C16.24,26.03,17.19,26.95,16.55,28.06z"/>
	<path class="st8" d="M16.55,28.06c0.02-1.13-0.7-2.1-0.74-3.22c-0.01-0.3-0.31-0.32-0.55-0.33c-0.3-0.01-0.56,0.03-0.6,0.41
		c-0.03,0.27,0.03,0.57-0.22,0.78c-0.05-0.78,0.09-1.58-0.4-2.41c0.54,0,0.98,0.03,1.41-0.01c1.08-0.09,1.78-0.09,1.45,1.46
		c-0.28,1.28,0.79,2.05,2.07,2.47C18.19,27.92,17.37,27.98,16.55,28.06z"/>
	<path class="st9" d="M26.38,21.36c0.1,0.15,0.2,0.29,0.3,0.44c-0.58,0.14-0.87-0.15-0.99-0.67c0-5.44,0-10.87,0-16.31
		c0.05-0.09,0.1-0.19,0.14-0.28c0.26,0.21,0.31,0.51,0.37,0.81c0.01,0.04,0.01,0.09,0,0.13c0.21,1.19,0.08,2.38,0.08,3.57
		c0.02,3.71,0.01,7.42,0.01,11.13C26.3,20.57,26.22,20.98,26.38,21.36z"/>
	<path class="st10" d="M7.52,21.1c0.23-0.3,0.46-0.61,0.68-0.91c1.99-2.26,4.14-4.36,6.35-6.39c0.34,0.15,0.82-0.48,1.08,0.18
		c-0.97,1.02-1.94,2.05-2.91,3.07c-1.11,1.21-2.1,2.56-3.58,3.38c-0.17,0.15-0.34,0.31-0.51,0.46C8.29,21.11,7.91,21.14,7.52,21.1z"
		/>
	<path class="st11" d="M6.25,8.17c0.52-0.36,0.9-0.86,1.21-1.4c0.56-0.75,1.14-1.48,2-1.92c0.13-0.1,0.26-0.2,0.39-0.3
		c1.02,0,2.03,0,3.05,0c0.09,0.13,0.18,0.26,0.28,0.39c-1.11,1-2.22,2-3.33,3c-1.24,2.13-3,3.74-5.02,5.09
		c-0.58-0.21-0.21-0.66-0.24-1.01c0.22,0.1,0.43,0.18,0.65-0.05c2.31-2.31,4.62-4.61,7.03-7.02c-1.32-0.32-2.24-0.12-3.04,0.83
		C8.4,6.75,7.43,7.61,6.52,8.51C6.25,8.78,6.02,9.15,5.55,9.13C5.6,8.68,6.1,8.55,6.25,8.17z"/>
	<path class="st12" d="M5.35,22.53c0.05-0.01,0.1,0,0.15,0.02c1.23-0.21,2.47-0.08,3.7-0.09c3.44-0.02,6.88-0.01,10.32,0
		c0.39,0,0.8-0.08,1.18,0.09c0.39,0,0.78,0,1.17,0c-0.06,0.05-0.12,0.16-0.17,0.16c-2.65-0.1-5.26,0.51-7.95,0.21
		c-2.44-0.27-4.94-0.09-7.41-0.11c-0.35,0-0.69-0.05-1.04-0.08c-0.01,0-0.03-0.07-0.02-0.1C5.29,22.6,5.33,22.56,5.35,22.53z"/>
	<path class="st13" d="M4.82,13.02c1.67-1.7,3.35-3.4,5.02-5.09c0.29,0.18,0.25,0.47,0.25,0.74c-0.51,0.77-1.33,1.26-1.81,2.06
		C7.11,11.7,6.14,12.91,4.8,13.7C4.45,13.46,4.72,13.25,4.82,13.02z"/>
	<path class="st14" d="M23.52,4.8c0.26-0.14,0.53-0.28,0.79-0.42c0.36,0.18,0.82-0.28,1.13,0.18c-0.73,0.46-1.35,1.05-1.91,1.69
		c-0.11,0.21-0.26,0.37-0.53,0.35c-0.16-0.07-0.32-0.26-0.19-0.35c0.54-0.37-0.14-0.47-0.12-0.71C22.75,5.05,23.17,4.97,23.52,4.8z"
		/>
	<path class="st15" d="M4.8,13.7c1.11-1.08,2.23-2.16,3.34-3.24c0.1,0.07,0.16,0.17,0.18,0.29c-0.08,0.52-0.47,0.77-0.87,1.02
		c-0.57,0.56-1.15,1.11-1.72,1.67C5.4,13.45,5.28,14.2,4.8,13.7z"/>
	<path class="st16" d="M10.83,20.97c-0.62-0.42,0.25-0.51,0.18-0.81c0.24-0.78,0.87-1.21,1.5-1.63c0.23-0.18,0.46-0.35,0.69-0.53
		c0.1,0.13,0.11,0.26,0.02,0.4c-0.17,0.25-0.34,0.49-0.51,0.74C12.09,19.74,11.46,20.36,10.83,20.97z"/>
	<path class="st17" d="M9.46,4.84c-0.67,0.64-1.33,1.28-2,1.92c0.22-0.94,1.03-1.38,1.68-1.95C9.25,4.82,9.35,4.83,9.46,4.84z"/>
	<path class="st18" d="M22.82,5.55c0.5,0.2,0.05,0.68,0.28,0.96c0.02,0.08,0.04,0.17-0.01,0.23c-2.04,2.12-4.05,4.28-6.28,6.21
		c-0.39,0.34-0.78,0.69-1.16,1.03c-0.32-0.36-0.69,0.38-1.01-0.05c-0.09-0.27,0.07-0.37,0.28-0.44c0.62-0.5,1.15-1.08,1.63-1.72
		c0.32-0.86,1.02-1.38,1.74-1.86c0.48-0.33,0.86-0.76,1.19-1.23C20.51,7.54,21.38,6.24,22.82,5.55z"/>
	<path class="st19" d="M16.8,12.95c2.1-2.15,4.2-4.29,6.3-6.44c0.15-0.09,0.29-0.17,0.44-0.26c0.26,0.22,0.01,0.35-0.1,0.47
		c-2.02,2.03-4.05,4.06-6.08,6.07C17.22,12.93,17.09,13.27,16.8,12.95z"/>
	<path class="st20" d="M9.14,20.43c1.19-1.13,2.39-2.25,3.58-3.38c0.33,0.36-0.1,0.47-0.25,0.62c-0.85,0.88-1.72,1.73-2.59,2.58
		C9.69,20.44,9.5,20.85,9.14,20.43z"/>
	<path class="st21" d="M15.09,16.07c0.79-0.74,1.25-1.86,2.44-2.14c0,0.66-0.54,0.88-0.98,1.17c-0.38,0.33-0.76,0.67-1.14,1
		C15.3,16.22,15.19,16.21,15.09,16.07z"/>
	<path class="st22" d="M15.09,16.07c0.11,0.01,0.22,0.02,0.32,0.03c-0.73,0.76-1.46,1.52-2.19,2.29c-0.01-0.13-0.01-0.27-0.02-0.4
		C13.77,17.29,14.39,16.64,15.09,16.07z"/>
	<path class="st23" d="M12.52,18.53c-0.5,0.54-1,1.09-1.5,1.63C11.04,19.18,11.68,18.76,12.52,18.53z"/>
	<path class="st24" d="M16.56,15.1c0.33-0.39,0.65-0.78,0.98-1.17C17.73,14.76,17.22,15,16.56,15.1z"/>
	<path class="st25" d="M14.91,13.48c-0.09,0.15-0.19,0.29-0.28,0.44c-2.14,2.09-4.29,4.18-6.43,6.26C7.92,20,8.13,19.85,8.25,19.73
		c2.06-2.06,4.12-4.13,6.19-6.18C14.57,13.41,14.72,13.21,14.91,13.48z"/>
	<path class="st2" d="M22.82,5.55c-1.11,1.04-2.23,2.08-3.34,3.12c-0.12-0.06-0.19-0.18-0.09-0.27c1.17-1.17,2.34-2.34,3.53-3.48
		c0.13-0.12,0.36-0.36,0.61-0.11C23.29,5.05,23.05,5.3,22.82,5.55z"/>
	<path class="st26" d="M8.19,10.85c-0.02-0.13-0.03-0.26-0.05-0.39c0.65-0.6,1.3-1.19,1.95-1.79C10.01,9.61,9,9.84,8.63,10.56
		C8.55,10.77,8.45,10.93,8.19,10.85z"/>
	<path class="st27" d="M18.28,9.9c-0.58,0.62-1.16,1.24-1.74,1.86C16.64,10.69,17.35,10.19,18.28,9.9z"/>
	<path class="st28" d="M8.19,10.85c0.15-0.1,0.29-0.19,0.44-0.29c-0.21,0.76-0.4,0.95-1.18,1.2C7.7,11.46,7.94,11.15,8.19,10.85z"/>
	<path class="st2" d="M26.38,21.36c-0.24-0.21-0.21-0.5-0.21-0.78c0.01-5.04,0.02-10.07,0.02-15.11c0.26,0.35,0.21,0.76,0.21,1.15
		C26.4,11.54,26.39,16.45,26.38,21.36z"/>
	<path class="st2" d="M20.7,22.55c-5.07,0-10.14,0-15.21,0c0.24-0.19,0.52-0.17,0.8-0.17c4.54,0,9.07,0,13.61,0.01
		C20.17,22.4,20.43,22.5,20.7,22.55z"/>
</g>
</svg>
