<?xml version="1.0" encoding="utf-8"?>
<!-- Generator: Adobe Illustrator 23.0.2, SVG Export Plug-In . SVG Version: 6.00 Build 0)  -->
<svg version="1.1" id="Camada_1" xmlns="http://www.w3.org/2000/svg" xmlns:xlink="http://www.w3.org/1999/xlink" x="0px" y="0px"
	 viewBox="0 0 30.52 31.56" style="enable-background:new 0 0 30.52 31.56;" xml:space="preserve">
<style type="text/css">
	.st0{fill:#FDFDFD;}
	.st1{fill:#0F0C0E;}
	.st2{fill:#212226;}
	.st3{fill:#3A4055;}
	.st4{fill:#CCE7E6;}
	.st5{fill:#D0EAE9;}
	.st6{fill:#676C7E;}
	.st7{fill:#3B4156;}
	.st8{fill:#666B7D;}
	.st9{fill:#606575;}
	.st10{fill:#3A425E;}
	.st11{fill:#20223B;}
	.st12{fill:#C8DFE1;}
	.st13{fill:#BCCED2;}
	.st14{fill:#D7EBEB;}
	.st15{fill:#181933;}
	.st16{fill:#1C1E37;}
	.st17{fill:#1A1B35;}
</style>
<g>
	<path class="st0" d="M0.01,13.22c0-3.2-0.01-5.8,0-8.4C0.03,2.09,1.5,0.53,4.25,0.36C5.4,0.29,6.57,0.25,7.72,0.28
		C12.96,0.44,18.18,0.06,23.41,0c3.8-0.04,5.63,2.22,6.57,4.86c0.38,1.09,0.54,2.22,0.53,3.41c-0.05,4.32,0.09,8.64-0.06,12.96
		c-0.11,3.24-1.5,4.9-4.78,4.81c-0.4-0.01-0.8,0-1.2,0c-0.72,0-1.55-0.22-2.13,0.07c-0.56,0.28-0.14,1.2-0.36,1.83
		c-0.28,0.79-0.7,1.42-1.35,1.91c-3.04,2.26-7.74,2.17-10.92,0.41c-1.44-0.8-2.23-2.06-2.11-3.73c0.05-0.7-0.35-0.47-0.65-0.49
		c-1.03-0.07-2.07,0.08-3.1-0.19c-1.85-0.5-3.39-2.07-3.63-4.01C-0.15,18.78,0.07,15.7,0.01,13.22z"/>
	<path class="st1" d="M11.94,24.3c-2.29,0-4.36,0-6.42,0c-2.39,0-3.79-1.5-3.77-3.93c0.02-5.15,0-10.31,0-15.46
		c0-1.88,0.79-2.8,2.62-2.81c6.83-0.06,13.66-0.07,20.5-0.11c0.73,0,1.32,0.28,1.81,0.79c1.21,1.25,1.96,2.69,1.95,4.48
		c-0.02,4.71,0,9.43-0.01,14.14c0,2.13-0.76,2.89-2.88,2.9c-2.45,0-4.9,0-7.41,0c0.16,0.64,0.64,0.62,0.95,0.82
		c1.51,0.93,1.58,2.48,0.12,3.48c-2.1,1.44-4.45,1.33-6.81,0.94c-0.75-0.13-1.47-0.38-2.11-0.82c-0.77-0.53-1.28-1.19-1.15-2.2
		c0.12-0.94,0.8-1.32,1.58-1.61C11.19,24.81,11.53,24.81,11.94,24.3z"/>
	<path class="st2" d="M2.94,12.72c0-2.48,0-4.96,0-7.44c0-1.38,0.42-1.8,1.76-1.81c1.68-0.01,3.36-0.05,5.04,0
		c4.71,0.15,9.41-0.33,14.12-0.25c1.9,0.03,3.3,1.36,3.31,3.3c0.02,5.08-0.01,10.15,0.02,15.23c0,0.9-0.35,1.18-1.21,1.17
		c-2.48-0.04-4.96-0.02-7.44-0.01c-0.49,0-1.17-0.22-1.36,0.43c-0.2,0.7-0.4,1.5,0.23,2.14c0.19,0.2,0.42,0.37,0.64,0.53
		c0.38,0.26,1.07,0.34,1.02,0.87c-0.05,0.52-0.64,0.78-1.12,0.98c-2.05,0.85-4.12,0.74-6.17,0.04c-0.5-0.17-1.16-0.41-1.11-1.09
		c0.05-0.63,0.71-0.65,1.18-0.84c0.53-0.21,1.15-0.25,1.18-1.1c0.05-1.47-0.34-1.96-1.83-1.97c-1.88-0.01-3.76,0-5.64,0
		c-1.64,0-2.62-0.96-2.63-2.64C2.92,17.76,2.94,15.24,2.94,12.72z"/>
	<path class="st3" d="M23.11,5.92c0.76-0.18,1.04-0.97,1.68-1.31c0.3,0.05,0.22,0.28,0.22,0.46c0,4.88,0,9.76,0,14.64
		c0,0.53,0.08,1.04-0.74,1.04c-4.47-0.02-8.94-0.01-13.48-0.01c0.18-0.88,1.3-1.08,1.25-2c-0.04-0.43,0.29-0.67,0.5-0.97
		c1.06-1.04,2.04-2.16,3.19-3.12c0.35-0.13,0.7-0.27,0.75-0.69c-1.4,1.14-2.6,2.47-3.88,3.72c-0.72,1.05-1.91,1.7-2.44,2.9
		c-0.74,0.32-1.47,0.21-2.19-0.08c-0.1-0.27,0.04-0.48,0.22-0.63c2.51-2.17,4.71-4.65,7.1-6.94c0.2-0.19,0.42-0.37,0.69-0.46
		c0.49-0.14,0.78-0.53,1.11-0.87c1.63-1.63,3.25-3.26,4.89-4.88C22.31,6.4,22.58,5.96,23.11,5.92z"/>
	<path class="st3" d="M8.97,8.58C8.89,8.21,9.69,8.01,9.17,7.55c-0.07-0.77,0.61-1.06,1-1.53c0.43-0.51,0.97-0.92,1.41-1.45
		c-0.8-0.29-1.71,0.25-2.4-0.42c0.99-0.43,2.05-0.26,3.05-0.16C15.39,4.3,18.55,4.28,21.73,4c0.63-0.06,1.27,0,1.91,0
		c-0.05,0.42-0.38,0.48-0.7,0.57c-0.69,0.16-1.15,0.57-1.41,1.23c-1.09,1.45-2.33,2.73-3.8,3.8c-0.78,0.44-1.46,0.96-1.7,1.88
		c-0.34,0.79-0.94,1.34-1.69,1.73c-1.63,1.26-3.07,2.69-4.31,4.33c-0.87,1.25-1.94,2.31-3.19,3.18C6.55,20.73,6.27,20.75,6,20.75
		c-2.14,0.02-2.54-0.46-2.23-2.63c0.08-0.55,0.15-1.11,0.11-1.66c-0.09-1.17,0.05-2.22,1.12-2.94c0.15-0.1,0.33-0.28,0.06-0.47
		c0.02-0.66,0.65-0.85,0.99-1.26C6.96,10.67,8.26,9.89,8.97,8.58z"/>
	<path class="st4" d="M9.17,4.15c1.02,0,2.04,0,3.06,0c0.09,0.12,0.17,0.25,0.26,0.37c-1.11,1.01-2.21,2.02-3.32,3.03
		c-1.68,1.72-3.35,3.43-5.17,5.3c-0.44-2.04-0.23-3.63,1.34-4.82C5.69,7.4,6.07,6.77,6.8,6.48C7.59,5.7,8.38,4.93,9.17,4.15z"/>
	<path class="st5" d="M22.84,4.42c0.26-0.14,0.53-0.28,0.79-0.42c0.35,0,0.69,0,1.26,0c-0.7,0.61-1.25,1.11-1.81,1.6
		c-2.18,2.46-4.51,4.77-6.96,6.97c-2.72,2.65-5.44,5.29-8.16,7.94c-0.35,0.22-0.73,0.25-1.13,0.21c0.86-1.27,2.19-2.09,3.12-3.29
		c1.25-1.62,2.73-3.01,4.28-4.33c0.63-0.49,1.16-1.08,1.63-1.72c0.32-0.87,1.01-1.38,1.74-1.86c1.29-1.28,2.58-2.57,3.87-3.85
		C21.73,5.03,22.23,4.66,22.84,4.42z"/>
	<path class="st6" d="M25.6,21.81c-7,0.4-13.99,0.44-20.99,0.22c-0.18-0.01-0.34-0.21-0.29-0.56C11.41,21.48,18.51,21.45,25.6,21.81
		z"/>
	<path class="st7" d="M6.8,6.48C6.31,7,5.82,7.52,5.33,8.03C4.62,7.83,4.62,8.76,3.9,8.81c0-1.43-0.01-2.86,0.01-4.3
		c0.01-0.59,0.47-0.53,0.87-0.54c1.18-0.02,2.31,0.35,3.56,0.21C8.01,5.19,6.79,5.42,6.8,6.48z"/>
	<path class="st8" d="M26.48,21.62c-0.61-0.27-0.77-0.64-0.77-1.11c0-5.16,0-10.32,0-15.65c0.53,0.5,0.77,0.96,0.77,1.55
		C26.48,11.43,26.48,16.46,26.48,21.62z"/>
	<path class="st9" d="M15.87,27.68c-1.54,0.02-3.12,0.19-4.65-0.99c1.14-0.21,2.06-0.43,2.54-1.37c0.08-0.14,0.1-0.3,0.1-0.46
		c-0.01-0.45-0.04-0.91,0.58-0.98c0.57-0.07,0.98,0.21,1.03,0.74C15.56,25.65,16.5,26.57,15.87,27.68z"/>
	<path class="st10" d="M15.87,27.68c0.02-1.13-0.7-2.1-0.74-3.22c-0.01-0.3-0.31-0.32-0.55-0.33c-0.3-0.01-0.56,0.03-0.6,0.41
		c-0.03,0.27,0.03,0.57-0.22,0.78c-0.07-0.77,0.15-1.59-0.46-2.41c0.52,0,0.87,0,1.22,0c1.64,0,1.61,0,1.64,1.54
		c0.03,1.3,1.06,1.85,2.06,2.46C17.51,27.53,16.69,27.61,15.87,27.68z"/>
	<path class="st11" d="M16.12,12.57c2.22-2.42,4.52-4.76,6.96-6.97c0.01,0.11,0.02,0.22,0.03,0.32c-2.15,2.17-4.29,4.34-6.44,6.5
		C16.53,12.56,16.4,12.89,16.12,12.57z"/>
	<path class="st12" d="M8.97,8.58c0.78,0.03,0.18,0.33,0.07,0.45c-1.32,1.35-2.66,2.68-3.99,4.02c-0.36,0.3-0.72,0.6-1.08,0.9
		c-0.08-0.08-0.17-0.16-0.25-0.25C5.47,12,7.22,10.29,8.97,8.58z"/>
	<path class="st13" d="M12.55,18.02c-0.17,0.24-0.34,0.49-0.51,0.73c-0.63,0.61-1.26,1.23-1.89,1.84c-0.43-0.08-0.25-0.28-0.08-0.46
		c0.81-0.84,1.63-1.68,2.45-2.52C12.63,17.74,12.64,17.87,12.55,18.02z"/>
	<path class="st14" d="M12.55,18.02c-0.01-0.14-0.02-0.27-0.03-0.41c1.37-1.41,2.73-2.82,4.1-4.22c0.04-0.04,0.15-0.04,0.19-0.01
		c0.05,0.04,0.06,0.13,0.08,0.2c-0.09,0.61-0.55,0.88-1.02,1.15C14.77,15.82,13.66,16.92,12.55,18.02z"/>
	<path class="st15" d="M15.87,14.72c0.34-0.38,0.68-0.76,1.02-1.15C16.99,14.34,16.57,14.65,15.87,14.72z"/>
	<path class="st16" d="M14.23,13.1c-1.34,1.53-2.78,2.96-4.28,4.33c-0.27-0.17-0.12-0.33,0.02-0.47c1.29-1.3,2.59-2.59,3.88-3.88
		C13.98,12.95,14.12,12.91,14.23,13.1z"/>
	<path class="st17" d="M17.6,9.52c-0.58,0.62-1.16,1.24-1.74,1.86C15.96,10.31,16.67,9.81,17.6,9.52z"/>
	<path class="st2" d="M22.84,4.42c-0.46,0.42-0.91,0.83-1.37,1.25C21.55,4.83,22.04,4.46,22.84,4.42z"/>
</g>
</svg>
