<?xml version="1.0" encoding="utf-8"?>
<!-- Generator: Adobe Illustrator 23.0.2, SVG Export Plug-In . SVG Version: 6.00 Build 0)  -->
<svg version="1.1" id="Camada_1" xmlns="http://www.w3.org/2000/svg" xmlns:xlink="http://www.w3.org/1999/xlink" x="0px" y="0px"
	 viewBox="0 0 33.36 45.12" style="enable-background:new 0 0 33.36 45.12;" xml:space="preserve">
<style type="text/css">
	.st0{fill:#010101;}
	.st1{fill:#365F67;}
	.st2{fill:#493627;}
	.st3{fill:#285D6B;}
	.st4{fill:#DEAA34;}
	.st5{fill:#79471A;}
	.st6{fill:#644122;}
	.st7{fill:#D1862A;}
	.st8{fill:#3D1811;}
	.st9{fill:#315856;}
	.st10{fill:#BA7522;}
	.st11{fill:#D07F44;}
	.st12{fill:#885320;}
	.st13{fill:#7A4D25;}
	.st14{fill:#BA6B0B;}
	.st15{fill:#9C4600;}
	.st16{fill:#E6B73D;}
	.st17{fill:#357B93;}
	.st18{fill:#462115;}
	.st19{fill:#EFD4B7;}
	.st20{fill:#A2C9BF;}
	.st21{fill:#EFD6B8;}
	.st22{fill:#A7CEC7;}
	.st23{fill:#A46E35;}
	.st24{fill:#8F612F;}
	.st25{fill:#AA6418;}
	.st26{fill:#784D27;}
	.st27{fill:#DFA44C;}
	.st28{fill:#7A5733;}
	.st29{fill:#AC783D;}
	.st30{fill:#9DC5B9;}
	.st31{fill:#F9F4E9;}
	.st32{fill:#F1E7CE;}
	.st33{fill:#B1D3D4;}
	.st34{fill:#C4E1EF;}
	.st35{fill:#E5D7BD;}
	.st36{fill:#D6E5E6;}
	.st37{fill:#E8C141;}
	.st38{fill:#F8F0E6;}
	.st39{fill:#D5884F;}
	.st40{fill:#F0DC72;}
	.st41{fill:#D5923D;}
	.st42{fill:#B97E3B;}
	.st43{fill:#B77C3C;}
	.st44{fill:#CD8C3C;}
	.st45{fill:#DCA552;}
	.st46{fill:#F8EB98;}
	.st47{fill:#A16A1B;}
	.st48{fill:#EDC763;}
	.st49{fill:#FAEA82;}
	.st50{fill:#577573;}
	.st51{fill:#AACFC0;}
	.st52{fill:#3D6B6F;}
	.st53{fill:#E2E2E2;}
</style>
<g>
	<path class="st0" d="M12.14,13.91c-1.63-1.57-1.63-3.38-1.05-5.27c0.54-1.77,0.87-3.53,0.51-5.4c-0.2-1.04,0.63-1.76,1.49-1.3
		c2.51,1.35,4.63,3.09,5.44,6.01c0.37,1.34,0.26,2.59-0.43,3.8c-0.36,0.62-0.65,1.27-0.98,1.91c2.27,0.68,3.18,2.11,3.33,4.99
		c0.3,5.71,0.18,11.42,0.28,17.13c0.01,0.39,0,0.79,0,1.14c1.25,0.19,1.55-0.3,1.61-1.49c0.11-2.27,1.92-3.18,3.76-3.83
		c3.77-1.32,5.65,1.46,6.05,4.46c0.52,3.87-2.56,6.48-6.4,7.16c-3.56,0.63-7.1,0.23-10.63,0.75c-2.39,0.35-4.87,0.19-7.3,0.25
		c-0.86,0.02-1.37-0.61-1.9-1.11c-1.58-1.5-3.31-2.89-4.05-5.07c-0.24-0.69-0.33-1.36,0.25-1.88c0.65-0.58,1.27-0.15,1.85,0.22
		c1.34,0.84,2.8,1.27,4.35,1.53c1.02,0.17,1.35,0.06,1.32-1.1c-0.14-6.27-0.2-12.55-0.27-18.82C9.36,16.21,10.49,14.52,12.14,13.91z
		"/>
	<path class="st1" d="M19.21,19.08c0.51,5.21,0.14,10.43,0.29,15.65c0.03,1.11,0.14,2.23-0.08,3.34c-0.19,0.37-0.44,0.44-0.77,0.16
		c-0.24-0.41-0.24-0.88-0.38-1.32c-0.13-0.75-0.09-1.51-0.08-2.27c-0.02-0.44-0.02-0.87-0.01-1.31c-0.07-4.39-0.02-8.79-0.03-13.18
		c0-0.36,0.01-0.72,0.16-1.06C18.6,18.57,18.9,18.81,19.21,19.08z"/>
	<path class="st2" d="M30.24,39.21c-1.03,1.93-2.44,3.12-4.8,2.53c-0.7-0.17-0.99,0.61-1.69,0.69c-2.31,0.25-4.61,0.11-6.91,0.13
		c-0.06-0.33,0.11-0.52,0.38-0.65c1.31-0.17,2.63-0.25,3.94-0.37c1.43,0.13,2.75,0.08,3.63-1.38c0.45-0.74,0.68-1.29-0.14-1.85
		c0-0.4,0.27-0.63,0.57-0.83c1.4,0.05,1.68,0.29,1.65,1.4c-0.01,0.25-0.25,0.57,0.15,0.71c0.28,0.09,0.55-0.04,0.77-0.22
		c0.28-0.23,0.44-0.55,0.65-0.85c0.17-0.24,0.25-0.62,0.69-0.5c0.17,0.2,0.21,0.43,0.17,0.68c-0.1,0.86-0.66,1.4-1.31,1.87
		c-0.49,0.35-1.05,0.32-1.78,0.21c0.73,0.18,1.27,0.15,1.76-0.17c0.68-0.46,1.18-1.08,1.45-1.86c0.09-0.07,0.19-0.11,0.3-0.11
		C30.02,38.72,30.16,38.94,30.24,39.21z"/>
	<path class="st3" d="M11.05,38.08c-0.22-0.22-0.21-0.5-0.21-0.78c-0.08-6.45-0.16-12.9-0.25-19.36c-0.01-0.44,0.01-0.88,0.31-1.24
		c0.14-0.07,0.25-0.04,0.33,0.1c0.13,0.25,0.16,0.52,0.18,0.79c0.01,0.14,0.01,0.29,0.01,0.43c-0.02,3.61,0.05,7.23,0.04,10.84
		c0,0.72,0.07,1.43,0.19,2.13c0.02,0.94,0.01,1.87,0.03,2.81c-0.07,0.76-0.32,1.5-0.25,2.28c-0.02,0.61,0.23,1.1,0.82,1.26
		c0.48,0.13,0.79-0.21,0.95-0.66c0.19-0.47,0.38-0.94,0.65-1.37c0.55-0.66,1.12-0.7,1.64,0c0.42,0.56,0.77,0.77,1.21,0.03
		c0.18-0.3,0.47-0.42,0.76-0.07c0.01,1.26-0.25,1.6-1.37,1.84c-0.32-0.03-0.58-0.2-0.82-0.42c-0.2-0.18-0.28-0.49-0.62-0.56
		c-0.7,0.66-0.61,1.88-1.6,2.35c-0.21,0.07-0.43,0.09-0.65,0.08C11.88,38.55,11.51,38.19,11.05,38.08z"/>
	<path class="st4" d="M13.73,13.4c-1.53-0.73-2.17-2.12-1.57-3.99c0.63-1.95,0.92-3.92,0.76-5.99c2.85,0.96,5.96,5.22,3.91,7.98
		c-0.37-0.36-0.32-0.83-0.33-1.29c0.04-2.77-0.87-4.55-2.92-5.48c-0.12,1.37,0.09,2.75-0.52,4.01c-0.2,0.41,0.44,0.37,0.54,0.66
		c0.27,0.54,0.15,1.13,0.18,1.7c-0.07,0.69,0.1,1.38,0.11,2.07C13.89,13.2,13.83,13.31,13.73,13.4z"/>
	<path class="st5" d="M18.68,38.25c0.24-0.06,0.49-0.12,0.73-0.18c1.29,0.52,2.55-0.16,3.83-0.12c0.53,0.01,0.27-0.63,0.29-0.99
		c0.06-1.04-0.31-2.17,0.76-2.95c0.36,0.12,0.4,0.39,0.35,0.71c-0.06,0.23-0.14,0.46-0.22,0.69c-0.16,0.81-0.02,1.64-0.09,2.46
		c-0.04,0.36-0.16,0.66-0.5,0.85c-3.26,0.6-6.53,1.17-9.84,1.47c-0.62-0.22-0.15-0.59-0.12-0.9c0.06-0.11,0.15-0.19,0.27-0.24
		C15.65,38.71,17.14,38.35,18.68,38.25z"/>
	<path class="st6" d="M17.08,42.12c-0.08,0.15-0.16,0.3-0.24,0.45c-2.34,0.03-4.69,0.1-7.01,0.47c-2,0.32-3.38-0.63-4.48-2.16
		c0.1-0.26,0.3-0.34,0.56-0.32c0.6,0.17,0.92,0.71,1.42,1.03c1.1,0.41,2.25,0.11,3.37,0.19c0.74,0.02,1.49,0,2.23,0
		c0.92-0.02,1.85,0.09,2.77-0.08c0.19-0.04,0.38-0.04,0.58-0.01C16.58,41.76,16.88,41.85,17.08,42.12z"/>
	<path class="st7" d="M3.18,38.04c-0.1-0.21-0.19-0.42-0.29-0.63c2.19,1.2,4.54,1.66,6.95,1.86c0.34,0.27,0.75,0.18,1.13,0.22
		c0.3,0.03,0.67,0.03,0.58,0.52c-0.73,0.46-1.54,0.31-2.3,0.21c-1.71-0.23-3.42-0.53-5.02-1.24C3.69,38.88,3.45,38.45,3.18,38.04z"
		/>
	<path class="st8" d="M11.14,16.66c-0.08,0.01-0.17,0.02-0.25,0.03c0.32-1.17,1.01-1.84,2.31-1.71c0.39,0.04,0.82,0.02,0.96-0.48
		c0.13-0.47,0.02-0.85-0.43-1.1c0.03-0.04,0.05-0.08,0.07-0.12c0.09-0.22,0.13-0.44,0.13-0.68c-0.03-1.2,0.4-1.44,1.56-0.9
		c0.09,0.16,0.1,0.34,0.06,0.51c-0.05,0.11-0.12,0.18-0.23,0.22c-0.04,0.01-0.09,0-0.11,0.02c-0.5,0.52-0.35,2.17,0.23,2.66
		c0.11,0.01,0.22,0.05,0.31,0.11c0.16,0.18,0.26,0.38,0.2,0.63c-0.43,0.53-1.05,0.52-1.5,0.24c-1.12-0.69-2-0.35-2.87,0.41
		C11.45,16.63,11.31,16.69,11.14,16.66z"/>
	<path class="st9" d="M15.82,15.7c-0.06-0.15-0.12-0.3-0.18-0.45c-0.14-0.19-0.12-0.36,0.04-0.52c2.58,0.08,3.36,0.55,3.53,4.35
		c-0.22-0.08-0.44-0.16-0.67-0.25c-0.55-0.56-0.21-1.39-0.62-1.98C17.58,15.82,16.91,15.38,15.82,15.7z"/>
	<path class="st10" d="M27.89,32.55c1.6,0.06,2.63,1.25,2.89,3.32c0.12,0.4,0.26,0.8-0.39,0.83c-0.47-0.24-0.36-0.73-0.51-1.12
		c-0.13-0.64-0.39-1.21-0.87-1.66c-0.18-0.18-0.35-0.37-0.56-0.51c-0.22-0.14-0.49-0.2-0.65-0.42
		C27.74,32.82,27.74,32.67,27.89,32.55z"/>
	<path class="st11" d="M15.39,12.36c0.01-0.18,0.03-0.36,0.04-0.53c0.06-0.86-0.11-1.68-0.36-2.5c-0.11-0.36-0.37-0.7-0.15-1.11
		c0.77-0.2,0.84,0.56,1.22,0.89c0.19,0.27,0.27,0.58,0.29,0.91c0.06,0.78-0.01,1.56-0.1,2.33c-0.15,0.25-0.3,0.5-0.44,0.74
		C15.35,13.11,15.39,12.72,15.39,12.36z"/>
	<path class="st12" d="M27.89,32.55c-0.01,0.14-0.03,0.27-0.04,0.41c-1.1,0.57-2.24,1.08-3.34,1.66c-0.07-0.2-0.14-0.41-0.21-0.61
		C25.32,33.1,26.46,32.47,27.89,32.55z"/>
	<path class="st13" d="M30.31,36.63c0.47-0.05,0.39-0.45,0.47-0.75c0.55,1.23,0.06,2.3-0.54,3.34c-0.15-0.14-0.3-0.27-0.44-0.41
		C29.62,38,29.85,37.28,30.31,36.63z"/>
	<path class="st14" d="M3.18,38.04c0.32,0.24,0.64,0.48,0.96,0.72c0.56,0.11,0.92,0.5,1.29,0.88c0.17,0.32,0.47,0.59,0.39,1.01
		c-0.16,0.08-0.31,0.16-0.47,0.24C4.64,39.92,3.45,39.33,3.18,38.04z"/>
	<path class="st15" d="M11.58,39.91c-0.46-0.52-1.4,0.24-1.73-0.64c0.41-0.02,0.83-0.04,1.24-0.05c0.11-0.07,0.24-0.11,0.37-0.1
		c0.81,0.18,1.69-0.21,2.44,0.36c0.36,0.33-0.17,0.23-0.19,0.38c-0.07,0.25-0.28,0.32-0.5,0.38C12.65,40.26,12.04,40.44,11.58,39.91
		z"/>
	<path class="st16" d="M16.33,12.36c-0.43-0.77-0.13-1.6-0.21-2.4c0.24-0.19,0.47-0.19,0.71,0c0,0.48,0,0.96,0,1.45
		C16.78,11.78,16.59,12.09,16.33,12.36z"/>
	<path class="st17" d="M11.36,39.31c-0.09-0.03-0.18-0.06-0.27-0.09c-0.02-0.38-0.03-0.76-0.05-1.14c0.55-0.57,0.81,0.41,1.29,0.24
		c-0.03,0.4-0.26,0.69-0.5,0.97C11.68,39.36,11.52,39.36,11.36,39.31z"/>
	<path class="st18" d="M15.39,12.36c0.3,0.16,0.12,0.64,0.5,0.74c-0.16,0.53-0.33,1.06-0.21,1.63c-0.01,0.17-0.03,0.35-0.04,0.52
		c-0.05,0-0.1,0-0.15,0C14.79,14.3,14.9,13.33,15.39,12.36L15.39,12.36z"/>
	<path class="st19" d="M18.1,16.66c0.76,0.6,0.22,1.47,0.45,2.18c0,4.88,0,9.77,0,14.65c-0.87,0.35-1.82,0.54-2.33,1.5
		c-0.15,0.29-0.57,0.35-0.85,0.08c-0.73-0.7-1.64-0.48-2.5-0.55c-0.46-0.28-0.55-0.75-0.65-1.22c-0.2-5.23-1.03-10.42-1.1-15.66
		c0-0.08,0-0.16,0-0.24c0.51-1.02,1.22-1.34,2.33-0.83c0.93,0.43,1.95,0.33,2.93,0.04C16.95,16.44,17.54,16.24,18.1,16.66z"/>
	<path class="st20" d="M12.99,34.42c0.84-0.42,1.63-0.33,2.3,0.31c0.41,0.39,0.77,0.36,0.92-0.11c0.4-1.23,1.35-1.18,2.33-1.13
		c-0.01,0.39-0.02,0.77-0.04,1.16c-0.33,0.31-0.82,0.22-1.18,0.47c-0.04,0-0.1-0.01-0.11,0.01c-0.63,1.18-1.22,1.98-2.1,0.12
		c-0.29-0.63-0.79-0.16-1.14,0.16c-0.16-0.01-0.3-0.09-0.42-0.18C13.34,34.98,12.86,34.91,12.99,34.42z"/>
	<path class="st21" d="M17.33,35.12c0.12-0.84,0.71-0.5,1.18-0.47c0.02,0.82,0.04,1.64,0.07,2.46c0.18,0.67,0.07,1.09-0.76,1.05
		c-0.76-0.03-1.48,0.36-2.25,0.25c-0.51-0.47-0.22-0.87,0.18-1.15c0.19-0.13,0.2-0.2,0.14-0.36C17.17,36.96,17.17,35.98,17.33,35.12
		z"/>
	<path class="st22" d="M15.41,38.24c0.8-0.14,1.61-0.44,2.4-0.37c0.76,0.07,0.74-0.28,0.77-0.75c0.29,0.36,0.11,0.76,0.11,1.14
		c-1.49,0.74-3.13,0.79-4.73,1.05c-0.71,0.06-1.42,0.17-2.13-0.06c-0.16-0.49,0.15-0.71,0.51-0.92c0.23-0.01,0.45-0.02,0.68-0.03
		C13.81,38.1,14.6,37.67,15.41,38.24z"/>
	<path class="st0" d="M29.06,38.02c-0.62,1-0.95,2.41-2.79,1.81c0.81-1.26,0.4-2.02-1.02-2.29c-0.62-1.25-0.45-1.86,0.72-2.59
		c0.42-0.14,0.85-0.15,1.28-0.14C29.08,34.87,29.89,36.32,29.06,38.02z"/>
	<path class="st23" d="M17.08,42.12c-0.26-0.04-0.55,0.02-0.74-0.23c1.22-0.33,2.26-1.07,3.41-1.53c0.58-0.23,1.04-0.54,1.38-1.06
		c0.66-0.48,1.38-0.31,2.09-0.22c0.59,0.57,0.3,1.05-0.17,1.49c-0.51,0.48-1.12,0.85-1.65,1.31C19.96,41.96,18.52,42.04,17.08,42.12
		z"/>
	<path class="st24" d="M21.4,41.88c0.02-0.55,0.46-0.75,0.83-1.04c0.52-0.41,1.28-0.71,1.08-1.62c0.12-0.23,0.33-0.4,0.42-0.65
		c0.33-0.17,0.3-0.5,0.33-0.79c0.29-0.06,0.32,0.25,0.51,0.35c0.08,0.03,0.14,0.08,0.19,0.15c1.3,0.48,1.25,0.53,0.45,1.85
		C24.31,41.61,23.06,42.14,21.4,41.88z"/>
	<path class="st25" d="M29.06,38.02c0.01-0.24,0.03-0.48,0.03-0.71c0.01-1.74-0.55-2.28-2.28-2.2c-0.28,0.01-0.55,0.04-0.83,0.07
		c-0.54,0.23-0.71-0.11-0.83-0.53c0.51-1.05,1.59-0.67,2.4-0.94c0.2,0,0.39,0.03,0.58,0.1c0.98,0.51,1.7,1.2,1.73,2.4
		c-0.03,0.85-0.1,1.7-0.45,2.49c-0.09,0.13-0.2,0.15-0.32,0.06C29.08,38.51,29.07,38.27,29.06,38.02z"/>
	<path class="st26" d="M25.25,34.68c0.24,0.17,0.37,0.5,0.74,0.5c-1.09,0.53-0.64,1.53-0.72,2.36c0.01,0.36-0.33,0.49-0.49,0.74
		c-0.07,0-0.15,0-0.22-0.01c-0.32-0.49-0.25-1.05-0.27-1.59C24.3,35.86,24.23,35.01,25.25,34.68z"/>
	<path class="st27" d="M29.3,38.76c0.1-0.88,0.19-1.76,0.29-2.64c0.45,0.02,0.35,0.27,0.27,0.54c0.21-0.39-0.28-0.93,0.2-1.28
		c0.35,0.36,0.13,0.84,0.24,1.25c0.07,0.78-0.22,1.48-0.51,2.18c-0.06,0.01-0.12,0.02-0.18,0.03C29.49,38.9,29.39,38.87,29.3,38.76z
		"/>
	<path class="st28" d="M28.14,40.71c-0.65,0.81-1.53,0.36-2.31,0.42c-0.16,0.01-0.28-0.14-0.21-0.33c0.09-0.26,0.32-0.39,0.56-0.33
		c0.58,0.15,1.14,0.21,1.71-0.03C27.98,40.52,28.13,40.55,28.14,40.71z"/>
	<path class="st29" d="M28.14,40.71c-0.08-0.09-0.17-0.18-0.25-0.27c0.63-0.4,1.07-0.94,1.21-1.69c0.07,0,0.14,0,0.21,0.01
		c0.11,0.03,0.22,0.05,0.32,0.08C29.44,39.71,28.79,40.21,28.14,40.71z"/>
	<path class="st30" d="M11.12,17.64c0.45,0.93,0.29,1.96,0.35,2.92c0.26,4.31,1.19,8.57,1.06,12.92c-0.86,0.28-0.99-0.3-1.08-0.92
		c-0.07-0.49,0.14-1.02-0.15-1.49c-0.32-1.53-0.14-3.08-0.16-4.63C11.1,23.51,11.12,20.57,11.12,17.64z"/>
	<path class="st31" d="M18.1,16.66c-0.6-0.04-1.17,0.08-1.73,0.3c-0.8,0.32-1.7,0.4-2.43,0.11c-1.07-0.41-1.97-0.59-2.82,0.33
		c0.01-0.25,0.02-0.49,0.02-0.74c0.5-1.15,1.58-1.18,2.59-1.37c0.21-0.04,0.33,0.02,0.48,0.21c0.5,0.63,0.73,0.64,1.62,0.2
		C16.65,14.9,17.75,15.36,18.1,16.66z"/>
	<path class="st32" d="M15.41,38.24c-0.8,0.02-1.6,0.03-2.4,0.05c0.66-0.58,0.78-1.45,1.16-2.19c0.12-0.24,0.18-0.58,0.51-0.57
		c0.27,0.01,0.32,0.32,0.41,0.52c0.17,0.37,0.41,0.68,0.79,0.86c-0.2,0.22,0.99,0.06,0.12,0.41C15.55,37.51,15.66,37.97,15.41,38.24
		z"/>
	<path class="st33" d="M11.3,31.07c0.41,0.33,0.24,0.79,0.25,1.19c0.02,0.67,0.26,1.12,0.97,1.21c0.22,0.28,0.12,0.73,0.47,0.95
		c0.24,0.24,0.49,0.48,0.73,0.72c-0.04,0.33-0.23,0.59-0.38,0.87c-0.17,0.22-0.3,0.49-0.66,0.36c-0.75-0.64-1.33-1.38-1.37-2.42
		C11.31,32.99,11.3,32.03,11.3,31.07z"/>
	<path class="st34" d="M11.31,33.96c0.13,1.01,1.2,1.46,1.45,2.41c0.34,0.82-0.03,0.96-0.71,0.7c-0.37-0.14-0.65-0.45-0.95-0.71
		C10.99,35.54,11.13,34.75,11.31,33.96z"/>
	<path class="st35" d="M11.11,36.35c0.43-0.03,0.72,0.21,1.04,0.46c0.65,0.51,0.57-0.08,0.62-0.45c0.15-0.16,0.3-0.33,0.45-0.49
		c0.36,0.27,0.07,0.64,0.16,0.95c-0.09,0.71-0.61,0.97-1.18,0.88C11.52,37.59,11.18,37.03,11.11,36.35z"/>
	<path class="st36" d="M13.37,36.83c-0.05-0.32-0.1-0.64-0.16-0.95c0.03-0.34,0.2-0.58,0.51-0.73c0.08,0.09,0.16,0.18,0.25,0.27
		C13.77,35.89,13.57,36.36,13.37,36.83z"/>
	<path class="st37" d="M16.84,9.96c-0.24,0-0.47,0-0.71,0C16.1,9.7,16.15,9.42,15.9,9.24c-0.31-0.81-0.75-1.52-1.45-2.09
		c-0.64,0.59-0.22,1.62-0.99,2.08c-0.4-0.01-1.03,0.14-0.68-0.62c0.58-1.25,0.43-2.57,0.44-3.87c0.01-0.7,0.17-0.88,0.8-0.42
		C15.92,5.74,17.19,7.44,16.84,9.96z"/>
	<path class="st38" d="M14.95,8.28c0.51,0.91,0.69,1.91,0.84,2.92c0.04,0.3,0.2,0.67-0.35,0.63c-0.74-0.41-1.38-0.58-1.3,0.64
		c0.02,0.35-0.01,0.63-0.34,0.8c-0.12-0.68-0.37-1.34-0.29-2.04c0.12-1,0.24-2.01,0.45-3c0.07-0.34,0.04-0.79,0.53-0.75
		C14.9,7.53,15.03,7.88,14.95,8.28z"/>
	<path class="st39" d="M14.95,8.28c-0.24-0.17-0.21-0.61-0.68-0.66c-0.19,1.22-0.32,2.45-0.75,3.61c-0.02-0.67-0.03-1.33-0.05-2
		c0.17-0.64,0.33-1.28,0.5-1.92c0.2-0.74,0.63-0.58,0.97-0.18c0.51,0.6,0.91,1.27,0.96,2.09C15.46,9.04,15.56,8.31,14.95,8.28z"/>
	<path class="st40" d="M23.73,38.57c0.13,0.13,0.42,0.24,0.23,0.45c-0.13,0.14-0.42,0.14-0.65,0.2c-0.73-0.03-1.46-0.05-2.15,0.27
		c-1.48,0.64-3.11,0.62-4.65,0.98c-0.65,0.15-1.33,0.23-2.01,0.29c-0.42-0.01-0.85,0.03-1.23-0.23c-0.17-0.18-0.19-0.37-0.03-0.57
		c0.16-0.04,0.32-0.08,0.48-0.11c1.57,0.09,3.07-0.35,4.59-0.59C20.11,38.99,21.91,38.71,23.73,38.57z"/>
	<path class="st41" d="M25.25,34.68c-0.52,0.53-0.74,1.18-0.74,1.91c-0.7-0.38-0.25-0.95-0.24-1.44c0.08-0.17,0.16-0.35,0.24-0.52
		c0.86-1.07,2.01-1.54,3.34-1.66c0.26,0.06,0.57-0.01,0.77,0.24c-0.22,0.38-0.8,0.29-0.96,0.75C26.92,34.42,25.89,33.9,25.25,34.68z
		"/>
	<path class="st42" d="M24.27,35.15c0.1,0.48-0.18,1.02,0.24,1.44c0.01,0.56,0.03,1.12,0.04,1.68c-0.49,0.17-0.19-0.45-0.48-0.49
		C24.16,36.9,23.78,35.99,24.27,35.15z"/>
	<path class="st7" d="M11.83,39.24c0.71,0.02,1.42,0.04,2.13,0.06c0,0.06-0.02,0.12-0.05,0.17c-0.84-0.1-1.71,0.21-2.54-0.16
		C11.52,39.29,11.67,39.26,11.83,39.24z"/>
	<path class="st43" d="M14.44,40.48c2.25-0.27,4.44-0.97,6.73-0.99c0.08,0.77-0.56,0.94-1.05,1.07c-0.72,0.18-1.33,0.49-1.85,0.98
		c-0.58,0.54-1.29,0.24-1.93,0.35c-0.15,0-0.29,0-0.44,0c-0.68,0.21-1.38,0.07-2.07,0.09C13.17,41.13,13.68,40.76,14.44,40.48z"/>
	<path class="st44" d="M14.44,40.48c-0.46,0.35-0.77,0.78-0.72,1.39c-0.23,0.19-0.51,0.1-0.76,0.12c-0.78,0.06-1.57-0.13-2.35,0.11
		c-0.83,0.02-1.67,0.03-2.5,0.05c-0.46,0.01-0.87-0.05-1.11-0.51c0.1-0.29,0.34-0.48,0.62-0.48c1.79,0.01,3.43-0.93,5.24-0.84
		c0.14,0,0.26,0.03,0.38,0.11C13.63,40.44,14.03,40.46,14.44,40.48z"/>
	<path class="st45" d="M13.01,40.46c-1.65,0.16-3.19,0.94-4.88,0.93c-0.4,0-0.78,0.04-1.14,0.24c-0.39-0.33-0.78-0.66-1.17-1
		c-0.18-0.29-0.36-0.58-0.54-0.86c0.19-0.26,0.46-0.28,0.74-0.21c2,0.52,4.04,0.72,6.1,0.64C12.44,40.2,12.78,40.18,13.01,40.46z"/>
	<path class="st23" d="M13,41.88c0.24,0,0.48,0,0.71-0.01c0.73,0.01,1.45,0.01,2.18,0.02c-0.94,0.45-1.94,0.15-2.9,0.21
		c-0.07-0.05-0.1-0.1-0.07-0.15C12.95,41.91,12.98,41.88,13,41.88z"/>
	<path class="st43" d="M13,41.88c0,0.07,0,0.15-0.01,0.22c-0.8,0-1.59,0-2.39,0C11.37,41.66,12.2,41.97,13,41.88z"/>
	<path class="st46" d="M13.01,40.46c-2.6,0.08-5.18-0.17-7.72-0.68c-0.38-0.34-0.76-0.68-1.14-1.02c1.11,0.28,2.21,0.61,3.33,0.83
		c1.35,0.27,2.72,0.54,4.11,0.32c0.55,0.02,1.11,0.04,1.66,0.06c0,0.15-0.01,0.3-0.01,0.45C13.16,40.43,13.08,40.45,13.01,40.46z"/>
	<path class="st47" d="M15.4,12.35c0.03,0.96,0.06,1.93,0.09,2.89c-0.41,0.44-0.79,0.69-0.85-0.22c-0.06-0.79-0.09-1.58-0.13-2.36
		c-0.01-0.28-0.01-0.6,0.28-0.72C15.15,11.78,15.19,12.22,15.4,12.35z"/>
	<path class="st48" d="M30.06,35.38c0,0.47,0,0.94,0,1.7c-0.24-0.48-0.36-0.72-0.47-0.96c-0.03-1.05-0.82-1.55-1.52-2.11
		c0.23-0.52,0.59-0.53,1.03-0.29C29.72,34.1,29.98,34.69,30.06,35.38z"/>
	<path class="st49" d="M29.1,33.72c-0.38-0.03-0.72,0.08-1.03,0.29c-0.14-0.02-0.28-0.04-0.41-0.06c-0.46-1.25,0.62-0.52,0.96-0.75
		C28.78,33.37,28.94,33.54,29.1,33.72z"/>
	<path class="st50" d="M17.12,24.81c-0.71,0.47-0.81-0.23-1-0.58c-0.45-0.82-0.5-1.74-0.48-2.66c0.02-1.07,0.01-2.14,0.13-3.23
		c0.12,0.56,0.23,1.11,0.35,1.67c0.22,0.75,0.41,1.52,0.32,2.3C16.34,23.25,16.94,23.97,17.12,24.81z"/>
	<path class="st51" d="M17.12,24.81c-1.07-0.76-0.99-1.91-1-3.02c0-0.59,0-1.18,0-1.77c0.31,0.5,0.62,1,0.92,1.5
		c-0.12,0.79-0.31,1.59,0.21,2.32C17.3,24.17,17.42,24.52,17.12,24.81z"/>
	<path class="st52" d="M17.26,23.83c-0.52-0.49-0.63-1.71-0.21-2.32C17.17,22.28,16.89,23.09,17.26,23.83z"/>
	<path class="st53" d="M27.9,37.61c-0.49-0.53-0.97-0.75-1.57-0.99c0.48-0.37,0.86-0.46,1.27-0.25
		C28.06,36.61,27.82,37.04,27.9,37.61z"/>
</g>
</svg>
