<?xml version="1.0" encoding="utf-8"?>
<!-- Generator: Adobe Illustrator 23.0.2, SVG Export Plug-In . SVG Version: 6.00 Build 0)  -->
<svg version="1.1" id="Camada_1" xmlns="http://www.w3.org/2000/svg" xmlns:xlink="http://www.w3.org/1999/xlink" x="0px" y="0px"
	 viewBox="0 0 41.94 30.4" style="enable-background:new 0 0 41.94 30.4;" xml:space="preserve">
<style type="text/css">
	.st0{fill:#FEFEFE;}
	.st1{fill:#000101;}
	.st2{fill:#0D3D4B;}
	.st3{fill:#093442;}
	.st4{fill:#0D414E;}
	.st5{fill:#133F51;}
	.st6{fill:#0B3745;}
	.st7{fill:#0E414F;}
	.st8{fill:#A7E5F5;}
	.st9{fill:#A8E6F5;}
	.st10{fill:#4DA5BC;}
	.st11{fill:#062E3C;}
	.st12{fill:#08D5D9;}
	.st13{fill:#0EE0E5;}
	.st14{fill:#A7E3EF;}
	.st15{fill:#4EA1B9;}
	.st16{fill:#4DA5BA;}
	.st17{fill:#19D5DD;}
	.st18{fill:#4DA3BC;}
	.st19{fill:#011424;}
	.st20{fill:#56B3CC;}
	.st21{fill:#246576;}
	.st22{fill:#F6FE3A;}
	.st23{fill:#55B1C9;}
	.st24{fill:#1DDBE3;}
	.st25{fill:#A3E2F2;}
	.st26{fill:#459CB2;}
	.st27{fill:#2A4656;}
	.st28{fill:#56A6BB;}
	.st29{fill:#A9E6F5;}
	.st30{fill:#4CA8BF;}
	.st31{fill:#F1F405;}
	.st32{fill:#A8E5EF;}
	.st33{fill:#B2EBF3;}
	.st34{fill:#2E514F;}
	.st35{fill:#10EDEF;}
	.st36{fill:#EEF6F7;}
	.st37{fill:#FCFE06;}
	.st38{fill:#4BA6BD;}
	.st39{fill:#F0F205;}
	.st40{fill:#ACE6F0;}
	.st41{fill:#F4F9FA;}
	.st42{fill:#0FFCFC;}
	.st43{fill:#093946;}
	.st44{fill:#174959;}
	.st45{fill:#113A49;}
	.st46{fill:#58EEF3;}
	.st47{fill:#F8FCFD;}
	.st48{fill:#A9E9FA;}
	.st49{fill:#163249;}
	.st50{fill:#14394C;}
	.st51{fill:#335B5A;}
	.st52{fill:#1B455A;}
	.st53{fill:#193E4D;}
	.st54{fill:#11344B;}
	.st55{fill:#1E3D4D;}
	.st56{fill:#234B5C;}
	.st57{fill:#12334D;}
	.st58{fill:#173F5A;}
	.st59{fill:#F9FDFE;}
	.st60{fill:#45C1D4;}
	.st61{fill:#1DE5EC;}
	.st62{fill:#44B8CC;}
	.st63{fill:#DFE60C;}
	.st64{fill:#F0F305;}
</style>
<g>
	<path class="st0" d="M34.07,17.01c0.11,0.1,0.15,0.18,0.22,0.2c2.94,0.66,3.36,1.65,2.95,5.49c-0.14,1.3-0.54,2.57-0.88,3.84
		c-1.06,3.95-5.44,5.14-8.46,2.31c-1.24-1.16-3.99-1.61-5.45-0.94c-1.48,0.68-3,0.76-4.53,0.14c-1.6-0.64-2.02-2.03-2.25-3.54
		c-0.05-0.31-0.01-0.63-0.01-1.14c-1.91,1.06-3.95-0.3-5.84,0.67c-0.43,0.22-0.84,0.34-1.09,0.8c-0.35,0.64-0.89,1.13-1.5,1.52
		c-2.46,1.58-5.01,0.61-6.12-2.45c-0.5-1.37-0.8-2.83-1.03-4.28c-0.29-1.85,0.24-2.7,1.85-3.6c1.7-0.96,3.4-1.94,5.26-2.56
		c0.6-0.2,0.65-0.57,0.65-1.08c-0.01-1.56-0.01-3.12,0.01-4.68c0.02-1.81,0.69-3.12,2.4-4.05C12.6,2.37,15,1.23,17.52,0.34
		c0.52-0.18,1.09-0.36,1.63-0.34c5.26,0.2,10.54,0.13,15.78,0.78c1.42,0.18,2.82,0.54,4.23,0.81c0.95,0.18,1.62,0.75,1.9,1.64
		c0.42,1.33,0.8,2.67,0.88,4.08c0.16,2.96-1.66,4.8-3.64,6.52C36.97,14.98,35.6,16.08,34.07,17.01z"/>
	<path d="M22.25,1.22c5.06,0.45,10.4,0.08,15.63,1.25c1.4,0.31,2.23,0.88,2.42,2.32c0.07,0.55,0.24,1.08,0.36,1.63
		c0.56,2.68-0.9,4.5-2.67,6.14c-0.94,0.86-2.05,1.54-2.98,2.41c-1.72,1.62-3.75,1.64-5.92,1.44c-3.98-0.37-7.97-0.61-11.95-0.94
		c-0.75-0.06-0.92,0.1-0.64,0.82c0.27,0.7,0.4,1.46,0.62,2.18c0.8,2.58-2.28,4.86-4.32,4.04c-1.04-0.42-1.92,0.19-2.87,0.34
		c-0.96,0.16-1.69,0.47-2.28,1.4c-1.54,2.42-4.07,2.22-5.25-0.38c-0.65-1.44-0.89-3.04-1.18-4.59c-0.19-1,0.28-1.66,1.22-2.19
		C4.4,16,6.36,14.97,8.46,14.22c0.47-0.17,0.67-0.31,0.63-0.98c-0.13-2.03-0.07-4.07-0.02-6.11c0.03-1.01,0.55-1.7,1.48-2.26
		c2.4-1.44,4.93-2.56,7.55-3.5C19.38,0.91,20.72,1.37,22.25,1.22z"/>
	<path class="st1" d="M22.5,16.89c4.11,0.14,8.19,0.51,12.16,1.69c1.1,0.33,1.49,0.93,1.51,2.07c0.03,2.23-0.53,4.35-1.17,6.43
		c-0.62,2.03-3.84,2.9-5.61,1.31c-1.45-1.3-3.13-1.56-4.8-2.09c-0.84-0.27-1.59-0.26-2.34,0.35c-0.38,0.31-0.93,0.45-1.43,0.56
		c-2.49,0.51-4.14-0.85-3.9-3.38c0.19-2.02,0.93-3.93,1.68-5.8c0.35-0.89,1.04-1.23,2-1.14C21.22,16.93,21.86,16.89,22.5,16.89z"/>
	<path class="st2" d="M37.51,3.72c1.07-0.12,1.52,0.49,1.67,1.44c0.09,0.55,0.17,1.1,0.26,1.64c0.34,1.96-0.71,3.4-1.96,4.64
		c-1.04,1.03-2.37,1.77-3.43,2.77c-1.71,1.61-3.74,1.04-5.67,0.94c-2.62-0.13-5.22-0.48-7.83-0.63c-1-0.06-1.97-0.25-2.97-0.28
		c-0.16-0.16-0.53-0.04-0.54-0.4c0.05-0.14,0.16-0.23,0.25-0.34c0.17-0.29-0.01-0.58-0.01-0.88c-0.05-0.64-0.05-1.28-0.03-1.92
		c0.01-0.36,0.03-0.73,0.22-1.04c0.94-1.47,2.33-0.85,3.59-0.73c1.02,0.1,1.38,0.82,1.41,1.77c0.02,0.64,0.01,1.28-0.03,1.92
		c-0.05,0.79,0.35,1.22,1.11,1.25c2.07,0.1,4.14,0.29,6.2,0.5c0.55,0.06,1.02-0.13,1.4-0.54c0.56-0.35,0.46,0.42,0.8,0.46
		c1.17-0.37,1.79-1.41,2.65-2.16c0.04-0.83-0.03-1.65-0.16-2.47c-0.21-1.28,0-1.71,1.17-2.25c0.69-0.32,1.29-0.76,1.9-1.2
		c0.5-0.37,0.65-0.78,0.2-1.29c-0.16-0.15-0.35-0.25-0.55-0.34c-0.26-0.18-0.7-0.19-0.62-0.68C36.81,3.59,37.2,3.86,37.51,3.72z"/>
	<path class="st3" d="M37.51,3.72c-0.27,0.34-0.67,0.18-1,0.25c-1.01,0.63-2.02,0.04-3-0.07c-1-0.1-1.73,0.05-2.45,0.8
		c-1.55,1.63-3.61,2.14-5.76,2.19c-1.55,0.04-3.07-0.36-4.59-0.66c-0.55-0.11-1.04-0.39-1.43-0.81c-0.44-0.6-0.67-1.23-0.22-1.94
		c0.08-0.12,0.07-0.18-0.09-0.12c-0.07,0.03-0.15,0.05-0.22,0.08c-2.15,0.69-4.14,1.74-6.17,2.72c-0.21,0.1-0.37,0.27-0.56,0.4
		c-0.54,0.31-0.55,0.83-0.59,1.35c-0.03,0.42,0.06,0.9-0.42,1.17c-0.56,0.02-0.57-0.38-0.61-0.78c-0.05-0.57,0.08-1.14,0.01-1.71
		c1.81-1.61,4.05-2.41,6.19-3.43c3.04-1.46,6.16-0.53,9.23-0.52c1.74,0,3.5-0.01,5.24,0.12C33.24,2.92,35.42,3.02,37.51,3.72z"/>
	<path class="st3" d="M17.11,13.82c0.16,0.14,0.32,0.28,0.48,0.42c-0.75,0.03-1.5,0.06-2.24-0.17c-0.24-0.08-0.61-0.16-0.74,0.14
		c-0.07,0.16,0.06,0.45,0.16,0.65c0.66,1.41,0.88,2.94,1.34,4.41c0.07,0.21-0.03,0.38-0.19,0.52c-0.37-0.23-0.5-0.63-0.66-1
		c-0.2-0.76-0.43-1.52-0.72-2.26c-0.12-0.29-0.24-0.59-0.34-0.89c-0.3-0.84-0.82-1.14-1.66-0.71c-0.32,0.1-0.65,0.16-0.96,0.3
		c-1.8,0.66-3.54,1.48-5.34,2.15c-1.03,0.41-2.12,0.74-2.92,1.58c-0.12,0.44,0.05,0.82,0.25,1.19c0.06,0.09,0.11,0.18,0.17,0.26
		c0.25,0.24,0.55,0.43,0.83,0.69c0.36-0.47,0.64-0.96,0.91-1.47c0.18-0.21,0.4-0.25,0.66-0.15C6.75,20,6.63,20.6,6.36,21.23
		C6.14,21.59,6.02,22,5.69,22.29c-0.56,0.36-1.13,0.56-1.78,0.03c0.06,0.38,0.19,0.72,0.14,1.08c-0.06,0.17-0.16,0.3-0.37,0.23
		c-0.84-1.44-0.93-3.07-1.2-4.65c-0.08-0.5,0.35-0.63,0.67-0.86c2.16-1.55,4.67-2.35,7.09-3.36c0.69-0.29,1.4-0.54,2.2-0.84
		c-0.73-0.27-1.48-0.14-2.03-0.61c-0.01-0.68-0.02-1.36,0.01-2.04c0.02-0.47,0.11-0.89,0.73-0.87c0.48,0.58,0.26,1.29,0.34,1.94
		c0,0.13,0.03,0.25,0.07,0.36c1.34,0.67,2.83,0.51,4.25,0.75C16.25,13.53,16.76,13.39,17.11,13.82z"/>
	<path class="st4" d="M15.45,18.83c0.29,0.25,0.42,0.58,0.46,0.96c-0.83,1.62-1.66,1.99-3.25,1.38c-0.4-0.16-0.74-0.15-1.14-0.02
		c-0.75,0.24-1.53,0.42-2.3,0.6c-1.09,0.26-2.09,0.52-2.55,1.81c-0.26,0.75-1.08,1.23-1.93,1.19c-0.58-0.02-0.96-0.51-1.07-1.12
		c0.08-0.09,0.16-0.17,0.25-0.26c0.1-0.07,0.21-0.09,0.32-0.06c0.85,0.32,1.46,0.02,1.62-0.83c0.13-0.68,0.58-0.92,1.08-1.16
		c1.6-0.75,3.34-1.1,5.03-1.57c0.23-0.07,0.47-0.05,0.71,0.03c1.58,0.5,1.58,0.49,2.62-0.87C15.35,18.88,15.4,18.86,15.45,18.83z"/>
	<path class="st5" d="M11.12,10.44c-0.56,0.24-0.45,0.74-0.49,1.19c-0.06,0.56,0.22,1.17-0.23,1.67c0,0,0,0,0,0
		c-0.21-2.16-0.18-4.33-0.01-6.49c0-0.07,0.01-0.14,0.02-0.21c0.41,0.44,0.16,0.97,0.22,1.46c0.05,0.37-0.12,0.83,0.46,0.92
		c0.14-0.08,0.24-0.22,0.38-0.29c0.83-0.42,1.71-0.26,2.1,0.42c0.39,0.67,0.28,1.3-0.34,1.79C12.56,11.44,11.78,11.25,11.12,10.44z"
		/>
	<path class="st3" d="M10.38,6.82c0,2.16,0.01,4.33,0.01,6.49c-0.48-0.76-0.23-1.61-0.21-2.41C10.22,9.54,9.91,8.15,10.38,6.82z"/>
	<path class="st6" d="M18.11,24.12c0.06-1.9,0.84-3.62,1.45-5.37c0.15-0.42,0.54-0.64,1.05-0.66c4.44-0.11,8.81,0.31,13.12,1.42
		c0.87,0.22,1.21,0.6,1.19,1.55c-0.03,1.81-0.35,3.54-1,5.21c-0.28-0.1-0.41-0.32-0.47-0.59c0.07-1.23,0.44-2.41,0.56-3.63
		c0.12-1.24-0.02-1.48-1.2-1.73c-1.36-0.29-2.72-0.57-4.11-0.68c-0.26,0-0.51-0.04-0.77-0.1c-0.49-0.18-1.02-0.13-1.52-0.25
		c-1.94-0.02-3.87-0.72-5.82-0.15c0.09,0.09-0.54,0.33,0,0.24c0.86-0.14,1.57-0.07,2.14,0.62c1.15,1.37,0.95,2.39-0.65,3.36
		c-0.23,0.15-0.45,0.34-0.71,0.45c-0.96,0.17-1.81,0.12-2.17-1.02c-0.2,0.42-0.25,0.89-0.45,1.31
		C18.56,24.42,18.34,24.52,18.11,24.12z"/>
	<path class="st7" d="M18.11,24.12c0.18,0.06,0.37,0.22,0.48-0.08c0.13-0.03,0.24,0,0.35,0.07c1.07,0.82,1.41,0.85,2.37-0.02
		c0.46-0.42,0.97-0.55,1.53-0.52c2.21,0.11,4.34,0.63,6.45,1.25c0.36,0.11,0.6,0.37,0.83,0.66c1.13,1.4,1.76,1.46,3.16,0.31
		c0.1-0.08,0.22-0.1,0.35-0.08c0.1,0.19,0.19,0.38,0.29,0.57c-0.45,1.77-2.85,2.4-4.18,0.88c-0.86-0.98-1.9-1.18-2.95-1.53
		c-0.79-0.26-1.64-0.35-2.43-0.6c-0.94-0.3-1.73-0.24-2.52,0.46c-0.85,0.75-1.93,0.73-2.94,0.34
		C18.14,25.54,18.04,24.85,18.11,24.12z"/>
	<path class="st8" d="M11.12,10.44c0.2,0.12,0.39,0.26,0.6,0.36c0.55,0.24,1.11,0.28,1.53-0.22c0.37-0.44,0.41-0.97,0.04-1.42
		c-0.39-0.48-0.92-0.59-1.51-0.34c-0.22,0.09-0.35,0.52-0.68,0.18c0.01-0.52,0.09-1.05,0.01-1.55c-0.12-0.81,0.26-1.08,0.98-1.11
		c0.11,0.02,0.22,0.06,0.32,0.12c0.67,0.25,1.38,0.34,2.06,0.59c0.66,0.25,1.38,0.29,1.83,0.41c-0.32,0.01-0.83-0.22-1.38-0.29
		c-0.24-0.03-0.3-0.22-0.13-0.43c0.11-0.08,0.24-0.13,0.37-0.16c2.27,0.1,4.51,0.51,6.77,0.74c2.7,0.28,5.38,0.62,8.1,0.65
		c0.62,0.01,1.31-0.14,1.71,0.57c0.26,1.49,0.1,2.99,0.1,4.49c0,0.28-0.09,0.55-0.34,0.72c-0.11,0.96-0.68,1.08-1.54,0.99
		c-2.25-0.23-4.52-0.4-6.78-0.54c-0.95-0.06-1.25-0.53-1.11-1.37c0.14-0.83,0.14-1.66,0.12-2.5c-0.01-0.66-0.32-0.98-1.01-1.06
		c-4.06-0.49-3.53-0.05-3.53,3.11c0,0.24-0.02,0.48-0.03,0.71c-0.06,0.05-0.12,0.14-0.19,0.14c-2.1-0.06-4.24,0.16-6.27-0.65
		C11.14,11.86,11.13,11.15,11.12,10.44z"/>
	<path class="st9" d="M12.42,5.91c2.09-0.97,4.07-2.19,6.35-2.74c0.41-0.01,0.29,0.23,0.23,0.46c-0.15,0.55-0.21,1.09,0.34,1.48
		c2.9,1.63,5.94,1.81,9.09,0.87c1.14-0.34,2.15-0.95,2.8-1.93c0.39-0.58,0.79-0.64,1.36-0.56c1.3,0.17,2.61,0.32,3.92,0.48
		c0.2,0.27,0.75-0.05,0.8,0.47c-1.62,1.97-3.6,3.43-6.2,3.56c-3.64,0.18-7.23-0.54-10.84-0.84c-1.62-0.14-3.24-0.34-4.86-0.5
		c-0.85-0.16-1.72,0.17-2.56-0.09C12.51,6.48,11.98,6.5,12.42,5.91z"/>
	<path class="st10" d="M37.78,4.72c0.76,0.44,0.87,1.04,0.21,1.54c-0.76,0.58-1.5,1.21-2.43,1.5c-1.04,0.32-1.07,1.04-0.85,1.89
		c0.24,0.91,0.35,1.82,0.16,2.75c-0.6,0.16-1,0.61-1.43,1.02c-0.27,0.25-0.5,0.77-0.92,0.59c-0.46-0.19-0.36-0.75-0.36-1.17
		c-0.03-1.46,0.03-2.93-0.06-4.39c0.06-0.35,0.31-0.54,0.61-0.67c1.68-0.74,3.19-1.76,4.62-2.9C37.46,4.76,37.62,4.72,37.78,4.72z"
		/>
	<path class="st11" d="M37.78,4.72c-1.59,1.61-3.51,2.7-5.58,3.55c0.06,1.43,0.04,2.85,0.02,4.28c-0.01,0.39,0.18,0.93-0.48,1.03
		c-0.22-1.26-0.04-2.53-0.11-3.8c-0.02-0.43,0.13-0.87-0.13-1.28c-0.42-0.35-0.93-0.17-1.39-0.18c-5.08-0.18-10.11-0.9-15.14-1.54
		c0.01-0.46,0.3-0.27,0.52-0.23c3.94,0.18,7.89,0.46,11.78,1.08c3.68,0.59,6.76-0.29,9.45-2.8c0.17-0.16,0.39-0.27,0.58-0.4
		C37.51,4.45,37.69,4.51,37.78,4.72z"/>
	<path class="st12" d="M31.79,13.62c0.32-1.42,0.08-2.85,0.15-4.28c0.02-0.37-0.2-0.81,0.26-1.07c0.57,0.89,0.21,1.87,0.27,2.81
		c0.06,0.91,0.01,1.82,0.01,2.78c1-0.26,1.23-1.64,2.39-1.47c-0.61,0.56-1.22,1.13-1.85,1.67c-0.34,0.29-0.67,0.73-1.23,0.4
		C31.55,14.18,31.57,13.9,31.79,13.62z"/>
	<path class="st13" d="M38.6,7.17c-0.09,0.12-0.15,0.27-0.27,0.35c-0.82,0.54-1.58,1.19-2.53,1.49c-0.16,0.05-0.39,0.23-0.53,0
		c-0.14-0.23-0.05-0.5,0.18-0.61c0.92-0.46,1.8-0.97,2.62-1.6C38.53,6.44,38.4,7.01,38.6,7.17z"/>
	<path class="st14" d="M18.6,11.91c0.78-0.02,1.55,0,2.31,0.22c0.03,1.24-0.19,1.51-1.2,1.48C18.61,13.58,18.43,13.31,18.6,11.91z"
		/>
	<path class="st15" d="M11.15,12.57c2.15,0.17,4.3,0.34,6.45,0.51c0.03,0.23,0.37,0.48-0.06,0.67c-1.72-0.27-3.47-0.24-5.18-0.57
		c-0.42-0.08-0.88-0.04-1.24-0.34C11.14,12.75,11.14,12.66,11.15,12.57z"/>
	<path class="st16" d="M18.37,10.82c-0.03-0.4-0.13-0.87,0.38-1c0.84-0.22,1.69,0.02,2.46,0.27c0.41,0.13,0.14,0.69-0.04,1.05
		c-0.22,0.21-0.41,0.07-0.6-0.05C20,10.51,19.38,10.7,18.76,11C18.59,11.02,18.42,11.05,18.37,10.82z"/>
	<path class="st17" d="M11.13,12.84c2.12,0.45,4.34,0.21,6.42,0.91c-0.15,0.03-0.29,0.05-0.44,0.08c-1.8-0.16-3.59-0.33-5.39-0.48
		C11.39,13.31,11.07,13.31,11.13,12.84z"/>
	<path class="st18" d="M18.6,11.91c0.03,0.87,0.19,1.48,1.37,1.42c0.98-0.05,0.63-0.81,0.94-1.2c0.54,0.5,0.19,1.12,0.24,1.68
		c-0.86,0.39-1.71-0.31-2.57-0.05C18.11,13.14,18.11,12.52,18.6,11.91z"/>
	<path class="st19" d="M31.79,13.62c0,0.28,0.01,0.56,0.01,0.84c-0.5-0.06-0.14-0.52-0.33-0.72c0.01-1.74,0.02-3.48,0.03-5.22
		c0.52,1,0.13,2.07,0.23,3.11C31.8,12.28,31.78,12.95,31.79,13.62z"/>
	<path class="st20" d="M36.07,9.47c0.24-0.03,0.6-0.42,0.67-0.03c0.08,0.46,0.37,1,0.01,1.46c-0.16,0.2-0.44,0.32-0.66,0.47
		C35.59,10.74,35.93,10.11,36.07,9.47z"/>
	<path class="st21" d="M36.07,9.47c0.01,0.63,0.01,1.27,0.02,1.9c-0.19-0.07-0.32,0.69-0.51,0.07
		C35.35,10.72,35.45,10.01,36.07,9.47z"/>
	<path class="st22" d="M18.37,10.82c0.13-0.01,0.27-0.01,0.4-0.02c0.67-0.13,1.35-0.34,1.96,0.18c0.15,0.05,0.3,0.11,0.45,0.16
		C20.2,11.37,19.23,11.6,18.37,10.82z"/>
	<path class="st23" d="M38.43,8.13c-0.01,0.71,0.2,1.22-0.46,1.89C38.01,9.28,37.54,8.77,38.43,8.13z"/>
	<path class="st24" d="M18.57,13.76c0.87-0.54,1.71,0.24,2.57,0.05C20.27,14.45,19.43,13.8,18.57,13.76z"/>
	<path class="st25" d="M29.09,4.91c-2.6,1.09-5.27,1.16-7.97,0.45c-0.68-0.18-1.53-0.45-1.34-1.38c0.17-0.84,0.88-1.1,1.75-1.05
		c2.75,0.16,5.51,0.25,8.26,0.37C30.43,4.22,29.56,4.47,29.09,4.91z"/>
	<path class="st26" d="M29.09,4.91c0.37-0.48,0.97-0.85,0.7-1.6c0.34,0,0.79-0.21,0.96,0.19c0.16,0.39-0.28,0.61-0.53,0.82
		C29.89,4.57,29.56,4.89,29.09,4.91z"/>
	<path class="st27" d="M15.5,6.55c-0.17,0.08-0.35,0.15-0.52,0.23c-0.09,0.02-0.18,0.04-0.27,0.07c-0.89,0.12-1.75-0.05-2.6-0.31
		c-0.04-0.07-0.05-0.14-0.03-0.21c0-0.23,0.07-0.4,0.34-0.41c-0.02,0.56,0.42,0.32,0.67,0.36C13.89,6.4,14.72,6.24,15.5,6.55z"/>
	<path class="st28" d="M19.34,5.11c-1.11-0.38-0.26-1.33-0.57-1.94c0.24-0.25,0.56-0.24,1.07-0.31C19.09,3.58,18.82,4.3,19.34,5.11z
		"/>
	<path class="st29" d="M3.41,20.27c-0.46-0.37-0.39-0.89-0.37-1.39c1-0.66,2.1-1.12,3.13-1.71c1.75-0.86,3.56-1.59,5.42-2.18
		c0.32,0.04,0.6,0.17,0.88,0.33c0.09,0.07,0.15,0.15,0.18,0.26c-0.01,0.49,0.24,0.79,0.7,0.92c0.4,0.21,0.78,0.81,1.22,0.04
		c0.04-0.03,0.08-0.07,0.12-0.1c0.54,0.71,0.65,1.55,0.76,2.4c0,0-0.06-0.02-0.06-0.02c-0.86,1.59-1.06,1.66-2.75,0.83
		c-0.38-0.19-0.71-0.07-1.03,0.03c-1.59,0.51-3.2,0.95-4.75,1.61c-0.25,0.11-0.57,0.5-0.8-0.05c0.49-0.56,0.29-1.12,0-1.68
		c-0.03-0.02-0.06-0.06-0.09-0.07C4.9,19.04,3.98,19.11,3.41,20.27z"/>
	<path class="st30" d="M6.06,21.23c1.88-0.65,3.75-1.3,5.63-1.93c0.32-0.11,0.61-0.28,1-0.03c1.49,0.97,1.5,0.95,2.69-0.46
		c-0.39,1.62-1.26,2.06-2.62,1.31c-0.22-0.12-0.38-0.21-0.65-0.13c-1.72,0.51-3.49,0.85-5.11,1.62c-0.43,0.2-0.86,0.31-0.84,1.07
		c0.03,0.9-1.19,1.28-2.06,0.76c0.41-0.53,1.27-0.54,1.47-1.3C5.95,21.95,5.66,21.41,6.06,21.23z"/>
	<path class="st31" d="M5.6,19.77c0.12,0.7-0.88,1-0.64,1.76c0,0.01-0.38,0.16-0.39,0.15c-0.27-0.5-0.95-0.6-1.13-1.18
		c0.05-0.06,0.1-0.12,0.14-0.19C4.22,18.93,4.22,18.92,5.6,19.77z"/>
	<path class="st32" d="M12.48,14.69c1.29-0.93,1.94,0.08,2.22,1.75c0,0,0.02-0.02,0.02-0.02c-0.43,0.28-0.8,0.16-1.15-0.15
		c-0.21-0.41-0.68-0.49-0.99-0.77l-0.07-0.07C12.38,15.19,12.48,14.94,12.48,14.69z"/>
	<path class="st33" d="M5.58,22.13c0.12,1.12-0.7,1.18-1.47,1.3c-0.06-0.03-0.13-0.05-0.19-0.06c-0.25-0.61-0.43-1.23-0.35-1.99
		C4,22.41,4.63,22.76,5.58,22.13z"/>
	<path class="st34" d="M5.6,19.77c-0.08-0.01-0.17,0.01-0.23-0.03c-0.99-0.63-1.49,0.01-1.94,0.76c-0.01-0.07-0.02-0.15-0.02-0.22
		c0.52-1.71,0.82-1.79,2.65-0.72C5.88,19.56,5.7,19.59,5.6,19.77z"/>
	<path class="st35" d="M6.17,17.17c-0.91,0.81-1.97,1.35-3.13,1.71C3.81,17.81,5.01,17.53,6.17,17.17z"/>
	<path class="st36" d="M12.48,14.69c0.41,0.23,0.27,0.48,0.04,0.74c-0.43,0.1-0.76-0.01-0.92-0.44
		C11.83,14.73,12.15,14.71,12.48,14.69z"/>
	<path class="st37" d="M12.84,9.88c-0.04,0.26-0.16,0.44-0.45,0.39c-0.25-0.04-0.45-0.18-0.43-0.45c0.02-0.26,0.22-0.39,0.48-0.38
		C12.73,9.44,12.87,9.59,12.84,9.88z"/>
	<path class="st29" d="M33.63,25.71c-0.07,0.02-0.13,0.06-0.18,0.11c-1.55,1.17-2.29,1.04-3.31-0.62c-0.31-0.5-0.77-0.68-1.29-0.75
		c-2-0.29-3.95-0.95-6-0.97c-0.36,0-0.72-0.03-0.99-0.32c0.9-0.34,1.54-1.1,1.28-1.93c-0.25-0.79-0.73-1.82-1.97-1.7
		c-0.19,0.02-0.41,0-0.56,0.09c-0.29,0.18-0.31,0.97-0.77,0.57c-0.34-0.3,0.11-0.84,0.39-1.21c2.13-0.34,4.25,0,6.38,0.09
		c0.47,0.02,0.94-0.04,1.38,0.2c-0.2,0.42-0.73,0.2-1.06,0.56c0.7,0.17,1.33,0.39,1.68-0.48c1.85,0.03,3.61,0.6,5.42,0.86
		c0.55,0.08,0.46,0.46,0.41,0.8C34.23,22.59,34.14,24.18,33.63,25.71z"/>
	<path class="st38" d="M21.87,23.16c2.63-0.17,5.12,0.68,7.67,1.07c0.39,0.06,0.72,0.22,0.91,0.67c0.66,1.64,1.04,1.76,2.65,0.99
		c0.1-0.05,0.23-0.05,0.35-0.07c-1.02,1.5-2.61,1.47-3.5-0.08c-0.14-0.24-0.21-0.51-0.53-0.59c-2.2-0.54-4.38-1.21-6.68-1.3
		c-0.53-0.02-0.91,0.03-1.29,0.58c-0.7,1.01-2.03,0.81-2.71-0.29c0.86-0.36,1.9,0.14,2.69-0.57C21.58,23.44,21.73,23.3,21.87,23.16z
		"/>
	<path class="st39" d="M20.15,21.9c0.03-0.07,0.08-0.15,0.07-0.22c-0.04-0.36,0.32-1.32,0.49-1.58c0.18-0.28,0.41-0.27,0.6-0.15
		c0.51,0.32,0.6,1.04,1.21,1.32c0.09,0.04-0.2,0.45-0.3,0.4c-1.06-0.62-0.91,1.49-1.94,0.85C20.04,22.37,20,22.15,20.15,21.9z"/>
	<path class="st40" d="M21.44,23.58c-0.71,1.08-1.69,0.89-2.69,0.57c-0.04-0.05-0.09-0.09-0.16-0.11c0.05-0.83,0.31-1.58,0.86-2.44
		C19.08,23.48,20.12,23.68,21.44,23.58z"/>
	<path class="st41" d="M28.6,19.34c0.42,0.6,0.35,0.95-0.46,0.94c-0.28,0-0.56,0.01-0.83-0.02c-0.43-0.04-1.01-0.06-1-0.6
		c0.02-0.57,0.62-0.27,0.97-0.35c0.23-0.05,0.47-0.04,0.71-0.06C28.19,19.29,28.4,19.32,28.6,19.34z"/>
	<path class="st42" d="M26.61,19.06c-2.13-0.03-4.25,0.13-6.38-0.09c0.11-0.1,0.22-0.28,0.34-0.28
		C22.59,18.57,24.61,18.65,26.61,19.06z"/>
	<path class="st43" d="M27.97,9.67c0.79,0.03,1.43,0.25,1.37,1.05c-0.06,0.78-0.64,1.3-1.43,1.32c-0.76,0.02-1.27-0.4-1.24-1.25
		C26.72,9.91,27.33,9.71,27.97,9.67z"/>
	<path class="st44" d="M15.16,11.14c-0.61-0.1-1.2-0.31-1.19-1.14c0.01-0.71,0.42-1.16,1.12-1.15c0.65,0.01,1.18,0.43,1.22,1.1
		C16.35,10.6,15.99,11.1,15.16,11.14z"/>
	<path class="st45" d="M25.05,11.82c-0.81-0.11-1.21-0.49-1.14-1.2c0.05-0.57,0.43-1.04,0.99-0.94c0.68,0.12,1.23,0.6,1.17,1.41
		C26.02,11.75,25.47,11.81,25.05,11.82z"/>
	<path class="st46" d="M12.11,6.53c0.87,0.06,1.75,0.06,2.6,0.31c0.71,0.19,1.42,0.38,2.13,0.57C15.21,7.39,13.59,7.36,12.11,6.53z"
		/>
	<path class="st47" d="M34.91,4.18c0.35,0,0.75,0.01,0.8,0.39c0.06,0.41-0.34,0.35-0.6,0.35c-0.35,0-0.81,0.04-0.83-0.44
		C34.26,4.09,34.68,4.22,34.91,4.18z"/>
	<path class="st48" d="M20.73,10.98c-0.65-0.06-1.3-0.12-1.96-0.18C19.47,10.29,20.16,9.98,20.73,10.98z"/>
	<path class="st49" d="M9.65,18.66c-0.28,0.9-1.17,0.83-1.83,1c-0.54,0.14-0.99-0.4-0.91-0.87c0.18-1.11,1.3-0.84,2.02-1.07
		C9.55,17.53,9.42,18.28,9.65,18.66z"/>
	<path class="st50" d="M12.58,15.5c0.55-0.07,1.18-0.24,1.09,0.7c-0.02,0.24-0.16,0.36-0.39,0.4C12.23,16.75,12.06,16.34,12.58,15.5
		z"/>
	<path class="st51" d="M13.28,16.6c0.13-0.13,0.26-0.26,0.39-0.4c0.3,0.31,0.71,0.08,1.05,0.22c0.05,0.4,0.1,0.83-0.38,0.99
		C13.64,17.63,13.65,16.84,13.28,16.6z"/>
	<path class="st52" d="M13.98,18.28c-0.11,0.32-0.29,0.57-0.66,0.56c-0.38-0.01-0.57-0.25-0.55-0.62c0.02-0.38,0.25-0.59,0.62-0.55
		C13.72,17.71,13.98,17.87,13.98,18.28z"/>
	<path class="st53" d="M11.86,17.84c-0.34-0.06-0.64-0.14-0.67-0.45c-0.04-0.42,0.26-0.49,0.61-0.48c0.29,0.01,0.56,0.03,0.53,0.42
		C12.31,17.67,12.06,17.76,11.86,17.84z"/>
	<path class="st54" d="M25.61,20.53c0.3,0.08,0.87,0.25,1.45,0.38c0.44,0.1,0.78,0.26,0.63,0.79c-0.13,0.48-0.19,1.09-0.92,1.01
		c-0.59-0.07-1.18-0.17-1.74-0.36c-0.48-0.17-0.74-0.56-0.61-1.13C24.54,20.71,24.79,20.43,25.61,20.53z"/>
	<path class="st55" d="M32.67,22.52c-0.44-0.08-0.87-0.25-0.94-0.73c-0.06-0.46,0.32-0.73,0.73-0.76c0.48-0.04,0.85,0.28,0.93,0.73
		C33.46,22.19,33.12,22.44,32.67,22.52z"/>
	<path class="st56" d="M32.43,24.11c-0.09,0.4-0.3,0.69-0.7,0.71c-0.44,0.03-0.8-0.22-0.81-0.67c-0.01-0.36,0.24-0.72,0.65-0.73
		C31.99,23.42,32.25,23.74,32.43,24.11z"/>
	<path class="st57" d="M30.43,21.68c0.18,0.33,0.84,0.09,0.81,0.64c-0.01,0.32-0.23,0.63-0.62,0.56c-0.36-0.06-0.69-0.28-0.74-0.67
		C29.84,21.9,30.11,21.75,30.43,21.68z"/>
	<path class="st58" d="M33.94,23.31c-0.08,0.33-0.27,0.62-0.61,0.63c-0.39,0.01-0.7-0.25-0.76-0.63c-0.05-0.32,0.21-0.53,0.53-0.45
		C33.4,22.92,33.85,22.8,33.94,23.31z"/>
	<path class="st59" d="M30.39,20.44c-0.1,0.27-0.32,0.31-0.56,0.31c-0.2,0-0.42-0.04-0.4-0.29c0.01-0.2,0.19-0.34,0.4-0.34
		C30.07,20.12,30.28,20.2,30.39,20.44z"/>
	<path class="st60" d="M28.05,10.38c0.23,0.03,0.55,0.03,0.52,0.32c-0.03,0.38-0.34,0.61-0.72,0.65c-0.34,0.04-0.5-0.17-0.48-0.5
		C27.42,10.43,27.71,10.37,28.05,10.38z"/>
	<path class="st61" d="M15.18,10.58c-0.31-0.1-0.64-0.11-0.66-0.46c-0.03-0.38,0.23-0.58,0.58-0.6c0.31-0.02,0.52,0.18,0.53,0.5
		C15.63,10.35,15.42,10.51,15.18,10.58z"/>
	<path class="st62" d="M25.5,10.8c0.01,0.4-0.13,0.56-0.42,0.56c-0.45-0.01-0.63-0.27-0.58-0.69c0.03-0.26,0.05-0.64,0.42-0.56
		C25.28,10.18,25.45,10.54,25.5,10.8z"/>
	<path class="st63" d="M9.1,18.59c-0.18,0.57-0.78,0.43-1.16,0.63c-0.29,0.15-0.5-0.1-0.45-0.34c0.12-0.54,0.67-0.41,1.05-0.55
		C8.77,18.26,9.02,18.23,9.1,18.59z"/>
	<path class="st64" d="M25.61,21.14c0.46,0.23,1.2,0,1.44,0.69c0.06,0.18-0.25,0.47-0.5,0.33c-0.48-0.27-1.26,0.15-1.5-0.6
		C24.95,21.25,25.23,21.08,25.61,21.14z"/>
</g>
</svg>
