<?xml version="1.0" encoding="utf-8"?>
<!-- Generator: Adobe Illustrator 23.0.2, SVG Export Plug-In . SVG Version: 6.00 Build 0)  -->
<svg version="1.1" id="Camada_1" xmlns="http://www.w3.org/2000/svg" xmlns:xlink="http://www.w3.org/1999/xlink" x="0px" y="0px"
	 viewBox="0 0 42.24 30.72" style="enable-background:new 0 0 42.24 30.72;" xml:space="preserve">
<style type="text/css">
	.st0{fill:#000202;}
	.st1{fill:#010607;}
	.st2{fill:#073340;}
	.st3{fill:#0E414F;}
	.st4{fill:#0B3B49;}
	.st5{fill:#022150;}
	.st6{fill:#0D3E4B;}
	.st7{fill:#0C3A48;}
	.st8{fill:#0E424F;}
	.st9{fill:#10334D;}
	.st10{fill:#104054;}
	.st11{fill:#A5E3F3;}
	.st12{fill:#A7E5F5;}
	.st13{fill:#AFECF2;}
	.st14{fill:#A7E5F4;}
	.st15{fill:#459BB2;}
	.st16{fill:#56A6BB;}
	.st17{fill:#4DA5BC;}
	.st18{fill:#05303E;}
	.st19{fill:#07D7DB;}
	.st20{fill:#2AC9D6;}
	.st21{fill:#0EE0E5;}
	.st22{fill:#184C5B;}
	.st23{fill:#4CA1BA;}
	.st24{fill:#051D2E;}
	.st25{fill:#27697B;}
	.st26{fill:#56B3CC;}
	.st27{fill:#65CCE6;}
	.st28{fill:#236475;}
	.st29{fill:#A8E5F5;}
	.st30{fill:#113B4D;}
	.st31{fill:#4EA2BA;}
	.st32{fill:#1CDBE3;}
	.st33{fill:#B0EEF3;}
	.st34{fill:#335160;}
	.st35{fill:#4DA8C0;}
	.st36{fill:#B2EBF3;}
	.st37{fill:#A9E6F5;}
	.st38{fill:#F1F405;}
	.st39{fill:#0EF0F2;}
	.st40{fill:#B5E5EA;}
	.st41{fill:#335754;}
	.st42{fill:#A3E1EE;}
	.st43{fill:#4CA5BA;}
	.st44{fill:#49A0B9;}
	.st45{fill:#19D2D9;}
	.st46{fill:#BEC507;}
	.st47{fill:#ABE7F0;}
	.st48{fill:#EEF6F7;}
	.st49{fill:#05C4C7;}
	.st50{fill:#A8E6F5;}
	.st51{fill:#4AA5BC;}
	.st52{fill:#AEE9F2;}
	.st53{fill:#0AE4E5;}
	.st54{fill:#EEF9FA;}
	.st55{fill:#BAEEF5;}
	.st56{fill:#F0F205;}
	.st57{fill:#F9FCFD;}
	.st58{fill:#0A2F3E;}
	.st59{fill:#67A5AF;}
	.st60{fill:#0C3F4D;}
	.st61{fill:#174959;}
	.st62{fill:#1C4D5D;}
	.st63{fill:#C0FEFE;}
	.st64{fill:#4EF5F9;}
	.st65{fill:#FCFE06;}
	.st66{fill:#132E49;}
	.st67{fill:#1E4556;}
	.st68{fill:#193E4D;}
	.st69{fill:#1A3744;}
	.st70{fill:#B8EDDB;}
	.st71{fill:#11354B;}
	.st72{fill:#102F47;}
	.st73{fill:#173955;}
	.st74{fill:#13324D;}
	.st75{fill:#55B6CE;}
	.st76{fill:#1DE5EC;}
	.st77{fill:#23E4ED;}
	.st78{fill:#DBE30E;}
	.st79{fill:#F0F305;}
</style>
<g>
	<path class="st0" d="M16.65,15.79c0.31,1.17,0.56,2.2,0.85,3.21c0.67,2.36-2.11,4.67-4.24,3.92c-1.07-0.37-1.93,0.12-2.87,0.29
		c-0.98,0.17-1.76,0.47-2.38,1.45c-1.53,2.42-4.07,2.19-5.25-0.42c-0.65-1.45-0.86-3.05-1.17-4.6c-0.2-0.99,0.3-1.65,1.24-2.18
		c1.95-1.09,3.91-2.11,6.02-2.86c0.51-0.18,0.64-0.36,0.6-0.99c-0.12-1.99-0.07-3.99-0.02-5.99c0.02-1.06,0.53-1.79,1.51-2.37
		c2.37-1.4,4.86-2.51,7.44-3.45c0.37-0.13,0.78-0.22,1.17-0.21c5.38,0.22,10.78,0.13,16.14,0.83c1.18,0.15,2.34,0.5,3.51,0.7
		c0.65,0.11,1,0.49,1.17,1.05c0.49,1.6,0.95,3.22,0.64,4.93c-0.3,1.63-1.49,2.7-2.59,3.77c-0.99,0.97-2.23,1.69-3.26,2.63
		c-1.69,1.54-3.65,1.47-5.73,1.28C25.22,16.42,21.01,16.13,16.65,15.79z"/>
	<path class="st1" d="M23,17.29c4.07,0.16,8.11,0.52,12.04,1.69c1.1,0.33,1.48,0.95,1.49,2.08c0.04,2.23-0.53,4.35-1.18,6.43
		c-0.63,2.02-3.84,2.87-5.62,1.3c-1.42-1.25-3.04-1.57-4.69-2.06c-0.86-0.26-1.68-0.35-2.45,0.33c-0.34,0.29-0.85,0.42-1.31,0.53
		c-2.52,0.59-4.25-0.81-4.01-3.38c0.19-2.02,0.93-3.93,1.69-5.8c0.36-0.89,1.05-1.22,2.01-1.13C21.63,17.34,22.32,17.29,23,17.29z"
		/>
	<path class="st2" d="M18.93,2.92c0.44-0.43,0.99-0.25,1.47-0.21c3.76,0.3,7.52,0.37,11.28,0.48c2.08,0.06,4.18,0.24,6.19,0.93
		c-0.06,0.59-0.55,0.46-0.91,0.55c-1.16,0.02-2.29-0.27-3.43-0.4c-0.52-0.06-1.1-0.2-1.47,0.25c-1.42,1.7-3.36,2.33-5.42,2.77
		c-0.81,0.34-1.6,0.33-2.42,0c-0.78-0.31-1.6-0.41-2.44-0.45c-0.6-0.03-1.17-0.15-1.66-0.53c-0.26-0.21-0.49-0.45-0.67-0.74
		c-0.48-1.29-0.41-1.53,0.65-2.06c0.21,0.04,0.34,0.16,0.4,0.37c-0.1,1.21,0.71,1.55,1.68,1.76c2.41,0.53,4.75,0.25,7.05-0.53
		c0.33-0.11,0.66-0.25,0.95-0.46c0.19-0.14,0.49-0.28,0.4-0.52C30.46,3.83,30.1,4,29.84,3.98c-1.84,0.1-3.67-0.03-5.49-0.31
		c-1.33-0.35-2.71-0.06-4.04-0.33c-0.12,0.02-0.25,0.03-0.38,0.02C19.56,3.31,19.19,3.24,18.93,2.92z"/>
	<path class="st3" d="M36.88,4.38c0.33-0.08,0.73,0.09,1-0.25c1.07-0.12,1.52,0.49,1.67,1.44c0.09,0.55,0.17,1.1,0.26,1.64
		c0.34,1.96-0.7,3.4-1.95,4.63c-1.07,1.05-2.4,1.84-3.53,2.83c-1.24,1.08-2.63,1.17-4.13,0.92c-0.14-0.16-0.13-0.32-0.01-0.49
		c0.36-0.27,0.78-0.21,1.18-0.23c0.11-0.01,0.22-0.01,0.33-0.02c0.16-0.02,0.32-0.05,0.48-0.08c1.19-0.2,1.64-1.38,2.57-1.92
		c0.21-0.14,0.42-0.28,0.63-0.42c0.16-0.1,0.33-0.2,0.47-0.34c0.17-0.18,0.32-0.38,0.52-0.54c0.33-0.25,0.68-0.49,0.94-0.83
		c0.29-0.48,0.49-0.91-0.37-0.92c-0.11,0-0.22-0.01-0.33-0.04c-0.16-0.08-0.25-0.21-0.23-0.4c0.45-0.86,1.54-0.93,2.16-1.81
		c-0.75,0.15-1.18,0.82-1.87,0.77c-0.18-0.05-0.29-0.16-0.3-0.35c0.27-0.67,0.93-0.9,1.46-1.27c0.52-0.37,0.75-0.77,0.37-1.36
		c-0.17-0.21-0.42-0.27-0.65-0.36C37.27,4.84,36.89,4.81,36.88,4.38z"/>
	<path class="st4" d="M18.93,2.92c0.36-0.04,0.68,0.1,0.99,0.26c-0.01,0.47-0.46,0.47-0.73,0.67c-1.69,0.6-3.37,1.22-4.94,2.1
		c-0.45,0.21-0.9,0.41-1.34,0.63c-0.29,0.16-0.47,0.44-0.73,0.63c-0.71,0.78-0.33,1.65-0.22,2.5c0.08,0.36,0.07,0.73,0,1.09
		c-0.22,0.65-0.12,1.33-0.16,1.99c0,0.12-0.02,0.24-0.05,0.36c-0.03,0.12-0.08,0.23-0.15,0.33c-0.23,0.22-0.5,0.32-0.82,0.22
		c-0.5-1.27-0.05-2.6-0.24-3.88C10.2,7.69,10.98,6.4,13,5.43C14.94,4.5,16.91,3.66,18.93,2.92z"/>
	<path class="st3" d="M16.3,19.99c-0.63,1.74-1.6,2.21-3.3,1.57c-0.36-0.13-0.66-0.16-1.03-0.05c-0.87,0.27-1.75,0.5-2.64,0.71
		c-0.99,0.23-1.83,0.52-2.24,1.65c-0.27,0.74-0.97,1.24-1.91,1.16c-0.64-0.06-1.03-0.36-1.14-1c0.05-0.18,0.16-0.3,0.34-0.34
		c0.11,0,0.23,0.01,0.33,0.05c0.82,0.28,1.36-0.08,1.52-0.84c0.12-0.61,0.49-0.88,0.96-1.11c1.66-0.8,3.47-1.16,5.23-1.65
		c0.19-0.05,0.42-0.08,0.58,0.03c1.24,0.88,1.97,0.17,2.63-0.81c0.04-0.06,0.12-0.1,0.19-0.14C16.29,19.29,16.32,19.63,16.3,19.99z"
		/>
	<path class="st5" d="M4.27,23.82c-0.08,0.07-0.16,0.14-0.23,0.21C3.2,22.61,3.03,21,2.88,19.43c-0.09-0.97,0.98-1.03,1.64-1.37
		c0.07,0.08,0.11,0.17,0.11,0.28c-0.13,0.54-0.85,0.55-0.97,1.1c-0.08,0.4-0.04,0.79,0.2,1.13c0.05,0.09,0.1,0.18,0.14,0.28
		c0.3,0.29,0.62,0.82,1.02,0.54c0.41-0.29,0.53-0.86,0.07-1.33c-0.06-0.47,0.13-0.72,0.62-0.73c1.09,0.23,1.36,0.95,1.19,1.95
		c-0.21,0.53-0.5,1-0.85,1.44c-1.22,0.56-1.44,0.5-2.14-0.55C4.08,22.68,4.39,23.21,4.27,23.82z"/>
	<path class="st6" d="M30.2,15.2c0,0.13,0,0.26,0,0.38c-2.98-0.13-5.94-0.36-8.9-0.71c-0.29-0.25-0.85,0.2-1-0.39
		c0.19-0.36,0.68-0.23,0.89-0.57c0.07-0.36,0.15-0.72-0.12-1.04c-0.2-0.14-0.46-0.22-0.53-0.5c0.11-0.35,0.6-0.32,0.7-0.69
		c0.08-0.15,0.18-0.27,0.31-0.37c0.19-0.09,0.34-0.02,0.46,0.13c0.35,0.48,0.32,1.04,0.35,1.59c0.02,0.42-0.11,0.89,0.35,1.18
		c1.54,0.17,3.08,0.3,4.63,0.39C28.32,14.65,29.32,14.66,30.2,15.2z"/>
	<path class="st4" d="M4.52,18.3c0-0.08,0-0.16,0-0.24c0.98-1.07,2.39-1.34,3.63-1.89c1.55-0.68,3.12-1.34,4.78-1.73
		c0.37-0.05,0.36,0.2,0.35,0.45c-0.06,0.18-0.18,0.31-0.34,0.41c-0.31,0.17-0.66,0.26-0.99,0.39c-1.86,0.58-3.59,1.48-5.42,2.13
		C5.84,17.89,5.31,18.66,4.52,18.3z"/>
	<path class="st7" d="M13.16,14.85c-0.01-0.18-0.06-0.33-0.23-0.41c-0.62-0.53-1.55-0.15-2.16-0.73c0.22-0.08,0.44-0.16,0.66-0.23
		c1.16-0.08,2.28,0.28,3.42,0.38c0.82,0.04,1.64-0.02,2.46,0.06c0.12,0.02,0.24,0.05,0.36,0.09c0.25,0.15,0.59,0.24,0.52,0.65
		c-0.73,0-1.46,0.04-2.19-0.16c-0.38-0.11-0.85-0.21-1.2,0.17c-0.22,0.17-0.46,0.28-0.73,0.36C13.76,15.02,13.42,15.15,13.16,14.85z
		"/>
	<path class="st4" d="M14.12,14.84c0.17-0.29,0.4-0.36,0.68-0.16c0.77,1.7,1.5,3.41,1.5,5.32c-0.15-0.25-0.3-0.51-0.45-0.76
		c-0.05-0.03-0.1-0.06-0.15-0.09c-0.39-0.71-0.47-1.52-0.83-2.25C14.67,16.19,14.23,15.58,14.12,14.84z"/>
	<path class="st6" d="M18.2,14.66c-0.16-0.14-0.32-0.28-0.48-0.41c0.05-0.17,0.16-0.31,0.27-0.45c0.4-0.95-0.22-2.06,0.45-2.96
		c0.44-0.12,0.43,0.26,0.56,0.5c0.03,0.1,0.04,0.21,0.04,0.32c-0.27,0.31,0.35,0.38,0.18,0.67c-0.04,0.1-0.08,0.19-0.13,0.27
		c-0.11,0.45-0.25,0.89,0.14,1.28c0.21,0.15,0.53,0.23,0.43,0.6c-0.28,0.3-0.69-0.08-0.97,0.19C18.52,14.67,18.36,14.67,18.2,14.66z
		"/>
	<path class="st7" d="M18.68,14.67c0.27-0.35,0.68-0.19,1.03-0.27c0.24-0.16,0.46-0.16,0.65,0.08c0.31,0.13,0.63,0.26,0.94,0.39
		C20.42,14.93,19.54,14.97,18.68,14.67z"/>
	<path class="st8" d="M31.65,19.47c0.39,0.04,0.8,0.05,1.18,0.14c2.6,0.61,2.82,0.92,2.36,3.57c-0.18,1.06-0.51,2.08-0.74,3.13
		c-0.56,2.53-3.39,2.52-4.53,1.13c-0.54-0.66-1.11-1.03-1.94-1.17c-0.9-0.15-1.77-0.45-2.65-0.7c-1.17-0.34-2.22-0.52-3.33,0.42
		c-0.8,0.68-2.02,0.8-2.92,0.13c-0.9-0.67-0.74-1.79-0.51-2.77c0.18-0.76,0.53-1.49,0.8-2.23c0.22,0.11,0.33,0.31,0.41,0.54
		c0.04,0.17,0.04,0.34,0.02,0.51c-0.07,0.8-0.69,1.52-0.34,2.38c0.58,0.78,1.36,0.8,1.95,0.19c0.93-0.97,2.02-0.83,3.11-0.67
		c1.3,0.2,2.58,0.49,3.85,0.8c0.98,0.24,1.83,0.53,2.47,1.47c0.72,1.05,1.89,0.86,2.74-0.28c0.56-1.3,0.59-2.71,0.82-4.08
		c0.12-0.75-0.32-1.05-0.99-1.22c-0.62-0.16-1.39-0.01-1.81-0.7c0.79-0.5-0.6-0.03-0.17-0.38c0,0-0.04-0.13,0.03-0.19
		C31.49,19.44,31.57,19.44,31.65,19.47z"/>
	<path class="st9" d="M31.65,19.47c-0.28,0.13,1.04,0.55-0.1,0.53c-0.82,0.57-1.66,0.04-2.49,0.04c-0.26-0.01-0.52-0.05-0.77-0.1
		c-0.42-0.15-0.88-0.15-1.31-0.25c-2.02-0.05-4.01-0.67-6.04-0.18c-0.26,0.24-0.45,0.54-0.65,0.82c-0.24,0.23-0.4,0.64-0.86,0.36
		c0.47-2.08,0.56-2.13,2.68-2.16C25.33,18.47,28.51,18.73,31.65,19.47z"/>
	<path class="st10" d="M19.44,20.68c0.36,0.02,0.44-0.34,0.67-0.48c0.24,0.09,0.42,0.26,0.56,0.47c0.03,0.1,0.02,0.2-0.02,0.29
		c-0.24,0.25-0.48,0.51-0.74,0.74c-0.1,0.04-0.19,0.02-0.27-0.07c-0.21-0.11-0.24-0.31-0.26-0.52
		C19.4,20.98,19.42,20.83,19.44,20.68z"/>
	<path class="st11" d="M24.2,3.37c1.99,0.11,3.98,0.23,5.97,0.34c0.64,0.92-0.24,1.17-0.7,1.6c-2.64,1.1-5.34,1.18-8.06,0.42
		c-1.23-0.34-1.44-0.82-1.05-1.87c0.16-0.42,0.47-0.61,0.91-0.58C22.24,3.33,23.22,3.18,24.2,3.37z"/>
	<path class="st12" d="M36.88,4.38c0.2,0.27,0.75-0.05,0.8,0.47c-1.4,1.66-3.05,2.92-5.26,3.28c-0.43-0.11-0.86-0.07-1.29-0.08
		c-1.61-0.02-3.29,0.28-4.59-1.07c1.53-0.39,3.37-0.45,4.3-1.79c1.1-1.59,2.37-1.29,3.8-1.08C35.38,4.22,36.13,4.29,36.88,4.38z"/>
	<path class="st13" d="M26.54,6.97c0.36,0.16,0.93-0.3,1.12,0.51c0.08,0.33,0.78,0.2,1.21,0.25c1.24,0.12,2.52-0.3,3.73,0.23
		c-0.1,0.11-0.21,0.19-0.35,0.24c-1.32,0.26-2.69-0.11-4,0.25c-1.68,0.06-3.33-0.28-4.98-0.46c-1.58-0.17-3.19-0.13-4.75-0.49
		c-0.88-0.32-1.81-0.07-2.7-0.26c-0.66-0.23-1.35-0.11-2.02-0.17c-0.5-0.05-1.1,0-1.08-0.78c0.46-0.17,0.92-0.34,1.38-0.51
		c1.47,0.63,3.08,0.3,4.6,0.63c0.15,0.03,0.31,0.01,0.47,0.01C19.9,6.48,19.9,6.48,20,5.98c0.01-0.04,0.13-0.02,0.2,0.03
		c0.26,0.16,0.52,0.45,0.78,0.46c1.42,0.07,2.81,0.27,4.18,0.7C25.6,7.3,26.11,7.25,26.54,6.97z"/>
	<path class="st14" d="M20.2,6c-0.51,0.34,0.28,0.44,0.16,0.72C18.6,6.95,16.9,6.4,15.17,6.48c-0.43,0.02-0.89-0.19-1.08-0.69
		c1.53-1.09,3.29-1.64,5.04-2.2c0.41-0.01,0.29,0.24,0.23,0.46c-0.14,0.55-0.21,1.08,0.34,1.47C19.87,5.68,20.04,5.84,20.2,6z"/>
	<path class="st4" d="M24.2,3.37c-0.79,0-1.58,0.03-2.36-0.02c-0.59-0.04-1.07,0.11-1.48,0.52c-0.1-0.09-0.2-0.17-0.31-0.26
		c-0.08-0.15-0.06-0.29,0.06-0.42C21.48,3.03,22.84,3.06,24.2,3.37z"/>
	<path class="st15" d="M29.46,5.32c0.36-0.48,0.97-0.85,0.7-1.6C30.5,3.7,30.95,3.5,31.12,3.9c0.17,0.39-0.28,0.61-0.53,0.82
		C30.26,4.98,29.93,5.3,29.46,5.32z"/>
	<path class="st16" d="M20.11,3.19c-0.02,0.14-0.04,0.28-0.06,0.42c-0.9,0.5-0.65,1.2-0.34,1.91c-1.11-0.37-0.25-1.33-0.57-1.94
		c0.26-0.13,0.52-0.27,0.78-0.4C19.98,3.19,20.05,3.2,20.11,3.19z"/>
	<path class="st17" d="M38.33,5.01c0.7,0.79,0.59,1.41-0.35,1.93c-0.54,0.3-1.03,0.68-1.54,1.03c-1.02,0.66-1.35,1.56-0.91,2.71
		c0.02,0.61,0.09,1.23-0.06,1.83c-0.1,0.21-0.21,0.4-0.46,0.44c-0.61,0.01-0.81,0.59-1.21,0.88c-0.3,0.21-0.5,0.77-0.95,0.54
		c-0.38-0.2-0.31-0.7-0.32-1.1c-0.02-1.16,0-2.32-0.01-3.47c0-0.32-0.04-0.64-0.04-0.96c0.05-0.3,0.23-0.51,0.5-0.62
		c1.76-0.76,3.32-1.84,4.81-3.04C37.93,5.07,38.13,5.02,38.33,5.01z"/>
	<path class="st18" d="M38.33,5.01c-1.69,1.59-3.6,2.82-5.77,3.66c0.06,1.41,0.04,2.83,0.03,4.24c0,0.4,0.16,0.9-0.43,1.09
		c-0.47-0.38-0.34-0.92-0.37-1.42c-0.07-1.09,0.13-2.19-0.13-3.27c-0.47-0.51-1.08-0.23-1.63-0.3C26.19,9.03,22.4,8.41,18.6,7.98
		c-0.39-0.04-0.79-0.15-1.09-0.44c0.11-0.71,0.57-0.36,0.94-0.31c2.94,0.26,5.89,0.34,8.79,0.92c0.34,0.07,0.7-0.03,1.06-0.05
		c1.39-0.14,2.8,0.11,4.19-0.13l0.06,0.03c0,0,0.05-0.05,0.05-0.05c1.96-0.6,3.46-1.95,5.07-3.11C37.9,4.86,38.15,4.79,38.33,5.01z"
		/>
	<path class="st19" d="M32.17,14.04c0.3-1.42,0.08-2.86,0.14-4.28c0.02-0.37-0.2-0.81,0.26-1.08c0.58,0.88,0.21,1.86,0.28,2.79
		c0.06,0.91,0.01,1.82,0.01,2.82c0.58-0.17,0.82-0.68,1.22-0.95c0.28-0.18,0.41-0.78,0.93-0.37c-0.54,0.5-1.06,1.02-1.62,1.5
		c-0.33,0.29-0.66,0.73-1.21,0.39C31.86,14.59,31.87,14.32,32.17,14.04z"/>
	<path class="st20" d="M30.2,15.2c-2.27-0.19-4.53-0.37-6.8-0.55c-0.36-0.03-0.72-0.02-1.04-0.22c-0.15-0.3,0.1-0.35,0.27-0.46
		c1.57-0.29,3.11-0.05,4.66,0.22c1.12,0.34,2.32,0,3.44,0.39c0.35,0.12,0.84-0.01,0.88,0.57C31.14,15.16,30.67,15.18,30.2,15.2z"/>
	<path class="st21" d="M36.78,8.24c0.46-0.29,0.92-0.58,1.39-0.85c0.18-0.1,0.31-0.61,0.61-0.17c0.19,0.28,0.18,0.57-0.18,0.79
		c-0.73,0.45-1.44,0.93-2.16,1.4c-0.36,0.23-0.68,0.2-0.84-0.22c-0.12-0.34,0.07-0.58,0.39-0.74C36.24,8.32,36.51,8.31,36.78,8.24z"
		/>
	<path class="st22" d="M36.78,8.24c-0.19,0.12-0.38,0.26-0.58,0.37c-0.23,0.13-0.56,0.21-0.46,0.56c0.11,0.35,0.45,0.18,0.7,0.23
		c0.11,0.09,0.21,0.19,0.32,0.28c0.01,0.16-0.06,0.29-0.14,0.42c-0.21,0.26-0.15,0.73-0.62,0.79c-0.22-0.15-0.45-0.27-0.72-0.33
		c-0.63-1.66-0.49-1.97,1.17-2.6C36.55,8.06,36.66,8.15,36.78,8.24z"/>
	<path class="st23" d="M31.61,15.15c-0.95-0.38-1.95-0.46-2.96-0.48c-0.46-0.01-0.95,0.14-1.36-0.21c0.81-0.62,1.76-0.28,2.65-0.36
		c0.51-0.04,1.03-0.02,1.55-0.02c0.15-0.01,0.28,0.02,0.41,0.09c0.1,0.34,0.2,0.68-0.06,0.99C31.77,15.15,31.69,15.15,31.61,15.15z"
		/>
	<path class="st24" d="M31.85,15.16c-0.02-0.32-0.03-0.64-0.05-0.96c-0.35-1.77-0.54-3.53,0.11-5.28c0.47,1.21,0.1,2.48,0.21,3.71
		c0.04,0.47,0.04,0.94,0.06,1.41c0,0.27,0.01,0.54,0.01,0.81C32.07,14.95,31.96,15.05,31.85,15.16z"/>
	<path class="st25" d="M35.28,10.57c0.45-0.52,0.64-0.33,0.69,0.25c0.49,0.49,0.06,0.98,0.01,1.47c-0.12,0.19-0.31,0.22-0.51,0.23
		C35.05,11.9,35.3,11.22,35.28,10.57z"/>
	<path class="st26" d="M36.45,9.88c0.1-0.07,0.2-0.13,0.3-0.2c0.06,0,0.12-0.03,0.17-0.07c0.76,0.21,0.49,0.75,0.39,1.24
		c-0.02,0.55-0.48,0.7-0.85,0.93C36.01,11.15,36.34,10.52,36.45,9.88z"/>
	<path class="st27" d="M38.69,8.7c0.05,0.17,0.11,0.28,0.1,0.37c-0.05,0.41,0.18,0.91-0.36,1.16c-0.05,0.02-0.25-0.1-0.26-0.16
		C38.11,9.55,38.08,9.04,38.69,8.7z"/>
	<path class="st22" d="M37.32,10.85c-0.37-0.34,0.12-0.94-0.39-1.24c0.41-0.37,0.74-0.2,0.88,0.22
		C37.95,10.27,38.03,10.78,37.32,10.85z"/>
	<path class="st28" d="M36.45,9.88c0,0.63,0.01,1.26,0.01,1.9c-0.16,0.17-0.32,0.34-0.48,0.51c0-0.49-0.01-0.98-0.01-1.47
		C36.37,10.63,36.02,10.05,36.45,9.88z"/>
	<path class="st29" d="M31.65,14.2c-0.98,0.54-2.03,0.1-3.04,0.21c-0.43,0.05-0.88,0.03-1.32,0.04c-1.6-0.15-3.2-0.34-4.81-0.24
		c-0.46-0.32-0.32-0.78-0.29-1.21c0.12-0.92,0.11-1.82-0.21-2.7c-0.81-0.52-1.76-0.48-2.64-0.48c-0.86,0-1.11,0.72-1.17,1.53
		c-0.05,0.77,0.31,1.6-0.31,2.29c-2.13-0.05-4.29,0.16-6.35-0.65c0.05-0.71-0.26-1.46,0.2-2.14c0.32-0.02,0.61,0.14,0.93,0.15
		c0.44,0.01,0.79-0.13,0.86-0.61c0.07-0.45-0.13-0.76-0.59-0.88c-0.34-0.09-0.7-0.12-0.96-0.41c-0.27-0.75-0.63-1.51,0.36-2.03
		c1.62-0.21,3.09,0.51,4.64,0.77c0.17-0.05-0.07-0.22-0.01-0.07c0.03,0.06,0,0.09-0.09,0.07c-0.25-0.05-0.7,0.13-0.53-0.44
		c0.4-0.21,0.79-0.19,1.16,0.05c4.21,0.64,8.43,1.18,12.69,1.28c0.07,0.05,0.1,0.13,0.07,0.21c1.19-0.06,1.37,0.11,1.39,1.32
		c0.01,1.26,0,2.52,0.01,3.78C31.64,14.08,31.65,14.14,31.65,14.2z"/>
	<path class="st30" d="M12.2,9.14c0.72-0.1,1.38-0.01,1.64,0.79c0.15,0.48,0.04,0.98-0.44,1.25c-0.62,0.34-1.22,0.27-1.68-0.33
		c0-0.41,0-0.82,0-1.22C11.66,9.24,11.82,9.08,12.2,9.14z"/>
	<path class="st31" d="M11.52,12.98c2.15,0.17,4.3,0.34,6.45,0.51c0.26,0.19,0.5,0.38,0.16,0.7c-0.14,0.02-0.28,0.04-0.42,0.06
		c0,0,0.01-0.07,0.01-0.07c-0.35-0.22-0.76-0.02-1.12-0.18c-1.72-0.11-3.48-0.01-5.11-0.75C11.51,13.16,11.52,13.07,11.52,12.98z"/>
	<path class="st32" d="M11.5,13.25c1.76,0.24,3.53,0.47,5.29,0.71c-0.63,0.29-1.31-0.01-1.95,0.18c-1.14-0.23-2.35-0.06-3.41-0.65
		C11.46,13.4,11.48,13.33,11.5,13.25z"/>
	<path class="st33" d="M12.2,9.14c-0.16,0.16-0.32,0.32-0.48,0.48c-0.46-0.77-0.16-1.6-0.2-2.4c-0.02-0.38,0.47-0.13,0.68-0.28
		c0.1-0.04,0.19-0.03,0.28,0.03c0.06,0.09,0.05,0.18-0.01,0.27C11.47,7.74,12.01,8.46,12.2,9.14z"/>
	<path class="st34" d="M12.46,6.98c-0.09-0.02-0.18-0.03-0.26-0.05c0.15-0.23,0.21-0.53,0.51-0.64c0.13,0.64,0.63,0.44,1.03,0.46
		c0.69,0.03,1.41-0.14,2.06,0.24c-0.12,0.3-0.31,0.52-0.65,0.56C14.29,7.19,13.34,7.26,12.46,6.98z"/>
	<path class="st35" d="M5.94,22.54c0.37-0.3,0.12-0.98,0.71-1.14c1.75-0.99,3.7-1.41,5.58-2.02c0.19-0.06,0.45-0.13,0.58-0.01
		c1.03,0.92,1.99,0.49,2.94-0.13c0,0,0.1-0.01,0.1-0.01c-0.68,1.73-1.21,1.97-2.81,1.22c-0.2-0.09-0.36-0.11-0.56-0.05
		c-1.75,0.52-3.56,0.85-5.22,1.67c-0.43,0.21-0.73,0.35-0.73,1.02c0,0.91-1.19,1.28-2.06,0.76C4.89,23.32,5.75,23.31,5.94,22.54z"/>
	<path class="st36" d="M5.94,22.54c0.13,1.12-0.71,1.16-1.46,1.3c0,0-0.1-0.03-0.1-0.03s-0.1,0.01-0.11,0.01
		c-0.11-0.24-0.26-0.48-0.33-0.73c-0.11-0.38-0.31-1.05-0.2-1.11c0.59-0.33,0.5,0.36,0.72,0.62C4.99,23.24,5.45,22.62,5.94,22.54z"
		/>
	<path class="st37" d="M15.75,19.24c-1.16,1.33-1.17,1.35-2.72,0.42c-0.4-0.24-0.7-0.04-1.01,0.07c-1.66,0.56-3.31,1.14-4.96,1.73
		c-0.16,0.06-0.29,0.12-0.41-0.06c0.23-0.91-0.13-1.52-0.96-1.89c-0.26-0.35-0.66,0.07-0.94-0.15c-0.16-0.09-0.26-0.22-0.31-0.4
		c0.5-0.76,1.37-0.96,2.09-1.38c1.75-0.86,3.56-1.59,5.42-2.18c0.29,0.14,0.63,0.14,0.89,0.34C12.94,15.8,13,15.89,13.03,16
		c0.01,0.55,0.3,0.81,0.84,0.82c0.39,0.13,0.79-0.04,1.19,0.04C15.58,17.56,15.78,18.37,15.75,19.24z"/>
	<path class="st38" d="M5.25,20.17c0.25,0.05,0.57-0.24,0.74,0.13c0.12,0.27-0.06,0.46-0.28,0.58c-0.29,0.15-0.42,0.34-0.28,0.67
		c0.07,0.16,0.04,0.31-0.12,0.41c-0.17,0.12-0.53,0.14-0.52,0.07c0.21-0.88-1.3-0.27-1-1.18c0.18-0.23,0.14-0.54,0.3-0.77
		C4.54,19.41,4.92,19.42,5.25,20.17z"/>
	<path class="st39" d="M6.54,17.58c-0.58,0.64-1.41,0.89-2.09,1.37C4.21,19.4,3.87,19.54,3.4,19.3c0.06-0.68,0.79-0.61,1.12-1
		C5.24,18.18,5.78,17.57,6.54,17.58z"/>
	<path class="st40" d="M3.4,19.3c0.35-0.12,0.69-0.23,1.04-0.35c0.1,0.1,0.21,0.2,0.31,0.3c-0.53,0.34-0.49,1.08-0.99,1.43
		C2.82,20.44,3.61,19.74,3.4,19.3z"/>
	<path class="st41" d="M3.76,20.69c0.23-0.55,0.16-1.3,0.99-1.43c0.33,0.04,0.73-0.21,0.94,0.26c-0.52-0.03-0.43,0.35-0.45,0.66
		c-0.38-0.29-0.82-0.93-0.94,0.17c-0.04,0.33-0.24,0.44-0.52,0.51C3.77,20.8,3.76,20.75,3.76,20.69z"/>
	<path class="st7" d="M18.13,14.19c-0.05-0.23-0.11-0.47-0.16-0.7c0.02-0.95,0.03-1.9,0.05-2.86c0.01-0.47,0.14-0.92,0.66-1
		c1.24-0.2,2.48-0.25,3.62,0.44c0.15,0.98,0.18,1.96-0.02,2.95c-0.02,0.41-0.05,0.83,0.2,1.19c-0.04,0.07-0.09,0.14-0.13,0.22
		c-0.57-0.36-0.3-0.94-0.3-1.41c0-0.61-0.13-1.17-0.28-1.74c-0.88-0.87-1.96-1.02-3.11-0.43c-0.45,0.69-0.12,1.45-0.23,2.17
		C18.38,13.42,18.62,13.9,18.13,14.19z"/>
	<path class="st42" d="M18.96,12.32c0.07-0.01,0.13-0.03,0.19-0.07c0.47-0.34,0.93-0.37,1.35,0.08c0.26,0.07,0.51,0.14,0.77,0.21
		c0.03,1.24-0.19,1.51-1.2,1.48C18.98,13.99,18.8,13.72,18.96,12.32z"/>
	<path class="st43" d="M18.67,10.84c0.61-1.39,1.68-0.38,2.53-0.47c0.68-0.08,0.54,0.49,0.57,0.9c-0.06,0.1-0.13,0.2-0.19,0.31
		c-0.1,0.07-0.2,0.08-0.31,0.05c-0.72-0.53-1.45-0.8-2.2-0.05c-0.1,0.07-0.19,0.07-0.29-0.01C18.74,11.32,18.71,11.08,18.67,10.84z"
		/>
	<path class="st44" d="M18.96,12.32c0.01,0.9,0.19,1.49,1.37,1.43c0.98-0.05,0.63-0.81,0.94-1.21c0.54,0.5,0.19,1.12,0.24,1.69
		c-0.87,0.39-1.71-0.35-2.58-0.04C18.47,13.55,18.47,12.93,18.96,12.32z"/>
	<path class="st7" d="M20.51,12.33c-0.45-0.03-0.9-0.05-1.35-0.08c0.03-0.19-0.56-0.17-0.17-0.48c0.79-0.43,1.57-0.47,2.33,0.08
		C21.5,12.76,20.72,12.06,20.51,12.33z"/>
	<path class="st45" d="M18.94,14.18c0.87-0.59,1.72,0.18,2.58,0.04c-0.29,0.53-0.78,0.14-1.16,0.26c-0.22-0.03-0.43-0.06-0.65-0.08
		C19.45,14.33,19.19,14.26,18.94,14.18z"/>
	<path class="st46" d="M21.32,11.84c-0.78-0.03-1.56-0.05-2.33-0.08c-0.07-0.07-0.13-0.14-0.2-0.2c0.08-0.01,0.14-0.06,0.18-0.12
		c0.8-0.39,1.59-0.27,2.37,0.06c0.08,0.03,0.16,0.05,0.25,0.08C21.5,11.66,21.41,11.75,21.32,11.84z"/>
	<path class="st47" d="M15.05,16.85c-0.31,0.6-0.78,0.27-1.21,0.21c-0.13-0.52-0.42-0.91-0.9-1.16l-0.06-0.07
		c-0.14-0.24-0.04-0.49-0.04-0.74c0.1-0.08,0.21-0.17,0.31-0.25c0.32-0.11,0.64-0.1,0.96-0.01C14.77,15.35,14.91,16.1,15.05,16.85z"
		/>
	<path class="st48" d="M12.85,15.1c0.41,0.23,0.26,0.48,0.04,0.74c-0.43,0.11-0.76,0-0.93-0.44C12.2,15.14,12.52,15.12,12.85,15.1z"
		/>
	<path class="st49" d="M14.84,14.13c0.62-0.37,1.31-0.07,1.95-0.18c0.32,0.02,0.68-0.1,0.93,0.23
		C16.76,14.17,15.8,14.15,14.84,14.13z"/>
	<path class="st50" d="M27.19,19.48c0.39,0.04,0.8-0.03,1.16,0.2c-0.2,0.42-0.73,0.19-1.06,0.56c0.7,0.16,1.34,0.38,1.69-0.48
		c0.86,0.08,1.72,0.17,2.58,0.25c0.89,0.2,1.77,0.43,2.66,0.59c0.42,0.08,0.68,0.18,0.6,0.66c-0.3,1.67-0.16,3.42-0.99,4.98
		c-1.56,1.17-2.32,1.05-3.33-0.61c-0.33-0.55-0.83-0.71-1.38-0.81c-2.19-0.38-4.35-0.92-6.58-1.04c-0.64-0.41-0.05-0.6,0.17-0.84
		c0.5-0.56,0.86-1.13,0.16-1.8c-0.16-0.32-0.28-0.65-0.13-1.01c0.21-0.3,0.55-0.26,0.84-0.3c-0.31-0.03-0.65,0.17-0.97,0.04
		c-0.45-0.17-0.48-0.4,0-0.6C24.13,19.29,25.66,19.31,27.19,19.48z"/>
	<path class="st51" d="M22.25,23.56c2.63-0.17,5.11,0.68,7.66,1.08c0.38,0.06,0.69,0.22,0.87,0.69c0.61,1.61,1.08,1.75,2.69,0.97
		c0.1-0.05,0.23-0.05,0.35-0.07c-1.02,1.5-2.61,1.47-3.5-0.08c-0.14-0.24-0.21-0.51-0.53-0.59c-2.21-0.53-4.38-1.23-6.68-1.3
		c-0.53-0.02-0.91,0.04-1.29,0.58c-0.7,1.01-2.03,0.81-2.71-0.29c0.71-0.37,1.68,0.26,2.28-0.57c0.13-0.24,0.32-0.41,0.58-0.5
		C22.08,23.46,22.17,23.49,22.25,23.56z"/>
	<path class="st52" d="M21.56,24c0.04,0.81-0.62,0.68-1.07,0.76c-0.47,0.08-0.94,0.01-1.38-0.21c-0.29-0.92,0.26-1.66,0.53-2.46
		c0.18-0.02,0.37,0.05,0.37,0.21C20.03,23.34,20.79,23.67,21.56,24z"/>
	<path class="st9" d="M21.56,24c-1.55,0.03-1.63-0.04-1.68-1.55c-0.01-0.17-0.06-0.3-0.24-0.36c0-0.15,0-0.3,0-0.45
		c0.1-0.01,0.19-0.01,0.29-0.02c0.95-0.06,0.73,0.61,0.72,1.15c0.01,0.56,0.42,0.44,0.76,0.48c0.26,0.03,0.67-0.19,0.66,0.35
		C21.9,23.74,21.73,23.87,21.56,24z"/>
	<path class="st53" d="M27.19,19.48c-1.63,0.02-3.27,0.03-4.9,0.05c-0.6,0.36-1.18,0.44-1.71-0.13c0.05-0.22,0.2-0.34,0.42-0.34
		C23.08,18.99,25.15,19.04,27.19,19.48z"/>
	<path class="st54" d="M28.98,19.75c0.42,0.6,0.34,0.95-0.47,0.94c-0.28,0-0.56,0.01-0.83-0.02c-0.43-0.04-1.01-0.06-1-0.6
		c0.02-0.58,0.62-0.28,0.96-0.35c0.23-0.05,0.47-0.04,0.71-0.06C28.56,19.7,28.77,19.73,28.98,19.75z"/>
	<path class="st55" d="M20.58,19.4c0.57,0.04,1.14,0.08,1.71,0.13c0.58,0.45,1.29,0.01,1.95,0.31c-0.51,0.22-1.07,0.03-1.49,0.37
		c-0.69,0.3-1.54-0.14-2.15,0.48c-0.4,0.07-0.57-0.08-0.49-0.49C20.27,19.93,20.43,19.66,20.58,19.4z"/>
	<path class="st56" d="M20.39,22.78c0.07-0.47,0.31-1.02-0.46-1.15c-0.15-0.6,0.36-0.54,0.67-0.68c0.79-1.19,1.21-1.16,2.17,0.17
		c0.07,0.09,0.19,0.17,0.23,0.27c0.3,0.64-0.17,0.92-0.62,1.01C21.72,22.52,21.3,24.04,20.39,22.78z"/>
	<path class="st9" d="M22.44,21.19c-0.12-0.01-0.33-0.01-0.33-0.04c-0.21-1.37-0.7-1.04-1.29-0.23c-0.03,0.04-0.14,0.01-0.22,0.02
		c0-0.08,0-0.17,0-0.25c0.44-1.41,1.39-0.52,2.15-0.48c0.3,0.25,0.35,0.56,0.24,0.92C22.83,21.33,22.64,21.27,22.44,21.19z"/>
	<path class="st57" d="M35.34,5.34c-0.32-0.05-0.75-0.06-0.68-0.48c0.07-0.43,0.51-0.25,0.8-0.26C35.75,4.58,36.1,4.69,36.08,5
		C36.06,5.48,35.61,5.28,35.34,5.34z"/>
	<path class="st58" d="M15.33,7.44c0-0.32,0.22-0.41,0.48-0.45c0.88,0.04,1.78-0.11,2.63,0.24c-0.32,0.04-0.69-0.1-0.96,0.21
		c-0.4,0.09-0.82-0.19-1.22,0.06C15.94,7.7,15.63,7.69,15.33,7.44z"/>
	<path class="st12" d="M32.49,7.98c-1.38,0.45-2.79,0.12-4.19,0.13C29.68,7.77,31.09,8.03,32.49,7.98z"/>
	<path class="st59" d="M30.24,8.89c-0.02-0.06-0.04-0.12-0.06-0.17c0.58,0.02,1.19-0.25,1.72,0.2c-0.04,1.76-0.07,3.52-0.11,5.28
		c-0.05,0-0.1,0-0.15,0c0,0-0.07-0.02-0.07-0.02c-0.12-1.19-0.09-2.38-0.03-3.56C31.6,9.61,31.47,8.88,30.24,8.89z"/>
	<path class="st60" d="M27.05,11.03c0.07-0.76,0.69-0.97,1.49-0.94c0.67,0.02,1.17,0.29,1.2,1.03c0.03,0.64-0.88,1.4-1.56,1.35
		C27.5,12.42,27.01,11.89,27.05,11.03z"/>
	<path class="st61" d="M16.71,10.41c-0.15,0.71-0.47,1.19-1.2,1.13c-0.69-0.06-1.23-0.38-1.18-1.18c0.04-0.69,0.46-1.13,1.14-1.09
		C16.17,9.31,16.61,9.76,16.71,10.41z"/>
	<path class="st62" d="M26.5,11.28c-0.04,0.75-0.48,0.97-1.04,0.95c-0.71-0.02-1.23-0.34-1.2-1.14c0.02-0.59,0.38-1.05,0.93-1.02
		C25.9,10.1,26.34,10.63,26.5,11.28z"/>
	<path class="st63" d="M30.24,8.89c1.1-0.17,1.54,0.22,1.42,1.4c-0.13,1.29-0.07,2.6-0.09,3.9c-0.38-1.16-0.19-2.35-0.15-3.52
		c0.05-1.16-0.23-1.74-1.49-1.51c-0.14,0.03-0.3-0.02-0.48-0.03C29.68,8.79,30,8.99,30.24,8.89z"/>
	<path class="st64" d="M15.33,7.44c0.31,0.02,0.63,0.04,0.94,0.06c0.24,0.31,0.66,0.15,1.24,0.43c-1.93,0.16-3.44-0.62-5.04-0.69
		c0-0.08,0-0.17,0-0.25C13.44,7,14.42,6.99,15.33,7.44z"/>
	<path class="st6" d="M22.28,13.01c0.01-0.98,0.01-1.96,0.02-2.95C22.69,11.05,22.7,12.03,22.28,13.01z"/>
	<path class="st65" d="M13.22,10.2c-0.05,0.34-0.17,0.52-0.46,0.48c-0.25-0.03-0.45-0.17-0.43-0.45c0.02-0.27,0.21-0.39,0.48-0.39
		C13.1,9.84,13.21,10.01,13.22,10.2z"/>
	<path class="st66" d="M10.04,19.08c-0.38,0.87-1.23,0.86-1.91,0.99c-0.54,0.1-0.97-0.47-0.86-0.92c0.26-1.03,1.34-0.83,2.08-1.02
		C9.95,17.98,9.75,18.77,10.04,19.08z"/>
	<path class="st67" d="M12.94,15.91c1.12-0.26,1.3,0.23,0.9,1.16C12.99,17.12,12.23,17.08,12.94,15.91z"/>
	<path class="st68" d="M12.15,17.32c0.28,0,0.57,0,0.55,0.4c-0.01,0.32-0.22,0.51-0.52,0.5c-0.33,0-0.65-0.14-0.63-0.52
		C11.56,17.38,11.84,17.29,12.15,17.32z"/>
	<path class="st69" d="M14.12,18.75c0,0.32-0.14,0.49-0.42,0.49c-0.37,0-0.57-0.22-0.57-0.59c0-0.2,0.05-0.38,0.32-0.37
		C13.81,18.3,14.04,18.45,14.12,18.75z"/>
	<path class="st70" d="M21.34,11.5c-0.79-0.06-1.59,0.27-2.37-0.06C19.59,10.56,20.64,10.59,21.34,11.5z"/>
	<path class="st71" d="M27.06,23.11c-1.48-0.03-2.37-0.54-2.29-1.34c0.06-0.59,0.39-1.08,1-0.84c0.79,0.3,2.06-0.14,2.27,1.14
		C28.11,22.55,27.86,23.21,27.06,23.11z"/>
	<path class="st10" d="M22.44,21.19c0.18-0.02,0.37-0.04,0.55-0.06c0.77,0.54,0.64,1.71-0.28,2.17c-0.16,0.08-0.4,0.02-0.47,0.26
		c-0.06,0-0.12,0.01-0.18,0.04c-0.4-0.3-0.82,0.04-1.24-0.03c-0.54-0.09-0.69-0.31-0.44-0.79c0.48,0.3,0.94,0.57,1.15-0.28
		c0.1-0.4,0.42-0.34,0.75-0.38C23.17,21.99,23.04,21.61,22.44,21.19z"/>
	<path class="st72" d="M32.86,21.41c0.45,0.1,0.86,0.32,0.89,0.8c0.03,0.38-0.27,0.68-0.67,0.68c-0.47,0.01-0.9-0.22-0.97-0.7
		C32.04,21.73,32.45,21.53,32.86,21.41z"/>
	<path class="st73" d="M32.04,25.26c-0.41-0.09-0.76-0.27-0.76-0.67c0-0.36,0.24-0.76,0.64-0.73c0.48,0.04,0.51,0.61,0.65,0.95
		C32.69,25.06,32.3,25.2,32.04,25.26z"/>
	<path class="st74" d="M31.66,22.64c-0.14,0.38-0.26,0.71-0.65,0.66c-0.37-0.05-0.69-0.28-0.76-0.65c-0.06-0.31,0.24-0.6,0.49-0.51
		C31.05,22.24,31.49,22.28,31.66,22.64z"/>
	<path class="st75" d="M28.95,11.06c-0.01,0.3-0.19,0.47-0.44,0.46c-0.24,0-0.6,0.17-0.71-0.2c-0.1-0.34,0.13-0.51,0.46-0.52
		C28.52,10.79,28.82,10.74,28.95,11.06z"/>
	<path class="st76" d="M16,10.41c-0.02,0.31-0.14,0.56-0.48,0.56c-0.27,0-0.59-0.07-0.63-0.4c-0.05-0.38,0.21-0.58,0.55-0.62
		C15.75,9.9,15.94,10.1,16,10.41z"/>
	<path class="st77" d="M25.81,11.35c-0.03,0.38-0.27,0.42-0.52,0.36c-0.41-0.1-0.42-0.41-0.36-0.76c0.03-0.21,0.14-0.47,0.33-0.41
		C25.62,10.67,25.78,11.01,25.81,11.35z"/>
	<path class="st78" d="M8.98,18.72c0.31-0.07,0.53,0.05,0.49,0.25c-0.14,0.65-0.82,0.45-1.23,0.69c-0.21,0.12-0.41-0.12-0.38-0.3
		C7.97,18.66,8.66,18.93,8.98,18.72z"/>
	<path class="st79" d="M26.23,21.65c0.29,0.17,1.03-0.12,1.18,0.59c0.06,0.29-0.33,0.46-0.62,0.31c-0.45-0.24-1.2,0.13-1.37-0.58
		C25.33,21.56,25.69,21.46,26.23,21.65z"/>
</g>
</svg>
