<?xml version="1.0" encoding="utf-8"?>
<!-- Generator: Adobe Illustrator 23.0.2, SVG Export Plug-In . SVG Version: 6.00 Build 0)  -->
<svg version="1.1" id="Camada_1" xmlns="http://www.w3.org/2000/svg" xmlns:xlink="http://www.w3.org/1999/xlink" x="0px" y="0px"
	 viewBox="0 0 526.93 203.46" style="enable-background:new 0 0 526.93 203.46;" xml:space="preserve">
<style type="text/css">
	.st0{fill:#FDFDFD;}
</style>
<g>
	<path d="M195.4,201.12c-35.51-0.44-71.02-0.88-106.53-1.33c-25.51-0.32-51.03-0.63-76.54-0.98c-2.74-0.04-5.52,0.26-8.22-0.59
		c-1.79-0.57-3-1.79-3.64-3.51c-1.01-2.74-0.33-5.12,1.4-7.46c13.41-18.21,26.76-36.47,40.13-54.71
		c11.67-15.92,23.35-31.84,35.02-47.76c13.37-18.24,26.74-36.49,40.11-54.73c6.54-8.93,13.14-17.82,19.61-26.8
		c1.71-2.37,3.98-3.28,6.67-3.25c16.68,0.17,33.35,0.42,50.03,0.63c24.19,0.3,48.39,0.59,72.58,0.89
		c25.51,0.32,51.03,0.64,76.54,0.96c25.51,0.32,51.03,0.64,76.54,0.96c25.51,0.32,51.03,0.64,76.54,0.96
		c8.08,0.1,16.16,0.19,24.23,0.35c2.47,0.05,4.7,0.71,6.16,3c1.21,1.9,1.26,5.43-0.07,7.24c-11.74,16.02-23.48,32.04-35.22,48.05
		c-14.01,19.11-28.01,38.23-42.01,57.34c-11.67,15.92-23.35,31.84-35.02,47.76c-7.84,10.7-15.72,21.37-23.5,32.12
		c-1.69,2.33-3.94,3.23-6.57,3.2c-17.88-0.18-35.75-0.44-53.62-0.67c-29.43-0.37-58.86-0.72-88.3-1.08
		C226.26,201.52,210.83,201.31,195.4,201.12C195.4,201.11,195.4,201.11,195.4,201.12z"/>
	<path class="st0" d="M6.44,192.13c0.03-0.45,0.38-0.69,0.6-1C51.91,129.9,96.79,68.68,141.64,7.44c0.57-0.78,1.14-1.01,2.06-1
		c36.35,0.49,72.7,0.95,109.04,1.41c29.95,0.38,59.9,0.73,89.85,1.1c25.47,0.32,50.94,0.64,76.42,0.96
		c25.51,0.32,51.02,0.64,76.54,0.96c8.04,0.1,16.07,0.22,24.11,0.33c0.27,0,0.54,0,0.88,0c-0.07,0.59-0.46,0.91-0.73,1.27
		C480.26,66.45,440.7,120.43,401.14,174.4c-5.31,7.25-10.64,14.49-15.93,21.76c-0.48,0.66-0.97,0.87-1.77,0.86
		c-30.47-0.41-60.94-0.8-91.41-1.18c-29.51-0.37-59.02-0.72-88.53-1.09c-25.47-0.32-50.94-0.64-76.42-0.96
		c-25.51-0.32-51.02-0.64-76.54-0.96c-14.32-0.18-28.63-0.38-42.95-0.57C7.23,192.25,6.82,192.36,6.44,192.13z"/>
</g>
</svg>
