<?xml version="1.0" encoding="utf-8"?>
<!-- Generator: Adobe Illustrator 23.0.2, SVG Export Plug-In . SVG Version: 6.00 Build 0)  -->
<svg version="1.1" id="Camada_1" xmlns="http://www.w3.org/2000/svg" xmlns:xlink="http://www.w3.org/1999/xlink" x="0px" y="0px"
	 viewBox="0 0 215.29 215.3" style="enable-background:new 0 0 215.29 215.3;" xml:space="preserve">
<style type="text/css">
	.st0{fill:#FDFDFD;}
</style>
<g>
	<path d="M107.53,215.3c-33.32,0-66.64,0.01-99.96-0.02c-2.6,0-4.99-0.66-6.48-3.1c-0.73-1.19-0.85-2.55-1.07-3.88
		c-0.04-0.23-0.01-0.48-0.01-0.72c0-66.64,0-133.28,0.01-199.92c0-2.65,0.64-5.08,3.12-6.59C4.34,0.36,5.7,0.21,7.04,0.03
		c0.47-0.06,0.96-0.01,1.44-0.01c66.4,0,132.8,0,199.2,0.01c2.65,0,5.1,0.65,6.56,3.16c0.78,1.33,1.05,2.83,1.05,4.36
		c0.01,13.56,0.01,27.12,0.01,40.68c0,53.16,0.01,106.32-0.02,159.48c0,2.6-0.63,5.01-3.08,6.49c-1.37,0.83-2.9,1.09-4.47,1.1
		C174.33,215.3,140.93,215.3,107.53,215.3z"/>
	<path class="st0" d="M6.49,107.66c0-33.28,0.01-66.56-0.03-99.84c0-1.08,0.26-1.35,1.35-1.35c66.56,0.03,133.12,0.03,199.68,0
		c1.08,0,1.35,0.26,1.35,1.35c-0.03,66.56-0.03,133.12,0,199.68c0,1.08-0.26,1.35-1.35,1.35c-66.56-0.03-133.12-0.03-199.68,0
		c-1.08,0-1.35-0.26-1.35-1.35C6.5,174.22,6.49,140.94,6.49,107.66z"/>
</g>
</svg>
